<svg xmlns="http://www.w3.org/2000/svg" xmlns:xlink="http://www.w3.org/1999/xlink" id="Calque_2" data-name="Calque 2" viewBox="0 0 581.57 570.41"><defs><linearGradient id="linear-gradient" x1="0" x2="581.57" y1="285.03" y2="285.03" gradientUnits="userSpaceOnUse"><stop offset="0" stop-color="#d7d9dd"/><stop offset=".27" stop-color="#b7b8bc"/><stop offset=".86" stop-color="#66646a"/><stop offset="1" stop-color="#535157"/></linearGradient><linearGradient xlink:href="#linear-gradient" id="linear-gradient-2" x1="112.21" x2="123.73" y1="407.6" y2="407.6"/><linearGradient xlink:href="#linear-gradient" id="linear-gradient-3" x1="52.63" x2="52.87" y1="224.83" y2="224.83"/><linearGradient xlink:href="#linear-gradient" id="linear-gradient-4" x1="117.33" x2="537.61" y1="365.18" y2="365.18"/><linearGradient xlink:href="#linear-gradient" id="linear-gradient-5" x1="37.11" x2="38.35" y1="224.39" y2="224.39"/><linearGradient xlink:href="#linear-gradient" id="linear-gradient-6" x1="35.88" x2="36.69" y1="217.44" y2="217.44"/><linearGradient xlink:href="#linear-gradient" id="linear-gradient-7" x1="50.27" x2="50.55" y1="54.87" y2="54.87"/><linearGradient xlink:href="#linear-gradient" id="linear-gradient-8" x1="46.51" x2="77.41" y1="99.18" y2="99.18"/><linearGradient xlink:href="#linear-gradient" id="linear-gradient-9" x1="91.28" x2="113" y1="90.58" y2="90.58"/><linearGradient xlink:href="#linear-gradient" id="linear-gradient-10" x1="119.61" x2="150.12" y1="84.32" y2="84.32"/><linearGradient xlink:href="#linear-gradient" id="linear-gradient-11" x1="167.97" x2="179.31" y1="136.33" y2="136.33"/><linearGradient xlink:href="#linear-gradient" id="linear-gradient-12" x1="173.54" x2="195.51" y1="77.11" y2="77.11"/><linearGradient xlink:href="#linear-gradient" id="linear-gradient-13" x1="181.9" x2="197.95" y1="136.33" y2="136.33"/><linearGradient xlink:href="#linear-gradient" id="linear-gradient-14" x1="200.27" x2="216.31" y1="136.33" y2="136.33"/><linearGradient xlink:href="#linear-gradient" id="linear-gradient-15" x1="217.61" x2="228.95" y1="136.33" y2="136.33"/><linearGradient xlink:href="#linear-gradient" id="linear-gradient-16" x1="202.54" x2="231.64" y1="74.48" y2="74.48"/><linearGradient xlink:href="#linear-gradient" id="linear-gradient-17" x1="240.55" x2="263.22" y1="71.76" y2="71.76"/><linearGradient xlink:href="#linear-gradient" id="linear-gradient-18" x1="270.79" x2="301.04" y1="70.98" y2="70.98"/><linearGradient xlink:href="#linear-gradient" id="linear-gradient-19" x1="309.78" x2="332.46" y1="71.42" y2="71.42"/><linearGradient xlink:href="#linear-gradient" id="linear-gradient-20" x1="340.03" x2="369.14" y1="73.19" y2="73.19"/><linearGradient xlink:href="#linear-gradient" id="linear-gradient-21" x1="378.04" x2="391.07" y1="75.69" y2="75.69"/><linearGradient xlink:href="#linear-gradient" id="linear-gradient-22" x1="399.74" x2="430.37" y1="79.39" y2="79.39"/><linearGradient xlink:href="#linear-gradient" id="linear-gradient-23" x1="438.85" x2="451.79" y1="84.02" y2="84.02"/><linearGradient xlink:href="#linear-gradient" id="linear-gradient-24" x1="457.78" x2="490.29" y1="90.16" y2="90.16"/><linearGradient xlink:href="#linear-gradient" id="linear-gradient-25" x1="504.15" x2="543.1" y1="99.18" y2="99.18"/><linearGradient xlink:href="#linear-gradient" id="linear-gradient-26" x1="555.39" x2="555.4" y1="62.06" y2="62.06"/><linearGradient id="linear-gradient-27" x1="347.08" x2="517.34" y1="108.22" y2="424.31" gradientUnits="userSpaceOnUse"><stop offset="0" stop-color="#fff"/><stop offset=".35" stop-color="#e5e5e8"/><stop offset="1" stop-color="#adaeb5"/></linearGradient><linearGradient xlink:href="#linear-gradient-27" id="linear-gradient-28" x1="255.84" x2="426.11" y1="157.36" y2="473.46"/><linearGradient xlink:href="#linear-gradient-27" id="linear-gradient-29" x1="244.25" x2="414.52" y1="163.61" y2="479.71"/><linearGradient id="linear-gradient-30" x1="37.74" x2="38.58" y1="226.44" y2="226.44" gradientUnits="userSpaceOnUse"><stop offset="0" stop-color="#e20010"/><stop offset=".88" stop-color="#c1000b"/><stop offset="1" stop-color="#bd000b"/></linearGradient><linearGradient xlink:href="#linear-gradient-30" id="linear-gradient-31" x1="104.83" x2="130.85" y1="407.6" y2="407.6"/><linearGradient xlink:href="#linear-gradient-30" id="linear-gradient-32" x1="37.14" x2="149.88" y1="332.9" y2="332.9"/><style>.cls-2{fill:#1a1a18}.cls-12{fill:#131311}.cls-13{fill:#fff}.cls-37{fill:#e20010}</style></defs><g id="Odense_Boldklub" data-name="Odense Boldklub"><path d="M579.93 44.78q-.075-.915-.15-1.56v-.04l-.05-.48v-.08l-22.39 18.8v.12c.39 3.86 1.66 18.14 1.66 39.62 0 31.51-2.62 63.49-7.78 95.05-7.16 43.75-19.04 85.28-35.34 123.44-20.17 47.23-47.23 89.44-80.45 125.48-39.12 42.46-87.37 76.94-143.39 102.48l-.5.23v22.22c.6-.27 1.19-.55 1.79-.83C606.2 425.76 583.22 80.77 579.93 44.78m-23.69 15.48.1.03 22.44-18.84-.56-.18h-.01c-.48-.15-.97-.31-1.46-.46C457.36 2.89 325.28 0 290.78 0S124.21 2.89 4.81 40.81c-.48.15-.97.31-1.46.47-.18.06-.37.11-.55.17L25.24 60.3l.1-.03c47.14-15.11 101.71-25.99 162.19-32.35 49.63-5.21 88.74-5.77 103.25-5.77s53.63.56 103.25 5.77c60.46 6.35 115.03 17.24 162.21 32.34M289.53 547.61c-56.02-25.54-104.26-60.02-143.39-102.48-33.23-36.06-60.29-78.28-80.44-125.48-.35-.81-.69-1.62-1.03-2.44-.34-.81-.68-1.63-1.02-2.45-.27-.63-.53-1.26-.79-1.9-.06-.13-.11-.27-.16-.4-.43-1.03-.84-2.07-1.26-3.11-.17-.42-.33-.84-.5-1.26-.64-1.6-1.27-3.2-1.89-4.82-.06-.15-.12-.31-.18-.46-.16-.43-.32-.85-.49-1.28-.6-1.6-1.21-3.21-1.8-4.82-.11-.3-.23-.61-.33-.92-.49-1.3-.96-2.61-1.42-3.92-.36-1-.72-1.99-1.06-2.99-.41-1.15-.81-2.3-1.2-3.46-.23-.65-.45-1.3-.67-1.95-.48-1.44-.96-2.87-1.43-4.31-.22-.67-.44-1.33-.65-2-.02-.05-.03-.11-.05-.16-.45-1.4-.91-2.81-1.35-4.23-.04-.13-.08-.25-.12-.38-.09-.28-.17-.56-.26-.83-.54-1.75-1.08-3.52-1.6-5.28-.04-.1-.07-.19-.09-.28l-.63-2.11c-.38-1.28-.75-2.57-1.12-3.86-.01-.03-.01-.05-.02-.08-.53-1.86-1.06-3.73-1.57-5.61-.1-.34-.19-.69-.29-1.05-.09-.34-.18-.68-.28-1.03-.42-1.59-.85-3.19-1.27-4.79-.55-2.09-1.08-4.19-1.6-6.29-.05-.23-.11-.46-.17-.68-.46-1.84-.9-3.69-1.33-5.54l-.06-.25c0-.01-.01-.03-.01-.04a519 519 0 0 1-2.67-11.97c-.02-.11-.05-.21-.07-.32s-.05-.22-.07-.33q-.24-1.08-.45-2.16c-.36-1.71-.71-3.42-1.04-5.14-.15-.75-.29-1.49-.44-2.24-.28-1.46-.56-2.93-.83-4.4l-.54-2.96c-.18-.99-.35-1.98-.52-2.97-.09-.5-.18-1-.26-1.49-.08-.5-.16-.99-.25-1.49-.17-1-.33-2-.5-2.99-5.16-31.58-7.78-63.56-7.78-95.05 0-21.38 1.27-35.74 1.66-39.63v-.1L1.85 42.62l-.03.31c-.01.09-.02.19-.02.29-.05.43-.1.95-.16 1.56-3.29 36.01-26.27 380.98 286.6 524.45.6.27 1.19.55 1.79.83v-22.22z" style="fill:url(#linear-gradient)"/><path d="M123.73 415.46c-4-5.19-7.83-10.43-11.52-15.71 3.69 5.28 7.53 10.51 11.52 15.71" style="fill:url(#linear-gradient-2)"/><path d="m52.87 225.59-.24-1.52h.02z" style="fill:url(#linear-gradient-3)"/><path d="M537.61 250.24c-5.95 22.31-13.64 45.41-23.56 68.63-10.65 24.92-23.85 49.97-40.19 74.31-39.67 59.1-97.84 114.04-183.08 152.84-3.9-1.78-7.76-3.6-11.55-5.44-4.27-2.08-8.45-4.2-12.58-6.35-25.38-13.26-48.12-28.03-68.5-43.92q-6.615-5.16-12.9-10.47a408 408 0 0 1-16.94-15.11c-6.5-6.12-12.71-12.36-18.64-18.71 6.69-3.04 15.97-4.98 28.8-3.95-19.01-11.83-61.14-80.18-61.14-129.53 6.23-10.51 5.8-26.71 1.51-43.01 4.89-3.2 11.03-6.21 17.59-7.15 2.2 8.29 4.01 18.44 5.8 31.77 4.28 54.23 39.23-6.18 24.09-13.08 0 0 27.53-13.08-14.45-30.96 145.71-96.51 298.54-78.44 385.74.13" style="fill:url(#linear-gradient-4)"/><path d="M38.35 227.28c-.08-.36-.15-.71-.23-1.06-.05-.2-.1-.41-.14-.61-.14-.67-.29-1.33-.42-1.99q-.24-1.05-.45-2.1h.03l.44 2.09.2.99.21.99H38z" style="fill:url(#linear-gradient-5)"/><path d="M36.69 219.36h-.02l-.01.01c-.26-1.29-.52-2.57-.78-3.85l.41 1.97z" style="fill:url(#linear-gradient-6)"/><path d="M50.55 54.84c-.1.02-.19.04-.28.07.09-.03.18-.05.28-.08Z" style="fill:url(#linear-gradient-7)"/><path d="m77.41 91.14-10.78 10.48 6.64 13.48-13.29-7-10.78 10.46 2.56-14.8-5.25-2.77c.09-1.85.18-3.66.28-5.44l6.55-.94 2.57-14.81 6.63 13.48z" style="fill:url(#linear-gradient-8)"/><path d="M91.28 62.39c7.23-1.62 14.47-3.14 21.72-4.58v12.17c-2.95.58-5.91 1.18-8.86 1.8v11.58q3.96-.825 7.92-1.62v11.58c-2.64.52-5.28 1.06-7.92 1.6v25.66c-4.29.89-8.58 1.82-12.86 2.78z" style="fill:url(#linear-gradient-9)"/><path d="M148.95 59.68c.78 2.57 1.17 6.71 1.17 12.39v5.78c-4.32.68-8.64 1.38-12.95 2.11V69.35c0-3.08-.15-4.99-.42-5.7-.27-.72-.87-1-1.79-.84-1.06.18-1.72.76-2 1.73-.29.99-.43 3.02-.43 6.12v28.36c0 2.96.14 4.87.43 5.73.28.85.92 1.19 1.9 1.02.95-.17 1.57-.72 1.86-1.69.3-.96.45-3.13.45-6.5v-7.72c4.31-.73 8.63-1.43 12.95-2.11v2.39c0 6.32-.37 10.85-1.09 13.62-.73 2.76-2.34 5.32-4.82 7.72-2.49 2.39-5.55 3.89-9.2 4.53-3.77.65-6.89.37-9.34-.86s-4.07-3.25-4.87-6.08c-.79-2.81-1.19-7.21-1.19-13.18v-17.8c0-4.39.13-7.7.37-9.94s.97-4.49 2.19-6.75c1.21-2.27 2.89-4.18 5.04-5.74 2.16-1.55 4.64-2.58 7.44-3.06 3.8-.66 6.94-.27 9.42 1.12 2.48 1.4 4.1 3.4 4.88 5.96" style="fill:url(#linear-gradient-10)"/><path d="M175.37 123.18h3.94v26.31h-6.68v-14.07c0-2.03-.05-3.25-.16-3.66-.1-.4-.37-.72-.82-.93s-1.45-.31-3.01-.31h-.67v-3.08c3.25-.7 5.71-2.12 7.4-4.26" style="fill:url(#linear-gradient-11)"/><path d="M186.55 107.29c-4.34.5-8.67 1.03-13.01 1.59V47.91c7.31-.95 14.64-1.8 21.97-2.57v12.17c-2.98.31-5.97.64-8.96.98v11.57c2.67-.3 5.33-.59 8.01-.88v11.58c-2.68.28-5.34.58-8.01.88z" style="fill:url(#linear-gradient-12)"/><path d="M197.8 128.37c.1 1.01.15 2.97.15 5.86v3.66c0 3.14-.04 5.24-.13 6.3s-.47 2.05-1.16 3c-.67.94-1.59 1.65-2.75 2.12-1.15.48-2.5.71-4.02.71-1.88 0-3.43-.3-4.62-.89q-1.8-.9-2.58-2.52c-.53-1.09-.79-2.45-.79-4.1h6.68c0 1.23.02 2 .05 2.32.04.33.17.59.41.81.23.22.56.32.97.32.34 0 .62-.09.84-.3s.35-.47.37-.8c.03-.32.05-.98.05-1.97v-4.2c-.34.69-.83 1.22-1.49 1.57-.66.34-1.48.52-2.47.52-1.22 0-2.3-.33-3.24-.98s-1.53-1.43-1.78-2.34q-.39-1.365-.39-3.69v-2.1c0-1.84.08-3.22.23-4.12q.225-1.35 1.14-2.49c.62-.77 1.48-1.36 2.57-1.79q1.635-.63 3.81-.63c1.78 0 3.24.25 4.39.73 1.15.5 2.04 1.2 2.67 2.11.63.92.99 1.88 1.09 2.89" style="fill:url(#linear-gradient-13)"/><path d="M216.17 128.37c.09 1.01.14 2.97.14 5.86v3.66c0 3.14-.04 5.24-.13 6.3s-.47 2.05-1.15 3c-.68.94-1.59 1.65-2.76 2.12-1.15.48-2.5.71-4.01.71-1.89 0-3.43-.3-4.63-.89-1.19-.6-2.06-1.44-2.58-2.52-.53-1.09-.78-2.45-.78-4.1h6.68c0 1.23 0 2 .05 2.32.03.33.16.59.4.81s.56.32.97.32c.34 0 .62-.09.84-.3.23-.21.35-.47.37-.8.04-.32.05-.98.05-1.97v-4.2c-.33.69-.83 1.22-1.49 1.57-.66.34-1.48.52-2.46.52-1.23 0-2.31-.33-3.24-.98-.94-.65-1.54-1.43-1.79-2.34-.26-.91-.38-2.14-.38-3.69v-2.1c0-1.84.07-3.22.22-4.12s.53-1.73 1.15-2.49c.62-.77 1.47-1.36 2.56-1.79q1.635-.63 3.81-.63c1.78 0 3.25.25 4.4.73 1.14.5 2.03 1.2 2.66 2.11.63.92 1 1.88 1.1 2.89" style="fill:url(#linear-gradient-14)"/><path d="M225.01 123.18h3.94v26.31h-6.68v-14.07q0-3.045-.15-3.66c-.1-.4-.38-.72-.83-.93-.44-.21-1.45-.31-3.01-.31h-.67v-3.08c3.25-.7 5.72-2.12 7.4-4.26" style="fill:url(#linear-gradient-15)"/><path d="M224.45 71.88c2.58.6 4.31 1.52 5.2 2.76.89 1.26 1.44 2.42 1.66 3.5q.33 1.62.33 9v16.1c-4.04.27-8.07.56-12.1.87V83.8q0-4.905-.63-6.03c-.43-.74-1.53-1.05-3.32-.9v27.56c-4.35.36-8.7.74-13.05 1.16V44.63c3.07-.29 6.15-.58 9.22-.85 6.14-.52 10.31-.54 12.49-.13 2.18.42 3.95 1.77 5.33 4.05 1.37 2.28 2.06 6.01 2.06 11.21 0 4.73-.48 7.94-1.46 9.64-.97 1.69-2.89 2.79-5.73 3.33" style="fill:url(#linear-gradient-16)"/><path d="M253.63 89.92c3.19-.13 6.39-.25 9.59-.35v12.17c-7.56.23-15.12.55-22.67.98V41.75c7.27-.4 14.55-.72 21.83-.95v12.18c-2.92.08-5.83.19-8.75.31v11.57c2.71-.11 5.43-.21 8.15-.29v11.57c-2.72.08-5.44.18-8.15.29z" style="fill:url(#linear-gradient-17)"/><path d="M300.6 50.3c.29 1.98.44 5.85.44 11.63v21.35c0 5.48-.21 9.13-.63 10.97-.42 1.83-1.18 3.28-2.22 4.31-1.06 1.03-2.36 1.75-3.92 2.16-1.55.4-3.88.61-7 .62-5.49.02-10.99.08-16.48.21V40.58c3.27-.06 6.52-.13 9.78-.16 6.3-.07 10.57.3 12.79 1 2.22.71 3.91 1.88 5.08 3.5 1.15 1.61 1.88 3.41 2.16 5.38" style="fill:url(#linear-gradient-18)"/><path d="M322.87 89.73c3.19.11 6.4.23 9.59.38v12.17q-11.34-.51-22.68-.75V40.56c7.29.16 14.57.39 21.83.72v12.17c-2.91-.13-5.82-.25-8.74-.35v11.57c2.71.1 5.43.21 8.15.32v11.58c-2.72-.12-5.44-.23-8.15-.33z" style="fill:url(#linear-gradient-19)"/><path d="M361.96 72.25c2.58.97 4.31 2.16 5.2 3.54.89 1.39 1.44 2.63 1.66 3.74.22 1.12.32 4.13.32 9.07v16.1c-4.02-.35-8.06-.67-12.09-.97v-20.3c0-3.28-.21-5.31-.63-6.13-.42-.81-1.54-1.28-3.32-1.4v27.56c-4.36-.3-8.71-.57-13.07-.8V41.69c3.08.17 6.15.35 9.23.54 6.16.4 10.32 1.01 12.5 1.76 2.18.74 3.95 2.37 5.33 4.85 1.36 2.48 2.05 6.32 2.05 11.51 0 4.74-.49 7.88-1.45 9.42-.97 1.55-2.89 2.38-5.73 2.48" style="fill:url(#linear-gradient-20)"/><path d="M378.04 44.54c4.35.42 8.68.86 13.03 1.34v60.97c-4.35-.49-8.69-.93-13.03-1.34z" style="fill:url(#linear-gradient-21)"/><path d="M429.2 59.15c.78 2.81 1.17 7.07 1.17 12.75v5.79c-4.32-.67-8.65-1.31-12.98-1.92V65.16c0-3.08-.14-5.03-.41-5.83-.28-.81-.88-1.27-1.81-1.4-1.06-.14-1.72.23-2.01 1.12-.28.89-.42 2.89-.42 5.98v28.35q0 4.455.42 5.88c.29.93.93 1.48 1.92 1.61.95.13 1.57-.24 1.86-1.12.3-.86.45-2.99.45-6.35v-7.73c4.33.61 8.66 1.25 12.98 1.92v2.38c0 6.32-.37 10.75-1.09 13.28-.74 2.54-2.34 4.6-4.84 6.23-2.48 1.62-5.56 2.17-9.21 1.67-3.79-.52-6.92-1.77-9.39-3.76-2.47-2-4.1-4.52-4.91-7.59-.8-3.07-1.19-7.59-1.19-13.56v-17.8c0-4.38.12-7.65.36-9.82.25-2.17.98-4.19 2.21-6.07 1.22-1.88 2.92-3.27 5.08-4.16 2.18-.89 4.66-1.14 7.48-.77 3.81.53 6.95 1.88 9.44 4.05 2.48 2.18 4.11 4.68 4.89 7.48" style="fill:url(#linear-gradient-22)"/><path d="M438.85 52.43c4.32.71 8.63 1.44 12.94 2.22v60.97c-4.31-.78-8.62-1.52-12.94-2.23z" style="fill:url(#linear-gradient-23)"/><path d="M482.95 60.79c2.45 20.84 4.89 41.7 7.34 62.56a846 846 0 0 0-13.08-2.81c-.22-3.72-.47-7.42-.7-11.13-1.55-.32-3.11-.64-4.67-.95-.23 3.61-.46 7.22-.7 10.83-4.44-.9-8.9-1.76-13.36-2.58 2.19-19.92 4.36-39.83 6.54-59.73q9.33 1.8 18.63 3.81" style="fill:url(#linear-gradient-24)"/><path d="m543.1 96.75-13.29 7.01 2.56 14.8-10.78-10.46-13.29 7 6.63-13.48-10.78-10.48 14.88 2.14 6.63-13.48 2.56 14.81z" style="fill:url(#linear-gradient-25)"/><path d="M555.4 62.06v.01l-.01-.01z" style="fill:url(#linear-gradient-26)"/><path d="M50.27 54.91a2.291 2.291 0 0 0 0 0m27.14 36.23-14.87 2.14-6.63-13.48-2.57 14.81-6.55.94c-.1 1.78-.19 3.59-.28 5.44l5.25 2.77-2.56 14.8 10.78-10.46 13.29 7-6.64-13.48zM113 69.98V57.81c-7.25 1.44-14.49 2.96-21.72 4.58v60.97c4.28-.96 8.57-1.89 12.86-2.78V94.92c2.64-.54 5.28-1.08 7.92-1.6V81.74q-3.96.795-7.92 1.62V71.78c2.95-.62 5.91-1.22 8.86-1.8m37.12 7.87v-5.78c0-5.68-.39-9.82-1.17-12.39-.78-2.56-2.4-4.56-4.88-5.96-2.48-1.39-5.62-1.78-9.42-1.12-2.8.48-5.28 1.51-7.44 3.06-2.15 1.56-3.83 3.47-5.04 5.74q-1.83 3.39-2.19 6.75c-.36 3.36-.37 5.55-.37 9.94v17.8c0 5.97.4 10.37 1.19 13.18.8 2.83 2.42 4.85 4.87 6.08s5.57 1.51 9.34.86c3.65-.64 6.71-2.14 9.2-4.53 2.48-2.4 4.09-4.96 4.82-7.72.72-2.77 1.09-7.3 1.09-13.62v-2.39c-4.32.68-8.64 1.38-12.95 2.11v7.72c0 3.37-.15 5.54-.45 6.5-.29.97-.91 1.52-1.86 1.69-.98.17-1.62-.17-1.9-1.02-.29-.86-.43-2.77-.43-5.73V70.66c0-3.1.14-5.13.43-6.12.28-.97.94-1.55 2-1.73.92-.16 1.52.12 1.79.84.27.71.42 2.62.42 5.7v10.61c4.31-.73 8.63-1.43 12.95-2.11m25.25 45.33c-1.69 2.14-4.15 3.56-7.4 4.26v3.08h.67c1.56 0 2.56.1 3.01.31s.72.53.82.93c.11.41.16 1.63.16 3.66v14.07h6.68v-26.31zm20.14-65.67V45.34c-7.33.77-14.66 1.62-21.97 2.57v60.97c4.34-.56 8.67-1.09 13.01-1.59V81.64c2.67-.3 5.33-.6 8.01-.88V69.18c-2.68.29-5.34.58-8.01.88V58.49c2.99-.34 5.98-.67 8.96-.98m2.29 70.86c-.1-1.01-.46-1.97-1.09-2.89-.63-.91-1.52-1.61-2.67-2.11-1.15-.48-2.61-.73-4.39-.73q-2.175 0-3.81.63c-1.09.43-1.95 1.02-2.57 1.79q-.915 1.14-1.14 2.49c-.15.9-.23 2.28-.23 4.12v2.1q0 2.325.39 3.69c.25.91.84 1.69 1.78 2.34s2.02.98 3.24.98c.99 0 1.81-.18 2.47-.52.66-.35 1.15-.88 1.49-1.57v4.2c0 .99-.02 1.65-.05 1.97-.02.33-.15.59-.37.8s-.5.3-.84.3c-.41 0-.74-.1-.97-.32-.24-.22-.37-.48-.41-.81-.03-.32-.05-1.09-.05-2.32h-6.68c0 1.65.26 3.01.79 4.1q.78 1.62 2.58 2.52c1.19.59 2.74.89 4.62.89 1.52 0 2.87-.23 4.02-.71 1.16-.47 2.08-1.18 2.75-2.12.69-.95 1.07-1.94 1.16-3s.13-3.16.13-6.3v-3.66c0-2.89-.05-4.85-.15-5.86m18.37 0c-.1-1.01-.47-1.97-1.1-2.89-.63-.91-1.52-1.61-2.66-2.11-1.15-.48-2.62-.73-4.4-.73q-2.175 0-3.81.63c-1.09.43-1.94 1.02-2.56 1.79-.62.76-1 1.59-1.15 2.49s-.22 2.28-.22 4.12v2.1c0 1.55.12 2.78.38 3.69.25.91.85 1.69 1.79 2.34.93.65 2.01.98 3.24.98.98 0 1.8-.18 2.46-.52.66-.35 1.16-.88 1.49-1.57v4.2c0 .99-.01 1.65-.05 1.97-.02.33-.14.59-.37.8-.22.21-.5.3-.84.3-.41 0-.73-.1-.97-.32s-.37-.48-.4-.81c-.04-.32-.05-1.09-.05-2.32h-6.68c0 1.65.25 3.01.78 4.1.52 1.08 1.39 1.92 2.58 2.52 1.2.59 2.74.89 4.63.89 1.51 0 2.86-.23 4.01-.71 1.17-.47 2.08-1.18 2.76-2.12.68-.95 1.06-1.94 1.15-3s.13-3.16.13-6.3v-3.66c0-2.89-.05-4.85-.14-5.86m8.84-5.19c-1.68 2.14-4.15 3.56-7.4 4.26v3.08h.67c1.56 0 2.57.1 3.01.31.45.21.73.53.83.93q.15.615.15 3.66v14.07h6.68v-26.31zm4.64-48.54c-.89-1.24-2.62-2.16-5.2-2.76 2.84-.54 4.76-1.64 5.73-3.33.98-1.7 1.46-4.91 1.46-9.64 0-5.2-.69-8.93-2.06-11.21-1.38-2.28-3.15-3.63-5.33-4.05-2.18-.41-6.35-.39-12.49.13-3.07.27-6.15.56-9.22.85v60.96c4.35-.42 8.7-.8 13.05-1.16V76.87c1.79-.15 2.89.16 3.32.9q.63 1.125.63 6.03v20.31c4.03-.31 8.06-.6 12.1-.87v-16.1q0-7.38-.33-9c-.22-1.08-.77-2.24-1.66-3.5m23.98 15.28V76.43c2.71-.11 5.43-.21 8.15-.29V64.57c-2.72.08-5.44.18-8.15.29V53.29c2.92-.12 5.83-.23 8.75-.31V40.8c-7.28.23-14.56.55-21.83.95v60.97c7.55-.43 15.11-.75 22.67-.98V89.57c-3.2.1-6.4.22-9.59.35M300.6 50.3c-.28-1.97-1.01-3.77-2.16-5.38-1.17-1.62-2.86-2.79-5.08-3.5-2.22-.7-6.49-1.07-12.79-1-3.26.03-6.51.1-9.78.16v60.97c5.49-.13 10.99-.19 16.48-.21 3.12-.01 5.45-.22 7-.62 1.56-.41 2.86-1.13 3.92-2.16 1.04-1.03 1.8-2.48 2.22-4.31.42-1.84.63-5.49.63-10.97V61.93c0-5.78-.15-9.65-.44-11.63m22.27 39.43V76.24c2.71.1 5.43.21 8.15.33V64.99c-2.72-.11-5.44-.22-8.15-.32V53.1c2.92.1 5.83.22 8.74.35V41.28c-7.26-.33-14.54-.56-21.83-.72v60.97q11.34.24 22.68.75V90.11c-3.19-.15-6.4-.27-9.59-.38m44.29-13.94c-.89-1.38-2.62-2.57-5.2-3.54 2.84-.1 4.76-.93 5.73-2.48.96-1.54 1.45-4.68 1.45-9.42 0-5.19-.69-9.03-2.05-11.51-1.38-2.48-3.15-4.11-5.33-4.85-2.18-.75-6.34-1.36-12.5-1.76-3.08-.19-6.15-.37-9.23-.54v60.97c4.36.23 8.71.5 13.07.8V75.9c1.78.12 2.9.59 3.32 1.4.42.82.63 2.85.63 6.13v20.3c4.03.3 8.07.62 12.09.97V88.6c0-4.94-.1-7.95-.32-9.07-.22-1.11-.77-2.35-1.66-3.74m10.88-31.25v60.97c4.34.41 8.68.85 13.03 1.34V45.88c-4.35-.48-8.68-.92-13.03-1.34m52.33 33.15V71.9c0-5.68-.39-9.94-1.17-12.75-.78-2.8-2.41-5.3-4.89-7.48-2.49-2.17-5.63-3.52-9.44-4.05-2.82-.37-5.3-.12-7.48.77-2.16.89-3.86 2.28-5.08 4.16-1.23 1.88-1.96 3.9-2.21 6.07-.24 2.17-.36 5.44-.36 9.82v17.8c0 5.97.39 10.49 1.19 13.56.81 3.07 2.44 5.59 4.91 7.59 2.47 1.99 5.6 3.24 9.39 3.76 3.65.5 6.73-.05 9.21-1.67 2.5-1.63 4.1-3.69 4.84-6.23.72-2.53 1.09-6.96 1.09-13.28v-2.38c-4.32-.67-8.65-1.31-12.98-1.92v7.73c0 3.36-.15 5.49-.45 6.35-.29.88-.91 1.25-1.86 1.12-.99-.13-1.63-.68-1.92-1.61q-.42-1.425-.42-5.88V65.03c0-3.09.14-5.09.42-5.98.29-.89.95-1.26 2.01-1.12.93.13 1.53.59 1.81 1.4.27.8.41 2.75.41 5.83v10.61c4.33.61 8.66 1.25 12.98 1.92m8.48-25.26v60.96c4.32.71 8.63 1.45 12.94 2.23V54.65c-4.31-.78-8.62-1.51-12.94-2.22m44.1 8.36q-9.3-2.01-18.63-3.81c-2.18 19.9-4.35 39.81-6.54 59.73 4.46.82 8.92 1.68 13.36 2.58.24-3.61.47-7.22.7-10.83 1.56.31 3.12.63 4.67.95.23 3.71.48 7.41.7 11.13 4.36.9 8.73 1.84 13.08 2.81-2.45-20.86-4.89-41.72-7.34-62.56m60.15 35.96-14.88-2.14-2.56-14.81-6.63 13.48-14.88-2.14 10.78 10.48-6.63 13.48 13.29-7 10.78 10.46-2.56-14.8zm12.29-34.69h.01zM36.29 217.49l-.41-1.97c.26 1.28.52 2.56.78 3.85h.03zM38 225.6h-.01l-.21-1-.2-.99-.44-2.1h-.03q.21 1.05.45 2.1c.13.66.28 1.32.42 1.98.04.21.09.42.14.62.08.35.15.7.23 1.06l-.35-1.68Zm113.87 24.51c41.98 17.88 14.45 30.96 14.45 30.96 15.14 6.9-19.81 67.31-24.09 13.08-1.79-13.33-3.6-23.48-5.8-31.77-6.56.94-12.7 3.95-17.59 7.15 4.29 16.3 4.72 32.5-1.51 43.01 0 49.35 42.13 117.7 61.14 129.53-12.83-1.03-22.11.91-28.8 3.95 5.93 6.35 12.14 12.59 18.64 18.71a408 408 0 0 0 16.94 15.11q6.285 5.31 12.9 10.47c20.38 15.89 43.12 30.66 68.5 43.92 4.13 2.15 8.31 4.27 12.58 6.35 3.79 1.84 7.65 3.66 11.55 5.44 85.24-38.8 143.41-93.74 183.08-152.84 16.34-24.34 29.54-49.39 40.19-74.31 9.92-23.22 17.61-46.32 23.56-68.63-87.2-78.57-240.03-96.64-385.74-.13m-99.22-26.04h-.02l.24 1.52zm59.56 175.68c3.69 5.28 7.52 10.52 11.52 15.71-3.99-5.2-7.83-10.43-11.52-15.71" class="cls-13"/><path d="M556.12 71.21c-.28-4.32-.55-7.41-.72-9.14h-.01C445.43 26.89 323.07 24.13 290.95 24.13h-.36c-29.78 0-137 2.38-240.04 30.7-1.31 10.05-2.79 23.92-3.76 40.72l6.55-.94 2.57-14.81 6.63 13.48 14.87-2.14-10.78 10.48 6.64 13.48-13.29-7-10.78 10.46 2.56-14.8-5.25-2.77c-1.5 30.51-1.19 69.71 4.62 112.73v.02l.3 2.03.3 2.01.41.03c1.09.1 2.13.24 3.12.4l2.47.42 1.45-2.04c4.69-6.6 10.54-9.95 17.36-9.95.71 0 1.39.09 2.06.22 2.3.47 4.42 1.57 6.22 3.07.63.52 1.29 1.1 1.89 1.68.61.61 1.15 1.22 1.53 1.78l10.22 15.34 4.02-2.68 3.82-2.54-19.84-22.42c-7.95-10-10.42-18.56-7.35-25.45 2.78-6.21 9.85-9.92 18.92-9.92 7.8 0 17.05 2.95 20.14 9.52.16.33.3.67.42 1l.77 2.06 2.15.45c7.89 1.68 13.65 5.35 17.11 10.92 2.24 3.6 3.38 7.84 3.39 12.6v6.78l5.94-3.29c87.63-48.62 170.95-73.27 247.62-73.27 37.44 0 73.42 5.91 106.92 17.58a302.6 302.6 0 0 1 47.2 21.12l.97.54 1.88 1.04.27-2.13.27-2.14c3.04-26.31 3.93-49.36 3.93-67.34 0-12.75-.44-22.95-.89-29.95M113 69.98c-2.95.58-5.91 1.18-8.86 1.8v11.58q3.96-.825 7.92-1.62v11.58c-2.64.52-5.28 1.06-7.92 1.6v25.66c-4.29.89-8.58 1.82-12.86 2.78V62.39c7.23-1.62 14.47-3.14 21.72-4.58zm60.54-22.07c7.31-.95 14.64-1.8 21.97-2.57v12.17c-2.98.31-5.97.64-8.96.98v11.57c2.67-.3 5.33-.59 8.01-.88v11.58c-2.68.28-5.34.58-8.01.88v25.65c-4.34.5-8.67 1.03-13.01 1.59zm-23.42 29.94c-4.32.68-8.64 1.38-12.95 2.11V69.35c0-3.08-.15-4.99-.42-5.7-.27-.72-.87-1-1.79-.84-1.06.18-1.72.76-2 1.73-.29.99-.43 3.02-.43 6.12v28.36c0 2.96.14 4.87.43 5.73.28.85.92 1.19 1.9 1.02.95-.17 1.57-.72 1.86-1.69.3-.96.45-3.13.45-6.5v-7.72c4.31-.73 8.63-1.43 12.95-2.11v2.39c0 6.32-.37 10.85-1.09 13.62-.73 2.76-2.34 5.32-4.82 7.72-2.49 2.39-5.55 3.89-9.2 4.53-3.77.65-6.89.37-9.34-.86s-4.07-3.25-4.87-6.08c-.79-2.81-1.19-7.21-1.19-13.18v-17.8c0-4.39.13-7.7.37-9.94s.97-4.49 2.19-6.75c1.21-2.27 2.89-4.18 5.04-5.74 2.16-1.55 4.64-2.58 7.44-3.06 3.8-.66 6.94-.27 9.42 1.12 2.48 1.4 4.1 3.4 4.88 5.96.78 2.57 1.17 6.71 1.17 12.39zm29.19 71.64h-6.68v-14.07c0-2.03-.05-3.25-.16-3.66-.1-.4-.37-.72-.82-.93s-1.45-.31-3.01-.31h-.67v-3.08c3.25-.7 5.71-2.12 7.4-4.26h3.94zm18.64-11.6c0 3.14-.04 5.24-.13 6.3s-.47 2.05-1.16 3c-.67.94-1.59 1.65-2.75 2.12-1.15.48-2.5.71-4.02.71-1.88 0-3.43-.3-4.62-.89q-1.8-.9-2.58-2.52c-.53-1.09-.79-2.45-.79-4.1h6.68c0 1.23.02 2 .05 2.32.04.33.17.59.41.81.23.22.56.32.97.32.34 0 .62-.09.84-.3s.35-.47.37-.8c.03-.32.05-.98.05-1.97v-4.2c-.34.69-.83 1.22-1.49 1.57-.66.34-1.48.52-2.47.52-1.22 0-2.3-.33-3.24-.98s-1.53-1.43-1.78-2.34q-.39-1.365-.39-3.69v-2.1c0-1.84.08-3.22.23-4.12q.225-1.35 1.14-2.49c.62-.77 1.48-1.36 2.57-1.79q1.635-.63 3.81-.63c1.78 0 3.24.25 4.39.73 1.15.5 2.04 1.2 2.67 2.11.63.92.99 1.88 1.09 2.89s.15 2.97.15 5.86zm18.36 0c0 3.14-.04 5.24-.13 6.3s-.47 2.05-1.15 3c-.68.94-1.59 1.65-2.76 2.12-1.15.48-2.5.71-4.01.71-1.89 0-3.43-.3-4.63-.89-1.19-.6-2.06-1.44-2.58-2.52-.53-1.09-.78-2.45-.78-4.1h6.68c0 1.23 0 2 .05 2.32.03.33.16.59.4.81s.56.32.97.32c.34 0 .62-.09.84-.3.23-.21.35-.47.37-.8.04-.32.05-.98.05-1.97v-4.2c-.33.69-.83 1.22-1.49 1.57-.66.34-1.48.52-2.46.52-1.23 0-2.31-.33-3.24-.98-.94-.65-1.54-1.43-1.79-2.34-.26-.91-.38-2.14-.38-3.69v-2.1c0-1.84.07-3.22.22-4.12s.53-1.73 1.15-2.49c.62-.77 1.47-1.36 2.56-1.79q1.635-.63 3.81-.63c1.78 0 3.25.25 4.4.73 1.14.5 2.03 1.2 2.66 2.11.63.92 1 1.88 1.1 2.89.09 1.01.14 2.97.14 5.86zm12.64 11.6h-6.68v-14.07q0-3.045-.15-3.66c-.1-.4-.38-.72-.83-.93-.44-.21-1.45-.31-3.01-.31h-.67v-3.08c3.25-.7 5.72-2.12 7.4-4.26h3.94zm.7-74.85c.89 1.26 1.44 2.42 1.66 3.5q.33 1.62.33 9v16.1c-4.04.27-8.07.56-12.1.87V83.8q0-4.905-.63-6.03c-.43-.74-1.53-1.05-3.32-.9v27.56c-4.35.36-8.7.74-13.05 1.16V44.63c3.07-.29 6.15-.58 9.22-.85 6.14-.52 10.31-.54 12.49-.13 2.18.42 3.95 1.77 5.33 4.05 1.37 2.28 2.06 6.01 2.06 11.21 0 4.73-.48 7.94-1.46 9.64-.97 1.69-2.89 2.79-5.73 3.33 2.58.6 4.31 1.52 5.2 2.76m33.57 27.1c-7.56.23-15.12.55-22.67.98V41.75c7.27-.4 14.55-.72 21.83-.95v12.18c-2.92.08-5.83.19-8.75.31v11.57c2.71-.11 5.43-.21 8.15-.29v11.57c-2.72.08-5.44.18-8.15.29v13.49c3.19-.13 6.39-.25 9.59-.35zm37.82-18.46c0 5.48-.21 9.13-.63 10.97-.42 1.83-1.18 3.28-2.22 4.31-1.06 1.03-2.36 1.75-3.92 2.16-1.55.4-3.88.61-7 .62-5.49.02-10.99.08-16.48.21V40.58c3.27-.06 6.52-.13 9.78-.16 6.3-.07 10.57.3 12.79 1 2.22.71 3.91 1.88 5.08 3.5 1.15 1.61 1.88 3.41 2.16 5.38.29 1.98.44 5.85.44 11.63zm31.42 19q-11.34-.51-22.68-.75V40.56c7.29.16 14.57.39 21.83.72v12.17c-2.91-.13-5.82-.25-8.74-.35v11.57c2.71.1 5.43.21 8.15.32v11.58c-2.72-.12-5.44-.23-8.15-.33v13.49c3.19.11 6.4.23 9.59.38zm34.7-26.49c.89 1.39 1.44 2.63 1.66 3.74.22 1.12.32 4.13.32 9.07v16.1c-4.02-.35-8.06-.67-12.09-.97v-20.3c0-3.28-.21-5.31-.63-6.13-.42-.81-1.54-1.28-3.32-1.4v27.56c-4.36-.3-8.71-.57-13.07-.8V41.69c3.08.17 6.15.35 9.23.54 6.16.4 10.32 1.01 12.5 1.76 2.18.74 3.95 2.37 5.33 4.85 1.36 2.48 2.05 6.32 2.05 11.51 0 4.74-.49 7.88-1.45 9.42-.97 1.55-2.89 2.38-5.73 2.48 2.58.97 4.31 2.16 5.2 3.54m23.91 31.06c-4.35-.49-8.69-.93-13.03-1.34V44.54c4.35.42 8.68.86 13.03 1.34zm39.3-29.16c-4.32-.67-8.65-1.31-12.98-1.92V65.16c0-3.08-.14-5.03-.41-5.83-.28-.81-.88-1.27-1.81-1.4-1.06-.14-1.72.23-2.01 1.12-.28.89-.42 2.89-.42 5.98v28.35q0 4.455.42 5.88c.29.93.93 1.48 1.92 1.61.95.13 1.57-.24 1.86-1.12.3-.86.45-2.99.45-6.35v-7.73c4.33.61 8.66 1.25 12.98 1.92v2.38c0 6.32-.37 10.75-1.09 13.28-.74 2.54-2.34 4.6-4.84 6.23-2.48 1.62-5.56 2.17-9.21 1.67-3.79-.52-6.92-1.77-9.39-3.76-2.47-2-4.1-4.52-4.91-7.59-.8-3.07-1.19-7.59-1.19-13.56v-17.8c0-4.38.12-7.65.36-9.82.25-2.17.98-4.19 2.21-6.07 1.22-1.88 2.92-3.27 5.08-4.16 2.18-.89 4.66-1.14 7.48-.77 3.81.53 6.95 1.88 9.44 4.05 2.48 2.18 4.11 4.68 4.89 7.48.78 2.81 1.17 7.07 1.17 12.75zm21.42 37.93c-4.31-.78-8.62-1.52-12.94-2.23V52.43c4.32.71 8.63 1.44 12.94 2.22zm25.42 4.92c-.22-3.72-.47-7.42-.7-11.13-1.55-.32-3.11-.64-4.67-.95-.23 3.61-.46 7.22-.7 10.83-4.44-.9-8.9-1.76-13.36-2.58 2.19-19.92 4.36-39.83 6.54-59.73q9.33 1.8 18.63 3.81c2.45 20.84 4.89 41.7 7.34 62.56a846 846 0 0 0-13.08-2.81m55.16-1.98-10.78-10.46-13.29 7 6.63-13.48-10.78-10.48 14.88 2.14 6.63-13.48 2.56 14.81 14.88 2.14-13.29 7.01z" class="cls-2"/><path d="m77.41 91.14-10.78 10.48 6.64 13.48-13.29-7-10.78 10.46 2.56-14.8-5.25-2.77c.09-1.85.18-3.66.28-5.44l6.55-.94 2.57-14.81 6.63 13.48zM91.28 62.39c7.23-1.62 14.47-3.14 21.72-4.58v12.17c-2.95.58-5.91 1.18-8.86 1.8v11.58q3.96-.825 7.92-1.62v11.58c-2.64.52-5.28 1.06-7.92 1.6v25.66c-4.29.89-8.58 1.82-12.86 2.78zM148.95 59.68c.78 2.57 1.17 6.71 1.17 12.39v5.78c-4.32.68-8.64 1.38-12.95 2.11V69.35c0-3.08-.15-4.99-.42-5.7-.27-.72-.87-1-1.79-.84-1.06.18-1.72.76-2 1.73-.29.99-.43 3.02-.43 6.12v28.36c0 2.96.14 4.87.43 5.73.28.85.92 1.19 1.9 1.02.95-.17 1.57-.72 1.86-1.69.3-.96.45-3.13.45-6.5v-7.72c4.31-.73 8.63-1.43 12.95-2.11v2.39c0 6.32-.37 10.85-1.09 13.62-.73 2.76-2.34 5.32-4.82 7.72-2.49 2.39-5.55 3.89-9.2 4.53-3.77.65-6.89.37-9.34-.86s-4.07-3.25-4.87-6.08c-.79-2.81-1.19-7.21-1.19-13.18v-17.8c0-4.39.13-7.7.37-9.94s.97-4.49 2.19-6.75c1.21-2.27 2.89-4.18 5.04-5.74 2.16-1.55 4.64-2.58 7.44-3.06 3.8-.66 6.94-.27 9.42 1.12 2.48 1.4 4.1 3.4 4.88 5.96M175.37 123.18h3.94v26.31h-6.68v-14.07c0-2.03-.05-3.25-.16-3.66-.1-.4-.37-.72-.82-.93s-1.45-.31-3.01-.31h-.67v-3.08c3.25-.7 5.71-2.12 7.4-4.26M186.55 107.29c-4.34.5-8.67 1.03-13.01 1.59V47.91c7.31-.95 14.64-1.8 21.97-2.57v12.17c-2.98.31-5.97.64-8.96.98v11.57c2.67-.3 5.33-.59 8.01-.88v11.58c-2.68.28-5.34.58-8.01.88zM197.8 128.37c.1 1.01.15 2.97.15 5.86v3.66c0 3.14-.04 5.24-.13 6.3s-.47 2.05-1.16 3c-.67.94-1.59 1.65-2.75 2.12-1.15.48-2.5.71-4.02.71-1.88 0-3.43-.3-4.62-.89q-1.8-.9-2.58-2.52c-.53-1.09-.79-2.45-.79-4.1h6.68c0 1.23.02 2 .05 2.32.04.33.17.59.41.81.23.22.56.32.97.32.34 0 .62-.09.84-.3s.35-.47.37-.8c.03-.32.05-.98.05-1.97v-4.2c-.34.69-.83 1.22-1.49 1.57-.66.34-1.48.52-2.47.52-1.22 0-2.3-.33-3.24-.98s-1.53-1.43-1.78-2.34q-.39-1.365-.39-3.69v-2.1c0-1.84.08-3.22.23-4.12q.225-1.35 1.14-2.49c.62-.77 1.48-1.36 2.57-1.79q1.635-.63 3.81-.63c1.78 0 3.24.25 4.39.73 1.15.5 2.04 1.2 2.67 2.11.63.92.99 1.88 1.09 2.89M216.17 128.37c.09 1.01.14 2.97.14 5.86v3.66c0 3.14-.04 5.24-.13 6.3s-.47 2.05-1.15 3c-.68.94-1.59 1.65-2.76 2.12-1.15.48-2.5.71-4.01.71-1.89 0-3.43-.3-4.63-.89-1.19-.6-2.06-1.44-2.58-2.52-.53-1.09-.78-2.45-.78-4.1h6.68c0 1.23 0 2 .05 2.32.03.33.16.59.4.81s.56.32.97.32c.34 0 .62-.09.84-.3.23-.21.35-.47.37-.8.04-.32.05-.98.05-1.97v-4.2c-.33.69-.83 1.22-1.49 1.57-.66.34-1.48.52-2.46.52-1.23 0-2.31-.33-3.24-.98-.94-.65-1.54-1.43-1.79-2.34-.26-.91-.38-2.14-.38-3.69v-2.1c0-1.84.07-3.22.22-4.12s.53-1.73 1.15-2.49c.62-.77 1.47-1.36 2.56-1.79q1.635-.63 3.81-.63c1.78 0 3.25.25 4.4.73 1.14.5 2.03 1.2 2.66 2.11.63.92 1 1.88 1.1 2.89M225.01 123.18h3.94v26.31h-6.68v-14.07q0-3.045-.15-3.66c-.1-.4-.38-.72-.83-.93-.44-.21-1.45-.31-3.01-.31h-.67v-3.08c3.25-.7 5.72-2.12 7.4-4.26M224.45 71.88c2.58.6 4.31 1.52 5.2 2.76.89 1.26 1.44 2.42 1.66 3.5q.33 1.62.33 9v16.1c-4.04.27-8.07.56-12.1.87V83.8q0-4.905-.63-6.03c-.43-.74-1.53-1.05-3.32-.9v27.56c-4.35.36-8.7.74-13.05 1.16V44.63c3.07-.29 6.15-.58 9.22-.85 6.14-.52 10.31-.54 12.49-.13 2.18.42 3.95 1.77 5.33 4.05 1.37 2.28 2.06 6.01 2.06 11.21 0 4.73-.48 7.94-1.46 9.64-.97 1.69-2.89 2.79-5.73 3.33M253.63 89.92c3.19-.13 6.39-.25 9.59-.35v12.17c-7.56.23-15.12.55-22.67.98V41.75c7.27-.4 14.55-.72 21.83-.95v12.18c-2.92.08-5.83.19-8.75.31v11.57c2.71-.11 5.43-.21 8.15-.29v11.57c-2.72.08-5.44.18-8.15.29zM300.6 50.3c.29 1.98.44 5.85.44 11.63v21.35c0 5.48-.21 9.13-.63 10.97-.42 1.83-1.18 3.28-2.22 4.31-1.06 1.03-2.36 1.75-3.92 2.16-1.55.4-3.88.61-7 .62-5.49.02-10.99.08-16.48.21V40.58c3.27-.06 6.52-.13 9.78-.16 6.3-.07 10.57.3 12.79 1 2.22.71 3.91 1.88 5.08 3.5 1.15 1.61 1.88 3.41 2.16 5.38M322.87 89.73c3.19.11 6.4.23 9.59.38v12.17q-11.34-.51-22.68-.75V40.56c7.29.16 14.57.39 21.83.72v12.17c-2.91-.13-5.82-.25-8.74-.35v11.57c2.71.1 5.43.21 8.15.32v11.58c-2.72-.12-5.44-.23-8.15-.33zM361.96 72.25c2.58.97 4.31 2.16 5.2 3.54.89 1.39 1.44 2.63 1.66 3.74.22 1.12.32 4.13.32 9.07v16.1c-4.02-.35-8.06-.67-12.09-.97v-20.3c0-3.28-.21-5.31-.63-6.13-.42-.81-1.54-1.28-3.32-1.4v27.56c-4.36-.3-8.71-.57-13.07-.8V41.69c3.08.17 6.15.35 9.23.54 6.16.4 10.32 1.01 12.5 1.76 2.18.74 3.95 2.37 5.33 4.85 1.36 2.48 2.05 6.32 2.05 11.51 0 4.74-.49 7.88-1.45 9.42-.97 1.55-2.89 2.38-5.73 2.48M378.04 44.54c4.35.42 8.68.86 13.03 1.34v60.97c-4.35-.49-8.69-.93-13.03-1.34zM429.2 59.15c.78 2.81 1.17 7.07 1.17 12.75v5.79c-4.32-.67-8.65-1.31-12.98-1.92V65.16c0-3.08-.14-5.03-.41-5.83-.28-.81-.88-1.27-1.81-1.4-1.06-.14-1.72.23-2.01 1.12-.28.89-.42 2.89-.42 5.98v28.35q0 4.455.42 5.88c.29.93.93 1.48 1.92 1.61.95.13 1.57-.24 1.86-1.12.3-.86.45-2.99.45-6.35v-7.73c4.33.61 8.66 1.25 12.98 1.92v2.38c0 6.32-.37 10.75-1.09 13.28-.74 2.54-2.34 4.6-4.84 6.23-2.48 1.62-5.56 2.17-9.21 1.67-3.79-.52-6.92-1.77-9.39-3.76-2.47-2-4.1-4.52-4.91-7.59-.8-3.07-1.19-7.59-1.19-13.56v-17.8c0-4.38.12-7.65.36-9.82.25-2.17.98-4.19 2.21-6.07 1.22-1.88 2.92-3.27 5.08-4.16 2.18-.89 4.66-1.14 7.48-.77 3.81.53 6.95 1.88 9.44 4.05 2.48 2.18 4.11 4.68 4.89 7.48M438.85 52.43c4.32.71 8.63 1.44 12.94 2.22v60.97c-4.31-.78-8.62-1.52-12.94-2.23zM482.95 60.79c2.45 20.84 4.89 41.7 7.34 62.56a846 846 0 0 0-13.08-2.81c-.22-3.72-.47-7.42-.7-11.13-1.55-.32-3.11-.64-4.67-.95-.23 3.61-.46 7.22-.7 10.83-4.44-.9-8.9-1.76-13.36-2.58 2.19-19.92 4.36-39.83 6.54-59.73q9.33 1.8 18.63 3.81M543.1 96.75l-13.29 7.01 2.56 14.8-10.78-10.46-13.29 7 6.63-13.48-10.78-10.48 14.88 2.14 6.63-13.48 2.56 14.81zM555.4 62.06v.01l-.01-.01z" class="cls-2"/><path d="M431.72 241.08c-6.29-3.8-16.78-3.87-20.16 2.14-4.62 8.25.33 16.72 7.22 19.24 5.98 2.2 12.57 4.18 17.84-3.81 3.8-5.77 1.38-13.78-4.91-17.58Z" style="fill:url(#linear-gradient-27)"/><path d="M323.25 292.48c-6.42 8.02-11.24 14.45-.79 24.08 13.65-4.83 37.75-4.02 37.75-4.02s-28.91-24.89-36.95-20.06Z" style="fill:url(#linear-gradient-28)"/><path d="M151.87 250.11c41.98 17.88 14.45 30.96 14.45 30.96 15.14 6.9-19.81 67.31-24.09 13.08-1.79-13.33-3.6-23.48-5.8-31.77-6.56.94-12.7 3.95-17.59 7.15 4.29 16.3 4.72 32.5-1.51 43.01 0 49.35 42.13 117.7 61.14 129.53-12.83-1.03-22.11.91-28.8 3.95 5.93 6.35 12.14 12.59 18.64 18.71 8.01-4.55 18.53-6.54 32.65-3.62-8.06 7.88-12.87 14.03-15.71 18.73q6.285 5.31 12.9 10.47c37.76-2.28 72.97 17.18 72.97 17.18-2.34 9.75-3.78 18.64-4.47 26.74 4.13 2.15 8.31 4.27 12.58 6.35-.01-12.19 3.52-24.95 13.35-36.89-41.57-28.55-89.68-25.06-89.68-25.06s7.51-11.02 28.06-14.02c-9.02-17.55-43.09-16.53-43.09-16.53s21.38-16.06 53.12-10.04c12.46 2.38 17.33 5.72 21.04 7.53 3.71 1.79 11.99 4.71 4.5-10.53-7.47-15.23-10.51-38.58 20.55-20.03.99-18.55 10.54-19.06 10.54-19.06s6.53 41.08 30.04 5.52c15.29-23.09 5.83-25.98-5.51-31.58-11.33-5.58-22.05-5.49-27.04-1.99-5.02 3.5 0 16.05 0 16.05s-7.53-2.01-18.56-18.56c-14.52-.99-2.49-21.05-2.49-21.05s-17.54-11.52-13.54-20.54c8.52-17.05 32.06-19.54 32.06-19.54s-4-27.05 34.59-35.57c67.65 14.51 138.8 72.65 138.8 72.65s16.02 12.02 31.07-10.02c2.45 44.65-35.47 38.84-37.04 38.58.92.32 14.82 5.29 13.86 23.28 16.34-24.34 29.54-49.39 40.19-74.31 9.92-23.22 17.61-46.32 23.56-68.63-87.2-78.57-240.03-96.64-385.74-.13m308.5 68.96c-62-44.18-114.09-59.35-114.09-59.35 7.91-34.95-15.49-56.39-15.49-56.39.32-4.94 46.81-16.49 37.25 12.53 0 0 39.91 1.64 8.92 34.62l17.79 7.59c-5.27-33.64 22.74-30 22.74-30-.32-22.76 43.88-8.92 29.69 9.22 16.82 23.75-11.87 35.95-11.87 35.95l16.82 9.24c12.85-40.91 33.64-23.74 34.62-15.83 2.32-5.93 38.58-11.88 40.88 16.49-50.76-4.3-60.33 35.93-67.26 35.93" style="fill:url(#linear-gradient-29)"/><path d="M38.35 227.28c-.08-.36-.15-.71-.23-1.06-.05-.2-.1-.41-.14-.61s.01-.02.01-.02H38zM52.87 225.59l-.24-1.52h.02zM330.79 203.33s23.4 21.44 15.49 56.38c0 0 52.09 15.17 114.09 59.36 6.93 0 16.5-40.24 67.26-35.94-2.3-28.37-38.57-22.42-40.88-16.49-.98-7.91-21.77-25.07-34.62 15.84l-16.82-9.24s28.69-12.2 11.87-35.95c14.19-18.14-30.01-31.98-29.69-9.22 0 0-28.01-3.64-22.75 30l-17.79-7.6c30.99-32.97-8.92-34.62-8.92-34.62 9.57-29.01-36.92-17.47-37.24-12.52m80.77 39.89c3.37-6.01 13.87-5.95 20.16-2.14 6.28 3.79 8.71 11.8 4.91 17.58-5.27 7.99-11.86 6.01-17.84 3.81-6.89-2.52-11.84-10.99-7.22-19.24ZM271.12 507.49c-2.34 9.75-3.78 18.64-4.47 26.74-25.38-13.26-48.12-28.03-68.5-43.92 37.76-2.28 72.97 17.18 72.97 17.18M200.96 461.11c-8.06 7.88-12.87 14.03-15.71 18.73a408 408 0 0 1-16.94-15.11c8.01-4.55 18.53-6.54 32.65-3.62" class="cls-37"/><path d="M497.04 331.32c-15.05 22.04-31.07 10.02-31.07 10.02s-71.15-58.14-138.8-72.65c-38.59 8.52-34.59 35.57-34.59 35.57s-23.54 2.49-32.06 19.54c-4 9.02 13.54 20.54 13.54 20.54s-12.03 20.06 2.49 21.05c11.03 16.55 18.56 18.56 18.56 18.56s-5.02-12.55 0-16.05c4.99-3.5 15.71-3.59 27.04 1.99 11.34 5.6 20.8 8.49 5.51 31.58-23.51 35.56-30.04-5.52-30.04-5.52s-9.55.51-10.54 19.06c-31.06-18.55-28.02 4.8-20.55 20.03 7.49 15.24-.79 12.32-4.5 10.53-3.71-1.81-8.58-5.15-21.04-7.53-31.74-6.02-53.12 10.04-53.12 10.04s34.07-1.02 43.09 16.53c-20.55 3-28.06 14.02-28.06 14.02s48.11-3.49 89.68 25.06c-9.83 11.94-13.36 24.7-13.35 36.89 3.79 1.84 7.65 3.66 11.55 5.44 85.24-38.8 143.41-93.74 183.08-152.84.96-17.99-12.94-22.96-13.86-23.28 1.57.26 39.49 6.07 37.04-38.58m-174.58-14.75c-10.45-9.64-5.63-16.06.79-24.09 8.04-4.83 36.95 20.06 36.95 20.06s-24.1-.81-37.74 4.03" class="cls-37"/><path d="M37.78 224.6c-.07-.33-.15-.66-.21-.98q-.24-1.05-.45-2.1h.02l.44 2.09zM36.69 219.36h-.02c-.13-.62-.25-1.24-.38-1.87zM179.31 123.18v26.31h-6.68v-14.07c0-2.03-.05-3.25-.16-3.66-.1-.4-.37-.72-.82-.93s-1.45-.31-3.01-.31h-.67v-3.08c3.25-.7 5.71-2.12 7.4-4.26zM197.8 128.37c-.1-1.01-.46-1.97-1.09-2.89-.63-.91-1.52-1.61-2.67-2.11-1.15-.48-2.61-.73-4.39-.73q-2.175 0-3.81.63c-1.09.43-1.95 1.02-2.57 1.79q-.915 1.14-1.14 2.49c-.15.9-.23 2.28-.23 4.12v2.1q0 2.325.39 3.69c.25.91.84 1.69 1.78 2.34s2.02.98 3.24.98c.99 0 1.81-.18 2.47-.52.66-.35 1.15-.88 1.49-1.57v4.2c0 .99-.02 1.65-.05 1.97-.02.33-.15.59-.37.8s-.5.3-.84.3c-.41 0-.74-.1-.97-.32-.24-.22-.37-.48-.41-.81-.03-.32-.05-1.09-.05-2.32h-6.68c0 1.65.26 3.01.79 4.1q.78 1.62 2.58 2.52c1.19.59 2.74.89 4.62.89 1.52 0 2.87-.23 4.02-.71 1.16-.47 2.08-1.18 2.75-2.12.69-.95 1.07-1.94 1.16-3s.13-3.16.13-6.3v-3.66c0-2.89-.05-4.85-.15-5.86m-6.53 5.91q0 1.455-.33 1.95c-.21.33-.55.49-1.01.49-.32 0-.61-.13-.91-.39-.29-.26-.44-.94-.44-2.05v-4.93c0-1.21.16-1.96.47-2.23.31-.28.61-.43.89-.43.47 0 .81.19 1.02.55.2.36.31 1.11.31 2.28zM216.17 128.37c-.1-1.01-.47-1.97-1.1-2.89-.63-.91-1.52-1.61-2.66-2.11-1.15-.48-2.62-.73-4.4-.73q-2.175 0-3.81.63c-1.09.43-1.94 1.02-2.56 1.79-.62.76-1 1.59-1.15 2.49s-.22 2.28-.22 4.12v2.1c0 1.55.12 2.78.38 3.69.25.91.85 1.69 1.79 2.34.93.65 2.01.98 3.24.98.98 0 1.8-.18 2.46-.52.66-.35 1.16-.88 1.49-1.57v4.2c0 .99-.01 1.65-.05 1.97-.02.33-.14.59-.37.8-.22.21-.5.3-.84.3-.41 0-.73-.1-.97-.32s-.37-.48-.4-.81c-.04-.32-.05-1.09-.05-2.32h-6.68c0 1.65.25 3.01.78 4.1.52 1.08 1.39 1.92 2.58 2.52 1.2.59 2.74.89 4.63.89 1.51 0 2.86-.23 4.01-.71 1.17-.47 2.08-1.18 2.76-2.12.68-.95 1.06-1.94 1.15-3s.13-3.16.13-6.3v-3.66c0-2.89-.05-4.85-.14-5.86m-6.54 5.91c0 .97-.1 1.62-.32 1.95s-.56.49-1.02.49c-.31 0-.61-.13-.91-.39-.28-.26-.43-.94-.43-2.05v-4.93c0-1.21.16-1.96.46-2.23.31-.28.61-.43.9-.43.47 0 .8.19 1.01.55s.31 1.11.31 2.28zM228.95 123.18v26.31h-6.68v-14.07q0-3.045-.15-3.66c-.1-.4-.38-.72-.83-.93-.44-.21-1.45-.31-3.01-.31h-.67v-3.08c3.25-.7 5.72-2.12 7.4-4.26z" class="cls-13"/><path d="m51.7 217.78-.85-.05c-.97-.07-1.89-.1-2.82-.1h-.09c-.3 0-.6 0-.9.01-.24.01-.47.01-.71.02l-.06.02h-.43c-.18.01-.35.03-.53.04l-.34.02c-.34.03-.68.06-1.02.1h-.13c-.13.02-.25.03-.38.05l-.32.04c-.12.01-.26.02-.41.05l-.14.03-.14.02c-.24.03-.49.07-.73.11l-.33.06c-.17.03-.34.06-.51.1h-.05q-.525.12-1.08.24l-3.04.82-.4-1.87-.41-1.97v-.02c-9.13-45.85-11.33-86.27-11.32-114.34 0-12.75.45-22.95.89-29.95.28-4.33.56-7.42.73-9.15 2.65-.85 5.3-1.67 7.96-2.47 1.1-.35 2.21-.68 3.32-1.01.75-.22 1.5-.45 2.25-.66 1.51-.45 3.03-.89 4.55-1.32.09-.03.19-.06.28-.08 1.62-.47 3.25-.93 4.88-1.37.19-.06.38-.11.57-.16.1-.03.19-.06.28-.08.09-.03.18-.05.28-.07-1.31 10.04-2.79 23.91-3.76 40.71-.1 1.78-.19 3.59-.28 5.44-1.5 30.51-1.19 69.71 4.62 112.73v.02c.09.67.19 1.35.29 2.03.09.67.18 1.34.28 2.01" class="cls-12"/><path d="M50.55 54.83c-.1.03-.19.05-.28.08.09-.03.18-.05.28-.08" class="cls-12"/><path d="M38.35 227.28c-.08-.36-.15-.71-.23-1.06-.05-.2-.1-.41-.14-.61.01 0 .01-.01.02-.01z" style="fill:url(#linear-gradient-30)"/><path d="M123.73 415.46c-4-5.19-7.83-10.43-11.52-15.71 3.69 5.28 7.53 10.51 11.52 15.71" style="fill:url(#linear-gradient-31)"/><path d="M104.14 71.78v11.58q3.96-.825 7.92-1.62v11.58c-2.64.52-5.28 1.06-7.92 1.6v25.66c-4.29.89-8.58 1.82-12.86 2.78V62.39c7.23-1.62 14.47-3.14 21.72-4.58v12.17c-2.95.58-5.91 1.18-8.86 1.8M137.17 79.96V69.35c0-3.08-.15-4.99-.42-5.7-.27-.72-.87-1-1.79-.84-1.06.18-1.72.76-2 1.73-.29.99-.43 3.02-.43 6.12v28.36c0 2.96.14 4.87.43 5.73.28.85.92 1.19 1.9 1.02.95-.17 1.57-.72 1.86-1.69.3-.96.45-3.13.45-6.5v-7.72c4.31-.73 8.63-1.43 12.95-2.11v2.39c0 6.32-.37 10.85-1.09 13.62-.73 2.76-2.34 5.32-4.82 7.72-2.49 2.39-5.55 3.89-9.2 4.53-3.77.65-6.89.37-9.34-.86s-4.07-3.25-4.87-6.08c-.79-2.81-1.19-7.21-1.19-13.18v-17.8c0-4.39.13-7.7.37-9.94s.97-4.49 2.19-6.75c1.21-2.27 2.89-4.18 5.04-5.74 2.16-1.55 4.64-2.58 7.44-3.06 3.8-.66 6.94-.27 9.42 1.12 2.48 1.4 4.1 3.4 4.88 5.96.78 2.57 1.17 6.71 1.17 12.39v5.78c-4.32.68-8.64 1.38-12.95 2.11M186.55 58.49v11.57c2.67-.3 5.33-.59 8.01-.88v11.58c-2.68.28-5.34.58-8.01.88v25.65c-4.34.5-8.67 1.03-13.01 1.59V47.91c7.31-.95 14.64-1.8 21.97-2.57v12.17c-2.98.31-5.97.64-8.96.98M229.65 74.64c-.89-1.24-2.62-2.16-5.2-2.76 2.84-.54 4.76-1.64 5.73-3.33.98-1.7 1.46-4.91 1.46-9.64 0-5.2-.69-8.93-2.06-11.21-1.38-2.28-3.15-3.63-5.33-4.05-2.18-.41-6.35-.39-12.49.13-3.07.27-6.15.56-9.22.85v60.96c4.35-.42 8.7-.8 13.05-1.16V76.87c1.79-.15 2.89.16 3.32.9q.63 1.125.63 6.03v20.31c4.03-.31 8.06-.6 12.1-.87v-16.1q0-7.38-.33-9c-.22-1.08-.77-2.24-1.66-3.5m-10.11-13.03c0 2.69-.29 4.31-.88 4.85s-1.62.86-3.07.98v-13.6c1.5-.12 2.54.1 3.1.66.57.56.85 1.81.85 3.74zM263.22 89.57v12.17c-7.56.23-15.12.55-22.67.98V41.75c7.27-.4 14.55-.72 21.83-.95v12.18c-2.92.08-5.83.19-8.75.31v11.57c2.71-.11 5.43-.21 8.15-.29v11.57c-2.72.08-5.44.18-8.15.29v13.49c3.19-.13 6.39-.25 9.59-.35M300.6 50.3c-.28-1.97-1.01-3.77-2.16-5.38-1.17-1.62-2.86-2.79-5.08-3.5-2.22-.7-6.49-1.07-12.79-1-3.26.03-6.51.1-9.78.16v60.97c5.49-.13 10.99-.19 16.48-.21 3.12-.01 5.45-.22 7-.62 1.56-.41 2.86-1.13 3.92-2.16 1.04-1.03 1.8-2.48 2.22-4.31.42-1.84.63-5.49.63-10.97V61.93c0-5.78-.15-9.65-.44-11.63m-12.64 31.79c0 4.08-.22 6.57-.65 7.49s-1.57 1.38-3.43 1.4V50.77c1.41 0 2.37.17 2.88.53s.84.94.98 1.72.22 2.55.22 5.32zM332.46 90.11v12.17q-11.34-.51-22.68-.75V40.56c7.29.16 14.57.39 21.83.72v12.17c-2.91-.13-5.82-.25-8.74-.35v11.57c2.71.1 5.43.21 8.15.32v11.58c-2.72-.12-5.44-.23-8.15-.33v13.49c3.19.11 6.4.23 9.59.38M367.16 75.79c-.89-1.38-2.62-2.57-5.2-3.54 2.84-.1 4.76-.93 5.73-2.48.96-1.54 1.45-4.68 1.45-9.42 0-5.19-.69-9.03-2.05-11.51-1.38-2.48-3.15-4.11-5.33-4.85-2.18-.75-6.34-1.36-12.5-1.76-3.08-.19-6.15-.37-9.23-.54v60.97c4.36.23 8.71.5 13.07.8V75.9c1.78.12 2.9.59 3.32 1.4.42.82.63 2.85.63 6.13v20.3c4.03.3 8.07.62 12.09.97V88.6c0-4.94-.1-7.95-.32-9.07-.22-1.11-.77-2.35-1.66-3.74m-10.11-14.56c0 2.69-.29 4.27-.88 4.72s-1.62.62-3.07.52v-13.6c1.49.1 2.53.48 3.1 1.12.56.65.85 1.94.85 3.88zM391.07 45.88v60.97c-4.35-.49-8.69-.93-13.03-1.34V44.54c4.35.42 8.68.86 13.03 1.34M417.39 75.77V65.16c0-3.08-.14-5.03-.41-5.83-.28-.81-.88-1.27-1.81-1.4-1.06-.14-1.72.23-2.01 1.12-.28.89-.42 2.89-.42 5.98v28.35q0 4.455.42 5.88c.29.93.93 1.48 1.92 1.61.95.13 1.57-.24 1.86-1.12.3-.86.45-2.99.45-6.35v-7.73c4.33.61 8.66 1.25 12.98 1.92v2.38c0 6.32-.37 10.75-1.09 13.28-.74 2.54-2.34 4.6-4.84 6.23-2.48 1.62-5.56 2.17-9.21 1.67-3.79-.52-6.92-1.77-9.39-3.76-2.47-2-4.1-4.52-4.91-7.59-.8-3.07-1.19-7.59-1.19-13.56v-17.8c0-4.38.12-7.65.36-9.82.25-2.17.98-4.19 2.21-6.07 1.22-1.88 2.92-3.27 5.08-4.16 2.18-.89 4.66-1.14 7.48-.77 3.81.53 6.95 1.88 9.44 4.05 2.48 2.18 4.11 4.68 4.89 7.48.78 2.81 1.17 7.07 1.17 12.75v5.79c-4.32-.67-8.65-1.31-12.98-1.92M451.79 54.65v60.97c-4.31-.78-8.62-1.52-12.94-2.23V52.43c4.32.71 8.63 1.44 12.94 2.22M482.95 60.79q-9.3-2.01-18.63-3.81c-2.18 19.9-4.35 39.81-6.54 59.73 4.46.82 8.92 1.68 13.36 2.58.24-3.61.47-7.22.7-10.83 1.56.31 3.12.63 4.67.95.23 3.71.48 7.41.7 11.13 4.36.9 8.73 1.84 13.08 2.81-2.45-20.86-4.89-41.72-7.34-62.56m-11.14 36.8c.33-5.27 1.12-13.64 2.37-25.14.67 10.37 1.31 19.05 1.89 26.01zM66.63 101.62l6.64 13.48-13.29-7-10.78 10.46 2.56-14.8-5.25-2.77-8.04-4.24 8.32-1.2 6.55-.94 2.57-14.81 6.63 13.48 14.87-2.14zM529.81 103.76l2.56 14.8-10.78-10.46-13.29 7 6.63-13.48-10.78-10.48 14.88 2.14 6.63-13.48 2.56 14.81 14.88 2.14z" class="cls-13"/><path d="m557.33 61.42 22.38-18.8-.09-.9-.84-.27-22.44 18.84-.1-.03c-47.18-15.1-101.75-25.99-162.21-32.34-49.62-5.21-88.73-5.77-103.25-5.77s-53.62.56-103.25 5.77C127.05 34.28 72.48 45.16 25.34 60.27l-.1.03L2.8 41.45l-.85.27-.1.9 22.4 18.81v.1c-.4 3.89-1.67 18.25-1.67 39.63 0 31.49 2.62 63.47 7.78 95.05.17.99.33 1.99.5 2.99.09.5.17.99.25 1.49.08.49.17.99.26 1.49.17.99.34 1.98.52 2.97l.54 2.96c.27 1.47.55 2.94.83 4.4.15.75.29 1.49.44 2.24.34 1.72.69 3.43 1.04 5.14q.21 1.08.45 2.16c.02.11.05.22.07.33s.05.21.07.32c.84 4.01 1.74 8 2.67 11.97 0 .01.01.03.01.04l.06.25c.44 1.85.88 3.7 1.33 5.54.06.22.12.45.17.68.53 2.1 1.06 4.2 1.6 6.29.42 1.6.85 3.2 1.27 4.79.1.35.19.69.28 1.03.1.36.19.71.29 1.05.51 1.88 1.04 3.75 1.57 5.61.01.03.01.05.02.08.37 1.29.74 2.58 1.12 3.86l.63 2.11c.02.09.05.18.09.28.52 1.76 1.06 3.53 1.6 5.28.09.27.17.55.26.83.04.13.08.25.12.38.44 1.42.9 2.83 1.35 4.23.02.05.03.11.05.16.21.67.43 1.33.65 2 .47 1.44.95 2.87 1.43 4.31.22.65.44 1.3.67 1.95.39 1.16.79 2.31 1.2 3.46.34 1 .7 1.99 1.06 2.99.46 1.31.93 2.62 1.42 3.92.1.31.22.62.33.92.59 1.61 1.2 3.22 1.8 4.82.17.43.33.85.49 1.28.06.15.12.31.18.46.62 1.62 1.25 3.22 1.89 4.82.17.42.33.84.5 1.26.42 1.04.83 2.08 1.26 3.11.05.13.1.27.16.4.26.64.52 1.27.79 1.9.34.82.68 1.64 1.02 2.45.34.82.68 1.63 1.03 2.44 20.15 47.2 47.21 89.42 80.44 125.48 39.13 42.46 87.37 76.94 143.39 102.48l.5.23v22.22l.75.35.75-.35v-22.22l.5-.23c56.02-25.54 104.27-60.02 143.39-102.48 33.22-36.04 60.28-78.25 80.45-125.48 16.3-38.16 28.18-79.69 35.34-123.44 5.16-31.56 7.78-63.54 7.78-95.05 0-21.48-1.27-35.76-1.65-39.62v-.12Zm-5.35 115.84h-.01l-.27 2.15c-2.95 21.97-7.43 45.89-14.09 70.83-5.95 22.31-13.64 45.41-23.56 68.63-10.65 24.92-23.85 49.97-40.19 74.31-39.67 59.1-97.84 114.04-183.08 152.84-3.9-1.78-7.76-3.6-11.55-5.44-4.27-2.08-8.45-4.2-12.58-6.35-25.38-13.26-48.12-28.03-68.5-43.92q-6.615-5.16-12.9-10.47a408 408 0 0 1-16.94-15.11c-6.5-6.12-12.71-12.36-18.64-18.71h-.01a417 417 0 0 1-19.81-22.8c-2.08-2.57-4.11-5.15-6.11-7.75 0 0 0-.01-.01-.01-4-5.19-7.83-10.43-11.52-15.71-1.84-2.64-3.65-5.29-5.42-7.95-15.92-23.9-28.82-48.48-39.27-72.93-7.37-17.25-13.51-34.44-18.62-51.28-.42-1.36-.83-2.72-1.22-4.08-.46-1.53-.9-3.06-1.33-4.59-.96-3.33-1.87-6.65-2.74-9.94-.13-.51-.26-1.01-.39-1.51-.88-3.34-1.71-6.66-2.5-9.96-.57-2.33-1.11-4.65-1.63-6.95-.26-1.1-.5-2.19-.74-3.28-.08-.36-.15-.71-.23-1.06-.05-.2-.1-.41-.14-.61-.14-.67-.29-1.33-.42-1.99q-.24-1.05-.45-2.1h.03l1.91-.53.87-.24c.28-.07.56-.14.85-.2 2.26-.5 4.7-.75 7.25-.75 1.32 0 2.66.06 4 .19h.03c.35.03.69.07 1.04.11 2.06.24 4.04.63 5.75 1.1 3.52-6.24 9.16-12.4 17.7-12.4s12.18 10.68 21.17 23.12c1.21-.68 3.76-2.3 6.21-3.94 2.43-1.62 4.77-3.26 5.62-4.02.06-.05.11-.1.15-.14-2.49-2.81-5.22-5.81-8.26-9.16-3.08-3.38-6.56-7.22-10.32-11.44-9.72-10.84-13.09-19.83-10.02-26.7 2.41-5.4 8.75-8.63 16.94-8.63 7.11 0 15.5 2.56 18.2 8.29.44.94.9 2.34.82 4.05 6.13.65 14.99 2.95 19.74 10.58 3.65 5.88 4.03 13.61 1.14 23.09 40.91-23.52 81.18-42.02 119.85-55.03 3.7-1.26 7.62-2.53 11.65-3.79 4.19-1.3 7.97-2.43 11.59-3.46l.12-.03c.57-.16 1.14-.32 1.7-.48 2.22-.63 4.4-1.23 6.47-1.78.57-.15 1.13-.3 1.69-.44 5.04-1.33 10.2-2.6 15.34-3.77 2.76-.63 5.06-1.13 7.24-1.58.46-.1.92-.19 1.37-.29 3.31-.7 6.74-1.37 10.48-2.05.41-.07.8-.14 1.18-.21 2.01-.37 4.17-.74 6.59-1.13.16-.03.34-.05.51-.08s.34-.05.51-.08a389 389 0 0 1 17.44-2.42c2.15-.27 4.3-.5 6.39-.7 1.36-.14 2.74-.27 4.11-.4h.2c.93-.1 1.86-.18 2.77-.25l.46-.04c.08-.01.16-.02.24-.02h.07c2.86-.24 5.23-.4 7.47-.53 1.07-.07 2.17-.13 3.27-.18l.46-.03c.12-.01.24-.01.36-.02h.08c2.35-.13 4.71-.22 7.02-.28.84-.03 1.76-.06 2.79-.07h.03c.68-.02 1.36-.04 2.03-.05h.85q.84-.03 1.68-.03c.6-.01 1.18-.02 1.76-.02h2.01c14.71 0 29.32.93 43.44 2.76.8.1 1.63.21 2.45.33 2.36.32 4.75.67 7.09 1.05.5.07.98.16 1.44.24 2.25.36 4.56.76 7.05 1.23 1.29.24 2.55.49 3.81.74 1.72.34 3.48.71 5.24 1.09 2.89.63 5.42 1.22 7.72 1.79 3.59.88 6.87 1.74 10.03 2.63 1.47.41 3.08.87 4.9 1.42 3.87 1.16 7.89 2.45 11.93 3.84 1.41.48 2.76.96 4.02 1.42.21.07.42.15.63.22.18.07.37.13.55.19l.04.02h.05c1.32.5 2.64 1 3.94 1.49 13.89 5.3 27.44 11.65 40.34 18.92l1.87 1.05h.01c-.09.73-.19 1.45-.28 2.17m1.1-8.76-.27 2.14c-.08.71-.17 1.43-.26 2.14h-.01l-1.88-1.05-.97-.54a302.6 302.6 0 0 0-47.2-21.12c-33.5-11.67-69.48-17.58-106.92-17.58-76.67 0-159.99 24.65-247.62 73.27l-5.93 3.29v-6.78c-.02-4.76-1.16-9-3.4-12.6-3.46-5.57-9.22-9.24-17.11-10.92l-2.15-.45-.77-2.06c-.12-.33-.26-.67-.42-1-3.09-6.57-12.34-9.52-20.14-9.52-9.07 0-16.14 3.71-18.92 9.92-3.07 6.89-.6 15.45 7.35 25.45l19.84 22.42-3.82 2.54-4.02 2.68-10.22-15.34c-.38-.56-.92-1.17-1.53-1.78-.6-.58-1.26-1.16-1.89-1.68-1.8-1.5-3.92-2.6-6.22-3.07-.67-.13-1.35-.22-2.06-.22-6.82 0-12.67 3.35-17.36 9.95l-1.45 2.04-2.47-.42c-.99-.16-2.03-.3-3.12-.4l-.41-.03h-.03l-.85-.05c-.97-.07-1.89-.1-2.82-.1h-.09c-.3 0-.6 0-.9.01-.24.01-.47.01-.71.02l-.06.02h-.43c-.18.01-.35.03-.53.04l-.34.02c-.34.03-.68.06-1.02.1h-.13c-.13.02-.25.03-.38.05l-.32.04c-.12.01-.26.02-.41.05l-.14.03-.14.02c-.24.03-.49.07-.73.11l-.33.06c-.17.03-.34.06-.51.1h-.05q-.525.12-1.08.24l-3.04.82h-.02l-.01.01c-.26-1.29-.52-2.57-.78-3.85v-.02c-9.13-45.85-11.33-86.27-11.32-114.34 0-12.75.45-22.95.89-29.95.28-4.33.56-7.42.73-9.15 2.65-.85 5.3-1.67 7.96-2.47 1.1-.35 2.21-.68 3.32-1.01.75-.22 1.5-.45 2.25-.66 1.51-.45 3.03-.89 4.55-1.32.09-.03.19-.06.28-.08 1.62-.47 3.25-.93 4.88-1.37.19-.06.38-.11.57-.16.1-.03.19-.06.28-.08.09-.03.18-.05.28-.08 103.04-28.32 210.26-30.7 240.04-30.7h.36c32.12 0 154.48 2.76 264.44 37.93h.01c.17 1.74.44 4.83.72 9.15.45 7 .89 17.2.89 29.95 0 17.98-.89 41.03-3.93 67.34" class="cls-13"/><path d="M555.4 62.06v.01l-.01-.01zM37.58 223.61s-.01 0-.01.01h-.01c-.15-.7-.3-1.4-.44-2.1h.02zM52.35 222.03s-.01-.01-.02 0c-.11-.68-.21-1.37-.31-2.04h.03zM552.26 175.1c-.09.72-.19 1.44-.28 2.16h-.01l.28-2.17h.01ZM36.69 219.36h-.02c-.13-.62-.25-1.24-.38-1.87zM51.73 217.78h-.03c-.1-.67-.19-1.34-.28-2.01h.01zM552.81 170.64c-.08.71-.17 1.43-.26 2.14h-.01z" class="cls-13"/><path d="m52.35 222.03-.3-2.04h-.03c.1.67.2 1.36.31 2.04.09.68.2 1.36.3 2.04h.02zm0 0-.3-2.04h-.03c.1.67.2 1.36.31 2.04.09.68.2 1.36.3 2.04h.02zm0 0-.3-2.04h-.03c.1.67.2 1.36.31 2.04.09.68.2 1.36.3 2.04h.02zm0 0-.3-2.04h-.03c.1.67.2 1.36.31 2.04.09.68.2 1.36.3 2.04h.02zm0 0-.3-2.04h-.03c.1.67.2 1.36.31 2.04.09.68.2 1.36.3 2.04h.02zm0 0-.3-2.04h-.03c.1.67.2 1.36.31 2.04.09.68.2 1.36.3 2.04h.02zm0 0-.3-2.04h-.03c.1.67.2 1.36.31 2.04.09.68.2 1.36.3 2.04h.02zm0 0-.3-2.04h-.03c.1.67.2 1.36.31 2.04.09.68.2 1.36.3 2.04h.02zm0 0-.3-2.04h-.03c.1.67.2 1.36.31 2.04.09.68.2 1.36.3 2.04h.02zm0 0-.3-2.04h-.03c.1.67.2 1.36.31 2.04.09.68.2 1.36.3 2.04h.02zm0 0-.3-2.04h-.03c.1.67.2 1.36.31 2.04.09.68.2 1.36.3 2.04h.02zm0 0-.3-2.04h-.03c.1.67.2 1.36.31 2.04.09.68.2 1.36.3 2.04h.02zm0 0-.3-2.04h-.03c.1.67.2 1.36.31 2.04.09.68.2 1.36.3 2.04h.02zm0 0-.3-2.04h-.03c.1.67.2 1.36.31 2.04.09.68.2 1.36.3 2.04h.02zm0 0-.3-2.04h-.03c.1.67.2 1.36.31 2.04.09.68.2 1.36.3 2.04h.02zm0 0-.3-2.04h-.03c.1.67.2 1.36.31 2.04.09.68.2 1.36.3 2.04h.02zm0 0-.3-2.04h-.03c.1.67.2 1.36.31 2.04.09.68.2 1.36.3 2.04h.02zm0 0-.3-2.04h-.03c.1.67.2 1.36.31 2.04.09.68.2 1.36.3 2.04h.02zm0 0-.3-2.04h-.03c.1.67.2 1.36.31 2.04.09.68.2 1.36.3 2.04h.02zm0 0-.3-2.04h-.03c.1.67.2 1.36.31 2.04.09.68.2 1.36.3 2.04h.02zm0 0-.3-2.04h-.03c.1.67.2 1.36.31 2.04.09.68.2 1.36.3 2.04h.02zm0 0-.3-2.04h-.03c.1.67.2 1.36.31 2.04.09.68.2 1.36.3 2.04h.02zm0 0-.3-2.04h-.03c.1.67.2 1.36.31 2.04.09.68.2 1.36.3 2.04h.02zm0 0-.3-2.04h-.03c.1.67.2 1.36.31 2.04.09.68.2 1.36.3 2.04h.02zm0 0-.3-2.04h-.03c.1.67.2 1.36.31 2.04.09.68.2 1.36.3 2.04h.02zm0 0-.3-2.04h-.03c.1.67.2 1.36.31 2.04.09.68.2 1.36.3 2.04h.02zm-.92-6.26-.3-2.03c.09.67.19 1.35.29 2.03.09.67.18 1.34.28 2.01h.03zm501.11-43h.01c.09-.7.18-1.42.26-2.13zM36.29 217.49l-.41-1.97c.26 1.28.52 2.56.78 3.85h.03zm515.96-42.4-.28 2.17h.01c.09-.72.19-1.44.28-2.16h-.01Zm-499.9 46.94-.3-2.04h-.03c.1.67.2 1.36.31 2.04.09.68.2 1.36.3 2.04h.02zM38 225.6h-.01l-.21-1-.2-.99-.44-2.1h-.03q.21 1.05.45 2.1c.13.66.28 1.32.42 1.98s.01 0 .02 0Zm14.35-3.57-.3-2.04h-.03c.1.67.2 1.36.31 2.04.09.68.2 1.36.3 2.04h.02zm0 0-.3-2.04h-.03c.1.67.2 1.36.31 2.04.09.68.2 1.36.3 2.04h.02zm0 0-.3-2.04h-.03c.1.67.2 1.36.31 2.04.09.68.2 1.36.3 2.04h.02zm0 0-.3-2.04h-.03c.1.67.2 1.36.31 2.04.09.68.2 1.36.3 2.04h.02zm0 0-.3-2.04h-.03c.1.67.2 1.36.31 2.04.09.68.2 1.36.3 2.04h.02zm0 0-.3-2.04h-.03c.1.67.2 1.36.31 2.04.09.68.2 1.36.3 2.04h.02zm0 0-.3-2.04h-.03c.1.67.2 1.36.31 2.04.09.68.2 1.36.3 2.04h.02zm0 0-.3-2.04h-.03c.1.67.2 1.36.31 2.04.09.68.2 1.36.3 2.04h.02zm0 0-.3-2.04h-.03c.1.67.2 1.36.31 2.04.09.68.2 1.36.3 2.04h.02zm0 0-.3-2.04h-.03c.1.67.2 1.36.31 2.04.09.68.2 1.36.3 2.04h.02zm0 0-.3-2.04h-.03c.1.67.2 1.36.31 2.04.09.68.2 1.36.3 2.04h.02zm0 0-.3-2.04h-.03c.1.67.2 1.36.31 2.04.09.68.2 1.36.3 2.04h.02zm0 0-.3-2.04h-.03c.1.67.2 1.36.31 2.04.09.68.2 1.36.3 2.04h.02zm0 0-.3-2.04h-.03c.1.67.2 1.36.31 2.04.09.68.2 1.36.3 2.04h.02zm0 0-.3-2.04h-.03c.1.67.2 1.36.31 2.04.09.68.2 1.36.3 2.04h.02zm0 0-.3-2.04h-.03c.1.67.2 1.36.31 2.04.09.68.2 1.36.3 2.04h.02zm0 0-.3-2.04h-.03c.1.67.2 1.36.31 2.04.09.68.2 1.36.3 2.04h.02zm0 0-.3-2.04h-.03c.1.67.2 1.36.31 2.04.09.68.2 1.36.3 2.04h.02zm0 0-.3-2.04h-.03c.1.67.2 1.36.31 2.04.09.68.2 1.36.3 2.04h.02zm0 0-.3-2.04h-.03c.1.67.2 1.36.31 2.04.09.68.2 1.36.3 2.04h.02zm0 0-.3-2.04h-.03c.1.67.2 1.36.31 2.04.09.68.2 1.36.3 2.04h.02zm0 0-.3-2.04h-.03c.1.67.2 1.36.31 2.04.09.68.2 1.36.3 2.04h.02zm0 0-.3-2.04h-.03c.1.67.2 1.36.31 2.04.09.68.2 1.36.3 2.04h.02zm0 0-.3-2.04h-.03c.1.67.2 1.36.31 2.04.09.68.2 1.36.3 2.04h.02zm0 0-.3-2.04h-.03c.1.67.2 1.36.31 2.04.09.68.2 1.36.3 2.04h.02zm0 0-.3-2.04h-.03c.1.67.2 1.36.31 2.04.09.68.2 1.36.3 2.04h.02z"/><path d="M149.88 445.91c-.08.04-.14.07-.22.1a413 413 0 0 1-19.81-22.79c-2.08-2.57-4.11-5.15-6.11-7.75 0 0 0-.01-.01-.01-3.99-5.2-7.83-10.43-11.52-15.71-1.84-2.64-3.65-5.29-5.42-7.95-15.92-23.9-28.82-48.48-39.27-72.93-7.37-17.25-13.51-34.44-18.62-51.28-.42-1.36-.83-2.72-1.22-4.08-.46-1.53-.9-3.06-1.33-4.59-.96-3.33-1.87-6.65-2.74-9.94-.13-.51-.26-1.01-.39-1.51-.88-3.34-1.71-6.66-2.5-9.96-.57-2.33-1.11-4.65-1.63-6.95-.26-1.1-.5-2.19-.74-3.28L38 225.6h-.01l-.21-1-.2-.99-.44-2.1 1.91-.52.87-.24c.28-.07.56-.14.85-.2 2.26-.5 4.7-.75 7.25-.75 1.32 0 2.66.06 4 .19.1.67.2 1.36.31 2.04.09.68.2 1.36.3 2.04l.24 1.52c11.21 71.62 38.11 152.25 97.01 220.32" style="fill:url(#linear-gradient-32)"/><path d="m552.25 175.09-.28 2.17-.27 2.15c-2.95 21.97-7.43 45.89-14.09 70.83-87.2-78.57-240.03-96.64-385.74-.13 41.98 17.88 14.45 30.96 14.45 30.96 15.14 6.9-19.81 67.31-24.09 13.08-1.79-13.33-3.6-23.48-5.8-31.77-6.56.94-12.7 3.95-17.59 7.15 4.29 16.3 4.72 32.5-1.51 43.01 0 49.35 42.13 117.7 61.14 129.53-12.83-1.03-22.11.91-28.8 3.95h-.01l.22-.11c-58.9-68.07-85.8-148.7-97.01-220.32l-.22-1.52-.3-2.04-.3-2.04c.35.03.69.07 1.04.11 2.06.24 4.04.63 5.75 1.1 3.52-6.24 9.16-12.4 17.7-12.4s12.18 10.68 21.17 23.12c1.21-.68 3.76-2.3 6.21-3.94 2.43-1.62 4.77-3.26 5.62-4.02.06-.05.11-.1.15-.14-2.49-2.81-5.22-5.81-8.26-9.16-3.08-3.38-6.56-7.22-10.32-11.44-9.72-10.84-13.09-19.83-10.02-26.7 2.41-5.4 8.75-8.63 16.94-8.63 7.11 0 15.5 2.56 18.2 8.29.44.94.9 2.34.82 4.05 6.13.65 14.99 2.95 19.74 10.58 3.65 5.88 4.03 13.61 1.14 23.09 40.91-23.52 81.18-42.02 119.85-55.03 3.7-1.26 7.62-2.53 11.65-3.79 4.19-1.3 7.97-2.43 11.59-3.46l.12-.03c.57-.16 1.14-.32 1.7-.48 2.22-.63 4.4-1.23 6.47-1.78.57-.15 1.13-.3 1.69-.44 5.04-1.33 10.2-2.6 15.34-3.77 2.76-.63 5.06-1.13 7.24-1.58.46-.1.92-.19 1.37-.29 3.31-.7 6.74-1.37 10.48-2.05.41-.07.8-.14 1.18-.21 2.01-.37 4.17-.74 6.59-1.13.16-.03.34-.05.51-.08s.34-.05.51-.08a389 389 0 0 1 17.44-2.42c2.15-.27 4.3-.5 6.39-.7 1.36-.14 2.74-.27 4.11-.4h.2c.93-.1 1.86-.18 2.77-.25l.46-.04c.08-.01.16-.02.24-.02h.07c2.86-.24 5.23-.4 7.47-.53 1.07-.07 2.17-.13 3.27-.18l.46-.03c.12-.01.24-.01.36-.02h.08c2.35-.13 4.71-.22 7.02-.28.84-.03 1.76-.06 2.79-.07h.03c.68-.02 1.36-.04 2.03-.05h.85q.84-.03 1.68-.03c.6-.01 1.18-.02 1.76-.02h2.01c14.71 0 29.32.93 43.44 2.76.8.1 1.63.21 2.45.33 2.36.32 4.75.67 7.09 1.05.5.07.98.16 1.44.24 2.25.36 4.56.76 7.05 1.23 1.29.24 2.55.49 3.81.74 1.72.34 3.48.71 5.24 1.09 2.89.63 5.42 1.22 7.72 1.79 3.59.88 6.87 1.74 10.03 2.63 1.47.41 3.08.87 4.9 1.42 3.87 1.16 7.89 2.45 11.93 3.84 1.41.48 2.76.96 4.02 1.42.21.07.42.15.63.22.18.07.37.13.55.19l.04.02h.05c1.32.5 2.64 1 3.94 1.49 13.89 5.3 27.44 11.65 40.34 18.92z" class="cls-37"/><path d="m550.38 174.04-.92-.52" style="fill:none"/></g></svg>