<svg xmlns="http://www.w3.org/2000/svg" viewBox="144.43 11.35 773.3 772.79"><defs><clipPath id="a" clipPathUnits="userSpaceOnUse"><path d="M-686.162 8.51h800v-600h-800Z"/></clipPath><clipPath id="b" clipPathUnits="userSpaceOnUse"><path d="M0 600h800V0H0Z"/></clipPath><clipPath id="c" clipPathUnits="userSpaceOnUse"><path d="M0 600h800V0H0Z"/></clipPath><clipPath id="d" clipPathUnits="userSpaceOnUse"><path d="M0 600h800V0H0Z"/></clipPath><clipPath id="e" clipPathUnits="userSpaceOnUse"><path d="M-675.49 45.88h800v-600h-800Z"/></clipPath><clipPath id="f" clipPathUnits="userSpaceOnUse"><path d="M0 600h800V0H0Z"/></clipPath><clipPath id="g" clipPathUnits="userSpaceOnUse"><path d="M-391.998 310.679h800v-600h-800Z"/></clipPath><clipPath id="h" clipPathUnits="userSpaceOnUse"><path d="M-412.855 236.793h800v-600h-800Z"/></clipPath><clipPath id="i" clipPathUnits="userSpaceOnUse"><path d="M-483.892 326.683h800v-600h-800Z"/></clipPath></defs><path d="M0 0h-577.844v-50.172h18.492v-32.431h26.321v-33.369h14.567v-189.787l19.739-21.342v-140.092h60.02v-34.681h34.233v-33.636h52.462v-44.081h128.301v44.081h52.464v33.636h34.234v34.681h60.018v140.092c1.077 1.16 19.743 21.342 19.743 21.342v189.787h14.566v33.369h26.321v32.431H2.131V0Z" clip-path="url(#a)" style="fill:#000;fill-opacity:1;fill-rule:nonzero;stroke:none" transform="matrix(1.33333 0 0 -1.33333 914.883 11.347)"/><path d="M346.955 24.701h102.699V56.62H346.955Z" clip-path="url(#b)" style="fill:#fff;fill-opacity:1;fill-rule:nonzero;stroke:none" transform="matrix(1.33333 0 0 -1.33333 0 800)"/><path d="M294.493 68.775h207.628v20.301H294.493Z" clip-path="url(#c)" style="fill:#fff;fill-opacity:1;fill-rule:nonzero;stroke:none" transform="matrix(1.33333 0 0 -1.33333 0 800)"/><path d="M260.259 102.412h276.096v21.729H260.259Z" clip-path="url(#d)" style="fill:#fff;fill-opacity:1;fill-rule:nonzero;stroke:none" transform="matrix(1.33333 0 0 -1.33333 0 800)"/><path d="M0 0v24.566h-554.369V0h81.047v-12.133h-62.556v-20.299h73.226v-13.07h-46.904V-65.8h46.904v-13.16h-32.337v-185.125l19.739-21.342v-132.312h396.133v132.312l19.735 21.342V-78.96h-32.336v13.16h46.905v20.298h-46.905v13.07h73.225v20.299h-62.555V0Z" clip-path="url(#e)" style="fill:#fff;fill-opacity:1;fill-rule:nonzero;stroke:none" transform="matrix(1.33333 0 0 -1.33333 900.654 61.173)"/><path d="M584.28 554.121H213.346V149.902H584.28Z" clip-path="url(#f)" style="fill:#cf053d;fill-opacity:1;fill-rule:nonzero;stroke:none" transform="matrix(1.33333 0 0 -1.33333 0 800)"/><path d="m0 0 11.473 28.568H47.43c19.783 0 26.555-.177 28.07-28.568Zm47.135 117.372h36.173C80.585 82.18 67.739 82.065 44.764 82.065H32.958c5.401 13.449 12.663 31.531 14.177 35.307m101.931 57.62H-.08s-29.256-72.845-46.901-116.785c-12.487 44.201-32.986 116.785-32.986 116.785h-66.699l66.303-234.744h229.429v92.708s-18.923 20.409-29.128 31.422c10.205 11.015 29.128 31.424 29.128 31.424z" clip-path="url(#g)" style="fill:#fff;fill-opacity:1;fill-rule:nonzero;stroke:none" transform="matrix(1.33333 0 0 -1.33333 522.663 414.238)"/><path d="M0 0c9.02 22.462 19.632 48.884 20.75 51.666h50.1C69.002.628 50.003 0 23.907 0Zm-32.958-82.063 18.044 44.926h41.487c29.148 0 35.739-7.316 36.483-44.926zM120.026 92.926H-15.407L-69.189-40.993l-37.825 133.919h-49.696l61.679-218.384h215.057v81.321S95.2-17.357 87.933-9.507c7.267 7.85 32.093 34.63 32.093 34.63z" clip-path="url(#h)" style="fill:#000;fill-opacity:1;fill-rule:nonzero;stroke:none" transform="matrix(1.33333 0 0 -1.33333 550.473 315.724)"/><path d="M0 0h-106.322l-11.143-27.742H41.168v70.424l-34.944 37.7 34.944 37.701v56.907H-81.154l-60.364-150.306-42.455 150.306h-33.434l57.262-202.732h33.434l71.134 177.123H8.004c0-62.864-22.674-67.317-55.134-67.317h-26.235l-8.631-21.486h37.532C-6.668 60.578 0 46.504 0 0" clip-path="url(#i)" style="fill:#fff;fill-opacity:1;fill-rule:nonzero;stroke:none" transform="matrix(1.33333 0 0 -1.33333 645.189 435.577)"/></svg>