<svg xmlns="http://www.w3.org/2000/svg" xml:space="preserve" viewBox="0 0 128.95 160.24"><g fill-rule="evenodd" clip-rule="evenodd"><path d="M32.77 157.526h1.745c1.875 0 2.263-1.68 2.263-2.262 0-1.422-.841-2.327-2.198-2.327h-3.232v7.11h1.422zm0-1.228v-2.133h1.228c.905 0 1.293.323 1.293.969 0 .324 0 1.164-1.099 1.164zM39.556 156.492c0 3.361 2.456 3.749 3.426 3.749.905 0 3.426-.388 3.426-3.749 0-3.296-2.521-3.748-3.426-3.748-.97 0-3.426.452-3.426 3.748m1.487 0c0-1.938 1.164-2.456 1.939-2.456s1.939.518 1.939 2.456c0 2.004-1.164 2.521-1.939 2.521s-1.939-.517-1.939-2.521M49.574 160.047h1.422v-2.779h1.551c1.099 0 1.164.388 1.164 1.357 0 .711.064 1.099.129 1.422h1.616v-.194c-.258-.129-.258-.388-.258-1.422 0-1.293-.324-1.486-.905-1.745.646-.259 1.098-.97 1.098-1.745 0-.582-.387-2.004-2.262-2.004h-3.556v7.11zm1.423-3.943v-1.938h1.875c.84 0 1.034.582 1.034.969 0 .712-.388.97-1.164.97h-1.745zM61.661 154.23h2.133v-1.293h-5.752v1.293h2.133v5.817h1.486zM72.326 152.937H70.84v4.719c0 .84-.388 1.356-1.422 1.356-.711 0-1.293-.451-1.293-1.421v-4.654h-1.486v4.719c0 .711.129 1.292.517 1.745.646.711 1.616.84 2.263.84 1.81 0 2.908-.775 2.908-2.649v-4.655zM79.113 157.397h1.615c-.258 1.486-1.356 1.615-1.681 1.615-1.034 0-2.067-.517-2.067-2.455 0-1.81.969-2.586 2.003-2.586 1.1 0 1.552.905 1.552 1.163h1.486c-.064-.969-.904-2.391-3.103-2.391-2.392 0-3.49 1.874-3.49 3.813 0 2.455 1.552 3.684 3.297 3.684 1.292 0 1.81-.646 2.197-1.099l.129.905h1.034v-3.813h-2.973zM86.934 158.625h2.65l.452 1.422h1.616l-2.521-7.11h-1.745l-2.521 7.11h1.552zm1.293-4.072h.064l.841 2.844h-1.811zM96.048 152.937h-1.487v7.11h4.977v-1.293h-3.49zM51.578 122.494c3.167-3.555 7.692-5.817 12.798-5.817 5.235 0 9.954 2.392 13.057 6.141l.84-.775a18 18 0 0 0-13.832-6.464c-5.429 0-10.277 2.392-13.638 6.141zM62.954 113.509l-4.977 1.034-1.228-6.01 4.848-1.034.258 1.098-3.231.647.258 1.293 3.103-.647.194 1.099-3.038.646.258 1.422 3.297-.646zM72.456 109.631l-2.974-.646-.323 1.357 2.973.582-.194 1.099-2.972-.581-.518 2.456-1.68-.389 1.228-6.01 4.653 1.034zM79.565 119.909l-1.422-1.422.193-1.293-2.521-1.745-1.099.711-1.681-.97 5.946-3.555 1.616 1.099zm-.452-6.593-2.263 1.422 1.745 1.228zM52.29 117.453c-1.099.84-2.973 1.551-4.331-.065l-2.003-2.521 1.357-1.033 1.939 2.521c.646.775 1.551.646 2.262.064.711-.518 1.034-1.357.388-2.198l-1.939-2.521 1.357-1.034 1.939 2.521c1.228 1.615.452 3.102-.969 4.266"/><path d="M85.641 113.898c-5.3-5.56-12.797-9.05-21.071-9.05a28.98 28.98 0 0 0-21.265 9.243l-.905-.905c5.623-5.816 13.444-9.501 22.169-9.501 8.596 0 16.417 3.619 21.976 9.372zM122.483 131.09c.064 0-.646-.646-.711-.711-.194 0-1.422.711-2.392 1.422-2.521 1.875-3.297 3.232-3.942 4.137-.13.194.193.259.193.259 1.163-.13 2.909-.582 5.171-.646l.194-.064.129-.323c.517-1.229 1.099-2.65 1.228-3.361.001-.002.13-.648.13-.713m-9.954 9.243c-.388.129-1.034.064-1.486-.129-.582-.323-1.229-2.134-1.163-2.393 0-.193.064-.258.193-.323l.518-.517c.129-.064 1.356-2.263 6.334-6.076 2.585-1.938 5.494-3.684 7.886-5.364.452.388 1.422.711 1.615.84.518.841.905 2.198.841 2.65-.13.582-1.293 4.266-1.81 5.43 0 0-.259.97-.194 1.034.129.388.84.388 1.228.323.259 0 1.099-.064 1.293-.13.13 0 .711-.129.841-.129.323 0 .193 0 .323.323-.453.323-.97.905-1.423 1.228-.581.453-.969 1.229-2.133 1.681a10 10 0 0 0-.969.259l-.259.064-.129.259c-.324.841-.582 1.551-.971 2.392-.388.84-1.033 4.201-1.163 5.171-.064.388-.775 2.004-1.163 3.296-.452 1.357-1.034 2.068-1.875 1.875q-.29 0-.388-.194-.097 0-.193-.193l-.259-.194c-.064-.388-.323-.97-.517-1.486-.13-.259-.194-.518-.259-.711-.065-.259-.453-.518-.453-.582.13-.646 3.038-9.437 2.65-9.437-1.228 0-1.874.193-3.685.517-.774.129-3.23.516-3.23.516M76.011 125.791c3.685.517 4.33 2.262 4.33 3.749 0 2.779-2.649 4.589-4.524 6.14-1.615 1.229-4.201 4.072-5.816 5.171v.13c2.585.388 7.691-1.293 10.664-.453l.646 1.357c-.452.646 0 .646.388 2.068.323 1.357-.581.776-1.099.841-5.623.259-13.121.904-14.479.775-1.357-.13-1.939-2.521-2.65-3.426 0-.193 0-.452.065-.518 5.041-5.041 10.019-8.338 12.798-11.698 0 0 .323-.711-1.034-.841-1.357-.064-4.267.776-5.559 2.327 0 0-.194.323-.712.193-.193-.063-.193-.646-.322-.646-.646 0-.905-.711-.905-.711.13-3.295 5.623-4.782 8.209-4.458M15.641 122.042c0 .259-.258 1.681-.388 1.874-.129.259-.582.582-.84.712-1.228.775-2.585 1.163-3.942 1.744-1.164.582-2.263 1.164-3.491 2.198-.258.388-.646 1.422-.323 1.81.194.13.905.194 1.164.13.388-.065 1.292-.389 1.681-.518.711-.194 1.228-.388 1.939-.646.323.064.582.194.84.323.388.194.84.323 1.099.582.84.775.84 1.745.711 2.779-.84.711-2.521 1.486-3.49 2.068-2.068 1.099-3.231 1.81-4.848 3.749-.711.904-.388 1.551-.388 1.551.064.064.194.646.517.711 1.099.193 3.62-1.099 4.912-1.034 1.099.517 1.551 1.875 2.004 2.844-.065 1.422-4.524 2.327-5.559 2.586-.646.193-1.357.452-2.262.452-1.422 0-2.974-.904-3.426-1.163-.259-.194-.388-.453-.582-.711-1.228-1.552-1.099-2.909-.646-4.654.13-.388.194-.84.324-1.228.129-.389 2.004-3.167 2.391-3.361l.065-.517-.452-.194c-1.681-.323-1.358-3.619-1.164-4.719.064-.452 1.745-3.167 2.391-3.36.194-.453.646-.97 1.034-1.293.776-.841 7.563-3.167 9.178-3.942l.517.064c.194.193.453.581.517.84.129.128.323.258.517.323M53.388 131.866c-.388.065-.776.13-1.228.194-.84.064-1.681.194-2.327.259h-.388l-.129.258c-1.034 1.681-2.585 4.46-2.585 5.43 0 0-.194 1.163.064 1.875.323.646 1.422.517 1.422.517 3.425-.97 8.402-3.103 8.596-6.722 0-.518-.065-.776-.259-1.034-.646-.711-2.262-.776-2.262-.776-.257-.066-.581-.001-.904-.001m7.562 3.361c0 .13-.129.646-.452 1.229-.259.452-.582.775-.969 1.356-.388.518-.776 1.1-1.099 1.487 0 0-.905 1.034-1.228 2.068a2.17 2.17 0 0 1-.582 1.034c-1.939 2.068-6.141 3.037-8.144 2.908-4.266-.193-5.494-5.3-5.365-7.756 0-.646.452-1.616.905-2.521 2.521-5.106 4.589-7.175 8.791-6.916 2.132.066 8.273 4.655 8.143 7.111M43.757 128.893c.194.193.453.517.776.84.258.259.582.582 1.034.97l-.064.582c-1.229.259-2.715.581-4.072 1.099-1.487.517-3.038 1.034-3.684 2.392-.453.97-.711 2.262-.84 3.361-.129 1.033-.129 2.197-.129 2.585 0 .259 0 .581.064.84 0 .259.065.582.129.841.064.323.129.581.194.84s.065.452.065.582c-.065.323-1.099 1.293-1.616 1.293-1.358-.13-2.133-1.681-2.457-4.008-.258-2.197-.129-4.46-.129-4.912.064-.518.129-1.745.258-3.038.129-.582.258-1.163.388-1.681.194-.452.323-.711.453-.84.711-.194 2.392-.775 4.136-1.293 1.875-.582 3.62-1.099 4.266-1.034s.906.193 1.228.581M20.618 139.364c.064.064.194.129.517.194h.388c1.034.064 1.875-.646 2.457-1.422.646-.841 1.099-1.939 1.486-2.974.646-1.939 1.034-4.008 1.163-4.848h.388c.905.064 3.038 1.486 3.038 1.616.065.323.194.581.323.711.064.129.646.711.646.775 0 0-.582 4.783-.388 7.627 0 .194-.711.905-1.034 1.228-.517.518-1.229 1.1-1.745 1.487-.194-.065-.97-1.229-1.229-1.164-.258.065-2.327 1.681-2.714 1.681-.84 0-2.973.388-4.589-.388-1.099-.517-1.875-.97-2.392-1.938-1.292-2.263-1.81-6.271-1.616-7.046.129-.517.905-3.555 1.939-5.752.323.193.646.322.969.517.517.259 1.099.452 1.551.775 1.034.518 1.357 1.034 1.293 1.811 0 .322-.259 1.356-.582 2.521-.129.582-.453 2.585-.453 2.844 0 .452.065.775.194 1.034.002 0 .325.711.39.711"/><path d="M89.52 131.543c-.323.063-.711.129-1.099.193-.711.194-.776.388-1.357.452l-.323.065-.13.258c-.84 1.681-2.779 4.46-2.714 5.365 0 0-.194 1.099.129 1.745.323.582 1.228.388 1.228.388 3.038-1.229 7.369-3.685 7.369-7.11 0-.452-.065-.711-.259-.969-.582-.582-2.004-.518-2.004-.518a4 4 0 0 0-.84.131m6.657 1.874c0 .064-.064.388-.259.905-.129.517-.388 1.099-.646 1.68a18 18 0 0 0-.776 1.616l-.323.582-.064.193c-.064.064-.064.129-.064.194-.13.259-.194.711-.323 1.163-.13.453-.259.775-.452 1.034-1.357 2.263-4.978 3.813-6.723 4.008-3.749.452-5.494-4.072-5.688-6.464-.064-.582.193-1.551.452-2.456 1.551-5.171 3.167-7.239 6.787-7.886 2.649-.515 7.885 3.04 8.079 5.431M104.127 131.543c-.323.063-.711.129-1.099.193-.711.194-.776.388-1.357.452l-.323.065-.13.258c-.84 1.681-2.778 4.46-2.778 5.365 0 0-.13 1.099.193 1.745.323.582 1.229.388 1.229.388 3.038-1.229 7.368-3.685 7.368-7.11 0-.452-.13-.711-.259-.969-.646-.582-2.068-.518-2.068-.518-.194.002-.517.066-.776.131m6.657 1.874c0 .064-.064.388-.259.905-.193.517-.388 1.099-.711 1.68-.259.582-.517 1.164-.711 1.616l-.323.582-.064.193c-.064.064-.064.129-.064.194-.129.259-.259.711-.323 1.163-.129.453-.259.775-.452 1.034-1.357 2.263-4.977 3.813-6.723 4.008-3.749.452-5.494-4.072-5.752-6.464 0-.582.193-1.551.517-2.456 1.552-5.171 3.168-7.239 6.787-7.886 2.648-.515 7.885 3.04 8.078 5.431M7.626 33.879c.064.129 0 .323-.064.453a.78.78 0 0 1-.453.452c-.259.065-.453.065-.711-.064-.258-.13-.388-.26-.452-.453a.59.59 0 0 1 0-.646c.064-.129.129-.259.259-.324.129-.129.388-.193.582-.064l-.064.194H6.4a.5.5 0 0 0-.259.258c-.064.194-.064.388.065.517.064.129.194.194.323.258.129.065.323.065.452.065.194-.065.323-.129.388-.323.064-.064.064-.194 0-.258 0-.129-.065-.194-.129-.259l.064-.258c.193.129.258.258.322.452m-2.132.581c.129.323.388.582.711.711.323.194.646.194.97.065.388-.129.581-.323.775-.646.129-.323.129-.711.064-1.034a1.28 1.28 0 0 0-.711-.711c-.323-.194-.646-.194-1.034-.064-.323.129-.582.323-.711.646a1.17 1.17 0 0 0-.064 1.033m2.714-.969c.129.388.129.775-.064 1.164-.194.388-.453.646-.905.775-.388.129-.775.129-1.164-.064-.388-.129-.646-.453-.775-.84-.13-.388-.13-.776.064-1.164s.452-.646.84-.776c.388-.129.775-.129 1.164.065.387.129.646.453.84.84M8.919 31.617a1.3 1.3 0 0 1-.194-.711v-.97c-.065-.129-.129-.258-.258-.323-.194-.064-.323-.129-.453-.064-.129 0-.259.129-.323.259-.129.258-.129.452-.064.646a1 1 0 0 0 .388.259l-.195.322a1.2 1.2 0 0 1-.517-.453c-.129-.259-.129-.582.065-.905s.387-.517.646-.517c.194-.064.453 0 .646.064a1 1 0 0 1 .388.517c.064.129.064.388.064.646v.7110000000000001c.065.194.129.323.194.453l.84-1.422.324.193-1.035 1.746c-.193-.128-.387-.322-.516-.451M9.565 27.092c.258.064.582.194.905.388.387.259.646.453.775.711a.99.99 0 0 1 0 1.034c-.194.323-.453.453-.84.388q-.388 0-.97-.388c-.258-.129-.517-.323-.646-.582-.323-.388-.323-.711-.13-1.099.26-.322.519-.452.906-.452m1.422 1.422c-.064-.194-.323-.388-.71-.646a2.2 2.2 0 0 0-.776-.388c-.194-.064-.388.065-.517.259a.49.49 0 0 0 0 .582c.129.194.323.388.711.582.194.194.452.258.646.323.258.064.517 0 .646-.194.065-.13.065-.324 0-.518M10.923 25.218c.259.064.582.193.905.452.388.194.582.453.776.711a.88.88 0 0 1-.065 1.034c-.194.258-.452.388-.84.388a3.1 3.1 0 0 1-.97-.452c-.258-.194-.517-.388-.646-.582-.259-.388-.259-.775-.065-1.099.259-.323.517-.452.905-.452m1.422 1.487c-.064-.194-.323-.453-.711-.711a2.2 2.2 0 0 0-.776-.388c-.194-.064-.387 0-.517.194a.49.49 0 0 0 0 .582c.064.194.323.452.646.646.259.194.453.323.646.323.259.129.517.064.646-.129.13-.194.13-.324.066-.517M12.732 25.735c-.129-.194-.129-.452-.129-.775l.064-.453c.064-.194.064-.323 0-.453q0-.193-.194-.388c-.129-.064-.259-.129-.388-.129-.194.065-.323.129-.388.259-.194.194-.194.388-.129.582a.78.78 0 0 0 .324.323l-.259.323a1 1 0 0 1-.388-.517c-.129-.258-.064-.582.194-.905.194-.259.388-.453.646-.453s.452.065.646.194.259.323.323.582v.646l-.064.323a.41.41 0 0 0 0 .388c0 .129.064.323.129.452l.97-1.357.323.259-1.228 1.616c-.258-.194-.387-.323-.452-.517M13.702 20.887l1.357 1.357c.129.129.323.258.452.258.259.065.453 0 .711-.193.194-.259.323-.518.194-.776 0-.129-.129-.259-.259-.388L14.8 19.788l.323-.323 1.164 1.228c.323.258.452.517.517.711.129.387 0 .775-.323 1.163-.388.323-.775.453-1.164.323-.194-.064-.452-.194-.711-.517l-1.228-1.164zM15.706 18.819l1.68-1.422.259.258-1.357 1.228.581.647 1.293-1.099.194.258-1.228 1.164.646.776 1.422-1.228.194.258-1.681 1.487zM18.033 16.815l1.68-1.293.194.324-1.293 1.034.517.711 1.228-.905.194.258-1.163.97.84 1.099-.323.258zM22.298 15.846l-1.163-.84.388 1.357zm-1.615-1.099.388-.258 2.65 1.81-.323.258-.775-.517-1.034.711.323.905-.388.259zM25.013 11.967l.194.259-.905.582 1.552 2.262-.388.194-1.487-2.198-.84.582-.194-.323zM25.271 11.58l.453-.324 2.133 1.746-.646-2.65.517-.323 1.616 2.585-.323.258-.969-1.551c0-.065-.064-.129-.129-.259-.064-.129-.194-.258-.258-.388l.646 2.65-.388.194-2.068-1.746v.129a.9.9 0 0 1 .194.258c.129.13.194.194.194.259l.97 1.551-.323.194z"/><path fill="#F37121" d="M24.755 18.948c3.878-2.068 3.684-1.034 6.398-2.456 13.251-6.141 24.174 4.459 24.174 4.459s-6.205-2.649-11.117-2.456c-14.155.452-20.748 8.855-21.395 9.76-5.365 7.433-7.626 14.607-6.657 22.622 1.034 7.11 3.103 12.927 8.726 19.197 0 0 3.749 6.27 12.604 10.858 4.913 2.521 16.482 8.984 23.333 9.954 2.456.064 3.103.194 4.718.775.194-.129.582-.452.582-.711 2.456.841 12.475 2.715 14.996 3.038.775-6.334 3.425-11.569 8.596-18.809 1.293-1.746 2.65-3.943 3.038-4.654.064-.453 3.297-4.137 3.297-4.137 2.649-3.102 3.878-5.106 5.623-8.79 2.585-5.559 2.649-10.212 3.813-15.254.646-4.137-1.099-8.661-2.909-12.733.259-.969-.323-1.874-.646-2.714-2.457-6.528-21.782-20.295-41.496-6.916 13.896-18.033 34.968-6.205 34.902-6.334 9.438 4.719 14.544 14.479 14.479 25.531l-.193 4.589-.323.323c-.518 2.327-.13 3.555-.775 5.817-.13.194-.13-.323-.194-.193-1.099 3.167-2.068 6.334-3.942 9.372-.13.905.129 1.875-.323 2.78-.452.453-.97.646-1.422 1.034L93.27 76.603c.388.129-13.186 18.55-1.229 25.401.194.259-.646.582-.97.582-8.209-.452-26.823-3.231-32.511-5.559v-.582c-1.034-.582-1.422-1.486-2.521-1.681-2.327 0-3.813-.193-5.946-.97l-.969.646s-1.293-.517-2.844-1.163c-1.293-.452-13.509-6.334-17.387-10.147 0 0-7.175-6.981-10.212-8.985-3.103-3.425-5.882-11.311-5.882-11.311-.129-.775-4.072-7.303-4.072-10.406 0-2.521-1.616-.388-.84-3.103.646-2.392 3.361-14.802 5.106-16.417 0 0 3.103-4.589 5.494-6.916 1.422-1.357 3.297-4.396 5.495-5.753z"/><path fill="#FDB827" d="M95.272 57.471c4.589-15.835-5.495-30.572-12.863-35.161-4.33-2.715-11.698-8.145-25.401-6.658-10.148 1.034-18.356 8.015-21.2 10.988-5.106 5.494-7.692 10.858-8.791 18.292-.84 5.559.194 12.41 2.068 17.387 1.292 3.36 1.939 4.524 3.49 6.657-.258.194-.129.258-.453 0-2.133-2.973-2.392-3.878-3.943-7.498-.517-1.163-.517-1.681-.517-1.681s-.776-.194-.905.065c0 .065 0 .711.711 2.457 1.164 2.973 3.167 7.303 6.464 10.987.323.388-.129.518-.323.129-4.266-4.524-6.205-10.147-6.981-12.345-.388-1.034-.775-2.262-.775-2.456 0 0-1.163-.388-1.034.129.582 2.133 1.745 5.042 3.749 9.049 1.357 2.391 2.392 4.589 7.11 9.049 7.368 6.98 22.041 10.535 35.808 6.011 12.927-4.201 20.102-12.926 23.786-25.401"/><path fill="#FFF" d="M72.326 34.719c-.581.711-.97 2.133-1.099 2.973s1.81 3.232 3.619 5.494c1.423 1.81 2.068 3.685 3.038 4.783.841.84 1.293 2.844-.517 3.426-2.327.775-2.068-.388-2.068-.388l-.776-2.327s-1.68-3.943-2.326-5.171-5.042-5.236-4.719-6.722c.129-.388.259-.84.453-1.228-.776.84-1.552 1.487-2.004 2.133-.259.323-.646.453-1.164.582-2.392.582-5.17-.388-5.623.065-2.65 2.456 2.133.905 6.593 3.491.775.452 2.909 4.589 4.008 7.626.388 1.228-1.616-.84-1.681-.259-.258 14.931-11.052 8.403-13.573 11.311-1.875 2.909 8.984 1.811 7.434 3.491-2.586 2.714-5.559-.582-8.597.84-2.65 1.293-1.875 4.459-5.559 5.042-1.551-.582-3.942-1.939-7.239-.97-1.81-.84 2.714-1.874.84-3.103-.582-.388-6.076-.646-6.593-1.099-4.396-3.943-5.106-8.597-4.202-11.44.065-.453 1.164-3.167.194-4.718-.582-2.004-.905-5.042-.065-7.045.259-.582-.129 2.456 1.939 5.688.517 1.292 2.069 3.426 2.392 2.779.129-.129 4.654.646 7.239.129 1.292-.259 2.521-.453 3.038-1.357.258-.517 1.099-2.392-.453-2.65-1.487-.258-1.681 1.035-2.262 1.164-3.232.259-5.753.194-6.334-.259-1.228-1.421-4.072-6.722-3.038-9.889.969-2.973 3.361-5.946 5.882-8.079.711-.517 4.072-.775 4.718-1.034 1.163-1.357.258-1.939-1.164-1.616-.258-.064 1.034-.84 1.228-1.099 4.718-2.844 10.988-3.232 12.798-2.909 3.555.711-2.715 2.779-.452 4.524 2.068 1.357 5.558-5.559 12.41-1.616 2.197 1.228 1.874 3.942 1.292 6.398-.129.517-.258.97-.452 1.357.194-.194.323-.323.518-.388.841-.515 2.909 1.359 2.327 2.07m-3.038 26.759s.194-1.939.582-2.844c.323-.905 2.521-4.007 3.167-4.848.646-.905 2.327-1.681 2.327-1.681s3.361.129 4.395.776c1.035.646 1.1.97.712 2.262-.259 1.034-1.164.711-1.81.452-.518-.193-.582.065-3.297 1.616s-2.327 2.198-2.974 4.007c-.646 1.81 0 2.133-.775 2.262-2.52.325-2.327-2.002-2.327-2.002"/><path fill="#F37121" d="M54.487 21.017c-2.65.388-5.429 1.099-8.273 2.133a28 28 0 0 0-2.974 1.745c.065-.194-.064-.323 0-.452.259-.453.453-.776.517-1.034.129-.259.194-.453.129-.711.453-.517 1.229-1.099 2.004-1.551l.129-.065c.646-1.034 1.163-1.228 1.163-1.228s17.452-8.726 33.481 3.167c3.103 2.327 5.753 5.041 8.273 9.113 3.942 6.334 4.912 11.893 5.042 18.421-.646 9.501-5.882 21.782-17.646 27.469-4.913 2.392-8.08 3.555-13.574 4.202-2.327.259-3.749.323-6.14.194-4.719-.194-6.981-.453-11.893-2.521-1.81-.775-4.331-2.391-6.593-4.524 0 0-.129-.259.97.064.064 0 .129-.064.129-.129-1.939-1.422-5.042-5.235-5.042-5.235-.582-1.164-1.551-2.327-2.327-3.942-1.034-2.068-2.133-5.559-2.133-5.559.129-.129.453-.065.453-.065-.453-1.486-.517-2.133-.775-3.555.194-.259.258-.388.84-.129.194.905.582 2.068.97 3.167.194.064.388 0 .711-.129.388-1.681 0-2.456.065-3.749.064-1.292.517-2.068.84-3.426.194-.711.259-1.357.582-1.81l-.259-.582c-.323-.453-.452-1.228-.452-1.68.194-.97 1.422-1.552 2.198-.582l1.034 1.357c.517-.064.517.129 1.034.064.453-.064 1.681-.453 2.844-.517 1.228-.129 2.068.064 3.038.129l1.293-1.487c1.164-2.133 3.49-.905 2.392 1.293l-.841 1.163c.194.194.388.453.582.711a117 117 0 0 1 5.235 9.243c.129-.064 1.81.582 1.81.582 2.521.453 2.779 2.327.323 2.65l-2.068-.388c-.193.259-.323.518-.517.775l-.646.776-.711.776c-.453.517-.905.97-1.228 1.551l-.905.905-.905.969c-.194.259-.258.323-.452.518.064.129.064.387.129.517l.517 1.099c1.422 1.939-.646 3.749-2.068 1.81 0 0-1.486-2.198-1.551-2.391-.194-.129-.453-.518-.711-.647-.388-.258-1.616 0-2.003-.194-.259-.064-.323-.388-.388-.582 3.167-.775 6.981-1.357 8.532-5.882.841-3.555-.646-6.593-3.425-9.114-.388-.323-2.779-1.81-3.426-1.874l-1.616.129c-.323 0-.646-.064-.905-.129 0 0-1.164.064-1.875.323s-1.164.388-1.681.905c-.452.517-.582.97-.776 1.551-.387.905-.582 2.327-.582 2.327.064.97.064 1.357.194 1.681l.258 1.099c.129.775.711 1.487 1.357 2.327.517.646.711 1.164 1.422 1.551 1.164.711 2.133.453 3.49.194.775-.129 1.422-.194 1.939-.646.323-.194 1.487-1.486 1.487-1.486.582-.97.258-1.81-.194-2.456-.194-.324-.646-1.357-1.422-1.81-.84-.517-1.681-.582-2.521-.323-.582.323-.582 1.357-.517 1.616.129.453 1.551.518 1.81.582.452.129.775.388.711.97.064.387-1.164 1.163-1.164 1.163-.97.194-1.551.064-2.456-.323-.323-.129-.582-.129-.776-.388-.323-.582-.388-.711-.517-.84-.517-.776-.453-1.551-.258-2.327.194-.841.582-1.616.711-2.392.517-.582 1.164-.905 1.745-.776.711.194.711 0 1.163.065.97.129 1.552.452 2.392.775.776.324 1.487.775 1.939 1.616.969 1.357 1.745 2.909 1.292 4.783-.194.517-.388.84-.582 1.228l-.323.646c-.129.194-.258.388-.323.582-1.034 1.292-2.262 1.874-4.007 2.262-.582.194-.905.194-1.487.259-.776 0-1.357-.065-2.068-.129-1.293-.194-2.65-1.422-3.103-1.68-.324-.129-.776-.065-1.293-.323 3.103 5.041 7.691 9.566 13.638 12.216-.194-.323-.388-.646-.453-1.034-.129-1.228 1.681-.905 2.068-.194.194.323 1.422 2.133 2.456 2.715.582.129 1.099.258 1.616.323 1.746.388 5.817.452 7.175.388.323-.065.452.646 1.486.388.582-.129 1.81-.582 3.038-1.034.646-.517 1.486-1.422 1.81-1.875.453-.582.905-1.357 1.811-.969.581.258.775.323.322.969a5 5 0 0 1-.193.518c2.521-.711 4.524-1.358 7.368-3.813 1.422-1.229 2.197-1.939 3.361-3.426 1.616-2.068 2.779-4.847 3.296-5.881.259-.582.518-1.164.646-1.681.129-.776.259-1.681.323-2.65 0-.97-.064-2.004-.129-2.457-.065-.517-.388-2.003-.841-2.391-1.422-1.357-5.752-1.746-5.752-1.746l-.646.388s-.841.517-1.034.582c-1.745 1.164-2.974 2.973-3.426 4.201-.452 1.164-1.164 2.263-1.551 3.426-.194.259-.13.388-.194.646-.259 1.357.646 2.844.775 3.49l.259.969c.064.259.904 1.939 2.068 2.004.259.064.775-.064.775-.064.452 0 .97-.129 1.293-.517 1.034-.776 1.163-.905 1.292-1.034.712-.97 1.552-1.939 2.134-2.973.646-1.035 1.034-2.198.711-3.555-.129-.129-.323-.388-.388-.582-.13-.258-.194-.517-.259-.775-.194-.517-.452-.969-1.357-.969-1.163-.129-2.004.84-2.65 1.745-.129.582-.517 2.198-.129 2.392.517.452 1.099-1.357 1.486-1.487h.776c.517.646.711.775.711.775.064.453.129.841.064 1.228-.388 1.035-.582 1.293-1.034 2.004-.194.259-.452.646-.452.646l-.776.646c-.259.129-.452-.129-.581.323l-.646-.258c-.323.065-.389-.323-.646-.388-1.681-2.262-1.552-4.718-.323-7.109.194-.259.388-.453.581-.711l.582-.776c.388-.517 2.068-1.81 2.521-1.81 0 0 .517 0 .84-.064.259-.064.452-.064.711-.194 1.486.064 2.456 1.228 3.038 2.521.517 2.068.193 4.912-.775 6.657-.776 1.551-2.586 3.813-2.586 3.813S75.49 69.3 75.297 69.43l-.841.323c-.388.259-.904.452-1.228.776-.13.064-.323.064-.452.129-.065.129-.13.194-.194.323l-.97 1.099-.388.388c-1.228 2.004-3.878 1.293-2.65-.711l.775-.97c-.129-.129-.258-.258-.387-.453a19 19 0 0 0-1.229-3.167c-.452-1.034-.97-2.133-1.422-3.167l-.259-.258-1.616-.13c-2.392-.194-2.198-2.391.129-2.391l2.521-.323.129-.064c.13-.194.323-.453.453-.711.388-.711.904-1.422 1.422-2.133s1.099-1.422 1.616-2.133c1.034-1.292 2.003-2.521 2.714-3.943-.259-.194-.452-.452-.646-.775l-.323-1.164c-1.229-2.133 1.099-3.426 2.326-1.292l.776 1.551c.322 0 .646 0 .969.129h.711c1.939.517 3.49.84 5.106.905l.452-.453c1.229-2.068 3.685-.84 2.456 1.229l-.388.582s.582 2.391.646 3.942c.064.646.064 1.745.064 1.745l-.064 2.262c.388-.84 1.034-3.103.97-3.49.193-.194.646-4.137.711-4.396 0 0 .194-.775.259-2.197l-.13-2.521-.064-.388c-.193-.582-1.099-.969-1.293-1.81 0-.259.646-1.422.711-1.551-.193-.905-.452-1.81-.646-2.521-.13-.452-.323-.905-.582-1.616-1.099-2.262-2.262-4.266-3.619-6.076-.259-.259-.453-.517-.711-.776-1.487-1.551-4.783-4.201-6.076-4.977-1.293-.84-2.585-1.551-4.008-2.133-.322.323-.258.582-.193.775l.193.582c.065.065.13.129.13.259l1.551.258c1.487.646 2.65 2.973.711 2.456-1.228-.323-1.034-.064-2.133-.388-.323 1.292-.904 2.844-1.292 3.555-.323.711-.971 1.099-1.293 1.745-.259.453-.259.646-.453 1.034.13.13 1.164 2.457 1.164 2.457.193.388-.518.775-.711 1.163-.841.582-1.164 1.551-2.133.194-.711-1.034-.453-1.616-1.035-2.327h-.123c-1.099 0-2.133-.194-3.167-.388-1.034-.129-2.133-.323-3.296-.258-.323-.13-.582-.194-.905-.194h-1.68c-.323-.065-.646-.129-.905-.194l-.582.194h-.388l-1.228 1.357c-1.163 2.133-4.072 1.034-2.909-1.099l1.228-1.616c-.969-2.65-2.004-5.171-2.909-7.756l-1.034.129c-1.681.776-2.909-1.421-1.228-2.197l2.844-.775c.84-.711 1.81-1.293 2.715-1.81.969-.582 1.875-1.034 2.779-1.616-.064-.194-.193-.453-.258-.646m12.345 1.421c0-.064.064-.129.194-.129.388.064 1.357.193 2.392.517 3.167 1.034 6.205 2.521 9.049 4.653 1.099.776 2.133 1.616 3.167 2.715l3.038 3.749c.064-.323-.194-.97-.582-1.616-3.942-5.429-10.083-9.631-17.71-11.117l-1.163-.194s-1.487-.065-2.457 0c-1.551.129-2.521.323-3.942.969-2.069.905-3.491 1.551-4.589 3.555-.453.905-.711 1.551-.776 2.585-.064 1.228 0 2.327.711 3.038.388 2.327 2.198 3.49 4.524 4.266 1.293.453 3.555.323 3.555.323 2.198.711 3.942-.582 5.494-2.327.646-.711.84-1.357 1.292-2.133.259-1.292-.322-2.197-.646-3.296-.582-2.133-3.167-2.198-5.042-2.65-1.616.388-3.296 1.163-4.072 2.779-.064.452-.323.97-.064 1.422.129-.065.193 1.034.711 1.357.194.064.323.129.452.194.582.258.84.711 1.422.84.905.258 2.521-.646 2.327-.905-.711-.776-1.357-.453-1.357-.453-.97-.452-.194-.323-.84-.84.129-.388-.776-1.164-.518-1.486.388-.453.646-1.099 1.357-1.099 1.099.194 2.198 0 2.844 1.099.517.905 1.357 2.714 1.099 3.49-.323.84-1.099 1.939-2.068 2.003-2.327.517-3.555.453-5.429-.453-2.133-.84-2.65-2.521-2.78-4.653-.064-1.164-.064-1.939.518-2.974.323-.517.711-.84 1.099-1.163.194-.064.905-.711 1.551-1.034 1.551-.84 2.197-1.357 4.331-1.228.323 0 .646-.064 1.099-.064.646.002 1.227.132 1.809.26m-26.371 6.206c-1.292-.711.582-2.909 2.068-1.616.776.711-.646 2.326-2.068 1.616m9.954 12.345c1.81 1.164-.517 4.524-2.521 2.392-1.163-1.164.711-3.62 2.521-2.392m9.76 20.942c.775 1.486-2.068 2.521-2.65.388-.323-1.229 1.874-1.875 2.65-.388M33.739 44.479c-.97 1.357-3.167-.969-1.552-2.392.906-.775 2.586 1.035 1.552 2.392m38.717.582c-.194 1.874-3.813.84-2.974-1.422.453-1.293 3.167-.453 2.974 1.422"/><path fill="#00AB66" d="M115.697 27.286c-.13-.323-.13-.776-.13-1.228 0-.646 0-1.357.388-2.068.259-.84 1.681-1.163 2.65-1.034 1.099.129 2.004.84 2.326 1.487.323.776.389 1.487.194 2.262l-.064.258c-.064.194-.194.388-.323.582a2.85 2.85 0 0 1-.775.969c-.259.194-1.681.969-2.069.711a.5.5 0 0 1-.322.129c-.13 0-.194-.065-.259-.129-.194.064-.453 0-.582 0-.581-.129-1.228-.84-1.228-1.034 0-.259.388-.259.258-.518-.063-.129-.193-.194-.193-.258zM83.831 2.79c-.84-.84.388-1.681 1.293-2.198.129-.065.194-.065-.064 0a3.5 3.5 0 0 0-1.357.84c-.194.194-.388.582-.388.905.064.323.259.517.323.646h-.064a.5.5 0 0 1-.194-.194c-.064-.065-.193-.259-.193-.582 0-.258.129-.517.322-.775.389-.388.905-.711 1.552-1.034 1.163-.711 3.296-.517 4.201.969.452.711.452 1.616.13 2.262-.259.711-.776 1.293-1.487 1.681-.064.064-.646.323-.904.388-.453.064-.841 0-1.229-.065-.259-.064-.323-.064-.582-.194-.129.194-.84-.646-.904-.646-.065-.065-.323-.453-.323-.518-.259-.388-.259-.905-.259-1.292 0 0 .129 0 .194-.129.064-.064.129-.258.064-.258-.066.064-.131.194-.131.194M104.838 7.443c.193-.905 1.422-.582 2.068-.323.258.064.258.064 0-.129-.388-.194-.582-.259-1.164-.388-.258-.065-.581-.065-.84.194-.259.194-.323.582-.388.517v-.259c.064-.129.194-.258.388-.452.194-.129.518-.194.775-.194.582.064 1.164.388 1.681.711 1.293.582 2.263 2.392 1.616 3.942a2.53 2.53 0 0 1-1.811 1.358c-.711.129-1.486.064-2.197-.324-.064 0-.129-.064-.258-.064-.194-.129-.323-.259-.518-.452-.323-.259-.517-.646-.646-1.035-.064-.258-.193-.258-.193-.517-.194 0 .064-1.099.064-1.164s.194-.452.259-.517c.129-.453.581-.711.904-.97 0 0 0 .194.13.259.194.066.13-.064.13-.193M119.122 46.095c.97-.582 1.422.84 1.616 1.81.064.129.064.194.064-.064-.064-.388-.129-.97-.452-1.487-.13-.259-.388-.517-.711-.582-.453-.129-.582.064-.646 0 0-.064.452-.259.775-.129.259.065.518.258.711.452.259.518.388 1.099.452 1.81.389 1.292-.322 3.167-2.003 3.685-.776.193-1.616-.065-2.134-.518-.581-.452-.969-1.034-1.163-1.875-.064-.064-.064-.129-.064-.194-.064-.258-.064-.452-.064-.711q.096-.678.388-1.163c.129-.194.129-.259.323-.453-.13-.129.84-.646.904-.711h.194a.7.7 0 0 1 .323-.129c.452-.129 1.099-.064 1.293.064.194.066.001.26.194.195M63.924 6.732c-.517-.711.452-1.422 1.099-1.745.259-.129.194-.193-.064-.064a2.8 2.8 0 0 0-1.034.582c-.259.194-.453.452-.453.775s.259.646.194.646c-.129-.065-.129-.065-.194-.129a1.3 1.3 0 0 1-.129-.582c.065-.259.194-.582.388-.776.452-.388.969-.582 1.616-.84 1.229-.582 3.231-.194 4.072 1.357.323.775.193 1.616-.13 2.197a3.92 3.92 0 0 1-1.681 1.552c-.064 0-.129.064-.193.064-.259.064-.452.129-.711.129-.388.065-.84 0-1.164-.129-.258-.129-.322-.064-.581-.258-.064.194-.776-.711-.84-.711 0-.065-.194-.453-.259-.518-.194-.452-.129-.905-.129-1.357 0 0 .194.129.258.064.193-.063.064-.128-.065-.257M108.522 70.398c0-.388.064-.711.193-1.164.13-.582.323-1.228.84-1.81.453-.646 1.811-.581 2.586-.129.97.453 1.552 1.357 1.681 2.133s0 1.487-.323 2.133l-.13.194c-.129.194-.258.323-.388.517-.258.258-.581.517-.969.646-.259.129-.453.193-.518.323-.064.259-1.357.064-1.745-.258-.064 0-.194-.129-.259-.194-.129 0-.323-.129-.452-.194-.517-.258-.775-1.292-.775-1.292s-.129-.194 0-.258c.129 0 .064-.517.129-.582.001-.001.065-.001.13-.065M95.014 87.074c.193-.259.259-.388.517-.711.388-.517.84-1.034 1.552-1.487.711-.517 2.262-.451 3.037-.063.97.388 1.357 1.163 1.293 1.745-.129.646-.517 1.228-1.099 1.81l-.194.129c-.193.13-.388.259-.646.388-.387.194-.775.453-1.292.518-.323.064-.388.194-.711.258-.646.065-1.357-.063-1.616-.388-.064-.064-.194.194-.323.13-.064 0-.129-.13-.194-.13-.129-.064-.388-.129-.452-.193-.517-.259-.129-1.681-.064-1.681z"/></g></svg>