<svg xmlns="http://www.w3.org/2000/svg" viewBox="0.74 1.28 135.62 23.24"><defs><style>.cls-2{fill:#000}</style></defs><g id="Layer_1"><path d="m33.37 22.37-.65-1.09V3.24h4.03l.79 1.32-.03 13.64h7.45l.7 1.23v2.93h-12.3ZM48.7 22.37l-.61-1.15V3.24h12.18l.63 1.21V7.4h-8.12v10.87h7.69l.67 1.19v2.9H48.7Zm4.73-9.91v-1.68h6.29l.7 1.19v2.79h-5.65l-1.34-2.31ZM123.92 22.37l-.61-1.15V3.24h12.18l.63 1.21V7.4H128v10.87h7.69l.67 1.19v2.9h-12.44Zm4.74-9.91v-1.68h6.29l.7 1.19v2.79H130l-1.34-2.31ZM63.9 22.37l-.91-1.57 5.62-17.56h6.52l5.8 17.59-.88 1.54h-3.67l-1.01-3.24h-3.78l-1.44-2.7.32-1.37h3.63l-1.79-5.68h-.84l-3.96 13h-3.6ZM91.65 22.77c-1.38 0-2.66-.23-3.83-.7a8.75 8.75 0 0 1-3.04-2.02 9.4 9.4 0 0 1-2.01-3.13c-.47-1.21-.71-2.56-.71-4.04s.24-2.83.73-4.04a8.55 8.55 0 0 1 2.13-3.12c.94-.87 2.09-1.54 3.46-2.01s2.93-.7 4.7-.7c.78 0 1.57.05 2.36.16s2.49.7 3.53 1.33l.04 4.8c-.66-.24-2.82-1.48-3.38-1.62s-1.07-.23-1.54-.29c-.47-.05-.91-.08-1.32-.08-1.02 0-1.89.17-2.6.52s-1.69.91-2.05 1.56-1.1 1.64-1.1 2.57v.16c0 .88-.02 1.95.2 2.63.26.82.89 1.82 1.4 2.19.5.37 1.37.97 2.02 1.11.86.17 1.32.35 2.59.27s1.35-.24 2.05-.49v-2.36h-2.75l-1.29-2.39-.02-1.48h7.84l.64 1.15v8.06c-.95.48-1.82.86-2.62 1.14s-1.62.49-2.46.6c-.84.12-1.83.18-2.95.18ZM111.57 22.64c-1.74 0-3.22-.33-4.46-1a6.7 6.7 0 0 1-2.85-2.88c-.67-1.25-1-2.77-1-4.55V3.28h4.21l.74 1.29-.06 9.79c0 1.74.62 2.44 1 2.91s.97 1 2.46 1c1.25 0 2.05-.51 2.6-1.15.76-.88.79-1.73.88-2.88l-.03-10.97h4.15l.74 1.21v9.73c0 1.78-.18 3.05-1 4.55s-1.62 2.21-2.87 2.88c-1.25.66-2.74 1-4.5 1ZM9.66 1.28h5.3l8.76 21.16-1.11 1.91h-5.3L8.6 3.2zM4.8 24.52c-.75 0-1.42-.19-2.03-.56s-1.1-.86-1.47-1.47-.56-1.28-.56-2.03.19-1.43.56-2.05q.555-.93 1.47-1.47c.61-.36 1.28-.54 2.03-.54s1.43.18 2.05.54q.93.54 1.47 1.47c.36.62.54 1.31.54 2.05s-.18 1.42-.54 2.03q-.54.915-1.47 1.47c-.62.37-1.31.56-2.05.56" class="cls-2"/></g></svg>