<svg xmlns="http://www.w3.org/2000/svg" xmlns:xlink="http://www.w3.org/1999/xlink" viewBox="0 0 274.19 364"><defs><linearGradient xlink:href="#a" id="d" x1="1340.736" x2="1365.51" y1="124.065" y2="124.065" gradientTransform="matrix(2.92024 0 0 2.92024 -3589.42 -79.675)" gradientUnits="userSpaceOnUse"/><linearGradient id="a" x1=".007" x2="1.09" y1="0" y2="0" gradientTransform="scale(51.14889)rotate(65.258 11.591 21.465)" gradientUnits="userSpaceOnUse"><stop offset="0" style="stop-color:#fdb827;stop-opacity:1"/><stop offset=".063" style="stop-color:#fdb827;stop-opacity:1"/><stop offset=".078" style="stop-color:#fdb827;stop-opacity:1"/><stop offset=".094" style="stop-color:#fdb727;stop-opacity:1"/><stop offset=".109" style="stop-color:#fdb727;stop-opacity:1"/><stop offset=".117" style="stop-color:#fdb626;stop-opacity:1"/><stop offset=".125" style="stop-color:#fdb526;stop-opacity:1"/><stop offset=".141" style="stop-color:#fdb526;stop-opacity:1"/><stop offset=".156" style="stop-color:#fcb526;stop-opacity:1"/><stop offset=".172" style="stop-color:#fcb526;stop-opacity:1"/><stop offset=".18" style="stop-color:#fcb526;stop-opacity:1"/><stop offset=".188" style="stop-color:#fcb426;stop-opacity:1"/><stop offset=".195" style="stop-color:#fcb325;stop-opacity:1"/><stop offset=".203" style="stop-color:#fcb325;stop-opacity:1"/><stop offset=".219" style="stop-color:#fcb225;stop-opacity:1"/><stop offset=".25" style="stop-color:#fcb225;stop-opacity:1"/><stop offset=".258" style="stop-color:#fcb126;stop-opacity:1"/><stop offset=".262" style="stop-color:#fcb125;stop-opacity:1"/><stop offset=".266" style="stop-color:#fcb025;stop-opacity:1"/><stop offset=".281" style="stop-color:#fcb024;stop-opacity:1"/><stop offset=".297" style="stop-color:#fcb024;stop-opacity:1"/><stop offset=".313" style="stop-color:#fcaf25;stop-opacity:1"/><stop offset=".328" style="stop-color:#fbaf25;stop-opacity:1"/><stop offset=".336" style="stop-color:#fbae24;stop-opacity:1"/><stop offset=".344" style="stop-color:#fbad24;stop-opacity:1"/><stop offset=".352" style="stop-color:#fbad24;stop-opacity:1"/><stop offset=".359" style="stop-color:#fbac24;stop-opacity:1"/><stop offset=".375" style="stop-color:#fbac24;stop-opacity:1"/><stop offset=".391" style="stop-color:#fbac23;stop-opacity:1"/><stop offset=".398" style="stop-color:#fbac23;stop-opacity:1"/><stop offset=".406" style="stop-color:#fbab23;stop-opacity:1"/><stop offset=".422" style="stop-color:#fbaa23;stop-opacity:1"/><stop offset=".438" style="stop-color:#fbaa23;stop-opacity:1"/><stop offset=".445" style="stop-color:#fba922;stop-opacity:1"/><stop offset=".453" style="stop-color:#fba922;stop-opacity:1"/><stop offset=".461" style="stop-color:#faa822;stop-opacity:1"/><stop offset=".469" style="stop-color:#faa822;stop-opacity:1"/><stop offset=".484" style="stop-color:#faa722;stop-opacity:1"/><stop offset=".5" style="stop-color:#faa722;stop-opacity:1"/><stop offset=".508" style="stop-color:#faa622;stop-opacity:1"/><stop offset=".516" style="stop-color:#faa622;stop-opacity:1"/><stop offset=".531" style="stop-color:#faa522;stop-opacity:1"/><stop offset=".547" style="stop-color:#faa522;stop-opacity:1"/><stop offset=".555" style="stop-color:#faa422;stop-opacity:1"/><stop offset=".563" style="stop-color:#faa321;stop-opacity:1"/><stop offset=".57" style="stop-color:#faa321;stop-opacity:1"/><stop offset=".578" style="stop-color:#faa221;stop-opacity:1"/><stop offset=".594" style="stop-color:#faa221;stop-opacity:1"/><stop offset=".602" style="stop-color:#faa221;stop-opacity:1"/><stop offset=".609" style="stop-color:#f9a120;stop-opacity:1"/><stop offset=".617" style="stop-color:#f9a120;stop-opacity:1"/><stop offset=".625" style="stop-color:#f9a020;stop-opacity:1"/><stop offset=".641" style="stop-color:#f99f21;stop-opacity:1"/><stop offset=".656" style="stop-color:#f99f21;stop-opacity:1"/><stop offset=".664" style="stop-color:#f99f21;stop-opacity:1"/><stop offset=".672" style="stop-color:#f99e20;stop-opacity:1"/><stop offset=".688" style="stop-color:#f99d20;stop-opacity:1"/><stop offset=".703" style="stop-color:#f99d20;stop-opacity:1"/><stop offset=".711" style="stop-color:#f99c1f;stop-opacity:1"/><stop offset=".719" style="stop-color:#f99c1f;stop-opacity:1"/><stop offset=".727" style="stop-color:#f99b1f;stop-opacity:1"/><stop offset=".734" style="stop-color:#f99b1f;stop-opacity:1"/><stop offset=".742" style="stop-color:#f89a20;stop-opacity:1"/><stop offset=".75" style="stop-color:#f89a20;stop-opacity:1"/><stop offset=".758" style="stop-color:#f89920;stop-opacity:1"/><stop offset=".766" style="stop-color:#f89920;stop-opacity:1"/><stop offset=".781" style="stop-color:#f8981f;stop-opacity:1"/><stop offset=".797" style="stop-color:#f8981f;stop-opacity:1"/><stop offset=".805" style="stop-color:#f8971f;stop-opacity:1"/><stop offset=".813" style="stop-color:#f8961f;stop-opacity:1"/><stop offset=".82" style="stop-color:#f8961f;stop-opacity:1"/><stop offset=".828" style="stop-color:#f8951f;stop-opacity:1"/><stop offset=".836" style="stop-color:#f8951f;stop-opacity:1"/><stop offset=".844" style="stop-color:#f7941f;stop-opacity:1"/><stop offset=".859" style="stop-color:#f7931e;stop-opacity:1"/><stop offset=".875" style="stop-color:#f7931e;stop-opacity:1"/><stop offset=".883" style="stop-color:#f7931e;stop-opacity:1"/><stop offset=".891" style="stop-color:#f7921e;stop-opacity:1"/><stop offset=".898" style="stop-color:#f7921e;stop-opacity:1"/><stop offset=".906" style="stop-color:#f7911e;stop-opacity:1"/><stop offset=".938" style="stop-color:#f7901e;stop-opacity:1"/><stop offset="1" style="stop-color:#f7901e;stop-opacity:1"/></linearGradient><linearGradient xlink:href="#b" id="e" x1="1276.734" x2="1307.531" y1="121.63" y2="121.63" gradientTransform="matrix(2.92024 0 0 2.92024 -3589.42 -79.675)" gradientUnits="userSpaceOnUse"/><linearGradient id="b" x1="-.007" x2="1.048" y1="0" y2="0" gradientTransform="scale(51.15108)rotate(-54.742 15.162 -22.693)" gradientUnits="userSpaceOnUse"><stop offset="0" style="stop-color:#fdb827;stop-opacity:1"/><stop offset=".063" style="stop-color:#fdb827;stop-opacity:1"/><stop offset=".094" style="stop-color:#fdb827;stop-opacity:1"/><stop offset=".109" style="stop-color:#fdb727;stop-opacity:1"/><stop offset=".125" style="stop-color:#fdb727;stop-opacity:1"/><stop offset=".133" style="stop-color:#fdb626;stop-opacity:1"/><stop offset=".141" style="stop-color:#fdb526;stop-opacity:1"/><stop offset=".156" style="stop-color:#fdb526;stop-opacity:1"/><stop offset=".172" style="stop-color:#fcb526;stop-opacity:1"/><stop offset=".188" style="stop-color:#fcb526;stop-opacity:1"/><stop offset=".195" style="stop-color:#fcb526;stop-opacity:1"/><stop offset=".203" style="stop-color:#fcb426;stop-opacity:1"/><stop offset=".211" style="stop-color:#fcb426;stop-opacity:1"/><stop offset=".219" style="stop-color:#fcb325;stop-opacity:1"/><stop offset=".25" style="stop-color:#fcb225;stop-opacity:1"/><stop offset=".266" style="stop-color:#fcb225;stop-opacity:1"/><stop offset=".273" style="stop-color:#fcb225;stop-opacity:1"/><stop offset=".281" style="stop-color:#fcb126;stop-opacity:1"/><stop offset=".285" style="stop-color:#fcb025;stop-opacity:1"/><stop offset=".289" style="stop-color:#fcb024;stop-opacity:1"/><stop offset=".297" style="stop-color:#fcb024;stop-opacity:1"/><stop offset=".313" style="stop-color:#fcb024;stop-opacity:1"/><stop offset=".328" style="stop-color:#fcaf25;stop-opacity:1"/><stop offset=".344" style="stop-color:#fbaf25;stop-opacity:1"/><stop offset=".352" style="stop-color:#fbae24;stop-opacity:1"/><stop offset=".359" style="stop-color:#fbae24;stop-opacity:1"/><stop offset=".367" style="stop-color:#fbad24;stop-opacity:1"/><stop offset=".375" style="stop-color:#fbad24;stop-opacity:1"/><stop offset=".406" style="stop-color:#fbac24;stop-opacity:1"/><stop offset=".422" style="stop-color:#fbac23;stop-opacity:1"/><stop offset=".43" style="stop-color:#fbab23;stop-opacity:1"/><stop offset=".438" style="stop-color:#fbab23;stop-opacity:1"/><stop offset=".453" style="stop-color:#fbaa23;stop-opacity:1"/><stop offset=".469" style="stop-color:#fbaa23;stop-opacity:1"/><stop offset=".477" style="stop-color:#fba922;stop-opacity:1"/><stop offset=".484" style="stop-color:#faa822;stop-opacity:1"/><stop offset=".492" style="stop-color:#faa822;stop-opacity:1"/><stop offset=".5" style="stop-color:#faa722;stop-opacity:1"/><stop offset=".516" style="stop-color:#faa722;stop-opacity:1"/><stop offset=".531" style="stop-color:#faa722;stop-opacity:1"/><stop offset=".539" style="stop-color:#faa622;stop-opacity:1"/><stop offset=".547" style="stop-color:#faa522;stop-opacity:1"/><stop offset=".563" style="stop-color:#faa522;stop-opacity:1"/><stop offset=".578" style="stop-color:#faa422;stop-opacity:1"/><stop offset=".586" style="stop-color:#faa422;stop-opacity:1"/><stop offset=".594" style="stop-color:#faa321;stop-opacity:1"/><stop offset=".609" style="stop-color:#faa221;stop-opacity:1"/><stop offset=".625" style="stop-color:#faa221;stop-opacity:1"/><stop offset=".633" style="stop-color:#faa221;stop-opacity:1"/><stop offset=".641" style="stop-color:#f9a120;stop-opacity:1"/><stop offset=".648" style="stop-color:#f9a120;stop-opacity:1"/><stop offset=".656" style="stop-color:#f9a020;stop-opacity:1"/><stop offset=".672" style="stop-color:#f99f21;stop-opacity:1"/><stop offset=".688" style="stop-color:#f99f21;stop-opacity:1"/><stop offset=".695" style="stop-color:#f99e20;stop-opacity:1"/><stop offset=".703" style="stop-color:#f99e20;stop-opacity:1"/><stop offset=".719" style="stop-color:#f99d20;stop-opacity:1"/><stop offset=".734" style="stop-color:#f99d20;stop-opacity:1"/><stop offset=".742" style="stop-color:#f99c1f;stop-opacity:1"/><stop offset=".75" style="stop-color:#f99c1f;stop-opacity:1"/><stop offset=".758" style="stop-color:#f99b1f;stop-opacity:1"/><stop offset=".766" style="stop-color:#f99b1f;stop-opacity:1"/><stop offset=".773" style="stop-color:#f89a20;stop-opacity:1"/><stop offset=".781" style="stop-color:#f89a20;stop-opacity:1"/><stop offset=".789" style="stop-color:#f89920;stop-opacity:1"/><stop offset=".797" style="stop-color:#f89920;stop-opacity:1"/><stop offset=".813" style="stop-color:#f8981f;stop-opacity:1"/><stop offset=".828" style="stop-color:#f8981f;stop-opacity:1"/><stop offset=".836" style="stop-color:#f8971f;stop-opacity:1"/><stop offset=".844" style="stop-color:#f8971f;stop-opacity:1"/><stop offset=".852" style="stop-color:#f8961f;stop-opacity:1"/><stop offset=".859" style="stop-color:#f8961f;stop-opacity:1"/><stop offset=".867" style="stop-color:#f8951f;stop-opacity:1"/><stop offset=".875" style="stop-color:#f8951f;stop-opacity:1"/><stop offset=".883" style="stop-color:#f7941f;stop-opacity:1"/><stop offset=".891" style="stop-color:#f7931e;stop-opacity:1"/><stop offset=".906" style="stop-color:#f7931e;stop-opacity:1"/><stop offset=".922" style="stop-color:#f7931e;stop-opacity:1"/><stop offset=".93" style="stop-color:#f7921e;stop-opacity:1"/><stop offset=".938" style="stop-color:#f7911e;stop-opacity:1"/><stop offset=".945" style="stop-color:#f7911e;stop-opacity:1"/><stop offset=".953" style="stop-color:#f7901e;stop-opacity:1"/><stop offset=".969" style="stop-color:#f7901e;stop-opacity:1"/><stop offset="1" style="stop-color:#f7901e;stop-opacity:1"/></linearGradient><linearGradient xlink:href="#c" id="f" x1="1294.434" x2="1345.483" y1="175.556" y2="175.556" gradientTransform="matrix(2.92024 0 0 2.92024 -3589.42 -79.675)" gradientUnits="userSpaceOnUse"/><linearGradient id="c" x1="-.008" x2="1.071" y1="0" y2="0" gradientTransform="scale(-51.16176)rotate(5.258 24.857 -288.149)" gradientUnits="userSpaceOnUse"><stop offset="0" style="stop-color:#f7901e;stop-opacity:1"/><stop offset=".063" style="stop-color:#f7901e;stop-opacity:1"/><stop offset=".078" style="stop-color:#f7911e;stop-opacity:1"/><stop offset=".086" style="stop-color:#f7921e;stop-opacity:1"/><stop offset=".094" style="stop-color:#f7921e;stop-opacity:1"/><stop offset=".102" style="stop-color:#f7931e;stop-opacity:1"/><stop offset=".109" style="stop-color:#f7931e;stop-opacity:1"/><stop offset=".125" style="stop-color:#f7931e;stop-opacity:1"/><stop offset=".133" style="stop-color:#f7941f;stop-opacity:1"/><stop offset=".141" style="stop-color:#f7941f;stop-opacity:1"/><stop offset=".148" style="stop-color:#f8951f;stop-opacity:1"/><stop offset=".156" style="stop-color:#f8951f;stop-opacity:1"/><stop offset=".164" style="stop-color:#f8961f;stop-opacity:1"/><stop offset=".172" style="stop-color:#f8961f;stop-opacity:1"/><stop offset=".18" style="stop-color:#f8971f;stop-opacity:1"/><stop offset=".188" style="stop-color:#f8981f;stop-opacity:1"/><stop offset=".203" style="stop-color:#f8981f;stop-opacity:1"/><stop offset=".219" style="stop-color:#f89920;stop-opacity:1"/><stop offset=".227" style="stop-color:#f89920;stop-opacity:1"/><stop offset=".234" style="stop-color:#f89a20;stop-opacity:1"/><stop offset=".242" style="stop-color:#f89a20;stop-opacity:1"/><stop offset=".25" style="stop-color:#f99b1f;stop-opacity:1"/><stop offset=".258" style="stop-color:#f99b1f;stop-opacity:1"/><stop offset=".266" style="stop-color:#f99c1f;stop-opacity:1"/><stop offset=".273" style="stop-color:#f99c1f;stop-opacity:1"/><stop offset=".281" style="stop-color:#f99d20;stop-opacity:1"/><stop offset=".297" style="stop-color:#f99d20;stop-opacity:1"/><stop offset=".313" style="stop-color:#f99e20;stop-opacity:1"/><stop offset=".32" style="stop-color:#f99f21;stop-opacity:1"/><stop offset=".328" style="stop-color:#f99f21;stop-opacity:1"/><stop offset=".344" style="stop-color:#f99f21;stop-opacity:1"/><stop offset=".359" style="stop-color:#f9a020;stop-opacity:1"/><stop offset=".367" style="stop-color:#f9a120;stop-opacity:1"/><stop offset=".375" style="stop-color:#faa221;stop-opacity:1"/><stop offset=".391" style="stop-color:#faa221;stop-opacity:1"/><stop offset=".406" style="stop-color:#faa221;stop-opacity:1"/><stop offset=".414" style="stop-color:#faa321;stop-opacity:1"/><stop offset=".422" style="stop-color:#faa321;stop-opacity:1"/><stop offset=".43" style="stop-color:#faa422;stop-opacity:1"/><stop offset=".438" style="stop-color:#faa522;stop-opacity:1"/><stop offset=".453" style="stop-color:#faa522;stop-opacity:1"/><stop offset=".469" style="stop-color:#faa622;stop-opacity:1"/><stop offset=".477" style="stop-color:#faa622;stop-opacity:1"/><stop offset=".484" style="stop-color:#faa722;stop-opacity:1"/><stop offset=".5" style="stop-color:#faa722;stop-opacity:1"/><stop offset=".516" style="stop-color:#faa822;stop-opacity:1"/><stop offset=".523" style="stop-color:#faa822;stop-opacity:1"/><stop offset=".531" style="stop-color:#fba922;stop-opacity:1"/><stop offset=".539" style="stop-color:#fba922;stop-opacity:1"/><stop offset=".547" style="stop-color:#fbaa23;stop-opacity:1"/><stop offset=".563" style="stop-color:#fbaa23;stop-opacity:1"/><stop offset=".578" style="stop-color:#fbab23;stop-opacity:1"/><stop offset=".586" style="stop-color:#fbac23;stop-opacity:1"/><stop offset=".594" style="stop-color:#fbac23;stop-opacity:1"/><stop offset=".609" style="stop-color:#fbac24;stop-opacity:1"/><stop offset=".625" style="stop-color:#fbac24;stop-opacity:1"/><stop offset=".633" style="stop-color:#fbad24;stop-opacity:1"/><stop offset=".641" style="stop-color:#fbad24;stop-opacity:1"/><stop offset=".648" style="stop-color:#fbae24;stop-opacity:1"/><stop offset=".656" style="stop-color:#fbaf25;stop-opacity:1"/><stop offset=".672" style="stop-color:#fcaf25;stop-opacity:1"/><stop offset=".688" style="stop-color:#fcb024;stop-opacity:1"/><stop offset=".703" style="stop-color:#fcb024;stop-opacity:1"/><stop offset=".719" style="stop-color:#fcb025;stop-opacity:1"/><stop offset=".723" style="stop-color:#fcb125;stop-opacity:1"/><stop offset=".727" style="stop-color:#fcb126;stop-opacity:1"/><stop offset=".734" style="stop-color:#fcb225;stop-opacity:1"/><stop offset=".75" style="stop-color:#fcb225;stop-opacity:1"/><stop offset=".781" style="stop-color:#fcb325;stop-opacity:1"/><stop offset=".789" style="stop-color:#fcb325;stop-opacity:1"/><stop offset=".797" style="stop-color:#fcb426;stop-opacity:1"/><stop offset=".805" style="stop-color:#fcb426;stop-opacity:1"/><stop offset=".813" style="stop-color:#fcb526;stop-opacity:1"/><stop offset=".844" style="stop-color:#fdb526;stop-opacity:1"/><stop offset=".859" style="stop-color:#fdb526;stop-opacity:1"/><stop offset=".867" style="stop-color:#fdb626;stop-opacity:1"/><stop offset=".875" style="stop-color:#fdb727;stop-opacity:1"/><stop offset=".891" style="stop-color:#fdb727;stop-opacity:1"/><stop offset=".906" style="stop-color:#fdb827;stop-opacity:1"/><stop offset=".938" style="stop-color:#fdb827;stop-opacity:1"/><stop offset="1" style="stop-color:#fdb827;stop-opacity:1"/></linearGradient></defs><path d="M151.656 496.067v7.601h11.415v5.792h-11.415v11.817h-7.24v-31.015h19.38v5.805zM187.428 495.976c-5.171 0-9.075 3.736-9.075 9.657 0 5.935 3.904 9.71 9.075 9.71s9.075-3.775 9.075-9.71c0-5.882-3.904-9.657-9.075-9.657m0 25.844c-9.218 0-16.444-5.973-16.444-16.006 0-10.019 7.226-16.043 16.444-16.043s16.445 6.024 16.445 16.043c0 10.033-7.227 16.006-16.445 16.006M228.242 495.976c-5.171 0-9.076 3.736-9.076 9.657 0 5.935 3.905 9.71 9.076 9.71s9.076-3.775 9.076-9.71c0-5.882-3.904-9.657-9.076-9.657m0 25.844c-9.218 0-16.457-5.973-16.457-16.006 0-10.019 7.24-16.043 16.457-16.043 9.205 0 16.445 6.024 16.445 16.043 0 10.033-7.24 16.006-16.445 16.006M264.738 496.028v25.249h-7.291v-25.25h-7.99v-5.752h23.27v5.753zM292.327 507.844h-4.008v7.912h4.008c2.702 0 5.443-.724 5.443-3.956 0-3.245-2.741-3.956-5.443-3.956m-.996-12.178h-3.012v7.136h2.844c2.508 0 4.939-.582 4.939-3.633 0-2.921-2.34-3.503-4.77-3.503m2.43 25.61h-12.67v-31.001h10.563c2.83 0 5.572.22 7.64 1.293 2.069 1.086 3.956 3.102 3.956 6.528 0 3.4-2.21 6.012-4.538 6.826v.09c3.866.944 6.426 3.543 6.426 7.37 0 6.645-5.572 8.894-11.377 8.894M326.755 498.226l-3.866 11.144h7.731zm7.73 23.05-2.21-6.244H321.22l-2.197 6.245h-7.55l11.687-31.054h7.55l11.674 31.054zM350.387 521.277v-31.002h7.24v24.977h10.743v6.025zM377.045 521.277v-31.002h7.24v24.977h10.73v6.025zm0 0" style="fill:#02513d;fill-opacity:1;fill-rule:nonzero;stroke:none;stroke-width:3.30959" transform="translate(-131.475 -203.714)"/><path d="m146.756 544.12-3.866 11.157h7.731zm7.731 23.064-2.21-6.257h-11.054l-2.198 6.257h-7.55l11.687-31.053h7.55l11.674 31.053zM192.095 563.991c-2.159 2.34-5.52 3.685-10.02 3.685-4.537 0-7.86-1.345-10.07-3.685-2.146-2.392-2.922-5.391-2.922-9.76V536.17h7.33v18.06c0 2.21.181 3.917 1.216 5.171.982 1.177 2.43 1.94 4.447 1.94s3.464-.763 4.447-1.94c1.034-1.254 1.215-2.96 1.215-5.17V536.17h7.33v18.06c0 4.37-.775 7.37-2.973 9.761M214.706 567.714c-4.499 0-8.493-2.327-11.014-4.667l3.593-5.3c2.25 2.327 5.715 3.904 8.094 3.904 2.34 0 4.136-1.125 4.136-3.193 0-2.108-2.3-2.922-3.645-3.413-1.345-.492-3.685-1.306-4.719-1.758-.763-.35-2.34-.944-3.684-2.237-1.345-1.267-2.418-3.064-2.418-5.986 0-2.96 1.435-5.3 3.232-6.787 1.745-1.474 4.577-2.47 8.17-2.47s7.732 1.707 9.852 3.827l-3.103 5.081c-1.797-1.81-4.59-3.154-6.93-3.154-2.326 0-4.033.905-4.033 2.792 0 1.888 1.745 2.599 3.142 3.142 1.344.543 3.645 1.344 4.628 1.758 3.956 1.435 6.735 3.995 6.735 8.494 0 6.696-6.011 9.967-12.036 9.967M248.23 541.923v25.261h-7.28v-25.261h-8.002v-5.753h23.283v5.753zM274.615 541.793h-2.883v7.951h2.883c2.69 0 5.301-.814 5.301-4.008 0-3.232-2.612-3.943-5.3-3.943m5.972 25.391-6.516-11.868h-2.288v11.868h-7.278V536.17h11.143c5.935 0 11.597 2.52 11.597 9.295 0 5.895-3.775 8.183-6.076 8.907l7.873 12.812zM309.211 544.12l-3.866 11.157h7.745zm7.744 23.064-2.21-6.257H303.69l-2.211 6.257h-7.537l11.674-31.053h7.55l11.687 31.053zM332.727 567.184V536.17h7.227v24.99h10.743v6.024zM359.424 536.17h7.278v31.001h-7.278zM390.025 544.12l-3.866 11.157h7.731zm7.73 23.064-2.197-6.257H384.49l-2.197 6.257h-7.55l11.687-31.053h7.55l11.687 31.053zm0 0" style="clip-rule:nonzero;fill:#02513d;fill-opacity:1;fill-rule:nonzero;stroke:none;stroke-width:3.30959" transform="translate(-131.475 -203.714)"/><path d="M325.862 214.97c1.72 4.02 17.79 29.916 25.56 61.344 6.437 26.063 7.485 42.495 5.015 53.329 15.941 17.427 33.924 29.023 40.155 13.031v-.039c.143-.387.284-.788.427-1.215 3.374-16.897-.543-41.628-11.416-65.054-19.741-42.508-50.885-58.603-59.753-61.396zm0 0" style="fill:url(#d);fill-opacity:1;stroke-width:3.30958" transform="translate(-131.475 -203.714)"/><path d="M397.032 341.42c-.143.427-.283.828-.427 1.215v.04c-6.218 15.978-24.214 4.395-40.155-13.032-8.804-9.632-16.987-21.06-22.197-30.601-23.646-43.297-25.068-90.833-25.068-90.833-14.182-4.24-31.08-5.314-43.025-3.917 8.248 104.149 50.963 146.372 74.57 157.955 20.71 10.15 50.497 7.447 56.315-20.827" style="clip-rule:nonzero;fill:#02513d;fill-opacity:1;fill-rule:nonzero;stroke:none;stroke-width:3.30959" transform="translate(-131.475 -203.714)"/><path d="M215.21 213.083s-.029 0-.037.014c-.414.065-.84.13-1.267.233-16.328 5.52-35.798 21.28-50.652 42.417-26.943 38.332-25.327 73.341-23.31 82.417 2.624-3.49 17.026-30.368 40.362-52.798 19.353-18.604 33.07-27.731 43.697-31.002 6.735-21.254 8.028-41.5-6.115-41.5-.84 0-1.733.078-2.676.22" style="fill:url(#e);fill-opacity:1;stroke-width:3.30958" transform="translate(-131.475 -203.714)"/><path d="M213.905 213.328c.44-.103.853-.168 1.267-.232 0-.015.03-.015.037-.015 16.962-2.611 15.915 18.759 8.792 41.267-3.943 12.45-9.748 25.235-15.41 34.518-25.689 42.133-66.167 67.123-66.167 67.123 3.413 14.402 10.937 29.566 18.125 39.21 86.102-59.223 101.318-117.309 99.547-143.527-1.551-23.012-18.797-47.446-46.192-38.345" style="fill:#02513d;fill-opacity:1;fill-rule:nonzero;stroke:none;stroke-width:3.30959" transform="translate(-131.475 -203.714)"/><path d="M193.711 434.994c0 .015.03.015.03.026.26.324.542.647.827.97 12.954 11.377 36.354 20.362 62.08 22.65 46.685 4.163 76.2-14.738 83.064-21.034-4.344-.517-34.828.452-65.92-8.546-25.805-7.46-40.57-14.764-48.714-22.314-23.076 5.081-42.107 14.868-31.363 28.248" style="fill:url(#f);fill-opacity:1;stroke-width:3.30958" transform="translate(-131.475 -203.714)"/><path d="M194.564 435.99c-.283-.324-.568-.647-.827-.97 0-.015 0-.015-.03-.026-10.743-13.38 8.287-23.167 31.364-28.248 12.748-2.806 26.736-4.176 37.595-3.917 49.347 1.176 91.234 23.723 91.234 23.723 10.769-10.162 20.142-24.266 24.9-35.307-94.35-44.925-152.281-29.062-174.117-14.414-19.146 12.85-31.686 40-10.122 59.159" style="fill:#02513d;fill-opacity:1;fill-rule:nonzero;stroke:none;stroke-width:3.30959" transform="translate(-131.475 -203.714)"/></svg>