<svg xmlns="http://www.w3.org/2000/svg" xml:space="preserve" width="275" height="275" viewBox="-12.25 -12.25 275 275"><g fill-rule="evenodd" clip-rule="evenodd"><path fill="#FFF" d="M125.25-12.25c37.986 0 72.329 15.415 97.229 40.271 24.856 24.901 40.271 59.243 40.271 97.229s-15.415 72.329-40.271 97.229c-24.899 24.856-59.242 40.271-97.229 40.271s-72.329-15.415-97.229-40.271c-24.856-24.9-40.271-59.243-40.271-97.229 0-37.987 15.415-72.329 40.271-97.229C52.921 3.165 87.263-12.25 125.25-12.25"/><path fill="#3DA643" d="M125.25-12.25c37.986 0 72.329 15.415 97.229 40.271 24.856 24.901 40.271 59.243 40.271 97.229s-15.415 72.329-40.271 97.229c-24.899 24.856-59.242 40.271-97.229 40.271s-72.329-15.415-97.229-40.271c-24.856-24.9-40.271-59.243-40.271-97.229 0-37.987 15.415-72.329 40.271-97.229C52.921 3.165 87.263-12.25 125.25-12.25m95.735 41.764C196.48 5.009 162.622-10.142 125.25-10.142S54.019 5.008 29.514 29.513s-39.655 58.364-39.655 95.736 15.15 71.23 39.655 95.735 58.364 39.657 95.736 39.657 71.23-15.152 95.735-39.657 39.657-58.363 39.657-95.735c.001-37.372-15.152-71.23-39.657-95.735"/><path fill="#3DA643" d="M125.25 34.564c25.031 0 47.692 10.189 64.116 26.569 16.381 16.424 26.569 39.085 26.569 64.117s-10.188 47.692-26.569 64.116c-16.424 16.381-39.085 26.569-64.116 26.569-25.032 0-47.692-10.188-64.117-26.569-16.38-16.424-26.569-39.085-26.569-64.116s10.189-47.692 26.569-64.117c16.425-16.38 39.085-26.569 64.117-26.569m62.623 28.062c-16.029-16.029-38.162-25.91-62.623-25.91s-46.595 9.881-62.624 25.91-25.91 38.163-25.91 62.624 9.881 46.594 25.91 62.623c16.029 16.03 38.163 25.911 62.624 25.911s46.594-9.881 62.623-25.911c16.03-16.029 25.911-38.162 25.911-62.623s-9.881-46.595-25.911-62.624"/><path fill="#3DA643" d="M125.25 38.736c47.78 0 86.514 38.734 86.514 86.514s-38.733 86.514-86.514 86.514-86.514-38.733-86.514-86.514S77.47 38.736 125.25 38.736m1.449 42.818a3.3 3.3 0 0 0-1.143-.22h-.614a3.3 3.3 0 0 0-1.142.22c-20.816 6.763-41.588 13.525-62.404 20.289l2.24 6.939 1.405-.439v42.159h-2.548v5.973h-2.679v5.93h130.87v-5.93h-2.68v-5.973h-2.546v-42.159l1.405.439 2.239-6.939c-20.815-6.763-41.586-13.526-62.403-20.289m-1.449 79.4h64.072v-3.118H61.177v3.118zm0-4.48h42.686v-4.611H82.564v4.611zm0-5.973h6.895v-1.757c0-.176.088-.482.263-.57.132-.044.266-.132.396-.132h.834v-1.361c0-.438.308-.702.703-.702h.834v-1.493c0-.263.044-.396.264-.528v-21.913h-.658c-.396 0-.704-.263-.704-.703v-1.186h-.658a.693.693 0 0 1-.701-.703v-1.537h-14.933v1.537a.695.695 0 0 1-.703.703h-.659v1.186c0 .439-.307.703-.703.703h-.614v21.913a.58.58 0 0 1 .263.528v1.493h.791c.395 0 .747.264.747.702v1.361h.791c.131 0 .263.088.395.132.176.088.264.395.264.57v1.757zm0-39.567h42.686v-3.031H82.564v3.031zm0-4.392h54.631L125.25 88.888l-54.631 17.654zm-61.394 49.932h17.347v-4.611H63.856zm-.703-53.752 1.449 4.391a9324 9324 0 0 1 59.33-19.279v-4.875c-20.288 6.631-40.534 13.131-60.779 19.763m30.302.219h63.589l-31.794-10.32zm31.795-11.77-40.622 13.13h81.244zm-32.365 31.532h5.357v-.659h-5.357zm-1.362-2.02h8.125v-.527h-8.125zm-1.318-1.933h10.803v-.834H90.205zm18.137 3.953h5.314v-.659h-5.314zm6.676-2.02v-.527h-8.037v.527zm1.405-1.933v-.834H105.62v.834zm7.817-6.455h-13.087v4.259h13.087zm-27.579 4.259h13.087v-4.259H96.661zm-14.097 0h12.735v-4.259H82.564zm-16.117-8.651v42.598h14.756v-42.598zm41.895 16.161v19.762h1.977v-19.762zm3.338 19.762h1.977v-19.762h-1.977zm2.283 2.153v-.791h-5.928v.791zm-7.421 2.063h8.915v-.703h-8.915zm10.452 1.362h-11.902v1.097h11.902zm-15.458 0H89.635v1.097h11.901zm-10.453-1.362h8.958v-.703h-8.958zm7.466-2.854h-5.972v.791h5.972zm-5.664-21.124v19.762h1.976v-19.762zm3.425 19.762h1.932v-19.762H96.31zm7.334 6.675v-1.757c0-.395.307-.702.703-.702h.79v-1.361c0-.395.352-.702.747-.702h.791v-1.493c0-.263.044-.396.264-.528v-21.913h-.659c-.396 0-.659-.263-.659-.703v-1.186h-.703a.695.695 0 0 1-.703-.703v-1.537h-1.844v1.537c0 .395-.307.703-.659.703h-.703v1.186a.693.693 0 0 1-.702.703h-.703v21.869c.219.132.351.353.351.572v1.493h.791c.396 0 .659.308.659.702v1.361h.834c.351 0 .659.308.659.702v1.757zm-15.415 0v-1.757c0-.395.307-.702.703-.702h.791v-1.361c0-.395.307-.702.703-.702h.79v-1.493c0-.176.089-.484.308-.572v-21.869h-.704c-.351 0-.659-.307-.659-.703v-1.186h-.659c-.395 0-.746-.264-.746-.703v-1.537h-6.192v32.585zm98.415 5.973v-4.611h-17.346v4.611zm.703-53.752c-20.244-6.632-40.49-13.131-60.779-19.763v4.875c19.807 6.412 39.568 12.78 59.33 19.279zm-29.731 19.981v-.659h-5.358v.659zm1.362-2.02v-.527h-8.08v.527zm1.316-1.933v-.834h-10.802v.834zm-18.137 3.953v-.659h-5.313v.659zm-6.675-2.02h8.036v-.527h-8.036zm-1.406-1.933h10.804v-.834h-10.804zm-7.815-6.455v4.259h13.087v-4.259zm27.578 4.259v-4.259h-13.087v4.259zm14.097 0v-4.259H155.2v4.259zm16.117-8.651h-14.755v42.598h14.755zm-41.896 16.161h-1.977v19.762h1.977zm-3.338 19.762v-19.762h-1.976v19.762zm-2.283 2.153h5.928v-.791h-5.928zm7.421 2.063v-.703h-8.914v.703zm-10.451 1.362v1.097h11.901v-1.097zm15.458 0v1.097h11.902v-1.097zm10.453-1.362v-.703h-8.96v.703zm-7.467-2.854v.791h5.973v-.791zm5.666-21.124h-1.976v19.762h1.976zm-3.382 19.762v-19.762h-1.977v19.762zm-7.378 6.675h.747v-1.757c0-.395.308-.702.658-.702h.835v-1.361c0-.395.264-.702.658-.702h.79v-1.493c0-.22.132-.44.353-.572v-21.869h-.704a.69.69 0 0 1-.701-.703v-1.186h-.66a.694.694 0 0 1-.702-.703v-1.537h-1.844v1.537a.695.695 0 0 1-.704.703h-.702v1.186c0 .439-.263.703-.657.703h-.66v21.913c.22.132.264.266.264.528v1.493h.791c.395 0 .746.308.746.702v1.361h.791c.395 0 .702.308.702.702v1.757zm15.415 0h5.664v-32.585h-6.192v1.537c0 .439-.351.703-.745.703h-.66v1.186c0 .396-.307.703-.658.703h-.702v21.869c.176.088.308.396.308.572v1.493h.79c.395 0 .703.308.703.702v1.361h.79c.395 0 .703.308.703.702zM11.245 81.115l7.509-16.644 4.348 1.932-5.357 11.858 4.743 2.151 4.698-10.452 4.348 1.976-4.699 10.408 8.432 3.864-2.151 4.787zm12.516-24.241 18.84 14.844 3.294-4.172-5.797-4.523-.527-3.953 12.647.439 3.909-4.962-17.171-.527-1.977-13.965-3.952 5.006 2.239 14.141-8.256-6.455zm47.56-25.471-6.851-4.831 1.494 8.256zm-12.296-8.915 4.128-2.635 21.694 14.799-4.655 2.986-4.743-3.337-8.563 5.49L67.94 45.5l-4.523 2.898zm33.903-2.416c1.273-.396 2.151-1.055 2.591-1.977.482-.878.57-1.8.219-2.811l-.044-.043c-.351-1.143-1.01-1.844-1.932-2.196q-1.385-.527-3.293.132l-3.865 1.318 2.372 6.938zM80.105 11.64l7.685 22.749 5.006-1.669-2.327-6.851 3.82-1.274a14 14 0 0 0 3.426-1.712 8.7 8.7 0 0 0 2.415-2.503c.571-.966.967-2.02 1.099-3.162.131-1.185 0-2.415-.439-3.732l-.044-.044c-.395-1.186-.966-2.196-1.669-3.03-.747-.791-1.581-1.449-2.591-1.888-.966-.439-2.064-.659-3.25-.659-1.185-.044-2.503.175-3.865.659zm40.27 11.199q1.581-.066 2.898-.659a6.5 6.5 0 0 0 2.24-1.668 7 7 0 0 0 1.405-2.416c.351-.922.482-1.888.482-2.898v-.088c-.044-1.011-.22-1.977-.614-2.899-.395-.922-.878-1.668-1.581-2.372a6.9 6.9 0 0 0-2.328-1.537 6.6 6.6 0 0 0-2.942-.526q-1.647 0-2.899.659a6.5 6.5 0 0 0-2.24 1.668 7 7 0 0 0-1.405 2.416c-.352.878-.483 1.844-.483 2.898v.044a9.2 9.2 0 0 0 .615 2.942 7.8 7.8 0 0 0 1.581 2.328c.658.702 1.448 1.185 2.327 1.58.881.396 1.891.572 2.944.528m.044 4.874c-1.845.044-3.557-.219-5.094-.834a13.6 13.6 0 0 1-4.128-2.547 12.1 12.1 0 0 1-2.723-3.865c-.659-1.45-1.011-3.074-1.055-4.787v-.044c-.044-1.712.22-3.337.834-4.875a11.9 11.9 0 0 1 2.547-3.996c1.099-1.142 2.416-2.064 3.997-2.767 1.537-.703 3.25-1.054 5.094-1.098s3.558.219 5.139.834c1.537.615 2.899 1.449 4.083 2.547 1.142 1.054 2.064 2.372 2.723 3.821a12.5 12.5 0 0 1 1.055 4.786l.044.089c0 1.712-.263 3.337-.879 4.83-.57 1.538-1.449 2.855-2.546 4.041q-1.648 1.713-3.954 2.767a13.9 13.9 0 0 1-5.137 1.098m20.685-23.627 5.182.922-3.382 18.928 11.813 2.108-.836 4.699-16.994-3.03zm28.15 28.546c.965.439 1.888.659 2.898.659.966 0 1.889-.176 2.722-.527.879-.351 1.625-.878 2.329-1.581a6.8 6.8 0 0 0 1.668-2.416l.044-.044a7.6 7.6 0 0 0 .702-2.898c.044-.966-.044-1.889-.395-2.811a7.5 7.5 0 0 0-1.406-2.416c-.657-.746-1.449-1.317-2.414-1.756a7.2 7.2 0 0 0-2.942-.659 5.9 5.9 0 0 0-2.724.527 7.9 7.9 0 0 0-2.327 1.538 9 9 0 0 0-1.669 2.459v.044c-.439.922-.659 1.888-.747 2.854a7.4 7.4 0 0 0 .395 2.811c.31.922.792 1.713 1.45 2.459a6.7 6.7 0 0 0 2.416 1.757m-2.064 4.391c-1.713-.746-3.118-1.757-4.261-2.986s-2.02-2.591-2.592-4.084c-.57-1.449-.834-3.03-.79-4.655a12.1 12.1 0 0 1 1.099-4.743l.044-.088c.702-1.537 1.669-2.898 2.854-3.997 1.229-1.098 2.548-1.932 4.041-2.503 1.493-.57 3.118-.791 4.787-.747 1.713.043 3.425.439 5.094 1.23 1.669.747 3.118 1.756 4.259 2.986 1.143 1.229 2.021 2.591 2.592 4.04.57 1.493.835 3.03.791 4.655-.045 1.625-.44 3.25-1.142 4.787v.087c-.748 1.538-1.669 2.855-2.899 3.997a11.7 11.7 0 0 1-4.039 2.459c-1.493.571-3.074.834-4.787.791a12.5 12.5 0 0 1-5.051-1.229m30.389-10.627-15.721 18.182 3.951 3.381 9.969-11.506-1.185 19.147 3.381 2.943 15.723-18.182-3.952-3.381-9.661 11.155 1.185-18.533zm22.134 21.519 3.25 4.128-18.885 14.843-3.25-4.172zm2.985 30.433 5.49-6.368-8.388.703zm10.058-11.374 2.195 4.303-16.819 20.202-2.504-4.918 3.776-4.392-4.609-9.046-5.798.483-2.459-4.787zM55.819 196.745l13.79 11.988-3.118 3.602-9.793-8.563-3.425 3.908 8.652 7.554-3.118 3.601-8.652-7.554-6.104 7.027-3.997-3.469zm16.293 12.734L60.08 230.252l4.567 2.68 12.077-20.772zm9.134 5.272 16.732 6.807-1.756 4.347-11.901-4.831-1.844 4.479 10.496 4.261-1.757 4.347-10.495-4.259-1.889 4.699 12.077 4.874-1.8 4.391-16.909-6.895zm27.799 20.552c1.274.219 2.328.087 3.118-.352.834-.482 1.318-1.229 1.493-2.239l.044-.089c.176-1.097 0-2.02-.615-2.722-.615-.704-1.581-1.187-2.854-1.405l-5.139-.967-1.273 6.763zm-8.256-13.439-4.479 23.582 5.182.967 1.449-7.554 3.997.791h.088l3.601 8.476 6.061 1.187-4.129-9.53c1.581-.264 2.986-.923 4.129-1.932 1.185-1.055 1.932-2.504 2.283-4.437v-.044c.439-2.239.132-4.173-.966-5.798-1.317-1.888-3.425-3.117-6.456-3.688zm36.537 7.289-4.039 1.538-1.625-4.172 6.631-2.854 3.557-.396 2.812 24.021-5.182.571zm20.597 2.066c1.23-.309 2.152-.923 2.636-1.756q.789-1.254.396-2.768l-.044-.044c-.264-1.055-.879-1.757-1.757-2.24-.923-.439-2.021-.527-3.294-.132-1.273.353-2.152.923-2.635 1.756-.527.836-.614 1.759-.352 2.812l.044.044c.264 1.055.878 1.801 1.757 2.24.877.395 1.975.439 3.249.088m2.503 12.822c-1.669.44-3.204.616-4.522.44a14.6 14.6 0 0 1-3.821-1.055l1.625-4.611c1.011.44 1.934.747 2.811.835q1.318.132 2.768-.263 2.173-.594 2.898-2.373c.482-1.186.614-2.59.352-4.215a6.4 6.4 0 0 1-1.713 1.713c-.704.526-1.537.921-2.548 1.185-1.274.353-2.459.484-3.557.44-1.099-.088-2.107-.309-3.03-.748a6.7 6.7 0 0 1-2.283-1.888c-.66-.835-1.143-1.801-1.449-2.986l-.044-.088a8.9 8.9 0 0 1-.264-3.382c.176-1.142.526-2.151 1.097-3.074.572-.921 1.362-1.756 2.328-2.458 1.01-.704 2.108-1.23 3.426-1.625.79-.176 1.493-.353 2.151-.396.659-.088 1.273-.088 1.845-.044s1.142.177 1.712.353c.528.176 1.099.438 1.669.746a7.4 7.4 0 0 1 1.493 1.143 9.8 9.8 0 0 1 1.405 1.58c.439.658.836 1.406 1.23 2.239.351.879.702 1.889 1.009 3.03l.046.044c.526 1.889.746 3.646.746 5.357 0 1.669-.264 3.162-.836 4.48-.526 1.361-1.359 2.504-2.414 3.469-1.1.967-2.461 1.67-4.13 2.152m13.615-9.881 1.844 3.733 15.941-7.817-1.977-4.128-9.397 4.611 2.151-4.437a39 39 0 0 0 1.493-3.248c.439-.967.702-1.89.878-2.767.133-.836.177-1.669.044-2.504-.088-.834-.395-1.669-.834-2.591l-.044-.044q-.724-1.515-1.844-2.504c-.791-.614-1.625-1.097-2.548-1.317a7.5 7.5 0 0 0-2.986-.22c-1.098.132-2.195.484-3.294 1.011a13 13 0 0 0-2.459 1.581 8.2 8.2 0 0 0-1.624 1.889 9.8 9.8 0 0 0-1.055 2.282 19 19 0 0 0-.702 2.724l4.655 1.011c.307-1.361.702-2.46 1.097-3.25.44-.791 1.055-1.361 1.89-1.8.878-.396 1.669-.528 2.459-.31.745.22 1.361.748 1.8 1.713.22.44.352.879.439 1.318.043.438 0 .923-.088 1.493a35 35 0 0 1-.526 1.844 62 62 0 0 1-1.011 2.329zm29.818-13.219c-1.493 1.274-2.987 2.109-4.48 2.548-1.537.482-3.074.658-4.699.57l-.044-4.962c1.23.044 2.373-.088 3.338-.308 1.011-.263 1.889-.746 2.724-1.449.923-.79 1.493-1.625 1.669-2.546.175-.88-.088-1.757-.79-2.592l-.044-.044c-.66-.79-1.493-1.143-2.46-1.055q-1.45.067-2.898 1.317a8.2 8.2 0 0 0-1.45 1.581c-.395.57-.745 1.143-1.009 1.713l-3.645.438-7.159-9.484 11.242-9.573 3.03 3.557-7.817 6.631 2.504 3.338c.308-.396.614-.746.922-1.143.307-.351.703-.746 1.229-1.185.878-.747 1.801-1.361 2.768-1.801a7.8 7.8 0 0 1 2.941-.703 5.7 5.7 0 0 1 2.898.658c.967.44 1.889 1.187 2.768 2.196l.044.044c.833.966 1.405 1.977 1.712 3.074.352 1.054.439 2.108.308 3.162s-.526 2.107-1.143 3.118c-.615 1.057-1.448 2.023-2.459 2.9"/></g></svg>