<svg xmlns="http://www.w3.org/2000/svg" xml:space="preserve" width="275" height="331.427"><path fill="#0A2F71" fill-rule="evenodd" d="M137.5 331.427c75.728 0 137.5-61.771 137.5-137.499S213.228 56.429 137.5 56.429 0 118.2 0 193.928s61.772 137.499 137.5 137.499" clip-rule="evenodd"/><path fill="#FFF" fill-rule="evenodd" d="M137.5 316.163c67.332 0 122.288-54.901 122.288-122.234 0-67.332-54.956-122.288-122.288-122.288-67.333 0-122.234 54.957-122.234 122.288 0 67.332 54.901 122.234 122.234 122.234" clip-rule="evenodd"/><path fill="#FBCD21" fill-rule="evenodd" d="M137.5 64.771c-71.313 0-129.158 57.792-129.158 129.158 0 71.313 57.846 129.104 129.158 129.104s129.157-57.791 129.157-129.104c0-71.367-57.845-129.158-129.157-129.158m0 3.053c-69.622 0-126.051 56.428-126.051 126.104 0 69.622 56.429 126.051 126.051 126.051 69.621 0 126.104-56.429 126.104-126.051 0-69.677-56.483-126.104-126.104-126.104" clip-rule="evenodd"/><path fill="#0A2F71" fill-rule="evenodd" d="M137.5 275.763c45.088 0 81.889-36.747 81.889-81.835s-36.801-81.889-81.889-81.889-81.834 36.801-81.834 81.889 36.746 81.835 81.834 81.835" clip-rule="evenodd"/><path fill="#126BB8" d="M56.047 185.696c3.053-1.091 6.161-2.727 9.159-4.307 5.615-2.945 10.904-5.725 16.302-5.507 9.486.381 15.375 3.653 20.554 6.487 3.708 2.072 7.033 3.871 10.85 3.708 5.18-.218 10.522-2.835 15.811-5.398 5.888-2.834 11.612-5.614 17.609-5.56 7.797.055 14.284 3.597 20.608 7.087 5.344 2.945 10.579 5.779 15.757 5.725 4.144-.055 6.597-2.071 9.324-4.307 5.015-4.144 10.686-8.779 25.46-7.252.492 2.289.928 4.636 1.2 6.979-13.413-1.799-18.155 2.126-22.354 5.56-3.653 3-6.979 5.726-13.521 5.779-6.978.109-12.976-3.161-19.136-6.542-5.562-3.052-11.341-6.16-17.393-6.27-4.416 0-9.432 2.398-14.611 4.961-5.889 2.836-11.885 5.725-18.482 6.052-5.725.218-9.814-2.018-14.393-4.579-4.525-2.508-9.65-5.344-17.5-5.671-3.599-.108-8.124 2.29-12.922 4.799-4.089 2.126-8.287 4.361-12.703 5.506 0-2.452.163-4.851.381-7.25m67.713 88.921c3.381-1.144 6.052-2.671 8.615-4.143 4.252-2.453 8.179-4.688 13.956-4.688 7.579 0 12.213 2.453 17.066 5.071l.871.436c-.98.327-1.908.653-2.889.926-4.252-2.234-8.505-4.252-15.049-4.252-5.232 0-8.886 2.071-12.866 4.361-1.69.982-3.435 1.963-5.397 2.891a116 116 0 0 1-4.307-.602m-44.433-23.116c1.09-.218 2.181-.327 3.216-.272 9.16.381 14.448 3.599 19.028 6.379 3.543 2.181 6.706 4.089 11.013 4.089 9.432 0 14.829-3.106 19.682-5.889 4.307-2.508 8.231-4.742 14.065-4.742 7.634 0 12.321 2.507 17.175 5.124 5.016 2.618 10.195 5.397 19.245 5.289.327 0 .71 0 1.037-.055-1.364.98-2.782 1.854-4.198 2.671-7.797-.436-12.65-3.053-17.338-5.56-4.58-2.4-8.941-4.745-15.921-4.745-5.178 0-8.777 2.072-12.757 4.361-5.125 2.945-10.849 6.271-20.99 6.271-5.07 0-8.506-2.127-12.431-4.471-4.307-2.671-9.269-5.671-17.719-5.997h-.6c-.816-.817-1.689-1.634-2.507-2.453M69.295 239.18c4.198-2.127 8.233-3.817 12.158-3.653 9.269.381 15.048 3.544 20.118 6.27 3.816 2.071 7.251 3.926 11.449 3.926 9.595 0 15.32-3.379 20.281-6.27 4.198-2.508 7.96-4.743 13.029-4.688 6.926.108 11.723 2.779 16.739 5.616 5.069 2.889 10.413 5.888 18.482 5.779 7.141-.111 10.304-2.455 13.52-4.854 3.218-2.344 6.487-4.743 12.705-5.453a62 62 0 0 1-2.837 4.473c-3.326.926-5.452 2.508-7.633 4.089-3.651 2.726-7.359 5.396-15.7 5.56-9.106.109-14.886-3.161-20.445-6.27-4.526-2.562-8.888-5.069-14.831-5.124-4.034-.055-7.358 1.908-11.121 4.144-5.343 3.161-11.559 6.814-22.189 6.814-5.125 0-8.996-2.071-13.249-4.361-4.744-2.563-10.086-5.507-18.428-5.834-2.944-.109-6.324 1.2-9.868 2.945-.763-1.038-1.471-2.073-2.18-3.109m-6.27-11.285c.927-.438 1.854-.928 2.781-1.418 5.397-2.891 10.577-5.616 15.702-5.398 9.05.382 15.538 3.49 21.317 6.271 4.579 2.181 8.614 4.143 12.867 3.925 5.397-.218 10.195-2.889 14.883-5.45 5.07-2.837 9.978-5.562 15.755-5.507 7.416.108 13.686 2.997 19.792 5.888 5.507 2.563 10.903 5.069 16.465 5.016 4.799-.055 8.068-2.072 11.559-4.198 5.015-3.053 10.358-6.324 20.554-5.779-.545 1.473-1.091 2.945-1.69 4.361-8.015-.109-12.431 2.618-16.573 5.126-4.035 2.452-7.743 4.742-13.795 4.852-6.542.054-12.375-2.671-18.373-5.451-5.67-2.673-11.559-5.398-17.938-5.452-4.688-.055-9.104 2.398-13.684 4.96-5.071 2.836-10.304 5.725-16.737 5.997-5.343.218-9.869-1.963-14.993-4.361-5.343-2.616-11.449-5.507-19.627-5.834-3.872-.163-8.561 2.29-13.466 4.908-.981.49-1.909.98-2.89 1.471a66 66 0 0 1-1.909-3.927m-4.689-13.031c2.399-1.035 4.853-2.289 7.197-3.544 5.507-2.889 10.741-5.669 15.975-5.451 9.323.382 15.102 3.597 20.227 6.434 3.816 2.071 7.196 3.979 11.176 3.762 5.343-.218 10.959-2.781 16.411-5.234 5.998-2.726 11.777-5.396 17.611-5.342 7.631.054 13.847 3.487 19.952 6.814 5.29 2.889 10.47 5.725 15.866 5.615 4.307-.054 6.871-2.126 9.65-4.417 5.069-4.144 10.795-8.832 26.007-7.032a63 63 0 0 1-1.037 5.397c-12.648-1.418-17.336 2.453-21.479 5.834-3.545 2.889-6.816 5.56-13.086 5.669-6.76.055-12.594-3.052-18.537-6.324-5.507-2.998-11.121-6.052-17.391-6.106-4.636-.055-9.868 2.345-15.321 4.799-5.889 2.726-11.995 5.506-18.428 5.778-5.506.22-9.486-1.963-14.012-4.471-4.579-2.508-9.813-5.396-17.827-5.725-3.762-.164-8.396 2.291-13.249 4.799-2.618 1.416-5.343 2.834-8.124 3.979-.599-1.69-1.089-3.489-1.581-5.234m-2.453-14.447c3.108-1.09 6.27-2.726 9.323-4.361 5.615-2.945 10.904-5.726 16.302-5.508 9.486.382 15.375 3.653 20.554 6.488 3.708 2.071 7.033 3.871 10.85 3.707 5.18-.218 10.522-2.834 15.811-5.396 5.888-2.837 11.612-5.616 17.609-5.562 7.797.054 14.284 3.599 20.608 7.086 5.344 2.891 10.579 5.779 15.757 5.726 4.144-.055 6.597-2.072 9.324-4.308 5.232-4.307 11.176-9.158 27.313-7.032 0 .872.055 1.743.055 2.671 0 1.364-.055 2.78-.109 4.198-13.902-2.018-18.7 1.963-22.952 5.453-3.653 2.997-6.979 5.723-13.521 5.777-6.978.108-12.976-3.161-19.136-6.542-5.562-3.053-11.341-6.216-17.393-6.27-4.416 0-9.432 2.398-14.611 4.962-5.889 2.834-11.885 5.724-18.482 6.052-5.725.218-9.814-2.018-14.393-4.581-4.525-2.508-9.65-5.342-17.5-5.669-3.599-.11-8.124 2.29-12.922 4.798-3.708 1.963-7.578 3.979-11.612 5.178-.384-2.234-.657-4.524-.875-6.867"/><path fill="#126BB8" fill-rule="evenodd" d="M137.5 107.405c-47.76 0-86.469 38.709-86.469 86.523 0 47.759 38.709 86.469 86.469 86.469s86.468-38.71 86.468-86.469c0-47.813-38.709-86.523-86.468-86.523m0 2.29c-46.506 0-84.18 37.728-84.18 84.233s37.673 84.179 84.18 84.179c46.506 0 84.232-37.673 84.232-84.179s-37.726-84.233-84.232-84.233" clip-rule="evenodd"/><path fill="#181A14" fill-rule="evenodd" d="M145.95 142.516c-7.25-.163-14.339 1.254-20.935 4.307-10.141 4.689-18.156 12.704-23.826 22.245-3.271 5.505-6.542 12.976-5.887 19.571.49 4.799 2.725 8.505 6.542 11.45l.109.055.054.055c5.234 4.524-.381 11.886-6.542 8.886l-.273-.163-.272-.164c-14.72-10.413-13.521-25.46-7.033-40.454 5.507-12.757 17.829-24.97 29.877-31.785 13.357-7.523 27.587-10.195 42.634-7.142 1.636-1.417 3.218-2.834 5.398-3.38 5.725-1.472 9.433 2.999 5.779 7.851 12.703 7.196 21.807 17.5 24.697 32.221 1.31 6.488 1.035 17.066 7.742 20.608l5.997 3.218-5.942 3.271c-.383.22-.71.438-1.037.71-3.653 2.834-5.45 9.376-6.65 13.63-1.146 4.09-2.181 8.232-3.926 12.102-5.069 11.232-13.084 19.683-24.643 24.153-14.884 5.779-36.202.928-50.486-5.179-6.433 3.926-13.739 6.379-21.154 7.579-6.161.98-13.848.817-18.973-3.218-5.343-4.252-5.616-10.794-1.199-15.865 8.287-9.487 22.844-9.322 34.02-5.943 6.215-8.287 11.449-20.554 3.271-29.386l-3.271-3.544 4.252-2.235c4.035-2.126 7.142-4.252 9.651-8.123 3.489-5.344 4.633-11.886 8.178-17.392 4.089-6.38 8.669-12.378 13.848-17.939m15.757 3.653c-3.926 5.669-8.342 13.249-10.195 19.682-2.671 9.106-2.563 17.611 4.96 24.316l4.8 4.144-5.998 2.071c-2.781.928-5.507 2.072-7.796 3.871-2.399 1.854-4.253 4.308-5.889 6.814-2.834 4.361-5.234 8.997-7.742 13.576-1.689 3.053-3.489 5.889-5.779 8.45 13.684 6.379 28.186 5.289 38.328-7.032 7.197-8.778 6.105-19.791-.98-28.241l-2.673-3.218 3.489-2.235c6.597-4.252 10.903-9.923 11.396-17.938.707-11.557-6.434-19.135-15.921-24.26m-60.954 85.269c-4.58-1.09-9.323-1.035-13.74.982-2.453 1.144-2.999 2.616.219 2.889 4.743.326 9.541-1.308 13.521-3.871" clip-rule="evenodd"/><path fill="#FBCD21" fill-rule="evenodd" d="M160.67 130.412c1.636-1.417 3.218-2.944 5.344-3.489 4.961-1.254 8.069 2.398 4.579 6.651-.163.165-.326.382-.49.546 12.866 7.033 22.299 17.228 25.242 32.112 1.363 7.034 1.037 17.501 8.232 21.318l4.418 2.344-4.363 2.453c-.436.218-.817.49-1.198.763-3.816 3.054-5.726 9.65-6.979 14.175-1.145 3.926-2.181 8.179-3.869 11.94-5.018 11.015-12.76 19.247-24.153 23.662-14.611 5.671-35.929.817-50.213-5.397-6.378 3.979-13.739 6.487-21.208 7.742-5.888.928-13.357.816-18.21-3.053-4.906-3.871-5.125-9.813-1.09-14.504 8.124-9.268 22.626-8.886 33.639-5.45 6.815-8.779 12.321-21.755 3.653-31.133l-2.454-2.616 3.163-1.636c4.252-2.235 7.414-4.471 10.031-8.45 3.49-5.342 4.635-11.885 8.179-17.392 4.47-6.978 9.431-13.412 15.156-19.3-20.063-1.308-37.291 9.324-47.704 26.878-3.381 5.725-6.707 13.358-5.998 20.118.49 5.071 2.834 9.052 6.869 12.158l.054.055h.055c4.362 3.762-.272 9.868-5.506 7.306l-.163-.108-.218-.109c-14.175-10.086-13.085-24.533-6.706-39.31 5.452-12.539 17.61-24.642 29.441-31.294 13.408-7.579 27.529-10.087 42.467-6.98m.765 14.503c-4.198 5.942-8.997 14.23-10.851 20.663-2.835 9.596-2.563 18.374 5.289 25.296l3.49 3.108-4.416 1.473c-2.837.98-5.671 2.181-8.069 4.034-2.455 1.963-4.363 4.471-6.052 7.087-2.836 4.307-5.344 9.052-7.797 13.576-1.962 3.599-3.925 6.542-6.543 9.213 14.122 7.089 29.768 6.542 40.673-6.705 7.469-9.16 6.324-20.663-.982-29.44l-2.017-2.4 2.616-1.634c6.816-4.418 11.286-10.36 11.776-18.702.765-12.375-7.031-20.28-17.117-25.569m-58.447 86.141c-5.397-1.636-11.122-1.963-16.356.49-3.325 1.582-3.816 4.361.546 4.69 5.615.382 11.286-1.744 15.81-5.18" clip-rule="evenodd"/><path fill="#181A14" fill-rule="evenodd" d="M161.38 133.356c-13.849-3.162-27.751-1.526-41.817 6.378-11.286 6.38-23.116 17.992-28.295 30.041-8.233 19.027-3.762 29.223 5.778 35.984 2.4 1.144 4.472-1.092 2.509-2.782-5.07-3.926-7.36-8.777-7.906-14.012-.709-7.142 2.453-15.102 6.378-21.807 11.613-19.628 31.84-31.623 55.993-27.534-7.524 7.088-13.466 14.503-18.81 22.845-3.544 5.452-4.634 11.994-8.178 17.391-2.672 4.144-5.888 6.651-11.068 9.379 13.085 14.119-2.072 33.093-4.689 36.146-10.032-3.543-24.752-4.798-32.494 4.089-3.815 4.416-2.017 8.396.709 10.578 3.926 3.106 10.413 3.379 16.084 2.453 8.996-1.473 16.138-4.581 21.426-8.069 13.412 6.106 35.11 11.448 49.449 5.889 10.631-4.089 17.938-11.831 22.626-22.244 4.089-8.997 4.799-23.499 13.249-28.133-8.45-4.471-8.015-14.829-9.65-23.171-2.616-13.194-10.958-24.044-26.823-31.786.871-1.036 1.745-2.126 2.616-3.162 2.018-2.454.163-2.726-1.8-2.235-1.744.437-3.816 2.563-5.287 3.762m-39.582 96.557c4.252-3.381 6.542-6.926 8.832-11.068 9.649-17.611 12.05-22.026 23.443-25.952-6.868-6.052-10.086-14.557-6.105-28.078 2.126-7.305 8.068-17.283 12.594-23.389 12.539 5.998 21.59 15.048 20.717 29.223-.545 9.16-5.396 15.865-13.029 20.828 7.633 9.158 9.813 22.135.982 32.875-11.941 14.61-30.259 15.811-47.434 5.561m-34.839 9.049c8.724.599 16.629-4.09 21.263-8.832-7.906-3.436-15.81-4.307-22.734-1.037-5.834 2.726-5.78 9.324 1.471 9.869" clip-rule="evenodd"/><path fill="#FFF" fill-rule="evenodd" d="M159.799 132.648c-13.794-3.163-27.751-1.473-41.817 6.433-11.286 6.378-23.063 17.992-28.296 30.041-8.232 19.026-3.762 29.222 5.779 35.981 2.399 1.146 4.471-1.089 2.562-2.779-5.07-3.926-7.414-8.777-7.96-14.012-.708-7.142 2.454-15.102 6.434-21.808 11.558-19.627 31.785-31.622 55.991-27.533-7.577 7.033-13.52 14.502-18.863 22.844-3.543 5.452-4.634 11.94-8.178 17.393-2.671 4.144-5.888 6.651-11.013 9.376 13.03 14.066-2.126 33.039-4.688 36.147-10.032-3.544-24.753-4.797-32.549 4.089-3.816 4.416-2.017 8.396.708 10.577 3.98 3.108 10.469 3.381 16.084 2.453 8.996-1.471 16.138-4.579 21.426-8.069 13.467 6.106 35.11 11.45 49.504 5.889 10.633-4.089 17.883-11.83 22.627-22.244 4.035-8.995 4.743-23.498 13.193-28.131-8.45-4.527-8.015-14.831-9.65-23.227-2.617-13.14-10.903-23.988-26.77-31.73.873-1.036 1.745-2.126 2.616-3.162 2.018-2.453.166-2.781-1.797-2.235-1.799.435-3.817 2.561-5.343 3.707m-39.582 96.609c4.252-3.379 6.598-6.924 8.833-11.067 9.651-17.61 12.104-22.081 23.443-25.952-6.869-6.052-10.032-14.61-6.106-28.078 2.126-7.306 8.069-17.282 12.596-23.388 12.594 5.996 21.589 15.046 20.771 29.222-.601 9.16-5.452 15.866-13.086 20.826 7.634 9.106 9.869 22.081 1.037 32.876-11.995 14.612-30.26 15.81-47.488 5.561m-34.784 9.051c8.723.6 16.574-4.089 21.208-8.888-7.905-3.379-15.757-4.252-22.735-.98-5.833 2.726-5.724 9.322 1.527 9.868" clip-rule="evenodd"/><path fill="#0A2F71" d="M60.462 135.428c1.31-1.689 1.963-3.38 1.854-5.07-.054-1.744-.927-3.217-2.562-4.471l-.054-.054c-1.582-1.254-3.272-1.745-4.961-1.418s-3.162 1.309-4.471 2.999l-1.799 2.236 10.195 8.068zm-21.317-4.089 6.106-7.742c1.364-1.799 2.89-3.216 4.471-4.253 1.635-.98 3.217-1.635 4.853-1.908 1.689-.273 3.271-.219 4.906.218a13.2 13.2 0 0 1 4.58 2.399l.109.054c1.417 1.145 2.562 2.454 3.38 3.926.873 1.527 1.309 3.107 1.473 4.798.109 1.689-.109 3.435-.709 5.234-.655 1.854-1.636 3.652-3.053 5.452l-5.998 7.633zm29.223-30.64 5.834-4.089 14.829 20.827-5.833 4.144zM92.03 86.197l6.379-1.799 13.848 10.141-3.707-13.03 6.706-1.908 6.979 24.644-5.998 1.689-14.339-10.522 3.817 13.521-6.707 1.909zm57.682 7.906-2.289-7.47-3.436 7.033zm-5.015-16.139 6.814.49 8.94 26.497-7.577-.544-1.526-4.689-9.869-.764-2.126 4.417-7.47-.545zm37.945 8.069 6.488 3.761.383 11.614 10.195-5.562 6.487 3.762-12.759 22.19-6.106-3.544 7.361-12.757-10.686 5.452-.109-.055-.655-11.886-7.305 12.704-6.052-3.489zm32.276 50.54a5.76 5.76 0 0 0 1.963 1.854 6.6 6.6 0 0 0 2.398.818c.819.109 1.69.055 2.563-.163a7.5 7.5 0 0 0 2.4-1.145l.055-.054a8 8 0 0 0 1.908-1.909c.49-.763.816-1.527.98-2.399a6.8 6.8 0 0 0 0-2.562 5.96 5.96 0 0 0-1.092-2.508 5.76 5.76 0 0 0-1.961-1.853 6.6 6.6 0 0 0-2.4-.818 5.9 5.9 0 0 0-2.562.218c-.817.218-1.637.6-2.398 1.145h-.055a7 7 0 0 0-1.854 1.963c-.49.709-.816 1.527-1.036 2.344a6.7 6.7 0 0 0 0 2.563 6 6 0 0 0 1.091 2.506m-5.289 3.653q-1.717-2.372-2.289-5.07a12.8 12.8 0 0 1-.219-5.179c.272-1.69.874-3.271 1.745-4.798.928-1.472 2.126-2.725 3.599-3.816l.055-.055c1.527-1.036 3.106-1.744 4.852-2.126 1.69-.381 3.436-.381 5.126-.109 1.69.328 3.324.981 4.852 1.963 1.527.927 2.891 2.235 4.034 3.816 1.146 1.636 1.908 3.326 2.345 5.07.381 1.799.436 3.543.218 5.234a12.9 12.9 0 0 1-1.8 4.744c-.871 1.526-2.071 2.78-3.597 3.815l-.055.055a12.7 12.7 0 0 1-4.799 2.182c-1.745.327-3.434.381-5.179.054a14.1 14.1 0 0 1-4.854-1.908 14.3 14.3 0 0 1-4.034-3.872m-100.97 166.395c-1.473 0-2.89-.272-4.198-.763q-2.044-.817-3.435-2.289c-.981-.982-1.745-2.126-2.344-3.436-.546-1.363-.818-2.779-.818-4.361v-.055q0-2.29.818-4.252a10.2 10.2 0 0 1 2.29-3.49c.981-.98 2.181-1.744 3.544-2.344q1.962-.818 4.416-.819 1.554.001 2.944.329c.873.218 1.635.49 2.398.871a10 10 0 0 1 1.963 1.419c.6.544 1.145 1.144 1.582 1.744l-4.362 3.379c-.599-.762-1.254-1.361-2.017-1.799-.708-.436-1.581-.653-2.562-.653-.764 0-1.418.163-2.072.436-.6.326-1.09.71-1.527 1.2-.49.49-.817 1.089-1.036 1.745-.272.708-.381 1.416-.381 2.181v.054c0 .763.109 1.527.381 2.235.219.653.546 1.255 1.036 1.745.437.49.927.926 1.527 1.198.654.274 1.308.438 2.072.438q.735 0 1.472-.163a4 4 0 0 0 1.199-.547c.382-.218.709-.49 1.091-.817.327-.271.653-.653.926-1.036l4.417 3.108c-.491.708-1.036 1.309-1.636 1.908a9.4 9.4 0 0 1-2.017 1.527c-.764.381-1.581.708-2.508.98-.928.218-2.018.327-3.163.327m14.066-21.371h5.833v20.989h-5.833zm16.956 5.07h-6.324v-5.069h18.428v5.069h-6.324v15.92h-5.779zm22.842 8.068-7.96-13.138h6.599l4.361 7.631 4.307-7.631h6.542l-8.015 13.029v7.96h-5.834zM138.264.492l7.359 17.5 18.918 1.636c.438 0 .765.381.765.871-.055.219-.163.437-.327.546l-14.34 12.376 4.309 18.537a.814.814 0 0 1-.602.981c-.218.054-.49 0-.653-.164L137.5 42.962l-16.247 9.869c-.381.218-.873.109-1.09-.272a.63.63 0 0 1-.109-.6l4.307-18.537-14.339-12.376a.8.8 0 0 1-.109-1.145c.164-.163.327-.272.545-.272l18.919-1.636 7.36-17.5c.163-.382.654-.6 1.09-.437.218.108.327.272.437.436"/><path fill="#FBCD21" d="m138.209 3.108 6.651 15.92 17.173 1.417c.437.054.709.382.709.818a1.15 1.15 0 0 1-.327.546L149.439 33.04l3.926 16.792c.109.382-.163.764-.545.873a.76.76 0 0 1-.601-.109l-14.72-8.887-14.775 8.887c-.328.218-.763.109-.982-.218-.109-.164-.109-.382-.109-.546l3.925-16.792-13.03-11.286c-.327-.273-.327-.709-.055-1.036.11-.165.273-.219.491-.273l17.174-1.417 6.706-15.92c.109-.381.545-.545.927-.381.219.054.329.217.438.381"/></svg>