<svg xmlns="http://www.w3.org/2000/svg" xml:space="preserve" width="275" height="282.245"><path fill="#EEEFF0" fill-rule="evenodd" d="M135.144 281.144c-22.213-10.302-43.494-22.834-62.32-38.555C13.948 193.451-4.229 126.672.795 52.272l.169-2.456 1.891-1.524C41.946 16.483 87.049 0 137.514 0c50.437 0 95.54 16.483 134.63 48.292l1.892 1.524.169 2.456c5.024 74.4-13.152 141.179-72.028 190.317-18.826 15.721-40.107 28.253-62.319 38.555l-2.343 1.101z" clip-rule="evenodd"/><path fill="#0A2C5F" fill-rule="evenodd" d="M135.144 281.144c-22.213-10.302-43.494-22.834-62.32-38.555C13.948 193.451-4.229 126.672.795 52.272l.169-2.456 1.891-1.524C41.946 16.483 87.049 0 137.514 0c50.437 0 95.54 16.483 134.63 48.292l1.892 1.524.169 2.456c5.024 74.4-13.152 141.179-72.028 190.317-18.826 15.721-40.107 28.253-62.319 38.555l-2.343 1.101zm.592-1.269c-22.1-10.274-43.268-22.722-62.009-38.357C15.302 192.745-2.818 126.446 2.206 52.357l.142-1.835 1.411-1.157C42.595 17.753 87.331 1.412 137.514 1.412c50.155 0 94.891 16.342 133.727 47.953l1.44 1.157.112 1.835c5.024 74.089-13.068 140.388-71.521 189.16-18.713 15.636-39.91 28.083-61.981 38.357l-1.778.817z" clip-rule="evenodd"/><path fill="#0A2C5F" fill-rule="evenodd" d="M137.514 276.064C60.405 240.247-2.141 178.831 6.412 52.639 44.317 21.79 88.065 6.238 137.514 5.617c49.449.621 93.169 16.172 131.075 47.021 8.552 126.193-53.965 187.609-131.075 223.426m.424-265.282c63.054 0 114.14 51.086 114.14 114.139 0 63.025-51.086 114.14-114.14 114.14-63.025 0-114.14-51.114-114.14-114.14 0-63.052 51.114-114.139 114.14-114.139" clip-rule="evenodd"/><path fill="#EEEFF0" fill-rule="evenodd" d="M252.077 124.921c0-62.884-51.255-114.139-114.14-114.139-62.855 0-114.14 51.255-114.14 114.139 0 62.855 51.284 114.14 114.14 114.14 62.885 0 114.14-51.284 114.14-114.14" clip-rule="evenodd"/><path fill="#24345F" fill-rule="evenodd" d="M137.938 15.552c60.4 0 109.37 48.969 109.37 109.369 0 60.372-48.97 109.342-109.37 109.342-60.372 0-109.342-48.97-109.342-109.342 0-60.4 48.969-109.369 109.342-109.369m0 3.387c58.537 0 105.982 47.445 105.982 105.982 0 58.51-47.445 105.955-105.982 105.955-58.509 0-105.955-47.445-105.955-105.955 0-58.537 47.445-105.982 105.955-105.982" clip-rule="evenodd"/><path fill-rule="evenodd" d="M151.146 129.663c1.101 1.779 2.879 3.669 3.472 3.669-.367-1.552-.762-2.766-.452-4.206.227.508 1.355 3.557 1.524 5.222.17 1.835-1.383 1.129-2.004.649-2.682-2.173-5.701-4.854-7.226-7.62 4.29-.283 7.96-1.412 7.96-5.053 8.1-1.891 12.531 2.541 12.503 6.069-.028 2.201-2.343 3.923-5.193 3.895 2.766-2.088.621-4.572-2.202-5.278-2.342-.564-5.022-.31-7.026.226-1.271.31-2.429.734-1.356 2.427m-24.499-21.027c6.464 2.54-3.782.959-11.826 3.076l2.794 4.093c3.077-.395 14.648-1.411 18.036.169-6.463.226-12.842.734-18.713 2.399l4.206 5.024c6.717-3.048 13.322-3.584 19.644-1.326-7.508-.621-13.661 0-17.668 3.895l6.068 4.149c2.201-4.995 8.495-7.168 12.418-5.362-2.878 1.213-12.87 3.048-5.476 6.746 2.484-4.601 5.222-5.193 8.411-5.165 3.67.056 8.523-.283 8.835-4.262-1.609 1.326-2.992 1.947-4.687 1.947.028-2.343.367-4.713-.592-5.645-.678-.649-5.899-2.907-7.112-3.641 2.907.705 5.785 1.75 8.607 3.274 2.597 1.383 2.852 2.737 4.741 3.048.988.169 1.807.141 3.727-.198 1.976-.339 2.738-.762 1.27-1.778-1.807-1.213-5.249-3.189-8.918-4.939-6.153-2.992-12.927-5.561-12.871-5.222 0 .169.592.706.395 1.298-2.087-.62-8.635-1.552-11.289-1.58m1.864 52.582c-2.258 3.415-4.093 7-5.589 10.726-1.411-.848-2.597-1.892-3.387-3.359-.649-6.548.339-13.491 2.851-17.64.932-.762 2.173-1.271 3.697-1.58.508 4.092 1.299 8.043 2.428 11.853m15.805-9.934 12.531 6.633-2.427 13.942-7 1.016-7.028 1.017-6.265-12.729zm-1.185-4.319a46.5 46.5 0 0 0-11.318-2.032c.564-1.891 1.327-3.754 2.682-5.646 4.938-2.173 10.076-2.907 15.41-2.625 1.92 1.354 3.302 2.992 4.431 4.742-3.923 1.638-7.705 3.416-11.205 5.561m19.361 8.242c-.112-4.035-.535-7.987-1.354-11.854a7.2 7.2 0 0 1 3.669.452c4.996 4.91 7.451 10.528 8.581 16.482-.424 1.412-1.044 2.738-2.145 3.839-2.738-3.246-5.674-6.181-8.751-8.919m-4.853 17.893c3.753-.817 7.62-2.427 11.516-4.346a21.6 21.6 0 0 1 1.834 6.632c-2.681 4.968-6.266 8.892-10.697 11.771-2.681-.339-5.137-.987-7.338-1.976 1.861-3.895 3.47-7.875 4.685-12.081m-20.408 4.602c-3.951-.141-7.874-.593-11.826-1.157-.197 1.496-.169 3.077.339 4.854 3.782 3.951 8.411 6.943 14.253 8.692a18.4 18.4 0 0 0 5.898-3.584c-3.245-2.85-6.123-5.785-8.664-8.805m-26.643 2.257c-8.467-13.66-12.136-35.055-6.463-56.449l-5.956-6.266c-5.023 13.068-7.225 46.006 9.625 65.198 2.342 2.682 4.487 3.585 5.137 2.767.592-.762-.226-1.834-2.343-5.25m-10.076-1.918c-10.189-13.689-14.366-37.651-4.544-62.997l-4.262-4.657c-8.58 14.592-14.225 50.973 6.182 68.642 2.371 2.061 5.278 3.584 5.56 2.964.169-.397-1.017-1.385-2.936-3.952m-15.58-12.843c-7.423-14.479-6.294-38.329 4.008-56.477l-5.052-2.568c-9.004 13.067-13.547 38.328-1.666 59.13 2.766 4.855 6.548 9.286 7.198 8.693.452-.424-1.468-2.851-4.488-8.778m45.949-57.493c9.229-11.375 26.786-28.084 42.675-35.789-10.442 2.907-38.667 18.176-51.312 34.857 2.767.283 5.871.339 8.637.932m-48.094 62.178c-14.958-17.979-21.196-48.123 9.258-77.758-2.851 3.726-4.685 7.31-4.854 10.753-.113 2.343.931 3.161 1.693 3.104 1.27-.084 1.439-2.061 1.496-2.991.169-5.786 4.572-11.234 8.862-13.181-1.524 2.117-8.976 7.931-6.181 18.515 1.27-7.226 3.951-13.463 10.189-15.89-4.601 4.234-9.455 11.628-6.351 19.051 1.157-6.068 2.766-12.165 7.423-15.326-4.967 10.189-7.254 20.547 2.088 26.277.593-9.371-2.004-13.887 1.637-20.435 1.637 4.008 1.807 14.253.931 18.289-.705 3.303-1.834 3.274-2.907 5.278-1.693 7.846-1.439 15.834-.649 23.85 5.561-1.609 27.152-10.923 32.12-18.29 1.806-2.681 3.641-4.177 7.931-3.443 1.75 2.992 4.12 5.476 6.803 7.508 3.725 2.766 4.685.338 4.063-2.032-1.129-4.092-2.766-5.842 2.004-5.334 3.33.366 5.701 2.935.847 4.882 4.318 1.666 8.552-.79 8.692-4.177.113-2.427-1.27-5.786-7.423-7.479 3.896-1.271-2.85-4.037-7.055-6.689 4.205-4.29 8.41-8.552 12.616-12.842-2.4-2.541-4.149-5.419-5.42-8.58 1.271 1.439 2.23 2.483 3.811 3.048.903.311 1.101-.762 1.354-1.439.621 1.383 1.355 2.907 1.976 4.29 5.702-7.536 9.314-18.346 9.146-27.406 1.298-.932 1.523-2.343 1.129-2.823-1.411-1.665-5.843.339-10.641 2.738-17.303 8.58-36.833 22.41-48.349 33.756-1.806 1.129-7.367 1.778-9.173.677.79-14.902 23.906-31.272 35.957-35.704 3.473-1.27 1.807-1.524-.197-1.665-16.793-1.101-48.292 6.407-67.118 29.325-17.017 20.718-19.332 49.733 4.292 72.143" clip-rule="evenodd"/><path fill="#162C49" d="m56.171 77.363 15.241 8.806c.367.198.621.282.847.226.141-.028.226-.056.282-.112.057-.028.226-.198.508-.48.338-.367.705-.452 1.072-.226.226.141.338.338.367.649 0 .226-.113.536-.338.903l-.254.451-3.33 5.786-.198.339c-.198.311-.395.536-.593.621a.66.66 0 0 1-.649-.028c-.366-.198-.479-.508-.395-.932.056-.338.084-.536.113-.593a.46.46 0 0 0-.084-.226c-.057-.198-.254-.367-.564-.536l-13.012-7.508c-.283-.198-.536-.254-.734-.254-.113.028-.197.028-.254.085-.028.028-.197.169-.451.395-.311.283-.649.311-1.017.113a.7.7 0 0 1-.338-.536c-.028-.254.057-.508.226-.818l.198-.339zm.649-1.156 3.021-5.222 4.543 2.597c.283.197.48.367.537.536.056.169.028.396-.085.621-.113.169-.226.282-.395.339a1.5 1.5 0 0 1-.593-.028 6.7 6.7 0 0 0-1.468-.17c-.479 0-.903.085-1.326.17-.536.169-1.016.395-1.439.733-.452.311-.875.762-1.27 1.298zm9.428 5.531-1.524-.875c.057-.649.028-1.186-.113-1.581-.169-.395-.452-.791-.875-1.186-.282-.254-.452-.48-.508-.649a.75.75 0 0 1 .084-.593c.169-.282.367-.423.649-.396.17 0 .423.113.819.367l4.967 2.851c.395.226.649.423.762.621.113.169.084.395-.056.621-.113.197-.254.338-.452.367q-.297.085-.763-.085c-.705-.169-1.27-.226-1.75-.141a2.2 2.2 0 0 0-1.24.679m11.205-8.044a2.8 2.8 0 0 1 1.976-.988c.818-.057 1.524.169 2.117.706.621.537.96 1.186 1.016 2.004a2.8 2.8 0 0 1-.706 2.117 2.92 2.92 0 0 1-2.004.988c-.818.057-1.524-.169-2.117-.706-.621-.536-.959-1.185-1.016-2.004-.029-.79.197-1.496.734-2.117m14.45-6.689-5.278 4.121-.31.254c-.282.226-.536.338-.791.338-.226.028-.423-.084-.564-.253-.254-.339-.282-.677-.028-1.016a7 7 0 0 0 .339-.508c.028-.056.028-.141.028-.254a1.33 1.33 0 0 0-.339-.705l-9.257-11.854c-.198-.254-.423-.424-.593-.48-.113-.028-.198-.057-.254-.028-.057 0-.254.084-.564.197-.424.141-.734.057-.988-.282-.141-.198-.197-.396-.113-.622.057-.226.226-.452.537-.677l.282-.226 5.278-4.121.311-.254c.282-.226.536-.338.791-.338q.339-.042.592.254c.226.339.254.677.028 1.016a7 7 0 0 0-.339.508.36.36 0 0 0-.028.254c0 .197.113.423.311.706L90.21 64.86c.339.452.649.621.959.508l.452-.169c.367-.113.677-.028.96.311.31.395.197.818-.367 1.27zm-4.262-15.1 10.867 6.548c.283.169.536.282.734.339.198.056.423.056.649 0 .226-.057.367-.084.451-.084.198.028.367.141.508.31.311.423.198.847-.395 1.327L94.5 64.973c-.282.226-.564.338-.79.338-.254 0-.452-.113-.621-.31-.198-.254-.226-.565-.028-.932.113-.254.169-.423.198-.508a.75.75 0 0 0-.085-.339 2 2 0 0 0-.395-.311l-5.052-3.331c-.452-.31-.819-.593-1.044-.903-.198-.254-.339-.649-.339-1.158l-.311-6.181c0-.593-.169-1.073-.48-1.468-.197-.226-.395-.396-.677-.48-.254-.113-.508-.113-.79-.028l-.564.141c-.339.084-.622.028-.819-.254-.169-.198-.226-.452-.169-.706.056-.169.197-.367.452-.537l4.205-3.302c.282-.226.537-.311.79-.311.254 0 .452.113.621.339.254.311.254.706.028 1.129l-.452.734c-.169.282-.338.762-.479 1.411-.113.48-.142 1.186-.142 2.117zm17.133.931c.733-.338 1.496-.367 2.229-.057.762.283 1.298.791 1.637 1.524.311.734.339 1.496.057 2.23-.282.762-.818 1.298-1.552 1.637a2.9 2.9 0 0 1-2.23.057c-.733-.311-1.298-.819-1.608-1.552-.339-.734-.339-1.468-.057-2.23q.423-1.143 1.524-1.609m16.229.029-6.548 1.383-.395.084a1.4 1.4 0 0 1-.847-.028.58.58 0 0 1-.395-.508c-.085-.395.056-.706.395-.903.311-.169.48-.282.536-.311a.8.8 0 0 0 .141-.226q.126-.254 0-.762l-3.105-14.705c-.084-.338-.197-.593-.338-.706a.7.7 0 0 0-.198-.141c-.084 0-.282-.028-.621-.085-.423-.028-.677-.254-.762-.649-.056-.254 0-.452.169-.621.169-.197.423-.311.79-.395l.367-.057 6.548-1.411.395-.085c.339-.057.622-.057.847.028.226.085.339.254.395.508.085.395-.056.706-.395.932-.311.169-.48.282-.536.311-.057.028-.085.084-.141.197-.084.197-.084.452 0 .791l3.104 14.676c.113.565.338.847.649.875l.479.057c.395.056.621.282.734.678.084.507-.197.846-.903.987zm2.766-15.468 6.915 10.669c.169.282.367.48.508.621.169.141.367.226.593.282s.367.084.423.113a.83.83 0 0 1 .339.508c.113.537-.198.847-.932 1.016l-7.395 1.581c-.339.057-.649.057-.847-.056a.74.74 0 0 1-.423-.564c-.084-.311.057-.593.395-.847.198-.169.311-.282.396-.366.056-.113.084-.198.056-.339 0-.057-.084-.226-.226-.452l-3.048-5.193c-.282-.479-.479-.903-.564-1.27-.056-.339 0-.734.198-1.213l2.456-5.673a2.73 2.73 0 0 0 .197-1.552c-.056-.283-.197-.508-.395-.734a1.33 1.33 0 0 0-.677-.367l-.593-.113c-.367-.056-.564-.254-.649-.564a.79.79 0 0 1 .197-.734c.084-.113.311-.226.621-.282l5.222-1.129c.339-.057.621-.057.847.057q.338.169.423.593c.084.395-.057.733-.48 1.016l-.706.479c-.31.198-.649.537-1.072 1.044-.31.395-.649 1.016-1.044 1.863zm12.842 7.395.819-11.741c.028-.339-.028-.593-.113-.762-.057-.113-.113-.17-.17-.198a4 4 0 0 0-.564-.226c-.395-.169-.564-.452-.536-.847a.59.59 0 0 1 .339-.564c.197-.113.48-.169.846-.141l.367.028 6.689.452.395.028.537.113a.8.8 0 0 1 .395.282.95.95 0 0 1 .141.48q-.04.592-.677.762c-.339.084-.508.141-.593.141a.5.5 0 0 0-.169.169c-.142.142-.197.396-.226.763l-.875 12.56c-.085.847-.085 1.439-.085 1.778.028.339.113.649.226.903.113.253.254.452.395.592.171.113.452.254.903.424l-.141 1.947h-.339c-1.298-.113-2.37-.282-3.217-.564-.988-.366-1.835-.818-2.569-1.411-.706-.564-1.213-1.186-1.467-1.891-.311-.705-.396-1.75-.311-3.077m9.285 7.057.113-1.976c1.017-.057 1.891-.396 2.597-1.044.818-.734 1.27-1.835 1.383-3.302l.678-9.766c.084-1.383-.367-2.371-1.383-2.964-.283-.197-.48-.338-.565-.451a.76.76 0 0 1-.112-.508c.028-.283.112-.452.31-.537.199-.113.509-.141.96-.113l3.67.254c.311.028.508.057.62.057.085.028.198.084.283.141.254.17.366.396.338.65 0 .226-.112.395-.253.536-.057.056-.283.169-.678.367-.451.198-.819.536-1.129 1.016-.282.479-.424 1.044-.48 1.665l-.677 9.766c-.113 1.666-.594 3.021-1.411 4.064-.593.762-1.412 1.327-2.456 1.75a6.4 6.4 0 0 1-1.808.395m17.697 3.782-6.237-2.399-.366-.141c-.339-.141-.565-.311-.706-.508s-.142-.396-.057-.621c.141-.395.424-.564.847-.564.339.028.537.028.594.028.084 0 .141-.028.226-.084.169-.113.338-.339.451-.649l5.391-14.027c.112-.339.142-.593.112-.791a.43.43 0 0 0-.112-.226c-.057-.028-.197-.169-.479-.396-.311-.253-.395-.592-.254-.959.085-.226.254-.395.479-.423.226-.085.509-.029.847.084l.367.141 6.237 2.398.367.142c.339.141.593.31.705.508.142.169.17.395.085.621-.169.396-.451.564-.875.564-.339-.028-.536-.028-.593-.028a.45.45 0 0 0-.226.085c-.169.113-.311.339-.452.649l-5.391 14.028c-.197.536-.169.875.057 1.072l.396.311c.311.254.396.564.226.959-.169.48-.593.621-1.27.367zm10.754-11.46v12.701c0 .339.028.593.086.819.056.197.169.366.338.536.141.169.254.282.282.338a.73.73 0 0 1 0 .593c-.169.508-.62.621-1.326.339l-7.057-2.682c-.339-.141-.564-.311-.677-.536-.142-.197-.142-.423-.058-.706.114-.282.367-.452.791-.479.254-.028.424-.057.536-.113.113-.028.169-.113.226-.226.028-.057.057-.226.085-.48l.254-6.04c.028-.564.084-1.016.226-1.355.113-.338.396-.649.818-.931l5.137-3.415c.509-.339.848-.734 1.017-1.213.112-.254.112-.508.085-.791a1.36 1.36 0 0 0-.396-.706l-.424-.396c-.254-.253-.338-.536-.226-.847.113-.254.282-.423.537-.508.169-.028.395 0 .705.113l4.996 1.891q.465.212.678.508c.112.226.141.48.027.734-.141.395-.479.592-.959.592h-.848c-.366 0-.847.113-1.467.311-.48.169-1.101.479-1.892.988zm21.197 5.899-12.616 16.145-5.25-4.093-.311-.253c-.282-.226-.479-.452-.536-.678-.085-.226-.028-.423.112-.621.254-.338.593-.423.988-.282.311.113.508.197.564.197.056.028.142 0 .254-.028.198-.056.396-.226.621-.48l9.229-11.854c.226-.254.338-.508.338-.706 0-.113 0-.198-.028-.226-.027-.057-.141-.226-.338-.537-.226-.339-.226-.678.028-1.016a.66.66 0 0 1 .593-.254c.226 0 .508.141.79.339l.282.253zm1.044.847 4.77 3.697-3.273 4.206c-.197.226-.367.367-.565.423-.169.028-.366-.028-.563-.198-.169-.141-.282-.282-.311-.395-.028-.142.028-.339.113-.621.423-1.129.535-2.173.338-3.105-.197-.959-.734-1.834-1.58-2.625zm-6.775 8.552 1.073-1.383c.621.142 1.157.17 1.581.085s.846-.311 1.298-.678c.282-.226.536-.366.734-.423.169-.029.366.028.563.169.254.197.339.452.282.705-.028.141-.169.396-.451.763l-3.527 4.516c-.283.367-.537.592-.734.677-.169.057-.395.028-.621-.141a.77.77 0 0 1-.282-.508q-.042-.296.169-.762c.312-.649.424-1.214.424-1.693a2.34 2.34 0 0 0-.509-1.327M184 67.062l.988-1.298q.846.508 1.523.677c.451.113.96.17 1.523.142.565-.028 1.073-.113 1.525-.283.451-.141.959-.423 1.523-.79.283-.169.509-.282.678-.282q.253-.042.508.169c.227.17.311.339.311.537-.028.198-.169.479-.396.791L188.91 70.9zm12.446-23.483c.48.367.763.847.847 1.468.085.621-.084 1.157-.451 1.637s-.875.762-1.496.847a2.2 2.2 0 0 1-1.608-.451c-.48-.396-.763-.875-.847-1.496-.085-.593.084-1.157.451-1.637a2.05 2.05 0 0 1 1.468-.818c.621-.087 1.157.055 1.636.45m4.517 3.5c.479.395.762.875.817 1.495a2.13 2.13 0 0 1-.423 1.638c-.395.479-.875.762-1.495.818-.621.084-1.157-.057-1.638-.452-.479-.367-.762-.847-.818-1.468-.085-.621.057-1.157.452-1.637.366-.48.847-.762 1.467-.846.622-.056 1.157.085 1.638.452m10.245 17.894-1.354 1.101c-.508-.395-1.017-.593-1.496-.621s-.903.113-1.327.452a2.14 2.14 0 0 0-.761 1.129c-.113.452-.113 1.016 0 1.722.084.452.338 1.496.761 3.048q.382 1.397.509 2.286a8 8 0 0 1-.028 1.834c-.226 1.693-1.016 3.077-2.343 4.149-.987.819-2.116 1.299-3.358 1.496-1.242.169-2.428 0-3.613-.48-.621-.253-1.241-.621-1.835-1.044a8.7 8.7 0 0 1-1.467-1.383l1.326-1.073c.706.537 1.326.847 1.863.903.535.057 1.044-.113 1.552-.508.509-.423.79-1.044.79-1.806.028-.536-.141-1.383-.451-2.568a46 46 0 0 1-.705-2.682 9.4 9.4 0 0 1-.198-1.524c-.141-2.314.65-4.177 2.399-5.561q1.313-1.1 2.879-1.439a5.9 5.9 0 0 1 3.049.056c1.38.396 2.651 1.215 3.808 2.513m-.593 2.004 1.271-1.044c.366.508.621.959.818 1.383.169.396.395 1.044.648 1.892.058.197.114.338.198.451.142.141.282.198.423.198l.537-.028c.282 0 .508.084.648.254.169.226.197.423.142.649-.085.226-.282.452-.593.734l-3.867 3.104c-.226.197-.451.282-.706.254-.253 0-.451-.113-.62-.31-.112-.17-.197-.339-.197-.564q0-.17.085-.339c.056-.113.169-.283.366-.508.311-.367.565-.847.818-1.383a7 7 0 0 0 .479-1.608 5.24 5.24 0 0 0-.45-3.135m-15.099 9.709-1.355 1.073c-.508-.621-.903-1.468-1.157-2.541a5.5 5.5 0 0 0-.226-.818.8.8 0 0 0-.197-.338.84.84 0 0 0-.339-.311 3.5 3.5 0 0 0-.705-.056c-.282 0-.48-.084-.621-.254-.339-.423-.198-.903.479-1.468l4.234-3.416c.226-.197.479-.282.732-.282.227 0 .452.113.594.282.169.17.226.339.197.508-.028.198-.141.423-.366.706a10.7 10.7 0 0 0-1.242 2.314 8 8 0 0 0-.537 2.371c-.028.791.113 1.552.509 2.23m9.511 16.963-3.133-5.927-.198-.339c-.169-.311-.226-.593-.197-.819a.62.62 0 0 1 .367-.536c.366-.198.705-.141 1.017.141.226.254.395.395.423.424q.084.042.254.084c.197.028.452-.056.762-.226l13.237-7.028c.311-.169.508-.339.593-.536.057-.084.085-.169.085-.226s-.028-.254-.085-.593q-.127-.634.423-.931a.66.66 0 0 1 .649 0c.197.113.395.311.565.649l.197.338 3.133 5.899.169.338c.169.311.254.593.226.847-.028.226-.169.395-.366.508-.368.197-.706.169-1.017-.141-.254-.226-.396-.367-.452-.396-.028-.056-.112-.084-.226-.084-.197-.028-.451.028-.762.197l-13.266 7.056c-.31.169-.479.339-.564.508-.057.113-.085.17-.085.254q0 .085.085.593c.085.423-.057.706-.423.903a.75.75 0 0 1-.649.028c-.226-.113-.396-.339-.564-.649zM112.027 193.281l-9.258 20.773c-.197.48-.253.847-.169 1.129a.65.65 0 0 0 .169.34c.057.056.283.254.706.563q.762.593.423 1.354c-.141.312-.395.509-.79.537-.282.057-.706-.057-1.214-.282l-.593-.255-6.802-3.019-.593-.283c-.508-.226-.847-.451-1.016-.705-.226-.312-.254-.621-.113-.932q.338-.805 1.271-.593c.508.084.818.112.903.141a.7.7 0 0 0 .367-.112c.254-.142.48-.424.706-.876l7.367-16.566c.254-.594.395-1.073.395-1.412s-.113-.592-.367-.733l-.593-.367c-.508-.339-.649-.733-.452-1.214.169-.395.48-.592.932-.649.226-.028.621.058 1.185.283zm7.875 27.209-.48 1.891c-1.242-.31-2.427-.932-3.556-1.835-.932-.789-1.609-1.664-2.004-2.652-.423-.96-.479-1.919-.253-2.879.253-1.044.846-1.807 1.721-2.343.875-.508 1.834-.649 2.879-.396.932.227 1.637.734 2.145 1.524.508.763.649 1.58.423 2.428-.141.593-.395 1.072-.79 1.411l-.819.705q-.338.296-.423.594-.127.549.339 1.101c.169.169.423.309.818.451m.931 2.258.479-1.891q.636-.042 1.016-.17c.226-.085.452-.254.678-.479.451-.451.734-.988.903-1.609l4.347-17.329c.142-.564.226-.988.254-1.242s0-.48-.113-.678c-.113-.338-.452-.62-.988-.932l.452-1.834a9.1 9.1 0 0 1 3.105 1.919 9.9 9.9 0 0 1 2.229 3.076c.649 1.327 1.016 2.936 1.073 4.771.084 1.863-.141 3.81-.649 5.814-1.072 4.29-3.161 7.395-6.266 9.285-1.073.65-2.173 1.102-3.331 1.327-1.128.226-2.201.226-3.189-.028m4.008-14.113-.564 2.174c-1.552.395-2.964.452-4.233.112a7.2 7.2 0 0 1-2.23-1.016 7.5 7.5 0 0 1-1.75-1.778 6.55 6.55 0 0 1-.959-2.568 7.15 7.15 0 0 1 .141-2.88 9.2 9.2 0 0 1 2.004-3.81c.959-1.129 2.06-1.947 3.331-2.428 1.806-.677 3.754-.733 5.871-.226l-.452 1.863c-.536 0-.932.112-1.213.311-.311.227-.508.621-.649 1.129l-1.778 7.169c-.141.564-.141 1.016.028 1.412.142.366.423.592.819.677.393.085.929.057 1.634-.141m53.006 7.677-.705-1.89c.31-.227.479-.425.593-.537a1.5 1.5 0 0 0 .254-.508c.169-.593.112-1.299-.226-2.146l-6.294-16.37c-.312-.847-.734-1.439-1.271-1.75a1.3 1.3 0 0 0-.509-.197c-.169-.028-.423-.028-.818 0l-.705-1.892a9.7 9.7 0 0 1 3.782-.226c1.185.197 2.398.649 3.669 1.383 1.354.79 2.597 1.892 3.669 3.247a17.9 17.9 0 0 1 2.653 4.797c.705 1.835 1.129 3.612 1.242 5.335.112 1.75-.085 3.387-.565 4.883-.423 1.383-1.044 2.568-1.806 3.5s-1.749 1.723-2.963 2.371m-1.383.537c-1.327.31-2.597.395-3.782.197-1.186-.169-2.427-.649-3.67-1.383a12.8 12.8 0 0 1-3.668-3.246c-1.073-1.355-1.977-2.963-2.682-4.798-.705-1.807-1.102-3.585-1.214-5.335-.113-1.75.057-3.358.564-4.883.424-1.383 1.017-2.54 1.806-3.472.763-.932 1.751-1.722 2.936-2.37l.734 1.862c-.31.254-.508.424-.593.564a1.2 1.2 0 0 0-.254.509c-.169.563-.112 1.27.226 2.116l6.294 16.398c.312.847.734 1.412 1.243 1.75.197.085.366.169.535.197.142.028.423.028.819 0zm-27.914 5.109.339 2.004c-1.439.057-2.709-.028-3.782-.311-1.241-.311-2.229-.819-3.02-1.552a4.9 4.9 0 0 1-1.44-2.683c-.169-1.072 0-2.004.565-2.85q.846-1.27 2.37-1.524c1.129-.197 2.117.084 3.021.847.621.536 1.016 1.186 1.129 1.892a3.5 3.5 0 0 1-.113 1.608 3.8 3.8 0 0 1-.875 1.411c-.338.367-.508.621-.479.762.028.197.282.339.734.424.45.085.958.056 1.551-.028m-4.29-24.556.339 1.919a5.3 5.3 0 0 0-1.017.537c-.112.112-.226.226-.311.366a1 1 0 0 0-.084.367c.057.198.226.367.508.536l1.016.536c.48.283.791.847.932 1.722a3.25 3.25 0 0 1-.564 2.54c-.564.791-1.299 1.271-2.258 1.412a3.15 3.15 0 0 1-2.54-.593c-.734-.564-1.214-1.354-1.383-2.371-.169-.847-.085-1.722.226-2.568.338-.875.847-1.637 1.553-2.343.844-.79 2.03-1.496 3.583-2.06m7.987 11.939c1.158.141 2.061.282 2.653.451s1.129.396 1.609.706c.648.423 1.213 1.016 1.692 1.749.452.734.763 1.553.932 2.428.339 1.948-.057 3.697-1.186 5.222-.678.932-1.581 1.693-2.71 2.343a12.6 12.6 0 0 1-3.81 1.298l-.818.113-.366-2.004c.677-.311 1.129-.705 1.382-1.157.17-.254.254-.536.282-.79.028-.283 0-.649-.057-1.072l-.959-5.477c-.113-.535-.197-.903-.282-1.157a2 2 0 0 0-.48-.648c-.423-.396-1.044-.564-1.806-.452-.509.057-.847.057-1.044-.028-.312-.112-.509-.366-.565-.706-.057-.366 0-.62.169-.817.171-.169.537-.339 1.073-.48 1.411-.366 1.976-1.213 1.75-2.512l-.141-.762-.763-4.29c-.141-.819-.395-1.383-.762-1.723-.367-.31-.959-.507-1.75-.563l-.367-2.004.536-.113a13 13 0 0 1 3.612-.084c1.215.141 2.259.451 3.161.931.875.451 1.609 1.045 2.174 1.806a6.1 6.1 0 0 1 1.072 2.513c.312 1.693 0 3.218-.874 4.544a5.4 5.4 0 0 1-1.299 1.439c-.477.393-1.155.816-2.058 1.296"/></svg>