<svg xmlns="http://www.w3.org/2000/svg" xml:space="preserve" width="275" height="329.188"><path fill="#FFF" fill-rule="evenodd" d="M0 0h275v192.266c0 65.023-65.165 121.197-137.477 136.922C65.165 313.463 0 257.289 0 192.266z" clip-rule="evenodd"/><path fill="#69CFF6" fill-rule="evenodd" d="M0 0h275v192.266c0 65.023-65.165 121.197-137.477 136.922C65.165 313.463 0 257.289 0 192.266zm11.438 11.437v180.829c0 5.902.599 11.805 1.798 17.57 10.561 51.697 63.273 89.377 110.914 104.041a163 163 0 0 0 13.374 3.598 174 174 0 0 0 13.373-3.598c47.641-14.664 100.308-52.344 110.915-104.041 1.151-5.766 1.798-11.668 1.798-17.57V11.437z" clip-rule="evenodd"/><path fill="#69CFF6" fill-rule="evenodd" d="M225.839 260.887V236.86h18.262a103.7 103.7 0 0 0 7.519-16.232h-25.78v-5.119h27.44a113 113 0 0 0 1.752-7.057 86 86 0 0 0 1.337-9.176h-30.621a96 96 0 0 0-.415-5.119h31.313c0-.602.047-1.246.047-1.891v-14.344h-34.681c-11.069-36.157-44.826-62.674-84.488-62.674-39.708 0-73.466 26.517-84.534 62.674H18.355v16.235h31.314a95 95 0 0 0-.415 5.119H18.632a76 76 0 0 0 1.384 9.176 72 72 0 0 0 1.752 7.057h27.393v5.119H23.428a96 96 0 0 0 7.517 16.232h18.216v24.027c5.211 5.443 10.93 10.516 16.972 15.174V203.61c0-39.246 32.144-71.391 71.391-71.391 39.199 0 71.391 32.145 71.391 71.391v72.451c5.993-4.659 11.713-9.731 16.924-15.174m-113.588-32.19v73.65a192 192 0 0 0 13.927 4.934 184 184 0 0 0 11.345 3.09c3.782-.92 7.563-1.936 11.345-3.09a199 199 0 0 0 13.881-4.934v-73.65c-7.286 4.658-15.956 7.332-25.226 7.332-9.316 0-17.986-2.674-25.272-7.332m-16.695 66.041v-84.303c-3.274-6.457-5.165-13.744-5.165-21.49 0-7.611 1.798-14.805 4.981-21.123v-5.211c-10.331 10.608-16.741 25.088-16.741 40.999v81.352c5.488 3.55 11.207 6.823 16.925 9.776m83.888-84.302v84.303a195 195 0 0 0 16.926-9.777V203.61c0-15.91-6.411-30.391-16.741-40.999v5.211c3.183 6.318 4.98 13.512 4.98 21.123 0 7.746-1.844 15.034-5.165 21.491" clip-rule="evenodd"/><path fill-rule="evenodd" d="m124.979 153.571-.691 1.984a73 73 0 0 0-6.272 3.827 97 97 0 0 0-6.318 4.658l-2.167-.092c.46-.507.968-1.014 1.475-1.522 3.873-3.92 8.669-6.964 13.973-8.855m41.275 11.253-2.489-.23c-1.799-1.522-3.781-3.043-5.904-4.565a73 73 0 0 0-7.563-4.612l-.785-2.029c5.536 1.845 10.471 4.981 14.528 9.039a37 37 0 0 1 2.213 2.397m3.321 43.535-1.014-3.643a87 87 0 0 0 2.581-7.332c.784-2.676 1.431-5.352 1.891-8.072l1.983-1.244v.877a37.14 37.14 0 0 1-5.441 19.414m-43.397 16.327a63 63 0 0 0 3.505-2.582 89 89 0 0 0 7.84.322c2.767 0 5.534-.139 8.301-.369l3.044 2.629c-3.598 1.105-7.425 1.752-11.345 1.752-3.966 0-7.748-.647-11.345-1.752m-19.876-20.663c-.461 1.199-.922 2.537-1.153 3.83a37.13 37.13 0 0 1-5.166-18.908c0-.371.046-.693.046-1.063.646.645 1.337 1.107 2.029 1.568a64 64 0 0 0 1.845 8.348c.692 2.306 1.476 4.382 2.399 6.225m39.8-5.027c-5.72 0-11.761.049-17.479.049l-8.578 11.574c2.49 3.412 6.087 6.826 9.592 10.055 2.628.275 5.257.367 7.886.367q4.22 0 8.438-.414c3.413-2.998 6.319-6.273 8.994-9.686zm6.685-17.199c-1.844 5.672-3.412 11.113-5.257 16.832l8.485 11.482a84.6 84.6 0 0 0 11.254-5.855 80 80 0 0 0 4.473-15.404l-6.179-11.16zm-43.257-3.967c-2.491 3.596-4.612 7.193-6.227 10.885q.76 4.77 1.938 8.715c.737 2.443 1.613 4.658 2.583 6.594 2.49 1.707 6.732 4.197 11.114 5.766l8.486-11.438c-1.845-5.672-3.643-11.066-5.488-16.74zm27.209-19.554c-3.459-.876-7.194-1.476-11.483-1.707-2.168 1.199-4.335 2.537-6.503 3.966-2.121 1.476-4.289 3.044-6.364 4.75a60.6 60.6 0 0 0-2.49 11.252l12.683 3.83 14.158-10.238zm1.384 11.853 14.25 10.33 12.729-4.061-2.307-10.836c-1.707-1.43-3.644-2.952-5.719-4.381-2.445-1.707-5.119-3.321-7.795-4.75-3.781.092-7.47.691-11.159 1.799zm-28.132-8.717c7.056-7.01 16.788-11.391 27.533-11.391 10.699 0 20.43 4.381 27.485 11.391 7.012 7.057 11.392 16.786 11.392 27.534 0 10.697-4.38 20.43-11.392 27.486-7.056 7.01-16.786 11.389-27.485 11.389-10.745 0-20.477-4.379-27.533-11.389-7.01-7.057-11.391-16.789-11.391-27.486 0-10.749 4.381-20.477 11.391-27.534" clip-rule="evenodd"/><path d="M25.872 54.88c0 13.374 14.389 15.172 14.389 24.811 0 3.367-1.476 4.566-3.827 4.566-2.353 0-3.829-1.2-3.829-4.566v-3.32h-6.917v2.859c0 7.471 3.736 11.76 10.93 11.76 7.24 0 10.976-4.289 10.976-11.76 0-13.375-14.389-15.173-14.389-24.812 0-3.321 1.337-4.612 3.689-4.612s3.689 1.291 3.689 4.612v1.937h6.964V54.88c0-7.471-3.69-11.76-10.838-11.76s-10.837 4.289-10.837 11.76m33.666 15.541h8.348v20.061h7.518V43.673h-7.518v20.061h-8.348V43.673h-7.332v46.809h7.332zm38.37 20.061h7.563L95.233 64.519l10.238-20.845h-7.379l-9.638 20.383V43.673h-7.333v46.809h7.333V76.094l2.306-4.289zm10.653-46.809v35.648c0 7.472 3.782 11.761 10.976 11.761 7.241 0 10.976-4.289 10.976-11.761V43.673h-6.963v36.11c0 3.32-1.476 4.519-3.828 4.519-2.306 0-3.782-1.199-3.782-4.519v-36.11zm37.494 0h-10.238v46.809h6.456V57.37l5.442 33.112h6.964l5.072-33.574v33.574h6.964V43.673h-10.236l-4.981 33.204zm37.494 0h-11.114v46.809h11.576c7.378 0 11.16-3.874 11.16-11.114V75.54c0-4.935-1.522-8.486-5.488-10.008 3.274-1.522 4.751-4.611 4.751-9.454v-1.66c0-7.194-3.275-10.745-10.885-10.745m-.461 25.733c3.32 0 4.75 1.338 4.75 5.673v4.104c0 3.459-1.338 4.612-3.827 4.612h-4.197V69.406zm.276-19.046c2.583 0 3.735 1.476 3.735 4.796v2.629c0 3.735-1.66 4.935-4.427 4.935h-2.859V50.36zm16.603 40.122h7.379V43.673h-7.379zm28.822 0h7.519V43.673h-6.549v27.993l-7.517-27.993h-9.271v46.809h6.641V56.586zm13.19 0h7.379V43.673h-7.379zM118.2 269.65h2.029v12.773h2.629v-16.74h-1.799c-.369 1.154-.83 2.121-2.859 2.121zm16.74.047c0-2.676-1.43-4.197-3.966-4.197-2.583 0-4.012 1.521-4.012 4.197v3.088c0 2.445.968 3.783 2.905 3.783 1.199 0 1.983-.508 2.444-1.477v3.09c0 1.568-.508 2.029-1.43 2.029-.876 0-1.383-.461-1.383-1.66v-.6h-2.491v.461c0 2.676 1.337 4.197 3.92 4.197 2.721 0 4.012-1.521 4.012-4.334v-8.577zm-3.966 4.518c-.876 0-1.383-.461-1.383-1.66v-2.998c0-1.197.507-1.611 1.383-1.611.83 0 1.338.414 1.338 1.611v2.998c0 1.199-.508 1.66-1.338 1.66m12.13-4.426c0 4.842-5.212 5.672-5.212 10.561v2.074h7.609v-2.396h-4.98v-.371c0-2.719 5.211-4.701 5.211-9.959 0-2.676-1.336-4.197-3.919-4.197s-3.921 1.521-3.921 4.197v1.658h2.49v-1.799c0-1.197.507-1.66 1.338-1.66.876-.001 1.384.416 1.384 1.892m4.842 9.592h5.073v3.043h2.582v-3.043h1.245v-2.398h-1.245v-11.299h-2.86l-4.795 11.299zm2.398-2.399 2.676-6.271v6.271z"/></svg>