<svg xmlns="http://www.w3.org/2000/svg" xml:space="preserve" width="275" height="324.972" viewBox="-13.639 -16.115 275 324.972"><path fill="#FFF" fill-rule="evenodd" d="M-13.639-16.114h275v186.606c0 26.622-4.783 50.758-23.16 70.897-14.16 15.42-34.93 25.175-53.811 33.639-20.77 9.44-42.011 18.473-60.325 32.287l-1.981 1.542-1.92-1.604c-13.846-11.675-30.934-19.825-47.234-27.346-24.544-11.266-52.835-22.94-69.859-44.748-3.366-4.248-6.324-8.717-8.779-13.595-7.835-15.827-7.93-34.992-7.93-52.426z" clip-rule="evenodd"/><path fill="#9498C6" fill-rule="evenodd" d="M-1.492-3.968h250.707v33.639H-1.492z" clip-rule="evenodd"/><path fill="#6F80BC" fill-rule="evenodd" d="M-1.492 33.133v136.164c-.063 15.104-.22 33.167 6.703 46.918 2.014 4.154 4.563 7.898 7.363 11.518a91 91 0 0 0 4.248 4.877c12.524 13.249 30.934 22.438 48.272 30.431v-15.105c-3.21.661-7.111 1.857-12.556 4.249-2.958 1.102-3.839-3.273-6.954-4.626-2.392-1.133-7.521-.252-8.057-1.542 6.767-1.511 17.717-3.336 27.566-3.997v-22.531h114.921c2.077-.063 4.218-.22 6.295-.408 17.685-1.354 37.73-3.588 55.384-4.94 5.916-13.5 7.614-28.448 7.521-44.024V33.133H-1.555zm88.394 27.724c5.507.63 10.636 1.604 15.985 3.367l2.801.85-2.895.661c-2.958.629-5.979 1.416-9.031 1.982 4.405 1.604 9.44 2.077 14.066 2.392h.251l.157.094c.473.409.882.882 1.133 1.354 2.077 3.588-1.195 8.812-3.933 12.084 1.856-.504 3.524-.976 5.443-1.763l1.92-.817-.881 1.856c-2.644 5.759-5.192 8.56-10.165 11.58 1.291.157 2.644.314 3.776.252l1.511-.157-.724 1.259c-1.92 3.272-4.06 6.01-7.018 8.087.314 0 .787 0 1.195-.095l2.958-.22-2.392 1.668c-6.797 4.563-18.314 5.759-25.678 2.077-4.312-2.172-6.294-7.05-1.259-9.756 3.336-1.762 8.874-2.234 10.699-5.979 1.825-3.776.095-6.955-2.706-9.598-2.644-2.393-5.759-4.626-8.717-6.703-3.431-2.329-7.206-4.721-10.888-6.64-.63 1.102-1.039 2.234-1.354 3.587l-.314 1.039-.944-.63c-6.482-4.563-11.266-9.283-16.08-15.514-2.801-3.745-5.507-7.521-8.465-11.203-.976-1.102-2.801-1.888-4.248-1.416-1.511.473-2.077 2.077-2.14 3.682-.095 2.141.472 4.154 1.195 6.073 2.958 7.993 9.346 14.854 15.167 19.794-4.216-2.958-12.366-9.031-17.181-21.556-.473-1.29-.944-2.392-2.077-3.367-.944-.724-1.982-1.133-3.115-.252-1.573 1.29-1.668 4.091-1.511 5.916.409 3.84 2.014 7.931 3.682 11.36 5.507 8.874 14.633 15.263 20.77 19.888-6.389-3.43-15.011-9.409-22.06-19.101-.881-1.039-4.94-5.57-6.797-3.902-3.588 3.43 5.286 14.854 7.458 17.653C27.611 84.74 33.684 90.342 39.6 93.3c-4.878-1.29-11.045-6.482-16.237-11.518-.409-.314-2.392-1.982-3.053-1.511-.85.63-.157 3.115.252 3.902 2.706 6.168 8.087 13.279 14.79 15.199l1.982.629-1.825.818c-5.286 2.454-9.346 6.293-1.511 8.779l1.763.566-1.542.882c-1.73.943-3.996 2.958-3.493 5.191.63 3.367 6.294 3.524 8.874 3.272l1.196-.157-.504 1.196c-.472 1.29-1.102 3.43-.221 4.783 1.511 2.423 8.371 1.699 10.7 1.542l.724-.095.094.724c1.196 9.031 9.881 7.898 16.458 5.444l1.195-.504-.094 1.228c-.63 7.646 4.72 8.843 11.202 8.056l3.021-.409-2.455 1.763c-3.524 2.549-7.835 4.092-11.359 6.64-2.863 2.077-4.626 3.431-6.482 6.073 2.392-.094 5.286-.565 7.835-1.51-1.668 1.195-3.839 2.392-5.821 3.114-3.367 1.196-7.269 3.524-9.692 6.138 3.115.251 6.482-.315 9.535-1.039 2.549-.535 5.098-1.038 7.584-1.825-1.763.944-4.721 2.643-6.86 3.682-3.053 1.417-5.854 2.958-8.401 5.192 2.643.314 4.877.221 7.583-.251 1.604-.315 3.524-.725 4.783-1.039-1.354.881-2.769 1.856-4.153 2.737-3.65 2.455-7.332 5.035-11.108 7.427-2.612 1.605-6.545 2.707-9.409 3.682l-.314.158-.346-.158c-3.273-1.919-8.371-3.934-12.147-4.248-2.14-.094-3.744 1.196-5.412 2.234.377.252.724.566 1.038.786.063.095.157.095.221.189.566.472 1.038 1.101 1.604 1.573.566.503 1.196.818 1.763 1.039 1.133.408 2.171.88 3.43.88-1.604.504-2.644.882-3.745 1.543-1.919 1.195-1.511 2.549-2.076 4.311 1.919-.252 3.744-.252 5.664-.252 1.668.095 3.934.157 5.507-.314 3.776-1.038 5.129-2.014 6.954-5.35.661 2.55.566 4.374 2.958 5.916 2.644 1.825 5.696 2.297 6.797 5.507 2.802-.723 5.759-2.014 4.469-5.349-1.038-2.645-6.073-4.657-8.213-6.169l-1.133-.786 1.195-.566c8.15-4.153 16.237-8.717 24.388-13.091l.63-.346.409.66c1.102 1.92 1.982 3.682 3.367 5.35 1.102-2.328 1.51-5.129 1.825-7.584l.157-1.542 5.602 4.657c1.51-4.563 2.392-7.457 5.758-11.045 1.039-1.195 2.707-2.549 3.683-3.902 1.038-1.447 1.73-3.114 2.769-4.721l1.039-1.604.346 1.92c1.763 9.44-2.014 17.339-7.458 24.608 3.21-.473 5.916-1.668 8.497-3.683 1.101-.88 1.982-1.824 3.021-2.863-.157 1.668-.566 3.273-1.038 4.878-.315.63-.566 1.353-.882 1.982-1.825 3.462-5.35 6.262-8.622 8.653 1.447.063 2.958 0 4.154-.251l1.762-.409-.881 1.542c-.409.787-.976 1.573-1.447 2.454-1.196 1.92-2.644 3.776-4.06 5.444 4.531-1.448 7.993-3.272 12.146-6.482l2.234-1.668-1.038 2.644c-.725 1.92-1.511 3.682-2.486 5.444 2.234-1.039 4.248-2.329 6.168-3.84l2.14-1.762-.944 2.643c-1.133 3.116-2.58 5.728-4.248 8.465 2.014-.723 3.996-1.51 6.073-2.234l1.133-.408-.157 1.195c-.409 4.972.221 6.23 3.179 9.346 2.485-2.076 3.775-5.034 3.114-8.307l-.313-1.826 1.51 1.102c1.384.882 3.524 1.92 5.444 2.329-1.605-2.329-3.21-4.972-3.839-7.678l-.63-2.234 1.825 1.447c1.699 1.259 3.366 1.763 5.35 2.14-.787-1.259-1.416-2.549-2.077-3.901l-1.416-3.273 2.611 2.392c3.777 3.273 7.302 4.469 11.77 4.06-2.895-1.668-6.011-3.272-7.93-6.23l-1.668-2.644 2.707 1.542c2.895 1.573 6.073 1.763 9.188 1.102-5.098-3.493-11.171-7.427-11.644-14.066l-.094-1.259 1.195.472c.41.158.725.409 1.196.63 1.92 1.038 3.683 2.485 5.538 3.775 1.983 1.196 3.808 1.983 5.979 2.549-1.447-3.587-3.745-6.481-6.388-9.44-2.015-2.14-5.036-5.255-5.665-8.213-.881-4.563 1.039-8.968 5.413-10.794l1.133-.408-.095 1.195c-.221 5.916 1.354 9.347 5.287 13.657 1.92 2.171 3.839 4.154 5.254 6.64 1.386-1.195 2.172-2.8 3.054-4.405l.471-.786.662.565c1.729 1.447 2.549 3.902 3.272 5.979.534 1.763 1.196 3.682 2.077 5.381.943-2.801 2.801-5.381 5.506-6.577l.314-.157.41.252c1.667 1.038 3.336 1.605 5.191.63l.63-.314.409.565c.408.566.881 1.102 1.353 1.668 1.606 1.605 3.431 2.864 5.351 4.091 2.328 1.573 4.657 2.958 6.954 4.626l.66.472-.565.63c-.818 1.039-1.7 1.919-2.644 2.895-.473.567-1.133 1.102-1.511 1.763-.157.314-.314.629-.409 1.039 0 .22-.094.377 0 .565 0 .63.252 1.259.314 1.889a5.1 5.1 0 0 1 0 1.699c1.447-.157 2.802-.252 4.406-.409 1.038-.157 1.982-.409 2.957-.881 1.448-.725 2.802-2.644 3.84-3.839l.063-.063 5.443-2.328.315.251c.88.535 1.762 1.039 2.8 1.196 2.706.565 6.073-.409 8.717-1.196 3.179-1.038 6.389-2.014 9.756-2.234-.661-1.384-2.015-2.171-3.619-2.58-1.511-.377-3.744-.22-5.57-.157-1.604 0-2.737-.063-4.154-.063 4.061-.661 7.49-1.133 11.109-2.329-2.329-1.668-7.993-2.801-10.165-2.485a20.4 20.4 0 0 0-6.639 2.076c-1.512.724-2.959 1.699-4.469 2.423-.473.221-.882.378-1.354.473-2.328.723-5.035.157-6.954-1.354-2.077-1.605-3.116-2.958-4.783-4.973-1.543-1.981-3.367-3.021-5.602-4.216l-2.959-1.447h3.273c1.763 0 4.217-.882 5.821-2.234a34 34 0 0 1-5.979-1.354c-2.234-.818-3.43-1.763-4.972-3.21 3.524.944 8.811 2.392 13.342.566-2.769-1.133-6.388-2.801-8.15-4.311l-1.416-1.29 1.921-.096c1.101-.063 3.114-.629 4.373-1.416a124 124 0 0 1-7.897-4.09c-2.551-1.447-5.351-3.116-7.585-4.94l-1.29-1.133 1.668-.221c.504-.095 1.196-.347 1.762-.566-1.982-1.29-3.996-2.738-5.602-4.406l-1.572-1.667 2.234.377c3.996.661 15.576 2.172 9.911-5.255l-2.171-2.896 3.115 1.763c2.959 1.542 8.875 3.461 11.267-.063 2.076-3.052-.882-7.111-2.864-9.283l-2.486-2.485 3.273 1.227c4.72 1.825 10.793 3.116 15.828 1.889 1.353-.314 5.13-1.573 4.877-3.588-.094-.881-1.132-1.447-1.824-1.762l-5.287-1.982 5.602.472c2.454.252 5.413.157 7.836-.629 1.102-.315 2.706-1.133 2.957-2.392.379-2.077-3.209-4.091-4.72-4.878l-2.958-1.447h3.273c7.269-.157 10.132-2.958 3.839-8.401l-.818-.725.976-.535c4.783-2.737 9.346-6.482 12.146-11.359 1.825-3.115 3.115-7.363 1.92-10.951-.314-.095-.977.252-1.133.472-.882 1.196-2.863.661-4.218 1.605-3.996 4.311-6.324 7.678-11.989 10.951 4.94-4.406 9.504-9.283 13.249-14.696a27 27 0 0 0 1.604-2.58c1.196-2.077 1.92-4.469 2.172-6.86.157-1.354 0-4.405-2.015-3.839-.22.157-.882 1.29-1.038 1.511-1.604 2.8-3.682 5.191-5.979 7.457 1.511-2.643 2.141-3.996 2.863-6.167 1.133-3.588 1.763-7.679 1.448-11.36-.157-1.511-.818-4.94-2.549-5.57-2.077-.724-2.801 2.298-3.367 3.65-4.877 12.241-10.951 17.686-16.237 20.392 6.419-4.877 11.107-11.737 13.594-17.182 1.133-2.549 2.234-5.286 1.511-8.15-.535-2.014-1.574-4.248-3.43-4.153-1.447 0-2.864 1.195-3.524 2.392-2.771 5.129-5.979 9.912-9.819 14.317-2.863 3.336-5.979 6.231-9.188 9.189l-.253.22h-1.919c-1.731.095-1.92.347-3.336 1.542-3.053 2.549-6.229 5.256-9.126 8.15-1.981 1.982-3.682 3.682-5.097 6.23-1.039 1.763-.662 4.06.377 5.759 1.7 2.549 4.72 3.745 7.772 4.06l.724.095-.095.724c-.157 1.982.567 2.706 2.486 3.179l1.259.313-.786.977c-5.287 6.545-12.242 9.598-20.612 8.37-8.088-1.102-17.496-6.608-23.254-12.461l-1.857-1.763 2.58.504c1.669.314 3.431.314 5.098.157-2.392-1.763-4.877-4.248-5.758-6.734-1.102-2.958-.787-5.412-2.455-8.528l-.975-1.604 1.762.472c.944.252 1.51.409 2.328.315-.66-5.099-2.58-9.189-6.419-12.934l-1.353-1.354h4.656c-1.447-2.423-2.737-3.619-6.011-3.996l-1.195-.095 2.864-4.783-9.095.944h-.157c-5.129-1.605-23.412-5.413-25.898 1.604 2.234 1.133 4.405.63 6.703.314 3.776-.629 7.427-1.353 12.398 1.039-3.997.66-8.56 1.447-14.633.566-2.14-.252-3.839-.63-5.192-1.354-3.367-.252-7.206-.409-10.321 1.038-.63.221-1.196.566-1.731.944zM70.664 265.62c2.486 1.102 4.973 2.14 7.301 3.272 15.325 7.018 30.902 14.539 44.497 24.671 16.709-11.485 35.181-19.635 53.621-27.943zm113.033-3.461c15.986-7.333 33.798-16.144 45.535-29.014 5.444-5.822 9.44-12.211 12.399-18.912-3.211.944-11.109 2.549-14.066 3.43-2.015.629-4.469 2.644-6.483 3.178-12.366 3.84-25.174 4.405-37.385 6.231v15.041c12.211-1.196 25.396-3.272 37.385-4.563-12.461 4.783-25.584 7.678-37.385 9.282z" clip-rule="evenodd"/><path fill="#29A954" fill-rule="evenodd" d="M-1.492 148.055v21.242c-.063 15.104-.22 33.167 6.703 46.918 2.014 4.154 4.563 7.898 7.363 11.518a91 91 0 0 0 4.248 4.877c12.524 13.249 30.934 22.438 48.272 30.431v-15.105c-3.21.661-7.111 1.857-12.556 4.249-2.958 1.102-3.839-3.273-6.954-4.626-2.392-1.133-7.521-.252-8.057-1.542 6.767-1.511 17.717-3.336 27.566-3.997v-22.531h114.921c2.077-.063 4.218-.22 6.295-.408 17.685-1.354 37.73-3.588 55.384-4.94 5.916-13.5 7.614-28.448 7.521-44.024v-22.939c-1.354.157-3.179-.095-5.602.063-.943 0 1.038 3.682-.221 3.776-.723 0-1.698-.252-3.933-.252-2.297 0 .881-3.367-2.802-2.802-.942.095-1.824.253-2.705.473-.787.252 1.195 2.077.473 2.895-.316.379-3.336.063-3.746.157-1.195.157-.408-2.328-1.447-2.8-1.416-.566-3.524-.787-5.034 1.447-2.392 0-4.94.378-7.332.63-4.657 5.916-10.479 10.479-14.57 17.653-4.878 2.392-9.095 6.388-14.066 10.069.818.976 1.699 1.763 2.896 2.738 1.919 1.511 4.626 2.076 6.954 1.354.472-.095.881-.252 1.354-.473 1.51-.724 2.957-1.699 4.469-2.423 2.17-1.102 4.311-1.73 6.639-2.076 2.172-.315 7.836.817 10.134 2.485-3.588 1.196-7.018 1.668-11.109 2.329 1.448 0 2.581.063 4.186.063 1.826-.063 4.06-.22 5.57.157 1.604.409 2.958 1.196 3.619 2.58-3.367.221-6.577 1.196-9.756 2.234-2.644.787-6.011 1.762-8.717 1.196-1.038-.157-1.92-.63-2.8-1.196l-.315-.251-5.443 2.328-.063.063c-1.038 1.195-2.423 3.114-3.84 3.839-.975.472-1.919.724-2.957.881-1.604.157-2.959.252-4.406.409a4.9 4.9 0 0 0 0-1.668c-.063-.661-.314-1.29-.314-1.92-.094-.188 0-.346 0-.565.063-.41.252-.725.409-1.039.378-.661 1.038-1.195 1.511-1.763.943-.976 1.825-1.855 2.644-2.895l.534-.63-.629-.472c-1.447-1.038-2.801-1.92-4.217-2.896-1.385.661-2.895 1.29-3.996 1.857-2.738 1.447-6.734-.314-8.654 1.353-.881.725-.377 2.392-1.102 3.21-1.196 1.259-2.8-4.814-3.271-2.801-.662 2.55-2.582 2.455-3.84 3.115-1.447.63-3.776 1.354-5.192 2.077-4.5-1.604-8.087-.881-11.454-.63-3.336.222-5.979.63-8.874 1.196 1.699 1.353 3.682 2.392 5.538 3.493-3.776.347-6.891-.472-10.007-2.706l-.944.251c-.565.063-1.133.063-1.698.063a77 77 0 0 0 1.762 3.115c-1.983-.377-3.682-.881-5.35-2.14l-1.825-1.447.63 2.234c.629 2.706 2.233 5.349 3.839 7.678-1.92-.409-4.092-1.447-5.444-2.329l-1.51-1.102.313 1.826c.661 3.272-.629 6.23-3.114 8.307-2.958-3.115-3.588-4.374-3.179-9.346l.157-1.195-1.133.408c-2.077.725-4.06 1.512-6.073 2.234 1.668-2.737 3.115-5.349 4.248-8.465l.944-2.643-2.14 1.762c-1.92 1.511-3.934 2.801-6.168 3.84a45 45 0 0 0 2.486-5.444l1.038-2.644-2.234 1.668c-2.077 1.605-3.934 2.896-5.916 3.933-.566.379-1.133.787-1.762 1.102-.818.504-1.668 1.7-2.738 1.7-.944 0-3.021.629-5.098 0-2.706-.818-5.602-3.116-6.955-3.776-1.667-.787-3.366 1.919-4.94 2.737-1.604.725 0 3.839-1.919 3.902-4.249-2.14-7.207-9.347-10.228-8.308-1.856-.724-5.287 1.92-7.615 1.353.094.095.094.158.157.253 1.29 3.335-1.667 4.626-4.469 5.349-1.101-3.21-4.153-3.682-6.797-5.507-2.392-1.542-2.297-3.366-2.958-5.916-1.825 3.336-3.178 4.312-6.954 5.35-1.573.472-3.839.409-5.507.314-1.92 0-3.745 0-5.664.252.565-1.762.157-3.115 2.076-4.311 1.102-.661 2.141-1.039 3.745-1.543-1.259 0-2.329-.472-3.43-.88-.566-.221-1.196-.536-1.763-1.039-.566-.473-1.038-1.102-1.604-1.573-.063-.095-.157-.095-.221-.189-.346-.22-.661-.534-1.038-.786 1.668-1.038 3.272-2.328 5.412-2.234 3.776.314 8.874 2.329 12.147 4.248l.346.158.314-.158c2.864-.975 6.797-2.076 9.409-3.682a113 113 0 0 1 4.343-2.801c-1.29-4.972-8.717-9.126-16.646-10.385-2.234-.314-3.682 1.354-5.759 1.354-2.077.063-5.57-1.762-7.836-2.392-.472-3.934-2.863-4.657-3.745-4.406-2.485-3.429-5.034-7.206-11.014-5.349-4.501-6.228-9.599-8.148-15.2-6.386m60.828 40.185c-.095-.315-.157-.63-.252-.944-.157-1.133 2.392-2.801 3.934-4.657 1.573-1.763 1.982-3.65 1.511-4.72-.157-.221-.472-.378-.881-.473-3.43 1.92-6.954 3.84-10.479 5.602l-1.195.566 1.133.786c1.509 1.04 4.31 2.33 6.229 3.84m11.328 77.38c2.486 1.102 4.973 2.14 7.301 3.272 15.325 7.018 30.902 14.539 44.497 24.671 16.709-11.485 35.181-19.635 53.621-27.943zm113.033-3.461c15.986-7.333 33.798-16.144 45.535-29.014 5.444-5.822 9.44-12.211 12.399-18.912-3.211.944-11.109 2.549-14.066 3.43-2.015.629-4.469 2.644-6.483 3.178-12.366 3.84-25.174 4.405-37.385 6.231v15.041c12.211-1.196 25.396-3.272 37.385-4.563-12.461 4.783-25.584 7.678-37.385 9.282z" clip-rule="evenodd"/><path fill="#242323" fill-rule="evenodd" d="M158.115 206.869c-.157 1.825-1.92 2.393-3.746 2.55-.88.157-1.855-.41-2.895-.473-1.29-.095-3.587.315-3.021-.629.944-1.543 3.336-4.814 4.218-4.878 1.604-.158 2.234 4.878 2.958 3.493 1.132-2.077.252-4.06-1.448-5.664-1.416-1.354-.063-1.039 1.29-3.367.63-1.039 2.015-1.416 2.015-2.959-.095-1.73-.976-3.808-.347-5.506.409-1.196 2.329-.473 2.486-1.763.314-1.573-2.959-5.098-1.353-4.94 1.667.063 2.234 1.982 3.524 2.957 1.038.725 2.8.158 3.43 1.26.629.975-1.353 2.107-1.448 3.682-.063 2.076 3.272 5.443 1.92 5.759-2.706.817-3.682-2.486-4.878-4.312-1.038-1.51-1.92-1.982-1.982-.787-.157 5.665-.094 10.762-.66 15.577zm84.555-59.631.063 3.933h1.29v-2.328l.095-1.604zm-9.441 0 .157 4.311 1.29.094v-2.8l3.839-.063v2.077h1.29l.063-3.619zm-28.699 57.46c-.535-2.864.346-4.626 0-7.427-.221-1.291 2.108-3.272 3.146-4.311h10.228c-2.014 1.29-3.84 3.02-6.168 3.839-1.762.724-3.745.314-5.665.472.063 2.896.158 5.664.222 8.56-.63-.409-1.102-.723-1.763-1.133m44.685-32.192c-9.032.63-19.101 3.272-25.331 5.916-2.329.944-3.524-2.234-6.798-2.895-1.605-.314-3.524 1.541-5.256 1.855-2.58.379-5.034.379-6.167 1.512 1.51-.63 3.21-1.039 4.877-1.29 2.172-.315 7.836.817 10.165 2.485-3.619 1.196-7.049 1.668-11.141 2.329 1.448 0 2.581.063 4.186.063 1.826-.063 4.06-.22 5.57.157 1.604.409 2.958 1.196 3.619 2.58-2.486.157-4.878.787-7.206 1.416 1.667 1.039 2.8 3.21 6.86 3.935.975.157-2.959-2.802-3.116-3.997-.063-.566 1.385-.472 1.385-.882.063-.408 2.611 1.354 3.587 1.448 1.354.157 2.141-.188 1.826-.409-1.826-1.511-1.983-2.234-1.826-2.895.567-1.573 2.077-1.416 3.431-2.141 2.014-.881.724-3.996 2.014-4.405 6.45-2.298 14.224-3.431 19.415-3.839v-1.039zm-60.262 6.797c1.511-1.038 2.077-2.423 3.682-3.461 3.116-2.077 9.032-4.847 14.633-10.699 8.056-.63 12.462-.787 22.438-1.039.252-2.234 1.037-3.524 2.17-4.563 2.645-2.392 6.326-1.511 7.208 6.231 2.392-.064 2.076-.064 4.467-.158-.88-5.412-4.563-8.308-7.834-8.465-2.392-.157-5.131.818-7.522 3.839-2.643 0-7.269 1.291-9.188-.629-2.392-2.329-.943-6.389-1.51-9.692-3.21 2.014-5.665 5.035-8.245 8.088-4.626 2.076-6.388 6.23-7.111 9.817-1.92 1.699-4.375 1.604-5.822 2.644-3.272 2.234-5.602 4.563-8.401 6.954.311.409.658.725 1.035 1.133m-6.797.063c-.221.408-.629.724-1.196.976-1.604.724-5.191.472-6.544 1.195-2.234 1.196-4.249 1.259-3.841 3.273.252 1.762 3.054 5.759 5.916 4.94 2.329-.787-3.367-3.431-2.957-5.822.157-1.038 1.51-.314 3.052-.472 1.195-.158 2.77-1.354 2.77-.566 0 1.447.095 4.563-.378 6.23-.252 1.038-2.014 1.038-2.392 1.763-.566.881.221 2.392-.252 3.524-1.29 2.8-3.682 2.8-2.392 6.608v-.063c.725 1.825.63-2.076 3.116-1.825 1.039.157 2.297.534 3.682 1.039.534.22 1.353 1.195 1.982 1.416 1.354.471.095-3.682 1.133-3.745 1.038 0 3.588 4.311 3.996 3.588.787-1.259-1.29-2.959-2.58-5.035-.22-.473-3.43-.787-3.84-1.259-.314-.409 2.329-1.291 2.108-1.763-1.855-3.367-3.367-6.954-2.8-10.07.22-1.384 2.234-2.58 4.153-2.17-.879-.566-1.76-1.1-2.736-1.762m5.129 3.368c.63.629 1.102 1.51 1.605 2.234v-.095l.534-.63-.629-.472c-.472-.408-1.037-.723-1.51-1.037m37.007-35.339.063 4.814c.818 1.604 1.541 2.392 1.541 3.996h1.731c-.22-1.542-.85-2.737-1.982-4.311v-2.896h3.839v2.392h1.29l.063-3.996h-6.545zm-64.353 62.904c-.063-3.43-.22-4.626-.22-10.479 0-.691.377-.785 1.195-1.1.787-.41 1.92-1.133 2.959-1.196 1.667-.095 3.177.221 3.682-.818.472-.944-.819-4.312-.882-5.916 0-1.51 1.102-.535.944-2.077-.315-4.783-.882-8.938.88-6.546.473.725.158 1.448.725 2.55.787 1.919 1.763 3.839 1.763 5.443 0 2.015-1.7.567-1.448 4.469 0 1.039 2.392 1.857 2.234 2.896-.157 1.101-2.863-.409-3.273 2.863-.063.725 1.606 1.354 3.746 1.51 1.542.157-1.574 1.196-3.588 1.039-1.354-.157-1.354 3.115-2.391 2.737-1.196-.408-.473-2.485-.63-3.839-.157-1.038-.662-1.919-1.762-1.762-.315.095-2.234.252-2.392.566-.662 1.415-.096 2.864.314 4.06.377 1.196-.882 1.856-.977 2.737-.063.692 1.196 1.73 1.604 2.611 4.878-.534 10.07-1.038 15.105-1.353l-.157-7.741h.787l.251 7.741c1.29-.063 2.549-.157 3.745-.157-.629-2.14-.629-4.154 2.423-4.783 1.573.314 3.021 1.762 4.94 1.668 3.21-.157 5.821-1.605 6.168 1.668 4.311-.221 8.15-.692 12.84-.85 2.58-.095 4.342.314 6.891.157 4.626-.252 11.108-.725 16.144-1.385.157-.157-1.668-.787-2.801-1.416-1.605-1.038-2.644-2.077-2.171-2.014 4.09.565 4.185-.378 4.185-1.259.063-1.7 1.73-3.21 2.297-3.682 1.448-1.039 3.367 4.153 6.231 1.195.472-.409.314-2.801.66-3.367 1.259-2.14 1.353-5.759 2.234-3.744.314.565.535 1.51.787 2.8.157.536-.409 3.116-2.486 6.955-.724 1.259-1.511 2.549-2.391 3.649 3.052-.471 4.972-.787 7.52-1.101l-.157.409c-1.353.377-3.21.786-5.507 1.259-8.401 1.447-22.059 2.737-24.859 2.957-2.895.314-5.035 1.039-7.615 1.606-1.982.408-2.958 1.037-5.099 1.51-2.643.565-6.388.66-9.283 1.353-.723.252-.943.819.504 1.134 2.455.565 7.489 1.51 5.822 1.761-6.641.725-15.199-.313-15.986-1.604-.566-.943 2.643-.628 4.154-1.667 1.919-1.195 1.604-2.958-.41-2.645-25.331 1.196-49.058 5.099-72.25 9.977h-.157c-.63.157-1.354.346-2.077.408h-4.783a441 441 0 0 0 7.363-1.447c.725-1.415 2.141-3.839 1.417-3.839-3.65.095-9.252-.378-13.657-.63-1.668-.157-4.249-.881-5.665-1.918-2.077-1.354-4.563-3.746-5.695-3.746-.787 0-1.416.567-2.14.473-2.707-.252.943-1.29 1.101-2.392.158-.63-.692-.63-3.492-.787-1.763-.094-2.896-.976-4.154-1.133-.881-.157-1.29 1.354-2.328 1.354-1.133 0-3.588-.063-5.13-.063-2.392.063-2.392-.818-2.454-1.698-.095-1.512-.661-1.416-2.896-1.259-1.038.063-.629 1.667-1.038 2.611-.22.66-1.605.157-1.511-.787.095-.882-1.668-2.329-1.825-3.272-.095-.975 1.354-1.511 1.825-2.329.252-.377.472.41 1.038.725.473.408 1.29.313 1.448-.063.943-1.604-.976-5.286.786-4.563 1.196.473.63 1.353 1.196 2.643.472 1.102 1.511 1.983 2.171 3.021.63.882 1.825 1.133 2.549 1.354.976.408.473-3.116.881-5.192 0-.315.944.472 1.133.817.63 1.512-.346 2.392.473 3.84.314.472 1.604.849 1.668.314.314-2.958 0-4.563.094-7.615 0-.472.63-1.196.787-.629.63 2.8.095 5.349.409 8.15.063 1.133 1.604.314 2.454-.409.252-.158.189-1.354.252-1.731.252-2.485.095-5.223 0-7.93 0-.566 1.29-.786 1.29-.157l-.094-.157c0 1.763.157 3.587.251 5.444.063 1.573.725 2.863.063 4.531-.314.817-2.234.346-2.234 1.228 0 .534.881.472 1.763.691.566.095 1.195.976 2.171 1.29 1.668.473 2.801-.472 2.958-1.762.157-.944-.504-.63-.818-1.511-.314-1.134-.378-3.745.724-3.682.315 0 .252 1.825.724 3.43.473 1.605 1.354 2.802 1.448 2.896.535.472 1.038-5.13 1.668-3.115.251.787.566 1.51.786 2.14.409.723-1.102 1.353-1.353 2.077-.315.975.724 1.699 3.272.314.881-.377-2.14-5.821-2.077-5.979.346-.882.976-1.669 1.385-2.329.629-1.195.692-3.021 1.511-2.864 1.416.222.063 5.821 1.102 7.836.724 1.259 1.384.063 2.423-1.447 1.353-1.92 3.115-4.469 3.43-4.405.787.408-2.737 6.01-2.014 6.954 1.699 2.015 5.443-4.626 5.602-3.996.157.409.094 2.234-1.133 3.996-1.102 1.857-4.154 1.542-3.021 3.776.157.314 2.392.22 4.312-1.133 1.668-1.196 3.052-3.745 3.367-3.588 1.51.473-.473 2.802-1.291 4.406-.408.692.252 1.729.158 1.729-.882.662-4.06.158-10.134.725-.66.095-.817 1.542-1.132 2.643 0 .157.629.977 3.366 1.354 2.077.253 10.134 2.015 14.444-.157 1.763-.944 1.447-4.216 1.447-6.136.315.314.661.692 1.039 1.101.156-.156.409-.313.566-.471.094 1.353-.252 3.02-.787 4.31-.566 1.134-2.486 4.626-4.091 6.546 14.633-2.959 28.857-5.76 43.867-7.585m-30.051.63c-.535-.377 1.228-.944 1.385-2.077.22-1.416-1.228-2.863-.346-3.65.565-.565.975 2.234 1.919 2.864.724.566 1.763-1.668 1.605-2.234-.41-.976-2.141-.976-2.959-2.077-.565-.724 0-2.014-.408-2.896-.63-1.51-2.141-2.611-2.928-3.587-.188-.157-.346-.409-.503-.629-.63-1.196-1.102-2.329-1.353-3.524l-.473-1.826c.63-.346 1.29 1.574 2.549 3.493 2.707 4.249 8.087 9.188 8.874 8.245.629-.629.566-1.354.157-2.077-.408-.629-1.825-2.486-2.957-4.091-.63-.944-1.448-1.73-2.077-2.234-.221-.157-.41-.314-.567-.377.347.063.661.157 1.039.22-.629-.944-1.102-1.92-1.573-2.864.472-.314 1.259-.565 2.14-.817 3.209 2.486 6.388 3.305 10.321 2.958-1.856-1.039-3.776-2.076-5.35-3.431 1.196.095 2.298.253 3.431.725 1.762.63 2.957 3.115 4.469 4.783 1.133 1.195 2.076 1.699 1.195 1.699-2.328 0-3.43-2.234-5.444-2.644-.881-.157-1.982 1.448-2.549 1.668-1.825.881-2.14 1.856-1.825 2.234.22.409 1.259 1.604 1.825 1.385.566-.252 1.29-1.133 3.052-1.7 2.141-.786 2.141 1.92 4.061 4.406.66.787-.882 1.038-1.511.471-1.133-.88-2.234-2.957-3.115-2.327-.976.724-2.015 1.228-1.763 2.8.315 3.462 4.091 4.153 2.801 5.286-.566.474-.976.787-1.51.63-2.581-.881-2.738-4.154-3.367-3.838-1.133.408-.253 2.8-1.133 3.775-1.196 1.196-3.179.944-4.847 1.039-.976.063-1.605.565-2.266.157v.062zm-113.726 21.02c11.926-7.898 30.052-6.797 46.698-5.664-17.024-2.959-34.457-5.129-49.468 2.485a93 93 0 0 0 2.863 3.179zm11.297-58.405c-1.699-3.21-4.091-4.247-5.696-4.877-2.14-.818-3.021 1.102-5.098.314 1.102-.724 2.234-1.919 2.706-3.367.157-.629-.472-1.668-.094-2.14.881-1.448 3.996 1.101 5.381 1.038 2.234-.157 3.179-1.354 2.958-2.171 2.863-1.038 3.587 2.486 6.073 2.58 0-1.699 1.038-2.485 1.92-2.171 1.195.472 2.454 2.392 3.65 2.234 1.856-1.983 3.461-1.447 5.381.251 3.996 1.259 9.031 1.354 12.776 4.154l-.157.157h.408c.315.221.63.566.944.881.252 2.077.314 3.683.314 5.035-1.51.944-3.021 1.982-4.563 2.958-.535.315-1.196.63-1.825.944.314-1.92-.409-4.783-.881-8.15-1.447-2.392-3.272-1.762-5.35-2.298-1.511-.408-2.392-.723-3.934-1.855-.787-.567-1.038-1.354-1.92-1.669-.786-.251-2.549 2.392-4.153 2.864-1.196-.221-2.549-1.417-4.217-1.763-3.273-.534-1.605 1.7-2.392 1.605-1.29-.158-2.329-2.234-3.462-2.328-1.195-.064-2.077.723-2.863 1.541 2.392 1.983 3.367 2.549 3.996 6.294zm30.524 7.018c-.315 1.039-.661 2.077-.882 3.524 2.706 2.864 5.192 4.154 6.294 6.073.252.473 5.286.252 5.381 1.354.063.315-4.814-.566-4.814 1.038.157 2.486.251 6.169 1.604 8.088.473.63-.252 3.839-2.485 4.783-1.668-.063-1.92-1.605-3.902-1.762-.976-.063-1.919 1.541-2.801 1.604-1.919.157-2.801-2.077-5.507-2.077-3.524.094-5.286-.943-8.717-1.196-2.549-.157-12.556 1.605-16.552 1.196-1.763-.157-3.021-.881-3.524-1.291-.63-.377-.473-.691-1.102-.785L.27 200.858l-.095-.534c5.444-.976 16.332-.095 18.566-.662 1.762-.377-.504-1.51.786-2.139 1.196-.661 2.958-1.354 2.958-2.234 0-2.958-4.625-1.763-6.23-2.581-1.668-.786-1.353-1.919-.881-1.981 2.486-.63 4.469.314 5.916-.315 1.447-.66-.252-4.563 1.762-5.192 1.26-.408 1.763.157 3.021-.251 1.604-.473 1.196-1.511 1.542-2.015.157-.22.692-.691 1.195-1.102.221.314.535.567.787.787.566.503 1.196.818 1.763 1.039 1.101.408 2.171.88 3.43.88-1.604.504-2.644.882-3.745 1.543-1.919 1.195-1.511 2.549-2.076 4.311 1.919-.252 3.744-.252 5.664-.252 1.668.095 3.934.157 5.507-.314 3.776-1.038 5.129-2.014 6.954-5.35.661 2.55.566 4.374 2.958 5.916 2.644 1.825 5.696 2.297 6.797 5.507 2.802-.723 5.759-2.014 4.469-5.349-1.038-2.645-6.073-4.657-8.213-6.169l-1.133-.786 1.195-.566c1.605-.787 3.211-1.669 4.816-2.487m-31.248-.472c-1.542-.315-3.367-.473-5.854-.409 1.699-1.259 5.602-1.196 7.836-.881-.629.409-1.258.881-1.982 1.29M-.296 145.254c.251-.094.472-.157.661-.157 1.101-.094 1.573 1.259 2.705 1.259.944.095 1.92-.629 2.864-.378 3.618 1.103 5.286 4.532 7.993 7.176 5.443-1.354 10.951 3.052 13.531 7.771-4.973-5.034-10.637-7.206-12.398-4.342.157 2.737.409 4.091-.157 6.073-1.354-7.018-3.619-9.66-5.444-11.8-2.486-2.896-4.94-2.802-6.703-2.172-1.919.725-2.895 3.524-2.391 5.35.313 1.354.943 2.706 2.233 3.524.535.409 1.825.786 2.958.221 1.038-.473 1.825-1.889 1.668-.221-.314 3.178 1.825 3.902 3.745 6.482.66.692 1.919 3.115 2.485 3.901.63.725 2.015.158 2.486 1.039 1.259 2.392 1.92 8.623 1.259 10.164-.472-2.737-.85-5.916-2.297-7.206-.818-.881-2.077.409-2.896-.566-.629-.724.095-1.982-.378-3.272-.976-2.328-3.052-4.784-4.311-6.137-1.385 3.997 2.297 10.228 1.102 13.972-.158.63-1.291.787-2.329 1.039-1.982.408-2.297-2.801-3.996-4.406-.944-.88-1.888.095-2.298-1.102-.881-2.392-.409-4.72.221-7.583.566-2.172 1.542-4.563-.314-7.363-.378-.725-.882-.818-1.259-.882v-7.521c.472-.158.786-1.101 1.195-2.801zm66.335 46.92c.095 1.73-.063 3.179 0 4.688 0 .157.881.252.881.157.094-1.51.094-3.021 0-4.374-.063-.471-.881-.974-.881-.471" clip-rule="evenodd"/><path fill="#242323" fill-rule="evenodd" d="M98.986 58.056c-7.931-.566-10.322.473-14.256 3.367 6.325.692 11.518 1.416 17.906 3.493-5.099 1.133-8.214 2.014-11.644 2.486 4.153 1.856 6.86 2.706 16.772 3.43 3.115 2.486 1.038 8.15-4.469 14.066 4.312-.881 5.759-1.354 7.898-2.297-2.706 5.979-5.286 8.685-11.58 12.209 1.604.409 4.154.882 5.979.725-1.668 3.052-4.217 6.482-8.528 8.874 1.416.313 2.297.313 3.493.251-7.332 4.878-18.598 5.192-24.86 2.077-4.217-2.171-5.255-6.23-1.195-8.402 3.052-1.604 9.031-2.329 11.045-6.388 1.982-4.091.157-7.584-2.801-10.385-5.129-4.878-16.08-11.611-20.454-13.909-.976 1.511-1.447 2.801-1.856 4.375C47.504 62.996 44.231 55.35 35.986 45.5c-1.101-1.354-2.8-2.392-5.098-1.668-1.856.472-3.21 2.549-2.392 7.175-1.762-3.336-4.248-3.996-6.011-2.612-2.706 2.234-2.549 9.095 2.015 18.126-4.406-5.192-6.892-5.034-7.931-3.996-4.153 3.839 4.721 15.42 7.364 18.692-4.814-4.312-5.602-.063-4.091 3.21 2.737 6.167 8.244 13.594 15.356 15.733-7.521 3.462-8.812 7.836-1.447 10.228-6.641 3.839-4.941 10.95 5.853 10.007-2.486 6.64 1.102 8.244 11.266 7.363 1.039 8.15 8.056 9.566 17.496 5.979-.724 7.836 4.405 9.818 12.053 8.875-3.179 2.392-8.15 4.406-11.423 6.703-3.179 2.327-5.035 3.682-7.364 7.363 1.385.251 3.367 0 4.406-.252-4.563 1.354-9.661 4.499-12.146 7.93 4.091.63 8.968-.252 13.121-1.29-4.972 2.392-8.401 3.997-11.454 7.206 2.958.473 5.854.724 10.259-.252-3.776 2.549-8.717 5.916-11.926 7.899-2.077 1.384-5.507 2.423-9.189 3.618-2.8-1.51-8.308-3.996-12.556-4.248-3.115-.157-4.783 2.171-7.175 3.053.724.22 1.825.944 2.298 1.353 1.227.882 1.699 2.486 4.814 3.273-4.563 1.604-3.053 4.312-4.469 6.639 4.688-1.037 9.661.064 12.682-.817 3.524-1.038 5.034-1.668 6.42-4.06.535 2.864 1.416 3.524 2.863 4.563 2.549 1.669 5.821 2.234 6.64 5.822 5.821-1.29 6.86-3.745 5.759-6.64-1.133-2.864-6.892-5.35-8.56-6.546 8.15-4.154 15.985-8.622 24.451-13.122 1.353 2.329 2.234 4.248 4.311 6.325 1.511-2.706 2.015-6.073 2.329-8.937l5.443 4.373c1.259-3.996 2.55-6.86 3.745-8.779 1.92-2.958 3.839-4.091 5.916-6.954.944-1.29 1.447-2.706 2.801-4.721 1.763 10.007-2.58 18-8.465 25.49 3.808-.222 7.962-1.512 12.146-5.256-1.385 5.507-3.461 7.993-11.518 13.752 1.983.377 4.563.377 6.389 0-1.825 3.179-2.864 4.846-7.206 9.817 5.853-1.604 9.85-3.367 15.041-7.363-1.038 2.644-2.014 4.972-3.839 7.521 3.839-1.667 6.482-3.271 8.623-5.034-1.354 3.901-3.179 6.64-5.413 10.228 2.706-.944 5.507-1.983 8.213-2.959-.566 5.916.882 7.206 3.934 10.479 3.178-2.392 4.531-5.854 3.902-9.504 2.328 1.573 5.602 2.611 7.521 2.611-2.015-2.611-3.996-5.727-4.814-8.778 2.171 1.667 4.343 2.171 7.521 2.485-1.448-1.763-2.393-3.618-3.021-5.192 4.688 4.312 9.095 4.941 14.443 4.06-3.336-2.234-7.332-3.744-9.503-7.175 3.367 1.919 7.206 1.919 11.518.787-5.602-3.84-12.305-7.679-12.808-14.476 4.405 1.763 7.143 6.167 14.255 7.111-3.052-9.095-11.455-13.656-12.492-18.755-.882-4.563 1.29-8.402 4.972-9.85-.314 12.304 7.332 14.066 11.107 21.587 1.826-1.29 2.707-3.052 3.997-5.191 2.801 2.297 3.115 8.37 6.136 12.619.409-2.077 1.762-6.074 5.539-7.742 2.392 1.511 4.216 1.604 5.979.63 3.052 4.311 7.992 6.325 13.814 10.541-2.77 3.273-4.217 3.84-4.783 5.917-.409 1.604.976 2.895 0 5.35 4.248-.944 5.602 0 8.78-1.573 1.604-.725 3.052-2.802 4.09-3.997l4.783-2.014c6.074 4.405 13.909-1.982 22.784-2.077-.41-2.14-2.141-3.901-5.979-4.405.535-.157 2.549-.472 4.153-1.196-1.604-2.14-8.653-4.059-11.769-3.587-6.955 1.038-9.095 3.996-12.619 5.034-2.706.787-5.192-.472-6.23-1.195-5.508-4.468-3.524-5.759-10.542-9.347 2.801 0 6.136-1.762 7.332-3.618-1.888-.157-6.545-.85-9.976-2.612 5.286 1.573 9.126 1.259 12.714-.818-2.959-1.195-7.773-3.271-9.503-4.783 2.391-.157 5.034-1.51 5.821-2.392-4.249-1.919-12.305-6.073-16.458-9.534.88-.157 2.297-.534 3.271-1.196-2.013-1.102-4.72-2.958-6.701-4.94 12.775 2.141 14.129-1.919 10.604-6.545 10.888 5.821 17.748-1.856 9.283-10.573 17.811 6.576 26.307-2.298 19.415-4.941 11.424 1.039 16.081-4.72 6.483-9.346 8.465-.095 10.793-4.153 4.404-9.755 11.644-6.482 16.521-16.615 14.382-23.255-.315-.976-2.014-.314-2.485.314-.63.881-1.826 0-3.431 1.196a47 47 0 0 0 3.431-5.035c1.762-3.115 2.17-6.23 2.232-7.175.253-2.077-.313-5.381-3.02-4.721-.882.221-1.605 2.864-3.524 4.94 3.336-9.755 1.982-17.905-1.196-19.007-1.038-.313-2.392-.094-3.524 1.825-1.353-10.227-6.954-7.741-8.78-4.468-6.796 12.052-12.965 17.905-18.943 23.255h-1.699c-1.668.094-1.92.157-3.179 1.195-4.312 3.682-7.269 6.231-9.691 8.623-1.983 2.014-3.65 3.524-5.256 6.482-2.076 3.682.41 10.069 8.717 11.045-.251 2.14.535 3.431 3.021 3.996-15.009 18.535-37.383 1.26-42.67-4.09 2.485.471 5.287.094 7.836.094-2.959-1.542-6.483-4.878-7.585-7.678-.976-2.738-.565-5.287-2.58-8.623 1.29.314 1.92.535 3.367.221-.472-5.035-2.077-9.755-6.64-14.13h4.091c-2.234-3.933-3.618-5.129-7.269-5.538l3.021-5.098-10.479 1.195c-5.916-1.919-24.198-5.507-26.904 1.983zm-12.084 2.801c5.507.63 10.636 1.604 15.985 3.367l2.801.85-2.895.661c-2.958.629-5.979 1.416-9.031 1.982 4.405 1.604 9.44 2.077 14.066 2.392h.251l.157.094c.473.409.882.882 1.133 1.354 2.077 3.588-1.195 8.812-3.933 12.084 1.856-.504 3.524-.976 5.443-1.763l1.92-.817-.881 1.856c-2.644 5.759-5.192 8.56-10.165 11.58 1.291.157 2.644.314 3.776.252l1.511-.157-.724 1.259c-1.92 3.272-4.06 6.01-7.018 8.087.314 0 .787 0 1.195-.095l2.958-.22-2.392 1.668c-6.797 4.563-18.314 5.759-25.678 2.077-4.312-2.172-6.294-7.05-1.259-9.756 3.336-1.762 8.874-2.234 10.699-5.979 1.825-3.776.095-6.955-2.706-9.598-2.644-2.393-5.759-4.626-8.717-6.703-3.431-2.329-7.206-4.721-10.888-6.64-.63 1.102-1.039 2.234-1.354 3.587l-.314 1.039-.944-.63c-6.482-4.563-11.266-9.283-16.08-15.514-2.801-3.745-5.507-7.521-8.465-11.203-.976-1.102-2.801-1.888-4.248-1.416-1.511.473-2.077 2.077-2.14 3.682-.095 2.141.472 4.154 1.195 6.073 2.958 7.993 9.346 14.854 15.167 19.794-4.216-2.958-12.366-9.031-17.181-21.556-.473-1.29-.944-2.392-2.077-3.367-.944-.724-1.982-1.133-3.115-.252-1.573 1.29-1.668 4.091-1.511 5.916.409 3.84 2.014 7.931 3.682 11.36 5.507 8.874 14.633 15.263 20.77 19.888-6.389-3.43-15.011-9.409-22.06-19.101-.881-1.039-4.94-5.57-6.797-3.902-3.588 3.43 5.286 14.854 7.458 17.653C27.611 84.74 33.684 90.342 39.6 93.3c-4.878-1.29-11.045-6.482-16.237-11.518-.409-.314-2.392-1.982-3.053-1.511-.85.63-.157 3.115.252 3.902 2.706 6.168 8.087 13.279 14.79 15.199l1.982.629-1.825.818c-5.286 2.454-9.346 6.293-1.511 8.779l1.763.566-1.542.882c-1.73.943-3.996 2.958-3.493 5.191.63 3.367 6.294 3.524 8.874 3.272l1.196-.157-.504 1.196c-.472 1.29-1.102 3.43-.221 4.783 1.511 2.423 8.371 1.699 10.7 1.542l.724-.095.094.724c1.196 9.031 9.881 7.898 16.458 5.444l1.195-.504-.094 1.228c-.63 7.646 4.72 8.843 11.202 8.056l3.021-.409-2.455 1.763c-3.524 2.549-7.835 4.092-11.359 6.64-2.863 2.077-4.626 3.431-6.482 6.073 2.392-.094 5.286-.565 7.835-1.51-1.668 1.195-3.839 2.392-5.821 3.114-3.367 1.196-7.269 3.524-9.692 6.138 3.115.251 6.482-.315 9.535-1.039 2.549-.535 5.098-1.038 7.584-1.825-1.763.944-4.721 2.643-6.86 3.682-3.053 1.417-5.854 2.958-8.401 5.192 2.643.314 4.877.221 7.583-.251 1.604-.315 3.524-.725 4.783-1.039-1.354.881-2.769 1.856-4.153 2.737-3.65 2.455-7.332 5.035-11.108 7.427-2.612 1.605-6.545 2.707-9.409 3.682l-.314.158-.346-.158c-3.273-1.919-8.371-3.934-12.147-4.248-2.14-.094-3.744 1.196-5.412 2.234.377.252.724.566 1.038.786.063.095.157.095.221.189.566.472 1.038 1.101 1.604 1.573.566.503 1.196.818 1.763 1.039 1.133.408 2.171.88 3.43.88-1.604.504-2.644.882-3.745 1.543-1.919 1.195-1.511 2.549-2.076 4.311 1.919-.252 3.744-.252 5.664-.252 1.668.095 3.934.157 5.507-.314 3.776-1.038 5.129-2.014 6.954-5.35.661 2.55.566 4.374 2.958 5.916 2.644 1.825 5.696 2.297 6.797 5.507 2.802-.723 5.759-2.014 4.469-5.349-1.038-2.645-6.073-4.657-8.213-6.169l-1.133-.786 1.195-.566c8.15-4.153 16.237-8.717 24.388-13.091l.63-.346.409.66c1.102 1.92 1.982 3.682 3.367 5.35 1.102-2.328 1.51-5.129 1.825-7.584l.157-1.542 5.602 4.657c1.51-4.563 2.392-7.457 5.758-11.045 1.039-1.195 2.707-2.549 3.683-3.902 1.038-1.447 1.73-3.114 2.769-4.721l1.039-1.604.346 1.92c1.763 9.44-2.014 17.339-7.458 24.608 3.21-.473 5.916-1.668 8.497-3.683 1.101-.88 1.982-1.824 3.021-2.863-.157 1.668-.566 3.273-1.038 4.878-.315.63-.566 1.353-.882 1.982-1.825 3.462-5.35 6.262-8.622 8.653 1.447.063 2.958 0 4.154-.251l1.762-.409-.881 1.542c-.409.787-.976 1.573-1.447 2.454-1.196 1.92-2.644 3.776-4.06 5.444 4.531-1.448 7.993-3.272 12.146-6.482l2.234-1.668-1.038 2.644c-.725 1.92-1.511 3.682-2.486 5.444 2.234-1.039 4.248-2.329 6.168-3.84l2.14-1.762-.944 2.643c-1.133 3.116-2.58 5.728-4.248 8.465 2.014-.723 3.996-1.51 6.073-2.234l1.133-.408-.157 1.195c-.409 4.972.221 6.23 3.179 9.346 2.485-2.076 3.775-5.034 3.114-8.307l-.313-1.826 1.51 1.102c1.384.882 3.524 1.92 5.444 2.329-1.605-2.329-3.21-4.972-3.839-7.678l-.63-2.234 1.825 1.447c1.699 1.259 3.366 1.763 5.35 2.14-.787-1.259-1.416-2.549-2.077-3.901l-1.416-3.273 2.611 2.392c3.777 3.273 7.302 4.469 11.77 4.06-2.895-1.668-6.011-3.272-7.93-6.23l-1.668-2.644 2.707 1.542c2.895 1.573 6.073 1.763 9.188 1.102-5.098-3.493-11.171-7.427-11.644-14.066l-.094-1.259 1.195.472c.41.158.725.409 1.196.63 1.92 1.038 3.683 2.485 5.538 3.775 1.983 1.196 3.808 1.983 5.979 2.549-1.447-3.587-3.745-6.481-6.388-9.44-2.015-2.14-5.036-5.255-5.665-8.213-.881-4.563 1.039-8.968 5.413-10.794l1.133-.408-.095 1.195c-.221 5.916 1.354 9.347 5.287 13.657 1.92 2.171 3.839 4.154 5.254 6.64 1.386-1.195 2.172-2.8 3.054-4.405l.471-.786.662.565c1.729 1.447 2.549 3.902 3.272 5.979.534 1.763 1.196 3.682 2.077 5.381.943-2.801 2.801-5.381 5.506-6.577l.314-.157.41.252c1.667 1.038 3.336 1.605 5.191.63l.63-.314.409.565c.408.566.881 1.102 1.353 1.668 1.606 1.605 3.431 2.864 5.351 4.091 2.328 1.573 4.657 2.958 6.954 4.626l.66.472-.565.63c-.818 1.039-1.7 1.919-2.644 2.895-.473.567-1.133 1.102-1.511 1.763-.157.314-.314.629-.409 1.039 0 .22-.094.377 0 .565 0 .63.252 1.259.314 1.889a5.1 5.1 0 0 1 0 1.699c1.447-.157 2.802-.252 4.406-.409 1.038-.157 1.982-.409 2.957-.881 1.448-.725 2.802-2.644 3.84-3.839l.063-.063 5.443-2.328.315.251c.88.535 1.762 1.039 2.8 1.196 2.706.565 6.073-.409 8.717-1.196 3.179-1.038 6.389-2.014 9.756-2.234-.661-1.384-2.015-2.171-3.619-2.58-1.511-.377-3.744-.22-5.57-.157-1.604 0-2.737-.063-4.154-.063 4.061-.661 7.49-1.133 11.109-2.329-2.329-1.668-7.993-2.801-10.165-2.485a20.4 20.4 0 0 0-6.639 2.076c-1.512.724-2.959 1.699-4.469 2.423-.473.221-.882.378-1.354.473-2.328.723-5.035.157-6.954-1.354-2.077-1.605-3.116-2.958-4.783-4.973-1.543-1.981-3.367-3.021-5.602-4.216l-2.959-1.447h3.273c1.763 0 4.217-.882 5.821-2.234a34 34 0 0 1-5.979-1.354c-2.234-.818-3.43-1.763-4.972-3.21 3.524.944 8.811 2.392 13.342.566-2.769-1.133-6.388-2.801-8.15-4.311l-1.416-1.29 1.921-.096c1.101-.063 3.114-.629 4.373-1.416a124 124 0 0 1-7.897-4.09c-2.551-1.447-5.351-3.116-7.585-4.94l-1.29-1.133 1.668-.221c.504-.095 1.196-.347 1.762-.566-1.982-1.29-3.996-2.738-5.602-4.406l-1.572-1.667 2.234.377c3.996.661 15.576 2.172 9.911-5.255l-2.171-2.896 3.115 1.763c2.959 1.542 8.875 3.461 11.267-.063 2.076-3.052-.882-7.111-2.864-9.283l-2.486-2.485 3.273 1.227c4.72 1.825 10.793 3.116 15.828 1.889 1.353-.314 5.13-1.573 4.877-3.588-.094-.881-1.132-1.447-1.824-1.762l-5.287-1.982 5.602.472c2.454.252 5.413.157 7.836-.629 1.102-.315 2.706-1.133 2.957-2.392.379-2.077-3.209-4.091-4.72-4.878l-2.958-1.447h3.273c7.269-.157 10.132-2.958 3.839-8.401l-.818-.725.976-.535c4.783-2.737 9.346-6.482 12.146-11.359 1.825-3.115 3.115-7.363 1.92-10.951-.314-.095-.977.252-1.133.472-.882 1.196-2.863.661-4.218 1.605-3.996 4.311-6.324 7.678-11.989 10.951 4.94-4.406 9.504-9.283 13.249-14.696a27 27 0 0 0 1.604-2.58c1.196-2.077 1.92-4.469 2.172-6.86.157-1.354 0-4.405-2.015-3.839-.22.157-.882 1.29-1.038 1.511-1.604 2.8-3.682 5.191-5.979 7.457 1.511-2.643 2.141-3.996 2.863-6.167 1.133-3.588 1.763-7.679 1.448-11.36-.157-1.511-.818-4.94-2.549-5.57-2.077-.724-2.801 2.298-3.367 3.65-4.877 12.241-10.951 17.686-16.237 20.392 6.419-4.877 11.107-11.737 13.594-17.182 1.133-2.549 2.234-5.286 1.511-8.15-.535-2.014-1.574-4.248-3.43-4.153-1.447 0-2.864 1.195-3.524 2.392-2.771 5.129-5.979 9.912-9.819 14.317-2.863 3.336-5.979 6.231-9.188 9.189l-.253.22h-1.919c-1.731.095-1.92.347-3.336 1.542-3.053 2.549-6.229 5.256-9.126 8.15-1.981 1.982-3.682 3.682-5.097 6.23-1.039 1.763-.662 4.06.377 5.759 1.7 2.549 4.72 3.745 7.772 4.06l.724.095-.095.724c-.157 1.982.567 2.706 2.486 3.179l1.259.313-.786.977c-5.287 6.545-12.242 9.598-20.612 8.37-8.088-1.102-17.496-6.608-23.254-12.461l-1.857-1.763 2.58.504c1.669.314 3.431.314 5.098.157-2.392-1.763-4.877-4.248-5.758-6.734-1.102-2.958-.787-5.412-2.455-8.528l-.975-1.604 1.762.472c.944.252 1.51.409 2.328.315-.66-5.099-2.58-9.189-6.419-12.934l-1.353-1.354h4.656c-1.447-2.423-2.737-3.619-6.011-3.996l-1.195-.095 2.864-4.783-9.095.944h-.157c-5.129-1.605-23.412-5.413-25.898 1.604 2.234 1.133 4.405.63 6.703.314 3.776-.629 7.427-1.353 12.398 1.039-3.997.66-8.56 1.447-14.633.566-2.14-.252-3.839-.63-5.192-1.354-3.367-.252-7.206-.409-10.321 1.038-.63.221-1.196.566-1.731.944z" clip-rule="evenodd"/><path fill="#393637" fill-rule="evenodd" d="M72.836 1.791v-3.367h3.43v3.367zM43.035 24.48V7.235h-6.167V3.71h16.457v3.524h-6.136V24.48zM220.359 3.774h3.524V7.55l-.787 3.367h-1.92l-.817-3.305zm-7.017 0h3.524V7.55l-.725 3.367h-2.077l-.723-3.305V3.774zm-182.453 0h3.588V7.55l-.787 3.367h-2.014l-.787-3.305zm-7.049 0h3.619V7.55l-.818 3.367h-1.982l-.819-3.304zM205.757 24.48V3.71h4.154v20.77zm-28.479 0V3.71h4.091l8.466 13.815V3.71h3.933v20.77h-4.248l-8.402-13.563V24.48zM148.611 3.71h4.217v11.203c0 1.825.094 2.926.156 3.493.157.881.662 1.542 1.291 2.014.63.566 1.605.787 2.801.787s2.077-.221 2.644-.724c.63-.473.944-1.039 1.101-1.763.095-.692.157-1.919.157-3.493V3.71h4.154v10.951c0 2.486-.063 4.217-.315 5.287-.22 1.038-.628 1.888-1.195 2.549-.629.724-1.447 1.258-2.486 1.668-1.038.472-2.297.629-3.996.629-1.92 0-3.43-.22-4.468-.692a5.6 5.6 0 0 1-2.392-1.762c-.63-.724-1.039-1.448-1.196-2.329-.314-1.195-.408-2.863-.408-5.286V3.71zm-29.107 0h8.307c1.604 0 2.895.063 3.682.158a5.2 5.2 0 0 1 2.077.881c.66.472 1.196 1.038 1.699 1.762.378.724.535 1.511.535 2.392 0 1.039-.221 1.92-.724 2.707a5.1 5.1 0 0 1-2.141 1.856c1.29.314 2.234.944 2.864 1.825.724.976 1.039 2.014 1.039 3.209 0 .944-.158 1.826-.63 2.707-.472.976-1.039 1.604-1.826 2.171-.723.535-1.698.881-2.8 1.038-.725.063-2.392.063-5.035.063h-7.111V3.71zm4.247 3.431v4.814h2.707c1.698 0 2.643 0 3.052-.095.724-.094 1.259-.314 1.668-.724.472-.409.629-.944.629-1.604 0-.724-.157-1.196-.472-1.574-.408-.408-.881-.66-1.605-.724-.377-.094-1.573-.094-3.587-.094h-2.392zm0 8.244v5.602h3.84c1.51 0 2.454-.095 2.863-.189.661-.063 1.133-.377 1.51-.786.41-.472.661-1.038.661-1.762 0-.63-.251-1.196-.472-1.605-.347-.472-.724-.692-1.385-.943-.535-.158-1.762-.315-3.65-.315h-3.367zM90.646 24.48V3.71h8.875c2.233 0 3.839.158 4.814.566 1.038.378 1.825 1.039 2.454 1.983.661.975.881 2.076.881 3.272 0 1.542-.472 2.801-1.353 3.839-.881 1.039-2.234 1.699-4.154 1.92.976.566 1.668 1.133 2.234 1.762.661.566 1.354 1.763 2.392 3.367l2.58 4.06h-5.034l-2.958-4.531c-1.133-1.605-1.856-2.644-2.234-3.053a3.16 3.16 0 0 0-1.29-.881c-.473-.157-1.196-.252-2.172-.252h-.786v8.653h-4.249zm4.25-11.99h3.115c2.014 0 3.272-.063 3.744-.221.504-.157.882-.503 1.133-.881.315-.409.409-.976.409-1.604 0-.725-.157-1.291-.566-1.668-.314-.409-.881-.724-1.511-.818-.408-.063-1.384-.063-3.115-.063h-3.209zm-31.5 11.99V3.71h15.356v3.524H67.549v4.626h10.416v3.431H67.549v5.695h11.612v3.493H63.396zM66.7 1.791v-3.367h3.43v3.367z" clip-rule="evenodd"/><path fill="#242323" fill-rule="evenodd" d="M-13.639-16.114h275v186.606c0 26.622-4.783 50.758-23.16 70.897-14.16 15.42-34.93 25.175-53.811 33.639-20.77 9.44-42.011 18.473-60.325 32.287l-1.981 1.542-1.92-1.604c-13.846-11.675-30.934-19.825-47.234-27.346-24.544-11.266-52.835-22.94-69.859-44.748-3.366-4.248-6.324-8.717-8.779-13.595-7.835-15.827-7.93-34.992-7.93-52.426zm3.116 3.115h268.77v183.491c0 33.168-8.213 53.401-22.373 68.727-26.371 28.856-76.311 37.321-113.727 65.643-34.678-29.36-89.653-37.102-116.684-71.622-12.619-16.237-16.049-30.461-15.986-64.007z" clip-rule="evenodd"/><path fill="#242323" fill-rule="evenodd" d="M198.865 81.06c1.92 2.737 2.015 5.381-.157 8.087 2.549-1.038 3.524-2.644 3.588-4.312 0-1.762-1.354-3.209-3.493-3.775zM147.573 129.992c.943 3.587.472 6.608-1.605 9.346 2.485-1.038 3.902-3.524 3.997-5.192 0-1.857-.819-3.366-2.392-4.154M196.474 69.731c1.354 2.706 1.448 5.35-.094 8.056 1.856-1.038 2.58-2.643 2.58-4.311.062-1.763-.975-3.179-2.486-3.745M185.209 110.167c-3.273 2.863-7.206 3.179-10.165 2.392 1.039.976 3.054 1.604 4.878 1.448 2.014-.157 3.997-1.196 5.287-3.84M195.908 95.126c.881 2.485.818 4.499.408 6.639 1.29-.566 2.077-2.485 1.983-3.587-.157-1.195-.882-2.706-2.392-3.115v.063zM157.233 122.471c.787 8.245-2.234 16.867-8.465 22.06 7.112-1.604 8.937-7.741 9.661-11.989.629-3.997.629-7.899-1.196-10.071M190.715 79.643c.473 3.116-.629 4.375-2.863 5.979 1.92-.157 3.431-1.102 3.996-2.706.315-1.133.315-2.329-.157-3.367-.252-.63-1.133-.881-.976.094M59.745 86.189c-2.015 2.706-1.856 5.35.314 8.056-1.762-.692-2.895-2.076-2.958-3.744.001-1.763.788-3.431 2.644-4.312M62.356 99.531c-1.102 2.077-.534 3.744 1.448 5.129-1.448-.157-2.486-.818-2.706-1.856-.314-1.102.063-2.297 1.258-3.273M47.819 114.793c-1.511.094-2.141.881-2.329 2.485-.378-.881-.535-1.919-.063-2.485.566-.471 1.511-.409 2.392 0M56.44 127.349c1.29-2.392 1.543-4.153 1.134-6.325.786.473 1.195 1.856 1.29 2.738.787-.725 2.958-2.077 4.531-2.077-2.707 1.825-5.507 4.531-7.018 5.728zM93.447 118.318c-1.919 7.27-1.353 13.657 2.896 20.863-3.053-2.485-5.916-7.615-5.916-11.675-.095-4.248 1.195-7.049 3.02-9.188M59.084 74.923c-.472 3.115.567 4.405 2.801 5.979-1.92-.158-3.367-1.102-3.901-2.801-.409-1.102-.315-2.234.063-3.273.252-.724 1.133-.943.976.095z" clip-rule="evenodd"/><path fill="#242323" d="M170.827 224.995v.503c-2.895 1.417-5.129 2.864-6.891 4.312-1.763 1.416-3.116 2.958-4.06 4.469-1.039 1.604-1.762 3.43-2.329 5.443.725-.566 1.29-.975 1.763-1.29 1.039-.566 2.014-.943 3.052-1.354 2.392-.723 4.374-.629 5.979.157 1.606.882 2.392 2.392 2.392 4.783 0 1.605-.472 3.273-1.258 4.879-.881 1.698-2.172 3.114-3.682 4.404-1.604 1.196-3.368 2.077-5.129 2.707-1.983.566-3.745.724-5.445.409-1.667-.252-2.926-1.133-3.901-2.392-.944-1.354-1.447-2.959-1.447-4.878 0-2.707.881-5.602 2.58-8.56 1.73-2.958 4.216-5.601 7.332-8.056 3.21-2.423 6.892-4.248 11.045-5.602v.066zm-13.594 16.301c-.157 1.762-.251 2.957-.251 3.775 0 1.668.251 3.273.66 4.721.378 1.416.944 2.297 1.668 2.8.566.222 1.196.315 1.824.063.819-.314 1.385-.786 2.015-1.604.566-.787.787-2.234.787-4.218 0-3.429-.473-5.537-1.512-6.481-.628-.63-1.604-.787-2.705-.409-.661.252-1.447.66-2.486 1.353m-65.925-10.542v20.297c0 1.541.063 2.485.221 3.053.157.408.566.88 1.133 1.353.472.409 1.447.786 2.643 1.196l.725.157v.724l-16.867-5.192v-.629l.881.22c1.354.409 2.392.66 2.958.566.535-.095.944-.314 1.196-.629.157-.41.314-1.354.314-2.896v-12.871c0-1.102-.095-1.919-.252-2.234-.063-.314-.378-.629-.724-.943-.378-.315-.881-.566-1.354-.724-.786-.252-1.762-.314-2.958-.314l-.378-.725 11.738-.629.787.221h-.063zm9.912 27.818v-.566c2.612-.22 4.878-.787 6.609-1.604 1.856-.787 3.304-1.825 4.342-3.179 1.102-1.29 1.825-2.8 2.234-4.626-.976.314-1.762.535-2.485.63-.63.063-1.354.157-2.077.063-2.486-.158-4.469-1.039-6.073-2.55-1.668-1.604-2.486-3.588-2.486-6.073 0-1.668.472-3.178 1.354-4.563.881-1.416 2.076-2.392 3.775-3.021 1.605-.63 3.273-.976 5.035-.818 1.825.188 3.588.725 5.256 1.763 1.699.975 3.052 2.329 3.996 4.091 1.038 1.763 1.542 3.587 1.542 5.759 0 2.706-.818 5.255-2.486 7.678-1.604 2.393-3.996 4.217-7.206 5.413-3.18 1.288-6.955 1.854-11.33 1.603m13.5-11.581c.221-1.354.315-2.644.315-3.776 0-2.298-.409-4.468-1.039-6.545-.314-1.196-.943-2.077-1.668-2.644-.408-.315-.881-.473-1.541-.473-.787-.157-1.417.157-1.825.63-.63.724-.944 2.076-.944 4.248 0 3.524.535 6.01 1.573 7.427.661.975 1.604 1.447 2.737 1.604.63.001 1.417-.156 2.392-.471m16.301-.975v-.63c1.825-.629 3.115-1.133 3.745-1.51.723-.472 1.29-1.133 1.762-1.92.473-.724.724-1.511.724-2.329 0-.943-.473-1.824-1.447-2.549-.944-.629-2.14-.881-3.493-.723-2.266.251-4.091 1.353-5.602 3.429l-.881-.157c1.102-2.234 2.549-3.996 4.405-5.255 1.73-1.227 3.745-1.92 5.822-2.266 2.234-.22 4.059.157 5.507 1.039 1.447.976 2.171 2.171 2.171 3.618 0 .944-.314 1.92-.975 2.863-.725.976-1.763 1.857-3.179 2.645 1.92.565 3.272 1.29 4.216 2.233.976.976 1.448 2.234 1.448 3.84q0 4.059-3.587 7.269c-2.486 2.172-5.696 3.431-9.756 3.839-2.706.314-4.626.157-5.916-.408-.881-.473-1.354-1.039-1.354-1.826 0-.565.221-1.133.787-1.604.472-.408 1.133-.724 1.762-.787.567-.094 1.039 0 1.512.063.251.157 1.133.566 2.737 1.448 1.51.786 2.957 1.195 4.217.943 1.196-.063 2.171-.535 3.052-1.416.787-.818 1.196-1.762 1.196-2.958 0-1.763-.724-3.272-2.234-4.563-1.542-1.289-3.681-1.982-6.639-2.328"/><path fill="#242323" fill-rule="evenodd" d="M142.759 119.513c0-11.422-9.032-20.611-20.14-20.611-11.172 0-20.203 9.189-20.203 20.611 0 11.36 9.031 20.612 20.203 20.612 11.108 0 20.14-9.252 20.14-20.612m-20.455-3.209-6.136 3.839-6.011-2.706-.629-5.664 7.741-6.326 5.663 3.997zm9.503-14.066c3.682 2.076 6.641 5.443 8.308 9.378l-2.706.157-5.759-5.916zm9.44 21.681c-.629 2.863-1.919 5.412-3.587 7.646l-1.196-.944 2.707-6.325zm-14.538 14.696a18.3 18.3 0 0 1-4.153.473c-1.762 0-3.43-.221-5.035-.725l-3.367-5.35 4.249-4.783 7.017.221 3.682 4.814-2.485 5.35zm-19.919-7.994a20.9 20.9 0 0 1-3.178-8.15l1.825.315 1.51 7.741-.157.188zm-.062-22.31c2.485-3.65 6.136-6.451 10.479-7.741l-.409 3.934-7.584 6.136zm-.41 13.688 1.604 8.622 5.602 1.605 4.06-4.469-1.668-6.734-6.23-2.801zm19.983 5.916 3.744 4.878 5.381-2.329 2.864-6.545-3.116-4.657-6.388 2.58-2.392 6.073zm2.17-7.049 6.389-2.549 1.668-6.073-5.255-5.35-7.363 2.549-.63 6.797z" clip-rule="evenodd"/></svg>