<svg xmlns="http://www.w3.org/2000/svg" xml:space="preserve" width="275" height="340.283" viewBox="4.516 5.242 275 340.283"><g fill-rule="evenodd" clip-rule="evenodd"><path fill="#FFF" d="M142.015 345.525c-6.627-4.647-14.877-8.525-24.117-12.018-9.763-3.657-20.68-6.957-31.982-10.313a269 269 0 0 0-5.28-1.458C55.639 314.944.364 299.957 4.764 222.325c.247-4.18.687-9.075 1.375-14.107.578-4.345 1.32-8.828 2.283-13.063 1.347-6.105 2.887-12.128 4.51-18.535 5.527-21.67 12.044-47.272 13.777-81.509L4.791 56.145 30.943 5.243h222.145l26.152 50.902-21.918 38.967c1.732 34.237 8.25 59.839 13.778 81.509 1.622 6.407 3.162 12.43 4.51 18.535.962 4.234 1.705 8.718 2.31 13.063.66 5.032 1.1 9.928 1.348 14.107 4.4 77.632-50.875 92.619-75.872 99.411a269 269 0 0 0-5.28 1.458c-11.302 3.355-22.22 6.655-31.982 10.313-9.241 3.492-17.491 7.37-24.119 12.017"/><path fill="#1F3986" d="m63.173 250.485-21.367 21.478a128.2 128.2 0 0 0 16.473 18.646c.577.55.742 1.567.11 2.227-.55.551-1.458.716-2.283-.027-17.792-15.866-30.607-35.859-37.95-58.547 6.573 1.815 13.145 3.63 19.717 5.418 2.035-8.772 6.408-23.43 9.488-33.413 5.775 18.726 8.25 28.737 15.812 44.218m175.779-86.266h16.913v7.7h-3.686v-4.015h-5.747v6.298h4.208v3.684h-4.208v7.013h2.228v3.686h-9.709v-3.686h2.146v-16.995h-2.146zm-207.459 0h9.708v3.685h-2.255v16.995h2.255v3.686h-9.707v-3.686h2.118v-16.995h-2.118zm7.645 11.743 6.27 8.937h-2.53v3.686H53.19v-3.686h-2.063l-6.875-10.037 5.967-6.958h1.595v-3.685h-8.525v3.685h2.723zm80.685-17.765c-1.32 1.072-4.813 5.444-5.968 8.69-1.925.083-7.26-.963-6.077 5.747.083.44.138.99.22 1.54 3.052-.99 3.245-2.915 3.822-5.5.303 1.732 1.238 2.943 2.475 3.988.77.66 1.76.962 3.217.962 4.318.027 5.225-1.155 6.188-4.647 1.595 4.317 2.447 5.06 7.865 5.582 2.063.193 3.382.275 4.427-.083 1.43-.44 2.447-.962 3.465-2.97 1.43 3.878 5.199 4.511 8.664 5.143 4.867.853 6.792.963 9.322-2.31 1.127 3.851 2.227 4.758 7.177 5.335 2.668.329 6.215.715 7.563-2.228-.165-.138-.357-.247-.522-.385.908-17.215-8.718-23.402-10.229-24.75.494-4.62.082-8.938-.771-12.292 3.74-1.897 7.452-3.465 11.165-3.988 9.158-1.347 17.38.605 20.652 1.706-2.172-4.978-10.945-11.633-17.242-13.64-11.989-3.822-26.289 2.337-35.448 9.542-7.205 5.692-9.542 3.493-17.627 13.64-1.237 1.595-2.063 2.833-2.942 4.84-1.459 3.355-.717 5.225.604 6.078m-11.633 16.94c.11.604.303 1.154.577 1.566.385.578 1.073.743 1.815.825-1.127 5.831-2.393 12.733-4.098 18.315-.853 2.86-1.733 5.721-2.42 8.689-1.045 4.538 1.018 5.556 4.482 6.242.055 1.65.11 2.778.165 3.851-1.76 1.952-.578 3.245.055 4.07-.99 2.97.853 4.455 1.898 4.538.082.109.137.439.44 1.237.385.962.605 1.704.99 2.584.633 1.349 1.815 3.383 2.667 4.428 1.953 2.447 4.813 4.62 8.608 5.445 5.17 1.127 9.542-.303 12.594-1.678 3.19 5.995 7.729 16.308 11.716 20.9-.55.412-1.266.935-1.814 1.731-.605.936-1.018 2.229.027 2.668 1.018.439 1.704-.742 1.925-1.815.22-.88.138-1.705.055-2.364.357.385.688.715 1.018.99 2.118 1.814 6.242 2.64 10.064 2.832-.522.633-1.21 1.43-1.649 2.503-.468 1.209-.578 2.777.688 3.024 1.293.247 1.76-1.265 1.76-2.585 0-1.155-.385-2.173-.632-2.914 2.31.109 4.51.027 6.05-.221-.303.742-.771 1.732-.853 2.888-.11 1.292.22 2.859 1.539 2.723 1.321-.138 1.321-1.733.936-2.998-.33-1.127-.99-1.979-1.457-2.641 1.925-.302 3.685-.824 5.472-1.677-.109.825-.302 1.897-.082 3.08.274 1.32 1.018 2.749 2.255 2.255 1.265-.495.825-2.063.109-3.189-.632-1.018-1.512-1.678-2.172-2.2 2.668-1.266 5.362-3.218 8.636-5.968.164.771.412 1.705.961 2.585.688 1.154 1.898 2.228 2.888 1.32.99-.907.056-2.2-1.018-3.025-.825-.605-1.731-.935-2.475-1.182 1.706-1.623 2.558-2.86 2.916-4.098.302.604.714 1.319 1.347 1.951.88.881 2.228 1.568 2.915.523s-.468-2.008-1.623-2.502c-.88-.386-1.786-.469-2.529-.523.247-1.347 0-2.777-.192-4.758 3.657-1.21 9.075-4.399 11.33-10.972 2.832-8.332-3.493-15.813-4.593-16.913 0-1.154 2.31-13.2-14.685-23.677-1.375-.854-2.42-1.485-2.806-1.926-.138-.521-.138-1.072-.138-1.566.963-.358 1.87-.881 2.531-1.98-1.788-1.458-2.035-4.758-2.229-6.82-.824.716-1.567 1.403-2.502 1.732-1.183.385-2.668.44-5.143.138-5.197-.604-6.105-2.117-7.26-5.005-2.146 1.98-3.74 2.942-9.268 1.952-2.586-.439-4.263-.962-5.61-1.759-1.184-.688-2.063-1.898-2.971-3.108-.605.99-1.843 2.254-3.135 2.695-1.21.385-2.585.303-4.813.11-5.308-.522-5.995-1.595-7.7-4.895-1.1 2.833-2.255 3.987-6.242 3.96-1.677-.027-2.86-.357-3.822-1.183-.688-.605-1.21-1.567-1.733-2.722-.575 2.093-1.07 3.689-3.765 4.514m66.633 9.487a10 10 0 0 0 .302-1.128c.605-2.832-.741-4.454-2.667-5.857.165 2.338.468 5.637 2.365 6.985m-58.245 4.895c-.935-1.1-1.595-2.585-1.787-3.987 1.348 2.475 3.245 4.482 5.692 5.995-2.063.742-3.712 1.925-4.923 3.603-.027-.633.275-1.54.468-2.091-.111-1.43-.083-2.695.55-3.52m-2.448-4.648c4.62-.274 9.047.138 13.31 1.237-3.52-1.787-7.975-3.327-13.283-3.162-.688.027-1.815.193-1.76 1.072.056.88 1.101.908 1.733.853m61.326 71.005c.082.825.109 2.007.604 3.189.522 1.211 1.567 2.448 2.668 1.705 1.127-.742.356-2.172-.578-3.135-.879-.906-1.953-1.374-2.694-1.759m-22.99 3.933c.055.77.192 1.87-.083 3.052-.302 1.21-1.1 2.531-2.228 2.008-1.154-.55-.688-1.979.056-3.025.687-.963 1.623-1.568 2.255-2.035m-15.043-117.92c.797 0 1.458.605 1.458 1.347 0 .743-.66 1.32-1.458 1.32s-1.458-.578-1.458-1.32.66-1.347 1.458-1.347m-24.887 100.98c-4.73 1.897-5.583 5.802-2.42 8.194 2.255 1.705 4.675 1.101 5.692-.633.88-1.484 1.21-3.437 1.925-4.262 1.65 4.95 9.927 11.741 18.287 11.852-5.857-1.649-10.78-4.069-13.502-10.56 5.088 1.787 10.093 2.86 15.4 1.65-15.455-2.063-20.79-5.803-26.647-10.12.247 1.184.962 2.724 1.265 3.879m10.917-86.625c.55-1.127 1.403-2.613 3.355-3.603 3.493-1.815 10.478-.522 15.153-3.328 2.613-1.54 2.145-3.438 3.493-5.775 13.447-3.465 18.479-8.003 25.96-8.993 4.867-.66 10.01-.44 16.885.605-3.686-4.125-11.247-6.958-19.195-6.243-7.178.66-11.026 2.667-17.214 5.472-1.072.495-1.65.303-1.815-.027-.138-.33 0-.742.99-1.183.385-.165.935-.413 1.704-.77 1.211-.605 2.146-1.045 3.438-1.54 4.95-1.952 8.826-2.97 12.622-3.217 3.987-.275 9.763-.027 15.07 2.777-3.466-2.915-8.855-5.445-15.208-5.83-2.255-.11-4.647.055-7.205.55-8.497 1.677-15.537 5.83-21.34 10.285-5.72 4.428-7.123 3.163-12.54 8.387-2.695 2.585-6.408 6.573-7.288 10.148-.55 2.2.137 2.915 1.595 3.355 1.182.388.962.058 1.54-1.07m-.853 2.668c-.577-.11-.852-.11-1.237.11-1.127.632-3.823 3.987-5.803 8.085 9.268.522 18.755 2.393 27.967 3.63 8.416 1.182 18.838 2.448 26.346 5.362.082-16.307-8.415-26.18-24.695-27.83-1.594 3.3-6.6 4.345-10.917 4.729-4.813.44-8.333.522-9.763 4.51-.413 1.128-.935 1.623-1.898 1.404m28.436 76.834c2.007 1.457 4.95 2.2 6.847.165 1.815-1.98 1.897-4.95 2.229-8.112l-4.621 3.933c-1.43 1.181-3.52 2.666-4.455 4.014m-10.066-55.494-3.74-.551c-1.403 6.38-.083 8.195 2.255 12.897 8.14 16.473 1.567 14.218-2.365 21.45-1.018 1.925-1.183 4.399-.192 6.654.632 1.402 2.255 4.152 3.933 3.851 3.218-.605 6.985-4.923 8.086-7.535 4.124-9.955-2.531-21.313-6.546-30.442-1.403-1.76-1.789-3.327-1.431-6.324m7.893 54.834c.853-.522 9.157-7.563 9.817-8.662 4.95-7.92.495-24.311-6.243-31.543-1.539-1.622-5.774-5.665-7.616-6.765 2.529 7.232 10.147 17.737 6.022 28.682-.578 1.514-1.266 2.504-1.953 3.466-1.979 2.859-4.593 4.647-8.306 5.939-.109 6.023 2.559 6.793 8.279 8.883m-6.297-54.56c-.057 1.705.027 2.97.797 4.015 1.458 2.008 4.482 3.438 8.442 7.425 3.383 3.41 5.912 6.215 8.002 12.266 5.115 14.795.908 16.335 2.75 26.345.412 2.228 3.851 5.308 5.5 2.722 1.788-2.887 1.155-14.188 1.1-18.149-.164-8.607-3.932-15.207-8.909-21.313-3.96-4.84-7.067-5.83-9.681-11.825-1.676-.359-5.664-1.046-8.001-1.486m36.052 26.537c3.438 1.073 4.345 5.226 4.702 8.113.165 1.539.907 1.319 1.567 1.127a6.6 6.6 0 0 0 2.228-1.155c.936-.797.743-1.513.771-2.723 0-4.481-2.723-10.34-6.436-13.914-3.904-3.74-10.367-7.673-10.917-8.938-.495-1.183-.22-1.926-.247-2.559-2.778-.797-3.521-1.265-17.243-4.454 1.045 4.51 13.034 12.925 17.436 24.475 2.364 6.16.137 15.345 5.362 15.4 6.736.056 3.685-12.016 2.777-15.372m-64.9 2.366c-1.018 1.237-2.75 1.265-3.657 1.513l.083 3.739c1.87.688 5.032 2.366 6.215 3.19-1.623 2.42-2.667 3.217-4.098 4.62.11 2.447 2.502 6.27 3.685 7.81 6.627 8.498 17.792 5.336 23.76 1.101-.578-1.513-.99-3.383-.771-5.309-1.045-1.154-3.767-2.31-4.29-7.396-.661-6.545 3.959-8.141 6.215-11.88 2.365-3.987-1.045-9.57-2.778-13.228-4.51-9.57-2.832-11.495-2.502-14.08-8.002-1.43-14.987-1.375-23.183-1.897-1.732 6.38-2.942 13.447-4.592 19.58-.495 1.925-2.558 8.029-2.255 9.763.275 1.512 2.282 2.117 3.905 2.282 1.787.165 2.558-.605 3.3-.936 1.018-.44 1.925-.082.963 1.128m54.45 28.077c3.438 2.558 6.408 3.575 11.22 3.685 4.867.11 14.74-6.242 13.558-15.481-.55-4.181-2.997-7.535-5.087-9.846-5.391 4.592-17.463 16.637-19.691 21.642m-30.443-3.08c2.723 5.885 9.46 19.718 12.513 21.643 1.76 1.101 3.987 1.732 5.968 2.118 6.27 1.154 12.018.22 16.747-2.971 2.31-1.567 4.015-2.447 6.077-4.538 2.42-2.419 2.915-3.849 2.09-7.809-9.651.356-11.907-2.833-13.529-3.74-.357-.221-.716-.33-1.128-.303-1.732.082-3.905.604-5.912.715-6.49.412-6.71-.853-10.67-2.338-1.596-.604-6.518-1.677-9.213-4.482-.77.577-1.43.935-2.943 1.705m4.29-127.159c24.118 0 45.953 9.79 61.765 25.603 15.785 15.785 25.575 37.62 25.575 61.737s-9.79 45.951-25.575 61.765c-15.813 15.813-37.647 25.575-61.765 25.575-24.117 0-45.952-9.763-61.765-25.575-15.785-15.813-25.575-37.647-25.575-61.765s9.79-45.953 25.575-61.737c15.813-15.814 37.648-25.603 61.765-25.603m59.318 28.022c-15.18-15.18-36.135-24.585-59.318-24.585-23.182 0-44.137 9.405-59.317 24.585-15.207 15.18-24.584 36.162-24.584 59.317 0 23.182 9.377 44.165 24.584 59.345 15.18 15.18 36.135 24.557 59.317 24.557s44.138-9.377 59.318-24.557c15.208-15.18 24.585-36.163 24.585-59.345 0-23.155-9.377-44.137-24.585-59.317M32.951 8.569 8.558 56.062l21.505 38.252-.027.468c-1.705 34.87-8.277 60.774-13.86 82.665-1.677 6.545-3.272 12.76-4.538 18.425-.908 4.125-1.65 8.497-2.227 12.787-.661 4.95-1.1 9.735-1.32 13.86-4.263 74.938 49.225 89.457 73.397 96.002 2.008.55 3.795 1.018 5.363 1.485 11.33 3.382 22.302 6.682 32.202 10.422 8.635 3.245 16.445 6.848 22.962 11.11 6.518-4.263 14.328-7.865 22.962-11.11 9.9-3.74 20.873-7.04 32.203-10.422 1.567-.468 3.354-.936 5.362-1.485 24.172-6.545 77.66-21.064 73.396-96.002-.22-4.125-.659-8.91-1.319-13.86-.577-4.29-1.32-8.662-2.228-12.787-1.265-5.665-2.86-11.88-4.538-18.425-5.582-21.89-12.154-47.795-13.859-82.665l-.027-.468 21.505-38.252L251.08 8.569zm109.064 336.956c-6.627-4.647-14.877-8.525-24.117-12.018-9.763-3.657-20.68-6.957-31.982-10.313a269 269 0 0 0-5.28-1.458C55.639 314.944.364 299.957 4.764 222.325c.247-4.18.687-9.075 1.375-14.107.578-4.345 1.32-8.828 2.283-13.063 1.347-6.105 2.887-12.128 4.51-18.535 5.527-21.67 12.044-47.272 13.777-81.509L4.791 56.145 30.943 5.243h222.145l26.152 50.902-21.918 38.967c1.732 34.237 8.25 59.839 13.778 81.509 1.622 6.407 3.162 12.43 4.51 18.535.962 4.234 1.705 8.718 2.31 13.063.66 5.032 1.1 9.928 1.348 14.107 4.4 77.632-50.875 92.619-75.872 99.411a269 269 0 0 0-5.28 1.458c-11.302 3.355-22.22 6.655-31.982 10.313-9.241 3.492-17.491 7.37-24.119 12.017M36.608 14.564l-21.23 41.387 20.763 36.932-.11 2.201c-.743 15.455-2.558 30.717-5.363 45.924h36.547c16.693-23.265 43.973-38.417 74.8-38.417 30.828 0 58.108 15.153 74.8 38.417h36.547c-2.805-15.207-4.619-30.47-5.362-45.924l-.11-2.201 20.763-36.932-21.229-41.387h-38.857v19.8h-39.601v-19.8h-53.899v19.8h-39.6v-19.8zm67.87 54.918 7.37 21.752c.55 1.622.99 2.667 1.265 3.052.302.413.742.688 1.292.825.55.11 1.348.027 2.337-.33l.633-.192.22.688-13.998 4.729-.22-.687.688-.248c1.155-.384 1.897-.77 2.31-1.209.385-.413.605-.88.605-1.403q.04-.784-.825-3.3l-4.675-13.805c-.413-1.237-.743-1.98-.963-2.255a1.6 1.6 0 0 0-.935-.55c-.384-.138-.797-.11-1.209.028-.688.247-1.403.715-2.228 1.457l-.578-.55 8.25-7.782zm17.682 25.52-.083-.605c2.2-.797 4.042-1.814 5.473-3.025 1.458-1.21 2.558-2.612 3.3-4.235.715-1.623 1.127-3.41 1.265-5.39q-1.196.783-2.063 1.155a6.5 6.5 0 0 1-1.843.495c-2.09.247-3.96-.275-5.527-1.595-1.623-1.348-2.585-3.328-2.915-5.968-.22-1.814-.055-3.547.495-5.17.578-1.622 1.513-2.915 2.805-3.933s2.695-1.622 4.207-1.814c1.623-.22 3.218.055 4.786.797 1.567.743 2.887 1.953 3.959 3.603 1.1 1.65 1.788 3.602 2.063 5.885.385 2.916.027 5.802-1.018 8.663-1.072 2.86-2.86 5.28-5.445 7.26-2.556 1.952-5.691 3.244-9.459 3.877m10.038-15.015a64 64 0 0 0-.33-4.042c-.33-2.502-.908-4.785-1.732-6.875-.495-1.127-1.072-1.953-1.788-2.448-.385-.247-.825-.33-1.375-.274-.688.082-1.183.44-1.485 1.1-.413.853-.495 2.448-.193 4.703.468 3.795 1.238 6.352 2.338 7.672.687.853 1.54 1.237 2.558 1.1.522-.056 1.209-.386 2.007-.936m27.115 13.75-16.445-1.265.027-.44c5.527-5.637 8.91-9.433 10.147-11.44q1.815-2.97 2.063-5.94.165-2.187-1.072-3.712c-1.237-1.525-1.87-1.567-3.162-1.678-2.117-.165-3.851.77-5.17 2.805l-.743-.33c.936-2.585 2.2-4.455 3.823-5.61 1.594-1.155 3.409-1.65 5.362-1.485 1.43.11 2.694.522 3.822 1.293a7.2 7.2 0 0 1 2.529 2.915q.866 1.773.743 3.3c-.138 1.814-.798 3.63-1.952 5.445-1.568 2.42-4.868 5.748-9.9 9.955l6.05.44c1.485.11 2.447.137 2.915.055.439-.11.825-.275 1.155-.55.302-.275.715-.853 1.265-1.76l.742.056zm26.812-6.6c-.907 2.64-2.117 5.005-3.63 7.04-.906 1.265-1.896 2.228-2.969 2.86a9.5 9.5 0 0 1-3.273 1.292 7.1 7.1 0 0 1-3.383-.247c-1.265-.44-2.31-1.155-3.135-2.173-.798-.99-1.402-2.228-1.787-3.712-.275-1.1-.385-2.448-.303-4.07a24 24 0 0 1 1.237-6.462c.99-2.888 2.282-5.418 3.905-7.535 1.347-1.788 2.888-2.998 4.592-3.603 1.705-.578 3.328-.632 4.841-.137q2.31.784 3.795 3.052c.99 1.485 1.484 3.245 1.512 5.225.056 2.75-.412 5.555-1.402 8.47m-5.995-2.09c1.568-4.62 2.447-7.342 2.668-8.14.468-1.87.577-3.19.303-3.988-.192-.55-.633-.935-1.375-1.182-.578-.192-1.072-.165-1.485.027-.659.303-1.237.99-1.815 2.09-.549 1.1-2.007 5.088-4.345 11.99-1.265 3.768-1.979 6.325-2.145 7.7-.138.99-.055 1.705.22 2.145.248.44.688.77 1.266.962.659.22 1.237.165 1.704-.138q1.197-.825 2.063-3.053zM96.613 280.929c-6.105-3.823-12.21-7.646-18.343-11.468l-3.905 6.298 3.438 2.145 1.952-3.135 2.942 1.843-6.93 11.082-3.163-1.98-1.843 2.915 3.19 1.98 1.54.989 2.475 1.514 1.54.99 3.19 1.979 1.815-2.942-3.162-1.98 6.93-11.082 2.915 1.843-1.953 3.135 3.438 2.172zm65.202 9.404c6.902-2.09 13.806-4.207 20.707-6.297l2.146 7.095-3.877 1.183-1.101-3.548-3.301 1.018 3.823 12.485 3.575-1.072.99 3.3-3.575 1.072-1.761.55-2.776.825-1.761.55-3.547 1.101-1.018-3.328 3.574-1.073-3.822-12.512-3.3 1.018 1.1 3.548-3.905 1.183zm31.159-8.387 3.107-2.09 2.063 15.234-2.173 1.457 1.814 2.695 9.295-6.325-1.814-2.667-2.613 1.788-.521-3.934 6.133-4.152 3.271 2.063-2.42 1.649 1.787 2.668 9.295-6.297-1.787-2.668-1.622 1.072-12.733-8.003 3.025-2.034-1.814-2.667-14.107 9.542zm7.973-2.613 4.785 3.025-4.015 2.723zm-62.754 16.005v10.176c0 3.849 7.645 3.849 7.645 0v-10.176h-2.612v-3.217h11.467v3.217h-2.611v9.46c0 10.065-20.131 10.065-20.131 0v-9.46h-2.613v-3.217h11.468v3.217zm-35.53-11.027 20.323 7.123-2.118 6.022-4.207-1.458 1.045-2.997-7.26-2.53-1.623 4.647 5.363 1.87-1.018 2.887-5.363-1.87-1.815 5.253 7.26 2.53.082-.247.88-2.53 4.208 1.458-2.118 6.05a9434 9434 0 0 1-21.202-7.426l1.155-3.245 3.52 1.237 2.942-8.414 1.54-4.373-2.667-.935zm118.195-33.826 21.367 21.478a128.3 128.3 0 0 1-16.473 18.646c-.578.55-.742 1.567-.11 2.227.55.551 1.458.716 2.283-.027 17.792-15.866 30.606-35.859 37.949-58.547a5300 5300 0 0 1-19.718 5.418c-2.008-8.772-6.407-23.43-9.487-33.413-5.773 18.726-8.249 28.737-15.811 44.218m-78.843 68.008c34.595 0 65.917-14.024 88.578-36.685a125 125 0 0 0 7.92-8.69c-6.848-6.875-13.722-13.75-20.57-20.652l-2.695-2.695a92.5 92.5 0 0 1-7.809 8.883c-16.748 16.747-39.875 27.087-65.423 27.087-25.547 0-48.675-10.34-65.422-27.087a93 93 0 0 1-7.811-8.883l-2.695 2.695a7282 7282 0 0 1-20.57 20.652 125 125 0 0 0 7.92 8.69c22.687 22.661 53.982 36.685 88.577 36.685"/></g></svg>