<svg xmlns="http://www.w3.org/2000/svg" width="243" height="275" viewBox="0 0 243 274"><defs><radialGradient id="b" cx=".5" cy=".5" r="1" fx=".5" fy=".5" gradientTransform="matrix(65.74219 0 0 73.28906 109.11 140.86)" gradientUnits="userSpaceOnUse"><stop offset="0" style="stop-color:#4c93d1;stop-opacity:1"/><stop offset="1" style="stop-color:#0062ab;stop-opacity:1"/></radialGradient><radialGradient id="c" cx=".5" cy=".5" r="1" fx=".5" fy=".5" gradientTransform="matrix(66.25 0 0 73.08203 75.07 124.04)" gradientUnits="userSpaceOnUse"><stop offset="0" style="stop-color:#4c93d1;stop-opacity:1"/><stop offset="1" style="stop-color:#0062ab;stop-opacity:1"/></radialGradient><radialGradient id="d" cx=".5" cy=".5" r="1" fx=".5" fy=".5" gradientTransform="matrix(78.94922 0 0 84.30078 83.684 0)" gradientUnits="userSpaceOnUse"><stop offset="0" style="stop-color:#f8f8f8;stop-opacity:1"/><stop offset="1" style="stop-color:#d3d3d3;stop-opacity:1"/></radialGradient><radialGradient id="e" cx=".5" cy=".5" r="1" fx=".5" fy=".5" gradientTransform="matrix(59.45703 0 0 32.00781 92.77 13.672)" gradientUnits="userSpaceOnUse"><stop offset="0" style="stop-color:#f6c336;stop-opacity:1"/><stop offset="1" style="stop-color:#f28713;stop-opacity:1"/></radialGradient><linearGradient id="a" x1="0" x2="1" y1="0" y2="0" gradientTransform="matrix(242.8125 0 0 242.03906 .086 20.559)" gradientUnits="userSpaceOnUse"><stop offset="0" style="stop-color:#43280d;stop-opacity:1"/><stop offset=".3" style="stop-color:#cf9455;stop-opacity:1"/><stop offset=".78" style="stop-color:#f0e384;stop-opacity:1"/><stop offset=".89" style="stop-color:#b08b4b;stop-opacity:1"/><stop offset="1" style="stop-color:#593b11;stop-opacity:1"/></linearGradient><linearGradient id="f" x1="0" x2="0" y1="0" y2="1" gradientTransform="matrix(26.12328 -23.4457 23.5215 26.0391 96.617 250.375)" gradientUnits="userSpaceOnUse"><stop offset="0" style="stop-color:#dde1e4;stop-opacity:1"/><stop offset=".53" style="stop-color:#bbc0c4;stop-opacity:1"/><stop offset="1" style="stop-color:#fff;stop-opacity:1"/></linearGradient><linearGradient id="g" x1="0" x2="0" y1="0" y2="1" gradientTransform="matrix(30.13144 -18.04645 18.1048 30.03434 97.321 245.678)" gradientUnits="userSpaceOnUse"><stop offset="0" style="stop-color:#abb0b4;stop-opacity:1"/><stop offset=".53" style="stop-color:#bfc4c8;stop-opacity:1"/><stop offset="1" style="stop-color:#a5a9ac;stop-opacity:1"/></linearGradient></defs><path d="M121.492 262.598c-67.05 0-121.406-54.18-121.406-121.02S54.44 20.558 121.492 20.558s121.406 54.18 121.406 121.02-54.355 121.02-121.406 121.02m0-2.254c-65.8 0-119.144-53.172-119.144-118.766S55.69 22.813 121.492 22.813s119.145 53.171 119.145 118.765-53.344 118.766-119.145 118.766m0-18.79c-55.39 0-100.293-44.761-100.293-99.976s44.903-99.976 100.293-99.976 100.293 44.761 100.293 99.976-44.902 99.977-100.293 99.977m0-199.011c-54.87 0-99.351 44.34-99.351 99.035s44.48 99.035 99.351 99.035 99.352-44.34 99.352-99.035-44.48-99.035-99.352-99.035m0 0" style="stroke:none;fill-rule:nonzero;fill:url(#a)"/><path d="M220.844 141.578c0-54.695-44.48-99.035-99.352-99.035-54.87 0-99.351 44.34-99.351 99.035s44.48 99.035 99.351 99.035 99.352-44.34 99.352-99.035m0 0" style="stroke:none;fill-rule:evenodd;fill:#dbdbdb;fill-opacity:1"/><path d="M21.2 141.578c0-55.215 44.902-99.976 100.292-99.976s100.293 44.761 100.293 99.976-44.902 99.977-100.293 99.977c-55.39 0-100.293-44.762-100.293-99.977m-18.852 0c0 65.594 53.343 118.766 119.144 118.766s119.145-53.172 119.145-118.766S187.293 22.813 121.492 22.813 2.348 75.983 2.348 141.578m0 0" style="stroke:none;fill-rule:evenodd;fill:#dbdbdb;fill-opacity:1"/><path d="m28.379 90.895-5.488 3.093q-.54-3.136-1.078-6.277c-.07-.57-1.649-.43-2.5 1.496-1.575 3.559.664 6.785.996 10.18 2.933-1.844 6.949-2.328 8.597-5.805.594-1.41-.058-2.945-.527-2.687M136.328 245.77l-4.758 4.148q2.737 1.589 5.473 3.172c.504.265-.164 1.71-2.246 1.863-3.848.277-6.086-2.953-9.133-4.426 2.723-2.156 4.543-5.8 8.344-6.175 1.515-.086 2.719 1.058 2.32 1.418m0 0" style="stroke:none;fill-rule:evenodd;fill:#1d73be;fill-opacity:1"/><path d="M145.332 244.074c-1.46 1.52-2.922 3.035-4.383 4.555 1.91.89 3.82 1.785 5.727 2.676.523.218-.016 1.722-2.078 2.054-3.809.614-6.317-2.406-9.477-3.605 2.524-2.387 4.024-6.18 7.777-6.887 1.5-.219 2.801.817 2.434 1.207m0 0" style="stroke:none;fill-rule:evenodd;fill:#1d73be;fill-opacity:1"/><path d="m154.156 241.594-3.972 4.922c1.976.722 3.957 1.445 5.933 2.164.543.172.133 1.715-1.89 2.226-3.743.95-6.504-1.836-9.754-2.754 2.308-2.601 3.476-6.511 7.152-7.547 1.477-.347 2.863.567 2.531.989m0 0" style="stroke:none;fill-rule:evenodd;fill:#1d73be;fill-opacity:1"/><path d="m162.73 238.348-3.53 5.254c2.03.543 4.066 1.085 6.097 1.632.555.121.281 1.696-1.692 2.383-3.648 1.274-6.636-1.258-9.957-1.887 2.079-2.792 2.903-6.789 6.477-8.144 1.441-.477 2.898.312 2.605.762m0 0" style="stroke:none;fill-rule:evenodd;fill:#1d73be;fill-opacity:1"/><path d="M170.992 234.36q-1.532 2.771-3.062 5.542l6.215 1.09c.562.07.425 1.664-1.48 2.524-3.524 1.59-6.72-.668-10.08-1.004 1.83-2.965 2.306-7.02 5.747-8.684 1.395-.605 2.914.055 2.66.531m0 0" style="stroke:none;fill-rule:evenodd;fill:#1d73be;fill-opacity:1"/><path d="M178.879 229.656q-1.285 2.894-2.574 5.793c2.093.18 4.191.356 6.285.535.566.024.57 1.621-1.254 2.649-3.375 1.894-6.754-.074-10.129-.113 1.566-3.118 1.691-7.196 4.977-9.16 1.336-.723 2.91-.2 2.695.296m0 0" style="stroke:none;fill-rule:evenodd;fill:#1d73be;fill-opacity:1"/><path d="M186.332 224.277c-.687 2-1.379 3.996-2.066 5.996 2.101-.003 4.207-.011 6.308-.015.567-.028.707 1.562-1.023 2.746-3.196 2.184-6.735.52-10.098.777 1.29-3.238 1.063-7.316 4.164-9.562 1.274-.836 2.883-.453 2.715.058m0 0" style="stroke:none;fill-rule:evenodd;fill:#1d73be;fill-opacity:1"/><path d="M193.29 218.262c-.513 2.05-1.028 4.105-1.54 6.156l6.281-.574c.563-.074.84 1.5-.781 2.828-2.996 2.457-6.66 1.11-9.992 1.664 1.004-3.34.426-7.383 3.324-9.89 1.195-.946 2.832-.708 2.707-.184m0 0" style="stroke:none;fill-rule:evenodd;fill:#1d73be;fill-opacity:1"/><path d="M199.703 211.656q-.499 3.135-1.004 6.27l6.211-1.125c.555-.125.965 1.418-.535 2.887-2.773 2.71-6.543 1.69-9.812 2.539.714-3.418-.211-7.395 2.46-10.149 1.106-1.047 2.758-.953 2.68-.422m0 0" style="stroke:none;fill-rule:evenodd;fill:#1d73be;fill-opacity:1"/><path d="M205.523 204.516q-.227 3.162-.46 6.332c2.03-.555 4.062-1.114 6.09-1.668.542-.172 1.081 1.328-.286 2.922-2.527 2.945-6.367 2.261-9.554 3.394.417-3.469-.848-7.348 1.574-10.328 1.015-1.14 2.668-1.191 2.636-.652m0 0" style="stroke:none;fill-rule:evenodd;fill:#1d73be;fill-opacity:1"/><path d="M210.703 196.887q.048 3.17.09 6.347c1.973-.734 3.95-1.464 5.922-2.195.523-.223 1.195 1.227-.031 2.934-2.266 3.156-6.153 2.816-9.227 4.222.117-3.492-1.477-7.246.68-10.425.91-1.227 2.55-1.426 2.566-.883m0 0" style="stroke:none;fill-rule:evenodd;fill:#1d73be;fill-opacity:1"/><path d="M215.207 188.828c.211 2.106.426 4.211.637 6.317l5.71-2.708c.505-.269 1.294 1.118.22 2.926-1.981 3.344-5.883 3.344-8.825 5.02-.187-3.492-2.097-7.09-.222-10.446.8-1.304 2.418-1.644 2.48-1.109m0 0" style="stroke:none;fill-rule:evenodd;fill:#1d73be;fill-opacity:1"/><path d="M219 180.406c.39 2.078.785 4.156 1.176 6.239q2.728-1.604 5.457-3.204c.476-.308 1.383 1 .472 2.895-1.687 3.508-5.574 3.851-8.359 5.777-.488-3.457-2.703-6.875-1.125-10.386.688-1.368 2.27-1.848 2.379-1.32m0 0" style="stroke:none;fill-rule:evenodd;fill:#1d73be;fill-opacity:1"/><path d="M222.047 171.684q.857 3.052 1.715 6.109c1.718-1.223 3.437-2.45 5.156-3.672.45-.348 1.469.875.723 2.844-1.38 3.64-5.223 4.328-7.832 6.492-.782-3.406-3.282-6.613-2.016-10.25.566-1.422 2.102-2.043 2.254-1.523m0 0" style="stroke:none;fill-rule:evenodd;fill:#1d73be;fill-opacity:1"/><path d="M224.332 162.723q1.12 2.968 2.234 5.937 2.414-2.056 4.82-4.113c.419-.387 1.54.742.966 2.77-1.059 3.75-4.829 4.769-7.239 7.156-1.074-3.32-3.843-6.297-2.894-10.032.441-1.464 1.918-2.218 2.113-1.718m0 0" style="stroke:none;fill-rule:evenodd;fill:#1d73be;fill-opacity:1"/><path d="M225.836 153.598c.914 1.906 1.828 3.808 2.738 5.714 1.485-1.503 2.965-3.011 4.45-4.519.382-.422 1.593.605 1.199 2.676-.73 3.828-4.399 5.176-6.598 7.765-1.355-3.214-4.367-5.937-3.746-9.738.312-1.5 1.719-2.383 1.957-1.898m0 0" style="stroke:none;fill-rule:evenodd;fill:#1d73be;fill-opacity:1"/><path d="m226.547 144.371 3.223 5.457c1.347-1.633 2.69-3.266 4.039-4.894.343-.457 1.64.46 1.425 2.558-.398 3.875-3.933 5.543-5.898 8.317-1.629-3.082-4.867-5.528-4.574-9.371.183-1.524 1.508-2.524 1.785-2.067m0 0" style="stroke:none;fill-rule:evenodd;fill:#1d73be;fill-opacity:1"/><path d="M226.46 135.121q1.841 2.575 3.677 5.149 1.805-2.614 3.605-5.23c.305-.485 1.676.315 1.64 2.42-.062 3.9-3.44 5.872-5.16 8.806-1.886-2.926-5.324-5.078-5.363-8.93.051-1.535 1.282-2.649 1.602-2.215m0 0" style="stroke:none;fill-rule:evenodd;fill:#1d73be;fill-opacity:1"/><path d="M225.574 125.914c1.371 1.602 2.738 3.203 4.11 4.805q1.57-2.767 3.14-5.528c.258-.511 1.692.164 1.84 2.27.277 3.887-2.918 6.148-4.379 9.223-2.133-2.75-5.742-4.59-6.113-8.426-.082-1.531 1.047-2.75 1.402-2.344m0 0" style="stroke:none;fill-rule:evenodd;fill:#1d73be;fill-opacity:1"/><path d="M223.898 116.816q2.254 2.217 4.508 4.426 1.323-2.89 2.653-5.781c.214-.531 1.699.016 2.03 2.098.606 3.847-2.378 6.382-3.57 9.574-2.363-2.551-6.117-4.067-6.816-7.856-.215-1.52.809-2.832 1.195-2.46m0 0" style="stroke:none;fill-rule:evenodd;fill:#1d73be;fill-opacity:1"/><path d="M221.445 107.902q2.433 2.009 4.871 4.012 1.07-2.996 2.141-5.992c.168-.547 1.7-.137 2.203 1.91.942 3.781-1.816 6.57-2.726 9.856-2.575-2.336-6.442-3.516-7.47-7.227-.343-1.492.56-2.89.981-2.559m0 0" style="stroke:none;fill-rule:evenodd;fill:#1d73be;fill-opacity:1"/><path d="M218.23 99.242c1.735 1.188 3.465 2.375 5.2 3.567l1.617-6.16c.121-.563 1.676-.286 2.36 1.71 1.261 3.684-1.247 6.704-1.868 10.055-2.766-2.098-6.723-2.934-8.066-6.539-.47-1.457.312-2.934.757-2.633m0 0" style="stroke:none;fill-rule:evenodd;fill:#1d73be;fill-opacity:1"/><path d="m214.281 90.895 5.485 3.093q.543-3.136 1.082-6.277c.07-.57 1.648-.43 2.5 1.496 1.574 3.559-.664 6.785-.996 10.18-2.934-1.844-6.95-2.328-8.598-5.805-.594-1.41.055-2.945.527-2.687m0 0" style="stroke:none;fill-rule:evenodd;fill:#1d73be;fill-opacity:1"/><path d="m209.625 82.926 5.734 2.601q.266-3.175.532-6.351c.023-.574 1.605-.574 2.62 1.27 1.876 3.406-.073 6.82-.113 10.23-3.082-1.582-7.12-1.707-9.066-5.024-.715-1.355-.195-2.941.293-2.726m0 0" style="stroke:none;fill-rule:evenodd;fill:#1d73be;fill-opacity:1"/><path d="m204.3 75.398 5.938 2.086c-.008-2.125-.011-4.25-.02-6.375-.023-.57 1.552-.71 2.72 1.036 2.164 3.23.515 6.8.773 10.203-3.207-1.305-7.242-1.075-9.465-4.211-.828-1.282-.453-2.91.055-2.739m0 0" style="stroke:none;fill-rule:evenodd;fill:#1d73be;fill-opacity:1"/><path d="M198.348 68.367q3.046.781 6.093 1.555c-.187-2.113-.379-4.23-.566-6.348-.078-.566 1.48-.844 2.797.793 2.433 3.028 1.098 6.73 1.648 10.094-3.308-1.016-7.308-.43-9.793-3.36-.933-1.206-.699-2.859-.18-2.734m0 0" style="stroke:none;fill-rule:evenodd;fill:#1d73be;fill-opacity:1"/><path d="M191.809 61.887c2.07.34 4.136.675 6.207 1.015l-1.114-6.273c-.125-.559 1.403-.973 2.856.543 2.683 2.797 1.676 6.605 2.515 9.91-3.386-.723-7.32.211-10.046-2.484-1.04-1.121-.946-2.79-.418-2.711m0 0" style="stroke:none;fill-rule:evenodd;fill:#1d73be;fill-opacity:1"/><path d="M184.738 56.008c2.09.156 4.18.308 6.27.465q-.827-3.077-1.649-6.153c-.172-.547 1.313-1.093 2.891.29 2.914 2.554 2.238 6.433 3.36 9.652-3.434-.422-7.274.855-10.223-1.59-1.13-1.024-1.18-2.695-.649-2.664M106.332 245.77l4.758 4.148q-2.737 1.589-5.473 3.172c-.504.265.164 1.71 2.246 1.863 3.848.277 6.086-2.953 9.13-4.426-2.723-2.156-4.544-5.8-8.34-6.175-1.516-.086-2.723 1.058-2.321 1.418m0 0" style="stroke:none;fill-rule:evenodd;fill:#1d73be;fill-opacity:1"/><path d="m97.328 244.074 4.379 4.555c-1.906.89-3.816 1.785-5.723 2.676-.527.218.016 1.722 2.075 2.054 3.812.614 6.32-2.406 9.48-3.605-2.527-2.387-4.027-6.18-7.777-6.887-1.5-.219-2.801.817-2.434 1.207m0 0" style="stroke:none;fill-rule:evenodd;fill:#1d73be;fill-opacity:1"/><path d="m88.504 241.594 3.973 4.922q-2.97 1.084-5.934 2.164c-.543.172-.133 1.715 1.89 2.226 3.743.95 6.504-1.836 9.754-2.754-2.312-2.601-3.476-6.511-7.152-7.547-1.48-.347-2.863.567-2.531.989m0 0" style="stroke:none;fill-rule:evenodd;fill:#1d73be;fill-opacity:1"/><path d="m79.93 238.348 3.53 5.254c-2.03.543-4.065 1.085-6.097 1.632-.554.121-.281 1.696 1.692 2.383 3.648 1.274 6.636-1.258 9.953-1.887-2.074-2.792-2.903-6.789-6.473-8.144-1.441-.477-2.902.312-2.605.762m0 0" style="stroke:none;fill-rule:evenodd;fill:#1d73be;fill-opacity:1"/><path d="M71.668 234.36q1.532 2.771 3.062 5.542l-6.214 1.09c-.563.07-.426 1.664 1.48 2.524 3.524 1.59 6.719-.668 10.078-1.004-1.828-2.965-2.304-7.02-5.746-8.684-1.394-.605-2.918.055-2.66.531m0 0" style="stroke:none;fill-rule:evenodd;fill:#1d73be;fill-opacity:1"/><path d="M63.777 229.656q1.29 2.894 2.578 5.793c-2.097.18-4.19.356-6.289.535-.566.024-.566 1.621 1.258 2.649 3.375 1.894 6.754-.074 10.13-.113-1.567-3.118-1.692-7.196-4.977-9.16-1.34-.723-2.91-.2-2.7.296m0 0" style="stroke:none;fill-rule:evenodd;fill:#1d73be;fill-opacity:1"/><path d="M56.328 224.277q1.03 2.998 2.067 5.996c-2.106-.003-4.208-.011-6.31-.015-.565-.028-.706 1.562 1.024 2.746 3.196 2.184 6.73.52 10.098.777-1.289-3.238-1.062-7.316-4.168-9.562-1.27-.836-2.879-.453-2.71.058m0 0" style="stroke:none;fill-rule:evenodd;fill:#1d73be;fill-opacity:1"/><path d="M49.367 218.262c.516 2.05 1.028 4.105 1.543 6.156l-6.285-.574c-.562-.074-.836 1.5.785 2.828 2.996 2.457 6.66 1.11 9.992 1.664-1.007-3.34-.43-7.383-3.324-9.89-1.195-.946-2.832-.708-2.71-.184m0 0" style="stroke:none;fill-rule:evenodd;fill:#1d73be;fill-opacity:1"/><path d="M42.957 211.656q.5 3.135 1 6.27L37.75 216.8c-.555-.125-.965 1.418.535 2.887 2.774 2.71 6.54 1.69 9.813 2.539-.715-3.418.207-7.395-2.461-10.149-1.11-1.047-2.758-.953-2.68-.422m0 0" style="stroke:none;fill-rule:evenodd;fill:#1d73be;fill-opacity:1"/><path d="m37.137 204.516.457 6.332c-2.028-.555-4.059-1.114-6.09-1.668-.54-.172-1.082 1.328.285 2.922 2.531 2.945 6.371 2.261 9.555 3.394-.414-3.469.847-7.348-1.574-10.328-1.012-1.14-2.665-1.191-2.633-.652m0 0" style="stroke:none;fill-rule:evenodd;fill:#1d73be;fill-opacity:1"/><path d="M31.953 196.887q-.042 3.17-.086 6.347-2.963-1.1-5.922-2.195c-.527-.223-1.195 1.227.032 2.934 2.261 3.156 6.148 2.816 9.226 4.222-.117-3.492 1.477-7.246-.68-10.425-.91-1.227-2.554-1.426-2.57-.883m0 0" style="stroke:none;fill-rule:evenodd;fill:#1d73be;fill-opacity:1"/><path d="M27.453 188.828q-.321 3.159-.637 6.317l-5.71-2.708c-.504-.269-1.294 1.118-.223 2.926 1.984 3.344 5.887 3.344 8.828 5.02.184-3.492 2.098-7.09.223-10.446-.801-1.304-2.422-1.644-2.48-1.109m0 0" style="stroke:none;fill-rule:evenodd;fill:#1d73be;fill-opacity:1"/><path d="M23.66 180.406q-.586 3.116-1.18 6.239-2.726-1.604-5.453-3.204c-.476-.308-1.386 1-.472 2.895 1.687 3.508 5.574 3.851 8.36 5.777.487-3.457 2.698-6.875 1.124-10.386-.687-1.368-2.27-1.848-2.379-1.32m0 0" style="stroke:none;fill-rule:evenodd;fill:#1d73be;fill-opacity:1"/><path d="m20.61 171.684-1.712 6.109c-1.718-1.223-3.437-2.45-5.156-3.672-.449-.348-1.469.875-.722 2.844 1.378 3.64 5.218 4.328 7.828 6.492.785-3.406 3.285-6.613 2.02-10.25-.567-1.422-2.102-2.043-2.259-1.523m0 0" style="stroke:none;fill-rule:evenodd;fill:#1d73be;fill-opacity:1"/><path d="M18.324 162.723q-1.115 2.968-2.23 5.937c-1.61-1.37-3.215-2.742-4.824-4.113-.418-.387-1.536.742-.961 2.77 1.058 3.75 4.824 4.769 7.238 7.156 1.074-3.32 3.84-6.297 2.89-10.032-.437-1.464-1.914-2.218-2.113-1.718m0 0" style="stroke:none;fill-rule:evenodd;fill:#1d73be;fill-opacity:1"/><path d="M16.82 153.598c-.91 1.906-1.824 3.808-2.734 5.714a2427 2427 0 0 1-4.45-4.519c-.382-.422-1.593.605-1.198 2.676.73 3.828 4.398 5.176 6.593 7.765 1.36-3.214 4.371-5.937 3.746-9.738-.308-1.5-1.715-2.383-1.957-1.898m0 0" style="stroke:none;fill-rule:evenodd;fill:#1d73be;fill-opacity:1"/><path d="M16.11 144.371q-1.606 2.728-3.22 5.457l-4.042-4.894c-.344-.457-1.637.46-1.422 2.558.398 3.875 3.933 5.543 5.898 8.317 1.63-3.082 4.867-5.528 4.574-9.371-.183-1.524-1.507-2.524-1.789-2.067m0 0" style="stroke:none;fill-rule:evenodd;fill:#1d73be;fill-opacity:1"/><path d="M16.2 135.121q-1.84 2.575-3.68 5.149-1.802-2.614-3.602-5.23c-.305-.485-1.676.315-1.64 2.42.062 3.9 3.437 5.872 5.16 8.806 1.886-2.926 5.324-5.078 5.363-8.93-.051-1.535-1.285-2.649-1.602-2.215m0 0" style="stroke:none;fill-rule:evenodd;fill:#1d73be;fill-opacity:1"/><path d="M17.082 125.914q-2.052 2.402-4.105 4.805l-3.141-5.528c-.262-.511-1.695.164-1.844 2.27-.273 3.887 2.922 6.148 4.383 9.223 2.133-2.75 5.742-4.59 6.113-8.426.082-1.531-1.05-2.75-1.406-2.344m0 0" style="stroke:none;fill-rule:evenodd;fill:#1d73be;fill-opacity:1"/><path d="m18.762 116.816-4.508 4.426c-.883-1.926-1.77-3.855-2.652-5.781-.215-.531-1.7.016-2.032 2.098-.61 3.847 2.38 6.382 3.57 9.574 2.364-2.551 6.114-4.067 6.817-7.856.215-1.52-.809-2.832-1.195-2.46m0 0" style="stroke:none;fill-rule:evenodd;fill:#1d73be;fill-opacity:1"/><path d="M21.215 107.902c-1.625 1.34-3.246 2.676-4.871 4.012a3668 3668 0 0 1-2.14-5.992c-.173-.547-1.7-.137-2.208 1.91-.937 3.781 1.82 6.57 2.73 9.856 2.575-2.336 6.442-3.516 7.47-7.227.343-1.492-.563-2.89-.981-2.559M33.035 82.926q-2.87 1.3-5.734 2.601-.268-3.175-.535-6.351c-.02-.574-1.602-.574-2.618 1.27-1.875 3.406.075 6.82.11 10.23 3.086-1.582 7.125-1.707 9.066-5.024.715-1.355.2-2.941-.289-2.726m0 0" style="stroke:none;fill-rule:evenodd;fill:#1d73be;fill-opacity:1"/><path d="m38.36 75.398-5.938 2.086c.004-2.125.012-4.25.016-6.375.027-.57-1.547-.71-2.72 1.036-2.16 3.23-.511 6.8-.769 10.203 3.207-1.305 7.242-1.075 9.465-4.211.828-1.282.453-2.91-.055-2.739m0 0" style="stroke:none;fill-rule:evenodd;fill:#1d73be;fill-opacity:1"/><path d="M44.313 68.367q-3.048.781-6.094 1.555c.187-2.113.379-4.23.566-6.348.074-.566-1.48-.844-2.797.793-2.433 3.028-1.101 6.73-1.648 10.094 3.308-1.016 7.308-.43 9.789-3.36.937-1.206.703-2.859.184-2.734m0 0" style="stroke:none;fill-rule:evenodd;fill:#1d73be;fill-opacity:1"/><path d="M50.848 61.887c-2.067.34-4.137.675-6.203 1.015l1.113-6.273c.125-.559-1.403-.973-2.856.543-2.683 2.797-1.675 6.605-2.515 9.91 3.386-.723 7.32.211 10.047-2.484 1.035-1.121.945-2.79.414-2.711m0 0" style="stroke:none;fill-rule:evenodd;fill:#1d73be;fill-opacity:1"/><path d="M57.922 56.008c-2.09.156-4.18.308-6.27.465q.825-3.077 1.649-6.153c.172-.547-1.313-1.093-2.89.29-2.915 2.554-2.24 6.433-3.36 9.652 3.433-.422 7.273.855 10.222-1.59 1.13-1.024 1.18-2.695.649-2.664M24.43 99.242a4113 4113 0 0 0-5.2 3.567l-1.617-6.16c-.12-.563-1.68-.286-2.36 1.71-1.26 3.684 1.243 6.704 1.868 10.055 2.766-2.098 6.723-2.934 8.063-6.539.472-1.457-.309-2.934-.754-2.633m0 0" style="stroke:none;fill-rule:evenodd;fill:#1d73be;fill-opacity:1"/><path d="M66.906 95.445c.11-.015.168.153.035.325-.226.285-.722.492-.925.605-.418.234-.778.414-1.297.457-.461.043-1.258.164-1.989-.027-2.167-.563-4.289-.809-6.312-.54-1.395.184-2.254.473-2.984.727-.735.258-1.332.738-1.957 1.133-.622.395-.883.848-1.301 1.465-.414.617-.489 1.137-.504 1.637-.016.484.031.695.36 1.011.37.367.827.469 1.448.469 1.18 0 2.145-.297 3.208-.996 1.066-.7 1.511-1.348 2.05-1.953.18-.207.313-.418.477-.66.18-.262.48-.754.695-1.07.156-.239.477-.071.36.199-.215.503-.247.46-.454.707-.238.285-.601.687-.773.902-.375.457-.813.984-1.426 1.531a6 6 0 0 1-2.113 1.238c-.793.262-1.543.403-2.152.403-.614 0-1.188-.2-1.547-.606-.438-.5-.465-.793-.477-1.109-.027-.656-.078-1.79 1.902-3.332 1.56-1.211 3.993-2.191 7.532-2.191 1.242 0 2.558.187 3.945.293 1.383.109 2.14.046 2.719-.047.586-.094 1.36-.555 1.48-.57m0 0" style="stroke:none;fill-rule:evenodd;fill:#3b1313;fill-opacity:1"/><path d="m56.934 97.965.144.058a12.8 12.8 0 0 1-1.98 2.532q-1.149 1.125-2.461 1.734a6.5 6.5 0 0 1-2.742.606q-2.368.001-2.368-1.715 0-.878.703-1.868c.47-.664 1.16-1.28 2.07-1.859.903-.574 1.993-1.039 3.259-1.39q1.89-.528 4.234-.528 1.112.001 3.016.278 1.829.276 3.054.277c.961 0 1.875-.223 2.739-.66l.12.105a6.74 6.74 0 0 1-3.777 1.137q-.95.002-2.972-.395a33 33 0 0 0-1.91-.289 13 13 0 0 0-1.325-.062q-2.103 0-3.82.55-1.712.558-2.855 1.395c-.762.555-1.336 1.137-1.731 1.738-.395.602-.598 1.121-.598 1.551q-.002 1.545 2.196 1.543 1.078-.001 2.308-.512c.82-.347 1.645-.87 2.461-1.586.828-.71 1.57-1.593 2.235-2.64m-.414 5.375q1.159-.165 1.539-.54c.254-.253.379-.464.379-.624 0-.332-.168-.496-.512-.496q-.421 0-.75.422-.335.428-.656 1.238m-6.68 1.789-.14-.113q1.546-1.13 4.366-1.43c1.426-1.926 2.563-3.356 3.418-4.281.856-.93 1.899-1.754 3.145-2.473l.144.082q-2.254 1.787-3.12 2.824c-.579.696-1.407 1.95-2.489 3.77l.906-.117c.297-.625.59-1.094.883-1.418q.45-.49 1.008-.489.686 0 .687.688 0 .569-.64.902-.633.336-1.559.485c-.094.539-.176 1.14-.234 1.8l-.86.293c.262-1.02.47-1.695.625-2.039l-.933.11q-2.063 3.648-5.012 5.398-2.948 1.741-6.492 1.742-1.289 0-2.066-.402c-.528-.266-.786-.672-.786-1.227q-.001-.443.286-.777a.91.91 0 0 1 .734-.332q.351.001.527.16a.57.57 0 0 1 .188.45q0 .522-.692.523-.44 0-.57-.578c-.172.195-.262.382-.262.554 0 .407.254.75.758 1.02.508.277 1.176.418 1.992.418a9.3 9.3 0 0 0 2.91-.469 10.4 10.4 0 0 0 2.672-1.344 14.6 14.6 0 0 0 2.41-2.132 23.7 23.7 0 0 0 2.262-2.922c-1.742.218-3.097.664-4.066 1.324m6.73 4.215q.335.001.336.297 0 .174-.16.343a.49.49 0 0 1-.348.16q-.333 0-.332-.3a.5.5 0 0 1 .16-.34.48.48 0 0 1 .344-.16m21.825-6.36c-.36-.578-.81-.863-1.344-.863-.215 0-.39.05-.535.156-.141.102-.211.22-.211.34 0 .39.343.582 1.02.582q.414-.002 1.07-.215m3.457 3.832v.23a124 124 0 0 1-2.778 2.255q-.944.738-1.77 1.148-.83.416-1.574.414-.92.002-.921-1.015c0-.453.046-.848.152-1.176q.154-.48.43-.926c.187-.289.382-.543.586-.754.207-.215.464-.472.78-.777 1.157-1.137 1.74-1.973 1.74-2.516 0-.258-.028-.433-.075-.527a3.1 3.1 0 0 1-1.125.223q-.51-.001-.856-.22-.344-.217-.343-.558c0-.207.093-.37.277-.5q.282-.19.7-.191c.636 0 1.152.328 1.538.98a9.7 9.7 0 0 0 1.606-.883c.476-.32 1.125-.918 1.957-1.777q2.21-2.291 4.027-3.586c1.223-.86 2.445-1.289 3.684-1.289q1.26-.001 1.261.719.002.382-.367.383-.323 0-.324-.328c0-.02.008-.079.031-.188.02-.105.028-.176.028-.203q.002-.124-.184-.184a1.5 1.5 0 0 0-.477-.062c-1.515 0-2.964.754-4.343 2.25a58 58 0 0 1-2.285 2.344 18 18 0 0 1-2.145 1.757 9.5 9.5 0 0 1-2.406 1.258q.089.45.09.664.001.84-.606 1.977c-.406.758-.984 1.55-1.734 2.367-.88.969-1.317 1.61-1.317 1.938q-.001.609.743.609c.335 0 .718-.11 1.16-.32a9 9 0 0 0 1.293-.766q.638-.441 1.441-1.094.81-.648 1.3-1.039Zm-6.41-8.32.144.106c-.613.68-1.273 1.195-1.984 1.558a4.9 4.9 0 0 1-2.301.55c-.762 0-1.375-.151-1.828-.46q-.692-.458-.692-1.203.002-.943.719-1.797c.477-.57 1.172-1.023 2.07-1.367q1.356-.514 3.086-.512 2.46.002 2.461 1.598 0 .06-.062.383c-.04.218-.055.351-.055.406 0 .308.215.46.656.46q.541 0 1.106-.273.563-.28 1.148-.73c.39-.297.613-.465.684-.512.12-.074.293-.21.531-.414.227-.203.453-.371.664-.504q.309-.194.547-.195.204 0 .008.195a1.6 1.6 0 0 1-.403.305c-.285.183-.851.61-1.71 1.277q-1.438 1.186-2.364 2.281-.931 1.096-2.426 3.282c-.543.8-1.004 1.445-1.37 1.933-.376.496-.743.938-1.11 1.34a42 42 0 0 1-1.176 1.223 16.6 16.6 0 0 1-2.285 1.851 9.4 9.4 0 0 1-2.48 1.172q-1.341.416-3.04.414-1.394 0-2.074-.48c-.453-.32-.68-.738-.68-1.238 0-.301.087-.54.25-.72.165-.179.41-.273.735-.273.379 0 .574.153.574.461 0 .301-.195.453-.574.453q-.492.001-.492-.53-.282.145-.282.636c0 .41.215.766.645 1.058q.646.44 1.988.442c.965 0 1.856-.149 2.657-.45a8.3 8.3 0 0 0 2.175-1.183c.641-.5 1.196-1 1.653-1.508a60 60 0 0 0 1.8-2.14 113 113 0 0 1 1.883-2.34 99 99 0 0 1 1.668-1.895l.34-.363c.465-.504 1.246-1.273 2.34-2.297l.473-.465q-.136.066-.387.172a4 4 0 0 1-.535.164 2.5 2.5 0 0 1-.63.047q-.525-.013-.847-.289a.93.93 0 0 1-.324-.738c0 .015.027-.102.074-.367a3.4 3.4 0 0 0 .078-.551q0-.907-1.828-.906-1.772 0-3.039.527-1.266.531-1.933 1.332c-.446.539-.665 1.074-.665 1.605q0 .65.645 1.07c.43.282.984.419 1.664.419q2.237.001 4.11-2.02m6.89 10.848c.227 0 .336.101.336.297q-.001.174-.16.343a.48.48 0 0 1-.344.16c-.227 0-.336-.101-.336-.3a.5.5 0 0 1 .16-.34.48.48 0 0 1 .344-.16m26.863-11.567h.203c-.793 1.48-1.687 2.59-2.691 3.328-1.012.739-1.883 1.204-2.629 1.395-.75.188-1.308.285-1.695.285q-1.107 0-1.758-.504-.645-.497-.645-1.351 0-.728.551-1.64c.371-.61.934-1.192 1.703-1.759q1.148-.844 2.954-1.39c1.21-.364 2.617-.551 4.238-.551 1.12 0 2.59.086 4.406.246q2.501.227 3.777.227 1.245-.002 2.079-.133.837-.14 1.175-.368h.258q-.585.487-1.945.786c-.906.199-1.719.297-2.43.297q-.587 0-3.203-.368c-2.5-.324-4.082-.492-4.742-.492-1.29 0-2.485.168-3.574.492q-1.642.492-2.774 1.313-1.136.815-1.715 1.7-.576.882-.578 1.67.001.75.594 1.208.591.45 1.547.45.726 0 1.687-.317a8.4 8.4 0 0 0 1.903-.918 9.6 9.6 0 0 0 1.84-1.551 9.2 9.2 0 0 0 1.464-2.055m-2.84 5.817.395-.5q3.62-4.667 7.41-6.367l.145.105c-.88.426-1.657.875-2.348 1.36a10.5 10.5 0 0 0-1.86 1.648 13.4 13.4 0 0 0-1.511 2.058c-.84 1.391-1.484 2.403-1.934 3.051-.449.64-.914 1.211-1.394 1.703q-.991 1.02-2.2 1.828c-.808.543-1.617.985-2.437 1.329q-1.232.51-2.582.78a13.4 13.4 0 0 1-2.676.274q-1.74 0-2.531-.48-.797-.481-.797-1.215-.002-.46.278-.754a.88.88 0 0 1 .652-.289c.441 0 .656.176.656.531a.46.46 0 0 1-.137.32.46.46 0 0 1-.343.145q-.69.001-.454-.754c-.167.094-.28.195-.347.317a.95.95 0 0 0-.094.457q0 .65.785 1.09.78.439 2.188.44c1.414 0 2.75-.222 3.996-.663q1.875-.664 2.824-1.528.568-.499 1.055-.992.48-.493 1.289-1.437a68 68 0 0 0 1.972-2.457m5.743 1.847c-.543 0-1.176.286-1.88.856q-1.064.86-1.902 1.883c-.562.687-.84 1.105-.84 1.273 0 .14.07.262.208.356.148.097.32.14.535.14q.78.001 1.863-.707a9 9 0 0 0 1.926-1.676c.555-.64.832-1.148.832-1.515a.53.53 0 0 0-.207-.438.82.82 0 0 0-.535-.172m2.328 1.38v.23c-.543.601-1.16.906-1.832.906q-.101-.011-.207-.027-.1-.011-.235-.028-2.336 2.243-4.047 2.243-.32.001-.59-.157a1.03 1.03 0 0 1-.41-.41 1.2 1.2 0 0 1-.14-.598q0-.9.867-1.773a6.8 6.8 0 0 1 2.082-1.41q1.219-.55 2.145-.55.994 0 .992.855.001.69-.723 1.609a1 1 0 0 0 .324.055q.922.002 1.774-.946m-.356.554v-.246c.727-.606 1.328-1.07 1.82-1.395q.729-.487 1.297-.488.48 0 .481.582c0 .328-.106.637-.309.942-.207.3-.554.738-1.046 1.304 1.367-1.039 2.394-1.765 3.085-2.191q1.027-.635 1.778-.637.54-.001.539.461 0 .918-1.457 2.527l.41-.28q.979-.664 1.871-1.274a16 16 0 0 1 1.719-1.024c.55-.27.992-.41 1.324-.41a.44.44 0 0 1 .371.172c.094.11.14.277.14.492 0 .41-.152.82-.445 1.223-.3.402-.808.847-1.535 1.344-.289.195-.57.425-.832.691q-.396.393-.394.523c0 .172.133.258.41.258q.64.002 1.707-.722c.703-.48 1.758-1.262 3.152-2.356v.23c-1.324 1.055-2.344 1.825-3.047 2.313q-1.06.728-1.863.73c-.383 0-.57-.175-.57-.527q0-.579.422-1.176c.28-.394.761-.89 1.437-1.472q1.168-1.012 1.168-1.285c0-.16-.082-.243-.234-.243q-.38 0-1.656.75-1.271.75-2.817 1.852a33 33 0 0 0-2.539 1.965h-1.238l2.273-2.297c.16-.152.395-.383.715-.688.316-.308.59-.585.813-.832.226-.246.335-.418.335-.507q0-.065-.062-.141-.07-.075-.203-.074c-.543 0-1.363.39-2.445 1.176q-1.628 1.171-3.825 2.996l-.425.367h-1.258l3.086-3.188c.707-.668 1.054-1.066 1.054-1.191q0-.188-.172-.188-.252.001-.75.29c-.332.195-.69.433-1.082.726-.386.285-.793.59-1.203.918m17.993-1.934q-.816 0-1.88.856c-.706.574-1.343 1.2-1.902 1.883-.558.687-.84 1.105-.84 1.273 0 .14.07.262.211.356.145.097.32.14.535.14.52 0 1.137-.234 1.864-.707a8.9 8.9 0 0 0 1.922-1.676c.554-.64.836-1.148.836-1.515a.53.53 0 0 0-.211-.438.82.82 0 0 0-.536-.172m2.328 1.38v.23c-.543.601-1.157.906-1.832.906q-.102-.011-.204-.027-.101-.011-.238-.028-2.336 2.243-4.047 2.243-.321.001-.59-.157a1.02 1.02 0 0 1-.406-.41 1.2 1.2 0 0 1-.14-.598q.001-.9.863-1.773a6.8 6.8 0 0 1 2.082-1.41q1.224-.55 2.144-.55.997 0 .997.855 0 .69-.727 1.609a1 1 0 0 0 .324.055c.617 0 1.211-.313 1.774-.946m-.348.335q.657-.491 1.309-.988c.433-.336.863-.648 1.289-.95-.075-.277-.036-.53.12-.745q.23-.333.571-.332c.129 0 .238.03.336.101.102.07.148.153.148.254 0 .113-.043.211-.125.281a.43.43 0 0 1-.3.11c-.114 0-.282-.09-.485-.27a.47.47 0 0 0-.086.297c-.007.106.035.207.14.305a.5.5 0 0 0 .345.144q.13-.002.394-.062.294-.047.352-.047.112 0 .195.2a1.3 1.3 0 0 1 .078.484c0 .167-.12.378-.36.644q-.355.398-1.234 1.305c-.59.601-.992 1.031-1.218 1.281-.227.254-.336.445-.336.578q.001.204.297.203.404.001 1.746-.883c.89-.59 1.93-1.34 3.11-2.246v.227c-2.618 2.066-4.278 3.098-4.966 3.098q-.398 0-.398-.45c0-.422.094-.824.273-1.203.18-.375.485-.797.922-1.258l1.715-1.738q-.312.105-.695.094c-.258-.012-.418-.074-.48-.203-1.294.992-2.177 1.656-2.657 1.988Zm11.035-4.648c.215 0 .328.125.328.37 0 .142-.047.263-.136.349a.44.44 0 0 1-.336.14c-.262 0-.399-.113-.399-.328a.52.52 0 0 1 .16-.36.5.5 0 0 1 .383-.171m-5.066 4.836-.028-.211a17 17 0 0 1 2.602-1.774h1.32l-3.453 3.563c-.246.254-.398.488-.469.707q-.104.321.172.32c.492 0 1.215-.332 2.184-.996a27 27 0 0 0 2.68-2.101v.226q-1.42 1.258-2.739 2.164-1.317.903-2.152.903c-.32 0-.484-.157-.484-.47q.001-1.406 2.37-3.593.137-.122.243-.238.11-.111.215-.211a14.7 14.7 0 0 0-2.461 1.71m29.453-4.383q-.634-.757-1.496-.758a.73.73 0 0 0-.5.184.57.57 0 0 0-.203.425q0 .542.879.497.322-.012.628-.098a8 8 0 0 0 .692-.25m-3.07-6.102.234.028c0 .804-.277 1.64-.84 2.515s-1.277 1.672-2.148 2.407a12.7 12.7 0 0 1-2.73 1.77c-.962.444-1.81.671-2.552.671-.601 0-1.078-.164-1.414-.492-.332-.328-.504-.785-.504-1.36q0-1.238.95-2.5c.636-.84 1.5-1.593 2.593-2.277q1.642-1.02 3.793-1.637a16 16 0 0 1 4.446-.613c.695 0 1.289.043 1.797.117.503.086.96.215 1.382.39.418.177.88.45 1.375.821a14 14 0 0 1 1.547-.797c.551-.246 1.02-.425 1.422-.53l.176.218c-.426.117-.938.312-1.524.582-.582.273-1.05.508-1.402.715.309.328.516.64.606.949q.14.458.14 1.11a3.1 3.1 0 0 1-.418 1.581q-.417.715-1.262 1.336-.849.623-2.25 1.203c.215.344.368.657.446.942.086.285.125.613.125.992q.001 1.041-.613 2.09a7.2 7.2 0 0 1-1.63 1.902 8.5 8.5 0 0 1-2.285 1.36q-1.27.51-2.52.511-1.377.001-1.378-1.07-.001-.78.695-1.684.7-.897 1.856-1.625a8.2 8.2 0 0 1 2.402-1.043l.055.188q-2.076.666-3.172 1.637c-.504.445-.906.89-1.195 1.343q-.43.685-.43 1.235-.001.827 1.2.828 1.259 0 2.437-.738a8.2 8.2 0 0 0 2.09-1.868q.906-1.135 1.414-2.242.504-1.107.504-1.828c0-.293-.06-.57-.176-.82q-.676.328-1.496.328c-.403 0-.68-.063-.848-.195a.66.66 0 0 1-.238-.532.73.73 0 0 1 .238-.535c.168-.152.398-.23.703-.23q.862 0 1.672.867a7.6 7.6 0 0 0 1.75-1.277 6.5 6.5 0 0 0 1.281-1.7q.474-.901.473-1.691c0-.55-.129-.945-.395-1.191q-1.523.79-3.199 2.242c-1.113.968-2.32 2.32-3.61 4.047-.655.93-1.23 1.644-1.706 2.152-.48.5-1.086 1.07-1.813 1.7a23 23 0 0 1-2.336 1.757c-.758.492-1.476.879-2.152 1.152a10 10 0 0 1-2.012.606 11.5 11.5 0 0 1-2.117.187c-2.195 0-3.297-.511-3.297-1.539q0-.38.207-.61c.14-.151.328-.23.574-.23.145 0 .27.051.364.149a.47.47 0 0 1 .152.347c0 .118-.059.215-.16.297a.56.56 0 0 1-.328.121.56.56 0 0 1-.453-.23c-.02-.035-.043-.05-.086-.05-.04 0-.059.081-.059.257q0 .582.785.934.779.363 2.219.363c.992 0 1.887-.117 2.676-.348a7.7 7.7 0 0 0 2.246-1.074q1.062-.726 2.453-2.09c.203-.207.535-.55.984-1.035.446-.48 1.004-1.086 1.672-1.809.672-.73 1.27-1.37 1.801-1.93.535-.554.906-.921 1.125-1.09l.89-.784c1.395-1.207 2.337-1.992 2.81-2.352q.718-.539 2.136-1.324c-1.05-.848-2.477-1.273-4.258-1.273q-2.43.001-4.558.636-2.127.631-3.704 1.66-1.57 1.027-2.457 2.235c-.59.804-.882 1.566-.882 2.277q0 .77.441 1.211c.3.3.71.45 1.242.45q1.034.001 2.442-.673a12.7 12.7 0 0 0 2.68-1.726c.843-.707 1.542-1.477 2.085-2.317.551-.832.82-1.656.82-2.457M172 107.426c.816 0 1.496-.094 2.055-.285.554-.188.98-.414 1.265-.672q.434-.392.434-.637c0-.262-.164-.39-.5-.39q-.656.001-1.54.535c-.585.355-1.151.84-1.714 1.449m5.191-.606v.227c-1.086 1.008-2.093 1.777-3 2.305q-1.359.794-2.754.793-1.23 0-1.23-1.301c0-.719.297-1.356.887-1.899a6.2 6.2 0 0 1 2.082-1.261c.793-.29 1.445-.438 1.937-.438.285 0 .504.063.672.184.16.12.238.285.238.48q0 .457-.539.844c-.359.258-.863.473-1.507.637-.641.168-1.399.261-2.266.293q-1.113 1.16-1.113 1.77-.001.211.238.355c.168.097.367.14.61.14 1.57 0 3.488-1.039 5.745-3.129m0 0" style="stroke:none;fill-rule:evenodd;fill:#411b1d;fill-opacity:1"/><path d="M176.844 107.156q.657-.491 1.308-.988c.434-.336.864-.648 1.29-.95-.075-.277-.036-.53.12-.745q.23-.333.57-.332c.13 0 .24.03.34.101q.146.104.145.254c0 .113-.043.211-.125.281a.43.43 0 0 1-.3.11q-.179 0-.485-.27a.47.47 0 0 0-.086.297c-.008.106.035.207.14.305a.5.5 0 0 0 .344.144q.13-.002.395-.062.293-.047.352-.047.112 0 .195.2a1.3 1.3 0 0 1 .078.484c0 .167-.121.378-.36.644q-.356.398-1.234 1.305c-.59.601-.992 1.031-1.219 1.281-.226.254-.335.445-.335.578q.002.204.296.203.405.001 1.747-.883c.89-.59 1.93-1.34 3.109-2.246v.227c-2.617 2.066-4.277 3.098-4.965 3.098q-.399 0-.398-.45 0-.634.273-1.203c.18-.375.484-.797.922-1.258l1.715-1.738a2 2 0 0 1-.696.094c-.257-.012-.417-.074-.48-.203q-1.938 1.489-2.656 1.988Zm10.226-1.715c-.586 0-1.234.266-1.953.797a9.8 9.8 0 0 0-1.867 1.809q-.801 1.013-.8 1.433.002.198.144.336c.101.09.219.133.363.133q.604-.001 1.73-.77 1.126-.767 2.036-1.742c.605-.644.902-1.152.902-1.527q0-.468-.555-.469m3.864 1.66-.746.583c-1.168.902-2.04 1.539-2.598 1.906q-.84.555-1.485.555-.416 0-.417-.45-.001-.468.39-1.328c-1.394 1.188-2.426 1.778-3.086 1.778a.9.9 0 0 1-.715-.32q-.276-.317-.277-.927c0-.46.145-.91.438-1.359.292-.45.687-.84 1.175-1.18a6.2 6.2 0 0 1 1.653-.812q.912-.3 1.777-.3c.285 0 .488.046.621.144q.2.146.211.468c-.008.043-.016.09-.02.13-.003.038-.015.097-.03.167a2 2 0 0 1-.04.176l.926-1 1.226-.086-.378.438q-.467.514-.758.847c-.196.215-.367.399-.5.543q-2.286 2.28-2.285 2.672 0 .204.207.203c.183 0 .464-.101.832-.304.37-.2.793-.47 1.254-.801s.992-.727 1.586-1.18q.897-.684 1.039-.793Zm4.636-3.734 2.434-2.543h1.258l-2.434 2.543h1.86l-.16.219h-1.887l-3.559 3.73c-.39.399-.82.871-1.293 1.43q-.712.84-.71.918-.001.286.32.285c.804 0 2.519-1.047 5.156-3.133v.23l-.782.638c-2.015 1.64-3.484 2.46-4.398 2.46q-.34 0-.527-.175a.55.55 0 0 1-.188-.406q-.002-.54.828-1.797c.551-.84 1.63-2 3.239-3.493-.997.614-2.38 1.649-4.157 3.094v-.21a37 37 0 0 1 2.207-1.782 41 41 0 0 1 2.575-1.79h-1.067l.207-.218Zm0 0" style="stroke:none;fill-rule:evenodd;fill:#411b1d;fill-opacity:1"/><path d="m109.195 140.941 40.23-.082c18.856.055 29.067 22.313 17.665 33.97 19.855 21.144-2.02 39.468-20.985 39.32l-36.996-.028Zm0 0" style="stroke:none;fill-rule:nonzero;fill:url(#b)"/><path d="M75.07 124.04h66.25v36.542h-14.066v36.54h-36.91v-36.54H75.07Zm0 0" style="stroke:none;fill-rule:nonzero;fill:url(#c)"/><path d="M123.156 84.3c26.27-7.323 39.125-28.487 39.477-52.378.176-12.043-3.504-22.356-8.363-30.79-.395-.683-.88-1.12-1.622-1.12-2.273-.024-5.054.02-7.328 0-.53 0-.765.218-.765.847l.007 5.493h-4.632c-.012-1.688.007-3.809-.004-5.497 0-.527-.184-.847-.832-.847l-6.367.004c-.5 0-.829.582-.832.847l-.004 5.496-4.555-.003-.004-5.493c-.008-.37-.25-.847-.797-.847-1.05.011-2.328-.012-3.375 0-1.05-.012-2.32.008-3.37 0-.548-.004-.802.48-.81.847v5.493l-4.554.003-.008-5.496c-.004-.27-.152-.859-.777-.847L107.148 0c-.648.012-.761.344-.761.867-.012 1.688.011 3.797 0 5.485h-4.633l-.012-5.489c-.02-.629-.308-.851-.84-.851-2.273.02-4.96-.024-7.234 0-.73 0-1.305.511-1.621 1.12-4.836 8.446-8.54 18.747-8.363 30.79.351 23.89 13.203 45.055 39.472 52.379m0 0" style="stroke:none;fill-rule:nonzero;fill:url(#d)"/><path d="M123.156 83.137c30.871-8.172 38.692-36.836 39.418-49.246v-.008q.042-.978.059-1.961c-.043-11.02-5.961-24.809-9.344-30.23 5.36 9.304 8.371 19.433 8.211 30.21-.363 24.778-14.129 44.133-38.344 51.223C98.895 76.23 85.18 56.68 84.816 31.902c-.16-10.754 2.91-20.957 8.235-30.254-3.364 5.387-9.254 19.079-9.367 30.063v.21q.017 1.121.07 2.227c.816 12.547 8.746 40.872 39.402 48.989m0 0" style="stroke:none;fill-rule:evenodd;fill:#eaebc1;fill-opacity:1"/><path d="M107.52 6.36c.007-1.567-.004-3.133-.004-4.7v-.535l5.77.012.003.527.008 5.816 6.84-.003-.028-5.805V1.14c1.012 0 2.028-.012 3.04-.004 1.027-.008 2.042.008 3.054.004v6.336l6.817.007.007-5.804v-.54l5.77-.003v.547c0 1.558-.008 3.117 0 4.675l.008 1.121 6.89-.003-.007-5.79v-.546c2.316.011 4.636-.016 6.953 0 .32 0 .504.304.648.554 3.383 5.418 9.3 19.207 9.344 30.227.176-12.043-3.504-22.356-8.363-30.79-.395-.683-.88-1.12-1.622-1.12-2.273-.02-5.054.02-7.328 0-.53.004-.765.218-.765.847l.007 5.493h-4.632c-.012-1.688.007-3.809-.004-5.497 0-.523-.184-.847-.836-.847l-6.363.004c-.5 0-.829.582-.832.851l-.004 5.492-4.555-.003-.004-5.493c-.008-.37-.25-.847-.8-.847-1.048.011-2.325-.012-3.376 0-1.047-.012-2.316.011-3.367 0-.547 0-.805.48-.809.851v5.489l-4.554.003-.008-5.496c-.004-.265-.152-.855-.781-.847L107.148 0c-.652.012-.761.344-.761.867-.012 1.692.011 3.797 0 5.485h-4.633l-.012-5.489c-.023-.625-.312-.847-.84-.851-2.273.02-4.96-.02-7.238 0-.727 0-1.3.511-1.617 1.12-4.809 8.4-8.496 18.63-8.367 30.583.043-4.055.87-8.473 2.07-12.711q.001-.011.008-.027c1.988-7.153 5.027-13.696 7.285-17.313q.007-.006.008-.012c.117-.222.347-.511.62-.511 2.313-.016 4.63.011 6.942 0v.515l.012 5.82 6.887.004Zm0 0" style="stroke:none;fill-rule:evenodd;fill:#7d6e49;fill-opacity:1"/><path d="M162.574 33.89c-.726 12.41-8.547 41.075-39.418 49.247-30.652-8.114-38.582-36.434-39.402-48.98 1.101 22.968 13.953 43.046 39.402 50.144 25.543-7.125 38.406-27.332 39.418-50.41m0 0" style="stroke:none;fill-rule:evenodd;fill:#61522e;fill-opacity:1"/><path d="m110.492 67.188-.058-.168q.674-.31 1.671-.81a59 59 0 0 0 1.883-.968 37 37 0 0 0 1.664-.949c.52-.313.946-.582 1.266-.809h.148l-5.945 6.856h-1l6.098-6.156q-3.054 1.806-5.727 3.004m10.809-3.555c-.371 0-.856.226-1.453.687a9.2 9.2 0 0 0-1.602 1.559q-.703.872-.703 1.328-.001.422.52.422.69.002 1.609-.676.914-.675 1.594-1.531.684-.852.683-1.223c0-.375-.219-.566-.648-.566m-.906 2.965c-.48.41-.907.703-1.293.894q-.575.286-1.079.285-.363 0-.515-.175-.148-.175-.149-.579c0-.554.204-1.105.614-1.668a4.9 4.9 0 0 1 1.539-1.351q.924-.521 1.715-.52.867.001.867.887 0 .88-.656 1.942a9.5 9.5 0 0 1-1.676 1.996q-1.02.93-2.13 1.535c-.741.398-1.386.601-1.929.601q-.807-.002-.805-.613 0-.238.118-.394a.37.37 0 0 1 .312-.157q.315.001.313.313c0 .168-.047.281-.141.351-.098.075-.215.09-.355.055.015.09.074.16.187.215q.165.082.41.082.855-.001 1.738-.652a9.5 9.5 0 0 0 1.551-1.41q.665-.758 1.364-1.637m7.043-2.356h.12c-.351.86-.796 1.535-1.351 2.02-.547.492-1.035.734-1.465.734a.53.53 0 0 1-.363-.14.45.45 0 0 1-.156-.356q0-.721.562-1.426a4.4 4.4 0 0 1 1.371-1.144q.819-.446 1.52-.446c.297 0 .523.086.68.266.156.184.23.434.23.766q0 .93-.504 1.62-.502.685-1.309 1.165c-.535.316-1.203.656-2.011 1.031q-1.02.456-1.465.695-.444.239-.953.664.568-.176.996-.195c.406.016.805.117 1.18.293q.252.115.43.172.173.059.359.059.246 0 .535-.211.28-.21.656-.72l.129.095c-.32.437-.633.761-.938.96-.304.204-.625.301-.968.301q-.265 0-.887-.27-.721-.32-1.203-.32c-.371 0-.79.2-1.262.59h-.183q.697-.736 2.703-1.906c1.203-.687 2.054-1.242 2.57-1.672a7.8 7.8 0 0 0 1.262-1.37q.552-.768.554-1.34 0-.547-.597-.548-.593.001-1.38.524c-.519.347-.972.758-1.347 1.226q-.562.705-.562 1.145 0 .345.41.344.469 0 1.238-.621c.516-.41.984-1.075 1.398-1.985m7.105-.062h.14a3.6 3.6 0 0 1-1.042 1.203q-.664.492-1.25.492-.474-.001-.473-.488 0-.436.414-.883c.273-.3.629-.543 1.055-.734a3.1 3.1 0 0 1 1.273-.286q1.02-.002 1.02.91c0 .383-.176.743-.528 1.067q-.53.492-1.93 1.043l-.335.133c.61 0 .91.297.91.886q.002.686-.652 1.372-.656.691-1.75 1.12a6.3 6.3 0 0 1-2.333.43q-.616-.001-.968-.23c-.239-.153-.356-.375-.356-.684 0-.172.051-.312.14-.422a.47.47 0 0 1 .372-.168q.37 0 .371.317-.002.158-.098.281-.104.122-.226.121c-.192 0-.313-.09-.352-.277a.34.34 0 0 0-.039.187c.012.196.125.364.344.516q.323.223.77.21c.644-.023 1.308-.226 1.984-.62a7 7 0 0 0 1.707-1.348c.465-.508.695-.89.695-1.164a.33.33 0 0 0-.136-.277.5.5 0 0 0-.297-.102q-.487-.001-1.512.465l-.02-.125a19 19 0 0 0 1.7-.793q.673-.367 1.152-.781c.703-.586 1.055-1.074 1.055-1.477a.41.41 0 0 0-.149-.32.55.55 0 0 0-.344-.121c-.492 0-.949.113-1.382.34-.43.226-.774.492-1.028.789q-.384.447-.382.707c0 .066.035.129.117.18q.112.08.254.078.527 0 1.136-.446.61-.446.973-1.101m0 0" style="stroke:none;fill-rule:evenodd;fill:#687777;fill-opacity:1"/><path d="m142.527 41.074 9.7 2.68-9.72 1.926c.122-1.477.216-2.996.02-4.606m-2.382-7.469 9.992-1.226-8.239 5.488c-.457-1.41-.953-2.851-1.753-4.262m-5.067-5.992 8.758-4.945-5.504 8.21c-.96-1.128-1.973-2.269-3.254-3.265m-6.984-3.605 6.195-7.91-1.934 9.687c-1.32-.676-2.695-1.344-4.261-1.777m-7.832-.664 2.683-9.672 1.938 9.687c-1.485-.12-3.008-.214-4.621-.015m-7.492 2.37-1.235-9.956 5.508 8.21c-1.414.458-2.863.95-4.273 1.747m-6.012 5.052-4.965-8.73 8.242 5.487c-1.133.961-2.281 1.97-3.277 3.243m-3.617 6.96-7.934-6.171 9.715 1.925c-.676 1.317-1.348 2.688-1.781 4.247m-.668 7.81-9.703-2.677 9.718-1.925c-.12 1.476-.215 2.996-.015 4.601m0 0" style="stroke:none;fill-rule:nonzero;fill:url(#e)"/><path d="m95.676 54.96 9.562-9.507 1.82 1.567 9.602-9.125 1.149 1.144 5.113-4.574 6.808 6.812 2.32-1.59 12.27 11.036-10.797-7.606c-.472-.277-1.39-.25-2.07.098-.82.422-1.621.512-2.246.176l-6.086-3.805c-.23-.16-.5-.211-.848 0l-3.812 2.758c-.508.316-2.406-.692-2.77-.32l-8.254 6.609c-.382.297-.628.445-.949.262l-.996-.657Zm0 0" style="stroke:none;fill-rule:evenodd;fill:#000;fill-opacity:1"/><path d="M99.633 53.258c7.476-4.453 16.945-4.047 26.558-3.082 9.274.93 18.52 1.64 27.657-1.082-6.61 4.176-16.207 4.691-27.332 3.277-9.196-1.164-18.36-2.207-26.883.887m0 0" style="stroke:none;fill-rule:evenodd;fill:#68b1cd;fill-opacity:1"/><path d="M94.227 57.414c8.878-5.496 19.43-5.14 33.441-3.457 10.453 1.258 19.309 1.086 28.527-1.84-9.672 5.602-19.406 5.594-30.968 4.176-10.235-1.254-21.461-2.711-31 1.121m0 0" style="stroke:none;fill-rule:evenodd;fill:#29a0bf;fill-opacity:1"/><path d="M134.469 239.887a17.46 17.46 0 0 1 4.547 12.636 17.47 17.47 0 0 1-5.754 12.141 17.57 17.57 0 0 1-12.676 4.527 17.56 17.56 0 0 1-12.18-5.73 17.47 17.47 0 0 1-4.543-12.637 17.47 17.47 0 0 1 5.75-12.14 17.58 17.58 0 0 1 12.68-4.532 17.56 17.56 0 0 1 12.176 5.735m0 0" style="stroke:none;fill-rule:nonzero;fill:url(#f)"/><path d="M114.734 265.191a27 27 0 0 1-2.71-.336 36 36 0 0 1-1.883-.378 17.05 17.05 0 0 0 10.09 4.207 40 40 0 0 1-2.43-1.336 24 24 0 0 1-3.067-2.157m-2.629-.816c.852.148 1.707.258 2.555.324 1.227-3.605 3.082-6.562 5.399-9.094 2.32-2.539 5.105-4.648 8.187-6.566-.18-2.777-.785-5.46-2-7.664-4.465 2.73-8.148 5.887-11.121 9.414-2.992 3.54-5.273 7.457-6.926 11.68q.277.34.57.664.316.346.649.676c.894.218 1.789.41 2.687.566m-7.03-17.687c.874-1.961 1.96-3.778 3.327-5.403 1.938-2.3 4.442-4.215 7.7-5.601l-.204-.149a17.1 17.1 0 0 0-5.957 3.508 17.07 17.07 0 0 0-4.867 7.644m3.706-5.09c-1.965 2.332-3.34 5.074-4.332 8.078q-.07.581-.097 1.168a17 17 0 0 0 .359 4.426c1.293-4.137 3.637-7.833 6.52-10.836 3.222-3.356 7.12-5.852 10.98-7.153-1.504-.804-3.344-1.273-5.57-1.293-3.356 1.367-5.903 3.285-7.86 5.61m7.895-6.094c3.879.039 6.636 1.402 8.531 3.539 2.262 2.547 3.285 6.191 3.531 9.996l.832.606c1.66 1.214 3.68 2.687 5.59 3.527-.207-3.086-1.008-6.75-2.355-9.887-1.168-2.707-2.739-5.012-4.688-6.2l.254-.413c2.043 1.242 3.68 3.629 4.883 6.418 1.406 3.27 2.226 7.101 2.406 10.289.98.371 1.918.555 2.754.422q.08-.644.113-1.301a16.98 16.98 0 0 0-4.418-12.285 17.07 17.07 0 0 0-11.84-5.574 17.1 17.1 0 0 0-5.8.71Zm8.164 3.86a9.5 9.5 0 0 0-2.063-1.755c-3.918 1.235-7.914 3.746-11.195 7.164-3.02 3.141-5.434 7.055-6.637 11.442a17 17 0 0 0 2.903 5.812c1.664-4.168 3.937-8.039 6.902-11.55 3.012-3.57 6.734-6.766 11.254-9.524a11 11 0 0 0-1.164-1.59m3.648 10.097c-2.32 1.445-4.468 3-6.37 4.766q3.021 2.609 6.405 4.304a28.6 28.6 0 0 0 7.239 2.473c1.3-1.98 2.199-4.25 2.582-6.703-2.778.332-6.371-2.297-9.063-4.262zm-6.73 5.105c-.461.442-.906.895-1.336 1.368a26 26 0 0 0-2.492 3.18 23.9 23.9 0 0 0 5.386 4.648c1.97 1.242 4.082 2.183 6.305 2.89a17 17 0 0 0 3.313-2.351 17 17 0 0 0 2.53-2.86 29 29 0 0 1-7.16-2.476q-3.463-1.73-6.546-4.399m-4.106 4.977a25 25 0 0 0-2.539 5.332c.89.738 1.89 1.422 2.942 2.055 1.09.656 2.23 1.254 3.363 1.797a17.1 17.1 0 0 0 7.598-1.762c-2.094-.7-4.09-1.61-5.957-2.79a24.4 24.4 0 0 1-5.407-4.632m-8.039-20.86a17.58 17.58 0 0 1 12.68-4.53 17.56 17.56 0 0 1 12.176 5.734 17.46 17.46 0 0 1 4.547 12.636 17.47 17.47 0 0 1-5.754 12.141 17.57 17.57 0 0 1-12.676 4.527 17.56 17.56 0 0 1-12.18-5.73 17.47 17.47 0 0 1-4.543-12.637 17.47 17.47 0 0 1 5.75-12.14m0 0" style="stroke:none;fill-rule:nonzero;fill:url(#g)"/></svg>