<svg xmlns="http://www.w3.org/2000/svg" width="40" height="40" fill="none"><path fill="#fff" d="M35.726 7.085a77 77 0 0 0-.274-1.455.674.674 0 0 0-.624-.542h-.007c-1.36-.053-2.463-1.139-2.51-2.472v-.02a.67.67 0 0 0-.449-.585A33.985 33.985 0 0 0 23.32.134a35 35 0 0 0-6.144.004A34 34 0 0 0 8.673 2.01a.67.67 0 0 0-.449.585v.02c-.047 1.333-1.15 2.42-2.51 2.471h-.006a.67.67 0 0 0-.623.543q-.148.737-.276 1.455c-.522 2.933-.8 5.583-.809 7.44-.008 1.79.142 3.552.446 5.269q.264 1.483.68 2.915l.075.246q.374 1.237.861 2.43a27 27 0 0 0 2.317 4.424 28 28 0 0 0 5.128 5.875c1.684 1.47 3.9 3.064 6.015 4.137a1.65 1.65 0 0 0 1.492 0c2.113-1.073 4.331-2.667 6.015-4.137a28 28 0 0 0 5.128-5.875 26.8 26.8 0 0 0 3.178-6.854q.038-.122.075-.245.419-1.44.682-2.928c.303-1.713.453-3.471.444-5.257-.009-1.857-.286-4.507-.809-7.44"/><path fill="#fff" d="M34.962 14.83c-.027-1.665-.276-3.972-.729-6.514q-.116-.648-.248-1.315a.61.61 0 0 0-.563-.49h-.006c-1.23-.047-2.226-1.028-2.267-2.233l-.001-.018a.6.6 0 0 0-.405-.529q-.375-.135-.751-.26a30.7 30.7 0 0 0-6.968-1.436 31.5 31.5 0 0 0-5.551.003A30.7 30.7 0 0 0 9.79 3.731a.61.61 0 0 0-.405.529l-.001.018C9.343 5.482 8.348 6.464 7.118 6.51h-.006a.61.61 0 0 0-.563.49 66 66 0 0 0-.25 1.315c-.453 2.547-.702 4.858-.728 6.524l-.002.197c-.008 1.617.127 3.21.403 4.76q.237 1.341.614 2.634l.02.062-.01.004q.028.096.058.19.338 1.119.779 2.196a24.3 24.3 0 0 0 2.946 5.226 25.6 25.6 0 0 0 3.78 4.08l.174.15.002.001a30 30 0 0 0 3.954 2.862q.654.393 1.303.725c.423.214.925.214 1.349 0 .431-.22.868-.464 1.302-.725h.002a30 30 0 0 0 3.953-2.862l.002-.001.174-.15a25.6 25.6 0 0 0 3.779-4.08l.001-.002q.446-.602.852-1.226a24.2 24.2 0 0 0 2.872-6.193l.059-.192-.01-.003.019-.062q.378-1.3.616-2.645a26.5 26.5 0 0 0 .4-4.75q0-.102-.002-.208z"/><mask id="a" width="30" height="38" x="5" y="1" maskUnits="userSpaceOnUse" style="mask-type:luminance"><path fill="#fff" d="M34.962 14.83c-.027-1.665-.276-3.972-.729-6.514q-.116-.648-.248-1.315a.61.61 0 0 0-.563-.49h-.006c-1.23-.047-2.226-1.028-2.267-2.233l-.001-.018a.6.6 0 0 0-.405-.529q-.375-.135-.751-.26a30.7 30.7 0 0 0-6.968-1.436 31.5 31.5 0 0 0-5.551.003A30.7 30.7 0 0 0 9.79 3.731a.61.61 0 0 0-.405.529l-.001.018C9.343 5.482 8.348 6.464 7.118 6.51h-.006a.61.61 0 0 0-.563.49 66 66 0 0 0-.25 1.315c-.453 2.547-.702 4.858-.728 6.524l-.002.197c-.008 1.617.127 3.21.403 4.76q.237 1.341.614 2.634l.02.062-.01.004q.028.096.058.19.338 1.119.779 2.196a24.3 24.3 0 0 0 2.946 5.226 25.6 25.6 0 0 0 3.78 4.08l.174.15.002.001a30 30 0 0 0 3.954 2.862q.654.393 1.303.725c.423.214.925.214 1.349 0 .431-.22.868-.464 1.302-.725h.002a30 30 0 0 0 3.953-2.862l.002-.001.174-.15a25.6 25.6 0 0 0 3.779-4.08l.001-.002q.446-.602.852-1.226a24.2 24.2 0 0 0 2.872-6.193l.059-.192-.01-.003.019-.062q.378-1.3.616-2.645a26.5 26.5 0 0 0 .4-4.75q0-.102-.002-.208z"/></mask><g mask="url(#a)"><path fill="#1B365D" d="M38.522 17.184a26 26 0 0 0-2.672-1.214.5.5 0 0 1-.17-.111l-.685-.693a.5.5 0 0 0-.199-.122l-.863-.278a.77.77 0 0 0-.626.067.8.8 0 0 1-.615.092 39 39 0 0 0-2.15-.532l-.212-.099-.913-.707a.4.4 0 0 0-.174-.08l-1.007-.172a.83.83 0 0 0-.666.177l-.077.063a.83.83 0 0 1-.633.18 50 50 0 0 0-3.724-.347.8.8 0 0 1-.426-.15l-.418-.297a.3.3 0 0 0-.17-.055h-.372l-.002-.142-.076-5.036-.002-.01-.321-1.16c-.009-.032-.052-.034-.064-.004l-.103.261c-.012.031-.056.027-.064-.004l-.63-2.75-.001-.009v-.27a.034.034 0 0 0-.034-.034h-.117a.034.034 0 0 1-.033-.028l-.034-.186c-.005-.024.017-.044.04-.04a1 1 0 0 0 .25.005c.111-.01.22-.03.331-.04l.038-.001.043-.002a.8.8 0 0 1 .208.02.034.034 0 0 0 .044-.033v-.52c0-.016-.011-.03-.026-.034a.95.95 0 0 0-.305-.02c-.112.009-.22.03-.332.04h-.028a1 1 0 0 1-.262-.013c-.021-.004-.042.01-.042.033v.372l-.003.062-.065.357a.035.035 0 0 1-.033.028h-.117a.034.034 0 0 0-.034.034v.279l-.631 2.748c-.008.033-.053.036-.065.005l-.102-.26c-.012-.03-.055-.028-.064.003l-.321 1.162q0 .002-.002.008l-.077 5.037-.002.142h-.372a.3.3 0 0 0-.17.054l-.418.298a.8.8 0 0 1-.425.15c-1.274.07-2.519.188-3.725.347a.83.83 0 0 1-.633-.18l-.076-.062a.84.84 0 0 0-.667-.178l-1.007.172a.4.4 0 0 0-.174.08l-.912.707-.213.1q-1.107.24-2.15.531a.8.8 0 0 1-.615-.092.77.77 0 0 0-.625-.067l-.864.278a.5.5 0 0 0-.199.122l-.685.693a.5.5 0 0 1-.17.111c-.955.373-1.848.779-2.671 1.214v22.62h36.58z"/><path fill="#fff" d="m14.2 34.096.173.149V20.947a49 49 0 0 0-3.928.62v8.477a25.4 25.4 0 0 0 3.754 4.052"/><path fill="#E4002B" d="M18.301 37.089V20.645q-1.996.076-3.927.302v13.3c1.138.975 2.522 2 3.927 2.842"/><path fill="#D82628" d="M14.375 34.246V20.947h-.002v13.298z"/><path fill="#E4002B" d="M7.519 24.853a24 24 0 0 0 2.925 5.19v-8.476c-1.284.258-2.539.563-3.756.916q.03.095.058.19.335 1.111.773 2.18"/><path fill="#D82628" d="M10.446 30.044v-8.478h-.002v8.476z"/><path fill="#fff" d="M19.598 37.81c.42.212.918.212 1.339 0 .428-.218.862-.461 1.293-.72V20.643a51 51 0 0 0-3.927 0v16.445c.432.259.865.502 1.294.72"/><path fill="#fff" d="M18.303 37.09V20.644h-.002v16.444h.002z"/><path fill="#E4002B" d="M26.159 34.246v-13.3a51 51 0 0 0-3.928-.302v16.444a29.6 29.6 0 0 0 3.928-2.842"/><path fill="#D82628" d="M22.232 37.089V20.645h-.002V37.09h.002z"/><path fill="#fff" d="M26.334 34.096a25.4 25.4 0 0 0 3.754-4.052v-8.478a49 49 0 0 0-3.928-.619v13.299zM26.16 34.245V20.946v13.3z"/><path fill="#E4002B" d="M30.09 30.042q.442-.598.846-1.218a24 24 0 0 0 2.852-6.15q.03-.096.058-.191a46 46 0 0 0-3.756-.916z"/><path fill="#D82628" d="M30.09 30.042v-8.476h-.002v8.478z"/><path fill="#1B365D" d="M20.288 16.743c-1.143 0-2.3.04-3.46.122-1.35.14-2.659.288-3.874.432-2.522.388-5 .984-7.324 1.809v.005s-.415.554 1.611 5.62c4.148-1.25 8.857-1.714 13.048-1.714 4.19 0 8.87.46 13.005 1.701.496-1.255 1.277-3.447 1.647-5.614-4.571-1.62-9.735-2.36-14.653-2.36z"/></g><path fill="#1B365D" d="M35.059 7.643q-.123-.686-.263-1.392a.644.644 0 0 0-.597-.519h-.006c-1.302-.05-2.357-1.09-2.402-2.365v-.019a.64.64 0 0 0-.43-.56A32.557 32.557 0 0 0 23.187.992a33.5 33.5 0 0 0-5.879.005 32.5 32.5 0 0 0-8.135 1.793.64.64 0 0 0-.429.56v.018c-.045 1.276-1.1 2.315-2.402 2.365h-.006a.645.645 0 0 0-.597.52q-.14.705-.263 1.392c-.5 2.805-.765 5.342-.774 7.118-.008 1.712.135 3.4.427 5.042q.252 1.419.65 2.79.037.117.073.234a25.7 25.7 0 0 0 3.041 6.559 26.8 26.8 0 0 0 4.907 5.62c1.611 1.406 3.733 2.932 5.755 3.96.448.227.98.227 1.427 0 2.022-1.028 4.144-2.554 5.755-3.96a26.8 26.8 0 0 0 4.907-5.62 25.7 25.7 0 0 0 3.041-6.559q.037-.117.072-.235.401-1.376.654-2.801c.29-1.639.432-3.321.424-5.03-.01-1.777-.275-4.313-.775-7.12zm-.161 7.59a26.6 26.6 0 0 1-.398 4.554 25 25 0 0 1-.614 2.634l-.019.061.01.003q-.03.096-.058.19a24 24 0 0 1-.697 1.988q-.036.094-.074.187a24 24 0 0 1-2.936 5.212l-.002.002a25.5 25.5 0 0 1-3.761 4.06l-.174.15-.002.002a29.7 29.7 0 0 1-3.936 2.848h-.001c-.433.26-.867.504-1.297.722a1.48 1.48 0 0 1-1.342 0q-.646-.328-1.297-.721H18.3a29.7 29.7 0 0 1-3.936-2.85h-.002l-.174-.15a25.4 25.4 0 0 1-3.761-4.061l-.002-.002a24 24 0 0 1-2.932-5.201l-.074-.186a25 25 0 0 1-.7-2l-.059-.19.01-.003-.019-.061a25 25 0 0 1-.734-3.389 26.6 26.6 0 0 1-.278-3.848l-.001-.125q0-.096.002-.197c.026-1.657.274-3.958.725-6.494q.115-.646.247-1.309a.605.605 0 0 1 .56-.487h.007c1.224-.048 2.215-1.024 2.257-2.223V4.33a.6.6 0 0 1 .404-.527q.371-.134.748-.258a30.6 30.6 0 0 1 6.9-1.426 31 31 0 0 1 5.526-.003 30.6 30.6 0 0 1 7.684 1.688.6.6 0 0 1 .404.544c.042 1.199 1.033 2.176 2.257 2.224h.006c.279.012.508.22.561.487q.133.663.248 1.308c.45 2.531.698 4.828.725 6.485l.002.207v.174z"/><path fill="#fff" d="M8.836 22.664q-.32-.22-.32-.776V19.91q0-.537.32-.896.32-.36.938-.512.62-.149.942.055.323.203.323.74v1.976q0 .56-.323.935-.324.373-.942.523-.619.152-.938-.069zm1.122-.836a.7.7 0 0 0 .048-.282v-2.03a.4.4 0 0 0-.045-.21q-.045-.072-.181-.04-.256.063-.256.377v2.025q0 .179.054.257.053.078.196.043.138-.032.185-.14M12.958 22.043V18.69c-.246.04-.37.062-.614.107V18a37 37 0 0 1 2.269-.35v.796c-.247.032-.37.049-.617.084v3.353c-.416.06-.624.09-1.038.16M16.658 21.587v-3.354c-.248.02-.372.031-.62.055v-.797c.913-.087 1.37-.12 2.287-.158v.797c-.249.01-.373.017-.62.03v3.354c-.42.024-.63.039-1.047.073M19.709 21.445l.506-4.155c.709 0 1.064.006 1.774.034l.5 4.173c-.398-.02-.596-.027-.993-.039l-.074-.673c-.253-.007-.38-.01-.633-.013l-.062.671c-.407-.005-.61-.004-1.017 0zm1.158-1.334.476.01-.232-2.117h-.049l-.195 2.108M24.383 21.632l-.56-4.2c.409.033.613.052 1.021.094l.292 2.65.29-2.585c.389.045.582.07.97.123.11 1.064.166 1.595.278 2.66l.277-2.579c.41.062.616.096 1.025.168l-.567 4.055c-.496-.08-.745-.117-1.244-.184l-.26-2.035c-.1.788-.15 1.182-.248 1.97a38 38 0 0 0-1.274-.137M29.293 22.366l.497-4.045c.696.153 1.042.236 1.732.417l.486 4.28a36 36 0 0 0-.967-.252l-.07-.69a35 35 0 0 0-.62-.149c-.024.263-.035.395-.06.658a38 38 0 0 0-.998-.22zm1.135-1.082c.186.043.28.065.464.111l-.226-2.167-.047-.011c-.077.826-.114 1.24-.19 2.067M11.263 17.06l.2-1.773c.28-.048.42-.072.7-.117l.197 1.706c-.157.024-.236.037-.392.063l-.029-.276-.25.041-.024.285-.402.07m.457-.638c.075-.013.113-.019.188-.03l-.092-.87-.019.003zM14.113 16.634v-1.403l-.246.03v-.334c.363-.045.546-.066.91-.105v.333l-.248.027v1.404zM16.348 16.414v-1.738c.167-.013.25-.019.417-.03v1.442c.172-.012.258-.017.43-.027v.295c-.34.02-.509.031-.847.057M18.771 16.286v-1.738c.335-.01.502-.012.837-.017v.336l-.411.007v.338l.394-.007v.327c-.158.002-.237.003-.394.007v.399c.175-.004.262-.006.438-.008v.338c-.346.005-.518.008-.864.018m.272-1.929v-.134l.565-.142v.209c-.226.026-.338.038-.565.066zM21.414 16.278v-1.404l-.248-.005v-.333c.366.006.549.011.915.024v.333l-.248-.008v1.403zM23.636 16.375v-1.737c.161.01.242.016.403.028v1.737zM25.782 16.46a.46.46 0 0 1-.137-.343v-.801q0-.259.124-.377.123-.118.387-.089a.67.67 0 0 1 .37.15q.14.121.14.32v.3c-.165-.022-.247-.032-.413-.051v-.258q0-.075-.022-.105-.021-.031-.075-.037-.055-.007-.076.023t-.02.093v.872q0 .069.024.103t.073.039q.096.012.096-.12v-.314l.418.05v.328q0 .435-.524.374a.6.6 0 0 1-.365-.16zM28.37 16.797a.56.56 0 0 1-.13-.382v-.827q0-.225.13-.319.13-.093.38-.052a.66.66 0 0 1 .38.18q.13.135.13.36v.828q0 .234-.13.339t-.38.062a.62.62 0 0 1-.38-.191zm.455-.157a.25.25 0 0 0 .019-.11v-.849a.2.2 0 0 0-.018-.095q-.019-.039-.073-.048-.104-.017-.104.114v.848q0 .075.022.117.02.043.08.052.054.01.074-.028z"/><path fill="#E4002B" d="m20.894 36.094.578-.48-.12-.057c-.053-.02-.038-.049-.02-.122l.09-.327-.337.072a.05.05 0 0 1-.06-.037l-.043-.154-.265.304c-.038.048-.115.048-.091-.064l.114-.614-.153.081c-.043.024-.085.028-.11-.016l-.21-.399-.211.4c-.024.043-.067.04-.11.015l-.153-.08.114.613c.025.112-.052.112-.09.064l-.266-.303-.043.153a.05.05 0 0 1-.06.037l-.336-.072.089.327c.018.072.033.103-.02.122l-.12.058.579.478c.023.019.035.051.026.08l-.05.17c.2-.023.378-.058.577-.08.018-.002.047.027.047.048l-.026.62h.096l-.015-.618c0-.021.027-.052.044-.05.2.022.378.057.577.08l-.05-.17a.08.08 0 0 1 .027-.08"/></svg>