<svg xmlns="http://www.w3.org/2000/svg" width="40" height="40" fill="none"><g clip-path="url(#a)"><path fill="#fff" d="M33.162 25.452 38.613 20l-5.451-5.452v-7.71h-7.71L20 1.388l-5.452 5.452h-7.71v7.71L1.388 20l5.452 5.452v7.71h7.71L20 38.613l5.451-5.451h7.71z"/><path fill="#002856" d="m20 1.387 5.452 5.451h7.71v7.71L38.613 20l-5.452 5.452v7.71h-7.71L20 38.613l-5.452-5.452h-7.71v-7.71L1.387 20l5.451-5.452v-7.71h7.71zM20 0l-.694.694-5.164 5.164H5.858v8.284L.694 19.307 0 20l.694.694 5.164 5.164v8.284h8.284l5.165 5.164L20 40l.694-.694 5.164-5.164h8.284v-8.284l5.164-5.164L40 20l-.694-.694-5.164-5.164V5.858h-8.284L20.694.694z"/><path fill="#3CB4E5" d="M20.012 34.036 20 34.034a.07.07 0 0 0-.053.025.07.07 0 0 0 .055.116q.032 0 .053-.025a.07.07 0 0 0 .016-.057.07.07 0 0 0-.058-.058"/><path fill="#3CB4E5" d="m20 33.178-1.766 1.828L20 36.771l1.766-1.766zm.852 2.219c-.139.337-.405.606-.678.684a.07.07 0 0 0-.046.042c-.018.046-.06.124-.126.125-.067 0-.109-.077-.127-.123a.07.07 0 0 0-.048-.043c-.274-.079-.534-.34-.679-.683l-.098-.26a.052.052 0 0 1 .074-.064l.327.175a.053.053 0 0 1-.006.095l-.076.03c.088.175.224.31.384.378a.101.101 0 0 0 .142-.092v-.97h-.401a.148.148 0 0 1-.228-.021.15.15 0 0 1-.014-.142.14.14 0 0 1 .081-.08.149.149 0 0 1 .16.033h.34a.06.06 0 0 0 .062-.062v-.072a.264.264 0 1 1 .368-.265.265.265 0 0 1-.157.264v.074q0 .024.018.043a.06.06 0 0 0 .043.017h.34a.15.15 0 0 1 .16-.032.14.14 0 0 1 .082.08c.019.048.014.1-.014.142a.148.148 0 0 1-.229.022h-.4v.974a.1.1 0 0 0 .136.095.75.75 0 0 0 .39-.386l-.076-.029a.05.05 0 0 1-.033-.045.05.05 0 0 1 .027-.05l.327-.174a.05.05 0 0 1 .067.016q.015.023.006.048zM27.496 31.86h1.13l-.565-.585zM8.14 31.86h.334l-.334-.346z"/><path fill="#3CB4E5" d="m24.03 31.275-1.813 1.876-.202.209-.202-.21L20 31.276l-1.813 1.876-.202.209-.202-.21-1.814-1.875-.72.745 2.786 2.787 1.763-1.824.202-.209.202.21 1.763 1.823 2.575-2.576.211-.21zM11.374 31.86h1.13l-.565-.585zM30.076 27.132l-2.005-2.073h-.02l-2.005 2.073-2.005-2.073h-.021l-2.005 2.073-2.004-2.073h-.022l-2.005 2.073-2.004-2.073h-.021l-2.005 2.073-2.004-2.073h-.022l-2.004 2.073-1.784-1.845v1.758l1.784 1.845 2.015-2.085 2.015 2.085 2.015-2.085 2.016 2.085L20 26.805l2.015 2.085 2.015-2.085 2.016 2.085 2.015-2.085 2.015 2.085 1.783-1.844v-1.758z"/><path fill="#3CB4E5" d="M31.86 31.112v-1.759l-1.784 1.845-2.015-2.085-2.015 2.085-2.016-2.085-2.015 2.085L20 29.113l-2.015 2.085-2.015-2.085-2.016 2.085-2.015-2.085-2.015 2.085-1.783-1.845v1.758l.723.749h2.12l.955-.99.956.99h2.119l.956-.99 2.015 2.086L20 30.87l2.015 2.085 2.015-2.085.956.989h2.12l.955-.99.955.99h2.12zM28.462 25.059l1.614 1.67 1.615-1.67z"/><path fill="#3CB4E5" d="m29.875 29.086-1.814-1.877-1.814 1.877-.201.208-.202-.209-1.814-1.876-1.813 1.877-.202.208-.202-.209L20 27.21l-1.813 1.877-.202.208-.202-.209-1.814-1.876-1.813 1.877-.202.208-.202-.209-1.813-1.876-1.813 1.876-.202.21-.202-.21L8.14 27.45v1.5l1.784 1.845 1.813-1.876.202-.209.202.209 1.813 1.876 1.813-1.876.203-.209.201.209 1.814 1.876 1.813-1.876.202-.209.202.209 1.813 1.876 1.814-1.876.201-.209.202.209 1.814 1.876 1.813-1.876.202-.209.201.209 1.814 1.876 1.783-1.844v-1.5l-1.581 1.636-.202.208zM27.66 25.059h-3.228l1.614 1.67zM31.86 31.515l-.333.345h.332zM23.63 25.059H20.4l1.615 1.67zM11.538 25.059H8.31l1.614 1.67zM19.599 25.059H16.37l1.615 1.67zM15.568 25.059H12.34l1.614 1.67z"/><path fill="#002856" d="M17.422 24.024v-.519c0-.07-.037-.09-.09-.09h-.084v.7h.083c.054 0 .09-.02.09-.09M25.21 23.464l-.069.44h.139zM15.171 23.464l-.069.44h.139zM16.111 23.634v-.129c0-.07-.037-.09-.09-.09h-.086v.31h.086c.053 0 .09-.02.09-.091M20.714 23.464l-.07.44h.139zM28.823 23.464l-.07.44h.139zM9.364 23.634v-.129c0-.07-.037-.09-.09-.09h-.087v.31h.086c.054 0 .09-.02.09-.091M8.424 23.464l-.069.44h.138zM12.959 23.464l-.07.44h.14zM30.534 23.464l-.069.44h.138zM26.15 23.634v-.129c0-.07-.036-.09-.09-.09h-.086v.31h.086c.054 0 .09-.02.09-.091M18.163 23.464l-.07.44h.139zM11.405 23.464l-.069.44h.138zM20.001 36.248c-.067 0-.108-.077-.127-.124a.07.07 0 0 0-.047-.042c-.274-.08-.535-.34-.68-.683l-.097-.26a.052.052 0 0 1 .074-.064l.327.175q.027.017.027.05a.05.05 0 0 1-.033.045l-.076.029c.088.176.223.31.383.379a.101.101 0 0 0 .142-.092v-.97h-.4a.148.148 0 0 1-.228-.022.15.15 0 0 1-.015-.142.14.14 0 0 1 .082-.08.148.148 0 0 1 .16.033h.34a.06.06 0 0 0 .061-.061v-.073a.264.264 0 1 1 .368-.265.265.265 0 0 1-.156.265v.073q0 .025.017.043a.06.06 0 0 0 .043.018h.34a.15.15 0 0 1 .16-.033.14.14 0 0 1 .082.08q.029.077-.014.142a.148.148 0 0 1-.228.023h-.4v.974a.1.1 0 0 0 .136.094.75.75 0 0 0 .39-.385l-.077-.03a.052.052 0 0 1-.005-.094l.326-.175a.05.05 0 0 1 .068.016q.015.022.006.049l-.098.257c-.139.337-.405.605-.678.684a.07.07 0 0 0-.046.042c-.018.046-.06.123-.126.124M20 34.035a.07.07 0 0 0-.053.025.07.07 0 0 0-.016.057.07.07 0 0 0 .07.059.07.07 0 0 0 .07-.083.07.07 0 0 0-.07-.058"/><path fill="#002856" d="m5.387 22.658.263.263 2.137 2.138v7.154h7.154l.062.062.012.011.924.925 1.83 1.829.22.22 1.761 1.762.25.25.25-.25 4.01-4.01.736-.737.062-.062h7.154v-7.154l2.138-2.138.262-.262zm25.747.613h.155l.19.575.192-.575h.16v.988h-.157v-.604l-.149.46h-.091l-.149-.46v.604h-.152zm-.7 0h.206l.186.988h-.166l-.036-.22h-.18l-.035.22h-.159zm-1.012 0h.164l.207.61v-.61h.15v.988h-.156l-.215-.642v.642h-.15zm-.7 0h.206l.186.988h-.166l-.035-.22h-.18l-.036.22h-.158zm2.968 1.788-1.614 1.67-1.614-1.67zm-3.721-1.372h.333v.133h-.333zm-.845-.416h.163l.208.61v-.61h.15v.988h-.156l-.216-.642v.642h-.15zm-1.314 0h.255c.15 0 .249.06.249.209v.176c0 .095-.04.154-.108.184l.142.419h-.167l-.125-.394h-.082v.394h-.164zm-.7 0h.206l.186.988h-.166l-.035-.22h-.18l-.036.22h-.158zm2.55 1.788-1.615 1.67-1.614-1.67zm-4.077-.984h.161v.141a.37.37 0 0 1-.091.229l-.061-.031a.4.4 0 0 0 .066-.155h-.075zm-.867-.804h.163v.412h.188v-.412h.163v.988h-.163v-.43h-.188v.43h-.163zm-.866.197c0-.146.098-.208.248-.208h.011c.15 0 .249.062.249.208v.142h-.164v-.116c0-.07-.037-.09-.09-.09-.054 0-.09.02-.09.09v.542c0 .07.036.09.09.09.053 0 .09-.02.09-.09v-.147h-.096v-.138h.26v.31c0 .152-.1.209-.249.209h-.011c-.15 0-.248-.055-.248-.209zm-.531-.197h.163v.988h-.163zm-.706 0h.207l.186.988h-.166l-.036-.22h-.18l-.036.22h-.158zm3.016 1.788-1.614 1.67-1.614-1.67zm-4.022-1.788h.164v.412h.187v-.412h.164v.988h-.164v-.43h-.187v.43h-.164zm-.855.197c0-.146.099-.208.248-.208h.003c.15 0 .249.062.249.208v.18h-.164v-.154c0-.07-.034-.09-.086-.09s-.086.02-.086.09v.541c0 .07.034.09.086.09s.086-.02.086-.09v-.179h.164v.204c0 .153-.1.21-.249.21H19c-.149 0-.248-.056-.248-.21zm-.69-.197h.206l.186.988h-.166l-.035-.22h-.18l-.036.22h-.158zm-.977 0h.252c.15 0 .249.06.249.209v.57c0 .15-.1.209-.249.209h-.252zm2.514 1.788-1.614 1.67-1.615-1.67zM15.77 23.27h.255c.15 0 .249.06.249.209v.176c0 .095-.04.154-.107.184l.14.419h-.166l-.125-.394h-.082v.394h-.164zm-.7 0h.206l.186.988h-.166l-.035-.22h-.18l-.036.22h-.158zm.497 1.788-1.614 1.67-1.614-1.67zm-2.024-.984h.161v.141a.37.37 0 0 1-.092.229l-.06-.031a.4.4 0 0 0 .066-.155h-.075zm-.685-.804h.206l.186.988h-.166l-.036-.22h-.18l-.035.22h-.159zm-.854 0h.164v.84h.252v.148h-.416zm-.7 0h.206l.187.988h-.167l-.035-.22h-.18l-.036.22h-.158zm.233 1.788-1.614 1.67-1.614-1.67zm-1.206-1.59c0-.147.098-.21.248-.21h.003c.15 0 .248.063.248.21v.18h-.163v-.155c0-.07-.034-.09-.086-.09-.053 0-.086.02-.086.09v.541c0 .07.033.09.086.09s.085-.02.085-.09v-.179h.164v.204c0 .153-.099.21-.248.21h-.003c-.15 0-.248-.056-.248-.21zm-1.308-.198h.255c.15 0 .249.06.249.209v.176c0 .095-.04.154-.108.184l.142.419h-.167l-.125-.394h-.082v.394h-.164zm-.7 0h.206l.186.988H8.55l-.035-.22h-.18l-.036.22H8.14zM8.14 31.86v-.346l.334.346zm3.234 0 .565-.585.565.585zM20 36.772l-1.766-1.767L20 33.178l1.766 1.827zm1.965-1.965-1.763-1.824-.202-.208-.202.208-1.762 1.824-2.787-2.787.72-.745 1.814 1.876.202.209.201-.21L20 31.276l1.814 1.876.201.209.202-.21 1.813-1.875.721.745zm5.53-2.947.566-.585.565.585zm4.364 0h-.333l.333-.344zm0-.748-.723.748h-2.12l-.955-.989-.956.989h-2.12l-.955-.989-2.015 2.085L20 30.871l-2.015 2.085-2.015-2.085-.956.989h-2.12l-.955-.989-.955.989h-2.12l-.723-.75v-1.757l1.783 1.845 2.015-2.085 2.015 2.085 2.015-2.085 2.016 2.085L20 29.113l2.015 2.085 2.015-2.085 2.015 2.085 2.015-2.085 2.016 2.085 1.783-1.845zm0-2.162-1.783 1.844-1.814-1.876-.201-.209-.202.209-1.813 1.876-1.814-1.876-.201-.209-.202.209-1.814 1.876-1.813-1.876-.202-.209-.201.209-1.814 1.876-1.813-1.876-.202-.209-.201.209-1.814 1.876-1.813-1.876-.202-.209-.202.209-1.813 1.876-1.783-1.845v-1.5l1.581 1.636.202.209.201-.209 1.814-1.876 1.814 1.876.201.21.202-.21 1.813-1.876 1.814 1.876.201.21.202-.21L20 27.21l1.814 1.876.201.21.202-.21 1.814-1.876 1.813 1.876.202.21.201-.21 1.814-1.876 1.814 1.876.201.21.202-.21 1.581-1.635zm0-1.904-1.783 1.845-2.015-2.085-2.015 2.084-2.015-2.085-2.015 2.085L20 26.806l-2.015 2.085-2.015-2.085-2.015 2.085-2.015-2.085-2.015 2.085-1.783-1.844v-1.758l1.783 1.845 2.004-2.074h.022l2.005 2.073 2.004-2.073h.022l2.004 2.073 2.005-2.073h.021l2.005 2.073 2.004-2.073h.022l2.004 2.073 2.005-2.073h.021l2.005 2.073 1.783-1.844v1.758zM34.613 17.342l-.302-.302-2.099-2.099V7.787h-7.154L20.25 2.978 20 2.73l-.25.25-4.808 4.808H7.788v7.154L5.689 17.04l-.302.302zm-22.72-1.308c-.933-.1-1.639-.22-2.172-.342a40 40 0 0 0 2.171-.853zm1.662.145a52 52 0 0 1-1.382-.116v-1.345q.704-.308 1.382-.636zm1.663.098q-.718-.034-1.383-.079v-2.254a34 34 0 0 0 1.383-.725zm1.663.063q-.709-.02-1.383-.05v-3.23q.722-.41 1.383-.838zm1.15.027-.87-.019v-4.31q.512-.342.971-.685zm.116-5.717q-.614.481-1.337.962c-1.996 1.327-4.5 2.554-7.126 3.51a30 30 0 0 0 3.873-2.866 31.4 31.4 0 0 0 4.66-5.106zm1.826 5.734q-.74 0-1.461-.01l.01-.469a.2.2 0 0 0 .076-.012 3.92 3.92 0 0 1 2.802 0 .2.2 0 0 0 .07.013h.007l.01.468q-.748.01-1.514.01m-1.145-9.472.002-.001.112-.034.031-.01v.514a4 4 0 0 0-.281.124l.011-.55q.063-.024.125-.043m.75 2.355.05.059q-.44.46-.991.926l.045-2.262q.338.627.896 1.277m1.255-1.534q-.24.444-.603.905l-.231.274-.201-.238a6.4 6.4 0 0 1-.63-.938 2.34 2.34 0 0 1 1.665-.003m-1.306-.51v-.47q.098-.011.194-.02v.462q-.096.01-.194.029M20 6.243q-.137 0-.273.009l.124-.658h.295l.124.658a4 4 0 0 0-.27-.01m.097.489v.45l-.084-.001h-.003q-.053 0-.107.002v-.451zm.18.462v-.46q.098.008.195.02v.468a3 3 0 0 0-.195-.028m1.04.8.046 2.257q-.55-.465-.99-.925l.051-.058q.556-.649.894-1.274m-.291-.616v-.51q.135.039.27.087l.011.547a3 3 0 0 0-.281-.124m-.772 5.257 1.128-1.457.06 2.993zm1.2 2.09.015.768a5 5 0 0 0-.336-.106v-.56q.16-.045.321-.103m-2.576-.313L20 12.96l1.121 1.45a3.8 3.8 0 0 1-2.243 0m2.064.463v.465a4 4 0 0 0-.224-.044v-.376q.113-.02.224-.045m-.415.074v.318a4 4 0 0 0-.224-.022v-.273q.113-.008.224-.023m-.415.033v.254a4 4 0 0 0-.224 0v-.254a4 4 0 0 0 .224 0m-.415-.01v.273a4 4 0 0 0-.224.022v-.318q.112.015.224.023m-.415-.052v.376q-.113.019-.224.044v-.466q.113.027.224.046M20 12.307l-1.118-1.444.298-.354q.445-.39.821-.778.37.385.812.77l.304.362zm.846-4.994q-.098-.031-.195-.055v-.477q.098.018.195.04zm-1.498-.05q-.098.023-.194.054v-.495q.097-.024.194-.04zm.398 5.371-1.189 1.536.061-2.993zm-.879 2.191v.562q-.168.045-.336.105l.015-.769q.161.058.322.102m3.973 1.522q-.431.012-.871.02l-.102-5.016q.459.344.973.687zm1.662-.06q-.673.03-1.382.052v-4.117q.66.427 1.382.84zm1.663-.092q-.666.044-1.382.08v-3.056q.67.372 1.382.725zm1.663-.138q-.65.065-1.382.118V14.08q.678.33 1.382.637zm.28-.03V14.84q1.059.452 2.155.847c-.532.12-1.234.24-2.154.341m-4.917-4.415q-.725-.482-1.339-.963l-.07-3.5a31.4 31.4 0 0 0 4.659 5.107 30 30 0 0 0 3.87 2.864c-2.623-.955-5.126-2.182-7.12-3.508M8.14 15.088V8.14h6.948L20 3.228l4.912 4.912h6.948v6.948s-.06.064-.256.163c-3.871-2.208-7.169-5.24-9.815-9.034a.3.3 0 0 0-.039-.053l-.017-.396h-.481v.466a.7.7 0 0 1-.304.117 4 4 0 0 0-.261-.052l-.008-.043-.14-.738-.06-.326h-.962l-.061.326-.139.738-.008.044a5 5 0 0 0-.258.051.7.7 0 0 1-.307-.119v-.461h-.481l-.016.397-.002.002-.007.009-.01.012v.002c-2.652 3.806-5.957 6.848-9.839 9.06-.192-.1-.248-.166-.248-.166M6.019 18.093v1.591h.724v-1.59h.632v3.813h-.632v-1.656H6.02v1.656h-.632v-3.814zM7.92 18.093h1.651v.556H8.552v1.073h.85v.556h-.85v1.63H7.92zM11.173 19.962l.747 1.945h-.654l-.474-1.395-.447 1.395h-.643l.747-1.945-.687-1.869h.654l.403 1.275.376-1.275h.643zM15.57 21.907h-.594l-.49-2.615-.49 2.615h-.616l-.6-3.814h.622l.316 2.724.49-2.724h.567l.49 2.724.316-2.724h.589zM17.52 21.057h-.697l-.136.85h-.61l.708-3.814h.796l.719 3.814h-.643zm-.081-.523-.267-1.695-.267 1.695zM18.616 21.907v-3.814h.632l.801 2.359v-2.36h.578v3.815h-.6l-.834-2.48v2.48zM23.106 18.9v2.2c0 .578-.382.807-.96.807h-.974v-3.814h.975c.577 0 .959.229.959.806m-.981-.251h-.321v2.702h.32c.208 0 .35-.076.35-.349v-2.005c0-.272-.142-.348-.35-.348M23.629 21.907v-3.814H25.3v.556h-1.04v1.046h.871v.556h-.872v1.1h1.058v.556zM27.197 21.907l-.484-1.52h-.317v1.52h-.631v-3.814h.986c.577 0 .959.229.959.806v.681c0 .366-.153.594-.415.709l.545 1.618zm-.8-2.065h.332c.207 0 .348-.076.348-.349v-.496c0-.272-.141-.348-.348-.348h-.333zM28.222 21.907v-3.814h1.672v.556h-1.04v1.046h.871v.556h-.871v1.1h1.057v.556zM31.79 21.907l-.484-1.52h-.317v1.52h-.631v-3.814h.986c.577 0 .959.229.959.806v.681c0 .366-.153.594-.414.709l.544 1.618zm-.8-2.065h.332c.207 0 .349-.076.349-.349v-.496c0-.272-.142-.348-.35-.348h-.332zM33.981 19.455v-.534c0-.24-.136-.326-.321-.326s-.322.087-.322.326v.262c0 .196.066.283.246.387l.446.25c.366.207.583.376.583.785v.55c0 .589-.365.796-.942.796h-.011c-.578 0-.943-.202-.943-.796v-.664h.621v.577c0 .234.136.338.327.338.19 0 .327-.104.327-.338v-.3c0-.196-.06-.294-.251-.397l-.441-.25c-.37-.213-.583-.388-.583-.785v-.502c0-.566.414-.784.937-.784h.01c.524 0 .938.218.938.784v.621z"/></g><defs><clipPath id="a"><path fill="#fff" d="M0 0h40v40H0z"/></clipPath></defs></svg>