<svg xmlns="http://www.w3.org/2000/svg" viewBox="0 221.25 740.88 865.41"><defs><clipPath id="a" clipPathUnits="userSpaceOnUse"><path d="M-125.14 674.99h555.65v-815h-555.65Z"/></clipPath><clipPath id="b" clipPathUnits="userSpaceOnUse"><path d="M-247.78 264.52h555.65v-815h-555.65Z"/></clipPath><clipPath id="c" clipPathUnits="userSpaceOnUse"><path d="M-247.78 786.55h555.65v-815h-555.65Z"/></clipPath><clipPath id="d" clipPathUnits="userSpaceOnUse"><path d="M-370.39 285.73h555.65v-815h-555.65Z"/></clipPath><clipPath id="e" clipPathUnits="userSpaceOnUse"><path d="M-309.07 638.81h555.65v-815h-555.65Z"/></clipPath><clipPath id="f" clipPathUnits="userSpaceOnUse"><path d="M-492.83 581.07H62.82v-815h-555.65Z"/></clipPath><clipPath id="g" clipPathUnits="userSpaceOnUse"><path d="M-385.9 456.74h555.65v-815H-385.9Z"/></clipPath><clipPath id="h" clipPathUnits="userSpaceOnUse"><path d="M-375.18 444.77h555.65v-815h-555.65Z"/></clipPath><clipPath id="i" clipPathUnits="userSpaceOnUse"><path d="M-409.94 444.71h555.65v-815h-555.65Z"/></clipPath><clipPath id="j" clipPathUnits="userSpaceOnUse"><path d="M-329.28 453.4h555.65v-815h-555.65Z"/></clipPath><clipPath id="k" clipPathUnits="userSpaceOnUse"><path d="M-426.38 451.24h555.65v-815h-555.65Z"/></clipPath><clipPath id="l" clipPathUnits="userSpaceOnUse"><path d="M-277.07 446.11h555.65v-815h-555.65Z"/></clipPath><clipPath id="m" clipPathUnits="userSpaceOnUse"><path d="M-278.78 457.25h555.65v-815h-555.65Z"/></clipPath><clipPath id="n" clipPathUnits="userSpaceOnUse"><path d="M-272.47 452.41h555.65v-815h-555.65Z"/></clipPath><clipPath id="o" clipPathUnits="userSpaceOnUse"><path d="M-431.72 563.42h555.65v-815h-555.65Z"/></clipPath><clipPath id="p" clipPathUnits="userSpaceOnUse"><path d="M-305.02 464.54h555.65v-815h-555.65Z"/></clipPath><clipPath id="q" clipPathUnits="userSpaceOnUse"><path d="M-319.07 464.54h555.65v-815h-555.65Z"/></clipPath><clipPath id="r" clipPathUnits="userSpaceOnUse"><path d="M-326.39 461.79h555.65v-815h-555.65Z"/></clipPath><clipPath id="s" clipPathUnits="userSpaceOnUse"><path d="M-346.05 450.44H209.6v-815h-555.65Z"/></clipPath><clipPath id="t" clipPathUnits="userSpaceOnUse"><path d="M-359.87 464.54h555.65v-815h-555.65Z"/></clipPath><clipPath id="u" clipPathUnits="userSpaceOnUse"><path d="M0 815h555.65V0H0Z"/></clipPath><clipPath id="v" clipPathUnits="userSpaceOnUse"><path d="M0 815h555.65V0H0Z"/></clipPath><clipPath id="w" clipPathUnits="userSpaceOnUse"><path d="M-377 459.96h555.65v-815H-377Z"/></clipPath><clipPath id="x" clipPathUnits="userSpaceOnUse"><path d="M-390.35 460.75H165.3v-815h-555.65Z"/></clipPath><clipPath id="y" clipPathUnits="userSpaceOnUse"><path d="M-400.13 438.24h555.65v-815h-555.65Z"/></clipPath><clipPath id="z" clipPathUnits="userSpaceOnUse"><path d="M-411.95 459.82H143.7v-815h-555.65Z"/></clipPath><clipPath id="A" clipPathUnits="userSpaceOnUse"><path d="M-431.82 451.23h555.65v-815h-555.65Z"/></clipPath><clipPath id="B" clipPathUnits="userSpaceOnUse"><path d="M-440.04 464.8h555.65v-815h-555.65Z"/></clipPath></defs><path d="M0 0v111.82c-22.8 31.3-36.27 69.84-36.27 111.53S-22.81 303.58 0 334.88v138.59c-19.66 3.78-39.95 8.16-61.1 13.06V93.79C-45.56 62.09-25.62 30.82 0 0" clip-path="url(#a)" style="fill:#0084ca;fill-opacity:1;fill-rule:nonzero;stroke:none" transform="matrix(1.33333 0 0 -1.33333 166.853 899.987)"/><path d="M0 0v47.33c-20.19.99-40.52 2.9-61.3 5.62v-74.26A188.3 188.3 0 0 0 0 0" clip-path="url(#b)" style="fill:#0084ca;fill-opacity:1;fill-rule:nonzero;stroke:none" transform="matrix(1.33333 0 0 -1.33333 330.373 352.693)"/><path d="M0 0v147.77a188.1 188.1 0 0 0-61.3 21.31V48.63C-42.86 32.28-22.49 16.07 0 0" clip-path="url(#c)" style="fill:#0084ca;fill-opacity:1;fill-rule:nonzero;stroke:none" transform="matrix(1.33333 0 0 -1.33333 330.373 1048.733)"/><path d="M0 0v73.9c-20.7-2.69-41.03-4.55-61.32-5.47V21.24A188.5 188.5 0 0 0 0 0" clip-path="url(#d)" style="fill:#0084ca;fill-opacity:1;fill-rule:nonzero;stroke:none" transform="matrix(1.33333 0 0 -1.33333 493.853 380.973)"/><path d="M0 0v-147.02c22.5 16.03 42.87 32.21 61.32 48.53V21.25A188.2 188.2 0 0 0 0 0" clip-path="url(#e)" style="fill:#0084ca;fill-opacity:1;fill-rule:nonzero;stroke:none" transform="matrix(1.33333 0 0 -1.33333 412.093 851.747)"/><path d="M0 0v392.58c-21.13-5-41.41-9.45-61.1-13.28V241.2c22.91-31.34 36.45-69.97 36.45-111.78S-38.19 48.99-61.1 17.64V-93.48C-35.49-62.76-15.54-31.6 0-.01z" clip-path="url(#f)" style="fill:#0084ca;fill-opacity:1;fill-rule:nonzero;stroke:none" transform="matrix(1.33333 0 0 -1.33333 657.107 774.76)"/><path d="M0 0v-3.42c0-1.09.55-1.63 1.56-1.63s1.83.33 2.9 1.05v7.35l-2.9-1.01C.39 1.89 0 1.31 0 .01Z" clip-path="url(#g)" style="fill:#fff;fill-opacity:1;fill-rule:nonzero;stroke:none" transform="matrix(1.33333 0 0 -1.33333 514.533 608.987)"/><path d="M0 0c-1.05 0-2.05-.41-2.94-1.16v-14.69c.89-.75 1.89-1.17 2.94-1.17 1.14 0 1.82.54 1.82 1.83v13.37C1.82-.53 1.14 0 0 0" clip-path="url(#h)" style="fill:#fff;fill-opacity:1;fill-rule:nonzero;stroke:none" transform="matrix(1.33333 0 0 -1.33333 500.24 593.027)"/><path d="M0 0h-.74C-2.1 0-2.73-.68-2.73-2.02v-13.09c0-1.34.63-2.02 1.99-2.02H0c1.32 0 2.02.68 2.02 2.02v13.09C2.02-.68 1.33 0 0 0" clip-path="url(#i)" style="fill:#fff;fill-opacity:1;fill-rule:nonzero;stroke:none" transform="matrix(1.33333 0 0 -1.33333 546.587 592.947)"/><path d="m0 0-2.88-1.01c-1.17-.45-1.57-1.03-1.57-2.33v-3.42c0-1.09.59-1.63 1.57-1.63s1.85.33 2.88 1.05V.01z" clip-path="url(#j)" style="fill:#fff;fill-opacity:1;fill-rule:nonzero;stroke:none" transform="matrix(1.33333 0 0 -1.33333 439.04 604.533)"/><path d="M0 0v-13.31h-3.31V15.9h8.98v-3.08H0V3.05h5.45V0Zm-11.26-8.47c0-3.39-1.69-5.1-5.07-5.1h-.92c-3.42 0-5.11 1.72-5.11 5.1V4.38c0 3.38 1.69 5.1 5.11 5.1h.92c3.37 0 5.07-1.72 5.07-5.1zM-23.95 6.31h-2.29v-19.63h-3.17V6.31h-1.52v2.93h1.52v3.74h3.17V9.24h2.29zm-8.93-19.63h-3.14v1.42c-.89-.84-2.06-1.68-3.9-1.68-2.56 0-3.73 1.47-3.73 3.98v4.13c0 2.8.92 3.93 3.34 4.77l4.28 1.45V4.5c0 1.34-.68 2.06-2.02 2.06h-.25c-1.34 0-2.02-.72-2.02-2.06V1.71h-3.1v2.67c0 3.38 1.71 5.1 5.11 5.1h.32c3.36 0 5.08-1.72 5.08-5.1v-17.69zM-46.2-9.11c0-2.68-1.32-4.47-4.02-4.47-1.85 0-3.16.89-3.91 1.63v-5.96h-3.17V9.23h3.17V7.75c.75.79 2.06 1.72 3.91 1.72 2.69 0 4.02-1.81 4.02-4.47zm-14.06 20.62h-3.33v3.56h3.33zm-.05-24.83h-3.19V9.23h3.19zm-5.87-74.96v-.78c-44.74-.46-80.97-36.68-81.42-81.46h-1.68c-.43 44.78-36.62 81-81.42 81.46v1.71c44.92.26 81.29 36.47 81.79 81.32.15.02.34.02.48.02.29 0 .57-.02.83-.02.51-44.7 36.7-80.86 81.42-81.31v-.95zm-170.01 5.63h-.83c-.43 44.78-36.63 81.01-81.42 81.46V.54c44.9.23 81.29 36.48 81.77 81.32h1.36c.49-44.71 36.65-80.86 81.4-81.32v-1.73c-44.8-.45-80.98-36.68-81.4-81.46zM-130.14.04v-13.35h-3.31V15.9h3.31V3.17h5.45V15.9h3.33v-29.21h-3.33V.04Zm15.65-13.61c-2.66 0-3.86 1.51-3.86 4.06V9.25h3.19V-8.84c0-1.17.51-1.71 1.62-1.71 1 0 1.91.33 3.06 1.14V9.25h3.17V-13.3h-3.17v1.45c-.95-.88-2.14-1.72-4-1.72zm13.52 0c-2.56 0-3.76 1.47-3.76 3.98v4.13c0 2.8.92 3.93 3.39 4.77l4.23 1.45v3.75c0 1.34-.66 2.06-2 2.06h-.25c-1.32 0-1.99-.72-1.99-2.06V1.72h-3.13v2.67c0 3.38 1.74 5.1 5.11 5.1h.32c3.39 0 5.11-1.72 5.11-5.1V-13.3h-3.19v1.42c-.88-.84-2.03-1.68-3.86-1.68zm15.51 20.09h-.59c-1.35 0-2-.68-2-2.02V-8.59c0-1.34.65-2.02 2-2.02h.63c1.32 0 2.03.68 2.03 2.02v4.46h3.1v-4.33c0-3.39-1.72-5.1-5.11-5.1h-.72c-3.39 0-5.11 1.72-5.11 5.1V4.39c0 3.38 1.73 5.1 5.11 5.1h.79c3.33 0 5-1.68 5-5.02V.8h-3.13v3.71c0 1.34-.66 2.02-2 2.02zm14.17-.06c-1.02 0-1.96-.32-3.06-1.1V-13.3h-3.17v29.64h3.17V7.78c.92.89 2.09 1.72 4 1.72 2.62 0 3.85-1.5 3.85-4.06v-18.73h-3.17V4.78c0 1.17-.52 1.69-1.62 1.69zM-230.7 87.38v.93c44.89.25 81.28 36.48 81.8 81.33h1.31c.51-44.72 36.68-80.86 81.4-81.32v-1.73c-44.77-.45-80.97-36.67-81.4-81.45h-1.71c-.42 44.78-36.63 81.01-81.4 81.45zM8.23 10.73c0 3.64 1.8 5.45 5.44 5.45h1.06c3.59 0 5.36-1.77 5.36-5.36V5.57h-3.26v5.34c0 1.5-.72 2.21-2.2 2.21h-.86c-1.48 0-2.19-.71-2.19-2.21v-19.2c0-1.5.71-2.22 2.19-2.22h.94c1.51 0 2.2.72 2.2 2.22v6.21h3.26v-6.05c0-3.63-1.8-5.43-5.44-5.43h-1.06c-3.63 0-5.44 1.79-5.44 5.43zM31.48-.4c0 99.05-80.28 179.35-179.34 179.35S-327.18 98.65-327.18-.4s80.26-179.35 179.32-179.35S31.48-99.46 31.48-.4" clip-path="url(#k)" style="fill:#fff;fill-opacity:1;fill-rule:nonzero;stroke:none" transform="matrix(1.33333 0 0 -1.33333 568.507 601.653)"/><path d="M0 0h1.71c.43 44.78 36.63 81.01 81.4 81.45v1.73c-44.72.46-80.89 36.61-81.4 81.32H.4c-.52-44.85-36.91-81.08-81.8-81.33v-1.73C-36.63 80.99-.42 44.77 0-.01Z" clip-path="url(#l)" style="fill:#ffe300;fill-opacity:1;fill-rule:nonzero;stroke:none" transform="matrix(1.33333 0 0 -1.33333 369.427 594.813)"/><path d="M0 0c-.26 0-.54.02-.83.02-.14 0-.32 0-.48-.02-.49-44.85-36.87-81.06-81.79-81.32v-1.71c44.8-.46 80.98-36.68 81.42-81.46H0c.45 44.78 36.68 81 81.42 81.46v1.73C36.7-80.85.51-44.7 0 .01Z" clip-path="url(#m)" style="fill:#0084ca;fill-opacity:1;fill-rule:nonzero;stroke:none" transform="matrix(1.33333 0 0 -1.33333 371.707 609.667)"/><path d="M0 0v1.73c-44.75.45-80.91 36.6-81.4 81.32h-1.36c-.48-44.84-36.87-81.08-81.77-81.32V0c44.78-.45 80.98-36.68 81.42-81.46h1.71C-80.98-36.68-44.8-.45 0 0" clip-path="url(#n)" style="fill:#de0021;fill-opacity:1;fill-rule:nonzero;stroke:none" transform="matrix(1.33333 0 0 -1.33333 363.293 603.213)"/><path d="M0 0c22.91 31.35 36.45 69.98 36.45 111.78S22.91 192.21 0 223.56v138.1c19.69 3.83 39.97 8.28 61.1 13.28V-17.64C45.56-49.23 25.61-80.4 0-111.11V.01Zm-153.21-67.58c-99.06 0-179.32 80.29-179.32 179.35s80.26 179.35 179.32 179.35 179.34-80.3 179.34-179.35S-54.15-67.58-153.21-67.58m91.87-106.31c-18.45-16.32-38.82-32.49-61.32-48.53V-75.4a188.3 188.3 0 0 1 61.32 21.25zM-245.25-54.05a188.3 188.3 0 0 1 61.3-21.31v-147.77c-22.5 16.07-42.86 32.28-61.3 48.63zm-122.43 429.01c21.15-4.91 41.44-9.28 61.1-13.06V223.31c-22.8-31.3-36.27-69.84-36.27-111.53S-329.39 31.55-306.58.25v-111.82c-25.62 30.82-45.56 62.09-61.1 93.79zm245.03-28.83c20.29.92 40.61 2.78 61.32 5.47v-73.9a188.2 188.2 0 0 1-61.32 21.24zm-122.59 5.73c20.79-2.73 41.11-4.64 61.3-5.62v-47.33a188.1 188.1 0 0 1-61.3-21.31zm364.94 44.52c-227.57-59.14-314.5-59.14-547.18 0l-4.24 1.08.12-4.38c.63-23.29.9-46.71 1.15-69.37 2.29-204.71 4.46-398.06 274.77-574.12l1.8-1.17 1.81 1.17C121.06-73.43 122.09 121.06 123.18 326.96c.11 21.61.23 43.95.67 66.15l.09 4.37-4.23-1.1z" clip-path="url(#o)" style="fill:#000;fill-opacity:1;fill-rule:nonzero;stroke:none" transform="matrix(1.33333 0 0 -1.33333 575.627 751.227)"/><path d="M0 0v29.21h-3.32V16.48h-5.46v12.73h-3.31V0h3.31v13.35h5.46V0Z" clip-path="url(#p)" style="fill:#000;fill-opacity:1;fill-rule:nonzero;stroke:none" transform="matrix(1.33333 0 0 -1.33333 406.693 619.387)"/><path d="M0 0v22.55h-3.17V3.89c-1.16-.81-2.06-1.14-3.06-1.14-1.11 0-1.62.54-1.62 1.71v18.09h-3.19V3.79c0-2.55 1.2-4.06 3.86-4.06 1.86 0 3.05.84 4 1.72V0h3.17z" clip-path="url(#q)" style="fill:#000;fill-opacity:1;fill-rule:nonzero;stroke:none" transform="matrix(1.33333 0 0 -1.33333 425.427 619.387)"/><path d="M0 0c-.99 0-1.57.54-1.57 1.63v3.42c0 1.3.4 1.88 1.57 2.33l2.88 1.01V1.04C1.85.32.96-.01 0-.01Zm6.07-2.75v17.69c0 3.38-1.73 5.1-5.11 5.1H.64c-3.37 0-5.11-1.72-5.11-5.1v-2.67h3.13v2.79c0 1.34.66 2.06 1.99 2.06H.9c1.34 0 2-.72 2-2.06v-3.75l-4.23-1.45c-2.46-.84-3.39-1.96-3.39-4.77V.96c0-2.51 1.2-3.98 3.76-3.98 1.83 0 2.99.84 3.86 1.68v-1.42h3.19z" clip-path="url(#r)" style="fill:#000;fill-opacity:1;fill-rule:nonzero;stroke:none" transform="matrix(1.33333 0 0 -1.33333 435.187 615.72)"/><path d="M0 0v3.67c0 3.34-1.68 5.02-5 5.02h-.79c-3.39 0-5.11-1.72-5.11-5.1V-9.26c0-3.39 1.73-5.1 5.11-5.1h.72c3.39 0 5.11 1.72 5.11 5.1v4.33h-3.1v-4.46c0-1.34-.71-2.02-2.03-2.02h-.63c-1.35 0-2 .68-2 2.02V3.7c0 1.34.65 2.02 2 2.02h.59c1.34 0 2-.68 2-2.02V-.01H0Z" clip-path="url(#s)" style="fill:#000;fill-opacity:1;fill-rule:nonzero;stroke:none" transform="matrix(1.33333 0 0 -1.33333 461.4 600.587)"/><path d="M0 0v18.73c0 2.56-1.23 4.06-3.85 4.06-1.91 0-3.08-.83-4-1.72v8.56h-3.17V-.01h3.17v18.66c1.11.78 2.05 1.1 3.06 1.1 1.09 0 1.62-.52 1.62-1.69V-.01H0Z" clip-path="url(#t)" style="fill:#000;fill-opacity:1;fill-rule:nonzero;stroke:none" transform="matrix(1.33333 0 0 -1.33333 479.827 619.387)"/><path d="M362.88 373.01h3.19v-22.55h-3.19z" clip-path="url(#u)" style="fill:#000;fill-opacity:1;fill-rule:nonzero;stroke:none" transform="matrix(1.33333 0 0 -1.33333 0 1086.667)"/><path d="M362.78 378.85h3.33v-3.56h-3.33z" clip-path="url(#v)" style="fill:#000;fill-opacity:1;fill-rule:nonzero;stroke:none" transform="matrix(1.33333 0 0 -1.33333 0 1086.667)"/><path d="M0 0c0-1.29-.68-1.83-1.82-1.83-1.05 0-2.05.42-2.94 1.17v14.69c.89.75 1.89 1.16 2.94 1.16 1.14 0 1.82-.52 1.82-1.82zm-.85 18.21c-1.85 0-3.16-.92-3.91-1.72v1.48h-3.17V-9.17h3.17v5.96c.75-.75 2.06-1.63 3.91-1.63 2.69 0 4.02 1.79 4.02 4.47v14.11c0 2.66-1.32 4.47-4.02 4.47" clip-path="url(#w)" style="fill:#000;fill-opacity:1;fill-rule:nonzero;stroke:none" transform="matrix(1.33333 0 0 -1.33333 502.667 613.28)"/><path d="M0 0c-1.06-.72-1.94-1.05-2.9-1.05S-4.46-.51-4.46.58V4c0 1.3.39 1.88 1.56 2.33L0 7.34V-.01zm-1.94 19h-.32c-3.4 0-5.11-1.72-5.11-5.1v-2.67h3.1v2.79c0 1.34.68 2.06 2.02 2.06H-2c1.34 0 2.02-.72 2.02-2.06v-3.75l-4.28-1.45C-6.68 7.98-7.6 6.86-7.6 4.05V-.08c0-2.51 1.17-3.98 3.73-3.98 1.83 0 3 .84 3.9 1.68V-3.8h3.14v17.69c0 3.38-1.72 5.1-5.08 5.1z" clip-path="url(#x)" style="fill:#000;fill-opacity:1;fill-rule:nonzero;stroke:none" transform="matrix(1.33333 0 0 -1.33333 520.467 614.333)"/><path d="M0 0h-3.17v-3.75H-4.7v-2.92h1.53V-26.3H0v19.63h2.29v2.92H0z" clip-path="url(#y)" style="fill:#000;fill-opacity:1;fill-rule:nonzero;stroke:none" transform="matrix(1.33333 0 0 -1.33333 533.507 584.32)"/><path d="M0 0c0-1.34-.69-2.02-2.02-2.02h-.74c-1.36 0-1.99.68-1.99 2.02v13.09c0 1.34.63 2.02 1.99 2.02h.74c1.32 0 2.02-.68 2.02-2.02Zm-1.91 18.07h-.92c-3.42 0-5.11-1.72-5.11-5.1V.12c0-3.39 1.69-5.1 5.11-5.1h.92c3.37 0 5.07 1.72 5.07 5.1v12.85c0 3.38-1.69 5.1-5.07 5.1" clip-path="url(#z)" style="fill:#000;fill-opacity:1;fill-rule:nonzero;stroke:none" transform="matrix(1.33333 0 0 -1.33333 549.267 613.093)"/><path d="M0 0v3.05h-5.45v9.77H.22v3.08h-8.98v-29.21h3.31V0z" clip-path="url(#A)" style="fill:#000;fill-opacity:1;fill-rule:nonzero;stroke:none" transform="matrix(1.33333 0 0 -1.33333 575.76 601.64)"/><path d="M0 0h1.06C4.69 0 6.5 1.79 6.5 5.43v6.05H3.24V5.27c0-1.5-.69-2.22-2.2-2.22H.1c-1.48 0-2.19.72-2.19 2.22v19.2c0 1.5.71 2.21 2.19 2.21h.86c1.48 0 2.2-.71 2.2-2.21v-5.34h3.26v5.25c0 3.59-1.77 5.36-5.36 5.36H0c-3.63 0-5.44-1.81-5.44-5.45V5.43C-5.44 1.8-3.64 0 0 0" clip-path="url(#B)" style="fill:#000;fill-opacity:1;fill-rule:nonzero;stroke:none" transform="matrix(1.33333 0 0 -1.33333 586.72 619.733)"/></svg>