<svg xmlns="http://www.w3.org/2000/svg" id="Layer_1" data-name="Layer 1" viewBox="85.27 0 629.44 800"><defs><clipPath id="clip-path"><path d="M85.29 0h629.42v800H85.29z" class="cls-1"/></clipPath><clipPath id="clip-path-2"><path d="M85.29.01h629.42V800H85.29z" class="cls-1"/></clipPath><style>.cls-1{fill:none}.cls-4{fill:#ffce00}.cls-5{fill:#004987}.cls-6{fill:#15284b}.cls-7{fill:#edaa00}.cls-8{fill:#dadbe1}.cls-9{fill:#fff}</style></defs><g style="clip-path:url(#clip-path)"><g id="LA-Logo" style="clip-path:url(#clip-path-2)"><path d="M400 800C207 699.16 87.26 424.75 85.29 197.11 151 182 281.61 155 400 0c118.39 155 249 182 314.71 197.12C712.71 424.75 593 699.12 400 800" class="cls-4"/><path d="M126.18 227.2c4.84 99.57 33 207.83 79.13 301 50.14 101.25 118.88 180 194.69 224.6 75.79-44.56 144.54-123.35 194.67-224.6 46.14-93.2 74.33-201.44 79.13-301-64.92-15.9-172.67-50.43-273.8-166.83C298.88 176.77 191.11 211.3 126.18 227.2" class="cls-5"/><path d="M146.15 241.21c6.15 93.9 32.59 192.32 75.3 278.57C267.38 612.53 330.59 686.55 400 729.65c69.4-43.11 132.6-117.12 178.55-209.87 42.68-86.25 69.14-184.69 75.3-278.57-67.77-17.71-162.77-54-253.85-153.62-91.12 99.63-186.12 135.91-253.85 153.62" class="cls-6"/><path d="M391.11 43.16 400 32.92V0C281.6 155 151 182 85.27 197.11l21.9 16.1 7.44-1.81c68.7-16.82 184.94-55.18 276.48-168.23M714.35 197l-22.47 16.09-.36 7.89c-.39 102.57-35.6 224.08-82.45 318.66C558.44 641.87 483.88 723.89 406 769.68l-6 3.51V800c193-100.84 312.72-375.25 314.7-602.89a2.4 2.4 0 0 0-.36-.1" class="cls-7"/><path d="M371.51 485.41H268.88a25.51 25.51 0 0 1-25.35-25.36V307.54h38v142.3h90Z" class="cls-8"/><path d="M250.46 312v143.73a16.79 16.79 0 0 0 16.59 16.62h93.83v-18.06h-90V312Z" class="cls-9"/><path d="M388.56 485.47h38.92l15.23-38.91h59L489 414h-33.27l23.75-60.28 50.74 131.72h40.36S510.4 337.09 508.1 330.86c-4.73-12.8-12.15-23.26-28.64-23.26h-.34c-16.47 0-23.32 10.37-28 23.18Z" class="cls-8"/><path d="M399.4 472.41h19.68c3.13-8 15.22-39 15.22-39h55.89c-2.72-7-4.21-10.81-5.84-15h-44.2l37.27-95.31 43.78 112.36c.07.15 9.41 25.49 13.6 36.93h21.43C547.88 451.9 503.8 342 499.08 330.48s-10.2-17.37-19.2-17.37h-.44c-13.21-.23-17.94 5.76-22.64 17.34 0 0-50.8 125.67-57.38 142" class="cls-9"/><path d="M589.17 548c-57.12-11-121.36-17.15-189.29-17.15-71.06 0-138 6.72-197.07 18.64-25.15 5.06-47.71 10.08-63 15C154.33 587.18 171 613.55 185 635c14-3.47 28.85-6.74 44.15-9.83 51.09-10.25 109.16-16.09 170.76-16.09 58.89 0 114.58 5.33 164.06 14.81 18.14 3.49 35.31 7 51.18 10.58 14.56-22.21 30.65-47.56 45.16-69.69-16.75-5.09-41.74-11.2-71.08-16.82" class="cls-4"/><path d="M217.5 578.79c0 6.83 2.54 11.55 7.54 14s9.69 2.09 15.33 1.32l23.24-3v-22.9l-20.89 2.46v7.91c5.53-.46 6.57-.51 9-.86V584l-11.37 1.45c-5.61.75-9.36-.46-9.36-8.76 0-9.61 4.49-11.53 9.36-12.18l23.24-3V553l-23.24 3c-15.36 2.06-22.87 9.51-22.87 22.75m86.85-30-20.45 39.78 13.26-1.11s2-4.42 2.63-5.87l20.75-1.73c.67 1.34 2.77 5.43 2.77 5.43l13.71-1.17-20.66-36.34Zm-.55 23.16 6.22-13.39c1.7 3.26 5.14 9.92 6.41 12.33Zm64.8.82c-1.19-1-1.29-2.94-1.29-5.72v-22.14l-12.38.55v22.43c0 5.06.7 8.4 4.5 11.35 4.52 3.59 9.52 3.65 16.1 3.33l13.49-.6v-8.19l-12.69.6c-4.19.2-6.2-.23-7.73-1.6m57.08-27.86-20.52 37.45 13.31.42 2.74-5.76 20.5.62c.65 1.39 2.84 6 2.84 6l13.8.44-20.65-38.74Zm-.6 23c1.22-2.48 4.63-9.38 6.28-12.67 1.7 3.43 5.25 10.54 6.51 13.13Zm94.27-16.68-14.45-1.2s-6.77 7.62-8.58 9.67c-1.81-2.38-8.64-11.16-8.64-11.16L473 547.29s15.38 19.13 16.41 20.37c-1 1.13-17 17.65-17 17.65l14.86 1.24s7.47-8.48 9.38-10.68c1.79 2.51 8.79 12.25 8.79 12.25l14.94 1.29-16.68-21c1-1.06 15.61-17.21 15.61-17.21m53.25 7.44s-8.68 9.27-10.68 11.3c-1.89-2.61-10.42-14.25-10.42-14.25l-14.27-2 18.69 24.12v16.55l12.41 1.76v-16.54c.51-.49 18.87-18.84 18.87-18.84Z" class="cls-6"/><path d="M634.44 572.66c-12.28 19.38-29.37 43-29.37 43-15.14-3-31.54-5.89-48.8-8.79-47.24-8-100.39-12.37-156.51-12.37-58.71 0-114.1 4.84-162.89 13.42-14.58 2.58-28.72 5.32-42.1 8.2L184.88 635c10.62-2.63 27.27-6.25 33-7.54.1 0 12.31 18.36 12.57 18 .39-.59 8.71-8.89 13.78-13.39A199 199 0 0 1 260 619.61c43.29-5.9 90.34-10.57 139.79-10.57 58.89 0 114.59 5.32 164.06 14.83 24.37 4.66 42 8.61 51.73 10.85 14.66-22.51 29.32-46.3 44.61-69.82Z" class="cls-7"/><path d="M399.05 120.75a121.43 121.43 0 0 1-120.27 121.52 1.23 1.23 0 0 0 0 2.45A121.16 121.16 0 0 1 398.93 366a1.27 1.27 0 0 0 .55 1 1.21 1.21 0 0 0 1.19.07l.28-.13a1.27 1.27 0 0 0 .7-1.11A121.31 121.31 0 0 1 522 244.46a1.2 1.2 0 0 0 1.22-1.18A1.21 1.21 0 0 0 522 242a121.37 121.37 0 0 1-120.5-121.2 1.23 1.23 0 1 0-2.45 0" class="cls-5"/><path d="M400 162.12a.4.4 0 0 1 .38.42 87.9 87.9 0 0 0 79.75 80.85.4.4 0 0 1 .42.39c0 .24-.28.36-.46.36a87.86 87.86 0 0 0-79.77 80.5c0 .11-.08.39-.33.39s-.33-.28-.34-.39a87.85 87.85 0 0 0-79.75-80.5c-.18 0-.47-.11-.47-.36s.21-.34.42-.39a87.9 87.9 0 0 0 79.75-80.85.39.39 0 0 1 .39-.42" class="cls-4"/><path d="M400 162.12c-.18 0-.36.13-.39.42a87.89 87.89 0 0 1-79.77 80.85.4.4 0 0 0-.42.39H400ZM400 325c.24 0 .31-.28.33-.39a87.86 87.86 0 0 1 79.77-80.5c.18 0 .46-.11.46-.36H400Z" class="cls-7"/><path d="M453.59 243.49c-29.37-.26-53.27-23.91-53.27-52.73a.29.29 0 0 0-.23-.34.29.29 0 0 0-.34.23.2.2 0 0 0 0 .11 53 53 0 0 1-52.63 52.94.3.3 0 0 0-.29.29.28.28 0 0 0 .29.26 53.46 53.46 0 0 1 52.68 53.32.25.25 0 0 0 .24.26.27.27 0 0 0 .29-.25 53.77 53.77 0 0 1 53.23-53.51.3.3 0 0 0 .28-.28.29.29 0 0 0-.28-.29" class="cls-9"/></g></g></svg>