<svg xmlns="http://www.w3.org/2000/svg" viewBox="1.5 1.5 198.75 264.37"><path fill="#1d4278" d="M1.5 1.5h198.75v164.995c0 54.706-44.67 99.372-99.375 99.372-54.706 0-99.375-44.666-99.375-99.372zm0 0"/><path fill="#fff" d="M5.501 5.536v160.959c0 52.522 42.848 95.37 95.374 95.37s95.374-42.848 95.374-95.37V5.536zm0 0"/><path fill="#1d4278" d="M126.882 48.569c-16.476 0-31.353 6.69-42.158 17.496-10.838 10.837-17.531 25.752-17.531 42.193 0 32.884 26.808 59.692 59.689 59.692s59.69-26.808 59.69-59.692c0-16.44-6.694-31.356-17.494-42.193-10.84-10.806-25.755-17.496-42.196-17.496"/><path fill="#fff" d="M97.493 156.344c-2.294-1.418-4.512-2.981-6.585-4.726v-38.45H83.56v31.137a56.3 56.3 0 0 1-6.582-9.82V82.031a56.3 56.3 0 0 1 6.582-9.82v34.336h7.348V64.863a59.5 59.5 0 0 1 6.585-4.69zM118.99 153.582c0 1.452-.146 3.747-3.893 3.2-.11 0-.216-.038-.327-.038-.544-.108-1.093-.327-1.637-.47-1.926-.509-2.546-1.93-2.546-4.148v-75.44c0-2.218.62-3.639 2.546-4.183.544-.146 1.093-.327 1.637-.438.111-.035.216-.035.327-.073 3.747-.544 3.893 1.748 3.893 3.2zm-.146-88.865c-1.382.181-2.73.439-4.074.728a69 69 0 0 0-4.73 1.236c-5.491 1.71-6.038 5.676-6.038 9.458v76.496c0 3.782.547 7.748 6.039 9.458 1.566.473 3.13.909 4.729 1.236 1.344.328 2.692.547 4.074.763 2.584.327 6.729-.8 6.729-6.62v-86.17c0-5.82-4.145-6.947-6.729-6.585M125.573 58.316c-2.257.038-4.437.254-6.585.582v-6.512c2.148-.29 4.328-.47 6.585-.509zM111.859 60.608c-2.508.836-4.726 1.745-6.582 2.472V56.28c2.18-.836 4.144-1.71 6.582-2.218zM170.35 128.519c0 2.51-.216 4.983-1.926 7.383a92 92 0 0 1-1.31 1.89c-1.055 1.383-2.11 2.73-3.273 4.002v-67.11a57 57 0 0 1 3.273 4.04c.544.762 1.09 1.525 1.6 2.29 1.42 2.108 1.636 3.31 1.636 6.036zm6.585-1.017V86.907c0-3.238-.439-5.638-1.964-8.076a60 60 0 0 0-7.857-10.002 56.3 56.3 0 0 0-9.858-8.04v94.938a58 58 0 0 0 9.858-8.003 61 61 0 0 0 6.436-7.856c2.549-3.747 3.385-6.985 3.42-11.022v-.473c0-.29 0-.582-.035-.871M145.468 150.416c0 3.2-.69 4.545-3.127 5.346-.146.038-.255.073-.4.111-1.164.363-2.327.69-3.529.982v-97.23c1.24.328 2.365.617 3.528 1.018.184.038.366.11.512.184 1.964.655 2.946 2.654 3.016 4.255zm.111-95.373c-1.201-.4-2.402-.801-3.639-1.129a58 58 0 0 0-10.11-1.853V164.42a55 55 0 0 0 10.11-1.818c1.348-.362 2.695-.8 3.966-1.27 4.803-1.71 6.147-4.26 6.147-9.968V65.156c0-4.838-1.818-8.477-6.474-10.113"/><path fill="#1d4278" d="M127.21 176.423c-.983 1.31-1.526 2.947-2.181 4.694l1.271 1.672 9.494-4.04-3.856-4.328zM82.178 39.692c.909 0 1.637.512 1.637 1.274 0 .728-.728 1.237-1.637 1.237-.91 0-1.672-.509-1.672-1.237 0-.762.763-1.274 1.672-1.274M41.075 149.654a112 112 0 0 0 6.658-2.33c.909-.327 1.856-.69 2.765-1.055 1.417-.582 2.8-1.163 4.182-1.783 1.128-.547 2.254-1.052 3.382-1.599 1.166-.581 2.33-1.166 3.42-1.783a69 69 0 0 0 5.13-3.057 50 50 0 0 0 3.38-2.438c-1.309-2.762-2.472-5.635-3.38-8.58a35 35 0 0 1-.512-1.784l-24.987 9.894-.038-.035-14.15-14.369v-28.99l14.477-10.73 23.534 15.023c.439-2.219 1.02-4.402 1.675-6.55 3.054-9.82 8.473-18.586 15.567-25.715q.055-.053.111-.111c2.326-2.362 4.872-4.51 7.53-6.474l5.526-8.839.22-11.276-17.497-22.806-11.75-.146L53.518 26.16v28.736l15.166.655.4-21.751 18.333.8L91.2 46.278c.289.798.543 1.637-1.094 2.146-1.636.546-1.89-.293-2.145-1.09l-3.092-9.386-12.405-.581-.397 21.786-27.974-1.055.038 6.076 15.459 8.912c.762.398 1.49.836.654 2.327-.8 1.382-1.49 1.128-2.183.727-.073-.038-.108-.073-.181-.073l-15.313-8.8-24.3 20.369 3.893 48.086 11.423 16.113c1.999-.509 4-1.09 6.073-1.71.474-.181.944-.327 1.418-.47M38.602 204.506h5.746L36.93 191.52c.143 3.674.544 7.637 1.31 11.31.108.582.254 1.129.362 1.676M34.893 203.524c-1.128-5.53-1.529-11.569-1.42-16.587l-8.985-5.057c-1.125-.62-2.146-.944-2.981-.944-.62-.038-1.129.108-1.53.363-.435.254-.835.69-1.162 1.236-.582 1.017-.91 2.473-.947 4.294-.108 4.071 2.11 11.238 4.366 18.62.509 1.71 1.017 3.385 1.128 3.64.436 1.49 1.09 3.744 2.292 5.819 1.163 1.964 2.873 3.855 5.565 4.837.473.184 1.236.184 2.183.035 1.49-.216 3.236-.763 4.691-1.49h-.038c.801-.4 1.456-.836 1.894-1.237.144-.108.255-.254.363-.362-.108-.184-.255-.328-.363-.474-2.437-3.165-4.074-7.748-5.056-12.693M67.701 191.008a124 124 0 0 0-7.348 5.276c-1.417 1.128-2.765 2.218-4 3.346 1.382 2.292 2.729 4.765 4 7.237.439.874.836 1.71 1.237 2.584 1.856 3.928 3.42 7.821 4.548 11.276 1.055 3.312 1.563 6 1.636 8.695.073 1.707-.035 3.382-.219 5.238 2.037.91 4.656 1.453 7.275 1.707 4.294.438 8.441-.035 10.148-1.418l7.932-6.438.07-52.015c-9.347 4.838-17.93 9.605-25.279 14.512M53.771 201.995c-.839.8-1.64 1.637-2.437 2.51l3.855-.037c-.474-.836-.947-1.672-1.418-2.473M62.864 221.782c-.146-.435-.254-.836-.4-1.271l-9.131.798.546 2.437 10.403 8.839c.073-1.055.11-2.037.073-3.02-.108-2.437-.547-4.802-1.49-7.783M39.584 207.96c.108.328.22.693.365 1.017.871 2.365 1.964 4.402 3.309 5.858l.035-.035 4.22 3.563 1.564-.147-2.072-10.256zM61.227 217.164c-.292-.692-.581-1.382-.874-2.11a131 131 0 0 0-1.856-4.147 68 68 0 0 0-1.417-2.874h-6.547l1.999 9.894 7.821-.69zM54.68 157.29c.181-.107.363-.18.544-.253l-.544-.91-3.712-6.365c-1.09.435-2.145.836-3.235 1.236-.22.073-.439.146-.655.254l.655 1.164 3.563 6.33c1.166-.473 2.291-.982 3.384-1.455M148.344 195.448c.143-.582.292-1.166.436-1.672l-.436-.511-1.382-1.71-1.748.727-2.365.947-4.983 2.073-.363.146.363.4 4.983 5.638 1.675 1.891.69-.4 1.601-.874c.363-2 .983-4.472 1.53-6.655M126.917 199.923l7.678 8.8 6.837-3.674-7.237-8.184zM138.74 177.44l9.604-4.144 9.748-4.185.035.076 7.602-4.221-3.928-4.147c-4.183 2.765-8.658 5.056-13.457 6.8-1.02.366-2.075.732-3.13 1.056-.763.22-1.564.436-2.365.655a1 1 0 0 1-.324.073l-7.675 3.53zM144.597 188.828l-6.33-7.24-9.564 3.893 6.4 7.237.22-.073zM141.397 216.217c.473-.292 3.054-1.856 3.82-2.364.146-.108.324-.22.47-.293 0-.108.035-.216.035-.289.111-1.02.22-2.037.33-3.02l-2.29-2.583-6.767 3.639zM43.767 152.38c-.871.293-1.783.582-2.692.874-.182.074-.363.109-.544.182l.544.944 3.858 6.804a66 66 0 0 0 2.8-1.055c.108-.038.254-.073.362-.108l-.362-.62zM155.58 173.916l-14.476 6.254 6.328 7.237 3.893-1.672a161 161 0 0 1 4.256-11.82M131.865 210.179l-7.891-8.874-.292.108c.254 1.345.581 2.692.982 4.075.654 2.291 1.528 4.69 2.618 7.163l.293-.18zM131.795 194.174l-6.404-7.237-2.148.8c-.397 3.31-.544 6.875-.143 10.184zM137.43 218.436c.147-.073.293-.147.439-.255.29-.146.581-.292.87-.473l-4.4-4.984-5.563 2.985c.181.435.435.836.652 1.271.62 1.163 1.31 2.33 2.075 3.493.108.219.216.438.292.655a47 47 0 0 0 3.528-1.602c.69-.363 1.38-.728 2.107-1.09M142.85 222.946a92 92 0 0 0-1.418-2.8q-1.2.708-2.4 1.309c-.4.22-.766.438-1.163.62-.874.435-1.71.87-2.549 1.236-1.125.543-2.18.982-3.127 1.38-.035.51-.035 1.055-.073 1.601-.073 1.456-.144 3.057-.035 4.329.18 1.71.654 2.475 1.382 2.657.509.108 1.128.073 1.853-.038.766-.109 1.602-.328 2.549-.617.18-.038.362-.111.543-.146 1.348-.4 2.838-.944 4.437-1.529.766-.29 1.567-.62 2.365-.944.11-.038.219-.111.33-.146-.111-.327-.22-.655-.33-1.02a56 56 0 0 0-2.365-5.893M164.35 214.762c-.512-.217-1.237-.29-2.295-.255-1.815.073-4.218.617-6.474 1.129-2.8.654-5.492 1.271-7.237 1.055-.108-.038-.22-.038-.327-.073-.181-.038-.363-.073-.547-.147-.728.474-1.493.983-2.253 1.456-.255.146-.547.327-.84.509.293.473.585 1.017.84 1.563a53 53 0 0 1 3.127 7.421c.146.363.254.728.363 1.093 1.309-.584 2.583-1.166 3.858-1.747 5.31-2.546 9.71-4.946 10.256-5.674.982-1.309 1.818-2.803 2.145-4.112.146-.617.22-1.198.073-1.599-.073-.257-.292-.473-.69-.62"/><path fill="#1d4278" d="m127.572 172.46 1.856-.836.692-.33c-.219.038-.473.038-.692.038-.617.035-1.237.035-1.856.073h-.69c-17.46 0-33.282-7.167-44.704-18.662a57 57 0 0 1-4.618-5.2c-2.584 2.365-6.731 4.984-10.949 7.418q-1.639.931-3.273 1.856l-1.856.982c-1.129.582-2.257 1.166-3.42 1.71q-1.691.767-3.382 1.529c-.947.4-1.929.836-2.91 1.201a191 191 0 0 1-4.037 1.564c-2.219.8-4.44 1.563-6.658 2.253-.4.111-.763.254-1.164.366l-2.256 19.495 10.04 17.533.038-.038c2.037-2.364 4.363-4.656 6.947-6.91 1.09-.908 2.219-1.855 3.382-2.764 1.093-.874 2.256-1.71 3.42-2.584 1.417-1.017 2.838-1.999 4.328-2.981.255-.181.547-.365.801-.547 4.764-3.127 10.002-6.22 15.567-9.274 3.747-2.075 7.675-4.11 11.75-6.184l2.472-1.275v5.603c5.276-1.344 9.859-2.33 14.33-2.91 4.914-.617 9.64-.728 14.843-.182zM66.611 150.89c3.347-1.967 6.366-3.639 8.766-5.966-1.202-1.674-2.765-4.44-3.783-6.22a60 60 0 0 1-4.983 3.382c-1.637 1.018-3.347 1.965-5.13 2.909-.146.076-.289.146-.435.219l.436.766 3.42 5.962c.58-.362 1.127-.725 1.71-1.052M58.316 155.546c1.093-.512 2.146-1.093 3.166-1.637.146-.073.292-.184.435-.254l-.435-.766-3.42-6.038-.073-.109c-1.09.509-2.18.982-3.309 1.491-.181.073-.365.146-.508.22l.508.908 3.382 5.746zM53.043 114.405l12.077 6.985a62.2 62.2 0 0 1-1.385-13.132c0-2.873.22-5.746.585-8.511l-22.807-14.55-11.168 8.257v25.718L41.95 131.1l19.533-7.746.146-.038-.146-.073-10.148-5.892c-2.8-1.599-1.09-4.583 1.71-2.946M39.657 162.929c.474-.146.947-.328 1.418-.474.184-.035.365-.108.546-.18l-.546-.948-1.418-2.508-2.51-4.401c-.51.146-1.018.292-1.491.4v.035l3.42 8.222c.219-.038.4-.108.581-.146"/></svg>