<svg xmlns="http://www.w3.org/2000/svg" xml:space="preserve" id="Layer_1" x="0" y="0" version="1.1" viewBox="-0.21 0.02 281.18 274.48"><style>.st1{fill:#1a3e74}.st2{fill:#b1b5b6}</style><path id="Layer_2_copy" d="M280.9 150.1c-.3-1.7-4.4-9.2-7.6-12.7-1.4-1.5-3-2.9-4.7-4.1 2.4-2.6 4-6.7 5.4-12.1 3.1-12.2 4.3-14.5 3.3-20-.5-3.2-6.1-12.7-17.3-13.2.6-2.5.9-5.2.9-7.8 0-4.5-3.8-8.3-5.6-9.9l5.6-3.8c.8-.6 1-1.7.5-2.5-13.7-20.3-32.3-36.9-54.1-48-42-21.3-91.6-21.3-133.6 0-21.9 11.2-40.5 27.7-54.1 48-.6.8-.4 2 .4 2.5l3.6 2.5c-1.1 1.1-2.2 2.4-3.5 4.1-7.1 8.8-6.9 8.6-7.5 14.6l.4 3.6v.1l.9 2.6c.1.2.2 1.1-1.1 5.6-.7 2.3-1.1 4.7-1.3 7.1l-5.7.8c-.1 0-.3.1-.4.2q-4.95 5.7-5.4 18c0 2.2 0 4.3.3 6.5.1.4.5 1.5 3.1 6.2l3.3 5.9 2.2 6.5v.1l3.3 5.8v.5L9.4 163c-.1.2-7.9 16.3 5 25l5.6 3.8 4 5.2c2.1 2.7 5.3 4.2 8.7 4 3.6 0 4.6.5 4.9.8-.2.4-.4.8-.7 1.2q-4.95 8.25 1.5 14.7l4.1 4.1 2.9 5c3.2 5.5 10.3 8.7 21.1 9.5l5.9.5c1.8.3 3.6.8 5.3 1.6l2.6 4.9.1.1 3.9 4.4 3.4 4.9c2 2.9 5.5 5 10.4 6.3.2 0 .4 0 .5-.1.9-.8 2.8-1.1 5.5-1 3.2 8 9.8 10.9 14.6 10.9 3.1 0 5.6-1.1 6.8-3 1-1.7 1.1-3.8.1-5.5-.6-1.3-1.2-2.6-1.5-4 .3-.4.7-.7 1.1-.9 2.3-1.2 4.6-.9 6.9 1.2 2.4 12.5 10.7 17.9 13 17.9h.2c5.7-.4 9.9-5.4 11.1-9.9.9-3.5 0-6.6-2.3-8.6h2.6c4.4 0 7.7 4.4 9.7 12.9.1.2.3.4.5.5 1.1.2 2.2.2 3.3.2 3.1.1 6.2-.8 8.7-2.8l4.4-3.8 5.1-3c7.1-4.2 11.6-8.3 13.5-12l2.7-5.3c.8-1.2 16.8-14.3 17.9-15 1.8-.8 3.6-1.5 5.5-2 8.1-2.5 13.2-5.3 15.7-8.3 6.1-7.4 9.6-14.6 10.3-21.4l.6-6c.4-1.8 1.1-3.4 2.1-4.9l5.1-2.8c7-3.8 11.3-8 12.9-12.5l1.9-5.6c.1-.2.4-1.1 2.2-5.5 1.7-4.2 2.4-7 2.1-8.6" style="fill:#2c87c8"/><g id="Layer_2"><path d="M250.7 73.3c0 .1 0-.1 0 0" class="st1"/><path d="M227.4 87c-41.7-61.4-132.3-61.4-174 0L21.1 65c57.3-84.3 181.5-84.3 238.8 0z" class="st2"/><path d="M227.4 88.8c-.6 0-1.2-.3-1.5-.8-32.1-47.2-96.4-59.5-143.6-27.4C71.6 68 62.3 77.3 54.9 88c-.6.8-1.7 1-2.5.5L20 66.5c-.8-.6-1-1.7-.5-2.5 13.7-20.3 32.3-36.9 54.1-48 42-21.3 91.6-21.3 133.6 0 21.8 11.1 40.4 27.7 54.1 48 .6.8.3 1.9-.5 2.5l-32.4 22c-.2.2-.6.3-1 .3m-87-49.7c34.8 0 67.4 16.9 87.5 45.4l29.4-20c-13.2-19.2-31-34.7-51.7-45.3-40.9-20.8-89.3-20.8-130.3 0-20.7 10.6-38.5 26.2-51.7 45.3l29.4 20c20-28.4 52.6-45.4 87.4-45.4" class="st1"/><path d="M280.9 150.1c-.3-1.7-4.4-9.2-7.6-12.7-1.4-1.5-3-2.9-4.7-4.1 2.4-2.6 4-6.7 5.4-12.1 3.1-12.2 4.3-14.5 3.3-20-.5-3.2-6.1-12.7-17.3-13.2.6-2.5.9-5.2.9-7.8.1-5.9-6.6-10.7-6.6-10.7-.5-.4-.8-.8-1.1-1.3-.5-1.1-2.3-3.8-5.7-2.7-2.1.7-6.8 4.8-9.2 6.9-2.8 2.5-6 8.8-6 15.8.1 4.4 1.5 8.6 4.1 12.1h-2.2l-2.4.9-2.2 1s-4.9 1.2-6.5 9c-1.2 5.7-1.1 14.5.1 18.7 1 3 2.5 5.8 4.5 8.2-3.6 2.1-6.1 5.6-7.1 9.7-.4 2.1-.6 4.2-.4 6.4-1 1-1.7 2.3-2.1 3.6-.4 1.2-.4 2.5.2 3.7l-13.8-20.9h-3.8l-8.6-13.6h-18.3l-2.7-6.1h-60l-3.4 6.3h-15l-9.1 13.4h-3l-25.3 36.3 1.9-8.2.6-3.6-.8-7.3-1.4-5.9-2.5-3.6-2.3-2.3-2.5-2-1.9-.5 2.3-5.1 1.7-5-.6-3.4-.3-4.2V123l.8-5.6-.3-3.9-1.4-2.8-2.3-.5-1.4.3-.8-2.8.8-5 1.1-4.8c.4-1.6.5-3.3.4-4.9-.6-2.6-2-2.7-2-2.7s3.9-14.4-.3-22c-2.6-4.8-12.5-5.7-15.6-3.3-3.6 2.3-5.3 4.3-8.5 8.2-7.1 8.8-6.9 8.6-7.5 14.6l.4 3.6v.1l.9 2.6c.1.2.1 1.1-1.1 5.6-.7 2.3-1.1 4.7-1.3 7.1l-5.7.8c-.1 0-.3.1-.4.2q-4.95 5.7-5.4 18c-.2 2.2-.1 4.3.1 6.5.1.4.5 1.5 3.1 6.2l3.3 5.9 2.2 6.5v.1l3.3 5.8v.5L9.3 163c-.1.2-7.9 16.3 5 25l5.6 3.8L24 197c2.1 2.7 5.3 4.2 8.7 4 3.6 0 4.6.5 4.9.8-.2.4-.4.8-.7 1.2q-4.95 8.25 1.5 14.7l4.1 4.1 2.9 5c3.2 5.5 10.3 8.7 21.1 9.5l5.9.5c1.8.3 3.6.8 5.3 1.6l2.6 4.9.1.1 3.9 4.4 3.4 4.9c2 2.9 5.5 5 10.4 6.3.2 0 .4 0 .5-.1.9-.8 2.8-1.1 5.5-1 3.2 8 9.8 10.9 14.6 10.9 3.1 0 5.6-1.1 6.8-3 1-1.7 1.1-3.8.1-5.5-.6-1.3-1.2-2.6-1.5-4 .3-.4.7-.7 1.1-.9 2.3-1.2 4.6-.9 6.9 1.2 2.4 12.5 10.7 17.9 13 17.9h.3c5.7-.4 9.9-5.4 11.1-9.9.9-3.5 0-6.6-2.3-8.6h2.6c4.4 0 7.7 4.4 9.7 12.9.1.2.3.4.5.5 1.1.2 2.2.2 3.3.2 3.1.1 6.2-.8 8.7-2.8l4.4-3.8 5.1-3c7.1-4.2 11.6-8.3 13.5-12l2.7-5.3c.8-1.2 16.8-14.3 17.9-15 1.8-.8 3.6-1.5 5.5-2 8.1-2.5 13.2-5.3 15.7-8.3 6.1-7.4 9.6-14.6 10.3-21.4l.6-6c.4-1.8 1.1-3.4 2.1-4.9l5.1-2.8c7-3.8 11.3-8 12.9-12.5l1.9-5.6c.1-.2.4-1.1 2.2-5.5 1.6-4.2 2.3-7 2-8.6" class="st1"/><path d="m150 255.6-.7 1-.4 1.2c-1 2.9-2.4 3.7-3.9 2.2-2-1.8 2.4-4.9 3.1-4.8 1.2.1 1.8.3 1.9.4m-62.4-20.1c2 0 3.6 1.6 3.6 3.6s-1.6 3.6-3.6 3.6-3.6-1.6-3.6-3.6 1.6-3.6 3.6-3.6m108.7 4c2 0 3.6 1.6 3.6 3.6s-1.6 3.6-3.6 3.6-3.6-1.6-3.6-3.6 1.6-3.6 3.6-3.6M94.9 130.8h32l-1.3 10.1H87.9zm93.6.1 7.1 10.1h-38.4l-1.5-10.1zm9.6 13.8 9.3 13.3h-47.6l-1.9-13.3zm-55.6-13.5V149l10.7-10.6-1.1-7.3zm11.8 17.7-12.3 10v14.9l13.9-13.7zm-14.1-17.7-9.6-.1-1.1 7.3 10.7 10.6zm-12 17.7-1.7 11.2 13.9 13.7v-14.9zM40.4 75.8h-1.2c-.6 0-6.8 6-9.3 10.7-1.1 2.1-2 4.4-2.5 6.7-2.1-1.3-3.2-3.8-3.2-7.6V81c0-.2-.1-.4-.3-.4H23c-1.8 0-2.2 2.8-1.4 8.3 0 .2.9 2.6 2.6 7.1 2.5 6.8 1.4 29.6-6.3 12.2l-1.6-3.5.9-3 .5-3.2 1.4-2.9-.8-1.6c-2.1-4.2-2.1-11.1 5.7-18.1l3.8-5.2c4.3-5.8 16.4-4 14.8 7.2l-1 7c-.2 1.6-.5 3.9-.8 7.1 1.9.3 2.4 1.9 1.4 5.1s-1.5 4.7-1.4 4.8l-.1 7.5c0 2.1-8.3 9-12.5 8.3-1.3-.2-1.8-.6-1.6-1.2l2.2-5.6c.5-1.7 1.3-3.3 2.3-4.8l.3-6.1c-.3-6.1.9-10 2.9-12.5l3.8-4.7c3.9-4.8 2.5-7 2.3-7m204.7 24.1c.2-.3.8-1.4 2-3.2 2.1-3.1 6-12.3 4.8-13.1-1.2-1.1-6.7 8-6.6 9.6h-1.5l-1.5-9.9c-.4-1.5-2.7 2-2.5 6l.4 2.7c.1.6.2 1.5.4 2.6l.8 2.6-.4 4.5c.1 1-2.8 0-5.6-13.9-.8-6.2 6.6-14.9 12.4-17.9 1.4-.7 5 2.6 7.1 5.9 3.9 6.4 1.8 11.2 1.8 11.2-1 3.7-2.9 6.2-3.3 9.2l-1.3 4.6-.3 5.3c-.1.9-.2 4.5-1 4-4.3-2.9-7.4-5.1-7-5.9zm22.7 2.8c-.3-.1-3.9 2-11 6.3 1 2.4 1.7 4.9 2 7.5l.4 5.1-.4.4c-2.5 2.5-7-2.9-5.9-7.1l1.9-7.6 1.7-7.6c.5-2.4 2.3-5.3 4.8-5.6 3.5-.5 14.4 7.5 11.4 13.4l-.6 2.7-1 2.9-.9 2.8-.2 6.7c0 .5-2.1 10.9-11.8 14.9 0-.2 0-.4-.1-.5l-.3-.3 1.6-6.6 1.9-6.5 1.2-6.7c.6-2.2 1.5-4.3 2.8-6.2l3.9-5.5c.6-1.3.2-2.1-1.4-2.5m-33.3 41c-.5.3 0 1.3 1.3 2.9l2.1 2.5q1.35 1.5 1.5 9.6l.2 6.6 1.6 6.4c1.1 4.4-7 18-10.3 13.8l.2-2.8.8-1c.9-1 1.1-2.5.4-3.8-.3-.5-.5-1-.6-1.6v-7l5.1-15.4c.6-1.7.3-2.7-.8-2.8l-2.7-.3c-.9-.2-1.6-.6-2.3-1.2l-2.1-1.7c-.4-.3-1-.3-2 0l-1.2 1.2c0 .5.6 1.7 2 3.6 2.4 3.3 3.4 6 3.1 7.9-.2 1.7-.6 3.5-1.2 5.1-.7-.6-1.3-1.3-1.8-2-2-3-3.3-4.4-4.1-4.3l-.8.8c-.1.5 0 1.1.2 1.6l2.9 5c1 1.7 4.4 11.5 1.6 14-9-2.9-10.2-16.4-5.9-23.3.5-7.1 1.6-12.5 5.1-15.8 1.9.6 3.9.8 5.9.8 0-.3-1.7-3.5-5.2-9.5-1.3-2.3-2-4.8-1.9-7.4.1-10 .3-14.9 1.9-17 2.5-3.3 5.2-5.7 6.8-4.7l5.4 3.3 5.6 3 2.8 5.6c.6 1.3 1.6 3.1 3 5.6l3.3 5.3c1.2 2-2.2 16-7.5 20.1-.5.2-1.1.2-1.6 0-2.2-2.4-1.5-7.3 2-14.7 2.3-4.9 2-6.8-.8-5.8-1.3 1.3-2.2 2.9-2.4 4.7l-.4 3.5c-.3-.7-.6-1.3-1-1.9-1.4-1.9-2.1-3.2-2.1-3.7v-5.6c.1-1.1.2-2.1.5-3.2l.8-4.7q-.3-.45-1.2-.3c-.3.1-.5.1-.8.1-.8 2-1.6 3.2-2.4 3.8-.9-.2-1.8-.2-2.8-.2-3.3-3.4-5.2-5-5.5-4.9-2.6.7-1.7 3.4 2.7 8.2l4.4 4.8c2.5 2.7 7.2 18.6 5.5 19.3-.5.2-2.2-.4-5-1.8-1.3-.5-2.1-.8-2.3-.7M12 130.3l-.8-.2-.8-.2-.8-.4-2.4-.4c.1.4-.1.9-.4 1.2 5.7 4.4 9.9 11.2 12.5 20.4 1.4 5 1.9 7.5 1.3 7.6-3.9-2.1-6.8-5.7-8.2-10l-2.1-6.5-3.5-5.6-3.6-5.6q-.15-1.2 0-2.4l1.4-6.1 1.1-6.1c1.5-8.3 15.1-3.9 16 3.8l.7 6.4c.4 2 1.1 3.9 2.2 5.6l4.4 4.4-.8 5.8-.9 6.4c-.6 4.5-1.2 6.8-1.8 6.7-1.5-1.4-2.8-3.1-3.8-4.9-.1-.2-5.6-17.8-5.7-18.4-.1-.4-.1-2.6-.2-6.5-.1-4.6-.2-6.9-.4-6.9H14c-1 0-1.5 1.1-1.6 3.2zm18.6-8 1.1 3.8c2.8 9.5 2.6 15.5-.5 17.9q-.3-10.35-.9-11.7l-2.4-5.3c-2.8-6 14.2-14.6 17-12.8 1.4.9 1.9 2.5 1.5 4.7-1 4.4-.9 8.9.1 13.3 1.6 6.3-12.4 26.1-16.2 25.6 0-.2-.2-.4-.4-.4 0-3 .4-5.2 1.1-6.6l3.1-5.9c.1-.3 1.4-4.5 3.6-12.9.5-2.1 1.2-4.3 2-6.3l3.1-5.9c.3-.6.2-1-.4-1.2-1.1-.4-2.9 1.3-5.3 5.1l-1.8 2.8h-.8q-.6-4.65-3.9-4.2m238.3 18.6c5.3 1.9 7.8 12.9 7.1 13.8l-4.1 5.8-2.3 6.7c-.9 2.1-2.3 4-3.9 5.7-1.2.3-2.9-.7-5.2-3-1.2-1.2-1.6-2.3-1.3-3.3l4.1-4.3 3.8-4.6 4.2-4.2c.5-.5.3-1.2-.8-2-.7-.5-6.8 2-8.3 4.7H261c-.2 0-.4-1.2-.4-3.5s-.6-3.9-1.6-4.8h-1.6l-.4.4-.4.4-.4.4v6.7c-.3 2.2-.8 4.3-1.6 6.3l-2.5 6.2-1.9 6.4c-1 3.3-4 6.2-9.1 8.7-1-.6.5-6.1 3.2-7.5l-.3-3.3-.3-3.3-.6-2.9v-.8l3.8-5.6 1.9-6.6c.4-1.2 3.7-4.2 10.2-8.8l5.5-3.9c1.1-.5 2.5-.4 4.4.2m-183.9 4h39.9l-1.8 13.4-47.4-.1zm-41.4 29.5h-1.2c-5 0-9.3-9.9-8.3-14.2.5-2.1 9.1-12.8 12.2-12.6 6.9.5 9.1 18.2 8.7 19.7l-2 6.4-1.3 6.7c-.3 1.5-.8 3.7-1.4 6.6h-2c-.3 0-.4-.3-.4-.8v-5.7c-.1-1.8-.4-3.7-.8-5.4l-2-4.7.4-6 .4-6 2-5.4c.4-1.1.3-1.6-.4-1.6h-1.2c-1.5 0-2.8 4.1-3.9 12.2-.6-.2-1.2-.5-1.7-.9-2.2-1.5-3.6-1.9-4.2-1.1 4.4 6.9 6.8 11.1 7.1 12.8m-17.4-11h-1.6c-.8 2.4-1.4 5-1.7 7.5l-.3 3.9c0 .2-.2.4-.4.4-3.9-1.5-7.5-3.7-10.6-6.3-.3-3.8 1.3-6.3 4.7-7.5 4.2-1.4 17.4 0 17.4 10.3-1.1.2-4 5.4-.5 9.2l4.8 5.4c1 1.1 2.5 2.8 4.4 5.2l-1.2 1.2h-2c-1 0-8-7.5-8.6-9.6l-1.8-6.4-2.1-6.2-.2-6.6c.1-.3 0-.5-.3-.5.1 0 0 0 0 0m136.2 72.2c-6-.6-12.1.7-17.4 3.8l-5.1 3-.7-.1-1.3-.1-6.4-4c-7.9-5.2-17.7-6.6-26.8-3.8l-5.9 1.7c-.9.1-1.8.1-2.8 0-1.2-2.5-2.4-4.2-3.7-4.9l-5.4-3c-.8-.5-1.9-4.4-3.4-11.8-1.9-9.9-4.4-15.5-7.4-16.7l-5.8-2.3-3.8-4.8q-.6-.75-9.6-7.2l16.2-23.2h46.4l21.4 20.2 22.2-20.2h48.5l7.9 17.4c-1.3 1.4-2.8 2.5-4.5 3.4l-5.6 2.3c-.8.3-1.9 2-3.1 4.9-.8 1.9-1.3 3.8-1.4 5.9l-.5 6-2.6 5.3c-3 6.1-4.1 11.7-3.3 16.9l.6 2.8c1 4.5-.2 7.8-3.6 10l-4.6 2.9c-1.1.7-2.2 2.1-3.2 4.4-2.6-.6-5.2-1.5-7.8-2.5-9.1-4-14.9-6.1-17.5-6.3M11.6 174.8l1.2.2 1.6 1.8 1.5 1.3L18 180l1.9 1.5 2 1.2v1.2l-.7 1.5-.5.5c-6.9.5-9.5-8.1-9.1-11.1m32.4 9.6h-1.6q-2.4 0-5.4-5.4c-1.4-2.5-1.6-3.7-.5-3.7h2c2.6 0 6.9 9.1 5.5 9.1m211.9-6.8c1.6-.3 2.4-.1 2.4.4v1.2c0 .6-1.8 1.8-5.3 3.6-3.9 2-7.2.3-2.4-2.7 1.6-1.2 3.4-2 5.3-2.5m-36.7 24.9.1-1.5.1-1.5.5-1c1.6-3.4-5.9-5.1-5.9-2.4v6.3c.1 2.1-.2 4.2-.8 6.2-1.2 3.5-2.3 5.3-3.2 5.3h-.8c-.4 0-.6-.3-.4-.8-.6-.5-1.3-.3-2.1.5l-.3.3v8.3c0 3.8-3.8 7.5-4.6 1.1-.6-4.2-.6-6.6 1.3-10.4l2.5-5.4c1.1-2.6 1.9-5.4 2.5-8.2l.8-6.1c.3-1.9 1.4-3.7 3-4.8l4.9-2.1 5-2.8c1.6-.7 6 .6 6.3 2.4l.7 4.3c.4 2.4 1.7 7-.2 7.2-2.1.2-3-.9-4.9 1.5l-2 2.4c-.5.7-1.5 1.1-2.5 1.2m25.2-9.6-2 .2-1.8 1.6c-9 8.1-9.3-7.7-1-6.9 10.6 1 11.7 1.4 8.3 11-2.7 7.7-5.8 13.3-9.4 16.9-6.2 6.3-12.2 4.7-8.1-3.4l4.2-4.4 3.5-5 4.5-4c1-.9 1.8-2.6 2.5-5.2l-.3-.3-.3-.3zm-209.6-.3v.8c0 .7.4.9 1.2.8 1.8 2.6-7.8 3.2-9.5-.8-.5-1.2-.1-2.2 1.2-3.2 1.7-1.1 7.2 2.1 7.1 2.4m24.4 3.1c-.3.2-.2 1.5.4 4l.8 3.2c-4.4.1-8.5-2.1-10.6-5.9-1-.4-1.5-.2-1.6.4 0 3.1.7 5.1 2.2 5.8l5.9 2.8c4 1.8 7.5 4.4 10.4 7.5v1.6c-1.1-1.5-3.5-1.5-3.6-.8 1 2.1 2 3.5 3.1 3.9l5 2.2c1.6.9 3 2 4.1 3.3-.9 1.1-3.5.3-7.8-2.3-12.1-7.3-19-12.5-20.9-15.6-3.1-5.2-3-9.3.2-12.4l5.1-1.2 5.2-1.3c2.5-.6 4.8.5 7 3.4l3.5 5.4 5 2.2c4.9 3.1 6.7 8 8.4 18.3.5 2.8-.3 5.8-2.5 5.4l.2-3.2-3.4-4.9q-.3-.3-2.7-11.7H71c0 .3-.1.6-.4.8.8 3.8.8 6.1 0 6.7-2.9-1.6-4.7-3.2-5.2-4.9l-2.3-6.7c-.8-2.2-1.9-4.2-3.2-6.1-.1-.1-.4-.1-.7.1m157.9 24.5c-1.9-.2-3.1-.1-3.5.4l-.8-.8v-.8c0-3.5 3.9-9 14.6-18.1.1.5 0 .8-.1 3.3-.1 2-.1 4.1.1 6.1.5 6.6-6.3 13.9-20.3 22.1-.2-1.3.9-3 3.4-5.1l3.9-3.3c2.7-2.4 3.7-3.7 2.7-3.8m-165.6-1.1h-2.8c-5 0-11.7-6.8-9.9-11.4 1.6-4.1 6.1-1.6 7.5 1.9l1 2.6c.4.8.9 1.6 1.5 2.3l2 1.9c.7.5.9 1.4.7 2.7m5.1 1.6c1.4-1.9 9.6 3.9 10.3 5.9-3 .1-5.1-.2-6.4-.9-2.4-1.3-4.3-4.5-3.9-5m-8.6 2.8 2 .2 5.4 2.8c7.4 3.8 15.6 5.7 23.9 5.5-3.8 2.8-27.1 1.7-31.3-8.5m85.6 22-2.8-.2-2.4-1.5c-5.5-3.5-13.7-1.1-24.8 7.2-5.5 4.1-9.1 4.5-11 1.3l-1.9-3.3-2.5-2.7v-.8q2.85-1.2 5.7-2.7c11.5-5.7 21.3-7.2 29.5-4.3q10.2 3.6 10.2 6.6zm10.1.9v-1.2c0-3.6 21.3-11.3 29.2-1.2l3.8 4.9 6.6 1.5q2.1.45 5.4 3.3c-1.5 4.9-10.1 5.8-15.5.9l-4.9-4.5c-7-6.5-17.9-7.9-24.6-3.7m-24.3 16.8h-.8c-1.1-1.7-1.6-3.7-1.6-5.7-.1-2.5-.4-3.8-.8-3.8H115c-1 0-2 2.1-2.8 6.3-2.7.6-3.9-1.1-3.5-5.1.7-9.4 18.3-10.6 22.7-5.3-9.8 3.2-14.1 6.7-12.8 10.5l.3 1c.1.2.2.9.5 2.1m30.2-15.7c9-2.4 21.5 6.6 24.9 14.6-2.5 1.3-3.9 1.7-4.3 1.2l-3.9-4.6c-6.4-7.7-13-10-19.9-6.9-4.2 1.9-5.9 4.7-5 8.4.8 2.2 1.7 4.3 2.8 6.3-.3.4-4.8 1.2-6.3-4-.8-2.3-.6-4.8.5-7 .6-1.2 9.1-7.4 11.2-8" class="st2"/></g><g id="Layer_3"><path d="m51.1 62 2.1 2c.3.4.8.7 1.3.8.4 0 .8-.3 1.3-.8l.9.9-5.5 5.6-.9-.9.2-.2c.5-.5.8-1 .7-1.3-.1-.5-.4-.9-.8-1.2L44 60.7c-.3-.4-.8-.7-1.3-.8-.4 0-.8.3-1.3.8l-.2.2-.7-.9 5.6-5.7.9.9-.2.2c-.5.5-.8 1-.7 1.3.1.5.4.9.8 1.2l3 2.9.1-5.5c.1-.7 0-1.3-.4-1.9-.3-.3-.8-.2-1.4.5l-1-.9 4.6-4.8.9.9c-.5.5-.8 1.1-1 1.7-.3 1.2-.4 2.3-.4 3.5v1.9l7.3 1.3c.9.2 1.8.3 2.7.2.6-.1 1.2-.5 1.6-1l.9.9-6 6.2-.9-.9c.8-.8 1-1.4.7-1.7-.4-.2-.9-.4-1.4-.4l-5-.9zM58.7 52.1c-.8-1.1-1.4-2.4-1.5-3.8-.2-1.4.1-2.8.7-4.1.7-1.3 1.6-2.4 2.7-3.2 1.7-1.5 4-2.2 6.3-2 2.1.3 4 1.4 5.2 3.1 1.3 1.6 1.8 3.7 1.5 5.7-.3 2.2-1.6 4.2-3.5 5.5-1.3 1-2.8 1.7-4.4 1.9-1.4.2-2.9 0-4.1-.6-1.1-.6-2.1-1.5-2.9-2.5m3.6-2.9c.9 1.4 2.2 2.6 3.8 3.4 1 .5 2.3.3 3.1-.5.9-.6 1.5-1.7 1.4-2.9-.1-1.1-.8-2.6-2.2-4.5-.9-1.4-2.2-2.5-3.6-3.2-1.8-.6-3.8.3-4.4 2.1-.2.4-.2.9-.2 1.3.3 1.6 1 3.1 2.1 4.3M75.9 36l3.3 6.1c.5 1 1 1.5 1.6 1.6.5.1 1.1 0 1.6-.3l.6 1.1-5 2.6-.6-1.1q.6-.3.9-.9c.2-.3.3-.7.2-1-.1-.5-.3-.9-.6-1.3L74.3 36c-.7-1.3-1.7-1.7-3-1l-.6-1.1 4.4-2.4 11.6 4.1-2.6-4.8q-1.2-2.1-3-1.2l-.6-1.1 4.7-2.6.6 1.1c-.3.2-.6.5-.8.8s-.3.7-.2 1c.1.5.3.9.5 1.3L91 40.3l-1.3.7zM100.9 30l-.4-1.1 6.6-2.4.4 1.1c-.4.2-.7.5-.9.8 0 .5 0 1 .2 1.4l1.1 3-.5.2q-1.8.75-3.3 1.8c-.9.6-1.8 1.1-2.8 1.4-1.9.8-4.1.7-6-.3-1.8-.9-3.1-2.4-3.8-4.3s-.7-4.1.2-6c.8-1.9 2.4-3.4 4.4-4.1 1.6-.6 3.4-.6 5 0 .1-.5 0-1.1-.1-1.6l1.1-.4 1.9 4.9-1.1.4c-1.6-2.1-3.4-2.8-5.5-2.1-1.1.3-2 1.2-2.3 2.4-.3 1.1-.1 2.8.7 4.9q.6 1.8 1.5 3.3c.4.7 1 1.2 1.8 1.4s1.6.2 2.4-.1c.7-.2 1.3-.6 1.7-1.2.4-.7.4-1.5 0-2.2l-.2-.5c-.3-.8-1-1-2.1-.7M111.2 32.4l-1.1-5 1.3-.3c.5 1.2 1.3 2.2 2.3 2.9.8.5 1.7.6 2.5.5.6-.1 1-.4 1.4-.9.3-.4.4-.9.3-1.4-.1-.4-.3-.7-.6-1-.6-.4-1.2-.7-1.9-.8-1.3-.3-2.5-.7-3.8-1.1-.7-.3-1.3-.7-1.7-1.2-.5-.6-.9-1.3-1-2-.3-1.2 0-2.4.7-3.4s1.7-1.7 2.9-1.9c1.2-.3 2.4-.1 3.5.6.1-.3.2-.7.1-1.1l1.2-.3.9 4.3-1.2.3c-.4-.8-1-1.6-1.7-2.1-.6-.5-1.5-.6-2.2-.5-.5.1-1 .4-1.2.8-.3.4-.4.9-.2 1.3.1.4.3.7.5 1 .3.3.6.5 1 .6s1.3.3 2.6.6c.9.2 1.8.5 2.7.8q.9.45 1.5 1.2c.4.5.7 1.2.9 1.9.3 1.2 0 2.5-.7 3.6-.8 1-1.9 1.8-3.1 2-.8.2-1.6.2-2.3 0-.7-.1-1.4-.4-2-.9-.1.4-.1.8-.1 1.3zM130.1 29.8l-6.1-11c-.5-.9-.8-1.5-1-1.7s-.4-.4-.7-.5c-.4-.1-.8-.2-1.2-.1l-.1-1.2 7.9-.7.1 1.2c-1.1.1-1.6.4-1.6 1 .1.5.3 1 .6 1.4l3.7 6.5 2.3-7c.2-.4.2-.9.2-1.3-.1-.7-.6-1-1.8-.9l-.1-1.2 5.2-.5.1 1.2c-.5 0-1 .2-1.4.6-.6 1-1 2-1.2 3.1l-3.6 11zM139.7 15.1v-1.2l7.9.2v1.2h-.2c-.5-.1-1 .1-1.5.4-.3.4-.4.9-.4 1.4l-.2 8.9c-.1.5 0 1 .3 1.4.4.3.9.5 1.4.4h.2V29l-7.9-.2v-1.2c.6.1 1.1 0 1.6-.3.3-.4.5-.9.4-1.5l.2-8.9q.15-.75-.3-1.5c-.4-.2-1-.3-1.5-.3M153.6 18.8l-.9 6.8c-.2.7-.1 1.5.3 2.2.4.4.9.6 1.5.7l-.2 1.2-5.6-.8.2-1.2c.4.1.9 0 1.3-.2.3-.1.6-.4.8-.7.2-.5.3-1 .3-1.4l1-7.6c.2-1.5-.4-2.4-1.8-2.6l.2-1.2 5 .7 6.9 10.2.7-5.4c.2-1.6-.4-2.5-1.7-2.7l.2-1.2 5.3.7-.2 1.2c-.4-.1-.8 0-1.1.2-.3.1-.6.4-.8.7-.2.4-.3.9-.4 1.4l-1.5 11.4-1.4-.2zM177.3 28.7l.3-1.2 6.7 2-.3 1.2c-.4-.1-.8 0-1.2.2-.3.4-.6.8-.6 1.3l-.9 3-.5-.2c-1.2-.3-2.5-.4-3.7-.5-1.1-.1-2.1-.2-3.1-.5-2-.5-3.7-1.9-4.7-3.8-.9-1.8-1.1-3.8-.5-5.7.6-2 1.9-3.7 3.7-4.8s4-1.3 6-.7c1.7.5 3.1 1.5 4 3 .4-.4.7-.9.9-1.4l1.1.3-1.4 5.1-1.2-.3c0-2.7-1.1-4.3-3.2-4.9-1.1-.4-2.4-.2-3.3.5s-1.7 2.2-2.4 4.4c-.4 1.2-.6 2.4-.7 3.6-.1.8.1 1.5.6 2.2.5.6 1.2 1.1 2 1.3.7.2 1.4.2 2.1.1.6-.2 1.1-.8 1.4-1.8l.1-.5c.3-.9-.1-1.6-1.2-1.9M191.8 32.5l-1.6 3.4c-.2.4-.4.9-.5 1.3 0 .3.1.6.4.8.4.4.9.7 1.4.9q1.05.45 2.1.6c.6-.1 1.2-.3 1.7-.6.6-.4 1.1-.9 1.5-1.4l1.1.5-2.1 4.4-12.5-5.7.5-1.1.2.1c.4.3 1 .4 1.5.2.4-.3.7-.7.9-1.1l3.7-8.1c.3-.4.4-.9.3-1.4-.1-.3-.5-.7-1.1-1l-.2-.1.5-1.1 11.6 5.3-1.4 3.6-1.1-.5q.15-.9 0-1.8c0-.4-.2-.7-.4-1-.4-.3-.8-.6-1.2-.7l-2.5-1.2-2.1 4.7 1.3.6c.4.3.9.3 1.4.2.4-.3.8-.7 1-1.2l1.1.5-2.1 4.6-1.1-.5.1-.2c.2-.4.2-.8.2-1.2s-.3-.7-1-1zM205.7 40.5l-1.9 3c-.3.4-.5.9-.5 1.4.1.4.4.7 1 1.1l.2.1-.7 1-6.8-4.3.7-1 .2.2c.4.3.9.5 1.5.4.4-.2.8-.6 1-1l4.8-7.5c.3-.4.5-.9.5-1.4-.1-.4-.4-.7-1-1.1l-.2-.2.7-1 5.1 3.2 1.1.7c.8.5 1.6 1.1 2.4 1.7q.75.6 1.2 1.5c.3.6.5 1.3.5 1.9 0 .7-.2 1.3-.6 1.9q-1.5 2.25-4.5 1.5c.4 1.3.5 2.7.4 4-.1 1 0 2.1.3 3.1.2.4.4.8.8 1l-.7 1-4-2.5c-.1-1.5-.1-3 .1-4.5v-2.4q0-.45-.3-.9c-.4-.4-.8-.7-1.3-.9m.7-1.2c.7.5 1.4.9 2.2 1.2.5.1.9 0 1.4-.2.5-.3 1-.8 1.3-1.3.5-.6.7-1.5.5-2.2-.4-.8-1-1.5-1.9-1.9l-.5-.3zM225.4 45.8l.8-.9 5.9 5.3-.8.9-.2-.1c-.6-.5-1-.7-1.4-.7-.5.1-.9.4-1.2.8l-5.9 6.6c-.4.3-.6.8-.7 1.3 0 .4.3.8.8 1.3l.2.1-.8 1-5.9-5.3.8-.9c.4.4.9.7 1.4.8.5-.1 1-.4 1.3-.8l5.9-6.6c.4-.3.6-.8.7-1.3q.15-.75-.9-1.5M236.8 69.7 233 73l-9.1-10.1.9-.8.1.2c.5.6.9.8 1.3.8.5-.1.9-.3 1.3-.7l6.6-5.9c.4-.3.7-.7.8-1.2 0-.5-.3-1-.7-1.4l-.1-.2.9-.8 5.4 6-.9.8-.2-.2c-.5-.6-.9-.8-1.3-.8-.5.1-.9.3-1.3.7l-6.4 5.7-.9.9c-.1.3-.1.5 0 .8.2.5.5 1 .9 1.4.7.8 1.6 1.4 2.7 1.5 1 0 2-.3 2.9-.8zM105 213.5v-1.8h.8q.75 0 1.5-.3c.3-.2.5-.8.5-1.6v-12.2c0-1.2-.2-1.9-.5-2.1-.8-.4-1.7-.5-2.6-.4v-1.7c2.4 0 4.7-.7 6.6-1.9h1.7v18.3c0 .5.1 1.1.4 1.6.4.4 1 .5 1.6.5h.8v1.8H105zM126.4 201.9q-2.1-.3-3.6-1.8c-.8-.9-1.3-2.1-1.2-3.3-.1-1.6.7-3.2 2-4.1 1.5-1 3.2-1.5 5-1.5 1.9-.1 3.7.4 5.2 1.5 1.3 1 2.1 2.5 2 4.1 0 1.2-.4 2.3-1.1 3.2-.9.9-2.1 1.6-3.4 1.9q2.25.3 3.9 1.8c.9 1.1 1.4 2.4 1.3 3.9.1 1.8-.7 3.6-2.2 4.7s-3.4 1.7-5.3 1.7c-2 .1-4-.5-5.7-1.6-1.5-1.1-2.3-2.9-2.2-4.7 0-1.3.4-2.6 1.2-3.7 1-1.3 2.5-2 4.1-2.1m0 5.3c-.1 1.4.1 2.7.5 4 .4.7 1.1 1.1 1.9 1 .7 0 1.3-.3 1.7-.8s.6-1.8.6-3.7c0-2.2-.2-3.5-.6-4s-1.1-.8-1.8-.8c-.7-.1-1.4.3-1.8.9-.4 1.1-.6 2.2-.5 3.4m.3-10.5c-.1 1.2.1 2.5.5 3.6.3.5.9.9 1.6.8.7 0 1.3-.3 1.5-.9.4-1.2.5-2.4.4-3.6.1-1-.1-2-.5-2.9-.3-.5-.9-.7-1.5-.7s-1.2.2-1.5.7c-.5 1-.6 2-.5 3M151.4 205c-.4.3-.9.5-1.3.6-.5.1-1 .2-1.5.2-1.7 0-3.4-.6-4.7-1.9-1.4-1.3-2.1-3.2-2-5.1-.1-2.1.7-4.2 2.3-5.6 1.4-1.2 3.3-1.9 5.1-1.9 2.1 0 4.1.9 5.4 2.5 1.4 1.6 2.1 4.1 2.1 7.3 0 3.9-.9 7-2.8 9.3-1.7 2.3-4.4 3.6-7.3 3.5-1.2.1-2.3-.2-3.3-.8-.7-.4-1.1-1.1-1.1-1.8 0-.5.2-.9.5-1.2.6-.6 1.6-.7 2.4-.2.4.3.7.7 1 1.1.4.6 1 1 1.8 1 1 0 1.8-.6 2.2-1.5.7-1.7 1.1-3.6 1.2-5.5m-4.1-6.2c-.1 1.4.1 2.7.5 4 .3.7.9 1.2 1.7 1.1.7 0 1.4-.4 1.7-1 .4-1.1.6-2.4.5-3.6.1-1.6-.1-3.3-.6-4.9-.3-.9-1.3-1.5-2.3-1.2-.2.1-.5.2-.6.4-.4.4-.7.9-.7 1.4-.1 1.3-.2 2.6-.2 3.8M161.9 213.5V212c5.8-5.3 8.7-10.1 8.7-14.5.1-1.1-.2-2.1-.8-3-.5-.7-1.3-1.1-2.1-1.1-.7 0-1.4.3-1.8.8-.5.5-.8 1.1-.8 1.8q0 1.05.6 2.1c.1.1.1.2.1.3s-.1.2-.4.3l-1.3.5c-.4.2-.8.4-1.2.5-.2 0-.4-.3-.7-.9-.2-.6-.4-1.3-.4-1.9 0-1.5.7-3 2-3.8 1.5-1 3.3-1.6 5.1-1.5 1.8-.1 3.6.5 5 1.6 1.3 1 2 2.6 2 4.2 0 1-.2 2.1-.7 3q-1.35 2.4-3.3 4.5c-1.7 2-3.4 3.9-5 5.6h9.3l-.8 4.6h-1.7c.1-.2.1-.4.1-.6 0-.3-.1-.5-.2-.6-.3-.1-.7-.1-1-.1z" class="st1"/></g></svg>