<svg xmlns="http://www.w3.org/2000/svg" viewBox="26.63 83.07 735.65 868.64"><path d="M296.348 779.084c-71.463.001-175.348-14.369-264.423-82.833l-.856-.658-.202-1.061c-.166-.877-16.554-88.844-7.838-190.08 10.656-123.783 50.357-214.7 124.942-286.123 69.217-66.285 146.781-90.243 147.556-90.475l.82-.25.82.25c.776.232 78.339 24.19 147.554 90.475 74.586 71.424 114.287 162.34 124.943 286.122 8.715 101.237-7.67 189.204-7.838 190.08l-.203 1.062-.855.658c-89.077 68.464-192.957 82.834-264.42 82.833" style="fill:#231f20;fill-opacity:1;fill-rule:nonzero;stroke:none" transform="matrix(1.33333 0 0 -1.33333 -.667 1121.853)"/><path d="M149.932 220.377C66.268 300.497 35.071 397.632 25.854 504.694c-8.783 102.02 7.799 189.309 7.799 189.309 85.792 65.938 185.763 82.246 262.692 82.246h.003c76.93 0 176.9-16.308 262.691-82.246 0 0 16.582-87.29 7.799-189.309-9.217-107.062-40.412-204.198-124.078-284.317-69.526-66.581-146.412-89.812-146.412-89.812s-76.888 23.23-146.416 89.812" style="fill:#fff;fill-opacity:1;fill-rule:nonzero;stroke:none" transform="matrix(1.33333 0 0 -1.33333 -.667 1121.853)"/><path d="M454.932 608.69c-5.42 1.068-11.29 1.606-17.6 1.606h-14.664l-1.453-.02 68.023 43.746-39.74 12.62 95.533 19.125-.176.14c-83.994 62.137-181.16 75.453-248.51 75.452h-.004c-67.493 0-164.924-13.372-249.034-75.846-2.531-15.655-9.11-61.911-9.11-119.704 0-18.931.706-39.101 2.492-59.838 3.385-39.32 9.599-74.577 18.845-106.684l.233-.588 88.081 57.751 34.008-.112 58.556 37.658.718.418V469h34.416l-.958-.686-65.677-50.424-11.379-32.05-100.248-75.573.322-.544c16.883-28.66 37.61-54.637 62.625-78.591 56.795-54.39 119.41-78.955 136.117-84.856 16.707 5.9 79.318 30.466 136.113 84.856 38.38 36.75 66.662 78.267 86.465 126.915 17.36 42.646 28.18 91.032 33.078 147.924 1.785 20.736 2.49 40.905 2.49 59.836 0 51.804-5.285 94.339-8.201 113.874l-.076.416-48.971-81.313 1.541 41.665-41.846-32.126z" style="fill:#231f20;fill-opacity:1;fill-rule:nonzero;stroke:none" transform="matrix(1.33333 0 0 -1.33333 -.667 1121.853)"/><path d="M157.968 470.519c-33.545 0-60.739 17.013-60.739 69.13 0 53.184 27.194 69.13 60.74 69.13s60.74-15.945 60.74-69.13c0-52.117-27.194-69.13-60.74-69.13m0 10.604c14.256 0 19.99 14.406 19.99 58.526 0 45.026-5.734 58.526-19.99 58.526-14.258 0-19.99-13.5-19.99-58.526 0-44.12 5.732-58.526 19.99-58.526M384.863 473.255v132.787h52.469c33.547 0 60.74-15.315 60.74-66.393 0-50.051-27.193-66.394-60.74-66.394zm52.469 12.952c14.258 0 19.99 13.154 19.99 53.442 0 41.115-5.732 53.442-19.99 53.442h-13.943V486.207zM379.664 548.991l-67.883-52.12c-5.273-4.112-8.527-6.46-13.93-6.408h-9.69v34.242000000000004l91.671 58.957.777.442v-34.27z" style="fill:#fff;fill-opacity:1;fill-rule:nonzero;stroke:none" transform="matrix(1.33333 0 0 -1.33333 -.667 1121.853)"/><path d="m318.994 549.592 34.002 21.866.688.48c-9.293 25.57-30.793 34.104-55.834 34.104h-52.466V473.255h52.466c30.52 0 55.779 13.524 60.091 53.65l-1.103-.806-45.99-35.31c-5.287-3.82-8.301-4.635-12.998-4.582h-13.943v106.884h13.943c13.127 0 19.029-10.45 19.884-44.202zM234.495 309.732h-.131l-7.045-4.827c-.392-.262-.717-.13-.717.39v8.089c0 .392.13.653.457.915l7.436 5.347q.489.394 1.173.393h7.307c.392 0 .651-.26.651-.652v-43.052c0-.393-.26-.652-.651-.652h-7.828c-.391 0-.652.26-.652.652zM262.673 298.84v.13c-2.087 1.5-4.305 4.696-4.305 8.87 0 6.85 5.024 12.916 14.025 12.916 9.003 0 14.024-6.067 14.024-12.915 0-4.175-2.218-7.37-4.304-8.871v-.13c2.803-1.893 5.282-5.415 5.282-10.373 0-8.153-6.39-13.503-15.002-13.503-8.61 0-15.003 5.35-15.003 13.503 0 4.958 2.479 8.48 5.283 10.373m9.72-16.178c3.588 0 6.002 2.542 6.002 6.195 0 3.59-2.414 6.134-6.002 6.134s-6.001-2.545-6.001-6.134c0-3.653 2.414-6.195 6.001-6.195m5.088 25.179c0 2.87-2.022 5.22-5.088 5.22s-5.088-2.35-5.088-5.22c0-2.806 2.022-5.153 5.088-5.153s5.088 2.347 5.088 5.153M311.986 293.491l-.13.131c-.456-.197-1.565-.393-2.739-.393-6.978 0-12.721 5.218-12.721 13.373 0 8.936 6.46 14.154 14.874 14.154 8.48 0 14.873-5.218 14.873-13.96 0-3.782-1.176-7.174-3.26-10.96l-10.764-19.696c-.197-.393-.326-.457-.783-.457h-8.283c-.526 0-.657.26-.46.652zm5.155 13.437c0 3.588-2.282 6.133-5.871 6.133-3.588 0-5.87-2.545-5.87-6.133 0-3.655 2.282-6.197 5.87-6.197 3.59 0 5.87 2.542 5.87 6.197M334.686 282.792v6.653c0 .261 0 .524.132.784l13.307 29.288c.195.392.457.522.914.522h8.283c.457 0 .588-.26.457-.652l-13.308-29.158v-.196h8.154q.395 0 .395.39v9.59c0 .392.257.653.648.653h7.566c.395 0 .657-.26.657-.653v-9.59q0-.39.388-.39h2.936c.39 0 .652-.26.652-.652v-6.589c0-.39-.262-.653-.652-.653h-2.936q-.389 0-.388-.389v-5.415c0-.393-.262-.652-.657-.652h-7.566c-.39 0-.648.26-.648.652v5.415q0 .389-.395.389H335.34c-.39 0-.654.262-.654.653" style="fill:#fff;fill-opacity:1;fill-rule:nonzero;stroke:none" transform="matrix(1.33333 0 0 -1.33333 -.667 1121.853)"/></svg>