<svg xmlns="http://www.w3.org/2000/svg" viewBox="1.51 1.37 514.47 566.94"><defs><clipPath id="a"><path d="M1 1h515v567.398H1Zm0 0"/></clipPath></defs><g clip-path="url(#a)"><path d="M30.14 47.719C103.204 12.8 179.255 2.855 251.06 1.473c80.171-1.54 168.87 13.632 235.445 46.246 12.234 28.953 25.785 73.992 28.547 127.004 1.86 35.656 1.539 73.53-7.067 111.84-22.867 101.796-98.949 212.425-249.086 281.746-117.734-52.45-208.675-146.45-242.195-255.743C3.668 270.06.055 225.852 1.996 181.484 3.891 138.234 15.18 81.742 30.141 47.72m0 0" style="stroke:none;fill-rule:evenodd;fill:#fee300;fill-opacity:1"/></g><path d="M479.836 54.023c-44.602-21.308-95.98-33.601-144.781-39.593-27.754-3.407-55.868-4.91-83.828-4.375-74.403 1.43-146.637 12.27-214.48 44.035-4.227 10.097-7.626 20.734-10.544 31.246-3.726 13.418-6.742 27.094-9.187 40.809-3.27 18.316-5.63 37.12-6.446 55.718-1.886 43.184 1.621 86.723 14.34 128.188C59.535 422.953 153.297 510.84 258.84 558.867c63.2-29.695 120.98-70.738 165.723-124.73 35.93-43.36 62.671-94.364 75.05-149.453 8.11-36.11 8.785-72.72 6.867-109.512-2.113-40.578-11.14-83.367-26.644-121.149m0 0" style="stroke:none;fill-rule:evenodd;fill:#132d4a;fill-opacity:1"/><path d="M28.797 111.805a271 271 0 0 0-3.332 15.843c-3.211 18.016-5.52 36.297-6.32 54.59-1.848 42.133 1.085 84.832 13.492 125.297 13.61 44.38 36.136 85.754 65.468 122.406 36.098 45.106 84.34 82.465 133.184 109.293-50.473-32.394-96.293-76.964-128.484-129.718-20.184-33.075-33.489-68.274-41.64-103.34-4.727-20.34-7.407-40.649-9.5-60.461-2.169-20.438-2.45-41.32-1.556-62.125.743-16.934 2.418-33.82 5.387-50.5 2.363-13.211 4.188-26.317 7.711-39.137-11.668 5.313-23.184 11.324-34.41 17.852M453.844 93.383c7.812 27.09 11.187 55.996 12.64 83.847 2.008 38.524.164 78.899-8.007 118.075-8.438 40.422-23.551 79.574-44.067 114.11-31.64 53.257-78.277 98.147-127.047 129.472 50.473-27.57 95.203-64.469 131.543-108.32 35.059-42.305 60.254-94.004 72.332-147.766 7.914-35.238 8.067-71.266 6.196-107.184-1.114-21.344-4.454-43.015-9.547-64.312-10.934-6.715-22.239-12.79-34.043-17.922M472.184 60.355c-9.551-4.675-19.739-8.968-30.41-12.882a499 499 0 0 1 9.738 35.117c11.496 4.629 22.523 10.137 33.191 16.281a425 425 0 0 0-12.52-38.516M428.21 42.777C377.859 26.38 318.789 17.887 265.617 17.59c-59.164-.336-121.234 5.387-176.355 24.383-.282.832-.559 1.664-.84 2.496a499 499 0 0 0-9.86 33.68c57.797-23.196 126.758-31.81 186.883-31.477 53.739.3 118.133 11.308 173.075 31.023a497 497 0 0 0-9.747-33.226ZM75.566 47.031c-10.398 4.102-20.5 8.715-30.242 13.903-5 12.57-9.562 25.504-13.3 38.625 10.988-6.09 22.218-11.664 33.57-16.579 2.86-12.09 6.21-24.101 9.972-35.949m0 0" style="stroke:none;fill-rule:evenodd;fill:#fee300;fill-opacity:1"/><path d="M79.633 330.64c11.004 42.45 33.097 83.587 62.426 119.907v-54.285a209.9 209.9 0 0 1-62.426-65.621m95.062 155.497a395.2 395.2 0 0 0 65.27 50.828v-106.02a207.2 207.2 0 0 1-65.27-16.703Zm103.258 50.984c23.602-14.484 45.305-31.351 64.836-50.289v-72.805a207.1 207.1 0 0 1-64.836 16.836Zm97.477-86.406c28.773-36.418 50.726-78.371 64.441-124.336-15.89 27.832-38.004 51.64-64.441 69.558ZM219.195 363.637v33.898h-9.98v-22.21q-2.419 1.72-4.692 2.792c-1.503.719-3.402 1.399-5.68 2.055v-7.602c3.368-1.015 5.973-2.23 7.833-3.656a15.2 15.2 0 0 0 4.355-5.277ZM225.406 390.055l9.805-1.157c.266 1.29.695 2.196 1.316 2.723q.921.801 2.25.8c1.578 0 2.82-.75 3.703-2.25.641-1.108 1.133-3.452 1.458-7.03-1.184 1.14-2.391 1.968-3.633 2.504q-1.868.794-4.317.793c-3.183 0-5.86-1.055-8.054-3.18q-3.282-3.183-3.282-8.047c0-2.215.551-4.234 1.672-6.047 1.113-1.824 2.645-3.2 4.606-4.129 1.949-.933 4.406-1.398 7.36-1.398 3.554 0 6.41.578 8.558 1.715 2.14 1.14 3.863 2.964 5.144 5.457s1.922 5.789 1.922 9.878c0 6.016-1.344 10.422-4.043 13.223-2.691 2.8-6.43 4.192-11.219 4.192-2.824 0-5.05-.301-6.68-.914-1.628-.622-2.995-1.516-4.07-2.704-1.082-1.18-1.918-2.648-2.496-4.43m18.168-14.871c0-1.801-.48-3.211-1.457-4.239-.969-1.023-2.14-1.535-3.531-1.535-1.313 0-2.399.469-3.258 1.39q-1.299 1.386-1.297 4.165c0 1.86.446 3.289 1.34 4.27q1.347 1.481 3.356 1.48c1.39 0 2.546-.477 3.464-1.442.918-.953 1.383-2.308 1.383-4.09M284.953 397.535h-29.605c.34-2.746 1.375-5.32 3.093-7.746 1.723-2.41 4.946-5.27 9.676-8.559 2.895-2.011 4.738-3.546 5.547-4.585.813-1.047 1.219-2.043 1.219-2.98 0-1.017-.406-1.888-1.2-2.61-.804-.711-1.812-1.078-3.019-1.078-1.266 0-2.293.375-3.094 1.117-.793.742-1.332 2.05-1.61 3.937l-9.882-.754q.58-3.908 2.133-6.105c1.035-1.457 2.488-2.582 4.375-3.363 1.875-.786 4.48-1.172 7.812-1.172 3.465 0 6.172.37 8.106 1.11 1.926.745 3.45 1.886 4.547 3.425a8.65 8.65 0 0 1 1.664 5.172c0 2.035-.637 3.976-1.902 5.82-1.266 1.848-3.575 3.883-6.915 6.094-1.992 1.289-3.32 2.187-3.984 2.71a34 34 0 0 0-2.367 2.016h15.406ZM293.176 364.203h23.426v7.387H300.73l-.851 5.008a17.3 17.3 0 0 1 3.258-1.094 14.5 14.5 0 0 1 3.183-.367c3.559 0 6.446 1.011 8.653 3.027 2.214 2.02 3.324 4.555 3.324 7.613 0 2.16-.57 4.227-1.711 6.211q-1.711 2.977-4.848 4.547c-2.09 1.05-4.77 1.567-8.035 1.567-2.336 0-4.344-.207-6.015-.622q-2.502-.625-4.266-1.87c-1.168-.82-2.117-1.758-2.844-2.801-.73-1.047-1.332-2.348-1.82-3.91l9.98-1.02q.373 2.24 1.696 3.418c.894.773 1.953 1.172 3.175 1.172 1.375 0 2.508-.489 3.407-1.465.894-.98 1.34-2.442 1.34-4.375 0-1.992-.446-3.45-1.36-4.375-.898-.918-2.105-1.375-3.601-1.375-.95 0-1.88.21-2.762.644-.66.329-1.39.903-2.184 1.735l-8.402-1.13ZM258.465 180.352l61.394-87.207 98.946.238v72.969h-19.953v93.886h19.953v72.996h-121.95v-72.996h15.793V235.11l-37.535 53.18-32.949.223-37.375-52.864v25.067h16.14v73H98.98v-73h19.606v-94.277l-19.606-.196V93.36h98.91Zm-148.52-76.028h82.22l66.25 95.149 67.124-95.344 82.297.195v51.059h-19.953V271.21h19.953v51.055H307.82V271.21h15.793v-70.66l-54.21 76.808-21.59.149-53.989-76.371v70.547h16.137v51.058H109.945v-51.058h19.61V155.578l-19.61-.195Zm6.2 6.2v38.722l19.601.195v128.442h-19.601v38.664h87.617v-38.664h-16.14v-96.25l63.386 89.656 15.168-.105 63.637-90.164v96.386H314.02v38.66h87.617v-38.66h-19.953V149.188h19.953v-38.68l-72.89-.172-70.36 99.941-69.461-99.754Zm0 0" style="stroke:none;fill-rule:evenodd;fill:#fee300;fill-opacity:1"/></svg>