<svg xmlns="http://www.w3.org/2000/svg" viewBox="413.34 252.66 1840 2161.35"><defs><clipPath id="a" clipPathUnits="userSpaceOnUse"><path d="M-1598.393 775.068h2000v-2000h-2000Z"/></clipPath><clipPath id="b" clipPathUnits="userSpaceOnUse"><path d="M-1149.304 849.431h2000v-2000h-2000Z"/></clipPath><clipPath id="c" clipPathUnits="userSpaceOnUse"><path d="M-1166.608 1160.486h2000v-2000h-2000Z"/></clipPath><clipPath id="d" clipPathUnits="userSpaceOnUse"><path d="M-1327.617 1319.257h2000v-2000h-2000Z"/></clipPath><clipPath id="e" clipPathUnits="userSpaceOnUse"><path d="M-1243.482 1317.73h2000v-2000h-2000Z"/></clipPath><clipPath id="f" clipPathUnits="userSpaceOnUse"><path d="M-1147.127 1328.819h2000v-2000h-2000Z"/></clipPath><clipPath id="g" clipPathUnits="userSpaceOnUse"><path d="M-1147.127 1302.643h2000v-2000h-2000Z"/></clipPath><clipPath id="h" clipPathUnits="userSpaceOnUse"><path d="M-1068.914 1309.632h2000v-2000h-2000Z"/></clipPath><clipPath id="i" clipPathUnits="userSpaceOnUse"><path d="M-747.439 1375.751h2000v-2000h-2000Z"/></clipPath><clipPath id="j" clipPathUnits="userSpaceOnUse"><path d="M-849.84 1358.196h2000v-2000h-2000Z"/></clipPath><clipPath id="k" clipPathUnits="userSpaceOnUse"><path d="M-925.334 1350.182h2000v-2000h-2000Z"/></clipPath><clipPath id="l" clipPathUnits="userSpaceOnUse"><path d="M-989.591 1301.618h2000v-2000h-2000Z"/></clipPath><clipPath id="m" clipPathUnits="userSpaceOnUse"><path d="M-989.591 1298.48h2000v-2000h-2000Z"/></clipPath><clipPath id="n" clipPathUnits="userSpaceOnUse"><path d="M-924.81 638.874h2000v-2000h-2000Z"/></clipPath><clipPath id="o" clipPathUnits="userSpaceOnUse"><path d="M-924.81 672.478h2000v-2000h-2000Z"/></clipPath><clipPath id="p" clipPathUnits="userSpaceOnUse"><path d="M-788.931 881.99h2000v-2000h-2000Z"/></clipPath><clipPath id="q" clipPathUnits="userSpaceOnUse"><path d="M-1375.805 951.268h2000v-2000h-2000Z"/></clipPath><clipPath id="r" clipPathUnits="userSpaceOnUse"><path d="M-1227.831 966.438h2000v-2000h-2000Z"/></clipPath><clipPath id="s" clipPathUnits="userSpaceOnUse"><path d="M-1194.604 743.933h2000v-2000h-2000Z"/></clipPath><clipPath id="t" clipPathUnits="userSpaceOnUse"><path d="M-1023.635 662.163h2000v-2000h-2000Z"/></clipPath><clipPath id="u" clipPathUnits="userSpaceOnUse"><path d="M-1189.331 756.173h2000v-2000h-2000Z"/></clipPath><clipPath id="v" clipPathUnits="userSpaceOnUse"><path d="M-1215.967 694.155h2000v-2000h-2000Z"/></clipPath><clipPath id="w" clipPathUnits="userSpaceOnUse"><path d="M-1336.656 668.482h2000v-2000h-2000Z"/></clipPath><clipPath id="x" clipPathUnits="userSpaceOnUse"><path d="M-1018.257 1021.991h2000v-2000h-2000Z"/></clipPath><clipPath id="y" clipPathUnits="userSpaceOnUse"><path d="M-1287.38 966.438h2000v-2000h-2000Z"/></clipPath><clipPath id="z" clipPathUnits="userSpaceOnUse"><path d="M-1085.611 538.523h2000v-2000h-2000Z"/></clipPath><clipPath id="A" clipPathUnits="userSpaceOnUse"><path d="M-1085.611 754.52h2000v-2000h-2000Z"/></clipPath><clipPath id="B" clipPathUnits="userSpaceOnUse"><path d="M-910.75 966.438h2000v-2000h-2000Z"/></clipPath><clipPath id="C" clipPathUnits="userSpaceOnUse"><path d="M-759.01 654.755h2000v-2000h-2000Z"/></clipPath><clipPath id="D" clipPathUnits="userSpaceOnUse"><path d="M-951.782 1444.654h2000v-2000h-2000Z"/></clipPath><clipPath id="E" clipPathUnits="userSpaceOnUse"><path d="M-1059.163 1459.489h2000v-2000h-2000Z"/></clipPath><clipPath id="F" clipPathUnits="userSpaceOnUse"><path d="M-1235.05 1506.212h2000v-2000h-2000Z"/></clipPath><clipPath id="G" clipPathUnits="userSpaceOnUse"><path d="M-1475.235 316.813h2000v-2000h-2000Z"/></clipPath></defs><path d="M0 0c-1.507-10.797-2.951-21.615-4.415-32.432C-47.1-350.559-216.458-583.798-363.344-731.144c-72.773-143.14-235.059-292.914-235.059-292.914-144.333 146.719-208.611 246.881-234.348 294.232-256.589 257.762-319.591 524.709-319.591 524.709-87.399 297.161-48.9 594.783-48.9 594.783 32.328 19.271 76.77 34.901 126.988 47.581v21.175s140.085 123.765 523.516 113.093c0 0 277.283 2.135 427.58-113.26V437.77c92.985-24.439 131.653-48.104 131.653-48.104C20.191 171.367 5.503 39.483 0 0m86.625 469.114S-92.63 580.764-598.403 585.576c0 0-502.571-8.557-680.466-116.462 0 0-43.438-341.897 55.218-683.27 0 0 111.817-482.233 626.106-821.284 0 0 580.324 342.398 669.607 1019.642a7224 7224 0 0 0 4.98 37.266c6.214 45.342 22.807 196.873 9.583 447.646" clip-path="url(#a)" style="fill:#9c82bb;fill-opacity:1;fill-rule:nonzero;stroke:none" transform="matrix(1.33333 0 0 -1.33333 2131.191 1033.424)"/><path d="m0 0-13.015-30.298v-.021l-30.904-71.957-5.168-12.052-.189-10.399-.879-47.832h-13.537v267.47l2.008-2.992 52.08-77.586v-.021z" clip-path="url(#b)" style="fill:#92c46a;fill-opacity:1;fill-rule:nonzero;stroke:none" transform="matrix(1.33333 0 0 -1.33333 1532.405 1132.575)"/><path d="M0 0c-53.816 0-102.904 20.317-139.96 53.733H47.225c91.501 0 145.526 102.548 93.802 177.999l-45.572 66.497-35.466 51.723-40.195-94.178 8.432-12.534 32.997-49.192h59.55l-35.78-35.424-20.317-20.129H-80.996V83.11h-58.587l-4.122 26.008-4.645 29.377h-33.437V0l-53 53.733-7.01 7.114v77.648h-181.954c-18.748 0-30.088 20.694-20.003 36.492l66.077 103.51V428.94l-16.487-25.36-84.303-129.749-34.085-52.393c-13.517 30.988-21.008 65.199-21.008 101.146 0 95.287 52.582 178.271 130.315 221.5 24.501 134.75 142.47 236.901 284.293 236.901 159.607 0 289.001-129.373 289.001-288.98 0-45.844-10.672-89.178-29.67-127.678 42.266-38.27 68.818-93.593 68.818-155.109C209.197 93.676 115.542 0 0 0m130.691-205.786-3.599-14.543-13.894 2.658 4.667 16.843-3.474 54.612 15.107-4.394.251-30.863 15.902 27.787 15.358-5.085zm-53.817 48.543c-.041-.147-.062-.272-.104-.398l-13.873 2.386s1.339 5.314-3.85 6.842c-2.908.858-6.172-.335-7.239-3.16-.858-2.238-.314-5.461 5.21-9.29 0 0 22.388-18.413 14.375-31.156 0 0-2.491-11.612-17.66-13.558-6.047-.775-12.304.481-17.095 4.247-4.561 3.62-8.746 10.023-7.219 21.238l15.484-1.59s-.105-11.739 7.281-10.085c5.399 1.213 7.533 7.909 4.101 12.261-1.548 1.967-3.871 4.268-7.281 6.905 0 0-21.719 18.329-7.135 33.834 0 0 6.758 7.365 20.254 4.205 10.253-2.385 17.053-12.407 14.751-22.681m-94.052-37.37-.252 12.47h-15.483l-3.306-9.269-14.061.189 23.77 67.186h15.902l6.967-70.576zm-61.015 6.737-17.095.523-10.817 25.925-4.813-5.356v-19.899h-13.077l2.406 69.635s13.078-.042 14.019 0-1.213-26.364-1.213-26.364l14.039 25.108h17.221l-20.171-30.842zm-1.736-111.127h-27.515v2.679c0 4.017-1.632 7.658-4.269 10.294a14.44 14.44 0 0 1-10.294 4.269c-8.035 0-14.542-6.528-14.542-14.563v-57.164c0-8.035 6.507-14.563 14.542-14.563 8.055 0 14.563 6.528 14.563 14.563v2.678h27.515v-2.804c0-21.698-17.576-39.274-39.253-39.274h-5.629c-21.677 0-39.253 17.576-39.253 39.274v57.415c0 21.698 17.576 39.274 39.253 39.274h5.629c21.677 0 39.253-17.576 39.253-39.274zm-93.844 112.32-12.471 24.586h-3.724v-24.586h-15.149v69.635h24.753a14 14 0 0 0 2.26-.335c3.473-.753 6.654-2.636 9.123-5.189 17.911-18.35-3.537-37.747-3.537-37.747l14.773-26.364zm-2.574-97.484h-38.479v-26.992h34.19v-24.837h-33.646v-55.825h-28.582v133.285h66.517zm-107.13 160.716 35.989 1.632.523-12.324-21.363-.544.523-12.806 21.196.712.9-14.793-20.485-.356.9-14.417 22.953.879 1.067-14.228-36.847-2.155zm-48.606-75.326-3.746 26.699-12.805-.879 3.724-27.787-15.128-1.611-9.98 68.024 14.605 2.155 3.912-26.72 12.827.9-3.746 29.189 14.438.899 11.215-69.802zm-87.086-16.488c-16.446-3.411-23.162 20.359-25.192 29.984-.565 2.72-1.151 5.419-1.737 8.118-.941 4.311-1.297 8.077-1.255 11.341.188 15.672 16.53 26.699 30.716 20.003 10.504-4.959 13.245-16.55 13.245-16.55l-15.232-3.202c-7.533 9.772-11.216 7.721-12.973 4.52-1.214-2.26-1.423-4.938-.858-7.47l5.859-26.218c.606-2.762 2.552-5.126 5.231-5.963 8.013-2.448 8.62 10.818 8.62 10.818l14.417 1.862c2.406-26.971-20.841-27.243-20.841-27.243m859.45 990.349s-38.668 23.665-131.653 48.104c-95.476 25.172-248.241 51.159-475.245 53.273 0 0-281.301-4.708-475.851-53.796-50.218-12.68-94.66-28.31-126.988-47.581 0 0-38.5-297.621 48.899-594.783 0 0 63.002-266.947 319.592-524.708 65.178-65.513 142.827-130.398 235.101-190.178 0 0 108.972 63.17 234.306 188.859C215.328-198.38 384.686 34.859 427.371 352.986c1.464 10.818 2.908 21.636 4.415 32.432 5.503 39.484 20.191 171.367 8.495 389.666" clip-path="url(#c)" style="fill:#fff;fill-opacity:1;fill-rule:nonzero;stroke:none" transform="matrix(1.33333 0 0 -1.33333 1555.477 1547.315)"/><path d="m0 0-30.319-47.016-3.598-14.542-13.894 2.657 4.666 16.844-3.473 54.611 15.107-4.394.251-30.862 15.902 27.787z" clip-path="url(#d)" style="fill:#271d61;fill-opacity:1;fill-rule:nonzero;stroke:none" transform="matrix(1.33333 0 0 -1.33333 1770.156 1759.01)"/><path d="M0 0c-.042-.146-.063-.272-.105-.398l-13.872 2.386s1.339 5.314-3.85 6.842c-2.908.858-6.173-.335-7.24-3.16-.858-2.238-.313-5.461 5.21-9.29 0 0 22.389-18.413 14.375-31.156 0 0-2.49-11.612-17.66-13.558-6.047-.774-12.303.481-17.095 4.247-4.561 3.62-8.746 10.023-7.218 21.238l15.483-1.59s-.104-11.738 7.282-10.085c5.398 1.213 7.533 7.909 4.101 12.261-1.548 1.967-3.871 4.268-7.281 6.905 0 0-21.72 18.329-7.136 33.834 0 0 6.759 7.365 20.255 4.205C-4.498 20.296 2.302 10.274 0 0" clip-path="url(#e)" style="fill:#271d61;fill-opacity:1;fill-rule:nonzero;stroke:none" transform="matrix(1.33333 0 0 -1.33333 1657.976 1756.973)"/><path d="M0 0h-9.792l8.474 26.176H0Zm8.872 44.296H-7.03L-30.8-22.891l14.061-.188 3.306 9.269H2.051l.251-12.47H15.84Z" clip-path="url(#f)" style="fill:#271d61;fill-opacity:1;fill-rule:nonzero;stroke:none" transform="matrix(1.33333 0 0 -1.33333 1529.503 1771.759)"/><path d="M0 0v-26.176h-9.792L-1.318 0Z" clip-path="url(#g)" style="fill:#fff;fill-opacity:1;fill-rule:nonzero;stroke:none" transform="matrix(1.33333 0 0 -1.33333 1529.503 1736.858)"/><path d="m0 0 19.501-38.73-17.095.523-10.817 25.925-4.813-5.357v-19.898h-13.077l2.406 69.634s13.077-.042 14.019 0c.941.042-1.214-26.364-1.214-26.364L2.95 30.842h17.22z" clip-path="url(#h)" style="fill:#271d61;fill-opacity:1;fill-rule:nonzero;stroke:none" transform="matrix(1.33333 0 0 -1.33333 1425.218 1746.176)"/><path d="M0 0c-16.446-3.41-23.163 20.359-25.192 29.984-.565 2.72-1.151 5.419-1.737 8.118-.942 4.311-1.297 8.077-1.256 11.341.189 15.672 16.53 26.699 30.717 20.003 10.504-4.959 13.245-16.55 13.245-16.55L.544 49.694c-7.533 9.772-11.215 7.721-12.973 4.52-1.213-2.26-1.423-4.938-.858-7.47l5.859-26.218c.607-2.761 2.553-5.126 5.231-5.963 8.014-2.448 8.621 10.818 8.621 10.818l14.416 1.862C23.246.272 0 0 0 0" clip-path="url(#i)" style="fill:#271d61;fill-opacity:1;fill-rule:nonzero;stroke:none" transform="matrix(1.33333 0 0 -1.33333 996.585 1834.335)"/><path d="m0 0-15.316-1.067-3.746 26.699-12.805-.879 3.724-27.787-15.128-1.611-9.98 68.024 14.604 2.155 3.913-26.72 12.827.9-3.746 29.188 14.438.9z" clip-path="url(#j)" style="fill:#271d61;fill-opacity:1;fill-rule:nonzero;stroke:none" transform="matrix(1.33333 0 0 -1.33333 1133.12 1810.928)"/><path d="m0 0-36.847-2.155-5.356 68.4 35.989 1.632.523-12.324-21.364-.544.524-12.806 21.195.712.9-14.793-20.484-.356.899-14.417 22.954.879z" clip-path="url(#k)" style="fill:#271d61;fill-opacity:1;fill-rule:nonzero;stroke:none" transform="matrix(1.33333 0 0 -1.33333 1233.779 1800.243)"/><path d="M0 0c0-5.315-4.31-9.625-9.625-9.625h-4.415v20.84h5.963C-3.62 11.215 0 7.595 0 3.139Zm4.499-19.187S25.946.209 8.035 18.559c-2.469 2.553-5.65 4.436-9.123 5.19a14 14 0 0 1-2.26.334h-24.753v-69.634h15.149v24.585h3.725l12.47-24.585h16.028z" clip-path="url(#l)" style="fill:#271d61;fill-opacity:1;fill-rule:nonzero;stroke:none" transform="matrix(1.33333 0 0 -1.33333 1319.455 1735.49)"/><path d="M0 0v-3.139c0-5.314-4.31-9.625-9.625-9.625h-4.415V8.077h5.963A8.08 8.08 0 0 0 0 0" clip-path="url(#m)" style="fill:#fff;fill-opacity:1;fill-rule:nonzero;stroke:none" transform="matrix(1.33333 0 0 -1.33333 1319.455 1731.306)"/><path d="M0 0v-33.604l-59.298-89.533-16.572-25.967V-.314l.209.314Z" clip-path="url(#n)" style="fill:#fff;fill-opacity:1;fill-rule:nonzero;stroke:none" transform="matrix(1.33333 0 0 -1.33333 1233.081 851.832)"/><path d="M0 0v-349.513h-14.061v55.553H-75.87v178.46l16.572 25.967z" clip-path="url(#o)" style="fill:#ec5e9d;fill-opacity:1;fill-rule:nonzero;stroke:none" transform="matrix(1.33333 0 0 -1.33333 1233.081 896.637)"/><path d="M0 0v-140.002h-46.074c-18.748 0-30.089 20.694-20.004 36.491z" clip-path="url(#p)" style="fill:#ec5e9d;fill-opacity:1;fill-rule:nonzero;stroke:none" transform="matrix(1.33333 0 0 -1.33333 1051.908 1175.986)"/><path d="M0 0c0-115.542-93.655-209.218-209.197-209.218-53.816 0-102.904 20.317-139.96 53.732h187.185c91.5 0 145.526 102.548 93.802 178l-45.572 66.496-35.466 51.724 22.095 51.745c21.51-9.186 41.179-21.886 58.295-37.37C-26.552 116.839 0 61.516 0 0" clip-path="url(#q)" style="fill:#92c46a;fill-opacity:1;fill-rule:nonzero;stroke:none" transform="matrix(1.33333 0 0 -1.33333 1834.406 1268.358)"/><path d="M0 0h-67.772l16.801 39.379 9.542 22.347 8.432-12.534z" clip-path="url(#r)" style="fill:#92c46a;fill-opacity:1;fill-rule:nonzero;stroke:none" transform="matrix(1.33333 0 0 -1.33333 1637.108 1288.584)"/><path d="m0 0-5.273-12.24-9.374 13.663C-9.709 1.13-4.833.649 0 0" clip-path="url(#s)" style="fill:#92c46a;fill-opacity:1;fill-rule:nonzero;stroke:none" transform="matrix(1.33333 0 0 -1.33333 1592.805 991.911)"/><path d="M0 0v-85.955h-5.859l-30.36 132.908c4.164-1.799 7.93-4.792 10.734-8.976z" clip-path="url(#t)" style="fill:#ec5e9d;fill-opacity:1;fill-rule:nonzero;stroke:none" transform="matrix(1.33333 0 0 -1.33333 1364.846 882.883)"/><path d="m0 0-40.028-93.258-9.604 14.312v.021l-52.079 77.586-2.009 2.992-61.976 92.358-25.486 37.977c-2.804 4.184-6.57 7.177-10.734 8.976l-2.448 10.776-4.771 20.861h-95.12l3.578 5.503c30.779 47.372 90.036 60.114 136.048 37.747 15.818-7.7 30.067-19.543 41.052-35.571l19.857-28.958 22.996-33.562 38.207-55.742 33.143-48.355z" clip-path="url(#u)" style="fill:#fff;fill-opacity:1;fill-rule:nonzero;stroke:none" transform="matrix(1.33333 0 0 -1.33333 1585.775 1008.231)"/><path d="m0 0-21.363-49.778a198 198 0 0 1-14.647 1.423L-69.154 0Z" clip-path="url(#v)" style="fill:#2bbdef;fill-opacity:1;fill-rule:nonzero;stroke:none" transform="matrix(1.33333 0 0 -1.33333 1621.29 925.54)"/><path d="M0 0c0-45.844-10.671-89.178-29.67-127.678-17.116 15.484-36.784 28.185-58.294 37.371l27.285 63.922v56.453H-228.05l-22.995 33.562v66.328l-60.909 58.42v-60.219c-46.012 22.367-105.269 9.625-136.048-37.747l-3.578-5.503h-36.658v-3.808a251.3 251.3 0 0 1-85.056-29.021c24.502 134.75 142.471 236.9 284.293 236.9C-129.393 288.98 0 159.608 0 0" clip-path="url(#w)" style="fill:#2bbdef;fill-opacity:1;fill-rule:nonzero;stroke:none" transform="matrix(1.33333 0 0 -1.33333 1782.208 891.309)"/><path d="M0 0h-33.436v165.257h7.281L-10.65 67.27Z" clip-path="url(#x)" style="fill:#92c46a;fill-opacity:1;fill-rule:nonzero;stroke:none" transform="matrix(1.33333 0 0 -1.33333 1357.676 1362.655)"/><path d="m0 0-35.78-35.424-20.317-20.129h-132.134l.878 47.832.189 10.399 5.168 12.052 30.905 71.958v.021l13.014 30.297 40.028 93.258 5.273 12.241 21.363 49.778h-69.154l-38.207 55.741h167.371v-56.453l-27.285-63.922-22.096-51.745-40.195-94.178-9.541-22.347L-127.322 0Z" clip-path="url(#y)" style="fill:#271d61;fill-opacity:1;fill-rule:nonzero;stroke:none" transform="matrix(1.33333 0 0 -1.33333 1716.507 1288.584)"/><path d="M0 0v-66.329L-19.857-37.37C-30.842-21.342-45.091-9.499-60.91-1.799V58.42Z" clip-path="url(#z)" style="fill:#271d61;fill-opacity:1;fill-rule:nonzero;stroke:none" transform="matrix(1.33333 0 0 -1.33333 1447.482 718.031)"/><path d="M0 0v-322.856h-58.587l-4.122 26.009-4.645 29.377-10.65 67.27-15.505 97.987h-7.281v-303.753l-53.001 53.733-7.009 7.114v460.765h-76.393v55.302h131.778l4.771-20.861 2.448-10.776L-67.835 6.403h5.858v85.955z" clip-path="url(#A)" style="fill:#271d61;fill-opacity:1;fill-rule:nonzero;stroke:none" transform="matrix(1.33333 0 0 -1.33333 1447.482 1006.028)"/><path d="M0 0v-55.553h-121.819v329.259h-68.735l38.814 37.976v.021l16.216 15.861h73.715V0Z" clip-path="url(#B)" style="fill:#271d61;fill-opacity:1;fill-rule:nonzero;stroke:none" transform="matrix(1.33333 0 0 -1.33333 1214.333 1288.584)"/><path d="m0 0-38.814-37.977h68.735v-38.814l-16.488-25.36L-70.869-231.9l-34.085-52.393c-13.517 30.988-21.008 65.199-21.008 101.146 0 95.288 52.582 178.272 130.314 221.5a251.3 251.3 0 0 0 85.056 29.022V15.881H16.216L0 .021Z" clip-path="url(#C)" style="fill:#ec5e9d;fill-opacity:1;fill-rule:nonzero;stroke:none" transform="matrix(1.33333 0 0 -1.33333 1012.013 873.007)"/><path d="M0 0v-26.992h34.19v-24.836H.544v-55.825h-28.582V25.632h66.517V0Z" clip-path="url(#D)" style="fill:#271d61;fill-opacity:1;fill-rule:nonzero;stroke:none" transform="matrix(1.33333 0 0 -1.33333 1269.043 1926.205)"/><path d="M0 0v2.678a14.52 14.52 0 0 1-4.268 10.295 14.45 14.45 0 0 1-10.295 4.268c-8.035 0-14.542-6.528-14.542-14.563v-57.164c0-8.035 6.507-14.563 14.542-14.563C-6.507-69.049 0-62.521 0-54.486v2.678h27.515v-2.803c0-21.699-17.576-39.275-39.253-39.275h-5.629c-21.677 0-39.253 17.576-39.253 39.275V2.804c0 21.698 17.576 39.274 39.253 39.274h5.629c21.677 0 39.253-17.576 39.253-39.274V0Z" clip-path="url(#E)" style="fill:#271d61;fill-opacity:1;fill-rule:nonzero;stroke:none" transform="matrix(1.33333 0 0 -1.33333 1412.218 1945.985)"/><path d="M0 0c-72.773-143.14-235.059-292.914-235.059-292.914C-379.392-146.195-443.67-46.033-469.407 1.318c65.178-65.513 142.827-130.398 235.101-190.177 0 0 108.972 63.169 234.306 188.859" clip-path="url(#F)" style="fill:#271d61;fill-opacity:1;fill-rule:nonzero;stroke:none" transform="matrix(1.33333 0 0 -1.33333 1646.733 2008.283)"/><path d="M0 0v-20.485C-95.476 4.687-248.241 30.674-475.245 32.788c0 0-281.3-4.708-475.851-53.796V.167S-811.01 123.932-427.58 113.261c0 0 277.284 2.134 427.58-113.261" clip-path="url(#G)" style="fill:#271d61;fill-opacity:1;fill-rule:nonzero;stroke:none" transform="matrix(1.33333 0 0 -1.33333 1966.98 422.418)"/></svg>