<svg xmlns="http://www.w3.org/2000/svg" viewBox="632 325.78 1402.66 2015.12"><defs><clipPath id="a" clipPathUnits="userSpaceOnUse"><path d="M-1506.24 889.867h2000v-2000h-2000Z"/></clipPath><clipPath id="b" clipPathUnits="userSpaceOnUse"><path d="M-1078.77 1517.564h2000v-2000h-2000Z"/></clipPath><clipPath id="c" clipPathUnits="userSpaceOnUse"><path d="M-1469.201 778.609h2000v-2000h-2000Z"/></clipPath><clipPath id="d" clipPathUnits="userSpaceOnUse"><path d="M-1424.39 553.472h2000v-2000h-2000Z"/></clipPath><clipPath id="e" clipPathUnits="userSpaceOnUse"><path d="M-654.062 546.495h2000v-2000h-2000Z"/></clipPath><clipPath id="f" clipPathUnits="userSpaceOnUse"><path d="M-654.062 454.014h2000v-2000h-2000Z"/></clipPath><clipPath id="g" clipPathUnits="userSpaceOnUse"><path d="M-891.561 520.975h2000v-2000h-2000Z"/></clipPath><clipPath id="h" clipPathUnits="userSpaceOnUse"><path d="M-891.561 428.494h2000v-2000h-2000Z"/></clipPath><clipPath id="i" clipPathUnits="userSpaceOnUse"><path d="M-1139.034 520.975h2000v-2000h-2000Z"/></clipPath><clipPath id="j" clipPathUnits="userSpaceOnUse"><path d="M-1139.034 428.494h2000v-2000h-2000Z"/></clipPath><clipPath id="k" clipPathUnits="userSpaceOnUse"><path d="M-778.01 524.16h2000v-2000h-2000Z"/></clipPath><clipPath id="l" clipPathUnits="userSpaceOnUse"><path d="M-778.01 513.39h2000v-2000h-2000Z"/></clipPath><clipPath id="m" clipPathUnits="userSpaceOnUse"><path d="M-1056.528 389.676h2000v-2000h-2000Z"/></clipPath><clipPath id="n" clipPathUnits="userSpaceOnUse"><path d="M-1304.047 407.61h2000v-2000h-2000Z"/></clipPath><clipPath id="o" clipPathUnits="userSpaceOnUse"><path d="M-1388.52 543.217h2000v-2000h-2000Z"/></clipPath><clipPath id="p" clipPathUnits="userSpaceOnUse"><path d="M-1388.52 535.631h2000v-2000h-2000Z"/></clipPath><clipPath id="q" clipPathUnits="userSpaceOnUse"><path d="M-1219.528 1187.069h2000v-2000h-2000Z"/></clipPath><clipPath id="r" clipPathUnits="userSpaceOnUse"><path d="M-989.895 1418.621h2000v-2000h-2000Z"/></clipPath><clipPath id="s" clipPathUnits="userSpaceOnUse"><path d="M-989.895 1405.276h2000v-2000h-2000Z"/></clipPath><clipPath id="t" clipPathUnits="userSpaceOnUse"><path d="M-956.32 1391.134h2000v-2000h-2000Z"/></clipPath><clipPath id="u" clipPathUnits="userSpaceOnUse"><path d="M-1082.844 1455.894h2000v-2000h-2000Z"/></clipPath><clipPath id="v" clipPathUnits="userSpaceOnUse"><path d="M-967.418 1559.894h2000v-2000h-2000Z"/></clipPath><clipPath id="w" clipPathUnits="userSpaceOnUse"><path d="M-1011.903 1499.208h2000v-2000h-2000Z"/></clipPath><clipPath id="x" clipPathUnits="userSpaceOnUse"><path d="M0 2000h2000V0H0Z"/></clipPath><clipPath id="y" clipPathUnits="userSpaceOnUse"><path d="M0 2000h2000V0H0Z"/></clipPath><clipPath id="z" clipPathUnits="userSpaceOnUse"><path d="M0 2000h2000V0H0Z"/></clipPath><clipPath id="A" clipPathUnits="userSpaceOnUse"><path d="M-1065.612 1514.707h2000v-2000h-2000Z"/></clipPath></defs><path d="M0 0c-13.86-223.967-51.181-326.328-51.181-326.328-79.837-236.61-211.932-355.593-234.876-374.932-2.95-2.529-5.9-5.058-8.804-7.633-136.075-120.623-180.325-130.69-180.325-130.69-69.349-26.316-208.842 98.802-208.842 98.802-279.268 242.322-316.354 573.941-321.27 662.816-1.124 20.65-2.81 41.3-4.589 61.904-25.988 298.138 32.544 525.429 32.544 525.429 18.355 95.196 471.627 113.599 471.627 113.599 276.037-1.826 401.342-55.91 445.17-81.43 13.72-7.96 23.788-20.884 28.002-36.196 6.134-22.242 11.847-55.207 16.857-90.701C3.699 277.348 8.522 138.369 0 0m-.562 430.842c-5.198 36.571-11.051 70.519-17.372 93.464-4.355 15.78-14.75 29.078-28.892 37.32-45.186 26.269-174.331 81.991-458.89 83.911 0 0-467.179-18.964-486.097-117.111 0 0-60.358-234.268-33.573-541.584 1.826-21.259 3.558-42.518 4.729-63.824 5.057-91.59 43.314-433.464 331.15-683.185 0 0 143.802-129.004 215.258-101.892 0 0 45.655 10.395 185.897 134.717a479 479 0 0 0 9.084 7.867c23.647 19.947 159.816 142.584 242.088 386.498 0 0 38.444 105.498 52.726 336.348 8.85 142.678 3.887 285.917-16.108 427.471" clip-path="url(#a)" style="fill:#fff;fill-opacity:1;fill-rule:nonzero;stroke:none" transform="matrix(1.33333 0 0 -1.33333 2008.32 1186.489)"/><path d="M0 0v1.358C0 10.91-7.68 18.59-17.185 18.59h-20.322v-61.155h21.867C-6.977-42.565 0-35.588 0-26.972v6.603a10.05 10.05 0 0 1-10.068 10.067C-4.495-10.115 0-5.572 0 0" clip-path="url(#b)" style="fill:#1b5632;fill-opacity:1;fill-rule:nonzero;stroke:none" transform="matrix(1.33333 0 0 -1.33333 1438.36 2023.418)"/><path d="M0 0h-201.444l9.553-23.928c13.766-22.102-62.138-57.97-62.138-57.97l-25.707-104c-13.158-53.194-40.644-45.421-40.644-45.421l-14.938-23.928 59.75-80.68c81.898 0 57.408-77.731 57.408-77.731h164.967c-47.81-194.888-210.435-352.081-210.435-352.081v323.986h-53.381l-63.168 66.961-19.104-29.313c46.591-4.776 59.14-34.042 59.14-34.042 19.807-37.601 13.299-56.425 4.027-65.697-5.666-5.665-13.626-8.428-21.633-8.428h-222.984c-5.525 0-11.05 1.311-15.593 4.495-21.82 15.218-8.615 53.475-8.615 53.475-33.481-25.099-67.523 2.388-67.523 2.388v-318.039c-180.559 193.717-211.652 358.075-211.652 358.075h171.57c-34.043 53.802-8.944 82.506-8.944 82.506-56.191 96.227-8.804 150.826-8.804 150.826-8.428 4.12-11.425 11.8-12.221 19.011-.89 8.475 1.545 16.951 6.134 24.068L-611.12 58.204c19.947 30.249 101.236 9.553 101.236 9.553 35.073 84.473 74.921 24.677 74.921 24.677 49.401 25.519 62.981 0 62.981 0 74.125 8.007 43.829-68.507 43.829-68.507-8.804-39.848-47.856-20.743-47.856-20.743-23.085-40.644 29.5-64.573 29.5-64.573 31.888 94.073 82.881 87.704 82.881 87.704v151.809c-231.131 13.954-411.269 0-411.269 0V-2.388h-264.19c3.559 261.801 41.862 390.525 41.862 390.525 43.033 41.441 225.934 64.572 225.934 64.572v-37.835c266.952 10.021 408.459 0 408.459 0v37.835c158.645-14.329 226.355-64.15 226.355-64.15C7.773 221.157 0 0 0 0m-409.021-677.286-20.791 31.702v-31.702h-19.105v87.564h18.403v-34.651l17.325 34.651h22.383l-24.209-39.895 28.657-47.669zm18.59-61.669c0-5.572-4.496-10.114-10.068-10.301a10.053 10.053 0 0 0 10.068-10.068v-6.602c0-8.616-6.977-15.593-15.64-15.593h-21.868v61.154h20.323c9.505 0 17.185-7.68 17.185-17.232zm-39.755 24.022h-7.165v12.736h7.165zm-25.895 12.736h7.164v-12.736h-7.164zm18.73-79.088h-11.566v60.686h11.566zm-19.948 0h-13.345v28.845l-13.532-28.845h-14.142v60.686h13.159v-33.012l13.907 33.012h13.953zm-60.17 0-14.376 21.961v-21.961h-13.251v60.686h12.736v-24.022l11.988 24.022h15.546l-16.764-27.674 19.807-33.012zm28.423 182.62c16.483 0 29.828-13.346 29.828-29.828v-9.272c0-17.185-13.954-31.139-31.186-31.139h-3.044v-8.382h-19.432v8.382h-1.639c-17.232 0-31.233 14.001-31.233 31.233v7.164c0 17.607 14.235 31.842 31.842 31.842h1.03v8.943h19.432v-8.943zM21.353 303.383c-5.011 35.493-10.723 68.459-16.858 90.701C.281 409.396-9.786 422.32-23.507 430.28c-43.828 25.52-169.133 79.603-445.17 81.43 0 0-453.272-18.403-471.627-113.599 0 0-58.532-227.291-32.544-525.43 1.779-20.603 3.465-41.253 4.589-61.904 4.916-88.874 42.002-420.493 321.27-662.816 0 0 139.494-125.117 208.842-98.801 0 0 44.251 10.067 180.326 130.69 2.903 2.575 5.853 5.104 8.803 7.632 22.944 19.339 155.039 138.323 234.877 374.933 0 0 37.32 102.36 51.18 326.327 8.522 138.37 3.7 277.348-15.686 414.641" clip-path="url(#c)" style="fill:#1b5632;fill-opacity:1;fill-rule:nonzero;stroke:none" transform="matrix(1.33333 0 0 -1.33333 1958.935 1038.145)"/><path d="M0 0c0-41.44-37.086-36.243-37.086-36.243l-64.526 8.757v169.368l39.849-4.355V70.941C11.94 62.606 0 0 0 0m-120.342-22.71-39.895 4.402v71.737l-25.473 1.966v-70.52l-39.474 2.014v170.96l39.052-3.184V86.487l24.303-1.967v66.961l41.487-5.619zM-233.519-286.9l-32.31-118.375s-3.98-25.52-29.5-23.506l-17.606-29.454a38.8 38.8 0 0 1-5.479-19.901v-8.335a24.24 24.24 0 0 1 4.823-14.516l64.104-85.597a12 12 0 0 1 9.6-4.776h22.288s30.671-8.99 12.737-42.237h-58.953l-104.047 100.816v-49.823s4.823-23.506-59.749-79.697c0 0 15.124-8.381 30.67-3.98 0 0 86.862 34.651 84.099-40.644h-223.592s4.683 19.76 26.691 41.581c3.137 3.09 4.261 7.82 2.247 11.753-.936 1.779-2.388 3.418-4.729 4.402-7.539 3.184-13.626 9.037-18.59 15.592l-7.211 9.553s-14.703-20.744-33.949-31.467c-13.86-7.773-31.279-5.713-43.547 4.355-13.907 11.332-34.698 32.59-37.742 59.749-1.638 14.938 3.98 29.688 14.142 40.739 9.693 10.488 25.613 25.332 46.497 36.43 10.021 5.338 18.309 13.72 22.758 24.209 5.151 12.268 5.947 28.985-11.566 46.497 0 0-15.874 16.951-36.712 12.316-3.137-.703-6.134-2.248-8.334-4.636-3.747-4.074-6.462-11.426 7.96-20.416 0 0 7.586-31.092-44.999-70.941l-9.74 73.189c-.89 6.696-.422 13.579 1.967 19.9 3.98 10.442 13.766 22.851 37.928 24.303 3.699.234 7.446.702 11.098 1.311 12.549 1.967 43.875 3.325 63.917-27.065 0 0 36.29-47.013-1.592-81.289l-49.214-37.882c-13.298-10.208-19.854-27.534-14.937-43.548 1.685-5.619 4.776-11.238 9.973-16.202 0 0 20.323-31.466 45.421.422 0 0 27.908 43.407 31.889 74.499l74.124 74.921s-74.733 25.52-123.759 113.365c0 0-19.105-32.872-81.898-28.095l125.867 190.533c3.699 5.572 9.318 9.786 15.92 11.003 4.449.797 9.693.422 15.031-2.949 3.887-2.435 8.523-3.044 12.784-1.405 8.944 3.512 23.787 5.76 28.563-14.843 1.499-6.369.843-12.971-1.03-19.246-2.154-7.398-3.699-21.165 5.245-39.614l50.805-104.937s4.496 35.916-13.345 84.38c-4.402 12.034-7.024 24.771-6.883 37.601.046 9.131 1.358 19.245 5.244 28.329 2.81 6.51 3.138 13.814.281 20.276-3.652 8.242-7.211 19.948-4.12 29.687l11.659-6.274v22.101l21.212-18.215s6.275-9.365 45.702 10.724c0 0 10.489 2.715 8.99-10.443h38.866v-33.761h-17.794c-16.67 0-32.169-9.926-37.835-25.614a59 59 0 0 1-1.077-3.418c-5.479-19.058.281-39.567 13.579-54.271l8.897-9.833c8.101-8.99 13.86-19.62 18.543-30.811 3.137-7.492 11.051-14.75 30.624-9.974 0 0 28.095 93.698 74.172 102.454 9.739 1.873 19.76-1.405 27.018-8.147l15.265-14.189zM-244.71 28.002c0-11.94-5.526-23.506-15.406-30.203-4.542-3.043-10.395-5.712-17.841-7.257-14.047-2.95-28.797-1.545-41.721 4.588-11.098 5.245-23.553 15.032-28.096 33.2-1.03 4.167-1.357 8.475-1.357 12.783v81.945c0 23.975 19.666 43.548 43.641 42.799.328 0 .656-.047 1.03-.047 0 0 41.253.608 55.723-32.263 2.903-6.556 4.027-13.767 4.027-20.931zm-123.152-35.54h-40.644v145.065h-21.915V57.034c-.983-24.443-6.508-39.521-11.753-48.465-5.01-8.522-13.439-14.796-23.179-16.717-14.89-2.996-23.646 4.964-23.646 4.964V24.35c21.914 1.17 20.743 22.71 20.743 22.71v116.736h100.394zM-494.15 41.113c0-4.308-.328-8.616-1.358-12.783-4.542-18.168-16.998-27.955-28.096-33.2-12.924-6.133-27.673-7.538-41.721-4.588-7.446 1.545-13.299 4.214-17.841 7.257-9.88 6.697-15.405 18.263-15.405 30.203v84.614c0 7.164 1.123 14.375 4.027 20.931 14.469 32.871 55.722 32.263 55.722 32.263.375 0 .703.047 1.03.047 23.975.749 43.642-18.824 43.642-42.799zm-113.74-16.248c-.374-3.512-.936-7.024-2.06-10.396C-624.606-29.5-711.374-22.71-711.374-22.71v170.585l95.665 7.961V121.56l-56.987-3.185V86.113c65.087 3.512 66.586-43.22 64.806-61.248m-123.807-9.272c0-4.307-.28-8.615-1.311-12.736-4.542-18.215-16.997-28.002-28.095-33.247-12.971-6.134-27.721-7.538-41.722-4.589-7.445 1.546-13.298 4.215-17.84 7.305-9.927 6.696-15.453 18.216-15.453 30.156v84.614c0 7.164 1.171 14.376 4.074 20.931 14.47 32.918 55.723 32.263 55.723 32.263.327.047.702.047 1.03.047 23.928.749 43.594-18.824 43.594-42.752zM8.335 163.422s-67.71 49.822-226.355 64.151v-37.836s-141.507 10.022-408.459 0v37.836S-809.38 204.441-852.413 163c0 0-38.303-128.723-41.862-390.525h264.19v180.512s180.138 13.954 411.269 0v-151.808s-50.993 6.368-82.881-87.705c0 0-52.585 23.929-29.5 64.573 0 0 39.052-19.105 47.855 20.744 0 0 30.297 76.513-43.828 68.506 0 0-13.58 25.52-62.981 0 0 0-39.848 59.796-74.921-24.677 0 0-81.289 20.696-101.237-9.553l-125.258-193.67c-4.589-7.118-7.024-15.593-6.134-24.069.796-7.211 3.793-14.89 12.221-19.011 0 0-47.387-54.599 8.804-150.825 0 0-25.099-28.704 8.943-82.507h-171.569s31.093-164.358 211.652-358.075v318.039s34.042-27.486 67.522-2.388c0 0-13.204-38.256 8.616-53.475 4.542-3.184 10.068-4.495 15.593-4.495h222.984c8.007 0 15.967 2.763 21.633 8.429 9.272 9.271 15.78 28.095-4.027 65.696 0 0-12.549 29.266-59.141 34.042l19.105 29.313 63.168-66.961h53.381v-323.986S-56.191-833.682-8.381-638.794h-164.967s24.49 77.73-57.409 77.73l-59.749 80.681 14.938 23.928s27.486-7.773 40.644 45.42l25.707 104s75.904 35.868 62.138 57.97l-9.553 23.928H44.812S52.585-3.979 8.335 163.422" clip-path="url(#d)" style="fill:#fff;fill-opacity:1;fill-rule:nonzero;stroke:none" transform="matrix(1.33333 0 0 -1.33333 1899.186 737.963)"/><path d="M0 0c0-6.931-5.619-12.55-12.549-12.55S-25.098-6.931-25.098 0v92.48c0 6.931 5.619 12.55 12.549 12.55 3.465 0 6.602-1.405 8.897-3.699A12.5 12.5 0 0 0 0 92.48Zm-4.964 133.359c-.327 0-.702 0-1.03-.047 0 0-41.253.656-55.722-32.263-2.903-6.555-4.074-13.766-4.074-20.931V-4.496c0-11.94 5.525-23.459 15.452-30.155 4.543-3.09 10.396-5.76 17.841-7.305 14.001-2.95 28.751-1.545 41.722 4.589C20.322-32.122 32.778-22.336 37.32-4.121 38.35 0 38.631 4.308 38.631 8.616v81.991c0 23.928-19.667 43.502-43.595 42.752" clip-path="url(#e)" style="fill:#f52e1a;fill-opacity:1;fill-rule:nonzero;stroke:none" transform="matrix(1.33333 0 0 -1.33333 872.082 728.66)"/><path d="M0 0v-92.48c0-6.931-5.619-12.55-12.549-12.55s-12.549 5.619-12.549 12.55V0c0 6.93 5.619 12.55 12.549 12.55 3.465 0 6.602-1.405 8.897-3.7A12.5 12.5 0 0 0 0 0" clip-path="url(#f)" style="fill:#fff;fill-opacity:1;fill-rule:nonzero;stroke:none" transform="matrix(1.33333 0 0 -1.33333 872.082 605.352)"/><path d="M0 0c0-6.93-5.619-12.549-12.549-12.549-6.931 0-12.55 5.619-12.55 12.549v92.481c0 6.93 5.619 12.549 12.55 12.549 3.465 0 6.602-1.405 8.896-3.652C-1.405 99.083 0 95.946 0 92.481Zm-4.964 133.36c-.327 0-.655-.047-1.03-.047 0 0-41.253.608-55.722-32.264-2.904-6.555-4.027-13.766-4.027-20.93V-4.495c0-11.94 5.525-23.507 15.405-30.203 4.542-3.043 10.396-5.713 17.841-7.258 14.048-2.95 28.798-1.545 41.721 4.589 11.098 5.245 23.554 15.032 28.096 33.2C38.35 0 38.678 4.308 38.678 8.616v81.945c0 23.975-19.667 43.548-43.642 42.799" clip-path="url(#g)" style="fill:#f52e1a;fill-opacity:1;fill-rule:nonzero;stroke:none" transform="matrix(1.33333 0 0 -1.33333 1188.748 694.633)"/><path d="M0 0v-92.481c0-6.93-5.619-12.549-12.549-12.549-6.931 0-12.55 5.619-12.55 12.549V0c0 6.931 5.619 12.549 12.55 12.549 3.465 0 6.602-1.405 8.896-3.652C-1.405 6.603 0 3.466 0 0" clip-path="url(#h)" style="fill:#fff;fill-opacity:1;fill-rule:nonzero;stroke:none" transform="matrix(1.33333 0 0 -1.33333 1188.748 571.326)"/><path d="M0 0c0-6.93-5.619-12.549-12.549-12.549S-25.098-6.93-25.098 0v92.481c0 3.465 1.404 6.602 3.699 8.897a12.5 12.5 0 0 0 8.85 3.652C-5.619 105.03 0 99.411 0 92.481Zm36.618 101.049c-14.47 32.872-55.723 32.264-55.723 32.264-.374 0-.702.047-1.03.047-23.975.749-43.641-18.824-43.641-42.799V8.616c0-4.308.327-8.616 1.357-12.783 4.543-18.168 16.998-27.955 28.096-33.2 12.924-6.134 27.674-7.539 41.722-4.589 7.445 1.545 13.298 4.215 17.84 7.258 9.88 6.696 15.406 18.263 15.406 30.203v84.614c0 7.164-1.124 14.375-4.027 20.93" clip-path="url(#i)" style="fill:#f52e1a;fill-opacity:1;fill-rule:nonzero;stroke:none" transform="matrix(1.33333 0 0 -1.33333 1518.712 694.633)"/><path d="M0 0v-92.481c0-6.93-5.619-12.549-12.549-12.549s-12.549 5.619-12.549 12.549V0c0 3.466 1.404 6.603 3.699 8.897a12.5 12.5 0 0 0 8.85 3.652C-5.619 12.549 0 6.931 0 0" clip-path="url(#j)" style="fill:#fff;fill-opacity:1;fill-rule:nonzero;stroke:none" transform="matrix(1.33333 0 0 -1.33333 1518.712 571.326)"/><path d="M0 0c0-10.676-8.663-19.339-19.339-19.339h-6.603v47.06h8.991C-7.586 27.721 0 20.135 0 10.77Zm-26.316 56.8v32.262l56.987 3.185v34.276l-95.665-7.96V-52.023s86.768-6.79 101.424 37.18c1.124 3.371 1.686 6.883 2.06 10.395 1.78 18.028.281 64.76-64.806 61.248" clip-path="url(#k)" style="fill:#f52e1a;fill-opacity:1;fill-rule:nonzero;stroke:none" transform="matrix(1.33333 0 0 -1.33333 1037.346 698.88)"/><path d="M0 0v-10.77c0-10.676-8.663-19.339-19.339-19.339h-6.603v47.06h8.991C-7.586 16.951 0 9.365 0 0" clip-path="url(#l)" style="fill:#fff;fill-opacity:1;fill-rule:nonzero;stroke:none" transform="matrix(1.33333 0 0 -1.33333 1037.346 684.52)"/><path d="M0 0v-171.335h-40.645v145.066h-21.914v-80.493c-.983-24.443-6.509-39.521-11.753-48.465-5.011-8.522-13.439-14.796-23.179-16.717-14.89-2.996-23.647 4.964-23.647 4.964v27.533c21.915 1.171 20.744 22.711 20.744 22.711V0Z" clip-path="url(#m)" style="fill:#f52e1a;fill-opacity:1;fill-rule:nonzero;stroke:none" transform="matrix(1.33333 0 0 -1.33333 1408.704 519.568)"/><path d="M0 0v-168.572l-39.895 4.401v71.737l-25.473 1.967v-70.52l-39.474 2.014v170.96l39.052-3.184v-68.178l24.303-1.967V5.619Z" clip-path="url(#n)" style="fill:#f52e1a;fill-opacity:1;fill-rule:nonzero;stroke:none" transform="matrix(1.33333 0 0 -1.33333 1738.73 543.48)"/><path d="M0 0c0-9.365-7.586-16.904-16.904-16.904h-11.519v48.418h4.495C-10.723 31.514 0 20.791 0 7.586Zm-25.895 60.686v66.586l-39.848 4.355V-37.741l64.525-8.757s37.087-5.197 37.087 36.243c0 0 11.94 62.606-61.764 70.941" clip-path="url(#o)" style="fill:#f52e1a;fill-opacity:1;fill-rule:nonzero;stroke:none" transform="matrix(1.33333 0 0 -1.33333 1851.361 724.29)"/><path d="M0 0v-7.586C0-16.951-7.586-24.49-16.904-24.49h-11.519v48.418h4.495C-10.723 23.928 0 13.205 0 0" clip-path="url(#p)" style="fill:#fff;fill-opacity:1;fill-rule:nonzero;stroke:none" transform="matrix(1.33333 0 0 -1.33333 1851.361 714.175)"/><path d="M0 0h-58.954L-163 100.816V50.993s4.823-23.506-59.749-79.697c0 0 15.124-8.382 30.67-3.98 0 0 86.862 34.651 84.099-40.645h-223.592s4.683 19.761 26.691 41.581c3.137 3.091 4.261 7.82 2.247 11.754-.936 1.779-2.388 3.418-4.729 4.401-7.539 3.184-13.626 9.038-18.59 15.593l-7.211 9.553s-14.703-20.744-33.949-31.467c-13.86-7.773-31.279-5.713-43.547 4.354-13.908 11.332-34.698 32.591-37.742 59.75-1.639 14.937 3.98 29.687 14.142 40.738 9.692 10.489 25.613 25.333 46.497 36.431 10.021 5.338 18.309 13.719 22.758 24.208 5.15 12.269 5.946 28.985-11.566 46.498 0 0-15.874 16.951-36.712 12.315-3.137-.702-6.134-2.247-8.334-4.635-3.747-4.074-6.462-11.426 7.96-20.417 0 0 7.585-31.092-45-70.94l-9.739 73.188c-.89 6.696-.422 13.58 1.966 19.901 3.98 10.442 13.767 22.851 37.929 24.303 3.699.234 7.445.702 11.098 1.311 12.549 1.966 43.875 3.324 63.917-27.065 0 0 36.29-47.013-1.592-81.29l-49.214-37.882c-13.299-10.208-19.854-27.533-14.938-43.547 1.686-5.619 4.777-11.239 9.974-16.202 0 0 20.323-31.467 45.421.421 0 0 27.908 43.408 31.888 74.5l74.125 74.921s-74.733 25.52-123.76 113.365c0 0-19.105-32.872-81.898-28.096l125.868 190.534c3.699 5.572 9.318 9.786 15.92 11.003 4.449.796 9.693.422 15.031-2.949 3.887-2.435 8.523-3.044 12.784-1.405 8.943 3.512 23.787 5.759 28.563-14.844 1.499-6.368.843-12.97-1.03-19.245-2.154-7.399-3.699-21.166 5.244-39.615l50.806-104.936s4.495 35.915-13.345 84.38c-4.402 12.034-7.024 24.77-6.883 37.601.046 9.131 1.358 19.245 5.244 28.329 2.81 6.509 3.137 13.814.281 20.276-3.652 8.241-7.211 19.948-4.121 29.687l11.66-6.274v22.101l21.212-18.215s6.275-9.365 45.702 10.723c0 0 10.488 2.716 8.99-10.442h38.866v-33.761h-17.794c-16.67 0-32.169-9.927-37.835-25.614a58 58 0 0 1-1.077-3.418c-5.479-19.058.281-39.567 13.579-54.271l8.897-9.833c8.101-8.991 13.86-19.62 18.543-30.812 3.137-7.492 11.051-14.749 30.624-9.973 0 0 28.095 93.698 74.171 102.454 9.74 1.873 19.761-1.405 27.019-8.148l15.265-14.188-57.361-36.664-32.31-118.375s-3.98-25.52-29.5-23.507l-17.607-29.453a38.83 38.83 0 0 1-5.478-19.901v-8.335a24.24 24.24 0 0 1 4.823-14.516l64.104-85.597a12 12 0 0 1 9.599-4.776h22.289S17.934 33.246 0 0" clip-path="url(#q)" style="fill:#f52e1a;fill-opacity:1;fill-rule:nonzero;stroke:none" transform="matrix(1.33333 0 0 -1.33333 1626.037 1582.758)"/><path d="M0 0c0-7.82-6.322-14.141-14.141-14.141v41.628C-6.322 27.487 0 21.165 0 13.345Zm-33.574-14.141c-7.82 0-14.141 6.321-14.141 14.141v13.345c0 3.934 1.592 7.446 4.12 10.021 2.576 2.528 6.135 4.121 10.021 4.121zM-9.74 41.347h-4.401v8.944h-19.433v-8.944h-1.03c-17.607 0-31.841-14.235-31.841-31.842V2.341c0-17.232 14-31.233 31.232-31.233h1.639v-8.381h19.433v8.381h3.043c17.232 0 31.186 13.955 31.186 31.14v9.271c0 16.483-13.345 29.828-29.828 29.828" clip-path="url(#r)" style="fill:#fff;fill-opacity:1;fill-rule:nonzero;stroke:none" transform="matrix(1.33333 0 0 -1.33333 1319.86 1891.495)"/><path d="M0 0v-13.345c0-7.82-6.322-14.142-14.141-14.142v41.628C-6.322 14.141 0 7.82 0 0" clip-path="url(#s)" style="fill:#1b5632;fill-opacity:1;fill-rule:nonzero;stroke:none" transform="matrix(1.33333 0 0 -1.33333 1319.86 1873.701)"/><path d="M0 0v-41.628c-7.82 0-14.141 6.321-14.141 14.141v13.346c0 3.933 1.592 7.445 4.12 10.02C-7.445-1.592-3.886 0 0 0" clip-path="url(#t)" style="fill:#1b5632;fill-opacity:1;fill-rule:nonzero;stroke:none" transform="matrix(1.33333 0 0 -1.33333 1275.094 1854.846)"/><path d="M0 0h-22.664l-20.79 31.701V0h-19.105v87.564h18.403V52.913l17.325 34.651h22.383l-24.209-39.896Z" clip-path="url(#u)" style="fill:#fff;fill-opacity:1;fill-rule:nonzero;stroke:none" transform="matrix(1.33333 0 0 -1.33333 1443.792 1941.193)"/><path d="M0 0h-15.686l-14.376 21.961V0h-13.252v60.686h12.737V36.664l11.987 24.022h15.547l-16.764-27.674Z" clip-path="url(#v)" style="fill:#fff;fill-opacity:1;fill-rule:nonzero;stroke:none" transform="matrix(1.33333 0 0 -1.33333 1289.891 2079.859)"/><path d="M0 0v-60.686h-13.345v28.845l-13.533-28.845h-14.141V0h13.158v-33.012L-13.954 0Z" clip-path="url(#w)" style="fill:#fff;fill-opacity:1;fill-rule:nonzero;stroke:none" transform="matrix(1.33333 0 0 -1.33333 1349.204 1998.944)"/><path d="M1031.85 440.106h-11.566v60.686h11.566z" clip-path="url(#x)" style="fill:#fff;fill-opacity:1;fill-rule:nonzero;stroke:none" transform="matrix(1.33333 0 0 -1.33333 0 2666.667)"/><path d="M1020.285 506.458h-7.164v12.736h7.164z" clip-path="url(#y)" style="fill:#fff;fill-opacity:1;fill-rule:nonzero;stroke:none" transform="matrix(1.33333 0 0 -1.33333 0 2666.667)"/><path d="M1039.015 506.458h-7.165v12.736h7.165z" clip-path="url(#z)" style="fill:#fff;fill-opacity:1;fill-rule:nonzero;stroke:none" transform="matrix(1.33333 0 0 -1.33333 0 2666.667)"/><path d="M0 0a5.235 5.235 0 0 0-5.244-5.244h-7.774V7.82h9.038C-1.779 7.82 0 6.04 0 3.746Zm0-29.266a5.855 5.855 0 0 0-5.853-5.853h-7.165v16.248h8.57c2.435 0 4.448-2.013 4.448-4.495zm13.158 26.41v1.358c0 9.552-7.679 17.231-17.185 17.231h-20.322v-61.154h21.867c8.663 0 15.64 6.977 15.64 15.593v6.602A10.05 10.05 0 0 1 3.09-13.158c5.573.187 10.068 4.729 10.068 10.302" clip-path="url(#A)" style="fill:#fff;fill-opacity:1;fill-rule:nonzero;stroke:none" transform="matrix(1.33333 0 0 -1.33333 1420.816 2019.61)"/></svg>