<svg xmlns="http://www.w3.org/2000/svg" viewBox="2 2 168.21 250"><path d="M78.459 276.109v30.563c0 8.012 5.458 13.864 16.531 12.376 8.337-1.12 17.902-9.402 17.875-17.814l-.098-30.655c-.032-10.163-6.765-14.703-16.864-12.528-8.785 1.89-17.444 7.81-17.444 18.058m17.204-7.475c-1.75.34-3.511 1.898-3.516 4.032l-.07 32.664c-.007 2.987 1.819 3.95 3.637 3.464 2.36-.63 3.933-1.906 3.933-5.472v-31.64c0-2.59-2.268-3.382-3.984-3.048M145.523 261.08l-7.695 1.03.026 33.643c.003 4.421-2.287 10.284-4.264 12.562-2.428 2.799-5.711 3.999-9.757 4.763-1.845.354-3.639.201-5.477.206l.035-11.08c3.818-.1 5.971-2.803 5.971-6.451v-42.517l13.457-2.448 7.722-1.314 13.733-2.174v59.515l-13.827 2.39zM166.208 246.283l13.812-1.87 16.407-1.945.002 11.324-16.406 1.71.003 11.72 14.11-1.453.044 11.68-14.15 1.585.003 12.94 16.784-2.438-.01 12.528-16.77 2.013-13.814 1.89zM204.244 241.642l13.163-1.236-.006 23.515 9.073-24.255 14.85-1.02-11.573 24.721 11.464 34.85-14.126.99-6.312-22.336-3.38 6.784-.004 16.358-13.084 1.25zM262.389 297.142c-8.305.364-15.945-5.652-15.945-14.048v-31.032c0-9.195 6.98-15.118 17.765-15.462 8.57-.275 17.11 3.955 17.11 14.712v7.5h-13.687l-.027-7.482c-.006-1.823-1.414-4.488-3.986-4.069-3.15.515-3.768 2.634-3.768 4.801v31.032c0 2.124 1.83 4.46 4.228 3.998 3.52-.678 3.553-4.17 3.553-7.02v-7.5h13.688v7.5c0 8.497-4.523 16.439-18.931 17.07M297.462 236.966l-10.683 59.541 12.747-.075 1.703-10.86 9.687-.036 1.592 11 13.642.307-10.872-59.697zm8.632 8.914-3.446 29.016 6.857.143zM352.457 260.425l-.047-21.807 14.02.94.093 59.367-14.113-.906.507-25.545-8.245-.517v25.623l-13.49-.573v-59.412l13.49.594v21.861zM401.478 302.14v7.389l12.177 1.658-.012-20.027-2.023-.24-.088-46.917-12.657-1.465-8.554-.894-11.803-1.107v25.515c0 5.055-1.827 18.726-7.087 20.742v20.485l12.14.984v-7.945l15.3 1.538zm-15.826-14.112c2.744-3.466 4.669-14.638 4.669-21.976V252.74l8.553 1.5-.002 35.11zM433.066 257.096l.005 14.625c5.204 2.134 7.342-.02 8.054-2.767.57-2.2.552-4.368 0-6.563-.98-3.897-4.715-5.011-8.06-5.295m4.85-9.494c12.367 1.827 16.709 9.04 16.709 16.477v4.875c0 15.585-8.496 15.694-16.023 14.673l-5.527-.75.008 23.295-13.417-1.78v-59.358l13.396 1.851zM462.318 251.583l13.226 2.419.23 59.298-13.456-2.505zM495.746 296.967l.007 18.252c0 1.12-.943 1.692-2.045 1.484l-12.202-2.299-.01-1.754c.897.151 1.65-.152 1.65-1.111l-.002-18.97c-.001-6.864 3.024-6.661 6.988-8.008-4.691-1.888-6.76-6.399-6.76-10.586v-5.797c0-9.092 5.294-11.743 14.497-9.68l6.126 1.325 13.362 3.024-.003 59.244-13.244-2.997-.048-24.588c.013-1.573-2.894-2.326-4.533-2.188-2.569.217-3.784 2.55-3.783 4.649m.234-24.51c-.197 1.277-.333 2.654.024 4.835.732 4.471 3.927 6.415 7.939 6.245l.073-13.22c-4.479-2-7.582-.798-8.036 2.14" style="fill:#080808;fill-rule:evenodd" transform="matrix(.34182 0 0 .34182 -15.633 -16.887)"/><path d="M289.365 141.396c-.038-2.852-2.348-6.688-7.248-5.204l.024 28.114c5.066 1.128 7.482-3.275 7.44-6.446zm-19.717 32.192c-13.5.91-19.968-7.63-19.968-16.302v-16.125c0-8.288 7.5-16.438 19.969-14.813v-5.719h12.468v6.001c10.635-2.469 20.084 6.302 20.08 14.49l-.01 16.048c-.004 8.462-4.555 16.794-20.075 16.285l.006 5.958h-12.469zm0-9.177-.058-28.336c-3.617-.758-7.348 2.146-7.348 5.086v16.125c0 3.298 2.594 7.985 7.406 7.125M331.297 120.675l15.545.005-13.26 22.82 12.398 36.014-14.254-.01-6.844-21.033-3.108 5.347.188 15.713h-12.938V120.61h12.938v23.762z" style="fill:#241301;fill-rule:evenodd" transform="matrix(.34182 0 0 .34182 -15.633 -16.887)"/><path d="M256.344 595.904h8.743l.006-41.063h-7.507c-1.48 3.394-4.319 4.728-7.986 4.81l-.053 6.033 6.797-.048zM279.771 583.387c-5.907-.081-7.923-4.487-7.923-9.266v-10.688c0-4.781 4.071-8.591 11.53-8.59 7.46 0 10.877 4.536 10.877 9.2v22.172c0 7.362-6.138 9.688-11.215 9.69-6.676.004-10.994-2.804-11.07-10.193h8.625c.029 2.499.896 3.568 2.678 3.567 1.656 0 2.414-1.527 2.403-2.666l-.046-4.946c-2.477 1.797-5.321 1.727-5.859 1.72m3.35-6.782c1.714.016 2.417-1.507 2.415-2.72l-.024-10.24c-.002-1.077-1.303-2.133-2.379-2.131-1.115.002-2.472.803-2.472 1.92v10.687c0 1.165.755 2.467 2.46 2.484M309.535 574.65c2.11-3.437 3.824-6.586 5.09-11.243l3.707.01-.031 12.084v5.625h2.578v6.516h-2.578v8.25h-8.766v-8.25h-11.643v-8.5c3.15-8.508 5.117-16.67 5.267-24.303l10.422-.011c-1.541 9.115-5.311 17.276-10.352 24.892v1.406h6.306zM335.885 577.418h.156a1.99 1.99 0 0 1 1.984 1.984v7.798a1.99 1.99 0 0 1-1.984 1.984h-.156a1.99 1.99 0 0 1-1.985-1.984v-7.798a1.99 1.99 0 0 1 1.985-1.984m0-15.866h.156a1.99 1.99 0 0 1 1.984 1.984v4.845a1.99 1.99 0 0 1-1.984 1.984h-.156a1.99 1.99 0 0 1-1.985-1.985v-4.844a1.99 1.99 0 0 1 1.985-1.984m-2.005-6.698h4.269c4.833 0 8.763 3.505 8.775 8.336l.01 4.004c.009 3.436-2.003 5.428-4.897 6.87 3.287.92 5.177 2.764 5.177 8.004v4.057c0 5.213-3.847 9.762-9.762 9.762h-2.887c-5.728 0-9.762-3.66-9.762-10.045v-4.058c0-4.584 1.515-6.8 5.176-7.72-3.596-1.16-4.87-3.685-4.871-7.121l-.003-4.04c-.003-4.832 3.942-8.05 8.775-8.05z" style="fill:#0a0a0a;fill-rule:evenodd" transform="matrix(.34182 0 0 .34182 -15.633 -16.887)"/><path d="M297.691 769.352c29.194-2.235 75.785-37.36 110.532-76.688 41.905-49.58 78.105-101.599 100.902-162.298 14.707-39.162 23.235-82.484 26.129-129.265 5.224-84.425.282-166.767-10.406-247.923-1.16-8.805-2.618-16.974-6.12-23.3-7.977-14.412-22.647-21.228-37.754-26.2-46.897-15.435-123.836-25.781-183.281-25.875-60.206-.095-136.494 10.44-183.391 25.875-15.107 4.972-29.778 11.788-37.755 26.2-3.502 6.326-4.96 14.495-6.12 23.3-10.688 81.156-15.63 163.498-10.405 247.923 2.894 46.781 11.422 90.103 26.13 129.265 22.796 60.7 58.996 112.718 100.9 162.298 34.748 39.328 81.446 74.453 110.64 76.688m-.003-714.098c57.651 0 145.393 10.812 194.952 29.578 12.63 4.783 32.543 17.261 35.812 38.063 10.351 65.876 14.56 132.952 15.187 200.813.944 102.13-11.385 185.367-40.5 246.375-43.952 92.095-97.388 155.814-154.5 194.624-16.545 11.243-32.822 19.022-50.946 21.929-18.125-2.907-34.511-10.686-51.056-21.929-57.112-38.81-110.548-102.529-154.5-194.624-29.116-61.008-41.445-144.245-40.5-246.375.626-67.861 4.835-134.937 15.187-200.813 3.268-20.802 23.182-33.28 35.812-38.063 49.558-18.765 139.276-29.578 195.052-29.578Z" style="fill:none" transform="matrix(.34182 0 0 .34182 -15.633 -16.887)"/><path d="M114.302 103.678c46.897-15.434 123.185-25.97 183.39-25.875 59.446.094 136.385 10.44 183.282 25.875 15.107 4.972 29.777 11.788 37.754 26.2 3.502 6.326 4.96 14.495 6.12 23.3 10.688 81.156 15.63 163.498 10.406 247.923-2.894 46.781-11.422 90.103-26.13 129.265-22.796 60.7-58.996 112.718-100.901 162.298-34.747 39.328-81.339 74.453-110.532 76.688-29.193-2.235-75.891-37.36-110.638-76.688-41.905-49.58-78.105-101.599-100.902-162.298-14.707-39.162-23.235-82.484-26.13-129.265-5.223-84.425-.282-166.767 10.406-247.923 1.16-8.805 2.618-16.974 6.12-23.3 7.977-14.412 22.648-21.228 37.755-26.2m183.386-48.424c-55.776 0-145.494 10.813-195.052 29.578-12.63 4.782-32.544 17.261-35.812 38.063-10.352 65.876-14.56 132.952-15.188 200.813-.944 102.13 11.385 185.367 40.5 246.375 43.953 92.095 97.389 155.814 154.5 194.624 16.546 11.243 32.932 19.022 51.057 21.929 18.124-2.907 34.4-10.686 50.946-21.929 57.112-38.81 110.548-102.529 154.5-194.624 29.116-61.008 41.444-144.245 40.5-246.375-.627-67.861-4.836-134.937-15.187-200.813-3.268-20.802-23.182-33.28-35.812-38.063-49.559-18.766-137.3-29.578-194.952-29.578" style="fill:#080808;fill-rule:evenodd" transform="matrix(.34182 0 0 .34182 -15.633 -16.887)"/><path d="M392.036 91.093c33.612 4.633 67.514 10.472 94.735 21.703 9.126 3.765 15.864 7.992 17.758 20.563 5.24 34.76 9.145 72.8 11.633 108.485-40.52-11.032-82.106-16.914-124.126-20.693ZM108.12 113.443c33.664-13.551 66.597-18.483 96.798-22.725v130.15c-43.192 3.637-84.185 11.337-124.126 20.976 2.416-37.121 5.874-73.836 11.844-109.638 1.702-10.203 7.618-15.597 15.484-18.763M241.38 86.125c38.172-3.865 75.893-4.135 113.064 0v132.563c-37.562-2.535-75.252-2.465-113.063 0zM241.656 319.973c37.825-2.412 75.682-1.89 113.257.198v383.354c-15.588 12.584-28.888 24.015-55.46 32.183-21.677-4.864-45.113-21.072-57.79-33.247zM391.986 323.102c43.305 4.785 85.38 12.756 126.561 21.916-.256 38.114-7.862 104.324-19.163 139.779-13.9 43.61-32.3 80.31-55.53 115.263-15.59 23.456-32.297 45.973-51.868 67.669zM78.474 344.646c42.417-9.588 84.646-17.205 126.562-21.544v345.752c-23.955-26.916-44.307-55.541-62.373-85.484-15.869-26.302-30.473-53.855-40.92-84.208-15.436-44.847-23.13-95.477-23.269-154.516" style="fill:none" transform="matrix(.34182 0 0 .34182 -15.633 -16.887)"/><path d="M80.792 241.844c39.941-9.64 80.934-17.339 124.126-20.977V90.718c-30.201 4.241-63.134 9.173-96.798 22.725-7.866 3.166-13.782 8.56-15.484 18.763-5.97 35.802-9.428 72.517-11.844 109.638M205.036 323.102c-41.916 4.339-84.145 11.956-126.562 21.544.139 59.04 7.833 109.67 23.269 154.516 10.447 30.353 25.051 57.906 40.92 84.208 18.066 29.943 38.418 58.568 62.373 85.484z" style="fill:#080808;fill-rule:evenodd" transform="matrix(.34182 0 0 .34182 -15.633 -16.887)"/><path d="m241.656 319.973.006 382.488c12.678 12.175 36.114 28.383 57.79 33.247 26.573-8.168 39.873-19.6 55.46-32.184V320.172c-37.574-2.089-75.431-2.61-113.256-.198zm83.448 242.93c-.003-4.832 3.943-8.05 8.776-8.05h4.269c4.833 0 8.763 3.506 8.775 8.338l.01 4.003c.009 3.436-2.003 5.428-4.897 6.87 3.287.92 5.177 2.764 5.177 8.004v4.057c0 5.213-3.847 9.762-9.762 9.762h-2.887c-5.728 0-9.762-3.66-9.762-10.045v-4.058c0-4.584 1.515-6.8 5.176-7.72-3.596-1.16-4.87-3.685-4.871-7.121zm-21.945-8.064 10.422-.011c-1.541 9.115-5.311 17.276-10.352 24.892v1.406h6.306v-6.476c2.11-3.437 3.824-6.586 5.09-11.243l3.707.01-.031 12.084v5.625h2.578v6.516h-2.578v8.25h-8.766v-8.25h-11.643v-8.5c3.15-8.508 5.117-16.67 5.267-24.303m-31.31 8.594c0-4.781 4.07-8.591 11.53-8.59 7.458 0 10.876 4.536 10.876 9.2v22.172c0 7.362-6.138 9.688-11.215 9.69-6.676.004-10.994-2.804-11.07-10.193h8.625c.029 2.499.896 3.568 2.678 3.567 1.656 0 2.414-1.527 2.403-2.666l-.046-4.946c-2.477 1.797-5.321 1.727-5.859 1.72-5.907-.081-7.923-4.487-7.923-9.266zm-6.757-8.592-.006 41.063h-8.742v-30.267l-6.797.047.053-6.033c3.667-.082 6.506-1.416 7.986-4.81z" style="fill:#ffca34;fill-rule:evenodd" transform="matrix(.34182 0 0 .34182 -15.633 -16.887)"/><path d="M280.66 574.12c0 1.166.756 2.468 2.462 2.485 1.713.016 2.416-1.507 2.414-2.72l-.024-10.24c-.002-1.077-1.303-2.133-2.379-2.131-1.115.002-2.472.803-2.472 1.92zM333.9 563.536v4.845a1.99 1.99 0 0 0 1.985 1.984h.156a1.99 1.99 0 0 0 1.984-1.985v-4.844a1.99 1.99 0 0 0-1.984-1.984h-.156a1.99 1.99 0 0 0-1.985 1.984M335.885 577.418a1.99 1.99 0 0 0-1.985 1.984v7.798a1.99 1.99 0 0 0 1.985 1.984h.156a1.99 1.99 0 0 0 1.984-1.984v-7.798a1.99 1.99 0 0 0-1.984-1.984zM241.38 218.688c37.812-2.465 75.503-2.535 113.064 0V86.125c-37.171-4.135-74.892-3.865-113.063 0zm80.582-39.157h-12.938v-58.923h12.938v23.763l9.335-23.696 15.545.005-13.26 22.82 12.398 36.014-14.254-.01-6.844-21.033-3.108 5.347zm-19.775-22.363c-.005 8.462-4.555 16.794-20.075 16.285l.006 5.958h-12.47v-5.823c-13.5.91-19.968-7.63-19.968-16.302v-16.125c0-8.288 7.5-16.438 19.969-14.813v-5.719h12.469v6.001c10.634-2.469 20.084 6.302 20.08 14.49z" style="fill:#ffca34;fill-rule:evenodd" transform="matrix(.34182 0 0 .34182 -15.633 -16.887)"/><path d="M262.242 157.286c0 3.298 2.594 7.985 7.406 7.125l-.058-28.336c-3.617-.758-7.348 2.146-7.348 5.086zM282.117 136.192l.024 28.114c5.066 1.128 7.482-3.275 7.44-6.446l-.216-16.465c-.038-2.851-2.348-6.687-7.248-5.203" style="fill:#ffca34;fill-rule:evenodd" transform="matrix(.34182 0 0 .34182 -15.633 -16.887)"/><path d="M392.036 91.093v130.058c42.02 3.779 83.606 9.661 124.126 20.693-2.488-35.684-6.394-73.724-11.633-108.485-1.894-12.57-8.632-16.797-17.758-20.562-27.221-11.232-61.123-17.071-94.735-21.704M518.547 345.018c-41.18-9.16-83.256-17.13-126.56-21.916V667.73c19.57-21.696 36.278-44.213 51.867-67.67 23.23-34.952 41.63-71.652 55.53-115.262 11.3-35.455 18.907-101.665 19.163-139.78" style="fill:#00ad5e;fill-rule:evenodd" transform="matrix(.34182 0 0 .34182 -15.633 -16.887)"/><path d="m241.662 702.46-.006-382.487c37.825-2.412 75.682-1.89 113.257.198v383.354c-15.588 12.584-28.887 24.015-55.46 32.183-21.677-4.864-45.113-21.072-57.79-33.247zm150.324-34.731V323.102c43.305 4.785 85.38 12.756 126.561 21.916-.256 38.114-7.862 104.324-19.163 139.779-13.9 43.61-32.3 80.31-55.53 115.263-15.59 23.456-32.297 45.973-51.868 67.669M217.392 300.013l-13.083 1.25-.065-59.621 13.163-1.236-.006 23.514 9.073-24.254 14.85-1.02-11.573 24.721 11.464 34.85-14.126.99-6.312-22.336-3.38 6.784zm-12.474-79.146c-43.192 3.638-84.185 11.338-124.126 20.977 2.416-37.121 5.874-73.836 11.844-109.638 1.702-10.203 7.618-15.597 15.484-18.763 33.664-13.551 66.597-18.483 96.798-22.725zm81.86 75.64 10.684-59.541 17.816.18 10.871 59.697-13.642-.306-1.59-11.001-9.688.036-1.703 10.86zm67.666-77.82c-37.562-2.534-75.252-2.464-113.063 0V86.126c38.171-3.865 75.892-4.135 113.063 0zm-9.772 78.893-13.49-.573v-59.412l13.49.594v21.861l7.785.375-.047-21.807 14.02.94.093 59.367-14.113-.906.507-25.545-8.245-.517zm33.846-31.528v-25.514l11.803 1.106 8.554.894 12.657 1.465.088 46.917 2.023.24.011 20.027-12.176-1.658v-7.388l-2.607-.285-15.3-1.538v7.945l-12.14-.984v-20.485c5.26-2.016 7.087-15.687 7.087-20.742m137.644-24.208c-40.52-11.032-82.106-16.914-124.126-20.693V91.093c33.612 4.633 67.514 10.472 94.735 21.703 9.126 3.765 15.864 7.992 17.758 20.563 5.24 34.76 9.145 72.8 11.633 108.485m8.686-88.666c-1.16-8.805-2.618-16.974-6.12-23.3-7.977-14.412-22.647-21.228-37.754-26.2-46.897-15.435-123.836-25.781-183.281-25.875-60.206-.095-136.494 10.44-183.391 25.875-15.107 4.972-29.778 11.788-37.755 26.2-3.502 6.326-4.96 14.495-6.12 23.3-10.688 81.156-15.63 163.498-10.405 247.923 2.894 46.781 11.422 90.103 26.13 129.265 22.796 60.7 58.996 112.718 100.9 162.298 34.748 39.328 81.446 74.453 110.64 76.688 29.193-2.235 75.784-37.36 110.53-76.688 41.906-49.58 78.106-101.599 100.903-162.298 14.707-39.162 23.235-82.484 26.129-129.265 5.224-84.425.282-166.767-10.406-247.923M205.036 323.102v345.752c-23.955-26.916-44.307-55.541-62.373-85.484-15.869-26.302-30.473-53.855-40.92-84.208-15.436-44.847-23.13-95.477-23.269-154.516 42.417-9.588 84.646-17.205 126.562-21.544m-8.229-21.038-16.77 2.013-13.814 1.89-.016-59.684 13.813-1.87 16.407-1.944.002 11.323-16.406 1.71.003 11.72 14.11-1.453.044 11.68-14.15 1.585.003 12.94 16.783-2.438zm65.582-4.922c-8.305.364-15.945-5.652-15.945-14.048v-31.032c0-9.195 6.98-15.118 17.765-15.462 8.57-.274 17.11 3.955 17.11 14.712v7.5h-13.687l-.027-7.482c-.006-1.823-1.415-4.488-3.986-4.069-3.15.515-3.768 2.634-3.768 4.801v31.032c0 2.124 1.83 4.46 4.228 3.998 3.52-.678 3.553-4.17 3.553-7.02v-7.5h13.688v7.5c0 8.497-4.523 16.439-18.931 17.07M475.774 313.3l-13.456-2.505v-59.212l13.226 2.419zm7.373-1.761-.003-18.97c0-6.864 3.024-6.661 6.988-8.008-4.69-1.888-6.76-6.399-6.76-10.586v-5.797c0-9.092 5.294-11.743 14.498-9.68l6.125 1.325 13.362 3.024-.003 59.244-13.244-2.997-.047-24.588c.012-1.573-2.895-2.326-4.534-2.188-2.569.217-3.784 2.55-3.783 4.649l.007 18.252c0 1.12-.943 1.692-2.045 1.484l-12.202-2.299-.01-1.754c.897.151 1.651-.152 1.651-1.111m-63.481-7.148v-59.357l13.396 1.851 4.854.717c12.367 1.827 16.709 9.04 16.709 16.477v4.875c0 15.585-8.496 15.694-16.023 14.673l-5.527-.75.008 23.295zm-260.392-57.09v59.514l-13.827 2.39.076-48.125-7.695 1.03.026 33.643c.003 4.421-2.287 10.284-4.264 12.562-2.428 2.799-5.711 3.999-9.757 4.763-1.845.354-3.639.201-5.477.206l.035-11.08c3.818-.1 5.971-2.803 5.971-6.451v-42.517l13.457-2.448 7.722-1.314zm-46.409 53.933c.027 8.412-9.539 16.694-17.875 17.814-11.073 1.488-16.531-4.364-16.531-12.376v-30.563c0-10.248 8.66-16.167 17.444-18.058 10.099-2.175 16.832 2.365 16.864 12.528z" style="fill:#fff;fill-rule:evenodd" transform="matrix(.34182 0 0 .34182 -15.633 -16.887)"/><path d="M99.647 303.322v-31.64c0-2.59-2.268-3.382-3.984-3.048-1.75.34-3.511 1.898-3.515 4.032l-.072 32.664c-.006 2.987 1.82 3.95 3.638 3.464 2.36-.63 3.933-1.906 3.933-5.472M306.094 245.88l-3.446 29.016 6.857.143zM390.32 266.052c0 7.338-1.924 18.51-4.668 21.976l13.22 1.321.002-35.11-8.553-1.5zM433.066 257.096l.005 14.625c5.204 2.134 7.342-.02 8.054-2.767.57-2.2.552-4.368 0-6.563-.98-3.897-4.715-5.011-8.06-5.295M496.004 277.292c.732 4.471 3.927 6.415 7.939 6.245l.073-13.22c-4.479-2-7.582-.798-8.036 2.14-.197 1.277-.333 2.654.024 4.835" style="fill:#fff;fill-rule:evenodd" transform="matrix(.34182 0 0 .34182 -15.633 -16.887)"/></svg>