<svg xmlns="http://www.w3.org/2000/svg" fill="none" viewBox="0.99 0.99 144.01 240.03"><path fill="#fff" d="M145 121c0 66.239-32.213 120-71.976 120S1.05 187.288 1.05 121 33.26 1 73.024 1 145 54.712 145 121"/><path fill="#0B0B0C" fill-rule="evenodd" d="M87.979 153.803c-3.972 4.191-8.679 7.603-14.219 10.235-.196.195-.343.39-.343.634v11.795c-.098.244.196.731.54 1.024l.048.048c3.187 1.755 6.62 2.681 10.247 2.73.05.049.932-.049 1.226-.293.05-.048.147-.048.196-.097s.147-.049.196-.098c.05-.048.147-.048.197-.097.049-.049.147-.049.196-.098.049-.048.147-.048.196-.097l.196-.097.196-.098.196-.097c.05-.049.147-.049.196-.098l.196-.097.196-.098.197-.097.196-.098c.049-.049.147-.049.196-.097l.196-.098c.049-.049.147-.049.196-.097l.196-.098.196-.097.196-.098c.05-.048.098-.048.197-.097l.196-.098c.049-.048.098-.048.196-.097l.196-.098.196-.097.196-.098c.05-.048.098-.048.196-.097l.196-.098.196-.097.197-.098c.049-.048.098-.048.196-.097l.196-.098c.049-.048.098-.048.196-.097.049-.049.098-.097.196-.097l.196-.098.196-.097c.05-.049.098-.098.196-.098.05-.049.098-.097.148-.097.048-.049.097-.098.147-.098.049-.049.098-.097.147-.097.049-.049.098-.098.147-.098l.147-.097c.049-.049.098-.098.147-.098.049-.049.098-.097.147-.097l.147-.098.147-.097.147-.098.147-.097.147-.146.148-.147.147-.146.147-.146.147-.146.147-.147.147-.146.147-.146.147-.146.147-.146.147-.147q.074-.072.147-.146l.147-.146.148-.146.147-.147.147-.146.147-.146a32 32 0 0 0 1.814-1.803c.49-.488.931-1.024 1.324-1.511.098-.049.441-.634.539-.878 1.079-3.46 1.226-7.018.49-10.528-.147-.487-.539-.877-.735-.828l-11.228-3.607c-.441-.146-.686-.049-.882.049m-4.903-18.035c3.089 4.631 4.805 10.236 5.442 16.719.098.243.294.389.49.487l11.277 3.656c.196.146.785.048 1.128-.195l.049-.049a21.2 21.2 0 0 0 5.785-8.871c.049-.049.196-.877.098-1.219-.392-4.386-1.52-8.724-3.285-12.623-.343-.78-.735-1.56-1.176-2.291l-1.03-1.755c0-.097-.49-.585-.686-.78-2.991-2.096-6.325-3.314-9.953-3.753-.49 0-.981.244-1.03.439l-7.011 9.504a1 1 0 0 0-.098.731m-18.386-.828c5.883-1.267 11.522-1.267 16.964 0 .392 0 .735-.098.882-.341l6.963-9.554c.196-.146.294-.731.147-1.121v-.048c-1.52-3.266-3.727-6.044-6.717-8.189-.05-.049-.785-.487-1.128-.487-4.315-.975-8.825-1.267-13.091-.78-.883.097-1.716.244-2.55.39-.686.146-1.323.292-2.01.439-.098 0-.735.243-.98.39-2.942 2.144-5.148 4.971-6.62 8.237-.146.438-.097 1.023.099 1.121l6.962 9.504c.343.39.735.39 1.078.341zm-6.914 17.01c.589-6.141 2.158-11.6 5.246-16.084a.91.91 0 0 0-.048-.877l-6.963-9.554c-.098-.243-.588-.487-1.03-.487h-.048c-3.58.439-6.962 1.657-9.904 3.802-.05 0-.687.585-.834.926-2.304 3.753-3.922 7.945-4.805 12.136a45 45 0 0 0-.392 2.535c-.098.682-.147 1.365-.196 2.047-.05.097.049.78.098 1.072 1.177 3.461 3.138 6.385 5.834 8.822.393.293.932.39 1.128.244l11.228-3.607c.49-.292.588-.633.686-.975m14.366 11.942c-5.59-2.486-10.247-5.849-13.924-10.089-.295-.195-.589-.293-.834-.195l-11.277 3.655c-.245 0-.637.39-.784.829v.049c-.687 3.558-.54 7.067.588 10.528 0 .048.343.828.638 1.072 2.892 3.314 6.373 6.19 10.1 8.286.735.438 1.52.828 2.304 1.17.637.292 1.226.536 1.863.779.098.098.736.195 1.03.244 3.677-.049 7.06-1.023 10.247-2.778v-11.747c.49-1.413.294-1.608.05-1.803m32.262 4.533a37.32 37.32 0 0 1-21.917 15.694c1.03-.828 1.913-1.754 2.55-2.875 4.167-1.755 8.04-4.192 11.277-7.165a34 34 0 0 0 1.863-1.852c.441-.488.882-.975 1.275-1.463.098-.097.147-.195.196-.243 2.206-.731 3.481-1.316 4.756-2.096m-2.305-43.769a36.84 36.84 0 0 1 8.384 23.444c0 .78-.049 1.511-.049 2.291-.49-1.219-1.078-2.389-1.961-3.315-.196-.292-.441-.78-.343-.926-.392-4.484-1.52-8.919-3.383-12.867l-1.177-2.34c-.294-.585-.637-1.121-.981-1.657a1 1 0 0 0-.147-.244c.196-1.462.049-2.924-.343-4.386m-42.705-11.211c4.217-1.657 8.826-2.534 13.63-2.534 4.903 0 9.61.926 13.925 2.632-1.373.048-2.746.292-3.971.828-.344.098-.883.146-.981.049-4.413-1.024-9.021-1.316-13.336-.78-.883.098-1.765.244-2.599.39-.637.146-1.274.244-1.912.439-.147.048-.245.048-.294.048-1.373-.731-2.893-1.023-4.462-1.072m-23.73 36.848c-.049-.731-.049-1.462-.049-2.193 0-9.066 3.236-17.352 8.63-23.786-.393 1.365-.59 2.73-.442 4.046 0 .341-.098.877-.245.926a39.4 39.4 0 0 0-4.903 12.38c-.196.877-.294 1.706-.441 2.583-.099.634-.148 1.268-.197 1.901 0 .146 0 .244-.049.293-1.03 1.072-1.765 2.388-2.304 3.85m27.75 33.778c-9.168-2.437-16.964-8.238-21.964-15.987 1.127.731 2.353 1.316 3.628 1.608.343.146.784.341.833.536 2.942 3.412 6.521 6.337 10.346 8.432q1.176.659 2.353 1.17c.588.293 1.177.536 1.765.78.098.049.196.098.294.098.589 1.364 1.57 2.437 2.746 3.363m9.61 2.68c-21.474 0-38.83-17.303-38.83-38.602 0-21.349 17.405-38.603 38.83-38.603 21.427 0 38.832 17.303 38.832 38.603 0 21.299-17.356 38.602-38.831 38.602m36.626-31.974c0-.048.049-.146.049-.195 0 .049-.049.098-.049.195m.147-.877c0-.097.049-.146.049-.244 0 .049-.049.147-.049.244m29.418-16.182c-4.756 55.029-32.556 97.287-66.19 97.287s-61.435-42.258-66.19-97.287c7.501 29.391 34.271 51.178 66.19 51.178 31.869 0 58.688-21.787 66.19-51.178" clip-rule="evenodd"/><path fill="#D42427" fill-rule="evenodd" d="m98.373 180.318.735.974c-1.177.488-2.353.975-3.53 1.414l-.147-.244c.98-.731 2.01-1.413 2.942-2.144M73.024 1h-.049C33.261 1 1.05 54.761 1.05 121c0 66.287 32.212 120 71.975 120S145 187.239 145 121 112.787 1.049 73.024 1m30.546 174.492 2.5 2.291a50 50 0 0 1-3.579 1.901l-1.52-1.609c.932-.828 1.765-1.705 2.599-2.583m4.265-5.605 5.197 3.266a93 93 0 0 1-3.579 2.534l-3.726-2.827a30 30 0 0 0 2.108-2.973m3.236-6.288 8.776 3.559a73 73 0 0 1-3.481 3.265l-6.815-3.509c.54-1.072 1.079-2.194 1.52-3.315m2.108-6.726 13.091 2.827a83 83 0 0 1-3.236 4.046l-10.786-3.363c.392-1.121.686-2.291.931-3.51m.932-6.97 17.798.683a70 70 0 0 1-2.746 4.922l-15.346-1.998a43 43 0 0 0 .294-3.607m-.294-7.067 22.406-3.022c-.588 1.95-1.274 3.85-2.01 5.751l-20.102.878a43 43 0 0 0-.294-3.607m-1.52-6.921 26.378-8.384c-.196 2.194-.539 4.338-.981 6.483l-24.465 5.41c-.246-1.17-.589-2.34-.932-3.509m-2.697-6.532 29.026-15.158c.245 2.242.343 4.533.343 6.824v.146l-27.849 11.503c-.441-1.121-.98-2.242-1.52-3.315m-3.824-5.995 29.859-22.957a56 56 0 0 1 1.912 7.116l-29.712 18.863a27 27 0 0 0-2.059-3.022m-4.805-5.264 28.437-31.096c1.324 2.193 2.55 4.435 3.628 6.775l-29.466 26.905c-.834-.927-1.716-1.755-2.599-2.584m-5.687-4.386 24.662-38.798c1.863 1.9 3.628 3.85 5.246 5.946l-26.868 34.947c-.981-.731-2.01-1.413-3.04-2.095m-6.325-3.364 18.631-45.231c2.304 1.413 4.56 2.973 6.668 4.68l-21.965 42.111a70 70 0 0 0-3.334-1.56m-6.864-2.144 8.188-37.336c3.579-.877 6.52-1.998 8.53-3.265l-13.14 41.576a33 33 0 0 0-3.578-.975m-7.159-.975 1.373-34.557c2.403-.098 4.756-.293 6.962-.536l-4.657 35.483a30 30 0 0 0-3.678-.39m-7.207.292-4.805-35.385c2.206.243 4.56.438 6.962.536l1.57 34.557c-1.276.049-2.501.146-3.727.292m-7.06 1.56-13.287-41.43c2.01 1.268 4.952 2.389 8.53 3.266l8.336 37.238a30 30 0 0 0-3.58.926m-6.717 2.778-22.21-42.014a59 59 0 0 1 6.716-4.68l18.877 45.135c-1.128.438-2.256.975-3.383 1.559m-6.08 3.9L20.808 80.984a68 68 0 0 1 5.246-5.995l24.858 38.651a31 31 0 0 0-3.04 2.145m-5.344 4.874L12.963 93.9a70 70 0 0 1 3.628-6.824l28.584 30.951a34 34 0 0 0-2.647 2.632m-4.364 5.751-29.76-18.668a59 59 0 0 1 1.911-7.164l29.958 22.762c-.736 1.023-1.471 1.998-2.109 3.07m-3.285 6.434-27.8-11.308v-.487c0-2.194.098-4.387.344-6.532l29.025 14.964a26 26 0 0 0-1.569 3.363m-2.108 6.872-24.319-5.264a70 70 0 0 1-1.03-6.531l26.28 8.189a33 33 0 0 0-.931 3.606m-.834 7.165-19.857-.78a74 74 0 0 1-2.108-5.8l22.21 2.876a31 31 0 0 0-.245 3.704m.393 7.165-15.052 2.047a61 61 0 0 1-2.844-4.922l17.503-.78c.098 1.218.196 2.437.393 3.655m1.667 7.019-10.444 3.314a67 67 0 0 1-3.334-4.045l12.748-2.827c.294 1.17.637 2.388 1.03 3.558m2.892 6.58-6.52 3.412a74 74 0 0 1-3.58-3.217l8.433-3.509c.54 1.121 1.08 2.193 1.667 3.314m3.972 5.946-3.432 2.632a60 60 0 0 1-3.629-2.485l4.904-3.12c.637 1.024 1.372 1.999 2.157 2.973m4.952 5.167-1.275 1.413a51 51 0 0 1-3.628-1.901l2.304-2.095c.785.926 1.667 1.754 2.599 2.583m5.736 4.24a46 46 0 0 1-3.628-1.316l.588-.731c.981.731 2.01 1.414 3.04 2.047M88.322 64.461v-1.219h1.225c.54 0 .932-.049 1.177-.097.245-.05.392-.147.49-.342.098-.146.147-.438.147-.828 0-.293-.049-.536-.196-.683a1.14 1.14 0 0 0-.686-.34 9 9 0 0 0-1.373-.098c-.686 0-1.177.049-1.47.097q-.442.147-.59.439-.146.292-.146 1.023h-2.06c0-.73.147-1.267.393-1.705.294-.39.735-.732 1.323-.878.589-.195 1.422-.292 2.452-.292 1.128 0 2.01.049 2.648.195.637.146 1.127.39 1.421.682q.441.512.442 1.316c0 .39-.05.731-.148.975a1.4 1.4 0 0 1-.539.682c-.294.195-.686.293-1.176.342v.048c.539.049.931.146 1.225.293.294.146.49.34.638.585.147.243.196.584.196.974 0 .439-.05.829-.196 1.121-.148.293-.344.585-.687.78s-.784.39-1.373.488c-.588.097-1.323.146-2.255.146-1.128 0-2.01-.098-2.697-.244-.686-.146-1.127-.439-1.422-.78q-.44-.51-.44-1.462v-.487h2.059c0 .487.049.877.147 1.072.098.244.343.39.686.487.343.098.882.147 1.667.147q.956 0 1.47-.147c.344-.097.59-.243.687-.438.147-.195.196-.488.196-.829s-.049-.585-.196-.78c-.098-.146-.294-.292-.588-.34a6 6 0 0 0-1.128-.098h-1.323zm-5.737 2.485v1.268h-8.776v-1.755c0-.487.098-.926.245-1.219.147-.292.392-.536.735-.682a3.5 3.5 0 0 1 1.079-.341c.392-.098.98-.146 1.716-.244.784-.097 1.373-.146 1.716-.243.343-.05.637-.195.834-.44.196-.194.294-.535.294-.974s-.05-.731-.196-.975c-.147-.195-.344-.341-.687-.39a8.4 8.4 0 0 0-1.373-.097c-.637 0-1.127.049-1.47.097-.295.049-.54.195-.638.439-.147.244-.196.585-.196 1.072v.293H73.76v-.39c0-.731.147-1.316.392-1.706s.735-.683 1.324-.829c.637-.146 1.52-.243 2.647-.243.785 0 1.422.048 1.912.097.54.049.981.195 1.324.39s.638.487.834.829c.196.34.294.828.294 1.413 0 .634-.098 1.121-.343 1.462a2.7 2.7 0 0 1-.98.829c-.442.195-.834.292-1.276.39-.44.049-1.176.146-2.304.292-.54.049-.932.146-1.177.244a1.02 1.02 0 0 0-.49.39c-.098.146-.098.439-.098.78v.243zm-12.993-4.679c0-.39-.049-.633-.196-.828-.098-.195-.343-.342-.686-.439q-.516-.146-1.471-.146c-.638 0-1.079.049-1.422.146s-.54.244-.686.439c-.148.195-.197.487-.197.828s.05.585.098.731a.76.76 0 0 0 .295.39c.147.098.392.147.686.195s.735.049 1.275.049c.735 0 1.225-.049 1.52-.097.294-.05.539-.195.637-.39q.147-.22.147-.878m-6.668 3.607h2.108q0 .439.148.731a.75.75 0 0 0 .49.341c.245.05.54.098.98.098h1.03c.49 0 .882-.049 1.177-.098.294-.048.49-.195.588-.39.098-.194.196-.438.196-.78v-1.705a1.73 1.73 0 0 1-.98.682c-.393.097-.981.146-1.667.146-.981 0-1.814-.049-2.403-.195q-.883-.22-1.324-.73c-.294-.342-.44-.878-.44-1.512 0-.487.048-.926.195-1.267s.343-.634.687-.877c.343-.244.784-.39 1.372-.536a13.3 13.3 0 0 1 2.256-.195c1.03 0 1.863.048 2.5.194.638.147 1.128.44 1.471.829.343.39.49 1.024.49 1.755v3.022q0 .877-.294 1.462c-.196.39-.441.682-.833.877-.343.195-.834.341-1.373.439-.54.097-1.226.097-2.01.097-.736 0-1.373 0-1.863-.097-.49-.049-.932-.146-1.324-.341-.392-.147-.637-.39-.834-.731-.245-.244-.343-.683-.343-1.219m-2.942-6.19v8.53h-2.157v-7.165l-2.99 2.193-1.276-1.023 3.727-2.584h2.696zm13.042-52.64c33.586 0 61.434 42.258 66.19 97.287-7.501-29.391-34.272-51.178-66.19-51.178-31.869 0-58.688 21.738-66.19 51.129C11.59 49.302 39.44 7.044 73.024 7.044m0-2.925c38.39 0 69.524 52.348 69.524 116.93 0 64.581-31.134 116.929-69.524 116.929S3.5 185.63 3.5 121.049 34.634 4.119 73.024 4.119" clip-rule="evenodd"/><path stroke="#D42427" stroke-miterlimit="22.926" stroke-width=".026" d="M73.025 1c39.713 0 71.926 53.761 71.926 120 0 66.287-32.213 120-71.975 120C33.213 241 1 187.239 1 121S33.213 1 72.926 1m25.447 179.318.735.974a106 106 0 0 1-3.53 1.414l-.147-.244c.98-.731 2.01-1.413 2.942-2.144Zm5.197-4.826 2.5 2.291a50 50 0 0 1-3.579 1.901l-1.52-1.609c.932-.828 1.765-1.705 2.599-2.583Zm4.266-5.605 5.197 3.266a94 94 0 0 1-3.58 2.534l-3.726-2.827a30 30 0 0 0 2.109-2.973Zm3.235-6.288 8.777 3.559a74 74 0 0 1-3.481 3.265l-6.815-3.509c.539-1.072 1.078-2.194 1.519-3.315Zm2.109-6.726 13.091 2.827a84 84 0 0 1-3.236 4.046l-10.787-3.363c.392-1.121.687-2.291.932-3.51Zm.931-6.97 17.798.683a69 69 0 0 1-2.746 4.922l-15.346-1.998a43 43 0 0 0 .294-3.607Zm-.294-7.067 22.407-3.022c-.589 1.95-1.275 3.85-2.011 5.751l-20.102.878a43 43 0 0 0-.294-3.607Zm-1.52-6.921 26.378-8.384c-.196 2.194-.539 4.338-.98 6.483l-24.466 5.41c-.245-1.17-.589-2.34-.932-3.509Zm-2.696-6.532 29.025-15.158c.245 2.242.343 4.533.343 6.824v.146l-27.849 11.503c-.441-1.121-.98-2.242-1.519-3.315Zm-3.825-5.995 29.859-22.957a56 56 0 0 1 1.912 7.116l-29.711 18.863a27 27 0 0 0-2.06-3.022Zm-4.805-5.264 28.438-31.096c1.323 2.193 2.549 4.435 3.628 6.775l-29.467 26.905c-.834-.927-1.716-1.755-2.599-2.584Zm-5.687-4.386 24.662-38.798c1.863 1.9 3.628 3.85 5.246 5.946l-26.868 34.947c-.98-.731-2.01-1.413-3.04-2.095Zm-6.325-3.364 18.631-45.231c2.305 1.413 4.56 2.973 6.668 4.68l-21.965 42.111a70 70 0 0 0-3.334-1.56Zm-6.864-2.144 8.188-37.336c3.58-.877 6.52-1.998 8.531-3.265l-13.14 41.576a33 33 0 0 0-3.579-.975Zm-7.158-.975 1.373-34.557c2.402-.098 4.755-.293 6.962-.536l-4.658 35.483a30 30 0 0 0-3.677-.39Zm-7.208.292-4.805-35.385c2.207.243 4.56.438 6.963.536l1.569 34.557c-1.275.049-2.501.146-3.727.292Zm-7.06 1.56-13.287-41.43c2.01 1.268 4.952 2.389 8.531 3.266l8.335 37.238a30 30 0 0 0-3.579.926Zm-6.717 2.778-22.21-42.014a59 59 0 0 1 6.717-4.68l18.876 45.135c-1.128.438-2.255.975-3.383 1.559Zm-6.08 3.9L20.808 80.984a68 68 0 0 1 5.246-5.995l24.858 38.651a31 31 0 0 0-3.04 2.145Zm-5.344 4.874L12.963 93.9a70 70 0 0 1 3.628-6.824l28.585 30.951a34 34 0 0 0-2.648 2.632Zm-4.364 5.751-29.76-18.668a59 59 0 0 1 1.912-7.164l29.957 22.762c-.736 1.023-1.471 1.998-2.109 3.07Zm-3.285 6.434-27.8-11.308v-.487c0-2.194.099-4.387.344-6.532l29.025 14.964a26 26 0 0 0-1.569 3.363Zm-2.108 6.872-24.318-5.264a70 70 0 0 1-1.03-6.531l26.28 8.189a33 33 0 0 0-.932 3.606Zm-.833 7.165-19.857-.78a74 74 0 0 1-2.109-5.8l22.21 2.876a31 31 0 0 0-.244 3.704Zm.392 7.165-15.052 2.047a61 61 0 0 1-2.844-4.922l17.504-.78c.098 1.218.196 2.437.392 3.655Zm1.667 7.019-10.443 3.314a67 67 0 0 1-3.334-4.045l12.747-2.827c.294 1.17.638 2.388 1.03 3.558Zm2.893 6.58-6.521 3.412a74 74 0 0 1-3.58-3.217l8.434-3.509c.539 1.121 1.078 2.193 1.667 3.314Zm3.971 5.946-3.432 2.632a60 60 0 0 1-3.628-2.485l4.903-3.12c.637 1.024 1.373 1.999 2.157 2.973Zm4.952 5.167-1.275 1.413a51 51 0 0 1-3.628-1.901l2.305-2.095c.784.926 1.666 1.754 2.598 2.583Zm5.736 4.24a46 46 0 0 1-3.628-1.316l.589-.731c.98.731 2.01 1.414 3.04 2.047ZM88.323 64.461v-1.219h1.225c.54 0 .932-.049 1.177-.097.245-.05.392-.147.49-.342.099-.146.148-.438.148-.828 0-.293-.05-.536-.197-.683a1.14 1.14 0 0 0-.686-.34 9 9 0 0 0-1.373-.098c-.686 0-1.176.049-1.47.097q-.442.147-.589.439t-.147 1.023h-2.06c0-.73.148-1.267.393-1.705.294-.39.735-.732 1.324-.878.588-.195 1.421-.292 2.451-.292 1.128 0 2.01.049 2.648.195.637.146 1.127.39 1.422.682q.44.512.44 1.316c0 .39-.048.731-.146.975a1.4 1.4 0 0 1-.54.682c-.294.195-.686.293-1.176.342v.048c.54.049.931.146 1.225.293.295.146.49.34.638.585.147.243.196.584.196.974 0 .439-.049.829-.196 1.121s-.343.585-.687.78c-.343.195-.784.39-1.372.488s-1.324.146-2.256.146c-1.127 0-2.01-.098-2.696-.244s-1.128-.439-1.422-.78q-.441-.51-.442-1.462v-.487h2.06c0 .487.049.877.147 1.072.098.244.343.39.686.487.343.098.883.147 1.667.147q.957 0 1.471-.147c.343-.097.588-.243.687-.438.147-.195.196-.488.196-.829s-.05-.585-.196-.78c-.099-.146-.295-.292-.589-.34a6 6 0 0 0-1.127-.098h-1.324zm-5.737 2.485v1.268H73.81v-1.755c0-.487.098-.926.245-1.219.147-.292.392-.536.736-.682a3.5 3.5 0 0 1 1.078-.341c.392-.098.98-.146 1.716-.244.785-.097 1.373-.146 1.716-.243.344-.05.638-.195.834-.44.196-.194.294-.535.294-.974s-.05-.731-.196-.975c-.147-.195-.343-.341-.687-.39a8.4 8.4 0 0 0-1.372-.097c-.638 0-1.128.049-1.471.097-.294.049-.54.195-.638.439-.147.244-.196.585-.196 1.072v.293H73.76v-.39c0-.731.147-1.316.392-1.706s.736-.683 1.324-.829c.637-.146 1.52-.243 2.648-.243.784 0 1.421.048 1.912.097.54.049.98.195 1.323.39.344.195.638.487.834.829.196.34.294.828.294 1.413 0 .634-.098 1.121-.343 1.462a2.7 2.7 0 0 1-.98.829c-.442.195-.834.292-1.275.39-.442.049-1.177.146-2.305.292-.54.049-.931.146-1.177.244a1.02 1.02 0 0 0-.49.39c-.098.146-.098.439-.098.78v.243zm-12.993-4.679c0-.39-.049-.633-.196-.828-.098-.195-.343-.342-.686-.439q-.515-.146-1.471-.146c-.637 0-1.079.049-1.422.146s-.54.244-.686.439-.196.487-.196.828.049.585.098.731a.76.76 0 0 0 .294.39c.147.098.392.147.686.195s.736.049 1.275.049c.736 0 1.226-.049 1.52-.097.294-.05.54-.195.637-.39q.147-.22.147-.878Zm-6.668 3.607h2.109q0 .439.147.731a.75.75 0 0 0 .49.341c.245.05.54.098.98.098h1.03c.49 0 .883-.049 1.177-.098.294-.048.49-.195.588-.39.098-.194.196-.438.196-.78v-1.705a1.73 1.73 0 0 1-.98.682c-.392.097-.98.146-1.667.146-.98 0-1.814-.049-2.403-.195q-.883-.22-1.323-.73c-.295-.342-.442-.878-.442-1.512 0-.487.05-.926.197-1.267.146-.341.343-.634.686-.877.343-.244.784-.39 1.373-.536a13.3 13.3 0 0 1 2.255-.195c1.03 0 1.863.048 2.5.194.638.147 1.128.44 1.471.829.344.39.49 1.024.49 1.755v3.022q0 .877-.293 1.462c-.197.39-.442.682-.834.877-.343.195-.833.341-1.373.439s-1.225.097-2.01.097c-.735 0-1.373 0-1.863-.097-.49-.049-.932-.146-1.324-.341-.392-.147-.637-.39-.833-.731-.245-.244-.344-.683-.344-1.219Zm-2.941-6.19v8.53h-2.158v-7.165l-2.99 2.193-1.275-1.023 3.726-2.584h2.697zm13.042-52.64c33.585 0 61.434 42.258 66.189 97.287-7.501-29.391-34.271-51.178-66.19-51.178-31.869 0-58.688 21.738-66.19 51.129C11.59 49.302 39.44 7.044 73.025 7.044Zm0-2.925c38.39 0 69.523 52.348 69.523 116.93 0 64.581-31.133 116.929-69.523 116.929S3.5 185.63 3.5 121.049 34.634 4.119 73.025 4.119Z"/><path fill="#fff" d="M47.529 199.181c1.863.048 3.726.048 5.59.048v19.107c-.834-.439-1.618-.926-2.452-1.414v-15.061a8 8 0 0 0-1.079-.097v10.333c0 1.316-.147 2.291-.441 2.778s-.735.536-1.373.146c-.441-.341-.931-.682-1.373-1.023v-2.242c.147.097.294.195.49.292.246.146.442.195.54.098.098-.098.147-.342.147-.829v-6.093c0-2.047-.049-3.996-.049-6.043m7.158 19.983c.245-1.511.49-3.07.736-4.581-.343-2.632-.687-5.264-1.079-7.848-.343-2.534-.686-5.02-1.03-7.506.834 0 1.668 0 2.501.049.147 1.413.294 2.876.441 4.338l.442 4.387c.147-1.414.343-2.876.49-4.338s.343-2.925.54-4.387h2.255c-.54 3.607-1.03 7.165-1.57 10.674-.539 3.461-1.029 6.824-1.568 10.09a20 20 0 0 1-2.158-.878m10.64-19.837c-1.716 0-3.383 0-5.1-.049v22.031c.834.244 1.619.439 2.452.633v-19.203000000000003c.883.048 1.765.048 2.648.097zm2.942 14.183c.294 0 .588.049.882.049a189 189 0 0 1-.196-5.264c-.049-1.755-.147-3.509-.196-5.264h-.05c-.097 1.755-.146 3.509-.195 5.264-.098 1.755-.147 3.461-.245 5.215m-.932-14.183h3.334c.245 3.948.441 7.896.686 11.893.246 3.948.442 7.944.687 11.892-.834 0-1.618-.048-2.452-.097l-.294-5.849c-.441-.049-.882-.049-1.324-.098-.147 1.901-.245 3.851-.392 5.752l-2.06-.293c.295-3.85.59-7.652.883-11.551.344-3.851.638-7.75.932-11.649m7.649 23.737c-.834.048-1.618.048-2.452.048v-23.785h2.452v8.773c.44 0 .882 0 1.274-.049v-8.773h2.452v23.396c-.834.097-1.618.195-2.452.243v-11.308c-.44 0-.882.049-1.274.049v11.405999999999999m10.59-10.334v2.925c0 2.047-.245 3.607-.784 4.777-.49 1.169-1.275 1.9-2.305 2.144s-1.814-.195-2.304-1.267-.785-2.73-.785-5.02v-10.626c0-2.291.245-3.997.785-5.118.49-1.121 1.274-1.706 2.304-1.706.98 0 1.765.439 2.305 1.316.539.829.784 2.389.784 4.582v2.388c-.833.098-1.618.147-2.451.244v-3.119c0-1.17-.246-1.755-.687-1.755s-.637.634-.637 1.852v12.868c0 1.218.196 1.754.637 1.706.441-.098.686-.732.686-1.901v-3.851c.785-.146 1.619-.292 2.452-.439m3.089 4.485v-6.727c.147-.048.245-.048.392-.097.392-.098.638.097.736.487q.147.658.147 2.632c0 .878 0 1.56-.05 1.999-.048.438-.097.78-.245 1.023-.147.244-.343.439-.588.488-.147.097-.294.146-.392.195m0-17.937h-2.452v21.836c1.177-.39 2.403-.877 3.58-1.365.539-.244.98-.585 1.372-1.121s.687-1.267.883-2.242c.245-.975.343-2.193.343-3.656 0-1.608-.098-2.778-.343-3.606-.245-.829-.54-1.365-.883-1.56-.392-.244-.833-.341-1.372-.244-.393.049-.736.146-1.128.195v-8.237m6.815 17.449c-.834.488-1.618.975-2.452 1.414v-18.912c.834 0 1.618 0 2.452-.048v7.993h.049c.245-1.365.49-2.729.785-4.094.245-1.316.49-2.632.784-3.899.784 0 1.569 0 2.304-.049-.294 1.121-.539 2.242-.833 3.412-.294 1.218-.54 2.437-.834 3.704.294 1.413.54 2.729.834 4.045a69 69 0 0 0 .833 3.705c-.784.585-1.618 1.17-2.402 1.754l-.736-3.801q-.367-1.974-.735-4.095h-.049v8.870999999999999M29.731 54.128a127 127 0 0 1 7.894-6.97v5.313c0 1.608.637 1.998 2.01 1.17 1.373-.78 2.06-2 2.06-3.705v-4.825q0-1.975-.736-2.047-.735 0-2.648 1.462v-4.874c1.324-1.121 2.207-2.047 2.697-2.779.49-.78.686-1.706.686-2.875v-3.656c0-.585-.196-.926-.539-1.023-.392-.098-.882.195-1.52.78-.833.78-1.373 1.608-1.618 2.436-.245.83-.392 1.804-.392 2.925v3.51a126 126 0 0 0-7.894 8.139v-3.9c0-1.608.54-3.557 1.57-5.897 1.029-2.34 2.304-4.63 3.774-6.872 1.471-2.096 2.942-3.997 4.462-5.508 1.765-1.755 3.432-3.022 4.952-3.802 1.52-.731 2.746-.78 3.727-.195s1.421 1.901 1.421 3.802v2.29c0 2.486-.441 4.485-1.275 6.093-.833 1.609-2.059 3.12-3.726 4.485v.243c1.667-.78 2.893-.877 3.726-.341s1.226 1.998 1.226 4.24v4.095c0 2.973-.931 5.556-2.794 7.7s-4.364 3.754-7.257 5.362c-6.619 3.656-9.806 3.997-9.806-.243zm30.006-33.144v21.982c0 2.047.687 2.925 2.109 2.68 1.373-.194 2.108-1.315 2.108-3.411V19.912c0-2.096-.687-3.022-2.108-2.681-1.422.438-2.109 1.706-2.109 3.753m12.062.292v18.326999999999998c0 3.9-.834 6.872-2.5 8.87-1.668 2-4.168 3.12-7.502 3.559s-5.835.097-7.502-1.316q-2.5-2.047-2.5-7.458V26.298q0-4.022 1.323-7.165c.883-2.096 2.109-3.85 3.58-5.216 1.47-1.267 3.187-2.29 5.099-2.827s3.628-.438 5.099 0c1.47.537 2.696 1.658 3.579 3.315q1.324 2.486 1.324 6.872m10.05-4.338v12.966c.393.048.834.146 1.227.194.931.195 1.569.147 1.96-.194.393-.293.687-.878.785-1.706.098-.829.196-2.096.196-3.802s-.049-3.022-.196-3.948c-.098-.926-.392-1.609-.784-2.145-.442-.536-1.079-.926-1.962-1.12a11 11 0 0 1-1.225-.245m0 34.022c-2.647-.244-5.294-.39-7.893-.44V10.359c3.236.195 6.472.488 9.708 1.365 3.432.926 5.981 2.73 7.746 4.68 1.766 2.046 2.6 4.63 2.6 7.652v6.823c0 2.632-.932 4.24-2.698 4.972-1.814.78-3.97.877-6.52.292-.981-.195-1.913-.34-2.893-.536v7.652c-.05 2.584-.05 5.118-.05 7.701m26.281-18.766v9.846c-.393-.341-.834-.682-1.226-1.024a9.7 9.7 0 0 1-2.01-2.096 5.3 5.3 0 0 1-.785-2.193 29 29 0 0 1-.196-3.46c0-1.463.049-2.486.147-3.022.098-.537.392-.78.785-.731.392.097 1.078.584 2.01 1.462.441.438.882.828 1.275 1.218m0 27.198a104 104 0 0 1 7.893 5.166V37.556c-3.481-4.63-6.913-8.871-10.492-12.478-1.912-1.95-3.677-3.12-5.099-3.607-1.373-.487-2.5-.097-3.285.926-.785 1.121-1.177 3.022-1.177 5.654 0 2.242.196 4.192.638 5.8.44 1.609.98 2.974 1.667 4.046.686 1.072 1.47 2.047 2.353 3.022a145 145 0 0 0-2.746 6.141c-.931 2.145-1.814 4.436-2.745 6.726 2.844.975 5.638 2.096 8.482 3.364q.956-2.924 1.912-5.703c.637-1.803 1.275-3.51 1.912-5.215l.589.438v6.385c.098 2.047.098 4.192.098 6.337"/></svg>