<svg xmlns="http://www.w3.org/2000/svg" xml:space="preserve" viewBox="1 1 242.03 250"><path d="M488.896 538.614c0-105.393-85.439-190.833-190.834-190.833-105.393 0-190.832 85.44-190.832 190.833 0 105.394 85.439 190.834 190.832 190.834 105.395 0 190.834-85.44 190.834-190.834" style="fill:#231f20;fill-opacity:1;fill-rule:nonzero;stroke:none" transform="matrix(.44696 0 0 -.44696 -11.106 327.032)"/><path d="M142.38 538.614c0 85.844 69.839 155.683 155.683 155.683s155.682-69.839 155.682-155.683-69.839-155.682-155.682-155.682c-85.844 0-155.683 69.839-155.683 155.682m-17.575 0c0-95.534 77.723-173.258 173.258-173.258 95.534 0 173.257 77.724 173.257 173.258s-77.723 173.259-173.257 173.259-173.258-77.724-173.258-173.259" style="fill:#fff;fill-opacity:1;fill-rule:nonzero;stroke:none" transform="matrix(.44696 0 0 -.44696 -11.106 327.032)"/><path d="M207.54 435.879c37.387 37.317 122.58 122.348 139.086 138.825l81.923-81.423-.32-.848c-19.04-53.512-70.203-91.926-130.166-91.926-34.982 0-66.967 13.073-91.328 34.59z" style="fill:#fff;fill-opacity:1;fill-rule:nonzero;stroke:none" transform="matrix(.44696 0 0 -.44696 -11.106 327.032)"/><path d="m248.875 503.726-47.942 47.65-37.86-37.79-.714-.706a138.3 138.3 0 0 0-2.404 25.734c0 76.154 61.955 138.109 138.108 138.109 76.152 0 138.107-61.955 138.107-138.109 0-8.533-.778-16.888-2.266-24.998l-.075-.804-87.228 86.697-96.813-96.632z" style="fill:#fff;fill-opacity:1;fill-rule:nonzero;stroke:none" transform="matrix(.44696 0 0 -.44696 -11.106 327.032)"/><path d="m236.832 489.946-41.898-41.82-.593-.607c-11.487 13.062-20.55 28.303-26.482 45.014l-.262.737c15.641 15.612 28.053 28.002 33.363 33.3l36.325-36.103z" style="fill:#fff;fill-opacity:1;fill-rule:nonzero;stroke:none" transform="matrix(.44696 0 0 -.44696 -11.106 327.032)"/><path d="M526.701 294.282v-70.418h18.288v70.36l.023.415h21.909l1.662 16.625h-70.775l6.175-16.625h22.711zM346.906 294.639h14.815c10.687-.08 18.13-2.454 18.13-12.113 0-7.917-4.276-13.3-15.993-13.3h-17.337v25.410999999999998zm-18.673 4.156v-74.93h18.288v28.737000000000002h11.013l.232-.027 22.413-28.483.185-.228h21.138l-.197.252-23.88 30.348.311.071c4.132 1.072 7.88 2.627 10.834 4.75 6.638 5.349 10.28 12.923 10.28 24.666 0 8.75-3.9 14.71-8.708 18.841-7.724 6.637-18.908 8.424-28.421 8.472h-38.476l5.002-12.086zM156.382 294.639h14.814c10.688-.08 18.13-2.454 18.13-12.113 0-7.917-4.275-13.3-15.992-13.3h-17.336l-.001.267v25.144zm-18.673 4.156v-74.93h18.288v28.737000000000002h11.013l.232-.027 22.413-28.483.185-.228h21.138l-.197.252-23.88 30.348.31.071c4.133 1.072 7.88 2.627 10.835 4.75 6.638 5.349 10.28 12.923 10.28 24.666 0 8.75-3.9 14.71-8.708 18.841-7.724 6.637-18.908 8.424-28.422 8.472h-38.475l5.002-12.086zM203.382 193.549h3.79l10.242-23.44h-4.323l-2.36 5.619h-11.006l-2.394-5.619h-4.19zm5.852-14.197-4.023 9.31-3.99-9.31zM229.384 193.384h10.374c5.453 0 8.644-2.926 8.644-7.414 0-3.824-2.294-6.12-5.552-7.05l6.284-8.81h-4.821l-5.785 8.112h-5.055v-8.113h-4.09zm10.075-11.54c2.926 0 4.788 1.532 4.788 3.959 0 2.494-1.795 3.857-4.821 3.857h-5.952v-7.815zM298.244 193.384h17.257v-3.657h-13.167v-6.052h11.67v-3.657h-11.67v-6.251h13.333v-3.658h-17.423zM328.501 193.384h3.791l12.469-16.094v16.094h4.023v-23.275h-3.425l-12.835 16.558v-16.558h-4.023zM362.981 193.384h4.09v-23.275h-4.09zM389.515 193.549h3.79l10.24-23.44h-4.321l-2.36 5.619h-11.007l-2.394-5.619h-4.19zm5.852-14.197-4.024 9.31-3.99-9.31zM468.952 255.214H440.57l-.328-.03 14.442 36.878.169-.392 14.293-36.5zM428.06 224.07l6.218 15.883.327.06h40.226l.264-.031 6.233-15.918.074-.2h19.138l-.056.14-35.544 86.988-.114.27h-29.478l4.76-10.77-31.192-76.34-.11-.289h19.178zM278.429 255.214h-28.382l-.328-.03 14.441 36.878.17-.392 14.293-36.5zm-40.894-31.143 6.22 15.883.325.06h40.227l.263-.031 6.234-15.918.074-.2h19.138l-.056.14-35.544 86.988-.114.27h-29.479l4.761-10.77-31.192-76.34-.11-.289h19.178zM87.232 255.214H58.85l-.329-.03 14.442 36.878.17-.392 14.292-36.5zM46.338 224.07l6.22 15.883.325.06H93.11l.264-.031 6.233-15.918.074-.2h19.138l-.055.14-35.545 86.988-.114.27h-29.48l4.763-10.77-31.193-76.34-.11-.289h19.178zM265.426 186.734V170.11h-4.023v23.275h4.355l7.083-11.006 7.082 11.006h4.356v-23.275h-4.09v16.692l-5.408-8.062h-4.023z" style="fill:#231f20;fill-opacity:1;fill-rule:nonzero;stroke:none" transform="matrix(.44696 0 0 -.44696 -11.106 327.032)"/></svg>