<svg xmlns="http://www.w3.org/2000/svg" fill-rule="evenodd" clip-rule="evenodd" image-rendering="optimizeQuality" shape-rendering="geometricPrecision" text-rendering="geometricPrecision" viewBox="1275.75 1588.78 18424.4 24747.88"><path fill="#f3f4f4" fill-rule="nonzero" d="M14076.14 4948.63h.55zm5624.01 12194.9v-43.37c-10.46-4070.69-2661.1-7520.22-6330.04-8727.72l706.03-3423.81-2782.97 1368.36 649.52-1459.49-1454.66-3268.72L9033.3 4857.5l649.53 1459.4-2782.82-1368.27 706.05 3423.81c-3676.21 1209.9-6330.31 4670.66-6330.31 8751.85 0 5087.86 4124.51 9212.37 9212.37 9212.37 5081.34 0 9201.62-4114.14 9212.03-9193.13"/><path fill="#ad033b" fill-rule="nonzero" d="m12796.84 8715.45 594.14-2881.47-639.32 314.32-1353.35 2601.07H9577.75L8224.51 6148.3l-639.39-314.32 594.19 2881.53c-3695.09 1012.3-6411.34 4392.4-6411.34 8408.78 0 4815.91 3904.15 8720.15 8720.15 8720.15 4815.97 0 8720.03-3904.24 8720.03-8720.15 0-4016.46-2716.27-7396.48-6411.31-8408.84"/><path fill="#141f78" d="M15786.39 17124.29c0-2926.15-2372.1-5298.27-5298.27-5298.27-2926.22 0-5298.36 2372.12-5298.36 5298.27 0 2926.18 2372.14 5298.29 5298.36 5298.29 2926.17 0 5298.27-2372.11 5298.27-5298.29m2859.1 0c0 4505.26-3652.19 8157.49-8157.37 8157.49-4505.26 0-8157.49-3652.23-8157.49-8157.49 0-3940.64 2794.29-7228.57 6509.48-7990.81l-615.6-2985.18 834.7 410.39 518.54 1165.25 330.27-.07v680.3h1160.26v-680.3l330.03.07 518.56-1165.25 834.79-410.39-615.6 2985.18c3715.23 762.15 6509.43 4050.08 6509.43 7990.81M11403.93 4857.5l-915.9 2058.11-915.97-2058.11 915.97-2058.11z"/><g fill-rule="nonzero"><path fill="#fefefe" d="M15505.07 17124.29c0 2770.79-2246.19 5017.06-5016.95 5017.06-2770.85 0-5017.02-2246.27-5017.02-5017.06 0-2770.76 2246.17-5017.04 5017.02-5017.04 2770.76 0 5016.95 2246.28 5016.95 5017.04"/><path fill="#af334a" d="M10035.74 16299.61v-1.17h-.07z"/><path fill="#ad033b" d="m10409.94 14650.81-404.2 293.68c-2.29 1.64-3.68 4.05-5.79 5.85 147.82 71.22 312.9 112.25 488.08 112.25 175.09 0 340.19-41.03 488.1-112.25-2.2-1.8-3.61-4.14-5.87-5.85l-404.21-293.68c-46.6-33.77-109.53-33.77-156.11 0m-755.34-1472.7h275.86c57.44 0 108.42-37.07 126.15-91.71l70.99-218.48c-183.55 62-345.44 169.95-473 310.19m508.01 300.86-115.84 356.37c-19.39 59.87 1.89 125.31 52.76 162.29l303.15 220.21c50.87 36.96 119.74 36.96 170.55 0l303.23-220.21c50.88-36.98 72.15-102.42 52.67-162.29l-115.69-356.37c-19.45-59.71-75.18-100.28-138.04-100.28h-374.74c-62.93 0-118.66 40.57-138.05 100.28m-440.63 664.75c17.75-54.64-1.73-114.6-48.24-148.28l-300.64-218.48c-7.34 51.89-12.41 104.49-12.41 158.36 0 246.71 80.19 474.18 214.65 659.82zm1893.25-208.4c0-53.87-5-106.47-12.36-158.36l-300.55 218.48c-46.6 33.68-66.06 93.64-48.31 148.28l146.64 451.42c134.46-185.64 214.58-413.11 214.58-659.82m-293.83-757.21h-275.87c-57.46 0-108.33-37.07-126.17-91.71l-70.97-218.48c183.62 62 345.51 169.95 473.01 310.19m1254.37 2178.01-647.86 318.46-280.17 629.42c863.06 429.29 1457.78 1319.8 1457.78 2351.86 0 450.48-113.34 874.25-312.52 1244.84 596.12-557.34 965.76-1328.46 965.76-2179.42 0-950.14-460.71-1800.62-1182.99-2365.16m-2891.39 1555.01c437.75 608 1754.74 816.02 2277.61 1432.06 240.12 282.96 366.38 759.49 55.88 1185.37-80.28-225.55-299.47-399.47-523.49-399.47-184.4 0-473.01 176.98-473.01 561.87 0 517.17 430.87 857.76 1058.87 857.76 413.36 0 845.56-225.51 1203.74-611.12 459.72-558.76 752.91-1247.73 805.92-1978.3 5.07-78.48 9.7-157.35 9.7-238.02 0-1080.37-533.59-2044.44-1363.99-2670.81l353.4-793.95 819.06-402.81c814.06 850.87 1315.74 2002.85 1315.74 3270.52 0 2611.31-2124.47 4735.72-4735.69 4735.72-2611.25 0-4735.7-2124.41-4735.7-4735.72 0-1267.67 501.62-2419.65 1315.62-3270.52l819.11 402.81 353.38 793.95c-830.35 626.37-1363.92 1590.44-1363.92 2670.81v.62c.31 1218.34 791.13 2578.4 2104.02 2767.63-59.11-1123.88 295.79-1952.01 1153.13-2407.12-209.88-355.04-369.57-754.33-449.38-1171.28m-1813.73 1744.73c0 450.48 113.34 874.25 312.54 1244.84-596.15-557.34-965.81-1328.46-965.81-2179.42 0-950.14 460.78-1800.62 1183.04-2365.16l647.82 318.46 280.17 629.42c-863.08 429.29-1457.76 1319.8-1457.76 2351.86"/><path fill="#f7a30a" d="M4147.82 17744.96c-218.83 0-396.19-177.44-396.19-396.23 0-43.07 8.58-83.64 21.27-122.49 91.41 105.21 224.6 173.21 374.92 173.21 150.3 0 283.45-68 374.87-173.21 12.67 38.85 21.32 79.42 21.32 122.49 0 218.79-177.42 396.23-396.19 396.23m-190.16 170.89c-189.48 109.35-431.8 44.47-541.21-144.94-109.38-189.56-44.45-431.88 145.04-541.23 37.25-21.58 76.76-34.48 116.73-42.83-45.44 131.7-37.69 281.07 37.47 411.23 75.18 130.22 200.58 211.61 337.4 238.11-27.23 30.33-58.16 58.14-95.43 79.66m-630.09-592.6c-75.16 130.14-82.92 279.44-37.47 411.23-39.95-8.44-79.48-21.34-116.77-42.83-189.45-109.44-254.38-351.69-144.94-541.17 109.37-189.56 351.65-254.44 541.12-145 37.3 21.49 68.23 49.26 95.46 79.66-136.83 26.5-262.2 107.95-337.4 238.11m43.98-819.14c218.79 0 396.17 177.44 396.17 396.23 0 43.08-8.58 83.65-21.25 122.49-91.43-105.21-224.57-173.21-374.92-173.21-150.32 0-283.51 68-374.89 173.21-12.67-38.84-21.29-79.41-21.29-122.49 0-218.79 177.37-396.23 396.18-396.23m190.16-170.88c189.5-109.35 431.78-44.47 541.19 144.93 109.38 189.57 44.5 431.89-145.02 541.24-37.29 21.58-76.78 34.47-116.73 42.83 45.45-131.71 37.65-281.1-37.51-411.32-75.16-130.16-200.53-211.52-337.36-238.03 27.21-30.4 58.16-58.16 95.43-79.65m630.07 592.59c75.16-130.13 82.94-279.46 37.47-411.23 39.97 8.44 79.48 21.34 116.77 42.83 189.48 109.44 254.38 351.67 145.01 541.17-109.42 189.56-351.74 254.44-541.19 145-37.3-21.49-68.23-49.26-95.46-79.66 136.83-26.59 262.24-107.95 337.4-238.11m388.17-274.82c-83.7-145.1-236.25-237.25-402.9-247.18-89.24-135.94-242.53-226.14-416.98-226.14-167.47 0-323.62 86.06-415.53 225.43-162.33 9.38-317.04 97.01-404.27 247.89-83.72 145-87.22 322.91-12.9 471.96-73.58 145.56-75.38 323.78 12.03 475.12 83.7 145.09 236.25 237.24 402.95 247.17 89.21 135.94 242.48 226.15 416.9 226.15 167.5 0 323.62-86.06 415.53-225.44 162.36-9.39 317.11-97.01 404.28-247.88 83.74-145 87.26-322.91 12.92-472.06 73.58-145.47 75.38-323.71-12.03-475.02M17713.57 17804.52c-7.8-131.02-46.74-264.12-115.76-383.73-26.9-46.58-58.87-89.19-93.02-129.51 52.14 9.28 104.97 15.71 158.77 15.71 138.66 0 273.89-33.24 391.46-92.4-25.88 241.92-154.77 452.98-341.45 589.93m-838.6 91.38c109.68-72.23 205.74-172.58 275.09-292.5 26.88-46.67 47.75-95.68 65.81-145.47 17.91 49.79 38.85 98.8 65.81 145.47 69.18 119.92 165.35 220.27 275.1 292.5-104.46 46.36-219.59 72.55-340.91 72.55-121.4 0-236.54-26.19-340.9-72.55m-498.25-681.31c117.49 59.16 252.74 92.4 391.4 92.4 53.78 0 106.7-6.43 158.77-15.71-34.17 40.32-66.15 82.93-92.96 129.51-69.09 119.61-108.02 252.71-115.84 383.73-186.66-136.95-315.49-348.01-341.37-589.93m341.37-770.51c7.82 131 46.75 264.19 115.84 383.8 27.99 48.4 61.38 92.47 97.01 134.15-187.77-32.44-389.05-8.44-554.37 72.77 25.63-242.26 154.71-453.62 341.52-590.72m838.69-91.31c-109.75 72.24-205.99 172.59-275.1 292.51-26.96 46.6-47.9 95.68-65.81 145.4-18.06-49.72-38.93-98.8-65.81-145.4-69.35-119.92-165.41-220.27-275.09-292.51 104.36-46.35 219.5-72.61 340.9-72.61 121.41 0 236.45 26.26 340.91 72.61m-239.45 771.52c206.61-103.96 485.82-103.96 692.51 0-206.45 104.12-486.06 104.12-692.51 0m-202.92 0c-206.54 104.12-486.13 104.12-692.57 0 206.67-103.96 485.88-103.96 692.57 0m152.18-87.77c6.58-115.53 42.46-233.65 103.75-339.97 61.44-106.29 145.86-196.27 242.47-259.82-6.64 115.53-42.36 233.65-103.72 339.88-61.53 106.47-145.95 196.43-242.5 259.91m-343.94-259.91c-61.35-106.31-97.16-224.35-103.72-339.88 96.61 63.48 180.88 153.44 242.41 259.82 61.27 106.32 97.17 224.44 103.72 339.97-96.61-63.48-180.96-153.53-242.41-259.91m0 695.45c61.38-106.22 145.8-196.34 242.41-259.82-6.55 115.62-42.36 233.57-103.72 339.88-61.53 106.38-145.95 196.28-242.41 259.83 6.56-115.6 42.37-233.57 103.72-339.89m586.44 0c61.27 106.32 97.08 224.29 103.72 339.89-96.61-63.55-180.96-153.51-242.47-259.83-61.36-106.31-97.17-224.26-103.75-339.88 96.7 63.48 181.12 153.53 242.5 259.82m546-437.26c-165.32-81.21-366.61-105.21-554.44-72.77 35.72-41.68 69.18-85.75 97.16-134.15 69.02-119.61 107.96-252.8 115.76-383.8 186.9 137.1 315.88 348.46 341.52 590.72m-839.22-857.12c-522.09 0-946.7 424.61-946.7 946.61 0 522.03 424.61 946.71 946.7 946.71 522 0 946.71-424.68 946.71-946.71 0-522-424.71-946.61-946.71-946.61M5422.04 11882.84l-222.84 213.96 495.21 515.75 222.8-213.94c142.99-137.36 147.6-363.81 10.33-506.87-136.12-141.63-362.56-146.17-505.5-8.9m767.54 1245.46-206.29 198.09-1188.52-1237.81 429.09-412.03c255.82-245.61 664.32-238.65 909.92 17.12 246.96 257.17 237.34 665.61-18.52 911.21l-222.82 213.96zM7411.57 11286.19l-950.84-620.36 298.51-149.53 634.1 414.14 48.04-755.9 298.45-149.46-72.53 1132.9 329.78 658.34-255.75 128.12zM8824.24 9701.46l283.49-37.6 137.8 1039.57c27.53 207.93 220.12 355.44 428.06 327.92 207.93-27.53 355.52-220.21 327.91-428.06l-137.73-1039.63 283.53-37.54 141.24 1066.07c31.75 355.35-220.19 675.32-577.35 722.67-355.44 47.06-683.78-195.97-745.67-547.42zM11634.62 10397.62l-204.89 931-279.28-61.51 368.79-1675.71 726.1 1135.96 204.88-931 279.3 61.51-368.87 1675.8zM14283.6 10562.5l-832.26 1501.06-250.14-138.67 832.26-1501.14zM15122.6 12027.68l878.06-108.26 289.62 290.4-1079.12 133.6-136.09 1078.81-289.7-290.32 110.22-877.92-494.11 493.08-202.15-202.53 1215.29-1212.46 202.15 202.52zM5038.09 21288.44l408.37-1058.89 208.4 260.63-272.79 706.42 749.03-110.64 208.38 260.72-1122.87 165.16-574.87 459.54-178.66-223.4zM7381.33 22461.89l-475.56-318.74-239.06 356.57 396.3 265.72-159.34 237.71-396.26-265.57-239.06 356.57 554.79 371.86-238.62 184.6-713.29-478.08 956.21-1426.59 792.51 531.33zM8668.83 23016.05l-295.62-89.97-208.3 684.13 295.63 89.97c189.65 57.7 389.63-48.86 447.39-238.65 57.19-187.83-49.34-387.81-239.1-445.48m-712.21 1278.3-273.72-83.34 500.02-1642 569.22 173.38c341.12 103.79 532.73 463.22 429.38 802.55-72.7 238.95-270.51 404.05-498.6 446.19l140.28 567.1-364.88-111.15-119.47-484.88-257.24-78.33zM10882.55 23294.95l-572.12-9.44-7.02 429.2 476.73 7.85-4.77 286.08-476.66-7.82-7.2 429.07 667.64 11.08-99.97 284.4-858.3-14.01 28.08-1716.59 953.64 15.56zM12851.39 24344.6l-1259.07-1394.92 317.37-103.81 734.17 864.08 81.83-1130.95 317.37-103.72zM14232.33 23070.55l323.37-216.7-427.34-287.9zm1114.44-57.78-277.42 185.81-255.99-172.92-519.99 348.48 62.69 302.57-277.33 185.91-322.14-1851.44zM15449.41 21553.88l741.67 599.26-179.79 222.56-1335.05-1078.75 1340.99-142.34-741.68-599.24 179.73-222.54 1335.05 1078.72zM11696.44 18614.18c-96.69-229.49-279.77-326.1-436.73-410.61 139.46 157.68 192.68 295.26 205.36 422.67 59.16-7.91 153.66-16.58 231.37-12.06"/></g></svg>