<svg xmlns="http://www.w3.org/2000/svg" xml:space="preserve" viewBox="0.5 -0.5 754.69 1051.53"><defs><clipPath id="a" clipPathUnits="userSpaceOnUse"><path d="M.5-.5h595.446v841.89H.5Z"/></clipPath></defs><g clip-path="url(#a)" transform="matrix(1.33333 0 0 -1.33333 -.667 1121.853)"><path d="M85.517 733.902c-33.168-6.118-45.2-10.714-53.643-20.489-8.697-10.07-10.48-19.66-10.48-30.96v-332.5c0-20.582 1.58-45.539 13.302-74.592 12.85-31.851 35.83-63.922 70.253-98.039 44.344-43.95 93.107-75.26 126.205-93.783 35.878-20.08 61.672-29.92 61.928-30.018l1.063-.402 1.063.402c.255.098 26.048 9.938 61.927 30.018 33.097 18.524 81.861 49.832 126.205 93.783 34.422 34.117 57.402 66.188 70.254 98.04 11.72 29.052 13.3 54.01 13.3 74.59v332.5c0 11.3-1.783 20.89-10.48 30.961-8.441 9.775-20.475 14.37-53.643 20.49-63.73 11.755-133.921 17.716-208.626 17.716s-144.897-5.96-208.628-17.717" style="fill:#502891;fill-opacity:1;fill-rule:nonzero;stroke:none"/><path d="M107.062 179.453c-75.334 74.666-82.667 127.25-82.667 170.5v332.5c0 11 1.833 19.833 9.75 29 7.353 8.513 17.583 13.166 51.917 19.5 60.086 11.083 130.094 17.666 208.082 17.666h.001c77.988 0 147.996-6.583 208.082-17.667 34.334-6.333 44.564-10.986 51.918-19.5 7.916-9.166 9.75-18 9.75-29v-332.5c0-43.25-7.334-95.833-82.668-170.499C395.85 94.83 294.145 56.328 294.145 56.328S192.439 94.83 107.062 179.453" style="fill:#fff;fill-opacity:1;fill-rule:nonzero;stroke:none"/><path d="M108.858 187.197q1.462-1.471 2.955-2.95c43.482-43.099 91.352-73.85 123.853-92.06 29.094-16.3 51.39-25.73 58.479-28.6 7.087 2.87 29.384 12.3 58.478 28.6 32.5 18.21 80.371 48.961 123.854 92.06 33.462 33.167 55.73 64.163 68.074 94.762 11.097 27.506 12.594 51.298 12.594 70.943V634.23l-.008 1.383-447.42-447.699zM34.563 309.937c-2.873 14.786-3.418 28.156-3.418 40.015v332.5c0 9.383 1.356 16.77 8.108 24.589 5.856 6.78 14.538 11.094 48.033 17.273 63.149 11.648 132.746 17.555 206.858 17.555 57.065 0 111.456-3.502 162.284-10.43l1.031-.274L34.967 308.408ZM227.596 362.646q.371-.37.592-.654.222-.282.302-.5a.9.9 0 0 0 .067-.377.42.42 0 0 0-.125-.272l-5.26-5.263 4.377-4.373 4.936 4.939q.112.112.261.136.15.026.365-.053.218-.081.495-.296a7 7 0 0 0 .65-.587q.37-.371.586-.649.217-.278.31-.508a.8.8 0 0 0 .073-.384.44.44 0 0 0-.132-.266l-4.935-4.94 5.995-5.992a.54.54 0 0 0 .162-.31q.024-.173-.098-.434a3.4 3.4 0 0 0-.396-.607 10 10 0 0 0-.755-.83 10 10 0 0 0-.824-.75 3.3 3.3 0 0 0-.607-.397q-.255-.117-.435-.098a.5.5 0 0 0-.317.157l-14.599 14.59q-.548.545-.511 1.068.037.522.446.934l7.56 7.564a.45.45 0 0 0 .266.131q.156.018.378-.067.223-.086.513-.314a8 8 0 0 0 .66-.597zM250.969 372.979q1.998-1.998 3.074-4.069 1.078-2.07 1.193-4.153t-.758-4.108-2.776-3.93q-1.88-1.88-3.769-2.792t-3.828-.841q-1.938.071-3.955 1.152-2.016 1.083-4.138 3.203-1.948 1.948-3.007 4-1.059 2.054-1.167 4.13-.109 2.073.757 4.107.868 2.034 2.783 3.95 1.828 1.83 3.712 2.747t3.828.854q1.945-.065 3.956-1.116 2.01-1.052 4.095-3.134m-3.267-3.627q-1.262 1.26-2.494 2.095-1.233.834-2.447 1.092a4.55 4.55 0 0 1-2.41-.135q-1.198-.392-2.389-1.583-1.202-1.203-1.558-2.463a5.2 5.2 0 0 1-.095-2.51q.258-1.25 1.063-2.464t1.93-2.34q1.313-1.31 2.557-2.157 1.246-.849 2.46-1.117a4.34 4.34 0 0 1 2.398.132q1.184.407 2.388 1.61t1.563 2.457q.362 1.253.09 2.515-.27 1.264-1.088 2.49-.816 1.226-1.968 2.378M268.051 390.072q1.998-1.997 3.075-4.068 1.077-2.073 1.192-4.154.116-2.08-.758-4.108-.873-2.025-2.776-3.93-1.88-1.88-3.768-2.792-1.89-.911-3.828-.84-1.938.07-3.955 1.152t-4.139 3.203q-1.947 1.947-3.006 4t-1.168 4.13q-.11 2.073.758 4.106.867 2.034 2.782 3.95 1.83 1.83 3.713 2.748 1.883.916 3.828.853 1.945-.066 3.955-1.115 2.01-1.054 4.095-3.135m-3.266-3.628q-1.262 1.262-2.495 2.096t-2.446 1.093a4.56 4.56 0 0 1-2.411-.135q-1.197-.392-2.388-1.584-1.203-1.203-1.558-2.463a5.2 5.2 0 0 1-.095-2.51q.257-1.25 1.062-2.464a15 15 0 0 1 1.93-2.338q1.313-1.313 2.558-2.16t2.46-1.117a4.35 4.35 0 0 1 2.397.134q1.185.405 2.388 1.61 1.203 1.202 1.564 2.456a5.1 5.1 0 0 1 .09 2.516q-.271 1.263-1.088 2.49a15.6 15.6 0 0 1-1.968 2.376M274.203 409.283q.359-.359.58-.641.222-.285.314-.501a.77.77 0 0 0 .073-.383.45.45 0 0 0-.13-.279l-4.023-4.025 13.004-12.995a.5.5 0 0 0 .143-.306q.02-.18-.103-.428a3.7 3.7 0 0 0-.402-.602 10 10 0 0 0-.75-.824 10 10 0 0 0-.824-.75 3.7 3.7 0 0 0-.6-.403q-.249-.123-.429-.103a.48.48 0 0 0-.305.144l-13.003 12.997-4.023-4.026a.44.44 0 0 0-.285-.137.8.8 0 0 0-.377.079 2.3 2.3 0 0 0-.5.314q-.284.22-.642.58a8 8 0 0 0-.598.658 2.4 2.4 0 0 0-.32.507.74.74 0 0 0-.074.37q.019.156.144.28l11.314 11.322q.111.11.272.137a.7.7 0 0 0 .378-.068 2.4 2.4 0 0 0 .506-.32q.29-.227.66-.597M297.583 412.806q.858-.857 1.318-1.79.46-.932.58-1.881.119-.95-.073-1.912a8.2 8.2 0 0 0-.636-1.905 11 11 0 0 0-1.115-1.85 17 17 0 0 0-1.637-1.872l-4.266-4.27q-.41-.41-.93-.446-.522-.038-1.069.51l-14.027 14.018q-.548.547-.512 1.069.037.52.445.93l4.024 4.027q1.473 1.472 2.743 2.246 1.27.772 2.474.97 1.203.196 2.346-.203 1.142-.398 2.188-1.443.585-.585.953-1.25.367-.664.505-1.371.138-.709.047-1.446a5 5 0 0 0-.424-1.47q.808.56 1.699.83.89.269 1.81.208a5.3 5.3 0 0 0 1.829-.47q.906-.409 1.728-1.23m-11.028 2.539a3.5 3.5 0 0 1-1.022.728q-.534.24-1.085.201a2.9 2.9 0 0 1-1.135-.347q-.585-.311-1.332-1.059l-1.629-1.63 4.2-4.196 1.801 1.8q.697.701.945 1.285.248.585.23 1.155a2.7 2.7 0 0 1-.277 1.098 3.6 3.6 0 0 1-.696.965m7.727-6.043q-.556.555-1.18.81t-1.277.195-1.368-.454q-.715-.393-1.6-1.278l-1.918-1.92 4.554-4.55 2.336 2.337q.676.676.995 1.282.32.602.379 1.22.06.616-.164 1.221a3.2 3.2 0 0 1-.757 1.137M316.621 424.623q.598-.3.897-.523.298-.225.293-.493-.006-.265-.323-.646-.318-.378-.926-.988a28 28 0 0 0-1.007-.97q-.372-.336-.616-.466-.24-.132-.416-.105a1.2 1.2 0 0 0-.384.136l-4.305 2.188-6.08-6.082 2.14-4.178a1.4 1.4 0 0 0 .163-.424.74.74 0 0 0-.075-.448q-.11-.248-.416-.603a17 17 0 0 0-.837-.888 12 12 0 0 0-.932-.859q-.36-.286-.629-.267-.267.019-.49.317-.224.3-.512.885l-9.323 19.271q-.137.286-.17.516-.03.231.119.516.149.287.515.691.367.404 1 1.038.733.734 1.187 1.15.453.417.764.59.311.175.554.144.243-.032.554-.193zm-19.22 4.451-.012-.011 4.613-9.104 4.492 4.494zM327.479 435.807q.373-.371.595-.659.225-.284.33-.514t.086-.398a.47.47 0 0 0-.142-.293l-7.37-7.374q-.41-.41-.931-.448-.522-.036-1.07.512l-14.625 14.614a.5.5 0 0 0-.143.304q-.02.18.103.428.123.249.403.601.278.353.748.825.484.483.83.755.348.274.596.398.247.123.427.103a.48.48 0 0 0 .305-.143l12.961-12.952 5.068 5.07a.5.5 0 0 0 .287.151.7.7 0 0 0 .38-.068c.144-.063.312-.166.503-.317q.286-.222.658-.595M338.12 446.454a7 7 0 0 0 .595-.66q.225-.284.33-.513.106-.231.086-.398a.47.47 0 0 0-.143-.292l-7.369-7.374q-.41-.412-.932-.448-.521-.037-1.07.51l-14.625 14.615a.5.5 0 0 0-.142.304q-.02.18.103.428.124.249.402.602.28.353.748.824.485.483.83.756a3.7 3.7 0 0 0 .596.397q.248.122.428.103a.48.48 0 0 0 .305-.143l12.96-12.952 5.069 5.071a.5.5 0 0 0 .287.15.7.7 0 0 0 .379-.068q.217-.093.504-.316.286-.224.658-.596M355.506 466.058a9 9 0 0 0 .508-.545q.197-.236.316-.428.117-.192.166-.366.05-.174.06-.457.011-.285-.15-.906a8.7 8.7 0 0 0-.515-1.398 11.697 11.697 0 0 0-2.37-3.356q-1.652-1.653-3.49-2.473a8.3 8.3 0 0 0-3.785-.738q-1.944.08-3.959 1.1c-1.344.68-2.685 1.692-4.031 3.035q-2.05 2.052-3.098 4.19-1.046 2.138-1.148 4.203a9.1 9.1 0 0 0 .713 3.997q.815 1.934 2.466 3.587.671.671 1.405 1.179.735.507 1.447.854.71.345 1.373.527.663.184 1 .181.34-.003.512-.052.175-.05.385-.184c.138-.09.295-.208.462-.351q.252-.215.598-.561.372-.371.606-.655t.334-.506a.8.8 0 0 0 .084-.384.4.4 0 0 0-.123-.272q-.188-.187-.692-.254a11 11 0 0 1-1.226-.25 8.6 8.6 0 0 1-1.57-.593q-.844-.41-1.716-1.279-.954-.957-1.314-2.1a5.2 5.2 0 0 1-.158-2.399q.2-1.255.959-2.56.76-1.305 2.052-2.597 1.419-1.418 2.749-2.164t2.543-.878a4.76 4.76 0 0 1 2.302.303q1.093.435 2.05 1.39.867.87 1.292 1.71.424.84.623 1.548.201.705.291 1.199t.25.656a.5.5 0 0 0 .248.148q.127.025.322-.074a2.7 2.7 0 0 0 .49-.34q.294-.242.739-.687M367.648 476.001q.373-.372.596-.658.224-.285.33-.515t.086-.398a.48.48 0 0 0-.142-.292l-7.37-7.374q-.41-.41-.933-.448-.522-.037-1.07.51l-14.624 14.615a.5.5 0 0 0-.144.304q-.02.18.105.429.123.248.4.6.279.354.75.826.485.482.83.755.346.273.597.397.246.123.427.103.18-.018.305-.143l12.96-12.952 5.07 5.072a.5.5 0 0 0 .284.15.7.7 0 0 0 .38-.068q.219-.093.505-.317.284-.223.658-.596M377.256 494.906q1.48-1.479 2.213-3.082t.699-3.254q-.037-1.651-.855-3.316-.82-1.666-2.434-3.28-1.515-1.515-3.098-2.34-1.582-.827-3.185-.89-1.602-.061-3.192.646-1.592.708-3.133 2.25l-9.783 9.776a.5.5 0 0 0-.148.298q-.027.174.105.43.129.254.405.602.273.348.757.834.472.473.82.746.35.274.598.399.25.124.428.105a.5.5 0 0 0 .305-.142l9.488-9.483q.957-.956 1.893-1.421.939-.466 1.84-.484.9-.018 1.744.366.843.385 1.6 1.144.77.769 1.142 1.613t.34 1.72q-.03.875-.467 1.77-.434.892-1.277 1.737l-9.676 9.67a.5.5 0 0 0-.149.297q-.025.173.098.422.125.248.404.602.279.353.75.825.471.471.813.74.34.264.588.39.248.123.423.099a.5.5 0 0 0 .297-.15zM393.473 508.755q.858-.856 1.318-1.79.46-.93.58-1.88a6 6 0 0 0-.072-1.912 8.4 8.4 0 0 0-.637-1.905 11 11 0 0 0-1.117-1.85 17 17 0 0 0-1.635-1.873l-4.266-4.27q-.41-.41-.931-.445-.521-.038-1.069.51l-14.027 14.018q-.547.547-.512 1.068t.446.93l4.023 4.027q1.474 1.473 2.742 2.247 1.271.772 2.475.97a4.7 4.7 0 0 0 2.346-.203q1.143-.399 2.187-1.443.586-.585.955-1.25.366-.665.504-1.371.14-.708.047-1.447a5 5 0 0 0-.424-1.469 6 6 0 0 0 1.7.83q.89.268 1.81.208a5.3 5.3 0 0 0 1.828-.471q.909-.409 1.729-1.229m-11.028 2.539a3.5 3.5 0 0 1-1.023.727 2.2 2.2 0 0 1-1.084.202 2.8 2.8 0 0 1-1.135-.348q-.585-.311-1.332-1.058l-1.629-1.63 4.2-4.197 1.8 1.802q.698.699.945 1.284.25.585.23 1.155a2.6 2.6 0 0 1-.276 1.098 3.6 3.6 0 0 1-.696.965m7.727-6.044q-.556.557-1.18.811-.624.255-1.277.194-.654-.06-1.37-.453-.715-.393-1.599-1.278l-1.918-1.92 4.555-4.55 2.336 2.337q.674.677.994 1.28.32.604.379 1.221.06.615-.164 1.222-.223.605-.756 1.136" style="fill:#502891;fill-opacity:1;fill-rule:nonzero;stroke:none"/><path d="M158.245 157.563v71.75l.04 1.197-38.867-38.893-.536-.648c12.915-12.785 26.227-24.465 39.395-35.031zM204.321 123.813V275.73l.03.874 59.941 59.978.068-1.269V89.23l.056-1.28a606 606 0 0 0-24.344 12.945 617 617 0 0 0-35.78 21.716zM522.666 256.813v338.25l.543.599 24.16 24.176.026-.775v-269.11c0-25.738-2.55-55.125-24.15-92.139zM310.436 242.48V82.73l-.008-1.316c10.072 4.727 23.044 11.207 37.789 19.48a613 613 0 0 1 21.515 12.66l.742.426v83.418l-.074.729c-27.195 3.197-49.885 21.125-59.873 45.588zM310.436 299.646v81.666l.008 1.45 59.314 59.353.717.7v-96.502l-.094-1.038c-26.777-3.155-49.182-20.59-59.392-44.482zM416.55 145.48v61.418l-.029.825c21.96 12.857 36.71 36.697 36.71 63.98 0 27.29-14.756 51.135-36.727 63.99l.047 1.453v151.751l.402.442 59.065 59.101.572.457V199.48l-.014-1.265a488 488 0 0 0-6.965-7.043c-17.177-17.027-35.064-32.096-52.384-45.192z" style="fill:#f57815;fill-opacity:1;fill-rule:nonzero;stroke:none"/><path d="M315.58 298.563c-3.4-8.295-5.424-17.333-5.424-26.86 0 0 .57-5.668 2.82-9.418s1.75-4.25 8.419-4c6.666.25 7.582-.584 9.332 5.25 1.664 5.541 4.084 13.917 9.77 21.131.774.984.61 1.828.085 2.882-.791 1.59-1.936 4.345-2.688 8.154-.96 4.862-.445 11.001-.156 13.591.088.783-.254 1.168-.935 1.041-2.563-.48-8.983-1.729-12.076-2.715-3.916-1.25-6.711-3.114-9.147-9.057M412.303 331.338c1.316-1.22 2.914-2.858 4.312-4.738.239-.32.633-1.422.477-2.155-.283-1.33-.873-3.627-1.947-5.993-.96-2.108-2.028-3.556-2.762-4.405-.545-.627-1.305-.902-2.406-.856-1.702.072-5.079.193-11.25.344-7.239.178-12.49-.066-14.916-.222-.98-.063-2.39.544-2.844.875-6.373 4.61-14.242 9.545-17.12 11.326-.712.441-.87 1.408-.638 1.946 1.191 2.757 4.068 8.233 5.602 10.325 1.834 2.5 7.166 3 10.334 2.906 1.707-.05 3.402-.062 5.08-.183a68.6 68.6 0 0 0 22.437-5.524c.992-.431 4.1-2.22 5.64-3.646M419.021 325.463c-.695.414-1.666 1.42-1.917 1.771-1.733 2.423-2.875 3.883-2.875 3.883a69.3 69.3 0 0 0 17.107-14.299s-3.86 2.884-6.941 5.134c-1.989 1.45-4.114 2.763-5.374 3.51M444.56 283.952c-1.29 3.1-1.665 4.333-1.75 6-.081 1.667.172 7.952.172 7.952a68.6 68.6 0 0 0 4.979-21.285s-2.15 4.333-3.4 7.333M341.979 216.453c-1.239 1.758-3 3.082-6.584 5.416s-8.907 5.258-8.907 5.258a69.3 69.3 0 0 1 18.844-15.572s-1.771 2.648-3.353 4.898M310.605 263.781a68.5 68.5 0 0 1 6.44-22.166s-1.15 7.92-1.65 11.588c-.5 3.666-1 5.082-2.166 6.916-1.168 1.834-2.624 3.662-2.624 3.662M366.154 339.47c-1.148-.161-2.27-.462-3.388-.736-15.202-3.7-28.428-12.437-37.819-24.341-.601-.764-1.205-1.53-1.76-2.33-2.21-3.194-2.96-4.528.29-3.694 2.87.735 8.921 1.926 13.398 2.768.594.111 1.984.593 2.572 1.101 1.494 1.295 4.862 4.078 9.948 7.547 4.812 3.285 8.742 4.914 10.765 5.621.953.334 1.63.82 1.928 1.49.517 1.16 1.494 3.256 2.973 6.056 2.334 4.417 4.187 6.952 1.093 6.519M386.395 312.285c-2.668-.02-3.25.25-6.75-6.5s-7.5-14.583-8.418-16.583c-.916-2-.582-3.5 1.25-6 1.834-2.5 10.418-14.667 13.084-18.249 2.666-3.584 2.918-4.502 7.5-4.418 4.584.084 15.168.334 18.5.75 3.334.418 5.166 1.416 7.166 4.25s5.25 8.25 7.5 14.75 2.75 9.166 1 11.834c-1.75 2.666-8.332 11.583-11.25 15.333-2.916 3.75-3.332 4.333-6.832 4.417s-11.668.5-22.75.416" style="fill:#fff;fill-opacity:1;fill-rule:nonzero;stroke:none"/><path d="M347.56 286.285c-3.5 0-6.583-1.416-8.833-5.833s-4-9.417-6-14.083-3.082-7.168-1.75-10.584c1.334-3.416 7.668-13.5 11.5-17.75 3.834-4.25 5.5-5 9.918-4.75 4.416.25 12.084.584 16.416.834 4.334.25 6.416.25 7.916 3.5s6.5 12.75 8.668 17c2.166 4.25 2.834 5.582.666 8.416-2.166 2.834-11.5 16-14.166 19.417-2.668 3.417-4.334 3.75-6.168 3.75-1.832 0-12.498.083-18.166.083M402.31 222.37c-4.187-2.13-5.915-2.585-6.665-4.75-.75-2.167-2.666-6.5-4.084-9.335-1.416-2.832-1.58-3.205.584-3.332 2.832-.168 4.832.166 7.767.942 2.518.666 4.904 1.703 7.258 2.75 11.781 5.244 21.814 13.695 29.012 24.238 1.129 1.652 2.879 4.652-1.205 3.57-4.082-1.084-8.166-.834-11.332-.834-3.168 0-4.084-.25-6.168-2.416-2.082-2.168-4.998-5.668-15.166-10.834M351.395 232.453c-4.752-.088-6.25.166-8-4.834s-3-7.584-1-10.25 6.894-8.805 16.28-11.568c4.157-1.225 8.452-2.182 12.882-2.65 6.588-.698 15.838 1.884 17.004 2.802 1.166.916 3.25 4.25 4.584 7.25 1.332 3 2.582 5.832.582 7.082s-14.082 10.5-15.916 11.918c-1.834 1.416-2.834 1.666-7.084 1.25-4.25-.418-10.25-.834-19.332-1" style="fill:#fff;fill-opacity:1;fill-rule:nonzero;stroke:none"/><path d="M418.395 263.703c-1.637-1.787-2-2-.834-4.5s2.584-9.834 2.834-16.168c.25-6.332 0-6.666 4-6.666s9.416.166 12.25 1.666 5.533 5.268 6.724 8.426c2.846 7.54 4.625 15.643 4.756 24.158 0 0-1.314 5.916-3.814 11.833-1.829 4.327-2.5 4.917-7.5 5.167s-7.166.916-8.334-3.084c-1.166-4-4.666-14.916-10.082-20.832" style="fill:#fff;fill-opacity:1;fill-rule:nonzero;stroke:none"/><path d="M193.145 648.827s2.437.688 4.312-.5c0 0 0-1-.375-2.562 0 0-2.062 1.25-3.937 3.062m12.562 51.5c-4.312-.812-5-3.062-5-3.062s2.688.187 5 .125c2.313-.063 4.313-1.938 8.563-2.25s6.125 2.437 6.125 2.437c-4.188 3.938-10.375 3.563-14.688 2.75m-6.812-181.687c-.379 1.017-1.263 2.192-1.938 2.75-1.437 1.187-4.125 1.375-5.375.25s-1.312-3.25-1.312-3.25-.576-.027-2.125.25c-1.75.312-2.556-.294-2.556-.294a7 7 0 0 0-.694 1.044c-1.5 2.812-1.313 15.687.312 25.812s3.438 12.875 3.438 12.875c0-.937.187-1.812.187-1.812 2.812.065 5.067.764 6.867 1.766 0 0 2.07-1.016 4.758-1.516 2.607-.485 4.25.062 4.25.062-.625 1.75-.937 2.75-.937 2.75s2.125-.687 7.187-1.312 6.75.062 6.75.062c-1.312 2.375-3.875 4.25-3.875 4.25s2.125-1.375 6.125-1.625 5.5.75 5.5.75c-1.75 2.375-3.875 4.188-3.875 4.188s6.563-1.875 11.375-1.25 5.188 2 5.188 2c-1.813 1.562-4.438 2.937-4.438 2.937 13.125 2.063 17.688 6.438 20.5 9.25s4.054 4.938 4.054 4.938l.63-48 9.029 9.041.429 32.584s2.92-.25 3.858 2.812c.666 2.175-1.25 4.125-1.25 4.125 2.438.313 4 1.625 3.813 4.125-.188 2.5-1.938 3.063-1.938 3.063 1.688 1 2.313 2.812 1 4.312-1.312 1.5-2.812 1.313-2.812 1.313.687 1 1.5 2 1.5 2-1.563 1.062-3.375.562-3.375.562.437 1.188-.466 2.813-.466 2.813l.852 64.895.01.23h2.07c2.32 0 4.103.808 4.546 3.625l.05.318c3.033.073 5.017.926 6.949 7.62 1.299 4.5.557 5.437-.742 5.437 0 0 2.23 4.187 1.293 11.562s-5.625 13.813-15.188 15.625c0 0-.375-1.375-.187-3.437 0 0-2.5 2.187-8.563 4.125-6.062 1.937-14.187 1.312-16.125.187 0 0 .563-.875 2.25-2s2.375-1.625 2.375-1.625-1.937.188-4.937.125c-3-.062-7.688.5-10.75 2.688-2.412 1.723-8.25 4.812-10.813 1.687 0 0 2.633-.4 4.375-1.437 2.938-1.75 5.375-7.688 10.125-8.688 0 0-5.554-.465-7.875.063-5.5 1.25-9.437 3.625-14.187 5.5s-5.875 1.5-7.375.125c0 0 3.187-.75 5.187-2s6.688-5.125 9.875-6.75 8.563-3.313 8.563-3.313-1.5-.687-3.125-.687-4.313.437-4.313.437-.125-1 2.875-2.687c2.412-1.357 6.688-2 6.688-2s-2.125-1.563-4.188-2.313-7.937-1.062-12.937-.5c0 0 .223-1.543 4.562-3.5 6.375-2.875 11.375-1.25 11.375-1.25s-.437-2-4.75-3c0 0 2.563-3.062 8.375.313 0 0 1.938-1.563 4.438-2.375 0 0-.8 1.714.187 3.5 1.625 2.937 3.787 1.408 3.787 1.408-.695-.475-.87-1.846.105-5.22 1.93-6.688 3.912-7.545 6.942-7.62l.044-.235c.422-2.885 2.216-3.708 4.56-3.708h2.084l-.005-.209.897-68.291s-1.914-.375-3.476-2.938c-1.563-2.562-4.247-4.95-9.25-6.187-11.625-2.875-27.375-2.313-27.375-2.313.437 3.188.25 6.625-2.563 11.063-2.812 4.437-5.986 5.584-7.75 6.187-2.375.813-4.312 1.813-5.5 3.25-.816.989-.25 1.375-.25 1.375s3.25-4.187 6.125-4.187c1.954 0 2.375 1.625 2.375 1.625s-1.812.937-2.687 2-.5 2.937-.5 2.937.75-.25 1.687-.625 2.063-.687 3.063 1.938.375 5-2.813 6.312c-3.187 1.313-6.062-.75-8.062-2-1.027-.641-1.807-.871-2.559-.673l-.51.203c1.428 3.266 3.37 5.156 5.194 5.095 1.875-.062 6.5-1.25 11.187-2.125 4.688-.875 7.313.938 8.625 3.375s1.063 6.375-2.062 7.438-3.688-.563-3.688-.563 1.438-.687 2.188-2.125.062-3.062-1.25-3.687-3.438.5-6.563 1.312-7.875 2.313-11.625 2.188c-2.709-.09-4.407-1.094-5.447-2.493 0 0 .298 1.874.447 2.43.938 3.5 3 5.875 3 5.875s1.313-1.875 3.938-4.125 8.937-3.375 11.812-1.437 1.75 4.75 1.75 4.75c.875.187 1.313 1 1.813 3.125s.437 4.875.437 4.875 1 .25.875 2-.687 2-3.562 2.937c-2.875.938-4.764 1.705-6.688 1.938-2.062.25-3.25.625-3.812 2.5-.563 1.875-1.438 3.125-4.5 4s-9.063 1.937-18.438.062-20.937-7.437-29.5-17.875c0 0 .563-1.187 5.25-.312 0 0-5.687-1.688-10.562-8.375s-5.188-9.313-5.188-9.313 1.813-.312 5.188 2.188c0 0-2.813-2.438-4.813-8.938s-1.437-9.75-1.437-9.75 1.272.398 2.707 1.51l-.832-3.01c-.594-1.05-3.438-3-6.438-5.187s-18.75-12-29.687-14.875-18.5-3-24-6.875-7.875-7-7.875-7-4.063-1.188-7-1.125-8 3-8.875 7.062.687 10.625 5.562 14.438c4.875 3.812 19.313 10 34.938 12.125s25.125 4.25 32.5 11.437c6.616 6.449 8.029 13.861 4.937 22.813-5.375 15.562-26.812 13.437-36.062 7.937-8.053-4.787-11.375-11.187-14.313-14.812-2.937-3.625-9.875-6.813-13.5-7.125s-4.437-1.313-4.437-1.313 2-4.437 12.812-4.187c10.813.25 22.938 1 25.688 14.25 0 0 3.5-2.188 6.437-2.188s5.875 1.313 7.188 2.125c0 0-2.125.188-3.813 1.375-1.687 1.188-2.875 4.188-.062 6.938 2.812 2.75 8.812 3.125 11.75-.688 2.937-3.812 3.243-11.204-1.688-17.312-4.187-5.188-17.83-7.394-29.75-9.875-16.812-3.5-31.273-7.58-39.812-14.875-9-7.688-11.813-26.813-2.313-33 0 0 .25.687.563 2.187 0 0 1.812-7.062 6.75-6.937 0 0 .125 1.687.125 3.187 0 0 3.437-1.187 8.062-.75 0 0-.437-3.187-.187-9.5.25-6.312.312-13.875-.5-17.25s-3.688-5.25-7.5-4.5c-3.813.75-7.75 1.75-8.125-.75 0 0 2.687-1.312 3.125-3.312 0 0-2.813-.438-5.063-2.75-2.25-2.313-2.375-5.75-2.125-9 0 0 1.875-.438 4.063 1.062 0 0-.813-1.187-1.625-3.875s-.375-6 .125-7.125c0 0 1.812.75 3 2.25 0 0-.563-2.062 1.312-7.75 1.875-5.687 3.5-9.062 3.5-9.062s-1.312.25-2.437-1.125-.813-2-.438-2.5c0 0-1.5-2-.875-3.813 0 0 1.813.125 2.313.938 0 0 .437-1.563 1.875-1.625s3.312.062 5.312 3.062c0 0 .5-.937 1.063-1.562s1-2.875 1.125-5.125 1.437-3.563 3.562-3.625c2.125-.063 2.625.625 2.625.625 1-.5 2.25-.625 2.25-.625.438 1.125.375 2.062.375 2.062 2.688-1.062 2.188 3.688 2.188 3.688 3.625-2.063 5.312-.313 6.125 1.687s.125 3.188.125 3.188c1.187.062 2.312 1 2.312 1-.687 1.312-2.812 2-2.812 2 .125.562.687 2.5-1.188 3.687a4.05 4.05 0 0 1-2.922.578s.422 1.922-1.515 3.11c0 0 1.437 2.187 1.312 3.812 0 0-2.25.063-3.562-.75 0 0-.75 1.25-2.25.625s-2.188-1.937-2.75-3.875c-.563-1.937-.53-4.036-.53-4.036-1.505 1.254-2.283 3.63-2.283 7.286 0 3.875 0 7.625 3 12.875s6.438 9.625 6.438 9.625c14.495 5.906 19.084 11.982 23.059 18.392 0 0 2.128-1.642 1.503-5.267-.259-1.5-.125-2.062-.125-2.062 1.688.562 2.438.125 2.438.125-1.938-3.125-2.375-5.188-1.313-9.5s3.125-6.125 3.125-6.125c1.625 1.812 3 2.937 3 2.937s-.187-3.25.875-6.125 2.75-4.312 2.75-4.312c.625 1.5 1.5 3.812 1.5 3.812s1.188-2.125 3.875-7.437 3.625-7.875 3.625-7.875-1.375.25-2.062-.688c-.688-.937-.5-2.75-.5-2.75-.938-1.187-1.313-3-1.313-3 1.063-.312 2.938.063 2.938.063.187-.938 1.187-1.938 3.187-1.75 1.629.152 2.188 2.062 2.188 2.062s2.437.125 4.062-.812 2.438-2.375 2.563-4.188.562-2.625 1.625-3.625c1.039-.978 3.562.188 3.562.188.625-.5 2.375-.813 2.375-.813.625 1 1 2.313 1 2.313 2.125 0 2.813 3.187 2.813 3.187 1.5-1 4.187-1.062 5.437-.187s.688 3.687.688 3.687c1.25.125 3 1.438 3 1.438-.75 1.625-2.75 2.062-2.75 2.062s0 .375.062 1.875c.063 1.5-1.437 2.688-3.625 2.688-.627 0-1.207-.144-1.758-.353l-.492 1.165c1.938.25 3.25 1.563 3.25 1.563-1.187 1-3.375 1.312-3.375 1.312 0 1.063.375 2-2.375 2.25s-3.625-2.312-3.812-2.875c-.188-.562-.188-2.187-1.188-3-1-.812-2.062-.625-2.062-.625-1.188 1.375-2.188 3.938-3.813 9.25-1.625 5.313-2.875 10.188-2.75 12.563s2.625 6.187 4.313 10.187 2.937 10.875 2.125 16.625c-.813 5.75-4.063 10.188-4.063 10.188 12.632.109 21.389-2.27 23.381-2.866 0 0-.068-1.384.62-2.822 0 0 2.124.938 4.187 3.25 0 0-3.813-6-2.5-10.687 1.075-3.84 4.062-5.125 4.062-5.125 2 2.5 3.188 3.75 3.188 3.75s.562-8.938 1.937-13.563 3.438-6.812 3.438-6.812-2.563.5-4.188-.063-2.125-2.375-2.125-2.375c-2.187-1-2.687-2.687-2.687-2.687 1.812-.625 3.125-.563 3.125-.563 1.125-2.75 3.875-2.687 6-.937s3.437 2.437 3.437 2.437c.688-1.125 2.938-2.75 2.938-2.75s-.625-3.375-1.25-5.562-.813-4.313.562-5.625 4.063-.938 4.063-.938c.687-2.062 2.562-2.687 2.562-2.687 1.25 1.312 1.75 2.75 1.75 2.75.75.125 2.188.375 2.563 2.062.375 1.688-.313 3.875-1.688 5.625s-1.062 2.5-1.062 2.5.562-.625 1.562-1.312 2.563-1.875 2.813-2.75.437-3.375 1.25-4.75 2.75-2.188 5-1.688 2.875 2.625 2.875 2.625c1.25-.625 3.062-.5 3.062-.5.063 1.813-.937 3.625-.937 3.625.437.438 1.062 1.938-.688 3.688-.472.471-1.02.839-1.608 1.147 0 0 1.283 1.303 1.546 3.415 0 0 2.25 1.125 3.187 2.125 0 0-.294.613-1.812 1.563-1 .625-1.813.875-1.813.875z" style="fill:#4d0839;fill-opacity:1;fill-rule:nonzero;stroke:none"/><path d="m305.883 551.867 2.918-2.918c1.81-1.813 3.017-1.872 4.492-.428l11.535 11.533c.059-.148.486-.429.486-.429l33.582-33.59c1.385-1.444 2.725-1.548 3.846-.546l9.281 9.28c1.313 1.34 1.254 2.283-.353 3.948l-29.871 29.878c-1.781 1.753-3.078 2.314-6.672 1.755l14.541 14.537c1.09 1.12 1.076 1.93-.104 3.136l-7.025 7.028c-1.225 1.25-2.576 1.402-3.564.356l-32.707-32.699c-3.434-3.461-3.301-7.923-.385-10.841M135.565 380.268l22.624-22.631c4.39-4.537 7.085-10.592 1.25-16.425-5.834-5.833-12.242-3.226-16.572 1.106l-26.6 26.609c-1.371 1.37-2.52 1.37-3.95-.116l-4.994-4.994c-3.3-3.24-3.344-8.06.234-11.638l22.315-22.322c4.419-4.42 9.191-8.398 18.207-9.105 7.962-.625 15.203 4.328 21.789 10.912s10.122 12.772 10.256 19.533c.123 6.277-2.503 12.345-9.205 19.166l-26.38 26.387c-1.473 1.444-3.079 1.165-4.42-.145l-4.376-4.376c-3.211-3.24-3.418-8.75-.178-11.961M234.02 486.515l57.31-27.018c2.254-1.144 3.022-2.35 1.887-3.515l-8.62-8.617c-1.208-1.178-1.974-.855-3.76-.056l-12.376 5.836s-.834-1.668-1.107-2.225c-2.898-5.902-8.024-14.086-16.642-21.877 0 0 1.194.28 2.078.367.883.09 1.992-.241 2.808-1.888l1.91-4.057c.584-1.39.819-2.334-.05-3.233l-8.53-8.527c-1.296-1.266-2.859-.502-3.612 1.272l-27.27 57.886c-.765 1.717-.694 3.012.838 4.485l10.475 10.472c1.164 1.223 2.313 1.665 4.661.695m2.385-18.252 11.04-23.437c4.228 5.092 7.134 9.97 9.073 13.88zM201.872 389.023l10.03-10.033c1.68-1.767 1.739-2.62.604-3.697l-9.503-9.5c-1.163-1.135-2.195-1.252-3.74.383l-38.946 38.955c-3.712 3.712-3.357 8.31.886 12.55l11.491 11.49c7.603 7.718 14.083 12.12 22.276 11.9 8.839-.237 15.733-6.66 18.795-13.614 2.965-6.731.412-13.966.412-13.966l25.093-7.57c2.29-.638 1.775-2.067.066-3.805l-8.752-8.75c-1.385-1.355-2.593-1.296-4.417-.772l-21.891 6.668-.516-.544-8.266-8.265c2.799.207 4.39.56 6.378-1.43m-21.033 21.04 7.26-7.262 6.542 6.54c4.45 4.39 4.922 8.513.916 12.52-3.358 3.36-7.189 3.418-11.726-1.118l-9.607-9.604c3.256.252 4.936.603 6.615-1.076M384.143 628.78l22.625-22.63c4.388-4.538 7.084-10.593 1.25-16.426s-12.243-3.224-16.573 1.107l-26.601 26.608c-1.37 1.37-2.52 1.371-3.95-.117l-4.992-4.992c-3.302-3.242-3.345-8.06.233-11.64l22.314-22.32c4.42-4.42 9.192-8.398 18.207-9.106 7.963-.626 15.203 4.329 21.79 10.913 6.585 6.584 10.122 12.77 10.255 19.531.125 6.278-2.502 12.346-9.203 19.167l-26.38 26.388c-1.473 1.444-3.079 1.165-4.42-.146l-4.378-4.375c-3.21-3.24-3.418-8.75-.177-11.962M301.102 488.228l10.03-10.033c1.68-1.769 1.74-2.622.604-3.698l-9.502-9.5c-1.164-1.134-2.195-1.252-3.741.383l-38.946 38.954c-3.711 3.713-3.357 8.31.886 12.552l11.492 11.49c7.602 7.717 14.083 12.119 22.275 11.899 8.84-.236 15.734-6.66 18.796-13.614 2.965-6.731.41-13.965.41-13.965l25.094-7.57c2.291-.64 1.775-2.067.066-3.806l-8.752-8.75c-1.386-1.355-2.593-1.296-4.418-.773l-21.89 6.67-.516-.546-8.266-8.263c2.799.206 4.39.558 6.378-1.43m-21.033 21.04 7.261-7.263 6.542 6.54c4.449 4.39 4.921 8.513.916 12.52-3.36 3.36-7.19 3.419-11.727-1.118l-9.606-9.604c3.255.251 4.936.603 6.614-1.076" style="fill:#502891;fill-opacity:1;fill-rule:nonzero;stroke:none"/><path d="M194.434 512.021c-1.664.619-4.45 2.557-6.209 3.828-1.268.916-1.705 1.853-1.705 1.853s.5 1 4.375-.062c0 0-.188 3.5 2 3.875 2.187.375 4.5-.188 5.375-3.813s-.5-6-1.438-6.062-1.66.107-2.398.381M194.582 623.452c.063-2.562.764-4.006 1.688-5.062.329-.377.634-.693.925-.951 0 0 1.2 2.826 3.012 4.138 1.813 1.313 2.875 1.375 7.938.313s9.125-2.125 11.25-1 3.062 2.437 3.312 4.875c.25 2.437-.937 5-4.375 4.437 0 0 2.188-1.312 2.188-3.687s-1.563-4.063-4.75-3-9.301 2.82-12.875 3.375c-3.625.562-5.414-.232-6.688-1.188-1.5-1.125-1.625-2.25-1.625-2.25M244.332 572.765c-4.72-1.793-12.687-3.125-12.687-3.125 1.937-.938 5.437-3.375 5.437-3.375-2-.938-3.75-1.375-8.937-1-5.188.375-7.938 1.312-7.938 1.312 1.563-1.812 4.313-4.937 4.313-4.937s-2.063-.375-5.125-.125c-3.063.25-7.813 2.187-7.813 2.187 2.75-2.187 5.063-5.312 5.063-5.312-8.375 0-13.813 2.125-13.813 2.125.25-1.375.938-3.5.938-3.5-5.188.375-6.813 1.813-6.813 1.813 4.137 2.964 5.313 7.437 5.313 7.437.437-3.063 1.437-5 1.437-5s4.438 1.25 7 5.625c2.167 3.7 1.563 9 1.563 9 1.875-1.875 4.125-5.25 4.125-5.25s1.625 3 1.25 9.75c-.154 2.766-.384 5.129-.688 6.437 0 0 1.996-.3 9.625.063 9.188.437 18.75 1.25 22.688 3.312 3.937 2.063 4.437 3.625 6.062 5.563s3.063 2.562 4.625 3.375c1.563.812 4.063 2.875 5.688 3.125s2.562-.188 2.687-1.375-.5-2.063-.312-3.313c.187-1.25 1.5-1.937 1.625-2.75s-1-2.687-2.375-2.875c-1.375-.187-3 .5-4.75 1.688s-3.563 1.187-3.625-2.313c-.063-3.5-.188-6.562-4-10.687-3.813-4.125-5.625-6-10.563-7.875" style="fill:#f57815;fill-opacity:1;fill-rule:nonzero;stroke:none"/><path d="M54.832 526.39c.5 1.187 5.063.125 7.75-.438s6.125.563 7.375 4.375 1.25 10.75 1 18.75.625 10.063.625 10.063c-6-.688-9.812.937-9.812.937-.438-1.437-.563-3.562-.563-3.562-4.375 1.437-5.625 8.062-5.625 8.062-1.125-1.375-1.41-2.719-1.41-2.719-2.616 2.198-4.198 5.807-4.49 10.31-.501 7.71 2.731 16.157 7.86 20.538 8.807 7.522 24.146 11.5 39.411 14.677l4.088.835c10.944 2.214 22.26 4.503 26.179 9.356 5.283 6.546 4.82 14.38 1.7 18.427-1.42 1.844-3.588 2.957-6.104 3.133-2.638.185-5.316-.716-6.988-2.35-1.577-1.543-1.959-3.076-1.959-4.197q0-.207.016-.396a5.1 5.1 0 0 1 2.117-3.725 8 8 0 0 1 1.731-.904c-1.311-.515-2.945-.96-4.588-.96-2.64 0-5.928 2.03-5.961 2.05l-1.095.683-.263-1.262c-2.5-12.042-12.722-13.254-24.827-13.533-7.429-.172-10.428 1.94-11.48 3.035.56.235 1.54.525 3.203.668 3.935.34 11.111 3.74 14.122 7.455l2.013 2.707c2.625 3.667 5.892 8.231 12.06 11.898 5.845 3.476 16.522 5.534 24.8 2.504 4.946-1.81 8.294-5.162 9.952-9.96 3.046-8.821 1.548-15.771-4.715-21.875-6.935-6.76-15.843-8.994-31.993-11.19-16.213-2.205-30.69-8.648-35.371-12.308-5.11-3.996-6.847-10.884-5.888-15.336.985-4.57 6.512-7.705 9.736-7.773 3.041-.065 7.1 1.111 7.271 1.16l.284.084.18.235c.023.03 2.38 3.077 7.678 6.81 3.513 2.475 8.057 3.383 13.81 4.532 2.922.583 6.234 1.244 9.9 2.208 11.014 2.896 26.749 12.656 29.989 15.019l2.01 1.434c1.374.968 3.835 2.918 3.835 2.918-1.25-12.063 1.062-14.625 1.062-14.625 1.875 1 3.125 2.5 3.125 2.5.5-12.625 4.813-13.625 4.813-13.625 2.75 1.437 2.75 3.25 2.75 3.25 1.687-7.063 6.75-9.375 6.75-9.375 1.437 1.25 2.187 4 2.187 4s.438-1.25 2.813-4.188 5.25-3.625 5.25-3.625c1.25 1.313 1.562 3.5 1.562 3.5 3.313-4.062 8.188-5.125 8.188-5.125.937 2.938.562 5.063.562 5.063s1.5-2 3.25-2.75 3.313-.75 3.313-.75.25 1.312.312 3.312c.063 2 .688 2.313.688 2.313 1.187-4.125-.375-7.938-2.438-13.813-2.062-5.875-3.062-14.437-3.5-21.25-.437-6.812.063-12.75 1.25-14.812 1.188-2.063 5.75-5.313 7.813-6.563s4.687-1.75 6.562-3 1.183-2.275 0-2.187c-1.687.125-3.625-1.063-3.187-2.438.437-1.375 1.625-1.562 1.625-1.562s-.438-1.5-1.563-2-3.937-.438-4.812 1.312-.75 4.5-1.563 5.438-2.562 1.812-3.687 2.812-2.688 3.813-2.688 3.813-.187-2.375.75-4.375 2.875-4.563 2.875-6.188-1-2.375-1.437-2.437c-.438-.063-.625.375-1.188 1.562s-1.562 1.25-2.187 1.125-2.125-.687-1.688-3c0 0-2.562-.312-3.25.875-.687 1.188-.687 3 .125 6.438a667 667 0 0 1 1.125 4.812s-2.875 1.438-3.687 2.938c0 0-1.563-.688-3.563-2.375s-3.75-1.938-4.75-.625-1.875 3.312-.437 4.625c1.437 1.312 3.062 1.125 6.875 1 0 0-3.438 2.812-4.75 8-1.313 5.187-1.813 15-1.813 15s-2-1.813-4-5.063c0 0-2.625 1.75-3.187 4.875-.563 3.125.5 7.125 4.062 13.063 0 0-3.312-2.5-6.062-4.938 0 0-.563 2.75.937 7.25s2.938 6.75 2.938 6.75-2.188-.562-3.813-1.062c0 0-.25 2.312 1.25 4.75 0 0-2.375-1-2.25-6.063 0 0 1.063.25 2.438.563 0 0-2.063-4.563-2.688-9.375 0 0-9.39 3.354-26.75 2.625-14.875-.625-23-3.813-23-3.813s-.5-5.062-3.312-11.625c-2.813-6.562-9.563-16.25-24.25-21.25 0 0-3.063-3.5-6.188-8.937-3.125-5.438-3.625-9.188-3.437-14.875.187-5.688 2.062-7.563 3.812-8.125s4.313-.75 5.875.437 3.813 1.938 5 .938c1.188-1 1.063-2 .813-2.688 0 0-2.75.25-2.938-2.187-.187-2.438 1.625-2.688 3.25-1.75 0 0 .938-1.25-.125-2.938-1.062-1.687-2.437-2.5-6.062-.25 0 0 .625-2.625.187-3.5-.437-.875-1.187-1.062-1.875.125s-2.187 1.313-3.125.375c-.937-.937-.875-1.812.188-2.75 0 0-1.125-.562-2-.5s-2.563.688-2.813 3.375-.5 4.375-1.187 5.25-1.438 2.313-1.438 2.313-.5-.625-2-2.188c-1.5-1.562-3.25-1.937-3.875-1.375s-.312 1.438-.062 2.063-.188 1.375-1.313 1.937-.812 1.75.188 2.25 3.437.063 5.875-.062c0 0-1.125.812-2.438 1.062-1.312.25-1.812.938-3.437 4.875s-3.188 8.5-3 13.25c0 0-1.688-.937-3.375-2.687 0 0-.688 3.062.125 5.937s2.687 5.75 2.687 5.75-3.312-1.625-5.062-2.062c0 0-.188 4.562 1.062 6.75s4.375 3.562 6.563 4c0 0-.063 1.125-1.188 2.375s-2 1.75-2 1.75" style="fill:#f57815;fill-opacity:1;fill-rule:nonzero;stroke:none"/><path d="M181.957 568.327c-1.97 3.65-2.687 9.25-2.687 9.25-.5-2.687-.25-6.812.75-8.937s.062-5.813.062-5.813c-6.562 1.813-8.437 8.938-8.187 11.813s.875 6.812.875 6.812c-3.563-6.062-1.438-11.812-1.188-13.687s-.812-3.25-.812-3.25c-5.313 2.125-7.813 8.875-7.875 12.437-.063 3.563 1.437 8 1.437 8-2.875-3.125-3-7.937-2.437-11.312.562-3.375-1.125-5.188-1.125-5.188-4.875 2.813-6.25 9.688-5.688 13.313s3.188 9.125 3.188 9.125c-3.875-3.375-4.375-9.188-4.688-12.563s-2-4.312-2-4.312-1.812.875-3.062 6.375-.75 10.187 1 14.875c1.75 4.687 4.937 9.125 4.937 9.125-4.125-3.563-6.375-7.5-7.187-12.625s-3.625-6.125-3.625-6.125-.938 2.437-.438 10c.5 7.562 2.563 9.875 5 12.625 2.438 2.75 7.438 5.687 7.438 5.687-4.625-.75-8.5-4.562-10.75-7.562s-3.688-3.375-3.688-3.375.5 4.75 1.688 8.75 3.875 8.062 7.125 10.75c2.746 2.27 6.625 3.437 6.625 3.437-4.188.563-8.938-3.625-10.563-5s-3.375-1.75-3.375-1.75 2.688 5.5 5.063 8.313c2.375 2.812 5.687 6.25 10.5 7.937s8.312 2.063 8.312 2.063-2.25.875-5.25.437c-3-.437-4.75-1.687-7.937-1.312 0 0 2.875 3.562 8.187 7.562 5.313 4 14.313 8.688 23.125 9.813 8.813 1.125 14.875.062 17.125-1.438s1.563-2.937 2.75-4.25c1.188-1.312 3.188-1.187 6.188-2s6.062-1.875 6.687-2.75.875-2.5-.437-2.062c-1.313.437-3.688.5-4.625-.375-.938-.875-.438-1.563.187-1.938s1.813.375 2.688.938 1.875.875 1.687-1.438-.75-6.25-2.312-4.625c-1.563 1.625-2.5 1.063-2.5 1.063s1.5-.938 2.25-2.5.562-3.313-1.875-4.375c-2.438-1.063-6.625 0-9.25 1.5s-5.25 5.312-5.25 5.312-2.2-1.976-3.688-6.75c-1.5-4.812-.625-8.5 1.563-10.812 2.187-2.313 3.437-2.125 6.625-.25 3.187 1.875 6.302 2.492 8.25 0 1.562-2 .087-5.327-.563-5.5-.937-.25-3.687 1.062-3.687 1.062-1.188-4.437 2.687-6.312 2.687-6.312-1.062-1.125-2.625-.563-4.25.812s-2.875 3.313-2.875 3.313-.937 0-1.25-2c-.23-1.469 2.375-2.875 6-4.375s6.8-3.724 8.75-7.625c2.75-5.5 1.563-8.688 1.563-8.688s-.625 1.625-2.813 4.5c-2.187 2.875-3.562 3.375-4.937 3.688 0 0 4.562-3.875 6.25-8.75s.937-11.25.437-14.313c0 0-1.832 2.467-2.875 3.563-1.25 1.312-1.375 3.875-2.375 6.562-1.014 2.726-3.437 4.063-3.437 4.063s1.312-1.875 2.375-4.875 1.898-7.758.375-12.438c-1.75-5.375-5.875-7.312-5.875-7.312s-.688 2.812-1 6.125c-.313 3.312-.188 11.312-5.688 13.812 0 0 2.625-2.875 3.625-6.937s.608-9.06-2.875-13.375c-4.187-5.188-8.875-5.125-8.875-5.125s-.687 1.125.375 3.75 1.5 7.75-1.5 11.187c0 0-1.25-3.625-1.062-7.687 0 0-3.188 0-5.313 3.937m15.563 76.125c.812 1.25 1 4.313 1 4.313-3.25 2.25-6.813.312-6.813.312 2.125-2.312 5.813-4.625 5.813-4.625m3.062-9.437s-.812 3.125-3.937 3.937c-3.125.813-5.5-.875-6.438-3.187 0 0 1.125.812 2 1.5s3.25 1.625 5.438-.063 2.937-2.187 2.937-2.187M244.257 679.16c-.933 3.23-.64 4.102-.471 4.326.034.046.115.154.492.154h38.136c.378 0 .458-.108.493-.154.169-.224.461-1.096-.471-4.326-1.95-6.754-3.75-7.083-6.765-7.083h-24.65c-3.014 0-4.815.329-6.764 7.083M275.416 671.122c-.325-2.109-1.465-2.982-3.806-2.982h-16.528c-2.346 0-3.485.877-3.808 2.995l-.005.192h24.167zM267.596 577.015l-.422-32.146-7.556-7.563-.608 46.268s.572-.31 1.322-1.122.875-1.312.875-1.312-.062-2.125 1.375-2.938c1.438-.812 5.014-1.187 5.014-1.187M258.801 599.452l-.89 67.73.005.208h10.854l.01-.23-.841-64.084c-1.144.31-3.732.376-5.294-.874-1.563-1.25-3.844-2.75-3.844-2.75M261.832 588.827s1.375 1.125 2.125 1.438.75 1.125.75 1.125-1.562.5-2.5 1.187-2.437 1.375-2.562-1.312-.688-6.75-.688-6.75.938-.375 2-.063c1.063.313 1.938 1.563 3 1.625 0 0-.25 1.438-2.125 2.75M271.957 596.015c-.83.501-1.125 0-1.437-1.375s-1-2.438-1-2.438 1.5-.562 2.562-.25c1.063.313 3.188 2.063-.125 4.063" style="fill:#f57815;fill-opacity:1;fill-rule:nonzero;stroke:none"/><path d="M267.77 591.202c-2.003-.078-3.063-.687-2.75-1.875.312-1.187.062-2.562-.125-3.062-.188-.5.375-.813.375-.813s-1.5-.125-1.938-.5-1.437-2.437-1.187-4.312 2.437-2.5 4.812-2.625 3.875.625 4.375 1.937.063 3.75-3.187 4.5c0 0 3.5.375 4.5.938s2.125 2.812.875 4.25c-1.25 1.437-2.563 1.687-5.75 1.562M216.895 688.327s3.125-2.375 7.25-3.437c2.803-.723 8.187.25 8.187.25-.125-3.25-4.25-4.125-4.25-4.125 3.5-1.313 7 2 7 2 .938-1.5 3.438-2.688 3.438-2.688s-.438 3 1.75 4.375c2.187 1.375 4.008-.312 4.008-.312h11.304s-.437 4.625-4 7.687c-3.562 3.063-10.287 4.3-14.25 1.875-4.187-2.562-6.75-5.25-10.875-5.812-4.48-.611-9.562.187-9.562.187M276.52 684.39h4.75s1.886 3 1.687 9.125c-.25 7.687-4.187 15.687-13.875 17.062 0 0 0-2 .313-3.875 0 0-3.75 2.875-8.875 4.5s-11.063 1.688-15.5 1c0 0 2.437-2.062 5.375-3.687 0 0-4.697-.658-8.938-.375-3.75.25-6.437.75-9.687 3-3.519 2.436-4.625 2.937-8 2.625 0 0 3-.5 5.812-4s4.25-7.25 13.313-5.75c0 0-1.188.562-2.813 1.812 0 0 5.938 4.375 18.625-.562 0 0-1.375 1.625-3.5 3.562 0 0 3.063 1.688 9.063-.937 6.33-2.77 8.187-7 8.187-7s-.062 1.625.188 4.437c0 0 2.625-.25 4.437-4 2.584-5.347 1.625-12.562-.562-16.937" style="fill:#f57815;fill-opacity:1;fill-rule:nonzero;stroke:none"/><path d="M270.832 684.39h4.188s2.562 2.875 2.687 8.875-1.875 9.437-4.187 10.937c0 0 .11-1.303.375-5.125.437-6.312.25-10.687-3.063-14.687" style="fill:#f57815;fill-opacity:1;fill-rule:nonzero;stroke:none"/><path d="M267.02 695.327c-.905 5.753-4.875 8.375-7.188 10.313-2.312 1.937-2.875 2.875-2.875 2.875 3.438-.125 8.375-1.625 11.938-4.813 3.562-3.187 4.5-7.75 3.875-12.25s-3.813-7.062-3.813-7.062h-3.812s2.75 5.375 1.875 10.937" style="fill:#f57815;fill-opacity:1;fill-rule:nonzero;stroke:none"/><path d="M252.27 701.265c-5.979 1.18-7.563-.313-7.563-.313.625-.875.938-1.687.938-1.687s-2.125.312-6.063.312-7.687-2.187-7.687-2.187-1.188.125-5.938 1.875-7.625 4.187-11.625 7-6.187 2.812-6.187 2.812.625.625 2.437.188c1.813-.438 6.188-2.375 12.125-5s8.563-2 15.313-1.563 7.5.875 7.5.875c-2.375 1.313-3.563 2.063-3.563 2.063 5.625 2.75 16.313-.375 19.563-3.063 3.25-2.687 4.562-6 4.437-10.687-.125-4.688-2.125-7.5-2.125-7.5s.61 5.927-1.25 9.25c-2.625 4.687-5.562 6.687-10.312 7.625" style="fill:#f57815;fill-opacity:1;fill-rule:nonzero;stroke:none"/><path d="M256.895 684.39h5.687s.875 6.125-1.625 10.062c-2.5 3.938-7.25 7-15.062 6.188 0 0 .687-1.063 1.312-2.188 0 0-4.25.313-7.437.188s-5.25-1.188-7.688-2.188-4.75-1.187-7.562-.75c0 0 1.375-1.937 9-3.25 0 0 4.125 4.313 10.187 3.688 6.063-.625 11.625-2.938 13.188-11.75M219.52 697.64s-2.625 2.187-8 2.625c-5.375.437-8.438-1.188-9.813-2.375 0 0 3.5.812 7.75-.813s7.375-1.875 10.063.563M137.493 494.66c1.517-.65 3.756-.726 5.089-.583.961.103 1.884.677 2.883 1.174 0 0 .242 1.014-.32 1.826s-.438 1.625-.375 2.5c.062.875.062 1.688-1.5 1.5s-2.685-.725-3.063-2.937c-.437-2.563-2.714-3.48-2.714-3.48M79.862 488.788a5.4 5.4 0 0 1-1.78-1.148c-1.387-1.329-4.215-1.163-5.968-.192 0 0-.094 3.567 1.03 5.692 1.126 2.125 2.376 2.812 3.376 1.812s.25-1.937 1.625-2.937 1.812-1.25 1.875-1.813-.158-1.414-.158-1.414" style="fill:#f57815;fill-opacity:1;fill-rule:nonzero;stroke:none"/><path d="M102.207 537.015c4.125 6.75 4.563 13.687 4.563 13.687s11.015 3.117 23.432 3.522c0 0 2.943-2.022 4.443-6.834 1.5-4.813.937-13.063-.625-17.625-1.563-4.563-3.563-7.438-4.563-10.313s-.687-3.812 1-9.937 3.625-12.125 4.688-13.813c1.062-1.687 1.875-2.062 4.812-2.312s3.938 0 5.625.937c1.688.938 3.688 1.375 4.813.188s1.062-2.125.125-3.063c-.938-.937-.75-2.25-.188-3.187.563-.938.563-2.938-.312-3.625-.875-.688-3.438-.125-4.5.5 0 0-.563 2.187-2.25 3.687s-5.375.75-5.375.75 2.625-.5 4.312-1.125 2.5-2.562 2.313-3.937c-.188-1.375-.938-3.063-2.438-1.688s-3.125.625-3.687-.25c-.337-.523-.293-1.292-.204-1.827 0 0-1.171-1.485-2.296-.485-.862.765-1.25 2.937-1.313 4.125-.062 1.187-.75 3.625-6.312 4.75 0 0 .625.437 1 1.437 0 0-1.188-.437-2.25-1.812s-2.688-2-3.313-1.688-1.187.938-.75 1.688.125 1.562-.937 1.937-1.375 1.375-.625 2.188c.75.812 1.875.812 3.625.812 0 0-1.25.75-3.313 5.125-2.062 4.375-6.5 13.063-6.5 13.063s-1.062-2.875-1.562-5.063c0 0-1.688 2.438-2.188 5.313s-.187 6.187-.187 6.187-2.5-2.125-3.813-4.062c0 0-2.25 2.687-2.812 6.25-.563 3.562-.188 6.562 2.75 9.875 0 0-2.875-.563-3.625-.688 0 0 .625 2.563.062 4.375-.562 1.813-1.625 2.938-1.625 2.938" style="fill:#f57815;fill-opacity:1;fill-rule:nonzero;stroke:none"/></g></svg>