<svg xmlns="http://www.w3.org/2000/svg" xml:space="preserve" viewBox="0 0 765.35 765.35"><circle cx="194.882" cy="155.906" r="153.071" fill="#fff" transform="matrix(2.5 0 0 2.5 -104.528 -7.088)"/><path fill="#fc0" d="m618.775 600.717 24.197 22.368c-37.572 40.662-84.552 72.502-137.487 92.06l-11.408-30.923c48.01-17.742 90.623-46.622 124.698-83.505"/><path fill="#e60000" d="m470.07 692.027 8.947 31.725c-30.632 8.635-62.947 13.255-96.34 13.255-33.307 0-65.542-4.595-96.102-13.19l8.947-31.722c27.715 7.792 56.95 11.96 87.155 11.96 30.293 0 59.608-4.19 87.393-12.028"/><path d="m271.507 684.307-11.41 30.923c-52.96-19.525-99.97-51.343-137.572-91.99l24.197-22.368c34.108 36.868 76.748 65.725 124.785 83.435"/><path fill="#878787" d="M635.165 581.53c43.145-54.708 68.89-123.773 68.89-198.853C704.055 205.185 560.17 61.3 382.677 61.3S61.3 205.185 61.3 382.677c0 75.15 25.795 144.275 69.012 199.008l-25.877 20.405c-47.65-60.343-76.088-136.558-76.088-219.413 0-195.692 158.64-354.33 354.33-354.33s354.33 158.64 354.33 354.33c0 82.785-28.39 158.938-75.965 219.255z"/><g transform="matrix(2.5 0 0 2.5 -104.528 -7.088)"><circle cx="194.882" cy="155.905" r="115.228" fill="#00965a"/><path fill="#fff" d="m297.874 132.372-65.917-38.2v19.245l33.298 18.955-81.838 46.539V133.13l34.586 20.065v-18.422l-34.586-19.941V85.406l34.586 19.95V86.049l-51.239-29.535v48.723l-42.156-24.355-.088 151.28 42.244-24.364v48.847l16.653-9.655v-48.838l56.32-32.478 25.518 15.237-67.661 38.653v19.25l100.28-57.903-41.909-24.483zm-131.11 56.133-25.481 14.827-.066-94.452 25.547 14.77z"/></g></svg>