<svg xmlns="http://www.w3.org/2000/svg" xml:space="preserve" id="Layer_1" x="0" y="0" version="1.0" viewBox="97.2 25.9 145.53 182.19"><style>.st0{fill:#1d2849}</style><path d="M242.7 204.6h-.1c0-.5 0-1.1.1-1.6 0-.1.1-.3-.1-.4h.1zM135.9 207.6v-32.800000000000004c0-.3 0-.3.3-.3h7.3999999999999995c1 0 1.9.1 2.8.4.8.2 1.6.5 2.3 1 1.5.9 2.4 2.5 2.4 4.3v10.700000000000001c0 .5-.1 1.1-.2 1.6-.3 1.3-1.2 2.3-2.3 3l-.8.5c0 .1 0 .3.1.4 1.4 3 2.5 6.1 3.2 9.3.1.5.3 1.1.4 1.6.1.3 0 .4-.3.4h-4.8c-.4 0-.4 0-.4-.4-.3-1.3-.7-2.6-1.1-3.9q-1.05-3.3-2.7-6.3c-.1-.2-.2-.4-.2-.6v-2.2c0-.2.1-.4.3-.4q.9-.3 1.8-.9c.5-.3.9-.6 1.3-.9.3-.2.5-.6.4-1v-10.7c0-.3 0-.4-.3-.5q-.75-.3-1.5-.3h-2.7c-.2 0-.2.1-.2.2v27.700000000000003c0 .2-.1.2-.2.2h-4.5c-.2-.1-.3-.1-.5-.1M116.5 191v-11.1c0-.4 0-.8.1-1.3.2-1.2.9-2.3 1.9-3.1.8-.6 1.6-1 2.6-1.2 2.2-.6 4.4-.5 6.5.2.8.2 1.5.6 2.1 1.1 1.2.9 1.9 2.3 1.9 3.8v22.7c0 .6 0 1.1-.2 1.6-.3 1-.8 1.9-1.7 2.6s-1.9 1.2-2.9 1.4c-2.2.6-4.5.5-6.7-.3-.6-.2-1.2-.5-1.7-.9-1.3-.9-2.1-2.4-2.1-4v-3.9zm10 0v-11.100000000000001c0-.4 0-.5-.4-.6-1.2-.4-2.5-.4-3.7 0-.6.2-.6.1-.6.8v22.3c0 .3 0 .4.3.5 1.2.4 2.5.5 3.8.1.7-.2.6-.2.6-.8-.1-3.9-.1-7.5 0-11.2M196.1 191v10.9c0 .8-.2.7.7.9 1.2.3 2.4.3 3.5-.1.4-.1.4-.1.4-.6v-8.4c0-.3-.1-.5-.3-.7q-1.05-1.05-2.4-1.8l-.4-.2c-.2-.1-.2-.2-.2-.4v-2.3q0-.3.3-.3h8.1c.1 0 .2.1.2.2V202c0 .5 0 .9-.1 1.4-.3 1.2-1 2.3-2 3-.8.6-1.7 1-2.6 1.2-2.1.5-4.3.5-6.3-.2-.7-.2-1.4-.6-2-1-1.3-.9-2.1-2.3-2.1-3.9V180c0-.5 0-1 .1-1.5.2-1.1.8-2.1 1.7-2.8.8-.7 1.8-1.1 2.8-1.4 2.3-.6 4.7-.5 6.9.3.7.3 1.4.7 2 1.2 1 .8 1.6 2 1.7 3.4v4.3999999999999995c0 .4 0 .4-.4.4-.6.1-1.1.3-1.7.3-.9.1-1.9.2-2.8.3-.4 0-.4 0-.4-.4v-4.1c0-.8.1-.7-.7-.9-1.2-.3-2.5-.3-3.7.1-.2 0-.3.2-.3.4V191M122.2 151.4v-11c0-.5 0-1 .1-1.5.2-1.2.9-2.3 1.9-3 .8-.6 1.8-1 2.8-1.3 2.1-.5 4.4-.4 6.5.3.5.2 1.1.5 1.5.8 1.4.9 2.3 2.4 2.3 4.1v4.1c0 .3 0 .3-.3.4l-1.2.3c-1.1.2-2.2.3-3.2.4h-.2q-.3 0-.3-.3v-4.6c0-.2-.1-.4-.3-.4-1.3-.4-2.8-.4-4.1 0-.2 0-.3.2-.3.4v22.2c0 .8-.2.8.8 1 1.2.3 2.4.3 3.6-.1.2 0 .3-.2.3-.4v-8.4c0-.4-.1-.8-.4-1.1-.7-.8-1.6-1.3-2.6-1.7-.2-.1-.4-.3-.3-.5v-2.2q0-.3.3-.3h8q.3 0 .3.3v13.7c0 .5 0 1-.1 1.5-.2 1.1-.9 2.1-1.8 2.8-1 .7-2.1 1.2-3.2 1.4-1.9.4-3.8.3-5.7-.2-.8-.2-1.6-.6-2.3-1.1-1.2-.9-2-2.3-2-3.8v-.9zM171.4 188.8v-14.2c0-.1.1-.2.2-.2h4.8q.3 0 .3.3v27.400000000000002c0 .5-.1.5.5.7q1.95.6 3.9 0c.3-.1.3-.1.3-.5v-27c0-1-.1-.9.8-.9h4.1c.1 0 .2.1.3.2v27.5c0 .5 0 1-.2 1.5-.3 1.2-1 2.2-2 2.9-.8.5-1.6.9-2.5 1.1-2.1.5-4.3.5-6.4-.2-1-.3-2-.9-2.7-1.6-.8-.8-1.3-1.9-1.4-3.1v-13.9M208.9 207.6c0-.5.1-.9.2-1.4.3-2.3.7-4.6 1-7 .4-2.5.8-5 1.1-7.6l1.2-8.4c.4-2.5.8-5 1.1-7.6 0-.3.1-.7.1-1q0-.3.3-.3c.4 0 .7-.1 1.1-.1 2-.1 4.1-.1 6.1.1.4 0 .4 0 .4.4l.5 3.5c.2 1.4.4 2.9.6 4.3s.4 2.8.6 4.1l.7 5.1.6 4.2c.2 1.4.4 2.8.6 4.1s.4 2.8.6 4.1c.1.9.2 1.7.4 2.6.1.2.1.5 0 .7-.5.1-4.4.1-5.1 0-.1-.2-.1-.3-.1-.5-.1-1.1-.3-2.2-.4-3.3 0-.3-.2-.6-.5-.8-1.1-.7-2.2-1.3-3.5-1.7-.2 0-.4-.1-.6-.2-.2-.2 0-.4 0-.6l.3-1.8c0-.3.1-.4.4-.4h2.9c-.1-.4-.1-.8-.1-1.1l-.9-6.6-.9-6.7c0-.1 0-.1-.1-.2l-.1-.1s-.1 0-.1.1-.1.2-.1.2c-.2 1.7-.5 3.4-.7 5.1s-.5 3.5-.8 5.3l-.7 5.3c-.3 2.1-.6 4.1-.9 6.2l-.2 1.6c0 .3-.1.3-.3.3H209c0 .2-.1.1-.1.1M157.7 167.9c-1.7.1-3.5.1-5.2 0-.1-.5-.2-1.1-.3-1.6-.1-.8-.2-1.5-.3-2.3 0-.3-.2-.6-.4-.8-1-.7-2.1-1.3-3.3-1.6l-.7-.2c-.1 0-.1-.1-.1-.2.1-.8.2-1.6.4-2.4 0-.2.1-.3.4-.3h2.3c.2 0 .5 0 .7-.1 0-.4-.1-.9-.1-1.3-.2-1.8-.5-3.6-.8-5.5s-.5-3.5-.7-5.3c-.1-.7-.2-1.5-.3-2.2 0-.1 0-.2-.1-.3l-.1-.1s-.1 0-.1.1-.1.2-.1.3c-.2 1.7-.5 3.4-.7 5.1l-.8 5.3-.7 5.3-.8 5.3c-.1.8-.2 1.5-.3 2.3v.3c0 .1-.1.2-.2.2h-4.9c-.1 0-.1 0-.2-.1 0-.4.1-.9.1-1.3l.9-6 .9-5.8c.3-1.9.6-3.9.9-5.8s.6-3.9.9-5.8l1-6.6c.1-.5.2-1 .2-1.5 0-.3.1-.3.4-.4h.3q3.3-.3 6.6 0c.1 0 .3 0 .4.1.1 0 .2.1.2.2.1.5.1 1 .2 1.4.4 2.6.7 5.3 1.1 7.9.3 2.3.7 4.6 1 7s.7 4.7 1 7c.4 2.3.7 4.6 1 7 .1.7.2 1.3.3 2-.1.3-.1.5 0 .7M97.3 191v-15.8c0-.9-.1-.8.8-.8h6.8c1.3 0 2.5.2 3.7.6.7.2 1.4.6 2 1.1 1.2.9 1.9 2.4 1.9 3.9v12.4c0 .8-.1 1.5-.4 2.2-.4.9-1.1 1.7-2 2.2-1 .6-2 1-3.1 1.2s-2.1.2-3.2.1c-.2 0-.3 0-.3-.3v-2.3c0-.2.1-.3.2-.3q.9-.3 1.8-.9c.5-.3 1-.7 1.4-1.1.2-.2.3-.5.3-.8v-11.9c0-.8.1-.7-.7-.9-.4-.1-.9-.2-1.3-.2h-2.4c-.3 0-.3 0-.3.3v27.1c0 .9.1.8-.8.8h-4.3c-.1 0-.2-.1-.2-.2v-.6zM158.4 193.5v-13.799999999999999c0-.1-.1-.2-.2-.2h-4.8c-.1 0-.2-.1-.2-.2v-4.6000000000000005c0-.1.1-.2.2-.2h15c.3 0 .4 0 .4.3v4.5c0 .1-.1.2-.2.2h-4.9l-.1.1v27.2c0 .9.1.8-.8.8h-4.2c-.1 0-.2-.1-.2-.2v-13.9" class="st0"/><path d="M242.6 202.6c.2.1.1.3.1.4-.1.5-.1 1.1-.1 1.6 0 .9-.1 1.7-.3 2.6v.2c0 .1-.1.2-.2.2H230c-.6 0-.6 0-.6-.6v-31.7c0-1-.1-.9.9-.9h4.1c.1 0 .2.1.2.2v27.1c0 .3-.1.6.1.8s.5.1.8.1zM97.3 151.4v-16.2c0-.2 0-.3.3-.3h4.4c.5 0 .5 0 .5.5v27.4c0 .2 0 .3.3.3h7.4q.3 0 .3.3c0 .6-.1 1.3-.1 1.9-.1.6-.1 1.3-.2 2 0 .2-.1.4-.1.5s-.1.3-.2.3H97.5c-.2 0-.2-.1-.2-.3zM112.7 151.4v-15.8c0-.9-.1-.8.7-.8h4.3c.1 0 .2.1.2.2v32.5c0 .5 0 .5-.5.5h-4.5c-.2 0-.2-.1-.2-.3zM131.9 26.2l-.5-.2s-.1-.1.1-.1h.7v.1h-.2s-.1.1-.1.2" class="st0"/><path d="M131.9 26.2c0-.1 0-.1.1-.1h.2c4.5.7 8.8 1.8 13.1 3.2 11.7 3.7 22.6 9.7 32 17.6 6.9 5.8 12.9 12.6 17.8 20.1l.2.3c.1.1.1.2-.1.3s-.3.2-.5.3l-10.5 5.9-.7.4c.1.2.3.4.4.6q5.85 8.4 10.5 17.4c5.1 10 9 20.5 11.7 31.4.9 3.6 1.6 7.2 2.2 10.9.4 2.5.8 5 1.1 7.6.3 2.9.6 5.7.7 8.6.2 3.2.2 6.4.2 9.6q0 3.6-.3 7.2c-.3 3.6-.4 4.5-.8 6.8 0 .1 0 .3-.1.3-.1-1.2-.3-2.3-.4-3.5-.3-2-.6-4-1-6.1-.6-3.2-1.3-6.5-2.1-9.7-2.4-10-5.6-19.9-9.5-29.5-5.6-13.7-12.7-26.8-21.2-38.9-3.9-5.5-8-10.7-12.5-15.7l-.4-.5c.2-.2.4-.3.6-.4L174 64c.2-.1.4-.2.6-.4l-.4-.6c-3.4-4.5-7.1-8.9-11.1-12.9-8.1-8.3-17.2-15.5-27.1-21.6l-3.6-2.1c-.2-.1-.3-.2-.5-.2" class="st0"/><path d="M150.9 78c.2 0 .4.2.5.4 2.8 2.6 5.5 5.3 8 8.2 5.1 5.7 9.7 11.9 13.6 18.5.4.7.8 1.3 1.1 2 .1.2.1.4 0 .5-.5.7-1.1 1.4-1.6 2.1-.2.2-.2.2-.6.1l-5.4-1.8-9.6-3.3-.2-.1c-.3-.1-.5-.3-.5-.5-.3-1.6-.7-3.2-1-4.8l-2-10.3c-.8-3.6-1.5-7.2-2.3-10.8z" class="st0"/><path d="M89 19h162v196H89z" style="fill:none"/></svg>