<svg xmlns="http://www.w3.org/2000/svg" xml:space="preserve" viewBox="0 0 72.52 90.67"><defs><clipPath id="a" clipPathUnits="userSpaceOnUse"><path d="M538.359 569.121c-1.015 11.215-2.019 18.805-2.324 20.973-.664.492-1.972 1.457-3.945 2.832-2.969 2.058-7.41 5.027-13.274 8.633-11.699 7.207-29.07 16.953-51.687 27.086-45.215 20.253-111.387 42.054-195.164 48.203-146.652-10.758-239.336-69.485-260.13-83.922a174 174 0 0 1-3.944-2.828c-.297-2.164-1.309-9.754-2.325-20.977-1.21-13.367-2.425-31.855-2.425-52.273-.004-122.672 36.472-240.453 85.722-323.164C141.156 105.84 209.707 44.356 271.965 3.738c62.254 40.618 130.801 102.102 183.094 189.946 49.25 82.711 85.734 200.492 85.722 323.164 0 20.418-1.211 38.906-2.422 52.273"/></clipPath><clipPath id="c" clipPathUnits="userSpaceOnUse"><path d="m167.645 370.953.386 1.192-85.738-33.778-47.316 34.383c.238-1.039.484-2.082.726-3.121l45.211-32.844-17.887-55.039c.407-1.031.797-2.058 1.2-3.086l18.761 57.727 85.739 33.777z"/></clipPath><clipPath id="e" clipPathUnits="userSpaceOnUse"><path d="M523.563 563.922H395.996l-26.711 82.207c-.801.199-1.59.398-2.39.59l27.168-83.614-58.875-69.519h1.25l.41-1.281 58.875 69.519H523.73c-.058.715-.117 1.406-.167 2.098"/></clipPath><clipPath id="g" clipPathUnits="userSpaceOnUse"><path d="m207.074 492.305.184.55.23.731h1.25l-58.875 69.519 27.168 83.614c-.801-.192-1.597-.391-2.398-.59l-26.707-82.207H20.367l-.176-2.098H148.2Z"/></clipPath><clipPath id="i" clipPathUnits="userSpaceOnUse"><path d="m375.898 372.145.379-1.192-1.082-.789 85.743-33.769 18.757-57.735c.403 1.02.801 2.055 1.203 3.078l-17.89 55.047 45.215 32.848q.37 1.565.722 3.117l-47.312-34.383z"/></clipPath><clipPath id="k" clipPathUnits="userSpaceOnUse"><path d="M273.012 202.922v93.008l-1.047-.762-1.051.762v-93l-102.09-74.18-29.543 17.754a819 819 0 0 1 3.571-4.59l25.152-15.117 7.351-22.625c1.106-1.176 2.223-2.336 3.336-3.496l-8.586 26.426 101.86 73.992 101.851-73.992-8.582-26.426c1.114 1.16 2.239 2.32 3.34 3.496l7.356 22.625 25.144 15.117a562 562 0 0 1 3.574 4.59l-29.543-17.754Z"/></clipPath><clipPath id="m" clipPathUnits="userSpaceOnUse"><path d="M82.988 336.387 64.227 278.66c11.007-27.644 23.703-53.719 37.687-77.207 11.316-19.012 23.809-37.359 37.367-54.949l29.543-17.754 102.09 74.18v93l-102.187 74.234z"/></clipPath><clipPath id="o" clipPathUnits="userSpaceOnUse"><path d="m394.063 563.105-27.168 83.614c-30.801 7.465-62.665 12.472-94.93 14.898-32.262-2.426-64.133-7.433-94.934-14.898l-27.168-83.614 58.875-69.519h126.45z"/></clipPath><clipPath id="q" clipPathUnits="userSpaceOnUse"><path d="m168.031 372.145 39.043 120.16-58.875 69.519H20.191c-.988-12.332-1.859-28.008-1.859-44.984 0-47.891 5.602-96.235 16.645-144.09l47.316-34.383Z"/></clipPath><clipPath id="s" clipPathUnits="userSpaceOnUse"><path d="M523.73 561.824H395.723l-58.875-69.519 39.043-120.16 85.742-33.778 47.312 34.383c11.043 47.859 16.653 96.199 16.653 144.09 0 16.976-.871 32.652-1.868 44.984"/></clipPath><clipPath id="u" clipPathUnits="userSpaceOnUse"><path d="M375.195 370.164 273.012 295.93v-93.008l102.093-74.172 29.543 17.754a557 557 0 0 1 37.364 54.949c13.984 23.488 26.679 49.555 37.683 77.207l-18.757 57.735z"/></clipPath><clipPath id="w" clipPathUnits="userSpaceOnUse"><path d="m170.105 127.102 8.586-26.426a543 543 0 0 1 9.141-9.348c25.703-25.625 53.965-48.918 84.133-69.347 30.164 20.43 58.426 43.722 84.129 69.347 3.086 3.074 6.125 6.2 9.14 9.348l8.582 26.426-101.851 73.992z"/></clipPath><clipPath id="y" clipPathUnits="userSpaceOnUse"><path d="M42.168 344.336a642 642 0 0 1 20.86-62.59l17.886 55.039-45.21 32.844a682 682 0 0 1 6.464-25.293"/></clipPath><clipPath id="A" clipPathUnits="userSpaceOnUse"><path d="M480.898 281.738a643 643 0 0 1 20.86 62.598c2.336 8.414 4.472 16.852 6.465 25.297l-45.215-32.848z"/></clipPath><clipPath id="C" clipPathUnits="userSpaceOnUse"><path d="M334.91 491.488H209.016l-38.911-119.734 101.86-74 101.851 74z"/></clipPath><clipPath id="E" clipPathUnits="userSpaceOnUse"><path d="M248.23 501.273c.036-17.793 14.426-32.187 32.219-32.218 17.805.031 32.188 14.425 32.215 32.218-.027 17.793-14.41 32.188-32.215 32.219-17.793-.031-32.183-14.426-32.219-32.219"/></clipPath><radialGradient id="d" cx="0" cy="0" r="1" fx="0" fy="0" gradientTransform="matrix(348.286 0 0 -348.286 271.963 368.018)" gradientUnits="userSpaceOnUse" spreadMethod="pad"><stop offset="0" style="stop-opacity:1;stop-color:#8275c2"/><stop offset=".005" style="stop-opacity:1;stop-color:#8275c2"/><stop offset="1" style="stop-opacity:1;stop-color:#343c91"/></radialGradient><radialGradient id="f" cx="0" cy="0" r="1" fx="0" fy="0" gradientTransform="matrix(348.292 0 0 -348.292 271.953 368.027)" gradientUnits="userSpaceOnUse" spreadMethod="pad"><stop offset="0" style="stop-opacity:1;stop-color:#8275c2"/><stop offset=".005" style="stop-opacity:1;stop-color:#8275c2"/><stop offset="1" style="stop-opacity:1;stop-color:#343c91"/></radialGradient><radialGradient id="h" cx="0" cy="0" r="1" fx="0" fy="0" gradientTransform="matrix(348.278 0 0 -348.278 271.963 368.022)" gradientUnits="userSpaceOnUse" spreadMethod="pad"><stop offset="0" style="stop-opacity:1;stop-color:#8275c2"/><stop offset=".005" style="stop-opacity:1;stop-color:#8275c2"/><stop offset="1" style="stop-opacity:1;stop-color:#343c91"/></radialGradient><radialGradient id="j" cx="0" cy="0" r="1" fx="0" fy="0" gradientTransform="matrix(348.28 0 0 -348.28 271.963 368.018)" gradientUnits="userSpaceOnUse" spreadMethod="pad"><stop offset="0" style="stop-opacity:1;stop-color:#8275c2"/><stop offset=".005" style="stop-opacity:1;stop-color:#8275c2"/><stop offset="1" style="stop-opacity:1;stop-color:#343c91"/></radialGradient><radialGradient id="l" cx="0" cy="0" r="1" fx="0" fy="0" gradientTransform="matrix(348.295 0 0 -348.295 271.963 368.027)" gradientUnits="userSpaceOnUse" spreadMethod="pad"><stop offset="0" style="stop-opacity:1;stop-color:#8275c2"/><stop offset=".005" style="stop-opacity:1;stop-color:#8275c2"/><stop offset="1" style="stop-opacity:1;stop-color:#343c91"/></radialGradient><radialGradient id="n" cx="0" cy="0" r="1" fx="0" fy="0" gradientTransform="matrix(348.286 0 0 -348.286 271.958 368.018)" gradientUnits="userSpaceOnUse" spreadMethod="pad"><stop offset="0" style="stop-opacity:1;stop-color:#8dca6c"/><stop offset=".4" style="stop-opacity:1;stop-color:#81bd64"/><stop offset=".73" style="stop-opacity:1;stop-color:#2f9851"/><stop offset="1" style="stop-opacity:1;stop-color:#2f9851"/></radialGradient><radialGradient id="p" cx="0" cy="0" r="1" fx="0" fy="0" gradientTransform="matrix(348.287 0 0 -348.287 271.963 368.022)" gradientUnits="userSpaceOnUse" spreadMethod="pad"><stop offset="0" style="stop-opacity:1;stop-color:#8dca6c"/><stop offset=".4" style="stop-opacity:1;stop-color:#81bd64"/><stop offset=".73" style="stop-opacity:1;stop-color:#2f9851"/><stop offset="1" style="stop-opacity:1;stop-color:#2f9851"/></radialGradient><radialGradient id="r" cx="0" cy="0" r="1" fx="0" fy="0" gradientTransform="matrix(348.305 0 0 -348.305 271.968 368.018)" gradientUnits="userSpaceOnUse" spreadMethod="pad"><stop offset="0" style="stop-opacity:1;stop-color:#8dca6c"/><stop offset=".4" style="stop-opacity:1;stop-color:#81bd64"/><stop offset=".73" style="stop-opacity:1;stop-color:#2f9851"/><stop offset="1" style="stop-opacity:1;stop-color:#2f9851"/></radialGradient><radialGradient id="t" cx="0" cy="0" r="1" fx="0" fy="0" gradientTransform="matrix(348.293 0 0 -348.293 271.958 368.018)" gradientUnits="userSpaceOnUse" spreadMethod="pad"><stop offset="0" style="stop-opacity:1;stop-color:#8dca6c"/><stop offset=".4" style="stop-opacity:1;stop-color:#81bd64"/><stop offset=".73" style="stop-opacity:1;stop-color:#2f9851"/><stop offset="1" style="stop-opacity:1;stop-color:#2f9851"/></radialGradient><radialGradient id="v" cx="0" cy="0" r="1" fx="0" fy="0" gradientTransform="matrix(348.286 0 0 -348.286 271.968 368.018)" gradientUnits="userSpaceOnUse" spreadMethod="pad"><stop offset="0" style="stop-opacity:1;stop-color:#8dca6c"/><stop offset=".4" style="stop-opacity:1;stop-color:#81bd64"/><stop offset=".73" style="stop-opacity:1;stop-color:#2f9851"/><stop offset="1" style="stop-opacity:1;stop-color:#2f9851"/></radialGradient><radialGradient id="x" cx="0" cy="0" r="1" fx="0" fy="0" gradientTransform="matrix(348.278 0 0 -348.278 271.963 368.013)" gradientUnits="userSpaceOnUse" spreadMethod="pad"><stop offset="0" style="stop-opacity:1;stop-color:#d8dbf1"/><stop offset=".7" style="stop-opacity:1;stop-color:#3c63b8"/><stop offset="1" style="stop-opacity:1;stop-color:#3c63b8"/></radialGradient><radialGradient id="z" cx="0" cy="0" r="1" fx="0" fy="0" gradientTransform="matrix(348.291 0 0 -348.291 271.973 368.013)" gradientUnits="userSpaceOnUse" spreadMethod="pad"><stop offset="0" style="stop-opacity:1;stop-color:#d8dbf1"/><stop offset=".7" style="stop-opacity:1;stop-color:#3c63b8"/><stop offset="1" style="stop-opacity:1;stop-color:#3c63b8"/></radialGradient><radialGradient id="B" cx="0" cy="0" r="1" fx="0" fy="0" gradientTransform="matrix(348.299 0 0 -348.299 271.953 368.018)" gradientUnits="userSpaceOnUse" spreadMethod="pad"><stop offset="0" style="stop-opacity:1;stop-color:#d8dbf1"/><stop offset=".7" style="stop-opacity:1;stop-color:#3c63b8"/><stop offset="1" style="stop-opacity:1;stop-color:#3c63b8"/></radialGradient><radialGradient id="D" cx="0" cy="0" r="1" fx="0" fy="0" gradientTransform="matrix(115.221 0 0 -115.221 271.963 407.988)" gradientUnits="userSpaceOnUse" spreadMethod="pad"><stop offset="0" style="stop-opacity:1;stop-color:#d8dbf1"/><stop offset=".73" style="stop-opacity:1;stop-color:#456bbd"/><stop offset="1" style="stop-opacity:1;stop-color:#456bbd"/></radialGradient><radialGradient id="F" cx="0" cy="0" r="1" fx="0" fy="0" gradientTransform="matrix(20.0469 0 0 -20.0469 287.139 505.254)" gradientUnits="userSpaceOnUse" spreadMethod="pad"><stop offset="0" style="stop-opacity:1;stop-color:#77a280"/><stop offset=".585" style="stop-opacity:1;stop-color:#77a280"/><stop offset="1" style="stop-opacity:1;stop-color:#2a723f"/></radialGradient><linearGradient id="b" x1="0" x2="1" y1="0" y2="0" gradientTransform="matrix(540.785 0 0 -540.785 1.567 340.293)" gradientUnits="userSpaceOnUse" spreadMethod="pad"><stop offset="0" style="stop-opacity:1;stop-color:#4d48a6"/><stop offset=".005" style="stop-opacity:1;stop-color:#4d48a6"/><stop offset=".5" style="stop-opacity:1;stop-color:#fff"/><stop offset="1" style="stop-opacity:1;stop-color:#4d48a6"/></linearGradient></defs><path d="m539.055 591.188-.102.628-.496.387c-.156.113-97.852 75.445-266.379 87.789l-.121.008-.109-.008C103.32 667.648 5.621 592.316 5.468 592.203l-.503-.387-.09-.628C4.863 591.137 0 557.93 0 516.848c.004-123.301 36.61-241.528 86.16-324.77C138.988 103.34 208.297 41.368 271.11.558l.856-.558.851.559c62.821 40.808 132.118 102.781 184.95 191.519 49.547 83.242 86.152 201.469 86.16 324.77 0 41.082-4.863 74.289-4.871 74.34" style="fill:#000;fill-opacity:1;fill-rule:nonzero;stroke:none" transform="matrix(.13333 0 0 -.13333 0 90.667)"/><g clip-path="url(#a)" transform="matrix(.13333 0 0 -.13333 0 90.667)"><path d="M538.359 569.121c-1.015 11.215-2.019 18.805-2.324 20.973-.664.492-1.972 1.457-3.945 2.832-2.969 2.058-7.41 5.027-13.274 8.633-11.699 7.207-29.07 16.953-51.687 27.086-45.215 20.253-111.387 42.054-195.164 48.203-146.652-10.758-239.336-69.485-260.13-83.922a174 174 0 0 1-3.944-2.828c-.297-2.164-1.309-9.754-2.325-20.977-1.21-13.367-2.425-31.855-2.425-52.273-.004-122.672 36.472-240.453 85.722-323.164C141.156 105.84 209.707 44.356 271.965 3.738c62.254 40.618 130.801 102.102 183.094 189.946 49.25 82.711 85.734 200.492 85.722 323.164 0 20.418-1.211 38.906-2.422 52.273" style="fill:url(#b);fill-opacity:1;fill-rule:nonzero;stroke:none"/></g><path d="M142.852 141.914a563 563 0 0 1 32.503-37.742l-7.351 22.625zM368.574 104.172a564 564 0 0 1 32.5 37.742l-25.144-15.117z" style="fill:#2a723f;fill-opacity:1;fill-rule:nonzero;stroke:none" transform="matrix(.13333 0 0 -.13333 0 90.667)"/><path d="M84.156 615.293c-31.465-14.004-52.656-27.371-62.031-33.746a532 532 0 0 1-1.758-17.625h127.559l26.707 82.207a544 544 0 0 1-9.91-2.535c-28.008-7.449-55.114-16.973-80.567-28.301M459.766 615.293c-25.45 11.328-52.559 20.852-80.555 28.301a517 517 0 0 1-9.926 2.535l26.711-82.207h127.567a545 545 0 0 1-1.754 17.625c-9.375 6.375-30.571 19.742-62.043 33.746" style="fill:#3c63b8;fill-opacity:1;fill-rule:nonzero;stroke:none" transform="matrix(.13333 0 0 -.13333 0 90.667)"/><g clip-path="url(#c)" transform="matrix(.13333 0 0 -.13333 0 90.667)"><path d="m167.645 370.953.386 1.192-85.738-33.778-47.316 34.383c.238-1.039.484-2.082.726-3.121l45.211-32.844-17.887-55.039c.407-1.031.797-2.058 1.2-3.086l18.761 57.727 85.739 33.777z" style="fill:url(#d);fill-opacity:1;fill-rule:nonzero;stroke:none"/></g><g clip-path="url(#e)" transform="matrix(.13333 0 0 -.13333 0 90.667)"><path d="M523.563 563.922H395.996l-26.711 82.207c-.801.199-1.59.398-2.39.59l27.168-83.614-58.875-69.519h1.25l.41-1.281 58.875 69.519H523.73c-.058.715-.117 1.406-.167 2.098" style="fill:url(#f);fill-opacity:1;fill-rule:nonzero;stroke:none"/></g><g clip-path="url(#g)" transform="matrix(.13333 0 0 -.13333 0 90.667)"><path d="m207.074 492.305.184.55.23.731h1.25l-58.875 69.519 27.168 83.614c-.801-.192-1.597-.391-2.398-.59l-26.707-82.207H20.367l-.176-2.098H148.2z" style="fill:url(#h);fill-opacity:1;fill-rule:nonzero;stroke:none"/></g><g clip-path="url(#i)" transform="matrix(.13333 0 0 -.13333 0 90.667)"><path d="m375.898 372.145.379-1.192-1.082-.789 85.743-33.769 18.757-57.735c.403 1.02.801 2.055 1.203 3.078l-17.89 55.047 45.215 32.848q.37 1.565.722 3.117l-47.312-34.383z" style="fill:url(#j);fill-opacity:1;fill-rule:nonzero;stroke:none"/></g><g clip-path="url(#k)" transform="matrix(.13333 0 0 -.13333 0 90.667)"><path d="M273.012 202.922v93.008l-1.047-.762-1.051.762v-93l-102.09-74.18-29.543 17.754a819 819 0 0 1 3.571-4.59l25.152-15.117 7.351-22.625c1.106-1.176 2.223-2.336 3.336-3.496l-8.586 26.426 101.86 73.992 101.851-73.992-8.582-26.426c1.114 1.16 2.239 2.32 3.34 3.496l7.356 22.625 25.144 15.117a562 562 0 0 1 3.574 4.59l-29.543-17.754z" style="fill:url(#l);fill-opacity:1;fill-rule:nonzero;stroke:none"/></g><path d="m167.645 370.953 39.613 121.902.23.731h128.95l39.839-122.633-104.312-75.785z" style="fill:#2e3192;fill-opacity:1;fill-rule:nonzero;stroke:none" transform="matrix(.13333 0 0 -.13333 0 90.667)"/><g clip-path="url(#m)" transform="matrix(.13333 0 0 -.13333 0 90.667)"><path d="M82.988 336.387 64.227 278.66c11.007-27.644 23.703-53.719 37.687-77.207 11.316-19.012 23.809-37.359 37.367-54.949l29.543-17.754 102.09 74.18v93l-102.187 74.234z" style="fill:url(#n);fill-opacity:1;fill-rule:nonzero;stroke:none"/></g><g clip-path="url(#o)" transform="matrix(.13333 0 0 -.13333 0 90.667)"><path d="m394.063 563.105-27.168 83.614c-30.801 7.465-62.665 12.472-94.93 14.898-32.262-2.426-64.133-7.433-94.934-14.898l-27.168-83.614 58.875-69.519h126.45z" style="fill:url(#p);fill-opacity:1;fill-rule:nonzero;stroke:none"/></g><g clip-path="url(#q)" transform="matrix(.13333 0 0 -.13333 0 90.667)"><path d="m168.031 372.145 39.043 120.16-58.875 69.519H20.191c-.988-12.332-1.859-28.008-1.859-44.984 0-47.891 5.602-96.235 16.645-144.09l47.316-34.383z" style="fill:url(#r);fill-opacity:1;fill-rule:nonzero;stroke:none"/></g><g clip-path="url(#s)" transform="matrix(.13333 0 0 -.13333 0 90.667)"><path d="M523.73 561.824H395.723l-58.875-69.519 39.043-120.16 85.742-33.778 47.312 34.383c11.043 47.859 16.653 96.199 16.653 144.09 0 16.976-.871 32.652-1.868 44.984" style="fill:url(#t);fill-opacity:1;fill-rule:nonzero;stroke:none"/></g><g clip-path="url(#u)" transform="matrix(.13333 0 0 -.13333 0 90.667)"><path d="M375.195 370.164 273.012 295.93v-93.008l102.093-74.172 29.543 17.754a557 557 0 0 1 37.364 54.949c13.984 23.488 26.679 49.555 37.683 77.207l-18.757 57.735z" style="fill:url(#v);fill-opacity:1;fill-rule:nonzero;stroke:none"/></g><g clip-path="url(#w)" transform="matrix(.13333 0 0 -.13333 0 90.667)"><path d="m170.105 127.102 8.586-26.426a543 543 0 0 1 9.141-9.348c25.703-25.625 53.965-48.918 84.133-69.347 30.164 20.43 58.426 43.722 84.129 69.347 3.086 3.074 6.125 6.2 9.14 9.348l8.582 26.426-101.851 73.992z" style="fill:url(#x);fill-opacity:1;fill-rule:nonzero;stroke:none"/></g><g clip-path="url(#y)" transform="matrix(.13333 0 0 -.13333 0 90.667)"><path d="M42.168 344.336a642 642 0 0 1 20.86-62.59l17.886 55.039-45.21 32.844a682 682 0 0 1 6.464-25.293" style="fill:url(#z);fill-opacity:1;fill-rule:nonzero;stroke:none"/></g><g clip-path="url(#A)" transform="matrix(.13333 0 0 -.13333 0 90.667)"><path d="M480.898 281.738a643 643 0 0 1 20.86 62.598c2.336 8.414 4.472 16.852 6.465 25.297l-45.215-32.848z" style="fill:url(#B);fill-opacity:1;fill-rule:nonzero;stroke:none"/></g><g clip-path="url(#C)" transform="matrix(.13333 0 0 -.13333 0 90.667)"><path d="M334.91 491.488H209.016l-38.911-119.734 101.86-74 101.851 74z" style="fill:url(#D);fill-opacity:1;fill-rule:nonzero;stroke:none"/></g><path d="M157.93 220.652c-12.864 0-26.969 1.719-42.399 5.469a.867.867 0 0 0-.644 1.008c.09.449.519.754.976.684 7.434-1.102 14.59-1.641 21.465-1.641 68.742.019 109.317 53.047 109.352 110.43 0 36.656-16.078 59.722-24.09 68.957-1.731 1.984-3.063 3.32-3.797 4.011-17.238-19.265-26.129-57.632-26.105-90.976 0-17.324 2.386-33.301 7.117-44.512a.86.86 0 0 0-.43-1.113.86.86 0 0 0-1.133.383c-.035.078-15.804 30.73-15.808 73.718.015 57.942 32.941 104.649 32.98 104.723a.856.856 0 0 0 1.066.285c.18-.043 50.805-23.625 50.782-110.07 0-29.059-7.832-59.363-25.438-82.457-17.586-23.086-45-38.906-83.84-38.899z" style="fill:#fff;fill-opacity:1;fill-rule:nonzero;stroke:none" transform="matrix(.13333 0 0 -.13333 0 90.667)"/><path d="M157.93 222.371c76.683.024 107.539 62.063 107.601 119.637-.019 74.996-38.246 101.836-47.687 107.379q-.916.522-1.438.793c-.742-1.098-2.426-3.664-4.668-7.504-3.062-5.242-7.148-12.848-11.234-22.231-8.176-18.785-16.344-44.73-16.34-73.375-.004-23.816 4.899-43.84 9.211-56.843-1.617 8.582-2.414 18.25-2.414 28.367.019 34.027 9.012 73.086 27.144 92.785a.863.863 0 0 0 1.204.066c.089-.078 29.093-25.254 29.097-74.843 0-29.09-10.308-57.122-29.375-77.891-19.047-20.781-46.859-34.27-81.703-34.27q-2.653.002-5.371.11c9.191-1.477 17.844-2.18 25.973-2.18" style="fill:#3c63b8;fill-opacity:1;fill-rule:nonzero;stroke:none" transform="matrix(.13333 0 0 -.13333 0 90.667)"/><path d="M320.332 501.273c0-18.269-14.812-33.085-33.086-33.085-18.269 0-33.086 14.816-33.086 33.085 0 18.274 14.817 33.082 33.086 33.082 18.274 0 33.086-14.808 33.086-33.082M303.684 274.836c2.988 4.676 5.703 9.5 8.113 14.434 74.773-13.418 114.851-74.875 114.851-74.875-33.25 63.984-94.39 89.882-106.98 94.648 3.723 11.992 5.723 24.348 5.723 36.633 0 81.703-63.457 122.387-63.457 122.387s-39.633-50.989-39.633-116.454c0-56.011 25.398-101.343 28.152-101.343.555 0 1 .742 1 1.66 0 2.012-19.203 28.328-19.203 75.719 0 52.378 32.734 97.55 32.734 97.55s35.786-25.922 35.786-81.269c0-60.801-35.688-91.848-37.86-93.828-21.633-19.649-53.43-32.879-89.582-32.879-21.851 0-41.156 4.07-41.156 4.07s26.406-11.785 57.047-11.785c41.594 0 78.054 20.242 102.761 49.461 87.344-6.043 126.809-58.543 126.809-58.543s-38.367 57.547-115.105 74.414" style="fill:#444142;fill-opacity:1;fill-rule:nonzero;stroke:none" transform="matrix(.13333 0 0 -.13333 0 90.667)"/><path d="M246.504 501.273c0 18.747 15.199 33.946 33.945 33.946 18.75 0 33.946-15.199 33.946-33.946 0-18.75-15.196-33.945-33.946-33.949-18.746.004-33.945 15.199-33.945 33.949M411.309 199.902c-.008.008-.594.789-1.836 2.227a103 103 0 0 1-5.618 5.976c-5.027 4.993-12.656 11.7-22.988 18.606-20.613 13.758-52.019 28.277-95.301 31.363-24.843-29.207-61.421-49.429-103.14-49.429-30.856 0-57.336 11.835-57.399 11.851a.87.87 0 0 0-.464 1.059.853.853 0 0 0 1 .574c.007 0 4.789-1.008 12.32-2.024 7.527-1.011 17.781-2.031 28.656-2.031 35.941 0 67.539 13.164 88.996 32.668 2.125 1.934 37.57 32.735 37.578 93.188 0 48.074-27.191 73.742-33.933 79.383-.313.257-.582.476-.801.648-.781-1.133-2.418-3.555-4.563-7.09-3.054-5.031-7.128-12.285-11.203-21.168-8.148-17.769-16.289-42.051-16.289-68.058.008-41.278 14.606-66.395 18.281-73.434.524-1.074.856-1.523.922-2.285-.031-1.125-.461-2.383-1.871-2.524-.734.071-.965.411-1.386.786q-.575.598-1.313 1.636c-.992 1.399-2.223 3.403-3.617 5.989-2.789 5.167-6.235 12.617-9.602 21.828-6.718 18.406-13.093 43.836-13.093 71.968.019 65.825 39.769 116.911 39.812 116.985a.864.864 0 0 0 1.148.195c.083-.059 63.829-40.918 63.86-123.113 0-12.121-1.926-24.289-5.527-36.106 14.199-5.507 73.882-31.679 106.687-94.785a.875.875 0 0 0-.332-1.14.86.86 0 0 0-1.16.273c-.012.008-2.473 3.797-7.375 9.734-4.903 5.938-12.215 14.016-21.856 22.5-19.179 16.875-47.539 35.379-84.414 42.149a148 148 0 0 0-7.207-12.891c76.289-17.285 114.375-74.426 114.434-74.504a.86.86 0 0 0-.215-1.187.87.87 0 0 0-.508-.156.86.86 0 0 0-.683.339" style="fill:#fff;fill-opacity:1;fill-rule:nonzero;stroke:none" transform="matrix(.13333 0 0 -.13333 0 90.667)"/><path d="M142.645 216.23c10.382-2.937 24.574-5.859 39.781-5.859 41.304-.012 77.535 20.098 102.094 49.149a.9.9 0 0 0 .722.316c57.973-4.023 94.953-28.41 113.391-44.516a201 201 0 0 1-15.977 15.332c-19.109 16.426-47.754 34.946-85.957 43.34l.196.852.722-.469-.722.469-.196-.852a.86.86 0 0 0-.605.52.85.85 0 0 0 .066.793 146 146 0 0 1 8.07 14.343c.165.352.543.54.926.469 56.114-10.09 92.727-46.98 107.715-65.097-33.976 55.671-88.547 78.769-100.305 83.222a.867.867 0 0 0-.515 1.067c3.703 11.902 5.683 24.168 5.683 36.367.008 71.062-48.324 110.945-60.379 119.785a70 70 0 0 1-2.019 1.434c-.883-1.192-2.93-4.02-5.656-8.286-3.703-5.777-8.641-14.168-13.575-24.589-9.875-20.856-19.734-49.848-19.734-82.411-.004-39.871 12.949-74.375 21.309-90.718 2.711-5.344 5.035-8.813 5.976-9.641.074.137.145.391.145.676l-.012-.012a4 4 0 0 1-.133.32c-.121.286-.328.688-.586 1.172-.515.996-1.269 2.387-2.175 4.133a139 139 0 0 0-6.641 14.922c-4.828 12.832-9.66 31.379-9.66 55.184.019 52.738 32.863 97.984 32.894 98.058a.87.87 0 0 0 1.211.195c.102-.074 36.145-26.218 36.145-81.968.011-61.157-35.918-92.453-38.145-94.465-21.797-19.809-53.793-33.11-90.16-33.117-12.828.007-24.766 1.394-32.48 2.558 2.425-.832 5.32-1.758 8.586-2.676" style="fill:#2a723f;fill-opacity:1;fill-rule:nonzero;stroke:none" transform="matrix(.13333 0 0 -.13333 0 90.667)"/><g clip-path="url(#E)" transform="matrix(.13333 0 0 -.13333 0 90.667)"><path d="M248.23 501.273c.036-17.793 14.426-32.187 32.219-32.218 17.805.031 32.188 14.425 32.215 32.218-.027 17.793-14.41 32.188-32.215 32.219-17.793-.031-32.183-14.426-32.219-32.219" style="fill:url(#F);fill-opacity:1;fill-rule:nonzero;stroke:none"/></g><path d="m101.234 521.676-14.316-9.231-10.738 16.66-15.653-10.085a31.2 31.2 0 0 1 7.18-7.618 52 52 0 0 1 9.04-5.507l-6.868-14.899a58.6 58.6 0 0 0-14.277 8.414 50.5 50.5 0 0 0-11.051 12.227 49.5 49.5 0 0 0-3.848 7.215 43.5 43.5 0 0 0-2.559 7.867 38.8 38.8 0 0 0-.945 8.222 34.4 34.4 0 0 0 .93 8.247c.734 3.082 1.754 5.851 3.078 8.304a33.6 33.6 0 0 0 4.773 6.77 49.3 49.3 0 0 0 6.168 5.707 99 99 0 0 0 7.258 5.129l7.02 4.523 8.562-11.226-8.828-5.696c-3.836-2.469-6.656-4.898-8.469-7.273-1.812-2.383-3.02-4.653-3.617-6.797-.605-2.149-.789-4.149-.543-5.996.239-1.848.496-3.469.77-4.875l14.25 9.183-6.84 10.618 14.316 9.222zM118.383 546.094l19.992 10.035 2.758-14.371-31.656-15.891-28.043 55.887 15.222 7.637zM169.277 604.418l-23.839-8.965 3.531-9.383 21.527 8.094 1.234-14.578-17.804-6.695 5.437-14.473a85 85 0 0 1 1.692-4.145 14.9 14.9 0 0 1 2.406-3.8l-11.113-14.317a20.5 20.5 0 0 0-4.368 5.516 51.4 51.4 0 0 0-2.941 6.453l-20.5 54.512 36.059 13.558zM234.039 569.988l-16.613-3.765-4.383 19.328-18.16-4.117a31.2 31.2 0 0 1 4.137-9.618 51.7 51.7 0 0 1 6.609-8.269l-11.563-11.645a59 59 0 0 0-10.531 12.793 50.7 50.7 0 0 0-6.191 15.27 49.5 49.5 0 0 0-1.145 8.101 44 44 0 0 0 .289 8.266c.36 2.75.996 5.43 1.93 8.047a34.7 34.7 0 0 0 3.699 7.434q2.607 3.96 5.735 6.753a33.7 33.7 0 0 0 6.8 4.719 49.4 49.4 0 0 0 7.754 3.25 100 100 0 0 0 8.571 2.332l8.148 1.852 4.199-13.489-10.242-2.324c-4.453-1.008-7.937-2.324-10.453-3.937q-3.774-2.426-5.731-5.145c-1.3-1.808-2.152-3.625-2.558-5.441a84 84 0 0 1-.942-4.844l16.536 3.742-2.793 12.317 16.609 3.769zM285.461 619.914l-18.152.004v-48.441h-17.036l.004 48.441h-18.144l3.98 14.082 45.364-.008zM335.676 615.109l-25.996 3.164-1.125-9.191 23.625-2.875-5.649-13.496-19.676 2.391-1.328-10.938 27.727-3.371-5.649-13.504-40.691 4.957 7.559 62.059 38.945-4.735zM383.918 551.348l-16.32 4.875 8.203 27.5-17.156 5.117-5.665-18.996a83 83 0 0 1-1.171-4.321 14.8 14.8 0 0 1-.383-4.476l-17.5-4.684a20.4 20.4 0 0 0-.149 7.032q.534 3.478 1.567 6.921l16.648 55.805 16.321-4.871-5.645-18.914 17.168-5.125 5.644 18.922 16.317-4.867zM477.41 559.242l-22.469 11.985-4.726-8.844 20.305-10.824-10.137-10.551-16.789 8.949-7.278-13.644a97 97 0 0 1-2-4.004 15 15 0 0 1-1.257-4.313l-18.086-1.105a20.2 20.2 0 0 0 1.25 6.918 52 52 0 0 0 2.91 6.468l27.398 51.387 33.996-18.125zM488.32 493.918l-2.453 1.629c-4.597 3.058-8.222 6.703-10.879 10.953-2.652 4.242-4.383 8.727-5.164 13.441s-.664 9.497.352 14.332c1.015 4.836 2.929 9.36 5.722 13.563 1.747 2.637 3.809 4.93 6.192 6.871a20.9 20.9 0 0 0 7.969 4.078c2.929.778 6.164.817 9.687.133 3.524-.695 7.317-2.391 11.387-5.09l11.062-7.359-4.48-13.93-11.067 7.359q-1.066.704-2.925 1.711-1.864 1.014-4.16 1.207c-1.543.133-3.176-.187-4.907-.968-1.726-.778-3.406-2.407-5.047-4.868-1.75-2.632-2.91-5.453-3.464-8.449-.559-3-.469-5.996.273-9.004.738-3.004 2.176-5.902 4.305-8.691 2.129-2.793 5.031-5.262 8.703-7.398zM206.695 130.422l2.961 7.879h16.539V91.836h-9.996v38.586zM245.375 124.055c0-4.485 2.379-7.739 7.289-7.805.758 1.785 1.297 4.031 1.297 7.805 0 3.699-1.617 6.316-4.156 6.316s-4.43-2.422-4.43-6.316m-4.367-23.711c2.586 1.59 6.531 4.722 8.687 8.367-10.043 0-16.25 6.523-16.14 14.187.215 8.879 7.125 16.489 16.41 16.29 4.43 0 8.211-.887 11.285-4.02 2.809-2.871 4.27-6.457 4.27-11.887 0-12.336-9.559-26.386-19.118-32.968zM280.957 123.73c12.793-1.281 15.438-6.906 15.438-12.91 0-8.371-9.547-17.441-25.102-19.62l-1.512 10.609c5.129.386 13.18 2.363 13.18 7.222 0 3.574-3.996 5.11-11.883 5.364l2.485 23.781c5.128.054 18.351.633 22.406.887l-.051-11.563-14.316.762zM314.48 125.84c0-3.582 2.219-5.879 4.434-5.879 2.102 0 4.641 1.719 4.641 6.262 0 4.793-2.422 5.75-4.207 5.75-2.864 0-4.868-2.11-4.868-6.133m9.512-20.07c0 4.668-2.597 6.652-4.695 6.652-3.301 0-5.188-2.942-5.188-6.973 0-4.472 2.649-6.445 4.856-6.445 2.219 0 5.027 1.594 5.027 6.766m-21.387-1.661c0 4.985 2.754 9.653 6.75 12.012-3.933 2.055-6.32 6.137-6.32 10.356 0 6.003 4.699 12.781 16.633 12.711 10.422 0 15.391-4.532 15.391-11.368 0-3.711-1.895-8.504-6.59-11.121 4.644-2.109 7.129-6.203 7.129-11.433 0-5.754-3.996-13.489-16.899-13.489-12.097 0-16.094 5.625-16.094 12.332" style="fill:#000;fill-opacity:1;fill-rule:nonzero;stroke:none" transform="matrix(.13333 0 0 -.13333 0 90.667)"/><path d="m99.664 525.344-14.316-9.231-10.739 16.66-15.652-10.085a31.2 31.2 0 0 1 7.18-7.622 52 52 0 0 1 9.039-5.503l-6.871-14.907a59 59 0 0 0-14.278 8.418 50.7 50.7 0 0 0-11.05 12.231 50 50 0 0 0-3.844 7.215 43.3 43.3 0 0 0-2.559 7.863 38.5 38.5 0 0 0-.949 8.222q-.03 4.167.938 8.25c.726 3.079 1.753 5.848 3.07 8.305a33.9 33.9 0 0 0 4.777 6.77 49.5 49.5 0 0 0 6.172 5.707q3.367 2.623 7.25 5.129l7.02 4.523 8.566-11.23-8.828-5.692q-5.754-3.707-8.473-7.281-2.716-3.573-3.617-6.793c-.605-2.152-.785-4.145-.543-5.996.246-1.844.5-3.473.774-4.871l14.25 9.183-6.84 10.618 14.316 9.222zM116.813 549.762l19.988 10.027 2.762-14.367-31.657-15.887-28.043 55.887 15.227 7.633zM167.703 608.082l-23.836-8.965 3.531-9.379 21.528 8.094 1.23-14.578-17.801-6.699 5.442-14.469a88 88 0 0 1 1.683-4.148 15 15 0 0 1 2.411-3.797l-11.114-14.317a20.4 20.4 0 0 0-4.367 5.512 51.6 51.6 0 0 0-2.937 6.457l-20.504 54.512 36.054 13.558zM232.465 573.652l-16.61-3.765-4.378 19.332-18.164-4.121a31.1 31.1 0 0 1 4.136-9.614 52.2 52.2 0 0 1 6.61-8.273L192.5 555.566a58.7 58.7 0 0 0-10.531 12.797 50.7 50.7 0 0 0-6.199 15.27 49.5 49.5 0 0 0-1.141 8.101 44 44 0 0 0 .289 8.266c.355 2.742 1 5.43 1.93 8.047a34.2 34.2 0 0 0 3.699 7.433c1.738 2.641 3.652 4.891 5.73 6.75a34 34 0 0 0 6.809 4.723 49 49 0 0 0 7.75 3.246 100 100 0 0 0 8.566 2.336l8.153 1.852 4.199-13.489-10.246-2.324c-4.445-1.011-7.934-2.324-10.449-3.941-2.52-1.613-4.426-3.328-5.731-5.141q-1.95-2.723-2.558-5.445a82 82 0 0 1-.946-4.844l16.535 3.746-2.793 12.317 16.614 3.769zM283.887 623.578l-18.145.008-.004-48.445h-17.031l.004 48.445h-18.148l3.976 14.082 45.363-.008zM334.102 618.773l-25.997 3.165-1.125-9.188 23.625-2.879-5.644-13.492-19.68 2.391-1.328-10.938 27.735-3.379-5.653-13.496-40.691 4.949 7.554 62.067 38.95-4.739zM382.344 555.016l-16.321 4.871 8.207 27.496-17.16 5.121-5.664-18.992a88 88 0 0 1-1.164-4.324 14.5 14.5 0 0 1-.379-4.481l-17.508-4.68a20.3 20.3 0 0 0-.148 7.036 52 52 0 0 0 1.563 6.917l16.652 55.805 16.316-4.867-5.644-18.922 17.168-5.117 5.644 18.922 16.321-4.875zM475.84 562.91l-22.473 11.985-4.715-8.848 20.293-10.82-10.136-10.555-16.789 8.949-7.274-13.641a104 104 0 0 1-2.004-4.003 15 15 0 0 1-1.258-4.317l-18.086-1.101a20.4 20.4 0 0 0 1.25 6.918 54 54 0 0 0 2.911 6.468l27.402 51.387 33.992-18.125zM486.746 497.582l-2.449 1.633c-4.602 3.051-8.223 6.703-10.879 10.953q-3.982 6.364-5.164 13.441-1.171 7.074.351 14.329c1.024 4.839 2.926 9.363 5.719 13.566a30.7 30.7 0 0 0 6.196 6.871 20.8 20.8 0 0 0 7.964 4.074q4.4 1.161 9.692.129c3.523-.687 7.312-2.383 11.387-5.082l11.062-7.359-4.48-13.93-11.067 7.356a40 40 0 0 1-2.93 1.714c-1.242.668-2.628 1.075-4.16 1.207q-2.313.2-4.902-.972c-1.731-.782-3.406-2.403-5.051-4.867-1.746-2.633-2.906-5.45-3.465-8.45a21.1 21.1 0 0 1 .274-9.004c.742-3 2.176-5.902 4.304-8.695 2.129-2.785 5.032-5.254 8.704-7.391zM205.121 134.082l2.969 7.891h16.535V95.496h-9.996v38.586zM243.809 127.715c0-4.473 2.375-7.735 7.285-7.793.758 1.789 1.301 4.023 1.301 7.793 0 3.703-1.625 6.328-4.165 6.328-2.531 0-4.421-2.434-4.421-6.328m-4.375-23.711c2.593 1.601 6.535 4.734 8.691 8.379-10.039 0-16.25 6.512-16.145 14.18.215 8.886 7.129 16.484 16.418 16.296 4.422 0 8.204-.894 11.282-4.019 2.808-2.883 4.265-6.457 4.265-11.887 0-12.344-9.554-26.394-19.109-32.976zM279.387 127.395c12.801-1.282 15.437-6.899 15.437-12.915 0-8.367-9.551-17.437-25.101-19.609l-1.508 10.609c5.125.379 13.172 2.364 13.172 7.215 0 3.582-3.992 5.118-11.879 5.371l2.484 23.77c5.125.066 18.36.644 22.403.898l-.047-11.574-14.309.774zM312.922 129.504c0-3.574 2.207-5.883 4.422-5.883 2.109 0 4.636 1.731 4.636 6.262 0 4.797-2.417 5.754-4.207 5.754-2.863 0-4.851-2.114-4.851-6.133m9.5-20.063c0 4.661-2.598 6.645-4.695 6.645-3.301 0-5.188-2.941-5.188-6.965 0-4.473 2.649-6.453 4.856-6.453 2.214 0 5.027 1.59 5.027 6.773m-21.387-1.668c0 4.993 2.754 9.649 6.746 12.024-3.933 2.039-6.316 6.133-6.316 10.348 0 6.007 4.707 12.777 16.633 12.714 10.418 0 15.386-4.539 15.386-11.375 0-3.703-1.89-8.496-6.589-11.125 4.648-2.097 7.128-6.187 7.128-11.433 0-5.75-3.996-13.477-16.894-13.477-12.102 0-16.094 5.614-16.094 12.324" style="fill:#fff;fill-opacity:1;fill-rule:nonzero;stroke:none" transform="matrix(.13333 0 0 -.13333 0 90.667)"/></svg>