<svg xmlns="http://www.w3.org/2000/svg" id="Calque_2" width="231" height="435.4" data-name="Calque 2" style="max-height:500px" viewBox="50.4 0 231 435.4"><defs><style>.cls-1{fill:#ffe000}</style></defs><g id="Calque_1-2" data-name="Calque 1"><path d="M54.38 382.21c0 27.67 22.33 50.12 49.86 50.12h41.26c27.16 0 49.18-22.14 49.18-49.44v-92.47c14.79 0 26.79 12.06 26.79 26.93V432.4h13.36c24 0 43.43-19.53 43.43-43.66v-85.26c0-14.99-12.06-27.18-27.03-27.18h-.99c15.47 0 27.96-12.62 27.96-28.11V78.86H54.38zm140.37-276.43c14.79 0 26.79 12.06 26.79 26.93v102.43c0 14.86-12 26.93-26.79 26.93zm-83.52 13.44c0-7.46 6-13.43 13.36-13.43s13.36 6.03 13.36 13.43v272.64c0 7.46-6 13.43-13.36 13.43s-13.36-6.03-13.36-13.43zm166.85-95.34V0h-56.6v23.88h-26.85V0h-56.54v23.88h-27.1V0h-56.6v57.9h223.88V23.88zM15.65 591.04h12.19c10.45 0 15.65-5.54 15.65-16.54v-64.18c0-11.13-5.2-16.67-15.53-16.67H15.53C5.2 493.65 0 499.18 0 510.32v64.18c0 11.01 5.2 16.54 15.65 16.54m-2.66-81.21c0-2.42 1.98-4.42 4.39-4.29h8.79c2.41.06 4.33 1.99 4.33 4.42v64.86h.06c0 2.43-1.98 4.42-4.39 4.42h-8.79c-2.41 0-4.39-1.99-4.39-4.42zM98.55 551v-40.73c0-11.13-4.95-16.67-14.85-16.67H58.34l-.06.06v97.45h12.87v-26.8l7.92-3.86 8.48 30.6h12.31l-10.02-35.82zm-12.99-7.16-14.29 6.72v-45.21h8.48c3.22 0 5.82 2.61 5.82 5.84v32.65zm69.96-33.52c0-11.13-5.2-16.67-15.53-16.67h-12.44c-10.33 0-15.53 5.53-15.53 16.67v64.18c0 11.01 5.2 16.54 15.65 16.54h12.19c10.45 0 15.65-5.54 15.65-16.54v-64.18zm-12.99 64.43a4.45 4.45 0 0 1-4.46 4.48h-8.66c-2.48 0-4.45-1.99-4.45-4.48v-64.93c0-2.49 1.98-4.48 4.45-4.48h8.66a4.45 4.45 0 0 1 4.46 4.48zm68.61 1.74v-11.13l-10.33-10.95 8.97-4.04v-39.18c0-11.75-5.75-17.66-17.26-17.66h-22.15v97.45h26.04c9.84 0 14.73-4.79 14.73-14.49m-27.9-71.14h8.04c3.03 0 5.51 2.49 5.51 5.53v33.83l-13.49 6.53-.06-.06zm.06 73.88v-16.29l7.42-3.61 7.42 7.46v7.28c0 2.86-2.29 5.16-5.14 5.16zm54.38-16.11 14.85-7.15v35.07h12.93v-80.72c0-11.13-5.2-16.67-15.53-16.67h-9.71c-10.33 0-15.53 5.53-15.53 16.67v80.72h12.99zm-.12-55.35c0-1.37 1.11-2.42 2.41-2.42h10.08c1.36 0 2.41 1.12 2.41 2.42v36.51h-.06l-14.85 7.15v-43.66zm71.51-14.18v50.56l-15.9 7.78v-58.34h-12.93v97.45h12.93v-27.55l15.96-7.71v35.26H322v-97.45zM28.21 605.16H10.52v11.13h30.25v-11.13zm49.86 59.27H67.86v-.06H46.95v-39.12H24.99c-5.51 0-10.02.93-13.61 2.8s-6.19 4.67-7.92 8.33c-1.73 3.67-2.6 9.58-2.6 15.11s.87 10.01 2.6 13.62 4.33 6.28 7.92 8.02 8.1 2.61 13.61 2.61v-.06h42.72s.06.04.09.04v-.04h.06v.06h23.26v-50.5H78.07zm-59.7-.93c-1.61-.56-2.78-1.8-3.46-3.67-.68-1.8-1.05-4.42-1.05-8.33s.37-8.21 1.11-10.14 1.92-3.17 3.53-3.79 3.77-.93 6.43-.93h8.97v27.74h-8.91c-2.78-.01-5.01-.33-6.62-.88" class="cls-1"/><path d="M67.8 675.75h.06s-.04-.02-.06-.02zm10.27 9.7h13.05v11.13H78.07zm34.58-57.53c-3.59 1.87-6.19 4.66-7.92 8.33s-2.6 9.58-2.6 15.11.87 10.01 2.6 13.62 4.33 6.28 7.92 8.02 8.1 2.61 13.61 2.61h8.91v2.92c0 3.42-.99 5.97-3.09 7.65s-5.51 2.55-10.15 2.55c-1.55 0-3.46-.12-5.75-.31s-5.07-.5-8.29-.87L105.97 698c2.97.62 5.82 1.06 8.41 1.43 2.66.37 5.14.56 7.55.56v-.12c5.32 0 9.96-.87 13.86-2.55 3.96-1.74 6.99-4.17 9.16-7.4s3.28-7.09 3.28-11.5v-53.3h-21.96c-5.51 0-10.03.94-13.62 2.8m13.61 36.38c-2.78 0-5.01-.31-6.62-.87s-2.78-1.8-3.46-3.67c-.68-1.8-1.05-4.42-1.05-8.33s.37-8.21 1.11-10.14 1.92-3.17 3.53-3.79 3.77-.93 6.43-.93h8.97v27.74h-8.91Zm153.42.13h-30.3c2.39-2.05 4.6-4.2 6.43-6.53 2.54-3.23 4.52-6.47 5.88-9.7s2.04-6.16 2.04-8.83v-5.6c-2.78-1.56-5.75-2.86-8.91-3.92a67 67 0 0 0-9.4-2.43c-3.16-.56-6.12-.81-8.79-.81s-5.57.25-8.72.81c-3.16.56-6.31 1.37-9.47 2.43s-6.12 2.36-8.91 3.92v5.6c0 2.67.68 5.6 2.04 8.83s3.34 6.47 5.88 9.7c1.87 2.33 4.07 4.48 6.44 6.53h-44.05v-37.81h-13.05v50.56c0 3.67-.74 6.53-2.29 8.52-1.48 2.05-3.52 3.05-6.06 3.05-.5 0-1.18-.06-2.1-.12-.93-.06-1.92-.12-2.97-.19l-.49 11.13c1.05.12 2.04.25 3.03.31.99.12 1.86.12 2.72.12l.06-.06c4.21 0 7.92-.93 11.07-2.86 3.16-1.93 5.63-4.6 7.42-8.09 1.79-3.42 2.66-7.4 2.66-11.81v-1.43h40.58c5.07 0 9.84-.81 14.23-2.43.69-.26 1.3-.61 1.97-.9.68.28 1.3.64 1.99.9 4.45 1.62 9.16 2.43 14.23 2.43h39.9V606.6h-13.05v57.83zM236.57 638c3.16 0 6.5.43 10.02 1.37 1.28.34 2.5 1.04 3.76 1.49-.17 1.61-.38 3.21-1.1 4.98q-1.395 3.45-3.9 6.72a37.3 37.3 0 0 1-5.75 5.97c-.93.75-2.02 1.17-3 1.79-.98-.62-2.07-1.04-3-1.79-2.23-1.8-4.15-3.79-5.75-5.97-1.61-2.18-2.91-4.42-3.83-6.72-.74-1.83-.97-3.49-1.13-5.14 2.07-.77 3.73-1.32 3.73-1.32s6.79-1.38 9.95-1.38m71.7-31.41h12.93v69.15h-12.93z" class="cls-1"/></g></svg>