<svg xmlns="http://www.w3.org/2000/svg" xml:space="preserve" id="Layer_1" width="260.208" height="300" x="0" y="0" version="1.1"><style id="style1" type="text/css">.st0{fill:#fff}.st1{fill:#616261}.st2{fill:#3c3c3c}.st6{fill:#c5cfdb}</style><g id="g88" style="display:inline" transform="translate(-78.208 -58.667)scale(.41667)"><path id="path1" d="M812.2 629.9s-91.4-24.2-102.6-24.2l-2.7 9.5-9.3-10.5s63.5-167 57.5-288.2l-41.4 6c-1.2 14.9-4 23.7-4 23.7-9.7 28-22.1 40.6-22.1 40.6-4.9 15.5 7.3 22.8 7.3 22.8 3.8-1.1 9.7-9 9.7-9-5.4 30-30.5 40.5-30.5 40.5-3.5 0-8.4 4-8.4 4-7 7.6-13.5 15.5-13.5 15.5-2.4 46.3-22.4 59.6-22.4 59.6.2-7.9-3-18.2-3-18.2-4.3 16.9-31.6 61.5-31.6 61.5-3.5-1.4-20.8-2.7-20.8-2.7l-6 13.3c31.9 4.6 54.5 15.5 54.5 15.5-22.9-3.3-71.2-7.3-71.2-7.3 2.4-16.6 15.1-29.7 15.1-29.7h22.4c25.4-41.6 38.1-79.4 38.1-79.4 3.2 5.2 7.9 26.7 7.9 26.7.8-5.4 6.2-27.7 6.2-27.7 5.4-27.2-.3-63.4-.3-63.4 6.5 6.3 16.7 23.9 16.7 23.9 1.9-60.3-38-97.9-38-97.9 8.3-3.5 30.2 7.9 30.2 7.9-18.4-31.8-49.1-40.5-49.1-40.5 2.4-4.1 21.3-12 21.3-12-75.3-6.9-109.6 20.9-109.6 20.9-10.6 4.9 9.5-16.3 9.5-16.3-19.4 5.1-27 12.2-27 12.2 4.9-19.9 20-35.9 20-35.9-52.9 22.8-77.5 60.1-77.5 60.1C432.8 323 419 313 419 313c3 9.5 3.2 35.6 3.2 35.6.9 14.1-4.3 18.2-4.3 18.2-6.8 13.6-32.1 47.6-32.1 47.6l14.6 3.5c0 1.7-25.7 22.3-25.7 22.3-10.2 7.9-1.3 26.4-1.3 26.4 8.4 22.6 35.9 20.4 35.9 20.4l-.8-2.2c2.1 3.8 22.9 3 22.9 3 16.5-2.5 26.5-12.8 26.5-12.8l-9.7.8c-6.2 0 4.1-13.9 4.1-13.9 16.7-18.5 40.8-13.3 40.8-13.3l-55.4 56c-43.7 40.6-24.8 81-24.8 81l-40.1 3.7 3.3 16.2-32.2 5.9v-2.8c6.2-1.9 25.3-5.8 25.3-5.8 1.6-.2.7-1 .7-1L358 581.5c8.4-2.8 41.5-7.1 41.5-7.1-3.8-52.5 35.2-78.3 35.2-78.3h-.9c-12.4 4.6-21.1.8-21.1.8-2.1-1.9-14.1-1.1-14.1-1.1-28.1-4.8-35.8-31.3-35.8-31.3-4.5-12.1-2-26.9-2-26.9 10.9-3.3 21.9-14.4 21.9-14.4l-9.5-3.4 33.4-48.9-132.4 29.4s4.2 117.1 31.4 201.1c0 0-97.1 21.8-117.9 28.3l38.8 32.8-22 111s87.4-54.1 157.1-60.6c0 0 90.6 125.2 126.7 147.9 0 0 102.6-81.6 145.8-147.1 0 0 84.3 9.7 160.4 59.8L775.3 663ZM500 332c23.1-23.2 67.4-25.9 67.4-25.9-4.9 1.5-15.3 7.9-15.3 7.9 35.7-1.1 45 6 45 6-4.5-.7-12.6 3-12.6 3 41.6 28.1 44.9 69.7 44.9 69.7-4.4-4.5-13.3-7.1-13.3-7.1 14.1 30.7 13.3 67.1 13.3 67.1-2.3-4.1-7.1-7.4-7.1-7.4-.2.9-.5 1.7-.7 2.6l-.2.9c-.1.6-.3 1.2-.5 1.8-.1.3-.2.7-.3 1-.2.5-.3 1.1-.4 1.6-.1.4-.2.7-.3 1.2-.1.4-.3.9-.4 1.4-.1.4-.2.7-.4 1.1-.2.5-.3.9-.4 1.4-.1.4-.2.8-.4 1.2l-.4 1.4c-.1.4-.2.8-.3 1.1-.2.4-.3.9-.4 1.4-.1.3-.3.7-.3 1.1-.1.4-.3.9-.5 1.3l-.3 1.2c-.2.4-.3.8-.5 1.3-.1.4-.3.7-.4 1.1s-.3.8-.4 1.2c-.2.4-.2.7-.3 1.1s-.3.8-.5 1.3c-.1.3-.3.7-.4 1.1l-.4 1.2c-.1.4-.3.8-.5 1.2-.1.4-.3.7-.4 1.1s-.3.8-.5 1.2l-.3 1.2c-.2.3-.3.8-.4 1.2-.2.3-.3.7-.4 1-.2.4-.3.8-.4 1.2-.1.3-.3.7-.4 1-.1.4-.3.9-.4 1.3-.1.3-.3.5-.4.8-.1.5-.3.9-.5 1.4l-.1.4c-.8 1.9-1.6 3.8-2.3 5.7v.1c-.3.6-.4 1.2-.6 1.7-.1.2-.1.3-.2.4-.2.6-.4 1-.6 1.6l-.2.5-.7 1.5c0 .1-.1.3-.2.5-.2.5-.4.9-.6 1.4 0 .2-.1.3-.2.5-.2.4-.4.9-.6 1.4-.1.2-.2.3-.2.4-.2.5-.4 1-.6 1.4-.1.2-.1.3-.2.5-.3.4-.4.9-.6 1.4l-.2.3c-.2.5-.4 1-.6 1.4-.1.1-.1.3-.2.3-.2.5-.4 1-.7 1.4l-.1.3c-.3.5-.5 1-.8 1.4v.2c-.2.5-.5 1-.7 1.5-9.2 19.2-16.6 30.5-16.6 30.5-77.4-.4-121.3 37.1-121.3 37.1-5.6 2.2-11.9 1.1-11.9 1.1.8-6.4 3.3-12.5 6.3-18.1 5.8-10.9 13.9-20.3 22.4-29.2C504.2 506.7 541 479 551 438c1.8-7.6 3.1-15.4 3.5-23.1 0-.4-.2-9-.2-9l14.1-5.6c-29.9-15-34-36.9-31.7-53.3 0-.3.1-.7.2-1 0-.1.1-.1.1-.2 0-.3.1-.7.1-1l.1-.1c0-.3.1-.7.1-1v-.1c.2-.7.4-1.4.5-2v-.2l.2-1v-.1c.1-.3.1-.6.2-1v-.1c.2-.6.3-1.3.5-1.9v-.1c.1-.3.1-.6.3-.8v-.1c.1-.3.2-.6.3-.8v-.1c.2-.6.4-1.1.5-1.7h.1c.1-.3.2-.5.3-.8.1 0 .1-.1.1-.1.1-.3.2-.5.3-.7h.1c.1-.5.3-1 .5-1.4l.3-.6v-.1c.1-.2.2-.3.3-.5l.1-.1c.1-.4.3-.7.5-1.1.1-.2.2-.3.3-.5v-.1c.1-.1.2-.3.2-.4.2-.3.3-.5.4-.8.1-.1.1-.2.1-.2l.1-.1c0-.1 0-.2.1-.3.1-.2.1-.3.2-.4 0 0 .1-.1.1-.2h.1v-.1c-14.9-3.4-40.6 8.3-40.6 8.3-4.1-.1-3.4-1.5-3.4-1.5m-15.2 106.7h-.1c-.4.1-.6.1-1 .1 0 0-.1.1-.2.1h-.9l-.1.1c-.4 0-.7.1-1 .1 0 0-.1 0-.2.1-.3 0-.7.1-1 .1 0 0-.1 0-.2.1-.3 0-.6.1-1 .2h-.2l-1 .2s-.1 0-.2.1c-.4.1-.7.2-1.1.2h-.2c-.3.1-.7.2-.9.2h-.2c-.3.1-.7.2-1 .3h-.3c-.4.1-.7.2-1 .3h-.2c-.3.1-.7.2-1 .3h-.2c-.3.1-.7.2-1 .3h-.3c-.3.1-.7.2-1 .3h-.1c-.3.1-.7.3-1 .3h-.2c-.3.2-.7.3-1 .4l-.2.1c-.3.1-.7.3-1 .4h-.1c-.4.1-.7.3-1.1.4 0 0 0 .1-.1.1-.4.2-.7.3-1.1.4l-.2.2c-.3.1-.7.2-1 .4h-.1c-.3.2-.7.3-1 .5 0 0-.1.1-.2.1-.4.2-.7.3-1.1.5l-.2.1c-.4.2-.6.3-1 .6h-.1l-1 .6c-.1.1-.1.1-.3.1l-1 .6c-.1 0-.2.1-.2.1l-.9.6c-.1 0-.1.1-.1.1-.3.2-.6.4-1 .7l-.2.2c-.4.2-.6.5-.9.7-.1 0-.1.1-.2.1-.3.2-.6.5-.9.7-.1 0-.1.1-.1.1-.3.3-.6.5-.9.8l-.2.2c-.3.3-.6.6-.9.8 0 .1-.1.1-.1.2-.3.2-.6.5-.9.8h-.1l-.9.9-.2.2c-.3.3-.6.6-.8.9l-.1.1c-.2.3-.5.6-.7.9l-.1.1-.8 1s0 .1-.1.3c-.3.3-.5.7-.8 1h-.1c-.2.4-.4.7-.7 1 0 .1-.1.1-.1.2-.3.4-.4.8-.7 1.1-.1.1-.1.2-.2.2-.2.4-.4.8-.7 1.2v.1c-.2.4-.4.7-.6 1.1 0 .1 0 .2-.1.2l-.6 1.2c-.1.1-.1.2-.1.3-.2.5-.3.9-.6 1.3v.1c-.2.4-.3.8-.5 1.3l-.1.2c-.1.4-.3.9-.4 1.4 0 0-.1.1-.1.3-.1.5-.3.9-.5 1.4s-.3 1-.4 1.4v.3c-.2.4-.3 1-.5 1.4 0 .1 0 .2-.1.3l-.3 1.5s-12.7 4.9-20.4 1.9c0 0 3.3-2.6 7.8-7.1 0 0-8.2-1.5-10.8 3v.1h-.1l-.1.1c-.1.1-.1.1-.2.1s-.1.1-.2.1-.2.1-.2.1l-.6.3c-.3.1-.5.2-.8.3s-.6.2-.9.4c-.5.2-1 .4-1.6.5-.4.2-.7.3-1.1.4s-.8.2-1.3.3c-.4.1-.9.2-1.3.2-.7.2-1.5.2-2.1.3h-3q-.75 0-1.5-.3c-.3 0-.5-.1-.8-.1-.2-.1-.5-.1-.7-.2-.1-.1-.3-.1-.4-.1h-.1l-.3-.1s-.1 0-.1-.1c-.1 0-.3-.1-.3-.1l-.1-.1c-.1 0-.2-.1-.3-.2-.1 0-.1-.1-.2-.1s-.2 0-.3-.1h-.2l-.3-.2c-.1 0-.1-.1-.2-.1-.1-.1-.3-.2-.5-.3-.1 0-.1-.1-.2-.1l-.2-.2c0-.1-.1-.1-.2-.2-.1 0-.1-.1-.2-.1-.1-.1-.2-.1-.3-.2-.1 0-.1 0-.2-.1-.1 0-.2-.2-.2-.2l-.2-.2c-.1-.1-.1-.1-.3-.2 0 0-.1 0-.1-.1-.1-.1-.2-.1-.3-.2s-.2-.1-.2-.2l-.3-.3-.1-.1c-.1-.2-.3-.3-.4-.5 0 0-15.6-13.5-6-30.7l.5-.5c3.5-2.8 23.6-19.4 28.3-28.4l.2-.3-8.9-5.1-2.3-1.2s20.5-33.4 24.2-39.7c0 0 3.7-6 4.8-26.2 0 0 4.1 7.1 4.8 12.4 0 0 10.8-30.1 43.7-48.9 1.7-1 3.5-1.9 5.4-2.9 0 0-10 22.1-9.2 26.6 0 0 15.9-8.3 21.5-8.3 0 0-8.9 12.4-8.9 16.9l8.5 8.6s15.6-9.4 20.9-9.4c0 0-17.8 13.1-19 16.5l.4 3.7s8.9-10.5 29.7-16.5c0 0-3.3 36 6.4 46.5 0 0-11.6-.8-26.1-11.3l.8 4.5s12.1 9.8 30.3 14.9c3.7 1 7.6 1.9 11.8 2.4 0 0-32 15-40.9 30.7 0 0-5.2-24.3-8.2-29.6l-1.5 2.2s3.1 9.4 3.1 9.8 1.1 9.5 1.1 9.8c0 .2-.9 4.5-1.3 6.4.1 3.8 0 7.8-.3 11.9h-.1c-.1 0-.2 0-.3-.1H491l-.9.1h-1.2c-.3 0-.6 0-.9.1h-.1c-.4 0-.7.1-1 .1h-.1l-.9.1h-.1c-.4.9-.6 1-1 1m47.5-6.6L514.5 453l-8.8-3.7 9.1-1 .1-11.1 4.9-6.4zm-30 19s13.6 10.2 32.9 9.6c0 0-1.2 6-6.5 6.1 0 0-12.9.2-19.6-6.7l-21.6 23.3s-4.6-1.4-9.5-8.1zm-26.1 26.3s8.7 15.2 27.8 16.6c2.2.2 1.8 2.3.1 2.9-4.1 1.8-9.1 1.3-13.2 0-1.3-.4-11.8-5.9-11.4-6.3L458 512.1l-8.2-8.5zM424.7 535s7-15.6 22.6-28.9c0 0 7.5 12.7 21.7 19.1 0 0 4.6 3 5.8 5.1 0 0-11.9 3.4-22.8-9.5 0 0-11.2 7.2-21.3 31.9 0 0-11.3-8.7-6-17.7m-4.3 11.9s7 16.4 23.1 21.2c.6.1-2.1 2.8-2.3 2.9-3.2 1.2-9.9-2.2-11.5-5.1 0 0-1.2 10.7.7 18H422c-.1 0-6.9-16.8-1.6-37"/><path id="path2" d="M418.2 408s16.9-39.2 42.5-61.2c0 0-10.6 5-22.2 13.4 0 0-2.4.4.2-3.1 0 0 20.6-35.2 39.6-47.8 0 0 1.6 0 1.1-4.4-32.9 18.7-43.7 48.8-43.7 48.8-.7-5.2-4.8-12.4-4.8-12.4-1.1 20.3-4.8 26.3-4.8 26.3-3.8 6.4-24.2 39.7-24.2 39.7l2.3 1.3c3.2.3 8.6.5 14-.6" class="st0"/><path id="path3" d="M420.4 546.9s7 16.4 23.1 21.2c.6.1-2.1 2.8-2.3 2.9-3.2 1.2-9.9-2.2-11.5-5.1 0 0-1.2 10.7.7 18H422c-.1 0-6.9-16.8-1.6-37" class="st1"/><path id="path4" d="M447.3 506.2s7.5 12.6 21.7 19c0 0 4.6 3 5.8 5.1 0 0-11.9 3.3-22.8-9.5 0 0-11.2 7.2-21.3 31.9 0 0-11.4-8.6-6-17.6 0-.1 7-15.7 22.6-28.9" class="st1"/><path id="path5" d="m449.8 503.7 26.4-26.3s8.8 15.2 27.8 16.5c2.2.2 1.8 2.3.1 2.9-4.1 1.8-9.1 1.3-13.2.1-1.3-.4-11.8-5.9-11.4-6.4L458 512.1Z" class="st1"/><path id="path6" d="m477.9 475.3 24.3-24.1s13.7 10.2 32.9 9.5c0 0-1.2 6-6.5 6.1 0 0-12.9.2-19.6-6.7l-21.6 23.3s-4.6-1.4-9.5-8.1" class="st1"/><path id="polygon6" d="m514.8 448.3.2-11.1 4.9-6.3 12.4 1.1-17.8 21-8.7-3.6z" class="st1"/><path id="path7" d="M447.7 582.3s6.3 1.1 11.9-1.1c0 0 43.9-37.5 121.3-37.1 0 0 26.8-40.9 41.6-99 0 0 4.9 3.4 7.1 7.5 0 0 .8-36.4-13.3-67.1 0 0 8.9 2.6 13.3 7.1 0 0-3.4-41.6-44.9-69.7 0 0 8.1-3.7 12.6-3 0 0-9.3-7.1-45-6 0 0 10.4-6.4 15.3-7.9 0 0-44.3 2.6-67.3 25.9 0 0-.7 1.5 3.3.7 0 0 25.6-11.6 40.5-8.2 0 0-28.6 48.7 24.5 75.3l-14.1 5.7c0-.1.3 8.5.2 8.9-.4 7.8-1.7 15.6-3.5 23.2-10 41-46.8 68.7-74.7 97.5-8.6 8.8-16.6 18.3-22.4 29.2-3.1 5.7-5.7 11.8-6.4 18.1" class="st2"/><path id="path8" d="M616.1 385.6s8.9 2.6 13.3 7.1c0 0-3.4-41.6-45-69.7 0 0 8.2-3.7 12.7-3 0 0-9.3-7.1-45-6 0 0 10.5-6.4 15.3-7.9 0 0-44.3 2.7-67.3 25.9 0 0-.8 1.5 3.3.8 0 0 25.7-11.7 40.6-8.3 0 0-5.5 9.3-7.3 22 8.3-2.4 25.9-6.9 39.1-3.8 0 0-18.5 5.7-27.2 14.6 0 0 46.3-9.9 67.5 21.6l-8.4-.3s16.5 30.8 16.1 58.9l-6.7-6.4s-3.9 42.2-19.8 82.6c8.3-17.2 18-40.9 25-68.5 0 0 4.9 3.4 7.1 7.5.1 0 .9-36.4-13.3-67.1" class="st1"/><path id="path9" d="M540 394.8c-4.2 1.5-13.4 1.9-31-7.8 0 0-7.2 9.7-8 12.1l.1 1.5 1.5-2.2c3 5.3 8.2 29.6 8.2 29.6 8.9-15.8 40.9-30.7 40.9-30.7-4.1-.6-8-1.5-11.7-2.5" class="st2"/><path id="path10" d="M465.7 364c-11.8 7.3-21.5 16.2-29.8 27.5-.9 1.2-9.9 17.5-10.6 17.5l-8.4-.7c6.1 2.1 11.1 4.4 11.1 4.4l4.4-5.1c9.4 2.7 20.2-1.3 20.2-1.3-8.7.6-15.5-2-15.5-2 31.5-5.7 36.9-37.6 36.9-37.6 9.1 0 10.8 16.9 10.8 16.9 1.5-5.7 5.2-17.7 1.3-23.5-4.5-6.5-15.9 1.1-20.4 3.9" style="fill:#db800b"/><path id="path11" d="m509.8 379.9-.7-4.5c14.5 10.5 26 11.2 26 11.2-9.7-10.5-6.4-46.5-6.4-46.5-20.8 6-29.7 16.5-29.7 16.5l-.4-3.7c1.2-3.4 19-16.5 19-16.5-5.2 0-20.8 9.4-20.8 9.4l-8.5-8.6c0-4.5 8.9-16.9 8.9-16.9-5.6 0-21.5 8.3-21.5 8.3-.8-4.5 9.3-26.6 9.3-26.6-1.9 1-3.7 1.9-5.4 2.9.5 4.4-1.1 4.4-1.1 4.4-18.9 12.6-39.6 47.8-39.6 47.8-2.6 3.6-.2 3.1-.2 3.1 11.6-8.4 22.2-13.4 22.2-13.4-25.6 21.9-42.5 61.2-42.5 61.2-5.4 1-10.8.9-14.1.6l8.9 5.1-.2.3 10.4.7c-3.2 10-8.6 17.3-8.6 17.3s.1 0 .2.1c2.7 1.6 3.5 10 3.5 10 2.1-.5 6.4-5.9 6.4-5.9 1.8-4.9 9.4-15.6 9.4-15.6 1.7-3.2 1.4-3.6 1.4-3.6l-2.6-4.4c53.4 7.3 58.7-12.5 63.5-8.7 4.7 3.8 7.5 23.3 7.5 23.3s.1-.4.2-.9c.4-1.9 1.3-6.3 1.3-6.4 0-.3-1.1-9.4-1.1-9.8s-3.1-9.8-3.1-9.8l-.1-1.5c.8-2.4 8-12.1 8-12.1 17.6 9.7 26.8 9.3 31 7.8-18.4-4.8-30.5-14.6-30.5-14.6" class="st1"/><path id="path12" d="M484.8 383.6s-1.6-16.9-10.8-16.9c0 0-5.4 31.8-37 37.6 0 0 6.8 2.7 15.5 2 0 0-10.8 4.1-20.2 1.4l-4.4 5.1s-5.1-2.3-11.1-4.3l8.4.7c.6 0 9.7-16.3 10.6-17.5 8.3-11.3 18-20.1 29.8-27.5 4.5-2.8 15.8-10.3 20.4-3.9 4 5.6.3 17.6-1.2 23.3"/><path id="path13" d="M395.4 462.9s-3.6-15.2-.3-21.8c0 0 1.6 1.3 1.9 4.9 0 0 9.6-11.4 17.9-13.9-.1 0-.1-.1-.2-.1 0 0 5.4-7.3 8.6-17.3l-10.4-.7c-4.8 9-24.8 25.6-28.3 28.5-.7 4-.7 13.2 10.8 20.4" class="st0"/><path id="path14" d="M437.1 396.8s16.1-23 27.6-25.7c0 0 1 9.8-5.7 18-.1-.1-13.2 12.8-21.9 7.7" style="fill:#f4f4f4"/><path id="path15" d="M494.4 435.3c-8.3-2.7-18.6-1.2-26.9 1-10.7 2.9-20.2 8.9-28.3 16.4-1.3 1.2-2.5 2.5-3.8 3.7 0 0-3.7-3.4-4.3-15 0 0-.4.3-1 1.6-.8 2.1-1.7 6.9-1.1 17.1 0 0-14.5 11.7-32.3 17.6 8.3 2.4 16.6-2.6 16.6-2.6 2.6-4.5 10.8-3 10.8-3-4.4 4.5-7.8 7.1-7.8 7.1 7.8 3 20.4-1.8 20.4-1.8 7.7-37.8 48.5-39.8 62.4-39.3-1.1-1.4-3.3-2.3-4.7-2.8" class="st1"/><path id="path16" d="M431.1 441.4c.5 11.6 4.3 15 4.3 15 1.2-1.2 2.5-2.5 3.8-3.6-2.8-6.3-6.6-19.8 2.2-34.9 0 0-8.6 5.5-11.2 25.1.4-1.3.9-1.6.9-1.6"/><path id="path17" d="M503.9 427.3s-2.8-19.6-7.5-23.3c-4.7-3.8-10.1 16-63.5 8.7l2.5 4.4s.3.3-1.4 3.6c0 0-7.5 10.7-9.4 15.6 0 0-4.4 5.4-6.4 5.9 0 0-.7-8.4-3.4-10-8.2 2.3-17.8 13.8-17.8 13.8-.3-3.6-1.9-4.9-1.9-4.9-3.2 6.6.3 21.8.3 21.8-11.5-7.2-11.5-16.4-10.8-20.5-.3.3-.5.4-.5.4-9.6 17.3 5.9 30.8 5.9 30.8 2.2 2.2 4.5 3.4 6.8 4.1 17.8-5.9 32.2-17.6 32.2-17.6-.6-10.3.3-15 1.1-17.1 2.7-19.6 11.2-25.1 11.2-25.1-8.8 15.1-5 28.6-2.2 34.9 8.1-7.5 17.6-13.5 28.3-16.4 8.3-2.2 18.6-3.7 26.9-1 1.4.5 3.6 1.4 4.8 2.8 2.8.1 4.6.3 4.6.3.4-4 .4-8 .4-11.9-.1.4-.2.7-.2.7m-100.1 31.4s-1-5.7 2.4-16.9c0 0 6.7-.7 9.7 5.4z" class="st2"/><path id="path18" d="M406.2 441.8s6.7-.7 9.7 5.4l-12.1 11.5s-1-5.7 2.4-16.9"/><path id="path19" d="M489.3 582s-1.4-4.4 36.8-13.2v12.6z" class="st2"/><linearGradient id="SVGID_1_" x1="499.905" x2="499.905" y1="826.604" y2="368.841" gradientUnits="userSpaceOnUse"><stop id="stop19" offset="0" style="stop-color:#9c1915"/><stop id="stop20" offset="1" style="stop-color:#e10716"/></linearGradient><path id="path20" d="M395.6 705.8c8.3 13.4 39.9 61.3 95.6 112.6 0 0 66.1-45.8 113-110.6-36.2-6-73.2-8-106.3-8-45.9 0-84.1 3.8-102.3 6" style="fill:url(#SVGID_1_)"/><g id="g21"><path id="path21" d="M604.2 707.8c-46.9 64.8-113 110.7-113 110.7-55.7-51.3-87.2-99.3-95.5-112.8-7.3 1-11.3 1.5-11.3 1.5 49.1 76.5 106.8 124.9 106.8 124.9 63.8-44.6 123.4-122.5 123.4-122.5-3.5-.6-7-1.2-10.4-1.8" class="st0"/></g><g id="g41"><path id="path22" d="M558.1 437.7s-13.8 40.8-37.9 65.6C496 528 467.4 552 461.8 570c0 0 43.1-26.6 117.5-36.7 0 0 17.1-24.3 21.2-42.3 0 0-12.6 28.4-39.4 24.4-4.5-.7-7-7.3-7.8-11.1-2.6-12.4 2.8-24.9 4.4-37.1.7-5.1 1.2-10.2 1.3-15.3.1-2.6.1-5.3 0-7.9-.1-1.6-1.3-5.2-.9-6.3"/><path id="path23" d="M498.6 352.9c1.2-3.4 19-16.5 19-16.5-5.2 0-20.8 9.4-20.8 9.4l-8.5-8.6c0-4.5 8.9-16.9 8.9-16.9-5.6 0-21.5 8.3-21.5 8.3-.8-4.5 9.2-26.6 9.2-26.6-1.9.9-3.7 1.9-5.4 2.9.5 4.4-1.1 4.5-1.1 4.5-2.2 1.5-4.5 3.3-6.8 5.3-3.1 6.4-5.8 14.3-7.1 23.2 0 0 22-1.7 24.5 6.9 0 0-29.2 12.3-30.9 17.9 0 0 24.6-12.4 29.7-8.1 0 0 3.3 3 2.1 15 0 0 3.4-6.1 9.4-13.1l-.3.3z" class="st2"/><path id="path24" d="M509.6 375.8c14.2 10.2 25.5 10.9 25.5 10.9-9.7-10.5-6.4-46.5-6.4-46.5-4.8 1.4-8.8 3-12.4 4.6-2.9 3.5-12.9 13.6-13.9 14.9 0 0 6.3 9.5 7.2 16.1" class="st2"/><path id="path25" d="m436.1 685.8 7.8-30.3 7.2 29.7c9.1-.5 18.3-.9 27.6-1.1l17.7-84.1c-8.2.1-16.4.1-24.5.3l-9.5 46.2-11.4-45.6c-4.8.2-9.7.5-14.5.7l-11.2 47.5L416 603c-8.2.6-16.3 1.2-24.4 2l18.4 83.5c3.2-.4 6.6-.6 9.8-1z" class="st0"/><path id="path26" d="M556.7 665.2c-7.1-.3-28.3-.8-28.3-.8v-13.1h11.8l5.6-19.9h-17.4l.7-12.8 22-.3 5.4-17.1c-17.1-.8-34.4-1.3-51.9-1.4l.3 83.8c15.7.1 31.1.6 46.3 1.5z" class="st0"/><path id="path27" d="M588.3 688v-34.1c1.1 2.3 14.8 2.3 14.8 2.3v33c5.2 0 22.3 3.7 22.3 3.7v-86.1c-7.4-.9-15-1.6-22.7-2.3l-.7 31.1-13-1.1-.3-31.2c-7.9-.6-15.8-1.2-23.8-1.6l1.1 84.1c4 .3 22.3 2.2 22.3 2.2" class="st0"/><path id="path28" d="M694.2 700.8v-76.5l-8.2-9c-16.4-2.8-33.2-5.3-50.6-7.4V694s3.7.8 9 2.2c14.7 2.7 29 5.7 42.8 9zm-22.7-19.1s-10-3.4-13.4-3.4v-48.4l13.4 2.6z" class="st0"/><path id="path29" d="m737.4 661.8 5.2 34.1-8.2-2.6 5.6 24.4 6.7 1.8 1.2 4.1c8.2 3 16.1 6.1 23.9 9.4l-13.2-76.8 21.7-19-5.1-1.5-54.6-13.7s-17.3 73.4-19.5 86.8c8.3 2.2 16.3 4.6 24.3 7.1z" class="st0"/><path id="path30" d="M263.6 661.7c0 2.7 6 30.4 6 30.4l-8.6 3 5.9 19.6 6.7-2.2 1.1 3.3c7.6-2.4 15.5-4.7 23.5-6.9l-19.3-86.3-49.1 11.6c-3 .9-6.1 1.7-9 2.6l21.6 19.4-13.8 76.6c7.8-3.3 15.8-6.5 24.1-9.5z" class="st0"/><path id="path31" d="M351.6 677.2 330 682l-.8-69.3c-7.7 1.2-15.2 2.5-22.7 3.9v90.2c12.5-3.3 25.5-6.2 38.8-8.7z" class="st0"/><path id="path32" d="M460.6 645.1c-11.1.5-22.3 1.4-33.3 2.4l-2.1 8.8-1.7-8.5c-6.7.6-13.6 1.4-20.3 2.2l8.1 36.7c2.8-.3 5.7-.6 8.5-.8l15.2-1.6 9.1-35.3 8.4 34.4c8.3-.5 16.8-.8 25.1-1l8.1-38.2c-7 .2-14.1.4-21.1.7l-1.8 8.5z" class="st6"/><path id="path33" d="M526.8 665.9v-16.2H539l1.5-5c-11.3-.5-22.8-.7-34.2-.8l.1 38.1c14.6.1 29.2.6 43.6 1.4l4.6-16.9c-8.2-.3-26.1-.6-26.3-.6z" class="st6"/><path id="path34" d="M586.7 686.3V648c-6.6-.6-13.2-1.2-19.7-1.7l.5 38c4.6.5 15 1.6 19.2 2" class="st6"/><path id="path35" d="M603.1 654.6h1.6v33c5.1.4 15 2.5 19.2 3.3v-38.3c-12-1.8-24.3-3.3-36.8-4.6l2.5 5c1.2 1 7.8 1.6 13.5 1.6" class="st6"/><path id="path36" d="M658.2 679.9h-1.6v-21.6c-6.4-1.3-13-2.5-19.6-3.6v38.1c1.5.3 4.3 1 7.8 1.9 14.3 2.5 28.5 5.6 42.2 8.9l5.6-3.6v-33.5c-6.4-1.6-13-3.2-19.6-4.7v22.1l-2.1-.7c-2.6-1-10.2-3.3-12.7-3.3" class="st6"/><path id="path37" d="M710.8 671.3c-4.2 18.6-6.9 30.8-7.9 36.4 7.2 1.9 14.3 4 21.3 6.2l8-36c-6.9-2.3-14.1-4.5-21.4-6.6" class="st6"/><path id="path38" d="M762.7 689.2c-6.7-2.8-13.7-5.4-20.8-7.9l2.6 16.9-8-2.6 4.7 20.8 6.7 1.9 1.2 4.1c7 2.6 14 5.3 20.6 8.1z" class="st6"/><path id="path39" d="m237.3 692.6-6.8 37.7q10.05-4.2 20.7-8.1l6.8-37.9c-7.1 2.7-14 5.4-20.7 8.3" class="st6"/><path id="path40" d="M268.7 680.4c1.3 6.1 2.4 11.3 2.4 11.4l.3 1.3-8.5 2.9 5.1 16.7 6.7-2.2 1.2 3.3c6.8-2.1 13.7-4.1 20.6-6l-7.7-34c-6.9 2.2-13.6 4.3-20.1 6.6" class="st6"/><path id="path41" d="M328.3 663.3c-6.8 1.6-13.6 3.3-20.1 5.1v36.4c11.7-2.9 23.8-5.6 36-8l5.2-17.4-20.9 4.8z" class="st6"/></g><linearGradient id="SVGID_00000078009516879999918160000008574139248617096625_" x1="643.137" x2="643.137" y1="826.63" y2="368.838" gradientUnits="userSpaceOnUse"><stop id="stop41" offset="0" style="stop-color:#9c1915"/><stop id="stop42" offset="1" style="stop-color:#e10716"/></linearGradient><path id="path42" d="M687.6 386.8c-4.9 15.5 7.3 22.9 7.3 22.9 3.8-1.1 9.7-9 9.7-9-5.5 30-30.5 40.5-30.5 40.5-3.5 0-8.4 4.1-8.4 4.1-7 7.6-13.5 15.5-13.5 15.5-2.4 46.2-22.4 59.6-22.4 59.6.3-7.9-3-18.3-3-18.3-4.4 16.9-31.6 61.5-31.6 61.5-3.5-1.4-20.8-2.7-20.8-2.7l-6 13.3c24.9 3.7 44.2 11.1 51.4 14.1 16.9 2.2 33.5 5 49.6 8.1h.1c5.7-14.5 47.2-123.5 48.1-236.6l-13.2-.5c-8.3 18.8-16.8 27.5-16.8 27.5m17-27.6v-.1z" style="fill:url(#SVGID_00000078009516879999918160000008574139248617096625_)"/><g id="g44"><path id="path43" d="m312 430.2 65.3-16.1 7.4-10.8 2-2.9-86.4 19.2s3.5 129 27.5 178.1c3-.5 6-1.2 9-1.7-3.4-11.5-27.6-95.2-24.8-165.8" class="st0"/><path id="path44" d="M708.9 348.3c-.8 2.4-1.8 4.8-2.7 7 0 .1-.1.1-.1.2l-.5 1c0 .1-.1.2-.2.3l-.3.9c-.1.1-.1.2-.2.3-.1.3-.3.6-.5 1v.2l13.2.5c-.7 113.3-42.3 222.3-47.9 236.7l7.8 1.6c53.1-120.2 53.1-251.6 53.1-251.6z" class="st0"/></g><linearGradient id="SVGID_00000098190485097031861360000010469075333618445210_" x1="570.13" x2="570.13" y1="773.797" y2="75.178" gradientUnits="userSpaceOnUse"><stop id="stop44" offset="0" style="stop-color:#ffdc44"/><stop id="stop45" offset=".278" style="stop-color:#ffda43"/><stop id="stop46" offset=".378" style="stop-color:#fed341"/><stop id="stop47" offset=".45" style="stop-color:#fcc83e"/><stop id="stop48" offset=".507" style="stop-color:#f9b739"/><stop id="stop49" offset=".557" style="stop-color:#f5a133"/><stop id="stop50" offset=".6" style="stop-color:#f1852b"/><stop id="stop51" offset=".639" style="stop-color:#eb6621"/><stop id="stop52" offset=".654" style="stop-color:#e9571d"/><stop id="stop53" offset=".838" style="stop-color:#e42620"/><stop id="stop54" offset=".884" style="stop-color:#eb5329"/><stop id="stop55" offset=".986" style="stop-color:#fcc43e"/><stop id="stop56" offset="1" style="stop-color:#fed341"/><stop id="stop57" offset="1" style="stop-color:#e42620"/></linearGradient><path id="path57" d="M763.9 177.9s1.7 14.9 18.4 16.3c0 0 20.1-4.1 12.7-13.1 0 0-38.6-54.6-105.9-14.1-4.9-1.6-10.9-3.8-11.4-4.8 0 0 14.4-15 40.9-16.7 0 0-10.5-4.7-26.9-4.7-9.7 0-21.6 1.7-34.6 7 0 0-3.1 1.4 0 5.9 0 0 .1.1.2.3l.1.1c.1.2.3.4.4.6l.3.3c.2.3.4.5.6.9.1.2.3.3.4.5.3.3.5.6.8 1l.6.6c.3.4.6.7 1 1.1.2.2.4.5.7.7l1.2 1.2c.3.2.5.5.8.7.4.4.9.8 1.3 1.2.3.3.6.5.9.8.5.4.9.8 1.4 1.1.4.3.7.5 1.1.8.5.3 1 .7 1.5 1 .4.3.9.5 1.3.8l1.5.9c.5.2 1 .5 1.5.7l1.5.6 1.8.6c.4.1.9.3 1.4.4.7.2 1.4.3 2.1.4.4.1.8.1 1.1.2.8.1 1.7.1 2.6.1h.8c1 0 2.1-.1 3.1-.3.1 0 .2 0 .3-.1 1.2-.2 2.4-.5 3.6-1 10.3 5.8 34 20.6 42.3 40.2 0 0-10 5.5-32.8 5.5 0 0-24.6 1.5-28.7-9.4 0 0-9.5-12.1-3.5-26.2 0 0-31.9-23.5-68.8-7.9 0 0-28.8 7.6-45.3 39.2 0 0 28 1.4 23.7 26.8 0 0-1.5 29.7-29.1 42.1 0 0 6.4-17.9 0-25 0 0-8.3-13.6-28-11.3 0 0 13.1-16.7 30-13.9 0 0 5.2.4 4.2 5.6 0 0 .6 4.4-7 5.3l-5.4.6s1.9 8.3 12.6 9.4c0 0 12.3-.2 15-13.6 0 0 1-15.4-24.1-14.8 0 0-44.7-1.3-74.3 49.6 0 0 26.6-13.3 37-8.7 0 0 1.3 3.3-1.4 4.6 0 0-58.5 34.8-68 56.3 0 0-1.4 1-3.3-1.7 0 0-19.8-24.2-30-21.5 0 0 7.5 32.8 8.9 51.8 0 0-1 6.9-4.3 10l-39 57.2 9.5 3.2s-10.9 11.1-21.9 14.5c0 0-2.5 14.8 2 26.9 0 0 7.7 26.5 35.8 31.3 0 0 12-.8 14.1 1.1 0 0 8.7 3.8 21.1-.9h.9s-39 25.8-35.3 78.4c0 0-33 4.2-41.4 7l11.6 20.7s.8.8-.8 1c0 0-19 3.9-25.2 5.8v2.8l32.1-5.9-3.3-16.2 40.1-3.7s-18.9-40.5 24.8-81l55.4-56s-24-5.2-40.8 13.3c0 0-10.3 13.8-4.1 13.8l9.7-.7s-10 10.3-26.5 12.7c0 0-20.7.8-22.9-3l.8 2.2s-27.6 2.1-35.9-20.4c0 0-8.9-18.5 1.3-26.4 0 0 25.7-20.7 25.7-22.3l-14.6-3.6s25.4-34 32.1-47.6c0 0 5.1-4.1 4.3-18.3 0 0-.3-26.1-3.2-35.6 0 0 13.8 10 18.6 18.2 0 0 24.6-37.3 77.5-60.1 0 0-15.2 16.1-20 35.9 0 0 7.6-7.1 27-12.1 0 0-19.9 21.1-9.4 16.3 0 0 34.3-27.7 109.6-20.9 0 0-18.9 7.9-21.3 12 0 0 30.8 8.7 49.1 40.5 0 0-21.9-11.4-30.2-7.9 0 0 39.9 37.6 38.1 98 0 0-10.3-17.7-16.7-23.9 0 0 5.7 36.2.3 63.4 0 0-5.5 22.3-6.3 27.7 0 0-4.6-21.5-7.8-26.7 0 0-12.7 37.9-38.1 79.5h-22.3s-12.7 13-15.1 29.6c0 0 48.3 4.1 71.3 7.4 0 0-22.7-10.9-54.6-15.5l6-13.3s17.3 1.4 20.8 2.7c0 0 27.2-44.6 31.6-61.5 0 0 3.2 10.4 3 18.3 0 0 20-13.4 22.4-59.6 0 0 6.4-7.9 13.5-15.5 0 0 4.9-4.1 8.4-4.1 0 0 25-10.5 30.5-40.5 0 0-6 7.9-9.7 9 0 0-12.1-7.4-7.3-22.9 0 0 12.4-12.5 22.1-40.5 0 0 3.5-10.9 4.3-28.8 0 0 .6-3.2 2.2-5.7 0 0 7.3-10.7 7-20.9 0 .7-1 1.3-2.5 1.9 1.7-1.9 4.3-3.6 5.7-5.6 3.6-5.2 5.7-11.2 2.9-17.3-1.1-2.5-3.3-3.3-5.7-3.3-2.6 0-5.4 1-7.2 2.1-6.1 3.8-9.3 11.4-11.4 17.8 1.3-4.1 8.9-4.8 12.4-4.5 6.5.8 5.1 6.3 2.9 10.9-3 1-7.3 1.5-8.3 1.4-5.6-.8-10.7-6.6-13.4-11.3-3.1-5.2-3.3-11.6-2.7-17.5 0 0 23-35.6 92.3-11.4 0 0 13.3-20.1 2.7-36.2 0 0-14.1-20.9-33.7-35.1 0 0-8.2-6.6-6.5-10.1 0 0 14.6-4.3 24.9 6.8-.4-.4-5.6 2.4-12.1-2m-143.2 43.2c5.5 17.7 5.2 38.3-10.5 50.8 2.1-1.7-3.7-19.3-4.6-22.1-3.5-9.8-5.8-21.7-1.6-31.6 4.4-10.4 15.6-7.9 24.7-6.4-5.1 1.5-9.8 3.3-8 9.3" style="fill:url(#SVGID_00000098190485097031861360000010469075333618445210_)"/><linearGradient id="SVGID_00000152962443506179407250000001175892727918790316_" x1="373.292" x2="373.292" y1="826.622" y2="368.831" gradientUnits="userSpaceOnUse"><stop id="stop58" offset="0" style="stop-color:#9c1915"/><stop id="stop59" offset="1" style="stop-color:#e10716"/></linearGradient><path id="path59" d="M312.1 430.2c-2.8 70.5 21.3 154.3 24.7 165.7l6.1 13.2s.3 0 .8-.2c2.9-.9 8.8-2.2 14.1-3.4 4.7-1.1 9-2.1 10.2-2.1.5-.2.8-.2.8-.2.4-.1.7-.1.8-.2 0-.1.2-.1.2-.2.1-.1 0-.3-.1-.4v-.1l-6.2-10.9-5.4-9.8c8.4-2.8 41.4-7 41.4-7-3.7-52.6 35.3-78.4 35.3-78.4h-.9c-12.4 4.6-21.1.9-21.1.9-2.1-1.9-14.1-1.1-14.1-1.1-28.1-4.8-35.8-31.3-35.8-31.3-4.5-12.1-2-26.9-2-26.9 10.9-3.3 21.9-14.5 21.9-14.5l-9.5-3.2 4-5.9z" style="fill:url(#SVGID_00000152962443506179407250000001175892727918790316_)"/><linearGradient id="SVGID_00000144328952551423681040000001979374902699180468_" x1="628.016" x2="772.767" y1="205.297" y2="205.297" gradientUnits="userSpaceOnUse"><stop id="stop60" offset="0" style="stop-color:#e9571d"/><stop id="stop61" offset=".461" style="stop-color:#ffdc44"/><stop id="stop62" offset="1" style="stop-color:#ffdc44"/></linearGradient><path id="path62" d="M711.7 169.4c14-.6 25.7 9.2 34 19.4 5 6.1 23.4 30.8 5 32.4-26.9 2.5-52.3.7-79.1-2.4-10.1-1.2-38-5.5-43 7.5-2.5 6.7 4 14.7 7.5 19.8-1.1-1.6 10.1-10.7 11.6-11.7 4.6-2.9 9.8-4.5 15-5.8 13.6-3.3 27.6-4.3 41.5-4.2 14.7.1 29.8-.2 44.4 1.9 4.3.6 8.5 1.8 12.9 1.9 4.6.1 10.7.4 11.3-5.6.7-7.5-7.2-14.3-11-20.1-5.4-8.1-12.3-14.7-19.4-21.4-3.1-3-6.4-7.4-10.4-9.1.3-4.3 8.3-6 11.8-6.7-2.5-.5-5.2-.8-7.8-.8-8.3 0-16.7 2.4-24.3 4.9" style="fill:url(#SVGID_00000144328952551423681040000001979374902699180468_)"/><linearGradient id="SVGID_00000157307333916394372500000015547860054934772642_" x1="627.341" x2="656.19" y1="215.526" y2="215.526" gradientUnits="userSpaceOnUse"><stop id="stop63" offset="0" style="stop-color:#e9571d"/><stop id="stop64" offset=".461" style="stop-color:#ffdc44"/><stop id="stop65" offset="1" style="stop-color:#ffdc44"/></linearGradient><path id="path65" d="M627.3 221c2.3-1.8 14.4-11.6 28.8-7.7 0 0-8.1-3.2-15.8-3.2-6.3 0-12.5 2.3-13 10.9" style="fill:url(#SVGID_00000157307333916394372500000015547860054934772642_)"/><linearGradient id="SVGID_00000114758584273248577190000005927203481519712906_" x1="503.029" x2="547.245" y1="266.438" y2="266.438" gradientUnits="userSpaceOnUse"><stop id="stop66" offset="0" style="stop-color:#ffdc44"/><stop id="stop67" offset="1" style="stop-color:#fbbd0b"/></linearGradient><path id="path67" d="M503 258.1c5.3-2.6 8.7 1.5 13.1 3.7 2.7 1.4 8.7.1 8.7 4.4 0 4.6-7 6.4-9.9 8.4-4 2.8-6 7.2-7.9 11.5 2.6-2.8 5.7-4.6 9.1-6.2 5.1-2.4 7.4-5.1 11.1-7.7 6-4.3 12.9-10.5 20.1-4-1.7-1.4-2.8-4.1-4.6-5.7s-3.9-3-6-4.1c-3.7-1.9-7.8-3-11.9-3.8-2.4-.5-8-.5-9.3-2.9-1.6-2.9 4.5-4.7 6.5-5-7.8 1.4-15.8 3.3-19 11.4" style="fill:url(#SVGID_00000114758584273248577190000005927203481519712906_)"/><linearGradient id="SVGID_00000168807064768363076020000005057386775020160953_" x1="725.266" x2="567.285" y1="164.87" y2="439.928" gradientUnits="userSpaceOnUse"><stop id="stop68" offset="0" style="stop-color:#ffdc44"/><stop id="stop69" offset=".036" style="stop-color:#fed843"/><stop id="stop70" offset=".076" style="stop-color:#fcca3f"/><stop id="stop71" offset=".117" style="stop-color:#f8b538"/><stop id="stop72" offset=".159" style="stop-color:#f39630"/><stop id="stop73" offset=".201" style="stop-color:#ed6f24"/><stop id="stop74" offset=".224" style="stop-color:#e9571d"/><stop id="stop75" offset=".442" style="stop-color:#f9b539"/><stop id="stop76" offset=".815" style="stop-color:#fdd241"/></linearGradient><path id="path76" d="M674.6 438.1c-.1-.1-.2-.3-.4-.4-1.3-.7-2.4-2.9-3.2-4-1.1-1.4-2.1-2.8-3.1-4.3-6.8 5-12.4 9.4-24.2 11.6-.3-17.6-2.6-32.2-2.6-32.2 6.4 6.2 16.7 23.9 16.7 23.9.3-11.8-.9-22.7-3.1-32.6 3-.1 5 0 5 0 .4 0 1.2-.2 2.3-.5-.1-1.6-.2-3.1-.2-4.7 0-1.9.4-3.9 0-5.8-.3-1.7-1.4-3-2-4.6-1.6-3.9-2.6-8.1-3.8-12.2-.4-1.1-4.8-12.7-4.6-12.8 3.3-2.3 6.3-5 9.1-7.8.8-.8 3.6-3 1.3-3.3s-3.8-.9-5.5-2.6c-2.9-3-5-6.5-7.8-9.5-1.9-2-4.1-3.6-6.4-5.2l3.9-4.5c4.3-5.4 8.3-11 11.9-17 4.1-6.9 6.8-14.4 8.6-22.1-.1 0-.2.1-.2.1-.4-.1-1.6.7-2 .9-1.5.7-2.9 1.3-4.4 1.9-10.4 4.5-21 8.5-32 11.4-7.4 1.9-15.5-1.6-22.7-3 1.5-.9 3-1.8 4.6-2.7 4.1-2.2 8.3-4.2 12.6-5.9-4.2-.3-8.5-.6-12.7-.8-7-.3-14-.3-20.9 0-6.1.3-12.1.9-18.2 1.6-.4-.9-.8-1.7-1.2-2.6s-1.2-2.4-1-3.4c.2-.7.9-1.1 1.4-1.6 2-2.1 3-5.2 4.5-7.7 2.1-3.6 4.2-7 5.7-10.8 1.8-4.5 3.3-9.2 4.3-13.9 1.2-5.3 1.3-10.7.6-16.1-.5-3.6-1.4-7.1-2.4-10.6-.4-1.5-.3-3.1-.3-4.7 0-2.7.4-5.1 1.6-7.5 1.6-3.1 3.6-6.1 6.3-8.2 16.8-13.2 56.9-22.1 70.8-.1 2.1 3.3 2.6 7.2 3 11.1-.1-.1-.1-.3-.2-.3-.5-.4-.8-1.2-1.3-1.7-.7-.9-1.6-1.8-2.4-2.6-2.8-2.8-6-5.3-9.3-7.5-4.2-2.8-8.9-5-13.8-6.1-19.4-4.1-36 13.3-39.7 30.9-.8 3.8-1.4 7.7-1.5 11.7-.3 7.4.6 14.8 2.9 21.8 1.8 5.9 4.6 11.6 8.2 16.5 2.1 2.8 4.6 5.6 7.6 7.5 2 1.3 4.4 2.2 6.9 2 3.4-.3 6-2.7 7.8-5.4 3-4.7 4.2-10.5 4.7-16 .6-6 .4-12.1-.3-18.1-.5-3.9-1.3-7.8-2.3-11.6l.9 1.5c3.2 5.7 5.7 11.8 6.1 18.3.1-.2.1-.4.2-.6.6-1.3 1-2.7 1.6-4.1 1.2-2.6 2.6-5.2 4.2-7.5 2.1-3 4.7-5.7 7.8-7.6 5.7-3.4 12.9-3.3 19.3-3.8 8.1-.6 16.3-1.1 24.4-1.3 17-.4 34.2.2 51 2.9 9.9 1.6 21.7 5.3 29.3-3.7 6.3-7.4-6.5-20.9-9.8-27.1 8.4 7.9 20.9 17.1 23.1 29.2 1.9 10.4-5.8 12.8-14.6 12-11.5-1.1-22.5-4.2-34.3-3.8-3.6.1-7.2.5-10.7 1.1-12 2-23.3 5.9-34.8 9.3-5.7 1.7-10.2 5.2-15.5 7.8-5.2 2.6-10 5.8-14.6 9.3-4.5 3.5-8.7 7.5-12.9 11.4 1-.2 1.9-.4 2.8-.6 4.9-1.2 9.8-2.7 14.6-4.5 6.4-2.4 12.3-5.9 18-9.6 0 .1-.1.3-.1.3 0 .5-.5 1.4-.6 2-.4 1.2-.8 2.5-1.2 3.8-1.5 4.5-3.1 9-4.7 13.4-2.2 5.9-4.4 11.8-6.8 17.6-2.6 6.3-5.3 12.5-8.3 18.5-2.8 5.6-6 11.1-9.3 16.5 0 0 .1.1.2.1.4.7 2.4.5 3 .4 3.8-.9 6.5-5.3 8.5-8.3 4.6-7.1 7.9-14.9 11.1-22.7 2.8-6.7 5.3-13.5 7.7-20.4.9-2.6 1.7-5.1 2.5-7.8.1 1 .4 2.1.7 3.1 1.4 5 3.7 9.9 6.9 14.1 4.7 6.2 11.1 8.5 18.4 10.3 0 .1-.1.2-.1.3.1 1-1.2 3-1.6 3.8-1.3 2.9-2.8 5.8-4.2 8.7-2.2 4.2-4.5 8.3-7.1 12.2-3 4.5-6.5 8.6-10.3 12.5-4.2 4.2-8.8 7.9-13.3 11.6.9-.3 1.9-.7 2.8-1 4.5-1.7 8.8-3.7 12.8-6.2 4.5-2.8 7.9-6 10.3-10.7-.1.3-.2.5-.3.8-.7 1.9-1.1 3.8-1.6 5.8-1.1 4.1-2.4 8.2-4 12.2-2.2 5.3-4.8 10.3-7.8 15.1-2.5 3.9-5.2 7.6-8 11.2-1.7 2.1-3.4 4.2-5.2 6.3s-3.6 5.7-6 7.2c2.2-1.4 4.3-3 5.7-4.9 0 0 4.2-1.3 6-.8 0 0-4.6 12.6 8 22.6 0 0 3.8 3.1 4.9-.3-.3-.1 1.3 10-21.7 26.2" style="fill:url(#SVGID_00000168807064768363076020000005057386775020160953_)"/><linearGradient id="SVGID_00000183242949186179078610000003949759805833409973_" x1="499.578" x2="558.995" y1="284.21" y2="284.21" gradientUnits="userSpaceOnUse"><stop id="stop77" offset="0" style="stop-color:#e9571d"/><stop id="stop78" offset=".154" style="stop-color:#ea621e"/><stop id="stop79" offset=".655" style="stop-color:#ffdc44"/><stop id="stop80" offset="1" style="stop-color:#ffdc44"/></linearGradient><path id="path80" d="M538.5 264.7c-2.7.6-4.4 2.6-6.7 4.1-2.1 1.5-4.1 3-6.3 4.4-3.7 2.4-6.4 5.4-9.7 6.8-3.8 1.6-7.4 4.1-9.4 6.8-1.7 2.4.1 4.9-1.1 7.5-.8 1.6-2.1 2.8-3.1 4.1-1.2 1.6-2 3.5-2.7 5.4 3.7-1.7 7.1-3.8 10.9-5.3l5.7-2.1c1.8-.6 3.8-1.6 5.8-1.6-1.5 1.6-3.2 3-4.4 4.8 2.9.2 5.8 0 8.6.5 2.6.4 4.7 1 7.3 0 5.2-2.2 10.6-3.7 16-5.2 3.1-.9 6.3-1.5 9.4-2.2-4.4-1.6-9.4-2.5-13.5-4.7 1.4-3.3 2.9-6.7 3.4-10.2.5-3.3.3-7.6-2.1-10.2-1.9-2-4.6-3.5-7.4-3.2-.1.2-.4.2-.7.3" style="fill:url(#SVGID_00000183242949186179078610000003949759805833409973_)"/><linearGradient id="SVGID_00000003823324792644307280000014966000681239082391_" x1="571.907" x2="660.065" y1="185.727" y2="185.727" gradientUnits="userSpaceOnUse"><stop id="stop81" offset="0" style="stop-color:#e9571d"/><stop id="stop82" offset=".461" style="stop-color:#ffdc44"/><stop id="stop83" offset="1" style="stop-color:#ffdc44"/></linearGradient><path id="path83" d="M585.4 185.9c-5.2 4.1-9.8 8.7-13.4 14.1 3.3-2.7 7.6-1 11.5-1 4 0 7.6-1.7 11-3.6 9.3-5.4 20-7.7 30.8-8.6 9.8-.8 21.7 1.6 31.2-1.1 5-1.4 4.8-6.1 1.2-8.5-7.3-4.9-21.7-5.7-30.3-5.7-19 0-32.9 7.2-42 14.4" style="fill:url(#SVGID_00000003823324792644307280000014966000681239082391_)"/><linearGradient id="SVGID_00000060750894223853501640000015711745513272007067_" x1="608.432" x2="676.079" y1="316.567" y2="316.567" gradientTransform="rotate(-2.613 389.573 472.005)" gradientUnits="userSpaceOnUse"><stop id="stop84" offset="0" style="stop-color:#e9571d"/><stop id="stop85" offset=".721" style="stop-color:#ffdc44"/><stop id="stop86" offset="1" style="stop-color:#ffdc44"/></linearGradient><path id="path86" d="M600.9 302.2s22.9 6.5 41.1 28.9c7 4.3 16.6-18.1 19.5-24.1 4.3-9.2 7.4-18.7 5.8-30-.6 3.1-6.8 6.8-9.2 8.3-4.1 2.6-8.7 4.4-13.3 5.8-8.7 2.8-17.9 4.1-27 5.6-3.5.6-7-.5-10.5.7-2.5 1.4-4.6 2.8-5.7 4-.2.2-.5.5-.7.8" style="fill:url(#SVGID_00000060750894223853501640000015711745513272007067_)"/><linearGradient id="SVGID_00000073694927258765177310000013333093882116414081_" x1="620.86" x2="671.505" y1="264.834" y2="264.834" gradientTransform="matrix(1.1355 -.0353 .0311 .9995 -67.074 14.095)" gradientUnits="userSpaceOnUse"><stop id="stop87" offset="0" style="stop-color:#ffdc44"/><stop id="stop88" offset="1" style="stop-color:#fbbd0b"/></linearGradient><path id="path88" d="M646.6 271.8s4-36.9 56.6-30.6c0 .1-45.8 8.8-56.6 30.6" style="fill:url(#SVGID_00000073694927258765177310000013333093882116414081_)"/><path id="path89" d="M528.8 714.5h-21.4c-4.2 0-7.5 3.4-7.5 7.5v43.3c0 4.2 3.4 7.5 7.5 7.5h21.4c4.2 0 7.5-3.4 7.5-7.5V750H522v5.7c0 1.4-.3 2.5-1.7 2.5H517c-1.4 0-2-1.1-2-2.5V729c0-1.4.5-2.5 1.8-2.5h3.5c1.4 0 1.8 1.1 1.8 2.5v9.1l14.4-9.5V722c-.1-4.2-3.5-7.5-7.7-7.5" class="st0"/><path id="polygon89" d="M489.4 736H478v-7.5h12.5l4.2-14h-31.1v58.4h15.1v-22.3h6.1z" class="st0"/></g></svg>