<svg xmlns="http://www.w3.org/2000/svg" viewBox="0.57 0.19 374.4 373.89"><defs><clipPath id="a"><path d="M0 0h375v374.398H0Zm0 0"/></clipPath></defs><path d="M4.648 81.063Q42.188 43.15 79.734 5.246c35.164 25.387 70.293 29.79 107.305-1.41 37.406 28.809 73.867 28.453 108.2.68 25.109 25.515 51.718 51.406 76.827 76.922-11.625 20.175-25.496 39.734-24.902 63.984 1.625 19.07 9.164 41.527 17.797 64.601 10.726 28.391 8.473 59.473-9.75 93.86-18.363 33.238-50.664 52.074-98.977 54.363-33.933-1.031-56.43 3.121-67.398 12.074-15.766-11.28-30.637-10.148-69.367-12.324-45.348-1.86-75.438-18.98-94.832-46.8C7.152 283.69 1.363 254.663 6.84 224.163c10.37-32.441 30.543-66.41 17.797-99.71-4.418-18.208-12.457-30.376-19.989-43.391m0 0" style="stroke:none;fill-rule:evenodd;fill:#fff;fill-opacity:1"/><path d="M187.957 284.066h3.313c.472 0 .855.383.855.852v15.777a.85.85 0 0 1-.855.848h-3.313a.85.85 0 0 1-.852-.848v-15.777c0-.469.383-.852.852-.852m86.996 0h3.313c.468 0 .851.383.851.852v15.777a.85.85 0 0 1-.851.848h-3.313a.85.85 0 0 1-.855-.848v-15.777c0-.469.382-.852.855-.852m-57.14 4.27h-6.079c-2 0-3.742 1.832-3.742 3.879 0 2.55-.351 3.324 2.387 4.93 2.77 1.277 6.105 2.054 6.156 3.125.047 1.054-.375 1.226-1.367 1.273h-6.074c-2.184 0-3.39-.973-3.39-3.52v-2.464a.703.703 0 0 0-.704-.704h-3.832a.703.703 0 0 0-.703.704v2.82q0 .095.023.183c.207 3.762 1.707 5.934 4.82 5.934h12.372c2.898 0 3.875-2.125 3.875-4.45 0-2.034-.164-3.01-2.73-4.452-1.88-.778-3.774-1.309-5.653-2.086-.98-.352-.215-2 1.547-2h5.293c.414 0 .75-.34.75-.75v-1.672a.75.75 0 0 0-.75-.75Zm6.285 10.082h5.68c2.011 0 2.507-1.938 2.507-3.563 0-1.96-1.097-3.347-3.3-3.347h-4.934a.705.705 0 0 1-.703-.703v-1.766c0-.383.316-.703.703-.703h7.785c3.543 0 5.601 2.098 5.601 4.91v3.57c0 2.79-2.007 4.727-5.152 4.727h-8.187a.747.747 0 0 1-.75-.746v-1.633c0-.406.336-.746.75-.746m42.468-14.352h3.649c.45 0 .816.368.816.817v11.781c0 3.055-2.226 4.879-5.68 4.879h-7.218c-.977-.11-1.88-.3-2.688-.586-.82.332-1.644.461-2.465.586h-6.957c-3.605 0-6.253-2.055-6.253-4.684v-11.976c0-.45.37-.817.82-.817h3.648c.45 0 .817.368.817.817v10.394c0 1.278.722 3.141 2.906 3.141h2.113c2.332 0 2.906-1.902 2.906-3.055v-6.25c0-.425.348-.777.774-.777h3.605c.426 0 .774.351.774.777v6.516c0 1.332 1.254 2.789 2.953 2.789h1.973c1.168 0 2.691-1.027 2.691-2.379v-11.156c0-.45.367-.817.816-.817m-12.707 0h3.258c.485 0 .883.399.883.883v.95a.884.884 0 0 1-.883.878h-3.258a.88.88 0 0 1-.879-.879v-.949c0-.484.395-.883.88-.883m-147.195 4.27h-6.074c-2.004 0-3.746 1.832-3.746 3.879 0 2.55-.348 3.324 2.386 4.93 2.77 1.277 6.11 2.054 6.157 3.125.047 1.054-.375 1.226-1.364 1.273h-6.078c-2.183 0-3.39-.973-3.39-3.52v-2.464a.703.703 0 0 0-.703-.704H90.02a.703.703 0 0 0-.704.704v2.82q0 .095.024.183c.207 3.762 1.707 5.934 4.82 5.934h12.371c2.903 0 3.875-2.125 3.875-4.45 0-2.034-.164-3.01-2.73-4.452-1.88-.778-3.774-1.309-5.653-2.086-.98-.352-.21-2 1.547-2h5.297c.41 0 .746-.34.746-.75v-1.672a.75.75 0 0 0-.746-.75Zm72.871-4.27h3.438a.79.79 0 0 1 .789.793v11.493c0 3.187-2.012 5.191-5.414 5.191h-6.606v-.004l-7.68-.012c-1.667.016-3.316-.285-4.8-.664-.95.453-2.082.68-3.414.68h-34.434c-.144 3.121-2.379 4.355-7.266 4.453-1.324.02-1.699-.203-1.804-.793-.254-1.039-.211-1.8 1.496-2.113 1.324-.235 2.555-1.36 2.555-3.48v-10.614c0-.36.296-.66.66-.66h3.699c.363 0 .66.3.66.66v7.445c0 1.348.352 1.977 1.676 1.977h1.734c1.145 0 1.653-.262 1.625-1.531a.6.6 0 0 1-.015-.14v-7.661a.75.75 0 0 1 .75-.75h3.609c.668 0 .633.871.965 1.23.816-.503 2.75-1.23 4.25-1.117l9.625-.113c2.515 0 4.797 2.02 4.797 4.492v4.008c0 1.043.355 1.582 1.586 1.582h1.718c1.227.098 2.73-1.453 2.73-2.508v-2.156c0-3.168 2.43-5.418 5.813-5.418h4.754c3.774 0 6.207 1.96 6.207 4.844v5.238h2.598c1.926 0 2.906-1.582 2.863-3.172l.043-3.738v-6.649c0-.441.36-.793.793-.793m-15.031 7.442h.734a2.9 2.9 0 0 1 2.895 2.894v1.125c0 1.594-1.301 2.891-2.895 2.891h-.734a2.897 2.897 0 0 1-2.89-2.89v-1.126a2.9 2.9 0 0 1 2.89-2.894m-32.961 3.347c0-1.71 1.703-3.347 4.227-3.347h5.773c2.344-.078 3.867.906 3.867 2.555v1.933c0 1.238-1.062 2.422-2.773 2.422h-9.465c-1.399 0-1.629-.305-1.629-1.508zM170.723 156.27c-24.953-5.192-40.989-21.403-41.414-41.133-.082-3.86.652-7.957 2.214-11.473 6.5 16.332 20.442 28.785 39.2 33.578Zm-40.828-57.293a58.3 58.3 0 0 1-2.239-12.082c-2.672 2.117-5.43 5.128-7.918 8.601-5.664 7.918-9.125 16.598-9.027 26.39.152 15.294 8.996 28.934 20.73 38.036 10.254 7.957 26.668 14.894 39.282 16.11v-16.298c-26.91-5.488-44.121-23.515-44.121-45.41 0-5.39 1.16-10.55 3.293-15.347M188.02 217.27c-7.075-.047-11.235-5.407-13.458-12.676-2.214-7.246-2.507-17.09-2.539-24.953-.054-14.024.094-27.957.415-41.989 4.718 1.028 9.945 1.61 14.843 1.61 4.899 0 10.13-.582 14.844-1.606.32 14.028.469 27.961.414 41.985-.027 7.863-.32 17.707-2.539 24.953-2.223 7.27-6.383 12.629-13.457 12.676Zm-29.665-5.98c6.446 4.35 7.782 8.737 9.028 19.605a750 750 0 0 1 9.375-18.094c-4.817-7.461-5.403-14.07-5.899-24.055-2.894 11.035-8.746 17.445-12.504 22.543m-2.488 43.636c1.219-1.438-.207-2.055-3.3-1.84-1.508 2.5-3.2 4.476-5.805 5.953 3.058.348 7.527-2.258 9.105-4.113m-25.469-5.531c-.562-1.801.993-1.81 3.754-.407.457 3.184 1.368 5.59 3.016 7.754-2.95-.879-6.043-5.027-6.77-7.347m30.633-2.192c.13-2.52-1.12-4.367-2.344-6.066-.976-1.352-1.707-2.707-1.687-4.211.04-3.024 2.559-5.73 4.352-8.492 4.37-6.989 2.242-10.868-.438-11.118-1.32-.125-2.719.461-3.644 1.793-1.801 2.594-3.286 7.672-5.352 9.84-1.75 1.836-3.5 2.305-5.188 2.727-1.363.344-3.257.094-5.257.07-3.149-.027-5.16.484-7.239 2.941-2.394 2.829-4.101 7.336-4.047 10.301.036 1.735 1.02 2.274 1.954 2.32 1.847.098 2.703-.734 3.3-2.257 1.442-3.649 5.204-6.223 8.829-6.223 5.3 0 8.824 4.656 8.953 8.738.054 1.692-.235 3.848 1.468 4.887 1.262.777 2.871.23 3.957-.605 1.266-.98 2.282-2.63 2.383-4.645m-17.035-6.574c4.313 0 7.813 3.68 7.813 8.223 0 4.335-3.188 7.886-7.23 8.203l-.669 2.894 5.57 1.39-1.062 4.259-16.625-4.149 1.062-4.254 5.961 1.485.711-3.078c-2.023-1.489-3.347-3.957-3.347-6.75 0-4.543 3.5-8.223 7.816-8.223M97.27 139.379c-3.02.39-6.301.637-8.372.598-2.156-.04-4.367.05-4.543.851-.3 1.36 2.907 6.016 10.172 6.785 6 .633 9.352-.894 17.825-4.215 2.648-1.035 2.644-2.609.074-5.539-.828-.945-2.801-.754-6.215-.023-3.164.676-7.266 1.328-8.941 1.543m14.43 5.34c-3.634 1.496-7.798 3.418-10.759 4.785-1.75.809-3.496 1.406-5.07 2.766-1.86 1.609-3.082 4.03-2.074 5.53 1.457 2.165 4.965 1.712 8.586.24 5.558-2.25 11.418-5.352 13.894-6.786 1.309-.762 2.102-1.383 1.836-2.18a24.3 24.3 0 0 0-2.93-4.16c-1.328-1.285-1.91-.84-3.484-.195m6.105 7.117c-3.493 1.805-7.754 4.281-10.586 5.902-1.672.961-3.36 1.707-4.809 3.2-1.71 1.761-2.722 4.28-1.586 5.683 1.64 2.035 5.098 1.277 8.574-.5 5.34-2.73 11.239-6.543 13.582-8.191 1.239-.871 1.454-1.145 1.032-1.871-.899-1.551-2.383-3.2-3.344-4.168-1.074-1.086-1.352-.836-2.863-.055m5.89 7.035a336 336 0 0 0-9.597 7.399c-1.504 1.207-3.055 2.21-4.25 3.91-1.414 2.011-2.02 4.656-.676 5.867 1.937 1.75 5.23.457 8.39-1.844 4.844-3.527 10.133-8.402 12.188-10.394 1.086-1.051 1.309-1.649.77-2.172a38 38 0 0 0-3.754-3.227c-1.36-.832-1.598-.625-3.07.461m7.352 5.48c-2.953 2.598-6.317 5.801-8.672 8.06-1.39 1.331-2.727 2.304-3.77 4.105-1.238 2.125-1.605 4.812-.164 5.898 2.082 1.574 5.254 0 8.2-2.562 4.52-3.938 8.652-8.438 10.527-10.606.988-1.14.941-1.52.43-2.184-1.23-1.335-2.961-2.44-3.914-3.023-1.067-.648-1.36-.809-2.637.313m6.707 5.563c-2.559 2.988-5.098 6.375-7.113 8.938-1.192 1.515-2.477 2.84-3.262 4.765-.93 2.278-.922 4.992.66 5.871 2.281 1.266 5.203-.734 7.762-3.683 3.926-4.528 7.492-9.735 9.047-12.14.82-1.27.972-1.892.289-2.376-1.446-1.012-2.422-1.453-3.961-2.215-1.656-.82-2.313-.445-3.422.84m8.246 4c-2.293 3.195-4.348 6.652-6.133 9.383-1.054 1.613-1.98 2.965-2.594 4.95-.722 2.35-.48 5.054 1.172 5.792 2.383 1.063 5.118-1.184 7.41-4.344 3.52-4.855 6.254-10.199 7.594-12.722.707-1.34.801-1.895.102-2.27-1.598-.836-3.012-1.488-4.547-2.074-1.457-.555-2.012-.098-3.004 1.285m8.238 3.492c-1.824 3.48-3.586 7.414-4.976 10.367-.82 1.747-1.774 3.325-2.106 5.38-.39 2.425.23 5.07 1.965 5.57 2.508.718 4.906-1.883 6.734-5.332 2.81-5.301 5.11-11.176 6.086-13.868.512-1.421.575-1.921-.199-2.253-1.562-.672-3.71-1.133-4.918-1.387-1.449-.305-1.797.015-2.586 1.523m8.383 2.914c-1.387 3.676-2.82 7.97-3.84 11.075-.601 1.832-1.355 3.515-1.433 5.593-.094 2.457.843 5.004 2.629 5.29 2.574.41 4.636-2.465 6.03-6.114 2.145-5.601 3.716-11.71 4.352-14.504.336-1.472.047-2.37-.765-2.582-1.489-.39-2.848-.543-4.528-.691-1.277-.11-1.843.343-2.445 1.933m-33.777-99.433c1.742-5.098 2.355-13.59 4.836-20.149 1.488-3.937 4.406-6.43 8.77-8.879 4.566-2.562 8.812-4.23 8.878-5.375.035-.601-1.082-1.199-3.914-1.562a34 34 0 0 0-4.742-.293c-5.149.066-10.024 1.504-14.063 5.25a18.6 18.6 0 0 0-3.668 4.723c-1.484 2.699-2.507 8.386-2.683 14.203-.164 5.304.918 10.093 2 13.656 1.48 4.887 3.34 2.074 4.586-1.574m84.687 166.316c-.125-2.52 1.121-4.367 2.348-6.066.973-1.352 1.707-2.707 1.684-4.211-.04-3.024-2.555-5.73-4.352-8.492-4.371-6.989-2.242-10.868.441-11.118 1.317-.125 2.715.461 3.641 1.793 1.8 2.594 3.285 7.672 5.352 9.84 1.753 1.836 3.5 2.305 5.187 2.727 1.363.344 3.258.094 5.262.07 3.144-.027 5.156.488 7.234 2.941 2.399 2.829 4.102 7.336 4.047 10.301-.031 1.735-1.016 2.274-1.95 2.325-1.85.093-2.702-.739-3.304-2.262-1.437-3.649-5.203-6.215-8.828-6.215-5.3 0-8.82 4.648-8.95 8.73-.054 1.692.231 3.848-1.468 4.887-1.266.777-2.875.23-3.957-.605-1.27-.98-2.285-2.63-2.387-4.645m-19.652-31.308c1.543 1.007 3.43 4.394 5.906 10.574 4.738 11.82 10.54 30.297 12.488 36.933.891 3.028.258 6.47-3.675 6.711-3.758.235-4.946-3.742-5.575-6.703-2.457-11.625-4.996-23.234-7.5-34.844-1.152-5.363-1.945-10.351-1.644-12.671m7.719 48.62c1.105 6.641.304 10.516-3.563 10.524-4.969.016-4.906-7.172-5.285-10.766-.82-7.812-1.48-18.093-2.05-27.117-.532-8.355-.653-15.582-.454-18.605 2.606 2.14 3.617 8.508 4.348 11.46 2.797 11.294 5.304 24.313 7.004 34.505m-21.72-48.62c-1.542 1.007-3.429 4.394-5.905 10.574-4.743 11.82-10.54 30.297-12.489 36.933-.89 3.028-.257 6.47 3.672 6.711 3.762.235 4.95-3.742 5.578-6.703 2.457-11.625 4.993-23.234 7.496-34.844 1.157-5.363 1.95-10.351 1.649-12.671m-7.718 48.62c-1.11 6.641-.308 10.516 3.559 10.524 4.969.016 4.91-7.172 5.285-10.766.82-7.812 1.48-18.093 2.055-27.117.53-8.355.652-15.582.453-18.605-2.606 2.14-3.617 8.508-4.352 11.46-2.797 11.294-5.3 24.313-7 34.505m14.219-45.398c4.25 8.942 5.363 52.692 5.492 55.606 0 2.914-2.09 5.273-4.672 5.273s-4.676-2.36-4.676-5.273c0-2.914.82-48.758 3.856-55.606m29.832-7.828c-6.45 4.352-7.781 8.738-9.031 19.606a773 773 0 0 0-9.371-18.094c4.812-7.457 5.398-14.07 5.898-24.055 2.895 11.035 8.746 17.445 12.504 22.543m29.547-112.312a57 57 0 0 0 2.297-12.082c2.742 2.117 5.578 5.128 8.129 8.601 5.816 7.918 9.367 16.598 9.27 26.39-.157 15.294-9.24 28.934-21.282 38.036-10.531 7.957-27.379 14.894-40.328 16.11v-16.298c27.625-5.488 45.293-23.515 45.293-45.41 0-5.39-1.188-10.55-3.38-15.347m-41.914 57.293c25.613-5.192 42.078-21.403 42.515-41.133.082-3.86-.672-7.957-2.273-11.473-6.672 16.332-18.66 28.23-40.242 33.578Zm26.726 84.359c-4.316 0-7.816 3.68-7.816 8.223 0 4.335 3.187 7.89 7.23 8.203l.668 2.898-5.57 1.387 1.063 4.258 16.625-4.149-1.06-4.254-5.964 1.485-.71-3.078c2.023-1.489 3.347-3.957 3.347-6.75 0-4.543-3.5-8.223-7.813-8.223m13.594 8.766c.566-1.801-.988-1.81-3.754-.407-.457 3.188-1.363 5.59-3.015 7.754 2.953-.879 6.046-5.027 6.77-7.347m-25.465 5.53c-1.222-1.437.203-2.054 3.297-1.84 1.512 2.5 3.2 4.477 5.805 5.962-3.059.34-7.528-2.266-9.102-4.121M185.895 59.747c12.312 0 22.292 9.98 22.292 22.293s-9.98 22.29-22.292 22.29c-12.31 0-22.293-9.977-22.293-22.29s9.984-22.293 22.293-22.293m0-2.715c13.812 0 25.007 11.2 25.007 25.008s-11.195 25-25.007 25c-13.81 0-25.004-11.191-25.004-25s11.195-25.008 25.004-25.008m-12.2 66.375c.66-.953 2.567-1.633 4.27-1.504 1.77.133 2.707 1.528 2.637 3.47-.13 3.6-1.47 6.073-1.41 9.558-2.016-.715-1.88-3.778-1.852-6.54.02-2.269-.352-4.226-3.645-4.984m8.547-2.308c1.274-.426 3.274-.828 5.281-.774 3.008.09 5.957 1.145 5.965 4.203.004 1.899-1.148 4.426-3.422 7.594 3.22-1.422 6.29-5.336 6.336-8.851.07-5.094-6.882-8.829-11.289-8.95-.71-.02-1.453-.062-2.199.215.621.867 1.504 2.235 1.879 3.02-.79.61-2.488 1.61-2.55 3.543m-5.094-6.383c1.672 0 3.024.894 3.024 1.996 0 1.105-1.352 2-3.024 2-1.668 0-3.02-.895-3.02-2 0-1.102 1.352-1.996 3.02-1.996m-2.199-5.867c-6.933 2.382-11.531 7.297-11.476 12.316.02 1.727.636 4.18 1.793 5.113.629-1.765 1.644-2.898 2.703-2.87 2.16.863 2.168 4.456 1.547 8.878-.188 1.356-.66 1.707.507 2.38 5.61 3.245 26.352 3.733 33.172 1.038 1.575-.625 1.34-.976 1.348-2.707.012-3.777-1.16-8.64-3.32-13.016-2.07-4.19-5.047-7.933-8.758-9.843 12.765-2.977 22.281-14.426 22.281-28.098 0-15.934-12.918-28.848-28.851-28.848-15.93 0-28.848 12.914-28.848 28.848 0 12.113 7.469 22.48 18.05 26.758q-.076.023-.148.05M120.07 68.602c-.547-3.665-.644-6.266.946-10.082.968-2.333 2.41-4.907 4.175-7.442 1.598-2.289 5.797-5.426-.086-5.226-6.796.226-15.343 8.238-16.09 18.703-.234 3.316.212 5.894 1.31 9.496 1.222 4.004 3.402 9.011 5.007 12.25 1.27 2.277 1.836 3.476 3.758 3.52 1.87.042 3.117-1.231 3.691-2.333.676-1.308.512-2.976.168-4.601-.312-1.492-.656-2.985-1-4.48-.765-3.352-1.37-6.4-1.879-9.805m-6.02 27.976c1.036-.387 2.516-1.82 2.856-3.062.426-1.547-.117-3.196-1.258-5.02-3.617-5.766-7.53-15.707-9.484-19.95-2.996-6.85-4.34-12.972-6.234-12.765-1.461.157-3.067 1.89-4.082 4.332-.805 1.934-1.149 4.258-1.137 6.64.031 5.946 1.926 10.712 5.094 15.669 2.82 4.406 7.828 11.039 10.18 13.52 1.406 1.48 3.062 1.019 4.066.636m-5.054-.562c-3.754-4.094-7.308-8.395-10.562-12.93-2.239-3.117-4.461-6.23-6.68-9.352-1.094-1.543-2.504-2.68-3.352-1.48-2.859 4.047-1.66 10.308.766 14.867 2.422 4.55 9.305 11.367 14.785 15.238 1.527 1.079 2.75 1.79 3.734 1.899 1.54.168 2.43-.922 3.114-1.88 1.05-1.476.965-3.339-1.805-6.362m-19.808 7.898c-5.372-4.203-8.13-9.2-8.184-13.68-.031-2.3.617-3.976 1.742-4.039 1.934-.11 4.863 3.47 8.106 6.426 2.742 2.508 7.882 6.79 14.406 11.664 1.746 1.309 4.148 3.23 3.64 4.77-.261.793-1.035 2.21-2.304 3.054-.36.239-.848.297-1.39.305-.645 0-1.52-.21-2.524-.715-4.496-2.261-9.211-4.426-13.493-7.785m-.668 32.742c-2.883-1.332-6.168-3.976-7.063-6.601-.73-2.13.55-2.239 2.55-1.868 4.282.793 8.626 1.336 12.977 1.583 4 .222 8.23.246 11.036.332.722.02 1.312.402 1.703 1.117.48.883.734 1.84.73 2.847-.004 1.282-.496 1.637-1.77 2.043-3.21 1.024-7.94 1.575-10.546 1.672-3.727.14-7.742-.258-9.617-1.125m1.07-9.664c-3.625-1.508-6.79-3.883-8.422-6.523-.961-1.555-1.156-2.645-1.05-3.403.335-2.414 2.077-1.363 3.632-.804 3.36 1.199 7.992 3.332 14.773 4.828 3.012.664 5.157 1.004 6.696 1.383 1.136.273 2.25.93 2.52 1.472.671 1.34.82 2.758.198 4.004-.304.614-1.64.91-3.257.914-4.618.008-10.856-.11-15.09-1.87M79.125 102.16c.492-2.363 1.848-1.62 4.05-.168 1.173.77 2.321 1.504 3.477 2.219 4.676 2.867 11.008 6.418 15.996 8.617 3.098 1.367 4.5 2.125 4.735 4.024.183 1.464-.317 3.582-1.543 4.12-2.98 1.31-13.403-3.117-16.805-4.656-4.824-2.183-11.14-8.254-9.91-14.156m199.14 37.938c3.02.386 6.301.636 8.372.597 2.156-.039 4.367.051 4.543.856.3 1.355-2.907 6.012-10.172 6.777-6 .64-9.145-.832-17.621-4.148-1.703-.668-2.2-1.54-1.727-2.871.262-.735.645-1.668 1.563-2.715.828-.946 2.687-.77 6.101-.04 3.164.676 7.266 1.329 8.942 1.544m-14.43 5.34c3.634 1.496 7.798 3.417 10.759 4.785 1.75.808 3.496 1.406 5.07 2.765 1.86 1.61 3.082 4.032 2.074 5.532-1.457 2.164-4.965 1.707-8.586.242-5.558-2.254-11.418-5.356-13.894-6.79-1.309-.761-2.102-1.382-1.836-2.183a24.3 24.3 0 0 1 2.93-4.156c1.328-1.285 1.91-.844 3.484-.196m-6.105 7.117c3.493 1.804 7.754 4.28 10.586 5.898 1.672.961 3.36 1.711 4.809 3.203 1.71 1.758 2.723 4.281 1.586 5.688-1.64 2.027-5.098 1.27-8.574-.504-5.34-2.73-11.239-6.543-13.582-8.192-1.239-.87-1.453-1.152-1.032-1.87.899-1.551 2.383-3.2 3.344-4.169 1.078-1.086 1.352-.836 2.863-.054m-5.89 7.035a329 329 0 0 1 9.597 7.398c1.504 1.207 3.055 2.211 4.25 3.91 1.415 2.012 2.02 4.657.676 5.868-1.937 1.746-5.23.457-8.39-1.84-4.844-3.531-10.133-8.406-12.188-10.399-1.086-1.054-1.308-1.648-.77-2.172a37 37 0 0 1 3.755-3.226c1.359-.832 1.601-.625 3.07.46m-7.352 5.48c2.953 2.594 6.317 5.797 8.672 8.059 1.39 1.332 2.727 2.305 3.77 4.101 1.238 2.13 1.605 4.817.164 5.907-2.082 1.566-5.254 0-8.196-2.567-4.523-3.937-8.656-8.437-10.53-10.601-.99-1.145-.942-1.524-.43-2.188 1.23-1.336 2.96-2.441 3.914-3.023 1.066-.649 1.359-.809 2.636.312m-6.707 5.567c2.563 2.98 5.098 6.367 7.114 8.933 1.19 1.516 2.476 2.84 3.261 4.766.93 2.277.922 4.992-.66 5.867-2.281 1.27-5.203-.73-7.762-3.68-3.925-4.53-7.492-9.738-9.047-12.14-.82-1.27-.972-1.89-.289-2.375 1.446-1.012 2.422-1.453 3.961-2.219 1.657-.82 2.313-.441 3.422.848m-8.246 3.996c2.293 3.191 4.348 6.652 6.133 9.383 1.055 1.613 1.98 2.964 2.594 4.949.722 2.351.48 5.055-1.172 5.789-2.383 1.066-5.117-1.18-7.41-4.344-3.52-4.851-6.254-10.191-7.594-12.719-.707-1.34-.8-1.902-.102-2.265 1.598-.84 3.012-1.492 4.547-2.078 1.457-.559 2.012-.102 3.004 1.285m-8.238 3.488c1.824 3.484 3.586 7.418 4.976 10.371.82 1.742 1.774 3.324 2.106 5.38.39 2.425-.227 5.065-1.965 5.57-2.508.718-4.906-1.887-6.734-5.337-2.809-5.296-5.11-11.171-6.086-13.863-.512-1.422-.574-1.922.199-2.254 1.562-.672 3.71-1.133 4.918-1.386 1.45-.301 1.797.015 2.586 1.52m-8.383 2.918c1.387 3.676 2.82 7.973 3.84 11.074.601 1.832 1.355 3.516 1.434 5.59.093 2.461-.844 5.008-2.63 5.293-2.574.41-4.636-2.465-6.03-6.113-2.145-5.602-3.715-11.719-4.352-14.504-.336-1.477-.047-2.371.765-2.582 1.489-.39 2.848-.543 4.528-.692 1.277-.109 1.844.34 2.445 1.934m33.777-99.437c-1.742-5.09-2.355-13.586-4.836-20.149-1.488-3.933-4.406-6.426-8.77-8.875-4.565-2.562-8.812-4.23-8.878-5.375-.035-.601 1.082-1.2 3.914-1.566a34 34 0 0 1 4.742-.29c5.149.067 10.024 1.505 14.063 5.25a18.6 18.6 0 0 1 3.668 4.72c1.484 2.703 2.508 8.386 2.683 14.206.164 5.305-.918 10.094-2 13.657-1.48 4.886-3.34 2.066-4.586-1.578m8.774-12.282c.547-3.664.644-6.265-.945-10.082-.97-2.332-2.41-4.91-4.176-7.437-1.598-2.29-5.797-5.43.086-5.235 6.797.23 15.343 8.243 16.09 18.707.234 3.317-.211 5.891-1.31 9.497-1.222 4.003-3.401 9.011-5.007 12.246-1.27 2.28-1.836 3.48-3.758 3.523-1.87.04-3.117-1.23-3.691-2.336-.676-1.305-.512-2.973-.168-4.598.312-1.492.656-2.988 1-4.484.766-3.348 1.371-6.394 1.879-9.8m6.02 27.98c-1.036-.39-2.516-1.823-2.856-3.07-.426-1.543.117-3.19 1.258-5.011 3.617-5.77 7.531-15.711 9.484-19.953 2.996-6.852 4.34-12.977 6.234-12.77 1.461.16 3.067 1.895 4.082 4.332.805 1.938 1.149 4.262 1.137 6.645-.031 5.941-1.926 10.707-5.094 15.668-2.82 4.406-7.828 11.039-10.18 13.52-1.405 1.476-3.062 1.015-4.066.64m5.054-.566c3.754-4.093 7.309-8.39 10.563-12.93 2.238-3.117 4.46-6.23 6.68-9.35 1.097-1.544 2.503-2.68 3.35-1.481 2.86 4.047 1.661 10.308-.765 14.87-2.422 4.548-9.305 11.36-14.785 15.235-1.527 1.078-2.75 1.79-3.734 1.899-1.54.168-2.43-.922-3.114-1.88-1.05-1.476-.964-3.343 1.805-6.363m19.809 7.903c5.37-4.211 8.129-9.203 8.183-13.684.031-2.305-.617-3.976-1.742-4.039-1.934-.11-4.863 3.473-8.105 6.43-2.743 2.504-7.883 6.777-14.407 11.66-1.746 1.305-3.511 2.68-3.343 4.285.093.945.722 2.66 1.843 3.555.899.722 3.18.023 4.078-.43 4.497-2.262 9.211-4.422 13.493-7.777m.668 32.734c2.882-1.332 6.168-3.973 7.062-6.598.73-2.128-.55-2.238-2.55-1.867a103 103 0 0 1-12.977 1.582c-4 .223-8.313.258-11.113.348-.723.02-1.317.398-1.704 1.113a5.87 5.87 0 0 0-.73 2.852c.004 1.277.496 1.637 1.766 2.043 3.214 1.023 8.023 1.558 10.628 1.652 3.727.145 7.743-.254 9.618-1.125m-1.07-9.66c3.624-1.508 6.788-3.883 8.421-6.523.961-1.551 1.156-2.649 1.051-3.407-.336-2.41-2.078-1.36-3.633-.804-3.36 1.203-7.992 3.335-14.773 4.832-3.012.664-5.172.972-6.711 1.351-1.137.278-2.25.93-2.52 1.473-.672 1.34-.804 2.789-.183 4.031.304.617 1.64.914 3.257.914 4.618.016 10.856-.105 15.09-1.867m10.464-24.832c-.492-2.363-1.848-1.617-4.05-.168-1.173.77-2.32 1.508-3.477 2.219-4.676 2.86-11.008 6.418-15.996 8.617-3.098 1.363-4.5 2.129-4.735 4.02-.183 1.468.317 3.581 1.543 4.124 2.98 1.305 13.403-3.117 16.805-4.656 4.824-2.183 11.14-8.254 9.91-14.156m0 0" style="stroke:none;fill-rule:evenodd;fill:#086802;fill-opacity:1"/><g clip-path="url(#a)"><path d="M187.766 7.512C170.02 20.77 152.844 28.309 135.21 28.824c-17.621.512-35.488-5.988-54.574-20.793L7.984 81.777c11.672 17.918 19.102 34.25 22.2 49.809 3.261 16.387 1.722 31.848-4.72 47.293-10.444 26.7-16.612 45.809-17.722 63.285-1.097 17.313 2.77 33.266 12.367 53.848 10.559 20.605 23.72 34.351 39.22 43.379 15.593 9.082 33.632 13.46 53.82 15.273l.09.008v-.008c15.12 1.781 25.972 1.82 34.69 1.852 16.301.054 25.56.09 39.837 10.273 14.28-10.184 23.539-10.219 39.84-10.273 8.718-.032 19.566-.07 34.687-1.852a4 4 0 0 1 .312-.016c20.098-1.828 38.063-6.207 53.598-15.257 15.5-9.028 28.66-22.774 39.223-43.38 9.594-20.581 13.465-36.534 12.367-53.847-1.113-17.476-7.277-36.586-17.723-63.285-6.445-15.445-7.984-30.906-4.722-47.293 3.097-15.559 10.527-31.89 22.203-49.809L294.895 8.031c-19.086 14.805-36.95 21.305-54.57 20.793-17.637-.515-34.813-8.054-52.56-21.312M135.03 22.328c16.781-.488 33.352-8.09 50.715-21.437a3.25 3.25 0 0 1 4.008-.028C207.129 14.227 223.71 21.84 240.5 22.328c16.75.488 33.945-6.117 52.629-21.187a3.25 3.25 0 0 1 4.355.254l76.454 77.601a3.26 3.26 0 0 1 .488 4.168c-12.04 18.078-19.637 34.352-22.684 49.664-3.008 15.11-1.59 29.352 4.344 43.57l.031.079c10.688 27.324 17.004 46.964 18.168 65.285 1.176 18.484-2.89 35.379-12.992 57.027l-.05.106c-11.188 21.851-25.212 36.472-41.778 46.125-16.422 9.562-35.262 14.18-56.262 16.093l-.172.024c-15.32 1.8-26.469 1.84-35.426 1.87-15.597.055-24.156.087-37.843 10.388a3.25 3.25 0 0 1-3.957.027c-13.707-10.328-22.266-10.36-37.875-10.414-8.957-.031-20.11-.07-35.43-1.871v-.008c-21.07-1.906-39.969-6.52-56.434-16.11-16.543-9.64-30.554-24.234-41.73-46.042l-.098-.188C4.141 277.141.074 260.246 1.246 241.762c1.164-18.317 7.477-37.953 18.164-65.27l.031-.078c5.938-14.226 7.36-28.473 4.352-43.586-3.05-15.312-10.645-31.586-22.684-49.664a3.25 3.25 0 0 1 .395-4.074L77.996 1.45a3.246 3.246 0 0 1 4.406-.31c18.684 15.07 35.88 21.676 52.63 21.188m0 0" style="stroke:none;fill-rule:evenodd;fill:#086802;fill-opacity:1"/></g><path d="M200.254 336.707h2.418c1.25 0 2.277 1.004 2.277 2.234v5.457c0 1.223-1.027 2.23-2.277 2.23h-2.418c-1.254 0-2.281-1.007-2.281-2.23v-5.457c0-1.23 1.027-2.234 2.28-2.234m-.86-1.586h4.137c2.145 0 3.903 1.723 3.903 3.824v5.446c0 2.101-1.758 3.82-3.903 3.82h-4.136c-2.149 0-3.903-1.719-3.903-3.82v-5.446c0-2.101 1.754-3.824 3.903-3.824M165.86 339.523v8.305c0 .211-.176.383-.395.383h-1.89a.39.39 0 0 1-.395-.383v-9.27c0-1.378-.313-1.894-1.649-1.894-1.05-.476-.957-1.18-.086-1.543h2.446c1.422 0 1.968.844 1.968 2.086ZM169.64 346.59H175l.035.004c1.223-.09 2.055-.582 2.055-1.317v-1.082c0-1.004-.63-1.234-1.457-1.234h-4.098c-1.82 0-3.312-1.457-3.312-3.242v-1.352c0-1.785 1.492-3.246 3.312-3.246h4.926c1.82 0 3.309 1.461 3.309 3.246v6.488c0 1.223-1.118 3.356-2.922 3.356h-7.207a.665.665 0 0 1-.668-.652v-.313c0-.36.3-.656.668-.656m3.344-9.926h2.13c.89 0 1.976.813 1.976 1.527v2.114c0 .554-.567 1-1.016 1h-3.09c-1.23 0-2.238-.989-2.238-2.196v-.246c0-1.207 1.008-2.199 2.238-2.199M183.473 335.121h7.015c1.676 0 2.84 1.094 2.836 2.434v2.164c-.054 1.402-3.48 3.508-6.879 5.547-1.238.808-.68 1.324.063 1.324h5.637c.453 0 .824.367.824.812a.82.82 0 0 1-.824.809h-9.333c-.769 0-1.925-2.047.739-3.55a196 196 0 0 0 6.039-3.696c2.336-1.496 1.265-4.3-.688-4.3h-5.43a.777.777 0 0 1-.785-.77c0-.422.352-.774.786-.774M166.922 316.16v5.328c0 2.032-1.684 3.696-3.742 3.696h-5.715c-2.059 0-3.742-1.664-3.742-3.696v-8.703c0-1.43 2.18-1.45 2.18 0v8.617c0 1.2.995 2.18 2.21 2.18h4.477c1.215 0 2.21-.98 2.21-2.18v-5.242c0-1.168 2.122-1.289 2.122 0m70.262-5.508-.348-.34a.98.98 0 0 1-.004-1.39 1 1 0 0 1 .703-.285l1.34 1.312a1 1 0 0 1-.285.7 1.01 1.01 0 0 1-1.406.003m-37.309 15.97h.488a.99.99 0 0 1 .992.983.96.96 0 0 1-.292.688h-1.887a.94.94 0 0 1-.293-.688.99.99 0 0 1 .992-.984m-78.523-14.345h.488a.99.99 0 0 0 .992-.984.95.95 0 0 0-.293-.688h-1.887a.97.97 0 0 0-.293.688.99.99 0 0 0 .993.984m-3.649 0h.488a.99.99 0 0 0 .993-.984.95.95 0 0 0-.293-.688h-1.887a.97.97 0 0 0-.293.688.99.99 0 0 0 .992.984m25.496-.57a.99.99 0 0 0-.992.984c0 .27.11.516.293.692h1.887a.97.97 0 0 0 .293-.692.99.99 0 0 0-.993-.984Zm22.242 14.914h.489a.99.99 0 0 1 .992.984.96.96 0 0 1-.293.688h-1.887a.94.94 0 0 1-.293-.688.99.99 0 0 1 .992-.984m-3.726 0h.488a.99.99 0 0 1 .992.984c0 .266-.11.516-.293.688h-1.886a.96.96 0 0 1-.293-.688.99.99 0 0 1 .992-.984m-30.008 0h.488c.543 0 .993.442.993.984a.96.96 0 0 1-.293.688h-1.887a.94.94 0 0 1-.293-.688.99.99 0 0 1 .992-.984m-3.238 0h.488c.543 0 .992.442.992.984a.96.96 0 0 1-.293.688h-1.886a.94.94 0 0 1-.293-.688.99.99 0 0 1 .992-.984m8.558-11.418h.301c.215 0 .41.082.555.211l.004-.023 1.449.687c.476-.539 1.066-.875 1.926-.875h7.328c1.45 0 3.176 1.555 3.176 3.293v3.227c0 1.859-2.153 3.46-3.79 3.46h-8.195c-.758 0-1.46-.14-2.11-.398-1.062.156-2.163.399-3.1.399-1.801-.012-3.223-.317-4.208-.985-.699.524-1.605.899-2.898.985h-2.035c-.578 0-.98-.157-1.368-.407a.9.9 0 0 1-.75.407h-.335a.89.89 0 0 1-.891-.887v.336l-.336.55h-3.453c-2.727 0-4.344-2.078-4.406-5.195-.043-2.699 1.234-4.785 3.652-4.785h4.543v-.535a.89.89 0 0 1 .89-.879h.337a.89.89 0 0 1 .89.879v8.266c.48.421 1.2.648 2.258.648 2.168 0 2.758-.918 2.758-2.246v-5.254c0-.484.402-.879.894-.879h.332c.493 0 .895.395.895.879v5.773c.246.977.808 1.743 2.535 1.727h.918c1.039-.105 1.422-.543 1.422-1.09v-6.496c0-.433.363-.793.812-.793m-14.941 2.469c0-.684-.426-1.223-1.059-1.223h-2.675c-1.454 0-2.477 2.2-2.399 3.567.106 2.187.957 3.566 2.899 3.566h2.007c.758.031 1.211-.375 1.227-1.45Zm16.05 2.61v1.402c0 1.418.86 1.898 2.173 1.898h6.812c1.383 0 2.582-1 2.582-2.137v-2.3c0-1.399-1.383-2.7-2.43-2.7h-5.203c-2.093 0-3.933 2.211-3.933 3.832Zm114.657-8.575h.59a.78.78 0 0 1 .781.773v9.707c0 1.47-2.02 2.997-3.476 2.997l-1.907.023c-1.39-.023-2.488-.191-3.73-.293-1.727.399-3.41.332-5.07-.043-1.192.442-2.508.363-3.57.094l.026-1.383h2.028c.95 0 1.129-.652.879-1.516l-2.153-8.527c-.414-1.832 1.543-2.144 1.985-.695l2.37 9.394c.755 2.516 3.505.992 3.505-.32v-9.27c0-.453.375-.82.832-.82h.453c.457 0 .832.367.832.82v10c0 .934.797.934 2.305.934 1.449.04 2.543-.668 2.543-1.95v-9.152c0-.425.351-.773.777-.773m-42.016 0h.477c.465 0 .848.379.848.836v9.074c.023 1.25.859 1.965 2.511 1.965h2.512c.969 0 1.621-.21.887-1.371-.754-.953-1.004-1.598-1.438-2.766-.668-1.8.18-4.242 2.461-4.242h5.91c2.278 0 3.13 2.442 2.461 4.242-.433 1.168-.683 1.813-1.441 2.766-.73 1.16-.078 1.371.89 1.371h2.512c1.653 0 2.488-.715 2.512-1.965v-9.074c0-.457.379-.836.844-.836h.48c.465 0 .844.379.844.836v9.539c0 1.914-1.684 3.102-4.262 3.102-2.84 0-5.2-.079-7.797-.282-3.246.282-5.195.282-7.793.282-2.578 0-4.265-1.188-4.265-3.102v-9.539c0-.457.382-.836.847-.836m11.211 11.875c-.953-.773-1.863-1.879-2.746-3.21-.992-1.454-.82-3.923 1.047-3.923h3.402c1.868 0 2.04 2.469 1.043 3.922-.882 1.332-1.793 2.438-2.746 3.211m-13.949-7.336v5c0 2.168-1.793 3.938-3.984 3.938h-7.645c-2.191 0-3.984-1.77-3.984-3.938v-2.77c0-1.472 2.363-1.218 2.363 0v2.794c0 1.27 1.055 2.312 2.34 2.312h6.441c1.29 0 2.344-1.043 2.344-2.312v-4.832c0-1.524 2.125-1.551 2.125-.192m-35.125-1.043h.293c.504 0 .914.402.914.899v5.91c0 1.14.422 1.543 1.535 1.57h1.914c1.407 0 1.89-.793 1.813-2.215v-8.746c0-.5.414-.91.926-.91h.398c.512 0 .93.41.93.91v9.52c0 1.73-1.942 3.043-4.067 3.043h-3.246c-.781 2.445-2.46 3.418-4.793 3.074-1.219-.305-1.191-.805-.297-1.051 2.004-.477 2.766-1.48 2.766-3.105v-8c0-.497.41-.899.914-.899m12.008-3.492h.058c.536 0 .973.434.973.969v11.53a.975.975 0 0 1-.973.974h-.058a.975.975 0 0 1-.973-.973V312.68c0-.535.438-.97.973-.97m0 0" style="stroke:none;fill-rule:evenodd;fill:#086802;fill-opacity:1"/></svg>