<svg xmlns="http://www.w3.org/2000/svg" xmlns:xlink="http://www.w3.org/1999/xlink" viewBox="0 0 1166.17 1166.17"><path d="M583.087 0c322.03 0 583.087 261.057 583.087 583.087s-261.057 583.086-583.087 583.086S0 905.116 0 583.087 261.057 0 583.087 0" style="fill:#c4c6c8;fill-rule:evenodd"/><path d="M583.087 2.268c320.777 0 580.819 260.041 580.819 580.819s-260.042 580.819-580.82 580.819c-320.776 0-580.818-260.042-580.818-580.82C2.268 262.31 262.31 2.269 583.087 2.269" style="fill:#fff;fill-rule:evenodd"/><path d="M583.087 45.922c296.042 0 536.031 239.989 536.031 536.03 0 296.043-239.99 536.032-536.031 536.032-296.042 0-536.032-239.99-536.032-536.031 0-296.042 239.99-536.031 536.032-536.031" style="fill:#e30016;fill-rule:evenodd"/><path d="M583.087 80.362c277.02 0 501.59 224.57 501.59 501.59 0 277.022-224.57 501.591-501.59 501.591s-501.59-224.57-501.59-501.59c0-277.021 224.57-501.59 501.59-501.59" style="fill:#fff;fill-rule:evenodd"/><path d="M583.087 107.858c261.835 0 474.094 212.26 474.094 474.095s-212.259 474.094-474.094 474.094-474.095-212.26-474.095-474.094 212.26-474.095 474.095-474.095" style="fill:#1b1918;fill-rule:evenodd"/><path d="M583.087 138.33c245.005 0 443.622 198.617 443.622 443.623 0 245.005-198.617 443.622-443.622 443.622S139.465 826.958 139.465 581.953 338.08 138.33 583.087 138.33" style="fill:#fff;fill-rule:evenodd"/><defs><linearGradient id="a"><stop offset="0%" stop-color="#d9dadb"/><stop offset="52%" stop-color="#565757"/><stop offset="100%" stop-color="#868789"/></linearGradient><linearGradient xlink:href="#a" id="b" x1="100.177" x2="100.177" y1="1559.053" y2="1603.385" gradientTransform="matrix(3.49584 0 0 .28605 299.622 109.7)" gradientUnits="userSpaceOnUse"/></defs><path d="M649.825 560.164c29.267-12.284 136.803 4.092 154.976 8.191-69.505-4.988-110.327-12.94-154.976-8.191" style="fill:url(#b)"/><defs><linearGradient id="c"><stop offset="0%" stop-color="#d9dadb"/><stop offset="52%" stop-color="#565757"/><stop offset="100%" stop-color="#868789"/></linearGradient><linearGradient xlink:href="#c" id="d" x1="74.063" x2="74.063" y1="1417.159" y2="1483.093" gradientTransform="matrix(3.28744 0 0 .30419 299.622 109.7)" gradientUnits="userSpaceOnUse"/></defs><path d="M543.1 550.381c50.357-25.007 192.873 6.275 216.757 10.46-103.721-8.58-145.87-17.6-216.757-10.46" style="fill:url(#d)"/><path d="m607.329 262.788-.441-.524 7.43 26.088q.336.015.617.04a3.4 3.4 0 0 1 1.224-1.032 4.7 4.7 0 0 1 2.02-.497c.919-.02 1.644.171 2.19.503q.375.23.64.536.229-.075.472-.075c.607.001 1.13.36 1.536.782.328.34.664.81.998 1.435.538.986.76 1.95.78 2.794.018.766-.078 1.304-.304 1.8.933.364 1.718 1.21 2.503 2.055.84.957 3.226 1.782 3.226 1.782-.571.462-1.613 3.068-1.512 4.09.1 1.155-.37 3.762-1.714 4.124-1.479.396-1.714.561-1.714.561l.37 2.805s-13.88 6.334-42.58 6.334-42.58-6.334-42.58-6.334l.403-2.805s-.235-.165-1.714-.56c-1.344-.363-1.814-2.97-1.713-4.124.1-1.023-.942-3.63-1.513-4.091 0 0 2.353-.825 3.226-1.782.785-.845 1.57-1.69 2.504-2.055-.226-.496-.323-1.034-.305-1.8.02-.844.243-1.808.78-2.794.334-.626.67-1.094.998-1.435.406-.421.93-.78 1.537-.782q.242 0 .472.075a2.7 2.7 0 0 1 .64-.536c.546-.332 1.27-.523 2.19-.503a4.7 4.7 0 0 1 2.02.497 3.4 3.4 0 0 1 1.224 1.032q.266-.023.583-.039l7.429-26.085-.442.523c-1.395 3.733-6.127 6.992-7.056 7.603-.763 2.73-5.841 6.356-6.682 6.94-1.551 3.722-7.26 7.143-8.057 7.606-3.63 5.128-8.008 8.137-8.021 8.145l-.775.534.044-.938 4.165-90.495c-.044-.492-.424-6.086 4.997-8.362l.001.001c5.85-2.47 11.222.515 16.282 3.328 2.703 1.503 5.316 2.955 7.808 3.44h.003c1.85.37 3.423.554 6.388.1q.692-.107 1.492-.261c1.96-2.652 3.496-5.586 4.488-8.821 1.07-3.476 1.692-6.708 1.864-9.34.172-2.614-.092-4.602-.793-5.596-.822-1.17-1.533-2.175-2.314-2.583v.001c-.716-.373-1.582-.245-2.834.738-.313.246-.614.267-.893.11-.241-.135-.413-.412-.517-.783a4.7 4.7 0 0 1-.145-1.058c-.061-1.605.423-3.957 1.515-4.672.946-.619 2.113-.838 3.547-.773 1.236.057 2.674.327 4.348.732.097-.633.537-1.467 2.201-1.387h.002c1.978.107 4.346.499 6.384 1.102 1.803.534 3.367 1.242 4.221 2.08.824.81 1.764 2.375 2.327 5.308.408 2.127.626 5 .467 8.867v.002c-.189 4.195.584 8.495 1.81 12.005.542 1.55 1.167 2.941 1.832 4.094q.722.138 1.354.234c2.97.455 4.542.27 6.392-.1h.003c2.487-.483 5.119-1.955 7.841-3.477 5.037-2.816 10.38-5.803 16.063-3.402 5.429 2.293 5.206 8.066 5.184 8.468l4.166 90.5.043.937-.774-.533c-.013-.01-4.388-3.017-8.053-8.146-.78-.456-6.473-3.88-8.025-7.605-.841-.585-5.92-4.21-6.683-6.94-.93-.613-5.669-3.874-7.09-7.606zm15.38 31.79a8.597 8.597 0 0 0-1.156-.99c.014.791.129 1.447.5 1.258q.341-.175.657-.268m-38.91 2.782a5.5 5.5 0 0 1-.08-1.207c.067-1.528.844-3.839 2.46-4.406.752-.26 1.658-.23 2.273.328.738-.443 1.701-.74 2.705-.883l-3.517-3.26-2.883-25.175 1.539 25.372-3.226 4.289-3.227-4.487 1.57-25.149-2.88 25.15-3.037 3.34c.828.163 1.606.431 2.225.803.615-.557 1.521-.588 2.274-.328 1.616.567 2.392 2.878 2.46 4.406.018.408-.012.806-.078 1.187l.76.013zm-39.18-3.772a8.6 8.6 0 0 0-1.156.99q.316.093.657.268c.371.19.487-.467.5-1.258m30.836-2.323-1.9-2.962-.555 2.811a9.836 9.836 0 0 1 2.455.15m17.719-.15-.537-2.718-1.307 2.772a10 10 0 0 1 1.844-.055" style="fill:#c8aa3f;fill-rule:evenodd"/><path d="M583.272 314.773c27.355 0 40.933-5.74 40.933-5.74l-.37-2.607s.437-.462 1.848-.76c1.244-.296 1.714-2.176 1.613-3.001-.1-.76.84-3.431 1.647-3.728 0 0-1.95-.264-2.52-.76-1.076-.89-2.286-3.232-5.479-1.913-.403.198-.537-2.705-.537-2.705s-4.854 2.32-14.23 4.037c-.429.601-.94 1.188-1.369 1.745-.366-.44-.786-.876-1.18-1.312-4.717.739-10.404 1.293-17.028 1.37-.292.438-.509.893-.74 1.49-.567-.496-.993-.948-1.32-1.481q-.613-.001-1.235-.009-.834-.01-1.65-.027c-.33.549-.762 1.01-1.342 1.517-.246-.635-.476-1.11-.797-1.574-6.534-.215-12.147-.782-16.806-1.47-.44.498-.927.994-1.345 1.496-.48-.62-1.059-1.28-1.513-1.953-9.03-1.552-13.716-3.432-13.716-3.432s.47 2.408-.37 2.144c-2.99-.99-3.73.495-5.276 1.715-.504.396-2.52 1.287-2.52 1.287.571.363.672 1.353.907 2.079.302 1.022-.235 3.233.84 3.925.773.462 2.588.957 2.588.957l-.37 2.97s13.98 5.74 41.336 5.74zM606.257 260.049a380 380 0 0 0 1.53 1.831l-1.11-35.767a62 62 0 0 1-1.322 5.724l.814 27.903zm1.285-45.76c1.582-.295 2.648-.509 4.288-1.627l1.616 55.89c.619.474 1.125.822 1.401 1.006l-1.785-57.455c2.067-1.939 3.224-3.483 4.772-5.81l2.378 69.233c.881.678 1.526 1.115 1.532 1.119l.002-.14-2.554-71.091c2.184-2.507 6.247-6.817 6.316-4.514.836 28.09 1.673 54.152 2.509 82.233.68.459 1.22.787 1.483.944l-2.647-85.094c2.406.127 4.931 2.001 5.966 2.857-.004-1.174-.32-5.45-4.62-7.267-5.262-2.224-10.401.65-15.246 3.358-2.79 1.56-5.486 3.067-8.116 3.58-1.947.39-3.601.584-6.714.107a34 34 0 0 1-.539-.087 9 9 0 0 0 1.194 1.42c.875.823 1.26 1.073 2.247 1.685-2.198-.01-5.154-.303-7.28-1.118.602 1.048 1.034 1.762 1.258 2.305-.875.054-2.045-.067-2.919-.237-3.06-.598-5.243-2.318-6.04-3.029-1.238 1.143-2.354 2.27-3.382 3.605l-3.448-3.55c-1.712 1.872-3.713 2.98-5.974 4.038l1.115-4.537c-.925.507-2.416 1.261-4.006 1.806-1.756.601-2.807.68-4.59.68a36 36 0 0 0 2.786-3.061q-.255.042-.5.08c-3.108.477-4.762.282-6.71-.107-2.633-.514-5.311-2.002-8.082-3.543-4.867-2.705-10.035-5.578-15.467-3.283v.002c-5.021 2.109-4.428 7.424-4.427 7.44l.002.018c1.022-.849 3.565-2.746 5.986-2.874l-2.637 84.764c.293-.174.826-.5 1.483-.943.833-27.956 1.666-53.923 2.499-81.904.068-2.303 4.132 2.007 6.316 4.514l-2.548 70.922c.139-.095.746-.516 1.539-1.127l2.367-68.915c1.549 2.326 2.706 3.87 4.772 5.809l-1.775 57.143c.29-.194.792-.541 1.4-1.01l1.607-55.574c1.624 1.108 2.685 1.328 4.243 1.618l.002-.023.036-.534.523.108q.468.096.957.145.48.048.995.048c2.942 0 8.234-1.022 12.974-2.522 3.924-1.242 7.446-2.8 8.88-4.353l.372-.404.338.433c1.29 1.653 4.523 3.175 8.202 4.365 4.71 1.524 10.115 2.481 13.156 2.481a9.8 9.8 0 0 0 1.955-.195l.52-.102zm-48.016 12.046-1.1 35.461c.328-.388.844-1.002 1.452-1.73l.13-.456.809-27.717a62 62 0 0 1-1.291-5.558m33.291-24.365a6.3 6.3 0 0 0 1.682.843c1.113.357 2.489.581 3.554.715-1.427-1.406-2.81-3.86-3.857-6.856-1.262-3.61-2.057-8.035-1.862-12.353.156-3.784-.056-6.586-.453-8.653-.256-1.335-.587-2.353-.942-3.127-1.085-.704-2.4-.767-2.828-.717-.908.099-1.48.066-2.689.363-.571.131-1.445.296-1.916.66-.37.296-.671 1.385-1.243 1.385-.907 0-.84-.23-1.075-.495-.303-.363-.47-.89-.773-.858-.941.165-1.951-.494-3.867-1.978-1.915-1.485-1.75-1.915-4.238-1.75-1.487.12-2.344.787-2.789 1.294-.258.804-.365 1.817-.334 2.625.013.33.05.62.112.838l.033.114.096-.072c.45-.871 1.512-2.545 3.05-2.618 1.613-.1 4.206.317 7.432 5.728 0 0-2.688.141-3.26.636a3 3 0 0 0-.208.194c.276 1.175.356 2.687.241 4.442-.177 2.7-.812 6.008-1.905 9.556-1.739 5.675-5.104 9.901-6.686 11.669 2.904-.495 6.278-2.513 6.691-2.765 2.831-5.266 4.337-15.38 4.342-15.407l.92.157c-.004.028-1.558 11.27-4.593 16.018l-.831 3.386c2.87-1.546 4.193-3.296 4.198-3.301l.326-.442c2.236-5.101 2.997-16.087 2.998-16.117l.933.03c-.001.031-.8 11.662-3.232 16.807l2.745 2.826c.984-1.168 2.41-2.501 2.938-2.985-.575-4.993-.695-16.064-.696-16.095l.933-.015c0 .031.12 11.075.691 16.014.451.439 3.045 2.803 6.844 3.153 0-.018-.717-1.347-1.059-2.011-3.941-6.067-4.016-16.362-4.016-16.39h.936c0 .027.075 9.687 3.657 15.552zm-10.656-29.391c.571 0 1.008-.43 1.008-.99s-.437-.99-1.008-.99c-.538 0-1.008.43-1.008.99s.47.99 1.008.99" style="fill:#fff;fill-rule:evenodd"/><path d="M583.07 262.888c23.765-18.149 23.737-43.813 23.584-47.762a11 11 0 0 1-1.607.122c-3.117 0-8.64-.976-13.44-2.529-3.556-1.15-6.737-2.628-8.31-4.285-1.72 1.555-5.15 3.056-8.916 4.248-4.822 1.526-10.228 2.566-13.255 2.566a11 11 0 0 1-1.607-.12c-.157 3.954-.213 29.614 23.55 47.76" style="fill:#fff;fill-rule:evenodd"/><path d="M604.657 216.649q.161-.004.335-.016l.16-.01v.158c.004.542-.009 1.091-.03 1.631a56.07 56.07 0 0 1-1.3 9.923 58 58 0 0 1-.8 3.18l-.003.008c-2.392 8.503-6.584 16.087-12.378 22.51a58 58 0 0 1-3.56 3.613 60 60 0 0 1-3.915 3.339h-.001l-.002.002-.094.071-.093-.073c-7.006-5.477-12.486-12.21-16.242-19.955a56 56 0 0 1-1.995-4.631q-.9-2.374-1.595-4.85v-.002a58 58 0 0 1-1.688-8.26 55 55 0 0 1-.32-3.262v-.008a59 59 0 0 1-.09-1.617 34 34 0 0 1-.027-1.667l.002-.177.177.032q.162.03.329.047.16.017.327.018c3.524 0 10.603-1.449 16.037-3.557 1.056-.41 2.05-.844 2.94-1.296.887-.451 1.675-.921 2.325-1.404l.005-.003.097-.067.088.075c1.855 1.564 4.958 2.914 8.304 3.955q.993.309 1.976.573c4.072 1.097 8.206 1.724 10.692 1.725v-.001q.186 0 .339-.005zM554.313 307.066l-2.922-.581-.01-.002-.036-.007-.016-.003-.03-.006-.021-.004-.026-.005-.026-.005-.02-.004-.031-.006-.015-.003-.037-.007-.01-.002-.041-.008-.005-.001-.047-.01c-.865-.171-1.732-.347-2.597-.54l-.011-.003h-.004l-.039-.009-.01-.003h-.002l-.008-.002-.011-.003-.01-.002-.011-.002-.011-.003-.011-.002-.01-.003-.012-.002-.01-.002-.008-.002h-.002l-.011-.004-.01-.002-.012-.002-.01-.003h-.006l-.005-.002-.011-.003-.086-.02h-.002l-.363-.082a1 1 0 0 1-.347-.155q-.31-.224-.514-.666c-.188-.408-.315-.935-.37-1.581a4 4 0 0 1-.561.488c-.19.13-.348.182-.482.152a2 2 0 0 1-.252-.087q-.322-.134-.64-.27a5 5 0 0 1-.506-.236c-.062-.038-.086-.086-.086-.148q0-.137.363-.795c.24-.439.42-.702.529-.797.08-.07.237-.158.466-.255.134-.056.317-.13.568-.214.088-.03.182-.067.277-.097-.016-.052-.016-.102-.024-.152-.008-.052-.008-.1-.008-.144 0-.13.035-.286.094-.473q.088-.273.324-.66c.08.556.166 1.113.245 1.667s.175 1.11.26 1.668c.08.521.183.888.317 1.097.087.138.197.22.347.255l.363.083h.002l.01.002.012.003.01.002.01.002h.001l.011.004.01.002.011.003.01.002h.001l.011.002.01.002.012.002.009.002h.002l.01.002.01.002.012.002.009.002h.002l.01.003.011.002.011.003.009.002h.002l.01.003.011.002.011.002.009.002h.001c.83.187 1.668.358 2.504.523a2 2 0 0 0-.205-.635c-.053-.1-.182-.28-.371-.539q.203-.57.418-1.143c.269.345.44.688.537 1.025q.146.497.15 1.398 1.192.238 2.393.476a2 2 0 0 0-.213-.637 6 6 0 0 0-.364-.537q.204-.571.419-1.145c.26.345.442.688.537 1.027.094.338.15.824.15 1.453v1.348zM551.305 307.375c-.198.311-.387.623-.577.938a81 81 0 0 1-.75-.563c-.142.245-.284.486-.418.731-.324-.24-.648-.488-.971-.736l.544-.878q.381.27.774.538.215-.374.442-.747c.316.238.632.476.956.716M553.776 308.048c-.213.344-.426.686-.631 1.029q-.614-.445-1.216-.892c.205-.352.41-.701.623-1.051q.606.456 1.224.914M565.36 308.744c-.902-.104-1.802-.23-2.703-.355l-.007-.001h-.005l-.012-.003-.012-.002-.012-.002h-.004l-.008-.001-.012-.002-.013-.002-.012-.001-.085-.012h-.005l-.403-.057a1.76 1.76 0 0 1-.734-.269 1.44 1.44 0 0 1-.505-.603 1.55 1.55 0 0 1-.892.459 2.4 2.4 0 0 1-.79-.008l-.182-.03v.119q-.002.313-.37.77-.367.453-.861.752c-.365.222-.671.312-.932.267q-.462-.078-.995-.426-.462-.3-1.445-1.134.105-.138.221-.28.473.391.766.548c.19.104.395.173.624.212.237.04.483.018.726-.077.238-.092.57-.286.987-.583q.868-.615.869-1.03 0-.205-.166-.568a2.8 2.8 0 0 0-.466-.715c.095-.448.198-.896.3-1.342.237.28.415.588.545.924q.196.505.197 1.1v.06l.182.03c.292.05.498.065.616.054q.177-.019.474-.135a3 3 0 0 0-.269-.474c-.098-.126-.197-.19-.3-.204a.15.15 0 0 0-.103.024.5.5 0 0 0-.118.13c-.079-.026-.158-.049-.229-.072 0-.621.114-1.045.332-1.278.216-.233.56-.32 1.034-.253.49.069.868.214 1.145.439.283.23.418.503.418.83 0 .176-.035.336-.11.488q-.114.223-.41.597.069.108.197.181.129.075.244.092l.47.066.003.001.094.013.012.002.012.002.012.002.011.001h.001l.012.002.013.002.01.001h.002l.012.003.012.002h.008l.004.001.012.002 1.968.272q-.167-.897-.323-1.796c-.103-.597-.213-1.199-.316-1.799a12 12 0 0 1-.34-.262q.001-.305.095-.6c.08-.252.221-.542.41-.877.08.053.159.105.245.158 0 .02-.016.073-.023.162-.009.111.073.233.22.36q.196.166.625.39a4 4 0 0 1-.142.63 5 5 0 0 1-.206.538q-.094-.044-.19-.092l.285 1.628.284 1.629zM566.938 307.413q.001.461-.11.829c-.075.244-.221.568-.427.971q-.163-.08-.315-.16.128-.646.126-1.059-.001-.312-.056-.928-.051-.616-.126-1.219a20 20 0 0 0-.26-1.451 2.5 2.5 0 0 1-.063-.402q0-.162.165-.527c.112-.245.26-.538.459-.883.102.622.212 1.24.315 1.862.118.705.188 1.318.237 1.831q.056.596.055 1.136M588.1 309.863c-.364.006-.799-.058-1.296-.19a6.3 6.3 0 0 1-1.153-.42c-.205.301-.457.505-.758.602-.141.045-.34.066-.584.063l-1.042-.016a177 177 0 0 1-5.196-.133q-.367-.016-.592-.21-.225-.196-.379-.616c-.229.296-.442.493-.647.594q-.273.136-.734.117l-.38-.016v.12c0 .209-.126.482-.37.815a3.6 3.6 0 0 1-.861.84c-.365.252-.68.369-.932.35q-.462-.036-.995-.335-.462-.26-1.445-1c.071-.1.142-.202.222-.303q.472.349.757.477.294.133.624.157.369.027.726-.144.368-.176.987-.671.876-.7.877-1.114c0-.137-.052-.32-.166-.55a2.6 2.6 0 0 0-.466-.67c.095-.456.19-.913.293-1.371a2.8 2.8 0 0 1 .552.864c.126.32.198.678.198 1.076v.057l.379.015q.615.026.923-.256.367-.333.474-1.187.177.037.356.07l-.017.3c-.011.225-.023.407-.023.544q.001.293.158.462a.58.58 0 0 0 .418.179q.25.012.474-.081.215-.09.687-.396c.626-.408 1.248-.84 1.879-1.271q.332-.226.498-.322c.252-.148.505-.22.742-.217.395.007.703.148.94.422q.412.48.41 1.434v.573l.67.01c.317.005.569-.037.751-.114a.91.91 0 0 0 .498-.507c.19-.442.452-.801.765-1.089.279-.255.506-.386.703-.39q.263-.006.663.785c.28.553.411 1.066.411 1.538zM598.474 309.275l-2.99.244h-.011l-.01.002h-.018l-.004.001-.011.001-.01.001-.044.004-.01.001-.548.045a.7.7 0 0 1-.347-.049c-.199-.087-.373-.265-.513-.522-.192-.352-.309-.845-.372-1.476-.237.302-.419.513-.553.641-.19.184-.354.281-.481.287-.07.003-.15-.004-.253-.018-.22-.032-.435-.058-.647-.09a4 4 0 0 1-.498-.096q-.095-.031-.095-.124-.001-.14.364-.897c.245-.506.417-.819.529-.942.085-.095.244-.226.466-.383q.2-.142.568-.373.133-.086.276-.174c-.008-.048-.019-.095-.023-.144a2 2 0 0 1-.007-.143q-.001-.194.094-.497c.063-.2.166-.448.323-.75.08.533.167 1.066.245 1.597.08.53.176 1.063.261 1.596q.121.751.316 1.009.124.167.347.147l.371-.03v-.001l.215-.018h.015l.011-.002.017-.002h.015l.011-.002h.011l.006-.001h.005l.01-.001 2.44-.2a1.36 1.36 0 0 0-.205-.575 3.5 3.5 0 0 0-.371-.435l.426-1.26c.261.27.443.56.538.872q.142.469.142 1.41zM598.387 310.187q-.294.551-.576 1.098a38 38 0 0 1-.743-.35l-.426.848q-.486-.225-.97-.444.27-.524.544-1.047.381.16.774.32.215-.437.442-.872.472.225.955.447M603.125 308.882q.002.313-.364.873-.365.559-.86.998-.549.486-.94.532-.463.053-.987-.144c-.307-.114-.79-.354-1.445-.744.071-.112.142-.225.222-.336.308.18.568.298.757.346a1.653 1.653 0 0 0 1.35-.25c.245-.162.57-.448.988-.86.584-.576.868-.998.868-1.275q0-.204-.165-.52a1.8 1.8 0 0 0-.459-.582q.14-.71.292-1.424.356.32.553.766c.13.296.19.646.19 1.044zM594.29 302.387q-.295.492-.577.988-.378-.19-.742-.376-.216.418-.419.835c-.332-.158-.655-.32-.979-.476l.545-.936.781.344.45-.812c.308.144.624.288.94.433M612.836 305.806v-.002l-.355.067-.016.003-.702.13c-.174.032-.372.072-.584.124-.206.05-.443.12-.696.209q.522-.313.79-.826.238-.465.237-1.064-.001-.431-.166-.844-.192-.48-.466-.43c-.22.042-.457.286-.719.735-.299.515-.639 1.325-1.034 2.432-.086.032-.235.096-.458.173a3.2 3.2 0 0 1-.576.14l-.11.017v-.284q.002-.794-.293-1.312-.296-.515-.71-.453-.509.076-.9.911a3.6 3.6 0 0 0-.364 1.543q0 .57.308.858c.205.19.482.26.821.208.103-.015.222-.042.372-.087-.419.551-.829.967-1.216 1.243-.331.236-.671.38-1.011.43a2 2 0 0 1-.679-.003c-.244-.045-.553-.175-.924-.379q-.117.163-.22.325c.71.453 1.24.738 1.586.87.34.128.663.173.956.13.489-.073.995-.437 1.508-1.089q.613-.784.735-1.507l.86-.129q.002 1.063.529 1.72c.352.439.773.61 1.255.523a.76.76 0 0 0 .49-.318c.127-.179.26-.494.41-.949q.117-.352.15-.488.058-.233.056-.435c0-.14-.05-.257-.174-.315-.121-.056-.253-.092-.38-.141a7 7 0 0 1 .617-.139l.702-.129.049-.008.016-.004h.001l.016-.003h.001l.015-.003.002-.001.03-.005h.003q.455-.082.909-.168c.253-.05.442-.116.584-.192q.45-.24.758-.753c.332.095.72.158 1.153.185q.513.033.932-.013v.027c1.997-.462 3.995-.968 6-1.48v-1.402c-.284.014-.489-.007-.623-.057-.142-.052-.34-.189-.608-.41-.38-.311-.681-.532-.892-.673a2.5 2.5 0 0 0-.719-.349 1.3 1.3 0 0 0-.663.004q-.451.116-.805.515c-.238.266-.458.638-.648 1.113q.213-.093.332-.134c.07-.026.158-.052.244-.074.309-.078.617-.076.94.012q.536.149 1.176.63c-1.13.288-2.26.572-3.385.826a3.1 3.1 0 0 0-.397-1.187c-.265-.472-.481-.687-.663-.648q-.286.064-.702.531a4.1 4.1 0 0 0-.767 1.244c-.1.255-.261.46-.497.607a2.2 2.2 0 0 1-.75.277q-.335.064-.671.124z" style="fill:#c8aa3f;fill-rule:evenodd"/><path d="M620.985 306.482c-.221.444-.443.89-.656 1.33q-.603-.165-1.208-.33l.64-1.327q.606.164 1.224.327M547.207 298.363c-.198.274-.387.55-.577.828q-.376-.291-.742-.581l-.426.716q-.486-.372-.971-.745.272-.394.545-.785c.252.186.513.372.773.557.15-.227.3-.457.458-.684.308.23.624.462.94.694" style="fill:#c8aa3f;fill-rule:evenodd"/><path d="M574.24 214.659c-4.645 1.402-9.608 2.292-12.386 2.292a3.4 3.4 0 0 1-.533-.042c-.002.49.009.988.028 1.48.022.545.054 1.089.089 1.61v.008a53 53 0 0 0 .318 3.243 57.6 57.6 0 0 0 1.68 8.218v.002a58 58 0 0 0 1.587 4.825 56 56 0 0 0 1.985 4.608 55.2 55.2 0 0 0 7.233 11.215z" style="fill:#e30016;fill-rule:evenodd"/><path d="M591.932 214.755q-.188-.057-.373-.115c-3.325-1.034-6.419-2.375-8.317-3.936-.643.468-1.412.923-2.273 1.36a33 33 0 0 1-2.967 1.31 52 52 0 0 1-3.761 1.285v37.46a58 58 0 0 0 8.83 8.56 60 60 0 0 0 3.801-3.248 58 58 0 0 0 5.06-5.349z" style="fill:#fff;fill-rule:evenodd"/><path d="M604.85 216.939a10 10 0 0 1-.531.013h-.001c-2.51 0-6.675-.632-10.772-1.736q-.82-.22-1.614-.46v37.327c4.982-6.001 8.63-12.941 10.796-20.638l.002-.008a59 59 0 0 0 .795-3.164 55.7 55.7 0 0 0 1.294-9.872c.02-.486.032-.978.031-1.462z" style="fill:#1b1918;fill-rule:evenodd"/><path d="M579.175 294.307c-.051.153-.123.319-.205.506-.306.7-.781 1.788-.127 2.374.47.406.884.867 1.217 1.3.215.28.4.551.546.794.303-.43.609-1.047.782-1.763.182-.748.211-1.595-.071-2.434l-.002-.004c-.28-.861-.58-1.36-.87-1.604-.14-.117-.268-.162-.38-.156a.66.66 0 0 0-.364.165 1.73 1.73 0 0 0-.521.809zM546.717 292.446c.276.29 2.504.956 5.333 1.665 2.205.553 4.749 1.112 7.026 1.529-.107-.58-.068-1.215.208-1.915l.004-.007c.994-2.415 1.889-2.289 3.28-2.093l.107.014.026.004.067.014.014.004c.74.169 1.134.783 1.3 1.56.142.666.111 1.466-.004 2.162q-.039.226-.084.422l-.008.034-.014.036q-.1.249-.206.463c2.408.291 4.99.543 7.377.738 2.673.218 5.09.366 6.737.42-.667-.991-.129-2.225.235-3.055.072-.166.136-.313.17-.413.137-.455.437-.948.828-1.266q.146-.12.308-.205a1.6 1.6 0 0 0-.598-.008c-.296.056-.454.162-.62.405a.468.468 0 0 1-.709.09c-.823-.608-2.165-.952-3.49-1.008-1.33-.056-2.615.174-3.3.714a.47.47 0 0 1-.581 0c-1.117-.74-2.976-1.377-5.036-1.566-1.698-.155-3.523-.002-5.166.657v.001a.47.47 0 0 1-.546-.15c-1.237-1.319-2.872-1.948-4.41-2.226-1.576-.286-3.056-.204-3.918-.118v.001a.47.47 0 0 1-.474-.274c-.222-.372-.571-.67-.986-.884a3.7 3.7 0 0 0-1.61-.394c-.732-.016-1.289.123-1.69.367q-.205.126-.358.287c.235.295.388.67.435 1.042.072.487.138 1.41-.136 2.27l-.035.104q.204.268.457.503.039.036.067.077z" style="fill:#fff;fill-rule:evenodd"/><path d="m562.588 292.574-.064-.013-.084-.011c-.955-.135-1.57-.22-2.287 1.515-.604 1.535.413 2.785 1.231 3.79l.011.014q.176-.193.34-.365c.528-.56.993-1.053 1.356-1.942q.037-.166.065-.332v-.002c.099-.596.127-1.27.011-1.815-.091-.427-.271-.76-.579-.839M545.34 291.48c.216-.68.159-1.446.099-1.853l-.002-.015a1.14 1.14 0 0 0-.292-.642.64.64 0 0 0-.354-.2c-.14-.025-.309.006-.501.114h-.002c-.387.216-.833.708-1.31 1.602l-.001.004c-.46.844-.65 1.66-.667 2.37-.013.534.07 1.002.207 1.368.183-.207.405-.435.656-.665.405-.37.891-.751 1.42-1.067v-.001c.39-.24.618-.614.746-1.015zM613.34 288.334l-4.186-14.7-2.983 9.582 4.359 5.435q.258-.059.514-.104a14 14 0 0 1 2.296-.213m-4.662-16.37-.303-1.062-.211 1.041-5.116-5.398-2.11 7.111-4.442-5.899-1.686 8.651 3.925 6.098 2.366-6.72 4.412 6.4zm-.847-2.973-3.268-11.474-1.752 3.575-5.246-5.437-1.161 9.339-4.261-5.818-2.368 9.66 4.32 6.352 1.885-9.669 4.59 6.095 2.043-6.886 4.995 5.27zm-3.65-12.813-3.553-12.478a59 59 0 0 1-2.728 4.645l-.321 5.98 4.98 5.162zm-16.199 3.82 1.338 6.775 2.134-8.705-.767-.69a62 62 0 0 1-2.705 2.62m3.35-3.296.374.336.162.183 3.898 5.321.941-7.57-2.177-1.958a60 60 0 0 1-3.198 3.688m3.776-4.424 1.57 1.41.205-3.828a59 59 0 0 1-1.775 2.418m-4.91 18.941 2.143 10.848.402.785 1.154-6.312zm2.805 14.204 1.149 5.816c.619.12 1.177.313 1.619.583.612-.37 1.387-.71 2.264-.982l1.83-5.624 3.147 4.998q.332.017.665.053l2.045-6.135-4.348-6.308-2.393 6.792-4.37-6.792-1.447 7.914zm8.898 4.777-1.764-2.8-1.027 3.153a14.7 14.7 0 0 1 2.79-.353m4.386.655.033-.007c.955-.942 2.084-1.546 3.23-1.925l-3.138-3.915-1.798 5.395a11 11 0 0 1 1.673.452zm-53.462-2.521 4.186-14.7 2.982 9.58-4.357 5.436q-.254-.058-.506-.103a14 14 0 0 0-2.305-.213m4.662-16.37.303-1.063.21 1.041 5.117-5.398 2.11 7.111 4.442-5.898 1.686 8.65-3.925 6.098-2.367-6.72-4.411 6.4zm.847-2.974 3.268-11.473 1.752 3.574 5.246-5.437 1.161 9.34 4.261-5.819 2.368 9.66-4.321 6.352-1.884-9.669-4.59 6.095-2.043-6.885-4.995 5.27zm3.649-12.813 3.554-12.478a59 59 0 0 0 2.728 4.645l.321 5.98-4.981 5.162zm16.2 3.82-1.338 6.775-2.134-8.705.767-.69q1.287 1.326 2.704 2.62m-3.35-3.296-.374.336-.162.183-3.898 5.321-.942-7.57 2.178-1.957a60 60 0 0 0 3.197 3.687m-3.776-4.424-1.57 1.41-.206-3.828a59 59 0 0 0 1.776 2.418m4.91 18.941-2.143 10.848-.402.785-1.154-6.312zm-2.806 14.204-1.148 5.819c-.616.119-1.171.312-1.61.581-.615-.37-1.393-.712-2.274-.985l-1.829-5.622-3.148 5q-.331.017-.664.052l-2.045-6.136 4.348-6.307 2.392 6.791 4.37-6.792 1.448 7.915zm-8.897 4.778 1.764-2.8 1.026 3.15a14.8 14.8 0 0 0-2.79-.35m-4.38.655-.03-.007c-.957-.944-2.09-1.549-3.239-1.928l3.138-3.913 1.798 5.397c-.564.106-1.123.254-1.667.451M586.999 294.307c.05.153.123.319.204.506.307.7.781 1.788.127 2.374a9 9 0 0 0-1.217 1.3c-.215.28-.399.551-.546.794a5.3 5.3 0 0 1-.782-1.763c-.181-.748-.211-1.595.071-2.434l.002-.004c.281-.861.58-1.36.87-1.604.14-.117.268-.162.381-.156.122.007.247.07.363.165.243.197.432.513.521.809z" style="fill:#fff;fill-rule:evenodd"/><path d="M619.456 292.446c-.276.29-2.504.956-5.333 1.665a116 116 0 0 1-7.026 1.529c.107-.58.069-1.215-.207-1.915l-.004-.007c-.995-2.415-1.89-2.289-3.281-2.093l-.107.014-.025.004-.067.014-.015.004c-.74.169-1.133.783-1.3 1.56-.142.666-.111 1.466.005 2.162q.038.226.083.422l.008.034.014.036q.1.249.206.463c-2.407.291-4.99.543-7.377.738-2.673.218-5.09.366-6.737.42.668-.991.129-2.225-.234-3.055a7 7 0 0 1-.171-.413c-.136-.455-.437-.948-.828-1.266q-.146-.12-.308-.205c.197-.038.401-.046.598-.008.296.056.455.162.621.405a.468.468 0 0 0 .708.09c.824-.608 2.166-.952 3.49-1.008 1.33-.056 2.616.174 3.301.714a.47.47 0 0 0 .58 0c1.117-.74 2.976-1.377 5.036-1.566 1.698-.155 3.524-.002 5.166.657v.001c.2.08.422.013.546-.15 1.237-1.319 2.873-1.948 4.41-2.226 1.577-.286 3.056-.204 3.919-.118v.001a.47.47 0 0 0 .474-.274c.221-.372.57-.67.986-.884a3.7 3.7 0 0 1 1.61-.394c.732-.016 1.288.123 1.689.367q.205.126.358.287c-.235.295-.388.67-.434 1.042-.072.487-.139 1.41.135 2.27l.035.104a4 4 0 0 1-.456.503h-.001a.5.5 0 0 0-.067.077z" style="fill:#fff;fill-rule:evenodd"/><path d="m603.585 292.574.065-.013.083-.011c.955-.135 1.57-.22 2.287 1.515.604 1.535-.412 2.785-1.23 3.79l-.012.014q-.175-.193-.34-.365c-.528-.56-.993-1.053-1.356-1.942a6 6 0 0 1-.065-.332v-.002c-.099-.596-.127-1.27-.011-1.815.091-.427.271-.76.58-.839M620.834 291.48c-.217-.68-.16-1.446-.1-1.853l.003-.015a1.14 1.14 0 0 1 .292-.642c.099-.104.22-.179.353-.2.14-.025.31.006.501.114h.002c.388.216.833.708 1.31 1.602l.002.004c.46.844.65 1.66.666 2.37a3.7 3.7 0 0 1-.207 1.368 9 9 0 0 0-.656-.665 9 9 0 0 0-1.42-1.067v-.001c-.39-.24-.618-.614-.746-1.015z" style="fill:#fff;fill-rule:evenodd"/><path d="M572.042 294.175a.283.283 0 0 0 .32.467c.301-.206.91-.317 1.53-.354.754-.044 1.494.018 1.715.152a.283.283 0 0 0 .293-.483c-.31-.188-1.19-.284-2.042-.234-.708.042-1.422.183-1.816.452m-6.068-.555a.282.282 0 0 0 .277.492c.317-.18.933-.237 1.554-.22.755.021 1.487.149 1.696.302a.283.283 0 0 0 .334-.456c-.29-.214-1.16-.387-2.014-.41-.708-.02-1.432.058-1.847.292m-11.215-2.185a.283.283 0 0 0 .14.547c.352-.09.962.013 1.558.19.723.217 1.398.529 1.56.73a.283.283 0 0 0 .44-.354c-.226-.282-1.02-.674-1.839-.918-.679-.202-1.397-.314-1.86-.195m-7.012-2.136a.283.283 0 0 0 .09.558c.215-.036.515.006.845.094.388.103.786.258 1.151.429.507.238.92.498 1.031.665a.283.283 0 0 0 .47-.315c-.183-.274-.83-.68-1.544-.988a9 9 0 0 0-.275-.113c-.639-.245-1.313-.406-1.768-.33m46.384 4.876a.283.283 0 0 1-.32.467c-.3-.206-.91-.317-1.53-.354-.754-.044-1.494.018-1.715.152a.283.283 0 0 1-.293-.483c.31-.188 1.19-.284 2.042-.234.708.042 1.422.183 1.816.452m6.068-.555a.282.282 0 0 1-.276.492c-.318-.18-.933-.237-1.555-.22-.754.021-1.487.149-1.696.302a.283.283 0 0 1-.334-.456c.29-.214 1.16-.387 2.015-.41.708-.02 1.43.058 1.846.292m11.215-2.185a.283.283 0 0 1-.14.547c-.351-.09-.961.013-1.557.19-.724.217-1.399.529-1.56.73a.283.283 0 0 1-.441-.354c.226-.282 1.02-.674 1.84-.918.678-.202 1.396-.314 1.858-.195m7.012-2.136a.283.283 0 0 1-.09.558c-.215-.036-.515.006-.844.094a7 7 0 0 0-1.152.429c-.507.238-.92.498-1.031.665a.283.283 0 0 1-.47-.315c.184-.273.83-.68 1.544-.987q.136-.06.275-.114c.639-.245 1.313-.406 1.768-.33" style="fill:#c8aa3f;fill-rule:evenodd"/><path d="M546.378 302.49c-.04-.215-.071-.427-.103-.64-.11.024-.206.04-.268.06q-.284.084-.458.174a1 1 0 0 0-.214.143q-.104.091-.102.146.001.075.182.156.186.084.363.123a.47.47 0 0 0 .244-.008q.12-.035.356-.155zM582.904 307.969q0 .525-1.73.499l-1.381-.022q.828-.57 1.263-.783.427-.211.782-.205.379.005.687.127.379.15.379.384M587.12 308.322q-.002-.114-.229-.389c-.166-.204-.308-.304-.434-.302q-.204.004-.348.47.274.1.419.148.425.149.474.146.117-.001.118-.073M593.46 306.74c-.15.124-.268.205-.355.252a.55.55 0 0 1-.237.076 1.7 1.7 0 0 1-.363-.022q-.19-.032-.19-.106c0-.037.04-.094.111-.173a2 2 0 0 1 .205-.203c.114-.095.268-.19.466-.302q.094-.051.26-.133c.032.204.063.408.103.61M607.349 306.764q-.142-.81-.592-.74a.38.38 0 0 0-.261.164.5.5 0 0 0-.103.292c0 .123.072.212.214.275q.2.089.544.04zM610.697 305.247q0 .178-.237.37-.225.187-.83.507c.174-.449.319-.777.443-.998.12-.214.22-.332.315-.348.072-.013.138.038.206.158a.66.66 0 0 1 .103.311M616.319 304.91c0-.077-.08-.189-.23-.342q-.246-.256-.434-.215c-.134.029-.253.211-.347.54.181.029.324.05.418.063q.426.062.474.05.119-.026.119-.096M610.91 308.658c0 .076-.048.12-.158.14q-.462.089-.86-.174a1.05 1.05 0 0 1-.483-.7c.506.01.902.091 1.17.249q.33.195.33.485" style="fill:#fff;fill-rule:evenodd"/><path d="M880.231 640.94c-2.006 6.287-5.786 14.508-9.937 23.133-4.035-13.83-23.62-28.631-38.914-37.051 3.886 25.407 7.417 47.902 28.274 56.151-4.585 8.223-9.984 16.69-16.513 25.497-1.101-17.982-24.61-36.965-32.79-44.244-1.29 21.084-.728 50.523 19.924 60.463-5.621 6.621-11.833 13.243-18.427 19.864-.662-15.284-12.706-30.549-25.586-46.002-3.296 14.154-8.791 47.657 8.396 61.466-7.506 5.888-15.526 12.158-23.81 17.853 1.413-10.342 1.32-23.955-17.585-52.664-5.678 17.75-16.79 45.757.321 63.675-8.622 4.802-18.69 10.25-28.478 14.86 4.654-13.132.307-33.762-9.476-53.839-14.309 28.045-20.569 46.775-9.996 61.892-9.247 3.188-18.64 6.292-27.888 9.165 4.538-9.364 7.355-27.285 1.695-53.198-15.848 18.84-31.666 37.387-23.906 58.053-34.956 4.54-54.43 9.406-76.546 18.816-14.993 6.38-32.55 14.853-54.269 26.884l12.503 17.654c17.6-11.725 34.692-23.808 55.423-34.047 18.617-9.196 39.852-16.905 67.343-21.532 7.903 23.619 27.44 27.9 65.952 23.777-17.406-18-30.818-27.075-44.72-28.98l31.164-10.28c12.042 27.74 51.634 14.98 68.836 8.772-14.474-9.126-29.34-18.436-47.023-18.817 9.463-4.772 18.378-9.239 26.286-13.816 19.622 22.434 45.547 9.268 69.459-2.926-16.032-7.954-36.61-12.891-48.065-11.375 6.888-5.096 14.176-10.776 20.481-15.87 20.329 18.39 40.982 9.622 69.71-12.68-24.331-5.852-37.869-8.08-54.562-1.533 7.279-7.2 14.334-14.767 20.834-22.163 24.177 14.403 43.043-1.543 65.092-24.5-24.734-1.566-32.972-1.827-49.577 4.512a718 718 0 0 0 14.572-23.117c20.083 9.483 38.46-.546 61.158-33.956-23.98 2.657-37.207 3.778-50.887 14.267 3.644-7.75 7.11-15.68 10.366-23.82 25.68 5.865 40.142-13.97 53.916-43.007-18.87 3.97-36.017 9.431-46.116 19.78 2.516-9.602 4.942-19.353 6.86-28.954 27.042 1.968 36.871-19.183 46.78-51.195-15.862 5.897-34.018 14.834-43.2 27.922 1.484-9.537 2.624-19.844 3.31-31.172 29.543-2.153 34.422-29.172 38.922-58.178-15.59 10.221-30.92 18.222-38.847 36.213.044-12.31-1.033-27.308-2.259-36.11 17.696-4.37 29.197-16.419 27.76-62.892-11.665 10.598-28.072 23.455-32.36 40.217-2.453-9.985-5.611-19.852-9.259-29.637 19.22-8.012 24.298-26.782 16.972-65.777-11.924 11.727-24.802 31.07-26.014 44.775-4.487-9.23-10.283-18.938-16.762-28.964 21.896-16.509 13.652-40.783 5.593-67.105-8.76 10.777-21.382 35.937-18.46 49.737-8.069-9.832-17.98-19.873-26.243-27.838 6.52-6.729 9.707-13.793 9.751-22.446.056-10.776-4.762-24.018-14.082-42.144-.623-.944-.853-1.3-1.352-1.848-7.656 20.217-13.505 31.274-10.26 52.183-3.135-2.318-32.603-23.02-32.857-23.749 4.379-6.175 6.442-12.268 6.272-18.943-.307-12.062-6.52-24.754-22.32-45.822-6.285 23.261-7.875 40.238-1.083 54.805-9.74-5.21-21.861-11.472-31.482-16.352 2.352-5.199 3.928-9.719 4.028-14.706.327-16.249-18.25-37.486-30.084-47.064-2.226 25.552-.38 44.289 7.06 53.661l-15.865-6.79c-11.429-18.678-35.139-14.367-53.355-9.22 16.714 11.557 31.218 23.076 47.719 16.094 4.442 1.351 14.157 5.277 17.159 6.684l-3.257.867c-3.432 1.927-7.501 3.193-10.817 5.38-8.41 5.55-22.25 18.514-27.197 26.463 22.203-.656 51.196 1.767 61.54-23.836 9.146 4.298 18.371 9.18 27.518 14.107-16.056 2.994-27.545 10.633-44.717 25.461 9.042 1.673 20.867 3.465 30.529 3.546 12.554.105 26.942-3.733 34.18-17.141 9.912 6.516 20.62 14.262 31.162 22.25-10.841-1.459-29.292 4.567-49.31 18.197 13.21 4.378 27.101 8.552 39.914 8.613 9.675.046 19.692-3.781 25.927-12.316 9.446 9.446 17.982 18.53 25.326 27.135-13.076-3.278-29.373.18-52.298 9.64 25.457 14.35 49.138 23.115 65.583 8.058 6.583 10.576 12.094 20.508 16.687 29.89-11.902-6.357-30.906-5.147-54.354 1.238 20.838 15.736 42.65 29.538 62.541 17.994 3.756 11.324 7.152 22.18 8.914 30.91-13.058-10.926-37.933-8.927-53.893-7.497 25.827 26.559 42.04 33.728 57.69 27.685 1.83 15.02 2.624 26.693 2.463 35.341-9.588-10.721-29.43-14.204-51.697-15.387 9.41 13.257 26.967 40.612 51.192 37.052-.77 8.628-1.97 20.123-3.337 32.734-9.393-13-34.02-21.012-49.269-23.932 10.572 21.855 23.404 45.11 45.337 44.035-2.332 10.881-5.055 21.373-8.184 31.458-6.808-13.19-21.093-22.592-44.543-31.56 9.233 34.677 22.138 49.118 37.694 51.113" style="fill:#275a28;fill-rule:evenodd"/><path d="M285.942 640.94c2.006 6.287 5.786 14.508 9.937 23.134 4.035-13.83 23.62-28.632 38.914-37.052-3.885 25.407-7.417 47.902-28.273 56.151 4.584 8.223 9.983 16.69 16.512 25.497 1.101-17.982 24.61-36.965 32.79-44.244 1.29 21.085.729 50.524-19.923 60.463 5.62 6.622 11.832 13.243 18.426 19.865.663-15.285 12.706-30.55 25.586-46.003 3.296 14.154 8.792 47.657-8.395 61.466 7.506 5.888 15.525 12.159 23.809 17.853-1.413-10.342-1.32-23.955 17.586-52.663 5.677 17.748 16.79 45.757-.322 63.674 8.622 4.803 18.69 10.251 28.478 14.86-4.654-13.131-.306-33.762 9.477-53.839 14.308 28.045 20.568 46.775 9.995 61.892 9.248 3.188 18.641 6.293 27.888 9.165-4.538-9.364-7.355-27.285-1.695-53.198 15.848 18.84 31.667 37.387 23.906 58.053 34.956 4.54 54.431 9.406 76.546 18.816 14.993 6.38 32.55 14.854 54.27 26.884l-12.504 17.655c-17.6-11.725-34.692-23.809-55.423-34.048-18.617-9.195-39.852-16.905-67.343-21.531-7.903 23.618-27.44 27.9-65.952 23.777 17.407-18 30.818-27.076 44.72-28.98l-31.164-10.282c-12.042 27.741-51.634 14.98-68.836 8.773 14.474-9.126 29.341-18.436 47.024-18.816-9.464-4.773-18.379-9.24-26.286-13.817-19.623 22.434-45.548 9.268-69.46-2.926 16.032-7.954 36.61-12.891 48.065-11.375-6.888-5.096-14.175-10.775-20.48-15.87-20.33 18.391-40.983 9.623-69.711-12.68 24.331-5.852 37.869-8.08 54.562-1.532-7.279-7.201-14.334-14.768-20.834-22.163-24.177 14.403-43.042-1.544-65.092-24.5 24.735-1.567 32.972-1.827 49.577 4.511a717 717 0 0 1-14.571-23.117c-20.084 9.484-38.462-.545-61.16-33.955 23.98 2.657 37.208 3.778 50.888 14.266a440 440 0 0 1-10.366-23.82c-25.68 5.866-40.141-13.97-53.916-43.006 18.87 3.97 36.018 9.43 46.117 19.78-2.516-9.602-4.943-19.354-6.86-28.955-27.043 1.968-36.872-19.182-46.78-51.195 15.86 5.897 34.017 14.834 43.199 27.922-1.484-9.537-2.624-19.843-3.31-31.172-29.543-2.153-34.422-29.171-38.922-58.178 15.59 10.221 30.921 18.222 38.847 36.214-.043-12.31 1.033-27.31 2.259-36.111-17.696-4.37-29.197-16.419-27.76-62.892 11.666 10.598 28.072 23.456 32.36 40.217 2.453-9.984 5.612-19.852 9.259-29.637-19.22-8.012-24.298-26.781-16.972-65.777 11.925 11.727 24.802 31.071 26.014 44.775 4.488-9.23 10.284-18.938 16.762-28.964-21.895-16.509-13.651-40.782-5.593-67.105 8.76 10.777 21.382 35.937 18.46 49.737 8.07-9.832 17.98-19.872 26.243-27.838-6.52-6.728-9.706-13.792-9.75-22.445-.056-10.777 4.761-24.019 14.081-42.145.623-.943.853-1.3 1.352-1.847 7.656 20.217 13.505 31.273 10.26 52.182 3.135-2.317 32.603-23.02 32.857-23.748-4.378-6.176-6.442-12.268-6.272-18.944.308-12.062 6.52-24.754 22.32-45.822 6.285 23.262 7.875 40.238 1.084 54.805 9.739-5.21 21.86-11.471 31.48-16.352-2.35-5.199-3.926-9.718-4.027-14.705-.327-16.25 18.25-37.487 30.085-47.065 2.226 25.553.38 44.289-7.06 53.661l15.864-6.789c11.429-18.679 35.139-14.368 53.355-9.222-16.713 11.559-31.218 23.078-47.719 16.095-4.442 1.351-14.157 5.277-17.158 6.684l3.256.867c3.433 1.927 7.502 3.193 10.817 5.38 8.411 5.55 22.25 18.514 27.197 26.463-22.203-.656-51.196 1.767-61.54-23.835-9.146 4.297-18.371 9.179-27.518 14.106 16.056 2.994 27.545 10.634 44.717 25.461-9.042 1.673-20.867 3.465-30.528 3.546-12.555.106-26.943-3.732-34.181-17.14-9.912 6.515-20.62 14.262-31.162 22.249 10.842-1.458 29.292 4.568 49.31 18.197-13.209 4.378-27.101 8.553-39.914 8.614-9.674.045-19.692-3.782-25.927-12.317-9.446 9.447-17.982 18.53-25.326 27.136 13.076-3.279 29.373.179 52.299 9.64-25.457 14.349-49.14 23.114-65.584 8.057-6.583 10.576-12.094 20.508-16.687 29.89 11.902-6.357 30.906-5.147 54.354 1.238-20.838 15.736-42.65 29.538-62.54 17.994-3.757 11.324-7.152 22.18-8.914 30.91 13.057-10.925 37.932-8.927 53.892-7.497-25.827 26.559-42.04 33.728-57.69 27.686-1.829 15.019-2.623 26.692-2.463 35.34 9.588-10.721 29.43-14.203 51.697-15.386-9.41 13.257-26.966 40.611-51.192 37.051.77 8.628 1.97 20.123 3.338 32.734 9.392-13 34.02-21.011 49.268-23.932-10.572 21.855-23.404 45.11-45.337 44.036 2.333 10.88 5.055 21.372 8.185 31.457 6.807-13.19 21.093-22.592 44.542-31.56-9.233 34.677-22.138 49.118-37.694 51.113" style="fill:#275a28;fill-rule:evenodd"/><path d="M849.195 860.081c-9.521-9.02-24.017-25.955-34.232-37.119.248 6.935.567 11.35 2.303 14.774 13.292 15.512 26.545 30.732 39.567 44.082 13.72-8.762 35.754-29.653 41.575-35.596 15.408-15.73 32.278-32.351 44.713-50.666-4.665-5.117-9.306-10.765-14.507-15.765-8.326-8.005-18.29-14.352-31.88-14.506l8.02 15.324c6.92.288 13.213 1.83 18.516 5.351-9.91 12.78-20.983 25.068-32.13 36.738-8.504 8.903-17.647 17.447-27.268 25.576-4.781 4.04-9.5 7.978-14.677 11.807m27.394-93.848c.147 4.538.914 8.396 1.591 12.253 3.675-.14 7.805-.769 11.932-1.817.494-3.846.284-7.76-.79-12.065-4.59.038-8.201.72-12.733 1.63M788.806 907.985c2.954 6.145 7.05 5.487 10.732 4.146 2.71-.855 6.879-2.423 10.063-2.579 2.541-.124-.73 4.1-1.572 5.031-2.296 2.544-6.086 6.279-8.58 8.363-4.158 3.475-8.654 5.59-13.694 5.499-15.158-.273-15.492-16.802-17.877-22.17-.728-1.343-2.362-3.093-3.533-4.173.934 5.3 3.459 18.2 8.03 26.688 1.77 3.285 3.787 6.447 5.846 9.517 2.212 3.296 5.108 5.777 11.439 5.74 4.592-.028 8.146-1.714 11.864-4.253 3.366-2.298 7.015-6.4 9.835-11.037 3.468-5.7 5.556-12.592 4.588-17.159-.51-2.408-1.319-5.422-2.6-9.41-1.664-5.183-4.18-6.631-7.177-6.646-4.262-.02-9.474 2.969-13.294 2.959-4.095-.011-4.798-3.558-4.722-7.173.137-6.508 5.19-14.45 8.586-14.936 2.113-.302 5.191 2.962 6.536 4.277-1.441-5.197-2.942-17.235-9.886-17.427-5.877-.163-9.987 8.059-10.061 17.579-.042 5.418.578 12.134 1.758 16.73.974 3.792 2.063 6.989 3.719 10.434m-447.087 10.392 9.358-4.38 4.031 9.316 6.601-2.89c1.432 3.344 2.685 6.687 3.87 10.03l-10.005 4.38-3.774-9.78-5.98 2.798c-1.845-2.885-3.12-6.096-4.101-9.474M307.01 791.306l9.96-.872 1.12 12.794-12.877 1.127-1.106-12.652-9.306.677-.44-12.623 12.215-.889zm4.678-15.62 11.26-.392-1.343 11.1-11.26.393zm495.449 164.876c3.828 1.311 7.584 2.022 11.252 1.982l-.463 11.6c-3.872-.098-7.667-.528-11.221-1.97l-.217 8.802c-3.81-.099-7.543-.532-11.039-1.984l.29-11.78c3.756 1.313 7.441 2.025 11.04 1.985zm4.624-74.357c10.239-1.062 17.555 1.202 21.599 6.335-1.122 1.145-.167.218-2.118 1.916l-15.957 11.202 11.078 18.358 20.778-14.185c2.608-1.78 2.339-5.001 1.17-7.048-4.914-8.607-12.075-19.035-13.266-20.416-7.547-8.744-18.078-14.146-30.123-13.835zm-171.512 59.602 15.713 8.773.293-4.724c5.55 4.102 7.332 6.296 11.901 12.2 4.973 6.425 6.34 8.534.668 15.846-6.664 8.59-15.613 16.196-21.908 24.784 21.745-4.236 31.593-10.095 36.146-21.757 1.679-4.299 1.273-14.093 1.263-23.795 2.69 3.777 5.67 14.673 9 27.583 15.07-1.85 42.7-13.632 58.92-19.867-1.241-7.723-3.117-15.67-4.516-23.222-.833-4.5-1.478-6.507-4.283-9.036-1.662-1.5-5.82-4.787-9.447-6.359-2.032-.88-4.144-1.974-5.818-1.964-2.252.012-3.962 1.531-5.955 3.591-5.18 5.354-11.031 13.97-17.858 26.506-.047-.45-.075-1.744-.077-2.173-.026-5.39-.848-8.887-1.938-11.857-.538-1.469-3.272-7.703-3.71-8.548.741-1.154 1.681-2.181 2.386-3.494.351-2.764.055-9.795-.003-12.78-8.576.025-11.454-.541-16.413-7.906-1.01 2.323-1.98 5.677-1.846 9.142-.779-1.666-1.17-3.665-1.322-4.533-5.873 10.445-5.596 10.366-3.92 16.905 2.322 9.056 3.777 23.662.805 32.618 1.238 5.06.967 11.41.508 12.743-1.532-10.603-4.224-19.012-7.651-25.776-5.416-10.69-17.347-23.073-30.901-27.569-1.262 7.688-1.204 15.941-.036 24.67zm95.407 1.945c-.954-1.037-1.624-2.012-2.54-2.76-3.223-2.629-6.105-3.676-8.69-3.466-5.55.451-9.729 6.696-12.962 15.508 2.865-1.119 18.125-6.838 24.192-9.282m-38.527 14.382c1.386-.575 2.64-.34 4.27-4.027-3.935-8.478-7.806-17.848-11.36-25.906-1.283-2.912-2.804-6.465-4.705-7.024 3.054 11.07 6.522 18.821 11.795 36.957m-72.251-33.925c.5-.986 1.804-3.762 2.54-5.371-1.282-2.331-2.906-3.276-4.636-3.308-3.883-.071-6.48 4.033-8.466 8.508-.662 1.491-.64 3.56-.659 5.341-.05 4.636 4.785 4.273 7.3 4.942-3.714 4.241-5.773 6.476-5.206 8.451 3.97-3.362 8.877-9.648 14.544-9.382.02-.04 1.91-5.338 2.299-6.22-.25-.024-7.396.524-9.134.506-2.445-.027-5.09-.648-6.26-2.046-.573-.685-.506-1.016.005-1.663.52-.66 1.31-1.418 1.964-1.906.939-.703 1.484-1.034 2.711-.183.864.6 2.21 1.624 2.998 2.331zm-125.63 23.572-2.275 5.005c4.833 1.742 7.686 3.589 8.542 5.54-7.801 6.225-10.427 8.26-15.511 18.469-3.955 7.942-5.41 15.033-5.594 20.934-.457 14.667 11.125 22.83 21.09 22.915 5.997.052 11.708-4.745 18.21-11.562-15.237-3.55-30.086-7.715-30.09-22.498-.002-8.108 3.206-14.685 14.327-18.77.705 7.505 1.57 14.287 2.589 19.28 17.893 4.398 43.479 7.568 72.642 7.91 19.756.233 42.411-.998 60.484-4.187-.13-6.369-.249-12.11-.307-16.986-.198-16.523-1.526-21.99-11.68-35.85-1.306 3.22-3.716 11.58-5.193 15.693 2.433 2.266 8.72 12.962 9.115 16.733-24.221 2.253-44.52 3.05-68.691 1.68-11.91-.675-25.991-1.643-37.758-3.25-4.107-.56-7.79-1.31-9.603-2.632-.23-.604-.401-1.416-.494-1.876 1.475-.595 3.157-.872 4.94-1.161 1.578-2.015 3.033-3.969 4.076-6.233a14.9 14.9 0 0 0 1.338-5.32c.426-7.045-8.367-15.473-16.604-15.53-7.549-.052-10.809 5.66-13.554 11.696m-15.199-37.63c-4.49 5.49-8.936 10.675-13.28 15.146a7960 7960 0 0 0-11.651 49.513c4.162-3.528 7.694-7.472 10.557-13.064 1.908-3.724 3.205-8.264 4.822-13.731 3.825-12.937 7.8-25.951 9.552-37.864M257.57 825.05c-13.89 11.737-33.188 6.827-42.101-11.428-3.578-7.327-2.502-12.527 3.35-18.677 3.62-3.804 10.431-7.445 15.269-9.354 8.306-3.278 17.158-4.63 21.283-2.454-11.71 2.269-17.843 6.275-22.643 12.218-2.968 3.677-1.599 7.942 1.011 11.513 2.485 3.4 8.217 7.546 10.28 8.588 5.822 2.94 7.398 3.133 9.573.578 7.367-8.661 9.032-14.428 11.51-19.822l15.71-4.474c-1.405 3.323-2.948 6.442-4.539 9.21-2.276 3.963-2.876 7.57-2.501 9.657l5.548 6.105c1.792-1.004 3.044-2.42 4.905-3.788 3.459-1.92 12.069-3.346 15.501-3.397-3.951 4.103-10.29 8.448-15.597 13.083 1.844 1.702 3.652 3.656 5.525 5.33l4.429-3.492c3.231-1.872 11.153-3.607 14.727-3.401-4.14 4.031-8.61 8.202-12.75 12.52 4.004 3.398 7.944 6.573 11.969 10.04 11.138 9.598 22.89 19.665 34.692 28.409 11.317 8.384 18.965 13.392 30.865 20.511 2.71-3.876 5.756-7.763 7.849-10.5 2.591-1.508 8.961-4.056 13.735-5.602-1.628 4.357-8.544 11.472-11.498 16.977-1.126 2.098-.934 3.429-.058 5.15.623 1.225 1.674 2.284 2.923 3.22 1.987 1.487 8.019 4.843 10.588 6.018 2.163.99 4.4 1.208 6.533.192 1.478-.705 2.985-1.472 4.521-2.448-6.41-6.343-14.752-9.166-20.614-8.82 1.885-6.637 10.608-17.836 19.015-17.395 6.47.339 10.75 8.606 16.794 16.399 4.024 5.19 7.52 6.967 13.536 9.447-1.95 2.351-7.833 8.63-10.008 10.67-3.954-1.669-9.416-2.55-14.104-1.302 1.674 3.04 25.818 12.034 30.358 14.002 2.19-4.64 7.549-20.831 8.49-26.398.487-2.882.294-4.574-.096-5.777-.439-1.357-.458-2.445 1.086-4.001 4.294-4.328 10.92-9.823 13.743-10.67-1.844 3.208-3.146 5.96-.441 11.65 1.343 2.827 3.138 6.267 5.207 10.441-3.071 2.69-10.396 6.678-13.422 9.09-2.78 5.011-6.948 17.229-8.477 21.08-7.977 11.769-9.834 14.737-12.46 15.735-9.851-3.985-29.35-13.55-37.144-17.234l7.608-16.874c.12-1.208-.878-1.036-3.193.765l-11.147 8.032c-3.28 2.583-4.693 3.385-8.117 1.243-4.78-2.254-9.263-4.352-11.573-6.032-3.5-2.547-5.11-5.001-5.132-9.07-.009-1.67.671-4.168.933-6.502l-8.783 6.05c-21.105-12.98-39.19-26.214-55.763-40.066-15.384-12.86-30.095-27.071-46.905-44.945m125.67 121.876c3.78-2.359 7.561-4.464 11.343-6.447l5.614 11.51-11.344 6.446c-2.09-3.661-3.9-7.546-5.614-11.509" style="fill:#050505;fill-rule:evenodd"/><defs><linearGradient id="e"><stop offset="0%" stop-color="#d9dadb"/><stop offset="100%" stop-color="#1b1918"/></linearGradient><linearGradient xlink:href="#e" id="f" x1="429.866" x2="429.866" y1="351.14" y2="428.476" gradientTransform="matrix(.99138 0 0 1.0087 299.622 109.7)" gradientUnits="userSpaceOnUse"/></defs><path d="m725.783 491.002 22.062-27.108 54.607 77.199-1.325.809-53.407-71.562-21.17 21.63z" style="fill:url(#f)"/><defs><linearGradient id="g"><stop offset="0%" stop-color="#d9dadb"/><stop offset="100%" stop-color="#1b1918"/></linearGradient><linearGradient xlink:href="#g" id="h" x1="519.447" x2="519.447" y1="318.398" y2="393.84" gradientTransform="matrix(.86496 0 0 1.15612 299.622 109.7)" gradientUnits="userSpaceOnUse"/></defs><path d="m780.363 565.029 33.814-1.945-65.255-85.276z" style="fill:url(#h)"/><defs><linearGradient id="i"><stop offset="0%" stop-color="#d9dadb"/><stop offset="100%" stop-color="#1b1918"/></linearGradient><linearGradient xlink:href="#i" id="j" x1="440.381" x2="440.381" y1="295.74" y2="388.356" gradientTransform="matrix(.87136 0 0 1.14763 299.622 109.7)" gradientUnits="userSpaceOnUse"/></defs><path d="M721.49 554.418c9.683 2.44 23.18-.106 42.562-3.248l-80.7-102.067Z" style="fill:url(#j)"/><defs><linearGradient id="k"><stop offset="0%" stop-color="#d9dadb"/><stop offset="100%" stop-color="#1b1918"/></linearGradient><linearGradient xlink:href="#k" id="l" x1="292.609" x2="292.609" y1="360.822" y2="469.274" gradientTransform="matrix(1.12513 0 0 .88879 299.622 109.7)" gradientUnits="userSpaceOnUse"/></defs><path d="m749.244 526.786 1.623-1.626-23.646-34.454-45.027-60.311-53.35 61.442 1.752.822 51.389-54.209z" style="fill:url(#l)"/><defs><linearGradient id="m"><stop offset="0%" stop-color="#d9dadb"/><stop offset="100%" stop-color="#1b1918"/></linearGradient><linearGradient xlink:href="#m" id="n" x1="303.13" x2="303.13" y1="270.005" y2="415.524" gradientTransform="matrix(.86953 0 0 1.15005 299.622 109.7)" gradientUnits="userSpaceOnUse"/></defs><path d="M689.734 581.195 563.2 420.22l59.783 167.355c22.966-.217 45.113-2.619 66.75-6.38" style="fill:url(#n)"/><defs><linearGradient id="o"><stop offset="0%" stop-color="#d9dadb"/><stop offset="52%" stop-color="#565757"/><stop offset="100%" stop-color="#868789"/></linearGradient><linearGradient xlink:href="#o" id="p" x1="10.905" x2="10.905" y1="1433.648" y2="1541.634" gradientTransform="matrix(3.18225 0 0 .31424 299.622 109.7)" gradientUnits="userSpaceOnUse"/></defs><path d="M334.324 578.12c98.364-19.29 199.313 4.259 343.64 16.03-128.61-25.269-272.177-52.964-343.64-16.03" style="fill:url(#p)"/><path d="M464.823 565.88c1.125-2.974 8.866-7.645 14.871-11.205 8.656-.12 18.88-.31 28.449.843 3.362.404 6.69.854 9.767 1.634 2.55.645 6.379 2.1 8.746 3.171 4.522 2.045 7.337 4.092 13.362 4.991.833.124 3.996-.685 5.796-.73 3.776-.095 8.948-1.387 9.041-7.382.877-.974 1.534-2.072.823-2.525-.44-.28-1.579-.546-3.152-.042-3.147 1.008-4.887 1.865-5.764 2.141.97-1.364 1.7-2.421 2.375-3.6.98-1.713 1.524-2.654 1.36-4.7-.108-1.326-.615-2.125-1.304-2.175.12-.946.33-1.72-.43-2.431-1.912.965-4.292 5.235-8.212 4.727-4.683-1.148-10.871-1.875-17.288-2.49-11.128-3.445-25.19-10.11-38.747-10.577-6.359-.22-12.672 1.282-17.613 4.342-7.134 5.614-13.934 11.645-21.236 17.785-7.218 5.775-10.183 8.736-19.796 9.098-1.236.046-5.687 3.529-7.817 5.742a5.5 5.5 0 0 1-.986-.259c.048-9.245-7.52-18.06-16.904-18.03-10.163.034-17.728 11.315-17.989 20.657-.179 6.42 1.632 15.102 5.208 18.284 2.858 2.047 4.051.837 5.768 2.314.492.424 1.136 1.225 1.78 2.21a35 35 0 0 1 2.023 3.588c.637 1.318 2.187.79 3.06.889 1.024.115 1.676.618.957 2.84-2.97 9.184-4.653 13.234-7.202 13.467-3.6.329-7.833.008-11.528-.592-3.618-.587-8.931-1.611-12.011-3.723-6.89-4.724-13.846-8.825-22.571-10.796-2.925-.66-7.126-1.153-10.082-1.619-1.731.048-1.926.9-.124 2.668 1.445 1.418 4.704 1.236 7.677 1.8 1.56.295 3.04.797 4.14 1.841-3.207 1.34-9.14 1.367-8.984 3.831.105 1.642 7.556-.267 9.553 1.671-.095 2.345-5.988 2.957-5.338 4.733 1.009 2.757 5.079-.602 6.817.648-.405 1.26-3.612 2.422-3.717 3.483 1.218 1.426 10.832.156 19.17 2.353 10.035 3.318 17.621 12.07 31.542 12.087 3.06.004 5.531-1.15 7.86-4.019 3.909-4.811 8.725-13.99 16.783-31.171 6.256 4.22 12.534 10.433 25.122 13.11 9.753 1.181 7.262 5.202 11.778 6.238 2.743.629 9.356-.256 18.751-.57.107 8.702-9.455 11.549-18.595 21.16-5.817 6.115-10.435 16.467-15.506 25.232-12.696 21.944-5.307 28.872 8.08 33.784 14.245 5.226 24.434 6.77 38.757 9.773 8.47 1.775 16.683 3.696 19.794 6.835 3.9 3.753 4.921 12.629 4.876 18.707.024 7.696-5.415 7.611-6.497 13.308-.537 2.824.306 3.323 2.92 3.27 2.74-.058 5.396-1.246 7.817-3.282 3.775-3.175 6.98-8.299 9.04-13.755 5.25-13.906 5.889-11.67 10.227-18.593 1.924-3.069 2.016-3.714 1.49-7.043 11.84 8.768 16.383 9.972 25.064 13.153 11.72 4.294 20.201 7.767 30.495 15.073 3.676 2.61 6.839 4.859 9.203 10.123.915 1.618 1.184 6.86 3.019 12.073.734 2.085 1.426 3.884 1.863 5.454.676 2.436 1.015 3.19-.885 4.698-3.275 2.598-5.06 5.417-3.715 7.038 5.315.464 8.94-1.75 11.855-5.087 1.429-2.081 4.844-8.62 5.542-11.513.733-3.072.077-5.63.244-8.033.108-1.552.786-3.416 2.239-6.415 1.984-4.095 3.585-8.52 3.126-14.136-2.04-1.96-3.67-2.967-5.167-3.483-3.171-1.09-5.747.024-10.345-1.014-9.473-2.139-20.306-10.566-28.249-16.115-10.084-7.045-11.623-13.713-20.943-18.03-4.861-2.25-11.019-1.642-14.735-3.978-8.269-5.197-6.68-18.935-14.528-38.864-1.748-4.438-4.638-10.755-7.967-15.304-1.364-1.865-1.106-3.925-1.136-5.543-.172-9.456 2.53-20.605-2.716-27.555-5.556-7.36-10.622-7.263-16.52-9.259-7.086-2.4-12.153-6.545-15.137-9.323-3.522-3.28-2.728-8.285-6.632-8.355-.946-.017-3.101 1.902-3.863 2.616-.716-1.433-2.216-4.094-2.927-5.22-2.469-3.907-7.264-1.683-13.372-6.947m80.935-4.955c1.863.496 4.33-.568 4.834-2.409-1.018.153-3.197 1.022-4.471 1.897-.192.132-.284.342-.363.512m-18.128 141.26c-6.762.434-18.657-2.27-27.709-6.748-13.3-6.58-16.499-13.708-31.907-16.381.58-2.273 5.023-3.845 9.57-5.284 12.082-3.827 15.624-7.432 24.709-16.744 3.829 20.582 23.127 37.253 25.337 45.157" style="fill:#050505;fill-rule:evenodd"/><path d="M717.907 565.88c-1.125-2.974-8.865-7.645-14.87-11.205-8.656-.12-18.88-.31-28.45.843-3.362.404-6.689.854-9.766 1.634-2.551.645-6.38 2.1-8.747 3.171-4.521 2.045-7.336 4.092-13.362 4.991-.832.124-3.995-.685-5.795-.73-3.777-.095-8.949-1.387-9.042-7.382-.877-.974-1.533-2.072-.823-2.525.44-.28 1.58-.546 3.153-.042 3.146 1.008 4.887 1.865 5.763 2.141-.97-1.364-1.7-2.421-2.374-3.6-.981-1.713-1.524-2.654-1.36-4.7.107-1.326.615-2.125 1.303-2.175-.12-.946-.329-1.72.43-2.431 1.912.965 4.292 5.235 8.212 4.727 4.683-1.148 10.871-1.875 17.289-2.49 11.128-3.445 25.19-10.11 38.747-10.577 6.358-.22 12.671 1.282 17.612 4.342 7.135 5.614 13.935 11.645 21.236 17.785 7.218 5.775 10.183 8.736 19.796 9.098 1.237.046 5.688 3.529 7.817 5.742.407-.078.638-.13.986-.259-.047-9.245 7.521-18.06 16.905-18.03 10.162.034 17.728 11.315 17.988 20.657.18 6.42-1.631 15.102-5.207 18.284-2.858 2.047-4.052.837-5.768 2.314-.492.424-1.137 1.225-1.78 2.21a35 35 0 0 0-2.023 3.588c-.638 1.318-2.187.79-3.06.889-1.025.115-1.676.618-.957 2.84 2.97 9.184 4.653 13.234 7.202 13.467 3.599.329 7.833.008 11.528-.592 3.618-.587 8.93-1.611 12.01-3.723 6.89-4.724 13.846-8.825 22.572-10.796 2.924-.66 7.125-1.153 10.082-1.619 1.73.048 1.925.9.124 2.668-1.445 1.418-4.704 1.236-7.678 1.8-1.559.295-3.04.797-4.14 1.841 3.208 1.34 9.141 1.367 8.985 3.831-.105 1.642-7.556-.267-9.553 1.671.095 2.345 5.988 2.957 5.338 4.733-1.01 2.757-5.08-.602-6.818.648.405 1.26 3.613 2.422 3.718 3.483-1.218 1.426-10.832.156-19.171 2.353-10.035 3.318-17.621 12.07-31.542 12.087-3.059.004-5.53-1.15-7.86-4.019-3.908-4.811-8.725-13.99-16.783-31.171-6.255 4.22-12.534 10.433-25.122 13.11-9.753 1.181-7.262 5.202-11.777 6.238-2.743.629-9.356-.256-18.752-.57-.106 8.702 9.456 11.549 18.596 21.16 5.816 6.115 10.435 16.467 15.506 25.232 12.696 21.944 5.306 28.872-8.08 33.784-14.245 5.226-24.434 6.77-38.758 9.773-8.47 1.775-16.683 3.696-19.794 6.835-3.899 3.753-4.92 12.629-4.875 18.707-.025 7.696 5.415 7.611 6.497 13.308.536 2.824-.307 3.323-2.921 3.27-2.739-.058-5.396-1.246-7.816-3.282-3.775-3.175-6.98-8.299-9.04-13.755-5.251-13.906-5.89-11.67-10.228-18.593-1.923-3.069-2.015-3.714-1.49-7.043-11.84 8.768-16.383 9.972-25.064 13.153-11.72 4.294-20.2 7.767-30.495 15.073-3.676 2.61-6.838 4.859-9.202 10.123-.915 1.618-1.185 6.86-3.02 12.073-.733 2.085-1.426 3.884-1.862 5.454-.677 2.436-1.015 3.19.885 4.698 3.274 2.598 5.059 5.417 3.714 7.038-5.315.464-8.94-1.75-11.854-5.087-1.43-2.081-4.845-8.62-5.542-11.513-.733-3.072-.077-5.63-.245-8.033-.108-1.552-.785-3.416-2.238-6.415-1.984-4.095-3.585-8.52-3.127-14.136 2.04-1.96 3.67-2.967 5.168-3.483 3.17-1.09 5.747.024 10.344-1.014 9.474-2.139 20.306-10.566 28.25-16.115 10.084-7.045 11.622-13.713 20.943-18.03 4.86-2.25 11.018-1.642 14.735-3.978 8.268-5.197 6.68-18.935 14.528-38.864 1.747-4.438 4.638-10.755 7.966-15.304 1.365-1.865 1.107-3.925 1.136-5.543.172-9.456-2.53-20.605 2.717-27.555 5.555-7.36 10.622-7.263 16.519-9.259 7.087-2.4 12.154-6.545 15.137-9.323 3.523-3.28 2.729-8.285 6.632-8.355.947-.017 3.102 1.902 3.863 2.616.717-1.433 2.216-4.094 2.927-5.22 2.47-3.907 7.264-1.683 13.372-6.947m-80.935-4.955c-1.862.496-4.33-.568-4.833-2.409 1.018.153 3.196 1.022 4.47 1.897.193.132.285.342.363.512m18.128 141.26c6.762.434 18.657-2.27 27.71-6.748 13.3-6.58 16.498-13.708 31.907-16.381-.58-2.273-5.024-3.845-9.57-5.285-12.083-3.826-15.625-7.431-24.71-16.744-3.828 20.583-23.127 37.254-25.337 45.158" style="fill:#4b4f4f;fill-rule:evenodd"/><defs><linearGradient id="q"><stop offset="0%" stop-color="#d9dadb"/><stop offset="100%" stop-color="#1b1918"/></linearGradient><linearGradient xlink:href="#q" id="r" x1="108.445" x2="108.445" y1="343.535" y2="532.968" gradientTransform="matrix(1.23229 0 0 .8115 299.622 109.7)" gradientUnits="userSpaceOnUse"/></defs><path d="m666.693 540.285-2.191 1.919-104.796-141-124.547 135.812-1.902-1.32L560.135 388.48Z" style="fill:url(#r)"/></svg>