<svg xmlns="http://www.w3.org/2000/svg" viewBox="0 0.01 75.91 92.78"><g data-name="Group 32"><path fill="#000101" d="m75.841 8.699-.032-1.7-3.378-.76c-10.772-2.423-19.282-4.174-25.291-5.2A61 61 0 0 0 38.922.006H36.98a61 61 0 0 0-8.217 1.033c-6.009 1.029-14.519 2.78-25.291 5.2l-3.377.76-.032 1.7c-.008.489-.077 4.256-.06 6.1.9 20.99 6.181 36.305 11.461 46.582.049.091.1.183.143.274a81 81 0 0 0 4.17 7.148 91.1 91.1 0 0 0 22.18 23.978s12.691-7.268 23.833-26.614a84 84 0 0 0 2.66-4.785C69.729 51.106 75.013 35.791 75.91 14.8c.017-1.846-.051-5.613-.06-6.1" data-name="Path 112"/><path fill="#fd0" d="m73.569 8.739-1.656-.372c-10.733-2.414-19.2-4.156-25.171-5.179a60 60 0 0 0-7.855-1h-1.82a58.5 58.5 0 0 0-7.87.992C23.226 4.202 14.744 5.946 3.989 8.365l-1.655.372s-.1 5.466-.046 6.693c.151 3.354.43 6.766.829 10.141.5 4.221 1.185 8.4 2.042 12.415a105 105 0 0 0 9.822 27.632 77.3 77.3 0 0 0 8.86 13.185 66.6 66.6 0 0 0 12.221 11.356l1.355.968.535.383.533-.383 1.355-.968a66.6 66.6 0 0 0 12.222-11.356 77.3 77.3 0 0 0 8.859-13.185 104.9 104.9 0 0 0 9.822-27.632 136 136 0 0 0 2.044-12.415c.4-3.375.677-6.788.829-10.141.056-1.227-.046-6.693-.046-6.693" data-name="Path 113"/><path fill="#000101" d="M70.863 10.495c-24.865-5.592-31.1-6.117-32.551-6.119h-.685c-1.39-.006-7.519.482-32.588 6.119 0 0-3.294 56.37 32.912 82.282 36.206-25.912 32.911-82.282 32.911-82.282" data-name="Path 114"/><path fill="#000101" d="M37.945 45.945H11.186a100.3 100.3 0 0 0 6.735 18.829h20.023Z" data-name="Path 115"/><path fill="#fd0" d="M37.944 45.945v18.829H17.921q.788 1.639 1.631 3.214a73 73 0 0 0 8.356 12.441 62.3 62.3 0 0 0 10.036 9.589l.007.008a62.4 62.4 0 0 0 10.022-9.572 73 73 0 0 0 8.348-12.41q.857-1.6 1.66-3.269a100.2 100.2 0 0 0 6.737-18.828Z" data-name="Path 116"/><path fill="#000101" d="M46.907 79.42a73 73 0 0 0 8.347-12.41q.592-1.1 1.157-2.239H37.945v23.4a62.7 62.7 0 0 0 8.962-8.751" data-name="Path 117"/><path fill="#fd0" d="M31.039 38.212h.967v6.177h-.967z" data-name="Rectangle 18"/><path fill="#fd0" d="M42.092 43.53v-1.852h2.589v-.831h-2.593v-1.826h2.591v-.817h-3.537v6.176h3.538v-.85Z" data-name="Path 118"/><path fill="#fd0" d="M53.045 43.562v-5.36h-.939v6.182h3.832v-.822Z" data-name="Path 119"/><path fill="#fd0" d="M19.598 38.192h-1.039l-2.23 4.229-.585-1.123 1.62-3.106h-1.038l-1.107 2.1-1.087-2.091h-1.046l1.633 3.04-.623 1.183-2.2-4.223h-1.045l3.3 6.144 1.1-2.107 1.133 2.107Z" data-name="Path 120"/><path fill="#fd0" d="m19.878 42.315.972-2.12.991 2.12Zm.974-4.157-2.954 6.211h1.053l.557-1.22h2.7l.562 1.222h1.018Z" data-name="Path 121"/><path fill="#fd0" d="M26.931 43.524h-1.2v-4.436h1.158a2 2 0 0 1 2.188 2.088 2.086 2.086 0 0 1-2.15 2.348m3.137-2.423c0-3.1-3.464-2.908-3.464-2.908h-1.833v6.181h1.892c3.726 0 3.4-3.273 3.4-3.273" data-name="Path 122"/><path fill="#fd0" d="M37.116 43.524h-1.195v-4.436h1.158a2 2 0 0 1 2.188 2.088 2.086 2.086 0 0 1-2.151 2.348m3.137-2.423c0-3.1-3.464-2.908-3.464-2.908h-1.832v6.181h1.891c3.726 0 3.4-3.273 3.4-3.273" data-name="Path 123"/><path fill="#fd0" d="M51.004 39.124a3.2 3.2 0 0 0-3.5-.657 3.046 3.046 0 0 0-1.723 3.617s.54 2.609 3.722 2.239a3.84 3.84 0 0 0 1.623-.733v-2.743h-2.767v.8h1.822v1.48a2.32 2.32 0 0 1-2.183.238 2.04 2.04 0 0 1-1.348-2.09 2.07 2.07 0 0 1 1.178-1.994 2.32 2.32 0 0 1 2.576.5Z" data-name="Path 124"/><path fill="#fd0" d="m58.899 42.315.973-2.12.99 2.12Zm.974-4.157-2.954 6.211h1.056l.557-1.22h2.7l.562 1.222h1.018Z" data-name="Path 125"/><path fill="#fd0" d="m32.437 31.025 1.5-2.485-.187-1.032-2.927.979h.009l.385 1.182-.79 1.1 2.678 5.465.01.023.966 1.242h1.778l-1.439-1.675Z" data-name="Path 126"/><path fill="#fd0" d="m47.264 35.16-1.145-4.212-1.4-4.583.009.058-1.541 1.688 1.267 3.032 1.424 4.413.967.9.3 1.055h1.906l-.8-1.5Z" data-name="Path 127"/><path fill="#fd0" d="m41.843 9.57 1.788 2.584.015.021-.377-.018-1.939-2.74Zm8.027 6.353-.306-1.272-.82-.312-1.217-.878-.241-.362-1.323-.812-1.406-.068-2.137-2.948-1.057-.375-1.336-1.02 1.143 1.49-.49-.13.03.013-.683-.173-2.389-2.02 2.03 2.814 1.3.315 1.241 1.917-1.539-.077v.008l.751 1.154 1.185.08-.236 1.094-.119 5.839-13.244.167h-3.014a1 1 0 0 0 0 .151.82.82 0 0 0 .217.537 4.5 4.5 0 0 0 1.576.594l-1.785 1.86.955 4.1-1.521 1.717-.7.521-.941 6.137.525 1.522h1.7l-.832-1.65.812-4.755 3.754-1.942.869-1.3v.014l.424-.695.753-1.727-.959-1.816 1.356 1.943L31.689 27l2.893.228-.042.013 4.744.321.634-1.368-.154 1.422-.338 3.732-.615 4.264.653.952.313.941h1.955l-.854-1.244-.631-.779.652-4.119 1.168-3.735 1.133-3.995-.459 3.443 1.856-1.281h-.034l.034-.024 1.6-3.494-.364-6.073 2.67-.037Z" data-name="Path 128"/></g></svg>