<svg xmlns="http://www.w3.org/2000/svg" viewBox="0 0 299.62 333"><path d="m-30.405 350.643-22.965 48.113c18.142 6.43 27.558 16.19 27.214 30.314-.115 19.061-18.602 28.363-38.467 33.99-3.33 37.777-5.627 75.67 11.712 108.281 15.961 29.626 45.587 55.003 83.48 79.576l50.753 32.726 51.558-28.937c56.955-33.07 100.13-74.638 99.785-123.784 0-29.166-15.846-59.48-21.473-76.705-9.645-33.53-14.238-64.648-12.745-103.574z" class="st0" style="clip-rule:evenodd;fill:#ceaf2e;fill-rule:evenodd;stroke-width:1.14828" transform="translate(66.953 -350.643)"/><path d="m17.364 612.794 181.312-126.77c7.694 14.354 10.335 29.167 10.45 43.52-.23 31.578-22.507 64.074-69.241 92.896l-58.563 34.333ZM-15.477 372.69l-7.464 17.224c12.287 7.464 20.21 21.013 19.75 41.682.23 21.014-18.257 39.96-39.96 47.424a233.5 233.5 0 0 0 .345 33.53l200.144-139.86z" class="st1" style="clip-rule:evenodd;fill:#fff;fill-rule:evenodd;stroke-width:1.14828" transform="translate(66.953 -350.643)"/><path d="M-39.246 538.845c4.133 20.899 16.535 40.534 36.974 58.907l192.91-134.923c-9.186-22.965-12.401-48.686-13.894-74.982zM23.22 388.306c-.69-.23-1.608-.344-2.526-.344v-2.182h-3.675v2.182c-.919 0-1.722.23-2.526.344-1.723.345-3.215 1.034-4.249 2.182-1.378 1.378-2.182 3.33-2.182 5.856 0 2.297.69 4.249 1.953 5.856 1.033 1.034 2.526 1.723 4.478 2.182.689.23 1.607.345 2.526.345v2.526h3.79v-2.641c.918 0 1.722-.23 2.526-.345 1.952-.344 3.33-1.033 4.478-2.181 1.263-1.608 1.952-3.56 1.952-5.857 0-2.296-.69-4.248-2.182-5.856-.918-1.033-2.411-1.722-4.363-2.067m-6.201 12.746c-1.033 0-1.722-.23-2.526-.574-1.608-.574-2.526-1.952-2.526-4.134 0-1.607.574-2.87 1.263-3.674.344-.345.689-.574 1.263-.919.689-.23 1.378-.344 2.526-.344zm8.153-2.067c-.345.69-.919 1.263-1.608 1.378-.23.23-.23.23-.344.23-.69.344-1.378.574-2.526.574v-9.646c1.033 0 1.722.23 2.526.575 1.607.574 2.526 1.952 2.526 4.133 0 1.149-.23 2.182-.574 2.756M45.956 401.282c-.69-1.378-1.378-2.641-1.952-3.33-.575-.919-1.378-1.378-2.297-1.723.689-.344 1.263-.918 1.608-1.378.344-.344.574-1.033.689-1.722.574-1.378.918-2.296 1.033-2.641.344-.574.574-.919 1.033-1.033q.517-.345 1.723-.345h.574v-3.215h-.574c-1.952 0-3.215.344-4.134.919-.919.574-1.722 1.952-2.526 4.248-.69 1.952-1.263 2.986-1.608 3.33-.23.345-.918.69-1.722.69v-9.072h-4.134v21.358h4.134v-9.187c.689 0 1.263 0 1.607.345.345.23.69.919 1.264 1.952.23.574.344.919.574.919 0 .23.23.344.23.574l2.296 5.512h4.823zM166.754 581.331c-.574-.918-1.263-1.263-2.181-1.377-.23-.23-.345-.23-.575-.23-.574 0-1.263.23-1.607.574-.69.574-1.034 1.033-1.034 1.722-.689-1.033-.918-1.722-.918-2.181 0-.574.23-.919.574-1.263.23-.23.574-.23.689-.23.344.23.574.23.918.574l1.378-1.263c-.574-.574-1.263-.919-1.952-1.033-.574 0-1.263.23-1.722.574l-.23.23c-.918.573-1.378 1.377-1.378 2.526-.23 1.033.345 2.526 1.378 4.133l.23.23c.918 1.263 1.952 2.182 2.87 2.297.345.23.69.23.92.23.688 0 1.377-.23 1.951-.575.919-.574 1.263-1.263 1.378-2.182q.345-1.377-.689-2.756m-1.033 2.527c0 .344-.23.689-.574.918-.23.23-.574.23-1.034.23-.344-.23-.918-.574-1.263-.919-.344-.574-.344-1.033-.344-1.378 0-.344.23-.689.574-.918s.689-.345 1.033-.23c.345.23.69.345 1.034.919.574.46.689 1.033.574 1.378" class="st2" style="clip-rule:evenodd;fill-rule:evenodd;stroke-width:1.14828" transform="translate(66.953 -350.643)"/><path d="m164.3 250.5-2.1-3.3 2.9-2 2.2 3.2 1.5-1-5.1-7.5-1.5 1.1 2 3-3 2-2-3-1.4 1.1 5.1 7.3z" class="st2" style="clip-rule:evenodd;fill-rule:evenodd" transform="matrix(1.14828 0 0 1.14828 -22.473 -5.741)"/><path d="M84.882 636.22c-1.033-1.264-2.182-2.183-3.33-2.297-.344-.23-.574-.23-.689-.23-1.033 0-2.182.344-2.985 1.033-.69.574-1.263 1.034-1.608 1.608-.344.344-.574.919-.689 1.607 0 .575 0 1.034.23 1.608 0 .919.574 1.608 1.033 2.526.919 1.378 1.952 2.182 3.215 2.526h.919c.919 0 1.952-.344 2.986-1.033.574-.344 1.033-.919 1.377-1.608.345-.574.575-1.033.69-1.607.23-1.034 0-2.182-.69-3.215-.114-.23-.23-.574-.459-.919m-1.033 3.903c0 .919-.345 1.378-1.034 1.952-.574.574-1.263.574-1.952.574l-.23-.23c-.688-.229-1.607-.688-2.181-1.607-.69-1.033-1.034-1.952-.919-2.64 0-.92.345-1.379 1.034-1.953.689-.344 1.378-.574 2.181-.574h.23c.689.23 1.378.919 1.952 1.722.689 1.149 1.034 2.067.919 2.756M93.265 632.545l-.92.23c.345.688.345 1.377.23 1.951 0 .574-.344.919-.688 1.263-.69.345-1.378.575-2.182.345-.69-.23-1.378-.919-2.182-1.952-.689-1.034-1.033-1.952-.918-2.641 0-.69.344-1.263 1.033-1.608a2.12 2.12 0 0 1 1.378-.574c.574.23.919.345 1.263.689l1.378-1.608c-.574-.574-1.263-.918-1.952-.918-1.034-.23-2.182 0-3.215.689-.574.574-1.034.918-1.378 1.607-.23.345-.574 1.034-.574 1.608-.23 1.033 0 1.952.574 2.985.23.345.344.69.689 1.034.918 1.263 1.952 2.182 3.215 2.296 1.263.345 2.526 0 3.56-.688.23-.23.344-.345.574-.345.689-.574 1.033-1.263 1.263-1.952.344-.919.344-1.722-.23-2.87zM110.833 617.617c-.23-.344-.574-.689-.918-1.033-.69-.575-1.378-.69-2.182-.92-1.263-.344-2.526 0-3.675.69l-.23.23c-.344.23-.573.344-.918.689-.23.23-.574.574-.689.918-.23.345-.344.919-.574 1.378-.23.689 0 1.263 0 1.722.23.69.574 1.608 1.033 2.527l.23.23 1.034 1.033c.688.574 1.377.918 2.181 1.033 1.263.345 2.526 0 3.675-.689l.23-.23c.344-.229.574-.344.688-.688.69-.69 1.263-1.608 1.378-2.527.23-1.377-.23-2.64-1.033-4.133-.115.114-.115-.115-.23-.23m-.574 4.249c-.23.344-.23.689-.344 1.033-.23.345-.575.574-.92.919-.688.344-1.377.574-2.18.344-.92-.23-1.608-.689-2.297-1.607-.23-.345-.345-.69-.574-1.034-.345-.574-.345-1.033-.345-1.607 0-.345.23-.69.345-1.034.23-.344.574-.689.918-.919.69-.574 1.378-.688 2.182-.574.918.23 1.607.69 2.296 1.723.23.344.345.574.575.918.23.69.344 1.263.344 1.838" class="st2" style="clip-rule:evenodd;fill-rule:evenodd;stroke-width:1.14828" transform="translate(66.953 -350.643)"/><path d="m192 226.3 3-2 2.1 3.3 1.6-1.1-5.3-7.3-1.4 1.1 2 2.8-2.9 2-2-2.8-1.6.9 5.3 7.5 1.4-1.1z" class="st2" style="clip-rule:evenodd;fill-rule:evenodd" transform="matrix(1.14828 0 0 1.14828 -22.473 -5.741)"/><path d="M157.683 589.484v-.689c0-.23.23-.689.344-1.607.23-.919.23-1.378.23-1.723.23-.689 0-1.033 0-1.607-.23-.345-.345-.69-.574-1.263-.574-.575-1.034-1.034-1.952-1.034-.69-.23-1.608 0-2.297.69-.23 0-.344.229-.574.344a2.34 2.34 0 0 0-1.033 1.378c-.23.688 0 1.607.574 2.64l.574-.344 1.033-.689c-.23-.574-.344-.919-.344-1.263.23-.344.344-.574.689-.919.344-.23.689-.23.918-.23.345 0 .69.23.92.575.344.344.344.918.344 1.263s0 1.033-.345 2.297c-.344 1.607-.344 2.64-.344 3.33 0 .688.23 1.377.574 1.952l5.626-3.905-1.148-1.492zM121.627 604.297l-1.722 1.263 2.64 10.794 1.723-1.263-.689-2.526 3.33-2.297 2.182 1.378 1.722-1.263zm1.608 6.545-1.034-3.904 3.33 2.297zM141.492 590.403l-1.263.918c.23.69.23 1.378-.23 2.182-.23.69-.344 1.263-.689 1.723l1.034 1.378c.574-.92.918-1.723 1.033-2.641l4.249 6.085 1.608-1.033zM152.516 589.14c-1.034-1.608-2.182-2.526-3.216-2.87-.689-.23-1.378-.23-2.181.229-.23.23-.574.23-.69.344l-.229.23c-.689.574-1.033 1.263-1.263 1.952 0 .919.23 1.722.689 2.641l.574.574c.23.345.574.574.919.69.23.229.574.229.689.229.918.23 1.607.23 2.296-.345.574-.344.919-1.033 1.034-1.722.574 1.033.918 1.722.918 2.296 0 .345-.23.69-.574 1.034-.344.23-.574.23-.918.23-.23 0-.575-.23-.69-.575l-1.377 1.263c.574.69 1.263 1.034 1.722 1.034.689 0 1.378-.23 1.952-.574.23-.23.345-.345.574-.345.69-.689 1.034-1.378 1.034-2.296.23-.919-.345-2.182-1.034-3.33 0-.345-.23-.46-.23-.69m-2.756 2.181c-.345.23-.69.345-1.034.23-.344 0-.918-.344-1.263-.918 0-.23-.23-.345-.23-.345-.23-.574-.344-.689-.344-1.033 0-.345.23-.575.345-.69l.23-.229c.344-.23.688-.345 1.262-.23q.518.344 1.034 1.034c.344.344.574.918.574 1.263s-.23.689-.574.918M120.708 613.828l-.23-.23c-.344-.344-.688-.689-1.033-.689-.574-.23-1.263-.23-1.722 0 .23-.344.344-.919.344-1.378 0-.344-.23-.918-.574-1.263-.23-.344-.344-.574-.689-.689l-.23-.23c-.344-.23-.688-.23-1.033-.23h-.23c-.344 0-.689.23-1.033.23l-.23.23c-.344.23-4.593 3.215-4.593 3.215l5.856 8.497s4.594-3.33 4.823-3.56.345-.229.345-.344c.344-.23.574-.574.574-.918.23-.345.23-.919.23-1.263 0-.46-.115-1.034-.575-1.378m-7.234 1.263-1.378-2.182 2.526-1.608c.345-.23.69-.23.92-.23.344 0 .573.23.688.575.23.23.23.574.23.919 0 .23-.23.574-.574.689zm5.282 1.607c-.23.23-2.64 1.952-2.64 1.952l-1.608-2.296s2.181-1.378 2.296-1.608c.345 0 .574-.23.69-.23.229-.229.573-.229.688 0 .345 0 .574.23.69.575.229.23.229.574.229.689.115.344-.115.689-.345.918" class="st2" style="clip-rule:evenodd;fill-rule:evenodd;stroke-width:1.14828" transform="translate(66.953 -350.643)"/><path d="m44.004 534.023 3.56-2.527-5.283-7.693c.574-.574 1.034-.69 1.378-.69.574 0 1.263.345 2.297.92.574.344 6.774 3.674 6.774 3.674l4.249-2.87-5.856-3.216c-1.378-.689-2.641-1.263-3.675-1.607a4.12 4.12 0 0 0-2.87 0c.344-.92.574-1.608.574-2.182s-.23-1.263-.345-1.952c-.344-1.378-.689-2.526-.689-2.87 0-.575 0-1.034.23-1.379.344-.574.689-.918 1.378-1.378l.574-.344-1.722-2.641c-.345.23-.574.344-.574.344-1.608 1.263-2.642 2.297-2.986 3.215-.344 1.034-.344 2.641.23 5.168.574 1.722.689 2.985.689 3.56 0 .573-.575 1.262-1.263 1.722l-5.168-7.464-3.56 2.526zM79.14 509.335l3.56-2.527-4.593-6.545 2.297-1.607c1.607-1.263 2.87-2.182 3.56-2.871.23-.345.574-.574.688-.919.23-.344.345-.918.575-1.263.344-.918.344-1.722.344-2.87-.23-.92-.344-1.608-.919-2.527-.23-.23-.344-.344-.574-.689-.918-1.263-2.181-2.181-3.33-2.64-1.263-.345-2.526-.345-3.674.229h-.23c-.918.344-2.296 1.263-4.248 2.526l-5.627 4.134 9.99 14.239zm-4.937-18.258a17.5 17.5 0 0 1 2.641-1.608c.69-.344 1.378-.574 1.952-.344.69.23 1.263.574 1.723 1.263.344.574.574 1.033.574 1.608a2.82 2.82 0 0 1-.574 1.722c-.345.574-1.263 1.263-2.641 2.182l-1.952 1.378-3.33-4.938zM28.502 537.467c.344 1.263.574 2.182.344 2.641-.23.575-.689 1.034-1.378 1.608-.344.344-.918.689-1.378.919l1.723 2.64c.689-.229 1.607-.688 2.64-1.377.69-.574 1.264-1.263 1.379-1.952q.345-.518.344-1.034c.23-1.033 0-2.64-.344-4.478l-3.33-17.798-3.675 2.64 2.986 11.598-10.68-6.2-3.903 2.64zM131.732 472.59l3.56-2.526-5.283-7.694c.575-.574 1.034-.689 1.378-.689.574 0 1.263.345 2.297.919.689.344 6.775 3.674 6.775 3.674l4.248-2.87-5.856-3.216c-1.378-.689-2.64-1.378-3.674-1.607a4.12 4.12 0 0 0-2.871 0c.344-.919.574-1.608.574-2.182s-.23-1.263-.344-1.952c-.345-1.378-.69-2.526-.69-2.986 0-.344 0-.918.345-1.263.23-.574.574-.918 1.263-1.378l.574-.344-1.722-2.641c-.23.23-.345.344-.574.344-1.608 1.264-2.641 2.297-2.986 3.216-.574 1.033-.344 2.64.23 5.167.574 1.722.689 2.985.689 3.56-.23.574-.574 1.033-1.263 1.722l-5.282-7.464-3.33 2.526z" class="st1" style="clip-rule:evenodd;fill:#fff;fill-rule:evenodd;stroke-width:1.14828" transform="translate(66.953 -350.643)"/><path d="m211.2 98.2-.8-14.2 7 9.9 2.9-2-10.8-15.3-3.1 2.2.9 14.5-7.1-10.2-3 2 10.9 15.3zM164.5 130.9l-.8-14.4 6.9 10 3-2-10.7-15.3-3.1 2.2.9 14.5-7.1-10.2-2.9 2 10.7 15.3z" class="st1" style="clip-rule:evenodd;fill:#fff;fill-rule:evenodd" transform="matrix(1.14828 0 0 1.14828 -22.473 -5.741)"/><path d="M105.666 473.508c1.378 2.182 2.985 2.986 4.823 2.986 1.722 0 3.56-.574 5.282-1.723.574-.574 1.263-1.033 1.722-1.722.69-.574 1.263-1.263 1.608-2.182l4.937 7.12 3.56-2.527-12.287-17.568-3.56 2.526 5.283 7.693c-.23.575-.574 1.264-1.034 1.723-.574.574-1.033 1.033-1.722 1.607-1.033.69-1.952 1.034-2.641 1.034s-1.263-.23-1.608-.574c-.574-.345-1.263-1.263-2.181-2.641l-2.297-3.215-.574-.919-3.56 2.526zM18.741 551.706l3.56-2.526-12.286-17.569-3.56 2.526 5.282 7.694c-.23.574-.574 1.033-1.033 1.722-.345.574-1.034 1.034-1.723 1.608-1.033.689-1.722 1.033-2.526 1.033-.919 0-1.378-.23-1.723-.574-.344-.344-1.033-1.263-2.181-2.64l-2.87-4.135-3.56 2.526 4.133 5.857c1.378 1.952 2.986 2.985 4.823 2.985 1.722 0 3.56-.574 5.282-1.722.689-.574 1.263-1.034 1.952-1.608.574-.689 1.034-1.378 1.378-2.296zM61.802 515.65l7.12-4.937 4.248 2.985 3.904-2.641-19.406-12.631-3.674 2.526 5.511 22.392 3.675-2.641zm-3.1-11.942 6.89 4.823-4.824 3.33z" class="st1" style="clip-rule:evenodd;fill:#fff;fill-rule:evenodd;stroke-width:1.14828" transform="translate(66.953 -350.643)"/></svg>