<svg xmlns="http://www.w3.org/2000/svg" viewBox="50.4 100.68 691.01 857.76"><path d="M116.078 326.916C45.642 446.706 37.008 550.083 37.85 644.5v121.883h518.155V644.5c.84-94.417-7.793-197.795-78.229-317.584-80.753-137.334-180.85-203.853-180.85-203.853S196.83 189.582 116.078 326.916" style="fill:#18499d;fill-opacity:1;fill-rule:nonzero;stroke:none" transform="matrix(1.33333 0 0 -1.33333 0 1122.52)"/><path d="m207.633 301.33-10.44-4.651-4.271 11.484 18.412 8.447h12.624v-61.98h-16.04l-.095 46.7zM243.192 295.343c0 12.527 9.492 21.926 23.728 21.926 16.611 0 24.772-12.34 24.772-26.864 0-24.012-16.609-37.965-41.666-36.922v12.814c9.682 0 21.451 1.33 24.869 12.53h-.286c-2.848-2.563-7.025-3.986-11.864-3.986-11.296 0-19.553 7.782-19.553 20.502m23.539 9.774c-4.082 0-6.928-3.606-6.928-9.111 0-3.797 1.613-9.111 7.877-9.111 3.512 0 5.884 1.613 7.403 3.891 1.14 5.884-.854 14.331-8.352 14.331M55.874 670.286l.001 78.072H537.98v-78.046l-.61-.061H56.49zM296.93 654.861l.804-.06h239.878l.368.098v-10.56q.049-5.412.05-10.867c0-88.908-10.511-186.398-75.792-297.42-62.873-106.925-138.521-170.274-165.312-190.695zm-.15-147.082-76.91 57.099-.137-.159c-14.573-15.02-24.814-34.268-28.686-55.702l12.43-3.7c2.573 15.598 8.969 29.922 18.192 41.975l.123.125 68.63-50.953.285-.18H189.529a108 108 0 0 1 0-12.875H417.23l-.017-.308c-3.51-63.301-56.118-113.723-120.281-113.723-66.427 0-120.47 54.041-120.47 120.468 0 66.426 54.043 120.469 120.47 120.469 58.646 0 107.638-42.126 118.31-97.708l12.406 3.647c-12.287 60.92-66.229 106.936-130.716 106.936-73.526 0-133.345-59.818-133.345-133.344 0-73.527 59.819-133.343 133.345-133.343s133.342 59.816 133.342 133.343q.001 3.124-.142 6.211l.013.227H303.206l.318.247 68.565 50.905.172-.229c9.18-12.027 15.552-26.31 18.12-41.858l12.44 3.624c-3.866 21.463-14.12 40.734-28.715 55.77l-.128.13-77.042-57.197zm.153-107.987 85.6 49.66-.298-.757a95.3 95.3 0 0 0-25.654-32.374l9.433-8.902c20.188 16.947 34.084 41.159 37.625 68.57l.11.657-106.807-61.962-106.753 61.915v-.305c3.473-27.525 17.387-51.844 37.636-68.854l9.431 8.903a95.3 95.3 0 0 0-25.742 32.588l-.277.572z" style="fill:#fff;fill-opacity:1;fill-rule:nonzero;stroke:none" transform="matrix(1.33333 0 0 -1.33333 0 1122.52)"/><path d="M118.6 721.204h-16.537v-7.565h15.6l-.604-10.51h-14.996v-17.073H89.14v45.727h30.06zM141.964 711.23l2.88 3.414 7.631 17.139h15.733l-13.657-20.62 13.993-25.107h-15.266L144.843 704l-2.88-2.946v-14.997h-12.786v45.727h12.787zM219.893 686.056l-7.498 27.717h-.202l-.067-12.653-.267-15.064h-12.654l1.339 45.727h16.604l2.544-10.713 4.486-17.473h.267l4.486 17.473 2.545 10.713h16.602l1.34-45.727h-12.654l-.268 15.064-.067 12.653h-.201l-7.498-27.717zM289.72 721.204h-16.803v-6.56h15.8l-.603-10.579h-15.197v-7.43h18.209l-.535-10.579h-30.596v45.727h30.261zM298.894 720.937l.535 10.846h33.942l-.603-10.846h-10.311v-34.88h-12.853v34.88zM377.023 686.056h-13.925l-2.208 9.239h-10.847l-2.077-9.239H334.51l12.653 45.794h17.071zm-21.691 35.55-.536-3.146-2.746-13.323h6.898l-2.947 13.323-.536 3.146zM398.313 731.783v-34.948h17.609l-.535-10.779h-29.995v45.727zM463.925 686.056h-13.927l-2.21 9.239h-10.846l-2.075-9.239h-13.455l12.65 45.794h17.075zm-21.692 35.55-.536-3.146-2.746-13.323h6.896l-2.945 13.323-.536 3.146zM494.052 696.032c3.078 0 6.627.602 9.038 1.473l1.137-10.31c-2.208-.938-6.762-1.808-11.716-1.808-17.073 0-23.432 11.113-23.432 22.963 0 15.064 9.707 24.103 23.901 24.103 4.753 0 9.305-.804 11.783-2.01l-1.608-10.31c-2.542 1.005-5.623 1.741-9.304 1.741-6.226 0-11.381-3.548-11.381-12.854 0-8.771 4.35-12.988 11.582-12.988M351.672 275.605c0-12.53-9.49-21.925-23.729-21.925-16.609 0-24.962 12.34-24.962 26.861 0 24.014 16.23 37.967 41.288 36.922v-12.815c-9.682 0-21.07-1.328-24.488-12.526h.285c2.847 2.562 7.212 3.984 12.053 3.984 11.294 0 19.553-7.783 19.553-20.5m-23.538-9.777c4.08 0 6.928 3.608 6.928 9.112 0 3.795-1.614 9.112-7.878 9.112-3.511 0-6.074-1.615-7.594-3.89-1.138-5.886 1.046-14.334 8.544-14.334M378.087 301.33l-10.441-4.651-4.271 11.484 18.413 8.447h12.622v-61.98h-16.039l-.096 46.7z" style="fill:#18499d;fill-opacity:1;fill-rule:nonzero;stroke:none" transform="matrix(1.33333 0 0 -1.33333 0 1122.52)"/></svg>