<svg xmlns="http://www.w3.org/2000/svg" viewBox="47.05 189.3 703.36 799.13"><defs><linearGradient id="a" x1="184.06" x2="184.053" y1="16246.945" y2="17763.32" gradientTransform="matrix(1 0 0 -1 .5 17221.5)" gradientUnits="userSpaceOnUse" spreadMethod="pad"><stop offset="0" style="stop-opacity:1;stop-color:#c0161d"/><stop offset="1" style="stop-opacity:1;stop-color:#ed1c24"/></linearGradient><linearGradient id="b" x1="414.689" x2="414.683" y1="16246.968" y2="17763.344" gradientTransform="matrix(1 0 0 -1 .5 17221.5)" gradientUnits="userSpaceOnUse" spreadMethod="pad"><stop offset="0" style="stop-opacity:1;stop-color:#c0161d"/><stop offset="1" style="stop-opacity:1;stop-color:#ed1c24"/></linearGradient><linearGradient id="c" x1="160.802" x2="160.793" y1="17703.66" y2="15657.37" gradientTransform="matrix(1 0 0 -1 .5 17221.5)" gradientUnits="userSpaceOnUse" spreadMethod="pad"><stop offset="0" style="stop-opacity:1;stop-color:#c0161d"/><stop offset="1" style="stop-opacity:1;stop-color:#ed1c24"/></linearGradient><linearGradient id="d" x1="430.976" x2="430.966" y1="17703.66" y2="15657.37" gradientTransform="matrix(1 0 0 -1 .5 17221.5)" gradientUnits="userSpaceOnUse" spreadMethod="pad"><stop offset="0" style="stop-opacity:1;stop-color:#c0161d"/><stop offset="1" style="stop-opacity:1;stop-color:#ed1c24"/></linearGradient><linearGradient id="e" x1="297.554" x2="297.553" y1="16617.125" y2="16526.871" gradientTransform="matrix(1 0 0 -1 .5 17221.5)" gradientUnits="userSpaceOnUse" spreadMethod="pad"><stop offset="0" style="stop-opacity:1;stop-color:#fafdff"/><stop offset=".17" style="stop-opacity:1;stop-color:#fafdff"/><stop offset=".68" style="stop-opacity:1;stop-color:#fbfcfc"/><stop offset="1" style="stop-opacity:1;stop-color:#8a8d8f"/></linearGradient><linearGradient id="f" x1="467.512" x2="467.509" y1="17137.504" y2="16535.561" gradientTransform="matrix(1 0 0 -1 .5 17221.5)" gradientUnits="userSpaceOnUse" spreadMethod="pad"><stop offset="0" style="stop-opacity:1;stop-color:#c0161d"/><stop offset="1" style="stop-opacity:1;stop-color:#ed1c24"/></linearGradient><linearGradient id="g" x1="431.934" x2="431.931" y1="17230.59" y2="16552.408" gradientTransform="matrix(1 0 0 -1 .5 17221.5)" gradientUnits="userSpaceOnUse" spreadMethod="pad"><stop offset="0" style="stop-opacity:1;stop-color:#c0161d"/><stop offset="1" style="stop-opacity:1;stop-color:#ed1c24"/></linearGradient><linearGradient id="h" x1="380.924" x2="380.921" y1="17268.197" y2="16549.699" gradientTransform="matrix(1 0 0 -1 .5 17221.5)" gradientUnits="userSpaceOnUse" spreadMethod="pad"><stop offset="0" style="stop-opacity:1;stop-color:#c0161d"/><stop offset="1" style="stop-opacity:1;stop-color:#ed1c24"/></linearGradient><linearGradient id="i" x1="130.419" x2="130.416" y1="17138.805" y2="16536.174" gradientTransform="matrix(1 0 0 -1 .5 17221.5)" gradientUnits="userSpaceOnUse" spreadMethod="pad"><stop offset="0" style="stop-opacity:1;stop-color:#c0161d"/><stop offset="1" style="stop-opacity:1;stop-color:#ed1c24"/></linearGradient><linearGradient id="j" x1="164.045" x2="164.043" y1="17211.066" y2="16569.705" gradientTransform="matrix(1 0 0 -1 .5 17221.5)" gradientUnits="userSpaceOnUse" spreadMethod="pad"><stop offset="0" style="stop-opacity:1;stop-color:#c0161d"/><stop offset="1" style="stop-opacity:1;stop-color:#ed1c24"/></linearGradient><linearGradient id="k" x1="318.053" x2="318.05" y1="17411.875" y2="16700.086" gradientTransform="matrix(1 0 0 -1 .5 17221.5)" gradientUnits="userSpaceOnUse" spreadMethod="pad"><stop offset="0" style="stop-opacity:1;stop-color:#c0161d"/><stop offset="1" style="stop-opacity:1;stop-color:#ed1c24"/></linearGradient><linearGradient id="l" x1="279.302" x2="279.299" y1="17321.451" y2="16676.652" gradientTransform="matrix(1 0 0 -1 .5 17221.5)" gradientUnits="userSpaceOnUse" spreadMethod="pad"><stop offset="0" style="stop-opacity:1;stop-color:#c0161d"/><stop offset="1" style="stop-opacity:1;stop-color:#ed1c24"/></linearGradient><linearGradient id="m" x1="294.457" x2="294.444" y1="18227.398" y2="15517.412" gradientTransform="matrix(1 0 0 -1 .5 17221.5)" gradientUnits="userSpaceOnUse" spreadMethod="pad"><stop offset="0" style="stop-opacity:1;stop-color:#c0161d"/><stop offset="1" style="stop-opacity:1;stop-color:#ed1c24"/></linearGradient></defs><path d="M464.505 413.052v4.084c0 9.001.222 18.102.436 26.905.407 16.31.828 33.174-.196 49.752-1.766 28.42-6.003 54.858-12.604 78.572-1.446 5.217-3.211 10.49-4.918 15.587l-1.352 4.055c-2.202 6.663-2.84 8.326-5.871 10.688-4.14 3.213-10.192 5.859-15.014 7.81a472 472 0 0 1-17.571 6.697l-2.582.921c-21.98 7.864-46.887 16.772-50.59 17.434l-3.648.654.455 3.68c1.749 14.24-.173 20.844-2.092 23.875l-4.951 7.811 9.056-1.88c32.269-6.706 46.61-10.624 79.456-23.637 2.79-1.11 5.295-2.075 7.671-2.992 10.899-4.21 19.508-7.528 42.455-19.25 12.663-6.465 15.39-23.868 17.387-36.585.388-2.483.757-4.838 1.163-6.857 7.62-38.161 11.612-75.3 12.208-113.538.017-1.399.044-2.798.069-4.202.147-7.636.29-15.535-.248-23.323-.149-2.082-.535-11.308-.544-11.398l-.113-2.642-2.496-.883s-5.114-1.807-7.163-2.557c-11.183-4.097-23.055-8.13-34.332-8.61zM127.28 413.052l-4.082.172c-11.27.478-23.14 4.512-34.329 8.609-2.052.75-7.157 2.557-7.157 2.557l-2.502.883-.111 2.642c-.005.09-.397 9.316-.538 11.398-.543 7.788-.397 15.683-.254 23.32.024 1.407.051 2.806.072 4.205.595 38.237 4.585 75.373 12.205 113.538.398 2.019.769 4.374 1.166 6.867 1.992 12.707 4.727 30.11 17.38 36.576 22.945 11.717 31.555 15.04 42.457 19.25 2.377.916 4.878 1.88 7.677 2.991 32.835 13.013 47.182 16.93 79.453 23.637l9.057 1.88-4.954-7.811c-1.916-3.031-3.84-9.635-2.084-23.874l.452-3.681-3.655-.654c-3.697-.662-28.59-9.564-50.553-17.42l-2.617-.935a473 473 0 0 1-17.571-6.697c-4.817-1.951-10.873-4.597-15.01-7.81-3.035-2.362-3.668-4.025-5.87-10.684l-1.35-4.05c-1.71-5.101-3.473-10.374-4.928-15.6-6.595-23.71-10.834-50.145-12.6-78.568-1.024-16.578-.607-33.441-.198-49.752.22-8.803.444-17.904.444-26.905zM268.948 107.04c2.962-2.219 4.314-4.914 2.79-8.66-5.471-.412-5.45-.37-9.247 1.851-23.094 13.498-44.449 29.815-63.793 48.676a348 348 0 0 0-42.684 50.399c-25.66 36.865-44.58 77.304-57.372 121.072-2.338 7.98-1.646 9.64 5.754 12.182 9.454 3.246 18.949 3.443 28.523.128 5.153-1.78 8.045-4.716 9.535-10.683 11.118-44.389 27.189-86.582 50.057-125.693 16.905-28.903 37.184-54.729 61.522-76.856 1.568-1.422 12.087-10.281 14.915-12.416M344.713 119.456c24.339 22.127 44.623 47.953 61.523 76.856 22.874 39.101 38.938 81.304 50.053 125.693 1.497 5.967 4.392 8.902 9.54 10.683 9.573 3.315 19.068 3.118 28.52-.128 7.396-2.541 8.095-4.202 5.754-12.182-12.786-43.768-31.71-84.207-57.365-121.072a348.4 348.4 0 0 0-42.683-50.399c-19.347-18.861-40.706-35.178-63.795-48.676-3.8-2.22-3.78-2.263-9.245-1.851-1.535 3.746-.173 6.441 2.789 8.66 2.823 2.135 13.342 10.994 14.909 12.416" style="fill:#231f20;fill-opacity:1;fill-rule:evenodd;stroke:none" transform="matrix(1.33333 0 0 -1.33333 -.667 1119.333)"/><path d="M237.873 130.362c-27.144 28.155-48.31 60.809-65.312 96.72-14.353 30.302-25.248 61.966-33.4 94.733-.759 3.067-1.865 5.235-4.601 6.612-3.682 1.86-9.333 3.117-15.338 3.117-6.6 0-13.628-1.514-18.94-5.406 28.44-97.895 82.131-174.424 167.556-223.969-9.805 9.59-20.374 18.252-29.965 28.193" style="fill:url(#a);fill-opacity:1;fill-rule:evenodd;stroke:none" transform="matrix(1.33333 0 0 -1.33333 -.667 1119.333)"/><path d="M464.193 328.427c-2.738-1.377-3.84-3.545-4.606-6.612-8.151-32.767-19.043-64.431-33.395-94.734-17.013-35.91-38.173-68.564-65.319-96.719-9.59-9.941-20.155-18.603-29.96-28.193 85.421 49.545 139.116 126.074 167.553 223.969-5.304 3.892-12.335 5.406-18.942 5.406-5.998 0-11.656-1.258-15.33-3.117" style="fill:url(#b);fill-opacity:1;fill-rule:evenodd;stroke:none" transform="matrix(1.33333 0 0 -1.33333 -.667 1119.333)"/><path d="M123.13 494.035c1.652 26.714 5.545 53.549 12.733 79.38 1.748 6.277 3.87 12.437 5.928 18.622 2.48 7.461 3.259 10.383 7.589 13.75 4.459 3.465 10.735 6.24 15.944 8.346a453 453 0 0 0 17.722 6.754c24.273 8.682 49.627 17.778 53.8 18.522-.983 7.985-1.598 19.72 2.668 26.453-31.687-6.587-45.766-10.35-78.804-23.443-15.738-6.238-22.088-7.934-49.796-22.087-13.139-6.712-14.052-28.506-16.491-40.717-7.46-37.373-11.532-74.75-12.131-112.838-.138-9.03-.456-18.173.173-27.192.15-2.16.546-11.502.546-11.502s5.14-1.815 7.202-2.574c10.27-3.758 22.112-7.905 33.15-8.373 0 25.686-1.825 51.2-.233 76.9" style="fill:url(#c);fill-opacity:1;fill-rule:evenodd;stroke:none" transform="matrix(1.33333 0 0 -1.33333 -.667 1119.333)"/><path d="M501.564 425.51c2.06.758 7.207 2.573 7.207 2.573s.396 9.342.543 11.502c.628 9.019.31 18.161.172 27.192-.594 38.089-4.675 75.465-12.13 112.838-2.438 12.211-3.35 34.005-16.496 40.717-27.704 14.153-34.05 15.85-49.787 22.087-33.042 13.094-47.119 16.856-78.81 23.443 4.262-6.733 3.653-18.468 2.67-26.453 4.168-.744 29.52-9.84 53.798-18.522a456 456 0 0 0 17.728-6.754c5.207-2.105 11.484-4.881 15.944-8.347 4.33-3.366 5.105-6.288 7.584-13.749 2.06-6.185 4.186-12.345 5.933-18.621 7.178-25.832 11.07-52.667 12.733-79.38 1.592-25.7-.233-51.214-.233-76.9 11.027.468 22.874 4.615 33.144 8.373" style="fill:url(#d);fill-opacity:1;fill-rule:evenodd;stroke:none" transform="matrix(1.33333 0 0 -1.33333 -.667 1119.333)"/><path d="M353.022 514.28v-22.028c0-.955.036-1.523.113-1.713q.18-.502.644-.715c.312-.137.87-.21 1.704-.21h2.825v-3.904h-17.331v3.904h2.86q1.51 0 1.935.193c.278.13.493.332.63.62.138.288.216.895.216 1.821v15.712h-5.641v3.9q2.414.243 3.703.507 1.937.382 4.107 1.046c.809.242 1.557.53 2.254.866zM373.426 499.36c.982 0 1.842.215 2.6.645.748.426 1.335 1.055 1.747 1.868.414.822.627 1.752.627 2.802 0 1.533-.462 2.777-1.383 3.745-.913.965-2.076 1.45-3.47 1.45q-2.132-.001-3.54-1.45c-.929-.968-1.395-2.233-1.395-3.805 0-1.584.457-2.858 1.36-3.818q1.362-1.436 3.454-1.438m-8.817-14.136v3.952c2.566.107 4.624.348 6.147.732 1.533.383 2.81.906 3.833 1.58q1.537 1.007 2.478 2.388c.636.917 1.078 1.976 1.333 3.168q-1.778-1.244-3.365-1.76c-1.057-.345-2.204-.512-3.418-.512q-2.945 0-5.268 1.214-2.323 1.219-3.54 3.258-1.201 2.042-1.202 4.756c0 2.992 1.048 5.455 3.159 7.383q3.159 2.895 8.584 2.897c3.708 0 6.618-.994 8.712-2.98q3.681-3.484 3.683-9.586c0-2.737-.413-5.07-1.247-7.007q-1.244-2.895-3.893-5.122c-1.763-1.481-3.83-2.579-6.215-3.28-2.375-.707-5.638-1.063-9.78-1.08M403.334 514.28v-22.028c0-.955.043-1.523.121-1.713a1.2 1.2 0 0 1 .647-.715c.3-.137.869-.21 1.704-.21h2.823v-3.904h-17.331v3.904h2.86c1.006 0 1.652.064 1.927.193.283.13.498.332.636.62.136.288.209.895.209 1.821v15.712h-5.632v3.9c1.612.163 2.84.33 3.702.507a42 42 0 0 1 4.107 1.046c.8.242 1.559.53 2.256.866zM416.636 502.66l-4.065-.36a9.4 9.4 0 0 0-.223 1.992q-.001 2.898 1.37 5.04c.912 1.434 2.314 2.613 4.218 3.547 1.9.934 4.002 1.4 6.327 1.4q3.2 0 5.795-1.218c1.72-.814 3.021-1.864 3.89-3.151.87-1.291 1.309-2.643 1.309-4.069 0-1.432-.31-2.775-.921-4.025-.69-1.394-1.809-2.746-3.357-4.045-1.55-1.305-4.676-3.392-9.369-6.267h6.768q1.64.001 2.092.176c.294.111.544.336.759.676.213.331.394.912.55 1.725l.156.93h3.908l-1.833-10.288h-2.662l-.232.987h-18.545v3.887c2.721 1.768 6.18 4.385 10.365 7.85 2.147 1.77 3.583 3.303 4.288 4.59.525.937.783 1.928.783 2.961 0 1.192-.49 2.204-1.479 3.03q-1.473 1.235-3.95 1.236c-1.225 0-2.284-.224-3.188-.676a5.07 5.07 0 0 1-2.109-1.92c-.508-.83-.766-1.712-.766-2.638 0-.336.043-.793.12-1.37M154.089 551.019v-6.97q.021-1.471.111-1.73a.76.76 0 0 1 .383-.448q.264-.129 1.438-.129h2.346q2.055.002 3.397.383 1.349.38 2.29 1.581.943 1.2.943 2.878.002 1.435-.667 2.428-.666.99-2.002 1.498-1.334.507-4.077.509zm0 4.726h3.53q2.763.001 4.093.46c.883.31 1.546.771 1.994 1.396q.67.936.67 2.156-.002 1.272-.637 2.17c-.422.603-1.032 1.025-1.833 1.282q-1.2.38-4.287.38h-3.53zm-11.769 8.584v4.446h18.282c2.794 0 4.99-.323 6.59-.981 1.601-.65 2.828-1.588 3.689-2.81.861-1.224 1.287-2.567 1.287-4.026a6.9 6.9 0 0 0-.68-3.022 7.7 7.7 0 0 0-1.967-2.527c-.856-.727-1.985-1.333-3.388-1.807 1.503-.388 2.66-.809 3.457-1.271a7.2 7.2 0 0 0 2.742-2.711c.68-1.163 1.016-2.458 1.016-3.887 0-1.705-.517-3.276-1.541-4.713q-1.544-2.162-4.365-3.29-2.822-1.13-8.261-1.131h-16.86v4.455h1.274c.842 0 1.419.073 1.717.219q.446.215.632.62.187.405.186 1.813v17.941q.001 1.432-.186 1.825-.186.392-.632.624c-.298.155-.875.233-1.717.233zM193.645 564.208q-3.67 0-5.833-2.742-2.726-3.46-2.726-8.927c0-3.647.849-6.526 2.54-8.653 1.459-1.812 3.393-2.72 5.791-2.72 2.41 0 4.343.908 5.788 2.72 1.705 2.17 2.562 5.071 2.562 8.7 0 2.552-.37 4.7-1.098 6.435-.732 1.74-1.717 3.035-2.966 3.895q-1.865 1.291-4.058 1.292m-.091 5.123q7.657-.002 12.397-4.658 4.742-4.663 4.744-11.975c0-3.272-.728-6.178-2.174-8.718-1.443-2.534-3.44-4.494-5.984-5.867q-3.817-2.066-9.216-2.066-7.127-.002-11.67 3.922-5.493 4.728-5.492 12.639 0 7.358 4.813 12.039c3.206 3.126 7.398 4.684 12.582 4.684M230.754 536.599v4.455h1.111q1.776 0 2.192.503c.274.34.416 1.007.416 2.01v3.298l-5.058 4.697-4.098-8.571c-.214-.43-.327-.75-.327-.944q0-.58.405-.786.406-.207 2.044-.207h.642v-4.455h-15.708v4.455h.603q1.615-.001 2.618.676c.666.455 1.157.977 1.463 1.562l6.624 12.785-5.63 6.564c-.43.508-.955.913-1.57 1.223-.617.31-1.37.46-2.261.46h-.461v4.451h14.322v-4.45h-1.068q-1.087.001-1.372-.164-.292-.161-.293-.624 0-.51.808-1.37l8.317-9.01v8.55q0 1.252-.254 1.748c-.171.33-.4.564-.693.684q-.439.186-1.937.185h-.835v4.451h15.065v-4.45h-.83q-1.753 0-1.984-.181a7 7 0 0 1-.568-.535q-.331-.341-.332-1.884v-8.502l8.32 8.966c.522.539.785.981.785 1.334q0 .413-.268.608c-.176.129-.636.193-1.39.193h-1.08v4.451h14.347v-4.45h-.46c-.909 0-1.67-.151-2.287-.461a4.9 4.9 0 0 1-1.566-1.223l-5.631-6.568 6.643-12.782c.292-.572.77-1.083 1.433-1.549q.989-.686 2.63-.688h.62v-4.455h-15.73v4.455h.668q1.589 0 2.002.193.419.193.418.728.001.366-.302 1.012l-4.124 8.587-5.028-4.709v-3.297q.002-1.454.383-1.985.376-.53 2.204-.53h1.127V536.6z" style="fill:#231f20;fill-opacity:1;fill-rule:evenodd;stroke:none" transform="matrix(1.33333 0 0 -1.33333 -.667 1119.333)"/><path d="M289.206 541.63v22.122h-6.982l-5.889-20.022a3 3 0 0 1-.16-.903q.001-1.198 2.234-1.196zm-16.956 22.698v4.446h28.79v-4.446h-1.3q-1.695-.001-2.136-.487-.444-.488-.443-2.397v-17.44c0-1.337.158-2.168.474-2.482.318-.315 1.132-.47 2.459-.47h.92l3.418-9.483-4.2-1.497c-.725 1.846-1.766 3.395-3.114 4.648-1.355 1.253-3.52 1.878-6.509 1.878h-13.928c-2.968 0-5.127-.62-6.48-1.869q-2.033-1.867-3.138-4.657l-4.18 1.497 3.419 9.484h1.175q2.287 0 3.046 2.377l5.67 17.824q.233.711.233 1.145c0 1.283-.913 1.929-2.746 1.929zM323.2 564.208c-2.436 0-4.392-.913-5.828-2.742q-2.724-3.46-2.722-8.927c0-3.647.843-6.526 2.53-8.653 1.466-1.812 3.395-2.72 5.795-2.72q3.615.001 5.785 2.72c1.717 2.17 2.567 5.071 2.567 8.7 0 2.552-.37 4.7-1.101 6.435-.724 1.74-1.716 3.035-2.961 3.895-1.25.86-2.6 1.292-4.065 1.292m-.089 5.123c5.099 0 9.242-1.555 12.4-4.658q4.74-4.663 4.74-11.975c0-3.272-.729-6.178-2.166-8.718-1.446-2.534-3.443-4.494-5.993-5.867-2.538-1.377-5.613-2.066-9.21-2.066q-7.127-.002-11.675 3.922c-3.658 3.152-5.483 7.365-5.483 12.639q0 7.358 4.802 12.039c3.211 3.126 7.406 4.684 12.585 4.684M355.45 551.019v-6.97c.01-.981.052-1.557.112-1.73a.78.78 0 0 1 .378-.448c.181-.086.664-.129 1.438-.129h2.35c1.37 0 2.497.13 3.392.383.904.254 1.661.78 2.299 1.581.62.8.94 1.76.94 2.878q-.001 1.435-.673 2.428c-.439.66-1.112 1.16-1.998 1.498-.896.337-2.248.509-4.073.509zm0 4.726h3.53c1.843 0 3.211.155 4.087.46.888.31 1.55.771 2 1.396q.67.936.67 2.156c0 .848-.216 1.571-.637 2.17-.421.603-1.032 1.025-1.831 1.282-.803.254-2.23.38-4.29.38h-3.529zm-11.77 8.584v4.446h18.28c2.797 0 4.991-.323 6.593-.981 1.601-.65 2.834-1.588 3.683-2.81.864-1.224 1.292-2.567 1.292-4.026a6.9 6.9 0 0 0-.678-3.022 7.65 7.65 0 0 0-1.971-2.527c-.854-.727-1.982-1.333-3.384-1.807q2.259-.58 3.461-1.271a7.2 7.2 0 0 0 2.736-2.711c.681-1.163 1.015-2.458 1.015-3.887q-.001-2.558-1.54-4.713-1.551-2.162-4.364-3.29-2.831-1.13-8.256-1.131H343.68v4.455h1.274c.845 0 1.412.073 1.714.219q.453.215.638.62c.119.27.188.874.188 1.813v17.941c0 .956-.07 1.562-.188 1.825q-.185.392-.638.624c-.302.155-.87.233-1.714.233zM388.361 551.454h6.399l-3.117 8.837zm.966 17.321h7.232l9.659-24.841c.516-1.322.99-2.135 1.396-2.44q.607-.465 2.245-.44v-4.455h-15.22v4.455l.92.022c.843 0 1.44.111 1.775.335.342.224.508.495.508.818q-.001.413-.44 1.705l-.957 2.931h-9.788l-1.206-3.25q-.36-1.041-.36-1.364 0-.37.258-.667c.18-.198.465-.345.87-.436q.388-.095 2.172-.094v-4.455h-12.46v4.455q1.201 0 1.757.207c.36.138.671.344.904.624.24.275.509.787.802 1.546zM446.975 541.054l3.383-9.484-4.167-1.497c-.723 1.864-1.767 3.413-3.117 4.662q-2.04 1.865-6.509 1.864h-24.974v4.455h1.437c1.042 0 1.695.172 1.997.515q.44.524.44 2.55v17.114c0 1.322-.13 2.17-.38 2.54-.258.366-.945.556-2.057.556h-1.437v4.446h15.727v-4.446h-1.454c-1.015 0-1.672-.155-1.98-.465s-.464-1.115-.464-2.425v-19.808h11.718v20.223c0 .985-.113 1.644-.347 1.976-.222.331-1.005.499-2.332.499h-1.214v4.446h15.73v-4.446h-1.319q-1.681-.001-2.125-.487-.429-.485-.43-2.397v-17.533c0-1.262.137-2.05.42-2.376q.43-.483 2.135-.482zM195.327 600.625v-7.95h1.856q3.543 0 4.61 1.252 1.058 1.253 1.059 2.725 0 1.814-1.348 2.892c-.896.724-2.337 1.081-4.321 1.081zm-6.896 0h-1.855q-2.04.002-3.078-.292-1.04-.296-1.817-1.348a3.94 3.94 0 0 1-.774-2.398q0-1.324.774-2.333.775-1.011 1.847-1.296 1.072-.283 3.048-.284h1.855zm-3.422-18.333v3.878h1.455q1.247 0 1.61.427.356.426.357 1.709h-4.202q-5.074-.001-7.807 2.419c-1.826 1.61-2.734 3.56-2.734 5.845 0 1.804.62 3.448 1.864 4.92q1.867 2.215 4.364 2.828 2.5.613 4.313.612h4.202q.001 1.105-.38 1.51-.38.404-1.587.406h-1.455v3.9h13.744v-3.9h-1.45q-1.201-.002-1.588-.397-.388-.394-.388-1.52h4.201q4.953 0 7.747-2.414c1.866-1.615 2.795-3.595 2.795-5.945q0-2.775-1.78-4.96c-1.194-1.454-2.666-2.367-4.427-2.74q-2.641-.563-4.335-.564h-4.2c0-.854.115-1.426.358-1.71q.352-.425 1.618-.426h1.449v-3.878zM212.089 610.745h13.888v-3.938h-.914c-.886 0-1.43-.053-1.636-.142-.323-.15-.559-.362-.7-.634q-.216-.406-.216-1.532v-7.571l8.87 8.225c.393.37.635.617.717.745.08.133.12.24.12.336a.48.48 0 0 1-.233.43c-.159.09-.555.143-1.192.143h-1.146v3.938h12.872v-3.938h-.431q-.89 0-1.24-.091-.349-.097-.848-.4-.5-.301-1.295-1l-6.875-5.952 8.2-11.076q1.06-1.426 1.55-1.691c.435-.245 1.064-.367 1.877-.367h.55v-3.938h-14.36v3.938h.574c1.05 0 1.683.044 1.907.138.223.1.339.22.339.37q-.002.246-.637 1.162l-5.006 7.139-4.313-3.738v-2.863q0-1.05.206-1.458.201-.408.582-.581c.25-.113.753-.169 1.518-.169h1.16v-3.938h-13.888v3.938h1.046c.81 0 1.347.061 1.623.194.271.125.474.337.595.62q.162.347.164 1.67v15.544c0 .844-.062 1.404-.186 1.692q-.182.428-.595.642c-.275.14-.765.215-1.476.215h-1.171zM344.978 649.855c0-26.328-21.346-47.673-47.675-47.673s-47.673 21.345-47.673 47.673 21.345 47.673 47.673 47.673 47.675-21.344 47.675-47.673" style="fill:#231f20;fill-opacity:1;fill-rule:evenodd;stroke:none" transform="matrix(1.33333 0 0 -1.33333 -.667 1119.333)"/><path d="m310.808 662.697 9.592 7.678.099.073c1.169-.274 3.001-.815 5.543-1.877 3.121-1.304 5.875-3.029 7.445-4.095l.157-.102a38.9 38.9 0 0 0 2.793-14.52q0-1.985-.195-3.922l-.074-.096c-1.206-1.45-3.403-3.907-6.081-6.051-2.34-1.874-4.042-2.923-5.074-3.478l-.076.078-11.562 8.372-.081.07c-.1 2.228-.34 6.36-.844 9.945a64 64 0 0 1-1.61 7.806zm1.65-20.227c-1.22-.944-3.676-2.683-7.286-4.503-3.938-1.986-7.443-3.018-9.278-3.474l-.085-.025-2.673-15.159-.04-.102c.867-.815 2.365-2.069 4.761-3.644 2.878-1.892 5.905-3.225 7.654-3.921l.107-.032a39.03 39.03 0 0 1 16.595 8.084l.138.13c.528 1.801 1.35 5.027 1.632 8.481.218 2.653.177 4.527.083 5.73l-.126.107-11.37 8.234zm26.24 2.894a28.3 28.3 0 0 0 2.927-4.408l.052-.105c.59 2.91.9 5.921.9 9.003 0 7.493-1.83 14.566-5.066 20.797l-.03.09a28.39 28.39 0 0 0-1.674-5.279l.02-.082a41.3 41.3 0 0 0 3.01-15.526q-.001-2.221-.23-4.384zm-36.231-40.49c10.462 1.193 19.852 5.966 26.912 13.06l.151.156a28.432 28.432 0 0 0-5.54-.029l-.09-.083a41.4 41.4 0 0 0-17.992-8.76l-.084-.122a28.5 28.5 0 0 0-3.207-4.063zm-41.248 24.269a28.4 28.4 0 0 0-4.963 1.838l-.135.068a45.57 45.57 0 0 1 20.778-21.605l.165-.08q-.219.493-.43 1.017a28.4 28.4 0 0 0-1.319 4.262l-.1.05a41.86 41.86 0 0 0-13.874 14.399zm19.206 18.914-13.536-3.858-.143-.051c-.499-1.098-1.179-2.845-1.883-5.416-.896-3.27-1.232-6.512-1.358-8.404l-.012-.162a39.44 39.44 0 0 1 12.944-13.404l.2-.002c1.9.061 5.133.285 8.418 1.063 2.76.654 4.588 1.312 5.685 1.78l.028.103 2.677 15.185-.102.07c-1.575 1.063-4.497 3.224-7.5 6.416-2.767 2.943-4.479 5.415-5.304 6.72zm-13.853 35.019c-7.378-6.83-12.484-16.082-14.043-26.479l.166.132q.332.293.68.585a28.5 28.5 0 0 0 3.51 2.49l.104.067a41.5 41.5 0 0 0 9.41 17.706l.062.08a28.5 28.5 0 0 0 .223 5.515zm27.918 8.219q1.395.093 2.812.094c6.02 0 11.743-1.287 16.912-3.6l.074.02a28.5 28.5 0 0 0 5.166 1.45l.099.016a45 45 0 0 1-22.251 5.854 45.4 45.4 0 0 1-7.255-.58l-.193-.026q.479-.277.97-.584a28.5 28.5 0 0 0 3.544-2.648zm.251-2.383c-1.477-1.137-4.071-3.282-6.356-5.94-1.865-2.17-2.958-3.785-3.569-4.807l-.035-.061 6.35-10.434.031-.072c2.064-.035 6.049-.174 9.142-.72h.002c3.011-.53 6.685-1.714 8.677-2.397l.138-.055 9.53 7.627.08.073c-.22 1.164-.693 3.075-1.721 5.798-1.213 3.214-2.874 6.067-3.881 7.66l-.056.086a38.9 38.9 0 0 1-15.771 3.319q-1.144 0-2.273-.065zm-26.694-13.091a39.1 39.1 0 0 1-8.675-16.32l.08-.245c.647-1.79 1.856-4.782 3.602-7.649 1.546-2.542 2.78-4.106 3.561-4.985l.122.03 13.683 3.901.14.054c.857 2.06 2.494 5.858 4.192 9.052a64 64 0 0 0 4.26 6.897l-.076.105-6.374 10.473-.073.016c-1.196.138-3.085.25-5.789.124-3.466-.162-6.72-.872-8.537-1.338z" style="fill:url(#e);fill-opacity:1;fill-rule:evenodd;stroke:none" transform="matrix(1.33333 0 0 -1.33333 -.667 1119.333)"/><path d="M321.054 452.89c5.5-4.625 1.775-8.91 1.775-8.91s-1.025.535-4.4 3.285-9.375 7.5-9.375 7.5c2 1.875 6.5 2.75 12-1.875m28.514-224.609c8.287-7.85 21.773-7.685 22.486.359.8 9.035-12.109 8.024-22.256-.16zm-62.447-8.611c-1.432 1.416-4.066 3.612-8.025 5.387-7.25 3.25-19.572-.806-15.833-5.833 4.833-6.501 15-4.167 23.666 0q.224.106.453.22zm45.643-15.861c8.362-5.914 17.33-10.92 17.33-10.92 2.835-2.832 6.611-12.437 6.611-12.437 1.944 1.896 8.223 10.938 8.223 10.938s14.833-1.667 26.833 7.833c9.645 7.635 12.334 25 12.334 25 5.667 2.333 10 9.5 10 9.5-3.5-.834-11.167.667-11.167.667s-3.5 11-14 19-21.014 9.177-21.014 9.177c-2.014 3.345-2.865 5.381-2.865 5.381-1.546-2.108-3.121-5.891-3.121-5.891-9.343-2.103-17.048-5.923-20.825-8.022l-.22-.103c.065 4.438.829 7.879 1.295 10.208 1 5 3.284 12.548 3.284 12.548 4.784-.576 8.716-2.548 10.09-4.423 1.376-1.875 3.5-7.75 3.5-7.75 2.75 8.25 21.626 21 36.626 21.625 19.361.806 22.3-8.541 22.3-8.541s6.7 28.916 22.325 47.29c15.625 18.376 37.375 19.126 46 19.376s11.973-3.354 11.973-3.354-1.598 3.104-1.848 5.354 2.5 10.625 8.875 24.75 16.125 28 33.25 43.125 24.75 12.5 24.75 12.5c-3.25 3-10 1.875-17 0s-34.625-13-65.125-20.75-57.625-10.25-76.25-10.125-23.375 1.125-25.875-2 1.086-6.141 1.086-6.141 1.539 5.766 4.414 4.266 5.75-7 3.125-17-10.25-14.625-18.5-15.25-21.625.625-21.625.625-2.412 7.694-17.75 24.25c-15.75 17-27.5 21.25-42.125 27.125-13.658 5.486-13.625 7.375-14.5 13.25s1.875 8 1.875 8c2.625-2.75 1.875-5.125 3.128-7.33s8.497-4.545 18.247-7.295 14.625-6.375 19.375-10.25 2.75-7.75 5.5-11.25 10.875-3.125 14.375-1.25 7 7.125 7 7.125-.625-.125-2.375.25-2.75 1.875-3.25 3.375-1.029 5.999-1.029 5.999c-2.153-5.751-4.846-2.624-5.596-.25-.75 2.376-1.376 6.319-1.376 6.319-.876-2.182-3.25-2.818-4.25-2.443s-2.874 2.25-3.75 4.75c-.874 2.5-2.228 5.227-2.228 5.227s-1.146-4.477-2.771-3.352-2.125 2.375-3 5.125-1.53 6.186-1.53 6.186-.845-1.811-2.22-3.061-2.75.875-3.591 2.777c-.84 1.901-.849 4.929-.849 4.929-.69-.294-2.31-3.706-3.81-3.706s-2.25 1.25-.875 3.75 3.375 3.75 5.75 3.25 2.437-6.372 2.437-6.372c1.688 1.128 2.938 4.122 2.938 4.122s3.5-2.25 5.586-4.251 1.128-5.73 1.128-5.73c2.213 1.896 3.286 2.73 6.16 1.106 2.876-1.625-.75-4.875-.75-4.875 4-.375 5.376 2.625 5.376 2.625s2.375-.5 4.5-1.75 2.369-8.069 2.369-8.069c2.119.806 2.88 5.819 2.88 5.819s.876-.375 2.75-1.875c1.876-1.5-.112-8.222-.112-8.222 2.513 1.028 4.04 5.375 4.04 5.375 4.053-2.347 4.073-4.153 4.323-5.528s.169-5.621.169-5.621c2.169 3.627 3.956 4.62 6.82 4.8 2.866.179 4.386.196 5.136.946s-.5 6.625-1.125 13.75c-1.097 12.502-1.5 18.125-2.875 19.875s-3.582 4.045-3.582 4.045.582-3.295.707-8.545-3.375-4.75-6-2.875-8.04 5.882-8.375 7.125c-1.25 4.625-.625 6.125-7 11.5-5.754 4.85-15.25 9.75-31.875 25.625s-26.183 38.377-26.183 38.377-5.686-10.641-4.817-17.752c1.375-11.25 7.875-18.875 7.875-18.875s-18.253.54-27.564-2.855c0 0 4.689-5.52 2.814-8.77 0 0-6.768 5.538-16.572.394 0 0 8.197-3.02 8.072-8.394 0 0-10.75.875-14.625-6.375 0 0 6.875-.25 6.375-4.375s-4.375-8.625-13.125-11.625c0 0 1.125-1 3.875-3.375s4.75-4.125 4.875-9.5-.375-8.5-2.125-11.375-1.75-6.625-1.75-6.625 3.625.875 5.25.5 3.125-1.375 4.625-9.5 1.625-11.375 1.625-11.375 5.254 5.832 8 4.5c4.125-2 4.5-5 5-9.625s1.75-7.5 1.75-7.5 2.625 5.25 5.125 5.875 5.5-.375 5.75-5.875.125-10.125 1.875-12.625c0 0 4.25 4.125 7.125 4.125s8.625-3.25 8.75-12.375c0 0-25.5.25-44.625.5s-24.625 2.125-28.5 15.5c-3.189 11.006 1.875 21.875 8.625 11.5 0 0 4.489 9.108-9.5 8.5-11.5-.5-58.797 1.67-96.375 11.375-41.625 10.75-58.15 19.958-65.25 21.125-9.125 1.5-12.144-1.314-12.144-1.314s7.894-.561 13.269-4.186 26.125-20.125 37.875-39c11.409-18.327 13-30.125 11.144-41.358 0 0 6.606 5.608 30.98-.517 24.376-6.125 36.767-26.943 42.75-39.75 7.126-15.25 4.376-22.25 4.376-22.25s2.625 3.875 4.625 5 22.75 6.75 43.25 6.75 29.125-1.25 33.75-3.5 5.772-6.973 7.261-14.674c0 0 2.489 6.049 4.989 6.924s7.25-.625 16.5-1.875 13.083-1.803 13.083-1.803.042-10.197.292-17.697 1.875-16.375 1.875-16.375-6.875 8.083-16.375 12.583-15.666 3.5-15.666 3.5-2.478 6.45-3.406 7.975c0 0-2.094-5.975-2.928-8.808 0 0-6.493-2.175-12.333-7-3.833-3.167-7.136-8.502-7.136-8.502s-6.78-.22-11.488-.776c0 0 4.203-6.567 5.247-9.478 0 0-2.956-7.91-.29-18.077s4.167-12.667 4.167-12.667.254-6.082-.123-8.791c0 0 3.623 2.29 5.456 3.624 0 0 6-7.5 17.834-9.5s18.5.834 18.5.834 7.5-5.562 10.167-7.115c0 0 .833 7.947.999 10.78 0 0 5.83 3.333 12.81 7.558l.195-.18c3.126-3.552 11.597-13.942 14.162-24.877 3.166-13.5 2.167-27.834-1.5-32.5s-11.335-4.167-13.834 0c-2.5 4.167-1 8.5 3.834 11.834 0 0 5.498-5.078 10.332-6.706 0 0-4.5 16.706-2.666 32.539 0 0-14.63-8.04-25.732-8.52 0 0 4.233-5.814 7.399-8.147 0 0-4.833-6-7.333-11.333 0 0-4.242-1.542-6.121-2.688 0 0 3.12-4.145 4.788-6.312 0 0-.5-10 8-16.333 8.499-6.334 20.742-7.43 30.454-2.632 0 0 3.085-1.599 5.648-4.15 0 0 1.23 6.78 1.564 9.948 0 0 10.833 10.166 10.333 39.5 0 0 2.667 1.666 5.667 5 0 0-6.501 3.834-8.667 5.834 0 0-4.848 13.919-10.678 24.157z" style="fill:#231f20;fill-opacity:1;fill-rule:evenodd;stroke:none" transform="matrix(1.33333 0 0 -1.33333 -.667 1119.333)"/><path d="M390.762 392.557s5.834-6.166 2.667-18c0 0 17.167-.667 48.667-8.667s50.833-17 50.833-17 1.667 16.167 16.167 38.5c12.347 19.017 35.166 34.666 35.166 34.666s-29.166-10.666-52.833-17c-23.667-6.332-50.166-11.166-71.333-12.166s-29.334-.333-29.334-.333" style="fill:url(#f);fill-opacity:1;fill-rule:evenodd;stroke:none" transform="matrix(1.33333 0 0 -1.33333 -.667 1119.333)"/><path d="M418.806 289.29s5.623 29.1 30.123 46.933c14.857 10.814 37.5 11.167 37.5 11.167s-15.333 6.833-35.833 12.833-57.5 11.5-57.5 11.5-5.313-10.42-15.657-14.126c0 0 17.824-5.707 29.657-21.54 14.01-18.746 11.71-46.767 11.71-46.767" style="fill:url(#g);fill-opacity:1;fill-rule:evenodd;stroke:none" transform="matrix(1.33333 0 0 -1.33333 -.667 1119.333)"/><path d="M348.763 356.723s5.333-15 3.333-38.833-6.075-39.664-6.075-39.664 10.742.664 13.242-8.836c0 0 4 7.5 16.333 13.167s25.167 8.833 40 3.166c0 0 2.362 24.687-6.5 40.5-8.5 15.167-23.5 31.5-60.333 30.5" style="fill:url(#h);fill-opacity:1;fill-rule:evenodd;stroke:none" transform="matrix(1.33333 0 0 -1.33333 -.667 1119.333)"/><path d="M55.429 421.14s18.387-12.905 32.75-34c16-23.5 13.5-39.25 13.5-39.25s19 10.5 50.5 17.5 51.5 8 51.5 8-3.5 10.75 1.73 17.78c0 0-31.48-.78-68.98 6.22s-81 23.75-81 23.75" style="fill:url(#i);fill-opacity:1;fill-rule:evenodd;stroke:none" transform="matrix(1.33333 0 0 -1.33333 -.667 1119.333)"/><path d="M204.573 370.597s1.97-9.063 13.538-13.51c0 0-18.787-3.78-30.859-22.488-12.073-18.71-9.573-41.96-9.573-41.96s-3.5 24.5-24 40.25c-17.092 13.132-32.65 14.391-43.7 13.946 0 0 15.2 10.305 48.95 16.555s45.644 7.207 45.644 7.207" style="fill:url(#j);fill-opacity:1;fill-rule:evenodd;stroke:none" transform="matrix(1.33333 0 0 -1.33333 -.667 1119.333)"/><path d="M323.292 209.032c-3.77-2.622-8.52-5.637-13.072-8.433l.145-.272c3.174-4.3 8.684-12.303 11.814-19.937 5.125-12.5 4.768-29.211 2.5-35.625-3.625-10.25-11.125-11.75-15.125-10.5s-9.5 4.375-7.875 11.125 7.125 10.75 7.125 10.75c2.125-1.75 6.75-4.25 6.75-4.25-2.625 10.5-1.25 21.875-1.25 21.875-5.625-3.375-17-5.875-17-5.875 3.375-3.625 5.875-5.125 5.875-5.125-4.75-5-9.375-13.25-9.375-13.25-1.75-.375-5.252-1.952-5.252-1.952 1.122-1.7 3.627-4.798 3.627-4.798 1.125-15 12.25-19 20.625-20s16.5 4 16.5 4c2.125-1.125 4.25-3.375 4.25-3.375.5 2.5.625 7.75.625 7.75s4.875 8.125 6.75 18 1 21.25 1 21.25c2.75.5 5.625 2.375 5.625 2.375-2.75.875-8.25 5-8.25 5s-1.375 4.125-6 14.375c-3.78 8.378-8.146 15.003-9.614 17.142z" style="fill:url(#k);fill-opacity:1;fill-rule:evenodd;stroke:none" transform="matrix(1.33333 0 0 -1.33333 -.667 1119.333)"/><path d="M322.863 211.822c-.946.94-1.77 1.857-2.434 2.735-3.75 4.953-7.639 9.952-11.496 14.612l-.132.224c-15.486-10.097-25.665-16.868-34.622-17.378-6.74-.385-13.923 1.582-14.666 8.458-.667 6.167 7.583 10.417 16.54 8.917 8.154-1.366 12.772-6.463 14.169-8.251l.114-.15c5.728 3.14 12.71 7.676 16.803 10.402l-.303.279c-5.703 6.718-11.272 12.532-16.15 16.177-8.757 6.543-14.786 7.175-21.208 7.11 0 0-1.674 4.058-3.05 7.183 0 0-2-5.125-2.624-7.625 0 0-5.25-1.25-10-4.5s-8.125-9.375-8.125-9.375-6-.125-10.375-.5c0 0 2-3.75 4.5-7 0 0-2.375-7.375-1.25-14.875s2.875-13.375 4.25-15.75c0 0 0-4.625.125-6.375 0 0 2.125 1.375 4.875 3.25 0 0 4.893-8.922 17.125-10.125 15.25-1.5 19.375 1.375 19.375 1.375s3.875-3.75 7.375-6.875c0 0 .375 5.25.5 9.5 0 0 18.724 10.083 31.122 18.132z" style="fill:url(#l);fill-opacity:1;fill-rule:evenodd;stroke:none" transform="matrix(1.33333 0 0 -1.33333 -.667 1119.333)"/><path d="M320.429 456.64c7.625-4.875 6.5-12.75 5.75-15.875s-4.625.5-11.25 5.375-11.841 7.917-11.841 7.917c2.534 2.793 9.716 7.458 17.34 2.583m27.384-226.467c2.448 2.165 8.042 6.693 12.966 7.617 6.526 1.225 13.15-.275 14.026-7.275s-5.5-13.75-16.875-9.875-15.76 11.017-18.333 23.75c-3.167 15.667 3.23 28.988 6 42.834 3 15 4.666 46.833 1.666 60.833-2.474 11.543-8.534 21.303-24.166 37.5-12.708 13.167-27.292 17.833-41.042 23.958s-13 11.625-12.25 19.25 7.25 14.5 7.25 14.5c-.75-3.375-.125-7.125 1.34-10.033 1.463-2.908 3.66-2.592 2.035-4.217s-.375-3.25 5.75-5.625 13.875-3.625 22-7.75c8.175-4.15 11.75-8.375 12.875-13.5 1.184-5.399 3.875-5.375 8.75-4.875s7.375 3.5 7.375 3.5c-2.375.125-4.625 2.25-10.25 7.75s-13.125 10.625-21.625 18.5c-4.31 3.993-9.625 4.875-9.25 10.5.217 3.245 2.875 6.375 8.875 6.125s9.625-4.25 16-8.875 14.875-6.25 21.125-10.375 9.426-8.16 9.426-8.16 2.199.535 4.324.785 1.75 2.25 1.292 8.708c-.45 6.337-1.38 11.83-1.38 11.83s-.62-1.33-3.237-2.095-4.717.932-10.383 5.098c-5.666 4.167-5.167 6.667-7 10.667s-7.5 7.167-23.346 18.982c-25.443 18.971-37.145 44.104-37.145 44.104s-6.676-17.92 16.824-39.586c0 0-4.833-2.667-7.333.833s-4.5 6.834-4.5 6.834-14.354.426-24.594-.37c0 0 5.76-5.797-1.24-11.464 0 0-4.353 4.733-10.843 4.366 0 0 7.177-6.2 3.177-11.2 0 0-6.334 1.168-10.5-1.666 0 0 2.167-1.666 3.833-4.5 0 0-.167-3.166-2.833-7.666s-8.667-5.667-8.667-5.667 6.167-3 6.167-13-2.167-11.833-3-14c0 0 4.833 1 7.333-3.333s3.24-15.81 3.24-15.81 4.094 3.977 8.094 1.644 5.832-9.862 5.916-13.348c0 0 4.084 4.68 8.084 2.014s4.43-8.23 4.38-16.116c0 0 4.953 4.449 10.953 1.116s6.5-10.167 6.667-13.667c0 0 14.5-.333 19.833-1.333s10.832-6.334 9.666-16.167-10.666-11.334-16-8.5-5.5 9.333-2.833 12 5.667.834 7-2.666c0 0-5.333 1.5-5.166-2.5s5.832-6.167 9.999-4.167 4.667 11.166 2.167 14.833-4 5-26.333 5.167-63 2.167-77.333-8c-14.334-10.167-20.584-18.25-24.334-36.833-3.572-17.702-2.5-24.334-2.5-24.334s19.5 8.5 47.167 7.5 36.467-3.369 38.65-14.35c0 0 .517 4.016 10.517 2.35s23.333-3.333 23.333-3.333 1 14.167 3.333 23c0 0-1-14.5-1.166-30.833-.167-16.334-.168-28.333 11.499-43.5s17.662-21.773 38.33-32.47c0 0 2.755-4.154 5.296-10.676 0 0 2.542 3.645 5.208 8.812 0 0 17.834-.5 27 8s10.334 19 12 24.5c0 0 4.667 1.5 8 4.5 0 0-4 .334-8.5 1.334 0 0-4.145 12.455-14.667 19.833-10.875 7.625-18.5 8.333-18.5 8.333s-1.708 2.55-2.438 4.358c0 0-1.23-1.858-2.562-4.691 0 0-9.55-1.952-21.297-8.49l-.201-.135c.23-4.602 1.273-10.093 3.998-16.375a20 20 0 0 1 2.739-4.545z" style="fill:url(#m);fill-opacity:1;fill-rule:evenodd;stroke:none" transform="matrix(1.33333 0 0 -1.33333 -.667 1119.333)"/></svg>