<svg xmlns="http://www.w3.org/2000/svg" viewBox="0 0 152.84 197.73"><path fill="#0097d7" d="M75.78 166.74a53.65 53.65 0 0 1-38.375-16.272l17.49-50.227a4463 4463 0 0 0 5.13 19.276l.761 3.396a39.4 39.4 0 0 1 1.373 8.434c0 3.661-1.346 6.925-5.53 11.325l.676 2.012a21.8 21.8 0 0 0 8.977 2.653c.903 4.342 5.981 10.953 9.541 14.01 3.567-3.057 8.647-9.668 9.55-14.01a21.8 21.8 0 0 0 8.979-2.653l.678-2.012c-4.186-4.4-5.533-7.664-5.533-11.325a39.2 39.2 0 0 1 1.373-8.434l.762-3.396c-.007.025 3.487-12.998 5.13-19.276l17.635 49.99a53.68 53.68 0 0 1-38.616 16.51m-54.873-56.994a57.57 57.57 0 0 1 23.659-46.863c-1.353 16.647-11.62 46.39-19.644 68.265a58.7 58.7 0 0 1-4.015-21.402M90.02 54.704a68 68 0 0 1-1.84 10.677s-.778 3.518-.797 3.594c-.008.023-9.93 39.914-11.559 46.136-1.624-6.222-11.549-46.113-11.555-46.136-.013-.076-.792-3.594-.792-3.594a67 67 0 0 1-1.846-10.704 53.03 53.03 0 0 1 28.389.027m40.632 55.043a58.8 58.8 0 0 1-3.808 20.855c-8.087-21.789-18.357-51.12-19.747-67.642a57.57 57.57 0 0 1 23.555 46.787m4.375 42.735a413 413 0 0 0-1.54-4.173c9.431-10.68 15.042-24.048 15.042-38.562 0-24.956-16.583-46.538-40.679-56.856a54.6 54.6 0 0 1 5.086-13.977 33 33 0 0 1 2.732-3.872l.28-.29-.02-.024a28.3 28.3 0 0 1 4.17-4.055l-.997-2.323c-4.842 2.133-15.05 6.995-21.325 12.667-3.016-2.806-8.653-5.677-12.824-6.997l-.79 1.913a4.2 4.2 0 0 1 .88 1.149l.032.045.032.042a24.3 24.3 0 0 1 4.582 10.41 83.8 83.8 0 0 0-27.72-.012 24.24 24.24 0 0 1 4.584-10.398l.03-.042.028-.045a4.4 4.4 0 0 1 .88-1.15l-.787-1.912c-4.172 1.32-9.81 4.19-12.827 6.997-6.271-5.672-16.485-10.534-21.323-12.667l-.996 2.323a28.5 28.5 0 0 1 4.17 4.055l-.02.025.28.29a33 33 0 0 1 2.73 3.87 54.7 54.7 0 0 1 5.08 13.95C19.668 63.172 3.055 84.769 3.055 109.748c0 14.677 5.736 28.186 15.361 38.923-.52 1.404-.99 2.682-1.402 3.813A50.7 50.7 0 0 1 .362 172.977l.957 1.995c17.624-2.469 23.635-.624 27.557-.004l4.742-13.62a79.94 79.94 0 0 0 42.175 11.727 79.9 79.9 0 0 0 42.463-11.908l4.87 13.805c3.92-.62 9.958-2.469 27.583 0l.972-1.995a50.7 50.7 0 0 1-16.653-20.495"/><path fill="#c5a459" d="m75.823 0-3.265 10.147H61.883l8.653 6.32-3.233 10.171 8.615-6.3 8.67 6.215-3.325-10.134 8.595-6.271H79.185ZM5.875 188.387H4.494v6.667H6c1.255 0 2.26-.415 2.26-3.624 0-2.694-1.03-3.043-2.386-3.043m5.348 7.75a7.27 7.27 0 0 1-4.87 1.396H0v-11.59h6.176a9.9 9.9 0 0 1 4.169.715c1.983.915 2.862 2.51 2.862 4.872a5.33 5.33 0 0 1-1.984 4.607m8.713-7.75v2.362h1.281c1.532 0 2.059-.483 2.059-1.264 0-.832-.677-1.098-2.084-1.098Zm3.892 9.146-1.833-3.242c-.677-1.199-1.08-1.348-2.059-1.348v4.59h-4.494v-11.59h6.026c5.148 0 6.804 1.38 6.804 3.308 0 1.997-1.58 3.012-3.64 3.244a3.2 3.2 0 0 1 1.757 1.247c.578.78 2.06 2.927 2.638 3.79Zm16.447-5.87c0-2.894-.853-3.591-2.787-3.591-2.034 0-2.888 1.413-2.888 3.624 0 2.96 1.08 3.693 2.938 3.693 1.908 0 2.737-.75 2.737-3.726m-10.697.366c0-4.123 3.415-6.285 8.035-6.285 5.951 0 7.685 3.008 7.685 5.552 0 3.327-1.583 6.436-7.835 6.436-5.073 0-7.885-2.227-7.885-5.703m17.954 5.504v-11.59h4.595v11.59Zm19.083-9.129h-4.068v9.129h-4.544v-9.129h-4.068v-2.461h13.207Zm13.006 2.494a7 7 0 0 1-.326-1.63 7.6 7.6 0 0 1-.477 1.846l-.704 1.897h2.26Zm2.561 6.635-.903-2.227h-4.144l-.954 2.227h-4.72l5.625-11.59h4.668l5.3 11.59Zm18.73-3.575a2.68 2.68 0 0 1-.425 1.912c-.728.965-2.688 1.862-6.152 1.862-2.762 0-4.67-.499-5.725-1.446-.653-.632-.855-.914-.855-2.461v-7.882h4.52v7.567c0 1.063.503 1.778 2.084 1.778 1.608 0 2.06-.6 2.06-1.728v-7.617h4.494Zm14.841-1.196h-1.657v2.292h1.707c1.13 0 1.606-.48 1.606-1.196 0-.582-.275-1.096-1.656-1.096m-1.657-4.375v2.012h1.782c1.08 0 1.458-.499 1.458-1.098 0-.597-.453-.914-1.508-.914Zm2.611 9.146h-7.106v-11.59h7.758c2.536 0 4.596.715 4.596 2.844 0 1.046-.653 2.144-2.588 2.56 1.709.3 3.215 1.213 3.215 2.611 0 2.111-1.882 3.575-5.875 3.575m21.142-3.575a2.67 2.67 0 0 1-.427 1.912c-.729.965-2.687 1.862-6.151 1.862-2.763 0-4.672-.499-5.725-1.446-.654-.632-.854-.914-.854-2.461v-7.882h4.52v7.567c0 1.063.502 1.778 2.083 1.778 1.607 0 2.06-.6 2.06-1.728v-7.617h4.494Zm14.462-5.554h-4.067v9.129H143.7v-9.129h-4.067v-2.461h13.207Z"/></svg>