<svg xmlns="http://www.w3.org/2000/svg" xml:space="preserve" viewBox="63.83 0 423.4 423.4"><path d="M268.096 445.465c14.713-25.554 28.685-54.496 38.988-83.3-11.954-17.761-23.726-35.602-36.509-52.786-25.848.854-49.798 5.791-74.801 12.149l-.256.138c-12.754 19.779-25.107 43.725-32.504 66.077 9.823 21.918 21.888 42.852 36.195 62.152l.027.018c20.252-3.467 47.143-6.374 68.86-4.448m-100.76 68.999a161 161 0 0 0 21.582 24.441l17.785 14.245a159.7 159.7 0 0 0 26.556 14.823c20.499.96 41.972-.589 62.191-2.134 11.523-16.348 20.003-31.451 27.7-49.68-14.164-19.068-33.953-42.718-54.001-63.016-21.447-2.217-49.079.826-69.209 4.307-12.492 18.098-25.718 36.028-32.604 57.014m-27.41-121.035a161 161 0 0 0-2.445 27.957c0 31.348 9.031 60.595 24.618 85.287 7.32-19.06 19.222-35.555 30.911-52.468-14.362-19.405-26.516-40.42-36.45-62.417zm43.623-84.358c-20.492 20.794-35.343 47.159-42.06 76.62l14.741-1.453c7.523-22.302 19.693-45.968 32.375-65.774zm114.192-47.704-.237-.004c-41.779 0-79.815 16.03-108.316 42.263l5.584 10.37c24.99-6.327 48.957-11.2 74.778-12.132 6.864-12.619 14.061-24.154 23.443-35.122a240 240 0 0 1 4.748-5.375m80.835 22.054c-21.026-12.385-45.127-20.1-70.879-21.722-3.049 3.268-6.067 6.556-8.969 9.948-8.859 10.357-15.679 21.252-22.171 33.13 13.08 17.575 25.103 35.834 37.336 53.996 27.304 5.614 56.25 11.297 78.689 12.953l1.814-2.253c7.268-9.018 15.295-16.981 22.096-26.391-9.963-21.475-22.601-41.633-37.916-59.661m56.299 55.89a160.9 160.9 0 0 0-35.645-41.439c9.127 13.072 17.074 26.959 23.831 41.439zm4.382 156.355c11.659-22.199 18.27-47.47 18.27-74.28 0-26.913-6.661-52.269-18.407-74.529h-16.049c-7.013 9.837-15.261 17.998-22.8 27.352l-1.873 2.322c6.001 28.914 6.741 60.431 6.603 91.974 12.17 8.005 23.503 17.317 34.256 27.161m-130.581 85.353c54.077-3.733 100.766-34.343 126.806-78.57-10.574-9.769-21.725-19.049-33.703-27.024-23.684 19.653-44.906 32.257-71.179 42.463-8.039 19.258-16.892 35.147-28.974 52.289zm-11.172.39c.805 0 1.603-.016 2.405-.03l-5.15-7.918c-12.948.985-26.348 1.945-39.679 2.253 13.512 3.711 27.735 5.695 42.424 5.695" style="fill:#2a7cc7;fill-opacity:1;fill-rule:evenodd;stroke:none;stroke-width:.1" transform="matrix(1.32292 0 0 -1.32292 -118.049 769.157)"/><path d="M295.144 465.789c3.443-14.8 1.286-32.44-2.826-47.246 6.214 4.815 13.443 9.226 21.293 13.291l4.106-15.341c-7.833-.125-13.156-2.13-18.146-4.802 1.753-6.109 7.039-7.397 8.737-12.808.559-1.779-.205-4.463-.39-8.029-1.804-1.349-4.46-3.186-5.081-3.636l1.509-3.403c1.412 1.278 4.389 2.97 6.751 4.696 14.468 9.389 26.049 4.622 38.641 6.969 2.152.402 4.084.981 5.891 1.658 7.322 1.96 14.232 5.76 21.656 7.296 6.219 1.286 12.804-1.395 19.408.148l.286.068q.209 1.98.394 3.966l-1.541-.358c-2.392-.561-4.871-.491-7.38-.287 2.868 8.374 3.318 13.444 4.577 22.367-4.249-.63-8.561-1.16-12.778-2.464l-3.275 12.239c6.024 2.467 12.706 4.244 19.633 4.689-1.513 15.77-13.305 35.857-29.911 42.432l-2.096-.882-1.727 6.451-1.954-.523 1.798-6.72-4.792-2.015c5.577-12.225 10.609-27.078 11.555-35.172l.244-2.084-1.926-.839c-5.339-2.323-10.618-4.785-15.784-7.446.795-3.931 1.532-8.23 2.198-12.981 4.243 4.651 11.716 10.226 20.883 14.288l3.233-12.088a30.2 30.2 0 0 1-5.723-2.843c-6.99-4.466-11.977-11.382-19.481-14.926l-7.577 28.317c6.385 3.513 13.369 6.901 21.122 10.274-1.513 12.933-13.306 41.532-20.201 50.132l-15.451-6.112-3.343 12.493-1.953-.528 3.404-12.714-17.398-6.884c1.186-2.368 2.401-5.179 3.596-8.339l3.497 1.245 1.896.672 1.259-1.57c7.878-9.825 13.273-22.438 14.737-34.954l.249-2.126-1.979-.817a312 312 0 0 1-10.276-4.448c.253-3.183.389-6.361.38-9.475 5.678 4.279 11.815 8.28 18.639 12.13l7.518-28.089c-4.216-1.539-8.963-1.568-13.238-1.63-8.398 3.038-11.371 6.281-15.578 9.322-.9.064-1.773.11-2.615.13l-4.361 16.294c5.88 2.97 12.091 5.753 18.451 8.381-1.514 12.932-7.24 24.912-14.135 33.513-4.799-1.704-9.474-3.411-14.158-5.115l-2.208 8.25-1.954-.522 2.253-8.418a1353 1353 0 0 0-8.558-3.077m31.945-90.765c2.811.643 7.511.86 10.39.828 6.237-.074 10.617-.379 16.954.813 8.271 1.555 15.98 6.998 24.514 8.765 5.147 1.066 10.35-.345 15.327-.3a268 268 0 0 0-.681-3.722c-4.732.128-9.397 1.255-13.88.328-8.448-1.75-16.077-7.18-24.582-8.78-6.61-1.243-11.191-.953-17.698-.877-2.577.03-6.984-.161-9.501-.734-5.046-1.151-11.046-5.779-14.885-9.129l-1.673 3.552c4.309 3.76 10.048 7.961 15.715 9.256M326.263 386c8.869 1.124 16.398-.151 25.744 1.609 8.271 1.555 15.979 6.997 24.514 8.765 6.539 1.355 13.18-1.304 19.313.13l.187.044a308 308 0 0 0-.551-3.957c-6.192-.988-12.346 1.297-18.183.089-8.448-1.75-16.077-7.18-24.582-8.78-8.71-1.637-17.302-.558-25.969-1.643-5.007-.63-13.519-5.958-17.932-10.024l-1.463 3.762c4.922 4.234 13.317 9.297 18.922 10.005" style="fill:#e01e2b;fill-opacity:1;fill-rule:evenodd;stroke:none;stroke-width:.1" transform="matrix(1.32292 0 0 -1.32292 -118.049 769.157)"/></svg>