<svg xmlns="http://www.w3.org/2000/svg" xml:space="preserve" style="shape-rendering:geometricPrecision;text-rendering:geometricPrecision;image-rendering:optimizeQuality;fill-rule:evenodd;clip-rule:evenodd" viewBox="0 0 186.42 186.43"><defs><radialGradient id="id1" cx="52.199" cy="46.606" r="72.706" fx="52.199" fy="46.606" gradientTransform="matrix(1.45568 1.44466 -1.30323 1.31317 37 -90)" gradientUnits="userSpaceOnUse"><stop offset="0" style="stop-opacity:1;stop-color:#1f78b8"/><stop offset=".102" style="stop-opacity:1;stop-color:#4188c5"/><stop offset=".22" style="stop-opacity:1;stop-color:#1774b5"/><stop offset=".541" style="stop-opacity:1;stop-color:#104883"/><stop offset=".78" style="stop-opacity:1;stop-color:#144174"/><stop offset="1" style="stop-opacity:1;stop-color:#1d2c48"/></radialGradient><linearGradient id="id0" x1="73.445" x2="122.696" y1="60.574" y2="132.882" gradientUnits="userSpaceOnUse"><stop offset="0" style="stop-opacity:1;stop-color:#de4944"/><stop offset=".2" style="stop-opacity:1;stop-color:#df5348"/><stop offset=".349" style="stop-opacity:1;stop-color:#de3e39"/><stop offset=".49" style="stop-opacity:1;stop-color:#cd2c2d"/><stop offset=".749" style="stop-opacity:1;stop-color:#af2825"/><stop offset="1" style="stop-opacity:1;stop-color:#8e241f"/></linearGradient><style>.fil1{fill:#fff}</style></defs><g id="Layer_x0020_1"><g id="_721812064"><path d="M93.212 0C41.812 0 0 41.817 0 93.209c0 51.398 41.812 93.216 93.212 93.216 51.402 0 93.213-41.818 93.213-93.216C186.425 41.817 144.614 0 93.212 0" style="fill:url(#id1)"/><path d="M124.73 22.5a79 79 0 0 0-4.106-1.694l-8.22 19.769c1.39.517 2.76 1.088 4.099 1.71zm-31.929-2.778h7.961a3.533 3.533 0 0 1 0 7.066h-7.96zm0 10.854h5.423l4.677 7.399a55 55 0 0 1 5.46 1.273l-5.608-8.938c3.218-.859 5.867-3.693 5.867-7.05 0-4.041-3.825-7.326-7.858-7.326h-12.29v21.3a56 56 0 0 1 4.322-.177h.007zM41.216 40.699l5.83-6.4a3.535 3.535 0 0 1 4.995-.229 3.525 3.525 0 0 1 .23 4.987l-5.831 6.407zM54.09 52.427l-4.854-4.417 6.009-6.615c2.723-2.982 2.723-7.776-.267-10.499-2.982-2.722-7.835-2.344-10.558.637l-8.916 9.817 15.538 14.162a54 54 0 0 1 3.048-3.085m81.154-17.949c3.202-.755 9.093 5.098 10.224 9.064.932-.71 3.02-2.241 3.02-2.241-2.494-7.088-12.408-14.176-17.114-9.737-2.797 2.641-1.215 6.702 1.227 9.27l2.368 2.494c2.413 2.538 4.52 5.067 2.583 6.673-2.065 1.71-7.85-2.574-11.328-9.929l-3.108 2.353c.74 1.931 2.42 4.735 4.669 7.11 2.553 2.686 5.334 4.439 7.829 4.927 1.96.386 3.906.09 5.194-1.102 3.21-2.981 2.041-7.317-3.005-12.63l-2.086-2.197c-2.324-2.45-1.377-3.84-.473-4.055M68.53 24.203l6.024 6.91a65 65 0 0 0-6.393 2.243zm.919-4.712a69 69 0 0 0-4.507 1.597l-1.605 24.268a59 59 0 0 1 4.44-2.449l.228-5.652a61 61 0 0 1 9.123-3.19l3.73 4.278a56 56 0 0 1 4.994-.844zM43.192 144.595l.936.88 2.763-1.347 2.78 2.422-.887 2.987 1.047.809 2.514-8.833-.994-.866zm4.876-1.02 2.819-1.37-.862 3.072zm4.272 8.61.981.662 4.577-7.112-.984-.661zm4.288 2.775 1.01.601 2.935-5.711.018.01 1.426 8.033 1.033.481 3.794-7.42-1.041-.56-2.885 5.632-.02-.01-1.415-7.943-1.04-.561zm12.07-1.886 2.704.967-2.322 6.829 1.11.398 2.323-6.833 2.705.966.388-1.138-6.523-2.327zm20.488 7.723c-.046 2.844 2.204 4.41 4.382 4.448 2.047.034 3.673-.944 3.698-2.447l.036-2.223-3.745-.062-.019 1.205 2.568.043-.016.936c-.01.714-1.032 1.367-2.448 1.344-2.068-.037-3.308-1.528-3.282-3.17.028-1.75 1.303-3.18 3.47-3.143 1.481.026 2.099.805 2.495 1.211l.83-.843c-.47-.478-1.478-1.544-3.427-1.575h-.087c-2.568 0-4.42 1.915-4.455 4.276m10.477-4.373 1.16 8.285 6.823-1.003-.165-1.193-5.66.834-.355-2.531 2.75-.403-.166-1.196-2.751.406-.305-2.177 5.456-.8-.168-1.195zm14.039-3.082-4.606 1.42 2.352 8.014 1.127-.329-.985-3.362 2.909-.898 2.538 2.852 1.233-.454-2.552-2.819c.641-.257 1.618-1.153 1.108-2.893-.36-1.218-1.222-1.685-2.156-1.685-.32 0-.648.055-.968.154m-3.144 2.228 3.482-1.075c.65-.198 1.392-.184 1.659.725.227.78-.12 1.377-.964 1.637l-3.482 1.075zm19.748-10.92 1.723 9.005 1.048-.685-.574-3.031 2.972-2.168 2.529 1.586 1.022-.837-7.657-4.643zm1.36.845 2.695 1.61-2.096 1.528zm3.953-4.962 5.559 6.127.878-.8-5.578-6.147zm7.362-7.815 4.616 4.254-.016.015-7.863-.554-.788.896 6.092 5.618.826-.862-4.674-4.307.016-.019 7.945.558.704-.898-6.072-5.599zm-18.147 15.512-.176 5.932-4.79-3.336-1.053.548 3.573 7.53 1.067-.49-2.473-5.351.02-.011 4.745 3.296.181-5.871.022-.01 2.778 5.203 1.021-.587-3.867-7.402zm-84.329-16.023a1.7 1.7 0 0 0-.681 1.161c-.107.749.188 1.69.79 2.517l.87 1.192c.675.922 1.325 1.888 1.19 2.649a1.1 1.1 0 0 1-.502.738.94.94 0 0 1-.526.152c-1.182 0-3.182-2.158-4.165-5.25l-.019-.057-.86.827-.016.017.006.02c.192.774.705 2.023 1.57 3.209.907 1.243 1.943 2.103 2.914 2.423q.471.156.914.157c.425 0 .803-.112 1.09-.328.473-.354.752-.805.83-1.339.145-.987-.367-2.29-1.52-3.87l-.77-1.055c-.613-.84-.587-1.388-.456-1.698a.81.81 0 0 1 .638-.495q.064-.006.133-.005c1.402 0 3.388 2.382 3.903 4.23l.013.047.04-.025c.292-.172.63-.37.837-.49l.026-.017-.007-.026c-.667-2.554-3.196-5.06-5.106-5.06-.427 0-.81.127-1.136.376m39.23 28.003 2.91.655.263-1.19-2.906-.67z" class="fil1"/><path d="M93.212 6.665A86.55 86.55 0 0 0 6.664 93.213a86.55 86.55 0 0 0 147.748 61.198 86.55 86.55 0 0 0-61.2-147.746m0 3.425a83.13 83.13 0 0 1 58.777 24.346 83.13 83.13 0 0 1 0 117.553 83.125 83.125 0 0 1-117.553 0 83.125 83.125 0 0 1 0-117.553A83.13 83.13 0 0 1 93.212 10.09" class="fil1"/><path d="m95.026 133.199-1.694-1.968-1.695 1.968-.066.184c.333.674.91 1.502 1.605 2.065l.156.081.155-.081c.703-.563 1.273-1.39 1.613-2.065zm1.624-10.687c0-1.946-2.545-8.013-3.315-8.013l-.192.082c-.925.754-3.123 6.118-3.123 7.931 0 1.45 2.93 5.275 2.93 7.354l.385.385.385-.385v-.014c.015-2.08 2.93-5.89 2.93-7.34m-4.97 7.173c-1.376-3.625-3.744-5.608-6.215-5.608a3.377 3.377 0 0 0-3.374 3.374c0 1.864 1.814 3.064 3.374 3.374.506.1 1.086-.207 1.428-.592.278-.313.56-.851.34-1.206-.076-.124-.3-.014-.429-.082-.471-.249-1.133-.598-1.132-1.132 0-.531.601-1.097 1.132-1.124 1.766-.09 3.064 1.065 4.122 3.337v.014l.007.015.378.222.414-.422zm9.41-5.608c-2.464 0-4.839 1.983-6.215 5.608l-.037.17.415.43.37-.23.007-.015.007-.007c1.05-2.279 2.355-3.436 4.121-3.345.53.028 1.124.595 1.125 1.125 0 .532-.655.884-1.125 1.132-.13.07-.358-.044-.436.082-.221.357.067.9.348 1.213.341.382.918.685 1.42.585 1.56-.312 3.374-1.51 3.374-3.374a3.37 3.37 0 0 0-3.374-3.374" style="fill:#c3a34e"/><path d="M93.213 42.172a51.041 51.041 0 0 0-36.09 87.131 51.04 51.04 0 0 0 72.18 0 51.04 51.04 0 0 0-36.09-87.13m-6.75 3.909C84.281 76.424 71.585 98.88 50.746 114.54A47.6 47.6 0 0 1 45.6 93.213 47.615 47.615 0 0 1 86.463 46.08m13.499 0a47.62 47.62 0 0 1 40.865 47.131 47.6 47.6 0 0 1-5.149 21.328c-20.838-15.66-33.534-38.116-35.716-68.46m-6.753 62.31c11.12 0 20.14 8.659 20.14 19.336 0 2.986-.71 6.563-1.971 9.4a47.6 47.6 0 0 1-18.165 3.7 47.6 47.6 0 0 1-18.17-3.703c-1.261-2.836-1.974-6.41-1.974-9.397 0-10.677 9.02-19.336 20.14-19.336" class="fil1"/><path d="M93.213 45.598a48 48 0 0 0-4.363.286c-.36 17.929-4.76 33.426-12.17 46.426h33.08c-7.41-13-11.81-28.497-12.17-46.425a48 48 0 0 0-4.377-.287m-17.617 48.57c-5.77 9.569-13.455 18-22.138 25.066a47.6 47.6 0 0 0 14.683 14.368 22 22 0 0 1-.33-3.773c0-13.118 11.373-23.75 25.409-23.75s25.408 10.632 25.408 23.75c0 1.282-.116 2.536-.327 3.762a47.6 47.6 0 0 0 14.672-14.364c-8.68-7.065-16.362-15.494-22.129-25.06z" style="fill:url(#id0)"/></g></g></svg>