<svg xmlns="http://www.w3.org/2000/svg" xml:space="preserve" viewBox="0 0.16 700 537.84"><path d="m190.181 25.072-.002 24.068H3.095l.001-24.069z" style="fill:#231f20;fill-opacity:1;fill-rule:evenodd;stroke:none" transform="matrix(3.74159 0 0 -3.74159 -11.578 631.807)"/><path d="M7.038 28.248v17.787h3.27c.676 0 5.403.472 5.403-5.26 0-3.326-2.617-5.69-5.529-5.69v-6.837zm3.144 9.858c1.403-.07 2.202.9 2.202 2.716 0 1.274-.41 2.312-1.657 2.312h-.545zm11.067 7.939 3.641-17.797H21.7l-.59 3.14h-3.187l-.57-3.14h-3.289l3.872 17.797zm-1.764-6.806h-.043l-1.013-4.935h2.216zm146.181 6.806 3.642-17.797h-3.19l-.591 3.14h-3.187l-.569-3.14h-3.289l3.872 17.797zm-1.764-6.806h-.042l-1.013-4.935h2.216zm-91.218 6.806 3.64-17.797h-3.189l-.59 3.14h-3.188l-.57-3.14H65.5l3.872 17.797zm-1.764-6.806h-.043l-1.012-4.935h2.215zM25.639 28.248v17.797h3.165c2.005 0 5.12-.803 5.12-5.097 0-1.47-.363-3.208-1.925-4.175l3.851-8.525h-3.313l-3.712 7.819h-.042v-7.819zm3.144 10.15c1.161 0 2.066.943 2.066 2.242 0 1.132-.444 2.054-1.724 1.97h-.342zm101.33-10.15v17.797h3.165c2.005 0 5.12-.803 5.12-5.097 0-1.47-.624-3.325-2.185-4.293l3.296-8.407h-3.313l-2.897 7.819h-.042v-7.819zm3.144 10.15c1.161 0 2.066.943 2.066 2.242 0 1.132-.444 2.054-1.725 1.97h-.341zm-96.816-10.15h3.145v17.797H36.44zM48.51 41.91c-1.049 1.052-1.584 1.504-2.45 1.504-.97 0-1.924-.71-1.924-1.754 0-2.816 5.018-3.961 5.018-8.262 0-3.044-2.156-5.15-5.11-5.15-.887 0-2.633.422-3.35.99v3.225c.737-.545 2.104-1.216 3.032-1.216 1.014 0 2.12.451 2.218 1.585.117 1.358-1.1 2.418-1.925 3.169-1.926 1.754-3.151 3.218-3.151 5.716 0 2.702 1.985 4.328 4.687 4.328 1.013 0 1.79-.084 2.956-.84zm16.67 0c-1.049 1.052-1.584 1.504-2.45 1.504-.97 0-1.925-.71-1.925-1.754 0-2.816 5.018-3.961 5.018-8.262 0-3.044-2.156-5.15-5.11-5.15-.887 0-2.633.422-3.35.99v3.225c.738-.545 2.105-1.216 3.033-1.216 1.013 0 2.12.451 2.218 1.585.117 1.358-1.101 2.418-1.925 3.169-1.927 1.754-3.152 3.218-3.152 5.716 0 2.702 1.986 4.328 4.687 4.328 1.013 0 1.79-.084 2.956-.84zm11.998-13.662h3.144v17.797h-3.144zm7.945 17.797 4.61-10.419v10.419h2.934V28.248h-2.645l-4.388 9.084v-9.084h-2.843v17.797zm93.302 0 4.61-10.419v10.419h2.935V28.248h-2.646l-4.388 9.084v-9.084h-2.843v17.797zm-76.536 0V42.74h-2.49V28.248h-2.897V42.74h-2.716v3.305zm-.246-10.31h3.985v2.822h-3.985zm17.267 2.267v-1.07c0-3.598-.823-8.684-5.108-8.684-4.283 0-5.876 5.198-5.876 8.956 0 3.914 1.574 8.84 6.069 8.84 2.426 0 4.226-1.038 4.901-3.445l-2.742-1.402c-.642 1.121-.935 1.743-2.138 1.743-2.132.135-2.734-4.05-2.734-5.647 0-1.754.305-5.94 2.627-5.94 1.603 0 1.856 2.588 1.856 3.956h-2.004v2.693zm8.574 8.043v-2.751h-3.891l.001-4.086h3.89v-2.751h-3.89l-.001-5.44h3.891v-2.769h-7.035v17.797zm18.997 0 2.648-10.159h.053l2.706 10.159h3.034l3.27-17.797h-3.462l-1.481 10.096h-.054l-2.624-10.096h-3.108l-2.421 10.096h-.055l-2.005-10.096h-3.143l3.568 17.797zm24.082-17.797h3.145v17.797h-3.145z" style="fill:#fff;fill-opacity:1;fill-rule:evenodd;stroke:none" transform="matrix(3.74159 0 0 -3.74159 -11.077 631.96)"/><path d="M3.096 52.579h55.025v110.048H3.096z" style="fill:#1f54a9;fill-opacity:1;fill-rule:evenodd;stroke:none" transform="matrix(3.74159 0 0 -3.74159 -11.581 631.807)"/><path d="m23.904 116.897.697 27.491s12.398 1.653 11.754-14.313c-.61-15.098-12.45-13.178-12.45-13.178m30.089 14.182c1.08 24.916-16.245 29.485-28.26 29.485-7.226 0-10.535-.293-17.848-.948V62.223h15.628v37.7c3.656-.13 29.232 2.345 30.48 31.156" style="fill:#fff;fill-opacity:1;fill-rule:evenodd;stroke:none" transform="matrix(3.74159 0 0 -3.74159 -11.581 631.807)"/><path d="M62.996 58.77h55.025v110.048H62.996z" style="fill:#ed1c24;fill-opacity:1;fill-rule:evenodd;stroke:none" transform="matrix(3.74159 0 0 -3.74159 -11.581 631.807)"/><path d="M108.391 139.8c-3.386 4.189-7.523 7.855-13.05 7.855-6.202 0-10.666-4.955-10.666-10.866 0-11.868 27.722-24.697 27.853-46.864.101-17.278-13.226-29.846-28.21-29.092-5.655.285-10.745 1.662-15.33 4.875l-.557 19.505c3.239-4.495 7.918-8.116 13.85-8.116 6.471 0 13.1 3.507 13.262 10.56.17 7.45-7.777 14.966-12.478 20.072-9.343 10.144-15.556 15.581-15.556 29.715 0 15.291 11.736 25.012 23 25.183 6.67.102 11.343-.738 17.882-4.893z" style="fill:#fff;fill-opacity:1;fill-rule:evenodd;stroke:none" transform="matrix(3.74159 0 0 -3.74159 -11.581 631.807)"/><path d="M121.4 53.955h68.78v110.048H121.4z" style="fill:#1f54a9;fill-opacity:1;fill-rule:evenodd;stroke:none" transform="matrix(3.74159 0 0 -3.74159 -11.581 631.807)"/><path d="M185.757 117.68s.855-3.141 1-10.15c.393-18.996-5.203-48.842-28.187-49.377-23.182-.54-33.866 28.983-33.546 50.801.373 25.479 10.849 52.258 34.182 52.258 13.135 0 18.769-6.459 24.689-17.106l-12.591-9.667c-2.438 4.363-5.88 10.298-11.492 10.298-13.582 0-17.298-20.624-18.046-30.37-1.045-13.615 3.941-39.098 15.086-39.098 10.1 0 13.91 13.156 13.91 25.374l-14.967-.59v17.627z" style="fill:#fff;fill-opacity:1;fill-rule:evenodd;stroke:none" transform="matrix(3.74159 0 0 -3.74159 -11.581 631.807)"/></svg>