<svg xmlns="http://www.w3.org/2000/svg" viewBox="-10.32 -10.3 663.5 663.5"><path d="M3771.06 1340.1c233.32 295.14 372.7 668.26 372.7 1073.77 0 877.6-652.46 1602.75-1498.3 1716.54 0-1480.31 561.35-2283.12 1125.6-2790.31" style="fill:#2f52aa;fill-opacity:1;fill-rule:nonzero;stroke:none" transform="matrix(.13333 0 0 -.13333 0 642.88)"/><path d="M4809.71 2410.8c0-1324.9-1074-2398.91-2398.92-2398.91C1085.93 11.89 11.895 1085.9 11.895 2410.8c0 1324.87 1074.015 2398.9 2398.895 2398.9 1324.92 0 2398.92-1074.03 2398.92-2398.9" style="fill:#fff;fill-opacity:1;fill-rule:nonzero;stroke:none" transform="matrix(.13333 0 0 -.13333 0 642.88)"/><path d="M2410.81 4809.71c1324.88 0 2398.9-1074.02 2398.9-2398.91 0-1324.88-1074.02-2398.89-2398.9-2398.89S11.906 1085.92 11.906 2410.8c0 1324.89 1074.024 2398.91 2398.904 2398.91z" style="fill:none;stroke:#1f2d5a;stroke-width:23.81;stroke-linecap:butt;stroke-linejoin:miter;stroke-miterlimit:4;stroke-dasharray:none;stroke-opacity:1" transform="matrix(.13333 0 0 -.13333 0 642.88)"/><path d="M4717.25 2407.62c0-1275.43-1033.98-2309.311-2309.37-2309.311C1132.47 98.309 98.566 1132.19 98.566 2407.62S1132.46 4716.97 2407.88 4716.97c1275.39-.02 2309.37-1033.92 2309.37-2309.35" style="fill:#1f2d5a;fill-opacity:1;fill-rule:nonzero;stroke:none" transform="matrix(.13333 0 0 -.13333 0 642.88)"/><path d="M592.363 2400.9c0-1002.91 813.057-1815.97 1815.987-1815.97 1002.89 0 1815.96 813.06 1815.96 1815.97 0 1002.93-813.07 1815.96-1815.96 1815.96-1002.93 0-1815.987-813.03-1815.987-1815.96" style="fill:#fff;fill-opacity:1;fill-rule:nonzero;stroke:none" transform="matrix(.13333 0 0 -.13333 0 642.88)"/><path d="M2410.99 1866.45c696.07 0 809-554.75 788.26-1025.04 184.35 92.969 349.72 217.32 489.61 366.5-287.89 298.44-560.47 622.56-763.75 1064.38H1896.83c-203.28-441.84-475.82-765.96-763.71-1064.38 139.84-149.18 305.21-273.531 489.57-366.5-20.73 470.29 92.25 1025.04 788.3 1025.04m494.76 448.75c-201.37 455.2-329.59 1034.11-329.59 1832.3-54.16 5.05-109.7 7.62-165.15 7.62-55.51 0-111.08-2.56-165.17-7.62 0-798.2-128.24-1377.11-329.64-1832.3z" style="fill:#d1193c;fill-opacity:1;fill-rule:nonzero;stroke:none" transform="matrix(.13333 0 0 -.13333 0 642.88)"/><path d="M1036.53 1319.95c-235.917 298.24-376.784 675.19-376.784 1085.01 0 886.73 659.704 1619.49 1514.954 1734.44 0-1495.76-567.53-2306.95-1138.17-2819.45m1374.46-665.161c196.32 0 386.52 32.441 562.75 92.07 176.11 467.871 63.28 1076.441-562.75 1076.441-626.07 0-738.86-608.55-562.73-1076.441 176.15-59.629 366.39-92.07 562.73-92.07m1374.45 665.161c235.88 298.24 376.85 675.19 376.85 1085.01 0 886.73-659.74 1619.49-1515.01 1734.44 0-1495.76 567.51-2306.95 1138.16-2819.45" style="fill:#1f2d5a;fill-opacity:1;fill-rule:nonzero;stroke:none" transform="matrix(.13333 0 0 -.13333 0 642.88)"/><path d="M2607.92 1457.17v-335.66h-673.98s26.89-8.99 46.64-46.64c17.96-34.28 28.73-93.319 71.84-132.85 43.08-39.54 62.75-46.68 145.36-46.68 8.09 0 30.54-23.36 30.54-49.379h8.96c0 26.019 22.42 49.379 30.51 49.379h309.64c8.11 0 30.51-23.36 30.51-49.379h8.96c0 26.019 22.47 49.379 30.51 49.379 166.96 0 209.12 107.71 209.12 227.96-.02 186.68-93.32 333.87-248.61 333.87" style="fill:#fff;fill-opacity:1;fill-rule:nonzero;stroke:none" transform="matrix(.13333 0 0 -.13333 0 642.88)"/><path d="M2404.64 1466.14c-12.6 0-22.86-1.82-32.77-43.05-10.55-44.22-37.7-57.46-55.61-57.46h-14.37v64.63c39.43 57.44 35.89 111.31-12.58 165.11-48.44-53.8-52.06-107.67-12.53-165.11v-64.63h-14.43c-17.89 0-45.05 13.24-55.62 57.46-9.86 41.23-20.19 43.05-32.71 43.05-10.96 0-39.09-8.11-35.53-31.43 3.61-23.32 17.08-41.72 27.82-36.78 5.81 2.66 4.7 11.61 7.71 15.71 3.34 4.76 10.88 3.84 18.36-4.05 9.02-9.59 18.17-41.4 41.29-65.54 16.88-17.58 31.63-20.78 43.1-21.41v-25.23c0-19.79-19.81-25.18-19.81-25.18l32.34-35.9 32.33 35.9s-19.75 5.39-19.75 25.18v25.23c11.4.63 26.24 3.83 43.07 21.41 23.1 24.14 32.29 55.95 41.27 65.54 7.5 7.89 15 8.81 18.4 4.05 2.97-4.1 1.87-13.07 7.66-15.71 10.74-4.94 24.18 13.46 27.79 36.78 3.59 23.32-24.51 31.43-35.43 31.43M1967.4 481.461l10.76 59.68 108.5-19.512-48.77-271.149-70.25 12.622 37.98 211.457zm207.44-249.199 71.47 75.617-2.94.203-2.57.16-9.48 1.028c-7.63.941-24.2 5.781-34.08 10.55-39.84 18.239-61.92 54.45-58.87 97.711 4.36 61.551 55.56 100.649 125.01 95.75 66.82-4.73 111.8-49.519 107.67-107.429-2.21-31.911-20.79-70.723-49.13-102.954l-66.68-76.296zm126.61 175.879c1.8 24.961-16.9 46.5-41.76 48.238-25.18 1.863-46.7-16.91-48.45-41.797-1.77-24.98 16.89-46.523 41.73-48.301 25.19-1.75 46.7 16.598 48.48 41.86M2421.04 434l-3.55 60.492 236.54 13.918-140.64-284.262-78.63-4.617 112.07 221.848zm492.09-17.738c16.08-86.68-19.19-153.41-87.24-166.09-68.83-12.77-125.67 36.84-141.88 123.867-16.13 86.703 18.99 154.441 86.64 167.082 69.57 12.91 126.1-36.73 142.48-124.859m-159.23-29.25c9.68-52.352 32.42-80.282 60.48-75.063 28.09 5.211 38.64 38.571 28.79 91.68-9.82 53.121-31.27 80.133-59.37 74.902-28.81-5.351-39.75-38.402-29.9-91.519M718.855 3348.23l-35.89-62-238.469 138 57.07 98.6c16.188 27.96 30.739 40.74 54.418 47.84 23.661 7.14 47.821 3.35 72.59-10.99 51.86-30 63.77-74.7 33.551-126.82l-22.437-38.81zm-117.312 95.06c13.625 23.54 10.445 39.37-9.898 51.13-20 11.59-36.297 6.21-49.36-16.4l-12.031-20.67 59.504-34.41zm199.824 122.51 26.528-43.92-46.032-60.1-154.398 251.57 47.371 61.84 281.949-85-46.449-60.69-48.844 14.76zm-82.844 126.35 51.461-77.31 36.192 47.25zm418.517 174.37-63.23-62.53-122.955 27.18 74.375-75.24-50.953-50.39-193.691 195.92 79.102 78.31c22.187 21.92 41.738 30.91 65.078 30.29 21.589-.92 43.609-10.65 59.636-26.85 12.961-13.05 22.218-31.28 24.668-47.41 2.54-17.14-1.45-31.42-12.691-49.8zm-209.345 6.86c19.59 19.36 22.282 40.14 7.34 55.3-6.961 7.03-19.23 10.95-28.597 9.49-8.036-1.25-17.395-6.9-26.813-16.24l-9.371-9.29 48.012-48.56zm285.625 50.96-55.57-45.24-173.984 213.66 55.494 45.25zm52.03 286.59c-20 2.02-35.75-1.52-49.19-10.52-14.59-9.84-19.86-25.75-12.26-37.03 2.88-4.26 7.35-7 13.06-7.58 6.44-1.01 13.79-.06 20.81 2.03 4.22 1.02 12.39 3.91 24.55 7.67 25.25 7.7 39.87 9.09 56.81 5 17.77-4.01 30.21-13.33 42.08-31 9.45-14.03 17.7-34.17 19.37-47.2 3.84-33.32-16.55-69.57-53.43-94.37-17.94-12.09-35.48-18.98-59.16-23.89-15.52-3.31-21.9-3.66-37.99-3.43l-6.7 64.59c28.98-3.56 50.65.39 67.98 12.09 17.7 11.89 22.7 28.12 13.55 41.83-3.11 4.56-8.04 7.92-13.16 8.93-10.14 1.97-17.29.7-40.21-6.73-22.57-7.23-31.73-9.38-43.33-10.56-24.14-2.94-44.47 8.19-61.05 32.86-31.04 46.01-20.52 98.27 25.83 129.42 24.09 16.22 53.96 27 85.05 30.22zm322.11 166.98c-19.33 5.43-35.44 4.61-50.21-2.02-16.12-7.23-23.96-22.04-18.38-34.42 2.08-4.72 6.06-8.15 11.6-9.68 6.17-2.1 13.55-2.39 20.79-1.53 4.35.31 12.93 1.79 25.48 3.4 26.29 3.33 40.91 2.24 56.87-4.69 16.87-6.92 27.56-18.22 36.25-37.68 6.92-15.4 11.68-36.65 11.17-49.8-1.92-33.44-28.11-65.74-68.65-83.95-19.77-8.88-38.17-12.75-62.37-13.53-15.83-.67-22.25.07-38.08 3.04l4.35 64.77c27.95-8.41 50.03-8.14 69.12.41 19.41 8.75 27.11 23.91 20.38 38.98-2.3 5.01-6.52 9.15-11.42 11-9.72 3.68-16.94 3.63-40.77.21-23.51-3.29-32.89-3.92-44.58-3.12-24.23 1.2-42.4 15.57-54.61 42.75-22.71 50.61-3.55 100.29 47.4 123.17 26.45 11.89 57.76 17.5 88.93 15.41zm206.08-90.54-4.38-51.1-72.52-21.56 22.93 294.27 74.63 22.22 178.18-234.52-73.25-21.79-30.89 40.64zm7.32 150.9-3.94-92.73 57.07 16.96zm166.95 129.5 70.45 13 49.98-270.99-70.45-13zm151.89 29.21 71.49 4.77 142.54-159.43-11.3 168.27 71.49 4.78 18.45-274.92-71.48-4.82-142.51 159.46 11.27-168.23-71.46-4.82zm445.66-267.39-71.54 4.47 13.55 214.5-57.95 3.65 3.79 60.5 188.85-11.87-3.81-60.49-59.39 3.73zm65.49 56.76 6.52 48.42 92.15-12.46-6.54-48.4zm410.96 9.1c-2.44-10.02-4.73-17.77-6.31-22.71-4.06-13.72-8.75-25.1-13.65-34.47-29.98-58.11-88.83-83.89-155.59-67.68-84.63 20.58-128.75 92.55-108.22 176.8 20.8 85.7 93.4 129.27 180.52 108.1 36.37-8.83 62.19-25.7 80.08-51.58 9.73-14.46 14.24-25.43 21.55-52.89l-72.78-11.46c-3.16 16.29-5.62 23.33-10.88 31.4-7.79 12.87-19.72 21.43-35.43 25.25-40.64 9.91-78.57-18.32-90.45-67.25-12.09-49.6 9.18-91.42 51.66-101.75 14.97-3.66 28.83-2.5 40.08 3.1 4.32 2.29 8.97 5.74 12.54 9.78 5.16 5.57 8.11 9.77 13.09 21.07l-57.09 13.86 13.04 53.89zm142.18 10.36-16.6-42.86 75.02-29.07-21.93-56.54-75 29.11-17.29-44.52 79.12-30.68-21.89-56.52-145.96 56.59 99.67 256.91 145.92-56.59-21.9-56.54zM3423 4052.78l-78.6 41.54-11.03 125.47-49.34-93.54-63.38 33.45 128.62 243.66 98.45-51.97c27.66-14.6 42.04-30.53 48.46-53.05 5.61-20.82 2.95-44.76-7.65-64.88-8.6-16.23-23.27-30.57-37.86-37.78-15.62-7.53-30.39-8.04-51.34-2.8zm-56.31 201.77c24.35-12.85 44.94-9.2 54.92 9.65 4.65 8.75 4.77 21.57.55 30.05-3.63 7.3-11.86 14.57-23.54 20.75l-11.66 6.18-31.95-60.43zm267.89-10.96 56.6-42.61-43.75-150.98 135.65 81.84 56.71-42.64-132.22-245.37-57.25 43.08 78.99 139.19-148.58-86.84-22.87 17.26 44.94 164.78-114.22-112.66-56.95 42.85zM3810.69 3802l-47.52-19.33-52.16 54.87 272.65 113.12 53.67-56.46-128.12-265.18-52.66 55.37 22.19 45.97zm137.78 61.98-84.44-38.65 41-43.12zm191.09-89.64 43.61-56.83-218.59-167.8-43.63 56.83zm95.22-122.19 36.79-61.46-77.15-199.47 144.73 86.6 36.8-61.47-236.43-141.51-36.81 61.47 77.18 199.47-144.78-86.62-36.76 61.47z" style="fill:#fff;fill-opacity:1;fill-rule:nonzero;stroke:none" transform="matrix(.13333 0 0 -.13333 0 642.88)"/></svg>