<svg xmlns="http://www.w3.org/2000/svg" viewBox="0 0 248.57 302.36"><path d="m218.258 84.057-1.155-3.546-1.315-3.468-1.472-3.386-1.621-3.298-1.772-3.21-1.912-3.115-2.05-3.014-2.18-2.91-2.312-2.801-2.435-2.692-2.556-2.572-2.67-2.452-2.783-2.329-2.89-2.198-2.995-2.064-3.092-1.928-3.19-1.784-3.278-1.636-3.364-1.485-3.446-1.327-3.524-1.165-3.592-.999-3.661-.828-3.72-.65-3.775-.471-3.823-.286-3.868-.096-3.867.096-3.823.286-3.775.47-3.721.65-3.66.83-3.593.998-3.522 1.165-3.448 1.327-3.364 1.485-3.276 1.636-3.189 1.784-3.094 1.928-2.994 2.064-2.89 2.197-2.784 2.328-2.671 2.455-2.555 2.573-2.435 2.69-2.311 2.801-2.183 2.91-2.048 3.015-1.913 3.113-1.77 3.209-1.624 3.3-1.47 3.387-1.315 3.469-1.155 3.544-.99 3.616-.26 1.174H51.519v66.58h8.886L48.52 255.117h184.973l-10.363-99.692h11.816v-66.58h-15.438l-.26-1.172z" style="fill:#fff;fill-opacity:1;fill-rule:evenodd;stroke:none" transform="matrix(1.33333 0 0 -1.33333 -64.693 340.158)"/><path d="m224.435 247.035-10.343-99.799h12.71V97.038h-14.063l-.09-.742-.575-3.35-.734-3.292-.881-3.236-1.034-3.17-1.178-3.103-1.316-3.03-1.45-2.952-1.586-2.873-1.712-2.79-1.835-2.7-1.956-2.606-2.071-2.51-2.182-2.413-2.29-2.304-2.394-2.198-2.494-2.086-2.588-1.97-2.681-1.85-2.77-1.725-2.855-1.596-2.934-1.465-3.01-1.328-3.084-1.188-3.15-1.042-3.215-.892-3.273-.74-3.328-.584-3.379-.42-3.422-.257-3.465-.086-3.464.086-3.424.257-3.377.42-3.33.583-3.273.74-3.213.893-3.15 1.042-3.083 1.188-3.01 1.328-2.934 1.465-2.855 1.596-2.77 1.726-2.681 1.85-2.59 1.97-2.494 2.085-2.393 2.198-2.29 2.306-2.182 2.411-2.07 2.51-1.956 2.607-1.835 2.7-1.712 2.789-1.585 2.872-1.454 2.954-1.315 3.03-1.178 3.102-1.032 3.17-.885 3.236-.732 3.293-.574 3.348-.09.743H59.663v50.198h9.92l-11.877 99.8z" style="fill:#244ba6;fill-opacity:1;fill-rule:evenodd;stroke:none" transform="matrix(1.33333 0 0 -1.33333 -64.693 340.158)"/><path d="M66.037 140.825h10.726l-11.876 99.799h152.476l-10.343-99.799h13.408V103.45h-13.484c-1.61-33.597-29.349-60.496-63.137-60.496S82.278 69.852 80.67 103.449H66.037Z" style="fill:#fff200;fill-opacity:1;fill-rule:evenodd;stroke:none" transform="matrix(1.33333 0 0 -1.33333 -64.693 340.158)"/><path d="M179.234 89.685 162.69 96.81a21 21 0 0 1 1.494 4.932h18.094a37.8 37.8 0 0 0-3.045-12.056m-12.419-15.477-10.592 14.353a21.4 21.4 0 0 1 4.535 4.791l14.636-10.447a38.3 38.3 0 0 0-8.579-8.697m-18.143-7.028-.827 8.562L147 84.49c1.721.299 3.373.808 4.926 1.501l5.284-11.714 1.98-4.388a37.2 37.2 0 0 0-10.518-2.709m-18.845 2.877 3.581 7.942 3.292 7.295c1.6-.546 3.286-.901 5.03-1.043l-.858-7.418-1.102-9.537a37.3 37.3 0 0 0-9.943 2.76m-15.969 13.072a38.3 38.3 0 0 1 8.433-8.697l3.511 4.757L132 87.585a21.3 21.3 0 0 0-5.192 4.787zm-6.728 18.612h15.538a21 21 0 0 1 1.84-5.682l-14.407-6.206a37.8 37.8 0 0 0-2.971 11.888" style="fill:#244ba6;fill-opacity:1;fill-rule:evenodd;stroke:none" transform="matrix(1.33333 0 0 -1.33333 -64.693 340.158)"/><path d="M71.016 135.815H82.51L71.016 236l141.076.122-10.435-100.307h13.409v-27.357H71.016Zm129.671-34.074a56.8 56.8 0 0 0-5.044-19.123l-16.41 7.067a37.8 37.8 0 0 1 3.046 12.055zM189.75 72.659a57.4 57.4 0 0 0-12.587-12.47l-10.348 14.02a38.3 38.3 0 0 1 8.58 8.696zm-23.414-18.61a56 56 0 0 0-15.99-4.21l-1.674 17.341c3.689.39 7.22 1.32 10.518 2.71zm-28.58-4.18a55.9 55.9 0 0 0-15.242 3.98l7.312 16.208a37.3 37.3 0 0 1 9.944-2.76zm-26.17 10.057A57.5 57.5 0 0 0 98.826 72.4l15.033 10.73a38.3 38.3 0 0 1 8.433-8.697zM92.834 82.417a56.8 56.8 0 0 0-5.139 19.323h19.436a37.8 37.8 0 0 1 2.971-11.887z" style="fill:#fff;fill-opacity:1;fill-rule:evenodd;stroke:none" transform="matrix(1.33333 0 0 -1.33333 -64.693 340.158)"/><path d="M85.958 217.505h110.718l-8.045-80.919h-92.33Z" style="fill:#fff200;fill-opacity:1;fill-rule:evenodd;stroke:none" transform="matrix(1.33333 0 0 -1.33333 -64.693 340.158)"/><path d="M94.261 211.549h95.426l-4.245-50.634c-.535-9.262-5.968-10.96-14.75-7.483 2.416-5.813 7.061-6.123 12.72-3.934.044-6.713-8.887-7.334-13.529-2.705-5.146-5.187-13.678-2.82-14.993 3.77 7.077-4.04 10.274-1.575 12.916 1.819-8.678-2.81-11.404 1.145-13.28 6.068 7.633-5.183 11.643-1.517 15.138 3.412 3.608-6.626 6.083-5.261 7.61-4.217 8.629 5.904 3.538 21.818-11.455 36.083-2.273-8.39-16.586-17.78-6.817-25.171 2.022-9.015-10.388-2.897-11.378 5.694l-2.987 18.823-.14-.005a6.4 6.4 0 0 1 2.68 5.207c0 3.517-2.852 6.389-6.35 6.389-3.5 0-6.353-2.872-6.353-6.389a6.4 6.4 0 0 1 3.4-5.654l-1.849-16.518c-1.454-13.867-13.733-14.622-12.314-7.601 9.796 8.42-4.38 16.95-6.737 25.368-18.02-19.543-18.809-33.605-10.602-37.622 1.118-.547 3.207-.795 7.634 4.711 3.877-6.404 9.152-6.652 15.388-2.688-1.663-6.763-6.317-9.192-15.342-5.288 2.41-3.563 4.935-9.06 14.975-2.645-.109-4.181-6.57-11.55-14.937-4.115-3.975-4.69-13.067-4.434-13.743 2.181 8.49-2.007 11.127 1.65 11.22 3.644-4.447-2.377-9.96-1.677-12.455 4.652zm53.412-60.967c-3.716.276-7.43-.195-11.146-1.178 2.162-1.868 7.191-3.427 9.977-1.73 1.299.813 2.052 2.097 1.169 2.908m-12.558 6.997c3.717.275 7.43-.197 11.147-1.18-2.164-1.867-7.19-3.427-9.977-1.728-1.3.812-2.052 2.095-1.17 2.908m3.43-14.07q2.483 1.241-8.129 6.885 1.643.92-.146 2.781 1.737-.059 3.47-.119c-2.658 5.182-2.393 8.265 4.305 6.738.854.794.795 1.773.608 2.777l-5.492-.142.16 1.438c4.75-.503 6.168 3.972 5.307 11.855 1.747 4.794 7.516 1.93 5.607-7.925 1.556-5.293 6.071-2.41 5.601-4.795l-5.376-.29q.007-1.939.018-3.875 3.629-1.37 3.517 1.667c1.117-1.367 2.805-1.295 4.756-.567q-2.274-3.91-5.167-5.935c.469-.878 2.081-1.18 4.213-1.219.077-8.49-8.029-5.345-7.25-8.725l-3.04-3.615q-1.483 1.532-2.961 3.065m2.47 58.42c1.687 0 3.063-1.384 3.063-3.08s-1.376-3.082-3.063-3.082-3.064 1.385-3.064 3.081c0 1.697 1.377 3.08 3.064 3.08m.105-30.516h.384a1.1 1.1 0 0 0 1.093-1.1v-4.167a1.1 1.1 0 0 0-1.093-1.1h-.384a1.1 1.1 0 0 0-1.094 1.1v4.167a1.1 1.1 0 0 0 1.094 1.1M207.49 127.221c2.126 0 3.86-1.745 3.86-3.884s-1.734-3.883-3.86-3.883c-2.128 0-3.861 1.745-3.861 3.883 0 2.14 1.733 3.884 3.86 3.884m-103.599-12.96H94.63l-1.274-3.564h-8.307l9.887 21.585h8.865l9.893-21.585h-8.51zm-1.702 4.667-2.91 7.76-2.891-7.76zm14.212-8.231v21.585h13.552c2.51 0 4.434-.178 5.757-.535q1.995-.526 3.216-1.964 1.221-1.433 1.22-3.493-.002-1.798-.932-3.1-.938-1.304-2.566-2.116c-.699-.341-1.648-.627-2.855-.85q1.452-.398 2.119-.798.445-.264 1.299-1.13c.57-.584.95-1.026 1.14-1.343l3.933-6.256h-9.19l-4.342 6.599c-.552.848-1.042 1.407-1.477 1.663-.582.33-1.25.497-1.991.497h-.717v-8.76zm8.166 12.84h3.43c.368 0 1.085.094 2.15.29q.809.137 1.324.68.507.541.508 1.25c0 .7-.269 1.232-.809 1.604q-.808.564-3.031.562h-3.572zm20.35 8.745h8.13v-8.158l8.527 8.158h10.807l-9.587-8.142 10.016-13.443h-10.016l-5.545 8.88-4.202-3.61v-5.27h-8.13zm46.773-18.022h-9.261l-1.276-3.563h-8.307l9.887 21.585h8.866l9.893-21.585h-8.509zm-1.703 4.668-2.909 7.76-2.893-7.76zm-109.658 7.467c2.126 0 3.86-1.745 3.86-3.884s-1.734-3.883-3.86-3.883-3.861 1.744-3.861 3.883 1.734 3.884 3.861 3.884" style="fill:#244ba6;fill-opacity:1;fill-rule:evenodd;stroke:none" transform="matrix(1.33333 0 0 -1.33333 -64.693 340.158)"/><path d="m200.915 215.166-.088-2.268c-.368-.01-.655-.084-.861-.213q-.5-.316-.566-.998-.053-.506.157-.805.208-.299.52-.33.296-.03.557.207.259.237.563 1.168.505 1.522 1.149 2.127.644.61 1.538.519.589-.06 1.075-.456.487-.396.718-1.113.228-.718.109-1.914-.15-1.47-.77-2.186t-1.82-.74l.096 2.245q.523.036.785.298.262.26.313.761.041.415-.113.64a.54.54 0 0 1-.402.253q-.18.017-.343-.139-.169-.15-.36-.767-.49-1.517-.899-2.154-.407-.637-.943-.892a2.13 2.13 0 0 0-1.16-.191 2.4 2.4 0 0 0-1.308.546q-.579.47-.823 1.237-.244.763-.133 1.877.195 1.954 1.021 2.628.824.68 1.988.66m4.277-8.653-.397-3.936q-.129-1.287-.803-1.863-.672-.578-1.793-.464-1.155.116-1.734.88-.579.766-.434 2.197l.131 1.296-2.829.288.24 2.379zm-3.488-2.048-.058-.58q-.07-.683.14-.986a.77.77 0 0 1 .575-.338.85.85 0 0 1 .634.18q.274.211.34.877l.068.674zm-1.076-5.005q1.865-.192 2.8-1.342.933-1.153.744-3.018-.194-1.913-1.32-2.845-1.123-.93-2.963-.743-1.337.135-2.144.678-.81.539-1.2 1.441c-.26.603-.346 1.327-.26 2.18q.13 1.294.627 2.103.497.805 1.438 1.245.942.436 2.278.301m-.25-2.369q-1.152.118-1.702-.26-.547-.382-.622-1.122-.076-.763.375-1.233.45-.468 1.728-.599 1.077-.11 1.619.277.538.385.613 1.134.073.714-.387 1.2-.461.484-1.623.603m-4.488-6.49 7.62-.779-.4-3.944q-.11-1.1-.357-1.66a1.78 1.78 0 0 0-.788-.864q-.54-.305-1.268-.229-.636.063-1.068.382-.431.32-.67.824c-.1.216-.175.502-.216.862q-.184-.408-.344-.59a2.5 2.5 0 0 0-.438-.336 3 3 0 0 0-.507-.284l-2.325-.92.27 2.676 2.457 1.028q.477.194.631.37.201.237.235.561l.02.21-3.091.315zm4.292-2.842-.1-.999q-.017-.159.04-.636a.63.63 0 0 1 .2-.41.7.7 0 0 1 .427-.193q.37-.037.589.178.223.214.288.862l.105 1.04zm2.555-5.597-.727-7.199-1.882.192.244 2.416-5.737.586.24 2.366 5.736-.585.244 2.414zm-4.582-7.217q1.865-.19 2.798-1.342.935-1.152.746-3.016-.193-1.915-1.317-2.845-1.126-.93-2.967-.744-1.335.137-2.144.677t-1.198 1.442q-.39.904-.261 2.178.13 1.295.626 2.106.498.805 1.44 1.244.94.436 2.277.3m-.25-2.367q-1.154.118-1.701-.26-.548-.382-.622-1.123-.078-.763.374-1.232.451-.47 1.73-.6 1.075-.11 1.617.276.54.386.614 1.134.073.716-.387 1.2-.461.486-1.624.605m3.233-6.264-.228-2.248-4.336-.377 4.135-1.614-.225-2.243-4.376-.752 4.174-1.244-.226-2.238-7.448 2.465.234 2.321 4.932.853-4.66 1.83.232 2.32zm-1.082-10.72-.264-2.63-2.729-1.286 2.416-1.808-.264-2.614-4.126 3.431-3.193.326.24 2.372 3.192-.325zM85.627 230.26h6.697v-1.538l-4.293-4.51h4.45v-1.653h-7.265v1.597l4.245 4.46h-3.834Zm7.13 0h2.247l.81-4.301 1.18 4.301h2.241l1.185-4.301.81 4.301h2.237l-1.687-7.701h-2.32l-1.342 4.848-1.338-4.849h-2.32zm11.58 0h2.372v-7.701h-2.372zm8.781-6.43h-2.694l-.371-1.272h-2.419l2.878 7.702h2.58l2.88-7.702h-2.477zm-.495 1.666-.848 2.769-.84-2.769zm1.389-2.802h.883a3.5 3.5 0 0 1-.106-.756q0-.398.195-.605.193-.204.538-.205.244.002.67.137v-.815c-.435-.16-.802-.241-1.109-.241q-.628 0-.975.338-.347.334-.347.893 0 .467.25 1.254m2.523 7.566h6.696v-1.538l-4.292-4.51h4.45v-1.653h-7.266v1.597l4.245 4.46h-3.833zm7.928 0h2.366v-2.91l2.483 2.91h3.144l-2.79-2.905 2.916-4.796h-2.915l-1.614 3.168-1.224-1.287v-1.882h-2.366zm8.238-3.855q.001 1.886 1.045 2.935 1.046 1.052 2.91 1.051 1.912 0 2.947-1.032 1.033-1.032 1.034-2.891 0-1.35-.453-2.215a3.24 3.24 0 0 0-1.304-1.345q-.853-.48-2.13-.48-1.294 0-2.144.414-.848.416-1.377 1.314-.527.9-.528 2.249m2.368-.01q-.001-1.168.43-1.678.432-.509 1.173-.51.763.001 1.18.499.418.5.42 1.792 0 1.09-.439 1.59-.434.501-1.182.5-.715.002-1.149-.508-.433-.51-.433-1.686m5.87 3.865h2.246l.81-4.301 1.18 4.301h2.241l1.185-4.301.81 4.301h2.235l-1.686-7.702h-2.32l-1.342 4.849-1.337-4.849h-2.32zm10.713 0h2.629l1.545-2.6 1.546 2.6h2.612l-2.978-4.475v-3.227h-2.37v3.227zm12.672 0h2.366v-2.91l2.482 2.91h3.145l-2.79-2.905 2.915-4.797h-2.915l-1.614 3.17-1.223-1.288v-1.882h-2.366zm8.9 0h2.368v-5.803h3.693v-1.899h-6.06zm11.842 0h2.363v-4.592q0-.682-.213-1.29a2.8 2.8 0 0 0-.661-1.061q-.453-.454-.95-.639-.688-.255-1.656-.256-.56-.001-1.22.079-.66.079-1.103.312a2.8 2.8 0 0 0-.814.665 2.5 2.5 0 0 0-.504.887q-.219.735-.219 1.303v4.592h2.362v-4.702q0-.631.347-.986.347-.352.964-.352.61-.001.958.349.346.348.346.989zm3.934 0h4.43q1.11 0 1.7-.552.594-.552.594-1.364 0-.684-.422-1.174-.285-.325-.826-.515c.548-.131.953-.362 1.214-.684q.387-.487.388-1.221 0-.6-.276-1.077a2.05 2.05 0 0 0-.757-.757q-.298-.173-.899-.252c-.534-.07-.885-.106-1.062-.106H189zm2.388-3.021h1.029q.553 0 .77.191.219.195.217.554.002.337-.217.525-.218.192-.754.19h-1.045zm0-3.027h1.207q.612 0 .86.218a.73.73 0 0 1 .252.587q.002.341-.247.55-.248.206-.872.207h-1.2zM82.52 156.116l-.338 3.111 4.5 1.711-4.76.688-.336 3.102 7.611.836.21-1.932-5.804-.637 5.968-.863.19-1.748-5.643-2.133 5.805.64.21-1.939zm2.744 10.24q-1.863-.203-3.014.727-1.154.93-1.355 2.794-.208 1.913.701 3.06.907 1.144 2.745 1.347 1.334.147 2.237-.212a3.23 3.23 0 0 0 1.472-1.16q.57-.8.705-2.075.142-1.295-.175-2.189-.322-.893-1.15-1.519-.831-.625-2.166-.772m-.246 2.37q1.152.125 1.61.612.456.486.377 1.227-.083.763-.621 1.127-.54.363-1.816.224-1.076-.12-1.526-.609-.447-.49-.364-1.239.075-.712.627-1.093c.366-.252.94-.335 1.713-.25m3.044 7.289-7.612-.837-.428 3.943q-.119 1.097.005 1.696.123.6.592 1.013.467.41 1.193.49.633.07 1.124-.152.488-.22.826-.665.215-.284.39-.798.096.439.215.648.08.14.358.423c.188.188.331.316.437.383l2.083 1.387.29-2.674-2.19-1.52q-.424-.29-.54-.494a1 1 0 0 1-.113-.599l.023-.208 3.09.34zm-4.786 1.878-.109.998q-.016.16-.171.615a.64.64 0 0 1-.28.359.72.72 0 0 1-.458.099q-.368-.04-.54-.297-.172-.258-.102-.905l.113-1.04zm1.412 5.72-.384 2.237q.537.131.799.39.422.413.347 1.094-.054.506-.32.754-.267.248-.577.214-.296-.032-.503-.32-.204-.286-.31-1.259-.177-1.595-.682-2.321a1.86 1.86 0 0 0-1.396-.83 2 2 0 0 0-1.147.22q-.556.284-.932.938-.372.655-.503 1.85-.159 1.468.3 2.297.459.832 1.625 1.107l.373-2.215q-.503-.146-.707-.457-.201-.31-.147-.81.043-.414.241-.603.196-.189.446-.162.181.02.308.206c.088.125.152.398.193.828q.166 1.586.433 2.294.266.709.737 1.07.47.36 1.094.43a2.4 2.4 0 0 0 1.394-.26q.663-.336 1.062-1.037.398-.694.518-1.807.212-1.952-.454-2.786-.665-.835-1.808-1.062M78.71 191.2l-.258 2.366 2.877.316-3.146 2.165-.342 3.145 3.175-2.475 4.424 3.437.316-2.915-2.955-1.957 1.404-1.083 1.86.203.257-2.365zm-.976 8.995-.26 2.37 7.614.837.256-2.372zM184.224 98.257l14.081-1.442-.919-3.633-2.485.449-.323-1.274 2.388-.835-.929-3.674-13.111 5.275zm8.249-4.111c-1.582.21-3.526.518-5.83.914q3.755-1.534 5.523-2.128zm-18.35-15.844 10.087-9.764-2.527-2.64-10.086 9.764ZM158.93 67.225l3.384-13.662-3.094-.775-3.378 5.748 1.54-6.21-2.954-.74-3.386 13.661 2.953.74 3.507-5.655-1.526 6.153zm-20.63-2.093-4.672-8.11-1.187-4.955-3.28.795 1.188 4.955-.396 9.336 3.254-.788q-.196-4.186-.436-5.592.821 2.117 2.274 5.147zm-24.627 14.14 1.884-1.98q1.827-1.912 2.293-2.754.469-.846.406-1.58a2.56 2.56 0 0 0-.47-1.3q-.406-.559-1.843-1.946l-3.54-3.412q-1.359-1.311-1.944-1.623-.58-.313-1.144-.245-.565.075-1.117.442-.552.374-1.453 1.32l-3.178 3.336zm.793-4.31-6.65-6.41q.544-.57.897-.485.356.09 1.365 1.065l3.927 3.786c.457.441.734.738.84.89a.59.59 0 0 1 .09.476c-.04.162-.196.391-.47.678m-12.301 15.015-.99 3.521 1.224.349q1.155.33 1.42.513.26.182.155.559-.092.328-.374.374t-1.316-.247l-6.463-1.84q-.906-.259-1.162-.458-.253-.2-.155-.55.108-.384.472-.434.364-.044 1.305.224l1.595.454-.199.71 2.048.584 1.16-4.124-7.23-2.059-.624 2.217.873.601a2.54 2.54 0 0 0-1.192.641c-.31.307-.538.708-.676 1.204a3.5 3.5 0 0 0-.039 1.782c.141.6.382 1.09.731 1.48q.518.582 1.184.88.668.297 2.057.694l4.003 1.14q1.926.548 2.86.588c.625.026 1.27-.22 1.941-.746q1.007-.782 1.452-2.358.435-1.546.089-2.747c-.229-.8-.607-1.39-1.129-1.76q-.78-.555-2.437-1.027z" style="fill:#244ba6;fill-opacity:1;fill-rule:nonzero;stroke:none" transform="matrix(1.33333 0 0 -1.33333 -64.693 340.158)"/></svg>