<svg xmlns="http://www.w3.org/2000/svg" viewBox="0 0 300 217.4"><path d="M42.364 252.695c39.735-15.463 90.089-28.726 139.356-28.866 37.19-.106 66.973 7.31 97.971 20.076 56.226 23.155 112.304 60.456 194.434 77.872 30.923 6.557 68.07 10.058 106.977 10.815-44.285 80.67-81.535 109.893-128.34 123.338-50.529 14.516-104.026 2.773-157.084-1.107-43.757-3.2-79.97-.116-116.801 15.214-13.878 5.775-31.523 16.336-46.191 27.815a233 233 0 0 0-18.622 16.262c-6.582 6.387-10.97 11.838-18.858 17.353l17.614 92.928-11.641 1.963-70.654-375.141c-9.158-.773-16.352-8.452-16.352-17.81 0-9.871 8.004-17.875 17.875-17.875s17.876 8.004 17.876 17.874c0 6.37-3.333 11.96-8.349 15.126zm49.2 259.558c1.745-13.575 2.563-23.716 2.9-33.997 1.377-41.938-3.248-64.345-8.643-93.692-5.368-29.198-12.35-62.532-24.872-90.162-4.391-9.687-9.904-18.976-15.797-27.002Z" style="fill:#cca227;fill-opacity:1;stroke:none;stroke-opacity:1" transform="matrix(.52917 0 0 .52917 -7.5 -114.052)"/><path d="M47.258 258.43c8.073 10.041 15.006 21.632 20.173 33.034 12.906 28.472 19.759 61.18 25.39 91.813 1.433 7.794 2.906 15.58 4.204 23.398 1.763 10.616 3.139 21.208 3.923 31.944.968 13.273 1.067 26.573.63 39.87-.462 14.072-1.982 27.988-3.918 41.881a89 89 0 0 0 3.024-2.87c2.832-2.81 5.559-5.714 8.423-8.493a240 240 0 0 1 19.192-16.76c14.093-11.03 31.37-21.926 47.843-28.782 39.384-16.392 77.822-18.83 120.055-15.74 9.714.71 19.407 1.677 29.092 2.7 41.233 4.356 84.926 10.322 125.508-1.336a172 172 0 0 0 14.824-4.972c21.053-8.184 38.347-20.312 54.147-36.388 19.348-19.686 35.51-44.097 49.366-68.33-32.167-1.063-65.23-4.032-96.486-10.66-38.032-8.064-73.196-21.081-108.427-37.278-29.128-13.392-57.624-28.777-87.24-40.974-31.558-12.997-60.842-19.638-95.24-19.54-44.923.128-92.289 11.289-134.483 27.482" style="fill:#fff;fill-rule:evenodd" transform="matrix(.52917 0 0 .52917 -7.5 -114.052)"/><path d="M466.355 337.456c-36.933-8.232-71.869-21.234-106.25-37.041-29.06-13.36-57.289-28.63-86.877-40.815-30.192-12.434-58.704-18.891-91.46-18.798-39.722.114-81.032 9.06-118.829 22.36a169.7 169.7 0 0 1 13.469 24.233c4.774 10.533 8.723 21.493 12.092 32.674 39.703-17.085 64.273-25.33 108.298-23.51 15.522.642 35.133 1.162 54.425 2.812 20.353 1.74 40.95 5.254 60.743 10.242 28.447 7.168 54.197 15.889 89.703 20.69 20.007 2.706 43.006 5.778 64.686 7.153M109.48 424.27c.526 4.533.964 9.077 1.297 13.631.993 13.611 1.1 27.274.651 40.91a321 321 0 0 1-.893 15.425 246 246 0 0 1 11.69-9.751c14.973-11.718 32.56-22.807 50.13-30.12 40.803-16.983 80.943-19.66 124.561-16.47 9.82.717 19.617 1.694 29.408 2.729 39.705 4.193 82.722 10.204 121.753-1.008a162 162 0 0 0 13.973-4.686c17.572-6.831 32.365-16.65 45.839-29.356-47.889 5.996-106.01 1.38-151.628-5.095-37.584-5.334-74.33-14.686-111.798-13.46-45.14 1.476-90.83 10.936-134.983 37.251" style="fill:#2c743a;fill-opacity:1;stroke:none;stroke-opacity:1" transform="matrix(.52917 0 0 .52917 -7.5 -114.052)"/><path d="m208.753 267.76 107.597 22.532-2.571 94.928c-.788 29.1-23.226 47.391-51.984 42.195-28.628-5.172-52.447-34.619-52.588-64.374z" style="fill:#cca227;fill-opacity:1;stroke:none;stroke-opacity:1" transform="matrix(.52917 0 0 .52917 -7.5 -114.052)"/><path d="m213.158 274.068.429 88.952c.129 27.144 21.811 54.444 48.835 59.327 10.85 1.96 20.18.052 27.607-4.02 11.972-6.564 18.997-19.482 19.456-36.343l2.387-87.548z" style="fill:#ad2827;fill-opacity:1;stroke:none;stroke-opacity:1" transform="matrix(.52917 0 0 .52917 -7.5 -114.052)"/><path d="m233.083 332.288 3.174.701c.765 9.429 12.665 14.647 23.799 16.6-.47-6.505-4.984-16.063-18.719-18.24v-1.988l42.313 8.539v1.939c-15.82-2.923-18.671 4.785-18.807 10.457 8.586 1.247 23.694 3.577 23.748-6.867l3.125.692v26.294l-3.15-.636c-1.937-11.145-14.731-14.726-23.588-16.606.551 5.253 3.094 15.036 18.672 17.744v2.344l-42.313-8.54v-1.99c5.751.976 9.722.595 12.469-.345 5.53-1.894 6.1-6.551 6.25-10.197-9.043-1.67-22.856-3.123-24.01 7.021l-2.963-.628zM233.083 371.162l3.174.7c.765 9.43 12.665 14.648 23.799 16.601-.47-6.505-4.984-16.063-18.719-18.24v-1.988l42.313 8.539v1.938c-15.82-2.922-18.671 4.786-18.807 10.458 8.586 1.247 23.694 3.577 23.748-6.867l3.125.692v26.294l-3.15-.636c-1.937-11.145-14.731-14.726-23.588-16.606.551 5.253 3.094 15.036 18.672 17.744v2.344l-42.313-8.54v-1.99c5.751.976 9.722.595 12.469-.345 5.53-1.894 6.1-6.551 6.25-10.197-9.043-1.67-22.856-3.123-24.01 7.021l-2.963-.628z" style="fill:#fefefe;fill-opacity:1;stroke:none;stroke-opacity:1" transform="matrix(.52917 0 0 .52917 -7.5 -114.052)"/><path d="M233.082 323.827c23.944.921 42.858 5.204 58.331 11.786l10.277-30.226c-5.44.597-13.803 3.925-18.89 8.767 4.587 2.972 6.5 5.744 5.44 8.313l-7.565-1.526-2.547-6.79-3.21 5.628-8.316-1.678c-.078-3.983 2-7.006 5.553-9.373-5.04-4.692-7.888-12.593-10.055-19.155-2.749 8.004-5.727 12.977-9.687 15.066 3.282 2.849 5.556 6.456 5.611 11.732l-8.432-1.701-2.81-6.844-2.715 5.728-8.264-1.668c.906-3.277 1.66-4.736 6.8-5.588-4.872-5.883-11.948-11.6-19.645-17.079zM96.777 333.799l2.72 11.485 4.23-1.814 9.37 46.999-3.627 1.965 2.267 13.898 19.192-9.668-1.512-12.392-3.928 1.511-4.51-23.6 24.457 27.83 12.542-5.74-1.057-12.088-4.835 2.416-16.623-19.494 7.404-26.142 6.347-1.813-.303-11.637-17.227 5.592-11.64 36.183-3.622-18.955 2.569-1.059-2.267-11.033zM194.056 309.063l.454 20.77-11.797 2.274c-.1-6.165-2.99-10.807-8.016-10.764-3.12.027-6.148 2.548-6.056 6.696.102 4.567 3.412 6.602 8.72 8.649 8.28 3.193 20.427 5.187 20.627 22.252.096 8.096-2.348 20.733-15.73 21.073-4.892.125-8.569-.353-13.46-2.122l-.15 1.667-7.109 2.426-1.663-25.014 12.099-.758c.554 8.44 3.645 10.762 8.318 10.309 3.55-.345 5.387-3.73 5.444-6.974.062-3.542-1.463-6.092-4.57-7.864-4.541-2.588-11.627-3.861-16.709-6.984-5.024-3.087-7.197-8.429-7.607-14.41-1.055-15.39 9.448-21.003 17.544-21.377 4.385-.202 6.956.353 11.797 2.425l.151-1.819zM328.89 328.511l-.6 8.442 2.979.532-2.732 35.858-2.811-.444-.614 9.711 29.166 3.929 1.51-22.215-8.16-1.135-.755 12.921-8.462-1.058 2.417-35.81 3.174.45.605-8.462zM363.528 336.207l-.6 7.61 2.675.509-2.883 34.44-2.811-.424-.613 9.133 30.224 3.756 1.197-16.244-8.905-.928-.756 7.2-9.218-1.012.853-13.274 9.644 1.565.703-7.481-9.62-1.502 1.594-13.701 9.223 1.505-.974 9.164 8.77.824 1.714-15.515zM426.87 346.952l-1.886 15.87-8.799-1.102.315-3.454c.222-2.449-1.827-3.922-3.894-4.307-2.656-.495-5.55.809-5.85 4.146l-1.884 20.898c-.279 3.098 2.014 5.742 4.544 5.823 2.813.089 5.16-1.106 5.513-5.667l.315-4.08 8.642.944-.63 8.482c-.633 8.545-7.63 10.188-14.69 9.353-3.38-.4-6.31-1.295-8.542-2.808-3.263-2.211-5.092-5.75-4.561-10.984l2.495-24.623c.376-3.72 1.563-6.287 3.661-8.063 1.972-1.67 4.75-2.67 8.421-2.7 3.469-.028 5.79.822 7.56 2.114l1.257-.942zM468.6 349.818l.073 7.17 2.638.002-.3 31.681-2.871-.003-.012 7.096 16.358-.237-.008-6.935h-3.254l-.326-31.602h3.124l-.086-7.173zM431.041 347.847l-.353 8.198 2.373.082-2.064 31.207-2.905-.082-.427 7.963 14.445.547.4-7.957-2.241-.159.782-12.506 10.286.596-.695 12.355-2.909-.081-.145 7.846 14.701.302.197-7.919-2.64-.155 1.002-30.904 2.596.233.37-7.843-13.505-.698-.378 8.077 2.456.08-.644 11.458-10.24-.586.712-11.381 2.67.157.343-8.12zM492.869 349.779l-3.142 37.873-2.2-.001.313 6.913 13.357-.785-.628-6.914-3.143.159.66-6.81 8.796-.82 1.857 6.055-2.828.474.787 7.23 14.612-2.358-.942-7.23-1.885.315-10.528-35.67zm5.691 25.526 1.695-17.512 5.183 16.893z" style="fill:#cca227;fill-opacity:1;stroke:none;stroke-opacity:1" transform="matrix(.52917 0 0 .52917 -7.5 -114.052)"/></svg>