<svg xmlns="http://www.w3.org/2000/svg" viewBox="360.42 184.41 345.82 431.18"><defs><clipPath id="a" clipPathUnits="userSpaceOnUse"><path d="M-270.316 166.176h800v-600h-800Z"/></clipPath><clipPath id="b" clipPathUnits="userSpaceOnUse"><path d="M-423.373 151.042h800v-600h-800Z"/></clipPath><clipPath id="c" clipPathUnits="userSpaceOnUse"><path d="M-519.049 192.48h800v-600h-800Z"/></clipPath><clipPath id="d" clipPathUnits="userSpaceOnUse"><path d="M-280.95 174.523h800v-600h-800Z"/></clipPath><clipPath id="e" clipPathUnits="userSpaceOnUse"><path d="M-300.806 307.021h800v-600h-800Z"/></clipPath><clipPath id="f" clipPathUnits="userSpaceOnUse"><path d="M-309.958 335.515h800v-600h-800Z"/></clipPath><clipPath id="g" clipPathUnits="userSpaceOnUse"><path d="M-308.406 321.337h800v-600h-800Z"/></clipPath><clipPath id="h" clipPathUnits="userSpaceOnUse"><path d="M-307.711 306.751h800v-600h-800Z"/></clipPath><clipPath id="i" clipPathUnits="userSpaceOnUse"><path d="M-312.937 315.68h800v-600h-800Z"/></clipPath><clipPath id="j" clipPathUnits="userSpaceOnUse"><path d="M-321.297 312.184h800v-600h-800Z"/></clipPath><clipPath id="k" clipPathUnits="userSpaceOnUse"><path d="M-327.293 306.797h800v-600h-800Z"/></clipPath><clipPath id="l" clipPathUnits="userSpaceOnUse"><path d="M-316.207 343.655h800v-600h-800Z"/></clipPath><clipPath id="m" clipPathUnits="userSpaceOnUse"><path d="M-322.099 341.007h800v-600h-800Z"/></clipPath><clipPath id="n" clipPathUnits="userSpaceOnUse"><path d="M-331.148 333.957h800v-600h-800Z"/></clipPath><clipPath id="o" clipPathUnits="userSpaceOnUse"><path d="M-336.435 335.111h800v-600h-800Z"/></clipPath><clipPath id="p" clipPathUnits="userSpaceOnUse"><path d="M-343.586 332.49h800v-600h-800Z"/></clipPath><clipPath id="q" clipPathUnits="userSpaceOnUse"><path d="M-350.276 326.96h800v-600h-800Z"/></clipPath><clipPath id="r" clipPathUnits="userSpaceOnUse"><path d="M-357.02 324.77h800v-600h-800Z"/></clipPath><clipPath id="s" clipPathUnits="userSpaceOnUse"><path d="M-313.621 330.299h800v-600h-800Z"/></clipPath><clipPath id="t" clipPathUnits="userSpaceOnUse"><path d="M-322.036 326.618h800v-600h-800Z"/></clipPath><clipPath id="u" clipPathUnits="userSpaceOnUse"><path d="M-324.897 325.41h800v-600h-800Z"/></clipPath><clipPath id="v" clipPathUnits="userSpaceOnUse"><path d="M-330.896 315.215h800v-600h-800Z"/></clipPath><clipPath id="w" clipPathUnits="userSpaceOnUse"><path d="M-338.451 319.852h800v-600h-800Z"/></clipPath><clipPath id="x" clipPathUnits="userSpaceOnUse"><path d="M-336.768 283.29h800v-600h-800Z"/></clipPath><clipPath id="y" clipPathUnits="userSpaceOnUse"><path d="M-416.567 194.581h800v-600h-800Z"/></clipPath><clipPath id="z" clipPathUnits="userSpaceOnUse"><path d="M-382.33 230.147h800v-600h-800Z"/></clipPath><clipPath id="A" clipPathUnits="userSpaceOnUse"><path d="M-415.823 224.193h800v-600h-800Z"/></clipPath><clipPath id="B" clipPathUnits="userSpaceOnUse"><path d="M-435.797 206.843h800v-600h-800Z"/></clipPath><clipPath id="C" clipPathUnits="userSpaceOnUse"><path d="M-368.302 280.227h800v-600h-800Z"/></clipPath></defs><path d="M0 0c85.987 37.323 172.502 36.993 259.368 0v-127.389c0-79.335-30.674-127.312-129.14-168.129C33.419-249.017 0-206.724 0-127.389Z" clip-path="url(#a)" style="fill:#cba349;fill-opacity:1;fill-rule:nonzero;stroke:none" transform="matrix(1.33333 0 0 -1.33333 360.421 221.568)"/><path d="M0 0c32.02-2.538 63.91-10.377 95.676-23.481v-17.957l-175.995-223.19c-35.017 24.893-53.066 51.735-59.409 87.765z" clip-path="url(#b)" style="fill:#0860a8;fill-opacity:1;fill-rule:nonzero;stroke:none" transform="matrix(1.33333 0 0 -1.33333 564.497 201.39)"/><path d="M0 0v-101.64c0-72.828-28.158-116.872-118.549-154.34-22.84 10.97-41.826 21.687-57.446 32.79z" clip-path="url(#c)" style="fill:red;fill-opacity:1;fill-rule:nonzero;stroke:none" transform="matrix(1.33333 0 0 -1.33333 692.065 256.64)"/><path d="M0 0c47.757 19.442 95.228 27.222 142.422 23.481L2.695-153.382C.858-142.947 0-131.747 0-119.596Z" clip-path="url(#d)" style="fill:#008837;fill-opacity:1;fill-rule:nonzero;stroke:none" transform="matrix(1.33333 0 0 -1.33333 374.6 232.698)"/><path d="m0 0-.191 4.747 4.425 1.861c10.267 4.319 20.155 8.359 29.623 11.689 6.662 2.344 13.139 4.353 19.427 5.89-8.575 10.805-14.136 27.984-7.855 34.232 1.925-6.387 1.068-10.343 9.896-9.814.55 2.202.419 4.857 1.602 6.779 1.232-2.241.632-5.763 5.656-7.847 11.666-4.839 21.375 4.698 14.578 17.285-2.528 4.682-7.592 10.271-13.466 11.932-4.041 1.143-8.012.535-10.746-1.807-3.128-2.678-2.909-5.024-3.207-9.932-2.834 2.747-3.672 5.425-5.206 7.98-2.252.163-3.662.63-4.491.181-.393-1.934.149-3.957.168-6.416-3.229 2.695-3.428 6.376-4.225 10.247-1.309 1.83-1.641 2.456-3.155 4.832-1.586 2.491-1.978 5.21-2.236 8.45-.159 1.982-.32 3.475-.209 4.644 7.291 1.718 15.53 5.537 21.361 12.363-6.708-4.135-13.419-6.11-20.128-7.268-.762 1.918-.726 5.612 4.649 9.248 3.98 2.691 7.436 3.42 13.435 3.849 16.585 1.187 19.377-3.613 24.316 0 4.661 7.085 17.437 8.192 30.053 7.207-13.353 20.491 40.014 3.018 50.29-6.647-2.975.106-7.85-.35-10.497-.675-9.964 5.255-19.406 6.286-29.44 6.088a166 166 0 0 0 10.011-1.881c5.576-1.225 9.38-3.001 14.045-4.561l1.865-.686c-1.394.481-12.539-2.264-13.733-4.581 10.274 2.498 24.262 4.17 34.057 2.674 13.291-1.565 7.537-12.018 7.03-12.761-4.94-6.236-13.055-8.732-20.043-6.771 7.296-3.007 18.472-1.185 24.312 5.815 7.221-3.531 18.174-17.474 22.055-27.084C190.26 73.855 178.76 83 174.529 82.866c21.821-14.179 39.005-52.203 33.606-78.373-.918 19.956-11.377 45.792-29.884 56.057 5.667-8.721 7.486-7.036 14.685-22.063 8.828-18.424 12.443-41.605 7.592-61.739-1.576-7.886-3.315-12.578-8.014-19.312 2.694 12.017 4.365 18.568 2.401 38.414-1.071 10.835-4.067 19.499-9.212 28.302-1.628 2.785-3.875 5.134-5.036 7.2 15.912-35.6 17.089-78.871-17.807-109.621 5.926 9.922 12.797 20.968 17.067 39.496 3.859 16.738 1.609 34.124-5.555 47.299 4.475-18.304 5.517-29.433-.44-48.25C163-74.246 144.034-89.683 112.31-97.548c11.245 7.863 19.615 14.122 25.023 31.113-15.448-21.911-50.261-32.962-76.268-28.516-14.001 2.394-26.645 9.057-36.7 19.323-4.661 4.758-8.621 10.222-11.936 16.37C9.174-53.22 6.533-46.514 4.453-39.16c-1.808 6.396-2.799 12.973-3.395 19.592C.511-13.515.269-6.675 0 0" clip-path="url(#e)" style="fill:#cba349;fill-opacity:1;fill-rule:nonzero;stroke:none" transform="matrix(1.33333 0 0 -1.33333 401.075 409.362)"/><path d="M0 0c.501-3.013 1.133-5.959 1.938-8.806q.417-1.474.866-2.911C9.286-8.724 15.788-5.82 22.121-3.168c7.091 2.969 13.968 5.622 20.363 7.732 5.407 1.783 14.461 4.085 22.357 3.544 5.456-.375 10.38-2.099 13.277-6.246a12 12 0 0 0 1.4-2.687c.69-1.842.334-3.308-.629-3.779-.85-.417-2.195-.026-3.392 1.088-2.121 1.974-3.681 4.642-4.246 8.535-1.964.78-4.187 1.202-6.525 1.362-6.275.431-13.344-1.009-18.586-2.5 1.561-8.045 5.955-17.233 12.539-23.405 5.372-5.038 12.21-8.049 20.15-6.722 6.265 1.048 11.757 4.459 15.288 9.296 3.336 4.568 4.92 10.413 3.75 16.739-.899 4.855-3.477 9.478-7.368 13.127-3.679 3.449-8.532 6.025-14.249 7.101-21.803 4.097-45.949-6.612-67.568-16.201A968 968 0 0 0 0 0" clip-path="url(#f)" style="fill:red;fill-opacity:1;fill-rule:nonzero;stroke:none" transform="matrix(1.33333 0 0 -1.33333 413.277 447.353)"/><path d="M0 0c.28-4.202.668-8.365 1.273-12.418a996 996 0 0 1 8.266 3.635C31.386.906 55.787 11.729 78.118 7.531c6.056-1.138 11.204-3.873 15.112-7.54 4.158-3.898 6.916-8.853 7.88-14.069 1.265-6.828-.446-13.138-4.046-18.068-3.79-5.192-9.681-8.854-16.401-9.977-8.543-1.428-15.874 1.785-21.613 7.166-6.808 6.385-11.367 15.852-13.018 24.169a77 77 0 0 1-1.456-.465c-5.923-1.952-12.248-4.37-18.767-7.069 2.441-10.241 6.677-20.005 13.32-27.346 5.73-6.331 13.266-10.862 23.002-12.335a42 42 0 0 1 6.114-.463c10.164-.044 20.773 3.388 29.232 9.409 8.423 5.999 14.705 14.566 16.255 24.819.237 1.567.364 3.177.372 4.826a43 43 0 0 1-.303 5.308c-1.377 11.386-7.377 20.034-15.826 25.846-8.5 5.845-19.484 8.837-30.765 8.884a65 65 0 0 1-8.099-.469C41.55 18.033 25.812 11.185 9.835 4.232A937 937 0 0 0 0 0" clip-path="url(#g)" style="fill:#0860a8;fill-opacity:1;fill-rule:nonzero;stroke:none" transform="matrix(1.33333 0 0 -1.33333 411.208 428.45)"/><path d="M0 0c.17-4.236.328-8.515.58-12.765a967 967 0 0 1 9.262 3.991C25.94-1.77 41.797 5.13 59.604 7.284c2.77.334 5.549.495 8.308.484 11.61-.048 22.939-3.146 31.734-9.195 8.844-6.082 15.121-15.135 16.563-27.06.215-1.781.324-3.62.315-5.518a35 35 0 0 0-.391-5.076c-1.626-10.75-8.179-19.71-16.964-25.964-8.749-6.229-19.723-9.779-30.236-9.734a44 44 0 0 0-6.363.483c-10.173 1.539-18.044 6.272-24.027 12.883-6.792 7.505-11.137 17.429-13.65 27.833-6.331-2.653-12.832-5.56-19.312-8.553C9.44-53.806 14.943-63.489 22.369-71.07c17.77-18.141 44.52-23.751 71.83-12.284 17.564 7.375 30.512 21.352 33.881 38.505 2.836 14.431.066 30.81-10.86 44.404-13.656 16.989-38.01 23.424-61.065 19.38C38.976 15.921 20.22 8.503 0 0" clip-path="url(#h)" style="fill:#008837;fill-opacity:1;fill-rule:nonzero;stroke:none" transform="matrix(1.33333 0 0 -1.33333 410.282 409.001)"/><path d="m0 0-2.761 8.124 2.174.899 3.189-5.002-.595 6.076 2.18.901 2.762-8.124L5.6 2.315 3.426 8.712l.745-6.986-1.398-.58-3.598 5.808L1.349.558Z" clip-path="url(#i)" style="fill:#cba349;fill-opacity:1;fill-rule:nonzero;stroke:none" transform="matrix(1.33333 0 0 -1.33333 417.249 420.908)"/><path d="m0 0-2.761 8.124 1.452.601 1.226-3.608 1.708 4.821 1.954.808-1.633-4.284 4.542-3.779-1.879-.777-3.274 2.995-.717-1.845.835-2.455Z" clip-path="url(#j)" style="fill:#cba349;fill-opacity:1;fill-rule:nonzero;stroke:none" transform="matrix(1.33333 0 0 -1.33333 428.397 416.245)"/><path d="m0 0 1.372.715q.388-.76.904-.986.514-.224 1.182.036.706.276.955.755.25.477.104.928a.8.8 0 0 1-.31.435q-.216.146-.641.147-.288.001-1.285-.099Q1 1.799.372 2.094q-.886.412-1.199 1.384A2.5 2.5 0 0 0-.89 4.769q.14.665.637 1.181.5.513 1.333.841 1.365.533 2.271.129.906-.405 1.304-1.519l-1.438-.644q-.298.594-.696.748-.396.156-1.014-.086c-.424-.166-.728-.394-.903-.686a.68.68 0 0 1-.069-.596.64.64 0 0 1 .377-.412q.362-.155 1.521-.021 1.159.133 1.767.029a2.1 2.1 0 0 0 1.069-.518q.46-.415.709-1.19.226-.702.078-1.45a2.5 2.5 0 0 0-.684-1.294q-.537-.547-1.48-.916-1.374-.536-2.34-.109Q.584-1.314 0 0" clip-path="url(#k)" style="fill:#cba349;fill-opacity:1;fill-rule:nonzero;stroke:none" transform="matrix(1.33333 0 0 -1.33333 436.39 409.063)"/><path d="m0 0-2.688 8.057 1.425.6L.968 1.972l3.544 1.496.457-1.369z" clip-path="url(#l)" style="fill:#cba349;fill-opacity:1;fill-rule:nonzero;stroke:none" transform="matrix(1.33333 0 0 -1.33333 421.609 458.207)"/><path d="m0 0-2.586 8.173 5.268 2.104.437-1.383-3.833-1.531.573-1.812 3.568 1.425.435-1.375L.294 4.176l.705-2.225 3.969 1.585.436-1.378Z" clip-path="url(#m)" style="fill:#cba349;fill-opacity:1;fill-rule:nonzero;stroke:none" transform="matrix(1.33333 0 0 -1.33333 429.465 454.676)"/><path d="m0 0-.415 1.386 3.112 1.172.981-3.275q-.303-.676-1.05-1.387A4.9 4.9 0 0 0 1-3.143q-1.121-.422-2.118-.197-.996.227-1.717 1.076T-3.911-.232q-.383 1.283-.215 2.46.17 1.175.913 2.046.565.67 1.589 1.055 1.333.5 2.272.142.94-.36 1.496-1.412l-1.342-.85q-.333.55-.856.743-.521.193-1.145-.041-.947-.357-1.299-1.258-.35-.9.056-2.257.438-1.463 1.223-1.982c.523-.348 1.091-.403 1.701-.173q.454.171.85.548.393.376.634.79L1.654.623Z" clip-path="url(#n)" style="fill:#cba349;fill-opacity:1;fill-rule:nonzero;stroke:none" transform="matrix(1.33333 0 0 -1.33333 441.531 445.276)"/><path d="m0 0-2.337 8.267 1.413.502 4.505-4.477L2.02 9.813l1.35.478 2.338-8.267-1.459-.517L-.175 5.87 1.35.479Z" clip-path="url(#o)" style="fill:#cba349;fill-opacity:1;fill-rule:nonzero;stroke:none" transform="matrix(1.33333 0 0 -1.33333 448.58 446.815)"/><path d="m0 0-2.211 8.311 1.46.485L1.46.485Z" clip-path="url(#p)" style="fill:#cba349;fill-opacity:1;fill-rule:nonzero;stroke:none" transform="matrix(1.33333 0 0 -1.33333 458.115 443.32)"/><path d="m0 0 1.552-.044q.036-1.468-.545-2.382-.58-.911-1.746-1.299-1.44-.48-2.668.342-1.229.824-1.751 2.783-.551 2.076.075 3.535.627 1.456 2.147 1.962 1.326.442 2.395-.185.636-.366 1.148-1.283l-1.34-.878q-.299.605-.808.844-.506.239-1.087.044-.805-.267-1.129-1.098-.324-.827.071-2.315c.28-1.049.643-1.745 1.091-2.079q.67-.507 1.46-.244.582.194.888.76Q.06-.973 0 0" clip-path="url(#q)" style="fill:#cba349;fill-opacity:1;fill-rule:nonzero;stroke:none" transform="matrix(1.33333 0 0 -1.33333 467.035 435.948)"/><path d="m0 0-1.647 2.889-.364-3.386zm3.413-2.668-1.62-.4-1.03 1.762-2.946-.727-.221-2.072-1.577-.39 1.168 9.167 1.574.388z" clip-path="url(#r)" style="fill:#cba349;fill-opacity:1;fill-rule:nonzero;stroke:none" transform="matrix(1.33333 0 0 -1.33333 476.027 433.027)"/><path d="m0 0-2.801 8.094 2.205.923 3.235-4.968-.603 6.068 2.211.925 2.801-8.095-1.368-.572-2.205 6.373.755-6.978-1.418-.594-3.649 5.767L1.368.571Z" clip-path="url(#s)" style="fill:#cba349;fill-opacity:1;fill-rule:nonzero;stroke:none" transform="matrix(1.33333 0 0 -1.33333 418.161 440.398)"/><path d="m0 0-2.801 8.094 1.473.616L1.473.616Z" clip-path="url(#t)" style="fill:#cba349;fill-opacity:1;fill-rule:nonzero;stroke:none" transform="matrix(1.33333 0 0 -1.33333 429.381 435.49)"/><path d="m0 0-2.801 8.094 5.409 2.263.475-1.371L-.854 7.34l.622-1.794L3.43 7.078l.472-1.362L.239 4.184l.762-2.204 4.076 1.705.472-1.365Z" clip-path="url(#u)" style="fill:#cba349;fill-opacity:1;fill-rule:nonzero;stroke:none" transform="matrix(1.33333 0 0 -1.33333 433.196 433.879)"/><path d="m0 0 1.77-5.394 1.107.439q.62.245.872.433.327.242.488.576.158.333.13.94c-.021.403-.133.923-.34 1.552q-.31.944-.626 1.39-.318.446-.679.623a1.4 1.4 0 0 1-.814.11Q1.573.624.665.265Zm-1.935.792 2.71 1.073q.916.364 1.449.399a2.4 2.4 0 0 0 1.353-.313q.638-.355 1.134-1.04.497-.686.872-1.831.331-1.006.344-1.824.017-.996-.315-1.749-.247-.571-.828-1.064-.432-.367-1.256-.692L.738-7.354z" clip-path="url(#v)" style="fill:#cba349;fill-opacity:1;fill-rule:nonzero;stroke:none" transform="matrix(1.33333 0 0 -1.33333 441.194 420.286)"/><path d="m0 0-.44 1.501 2.338 6.726-.941-.332-.281-1.344-.937-.422L-.16 7.5l-1.404-.496-.41 1.394 1.929.682.105 1.441 1.552.5-.306-1.464 2.162.763.379-1.294-2.443-6.997 4.229 1.493.408-1.39Z" clip-path="url(#w)" style="fill:#cba349;fill-opacity:1;fill-rule:nonzero;stroke:none" transform="matrix(1.33333 0 0 -1.33333 451.268 426.47)"/><path d="M0 0c-.513-2.008-1.42-3.906-2.778-6.614-.256 2.201-.555 3.811-.917 5.157-3.16-.33-6.76 1.161-9.775 3.893-.392-3.219-1.743-5.959-3.757-7.661.313-1.574.851-3.349 1.877-5.877-2.335 1.613-3.98 2.791-5.342 4.179a8 8 0 0 0-.582-.095c-1.814-.223-3.63.207-5.301 1.144-.856-2.334-2.265-4.232-4.056-5.398.322-1.49.853-3.186 1.804-5.53-2.391 1.652-4.06 2.848-5.442 4.28-5.562-.436-10.807 5.178-11.727 12.565-.924 7.409 2.85 13.797 8.43 14.269 1.528.129 3.033-.2 4.433-.897 1.257 3.423 3.781 5.843 7.043 6.245 2.252.277 4.51-.452 6.486-1.91.518 2.802 2.103 4.991 4.642 5.913 5.135 1.864 12.226-2.155 15.836-8.978C3.988 8.798 3.492 2.747 0 0" clip-path="url(#x)" style="fill:#cba349;fill-opacity:1;fill-rule:nonzero;stroke:none" transform="matrix(1.33333 0 0 -1.33333 449.023 377.72)"/><path d="M0 0c-9.944 1.723-20.92 3.169-30.864 1.077-3.397-1.472-2.512-4.98-1.834-6.302-5.363.563-22.073.039-28.359-.757 9.653.762 34.917-1.61 40.909-2.668-.585 2.241-5.016 6.3-6.891 7.569C-19.63.69-8.36.815 0 0" clip-path="url(#y)" style="fill:#0860a8;fill-opacity:1;fill-rule:nonzero;stroke:none" transform="matrix(1.33333 0 0 -1.33333 555.423 259.442)"/><path d="M0 0c1.639-.664 2.929-1.725 3.912-3.064.573 4.208 2.485 8.418 6.293 13.075l9.151.329C9.89 4.332 6.545-1.969 6.195-8.868c.964-5.769-.627-12.871-3.505-17.584C5.714-18.489 6.261-6.168-5.93-.022z" clip-path="url(#z)" style="fill:#0860a8;fill-opacity:1;fill-rule:nonzero;stroke:none" transform="matrix(1.33333 0 0 -1.33333 509.774 306.863)"/><path d="M0 0c19.15 3.383 35.728-3.118 53.058-25.247C38.536-6.275 13.089.07.63-5.7Z" clip-path="url(#A)" style="fill:#0860a8;fill-opacity:1;fill-rule:nonzero;stroke:none" transform="matrix(1.33333 0 0 -1.33333 554.43 298.925)"/><path d="M0 0c3.415 6.236 30.774 7.021 24.965-3.516C26.437 5.209 5.137 2.51-.436-4.573Z" clip-path="url(#B)" style="fill:#0860a8;fill-opacity:1;fill-rule:nonzero;stroke:none" transform="matrix(1.33333 0 0 -1.33333 581.063 275.791)"/><path d="M0 0c11.115 1.189 22.338.167 32.557-3.076a70 70 0 0 0 4.469-1.587 32.1 32.1 0 0 1-8.595 7.39C38.571-.207 46.663-.259 52.45 2.241 68.8-6.892 81.255-41.104 75.116-69.432 84.381-37.46 71.454-5.935 56.61 4.801c5.827 4.944 7.738 13.962 5.189 26.361 14.289.905 34.099-7.293 44.125-31.047-11.481 29.522-28.582 35.142-45.283 35.827q-.124.45-.253.907C65.99 6.641 48.308-.645 23.184 5.206 13.56 8.622 5.271 5.352 0 0" clip-path="url(#C)" style="fill:#0860a8;fill-opacity:1;fill-rule:nonzero;stroke:none" transform="matrix(1.33333 0 0 -1.33333 491.07 373.635)"/></svg>