<svg xmlns="http://www.w3.org/2000/svg" xmlns:xlink="http://www.w3.org/1999/xlink" viewBox="0.54 0.46 199 300.15"><linearGradient id="d"><stop offset="0" stop-color="#fff"/><stop offset=".1" stop-color="#fdb813"/><stop offset=".2" stop-color="#fdb813"/><stop offset=".3" stop-color="#f5ad15"/><stop offset=".4" stop-color="#e28d19"/><stop offset=".5" stop-color="#d67a19"/><stop offset=".6" stop-color="#cb6718"/><stop offset=".7" stop-color="#ba4a16"/><stop offset=".8" stop-color="#ac3113"/><stop offset=".9" stop-color="#ac3113"/><stop offset="1" stop-color="#ac3113"/></linearGradient><linearGradient id="b"><stop offset="0" stop-color="#fdb813"/><stop offset=".1" stop-color="#fdb813"/><stop offset=".2" stop-color="#fdb813"/><stop offset=".3" stop-color="#fdb813"/><stop offset=".4" stop-color="#fdb813"/><stop offset=".5" stop-color="#fdb813"/><stop offset=".6" stop-color="#f3a916"/><stop offset=".7" stop-color="#e99818"/><stop offset=".8" stop-color="#d97d1a"/><stop offset=".9" stop-color="#d17119"/><stop offset="1" stop-color="#d17119"/></linearGradient><linearGradient id="a"><stop offset="0" stop-color="#f68e55"/><stop offset="1" stop-color="#ed1c24"/></linearGradient><radialGradient xlink:href="#a" id="e" cx="0" cy="0" r="1" gradientTransform="matrix(221.73625 0 0 -223.35499 577.79 580.7)" gradientUnits="userSpaceOnUse" spreadMethod="pad"/><linearGradient id="f" x1="565.685" x2="751.983" y1="268.484" y2="269.984" gradientUnits="userSpaceOnUse"><stop offset="0" stop-color="#f7982c"/><stop offset=".1" stop-color="#f99f29"/><stop offset=".2" stop-color="#fbaf3a"/><stop offset=".3" stop-color="#fec04f"/><stop offset=".4" stop-color="#ffd164"/><stop offset=".5" stop-color="#ffe377"/><stop offset=".6" stop-color="#ffcb43"/><stop offset=".7" stop-color="#f7b114"/><stop offset=".8" stop-color="#e29318"/><stop offset=".9" stop-color="#cd7917"/><stop offset="1" stop-color="#c77116"/></linearGradient><linearGradient xlink:href="#b" id="g" x1="836.659" x2="930.705" y1="511.173" y2="446.296" gradientUnits="userSpaceOnUse"/><radialGradient xlink:href="#a" id="h" cx="0" cy="0" r="1" gradientTransform="matrix(260.75549 0 0 -262.65922 577.65 580.628)" gradientUnits="userSpaceOnUse" spreadMethod="pad"/><radialGradient xlink:href="#a" id="i" cx="0" cy="0" r="1" gradientTransform="matrix(306.77416 0 0 -309.01379 577.719 580.593)" gradientUnits="userSpaceOnUse" spreadMethod="pad"/><linearGradient xlink:href="#d" id="j" x1="866.428" x2="982.392" y1="776.843" y2="836.364" gradientUnits="userSpaceOnUse"/><linearGradient xlink:href="#d" id="k" x1="789.283" x2="881.106" y1="862.773" y2="955.135" gradientUnits="userSpaceOnUse"/><linearGradient xlink:href="#b" id="l" x1="498.83" x2="442.743" y1="890.37" y2="967.654" gradientUnits="userSpaceOnUse"/><path fill="url(#e)" d="M598.796 324.18c-30.701 4.773-36.958 25.022-38.192 31.772-24.612-1.812-43.874 1.4-66.015 10.7-20.33 8.477-33.337 21.813-38.932 39.59-7.822 25.19 0 58.115 21.976 92.768l1.234.74 1.318-.822c9.712-19.755 26.668-23.79 39.097-23.79 30.95 0 66.921 24.612 83.793 57.209 16.96 33.087 15.888 50.868 12.76 77.126-5.022 40.991-49.224 86.674-104.865 86.674-35.312 0-69.801-18.684-98.116-54.08-60.008-75.15-35.889-157.299-23.131-189.07l-.41-1.728-1.73-.082q-9.63 6.419-18.274 17.284c-12.592 18.85-21.648 38.77-26.996 59.018-14.242 53.586-8.069 132.359 52.183 192.776 37.782 38.03 85.689 58.934 134.91 58.934 81.738 0 165.778-59.018 168.33-171.619 2.14-91.202-48.482-138.778-91.203-162.65-20.33-11.358-39.591-13.747-52.102-13.747-16.3 0-28.151 3.789-33.421 6.834-4.773-11.523-4.608-21.813.496-29.797 10.865-16.956 43.79-21.814 92.024-13.252l1.481-.659.081-1.565c-1.808-2.964-3.455-7.406-1.068-11.689 2.305-4.114 10.29-11.111 38.03-11.111 0 0 12.675-.166 19.835.412 22.142 1.565 45.848 6.5 50.375 7.819-7.244 8.643-34.159 48.319 11.689 112.85 21.073 29.798 50.456 56.878 84.946 78.36 39.097 25.435 81.159 40.088 115.402 40.088h.082c25.927 0 45.767-8.23 57.371-23.706 12.43-16.462 8.15-36.136 2.965-51.446-9.384-26.668-33.503-63.05-52.68-79.513h-1.893l-.33 1.893c16.133 27.161 20.907 52.02 12.263 63.216-6.747 8.806-19.177 13.664-34.734 13.664-18.108 0-38.935-6.257-58.605-17.697-6.092-3.539-12.76-8.15-18.274-12.595-43.38-35.23-75.315-88.072-52.433-120.997 7.16-10.209 22.966-17.45 42.308-19.508l1.316-1.237-.822-1.646c-7.738-3.62-28.317-13.086-28.317-13.086-.247-.165-26.587-13.335-76.302-22.885-17.534-3.374-37.617-5.101-59.512-5.101-22.141 0-45.682 1.809-67.908 5.35" transform="matrix(.28129 0 0 .28129 -87.083 -63.353)"/><g fill="#ed1c24"><path d="M80.763 260.096s-13.244 29.867-14.407 32.582c-1.737 4.037-1.055 7.916-1.055 7.916h30.045v-7.07H80.32s12.363-28.662 13.73-31.614c2.082-4.52 1.04-8.215 1.04-8.215H68.593c-1.752.34-3.454 1.377-3.454 4.128v2.273zM48.531 276.688c0 1.045-1.61 1.902-3.6 1.902s-3.61-.857-3.61-1.902v-18.471s7.21-1.583 7.21 4.082zm-7.195 23.906v-16.18a29 29 0 0 0 3.595.501c9.358.739 16.865-3.726 16.865-8.65v-15.307c0-4.915-7.554-8.905-16.865-8.905-9.322 0-16.87 3.99-16.87 8.905v36.252c.353 2.604 2.47 3.243 4.32 3.384zM119.97 276.688c0 1.045-1.616 1.902-3.603 1.902-1.992 0-3.608-.857-3.608-1.902v-18.471s7.21-1.583 7.21 4.082zm-7.198 23.906v-16.18c1.15.234 2.354.407 3.595.501 9.36.739 16.867-3.726 16.867-8.65v-15.307c0-4.915-7.558-8.905-16.867-8.905-9.322 0-16.868 3.99-16.868 8.905v36.252c.35 2.604 2.473 3.243 4.313 3.384zM172.062 300.614V253.31h-3.212c-2.012.116-4.398.984-4.493 4.151v28.742l-.665-2.138-10.139-27.564c-.669-1.657-2.705-3.093-4.502-3.093h-10.495v43.056c.103 3.158 2.49 4.036 4.491 4.151h3.23v-32.288l.328 1.323 10.702 27.888c.675 1.675 2.695 3.016 4.497 3.016z"/></g><path fill="url(#f)" d="m625.015 265.613-53.427-26.299 19.127 73.376c16.984-3.792 37.019-6.348 58.786-7.005l13.686-15.338 14.675 15.42c21.602.822 41.47 3.463 58.207 7.336l15.914-73.789-51.614 26.299-38.996-38.749z" transform="matrix(.28129 0 0 .28129 -87.083 -63.353)"/><path fill="url(#g)" d="M837.672 488.305c36.597 32.55 85.172 29.492 98.637-.743 6.03-12.06-6.28-47.337-41.386-47.832-20.984 1.486-45.685 23.626-57.25 48.575" transform="matrix(.28129 0 0 .28129 -87.083 -63.353)"/><path fill="url(#h)" d="m312.315 783.146-.824 2.386.987 1.068c35.886 10.617 86.669 41.237 132.429 79.838 56.052 47.244 94.159 97.614 92.678 122.552-.25 5.185-2.305 9.053-6.09 11.523-12.513 8.23-44.036.328-83.046-20.824l-1.977.493.412 2.058c23.951 17.695 43.786 30.37 73.99 42.39 14.16 5.1 30.043 7.734 46.01 7.734 25.68 0 46.916-6.831 56.708-18.27 7.737-9.136 10.617-20.99 8.562-35.146-6.091-41.152-53.5-95.555-120.825-138.766-59.179-37.942-122.883-60.66-170.29-60.66-10.782 0-20.412 1.234-28.724 3.624" transform="matrix(.28129 0 0 .28129 -87.083 -63.353)"/><path fill="url(#i)" d="M757.69 763.884c-35.462 42.706-58.586 91.418-65.084 137.331-6.502 46.16 4.525 83.93 31.102 106.31 10.861 9.218 23.945 15.389 38.919 18.433 3.95.575 8.066.906 12.178.906h.084c20.735 0 40.152-7.82 53.07-13.743 19.174-9.793 37.277-23.698 39.99-28.304l-.08-1.73-1.646-.41c-13.74 5.512-26.825 8.31-38.756 8.31-14.565 0-26.825-4.116-36.287-12.097-34.805-29.376-21.971-102.772 28.636-163.578 34.968-42.132 81.54-69.365 118.488-69.365 14.565 0 26.825 4.113 36.368 12.178 16.294 13.74 22.63 37.848 17.94 67.717l.905 1.649 1.808-.578c8.313-13.165 13.66-24.026 19.586-46.9 5.184-21.56 5.346-38.51.656-54.804-4.032-14.152-12.753-26.905-25.753-37.932-15.882-13.412-36.945-20.488-60.809-20.488-55.872 0-121.45 37.192-171.316 97.095" transform="matrix(.28129 0 0 .28129 -87.083 -63.353)"/><path fill="url(#j)" d="M875.604 781.562c-14.97 14.724-11.103 39.893 7.813 53.628 13.08 9.46 26.651 14.558 42.524 14.558 52.641 0 59.468-51.817 55.52-64.072-9.128 5.756-18.836 8.965-28.953 8.884-18.916-.084-36.849-10.94-51.735-29.448-6.006 2.631-17.272 8.225-25.17 16.45" transform="matrix(.28129 0 0 .28129 -87.083 -63.353)"/><path fill="#fdb813" d="M137.933 114.027c.024 1.662 0 5.427.393 7.505.578 7.53 6.282 9.516 10.394 7.346a68 68 0 0 1 7.46-3.742c-.393-2.864-.647-5.867-.67-8.94-.023-7.667-3.511-11.108-7.876-13.256-2.078-1.017-4.111-2.24-6.12-3.534-.716-.415-1.386-.877-2.08-1.294-1.062 5.798-1.57 9.447-1.5 15.915"/><path fill="url(#k)" d="M792.194 881.142c-8.238 24.877 2.06 40.282 17.711 50.163 18.778 11.863 30.56 24.383 30.476 38.797 0 3.295-.74 6.674-1.976 9.885 12.354-1.81 50.657-13.674 55.518-42.996 4.611-27.924-32.454-56.096-93.408-74.218-3.132 6.18-5.93 12.357-8.321 18.369" transform="matrix(.28129 0 0 .28129 -87.083 -63.353)"/><path fill="#fdb813" d="M67.977 176.737c2.175 1.76 4.235 3.518 6.156 5.324 3.148 2.916 9.166 7.707 15.137 8.262 3.75.325 13.077 1.968 17.475-8.517a78 78 0 0 1 2.522-7.013c-3.263-.255-6.62-.44-10.021-.532-1.227-.023-2.453-.023-3.68-.023-9.907 0-19.257.902-27.59 2.499"/><path fill="url(#l)" d="M477.527 979.368c15.987 3.627 31.067-17.222 13.27-49.937-13.68-25.216-28.266-33.622-35.27-39.06-57.684 40.626-27.524 77.791 22 88.997" transform="matrix(.28129 0 0 .28129 -87.083 -63.353)"/></svg>