<svg xmlns="http://www.w3.org/2000/svg" viewBox="0 0 150 150"><g data-name="Group 2962"><g data-name="Group 2953"><g data-name="Group 2961"><circle cx="74.171" cy="74.171" r="74.171" data-name="Ellipse 161" transform="rotate(180 74.585 74.585)"/><path fill="#fff" d="M75.004 1.656A73.344 73.344 0 1 1 1.656 75 73.344 73.344 0 0 1 75.004 1.656m0-1.656a75 75 0 1 0 75 75 75 75 0 0 0-75-75" data-name="Path 1679"/></g></g><g data-name="Group 2956" transform="translate(28.897 28.896)"><circle cx="46.102" cy="46.102" r="46.102" fill="#fff" data-name="Ellipse 162"/><g data-name="Group 2955"><g fill-rule="evenodd" data-name="Group 2954"><path d="M46.109 1.788a44.311 44.311 0 1 0-.435 88.621l-.775-.42a50.22 50.22 0 0 1-23.69-30.532 18 18 0 0 0 2.054-.29 46.32 46.32 0 0 0 21.743 28.326l.984.533.984-.533a46.86 46.86 0 0 0 21.937-28.34 18 18 0 0 0 2.044.3 50.8 50.8 0 0 1-23.9 30.545l-.781.424a44.313 44.313 0 1 0-.169-88.625Zm0 .744a16.913 16.913 0 1 1-16.92 16.916 16.913 16.913 0 0 1 16.92-16.916M19.725 58.938a16.913 16.913 0 1 1 16.913-16.913 16.913 16.913 0 0 1-16.913 16.913m9.5 11.982a40.9 40.9 0 0 1-5.184-11.921q.205-.053.408-.113c.203-.06.241-.066.359-.1l.405-.13.349-.118c.133-.047.265-.1.4-.147l.338-.135q.195-.076.388-.169c.193-.093.224-.1.338-.152s.251-.115.376-.169.233-.12.349-.179q.314-.169.621-.337l.353-.2c.117-.067.224-.14.338-.211s.216-.137.324-.208.219-.148.338-.224.209-.147.314-.223.211-.155.316-.236.208-.169.309-.243.2-.159.3-.241.216-.186.324-.28.169-.152.262-.229q.272-.248.533-.506.112-.115.223-.231c.106-.11.214-.219.317-.337.079-.086.157-.169.235-.263s.191-.216.284-.326.152-.182.226-.275l.268-.338c.088-.11.14-.184.209-.277q.139-.189.27-.38c.059-.086.122-.169.179-.258q.181-.27.349-.547l.116-.191q.169-.29.338-.587c.047-.084.089-.169.135-.258.078-.147.155-.3.228-.446.047-.1.093-.192.137-.29l.2-.437.127-.3q.093-.23.182-.462.054-.14.106-.282.098-.273.187-.552.035-.103.068-.206.118-.38.218-.768.025-.1.047-.2c.047-.2.095-.392.135-.589l.056-.289c.034-.169.064-.338.093-.518q.025-.155.047-.312.037-.257.066-.516.019-.152.034-.311c.019-.187.03-.375.042-.564 0-.089.014-.179.017-.268q.02-.415.022-.844c0-.2 0-.4-.012-.6v-.191q-.008-.2-.022-.405c0-.073-.01-.145-.015-.216q-.017-.2-.037-.4a2 2 0 0 0-.02-.2q-.03-.27-.069-.535l-.042-.268c-.013-.089-.03-.189-.047-.284l-.059-.312q-.022-.11-.046-.218-.036-.175-.076-.348l-.015-.066q-.169-.675-.375-1.342l-.008-.027a17.5 17.5 0 0 0-1.991-4.162l.03.025c.182.169.368.324.557.479q.196.16.4.314.103.08.208.169.281.21.57.41l.057.04q.288.197.584.383l.062.04.125.076q.25.154.506.3.165.093.338.182l.275.145.338.169.3.143q.174.08.351.169.268.118.542.226.148.06.307.116l.363.133.307.106q.216.07.434.137l.24.073q.323.093.651.169l.257.059q.235.054.471.1l.258.051q.3.056.6.1l.115.019q.359.05.722.086l.221.02q.273.024.55.039l.223.012c.25.01.506.019.754.019s.506 0 .754-.019l.223-.012q.277-.015.55-.039l.221-.02q.362-.035.722-.086l.111-.019q.305-.046.606-.1l.257-.051q.238-.047.473-.1l.255-.059q.329-.08.653-.169l.233-.071q.221-.065.439-.138l.3-.1.368-.135.3-.115q.275-.11.545-.228c.115-.051.23-.1.338-.157s.209-.1.312-.147l.338-.169.282-.15q.164-.088.329-.179.258-.145.506-.3l.125-.076.052-.035q.302-.19.592-.388l.052-.037q.29-.2.574-.412c.068-.051.133-.106.2-.157.135-.1.272-.209.405-.319q.284-.233.555-.478l.032-.027a17.5 17.5 0 0 0-1.988 4.157l-.01.03q-.213.655-.373 1.333l-.019.074q-.04.174-.076.337l-.046.219-.059.311q-.025.143-.047.285c-.022.142-.029.177-.042.267q-.039.267-.069.535a2 2 0 0 1-.02.2q-.02.196-.037.4c0 .073-.01.143-.015.216q-.013.203-.022.405v.191c0 .2-.012.4-.012.6 0 .289 0 .574.022.859 0 .1.013.2.02.3q.016.276.042.55.02.179.04.358.027.239.061.474.029.196.062.388a16.635 16.635 0 0 0 .25 1.22c.031.126.073.29.111.434q.044.168.1.338.068.233.14.462.044.137.093.273.085.254.179.506.03.08.064.169a17.5 17.5 0 0 0 2.109 3.89q.218.3.449.6l.01.013q.233.294.476.579ZM72.48 58.938a16.913 16.913 0 1 1 16.913-16.913A16.913 16.913 0 0 1 72.48 58.938" data-name="Path 1680"/><path d="M19.725 27.178a14.837 14.837 0 1 0 14.837 14.837 14.837 14.837 0 0 0-14.837-14.837m3.478 24.048-6.389-9.059v9.059h-2.97V32.641h2.97v8.89l6.382-8.89h3.544l-6.985 9.113 7 9.464Z" data-name="Path 1681"/><path d="M46.102 34.28a14.837 14.837 0 1 0-14.837-14.837A14.837 14.837 0 0 0 46.102 34.28m1.843-12.826-.017-.014a10.6 10.6 0 0 0-2.165-1.046c-.294-.12-.707-.278-1.224-.469a5.23 5.23 0 0 1-3.731-3.981 6 6 0 0 1-.073-.959 4.87 4.87 0 0 1 1.841-3.927 5.56 5.56 0 0 1 7.483.466 3 3 0 0 1 .221.245 5.23 5.23 0 0 1 1.107 2.923h-3.112a2.11 2.11 0 0 0-1.937-1.995 2 2 0 0 0-.338-.029 2.08 2.08 0 0 0-2.084 1.294 2.5 2.5 0 0 0-.179.943 2.29 2.29 0 0 0 1.2 1.985 15 15 0 0 0 2.182.884 10 10 0 0 1 2.918 1.477 3 3 0 0 0 .235.209 4.9 4.9 0 0 1 1.61 3.773 5.67 5.67 0 0 1-1.976 4.45 5.74 5.74 0 0 1-3.854 1.406 5.95 5.95 0 0 1-4.41-1.755 6 6 0 0 1-.42-.471 6.03 6.03 0 0 1-1.149-3h3.129a2.6 2.6 0 0 0 2.852 2.386 2.68 2.68 0 0 0 2.594-1.4 2.6 2.6 0 0 0 .292-1.224 2.68 2.68 0 0 0-.994-2.169Z" data-name="Path 1682"/><path d="M75.191 35.824a3 3 0 0 0-.405-.145 11 11 0 0 0-2.337-.192h-1.485v5.667h1.33a6.9 6.9 0 0 0 3.038-.474 2.48 2.48 0 0 0 1.321-2.332 2.53 2.53 0 0 0-1.461-2.523Z" data-name="Path 1683"/><path d="M72.479 27.178a14.837 14.837 0 1 0 14.837 14.837 14.837 14.837 0 0 0-14.837-14.837m5.55 15.394a5 5 0 0 1-.754.582 8.1 8.1 0 0 1-3.822.812h-2.488v7.289h-2.969V32.671h4.455a10.44 10.44 0 0 1 4.533.719h.027a.7.7 0 0 1 .169.093h.024a5.04 5.04 0 0 1 2.43 4.209q.025.284.025.574a5.76 5.76 0 0 1-1.628 4.309Z" data-name="Path 1684"/></g><path fill="#e30613" d="M59.637 53.911 29.552 71.462a44 44 0 0 0 15.487 15.06l.947.506.947-.506a45.3 45.3 0 0 0 21.186-27.543 17.5 17.5 0 0 1-8.482-5.068" data-name="Path 1685"/></g></g><g fill="#fff" data-name="Group 2957"><path d="M10.37 71.876 8.158 72.99v-1.954l2.346-1.218h1.816V79.1h-1.95Z" data-name="Path 1686"/><path d="M15.907 78.819v-1.961a5 5 0 0 0 2.32.636c1.338 0 1.961-.781 1.961-2.425a3.006 3.006 0 0 1-4.9-2.385 3.07 3.07 0 0 1 3.3-3.061c2.174 0 3.591 1.669 3.591 4.506 0 3.856-1.485 5.167-3.949 5.167a6.3 6.3 0 0 1-2.319-.478Zm4.189-5.341c0-1.325-.478-2.147-1.519-2.147a1.386 1.386 0 1 0 0 2.769 2.25 2.25 0 0 0 1.519-.623Z" data-name="Path 1687"/></g><g fill="#fff" data-name="Group 2958"><path d="m130.166 71.87-2.212 1.114v-1.95l2.346-1.218h1.816v9.282h-1.949Z" data-name="Path 1688"/><path d="m137.492 71.87-2.212 1.114v-1.95l2.346-1.218h1.816v9.282h-1.949Z" data-name="Path 1689"/></g><g fill="#fff" data-name="Group 2959"><path d="m32.962 110.773 1.608 1.482-2.133 4.737 4.832-2.25 1.207 1.114-1.841 5.007 4.54-2.52 1.608 1.482-9.113 4.617-.224-.208 2.531-6.892-6.654 3.092-.235-.216Z" data-name="Path 1690"/><path d="m46.668 130.399-3.5-1.939-1.532 1.316-1.8-.994 7.631-6.371 2.074 1.149-1.35 9.849-1.819-1.013Zm.27-1.88.557-3.765-2.886 2.476Z" data-name="Path 1691"/><path d="m57.736 136.737-.557-3.483-1.293-.395-.928 3.029-1.875-.574 2.715-8.87 3.623 1.109a2.987 2.987 0 0 1 2.165 3.836 2.89 2.89 0 0 1-2.545 2.159l.744 3.817Zm-1.337-5.551 1.407.43a1.331 1.331 0 1 0 .776-2.531l-1.407-.43Z" data-name="Path 1692"/><path d="M72.041 136.395a2.984 2.984 0 0 1-3.645 2.531 7.45 7.45 0 0 1-3.291-1.153l.2-1.963a7.5 7.5 0 0 0 3.276 1.284c.9.093 1.31-.3 1.362-.8a1.015 1.015 0 0 0-.844-1.06l-1.251-.41a2.687 2.687 0 0 1-2.194-2.984c.169-1.647 1.537-2.758 3.817-2.521a6.8 6.8 0 0 1 2.643.844l-.2 1.951a7 7 0 0 0-2.7-.984c-.9-.093-1.438.252-1.5.805a.89.89 0 0 0 .714.952l1.431.467a2.714 2.714 0 0 1 2.182 3.041" data-name="Path 1693"/><path d="m76.665 137.244 4.57-5.964-4.924.434-.159-1.809 7.552-.665.169 1.856-4.516 5.986 5.063-.445.169 1.834-7.749.675Z" data-name="Path 1694"/><path d="m95.387 133.794-3.819 1.181-.108 2.017-1.961.609.675-9.916 2.263-.7 6.178 7.786-1.985.618Zm-1.171-1.494-2.334-3-.208 3.794Z" data-name="Path 1695"/><path d="m97.552 125.405 1.872-1.129 3.954 3.375-.812-5.269 1.406-.844 4.295 3.166-1.153-5.063 1.871-1.136 1.892 10.033-.26.157-5.907-4.357 1.112 7.257-.272.169Z" data-name="Path 1696"/><path d="m120.214 117.727-2.839 2.82.844 1.839-1.456 1.448-3.988-9.113 1.688-1.671 9.083 4.05-1.475 1.466Zm-1.73-.783-3.461-1.585 1.571 3.463Z" data-name="Path 1697"/></g><g fill="#fff" data-name="Group 2960"><path d="m35.365 24.409 3.014-2.136a3.102 3.102 0 0 1 3.584 5.063l-1.414 1 1.775 2.506-1.6 1.132Zm5.3 1.747a1.392 1.392 0 1 0-1.608-2.268l-1.1.781 1.608 2.268Z" data-name="Path 1698"/><path d="M47.394 21.987a4.867 4.867 0 1 1 6.354 2.567 4.656 4.656 0 0 1-6.355-2.567Zm7.017-2.957a2.758 2.758 0 1 0-1.418 3.73 2.7 2.7 0 0 0 1.418-3.73" data-name="Path 1699"/><path d="m60.318 12.421 1.927-.359 1.35 7.257 4.219-.786.346 1.856-6.148 1.144Z" data-name="Path 1700"/><path d="M71.427 15.351a4.867 4.867 0 1 1 4.759 4.935 4.656 4.656 0 0 1-4.759-4.935m7.613.159a2.758 2.758 0 1 0-2.815 2.828 2.7 2.7 0 0 0 2.812-2.827Z" data-name="Path 1701"/><path d="m87.294 11.843 2.1.548 2.481 6.813 1.507-5.772 1.834.479-2.344 8.976-1.846-.483-2.59-7.444-1.654 6.335-1.834-.479Z" data-name="Path 1702"/><path d="m100.917 16.246 1.816.844-3.881 8.419-1.816-.844Z" data-name="Path 1703"/><path d="m108.775 29.265-3.3-2.266-1.652 1.163-1.688-1.163 8.21-5.608 1.954 1.35-2.3 9.668-1.707-1.183Zm.449-1.845.916-3.694-3.11 2.194Z" data-name="Path 1704"/></g></g></svg>