<svg xmlns="http://www.w3.org/2000/svg" viewBox="0 0 701.06 700.87"><clipPath id="a"><path d="M-960 691.221H960v-1365H-960z"/></clipPath><clipPath id="b"><path d="M-1128.802 829.616h1920v-1365h-1920z"/></clipPath><clipPath id="c"><path d="M-959.373 690.994h1920v-1365h-1920z"/></clipPath><clipPath id="d"><path d="M-959.373 690.885h1920v-1365h-1920z"/></clipPath><clipPath id="e"><path d="M-1115.793 766.487h1920v-1365h-1920z"/></clipPath><clipPath id="f"><path d="M-999.978 1052.562h1920v-1365h-1920z"/></clipPath><clipPath id="g"><path d="M-972.475 859.464h1920v-1365h-1920z"/></clipPath><g fill-rule="evenodd"><path fill="#fff" d="M0 0c95.521 0 172.986-77.465 172.986-172.985S95.521-345.971 0-345.971s-172.985 77.466-172.985 172.986S-95.521 0 0 0" clip-path="url(#a)" transform="matrix(1.33333 0 0 -1.33333 350.53 119.783)"/><path fill="#008bcf" d="M0 0a173.7 173.7 0 0 0 3.557-35.048c0-95.519-77.465-172.984-172.986-172.984-85.509 0-156.538 62.079-170.49 143.616z" clip-path="url(#b)" transform="matrix(1.33333 0 0 -1.33333 575.598 304.31)"/><path fill="#292d2d" d="M0 0c95.898 0 173.669-77.772 173.669-173.669S95.898-347.339 0-347.339s-173.669 77.772-173.669 173.67S-95.898 0 0 0m-156.384 30.87c17.441 14.518 37.706 25.315 59.399 34.229l17.68-28.646a223 223 0 0 0 46.039 11.97l.109 33.593c22.744 3.564 45.589 3.778 68.556-.056l1-34.032a223 223 0 0 0 45.69-12.534l17.046 29.303q32.019-12.134 59.344-34.326L142.178.119a226 226 0 0 0 33.201-33.584l.084.068 29.58 16.949c14.393-18.522 26.096-38.195 34.23-59.398L209.96-93.938a223 223 0 0 0 12.017-45.645l.121.02 34.092-.112c3.282-22.851 3.368-45.704-.055-68.557l-34.402-1.01a223 223 0 0 0-12.318-45.59l29.455-17.135q-11.792-31.185-34.325-59.343l-30.133 16.237a226 226 0 0 0-33.521-33.422l16.834-29.38c-17.691-14.109-37.679-25.276-59.398-34.23l-17.769 28.79a223 223 0 0 0-45.95-12.248l-.11-33.459c-22.851-3.169-45.704-2.603-68.556.055l-.983 33.475a223 223 0 0 0-46.107 12.402l-16.646-28.612c-21.304 8.743-40.949 20.426-59.343 34.325l15.77 29.266a226 226 0 0 0-33.761 33.925l-28.573-16.372c-14.736 18.566-25.537 38.592-34.231 59.399l28.125 17.357a223 223 0 0 0-12.215 46.365l-32.826.107c-3.504 22.966-3.378 45.814.055 68.556l33.108.973a223 223 0 0 0 12.616 46.206l-28.46 16.556c8.235 21.503 19.826 41.204 34.326 59.344l29.384-15.832A226 226 0 0 0-139.843 2z" clip-path="url(#c)" transform="matrix(1.33333 0 0 -1.33333 349.693 119.48)"/></g><path fill="#fdba2a" d="M0 0c47.978 0 91.424-19.456 122.873-50.905 31.45-31.449 50.905-74.894 50.905-122.874s-19.455-91.423-50.905-122.872C91.424-328.101 47.978-347.557 0-347.557s-91.424 19.456-122.873 50.906c-31.45 31.449-50.906 74.893-50.906 122.872s19.456 91.425 50.906 122.874S-47.979 0 0 0m-125.903 45.757c-8.508-4.809-16.618-10.143-24.215-16.153l14.496-25.298 2.07-3.612-3.268-2.604a221 221 0 0 1-17.497-15.525 221 221 0 0 1-15.738-17.282l-2.537-3.099-3.528 1.901-25.801 13.903a226 226 0 0 1-16.593-24.636 209 209 0 0 1-12.962-26.403l24.841-14.451 3.612-2.101-1.521-3.868a218 218 0 0 1-7.391-22.232 220 220 0 0 1-4.96-22.968l-.637-3.971-4.02-.117-29.001-.852c-1.318-9.862-2.002-19.685-2.021-29.466a219 219 0 0 1 1.948-29.529l28.604-.093 4.19-.013.62-4.112a218 218 0 0 1 4.738-22.982 219 219 0 0 1 7.211-22.374l1.43-3.741-3.427-2.115-24.571-15.165c3.866-8.937 8.141-17.695 12.97-26.212 4.84-8.537 10.257-16.868 16.402-24.938l24.917 14.277 3.596 2.06 2.601-3.239a221 221 0 0 1 15.632-17.474 222 222 0 0 1 17.407-15.73l3.12-2.532-1.904-3.531-13.78-25.576c8.017-5.889 16.256-11.338 24.747-16.285 8.493-4.946 17.243-9.402 26.277-13.303l14.496 24.918 2.088 3.591 3.863-1.499a218 218 0 0 1 22.209-7.263 219 219 0 0 1 22.891-4.873l3.988-.626.118-4.031.859-29.242c19.703-2.064 39.376-2.475 58.998-.148l.096 29.185.013 4.158 4.093.633a218 218 0 0 1 22.793 4.796 218 218 0 0 1 22.169 7.187l3.745 1.44 2.11-3.418 15.589-25.259c9.266 3.974 18.231 8.393 26.85 13.323 8.505 4.863 16.619 10.198 24.293 16.062l-14.745 25.732-2.055 3.587 3.234 2.61a221.278 221.278 0 0 1 32.799 32.699l2.533 3.119 3.531-1.902 26.554-14.309q9.457 12.233 16.926 25.143 7.326 12.668 12.645 25.887l-25.856 15.04-3.59 2.088 1.5 3.864a218 218 0 0 1 7.191 21.947 220 220 0 0 1 4.861 22.655l.632 3.968 4.025.119 30.291.889a225.5 225.5 0 0 1 1.937 29.552c-.002 9.771-.642 19.588-1.888 29.443l-29.379.096-4.66-.707-.733 4.816a217 217 0 0 1-4.677 22.599 219 219 0 0 1-7.075 22.056l-1.417 3.729 3.413 2.108L233.26-73.97c-3.683 9.046-8.026 17.797-12.957 26.286-4.922 8.473-10.459 16.728-16.536 24.791l-25.601-14.669-3.529-2.835-3.042 3.8a221.2 221.2 0 0 1-32.497 32.843L136-1.216l1.901 3.527 14.38 26.687a214 214 0 0 1-24.734 16.739 205.6 205.6 0 0 1-26.305 12.816L86.291 32.85l-2.102-3.611-3.868 1.521a217 217 0 0 1-21.973 7.32 220 220 0 0 1-22.729 4.948l-3.95.644-.118 4.013-.881 29.992a202 202 0 0 1-29.633 2.128c-9.797-.017-19.585-.731-29.36-2.085l-.095-29.406-.014-4.196-4.131-.615a219 219 0 0 1-22.836-4.643 218 218 0 0 1-22.195-7.061l-3.733-1.41-2.103 3.407-15.505 25.122c-9.353-3.972-18.386-8.31-26.968-13.161m288.711-202.822a164 164 0 0 1-1.646 11.88l-321.596-60.943c7.419-36.995 27.301-69.479 55.077-92.878C-76.904-322.974-40.146-337.418 0-337.418c45.179 0 86.09 18.321 115.704 47.936 29.614 29.613 47.934 70.524 47.934 115.703 0 5.732-.281 11.307-.83 16.714m-325.491-39.871 322.572 61.129c-7.129 30.118-22.547 57.035-43.715 78.203C86.44-27.869 45.363-9.475 0-9.475s-86.44-18.394-116.175-48.129-48.129-70.812-48.129-116.175c0-7.86.553-15.59 1.621-23.157m3.2 231.422c8.945 7.447 18.614 13.94 28.827 19.712 10.178 5.751 20.841 10.765 31.827 15.279l3.807 1.564 2.163-3.504 15.596-25.27a229 229 0 0 0 19.43 5.986 230 230 0 0 0 19.732 4.216l.097 29.437.014 4.15 4.092.642c11.607 1.819 23.251 2.783 34.935 2.803 11.722.02 23.443-.904 35.161-2.858l3.932-.656.117-4.002.883-30.057a229 229 0 0 0 19.765-4.494 228 228 0 0 0 19.073-6.139l14.966 25.726 2.073 3.564 3.839-1.455a215 215 0 0 0 31.568-14.989q15.143-8.76 29.125-20.115l3.12-2.534-1.903-3.531-14.417-26.756a232 232 0 0 0 14.775-13.709 230 230 0 0 0 13.399-14.797l26.116 14.964 3.663 2.1 2.591-3.335c7.303-9.397 13.946-19.128 19.823-29.245 5.88-10.123 10.955-20.577 15.111-31.409l1.434-3.738-3.43-2.117-25.93-16.004a228 228 0 0 0 5.992-19.258 228 228 0 0 0 4.235-19.495l30.072-.1 4.214-.013.596-4.149a246 246 0 0 0 2.524-34.962 235 235 0 0 0-2.579-34.982l-.603-4.025-4.074-.12-30.411-.892a228 228 0 0 0-4.384-19.674 226 226 0 0 0-6.067-19.055l25.898-15.065 3.562-2.072-1.452-3.84q-6.038-15.971-14.82-31.152-8.719-15.074-20.266-29.504l-2.535-3.166-3.549 1.911-26.632 14.352a230.7 230.7 0 0 0-28.464-28.398l14.798-25.825 2.069-3.613-3.267-2.605c-9.057-7.223-18.68-13.681-28.797-19.467-10.057-5.751-20.677-10.87-31.779-15.447l-3.805-1.568-2.165 3.507-15.678 25.402a227 227 0 0 0-19.394-6.116 226 226 0 0 0-19.688-4.316l-.096-29.34-.014-4.23-4.168-.58c-23.315-3.233-46.563-2.664-69.773.037l-4.172.485-.125 4.211-.866 29.479a227 227 0 0 0-19.928 4.402 227 227 0 0 0-19.316 6.137l-14.576-25.055-2.129-3.66-3.917 1.608c-10.882 4.466-21.315 9.667-31.352 15.514-10.072 5.867-19.745 12.37-29.074 19.419l-3.326 2.514 1.976 3.665 13.883 25.764a231 231 0 0 0-15.064 13.851 231 231 0 0 0-13.681 15.014l-25.011-14.331-3.619-2.073-2.597 3.271c-7.521 9.476-14.043 19.335-19.799 29.487-5.747 10.136-10.707 20.519-15.116 31.071l-1.592 3.809 3.531 2.181 24.729 15.261a229 229 0 0 0-6.115 19.605 228 228 0 0 0-4.308 19.895l-28.675.093-4.183.014-.627 4.112a229 229 0 0 0-2.611 35.085 237 237 0 0 0 2.666 34.916l.605 4.006 4.072.119 29.124.856a229 229 0 0 0 4.514 20.025 227 227 0 0 0 6.209 19.331l-24.883 14.475-3.583 2.084 1.472 3.846c4.205 10.979 9.277 21.516 15.156 31.638 5.834 10.043 12.498 19.701 19.931 28.999l2.533 3.169 3.551-1.914 25.888-13.95a232 232 0 0 0 13.891 14.962 231 231 0 0 0 15.01 13.571l-14.491 25.29-2.02 3.525z" clip-path="url(#d)" transform="matrix(1.33333 0 0 -1.33333 349.693 119.335)"/><path fill="#fdc23d" d="M0 0c-.54.305-1.099.692-1.677 1.173a18 18 0 0 0-1.692 1.622 19 19 0 0 0-1.563 1.942c-1.105 1.592-1.853 3.183-2.23 4.764q-.567 2.375-.095 4.626c.315 1.499.962 2.923 1.93 4.273q1.466 2.026 3.865 3.706c1.72 1.196 3.414 2.017 5.084 2.475 1.668.446 3.28.547 4.818.297q2.325-.378 4.347-1.744c1.353-.918 2.563-2.138 3.638-3.672.757-1.096 1.345-2.154 1.768-3.184s.699-1.973.834-2.839l3.317 1.112q-.072.613-.385 1.634c-.214.675-.542 1.475-.993 2.379-.445.91-1.044 1.903-1.797 2.992-1.429 2.028-3.05 3.642-4.873 4.846-1.817 1.208-3.755 1.984-5.806 2.347-2.057.357-4.146.278-6.28-.244-2.138-.517-4.226-1.488-6.282-2.919-2.132-1.513-3.796-3.158-4.991-4.955q-1.787-2.694-2.249-5.614a14.1 14.1 0 0 1 .31-5.868c.519-1.963 1.422-3.869 2.718-5.721A28 28 0 0 1-6.045.643c.742-.799 1.45-1.466 2.113-2.002s1.243-.937 1.749-1.206zm-7.354 32.836-8.599 8.905 7.24 6.991 9.091-9.414 2.482 2.395-11.948 12.373-22.907-22.123 12.439-12.882 2.481 2.397-9.584 9.925 8.259 7.975 8.6-8.906zm-41.411 13.202 13.963-10.909 2.124 2.719-10.724 8.377 17.483 22.378-3.239 2.53zm3.976 19.874-10.498 6.56 5.333 8.534 11.099-6.935 1.828 2.925-14.585 9.115-16.877-27.008 15.187-9.489 1.828 2.925-11.701 7.31 6.085 9.738 10.498-6.56zM-64.693 92.78l-13.96-28.623 3.695-1.803 13.96 28.623zM-87.64 68.885l3.84-1.175 7.413 31.035-5.015 1.533-9.925-13.072a174 174 0 0 1-3.479-4.857 84 84 0 0 1-2.866-4.419l-.135.042a99 99 0 0 1 .153 5.322 199 199 0 0 1-.09 5.873l-.693 16.319-5.015 1.533-11.435-29.805 3.751-1.145 4.806 12.809a833 833 0 0 1 1.685 4.599 672 672 0 0 1 1.618 4.56c.51 1.483.981 2.863 1.4 4.126l.091-.027a104 104 0 0 1-.188-6.136c-.008-2.155.026-4.413.093-6.781l.49-16.01 2.983-.911 9.894 13.132a207 207 0 0 1 3.944 5.356 185 185 0 0 1 3.434 5.037l.135-.042a109 109 0 0 1-.912-3.064c-.309-1.092-.62-2.215-.917-3.376-.307-1.166-.604-2.327-.899-3.48-.29-1.164-.573-2.279-.841-3.367zm-78.629 12.973 17.715.309-.06 3.45-13.606-.238-.496 28.392-4.109-.072zm-24.886 9.907 1.47 9.615c.135 1.008.246 2.011.343 3.003.088 1 .17 1.981.239 2.954l.093.016c.383-.86.796-1.748 1.219-2.648a54 54 0 0 1 1.419-2.788l4.663-8.487zm10.841-1.351 5.09-9.273 4.327.763-16.232 29.475-4.886-.863-5.126-33.239 4.188.737 1.518 10.44zm-28.147-16.045 4.016 1.076-7.337 27.384 9.402 2.518-.905 3.377-22.774-6.102.905-3.377 9.356 2.507zm-29.496-9.736q1.027-.191 2.413-.103 1.393.078 2.92.417c1.02.236 2 .55 2.96.948q2.582 1.111 4.231 2.61c1.092.993 1.9 2.072 2.416 3.215s.769 2.319.759 3.513a9.1 9.1 0 0 1-.742 3.502q-.91 2.14-2.42 3.361c-.999.824-2.224 1.391-3.668 1.711-1.442.311-3.128.435-5.048.363q-2.35-.089-3.964.148c-1.084.156-1.975.479-2.665.956-.683.481-1.215 1.17-1.6 2.076a4.5 4.5 0 0 0-.351 1.656c-.016.602.11 1.21.361 1.831.252.611.678 1.203 1.271 1.763.589.566 1.381 1.055 2.378 1.488.888.368 1.727.63 2.519.778.782.153 1.486.229 2.111.246q.934.014 1.529-.053l-.267 3.532c-.543.068-1.171.076-1.894.026-.715-.047-1.514-.182-2.381-.395a18 18 0 0 1-2.816-.948c-1.424-.612-2.638-1.358-3.629-2.25-.994-.884-1.757-1.867-2.286-2.938a7.9 7.9 0 0 1-.85-3.338c-.041-1.155.183-2.31.663-3.458q.882-2.05 2.474-3.209c1.064-.771 2.34-1.3 3.816-1.572 1.478-.278 3.139-.361 4.978-.239q2.29.084 3.86-.226c1.053-.204 1.902-.571 2.571-1.099.662-.532 1.189-1.249 1.566-2.159q.631-1.49.377-2.92c-.162-.949-.609-1.832-1.344-2.64-.735-.809-1.748-1.487-3.042-2.045a14.6 14.6 0 0 0-2.655-.819 15 15 0 0 0-2.601-.282 12.8 12.8 0 0 0-2.341.135zm-43.65-30.925q1.04.118 2.339.606 1.309.484 2.67 1.254c.906.524 1.751 1.11 2.553 1.771q2.144 1.82 3.283 3.733c.754 1.269 1.211 2.538 1.37 3.781s.058 2.444-.301 3.582-.938 2.184-1.733 3.13q-1.496 1.782-3.296 2.508c-1.198.496-2.535.68-4.009.563-1.47-.122-3.119-.498-4.934-1.127q-2.22-.773-3.834-1.017c-1.083-.169-2.029-.12-2.827.135q-1.19.389-2.137 1.517c-.354.422-.63.911-.821 1.48-.19.571-.248 1.191-.19 1.856q.095.992.7 2.057c.398.715 1.013 1.416 1.84 2.12.741.611 1.466 1.107 2.181 1.48a13 13 0 0 0 1.947.853c.592.189 1.085.325 1.477.397l-1.288 3.298c-.539-.093-1.141-.268-1.818-.528a14 14 0 0 1-2.162-1.074 18 18 0 0 1-2.415-1.729c-1.183-1.003-2.126-2.073-2.813-3.213-.692-1.136-1.135-2.3-1.328-3.479a7.9 7.9 0 0 1 .163-3.44c.3-1.116.852-2.154 1.645-3.112q1.443-1.704 3.306-2.347c1.242-.427 2.617-.559 4.108-.388q2.244.247 4.83 1.228c1.441.499 2.698.802 3.758.911 1.066.114 1.985.012 2.779-.298.789-.316 1.503-.847 2.13-1.606.693-.827 1.095-1.724 1.213-2.683q.185-1.435-.513-2.918c-.467-.988-1.237-1.932-2.311-2.844a14.4 14.4 0 0 0-2.3-1.559 15 15 0 0 0-2.405-1.033c-.8-.27-1.554-.449-2.278-.554zm-15.266-19.132 2.696 3.103-9.164 7.966-.655 4.576 18.685-2.343 3.192 3.673-21.988 2.649-2.635 17.566-3.347-3.851 2.636-15.189q.193-.965.419-2.002.23-1.032.505-2.119l-.093-.108-11.589 10.075-2.697-3.103zm-13.333-18.232 2.415 3.325-11.659 8.472 7.083 9.748-2.753 2-7.082-9.749-8.562 6.221 7.665 10.55-2.79 2.028-10.082-13.875z" clip-path="url(#e)" transform="matrix(1.33333 0 0 -1.33333 558.253 220.138)"/><path fill="#fdc23d" d="M0 0c-.122 2.054-.691 3.615-1.698 4.689-1.011 1.077-2.14 1.578-3.376 1.504-1.173-.07-2.125-.595-2.844-1.565q-1.083-1.461-.894-4.633c.127-2.139.648-3.688 1.547-4.636.904-.951 1.99-1.393 3.256-1.317 1.22.072 2.225.615 3.004 1.628Q.167-2.805 0 0m-13.568-14.751 6.114 1.047q.343-1.862 1.348-2.711 1.001-.846 2.563-.754c1.312.079 2.387.749 3.236 2.007.853 1.262 1.294 3.797 1.322 7.62-1.488-1.957-3.434-3.002-5.827-3.145-2.611-.155-4.928.721-6.938 2.618q-3.02 2.85-3.31 7.691c-.2 3.368.643 6.139 2.519 8.319 1.87 2.173 4.358 3.36 7.447 3.544 3.367.2 6.204-.939 8.52-3.414 2.31-2.471 3.645-6.689 4-12.644q.541-9.1-2.593-13.329-3.13-4.224-8.542-4.545-3.89-.234-6.409 1.695-2.522 1.93-3.45 6.001m-26.483-2.352 6.07 1.277c.337-1.547.966-2.696 1.901-3.445.929-.757 2.006-1.082 3.223-.976q1.965.174 3.176 1.784c1.211 1.61 1.137 2.446.99 4.133-.14 1.596-.675 2.822-1.619 3.68-.938.865-2.027 1.235-3.26 1.129-.809-.073-1.766-.311-2.872-.726l.25 5.224q2.582.168 3.833 1.462c.832.873 1.195 1.96 1.08 3.271q-.147 1.674-1.227 2.579c-.721.605-1.636.859-2.731.763q-1.629-.142-2.676-1.375c-.704-.816-1.078-1.958-1.114-3.415l-5.936.475c.234 2.041.702 3.696 1.422 4.963.713 1.266 1.779 2.307 3.183 3.122 1.412.814 3.023 1.305 4.842 1.463 3.121.274 5.705-.502 7.76-2.327q2.538-2.232 2.809-5.306.382-4.36-4.155-7.369c1.932-.241 3.523-1.019 4.787-2.338q1.887-1.967 2.151-4.975c.255-2.906-.592-5.473-2.532-7.708q-2.913-3.344-7.655-3.762-4.495-.39-7.678 1.931c-2.124 1.554-3.462 3.704-4.022 6.466M-50.533-3.789q.213 3.078-1.079 4.868c-.864 1.199-1.919 1.84-3.154 1.926q-1.761.122-3.022-1.184-1.262-1.309-1.484-4.479c-.149-2.139.167-3.741.937-4.797q1.16-1.593 3.058-1.727c1.219-.084 2.285.324 3.188 1.228q1.36 1.362 1.556 4.165M-65.89-16.667l6.198.248q.101-1.89.987-2.861.885-.968 2.445-1.077c1.312-.092 2.463.434 3.468 1.572 1.008 1.141 1.772 3.598 2.292 7.386-1.728-1.75-3.791-2.535-6.183-2.369-2.609.183-4.794 1.351-6.542 3.491q-2.628 3.216-2.291 8.055c.236 3.365 1.428 6.004 3.571 7.925 2.135 1.912 4.754 2.768 7.841 2.552q5.046-.352 8.008-4.483 2.96-4.127 2.337-13.052c-.424-6.068-1.855-10.358-4.29-12.886q-3.648-3.782-9.057-3.407-3.887.271-6.137 2.508-2.251 2.24-2.647 6.398m-9.778-5.59-6.343.561 2.12 23.913c-2.513-1.968-5.383-3.328-8.619-4.082l.51 5.756c1.698.393 3.594 1.257 5.668 2.596q3.116 2.016 4.461 4.949l5.147-.457z" clip-path="url(#f)" transform="matrix(1.33333 0 0 -1.33333 403.833 601.571)"/><path fill="#fdba2a" fill-rule="evenodd" d="m0 0 152.342-24.496-185.915-23.827c.277 9.759-8.726 17.382-20.911 20.857-22.762 6.491-54.76 14.431-122.385 32.836l64.703 22.948q-5.256-9.832-10.511-19.666l90.873-7.75c16.485 10.789 12.443 44.74-13.088 73.633l70.721 65.508c11.824-8.409 20.821-18.89 26.828-31.558l-65.148-32.758c3.776-4.043 6.639-8.589 8.4-13.75q30.924 17.986 61.846 35.978 6.44-14.094 7.846-29.024L1.059 49.1c1.662-4.524 2.832-9.26 2.928-14.459l63.015 19.657c.825-8.471 1.101-16.944.023-25.415l-62.918-.379c.24-3.648.297-6.444.229-8.852l60.992 1.336c.439-8.187-.587-16.022-2.944-23.539L2.319 10.611C2.105 6.794 1.221 3.313 0 0" clip-path="url(#g)" transform="matrix(1.33333 0 0 -1.33333 367.162 344.108)"/></svg>