<svg xmlns="http://www.w3.org/2000/svg" viewBox="0.02 0.02 49.95 49.95"><circle cx="25" cy="25" r="23.177" fill="#fff" stroke="#00784d" stroke-width="3.597"/><path fill="#00784d" d="M30.741 33.329c3.11-2.092 5.186-5.773 5.186-9.694 0-3.595-2.759-8.972-6.265-12.726h1.075l3.36 1.799 1.625-1.799c2.96 4.091 4.937 8.862 4.937 12.726 0 7.012-4.632 13.33-10.998 15.455-1.875-1.696-3.468-3.855-4.66-6.208-1.194 2.353-2.787 4.513-4.662 6.208C13.974 36.964 9.34 30.647 9.34 23.635c0-3.864 1.978-8.635 4.937-12.726l1.625 1.799 3.36-1.799h1.075c-3.506 3.754-6.265 9.131-6.265 12.726 0 3.921 2.076 7.602 5.186 9.694 2.079-2.882 3.375-6.595 3.375-9.694 0 0 .01-.977.01-1.475 0-3.552-.152-6.827-.405-9.452h.718L25 14.506l2.044-1.798h.718c-.253 2.625-.404 5.9-.404 9.452 0 .498.009 1.475.009 1.475 0 3.099 1.296 6.812 3.375 9.694"/></svg>