<svg xmlns="http://www.w3.org/2000/svg" viewBox="0 0 269.57 314.25"><path fill="#0033a0" fill-rule="evenodd" d="M269.5 37.48c2.43 119.74-64.05 220-134.75 276.77C101.04 285.75-1.22 197.15.01 37.48 55.35 38.84 122.09 8.66 134.76 0c28.19 17.3 86.49 38.38 134.75 37.48Z"/><path fill="#fce600" fill-rule="evenodd" d="M267.26 39.47c2.39 117.75-62.99 216.34-132.5 272.17C101.6 283.61 1.04 196.49 2.25 39.47c54.42 1.34 120.05-28.34 132.5-36.86 27.72 17.01 85.05 37.74 132.5 36.86Z"/><path fill="#0033a0" fill-rule="evenodd" d="M257.36 48.66c.06 104.28-58.37 195.09-122.61 249.33C104.04 272.03 14.48 187.64 11.83 48.96c50.55-1.22 110.59-28.25 122.93-35.81 26.69 14.54 78.45 35.05 122.61 35.51Z"/><path fill="#fce600" d="M120.73 241.24h-1.63v-10.83c-.37.38-.88.76-1.51 1.16-.63.39-1.21.69-1.74.89v-1.64a10.2 10.2 0 0 0 2.37-1.61c.69-.64 1.17-1.26 1.45-1.86h1.06v13.9ZM124.81 238.04l1.56-.15c.25 1.46.98 2.19 2.2 2.19.54 0 1.04-.16 1.48-.48s.82-.88 1.13-1.69.46-1.76.46-2.84v-.34c-.34.56-.79 1-1.36 1.33s-1.15.49-1.75.49c-1.08 0-2.01-.4-2.79-1.21s-1.17-1.91-1.17-3.32.4-2.59 1.22-3.42c.81-.83 1.79-1.25 2.95-1.25.82 0 1.59.23 2.3.7s1.26 1.15 1.65 2.06.58 2.21.58 3.92c0 1.9-.21 3.38-.63 4.43s-.98 1.82-1.7 2.3c-.71.48-1.52.73-2.4.73-1 0-1.84-.29-2.52-.88-.67-.59-1.08-1.44-1.21-2.55Zm6.65-6.11c0-.99-.26-1.77-.77-2.34s-1.11-.85-1.77-.85-1.32.3-1.87.91-.82 1.41-.82 2.42c0 .91.26 1.63.78 2.17s1.15.81 1.87.81 1.33-.27 1.83-.81q.75-.81.75-2.31M143.08 239.61v1.63h-8.74c-.02-.66.21-1.4.7-2.22s1.38-1.79 2.68-2.9c1.52-1.3 2.51-2.3 2.98-3.01s.7-1.37.7-1.98c0-.71-.24-1.28-.72-1.72s-1.07-.67-1.78-.67c-.76 0-1.37.24-1.86.72-.48.48-.73 1.17-.73 2.06l-1.67-.18c.12-1.33.56-2.33 1.31-3s1.76-1.01 3-1.01q2.025 0 3.06 1.17c1.035 1.17 1.04 1.67 1.04 2.66 0 .88-.27 1.72-.81 2.53s-1.57 1.89-3.09 3.23c-.97.85-1.59 1.43-1.87 1.74q-.42.465-.69.93h6.49ZM149.68 241.24v-3.31h-5.73v-1.56l6.02-8.97h1.33v8.97h1.79v1.56h-1.79v3.31h-1.63Zm0-4.87v-6.24l-4.13 6.24z"/><path fill="#fce600" fill-rule="evenodd" d="M123.4 157.37v-26.83h91.97c0 51.14-41.38 82.44-82.39 81.44-31.58-.78-62.72-19.1-74.73-53.65-12.94-37.24 3.76-75.8 33.53-94.85 17.88-11.44 40.72-15.79 64.19-9.58 33.35 8.81 46.95 35.45 46.95 35.45l-25.87 16.29s-12.29-22.99-42.15-22.99c-31.96 0-49.82 26.05-49.82 46.95 0 33.55 25.05 51.74 46.95 51.74s35.62-7.32 45.99-23.95h-54.61Z"/></svg>