<svg xmlns="http://www.w3.org/2000/svg" viewBox="0 0 80.79 86.52"><path d="M50.696 179.388s1.001.733 1.663-.314c.474-.748.93-2.489 4.02-2.334 2.993.149 3.65.18 3.65.18s-2.956-.01-4.66.638c-1.17.445-1.536.796-1.831 1.275-1.316 2.136-2.785 1.184-2.842.555m-.126-1.37c-.432.65-1.625 3.108-3.593 2.949-1.83-.149-2.819-2.893-2.819-2.893 2.83 4.59 5.953.581 6.412-.055q.03-.049.057-.082zm7.783-5.526c.385-.398 2.175-2.318 5.006-1.802 0 0-3.204.009-4.238 2.076-1.088 2.175-2.051-.019-2.104-.293 0 0 .66.719 1.336.02m8.543-5.552c-.44.429-2.99 1.917-4.528 1.917-1.405 0-1.752-2.261-1.752-2.261 1.3 3.56 6.28.344 6.28.344m1.514 4.905s-3.179-.185-4.192 1.513c-1.065 1.785-2.035-.14-2.09-.377 0 0 .661.652 1.327.097.379-.316 2.143-1.842 4.955-1.233m.343-2.159c.32-.259 1.813-1.512 3.854-.876 0 0-2.363-.283-3.312 1.148-1 1.504-1.51-.199-1.525-.406 0 0 .422.59.983.134m-.643 4.787c-.96 1.53-1.516-.16-1.536-.367 0 0 .438.58.988.109.312-.267 1.774-1.56 3.832-.976 0 0-2.372-.222-3.284 1.234m-2.156 3.207c-.822 1.91-2.036.127-2.12-.101 0 0 .739.56 1.327-.078.335-.362 1.884-2.106 4.752-1.87 0 0-3.176.233-3.959 2.049m-5.981 1.212c-.96 1.531-1.516-.16-1.535-.367 0 0 .436.579.987.11.313-.268 1.774-1.56 3.832-.976 0 0-2.371-.223-3.284 1.233m-7.262 5.05c-.82 1.536-1.458-.187-1.472-.388 0 0 .458 1.202.949.127.344-.753 1.742-1.466 3.713-.86 0 0-2.364-.432-3.19 1.12m-1.495 1.596.833-.33a56 56 0 0 1 6.818-2.233c-.253-.34-.417-.749-.432-.855 0 0 .624.751 1.333.085.404-.379 2.286-2.208 5.09-1.553 0 0-3.334-.374-4.337 1.865-.011.026-.023.048-.035.074a46 46 0 0 1 6.58-.974l4.608-4.404c1.56 1.955 3.921 1.265 3.921 1.265-2.243-1.014-2.078-3.012-2.078-3.012l2.332-2.34a83 83 0 0 1-2.472-.276c1.777.02 2.7-.159 3.144-.398l.342-.343c.098-.283-.157-.567-.318-.688-1.286-.965-3.788-.095-3.788-.095 1.454-.857 2.43-1.144 4.336-.262.227.105.45.145.666.146l.683-.685.617-.62c-.257.106-.571.137-1.068.106.596-.05 2.287-.91 1.845-3.393-.48 3.405-3.38 2.668-4.324 1.904 0 0 3.054.648 2.872-1.76-.46-.796-1.979-.882-2.545-.107-1.618 2.217-3.194.33-3.194.33 2.472 1.18 1.35-2.58 4.56-2.027.352.062.664-.024.664-.024s-3.357-2.017-7.451 1.186c-.135.106 1.132-1.996 4.427-2.495a23 23 0 0 0-1.031.035l-.08.004a23 23 0 0 0-1.623.159l-.079.01a20 20 0 0 0-.552.084l-.07.012q-.24.039-.484.085l-.132.025q-.261.05-.527.108l-.034.007q-.285.061-.571.132l-.139.035q-.227.056-.458.12l-.144.038q-.29.08-.582.169l-.074.022q-.258.08-.519.166l-.17.057q-.244.083-.49.17l-.12.043a27 27 0 0 0-2.032.836c-2.988 1.18-4.685-.222-5.754-1.771 0 0 .355 2.238.995 4.058 0 0-5.674 2.581-10.143 7.93-.674.806-1.355 1.897-2.705 2.354a2 2 0 0 1-.188.052l-.058.01a2 2 0 0 1-.126.02l-.065.004q-.06.004-.118.003h-.06a2 2 0 0 1-.128-.013l-.044-.006a2 2 0 0 1-.17-.038l-.004-.001a2 2 0 0 1-.159-.055l-.043-.018a2 2 0 0 1-.275-.144l-.041-.025a3 3 0 0 1-.128-.09l-.018-.013a3 3 0 0 1-.284-.247l-.026-.027-.107-.111-.03-.033-.102-.12-.023-.027a5 5 0 0 1-.347-.477l-.019-.03a5 5 0 0 1-.105-.17q-.041-.067-.08-.135l-.016-.03q-.093-.166-.175-.325l-.014-.03-.085-.173-.046-.098-.025-.056-.038-.084q-.013-.03-.025-.058l-.03-.071a9 9 0 0 1-.108-.262l-.003-.006-.034-.091a7 7 0 0 1-.132-.255q0 .005-.003.008l-.002.01-.015.04-.003.013-.016.052-.004.012-.02.066-.003.013-.022.077-.003.013q-.014.045-.026.098v.002a7 7 0 0 0-.134.666l-.003.02-.02.136-.003.032a7 7 0 0 0-.03.302l-.004.044-.009.134-.002.046a5 5 0 0 0-.006.335v.04q0 .085.004.174v.018q.01.198.033.404l.003.023.024.178.009.057.025.145.015.072.029.133.02.08a4 4 0 0 0 .057.21l.039.123.029.085q.022.062.045.122l.033.087.052.121.037.085.061.125.04.08q.036.069.076.137l.038.067q.059.1.126.2c1.835 2.18 4.293 4.195 7.125 5.94zM69.972 190.23v-.006h-.006zm0 0" style="fill:#fff;fill-opacity:1;fill-rule:nonzero;stroke:none;stroke-width:.180014" transform="translate(-29.911 -114.735)"/><path d="M110.696 155.128c0-22.309-18.084-40.393-40.392-40.393S29.91 132.819 29.91 155.128c0 14.238 7.369 26.753 18.499 33.946l-.915.42-1.344.632 1.182.899a70 70 0 0 1 3.842 3.14c-.035 1.761-.009 3.532.078 5.27l.066 1.342 1.216-.572a50 50 0 0 1 7.89-2.93l.867-.241-.241-.867c-.23-.827-1.227-.827-1.763-.827-.147 0-.497.022-.476.01.28-.154 2.782-.695 2.782-.695 2.8.614 5.726.865 8.71.865 2.8 0 5.534-.286 8.174-.829q2.07.493 4.137 1.215c-1.06.02-1.917.153-2.133.93l-.24.867.866.241c2.7.75 4.379 1.54 6.92 2.738l1.216.571.067-1.341a76 76 0 0 0 .077-5.27 71 71 0 0 1 3.842-3.14l1.183-.899-1.344-.632a58 58 0 0 0-1.331-.605c11.386-7.143 18.958-19.805 18.958-34.239" style="fill:#211e1e;fill-opacity:1;fill-rule:nonzero;stroke:none;stroke-width:.180014" transform="translate(-29.911 -114.735)"/><path d="M49.265 174.363q-.165.199-.336.416c-.53.67-1.362 1.706-2.21 1.706-1.604 0-2.56-2.147-2.56-2.147-.05.128.197 1.32 1.45 2.818.105.127.54.548 1.151.548h.025c2.171-.042 2.914-4.65 12.365-9.983 0 0-.112-.3-.337-1.087-1.706.892-5.895 3.357-9.548 7.729" style="fill:#fff;fill-opacity:1;fill-rule:nonzero;stroke:none;stroke-width:.180014" transform="translate(-29.911 -114.735)"/><path d="m40.527 158.605 11.806 11.677c.232-.203.483-.398.744-.588a36 36 0 0 1 4.298-3.061l-8.034-8.028zM63.91 144.481h-7.173l3.621-13.884zm-12.181 9.85h2.44l1.945-7.457h8.408l1.908 7.456h2.44l-8.56-33.49zm0 0" style="fill:#fff;fill-opacity:1;fill-rule:nonzero;stroke:none;stroke-width:.180014" transform="translate(-29.911 -114.735)"/><path d="m51.736 170.961-13.012-13.01h11.04l8.367 8.297q.301-.171.554-.306a29 29 0 0 1-.117-.547l-8.234-8.228s-13.093.004-13.492 0l14.302 14.364q.296-.292.592-.57" style="fill:#fff;fill-opacity:1;fill-rule:nonzero;stroke:none;stroke-width:.180014" transform="translate(-29.911 -114.735)"/><path d="m50.627 177.936-.057.082c-.432.65-1.625 3.108-3.593 2.949-1.83-.149-2.819-2.893-2.819-2.893 2.83 4.59 5.953.581 6.412-.056q.03-.047.057-.082m38.055 9.883c.179-.503.36-.997.538-1.45l.327-.836-.835-.33c-3.612-1.425-6.936-2.385-10.405-2.986.074.013 25.566-25.029 25.566-25.029-.4-.004-13.733 0-13.733 0l-6.545 6.44c-1.28-.578-4.14-1.624-8.105-1.624-3.475 0-6.956.9-10.472 2.39-.618.26-1.477.601-2.043.64-1.104.077-1.853-.134-2.523-.501-.557-.306-1.3-.95-1.3-.95s.382.589.808.971c.686.615 1.737 1.201 2.96 1.092.523-.046 1.112-.225 1.737-.47 3.473-1.584 6.997-2.451 10.472-2.451 4.904 0 8.118 1.6 8.742 1.938l6.777-6.697h11.27l-24.699 24.057-1.086-.153 23.998-23.25h-8.903l-16.711 16.83c.064.446.339 1.673 1.526 2.21l2.215 1.002s-1.74.618-2.334.682c-.123.013-2.531.535-4.36-.977l-3.324 3.181-1.175.07 4.609-4.404c1.56 1.955 3.921 1.265 3.921 1.265-2.244-1.014-2.078-3.012-2.078-3.012l2.332-2.34c-.955-.083-2.472-.276-2.472-.276 1.777.02 2.7-.16 3.144-.399l.341-.341c.099-.284-.156-.568-.317-.689-1.287-.965-3.788-.095-3.788-.095 1.454-.857 2.43-1.143 4.336-.262a1.6 1.6 0 0 0 .666.146l.683-.685.617-.62c-.257.106-.572.137-1.068.106.596-.05 2.287-.91 1.844-3.393-.48 3.405-3.378 2.668-4.323 1.904 0 0 3.054.648 2.872-1.76-.46-.796-1.979-.882-2.545-.107-1.618 2.217-3.194.33-3.194.33 2.471 1.18 1.35-2.58 4.56-2.027.352.062.664-.024.664-.024s-3.357-2.017-7.451 1.186c-.135.106 1.132-1.996 4.427-2.494q-.255.001-.518.011l-.046.001q-.232.009-.468.022-.039.001-.078.005-.516.03-1.054.09l-.1.01q-.233.027-.47.058l-.079.01q-.275.038-.552.084l-.07.012q-.24.04-.484.085l-.131.025q-.263.05-.528.108l-.034.007q-.285.061-.571.133-.069.016-.139.034-.227.057-.458.119l-.144.04q-.29.079-.583.168l-.073.023q-.258.079-.519.165l-.17.058a21 21 0 0 0-.61.213q-.3.109-.602.227l-.15.06a27 27 0 0 0-.657.272q-.31.133-.623.275c-2.988 1.18-4.685-.22-5.755-1.77 0 0 .357 2.238.996 4.057 0 0-5.674 2.582-10.143 7.931-.674.806-1.355 1.898-2.705 2.354a2 2 0 0 1-.188.052l-.058.01a2 2 0 0 1-.126.02l-.065.004q-.06.004-.118.003h-.06a2 2 0 0 1-.128-.013l-.044-.006a2 2 0 0 1-.17-.038l-.005-.001a1.9 1.9 0 0 1-.476-.217l-.041-.025-.128-.09q-.009-.004-.018-.013a3 3 0 0 1-.284-.247l-.026-.027-.107-.111-.03-.033-.102-.119-.023-.028a6 6 0 0 1-.347-.477l-.019-.03a5 5 0 0 1-.105-.17l-.08-.135q-.007-.015-.017-.03-.092-.166-.174-.325l-.014-.03-.061-.124-.024-.049-.046-.098-.025-.056-.038-.084-.025-.058-.03-.07a10 10 0 0 1-.108-.263l-.003-.006-.034-.091a7 7 0 0 1-.132-.255l-.003.008-.003.01-.014.04-.003.012-.016.053-.004.012-.02.066-.003.013-.022.077-.003.013q-.013.045-.026.098v.002a7 7 0 0 0-.135.666l-.002.02-.02.135q0 .017-.003.033a6 6 0 0 0-.03.301l-.004.045-.009.134-.002.046-.005.14-.001.045v.189q0 .087.004.175v.018q.01.198.033.404 0 .012.003.022.01.09.024.178l.009.057.025.147.015.07.029.133.02.08.033.126.024.084.039.123.029.086a4 4 0 0 0 .078.208l.052.122.037.085.061.125.04.08q.036.067.076.136.017.033.038.067.059.101.125.2c1.836 2.18 4.294 4.195 7.126 5.94l-.223-.568.326.834.473 1.207-.362.14a37.6 37.6 0 0 1-7.87-6.015c-6.775-6.775-10.962-16.127-10.962-26.464a37.25 37.25 0 0 1 4.699-18.166v17.258h2.44v-7.46h7.193v7.456h2.44v-30.302a37.24 37.24 0 0 1 20.654-6.213q.165.001.33.004v36.511h2.44v-8.154l4.422-9.333 5.177 17.487h2.44l-6.11-20.64h-.014l6.085-12.846c2.577 1.108 6.981 3.9 9.484 6.343l-6.955 27.143h2.44l1.945-7.456h8.408l1.908 7.456h2.44l-5.986-23.399a37.27 37.27 0 0 1 8.973 24.31c0 10.338-4.188 19.69-10.962 26.465a37.5 37.5 0 0 1-8.031 6.113m-.074.265-.019-.007.092-.256-.09.256zm4.077 2.701a71 71 0 0 0-4.207 3.46 75 75 0 0 1-.066 5.622c-2.61-1.228-4.327-2.029-7.063-2.79.06-.214.803-.273 1.623-.273 1.062 0 2.254.1 2.254.1s2.998-7.79 3.059-7.964l.005-.014q2.226.84 4.395 1.86m-22.944 1.953c-4.918 0-9.519.984-13.697 2.651l-3.663-9.345c6.052-2.402 11.97-3.649 17.974-3.649 5.858 0 11.799 1.187 18.026 3.645-.592 1.512-1.185 3.37-1.778 4.883l-1.885 4.809c-5.226-2.085-10.248-2.994-14.977-2.994m-17.553-9.056c.344-.753 1.742-1.466 3.713-.86 0 0-2.364-.432-3.19 1.12-.82 1.537-1.458-.186-1.472-.386 0 0 .458 1.201.949.126m7.842-6.762s-2.957-.01-4.66.637c-1.171.445-1.537.796-1.832 1.275-1.315 2.136-2.785 1.185-2.842.555 0 0 1.001.733 1.663-.314.474-.748.93-2.489 4.02-2.334 2.993.149 3.65.18 3.65.18m3.33-6.229s-3.204.01-4.238 2.077c-1.088 2.174-2.051-.02-2.104-.294 0 0 .66.719 1.336.02.385-.4 2.175-2.319 5.006-1.803m-.991-1.832c-1.405 0-1.752-2.261-1.752-2.261 1.3 3.56 6.28.344 6.28.344-.44.429-2.99 1.917-4.528 1.917m6.042 2.989s-3.179-.186-4.192 1.512c-1.065 1.785-2.035-.14-2.09-.377 0 0 .661.652 1.327.097.379-.316 2.143-1.842 4.955-1.232m.885-1.888c-1 1.505-1.51-.199-1.525-.406 0 0 .422.59.983.134.32-.258 1.813-1.512 3.854-.876 0 0-2.363-.283-3.312 1.148m-1.185 4.515c-.96 1.53-1.516-.16-1.536-.367 0 0 .438.58.988.109.312-.267 1.774-1.56 3.832-.975 0 0-2.372-.223-3.284 1.233m-4.275 3.106s.738.561 1.326-.077c.335-.363 1.884-2.107 4.752-1.87 0 0-3.176.232-3.959 2.048-.822 1.91-2.036.127-2.12-.101m-5.396.946s.436.579.987.11c.313-.268 1.774-1.56 3.832-.976 0 0-2.371-.223-3.284 1.233-.96 1.531-1.516-.16-1.535-.367m1.33 3.68c.404-.38 2.286-2.21 5.09-1.554 0 0-3.334-.374-4.337 1.865q-.017.038-.035.074l-1.619.384c-.253-.34-.417-.749-.432-.855 0 0 .624.751 1.333.085m-.48 14.034c.503 0 .861.045.896.167a51 51 0 0 0-8.033 2.984 75 75 0 0 1-.066-5.624 71 71 0 0 0-4.207-3.459 61 61 0 0 1 4.467-1.89l3.191 8.144s2.4-.322 3.752-.322M39.96 133.254a38 38 0 0 1 3.822-4.478 38 38 0 0 1 3.37-2.988v18.693h-7.192zm33.058-15.337c3.467.253 6.803.98 9.943 2.114l-9.943 20.994zm23.157 12.68 3.553 13.884h-7.174Zm12.974 24.644c0-10.653-3.063-19.113-11.032-27.296-.692-.71-2.364-2.066-3.115-2.715-6.606-5.696-15.351-8.89-24.755-8.89-21.485 0-38.902 17.416-38.902 38.901 0 14.036 7.435 26.332 18.579 33.174-.813.34-1.62.697-2.43 1.08l-1.344.631 1.182.899a71 71 0 0 1 3.842 3.14c-.035 1.761-.009 3.532.078 5.27l.066 1.342 1.216-.572a50 50 0 0 1 7.89-2.93l.867-.241-.241-.867c-.23-.827-1.227-.827-1.763-.827q-.221 0-.47.01c2.42-.774 6.66-1.434 6.858-1.475a39.16 39.16 0 0 0 8.644.056 40.4 40.4 0 0 1 8.295 1.975c-1.06.02-1.917.153-2.133.93l-.24.867.866.241c2.7.75 4.379 1.541 6.92 2.738l1.216.571.067-1.341c.086-1.74.112-3.51.077-5.27a70 70 0 0 1 3.842-3.14l1.183-.899-1.344-.632a61 61 0 0 0-3.075-1.342l.138.055c11.388-6.786 19.018-19.222 19.018-33.443" style="fill:#fff;fill-opacity:1;fill-rule:nonzero;stroke:none;stroke-width:.180014" transform="translate(-29.911 -114.735)"/><path d="m67.326 188.583-1.025.065c.051-.172.146-.559.239-.935.075-.308.153-.623.202-.803zm-1.9 1.616.465-.028.008-.028c.011-.035.056-.205.106-.401.065-.253.145-.56.175-.658l.521-.034.795-.051.404 1.059.467-.029-1.708-4.437zM72.946 188.455l-.515-.035c.07-.16.207-.507.34-.846.11-.277.222-.56.29-.723l.421 1.641zm-1.565 1.492.466.025.012-.026c.016-.036.085-.23.165-.455.09-.253.2-.562.238-.656.246.014.511.032.769.05l.515.034.32 1.159.466.024-1.208-4.551zM70.96 185.577l-.455-.004-1.332 2.405.02-2.421-.422-.004-.037 4.431.422.004.01-1.1.582-1.064.874 2.177.432.012-1.03-2.7zM84.38 191.04l-1.165-.397c.215-.189 1.528-1.226 1.735-1.399zm.768.261-.357-.121.951-3.068-3.395 2.694 1.905.648-.173.562.41.139.173-.561.358.12zM63.896 185.99l.334 2.684-1.169.163-.333-2.684-.444.062.544 4.378.444-.061-.155-1.243 1.17-.163.153 1.243.45-.063-.546-4.378zM79.594 187.94a1.2 1.2 0 0 1-.166.477 1 1 0 0 1-.286.29.9.9 0 0 1-.332.132.9.9 0 0 1-.308.006.9.9 0 0 1-.562-.354 1.08 1.08 0 0 1-.182-.826q.031-.206.125-.383a1 1 0 0 1 .237-.295.9.9 0 0 1 .324-.173.9.9 0 0 1 .39-.017.9.9 0 0 1 .622.412q.098.158.133.346.034.19.005.385m.428.061q.033-.228-.006-.49a1.5 1.5 0 0 0-.172-.5 1.35 1.35 0 0 0-.367-.416 1.3 1.3 0 0 0-.584-.235 1.2 1.2 0 0 0-.559.028 1.3 1.3 0 0 0-.472.252 1.58 1.58 0 0 0-.532.965q-.046.324.02.61.066.285.22.509.156.224.38.371a1.26 1.26 0 0 0 .718.21l-1.05 1.194.502.084 1.409-1.581a3 3 0 0 0 .148-.18q.076-.1.144-.219a1.8 1.8 0 0 0 .2-.602M76.003 186.366l.698.12-.556 3.791.431.074.621-4.234-1.13-.194zM57.275 189.487l-1.11.271-.425-1.355 1.404-.473-.132-.419-1.819.613 1.252 3.99.415-.14-.566-1.802 1.11-.27zM60.924 190.13q-.093.11-.172.18a1 1 0 0 1-.3.192 1.669 1.669 0 0 1-.828.075 1.6 1.6 0 0 1-.59-.228 1.717 1.717 0 0 1-.74-1.074 1.73 1.73 0 0 1 .203-1.296q.166-.274.432-.468.268-.194.605-.273a2 2 0 0 1 .358-.052q.181-.01.385.106l.082.048-.11-.48-.017-.009a.9.9 0 0 0-.39-.076 1.8 1.8 0 0 0-.403.046 2.1 2.1 0 0 0-1.311.927 2.1 2.1 0 0 0-.289.76c-.048.276-.038.569.03.868q.101.45.347.792t.587.555.748.278c.27.045.55.034.829-.031q.18-.042.36-.125.181-.084.338-.237l.018-.016-.12-.524zM82.413 189.884a1.26 1.26 0 0 0-.148-.648q-.076-.144-.208-.282a.8.8 0 0 0 .16-.1 1 1 0 0 0 .291-.375 1 1 0 0 0 .073-.204q.06-.243.022-.447a1 1 0 0 0-.142-.363 1 1 0 0 0-.266-.269 1.1 1.1 0 0 0-.345-.154.9.9 0 0 0-.358-.021 1 1 0 0 0-.356.12 1.1 1.1 0 0 0-.312.277 1.3 1.3 0 0 0-.22.436l-.013.042.424.108.011-.04a.8.8 0 0 1 .112-.242.7.7 0 0 1 .171-.176.524.524 0 0 1 .456-.089q.24.06.35.255c.075.133.091.28.049.45a1 1 0 0 1-.052.138.5.5 0 0 1-.128.167.6.6 0 0 1-.236.122.75.75 0 0 1-.377-.017l-.32-.082-.102.416.326.083q.24.062.39.185.149.125.226.275.076.151.086.312a.954.954 0 0 1-.158.605.77.77 0 0 1-.522.339.9.9 0 0 1-.353-.02.8.8 0 0 1-.48-.364 1 1 0 0 1-.126-.346 1.1 1.1 0 0 1 .02-.451l.008-.04-.417-.106-.01.04a1.443 1.443 0 0 0 .141 1.098q.13.22.326.37.195.147.422.205.273.07.52.036.249-.033.456-.157.21-.127.358-.337.148-.209.219-.498.025-.105.032-.251" style="fill:#fff;fill-opacity:1;fill-rule:nonzero;stroke:none;stroke-width:.180014" transform="translate(-29.911 -114.735)"/></svg>