<svg xmlns="http://www.w3.org/2000/svg" xml:space="preserve" id="Logo_ja_nimi_1_" x="0" y="0" version="1.1" viewBox="142.37 15.62 62 73.64"><style>.st2{fill:#0033a1}.st3{fill:#fff}.st4{fill:#ffed00}.st5{fill:#fc0}</style><path d="m175.26 87.38-1.88 1.88-1.9-1.88c-1.12-1.11-2.04-1.75-2.97-2.15-.94-.41-1.97-.61-3.22-.77-1.81-.24-3.63-.67-5.21-1.73-1.2-.8-2.2-1.88-2.87-3.4-1.67-.12-3.06-.7-4.24-1.58-1.58-1.15-2.66-2.75-3.49-4.36-.62-1.18-1.17-2.21-1.86-3.04-.66-.77-1.52-1.45-2.88-2.09l-2.37-1.12 1.06-2.41c.61-1.39.9-2.5.97-3.55.07-1.06-.07-2.08-.36-3.23-.49-2.02-.45-4.31.34-6.44.49-1.3 1.24-2.52 2.31-3.56-.32-1.69-.1-3.25.45-4.66.72-1.82 1.97-3.31 3.34-4.51v.01c.91-.81 1.63-1.56 2.16-2.46.53-.88.94-1.96 1.23-3.44l.51-2.59 2.59.45c1.54.26 2.69.26 3.68.06 1-.21 1.96-.64 3.08-1.23 1.6-.84 3.35-1.54 5.29-1.6 1.46-.06 2.93.26 4.36 1.12a7.63 7.63 0 0 1 4.35-1.12c1.93.06 3.68.77 5.29 1.6 1.12.58 2.08 1.02 3.07 1.23 1 .19 2.14.19 3.68-.06l2.59-.45.51 2.59c.29 1.48.69 2.56 1.23 3.44.53.9 1.25 1.64 2.16 2.46v-.01c1.37 1.2 2.63 2.69 3.34 4.51.55 1.41.77 2.97.45 4.66a9.76 9.76 0 0 1 2.31 3.56c.79 2.13.83 4.42.34 6.44-.29 1.15-.44 2.18-.36 3.23.06 1.05.36 2.16.97 3.55l1.06 2.41-2.37 1.12c-1.36.64-2.22 1.32-2.88 2.09-.69.83-1.24 1.86-1.86 3.04-.84 1.62-1.91 3.21-3.49 4.36-1.18.87-2.58 1.46-4.24 1.58-.67 1.52-1.67 2.6-2.87 3.4-1.58 1.06-3.4 1.48-5.21 1.73-1.25.16-2.28.35-3.22.77-.92.4-1.85 1.04-2.97 2.15" class="st2"/><path d="m174.11 86.21-.73.73-.74-.73c-1.26-1.26-2.36-2.02-3.46-2.5-1.11-.49-2.27-.7-3.67-.89-1.59-.21-3.18-.57-4.51-1.46-1.18-.79-2.13-1.94-2.63-3.67-1.81.11-3.25-.4-4.42-1.26-1.32-.97-2.26-2.37-3-3.79-.66-1.28-1.25-2.39-2.07-3.35-.79-.94-1.84-1.76-3.43-2.52l-.91-.44.4-.92c.7-1.59 1.05-2.88 1.12-4.11.09-1.23-.09-2.41-.41-3.73-.41-1.73-.39-3.68.28-5.47.5-1.34 1.35-2.58 2.61-3.56-.53-1.71-.4-3.26.15-4.64.6-1.53 1.69-2.81 2.89-3.87 1.03-.91 1.85-1.77 2.49-2.82.63-1.05 1.09-2.28 1.43-3.99l.19-1 1.01.17c1.76.3 3.09.29 4.27.05 1.19-.23 2.27-.73 3.52-1.37.73-.39 1.49-.74 2.31-1 .84-.28 1.7-.44 2.58-.43.79 0 1.6.16 2.41.51.53.23 1.07.55 1.59.96 1.41-1.13 2.87-1.52 4.3-1.47 1.62.05 3.15.68 4.57 1.42 1.25.64 2.33 1.14 3.51 1.37 1.19.24 2.52.26 4.28-.05l1.01-.17.19 1c.34 1.7.8 2.94 1.43 3.99s1.46 1.91 2.49 2.82c1.2 1.06 2.3 2.33 2.89 3.87.55 1.39.68 2.93.15 4.64 1.26.98 2.11 2.22 2.61 3.56.67 1.79.69 3.74.28 5.47-.33 1.32-.5 2.5-.41 3.73.07 1.23.41 2.52 1.12 4.11l.4.92-.91.44c-1.6.75-2.64 1.58-3.43 2.52-.81.96-1.41 2.08-2.07 3.35-.74 1.42-1.68 2.82-3 3.79-1.18.86-2.61 1.37-4.42 1.26-.51 1.73-1.45 2.88-2.63 3.67-1.32.89-2.92 1.25-4.51 1.46-1.4.18-2.56.4-3.67.89-1.09.49-2.19 1.25-3.45 2.51" class="st3"/><path d="M173.38 84.04c1.17-1.06 2.25-1.75 3.35-2.24 1.34-.58 2.66-.84 4.24-1.05 1.32-.17 2.61-.46 3.62-1.13.94-.63 1.65-1.63 1.94-3.26l.18-1.03 1.02.18c1.64.28 2.87-.09 3.82-.78 1.02-.74 1.77-1.88 2.38-3.06.72-1.39 1.37-2.61 2.32-3.74.81-.96 1.84-1.82 3.25-2.6-.56-1.43-.84-2.69-.92-3.89-.1-1.45.11-2.82.49-4.38.33-1.34.32-2.87-.21-4.25-.43-1.14-1.22-2.2-2.47-2.99l-.75-.46.34-.83c.63-1.47.57-2.76.13-3.88-.45-1.17-1.34-2.19-2.32-3.06-1.2-1.06-2.15-2.07-2.9-3.31-.63-1.02-1.11-2.2-1.48-3.7-1.57.19-2.86.15-4.05-.1-1.43-.29-2.67-.84-4.08-1.58-1.18-.62-2.43-1.13-3.66-1.18-1.15-.04-2.35.35-3.51 1.52l-.73.73-.74-.73c-.56-.56-1.12-.94-1.68-1.18-.53-.23-1.07-.34-1.6-.34-.64-.01-1.29.11-1.92.32-.66.22-1.32.52-1.98.86-1.4.74-2.64 1.29-4.07 1.58-1.19.24-2.48.29-4.05.1-.38 1.5-.85 2.67-1.48 3.7-.75 1.24-1.7 2.25-2.9 3.31-.98.88-1.87 1.9-2.32 3.06-.44 1.12-.5 2.41.12 3.88l.35.83-.75.46c-1.25.79-2.04 1.85-2.47 2.99-.52 1.39-.53 2.92-.21 4.25.38 1.56.57 2.93.49 4.38-.09 1.2-.36 2.46-.92 3.89 1.41.78 2.42 1.64 3.25 2.6.95 1.13 1.6 2.36 2.32 3.74.61 1.18 1.36 2.32 2.37 3.06.96.69 2.19 1.06 3.83.78l1.02-.18.18 1.03c.29 1.63 1.01 2.63 1.94 3.26 1.01.67 2.3.96 3.62 1.13 1.57.21 2.9.46 4.24 1.05 1.1.49 2.18 1.18 3.36 2.24" class="st2"/><path d="M168.66 45.09c-.44.38-.71.86-.78 1.37-.06.49.06.97.38 1.35.16.19.34.33.56.43.22.11.46.16.73.17.26.01.51-.04.77-.12.24-.09.49-.22.69-.4.45-.38.7-.88.78-1.37.06-.49-.05-.97-.36-1.35-.32-.38-.78-.58-1.26-.6-.52-.02-1.06.15-1.51.52m-5.44-3.46c2.67-1.94 5.92-3.16 9.44-3.29-.49.68-1.01 1.45-1.51 2.24-.66 1.05-1.29 2.11-1.79 3.06-.47.11-.94.34-1.35.68-.04.02-.06.06-.1.09-.66-.46-1.41-.95-2.21-1.42s-1.64-.94-2.48-1.36m-6.53 9.43c.95-3.46 2.95-6.5 5.63-8.74 1 .47 1.97 1 2.88 1.53.74.44 1.46.89 2.09 1.32-.21.34-.33.72-.39 1.08-1.84.18-3.77.83-5.62 1.75-1.65.85-3.23 1.91-4.59 3.06m5.84 18c-3.93-3.17-6.45-8.03-6.45-13.44 0-.97.09-1.93.24-2.86 1.5-1.46 3.4-2.83 5.42-3.84 1.71-.86 3.5-1.46 5.18-1.64.09.43.28.84.57 1.18 0 .01.01.02.02.04-1.82 1.75-3.34 5.13-4.27 8.99-.88 3.71-1.21 7.91-.71 11.57" class="st3"/><path d="M174.9 72.84c-.5.04-1.01.06-1.52.06-3.59 0-6.92-1.09-9.69-2.98-.7-3.73-.4-8.25.53-12.2.9-3.78 2.37-7.05 4.08-8.61.02.01.05.04.09.05.35.16.74.26 1.13.26.38.01.75-.05 1.13-.18.24-.09.49-.21.72-.36 3.08 1.94 4.89 5.91 5.55 10.23.76 4.92.03 10.29-2.02 13.73" class="st3"/><path d="M190.65 56.3c-.32 8.26-6.5 15.08-14.51 16.38 1.88-3.63 2.53-8.9 1.79-13.72-.69-4.49-2.58-8.63-5.79-10.79.24-.3.43-.66.53-1.01 3.17.02 6.37.86 9.41 2.42 3.08 1.55 6 3.84 8.57 6.72" class="st3"/><path d="M183.86 41.87c3.94 3.01 6.55 7.67 6.79 12.93-2.48-2.59-5.23-4.67-8.11-6.14-3.14-1.59-6.44-2.48-9.74-2.52 0-.29-.06-.6-.16-.86 1.51-1.02 3.25-1.75 5.07-2.27 2-.57 4.09-.89 6.15-1.14m-9.96-3.55c3.2.1 6.19 1.07 8.73 2.69-1.75.23-3.5.56-5.18 1.03-1.92.55-3.73 1.31-5.34 2.38-.43-.46-.97-.74-1.57-.84.44-.79.94-1.64 1.47-2.48.64-1 1.31-1.99 1.89-2.78" class="st3"/><path d="M171.18 57.24h4.98v1.68h-.44c-.21 0-.35.05-.43.1-.06.05-.11.13-.13.24-.04.1-.05.35-.05.73v5.59c0 3.04-1.57 3.59-3.26 3.59h-1.43v-2.52h.84c.56 0 .95-.28.95-1.11v-5.8c0-.23-.01-.39-.02-.46a.4.4 0 0 0-.15-.28c-.07-.06-.19-.09-.38-.09h-.49v-1.67zm-12.86-6.17 4.83 2.49.01 1.65-.39-.21c-.23-.12-.39-.17-.46-.17q-.135.015-.18.15c-.04.07-.05.11-.05.43l-.01 1.84 2.72 1.48v-2.01c0-.24 0-.43-.04-.52-.09-.28-.19-.29-.47-.44l-.32-.16v-1.65l4.87 2.54v1.64l-.41-.21c-.77-.4-.8-.3-.8.46l-.02 5.74c0 .36.01.62.06.75.04.12.11.24.19.34.1.1.3.24.64.44l.34.21v1.7l-4.87-2.9v-1.68l.3.21c.12.07.34.15.44-.04.04-.07.06-.29.06-.64l.01-2.1-2.71-1.53v2.01c0 .35 0 .58.04.68.04.15.11.27.19.36.1.09.24.21.51.36l.34.19v1.68l-4.83-2.84v-1.67l.34.22c.12.09.43.24.52.04.04-.06.06-.24.06-.55v-5.38c0-.35-.01-.38-.04-.5-.09-.27-.23-.44-.47-.56l-.41-.21v-1.64zm20.14 5.62 4.56-2.78v1.64l-.28.17c-.24.15-.38.23-.45.34s-.07.24-.07.49v2.16l2.46-3.55c.51-.74.16-.66-.32-.36l-.38.2v-1.63l4.05-2.42v1.64a.4.4 0 0 0-.13.09c-.49.36-.67.34-1.06.89l-2.22 3.21 2.67 2.25c.26.22.9-.15 1.08-.27l.18-.1v1.65c-.75.45-1.51.9-2.26 1.36-.75.45-1.56.94-2.31 1.4V61.4l.49-.29c.27-.15.4-.26.12-.51l-1.62-1.45-.75 1.05-.05 1.51c0 .24.02.4.07.47.04.06.18.13.29.06l.49-.29v1.64l-4.56 2.81v-1.65l.52-.32c.45-.27.56-.44.56-.9v-4.98c0-.28-.02-.46-.06-.53a.2.2 0 0 0-.18-.11c-.09 0-.24.07-.47.21-.12.07-.24.15-.36.22v-1.65z" class="st2"/><path d="m177.88 80.12 1.33-5.08h-1.39v-1.12h2.72v.82l-1.37 5.38zm-10.99 0v-4.74h-.68v-.75h.02c.24 0 .44-.06.6-.19a.8.8 0 0 0 .32-.51h.97v6.2h-1.23zm7-4.74q0-.855.33-1.23c.23-.26.6-.38 1.12-.38q.78 0 1.11.36c.23.24.34.66.34 1.24v3.27c0 .58-.11 1-.34 1.24-.22.24-.58.36-1.11.36-.52 0-.89-.12-1.12-.36-.22-.24-.33-.66-.33-1.24zm1.23-.41v4.05c0 .11.02.18.05.23.04.05.1.07.17.07s.13-.02.16-.06c.04-.05.05-.13.05-.24v-4.05c0-.11-.01-.19-.05-.23-.02-.05-.09-.07-.16-.07s-.13.02-.16.07c-.04.05-.06.13-.06.23m-4.27 4.05c0 .11.02.18.05.23.04.05.1.07.17.07s.12-.02.16-.06c.04-.05.05-.13.05-.24v-1.3c-.11.07-.21.13-.32.17a1 1 0 0 1-.35.06c-.32 0-.56-.1-.73-.28s-.26-.45-.26-.8v-1.48q0-.855.33-1.23c.23-.26.6-.38 1.12-.38.51 0 .89.12 1.11.36s.33.66.33 1.24v3.27c0 .58-.11 1-.33 1.24q-.345.36-1.11.36c-.46 0-.81-.1-1.07-.32-.26-.21-.38-.5-.38-.88v-.8h1.23zm.43-2.45v-1.56c0-.11-.01-.18-.05-.23s-.09-.06-.16-.06-.13.01-.17.06c-.02.05-.05.12-.05.23v1.56c0 .11.02.19.05.24.04.05.1.06.17.06s.12-.01.16-.06c.04-.04.05-.13.05-.24" class="st3"/><path d="M156.13 22.81h3.36l-2.73 2.08 1.1 3.33-3.02-1.97-3.02 1.97.95-3.33-2.58-2.08h3.37l1.28-3.32z" class="st4"/><path d="m154.84 24.22-3.95-1.16-.03.03 2.19 1.72zm0 .02-2.67 3.43.03.07 2.64-1.76zm0-.02v-4.06h-.03l-1.06 2.79zm0 0 3.96-1.17v-.03h-2.93zm0 0 2.6 3.43.03-.01-1-2.94z" class="st5"/><path d="M165.11 20.09h3.36l-2.73 2.08 1.1 3.33-3.02-1.97-3.02 1.97.95-3.33-2.58-2.08h3.37l1.28-3.32z" class="st4"/><path d="m163.81 21.5-3.95-1.16-.03.03 2.19 1.72zm0 .02-2.67 3.43.03.07 2.64-1.76zm0-.02v-4.06h-.03l-1.06 2.79zm0 0 3.96-1.17v-.03h-2.93zm0 0 2.6 3.43.03-.01-1-2.94z" class="st5"/><path d="M174.67 18.94h3.36l-2.73 2.08 1.1 3.33-3.02-1.97-3.02 1.97.95-3.33-2.58-2.08h3.37l1.28-3.32z" class="st4"/><path d="m173.38 20.35-3.95-1.16-.03.03 2.19 1.72zm0 .01-2.67 3.43.03.07 2.64-1.76zm0-.01v-4.06h-.03l-1.06 2.79zm0 0 3.96-1.17v-.03h-2.93zm0 0 2.6 3.43.03-.01-1-2.93z" class="st5"/><path d="M184.23 20.09h3.36l-2.73 2.08 1.1 3.33-3.02-1.97-3.02 1.97.95-3.33-2.58-2.08h3.37l1.28-3.32z" class="st4"/><path d="m182.94 21.5-3.95-1.16-.03.03 2.19 1.72zm0 .02-2.67 3.43.03.07 2.64-1.76zm0-.02v-4.06h-.03l-1.06 2.79zm0 0 3.96-1.17v-.03h-2.93zm0 0 2.6 3.43.03-.01-1-2.93z" class="st5"/><path d="M193.2 22.81h3.36l-2.73 2.08 1.1 3.33-3.02-1.97-3.02 1.97.95-3.33-2.58-2.08h3.37l1.28-3.32z" class="st4"/><path d="m191.91 24.22-3.95-1.16-.03.03 2.19 1.72zm0 .02-2.67 3.43.03.07 2.64-1.76zm0-.02v-4.06h-.03l-1.06 2.79zm0 0 3.96-1.17v-.03h-2.93zm0 0 2.6 3.43.03-.01-1-2.93z" class="st5"/></svg>