<svg xmlns="http://www.w3.org/2000/svg" viewBox="0 0.02 649.28 619.09"><path d="m2373.57 4643.3-2.99-.22c-233.23-17.73-465.67-66.67-672.11-141.61-199.09-72.44-371.83-168.61-528.2-293.99-155.15-124.43-284.219-269.35-394.547-442.95-106.575-167.47-194.711-361.31-255.996-562.47-20.11 1.38-43.422 3.66-69.653 6.88l-14.484 1.74-12.488-7.51c-28.192-16.85-52.047-37.82-72.981-64.06-20.941-26.01-38.34-56.58-53.133-93.25-9.941-24.77-18.851-53.07-26.144-82.7-22.938 8.61-43.246 15.43-64.403 21.64l-35.343 10.43-15.43-33.44c-37.73-81.73-62.234-165.36-72.816-248.58-8.18-64.76-4.84-129.98.632-193.93h-65.8l-4.188-38c-9.887-90.33-20.16-183.74-7.887-270.38 9.996-71.08 34.801-135.03 61.743-196.31-6.579-2.7-13.614-5.64-20.743-8.73l-11.062-4.71-27.535-11.69 1.656-29.9c4.332-79.46 26-156.7 62.656-223.38 28.977-52.8 71.36-96.43 114.762-137.7-6.926-10.15-15.594-22.67-23.965-34.63q.217.285.399.54l-4.957-6.88-11.965-16.63 5.457-19.69c16.359-58.96 41.441-113.95 74.543-163.35 22.347-33.5 50.203-63.65 78.015-91.17-1.836-1.34-3.672-2.68-5.504-4-6.238-4.53-12.488-9.03-18.48-13.43l-24.684-18.2 9.364-29.18c16.863-52.36 40.722-100.98 70.98-144.55 29.563-42.57 64.453-80.099 106.703-114.708 37.938-31.332 82.528-60.481 129.856-85.012 5.668-22.309 13.203-44.32 22.109-64.602 12.156-26.84 26.566-50.109 44.258-71.457 16.566-20.281 36.215-38.511 59.949-55.582 24.934-17.89 51.66-32.109 84.063-44.539 16.39-6.211 34.171-12.012 52.531-17.25-.453-.512-.871-1.07-1.293-1.601-9.57-12.008-17.024-21.477-24.059-30.329l-6.164-7.82-10.535-13.422-25.023-31.886 30.609-26.602c59.027-51.262 122.934-87.531 195.336-110.969 45.871-14.91 97.081-22.922 149.331-28.562-3.79-4.809-7.62-9.699-11.45-14.571l-11.58-14.816-27.93-35.543 37.19-25.777c38.13-26.453 77.51-46.532 120.44-61.492 39.66-14.032 79.55-22.559 125.22-26.782 22.4-2.129 46.8-3.226 72.4-3.226 11.36 0 22.81.207 34.22.66-1.62-13.543-3.12-26.402-4.36-38.332-2.8-26.961-4.5-47.942-6.21-68.23v-.38l-.04-.37-1.17-18.63-2.87-44.69 44.75-.68C1518.36 0 1524.1 0 1529.9 0c149.62 0 280.81 17.46 412.86 54.84 137.13 39.058 284.85 109.031 428.56 178.238 116.04-69.367 241.82-129.937 348.16-167.457 102.18-36.2 192.38-53.75 283.92-55.223 3.63-.066 7.62-.066 11.58-.066 79.51 0 152.75 11.43 223.83 34.969l19.57 6.48 48.71 16.2-24.84 44.89c-5.92 10.66-11.9 21.789-17.86 33.34 24.34-3.102 48.21-4.949 70.55-5.461 3.48-.078 7.01-.129 10.57-.129 41.54 0 78.57 4.598 113.3 14.129 35.68 9.859 66.31 24.121 93.81 43.512 27.01 18.91 50.13 42.148 68.67 69l6.15 8.968 15.08 21.86-12.99 23.191c-4.33 7.66-8.46 15.071-12.36 22.168 29.02 2.602 58.85 7.781 89.94 18.699 54.92 19.243 109.59 55.133 162.42 89.832l19.24 12.641v99.809c70.64 11.539 138.2 39.429 201.46 83.25 38.21 26.718 75.02 59.422 106.45 94.711l14.14 15.898-4.1 20.859c-5.33 26.692-9.9 50.122-12.83 65.961-.2 1.2-.41 2.36-.63 3.512a536 536 0 0 1 97.25 57.008c40.49 29.641 76.09 64.152 108.63 105.511 32.05 40.55 61.49 88.81 84.94 139.46l10.86 23.4-15.7 20.45c-7.87 10.2-14.86 19.44-23.69 31.43-1.59 2.17-3.21 4.45-4.87 6.81 46.43 28.39 94.48 58.87 133.87 88.9 52.83 40.71 91.47 79.68 133.26 125.72l25.47 28.14-25 28.56-12.07 13.78c-7.81 8.95-15.86 18.12-25.49 29.24-3.51 4.06-7.26 8.34-11.11 12.82 50.37 58.07 99.67 117.5 131.66 175.79 37.77 68.92 57.75 136.37 64.86 218.65l3.6 41.08-41 4.93c-16.82 2.01-31.99 3.69-45.74 5.09 24.37 59.38 47.77 123.23 59.1 187.56 14 79.65 14.22 167.41.68 268.19l-5.39 40.45-40.7-3.67c-16.68-1.52-33.4-3.6-50.27-6.3.84 61.07-1.02 122.71-15.98 180.96-18.89 73.15-56.91 137.14-94.43 198.84-8.97 51.71-19.5 109.17-40.06 157.48-21.88 51.78-49.98 94.08-88.17 133.09l-6.09 6.11-7.87 3.3c-24.45 10.25-45.29 15.02-65.67 15.02-34.41 0-65.87-13.73-95.91-41.89-11.02 14.69-25.32 34.08-40.24 54.55-68.77 212.06-166.33 416.28-282.28 590.85-113.97 171.33-245.43 313.36-401.98 434.28-158.59 122.28-333.65 215.15-535.19 283.95h.04c-212.4 72.69-453.13 119.34-696.01 134.97z" style="fill:#fff;fill-opacity:1;fill-rule:nonzero;stroke:none" transform="matrix(.13333 0 0 -.13333 0 619.107)"/><path d="M4331.37 3075.8c6.83 11.1 14.7 21.6 22.61 30.31 43.07 44.97 79.89 44.29 123.36 26.03 34.36-35.06 59.63-73.18 79.42-119.88 19.33-45.45 29.06-100.67 38.63-156.08 37.99-62.31 75.86-124.78 93.77-194.18 17.81-69.36 15.49-145.77 13.48-222.32 34.47 7.88 66.85 13.01 97.93 15.79 11.32-84.61 14.31-171.03-.41-255.14-13.85-78.44-46.45-155.63-79.36-232.84 28.28-1.2 64.86-4.97 102.91-9.52-5.92-68.39-21.8-132.5-59.78-201.83-34.91-63.56-92.84-129.83-150.8-196.18 12.5-14.4 24.9-28.8 35.37-40.86 14.68-16.86 25.58-29.23 37.73-43.11-37.03-40.86-75.02-80.02-127.56-120.5-47.87-36.52-108.67-73.5-169.53-110.34 11.43-15.79 22.75-31.58 32.05-44.45 9.42-12.76 16.74-22.4 24.22-32.17-21.95-47.53-49.26-92.47-79.75-130.97-30.29-38.47-63.61-70.638-100.39-97.599a499.3 499.3 0 0 0-119.43-64.922c1.5-10.121 3.07-20.34 6.17-37.621 3.24-17.566 7.99-42.027 12.91-66.609-29.9-33.5-63.96-63.598-99-88.047-71.35-49.512-145.82-74.883-219.73-80.524V487.672c-51.72-33.953-103.44-67.832-153.2-85.281-49.63-17.422-97.35-18.352-145.16-19.231 10.9-21.828 26.97-51.512 44.55-82.73l-6.15-8.93c-15.49-22.469-35.14-42.219-58.12-58.391-22.72-16.05-49.13-28.531-80.51-37.211-31.43-8.597-67.72-13.328-111.64-12.476-44.24 1.008-96.02 7.648-146.66 19.578 18.41-40.02 36.97-77 55.62-110.73l-19.47-6.5c-69.45-22.98-142.66-33.801-221.33-32.68-78.79 1.21-163.03 14.672-270.43 52.769-107.41 37.879-237.81 100.782-360.05 175.692-151.16-72.852-302.32-145.723-442.49-185.66-147.17-41.73-282.19-54.282-417.91-53.13l1.2 18.618c1.72 20.652 3.42 41.16 6.09 67.301 2.74 25.961 6.74 57.34 10.57 88.672-52.87-4.993-106.24-5.161-151.29-.883-44.89 4.14-81.35 12.652-115.16 24.551-40.21 14.019-76.51 32.98-110.15 56.269l11.65 14.832a3437 3437 0 0 0 35.55 44.848c10.08 12.691 17.9 21.929 25.48 31.16-77.51 6.519-154.94 13.062-219.4 33.98-70.436 22.789-129.057 57.911-180.51 102.61l10.406 13.261c8.91 11.219 17.812 22.52 30.012 37.821a22908 22908 0 0 1 43.585 54.359c-40.793 7.629-81.007 19.059-112.734 31.039-31.562 12.153-54.547 25.063-74.441 39.403-20.028 14.398-37.25 30.07-52.047 48.117-14.938 17.98-27.547 38.211-38.086 61.531-10.281 23.281-18.61 49.539-23.942 76.41-51.238 24.879-99.918 55.84-139.964 88.918-40.379 33.082-72.485 68.232-98.75 106.062-28.731 41.38-50.25 86.24-65.364 133.27 11.118 8.17 23.02 16.72 34.348 25.03 7.867 5.87 15.613 11.62 20.73 15.44 4.704 3.7 7.204 5.4 9.489 7.1-39.668 37.6-79.227 75.24-108.446 119.06-30.765 45.95-53.996 97.27-68.902 151.05l4.949 6.87c10.496 15.02 21.024 30.27 28.446 41.18 7.363 10.99 11.726 17.58 15.691 24.54-50.379 47.16-101.09 94.21-132.555 151.52-33.484 60.91-53.46 132.33-57.453 205.24l11.317 4.82c13.238 5.7 26.48 11.1 36.554 15.19 10.242 4 17.325 6.59 24.438 9.25-32.68 72.37-65.317 144.77-76.723 225.69-11.402 80.8-1.742 170.33 8.074 259.77h74.317c-7.324 77.85-14.614 155.69-5.039 231.22 10.246 80.54 34.39 160.64 69.23 236.06 36.426-10.71 69.195-23.06 107.824-39 7.789 45.22 20.204 89.78 34.348 125.02 14.238 35.3 29.809 61.32 46.887 82.61 18.394 23.09 38.711 40.41 61.535 54.03 36.301-4.41 74.851-8.07 106.152-8.69 60.699 210.13 151.215 411.95 260.539 583.81 109.239 171.83 237.135 313.73 385.265 432.53 148.17 118.84 316.79 214.67 516.07 287.15 199.26 72.34 429.15 121.61 660.84 139.23 241.09-15.52 480.64-62.92 684.88-132.77 204.43-69.81 373.61-162.2 522.99-277.38 149.2-115.26 278.92-253.38 392.48-424.13 113.49-170.85 211.01-374.36 279.3-586.85 17.38-23.86 35.15-47.9 48.1-65.19 13.03-17.23 21.35-27.87 29.75-38.51m-3797.608 48.06c-17.903.66-50.379 3.22-80.61 6.84-17.816-12.14-33.632-27.46-48.539-47.57-14.945-20.19-28.519-45.18-41.3-80.12-14.618-40.57-26.145-94.5-34.426-146.91-20.364 8.6-51.414 21.9-73.403 30.24-15.726 6.2-28.925 10.66-41.871 15.18-24.121-70.78-48.222-141.55-55.875-214.74-8.457-79.95-2.672-163.34 14.063-244.82h-86.79c-6.374-84.08-12.542-168.19.743-243.42 14.691-83.24 46.508-159.64 92.219-227.89l-22.563-6.31c-17.324-4.38-40.89-13.79-66.617-24.6 4.367-42.06 14.652-83.61 30.223-122.13 15.613-38.49 36.554-73.87 62.941-106.44 29.356-36.5 65.949-69.14 105.957-96.08l-7.609-13.7c-10.41-19.37-28.817-46.02-49.129-74.96 19.23-48.18 38.426-96.14 68.117-138 34.375-48.49 80.262-92.02 130.965-128.3l-21.481-13.21c-17.359-11.22-38.265-28.06-61.699-44.87 14.531-38.74 34.266-75.46 59.367-109.75 24.848-34.36 55.418-66.25 93.668-96.48 40.223-31.781 89.594-61.34 140.77-85.672 4.195-26.378 12.445-57.867 23.43-82.5 9.617-22.418 21.492-41.418 35.523-58.199 14.105-16.847 30.672-31.469 50.332-44.668 19.48-13.14 42.211-24.949 75.355-36.39 40.379-14 96.082-25.891 149.161-34.879l-18.356-22.692c-18.656-23.191-37.301-46.379-50.793-63.148-13.324-16.793-21.781-27.262-29.812-37.602 30.644-23.179 64.074-42.711 100.254-58.718 36.223-15.911 75.103-28.192 123.813-36.661 59.45-10.48 132.89-13.382 203.58-12.679l-25.86-28.813c-9.86-11.16-19.8-22.461-31.84-36.961-11.99-14.597-26.07-32.418-40.18-50.297 27.6-15.812 57.12-28.472 88.85-37.929 31.51-9.403 65.07-15.903 107.91-18.543 49.08-2.86 110.11.133 168.74 6.429l-2.87-21.718c-4.17-32.91-8.21-65.981-11.29-92.039-2.83-26.2-4.62-45.34-6.41-64.52 125.01 7.82 250.12 15.707 387.26 56.328 137.43 40.68 287.1 114.012 436.81 187.332 120.35-74.32 248.46-137.332 352.45-176.121 104.17-38.691 184.27-53.43 258.8-56.5 74.34-3.289 143.21 4.86 208.99 23.871-6.68 13.18-13.42 26.41-22.07 44.5-12.99 26.918-29.65 63.84-44.79 97.41l35.22-9.312c50.87-13.43 103.08-22.719 147.05-25.801 44.04-3.129 79.51-.598 109.92 5.684 30.19 6.109 55.25 15.949 76.93 29.047 21.55 13.171 39.77 29.531 54.42 48.773-11.23 20.148-22.23 40.438-30.39 56.207-14.65 29-21.29 46.621-31.06 69.082l32.09-6.312c28.61-5.707 57.87-6.84 88.34-3.25 59.1 6.089 131.47 35.941 201.17 86.531v130.398c57.29-.019 118.38 12.762 173.44 39.852 49.86 24.199 96.25 65.07 142.52 106-4.49 23.18-9.06 46.351-11.97 63.64-4.1 24.141-5.43 37.032-7.27 53.579l13.09 4.472c60.19 21.129 115.58 53.629 162.87 97.259 47.28 43.62 84.1 103.85 120.72 164.18-6.05 8.08-12.09 16.26-21.29 28.98-11.91 16.54-29.1 40.39-44.88 62.41l16.56 9.65c62.17 36.07 123.56 74.03 170.94 109.21 47.36 35.11 80.17 68.53 113.3 101.91-21.64 24.59-46.5 53.43-73.2 84.42 48.65 49.5 93.77 102.62 125.25 146.11 31.62 43.6 49.57 77.36 63.69 112.47 13.99 34.92 23.99 70.97 29.92 107.79-18.51 1.79-37.05 3.66-52.38 4.72-26.83 1.82-45.78 1.36-68.03 1.4 43.77 83.69 80.59 169.89 97.84 254.93 15.31 76.43 11.38 152.5 7.32 228.54-30.78-4.12-69.61-13.12-108.89-22.67l3.73 25.52c11.76 77.53 9.42 156.51-7.67 226.98-17.23 70.54-56.29 133.4-95.18 196.27-8.38 52.9-16.81 105.83-34.29 149.23-17.49 43.24-43.99 76.95-70.43 110.59-31.68 13.09-60.65 4.81-88.27-33.61-11.5-14.99-21.91-35.99-32.24-55.19l-16.55 20.19c-11.4 14-22.92 28.23-39.16 49.59-16.36 21.73-37.69 50.6-58.94 79.62-66.76 209.75-162.5 410.85-274.08 579.56-111.45 168.6-238.64 304.68-385.2 418.21-146.72 113.63-312.91 204.43-513.81 273.33-201.34 68.93-437.42 115.74-675.15 131.21-228.83-17.61-455.67-66.45-652.18-138.2-196.33-71.88-362.15-166.57-507.82-284.25-145.72-117.7-271.194-258.23-378.319-428.64-109.242-173.83-197.875-379.25-258.457-591.59-8.621.06-17.817 0-26.434.1-4.582.16-9.074.3-16.898.6" style="fill:#181514;fill-opacity:1;fill-rule:evenodd;stroke:none" transform="matrix(.13333 0 0 -.13333 0 619.107)"/><path d="m2946.68 220.641-16.99 11.269-28.64 1.32c-44.49 2.282-86.01 23.192-120.15 46.372-34.06 23.027-59.29 57.796-84.41 92.437.32 4.781-.21 6.02-2.03 10.852-6.77 14.988-13.4 22.339-12.09 34.789 1.19 4.129-.21 7.98 9.69 12.73 7.32 4.449 27.79 2.629 41.38 7.781 2.73 1.039 5.17 2.36 7.32 3.95 15.98-5.391 31.99-10.52 43.62-15.161 26.07-9.519 39.16-21.32 58.22-37.011 30.23-25.668 66.79-64.707 93.42-100.321 9.33-12.418 17.89-25.238 23.88-33.847 8.21-12.59 11.84-15.949 11.33-22.371-1.66-7.899-14.22-11.668-24.55-12.789m369.84 132.14c-41.54 4.489-83.36 9.047-122.81 17.758-39.32 8.633-76.25 21.75-113.38 34.652-18.16 23.457-51.31 27.5-82.03 56.141-6.25 6.02-11.58 12.699-16.13 19.898 22.62 13.969 44.18 22.52 67.91 36.93 17.81-.289 31.89-1.101 40.9-1.551 4.57-.109 10.56-.109 16.72.012 37.07-14.652 74.12-29.262 110.72-54.031 36.68-24.699 72.97-59.5 109.1-94.262m112.32 182.313c-30.95 1.898-61.77 3.847-86.19 7.16-24.22 3.347-41.79 8.097-59.27 12.668-7.99 9.511-25.32-.09-42.06 20.043 27.97 18.316 56.06 36.726 76.37 48.918 20.24 12.441 32.81 18.648 45.27 24.82 27.31-.211 54.48-.391 93.93-12.32 39.55-11.95 91.37-35.649 143.09-59.231l-3.69-8.109c-13.15-5.039-26.49-9.961-54.28-15.531-27.99-5.707-70.63-12.079-113.17-18.418m-759.28-42.661c-12.97-1.582-16.41 2.43-25.16 7.551-7.27 4.938-13.79 4.61-21.61 1.86-11.02 9.359-23.64 19.3-36.81 29.539l-7.42 29.492 15.42 30.387c16.37 8.89 34.14 15.429 53.19 19.691 19.14 4.371 40.02 6.539 74.68 3.66 34.57-2.922 82.99-10.66 130.55-22.051-11.66-8.019-23.54-16.16-31.54-23.211-7.91-7.078-12.33-12.878-16.61-18.839-11.29-5.45-22.67-11.059-31.6-17.098-8.9-5.852-15.25-12.039-21.5-18.25-17.13-1.52-41.89-15.973-63.14-20.66-6.89-1.422-13.9-1.852-18.45-2.071m267.72 64.758c8.46 14.864 28.03 28.883 47.19 48.481 4.76 5.222 8.79 10.64 12.56 16.492l-1.43 12.59-15.55 8.027c-36.3 3.461-70.85 11.16-101.91 28.813l9.63 11.058c33.44 7.172 66.8 14.512 100.06 13.86 33.1-.797 66.27-9.571 99.3-18.289l7.22-13.25c-22.95-22.34-46.01-44.52-64.18-60.649-18.22-15.871-31.64-25.551-44.88-35.281-4 1.051-11.97-1.481-19.63-4.852-7.42-2.957-18.32-8.136-28.38-7m263.4 105.481c1.7 7.16 3.26 14.293 11.17 27.152 8.07 12.707 22.33 31.231 36.9 49.68l-5.1 11.789c-30.78-3.641-60.08-3.051-87.23 5.91l8.15 25.059c19.47 13 39.14 25.961 52.71 33.632 16.64 9.43 25.59 11.168 33.56 13.707 7.07 0 27.96-7.73 31.05 8.012 29.06 3.418 58.13 6.738 79.61 7.289 21.45.539 35.53-2.008 49.53-4.23l-4.32-13.321c-8.08-12.16-16.15-24.148-31.4-42.668-15.41-18.609-38.17-43.628-60.98-68.871-9.14-7.238-18.28-14.347-31.85-22.871-14.01-8.25-32.23-17.847-50.8-27.226m-430.32 55.34-6.64 13.238c2.8 8.238 5.57 16.57 9.08 28.082 7.82 25.469 19.4 64.328 30.79 101.18l8.92 11c13.22 30.277 26.56 60.609 47.44 91.296 20.92 30.772 48.91 61.952 77.29 93.222l13.98 1.44c3.5-63.89-3.77-119.978-22.22-170.97-8.5-24.871-18.23-51.449-29.48-77.731-18.98-6.277-10.09-27.129-28.9-47.3-11.17-6.508-26.74-7.957-43.21-14.239-19.49-6.57-40.48-14.101-57.05-29.218m204.4 50.878-5.9 14.032c23.83 64.226 47.56 128.359 81.35 182.687 33.81 54.401 77.26 98.931 121.01 143.511l26.72 11.02c2.5-24.7 5.65-57.04 8.65-85.59-2.5-9.3-4.98-18.7-8-33.05-3.07-14.51-6.74-33.84-10.41-53.25-8.58-15.469-16.96-31.07-21.88-41.219-4.98-10.223-5.76-15.082-6.93-19.961-24.12-15.949-47.21-28.781-67.93-34.769-11.17-9.102-22.91-15.789-34.3-24.68-14.75-14.102-19.82-27.172-34.32-43.262-4.59-4.847-9.72-9.07-15.48-12.519m611.81-58.25c-19.06-2.262-31.03-2.262-46.52-1.2-32.72 2.739-77.44 7.649-119.49 9.301-5.92 13.11-14.75 6-25.16 6.469-6 0-12.79-.969-19.04 7.551l-1.6 12.539 14.16 16.898c40.62-4.047 83.02 1.223 126.97 13.313 7.67 3.668 15 7.301 32.87 20.058 17.93 13.012 46.15 34.789 74.2 56.719 37.3-.246 74.76-.43 106.44-5.039 31.86-4.66 57.76-13.828 83.83-22.961l5.9-14.066c-12.64-4.813-32.97-26.672-48.69-31.75l-8.07-16.871c-33.88-15.071-68.71-27.641-99.33-36.09-30.82-8.422-57.13-12.699-76.47-14.871m-120.29 135.769c1.31 11.403 3.55 17.211 10.66 26.91 4.42 5.891 10.98 13.403 18.21 20.391l-18.48 25.781c-25.88-5-38.14-4.59-55.37-8.871l-12.56 22.07c-.41 25.032 29.49 39.391 52.44 66.53 33.91 16.19 67.79 32.26 92.85 42.28 25.06 9.89 41.47 13.69 57.84 17.56l5.11-9.62c-13.24-36.85-26.17-73.628-42.15-104.058-15.89-30.57-34.47-54.754-53.18-79.102-21.09-8.718-27.25-14.621-40.14-18.281-4.68-1.309-10.02-1.879-15.23-1.59m-210.35 50.223-30.14 7.277c11.02 66.449 38.97 128.271 51.52 193.331 6.76 7.91 13.68 15.94 23.54 35.07 10.21 19.14 23.63 49.6 37.03 80.24 17.38 14.9 20.55 45.14 50.1 70.8l15-7.43c4.18-32.35 8.34-64.73 11.52-86.45 2.89-21.93 4.73-33.3 6.74-47.7 1.99-14.5 4.06-32.13 5.9-49.58l-15.33-45.82c-6.49-1.87-14.89-9.61-23.15-19.72-5.84-6.97-13.16-16.83-23.83-27.43-4.98-4.87-9.57-8.26-14.37-11.07-11.17-23.67-20.16-40.979-27.33-54.71-3.57-7.031-7.67-16.039-11.73-25.109-9.32-5.851-36.82-4.769-55.47-11.699m482.03 49.379c-11.56 3.48-36.72-4.11-56.11 0l-12.5 22.949c4.16 5.32 8.92 7.629 14.74 9.77 6.41 3.71 36.13 3.71 51.47 4.86 5.06.33 11.15 1.17 17.24 2.22 24.69 17.31 49.44 34.56 68.25 53.24 18.75 18.67 31.64 38.84 44.49 58.89l21.48 16.34c38.6 4.75 77.27 9.54 110.39 9.03 33.15-.5 60.78-6.25 88.24-11.95l-4.39-14.82c-47.13-35.24-94.36-70.58-151.6-95.64-57.23-25.12-124.59-39.999-191.7-54.889m-20.51 118.099-7.56 12.53 11.76 31.02c15.33 6.46 0 24.44 24.28 41.38l-1.31 12.56c-13.65 5.87-45.53-3.39-63.11-6.63-6.17-.91-13.73-1.42-20.99-1.55.66 15.72 3.01 29.95 13.42 41.86 4.59 5.56 11.13 11.5 25.74 19.3 14.55 7.93 37.36 17.81 52.01 24.01 14.41 6.31 20.57 8.82 29.9 13.62 9.26 4.66 21.82 11.44 33.79 18.56 9.61-4.9 25.24 11.18 38.38 3.68-7.32-22.13-15.14-44.08-21.05-59.32-5.73-15.24-9.81-23.77-14.07-34.86-4.16-11.33-8.73-25.3-12.83-39.46-3.96-3.6-8.38-7.32-16.56-17.39-8.01-9.88-20.14-26.18-32.05-42.4-11.92.43-22.23-18.01-31.98-16.7-2.4-.26-5.27-.37-7.77-.21m-201.56 47.25c-9.67 21.46-15.14 44.68-16.51 71.79-4.29 61.18 20.42 147.99 63.7 224.14-.88 8.2 10.29 20.68 14.68 27.99 5.08 7.46 10.08 17.94 11.16 27.31l16.15 2.21c5.23-13.24 9.76-26.65 13.57-40.54 3.83-13.71 7.09-27.91 9.67-45.24 2.58-17.47 4.34-38.12 5.82-53.64 1.27-15.58 2.4-26.16 2.25-32.68-.16-12.37-4.4-13.42-7.66-19.72-4-6.33-6.76-13.81-8.16-22.22-13.25-17.65-27.5-34.92-43.62-51.57-9.43-19.02-12.16-30.25-17.34-43.84-3.16-7.6-7.72-17.44-12.79-27.06m400.82 98.14-8.99 14.09c6.9 2.94 13.97 5.95 29.55 14.69 15.67 8.69 39.96 23.24 64.18 37.76 12.35 12 24.65 24.15 32.58 32.84 17.33 17.73 12.79 26.09 20.98 36.67 13.01 16.01 24.29 25.19 27.81 38.86 10.22 7.45 20.7 14.87 46.29 22.04 25.55 7.04 66.27 13.88 107.07 20.81l14.16-16.9c-2.3-6.99-5.82-13.5-12.5-20.87-6.58-7.55-16.13-15.93-23.13-21.82-7.1-5.95-11.4-9.3-19.47-16.72-7.91-7.24-19.39-18.55-30.56-29.95-22.74-15.31-45.73-30.53-72.29-43.34-26.56-12.9-56.89-23.59-87.09-34.19l-8.83-11.12c-17.09-2.05-34.04-4.35-47.28-8.12-13.34-3.76-23.01-9.27-32.48-14.73m-224.51 90.87c-9.22 74.88-18.56 149.9-18.4 205.16 0 55.31 9.66 90.78 19.18 126.14 1.4 9.81 3.75 19.54 6.05 26.74 4.16 12.48 9.08 19.21 18.32 27.95 6.35-6.74 12.01-13.87 19.16-24.07 14.16-21.12 32.99-51.86 53.22-79.23 2.58-25.08 5.08-50.06 6.92-68.74 1.87-18.66 3.05-31.05 4.22-43.52-6.16-29.3-13.3-59.09-22.82-88.05-3.57-14.65-5.89-29.42-8.3-44.09-24.18-22.71-50.21-34.04-77.55-38.29m245.99 34.6c-1.44 5.22-1.44 8.1 0 12.94 5.08 14.09 9.73 19.26 9.34 30.94-.43 4.5-1.92 9.53-5.08 14.42-3.85.79-15.82-4.46-27.15-9.65-9.16-4.3-16.66-8.37-26.91-11.65-9.83-2.77-17.41-2.48-25.65-1.58-1.07 10.85-1.56 21.79-1.07 29.93.74 13.98 3.22 20.9 9.31 29.9 29.22 24.59 58.38 49.24 83.44 65.96 24.71 16.73 45.12 25.66 65.53 34.42 1.66-30.4-.16-61.08-4.67-85.58-4.35-24.27-11.25-42.45-20.57-58.51-9.17-16.43-20.82-30.91-34.57-43.41m203.85 188.85c11.08 27.92 21.39 48.39 32.13 67.6 5.27 10.01 11.43 21.96 15.59 32.6 11.97 30.32 5.17 51.45 14.49 78.14 1.82 3.87 4.26 6.82 7.09 9.18 21.48 11.44 42.87 23.21 54.67 30.28 12.09 7.01 15.08 9.6 22.83 13.71 7.73 4.12 20.39 9.8 33.16 15.12l11.14 15.46c13.73 1.4 25.84 2.42 33.22 3.21 3.1.35 6.99.75 11.17 1.16l-3.75-23.41c-14.51-29.55-29.06-59.04-44.78-84.54-15.77-25.38-32.74-46.98-49.73-68.42-6.41-3.28-12.4-7.29-19.49-13.41-15.57-13.94-37.11-35.1-58.79-53.8-4.75.52-14.81-3.98-25.3-9.95-11.68-6.67-21.15-12.22-33.65-12.93m-280.58 3.02c-15.59 123.41-18.09 247.9-8.07 373.45 8.55-5.61 16.95-11.19 29.55-25.84 12.4-14.85 29.12-38.82 45.76-62.83 8.26-21.43 16.51-43.13 20.82-59.26 4.28-16.33 4.53-27.12 5.02-38.04-6.58-16.78-13.04-33.58-17.58-45.5-7.73-20.31-10.25-28.57-18.57-40.23 7.58-20.63-14.55-47.54-5.31-72.11-4.26-14.65-24.57-9.59-36.06-28.16m218.48 66.39c-2.75 4.96-3.15 18.48-2.6 31.85.59 10.04 1.02 15.12 0 25.03-.72 5.02-2.15 10.01-4.14 14.69l-29.47-7.46-11.08-21.24c-15.43.11-34.82-30.61-51.77-25.1-.43 6.34-.12 12.68.97 19.45 1.76 14.77 14.16 39.85 30.24 65.45 14.65 12.26 29.7 24.39 38.96 31.86 9.49 7.49 13.5 10.32 19.55 15 5.67 4.89 13.5 11.75 21.1 18.75l12.73.8c2.76-36.65 5.65-73.14 3.05-101.12-2.64-27.89-10.65-47.21-18.65-66.54m94.53 195.64c22.63 17.09 44.45 35.5 57.3 47.96 12.95 12.47 16.9 18.83 20.65 26.33 3.47 7.51 7.05 16.06 9.39 28.43 2.25 12.19 3.26 28.28 3.65 39.39.59 11.12.75 17.17 1.49 28.91.76 11.62 2.01 28.95 4.33 42.02 2.09 13.17 5.12 22.17 9.34 30.51 5.51 4.28 11 8.62 19.63 17.23 8.59 8.84 20.35 21.94 31.99 35.13l22.91 17.04c2.33-1.41 23.63 10.31 31.74 13.87 6.15 2.72 14.71 6.4 20.7 6.66l.69-9.56c-3.42-18.73-6.84-37.68-14.48-62.1-7.85-24.44-20-54.64-31.97-84.66-15.82-23.25-31.84-46.36-55.23-72.69-23.3-26.29-54.18-55.77-85-85.37-16.59-.21-31.64-24.92-47.13-19.1m-157.39 13.33c-27.61 52.8-55.13 105.4-73.02 136.84-17.87 31.34-25.88 41.33-33.95 51.3-8.92 35.59-18.01 71.23-22.81 96.31-4.92 25.11-5.76 39.65-6.58 54.21 22.89-2.38 40.78-27.44 64.43-49.23 12.91-12.69 25.24-24.03 35.14-28.27 8.06-15.31 24.67-37.27 43.47-61.13 0-43.44-.09-86.82 2.84-116.7 3.22-29.87 9.41-46.31 15.56-62.7m122.46 65.63c-1.32 14.92-3.57 29.06-7.22 42.05-13.89-.69-16.33-12.16-29.96-28.55-6.43-6.31-13.03-8.73-20.26-10.48l-17.63 26.51c-.53 14.14-1.02 28.19 4.59 52.66 5.46 24.39 17.53 58.89 29.21 93.51 5.08 4.54 9.81 9.26 17.48 19.62 7.66 10.28 17.9 26.49 28.38 42.31 13.32-43.54 26.82-87.31 31.31-122.56 4.49-35.05.18-61.79-4.06-88.42-6.5-9.3-4.16-12.23-13.93-21.45-5.84-4.69-11.17-5.38-17.91-5.2m-104.66 193.39c-17.21 20.55-34.54 40.9-55.2 72.26-20.8 31.32-45.21 73.63-69.59 115.98l-3.03 26.57c-10.64 5.7-6.89 27.3-27.89 37.58-1.23 10.23-1.81 21.37-3.81 30.82-4.82 9.01-22.07 25.21-2.83 34.17 31.21-7.98 61.62-29.03 95.43-59.01 17.64-16.02 35.9-34.51 46.54-47.3 10.65-12.76 13.99-19.94 18.91-27.8 4.98-8.06 11.49-16.93 18.28-25.25l1.7-12.56c11.97-11.5 24.12-23.03 31.39-30.9 7.32-7.83 9.67-12.11 12.13-16.46-.32-4.16-1.33-8.15-5.3-15.76-3.9-7.53-10.84-18.55-15.07-25.44-4.59-6.81-6.35-9.62-10.16-16.46-3.91-6.75-9.67-17.67-15.16-28.61m169.59 39.7c-4.16 14.92-8.38 29.56-10.21 39.28-2.03 9.5-1.76 13.97-1.6 18.45l28.12 19.94c7.09 9 13.03 19.12 17.78 30.7 4.49 11.64 7.96 24.84 8.8 45.38.92 20.53-.89 48.56-2.26 65.95-1.23 17.39-2.05 24.34-2.05 36.92 0 12.53.68 30.75 2.05 49.07 8.59 11.44 17.24 22.95 23.49 30.65 6 7.72 9.77 11.83 13.48 15.78l15.43 5.88c7.15-21.26 14.16-42.47 14.81-75.81.74-33.33-4.83-78.79-10.32-124.1l-13.14-15.58 1.38-13.15c-16.66-32.91-33.02-65.71-47.34-87.25-14.26-21.51-26.25-31.69-38.42-42.11m-89.24 114.56c-11.26 9.7-19.88 20.47-27.4 31.77-2.34 10.32-4.49 20.47-7.07 37.19-2.5 16.76-5 39.86-7.67 63.21l12.01 27.95c-7.27 20.41 14.9 47.74 6.48 72.99l15.49 1.54 8.16-9.48c19.83-33.79 37.08-69.2 46.86-94.54 10.1-25.45 12.83-40.85 13.16-56.06.51-15.25-1.3-30.08-5.5-44.33l-16.08 13.97c-5.31 0-11.62-4.91-13.04-8.48-3.95-6.65-3.95-19.41-16.74-30.4a39.6 39.6 0 0 0-8.66-5.33m-101.09 202.23c-5.33 7.47-18.71 18.14-32.58 29.52-21.97 29.71-43.79 59.42-62.17 91-18.32 31.62-33.06 65.1-47.71 98.63l4.39 8.81 27.99-1.48 11.17-11.76c8.4.58 12.17.21 22.54-6.12 7.45-4.59 14.18-7.83 23.17-8.64 23.32-17.78 46.62-35.45 61.95-51.64 15.18-16.29 22.36-31.03 29.55-45.74 4.59-18.21-17.56-37.83-13.92-56.77-6.31-5.57-5.3-17.73-8.73-28.18-1.98-6.85-7.64-14.21-15.65-17.63m181.52 36.89c-11.6 15.33-23.32 30.65-30.56 41.89-7.48 11.12-10.49 18.19-13.75 25.15-2.81 25.96-2.99 50.56 2.91 72.31 16.5 32.07 30.49 63.63 42.05 94.56l14.1 1.46c13.05-29.46 22.23-60.74 26.72-88.97 4.41-28.39 4.06-53.73.16-76.24-4.01-22.48-11.57-42.21-22.47-59.85m-150.62 168.96c-44.79 37.25-89.86 74.25-124.16 123.88-34.63 49.46-58.46 111.51-82.36 173.68l6.58 5.81c37.56-20.17 72.13-46.45 101.25-77.42 29.08-30.94 53.12-66.8 70.43-104.31 17.52-37.61 28.1-77.12 31.97-117.28m-198.48 79c-4.49 6.32-18.57 5.12-28.08 9.15-7.48 2.52-16.13 10.65-11.97 17.43.43 6.86 1.01 28.35 20.07 28.75-.84-11.14 15.92-21.67 17.82-30.41 4-7.58 2.4-16.54 2.16-24.92M1778.31 238.371c.67 7.418 2.54 14.539 9.04 27.75 6.53 13.078 17.77 32.078 26.1 46.301 16.2 27.719 24.65 42.387 37.14 64.078 20.65 20.762 41.38 41.602 56.95 55.121 15.66 13.461 26.14 19.738 36.8 25.988l12.65 1.512c16.25-11.043 27.65-13.902 41.39-25.199 8.99 2.476 34.89-4.774 51.33-6.371 10.66-.949 22.99-.879 33.48 2.758l9.53-19.18c-1.62-6.5-4.5-10.75-10-16.699-11.98-11.782-26.38-23.969-29.13-36.45-49.51-29.289-99.18-58.449-142.88-76.968-43.63-18.461-81.44-26.18-119.2-33.703M1596.72 373.41c-42.14 3.641-68.12.871-99.59 4.539l-10.41 8.731-30.26-2.86-23.61 7.418c39.72 37.41 79.51 75.094 112.03 100.571 32.64 25.582 58.16 39.203 83.72 52.851 14.79 1.731 29.81 2.27 41.13 1.731 18.99-1.012 29.23-4 41.55-12.039 2.26-17.532 21.99-3.582 35.06-25.25.62-1.422.83-2.731 1.08-4.204 15.07-6.968 30.31-13.808 41.97-20 11.53-6.078 19.39-11.5 27.34-16.949-8.28-1.32-12.32-3.277-19.51-9.738-4.42-4.07-10.08-10.242-15.16-16.813l-24.4 2.832 5.91-15.359c-16.23-9.512-32.64-19.019-60.49-28.16-27.85-9.301-67.06-18.231-106.36-27.301m463.44 153.692c-18.19 1.207-32.85 1.578-42.05 1.867-4.75.332-10.82.922-16.98 1.742-34.81 15.309-70.37 41.969-107.04 78.117l3.87 10.32c25.74 3.473 51.38 7.032 69.07 9.532 17.95 2.558 27.85 4.359 40.85 6.179 13.15 1.86 29.47 3.891 45.71 5.789l44.38-14.039 26.68-25.75 2.71-29.597c-2.66-9.961-14.74-22.641-30.14-36.114-13.83-.109-27.06 1.372-37.06-8.046m-242.67 32.359c-21.69 6.949-42.51 17.109-62.91 31.418-20.4 14.402-40.39 33.109-58.9 55.781-18.33 22.828-35.27 49.668-48.84 78.121 14.99 2.918 30.31 5.938 54.12 7.59 23.6 1.598 56 1.848 88.43 1.981 25.56-3.543 48.16-7.532 70.81-27.293-3.46-5.387-2.49-11.387-15.44-17.09-4.5-1.93-10.24-4.09-22.65-6.68-12.4-2.5-31.31-5.687-50.54-7.961l-15.32-21.398c9.91-16 24.93-32.621 41.47-52.918 9.73-11.41 19.52-23.903 29.39-36.321m-425.98 4.039c-32.4-2.832-60 .329-77.03 2.532-16.9 2.277-23.15 3.367-35.96 4.258-12.74.71-31.82 1.101-50.88.902-42.05 13.277-67.11 12.859-100.34 27.308l-4.41 16.969c44.3 29.602 88.68 59.211 124.99 76.942 36.26 17.687 64.48 23.519 92.74 29.39 32.15-31.633 66.54-61.019 91.27-79.402 24.89-18.309 40.05-25.469 55.78-30.609 15.82-5.051 32.06-8 48.47-8.911l-8.78-11.007c-9.96-2.633-19.95-5.063-43.18-10.762-23.48-5.77-60.37-14.738-92.67-17.61m114.4 138.329c-19.15 9.66-37.3 21.351-54.66 35.261-17.28 13.93-33.64 30.051-48.71 48.18a398.6 398.6 0 0 0-40.56 59.77l5.13 8.82c43.05 3.89 85.76 7.519 119.07 7.832 33.26.289 56.7-3.07 80.22-6.383 14.95-10.668 27.27-18.898 34.26-22.93 5.58-3.879 15.5-9.41 23.4-24.211-12.27-2.687-24.51-5.359-43.75-4.886-19.19.297-45.34 4.109-71.32 7.718l-8.99-11c.5-6.921 2.17-13.531 6.54-22.89 4.37-9.379 11.61-21.52 16.32-29.16 4.61-7.75 6.78-11.032 10.02-17.25 3.26-6.34 7.47-15.758 11.5-25.309-4.25-.66-21.48-2.133-38.47-3.562m395.59 73.05c-14.28 5.313-28.6 10.621-38.88 15.129-10.25 4.453-16.24 7.91-22.41 11.481-5.32-1.489-24.31 2.301-43.37 5.902-9.58 15.25-18.99 30.539-25.06 65.68-6.21 35.219-8.58 90.187-11.25 145.339l20.65 35.49c16.24-3.43 26.44-25.82 42.05-42.9 4.63-4.75 9.86-9.21 15.57-13.24 6.42-19.939 12.78-39.81 19.07-53.521 6.41-13.699 12.91-20.938 19.4-28.387 9.87-30.352 19.77-60.691 23.77-84.16 4.21-23.473 2.2-40.16.46-56.813m-765.37-22.148c-30.23 2.078-60.36 4.168-97.25 13.258-36.68 9.222-80.02 25.59-123.32 42.179-3.16 2.59-6.492 5.172-15.809 10.832-9.281 5.469-24.359 13.911-39.644 22.36l9.66 10.98c39.554 12.231 79.183 24.36 112.117 29.469 32.926 4.891 59.246 2.43 85.636.082 15.66-19.91 31.4-39.762 55.08-56.59 24.02-16.961 55.92-30.769 87.97-44.511l1.67-10.34c-27.4-2.36-53.29-6.789-76.11-17.719m112.16 98.879c-24.56 8.308-41.05 8.308-60.49 18.539-12.33 18.461-28.98 28.441-47.25 36.832-17.15 25.961-32.23 53.34-41.63 74.437-17.16 38.802-17.57 60.372-13.74 87.972 19.64-3.26 39.96-10.83 61.37-21.48 4.82.37 9.48.74 24.05-2.78 16.49-4.06 48.46-14.19 73.48-21.78 9.7-5.61 15.03-10.64 21.07-15.02 8.04-6.21 20.11-13.892 30.39-16.529.63-11.332 14.33-29.48 14.69-43.5l-8.82-11.031c-16.28 1.41-32.72 2.762-44.76 4.988-12.36 2.203-20.19 5.242-28.3 8.293l-8.78-11.113c1.91-7.938 3.9-15.789 11.41-29.418 7.4-13.73 20.6-33.031 33.62-52.469m374.95 38.387c-3.34 3.773-6.99 7.094-12.24 10.344-5.33 3.418-12.08 6.66-22.74 10.25-10.9 3.558-25.72 7.398-36.05 10.136-19.89 5.012-28.76 7.954-42.63 14.954 2.83 46.41 5.95 92.708 8.37 120.958 2.13 28.47 3.28 38.79 4.25 54.1.87 15.33 1.37 35.68 1.37 55.99 6.99-4.69 14.07-9.37 26.52-23.93 12.37-14.56 30.14-38.82 48-63.14 12.48-29.81 24.73-59.66 31.4-90.3 6.41-30.581 7.11-62.089 7.74-93.479m-666.539 61.328c-65.98 9.09-131.344 24.191-182.598 40.771-51.074 16.67-88.007 35.08-119.277 55.41-31.098 20.26-56.824 42.33-78.976 67.6l4.41 8.92c30.23 6.01 60.781 12.16 91.425 12.16 31.028 0 62.454-6.15 93.762-12.16 37.719-36.68 78.024-71.13 106.414-92.16 28.309-21.03 44.84-28.78 61.61-34.21 16.906-5.39 34.059-8.63 51.299-9.48l8.82-27.261c-3-3.438-15.81-4.367-20.15-4.938-4.29-.613-11.41-1.633-16.739-4.652m382.449 38.971c.49 7.05-12.17 13.67-22.91 22.97-11.24 11.01-5.92 20.3-22.15 30.27-20.93 14.67-59.33 29.74-89.34 53.14-.54 19.28-.92 38.69 7.99 68.39 8.96 29.58 27.4 69.47 45.8 109.38l13.32 10.37c24.57-54.47 48.96-109.03 60.37-158.07 11.11-48.94 8.91-92.72 6.92-136.45m-385.449 76.86c-24.219 8.89-46.535 23.48-65.187 44.45-35.313 40.88-62.411 100.38-78.063 150.29-7.285 24.41-10.902 47.56-11.781 70.9 29.098-7.45 58.242-14.88 88.34-30.25 29.984-15.36 60.957-38.7 91.76-62 6.61-8.8 12.98-17.66 20.24-31.05 7.07-13.43 14.9-31.5 22.73-49.39l-4.5-14.81c-15.32 6.21-30.77 12.38-40.47 16.91-9.82 4.6-13.74 7.42-17.772 10.45l-15.617-7.42c5.168-22.19 10.742-39.11 16.566-55.25 4.503-13.77 10.703-29.74 9.323-41.39m121.82 117.41c-19.23 43.91-50.2 88.66-91.5 134.26.83 10.36 2.99 20.65 7.24 32.84 9.98 26.47 25.65 61.58 36.98 96.28 9.07 16.14 19.77 28.11 27.68 44.41 3.41 6.62 7.03 18.52 18.94 22.02l10.99-8.91c5.33-71.42 10.82-142.72 11.91-187.94 1.33-45.19-1.5-63.84-4.58-82.72-8.83-10.53-5.58-31.47-17.66-50.24m-444.385 79.63c-44.125 8.71-88.25 31.33-132.547 75.28-21.441 21.41-42.14 47.72-59.293 75.96 4.082 13.28-16.851 24.64-15.113 35.89-.117 2.18-.117 4.62.293 6.91 14.66.93 29.23 1.66 38.262 1.93 8.828.37 11.707.24 18.691.6 6.953.38 17.734 1.05 28.641 2.03 5.671-5.74 6.671-5.55 12.781-7.48 16.203-4.59 25.394-1.73 41.433-11.51 2.411-1.74 4.204-3.5 5.575-5.48 5.867-25.91 11.742-51.87 26.648-80.44 14.899-28.43 38.719-59.6 62.867-90.78m35.961 70.99c-9.816 10.14-18.312 21.7-25.89 35.68-7.664 13.91-14.657 30.44-22.563 61.61-7.707 31.1-16.746 77.24-23.148 123.25l24.484 2.93c6.863-3.23 13.691-6.62 25.973-17.22 12.246-10.75 29.972-28.89 47.797-46.95 14.902-11.48 24.308-42.99 45.746-67.06l-3.696-8.96c-7.832.5-14.492-.11-20.656 6.97-11.777 8.16-15.906 5.22-28.019 18.54-1.379 1.92-2.289 4.11-2.997 6.2l-28.851-2.89c1.09-8.27 2.004-16.35 3.992-35.03 1.871-18.67 4.914-47.86 7.828-77.07m174.356 79.58c-13.524 28.35-26.973 56.57-40.383 78.17-13.484 21.41-26.731 36.26-40.289 51.04.574 46.4 18.476 96.04 59.523 144.63 19.949 23.44 45.168 45.65 72.692 64.29 5.625-46.86 11.164-93.61 11.328-136.43.418-42.73-4.75-81.6-9.828-120.53-2.164-4.82-4.203-9.65-10.196-21.18-5.836-11.63-15.57-29.8-25.273-48.27m-330.688 146.93c-11.953 14.7-21.437 31.36-28.769 51.69-7.402 20.31-12.57 44.22-14.238 76.12-1.832 31.8 0 71.58 5.328 110.61l13.328 1.38c26.812-26.89 53.578-53.91 70.398-78.48 16.692-24.58 23.352-46.78 30.024-68.96-8.824 11.59-31.813 3.48-48.551 23.78-3.789 6.49-22.898 26.77-37.145 18.94-5.898-35.22 18.243-87.87 9.625-135.08m-107.789 23.69c-6.367-2.02-18.894 3.42-24.511 6.37-5.004 2.71-12.993 5.18-20.528 4.69-14.992 13.44-30.39 26.94-46.55 47.5-16.317 20.56-33.469 48.1-50.786 75.76l-13.285 29.52c-2.703 14.34-4.785 27.04 2.203 38.37 13.246-2.25 26.407-4.43 45.965-10.49 19.32-6.22 45.047-16.31 70.692-26.42l27.308-24.39c.707-45.18 9.414-91.75 24.445-139.48m240.461 70.07c-9.453 23.91-18.777 47.72-28.597 65.65-9.656 17.97-19.731 30.08-29.723 42.16-1.535 5.76-1.254 8.78.211 14.21 6.531 17.54 14.066 26.34 8.695 41.09 15.817 26.61 31.559 53 45.543 71.62 13.828 18.55 25.981 29.16 37.887 39.87 11.992.62 24.523 20.84 36.883 19.9 3.164-43.42 6.34-86.89 4.328-122.95-1.75-35.99-8.574-64.69-15.391-93.26-8.914-18.57-18.984-36.65-26.48-48.33-15.25-23.09-22.195-24.61-33.356-29.96m-263.492 155.81c-34.719 16.11-66.355 39.17-96.332 72.1-29.851 32.9-58.203 75.62-81.683 127.92-23.606 52.25-42.223 114.09-53.125 177.04l14.867-2.91c26.351-19.96 52.91-39.82 70.57-55.77 17.395-16.11 26.184-28.05 34.973-40.14 5.949-56.43 11.902-112.68 17.898-169.05 21.774-24.34 43.711-48.89 60.488-65.43 16.696-16.59 28.223-25.4 39.758-34.19m72.981 83.44c-20.688 13.59-19.817 32.14-42.75 54.45l-22.821-12.44c4.704-12.9 8.832-29.64-1.414-44.98-5.703 1.92-11.578 2.45-17.148 5.93-1.582-.32-7.914 15.1-9.41 18.54-2.246 4.32-6.328 15.52-14.903 18.99-2.296 22.48-4.746 44.89-6.171 59.27-1.489 14.36-2.153 20.8-2.739 27.08 2.418 16.6 4.617 33.22 6.742 49.88 4.29 31.27 4.25 57.12 11.321 78.45 3.504 10.39 9.789 22.38 17.484 33.34l10.254-5.18c27.598-41.1 51.234-85.12 65.688-120.71 14.449-35.64 19.988-62.55 21.691-87.56 1.621-25.08-.453-47.95-6.117-70.01m72.98 31.85c-5.293 38.44-10.453 76.96-16.992 104.99-6.199 28.13-13.359 45.6-20.519 63.24l8.738 11.05c12.785 8.71 23.855 16.06 31.308 21.19 5.582 3.98 13.493 9.19 19.649 17.31 22.988 7.51 45.969 15.16 61.957 20.02 15.898 4.91 24.98 7.19 34.055 9.35 1.703-15.36.574-30.93-5-55.37-5.743-24.46-15.899-58.12-27.356-84.21-11.609-25.96-24.262-44.51-38.504-61.57-14.238-16.99-30.062-32.54-47.336-46m-243.597 237.5-17.524 14.11c-27.648 50.82-55.168 101.6-67.57 154.62-12.235 53.04-9.32 108.24-6.367 163.52l13.359 10.29c5.34-4.41 10.578-8.66 19.941-21.31 9.29-12.73 22.196-33.81 35.27-54.72-6.172-49.27-9.164-99.2-8.578-134.38.547-35.22 4.461-55.9 10.441-73.89 6.043-18.14 13.828-33.9 24.028-47.93m191.839 29.56-13.199 2.97c-5.027 39.08 23.696 96.31 13.946 145.41l11.832 29.52c26.601 16.96 53.367 33.93 78.48 44.67 25.227 10.64 49.164 15.02 72.93 19.5-.453-4.28-1.035-8.71-4.16-18.06-3.243-9.29-8.989-23.7-15.024-37.96l-12.625-14.8c-11.398-34.34-22.855-68.58-40.828-95.09-18.152-26.37-40.258-49.04-67.617-63.47m-101.832 27.24c-5.664 5.27-11.242 5.68-13.906 18.68-3.793 8.07-8.707 14.96-10.829 19.37-1.328 2.75-3.16 6.54-4.777 10.57l-14.207-1.37c-8.535-8.58-11.695-27.02-23.062-41.57-2.739-3.56-5.821-6.58-9.321-9.34-10.781 13.63-3.078 35-11.156 53.05 4.5 35.42 10.984 70.76 16.695 93.63 5.614 22.87 10.532 33.21 16.071 41.98 5.656 8.87 11.855 16.16 18.937 22.23-3.254 15.7 24.149 29.59 18.563 44.39l13.211 11.82c10.316-27.71 20.843-55.38 22.925-98.44 1.965-43.01-4.574-101.54-11.109-159.94m67.984 221.45c-3.699 5.66-6.57 11.81-9.746 22.71-3.074 10.77-6.652 26.61-9.152 38.25-5.004 22.3-8.746 34.66-17.317 51.95l13.282 28.82c11.32 9.22 22.359 18.23 47.078 34.44 24.39 16.16 62.531 39.22 100.629 62.22 11.113-9.69 2.371-23.15 8.121-36.89-13.32-36.07-28.985-71.26-43.176-97.86-13.945-26.4-26.434-44.3-40.758-60.55-14.48-16.1-31.058-30.78-48.961-43.09m-171.195 30.24-14.066 14.81c-1.254 23.53-2.579 47.14-4.293 63.55-1.578 16.49-3.828 26.02-6.114 35.32 5.321 30.51 10.657 61.18 13.532 80.51 2.91 19.46 3.125 27.74 3.535 36.14 4.504 2 5.871 15.49 7.914 22.44 1.617 5.69 6.074 27.09 19.98 23.22 10.992-24.69 21.934-47.96 35.508-67.84-.039-9.77 10.66-27.16 14.945-38.8 6.536-12.28 8.997-30.57 4.747-45.43-8.165-14.51-20.477-26.69-19.692-40.51-15.273-27.88-34.101-55.63-55.996-83.41m126.152 172.04c-3.832 10.3-7.742 20.46-7.035 41.94.41 21.34 5.289 53.81 10.028 86.37 10.699 22.45 21.734 44.86 31.14 61.11 9.246 16.29 17.235 26.39 24.903 36.39 3.246 8.84 7.574 17.19 16.734 29.68 9.031 12.53 22.855 29.17 33.758 40.05 21.949 21.89 36.347 25.76 55.668 39.08 9.824 6.5 19.82 13.59 29.648 21.03 16.024 1.59 31.051 2.93 42.789 4.41-.836-11.46-2.535-22.92-4.07-31.28-4.586-17.24-5.25-24.8-23.074-38.83-31.895-64.14-63.532-128.35-98.582-176.6-35.012-48.36-73.434-80.9-111.907-113.35" style="fill:#50bf47;fill-opacity:1;fill-rule:evenodd;stroke:none" transform="matrix(.13333 0 0 -.13333 0 619.107)"/><path d="m3483.38 3114.12-141.8-54.22c-.12-1.99-.27-3.69-.39-5.76-.76-12.62-.92-27.67-1.35-43.28l144.81 55.21c.08 14.73.45 38.57-1.27 48.05" style="fill:#181514;fill-opacity:1;fill-rule:nonzero;stroke:none" transform="matrix(.13333 0 0 -.13333 0 619.107)"/><path d="M2226.98 949.262c7.38 10.668 16.2 15.898 25.77 19.226 26.57 10.211 69.77 15.551 108.95-14.297 6.37-5.91 12.05-13.5 16.86-22.89 4.84-9.34 8.92-20.473 11.74-32.563 5.8-22.879 6.5-56.617 1.58-88.16-2.41-15-5.9-27.637-10.22-38.449-4.13-10.609-9.08-19.43-15.18-27.34-6.81-6.539-14.52-12.051-24.13-16.769-19.9-10.399-49.13-15.079-76.81-14.961-14.53.14-28.35 1.363-40.55 4.621-12.04 3.261-22.28 8.621-31.44 15.058-8.99 6.282-16.9 13.403-23.48 21.75-6.91 12.063-11.99 25.25-15.16 41.332-3.32 16.039-4.91 35.078-5.91 62.391-.91 27.348-1.08 62.937-.25 91.258.93 28.191 3.05 49.133 5.59 64.551 2.4 15.44 5.45 25.43 10.32 34.76 5 9.33 11.95 17.98 18.65 24.83 16.36 16.72 30.97 21.71 50.03 26.6 20.08 4.91 48.39 6.68 73.82 2.35 11.54-1.81 21.36-4.59 29.28-8.14 13.15-6.03 23.3-12.83 34.56-27.55 10.18-14.59 13.24-33.56 12.4-51.84h-76.69c.41 9.76-.71 26.19-13.83 33.83-11.73 5.88-30.47 9.08-48.79-5.51-6.61-7.23-8.4-11.25-11.24-18.69-6.24-16.65-6.16-47.75-5.87-75.398m0-108.102c0-10.898.79-24.14 2.21-34.25 1.5-10.101 3.5-17.058 6.75-23.699 15.89-16.371 34.38-18.34 58.37-8.281 2.87 1.769 5.41 3.75 7.15 6.121 5.34 11.789 5.83 20.84 7.33 37.09.75 10.418.95 23.828.75 35.398-.16 11.609-1.08 21.641-2.08 29.301-2.67 14.449-1.66 21.961-15.73 31.558-12.41 5.872-29.99 11.364-48.55-4.628-8.82-12.59-12.49-24.891-14.57-41.11-1.17-7.781-1.92-16.609-1.63-27.5m214.07.41h76.69c-.71-18.199 1.63-40.558 10.96-58.359 14.99-18.34 30.41-19.481 50.02-14.641 7.02 2.578 14.1 7.239 21.09 17.61 5.41 12.058 6.65 23.461 7.97 39.73.71 9.988.83 21.77.55 31.871-.18 10.309-.95 18.989-2.21 25.887-3.05 14.773-4.78 22.742-18.51 35.551-14.37 10.14-36.04 12.39-55.98.492-8.9-7.133-14.26-16.301-13.89-24.262h-73.73l11.05 202.221h213.27v-61.28h-150.59l-2.93-77.538c5.49 5.187 14.87 10.988 25.19 16.988 20.09 5.262 46.17 6.129 70.61 1.121 18.75-4.012 32.05-9.891 45.75-23.77 14.22-14.961 23.12-32.191 28.65-51.089 6.46-21.582 7.85-51.832 4.12-80.063-1.62-13.949-4.39-26.598-8.36-37.41-3.73-10.738-8.28-19.848-13.46-27.578-13.39-19.071-26.19-26.379-42.2-33.09-18.65-7.68-47.6-11.59-74.53-10.66-13.63.5-25.86 2.41-36.35 5.051-18.19 5.066-31.4 11.238-44.33 25.726-5.41 5.973-10.53 13.192-14.84 21.742-10.88 20.91-15.01 48.758-14.01 75.75" style="fill:#f03c43;fill-opacity:1;fill-rule:evenodd;stroke:none" transform="matrix(.13333 0 0 -.13333 0 619.107)"/><path d="m2963.81 2913.59-11.33 4.68s-6.64-19.33-19.96-30.65c0 0 18.14-19.79 17.97-19.99l-25.31-65.94c9.59-7.93 24.29-44.23 25.31-45.95l49.84 125.98 120.88 46.06c.37 15.31-.9 46.26-.86 46.43z" style="fill:#181514;fill-opacity:1;fill-rule:nonzero;stroke:none" transform="matrix(.13333 0 0 -.13333 0 619.107)"/><path d="M4545.7 2100.19c-7.85-24.44-20-54.64-31.97-84.66-15.82-23.25-31.84-46.36-55.23-72.69-23.3-26.29-54.18-55.77-85-85.37-11.76 1.56-25.49-18.83-37.54-19-4.59-.59-7.42-.32-9.59-.1 22.63 17.09 44.45 35.53 57.3 47.96 12.95 12.47 16.9 18.83 20.65 26.33 3.47 7.51 6.99 16.11 9.14 26.56 4.33 23.3 3.57 41.37 5.23 66.11.86 13.51 2.09 31.92 4.49 45.48 2.09 13.77 5.12 22.77 9.34 31.11 5.51 4.28 11 8.62 19.63 17.23 8.59 8.84 20.35 21.94 31.99 35.13l22.91 17.04c1.84.2 3.5.58 6.52 1.67 19.89 9.15 34.11 17.9 45.92 18.86l.69-9.56c-3.42-18.73-6.84-37.68-14.48-62.1m-44.47-286.72c-14.51-29.55-29.06-59.04-44.78-84.54-15.77-25.38-32.74-46.98-49.73-68.42-12.83-7.39-17.89-11.4-37.99-30.48-9.96-9.26-25.06-22.99-40.29-36.73-6.15.19-14.9-4.39-20.53-7.35-5.21-2.57-11.95-7.17-21.52-11.57-7.97-3-12.15-3.25-16.9-3.96 4.98 12.61 10.26 24.94 14.01 32.94 3.57 7.96 5.72 11.45 11.58 22.07 5.66 10.7 15.13 28.51 20.7 42.21 5.76 13.66 7.48 23.38 8.34 29.74 1.23 6.42 1.68 9.67 1.97 15.47.36 5.78.86 14.05 1.45 20.6 1.64 10.21 2.66 16.78 11.25 24.49 28.55 13.31 51.37 27.88 74.67 42.19 10.41 6.09 23.06 11.92 35.99 16.92l11.14 15.46c16.5 1.69 29.06 2.7 44.39 4.37zm-176.44-403.48c-15.75-12.75-34.71-29.78-54.61-50.52-22.74-15.31-45.73-30.53-72.29-43.34-26.56-12.9-56.89-23.59-87.09-34.19l-8.83-11.12c-15.64-1.15-31.15-3.63-43.28-7.03-11.85-3.23-20.41-7.28-25.25-9.54-4.98-2.39-6.25-3.15-7.56-4.03-1.11-.71-2.44-1.42-3.67-2.25l-8.99 14.09c6.9 2.94 13.97 5.95 29.55 14.69 15.67 8.69 39.96 23.24 64.18 37.76 21.43 20.83 40.57 40.25 46.55 51.65-1.57 17.57 32.07 38.96 34.82 56.72 10.22 7.45 20.7 14.87 46.29 22.04 25.55 7.04 66.27 13.88 107.07 20.81l14.16-16.9c-4.16-13.06-15.98-26.12-31.05-38.84m-164.56-277.09-4.39-14.82c-35.47-31.9-75.02-58.95-121.56-81.45-46.45-22.37-99.75-39.982-132.13-49.778-32.33-9.75-43.81-11.512-55.37-13.411-11.53-2.043-22.82-3.953-34.24-5.89-6.74 1.48-11.72.937-22.23-.051-13.16-1.199-27.24-1.949-33.88.051l-12.5 22.949c1.66 2.07 3.41 3.891 5.91 5.512 28.99 14.428 56.61 5.288 77.54 11.338 24.69 17.31 49.44 34.56 68.25 53.24 18.75 18.67 31.64 38.84 44.49 58.89l21.48 16.34c38.6 4.75 77.27 9.54 110.39 9.03 33.15-.5 60.78-6.25 88.24-11.95m-284.82-313.431c-11-8.758-21.99-16.321-30.39-19.457l-8.07-16.871c-30.56-13.36-62.05-24.95-88.69-32.903-26.89-7.949-49.12-12.437-68.71-15.508-19.39-3.082-36.13-4.66-51.03-4.421-15.14.113-28.32 2.062-50.28 4.043-21.81 1.968-52.54 4.078-83.1 5.929-.43 1.821-1.33 3.629-2.58 4.918-17.25 7.5-29.32-6.039-41.62 9.102l-1.6 12.539 14.16 16.898c45.04-1.398 85.6-6.078 141.13 20.09 29.06 14.442 63.36 40.012 92.91 70 37.3-.246 74.76-.43 106.44-5.039 31.86-4.66 57.76-13.828 83.83-22.961l5.9-14.066c-5.62-2.242-9.8-5.403-18.3-12.293M3607.29 584.59c-10.84-4.852-22.23-8.559-42.27-12.891-20.02-4.347-48.79-9.199-67.31-12.347-18.39-2.973-26.3-4.09-34.21-5.332-7.91-1.149-15.82-2.219-23.66-3.379-30.95 1.898-61.77 3.847-86.19 7.16-24.22 3.347-41.79 8.097-59.27 12.668-21.06 11.652-28.97 3.25-42.06 20.043 27.97 18.316 56.06 36.726 76.37 48.918 20.24 12.441 32.81 18.648 45.27 24.82 27.31-.211 54.48-.391 93.93-12.32 39.55-11.95 91.37-35.649 143.09-59.231zm-290.77-231.809c-81.34 6.938-160.27 23.328-236.19 52.41-10.04 11.649-18.16 16.618-32.17 24.079-18.96 9.621-39.37 21.082-49.86 32.062-6.25 6.02-11.48 12.699-16.13 19.898 6.79 4.168 13.88 8.071 19.24 11.008 11.72 5.801 28.43 14.434 48.67 25.922 19.41.578 28.81-1.828 57.62-1.539 37.07-14.652 74.12-29.262 110.72-54.031 36.68-24.699 72.97-59.5 109.1-94.262zm-345.88-121.082c-4.23-6.308-5.25-5.449-9.47-7.539-6.83-2.398-10.31-3.031-14.49-3.519l-16.99 11.269c-52.44.031-104.67 18.391-149.32 48.051-16.89 11.539-32.28 25.008-46.35 40.598-13.97 15.363-26.73 32.8-37.53 51.48-2.03 22.34-23.26 37.141-10.43 54.633 21.18 13.18 41.53 4.547 54.7 15.469 15.98-5.391 31.99-10.52 43.62-15.161 11.75-4.511 19.16-8.421 26.58-12.109 22.56-16.242 44.29-35.051 67.44-58.633 11.48-11.508 23.05-24.207 33.89-37.066 21.54-24.883 44.04-56.91 53.86-72.641 4.59-7.449 5.08-9.14 5.18-10.722.15-1.379-.1-2.86-.69-4.11m-336.85 285.692c-11.29 9.711-23.79 19.359-36.81 29.539l-7.42 29.492 15.42 30.387c16.37 8.89 34.14 15.429 53.19 19.691 19.14 4.371 40.02 6.539 74.68 3.66 34.57-2.922 82.99-10.66 130.55-22.051-11.66-8.019-23.54-16.16-31.54-23.211-7.91-7.078-12.33-12.878-16.61-18.839-20.46-9.45-39.08-20.008-53.1-35.348-17.54-1.742-39.6-14.52-58.57-19.481a101.4 101.4 0 0 0-28.75-3.55c-12.63-1.282-25.78 18.199-41.04 9.711m-84.77 118.468c-14.9-18.691-34.88-47.89-53.05-78.168-25.49-7.312-58.36-17.152-78.7-22.8-15.76-4.262-15.1-4.262-29.09-7.25l-.62 1.23c-16.98 12.301-31.64 7.82-43.51 12.988-22.27-1.449-48.91 10.442-68.48 23.153-9.24 3.019-17.57.539-27.9-.492-14.24-1.309-20.98-3.372-32.72 8.808l-6 28.363c-.82 5.938-7.07 14.09-11.41 19.719-5.06 5.75-12.49 15.879-21.56 28.781-17.23 10.821-34.55 21.719-44.79 28.797-10.25 6.953-13.32 10.242-16.66 13.391l-13.48-1.391-15.66 8.192c-30.8 1.031-60.28 3.82-88.17 8.992-8.07 57.699-16.07 115.328-31.27 165.777-15.45 50.379-38.18 93.391-60.7 136.551l-11.62 9.21c.09 11.39-15.9 31.26-16.89 41.31-13.58 12.15-26.91 31.68-41.48 37.54-6.11 3.37-17.77 8.65-27.52 14.5-10.11 6.38-14.68 11.81-19.52 19.23-8.49-1.3-16.65 3.98-23.11 7.44-9.24 5.56-16.36 6.43-22.93 6.72l-6.54 15.9c77.31 7.67 154.58 15.36 213.86 24.76 59.2 9.41 100.34 20.56 141.72 31.64 61.04-15.54 123.73-24.58 203.17-26.28 79.48-1.79 175.66 3.84 276.6 10.41 100.93 6.63 206.8 14.19 288.83 13.71 82.11-.39 140.47-9.04 197.17-24.79l-20.47-21.42-11.91 15.73c-8.01-.83-15.49-1.58-24.06-9.33-18.38-16.57-34.4-35.11-50.55-44.73-53.38-68.41-106.64-136.89-138.77-191.98-32.42-55.101-43.55-96.718-54.88-138.558-14.67-33.551-24.47-64.762-21-91.024-37.27-5.347-74.17-12.988-99.5-19.976-25.58-7-39.3-13.403-50.97-20.633-11.73-7.379-21.27-15.328-35.86-34.02m-451.8-100.711c-8 .461-16.24.102-21.74-.828-8.4-2.109-9.41-2.449-15.32-7.218-19.98 2.296-30.55.48-59.03 3.609-34.81 15.309-70.44 42.027-107.04 78.117l3.87 10.32c15.7 1.942 31.31 3.872 44.72 5.84 13.24 1.871 24.15 3.832 42.3 6.453 17.98 2.59 43.2 5.911 68.61 9.207l44.38-14.039 26.68-25.75 2.71-29.597c-2.33-9.961-15.82-24.09-30.14-36.114m-7.71-131.718c-12.85-18.219-33.64-30.989-35.92-45.45-49.51-29.289-99.18-58.449-142.88-76.968-43.63-18.461-81.44-26.18-119.2-33.703l-13.2-8.938c.87 16.758 16.24 41.367 25.9 58.27 5.5 9.55 8.82 15.078 16.15 27.871 7.41 12.508 18.73 32.168 30.23 51.988 20.65 20.762 41.38 41.602 56.95 55.121 15.66 13.461 26.14 19.738 36.8 25.988l12.65 1.512c13.91-10.16 29.9-15.07 41.39-25.199 8.32 1.258 16.74-.492 28.56-2.703 22.15-4.239 38.31-6.571 56.25-.91l9.53-19.18c-.58-2.57-1.5-5.078-3.21-7.699m-375.11 1.34c-21.34-7.508-49.66-15.071-67.06-19.391-17.32-4.559-24.07-5.988-30.73-7.5-6.49-1.379-13.2-2.938-19.89-4.469-22.33 2.07-35.82 2.262-58.13 2.399-10.52.3-25.98 1.011-41.46 2.14l-10.41 8.731-30.26-2.86-23.61 7.418c39.72 37.41 79.51 75.094 112.03 100.571 32.64 25.582 58.16 39.203 83.72 52.851 26.15 3.012 51.79 2.852 66.37-2.398 6.37-2.121 11.53-4.633 16.31-7.91 2.26-13.301 14.66-10.321 23.32-14.211 4.46-.782 12.74-7.493 12.82-15.243 27.06-12.019 51.71-23.957 69.31-36.949-9.78-.258-22.09-10.308-34.67-26.551l-24.4 2.832 5.91-15.359c-13.4-9.191-27.85-16.68-49.17-24.101m-360.15 165c-26.49-.711-35.72 2.48-52.21 4.519-16.82 1.941-40.71 2.672-64.78 2.133-33.01 11.937-70.07 13.277-100.34 27.308l-4.41 16.969c44.3 29.602 88.68 59.211 124.99 76.942 36.26 17.687 64.48 23.519 92.74 29.39 32.15-31.633 66.54-61.019 91.27-79.402 24.89-18.309 40.05-25.469 55.78-30.609 15.82-5.051 32.06-8 48.47-8.911l-8.78-11.007c-7.29-2.133-14.71-3.954-26.28-6.75-11.58-2.872-27.39-6.442-56.87-10.801-29.73-4.223-73.31-8.922-99.58-9.781M1048.5 771.219c-36.68 9.222-80.02 25.59-123.32 42.179-3.16 2.59-6.492 5.172-15.809 10.832-9.281 5.469-24.359 13.911-39.644 22.36l9.66 10.98c39.554 12.231 79.183 24.36 112.117 29.469 32.926 4.891 59.246 2.43 85.636.082 15.66-19.91 31.4-39.762 55.08-56.59 24.02-16.961 55.92-30.769 87.97-44.511l1.67-10.34c-13.74-.75-27.31-2.559-38.64-5.149-11.12-2.461-20.02-5.492-25.11-7.519-5.16-1.813-6.61-2.461-7.99-3.063-1.45-.699-2.95-1.308-4.37-1.988-30.23 2.078-60.36 4.168-97.25 13.258M694.746 1064.56c-31.098 20.26-56.824 42.33-78.976 67.6l4.41 8.92c30.23 6.01 60.781 12.16 91.425 12.16 31.028 0 62.454-6.15 93.762-12.16 37.719-36.68 78.024-71.13 106.414-92.16 28.309-21.03 44.84-28.78 61.61-34.21 16.906-5.39 34.059-8.63 51.299-9.48l8.82-27.261c-9.91-5.867-14.65-3.438-26.72-5.918-4.84-1.133-7.579-2.5-9.118-3.321-66.496 7.891-132.274 23.84-183.649 40.42-51.074 16.67-88.007 35.08-119.277 55.41m-155.574 309.18c-15.828 17.79-30.981 38.42-44.387 60.19.586 5.32-.492 10.66-3.906 14.94-9.492 10.5-12.328 18.16-10.914 27.86 28.226 2.7 52.34 1.33 85.594 4.56 26.062-17.95 44.8-5.92 59.789-24.47 5.867-25.91 11.742-51.87 26.648-80.44 14.899-28.43 38.719-59.6 62.867-90.78l-28.238-2.91c-48.449 9.16-99.992 37.77-147.453 91.05m-79.934 255.83c-14.992 13.44-30.39 26.94-46.55 47.5-16.317 20.56-37.473 46.05-50.786 75.76-6.918 15.87-16.605 34.09-15.828 47.74-.16 7.9.133 11.81 4.746 20.15 13.246-2.25 26.407-4.43 45.965-10.49 19.32-6.22 45.047-16.31 70.692-26.42l27.308-24.39c1-22.06 2.086-44.25 6.25-67.46 4.004-23.24 11.074-47.61 18.195-72.02-12.867-1.64-28.511-2.57-38.007 4.24-8.66 4.52-15.871 5.85-21.985 5.39m-194.179 593.31 14.867-2.91c26.351-19.96 52.91-39.82 70.57-55.77 17.395-16.11 26.184-28.05 34.973-40.14 5.949-56.43 11.902-112.68 17.898-169.05 21.774-24.34 43.711-48.89 60.488-65.43 16.696-16.59 28.223-25.4 39.758-34.19l-7.414-9.57c-34.719 16.11-66.355 39.17-96.332 72.1-29.851 32.9-58.203 75.62-81.683 127.92-23.606 52.25-42.223 114.09-53.125 177.04m59.164 322.6 13.359 10.29c5.34-4.41 10.578-8.66 19.941-21.31 9.29-12.73 22.196-33.81 35.27-54.72-6.172-49.27-9.164-99.2-8.578-134.38.547-35.22 4.461-55.9 10.441-73.89 6.043-18.14 13.828-33.9 24.028-47.93l-3-10.31-17.524 14.11c-27.648 50.82-55.168 101.6-67.57 154.62-12.235 53.04-9.32 108.24-6.367 163.52m102.086 198.49c2.91 19.46 3.125 27.74 3.535 36.14 8.484 12.13 5.871 18.72 9.996 29.52 1.406 6.82 9.695 18.57 17.898 16.14 11.075-25.4 22.567-48.79 35.508-67.84 1.379-16.24 18.567-39.97 20.617-56.84 1.075-13.76 2.242-28.17-10.168-41.12-8.496-10.9-9.656-17.27-10.449-26.78-5.449-10.01-11.062-19.85-17.109-29.28-5.992-9.39-12.282-18.46-17.074-25.21-7.817-11.02-11.774-16.23-21.813-28.92l-14.066 14.81c-1.254 23.53-2.579 47.14-4.293 63.55-1.578 16.49-3.828 25.92-6.114 35.32 5.321 30.51 10.657 61.18 13.532 80.51m102.336-187.5c10.316-27.71 20.843-55.38 22.925-98.44 1.965-43.01-4.574-101.54-11.109-159.94l-8.035-5.06-11.242 8.8c-.954 13.32-13.493 24.98-18.27 39.82l-14.207-1.37c-14.527-20.24-14.82-37.39-32.383-50.91-11.66 18.17-3.664 39.89-11.156 53.05 4.5 35.42 10.984 70.76 16.695 93.63 5.614 22.87 10.532 33.21 16.071 41.98 5.449 8.87 11.855 16.16 18.937 22.23-.793 6.59 1.746 12.21 7.824 18.62 10.618 11.67 11.032 16.12 10.739 25.77zm37.75 293.66c10.699 22.45 21.734 44.86 31.14 61.11 9.246 16.29 17.235 26.39 24.903 36.39 3.246 8.84 7.574 17.19 16.734 29.68 9.031 12.53 22.855 29.17 33.558 40.05 10.821 10.97 18.891 16.16 25.434 20.3 14.859 8.92 35.844 22.71 60.082 39.81 17.266 1.65 33.215 3.31 42.789 4.41-1.578-19.76-4.543-38.76-9.949-49.31-3.789-8.01-8.492-15.04-17.195-20.8-25.231-59.28-56.2-116.17-86.68-159.58-30.309-43.54-60.031-73.44-77.762-90.73-17.828-17.18-23.398-21.61-29.144-26.1-5.582-4.55-11.246-9.18-16.903-13.54-3.832 10.3-7.742 20.46-7.035 41.94.41 21.34 5.289 53.81 10.028 86.37m208.914 471.49c32.019 78.2 76.308 169.47 133.222 252.63.84 1.92 1.922 1.17 2.742.5 20.821-22.88 11.329-31.42 20.075-58.61-17.657-27.67-33.313-56.49-49.047-91.24-15.817-34.53-31.594-74.92-46.039-113.6-14.403-38.51-27.489-75.47-36.266-104.49-9.027-29.1-13.906-50.19-18.609-62.03-4.918-11.98-9.535-14.81-18.438-19.73-8.961-4.81-21.941-11.95-29.101-15.74-7.461-3.67-8.914-4.26-10.493-4.7-2.417-.88-4.667-1.81-7.128-2.6 2.546 71.45 26.699 140.36 59.082 219.61m211.91 314.07c2.531 17.9 6.531 28.8 10.562 39.7 73.779 96.22 154.469 187.22 237.729 268.25 83.27 80.89 168.94 151.82 248.01 208.31 79.21 56.41 151.66 98.34 215.94 128.08 64.11 29.86 120.32 47.3 170.02 56.68 49.96 9.21 93.34 10.29 136.14 4.58-72.9-76.31-145.79-152.72-187.85-195.8-42.21-43.04-53.45-52.82-64.52-62.48-70.49-31.07-140.85-62.25-230.39-130.49-89.77-67.95-198.76-173.22-307.58-278.34-17.4-6.74-34.72-13.97-50.29-21.12-15.74-7.08-29.56-14.16-55.46-26.5-25.8-12.41-63.53-30.32-84.23-40.03-20.97-9.72-25.26-11.38-29.425-13.14-4-1.74-8.242-3.34-12.402-5.09.707 24.76 1.5 49.66 3.746 67.39m1338.271 786.23c108.2 3.01 233.83-6.98 357.31-22.18-5.86-9.25-14.31-10.82-20.13-12.17-7.43-1.48-23.52-3.62-27.25-6.89-4.89-3.04-7.39-4.89-10.62-8.75-52.48 9.36-104.5 18.56-202.68 19.81-98.09 1.07-241.8-4.78-385.48-12.93l-21.44-1.29c97.34 23.62 194.79 41.21 310.29 44.4m425.33-61.99c12.17 1.58 29.9 3.86 53.3 7.12 112.76-26.13 221.92-66.38 335.47-125.38 113.75-59.1 231.89-137.12 341.23-228.46 109.65-91.16 210.49-195.78 299.34-309.82 9.33-21.66 16.5-44.18 20.72-67.7 4.39-23.51 6.15-47.94 6.83-62.02.49-14.01.24-17.48-.35-20.96-.33-3.63-.58-7.08-.91-10.74-30.04 25.58-60.12 51.01-99.59 73.84-39.22 22.9-87.66 43.04-136.12 63.3l-15.76-1.52c-15.12 11.41-30.55 22.84-40.19 33.13-9.93 10.16-14.24 19.08-18.48 28.23-86.29 70.86-172.54 141.8-265.68 204.55-93.29 62.62-193.7 117.07-294.03 171.38-50.72 50.06-101.52 100.06-139.88 139.03-38.56 38.97-64.71 66.95-91.1 94.96 14.76 6.44 32.99 9.53 45.2 11.06m-1027.01-3282.8c-1.29-6.15-3.62-14.67-6.16-23.09l-12.28-8.44c-5.28 14.29-11.28 28.26-16.65 38.95-5.58 10.59-10.24 17.8-17.77 31.62-7.46 13.65-17.7 33.98-27.36 54.58-18.86 16.56-37.8 33.34-49.71 43.88-11.95 10.7-16.73 15.42-21.39 20.09l-8 7.84c36.26-17.07 72.73-35.54 99.21-54.1 24.11-16.96 39.76-34.39 55.33-51.63l13.15-24.03c-4.07-13.37-5.74-22.64-8.37-35.67M1616.27 921c-8.49 3.02-18.64 5.711-29.22 8.488-19.44 4.992-38.05 9.703-51.54 17.364 1.47 33.289 3.33 66.428 5.58 92.838 2.04 26.35 4.29 45.91 6 67.73 1.41 21.99 2.29 46.22 2.41 70.48 11.2-7.32 20.81-16.48 36.43-36.41 15.73-19.95 37.18-50.66 50.57-79.11 13.42-28.6 18.92-54.88 22.41-80.411 3.41-25.61 5-50.188 4.25-74.918l-13.99-5.883c-10 11.094-19.4 14.66-32.9 19.832m-276.55 458.67c11.7-3.29 19.82-5.45 44.33-23.6 20.61-15.03 52.46-41.56 84.43-68.18 3.92-36.33 5.09-73.07 3.42-99.67-1.58-26.66-6.16-43.19-8.74-52.26-2.58-9.01-3.3-10.58-3.87-12.29-1.3-3.27-2.66-6.49-3.92-9.68-11.44 36.64-23.14 74.32-30.85 93.86-7.5 18.52-10.74 20.66-17.32 31.98-6.33 11.14-15.82 31.49-24.15 52.26-11.61 21.71-18.98 41.06-26.02 58.05-4.11 9.59-9.11 20.47-17.31 29.53m-33.27-303.08c-22.4 11.8-44.04 23.36-61.78 37.14-.54 19.28-.92 38.69 7.99 68.39 8.96 29.58 27.4 69.47 45.8 109.38l13.32 10.37c24.81-46.08 44.46-95.33 55.54-138.56 10.95-43.36 13.24-80.82 14.19-102.72.79-21.9 0-28.16-.62-34.54-.66-6.2-1.16-12.35-1.82-18.7-.1 1.31-.51 2.54-1.09 3.7-5.08 8.26-12.16 10.69-21.24 18.73-10.53 8.36-4.58 19.43-22.73 30.81-6.87 4.81-17.31 10.5-27.56 16m-105.83 441.05c8.91-3.91 15.53-6.66 32.56-22.15 14.49-12.91 36.35-35.49 58.04-57.82l1.66-15.09c-4.08-11.54-4.66-16.01-14.74-37.09-5.62-12.39-15.06-31.61-24.23-50.7l-18.4-5.16c-5.91 44.49-11.82 89.2-17.37 119.88-5.53 30.59-10.19 47.5-16.02 64.1zm-161.11-180.32c2.62 21.54 6.24 31.72 19.73 63.95 6.5 16.38 15.74 40.76 24.49 65.17l17.55 28.78c12.25 12.47 11.8 27.15 23.03 34.84 6.04 6.47 11.54-2.54 17.03-6.1 5.33-71.42 10.82-142.72 11.91-187.94 1.33-45.19-1.5-63.84-4.58-82.72-8.91-14.3-6.75-23.41-10.99-35.67-2.33-7.43-4.34-10.71-6.67-14.57-19.23 43.91-50.29 88.66-91.5 134.26m-51.459 300.55c.418-42.73-4.75-81.6-9.828-120.53-2.164-4.82-4.203-9.65-10.196-21.18-5.836-11.63-15.57-29.8-25.273-48.27l-17.574-11.72c-13.524 28.35-26.973 56.57-40.383 78.02-13.484 21.56-26.731 36.41-40.289 51.19.32 17.65 2.871 35.13 8.234 53.13 16.196 53.49 56.203 110.17 123.981 155.79 5.625-46.86 11.164-93.61 11.328-136.43m-176.446 422.14c13.415 56.6 26.942 113.26 32.567 153.52 5.824 40.31 3.781 64.38 1.582 88.37-10.91-1.93-16.492-3.6-32.223-10.5-7.832-3.39-19.32-8.25-28.148-11.18-9.621-3.24-15.281-4.44-22.942-4.8l-1.796 10.16c7.503 21.56 15.117 43.25 21.742 61.23 6.414 17.91 11.824 32.1 22.394 60.98 10.489 29 26.485 72.56 42.305 116.21l-1.512 13.2c-15.562 11.24-27.344 8.04-44.203 14.29-15.281-.82-23.574-1.76-39.219 7.41-.457 26.55-1.168 53.01 3.703 77.21 5.204 23.94 15.946 45.62 26.727 67.43 8.293-11.75 16.535-23.51 22.106-32.08 5.625-8.48 8.535-13.55 14.074-22.02 5.578-8.52 11.992-21.92 22.238-32.11l15.148-15.24c-2.164-52.12 2.79-104.35 20.399-174.23 17.574-69.79 47.965-157.3 68.441-213.7 20.817-56.47 31.731-81.69 62.202-155.32 30.55-73.67 80.14-195.64 107.75-277.95 27.22-82.33 32.14-125.16 29.05-167.93-21.77-14.26-43.17-28.85-57.74-39.01-14.58-10.13-22.02-15.98-26.39-19.56-7.12-5.52-4.8-3.68-13.95-11.88-.5 41.6-2.76 82.37-10.33 140.47-7.57 56.15-21.15 128.43-34.51 200.63l-11.457 7.62c-37.129-38.49-68.019-80.97-101.328-110.57-4.324 40.72-5.742 81.45-3.82 131.82 1.953 48.95 8.496 107.35 15.148 165.49-5.652.19-11.246.48-27.726-2.54-16.071-2.94-43.297-9.09-70.282-15.42m7.922-291.71c-8.828-17.75-18.238-34.96-25.316-46.23-6.914-11.23-11.246-16.43-15.941-20.54-8.622-7.2-14.454-9.99-18.579-11.52-9.453 23.91-18.777 47.72-28.597 65.65-9.656 17.97-19.731 30.08-29.723 42.16-5.414 19.56 18.024 38.25 8.906 55.3 15.817 26.61 31.559 53 45.543 71.62 13.828 18.55 25.981 29.16 37.887 39.87 5.41.3 10 3.66 15.57 8.54 9.457 8.48 13.442 10.1 21.313 11.36 3.164-43.42 6.34-86.89 4.328-122.95-1.75-35.99-8.574-64.69-15.391-93.26m-42.05 454.58c1.199-20.52-1.036-40.88-8.914-70.16-7.579-29.06-21.067-66.82-37.258-95.52-16.282-28.61-35.52-48.41-46.715-59.32-11.031-11.05-14.031-13.18-16.817-15.42a355 355 0 0 1-8.492-6.73c-5.293 38.44-10.703 76.96-16.992 105.04-6.199 28.08-13.359 45.55-20.519 63.19 6.125 8.23 11.316 13.32 18.726 17.67 17.324 12.07 34.309 22.13 40.969 31.88 22.988 7.51 45.969 15.16 61.957 20.02 15.898 4.91 24.98 7.19 34.055 9.35m-34.774 201.47c-11.398-34.34-22.855-68.58-40.828-95.09-18.152-26.37-40.258-49.04-67.617-63.47l-23.735-12.69-13.199 2.97c-1.203 20.74 1.746 37.25 7.625 63.47 2.922 13.63 6.207 30.75 7.696 45.01 1.296 14.29.796 25.73-1.375 36.93l11.832 29.52c26.601 16.96 53.367 33.93 78.48 44.67 25.227 10.64 49.164 15.02 72.93 19.5-.453-4.28-1.035-8.71-4.16-18.06-3.243-9.29-8.989-23.7-15.024-37.96zm-1.363 296.69c-14.531-43.66-33.727-86.07-53.379-116.81-19.441-30.8-39.043-50.22-50.711-61.28-11.406-10.77-15.027-13.41-18.477-15.88-3.418-2.46-6.918-5-10.328-7.53-3.496 5.67-6.41 11.81-9.082 20.28-2.531 8.37-4.91 19.08-7.531 30.66-4.914 22.83-10.527 45.75-19.602 61.97l13.282 28.82c11.32 9.22 22.359 18.23 47.078 34.44 24.39 16.16 62.531 39.22 100.629 62.22 12.113-13.31 2.207-27.38 8.121-36.89m-231.731-785.18-14.824 4.38c-7.191 4.75-7.91 12.87-10.902 18.14-4.996 10.72-7.16 16.75-15.735 20.94-2.296 22.48-4.746 44.89-6.171 59.27-1.489 14.36-2.153 20.8-2.739 27.08 1.871 10.4 3.489 20.97 5.328 37.67 2.207 16.76 4.539 39.78 6.289 55.61 1.782 15.98 2.821 24.81 6.286 35.05 3.664 10.26 9.949 22.38 17.644 33.34l10.254-5.18c27.598-41.1 51.234-85.23 65.688-120.71 14.449-35.64 19.988-62.55 21.691-87.56 1.621-25.08-.453-47.95-6.117-70.01l-9.707-5.05c-10.199 5.93-12.899 12.37-16.399 17.33-7.035 11.72-19.234 32.65-26.351 37.12l-22.821-12.44c6.418-16.74 7.415-32.26-1.414-44.98m96.836-258.28c2.293-12.02 5-26.79 6.2-39.71 1.296-13.05 1.218-24.24.96-30.46-.25-6.34-.578-7.57-.75-8.8-.281-1.17-.574-2.38-.789-3.79-11.953 14.7-21.437 31.36-28.769 51.69-7.402 20.31-12.57 44.22-14.238 76.12-1.832 31.8 0 71.58 5.328 110.61l13.328 1.38c26.812-26.89 53.578-53.91 70.398-78.48 16.692-24.58 23.352-46.78 30.024-68.96a40 40 0 0 1-1.379 1.79c-25.61 12.56-33.516 3.61-49.668 25.01-13.113 17.58-22.27 19.47-34.649 15.92-2.578-15.71 0-30.35 4.004-52.32M741.5 1447.77c.922-8.98 2.168-21.08 3.258-31.93 2.152-20.16 3.902-38.04 6.066-59.25-9.816 10.14-18.312 21.7-25.89 35.68-7.664 13.91-14.657 30.44-22.563 61.61-7.707 31.1-16.746 77.24-23.148 123.25l24.484 2.93c6.066-2.18 11.449-5.31 20.555-13.05 9.25-7.73 21.984-20.01 32.691-30.23 18.192-17.47 29.723-27.51 39.039-46.18 8.621-15.47 18.031-31.71 27.231-41.77l-3.696-8.96-14.16.77c-1.66 2.22-3.664 4.28-6.164 6-12.109 7.7-29.555 13.53-31.348 24.94l-28.851-2.89c.707-5.93 1.418-11.87 2.496-20.92m248.637-291.91c1.871-6.52 3.117-9.49 6.156-18.25 3.121-8.89 8.037-23.58 10.577-33.2 2.83-9.65 2.91-14.25 2.32-18.76l-15.569-1.44c-17.398 10.18-34.875 20.51-46.707 28.85-11.742 8.39-17.973 14.81-24.062 21.33-24.028 38.76-48.129 77.6-62.114 113.51-14.027 35.91-17.984 68.93-22.148 101.95 29.098-7.45 58.242-14.88 88.34-30.25 29.984-15.36 60.957-38.7 91.76-62 6.61-8.8 12.98-17.66 20.24-31.05 7.07-13.43 14.9-31.5 22.73-49.39l-4.5-14.81c-15.32 6.21-30.77 12.38-40.47 16.91-9.82 4.6-13.74 7.42-17.772 10.45l-15.617-7.42c2.418-9.95 5.168-19.94 6.836-26.43M1240.6 915.25c7.4-13.73 20.6-33.031 33.62-52.469l-16.31-5.941c-20.23 7.828-43.05 8.68-60.49 18.539-2.79 4.699-6.16 9.121-10.79 13.66-12.24 11.711-24.97 18.75-36.46 23.172-17.15 25.961-32.23 53.34-41.63 74.379-9.42 20.91-12.96 35.36-14.54 49.1-1.71 13.52-1.29 26.39.8 38.93 19.64-3.26 40.05-10.83 61.37-21.48 4.82.37 9.48.74 24.05-2.78 14.58-3.58 38.68-11.09 63.03-18.54 6.42 0 14.99-5.61 20.07-9.49 4.41-3.39 14.48-11.53 24.9-17.9 6.32-3.71 11.4-5.828 16.94-7.399 1.38-12.832 15.07-31.871 14.69-43.5l-8.82-11.031c-28.73 2.168-55.2 5.18-73.06 13.281l-8.78-11.113c1.91-7.938 3.9-15.789 11.41-29.418M1554 710.621c-1.5-.133-2.96-.371-5.87-.641-2.87-.289-7.17-.691-11.15-.992-7.21-.816-13.71-1.297-21.45-1.929-28.19 17.211-56.37 34.429-80.27 58.421-23.98 23.77-43.88 54.329-63.66 84.79l5.13 8.82c43.05 3.89 85.76 7.519 119.07 7.832 33.26.289 56.7-3.07 80.22-6.383 12.83-9.359 21.94-15.707 30.85-20.769 10.83-6.54 22.52-16.731 26.81-26.372-12.27-2.687-24.51-5.359-43.75-4.886-19.19.297-45.34 4.109-71.32 7.718l-8.99-11c3.08-31.679 32.64-59.601 44.38-94.609m216.15 313.019 20.65 35.49c6.92-1.71 14.32-7.41 19.91-14.49 11.02-14.29 24.3-33.84 37.71-41.65 6.42-19.939 12.78-39.81 19.07-53.521 6.41-13.699 12.91-20.938 19.4-28.387 10.66-27.691 18.86-56.301 22.82-78.434 3.95-22.136 3.65-37.929 3.15-46.546-.29-8.532-.57-10.082-.82-11.551-.34-1.41-.58-2.93-.92-4.442-14.28 5.313-28.6 10.621-38.81 15.051-10.32 4.531-16.31 7.988-22.48 11.559-2.44-.309-4.95-.559-12.15.312-7.32 1.059-19.4 3.278-31.22 5.59-9.58 15.25-18.99 30.539-25.06 65.68-6.21 35.219-8.58 90.187-11.25 145.339m19.24-289.288c26.89-3.832 51.87-10.282 70.81-27.293l-5.16-10.297c-8.87-7.203-13.37-9.082-32.93-13.473-12.4-2.5-31.31-5.687-50.54-7.961l-15.32-21.398c9.28-14.301 15.53-21.719 34.39-44.192 9.49-11.449 22.97-28.308 36.47-45.047l-9.62-5.23c-41.43 13.008-82.48 39.41-121.81 87.199-18.33 22.828-35.27 49.668-48.84 78.121 14.99 2.918 30.31 5.938 54.12 7.59 23.6 1.598 56 1.848 88.43 1.981M3842.58 2584.46c4.59-44.64 3.77-95.82-4.45-153.43-8.29-57.57-24.09-121.73-47.33-186.59-23.3-65.05-53.77-130.63-87.01-188.15-33.4-57.4-69.18-106.35-109.81-151.13-1.93-4.51-4.92-8.57-11.42-13.52-6.41-4.8-16.41-10.72-34.04-18.43-17.68-7.53-43.07-16.8-84.95-28.51-41.69-11.78-100-25.98-162.87-38.83-63.04-12.98-130.23-24.47-197.67-33.86l-355.86 470.85 30.15 77.23c-2.3 10.6-16.79 68.77-16.64 73.27l-56.51-143.21-378.47.15 6.65-41.45 366.51-.18 364.81-485.05c-5.25-29.39-14.49-57.86-32.99-94.74-18.38-36.79-45.47-82.1-90.76-141.04-45.45-58.93-108.9-131.63-176.25-200.22-123.75-30.68-251.22-46.93-367.73-45.78-116.62.93-222.12 19.28-280.91 30.75-58.69 11.52-70.69 16.43-82.71 20.91-11.91 4.47-23.95 8.53-36.02 12.56-68.03 84.8-135.72 169.68-178.81 239.09-43.01 69.3-61.41 123.14-79.73 176.92l331.36 485.5-.34 1.1h32.43l-3.99 41.48h-40.39l-43.38 137.22H1960l52.62-166.36-331.6-488.63c-53-1.19-105.96-2.4-185.48 18.76-79.22 21.07-184.8 64.25-290.34 107.57-18.19 15.79-33.52 34.52-57.74 76.06-24.02 41.76-56.58 106.43-90.14 185.41-33.56 78.93-67.523 172.21-90.543 246.22-22.937 74.08-34.683 128.77-40.093 167.03-5.539 38.31-4.579 60.07.086 81.19 69.523 111.76 138.79 223.49 193.46 293.03 54.75 69.6 94.92 97.03 135.19 124.45l59.19-13.41.04-.29 73.15-20.2-.67 49.96-66.93 19.69.03.64-51.58 13.24c-11.66 82.73-23.27 165.61-28.56 249.03-5.08 83.39-3.87 167.55-2.62 251.81 17.95 34.16 35.92 68.37 77.8 118.27 41.98 49.8 107.84 115.35 173.78 180.84 67.37 49.62 138.56 94.73 191.34 122.87 52.71 28.19 87.39 39.49 119.66 45.94 32.14 6.63 62.03 8.54 91.5 5.37 29.31-2.85 58.12-10.52 85.01-22.58 77.48-22.75 155.04-45.7 217.83-71.13 62.77-25.58 110.98-54.05 159.02-82.42l-5.15-562.02-198.42-160.31 10-44.64 211.81 172.57 53.95-40.67.69 51.97-25.7 19.63.92 562.67c65.31 41.55 130.85 83.14 212.79 116.98 82.1 33.91 180.74 59.95 279.33 86.31 146.14-79 289.34-163.68 381.53-223.19 92.16-59.53 133.14-94.01 160.39-120.42 27.36-26.43 40.78-44.87 50.84-65.14 21.79-110.05 16.11-69.75 16.11-162.75 0-3.66 45.64-10.61 45.55-14.2 17.99-6.76 34.08-15.01 49.37-25.82 16.92-11.86 32.97-26.38 47.78-43.88 14.66-17.53 28.18-38.15 39-62.47 10.72-24.39 22.52-56.21 28.03-101.66 5.56-45.76 9.51-216.8 8.2-319.98-.27-23.43-3.44-76.41-3.5-101.55 12.56-14.81 6.84-13.07 17.09-25.49 44.22-53.65 64.46-81.81 79.36-115.15 14.9-33.16 24.75-71.43 29.2-116.06m21.4 1002.66c47.72-82.09 95.51-164.1 131.23-248.52 36.08-84.48 60.12-171.38 84.18-258.38l-15.82-13.04-1.17 1.8c-14.29 11.42-34.22 10.44-39.98 15.6-29.96 91.5-60.1 182.58-88.65 251.69-28.38 68.96-55.29 115.93-82.01 162.89 1.01 3.72 1.33 7.59 1.17 14.25-.16 6.7-1.17 16.21-2.34 26.8-1.9 20.09-3.97 42.3-5.73 61.5zm294.85-645.34c29.08-30.94 53.12-66.8 70.43-104.31 17.52-37.61 28.1-77.12 31.97-117.28l-3.71-4.36c-44.79 37.25-89.86 74.25-124.16 123.88-34.63 49.46-58.46 111.51-82.36 173.68l6.58 5.81c37.56-20.17 72.13-46.45 101.25-77.42m82.62-974.29c-.53 14.14-1.02 28.19 4.59 52.66 5.46 24.39 17.53 58.89 29.21 93.51 5.08 4.54 9.81 9.26 17.48 19.62 7.66 10.28 17.9 26.49 28.38 42.31 13.32-43.54 26.82-87.31 31.31-122.56 4.49-35.05.18-61.79-4.06-88.42-3.26-4.47-4.59-9.15-8.69-15.98-4.65-6.45-9.14-8.89-14.65-10.1-3.32-.61-6.89-.67-7.38-.61-3.58 14.96-4.44 29.25-8.34 42.09-7.33.23-16.17-7.18-19.5-13.85-6.64-11.89-17.14-22.95-30.72-25.18zm-9.61 577.99c-10.55-17.84-4.65-29.25-16.14-40.32-3.75-3.17-5.07-3.97-8.24-5.49-2.25 2.98-4.75 5.82-10.16 10.78-5.39 4.85-13.82 11.79-22.42 18.74-21.97 29.71-43.79 59.42-62.17 91-18.32 31.62-33.06 65.1-47.71 98.63l4.39 8.81 27.99-1.48 11.17-11.76c14.42 4.16 28.64-14.72 45.71-14.76 23.32-17.78 46.62-35.45 61.95-51.64 15.18-16.29 22.36-31.03 29.55-45.74 4.59-18.4-17.99-39.73-13.92-56.77m-75.18-341.87c-20.8 31.32-45.21 73.63-69.59 115.98l-3.03 26.57c-15.09 17.25-11.87 31.11-27.89 37.58l-2.89 28.08c-.17 1.87-1.5 3.98-3.01 6.23-9.49 12.98-16.17 21.96-.74 30.68 14.75-4.08 28.91-10.06 44.55-19.82 33.05-19.74 77.19-63.07 96.45-85.12 9.63-11.27 11.13-15.43 16.05-23.19 5.06-7.96 13.5-19.76 22.11-31.23l1.7-12.56c20.55-19.49 39.45-37.61 43.52-47.36-.32-9.54-9.38-23.35-15.88-33.94-3.81-6.1-6.94-10.39-11.74-18.88-4.82-8.44-11.66-20.78-18.07-33.45l-16.34-11.83c-17.21 20.55-34.54 40.9-55.2 72.26m-94.65-163.77c-8.92 35.59-18.01 71.23-22.81 96.31-4.92 25.11-5.76 39.65-6.58 54.21 15.49-1.33 31.7-17.36 50.27-35.21 17.91-17.58 37.05-37.81 49.3-42.29 4-6.82 7.83-13.76 15.15-24.02 7.27-10.29 17.74-23.7 28.32-37.11 0-43.44-.09-86.82 2.84-116.7 3.22-29.87 9.41-46.31 15.56-62.7l-25.08-20.63c-27.61 52.8-55.13 105.4-73.02 136.84-17.87 31.34-25.88 41.33-33.95 51.3m-22.5-411.78c-1.81-9.01-1.42-15.34 1.02-24.98-11.64-18.23-25.9-13.2-33.4-23.87-1.17-1.38-2.09-2.8-2.66-4.29l-15.56-1.48c-15.59 123.41-18.09 247.9-8.07 373.45 8.55-5.61 16.95-11.19 29.55-25.84 12.4-14.85 29.12-38.82 45.76-62.83 8.26-21.43 16.51-43.13 20.82-59.26 4.28-16.33 4.53-27.12 5.02-38.04-4.69-11.55-9.33-23.03-13.63-34.98-8.11-20.59-14.45-40.96-22.52-50.75 4.69-16.11-2.48-27.55-6.33-47.13m-15.39 1210.49c-.35 5.59 10.16 16.55 18.65 15.97-1.27-9.55 13.73-18.76 17.82-30.41 4.41-8.76 2.16-16.91 2.16-24.92-16.56 10.06-28.47 5.02-37.98 15.62-6.8 8.9-.9 12.32-.65 23.74m-372.6-1617.82c-7.52-13.18-10.84-26.5-16.91-42.56-3.59-8.88-8.09-18.72-13.22-28.34l-30.92-16.93c-9.67 21.46-15.14 44.68-16.51 71.79-1.3 27.24 1.53 58.55 9.93 92.66 10.09 42.59 31.15 89.59 53.77 131.48.52 15.55 26.58 38.92 25.84 55.3l16.15 2.21c10.64-27.83 18.26-52.55 23.24-85.78 4.55-33.83 7.97-74.22 8.07-86.32-.1-6.46-1.17-8.92-2.25-11.17-5.66-8.76-12.99-21.16-13.57-30.77-13.25-17.73-27.5-35.04-43.62-51.57m-249.47-257.289c-4.1-8.39-10.16-20.941-16.07-33.57-13.83-6.043-30.32-5.711-40.69-7.91-7.03-1.133-12.2-2.57-13.77-3.352-10.48 1.012-20.99 4.571-31.15 6.84 4.16 21.403 8.89 42.59 13.67 58.91 4.5 16.361 8.73 27.931 14.98 49.481 6.61 21.61 14.91 53.27 22.87 84.94 6.76 7.91 13.68 15.94 23.54 35.07 10.21 19.14 23.63 49.6 37.03 80.24 9.42 9.75 14.49 18.67 21.23 31.52 7.91 15.13 17.91 31.85 28.87 39.28l15-7.43c2.34-20.49 4.82-40.96 7.42-59.37 5.51-36.57 11.33-76.16 16.74-124.36l-15.33-45.82c-7.17-2.19-15.82-10.8-21.29-17.53-4.69-5.44-15.02-18.56-24.75-28.64-5.82-5.95-10.31-9.31-15.31-12.05-8.44-18.428-13.67-28.799-22.99-46.249m-349.06 171.279c26.23 28.16 52.36 56.38 82.11 80.14 29.65 23.78 62.85 42.79 95.82 62.11l14.67 1.44c40.46 26.48 81.01 52.85 112.16 74.06 31.39 21.51 53.19 37.51 74.87 54.1l5.92 4.47c-22.52-52.18-65.4-112.65-82.21-158.86-15.9-24.11-28.48-48.54-48.54-78.09-14.65 13.93-13.41 30.24-14.31 42.11-.34 10.49-1.27 25.52-3.09 44.96l-23.05 5.31c-18.41-17.07-36.58-34.42-51.32-49.13-14.89-14.8-26.14-26.86-46.12-47.37-20.15-20.44-48.53-49.38-64.29-64.96-15.73-15.59-18.38-17.9-21.22-20.24-3.08-2.77-6.09-5.51-9.23-8.34-7.33 5.75-8.44 8.39-12.99 21.87-2.58 8.91-6.25 22.49-9.18 36.42m34.92-301.189c-5.12-6.172-12.19-18.191-22.01-29.562-5.57-6.039-10.72-10.239-16.56-13.539l-32.58-2.95-5.9 14.032c23.83 64.226 47.56 128.359 81.35 182.687 33.81 54.401 77.26 98.931 121.01 143.511l26.72 11.02c2.66-27.07 4.85-48.4 7.17-72.02 3.89-14.43-2.7-25.49-6.52-46.62-3.07-14.51-6.74-33.84-10.41-53.25-8.58-15.469-16.96-31.07-21.88-41.219-4.98-10.223-5.76-15.082-6.93-19.961-24.48-16.191-47.62-28.89-67.93-34.769l-21.31-16.243c-8.24-2.75-17.91-12.679-24.22-21.117m-206.93-64.07c-19.4-6.133-40.34-13.281-49.65-19.223-5.14-3.09-9.88-6.328-12.38-8.41-4.09-3.047-2-1.418-6.59-5.226l-6.64 13.238c2.8 8.238 5.57 16.57 7.91 24.211 2.21 7.699 4.4 14.558 9.63 32.008 5.35 17.312 13.83 45.121 22.33 73.043l8.92 11c13.22 30.277 26.56 60.609 47.44 91.296 20.92 30.772 48.91 61.952 77.29 93.222l13.98 1.44c3.91-51.78-2.67-104.841-17.63-159.451-13.44-32.437-25.26-62.589-34.07-89.25-24.33-13.789-13.9-36.929-27.57-46.468-4.34-2.621-3.5-2.969-11.43-5.082-4.3-1.231-11.78-3.258-21.54-6.348m125.62-119.16-15.55 8.027c-36.71 3.461-71.28 11.41-101.91 28.813l9.63 11.058c33.44 7.172 66.8 14.512 100.06 13.86 33.1-.797 66.27-9.571 99.3-18.289l7.22-13.25c-22.95-22.34-46.01-44.52-64.28-60.489-18.12-16.031-31.54-25.711-44.78-35.441-11.97.941-20.7-6.699-35.45-10.668-6.35-1.453-9.24-1.402-12.56-1.184 6.97 10.371 13.36 17.614 26.56 29.071 14.61 12.851 27.54 25.671 33.19 35.902zm248.05 116.539c-31.11-3.641-60.41-2.91-87.23 5.91l8.15 25.059c19.47 13 39.14 25.961 52.71 33.632 13.48 7.618 21.06 9.911 28.48 12.079 4.49 3.011 9.67 1.019 14.31.281 8.83-3.731 20.32 1.347 21.82 9.359 29.06 3.418 58.13 6.738 79.61 7.379 21.45.449 35.53-2.098 49.53-4.32l-4.32-13.321c-29.58-40.429-59.06-80.707-88.1-107.75-29.24-26.988-58.05-40.449-86.93-53.886l-31-3.043c1.7 7.16 3.26 14.293 11.17 27.152 8.07 12.707 22.33 31.231 36.9 49.68zm296.6 174.191c-18.65-4.301-27.54-3.23-55.37-8.871l-12.56 22.07 3.07 14.149c5.33 8.723 8.16 12.09 22.57 25.601 6.84 6.55 16.8 16.56 26.8 26.78 33.91 16.19 67.79 32.26 92.85 42.28 25.06 9.89 41.47 13.69 57.84 17.56l5.11-9.62c-13.24-36.85-26.17-73.628-42.15-104.058-15.89-30.57-34.47-54.754-53.18-79.102-11.17-3.8-21.43-10.941-32.66-15.73-5.58-2.18-11.38-3.141-14.9-3.57-4.9-.571-2.4-.43-7.81-.571.33 13.59 10.55 29.61 28.87 47.301zm368.11 1122.959c-3.81-29.09-7-58.29-9.05-83.11-1.85-24.94-2.6-45.8-5.27-84.32-2.74-38.71-7.23-95.19-12.34-151.47l-22.82 14.45c-2.73 11.71-13.38 25.56-21.38 33.8-3.23 3.53-4.91 5.06-10.22 10.49-5.33 5.47-14.32 14.89-20.66 22.84-6.33 7.98-9.91 14.77-12.58 21.86l-13.79 3.78c-16.35-36.25-26.52-78.95-41.99-104.59-4.32-42.08-8.56-83.87-14.57-117.85-6.33-34.97-13.24-60.8-22.4-88.26-6.16 3.8-11.98 8.05-16.82 13.59-15.33 19.88-22.72 37.62-38.81 53.35l-11.64-9.78c-13.73-34.18-27.31-68.44-39.98-93.69-12.66-25.17-24.4-41.34-36.06-57.52-3.08-6.52-5.72-13.17-9.31-23.85-3.58-10.65-7.83-25.34-10.57-34.66-3.03-9.38-4.1-13.5-5.27-17.77-1.23-4.55-2.64-9.27-3.91-14.05-4.82.53-8.65.9-12.4 4.72-7.42 14-3.81 30.03-17.58 31.8-6.21 20.27-8.81 40.64-15.23 47.64-2.74 3.95-7 7.74-9.5 9.55 27.08 18.16 51.29 40.22 73.21 66.89 20.97 25.88 39.88 56.09 55.86 91.69 15.99 35.39 29.47 76.17 39.06 124.63 9.57 48.23 15.41 104.12 16.15 159.96 59.59 105.03 110.82 215.28 144.81 311.03 33.94 95.7 50.86 176.86 58.77 228.14 8 51.36 7.26 72.77 11.72 98.47 4.62 25.88 14.35 56.03 27.14 84.88 14.52 9.72 19.53 21.49 24.26 29.85 2.83 5.13 4.65 8.75 9.59 18.35 4.88 9.7 12.89 25.29 19.04 35.69 6.16 10.55 10.51 15.9 15.59 20.46l10.9-6.38c.92-6.83 2.42-13.55 4.33-19.48 4.24-12.96 14.59-32.34 19.99-50.25 3.22-10.39 4.39-18.98 4.39-27.65 1.76-.88 2.99-1.95 4.43-3.55 15.06-22.96 11.39-37.94 29.46-50.39.84-10.55 2.24-17 16.07-33.34 7.75-9.09 20.16-22.26 32.48-35.32l-12.66-6.81c-30.78 17.35-60.5 30.24-89.6 34.22-17.54 15.02-30.4 13.28-38.44 2.83 3.32-37.19 6.38-74.38 14.72-116.55 8.52-42.88 21.65-91.84 36.22-139.02-9.05-.49-21.25 7.63-27.8 11.32-10.25 5.86-17.63 5.31-26.23 3.4-4-35.81-7.85-71.31-2.67-113.82 5.17-42.39 19.47-91.69 33.71-141.01l-16.72-1.81c-16.82 8.34-35.96 34.6-53.63 36.62M3779.3 1544c0 55.31 9.66 90.78 19.18 126.14 1.4 9.81 3.75 19.54 6.05 26.74 4.16 11.3 6.35 16.4 18.32 27.95 14.42-15.72 20.08-25.63 36.39-50.64 9.02-13.71 22.42-33.31 35.99-52.66 2.58-25.08 5.08-50.06 6.92-68.7 1.87-18.7 3.05-31.09 4.22-43.56-7.23-43.89-26.72-87.95-31.12-132.14-9.18-9.63-20.02-17.72-31.56-23.75-18.65-9.43-39.39-14.16-41.31-13.95-1.56-.21-3-.5-4.68-.59-9.22 74.88-18.56 149.9-18.4 205.16m39.9-360.86c-28.89 7.48-56.21-10.08-84.1-8.18.17 8.64 1.6 17.35 3.75 24.24 4.59 12.17 6.89 19.82 31.83 35.04 11.06 6.25 26.45 13.16 40.2 19.13 25.7 10.82 50.06 21.57 79.08 38.94 1.7-.91 3.11-1.18 5.02-.95 13.63 2.92 22.66 10 33.36 4.63-5.14-17.04-10.98-33.93-15.53-46.19-4.43-12.03-8.06-19.18-13.24-33.05-5.33-13.69-12.5-33.92-19.18-54.4-3.96-3.6-8.38-7.32-16.56-17.39-8.01-9.88-20.14-26.18-32.05-42.4-9.51 1.48-19.63-15.93-30.47-16.38-4.34-.69-7.17-.69-9.28-.53l-7.56 12.53 11.76 31.02c1.17.3 2.25.91 3.15 1.6 11.81 18.89 3 28.65 21.13 39.78zm228.75 248.6c-2.54-.08-5.27-.56-9.18-1.87-27.72-11.04-48.89-25.73-70.53-21.01-1.07 10.85-1.56 21.79-1.07 29.93.97 12.67 1.56 17.83 9.31 29.9 29.22 24.59 58.38 49.24 83.44 65.96 24.71 16.73 45.12 25.66 65.53 34.42 1.66-30.4-.16-61.08-4.67-85.58-4.35-24.27-11.25-42.45-20.57-58.51-9.17-16.43-20.82-30.91-34.57-43.41l-21.95-8.13c-4.76 21 19.24 38.59 4.26 58.3m168.26 281.14-29.47-7.46-11.08-21.24c-6.73-.66-12.83-4.37-20.15-10.63-12.97-11.8-20.24-15.35-31.62-14.47-.53 13.91-.12 24.2 9.2 44.79 4.86 11.12 13.02 25.95 22.01 40.11 18.75 16.64 32.48 26.96 49.63 40.15 8.14 6.55 19.23 15.85 29.98 25.46l12.73.8c2.76-36.65 5.65-73.14 3.05-101.12-2.64-27.89-10.65-47.21-18.65-66.54l-8.89-1.42c-5.33 15.33-2.01 30.19-2.25 39.93.67 11.71-.64 24.11-4.49 31.64m62.21 766.08c1.07 6.91 5.33 18.43 7.22 28.13 1.74 9.09 1.74 14.05-.74 23.46l15.49 1.54 8.16-9.48c19.83-33.79 37.08-69.2 46.86-94.54 10.1-25.45 12.83-40.85 13.16-56.06.51-15.25-1.3-30.08-5.5-44.33l-16.08 13.97c-2.73-.2-5.31-.95-7.54-2.31-13.65-15.96-10.43-26.7-20-34.71-4.98-4.19-7.09-5.37-10.9-7.19-11.32 9.87-19.88 20.52-27.4 31.77-2.34 10.32-4.49 20.47-7.07 37.19-2.5 16.76-5 39.86-7.67 63.21l12.01 27.95c-2.25 6.84-1.35 15.07 0 21.4m69.16 196.95c16.5 32.07 30.49 63.63 42.05 94.56l14.1 1.46c25.8-58.31 35.47-119.97 26.88-165.21-4.01-22.48-11.57-42.21-22.47-59.85l-19.16-10.31c-11.6 15.33-23.32 30.65-30.56 41.89-7.48 11.12-10.49 18.19-13.75 25.15-2.81 26.38-2.89 50.9 2.91 72.31m90.84-187.34c14.51 19.42 28.08 37.28 36.97 46.43l15.43 5.88c7.15-21.26 14.16-42.47 14.81-75.81.74-33.33-4.83-78.79-10.32-124.1l-13.14-15.58 1.38-13.15c-14.31-31.47-30.82-61.85-43.96-82.26-13.63-20.35-23.73-30.75-29.55-36.28-5.72-5.72-7.07-6.62-8.3-7.67-1.43-.96-2.52-1.97-3.95-3.15-4.16 14.92-8.38 29.56-10.21 39.28-2.03 9.5-1.76 13.97-1.6 18.45l28.12 19.94c7.33 8.92 13.19 18.95 17.68 30.64 4.43 11.7 7.65 24.9 8.83 40.95.99 16.17.15 35.23-.92 52.75-2.74 33.35-4.98 65.78-1.27 103.68m205.76-223.72c-16.07 3.79-28.48 1.15-49.92-9.59-9.46-4.87-22.27-12.22-34.49-20.47l-13.17 19.29c2.25 9.01 4.32 18.09 8.6 30.36 4.14 12.37 10.31 27.8 16.21 43.24 10.25 48.15 15.64 97.34 16.11 141.06.39 43.86-4.53 82.47-12.38 115.56-7.97 33.24-19.36 60.81-34.53 86.41l-35.63 14.58c-3.91 20.95-7.91 42-20.31 76.44-12.83 34.67-33.99 82.82-55.2 130.96l-11.95 5.88c-7.56-3.79-14.75-8.65-21.37-14.96-13.9-13.73-20.68-23.38-28.75-36.39-10.15-16.45-23.14-35.1-32.46-38.63l-13.98 7.26c-5.92 17.69-11.76 35.51-25.39 57.96-13.58 22.62-34.83 49.96-56.12 77.41-4.74 1.99-9.24 4.8-13.43 9.81-7.07 9.41-9.97 18.32-14.4 28.93-20.66 12.85-41.13 25.85-54.18 35.19-12.83 9.43-17.91 15.45-23.01 21.17-26.46 122.86-67.24 242.35-123.3 359.02-55.97 116.7-126.79 230.35-212.65 336.93-85.92 106.66-186.27 205.98-300.35 298.69-113.66 92.63-240.71 178.68-366.41 242.42-125.7 63.83-250.26 105.54-378.2 133.77-127.98 28.18-259.58 43.06-389.68 42.62-130.31-.49-259.13-16.39-383.36-46.25-124.15-29.95-243.72-73.99-355.46-131.59-111.78-57.82-215.74-129.15-316.24-211.43-100.41-82.24-197.24-175.47-282.39-279.53-85.089-104.08-158.495-219.12-219.558-343.16-60.965-124.04-109.461-257.33-143.184-394.11-18.355-2.82-34.64-37.51-47.543-35.13-20.976-25.45-42.128-50.92-54.035-68.62-12.082-17.77-15.074-27.92-18.199-37.99-3.668-1.47-7.156-3.51-10.273-6.81-13.996-17.14-11.125-41.15-25.16-40.61-22.059 21.15-21.137 39.81-42.793 52.9-8.989 1.62-19.571 2.89-26.637-1.66-7.168-3.15-21.695-19.23-32.563-17.71-1.582-21.85-4.906-43.31-13.906-76.23-8.656-32.19-23.601-75.26-38.547-118.21-1.746-14.39 1.492-21.5.086-40.89l-10.66-9.83c-2.871 1.25-5.836 2.65-8.508 4.55-13.234 10.42-16.555 18.83-22.137 25.76-10.289 15.14-18.648 15.76-28.89 14.98l-11.66-16.35c-27.473-97.39-37.473-197.53-28.766-281.23 4.039-41.27 11.863-79.13 23.856-115.79-9.911-5.92-20.704-6.3-28.602-5.16-5.121.55-15.117 2.69-23.277 3.14-7.407.2-10.914-.59-18.731-4.44 6.996-85.34 14.156-170.88 27.813-229.41 13.902-58.73 34.386-90.58 54.742-122.59l-2.535-8.34-26.063-7.39-18.488-26.91c1.418-13.01 2.789-25.99 11.496-54.05 8.695-28.05 24.516-71.01 40.375-114.11 28.531-36.86 46.094-74.79 77.566-112.98 2.539-13.39 23.52-23.24 23.153-36l-22.067-22.22c4.371-27.03 8.614-54.06 26.352-93.11 17.558-38.88 48.711-89.64 79.683-140.44 7.739-7.46 15.071-15.15 21.27-22.34 12.328-15.19 26.105-33.1 43.922-53.29 5.039-2.5 10.156-4.94 15.742-10.64 5.656-5.74 11.992-14.56 18.149-23.54l-2.418-8.59c-21.063-9.28-45.043-13.16-70.516-15.22v-30.97c14.73-18.52 30.055-36.53 42.293-49.44 12.406-12.98 21.613-21.07 33.18-32.83 11.699-11.68 25.769-27.01 41.093-42.43 15.149-15.45 31.641-30.729 64.864-51.581 33.05-20.801 83.011-47.328 134.39-70.461-7.578-9.519-15.617-10.617-21.402-12-10.621-2.109-30.977-6.547-34.356-10.347l-3.285-16.36c15.957-24 34.942-45.871 56.043-65.043 21.149-19.117 44.797-35.359 81.227-54.629 36.426-19.211 86-41.441 136.754-60.32 22.24-2.898 44.89-9.301 67.62-19.141l-3.33-12.968c-10.83-12.68-18.98-17.239-34.85-33.219l-12.79-6.031c-5.86-11.84-11.14-23.68-12.14-28.91-3.8-8 5.99-17.11 12.49-27.418 15.72 1.386 27.47-17.161 44.49-9.832 67.33-25.801 134.48-51.59 188.39-63.739 53.95-12.222 94.68-10.75 135.22-9.301l4.33-10.421c-14.9-30.09-35.3-60.508-48.92-83.868-5.78-10.55-8.82-19.441-10.56-28.582l5.52-15.328c7.34-3.34 11.92-5.64 17.92-9.652 7.4-5.16 14.8-8.547 19.39-8.91 100.46-7.59 198.42-8.891 295.63.363l20.31-19.031c-9.52-17.02-18.85-34.012-27.18-56.602-8.16-22.769-15.08-51.019-21.77-79.328l11.7-13.312c84.22 20.25 168.44 40.711 235.71 64.171 67.62 23.379 118.37 50.071 169.12 76.602 10.16 12.066 15.44 18.566 28.51 29.688 5.71 5.16 14.62 13.101 20.79 20.121 6.16 6.918 9.49 12.789 11.81 18.929 7.2 34.5 14.28 68.989 21.73 96.149 7.5 27.179 15.17 47.031 22.81 66.781l12.33 4.469c13.62-9.598 25.94-12.508 45.63-19.457 11.33-4.032 25.65-9.602 39.89-15.34l7.58-10.262c-23.15-25.82-46.55-51.879-61.12-71.012-14.78-19.16-20.77-31.226-26.89-43.519-1.42-5.27-3.34-10.469-4.8-14.117-2.49-6.293-9.95-16.731-14.65-28.762-2.54-6.391-3.49-11.461-3.38-16.621l11.75-15.738c12.7-5.34 26.23.199 35.22-1.942 5.17-4.687 11.78 1.082 17.66 2.821 5.66 15.582 11.15 31.039 24.39 50.878 13.24 19.782 34.05 43.762 54.79 67.692 10.49 3.621 20.78 11.84 33.54 19.89 6.38 3.79 10.34 4.782 18.75 5.02 27.22-22.672 54.54-45.32 74.5-68.801 20.1-23.719 32.91-48.211 45.71-72.859 5.51 3.422 10.87 6.949 14.43 9.43 5.82 3.949 11.76 10.371 23.22 17.691 5.13 3.098 9.91 4.758 14.74 5.629l7.3 18.59c-7.54 13.699-14.78 27.34-26.2 45.14-11.23 17.95-25.21 40.918-41.68 62.141l-17.11 22.168 3.96 12.992 24.54 11.949c13.45-1.582 26.32-7.429 38.85-19.129a197 197 0 0 1 12.16-13.882c6.58-7.129 18.59-16.579 27.49-26.118 8.15-9.082 10.9-15.132 13.85-25.41-.59-11.172 2.99-24.422 6.34-33.652 2.95-8.379 10.29-23.391 14.87-36.16 2.4-6.5 2.99-10.66 3.23-14.668 18.01-28.992 41.06-54.653 69.97-77.77 28.79-23.082 63.7-43.601 121.57-62.652 58.08-19.16 139.45-37.027 221.29-46.91l24.88 2.422c-.47 20.468-14.37 49.648-22.97 68.16-4.98 10.121-7.58 15.09-12.79 25.828-5.33 10.641-13.18 27.043-17.83 39.941-4.53 12.961-6 22.469-5.51 32.102l3.1 8.437c15.71-3.961 31.57-7.75 42.95-12.238 11.33-4.601 18.23-9.57 25.06-14.723 63.48-10.546 127.46-17.046 172.78-18.25 45.37-1.226 71.69 2.782 94.76 8.922 23.22 6.36 43.28 14.739 61.86 26.071l13.08 30.121c-8.92 13.57-18.01 27.09-31.58 44.019-13.57 17.059-32.03 37.571-50.45 58.25l5.98 18.297c67.77 1.703 135.56 3.473 191.78 13.82 56.26 10.411 101.32 29.524 146.21 48.704 8 16.007 28.39 21.57 31.46 34.699-1.76 26.558-43.12 54.398-42.44 80.367 31.21 8.652 62.68 17.383 107.73 38.531 44.63 20.93 103.19 54.332 161.37 87.52 24.38 23.543 42.79 45.441 47.46 63.582-10.58 22.769-26.56 35.961-40.56 64.308 15.27 12.911 30.23 25.821 75.78 57.129 45.23 31.332 121.13 80.782 196.74 130.322l8.75 16.93c7.75 2.92 15.99 9.36 22.93 16.71 10.56 10.7 22.05 27.54 31.03 30.53l-12.91 15.45c-10.8 5.04-21.82 10.09-39.3 16.22-17.3 6.06-41.13 13.33-64.86 20.57l-1.43 13.4c9.67 9.31 19.24 18.6 33.91 28.67 14.55 10.26 34.32 21.32 54.02 32.44 55.37 48.62 110.61 97.14 144.55 134.29 33.97 37.14 46.65 62.86 59.3 88.6l-6.4 15.45c-7.91 4.29-18.23 4.73-27.25 5.93-13.63 1.82-38.3 2.48-44.12 8.21 30.06 25.13 60.19 50.13 100.39 102.82 40.29 52.5 90.45 132.79 140.74 212.99-9.73 15.22 0 29.46-13.24 40.83-16.49 5.52-45.55-4.05-57.19 1.34l-4.1 7.85c5.76 8.39 11.27 16.95 14.9 23.27 3.83 6.41 5.57 10.41 10.1 18.91 4.39 8.5 11.15 21.46 17.05 30.4 5.82 8.95 11.09 13.97 16.99 17.98 5 11.78 9.92 23.4 17.25 42.72 7.23 19.34 16.66 46.08 25.98 73.16 5.87 42.02 11.91 84.07 13.08 112.84 1.06 28.92-2.58 44.52-6.19 60.28" style="fill:#181514;fill-opacity:1;fill-rule:nonzero;stroke:none" transform="matrix(.13333 0 0 -.13333 0 619.107)"/><path d="m1600.3 2936.89 209.41-59.99 12.4-40.58 15.32 77.94-237.13 70.62z" style="fill:#181514;fill-opacity:1;fill-rule:nonzero;stroke:none" transform="matrix(.13333 0 0 -.13333 0 619.107)"/><path d="M1124.02 2401.51h184.52c-.09-32.54.87-65.19 1.83-87.96 1-22.76 2.37-35.74 4-45.36 3.74-17.69 4.03-25.66 19.27-38.64 13.66-7.31 34.68-10.39 53.24 10.32 2.75 7.26 5.79 14.46 7.5 27.3 1.66 12.8 2.79 31.05 2.79 49.38v718.01h197v-629.42c0-39.59 0-79.08-.62-105.34-.5-26.43-1.42-39.43-2.42-52.59-3.62-30.02-11.32-59.68-20.73-81.64-9.4-21.98-20.23-36.44-33.55-49.83-12.95-13.57-28.15-26.07-44.42-36.89-45.55-21.46-96.76-29.3-146.85-26.72-25.51 1.22-50.79 4.92-72.26 10.87-21.57 5.91-38.97 13.87-53.59 23.22-14.19 9.29-25.86 20.2-36.55 33.58-10.78 13.47-21.1 29.63-29.72 50.05-8.83 20.46-16.24 45.25-21.37 76.05-8.07 45.18-8.33 102.37-8.07 155.61m588.97-186.24 183.77 963.67h238.34l184.51-963.67h-201.46l-23.51 188.16H1937.3l-23.52-188.16zm245.05 360.84h115.73l-57.53 418.38m418.86-634.83v963.91h224.36c44.12 0 88.53-1.67 120.36-5.12 31.7-3.57 51.04-8.53 67.52-14.78 16.25-6.27 29.79-13.77 42.87-24.19 13.19-10.44 25.98-23.89 36.72-37.62 10.9-13.88 19.93-27.95 26.98-46.73 14.84-38.45 20.66-96.07 18.65-148.33-1.08-26.85-4.06-52.42-8.75-72.97-9.22-39.3-22.29-64.09-49.02-94.01-12.91-14.21-29.4-28.19-47.13-40.48 18.49-9.33 36.13-22.57 53.12-48.07 7.38-11.5 14.16-24.95 20.16-40.89 5.97-15.95 11.15-34.3 14.72-56.46 3.66-22.01 5.67-47.63 6.49-61.79.94-14.3.64-16.92.94-21.67.58-10.53 3.06-29.64 3.41-47.18.34-20.73.49-55.49 5.24-91.54 2.73-19.87 6.74-38.85 11.4-54.16 4.65-15.24 10.08-26.9 15.75-36.19 5.56-9.2 11.66-16.02 18.65-21.73h-238.63c-6.35 28.3-12.02 49.64-13.34 66.61-.67 8.92-.92 19.94-1.57 27.94-.52 8.07-1.56 13.26-1.42 28.38-.14 24.24 4.31 69.66 3.08 107.38 0 21.94-1.07 44.05-3.22 61.74-2.28 17.9-5.45 31.31-8.92 41.94-3.42 10.48-7.19 17.85-11.84 23.81-12.25 14.05-24.8 18.97-39.46 22.76-21 5.16-46.08 2.63-69.44 3.26v-383.82zm197.68 560.92c20.8 0 53.28-.71 76.39 7.2 14.26 4.46 25.09 11.91 36.03 19.39 4.64 5.45 8.75 11.57 11.97 19.41 8.01 16.85 11.42 45.91 11.58 74.26.08 15.71-.86 30.4-2.83 42.47-3.48 20.07-8.42 33.6-20.72 48.34-10.94 7.46-21.93 14.91-36.21 19.3-14.53 4.59-34.08 6.47-51.01 6.88-7.72-4.46-16.71-3.09-25.2-3.33m495.09-178.49c-1.17 56.99-.19 91.82 1.56 134.96 1.76 43.1 4.34 94.5 7.58 145.94 5.67 35.56 15.18 70.71 25.82 97.07 10.57 26.37 22.23 43.87 35.8 59.9 13.64 16.01 29.3 30.43 46.21 42.4 16.9 12 34.81 21.57 55.04 28.97 38.38 15.07 98.34 20.64 154.12 15.71 26.82-2.53 49.89-7.48 70.1-14.56 20.26-7.08 37.74-16.13 54.55-28.03 16.9-11.86 32.97-26.36 47.81-43.88a264 264 0 0 0 38.93-62.45c10.74-24.42 18.91-52.49 24.41-97.92 5.59-45.77 8.42-108.77 9.44-189.48.72-80.78 0-179.08-3.77-244.48-3.5-65.37-9.67-98.05-16.74-124.12-7.25-25.98-15.23-45.32-25.98-63.91-10.66-18.77-24.04-36.39-40.21-52.93-16.31-16.45-35.55-31.56-56.29-44.03-49.79-23.77-106.91-33.31-162.89-30.4-28.38 1.34-56.11 6.05-82.25 14.67-25.88 8.65-50.21 21.13-70.52 36.6-20.32 15.35-36.98 33.6-50.36 51.41-13.34 17.71-23.65 35.12-32.32 60.45-8.5 25.43-15.23 59.08-20.31 115.53-5.08 56.37-8.48 135.69-9.73 192.58m367.09-57v169.01c0 47.64-1.74 95.26-4.47 127.92-3.01 32.57-7.58 50.1-12.35 67.51-5.99 9.73-12.46 19.1-26.07 27.9-24.14 13.62-53.85 17.9-83.67-5.08-11.66-10.87-15.55-18.91-20.14-31.23-2.58-7.6-5.31-16.97-7.5-30.91-2.34-13.81-4.49-32.01-6.25-58.75-1.56-26.69-2.58-62.09-2.58-97.36v-169.01c0-46.44 1.84-92.73 4.57-124.8 2.84-31.86 7.68-49.56 12.43-67.08 6.15-10.29 12.57-19.87 27.91-29.21 22.61-11.93 46.95-14.04 76.09.09 13.14 8.5 19.22 17.05 24.63 28.1 3.08 6.71 5.35 14.78 7.95 28.14 2.4 13.43 4.72 32.13 6.46 60.48 1.84 28.46 2.99 66.32 2.99 104.28" style="fill:#f03c43;fill-opacity:1;fill-rule:evenodd;stroke:none" transform="matrix(.13333 0 0 -.13333 0 619.107)"/></svg>