<svg xmlns="http://www.w3.org/2000/svg" viewBox="199.83 29.03 681.29 757.82"><defs><clipPath id="a" clipPathUnits="userSpaceOnUse"><path d="M-555.762 202.19h800v-600h-800Z"/></clipPath><clipPath id="b" clipPathUnits="userSpaceOnUse"><path d="M-566.284 136.24h800v-600h-800Z"/></clipPath><clipPath id="c" clipPathUnits="userSpaceOnUse"><path d="M-195.055 461.473h800v-600h-800Z"/></clipPath><clipPath id="d" clipPathUnits="userSpaceOnUse"><path d="M-215.924 490.287h800v-600h-800Z"/></clipPath><clipPath id="e" clipPathUnits="userSpaceOnUse"><path d="M-224.331 500.37h800v-600h-800Z"/></clipPath><clipPath id="f" clipPathUnits="userSpaceOnUse"><path d="M-247.182 522.31h800v-600h-800Z"/></clipPath><clipPath id="g" clipPathUnits="userSpaceOnUse"><path d="M-272.545 541.01h800v-600h-800Z"/></clipPath><clipPath id="h" clipPathUnits="userSpaceOnUse"><path d="M-298.159 555.372h800v-600h-800Z"/></clipPath><clipPath id="i" clipPathUnits="userSpaceOnUse"><path d="M-322.108 565.315h800v-600h-800Z"/></clipPath><clipPath id="j" clipPathUnits="userSpaceOnUse"><path d="M-334.5 569.691h800v-600h-800Z"/></clipPath><clipPath id="k" clipPathUnits="userSpaceOnUse"><path d="M-395.981 551.11h800v-600h-800Z"/></clipPath><clipPath id="l" clipPathUnits="userSpaceOnUse"><path d="M-429.758 564.968h800v-600h-800Z"/></clipPath><clipPath id="m" clipPathUnits="userSpaceOnUse"><path d="M-447.04 576.45h800v-600h-800Z"/></clipPath><clipPath id="n" clipPathUnits="userSpaceOnUse"><path d="M-473.197 570.472h800v-600h-800Z"/></clipPath><clipPath id="o" clipPathUnits="userSpaceOnUse"><path d="M-495.709 544.145h800v-600h-800Z"/></clipPath><clipPath id="p" clipPathUnits="userSpaceOnUse"><path d="M-528.27 546.823h800v-600h-800Z"/></clipPath><clipPath id="q" clipPathUnits="userSpaceOnUse"><path d="M-539.46 540.11h800v-600h-800Z"/></clipPath><clipPath id="r" clipPathUnits="userSpaceOnUse"><path d="M-560.291 524.663h800v-600h-800Z"/></clipPath><clipPath id="s" clipPathUnits="userSpaceOnUse"><path d="M-553.707 484.424h800v-600h-800Z"/></clipPath><clipPath id="t" clipPathUnits="userSpaceOnUse"><path d="M-586.883 478.47h800v-600h-800Z"/></clipPath><clipPath id="u" clipPathUnits="userSpaceOnUse"><path d="M-608.808 471.486h800v-600h-800Z"/></clipPath><clipPath id="v" clipPathUnits="userSpaceOnUse"><path d="M-527.3 163.879h800v-600h-800Z"/></clipPath><clipPath id="w" clipPathUnits="userSpaceOnUse"><path d="M-405.357 148.341h800v-600h-800Z"/></clipPath><clipPath id="x" clipPathUnits="userSpaceOnUse"><path d="M-579.57 345.505h800v-600h-800Z"/></clipPath><clipPath id="y" clipPathUnits="userSpaceOnUse"><path d="M-474.858 447.728h800v-600h-800Z"/></clipPath><clipPath id="z" clipPathUnits="userSpaceOnUse"><path d="M-547.818 233.767h800v-600h-800Z"/></clipPath><clipPath id="A" clipPathUnits="userSpaceOnUse"><path d="M-456.18 167.628h800v-600h-800Z"/></clipPath><clipPath id="B" clipPathUnits="userSpaceOnUse"><path d="M-342.519 171.768h800v-600h-800Z"/></clipPath><clipPath id="C" clipPathUnits="userSpaceOnUse"><path d="M-257.382 242.048h800v-600h-800Z"/></clipPath><clipPath id="D" clipPathUnits="userSpaceOnUse"><path d="M-247.014 408.195h800v-600h-800Z"/></clipPath><clipPath id="E" clipPathUnits="userSpaceOnUse"><path d="M-456.664 501.547h800v-600h-800Z"/></clipPath><clipPath id="F" clipPathUnits="userSpaceOnUse"><path d="M-367.225 454.52h800v-600h-800Z"/></clipPath><clipPath id="G" clipPathUnits="userSpaceOnUse"><path d="M-388.565 474.468h800v-600h-800Z"/></clipPath><clipPath id="H" clipPathUnits="userSpaceOnUse"><path d="M-411.875 486.392h800v-600h-800Z"/></clipPath><clipPath id="I" clipPathUnits="userSpaceOnUse"><path d="M-440.683 471.03h800v-600h-800Z"/></clipPath><clipPath id="J" clipPathUnits="userSpaceOnUse"><path d="M-344.91 261.945h800v-600h-800Z"/></clipPath><clipPath id="K" clipPathUnits="userSpaceOnUse"><path d="M-415.967 240.685h800v-600h-800Z"/></clipPath></defs><path d="M0 0v51.194a23.6 23.6 0 0 1 3.787 2.969c3.495 3.375 7.662 9.488 7.662 19.447 0 7.493-3.19 18.075-18.391 25.939-7.526 3.894-16.494 6.398-23.699 8.409-3.106.867-7.23 2.019-9.078 2.766-5.446 5.339-10.618 11.039-16.079 17.052-22.397 24.673-47.783 52.639-94.606 52.639-46.824 0-72.209-27.966-94.607-52.639-5.459-6.014-10.633-11.713-16.078-17.052-1.847-.747-5.972-1.899-9.078-2.766-7.205-2.011-16.173-4.515-23.699-8.409-15.201-7.864-18.391-18.446-18.391-25.939 0-9.959 4.167-16.072 7.663-19.447a23.5 23.5 0 0 1 3.786-2.969V0c-31.133-35.321-50.03-81.686-50.03-132.469 0-110.699 89.737-200.437 200.434-200.437S50.03-243.168 50.03-132.469C50.03-81.685 31.133-35.32 0 0" clip-path="url(#a)" style="fill:#fff;fill-opacity:1;fill-rule:nonzero;stroke:none" transform="matrix(1.33333 0 0 -1.33333 741.016 269.587)"/><path d="M0 0c-1.424-5.582-4.247-9.385-6.735-11.788a23.7 23.7 0 0 0-3.787-2.968v-51.195c31.132-35.32 50.03-81.685 50.03-132.469 0-110.699-89.737-200.436-200.435-200.436-110.696 0-200.434 89.737-200.434 200.436 0 50.783 18.897 97.148 50.031 132.469v51.195a23.6 23.6 0 0 0-3.787 2.968c-2.489 2.403-5.311 6.206-6.735 11.787-57.685-46.842-94.558-118.321-94.558-198.419 0-141.102 114.385-255.483 255.483-255.483 141.103 0 255.484 114.381 255.484 255.483C94.557-118.321 57.685-46.842 0 0" clip-path="url(#b)" style="fill:#3357a7;fill-opacity:1;fill-rule:nonzero;stroke:none" transform="matrix(1.33333 0 0 -1.33333 755.046 181.652)"/><path d="m0 0 28.335 19.422 4.989-7.278L16.991-5.473l22.29 8.927 5-7.295-28.335-19.423-3.096 4.519L35.154-3.456 9.572-13.966 6.363-9.282l19.038 20.053L3.097-4.52Z" clip-path="url(#c)" style="fill:#fff;fill-opacity:1;fill-rule:nonzero;stroke:none" transform="matrix(1.33333 0 0 -1.33333 260.074 615.297)"/><path d="m0 0 26.275 22.13 3.799-4.51L3.797-4.508Z" clip-path="url(#d)" style="fill:#fff;fill-opacity:1;fill-rule:nonzero;stroke:none" transform="matrix(1.33333 0 0 -1.33333 287.898 653.716)"/><path d="m0 0 24.208 24.374 4.183-4.153L17.642 9.397l19.2 2.429 5.624-5.583-17.229-1.748-6.554-23.05-5.412 5.375 5.665 17.096-7.437-.705-7.315-7.364Z" clip-path="url(#e)" style="fill:#fff;fill-opacity:1;fill-rule:nonzero;stroke:none" transform="matrix(1.33333 0 0 -1.33333 299.108 667.159)"/><path d="m0 0 20.884 27.276 4.681-3.585-9.273-12.114 18.73 4.872 6.295-4.818-16.864-3.94-3.545-23.698-6.057 4.637 3.427 17.682-7.286-1.656-6.31-8.241z" clip-path="url(#f)" style="fill:#fff;fill-opacity:1;fill-rule:nonzero;stroke:none" transform="matrix(1.33333 0 0 -1.33333 329.575 696.413)"/><path d="m0 0 17.349 29.649 18.688-10.935-2.935-5.015-13.599 7.957-3.846-6.573L28.31 7.679l-2.923-4.994-12.653 7.404-4.722-8.073 14.08-8.239-2.923-4.995z" clip-path="url(#g)" style="fill:#fff;fill-opacity:1;fill-rule:nonzero;stroke:none" transform="matrix(1.33333 0 0 -1.33333 363.393 721.348)"/><path d="m0 0 13.725 31.186 5.396-2.377L7.729 2.922l13.418-5.904-2.332-5.299Z" clip-path="url(#h)" style="fill:#fff;fill-opacity:1;fill-rule:nonzero;stroke:none" transform="matrix(1.33333 0 0 -1.33333 397.545 740.496)"/><path d="m0 0 11.281 32.447 5.569-1.936L5.569-1.937Z" clip-path="url(#i)" style="fill:#fff;fill-opacity:1;fill-rule:nonzero;stroke:none" transform="matrix(1.33333 0 0 -1.33333 429.478 753.754)"/><path d="m0 0 8.313 33.331 5.566-1.387 6.044-25.152 5.553 22.259 5.314-1.323-8.313-33.334-5.74 1.429-6.001 24.586L5.315-1.327Z" clip-path="url(#j)" style="fill:#fff;fill-opacity:1;fill-rule:nonzero;stroke:none" transform="matrix(1.33333 0 0 -1.33333 446 759.589)"/><path d="m0 0-.205-9.747 3.226-.066q3.486-.074 4.671.439a4.07 4.07 0 0 1 1.877 1.648q.692 1.135.724 2.659.038 1.874-.871 3.111-.911 1.24-2.337 1.572-1.051.257-4.238.324zm-6.493-28.412.72 34.347 9.46-.199q5.376-.114 6.998-.666 2.494-.823 4.132-3.448 1.637-2.621 1.551-6.723-.066-3.163-1.087-5.298c-.682-1.424-1.529-2.533-2.551-3.333q-1.528-1.198-3.09-1.566-2.121-.446-6.123-.361l-3.844.08-.271-12.955z" clip-path="url(#k)" style="fill:#fff;fill-opacity:1;fill-rule:nonzero;stroke:none" transform="matrix(1.33333 0 0 -1.33333 527.975 734.813)"/><path d="m0 0-5.134 12.343L-7.937-.702Zm12.012-12.581-6.388-.565-3.229 7.549-11.626-1.029-1.711-7.987-6.231-.553 8.298 35.224 6.211.549z" clip-path="url(#l)" style="fill:#fff;fill-opacity:1;fill-rule:nonzero;stroke:none" transform="matrix(1.33333 0 0 -1.33333 573.01 753.29)"/><path d="m0 0-7.028 33.341 5.768 1.215L4.574 6.882l14.345 3.021 1.195-5.663Z" clip-path="url(#m)" style="fill:#fff;fill-opacity:1;fill-rule:nonzero;stroke:none" transform="matrix(1.33333 0 0 -1.33333 596.052 768.6)"/><path d="m0 0-10.653 32.363 5.598 1.844L3.789 7.341l13.925 4.584 1.81-5.497z" clip-path="url(#n)" style="fill:#fff;fill-opacity:1;fill-rule:nonzero;stroke:none" transform="matrix(1.33333 0 0 -1.33333 630.93 760.629)"/><path d="M0 0q2.501-5.273 5.862-7.01 3.36-1.739 6.545-.228 3.186 1.51 3.947 5.179t-1.798 9.07q-2.534 5.332-5.766 7.016-3.236 1.679-6.527.119c-2.197-1.042-3.545-2.77-4.048-5.176C-2.29 6.561-1.693 3.568 0 0m-5.387-2.816q-2.248 4.742-2.572 8.533a16.5 16.5 0 0 0 .438 5.421q.66 2.623 2.084 4.412 1.883 2.396 5.104 3.926c3.886 1.843 7.669 1.903 11.349.171q5.516-2.597 9.117-10.174 3.565-7.516 2.104-13.409-1.457-5.892-7.271-8.648c-3.922-1.863-7.709-1.933-11.362-.219q-5.477 2.578-8.991 9.987" clip-path="url(#o)" style="fill:#fff;fill-opacity:1;fill-rule:nonzero;stroke:none" transform="matrix(1.33333 0 0 -1.33333 660.945 725.527)"/><path d="m0 0-17.594 29.505 5.064 3.021L5.063 3.019Z" clip-path="url(#p)" style="fill:#fff;fill-opacity:1;fill-rule:nonzero;stroke:none" transform="matrix(1.33333 0 0 -1.33333 704.36 729.098)"/><path d="m0 0-19.717 27.786 4.809 3.412L1.459 8.132l11.956 8.483 3.35-4.719z" clip-path="url(#q)" style="fill:#fff;fill-opacity:1;fill-rule:nonzero;stroke:none" transform="matrix(1.33333 0 0 -1.33333 719.281 720.147)"/><path d="m0 0-22.035 26.356 4.526 3.782L4.523 3.779Z" clip-path="url(#r)" style="fill:#fff;fill-opacity:1;fill-rule:nonzero;stroke:none" transform="matrix(1.33333 0 0 -1.33333 747.055 699.55)"/><path d="m0 0 4.213 4.093L19.36-11.513q2.972-3.06 4.113-5.15 1.473-2.75 1.126-5.62-.352-2.871-2.995-5.439c-2.07-2.006-4.32-2.869-6.758-2.588q-3.657.418-7.505 4.356l3.466 4.409q2.128-2.052 3.435-2.479c1.316-.441 2.44-.212 3.376.698q1.413 1.371 1.079 2.889-.337 1.52-3.244 4.513z" clip-path="url(#s)" style="fill:#fff;fill-opacity:1;fill-rule:nonzero;stroke:none" transform="matrix(1.33333 0 0 -1.33333 738.276 645.898)"/><path d="m0 0-12.41 4.968 7.359-11.131zm17.394-.222-4.067-4.962-7.652 2.976-7.398-9.025 4.507-6.812-3.966-4.836L-20.539 7.69l3.952 4.822z" clip-path="url(#t)" style="fill:#fff;fill-opacity:1;fill-rule:nonzero;stroke:none" transform="matrix(1.33333 0 0 -1.33333 782.51 637.96)"/><path d="m0 0-23.857 15.665-4.755-7.242-4.859 3.189 12.737 19.398 4.857-3.191-4.745-7.225L3.237 4.928Z" clip-path="url(#u)" style="fill:#fff;fill-opacity:1;fill-rule:nonzero;stroke:none" transform="matrix(1.33333 0 0 -1.33333 811.743 628.648)"/><path d="M0 0a209.6 209.6 0 0 1-37.299 21.271V55.15C-20.883 47.643-8.596 39.224 0 33.008Zm-51.646 26.986a208.3 208.3 0 0 1-37.3 9.493V70.48c13.946-2.132 26.35-5.494 37.3-9.464zm-51.645 11.253c-6.147.541-12.366.824-18.651.824s-12.505-.283-18.65-.824v33.928c5.967.498 12.178.772 18.65.772s12.683-.274 18.651-.772zm-51.646-1.76a208.4 208.4 0 0 1-37.302-9.493v34.03c10.95 3.97 23.354 7.332 37.302 9.464zm-51.648-15.208A209.6 209.6 0 0 1-243.885 0v33.008c8.596 6.216 20.884 14.635 37.3 22.142zm186.448 40.086c-29.301 28.34-50.52 66.631-101.805 66.631s-72.504-38.291-101.805-66.631c-6.022-5.823-45.934-8.414-45.934-26.058 0-8.469 5.122-12.233 11.45-12.233v-46.898c35.764 33.185 83.652 53.485 136.289 53.485s100.524-20.3 136.288-53.485v46.898c6.33 0 11.448 3.764 11.448 12.233 0 17.644-39.91 20.235-45.931 26.058" clip-path="url(#v)" style="fill:#000;fill-opacity:1;fill-rule:nonzero;stroke:none" transform="matrix(1.33333 0 0 -1.33333 703.066 218.505)"/><path d="M0 0c-102.901 0-186.319-83.417-186.319-186.318 0-102.904 83.418-186.32 186.319-186.32 102.902 0 186.32 83.416 186.32 186.32C186.32-83.417 102.902 0 0 0" clip-path="url(#w)" style="fill:#000;fill-opacity:1;fill-rule:nonzero;stroke:none" transform="matrix(1.33333 0 0 -1.33333 540.477 197.788)"/><path d="M0 0c-5.122 7.595-12.206 14.467-18.865 20.093-8.273 6.958-15.936 11.926-18.504 13.534-3.562 19.161-10.564 34.842-12.203 38.358.767 3.721 3.93 20.127 4.248 40.389 7.011-2.447 13.539-5.747 18.482-8.57.207-.118.405-.234.608-.35C-9.4 76.61.344 44.868.344 10.846.344 7.201.22 3.59 0 0" clip-path="url(#x)" style="fill:#fff;fill-opacity:1;fill-rule:nonzero;stroke:none" transform="matrix(1.33333 0 0 -1.33333 772.76 460.673)"/><path d="M0 0c-12.972.107-30.082 4.062-43.915 8.053a381 381 0 0 0-17.662 5.574c-4.439 1.519-7.084 2.521-7.093 2.521a2.3 2.3 0 0 1-1.662 0c-.009 0-2.655-1.002-7.093-2.521C-90.56 9.107-119.408.15-138.998-.003c-11.1 6.229-19.229 13.16-24.581 18.552-2.719 2.737-4.724 5.075-6.039 6.719a54 54 0 0 0-1.459 1.9c-.146.201-.248.344-.32.446l-.081.212c-.793 2.089-4.19 11.929-4.188 26.778 0 6.668.683 14.354 2.595 22.816a2.34 2.34 0 0 1-.962 2.458s-.045.029-.189.137c-2.191 1.641-21.975 17.15-27.611 54.356 1.91 10.582 4.961 20.192 7.545 27.162a161 161 0 0 0 3.354 8.342c.5 1.144.878 1.965 1.111 2.46.249.167.573.384 1.008.668 6.975 4.616 37.277 23.102 64.266 23.032 1.05 0 1.978.7 2.264 1.713 5.037 17.868 11.35 29.372 16.34 36.379 2.496 3.505 4.662 5.884 6.179 7.371.76.744 1.355 1.263 1.749 1.589.079.066.144.118.207.169.371.082.949.206 1.741.362 4.348.866 14.637 2.604 26.567 2.603 7.955.001 15.18-.771 20.399-1.544 2.613-.385 4.717-.771 6.167-1.059.791-.156 1.371-.28 1.74-.361 2.229-1.788 15.399-13.332 24.479-45.509a2.36 2.36 0 0 1 2.266-1.714c15.397.017 31.939-5.958 44.545-12.004a182 182 0 0 0 15.374-8.3 152 152 0 0 0 4.345-2.727c.436-.286.76-.503 1.01-.67.232-.496.61-1.315 1.11-2.458 2.552-5.839 8.02-19.569 10.897-35.507-2.997-19.798-9.993-33.427-16.217-42.122-3.131-4.372-6.072-7.493-8.207-9.509a40 40 0 0 0-2.522-2.208 29 29 0 0 0-.663-.514c-.146-.108-.193-.137-.193-.137a2.36 2.36 0 0 1-.961-2.456c1.912-8.464 2.595-16.146 2.595-22.818 0-8.486-1.107-15.333-2.206-20.038a62 62 0 0 0-1.499-5.379 37 37 0 0 0-.482-1.363q-.048-.121-.078-.205c-.073-.102-.175-.248-.324-.45C29.877 24.148 19.558 10.968 0 0" clip-path="url(#y)" style="fill:#fff;fill-opacity:1;fill-rule:nonzero;stroke:none" transform="matrix(1.33333 0 0 -1.33333 633.145 596.971)"/><path d="M0 0c-4.366 2.146-9.311 4.256-14.504 5.899-1.798 2.22-8.769 10.633-18.535 19.661-10.996 10.129-25.437 21.083-40.404 24.774-.963 4.512-3.3 8.387-6.181 11.666C-47.356 49.544-19.714 27.786 0 0" clip-path="url(#z)" style="fill:#fff;fill-opacity:1;fill-rule:nonzero;stroke:none" transform="matrix(1.33333 0 0 -1.33333 730.425 311.689)"/><path d="M0 0a52 52 0 0 0 3.483-2.539c4.457-3.537 8.45-8.082 9.879-13.245-19.845-3.43-32.145-13.28-35.553-16.318-3.663.774-15.04 2.924-28.633 2.93-13.59-.006-24.97-2.156-28.632-2.93-3.406 3.038-15.705 12.888-35.546 16.317 1.66 6.004 6.813 11.184 12.056 14.89.434.31.866.605 1.296.894 16.084 4.887 33.146 7.526 50.827 7.526C-33.144 7.525-16.083 4.887 0 0" clip-path="url(#A)" style="fill:#fff;fill-opacity:1;fill-rule:nonzero;stroke:none" transform="matrix(1.33333 0 0 -1.33333 608.24 223.504)"/><path d="M0 0c-2.88-3.279-5.217-7.154-6.18-11.665-14.969-3.691-29.409-14.646-40.403-24.774-9.765-9.029-16.74-17.441-18.536-19.662-5.192-1.642-10.137-3.753-14.501-5.898C-59.906-34.214-32.267-12.457 0 0" clip-path="url(#B)" style="fill:#fff;fill-opacity:1;fill-rule:nonzero;stroke:none" transform="matrix(1.33333 0 0 -1.33333 456.691 229.023)"/><path d="M0 0c5.011 2.895 11.783 6.365 19.086 8.911.319-20.261 3.481-36.666 4.249-40.382-1.641-3.518-8.642-19.198-12.205-38.359C8.56-71.441.899-76.406-7.374-83.362c-6.659-5.627-13.741-12.496-18.862-20.093a176 176 0 0 0-.346 10.844C-26.582-58.588-16.836-26.844 0 0" clip-path="url(#C)" style="fill:#fff;fill-opacity:1;fill-rule:nonzero;stroke:none" transform="matrix(1.33333 0 0 -1.33333 343.176 322.731)"/><path d="M0 0c11.472-6.447 30.837-15.023 53.135-15.364 2.737-3.711 13.309-16.874 32.931-28.002 3.117-23.758 13.689-40.761 20.972-49.986C59.543-78.769 20.686-44.468 0 0" clip-path="url(#D)" style="fill:#fff;fill-opacity:1;fill-rule:nonzero;stroke:none" transform="matrix(1.33333 0 0 -1.33333 329.352 544.26)"/><path d="M0 0c7.282 9.225 17.855 26.23 20.972 49.985 19.617 11.128 30.189 24.288 32.927 27.998 22.301.343 41.667 8.921 53.139 15.369C86.354 48.884 47.495 14.583 0 0" clip-path="url(#E)" style="fill:#fff;fill-opacity:1;fill-rule:nonzero;stroke:none" transform="matrix(1.33333 0 0 -1.33333 608.885 668.73)"/><path d="m0 0-7.766-2.082-1.703-5.404 6.041 1.337-6.258-19.878-5.114 1.61-1.412-4.484 16.183-5.095 1.413 4.483-5.026 1.584L4.687-1.477z" clip-path="url(#F)" style="fill:#fff;fill-opacity:1;fill-rule:nonzero;stroke:none" transform="matrix(1.33333 0 0 -1.33333 489.633 606.027)"/><path d="M0 0h-.021q-.274 0-.566.035c-2.17.229-3.336 1.851-3.301 4.401q.001.653.092 1.395c.203 1.711.701 2.995 1.549 3.822.711.702 1.542 1.073 2.432 1.07q.206-.001.404-.025c1.198-.137 2.146-.757 2.729-1.791.438-.769.648-1.709.648-2.808q-.001-.572-.074-1.208C3.548 1.789 2.229 0 0 0m-3.072-17.645c.465-.051.916-.081 1.351-.081C4.28-17.73 7.955-12.612 9.258-1.849q.269 2.275.269 4.512 0 1.589-.136 3.163c-.215 2.502-.967 4.612-2.247 6.354-1.255 1.701-3.277 2.736-6.153 3.084q-.85.104-1.629.102c-2.488-.003-4.453-.754-5.974-2.254-1.86-1.843-2.957-4.157-3.295-6.992a13 13 0 0 1-.097-1.565c.003-1.985.465-3.868 1.396-5.675 1.164-2.239 3.007-3.484 5.667-3.807q.49-.059.947-.059c1.897.007 3.403.725 4.619 2.216l.687.849-.103-1.088-.097-1.011c-.713-5.891-2.231-9.074-4.97-9.131-.13 0-.267.006-.403.023-1.968.22-3.052 1.797-3.197 4.336l-5.482-.444c.632-5.127 3.182-7.825 7.868-8.409" clip-path="url(#G)" style="fill:#fff;fill-opacity:1;fill-rule:nonzero;stroke:none" transform="matrix(1.33333 0 0 -1.33333 518.087 632.624)"/><path d="M0 0c4.877 3.854 8.142 7.149 9.785 9.848 1.485 2.44 2.221 4.855 2.221 7.261q0 .407-.025.801c-.18 2.602-1.135 4.71-2.882 6.385-1.542 1.476-3.603 2.218-6.266 2.218-.338 0-.679-.01-1.036-.036-5.727-.418-8.807-3.89-9.451-10.821l5.768-.795c.075 1.846.335 3.311.807 4.41.505 1.201 1.492 1.906 2.78 1.98q.165.013.305.012c2.015.02 3.164-1.552 3.309-4.194q.016-.263.017-.539c0-1.831-.616-3.773-1.813-5.824C2.188 8.444-1.165 4.612-6.576-.868l.403-5.923 19.695 1.338.068 5.774L-.833-.655z" clip-path="url(#H)" style="fill:#fff;fill-opacity:1;fill-rule:nonzero;stroke:none" transform="matrix(1.33333 0 0 -1.33333 549.167 648.522)"/><path d="M0 0a4.5 4.5 0 0 0-1.096-.148c-1.956 0-3.297 1.578-4.013 4.367-.218.824-.325 1.57-.325 2.249 0 .701.118 1.33.367 1.877.467 1.046 1.241 1.747 2.252 2.009.34.092.678.135 1.005.135.795.003 1.539-.273 2.196-.801.929-.748 1.585-1.936 2.005-3.525l-.318-.086.318.083c.232-.893.354-1.701.354-2.427C2.769 1.798 1.79.447 0 0m9.852 1.858A37.6 37.6 0 0 1 7.164 9.05c-1.117 2.247-2.59 3.933-4.419 5.085-1.101.692-2.373 1.038-3.84 1.041q-1.39 0-3.014-.427c-3.185-.839-5.241-2.43-6.287-4.789a10.8 10.8 0 0 1-.946-4.455q0-1.577.441-3.254c.657-2.499 1.937-4.577 3.862-6.263 1.351-1.177 2.84-1.756 4.521-1.757a8.5 8.5 0 0 1 2.15.291c2.289.61 3.706 1.925 4.388 4.048l.329 1.036.581-2.022c.609-2.333.92-4.278.92-5.849.02-2.489-.831-4.14-2.583-4.593a3.8 3.8 0 0 0-.929-.124c-1.525.001-2.737 1.07-3.629 2.988l-4.943-2.423c1.941-3.591 4.463-5.307 7.675-5.317q1.287 0 2.731.378c4.683 1.253 6.974 4.615 6.999 10.432 0 2.492-.436 5.421-1.319 8.782" clip-path="url(#I)" style="fill:#fff;fill-opacity:1;fill-rule:nonzero;stroke:none" transform="matrix(1.33333 0 0 -1.33333 587.577 628.04)"/><path d="M0 0c-20.845-17.347-34.123-43.476-34.123-72.714 0-16.429 4.192-31.878 11.559-45.339l26.15 11.157c-6.014 9.982-9.479 21.677-9.479 34.182A66 66 0 0 0 .286-44.755l18.557-24.266 13.375 17.489V-160.23h28.23V21.856l-38.58-50.448z" clip-path="url(#J)" style="fill:#3357a7;fill-opacity:1;fill-rule:nonzero;stroke:none" transform="matrix(1.33333 0 0 -1.33333 459.879 349.26)"/><path d="M0 0v-181.49h28.23v141.275c16.656-12.05 27.5-31.63 27.5-53.76 0-12.504-3.463-24.199-9.477-34.181l26.149-11.157c7.369 13.46 11.559 28.91 11.559 45.338C83.961-45.332 47.234-5.274 0 0" clip-path="url(#K)" style="fill:#3357a7;fill-opacity:1;fill-rule:nonzero;stroke:none" transform="matrix(1.33333 0 0 -1.33333 554.622 320.913)"/></svg>