<?xml version="1.0" encoding="utf-8"?>
<!-- Generator: Adobe Illustrator 12.0.0, SVG Export Plug-In  -->
<!DOCTYPE svg PUBLIC "-//W3C//DTD SVG 1.1//EN" "http://www.w3.org/Graphics/SVG/1.1/DTD/svg11.dtd" [
	<!ENTITY ns_flows "http://ns.adobe.com/Flows/1.0/">
	<!ENTITY ns_svg "http://www.w3.org/2000/svg">
	<!ENTITY ns_xlink "http://www.w3.org/1999/xlink">
]>
<svg  version="1.1" xmlns="&ns_svg;" xmlns:xlink="&ns_xlink;" xmlns:a="http://ns.adobe.com/AdobeSVGViewerExtensions/3.0/"
	 width="251" height="251" viewBox="-0.6376953 -0.6381836 251 251" enable-background="new -0.6376953 -0.6381836 251 251"
	 xml:space="preserve">
<defs>
</defs>
<polygon opacity="0" fill-rule="evenodd" clip-rule="evenodd" fill="#FFFFFF" points="0,0 250,0 250,250.0004883 0,250.0004883 0,0 
	"/>
<path fill-rule="evenodd" clip-rule="evenodd" fill="#DEAA18" d="M34.7836914,38.2270508l7.2016602,9.5483398l2.1171875-1.6977539
	l15.6733398,20.3691406l-3.1772461,2.9716797c-3.1308594,2.5380859-1.1259766,7.4145508,0.1879883,8.8383789
	c1.690918,1.8310547,4.940918,2.8129883,8.3891602,1.2397461c15.0405273-13.2436523,41.0541992-23.0913086,59.7758789-22.2607422
	c20.7299805,0.9194336,40.3969727,5.074707,58.9858398,21.3066406c2.7705078,2.8803711,7.1259766,1.7749023,9.3720703-0.425293
	c2.1728516-2.1298828,2.6992188-7.0898438,0.3173828-9.1230469l-3.1767578-2.7587891l15.6728516-20.3696289l1.9052734,1.4858398
	l6.9892578-9.1245117l-4.0234375-2.9702148l-2.1181641,2.7578125l-2.9648438-2.1220703l2.1171875-2.7578125l-2.9638672-2.5463867
	l-5.9306641,7.6386719l1.6943359,4.2431641l-6.5654297,4.8813477l-2.5839844-1.4101563l2.5341797-4.2988281L187.484375,37.625
	l-2.2978516,4.0454102l-2.9628906-1.440918l2.0058594-4.300293l-6.8632813-3.3662109l-1.8964844,4.3818359l-2.5976563-1.2636719
	l0.0527344-8.5942383l4.5947266-0.1352539l3.0214844-9.5107422L176.6875,16.1464844l-1.2089844,3.5883789l-3.7607422-1.2202148
	l1.2558594-3.6181641l-3.8085938-1.2827148l-1.359375,3.5917969l-3.7021484-1.112793l1.2519531-3.7612305l-3.9199219-1.3203125
	l-3.1201172,9.5898438l3.7529297,2.890625l-5.1845703,7.222168l-2.5136719-0.9384766l1.1914063-4.6533203l-7.7490234-1.621582
	l-0.8232422,4.7709961l-3.2304688-0.5991211l0.6455078-4.8525391l-7.7519531-0.7919922l-0.421875,4.9077148l-2.9111328-0.2216797
	l-2.8017578-8.2426758l4.6035156-1.7929688l-0.1611328-9.8828125l-3.9179688-0.0224609l-0.0634766,3.7509766L127.125,10.5288086
	l-0.0537109-3.7802734l-4.1835938-0.078125l0.0019531,3.7553711l-3.7373047,0.0356445l-0.0766602-3.7626953l-4.1787109-0.0258789
	l-0.0029297,9.8701172l4.4458008,1.800293l-2.7006836,8.2719727l-1.5117188,0.1381836l-0.5854492-4.8530273l-7.6918945,0.9790039
	l0.6860352,4.6049805l-3.390625,0.5112305l-0.7460938-4.6513672l-7.7612305,1.5405273l0.894043,4.7807617l-3.296875,0.8574219
	l-5.1333008-7.140625l3.7924805-2.8642578l-3.3779297-9.2783203l-3.84375,1.2470703l1.1948242,3.4804688l-3.6708984,1.2192383
	l-1.1723633-3.5170898l-3.9980469,1.2954102l1.0756836,3.4995117l-3.4599609,1.1669922l-1.2329102-3.4951172l-4.078125,1.3212891
	l3.269043,9.3466797l4.6030273,0.2275391l0.3027344,8.8056641l-2.3544922,1.059082l-2.1279297-4.6386719l-6.8417969,3.4023438
	l2.2177734,4.2709961l-3.1235352,1.612793l-2.3237305-4.1147461L56.28125,41.2509766l2.6459961,4.0830078l-2.9042969,2.0776367
	l-7.3164063-4.8105469l2.4882813-3.9833984l-6.1337891-7.9946289l-3.0073242,2.2495117l2.1547852,2.9648438l-3.0229492,2.3740234
	l-2.4838867-2.7382813L34.7836914,38.2270508L34.7836914,38.2270508z"/>
<path fill-rule="evenodd" clip-rule="evenodd" d="M34.6118164,37.7387695l-0.0019531-0.0029297l0.1689453-0.1303711
	L34.6118164,37.7387695L34.6118164,37.7387695z M215.3974609,37.7387695l0.0019531-0.0029297l-0.1689453-0.1303711
	L215.3974609,37.7387695L215.3974609,37.7387695z M129.9755859,43.4897461
	c2.7460938,0.1259766,5.4619141,0.3530273,8.1494141,0.6811523l-8.1523438-25.2539063h-10.0185547l-8.15625,25.2661133
	c2.7133789-0.3339844,5.4594727-0.5664063,8.2324219-0.6933594V31.0429688c0-2.7348633,2.237793-4.9726563,4.9726563-4.9726563l0,0
	c2.7353516,0,4.9726563,2.237793,4.9726563,4.9726563V43.4897461L129.9755859,43.4897461z M71.237793,51.0625l-2.2421875-4.1821289
	c-2.3164063,1.2583008-4.5849609,2.59375-6.8051758,4l4.2758789,2.9331055
	C68.0336914,52.8603516,69.621582,51.9404297,71.237793,51.0625L71.237793,51.0625z M70.0668945,46.3041992l2.2485352,4.1796875
	c1.5424805-0.8154297,3.1069336-1.5957031,4.6918945-2.3413086L76.934082,42.953125
	C74.6044922,43.9980469,72.3125,45.1147461,70.0668945,46.3041992L70.0668945,46.3041992z M178.0566406,50.6748047
	l2.4130859-4.0908203c-2.4033203-1.2895508-4.8554688-2.4951172-7.3564453-3.6171875l-0.0732422,5.1904297
	C174.7373047,48.9560547,176.4082031,49.7949219,178.0566406,50.6748047L178.0566406,50.6748047z M181.5439453,47.1665039
	l-2.40625,4.0927734c1.4912109,0.8178711,2.9619141,1.6689453,4.4111328,2.550293l4.2744141-2.9331055
	C185.7724609,49.578125,183.6777344,48.3383789,181.5439453,47.1665039L181.5439453,47.1665039z M184.890625,47.5166016
	l2.1757813-3.6972656c-2.4550781-1.4350586-4.9628906-2.7827148-7.5214844-4.0483398l-1.8789063,3.8535156
	C180.1220703,44.8408203,182.5322266,46.1391602,184.890625,47.5166016L184.890625,47.5166016z M188.1162109,44.4399414
	l-2.1767578,3.6962891c1.0390625,0.6220703,2.0712891,1.2607422,3.0898438,1.9125977l3.8300781-2.6264648
	C191.3027344,46.394043,189.7207031,45.3984375,188.1162109,44.4399414L188.1162109,44.4399414z M176.5703125,43.0883789
	l1.8779297-3.8525391c-1.7285156-0.8325195-3.4765625-1.6274414-5.2490234-2.3808594l-0.0654297,4.6464844
	C174.2900391,42.0136719,175.4335938,42.5405273,176.5703125,43.0883789L176.5703125,43.0883789z M142.9228516,38.8623047
	l0.7724609-4.6743164c-2.5234375-0.4038086-5.0732422-0.7290039-7.6484375-0.9692383l1.5908203,4.9301758
	C139.4121094,38.3466797,141.1738281,38.5830078,142.9228516,38.8623047L142.9228516,38.8623047z M144.9033203,34.3896484
	l-0.7714844,4.6723633c1.6464844,0.2817383,3.2822266,0.6010742,4.9033203,0.9521484l3.0888672-4.1630859
	C149.7451172,35.2890625,147.3359375,34.8027344,144.9033203,34.3896484L144.9033203,34.3896484z M148.6035156,33.7109375
	l0.8710938-4.206543c-2.8144531-0.5673828-5.6611328-1.0400391-8.5410156-1.4121094l-0.5332031,4.262207
	C143.1650391,32.7114258,145.8994141,33.1674805,148.6035156,33.7109375L148.6035156,33.7109375z M150.6679688,29.7519531
	l-0.8701172,4.2036133c1.0722656,0.2255859,2.1376953,0.4667969,3.1972656,0.7216797l2.7714844-3.7338867
	C154.0820313,30.5102539,152.3808594,30.1137695,150.6679688,29.7519531L150.6679688,29.7519531z M139.1904297,32.203125
	l0.5332031-4.262207c-1.8388672-0.2192383-3.6894531-0.3984375-5.5537109-0.5356445l1.4277344,4.4233398
	C136.8007813,31.9350586,137.9970703,32.0605469,139.1904297,32.203125L139.1904297,32.203125z M106.3623047,38.9804688
	l-0.7485352-4.6767578c-2.5957031,0.4306641-5.159668,0.9428711-7.6943359,1.5415039l3.0893555,4.1625977
	C102.7788086,39.6245117,104.5625,39.2802734,106.3623047,38.9804688L106.3623047,38.9804688z M106.8154297,34.1098633
	l0.7573242,4.6757813c1.5610352-0.2412109,3.1333008-0.449707,4.7133789-0.6264648l1.5913086-4.9316406
	C111.5019531,33.4511719,109.1459961,33.746582,106.8154297,34.1098633L106.8154297,34.1098633z M110.359375,32.2597656
	l-0.5063477-4.2631836c-2.9321289,0.3608398-5.8295898,0.8208008-8.6928711,1.3823242l0.8530273,4.2094727
	C104.7631836,33.0507813,107.5458984,32.6064453,110.359375,32.2597656L110.359375,32.2597656z M111.0634766,27.8530273
	l0.5058594,4.2641602c0.9155273-0.1040039,1.8354492-0.1987305,2.7573242-0.2807617l1.4287109-4.4243164
	C114.184082,27.527832,112.6186523,27.6762695,111.0634766,27.8530273L111.0634766,27.8530273z M100.8168945,33.828125
	l-0.8525391-4.2084961c-1.9135742,0.3950195-3.809082,0.8325195-5.6884766,1.315918l2.7705078,3.7338867
	C98.2963867,34.3676758,99.5517578,34.0898438,100.8168945,33.828125L100.8168945,33.828125z M73.0185547,43.2944336
	l-1.8549805-3.8676758c-2.7275391,1.3261719-5.3945313,2.7509766-8.0039063,4.2680664l2.1723633,3.7006836
	C67.8388672,45.9384766,70.3999023,44.5688477,73.0185547,43.2944336L73.0185547,43.2944336z M72.2617188,38.8999023
	l1.8564453,3.8662109c0.925293-0.4379883,1.8569336-0.8632813,2.7954102-1.2788086l-0.0654297-4.6455078
	C75.3037109,37.4985352,73.7739258,38.1835938,72.2617188,38.8999023L72.2617188,38.8999023z M64.2822266,48.0146484
	L62.109375,44.3125c-1.6777344,0.9975586-3.3295898,2.0380859-4.9550781,3.1132813l3.8310547,2.6269531
	C62.0727539,49.3569336,63.1713867,48.6762695,64.2822266,48.0146484L64.2822266,48.0146484z M191.3330078,44.84375
	l1.9140625-3.0092773c-1.8242188-1.1518555-3.6806641-2.2573242-5.5654297-3.3173828l-1.7275391,3.1235352
	C187.7763672,42.6650391,189.5683594,43.730957,191.3330078,44.84375L191.3330078,44.84375z M195.1650391,41.4291992
	l-2.6533203,4.1679688c0.5146484,0.3330078,1.0283203,0.6694336,1.5361328,1.0092773l6.1875-4.2436523l-2.4677734-3.855957
	l6.9619141-9.0151367l4.3310547,3.3500977l-2.3613281,3.0595703l1.9667969,1.519043l1.5078125-1.9541016l-0.0107422-0.0087891
	l0.8466797-1.0976563l0.0117188,0.0087891l0.0058594-0.0078125l3.9072266,3.0161133l0.0039063-0.0048828l0.4589844,0.3666992
	l0.0068359,0.0058594l0.6171875,0.4936523l-7.8867188,10.1264648l-0.6230469-0.3862305l-0.0185547,0.0244141l-0.2382813-0.184082
	l-0.0869141-0.0541992l-0.2177734-0.1347656l0.0185547-0.0224609l0.0048828-0.0058594l-0.7275391-0.5620117l-0.1308594-0.1025391
	L191.078125,66.2324219c0.5136719,0.4042969,1.0273438,0.8134766,1.5332031,1.2270508h0.0146484v0.0126953l0.7050781,0.5795898
	l0.0117188,0.0087891l0.0039063,0.0029297c1.6123047,1.2612305,2.6445313,2.6235352,2.6445313,5.6503906
	c0,3.2060547-3.265625,7.2880859-7.2880859,7.2880859c-1.8544922,0-3.5458984-0.6962891-4.8320313-1.8383789l0.8759766-1.0483398
	c1.1523438,0.9404297,1.5693359,1.5009766,3.9560547,1.5009766c2.3876953,0,5.9013672-3.3007813,5.9013672-5.9023438
	s-0.9453125-3.7001953-2.3964844-4.7758789l0.0126953-0.0161133l-0.4609375-0.378418v-0.0112305h-0.015625
	c-18.1855469-14.859375-41.4130859-23.7714844-66.7260742-23.7714844c-25.3105469,0-48.5366211,8.9121094-66.7226563,23.7714844
	h-0.0068359v0.0039063c-1.8154297,1.5488281-2.8676758,2.5551758-2.8676758,5.1777344
	c0,2.6015625,3.5146484,5.9023438,5.9013672,5.9023438c2.387207,0,2.8037109-0.5605469,3.956543-1.5009766l0.8759766,1.0483398
	c-1.2866211,1.1420898-2.9775391,1.8383789-4.8325195,1.8383789c-4.0224609,0-7.2875977-4.0820313-7.2875977-7.2880859
	c0-3.1342773,1.1064453-4.4833984,2.8203125-5.784668l-0.0063477-0.0087891
	c0.184082-0.1523438,0.3691406-0.3046875,0.5537109-0.4560547v-0.0048828h0.0058594
	c0.5048828-0.4121094,1.0146484-0.8198242,1.5273438-1.222168L43.894043,46.9370117l-0.1308594,0.1025391l-0.7275391,0.5620117
	l0.0048828,0.0058594l0.0180664,0.0224609l-0.2177734,0.1347656l-0.0869141,0.0541992l-0.2382813,0.184082l-0.019043-0.0244141
	l-0.6230469,0.3862305L33.987793,38.2382813l0.6171875-0.4936523l0.0068359-0.0058594l0.4584961-0.3666992l0.0039063,0.0048828
	l3.9072266-3.0161133l0.0058594,0.0078125l0.0117188-0.0087891l0.8466797,1.0976563l-0.0107422,0.0087891l1.5078125,1.9541016
	l1.9667969-1.519043l-2.3613281-3.0595703l4.3310547-3.3500977l6.9624023,9.0151367l-2.4682617,3.855957l6.1923828,4.2470703
	c0.6474609-0.4321289,1.2973633-0.8613281,1.9541016-1.2817383l-2.6293945-4.1630859l0.3706055-0.2363281l-0.0087891-0.0126953
	c2.3237305-1.4765625,4.6958008-2.8803711,7.1176758-4.2104492l0.0048828,0.0097656l0.5566406-0.3125l2.371582,4.3271484
	c0.5429688-0.293457,1.0864258-0.5864258,1.6333008-0.8720703l-2.2446289-4.3569336l0.5566406-0.2978516l-0.0136719-0.0253906
	c2.3730469-1.2270508,4.7900391-2.3833008,7.2451172-3.4648438l0.0087891,0.0214844l0.6279297-0.2807617l1.9848633,4.512207
	c0.440918-0.190918,0.8837891-0.3818359,1.3271484-0.5678711l-0.1069336-7.5673828l-4.4985352-0.0751953l-0.0463867-0.1347656
	h-0.0019531l-0.4208984-1.2255859h0.0058594l-3.1318359-9.2568359l0.0048828-0.0019531l-0.0395508-0.1176758l5.2143555-1.7641602
	l1.2470703,3.6479492l2.3037109-0.7802734l-1.2387695-3.659668l5.230957-1.7700195l0.0039063,0.0087891l0.0136719-0.0048828
	l0.4438477,1.3129883l-0.0136719,0.0048828l0.7910156,2.3378906l2.3535156-0.7958984l-1.237793-3.6611328l5.1845703-1.7597656
	l3.6542969,10.7880859l-3.5883789,2.8452148l4.4619141,6.0112305c0.8530273-0.2236328,1.7094727-0.4355469,2.5708008-0.6411133
	L94.862793,24.328125l0.8227539-0.1958008l-0.0019531-0.0078125c2.7709961-0.6391602,5.5395508-1.1914063,8.3500977-1.6210938
	l0.8251953,4.8603516c0.6064453-0.0991211,1.2119141-0.190918,1.8208008-0.2807617l-0.7011719-4.8945313l0.6645508-0.0981445
	l-0.0009766-0.0068359l0.6279297-0.0849609l0.0087891-0.0009766l0.0732422-0.0112305v0.0009766
	c2.1616211-0.2944336,4.3398438-0.5380859,6.534668-0.7246094l-0.0014648-0.0146484l1.3837891-0.1166992l0.4003906,4.9521484
	l0.5268555-0.0400391l2.3334961-7.2294922l-4.2368164-1.5126953l-0.0009766-0.1425781h-0.0019531V6.0917969h0.0058594V5.9682617
	h5.5039063L119.8125,9.8227539h2.4316406V5.9580078h5.5224609v0.0102539h0.015625v1.3862305h-0.015625v2.4682617h2.4853516
	V5.9580078l5.4746094-0.0053711l0.0048828,11.3901367l-4.3105469,1.5449219l2.3076172,7.1489258
	c0.6123047,0.0424805,1.21875,0.0922852,1.828125,0.1435547l0.4462891-4.9194336l0.2919922,0.0224609v-0.0078125
	l0.5458984,0.0493164l0.5458984,0.0424805l-0.0019531,0.0092773c2.4199219,0.2294922,4.8222656,0.5229492,7.2021484,0.8847656
	l-0.0009766,0.0107422l0.6923828,0.097168L144.53125,27.262207c0.609375,0.0957031,1.2158203,0.1982422,1.8232422,0.3032227
	l0.875-4.8730469l0.7841797,0.1416016l0.0009766-0.0048828c2.7207031,0.4873047,5.4111328,1.059082,8.0703125,1.7133789
	l-0.0009766,0.0029297l0.2919922,0.0693359l-1.1728516,4.8115234c0.4755859,0.1176758,0.9501953,0.2368164,1.421875,0.3603516
	l4.4667969-6.0180664l-3.5888672-2.8452148l3.6552734-10.7880859l5.1845703,1.7597656l-1.2382813,3.6611328l2.3535156,0.7958984
	l1.2216797-3.6557617l0.0136719,0.0048828l0.0039063-0.0087891l5.2304688,1.7700195l-1.2382813,3.659668l2.3037109,0.7802734
	l1.2470703-3.6479492l5.2138672,1.7641602l-0.0390625,0.1176758l0.0048828,0.0019531l-3.1318359,9.2568359h0.0058594
	l-0.421875,1.2255859h-0.0009766l-0.046875,0.1347656l-4.4990234,0.0751953l-0.1064453,7.5805664
	c0.5859375,0.2460938,1.1660156,0.4980469,1.7470703,0.753418l2.0078125-4.5200195l0.5898438,0.2661133l0.0029297-0.0078125
	c2.2304688,0.9926758,4.4287109,2.0498047,6.5908203,3.1621094l0.0029297-0.0078125l1.2285156,0.6474609l-2.2802734,4.3867188
	c0.5458984,0.2885742,1.0869141,0.5786133,1.6289063,0.875l2.3935547-4.3251953l0.6035156,0.3330078l0.0009766-0.0014648
	l0.6132813,0.3398438l-0.0019531,0.0039063C190.6611328,38.6157227,192.9335938,39.9902344,195.1650391,41.4291992
	L195.1650391,41.4291992z M181.8769531,39.4506836l1.6455078-3.1674805
	c-1.9189453-0.9868164-3.8652344-1.925293-5.8388672-2.8164063l-1.4492188,3.262207
	C178.1416016,37.5913086,180.0214844,38.4970703,181.8769531,39.4506836L181.8769531,39.4506836z M153.8613281,29.1000977
	l0.8466797-3.4736328c-2.0996094-0.4975586-4.2167969-0.9433594-6.3535156-1.3369141l-0.6318359,3.519043
	C149.7880859,28.1884766,151.8330078,28.6196289,153.8613281,29.1000977L153.8613281,29.1000977z M143.1591797,27.0551758
	l0.5400391-3.5351563c-2.1298828-0.3115234-4.2753906-0.5703125-6.4375-0.7749023l-0.3222656,3.5576172
	C139.0292969,26.5014648,141.1015625,26.7548828,143.1591797,27.0551758L143.1591797,27.0551758z M114.2861328,26.1962891
	l-0.2890625-3.5649414c-2.1645508,0.1850586-4.3168945,0.4243164-6.4501953,0.7148438l0.5073242,3.5410156
	C110.1157227,26.6054688,112.1933594,26.375,114.2861328,26.1962891L114.2861328,26.1962891z M103.4829102,27.5952148
	l-0.5996094-3.5244141c-2.1367188,0.3720703-4.2558594,0.7958984-6.3569336,1.2724609l0.8134766,3.480957
	C99.3701172,28.3637695,101.4160156,27.9550781,103.4829102,27.5952148L103.4829102,27.5952148z M74.2294922,36.5244141
	l-1.4355469-3.2670898c-1.9785156,0.8847656-3.9316406,1.8173828-5.855957,2.7973633l1.6313477,3.1674805
	C70.4306641,38.2758789,72.3173828,37.3789063,74.2294922,36.5244141L74.2294922,36.5244141z M64.484375,41.3984375
	l-1.7163086-3.1235352c-1.890625,1.0517578-3.7495117,2.1513672-5.5800781,3.2958984l1.9038086,3.0146484
	C60.8608398,43.4799805,62.6572266,42.4160156,64.484375,41.3984375L64.484375,41.3984375z M154.5810547,47.5166016
	l3.9833984-11.7714844c0.8759766-2.590332,3.7128906-3.9926758,6.3037109-3.1166992l0,0
	c2.5908203,0.8769531,3.9941406,3.7138672,3.1171875,6.3046875l-3.984375,11.7744141
	c2.5742188,1.0087891,5.0996094,2.1171875,7.5703125,3.3144531l0.3720703-26.550293l-9.4902344-3.2119141L146.6425781,45.5625
	C149.328125,46.1142578,151.9736328,46.7670898,154.5810547,47.5166016L154.5810547,47.5166016z M148.1318359,41.2294922
	l-2.9951172,4.0356445c-1.8154297-0.3461914-3.6445313-0.644043-5.4921875-0.8974609l-1.5429688-4.7817383
	C141.4921875,39.9824219,144.8388672,40.5341797,148.1318359,41.2294922L148.1318359,41.2294922z M172.9482422,54.7026367
	l0.0712891-5.0302734c3.1816406,1.5195313,6.2783203,3.1850586,9.2841797,4.9902344l-4.1445313,2.8432617
	C176.4521484,56.5258789,174.7148438,55.5893555,172.9482422,54.7026367L172.9482422,54.7026367z M175.8642578,20.6523438
	l1.2333984-3.6435547l2.6044922,0.8808594l-2.8837891,8.5219727l-3.5615234,0.0405273l-11.4365234-3.8696289l-2.6904297-2.1289063
	l2.8925781-8.5463867l2.5595703,0.8662109l-1.2451172,3.6479492l4.9697266,1.6821289l0.0019531-0.0073242l0.0205078,0.0073242
	l1.2333984-3.6450195l2.6044922,0.8818359l-1.2246094,3.6547852L175.8642578,20.6523438L175.8642578,20.6523438z
	 M101.909668,41.222168l2.9960938,4.0356445c1.7749023-0.3369141,3.5688477-0.6279297,5.3725586-0.8759766l1.543457-4.7851563
	C108.4716797,39.9921875,105.1625977,40.5361328,101.909668,41.222168L101.909668,41.222168z M103.4008789,45.5566406
	l-15.8066406-21.296875l-9.4902344,3.2119141l0.371582,26.5336914c2.4707031-1.1977539,4.9951172-2.300293,7.5668945-3.3076172
	L82.0625,38.9331055c-0.8769531-2.5908203,0.5258789-5.4277344,3.1166992-6.3046875l0,0
	c2.5908203-0.8759766,5.4277344,0.5263672,6.3037109,3.1166992l3.9804688,11.7631836
	C98.0698242,46.7602539,100.7167969,46.1074219,103.4008789,45.5566406L103.4008789,45.5566406z M77.0996094,54.6865234
	L77.0283203,49.65625c-3.1933594,1.5258789-6.300293,3.1977539-9.3168945,5.0107422l4.1430664,2.8417969
	C73.5742188,56.5219727,75.3222656,55.5805664,77.0996094,54.6865234L77.0996094,54.6865234z M74.1831055,20.6523438
	l-1.2329102-3.6435547l-2.6044922,0.8808594l2.8833008,8.5219727l3.5620117,0.0405273l11.4360352-3.8696289l2.6904297-2.1289063
	l-2.8925781-8.5463867l-2.559082,0.8662109l0.7905273,2.3383789l0.0097656-0.0039063l0.4438477,1.3134766l-4.96875,1.6821289
	l-0.0019531-0.0073242l-0.0209961,0.0073242l-1.2329102-3.6450195l-2.6049805,0.8818359l1.2241211,3.6547852L74.1831055,20.6523438
	L74.1831055,20.6523438z M118.4262695,11.2021484V7.3544922h-2.75v8.996582l3.3608398,1.1796875h12.0732422l3.2304688-1.1542969
	V7.3544922h-2.703125v2.4682617h0.0107422v1.3862305h-5.2460938v-0.0068359h-0.0214844V7.3544922h-2.7504883l-0.0117188,3.8544922
	L118.4262695,11.2021484L118.4262695,11.2021484z M179.4833984,58.2783203
	c2.3476563,1.3930664,4.6357422,2.8725586,6.8632813,4.4345703l7.6103516-9.8408203
	c1.5869141-2.0668945,4.5087891-2.534668,6.6533203-1.128418l4.40625-5.6533203l-3.6533203-2.8188477L179.4833984,58.2783203
	L179.4833984,58.2783203z M214.0830078,38.4702148l-6.2587891,8.0366211l-6.5136719-5.0283203l-1.8525391-2.8876953
	l5.5126953-7.1411133l2.1386719,1.6513672l-1.5078125,1.953125l-0.0078125-0.0058594l-0.8466797,1.0976563l4.1523438,3.2055664
	l0.0039063-0.0058594l0.0175781,0.0136719l2.3505859-3.0463867L214.0830078,38.4702148L214.0830078,38.4702148z
	 M63.6650391,62.7177734c2.2275391-1.5629883,4.5170898-3.043457,6.8657227-4.4370117L48.6455078,43.2714844l-3.652832,2.8188477
	l4.40625,5.6533203c2.1435547-1.40625,5.065918-0.9384766,6.652832,1.128418L63.6650391,62.7177734L63.6650391,62.7177734z
	 M35.9257813,38.4702148l6.2587891,8.0366211l6.5141602-5.0283203l1.8520508-2.8876953l-5.5126953-7.1411133l-2.1386719,1.6513672
	l1.5078125,1.953125l0.0078125-0.0058594l0.8466797,1.0976563l-4.1523438,3.2055664l-0.0039063-0.0058594l-0.0175781,0.0136719
	l-2.3505859-3.0463867L35.9257813,38.4702148L35.9257813,38.4702148z"/>
<path fill-rule="evenodd" clip-rule="evenodd" fill="#F5EE3B" d="M124.9995117,58.0751953
	c50.9370117,0,92.2446289,41.3081055,92.2446289,92.2436523c0,50.9375-41.3076172,92.2460938-92.2446289,92.2460938
	c-50.9360352,0-92.2436523-41.3085938-92.2436523-92.2460938C32.7558594,99.3833008,74.0634766,58.0751953,124.9995117,58.0751953
	L124.9995117,58.0751953z"/>
<path fill-rule="evenodd" clip-rule="evenodd" fill="#F41C0C" d="M124.9003906,58.3217773V79.340332H67.0458984
	C83.0473633,65.4750977,102.1201172,58.0288086,124.9003906,58.3217773L124.9003906,58.3217773z"/>
<path fill-rule="evenodd" clip-rule="evenodd" fill="#FFFFFF" d="M67.668457,79.3969727h115.5405273v71.9003906
	c0,31.6845703-25.9951172,57.6064453-57.7700195,57.6064453l0,0c-31.7744141,0-57.7705078-25.921875-57.7705078-57.6064453
	V79.3969727L67.668457,79.3969727z"/>
<path fill-rule="evenodd" clip-rule="evenodd" fill="#314F92" d="M124.9013672,58.1098633v21.019043h57.8544922
	C166.7539063,65.2631836,147.6816406,57.8168945,124.9013672,58.1098633L124.9013672,58.1098633z"/>
<path fill-rule="evenodd" clip-rule="evenodd" fill="#314F92" d="M160.0957031,197.0551758
	c-2.2568359,1.2705078-4.3027344,2.7519531-6.5595703,4.0224609c-8.1865234-9.3115234-8.9160156-21.2861328-16.2949219-28.9941406
	c-5.8457031-6.1044922-17.6748047-7.6347656-23.9135742-13.3378906
	c-7.2480469-6.6240234-9.9248047-15.9726563-16.7182617-23.0605469
	c-6.3398438-6.6162109-12.8154297-9.3447266-19.2529297-15.8691406c-4.1767578-4.2329102-8.5385742-11.6445313-9.7353516-17.5717773
	l0.6362305-22.4306641c0.6293945,10.3696289,5.9091797,22.3999023,12.2734375,30.6884766
	c6.2705078,8.1669922,15.5532227,11.1533203,22.6396484,18.6225586c6.1416016,6.4765625,9.3544922,16.3330078,15.8730469,22.4306641
	c7.0522461,6.5966797,17.8881836,7.8203125,24.5454102,14.8154297
	C151.4667969,174.6469727,152.4746094,187.4643555,160.0957031,197.0551758L160.0957031,197.0551758z"/>
<path fill-rule="evenodd" clip-rule="evenodd" fill="#314F92" d="M169.4296875,187.4887695
	c-9.0332031-11.4345703-8.9179688-22.1386719-16.2949219-29.84375c-5.8417969-6.1015625-17.6757813-8.2734375-23.9130859-13.9736328
	c-7.246582-6.6240234-10.6826172-15.7001953-16.9301758-23.2739258
	c-6.4008789-7.7592773-15.9038086-10.5839844-22.0605469-18.4116211
	c-5.1850586-6.5942383-7.9243164-13.0693359-9.5361328-21.9956055l8.7021484-0.3432617
	c0.9023438,6.7675781,3.4487305,11.7563477,7.0273438,16.4169922c6.2695313,8.1660156,15.5537109,11.152832,22.6396484,18.6225586
	c6.1416016,6.4760742,9.3540039,16.3334961,15.8735352,22.4301758c7.0517578,6.5976563,17.8886719,7.8232422,24.5458984,14.8164063
	c7.3828125,7.7558594,8.3066406,19.7207031,14.9384766,28.6386719L169.4296875,187.4887695L169.4296875,187.4887695z"/>
<path fill-rule="evenodd" clip-rule="evenodd" d="M124.9980469,56.5922852c22.4755859,0,43.0996094,7.9145508,59.2490234,21.1074219
	h0.0126953v0.0112305c21.0341797,17.1889648,34.4677734,43.3330078,34.4677734,72.6098633
	c0,51.7548828-41.9707031,93.7265625-93.7294922,93.7265625c-51.7543945,0-93.7255859-41.9716797-93.7255859-93.7265625
	c0-29.2807617,13.4384766-55.4277344,34.4760742-72.6166992V77.699707h0.0048828
	C81.9023438,64.5068359,102.5244141,56.5922852,124.9980469,56.5922852L124.9980469,56.5922852z M184.2597656,97.894043
	c1.1513672,5.0610352,2.1113281,10.1259766,2.9042969,15.1801758c0.3457031,2.206543,0.6503906,4.4121094,0.9169922,6.6240234
	h-3.8212891V97.894043L184.2597656,97.894043z M184.2597656,121.2880859h4.0048828
	c0.7421875,6.659668,1.1142578,13.3686523,1.0654297,20.2231445c-0.0332031,4.7744141-0.2744141,9.4628906-0.7265625,14.1015625
	h-4.5380859c0.1259766-1.5390625,0.1943359-3.0898438,0.1943359-4.6533203V121.2880859L184.2597656,121.2880859z
	 M183.9140625,157.2036133h4.5253906c-1.0869141,10.0507813-3.1777344,19.8671875-6.3515625,29.7441406
	c-0.5517578,1.71875-1.1269531,3.4130859-1.7285156,5.0927734l-10.0371094-3.2324219
	C177.734375,179.9584961,182.6259766,169.0063477,183.9140625,157.2036133L183.9140625,157.2036133z M169.1943359,190.1147461
	l10.6210938,3.421875c-5.0888672,13.7832031-11.8505859,26.3408203-20.1806641,38.7324219
	c-1.4570313-0.6318359-2.9160156-1.2216797-4.3789063-1.7695313c2.3955078-5.0761719,3.9619141-10.8740234,4.0878906-16.6621094
	l0.3291016-15.0507813C163.1503906,196.237793,166.34375,193.3276367,169.1943359,190.1147461L169.1943359,190.1147461z
	 M158.0615234,199.9291992l-0.3037109,13.859375c-0.1259766,5.7402344-1.5419922,11.0878906-3.9931641,16.1660156
	c-9.2001953-3.2548828-18.6103516-4.8740234-28.6904297-4.8857422h-0.1938477l-0.4873047,0.0019531h-0.0092773h-0.0117188
	h-0.0087891h-0.0117188h-0.0092773h-0.0117188h-0.0087891h-0.012207h-0.0087891h-0.0117188h-0.0087891l-0.0117188,0.0009766
	h-0.0087891h-0.0092773h-0.0087891h-0.0117188h-0.0092773h-0.0117188h-0.0087891h-0.0117188h-0.0092773h-0.0117188h-0.0092773
	h-0.0117188h-0.0087891h-0.0117188h-0.0087891h-0.012207h-0.0087891h-0.0107422h-0.0092773h-0.0117188h-0.0087891h-0.0117188
	l-0.0991211,0.0019531c-9.7368164,0.1054688-18.8491211,1.7226563-27.7548828,4.8808594
	c-2.4511719-5.078125-3.8671875-10.4257813-3.9926758-16.1660156l-0.3007813-13.7451172
	c9.402832,6.3730469,20.765625,10.1347656,33.1074219,10.1347656
	C137.2802734,210.1801758,148.6416016,206.3637695,158.0615234,199.9291992L158.0615234,199.9291992z M124.0991211,226.6547852
	v0.0009766l0.0068359-0.0009766l0.0908203-0.0019531h0.0151367h0.0146484h0.0180664h0.0151367h0.0146484h0.0146484h0.0175781
	h0.0151367h0.0146484h0.0151367h0.0175781h0.0146484h0.0151367h0.0146484h0.0180664h0.0146484h0.0146484h0.0151367h0.0175781
	h0.0151367h0.0146484h0.0146484h0.0180664h0.0146484h0.0297852l0.3925781-0.0009766l0.3608398,0.0009766
	c0.0625,0,0.128418,0,0.1918945,0c12.1748047,0.0722656,23.3330078,2.4638672,34.3769531,7.4550781
	c-10.7509766,4.4873047-22.5478516,6.9707031-34.9248047,6.9707031c-12.3852539,0-24.1879883-2.4863281-34.9458008-6.9804688
	C100.9960938,229.1557617,112.0532227,226.7641602,124.0991211,226.6547852L124.0991211,226.6547852z M161.8632813,233.2680664
	l-0.7578125-0.3457031c5.7841797-8.6269531,10.9257813-17.5585938,15.2568359-26.9580078l17.4921875,3.46875
	C185.1416016,219.5688477,174.2324219,227.7612305,161.8632813,233.2680664L161.8632813,233.2680664z M195.0292969,208.0444336
	l-17.9902344-3.5673828c2.4746094-5.5087891,4.6689453-11.1767578,6.5556641-17.046875
	c1.1533203-3.5869141,2.1630859-7.1669922,3.0371094-10.7529297l24.8378906,1.2607422
	C207.9199219,189.0571289,202.2900391,199.2475586,195.0292969,208.0444336L195.0292969,208.0444336z M211.9541016,176.371582
	l-24.9472656-1.265625c2.5566406-10.9863281,3.8330078-22.046875,3.9052734-33.5830078
	c0.0175781-2.8017578-0.03125-5.5849609-0.1435547-8.3486328l22.7880859-2.8056641
	c1.4414063,6.4208984,2.203125,13.0986328,2.203125,19.9521484
	C215.7597656,159.3764648,214.4257813,168.1186523,211.9541016,176.371582L211.9541016,176.371582z M213.1914063,128.8120117
	l-22.4951172,2.7685547c-0.3623047-7.2880859-1.1669922-14.4575195-2.3876953-21.5869141
	c-0.2685547-1.5693359-0.5605469-3.1396484-0.8701172-4.7055664l12.5957031-6.03125
	C206.0703125,108.1118164,210.5839844,118.090332,213.1914063,128.8120117L213.1914063,128.8120117z M199.1132813,97.9345703
	l-11.9970703,5.7446289c-0.8417969-4.105957-1.8125-8.2080078-2.8564453-12.3144531v-9.7817383
	C189.8476563,86.4057617,194.8378906,91.8979492,199.1132813,97.9345703L199.1132813,97.9345703z M65.7485352,97.6586914
	c-1.1757813,5.1401367-2.152832,10.2822266-2.9575195,15.4155273c-0.3461914,2.206543-0.6508789,4.4121094-0.9179688,6.6240234
	h3.8754883V97.6586914L65.7485352,97.6586914z M65.7485352,121.2880859h-4.0581055
	c-0.7426758,6.659668-1.1147461,13.3686523-1.0664063,20.2231445c0.0336914,4.7744141,0.2753906,9.4628906,0.7270508,14.1015625
	h4.5854492c-0.1220703-1.5380859-0.1879883-3.0878906-0.1879883-4.6523438V121.2880859L65.7485352,121.2880859z
	 M66.0849609,157.2036133h-4.5698242c1.0869141,10.0507813,3.1772461,19.8671875,6.3515625,29.7441406
	c0.5517578,1.71875,1.1269531,3.4130859,1.7285156,5.0927734l9.9355469-3.2001953
	C72.1767578,180.0170898,67.3496094,169.0727539,66.0849609,157.2036133L66.0849609,157.2036133z M80.6542969,190.1499023
	l-10.515625,3.3867188c5.0898438,13.7832031,11.8505859,26.3408203,20.1806641,38.7324219
	c1.4575195-0.6318359,2.9160156-1.2216797,4.3793945-1.7695313c-2.3959961-5.0761719-3.9619141-10.8740234-4.0878906-16.6621094
	L90.284668,198.909668C86.7583008,196.3432617,83.5288086,193.4038086,80.6542969,190.1499023L80.6542969,190.1499023z
	 M88.1132813,233.2592773l0.7353516-0.3369141c-5.7832031-8.6269531-10.925293-17.5585938-15.2568359-26.9580078
	l-17.4541016,3.4619141C64.8466797,219.5600586,75.7504883,227.7514648,88.1132813,233.2592773L88.1132813,233.2592773z
	 M54.9638672,208.0366211l17.9516602-3.5595703c-2.4750977-5.5087891-4.6694336-11.1767578-6.5561523-17.046875
	c-1.152832-3.5869141-2.1625977-7.1669922-3.0366211-10.7529297l-24.793457,1.2587891
	C42.078125,189.0532227,47.7050781,199.2407227,54.9638672,208.0366211L54.9638672,208.0366211z M38.0458984,176.3686523
	l24.9023438-1.2626953c-2.5571289-10.9863281-3.8339844-22.046875-3.90625-33.5830078
	c-0.0175781-2.8017578,0.0317383-5.5849609,0.1445313-8.3486328l-22.7446289-2.7998047
	c-1.4399414,6.4179688-2.2011719,13.0947266-2.2011719,19.9462891
	C34.2407227,159.3754883,35.574707,168.1176758,38.0458984,176.3686523L38.0458984,176.3686523z M36.8076172,128.8168945
	l22.4506836,2.7636719c0.3623047-7.2880859,1.1674805-14.4575195,2.387207-21.5869141
	c0.269043-1.5693359,0.5610352-3.1396484,0.8701172-4.7055664l-12.5610352-6.0146484
	C43.921875,108.1259766,39.4135742,118.1005859,36.8076172,128.8168945L36.8076172,128.8168945z M50.8764648,97.9506836
	l11.9619141,5.7285156c0.8569336-4.1762695,1.8452148-8.347168,2.9101563-12.5239258v-9.5800781
	C60.152832,86.4038086,55.1557617,91.9038086,50.8764648,97.9506836L50.8764648,97.9506836z M70.5600586,77.699707h108.8793945
	c-15.1689453-11.3901367-34.0166016-18.1391602-54.4414063-18.1391602
	C104.5742188,59.5605469,85.7270508,66.3095703,70.5600586,77.699707L70.5600586,77.699707z M68.7148438,80.6665039h112.578125
	v70.2558594c0,30.9589844-25.3291016,56.2880859-56.2890625,56.2880859l0,0
	c-30.9599609,0-56.2890625-25.3291016-56.2890625-56.2880859V80.6665039L68.7148438,80.6665039z"/>
<path fill-rule="evenodd" clip-rule="evenodd" fill="#F41C0C" d="M115.9541016,161.1645508
	c0.2197266,1.1367188,0.3383789,2.3125,0.3383789,3.5126953c0,10.1650391-8.2451172,18.4101563-18.4106445,18.4101563
	c-10.1650391,0-18.4101563-8.2451172-18.4101563-18.4101563c0-1.1992188,0.1186523-2.3720703,0.3369141-3.5068359
	c2.7016602,7.3642578,9.7739258,12.6220703,18.0722656,12.6220703
	C106.1811523,173.7924805,113.2543945,168.5307617,115.9541016,161.1645508L115.9541016,161.1645508z"/>
<path fill-rule="evenodd" clip-rule="evenodd" fill="#F41C0C" d="M174.359375,96.8339844
	c0.2197266,1.137207,0.3378906,2.3120117,0.3378906,3.512207c0,10.1655273-8.2451172,18.4106445-18.4101563,18.4106445
	s-18.4101563-8.2451172-18.4101563-18.4106445c0-1.1982422,0.1181641-2.3710938,0.3369141-3.5063477
	c2.7011719,7.3642578,9.7744141,12.6220703,18.0722656,12.6220703
	C164.5869141,109.4619141,171.6601563,104.2001953,174.359375,96.8339844L174.359375,96.8339844z"/>
<polygon points="40.8173828,137.2104492 53.9873047,137.2104492 53.9873047,141.7954102 46.9023438,141.7954102 
	46.9023438,148.8452148 53.3945313,148.8452148 53.3945313,153.4506836 46.9023438,153.4506836 46.9023438,168.722168 
	40.8173828,168.722168 40.8173828,137.2104492 "/>
<path d="M126.7275391,220.7817383v-3.3496094c0-1.5634766-0.0742188-2.5429688-0.2119141-2.9316406
	c-0.1357422-0.3847656-0.8666992-0.5800781-1.3417969-0.5800781c-0.5390625,0-1.3051758,0.2333984-1.4487305,0.703125
	c-0.1455078,0.4736328-0.2163086,1.4931641-0.2163086,3.0556641v15.4169922c0,1.5039063,0.0727539,2.4833984,0.2163086,2.9384766
	c0.1455078,0.4628906,0.894043,0.6914063,1.4008789,0.6914063c0.4853516,0,1.2255859-0.2294922,1.3740234-0.6914063
	c0.1464844-0.4560547,0.2275391-1.53125,0.2275391-3.2255859v-3.6572266h6.0859375v0.9863281
	c0,3.1923828-0.1855469,5.4599609-0.5488281,6.7958984c-0.3652344,1.3349609-1.1777344,2.5087891-2.4296875,3.5117188
	c-1.2509766,1.0039063-2.7978516,1.5117188-4.6298828,1.5117188c-1.9111328,0-3.484375-0.4296875-4.7202148-1.2832031
	c-1.2353516-0.8535156-2.059082-2.0322266-2.4604492-3.5380859c-0.4008789-1.5117188-0.6015625-3.7792969-0.6015625-6.8095703
	v-9.0234375c0-2.2285156,0.0634766-3.8964844,0.1845703-5.0117188c0.1269531-1.1142578,0.4912109-2.1884766,1.1088867-3.2177734
	c0.612793-1.0302734,1.4624023-1.8447266,2.5498047-2.4375c1.0878906-0.5859375,2.3393555-0.8857422,3.7490234-0.8857422
	c1.9223633,0,3.5053711,0.4628906,4.7514648,1.375c1.2460938,0.9179688,2.0673828,2.0576172,2.4609375,3.4267578
	c0.3925781,1.3671875,0.5859375,3.3916016,0.5859375,6.2783203L126.7275391,220.7817383L126.7275391,220.7817383z"/>
<path d="M201.4658203,137.3178711l3.6328125,31.4023438h-5.7724609l-0.6572266-7.7392578h-2.8759766l-0.7119141,7.7392578
	h-4.6230469l3.5800781-31.4023438H201.4658203L201.4658203,137.3178711z M198.3984375,156.1518555l-0.9882813-12.9677734
	l-1.1523438,12.9677734H198.3984375L198.3984375,156.1518555z"/>
<polygon fill-rule="evenodd" clip-rule="evenodd" points="207.15625,161.7192383 212.2402344,161.7192383 212.2402344,168.7231445 
	207.15625,168.7231445 207.15625,161.7192383 "/>
<polygon fill-rule="evenodd" clip-rule="evenodd" points="135.4804688,234.4829102 140.5644531,234.4829102 140.5644531,241.487793 
	135.4804688,241.487793 135.4804688,234.4829102 "/>
<polygon fill-rule="evenodd" clip-rule="evenodd" points="51.0195313,161.6137695 56.1030273,161.6137695 56.1030273,168.6176758 
	51.0195313,168.6176758 51.0195313,161.6137695 "/>
</svg>
