<svg xmlns="http://www.w3.org/2000/svg" xml:space="preserve" width="275" height="275"><path fill="#FFF" d="M137.5 0C213.432 0 275 61.568 275 137.5S213.432 275 137.5 275 0 213.432 0 137.5 61.568 0 137.5 0"/><path fill="#EA252C" d="M137.5 0C213.432 0 275 61.568 275 137.5S213.432 275 137.5 275 0 213.432 0 137.5 61.568 0 137.5 0M77.33 25.739l8.239 18.255 4.044-1.814-3.212-7.068 8.693-3.931-1.625-3.628-8.694 3.931-1.776-3.931 9.865-4.459-1.625-3.628zm32.957 9.032c.945-.264 1.739-.566 2.457-.945a9.7 9.7 0 0 0 1.89-1.285 9.3 9.3 0 0 0 1.437-1.549c.416-.605.793-1.209 1.133-1.89l-3.477-1.965c-.529.907-1.134 1.701-1.776 2.306-.68.604-1.549 1.096-2.646 1.398-.832.227-1.625.302-2.381.151q-1.191-.17-2.154-.793c-.963-.623-1.21-.945-1.701-1.587-.453-.68-.832-1.398-1.058-2.23v-.076c-.265-.793-.34-1.625-.265-2.418s.265-1.55.605-2.268a5.8 5.8 0 0 1 1.398-1.777c.605-.529 1.323-.869 2.117-1.096a5.96 5.96 0 0 1 2.797-.189c.907.189 1.814.492 2.759.945l1.814-3.855a11 11 0 0 0-1.776-.832 15 15 0 0 0-1.966-.453c-.643-.076-1.398-.076-2.192-.038-.756.076-1.625.227-2.494.491q-2.268.624-3.855 1.928c-1.096.907-1.928 1.89-2.57 3.062-.604 1.172-1.021 2.419-1.172 3.742a10 10 0 0 0 .378 4.082v.075c.378 1.361 1.021 2.57 1.852 3.667.832 1.058 1.814 1.927 2.948 2.569a11.2 11.2 0 0 0 3.742 1.21 10.45 10.45 0 0 0 4.156-.38m25.928-7.634c.945-.038 1.701-.227 2.269-.604.528-.378.793-.908.793-1.664v-.038c-.038-.681-.303-1.209-.831-1.587-.529-.377-1.361-.567-2.495-.529l-5.103.152.113 4.384zm-1.399-8.051c.983-.038 1.739-.227 2.306-.567s.832-.869.832-1.625v-.076c-.038-.643-.303-1.172-.794-1.512q-.736-.51-2.155-.454l-4.347.113.113 4.233zm-8.541-7.861.491 19.994 9.524-.227a15.3 15.3 0 0 0 3.061-.416c.907-.264 1.702-.642 2.344-1.096.642-.492 1.134-1.059 1.474-1.777a5.3 5.3 0 0 0 .453-2.418v-.038c-.037-1.323-.377-2.381-1.057-3.099-.682-.757-1.627-1.323-2.797-1.739.34-.188.68-.415.981-.718a3.9 3.9 0 0 0 .794-.945c.265-.34.416-.756.566-1.172.113-.454.189-.982.151-1.549v-.038c-.038-1.36-.528-2.495-1.437-3.364-1.208-1.172-2.985-1.701-5.291-1.663zm21.959.113-2.532 19.843 15.118 1.928.491-3.893-10.81-1.361.529-4.195 9.373 1.209.492-3.893-9.374-1.172.528-4.044 10.659 1.36.491-3.893zm21.468 24.946q1.531.51 2.948.566c.907 0 1.775-.113 2.57-.415a6.05 6.05 0 0 0 2.04-1.361c.605-.605 1.059-1.398 1.36-2.343v-.038q.454-1.248.34-2.268a4.16 4.16 0 0 0-.642-1.965c-.34-.605-.87-1.21-1.512-1.777-.644-.567-1.398-1.134-2.269-1.738a79 79 0 0 1-1.852-1.248c-.453-.34-.832-.643-1.096-.945-.227-.264-.378-.566-.416-.832-.037-.264 0-.529.113-.831v-.076c.151-.454.491-.793 1.021-.945.49-.189 1.172-.151 1.965.113.832.302 1.587.718 2.268 1.323a14.7 14.7 0 0 1 2.041 2.23l3.25-2.419a12.6 12.6 0 0 0-2.607-2.873q-1.531-1.19-3.629-1.927c-.982-.303-1.927-.491-2.834-.491-.87 0-1.701.151-2.457.454-.756.302-1.437.756-1.965 1.36-.568.567-.983 1.323-1.285 2.155l-.038.075q-.453 1.417-.34 2.494c.075.756.34 1.399.718 2.042.415.604.945 1.172 1.625 1.739a35 35 0 0 0 2.344 1.663c.719.454 1.322.869 1.738 1.21.454.34.794.68.982.944.227.265.378.529.378.794.038.227 0 .491-.075.756l-.038.038c-.188.567-.566.945-1.134 1.096-.604.151-1.323.076-2.191-.227-1.097-.377-2.004-.907-2.797-1.625a12.8 12.8 0 0 1-2.08-2.57l-3.477 2.117c.793 1.398 1.814 2.608 3.023 3.553 1.213.982 2.574 1.7 4.01 2.192m23.13.529.568-6.992-5.33 4.574zm1.248-12.624-16.857 14.06 4.007 2.041 3.667-3.174 7.559 3.855-.416 4.838 4.083 2.117 1.549-21.884zM155.906 262.68a7.5 7.5 0 0 0 2.533-.417 5.3 5.3 0 0 0 1.889-1.133c.53-.492.908-1.097 1.21-1.739a5.9 5.9 0 0 0 .415-2.191v-.038c0-.794-.15-1.437-.377-2.004a4.6 4.6 0 0 0-1.021-1.36 5.6 5.6 0 0 0-1.436-.869c-.566-.188-1.096-.34-1.663-.416 1.398-1.359 2.797-2.683 4.233-4.043v-2.76h-11.301v3.175h6.539l-3.969 3.969c.188.755.377 1.55.566 2.343h1.549c1.021 0 1.815.15 2.382.529.567.378.87.869.87 1.55v.075c0 .604-.227 1.097-.644 1.475-.453.34-1.02.528-1.7.528-.87 0-1.625-.188-2.229-.528q-.965-.51-1.815-1.475l-2.532 2.42a8.7 8.7 0 0 0 2.684 2.078c1.058.565 2.344.831 3.817.831m-19.804-3.214v2.91h12.322v-3.175h-7.257c.906-.68 1.813-1.398 2.721-2.078a58 58 0 0 0 1.928-1.587 12 12 0 0 0 1.36-1.474c.34-.455.643-.983.793-1.551a5.4 5.4 0 0 0 .304-1.852v-.038c0-.793-.151-1.474-.417-2.116a5.1 5.1 0 0 0-1.171-1.626c-.529-.453-1.134-.793-1.814-1.058a7.8 7.8 0 0 0-2.343-.341c-.757 0-1.437.077-2.004.228a5.7 5.7 0 0 0-1.625.68c-.491.265-.944.644-1.36 1.059-.416.453-.832.945-1.248 1.512a68 68 0 0 1 2.57 2.078c.643-.793 1.172-1.36 1.701-1.7a2.7 2.7 0 0 1 1.7-.566c.681 0 1.21.188 1.626.566.416.34.643.907.643 1.625 0 .341-.076.644-.151.945-.113.302-.302.604-.53.907a9.4 9.4 0 0 1-.868.982q-.567.512-1.36 1.134c-1.853 1.512-3.668 3.024-5.52 4.536m-8.24 3.214c1.21 0 2.23-.227 3.138-.682a6.4 6.4 0 0 0 2.268-1.852c.643-.794 1.096-1.738 1.398-2.872.34-1.134.491-2.344.491-3.704v-.038c0-.831-.038-1.587-.151-2.229a7 7 0 0 0-.416-1.701 5.7 5.7 0 0 0-.605-1.361 5.3 5.3 0 0 0-.793-1.02c-.34-.303-.643-.567-.983-.794-.34-.265-.718-.415-1.096-.566a6 6 0 0 0-1.248-.34 9 9 0 0 0-1.512-.114c-.945 0-1.777.152-2.57.454s-1.474.68-2.002 1.21c-.567.528-1.021 1.133-1.323 1.852-.303.717-.454 1.474-.454 2.344v.037c0 .831.151 1.588.416 2.268.264.681.68 1.209 1.209 1.7.529.454 1.134.794 1.89 1.059a8.2 8.2 0 0 0 2.456.378q1.078 0 1.928-.34c.529-.189 1.021-.453 1.437-.831-.113 1.133-.453 2.078-1.021 2.759-.529.718-1.323 1.058-2.344 1.058q-1.076 0-1.927-.34c-.567-.227-1.134-.604-1.739-1.097-.643.945-1.285 1.854-1.927 2.797.718.568 1.512 1.059 2.343 1.398.869.377 1.928.567 3.137.567m.68-9.034c.907 0 1.625-.227 2.116-.718a2.32 2.32 0 0 0 .756-1.738v-.076a2.38 2.38 0 0 0-.793-1.814c-.491-.49-1.209-.717-2.154-.717-.907 0-1.625.227-2.117.717-.491.455-.718 1.059-.718 1.814v.039c0 .755.265 1.321.756 1.813q.793.68 2.154.68m-11.073-8.05h-4.423v2.873h3.327v13.907h3.59v-16.78zM137.5 38.476c-54.69 0-99.024 44.334-99.024 99.024s44.333 99.062 99.024 99.062 99.062-44.371 99.062-99.062S192.19 38.476 137.5 38.476m32.24 73.927c0 14.589-1.929 28.271-5.707 40.933 21.052 13.343 40.402 17.046 55.937 18.671 4.461-10.62 6.916-22.261 6.916-34.507 0-49.361-40.024-89.387-89.386-89.387S48.113 88.139 48.113 137.5c0 12.284 2.457 23.963 6.955 34.584 15.685-1.589 35.339-5.179 56.731-18.748-3.591-12.056-5.48-25.02-5.669-38.816 0-1.663.151-3.212.416-4.837.227 2.835.378 5.708.756 8.542 1.285 10.922 4.346 21.846 8.807 32.277a273 273 0 0 0 4.573-3.288c-5.405-10.243-9.638-21.808-12.17-34.811-.416-2.154-.793-4.309-1.209-6.5.454-1.928.907-3.893 1.436-5.82 1.21 4.082 2.382 8.202 3.591 12.321 3.477 11.491 8.126 21.62 13.758 30.539 1.965-1.625 3.93-3.364 5.934-5.178a116.3 116.3 0 0 1-14.098-23.434c-3.288-6.727-5.291-13.342-7.673-19.956 2.457-8.617 5.368-16.328 9.751-20.863-1.474-.718-2.607-2.268-3.515-5.594 5.594 1.059 13.53.152 21.014.946 7.862.793 15.496 4.497 15.723 8.768 10.054 4.8 12.171 11.263 7.445 18.709-3.023-7.03-15.534-9.827-20.749-3.477-4.762 5.783-1.172 12.246 4.12 15.836s9.146 3.704 14.74 3.704c-3.969 9.261-9.07 17.727-14.931 25.361a147 147 0 0 0 5.936 5.178c5.594-8.919 10.242-19.048 13.757-30.539h3.817c-2.57 13.002-6.766 24.567-12.169 34.811a175 175 0 0 0 4.572 3.288c5.215-12.283 8.542-25.248 9.335-38.099zm43.73 72.228c-17.916-2.041-36.624-8.957-53.255-20.334-1.36 3.439-2.91 6.766-4.572 10.016 14.475 10.469 31.143 17.651 48.793 22.451a92 92 0 0 0 9.034-12.133M192.757 207.8c-14.589-5.442-29.329-13.343-42.444-24.227a106 106 0 0 1-6.122 8.692c10.469 10.507 22.488 18.897 35.376 24.114a93 93 0 0 0 13.19-8.579m-27.325 14.627c-10.546-6.577-19.729-14.211-27.516-22.715-7.824 8.579-17.122 16.252-27.78 22.903a89.7 89.7 0 0 0 27.364 4.271c9.751 0 19.125-1.549 27.932-4.459m-69.62-5.859c13.039-5.179 25.286-13.683 35.831-24.303a121 121 0 0 1-6.123-8.73c-13.267 11.073-28.233 19.049-42.974 24.454a87.4 87.4 0 0 0 13.266 8.579m-25.059-19.616c17.877-4.8 34.81-12.056 49.475-22.64-1.664-3.25-3.213-6.576-4.574-10.016-16.895 11.527-35.906 18.52-54.086 20.409a91 91 0 0 0 9.185 12.247m76.083-118.904c.906-.113 1.738-.567 2.268-.908-4.045.567-7.823-.944-12.964-.566 1.323.227 2.684.416 3.325.605.53 2.041 1.777 3.628 3.554 3.628 1.738 0 2.985-1.323 3.817-2.759m-8.92 107.452a131 131 0 0 0 6.085-7.596 119 119 0 0 1-6.085-6.199c-1.965 2.154-3.969 4.232-6.047 6.199 1.927 2.607 3.968 5.139 6.047 7.596m11.717-15.798c1.928-2.985 3.666-6.047 5.328-9.185a131 131 0 0 1-5.177-4.158 121 121 0 0 1-5.858 8.277 142 142 0 0 0 5.707 5.066m-23.434 0a123 123 0 0 0 5.745-5.065 135 135 0 0 1-5.896-8.277c-1.701 1.437-3.402 2.835-5.179 4.158a138 138 0 0 0 5.33 9.184m11.717-24.832c-1.965 2.192-4.006 4.271-6.123 6.313a106 106 0 0 0 6.123 7.332 89 89 0 0 0 6.123-7.332 162 162 0 0 1-6.123-6.313"/></svg>