<svg xmlns="http://www.w3.org/2000/svg" width="250.951" height="398.483" viewBox="0 0 375.1 595.28"><path fill="#ca9f54" d="M79.55 505.53c-31.22-43.59-48.41-101.88-48.41-164.15 0-62.26 17.19-120.56 48.41-164.15 29.78-41.58 68.73-64.48 109.68-64.48s79.9 22.9 109.68 64.48c31.22 43.59 48.41 101.89 48.41 164.15s-17.19 120.56-48.41 164.15c-29.78 41.58-68.73 64.48-109.68 64.48-40.95.01-79.9-22.89-109.68-64.48"/><path fill="#3b54a4" d="M84.14 498.67c-29.91-41.77-46.38-97.63-46.38-157.28 0-59.66 16.47-115.52 46.39-157.28 28.53-39.84 65.86-61.79 105.1-61.79s76.56 21.94 105.1 61.79c29.91 41.77 46.38 97.63 46.38 157.28 0 59.66-16.47 115.52-46.38 157.28-28.53 39.84-65.86 61.79-105.1 61.79-39.25 0-76.58-21.94-105.11-61.79"/><path fill="#ca9f54" d="m132.38 32.04 10.42 24.95 26.94 2.2-20.5 17.62 6.23 26.31-23.09-14.06-23.1 14.06 6.23-26.31-20.5-17.62 26.95-2.2zM246.1 32.04l10.42 24.95 26.94 2.2-20.5 17.62 6.23 26.31-23.09-14.06-23.1 14.06 6.23-26.31-20.5-17.62 26.94-2.2z"/><path fill="#fff" d="M172.44 504.36v-9.49c-.55.51-1.63 1.38-3.25 1.91v-2.28c.26-.09 2.94-1.12 3.73-3.34h2.06v13.2zM181.2 501.04c.04.31.2 1.45 1.47 1.45 1.76 0 1.93-2.28 2.02-3.63l-.04-.04c-.81.99-1.82 1.08-2.29 1.08-2.07 0-3.84-1.69-3.84-4.3 0-2.62 1.71-4.44 4.22-4.44 1.16 0 3.14.42 4.06 3.03.4 1.16.5 2.37.5 3.6 0 1.19 0 6.79-4.79 6.79-1.17 0-2.31-.44-3.03-1.43-.5-.7-.64-1.45-.7-1.84zm1.41-7.78c-1.62 0-1.62 1.98-1.62 2.35 0 .31 0 2.46 1.74 2.46.33 0 1.73-.13 1.73-2.24.01-1.3-.64-2.57-1.85-2.57M198.25 504.36h-8.83c.2-1.95 1.17-3.32 3.69-5.67 1.76-1.63 2.61-2.42 2.62-3.69-.02-1.6-1.25-1.74-1.71-1.74-1.17 0-1.71.72-1.8 2.06l-2.51-.26c.07-.62.26-2 1.3-2.9.9-.75 2.17-.99 3.06-.99 3.05 0 4.17 2.02 4.17 3.67 0 2.29-1.67 3.84-2.95 5.01-1.28 1.19-1.71 1.58-2.06 2.17h5.01v2.34zM208.73 493.83c.53 1.47.57 3.14.57 4.06 0 .84-.02 2.51-.57 3.98-.53 1.47-1.6 2.72-3.69 2.72-2.11 0-3.19-1.23-3.73-2.68-.55-1.47-.55-3.14-.55-4.06 0-.88.02-2.55.55-4 .55-1.45 1.61-2.68 3.71-2.68 2.09 0 3.16 1.21 3.71 2.66m-5.32 4.05c0 3.49.42 4.61 1.62 4.61 1.21 0 1.63-1.14 1.63-4.61 0-3.49-.42-4.63-1.63-4.63-1.2.01-1.62 1.13-1.62 4.63"/><path fill="#fff" stroke="#cca056" stroke-miterlimit="10" d="M306.5 467.16V312.42l.01-.87c9.4 3.93 18.69 8.36 27.88 13.26l.48.27c.28 5.39.42 10.83.42 16.3 0 46.28-10.07 90.18-28.75 126.72zM213.71 551.11V288.88l.61.01c14.41 1.19 28.67 3.42 42.74 6.67l.5.11v233.34l.01.86c-13.74 10.79-28.54 18.25-43.9 22.1zM71.16 311.89c-9.05 3.82-18 8.08-26.84 12.8l-.71.47c-.28 5.37-.42 10.78-.42 16.22 0 46.19 10.03 90.01 28.64 126.52l.14-.75V311.57zM120.92 295.68v233.34l-.01.86c13.74 10.78 28.53 18.24 43.87 22.1l-.02-.7v-262.4l-.61.01a298 298 0 0 0-42.36 6.59z"/><path fill="#fff" stroke="#cca056" stroke-miterlimit="10" d="M43.79 324.98c2.53-40.84 13-79.21 30.36-111.49l.59.23c34.7 14.86 73.52 23.18 114.49 23.18 41.19 0 80.2-8.4 115.04-23.41l.31.51c17.19 32.16 27.57 70.31 30.09 110.92l-.43-.19c-43.02-22.75-91.36-36.52-145.01-36.52-53.55 0-101.82 13.72-144.78 36.4z"/><path fill="#ca9f54" d="M191.58 322.42c21.33 0 37.48-3.76 57.52-13.63-3.26 12.78-10.53 44.55-12.16 79.03-1.04 2.64-6.75 17.51-12.7 41.14-2.93 11.65-4.39 23.88-4.39 35.8 0 13.78 1.95 27.13 5.81 38.67 3.4 10.14 9.8 23.61 13.79 31.63-17.62-7.03-34.62-8.02-47.87-8.02-13.26 0-30.25 1-47.87 8.02 3.98-8.02 10.39-21.49 13.79-31.63 3.86-11.54 5.81-24.89 5.81-38.67 0-11.92-1.46-24.15-4.38-35.8-5.94-23.63-11.65-38.49-12.7-41.14-1.63-34.49-8.9-66.25-12.16-79.03 20.03 9.86 36.18 13.63 57.51 13.63"/><path fill="#3b54a4" d="M173.06 410.59v-10.6c-.38-.07-.89-.22-1.29-.65-.34-.37-.52-.86-.52-1.44 0-1.92 2.28-1.92 4.11-1.92h.52V375.7c0-.66.34-1.24.84-1.55l.09-.04v-16.99l-.01-.07c-.12-.09-.23-.2-.33-.31-.83-1.01-.55-2.28-.29-2.76.2-.4.51-.72.89-.91l.07-.1 13.94-23.03.4-.67 14.34 23.69.07.1c.38.19.69.52.89.91.26.48.55 1.74-.29 2.76-.1.12-.21.22-.33.31l-.01.11v16.94l.04.02c.53.29.89.89.89 1.58v20.28h.52c1.83 0 4.11 0 4.11 1.92 0 .57-.18 1.07-.52 1.44-.4.43-.91.59-1.29.65v10.79l.08.04c2.38.16 3.74.8 3.74 3.13 0 1.77-1.51 3.45-2.01 3.96v77.98c1.43 1.14 1.91 2.52 1.91 5.61 0 .94-.07 1.89-.6 2.42-.43.43-1 .44-1.4.41h-40.26c-.4.04-.99.03-1.43-.41-.53-.53-.6-1.48-.6-2.42 0-3.1.48-4.47 1.91-5.61V417.9c-.51-.52-2.01-2.19-2.01-3.96 0-2.36 1.4-2.99 3.84-3.14zm24.38-53.06v16.29l.01.1h5.39l.1-.01v-16.5h-5.5zm-11.92 16.25v-16.35h-5.5v16.5l.09-.01h5.4zm3.21.14h5.49l.01-.13v-16.28l-.01-.09h-5.49v16.37z"/><g fill="#fff"><path d="m185.29 380.86-6.6-5.78-.12-.1h12.59l-.01.1v3.29l-.15.02c-2.24.12-4.24 1.07-5.64 2.53zM197.58 380.91c-1.41-1.46-3.43-2.42-5.68-2.52h-.11v-3.33l-.01-.08h12.59l-.19.17-6.53 5.71zM174.24 399.28c-1.38 0-2.12-.56-2.02-1.38.11-.85 1.42-.87 3.14-.87h32.24c1.72 0 3.04.02 3.14.87.1.82-.64 1.38-2.02 1.38zM179.79 353.74c-1.26-.01-1.71.01-2.24.25-.53.25-.83 1.18-.47 1.9.18.29.49.48.84.48h27.12c.35 0 .66-.19.84-.48.36-.72.05-1.65-.47-1.9-.53-.25-.98-.26-2.24-.25zM203.58 373.92v-16.39l.01-.1h1.45c.16 0 .32-.02.47-.06v16.56l-.06.01h-1.78zM196.79 357.54v16.380000000000003h-1.91l-.01-.11v-16.39h1.92zM178.43 353.07h26.28l-.06-.12c-2.84-4.69-12.52-20.68-13.17-21.75-.66 1.08-10.5 17.34-13.24 21.87z"/><path d="M183.93 385.97c0-3.8 3.39-6.89 7.55-6.89s7.55 3.09 7.55 6.89-3.39 6.89-7.55 6.89-7.55-3.09-7.55-6.89m10.76 2.45c-.9-.82-2.34-2.12-2.69-2.43.39-.32 1.99-1.64 2.86-2.37l.36-.79-.73.21-3.53 2.92 3.32 3.01.95.42zM170.78 415.69c.42.71.97 1.32 1.26 1.59l.09.05h38.74l.04-.05c.29-.27.84-.87 1.26-1.58l-.13-.01H170.9zM170.42 414.98c-.14-.34-.22-.69-.22-1.02 0-1.23.23-1.99 3.36-2.11h35.85c3.12.12 3.34.87 3.34 2.11 0 .33-.08.67-.22 1.01l-.13.03h-41.86zM170.45 499.08c-.11.63-.15 1.42-.15 2.43 0 .58.03 1.39.29 1.64.04.04.18.18.74.13h12.87l.01-.16v-3.95l-.01-.1h-13.65zM171.91 496.64c-.64.48-1.04.99-1.29 1.74h13.59l-.01-.11v-1.56l-.01-.12h-12.24zM186.66 503.12v-9.72c-.03-1.4.15-3.32 1.21-4.5.77-.86 1.99-1.3 3.61-1.3s2.84.44 3.61 1.3c1.06 1.18 1.24 3.06 1.21 4.44v9.82l-.01.13h-9.62z"/><path d="M184.85 503.17v-9.78c-.06-2.52.54-4.55 1.73-5.87 1.13-1.26 2.78-1.89 4.9-1.89 2.13 0 3.78.64 4.91 1.89 1.19 1.32 1.78 3.35 1.73 5.87v9.76l-.01.15h-1.16v-9.94c.03-1.5-.18-3.58-1.39-4.94-.9-1-2.27-1.51-4.07-1.51s-3.17.51-4.07 1.51c-.96 1.07-1.44 2.8-1.39 4.99v9.73l.01.16h-1.17zM212.53 499.23c.09.61.13 1.34.13 2.28 0 .58-.03 1.39-.29 1.64-.04.04-.18.18-.7.13h-12.909999999999998v-4.199999999999999h13.75zM212.29 498.25c-.24-.68-.63-1.15-1.23-1.6l-.07-.06h-12.24v1.7900000000000003h13.57zM186.16 373.78v-16.36h1.92v16.499999999999996h-1.92zM179.26 373.92h-1.75l-.06-.01v-16.46l.01-.09c.15.04.3.06.46.06h1.46v16.49zM199.65 385.33c-.13-1.45-.7-2.78-1.59-3.89l.05-.07 7.23-6.32.12-.08c.36 0 .66.32.66.72v9.88l-.07.01h-6.38zM176.85 395.79v-9.51h6.28l.16.01c.07 1.53.63 2.94 1.54 4.11l-.14.12-6.43 5.37-.1.08h-1.31zM176.85 385.57v-9.88c0-.4.3-.72.66-.72l.1.06 7.21 6.31.1.08a7.26 7.26 0 0 0-1.63 4.16h-6.340000000000001zM191.8 395.98v-2.3l.01-.11c2.34-.09 4.43-1.09 5.86-2.62l.11.09 5.74 4.79.2.17h-11.8zM184.76 410.69v-4.73l.01-.11h-10.74v4.94h10.72zM197.55 410.58v-4.73h-12.14l-.01.08v4.76l.01.1h12.15zM198.2 410.66v-4.8100000000000005h10.729999999999999v4.94H198.2zM191.8 404.94v-4.88l.01-.08h12.14v5.1l-.01.07h-12.13zM204.6 405.02v-5.04h4.33v5.17h-4.33zM178.36 405.02v-4.91l.01-.13h-4.34v5.17h4.34zM179.01 405.04v-4.91l-.01-.15h12.16v5.17H179zM185.15 391.03l-5.79 4.83-.15.11h11.93v-2.4099999999999997c-2.34-.08-4.44-1.09-5.88-2.63zM199.66 386.41c-.09 1.49-.65 2.87-1.55 4.02l.12.08 6.42 5.36.14.12h1.32v-9.7l-.1.01h-6.34zM198.55 490.69q.24 1.245.21 2.7v2.5h11.99v-5.34h-12.23zM178.36 484.61v5.12l.01.12h-6.15v-5.33l.1-.01h6.05zM198.2 423.28v-5.25h12.54v5.34H198.2zM184.76 423.28v-5.15l-.01-.1h-12.53v5.340000000000001h12.53zM185.4 423.24v-5.13l.01-.08h12.15l-.01.09v5.25h-12.14zM172.22 490.7v5.18h11.989999999999998l-.01-.1v-2.39c-.02-.97.05-1.88.21-2.71l.02-.13h-12.22z"/><path d="M203.95 489.73v-5.14l.01-.08H191.8v.4l.11.03c2.1.08 3.76.79 4.94 2.1.66.73 1.15 1.65 1.47 2.72l.03.1h5.62zM204.6 489.76v-5.25h6.14v5.34h-6.14zM191.05 484.51h-12.04v5.34h5.6l.03-.1c.32-1.07.81-1.99 1.47-2.72 1.17-1.3 2.82-2.01 4.91-2.1h.13v-.43zM190.63 427c0-.6.39-1.12.85-1.12s.85.51.85 1.12v4.19h-1.69c-.01-.82-.01-4.19-.01-4.19M190.63 441.93c0-.6.39-1.12.85-1.12s.85.51.85 1.12v4.19h-1.69c-.01-.82-.01-4.19-.01-4.19M178.36 453.48v-5.23h-6.14v5.34h6.15zM179.01 453.45v-5.2h12.14l.01.07v5.2700000000000005h-12.15zM204.6 453.42v-5.08l-.01-.09h6.15v5.34h-6.14zM203.95 453.48v-5.13l-.01-.1h-12.13l-.01.07v5.2700000000000005h12.16z"/><path d="M189.67 442.31v4.87h3.62v-4.97h4.26v5.34h-12.14l-.01-.15v-5.19h4.26zM198.2 447.42v-5.21h12.54v5.34H198.2zM184.76 447.43v-5.1l.01-.12h-12.549999999999999v5.33l.13.01h12.4zM178.36 441.35v-5.06l.01-.13h-6.1499999999999995v5.35l.09-.01h6.06zM179.01 441.4v-5.24h12.14l.01.09v3.42l.01.13c-.71.15-1.28.79-1.45 1.61l-.02.09H179zM204.6 441.38v-5.220000000000001h6.14v5.34h-6.15zM203.95 441.35v-5.12l-.01-.08H191.8v3.64c.71.15 1.27.79 1.44 1.62l.01.08h10.7zM184.76 435.33v-5.1l-.01-.11h-12.44l-.09-.01v5.33l.14.02h12.39zM197.55 435.33v-5.21h-4.16l-.1-.01v2.14h-3.62v-2.14l-.11.01h-4.15l-.01.08v5.260000000000001h12.16zM198.2 435.31v-5.1899999999999995h12.54v5.34H198.2zM203.95 424.18v5.09l-.01.15h-10.65V427c0-1.06-.64-1.95-1.49-2.13v-.74l.01-.05h12.14zM178.36 429.31v-5.2299999999999995h-6.04l-.1-.01v5.34l.1.01h6.05zM179.01 429.28v-5.14l-.01-.06h12.16l-.01.06v.73c-.85.18-1.49 1.07-1.49 2.13v2.41H179zM204.6 429.33v-5.25h6.14v5.34h-6.14zM190.63 456.86c0-.6.39-1.12.85-1.12s.85.51.85 1.12v4.19h-1.69c-.01-.82-.01-4.19-.01-4.19M190.63 471.79c0-.6.39-1.12.85-1.12s.85.51.85 1.12v4.19h-1.69c-.01-.82-.01-4.19-.01-4.19M197.55 478.55v5.26h-12.13l-.02-.16v-5.09l.01-.09h12.15zM198.2 478.56v5.25h12.54v-5.34H198.2zM184.76 483.68v-5.12l.01-.09h-12.55v5.33l.08.01h12.47z"/><path d="M189.67 471.62c.07-1.12.86-2 1.81-2s1.72.87 1.81 1.97l.02.12h4.26l-.01-.12v-5.12l.01-.1H185.4l.01.09v5.26h4.26zM198.2 471.56v-5.18h12.54v5.340000000000001h-12.53zM184.76 471.62v-5.15l-.01-.09h-12.53v5.34h12.53zM198.2 459.49v-5.2h12.54v5.340000000000001h-12.55zM185.4 459.5v-5.12l-.01-.09h12.15l.01.06v5.13l-.01.15h-4.26v-2.77c0-1.2-.81-2.17-1.81-2.17s-1.81.97-1.81 2.17v2.77h-4.26zM184.76 459.51v-5.11l.01-.11h-12.549999999999999v5.35l.15-.01h12.38zM204.6 465.55v-5.13l-.01-.08h6.15v5.34h-6.14zM178.36 465.55v-5.13l.01-.08h-6.15v5.33l.09.01h6.06zM179.01 465.56v-5.22h10.64l.02.09v1.68h1.48l.01.06v3.52l-.21-.01H179zM191.8 465.67v-3.47l-.01-.09h1.5v-1.77h10.66v5.2l.01.14h-12.02zM204.6 477.63v-5.13l-.01-.08h6.15v5.34h-6.14zM191.8 477.76h12.16l-.01-.07v-5.16l.01-.11h-10.59l-.08.01v4.61h-1.49zM191.16 477.76h-12.15v-5.2299999999999995l-.01-.11h10.67v4.62h1.48zM178.36 477.62v-5.2h-6.29v5.34h6.3z"/></g><path fill="#3b54a4" d="M146.69 210.99c-1.09.31-1.78.77-2.11 1.42-.27.55-.26 1.21.03 1.97.71 1.81 1.83 2.32 3.73 1.7l1.22-.4 3.28-1.05c11.03-3.28 23.61-5.01 36.38-5.01s25.35 1.73 36.38 5.01l3.28 1.05 1.22.4c1.91.62 3.02.11 3.74-1.7.15-.39.23-.76.23-1.1 0-.31-.07-.6-.2-.87-.32-.65-1.02-1.12-2.13-1.43l-.27-.08c1.15-3.28 3.92-11.16 3.99-11.36.53-.3 2.74-1.6 4.15-3.37.88-1.1 2.25-4.5 2.8-5.9l-.1-.05c-.98-.42-1.97-.83-2.97-1.22 0 0-.14-.06-.14-.07.65-1.84 2.45-6.97 2.5-7.11l2.78-2.58c.51-.47 1.08-1.36 1.3-2.01l1.73-5.13c.05-.16.08-.32.08-.47 0-.63-.41-1.23-1.05-1.44l-3.1-1.05c-.8-.27-1.67.15-1.93.94l-.96 2.84-2-.67c.19-.55.96-2.84.96-2.84.05-.16.08-.31.08-.47 0-.23-.05-.46-.16-.67-.18-.37-.5-.64-.89-.77l-3.1-1.05c-.8-.27-1.66.16-1.93.94 0 0-.77 2.28-.96 2.83l-2-.67c.19-.55.96-2.84.96-2.84.05-.15.08-.31.08-.47 0-.23-.05-.46-.16-.67-.18-.37-.5-.64-.89-.77l-3.1-1.05c-.8-.27-1.66.15-1.93.94l-1.73 5.14c-.15.45-.24 1.08-.24 1.66 0 .26.02.52.06.73 0 0 .62 3.56.65 3.74-.04.11-1.68 4.98-2.79 8.27l-.16-.04c-1.62-.4-3.27-.77-4.92-1.1l-.03.13-1.29 3.08-.07.12c-.91-.16-1.82-.31-2.74-.46l-.01-.1.11-3.51-.12-.03c-1.97-.33-3.97-.62-5.97-.87l-.03.11-.96 3.28-.06.19c-.94-.1-1.89-.19-2.84-.27v-.26l.08-3.32v-.15l-.95-.09-.01-.16v-9.9c.09-.15 1.22-2.17 1.22-2.17.31-.56.56-1.49.56-2.13v-7.69c0-.77-.64-1.4-1.43-1.4h-2.37c-.79 0-1.43.63-1.43 1.4v3.17h-2.38v-3.17c0-.77-.64-1.4-1.43-1.4h-2.37c-.79 0-1.43.63-1.43 1.4v3.17h-2.38v-3.17c0-.77-.64-1.4-1.43-1.4h-2.37c-.79 0-1.44.63-1.44 1.4v3.17h-2.38v-3.17c0-.77-.64-1.4-1.43-1.4h-2.37c-.79 0-1.43.63-1.43 1.4v7.69c0 .64.25 1.57.56 2.13l1.22 2.17v10.02l-.1.05c-.28.02-.56.05-.84.08l-.02.11.08 3.41.02.2c-.96.08-1.91.18-2.86.28l-.03-.1-1.02-3.5-.13.03c-2 .25-3.99.54-5.95.87v.18l.1 3.26-.01.18c-.92.14-1.84.3-2.75.46l-.06-.1-1.35-3.23-.13.02c-1.65.34-3.31.71-4.93 1.11l-.07-.18c-1.11-3.29-2.69-7.98-2.73-8.1l.65-3.74c.04-.22.06-.47.06-.73 0-.58-.09-1.21-.24-1.66l-1.73-5.14a1.52 1.52 0 0 0-1.93-.94l-3.1 1.05c-.39.13-.71.41-.89.77-.1.21-.16.44-.16.67 0 .16.03.32.08.47l.96 2.84-2 .67c-.19-.55-.96-2.84-.96-2.84-.26-.79-1.13-1.21-1.93-.94l-3.1 1.05c-.39.13-.71.41-.89.77-.1.21-.16.44-.16.67 0 .16.03.32.08.47l.96 2.84-2 .67c-.19-.55-.96-2.84-.96-2.84a1.52 1.52 0 0 0-1.93-.94l-3.1 1.05c-.64.22-1.05.81-1.05 1.44 0 .16.03.32.08.47l1.73 5.14c.22.65.79 1.54 1.3 2.01 0 0 2.66 2.47 2.78 2.58l2.5 7.11-.21.1c-1.02.4-2.03.82-3.02 1.24l.06.13c.58 1.47 1.9 4.7 2.75 5.77 1.41 1.77 3.62 3.07 4.15 3.37.07.2 2.83 8.06 3.99 11.35z"/><path fill="#fff" d="M222.85 208.33v-3.79l.14.03c3.07.78 6.06 1.66 8.93 2.65l.08.03-1.16 3.3-.05.12-3.24-1.05c-1.5-.45-3.03-.87-4.58-1.27zM227.06 201.27v3.92l.15.06c1.66.48 3.29 1 4.88 1.55l.07.01 1.23-3.51-.15-.06c-1.98-.7-4.01-1.34-6.08-1.94zM177.17 200.59v-3.88l.16-.02c1.05-.08 2.1-.16 3.16-.22l-.03.17c-.11.99-.13 2.11-.11 3.44v.29l-.14.01c-.97.06-1.94.13-2.91.2zM188.2 175.14v-3.44c0-.43.36-.78.81-.78h.45c.45 0 .81.35.81.78v3.44c0 .43-.36.78-.81.78h-.45c-.45-.01-.81-.36-.81-.78M182.59 170.44h2.53v-2.41h-8.75l-.12.01c.04.11.09.22.14.3l1.17 2.09h2.88l.09-.06c.22-.12.48-.2.76-.2h.45c.28 0 .55.08.78.21zM180.48 175.14v-3.44c0-.43.36-.78.81-.78h.45c.45 0 .81.35.81.78v3.44c0 .43-.36.78-.81.78h-.45c-.45-.01-.81-.36-.81-.78M195.93 175.14v-3.44c0-.43.36-.78.81-.78h.45c.45 0 .81.35.81.78v3.44c0 .43-.36.78-.81.78h-.45c-.45-.01-.81-.36-.81-.78M175.92 164.82v-5.93c0-.37.31-.67.7-.67h2.37c.39 0 .7.3.7.67v3.9h3.84v-3.9c0-.37.32-.67.7-.67h2.37c.39 0 .7.3.7.67v3.9h3.85v-3.9c0-.37.32-.67.7-.67h2.37c.39 0 .7.3.7.67v3.9h3.84v-3.9c0-.37.31-.67.7-.67h2.37c.39 0 .7.3.7.67v6.05h-26.61zM189.46 167.47v-1.94l.01-.11h13.069999999999999v1.18c0 .28-.07.65-.16 1.01l-.1-.01h-12.81zM189.01 167.51v-2.11h-13.08v1.17c0 .28.06.64.16.99l.16.01h12.77zM198.07 170.44h2.7l.13.02 1.18-2.1c.05-.09.1-.19.15-.31l-.14-.01h-8.72l-.01.07v2.25l.01.09h2.52l.1-.06c.22-.12.48-.19.75-.19h.45c.28 0 .55.07.77.2zM190.31 170.44h2.6l-.01-.09v-2.32h-7.32v2.24l.01.16h2.56l.08-.04c.23-.13.5-.21.78-.21h.45c.28 0 .54.07.77.2zM198.56 176.05h2.22v-5.13l-.1-.01h-2.05l-.12.02c.14.23.22.49.22.78v3.44c0 .34-.12.66-.31.91zM185.12 184.1v-7.6h-2.75c-.19.09-.41.13-.64.13h-.45a1.6 1.6 0 0 1-.62-.13l-.2-.01h-2.76l-.01.1v4.27h.15c1.43-.12 2.86-.21 4.3-.28l.13-.02.51 3.6.03.15c.77-.03 1.54-.06 2.3-.08zM193.36 184.03v-7.37l.01-.16h2.73l.1.04c.17.06.35.1.54.1h.45c.17 0 .34-.03.49-.08l.13-.06h2.96v4.17l.01.2a116 116 0 0 0-4.6-.3l-.02.14-.49 3.51v.1c-.77-.03-1.54-.06-2.31-.08zM192.9 184.04v-7.53h-2.67l-.14.01c-.19.08-.4.13-.62.13h-.45a1.5 1.5 0 0 1-.64-.14h-2.77l-.01.09v7.64h.13l.02-.17.18-3.43.03-.17h6.46l.16-.01.19 3.7.01.09h.13zM190.77 175.93c.15-.23.23-.5.23-.79v-3.44c0-.3-.09-.57-.24-.8l.14.01h4.4l.12-.01c-.15.23-.24.51-.24.8v3.44c0 .34.11.65.3.9l-.14.02h-4.66zM183.04 175.94c.15-.23.24-.51.24-.8v-3.44c0-.25-.06-.49-.17-.69l-.06-.1h4.5l.15.01c-.15.23-.23.5-.23.79v3.44c0 .3.09.58.24.81l.08.1h-4.83zM177.7 175.92v-5l.14-.01h2.13l-.06.13c-.1.2-.16.43-.16.67v3.44c0 .29.09.57.24.8l.09.11h-2.37zM145.3 214.12c-.22-.56-.24-1.01-.06-1.38.22-.45.78-.8 1.67-1.05.02-.01 4.22-1.37 4.22-1.37 11.48-3.45 24.66-5.28 38.1-5.28 13.45 0 26.62 1.82 38.1 5.28l4.2 1.36c.9.26 1.47.61 1.69 1.06.18.36.16.81-.06 1.38-.57 1.46-1.29 1.78-2.83 1.27l-1.22-.4-3.3-1.06c-11.1-3.3-23.75-5.04-36.59-5.04s-25.49 1.74-36.59 5.04l-3.3 1.06-1.22.4c-1.52.51-2.23.19-2.81-1.27M142.25 183.91l-.81-2.39c-.07-.19-.05-.4.04-.59s.25-.32.45-.39l.37-.12c.4-.14.85.08.98.49l.81 2.39c.03.08.04.16.04.25 0 .12-.03.24-.08.35-.09.19-.25.33-.45.39l-.37.12c-.41.12-.85-.1-.98-.5M148.45 179.16a.7.7 0 0 1-.04-.25c0-.32.2-.63.53-.74l.37-.12c.41-.14.85.08.98.49l.8 2.39c.07.2.05.41-.04.59-.09.19-.25.33-.45.39l-.37.12c-.4.14-.85-.08-.98-.49zM235.2 180.9a.78.78 0 0 1 .98-.49l.37.12q.3.105.45.39c.09.19.11.4.04.59l-.81 2.39a.78.78 0 0 1-.98.49l-.37-.12c-.2-.06-.35-.2-.45-.39a.85.85 0 0 1-.08-.35c0-.08.01-.17.04-.25zM228.23 182.03l-.37-.12a.82.82 0 0 1-.45-.39.76.76 0 0 1-.04-.59l.81-2.39a.78.78 0 0 1 .98-.49l.37.12a.784.784 0 0 1 .49.99l-.81 2.39c-.13.4-.57.62-.98.48"/><path fill="#fff" d="M182.56 191.42c-14.03.61-27.38 3.15-39.09 7.38l-.18.07c-.5-.29-1.98-1.19-3.19-2.39l.14-.07c14.32-5.78 31.26-8.89 49-8.89 17.76 0 34.72 3.12 49.05 8.92l.09.04c-1.21 1.2-2.69 2.11-3.19 2.39l-.1-.04c-11.73-4.25-25.11-6.8-39.17-7.41l-.15-.01c-1.65-1.85-4.05-2.96-6.52-2.96s-4.87 1.11-6.53 2.96z"/><path fill="#fff" d="M139.75 196.12a6 6 0 0 1-.33-.39c-.68-.85-1.73-3.33-2.37-4.91l-.05-.15c1.51-.64 3.06-1.25 4.63-1.83l.06.12 1.73 3.25.1.18q1.98-.705 4.02-1.35l-.01-.21-.26-2.88-.01-.11c1.42-.49 2.87-.95 4.33-1.39l.12-.04 1.4 2.93.04.07c1.36-.36 2.73-.69 4.12-1.01l-.03-.2-.3-3.03-.02-.18c1.49-.37 3.01-.72 4.54-1.04l.15-.02 1.34 3.21.05.09c1.32-.24 2.65-.46 3.98-.66l-.02-.15-.1-3.32-.01-.15c1.53-.25 3.08-.48 4.63-.68l.18-.04 1.01 3.43.06.16c1.37-.15 2.74-.28 4.12-.4l-.02-.22-.08-3.39-.01-.11c1.58-.14 3.17-.26 4.77-.34h.13l.5 3.53.04.2c1.4-.07 2.82-.11 4.23-.14l.01-.14.18-3.47.02-.15h5.09l.15-.01.19 3.64v.14c1.42.03 2.83.07 4.23.14l.05-.24.47-3.32.04-.17c1.63.09 3.27.2 4.88.35v.13l-.08 3.36-.02.24c1.39.11 2.77.25 4.14.4l.05-.17.96-3.28.04-.13c1.57.2 3.14.43 4.69.68l.11.02-.11 3.39-.01.23c1.33.2 2.66.42 3.97.66l.07-.16 1.28-3.06.04-.1c1.52.32 3.03.66 4.52 1.03l.18.04-.32 3.26v.17c1.39.32 2.76.65 4.12 1.01l.06-.15 1.31-2.75.07-.11c1.44.43 2.87.88 4.27 1.36l.17.05-.27 3.01-.02.2c1.33.42 2.65.86 3.95 1.32l.09.03 1.85-3.47.04-.08c1.53.56 3.03 1.16 4.5 1.77l.13.06c-.63 1.57-1.73 4.17-2.43 5.05-.11.14-.22.27-.34.4l-.04-.03c-14.43-5.87-31.53-9.04-49.43-9.04-17.89 0-34.97 3.16-49.39 9.02z"/><path fill="#fff" d="M181.07 204.42v-4.35c-.05-3.31.16-5.24 1.46-7.23 1.46-2.22 4.09-3.66 6.7-3.66 2.62 0 5.25 1.44 6.7 3.66 1.3 1.99 1.51 3.91 1.46 7.22v4.34l.01.14c-.53-.03-1.06-.06-1.59-.08l-.12-.02v-4.24c.05-3.34-.2-4.66-1.19-6.12-1.15-1.71-3.23-2.82-5.29-2.82s-4.13 1.11-5.29 2.82c-.98 1.46-1.24 2.79-1.19 6.15v4.21l-.11.02c-.53.02-1.05.05-1.58.08z"/><path fill="#fff" d="M183.22 204.43v-4.2c-.05-3.26.19-4.53 1.11-5.9 1.07-1.59 2.99-2.62 4.91-2.62 1.91 0 3.84 1.03 4.91 2.62.92 1.37 1.16 2.63 1.11 5.86v4.23h-.11a145 145 0 0 0-11.78 0zM133.25 176.65l-1.61-4.79c-.14-.4.09-.85.51-.99l3.1-1.05c.42-.14.87.08 1 .48l1.19 3.53 3.38-1.14-1.19-3.53c-.06-.19-.05-.4.04-.58.1-.19.26-.34.47-.41l3.1-1.05c.42-.14.87.07 1 .48l1.19 3.53 3.38-1.14-1.19-3.53c-.06-.19-.05-.4.04-.58.1-.19.26-.34.47-.41l3.1-1.05c.42-.14.86.08 1 .48l1.62 4.81.03.11-20.61 6.94zM148.31 186.56l-.89-2.65-.04-.13 7.71-2.6.09-.05 1.06 3.15.03.11c-.05.01-.1.03-.15.04l.03.19.31 3.09.01.13c-.97.23-1.94.47-2.9.71l-.08-.12-1.39-2.91-.1.04c-1.22.36-2.44.74-3.64 1.13zM147.86 186.68l-.9-2.67-.05-.07-7.61 2.56-.11.05.75 2.12.17-.05c.62-.24 1.24-.47 1.87-.7l.06.14 1.74 3.26.09.17c.96-.33 1.92-.66 2.89-.97l-.01-.14-.26-2.9-.02-.15c.48-.17.97-.33 1.45-.5zM142.2 185.05l-3.03 1.02-.13.05-1.44-4.1.16-.06 2.81-.95.12-.03c-.05.26-.03.52.05.77l.81 2.39c.13.39.41.7.76.87zM144.84 184.16l4.47-1.51-.19-.12c-.25-.18-.45-.44-.56-.75l-.81-2.39c-.09-.26-.1-.52-.05-.77l-.11.02-3.92 1.32-.14.05c.19.17.35.39.44.65l.81 2.39c.13.38.1.79-.08 1.15zM151.71 181.84c.18-.36.21-.77.08-1.15l-.8-2.39c-.09-.26-.23-.47-.42-.64l.08-.04 2.95-.99.07-.02 1.38 4.1-.11.06-3.06 1.03zM147.96 178.04l-2.27.76-.06-.18-.71-2.1-.05-.11 8.89-3 .14-.04-.46 2.62.05.15-.06.04-3.43 1.16-.12-.03c-.26-.06-.54-.05-.81.04l-.37.12c-.27.09-.49.25-.66.44zM140.85 180.43l-3.27 1.1-.14.02-.05-.14-1.95-1.81.16-.06 8.86-2.99.03.11.7 2.08.07.2-2.19.74-.07.03c-.3-.09-.62-.1-.94.01l-.37.12c-.3.1-.56.29-.74.55zM135.05 179.24l-.57-.53c-.33-.31-.72-.86-.96-1.35l-.05-.15 20.58-6.93.03.15c.11.53.13 1.21.06 1.66l-.13.77-.09.04-18.69 6.3zM236.17 185c.34-.17.62-.47.75-.86l.81-2.39c.07-.21.09-.44.07-.66l-.01-.13 2.98 1 .11.05-1.44 4.09-.1-.03-3.02-1.02zM229.93 186.64c-1.17-.38-2.36-.75-3.55-1.1l-.07.13-1.31 2.74-.08.15c-.97-.25-1.94-.49-2.92-.72l.02-.19.32-3.2-.15-.06 1.09-3.24.09.03 7.71 2.6-.03.15-.94 2.79zM230.55 186.85l.93-2.76.05-.15 7.65 2.58.09.02-.76 2.17-.16-.08q-.93-.36-1.86-.69l-.04.09-1.84 3.46-.12-.03c-.91-.32-1.84-.63-2.77-.93l-.01-.1.28-3.1-.15-.04c-.38-.13-.75-.26-1.13-.39zM230.79 178.76c.02.21 0 .42-.07.63l-.81 2.39c-.12.35-.36.63-.66.81l-.1.06 4.51 1.52.11.04c-.18-.36-.21-.77-.08-1.15l.81-2.39c.07-.21.18-.39.33-.55l.11-.11-4.16-1.4zM227.81 177.77c-.14.15-.24.33-.31.53l-.81 2.39c-.11.33-.1.69.02 1.02.02.04.04.09.06.13l-3.26-1.1-.08-.01 1.39-4.13.17.05 2.94.99zM232.82 178.68l.72-2.13.05-.13-9.02-3.04.02.14.43 2.49-.05.14.17.08 3.22 1.09.11.03c.29-.09.61-.09.92.01l.37.12c.31.11.56.3.74.55l.13.05 2.14.72zM233.25 178.84l.74-2.2.04-.08 8.93 3.01.07.03-1.95 1.81-.06.16-.09-.02-3.4-1.15-.07-.08c-.18-.22-.41-.39-.69-.48l-.37-.12c-.27-.09-.56-.1-.82-.04l-.12.03-2.25-.76zM224.52 170.3l20.51 6.91-.07.15c-.24.48-.62 1.04-.96 1.35l-.57.53-.07-.01-18.88-6.36-.02-.12-.11-.66c-.09-.5-.04-1.28.09-1.83zM224.68 169.88l20.5 6.91.04-.12 1.62-4.8a.78.78 0 0 0-.51-.99l-3.1-1.04c-.42-.14-.87.07-1 .48l-1.19 3.53-3.38-1.14 1.19-3.53c.06-.19.05-.4-.04-.58a.83.83 0 0 0-.47-.41l-3.1-1.05c-.42-.14-.87.08-1 .48l-1.19 3.53-3.39-1.14 1.19-3.53c.06-.19.05-.4-.04-.58a.83.83 0 0 0-.47-.41l-3.1-1.05c-.42-.14-.87.07-1 .48l-1.66 4.93zM172.38 196.7c-2.62.3-5.2.66-7.73 1.1l-.13.02v-3.76l.08-.01c2.54-.43 5.13-.8 7.75-1.1l.15-.01v3.75zM173.06 192.88c2.97-.32 5.99-.56 9.04-.7l-.18.27c-.75 1.14-1.16 2.25-1.38 3.55l-.1.02c-2.49.14-4.95.35-7.38.61l-.11.02v-3.76zM163.96 194.17c-2.64.46-5.23 1-7.77 1.61l-.11.03v3.76l.1-.02c2.53-.61 5.12-1.15 7.76-1.62l.12-.03v-3.76zM155.51 199.71c-2.65.66-5.24 1.39-7.76 2.2l-.1.05v-3.8l.09-.03c2.51-.8 5.09-1.53 7.72-2.17l.16-.03v3.76zM147.08 202.13c-.68.23-1.36.46-2.03.69l-.12.04-1.19-3.38.12-.05c1.06-.38 2.14-.75 3.23-1.1l.1-.04v3.79zM205.44 192.88c-2.98-.32-6.01-.56-9.07-.7l.18.27c.75 1.14 1.16 2.25 1.38 3.55 0 .01.13.02.13.02 2.49.14 4.96.35 7.39.62h.07v-3.75zM213.8 197.8c-2.53-.43-5.11-.8-7.72-1.1l-.1-.01v-3.76l.08.01c2.62.3 5.21.66 7.75 1.1l.14.02v3.76zM222.3 199.55c-2.54-.61-5.13-1.15-7.78-1.62l-.11-.01v-3.76l.12.02c2.64.46 5.23 1 7.77 1.61l.09.03v3.76zM231.39 198.34c1.07.35 2.12.71 3.16 1.08l.18.07-1.19 3.37-.09-.03c-.68-.24-1.36-.47-2.05-.7l-.12-.04v-3.79zM230.74 201.92c-2.52-.81-5.11-1.55-7.75-2.2l-.13-.03v-3.78l.1.03q3.99.975 7.8 2.19l.08.04v3.79zM218.63 203.09v-3.9l.18.04c2.62.56 5.19 1.19 7.7 1.89l.1.01v3.93l-.12-.02c-2.5-.71-5.07-1.35-7.7-1.91zM210.2 201.44v-3.75c2.66.38 5.28.84 7.84 1.37l.13.02v3.89l-.18-.01c-2.55-.53-5.15-.98-7.79-1.37zM201.76 200.63v-3.9l.18.03c2.63.22 5.22.51 7.78.87l.01.14v3.7600000000000002c-2.57-.36-5.19-.66-7.84-.89zM201.2 196.69c-1.06-.08-2.13-.16-3.2-.22l.02.14c.12 1 .14 2.12.12 3.46v.29l.13.02c.95.06 1.9.12 2.85.2l.2.01v-3.89zM214.41 206.49v-3.76l.13.03c2.63.47 5.22 1.02 7.74 1.64l.11.02v3.79l-.11-.02c-2.52-.62-5.11-1.18-7.75-1.65zM205.98 205.26v-3.75h.12c2.61.3 5.17.67 7.69 1.11l.17.02v3.79l-.13-.03c-2.54-.44-5.12-.82-7.74-1.12zM205.33 201.43c-2.29-.25-4.61-.45-6.95-.59l-.25-.01v3.65l.01.11c2.42.15 4.81.35 7.18.61l.2.02v-3.76zM168.73 201.53v-3.89l.12-.03c2.55-.36 5.13-.65 7.75-.87l.1-.01v3.89l-.23.02c-2.56.22-5.09.5-7.58.85zM160.3 199.1v3.9l.1-.03c2.53-.53 5.11-.98 7.74-1.37l.14-.02v-3.9l-.18.04c-2.62.38-5.19.83-7.72 1.35zM151.87 205.08v-3.92l.11-.04c2.52-.71 5.09-1.34 7.73-1.9l.14-.02v3.9l-.16.03c-2.63.56-5.21 1.2-7.72 1.92zM151.29 205.24c-1.68.49-3.33 1.01-4.95 1.57l-.06-.11-1.2-3.41.15-.05c1.96-.69 3.96-1.33 6.01-1.92l.17-.04v3.93zM155.51 208.35c-1.56.4-3.09.82-4.59 1.27l-3.09 1-.16.04-1.16-3.29-.04-.13q4.35-1.5 9-2.67l.14-.01v3.77zM163.89 206.54c-2.6.47-5.15 1.01-7.63 1.63l-.18.07v-3.8l.1-.03c2.52-.62 5.11-1.17 7.74-1.64l.14-.03v3.77zM172.33 205.29c-2.6.3-5.17.68-7.7 1.12l-.12.01v-3.76l.09-.02c2.54-.44 5.13-.82 7.75-1.12l.13-.01v3.76zM173.1 205.2c2.39-.26 4.8-.47 7.24-.62v-3.77l-.17.02c-2.4.14-4.78.35-7.12.61h-.1v3.77z"/><path fill="#3b54a4" d="M76.21 223.02c1.97.62 3.94 1.24 5.92 1.86-2.52 11.49-5.45 22.89-8.58 34.22 6.83-10.22 13.69-20.42 20.56-30.61 2.68.77 5.36 1.53 8.04 2.29-6.41 8.58-12.6 17.32-18.83 26.03 1.03 12.4 2.1 24.79 3.14 37.18-2.52.76-5.05 1.52-7.57 2.3-.59-10.3-1.08-20.59-1.69-30.88-2.8 3.89-5.45 7.89-8.16 11.84-.52.76-1.07 1.52-1.28 2.44-1.9 7.55-3.75 15.11-5.69 22.65-2.61 1.06-5.19 2.18-7.79 3.27 7.31-27.54 14.62-55.06 21.93-82.59M294.27 226.4c2.15-.67 4.3-1.34 6.45-2.03 4.61 14.52 9.17 29.06 13.73 43.6 4.07 12.89 8.46 25.69 12.56 38.57-2.75-1.22-5.52-2.39-8.26-3.64-2.01-6.45-4.05-12.89-6.16-19.32-4.72-1.15-9.43-2.27-14.18-3.26-.22 4.92-.51 9.85-.77 14.78-2.58-.84-5.17-1.64-7.77-2.42 1.34-16.97 2.98-33.91 3.78-50.91.23-5.12.44-10.25.62-15.37m4.59 42.45c3.13.36 6.25.76 9.38 1.14-2.87-9.18-5.61-18.4-8.44-27.6-.25 8.83-.49 17.65-.94 26.46M273.38 232.33c1.9-.49 3.8-1.01 5.7-1.53 2.39 20.22 3.89 40.54 6.73 60.72-2.45-.66-4.89-1.32-7.34-1.96-5.63-12.2-11.14-24.45-16.87-36.6.71 11.1 1.42 22.2 2.49 33.26-2.22-.45-4.45-.91-6.68-1.33-1.3-16.01-1.81-32.07-2.91-48.09 2.04-.44 4.08-.89 6.13-1.33 5.72 11.6 10.99 23.42 16.32 35.21-1.17-12.79-2.36-25.57-3.57-38.35M117.56 234.72c7 1.57 14.03 3.03 21.08 4.34-.41 2.51-.77 5.03-1.17 7.55-5.09-.59-10.17-1.24-15.25-1.92-.76 4.02-1.53 8.05-2.29 12.08 4.55.13 9.09.27 13.63.41-.45 2.58-.85 5.17-1.39 7.73-4.68.11-9.36.32-14.03.46-1.41 7.22-2.85 14.44-4.14 21.68-2.44.53-4.88 1.08-7.33 1.61 3.35-18.03 7.77-35.86 10.89-53.94M231.69 240.94c2.27-.35 4.53-.7 6.8-1.07 5.23 14.72 9.81 29.66 15.18 44.34-2.53-.45-5.07-.88-7.61-1.28-1.2-3.41-2.33-6.85-3.46-10.28-4.53-.34-9.06-.67-13.59-.95-.91 2.86-1.79 5.73-2.69 8.6-2.45-.27-4.91-.5-7.37-.72 4.64-12.75 9.18-25.55 12.74-38.64m-.65 24.16c3.03.06 6.06.14 9.08.21-1.59-5.1-3.15-10.21-4.82-15.28-1.47 5-2.77 10.06-4.26 15.07M148.8 240.72c8.33 1.07 16.69 1.96 25.07 2.63l-.57 6.1c-3.17-.15-6.33-.32-9.49-.51-1.22 10.42-2.64 20.81-3.74 31.24-2.34.22-4.67.47-7.01.72 1.32-10.81 2.84-21.6 4.26-32.4-3.14-.24-6.27-.51-9.41-.78.29-2.34.61-4.67.89-7M190.41 243.8c5.16-.08 10.31-.27 15.46-.45 2.57 0 5.46.01 7.54 1.77 2.34 2.06 3.18 5.36 2.99 8.37-.12 2.89-1.36 5.85-3.73 7.61-1.45 1.1-3.24 1.57-4.98 1.98 3.11 2.16 5.08 5.44 6.79 8.74 1.4 2.57 2.83 5.13 4.2 7.72-2.75-.24-5.5-.45-8.26-.61-2.24-3.76-4.34-7.6-6.69-11.28-.91-1.32-1.82-2.84-3.4-3.4-1.5-.44-3.08-.29-4.62-.3-.38 4.85-.6 9.71-.8 14.57-2.32.04-4.64.1-6.96.19.73-11.63 1.73-23.27 2.46-34.91m6.12 5.75c-.07 2.96-.21 5.91-.44 8.86 3.41-.16 6.85.07 10.23-.43 2.57-.41 3.73-3.4 3.18-5.71-.2-1.61-1.68-2.82-3.27-2.87-3.23-.16-6.47.13-9.7.15M177.79 243.58c2.16.08 4.31.16 6.47.22-.8 11.73-2.05 23.43-2.81 35.17-2.33.09-4.65.2-6.98.29 1.01-11.91 2.3-23.78 3.32-35.68M132.85 275.27c2.2-.24 4.41-.45 6.61-.66-.43 2.73-.84 5.46-1.2 8.2-2.25.33-4.49.68-6.73 1.03.41-2.87.88-5.72 1.32-8.57M94.87 280.65c2.25-.42 4.5-.84 6.76-1.22-.72 3.67-1.47 7.32-2.2 10.98-2.35.6-4.7 1.22-7.04 1.87.82-3.87 1.63-7.76 2.48-11.63M173.81 521.87v-9.49c-.55.51-1.63 1.38-3.25 1.91v-2.28c.26-.09 2.94-1.12 3.73-3.34h2.06v13.2zM182.57 518.55c.04.31.2 1.45 1.47 1.45 1.76 0 1.93-2.28 2.02-3.63l-.04-.04c-.81.99-1.82 1.08-2.29 1.08-2.07 0-3.84-1.69-3.84-4.3 0-2.62 1.71-4.44 4.22-4.44 1.16 0 3.14.42 4.06 3.03.4 1.16.5 2.37.5 3.6 0 1.19 0 6.79-4.79 6.79-1.17 0-2.31-.44-3.03-1.43-.5-.7-.64-1.45-.7-1.84zm1.41-7.78c-1.62 0-1.62 1.98-1.62 2.35 0 .31 0 2.46 1.74 2.46.33 0 1.73-.13 1.73-2.24 0-1.31-.64-2.57-1.85-2.57M199.62 521.87h-8.83c.2-1.95 1.17-3.32 3.69-5.67 1.76-1.63 2.61-2.42 2.62-3.69-.02-1.6-1.25-1.74-1.71-1.74-1.17 0-1.71.72-1.8 2.06l-2.51-.26c.07-.62.26-2 1.3-2.9.9-.75 2.17-.99 3.06-.99 3.05 0 4.17 2.02 4.17 3.67 0 2.29-1.67 3.84-2.95 5.01-1.28 1.19-1.71 1.58-2.06 2.17h5.01v2.34zM210.1 511.34c.53 1.47.57 3.14.57 4.06 0 .84-.02 2.51-.57 3.98-.53 1.47-1.6 2.72-3.69 2.72-2.11 0-3.19-1.23-3.73-2.68-.55-1.47-.55-3.14-.55-4.06 0-.88.02-2.55.55-4 .55-1.45 1.61-2.68 3.71-2.68 2.09-.01 3.16 1.21 3.71 2.66m-5.32 4.05c0 3.49.42 4.61 1.62 4.61 1.21 0 1.63-1.14 1.63-4.61 0-3.49-.42-4.63-1.63-4.63-1.2.01-1.62 1.13-1.62 4.63"/></svg>