<svg xmlns="http://www.w3.org/2000/svg" xml:space="preserve" width="275" height="380.142"><path fill="#CAA15B" fill-rule="evenodd" d="M0 11.74C45.472 4.639 91.686 0 137.5 0S229.53 4.639 275 11.74v241.841c0 48.277-53.487 70.097-92.143 85.443-20.789 8.247-38.827 13.917-45.357 41.118-6.528-27.201-24.567-32.871-45.355-41.118C53.488 323.677 0 301.858 0 253.581z" clip-rule="evenodd"/><path fill="#DA1D36" fill-rule="evenodd" d="M137.5 6.873c-43.695 0-87.447 4.238-130.627 10.767v235.941c0 44.669 53.145 65.286 87.791 79.087 10.251 4.066 20.96 7.847 29.837 14.489 5.497 4.123 9.735 8.934 12.999 14.375z" clip-rule="evenodd"/><path fill="#145196" fill-rule="evenodd" d="M137.5 6.873c43.696 0 87.447 4.238 130.629 10.767v235.941c0 44.669-53.145 65.286-87.791 79.087-10.252 4.066-20.961 7.847-29.837 14.489-5.498 4.123-9.736 8.934-13.001 14.375z" clip-rule="evenodd"/><path fill="#FFF" d="M29.608 81.377h5.439V60.818c.345 1.317.688 2.405 1.146 3.436l7.045 17.123h5.611l-9.335-22.678 9.049-20.158h-5.325L36.193 54.69c-.458.974-.743 1.776-1.146 3.035V38.541h-5.439zm23.022 0h5.669v-7.33H52.63zm17.181-37.796h7.674v-5.04H64.427v42.836h5.384V62.135h6.356v-5.039h-6.356zm7.73 37.796h5.669v-7.33h-5.669zm23.938-42.836h-5.44l5.842 42.836h7.158l5.728-42.836h-4.812l-2.462 18.784c-.802 5.956-1.374 12.369-1.775 16.723-.344-4.295-.917-10.767-1.718-16.723zm17.81 42.836h12.428v-4.982h-7.045V38.541h-5.383zm16.665 0h12.428v-4.982h-7.045V38.541h-5.383zm28.462 0h5.384l-5.727-42.836h-7.446l-5.782 42.836h4.81l.915-6.529h6.932zm-6.471-16.778c1.089-8.533 1.661-15.806 2.062-21.59.457 5.784 1.031 13.057 2.176 21.59l.63 5.211h-5.554zm15.519-21.018h8.762l-9.22 33.158v4.639h14.89v-4.982h-9.276l9.276-33.215v-4.639h-14.432zm30.926 37.796h6.128V38.541h-4.697v22.851c0 2.748.173 5.269.23 7.788a83 83 0 0 0-1.433-7.731l-5.039-22.908h-6.816v42.836h4.641V56.752c0-2.862-.058-5.326-.116-7.845.402 2.52.746 4.983 1.375 7.674zm12.312 0h5.383V38.541h-5.383zm23.481 0h5.382l-5.728-42.836h-7.387l-5.842 42.836h4.867l.918-6.529h6.871zm-6.472-16.778c1.087-8.533 1.659-15.806 2.06-21.59.46 5.784 1.09 13.057 2.177 21.59l.688 5.211h-5.613zm-130.514 38.312c-.458.057-.631.286-.631.744v3.436c0 .458.287.688.745.63l2.176-.286v22.449c0 .344.172.572.573.572h3.722c.344 0 .573-.229.573-.572v-27.317c0-.343-.229-.572-.573-.572zm20.845 16.549-4.353 10.136c-.172.516 0 .859.573.859h3.665c.458 0 .688-.171.859-.572l5.039-11.969c.229-.63.344-1.088.344-1.775v-9.163c0-3.207-1.775-4.982-4.981-4.982h-4.238c-3.265 0-4.982 1.775-4.982 4.982v7.502c0 3.264 1.718 4.982 4.982 4.982zm0-12.77c.916 0 1.433.516 1.433 1.431v5.211c0 .917-.517 1.433-1.433 1.433h-2.004c-.916 0-1.375-.516-1.375-1.433v-5.211c0-.916.459-1.431 1.375-1.431zm22.106-3.779c-.459.057-.688.286-.688.744v3.436c0 .458.286.688.746.63l2.233-.286v22.449c0 .344.172.572.572.572h3.665c.344 0 .572-.229.572-.572v-27.317c0-.343-.229-.572-.572-.572zm20.788 16.549-4.295 10.136c-.229.516 0 .859.515.859h3.723c.401 0 .688-.171.804-.572l5.038-11.969c.286-.63.401-1.088.401-1.775v-9.163c0-3.207-1.776-4.982-4.982-4.982h-4.295c-3.208 0-4.981 1.775-4.981 4.982v7.502c0 3.264 1.773 4.982 4.981 4.982zm.057-12.77c.917 0 1.432.516 1.432 1.431v5.211c0 .917-.515 1.433-1.432 1.433h-2.005c-.915 0-1.431-.516-1.431-1.433v-5.211c0-.916.516-1.431 1.431-1.431z"/><path fill="#FFF" fill-rule="evenodd" d="m137.271 263.775 76.281-161.781h33.616L137.271 335.073 27.375 101.994h33.674z" clip-rule="evenodd"/><path fill="#145196" fill-rule="evenodd" d="m58.585 105.888 78.686 167.049v53.03L33.56 105.888z" clip-rule="evenodd"/><path fill="#DA1D36" fill-rule="evenodd" d="m216.014 105.888-78.743 167.049v53.03l103.77-220.079z" clip-rule="evenodd"/><path fill="#FFF" fill-rule="evenodd" d="M103.426 155.597c8.705-8.819 20.789-14.317 34.132-14.317 13.287 0 25.369 5.499 34.073 14.317 8.764 8.819 14.146 21.017 14.146 34.475s-5.383 25.656-14.146 34.476c-8.704 8.819-20.786 14.259-34.073 14.259-13.343 0-25.427-5.439-34.132-14.259s-14.145-21.018-14.145-34.476c0-13.459 5.441-25.656 14.145-34.475" clip-rule="evenodd"/><path fill-rule="evenodd" d="M176.443 193.45c-.172 5.385-.344 12.313-.86 16.322l-15.69 10.995c-4.925-.572-9.852-3.15-15.005-6.414l2.233-19.241c4.696-3.666 11.225-7.273 14.719-9.393zm-61.048-.629c-1.889 5.325-2.691 12.196-2.52 16.951 2.005 2.177 4.238 4.124 6.643 5.897 2.291 1.775 4.812 3.38 7.503 4.812 4.639-.745 9.906-2.636 15.863-6.07l2.176-19.242c-3.608-3.15-9.335-6.528-14.088-9.792zm10.48-38.714c-4.811.459-9.679 3.723-14.488 7.159a45.6 45.6 0 0 0-5.383 10.538c-.859 2.634-1.547 5.383-1.891 8.304l11.053 10.652 15.577-7.502c2.233-5.04 4.123-10.823 5.326-17.696zM137.9 142.31c-3.378 2.119-8.188 6.299-10.308 10.766l10.021 11.168 17.525-.63 7.673-11.167c-.687-1.489-2.177-3.207-3.778-4.925-6.356-3.265-13.515-5.155-21.133-5.212m-47.531 49.594 2.807-.115 8.876-11.052c.343-3.379 1.031-6.586 2.062-9.564 1.26-3.607 2.921-6.872 4.811-9.907-1.26-2.233-2.978-4.066-5.44-4.295-8.132 8.59-13.172 20.216-13.172 33.101-.001.573-.001 1.202.056 1.832m8.876 26.115c-.114-.86-.172-1.719-.286-2.579 0-.629-.057-1.258-.114-1.888-3.666-4.755-5.727-11.397-6.414-19.759l-1.947.114a47.7 47.7 0 0 0 8.761 24.112m23.193 17.295c1.891-.172 3.952-.688 6.128-1.375.688-5.613-.974-8.877-2.405-11.625-2.806-1.547-5.44-3.208-7.846-5.041a50.6 50.6 0 0 1-6.414-5.61c-3.607 1.029-7.388 1.83-10.995 2.862.058.286.058.515.058.801a63 63 0 0 0 .802 5.899c.744.858 1.546 1.775 2.405 2.576 5.097 5.156 11.338 9.165 18.267 11.513m27.949.686a16 16 0 0 1-2.922-1.146c-5.153-.286-10.881 0-16.207.288-1.546.515-3.035 1.029-4.467 1.431 3.437.803 7.045 1.203 10.767 1.203 4.41 0 8.762-.629 12.829-1.776m29.262-24.337c-.744-.346-1.604-.46-2.52-.518l-17.123 11.97c-4.238 4.353-7.501 8.533-8.419 11.167 1.032.229 2.005.344 3.036.286 6.126-2.405 11.683-6.128 16.264-10.767 3.551-3.549 6.471-7.615 8.762-12.138m-11.567-58.014c-1.146-.114-2.348-.114-3.608-.057l-7.73 11.224 5.726 18.956 15.807 8.36c2.806-1.03 4.353-5.325 5.783-10.135-1.659-9.965-6.356-18.899-13.171-25.714a31 31 0 0 0-2.807-2.634m-65.343 1.203c8.876-8.991 21.188-14.546 34.818-14.546 13.573 0 25.886 5.556 34.762 14.546 8.934 9.049 14.433 21.475 14.433 35.22 0 13.687-5.499 26.172-14.433 35.162-8.876 8.99-21.188 14.547-34.762 14.547-13.63 0-25.942-5.557-34.818-14.547-8.935-8.99-14.432-21.476-14.432-35.162.001-13.745 5.498-26.171 14.432-35.22" clip-rule="evenodd"/></svg>