<svg xmlns="http://www.w3.org/2000/svg" xmlns:xlink="http://www.w3.org/1999/xlink" width="793.701" height="767.244" viewBox="0 0 595.276 575.433"><defs><linearGradient id="a"><stop offset="0%" stop-color="#9d7130"/><stop offset="3%" stop-color="#9d7130"/><stop offset="19%" stop-color="#cfa643"/><stop offset="50%" stop-color="#f3ef92"/><stop offset="81%" stop-color="#cfa643"/><stop offset="97%" stop-color="#9d7130"/><stop offset="100%" stop-color="#9d7130"/></linearGradient><linearGradient xlink:href="#a" id="b" x1="0" x2="0" y1="0" y2="1" gradientTransform="rotate(-45 .5 .5)" gradientUnits="objectBoundingBox"/></defs><path d="M297.143.512c158.677 0 287.31 128.632 287.31 287.309 0 158.676-128.633 287.31-287.31 287.31-158.676 0-287.309-128.634-287.309-287.31S138.467.51 297.144.51" style="fill:url(#b)"/><defs><linearGradient id="c"><stop offset="0%" stop-color="#9d7130"/><stop offset="3%" stop-color="#9d7130"/><stop offset="19%" stop-color="#cfa643"/><stop offset="50%" stop-color="#f3ef92"/><stop offset="81%" stop-color="#cfa643"/><stop offset="97%" stop-color="#9d7130"/><stop offset="100%" stop-color="#9d7130"/></linearGradient></defs><path d="M297.144 8.54c154.242 0 279.28 125.039 279.28 279.28 0 154.243-125.038 279.28-279.28 279.28S17.864 442.064 17.864 287.82c0-154.241 125.038-279.28 279.28-279.28" style="fill:url(#c)"/><path d="M297.143 211.134c20.115 0 38.325 8.154 51.507 21.335s21.335 31.393 21.335 51.507-8.153 38.325-21.335 51.507-31.392 21.335-51.507 21.335-38.325-8.153-51.506-21.335c-13.182-13.182-21.335-31.393-21.335-51.507s8.153-38.325 21.335-51.507c13.181-13.181 31.392-21.335 51.506-21.335" style="fill:#6f441e;fill-rule:evenodd"/><defs><linearGradient id="d"><stop offset="0%" stop-color="#b28461"/><stop offset="50%" stop-color="#936842"/><stop offset="100%" stop-color="#6f441e"/></linearGradient><linearGradient xlink:href="#d" id="e" x1="0" x2="0" y1="0" y2="1" gradientUnits="objectBoundingBox"/></defs><path d="M347.778 334.61a71.8 71.8 0 0 0 14.619-21.101c-1.481-7.998-4.845-13.295-9.85-16.23-4.994-2.93-11.66-3.544-19.756-2.177-5.815 18.168-15.071 31.306-27.676 39.543-12.153 7.943-27.399 11.314-45.652 10.235 10.946 6.786 23.855 10.705 37.68 10.705 19.774 0 37.677-8.016 50.635-20.974m-101.27 0c3.301 3.301 6.922 6.28 10.813 8.888 18.97 1.477 34.708-1.773 47.12-9.884 12.392-8.098 21.495-21.062 27.219-39.02-2.65-5.84-6.515-9.792-11.816-11.513-5.338-1.732-12.165-1.225-20.705 1.863-1.075 8.372-3.972 14.386-8.444 18.362-4.457 3.964-10.454 5.88-17.748 6.066-2.895 7.231-7.16 12.36-12.848 15.307-5.434 2.817-12.143 3.627-20.17 2.364a72 72 0 0 0 6.58 7.568m116.739-23.055a71.2 71.2 0 0 0 5.056-19.53c-1.407-7.67-4.912-14.62-9.61-20.585-5.376-6.828-12.313-12.364-19.457-16.218-6.373-3.438-13.202-5.923-21.119-7.086-7.857-1.154-16.794-1.007-27.428.801-3.769 7.187-5.082 13.705-3.8 19.514 1.28 5.795 5.156 10.927 11.766 15.358 8.842-3.206 15.955-3.72 21.57-1.898 5.588 1.813 9.664 5.916 12.456 11.96 8.337-1.393 15.246-.726 20.487 2.348 4.946 2.9 8.374 7.918 10.079 15.336m-137.712-27.579c0 15.532 4.946 29.909 13.348 41.643 8.311 1.505 15.18.803 20.652-2.033 5.419-2.809 9.495-7.728 12.276-14.683-12.67-13.556-19.97-27.846-21.044-42.987-1.04-14.672 3.77-30.114 15.206-46.425a71.8 71.8 0 0 0-19.464 13.85c-12.958 12.959-20.974 30.861-20.974 50.635m65.034-71.31a71.2 71.2 0 0 0-22.344 5.782c-12.16 16.714-17.286 32.47-16.23 47.382 1.055 14.875 8.269 28.944 20.793 42.317 7.057-.16 12.834-1.977 17.088-5.76 4.247-3.777 7.005-9.537 8.04-17.592-6.852-4.607-10.88-9.98-12.226-16.078-1.342-6.079-.01-12.84 3.85-20.242-4.91-5.497-7.59-11.265-7.482-17.369.103-5.858 2.777-11.988 8.51-18.44m57.209 20.675c-12.958-12.958-30.86-20.973-50.635-20.973q-2.411.001-4.783.158c-6.13 6.576-8.97 12.754-9.074 18.6-.102 5.793 2.487 11.305 7.23 16.592 10.753-1.826 19.807-1.972 27.78-.8 8.07 1.184 15.03 3.717 21.522 7.22 7.286 3.93 14.36 9.575 19.844 16.54 4.028 5.115 7.2 10.946 8.976 17.337q.112-2.006.113-4.039c0-19.774-8.015-37.676-20.973-50.635" style="fill:url(#e)"/><defs><linearGradient id="f"><stop offset="0%"/><stop offset="100%" stop-color="#464f4c"/></linearGradient><linearGradient xlink:href="#f" id="g" x1="0" x2="0" y1="0" y2="1" gradientUnits="objectBoundingBox"/></defs><path d="M309.077 53.98V203.13a81.5 81.5 0 0 1 19.287 5.335 81.9 81.9 0 0 1 26.564 17.727 81.9 81.9 0 0 1 17.727 26.564 81.4 81.4 0 0 1 5.91 24.206h152.47c-5.493-120.313-101.787-216.948-221.958-222.98m-23.866 0C165.039 60.014 68.745 156.649 63.25 276.962h152.471a81.4 81.4 0 0 1 5.91-24.206 81.9 81.9 0 0 1 17.726-26.564 81.9 81.9 0 0 1 26.565-17.727 81.5 81.5 0 0 1 19.288-5.335z" style="fill:url(#g)"/><defs><linearGradient id="h"><stop offset="0%" stop-color="#f2ec92"/><stop offset="27%" stop-color="#ccad4e"/><stop offset="79%" stop-color="#ccad4e"/><stop offset="100%" stop-color="#613800"/></linearGradient><linearGradient xlink:href="#h" id="i" x1="0" x2="0" y1="0" y2="1" gradientTransform="rotate(-151 .5 .5)" gradientUnits="objectBoundingBox"/></defs><path d="M371.682 181.15c1.495-2.619 5.132-7.867 6.47-9.531-5.521-1.02-15.871-3.682-15.871-10.35 0-5.527 6.574-4.564 11.67-11.745 2.895-4.078 9.213-3.11 16.447-3.522 1.104-3.45 3.087-2.81 10.401-3.961 1.654 5.48-2.309 6.67-5.944 10.54.83 4.904 6.017 23.286 11.925 33.318 1.957 3.323 9.745 14.23 12.7 18.447 3.814 5.444 10.086 7.85 13.601 7.997 6.051.254 14.38-10.436 18.268-19.303 3.008-6.858 1.806-17.897-1.56-24.92-1.554-3.242-6.745-2.952-11.87-2.858-6.493.117-6.06 7.565-3.058 14.637-7.132-1.883-18.002-11.326-17.68-19.654.546-14.107 10.89-24.018 26.515-23.961 8.379.03 14.993.72 21.34 4.576 9.106 5.531 16.332 16.267 16.141 29.795-.283 20.094-7.68 38.855-32.076 51.086-6.293 3.155-22.635 3.594-29.395 11.074l-32.907 3.68c-5.111.572-4.141-1.716-.782-2.315 1.995-.356-1.122-2.228-.86-7.76.105-2.198-3.889-4.18-1.46-8.312 1.681-2.86 6.308-11.049-2.182-10.997-1.874.012-9.394-10.241-11.04-6.381-.507 1.19-.286 4.608-2.774 4.649-1.401.023-3.098-1.532-3-4.435.115-3.396 4.078-7.978 9.741-8.41-1.662-5.485-1.001-8.878.718-11.54-1.281.15-1.855-.406-3.478.155" style="fill:url(#i)"/><defs><linearGradient id="j"><stop offset="0%" stop-color="#613800"/><stop offset="3%" stop-color="#613800"/><stop offset="27%" stop-color="#ccad4e"/><stop offset="50%" stop-color="#f2ec92"/><stop offset="74%" stop-color="#ccad4e"/><stop offset="95%" stop-color="#613800"/><stop offset="100%" stop-color="#613800"/></linearGradient></defs><path d="M374.313 180.546c1.494-2.618 6.253-7.521 6.253-9.703-5.52-1.02-15.008-2.474-15.008-9.143 0-5.527 4.935-4.218 10.033-11.4 2.894-4.079 7.573-3.885 14.807-4.298 1.104-3.45 4.863-5.918 12.177-7.069 1.654 5.48-.088 9.927-3.724 13.797.83 4.903 6.905 19.437 12.813 29.47 1.957 3.322 6.785 14.08 9.74 18.298 3.815 5.445 6.385 7.702 9.901 7.85 6.052.253 12.604-5.997 16.492-14.863 3.008-6.86 3.286-14.79-.08-21.813-1.555-3.243-4.673-6.504-9.797-6.41-6.494.118-9.986 5.538-11.037 12.308-6.658-3.22-11.404-10.473-11.081-18.801.546-14.108 10.629-21.596 26.255-21.536 7.053.026 17.36 1.674 23.976 7.565 7.407 6.595 10.737 17.92 10.616 26.46-.285 20.097-6.135 30.678-24.58 48.257-5.098 4.857-23.087 11.444-29.847 18.924l-39.715-.02c-5.144-.003-4.438-2.677-1.079-3.277 1.997-.356-.9-3.264-.637-8.796.105-2.198.477-4.107 2.906-8.238 1.682-2.86 8.033-12.818-.457-12.765-1.875.012-8.315-12.053-10.263-6.08-.401 1.232-.027 2.926-2.516 2.967-1.402.024-1.546-.797-1.447-3.7.115-3.398 3.387-4.442 8.878-6.47-3.282-5.192-1.13-9.87.588-12.532-1.28.15-2.545.456-4.167 1.018" style="fill:url(#j)"/><path d="M378.783 156.047a.43.43 0 0 1-.391-.764c.624-.32 1.158-.569 1.758-.787.599-.219 1.263-.408 2.149-.609a.43.43 0 0 1 .188.839 16 16 0 0 0-2.044.578c-.566.206-1.07.442-1.66.743" style="fill:#613800;fill-rule:evenodd"/><defs><linearGradient id="k"><stop offset="0%" stop-color="#c1a45f"/><stop offset="50%" stop-color="#f2ec92"/><stop offset="100%" stop-color="#c1a45f"/></linearGradient><linearGradient xlink:href="#k" id="l" x1="0" x2="0" y1="0" y2="1" gradientTransform="rotate(180 .5 .5)" gradientUnits="objectBoundingBox"/></defs><path d="M189.972 124.04c-7.575.06-16.868-.89-24.653-2.902-3.413-.881-3.323-4.416-.819-6.57l25.472-21.902 25.472 21.903c2.504 2.153 2.594 5.688-.82 6.57-7.785 2.01-17.077 2.96-24.652 2.9" style="fill:url(#l)"/><defs><linearGradient id="m"><stop offset="0%" stop-color="#9d7f2d"/><stop offset="49%" stop-color="#e8cb75"/><stop offset="100%" stop-color="#f2ec92"/></linearGradient></defs><path d="M191.12 140.46c0-1.775 1.549-3.227 3.442-3.227 1.892 0 3.44 1.452 3.44 3.227v14.645h-6.882zm-10.494 0c0-1.775 1.549-3.227 3.441-3.227 1.893 0 3.441 1.452 3.441 3.227v14.645h-6.882zm10.494 29.641c0-1.675 1.549-3.045 3.442-3.045 1.892 0 3.44 1.37 3.44 3.045v13.82h-6.882zm-7.053-3.045c1.893 0 3.441 1.37 3.441 3.045v13.82h-6.882V170.1c0-1.675 1.549-3.045 3.442-3.045m7.053 32.322c0-1.62 1.549-2.944 3.442-2.944 1.892 0 3.44 1.325 3.44 2.944v13.358h-6.882zm-7.053-2.944c1.893 0 3.441 1.325 3.441 2.944v13.358h-6.882v-13.358c0-1.62 1.549-2.944 3.442-2.944m5.905-69.937c-4.043.03-8.52-.212-12.97-.735-2.699-.318-5.413-.74-8.045-1.27v130.33h40.714V124.745c-2.216.412-4.478.75-6.73 1.016-4.449.523-8.926.766-12.969.735" style="fill:url(#m)"/><defs><linearGradient id="n"><stop offset="0%" stop-color="#a8772c"/><stop offset="77%" stop-color="#f2ee99"/><stop offset="100%" stop-color="#dac682"/></linearGradient></defs><path d="M166.984 230.882V207.83h-51.957l-15.096 23.051h10.286v23.94h56.767v-5.994h-6.594V230.88zm-14.142 0h5.328v17.945h-5.328zm-15.318 0h12.654v17.945h-12.654zm-8.362 0h6.142v17.945h-6.142zm-10.805 0h7.919v17.945h-7.919z" style="fill:url(#n)"/><defs><linearGradient id="o"><stop offset="0%" stop-color="#5c311a"/><stop offset="33%" stop-color="#aa8541"/><stop offset="100%" stop-color="#f2ec92"/></linearGradient><linearGradient xlink:href="#o" id="p" x1="0" x2="0" y1="0" y2="1" gradientTransform="rotate(90 .5 .5)" gradientUnits="objectBoundingBox"/></defs><path d="M215.722 276.961H63.252a238 238 0 0 0-.188 5.55h152.37a82 82 0 0 1 .288-5.55m162.843 0q.236 2.753.287 5.55h152.372a238 238 0 0 0-.189-5.55z" style="fill:url(#p)"/><defs><linearGradient id="q"><stop offset="0%" stop-color="#262626"/><stop offset="100%" stop-color="#464f4c"/></linearGradient><linearGradient xlink:href="#q" id="r" x1="0" x2="0" y1="0" y2="1" gradientUnits="objectBoundingBox"/></defs><path d="M354.928 341.762a81.9 81.9 0 0 1-26.564 17.726 81.4 81.4 0 0 1-31.22 6.21 81.4 81.4 0 0 1-31.221-6.21 81.9 81.9 0 0 1-26.565-17.726 81.9 81.9 0 0 1-17.726-26.565 81.5 81.5 0 0 1-4.958-16.96h-.192v209.458c25.147 9.228 52.316 14.265 80.662 14.265 28.345 0 55.514-5.037 80.66-14.265V298.236h-.192a81.5 81.5 0 0 1-4.957 16.96 81.9 81.9 0 0 1-17.727 26.566" style="fill:url(#r)"/><path d="M377.805 298.236v209.459c86.474-31.733 149.028-113.024 153.25-209.459Zm-161.323 0H63.232c4.222 96.436 66.776 177.726 153.25 209.459z" style="fill:#f3ec46;fill-rule:evenodd"/><path d="M109.7 502.944c-29.965 5.553-50.051 11.758-65.02 21.086" style="fill:none;stroke:#1b1918;stroke-width:.5669;stroke-linecap:butt;stroke-linejoin:miter;stroke-dasharray:none"/><defs><linearGradient id="s"><stop offset="0%" stop-color="#a47f47"/><stop offset="100%" stop-color="#e7a923"/></linearGradient></defs><path d="M109.7 502.944c-29.965 5.553-50.051 11.758-65.02 21.086 1.006 5.3 2.338 8.223 5.165 10.28 4.038 2.938 11.148 4.122 20.119 4.084 5.43-.022 22.21-1.512 34.447-6.244 8.387-3.242 11.875-6.443 11.875-9.372 0-3.649-5.723-16.444-6.586-19.834" style="fill:url(#s)"/><defs><linearGradient id="t"><stop offset="0%" stop-color="#e7a923"/><stop offset="38%" stop-color="#9a7032"/><stop offset="50%" stop-color="#a47f47"/><stop offset="87%" stop-color="#f3e9b1"/><stop offset="100%" stop-color="#ccad4e"/></linearGradient><linearGradient xlink:href="#t" id="u" x1="0" x2="0" y1="0" y2="1" gradientTransform="rotate(-98 .5 .5)" gradientUnits="objectBoundingBox"/></defs><path d="M102.304 519.326c-13.46-.83-31.731 3.169-41.428 9.475.944 3.865 4.868 5.005 18.227 3.187 3.331-.453 21.95-3.59 25.641-6.38l-1.254-6.313c-.392.01-.788.056-1.186.031" style="fill:url(#u)"/><defs><linearGradient id="v"><stop offset="0%" stop-color="#9e6c2b"/><stop offset="34%" stop-color="#654921"/><stop offset="58%" stop-color="#f3e9b1"/><stop offset="100%" stop-color="#816d32"/></linearGradient><linearGradient xlink:href="#v" id="w" x1="0" x2="0" y1="0" y2="1" gradientTransform="rotate(-98 .5 .5)" gradientUnits="objectBoundingBox"/></defs><path d="M60.877 528.801c10.079-5.157 28.374-9.086 41.427-9.475q.598-.017 1.186-.03c7.226-.16 13.189.332 12.28 5.44.349-.664.516-1.317.516-1.958 0-3.649-5.723-16.444-6.587-19.834-20.224 3.748-35.948 7.793-48.636 12.895.05 5.75-.885 10.102-.187 12.962" style="fill:url(#w)"/><path d="M483.553 502.754c14.855-27.731 27.025-55.298 31.312-83.003-17.93-3.747-36.64-6.801-55.876-9.752-49.047-7.522-102.52-10.755-161.845-10.509-59.326-.246-112.8 2.987-161.846 10.51-19.236 2.95-37.946 6.004-55.876 9.75 3.904 30.385 17.211 56.947 31.312 83.004 57.682-10.567 119.707-14.383 186.41-14.314 66.702-.069 128.727 3.747 186.41 14.314" style="fill:#c09b51;fill-rule:evenodd"/><path d="M348.686 428.57v1.012q-3.424.333-5.595 1.359c-1.447.684-2.877 1.723-4.28 3.126a19.6 19.6 0 0 0-3.508 4.67q-1.385 2.585-2.317 6.128c2.486-1.696 4.981-2.549 7.494-2.549 2.407 0 4.485.968 6.252 2.913 1.767 1.936 2.646 4.43 2.646 7.477 0 2.94-.888 5.63-2.673 8.054-2.149 2.94-4.99 4.414-8.524 4.414-2.407 0-4.458-.8-6.137-2.39q-4.939-4.661-4.937-12.067c0-3.153.63-6.154 1.9-8.996 1.261-2.841 3.073-5.363 5.417-7.566 2.353-2.193 4.6-3.676 6.75-4.44 2.148-.763 4.146-1.145 6.002-1.145zm-16.144 18.195q-.48 3.517-.48 5.675c0 1.669.31 3.472.924 5.425.612 1.954 1.527 3.5 2.735 4.644q1.32 1.226 3.215 1.226c1.5 0 2.85-.71 4.03-2.131 1.182-1.43 1.777-3.455 1.777-6.092 0-2.966-.586-5.532-1.758-7.708-1.181-2.167-2.842-3.25-5-3.25-.657 0-1.367.142-2.113.417-.755.276-1.865.88-3.33 1.794m-25.033-1.666q-4.223-3.437-5.435-5.515-1.214-2.078-1.216-4.316 0-3.435 2.664-5.914c1.776-1.66 4.129-2.486 7.068-2.486 2.86 0 5.15.772 6.891 2.318q2.61 2.304 2.61 5.274c0 1.315-.47 2.664-1.402 4.032-.942 1.367-2.895 2.984-5.861 4.83q4.592 3.544 6.083 5.569c1.323 1.767 1.98 3.632 1.98 5.585 0 2.478-.95 4.6-2.842 6.358-1.9 1.758-4.386 2.638-7.468 2.638q-5.037 0-7.85-3.144-2.248-2.517-2.247-5.515c0-1.554.524-3.099 1.581-4.635 1.048-1.536 2.868-3.223 5.443-5.08m4.093-2.789c2.096-1.882 3.42-3.365 3.979-4.457.559-1.084.834-2.318.834-3.695 0-1.829-.515-3.259-1.545-4.298s-2.433-1.554-4.209-1.554q-2.677 0-4.342 1.546c-1.12 1.02-1.679 2.228-1.679 3.605q0 1.358.693 2.717c.462.906 1.119 1.767 1.98 2.584zm-2.868 3.783c-1.447 1.208-2.513 2.522-3.215 3.952-.692 1.42-1.038 2.966-1.038 4.626q0 3.344 1.838 5.355c1.225 1.341 2.788 2.007 4.688 2.007 1.874 0 3.384-.524 4.512-1.58s1.696-2.336 1.696-3.837c0-1.243-.33-2.362-.995-3.348-1.234-1.829-3.73-4.227-7.486-7.175m-35.35 18.922-.078-.956c2.236-.22 4.282-.913 6.128-2.09 1.854-1.177 3.567-3.109 5.164-5.788a23.6 23.6 0 0 0 3.076-8.637c-2.557 1.947-4.937 3.016-7.123 3.196-2.47.203-4.654-.58-6.572-2.337-1.919-1.767-3.003-4.226-3.263-7.386-.253-3.071.408-5.878 1.97-8.43 1.877-3.086 4.536-4.775 7.952-5.056q4.327-.356 7.702 2.975c2.766 2.748 4.322 6.292 4.68 10.637.322 3.912-.334 7.637-1.977 11.175-1.643 3.54-4.076 6.564-7.317 9.076-2.628 2.06-5.58 3.23-8.863 3.5zm14.548-19.426q.202-3.397.035-5.43c-.138-1.672-.57-3.454-1.296-5.355q-1.101-2.835-2.783-4.261c-1.13-.95-2.358-1.375-3.686-1.265-1.53.125-2.82.926-3.856 2.402q-1.567 2.21-1.228 6.31c.3 3.638 1.304 6.425 3.004 8.352 1.237 1.395 2.68 2.025 4.307 1.891.797-.065 1.72-.328 2.768-.798a9.1 9.1 0 0 0 2.735-1.846m-40.07-12.358 8.497-4.406.862-.025.87 29.771c.057 1.98.173 3.22.356 3.703.183.475.531.847 1.062 1.089.532.242 1.601.362 3.21.35l.027.959-13.314.389-.028-.959c1.667-.084 2.737-.257 3.209-.529.481-.263.808-.61.991-1.041.174-.432.235-1.713.172-3.835l-.556-19.066c-.075-2.565-.213-4.214-.403-4.936q-.21-.834-.701-1.206a1.82 1.82 0 0 0-1.174-.357c-.648.02-1.537.312-2.666.887z" style="fill:#000;fill-rule:evenodd"/><defs><linearGradient id="x"><stop offset="0%" stop-color="#c09b51"/><stop offset="7%" stop-color="#9b722d"/><stop offset="12%" stop-color="#9b722d"/><stop offset="47%" stop-color="#fbecac"/><stop offset="60%" stop-color="#e3cf8f"/><stop offset="100%" stop-color="#e3cf8f"/></linearGradient><linearGradient xlink:href="#x" id="y" x1="0" x2="0" y1="0" y2="1" gradientTransform="rotate(-112 .5 .5)" gradientUnits="objectBoundingBox"/></defs><path d="M110.734 502.754c-8.312-28.248-18.566-55.966-31.312-83.004-28.38 5.93-54.807 13.595-78.282 25.325 8.851 4.327 19.41 16.802 24.864 25.234 7.196 11.125 15.806 31.93 17.44 45.215.415 3.382.794 6.174 1.237 8.507 4.865-3.033 10.271-5.735 16.382-8.192 12.688-5.102 28.412-9.147 48.637-12.895z" style="fill:url(#y)"/><defs><linearGradient id="z"><stop offset="0%" stop-color="#c09b51"/><stop offset="7%" stop-color="#9b722d"/><stop offset="12%" stop-color="#9b722d"/><stop offset="47%" stop-color="#fbecac"/><stop offset="60%" stop-color="#e3cf8f"/><stop offset="100%" stop-color="#e3cf8f"/></linearGradient><linearGradient xlink:href="#z" id="A" x1="0" x2="0" y1="0" y2="1" gradientTransform="rotate(-112 .5 .5)" gradientUnits="objectBoundingBox"/></defs><path d="M483.553 502.754c8.312-28.248 18.566-55.966 31.312-83.004 28.38 5.93 54.807 13.595 78.282 25.325-8.851 4.327-19.41 16.802-24.864 25.234-7.196 11.125-15.805 31.93-17.44 45.215-.415 3.382-.794 6.174-1.237 8.507-4.865-3.033-10.271-5.735-16.382-8.192-12.688-5.102-28.412-9.147-48.636-12.895z" style="fill:url(#A)"/><defs><linearGradient id="B"><stop offset="0%" stop-color="#553808"/><stop offset="9%" stop-color="#553808"/><stop offset="21%" stop-color="#f9e2a7"/><stop offset="43%" stop-color="#9a7032"/><stop offset="57%" stop-color="#9a7032"/><stop offset="79%" stop-color="#f9e2a7"/><stop offset="91%" stop-color="#553808"/><stop offset="100%" stop-color="#553808"/></linearGradient></defs><path d="M8.851 450.379C26.232 443 44.738 437.114 64.34 432.202c22.06-5.528 45.517-9.825 70.329-13.63 24.82-3.806 50.97-6.702 78.425-8.601 26.797-1.853 54.822-2.76 84.046-2.639h.01c29.225-.12 57.25.786 84.047 2.639 27.453 1.898 53.605 4.795 78.424 8.601 24.812 3.805 48.27 8.102 70.329 13.63 19.601 4.912 38.107 10.798 55.488 18.177a54 54 0 0 1 2.157-1.756c-17.854-7.673-36.879-13.756-57.048-18.81-22.157-5.553-45.687-9.864-70.56-13.679-24.858-3.812-51.076-6.715-78.626-8.62-26.803-1.854-54.883-2.76-84.216-2.638-29.333-.122-57.412.784-84.215 2.638-27.55 1.905-53.768 4.808-78.627 8.62-24.873 3.815-48.402 8.126-70.56 13.679-20.17 5.054-39.194 11.137-57.048 18.81a54 54 0 0 1 2.158 1.756z" style="fill:url(#B)"/><defs><linearGradient id="C"><stop offset="0%" stop-color="#9a7032"/><stop offset="12%" stop-color="#9a7032"/><stop offset="25%" stop-color="#f9e2a7"/><stop offset="50%" stop-color="#553808"/><stop offset="75%" stop-color="#f9e2a7"/><stop offset="88%" stop-color="#9a7032"/><stop offset="100%" stop-color="#9a7032"/></linearGradient></defs><path d="M213.032 482.999c-27.587 1.907-53.84 4.813-78.73 8.62a1083 1083 0 0 0-25.946 4.266 737 737 0 0 0-25.036 4.879c-18.998 4.061-29.182 7.383-40.13 12.977q.146.912.253 1.783l.1.81c11.08-5.738 21.16-9.072 40.287-13.161a734 734 0 0 1 24.95-4.86 1081 1081 0 0 1 25.888-4.257c24.852-3.8 51.037-6.7 78.528-8.6 26.766-1.851 54.756-2.76 83.943-2.64h.01c29.186-.12 57.176.789 83.942 2.64 27.49 1.9 53.677 4.8 78.53 8.6a1081 1081 0 0 1 25.887 4.257 734 734 0 0 1 24.95 4.86c19.126 4.089 29.206 7.423 40.286 13.162l.1-.811q.107-.87.254-1.783c-10.949-5.594-21.132-8.916-40.13-12.977a737 737 0 0 0-25.036-4.88 1083 1083 0 0 0-25.946-4.265c-24.891-3.807-51.144-6.712-78.731-8.62-26.771-1.852-54.815-2.76-84.11-2.64-29.297-.12-57.341.789-84.113 2.64z" style="fill:url(#C)"/><defs><linearGradient id="D"><stop offset="0%" stop-color="#a47f47"/><stop offset="100%" stop-color="#e7a923"/></linearGradient></defs><path d="M484.588 502.944c29.964 5.553 50.05 11.758 65.018 21.086-1.005 5.3-2.337 8.223-5.164 10.28-4.038 2.938-11.148 4.122-20.118 4.084-5.43-.022-22.21-1.512-34.448-6.244-8.387-3.242-11.874-6.443-11.874-9.372 0-3.649 5.722-16.444 6.586-19.834" style="fill:url(#D)"/><defs><linearGradient id="E"><stop offset="0%" stop-color="#e7a923"/><stop offset="38%" stop-color="#9a7032"/><stop offset="50%" stop-color="#a47f47"/><stop offset="87%" stop-color="#f3e9b1"/><stop offset="100%" stop-color="#ccad4e"/></linearGradient><linearGradient xlink:href="#E" id="F" x1="0" x2="0" y1="0" y2="1" gradientTransform="rotate(-98 .5 .5)" gradientUnits="objectBoundingBox"/></defs><path d="M491.983 519.326c13.46-.83 31.731 3.169 41.428 9.475-.944 3.865-4.868 5.005-18.227 3.187-3.331-.453-21.95-3.59-25.641-6.38l1.254-6.313c.392.01.788.056 1.186.031" style="fill:url(#F)"/><defs><linearGradient id="G"><stop offset="0%" stop-color="#9e6c2b"/><stop offset="34%" stop-color="#654921"/><stop offset="58%" stop-color="#f3e9b1"/><stop offset="100%" stop-color="#816d32"/></linearGradient><linearGradient xlink:href="#G" id="H" x1="0" x2="0" y1="0" y2="1" gradientTransform="rotate(-98 .5 .5)" gradientUnits="objectBoundingBox"/></defs><path d="M533.41 528.801c-10.079-5.157-28.374-9.086-41.427-9.475q-.598-.017-1.186-.03c-7.226-.16-13.188.332-12.28 5.44-.349-.664-.515-1.317-.515-1.958 0-3.649 5.722-16.444 6.586-19.834 20.224 3.748 35.948 7.793 48.636 12.895-.05 5.75.885 10.102.187 12.962" style="fill:url(#H)"/><path d="m58.074 179.07-.55-.247 3.212-7.104.549.248-.342.757q-.54 1.189.168 2.28c.216.348.881.771 2.004 1.279l8.191 3.703c2.028.917 3.508 1.824 4.445 2.731.936.907 1.538 2.134 1.805 3.668q.402 2.302-.967 5.334c-.994 2.2-2.131 3.7-3.413 4.491a6.77 6.77 0 0 1-4.18 1.03c-1.03-.08-2.757-.671-5.19-1.772l-7.897-3.57q-1.86-.839-2.671-.59-.81.252-1.328 1.396l-.342.757-.55-.248 3.943-8.72.549.248-.35.773q-.563 1.25-.018 2.14c.243.41.934.869 2.063 1.379l8.805 3.98q1.174.531 2.795 1.007 1.615.466 2.722.288 1.105-.189 2.14-.997 1.03-.817 1.73-2.364c.596-1.32.842-2.636.739-3.937s-.524-2.348-1.246-3.133q-1.091-1.183-4.308-2.64L62.4 177.54q-1.89-.856-2.551-.652-.918.283-1.435 1.427zm3.344-9.359 2.971-5.168 21.214-3.478-11.105-6.385q-1.776-1.019-2.45-.874-.898.189-1.558 1.335l-.39.677-.522-.3 3.886-6.758.523.3-.395.686c-.475.827-.563 1.549-.27 2.18q.277.576 1.894 1.507l16.204 9.317-.295.513-22.766 3.75 11.844 6.81q1.778 1.02 2.442.89.907-.203 1.562-1.341l.394-.687.522.3-3.886 6.759-.522-.3.39-.677c.478-.832.567-1.558.274-2.19q-.276-.576-1.893-1.507l-13.371-7.688c-.972.18-1.647.359-2.02.524q-.56.255-1.312.93-.362.343-.843 1.176zm36.73-19.207.507.325-5.128 8-.507-.326.424-.661c.497-.775.63-1.478.41-2.116q-.232-.613-1.907-1.686l-12.084-7.747c-.943-.605-1.607-.944-1.983-1.02q-.435-.08-.955.19-.719.393-1.141 1.057l-.425.661-.507-.325 5.128-8 .507.326-.43.671q-.73 1.142-.394 2.093c.148.42.78.983 1.898 1.7l12.083 7.746q1.417.907 1.983 1.02.431.087.961-.198a3 3 0 0 0 1.13-1.039zm-9.52-24.12c1.774-2.259 4.174-3.543 7.191-3.846q4.532-.46 8.39 2.573 3.972 3.119 4.628 7.685.658 4.562-2.14 8.12-2.824 3.59-7.305 4.025-4.48.437-8.543-2.756-4.15-3.262-4.556-8.147-.348-4.242 2.335-7.655m.728.968q-1.832 2.331-1.203 5.105.781 3.457 4.95 6.733 4.268 3.357 8.002 3.346c1.9-.018 3.448-.787 4.65-2.317 1.286-1.636 1.703-3.485 1.265-5.553-.443-2.071-2.04-4.183-4.793-6.347-2.985-2.347-5.675-3.51-8.059-3.49q-2.854.032-4.812 2.523m-4.237-8.308 1.453 7.248-.341.434-3.366-4.814zm37.545-26.695 5.74 6.626 3.692-3.198q1.433-1.243 1.54-2.088c.102-.751-.239-1.622-1.013-2.618l.455-.394 5.06 5.842-.455.394c-.822-.72-1.396-1.144-1.711-1.277q-.595-.239-1.317-.047-.72.191-1.77 1.098l-3.693 3.199 4.79 5.53q.965 1.112 1.269 1.269c.206.102.433.134.678.084.248-.045.604-.273 1.064-.671l2.836-2.457q1.416-1.227 1.89-1.984c.312-.499.5-1.118.556-1.845q.101-1.429-.434-3.668l.506-.439 2.191 5.45-12.918 11.191-.395-.455.595-.515q.593-.516.876-1.261.23-.541.025-1.062c-.133-.35-.554-.929-1.262-1.746l-9.442-10.9q-1.379-1.595-2.018-1.683-.874-.107-1.915.796l-.594.515-.394-.456 12.922-11.194 3.376 3.54-.48.416q-1.415-1.11-2.162-1.338-.75-.223-1.592.044c-.435.163-1.072.604-1.902 1.323zm23.15-20.502 4.44 6.244-.49.35q-1.52-1.63-2.895-2.253-1.377-.622-2.975-.43-1.59.187-2.818 1.06-1.39.989-1.694 2.477c-.204.994-.05 1.855.461 2.573q.588.826 1.646 1.102c1.026.27 2.968.23 5.83-.136q3.505-.44 4.945-.376c.964.047 1.845.275 2.646.698s1.456.99 1.97 1.713c.973 1.367 1.278 2.923.924 4.666q-.54 2.621-3.043 4.401c-.527.375-1.047.683-1.569.931-.309.152-.993.392-2.062.728-1.063.332-1.714.582-1.945.747-.223.158-.352.353-.385.575q-.046.338.308 1.04l-.491.349-4.401-6.19.49-.35c1.153 1.131 2.154 1.884 3 2.247q1.277.551 2.936.327 1.662-.217 3.1-1.24c1.11-.788 1.781-1.71 2.005-2.752q.338-1.575-.515-2.775-.477-.667-1.324-1.09-.85-.42-2.04-.465c-.537-.023-1.887.089-4.05.328-2.161.243-3.757.337-4.777.289s-1.926-.265-2.702-.644a5.17 5.17 0 0 1-1.97-1.692c-.92-1.295-1.216-2.769-.886-4.413s1.269-3.016 2.805-4.109c.963-.685 2.15-1.172 3.56-1.47.658-.133 1.085-.273 1.29-.418q.348-.248.422-.609c.045-.244-.03-.6-.237-1.084zm15.933 4.11 3.5 5.46q1.127 1.76 1.784 1.936.91.27 1.966-.406l.714-.458.325.507-8 5.129-.325-.507.704-.452c.789-.505 1.191-1.128 1.201-1.856.003-.4-.337-1.135-1.017-2.196l-7.746-12.084q-1.128-1.761-1.77-1.945c-.621-.172-1.281-.034-1.99.42l-.704.452-.325-.507 6.844-4.388c1.672-1.072 3.098-1.74 4.284-2.018q1.774-.41 3.553.18t2.85 2.266q1.467 2.289.878 4.684t-3.34 4.162q-.675.433-1.52.834-.846.412-1.866.787m-.506-.79q.817-.323 1.423-.62c.402-.191.74-.375 1.003-.544.953-.61 1.532-1.505 1.75-2.685q.328-1.77-.795-3.524a6.1 6.1 0 0 0-1.935-1.933c-.771-.479-1.571-.694-2.392-.652q-1.238.067-2.387.802c-.47.3-1.009.772-1.63 1.415zm16.571-22.546c2.557-1.31 5.273-1.473 8.14-.486q4.31 1.476 6.547 5.845 2.304 4.495.99 8.917c-.872 2.946-2.655 5.105-5.34 6.48q-4.066 2.081-8.319.603-4.252-1.477-6.608-6.077-2.405-4.698-.73-9.305 1.456-3.999 5.32-5.977m.256 1.185c-1.757.9-2.836 2.28-3.227 4.133q-.734 3.468 1.68 8.186 2.475 4.835 5.871 6.386c1.733.778 3.461.727 5.193-.16 1.852-.949 3.005-2.454 3.47-4.516.464-2.067-.102-4.652-1.698-7.77-1.731-3.38-3.688-5.56-5.862-6.539q-2.606-1.165-5.427.28m41.819 5.349-5.525 2.179-10.813-6.886q-.743.328-1.218.515-.196.076-.419.154c-.152.054-.305.108-.47.161l2.369 6.007q.765 1.946 1.376 2.245.84.442 1.992-.012l.804-.317.22.56-8.84 3.486-.22-.56.773-.305q1.307-.517 1.532-1.587c.09-.395-.1-1.183-.563-2.356l-5.265-13.353q-.765-1.946-1.376-2.244-.855-.436-2.023.024l-.773.304-.22-.56 7.511-2.962q3.29-1.296 5.034-1.433a5.95 5.95 0 0 1 3.343.726q1.595.855 2.298 2.636.75 1.906.063 3.794c-.462 1.26-1.478 2.423-3.063 3.497l6.6 4.225c1.51.975 2.704 1.554 3.58 1.724.873.177 1.897.097 3.072-.222zm-18.825-4.842q.288-.114.5-.19c.142-.051.258-.09.346-.126q2.92-1.151 3.896-3.01.98-1.869.2-3.843-.763-1.93-2.433-2.673-1.676-.735-3.647.04-.872.345-2.25 1.211zm29.186-21.148 1.65 4.951-.596.17c-.367-.847-.703-1.436-1.008-1.755-.499-.513-1.056-.842-1.679-.972q-.934-.205-2.253.17l-3.004.853 4.625 16.286q.558 1.971 1.123 2.342.783.49 2.022.139l.735-.209.165.58-9.077 2.577-.164-.58.767-.217c.911-.26 1.477-.716 1.708-1.373q.203-.605-.304-2.4l-4.625-16.286-2.559.727q-1.496.427-2.062.823c-.49.354-.844.866-1.074 1.546q-.339 1.01-.04 2.492l-.595.169-1.2-5.08zm17.029 18.158.135.587-9.259 2.136-.135-.586.766-.177c.896-.207 1.483-.617 1.771-1.227q.263-.6-.185-2.538l-3.228-13.986c-.252-1.092-.49-1.799-.706-2.116q-.254-.36-.815-.532a3.1 3.1 0 0 0-1.555-.042l-.766.177-.136-.587 9.26-2.137.135.587-.777.18q-1.32.306-1.745 1.22-.28.604.17 2.542l3.227 13.986q.38 1.64.706 2.115.247.364.826.53a3 3 0 0 0 1.534.047zM267.66 25.7l.106.593c-.743.28-1.286.632-1.618 1.06-.471.627-.831 1.53-1.075 2.701l-4.267 19.914-.593.106-11.521-17.35q-.887-1.346-1.202-1.62a2.9 2.9 0 0 0-1.134-.614q-.635-.175-1.646-.08l-.106-.592 8.904-1.59.106.593q-1.488.416-1.873.866c-.253.3-.35.64-.28 1.03.095.533.491 1.329 1.189 2.377l7.833 11.794 2.9-13.547q.423-2.003.294-2.726c-.055-.307-.268-.58-.625-.806q-.548-.346-1.683-.322h-.284l-.106-.594zm14.83 14.116-8.568.652-1.216 3.577c-.301.883-.441 1.543-.41 1.966.026.333.21.621.552.852.336.226 1.044.34 2.112.338l.045.6-6.972.53-.046-.6q1.365-.347 1.742-.77.774-.85 1.599-3.32l6.395-18.797.55-.041 9.089 17.814c.73 1.432 1.364 2.346 1.904 2.752.54.401 1.259.592 2.17.58l.045.6-8.719.663-.046-.601q1.314-.166 1.752-.575.436-.41.392-.953-.055-.717-.823-2.219zm-.59-1.163-4.405-8.64-3.147 9.215zm51.332-12.075-.966 7.601-.597-.076q-.013-2.227-.603-3.618-.591-1.39-1.896-2.331-1.298-.941-2.79-1.131c-1.13-.143-2.102.081-2.925.674q-1.236.891-1.404 2.205-.128 1.006.463 1.925c.572.894 2.028 2.18 4.379 3.85q2.876 2.052 3.893 3.075c.677.688 1.17 1.453 1.472 2.306.302.854.4 1.715.288 2.595q-.318 2.495-2.483 4.058c-1.447 1.041-3.19 1.432-5.22 1.174a10.4 10.4 0 0 1-1.784-.378c-.33-.098-.996-.385-2.01-.862q-1.512-.715-1.937-.77c-.27-.034-.497.022-.672.163q-.264.218-.478.973l-.598-.076.958-7.534.597.076c.082 1.612.308 2.844.685 3.684.375.846 1.023 1.592 1.936 2.23q1.37.968 3.121 1.19c1.35.171 2.468-.052 3.34-.667q1.315-.928 1.5-2.389.103-.814-.234-1.699-.341-.885-1.186-1.725-.57-.569-3.2-2.503c-1.754-1.286-2.991-2.297-3.709-3.024-.717-.726-1.237-1.5-1.55-2.304a5.16 5.16 0 0 1-.302-2.58q.301-2.366 2.337-3.845c1.357-.986 2.978-1.359 4.848-1.121 1.173.149 2.375.594 3.614 1.33.574.349.983.535 1.232.567q.424.054.723-.16c.199-.15.385-.464.56-.959zm16.758 18.316-8.459-1.51-2.07 3.16c-.514.78-.815 1.383-.889 1.8-.059.33.047.654.32.964q.407.456 1.961.854l-.106.593-6.884-1.23.106-.592q1.409.005 1.88-.31.96-.629 2.377-2.816l10.89-16.601.543.097 4.348 19.52c.349 1.57.735 2.613 1.156 3.141.422.523 1.07.888 1.956 1.103l-.106.593-8.608-1.537.106-.593c.875.11 1.488.073 1.84-.12.351-.191.553-.467.617-.824q.127-.707-.243-2.354zm-.282-1.273-2.104-9.468-5.35 8.136zm14.425-11.044 5.647 1.91 7.534 20.135 4.105-12.134q.656-1.941.382-2.572-.36-.846-1.613-1.27l-.74-.25.194-.571 7.384 2.499-.193.57-.75-.254c-.903-.305-1.628-.25-2.191.16q-.51.383-1.11 2.15l-5.991 17.705-.56-.19-8.102-21.603-4.379 12.942q-.656 1.941-.398 2.567.375.852 1.618 1.272l.75.254-.192.57-7.385-2.498.193-.57.74.25c.908.307 1.638.254 2.201-.156q.511-.384 1.11-2.15l4.944-14.61c-.366-.92-.672-1.547-.907-1.88-.24-.334-.628-.7-1.168-1.107q-.405-.288-1.316-.598zm42.354 15.384-1.695 4.937-.576-.227c.222-.896.312-1.568.264-2.006-.085-.711-.328-1.31-.744-1.792q-.62-.73-1.894-1.232l-2.905-1.146-6.21 15.75q-.753 1.905-.53 2.542.326.865 1.523 1.338l.711.28-.22.56-8.778-3.46.22-.56.743.292c.881.348 1.608.329 2.19-.053q.53-.359 1.215-2.093l6.21-15.75-2.475-.975q-1.447-.569-2.138-.598c-.605-.016-1.196.176-1.792.577q-.882.596-1.544 1.956l-.576-.227 2.13-4.765zm7.372 20.5-7.648-3.918-2.904 2.416c-.719.597-1.182 1.086-1.376 1.464-.152.297-.146.639.025 1.014.169.369.713.836 1.625 1.39l-.274.537-6.224-3.188.274-.536q1.346.416 1.889.253 1.102-.32 3.096-1.998l15.266-12.693.492.251-1.548 19.94c-.125 1.602-.06 2.712.188 3.34.25.624.764 1.163 1.548 1.627l-.275.536-7.782-3.986.274-.536q1.207.544 1.794.424c.393-.081.666-.285.831-.608q.329-.64.457-2.323zm.103-1.301.754-9.67-7.494 6.218zm53.705 19.285-4.257 6.229-.395-.31c.862-2.188 1.114-4.061.742-5.61-.37-1.552-1.238-2.865-2.614-3.947q-1.726-1.356-3.815-1.572-2.085-.216-4.405 1.084-2.312 1.302-4.568 4.17-1.861 2.367-2.47 4.696c-.406 1.554-.343 3.036.18 4.447q.79 2.12 2.732 3.643 1.691 1.33 3.55 1.62 1.864.295 5.105-.648l.192.577q-3.133 1.292-5.722 1-2.588-.298-4.983-2.179c-2.88-2.264-4.272-5.087-4.165-8.472q.11-3.785 2.652-7.022c1.368-1.74 3.016-3.034 4.936-3.88 1.924-.85 3.879-1.136 5.869-.87q2.99.404 5.407 2.306 1.881 1.476 2.987 3.844c.207.467.39.767.543.887q.344.27.794.227.608-.084 1.231-.593zm12.178 11.235c2.078 1.981 3.128 4.492 3.141 7.525q.028 4.555-3.36 8.107-3.484 3.655-8.092 3.873-4.603.22-7.878-2.905-3.306-3.152-3.311-7.655-.008-4.501 3.558-8.242 3.644-3.82 8.544-3.757 4.255.058 7.398 3.054m-1.035.631c-1.428-1.362-3.086-1.926-4.966-1.684q-3.515.45-7.175 4.285-3.747 3.93-4.093 7.647-.247 2.839 1.863 4.85c1.506 1.436 3.306 2.028 5.407 1.789 2.104-.244 4.359-1.631 6.775-4.165 2.62-2.749 4.035-5.315 4.242-7.69q.241-2.844-2.053-5.032m11.135 34.637.262.481-5.788 2.49-11.238-12.973.455-.394.544.628q.919 1.063 2.001.922c.411-.053 1.091-.495 2.04-1.316l10.849-9.398q1.569-1.358 1.66-2.043.128-.952-.694-1.9l-.543-.628.455-.395 6.572 7.587-.456.395q-1.14-1.345-1.869-1.664c-.479-.213-.91-.267-1.28-.175q-.563.143-2.039 1.42l-10.57 9.156c-.688.595-1.097 1.068-1.241 1.421-.093.25-.085.516.01.795.095.272.612.954 1.55 2.037l1.059 1.222c1.117 1.29 1.991 2.112 2.63 2.466s1.388.538 2.241.552q1.275.016 3.39-.686m21.854 1.69c1.665 2.34 2.218 5.005 1.655 7.985q-.838 4.477-4.839 7.32c-2.745 1.953-5.635 2.708-8.68 2.267q-4.561-.659-7.183-4.348-2.646-3.724-1.797-8.145.847-4.422 5.06-7.416 4.301-3.059 9.102-2.066 4.166.864 6.682 4.403m-1.135.424q-1.718-2.415-4.556-2.597c-2.359-.15-4.977.795-7.858 2.844q-4.427 3.146-5.472 6.73c-.52 1.828-.22 3.53.908 5.116 1.206 1.696 2.861 2.62 4.969 2.783 2.112.16 4.59-.773 7.443-2.802q4.642-3.303 5.626-6.745.776-2.747-1.06-5.33m-3.578 34.31 11.91-16.729-12.844 7.386q-1.776 1.022-1.996 1.662-.291.871.372 2.024l.395.687-.522.3-3.886-6.759.522-.3.397.692q.708 1.23 1.747 1.324.636.05 2.254-.878l12.56-7.221c.85-.49 1.413-.942 1.682-1.347.198-.294.283-.671.266-1.137q-.037-.702-.72-1.89l.523-.3 3.168 5.512-11.048 15.576 18.984-1.775 3.138 5.458-.522.3-.386-.672c-.481-.836-1.064-1.28-1.757-1.344q-.637-.05-2.255.878l-12.56 7.222c-1.184.68-1.845 1.242-1.987 1.677q-.291.87.372 2.024l.387.672-.522.3-4.737-8.237.522-.3.398.691q.716 1.245 1.746 1.324.637.05 2.254-.878l12.845-7.385-20.433 1.907zm20.501 25.542-3.152-7.994-3.776-.106c-.934-.027-1.605.033-2 .189-.31.123-.532.383-.652.778-.116.388-.017 1.098.302 2.117l-.56.221-2.566-6.505.56-.22q.735 1.2 1.25 1.436 1.04.489 3.645.547l19.846.561.203.514-14.338 13.943c-1.153 1.12-1.838 1.995-2.067 2.631-.224.634-.194 1.377.087 2.244l-.56.22-3.207-8.134.56-.22q.546 1.204 1.066 1.503c.348.198.689.226 1.026.093q.67-.263 1.877-1.442zm.936-.909 6.956-6.759-9.733-.286zM53.222 206.193a1.526 1.526 0 1 1 0 3.052 1.526 1.526 0 0 1 0-3.052M540.425 207.442a1.526 1.526 0 1 1 0 3.052 1.526 1.526 0 0 1 0-3.052" style="fill:#000;fill-rule:evenodd"/></svg>