<svg xmlns="http://www.w3.org/2000/svg" viewBox="26.82 144.61 737.15 835.41"><path d="M185.503 224.581a122 122 0 0 1 23.935-35.62l-1.807-.462c-4.207-1.227-10.39-3.207-18.946-6.336-13.054-4.773-38.876-6.342-53.186-1.385l.04.703s-.456 6.387 5.816 12.772c6.273 6.387 10.835 10.264 21.328 16.994 9.87 6.33 17.77 10.656 22.077 12.902zm-25.475 36.348 21.354-29.14c-32.69-17.243-41.476-27.372-46.185-33.2-4.79-5.932-5.897-14.686-5.897-14.686l-.604-.257c-11.975-4.561-31.592-8.553-56.226-9.008-24.634-.457-51.853 2.857-51.853 2.857l8.065 4.97s24.515-2.468 48.236-.757c30.895 2.229 49.497 7.299 49.497 7.299-.114 4.105.43 7.232.43 7.232s-19.248-6.205-45.25-8.258c-26.004-2.052-45.483-.408-45.483-.408 10.629 7.233 28.463 23.74 28.463 23.74-15.195 8.166-27.29 24.557-27.29 24.557 28.909-3.433 61.758 5.258 81.945 14.61a435 435 0 0 1 9.468 4.525l.637.314a219 219 0 0 1 10.185-11.423l1.049.935 18.975 16.785zm-35.518-.669c-9.518-4.345-28.23-12.374-48.276-15.597-22.696-3.65-44.243-1.234-44.243-1.234-2.615 3.785-4.507 7.722-4.507 7.722s22.177-4.209 44.758-1.586c18.856 2.192 37.472 10.108 48.016 15.315l1.103.637a223 223 0 0 1 3.746-4.946zm284.81-36.103c4.304-2.246 12.21-6.574 22.09-12.91 10.493-6.73 15.054-10.607 21.328-16.994 6.273-6.385 5.815-12.772 5.815-12.772l.043-.703c-14.31-4.957-40.134-3.388-53.189 1.385-9.026 3.303-15.414 5.322-19.623 6.533l-1.071.328a122 122 0 0 1 23.853 35.502zm64.227 40.865c10.491-5.205 29.276-13.246 48.304-15.457 22.58-2.623 44.758 1.586 44.758 1.586s-1.893-3.937-4.506-7.722c0 0-21.55-2.416-44.244 1.234-19.861 3.193-38.414 11.104-48.008 15.475l-.88.414q1.906 2.445 3.745 4.945z" style="fill:#33b647;fill-opacity:1;fill-rule:evenodd;stroke:none" transform="matrix(1.33333 0 0 -1.33333 -.667 1121.853)"/><path d="M465.532 254.94a429 429 0 0 1 9.331-4.46c20.187-9.352 53.037-18.043 81.947-14.61 0 0-12.097-16.39-27.291-24.557 0 0 17.834-16.507 28.463-23.74 0 0-19.48-1.644-45.483.408-26.004 2.053-45.25 8.258-45.25 8.258s.543-3.127.429-7.232c0 0 18.602-5.07 49.497-7.299 23.722-1.71 48.236.758 48.236.758l8.067-4.97s-27.221-3.315-51.856-2.858c-24.634.455-44.25 4.447-56.225 9.008l-.604.257s-1.107 8.754-5.897 14.686c-4.708 5.828-13.496 15.957-46.184 33.2l21.151 28.862.736.922 18.59-16.443 1.442-1.172a219 219 0 0 1 10.217 11.47z" style="fill:#33b647;fill-opacity:1;fill-rule:evenodd;stroke:none" transform="matrix(1.33333 0 0 -1.33333 -.667 1121.853)"/><path d="M416.424 301.491c2.022-1.476 5.677-3.558 10.464-3.834 2.739-.158 4.968-.043 6.712.176l.648.113a169 169 0 0 0-14.745-18.103l-.774-.889a121.7 121.7 0 0 1-3.279 23.3zm-239.078-.23c-2.077-1.455-5.6-3.342-10.14-3.604-2.665-.154-4.847-.05-6.567.158l-.769.1a168.4 168.4 0 0 1 15.551-18.955l-.022.756a122 122 0 0 0 3.21 22.404zM207.63 188.5c-4.207-1.227-10.39-3.207-18.946-6.336-13.054-4.773-38.876-6.342-53.186-1.385-2.442.846-4.548 1.883-6.199 3.125l6.88-9.021c23.222-4.545 43.838-1.955 56.953 2.607 15.876 5.522 28.397 7.756 44.265 9.932 15.867 2.176 36.253 4.437 59.642 4.437h.012c23.39 0 43.776-2.261 59.642-4.437 15.867-2.176 28.39-4.41 44.266-9.932 13.115-4.562 33.731-7.152 56.954-2.607l6.879 9.021c-1.65-1.242-3.757-2.279-6.197-3.125-14.31-4.957-40.134-3.388-53.189 1.385-9.026 3.303-15.414 5.322-19.623 6.533l-1.071.328c21.134 21.905 34.133 51.711 34.133 84.557q0 .939-.015 1.875l.945-.771 33.412-29.555 1.443-1.172c37.38 39.121 60.342 92.143 60.342 150.531 0 64.986-28.442 123.321-73.55 163.246l-.47.45 21.796 26.639.586.784c-20.287 17.667-43.416 32.157-68.609 42.694l-.165-.838a122 122 0 0 1-1.245-7.642l-.013-.705a244.2 244.2 0 0 0 56.218-33.714l.493-.356-28.56-34.904-1.118.884A199.5 199.5 0 0 1 393.5 568.88l-.292-.597c-1.946-3.721-4.697-6.858-8.04-9.822l-4.152.347c-.977-5.35-3.124-12.424-5.704-16.63-3.678-6.004-7.484-10.512-14.468-12.578-3.555-1.05-11.845-.87-15.56-.162-7.045 1.343-11.22 3.815-16.298 9.034-.207.214-.837.15-.931-.117-.76-2.169-.996-4.915-.913-6.773.143-.715 1.285-2.177 1.774-2.674 1.927-1.952 3.992-3.124 5.545-5.567 1.734-2.726 1.982-5.847.369-8.73-.193-.34-1.11-1.739-1.296-2.27.205-.296.691-.763.879-.953 1.518-1.525 2.71-3.097 2.838-5.069 3.642-4.127 5.332-10.121 3.675-15.457-1.59-5.111-6.102-8.34-11.202-9.504-3.6-.822-5.043 2.167-4.473 5.224 1.225 1.073 2.78 3.644 2.412 5.38-.161.782-.528 1.25-1.164 1.729-.488.369-1.023.68-1.56.997-1.484-1.855-3.337-5.066-3.981-6.215-1.402-2.496-2.72-5.037-4.053-7.57-1.454-2.765-2.914-5.529-4.5-8.22-1.361-2.31-2.846-4.688-4.679-6.656-2-2.148-4.297-4.089-7.039-5.216l-.039-.016c-1.185-.47-2.196-.69-3.463-.676-.378-.108-.87-.288-.992-.516.111-.57 1.163-2.183 1.476-2.67l.057-.073c1.754-2.319.904-5.185-1.951-6.044-5.136-1.542-11.54-.452-14.26 4.582-1.353 2.502-1.35 5.55-.595 8.234q.338 1.19.858 2.306a10.6 10.6 0 0 0-4.25.422l-.544.165c0-.772.118-1.844.156-2.264.276-2.999-2.274-4.774-5.059-4.034-4.014 1.07-7.049 3.952-8.204 7.933-.675 2.321-.46 4.558.358 6.626-.76.24-1.474.74-2.023 1.53-2.179 3.124-3.614 6.836-3.015 10.692.482 3.102 2.215 5.873 4.7 7.755 2.314 1.752 5.173 2.749 8.082 2.908 4.982 6.725 13.314 5.173 18.583-.788 1.223-1.381 2.67-2.472 4.207-3.478.666-.436.762-.369 1.49-.043 2.803 1.25 7.442 7.049 9.29 9.518a76 76 0 0 1 4.304 6.37c.584.974 1.102 1.83 1.633 2.928-2.774 2.712-6.058 4.433-9.491 6.119-4.729 2.32-10.349 4.886-13.62 9.198a15.4 15.4 0 0 0-2.134 3.836c-2.59 6.8-.548 14.176 2.38 20.657.98 2.058 1.148 3.113.388 4.71s-2.053 2.129-5.703 2.129-5.17-.533-6.31-1.901-.837-4.486.007-8.126c.7-2.95 1.65-5.888 1.79-8.938.117-2.554-.503-4.943-2.274-6.848-2.605-2.623-4.997-2.927-8.114-4.144s-4.638-2.737-5.4-4.334c-.759-1.597-1.368-4.866-2.964-7.831-1.597-2.965-3.148-6.494-3.148-6.494l-4.326 6.94c-1.763 3.175-4.06 5.585-6.792 7.942-2.944 2.542-5.517 4.305-9.37 4.91-1.938-.62-3.046-.994-5-.578-4.983-.584-12.134.05-16.322 2.647-4.43 2.746-5.353 7.508-3.702 12.27.398 1.144 1.35 2.167 2.533 2.524 1.292.39 2.46-.015 3.521-.733.663-.448 2.114-1.476 3.018-1.46 1.851 1.662 3.787 4.508 3.787 4.508-.141.572-2.255 4.247-3.02 5.332-3.304 4.686-8.604 8.852-12.87 11.942-1.534 1.11-2.047 3.124-1.87 4.934a8.4 8.4 0 0 0-1.373-.14l-.592-.252a199.5 199.5 0 0 1-30.987-20.151l-.83-.777-28.558 34.905.496.482a244.1 244.1 0 0 0 61.674 35.95l.667.223c-1.124.668-2.121 1.614-2.945 2.818a9.45 9.45 0 0 0-1.69 5.012l-.636-.191c-25.926-10.54-49.714-25.248-70.53-43.295l-.455-.387 22.482-27.477-.37-.228c-45.204-39.929-73.712-98.326-73.712-163.392 0-58.42 22.982-111.467 60.399-150.593l1.049.935 34.657 30.658.021-1.908c0-32.877 13.023-62.707 34.19-84.62z" style="fill:#bd1a21;fill-opacity:1;fill-rule:evenodd;stroke:none" transform="matrix(1.33333 0 0 -1.33333 -.667 1121.853)"/><path d="M219.738 673.015c.619-2.236 1.098-3.108 2.177-2.867.8.181 1.693 1.218 2.397 2.213l.013.236c.024.386.152.746.415 1.037.608.67 1.67.65 2.505.678.944.031 1.848.092 2.74.439 1.517.587 1.97 2.295 1.916 3.773-.138 3.82-1.76 6.982-4.836 9.275-2.06 1.54-4.171 2.4-6.532 3.337-1.681.667-3.76 1.452-4.628 3.165l-.311.615c-2.731 1.24-4.25-.555-3.702-4.48.049-.345-.019-.573-.17-.651a5.7 5.7 0 0 0 1.069-.565c2.8-1.883 3.61-5.026 3.543-7.632q-.005-.23-.02-.453l.45-.221c1.939-.959 2.176-4.768 2.003-7.965l.101.195c.282.52.698.491.87-.129m8.057-8.44c-1.178-1.393-2.854-2.185-4.714-2.205-1.552-.016-3.093.484-4.336 2.299a6 6 0 0 0-.831 1.82c-.698-3.757-1.223-6.885 1.653-10.438 2.934-3.626 10.88-5.806 15.342-6.445 4.083-.584 8.298-.793 12.447-.794-2.626 1.333-4.574 3.075-5.443 6.041-.808 2.76-.04 8.794-2.307 10.67-1.16.962-3.396 1.239-4.766.617-2.163-.981-4.736-3.628-7.037-1.572zm28.92-147.331-.825 1.488c-1.977 3.562-4.461 6.196-7.51 8.827-3.515 3.035-7.199 5.068-11.824 5.717-.337.046-.627-.004-.949-.106-1.592-.507-2.253-.922-4.023-.434-3.026-.443-10.255-.438-14.547 2.224-2.544 1.576-3.75 4.368-2.34 8.431.193.556.497.404 1.03.043 2.586-1.75 4.062-2.094 5.256-2.007 1.259.09 4.036 3.098 4.036 3.098.905 1.029 2.021 2.372 2.587 3.632.57 1.268-.487 3.22-1.007 4.368-3.014 6.657-9.816 12.064-15.606 16.258-1.56 1.13-1 2.564-.701 4.132l.14.737c-.71.983-2.075 1.511-4.266.955-.653-.167-.913.103-.858.745.225 2.575.995 5.303 3.292 6.859 2.194 1.484 4.768 1.468 7.76.251a22.3 22.3 0 0 0 3.8-2.017c1.167.476 2.333-.873 3.042-2.146-.122 1.084-.273 2.162-.398 3.245-.109.944-.236 2.054-.142 2.999l.048.48a1.4 1.4 0 0 0-.22.709c-.044.793.5 1.26.609 2.898.162 2.462-.819 3.42-2.38 3.908-1.132.354-2.866.541-5.232.17-.776-.122-.882.453-.588 1.114.99 2.22 4.599 5.439 9.503 5.444 3.428.005 6.708-1.209 7.568-4.405.418-1.546.26-2.988-.369-4.401 1.809-.893 1.984-5.238 2.084-6.888q0-.032.003-.063c.366 2.006 1.06 3.837 2.302 4.619l1.081.68c.691 1.021 1.727 1.553 1.692 3.03-.024 1.006-.682 1.957-4.314 2.563-.633.107-.503.399-.08.812 2.239 2.188 6.11 2.752 9.043 1.22 2.711-1.418 5.381-5.388 4.298-9.911a6.1 6.1 0 0 0-.848-1.965l-.049-1.319c-.1-2.606-2.933-7.085-4.253-9.38-.963-1.67-1.961-3.406-2.718-5.181-1.354-3.175-2.308-6.79-2.033-10.265.418-5.293 3.887-12.01 7.685-15.686 2.404-2.328 5.779-3.958 8.911-5.223 2.166 2.877 2.157 8.12 1.908 11.446-.256 3.4-.86 6.8-1.42 10.162-.99 5.94-2.312 13.496-.311 19.314 1.207 3.51 2.8 6.166 6.02 8.228 2.822 1.805 5.9 2.4 9.19 2.655 1.18.47 2.014.735 3.021.83-.914 1.893-.929 4.478-2.557 6.078-1.945 1.913-4.841 2.728-6.547 5.041-1.619 2.192-1.209 4.491-2.485 6.476-.403.652-1.492 1.257-2.136 1.664-1.22.77-2.29 1.563-3.074 2.806-1.204 1.904-.648 5.006-.723 7.202-.055 1.647-.073 3.386-.374 5.006-.342 1.836-.986 4.45-2.516 5.665q-.512.405-1.074.736c-.504.296-2.529 1.292-3.082.845-.099-.08-.117-.312-.119-.425l-.03-1.45-4.595 2.462-.076.424c-.075.424-.189.822-.43 1.182-.46.69-1.597 1.58-2.217 2.19-1.097 1.072-3.02 3.261-4.61 3.42-2.13.212-3.548-1.26-4.728-2.836-1.107-1.48-1.978-3.083-3.152-4.533-2.597-3.197-7.181-5.76-11.345-5.948l-.645-.029c-.919-1.198-2.09-1.958-3.524-2.26-1.983-.419-4.323-.093-6.054 2.434-1.87 2.73-1.057 5.77-.223 8.865.156.572.855.66 1.032.042.983-3.455 1.827-4.009 2.706-3.944.729.051 1.295.736 1.813 1.581l.05.917c.306 5.584 6.075 2.637 6.94 3.253.036.053.04.223.04.284.005 2.503-.78 3.38-2.737 4.657-2.329 1.517-7.127 1.543-9.862 1.629-3.312.106-8.595.114-11.275 2.268l-.455.366-.123-.023c-1.087-.195-2.045-.42-2.359-3.43-.073-.69-.345-.913-.927-.66-3.391 1.476-5.287 4.28-4.998 6.989.36 3.372 3.315 5.261 6.092 5.705l.137.349c.289.732.662 1.427 1.203 2.006 1.928 2.065 5.504 1.775 8.381 1.216-3.345 2.837-6.83 6.57-6.565 11.112l.083 1.428c-.614 1.04-1.485 1.646-2.795 1.717-1.137.062-3.142-.664-4.673-2.227-.501-.512-1.2-.534-1.337.042-1.11 4.67 1.56 9.188 7.12 9.57 4.368.302 7.471-2.01 8.748-4.689l.413-.03c1.901-.13 3.048-4.052 3.511-5.535q.017-.058.036-.115c-.119 2.47.008 6.294 1.491 7.565l.346.296c1.123 3.713-.617 8.354-3.384 9.21-.634.197-.723.577-.352 1.137 1.016 1.53 3.694 2.843 6.293 2.155-2.292 1.737-4.189 4.158-3.512 7.66.8 4.147 4.788 5.68 8.649 5.6.643.416 1.633.565 2.489.613 1.547.085 3.157-.536 4.597-1.37l-.048.057c-1.254 1.525-3.541 3.985-3.458 6.064l.022.542c-1.4 1.149-2.227 3.201-4.035 3.288-1.505.073-3.026-1.072-4.386-2.303-.48-.433-.705-.487-.949.16-1.966 5.244 2.448 10.053 8.11 9.874 2.44-.077 4.989-1.014 6.61-3.056a5.7 5.7 0 0 0 .94-1.734l.795-.691c1.202-1.042 2.216-2.784 3.017-4.644.085 1.663.288 3.309.752 4.924l.234.82c-.339 1.371.436 3.03-.416 5.325-.744 2.002-2.023 2.97-4.451 3.223-.642.067-.436.509-.311.792a7.51 7.51 0 0 0 6.217 4.452c3.877.319 7.687-3.153 7.678-8.224l.74-.82c2.536-2.817 1.614-8.641 1.19-12.091-.213-1.752-.445-3.525-.515-5.289-.269-6.804 2.37-14.198 4.017-20.788 1.555-6.23 3.15-11.968 7.57-16.801 3.397-3.714 8.443-5.938 13.34-7.372.068.422.186.874.358 1.376.854 2.498 5.37 5.525 7.66 6.844 1.013 1.529 2.022 1.947 3.5 2.641.232 1.994.925 4.187 1.731 6.12-2.434-.023-4.734.662-6.13 2.913l-.284.454.269.461c.904 1.555 2.767 2.66 4.413 3.266.456.168.87.278 1.28.356 1.07 1.162 2.156 2.31 3.044 3.54l.123 1.274a7.1 7.1 0 0 0-3.507.37c-3.476 1.28-6.664 2.799-11.825 4.294-.889-2.754-.609-6.745-2.528-9.413-2.192 7.88-6.394 15.034-10.393 18.073 7.212.776 11.848 2.952 16.395 5.992-.517-2.64-1.323-5.806-1.753-8.188 2.462-1.727 4.538-2.596 6.418-3.268 4.42-1.582 7.582-.821 7.644 5.18-.676.282-1.316.59-1.904.946l-.448.269.017.522c.05 1.53.291 3.448.727 5.42-3.387 1.04-6.035.322-7.549-3.603-.104-.265-.805-.281-.862 0-1.13 5.633-.028 9.493 1.71 11.524 2.472 2.888 7.812 3.968 11.815 1.483 6.11-.041 12.225.082 18.35.036q.086-.003.172-.013a582 582 0 0 1 3.181 3.855c1.765 2.163 3.79 4.75 6.86 7.902 1.47 1.511 2.216 1.391 2.734.676.358-.503.258-.803.876-1.41.509-.502 1.731-.727 3.022-.894 1.775 1.475 3.6 2.794 5.463 3.847a.8.8 0 0 0 .371.126c1.239.168 1.83-1.893 2.082-2.783.228-.804.649-2.417.085-3.142-1.463-1.884-4.17-3.92-6.105-5.459 2.5.722 5.129 1.2 7.437 1.505l1.931.254-1.073-1.625c-2.285-3.46-3.14-7.74-2.75-11.838l.105-1.125-1.116.162c-.855.124-2.485.382-4.21.47l-.501-1.342c-1.645-4.407.41-8.235 4.186-10.507 4.813 4.035 9.6 8.097 14.419 12.124 8.686 7.26 17.466 14.307 26.525 21.102l1.145.86.262-1.407c.429-2.302.357-5.034-.329-7.285-.38-1.25-1.238-1.543-2.071-2.353-.824-.803-1.472-1.517-1.701-2.689-.329-1.659.336-3.67 1.075-5.297 3.821 2.96 7.283 6.139 10.677 9.604 2.785 2.846 5.488 5.85 8.51 8.448a37.6 37.6 0 0 0 4.547 3.378l1.123.702.227-1.304q.195-1.129.178-2.276c-.092-6.296-5.544-12.878-9.324-17.537-2.772-3.413-3.262-5.704-1.162-9.746 1.482-2.853 4.567-6.004 6.316-9.276 4.502.877 7.995 2.64 9.347 5.736.435.996.78 1.193.994-.176 1.002-6.32-2.264-10.847-8.722-12.438q-.47-.115-.954-.213c-.424-.92-1.029-1.752-1.632-2.56-.89-1.192-1.756-2.334-2.524-3.613-1.642-2.732-2.708-4.973-2.956-8.232-.414-5.389 1.574-10.7 2.671-16.056 4.031-2.964 7.43-4.908 10.939-3.802 1.034.325 1.517-.04.694-1.159-3.057-4.144-7.196-5.865-12.924-2.49l-1.236.733c-8.406-4.804-15.389-10.139-21.467-18.02l-.209-.272c3.03-2.463 5.885-3.825 8.543-2.967 1.037.335 1.522-.155.696-1.276-3.058-4.146-7.274-5.922-13.044-2.608q-.348.2-.707.428s-.36-.744-2.127-1.595c-3.26-1.91-6.107-3.938-8.85-6.74-3.05-3.116-5.516-6.721-7.53-10.571 3.2-4.912 5.931-8.697 8.975-9.725 1.033-.348 1.5-.77.275-1.426-4.743-2.54-8.971-.46-12.916 3.3-3.42-4.559-5.488-10.985-1.345-15.816 2.102-2.456 6.863-4.111 9.832-5.208l.884-.327-.377-.864c-1.301-2.968-1.645-6.325-.803-9.467.565-2.117 1.87-4.612 3.907-5.646.52-.24 4.556.628 5.325.744 1.038.155 2.118.264 3.166.196 2.382-.156 2.544-2.96 2.827-4.967.85.853 2.026 2.36 2.378 2.827a56 56 0 0 1 4.68 7.322q.672 1.253 1.258 2.546c1.672 3.691 3.828 8.283 3.38 12.496-2.812-.82-5.921-1.118-8.555.38-4.323 2.461-6.621 9.21-6.45 13.997l.054 1.59 1.324-.88c.669-.444 3.668-2.56 4.297-2.683 5.212-.78 11.064 6.245 13.935 9.75 6.558 8.007 12.398 16.66 17.49 25.662l1.438 2.542.747-.417-.54-2.734c-1.587-8.042-3.264-20.275-1.613-28.224.89-4.277 2.366-8.466 3.084-12.767.658-3.958.249-7.488-.604-11.361-1.08-4.907-3.608-9.333-7.188-12.844l-1.488-1.46-.023 2.084c-.049 4.303-.377 12.38-4.71 14.86a5 5 0 0 1-.28.15c.104-10.917-.466-25.417-6.127-34.652-3.262-5.324-6.608-9.342-12.734-11.156-2.95-.872-10.916-.56-14.027.033-7.467 1.423-11.758 5.68-16.9 10.796-.837.832-2.205-.574-2.64-1.205-1.835-2.655-2.62-7.746-2.465-10.965.076-1.54 1.666-3.706 2.708-4.764 1.664-1.686 3.83-3.006 5.115-5.028 1.085-1.705 1.417-3.563.394-5.388-.668-1.193-1.696-2.467-1.74-3.885-.086-2.87 4.533-4.056 3.626-7.184l-.001-.006c3.17-2.958 5.613-8.307 4.06-13.298-1.114-3.59-4-6.042-8.46-7.06-.57-.13-.798.067-.681.7 2.486 3.302 2.49 6.132 2.123 7.395-.983 3.41-3.467 3.945-5.318 5.347-.183.14-.847.583-.847.583-2.262-1.27-5.241-6.46-6.513-8.727-1.415-2.522-2.75-5.091-4.096-7.649-1.428-2.714-2.864-5.44-4.422-8.082-1.212-2.052-2.632-4.344-4.257-6.09-1.662-1.786-3.617-3.486-5.893-4.424a6.5 6.5 0 0 0-2.856-.431c-1.678-.39-3.113-1.095-3.698-2.669-.58-1.561.099-2.927 1.826-5.597.269-.414.868-.892-.12-1.188-4.357-1.31-8.41-.122-10.1 3.01-1.6 2.955-.608 8.372 4.03 12.43.425 2.01.911 3.94 1.454 5.9a27 27 0 0 1-.495-.526c-1.047-1.145-2.017-2.315-3.197-3.334-2.23-1.921-4.767-2.83-7.698-1.94l-1.216.369c-.68-.014-1.356.166-2.078-.163-1.77-.807-1.52-3.196-1.286-5.722.06-.653-.33-.759-.975-.586-3.124.831-5.141 3.146-5.916 5.811-.738 2.543.067 5.104 2.145 7.575 1.079 1.282 2.54 2.488 4.347 2.822l1.053.826c1.574 1.233 3.776 2.253 6.06 2.983-2.182-.09-4.251.113-5.348 1.368l-.477.546c-4.679.452-7.795-2.006-8.869-6.71-.154-.681-.695-.784-1.03-.301-4.42 6.343-2.487 11.244.978 13.868 2.38 1.804 5.283 2.61 7.849 2.33l.31.506c3.731 6.057 9.668 4.333 13.745-.276 1.429-1.617 3.063-2.87 4.86-4.047 1.601-1.049 3.218-1.188 4.96-.41 5.434 2.424 15.661 16.598 17.83 22.68-3.215 3.946-7.726 6.303-12.225 8.51-4.13 2.027-9.14 4.256-11.985 8.006a12.2 12.2 0 0 0-1.686 3.026c-2.614 6.866.122 14.71 3.283 20.936-.052 2.465-.59 5.153-2.527 6.843-2.87 2.505-12.718 2.497-15.322-.375-1.264-1.393-2.112-2.88-2.317-4.777-.243-2.25.318-4.881.836-7.07.62-2.61 1.586-5.675 1.707-8.334.237-5.187-3.587-6.136-7.619-7.593-2.558-.924-4.139-1.627-6.14-3.598-1.586-1.933-2.099-3.301-3.01-6.608-.913-3.308-2.054-4.67-2.054-4.67z" style="fill:#231f20;fill-opacity:1;fill-rule:evenodd;stroke:none" transform="matrix(1.33333 0 0 -1.33333 -.667 1121.853)"/><path d="m282.853 687.647-.174-1.795-.14-.195c-.724-1.003-1.56-1.93-2.407-2.848l.292.025c.936.075 1.574.233 2.418.673 1.285.667 2.773 1.22 4.25 1.74.214 1.59.127 3.173-.54 4.764-.876-.916-1.86-1.654-2.962-2.107a7 7 0 0 0-.737-.257m5.172-2.075c.175 1.722-.003 3.433-.826 5.17 1.006 1.224 1.849 2.674 2.543 4.157 1.566-2.183 2.669-4.678 3.66-7.202q-.245-.122-.495-.236a48 48 0 0 0-3.06-1.24 99 99 0 0 0-1.822-.65m6.164 2.549c.726.415 1.427.893 2.056 1.408 1.761 1.441 1.42 3.484-.013 5.037-1.358 1.472-3.256 2.422-5.337 3.175a32 32 0 0 0-.737-1.907c1.756-2.322 2.957-4.997 4.031-7.714" style="fill:#fff;fill-opacity:1;fill-rule:evenodd;stroke:none" transform="matrix(1.33333 0 0 -1.33333 -.667 1121.853)"/><path d="M297.052 133.237c24.531 0 43.804-3.877 61.482-9.238s23.152-5.701 34.33-4.332c10.965 1.342 29.765 7.297 39.345 20.299s20.996 28.53 20.996 28.53-11.638-3.333-29.207-2.184c-17.45 1.14-28.397 6.728-44.935 10.378-15.425 3.405-45.05 8.666-82.011 8.666h-.011c-36.962 0-66.585-5.261-82.01-8.666-16.537-3.65-27.486-9.238-44.935-10.378-17.571-1.149-29.207 2.183-29.207 2.183s11.415-15.527 20.995-28.53c9.58-13.001 28.38-18.956 39.347-20.298 11.177-1.37 16.65-1.027 34.328 4.332 17.677 5.361 36.951 9.238 61.482 9.238zm89.834 497.072.596.893a252 252 0 0 1-17.155 5.857l-.48-.39a58 58 0 0 1-5.665-5.75c.967-.503 1.895-.406 2.71-.144.99-.751 1.945-1.693 2.76-2.648l.394-.41a242 242 0 0 0 12.639-4.338s3 4.808 4.2 6.93m-147.299 2.436c-.38.339-.798.682-1.086.964-.53.518-2.03 2.136-2.765 2.507-.611-.071-1.377-1.133-1.684-1.544-1.133-1.515-2.029-3.15-3.233-4.634l-.16-.356q4.68 1.319 9.435 2.453zm111.948-46.939c1.37-3.095 3.446-5.825 6.164-7.37 2.078-1.184 4.33-1.578 6.6-1.469 0 0-.701-2.934-2.906-7.495-2.206-4.563-4.174-7.225-4.174-7.225-2.198 1.9-4.19 1.826-6.852 1.522-2.659-.305-4.557-.772-4.557-.772-.847.785-1.466 2.266-1.72 3.215-.649 2.421-.362 5.034.64 7.32l1.764 4.027-4.126 1.525c-2.245.83-6.93 2.451-8.49 4.272-1.704 1.988-1.797 4.42-1.12 6.743l.088.434a198 198 0 0 0 18.52-4.287z" style="fill:#bd1a21;fill-opacity:1;fill-rule:evenodd;stroke:none" transform="matrix(1.33333 0 0 -1.33333 -.667 1121.853)"/><path d="M216.503 422.323c-.162-.054-.108-.487.055-.487 3.728-1.567 6.484-4.269 6.484-8.915 0-3.567-2-6.106-4.593-7.836-2.594-1.836-7.512-2.379-9.673-2.379-1.513 0-7.457.11-9.888.164-1.946.053-3.242-.055-4.107-.055-.973 0-1.73.377-1.73.866 0 .486.92.81 1.514.918 3.296.648 3.512 1.459 3.728 3.296.108 1.135.433 6.538.433 17.237 0 4.594-.163 7.35-.325 8.106-.27 1.189-.594 1.62-3.404 2.16-.702.11-1.405.434-1.405 1.028 0 .432.81.702 1.513.702h3.567c1.728 0 8.321.379 10.537.379 3.133 0 6.16-.594 7.78-1.621 2.648-1.621 3.783-3.999 3.783-6.646 0-4.108-2.81-5.89-4.269-6.917m-8.97 13.239c-.324 0-1.296-.163-1.89-.325-.109-.053-.433-.54-.487-.864-.109-.865-.217-2.432-.217-11.51 0-.27.271-.703.595-.703 1.945 0 5.025.324 6.322 1.297 1.676 1.19 2.594 3.026 2.594 5.134 0 4.485-3.026 6.97-6.916 6.97m4.376-16.102c-1.242.702-2.81 1.026-4.647 1.026-.757 0-1.675-.216-1.838-.378-.161-.162-.431-.432-.431-2.54-.055-1.404.107-7.888.216-9.51.054-.433.324-1.296.702-1.73.919-.973 2.432-1.836 3.404-1.836 3.459 0 6.593 3.46 6.593 7.944 0 3.187-1.621 5.726-4 7.024m31.179 17.669c6.269 0 8.376.163 8.862.217.378.054.702-.324.702-.65-.107-1.566.162-4.159.217-5.996.053-.703-.27-1.514-.81-1.514-.433 0-.865.54-1.244 1.783-.648 2.108-1.73 3.675-3.62 3.945-1.675.162-6.376.162-7.511.108-.325 0-.811-.486-.811-.594-.27-1.621-.325-7.998-.325-11.564 0-.864.218-1.89.65-1.89 1.621 0 5.08-.055 6.267.107 1.676.27 2.27.648 2.864 2.485.271.757.595 1.406 1.135 1.406.432 0 .65-.81.65-1.298 0-.702-.218-2.486-.218-3.458 0-1.892.108-3.241.108-4.107 0-1.296-.485-1.783-.919-1.783-.214 0-.647.377-.971 1.404-.542 1.946-1.405 2.432-2.216 2.594-.702.162-2.324.324-3.512.324-.92 0-2.54-.052-3.35-.162-.216-.052-.433-.486-.488-.593 0-3.567.218-8.916.218-9.834.107-2.217.539-2.866 3.295-3.405.865-.162 1.567-.54 1.567-1.082 0-.431-.81-.81-1.783-.81-1.405 0-3.404.162-5.457.162-2.756 0-5.945-.324-7.727-.324-1.081 0-1.568.324-1.568.65 0 .54.594.918 1.568 1.133 2.378.648 2.863 1.568 2.971 2.865.163 1.676.433 4.916.433 15.508 0 5.026 0 8.16-.108 9.564-.108 1.784-.757 2.594-2.865 3.08-1.134.325-1.728.595-1.728 1.135 0 .487.865.757 1.62.757 2.378 0 4.81-.163 6.971-.163zm15.67.109c1.46 0 3.836-.109 5.404-.109 2.107 0 5.836.217 7.133.217 1.242 0 1.675-.27 1.675-.65 0-.485-.65-.863-1.19-1.025-2.918-.703-3.35-1.514-3.404-2.162-.378-2.702-.378-8.16-.378-16.157 0-3.729.054-8.159.27-9.997.108-1.296 1.73-2.054 1.946-2.107 1.026-.162 2.972-.27 4.484-.27 1.19 0 2.919.053 3.891.27.487.107 1.08.217 1.676.756.702.703 1.999 1.947 3.404 4.217.486.7 1.08 1.078 1.458 1.078.38 0 .433-.592.217-1.457-.594-1.89-1.405-4.863-1.73-6.377-.107-.324-1.026-.92-1.242-.92-.811 0-5.62.379-16.589.379-2.594 0-6.322-.324-7.998-.324-.972 0-1.62.216-1.62.703 0 .379.485.865 1.35 1.027 2.972.54 3.458 1.512 3.729 3.889.108 1.353.27 7.025.27 14.807 0 5.242 0 7.349-.055 9.132-.054 1.837-.324 2.702-2.81 3.296-1.025.27-1.512.649-1.512 1.027 0 .54.648.757 1.621.757m55.656-.379c.487-1.296 1.461-4.052 2.162-6.052 2.973-8.375 6.648-18.157 7.727-20.858 1.784-4.377 2.972-4.918 4.81-5.457.917-.27 1.405-.594 1.405-.972 0-.38-.54-.813-1.784-.813-1.351 0-5.404.217-7.08.217-1.781 0-3.888-.108-5.293-.108-1.083 0-1.73.325-1.73.811 0 .271.378.703 1.406.918 2.215.541 2.269 1.406 2.16 2.271-.108 1.403-1.243 4.43-2.484 7.887-.056.219-.649.813-1.299.813-5.727.052-8.321-.11-9.076-.162-.162 0-.486-.38-.596-.541-1.728-4.323-2.324-6.754-2.324-7.836 0-1.08.541-1.836 2.54-2.377 1.081-.27 1.567-.594 1.567-1.08 0-.434-.756-.704-1.62-.704-.973 0-2.324.108-4.324.108-2.106 0-4.539-.217-5.349-.217-1.242 0-1.566.324-1.566.65 0 .38.215.756 1.35 1.08 2.755.756 3.35 1.622 4.916 4.811 1.298 2.594 7.133 17.993 9.404 23.342.054.108.27.757.27.973 0 .162-.053.324.108.432.756.757 2.43 2.756 2.81 3.35.326.487.704.703.972.703.27 0 .486-.108.918-1.19m.11-18.317c-.81 2.54-3.19 9.078-3.945 10.861-.11.379-.433.27-.597-.161-.97-2.594-3.565-9.403-3.89-10.7-.053-.27.164-.541.38-.541 2.107.055 6.106.11 7.834.11.056 0 .271.214.217.431m33.987 18.588c6.27 0 8.378.163 8.862.217.38.054.704-.324.704-.65-.11-1.566.162-4.159.216-5.996.053-.703-.271-1.514-.812-1.514-.431 0-.863.54-1.24 1.783-.65 2.108-1.731 3.675-3.623 3.945-1.675.162-6.376.162-7.51.108-.325 0-.811-.486-.811-.594-.27-1.621-.324-7.998-.324-11.564 0-.864.216-1.89.648-1.89 1.621 0 5.08-.055 6.27.107 1.674.27 2.268.648 2.862 2.485.27.757.595 1.406 1.136 1.406.431 0 .646-.81.646-1.298 0-.702-.215-2.486-.215-3.458 0-1.892.109-3.241.109-4.107 0-1.296-.487-1.783-.92-1.783-.215 0-.649.377-.973 1.404-.54 1.946-1.404 2.432-2.215 2.594-.702.162-2.323.324-3.512.324-.918 0-2.54-.052-3.349-.162-.217-.052-.433-.486-.487-.593 0-3.567.216-8.916.216-9.834.108-2.217.54-2.866 3.295-3.405.865-.162 1.569-.54 1.569-1.082 0-.431-.81-.81-1.783-.81-1.406 0-3.405.162-5.46.162-2.754 0-5.943-.324-7.726-.324-1.08 0-1.566.324-1.566.65 0 .54.593.918 1.566 1.133 2.377.648 2.863 1.568 2.973 2.865.162 1.676.431 4.916.431 15.508 0 5.026 0 8.16-.107 9.564-.11 1.784-.758 2.594-2.864 3.08-1.135.325-1.73.595-1.73 1.135 0 .487.865.757 1.622.757 2.376 0 4.81-.163 6.97-.163zm42.31.054c1.298-.324 2.648-.648 3.89-.81.379 0 .81-.648.81-1.46.055-1.512.164-3.403.272-4.97.054-1.135-.324-2.054-.92-2.054-.27 0-.755.649-1.026 1.46-.54 1.674-1.35 3.133-2.27 3.836-2.324 1.945-5.079 3.134-7.996 3.134-8.593 0-12.644-6.809-12.644-15.022 0-3.621.648-6.754 1.835-9.133 2.973-5.943 7.89-8.05 12.105-8.05.702 0 3.35.109 5.242 1.241 2 1.135 3.458 2.704 4.701 4.918.649 1.19 1.027 1.676 1.457 1.676.596 0 .596-1.406.434-2-.272-1.351-1.135-3.728-1.621-4.7-.162-.487-1.134-1.35-1.945-1.73-.757-.269-4.486-1.568-9.457-1.568-7.998 0-13.672 3.567-15.886 6.108-2.054 2.377-4.54 6.158-4.54 12.157 0 6.538 3.675 11.131 5.946 12.969 4.59 3.783 10.157 4.863 14.589 4.863 2.485 0 5.078-.379 7.024-.865" style="fill:#fff;fill-opacity:1;fill-rule:nonzero;stroke:none" transform="matrix(1.33333 0 0 -1.33333 -.667 1121.853)"/><path d="M297.052 120.58c32.742 0 48.138-5.704 57.262-8.556s23.494-7.869 37.294-4.562c13.8 3.309 24.683 11.023 32.642 21.764 0 0-12.49-11.229-26.37-14.463-15.168-3.537-26.065-2.91-41.514 2.85-6.728 2.51-26.572 9.01-59.314 8.896h-.011c-32.743.113-52.587-6.387-59.316-8.897-15.447-5.76-26.344-6.386-41.513-2.85-13.878 3.235-26.37 14.464-26.37 14.464 7.96-10.74 18.843-18.455 32.643-21.764 13.8-3.307 28.17 1.71 37.293 4.562 9.124 2.852 24.52 8.555 57.263 8.555z" style="fill:#bd1a21;fill-opacity:1;fill-rule:evenodd;stroke:none" transform="matrix(1.33333 0 0 -1.33333 -.667 1121.853)"/><path d="M220.469 160.6c1.29.3 2.807.866 3.325 1.116.147.076.536-.176.642-.451.077-.155.918-3.774 1.106-4.586.133-.57-.037-1.252-.39-1.334-.351-.082-.845.445-1.027.875-1.048 2.199-2.42 2.61-3.201 2.6-.615-.014-1.825-.126-5.463-.971-.156-.036-.392-.262-.194-1.287.188-.987 1.167-5.73 1.856-8.7.03-.12.3-.402.574-.338l3.363.784c2.345.543 2.142.71 2.487 2.591.133.674.284 1.266.675 1.358.351.082.63-.584.723-1.162.177-1.117.27-1.867.477-2.762a25 25 0 0 1 .828-2.85c.247-.714.097-1.306-.255-1.388-.313-.073-.779.334-1 .754-.905 1.59-1.625 1.851-2.787 1.709-1.28-.168-2.688-.495-3.978-.795-.156-.037-.474-.625-.454-.705.185-1.33.876-4.127 1.19-5.297.236-.846.47-2.377.844-3.276.114-.316.647-.836 1.144-.847.615.013 1.768.195 3.02.488 1.485.344 2.511.539 3.424 1.223 1.02.752 1.86 2.103 2.311 3.709.37 1.244.658 1.78 1.01 1.865.469.107.569-.856.635-1.139.076-.326-.227-4.34-.39-5.236-.071-.4-.768-.777-.963-.822-.43-.1-11.964-2.61-13.215-2.9-2.854-.665-3.08-.932-4.41-1.241-.744-.172-1.437-.205-1.531.201-.095.406.338.852 1.005 1.178 1.88.951 2.158 1.531 1.804 3.762-.27 1.695-.614 4.058-1.777 9.06-1.115 4.799-1.615 7.125-1.967 8.287-.39 1.324-.881 2.194-2.63 2.088-.858-.027-1.365.027-1.478.514-.086.367.6.783 1.11.902 1.837.426 5.893 1.24 7.692 1.658zm22.892 7.383c.128-.004.64-.462.75-.691.13-.441 1.52-3.73 1.568-3.889.177-.601.13-1.007-.062-1.064-.346-.104-1.107.064-1.478.61-.764 1.165-1.788 2.081-2.419 2.374-1.273.623-2.368.649-3.6.285-1.464-.433-3.294-2.455-2.536-5.017.627-2.121 2.597-2.977 6.75-4.143 6.613-1.832 7.66-4.525 8.23-6.447.615-2.084.156-4.918-1.74-7.002-1.06-1.228-3.154-2.502-5.04-3.059-2.772-.82-4.111-.822-6.083-.666-.304.041-1.311.614-1.409.801-.761 1.299-1.605 2.88-2.03 4.32-.083.282.2 1.018.393 1.075.347.103 1.235-.635 2.218-1.696 1.99-2.197 4.47-2.945 6.628-2.306 1.384.41 3.34 2.293 2.628 4.697-.484 1.64-1.744 2.924-5.69 4.236-5.137 1.66-7.766 3.19-8.844 6.834-.734 2.483-.082 4.809.827 6.121 1.016 1.52 2.588 2.856 5.784 3.801 1.693.502 3.902.676 5.155.826m28.638 5.117c2.126.454 2.66.696 3.139 1.053.29.25.467.444.626.465.2.026.67-.459.588-1.058-.135-1.116-.279-3.663-.146-4.95.05-.37-.117-1.238-.636-1.306-.278-.037-.584.133-.928 1.181-.81 2.418-1.349 2.81-3.099 2.575-1.074-.143-3.257-.479-4.468-.809-.273-.08-.36-.344-.331-.55.255-1.903.497-4.315.974-7.874.639-4.76 1.34-9.383 1.81-11.678.225-1.066.71-1.968 3.573-2.175.574-.05 1.004-.54 1.031-.746.045-.332-.558-.665-.996-.723-.319-.043-5.871-.62-6.588-.715-.875-.12-4.423-.848-5.139-.943-.755-.1-1.295-.004-1.34.326-.06.455.408.896.828 1.08 2.378.992 2.556 1.48 2.337 4.314-.168 2.465-1.064 10.643-1.484 13.787-.316 2.358-.584 4.051-.679 4.754-.056.413-.435.532-.554.516-.734.027-3.326-.28-4.32-.412-.199-.025-1.366-.69-1.703-1.197-.434-.69-.726-1.53-1.098-2.381-.407-.897-.55-1.338-.749-1.363-.478-.065-.748.447-.804.86-.106.788.182 3.774.001 5.73-.017.124.236.958.555 1 .278.038.567-.303.765-.571.147-.19.982-.373 1.868-.34.766.02 7.076.697 8.588.9 2.307.31 7.236 1.014 8.379 1.25m17.492-25.09c0 .21.118.587.438.88 1.799 1.677 4.713 4.908 6.547 7.379 1.916 2.6 3.225 5.61 3.21 8.45-.017 3.34-2.03 4.876-4.038 4.866-1.767-.008-3.407-1.104-4.645-2.361-.52-.504-.72-.756-.84-.756-.16 0-.523.373-.525.666-.001.209.077.625.635 1.465 1.833 2.763 4.553 4.78 7.565 4.797 4.014.019 7.16-2.887 7.18-7.356.013-2.463-1.38-4.89-3.457-7.156-1.795-1.97-3.793-3.86-6.95-6.924-.08-.127.161-.291.243-.29 1.848-.282 8.392-.251 9.354-.038.44.086 1.281.592 1.959 1.554.238.377.639.756.918.756.725.004.448-1.04.209-1.584-.834-1.841-1.305-3.724-1.502-4.685-.04-.207-.318-.418-.599-.42-.2 0-8.994.164-10.8.154-1.566-.006-3.171-.14-3.934-.144-.28 0-.966.539-.968.748m39.478 10.957c-.569-6.865-2.969-10.563-5.698-11.928-1.266-.691-2.906-1.018-4.227-.908-7.158.592-8.335 9.277-7.943 14.021.55 6.657 2.921 10.022 6.039 11.65a7.8 7.8 0 0 0 4.051.796c6.723-.555 8.193-8.596 7.778-13.631m-10.555 10.719c-.713-1.325-1.532-3.938-1.935-8.805-.625-7.531.643-13.166 3.124-13.371 1.2-.1 1.77.941 1.91 1.181.659 1.162 1.55 3.643 2.09 10.176.61 7.406-.681 10.781-1.605 11.78-.332.363-.593.634-1.35.699-1.003.082-1.758-.78-2.234-1.66m31.928-15.157c-1.5-6.722-4.384-10.058-7.276-11.039-1.346-.51-3.015-.61-4.307-.32-7.014 1.564-6.99 10.33-5.953 14.975 1.453 6.519 4.263 9.529 7.573 10.714a7.8 7.8 0 0 0 4.124.237c6.582-1.471 6.94-9.635 5.839-14.567m-8.99 12.06c-.887-1.214-2.057-3.689-3.12-8.458-1.647-7.375-1.163-13.13 1.266-13.672 1.177-.262 1.882.691 2.056.91.811 1.059 2.033 3.397 3.46 9.795 1.618 7.252.8 10.772.02 11.887-.28.404-.5.709-1.244.877-.979.217-1.845-.53-2.437-1.338m30.065-16.176c-1.936-5.957-8.008-11.008-14.793-12.533-2.678-.58-4.756-.608-5.864-.248-.305.1-.889.51-.722 1.023.027.08.167.254.256.27 2.244.412 5.013 1.138 8.09 3.21 3.694 2.53 6.563 5.901 7.814 9.755.94 2.898 1.36 6.273.274 8.25-.432.755-1.359 1.408-1.816 1.556-2.178.707-3.78-1.758-4.386-3.623-1.043-3.217-.46-6.613 2.444-7.554.344-.112 1.07-.084 1.285-.069.269.045.318-.32.267-.48a1.9 1.9 0 0 0-.437-.692c-.179-.162-.51-.537-1.048-.758-1.199-.445-2.704-.658-4.04-.222-3.094 1.004-5.184 4.183-3.686 8.79.709 2.184 2.747 5.079 6.828 5.948 1.274.287 3.21.273 4.548-.16 5.079-1.649 6.74-7.063 4.986-12.463" style="fill:#fff;fill-opacity:1;fill-rule:evenodd;stroke:none" transform="matrix(1.33333 0 0 -1.33333 -.667 1121.853)"/><path d="m452.937 255.296-24.535 21.701-1.115.992c27.67 30.916 44.496 71.74 44.496 116.5 0 56.55-26.856 106.817-68.507 138.753-2.58 1.978-4.71 3.612-7.906 5.72s-5.473 3.936-6.613 6.103-1.94 7.642-1.486 10.614c.45 2.974 2.398 4.327 5.75 2.466 2.918-1.62 5.708-3.457 8.486-5.293a191 191 0 0 0 20.885-15.982l.654-.572 12.85 15.704.537-.4c43.332-38.473 70.637-94.6 70.637-157.113 0-53.734-20.175-102.75-53.361-139.89z" style="fill:#fbc30f;fill-opacity:1;fill-rule:evenodd;stroke:none" transform="matrix(1.33333 0 0 -1.33333 -.667 1121.853)"/><path d="M259.94 590.277q-.545-.293-1.093-.643c-3.84-2.458-6.125-5.912-7.584-10.15-2.238-6.507-1.046-14.277.059-20.91.546-3.272 1.137-6.56 1.387-9.87.13-1.725.212-4.646-.304-6.921-1.832.887-3.278 1.962-4.644 3.284-3.223 3.121-6.347 9.101-6.702 13.602-.233 2.926.642 6.058 1.78 8.73.712 1.667 1.641 3.264 2.545 4.833 1.736 3.015 4.555 7.406 4.686 10.884l.018.51c.349.675.612 1.393.79 2.136.21.867.314 1.753.322 2.642 0 0 1.637.513 4.317 1.026z" style="fill:#bd1a21;fill-opacity:1;fill-rule:evenodd;stroke:none" transform="matrix(1.33333 0 0 -1.33333 -.667 1121.853)"/><path d="m297.834 314.345 35.905-25.754 27.4 7.662 16.19 39.185-42.496 32.713-36.999-21.513zm-41.915-118.698-5.664 24.637 22.822 21.444h47.487l11.183-23.997-.488.038-8.585-20.616c-11.6.633-22.638.864-31.829.854-9.39-.008-22.173-1.002-34.926-2.36m-63.329 83.641 12.76-53.777 42.127-3.649 24.102 22.649-13.276 41.441-31.193 14.002zm71.382 94.472-45.401-30.75 9.228-40.02 31.845-14.296 35.41 25.397v32.308zm126.814-105.85-16.78-53.575-38.763 3.115-13.187 28.299 12.811 39.99 26.862 7.516zm22.798 5.671c0-30.853-11.988-58.904-31.558-79.75l-.669-.646-4.594 19.75 16.532 52.785 20.278 10.072zm-81.608 111.215c27.055-8.49 49.863-26.58 64.428-50.281l-15.101 1.713-46.69 35.941zm-126.312-38.883c15.217 19.2 36.355 33.488 60.656 40.113l-3.346-9.257-46.79-31.692zm-7.274-134.394c-11.328 17.968-17.881 39.25-17.881 62.062q.002 5.42.485 10.711l8.827-6.66 13.033-55.117z" style="fill:#fff;fill-opacity:1;fill-rule:evenodd;stroke:none" transform="matrix(1.33333 0 0 -1.33333 -.667 1121.853)"/><path d="m166.004 277.274-24.93-22.052-.674-.641c-33.196 37.143-53.378 86.166-53.378 139.908 0 62.505 27.299 118.624 70.62 157.095l.54.44 12.883-15.748.59.552a190.5 190.5 0 0 0 20.932 16.024c2.778 1.836 5.567 3.672 8.485 5.293 3.352 1.86 5.3.508 5.751-2.466.452-2.972-.346-8.447-1.487-10.614-1.14-2.167-3.418-3.995-6.613-6.104-3.195-2.107-5.326-3.741-7.905-5.72-41.65-31.935-68.507-82.203-68.507-138.752 0-44.773 16.835-85.61 44.52-116.525z" style="fill:#33b647;fill-opacity:1;fill-rule:evenodd;stroke:none" transform="matrix(1.33333 0 0 -1.33333 -.667 1121.853)"/><path d="M149.578 314.47c-2.085 3.783-3.984 7.677-5.756 11.642-9.332 20.883-14.522 44.022-14.522 68.377 0 41.162 14.823 78.857 39.42 108.044 4.32 5.126 8.893 10.04 13.836 14.562 6.015 5.502 18.56 10.863 27.57.029 9.179-11.039 1.607-21.46-1.99-24.816-3.854-3.594-7.585-7.32-11.035-11.304-20.086-23.185-32.24-53.429-32.24-86.515 0-17.285 3.319-33.795 9.35-48.93 1.42-3.56 3.027-7.029 4.705-10.449 3.192-6.507 5.315-13.642 3.344-19.207-2.128-6.006-8.135-12.088-16.726-12.164-8.901-.078-11.688 2.987-15.956 10.73" style="fill:#fbc30f;fill-opacity:1;fill-rule:evenodd;stroke:none" transform="matrix(1.33333 0 0 -1.33333 -.667 1121.853)"/><path d="M444.516 314.47c2.085 3.783 3.984 7.677 5.755 11.642 9.333 20.883 14.522 44.022 14.522 68.377 0 41.162-14.823 78.857-39.42 108.044-4.32 5.126-8.892 10.04-13.835 14.562-6.017 5.502-18.561 10.863-27.571.029-9.179-11.039-1.606-21.46 1.991-24.816 3.853-3.594 7.583-7.32 11.035-11.304 20.084-23.185 32.238-53.429 32.238-86.515 0-17.285-3.316-33.795-9.35-48.93-1.421-3.56-3.026-7.029-4.702-10.449-3.195-6.507-5.317-13.642-3.345-19.207 2.127-6.006 8.135-12.088 16.726-12.164 8.9-.078 11.687 2.987 15.956 10.73M165.593 447.818c.314 1.784-.148 1.859-.983 2.349-.665.384-4.693 2.328-7.597 3.593-1.09.474-2.3 1.096-2.697 1.175-.192.053-.587.067-.709-.069-.35-.382-.619-.926-.752-1.089-.227-.31-.622-.578-.855-.476-.208.09-.202.528-.139.815.248 1.277.643 3.245.565 4.129-.037.55.031 1.276.124 1.488.034.079.207.192.363.124.181-.078 1.61-.764 3.506-1.653 1.804-.818 5.978-2.636 9.102-3.965 1.71-.746 1.921-.9 3.134.68.193.23.588.498.873.374.233-.102.107-.676.002-.914-.137-.317-.967-1.938-1.463-3.076-.98-2.247-1.469-3.797-1.585-4.061-.184-.423-.452-.684-.686-.583-.258.114-.313.484-.204 1.16zm1.602 26.772c3.698-2.08 6.157-6.938 6.145-11.863-.02-1.942-.319-3.395-.73-4.125-.111-.202-.476-.56-.796-.379-.05.028-.145.148-.14.212.065 1.617.001 3.639-.918 6.044-1.134 2.887-2.956 5.302-5.347 6.647-1.8 1.012-3.998 1.719-5.49 1.201-.571-.208-1.15-.776-1.32-1.077-.807-1.435.602-2.854 1.76-3.507 1.996-1.123 4.362-1.129 5.437.782.127.226.22.737.24.891.012.192.266.182.364.126a1.25 1.25 0 0 0 .398-.388c.08-.145.282-.424.347-.825.115-.892.029-1.969-.466-2.849-1.145-2.037-3.597-3.107-6.457-1.5-1.355.764-2.985 2.54-2.945 5.497 0 .926.307 2.276.802 3.157 1.881 3.344 5.763 3.842 9.116 1.956m10.45-4.19c-.117.082-.274.299-.304.601-.179 1.713-.75 4.688-1.352 6.734-.638 2.141-1.757 4.091-3.33 5.197-1.852 1.301-3.537.723-4.367-.457-.73-1.039-.809-2.43-.628-3.65.061-.502.117-.716.067-.787-.065-.095-.423-.16-.585-.047-.116.081-.314.291-.544.946-.765 2.16-.748 4.545.497 6.316 1.659 2.36 4.572 3.063 7.048 1.323 1.366-.96 2.127-2.73 2.514-4.835.34-1.827.553-3.739.931-6.79.036-.097.229-.02.263.027.924.972 3.628 4.82 3.911 5.467.136.292.207.983-.043 1.759-.11.287-.152.67-.036.835.299.425.761-.147.963-.5a15.2 15.2 0 0 1 1.96-2.719c.1-.104.1-.35-.016-.516-.084-.118-3.832-5.206-4.578-6.268-.648-.92-1.242-1.913-1.557-2.362-.116-.165-.699-.355-.815-.274m13.162 19.784c-.152-2.425-1.92-5.55-2.714-6.466l-.359-.414c-.377-.437-.673-.562-.8-.45-.13.11-.234.811-.158.898 1.501 2.21 3.113 6.234.824 8.214-1.07.925-2.622.818-4.21.02-1.316-.656-2.793-1.63-4.085-2.648-.117-.09-.854.052-1.046.219-.813.703-2.993 4.191-3.576 5.42-.093.196-.293 1.131-.255 1.175.223.647 2.793 4.87 4.038 6.31.057.066.43.238.538.146.663-.574 1.558-2.912 1.192-3.55-.762-1.4-2.696-3.809-3.47-4.703-.114-.13-.188-.563-.142-.64.116-.254.39-.758.585-.965.065-.056.39-.07.468-.023 1.507 1.138 4.722 3.125 5.79 3.537 2.157.765 3.933.525 5.451-.788 1.561-1.352 2.092-3.375 1.93-5.292" style="fill:#33b647;fill-opacity:1;fill-rule:evenodd;stroke:none" transform="matrix(1.33333 0 0 -1.33333 -.667 1121.853)"/><path d="M393.06 498.87c1.56-.92 1.79-.514 2.543.097.593.49 3.825 3.58 6.027 5.857.827.854 1.832 1.77 2.046 2.115.117.163.268.526.183.687-.233.464-.65.905-.755 1.086-.211.322-.326.785-.146.969.156.162.564.004.81-.156 1.11-.68 2.814-1.738 3.669-1.976.53-.157 1.185-.476 1.351-.636.064-.06.11-.263-.01-.385-.137-.142-1.28-1.24-2.777-2.704-1.398-1.403-4.564-4.676-6.903-7.136-1.297-1.341-1.517-1.484-.462-3.173.15-.263.262-.726.047-.95-.177-.183-.67.137-.857.317-.25.241-1.478 1.586-2.369 2.449-1.763 1.705-3.041 2.706-3.248 2.906-.332.322-.482.664-.305.847.196.203.56.125 1.157-.214m24.517-10.864c-3.241-2.737-8.653-3.345-13.264-1.613-1.81.697-3.068 1.486-3.607 2.124-.15.177-.358.643-.076.88.042.037.186.084.245.058 1.494-.627 3.411-1.275 5.983-1.252 3.104.053 6.003.916 8.098 2.687 1.577 1.333 3.009 3.145 3.044 4.725.004.607-.326 1.348-.548 1.613-1.062 1.255-2.887.433-3.901-.425-1.751-1.478-2.582-3.692-1.168-5.367.168-.198.616-.463.75-.538.177-.077.079-.31-.007-.384a1.24 1.24 0 0 0-.504-.236c-.164-.026-.493-.116-.895-.038-.875.204-1.853.66-2.506 1.432-1.507 1.786-1.653 4.456.853 6.574 1.188 1.004 3.42 1.91 6.178.84.867-.325 2.025-1.084 2.677-1.856 2.476-2.93 1.587-6.741-1.352-9.224m9.901-10.293c-.958-.656-1.995-.494-3.045-.165l-1.647.55c-.111.063-.21-.04-.194-.168.043-2.56-.336-4.606-2.226-5.902-1.237-.848-2.738-.76-3.85-.438-1.716.5-3.095 1.76-3.862 2.877-2.32 3.377-1.238 6.253.3 7.31 1.515 1.04 2.907.56 3.926.176.83-.307 1.204-.503 1.62-.709.038-.008.174-.055.179.089-.005.556.051 1.224.142 1.742.229 1.416.786 2.603 1.929 3.388 1.375.944 2.796.975 4.059.582 1.034-.305 2.313-1.07 3.261-2.45 1.746-2.546 1.503-5.441-.592-6.882m-10.08-3.559c1.142.784 1.484 3.084 1.445 5.54-.013.168-.004.455-.131.541-.609.388-2.344.316-3.813-.693-.746-.512-1.232-1.301-1.443-2.145-.24-1.003-.12-2.076.42-2.86.947-1.38 2.353-1.183 3.521-.383m6.374 10.604c-1.444-.992-1.475-3.497-1.283-5.429-.011-.08.102-.245.222-.269.31-.102.894-.155 1.492-.025a4.8 4.8 0 0 1 1.664.723c1.493 1.024 2.034 3.285 1.153 4.57-.834 1.212-2.082 1.23-3.248.43m.169-24.318c-2.217.991-4.527 3.74-5.108 4.803l-.264.481c-.275.506-.29.827-.142.908.15.082.843-.065.898-.166 1.546-2.18 4.752-5.095 7.408-3.643 1.24.679 1.681 2.17 1.488 3.94-.154 1.46-.55 3.184-1.052 4.75-.044.14.348.782.57.904.943.516 4.974 1.34 6.33 1.456.213.019 1.161-.12 1.188-.171.53-.435 3.588-4.32 4.502-5.99.04-.076.073-.485-.052-.554-.77-.42-3.271-.441-3.742.124-1.046 1.203-2.627 3.857-3.193 4.895-.084.152-.461.372-.55.357-.279-.02-.846-.102-1.11-.212-.074-.041-.2-.34-.184-.43.54-1.81 1.277-5.517 1.29-6.66-.038-2.29-.883-3.87-2.644-4.834-1.811-.99-3.893-.78-5.633.043" style="fill:#fbc30f;fill-opacity:1;fill-rule:evenodd;stroke:none" transform="matrix(1.33333 0 0 -1.33333 -.667 1121.853)"/><path d="M134.504 274.599c-.47.707-1.224 2.03-2.711 4.27-1.526 2.298-3.002 4.331-3.53 5.128-1.84 2.768-3.172 6.215.12 8.4 1.56 1.038 3.797.866 5.783-.87.068-.04.184.036.173.115-1.24 2.996-1.252 5.707 1.29 7.394 2.253 1.496 4.595 1.354 7.2-.312 1.458-.942 3.03-2.745 4.183-4.48.862-1.298 3.965-6.284 5.296-8.286-.115-.203-.818-.713-1.002-.623-.702.807-1.141 1.28-1.627 1.635-.439.347-.922.322-1.79-.125-.79-.442-3.014-1.918-6.248-4.067-2.946-1.957-4.65-3.088-6.17-4.183-.74-.576-.892-.975-.714-1.621.12-.557.445-1.233.73-1.723-.067-.213-.866-.701-.983-.652m-3.19 7.687c.086-.068.347-.023.511.043.877.498 3.736 2.397 5.642 3.664.087.057.086.184.047.242-.148.286-.46.756-.89 1.405-.588.882-1.203 1.62-1.572 1.8-.97.457-1.986.295-3.112-.453-2.108-1.4-2.896-3.537-1.173-6.129.137-.207.37-.433.547-.572m7.944 12.664c-2.455-1.629-2.967-4.178-1.109-6.976.216-.325.45-.678.636-.895.038-.058.155-.11.27-.031 2.08 1.38 4.728 3.098 5.997 4.068.319.21.566.715.65 1.026.226.914-.305 2.09-.52 2.414-1.194 1.797-3.382 2.084-5.924.394m-18.609 1.112c-.376.76-1.506 3.277-2.1 4.482-1.193 2.41-2.147 4.107-3.072 5.978-1.928 3.899-1.021 6.99 1.776 8.375 2.424 1.198 4.685.303 6.528-1.39.046-.016.217.03.264.092.852 1.172 3.621 6.13 4.314 8.406.508 1.63.507 1.869-.106 3.576.063.11 1.074.414 1.229.332 1.08-1.795 2.524-5.103 2.607-6.68.003-.945-.336-1.902-.522-2.23-.896-2.022-2.801-4.816-3.946-6.645-.232-.392-.293-.738-.105-1.197l.376-.76c.031-.064.187-.066.25-.037 1.926.953 3.837 1.938 5.157 2.631.887.477 1.165.852 1.023 1.61-.127.648-.237.947-.52 1.833-.048.174.932.62 1.088.46.344-.698 1.004-2.266 2.242-4.77 1.3-2.63 2.1-4.012 2.429-4.678-.062-.187-.839-.65-1.041-.553-.344.54-.673.967-.97 1.334-.484.59-.999.612-1.978.166-.994-.412-5.206-2.455-7.133-3.406-3.015-1.492-4.91-2.428-6.246-3.168-.823-.447-1.118-.949-.96-1.58a15 15 0 0 1 .52-1.756c-.124-.218-.963-.554-1.104-.425m-2.097 7.918c.156-.08.451-.053.576.008.715.275 3.015 1.412 7.117 3.44.125.061.202.218.155.313-.612 1.395-1.473 2.823-2.066 3.24-.812.626-1.918.827-3.876-.14-2.58-1.277-3.66-3.627-2.453-6.068.11-.221.344-.618.547-.793m-9.022 15.853c-.438 1.195-.877 2.691-1.719 4.98-1.184 3.221-1.696 4.313-1.952 5.01.093.147.895.479 1.106.406.342-.626.671-1.22.96-1.605.529-.635.997-.5 1.952-.187 1.034.304 3.332 1.187 6.13 2.216 3.938 1.448 6.326 2.287 7.57 2.819.575.25 1.31.558 1.197 1.572-.017.445-.224 1.31-.338 2.021.126.163 1.021.34 1.168.243.467-1.373.866-2.659 1.732-5.016 1.098-2.986 1.562-3.947 2.026-5.207-.07-.215-.916-.527-1.107-.408-.354.662-.622 1.09-.821 1.431-.513.791-.847.895-2.185.516-1.163-.353-4.906-1.728-7.541-2.697-3.45-1.268-5.012-1.84-6.374-2.455-.671-.284-1.043-.684-1.03-1.32.07-.692.163-1.147.346-1.946-.127-.16-.94-.459-1.12-.373m11.052 35.67c.346-1.371.713-3.25 1.303-5.58.79-3.12 1.342-4.877 1.628-6.01-.125-.213-.965-.426-1.143-.289-.318.832-.644 1.7-.891 2.111-.427.84-.867 1.02-2.371.748-3.43-.722-9.606-2.32-14.85-3.646-.066-.018-.251-.137-.225-.24.09-.635.566-2.52.833-3.291.216-.711.606-1.123 1.635-1.375a20.4 20.4 0 0 1 3.169-.51c.135-.111.203-1.227-.006-1.389-1.448-.074-4.358-.445-5.897-.726-.066-.016-.287.146-.28.257.093 1.192-.152 2.444-.36 3.266l-3.071 12.137c-.468 1.851-.889 2.947-1.383 3.771-.027.104.15.258.217.274 1.498.015 3.828.277 6.056.658.17-.104.463-1.125.388-1.252-1.167-.479-2.056-.922-2.818-1.441-.694-.506-.8-.934-.704-1.602.134-.951.714-3.103.878-3.61.05-.06.169-.1.303-.068 4.773 1.207 13.185 3.3 15.276 3.94.63.193 1.243.459 1.33 1.248.054.63-.043 1.156-.178 2.396.1.172.99.324 1.16.223zm-4.636 9.652c-1.997-2.396-4.938-3.547-7.556-3.843-2.757-.31-5.78.205-8.116 2.36-2.19 1.782-3.797 4.59-4.213 8.28-.824 7.31 3.633 11.727 9.42 12.379 2.55.287 5.175-.094 7.198-1.324 3.255-1.947 5.025-5.27 5.437-8.926.443-3.934-.458-6.777-2.17-8.926m-.903 12.352c-1.698 1.447-4.823 1.629-7.752 1.299-3.48-.393-7.132-1.729-8.782-4.121-.716-1.079-1.014-2.143-.863-3.479.11-.984.5-1.97 1.092-2.582 1.635-1.809 4.638-2.146 7.911-1.777 3.136.353 7.068 1.685 8.893 4.382.68 1.075 1.067 2.292.905 3.733-.108.947-.635 1.92-1.404 2.545m-19.994 11.859c.009 1.274.204 2.967.28 5.194.036 1.093.037 2.156.02 2.652.527.228 1.06.564 1.949 1.244 3.523 2.64 10.176 7.545 12.957 9.787.002.072-.032.072-.03.145-4.296.142-8.765.33-11.024.193-1.182-.066-1.714-.4-2.03-1.523-.196-.702-.283-1.229-.418-2.11-.142-.136-1.11-.033-1.177.041.03.918.189 2.506.265 4.766.066 1.98.013 3.469.035 4.14.109.137 1.08.106 1.178-.04.054-.461.108-.922.231-1.387.277-1.037.645-1.438 2.132-1.594 3.006-.35 8.34-.6 12.775-.748 1.525-.053 3.536-.086 4.784-.092-.09-.597-.13-2.861-.083-3.535-2.88-2.027-13.367-9.562-16.427-11.83-.108-.104-.006-.178.029-.178 3.774-.199 10.603-.357 12.06-.336 1.494.055 2.032.569 2.273 1.551.158.56.247 1.158.45 2.037.11.137.975.11 1.178-.076-.043-1.272-.202-2.86-.256-4.484-.062-1.838-.015-3.502-.053-4.633-.177-.137-1.077-.07-1.177.039-.112.816-.195 1.422-.382 2.064-.216.787-.829 1.125-1.934 1.268-1.795.273-8.443.639-13.502.808-.902.032-1.955-.357-2.297-1.23-.264-.627-.493-1.256-.593-2.174-.142-.101-1.111-.033-1.213.041m2.629 37.236c.242 1.178.745 3.096 1.195 5.277l1.594 7.725c.521 2.528.621 3.7.627 4.24.049.062.213.172.307.116 1.165-.529 3.092-1.143 5.21-1.689.078-.305-.01-1.08-.183-1.226-1.306.017-2.3.005-3.023-.242-.717-.214-.919-.677-1.1-1.218-.317-1.018-1.025-4.446-1.045-5.056-.002-.18.302-.424.506-.466 1.725-.392 4.442-.952 7.056-1.492.101-.02.225.062.246.166.201.97.744 3.602.931 4.683.11.88-.07 1.206-.665 1.581-.31.208-.946.557-1.468.773-.06.228.16 1.122.346 1.337.835-.245 1.968-.588 3.428-.888 1.29-.267 2.459-.435 3.512-.653.134-.208-.038-1.04-.17-1.337-.667.029-1.246-.032-1.716-.08-.804-.122-1.018-.475-1.152-.953-.24-.817-.924-3.962-1.117-4.897-.015-.07.134-.208.202-.222 2.139-.442 4.007-.827 5.61-1.122 1.086-.224 1.592-.004 1.904.654.265.595.49 1.344.811 2.216.246-.014.986-.203 1.127-.377-.394-1.905-.824-3.476-1.225-5.416-.385-1.87-.606-3.45-1.027-5.494-.232-.096-1.02.03-1.128.197.005.54.1 1.17.099 1.677-.018.942-.465 1.18-1.409 1.41-.766.23-5.377 1.218-7.482 1.653-3.905.805-5.84 1.204-7.18 1.408-1.16.204-1.422-.03-1.734-.688-.25-.527-.495-1.198-.74-1.87-.232-.096-1.067.148-1.147.273m5.137 23.255c.438 1.308 1.245 3.387 1.795 5.03l2.259 6.74c.438 1.309 1.034 3.197 1.263 4.425.011.034.099.08.165.057.94-.576 3-1.415 4.807-2.132.064-.246-.174-1.173-.329-1.308-1.283.206-2.03.27-2.646.178-.77-.115-1.125-.63-1.315-1.088-.39-.84-1.48-4.092-1.595-4.65-.023-.18.316-.48.48-.534 2.093-.739 4.142-1.388 6.377-2.137.132-.044.31.046.342.147.292.872 1.1 3.175 1.394 4.27.203.715.009 1.116-.746 1.592-.295.212-.7.422-1.094.665-.042.2.327 1.196.515 1.32.779-.298 2.081-.884 3.133-1.237.887-.297 2.411-.77 3.343-1.045.042-.2-.25-1.184-.405-1.319l-1.46.116c-.56-.036-1.013-.182-1.336-.82-.268-.582-1.133-3.163-1.47-4.17-.034-.1.151-.312.218-.334l5.785-1.938c.526-.176 1.088-.028 1.321.34.345.594.994 2.204 1.623 4.081.506 1.51.531 2.023-.075 3.047-.51.88-1.448 1.903-2.43 2.79.046.246.634 1.02.843 1.098.7-.42 3.4-2.183 4.316-3.161.25-.234.425-.478-.059-1.92-.943-2.817-2.153-5.992-3.344-9.546-.595-1.777-1.317-4.259-1.924-6.07-.285.022-.975.253-1.117.375.229 1.229.378 2.111.404 2.625.038.658-.211 1.115-1.264 1.467-1.84.729-4.109 1.488-7.888 2.755-2.433.815-4.997 1.675-6.215 1.97-.943.241-1.284.095-1.695-.476-.333-.448-.601-1.03-.88-1.645-.21-.079-1.042.274-1.096.442m8.129 23.22c.369.764 1.664 3.202 2.25 4.412 1.17 2.42 1.924 4.215 2.832 6.094 1.895 3.916 4.893 5.097 7.702 3.738 2.434-1.178 3.116-3.511 2.91-6.005.017-.047.157-.154.235-.153 1.447.046 7.062.905 9.284 1.755 1.6.6 1.786.747 2.759 2.28.125.018.983-.594 1.016-.767-.753-1.954-2.48-5.125-3.673-6.159-.745-.583-1.708-.902-2.081-.957-2.145-.534-5.523-.746-7.67-.964-.45-.058-.76-.222-1.007-.652l-.37-.764c-.03-.063.063-.188.126-.218 1.934-.936 3.885-1.84 5.242-2.458.92-.406 1.388-.396 1.898.182.433.497.603.769 1.129 1.536.108.144 1.06-.356 1.03-.577-.34-.7-1.172-2.183-2.389-4.699-1.278-2.641-1.877-4.119-2.2-4.788-.188-.067-1.03.262-1.078.482.215.603.353 1.126.46 1.585.167.744-.131 1.163-1.083 1.663-.937.532-5.135 2.602-7.07 3.539-3.028 1.464-4.93 2.385-6.335 2.986-.858.376-1.433.3-1.836-.211-.278-.337-.71-.914-1.066-1.489-.249-.037-1.03.42-1.015.61m4.963 6.516c.032-.173.236-.39.36-.45.656-.395 2.965-1.512 7.085-3.505.126-.061.296-.026.342.069.725 1.339 1.325 2.895 1.289 3.62-.004 1.023-.524 2.021-2.49 2.972-2.59 1.254-5.11.665-6.295-1.786-.108-.223-.277-.652-.291-.92m7.285 17.739c.469.707 2.079 2.948 2.822 4.068 1.485 2.24 2.472 3.92 3.626 5.658 2.403 3.626 5.533 4.394 8.134 2.67 2.253-1.495 2.616-3.899 2.077-6.342.01-.05.134-.174.212-.182 1.44-.15 7.12-.054 9.435.49 1.666.38 1.87.5 3.04 1.888.127.002.896-.72.904-.896-1.008-1.834-3.147-4.746-4.468-5.61-.815-.476-1.813-.664-2.19-.668-2.198-.24-5.573.003-7.73.074-.454.004-.783-.116-1.086-.51l-.469-.707c-.04-.058.037-.195.095-.233a258 258 0 0 1 4.865-3.14c.857-.526 1.322-.579 1.906-.075.495.435.7.681 1.323 1.37.128.129 1.004-.494.944-.71-.43-.648-1.454-2.005-2.998-4.334-1.622-2.447-2.414-3.83-2.825-4.449-.194-.042-.984.398-1.002.622.295.568.5 1.068.668 1.509.265.714.026 1.17-.85 1.793-.856.653-4.738 3.27-6.529 4.456-2.804 1.859-4.566 3.027-5.877 3.812-.8.488-1.38.49-1.847.037-.322-.297-.828-.81-1.257-1.332-.25-.002-.964.554-.923.74m5.793 5.791c.008-.175.181-.417.297-.494.596-.48 2.735-1.898 6.549-4.426.116-.077.29-.066.35.023.897 1.229 1.7 2.69 1.762 3.413.133 1.015-.248 2.073-2.068 3.28-2.398 1.59-4.973 1.346-6.478-.924-.137-.206-.361-.608-.412-.872m7.542 14.021c.804.941 2.032 2.218 3.249 3.643a135 135 0 0 1 3.436 4.18c.198.018.906-.54.92-.738-.181-.265-.397-.731-.528-.991-.24-.494.096-.688.603-.842 1.468-.417 6.865-1.68 7.895-1.862a.3.3 0 0 1 .16.188c-.714 2.1-2.306 6.159-3.003 7.265-.382.513-.688.636-1.352.179-.496-.367-.847-.671-1.432-1.195-.257.126-.817.698-.804.873.574.673 1.664 1.788 2.859 3.185 1.172 1.372 1.782 2.246 2.494 3.08.171.039.883-.569.895-.767-.334-.551-.694-1.08-.795-1.412-.38-.978-.461-1.606.062-3.449.754-2.32 2.222-6.366 2.876-7.948.264-.598.433-.882 1.012-1.377 1.24-1.058 2.317-1.932 3.684-3.054.787-.627 1.44-1.092 2.286-.42.45.313.944.73 1.578 1.257.147.014.79-.675.827-.846-.782-.914-2.587-2.813-3.944-4.4-1.837-2.15-2.421-3.047-3.409-4.202-.197-.018-.912.64-.896.765.538.843.896 1.422 1.112 1.888.439.834-.072 1.41-.81 2.04-1.193 1.113-2.247 2.014-3.38 2.983-.422.36-.958.586-1.643.8-1.643.426-5.772 1.304-8.184 1.737-2.385.41-2.967.21-3.727-.305-.4-.308-.824-.644-1.217-1.052-.278.05-.811.6-.824.797" style="fill:#fff;fill-opacity:1;fill-rule:nonzero;stroke:none" transform="matrix(1.33333 0 0 -1.33333 -.667 1121.853)"/><path d="M450.071 530.492c1.03-1.278 1.615-2.193 3.671-4.75 1.808-2.245 2.847-3.412 3.806-4.54-.022-.224-.812-.807-1.04-.837-.775.713-1.137 1.037-1.479 1.275-.766.514-1.147.361-1.967-.247-.513-.362-2.557-1.954-5.614-4.414-3.111-2.452-6.851-5.564-7.596-6.267-.526-.473-.581-1.03-.47-1.354.423-.84 1.847-2.673 3.032-4.082.476-.593 1.144-.982 2.413-.935 1.353.01 3.755.402 5.374.831.219-.082.67-1.208.508-1.442-.843-.521-5.331-2.388-7.096-2.575-.32-.102-.803.123-1.907 1.496-2.058 2.557-4.59 6.016-6.546 8.448-1.957 2.43-3.002 3.543-3.93 4.696.083.273.817.863 1.039.836.925-.9 1.132-1.093 1.76-1.562.662-.445 1.149-.361 1.958.135.721.479 4.103 3.097 7.19 5.581 3.547 2.853 5.166 4.157 6.308 5.178.586.523.92 1.048.527 1.912-.179.473-.645 1.178-1.056 1.874.084.273.953.82 1.115.743m16.805-21.642c.85-1.404 1.308-2.39 3.006-5.198 1.492-2.466 2.367-3.76 3.166-5.007-.05-.219-.911-.692-1.142-.69-.674.808-.988 1.18-1.295 1.461-.691.61-1.089.51-1.984.017-.558-.29-2.793-1.597-6.151-3.626-3.412-2.016-7.533-4.602-8.363-5.2-.585-.399-.712-.944-.648-1.279.307-.889 1.477-2.895 2.463-4.45.394-.651 1-1.125 2.266-1.248 1.341-.171 3.776-.102 5.437.107.205-.11.503-1.285.31-1.496-.902-.405-5.6-1.657-7.374-1.606-.33-.06-.78.23-1.691 1.736-1.698 2.808-3.746 6.574-5.362 9.244-1.614 2.671-2.501 3.911-3.268 5.178.118.26.924.747 1.14.691.799-1.015.977-1.234 1.538-1.783.596-.529 1.09-.511 1.957-.126.78.378 4.48 2.522 7.871 4.573 3.894 2.354 5.674 3.43 6.941 4.291.65.44 1.051.915.775 1.825-.114.492-.48 1.252-.794 1.998.118.259 1.053.684 1.202.588m-2.548-34.617c5.554-.06 14.838.316 17.83.485.85.007 2.197.14 2.843.323a34 34 0 0 1 .731-1.95c.326-.775.594-1.313.848-1.815l-1.837-1.507c-2.97-2.762-9.962-9.12-12.657-11.723-2.492-2.477-2.705-2.782-1.979-5.732-.115-.134-1.086-.455-1.293-.368-.386.923-.958 2.592-2.148 5.434-1.299 3.1-1.888 4.2-2.476 5.602.187.164 1.041.566 1.23.516.457-.679.908-1.356 1.265-1.597.388-.315.752-.163.844-.08 1.07.795 3.195 2.726 4.246 3.774.04.104.16.327.097.475-.21.605-.772 1.845-1.174 2.805-.618 1.476-1.021 2.436-1.274 2.937-.047.112-.32.257-.495.27-2.037-.115-4.46-.22-5.075-.477-.49-.25-.965-.535-.761-1.534.102-.65.225-1.25.395-1.96-.098-.171-1.084-.455-1.275-.404-.45 1.07-.944 2.555-1.84 4.695-.573 1.366-1.314 2.834-1.856 4.126.132.187.987.587 1.23.515 1.48-2.417 2.022-2.796 4.581-2.81m15.405-1.442c-2.335-.11-5.74-.41-7.652-.517-.161-.023-.254-.105-.223-.18.133-.42.428-1.122.845-2.118.512-1.218.883-2.104 1.072-2.458.017-.037.156-.065.23-.035.965.839 4.11 3.588 5.79 5.16-.015.037-.024.163-.062.148m12.787-16.601c.376-1.391.677-3.294 1.273-5.744.294-1.206.615-2.363.786-2.898-.506-.411-.984-.94-1.746-1.949-3.037-3.95-8.797-11.322-11.146-14.61.02-.079.058-.07.075-.147 4.727 1.15 9.656 2.305 12.077 3.141 1.266.433 1.745.96 1.748 2.278 0 .824-.064 1.426-.188 2.426.116.192 1.203.375 1.297.315.245-1.01.558-2.789 1.162-5.277.53-2.178 1.042-3.784 1.22-4.522-.076-.183-1.144-.442-1.295-.315-.2.487-.397.974-.673 1.443-.618 1.044-1.141 1.37-2.808 1.088-3.383-.534-9.273-1.884-14.154-3.07a218 218 0 0 1-5.24-1.357c-.087.68-.73 3.159-.985 3.88 2.52 3.083 11.659 14.488 14.306 17.89.085.146-.05.195-.087.186-4.174-.932-11.666-2.836-13.247-3.303-1.61-.516-2.042-1.237-2.006-2.382 0-.66.083-1.339.13-2.358-.078-.183-1.032-.415-1.307-.276-.34 1.4-.65 3.178-1.085 4.966-.492 2.023-1.052 3.822-1.355 5.067.154.201 1.156.404 1.298.315.368-.857.645-1.49 1.044-2.135.474-.79 1.245-.974 2.493-.793 2.04.248 9.396 1.872 14.963 3.225.993.241 2.022.986 2.13 2.041.095.765.154 1.52-.015 2.55.125.154 1.2.374 1.334.324m-14.019-40.27c-.642-1.107-.815-2.572-.706-3.729.18-1.87 1.417-3.24 3.368-3.052 1.836.177 2.936 1.047 4.805 4.965 1.744 3.584 3.263 6.626 7.403 7.024 4.609.443 7.443-3.224 7.886-7.806.294-3.066-.057-4.748-.026-6.715-1.51.137-3.369.2-5.844.122-.214.18-.31 1.175-.212 1.384 2.348.59 3.43 1.217 4.003 2.237.584.898.73 1.838.61 3.074-.203 2.111-1.774 3.285-3.61 3.11-1.639-.159-2.614-1.096-3.55-2.835-.89-1.814-1.38-2.867-2.23-4.677-1.513-3.12-3.105-4.598-5.918-4.872-4.14-.398-7.784 2.67-8.377 8.844-.264 2.748.244 5.25.655 6.295.583.498 4.803 1.708 6.165 1.88.247-.098.659-1.103.564-1.354-2.611-1.135-4.035-2.317-4.986-3.895m3.803-19.404c5.014-2.387 13.6-5.948 16.385-7.053.771-.35 2.051-.795 2.714-.9a34 34 0 0 1-.155-2.077 26 26 0 0 1 .006-2.002l-2.299-.595c-3.857-1.26-12.87-4.092-16.412-5.32-3.303-1.2-3.623-1.39-4.204-4.372-.161-.074-1.177.043-1.327.21.036 1 .219 2.755.333 5.835.124 3.358.052 4.602.108 6.121.24.073 1.18.078 1.333-.049.126-.804.256-1.61.476-1.98.22-.447.611-.463.731-.426 1.305.272 4.046 1.131 5.438 1.64.083.079.284.23.29.39.063.638.074 2 .113 3.039.059 1.601.096 2.64.077 3.2.004.12-.183.368-.336.454-1.895.752-4.14 1.676-4.805 1.7-.55-.02-1.102-.079-1.335-1.073a23 23 0 0 1-.463-1.945c-.162-.114-1.177.044-1.33.17.044 1.16.218 2.714.304 5.033.053 1.48-.002 3.125.05 4.525.2.111 1.143.117 1.332-.05.327-2.815.661-3.39 2.976-4.475m13.374-7.782c-2.165.881-5.383 2.041-7.16 2.746-.157.047-.275.01-.279-.07-.055-.437-.083-1.197-.123-2.277-.048-1.32-.085-2.28-.06-2.68-.002-.04.114-.125.192-.127 1.23.354 5.238 1.528 7.425 2.248.002.04.044.158.005.16m5.511-16.505c-.35-1.727-.68-2.762-1.336-6.018-.665-3.295-.747-4.299-1.073-5.906-.146-.135-1.146.068-1.306.263.02.895-.037 1.6-.113 2.022-.143.478-.596.611-.92.596-4.391-.338-10.462-1.073-13.343-1.471-.133-.055-.08-.188-.012-.242 3.244-2.166 9.831-6.028 13.032-7.612-.243-.605-.521-2.181-.561-2.785-3.237-.367-13.59-2.277-15.98-2.816-.053-.07-.076-.188-.009-.242 3.4-1.995 9.25-5.135 11.279-5.995 1.073-.421 1.86-.498 2.428.532.411.652.622 1.302 1.053 2.441.192.164 1.246-.172 1.3-.305-.182-.9-.647-2.605-1.114-4.918-.53-2.628-.655-3.828-.828-4.691-.131-.057-1.138.107-1.306.264-.035.824-.002 1.185-.091 1.732-.165.973-.639 1.6-1.95 2.436-4.58 2.884-13.621 8.058-18.25 10.707.166.62.537 2.261.5 2.879 3.206.416 13.065 2.058 15.67 2.673.086.026.07.15.002.206-3.614 2.322-10.004 6.347-13.35 8.207.192.574.565 2.212.576 2.863 5.322.191 16.688 1.57 20.787 2.254 1.041.197 2.184.498 2.703 1.29.413.651.561.989.927 2.018.171.047 1.248-.172 1.284-.382zm-9.669-41.922c-.563-1.455-1.583-3.762-2.293-5.59l-2.909-7.5c-.565-1.455-1.338-3.559-1.662-4.936-.014-.037-.115-.084-.19-.054-1.032.7-3.315 1.757-5.32 2.664-.06.28.258 1.316.44 1.46 1.44-.3 2.281-.412 2.981-.341.877.09 1.305.654 1.545 1.162.485.926 1.89 4.547 2.048 5.172.036.199-.332.556-.513.629-2.328.943-4.61 1.787-7.095 2.752-.15.054-.353-.035-.397-.149-.376-.97-1.41-3.53-1.8-4.754-.267-.795-.07-1.26.76-1.838.323-.254.768-.511 1.2-.808.039-.23-.432-1.336-.65-1.465-.866.377-2.308 1.107-3.477 1.562-.989.383-2.685.998-3.724 1.36-.037.226.346 1.324.527 1.469l1.646-.21c.635.01 1.152.153 1.552.858.334.643 1.449 3.516 1.881 4.635.045.111-.153.36-.226.388l-6.439 2.497c-.586.228-1.227.091-1.51-.315-.421-.652-1.24-2.44-2.052-4.527-.65-1.68-.707-2.258-.073-3.448.53-1.021 1.535-2.226 2.598-3.283-.065-.275-.771-1.117-1.012-1.195-.768.514-3.727 2.648-4.711 3.8-.27.278-.454.565.167 2.169 1.216 3.133 2.752 6.658 4.286 10.613.765 1.978 1.712 4.744 2.495 6.76.32-.041 1.089-.338 1.243-.483-.323-1.377-.54-2.367-.594-2.945-.08-.744.18-1.273 1.35-1.727 2.04-.92 4.563-1.898 8.771-3.53 2.707-1.052 5.56-2.157 6.92-2.555 1.052-.325 1.447-.174 1.943.449.398.488.732 1.13 1.08 1.81.242.08 1.163-.365 1.214-.556m-10.652-26.037c-.798-1.434-1.425-2.323-3.017-5.192-1.398-2.521-2.087-3.922-2.77-5.236-.216-.065-1.053.447-1.167.646.367.987.533 1.446.624 1.852.187.904-.098 1.197-.973 1.728-.528.34-2.771 1.631-6.202 3.536-3.446 1.957-7.74 4.248-8.67 4.671-.636.309-1.173.149-1.432-.074-.618-.709-1.779-2.719-2.637-4.347-.37-.666-.478-1.428.045-2.588.518-1.25 1.789-3.327 2.795-4.664.006-.23-.865-1.077-1.143-1.012-.8.58-4.222 4.035-5.06 5.598-.217.257-.189.792.665 2.332 1.593 2.869 3.843 6.52 5.357 9.246 1.515 2.73 2.149 4.117 2.867 5.412.283.025 1.107-.432 1.166-.647-.484-1.197-.585-1.46-.783-2.22-.162-.78.098-1.2.863-1.762.716-.488 4.417-2.633 7.881-4.555 3.979-2.209 5.797-3.217 7.174-3.89.706-.346 1.318-.456 1.97.234.37.346.847 1.04 1.338 1.684.283.025 1.117-.575 1.11-.752" style="fill:#231f20;fill-opacity:1;fill-rule:nonzero;stroke:none" transform="matrix(1.33333 0 0 -1.33333 -.667 1121.853)"/><path d="m302.912 612.774.112.43c.415 1.603 1.03 3.34.573 5.006-.323 1.176-2.244 1.938-3.138 2.78-.67.629-.626 1.463-.617 2.324 2.106.126 3.55-.195 5.593-.7 1.073-.262 2.086-.459 3.194-.491 1.101-.035 2.383.122 3.554.364 1.903-1.125 3.771-3.283 6.079-6.303 3.953-5.178 7.114-11.178 12.592-17.183q.625-.684 1.256-1.323c-2.101-2.804-6.83-10.662-1.382-17.021 1.906-2.222 5.288-3.644 10.2-5.463-3.1-7.082-.327-14.309 3.52-16.263 1.233-.626 5.591 1.057 8.831.846 2-.13 1.82-3.806 2.21-5.325.138-1.47 6.414 6.09 9.804 13.573 2.243 4.956 4.224 9.566 3.288 14.02-3.755-1.273-6.636-1.255-8.832-.006-3.488 1.986-6.192 7.898-6.005 13.194 2.081-1.382 3.954-2.716 4.656-2.82 4.253-.636 8.812 2.809 14.757 10.065 4.922 6.013 11.251 14.612 17.573 25.788-1.788-9.07-3.168-21.091-1.609-28.576.862-4.15 2.421-8.797 3.074-12.733.682-4.09.166-7.568-.594-11.023-1.064-4.838-3.561-9.084-6.94-12.401-.119 10.302-2.37 15.049-6.784 16.299.137-9.614-.146-22.546-4.148-31.906l-3.873.115c.562.777 1.107 1.581 1.428 2.483.96 2.695.121 4.008.121 4.008l-.051-.441c-.653-5.455-5.285-9.65-10.327-11.313.232.442.394.913.547 1.39.471 1.47-.562 2.736-.562 2.736s.437-3.975-3.031-6.043c-2.398-1.362-5.574-.995-8.149-.094.817.363 1.59.832 2.316 1.33 1.506 1.029 1.887 1.713 1.783 2.825 0 0-2.342-3.09-6.667-4.04-1.336-.238-2.672-.122-3.856.538a4.4 4.4 0 0 0-1.493 1.37c.774.154 1.445.539 1.926 1.123 1.089 1.323.585 2.692.585 2.692l-.178-.407c-.503-1.142-1.348-2.408-2.696-2.565-1.59-.185-3.154 1.202-4.088 2.334-1.355 1.645-2.326 3.792-2.756 5.888 1.123-.238 2.373-.284 3.486.087 2.46.821 2.5 2.288 2.5 2.288l-.345-.28c-1.807-1.486-5.078-1.87-7.078-.576-1.913 1.242-2.42 3.528-3 5.635.363-.12.742-.184 1.141-.175 1.055.021 1.915.533 2.599 1.254 1.225 1.286.76 2.953.76 2.953l-.178-.407c-.567-1.289-1.618-2.88-3.196-2.911-.527-.011-1.016.15-1.46.414-.039.117-.075.234-.118.349-.27.744-.794 1.061-1.383 1.092a8 8 0 0 0-.406.621c-1.152 1.962-1.596 4.452-1.641 6.73 2.948-2.728 5.721-2.662 7.645.128 1.259 1.668.624 3.45.624 3.45l-.144-.42c-1.734-5.089-4.787-5.622-8.381-1.633l-.147.164-.22-.019c-3.405-.275-10.82.293-12.396 3.862-.597 1.282.016 2.855.016 2.855s1.509 1.582 2.144 2.57c1.924-1.223 3.787-1.208 5.162-.027 1.541 1.302.958 3.394.958 3.394l-.136-.423c-1.023-3.107-3.291-3.808-5.858-1.955l-.396.285-.248-.42c-1.903-3.231-5.263-5.19-8.965-3.832-2.507.919-5.822 2.33-7.219 4.77-1.231 2.151-.478 4.996-3.348 5.829-2.633.764-6.289 1.614-8.417 3.315-2.784 2.222-2.936 4.902-3.376 8.258l-.055.413-.414-.027a27 27 0 0 0-1.908-.057l-.04.05-.062-.05c-2.914.036-6.19.66-7.59 3.327-.482.921-.673 1.906-.825 2.922-.1.658-.19 1.763-.718 2.222-1.572 1.373-6.53.195-7.425 1.27-1.428 1.719.892 5.843-1.36 8.43-1.803 2.073-5.543 1.626-6.145 4.504a33.8 33.8 0 0 0-.564 9.88 6.5 6.5 0 0 1 .97-1.945c1.41-1.92 4.103-2.16 6.343-2.086-.27-4.875 1.573-7.61 6.635-6.501.303-3.077 1.856-5.136 4.793-6.18l-.031-.215c-.313-2.158-1.06-4.832-.658-6.978.601-3.205 2.435-4.09 5.507-4.291 1.614-.106 3.3-.05 4.945-.003-.721-3.377-.302-7.752 2.445-10.102 2.513-2.148 6.151-1.994 8.966-.546.265-2.215 1.329-4.69 3.357-5.685 2.747-1.345 5.578.755 7.441 2.711 1.827-1.838 4.463-3.26 6.948-1.756 1.279.773 2.135 2.146 2.45 3.587.216 1.974-.972 2.712-.972 2.712l.101-.432c.44-1.856-.385-4.108-2.038-5.106-2.243-1.357-4.648.285-6.167 1.944l-.329.36-.33-.362c-1.528-1.695-4.241-4.072-6.713-2.859-1.606.788-2.485 2.779-2.786 4.451q-.107.586-.133 1.18l-.035.751-.642-.392c-2.542-1.552-6.14-1.937-8.54.119-2.538 2.169-2.817 6.382-2.107 9.45l.314.006c.448.008 1.161-.003 1.454-.419.206-.294.311-.902.418-1.256.224-.754.566-1.346 1.162-1.871 2.558-2.251 7.38-1.647 10.573-1.096.898-2.027 1.848-2 4.17-2.105 3.233-.143 5.27 2.452 7.905 3.848l1.608.852-1.82-.015c-1.384-.01-3.798-.416-4.963.403-1.224.86-2.574 2.35-3.6 3.452-.783.843-2.469 2.689-2.469 2.689s-2.002-.058-3.039-.035c-1.735.038-3.567.258-4.7 1.105-1.732 1.296-1.742 4.003-1.312 5.953 1.842-.624 4.03-1.28 5.845-.909 1.581.323 2.334 1.68 2.75 3.1l.125.428s-1.888-2.418-3.053-2.658c-1.898-.388-4.482.573-6.273 1.185l-.24-.857a50 50 0 0 1-.247-1.213 9.6 9.6 0 0 0-2.475-.25c-2.075.086-3.89 1.031-4.575 3.462l-.238.843-.54-.69c-1.559-1.989-4.634-2.483-6.942-1.726-2.913.956-4.305 2.906-4.461 5.992l-.027.545-.529-.137c-5.006-1.297-6.397 1.206-6.008 5.946l.041.508-.507-.027c-1.961-.103-4.783-.064-6.08 1.703-.938 1.277-1.187 2.794-1.182 4.344.003.784.237 2.742-.04 3.387-.93 2.142-4.399 1.167-4.107 5.113.124 1.69.909 3.19 1.893 4.541l.154.212c1.967.115 3.897.268 5.747.458-1.025-1.739-2.049-4.174-1.022-5.866.64-1.054 1.855-1.442 3.036-1.55-1.01-1.795-1.515-3.669-.712-5.71.785-1.997 2.343-2.728 4.319-3.073-.104-1.51.195-3.11 1.427-4.115 1.956-1.597 4.928-.75 7.02.326 1.033-4.048 5.13-4.172 8.498-2.656.428-4.928 4.142-5.02 7.866-2.682.771-1.267 1.851-2.243 3.433-2.269 1.211-.02 2.985 1.12 4.354 1.894.006-.976.112-1.823.898-2.558.632-.595 2.708-1.705 2.89-2.367.176-.639.144-1.331.043-2.028-.278-1.883.13-3.172.13-3.172z" style="fill:#ef3026;fill-opacity:1;fill-rule:evenodd;stroke:none" transform="matrix(1.33333 0 0 -1.33333 -.667 1121.853)"/><path d="M224.802 671.519c-.75-1.009-1.7-2.015-2.693-2.237-1.702-.383-2.46 1.05-2.919 2.443-.813-2.083-.971-4.713.29-6.554.897-1.311 2.01-1.928 3.59-1.912 1.31.014 2.492.467 3.426 1.265 1.12.959 1.54 1.912 1.71 3.343.08.67.056 1.347-.124 1.982-.227.794-.735 1.56-1.557 1.819-.356.11-.729.11-1.088.015zm-8.483 30.844c-3.493.105-7.154-1.18-7.868-4.876-.51-2.633.635-4.612 2.464-6.208-.1 1.685.158 3.676 1.673 4.546 1 .571 2.147.408 3.166-.011l1.13-.242c1.182-.253 2.252.574 2.473 1.734.222 1.147-.065 2.278-.547 3.31-.346.736-1.116 1.705-2.491 1.747m8.162 14.207c-1.422 1.795-3.7 2.65-5.939 2.72-4.567.144-8.793-3.549-7.41-8.2 1.3 1.139 2.942 2.331 4.706 2.246 1.884-.09 2.851-1.667 3.884-2.826.89-.996 1.516-1.279 2.82-.85.37.12.727.303 1.08.558 1.919 1.396 2.304 4.53.86 6.353m14.244 5.392c-.088 1.39-.502 2.74-1.3 3.924-.973 1.44-2.476 2.526-4.217 2.78q-.587.085-1.18.037c-2.273-.187-4.252-1.554-5.296-3.553 2.255-.366 3.755-1.439 4.601-3.719.42-1.13.519-2.183.455-3.374-.03-.601-.153-1.479-.006-2.057a1.5 1.5 0 0 1 .264-.54c1.626-1.123 3.768.49 5.247 2.275 1.174 1.418 1.552 2.368 1.431 4.227zm-25.745-89.288c-.655-1.154-1.422-2.221-2.682-2.312-1.8-.13-2.715 1.745-3.259 3.374-.604-2.337-1.039-4.825.414-6.947 1.25-1.825 2.987-2.52 5.138-2.066 1.624.343 2.729 1.364 3.494 2.663l.037.068c.469.86.52 1.85.378 2.801-.224 1.498-1.407 3.487-2.59 3.362-.432-.045-.636-.337-.93-.943m-11.105 42.366a7 7 0 0 1-1.05 1.537c-1.734 1.92-4.234 2.71-6.775 2.535-4.432-.304-7.195-3.752-6.411-8.033 1.273 1.265 3.452 2.523 5.287 2.423 2.234-.122 3.394-1.526 4.074-3.364.431-.745 2.445-.77 3.573.094.472.382 1.049.947 1.294 1.575.414 1.062.533 2.187.008 3.233m-8.809-21.078a8 8 0 0 1-1.962-.438c-2.035-.754-3.64-2.3-3.878-4.537-.288-2.695 1.91-4.867 4.177-5.947.245 2.147.773 3.603 3.065 4.017 1.709.307 3.661 2.472 2.974 4.283-.71 1.868-2.755 2.689-4.376 2.622m22.379 27.647c.07 2.681-.851 5.328-3.152 6.872-1.184.794-2.582.993-3.955.649-.968-.243-2.09-.827-2.709-1.654 3.012-1.104 4.294-5.247 4.121-8.156a9 9 0 0 0-.178-1.343c-.118-.575-.124-1.137.255-1.534.379-.398 1.143-.631 1.78-.39.896.338 1.723 1.008 2.404 1.81 1.023 1.203 1.393 2.174 1.434 3.747" style="fill:#fff;fill-opacity:1;fill-rule:evenodd;stroke:none" transform="matrix(1.33333 0 0 -1.33333 -.667 1121.853)"/><path d="M268.78 704.881c-4.153-2.513-8.17-3.996-13.019-4.735 3.83-3.758 6.817-9.932 8.523-15.068.778 2.3.771 5.115 1.479 7.308l.265.822.828-.24c3.827-1.11 7.26-2.545 10.952-3.965q.466-.178.934-.351a6.2 6.2 0 0 1 4.51.074c3.267 1.346 5.498 5.597 6.805 9.306-2.25.748-4.654 1.325-6.787 2.113-.18-5.513-3.081-7.725-8.821-5.673-2.426.866-4.512 1.894-6.63 3.379l-.465.326.1.56c.374 2.057.872 4.096 1.326 6.144m-.407-153.566c-3.81-3.14-8.245-3.115-11.423.224.102-.852.188-1.694.25-2.524.366-4.876-.057-9.916-2.526-12.576-3.569 1.407-7.228 3.16-9.799 5.648-3.995 3.869-7.521 10.8-7.953 16.255-.26 3.29.51 6.945 2.102 10.683 2.05 4.806 6.78 11.041 6.901 14.246-4.292-2.219-8.749-.148-9.46 4.105-1.767-1.113-2.464-5.808-2.206-9.867.015-.253-.945-.326-1.002-.08-.394 1.655-.329 3.9-.46 6.09-.18 3-.585 5.818-1.673 6.179-2.534-3.297-5.676-5.876-7.578-5.243-.206-2.068.907-6.707.757-10.152-.016-.375-.666-.375-.861-.052-.358.589-.092 1.09-.49 2.426-.445 1.493-1.813 3.22-2.465 2.942-.093-1.459-.569-2.698-1.067-3.69-.83-1.65-2.048-2.715-3.624-3.587-1.51-.836-3.586-.75-4.63.406-.3-1.575-.714-2.476.349-3.245 6.76-4.898 12.986-10.189 15.895-16.611.813-1.8 1.7-3.554 1.007-5.099-.426-.948-1.251-2.171-2.728-3.855 3.855-1.16 6.045-5.427 6.087-10.334 2.44-.689 3.186.791 4.904.551 4.566-.64 8.403-2.575 12.28-5.922 3.014-2.603 5.593-5.26 7.707-9.07 2.111 4.3 1.832 7.379 4.487 9.992 2.429 2.39 4.394 3.054 6.462 3.8 3.95 1.429 7.24 2.172 7.033 6.718-.19 4.202-3.055 10.758-2.54 15.54.254 2.332 1.377 3.99 2.543 5.278.408.449.964.838 1.628 1.166-.838.525-1.788 1.187-2.52 1.972-1.592-.64-4.775-1.874-6.974-1.608l.091-.368c.794-3.199 1.723-5.316 4.026-7.591 0 0-1.081-1.343-2.53-2.747" style="fill:#ef3026;fill-opacity:1;fill-rule:evenodd;stroke:none" transform="matrix(1.33333 0 0 -1.33333 -.667 1121.853)"/><path d="M269.648 554.084c-1.809 1.98-2.717 3.946-3.441 6.612-1.799-1.696-4.194-3.412-6.737-2.83-1.407.32-2.719 1.347-3.885 2.506.394-2.407.82-4.823 1.15-7.182 2.741-3.8 6.79-4.247 10.46-1.663 1.726 1.217 2.453 2.556 2.453 2.556" style="fill:#ef3026;fill-opacity:1;fill-rule:evenodd;stroke:none" transform="matrix(1.33333 0 0 -1.33333 -.667 1121.853)"/><path d="m266.363 562.093-.23-.231c-4.941-4.937-7.286-3.686-10.803.094-.773 4.924-1.3 9.75-.507 13.9 1.761-4.245 5.236-6.053 10.603-5.36-1.252-2.254-2.398-5.745-.436-7.66q.25-.242.55-.422c.243-.147.521-.25.823-.321" style="fill:#ef3026;fill-opacity:1;fill-rule:evenodd;stroke:none" transform="matrix(1.33333 0 0 -1.33333 -.667 1121.853)"/><path d="M272.624 566.591c-.047-.743.138-1.613.556-2.237-1.718-.681-5.62-2.118-7.184-1.179q-.21.126-.385.298c-1.833 1.79-.056 5.66 1.055 7.361l.56.858-1.008-.177c-6.002-1.053-9.505.894-11.015 5.924q.101.352.22.697c.822 2.39 1.863 4.555 3.843 6.376.916-4.662 2.414-7.507 8.106-6.855-1.861-3.842.174-7.022 4.423-7.957l1.713-.285s-.833-1.439-.884-2.824" style="fill:#ef3026;fill-opacity:1;fill-rule:evenodd;stroke:none" transform="matrix(1.33333 0 0 -1.33333 -.667 1121.853)"/><path d="M272.044 570.557c-1.591.34-3.185 1.145-3.988 2.49-.962 1.615-.404 3.444.51 4.94l.506.828-.957-.157c-1.727-.284-3.992-.486-5.484.637-1.481 1.113-2.18 3.68-2.589 5.873q.485.38 1.041.736c1.931 1.236 4.239 2.1 8.202 2.469.184-4.272.58-10.348 5.678-10.392 1.168.015 1.796.186 1.796.186s-.446-1.058-1.079-2.396c-.812-1.81-1.298-3.94-.496-5.724 1.147-2.547 4.316-3.105 6.911-3.124-.85-1.365-1.034-2.668-.77-4.013-1.456-.13-2.854-.405-4.035-.827-1.375.82-3.958 2.443-3.843 4.269.147 1.779 1.43 3.689 1.43 3.689s-1.019.12-2.833.516" style="fill:#ef3026;fill-opacity:1;fill-rule:evenodd;stroke:none" transform="matrix(1.33333 0 0 -1.33333 -.667 1121.853)"/><path d="M277.841 579.108s-.969-.113-2.397-.22c-4.565-.29-4.997 4.726-5.215 8.438q-.035.586-.06 1.175c.956.394 1.825.789 3.656.785 1.928-1.638 3.781-2.555 5.618-2.715-1.55-6.59.367-11.034 6.886-12.771-4.16-5.377-1.863-8.096 4.815-8.9q-.056-.33-.097-.664c-.584-4.65 3.19-5.033 6.747-4.51-.846-2.772-1.672-7.194.788-9.111a3.8 3.8 0 0 1 1.828-.749l-.005-.018c-1.296-4.79-5.25-5.132-9.377-3.798.807 2.54 1.903 4.978 3.026 7.17-.036 3.336-.884 6.015-2.836 7.72-1.74 1.517-5.455 2.197-9.001 2.03-.294 1.373-.049 2.685 1.091 4.137l.592.753-.956-.035c-2.278-.081-5.854.15-6.95 2.587-.7 1.56-.187 3.519.56 5.129a25 25 0 0 1 1.287 3.567m12.897-34.016c-.823-2.883-1.244-5.868-.89-8.755.651-1.295 1.718-2.382 3.14-2.8 3.037-.892 5.501 1.72 6.85 4.108l.379.667-.114-.008c-4.29-.291-7.232 3.328-9.142 6.7a1 1 0 0 1-.223.088" style="fill:#ef3026;fill-opacity:1;fill-rule:evenodd;stroke:none" transform="matrix(1.33333 0 0 -1.33333 -.667 1121.853)"/><path d="M290.252 534.227c.678-.708 1.511-1.256 2.487-1.542 3.115-.916 5.702 1.203 7.34 3.654.95-3.003 3.013-7.274 6.115-7.607 2.535-.272 3.767 1.076 4.51 3.179 2.214-3.126 4.686-6.501 8.897-6.652 1.982-.07 3.758.799 5.257 2.015.34-.446.712-.878 1.109-1.278 1.678-1.702 3.812-3.022 4.995-4.882.91-1.431 1.225-2.948.367-4.476-.673-1.2-1.8-2.6-1.852-4.292-.101-3.35 4.367-4.516 3.66-6.963-2.211.405-4.847-.307-6.553-1.507-1.353-.95-2.058-2.651-2.15-4.305-2.09-1.171-4.613-5.068-6.856-9.068-4.14-7.374-8.82-17.535-12.651-21.649-2.022-2.172-4.07-3.78-6.235-4.437.426 2.845-3.417 4.414-8.95 5.654.45 2.36 1.414 4.805 1.862 7.165-2.797-.383-5.852-8.929-12.515-6.906 3.117 3.392-.36 8.423-3.635 9.381 2.157 1.69 6.924 3.68 11.605 4.017.876.063.905.88.027.935-3.136.2-8.982-1.395-10.8.683 2.194.223 3.012 2.461 2.97 3.88-.047 1.608-.82 4.065-4.12 5.309 3.35 5.44 8.525 3.893 12.32-.399 1.656-1.871 3.469-3.171 5.04-4.2 1.943-1.273 3.887-1.338 5.81-.48 6.176 2.755 16.753 18.158 18.466 23.668-7.585 9.783-22.46 10.222-26.062 19.682q-.266.703-.458 1.421" style="fill:#ef3026;fill-opacity:1;fill-rule:evenodd;stroke:none" transform="matrix(1.33333 0 0 -1.33333 -.667 1121.853)"/><path d="M324.346 527.999c-.785 1.194-1.3 2.416-1.345 3.342q-.023.465-.022.945c-1.402-.912-3.079-1.336-4.762-.818-2.998.921-3.92 4.064-3.882 6.908-3.997-3.232-6.696-2.422-7.573 3.005-1.711-1.585-4.02-2.792-6.319-3.046l.211-.795c.663-2.523 2.673-7.605 5.633-7.924 2.4-.257 3.24 1.243 3.832 3.403l.247.902.543-.762c2.157-3.03 4.565-6.863 8.724-7.012 1.774-.064 3.37.75 4.713 1.852" style="fill:#ef3026;fill-opacity:1;fill-rule:evenodd;stroke:none" transform="matrix(1.33333 0 0 -1.33333 -.667 1121.853)"/><path d="M307.666 541.342c.82-4.874 3.022-5.1 6.87-1.621l.85.768-.109-1.14c-.253-2.615.275-6.132 3.199-7.032 1.63-.5 3.25.068 4.53 1.082.107 2.11.506 4.322 1.112 6.203-2.32-1.004-4.334-1.126-4.975 2.29-3.582-3.178-4.84.305-5.537 3.809-1.556-1.473-3.933-3.127-6.003-2.405 0 0-.107-.544.063-1.954m-.536 2.165c-2.24 1.239-2.22 4.943-1.939 7.38-1.158-.535-2.547-1.018-3.874-1.064l-.053-.207c-1.3-4.8-5.052-5.744-9.174-4.783 1.728-2.88 4.309-5.89 7.952-5.642 1.987.136 4.03 1.1 5.62 2.41a7.1 7.1 0 0 1 1.468 1.906" style="fill:#ef3026;fill-opacity:1;fill-rule:evenodd;stroke:none" transform="matrix(1.33333 0 0 -1.33333 -.667 1121.853)"/><path d="M328.906 544.552s-.342.171-.855.568c-1.881 1.188-3.563 3.005-4.905 4.796l.03-.392c.199-2.8-2.127-4.265-4.712-3.762-4.009.78-4.839 4.177-5.274 7.694-1.608-1.26-3.921-2.519-5.793-1.384-2.61 1.583-1.976 5.964-1.092 8.615-1.894-.249-4.622-.484-5.895.822-1.514 1.554-.497 5.132.44 7.047-2.138 1.325-5.622 2.988-6.386 5.438-.13-1.115-.038-2.186-.547-3.314-.934-2.076-1.704-4.288-1.988-6.556-.533-4.234 3.33-3.963 6.432-3.406l.74.134-.239-.713c-.745-2.205-2.005-7.054.268-8.824 1.741-1.356 4.73-.14 6.41.732l.777.406-.134-.867c-.29-1.882-.711-6.397 1.558-7.39 1.96-.856 4.609 1.44 5.823 2.719l.607.636.152-.864c.198-1.099.798-4.688 2.064-5.105.901-.298 2.212.981 2.754 1.54l.66.678.101-.943c.095-.904.349-2.523 1.349-2.901.807-.307 2.142.222 3.28.794.324.81.693 1.524 1.09 2.104.73 1.055 1.509 1.578 2.204 1.751.627.168 1.081-.053 1.081-.053m.714-.368c1.362-1.356 2.724-2.736 4.172-4.04 1.769-1.07 3.693-1.82 5.553-1.631 1.551.157 2.884.922 4.035 1.924q-.204.095-.402.206a5.3 5.3 0 0 0-2.019 2.004l-.059.1c-1.638.168-3.124 1.444-4.12 2.655q-.108.126-.209.257c-.902-.898-1.987-1.551-3.26-1.788-1.033-.193-3.692.313-3.692.313" style="fill:#ef3026;fill-opacity:1;fill-rule:evenodd;stroke:none" transform="matrix(1.33333 0 0 -1.33333 -.667 1121.853)"/><path d="M336.47 537.934c2.546-.728 5.18-.34 7.833 2.137l.028.025c1.37-.365 2.838-.24 4.25.198l.05-.02c1.798-.747 3.925-1.263 5.97-1.194-1.477-2.508-4.311-4.32-7.076-5.005a11.6 11.6 0 0 0-2.063-.322c-3.599.784-6.476 2.311-8.991 4.18" style="fill:#ef3026;fill-opacity:1;fill-rule:evenodd;stroke:none" transform="matrix(1.33333 0 0 -1.33333 -.667 1121.853)"/><path d="M348.205 533.336c3.031-.299 7.134-.339 9.715-.061a12 12 0 0 1 2.918 1.938c2.324 2.09 3.8 5.082 3.813 8.216a18 18 0 0 0-4.356-1.794l-.032-.01a6 6 0 0 0-.59-.621c-1.145-1.057-2.537-1.62-4.01-1.83l-.007-.011c-1.427-2.848-4.415-4.946-7.451-5.827" style="fill:#ef3026;fill-opacity:1;fill-rule:evenodd;stroke:none" transform="matrix(1.33333 0 0 -1.33333 -.667 1121.853)"/><path d="M360.635 533.888q.406.314.8.664c2.643 2.378 4.257 5.836 4.094 9.416a16.7 16.7 0 0 1 3.649 3.206l4.159-.125a26 26 0 0 0-1.441-2.704c-3.766-6.142-6.936-8.946-11.261-10.457m-28.071 64.591a65 65 0 0 0 2.824 6.366c-2.843 4.349-5.547 8.697-8.796 12.81-2.09 2.649-4.4 5.486-7.229 7.44-1.816-.989-3.795-1.73-6-2.327 2.19-1.57 4.143-4.13 5.605-6.044 2.044-2.679 3.86-5.534 5.753-8.322 2.095-3.085 4.271-6.042 6.792-8.802.339-.374.692-.75 1.051-1.121" style="fill:#ef3026;fill-opacity:1;fill-rule:evenodd;stroke:none" transform="matrix(1.33333 0 0 -1.33333 -.667 1121.853)"/><path d="M335.863 605.755c5.942 11.108 13.072 15.345 18.033 18.107l.287.438c-6.935 4.766-16.124 15.946-21.11 19.424-2.896 2.017-5.694 1.449-7.596-.29.098-.876.224-1.747.352-2.62.453-3.073 1.6-8.657-.713-11.18-1.534-1.676-3.147-2.992-4.901-4.051 2.59-1.876 4.781-4.47 7.075-7.375 3.371-4.274 6.12-8.657 8.573-12.453" style="fill:#ef3026;fill-opacity:1;fill-rule:evenodd;stroke:none" transform="matrix(1.33333 0 0 -1.33333 -.667 1121.853)"/><path d="M354.669 625.033a115 115 0 0 0 3.546 5.058q-.279.24-.546.477c-3.403 3.023-6.482 6.583-9.629 9.881-2.765 2.895-5.786 5.92-9.113 8.161-3.559 2.397-7.233 3.65-11.347 2.993l-.227-.363c-1.643-2.617-2.157-4.016-1.977-6.718 2.333 1.787 5.43 1.864 8.204-.069 1.876-1.308 3.711-3.104 5.343-4.707 2.158-2.119 4.264-4.297 6.405-6.434 2.667-2.66 6.046-6.043 9.341-8.28" style="fill:#ef3026;fill-opacity:1;fill-rule:evenodd;stroke:none" transform="matrix(1.33333 0 0 -1.33333 -.667 1121.853)"/><path d="M358.754 630.802c4.932 6.448 10.845 12.088 21.486 18.243-3.63 2.176-8.21 4.957-12.747 7.323-8.9 4.644-17.049 6.715-27.105 4.844-3.01-.559-5.624-1.428-7.783-2.19a151 151 0 0 1-4.397-6.438c4.378.474 8.06-1.112 11.213-3.236 6.954-4.686 13.458-13.503 19.333-18.546" style="fill:#ef3026;fill-opacity:1;fill-rule:evenodd;stroke:none" transform="matrix(1.33333 0 0 -1.33333 -.667 1121.853)"/><path d="M381.121 649.55c-4.371 2.6-8.695 5.249-13.216 7.607-9.047 4.72-17.503 6.822-27.68 4.93-2.084-.387-4.119-.95-6.131-1.614a35 35 0 0 1-.577-.196 222 222 0 0 0 4.82 6.33c8.378 2.811 17.039 2.706 25.518-.261 6.316-2.21 11.275-5.752 16.525-9.758.755-.576 1.588-1.228 2.47-1.89.253-1.293.445-2.59.538-3.892q-1.17-.631-2.267-1.256" style="fill:#ef3026;fill-opacity:1;fill-rule:evenodd;stroke:none" transform="matrix(1.33333 0 0 -1.33333 -.667 1121.853)"/><path d="M382.571 656.039c-4.812 3.628-10.565 8.396-18.422 11.145-3.789 1.326-13.145 4.171-24.82.669 4.414 5.534 9.036 10.918 13.538 16.252l.113.133c2.883.986 5.56 1.024 8.793 1.17 6 .27 16.868-1.309 25.2.088-.881-1.544-2.336-3.057-3.81-5.508-1.173-1.949-2.774-4.593-3.084-8.623-.396-5.195 1.37-10.242 2.492-15.326m4.874 30.441a5.4 5.4 0 0 1 .34 1.455c.117 1.293-.233 2.58-.85 3.864-3.488-.607-7.093-.655-9.736-.597-2.694.06-5.394.036-8.089-.064-3.438-.128-7.242-.353-10.85-.884a223 223 0 0 1-4.222-4.773c2.332.585 4.71.68 7.698.815 2.403.109 4.899-.041 7.3-.16 2.918-.15 5.835-.309 8.758-.334 3.144-.026 6.513.078 9.651.678m-.944 6.15c-2.832-.465-6.01-.611-9.28-.54-5.777.128-12.534-.129-18.042-.837 6.659 7.212 13.782 13.883 21.544 20.018-2.045-2.86-2.584-5.43-.412-9.611 1.574-3.035 4.495-6.027 6.19-9.03m-71.197-129.779-.323-.304c-1.093-1.033-2.294-2.802-1.564-4.358.702-1.489 2.696-1.716 4.14-1.571 3.184.32 6.561 2.385 9.035 4.299.267.206.57.378.88.494a10 10 0 0 0-.21.339c-1.317 2.246-1.778 5.102-1.766 7.674l.002.265a24.4 24.4 0 0 0-3.864.06c-.25-2.322-.929-5.068-3.136-6.275-1.81-.988-2.836 1.545-3.82 1.4-.615-.09-2.387-1.006-3.031-1.295-.845-.381-2.205-.99-3.128-1.028-3.755-.152-4.037 5.772-3.892 9.172.126 2.052 1.66 4.171 1.66 4.171a8 8 0 0 0-.547.18c-2.746 1.007-6.156 2.5-7.683 5.162-.478.836-.704 1.688-.91 2.617-.136.62-.28 1.394-.636 1.93-.307.467-.75.717-1.279.87-2.691.78-6.199 1.603-8.48 3.286-1.597-1.589-3.15-2.61-4.697-3.083 3.553-6.64 6.663-9.193 14.178-6.2l.935.373s-.964-2.434-1.535-3.83c-.57-1.398-.642-2.633.064-3.726 1.223-1.855 4.406-3.363 5.979-4.387l.347-.226-.2-.36c-.762-1.388-2.032-5.08-.777-6.37 1.145-1.175 4.422-.662 5.867-.462l.753.103-.28-.707c-.64-1.62-1.092-3.527-.947-5.279.09-1.062.445-2.363 1.42-2.953 1.708-1.038 4.164.752 5.383 1.825l.642.56.095-.846c.23-2.097.635-5.294 2.373-6.74.659-.546 1.452-.835 2.284-.997 1.118-.217 2.175 0 2.864.62.634.677.733 1.46.733 2.459 0 .998-.426 2.052-1.053 3.221s-1.33 3.254-1.33 3.254a11.5 11.5 0 0 0-2.206-.455c-1.853-.187-4.147.207-5.029 2.078-.57 1.21-.344 2.522.338 3.6.783 1.234 2.35 1.44 2.35 1.44" style="fill:#ef3026;fill-opacity:1;fill-rule:evenodd;stroke:none" transform="matrix(1.33333 0 0 -1.33333 -.667 1121.853)"/><path d="M320.692 556.47c2.348.867 4.61 2.327 6.443 3.743.239.183.565.375.886.452a6 6 0 0 1 1.17-1.101c.422-1.366.656-2.7 1.302-4.093a10 10 0 0 1 .435-.83c-4.27-4.617-8.256-5.027-10.192 1.685z" style="fill:#ef3026;fill-opacity:1;fill-rule:evenodd;stroke:none" transform="matrix(1.33333 0 0 -1.33333 -.667 1121.853)"/><path d="m333.751 552.14.027-.154a15.1 15.1 0 0 1 2.265-5.598c-.794-.82-1.753-1.431-2.894-1.643-3.605-.67-7.084 2.722-9.407 5.861q.23-.09.476-.155c2.709-.704 7.222 3.435 7.222 3.435 1.677-1.843 2.31-1.746 2.31-1.746m-77.476 84.416c.025.616.028 1.196-.045 1.366-.695 1.603-4.511 1.018-4.176 5.533.125 1.71.842 3.236 1.797 4.627-1.44-.07-2.894-.118-4.351-.142-1.3-2.497-2.762-6.712-1.112-9.33q.309-.492.796-.804c1.62-1.042 4.786-.526 7.09-1.25m-7.776 11.372c-1.027-2.09-1.971-4.918-1.677-7.38l-.131-.099c-1.253-.95-1.921-1.739-2.723-2.893l-.105.082c-.36.284-.75.503-1.118.81a6 6 0 0 0-1.443 1.72c-1.321 2.406-.608 5.326.434 7.687l.094.211a112 112 0 0 1 6.669-.138" style="fill:#ef3026;fill-opacity:1;fill-rule:evenodd;stroke:none" transform="matrix(1.33333 0 0 -1.33333 -.667 1121.853)"/><path d="M255.813 624.7a35.4 35.4 0 0 0-.21 6.026c.085 1.704.315 3.28.53 4.944-2.732.959-6.808-.216-8.497 2.465a5.4 5.4 0 0 0-.628 1.438c-1.156-.914-1.741-1.678-2.563-2.889l-.141-3.861 2.933-1.572c.05 2.48 3.587 1.213 5.717-.478 1.131-.898 1.742-2.396 2.286-3.873.369-1.002.572-2.2.572-2.2m.368-5.265c.093-2.728-.434-5.144.585-6.758.646-1.02 1.529-1.702 2.402-2.275 1.125-.738 1.843-1.315 3.17-1.508q.762-.11 1.52-.172c-1.571 2.175.689 6.063-1.236 8.275-1.754 2.013-5.605 1.363-6.346 4.905 0 0-.04-1.277-.095-2.467m10.839-11.697-.272-.001c-1.644-.007-3.131.065-4.664.297 1.24-2.075.816-4.185 2.342-6.25.897-1.215 2.347-2.086 3.761-2.968 2.606-1.36 5.84-2.726 8.76-1.91 1.156.324 2.208.946 3.18 1.657-2.92.191-5.884 1.07-7.295 3.761-.534 1.018-.748 2.08-.918 3.203-.046.32-.176 1.47-.423 1.684-.739.645-2.698.48-4.471.527" style="fill:#ef3026;fill-opacity:1;fill-rule:evenodd;stroke:none" transform="matrix(1.33333 0 0 -1.33333 -.667 1121.853)"/><path d="M281.52 598.52q.685.001 1.338.037c.42-3.244.723-5.827 3.202-8.051-4.29-4.233-8.035-4.01-12.457.174l-.105.099c-.703 1.661-.823 3.996-2.295 5.724 1.95-.68 4.007-1.005 5.981-.453 1.608.45 3.01 1.403 4.297 2.438zm-37.961 38.225-.246.193c-.367.288-.762.513-1.14.826a6.9 6.9 0 0 0-1.652 1.976c-1.45 2.638-.782 5.759.36 8.38-2.117.131-4.167.33-6.098.606-3.597.515-12.52 2.58-15.907 6.767-3.698 4.571-2.24 7.982-1.375 13.808.672 4.528.69 9.916-1.131 10.815-1.004-2.67-3.012-4.352-4.447-4.894-1.116-.422-2.38-.139-3.156 1.299-1.456-1.248-1.619-7.502-.436-11.781.121-.437-.981-.673-1.119-.24-.554 1.767-2.3 9.769-4.123 9.895.041-2.69-.813-3.92-1.896-4.749-1.082-.83-2.87-1.477-4.714-.227-.245-4.184 2.956-7.775 7.616-11.504.369-.296.312-.97-.148-.861-7.433 1.76-9.455.522-10.549-2.245 3.222-.258 4.337-1.736 4.875-3.151.718-1.892-.332-3.878-2.512-5.125 4.352-3.498 16.26-.713 21.066-3.846 1.47-.959 3.146-1.983 3.14-5.404-.006-2.593-3.918-.06-5.888-1.206-.602-.348-1.022-.848-1.093-2.141.404 1.02 1.793.648 2.702-.12.818-.693 1.612-2.151 1.692-3.428.08-1.271.047-2.396-.476-3.357 4.202.19 8.476 2.888 10.694 5.622 1.234 1.52 2.112 3.141 3.13 4.503 1.488 1.99 3.142 3.425 5.528 3.188 1.853-.184 3.522-2.083 5.144-3.67.945-.925 1.614-1.442 2.083-1.996zm87.339 61.119c12.204 10.27 22.5 19.087 37.578 30.398.497-2.68.185-5.255-.305-6.864-.287-.941-1.156-1.307-1.843-1.974-1.517-1.476-3.585-3.604-.33-9.992 12.34 9.325 16.23 16.845 24.531 22.045.85-4.916-1.587-9.552-6.137-15.53-.685-.875-1.484-1.674-4.03-3.827-10.39-8.19-19.642-17.335-28.173-27.442-8.896-10.538-18.244-21.261-25.59-32.965-1.945-3.1-2.416-4.701-2.012-8.316.101-.907.23-1.81.362-2.711.395-2.685 1.53-8.252-.489-10.452-3.232-3.526-6.793-5.388-11.41-6.629-1.326-.356-3.022-.637-4.392-.595-1.046.032-1.998.22-3.009.469-2.21.542-3.764.878-6.092.707l-.084-.006-.077-.036c-.979-.468-1.874-1.03-2.82-1.554-.558-.31-1.308-.706-1.963-.696-1.407.023-2.284 1.059-2.903 2.219l-.232.433-.407-.274c-3.415-2.302-6.797-2.655-6.92 2.389l-.019.714-.633-.333c-3.048-1.599-7.239-1.943-7.946 2.317l-.105.63-.555-.317c-1.72-.982-4.764-2.155-6.551-.697-1.09.89-1.218 2.448-1.066 3.749l.05.429-.427.062c-1.838.268-3.322.77-4.037 2.586-.788 2.004-.072 3.819 1.022 5.555l.427.678-.802.004c-4.87.021-3.457 3.886-1.656 6.683 1.865.21 3.642.453 5.286.725-1.261-5.817.243-9.737 6.55-8.108.583-4.83 5.2-4.873 8.144-1.76.98-1.684 2.667-2.972 4.438-3.006 2.283.073 2.457 2.005 2.457 2.005l-.336-.291c-2.295-1.982-5.002-.049-6.062 2.26l-.3.652-.45-.56c-2.442-3.038-6.79-3.525-7.05 1.295l-.031.56-.539-.159c-6.16-1.81-7.148 1.753-5.887 7.22l.014.055q.91.163 1.757.336c-.794 1.877-1.594 3.068-2.073 4.114-1.136 2.478-1.227 3.39-.595 5.235.4 1.17 2.557 3.576 6.764 6.07-.053-2.103.15-5.06 1.634-6.048 1.675-1.116 4.117-.678 6.025-.638l.085.002.288-3.105c-1.482-1.16-3.42-1.59-5.2-2.083-.457-.129-.926-.229-1.388-.34-.51-.126-2.286-.425-2.136-1.216.082-.68.287-1.34.606-1.947.803-1.532 2.236-2.574 3.932-2.9 2.026-.388 4.062.27 5.798 1.304.552-1.928 1.748-5.034 3.753-5.258l.18-.02 1.942 1.502c1.627-3.723 5.395-3.71 8.048-.653l.14.16-1.663 9.198-.563-.377c-.547-.365-1.718-1.11-2.417-.833-.948.378-1.254 2.777-1.363 3.617l-.078.605-.554-.26c-2.42-1.144-5.325-1.675-7.813-.425l-.354.178-.268 2.872c1.886.046 3.613.172 5.358 1.18 2.409 1.393 3.859 3.21 4.14 6.066l.004.056.043.018c.627-2.927 1.628-4.257 4.72-3.073.494-1.053 1.62-2.882 2.636-2.796 1.66.217 2.249 2.05 2.249 2.05l-.402-.19c-.464-.216-1.448-.915-1.899-.974-.705.158-1.707 2.047-1.931 2.642l-.165.433-.426-.181c-2.905-1.244-3.416-.192-3.948 2.438.97.396 1.89.773 2.718 1.532 1.168 1.067 1.978 2.027 2.726 3.45 1.212 2.303 1.207 5.94 1.322 8.65 2.683-1.495 5.073-3.54 7.39-5.552l.488-.424.222.607c.475 1.316-.291 3.043-.78 4.266-.703 1.756-1.364 3.452-1.45 5.37-.094 2.06 1.052 4.344 1.893 6.244 2.078-.667 3.44-3.2 4.31-5.012.808-1.682 1.95-4.898 3.144-6.196l.728-.792.043 1.075c.223 5.54 1.025 9.904 3.773 14.773l.125.22-.125.217c-2.386 4.208-5.74 12.288-4.574 17.04.479 1.952 4.43 5.108 6.837 6.628 2.946.999 6.22 1.612 8.8 1.952-2.329-3.526-3.315-7.97-2.897-12.411-5.954.86-10.573.853-11.429-2.238 2.377-.319 4.494.382 5.763.797-1.689-4.52.076-8.88 4.537-11.565-6.847-7.094-10.053-16.115-7.335-25.924-5.922-1.132-8.735-5.33-6.951-11.142-3.667.617-7.838-.388-9.568-4-1.653-3.45-.684-7.416 1.82-10.151-2.302-1.13-4.694-2.445-6.732-3.963-2.831-2.11-5.178-4.809-4.687-8.554l.089-.665.577.34c5.714 3.364 10.767 4.07 16.98 1.691l.523-.2.076.556c1.107 8.204 3.752 15.34 7.574 22.612 4.658 8.86 10.42 16.575 16.998 24.084a523 523 0 0 0 4.574 5.162c5.476 6.075 11.196 11.705 17.146 17.19 2.21 2.04 6.475 7.037 6.475 7.037l-.333-.294c-8.423-7.46-16.412-14.979-23.946-23.337a487 487 0 0 1-4.584-5.172c-6.629-7.561-12.426-15.333-17.118-24.257-3.785-7.2-6.425-14.278-7.59-22.357-6.013 2.163-11.07 1.511-16.615-1.597-.087 3.044 2.015 5.276 4.394 7.05 2.154 1.604 4.72 2.98 7.137 4.142l.573.276-.457.444c-2.545 2.47-3.654 6.28-2.074 9.579 1.664 3.471 5.925 4.165 9.328 3.364l.805-.19-.283.775c-2.126 5.821.538 9.841 6.5 10.785l.5.08-.142.486c-2.628 8.882-.224 17.084 5.39 23.765 1.807 2.14 3.594 3.792 5.338 5.25z" style="fill:#ef3026;fill-opacity:1;fill-rule:evenodd;stroke:none" transform="matrix(1.33333 0 0 -1.33333 -.667 1121.853)"/><path d="M282.015 708.8c1.063 4.22 2.808 5.928 2.808 5.928l5.326-.028c3.491-.02 3.725-3.603 6.257-4.956.49-.263 1.2-.334 2.011-.338-1.105-1.598-.862-3.332-1.25-4.482-2.131-.166-2.232-.498-2.402-1.21-.222-.925.451-2.452 3.286-2.828 2.095-.277 5.464.632 4.794 3.11-.508 1.877-3.284 3.784-1.97 5.483 1.056.022 2.102-.017 2.954-.312 1.773-.615 2.907-2.581 3.793-4.116l.22-.384s.022 1.738-.933 3.14c-.74.967-1.634 1.799-2.79 2.2-.845.293-1.765.378-2.655.389-1.017.012-3.844-.292-4.639.132-1.33.71-2.187 2.59-3.308 3.685-.952.928-2.03 1.368-3.363 1.375l-5.048.028q.254.3.519.547c6.14-.045 12.453.08 18.594.035 1.272-.051 3.486-1.393 5.864-1.535 5.916 6.795 11.405 12.496 16.911 15.615.596.336 1.849-3.9 1.398-4.482-1.763-2.268-6.674-5.705-9.89-8.55-2.068-1.649-4.084-3.67-4.459-5.198-1.214-4.941 2.038-12.987 4.54-17.47-2.509-4.525-3.398-8.654-3.7-13.66-.859 1.488-1.712 3.76-2.291 4.966-.951 1.982-2.324 4.433-4.447 5.33q-.4.17-.824.26l-.358.075-.14-.335c-.93-2.148-2.234-4.593-2.122-6.988.093-2.032.767-3.8 1.513-5.66.296-.737.829-1.944.863-2.916-3.465 2.988-7.075 5.885-11.606 7.019l-.3.075-.173-.254c-1.34-1.947-2.435-3.936-3.514-6.023-1.734.26-2.795 1.344-3.713 2.85l-.255.422-.394-.299c-1.848-1.406-4.239-2.865-6.682-3.295-3.327-.334-5.403.51-6.59 2.423.819 1.41 2.61 2.385 3.949 2.877 2.28.839 3.167.085 5.453 1.273 2.269 1.179 6.635 2.398 10.022 3.933a16.6 16.6 0 0 1 3.534 2.19c2.052 1.68 1.975 4.266.075 6.327-3.788 4.108-11.751 4.514-15.939 7.03 0 0 .005 2.383 1.07 6.602" style="fill:#ef3026;fill-opacity:1;fill-rule:evenodd;stroke:none" transform="matrix(1.33333 0 0 -1.33333 -.667 1121.853)"/><path d="M225.09 543.19c-1.125-1.218-2.286-2.522-4.043-2.65-2.042-.148-4.021.956-5.671 2.06-.808-2.71-.462-5.28 2.129-6.885 1.536-.952 3.419-1.505 5.182-1.836 1.969-.367 5.657-.66 8.202-.362v.08c-.034 3.712-1.518 8.306-5.457 9.49zm-6.58 37.234c-.814.467-1.66.88-2.487 1.216-2.317.943-4.752 1.303-6.924-.166-1.964-1.33-2.653-3.697-2.88-5.943 1.97.434 4.087.167 5.135-1.666l.47-.52c.833-.923 2.535-.783 3.542-.225 2.322 1.287 3.472 2.858 4.066 5.241.295 1.19.111 1.472-.921 2.063m12.601 14.206c-.792 2.944-4.028 3.752-6.71 3.748a10.4 10.4 0 0 1-5.73-1.746c-1.06-.7-2.274-1.805-2.87-2.98 1.69.223 3.57.24 5.183-.267 2.355-.735 3.16-2.395 3-4.813a7.2 7.2 0 0 0-.327-1.754c-.083-.264-.223-.588-.27-.857a1 1 0 0 1-.012-.184c.01-.172.088-.3.203-.397l.248-.083c1.296-.43 3.468 1.472 5.013 3.112 1.718 1.822 3.023 3.435 2.272 6.221m15.734-7.902c.799 3.334-.762 7.306-3.844 8.917-2.264 1.183-5.333.979-7.405-.552 1.836-.384 4.005-1.154 4.054-3.234.057-2.396-1.832-2.702-2.22-4.4-.017-.077-.01-.23.009-.41.72-2.885 3.343-4.13 6.017-3.68 1.85.31 2.943 1.5 3.389 3.359m83.41-100.869c3.244.932 5.896 2.855 6.945 6.234 1.318 4.24-.535 9.318-3.753 12.33l-.471.086c-1.907.348-4.31-.254-5.883-1.36-1.011-.713-1.569-1.962-1.73-3.179.08-.401.396-.675.889-1.05.935-.71 2.028-1.2 2.981-1.918 1.353-1.02 2.183-2.258 2.654-3.89.682-2.372-.304-5.154-1.632-7.253m-40.398-16.724c-2.047-1.648-3.733-3.84-4.514-6.373-.517-1.671-.687-3.798.174-5.392 1.676-3.1 5.554-3.505 8.671-2.692-1.2 1.852-2.742 4.063-1.891 6.356.768 2.067 2.674 2.88 4.655 3.295.769.16 1.098-.01.81.944-.67 2.225-5.929 3.424-7.905 3.862m-24.295 10.282c1.278 4.625 4.592 7.1 9.252 6.808.63-.039 1.277-.1 1.89.122 1.108.401 1.697 1.695 1.662 2.852-.05 1.687-.895 2.963-2.179 3.814-3.005 1.417-6.894.365-9.432-1.555-4.281-3.245-3.785-7.956-1.193-12.04m8.755-.661c-1.663-.197-3.066-1.298-4.132-2.566-1.615-1.922-2.703-4.234-1.972-6.755.736-2.528 2.594-4.417 5.114-5.152-.21 2.177-.487 5.15 1.842 6.21 1.818.828 2.587-.536 3.726 1.053 1.335 2.228-.178 5.184-2.262 6.614-.784.54-1.388.706-2.316.596m58.937 119.035c3.231-3.138 7.196-5.63 11.707-3.404-3.45 1.26-6.45 5.746-8.39 8.66q-.314.471-.623.942a65 65 0 0 1-2.694-6.198m55.198 88.898.368.088c5.434 1.34 8.608 4.909 8.19 10.334-1.818-2.854-5.37-4.363-9.188-5.144.622-1.36.973-2.733.848-4.114a6 6 0 0 0-.218-1.163m-33.039-62.144q.33-.207.658-.397c4.66-2.676 8.528-2.025 11.715 2.14a6 6 0 0 0-.858-.143c-2.89-.272-5.752 1.518-8.033 3.374a116 116 0 0 1-3.482-4.974m26.587 24.48.796-.47c4.566-2.69 8.313-2.146 11.474 1.877a7.6 7.6 0 0 0-1.642-.197c-2.929-.031-6.03 1.765-8.741 3.702a30 30 0 0 0 .385-3.07l.04-.571-.502-.273q-.916-.496-1.81-.998" style="fill:#fff;fill-opacity:1;fill-rule:evenodd;stroke:none" transform="matrix(1.33333 0 0 -1.33333 -.667 1121.853)"/><path d="M284.827 716.627c-3.204 1.592-7.713 1.116-10.07-1.637-2.024-2.367-2.174-6.195-1.755-9.324 1.817 3.335 4.698 3.82 7.982 2.841.785 3.16 2.061 6.325 3.843 8.12m-36.463-67.317c-3.688 1.72-4.974 3.667-5.598 5.793-.84 2.868.095 8.88-2.592 11.106-.97.804-3.537 1.723-5.702.74-2.597-1.178-4.356-3.255-6.077-1.718 2.034 4.841-.472 8.018-3.182 7.313.087 1.454 2.548.39 5.095 1.377 1.333.518 2.576 1.982 2.48 4.635-.127 3.55-1.5 7.203-5.19 9.957-4.747 3.54-9.585 3.593-10.9 6.19 2.039-.435 3.298 1.213 3.533 2.435a6.05 6.05 0 0 1-2.158 5.74c2.048.492 4.635-.77 7.174-2.803.212-.17.828.16.516.646-1.782 2.77-5.156 5.654-5.068 7.861 1.519-.096 2.57.279 3.449.918.706.513 1.29 1.286 1.681 2.331.236.626.418 1.322.378 2.239 1.493-1.148 3.604-5.133 4.605-9.619.053-.239.962-.356.825.37-.325 1.732-.558 2.489-.86 3.58.023 1.945.14 4.155.765 6.331 1.988-1.378 4.398.14 6.12 2.054.966 1.075 1.728 2.298 1.937 3.4.813-.9 1.23-2.175 1.406-3.67.453-3.825-.673-9.101-.839-13.315-.269-6.802 2.317-14.13 4.042-21.039 1.953-7.822 3.682-12.708 7.776-17.186 3.648-3.988 9.05-6.267 13.922-7.675.002-1.16.405-2.184 1.06-3.613.488-1.063 1.076-2.042 1.6-3.09-3.44-.652-7.04-1.097-10.636-1.38-6.572-.426-8.567-.426-8.567-.426zm73.996 58.314c-1.825.016-3.62-.215-4.602-1.045 1.346.046 2.619.396 3.943.83zm-7.264 20.587c-2.453-2.522-4.592-5.127-6.807-7.844q-1.437-1.754-2.883-3.498c.568-.166 1.142-.394 1.63-.568.86-.306 1.76-.598 2.674-.712 3.078 3.529 6.64 7.515 10.472 10.843-1.012.16-2.133.44-2.738 1.031a3.3 3.3 0 0 0-.784 1.162c-.481.856-.698.514-1.564-.414M291.31 565.775c.389 1.816 1.038 3.584 1.797 5.27.13.289.211.592.266.904.33 1.928-.05 3.036 1.178 4.885l.104.156c.26.851.628 1.706.951 2.483-7.3-2.583-10.735.227-14.35 6.995l-.094.174a7 7 0 0 0-.81-.09l-.04-.167c-1.497-6.341.315-10.392 6.896-11.888l.705-.16-.461-.556c-4.272-5.167-2.38-7.273 3.858-8.006m15.928 9.905c1.83-.297 3.564.105 5.064 1.006-.912-4.59 4.733-6.34 8.448-6.837-.212-1.993-.772-4.554-2.678-5.595-1.114-.607-2.008 1.722-3.525 1.5-.776-.114-2.49-1.017-3.265-1.365-.707-.318-2.035-.92-2.799-.95-2.745-.111-3.058 4.713-2.981 7.743-.026 2.937 1.736 4.498 1.736 4.498m-33.084 76.187a4.7 4.7 0 0 1 .487-1.465c.677-1.295 1.882-2.165 3.313-2.44 1.99-.381 4.018.417 5.657 1.497l.522.344.154-.606c.325-1.279 1.4-4.749 2.984-5.149l2.602 2.016.202-.586c1.23-3.561 4.302-3.62 6.62-1.09l-1.348 7.464c-3.046-1.762-4.032.101-4.506 3.172-2.557-1.083-5.486-1.455-8.045-.169l-.185.094c-1.617-1.312-3.634-1.768-5.601-2.314-.483-.134-2.313-.516-2.856-.768m16.426-38.405c-3.146-.647-6.344.007-7.625 3.152-1.729-1.655-4.462-2.157-6.773-1.617l-.012-.088c-.29-1.997-1.033-4.717-.663-6.686.52-2.782 2.033-3.394 4.69-3.568 1.993-.131 4.103-.009 6.1.028 3.37.065 1.916-2.249 3.64-3.767 2.373-2.089 7.348-1.328 10.18-.826l.356.063.132-.336c.18-.444.434-1.089.823-1.394.57-.445 2.015-.456 2.706-.486a5 5 0 0 1 2.216.405c1.287.544 2.507 1.55 3.763 2.424-1.35-.07-2.788-.07-3.802.643-1.284.902-2.663 2.419-3.739 3.573-.74.796-1.468 1.601-2.203 2.4-2.425-.046-5.89-.238-7.887 1.255-1.484 1.108-1.95 2.992-1.901 4.825m.554 52.142c-1.382-.541-2.933-.954-4.338-.566-1.183.325-2.25 2.677-2.925 4.168-1.639-2.435-4.233-3.012-6.857-1.322-.72-.357-1.492-.862-2.155-1.774-.091-1.746-.082-5.196 1.207-6.054 1.404-.936 3.891-.524 5.514-.49 2.089.045 4.032 0 5.906 1.083 2.037 1.178 3.3 2.64 3.648 4.955m7.717 14.854a18 18 0 0 1-3.297 1.27c-1.297-1.917-2.362-3.88-3.422-5.943l-.137-.267-.3.027a7 7 0 0 0-.48.064c.234-3.355 1.846-5.27 5.565-5.062l.098.005c.256.368.497.764.732 1.21 1.172 2.235 1.11 6.146 1.24 8.695z" style="fill:#ef3026;fill-opacity:1;fill-rule:evenodd;stroke:none" transform="matrix(1.33333 0 0 -1.33333 -.667 1121.853)"/><path d="M278.304 668.19c2.117-.943 4.027-.123 5.22 2.172l.405.78.388-.788c.417-.846 1.801-4.208 2.716-4.46 1.507-.416 3.372.338 4.736.94 1.147.507 2.356.854 3.3 1.722.407.369.764.723 1.087 1.089-3.86.035-5.665 2.397-5.844 6.202-1.285.46-2.23 1.38-3.039 2.596-2.02-1.484-4.514-2.893-7.072-3.235-.958-2.234-1.72-4.731-1.87-6.728z" style="fill:#ef3026;fill-opacity:1;fill-rule:evenodd;stroke:none" transform="matrix(1.33333 0 0 -1.33333 -.667 1121.853)"/></svg>