<svg xmlns="http://www.w3.org/2000/svg" viewBox="69.27 117.9 636.85 899.8"><path d="M291.27 78.113C125.448 140.102 72.813 219.93 59.12 265.671c-8.61 28.758-6.42 60.82-6.416 87.326v399.967h477.133V352.997c.002-26.506 2.193-58.568-6.417-87.326-13.693-45.742-66.327-125.57-232.15-187.558" style="fill:#231f20;fill-opacity:1;fill-rule:nonzero;stroke:none" transform="matrix(1.33333 0 0 -1.33333 -.667 1121.853)"/><path d="M96.033 715.981v15.638h8.217v-37.637h-8.217v14.578H82.78v-14.578h-8.217v37.637h8.217v-15.638zm44.777-21.999h-8.111l-1.961 6.626h-12.616l-1.962-6.626h-8.057l10.495 37.637h11.715zm-20.568 14.048h8.375l-4.187 15.002zm35.41-4.082 7.58 27.724h8.27l-9.966-37.637h-11.82l-9.966 37.637h8.375zm44.015 27.672v-7.422h-16.063v-8.217h13.941v-7.421h-13.941v-7.157h16.063v-7.42h-24.28v37.636zm33.236-37.638h-8.534l-5.301 13.57h-6.627v-13.57h-8.216v37.637h15.85q5.512 0 8.959-2.968 3.391-2.917 3.392-7.899v-2.332q0-6.362-5.301-9.224zm-12.245 30.216h-8.217v-9.224h8.164q1.696 0 2.65.795t.954 2.28v3.075q0 1.43-.954 2.252t-2.597.822m41.189 7.422v-7.422h-16.062v-9.542h14.471v-7.422h-14.471v-13.252h-8.217v37.637zm30.37-35.14q-4.081-3.287-11.238-3.287-7.103 0-11.291 3.287-4.135 3.232-4.135 8.746v15.161q0 5.566 4.108 8.8 4.108 3.233 11.265 3.233 7.156 0 11.264-3.233 4.11-3.235 4.109-8.8v-15.16q0-5.463-4.082-8.747m-11.291 4.134q7.156-.001 7.157 4.984v14.419q0 4.981-7.104 4.982-7.209 0-7.209-4.982v-14.42q0-4.983 7.156-4.983m49.356-6.632h-8.535l-5.3 13.57h-6.627v-13.57h-8.217v37.637h15.851q5.513 0 8.96-2.968 3.39-2.917 3.39-7.899v-2.332q0-6.362-5.3-9.224zm-12.246 30.216h-8.216v-9.224h8.163q1.696 0 2.65.795.956.795.956 2.28v3.075q-.001 1.43-.956 2.252-.954.822-2.597.822m16.91 7.422h14.791q6.731-.001 10.813-3.287 3.975-3.287 3.975-8.747v-13.57q0-5.462-3.975-8.747-4.08-3.287-10.762-3.287h-14.842zm21.364-25.232v12.828q-.001 2.28-1.592 3.631-1.59 1.351-4.398 1.352h-7.158v-22.795h7.104q2.81 0 4.425 1.352 1.62 1.352 1.619 3.632m45.52-3.394 5.778 28.678h8.586l-8.693-37.637h-10.76l-4.877 21.735-4.879-21.735h-10.813l-8.64 37.637h8.64l5.78-28.572 6.094 28.572h7.316zm42.53 28.626v-7.422h-16.063v-8.217h13.942v-7.421h-13.942v-7.157h16.062v-7.42h-24.278v37.636zm24.455-25.07c-1.442 2.019-5.958 2.768-10.207 4.13-4.248 1.363-5.235 2.191-6.57 3.16-1.074.778-1.865 1.803-2.413 3.022q-.822 1.828-.821 4.267 0 5.09 3.604 8.19 3.606 3.101 10.337 3.101 6.84 0 10.523-3.075 3.685-3.075 3.685-8.375v-1.75h-8.217v1.962q0 1.696-1.749 2.756t-4.346 1.06c-1.662 0-3.016-.31-4.03-.98-1.177-.78-2.021-2.244-1.285-3.72.936-1.87 5.825-2.591 10.032-4.046 3.082-1.067 5.592-2.333 7.448-4.029q2.78-2.545 2.78-7.103.001-5.249-3.815-8.588t-10.655-3.339q-6.943 0-11.026 3.445-4.08 3.446-4.081 9.012v1.326h8.218v-1.856q-.001-2.015 2.066-3.313t5.035-1.299c1.661 0 3.012.49 4.241 1.14 1.568.83 2.342 3.368 1.246 4.903m10.882 25.069h28.36v-7.422h-10.018v-30.216h-8.218v30.216h-10.124zm-327.933-89.727q-7.05 0-11.132 3.286-4.135 3.234-4.135 8.746v15.161q0 5.514 4.082 8.8 4.028 3.234 11.132 3.234 6.996 0 11.079-3.234 4.081-3.235 4.082-8.8v-3.392h-8.535v3.022q0 2.385-1.696 3.684-1.697 1.298-4.877 1.298-3.34 0-5.195-1.325t-1.855-3.657v-14.42q0-2.385 1.828-3.684 1.83-1.298 5.169-1.298 3.18 0 4.903 1.325t1.723 3.658v3.022h8.535v-3.394q0-5.512-4.029-8.746-4.083-3.286-11.079-3.286m46.648 3.287q-4.082-3.288-11.238-3.287-7.103 0-11.291 3.286-4.135 3.234-4.135 8.746v15.161q0 5.566 4.108 8.8 4.109 3.234 11.265 3.234t11.265-3.234 4.109-8.8v-15.16q0-5.46-4.083-8.747m-11.29 4.135q7.156 0 7.156 4.983v14.419q0 4.982-7.104 4.982-7.21 0-7.21-4.982v-14.42q0-4.982 7.157-4.982m35.146-7.427q-6.84 0-10.921 3.286-4.03 3.234-4.03 8.746v26.4h8.218V654.29q0-2.332 1.75-3.658 1.747-1.325 4.929-1.325 3.18 0 4.903 1.325 1.723 1.326 1.723 3.658v26.028h8.217v-26.4q0-5.512-3.976-8.746-4.029-3.285-10.813-3.286m40.715 15.744v22.689h7.633v-37.637h-7.633l-12.934 22.582v-22.582h-7.634v37.637h7.634zm11.114 22.689h28.36v-7.422h-10.019v-30.215h-8.216v30.215h-10.125zm53.012 0h8.852l-11.821-25.021v-12.616h-8.217v12.51L304.1 680.319h8.96l7.05-15.426zm56.612-37.637h-8.11l-1.96 6.626h-12.616l-1.962-6.626h-8.057l10.495 37.637h11.716zm-20.566 14.047h8.374l-4.188 15.002zm48.732 23.59v-7.422h-16.063v-9.542h14.472v-7.42h-14.472v-13.253h-8.216v37.637zm18.974-38.426q-7.05 0-11.133 3.286-4.136 3.234-4.135 8.746v15.161q0 5.514 4.083 8.8 4.027 3.234 11.132 3.234 6.995 0 11.078-3.234t4.083-8.8v-3.392h-8.534v3.022q-.001 2.385-1.698 3.684-1.696 1.298-4.876 1.298-3.341 0-5.195-1.325t-1.855-3.657v-14.42q0-2.385 1.828-3.684 1.828-1.298 5.169-1.298 3.18 0 4.902 1.325 1.725 1.324 1.725 3.658v3.022h8.534v-3.394q-.001-5.512-4.03-8.746-4.083-3.286-11.078-3.286m84.869-20.581V352.997c0-.002.249-23.256.249-28.197 0-18.377-.891-37.773-6.072-55.082-9.515-31.787-49.916-112.142-218.636-176.484C122.55 157.576 82.15 237.931 72.635 269.717c-5.183 17.31-6.073 36.706-6.073 55.083 0 4.941.249 28.195.249 28.195v268.317z" style="fill:#fff;fill-opacity:1;fill-rule:nonzero;stroke:none" transform="matrix(1.33333 0 0 -1.33333 -.667 1121.853)"/><path d="M254.399 172.02v-24.367h5.387v-5.985h-17.357v5.985h5.344v18.382h-5.344v5.985zm29.187-14.962q2.779-2.138 2.779-5.515v-2.522q0-3.591-3.121-5.772-3.12-2.222-8.25-2.223t-8.295 2.18-3.163 5.815v2.522q0 3.42 2.736 5.515-2.48 1.966-2.48 5.172v2.138q0 3.804 3.079 6.028 3.12 2.265 8.079 2.266t8.08-2.266q3.036-2.266 3.036-6.028v-2.138q0-3.206-2.48-5.172m-3.848-7.909v2.522q0 1.326-1.261 2.095t-3.484.77q-2.266-.001-3.548-.77-1.283-.77-1.283-2.095v-2.522q0-1.197 1.26-1.881 1.262-.684 3.528-.684t3.527.684 1.261 1.881m-9.32 15.091v-2.181q0-1.197 1.198-1.88 1.197-.685 3.335-.685 2.136 0 3.313.685 1.175.683 1.175 1.88v2.181q0 1.325-1.175 2.094-1.178.77-3.27.77-2.139 0-3.357-.77-1.219-.769-1.218-2.094m31.891 8.422q4.829 0 7.909-2.565 3.077-2.609 3.077-6.84v-12.44q0-4.491-3.077-7.14-3.165-2.65-7.865-2.65-4.748 0-7.868 2.565t-3.12 6.84h6.583q-.002-1.712 1.176-2.652 1.174-.94 3.185-.94 2.05 0 3.206 1.026 1.154 1.027 1.154 2.907v2.736q-2.48-1.453-5.3-1.453-4.49 0-7.268 2.223-2.822 2.266-2.822 6.028v3.506q0 3.975 3.077 6.41 3.079 2.44 7.953 2.44m-.042-15.093q2.052 0 3.225.791 1.176.792 1.177 2.075v3.29q0 1.496-1.177 2.31-1.175.811-3.227.812-2.051 0-3.206-.813t-1.154-2.308v-3.591q0-1.199 1.175-1.882t3.187-.684m26.974 15.092q4.83 0 7.908-2.565 3.079-2.609 3.078-6.84v-12.44q0-4.491-3.078-7.14-3.162-2.65-7.865-2.65-4.746 0-7.867 2.565t-3.12 6.84h6.584q-.002-1.712 1.176-2.652 1.175-.94 3.184-.94 2.05 0 3.206 1.026 1.155 1.027 1.155 2.907v2.736q-2.48-1.453-5.301-1.453-4.49 0-7.268 2.223-2.822 2.266-2.822 6.028v3.506q0 3.975 3.078 6.41 3.077 2.44 7.952 2.44m-.042-15.093q2.052 0 3.227.791 1.175.792 1.176 2.075v3.29q0 1.496-1.176 2.31-1.175.811-3.229.812-2.05 0-3.206-.813-1.154-.813-1.153-2.308v-3.591q0-1.199 1.175-1.882t3.186-.684m-184.971 40.885v239.33h25.512v-29.413h29.747v29.412h25.511V198.455zm213.311 0v239.33h25.513v-29.413H412.8v29.412h25.51V198.455zm-40.3.642v38.811c0 10.36-11.543 24.138-25.97 24.138-14.428 0-25.97-13.778-25.97-24.138v-39.453h-32.82v159.886h19.666v-29.498h29.291v29.498h19.665v-29.498h29.292v29.498h19.666V198.455h-32.82z" style="fill:#231f20;fill-opacity:1;fill-rule:nonzero;stroke:none" transform="matrix(1.33333 0 0 -1.33333 -.667 1121.853)"/><path d="M309.76 198.937v38.971c0 6.426-8.462 16.656-18.49 16.656s-18.49-10.23-18.49-16.656v-38.545l.006-.908h36.973z" style="fill:#231f20;fill-opacity:1;fill-rule:nonzero;stroke:none" transform="matrix(1.33333 0 0 -1.33333 -.667 1121.853)"/><path d="M212.61 575.51s-17.804 4.39-31.849-3.42c-16.53-9.191-23.212-27.67-34.2-38.047-19.237-18.169-44.46-31.136-44.46-31.136s25.88-1.382 51.586 7.98c24.652 8.977 30.637 22.657 37.192 38.617s12.255 22.087 21.731 26.006" style="fill:#2664a7;fill-opacity:1;fill-rule:nonzero;stroke:none" transform="matrix(1.33333 0 0 -1.33333 -.667 1121.853)"/><path d="M138.687 534.4c-6.436 5.603-14.474 14.132-19.343 24.936-9.12 20.236-6.84 43.035-6.84 43.035s7.695-14.107 22.657-28.5c8.277-7.96 16.426-13.358 22.215-16.657l.578-.335c-1.4-1.92-2.732-3.834-4.028-5.695-3.573-5.136-6.948-9.986-10.74-13.568a137 137 0 0 0-4.057-3.676zm231.243 41.11s17.804 4.39 31.848-3.42c16.53-9.191 23.212-27.67 34.2-38.047 19.238-18.169 44.46-31.136 44.46-31.136s-25.878-1.382-51.584 7.98c-24.652 8.977-30.638 22.657-37.193 38.617s-12.255 22.087-21.731 26.006" style="fill:#2664a7;fill-opacity:1;fill-rule:nonzero;stroke:none" transform="matrix(1.33333 0 0 -1.33333 -.667 1121.853)"/><path d="M443.411 533.94a139 139 0 0 0-4.057 3.676c-3.791 3.582-7.166 8.432-10.74 13.568-1.296 1.86-2.628 3.775-4.028 5.695l.578.335c5.79 3.299 13.94 8.697 22.215 16.657 14.962 14.393 22.657 28.5 22.657 28.5s2.281-22.8-6.84-43.035c-4.869-10.804-12.906-19.333-19.342-24.937zm-266.189-88.674v-29.412h14.785v29.412h40.473v-53.438l.006-1.282 58.784 81.066 58.273-80.361.516-.777v54.792h40.475v-29.412h14.784v29.412l-.309.537-113.74 156.854L177.756 446.11zm269.12-56.462 68.1-93.913.215-.327c-.9-8.522-2.373-16.904-4.75-24.846-3.747-12.511-12.275-32.545-31.53-56.164l-.193.29-31.867 43.949-.525.583v131.03zm-310.174-.044-68.003-93.78-.287-.372c.899-8.536 2.374-16.934 4.757-24.891 3.744-12.51 12.273-32.543 31.525-56.161l.252.364 32.021 44.16.315.44v131.028z" style="fill:#2664a7;fill-opacity:1;fill-rule:nonzero;stroke:none" transform="matrix(1.33333 0 0 -1.33333 -.667 1121.853)"/></svg>