<svg xmlns="http://www.w3.org/2000/svg" xml:space="preserve" viewBox="1.55 1.47 285.9 343.03"><path d="m178.304 54.792 21.553-37.142s-2.03-5.177 3.347-10.823C208.121 1.66 214.173.774 215.6 1.908c1.724 1.368 2.424 6.978-1.573 12.201-3.69 4.819-7.479 4.918-7.479 4.918l-3.741 6.903-.105.186c5.92-1.365 16.104-3.145 28.729-3.056 20.958.148 36.159 5.609 36.159 12.545v26.861s-.658 1.38-2.469 3.164l.008.23v5.978l.027.233c3.673.99 6.729 2.257 8.928 2.939 4.279 1.329 11.217.295 11.217.295-2.51 4.723-12.988 11.217-12.988 11.217 4.723 2.213 13.43 5.756 13.43 5.756s-3.836 3.985-13.873 3.837c-3.104-.045-5.147-.232-6.719-.447l-.021.298v76.942c.099 16.923-3.847 35.322-29.614 68.282-33.847 43.294-91.012 63.362-91.012 63.362s-57.166-20.068-91.012-63.362c-25.769-32.96-29.715-51.359-29.616-68.282V95.672l-.443.051c-1.514.19-3.465.349-6.297.391-10.039.148-13.876-3.837-13.876-3.837s8.708-3.542 13.431-5.756c0 0-10.479-6.494-12.988-11.217 0 0 6.937 1.034 11.216-.295 2.213-.687 5.295-1.965 9-2.959l-.046-.534v-5.46l.045-.391c-1.839-1.801-2.505-3.2-2.505-3.2V35.604c0-6.936 15.201-12.397 36.158-12.545 12.315-.086 22.31 1.604 28.287 2.955l.438.099-3.842-7.086s-3.788-.1-7.477-4.918C70.979 8.885 71.68 3.275 73.402 1.907c1.426-1.134 7.478-.248 12.397 4.919 5.376 5.646 3.345 10.823 3.345 10.823l21.375 36.837.161.263a34.5 34.5 0 0 1-.384-5.144c0-18.891 15.313-34.204 34.204-34.204 18.892 0 34.204 15.313 34.204 34.204a34.4 34.4 0 0 1-.449 5.561"/><path fill="#293896" d="m124.452 135.495-6.381 3.506-.1-.21a98 98 0 0 1-2.63-9.027 86 86 0 0 1-.71-3.241l-.123-.599c.093-1.119.179-1.976.179-1.976q-.287-.102-.575-.214l-.059-.421a85 85 0 0 1-.456-3.255l-.014-.358c.447-.167.897-.361 1.34-.591 3.188-1.653 5.313-5.196 5.313-8.028 0-2.834-2.48-2.008-4.132-.237-.859.92-1.94 1.394-3.08 1.521l.004-.348c-.264-12.694 2.616-20.625 2.616-20.625s4.253 2.656 14.883 2.509c10.631-.148 13.972-3.247 13.972-3.247h.001s3.341 3.099 13.972 3.247 14.883-2.509 14.883-2.509 2.143 5.898 2.563 15.662l.016.146-4.253 2.337-.239.132c-1.355-.776-2.678-.658-2.678 1.411l-.208.174-36.671 20.156-.44.219q.112-.204.246-.36c.708-.827 2.597-2.125 2.125-3.307-.471-1.18-2.479-1.062-5.194 1.298-2.165 1.883-3.204 3.615-3.835 6.035z"/><path fill="#40ACE2" d="M165.389 152.028c-9.199 17.982-20.889 28.064-20.889 28.064s-11.67-10.064-20.862-28.017l-.13-.399c2.703-1.068 5.628-1.827 6.882-1.752 2.007.118 5.313 1.417 6.376-.827 1.062-2.243-.591-3.188-1.771-5.313a12 12 0 0 1-.854-1.848l.366-.16 21.187-11.646.304-.17c.468.493 1.003.946 1.314 1.308.708.826 1.061 2.833-.473 3.542-1.535.708-2.716 2.362-2.007 3.778.708 1.417.353 3.07-.827 5.195-1.181 2.125-2.833 3.07-1.771 5.313s4.37.944 6.376.827c1.267-.075 4.237.698 6.962 1.782zm-6.291-23.757c.405.273.835.601 1.282.99 2.717 2.362 3.662 4.487 4.252 8.029.549 3.3 2.125 6.191 4.056 7.621l.182-.418a98 98 0 0 0 4.791-14.729q.379-1.591.689-3.137l.134-.81a130 130 0 0 0-.169-1.869q.297-.106.593-.222l.042-.424q.258-1.617.445-3.171l.064-.417a12 12 0 0 1-.508-.2l-.311.205-15.241 8.375z"/><path d="M144.5 344.5c-19.482-.147-53.426-4.87-79.992-14.315-19.987-7.105-38.814-16.823-56.525-34.534-6.509-6.51-9.15-10.037-2.804-16.088 6.347-6.051 26.713-23.613 26.713-23.613 5.018-4.133 12.25-6.051 21.991.59 9.486 6.469 20.071 16.383 20.071 16.383l-19.09 16.186.517.215c6.243 3.59 13.339 7.074 20.935 10.115 23.139 9.267 52.147 12.988 68.185 12.988h.001c16.037 0 45.045-3.722 68.185-12.988 7.595-3.041 14.69-6.525 20.935-10.115l.518-.215-19.09-16.186s10.584-9.914 20.071-16.383c9.74-6.641 16.972-4.723 21.989-.59 0 0 20.367 17.563 26.715 23.613 6.344 6.051 3.702 9.578-2.806 16.088-17.709 17.711-36.537 27.429-56.524 34.534-26.568 9.445-60.512 14.168-79.995 14.315"/><path fill="#67696F" d="M31.82 68.748c-5.694-2.468-8.016-5.717-8.636-6.741V41.165l.003-.768c2.973 2.398 8.347 4.078 15.681 5.786 4.521 1.053 11.221 1.955 18.313 2.911 9.884 1.331 20.104 2.708 24.673 4.536 7.832 3.132 10.132 5.323 10.252 9.767-.075 4.823-.148 7.258-4.578 9.911-4.32 2.588-10.921 3.718-18.89 3.472-12.843-.396-21.885-4.477-30.11-5.738.002 0-2.43-.607-6.708-2.294"/><path fill="#FFF" d="m92.108 72.019-.001 20.758c-.104 1.559-2.257 3.012-5.917 3.988-2.346.625-9.634 2.001-26.624 1.271-8.159-.353-12.845-1.688-16.98-2.868-2.778-.792-5.402-1.541-8.607-1.849-4.327-.416-6.087-.113-8.316.269-1.88.324-4.009.689-8.556.756-4.772.07-7.984-.853-9.982-1.743 2.976-1.237 7.375-3.096 10.317-4.475l2.958-1.387-2.776-1.722c-2.088-1.295-6.882-4.556-9.966-7.592 2.417.095 5.422.011 7.785-.723l2.769-.948c4.401-1.566 10.43-3.713 17.401-3.256 3.633.237 7.374 1.234 11.706 2.386 5.999 1.596 12.798 3.405 21.267 3.667 11.111.344 19.324-2.021 23.522-6.532"/><path fill="#40ACE2" d="M144.489 342.73c20.022-.151 53.729-5.083 79.41-14.214 23.339-8.298 40.569-18.82 55.867-34.12 3.367-3.366 5.942-6.132 5.914-8.498-.017-1.46-.996-3.067-3.08-5.054-4.089-3.899-14.173-12.727-20.697-18.398l-.051.813c-.025 2.047-.915 4.252-2.346 6.911-4.858 9.03-24.702 22.318-46.162 30.912-22.502 9.01-51.46 13.113-68.843 13.113h-.001c-17.383 0-46.34-4.104-68.843-13.113-21.458-8.594-41.305-21.882-46.161-30.912-1.43-2.659-2.32-4.864-2.346-6.911l-.051-.813c-6.524 5.672-16.607 14.499-20.698 18.398-2.084 1.986-3.063 3.594-3.08 5.054-.028 2.366 2.546 5.132 5.914 8.498 15.298 15.3 32.528 25.822 55.866 34.12 25.682 9.131 59.388 14.063 79.411 14.214z"/><path fill="#67696F" d="M195.22 61.284h-11.364l-.234.03 17.835-32.898.13-.208c5.495-1.356 16.275-3.473 29.831-3.377 21.247.149 34.399 5.709 34.399 10.773 0 1.55-.181 2.998-2.525 4.377-2.856 1.68-7.448 3.055-13.562 4.478-10.774 2.51-35.125 4.28-43.243 7.527-7.021 2.809-10.288 5.175-11.137 9.299z"/><path fill="#FFF" d="M196.305 259.021v-4.843c0-3.758-2.682-6.329-4.281-7.526-3.18-2.385-12.198-5.489-18.85-3.182-6.572 2.28-9.634 6.247-9.634 12.479v23.097l-.001.248c9.66-4.869 21.29-11.503 32.757-19.933zm-103.608.126v-4.969c0-3.758 2.682-6.329 4.279-7.526 3.181-2.385 12.2-5.489 18.851-3.182 6.573 2.28 9.634 6.247 9.634 12.479v23.344c-9.662-4.868-21.288-11.502-32.755-19.931z"/><path fill="#67696F" d="M250.472 71.042c-8.226 1.262-17.268 5.342-30.111 5.738-7.968.246-14.569-.884-18.889-3.472-4.43-2.652-4.505-5.088-4.578-9.911.119-4.443 2.42-6.634 10.251-9.767 4.57-1.828 14.789-3.205 24.674-4.536 7.092-.956 13.793-1.858 18.313-2.911 7.334-1.708 12.708-3.388 15.682-5.786l.003.768v20.842c-.621 1.023-2.94 4.272-8.635 6.741-4.279 1.687-6.71 2.294-6.71 2.294"/><path fill="#FFF" d="M220.414 78.55c8.468-.262 15.269-2.071 21.268-3.667 4.332-1.152 8.072-2.148 11.706-2.386 6.973-.457 13 1.689 17.401 3.256l2.767.948c2.365.733 5.368.818 7.785.723-3.084 3.036-7.876 6.297-9.964 7.592l-2.776 1.722 2.958 1.387c2.941 1.379 7.341 3.238 10.316 4.475-1.996.891-5.21 1.813-9.982 1.743-4.546-.066-6.677-.432-8.556-.756-2.229-.382-3.988-.685-8.315-.269-3.205.309-5.83 1.057-8.605 1.849-4.136 1.18-8.822 2.516-16.981 2.868-16.991.73-24.279-.646-26.623-1.271-3.659-.976-5.813-2.429-5.917-3.988l-.001-20.758c4.197 4.512 12.409 6.877 23.519 6.532"/><path fill="#D7182A" d="M54.649 118.499c-3.837-2.328-7.479-2.742-9.994-2.638l-.662-.117a856 856 0 0 1-.189-13.042 65 65 0 0 0 2.967 2.759l7.618 6.545.083.609a37.3 37.3 0 0 0 1.028 6.469zm23.928 27.396c-2.802 2.523-4.698 5.795-5.821 8.177l-.39.583c-1-1.694-2.802-4.228-5.423-5.865-2.726-1.704-5.676-2.181-7.435-2.308l.368-.599c1.345-1.988 3.948-4.696 8.7-6.261l.808-.181a56 56 0 0 0 9.557 6.029zm-11.496-7.303c-3.471 1.34-5.792 3.271-7.307 5.029l-.479.476a20.9 20.9 0 0 0-1.713-5.777c-1.204-2.578-2.762-3.956-4.199-4.683l.879-.301a49 49 0 0 1 6.154-1.6l.928-.208q.446.59.922 1.158c1.438 1.72 3.336 3.627 5.604 5.53zm-8.626-7.953c-2.777.629-4.973 1.357-6.572 1.983l-.76.299c-.007-2.205-.166-6.389-1.169-9.126-1.036-2.827-3.182-5.096-4.74-6.465l.846-.006c2.626.118 6.151.942 9.741 3.77l.357.307c.977 3.053 2.37 6.036 4.207 8.761.002 0-1.497.383-1.91.477m175.896-12.14c3.838-2.328 7.479-2.742 9.996-2.638l.662-.117c.115-5.172.167-9.915.188-13.042-.8.792-1.768 1.709-2.968 2.759l-7.618 6.545-.083.609a37 37 0 0 1-1.028 6.469zm-23.928 27.396c2.802 2.523 4.699 5.795 5.824 8.177l.388.583c1.001-1.694 2.803-4.228 5.423-5.865 2.726-1.704 5.676-2.181 7.436-2.308l-.369-.599c-1.345-1.988-3.948-4.696-8.699-6.261l-.807-.181a56 56 0 0 1-9.557 6.029zm11.497-7.303c3.471 1.34 5.791 3.271 7.308 5.029l.478.476a20.9 20.9 0 0 1 1.715-5.777c1.203-2.578 2.764-3.956 4.198-4.683l-.879-.301a49 49 0 0 0-6.154-1.6l-.927-.208q-.448.59-.922 1.158c-1.438 1.72-3.338 3.627-5.604 5.53zm8.626-7.953c2.777.629 4.974 1.357 6.572 1.983l.759.299c.008-2.205.165-6.389 1.168-9.126 1.038-2.827 3.183-5.096 4.741-6.465l-.846-.006c-2.628.118-6.152.942-9.74 3.77l-.359.307c-.976 3.053-2.368 6.036-4.208 8.761 0 0 1.502.383 1.913.477"/><path fill="#934711" d="M161.978 86.078a55 55 0 0 0 6.401-.209l.278-.049 36.592-67.497.415-.728.825-.044c.13-.007 3.206-.218 6.364-4.342 3.622-4.732 2.776-9.393 1.852-10.13-.781-.452-5.859-.041-10.435 4.765-4.606 4.837-3.101 9.1-3.034 9.279l.246.665-39.641 68.314zm-34.969-.235L87.868 18.39l-.343-.615.24-.651c.066-.179 1.571-4.442-3.035-9.279-4.576-4.806-9.654-5.216-10.411-4.782-.949.754-1.795 5.415 1.829 10.147 3.157 4.125 6.234 4.335 6.364 4.342l.845.045 36.899 68.063.111.187c1.989.193 4.209.29 6.657.232l.134-.003z"/><path fill="#FFF" d="M125.988 22.99c2.084.302 6.846 1.254 10.936 4.005 5.412 3.64 12.791 10.921 15.545 15.644 2.755 4.723 6.986 1.672 8.855.196s2.459-2.754 2.459-3.542-2.655-5.608-8.067-10.528c-5.292-4.811-12.842-8.776-19.43-10.696l-.284-.074a32.6 32.6 0 0 0-10.426 4.921z"/><path fill="#FFF" d="M124.421 23.778c-7.692 5.993-12.648 15.343-12.648 25.828 0 3.278.484 6.444 1.385 9.432l.328.558 1.328 2.29.254.433c.038-3.298.503-11.561 3.95-18.99 3.909-8.428 9.149-13.38 11.314-14.856s.295-3.739-2.065-4.428c-1.398-.407-2.727-.47-3.579-.454zm50.992 15.075c-4.458-12.781-16.633-21.976-30.913-21.976-1.968 0-3.895.174-5.767.508l-.401.085c2.651.919 9.033 3.206 12.858 5.194 4.92 2.558 8.658 6.986 11.02 11.217 2.361 4.23 2.951 5.903 6.298 6.198 2.809.248 6.033-.614 6.994-.897zm.166 1.47c-6.908 4.072-15.218 6.149-19.175 5.957-4.034-.197-5.214-.788-6.001.984-.788 1.771-1.87 6.591-.198 7.97 1.672 1.377 7.379 1.673 14.562.295 5.459-1.048 10.123-4.253 12.045-5.731l.414-.32a32.5 32.5 0 0 0-1.381-9.292z"/><path fill="#67696F" d="M87.135 28.14c-5.576-1.359-16.222-3.404-29.551-3.31-21.248.149-34.399 5.709-34.399 10.773 0 1.55.181 2.998 2.525 4.377 2.855 1.68 7.449 3.055 13.561 4.478 10.774 2.51 35.126 4.28 43.243 7.527 6.852 2.741 10.128 5.061 11.071 9.001l.097.296h11.216l.471.01L87.43 28.205z"/><path fill="#FFF" d="M103.425 107.331c.448-19.777 4.331-24.794 4.331-24.794s3.661 2.136 10.793 3.098l-.055-.129-12.17-22.45H93.877v29.813c-.146 2.509-2.803 4.427-7.231 5.608s-13.43 1.918-27.155 1.328c-11.821-.509-16.573-3.046-22.471-4.24l-.455-.04v77.799l-.001.594c0 11.9 2.079 27.176 26.909 58.037a129 129 0 0 0 3.434 4.089l.187.192c4.306-2.713 10.903-6.407 19.258-9.654 2.18-.85 4.39-1.656 6.621-2.423l-.01-.197c-.008-3.727-.105-5.546-1.416-6.855-1.417-1.417-5.432-3.543-10.507-6.731-3.313-2.079-1.182-3.542.943-6.021s2.126-5.432.826-10.509c-1.298-5.076-3.069-6.021-4.959-5.903-1.888.118-4.368.354-9.799-1.89-5.431-2.242-6.612-4.722-7.32-8.854s-2.068-8.778-4.132-11.571c-2.008-2.715-3.306-3.306-4.959-2.598-1.957.839-1.889 2.833-.945 4.959l2.362 5.313c-2.834-2.597-6.612-4.369-9.563-4.486s-6.022 2.362-6.022 2.362c-.945-8.265 2.243-12.516 6.14-14.759s6.376-1.417 6.376-1.417c-1.771 2.48-.826 4.841-.826 4.841s4.604-2.007 8.736 1.535c2.986 2.559 4.958 8.266 6.14 12.87.854 3.33 1.063 5.312 3.896 5.195 2.269-.095 5.785-3.425 9.091-7.557s5.077-5.785 7.911-7.91 3.896-4.723 3.896-4.723c-2.717.118-5.432.827-5.432.827s-1.299-2.716-4.723-4.132c-3.425-1.417-6.73 1.063-6.73 1.063s-2.006-4.604-5.785-6.966c-3.778-2.361-8.147-2.125-8.147-2.125s.396-4.328-1.771-8.974c-2.479-5.312-6.612-4.604-6.612-4.604s.236-6.494-1.063-10.036c-1.545-4.214-6.021-7.203-6.021-7.203-.236-9.681-.236-18.182-.236-18.182s1.653 2.125 5.43 5.431c2.085 1.824 6.681 5.711 6.681 5.711.167-5.673 2.056-10.08 2.056-10.08s4.525 7.203 9.446 13.932c5.785 7.911 11.334 11.335 13.696 12.988s5.667 3.306 6.848 2.36c1.181-.944 2.007-2.36.826-3.542s-3.306-2.598-5.077-4.604-.118-4.016 1.535-6.848c1.653-2.834 1.889-4.487 2.125-8.029s-.944-6.848-.944-6.848 3.777 3.306 7.438 7.911c0 0 3.306-.945 5.195-1.181s3.896.591 5.549 2.125q.133.124.279.246zm82.167 1.162a64 64 0 0 0-.016-1.162c-.448-19.777-4.332-24.794-4.332-24.794s-3.621 2.114-10.682 3.083l-.139.04 12.247-22.592.249-.012h12.227l-.023.295v29.518c.147 2.509 2.804 4.427 7.232 5.608 4.427 1.181 13.43 1.918 27.155 1.328 12.008-.516 16.72-3.126 22.752-4.296l.174-.033v78.387c0 11.925-2.079 27.232-26.908 58.093a129 129 0 0 1-3.597 4.271l-.192-.095c-4.309-2.704-10.843-6.345-19.09-9.549a168 168 0 0 0-6.464-2.366l-.146-.052c.004-3.864.081-5.725 1.416-7.058 1.417-1.417 5.431-3.543 10.508-6.731 3.311-2.079 1.181-3.542-.944-6.021s-2.126-5.432-.827-10.509c1.3-5.076 3.07-6.021 4.959-5.903s4.369.354 9.799-1.89c5.432-2.242 6.614-4.722 7.321-8.854.709-4.133 2.068-8.778 4.133-11.571 2.007-2.715 3.306-3.306 4.959-2.598 1.957.839 1.89 2.833.943 4.959-.943 2.126-2.36 5.313-2.36 5.313 2.834-2.597 6.611-4.369 9.563-4.486s6.022 2.362 6.022 2.362c.943-8.265-2.244-12.516-6.141-14.759S239.015 155 239.015 155c1.771 2.48.827 4.841.827 4.841s-4.605-2.007-8.738 1.535c-2.985 2.559-4.959 8.266-6.139 12.87-.854 3.33-1.063 5.312-3.896 5.195-2.27-.095-5.784-3.425-9.09-7.557-3.308-4.132-5.079-5.785-7.912-7.91s-3.896-4.723-3.896-4.723c2.716.118 5.433.827 5.433.827s1.297-2.716 4.722-4.132c3.425-1.417 6.73 1.063 6.73 1.063s2.007-4.604 5.785-6.966 8.147-2.125 8.147-2.125-.396-4.328 1.77-8.974c2.479-5.312 6.612-4.604 6.612-4.604s-.234-6.494 1.063-10.036c1.545-4.214 6.02-7.203 6.02-7.203.237-9.681.237-18.182.237-18.182s-1.653 2.125-5.431 5.431c-2.086 1.824-6.683 5.711-6.683 5.711-.166-5.673-2.055-10.08-2.055-10.08s-4.524 7.203-9.445 13.932c-5.786 7.911-11.335 11.335-13.698 12.988-2.359 1.652-5.666 3.306-6.848 2.36-1.179-.944-2.005-2.36-.826-3.542 1.182-1.181 3.308-2.598 5.078-4.604s.117-4.016-1.536-6.848c-1.651-2.834-1.887-4.487-2.124-8.029-.236-3.542.944-6.848.944-6.848s-3.777 3.306-7.438 7.911c0 0-3.306-.945-5.195-1.181s-3.896.591-5.55 2.125z"/><path fill="#FFF" d="M171.481 155.486a120 120 0 0 1-5.023 7.928c-10.653 15.418-21.958 24.499-21.958 24.499s-11.305-9.08-21.957-24.499a119 119 0 0 1-5.114-8.085l-.228.192c-2.438 2.277-3.431 4.466-5.938 7.391-3.224 3.761-6.697 7.421-8.732 9.523l.654-.026c2.027-.268 3.863-1.07 6.543-1.705 4.487-1.063 7.911-1.417 9.682 2.715s-1.417 7.555-3.425 10.39c-2.007 2.834-2.952 6.139-.472 7.085 2.48.942 8.974.234 8.974.234s.236-3.306 2.361-4.84c2.125-1.535 3.306-3.66 3.896-7.558 0 0 1.535.826 2.362 3.189 0 0 1.299 0 2.007-1.181 0 0 1.417 2.479-.473 6.139-1.888 3.661-3.305 5.903-1.298 10.155 2.006 4.249 3.542 7.555 3.542 7.555s-3.661.354-6.14-1.891c-2.479-2.242-4.604-2.479-10.862-2.358-6.257.116-11.334-.121-12.751-1.181-1.416-1.063-1.889-3.307-.118-4.369 1.771-1.063 1.063-3.542.118-5.549-.944-2.008-3.541-2.598-5.667-.355s-2.716 5.785-3.07 6.967-2.715 2.361-2.833 6.14-.237 7.556 1.535 9.446c1.771 1.887 4.723 4.131 6.258 4.366 1.535.237 2.598-.116 4.25-.706 1.653-.592 2.715-.355 3.306.354.368.439.323 2.16.237 3.398l-.001.15c11.22-2.54 22.575-3.934 33.354-3.934h.001c10.722 0 22.013 1.38 33.173 3.894l.191.037c-.094-1.243-.155-3.089.227-3.546.59-.709 1.652-.945 3.306-.354 1.653.59 2.716.943 4.251.706 1.535-.235 4.485-2.479 6.258-4.366 1.77-1.891 1.652-5.668 1.532-9.446-.116-3.778-2.479-4.958-2.831-6.14-.354-1.182-.945-4.724-3.07-6.967-2.127-2.242-4.723-1.652-5.667.355-.945 2.007-1.654 4.486.118 5.549 1.77 1.063 1.3 3.306-.118 4.369-1.417 1.06-6.494 1.297-12.752 1.181-6.258-.121-8.382.116-10.861 2.358-2.48 2.245-6.141 1.891-6.141 1.891s1.535-3.306 3.543-7.555c2.007-4.252.59-6.494-1.3-10.155-1.888-3.66-.473-6.139-.473-6.139.709 1.181 2.007 1.181 2.007 1.181.827-2.363 2.363-3.189 2.363-3.189.589 3.897 1.77 6.022 3.896 7.558 2.126 1.534 2.36 4.84 2.36 4.84s6.495.708 8.975-.234c2.479-.946 1.534-4.251-.473-7.085-2.007-2.835-5.195-6.259-3.423-10.39 1.771-4.132 5.193-3.778 9.68-2.715 2.679.635 4.518 1.438 6.544 1.705l.654.026c-2.036-2.102-5.509-5.763-8.732-9.523-2.581-3.012-3.559-5.243-6.157-7.595zm-47.895-78.484 5.085 8.763.16.248c6.318-.308 10.458-1.397 12.888-2.302l-.335-.042a34.04 34.04 0 0 1-18.141-7.266zm41.709-.237a34.03 34.03 0 0 1-17.724 6.909l-.298.034c2.428.906 6.569 1.997 12.896 2.306l.139-.21 5.475-9.431z"/><path fill="#FFF" d="M140.196 81.551c.117-2.673.667-5.846 2.04-7.82 1.574-2.263 3.937-2.854 6.69-1.968 2.756.885 6.297 1.672 11.513 1.377 3.746-.212 7.75-3.067 9.703-4.657l.406-.327-2.211 3.81-.182.234c-5.964 6.24-14.364 10.133-23.656 10.133q-2.183-.002-4.29-.281zm-10.462-3.332c-.313-2.622-.763-8.746.4-17.181 1.575-11.413 6.79-18.399 9.545-22.039s4.978-3.048 7.477.492c2.361 3.345 3.542 4.723 2.46 6.494-1.083 1.771-2.558 4.821-1.869 10.823 0 0-3.739 3.246-6.198 10.134-1.996 5.588-2.567 12.211-2.711 14.512l-.041.382a32.5 32.5 0 0 1-8.946-2.968z"/><path fill="#FFF" d="M176.868 51.788c-1.727 1.429-5.89 4.407-11.707 5.511-7.772 1.476-12.3.984-14.167.492-1.87-.492-3.641.787-4.723 4.525-1.083 3.74-1.292 5.919 0 6.888 1.574 1.181 4.113 1.438 9.641 1.279 6.105-.174 11.127-1.431 16.233-5.414l.394-.343 3.266-5.626.113-.315a32.5 32.5 0 0 0 1.257-7.292zm-48.599 25.836c-.396-2.808-1.159-10.119.094-18.455 1.674-11.118 3.898-14.992 6.986-18.3 4.133-4.427 6.495-4.92 6.691-5.903.197-.984-1.082-3.838-4.723-6.002-3.64-2.165-5.903-.787-9.741 3.148s-6.887 10.134-9.347 17.12c-1.599 4.543-1.95 11.085-2.001 15.103l.204.341 4.167 7.181.22.32a33 33 0 0 0 7.519 5.882z"/><path fill="#40ACE2" d="M28.928 263.257c.009 1.653.772 3.554 2.128 6.073.829 1.543 2.188 3.28 4.006 5.143l.647-.462 7.546-7.288s4.463 5.08 11.955 9.003c2.901 1.521 5.153 2.519 7.157 2.729 1.402.146 2.731-.22 4.185-1.574 2.188-1.854 3.989-3.381 4.725-4.007-3.201-2.902-11.162-9.938-18.394-14.869-7.514-5.125-14.198-5.355-19.835-.713-2.411 1.902-4.132 3.606-4.12 5.965"/><path fill="#40ACE2" d="m62.033 280.712-8.635 7.315-.638-.248c-6.614-3.986-12.126-8.04-16.056-11.702l-.305-.273 6.815-6.58c1.88 1.835 5.747 5.228 11.173 8.071 3.185 1.669 5.768 2.748 8.13 2.96zm198.04-17.455c-.008 1.653-.771 3.554-2.128 6.073-.829 1.543-2.188 3.28-4.008 5.143l-.647-.462-7.544-7.288s-4.463 5.08-11.956 9.003c-2.901 1.521-5.153 2.519-7.157 2.729-1.401.146-2.731-.22-4.185-1.574a3777 3777 0 0 1-4.725-4.007c3.2-2.902 11.159-9.938 18.394-14.869 7.515-5.125 14.198-5.355 19.836-.713 2.411 1.902 4.133 3.606 4.12 5.965"/><path fill="#40ACE2" d="M226.967 280.712c4.392 3.722 8.636 7.315 8.636 7.315l.639-.248c6.613-3.986 12.125-8.04 16.055-11.702l.307-.273c-1.367-1.317-5.305-5.119-6.817-6.58-1.881 1.835-5.745 5.228-11.174 8.071-3.185 1.669-5.768 2.748-8.13 2.96z"/><path fill="#B48321" d="M263.357 71.418v-4.083l.001-.167c-1.56 1.212-3.626 2.479-6.325 3.558l.293.002c2.129.133 4.148.465 6.032.894zM25.644 95.377v77.541l-.001.538c0 17.576 5.078 35.737 29.241 66.644 31.359 40.11 83.65 60.355 89.618 62.569 5.968-2.214 58.258-22.459 89.617-62.569 24.163-30.907 29.24-49.068 29.24-66.654l-.001-.538v-77.31l-.004-.21c-2.304-.393-3.872-.719-8.163-.307a29 29 0 0 0-.969.11l-.017.187v77.875q.003.303.003.61c0 12.372-2.381 28.231-27.299 59.202-26.681 33.159-69.741 51.773-82.408 56.734-12.667-4.96-55.729-23.575-82.408-56.734-24.92-30.972-27.301-46.831-27.301-59.146l.002-.604V95.179l-.983-.099c-3.927-.376-5.574-.136-7.592.208zm0-24.205v-3.59l.041-.382c1.554 1.203 3.608 2.457 6.282 3.525l-.292.002a37.6 37.6 0 0 0-5.943.874z"/><path fill="#934711" d="M68.268 237.25c4.258-2.654 10.642-6.192 18.618-9.295 18.922-7.358 39.383-11.411 57.614-11.411 18.232 0 38.692 4.053 57.615 11.411 7.953 3.093 14.323 6.619 18.58 9.271l.219.143c-7.084 7.864-15.042 14.823-23.123 20.883l-.012-.213v-3.86c0-3.69-2.217-6.719-4.869-8.708-3.543-2.656-12.988-5.903-20.22-3.395-7.459 2.586-10.625 7.233-10.625 13.873v23.786l-.014.303c-7.521 3.728-13.729 6.339-17.551 7.854-3.824-1.515-10.036-4.13-17.564-7.86V255.95c0-6.64-3.168-11.287-10.626-13.873-7.231-2.509-16.677.738-20.219 3.395-2.654 1.989-4.871 5.018-4.871 8.708v4.058l-.223-.144c-8.006-6.021-15.882-12.921-22.901-20.713z"/><path d="m31.585 282.067-1.66 1.715a5.5 5.5 0 0 0-.584-1.54 6 6 0 0 0-1.029-1.313q-1.872-1.813-4.333-1.345c-2.461.468-3.318 1.355-5.033 3.126q-2.689 2.775-3.13 5.402-.443 2.63 1.444 4.455a5.4 5.4 0 0 0 1.281.922q.708.368 1.553.55l-1.625 1.678a8 8 0 0 1-1.525-.76 9 9 0 0 1-1.382-1.106q-2.477-2.398-2.05-5.883.427-3.483 3.659-6.819 3.173-3.276 6.579-3.798c3.406-.522 4.231.278 5.881 1.876q.6.582 1.084 1.293.485.71.87 1.547m1.972.829 1.667 1.398-11.266 13.425 4.466 3.748-1.376 1.64-6.133-5.148zm5.391 4.404 1.825 1.213-6.956 15.902 12.141-12.453 2.313 1.539-6.852 15.969 12.059-12.507 1.722 1.145-14.117 14.231-2.188-1.456 6.835-16.214-12.343 12.551-2.167-1.443zm17.954 11.457 3.488 1.682q2.382 1.149 3.089 2.84.708 1.693-.313 3.81-.8 1.656-1.999 2.376-1.2.718-2.694.426 1.313 1.05 1.593 2.475.278 1.428-.517 3.074-1.31 2.72-3.274 3.311t-4.955-.851l-2.96-1.428zm-2.607 10.334-3.125 6.481 1.424.688q1.703.82 2.895.426 1.191-.395 1.992-2.057.807-1.67.379-2.848t-2.141-2.002zm3.654-7.577-2.804 5.816 1.424.687q1.515.73 2.593.346c.718-.26 1.326-.901 1.823-1.932q.708-1.468.267-2.504-.442-1.033-2.181-1.872zm14.335 4.27 3.402 1.129q2.747.911 3.649 2.664.905 1.75.014 4.436-.955 2.879-2.785 3.736-1.83.86-4.86-.146l-.946-.313-2.604 7.844-2.065-.686zm1.426 2.612-2.302 6.934 1.479.491q1.702.564 2.696-.019.995-.586 1.639-2.523.599-1.806.086-2.832-.512-1.027-2.415-1.657zm19.81 3.31 2.123.479-3.847 17.097 5.687 1.28-.47 2.087-7.811-1.757zm10.23 14.989-5.286-1.033.389-1.991 5.287 1.033zm4.817-11.609 2.902.458q4.4.696 6.13 3.407 1.731 2.714.949 7.66-.742 4.69-3.371 6.852-2.626 2.162-6.78 1.506l-2.902-.459zm1.833 2.344-2.438 15.416.802.127q3.06.483 4.977-1.247t2.51-5.477q.627-3.968-.557-6.067-1.186-2.1-4.333-2.599zm12.022-.446 2.991.329q3.506.384 4.803 1.733 1.296 1.35.995 4.09-.21 1.917-1.255 3.009-1.046 1.094-2.801 1.262.853.205 1.28.802.43.595.757 2.27l1.427 7.189-2.313-.255-1.22-6.429q-.321-1.744-.797-2.248-.475-.504-1.648-.632l-1.235-.136-.966 8.802-2.163-.237zm1.943 2.255-.736 6.711.938.104q2.235.244 3.213-.473.978-.718 1.191-2.664.187-1.7-.581-2.511c-.511-.539-1.5-.892-2.965-1.051zm15.48-.835q3.113.142 4.695 2.854c1.053 1.811 1.508 4.328 1.363 7.559q-.22 4.856-2.036 7.412-1.818 2.55-4.93 2.412-3.1-.139-4.682-2.846t-1.363-7.564q.218-4.844 2.036-7.403 1.816-2.563 4.917-2.424m-.092 2.065q-2.045-.093-3.203 1.915t-1.337 5.963q-.179 3.97.795 6.073.973 2.101 3.019 2.194c2.046.093 2.433-.583 3.21-1.929q1.165-2.02 1.344-5.963.175-3.93-.803-6.045-.98-2.114-3.025-2.208m8.165-1.692 8.028-.5.126 2.025-5.855.366.405 6.481 5.561-.346.129 2.062-5.562.346.439 7.034 6.15-.385.128 2.027-8.324.518zm10.969-.933 2.918-.345q4.424-.526 6.824 1.616 2.404 2.14 2.992 7.115.56 4.714-1.384 7.508c-1.293 1.861-3.333 2.96-6.116 3.289l-2.919.347zm2.4 1.76 1.838 15.497.807-.094q3.076-.364 4.451-2.55 1.378-2.184.93-5.954-.47-3.988-2.183-5.689-1.712-1.698-4.874-1.325zm17.085-4.217 3.524-.651q2.845-.528 4.481.572 1.637 1.098 2.153 3.877.549 2.982-.639 4.617-1.186 1.638-4.326 2.217l-.98.183 1.504 8.128-2.141.396zm2.509 1.599 1.329 7.185 1.531-.285q1.765-.324 2.354-1.316.587-.993.216-3-.345-1.872-1.29-2.522-.944-.652-2.916-.287zm8.28-3.502 7.843-1.782.448 1.98-5.72 1.298 1.438 6.333 5.434-1.235.456 2.017-5.431 1.233 1.559 6.872 6.008-1.364.45 1.978-8.13 1.848zm9.992-2.473 2.493-.705 11.037 13.836-4.441-15.704 1.917-.54 5.354 18.922-2.566.727-10.877-13.68 4.388 15.515-1.953.553zm12.573-3.622 2.353-.873 6.934 7.157.51-9.916 2.172-.806-.883 12.474 2.876 7.762-2.076.768-2.885-7.785zm12.955-4.957 3.485-1.685q2.381-1.15 4.146-.651 1.765.5 2.788 2.614.799 1.657.615 3.043-.183 1.386-1.343 2.375 1.64-.375 2.929.293 1.29.671 2.087 2.315 1.313 2.72.554 4.623-.758 1.906-3.749 3.351l-2.959 1.43zm2.809.896 2.809 5.814 1.425-.688q1.514-.73 1.882-1.815.37-1.084-.377-2.628-.71-1.468-1.795-1.768-1.084-.297-2.822.543zm3.658 7.575 3.131 6.479 1.425-.688q1.702-.823 2.134-2.002.432-1.177-.37-2.839-.807-1.673-1.994-2.069t-2.9.432zm7.823-16.568q2.639-1.657 5.482-.325 2.845 1.334 5.422 5.44 2.586 4.117 2.541 7.253-.04 3.133-2.681 4.789-2.627 1.65-5.468.323-2.84-1.324-5.426-5.445-2.576-4.106-2.539-7.245.04-3.143 2.669-4.79m1.097 1.75c-1.156.726-1.672 1.855-1.546 3.396q.19 2.311 2.295 5.665 2.111 3.366 4.109 4.542 1.995 1.173 3.731.086 1.733-1.089 1.544-3.413-.194-2.323-2.29-5.665-2.091-3.332-4.101-4.517-2.008-1.181-3.742-.094m5.528-6.1 2.088-1.533 15.177 9.105-9.649-13.159 1.606-1.177 11.631 15.858-2.151 1.577-14.972-9.015 9.534 13.002-1.634 1.2zm10.975-7.643 7.475-7.133 1.451 1.521-2.937 2.803 12.124 12.705-1.6 1.53-12.125-12.708-2.938 2.803zM83.032 308.974l7.767 2.092-.528 1.96-5.665-1.527-1.689 6.271 5.379 1.451-.538 1.993-5.379-1.448-1.833 6.804 5.95 1.604-.528 1.96-8.051-2.171zm3.806-2.601 1.957.489 1.622 3.128-1.204-.301-1.575-2.31-2.477 1.297-1.204-.298z"/><path fill="#D7182A" d="M109.861 219.298a177 177 0 0 0-15.43 4.368l.006-.186c-.02-3.73-.196-5.769-1.848-7.419-1.073-1.073-3.192-2.345-6.125-4.106l-4.641-2.831c-.933-.585-1.026-.909-1.026-.912-.018-.317.893-1.321 1.437-1.922l.869-.977c2.67-3.115 2.414-6.838 1.136-11.834-.869-3.396-2.391-7.267-6.48-7.01l-.169.01c-1.791.113-4.08.392-8.975-1.791-4.749-2.117-5.729-3.491-6.688-7.919s-1.55-6.642-3.248-9.961c-1.697-3.321-3.984-5.239-5.755-5.313s-3.542.812-4.133 2.952c-.591 2.141 1.107 5.166 1.107 5.166-2.435-1.697-4.723-2.362-7.232-2.214-2.508.148-4.205 1.624-4.205 1.624s-.148-4.206 1.549-7.158 3.912-4.428 7.895-5.682c0 0-.441 3.099.665 5.091 0 0 2.14-1.55 5.165-.885 3.026.664 4.871 2.73 6.864 7.231 1.992 4.502 2.287 9.445 3.616 11.291 1.328 1.845 1.953 2.092 3.781 2.006 2.536-.121 5.962-2.834 10.182-8.11 3.305-4.13 4.96-5.639 7.644-7.651 3.124-2.343 4.327-5.224 4.376-5.344l.873-2.134-2.302.1c-1.811.079-3.591.399-4.68.628a11.2 11.2 0 0 0-4.847-3.823c-1.818-.753-3.575-.631-4.991-.247l.343-.639c1.161-2.243 2.933-5 5.391-7.069l.538-.408c2.665 1.206 5.491 2.203 8.427 2.878 0 0-3.779-2.569-5.764-3.361-8.32-3.319-15.637-9.037-19.788-13.998-4.243-5.071-6.958-12.078-7.453-19.226a24 24 0 0 1-.056-1.644c0-2.954.523-5.597 1.029-7.476 1.771 2.724 4.727 7.167 7.817 11.391 5.431 7.427 10.593 10.962 13.367 12.861l.674.465c1.572 1.101 4.024 2.59 6.109 2.857l1.052.984a34.5 34.5 0 0 1 7.307 11.313s1.151-1.103.265-3.058c-2.019-4.458-4.787-7.558-6.706-9.488 0 0 2.205-1.323 2.501-3.241.294-1.918-.813-2.73-2.757-4.367-1.033-.851-2.202-1.816-3.221-2.971-.254-.287-.385-.563-.385-.907 0-.646.464-1.524 1.45-3.153l.638-1.068c1.792-3.072 2.073-4.911 2.323-8.674.024-.356.004-2.079-.036-2.569a65 65 0 0 1 3.902 4.452l.613.771.947-.271c.033-.009 3.22-.917 4.973-1.135 1.393-.174 2.982.46 4.363 1.742 1.439 1.337 3.794 2.631 7.199 3.954 1.819.708 3.668.794 5.251.244 1.895-.66 2.485-1.767 3.297-2.505s1.55-.665.885 1.476c-.664 2.141-1.29 3.903-4.501 5.302-3.246 1.413-9.667 2.077-9.667 2.077l2.797 1.995c.122.083 2.739 1.81 5.753 3.053-.055.684-.107 3.028-.211 4.324-.073 2.066-.083 1.699-2.026.034-1.589-1.362-2.991-2.247-5.205-1.952 0 0 .667 3.461 4.06 6.269 2.057 1.701 3.933 3.324 4.191 4.964.531 3.377.088 6.403-.428 8.543 0 0 3.959 1.293 7.145-.644 2.534-1.542 4.514-4.968 5.174-8.928.321-1.932.754-3.325 1.468-4.529 1.267-2.133 2.079-3.314 3.481-4.052s2.213-.59 1.181.516c-1.034 1.107-2.455 2.269-2.261 4.381.097 1.059.988 1.55 1.891 2.113 1.593.991 1.338 1.975.96 4.058-.292 1.606.514 3.319 1.16 4.48.833 1.351 2.235 2.531 2.086 3.564-.147 1.033-1.106 1.107-1.992.886-.886-.222-1.406-.408-3.323-.5-2.368-.139-8.996 1.993-12.042 4.168-2.947 2.105-4.338 4.045-5.811 6.1-.726 1.014-1.478 2.062-2.48 3.232-3.772 4.401-7.936 8.711-9.639 10.45 0 0-.751-.074-1.991-.398-2.665-.696-5-2.43-6.502-3.775l-.38-.373a560 560 0 0 1 3.569-4.361l.515.3a20 20 0 0 0 4.027 2.256c1.663.684 2.634-.615 2.634-.615a19.7 19.7 0 0 1-6.152-3.106l.175-.283c.84-1.01 1.561-1.872 2.097-2.511a6.7 6.7 0 0 0 3.73 1.31c1.119.048 2.278-.294 3.332-.777 1.423-.616 1.691-2.716 1.691-2.716-1.239.892-3.24 2.093-4.958 2.019-2.715-.119-3.896-2.008-3.896-2.008s-3.896 4.605-7.911 9.564-4.84 6.729-2.952 9.091 2.479 8.028 1.417 12.515c-1.062 4.486-2.597 9.564-2.597 9.564s1.815-.107 4.426.02c1.918.093 2.487-1.248 2.487-1.248a40 40 0 0 0-4.925-.307c.55-1.911 1.39-4.92 2.045-7.688q.102-.43.185-.885l.959.065c1.956.137 4.486.231 6.839-.036 1.686-.193 1.731-1.757 1.731-1.757-2.765.579-6.268.483-8.728.301l-.571-.134c.093-.855.143-1.741.143-2.63 0-1.623-.163-3.253-.507-4.728l.486.084c2.214.477 5.443.781 8.433-1.025 1.05-.635.867-2.337.867-2.337-3.598 2.875-7.606 2.366-9.865 1.713l-.453-.193c-.325-.85-.729-1.603-1.219-2.217-.368-.459-.637-.85-.637-1.397 0-.855.651-2.096 2.591-4.594l.461.257c1.628 1.427 4.13 3.25 7.012 4.063 3.875 1.093 6.278.366 9.061-.477l2.896-.807c5.123-1.213 6.839-.814 7.985 1.861 1.225 2.861-.665 5.416-2.494 7.889l-.777 1.065c-.877 1.238-2.831 4.394-2.051 6.96.337 1.108 1.118 1.923 2.256 2.357 2.733 1.041 8.958.401 9.659.324l1.216-.132s-.314-1.851.41-3.297c.664-1.329 2.213-2.585 3.32-3.543s1.55-3.026 1.697-4.428c0 0 .813 1.181 1.107 1.845 0 0 1.107.147 2.141-.222 0 0 .147 1.476-1.402 4.133-1.55 2.656-1.919 4.207-2.066 5.903-.147 1.698.369 3.247 1.549 5.903 1.182 2.656 2.289 4.648 2.289 4.648s-.591 0-1.845-.737c-1.254-.738-2.275-1.815-3.941-2.826-2.058-1.247-4.823-1.065-9.266-.981-5.699.108-8.691-.065-10.231-.399-2.04-.444-2.389-.811-2.28-1.764.11-.954 1.219-.966 1.867-2.2.62-1.182.587-3.058-.744-5.888a4.8 4.8 0 0 0-.982-1.389l.479-.749c.606-1.236.693-2.818.629-4.09-.064-1.273-1.721-1.915-1.721-1.915.248 1.123.563 3.966-.321 5.504l-.433.344a4.4 4.4 0 0 0-1.009-.286c-1.64-.264-3.358.407-4.715 1.84-2.049 2.162-2.82 5.232-3.234 6.883l-.178.674c-.046.107-.316.433-.514.67-.854 1.026-2.284 2.745-2.382 5.848-.125 4.016-.255 8.167 1.934 10.501 1.577 1.683 4.902 4.479 7.11 4.818 1.322.204 2.404.082 3.446-.266 1.525-.512 2.136-1.118 2.873-.75.506.253.492 1.856.433 2.843zM96.623 111.67c-1.063-.112-2.007 1.063-1.299 2.951s1.653 2.479 2.598 1.182c.944-1.299.945-3.897-1.299-4.133m15.557 34.13c-2.922.07-6.716-.404-7.558-1.824-.558-.94-.243-1.83.064-2.617.773-1.982 2.917-3.848 2.917-3.848s-3.247.074-5.383-.6c-1.841-.673-2.661-1.613-2.89-2.865-.325-1.779.967-3.471.967-3.471s-2.877-.517-3.282-2.146c-.193-.785.193-1.616.632-2.299.805-1.237 1.986-1.975 1.986-1.975s-1.845-.59-3.011.856c-.73.905-1.299 2.242-1.063 3.66.473 2.834 2.715 2.834 2.715 2.834s-1.653 2.125.827 4.958 5.904 2.244 5.904 2.244-3.542 2.834-1.653 6.022c1.157 1.952 4.713 2.751 7.281 2.53 1.63-.14 1.547-1.459 1.547-1.459m82.227 77.813a176 176 0 0 0-15.149-4.287l-.124-.031c-.067-.949-.123-2.775.419-3.046.738-.368 1.348.238 2.873.75 1.043.348 2.124.47 3.446.266 2.208-.339 5.533-3.136 7.11-4.818 2.188-2.334 2.06-6.485 1.934-10.501-.099-3.103-1.527-4.821-2.382-5.848-.198-.237-.468-.563-.515-.67l-.177-.674c-.414-1.65-1.186-4.721-3.234-6.883-1.358-1.433-3.076-2.104-4.715-1.84a4.4 4.4 0 0 0-1.009.286l-.437-.344c-.881-1.538-.565-4.381-.317-5.504 0 0-1.658.642-1.722 1.915-.064 1.271.023 2.854.628 4.09l.479.749a4.8 4.8 0 0 0-.982 1.389c-1.33 2.83-1.361 4.706-.742 5.888.646 1.234 1.757 1.246 1.866 2.2.109.953-.24 1.319-2.279 1.764-1.54.334-4.533.508-10.231.399-4.441-.084-7.208-.266-9.265.981-1.668 1.011-2.688 2.088-3.942 2.826-1.255.737-1.845.737-1.845.737s1.107-1.992 2.287-4.648c1.181-2.656 1.697-4.205 1.55-5.903-.147-1.696-.518-3.247-2.065-5.903-1.55-2.657-1.402-4.133-1.402-4.133 1.032.369 2.141.222 2.141.222.294-.664 1.106-1.845 1.106-1.845.147 1.401.59 3.469 1.695 4.428 1.108.958 2.659 2.214 3.322 3.543.724 1.446.41 3.297.41 3.297l1.215.132c.7.077 6.925.717 9.66-.324 1.139-.435 1.917-1.249 2.254-2.357.781-2.566-1.173-5.722-2.048-6.96l-.779-1.065c-1.83-2.474-3.719-5.028-2.494-7.889 1.147-2.675 2.863-3.074 7.986-1.861l2.896.807c2.784.842 5.188 1.569 9.062.477 2.88-.813 5.384-2.637 7.011-4.063l.462-.257c1.94 2.498 2.591 3.739 2.591 4.594 0 .547-.268.938-.637 1.397-.489.614-.895 1.367-1.219 2.217l-.454.193c-2.259.653-6.267 1.162-9.863-1.713 0 0-.184 1.702.866 2.337 2.989 1.807 6.219 1.502 8.434 1.025l.485-.084c-.346 1.475-.508 3.104-.508 4.728 0 .889.048 1.774.144 2.63l-.571.134c-2.461.183-5.963.278-8.728-.301 0 0 .044 1.563 1.729 1.757 2.354.268 4.885.173 6.84.036l.959-.065q.082.454.186.885c.656 2.769 1.495 5.777 2.046 7.688a40 40 0 0 0-4.926.307s.57 1.341 2.487 1.248c2.611-.127 4.426-.02 4.426-.02s-1.535-5.078-2.597-9.564-.474-10.153 1.416-12.515c1.891-2.361 1.062-4.132-2.951-9.091-4.015-4.959-7.91-9.564-7.91-9.564s-1.181 1.889-3.897 2.008c-1.718.074-3.718-1.126-4.958-2.019 0 0 .269 2.1 1.69 2.716 1.054.482 2.215.825 3.332.777a6.7 6.7 0 0 0 3.73-1.31c.537.639 1.258 1.501 2.098 2.511l.175.283a19.8 19.8 0 0 1-6.152 3.106s.973 1.299 2.634.615a20 20 0 0 0 4.028-2.256l.515-.3a561 561 0 0 1 3.568 4.361l-.381.373c-1.502 1.345-3.836 3.079-6.5 3.775-1.24.325-1.992.398-1.992.398-1.703-1.739-5.866-6.049-9.64-10.45-1.002-1.17-1.753-2.218-2.481-3.232-1.472-2.055-2.862-3.994-5.81-6.1-3.044-2.175-9.675-4.308-12.043-4.168-1.915.091-2.437.278-3.321.5-.886.221-1.846.147-1.993-.886s1.255-2.213 2.087-3.564c.646-1.161 1.451-2.874 1.16-4.48-.379-2.083-.633-3.067.958-4.058.904-.563 1.796-1.054 1.892-2.113.196-2.112-1.227-3.274-2.26-4.381-1.034-1.106-.222-1.254 1.182-.516 1.401.738 2.213 1.918 3.479 4.052.715 1.204 1.147 2.598 1.47 4.529.659 3.96 2.639 7.385 5.175 8.928 3.185 1.938 7.144.644 7.144.644-.517-2.14-.958-5.166-.428-8.543.258-1.64 2.134-3.263 4.19-4.964 3.392-2.808 4.06-6.269 4.06-6.269-2.215-.295-3.616.59-5.206 1.952-1.943 1.666-1.952 2.033-2.026-.034-.103-1.296-.156-3.64-.211-4.324 3.014-1.243 5.631-2.97 5.752-3.053l2.799-1.995s-6.42-.664-9.667-2.077c-3.214-1.399-3.838-3.162-4.502-5.302-.662-2.14.074-2.214.887-1.476.811.738 1.401 1.845 3.296 2.505 1.582.55 3.432.464 5.252-.244 3.403-1.323 5.761-2.617 7.198-3.954 1.381-1.282 2.97-1.916 4.363-1.742 1.752.219 4.939 1.126 4.972 1.135l.949.271.612-.771a65 65 0 0 1 3.902-4.452c-.041.49-.061 2.213-.037 2.569.251 3.763.531 5.602 2.323 8.674l.639 1.068c.987 1.628 1.449 2.507 1.449 3.153 0 .343-.13.62-.385.907-1.019 1.155-2.189 2.12-3.221 2.971-1.944 1.637-3.053 2.448-2.756 4.367.294 1.918 2.499 3.241 2.499 3.241-1.918 1.93-4.686 5.03-6.706 9.488-.885 1.956.266 3.058.266 3.058a34.5 34.5 0 0 1 7.307-11.313l1.054-.984c2.082-.267 4.537-1.756 6.107-2.857l.674-.465c2.773-1.899 7.937-5.434 13.368-12.861 3.089-4.225 6.044-8.667 7.816-11.391.503 1.879 1.029 4.522 1.029 7.476q0 .81-.057 1.644c-.494 7.148-3.211 14.155-7.452 19.226-4.15 4.96-11.468 10.678-19.788 13.998-1.985.792-5.764 3.361-5.764 3.361 2.937-.675 5.764-1.672 8.428-2.878l.538.408c2.458 2.068 4.229 4.826 5.389 7.069l.345.639c-1.417-.385-3.174-.506-4.991.247a11.2 11.2 0 0 0-4.848 3.823c-1.088-.229-2.867-.55-4.679-.628l-2.303-.1.873 2.134c.05.121 1.254 3.001 4.377 5.344 2.684 2.012 4.339 3.521 7.644 7.651 4.22 5.276 7.645 7.989 10.182 8.11 1.828.086 2.453-.161 3.78-2.006 1.329-1.846 1.625-6.789 3.616-11.291 1.993-4.501 3.838-6.568 6.862-7.231 3.025-.665 5.167.885 5.167.885 1.106-1.992.663-5.091.663-5.091 3.985 1.254 6.199 2.73 7.896 5.682s1.549 7.158 1.549 7.158-1.697-1.476-4.205-1.624c-2.509-.147-4.797.517-7.232 2.214 0 0 1.697-3.025 1.107-5.166-.592-2.14-2.362-3.025-4.132-2.952-1.772.074-4.061 1.993-5.757 5.313-1.697 3.32-2.289 5.534-3.248 9.961-.958 4.428-1.938 5.802-6.687 7.919-4.896 2.183-7.185 1.904-8.976 1.791l-.169-.01c-4.091-.257-5.612 3.613-6.482 7.01-1.276 4.996-1.532 8.719 1.136 11.834l.87.977c.545.601 1.454 1.604 1.437 1.922 0 .003-.093.327-1.024.912l-4.641 2.831c-2.935 1.762-5.054 3.033-6.128 4.106-1.679 1.678-1.833 3.757-1.846 7.603zm-3.327-107.811c.943 1.298 1.888.708 2.596-1.182.71-1.888-.235-3.063-1.298-2.951-2.244.237-2.244 2.835-1.298 4.133m-12.714 31.458c2.568.221 6.125-.578 7.282-2.53 1.889-3.188-1.654-6.022-1.654-6.022s3.426.59 5.906-2.244.825-4.958.825-4.958 2.242 0 2.715-2.834c.235-1.417-.333-2.754-1.062-3.66-1.167-1.447-3.012-.856-3.012-.856s1.181.738 1.985 1.975c.44.683.826 1.514.632 2.299-.403 1.629-3.281 2.146-3.281 2.146s1.292 1.691.967 3.471c-.229 1.252-1.048 2.192-2.89 2.865-2.136.674-5.382.6-5.382.6s2.143 1.865 2.916 3.848c.308.787.621 1.676.064 2.617-.842 1.42-4.636 1.895-7.558 1.824.002-.001-.083 1.318 1.547 1.459"/><path fill="#B48321" d="M113.029 112.017c-.264-12.694 2.616-20.625 2.616-20.625s4.253 2.656 14.883 2.509c10.631-.148 13.972-3.247 13.972-3.247h.001s3.341 3.099 13.972 3.247 14.883-2.509 14.883-2.509 2.143 5.898 2.563 15.662l.016.146-4.253 2.337-.239.132a6.4 6.4 0 0 1 1.455 1.174c1.653 1.771 4.133 1.889 6.258 1.063 1.497-.582 3.403-1.398 4.978-2.366l-.016-.853q0-.666-.017-1.323c-.321-14.209-2.452-20.597-3.482-22.883-2.6 1.14-8.875 3.301-18.675 3.073-10.21-.238-15.523-2.449-17.441-3.461-1.918 1.013-7.232 3.224-17.442 3.461-9.801.228-16.074-1.933-18.676-3.073-1.03 2.286-3.161 8.673-3.482 22.883-.01.438.008 2.2.008 2.2 1.567.958 3.454 1.765 4.938 2.342 1.021.397 2.125.576 3.178.459zm1.025 11.296a85 85 0 0 1-.456-3.255l-.014-.358c-2.764 1.03-5.39.944-5.39.944s2.828 1.885 5.919 3.09zm9.584 28.762c9.192 17.953 20.862 28.017 20.862 28.017s11.689-10.082 20.889-28.064l.184-.322c1.592.634 3.101 1.375 4.137 2.114q.387.276.737.548l-.083.105a117 117 0 0 1-5.119 8.101c-8.684 12.568-17.881 20.934-20.744 23.405-2.863-2.472-12.059-10.837-20.743-23.405a117 117 0 0 1-5.072-8.019l-.099-.21q.336-.261.706-.525c1.053-.752 2.594-1.503 4.216-2.144zm.814-16.58-6.381 3.506-.1-.21a98 98 0 0 1-2.63-9.027 86 86 0 0 1-.71-3.241l-.123-.599c-.062.74-.128 1.595-.175 2.394-.118 2.006-.236 4.25-1.063 4.25s-2.361-1.18-3.424-2.243a8.1 8.1 0 0 0-2.077-1.512l.159.469c.321.636 1.082 1.823 2.744 3.169 2.479 2.008 4.42 3.787 4.722 5.904.59 4.132-.59 7.911-.59 7.911s2.951.235 5.077-1.063 3.896-4.369 4.487-7.911c.12-.718.254-1.378.415-1.994z"/><path fill="#B48321" d="M134.142 141.937c-.445-1.28-.461-2.37.027-3.347.708-1.416-.473-3.07-2.008-3.778-1.342-.62-1.239-2.234-.717-3.182l.44-.219 36.671-20.156.208-.174c0 2.833 2.125 6.375 5.313 8.028q.433.224.874.407l-.311.205-15.241 8.375-.302.176c-2.053-1.374-3.518-1.293-3.912-.308-.265.664.216 1.365.813 1.999l-.304.17-21.187 11.646zm40.807-18.634q.258-1.617.445-3.171l.064-.417c2.749 1.014 5.35.928 5.35.928s-2.818 1.877-5.901 3.083zm-6.08 21.19a98 98 0 0 0 4.791-14.729q.379-1.591.689-3.137l.134-.81c.065.763.136 1.663.185 2.501.117 2.006.236 4.25 1.063 4.25s2.361-1.18 3.424-2.243a8.1 8.1 0 0 1 2.034-1.491l-.12.454c-.321.637-1.082 1.821-2.739 3.163-2.48 2.008-4.422 3.787-4.725 5.904-.59 4.132.59 7.911.59 7.911s-2.949.235-5.076-1.063a6 6 0 0 1-.431-.291z"/></svg>