<svg xmlns="http://www.w3.org/2000/svg" viewBox="0 0 511.44 604.5"><path d="M72.16 22.63a176.2 176.2 0 0 0-60.93 27.93A27.39 27.39 0 0 0 0 72.58V506.5c0 22.2 21 27.91 21.24 28h-.11l228.16 69h-.13a17.4 17.4 0 0 0 11.91-.1l-.18.06 229.42-68.87c.1 0 21.13-5.73 21.13-27.93V72.58a27.36 27.36 0 0 0-11.2-22A175.9 175.9 0 0 0 439.3 22.7a754.7 754.7 0 0 0-367.14-.07"/><path d="M251.14 597.76h-.07l-228.23-69c-.79-.21-16.92-4.71-16.92-22.26V72.58a21.45 21.45 0 0 1 8.78-17.23 170.4 170.4 0 0 1 58.88-27 748.9 748.9 0 0 1 364.29.06 169.9 169.9 0 0 1 58.88 26.93 21.41 21.41 0 0 1 8.75 17.2V506.5c0 17.55-16.13 22-16.81 22.23l-229.6 68.93H259a11.48 11.48 0 0 1-7.86.1" style="fill:#fff"/><path d="M428.73 436c8.13-21.41 16.13-45.3 18.47-52.38l-2.57-1.37a241.46 241.46 0 0 1-97.37 74.65l-1.32.55 6.2 16.27a258.78 258.78 0 0 1-195 0l6.2-16.27-1.33-.55a241.4 241.4 0 0 1-97.41-74.7l-2.6 1.37c2.35 7.09 10.36 31 18.47 52.38L21.34 412.1l3.46 4.38a294.6 294.6 0 0 0 75.28 67.28l-8.91 13.81 1.28.8a309.51 309.51 0 0 0 324.32 0l1.29-.8-8.91-13.81a294.9 294.9 0 0 0 75.28-67.28l3.46-4.38Z" style="fill:#1d1d1b"/><path d="M254.61 541.29a305.6 305.6 0 0 1-159.3-44.67l7.29-11.31 1.61-2.51 13.41-20.8 2.37-3.68.07.05q10.38 6.25 21.25 11.49l3.19 1.5c.66.31 1.31.63 2 .93 2.24 1 4.48 2 6.74 2.95h.09l2.64 1.1h.1a261.5 261.5 0 0 0 197.15 0h.09l2.64-1.1h.09q3.32-1.39 6.6-2.89c1.81-.82 3.62-1.67 5.41-2.54q10.82-5.22 21.14-11.44l.07-.05 2.38 3.68c3.1 4.81 8.61 13.37 13.4 20.79l1.62 2.51 7.29 11.31a305.64 305.64 0 0 1-159.34 44.68" style="fill:#fff"/><path d="M154.27 472.5a254 254 0 0 1-25.58-12.5l27.89 6.49c-.51 1.31-1.48 3.86-2.31 6.01M355 472.5l-2.32-6 27.85-6.5A255 255 0 0 1 355 472.5" style="fill:#fff"/><path d="m30.75 419.09 54.94 22.14-1.23-3.18c-6.53-17-13.17-36.21-17-47.58A244.3 244.3 0 0 0 159.51 459c-.18.45-.83 2.17-1.79 4.69L120.08 455l-1-.63-.21.34h-.07l-.53.94-16.55 25.67a292 292 0 0 1-70.97-62.23M407.53 481.25 391 455.57l-.52-.93h-.06l-.22-.34-1 .63-37.63 8.75c-1-2.52-1.62-4.24-1.79-4.7a244.35 244.35 0 0 0 92-68.53c-3.83 11.36-10.46 30.58-17 47.58l-1.23 3.18 54.94-22.14a292 292 0 0 1-70.96 62.18" style="fill:#fff"/><path d="m119.54 502.34 25.36-21.72 12.84 5.38 2.26 33.31-12.58-5.31v-4.26l-12.58-5.28-3 3Zm28.19-10.78-8 8.22 8 3.34ZM161.3 519.74l21.7-25.33 13.51 3.37 7.31 32.58-13.23-3.3-.62-4.22-13.24-3.3-2.43 3.46Zm26.21-14.95-6.7 9.35 8.39 2.09ZM222.69 521.75l-.95 10.36-13.64-1.27 2.75-29.71 19.64 1.87c13.87 1.28 18.18 4.38 17.65 10.16-.32 3.43-2.72 6.12-7.66 6.62 4.28 1.56 6.87 2.55 6.32 8.53-.36 3.88-.66 5.19 1 5.34l-.08.9-13.81-1.27a14 14 0 0 1-.21-5.27c.35-3.87-.45-5.24-6.81-5.83Zm.61-6.52 5.37.49c4.22.39 6.54-.14 6.73-2.2s-2-3.32-5.2-3.61l-6.36-.59ZM255 534.55l-2-29.77 13.66-.92.68 10 12.91-.88-.68-10 13.67-.93 2 29.78-13.67.92-.78-11.54-12.91.87.78 11.54ZM296.6 501.56l13.33-3.13 4.08 17.4c.67 2.86 2 5.14 7.52 3.85 4.8-1.12 5.7-3.63 5-6.78l-4.08-17.39 13.33-3.13 3.85 16.42c2.19 9.32-2.9 14.82-16.4 18-12.6 3-20.41 1.17-22.76-8.83ZM362.51 491a2.87 2.87 0 0 0-2.59-1.14 10.2 10.2 0 0 0-3.49.82c-2.79 1.13-3.8 2.2-3.4 3.2 1.68 4.15 22.92-7.4 27 2.68 2.58 6.42-3.64 12.54-14.3 16.83-10.23 4.12-18.62 2.54-20.9-2.34l12.16-4.9a3.65 3.65 0 0 0 3 1.34 9.9 9.9 0 0 0 3.89-.76c3.17-1.28 5-2.85 4.45-4.16-1.68-4.19-22.81 7.67-27.07-2.91-2.36-5.88 3.55-11.7 13.24-15.6 10.76-4.34 17.24-2.39 20.11 2.09Z" style="fill:#e63020"/><path d="m132.78 207.36-.39.34v171.72c0 32 12.62 61.3 35.53 82.51 22.46 20.8 52.88 32.26 85.66 32.26 33.48 0 63.9-11 85.65-30.88 23.24-21.28 35.53-51.24 35.53-86.63v-168.8l-.4-.34c-25.74-22.2-72-36-120.77-36-49.99.01-95.15 13.4-120.81 35.82" style="fill:#1d1d1b"/><path d="M372.48 209c-25.42-21.67-70.9-35.12-118.89-35.12-48.47 0-94 13.38-118.92 34.93v170.61a112.1 112.1 0 0 0 7.82 41.58h21.15v11.91h17.82V421h22.75v11.91H222V421h22.75v11.91h17.85V421h22.75v11.91h17.82V421h22.75v11.91h17.82V421h21.19a126.6 126.6 0 0 0 7.55-44.3Z" style="fill:#0070b3"/><path d="M335.43 446H156.54h195Z" style="fill:#1d1d1b"/><path d="m323.5 462.9-.2-.09c-2.88-1.15-6.14-2.46-9.63-2.46s-6.79 1.3-9.77 2.49a27.8 27.8 0 0 1-10.21 1.89 27.5 27.5 0 0 1-10.07-1.84 27.3 27.3 0 0 0-19.57-.09 28.1 28.1 0 0 1-20.24.09 27.1 27.1 0 0 0-19.6-.05 27.8 27.8 0 0 1-10.21 1.89 27.5 27.5 0 0 1-10.06-1.84h-.11c-2.91-1.17-6.2-2.5-9.75-2.5s-6.77 1.29-9.71 2.45a27.6 27.6 0 0 1-10.18 1.93H174l2.83 2.28a26 26 0 0 0 7.23-1.75c3-1.17 6.32-2.49 10-2.49s7.16 1.38 10.26 2.63a27.6 27.6 0 0 0 19.53-.07 28 28 0 0 1 20.34.07 27.23 27.23 0 0 0 19.52-.12 28.2 28.2 0 0 1 20.3.12 27.57 27.57 0 0 0 19.57-.09c3-1.19 6.36-2.54 10.08-2.54s7.11 1.37 10.09 2.58h.13a26.7 26.7 0 0 0 8.5 1.72l2.95-2.49-1.78.1a27.6 27.6 0 0 1-10.05-1.82M273.76 486a26.9 26.9 0 0 0-9.71 1.77 28.18 28.18 0 0 1-20.24.1 27 27 0 0 0-19.6-.06c-.73.29-1.53.47-2.3.7 4.52.89 16.67 3.16 22.32 3.16.16 0 16.32 2.33 41.34-3.14-.66-.2-1.32-.41-1.95-.66a26.5 26.5 0 0 0-9.86-1.87M333.56 452.25a27.7 27.7 0 0 1-10.06-1.84l-.2-.08c-2.88-1.16-6.14-2.47-9.63-2.47s-6.79 1.3-9.77 2.49a28.43 28.43 0 0 1-20.28.06 26.5 26.5 0 0 0-9.86-1.86 26.8 26.8 0 0 0-9.71 1.76 27.4 27.4 0 0 1-10.18 1.94 27.7 27.7 0 0 1-10.06-1.84 27.16 27.16 0 0 0-19.6-.06 28.43 28.43 0 0 1-20.28.06l-.11-.05c-2.91-1.17-6.2-2.5-9.75-2.5s-6.77 1.29-9.71 2.45a27.4 27.4 0 0 1-10.18 1.94 27.7 27.7 0 0 1-10.06-1.84l-1-.43a15.8 15.8 0 0 0-3.38-1.1l2.35 2.86a4.4 4.4 0 0 1 1.47.65l1 .53a24.9 24.9 0 0 0 9.67 1.74 26.7 26.7 0 0 0 9.9-1.88c3-1.17 6.32-2.5 10-2.5s7.17 1.39 10.26 2.64a27.68 27.68 0 0 0 19.53-.08 28 28 0 0 1 20.34.08 27.37 27.37 0 0 0 19.52-.12 28.2 28.2 0 0 1 20.3.12 27.65 27.65 0 0 0 19.57-.1c3-1.19 6.36-2.54 10.08-2.54s7.12 1.38 10.11 2.6h.11a27.37 27.37 0 0 0 19.52-.12 18 18 0 0 1 4.15-1.25l2.82-2.77a25.4 25.4 0 0 0-6.64 1.53 27.4 27.4 0 0 1-10.24 1.98M313.67 472.83c-3.51 0-6.8 1.31-9.77 2.49a28.43 28.43 0 0 1-20.28.06 26.6 26.6 0 0 0-9.86-1.86 26.9 26.9 0 0 0-9.71 1.76 27.3 27.3 0 0 1-10.18 1.94 27.6 27.6 0 0 1-10.06-1.84 27.16 27.16 0 0 0-19.6-.06 28.43 28.43 0 0 1-20.28.06 33.4 33.4 0 0 0-9.89-2.55 14.3 14.3 0 0 0-5.65.94l2.21 1.41a10.5 10.5 0 0 1 2.66-.18h1.13c3.16 0 6 1.2 8.46 2.25l1.48.62a27.53 27.53 0 0 0 19.53-.08 28 28 0 0 1 20.34.08 27.23 27.23 0 0 0 19.52-.12 28.2 28.2 0 0 1 20.3.12 27.56 27.56 0 0 0 19.59-.1c3-1.19 6.35-2.54 10.06-2.54a18.8 18.8 0 0 1 5.33.86l2.51-1.51a22.2 22.2 0 0 0-7.84-1.75" style="fill:#0070b3"/><path d="M436.93 121.37c-16-9-31.33-19.4-48.49-25.56-7.65 6.72-16.05 15.11-22.94 22.2 9.69 9.7 21.26 17.53 30.21 28.16-4.66 1.49-10.26.94-15.11 1.31-16.78 1.68-32.6 10.26-41.78 25.52.93.56 2.24-.93 3.36-1.31 13.61-8.95 26.67 3.55 39.91 5.79l2.8-.56 37.87-24.06c7.45-6 17.71-10.45 21.63-19.77.37-4.82-3.17-9.3-7.46-11.72M472.37 99.17c-6.34 2.8-15.48 6.15-22 1.31-2.61-1.5-4.66-4.11-7.65-4.48l-21.07 9.88A57.4 57.4 0 0 0 453 121.37l10.45-4.48c7.5-3.41 9.13-10.63 9.69-17.53Z" style="fill:#e63020"/><path d="M339.2 94.13v-.74c5.41-3.73 10.81-6.72 17.15-7.83 26.86-1.87 48.87 17.71 75.36 10.06 10.63-6.34 22-15.29 29.09-26.1v-1.31c-19.49 1.79-38.6-.56-54.8-8.39-29.1-8-51.48 13.05-69.76 32.82-3.24-1.64-7.3-1.64-9.54-4.47 7.09-11.76 20.3-18.47 31.15-26.49l-14.18-14.55c-1.86 3.36-5.22 5.6-8 8.4-5.78 2.79-13.24 3.54-18.84-.75-4.29-4.29-.55-10.26-1.11-15.48h-2.24l-72.2 37.3c-.19 26.49 0 54.65.18 81.32a69 69 0 0 0 6.9-2.24c12.07-5 26.66-10.06 38-15.84.37-5.41.38-9.71.38-14.93l.19-2.64c7.65 3 17 3.38 22.38 11.78 4.11 4.66 5.23 11.94 3.36 17.72-5.78 13.61-20.7 17.72-34.32 18.27-17.9.38-37.3-1.49-47.93-17.71-5.82-8.69-7.68-17.76-8.77-32.08-1.38-18.07 6.34-33.76 17.16-47.56 12.43-12.87 21.87-15.46 24.62-17-1.86-1.12-4.29-.74-6.34-1.12-31.15-.37-63.23 9.14-78 39.17h-.56l-31.07-39.33c-.17.41-13.12 11-13.62 11-8-9.7-16.34-15-31-14.17-12.21 1-27.39 5.62-34.13 18.83 3.79-1.37 6.9-2.78 10.26-2.6 12.86-2.23 18.46 11.93 25.18 19.76l.37 1.87-46.4 64.16c-5 6.53-9.51 15.48-17.16 19.58 9.7-1.86 21.82-3.91 30.4 2.24 3.54 1.49 6.34 5.41 9.7 6.9 8.21-14 22.76-20.89 34.13-32.26a34.9 34.9 0 0 0-4.48-7.09c-2.83 1.93-6.72 5.08-8.76 6.15L90.57 140c.38-2.24 2.43-3.73 3.55-5.78l45.32-.19 1.49.74 22.57 29.47-1.31 17.91.56.74 20.33-14 14.08 11.13c13.24 8.2 21.5 12.17 37.11 14.42 13.16 1.89 31.29 0 31.29 0 58.47-4.44 91-47 90.69-68.49-.19-14.1-5.68-24.54-17.05-31.82m-212.07 25.56c-6.9.18-22.2 0-22.2 0 4.8-7.14 11.19-16 11.19-16l1.12.37 11 15.11Zm191.55-38.24c-10.63 8.21-20.71 17.72-31.33 24.81 0-11.29.37-20.7.37-30.4 3.36 1.68 6.53 6.15 10.07 7.64a64 64 0 0 0 21.64-3.36ZM202.68 422.5H183v10.07h19.69Z" style="fill:#e63020"/><ellipse cx="233.4" cy="427.53" rx="12.18" ry="8.55" style="fill:#e63020"/><ellipse cx="273.97" cy="427.53" rx="12.18" ry="8.55" style="fill:#e63020"/><ellipse cx="314.54" cy="427.53" rx="12.18" ry="8.55" style="fill:#e63020"/><path d="M162.11 422.5h-19a107 107 0 0 0 4.81 10.07h14.19ZM345.27 432.57h14.58a109 109 0 0 0 4.5-10.07h-19.08ZM164.31 440.91a26 26 0 0 0 7.32 1.65v-8.14h-22.69c.9 1.57 1.83 3.13 2.81 4.66.79-.07 1.58-.11 2.38-.11a27.4 27.4 0 0 1 10.18 1.94M173.48 434.42v7.86h.54a26.6 26.6 0 0 0 9.84-1.88c3-1.17 6.35-2.5 10-2.5s7.28 1.41 10.35 2.65a25.9 25.9 0 0 0 8 1.66v-7.81h-38.73ZM214.07 434.42v7.88a26.5 26.5 0 0 0 9.54-1.8 28.33 28.33 0 0 1 20.53.07 26.1 26.1 0 0 0 8.51 1.69v-7.84zM273.61 438.61a27.9 27.9 0 0 1 10.34 2 26.3 26.3 0 0 0 9.41 1.73v-7.88H254.5v7.86a26.2 26.2 0 0 0 9-1.83 27.9 27.9 0 0 1 10.11-1.88M313.51 437.92c3.78 0 7.18 1.38 10.19 2.6l.13.05a26.5 26.5 0 0 0 9.57 1.73h.6v-7.87h-38.78v7.83a26.3 26.3 0 0 0 8.12-1.77c3-1.21 6.4-2.57 10.17-2.57M335.8 434.42v7.77a25.5 25.5 0 0 0 7.36-1.74 27.9 27.9 0 0 1 10.14-1.84 27 27 0 0 1 3.08.19c.86-1.44 1.7-2.9 2.49-4.38z" style="fill:#e63020"/><path d="m323.41 463.13-.22-.09c-2.85-1.14-6.08-2.44-9.52-2.44s-6.76 1.31-9.68 2.47a28.78 28.78 0 0 1-20.46.06 27 27 0 0 0-19.38-.1 27.7 27.7 0 0 1-10.28 2 28 28 0 0 1-10.16-1.85 26.8 26.8 0 0 0-19.41-.06 28.78 28.78 0 0 1-20.46.06l-.11-.05c-2.89-1.16-6.16-2.48-9.66-2.48s-6.73 1.29-9.62 2.43a27.6 27.6 0 0 1-9.58 1.91c.74.61 1.49 1.2 2.24 1.78A25.9 25.9 0 0 0 184 465c3-1.18 6.36-2.51 10.08-2.51s7.27 1.41 10.35 2.65a27.33 27.33 0 0 0 19.35-.08 28.24 28.24 0 0 1 20.52.08 27 27 0 0 0 19.34-.12 28.4 28.4 0 0 1 20.48.12 27.37 27.37 0 0 0 19.39-.09c3-1.2 6.4-2.56 10.17-2.56s7.18 1.38 10.19 2.6l.12.05a26 26 0 0 0 7.61 1.63c.76-.6 1.52-1.22 2.27-1.84h-.3a27.9 27.9 0 0 1-10.16-1.8M283.53 488.1a26.3 26.3 0 0 0-9.77-1.85 26.5 26.5 0 0 0-9.61 1.75 27.7 27.7 0 0 1-10.28 2 28 28 0 0 1-10.16-1.85 26.8 26.8 0 0 0-19.41-.15l-1.18.37 2 .46c5.66 1.05 14.5 2.55 19.12 2.55.06 0 1.91.27 5.31.41 1.33 0 2.67.07 4 .07 2 0 4.08 0 6.1-.13a155.4 155.4 0 0 0 24.94-3.31ZM333.56 452.5a28 28 0 0 1-10.15-1.86l-.22-.09c-2.85-1.14-6.08-2.44-9.52-2.44s-6.76 1.31-9.68 2.47a28.63 28.63 0 0 1-20.46.06 27.13 27.13 0 0 0-19.38-.1 28.3 28.3 0 0 1-20.44.1 26.92 26.92 0 0 0-19.41-.06 28.63 28.63 0 0 1-20.46.06h-.11c-2.89-1.17-6.16-2.49-9.66-2.49s-6.73 1.29-9.62 2.43a27.7 27.7 0 0 1-10.27 2 28 28 0 0 1-10.18-1.94l-1-.43a18 18 0 0 0-2.6-.89l1.82 2.21a4.6 4.6 0 0 1 1.44.64l1 .52a24.6 24.6 0 0 0 9.57 1.72 26.4 26.4 0 0 0 9.81-1.87c3-1.17 6.36-2.51 10.08-2.51s7.28 1.41 10.35 2.66a27.48 27.48 0 0 0 19.35-.08 28.24 28.24 0 0 1 20.52.08 27.16 27.16 0 0 0 19.34-.12 28.4 28.4 0 0 1 20.48.12 27.44 27.44 0 0 0 19.39-.1c3-1.2 6.4-2.56 10.17-2.56s7.2 1.39 10.21 2.61l.11.06a27.16 27.16 0 0 0 19.34-.12 18.4 18.4 0 0 1 4.12-1.25l.32-.31 1.44-1.79a23.8 23.8 0 0 0-5.36 1.32 27.8 27.8 0 0 1-10.34 1.95M304 475.55a28.63 28.63 0 0 1-20.46.06 27.13 27.13 0 0 0-19.38-.1 27.7 27.7 0 0 1-10.28 2 28 28 0 0 1-10.16-1.86 26.92 26.92 0 0 0-19.41-.06 28.63 28.63 0 0 1-20.46.06 33.5 33.5 0 0 0-9.82-2.53 13.4 13.4 0 0 0-5.05.76c.54.35 1.58 1 1.69 1.08a11.4 11.4 0 0 1 2.61-.17h1.12c3.22 0 6.06 1.21 8.56 2.27l1.47.62a27.33 27.33 0 0 0 19.35-.08 28.24 28.24 0 0 1 20.52.08 26.6 26.6 0 0 0 9.58 1.73 26.2 26.2 0 0 0 9.76-1.86 28.48 28.48 0 0 1 20.48.13 26.5 26.5 0 0 0 9.58 1.73 26.8 26.8 0 0 0 9.83-1.83c3-1.2 6.39-2.56 10.15-2.56a18.3 18.3 0 0 1 4.64.68c.7-.4 1.4-.8 2.09-1.22a20.1 20.1 0 0 0-6.73-1.38c-3.48-.02-6.78 1.29-9.68 2.45" style="fill:#0070b3"/><path d="M304.17 479.18a29.06 29.06 0 0 1-20.72.1 26.7 26.7 0 0 0-19.17-.12 28.7 28.7 0 0 1-20.64.12 26.56 26.56 0 0 0-19.22-.08 29.05 29.05 0 0 1-20.64.09l.12-.05a12 12 0 0 1-1.63-.59c-2.36-1-5-2.13-7.91-2.13H192a122 122 0 0 0 28.65 11.31l.86-.23v-.51l.67-.19 1.49-.47a28.6 28.6 0 0 1 20.71.06 26.2 26.2 0 0 0 9.51 1.73 25.9 25.9 0 0 0 9.63-1.83 28.78 28.78 0 0 1 20.67.1l1.83.62v.44c.44.14.9.26 1.35.37A122.6 122.6 0 0 0 316 477a14 14 0 0 0-2.33-.21c-3.43-.04-6.67 1.21-9.5 2.39M323.2 466.74c-2.86-1.16-6.1-2.47-9.53-2.47s-6.67 1.29-9.52 2.43a29.07 29.07 0 0 1-20.7.09 26.63 26.63 0 0 0-19.17-.11 28.77 28.77 0 0 1-20.64.11 26.5 26.5 0 0 0-19.22-.07 29.1 29.1 0 0 1-20.66.07c-3.07-1.24-6.24-2.52-9.69-2.52s-6.6 1.27-9.43 2.39a27.6 27.6 0 0 1-5.58 1.54q3.75 2.78 7.73 5.24v-.3l.1-.19.13-.06c.1 0 .38-.17.81-.34v-.18a15.5 15.5 0 0 1 6.27-1 34.5 34.5 0 0 1 10.38 2.63 26.2 26.2 0 0 0 9.51 1.73 25.9 25.9 0 0 0 9.66-1.8A28.4 28.4 0 0 1 234 472a28 28 0 0 1 10.38 2 26.62 26.62 0 0 0 19.14-.1 28.8 28.8 0 0 1 20.68.1 27 27 0 0 0 19.16-.06c3.06-1.22 6.53-2.6 10.33-2.6a23.7 23.7 0 0 1 8.38 1.87v.19h.05q3.84-2.39 7.44-5.07a26.8 26.8 0 0 1-6.23-1.54ZM333.56 456.16a28.2 28.2 0 0 1-10.23-1.85h-.11c-2.87-1.17-6.11-2.49-9.55-2.49s-6.67 1.29-9.52 2.43a29.15 29.15 0 0 1-20.7.1 26.7 26.7 0 0 0-19.17-.12 28.84 28.84 0 0 1-20.64.12 26.56 26.56 0 0 0-19.22-.08 29.18 29.18 0 0 1-20.66.08c-3.06-1.24-6.23-2.53-9.69-2.53s-6.6 1.27-9.43 2.39a28.2 28.2 0 0 1-10.46 2 26.3 26.3 0 0 1-10.18-1.9h-.07l-.76-.4q3 3.3 6.35 6.38a105 105 0 0 0 3.52 3.12h1l.06-.17h.11a25.9 25.9 0 0 0 9.63-1.83c3-1.2 6.47-2.55 10.26-2.55s7.28 1.39 10.32 2.61h.09a27 27 0 0 0 19.17-.06 28.6 28.6 0 0 1 20.71.06 26.62 26.62 0 0 0 19.14-.1 28.8 28.8 0 0 1 20.68.1 27 27 0 0 0 19.16-.06c3.07-1.21 6.54-2.59 10.33-2.59s7.18 1.36 10.19 2.57l.19.08a26 26 0 0 0 9.43 1.73l1.78-.1.07.17h.52c.62-.54 1.23-1.08 1.84-1.64a101 101 0 0 0 7.87-8c-.49.17-1 .36-1.59.6a28.2 28.2 0 0 1-10.44 1.93M343.74 441.91a27.8 27.8 0 0 1-10.34 2 28.3 28.3 0 0 1-10.16-1.91l-.13-.06c-2.88-1.16-6.13-2.48-9.6-2.48s-6.74 1.3-9.62 2.46a28.94 28.94 0 0 1-20.52.08 26.2 26.2 0 0 0-9.76-1.86 26.5 26.5 0 0 0-9.56 1.73 27.8 27.8 0 0 1-10.34 2 28.3 28.3 0 0 1-10.16-1.87 26.66 26.66 0 0 0-19.36-.08 28.87 28.87 0 0 1-20.6 0c-2.9-1.17-6.19-2.5-9.68-2.5s-6.67 1.28-9.55 2.41a27.8 27.8 0 0 1-10.34 2 28.3 28.3 0 0 1-10.16-1.83 26 26 0 0 0-9.72-1.86l-1.61.1q2.59 3.95 5.55 7.69l.33-.61h.29c.43.05.82.11 1.18.17l.09-.15a16.6 16.6 0 0 1 3.68 1.18l1 .42a26.55 26.55 0 0 0 19.14-.09c3-1.2 6.47-2.56 10.26-2.56s7.28 1.39 10.32 2.61h.09a26.84 26.84 0 0 0 19.17-.06 28.74 28.74 0 0 1 20.71.06 26.55 26.55 0 0 0 19.14-.09 28.88 28.88 0 0 1 20.68.09 26.8 26.8 0 0 0 19.16-.06c3.07-1.21 6.54-2.59 10.33-2.59s7.18 1.37 10.19 2.58l.19.07a26.55 26.55 0 0 0 19.14-.09 26.8 26.8 0 0 1 7-1.64l.06.13h.32c1.71-2.28 3.33-4.64 4.84-7.06l-2.14-.14a26.5 26.5 0 0 0-9.51 1.81" style="fill:#d4d8da"/><path d="M142.86 422.5a95 95 0 0 0 4.79 10.07h.27a107 107 0 0 1-4.81-10.07ZM360.06 432.57a89 89 0 0 0 4.5-10.07h-.21a109 109 0 0 1-4.5 10.07ZM148.67 434.42c.58 1 1.56 2.71 2.81 4.68h.27c-1-1.53-1.91-3.09-2.81-4.66ZM356.6 438.82c1.09-1.84 2-3.42 2.49-4.4h-.22c-.79 1.48-1.63 2.94-2.49 4.38ZM332.31 466.86l2.3-1.94h-.75c-.75.62-1.51 1.24-2.27 1.84ZM174.7 465l2.22 1.8h.19c-.75-.58-1.5-1.17-2.24-1.78ZM223 488.46l2.14.41-2-.46ZM249.57 491.84c2.54.11 6 .14 10.11-.06-2 .09-4.06.13-6.1.13-1.34 0-2.68-.03-4.01-.07M349.65 449.15l-.45.07-1.44 1.78ZM319 475.84l2-1.18-.53-.2c-.69.42-1.39.82-2.09 1.22Z" style="fill:#1d1d1b"/><path d="M313.28 414.45H193.82V322.9a28.5 28.5 0 0 1 3.65-13.78c6.43-11.55 19.47-16.88 30.82-13.33 0-15 11.3-27.18 25.26-27.18s25.24 12.2 25.24 27.18c11.36-3.55 24.4 1.78 30.83 13.33a28.6 28.6 0 0 1 3.66 13.95Z" style="fill:#fff;stroke:#fff;stroke-width:.459px"/><path d="M238 345.47a4.54 4.54 0 1 0-4.54-4.53 4.53 4.53 0 0 0 4.54 4.53Z" style="fill:#ffd000;stroke:#000;stroke-width:.6873px"/><path d="M238 343.53a2.6 2.6 0 1 0-2.43-2.59 2.52 2.52 0 0 0 2.43 2.59Z" style="fill:#ebebeb;stroke:#000;stroke-width:.6873px"/><path d="M229.81 347.29c1 .38 1.89-.65 2.71-1.2.67-.45.74-1.37 1.43-1.86a15.6 15.6 0 0 1 2.87-1.92 9.23 9.23 0 0 1 6.36.24 1.9 1.9 0 0 1 .65.51 1.27 1.27 0 0 1 .31 1.68c0 .08.44 1.24-.39 1.67a1.32 1.32 0 0 1-.93 1.65c-.24.1-.25.56-.45.94-.39.76-.54.7-1.27.49-.89-.25-2-.94-3.16-.36a18.3 18.3 0 0 1-8.13 2.4Z" style="fill:#fcd5b7;stroke:#000;stroke-width:.6873px"/><path d="M238.83 347.15a7 7 0 0 1 1.15 0 7.7 7.7 0 0 1 2.6.78M239 345.32a11.2 11.2 0 0 1 4.7 1M239.06 343.49a16.6 16.6 0 0 1 3.42.62 11.5 11.5 0 0 1 1.42.58" style="fill:none;stroke:#000;stroke-width:.6873px"/><path d="M236 325.87c1.44-1.61 1.32-4 2.11-5.93.37-.9 1.28-1.27 2.15-1.69a27 27 0 0 1 2.73-1.07 15 15 0 0 1 3.55-.64 2 2 0 0 1 1.24.19c.7.51.65 1.38.77 2.15a1 1 0 0 0 .15.48 1.55 1.55 0 0 1-.06 1.66c-.25.41-.91.38-.84.89a1.48 1.48 0 0 1-.35 1.22c-.7.81-2 .56-2.64 1.59-.36.59-.24 1.27-.61 1.81-.95 1.38-2.32 2.13-3.19 3.52a12.6 12.6 0 0 0-1.23 2.12c-1.17-.15-2.54-.09-3.28-1.17a8.9 8.9 0 0 1-1.18-2.72Z" style="fill:#fcd5b7;stroke:#000;stroke-width:.6873px"/><path d="M237.45 322.27c.18-1.09 1.45-1.49 2.31-2 .24-.13.53-.15.77-.27a17.6 17.6 0 0 1 2.48-1 .93.93 0 0 1 .79.12 1 1 0 0 1 .48 1.27c-.42.89-1.58.93-2.29 1.58-.44.4-.45 2.05-.32 2.62.25 1.11.66 2.58-.38 3.27" style="fill:none;stroke:#000;stroke-width:.6873px"/><path d="M243.8 319.17a16.6 16.6 0 0 1 4.5-1.09M243.78 321.41a45 45 0 0 1 4.91-2.05M247.79 321.68a12.8 12.8 0 0 0-4.52 2.53" style="fill:none;stroke:#000;stroke-width:.6873px"/><path d="M244.58 250.22h17.98v11.46h-17.98z" style="fill:#e63020;stroke:#000;stroke-width:.6873px"/><path d="M244.58 250.22h8.99v3.92h-8.99zM253.58 250.22h8.99v3.92h-8.99zM244.58 258.06h4.53v-3.92h-4.53M249.11 254.14h8.99v3.92h-8.99z" style="fill:none;stroke:#000;stroke-width:.6873px"/><path d="M262.57 254.14h-4.47v3.92h4.47" style="fill:none;stroke:#000;stroke-width:.6873px"/><path d="M262.54 252.82h-3.47M259.07 251.39h3.47M248.08 252.82h-3.47M244.61 251.39h3.47M262.54 256.8h-3.47M259.07 255.37h3.47M248.08 256.8h-3.47M244.61 255.37h3.47M262.54 260.78h-3.47M259.07 259.35h3.47M248.08 260.78h-3.47M244.61 259.35h3.47" style="fill:none;stroke:#000;stroke-width:.45840000000000003px"/><path d="m264.46 250.22-9.05-18.33h-3.67l-9.05 18.33z" style="fill:#e63020;stroke:#000;stroke-width:.6873px"/><path d="m252.66 231.89-6.25 18.33M254.49 231.89l6.25 18.33M253.75 231.89l2.69 18.33M253.4 231.89l-2.69 18.33" style="fill:none;stroke:#000;stroke-width:.6873px"/><path d="M253.58 232.91a4.46 4.46 0 1 0-4.46-4.46 4.46 4.46 0 0 0 4.46 4.46Z" style="fill:#ffd000;stroke:#000;stroke-width:.6873px"/><path d="M250.85 229.89a3 3 0 0 0 2.73 1.64 3.08 3.08 0 0 0 3.07-3.08 3.11 3.11 0 0 0-1.65-2.73 3.06 3.06 0 0 1-2.71 4.52 3.16 3.16 0 0 1-1.44-.35M186.14 263.93a17.55 17.55 0 0 0 13.37 6.07c9.57 0 17.33-7.47 17.33-16.68s-7.76-16.69-17.33-16.69a17.6 17.6 0 0 0-12.88 5.52h-1.38a22.43 22.43 0 1 1-.18 21.79Z"/><path d="M220.68 248.27a18.7 18.7 0 0 1 .62 4.52c0 10.1-8.57 18.28-19.14 18.28a19.4 19.4 0 0 1-3.34-.28h.69c10.11 0 18.31-7.83 18.31-17.49a16.7 16.7 0 0 0-.52-4 2 2 0 0 1-.05-.44 1.76 1.76 0 0 1 3.43-.57Z" style="fill:#ffd000"/><path d="m299.51 228.46-4.5 14.4-14.12-5.42 8.45 12.49-13.06 7.62 15.04 1.2-2.18 14.98 10.37-11 10.28 11.03-2.09-14.98 15-1.15-13-7.64 8.45-12.49-14.09 5.39z"/><path d="m301.15 250.97 13.33-10.56-10.03 3.83zM292.66 258.98l5.85-4.64-7.43 15.35zM301.63 252.77l16.33 3.78-9.09-5.41zM306.38 258.98l1.14 8.1-5.5-11.62zM297.88 250.98l-13.44-10.73 10.22 3.98zM297.28 252.78l-16.46 3.73 9.27-5.39zM296.3 243.43l3.21 6.76v-16.78zM300.44 256.31v5.53l5.37 5.79z" style="fill:#ffd000"/><path d="M320.32 310.46a40 40 0 0 0-2.65-5.81c-6.75-12.11-18.84-19.21-31.1-19.63-4.29-15.19-17.45-26.26-33-26.26s-28.72 11.06-33 26.26c-12.26.42-24.35 7.52-31.1 19.63a40 40 0 0 0-2.8 6.22l-1.15 48.39h8.32V322.9a28.6 28.6 0 0 1 3.65-13.78c6.43-11.55 19.47-16.88 30.82-13.33 0-15 11.3-27.18 25.26-27.18s25.24 12.2 25.24 27.18c11.35-3.55 24.4 1.78 30.83 13.33a28.57 28.57 0 0 1 3.65 13.95v35.51h8.32Z" style="fill:#e63020;stroke:#000;stroke-width:.6873px"/><path d="M191.72 360.07V323a31 31 0 0 1 4-14.85c6.45-11.59 19.06-17.4 30.66-15.11 1.3-14.93 13-26.62 27.24-26.62s25.93 11.68 27.23 26.62c11.6-2.29 24.21 3.52 30.66 15.11a30.7 30.7 0 0 1 3.95 15.28v34.05l4.5-.23v-39.9a36.7 36.7 0 0 0-4.14-11.65c-6.68-11.92-18.82-18.7-30.92-18.41-3.51-15.06-16.21-26.21-31.32-26.21s-27.82 11.14-31.33 26.21c-12.08-.25-24.24 6.49-30.88 18.41a36.7 36.7 0 0 0-4.35 13v41.47Z" style="fill:#e63020"/><path d="M146.36 356.28h47.48M146.36 356.28h47.48v62.09h-47.48z" style="fill:#e63020;stroke:#000;stroke-width:.6873px"/><path d="M146.39 358.44h5.93M146.39 364.93h4.35M146.39 360.55h5.44M146.39 367.17h4.35M146.39 371.66h4.35M146.39 373.9h4.35M146.39 378.39h4.35M146.39 380.63h4.35M146.39 385.12h4.35M146.39 387.36h4.35M146.39 391.85h4.35M146.39 394.09h4.35M146.39 398.58h4.35M146.39 400.82h4.35M146.39 405.31h4.35M146.39 407.55h4.35M146.39 412.1h4.35M146.39 414.19h5.07M146.39 416.28h6.1" style="fill:none;stroke:#000;stroke-width:.45840000000000003px"/><path d="M146.36 362.7h47.48M146.36 369.46h47.48M146.36 376.22h47.48M146.36 382.97h47.48M146.36 389.73h47.48M146.36 396.49h47.48M146.36 403.25h47.48M146.36 410.01h47.48M158.96 356.31v6.36M179.38 356.31v6.36M158.96 369.49v6.7M179.38 369.49v6.7M151.6 376.24v6.71M169.7 376.24v6.71M151.6 362.73v6.7M151.6 389.76v6.7M151.6 403.28v6.7M169.7 389.76v6.7M169.7 403.28v6.7M187.91 376.24v6.71M187.91 362.73v6.7M187.91 389.76v6.7M187.91 403.28v6.7M159.96 410.09v8.22M180.12 410.09v8.25" style="fill:none;stroke:#000;stroke-width:.6873px"/><path d="M193.75 358.44h-5.93M193.75 364.93h-4.35M193.75 360.55h-5.44M193.75 367.17h-4.35M193.75 371.66h-4.35M193.75 373.9h-4.35M193.75 378.39h-4.35M193.75 380.63h-4.35M193.75 385.12h-4.35M193.75 387.36h-4.35M193.75 391.85h-4.35M193.75 394.09h-4.35M193.75 398.58h-4.35M193.75 400.82h-4.35M193.75 405.31h-4.35M193.75 407.55h-4.35M193.75 412.1h-4.35M193.75 414.19h-5.07M193.75 416.28h-6.1" style="fill:none;stroke:#000;stroke-width:.45840000000000003px"/><path d="M154.84 405h9.56v-20.11a4.78 4.78 0 0 0-9.56 0Z"/><path d="M155.89 403.94h7.42v-18.47a4.7 4.7 0 0 0-2.07-3.94 4.7 4.7 0 0 1 .86 2.73v18.48h-6.22Z" style="fill:#fff;stroke:#000;stroke-width:.22920000000000001px"/><path d="M174.65 405h9.57v-20.11a4.78 4.78 0 0 0-9.55 0Z"/><path d="M175.71 403.94h7.42v-18.47a4.7 4.7 0 0 0-2.06-3.94 4.76 4.76 0 0 1 .86 2.73v18.48h-6.22Z" style="fill:#fff;stroke:#000;stroke-width:.22920000000000001px"/><path d="M170.1 376.25a6.77 6.77 0 1 0-6.77-6.76 6.76 6.76 0 0 0 6.77 6.76"/><path d="M175.25 366.79a5.82 5.82 0 0 1-5.15 8.51 6 6 0 0 1-1.92-.32h.46a6.78 6.78 0 0 0 6.61-8.2Z" style="fill:#fff;stroke:#000;stroke-width:.22920000000000001px"/><path d="M151.11 298.56h35.91v57.73h-35.91z" style="fill:#e63020;stroke:#000;stroke-width:.6873px"/><path d="M151.08 300.7h6.02M151.08 302.82h5.53M151.08 306.95h5.77M151.08 309.06h5.77M151.08 313.19h6.02M151.08 315.31h5.53M151.17 319.89h5.35M153.46 322.01h4.93M151.17 326.36h5.93M151.17 328.48h5.44M151.17 332.77h5.93M151.17 334.9h5.44M151.17 339.19h5.93M151.17 341.31h5.44M152.89 345.66h5.41M151.17 347.78h5.1M151.17 352.02h5.68M151.17 354.14h5.68M187 300.93h-5.96M187 303.05h-5.47M186.97 307.17h-5.69M186.97 309.29h-5.69M186.97 313.42h-5.93M186.97 315.54h-5.44M186.97 320.12h-5.36M184.67 322.24h-4.75M186.97 326.59h-5.93M186.97 328.71h-5.44M186.97 333.01h-5.93M186.97 335.12h-5.44M186.97 339.42h-5.93M186.97 341.54h-5.44M185.25 345.89h-5.42M186.97 348.01h-5.1M186.97 352.25h-5.69M186.97 354.37h-5.69" style="fill:none;stroke:#000;stroke-width:.45840000000000003px"/><path d="M151.14 349.87h35.88M158.39 305v6.36M179.78 305v6.36M151.14 343.46h35.88M151.14 337.04h35.88M151.14 330.63h35.88M151.14 324.21h35.88M151.14 317.8h35.88M151.14 311.38h35.88M151.14 304.97h35.88M158.39 317.86v6.35M179.78 317.86v6.35M158.39 330.71v6.27M179.78 330.71v6.27M158.39 343.49v6.35M179.78 343.54v6.27M169.01 337.06v6.35M169.01 349.89v6.35M161.54 298.58v6.36M175.46 298.58v6.36" style="fill:none;stroke:#000;stroke-width:.6873px"/><path d="M164 334.09h9.56v-23.42a4.78 4.78 0 1 0-9.56 0Z"/><path d="M165.06 333h7.42v-21.76a4.7 4.7 0 0 0-2.06-3.94 4.8 4.8 0 0 1 .86 2.74v21.76h-6.21Z" style="fill:#fff;stroke:#000;stroke-width:.22920000000000001px"/><path d="m189.69 296.95-2.67 1.61h-35.91l-2.66-1.61z"/><path d="m148.45 296.95 19.27-38.83h2.69l19.28 38.83z" style="fill:#e63020;stroke:#000;stroke-width:.6873px"/><path d="m152.92 296.95 15.49-38.83M158.3 296.95l10.11-38.83M164.26 296.95l4.15-38.83M185.22 296.95l-15.5-38.83M179.83 296.95l-10.11-38.83M173.88 296.95l-4.16-38.83" style="fill:none;stroke:#000;stroke-width:.6873px"/><path d="M163.43 266.91h2.49M162.74 268.34h2.6M161.99 269.77h2.75M161.31 271.21h2.89M160.59 272.64h3.06M159.9 274.07h3.18M152.77 288.39h4.56M152.11 289.82h4.64M151.4 291.25h4.81M150.66 292.68h4.98M150 294.12h5.04M149.25 295.55h5.21M153.49 286.96h4.41M159.19 275.5h3.29M158.47 276.93h3.44M157.76 278.37h3.57M157.04 279.8h3.75M156.32 281.23h3.84M155.58 282.66h4.04M154.89 284.09h4.16M154.23 285.52h4.24M164.17 265.48h2.35M165.6 262.62h2.04M164.89 264.05h2.15M174.71 266.91h-2.55M175.4 268.34h-2.67M176.14 269.77h-2.81M176.83 271.21h-2.95M177.54 272.64h-3.12M178.23 274.07H175M185.36 288.39h-4.61M186.02 289.82h-4.7M186.74 291.25h-4.87M187.48 292.68h-5.04M188.14 294.12h-5.1M188.88 295.55h-5.27M184.65 286.96h-4.47M178.95 275.5h-3.35M179.66 276.93h-3.49M180.38 278.37h-3.64M181.09 279.8h-3.8M181.81 281.23h-3.89M182.56 282.66h-4.1M183.24 284.09h-4.21M183.9 285.52h-4.29M173.96 265.48h-2.4M172.53 262.62h-2.09M173.25 264.05h-2.21" style="fill:none;stroke:#000;stroke-width:.45840000000000003px"/><path d="M169.07 261.46a6 6 0 1 0-6-6 6 6 0 0 0 6 6Z" style="fill:#ffd000;stroke:#000;stroke-width:.921px"/><path d="M165.42 257.41a4.05 4.05 0 0 0 3.65 2.2 4.13 4.13 0 0 0 1.91-7.79 4.13 4.13 0 0 1-5.56 5.59"/><path d="M313.31 356.28h47.48M313.31 356.28h47.48v62.09h-47.48z" style="fill:#e63020;stroke:#000;stroke-width:.6873px"/><path d="M313.34 358.44h5.93M313.34 364.93h4.35M313.34 360.55h5.44M313.34 367.17h4.35M313.34 371.66h4.35M313.34 373.9h4.35M313.34 378.39h4.35M313.34 380.63h4.35M313.34 385.12h4.35M313.34 387.36h4.35M313.34 391.85h4.35M313.34 394.09h4.35M313.34 398.58h4.35M313.34 400.82h4.35M313.34 405.31h4.35M313.34 407.55h4.35M313.34 412.1h4.35M313.34 414.19h5.07M313.34 416.28h6.1" style="fill:none;stroke:#000;stroke-width:.45840000000000003px"/><path d="M313.31 362.7h47.48M313.31 369.46h47.48M313.31 376.22h47.48M313.31 382.97h47.48M313.31 389.73h47.48M313.31 396.49h47.48M313.31 403.25h47.48M313.31 410.01h47.48M325.91 356.31v6.36M346.33 356.31v6.36M325.91 369.49v6.7M346.33 369.49v6.7M318.55 376.24v6.71M336.65 376.24v6.71M318.55 362.73v6.7M318.55 389.76v6.7M318.55 403.28v6.7M336.65 389.76v6.7M336.65 403.28v6.7M354.86 376.24v6.71M354.86 362.73v6.7M354.86 389.76v6.7M354.86 403.28v6.7M326.91 410.09v8.22M347.07 410.09v8.25" style="fill:none;stroke:#000;stroke-width:.6873px"/><path d="M360.71 358.44h-5.93M360.71 364.93h-4.36M360.71 360.55h-5.45M360.71 367.17h-4.36M360.71 371.66h-4.36M360.71 373.9h-4.36M360.71 378.39h-4.36M360.71 380.63h-4.36M360.71 385.12h-4.36M360.71 387.36h-4.36M360.71 391.85h-4.36M360.71 394.09h-4.36M360.71 398.58h-4.36M360.71 400.82h-4.36M360.71 405.31h-4.36M360.71 407.55h-4.36M360.71 412.1h-4.36M360.71 414.19h-5.07M360.71 416.28h-6.1" style="fill:none;stroke:#000;stroke-width:.45840000000000003px"/><path d="M321.79 405h9.56v-20.11a4.78 4.78 0 0 0-9.56 0Z"/><path d="M322.85 403.94h7.42v-18.47a4.7 4.7 0 0 0-2.06-3.94 4.76 4.76 0 0 1 .86 2.73v18.48h-6.21Z" style="fill:#fff;stroke:#000;stroke-width:.22920000000000001px"/><path d="M341.6 405h9.57v-20.11a4.78 4.78 0 0 0-9.56 0Z"/><path d="M342.66 403.94h7.42v-18.47a4.68 4.68 0 0 0-2.07-3.94 4.7 4.7 0 0 1 .86 2.73v18.48h-6.22Z" style="fill:#fff;stroke:#000;stroke-width:.22920000000000001px"/><path d="M337.05 376.25a6.77 6.77 0 1 0-6.76-6.76 6.77 6.77 0 0 0 6.76 6.76"/><path d="M342.2 366.79a5.82 5.82 0 0 1-5.15 8.51 6.1 6.1 0 0 1-1.92-.32h.46a6.78 6.78 0 0 0 6.61-8.2Z" style="fill:#fff;stroke:#000;stroke-width:.22920000000000001px"/><path d="M320.13 298.56h35.91v57.73h-35.91z" style="fill:#e63020;stroke:#000;stroke-width:.6873px"/><path d="M320.1 300.7h6.01M320.1 302.82h5.52M320.1 306.95h5.77M320.1 309.06h5.77M320.1 313.19h6.01M320.1 315.31h5.52M320.18 319.89h5.36M322.48 322.01h4.92M320.18 326.36h5.93M320.18 328.48h5.44M320.18 332.77h5.93M320.18 334.9h5.44M320.18 339.19h5.93M320.18 341.31h5.44M321.9 345.66h5.42M320.18 347.78h5.1M320.18 352.02h5.69M320.18 354.14h5.69M356.01 300.93h-5.96M356.01 303.05h-5.47M355.98 307.17h-5.68M355.98 309.29h-5.68M355.98 313.42h-5.93M355.98 315.54h-5.44M355.98 320.12h-5.36M353.69 322.24h-4.75M355.98 326.59h-5.93M355.98 328.71h-5.44M355.98 333.01h-5.93M355.98 335.12h-5.44M355.98 339.42h-5.93M355.98 341.54h-5.44M354.26 345.89h-5.41M355.98 348.01h-5.1M355.98 352.25h-5.68M355.98 354.37h-5.68" style="fill:none;stroke:#000;stroke-width:.45840000000000003px"/><path d="M320.16 349.87h35.88M327.4 305v6.36M348.79 305v6.36M320.16 343.46h35.88M320.16 337.04h35.88M320.16 330.63h35.88M320.16 324.21h35.88M320.16 317.8h35.88M320.16 311.38h35.88M320.16 304.97h35.88M327.4 317.86v6.35M348.79 317.86v6.35M327.4 330.71v6.27M348.79 330.71v6.27M327.4 343.49v6.35M348.79 343.54v6.27M338.02 337.06v6.35M338.02 349.89v6.35M330.55 298.58v6.36M344.47 298.58v6.36" style="fill:none;stroke:#000;stroke-width:.6873px"/><path d="M333 334.09h9.57v-23.42a4.78 4.78 0 1 0-9.55 0Z"/><path d="M334.07 333h7.42v-21.76a4.68 4.68 0 0 0-2.07-3.94 4.7 4.7 0 0 1 .86 2.74v21.76h-6.22Z" style="fill:#fff;stroke:#000;stroke-width:.22920000000000001px"/><path d="m358.7 296.95-2.66 1.61h-35.91l-2.67-1.61z"/><path d="m317.46 296.95 19.28-38.83h2.69l19.27 38.83z" style="fill:#e63020;stroke:#000;stroke-width:.6873px"/><path d="m321.93 296.95 15.49-38.83M327.32 296.95l10.1-38.83M333.27 296.95l4.15-38.83M354.23 296.95l-15.49-38.83M348.85 296.95l-10.11-38.83M342.89 296.95l-4.15-38.83" style="fill:none;stroke:#000;stroke-width:.6873px"/><path d="M332.44 266.91h2.49M331.75 268.34h2.61M331.01 269.77h2.75M330.32 271.21h2.89M329.61 272.64h3.06M328.92 274.07h3.18M321.79 288.39h4.55M321.13 289.82h4.64M320.41 291.25h4.81M319.67 292.68h4.98M319.01 294.12h5.04M318.27 295.55h5.21M322.5 286.96h4.41M328.2 275.5h3.3M327.49 276.93h3.43M326.77 278.37h3.58M326.06 279.8h3.75M325.34 281.23h3.84M324.59 282.66h4.04M323.91 284.09h4.15M323.25 285.52h4.24M333.18 265.48h2.35M334.62 262.62h2.03M333.9 264.05h2.15M343.72 266.91h-2.54M344.41 268.34h-2.66M345.15 269.77h-2.8M345.84 271.21h-2.95M346.56 272.64h-3.12M347.25 274.07h-3.24M354.38 288.39h-4.61M355.04 289.82h-4.7M355.75 291.25h-4.87M356.5 292.68h-5.04M357.15 294.12h-5.09M357.9 295.55h-5.27M353.66 286.96h-4.47M347.96 275.5h-3.35M348.68 276.93h-3.5M349.39 278.37h-3.63M350.11 279.8h-3.81M350.83 281.23h-3.9M351.57 282.66h-4.1M352.26 284.09h-4.21M352.91 285.52h-4.29M342.98 265.48h-2.41M341.55 262.62h-2.09M342.26 264.05h-2.2" style="fill:none;stroke:#000;stroke-width:.45840000000000003px"/><path d="M338.08 261.46a6 6 0 1 0-6-6 6 6 0 0 0 6 6Z" style="fill:#ffd000;stroke:#000;stroke-width:.921px"/><path d="M334.43 257.41a4.08 4.08 0 0 0 3.65 2.2 4.13 4.13 0 0 0 4.13-4.12 4.18 4.18 0 0 0-2.21-3.67 4.13 4.13 0 0 1-3.64 6.06 4.2 4.2 0 0 1-1.93-.47"/><path d="M193.84 414.45h119.48v3.92H193.84z" style="fill:#bd1218;stroke:#000;stroke-width:.6873px"/><path d="M193.84 345.58c0-17.13 9.68-24.8 9.68-24.8a7.2 7.2 0 0 0 3.78-4.13l4.58-1.6 3.55 1.83a7 7 0 0 0 2.18 5.39s6 6.64 8.24 12.31l-.34 2.18.34-2.18a2 2 0 0 0 1.09-.12l8.82-8.7a3.78 3.78 0 0 0 1.21 4c2 1.55 3.37 1.2 3.78 1.09l.28.46-11.34 12.82a4.88 4.88 0 0 1-4 .29c-2.29-.8-3.78-1.37-3.78-1.37l-.11 2a9.77 9.77 0 0 1 6 1.32 17 17 0 0 0 2.29.28v11.86a25.4 25.4 0 0 1 8.59 4.87l2.52 24.05a18.18 18.18 0 0 0-3 12.72l5.52 10.85a3 3 0 0 1-2.4.8c-1.61-.11-6-1.6-9.4-.34 0 0-2.17 1.83-5.49-1.83 0 0-2 2.74-7 1.83 0 0-1.83 2.29-4.58-.57a2.62 2.62 0 0 1-2.75 1.6c-2.18-.12-2.52-1.72-4.58-1.15s-2.29.92-3.67.23-1.37 2.18-4.58 0-5.44-1-5.44-1Z" style="fill:#0076a7;stroke:#000;stroke-width:.6873px"/><path d="M210.73 316.71a18.86 18.86 0 0 1 2.87 8" style="fill:none;stroke:#000;stroke-width:.6873px"/><path d="M222.3 303.77v2.06l-.51 1.09 2.06 4.38s.37 1.06-1.2.88l-1.12-.11-.43 3.84s-.28 4.81-8 0l1.15-8.13 2-4.41 4-.35Z" style="fill:#fcd5b7;stroke:#000;stroke-width:.6873px"/><path d="M221.73 307.09s.29-1.23-4.18-.63l.12.46 1.33.08a.82.82 0 0 0 .8.92.75.75 0 0 0 .89-.77Z"/><path d="m219.21 313.73 2.06.35" style="fill:none;stroke:#000;stroke-width:.45840000000000003px"/><path d="M203.46 316.25a6.8 6.8 0 0 0 3 .76c2-.1 4.07.24 6.05-.35a1.83 1.83 0 0 0 1.22-1.11c1.08-3.64.38-7.89 3.12-10.79a3.2 3.2 0 0 1 1.76-.93 13.3 13.3 0 0 1 4.12.17c-.17 0 .39-1 .21-1.6a4.56 4.56 0 0 0-2.43-3 16.4 16.4 0 0 0-10.14-.05 7 7 0 0 0-1.24.68 6.3 6.3 0 0 0-1.82 1.59 5.36 5.36 0 0 0-1 2.15c-.74 3.17-1.36 5-1.94 8.23 0 .22-.32 1.33-.37 1.5-.23.59-.88 2.01-.54 2.75Z" style="fill:#ffd000;stroke:#000;stroke-width:.6873px"/><path d="M204 316.42s1.6-3.78 1.72-4.46M205.46 316.88s1.72-5.38 1.84-6.53M206.9 316.94s.8-2.81 1-3.78M208.16 316.94s.85-3.84 1.2-6.76M210 316.94a33.6 33.6 0 0 0 1.49-6.24M211.71 316.71a27 27 0 0 0 1-3.66" style="fill:none;stroke:#000;stroke-width:.45840000000000003px"/><path d="M203.52 320.78s7 8.07 14.09 1.49" style="fill:none;stroke:#000;stroke-width:.6873px"/><path d="M202.89 321.46s10 2.53 12.48 16.56" style="fill:none;stroke:#000;stroke-width:.6873px"/><path d="M221 326.82v4l-1.72-2.06v4.35s.11 1.6-.46 1.49-1.95-1.49-3.09-5.27a31 31 0 0 1 1.14 8.13s.58 2.06-2.29-.34c0 0-.57.11-1.48-.69a5.3 5.3 0 0 1-1.95-3.09c-.12-1.15 0-2.64-1.38-2.64s-.91 2.52.12 3.9 7.1 8.82 8.36 11.11c0 0-6 3.09-8.59 11.8s-2.41 18-5 30-.92 12.71-.92 12.71.92 9.28.35 10.43-.46.57-.46.57l1.37.23 1-.12 2.07-.45s-2-.58-2.18-3.9 1.6-7.56 2.18-8.59a15.5 15.5 0 0 0 1.14-5.27c0-1.37.69-11.91 2.64-19s1.37-17 4-21.43 4.7-5.15 5.85-5.15-4 1.6-4 12.6 0 21.31-2.52 27.95a190 190 0 0 0-6.19 19.7c-.46 2.52.69 2.64 1.26 2.41s.92-2.41 1.61-2.29 1.94 2.17 2.06 2.86l.8-.23 1.6.58a37 37 0 0 0-1.94-4.24c-.69-1-2.41-1.84-.92-3.33a21.4 21.4 0 0 1 7.67-4c2.29-.58 5.16-3.78 6.19-5.39l.11 4.47a27.9 27.9 0 0 0-5 6.07h.57s2.53-3.44 4.47-4.12c0 0 1.84-.23 1.95.68s-2.86 4.36-2.86 4.36 2.52-1.84 6.64.11c0 0-4.35 1.37-6.41 3.44s.68.23.68.23 7.56-3.67 13.18-1.72l-2.65-9.01-.23-3.44.8-3.32 1.26-2.41 1.37-2.06-2.69-23.71-1.89-1.73-3.62-2.11-3.21-1.08v-11.69l-.23-.23-1.66-.28-1.55-.69-1.89-.52-1.83-.17-1 .12v-2.47l2.12.69 2.64.92 1.89-.06 1.26-.46 2.34-2.63 3.84-4.24 4.93-5.61v-.23h-.86l-1.72-.46-8.84 9.2a2.63 2.63 0 0 1-2.57.92s-4.3-1.43-4.76-3.38-.11-9.57-.11-9.57Z"/><path d="M209.13 338.76a111 111 0 0 1-1.26 15s2.52-5.62 6-7.22c-.04.01-3.71-3.88-4.74-7.78M200.65 331s-2.86 6.64-3.09 12.14-.8 30.13-1.72 32.19-.8 1.15-.8 1.15l.69-26.81.23-12.48.11-3.1-.8 1.84-.8 3.09-.46 3.43v67.82l1-.12 1.49.12 1.95.57-1.26-1.26v-1.83s.69-1.26 1.72-2.87 3.2-6 2.86-14.54-1.15-40.9-1.15-40.9-.31-14.44.03-18.44"/><path d="M200.42 405.77s0 3.44.92 4.35-5.04.46-.92-4.35"/><path d="M198.82 390.65s-.43 10.63-2.75 16c0 .04-1.6-7.29 2.75-16M219.21 383.21s2.06.34 1.15 1.83-2.64-1.26-1.15-1.83M237.2 365.11s-3.78-3.9-7.68-5.39l-3 2.06s8.27 2.98 10.68 3.33M229.41 347.92v3.67s-4 1.28-6.19 2.18c-1.37.57-2.64-.8-2.18-1.38a12.7 12.7 0 0 1 8.37-4.47M223.22 362.82s13.86 4.81 15.12 10.42-11.91 11.91-15.47 12.26c0 0-1-.35.81-1.49s7-4.93 6.64-5.39-3.32.23-5.27 1.26c0 0 1.61-1.6 1.26-2.06s-3.44.8-3.44.8 2.64-3.32 4.13-3.55 2.06-1.49-2.06-2.29c0 0 .91-2.86.11-3.43s-1.6.57-1.6.57.11-2.07-.34-2.29-1.26.46-1.61 0-1.26-2.75-.68-4 2.4-.81 2.4-.81M227.57 392.14s1.72-4.58 2.3-5 .34.57.68.92.46 2.52 1 3 2.64 2.87 3.78 1.49-.8-2.52-.46-3.89 2.64-2.52.8-4.35l-1.48-.92v.92a2.8 2.8 0 0 0-2.07 0c-1 .45-1.6 2.06-2.52 2.06s-2.52 1-3.78 2.29a10.1 10.1 0 0 1-4.12 2.63c-.91.12-.69 2.18-1.26 2.75s-3.89 2.64-3.55 3.44 2.64.34 5.5-1.72 5.18-3.62 5.18-3.62" style="fill:#0076a7"/><path d="m267.32 328.45-2.52-4.12a22.3 22.3 0 0 0-.34-8.59s-1-.69-1.26.46a24 24 0 0 1-.62 3s-3.05-4.45-5.34-4.91c0 0-1.37.23-1 1 0 0-1.72-.46-1.49 1.49 0 0-.8.57-.11 1.83l.68 1s-1.49.34-.46 1.6a36.8 36.8 0 0 0 5.62 5.73l3.66 4.81 2.29-1.14Z" style="fill:#fcd5b7;stroke:#000;stroke-width:.6873px"/><path d="m256.21 315.28 3.61 3.95M254.72 316.77l3.44 3.61M255.29 319.63l2.06 2.41M261.13 321.64l1.47-2.38" style="fill:none;stroke:#000;stroke-width:.6873px"/><path d="M267.38 327.93s-.4 4-6.13 4c0 0-.69 5 5.27 12.65 0 0 2.76 2.88 4.58 3.21 3.21.57 6.87-5.5 8.94-5 0 0 .11 5.38-.46 7.33l-1.95 1.15s.23 8-1.38 10.65l-7.1 3.43L265.6 384s6 11 5.5 17.41l-1.83 2.4-1.27 1.85s-4.81 3.55-6.88 3.89c0 0-2.86 3 .81 4 0 0 6.18-.8 9.85-.8s6.3 1 8.47 1 1.75-6.15 1.75-6.15 7.56.8 11.11-3c0 0 2.18 3.1 4.81 3.67 0 0-2.52 5.82 3.9 5.7s10.25 0 11.51-1v-2.27s-3.84.11-5.1-2.06a9.4 9.4 0 0 0 5.1-2.18v-62.89s-4.06-.8-4.29-2.63.57-7.91.57-7.91a12.87 12.87 0 0 0-4.36-8.93c-4.23-3.44-2.74-2.18-2.74-2.18l-3.78-5.27-7-2.17-3.67 1.26-.46 3.78a16.4 16.4 0 0 0-7.33 5.15c-3.09 3.9-3 6.67-4.35 8.48-1.77 2.35-3.78 1-3.78 1Z" style="stroke:#000;stroke-width:.6873px"/><path d="m264.46 332.35-2.41.45s3 8 5.5 11l4.12.23-1.37.92-.34.57s3.32.69 4.23-1.72a6.84 6.84 0 0 0-.46-5.5c-.45-.91-1.14-.45-1.71-.57s-1.38-1.15-1.38-1.15l-2.06.58-1.95-2.75-.91 2.29-.46-.8ZM279.12 334.06s-4.24 1.26-3 4.59c0 0 .92 1.14 2.29-.8a4.34 4.34 0 0 0 .71-3.79ZM277.75 331.09l2.29-5.16 1.6.23s0-3.09 3.78-4.7c0 0 1.95 1.72.91 3.44s-4.58 6.53-8.58 6.19ZM288.28 319.4l3.9.23.23-1.26-1-1.6s-2.9.68-3.13 2.63ZM293.67 319.52l5.72.45-4.69-1.94zM285.76 333l.92.23a61.2 61.2 0 0 1 1.26 11.34l-1.49.46s-.23-10.03-.69-12.03ZM282.44 331.43s-.23 2.06-.57 4.12-.69 3.67.23 6.07.23 6.53.23 6.53l2.29-1.94a66 66 0 0 1-.69-6.65c0-2.06-.11-7.1-1.49-8.13ZM291.15 348.61s-.8-2.52-1.84-2.06-8.93 4.58-8.93 4.58-2.41 1.26-2.06 2.86 1.37 2.18 2.75 1.61 9.62-4.47 9.62-4.47a4.5 4.5 0 0 0 .46-2.52ZM288.4 328.34a56.4 56.4 0 0 0 4.35 22.79 3.9 3.9 0 0 0 2.18 0c1.26-.34.68-2.18.68-2.18a87.5 87.5 0 0 1-5.72-16.83l.8-.35a80 80 0 0 0 5.73 16 89 89 0 0 0 3.43 10.88c1.61 3.55 7.45 8.59 7.45 8.59l1.83 4 .69-.23-1-6.64s2.75 1.86 2.06 8c-.92 8.13-.23 9.51-.23 9.51s1-.46 1.14-2.87.92-9.51-.22-13.4-5.73-10.54-5.73-10.54-9.62-15.69-9.05-21l.46-.46s3.09 8.13 4.69 10.54 3.1 0 3.1 0a38 38 0 0 0-1.49-5.39 11.9 11.9 0 0 1-.58-4.69l3 9.39s.12 3.78 0 5.16 2.18 3.66 2.29 5.5 1.15 4.35 1.72 4.35.8-3.44-.68-7.79-1.38-7-2.3-9.39-.46-6.31-.46-6.31l-.57-7.9a3.2 3.2 0 0 0-3.21-3c-3 0-3.66 1.38-5.26 1.49a65 65 0 0 1-6.76-.46s-1.49.8-1.6 1.26.45.69.45.69l1.61-.69s2.29 1.26 1.6 2.52-1.38 1.15-2.18.69-2.22-1.24-2.22-1.24Z" style="fill:#0076a7;stroke:#000;stroke-width:.22920000000000001px"/><path d="M281.87 358.23a52 52 0 0 0 6.64-.23c2.64-.34 6.3-1.14 8.82-.22 0 0-3 .57-4.81.68s-5.84 3.9-10.65-.23Z" style="fill:#0076a7;stroke:#000;stroke-width:.22920000000000001px"/><path d="M281.3 360a12.55 12.55 0 0 0 6.64 1.61c3.67-.23 9.16-.92 9.16-.92s-5.49 2.86-8.25 3-6.29-.99-7.55-3.69Z" style="fill:#0076a7;stroke:#000;stroke-width:.22920000000000001px"/><path d="M282 362.24s8.71 4.59 16.5 5l-.8.69s-9.4.12-16-5Z" style="fill:#0076a7;stroke:#000;stroke-width:.22920000000000001px"/><path d="M278.32 395.23A106.7 106.7 0 0 0 296.07 369l3.55-.8v-1.72s-5.27-.34-6.87-1.26a4.58 4.58 0 0 1 3.67-1.83 23 23 0 0 0 4.81-.92s.11 1.26 1.94 2.75 4.47 3.9 4.7 6.65l-3.09-1.95.45 2.06s3.56 2.52 3.9 5.15l-3.66-2.75s2.52 9.4 2.52 15.93-3.44 14.09-3.44 14.09.8 2.86 2.4 2.86 2.41-3.09 3.55-2.29a1.82 1.82 0 0 1 .81 1.95l-1.38 1-2.17.45a9.73 9.73 0 0 1-7.11-1.6s-5.15.34-6.3-2.52l.23-2.52-.68-22 1-3.78 2.4-5.84-.46-.12a172 172 0 0 1-9.85 16.5 84 84 0 0 1-8.77 10.38c.26 1.72 1.07 3.36 1 4.74a8 8 0 0 1-.57 2.86c3.32.92 9.74-17.75 9.74-17.75l2.86-1.15-5.84 21s-.12.8-4.35-.23a74 74 0 0 0-11.57-1.26l2.17-2.4 2.64-.35-2.64-1.26s.12-1.48-1.26-8.13a29.8 29.8 0 0 0-4.81-11.11l3.1-15.58 2.06-1.14 5.61-2.29 2.06.11.46-1 4.93 3.55a12.65 12.65 0 0 0-3.67 4.35 3 3 0 0 0-.15.28 3.94 3.94 0 0 0 4.27 2.47 38.4 38.4 0 0 0 8.37-1.49l-.46 1.15-4.93 1.72 1.26 1.26.8 1.71-.22 1.38s-3.94-5.18-9.93-5.21c-.2 2.44.49 5 .64 7.62.21 3.75-.9 11.76-1.47 14.51ZM298.36 408.4s-.63 3 .29 3.9c1.26 1.26 2.23 1.25 6.93 1.17 5.41-.08 7-.71 7-.71v-1.38L311 411l-3.66-1.66ZM281.41 407.49s-8.53-1.66-12.54-1.66c0 0-5.1 3.78-7.28 4.12 0 0-1.6 1.49-.57 2.41.67.59 1.38.68 4.81.22s8-.62 10.48.18 3.61.57 4.41 0 .69-5.27.69-5.27Z" style="fill:#0076a7;stroke:#000;stroke-width:.22920000000000001px"/><path d="m295.84 383.09.46 19.7 3.32 1.15-2.29-20.39z"/><path d="M277.63 351.25s-6.53-4.47-10.54-3.55c0 0-1.49.57-1.37 1.25a1.8 1.8 0 0 0-1.43 1.72 1.56 1.56 0 0 0-.63 1.84s-1.09.74-.75 1.66l.34 1 4.59 1.83 10.13.29Z" style="fill:#fcd5b7;stroke:#000;stroke-width:.6873px"/><path d="M265.72 349a18.5 18.5 0 0 1 4.35.52M264.29 350.67a31.7 31.7 0 0 1 4.81.35M263.66 352.51s3.32.4 4.52.68" style="fill:none;stroke:#000;stroke-width:.6873px"/><path d="M255.75 382.86s-.8 7.68-3.21 12.37a11.5 11.5 0 0 0 4.7-3.43 6.9 6.9 0 0 1 2.18 3.09 12.18 12.18 0 0 0-3.67-12.03ZM233.07 400.27a14.9 14.9 0 0 0 5.39.35s-6-4.36-8.83-8.25c0 0-2.74 8.13 3.67 11.8 0 0-.8-2.75-.23-3.9Z" style="fill:#ffd000;stroke:#000;stroke-width:.6873px"/><path d="m241.1 349.49 6.75 48.38s.91 4.58 3.43 4.12 4.93-4.47 6-13.63l.8.8s.9 6.78-.23 11c-.91 3.43-4.58 5.95-5.27 6.76l-4.12 5a2.32 2.32 0 0 1-1.83 0c-.8-.46-13.29-5.27-15.35-13.86 0 0 5.14 4.27 9.39 5.38 2.64.69 1.72-4.7 1.72-4.7L237 349.56a8 8 0 0 1 1.91-.66 19 19 0 0 1 2.19.59Z" style="fill:#ffd000;stroke:#000;stroke-width:.6873px"/><path d="M246.47 402s-1.26 5.38 1.61 8.25l3-3.44s-4.26-2.07-4.61-4.81"/><path d="M225.51 353.88s14.2-2.86 26-2.17A2.35 2.35 0 0 1 254 354a2.31 2.31 0 0 1-1.94 2.64s-19.13 1.6-26 1.72a3 3 0 0 1-1.49-2 2.86 2.86 0 0 1 .94-2.48Z" style="fill:#ffd000;stroke:#000;stroke-width:.6873px"/><path d="m229.63 353.31.41 4.81M231.92 352.97l.58 5.03M246.36 351.71l.63 5.26M248.65 351.76l.69 5.04" style="fill:none;stroke:#000;stroke-width:.6873px"/><path d="M239.66 356.66a1.87 1.87 0 1 0-1.87-1.86 1.86 1.86 0 0 0 1.87 1.86ZM266.18 358.81l-7.11 44.44a39 39 0 0 0 .23 9.74s3.21-5.73 4-9.05l7-44.56Z" style="fill:#ffd000;stroke:#000;stroke-width:.6873px"/><path d="M259.53 352.85a12.5 12.5 0 0 0-1.49 6.3l8.14.11a3.3 3.3 0 0 0 1.71 1.15 3.5 3.5 0 0 0 2.18-.46l6.87 2.87s1.84-3.9 1.38-6.3l-7.45.34a3.18 3.18 0 0 0-1.72-1.37 4.45 4.45 0 0 0-2.4.45Z" style="fill:#ffd000;stroke:#000;stroke-width:.6873px"/><path d="m281.3 305 .11 1.95.69.91-1.1 4.21s0 .92 1.15.69a11 11 0 0 0 1.72-.46l.57 3.55s.23 3.09 5.61.69l4.24-2.41-4.47-11.68-5-.92Z" style="fill:#fcd5b7;stroke:#000;stroke-width:.6873px"/><path d="M287.59 306s-1.6-1.6-4.69.34a.66.66 0 0 0 .63.52s.06 1.32 1.09 1.09c0 0 .91-.63.57-1.09l-.46-.4a6 6 0 0 1 2.86-.46"/><path d="M284.22 313.85a3.6 3.6 0 0 0 2-.75" style="fill:none;stroke:#000;stroke-width:.6873px"/><path d="M281.3 305.66a3.36 3.36 0 0 1-1.72-3.79c.57-2.68 3.66-5.66 9.27-5.15s7.34 2.87 8 3.95.68 4.81 2.12 6.76 4.06 4.12 3.77 6.19-7.84 3.72-8.76 3.83-1.54.18-1.89-1-.69-6-1-7.33a13.3 13.3 0 0 0-2.92-4.81c-.75-.57-3-.06-4 .23s-2.87 1.12-2.87 1.12Z" style="fill:#ffd000;stroke:#000;stroke-width:.6873px"/><path d="M281 303.08a7.5 7.5 0 0 0 1.09 2.18M282.15 303.42a7 7 0 0 0 .86 1.43M283.44 303.34l.69 1.26M296.07 303.14a9.38 9.38 0 0 0 2.18 5.73M295.36 305.72a7.9 7.9 0 0 0 1.91 3.77M294.92 307.74a8.3 8.3 0 0 0 1.5 2.38M300.08 310.87a6.87 6.87 0 0 1 1.58 3.86M299.11 311.5a7.1 7.1 0 0 1 1.49 3.86M297.82 312.1a6.53 6.53 0 0 1 1.55 3.81M296.5 312.67a6.2 6.2 0 0 1 1.52 3.72M292.24 310.12s.51 4.21.68 5.5a3.4 3.4 0 0 0 .63 1.81M293.37 311.22c.17 1.34.42 3.33.53 4.17a3.1 3.1 0 0 0 .71 1.84M294.56 311.91c.16 1.12.34 2.35.42 3a3.73 3.73 0 0 0 1 2.09" style="fill:none;stroke:#000;stroke-width:.45840000000000003px"/><path d="M226.07 255.86A21.45 21.45 0 0 0 195.16 234a21.3 21.3 0 0 1 6.18-.91 20.89 20.89 0 0 1 21.27 21c0 .6 0 1.19-.06 1.78a1.76 1.76 0 0 0 3.52 0Z" style="fill:#ffd000"/></svg>