<svg xmlns="http://www.w3.org/2000/svg" viewBox="0 0.01 67.19 145.79"><path d="M484.281 952.688c-3.672-21.981-9.316-43.579-15.933-64.844-10.133-32.594-18.528-82.285-59.875-87.903-.625-.089-7.34-.671-7.34-.48V778.18h171.316v21.082c-4.922 4.918-11.633 13.34-12.922 19.687-43.242 213.441-10.859 383.911 17.719 569.401 22.781 147.84 31.102 306.69 5.945 458.3-143.812-29.88-237.312-75.17-237.312-75.17-27.301-12.35-30.828-22.18-30.609-25.41 4.632-67.65 27.296-186.61 47.757-259.06 20.661-73.17 55.926-139.79 92.028-206.17 34.336-63.15 40.769-128.54 39.613-199.45-.824-50.35-4.125-91.242-10.387-128.702" style="fill:#000;fill-opacity:1;fill-rule:nonzero;stroke:none" transform="matrix(.13333 0 0 -.13333 -42.035 249.553)"/><path d="M816.816 1867.4c-2.128 2.08-4.836 4.73-30.421 4.17-36.485-1.31-71.598-4.34-105.016-8.55 12.371-110.23 5.867-196.85-13.977-290.17-3.847-18.07-7.707-36.15-11.679-54.2-50.391-228.74-157.946-465.51-71.27-700.619 2.383-6.472 6.152-11.39 18.152-18.461v-21.39h79.993v21.281c-39.727 0-53.594 39.559-63.243 71.269-6.796 22.317-12.96 45.145-17.128 68.125-11.993 66.355-18.215 134.635-13.204 202.015 7.981 107.2 67.071 193.2 111.399 287.63 42.73 91.04 75.965 186.36 96.746 284.84 10.293 48.79 17.605 98.2 21.98 147.86.207 2.29-.64 4.55-2.332 6.2" style="fill:#000;fill-opacity:1;fill-rule:nonzero;stroke:none" transform="matrix(.13333 0 0 -.13333 -42.035 249.553)"/></svg>