<svg xmlns="http://www.w3.org/2000/svg" id="Odense_Boldklub" data-name="Odense Boldklub" viewBox="28.76 28.76 770.48 770.49"><defs><style>.__1n1KK49__cls-1{fill:#fff}.__1n1KK49__cls-2{fill:#005eff}</style></defs><path d="M414 793.56c209.6 0 379.55-169.96 379.55-379.56S623.6 34.44 414 34.44 34.45 204.38 34.45 414 204.4 793.56 414 793.56" class="__1n1KK49__cls-1"/><path d="M414 799.25c-52 0-102.45-10.19-149.95-30.28-45.87-19.41-87.07-47.18-122.45-82.56s-63.16-76.58-82.56-122.45c-20.09-47.5-30.28-97.95-30.28-149.95s10.19-102.46 30.28-149.96c19.4-45.88 47.18-87.07 82.56-122.45s76.58-63.16 122.45-82.56C311.55 38.95 362 28.76 414 28.76s102.45 10.19 149.95 30.28c45.87 19.4 87.07 47.18 122.45 82.56s63.16 76.58 82.56 122.45c20.09 47.5 30.28 97.95 30.28 149.96s-10.19 102.45-30.28 149.95c-19.41 45.87-47.18 87.07-82.56 122.45s-76.58 63.16-122.45 82.56C516.45 789.06 466 799.25 414 799.25m0-759.12c-50.47 0-99.43 9.88-145.52 29.38-44.52 18.83-84.5 45.79-118.84 80.13s-61.3 74.32-80.13 118.84c-19.5 46.09-29.38 95.05-29.38 145.53s9.88 99.43 29.38 145.52c18.83 44.52 45.79 84.5 80.13 118.84s74.32 61.3 118.84 80.13c46.09 19.5 95.05 29.38 145.52 29.38s99.43-9.89 145.52-29.38c44.52-18.83 84.5-45.79 118.84-80.13s61.3-74.32 80.13-118.84c19.5-46.09 29.38-95.05 29.38-145.52s-9.88-99.44-29.38-145.53c-18.83-44.52-45.79-84.5-80.13-118.84s-74.32-61.3-118.84-80.13C513.43 50.02 464.47 40.13 414 40.13" class="__1n1KK49__cls-2"/><path d="M414 711.16c164.1 0 297.15-133.06 297.15-297.15S578.1 116.84 414 116.84 116.85 249.89 116.85 414 249.9 711.15 414 711.15Z" class="__1n1KK49__cls-1"/><path d="M414 716.84c-80.88 0-156.93-31.5-214.13-88.71-57.2-57.2-88.7-133.25-88.7-214.13s31.5-156.94 88.7-214.14 133.25-88.7 214.13-88.7 156.93 31.5 214.13 88.7 88.7 133.25 88.7 214.14-31.5 156.93-88.7 214.13S494.88 716.84 414 716.84m0-594.31c-77.85 0-151.04 30.32-206.09 85.37S122.54 336.15 122.54 414s30.32 151.04 85.37 206.09c55.05 55.06 128.25 85.38 206.09 85.38s151.04-30.32 206.09-85.38c55.05-55.05 85.37-128.25 85.37-206.09s-30.32-151.05-85.37-206.1S491.85 122.53 414 122.53" class="__1n1KK49__cls-2"/><path d="M414 691.95c153.51 0 277.96-124.45 277.96-277.95S567.51 136.03 414 136.03 136.05 260.48 136.05 414 260.49 691.95 414 691.95" class="__1n1KK49__cls-2"/><path d="M304.61 282.26c-66.57 0-102.57 36.68-102.57 125.67s36 125.66 102.57 125.66 102.56-36.68 102.56-125.66-35.98-125.67-102.56-125.67m0 199.69c-35.32 0-40.41-26.81-40.41-74.02s5.09-74.01 40.41-74.01 40.42 26.81 40.42 74.01-5.1 74.02-40.42 74.02M564.86 406.79v-5.86c27.17-7.46 41.35-17.78 41.35-51.07 0-46.53-32.61-60.8-71.33-60.8H433.35v237.75h100.52c27.85 0 77.43-8.84 77.43-63.85 0-37.35-14.84-49.71-46.44-56.17m-74.05-73.87h26.24c15.27 0 25.04 4.29 25.04 27.05s-9.77 22.44-25.04 22.44h-26.24zm29.29 148.87h-29.29v-54.57h29.29c16.31 0 26.74 2.32 26.74 26.43s-10.43 28.14-26.74 28.14" class="__1n1KK49__cls-1"/></svg>