<svg xmlns="http://www.w3.org/2000/svg" id="Calque_2" data-name="Calque 2" viewBox="0 0 11898.43 11898.48"><defs><style>.cls-1,.cls-2{fill:#fff;fill-rule:evenodd}.cls-2{fill:#005640}</style></defs><g id="Ebene_1" data-name="Ebene 1"><path d="M11898.43 5949.23c0 3285.69-2663.56 5949.25-5949.18 5949.25S0 9234.92 0 5949.23 2663.56 0 5949.25 0s5949.18 2663.56 5949.18 5949.23" class="cls-2"/><path d="M11782.89 5949.23c0 3221.88-2611.83 5833.72-5833.65 5833.72S115.56 9171.11 115.56 5949.23s2611.81-5833.7 5833.69-5833.7 5833.65 2611.79 5833.65 5833.69Z" class="cls-1"/><path d="M401.48 5949.23c0 3059.09 2488.75 5547.77 5547.77 5547.77s5547.73-2488.68 5547.73-5547.77S9008.29 401.45 5949.25 401.45 401.48 2890.18 401.48 5949.23" class="cls-2"/><path d="M2065.8 5949.23c0 2141.36 1742.09 3883.45 3883.45 3883.45S9832.7 8090.59 9832.7 5949.23 8090.54 2065.8 5949.25 2065.8c-2141.36 0-3883.45 1742.09-3883.45 3883.43M3922.75 10280.93c-59.23-27.52-86.7-102.67-58.58-163.21 25.67-55.41 102.71-86.72 160.62-59.87 61.91 28.74 89.98 102.6 61.84 163.21-28.72 61.84-103.34 88.02-163.88 59.87M3203.99 9188.74l201.05 160.02-382.06 1020.72-184.01-146.53 273.33-713.89-2.3-1.83-636.73 424.64-184.02-146.45zM2158.63 9627.64l-155.23-166.86 758.91-705.71 155.18 166.87zM1781.5 9218.85l-270.48-405.87c-109.4-164.3-130.32-310.89 30.32-417.89 84.61-56.36 171.91-53.55 258.1-2.85-39.81-125.16 5.69-232.23 113.24-303.9 175.13-116.62 349.03-18.03 452.86 137.84l278.51 417.96zm588.73-666.19-135.16-202.95c-49.94-74.85-117.5-124-206.91-64.41-88.22 58.72-86.26 137.64-32.31 218.52l137.61 206.61 236.76-157.77Zm-365.99 243.91-127.94-192.09c-44.32-66.38-107.5-95.82-179.94-47.54-82.18 54.71-57.19 128.82-12.13 196.49l118.24 177.51zM964.91 7764.31c-109.1-301.66 52.05-560.48 341.42-665.15 281.24-101.65 570.68-5.55 679.74 296.1 109.05 301.73-52.07 560.61-333.29 662.24-289.39 104.68-578.83 8.61-687.86-293.19Zm840.98-303.97c-69.57-192.42-259.58-205.59-422.01-146.87-170.66 61.7-308.35 193.25-238.78 385.81 69.57 192.42 259.56 205.66 430.24 143.95 162.4-58.79 300.08-190.27 230.54-382.89ZM748.63 6942.05 690.65 6386c-19.26-184.83 97.09-315.22 253.08-331.49 121.34-12.61 217.46 26.99 275.48 136.29l2.92-.28c17.33-114.26 122.32-157.31 225.56-175.34 64.53-11.11 185.98-22.29 239.59-68.76l23.61 226.74c-62.12 34.18-162.08 41.71-243.22 61.84-106.62 27.12-149.97 73.97-138.08 188.09l23.65 226.74 402.93-41.96 23.63 226.74-1031.18 107.43Zm442.86-275.43-25.94-248.36c-10.48-101.09-59.53-151.48-163.51-140.69-99.68 10.44-137.24 69.85-126.76 170.94l25.87 248.43zM1674.44 5092.67c91.51 92.97 116.34 201.79 102.97 301.08-42.89 318-305.57 473.04-601.97 433.07-305.08-41.15-517.24-260.21-474.4-578.23 28.37-210.1 184.64-391.2 421.06-384.21l-29.11 215.82c-117.18 10.58-187.58 87.53-201.95 193.99-27.4 202.9 135.07 302.47 314.87 326.75 171.24 23.1 354.17-29.9 381.57-232.8 19.79-146.76-47.91-242.34-188.62-274.51l-30.64 227.34-168.33-22.68 58.18-431.7 555.45 74.92-19.42 143.89-119.65 7.29ZM1043.21 4014.19l313.76-657.82 172.96 82.53-215.61 452.09 216.18 103.09 186.91-391.78 159.88 76.28-186.95 391.83 386.55 184.34-98.11 205.75zM1780.48 2712.74c198.46-252.04 503.38-252.11 745.09-61.68 234.93 185.01 306.31 481.42 107.85 733.48-198.46 251.99-503.4 252.04-738.29 67.02-241.76-190.38-313.16-486.81-114.65-738.82m702.42 553.23c126.62-160.76 37.4-328.99-98.29-435.87-142.57-112.25-327.02-159.58-453.62 1.23-126.67 160.8-37.4 328.99 105.12 441.24 135.69 106.88 320.2 154.18 446.79-6.6" class="cls-1"/><path d="m2365.28 2092.23 353.29-273.84c212.23-164.48 474.84-154.99 685.54 116.85 184.02 237.46 199.38 508.36-50.71 702.14l-353.29 273.86-634.84-819.02Zm697.53 528.03 160.6-124.49c104.43-80.89 154.42-222.51 13.93-403.7-128.01-165.2-267.17-226.3-446.12-87.53l-128.49 99.57 400.09 516.15ZM3811.59 1930.75c58.07 125.14 178.16 128.63 288.84 77.25 72.37-33.67 173.23-106.07 128.59-202.25-47.05-101.39-195.96-53.09-351.37-25.76-156.75 27.96-322.72 39.39-404.65-137.1-89.29-192.26 49.6-368.89 219.54-447.81 196.24-91.09 416.43-89.22 517.36 128.08l-200.22 92.92c-59.2-110.19-152.96-101.83-251.71-56.01-65.87 30.57-129.4 93.71-92.71 172.72 33.67 72.44 82.72 60.89 346.56 11.97 76.44-14.65 307.4-69.02 406.45 144.35 80.1 172.56 4.37 364.61-251.16 483.24-208.13 96.58-450.73 84.36-555.73-148.65l200.22-92.95ZM4397.85 937.17l456.12-101.97c252.11-56.31 385.58 81.88 422.35 246.2 36.75 164.25-25.23 346.19-277.31 402.52l-233.75 52.28 81.1 362.6-222.37 49.69zm328.82 426.21 172.77-38.67c103.43-23.1 190.4-66.35 161.57-195.22-28.79-128.93-125.95-130.97-229.36-107.92l-172.79 38.67zM5997.9 702.05c320.84 4.47 506.23 246.64 501.9 554.41-4.21 299.09-196.24 535.97-517.1 531.45-320.84-4.47-506.2-246.6-501.99-545.69 4.26-307.79 196.35-544.69 517.2-540.18Zm-12.5 894.23c204.66 2.89 284.14-170.25 286.5-343.02 2.57-181.47-72-356.76-276.68-359.56-204.71-2.89-284.07 170.25-286.64 351.69-2.36 172.77 72.12 348.04 276.82 350.88ZM6845.59 789.99l540.66 141.62c179.76 47.05 260.79 201.86 221.12 353.52-30.92 117.99-101.83 193.92-224.63 209.82l-.67 2.78c100.77 56.45 104.08 169.85 84.61 272.82-12.34 64.32-44.62 181.91-20 248.36l-220.49-57.77c-10.16-70.15 18.03-166.36 27.8-249.31 12.06-109.38-16.48-166.38-127.41-195.4l-220.49-57.77-102.67 391.85-220.49-57.77zm101.72 511.34 241.53 63.32c98.25 25.67 162.72-2.43 189.18-103.57 25.37-96.93-16.94-153.03-115.21-178.74l-241.58-63.3zM8122.83 1419.48l-276.52-141.68 87.34-170.53 756.02 387.2-87.39 170.59-276.59-141.64-385.19 752.09-202.95-103.94zM8606.33 2287.29c-86.51 107.48-36.41 216.7 58.65 293.16 62.19 50.08 171.75 108.43 238.2 25.87 70.1-87.14-39.11-199.25-132.43-326.47-94.45-128.15-178.18-271.94-56.22-423.53 132.89-165.18 352.71-118.73 498.64-1.32 168.56 135.58 264.44 333.83 114.26 520.51l-172.03-138.35c72.69-101.83 23.65-182.26-61.17-250.51-56.61-45.52-141.36-74.55-195.96-6.69-50.04 62.23-17.89 101.09 142.73 316.08 46.98 62.05 197.93 244.93 50.52 428.25-119.19 148.19-324.99 165.32-544.46-11.25-178.74-143.82-275.16-366.76-112.69-564.04l171.96 138.28ZM10057.01 2726.81l413.46 600.01-157.7 108.68-284.18-412.31-197.23 135.88 246.27 357.39-145.85 100.49-246.28-357.39-352.57 243.01-129.3-187.7zM10817.31 4015.09c119.19 297.91-33.1 562.1-318.88 676.45-277.66 111.09-570.17 24.86-689.36-273.05-119.19-297.86 33.1-562.1 310.75-673.19 285.71-114.35 578.27-28.1 697.49 269.79m-830.33 332.21c76 190.06 266.34 196.79 426.82 132.59 168.49-67.44 301.59-203.55 225.58-393.61-76.07-190.08-266.41-196.77-434.9-129.37-160.43 64.2-293.6 200.33-217.51 390.39ZM11060.92 4830.61l76.14 553.72c25.3 184.09-86.65 318.18-241.99 339.5-120.83 16.69-218.13-19.76-279.76-127.04l-2.92.35c-13.56 114.7-117.04 161.2-219.61 182.63-64.09 13.22-185.1 28.37-237.11 76.58l-31.06-225.79c60.96-36.27 160.62-47.03 240.97-69.85 105.7-30.62 147.4-78.85 131.8-192.46l-31.06-225.79-401.27 55.2-31.06-225.81 1026.92-141.22Zm-433.53 289.7 34.04 247.36c13.91 100.72 64.48 149.42 168.09 135.16 99.19-13.63 134.79-74.25 121.02-174.94l-34.04-247.38-289.11 39.81ZM11180.53 6041.41l-63.88 772.42-190.93-15.8 45.08-545.3-221.3-18.3-41.36 500.46-176.5-14.49 41.36-500.53-253.19-20.97-45.97 556.89-190.93-15.74 64.82-784.02zM11054 7150.53l-68.76 215.84-793.9 201.1-.88 2.78 662.58 211.14-64.82 203.34L9800.51 7670l69.29-217.19 792.1-200.14.88-2.8-661.25-210.66 64.83-203.34zM10636.6 8277.45l-104.63 202.47-920.5-475.93 104.63-202.4zM10377.32 8776.76l-136.22 180.85-815.55-72.91-1.69 2.39 555.18 418.21-128.36 170.45-827.62-623.52 137.1-181.93 813.44 73.11 1.71-2.31-554.04-417.47 128.43-170.39zM8422.45 9516.58c-3.26-130.25 53.02-226.74 130.67-289.92 248.7-202.67 546.24-136.22 735.21 95.61 194.32 238.54 199.34 543.44-49.37 746.11-164.3 133.84-402.08 159.07-569.76-7.59l168.76-137.57c92.76 72.35 196.7 64.41 279.97-3.38 158.65-129.3 108.29-312.93-6.3-453.62-109.17-133.91-278.81-220.35-437.47-91.07-114.79 93.5-130.72 209.52-50.11 329.2l177.86-144.9 107.27 131.67-337.6 275.09-354.01-434.36 112.55-91.74 92.3 76.49ZM7882.25 10299.3c-59.46 26.99-134.4-1.16-162.05-61.91-25.16-55.52 1.16-134.47 59.32-160.9 62.12-28.21 136.43-1.37 164.09 59.39 28.21 62.12-.53 135.83-61.35 163.42ZM4745.51 11034.98l-198.23-63.74 203.9-633.77-245.72-79.06 48.05-149.44c137.31 47.26 279.69 40.69 348.64-101.97l157.75 50.78zM5517.75 10126.6c252.73 35.06 315.73 221.44 302 320.24-13.91 100.21-77.51 174.25-178.16 195.89l.37-2.99-.21 1.44-.16 1.55c116.69 44.34 173.56 146.94 155.78 274.74-29.62 213.53-236.09 292.91-424.9 266.73-196.1-27.26-372.69-152.36-342.25-371.71 18.01-129.3 103.27-210.73 226.39-223.22l.42-2.99c-94.96-41.29-134.47-129.7-120.56-229.93 25.37-182.88 215.72-252.73 381.27-229.75Zm-123.72 902.22c98.8 13.7 183.95-45.5 198.09-147.19 13.49-97.3-55.92-173.58-151.75-186.86-100.21-13.98-187.95 31.66-202.46 136.22-14.53 104.52 57.35 184.13 156.13 197.83Zm64.08-472.27c84.29 11.66 158.98-25.37 171.08-112.48 7.24-52.35-5.16-144.28-133.01-162.05-82.79-11.46-162.47 29.23-174.97 119.33-12.27 88.62 54.11 143.68 136.9 155.2M6152.22 10945.13c17.64 67.95 74.11 122.99 145.85 118.38 150.67-9.91 177.31-209.98 175.69-324.5l-3.12-2.64c-51.8 84.15-124.21 122.66-223.69 129.17-87.81 5.69-179.74-29.42-242.48-89.98-58.21-59.32-88.62-142.59-93.92-223.08-13.65-209.24 120.39-383.98 334.08-397.87 310.06-20.34 411.17 244.98 428.05 503.87 16.34 250.21-76.14 542.7-367.36 561.75-177.03 11.53-315.45-83.73-350.61-262.13l197.51-12.96Zm287.15-440.38c-6.25-95.05-73.9-186.19-177.72-179.41-99.54 6.5-150.32 105.3-144.35 197.51 6.3 96.49 62.37 189.85 169.18 182.86 111.14-7.17 159.48-100 152.89-200.96M7226.58 10260.4c-31.13-62.86-97.64-105.17-166.87-85.98-145.51 40.41-130.72 241.58-105.84 353.41l3.59 2.04c33.56-92.97 96.56-145.44 192.7-172.1 84.68-23.54 181.84-7.87 255.62 38.65 69.08 46.17 115.88 121.51 137.43 199.2 56.08 202-39.53 400.39-245.79 457.6-299.44 83.06-452.46-155.94-521.89-405.94-67-241.58-36.01-546.84 245.05-624.82 171.01-47.4 325.94 17.64 396.73 185.17zm-191.21 489.75c25.5 91.81 110.26 167.21 210.61 139.4 96-26.71 125.65-133.77 100.95-222.81-25.83-93.22-99.82-173.09-202.95-144.49-107.32 29.69-135.67 130.46-108.61 227.9" class="cls-1"/><path d="M7921.11 2971.47c-264.97-176.06-554.64-317.67-862.66-418.49v1373.61l862.66 1494.21V2971.46ZM7058.42 9345.5c308.04-100.81 597.69-242.41 862.66-418.49V7887.22h-862.66v1458.27ZM9521.97 5949.23c0-971.67-390.07-1853.85-1021.69-2498.57v2973.36l645.97 1118.77c240.23-480.05 375.72-1021.2 375.72-1593.57ZM8500.28 8447.77c167.54-171.01 317.86-358.89 448.67-560.54h-448.67zM6479.17 2415.83c-102.46-15.32-206.47-25.74-311.56-32.15l311.56 539.65zM5419.32 2415.83v496.02l304.69-527.75c-102.74 6.46-204.43 16.76-304.69 31.73M5419.32 9482.67c172.93 25.76 349.87 39.32 529.93 39.32s356.95-13.56 529.93-39.32V7887.22H5419.33v1595.45ZM3977.39 8927.01c264.97 176.08 554.67 317.67 862.66 418.49V7887.23h-862.66v1039.79ZM4840.08 2552.98c-308 100.81-597.69 242.43-862.66 418.49v2437.81l862.66-1494.21zM3398.22 3450.66c-631.64 644.72-1021.73 1526.89-1021.73 2498.57 0 569.87 134.33 1108.92 372.76 1587.32l649-1124.05V3450.66h-.02ZM3398.22 8447.84v-560.61h-448.69c130.79 201.72 281.11 389.56 448.69 560.61M5945.94 2418.74c41.8 72.42 2994.47 5186.57 3036.31 5258.96H2909.62c41.82-72.39 2994.49-5186.54 3036.31-5258.96Z" class="cls-2"/><path d="M3037.7 7603.81h5816.45L5945.94 2566.63z" class="cls-1"/><path d="m5945.94 2788.49 1358.01 2352.16 1358.13 2352.23H3229.82l1358.06-2352.23z" class="cls-2"/><path d="M6622.99 4766.71c43.12 112.18 43.12 258.82 0 370.95-51.8 103.5-112.16 172.61-189.78 267.45-155.27 138.01-396.82 232.9-439.99 448.55-8.61 34.51 25.85 51.77 51.75 69.01l77.67-25.87c241.53-198.44 457.21-483.11 759.07-543.49 112.22 0 207.07 34.48 284.79 103.5 77.58 120.79 155.27 284.72 77.58 431.33-34.44 112.18-198.39 189.76-112.16 327.81 60.48 129.44 103.61 293.33 34.58 439.99l-129.44 155.27c-163.88 112.16-388.17 60.41-543.51-8.61l-284.65-310.54c-94.87-129.44-129.37-293.33-276.06-388.24-146.62-34.51-224.29 129.37-301.96 215.61-120.72 232.97-284.65 560.8-586.58 586.72-129.4 25.9-276.11 8.61-379.61-60.41-86.26-77.62-103.5-189.78-112.16-301.93 17.27-112.16 112.16-207 69.01-327.83-103.5-155.27-207.07-327.81-120.79-526.22 25.9-120.76 163.93-181.15 258.82-232.9 388.22-112.18 612.5 293.33 888.59 474.45 51.77 0 112.11 25.9 146.66-34.48 17.27-25.9 8.59-69.01-8.61-94.94-224.33-198.39-491.71-388.17-664.28-646.99-86.26-155.27-43.12-379.56 77.6-517.61 86.28-77.62 198.46-103.5 301.96-103.5 155.27-17.27 267.45 172.54 422.7 77.6 120.79-94.87 284.72-129.4 439.99-86.26 112.13 51.8 198.39 129.42 258.8 241.58Z" class="cls-1"/><path d="M5999.4 6621.46c-25.9 94.94-94.89 198.46-189.83 232.9-43.09 0-77.6 8.68-103.5-17.22-8.61-51.8 77.67-103.48 86.26-163.95 69.06-137.98 60.41-301.93 103.55-457.21 34.51-25.9 86.26-17.22 94.94 34.51 25.83 112.16 43.09 258.82 8.59 370.97Z" class="cls-1"/><path d="M5986.14 4834.15h153.82l-240.59 707.86h-140.99l-238.57-707.86h158.73l151.82 536.29h1.99zM5011.76 6527.89h-147.89v-707.83h503.8v125.19h-355.91v159.69h311.56v125.23h-311.56zM6655.67 6527.89h-147.89v-707.83h503.8v125.19h-355.91v159.69h311.49v125.23h-311.49z" class="cls-2"/></g></svg>