<svg xmlns="http://www.w3.org/2000/svg" xml:space="preserve" id="ffc" x="0" y="0" version="1.1" viewBox="0 0 1080 1080"><style>.st0{fill:#fff}.st1{fill:#e04403}.st2{fill:#54565a}</style><path d="M529.2 280c-79.1 15-204.5 21.9-274 6.3l137.2 118.1 4.5 543.3c17-52.3 61-127.4 130.8-171.4l3-137 85.9-38.9-.2-113.3-87.2 37.1z" class="st0"/><path d="M824.8 127.1 778 161.3c-35.7 28.7-106.4 73.5-140.5 86.2l-14.7 5.5v514c-59 29.2-146.5 118.7-174.6 204.1l-25.7 78 62.4-54.3c74.9-69 161.3-90.2 238.5-102.9 12.4-2 24.6-3.8 34.9-5.3l19.3-2.8-6.1-579.3z" class="st0"/><path d="m607.2 214.2-13.9-42.1 79.4-101.8-17.5 102.3z" class="st1"/><path d="m606.1 220.8-18.2-51.7 93.4-118-19 124.1zM577.6 296.8l-42.9-48.6L560 99.8l50.3 140.4zM586.4 164.6l-19.8-56.1L639.5 31l-19.7 92.6z" class="st0"/><path d="M515 292c-73.1 13.9-172.3 18.8-236.6 4.4l126.9 100.8-.1 508c15.8-48.3 45.3-102.3 109.8-143V627.1l92.1-45.8-.2-85.1-91.9 40z" class="st2"/><path d="M633.2 261.1v513.3C583.4 790.5 491.3 881.5 462 970.5c79-72.8 164.7-95.3 245.6-108.5 11.9-1.9 23.7-3.7 35.3-5.4V298.2L780 171.3c-35 28.1-108.8 75.7-146.8 89.8" class="st2"/><g id="Sparks_7_"><path d="m607.2 214.2-13.9-42.1 79.4-101.8-17.5 102.3zM575 288.6l-35.1-42.2 19.8-127.6 42.2 122.8zM587.4 157.3l-16.1-47.6 61.1-68.8-17.1 80.7z" class="st1"/></g></svg>