<svg xmlns="http://www.w3.org/2000/svg" width="40" height="40" fill="none"><path fill="#000" d="m7.476 40 12.654-7.306L32.783 40l.01-38.004-.304-.096C28.485.64 24.043 0 19.846 0h-.074c-4.223.007-8.12.662-12.142 1.944l-.15.047"/><path fill="#fff" d="M9.945 3.176q.64.873 1.246 1.76.206-1.057.449-2.114.252-.048.505-.092a61 61 0 0 0-.74 3.281 61 61 0 0 0-1.962-2.718q.25-.06.5-.117zM14.282 4.592q-.627.086-1.252.188-.105.37-.206.741-.234.04-.466.084.432-1.63.968-3.25.961 1.396 1.828 2.829-.24.028-.477.059-.195-.327-.396-.65zm-.237-.378a59 59 0 0 0-.583-.9 54 54 0 0 0-.313 1.034q.448-.071.896-.135M15.753 2.236l.236 2.449q.429-.041.859-.075l.03.406q-.642.05-1.286.118l-.305-2.85q.232-.025.466-.047M17.083 3.551c-.028-.402.103-.76.402-1.068a1.58 1.58 0 0 1 1.122-.487c.44-.015.824.124 1.14.414q.472.436.469 1.05c0 .413-.154.762-.453 1.052q-.447.434-1.078.456a1.57 1.57 0 0 1-1.03-.337 1.42 1.42 0 0 1-.572-1.08m.456-.024q.03.475.374.762c.228.192.48.283.764.274q.459-.015.771-.331.314-.32.311-.773a1 1 0 0 0-.332-.764 1.1 1.1 0 0 0-.813-.292c-.32.01-.585.128-.792.346a1 1 0 0 0-.283.778M21.353 2.039l-.044 1.726q-.01.369.11.543a.62.62 0 0 0 .51.265q.333.014.53-.222.133-.16.154-.533l.096-1.724.466.028-.12 1.842q-.032.451-.336.727-.341.306-.807.287a1.09 1.09 0 0 1-.778-.351q-.282-.3-.276-.752l.028-1.845q.234.003.467.009M24.867 3.918q.395.657.764 1.32l-.533-.066q-.344-.63-.713-1.255l-.081-.007-.11 1.168q-.217-.02-.436-.039l.238-2.856.546.048q.611.061.857.305.27.27.222.658a.8.8 0 0 1-.245.498.84.84 0 0 1-.51.225zm-.528-.383.144.014c.428.042.658-.088.694-.4.032-.29-.163-.462-.588-.503l-.165-.016zM28.03 3.892q-.352-.062-.705-.12l.102-.632q.544.089 1.087.19c.22-.15.375-.232.638-.261A46 46 0 0 0 27.06 2.7l-.4 2.634.403.063.202-1.252q.33.053.662.112.003-.025.007-.051.03-.166.096-.314zM30.028 3.588q.39.087.687.458l.111-.463a1.5 1.5 0 0 0-.687-.359 1.7 1.7 0 0 0-.428-.04q-.398.014-.733.236-.034.021-.07.046a1.32 1.32 0 0 0-.52.824q-.005.025-.008.051a1.32 1.32 0 0 0 .233.98q.328.47.894.595.376.084.764-.024l.113-.472a2 2 0 0 1-.22.093q-.104.036-.194.051a.9.9 0 0 1-.377-.015 1 1 0 0 1-.639-.43.96.96 0 0 1-.149-.753.96.96 0 0 1 .435-.644 1 1 0 0 1 .786-.134z"/><path fill="#BC955C" d="m19.846 0 .117.002.093-.001z"/><path fill="#BC955C" d="M32.489 1.9C28.522.65 24.126.013 19.963 0c-4.191.017-8.34.67-12.334 1.944l-.149.047-.004 38.007 12.654-7.306 12.653 7.306.01-38.004zm-.166 11.065-3.74 2.17-.301.709 4.041-2.344-.001 4.087-2.76 1.6q.06.24.107.481l2.653-1.539-.001 4.17-2.775 1.609q-.084.332-.191.653l2.966-1.72-.003 10.33-6.525-3.779q-.21.152-.43.293l6.955 4.025v2.732l-9.626-5.573q-.33.09-.668.157l10.294 5.956v2.207L20.13 32.154 7.945 39.189V36.98l10.283-5.964a10 10 0 0 1-.662-.159l-9.621 5.58-.002-4.168 5.883-3.412a9 9 0 0 1-.364-.33l-5.519 3.2-.001-4.085 3.44-1.996a10 10 0 0 1-.188-.426L7.94 27.107 7.935 2.338A40.6 40.6 0 0 1 19.963.468c4.108.012 8.45.64 12.363 1.87z"/><path fill="#BC955C" d="M29.177 11.486h-.7a.11.11 0 0 0-.1.066l-5.762 13.375a.14.14 0 0 1-.128.086H20.95c-.1 0-.168-.106-.126-.2l5.453-12.595.23-.531c.04-.095-.026-.201-.127-.201h-.474a.14.14 0 0 0-.126.084l-.28.648-5.503 12.71a.14.14 0 0 1-.126.085h-1.576c-.1 0-.168-.106-.126-.2l.712-1.664.39-.9.842-1.944.39-.9 3.126-7.184.238-.549a.13.13 0 0 0-.12-.183H21.68c-.1 0-.167.104-.128.198l.182.446a.14.14 0 0 0 .128.088h.773c.1 0 .168.107.126.2l-2.518 5.788a.138.138 0 0 1-.253 0l-2.482-5.787c-.04-.094.027-.2.127-.2l.795-.004a.14.14 0 0 0 .13-.091l.165-.447c.035-.094-.032-.194-.13-.194l-2.06.004c-.1 0-.167.106-.127.2l.228.532 3.064 7.124a.15.15 0 0 1 0 .116l-.816 1.885-.39.9-.911 2.1c-.049.112-.402.107-.448-.006L12.188 12.22l-.263-.645a.14.14 0 0 0-.128-.088H9.75c-.099 0-.166.104-.127.198l.182.447c.021.052.126.087.182.087h1.338c.056 0 .107.035.128.088l5.28 12.939.13.315.032.085a.14.14 0 0 0 .13.09h.033l.7.003 1.959-.003h3.252a.14.14 0 0 0 .127-.085l5.745-13.345a.14.14 0 0 1 .128-.087h1.389a.14.14 0 0 0 .13-.091l.165-.447a.142.142 0 0 0-.13-.194h-1.346"/><path fill="#7F2629" d="M26.071 20.56q.086.498.087 1.022a6.03 6.03 0 0 1-6.024 6.024 6.03 6.03 0 0 1-5.977-6.778l-1.619-3.968a8.943 8.943 0 0 0 7.596 13.664 8.943 8.943 0 0 0 7.556-13.727l-1.62 3.762z"/><path fill="#fff" d="M13.476 25.657c.39 0 .706-.326.706-.727a.717.717 0 0 0-.706-.727.717.717 0 0 0-.705.727c0 .401.316.727.705.727M26.794 25.657c.39 0 .706-.326.706-.727a.717.717 0 0 0-.706-.727.717.717 0 0 0-.706.727c0 .401.316.727.706.727M15.149 26.32l-.26.965c-.006.023.02.042.039.03l.859-.556c.02-.014.045.006.038.029l-.286.975a.026.026 0 0 0 .038.03l.864-.524a.03.03 0 0 1 .029.002l.154.113a.026.026 0 0 1-.002.043l-1.407.841a.026.026 0 0 1-.038-.029l.284-.963c.006-.023-.02-.042-.04-.029l-.847.55a.026.026 0 0 1-.039-.028l.409-1.575a.025.025 0 0 1 .04-.014l.154.113a.024.024 0 0 1 .01.027M17.133 27.585l-.615 1.325a.026.026 0 0 1-.034.013l-.16-.074a.026.026 0 0 1-.012-.035l.615-1.325c.006-.012.021-.018.034-.012l.16.074a.026.026 0 0 1 .013.034M17.177 29.2l.385-1.44a.04.04 0 0 1 .073-.009l.688 1.256c.012.02.042.017.048-.006l.248-.928a.025.025 0 0 1 .031-.018l.17.045a.025.025 0 0 1 .019.031l-.383 1.43a.04.04 0 0 1-.073.009l-.69-1.254a.026.026 0 0 0-.047.006l-.25.936a.025.025 0 0 1-.03.018l-.171-.046a.025.025 0 0 1-.018-.031M19.232 29.651l.03-1.49a.04.04 0 0 1 .07-.025l.968 1.055c.016.017.045.007.045-.017l.02-.96c0-.014.011-.026.025-.026l.177.004c.014 0 .025.012.025.026l-.03 1.48a.04.04 0 0 1-.068.025l-.97-1.052c-.015-.017-.044-.006-.044.017l-.02.968a.026.026 0 0 1-.026.025l-.176-.003a.026.026 0 0 1-.026-.027M21.283 28.107l.219 1.444a.026.026 0 0 1-.022.03l-.174.026a.026.026 0 0 1-.03-.022l-.218-1.444a.026.026 0 0 1 .021-.03l.175-.026a.026.026 0 0 1 .03.022M22.233 28.817l.157.54a.026.026 0 0 1-.017.032l-.169.049a.026.026 0 0 1-.032-.017l-.41-1.402a.026.026 0 0 1 .018-.032l.223-.065q.183-.054.283-.055a.4.4 0 0 1 .193.047q.161.087.216.272a.42.42 0 0 1-.042.355.55.55 0 0 1-.326.222l-.077.022a.025.025 0 0 0-.017.032m-.066-.228.081-.024q.302-.09.234-.32-.066-.225-.377-.135l-.072.021.133.458M23.7 27.467l-.498.242a.03.03 0 0 0-.012.035l.136.28a.026.026 0 0 0 .035.012l.483-.235a.03.03 0 0 1 .035.012l.07.147a.03.03 0 0 1-.012.034l-.483.235a.03.03 0 0 0-.012.035l.199.408a.026.026 0 0 0 .035.012l.498-.242a.03.03 0 0 1 .035.012l.07.146a.03.03 0 0 1-.011.035l-.705.342a.03.03 0 0 1-.034-.012l-.639-1.314a.03.03 0 0 1 .012-.035l.704-.342a.03.03 0 0 1 .035.012l.07.146a.03.03 0 0 1-.011.035M25.038 27.199a.026.026 0 0 1 .005-.036l.474-.367.03.04q.104.135.153.263.044.12.035.26a.68.68 0 0 1-.279.516.74.74 0 0 1-.57.151.76.76 0 0 1-.517-.299.76.76 0 0 1-.16-.582.76.76 0 0 1 .303-.524.8.8 0 0 1 .306-.145q.15-.032.346.004a.03.03 0 0 1 .022.03l-.026.17c-.002.015-.017.024-.032.02a.54.54 0 0 0-.482.09.54.54 0 0 0-.217.377.55.55 0 0 0 .12.421.54.54 0 0 0 .399.219q.227.016.383-.105a.45.45 0 0 0 .17-.276.4.4 0 0 0-.034-.281c-.007-.014-.027-.018-.039-.008l-.254.196a.026.026 0 0 1-.036-.005z"/><path fill="#000" d="M34.094 9.398a.34.34 0 0 0 .09-.148c.059-.192-.06-.397-.267-.458l-.02-.006a.34.34 0 0 0 .103-.16c.056-.192-.066-.398-.275-.457A47 47 0 0 0 33 7.968l-.023-.006a47 47 0 0 0-2.224-.544 54 54 0 0 0-2.241-.439 45 45 0 0 0-1.116-.178l-.01-.001a48 48 0 0 0-3.384-.384 54 54 0 0 0-2.27-.126.4.4 0 0 0-.31.13q-.398.45-.783.906a51 51 0 0 0-1.01 0 50 50 0 0 0-.784-.907.4.4 0 0 0-.31-.13 46 46 0 0 0-2.27.127 46 46 0 0 0-2.265.23q-.56.07-1.118.154l-.01.001a57 57 0 0 0-1.116.178 46 46 0 0 0-2.241.44 49 49 0 0 0-2.972.75c-.208.06-.33.266-.275.457a.34.34 0 0 0 .103.16l-.02.006c-.206.06-.326.267-.268.458q.028.087.091.149a.364.364 0 0 0-.159.41.37.37 0 0 0 .36.253.35.35 0 0 0 .006.173.37.37 0 0 0 .464.24l.02-.005a.35.35 0 0 0 .002.189.37.37 0 0 0 .457.244q.34-.097.683-.19l.021-.005a47 47 0 0 1 4.209-.926 46.6 46.6 0 0 1 6.388-.65.37.37 0 0 0 .285-.146q.354-.47.724-.935.497-.005.995 0 .37.464.724.935c.069.09.171.143.284.147a48 48 0 0 1 3.209.214 44 44 0 0 1 2.13.267 43 43 0 0 1 2.109.363 44 44 0 0 1 2.105.463 47 47 0 0 1 1.75.464.37.37 0 0 0 .458-.244.35.35 0 0 0 .002-.19l.02.006a.37.37 0 0 0 .463-.24.35.35 0 0 0 .007-.174.37.37 0 0 0 .359-.252.364.364 0 0 0-.16-.41z"/><path fill="#BC955C" d="M6.555 9.277q.362-.108.727-.21a.166.166 0 0 0 .12-.202c-.023-.087-.116-.135-.208-.11q-.366.104-.732.213c-.091.027-.144.118-.118.204s.12.132.21.106zM7.678 9.857a.164.164 0 0 0-.205-.11q-.36.1-.717.207a.165.165 0 0 0-.114.204.165.165 0 0 0 .207.107q.354-.107.711-.207a.165.165 0 0 0 .118-.2zM33.514 9.954q-.358-.106-.716-.208a.165.165 0 0 0-.206.11.164.164 0 0 0 .118.2q.356.101.712.207a.165.165 0 0 0 .206-.107.165.165 0 0 0-.114-.203M32.868 8.865a.166.166 0 0 0 .12.201q.365.104.728.21c.09.028.184-.02.21-.105s-.026-.177-.117-.204a48 48 0 0 0-.733-.213.166.166 0 0 0-.208.11"/><path fill="#BC955C" d="M33.878 9.526a48 48 0 0 0-1.785-.504q.386-.28.781-.552.33.09.657.185c.091.027.185-.02.21-.107.026-.085-.028-.177-.12-.203a49 49 0 0 0-.74-.209h-.002a46 46 0 0 0-2.206-.547 49 49 0 0 0-3.331-.622l-.01-.001a48 48 0 0 0-5.611-.512.17.17 0 0 0-.137.058q-.432.486-.846.98a45 45 0 0 0-1.206 0 50 50 0 0 0-.846-.98.17.17 0 0 0-.137-.058 45 45 0 0 0-2.253.126 49 49 0 0 0-3.357.386l-.01.001a48 48 0 0 0-6.28 1.379c-.092.027-.146.118-.12.204s.12.133.21.107q.33-.095.657-.186.395.273.782.553-.896.234-1.785.504a.165.165 0 0 0-.115.205c.026.085.12.132.21.105a47 47 0 0 1 1.773-.501q-.2.432-.388.866-.317.087-.631.179a.163.163 0 0 0-.114.201.164.164 0 0 0 .204.11q.35-.103.703-.198h.001a47 47 0 0 1 2.095-.52 48 48 0 0 1 2.111-.42 47 47 0 0 1 3.18-.442 44 44 0 0 1 2.138-.17q.535-.03 1.07-.048a.16.16 0 0 0 .127-.066q.381-.51.78-1.014a45 45 0 0 1 1.197 0q.399.504.78 1.014c.03.04.077.064.127.066a48 48 0 0 1 2.14.12 44 44 0 0 1 2.133.221 47 47 0 0 1 3.172.516 48 48 0 0 1 2.104.47 48 48 0 0 1 1.75.47.164.164 0 0 0 .203-.108.164.164 0 0 0-.114-.202q-.315-.09-.631-.178-.189-.434-.388-.866a48 48 0 0 1 1.774.5c.09.028.183-.02.21-.105a.166.166 0 0 0-.116-.204zM17.358 6.83q.321.345.633.692l.01.012q-.337.015-.675.035a46 46 0 0 0-.654-.694q.342-.026.684-.045zm-1.12.078q.335.342.66.69-.336.023-.674.05-.33-.342-.67-.679.34-.033.684-.06m-1.117.104q.343.335.677.673l-.341.033q-.166.016-.332.034a43 43 0 0 0-.687-.663q.34-.04.683-.077m-1.115.13q.345.322.681.646l.012.012q-.331.037-.662.081a46 46 0 0 0-.703-.647q.336-.048.672-.09zm-1.781.263q.334-.055.669-.107.359.318.709.64-.33.046-.66.098a43 43 0 0 0-.718-.631m-.431.075q.36.304.711.612l.012.011a38 38 0 0 0-.668.114 44 44 0 0 0-.733-.613q.339-.066.678-.124m-1.106.208q.375.3.739.607-.334.062-.666.13-.37-.302-.748-.597.337-.072.675-.14m-1.102.235q.38.291.754.588a47 47 0 0 0-.664.146 63 63 0 0 0-.763-.578q.336-.081.672-.156m-1.768.433q.335-.09.67-.173.381.277.755.562l.013.01q-.33.078-.661.16a45 45 0 0 0-.777-.559m1.106 1.57q-.323.08-.645.166.192-.432.395-.863.328-.082.657-.16l-.008.014q-.204.42-.4.842m1.056-.252-.647.15a56 56 0 0 1 .415-.852q.329-.075.659-.145-.219.423-.427.847m1.061-.226q-.325.067-.65.135.212-.422.434-.842.33-.067.661-.13-.227.418-.445.837m1.065-.2q-.327.057-.652.12.22-.418.453-.833.33-.058.663-.113l-.008.015q-.232.405-.456.81m1.058-.175q-.323.05-.644.103l.221-.39.25-.431q.328-.05.656-.096-.247.406-.483.814m1.071-.15q-.324.043-.646.088.24-.405.49-.81.329-.042.657-.08l-.009.013q-.25.393-.492.789m1.073-.125q-.328.035-.657.074l.238-.38.27-.419.329-.034.339-.033a45 45 0 0 0-.52.791zm1.076-.1q-.33.027-.659.058a42 42 0 0 1 .527-.786q.334-.028.67-.05-.274.387-.538.778m1.077-.075q-.33.02-.66.043.268-.388.545-.774.335-.02.67-.035l-.01.013q-.276.374-.545.753m1.078-.05q-.33.011-.66.027a44 44 0 0 1 .562-.76q.335-.012.671-.02-.291.374-.573.753m-.11-1.056a56 56 0 0 0-.638-.71q.342-.016.686-.028.318.356.628.719-.338.006-.676.019m12.256.406q.336.076.672.156a37 37 0 0 0-.763.578q-.333-.075-.664-.146.373-.297.754-.588m-1.103-.235q.337.069.675.14-.378.295-.748.597a45 45 0 0 0-.666-.13q.365-.306.739-.607m-1.106-.208q.34.06.677.124-.37.303-.733.613-.333-.06-.668-.114l.012-.01q.352-.31.712-.613m-1.1-.18q.336.05.67.106a48 48 0 0 0-.718.63q-.33-.05-.66-.097.35-.322.708-.64m-1.112-.157q.336.043.672.09-.357.321-.703.648-.33-.044-.662-.082l.011-.011q.337-.326.682-.646m-1.115-.13q.342.036.683.076a50 50 0 0 0-.687.663l-.331-.034-.342-.033q.335-.338.677-.673m-1.117-.105q.342.028.684.061-.34.337-.67.679-.337-.028-.675-.05.326-.347.66-.69m-1.119-.078q.343.02.685.045-.332.346-.655.694a46 46 0 0 0-.675-.035q.007-.006.01-.012.314-.348.635-.692m-1.12-.051q.343.012.686.028a66 66 0 0 0-.638.71q-.338-.012-.676-.02.31-.36.628-.718m-.061 1.794a47 47 0 0 0-.573-.753q.336.008.67.02a45 45 0 0 1 .564.76q-.33-.016-.66-.027zm1.078.05a48 48 0 0 0-.556-.766q.335.015.67.035.278.385.545.774-.33-.024-.66-.043m1.076.075q-.264-.39-.538-.779.335.023.67.051.267.391.526.786-.329-.03-.658-.058m1.075.1a47 47 0 0 0-.519-.791l.339.033q.165.015.33.034a41 41 0 0 1 .507.798 44 44 0 0 0-.657-.073m1.074.126a46 46 0 0 0-.493-.79l-.009-.013q.33.038.658.081.25.405.49.81-.322-.046-.646-.088m1.715.253q-.321-.054-.644-.103a51 51 0 0 0-.483-.815q.328.046.656.097a48 48 0 0 1 .471.821m.414.07a42 42 0 0 0-.456-.81l-.008-.014q.331.054.664.112.231.415.453.832a43 43 0 0 0-.653-.12m1.065.201q-.218-.419-.446-.836.33.062.662.13.223.42.433.842a43 43 0 0 0-.65-.135zm1.06.226q-.208-.424-.426-.847.33.07.66.145a57 57 0 0 1 .414.853 43 43 0 0 0-.648-.15m1.702.417a54 54 0 0 0-.645-.166q-.195-.422-.4-.842l-.008-.015q.33.078.657.16.202.431.395.863m-.316-1.175q-.33-.084-.661-.161l.013-.01q.373-.285.755-.561.336.084.67.172-.393.277-.778.56"/></svg>