<svg xmlns="http://www.w3.org/2000/svg" width="40" height="40" fill="none"><path fill="#046A38" d="m25.61 3.996-.143 1.417-.704 1.599-.094.066-.233.162H14.243l-.215-.185-.387-.781-.5-1.553.141-1.291.487-.647.98-.346.27-.095.055-.02 1.812-.669 1.69.239.056.008.313.042.844.117.072-.014.24-.044 1.505-.278.915.23.959.631.452-.058.127-.03.135-.031 1.044.58z"/><path fill="#215732" d="M24.878 7.24h-.474q-.004-.01-.003-.02 0-.026.007-.05l.012-.033.084-.171.678-1.392c.005-.01.03-.061.032-.07.896-2.563-1.025-2.928-1.48-2.978a.24.24 0 0 1-.153-.078l-.161-.187c2.318.136 2.61 1.28 2.61 1.28.387 1.187-.463 2.719-1.153 3.699M14.191 7.24h.474q.002-.01.002-.02a.2.2 0 0 0-.006-.049l-.012-.031-.084-.17-.679-1.366c-.004-.01-.029-.06-.031-.07-.896-2.515 1.025-2.873 1.48-2.923a.24.24 0 0 0 .153-.077l.161-.183c-2.318.134-2.61 1.257-2.61 1.257-.387 1.166.463 2.67 1.153 3.632"/><path fill="#215732" d="m19.998 2.302.118-.47s2.377-.693 3.716.728c0 0 1.125 1.066.02 3.476l-.816-.083s1.042-2.776-.693-3.525c0 0-1.087-.554-2.346-.126M19.032 2.302l-.119-.47s-2.377-.693-3.715.728c0 0-1.126 1.066-.02 3.476l.816-.083s-1.043-2.776.692-3.525c0 0 1.087-.554 2.346-.126"/><path fill="#89764B" d="m20.36 1.663-.972.425.249.438.6-.317"/><path fill="#89764B" d="m18.756 1.663.774.279-.043.534-.624-.273M19.978 1.331a.06.06 0 0 1 .018-.056l.408-.337-.085-.04c-.037-.014-.026-.035-.013-.086l.062-.23-.237.05c-.023.004-.038-.01-.042-.025l-.03-.108-.187.213c-.027.035-.081.035-.064-.044l.08-.432-.107.056c-.03.017-.06.02-.078-.01L19.555 0l-.148.281c-.017.031-.047.028-.077.011l-.107-.056.08.432c.016.079-.038.079-.064.044L19.052.5l-.031.108c-.004.014-.02.029-.042.026l-.237-.051.062.23c.013.051.024.072-.013.086l-.085.04.408.337a.05.05 0 0 1 .018.056l-.035.12c.131-.016.25-.038.38-.053v.42h.043l-.002.046h.068v-.047h.053v-.419c.128.015.245.037.375.052z"/><path fill="#89764B" d="M26.256 3.558s-.257-1.005-2.197-1.243c-1.42-1.39-3.699-.651-3.699-.651l-.122.541a2 2 0 0 0-.085-.156c-.172-.281-.375-.444-.595-.444-.193 0-.375.127-.532.349a2 2 0 0 0-.147.248l-.122-.538s-2.278-.74-3.698.65c-1.944.239-2.2 1.244-2.2 1.244-.387 1.187.463 2.719 1.152 3.699h.474l.001-.006h10.142v.006h.475c.69-.98 1.54-2.512 1.153-3.699M14.62 5.901l-.31.932-.605-1.243c-.004-.009-.03-.06-.032-.07-.737-2.108.432-2.728 1.124-2.91-.22.313-.782 1.364-.177 3.29m4.774-2.08.135.239.135-.283.569-.099-.32.521-.2-.047.054.176-.238.495-.237-.42.053-.193-.2.11-.32-.419.57-.082zM17.15 5.196l-1.582.739c-.221-.947-.495-2.928.864-3.582 0 0 1.133-.64 2.444-.147-.258.52-.424 1.326-.424 2.231 0 .55.061 1.063.168 1.498h-.011zm6.398.747h-.003l-1.476-.747-1.571.734a6.4 6.4 0 0 0 .166-1.493c0-.906-.166-1.712-.424-2.23 1.313-.495 2.447.146 2.447.146 1.363.656 1.083 2.647.861 3.59m1.892-.424-.032.07L24.8 6.84l-.318-.894c.628-1.953.06-3.017-.162-3.334.693.184 1.856.805 1.12 2.909"/><path fill="#043659" d="M29.63 9.792q-.168-.136-.338-.265C26.434 7.34 22.96 6.08 19.227 6.135c-3.541.05-6.821 1.274-9.544 3.334q-.178.134-.352.274-.293.233-.578.48.081.07.164.133c1.667 1.272 3.973 1.173 4.19 1.16 2.986-.005 5.577-2.303 6.406-3.123.324.32.92.865 1.706 1.415 1.594 1.115 3.218 1.706 4.698 1.709.213.012 2.462.109 4.122-1.111q.085-.063.168-.13-.285-.249-.578-.484"/><path fill="#89764B" d="M29.796 9.66q-.188-.153-.378-.298c-3.005-2.3-6.53-3.486-10.194-3.434-3.47.05-6.812 1.217-9.666 3.375q-.196.149-.39.304a18 18 0 0 0-.572.478 5 5 0 0 0 .321.271 17 17 0 0 1 .892-.722c2.782-2.105 6.04-3.243 9.42-3.291 3.568-.052 7.007 1.106 9.937 3.349a16 16 0 0 1 .873.714 4 4 0 0 0 .327-.265 17 17 0 0 0-.57-.482"/><mask id="a" width="29" height="32" x="5" y="8" maskUnits="userSpaceOnUse" style="mask-type:luminance"><path fill="#fff" d="M30.857 8.961c-1.395 2.419-4.929 2.187-4.929 2.187-3.44 0-6.416-2.807-6.416-2.807s-2.977 2.807-6.417 2.807c0 0-3.533.232-4.929-2.187 0 0-3.673 5.905-2.603 12.927 0 0 .65 12.368 13.949 17.714 13.297-5.346 13.947-17.714 13.947-17.714 1.07-7.022-2.603-12.927-2.603-12.927"/></mask><g mask="url(#a)"><path fill="#046A38" d="M8.196 18.168H4.949v37.01h3.247z"/><path fill="#043659" d="M11.443 18.196H8.196v37.01h3.247z"/><path fill="#046A38" d="M14.69 18.196h-3.247v37.01h3.247z"/><path fill="#043659" d="M17.937 18.196H14.69v37.01h3.247z"/><path fill="#046A38" d="M21.185 18.196h-3.247v37.01h3.247z"/><path fill="#043659" d="M24.432 18.196h-3.247v37.01h3.247z"/><path fill="#046A38" d="M27.678 18.196h-3.247v37.01h3.247zM34.173 18.196h-3.247v37.01h3.247z"/><path fill="#043659" d="M30.926 18.196h-3.247v37.01h3.247z"/><path fill="#046A38" d="M40.1 5.602H.546v12.625H40.1z"/></g><path fill="#89764B" d="M33.6 18.02H5.604v.415h27.998z"/><path fill="#89764B" d="M32.757 12.232a23 23 0 0 0-.701-1.742c-.486-1.077-.87-1.698-.886-1.724l-.326-.522-.307.533a3.3 3.3 0 0 1-.709.855l-.032.027a4 4 0 0 1-.343.257c-1.478.978-3.479.865-3.5.864l-.025-.001c-3.232 0-6.114-3.131-6.142-3.163l-.273-.301-.274.3c-.029.033-2.905 3.164-6.144 3.164h-.024c-.022.002-2.084.119-3.567-.91a3 3 0 0 1-.306-.236l-.03-.026a3.317 3.317 0 0 1-.682-.83l-.308-.533-.325.523c-.014.023-.356.575-.802 1.54-.287.62-.552 1.271-.789 1.936-.78 2.198-1.607 5.605-1.112 9.358.015.114.03.22.046.326.016.27.212 2.91 1.689 6.253a21.7 21.7 0 0 0 3.518 5.534c1.798 2.056 4 3.776 6.548 5.113.773.406 1.59.782 2.424 1.118l.138.055.137-.055c.84-.338 1.656-.714 2.425-1.118 2.546-1.338 4.749-3.058 6.547-5.113a21.7 21.7 0 0 0 3.517-5.534c1.477-3.344 1.673-5.986 1.689-6.253q.026-.175.046-.33c.494-3.757-.335-7.167-1.117-9.365m.386 9.27-.047.332-.004.035c-.05.922-.457 3.372-1.64 6.041a21 21 0 0 1-3.399 5.333c-1.735 1.98-3.862 3.639-6.322 4.93-.705.37-1.45.718-2.218 1.032a26 26 0 0 1-2.22-1.031c-2.46-1.292-4.586-2.95-6.322-4.93a21 21 0 0 1-3.4-5.334c-1.183-2.669-1.59-5.119-1.64-6.041l-.003-.036-.047-.328c-.475-3.608.323-6.894 1.077-9.015a22 22 0 0 1 .762-1.873c.183-.395.348-.718.477-.96a4 4 0 0 0 .72.699c1.667 1.272 3.973 1.173 4.19 1.16 2.986-.005 5.577-2.303 6.406-3.123.324.32.92.865 1.706 1.415 1.594 1.115 3.218 1.706 4.698 1.709.213.012 2.462.109 4.122-1.111a4 4 0 0 0 .272-.216l.055-.05a4 4 0 0 0 .46-.483 19 19 0 0 1 .558 1.136c.245.543.473 1.11.678 1.686.597 1.68 1.223 4.089 1.223 6.811 0 .718-.043 1.458-.142 2.212"/><path fill="#fff" d="m9.85 12.805-.87 2.899v1.57h-.708v-1.57l-.862-2.9h.74l.473 1.604.485-1.603zM11.043 17.326q-.46 0-.74-.262-.32-.306-.32-.837v-2.375q0-.53.32-.836.28-.262.74-.262t.74.262q.32.306.32.836v2.375q0 .531-.32.837-.28.261-.74.262m0-3.87q-.179 0-.262.076-.095.09-.095.32v2.375q0 .23.095.32.084.076.262.076c.12 0 .211-.026.262-.077q.096-.083.096-.319v-2.375q0-.236-.096-.32-.077-.076-.262-.076M14.657 17.274h-.715l-.364-1.794h-.32v1.794h-.701v-4.47h1.06q.453 0 .74.269.32.293.32.83v.479q0 .543-.32.836a.7.7 0 0 1-.102.084zm-.683-3.371q0-.224-.096-.32-.082-.075-.262-.076h-.357v1.271h.357q.18 0 .262-.076.096-.09.096-.32zM16.432 14.925l.9 2.35h-.753l-.543-1.431-.243.555v.875h-.702v-4.47h.703v1.814l.778-1.814h.76zM19.561 17.326q-.46 0-.74-.262-.32-.306-.32-.837v-3.422h.703v3.422q0 .236.09.32.082.076.267.076c.123 0 .206-.025.262-.076q.096-.09.096-.32v-3.422h.702v3.422q0 .517-.32.837a1.07 1.07 0 0 1-.74.262M23.258 12.805v4.47h-.409l-1.072-2.268v2.267h-.703v-4.47h.41l1.072 2.26v-2.26zM23.744 17.274v-4.47h.702v4.47zM26.898 12.805v.702h-.715v3.767h-.703v-3.767h-.715v-.702zM29.062 13.507h-1.15v1.124h.793v.703h-.792v1.238h1.15v.703H27.21v-4.47h1.852zM30.556 17.274h-1.06v-4.47h1.06q.454 0 .74.269.32.293.32.83v2.299q0 .261-.076.466a.95.95 0 0 1-.25.358q-.273.249-.734.249m-.357-.702h.357q.192 0 .268-.07.09-.076.09-.3v-2.3q0-.223-.096-.318-.084-.077-.262-.077H30.2z"/><path fill="#fff" fill-rule="evenodd" d="m14.77 21.12-.586-.578c-.221-.359-.058-.73.295-.86-.567-.27-1.258-.156-1.511.384-.59-.482-1.79-.587-2.01.472.99-.27 1.307.172 1.83.639l2.987 2.943v-2.01l-.867-.854zm11.496-1.054c-.253-.54-.944-.654-1.51-.385.378.055.61.445.294.861l-1.693 1.67-1.432 1.41-2.308 2.276-1.913-1.886v2.01l1.197 1.181v6.302q.334.128.715.13h.001c.254 0 .495-.046.715-.13v-6.302l1.3-1.28v-.002l1.432-1.41v-.002l3.38-3.332c.526-.467.842-.91 1.833-.64-.22-1.058-1.421-.954-2.01-.471m-5.934 15.94v-.638q-.347.065-.715.065a4 4 0 0 1-.716-.065v.638c-.043.82-.38 1.13-.985.928.132.818 1.288.981 1.701.222.393.72 1.563.636 1.702-.222-.604.201-.942-.108-.986-.928" clip-rule="evenodd"/><path fill="#fff" fill-rule="evenodd" d="M21.78 26.07v5.757a2.14 2.14 0 0 1-2.162 2.016h-.001a2.14 2.14 0 0 1-2.161-2.016v-9.953c.033-.635.268-1.171 1-.928-.133-.817-1.29-.98-1.703-.221-.414-.76-1.569-.596-1.701.221q.907-.302.972.928v9.953c.077 1.89 1.62 3.398 3.593 3.398 1.975 0 3.517-1.508 3.594-3.398V24.66z" clip-rule="evenodd"/><path fill="#fff" fill-rule="evenodd" d="M23.21 22.063v-.19q.064-1.23.972-.927c-.132-.817-1.287-.981-1.7-.222-.415-.76-1.57-.595-1.703.222.605-.202.956.108 1 .928v1.6z" clip-rule="evenodd"/></svg>