<svg xmlns="http://www.w3.org/2000/svg" style="shape-rendering:geometricPrecision;text-rendering:geometricPrecision;image-rendering:optimizeQuality;fill-rule:evenodd;clip-rule:evenodd" viewBox="0.02 16.5 998.48 968"><path fill="#fdf407" d="M998.5 17.5v229q-5.39 108.385-22.5 216-13.894 86.08-46 167-27.072 62.495-72 113-77.403 86.45-174.5 148.5-86.774 55.39-183 93.5-162.488-63.178-293-176.5-44.451-40.445-82.5-86.5-46.744-60.474-70-134a1081 1081 0 0 1-40-191Q-6.651 206.963 3 16.5q118.004 40.75 243 40 130.442.218 254.5-40 248.907 79.468 498 1" style="opacity:.983"/><path fill="#0666fe" d="M970.5 52.5h3q-.401 2.398 1 4 5.844 181.242-17.5 361a933.3 933.3 0 0 1-44 186q-27.37 71.792-79 128-92.224 99.16-209.5 165.5A1128 1128 0 0 1 500 957.5Q343.616 893.498 217.5 783q-55.448-49.917-96.5-111.5-34.75-59.213-52-126a1286 1286 0 0 1-35-210 2615 2615 0 0 1-7.5-284q204.338 55.32 411 8.5A1242 1242 0 0 0 500 42.5Q695.928 104.637 898.5 69a1406 1406 0 0 0 72-16.5" style="opacity:1"/><path fill="#719e9a" d="M970.5 52.5q1.602-1.401 4-1v5q-1.401-1.602-1-4z" style="opacity:1"/><path fill="#fef404" d="M906.5 101.5h3v44a2032.7 2032.7 0 0 1-26.5 320 789 789 0 0 1-40 146q-25.124 56.796-66 103-117.615 130.537-277 204-150.234-69.62-264-190a489.8 489.8 0 0 1-63-85q-28.928-57.28-43-120a1501 1501 0 0 1-33-236 2305 2305 0 0 1-5.5-187q207.155 40.906 408.5-23 200.097 63.687 406.5 24" style="opacity:1"/><path fill="#74a392" d="M906.5 101.5q1.602-1.401 4-1a507 507 0 0 1-1 45v-44z" style="opacity:1"/><path fill="#1969f9" d="M160.5 141.5a32.6 32.6 0 0 1 4 4.5q-37.22 39.534-13.5 88.5 13.667 18.477 36.5 15v-87q-5.916-.702-11-4a15 15 0 0 0-3.5 3l-1 61a307 307 0 0 0-14.5 15q-5.793-3.55.5-7a676 676 0 0 0 0-52 36.3 36.3 0 0 1-9.5 8q-2.674-1.272-1.5-4a1101 1101 0 0 1 39-40 34.7 34.7 0 0 0 6.5 7.5q2.5 1 5 0a52 52 0 0 0 8-5.5q1.83.58 2 2.5a158 158 0 0 1-14.5 15.5 1848 1848 0 0 0 0 86 74.4 74.4 0 0 0 15.5-13.5q3.887-.451 2.5 3.5-19.887 30.968-55.5 20.5-24.374-13.43-27.5-41.5-4.281-34.144 18-60a332 332 0 0 1 14.5-16" style="opacity:1"/><path fill="#1368fa" d="M507.5 193.5q1.988-5.917 2-13-.001-6.77-1-13-1.572-10.304-12-8.5-7.152 4.917-9 13.5-1.726 1.846-3.5 0 .381-13.144 8-24 12.896-12.207 25 1a60.4 60.4 0 0 1 6.5 19l5-4q1.495-9.95 1-20h4a57.2 57.2 0 0 0 1 15l24-17a230 230 0 0 1 13 12.5q3.781-1.095 8-1.5a4.93 4.93 0 0 1-.5 3 51 51 0 0 1-9 8q-.75 39.497-.5 79a18.5 18.5 0 0 1 6 .5q2 2 0 4-18.036-1.293-34 7a50 50 0 0 1-11 7.5q-12.476-7.446-27-5.5-20.418 8.084-12.5 28.5 5.93 8.418 16 11 .807 2.96-2.5 3-26.052-7.88-20.5-35 6.576-18.162 25.5-22 .25-18.007-.5-36-5.287-2.535-9 2l-1 9q-1.517 1.255-3.5 1a56.7 56.7 0 0 1-.5-17q3.408-8.334 12.5-8" style="opacity:1"/><path fill="#1f69f8" d="M231.5 147.5q2.628-.123 3 2.5a32.3 32.3 0 0 0-4.5 13.5 353 353 0 0 0 .5 46 490 490 0 0 1 20.5-17 32.4 32.4 0 0 1 8.5 8 18.3 18.3 0 0 1 6-4q2.082 1.636 1.5 4a30 30 0 0 1-7 6q-1 21 0 42 1.517 1.255 3.5 1a4.93 4.93 0 0 1-.5 3 212 212 0 0 0-10.5 9q-3.327-2.136-4.5-6a821 821 0 0 1-2-48l-3-3-13 12q-1 13.5 0 27 2.262 6.261 7 2 2.517 1.449 2 4a81.6 81.6 0 0 1-13 11 107 107 0 0 1-9.5-8 20 20 0 0 1-4.5 3q-2.25-.25-2.5-2.5a47.8 47.8 0 0 1 8.5-8.5q1.44-44.561-1.5-89 .538-4.173 4-2a82 82 0 0 0 2 7 134 134 0 0 1 9-13" style="opacity:1"/><path fill="#f4ee22" d="M547.5 155.5a4.93 4.93 0 0 1 3 .5 36.6 36.6 0 0 1 6.5 7.5 90.5 90.5 0 0 1 0 19q-10.425 4.93-21.5 1.5-2.885-8.5-1.5-17.5a417 417 0 0 1 13.5-11" style="opacity:1"/><path fill="#1568fa" d="M283.5 161.5a84 84 0 0 1 8 7.5h6q1.526 1.574.5 3.5a12216 12216 0 0 1-12 10 107 107 0 0 1-9.5-8q-2.024 2.175-5 2a8.4 8.4 0 0 1 .5-4 176 176 0 0 1 11.5-11" style="opacity:1"/><path fill="#fdf405" d="M526.5 171.5q2.985 35.464 2 72a9.1 9.1 0 0 1-5-1 772 772 0 0 1-.5-68q2.277-.995 3.5-3" style="opacity:1"/><path fill="#78a68d" d="M508.5 167.5q.999 6.23 1 13-.012 7.083-2 13a177 177 0 0 0 1-26" style="opacity:1"/><path fill="#1168fb" d="M368.5 175.5h4q-.445 5.739-5.5 9-2.175 7.902 5.5 10.5a19 19 0 0 0 8 1.5 601 601 0 0 0 1 49 17.8 17.8 0 0 0 6 4q5.325-1.857 10.5-4a306 306 0 0 0 0-35 39 39 0 0 0-5.5-5q-2.054 2.436-5 1.5-1.426-1.077-.5-2.5a76.6 76.6 0 0 1 13.5-12 95 95 0 0 0 8 8.5q1.5 1 3 0 4.637-7.224 6.5.5a39.8 39.8 0 0 0-8 7 648 648 0 0 0-.5 36h4v5q-19.257-1.83-33.5 11a6555 6555 0 0 1-13-9l-3.5 3.5q-3.195-.089-2.5-3.5l7-7q1.25-18.52-.5-37-13.843-9.883-5.5-25 2.793-4 6.5-7" style="opacity:1"/><path fill="#fcf30b" d="M535.5 188.5a52.1 52.1 0 0 0 20 0q1.488 10.722 1 22v6q-11.083-3.685-22 0-.49-14.272 1-28" style="opacity:1"/><path fill="#3f89c0" d="M555.5 188.5q.09-.814 1-1 1.98 11.735 0 23 .488-11.278-1-22" style="opacity:1"/><path fill="#0e67fc" d="M458.5 192.5a43.8 43.8 0 0 1 13 8 51 51 0 0 0 5.5-4 10.8 10.8 0 0 1 2.5 3 25 25 0 0 1-7.5 7 760 760 0 0 0-.5 39h4v4q-19.03-1.24-33.5 11a115 115 0 0 1-12-8q-2.151.645-3.5 2.5-4.75 1.25-3.5-3.5l6-6q.75-18.993.5-38h-4v-4q12.985.336 25-4.5a53.6 53.6 0 0 0 8-6.5" style="opacity:1"/><path fill="#1468fb" d="M614.5 192.5q1.494-.129 2.5 1 7.772 10.766 15.5 21.5a217.6 217.6 0 0 1-28.5 20.5q-1.238 5.567.5 11a12.4 12.4 0 0 1 4 2.5q2 1 4 0l13-8.5q3.908 2.604 0 5.5l-20 14q-2 1-4 0l-11.5-7.5-4 4a20.5 20.5 0 0 1-2.5-3.5 25 25 0 0 1 7-7.5 343 343 0 0 0 1-37 18.5 18.5 0 0 1-6-.5q-1.32-2.034-1-4.5 17.337.393 30-11" style="opacity:1"/><path fill="#1167fb" d="M645.5 192.5q2.361.656 3.5 3l4.5 9q4.078-6.209 9.5-11l8.5 8.5q1.5 1 3 0 2.703-4.615 6-.5a36.2 36.2 0 0 1-11 11.5q-2.5 1-5 0a55.5 55.5 0 0 1-7-5.5 32 32 0 0 1-4.5 5 256 256 0 0 0 0 32 57 57 0 0 0 7.5 5l7-4q2.675 1.272 1.5 4a252 252 0 0 1-15.5 11 184 184 0 0 1-13.5-9q-3.128 6.261-7.5 1.5l8.5-8.5a177 177 0 0 0-1-36 7.25 7.25 0 0 0-2.5-2q-2.51 2.38-6 2a8.4 8.4 0 0 1 .5-4 237 237 0 0 0 13.5-12" style="opacity:1"/><path fill="#0b67fd" d="M718.5 192.5q6.063 2.793 11 7.5 1.5 1 3 0 3.45-6.293 7-.5a95 95 0 0 0-8.5 8 722 722 0 0 0-.5 38h4v4q-18.652-.783-33 11a55.5 55.5 0 0 1-12.5-9q-2.133 3.207-5.5 3.5-2.26-1.256-1.5-3.5a30 30 0 0 0 7-6q.75-18.993.5-38h-4v-4q19.104 1.67 33-11" style="opacity:1"/><path fill="#1368fa" d="M785.5 192.5a56.7 56.7 0 0 1 10 8l5-4a7.3 7.3 0 0 1 2 3q-3 4-7 7a204.7 204.7 0 0 0-.5 35q.445 9.298 6.5 3a10.8 10.8 0 0 1 3 2.5 128.6 128.6 0 0 1-14 13q-1.702 1.124-3-.5a37.4 37.4 0 0 1-4.5-12l-1-40a18 18 0 0 0-3.5-2 65 65 0 0 0-12.5 11q-1 15 0 30a7.25 7.25 0 0 0 2.5 2q2.054-2.436 5-1.5 1.426 1.077.5 2.5a93 93 0 0 1-12 11 45 45 0 0 1-8.5-7.5q-1.5-1-3 0-4.092 5.251-5.5-.5l7-7a342 342 0 0 0 0-37q-.552-2.115-2.5-3-2.357 2.873-6 3a8.4 8.4 0 0 1 .5-4q6.369-6.794 14.5-11 2.382.765 3.5 3a39.7 39.7 0 0 1 3 12q.621.686 1.5 1a322 322 0 0 0 19-17" style="opacity:1"/><path fill="#1869f9" d="M282.5 192.5q5.445 3.926 11 8a20 20 0 0 1 4.5-3q1.92.17 2.5 2a85 85 0 0 1-7.5 8q-1 16.5 0 33 .374 4.015 3 7 3.348-5.345 6.5-.5a60.3 60.3 0 0 1-14.5 13.5q-5.338-4.143-7-11l-1-41a15 15 0 0 0-3.5-3l-5 4a23.7 23.7 0 0 0-3-3.5 264 264 0 0 1 14-13.5" style="opacity:1"/><path fill="#1168fb" d="M338.5 192.5q10.734 9.873 18 23a288 288 0 0 1-28.5 20q-4.422 12.853 8.5 13.5l12-8q3.887-.451 2.5 3.5a184.5 184.5 0 0 1-23.5 16 132 132 0 0 1-13-8 25.5 25.5 0 0 0-4.5 4 6.98 6.98 0 0 0-2.5-3.5l7.5-7.5q.75-18.493.5-37a18.5 18.5 0 0 1-6-.5q-1.32-2.034-1-4.5 17.57.982 30-11" style="opacity:1"/><path fill="#1768fa" d="M817.5 192.5q9.964.21 8.5 10-1.395 3.078-4.5 4.5 5.821-.64 11-4a163 163 0 0 1 11-10.5 107 107 0 0 0 8.5 9 51 51 0 0 1 5.5-4 10.8 10.8 0 0 1 3 2.5q-11.946 8.8-9 24a91.4 91.4 0 0 0 2 22l1 1.5q4.1-4.957 7 0a140 140 0 0 1-15 13 7.25 7.25 0 0 1-2.5-2 79.4 79.4 0 0 0-5.5-12 349 349 0 0 1-16.5 15q-20.87-7.24-11-27l13.5-15.5a120 120 0 0 1-11.5-14.5q-2.537-8.053 4.5-12" style="opacity:1"/><path fill="#a3bf64" d="M535.5 188.5q-1.49 13.728-1 28-1.985-14.262 0-29 .91.186 1 1" style="opacity:1"/><path fill="#f6f01e" d="M448.5 204.5q6.455-1.056 10.5 4 .75 18.993.5 38a23.9 23.9 0 0 0-9 3l-8-6a216.5 216.5 0 0 1-.5-36 69 69 0 0 0 6.5-3" style="opacity:1"/><path fill="#f1ed21" d="M604.5 204.5a8.4 8.4 0 0 1 4 .5 175 175 0 0 1 11 14 411 411 0 0 1-15.5 11.5 116.5 116.5 0 0 1 .5-26" style="opacity:1"/><path fill="#f6ef21" d="M710.5 203.5q4.741 1.455 8.5 5a342 342 0 0 1 0 37 77 77 0 0 1-9 4l-8-6q-1-18 0-36a172 172 0 0 1 8.5-4" style="opacity:1"/><path fill="#f3ee1d" d="M329.5 204.5q2.835-.305 4.5 2a85 85 0 0 1 8.5 12.5 116.4 116.4 0 0 1-14.5 11.5q-1.634-13.392 1.5-26" style="opacity:1"/><path fill="#f9f113" d="M834.5 206.5q2.835-.305 4.5 2a240 240 0 0 1 0 31 54.5 54.5 0 0 1-11.5 10q-13.389-5.252-7.5-18a36.6 36.6 0 0 1 6.5-7.5q1-1 2 0 2.063 3.716 5.5 2.5 1-1.5 0-3l-9.5-11.5a71.3 71.3 0 0 0 10-5.5" style="opacity:1"/><path fill="#f5ef1d" d="M538.5 219.5a59.8 59.8 0 0 1 19 2v23a67.4 67.4 0 0 0-16.5 5q-3.897-1.201-7-4a96.5 96.5 0 0 1 .5-24q2.289-.741 4-2" style="opacity:1"/><path fill="#1968f9" d="M548.5 481.5q-1.962 5.278 0 11 .91-.186 1-1 56.934-8.655 85.5 41a2166 2166 0 0 1 47 97q6.82 14.276 6 30l-2 6a440 440 0 0 1-41 29q-.75 9.987-.5 20-10.05.495-20-1 4.107-4.213 5-10a211.5 211.5 0 0 1-32 10.5q-14.51 1.999-23.5-9.5a3027 3027 0 0 1-40.5-80.5q-13.946.903-28 1.5-11.511-.385-23-1a790 790 0 0 1-1.5 65q-4.476 7.898-13.5 10.5a107 107 0 0 1-14 3.5v13h-17a72 72 0 0 1 1-11 396 396 0 0 1-19-.5 40 40 0 0 0-4 10.5 91 91 0 0 1-19 1 111 111 0 0 1 5-16q-17.987-13.441-21.5-36a227 227 0 0 1-4-25 867 867 0 0 0-3-73q-1.996-19.994-10.5-38-3.666 12.088-13 20.5-22.577 10.918-37.5-9.5a32.5 32.5 0 0 1-3-7 525 525 0 0 1-4-31q-10.548-12.64-9-29 1.454-5.86 3.5-11.5a36.6 36.6 0 0 0-5.5-11.5q-5.9-11.922-1-24a14.5 14.5 0 0 1 5-4q-1.229-25.33 22.5-33.5 9.126-2.86 10.5 6.5 2.965-5.022 8.5-4.5 14.57 7.07 19.5 22.5a172 172 0 0 1 3.5 15.5 462 462 0 0 1 83 31.5l1-1.5q-5.883-13.974 4.5-24.5a5278 5278 0 0 1-11.5-130q-2.652-11.72 8.5-15 8.844 1.344 11 10a4775 4775 0 0 1 17 118q7.259-5.742 11-14a25.2 25.2 0 0 0 0-10q-5.8-9.975-3-21a447 447 0 0 1 9-22q19.488-25.165 46.5-8 11.04 14.625 10 33a162 162 0 0 1 34-3.5q3.23-5.871 10-6.5 6.442 1.388 13 2 19.062-6.454 27 11.5 6.646 2.444 11.5 7.5 3.384 7.674-1.5 14.5a138.4 138.4 0 0 0-26 18 175 175 0 0 1-14 5q-10.611 12.558-27 15a402 402 0 0 0-23 14q-3.215 4.136-3.5 9.5-.75 9.987-.5 20" style="opacity:1"/><path fill="#f7f01a" d="M478.5 614.5q-1.602-1.401-4-1v10q-.762 30.496-1.5 61-.41 2.744-2.5 4.5a69.1 69.1 0 0 1-22 7 135.3 135.3 0 0 1-38-2q-13.055-4.058-18.5-16.5-7.317-17.266-8-36a517.3 517.3 0 0 0-6-91q-3.123-24.431-21-41a480 480 0 0 0-6 21q-13.144 25.945-33 4a44.8 44.8 0 0 1-3-11 173 173 0 0 0-2-22 137 137 0 0 0-9-18q-1.793-10.513 3-20 .302-9.594-6-17a42.4 42.4 0 0 1-3.5-11q-.292-3.337 2.5-5a15.9 15.9 0 0 0 6.5 1q-2.726-12.234 1.5-24 3.45-8.719 12.5-10-1.238 11.565 9.5 15 8.547-2.79 7.5-12 4.671.887 7.5 5 8.673 13.198 6.5 29a431 431 0 0 1 98.5 38 251 251 0 0 0 4.5-15q-2.695-6.304-2.5-13 5.31-4.029 7.5-10a11764 11764 0 0 1-11.5-118 90.5 90.5 0 0 1 0-19 99.6 99.6 0 0 1 5 22 8788 8788 0 0 1 14 107q.243 9.773 9 6 5.328-11.668 15-20 8.808-15.039 0-30 1.64-16.422 10-31 9.278-11.253 23.5-7.5 5.56 1.404 9.5 5.5 7.985 16.427 4.5 34.5-.121 6.384 6 5 7.232-6.868 17-8a90.5 90.5 0 0 1 19 0 60 60 0 0 1 6.5 3.5q1.418-.608 2-2l1-7q1.689-2.166 4.5-2a458 458 0 0 0 26 1.5 218 218 0 0 1 6 10.5 55.5 55.5 0 0 1 9.5 4q1.238 3.301-1.5 5.5-11.574 4.784-20 14-6.903 4.3-15 5a96 96 0 0 0-10 10q-12.099 4.2-24 9a455 455 0 0 1-21 14.5 17.3 17.3 0 0 0-3.5 7 666 666 0 0 0-1.5 46q51.876-12.965 83.5 29a1120 1120 0 0 1 55 114 50.4 50.4 0 0 1 1 17q-28.755 22.218-61.5 38.5-13.709 7.034-29 6-7.25-3.25-10.5-10.5a4450 4450 0 0 1-39.5-80l-3-1q-28.461 5.218-57 1" style="opacity:1"/><path fill="#1168fb" d="M510.5 353.5q14.74-4.184 19.5 10 3.652 9.71-1.5 18.5a521 521 0 0 0-8.5-13.5 64.3 64.3 0 0 0-10.5-8q-2.019-3.9 1-7" style="opacity:1"/><path fill="#1b69f9" d="M503.5 367.5q16.741 2.928 13.5 20-3.258 6.357-9.5 2.5-11.298-9.54-4-22.5" style="opacity:1"/><path fill="#0c67fc" d="M598.5 383.5a88.7 88.7 0 0 1 18.5 1 55.5 55.5 0 0 0 5.5 7q-9.51 12.756-25 16.5a64.8 64.8 0 0 1-10 9 273 273 0 0 0-41 16.5 178 178 0 0 1 0-37.5q10.931-6.643 23.5-8.5a65.1 65.1 0 0 1 22.5 5q2.294-.044 3.5-2a86 86 0 0 1 2.5-7" style="opacity:1"/><path fill="#0966fd" d="M517.5 396.5q16.754.001 17.5 17 2.167 25.866-4 51-1.468 18.735-2.5 37.5a40.8 40.8 0 0 0 1.5 11.5q2.607.94 5.5 1a135.5 135.5 0 0 1 38-2.5q32.353 3.793 45.5 33.5a2164 2164 0 0 1 47 97q1.3 6.684-1 13a221 221 0 0 1-23.5 21 394 394 0 0 1-1.5-28 64.6 64.6 0 0 0-12.5-14.5l-51-41q-4.059-2.862-9-2.5-.014 2.712 1.5 5a1655 1655 0 0 0 51 46q15.377 17.341 2 36a119 119 0 0 1-13.5 12.5q-6.781 3.267-14 4a65.3 65.3 0 0 1-12.5-14.5 1096 1096 0 0 1-28-56 91 91 0 0 1-4-13q4.035 6.286 10.5 10 5.61-4.7 3.5-12a405 405 0 0 0-10-25l-41-88a326 326 0 0 1 2-36q11.816-14.456 13-33a86.7 86.7 0 0 0-15 20q-17.849 18.55-43.5 19.5-2.138-2.57 1-4 20.105-3.612 31.5-20.5a98.5 98.5 0 0 1 13.5-19.5q-4.5-3-9 0a64.8 64.8 0 0 0-13.5 18.5 102.4 102.4 0 0 1-13.5 10.5q-9.25 2.75-6.5-6.5a53 53 0 0 1 7.5-3.5 128 128 0 0 1 17-21 234 234 0 0 1 16-7 22.8 22.8 0 0 1 5-4 295 295 0 0 1-16-2q6.13-7.536 15-10.5" style="opacity:1"/><path fill="#0566fe" d="M315.5 417.5a4.93 4.93 0 0 1 3 .5q10.051 9.007 20-.5a3.65 3.65 0 0 1 1.5 1q3.2 12.627-.5 25 34.605 5.188 68 17.5 25.986 10.11 47.5 27.5a143.8 143.8 0 0 1-2 27 180 180 0 0 0-10 15 236.6 236.6 0 0 1-20 36 131.3 131.3 0 0 1-17.5 16l3 4q15.586 2.139 31-.5 6.225-4.164 8.5-11.5a65 65 0 0 1 12.5-11 2243 2243 0 0 1 .5 116q-3.513 4.882-9.5 5.5-13.5 1-27 0-24.771-9.39-5-26.5 1.727-3.91.5-8a437 437 0 0 0-17-55 25.5 25.5 0 0 0-4.5-4l-1 1a2399 2399 0 0 1 13 57.5 9.8 9.8 0 0 1-1 4 114 114 0 0 1-11 6.5 723 723 0 0 1-7.5-101q-3.545-28.658-20-52-9-7-16-16-8.709 15.823-10 34-5.289 16.025-19.5 6.5a20.5 20.5 0 0 0-2.5-3.5 247 247 0 0 0-2-24 157 157 0 0 0-9-22 726 726 0 0 1 2-31 57.2 57.2 0 0 1-6.5-11.5q-.091-2.566 2-4a20.4 20.4 0 0 0 5.5-1.5q.749-8.486.5-17" style="opacity:1"/><path fill="#0d67fc" d="M493.5 468.5h9q3.314 23.218-11 41.5a100.2 100.2 0 0 1-20 0q-2.744-.41-4.5-2.5.3-11.723 4-23 .909-4.572 4.5-7.5 8.547-5.526 18-8.5" style="opacity:1"/><path fill="#508eb7" d="M548.5 481.5q-.469 5.313 1 10-.09.814-1 1-1.962-5.722 0-11" style="opacity:1"/><path fill="#0b66fd" d="M504.5 517.5q3.604-.16 5.5 3a401 401 0 0 1 16.5 29.5q-3.041 3.265-4 7.5a271 271 0 0 0 10.5 33q5.365 14.66-10.5 14.5a193 193 0 0 1-45 0q-2.744-.41-4.5-2.5a1049 1049 0 0 1-2-55 64.6 64.6 0 0 1 12.5-14.5 154.4 154.4 0 0 1 21-15.5" style="opacity:1"/><path fill="#1b69f8" d="M460.5 523.5a72.4 72.4 0 0 1 12 .5 90 90 0 0 0-10.5 11.5l-20 34a45.3 45.3 0 0 1-7.5 8.5q-5.94 2.495-12 .5-1.532-.752-.5-2a268 268 0 0 0 20-19q7.32-18.145 18.5-34" style="opacity:1"/><path fill="#5992b0" d="M478.5 614.5h-3q.465 4.82-1 9v-10q2.398-.401 4 1" style="opacity:1"/><path fill="#1067fb" d="M470.5 824.5q-6.798.477-13-1a139 139 0 0 0 14-14q-14.546.632-18.5-13a132.4 132.4 0 0 1 0-23q4.77-11.141 17-10 20.364-.383 18.5 20 .83 18.7-9.5 34-3.625 4.385-8.5 7" style="opacity:1"/><path fill="#1668fa" d="M561.5 763.5q9.796-.768 19 2.5 3.953 2.941 5.5 7.5 1 12 0 24-2.877 17.507-17.5 27.5a28.7 28.7 0 0 1-13-.5 74.8 74.8 0 0 0 14-15q-22.054-1.283-19-23.5-1.231-10.58 5-19 3.34-1.412 6-3.5" style="opacity:1"/><path fill="#0b67fc" d="M419.5 815.5a442 442 0 0 0 1-42h-8v-9h19v51h9v10h-30v-10z" style="opacity:1"/><path fill="#1067fc" d="M536.5 824.5h-34v-10q-1.979-11.82 7-19.5l14-8q8.124-12.156-6-13-2.889.633-3 3.5-1.401 1.602-1 4h-11v-3q.592-9.456 9-13.5 32.565-4.943 23.5 26.5a14.5 14.5 0 0 1-4.5 4.5 52.9 52.9 0 0 0-15.5 9.5q-1.933 4.276-1.5 9h23z" style="opacity:1"/><path fill="#7fad81" d="M412.5 773.5h8a442 442 0 0 1-1 42v-41q-3.839.452-7-1" style="opacity:1"/><path fill="#f5ef1b" d="M466.5 774.5q5.144-.59 9.5 2a100.2 100.2 0 0 1 0 20q-4.261 3.006-9.5 1.5-1.75-.75-2.5-2.5-1-9 0-18 1.047-1.787 2.5-3" style="opacity:1"/><path fill="#f6ef19" d="M564.5 774.5q6.154-1.097 10.5 3a72.5 72.5 0 0 1 0 17 6.98 6.98 0 0 1-2.5 3.5q-5.239 1.506-9.5-1.5a100.2 100.2 0 0 1 0-20q1.075-.816 1.5-2" style="opacity:1"/><path fill="#a9c165" d="M514.5 777.5v5h-13q-.401-2.398 1-4v3h11q-.401-2.398 1-4" style="opacity:1"/><path fill="#5b93af" d="M457.5 823.5q6.202 1.477 13 1-6.773 1.968-14 0 .186-.91 1-1" style="opacity:1"/><path fill="#5591b2" d="M502.5 814.5v10h34q-17.232 1.492-35 1-.473-5.807 1-11" style="opacity:1"/></svg>