<svg xmlns="http://www.w3.org/2000/svg" viewBox="-0.06 0 483.85 636.23"><defs><clipPath id="a"><path d="M0 0h483.738v636.23H0Zm0 0"/></clipPath></defs><path d="M237.89 1.566 1.77 223.492a5.75 5.75 0 0 0-1.028 7.13l236.172 402.753a5.8 5.8 0 0 0 4.98 2.855 5.8 5.8 0 0 0 4.985-2.855l236.113-402.754a5.75 5.75 0 0 0-1.023-7.129L245.8 1.566a5.79 5.79 0 0 0-7.91 0" style="display:inline;fill:#fff;fill-opacity:1;fill-rule:nonzero;stroke:none"/><path d="M240.266 531.984c-4.125 0-12.512-7.011-12.512-12.375s-.414-7.011-2.89-7.011c-2.473 0-4.126-4.54-4.126-12.79s.414-12.785 2.477-15.671c2.062-2.89 2.062-7.84 2.062-14.438 0-6.601-1.238-9.488-4.539-4.539-3.3 4.95-6.203 10.68-14.023 13.613-9.903 3.711-14.028-2.062-14.028-4.539 0-2.472 2.891-2.886 7.426-3.3 4.54-.41 8.664-4.536 11.551-9.485 2.887-4.953-1.648-8.664-3.71-8.664s-9.075 0-19.802-2.887-20.214-14.437-16.914-17.324c3.301-2.89 8.664-.828 13.2 3.711 4.539 4.54 13.613 6.188 16.914 6.188 3.3 0 7.011-.414 7.835-3.301.829-2.887 2.891-6.598 5.778-8.25 2.887-1.649 4.95-4.95 4.95-9.488 0-4.536-4.126-6.598-8.661-9.485-4.54-2.89-15.266-8.25-15.266-14.437 0-6.188 4.54-13.203 9.075-16.09 4.539-2.887-.41-14.438-4.125-24.75-5.22-14.5-20.211-47.438-32.172-63.524-11.965-16.086-28.051-21.863-33-18.562-4.953 3.3-7.012 12.375-2.887 17.324s14.023 11.961 17.734 24.75c3.715 12.79-.824 18.149-4.125 21.04-3.3 2.886-5.773 9.073-1.648 14.437 4.125 5.36 7.012 7.836 5.773 10.722-1.234 2.887-7.836-2.062-14.023-8.66-6.188-6.601-5.363-11.965-3.711-14.851 1.648-2.887 7.422-9.075 7.836-15.676.414-6.598-6.602-12.375-16.086-16.5-9.488-4.125-30.938-11.961-39.602-28.875-8.664-16.91-2.886-38.36 14.024-53.625 16.914-15.262 51.976-6.598 69.715 12.375 17.738 18.976 24.75 50.738 42.898 112.613 6.336 21.602 9.074 26.399 11.55 26.399 2.474 0 4.54 0 4.54-6.188s-10.664-41.758-25.578-88.683c-16.91-53.215-32.125-80.79-38.774-89.102-8.25-10.313-18.453-8.453-25.988-7.426-9.074 1.238-10.726-.824-11.137-2.472-.414-1.653.864-4.829 3.711-5.778 3.715-1.238 6.645-.273 10.313-.824 8.25-1.238 7.426-2.063 4.125-7.84-2.043-3.578-3.711-6.598 0-9.074 3.715-2.473 8.726.176 12.375 4.125 4.953 5.363 3.3 3.3 9.078-6.188 2.875-4.726 4.535-9.074 8.25-5.773 3.71 3.3 2.059 7.012.41 9.898-1.648 2.887-5.773 6.188-5.773 12.79 0 6.597 13.28 21.66 25.574 52.386 15.676 39.188 30.293 87.48 33 97.762 4.125 15.676 4.539 16.5 4.539 1.652 0-14.851-5.777-45.375-13.203-75.078-7.422-29.7-23.512-81.672-23.512-101.059 0-21.863 6.188-34.652 25.574-53.625C237 79.649 240.004 65.036 241.652 65.036h.196c1.648 0 4.652 14.613 20.914 30.528 19.386 18.972 25.574 31.761 25.574 53.625 0 19.386-16.086 71.359-23.512 101.058-7.426 29.703-13.203 60.227-13.203 75.078 0 14.848.414 14.024 4.54-1.652 2.706-10.281 17.323-58.574 33-97.762 12.292-30.726 25.573-45.789 25.573-52.387 0-6.601-4.125-9.902-5.773-12.789-1.649-2.886-3.3-6.597.414-9.898 3.71-3.3 5.371 1.047 8.25 5.773 5.773 9.489 4.125 11.551 9.074 6.188 3.649-3.95 8.664-6.598 12.375-4.125 3.715 2.476 2.047 5.496 0 9.074-3.3 5.777-4.125 6.602 4.125 7.84 3.672.55 6.602-.414 10.313.824 2.847.95 4.125 4.125 3.715 5.778-.414 1.648-2.063 3.71-11.137 2.472-7.54-1.027-17.738-2.887-25.992 7.426-6.649 8.312-21.864 35.887-38.774 89.101-14.914 46.926-25.574 82.497-25.574 88.684 0 6.188 2.063 6.188 4.535 6.188 2.477 0 5.215-4.797 11.55-26.399 18.15-61.875 25.165-93.637 42.9-112.613 17.742-18.973 52.804-27.637 69.714-12.375 16.914 15.266 22.688 36.715 14.028 53.625-8.664 16.914-30.114 24.75-39.602 28.875s-16.5 9.902-16.086 16.5c.41 6.601 6.188 12.789 7.836 15.676 1.648 2.886 2.477 8.25-3.71 14.851-6.188 6.598-12.79 11.547-14.028 8.66-1.239-2.886 1.652-5.363 5.777-10.722 4.125-5.364 1.649-11.551-1.652-14.438-3.297-2.89-7.836-8.25-4.125-21.039 3.715-12.789 13.613-19.8 17.738-24.75s2.063-14.023-2.887-17.324c-4.949-3.3-21.039 2.476-33.004 18.562-11.96 16.086-26.953 49.024-32.171 63.524-3.715 10.312-8.665 21.863-4.125 24.75 4.535 2.887 9.074 9.902 9.074 16.09 0 6.187-10.727 11.547-15.262 14.437-4.54 2.887-8.664 4.95-8.664 9.485 0 4.539 2.062 7.84 4.95 9.488 2.89 1.652 4.948 5.363 5.776 8.25.825 2.887 4.536 3.3 7.836 3.3s12.375-1.648 16.914-6.187c4.536-4.539 9.899-6.601 13.2-3.71 3.3 2.886-6.188 14.437-16.914 17.323-10.723 2.887-17.739 2.887-19.797 2.887-2.067 0-6.602 3.711-3.715 8.664 2.887 4.95 7.012 9.074 11.55 9.485 4.54.414 7.426.828 7.426 3.3 0 2.477-4.125 8.25-14.027 4.54-7.816-2.934-10.723-8.665-14.023-13.614-3.301-4.95-4.54-2.062-4.54 4.54 0 6.597 0 11.546 2.063 14.437 2.063 2.886 2.477 7.422 2.477 15.672s-1.653 12.789-4.125 12.789c-2.477 0-2.887 1.648-2.887 7.011s-8.39 12.375-12.516 12.375z" style="stroke:none;fill-rule:nonzero;fill:#e32e2b;fill-opacity:1"/><path d="M241.652 64.21c-1.023 0-1.543 1.118-2.937 4.103-2.555 5.472-7.309 15.652-18.55 26.66-19.552 19.129-25.825 32.304-25.825 54.215 0 14.375 8.66 46.097 16.3 74.085l7.239 27.176c8.125 32.508 13.172 61.196 13.172 74.875 0 2.278 0 5.895-.13 8.153-.76-2.344-1.85-6.47-2.784-10.012-2.489-9.457-17.074-57.965-33.032-97.86-6.722-16.804-13.66-28.8-18.722-37.558-3.946-6.817-6.793-11.742-6.793-14.524 0-4.699 2.238-7.66 4.039-10.039l1.629-2.34c.738-1.3 1.949-3.414 1.949-5.746 0-1.687-.633-3.492-2.531-5.18-1.203-1.066-2.32-1.5-3.414-1.327-2.028.328-3.34 2.59-5.004 5.453l-1.086 1.84-3.277 5.949c-.66 1.297-1.344 2.64-1.66 2.746-.395-.008-1.743-1.469-2.829-2.64-3.648-3.954-9.094-7.145-13.437-4.25-4.395 2.929-2.2 6.777-.258 10.167l.363.637c1.192 2.074 2.13 3.71 1.836 4.32-.367.754-2.972 1.242-5.73 1.657-1.43.214-2.782.187-4.09.164-1.98-.043-4.031-.082-6.36.695-3.347 1.113-4.757 4.746-4.253 6.758.78 3.125 4.609 4.105 12.05 3.09l.856-.118c7.453-1.035 16.726-2.32 24.375 7.243 6.406 8.011 21.758 35.734 38.633 88.832 16.945 53.316 25.535 83.07 25.535 88.437 0 5.363-1.395 5.363-3.711 5.363-2.235 0-5.453-7.718-10.758-25.804l-7.352-25.39c-13.203-45.927-20.472-71.224-35.738-87.556-17.543-18.765-53.062-28.492-70.867-12.422-17.254 15.57-22.965 37.516-14.207 54.614 8.062 15.742 27.117 23.797 37.352 28.12l2.652 1.134c6.027 2.62 16.066 8.144 15.594 15.691-.301 4.797-3.692 9.535-5.938 12.668l-1.793 2.649c-1.254 2.195-3.39 8.125 3.828 15.824 2.293 2.445 10.063 10.375 13.762 9.722.754-.129 1.316-.582 1.621-1.296 1.191-2.778-.715-5.125-3.61-8.7l-2.269-2.855c-4.008-5.211-1.18-10.934 1.54-13.317 3.671-3.21 8.12-8.976 4.374-21.886-2.898-9.985-9.453-16.48-14.234-21.223l-3.66-3.824c-1.649-1.977-2.332-4.906-1.875-8.04.496-3.421 2.254-6.515 4.586-8.07 4.183-2.789 19.851 2.196 31.879 18.368 11.964 16.09 27.003 49.261 32.062 63.308l1.262 3.457c3.129 8.489 6.672 18.11 3.195 20.32-4.547 2.895-9.457 10.133-9.457 16.786 0 5.761 8.04 10.562 13.36 13.742l2.285 1.39 1.367.856c3.863 2.41 6.914 4.313 6.914 7.934 0 3.93-1.653 7.125-4.535 8.77-3.23 1.847-5.336 5.862-6.16 8.741-.532 1.871-2.704 2.703-7.043 2.703-3.508 0-12.176-1.796-16.329-5.949-5.277-5.273-10.902-6.746-14.328-3.746-.605.527-1.234 1.55-.804 3.402 1.172 5.063 9.484 13.036 18.047 15.34 7.187 1.934 13.921 2.914 20.015 2.914.746 0 2.317.856 3.203 2.399.617 1.07 1.082 2.816-.203 5.023-3.168 5.43-7.144 8.742-10.914 9.082-4.203.383-8.176.742-8.176 4.121 0 1.38.95 3.43 3.067 4.899 2.11 1.46 5.918 2.719 12.074.41 7.152-2.68 10.402-7.715 13.27-12.156l1.152-1.77c1.433-2.152 2.043-2.129 2.05-2.125.008 0 .977.457.977 6.207 0 6.305 0 11.285-1.91 13.957-2.223 3.11-2.629 7.88-2.629 16.153 0 8.652 1.805 13.613 4.95 13.613 1.527 0 2.062.508 2.062 6.187 0 5.942 8.933 13.2 13.34 13.2h2.968c4.407 0 13.34-7.258 13.34-13.2 0-5.68.535-6.187 2.063-6.187 3.144 0 4.949-4.961 4.949-13.613 0-8.274-.406-13.043-2.629-16.153-1.906-2.672-1.906-7.652-1.906-13.957 0-5.75.965-6.207.972-6.207.008-.004.618-.027 2.051 2.125l1.153 1.77c2.867 4.441 6.117 9.476 13.27 12.156 6.155 2.309 9.964 1.05 12.073-.41 2.118-1.469 3.067-3.52 3.067-4.899 0-3.379-3.973-3.738-8.176-4.12-3.77-.34-7.742-3.653-10.91-9.083-1.29-2.207-.824-3.953-.207-5.023.886-1.543 2.457-2.399 3.207-2.399 6.094 0 12.828-.98 20.012-2.914 8.562-2.304 16.875-10.277 18.046-15.34.434-1.851-.199-2.87-.804-3.402-3.426-3-9.051-1.527-14.325 3.746-4.152 4.153-12.824 5.95-16.332 5.95-4.336 0-6.507-.833-7.043-2.704-.824-2.879-2.93-6.894-6.16-8.742-2.882-1.644-4.535-4.84-4.535-8.77 0-3.62 3.055-5.523 6.914-7.933l1.367-.855 2.286-1.391c5.32-3.18 13.359-7.98 13.359-13.742 0-6.653-4.91-13.89-9.457-16.785-3.477-2.211.066-11.832 3.195-20.32l1.266-3.458c5.055-14.047 20.094-47.219 32.058-63.308 12.028-16.172 27.7-21.157 31.883-18.368 2.332 1.555 4.09 4.649 4.586 8.07.453 3.134-.222 6.067-1.875 8.04l-3.66 3.824c-4.785 4.742-11.34 11.238-14.238 21.223-3.746 12.91.703 18.675 4.375 21.886 2.722 2.383 5.55 8.106 1.539 13.317l-2.27 2.855c-2.886 3.567-4.797 5.922-3.61 8.7.31.714.872 1.167 1.626 1.296 3.7.653 11.469-7.277 13.762-9.722 7.214-7.7 5.078-13.63 3.828-15.824l-1.793-2.649c-2.246-3.133-5.64-7.871-5.942-12.668-.468-7.547 9.57-13.07 15.594-15.691l2.656-1.133c10.235-4.324 29.29-12.379 37.352-28.121 8.754-17.098 3.047-39.047-14.207-54.613-17.805-16.07-53.328-6.344-70.871 12.421-15.266 16.332-22.535 41.63-35.738 87.555l-7.348 25.39c-5.309 18.087-8.527 25.805-10.762 25.805-2.312 0-3.71 0-3.71-5.363 0-5.367 8.59-35.121 25.534-88.437 16.88-53.098 32.227-80.82 38.633-88.832 7.653-9.563 16.926-8.278 24.375-7.243l.86.118c7.437 1.015 11.27.035 12.05-3.09.5-2.012-.906-5.645-4.254-6.758-2.332-.777-4.378-.738-6.363-.695-1.305.023-2.656.05-4.086-.164-2.762-.415-5.363-.903-5.73-1.657-.293-.61.644-2.246 1.836-4.32l.363-.637c1.937-3.39 4.137-7.238-.262-10.168-4.34-2.894-9.789.297-13.437 4.25-1.082 1.172-2.43 2.633-2.836 2.64-.309-.105-.992-1.448-1.653-2.745l-3.277-5.95-1.082-1.84c-1.664-2.863-2.976-5.124-5.008-5.452-1.093-.172-2.21.261-3.414 1.328-1.898 1.687-2.531 3.492-2.531 5.18 0 2.331 1.21 4.445 1.95 5.746l1.632 2.34c1.797 2.378 4.035 5.34 4.035 10.038 0 2.782-2.848 7.707-6.793 14.524-5.062 8.758-12 20.754-18.722 37.558-15.957 39.895-30.543 88.403-33.032 97.86-.933 3.543-2.02 7.668-2.785 10.012-.129-2.254-.133-5.875-.133-8.153 0-13.676 5.051-42.367 13.18-74.875l7.234-27.176c7.645-27.988 16.301-59.71 16.301-74.085 0-21.91-6.273-35.086-25.82-54.215-11.25-11.008-16-21.192-18.555-26.66-1.394-2.985-1.914-4.102-2.937-4.102zm-10.3 272.57c1.144-.148 1.351-1.011 1.351-11.457 0-13.804-5.07-42.648-13.226-75.273l-7.247-27.211c-7.613-27.89-16.242-59.5-16.242-73.652 0-21.649 5.918-34.04 25.328-53.036 11.461-11.218 16.48-21.972 18.895-27.14.594-1.274 1.191-2.535 1.539-3.012.348.477.945 1.738 1.54 3.012 2.413 5.168 7.433 15.922 18.894 27.14 19.41 18.996 25.328 31.387 25.328 53.036 0 14.152-8.63 45.761-16.242 73.652l-7.247 27.21c-8.156 32.63-13.226 61.473-13.226 75.274 0 10.446.207 11.309 1.351 11.457 1.215.156 1.563-.55 4.813-12.898 2.48-9.434 17.035-57.84 32.965-97.664 6.68-16.696 13.582-28.63 18.62-37.348 4.224-7.3 7.017-12.125 7.017-15.348 0-5.25-2.528-8.593-4.375-11.035l-1.508-2.164c-1.97-3.441-2.684-6.27.242-8.87.808-.72 1.48-1.024 2.058-.934 1.254.203 2.454 2.265 3.836 4.656l1.106 1.863 3.215 5.844c1.175 2.312 1.765 3.472 2.902 3.629 1.203.168 2.227-.942 4.27-3.153 3.039-3.297 7.828-6.32 11.308-4 2.973 1.98 1.899 4.211-.258 7.98l-.363.634c-1.652 2.879-2.562 4.464-1.887 5.859.676 1.398 2.786 1.941 6.97 2.57 1.566.235 2.987.207 4.366.18 1.926-.039 3.743-.074 5.809.61 2.46.824 3.469 3.613 3.172 4.792-.524 2.09-3.965 2.715-10.227 1.86l-.855-.117c-7.45-1.036-17.653-2.45-25.89 7.843-8.048 10.063-23.067 39.5-38.919 89.368-17.23 54.226-25.61 83.32-25.61 88.933 0 6.496 2.321 7.016 5.36 7.016 2.938 0 5.652-4.176 12.344-26.996l7.351-25.399c13.133-45.676 20.368-70.84 35.36-86.879 16.933-18.117 51.894-27.363 68.558-12.328 16.692 15.063 22.254 36.215 13.84 52.637-7.789 15.21-26.48 23.113-36.52 27.355l-2.671 1.141c-11.09 4.82-16.98 10.969-16.582 17.309.328 5.265 3.887 10.238 6.242 13.523l1.7 2.508c1.073 1.875 2.866 6.98-3.594 13.875-6.297 6.719-10.778 9.492-12.274 9.23-.172-.031-.293-.097-.394-.328-.762-1.781.484-3.437 3.375-7.012l2.296-2.886c4.188-5.442 2.22-12.078-1.761-15.559-3.614-3.164-7.32-8.316-3.875-20.187 2.78-9.575 9.156-15.895 13.812-20.512l3.766-3.942c1.945-2.332 2.765-5.734 2.242-9.332-.562-3.87-2.594-7.398-5.305-9.207-5.37-3.578-21.715 2.079-34.12 18.758-12.06 16.219-27.204 49.606-32.29 63.739l-1.258 3.44c-3.668 9.954-7.132 19.356-2.535 22.282 4.184 2.66 8.695 9.305 8.695 15.395 0 4.824-7.863 9.52-12.558 12.324l-2.324 1.414-1.352.852c-4.129 2.574-7.691 4.796-7.691 9.332 0 4.539 1.957 8.257 5.367 10.207 2.617 1.496 4.594 4.976 5.39 7.757.985 3.457 5.13 3.899 8.63 3.899 3.859 0 12.953-1.887 17.496-6.43 4.613-4.613 9.351-6.055 12.074-3.676.386.34.484.942.285 1.793-.953 4.11-8.457 11.852-16.867 14.118-7.047 1.894-13.64 2.859-19.586 2.859-1.371 0-3.48 1.203-4.637 3.226-1.18 2.051-1.105 4.422.211 6.676 3.438 5.895 7.879 9.504 12.188 9.895 4.707.426 6.671.863 6.671 2.476 0 .77-.625 2.344-2.351 3.54-1.785 1.238-5.07 2.285-10.559.226-6.64-2.492-9.597-7.078-12.46-11.512l-1.165-1.785c-.945-1.418-2.379-3.25-3.898-2.793-1.488.453-2.153 2.856-2.153 7.79 0 6.859 0 11.812 2.215 14.917 1.965 2.746 2.325 7.27 2.325 15.192 0 8.265-1.66 11.964-3.301 11.964-3.461 0-3.711 2.961-3.711 7.836 0 4.961-8.024 11.551-11.692 11.551h-2.968c-3.668 0-11.688-6.59-11.688-11.55 0-4.876-.25-7.837-3.715-7.837-1.64 0-3.3-3.699-3.3-11.964 0-7.922.363-12.446 2.324-15.192 2.215-3.105 2.215-8.058 2.215-14.918 0-4.933-.665-7.336-2.149-7.789-1.52-.457-2.953 1.375-3.898 2.793l-1.168 1.79c-2.864 4.433-5.82 9.015-12.461 11.507-5.488 2.059-8.77 1.016-10.559-.227-1.726-1.195-2.351-2.77-2.351-3.539 0-1.613 1.964-2.05 6.672-2.476 4.308-.39 8.75-4 12.19-9.895 1.313-2.254 1.392-4.625.212-6.675-1.16-2.024-3.27-3.227-4.637-3.227-5.95 0-12.539-.965-19.586-2.86-8.414-2.265-15.918-10.007-16.87-14.117-.196-.851-.102-1.453.284-1.793 2.723-2.378 7.461-.937 12.074 3.676 4.543 4.543 13.637 6.43 17.497 6.43 3.5 0 7.644-.442 8.632-3.899.793-2.78 2.77-6.261 5.391-7.757 3.41-1.95 5.363-5.668 5.363-10.207 0-4.536-3.562-6.758-7.687-9.332l-1.356-.852-2.324-1.414c-4.695-2.805-12.559-7.5-12.559-12.324 0-6.09 4.516-12.735 8.696-15.395 4.597-2.926 1.133-12.328-2.531-22.281l-1.262-3.441c-5.086-14.133-20.227-47.52-32.29-63.739-12.402-16.68-28.75-22.336-34.116-18.758-2.711 1.809-4.746 5.336-5.305 9.207-.524 3.598.293 7 2.238 9.332l3.766 3.942c4.656 4.617 11.035 10.937 13.816 20.512 3.446 11.87-.262 17.023-3.879 20.187-3.976 3.48-5.949 10.117-1.757 15.559l2.292 2.886c2.895 3.575 4.141 5.23 3.375 7.012-.097.23-.222.297-.39.328-1.496.262-5.977-2.511-12.274-9.23-6.464-6.895-4.668-12-3.597-13.875l1.699-2.508c2.355-3.285 5.918-8.258 6.246-13.523.395-6.34-5.492-12.489-16.586-17.309l-2.668-1.14c-10.043-4.243-28.734-12.145-36.523-27.356-8.41-16.422-2.848-37.574 13.843-52.637 16.66-15.035 51.622-5.789 68.555 12.328 14.996 16.04 22.23 41.203 35.36 86.88l7.351 25.398c6.695 22.82 9.41 26.996 12.344 26.996 3.039 0 5.363-.52 5.363-7.016 0-5.613-8.379-34.707-25.613-88.933-15.852-49.868-30.871-79.305-38.918-89.368-8.234-10.293-18.442-8.879-25.89-7.843l-.852.117c-6.266.855-9.703.226-10.227-1.86-.297-1.18.707-3.968 3.172-4.793 2.063-.683 3.883-.648 5.805-.609 1.379.027 2.8.055 4.37-.18 4.18-.629 6.294-1.172 6.97-2.57.671-1.394-.239-2.984-1.887-5.86l-.363-.632c-2.157-3.77-3.23-6-.258-7.98 3.48-2.32 8.265.702 11.308 4 2.043 2.21 3.067 3.32 4.27 3.152 1.133-.157 1.722-1.317 2.902-3.63l3.215-5.843 1.102-1.863c1.386-2.39 2.582-4.453 3.836-4.656.578-.09 1.25.214 2.058.933 2.926 2.602 2.215 5.43.246 8.871l-1.515 2.164c-1.844 2.442-4.371 5.785-4.371 11.035 0 3.223 2.792 8.047 7.015 15.348 5.04 8.719 11.942 20.652 18.621 37.348 15.93 39.824 30.485 88.23 32.969 97.664 3.246 12.347 3.594 13.055 4.809 12.898" style="stroke:none;fill-rule:nonzero;fill:#231f20;fill-opacity:1"/><path d="M238.457 2.168 2.332 224.094a4.95 4.95 0 0 0-.879 6.11L237.63 632.956a4.95 4.95 0 0 0 4.266 2.45 4.95 4.95 0 0 0 4.27-2.45L482.28 230.203a4.95 4.95 0 0 0-.879-6.11L245.234 2.169a4.95 4.95 0 0 0-6.777 0m3.39 10.398c6.505 6.114 224.364 210.836 229.895 216.036-3.851 6.578-221.683 378.144-229.847 392.066C233.73 606.746 15.848 235.18 11.992 228.602c5.535-5.2 223.352-209.918 229.856-216.036" style="stroke:none;fill-rule:nonzero;fill:#e32e2b;fill-opacity:1"/><g clip-path="url(#a)"><path d="M237.89 1.566 1.77 223.492a5.75 5.75 0 0 0-1.028 7.13l236.172 402.753a5.8 5.8 0 0 0 4.98 2.855 5.8 5.8 0 0 0 4.985-2.855l236.113-402.754a5.75 5.75 0 0 0-1.023-7.129L245.8 1.566a5.79 5.79 0 0 0-7.91 0m.449 630.977L2.164 229.785a4.11 4.11 0 0 1 .734-5.09L239.02 2.77a4.136 4.136 0 0 1 5.652 0l236.164 221.925a4.1 4.1 0 0 1 .734 5.09L245.453 632.543a4.14 4.14 0 0 1-3.558 2.035 4.14 4.14 0 0 1-3.555-2.035" style="display:inline;fill:#211e1e;fill-opacity:1;fill-rule:nonzero;stroke:none"/></g><path d="M241.281 11.969 11.426 228a.825.825 0 0 0-.145 1.02l229.903 392.066a.82.82 0 0 0 .71.406.82.82 0 0 0 .711-.406L472.457 229.02a.82.82 0 0 0-.148-1.016L242.41 11.969a.82.82 0 0 0-1.129 0m.567 1.73c1.12 1.055 227.898 214.16 228.851 215.055-.66 1.129-227.39 387.875-228.804 390.281-1.415-2.406-228.196-389.152-228.86-390.281.953-.899 227.688-214 228.813-215.055" style="stroke:none;fill-rule:nonzero;fill:#231f20;fill-opacity:1"/><path d="m238.46 32.617-208.413 195.5a4.954 4.954 0 0 0-.883 6.121l208.461 354.797a4.95 4.95 0 0 0 4.266 2.445 4.96 4.96 0 0 0 4.27-2.445l208.41-354.797a4.955 4.955 0 0 0-.884-6.12l-208.453-195.5a4.953 4.953 0 0 0-6.773 0m3.387 10.398c6.464 6.058 196.664 184.441 202.183 189.617-3.847 6.554-194.031 330.32-202.14 344.12-8.11-13.8-198.336-337.566-202.188-344.12 5.52-5.18 195.684-183.559 202.145-189.617" style="stroke:none;fill-rule:nonzero;fill:#e32e2b;fill-opacity:1"/><path d="M237.898 32.016 29.48 227.516a5.75 5.75 0 0 0-1.027 7.14l208.461 354.797a5.8 5.8 0 0 0 4.977 2.852c2.039 0 3.949-1.094 4.98-2.852l208.41-354.797a5.75 5.75 0 0 0-1.027-7.14L245.8 32.016a5.79 5.79 0 0 0-7.903 0m.438 556.601-208.461-354.8a4.1 4.1 0 0 1 .734-5.094L239.027 33.219a4.134 4.134 0 0 1 5.645 0l208.453 195.504a4.1 4.1 0 0 1 .734 5.093L245.45 588.617a4.14 4.14 0 0 1-3.558 2.035 4.14 4.14 0 0 1-3.555-2.035" style="stroke:none;fill-rule:nonzero;fill:#231f20;fill-opacity:1"/><path d="M241.281 42.414 39.141 232.031a.826.826 0 0 0-.149 1.02L241.18 577.17a.823.823 0 0 0 1.422 0l202.14-344.12a.82.82 0 0 0-.148-1.02L242.41 42.414a.827.827 0 0 0-1.129 0m-20.91 21.879s20.406-19.14 21.477-20.148c1.12 1.05 200.191 187.75 201.136 188.64-.66 1.13-199.683 339.942-201.093 342.34L40.75 232.781c.957-.894 179.621-168.488 179.621-168.488" style="stroke:none;fill-rule:nonzero;fill:#231f20;fill-opacity:1"/></svg>