<svg xmlns="http://www.w3.org/2000/svg" viewBox="0 0 426.13 589.19"><defs><clipPath id="a"><path d="M0 0h426.129v589.191H0Zm0 0"/></clipPath></defs><path d="M81.77 585.191S4 487.203 4 296.383v-3.567C4 101.988 81.77 4.004 81.77 4.004h262.585s77.774 97.984 77.774 288.812v3.567c0 190.82-77.774 288.808-77.774 288.808z" style="stroke:none;fill-rule:nonzero;fill:#5e75b7;fill-opacity:1"/><path d="M344.355 1.004H80.32l-.902 1.133C78.613 3.152 59.484 27.53 40.102 75.73 22.262 120.09 1 193.762 1 292.816v3.567c0 99.05 21.262 172.722 39.102 217.082 19.382 48.2 38.511 72.574 39.316 73.59l.902 1.136h265.485l.898-1.136c.809-1.016 19.938-25.39 39.32-73.59 17.84-44.36 39.106-118.031 39.106-217.082v-3.567c0-99.054-21.266-172.726-39.106-217.086-19.382-48.199-38.511-72.578-39.32-73.593l-.898-1.133zm-1.492 6c3.922 5.285 20.899 29.371 37.703 71.238 17.59 43.824 38.563 116.625 38.563 214.574v3.567c0 97.945-20.973 170.742-38.563 214.57-16.804 41.863-33.78 65.95-37.703 71.238H83.262c-3.922-5.289-20.899-29.375-37.703-71.238C27.969 467.125 7 394.328 7 296.383v-3.567c0-97.949 20.969-170.75 38.559-214.574C62.363 36.375 79.339 12.29 83.262 7.004z" style="stroke:none;fill-rule:nonzero;fill:#917b30;fill-opacity:1"/><g clip-path="url(#a)"><path d="M345.805.004H79.835l-1.198 1.512c-.809 1.02-20.024 25.492-39.465 73.84C21.3 119.795 0 193.601 0 292.815v3.567c0 99.21 21.3 173.012 39.172 217.453 19.441 48.348 38.656 72.824 39.465 73.84l1.199 1.515h266.453l1.2-1.515c.808-1.016 20.023-25.492 39.464-73.84 17.871-44.441 39.176-118.242 39.176-217.453v-3.567c0-99.214-21.305-173.02-39.176-217.46-19.441-48.348-38.656-72.82-39.465-73.84L346.29.004zm-1.45 2h.965c.27.336.602.758.602.758.8 1.008 19.84 25.261 39.176 73.34 17.804 44.28 39.03 117.82 39.03 216.714v3.567c0 98.89-21.226 172.43-39.03 216.707-19.336 48.082-38.375 72.336-39.176 73.344l-.602.757H80.8c-.265-.34-.597-.757-.597-.757-.8-1.008-19.84-25.262-39.176-73.344C23.223 468.812 2 395.273 2 296.383v-3.567C2 193.918 23.223 120.38 41.027 76.102 60.363 28.023 79.402 3.77 80.203 2.762l.598-.758z" style="stroke:none;fill-rule:nonzero;fill:#231f20;fill-opacity:1"/></g><path d="M342.863 6.004H82.758l-.301.402c-4.676 6.313-21.23 30.11-37.828 71.465C27.008 121.777 6 194.711 6 292.816v3.567c0 98.101 21.008 171.035 38.629 214.941 16.598 41.352 33.152 65.153 37.828 71.461l.3.406h260.61l.301-.406c4.676-6.308 21.23-30.11 37.828-71.46 17.621-43.907 38.633-116.84 38.633-214.942v-3.567c0-98.105-21.012-171.039-38.633-214.945-16.598-41.351-33.152-65.152-37.828-71.465l-.3-.402zm-.508 2c3.868 5.27 20.75 29.422 37.286 70.61 17.554 43.745 38.488 116.417 38.488 214.202v3.567c0 97.781-20.934 170.453-38.488 214.195-16.536 41.192-33.418 65.34-37.286 70.613H83.77c-3.868-5.273-20.75-29.421-37.286-70.613C28.93 466.836 8 394.168 8 296.383v-3.567C8 195.027 28.93 122.36 46.484 78.613 63.02 37.422 79.902 13.273 83.77 8.003z" style="stroke:none;fill-rule:nonzero;fill:#231f20;fill-opacity:1"/><path d="M23.445 229.836 212.867 40.414l189.418 189.422-189.418 189.422z" style="stroke:none;fill-rule:nonzero;fill:#fff;fill-opacity:1"/><path d="M210.746 38.293 21.324 227.715a3 3 0 0 0 0 4.242l189.422 189.422a3 3 0 0 0 4.242 0l189.418-189.422a3 3 0 0 0 0-4.242L214.988 38.293a3 3 0 0 0-4.242 0m2.121 6.363c4.102 4.102 181.074 181.078 185.172 185.18-4.098 4.101-181.07 181.078-185.172 185.18l-185.18-185.18z" style="stroke:none;fill-rule:nonzero;fill:#917b30;fill-opacity:1"/><path d="M210.04 37.586 20.616 227.008a3.96 3.96 0 0 0-1.172 2.828c0 1.066.414 2.07 1.172 2.828L210.04 422.086a3.96 3.96 0 0 0 2.828 1.172c1.067 0 2.07-.414 2.828-1.172l189.418-189.422a4 4 0 0 0 1.172-2.828c0-1.07-.418-2.074-1.172-2.828L215.695 37.586a4 4 0 0 0-2.828-1.172c-1.07 0-2.074.418-2.828 1.172m1.414 383.086L22.031 231.25a2 2 0 0 1-.586-1.414c0-.535.207-1.04.586-1.414L211.453 39a1.98 1.98 0 0 1 1.414-.586c.531 0 1.035.207 1.414.586L403.7 228.422c.375.375.586.879.586 1.414 0 .531-.21 1.035-.586 1.414L214.281 420.672a2 2 0 0 1-1.414.586c-.535 0-1.039-.207-1.414-.586" style="stroke:none;fill-rule:nonzero;fill:#231f20;fill-opacity:1"/><path d="M212.16 43.95 26.273 229.835 212.867 416.43l186.586-186.594L212.867 43.242zm-91.176 94.004 91.883-91.883c1.39 1.395 182.367 182.371 183.762 183.766-1.395 1.39-182.371 182.371-183.762 183.766L29.102 229.836c1.39-1.395 91.882-91.883 91.882-91.883" style="stroke:none;fill-rule:nonzero;fill:#231f20;fill-opacity:1"/><path d="M224.91 311.355s-4.105-64.55 12.313-111.535C253.64 152.832 276 127.926 276 127.926L212.773 65.09l-63.128 62.82s22.363 24.91 38.78 71.899c16.415 46.984 12.427 111.546 12.427 111.546z" style="stroke:none;fill-rule:nonzero;fill:#e02e35;fill-opacity:1"/><path d="m210.656 62.96-63.125 62.825a2.997 2.997 0 0 0-.117 4.13c.219.245 22.18 25.093 38.18 70.882 16.02 45.855 12.3 109.734 12.261 110.371a3.004 3.004 0 0 0 2.997 3.187h24.058a3.004 3.004 0 0 0 2.992-3.19c-.039-.642-3.87-64.5 12.153-110.356 16-45.79 37.957-70.633 38.18-70.88a3.006 3.006 0 0 0-.122-4.132L214.887 62.96a3 3 0 0 0-4.23 0m2.116 6.36c3.829 3.804 55.602 55.257 59.153 58.784-5.703 6.989-23.606 30.86-37.535 70.723-11.086 31.727-12.97 70.742-12.97 93.582 0 7.156.184 12.684.329 15.945h-17.746c.133-3.168.305-8.476.305-15.332 0-22.757-1.868-62.195-13.051-94.207-13.934-39.87-31.836-63.738-37.54-70.726 3.548-3.528 55.231-54.965 59.055-58.77" style="stroke:none;fill-rule:nonzero;fill:#917b30;fill-opacity:1"/><path d="m209.95 62.254-63.126 62.82a4.003 4.003 0 0 0-.156 5.508c.219.242 22.074 25.016 37.98 70.543 15.926 45.582 12.25 109.344 12.211 109.984a4 4 0 0 0 3.993 4.246h24.058a4.02 4.02 0 0 0 2.914-1.261 4.03 4.03 0 0 0 1.078-2.992c-.043-.637-3.855-64.305 12.094-109.961 15.91-45.528 37.762-70.301 37.98-70.547a4 4 0 0 0-.156-5.504l-63.226-62.84a4.016 4.016 0 0 0-5.645.004m4.235 1.418 63.226 62.836c.754.75.79 1.96.078 2.754-.222.246-22.328 25.281-38.379 71.218-16.086 46.036-12.246 110.106-12.203 110.747a2.02 2.02 0 0 1-.539 1.496 2 2 0 0 1-1.457.632h-24.058c-.551 0-1.082-.23-1.457-.632a1.99 1.99 0 0 1-.54-1.493c.04-.64 3.739-64.808-12.32-110.765-16.05-45.934-38.156-70.969-38.379-71.219-.71-.793-.676-2 .078-2.754l63.13-62.82a2.004 2.004 0 0 1 2.82 0" style="stroke:none;fill-rule:nonzero;fill:#231f20;fill-opacity:1"/><path d="m212.07 68.61-59.699 59.413.57.7c5.239 6.414 23.407 30.453 37.372 70.425 11.304 32.36 12.996 72.704 12.996 93.875 0 6.754-.164 12.043-.305 15.29l-.043 1.042h19.836l-.047-1.043a366 366 0 0 1-.328-15.902c0-21.023 1.676-61.098 12.914-93.25 13.965-39.972 32.129-64.008 37.363-70.422l.574-.703-60.5-60.125zm-53.02 55.585s52.352-52.097 53.723-53.465l57.813 57.454c-5.895 7.343-23.5 31.289-37.14 70.316-11.333 32.43-13.024 72.758-13.024 93.91 0 6.442.148 11.512.289 14.945h-15.672c.133-3.304.27-8.168.27-14.332 0-21.296-1.704-61.898-13.11-94.535-13.637-39.031-31.246-62.972-37.14-70.32.949-.941 3.992-3.973 3.992-3.973" style="stroke:none;fill-rule:nonzero;fill:#231f20;fill-opacity:1"/><path d="M233.117 311.402s.567-19.812.567-24.34c0-4.53 4.953-12.769 23.777-44.722 24.34-41.324 33.965-60.574 56.043-60.574 16.984 0 18.68 2.832 18.68 2.832l45.289 45.289-43.871 44.156s-5.79-1.656-5.098-10.191c.851-10.473-13.867-32.836-26.887-32.836-13.023 0-23.77 16.62-47.555 53.78-9.058 14.153-14.152 26.606-20.945 26.606" style="stroke:none;fill-rule:nonzero;fill:#e02e35;fill-opacity:1"/><path d="m259.762 232.488-4.887 8.328-1.973 3.348c-18.39 31.215-22.218 37.711-22.218 42.899 0 4.433-.559 24.058-.567 24.257-.02.809.285 1.594.848 2.176a3.02 3.02 0 0 0 2.152.906c6.828 0 11.285-7.574 17.453-18.062 1.875-3.184 3.809-6.477 6.02-9.926 22.328-34.887 33.531-52.398 45.027-52.398 3.903 0 8.77 2.851 13.356 7.82 6.238 6.766 10.968 16.531 10.543 21.773-.707 8.688 4.437 12.512 7.257 13.317 1.051.3 2.184.008 2.954-.77L379.602 232a3 3 0 0 0-.008-4.234l-45.29-45.29c.176.172.329.368.454.579-1.707-2.844-8.86-4.29-21.254-4.29-22.258 0-32.777 17.958-53.742 53.723m-23.078 54.575c0-3.551 5.39-12.7 21.39-39.856l1.973-3.344 4.894-8.34c20.422-34.851 29.743-50.757 48.563-50.757 12.82 0 16.074 1.636 16.527 1.914.008.007.028.035.031.039l43.176 43.172-40.097 40.359c-.817-.828-1.692-2.32-1.692-5.027q0-.532.047-1.13.042-.538.043-1.105c0-7.043-4.953-17.41-12.156-25.218-5.801-6.29-12.11-9.754-17.766-9.754-14.777 0-25.84 17.289-50.082 55.164-2.27 3.547-4.32 7.039-6.133 10.117-3.265 5.547-6.39 10.824-9.156 13.418.168-6.176.438-16.485.438-19.652" style="stroke:none;fill-rule:nonzero;fill:#917b30;fill-opacity:1"/><path d="m258.902 231.984-4.89 8.328-1.973 3.344c-18.504 31.41-22.355 37.946-22.355 43.406 0 4.395-.559 24.036-.563 24.227a4.01 4.01 0 0 0 1.129 2.902 4.02 4.02 0 0 0 2.867 1.211c7.403 0 11.98-7.78 18.317-18.554 1.879-3.2 3.808-6.47 6-9.895 22.128-34.582 33.238-51.937 44.183-51.937 3.625 0 8.227 2.734 12.621 7.5 5.973 6.472 10.68 16.097 10.282 21.011-.758 9.336 4.89 13.477 7.98 14.36a4 4 0 0 0 3.938-1.028l43.87-44.156a4 4 0 0 0-.007-5.644l-45.29-45.29-.03.032c-2.57-2.7-9.586-4.035-21.477-4.035-22.828 0-33.45 18.12-54.602 54.218m-27.218 80.813a2 2 0 0 1-.567-1.45c.004-.19.567-19.867.567-24.284 0-4.915 3.804-11.368 22.078-42.387l1.976-3.352 4.89-8.328c20.767-35.441 31.192-53.23 52.876-53.23 14.41 0 18.797 1.988 20.098 3.418l.296.382.055-.03 44.934 44.937c.39.386.586.902.586 1.414 0 .508-.196 1.02-.582 1.406l-43.871 44.16c-.516.516-1.27.711-1.97.512-2.546-.73-7.19-4.23-6.538-12.274.453-5.574-4.293-15.472-10.805-22.53-4.773-5.177-9.906-8.145-14.09-8.145-12.039 0-23.344 17.664-45.867 52.855-2.215 3.461-4.148 6.75-6.02 9.93-6.02 10.234-10.355 17.601-16.613 17.601a2 2 0 0 1-1.433-.605" style="stroke:none;fill-rule:nonzero;fill:#231f20;fill-opacity:1"/><path d="m264.078 235.02-4.894 8.335-1.973 3.348c-16.535 28.067-21.527 36.535-21.527 40.36 0 3.164-.274 13.652-.434 19.625l-.066 2.398 1.75-1.64c2.918-2.739 6.175-8.282 9.328-13.641 1.812-3.078 3.86-6.559 6.117-10.086 24.035-37.559 35.008-54.703 49.238-54.703 5.375 0 11.422 3.351 17.031 9.433 7 7.59 11.891 17.684 11.891 24.54l-.09 2.234c0 2.472.664 4.402 1.98 5.73l.708.715 41.511-41.777-43.964-43.965-.137-.106c-.8-.48-4.39-2.054-17.043-2.054-19.39 0-28.805 16.062-49.426 51.254m-26.394 52.042c0-3.277 5.785-13.097 21.25-39.347l1.972-3.344 4.895-8.34c20.226-34.511 29.457-50.265 47.703-50.265 12.098 0 15.43 1.468 15.91 1.718.117.118 41.05 41.047 42.41 42.41l-38.59 38.84c-.52-.894-.785-2.07-.785-3.511l.043-1.047.047-1.188c0-7.316-5.11-17.968-12.422-25.898-5.988-6.496-12.562-10.074-18.5-10.074-15.324 0-26.48 17.433-50.922 55.625-2.28 3.558-4.336 7.058-6.152 10.144-2.441 4.149-4.941 8.383-7.223 11.238.16-6.039.364-14.214.364-16.96" style="stroke:none;fill-rule:nonzero;fill:#231f20;fill-opacity:1"/><path d="m228.73 326.64 21.793 30.005-37.644 37.89-37.61-37.89 21.793-30.004z" style="stroke:none;fill-rule:nonzero;fill:#e02e35;fill-opacity:1"/><path d="M197.063 323.64a3 3 0 0 0-2.426 1.239l-21.793 30a3 3 0 0 0 .297 3.879l37.609 37.89a3 3 0 0 0 4.258 0l37.644-37.89a3 3 0 0 0 .301-3.88l-21.793-30a3 3 0 0 0-2.43-1.237zm30.14 6c1.531 2.109 16.906 23.277 19.395 26.699-3.07 3.09-30.118 30.316-33.72 33.937l-33.683-33.937c2.489-3.422 17.864-24.59 19.399-26.7z" style="stroke:none;fill-rule:nonzero;fill:#917b30;fill-opacity:1"/><path d="M197.063 322.64a4.01 4.01 0 0 0-3.235 1.65l-21.797 30.003a3.985 3.985 0 0 0 .399 5.168l37.61 37.89a4.02 4.02 0 0 0 2.839 1.184c1.059 0 2.094-.43 2.84-1.18l37.644-37.894a3.98 3.98 0 0 0 .399-5.168l-21.793-30.004a4.02 4.02 0 0 0-3.239-1.648zm14.398 73.304-37.61-37.894a1.985 1.985 0 0 1-.199-2.582l21.793-30.004c.375-.516.98-.824 1.618-.824h31.667c.641 0 1.243.308 1.618.824l21.797 30.004a1.994 1.994 0 0 1-.2 2.582l-37.648 37.894c-.375.383-.883.59-1.418.59a2 2 0 0 1-1.418-.59" style="stroke:none;fill-rule:nonzero;fill:#231f20;fill-opacity:1"/><path d="M198.594 328.64h-.512l-20.195 27.801 34.992 35.258 35.027-35.258-20.195-27.8zm28.097 2c.567.777 17.664 24.312 18.598 25.597-1.101 1.11-31.09 31.293-32.41 32.621-1.328-1.34-31.293-31.53-32.375-32.617.898-1.234 18.035-24.828 18.598-25.601z" style="stroke:none;fill-rule:nonzero;fill:#231f20;fill-opacity:1"/><path d="M192.621 311.371s-.566-19.812-.566-24.34c0-4.531-4.953-12.765-23.778-44.722-24.34-41.325-33.964-60.575-56.043-60.575-16.98 0-18.68 2.832-18.68 2.832l-45.288 45.29 43.875 44.156s5.785-1.653 5.093-10.192c-.851-10.472 13.868-32.836 26.887-32.836 13.024 0 23.774 16.621 47.555 53.782 9.058 14.152 14.152 26.605 20.945 26.605" style="stroke:none;fill-rule:nonzero;fill:#e02e35;fill-opacity:1"/><path d="M90.98 183.023a2.8 2.8 0 0 1 .454-.578l-45.29 45.29a3 3 0 0 0-.007 4.234l43.875 44.156a3 3 0 0 0 2.949.77c2.82-.805 7.969-4.622 7.262-13.317-.426-5.242 4.304-15.008 10.543-21.77 4.586-4.972 9.453-7.824 13.355-7.824 11.492 0 22.7 17.512 45.027 52.399 2.211 3.453 4.149 6.746 6.02 9.926 6.168 10.488 10.625 18.062 17.453 18.062a2.998 2.998 0 0 0 3-3.086c-.008-.195-.566-19.82-.566-24.254 0-5.18-3.817-11.656-22.153-42.785l-2.039-3.46-4.886-8.325c-20.961-35.77-31.485-53.727-53.743-53.727-12.394 0-19.546 1.446-21.254 4.29m21.254 1.71c18.82 0 28.141 15.907 48.567 50.762l4.894 8.336 2.035 3.457c15.954 27.078 21.325 36.195 21.325 39.742 0 3.168.265 13.477.433 19.653-2.761-2.594-5.886-7.868-9.148-13.414-1.813-3.082-3.867-6.575-6.137-10.122-24.242-37.875-35.308-55.164-50.082-55.164-5.656 0-11.965 3.465-17.766 9.754-7.199 7.809-12.156 18.176-12.156 25.219q.001.567.043 1.106c.035.398.047.773.047 1.128 0 2.707-.871 4.2-1.691 5.028-2.93-2.953-36.43-36.668-40.098-40.36l43.176-43.172c.004-.003.023-.03.031-.039.453-.277 3.707-1.914 16.527-1.914" style="stroke:none;fill-rule:nonzero;fill:#917b30;fill-opacity:1"/><path d="M90.762 181.77c-.004 0-.035-.032-.035-.032l-45.29 45.29a4 4 0 0 0-.007 5.644l43.87 44.156a3.99 3.99 0 0 0 3.934 1.027c3.094-.882 8.743-5.015 7.985-14.359-.399-4.914 4.312-14.539 10.281-21.012 4.395-4.765 8.996-7.5 12.621-7.5 10.945 0 22.055 17.36 44.188 51.938 2.195 3.433 4.125 6.715 5.992 9.89 6.34 10.778 10.918 18.56 18.32 18.56a4.02 4.02 0 0 0 2.867-1.212 4.01 4.01 0 0 0 1.13-2.902c-.095-3.43-.563-20.188-.563-24.227 0-5.453-3.84-11.972-22.29-43.293l-2.038-3.46-4.887-8.325c-21.156-36.098-31.778-54.219-54.606-54.219-11.89 0-18.906 1.336-21.472 4.036m21.472-2.036c21.684 0 32.11 17.79 52.88 53.23l4.89 8.329 2.035 3.46c18.223 30.935 22.016 37.372 22.016 42.278 0 4.067.468 20.848.562 24.172.02.649-.187 1.18-.562 1.563a2 2 0 0 1-1.434.605c-6.258 0-10.594-7.367-16.594-17.566-1.879-3.196-3.816-6.496-6.035-9.961-22.527-35.192-33.832-52.86-45.87-52.86-4.184 0-9.317 2.97-14.09 8.145-6.512 7.059-11.259 16.953-10.805 22.527.652 8.051-3.993 11.551-6.54 12.278-.699.199-1.457.003-1.968-.516l-43.871-44.152a2 2 0 0 1-.582-1.41c0-.516.195-1.028.586-1.415l44.933-44.933c.004 0 .055.031.055.031l.3-.387h-.003c1.3-1.43 5.687-3.418 20.097-3.418" style="stroke:none;fill-rule:nonzero;fill:#231f20;fill-opacity:1"/><path d="m95.191 185.79-.105.065-.117.125-43.88 43.88 41.513 41.777.707-.715c1.316-1.328 1.98-3.258 1.98-5.73l-.09-2.235c0-6.86 4.89-16.95 11.89-24.539 5.61-6.082 11.657-9.434 17.032-9.434 14.227 0 25.2 17.145 49.238 54.703 2.254 3.524 4.301 6.997 6.106 10.063 3.164 5.383 6.422 10.922 9.34 13.664l1.75 1.64-.067-2.398c-.16-5.96-.433-16.437-.433-19.625 0-3.816-4.977-12.261-21.457-40.246l-2.043-3.46-4.89-8.337c-20.626-35.191-30.04-51.254-49.43-51.254-12.657 0-16.247 1.575-17.044 2.055m17.043-.055c18.246 0 27.477 15.75 47.704 50.262l4.894 8.34 2.04 3.46c15.417 26.173 21.183 35.962 21.183 39.235 0 2.766.203 10.93.363 16.961-2.281-2.855-4.781-7.09-7.219-11.23-1.828-3.106-3.883-6.598-6.152-10.153-24.445-38.191-35.606-55.625-50.926-55.625-5.937 0-12.508 3.578-18.5 10.078-7.312 7.93-12.422 18.579-12.422 25.895l.047 1.184.043 1.05c0 1.442-.262 2.618-.785 3.512l-38.59-38.84 42.41-42.41c.48-.25 3.813-1.719 15.91-1.719" style="stroke:none;fill-rule:nonzero;fill:#231f20;fill-opacity:1"/><path d="M382.129 406.84q-7.027 5.777-18.09 5.777-11.589 0-18.25-6.984-6.66-6.983-6.66-18.426c0-7.379 2.367-13.508 7.113-18.39q7.114-7.325 18.395-7.325 9.656-.001 15.117 2.617l-5.004 8.5q-3.26-1.91-10.258-1.91c-4.37 0-7.87 1.57-10.512 4.703q-3.956 4.704-3.957 12.121c0 4.72 1.356 8.547 4.055 11.48q4.053 4.407 10.461 4.407c4.656 0 8.242-1.351 10.75-4.058z" style="stroke:none;fill-rule:nonzero;fill:#917b30;fill-opacity:1"/><path d="M345.523 368.121c-4.906 5.05-7.394 11.473-7.394 19.086 0 7.86 2.332 14.29 6.937 19.117 4.618 4.84 11 7.293 18.973 7.293 7.582 0 13.879-2.02 18.723-6.004l.812-.668-8.277-9.07-.738.797c-2.301 2.48-5.672 3.738-10.02 3.738-4.016 0-7.2-1.336-9.726-4.082-2.512-2.73-3.79-6.367-3.79-10.805 0-4.68 1.254-8.543 3.723-11.476 2.465-2.926 5.652-4.348 9.746-4.348 4.461 0 7.746.598 9.754 1.774l.86.504 6.058-10.301-.98-.469c-3.758-1.8-8.989-2.715-15.547-2.715-7.766 0-14.196 2.567-19.114 7.63m.989 36.82c-4.235-4.442-6.383-10.41-6.383-17.735 0-7.074 2.297-13.027 6.832-17.695 4.523-4.657 10.469-7.02 17.676-7.02 5.699 0 10.246.738 13.656 2.13l-3.95 6.71c-2.323-1.074-5.523-1.633-9.85-1.633-4.657 0-8.45 1.703-11.278 5.059-2.781 3.308-4.192 7.601-4.192 12.765 0 4.957 1.454 9.047 4.32 12.16 2.884 3.137 6.653 4.727 11.196 4.727 4.473 0 8.02-1.277 10.66-3.676.93 1.016 4.317 4.727 5.41 5.926-4.363 3.25-9.898 4.957-16.57 4.957-7.406 0-13.3-2.246-17.527-6.676" style="stroke:none;fill-rule:nonzero;fill:#231f20;fill-opacity:1"/><path d="m70.637 488.543-11.5 43.973 8.187 2.144s4.508-17.246 5.235-20.015l13.527 3.539 2.016-7.707s-10.989-2.875-13.528-3.536c.574-2.191 2.11-8.066 2.68-10.253 2.594.675 14.633 3.824 14.633 3.824l2-7.645-22.82-5.969zM114.883 499.848c-2.602 2.144-4.531 4.972-5.742 8.402-1.145 3.234-2.04 7.023-2.664 11.27-.63 4.234-.875 8.128-.743 11.57.145 3.664 1.176 6.91 3.07 9.644 1.985 2.868 5.255 4.657 9.716 5.313 4.43.656 8.058-.152 10.78-2.399 2.583-2.128 4.477-4.914 5.637-8.277 1.09-3.16 1.965-6.95 2.602-11.266.64-4.347.918-8.28.82-11.695-.101-3.637-1.09-6.875-2.937-9.625-1.942-2.89-5.215-4.695-9.723-5.363-4.43-.652-8.066.16-10.816 2.426m-.492 25.277.52-4.36c.46-3.144.917-5.62 1.35-7.367.423-1.71.958-3.312 1.587-4.753.527-1.207 1.37-2.141 2.586-2.848 1.183-.695 2.539-.914 4.129-.68 2.25.332 3.66 1.176 4.308 2.586.785 1.695 1.133 3.899 1.031 6.55a77 77 0 0 1-.726 8.134 102 102 0 0 1-1.188 6.62 36 36 0 0 1-1.652 5.513c-.574 1.46-1.434 2.507-2.625 3.203-1.195.695-2.55.918-4.148.68-2.247-.329-3.649-1.278-4.415-2.981-.75-1.664-1.125-3.664-1.125-5.957q0-.62.036-1.27zM145.762 502.895l-3.739 45.293 8.125.671s1.36-16.488 1.59-19.308c1.813.148 4.594.379 4.594.379 4.816.398 7.012 2.468 7.012 6.683q-.001.426-.031.883a80 80 0 0 0-.192 5.203c0 4.09.477 5.645.89 6.477l.427.863 10.582.871-2.122-2.98c-.578-.813-1.25-2.711-1.25-7.145q-.001-.256.004-.523.012-.98.012-1.871c0-3.391-.125-5.832-.375-7.434-.437-2.82-1.887-4.05-3.105-4.61.906-.558 1.754-1.206 2.48-2.019 1.84-2.05 2.895-4.613 3.145-7.613q.07-.832.07-1.621c0-3.793-1.2-6.762-3.574-8.836-2.551-2.23-6.067-3.547-10.446-3.91l-13.96-1.149zm7.629 6.66c1.922.16 5.168.425 5.168.425 2.21.184 3.988.832 5.28 1.93.997.848 1.485 2.027 1.485 3.594q0 .33-.027.687c-.203 2.457-.973 4.082-2.352 4.965-1.511.965-3.648 1.34-6.36 1.117 0 0-2.491-.207-4.214-.347zM181.258 505.578l-1.356 45.434 25.254.754.239-7.965-17.106-.508c.07-2.398.309-10.32.379-12.719l15.785.473.234-7.774s-13.082-.39-15.789-.472c.07-2.266.25-8.39.32-10.656l16.927.503.238-8.02-25.074-.75zM318.012 495.695l-6.332.996 5.078 29.79c-5.613-9.368-16.754-27.954-16.754-27.954l-9.234 1.453 7.328 46.582 7.945-1.25-5.098-30.82 17.145 28.922 8.93-1.402-7.329-46.578zM341.46 490.457l-7.276 1.75-1.461 48.867 8.23-2.023s.168-10.88.203-13.008c1.875-.453 9.016-2.172 10.895-2.625 1 1.883 6.113 11.531 6.113 11.531l8.3-2.023-23.745-42.774zm-.125 12.871 6.84 12.961c-2.145.516-4.832 1.164-6.969 1.68.023-2.457.074-8.66.129-14.64" style="stroke:none;fill-rule:nonzero;fill:#917b30;fill-opacity:1"/><path d="M70.098 486.645 57.914 533.23l10.125 2.649s4.773-18.262 5.234-20.016c1.668.438 13.528 3.54 13.528 3.54l2.52-9.641s-11.86-3.102-13.528-3.535l2.176-8.32c1.687.44 14.629 3.827 14.629 3.827l2.507-9.582-24.753-6.472zm1.683 1.476c1.696.442 19.188 5.02 20.883 5.461-.328 1.262-1.164 4.45-1.492 5.711l-14.633-3.828-3.187 12.187s11.859 3.106 13.527 3.54c-.332 1.265-1.176 4.503-1.508 5.769-1.668-.434-13.527-3.54-13.527-3.54l-5.235 20.016c-1.304-.34-4.949-1.292-6.254-1.636.485-1.848 11.247-43.004 11.247-43.004z" style="stroke:none;fill-rule:nonzero;fill:#231f20;fill-opacity:1"/><path d="m97.848 495.281-9.07 44.535 8.234 1.68 9.41-46.203-8.234-1.676z" style="stroke:none;fill-rule:nonzero;fill:#917b30;fill-opacity:1"/><path d="m97.21 493.414-.339 1.668-9.273 45.516 10.191 2.078 9.813-48.164-10.192-2.075zm1.618 2.066s.074-.351.14-.683c1.317.265 4.958 1.008 6.274 1.277-.375 1.836-8.64 42.403-9.012 44.242a3569 3569 0 0 0-6.273-1.277c.383-1.875 8.871-43.559 8.871-43.559M114.246 499.074c-2.742 2.262-4.777 5.238-6.05 8.84-1.165 3.3-2.075 7.152-2.712 11.457-.632 4.3-.886 8.254-.75 11.758.153 3.855 1.243 7.281 3.25 10.176 2.149 3.101 5.645 5.03 10.387 5.73 4.727.7 8.621-.183 11.567-2.617 2.722-2.246 4.722-5.18 5.945-8.719 1.11-3.222 2-7.07 2.644-11.449.653-4.406.934-8.398.832-11.867-.105-3.828-1.152-7.246-3.105-10.156-2.11-3.137-5.61-5.082-10.41-5.793-4.719-.696-8.617.191-11.598 2.64m4.418 45.985c-4.176-.618-7.215-2.262-9.035-4.895-1.785-2.574-2.762-5.64-2.895-9.113-.132-3.38.114-7.211.73-11.387.614-4.18 1.497-7.906 2.618-11.082 1.148-3.258 2.98-5.937 5.438-7.96v-.005c2.52-2.074 5.894-2.816 10.035-2.207 4.215.625 7.257 2.285 9.039 4.934 1.738 2.59 2.672 5.648 2.77 9.097.093 3.348-.18 7.223-.813 11.516-.63 4.254-1.488 7.988-2.559 11.09-1.097 3.187-2.89 5.82-5.328 7.832-2.492 2.058-5.855 2.789-10 2.18" style="stroke:none;fill-rule:nonzero;fill:#231f20;fill-opacity:1"/><path d="M119.93 504.934c-1.407.816-2.383 1.902-3 3.312a31 31 0 0 0-1.64 4.914c-.438 1.774-.9 4.285-1.368 7.457-.008.028-.527 4.403-.527 4.403l-.329 3.066c-.004.05-.043 1.379-.043 1.379 0 2.433.407 4.578 1.215 6.367.907 2.016 2.602 3.18 5.176 3.563 1.832.27 3.402.003 4.797-.805 1.398-.813 2.398-2.024 3.055-3.703a37 37 0 0 0 1.699-5.668c.437-2.016.84-4.266 1.2-6.688.378-2.57.624-5.34.737-8.242.106-2.809-.27-5.164-1.12-7.004-.802-1.742-2.462-2.773-5.071-3.156-1.828-.274-3.39-.008-4.781.805m-4.028 15.949c.457-3.082.907-5.528 1.328-7.242.41-1.657.926-3.203 1.536-4.598.437-1.008 1.148-1.785 2.171-2.383.985-.574 2.122-.754 3.477-.555 1.895.278 3.055.938 3.55 2.016.72 1.55 1.032 3.602.938 6.094a74 74 0 0 1-.718 8.023 100 100 0 0 1-1.172 6.555 35.4 35.4 0 0 1-1.606 5.363c-.488 1.242-1.207 2.125-2.199 2.703-.988.575-2.133.758-3.5.555-1.898-.281-3.023-1.02-3.644-2.402-.692-1.532-1.04-3.399-1.04-5.547l.036-1.211.324-3.02s-.02.067-.035.125c.058-.32.168-1.23.554-4.476M144.902 501.113l-.136 1.7-3.82 46.289 10.117.836 1.593-19.31 3.594.298c4.328.355 6.094 2.004 6.094 5.687l-.031.817-.192 5.27c0 4.355.531 5.987.992 6.921l.676 1.367 13.293 1.098-3.367-4.734c-.32-.454-1.067-1.993-1.067-6.567l.016-2.394c0-3.45-.129-5.93-.387-7.586-.351-2.266-1.316-3.621-2.336-4.477.543-.422 1.043-.86 1.47-1.332 1.987-2.219 3.128-4.976 3.394-8.195l.074-1.707c0-4.094-1.32-7.32-3.918-9.59-2.715-2.375-6.426-3.774-11.02-4.152l-14.957-1.235zm1.856 1.86s.027-.36.058-.696l12.961 1.067c4.16.347 7.48 1.578 9.868 3.668 2.144 1.87 3.234 4.59 3.234 8.082l-.066 1.543c-.231 2.773-1.204 5.136-2.891 7.023-.598.664-1.336 1.266-2.266 1.836l-1.59.98 1.7.782c1.382.633 2.238 1.93 2.539 3.851.242 1.555.36 3.938.36 7.282l-.017 2.394c0 3.785.485 6.383 1.438 7.727 0 0 .45.633.875 1.226-2.547-.21-7.086-.586-7.879-.648l-.176-.356c-.527-1.07-.785-3.043-.785-6.035l.191-5.14.032-.946c0-4.726-2.594-7.242-7.93-7.68l-5.59-.46-1.594 19.308-6.128-.508c.156-1.906 3.656-44.3 3.656-44.3" style="stroke:none;fill-rule:nonzero;fill:#231f20;fill-opacity:1"/><path d="m152.395 509.473-1.106 13.367 5.215.43c2.934.242 5.281-.188 6.98-1.27 1.66-1.062 2.578-2.934 2.809-5.727l.031-.77c0-1.855-.617-3.32-1.84-4.355-1.453-1.234-3.418-1.96-5.843-2.164l-6.164-.507zm1.484 6.351s.309-3.789.426-5.187c1.297.105 4.172.343 4.172.343 2 .165 3.585.735 4.714 1.692.774.656 1.133 1.555 1.133 2.832l-.023.605c-.18 2.125-.797 3.5-1.895 4.203-1.32.844-3.254 1.168-5.742.965 0 0-1.973-.164-3.215-.265.113-1.403.43-5.188.43-5.188M180.309 503.848l-1.438 48.132 27.258.813.297-9.961s-15.336-.457-17.11-.508l.32-10.719c1.755.051 15.79.47 15.79.47l.289-9.774s-14.031-.418-15.785-.469c.043-1.473.215-7.187.257-8.656 1.77.05 16.926.504 16.926.504l.301-10.024-27.074-.808zm1.968 1.058c1.77.055 21.313.637 23.078.692l-.18 6.023c-1.769-.05-16.929-.504-16.929-.504l-.375 12.656 15.785.47-.172 5.773c-1.754-.051-15.785-.47-15.785-.47l-.441 14.716s15.336.457 17.11.511l-.18 5.961c-1.766-.05-21.489-.64-23.258-.695l1.328-44.43s.012-.359.02-.703" style="stroke:none;fill-rule:nonzero;fill:#231f20;fill-opacity:1"/><path d="m238.309 504.152-6.41.125s.64 19.774.98 30.2c-4.29-10.04-12.797-29.965-12.797-29.965l-9.344.18.922 47.144 8.04-.16s-.567-20.617-.856-31.223l13.047 30.985 9.043-.176-.926-47.14z" style="stroke:none;fill-rule:nonzero;fill:#917b30;fill-opacity:1"/><path d="m239.988 503.121-1.699.031-7.422.145.836 25.89c-2.926-6.859-10.965-25.69-10.965-25.69l-11.02.214.962 49.144 10.047-.199s-.536-19.578-.739-26.906c2.93 6.953 11.242 26.7 11.242 26.7l10.72-.208-.962-49.144zm-1.664 2.031s.363-.007.703-.011c.036 1.87.848 43.265.887 45.14-1.45.028-6.344.121-7.363.145-.508-1.203-12.785-30.36-12.785-30.36l-1.922.414.828 30.22c-1.32.023-4.719.09-6.031.116-.036-1.875-.848-43.27-.887-45.144 1.469-.027 6.644-.129 7.672-.149l12.527 29.348 1.922-.426-.945-29.187z" style="stroke:none;fill-rule:nonzero;fill:#231f20;fill-opacity:1"/><path d="m271.816 502.008-28.253 2 .558 7.883 11.098-.786 2.77 39.153 8.382-.594s-2.555-36.047-2.773-39.152l10.472-.742-.558-7.883z" style="stroke:none;fill-rule:nonzero;fill:#917b30;fill-opacity:1"/><path d="m273.441 500.89-30.945 2.192.695 9.875 11.098-.785c.137 1.894 2.774 39.152 2.774 39.152l10.375-.734s-2.637-37.258-2.774-39.153c1.637-.113 10.477-.742 10.477-.742l-.704-9.875zm-1.554 2.114.699-.047c.094 1.3.324 4.582.418 5.887-1.633.113-10.473.738-10.473.738l2.77 39.152c-1.336.098-5.047.36-6.387.453l-2.77-39.152-11.097.785c-.094-1.3-.324-4.582-.418-5.882 1.86-.133 27.258-1.934 27.258-1.934" style="stroke:none;fill-rule:nonzero;fill:#231f20;fill-opacity:1"/><path d="m284.45 500.695-6.66.727 5.108 46.875 8.352-.91-5.11-46.875z" style="stroke:none;fill-rule:nonzero;fill:#917b30;fill-opacity:1"/><path d="m286.031 499.52-1.691.183-7.656.832 5.328 48.863 10.34-1.125-5.325-48.863zm-1.472 2.171s.359-.039.695-.078c.207 1.864 4.691 43.024 4.894 44.887-1.336.145-5.03.547-6.363.695-.207-1.863-4.691-43.023-4.894-44.886zM319.535 494.445l-1.68.262-7.332 1.156 4.352 25.532c-3.832-6.395-14.36-23.957-14.36-23.957l-10.886 1.71 7.637 48.555 9.925-1.558-4.39-26.56c3.847 6.493 14.773 24.923 14.773 24.923l10.59-1.664-7.64-48.555zm-1.37 2.239s.358-.055.694-.11c.293 1.852 6.727 42.75 7.02 44.602-1.434.226-6.266.988-7.277 1.144-.664-1.117-16.793-28.336-16.793-28.336l-1.848.672s4.625 27.961 4.93 29.824c-1.305.207-4.66.735-5.957.938-.293-1.852-6.73-42.754-7.02-44.606 1.45-.226 6.566-1.03 7.578-1.19.668 1.108 16.406 27.37 16.406 27.37l1.844-.68s-4.59-26.925-4.906-28.789c1.418-.222 5.328-.84 5.328-.84M342.484 489.18l-9.28 2.234-1.52 50.941 10.257-2.515s.18-11.633.204-13.004c.925-.227 8.171-1.969 9.386-2.262.645 1.211 6.117 11.531 6.117 11.531l10.329-2.52-24.754-44.581zm-.27 2.125c.696 1.254 21.556 38.824 22.74 40.96-1.63.395-5.231 1.274-6.27 1.528l-6.114-11.527-12.402 2.988s-.18 11.644-.2 13.012c-1.027.254-4.581 1.125-6.206 1.523l1.398-46.785c1.195-.29 6.535-1.574 6.535-1.574s.266-.067.52-.125" style="stroke:none;fill-rule:nonzero;fill:#231f20;fill-opacity:1"/><path d="m340.336 503.32-.14 15.918 9.464-2.277-9.293-17.606zm1.965 3.98c1.601 3.032 3.984 7.548 4.387 8.317-1.317.32-3.157.762-4.47 1.078.012-1.5.052-5.683.083-9.394" style="stroke:none;fill-rule:nonzero;fill:#231f20;fill-opacity:1"/><path d="m60.953 361.516 18.48 51H68.372l-3.43-10.375H45.133l-3.43 10.375H30.711l18.203-51zm-13.09 32.125H62.14l-7.207-21.875z" style="stroke:none;fill-rule:nonzero;fill:#917b30;fill-opacity:1"/><path d="M60.953 360.516H48.207l-18.914 53h13.133s3.031-9.176 3.43-10.375h18.363c.394 1.199 3.43 10.375 3.43 10.375h13.21l-19.207-53zm-.703 2c.453 1.25 16.848 46.492 17.758 49h-8.914l-3.43-10.375H44.41l-3.43 10.375H32.13c.894-2.5 17.039-47.739 17.488-49z" style="stroke:none;fill-rule:nonzero;fill:#231f20;fill-opacity:1"/><path d="m53.98 371.46-7.492 23.18h17.035l-8.601-26.097zm.961 3.527c1.34 4.075 5.16 15.66 5.817 17.653H49.234c.645-1.985 4.387-13.57 5.707-17.653" style="stroke:none;fill-rule:nonzero;fill:#231f20;fill-opacity:1"/><path d="M96.2 407.266a5.74 5.74 0 0 1-5.74 5.738 5.736 5.736 0 1 1 0-11.473 5.736 5.736 0 0 1 5.74 5.735" style="stroke:none;fill-rule:nonzero;fill:#917b30;fill-opacity:1"/><path d="M83.723 407.266a6.747 6.747 0 0 0 6.738 6.738 6.747 6.747 0 0 0 6.738-6.738c0-3.715-3.023-6.735-6.738-6.735s-6.738 3.02-6.738 6.735m2 0a4.74 4.74 0 0 1 4.738-4.735 4.74 4.74 0 0 1 4.738 4.735 4.743 4.743 0 0 1-4.738 4.738 4.743 4.743 0 0 1-4.738-4.738" style="stroke:none;fill-rule:nonzero;fill:#231f20;fill-opacity:1"/><path d="M399.508 407.266a5.74 5.74 0 0 1-5.738 5.738 5.736 5.736 0 1 1 0-11.473 5.736 5.736 0 0 1 5.738 5.735" style="stroke:none;fill-rule:nonzero;fill:#917b30;fill-opacity:1"/><path d="M387.031 407.266a6.747 6.747 0 0 0 6.739 6.738 6.747 6.747 0 0 0 6.738-6.738c0-3.715-3.024-6.735-6.738-6.735s-6.739 3.02-6.739 6.735m2 0a4.74 4.74 0 0 1 4.739-4.735 4.74 4.74 0 0 1 4.738 4.735 4.743 4.743 0 0 1-4.738 4.738 4.743 4.743 0 0 1-4.739-4.738" style="stroke:none;fill-rule:nonzero;fill:#231f20;fill-opacity:1"/></svg>