<svg xmlns="http://www.w3.org/2000/svg" xml:space="preserve" baseProfile="tiny" viewBox="-288 165.1 283 283"><circle cx="-146.5" cy="306.6" r="141.5" fill="#231F20" fill-rule="evenodd"/><circle cx="-146.5" cy="306.6" r="137.7" fill="#FFF" fill-rule="evenodd"/><circle cx="-147.3" cy="307.4" r="44.3" fill="#231F20" fill-rule="evenodd"/><path fill="#BB2026" fill-rule="evenodd" d="M-126.8 221.9c.1 0 .2-.1.2-.1-4.3-.8-9-1.5-13.8-2.3-2.9-.1-5.8-.2-8.7-.2 0 .1.1.2.1.2-4.1 3.6-8.2 7.1-12.3 10.7-.1.2-.2.4-.4.6 8-1.7 16-3.4 24-5 4.4-1.1 8.6-1 10.9-3.9m-52.1 4.8c5.7-1.4 14.1-1.3 16.6-5.9.1 0 .2-.1.2-.1-.2 0-.4-.1-.6-.1-2 .4-4 .9-6 1.3-4.9 1.4-12.2 3.2-15.9 5.9h-.2c1.5.4 4.5-.8 5.9-1.1m68.7.8c-2.6-1.1-5.2-2.2-7.8-3.2-.3 1-5.6 5.5-6.6 6-.1.1-.2.2-.2.4 4.8-1 9.7-1.9 14.5-2.9 0-.1 0-.2.1-.3m-49.2 37.2c0 .1-.1.2-.1.2 2-.4 4.1-.8 6.1-1.2 2.6-.5 6.1.5 8.7-.1-.7-.4 6.4-1.6 7.7-1.9 2.6-.5 5.3-1 7.9-1.6 9.7-8.4 19.5-16.8 29.2-25.2.3-.3.6-.6.8-1-.2-.1-.3-.2-.5-.4-.7.9-24 5-31.9 6.6-9.2 8.2-18.6 16.4-27.9 24.6m-12.6-31h-.7c-8.3 1.7-16.6 3.4-24.9 5.2-1.4.3-5.1.5-5.6.8-1.1 1-2.2 2-3.2 3-5.6 4.5-14.2 14.7-17.1 21.8 7.1-1.4 14.1-2.9 21.2-4.3 10-8.9 20.1-17.7 30.3-26.5m36.6 0h-.7c-10.7 2.2-21.5 4.4-32.2 6.6-10 8.8-20 17.6-30.1 26.3.5.4 27.6-5.5 32.6-6.5 10.1-8.7 20.2-17.5 30.3-26.2.1-.1.1-.2.1-.2m10.5 33c10.8-2.2 21.6-4.4 32.5-6.6l8.7-7.5c.9-.8 1.8-2.1 3-2.5-2.2-3.4-7.4-8.5-10.8-10.7-1.1.3-2.2.6-3.4.8-5.2 4.5-24.9 21.8-29.6 26-.2.2-.3.4-.4.5m36.7.1c5.6-1.2 11.2-2.3 16.8-3.5-1.2-2.3-2.9-5.7-4.8-7.3l-11.7 10.2zm-121.2 4.1c-4.8 1-9.5 2-14.3 3-1.3.3-3.9 1.1-4.8.6-1.2 5.7-4.4 11-4.8 17.7l24.6-21.3zm97.7 11.2c1.1-.3 11.7-9.7 13-11.2h-.6c-6.1 1.3-12.3 2.6-18.4 3.8h-.2c1.6 2.8 4.8 4.4 6.2 7.4M-234.4 304c10.6-2.2 21.2-4.3 31.7-6.5 2.9-2.6 14.9-12.9 18-15.5.6-.5 2.5-2.7 3-2.3 1.7-1.6 2.9-3.7 4.7-5.2 1.4-1.2 2.9-2.3 4.3-3.5h-.6c-10.6 2.2-21.2 4.3-31.7 6.5-7.2 6.3-28 25.6-29.6 25.7 0 .2.1.3.1.5v.3zm126.9-15.3c-.2.2-.1.2 0 .6.7 1.8 1.4 3.5 2 5.3.4 1.6.8 3.3 1.2 4.9.1.1 10.9-1.6 11.8-2.2 6.4-5.5 12.8-11.1 19.2-16.6 1.9-1.5 5-5.5 7.2-6.1-.3-.9-.6-2.2-1.3-2.8-9.1 1.8-18.3 3.7-27.4 5.5-4.2 3.9-8.4 7.6-12.7 11.4m19.3 15.3c9.3-1.9 18.6-3.8 27.9-5.6 0-4.1-1.6-13.5-3.1-16.2-8.1 7.1-16.3 14.3-24.4 21.4-.2.1-.3.2-.4.4m-102.4-6.8c-2.6 2.3-5.1 4.6-7.7 6.9 2.3-.5 4.6-1 7-1.4.2-1.8.4-3.7.7-5.5m-18.3 9.7c-6.1 1.2-12.3 2.5-18.4 3.7-1.9.5-5.3 1.7-7.1 1.3.2 2.2.4 4.5.6 6.7.6 2.8 1.1 5.6 1.7 8.4.1 0 .2.1.2.1 7.7-6.8 15.5-13.5 23.2-20.3h-.2zm105.3.9c0 1.2-.1 2.3-.1 3.5 1.7-1.4 3.4-2.9 5-4.3v-.1c-1.6.3-3.3.6-4.9.9m41.6-.9h-.2l-32.5 6.6-9 7.8c-.7.5-2.3 2.8-3.1 2.5-.3.8-.6 1.5-.8 2.3-1.2 2-2.3 4.1-3.5 6.1-1.6 1.9-3.1 3.8-4.7 5.8l-.2.2 23.7-4.8c5.7-5.1 29.6-25.4 30.3-26.5m-140.4 26.5c4.4-3.8 8.8-7.7 13.2-11.5-.1-.6-2.5-11-2.5-11.1-4.4.9-8.7 1.8-13.1 2.6-6.2 5.4-12.3 10.8-18.5 16.2-1.9 1.5-4 4.8-6.4 5.5.4 1.2.9 2.5 1.3 3.7 1.4-1 4-.9 5.9-1.3 6.7-1.3 13.4-2.7 20.1-4.1m114.2 6.6c5.5-1.1 11-2.2 16.5-3.2 1.8-.4 5.5-1.8 7-1.3.6-2 1.3-4 1.9-6 1-3.2 1.2-6.4 1.9-9.9.2-1.4.3-2.7.5-4.1-9.1 8-18.2 15.9-27.3 23.9-.2.2-.4.4-.5.6m-109.7-.4c-.1.2-.2.4-.4.6l17.7-3.6c-2-2.3-3.5-5.1-5.4-7.6-.3.7-10.8 10.1-11.9 10.6m-11 4.5c-5.2 1-10.3 2.1-15.5 3.1 1.3 2.2 2.6 4.5 3.8 6.7.1.1.2.2.4.2 3.8-3.4 7.7-6.7 11.5-10.1h-.2zm47.6 32.8c-.1.1-.2.2-.2.4l32.5-6.6c6.1-5.3 30.1-25.6 30.3-26.6-10.9 2.2-21.9 4.5-32.8 6.7-10 8.7-19.9 17.4-29.8 26.1m-11.1-32.2c.1-.1.2-.2.2-.4-.2 0-.4-.1-.6-.1-10.7 2.2-21.3 4.3-32 6.5-3.7 3.2-7.5 6.4-11.2 9.6 1.5 2.4 7.6 9.6 10 10.7 1.7 1.8 7.6-4 8.8-4.9 8.3-7.1 16.6-14.2 24.8-21.4m77.4 6.2c-9.9 8.7-19.7 17.3-29.6 26-.1.2-.2.3-.4.5 10.8-2.2 21.6-4.4 32.5-6.6 4-3.6 8.1-7.1 12.1-10.7 4.3-3.4 6-5.5 8.9-10.3.7-1.1 1.9-2.4 2-4h-.4c-8.2 1.6-16.7 3.3-25.1 5.1m-70.8 19.8 22.2-19.2c0-.1.1-.2.1-.2-7.3 0-12.3-.6-17.9-2 0 .1.1.2.1.2-2.3.4-4.6.9-7 1.3-6.5 5.7-27.8 25.7-30.3 26.4.5.4 2.6-.2 3.8-.5 3.9-.8 7.8-1.7 11.7-2.5 5.9-1.2 11.6-2.3 17.3-3.5m-22.6 12.7v.1c2.7 1.2 5.3 2.8 8.3 3.8l8.1-7.2h-.2c-5.4 1.2-10.8 2.2-16.2 3.3m52.8-3.2c-2.2.4-23.9 4.8-32.6 6.6-1.2 1.2-2.5 2.3-3.7 3.5 6.1 1.9 13.4 3.6 21.3 3.5.4-1.2 3.2-2.9 4.3-3.8 3.6-3.2 7.3-6.4 10.9-9.6 0-.1-.1-.2-.2-.2m-2.6 12.5c-.2.2-.4.5-.6.7 10.2 0 22.5-4.7 29.6-8.3 1.6-.8 7.1-3.2 7.5-4.3l-29.7 6c-2.4 2-4.6 3.9-6.8 5.9"/><path fill="#BB2026" fill-rule="evenodd" d="M-240.7 308.5v-1.9c0-52 42.2-94.2 94.2-94.2s94.2 42.2 94.2 94.2v1.8l39.2.8v-2.6c0-73.7-59.7-133.4-133.4-133.4s-133.4 59.7-133.4 133.4v2.6z"/><path fill="#FFF" fill-rule="evenodd" d="M-153.2 178.1c-1.4.1-2.8.2-4.2.2-1.9.3-3.9.6-5.8.8v30.4c11.3 2.1 22.8-1.4 26.4-8.4 1.3-2.5 2.3-6.5 1.7-10.2-1.6-9.6-6.9-12.9-18.1-12.8m2.1 25c-.8.2-2.7.6-3.6.2-.7-.6 0-3.1-.2-4.5 0-4.7-.1-9.4-.1-14 .3-.1.6-.2 1-.2 5-.1 8.1.9 9.5 4.3 2.8 6.7-1.2 13-6.6 14.2m46.4-18.2c0-.1-.1-.2-.1-.2l-23.4-5.7c-.5 2.3-1 4.5-1.4 6.8 2.4.6 4.8 1.3 7.3 1.9.1 0 .2.1.4.1-1.6 7.6-3.2 15.3-4.8 22.9.2 1 6.5 2.1 7.8 2.5 1.3-5.8 2.5-11.6 3.8-17.4.4-1.8.4-4.8 1.4-6.2 2.5.6 5.1 1.2 7.6 1.8.4-2.1.9-4.3 1.4-6.5m-70.6 2.4c-.6-1.9-1.3-3.9-1.9-5.8-.2-.4-.1-.3-.6-.4-2.4.9-4.8 1.8-7.1 2.7l-.1.1c.6 2 1.3 4 1.9 5.9 1.2.5 6-2.1 7.8-2.5m-16.9 6.3-2-6.1h-.5c-2.4.9-4.8 1.8-7.3 2.7l-.1.1c.7 2 1.3 4 2 6.1 1.5.2 6.3-2.1 7.9-2.8m93.8-6c-3.8 9.5-7.5 18.9-11.3 28.4.3.9 6.2 3.2 7.5 3.7l11.4-28.8c-1-.9-6.1-3-7.6-3.3m-75.8 3.7c-2.5 1-5 2.1-7.5 3.1 1.6 3.6 5.4 12.7.2 14.9-5.6 2.4-8.6-7.3-9.3-11.3-1.2-.4-6.1 2.2-7.8 2.6.5 1.5 1 3.1 1.5 4.6 1.4 4.2 2.8 7.9 6.2 10.1 5.2 3.5 12.9.1 16.4-2.7 4.8-3.8 4-10.4 2.1-16.4-.3-1.4-.6-4.2-1.8-4.9M-65.7 209c-1.4-3.7-11.6-12.5-15.7-13.1-5.6 8.3-11.2 16.6-16.8 25-.2.5 5 4.5 6.1 4.9l.2.2c2.1-3.1 4.3-6.3 6.4-9.4.1 0 .2-.1.2-.1 4.3 2.7 2.8 5 1.3 9.3-.5 1.6-1 3.2-1.4 4.9 1.5 1.9 4.8 4 6.9 5.1 1.3-5.2 4.4-9.6 3-15.8 6.1.6 12.4-4.1 9.8-11m-15.8 2.6c-.2-.2-.1 0-.2-.4 1.3-1.9 2.5-3.8 3.8-5.7 2.4.3 5.9 3.7 4.2 6.7-1.9 3-6.1 1.4-7.8-.6m-128.2-1.9c-1.9.4-5.3 2.3-7.4 1.3-.6-.3-.8-.6-1.1-1.2 0-3.6 5.1-5.9 8.3-6.3-.2-1.8-1.3-5.4-2.4-6.5h-.2c-1.5.6-2.9 1.1-4.4 1.7-4.6 2.7-12.4 9.3-7.7 16.9.7 1.1 1.5 2.2 2.6 2.9 5.1 3.1 11.9-2 15.1-.4 1.6.7 1.3 2.8.2 3.9-1.9 2-5.4 4.2-8.9 4.4 0 .1-.1.2-.1.2.8 2.1 1.6 4.1 2.4 6.2 1.8.7 5-1.4 6.3-2.1 4.4-2.7 12.4-9.3 8-16.8-1.8-3-5.4-5.3-10.7-4.2m-30.1 34.8c-5.4-3.6-6.1-9.2-1.9-14.5.8-1 1.6-2.1 2.9-2.6.1-.1.2-.2.2-.4-1-1.4-2.9-4.4-4.5-5.1-1.3 1.3-2.9 2.2-4 3.7-4.5 5.8-7.1 14.8-1.9 22 3.2 4.4 10.7 9.4 18.3 6.3 5.5-2.3 9.3-7.9 11.2-13.9-2-1-4-2-5.9-3-1.5 5.8-7.5 12-14.4 7.5m198.3-11c-1.5-4.9-5.4-9.2-10.3-10.7-1.3-.2-2.7-.4-4-.6l-3.9.6c-4.8 1.5-8.7 4.8-11.1 8.8-5.8 9.8 2.1 21.2 10.7 22.8 10.4 2 22-10 18.6-20.9m-21.3 12.3c-6.4-4 .3-11.7 3.8-13.9 1.4-.9 3-1 4.8-1.7 4 0 7 3.5 5.5 7.8-1.3 3.5-8.7 11.1-14.1 7.8m-181.9 12.1c-2-.9-4-1.8-6.1-2.7-1.3 3.3-2.5 6.6-3.8 9.9-1.2.4-4.1-1.3-5.4-1.9l3.9-10.5c-.2-.8-5.1-2.7-6.2-3-2.3 6.2-4.7 12.4-7 18.7 9.5 4 19.1 7.9 28.7 11.9 1-2.5 1.9-5.1 2.9-7.6-3.5-1.5-7.1-3-10.6-4.5-.3-1.1 3-8.6 3.6-10.3m217.4 1.8c-.2-1.6-2.2-7-3.1-7.8-9.5 3.8-18.9 7.6-28.4 11.4-.3 1.6 1.3 4 1.9 5.5 1.7 4.5 3.3 9 5 13.4.1 0 .2.1.2.1 2-.8 4-1.6 6.1-2.4.4-1.1-3.2-9.4-3.9-11.2zM-150.9 275.1c4.8 3.1 9.7 6.2 14.5 9.3 5 0 10.1-.1 15.1-.1v-10.7c-4.8-3.4-9.4-5.8-16-7.6-1.7-.5-4.7-1.6-6.9-1.1-1.8.7-3.6 1.4-5.3 2.1-.2.5-1.6 7.7-1.4 8.1m-23.3 9.4c2.2 0 4.4.1 6.5.1 3.3-2.1 6.6-4.1 9.9-6.2 2-1.2 4-2.3 5.9-3.5.4-2.7.9-5.4 1.3-8.1-1.6-.5-2.8-1.5-4.8-1.5-2.7.8-5.5 1.6-8.2 2.4-4.1 1.7-15.4 8.7-16.7 12.3.2 1.4.3 2.8.5 4.2 1.9.3 3.7.3 5.6.3m47.3 31.6c2.8 0 5.6-.1 8.4-.1 2.4-5.2 4.8-10.5 7.1-15.7-3.3-5-6.6-9.9-9.9-14.9-5 0-10-.1-15-.1-2.3 5.6-4.6 11.1-6.9 16.7 3.1 4.6 6.3 9.2 9.4 13.8 1.5 1 4.8.3 6.9.3m-44.3.3c3.1-3.1 4.9-8.1 7.3-11.9.5-.8 2.3-2.5 2.1-3.8l-6.3-15c-2-.9-9.1-.4-11.7-.4-2.8 5.1-5.6 10.2-8.5 15.4 1.7 4.9 3.5 9.8 5.2 14.6 3.9.4 7.9.8 11.9 1.1m66.1-15.8c-1.8 0-3.6-.1-5.3-.1-2.5 5.3-5 10.7-7.5 16 .6 4.4 1.1 8.7 1.7 13.1l4.2 1.8c.9-.9 1.4-2.2 2.1-3.4 4.1-7.1 5.7-16.3 4.8-27.4m-77.4 23.5c-.4-2.6-.8-5.2-1.2-7.7-1.1-2.9-2.2-5.7-3.3-8.6-.6-1.5-1.2-5.7-2.7-6.3-2.2 8.1 1.1 18.8 3.5 24.2.9 1.7 1.9 3.3 2.8 5 .1.1.2.2.4.2.4-.2.9-.5 1.3-.7.6-1.3-.4-4.5-.8-6.1m21.6-22.6c-3.1 5.2-6.2 10.3-9.3 15.5 2.1 3.5 4.1 6.9 6.2 10.4.8 1.4 1.5 3.7 2.8 4.6 6 0 11.9-.1 17.9-.1l9.3-15c-3.2-4.7-6.5-9.4-9.7-14.2-1.9-1.2-14-.9-17.2-1.2m-20 29.2c-.5.3-1 .6-1.5.8 0 .1-.1.2-.1.4 4.4 6.5 13.9 15.1 23.1 16.6v-.1c-1.7-1.5-3.3-2.9-5-4.4-5.4-4.4-10.6-9.3-16.5-13.3m59.9 2.9c-5 3.4-10.8 6.6-14.5 11.3-.8.8-1.5 1.6-2.3 2.4-.7.8-1.5 1.5-2.2 2.3 9.5-1 24.4-10.2 27.4-17.3-.8-.7-2.8-1.5-4-1.6-1.5.9-2.9 1.9-4.4 2.9m-12.4 7.6c-3.4-2.8-6.8-5.6-10.2-8.5h-5.1c-4.3.1-8.6.2-12.8.2-1.9 2.3-3.9 4.5-5.8 6.8v.2c.8 1 8.8 8.2 9.7 8.5l16.8.6c1.8-1.9 3.6-3.8 5.3-5.7z"/><path fill="#231F20" fill-rule="evenodd" d="M-46.3 315.4c-.4 1.6-.7 3.2-1.1 4.8v.6c5.6 1.4 11.8 3.2 18.2 3.2v.1c-2.2.5-4.4 1.1-6.6 1.6-4.5 1.4-9 2.9-13.4 4.3-.5 2.3-1.1 4.6-1.6 6.8 2.3 1.1 5.4 1.1 8.1 1.7 6 1.2 12 2.4 18 3.7.4-1.7.7-3.4 1.1-5.1-1-.8-3-.7-4.4-1-4.5-1.1-9.7-2.7-14.7-2.8v-.1c2.3-.6 4.6-1.1 6.8-1.7 4.8-1.5 9.5-3 14.3-4.5l1.2-6v-.1c-8.6-1.9-17.2-3.7-25.9-5.5m-208.4 21c1.1.8 1.7 2 3.1 2.6 1.2.5 3 .4 4.2 0 6.3-2.3 4.1-14.5 1.1-19.1-.3-.4-.1-.3-.7-.4l-24.6 6c-.5 1.7.4 3.9.7 5.3 1.3 5.1 2.4 10.1 6.8 12 5 2 9.4-2 9.4-6.4m-.3-8.8c1.8-.4 3.6-.9 5.4-1.3h.6c1 2.4 1.8 6.6-1.2 7.3-3.3.8-4.6-3.5-4.8-5.9zm-11.5 3.4v-.6c2.3-.6 4.6-1.1 6.8-1.7.2 0 .3.1.5.1.4 2.3 1.5 5.8-.5 7.3-4 3.2-5.9-2-6.8-5.1m230.6 25.9c-1.9-.7-3.7-1.5-5.6-2.2-.4-2.4 3.1-6.5 3.4-9.3-1.4-.6-2.9-1.1-4.3-1.7-1.2 1.2-3.3 6.9-3.8 8.8-1.4.1-3.7-1.4-5.1-2 1.3-3.2 2.6-6.4 3.9-9.5-1.5-.7-3-1.3-4.5-2-2.1 5-4.2 10-6.4 15 5.1 2.2 10.3 4.3 15.4 6.5 3.1 1.3 6.1 2.5 9.2 3.8 2.2-5.1 4.3-10.3 6.5-15.4-.8-.9-3.3-1.8-4.6-2-1.4 3.4-2.7 6.7-4.1 10M-243 367.6c12.9-5.6 10.7-24.8-5.7-24.6-1.5.4-2.9.7-4.4 1.1-3.3 1.3-6.1 3.8-7.8 6.7-4.9 8.5 3 17.2 10 18.5 3.1.5 6-.9 7.9-1.7m-11.1-5.1c-1.4-.8-2.2-2.1-2.7-3.8-1.3-4.4 3.3-7.6 6.1-8.8 1.4-.4 2.9-.7 4.3-1.1 4.6.1 8.6 4.2 5.7 8.9-1.6 2.7-4.7 4.3-8.2 5.1-1.6.5-3.8.5-5.2-.3m206.3 15.1c-.1 0-.2.1-.4.1-.4-1-.8-2-1.2-3.1-1.8-4.3-5.6-17.9-9.9-18.9-3.5 5.3-7.1 10.6-10.6 15.9l4.2 2.7c2-3.1 4.1-6.1 6.1-9.2.1 0 .2-.1.2-.1 1 1.1 1.3 3.1 1.8 4.5 1.6 4.1 5.3 16.1 8.8 17.6l.2.2c3.8-5.7 7.7-11.4 11.5-17.1-1.3-.9-2.7-1.8-4-2.7-1.2 1.1-6.2 8.5-6.7 10.1m-188.8 10.9c-2.1-2.6-4.2-5.2-6.4-7.8v-.2c5.5-4.4 11.1-8.9 16.6-13.3v-.2c-.8-1.2-2.5-4-3.9-4.5-6.8 5.5-13.7 11-20.5 16.5 3.5 4.3 6.9 8.6 10.4 13 1.2-.9 2.4-1.9 3.7-2.8 0-.4 0-.6.1-.7m8.6 8.3c7-1.9 14-3.7 21-5.6.7-.8 1.5-1.6 2.2-2.4v-.2c-4.9-4.2-9.8-8.3-14.7-12.5-1 1.2-2 2.4-3.1 3.5v.2l7.8 6.6c.2.3.5.6.7.9-7.2 1.9-14.3 3.8-21.5 5.7-.7.7-1.3 1.5-2 2.2v.2c5.1 4.4 10.3 8.9 15.4 13.3h.2c1.1-1.2 2.1-2.4 3.2-3.7-3.1-2.7-6.3-5.5-9.4-8.2zm155.1-20.2c-4.9 2.1-8.8 3.8-10.4 9.2-2.7 9.4 7.2 20.2 16.3 18 16-4 11.8-27.5-5.9-27.2M-66 398c-5.8 2.3-14-6.9-11.7-12.5.9-2.2 2.6-2.5 4.9-3.4 7 .3 15.6 12.3 6.8 15.9m-20.8 3.9h-.1v-.1c3.1-5.2 1.3-10.1-6-9.9-4.4 2.2-9.2 3.2-12.2 6.7-.2.2-.1 0-.2.4 4.2 7.4 8.5 14.8 12.7 22.2 1.6.3 3.7-1.4 4.9-2.1 3.7-2.2 8.1-4.2 9.4-8.8 1.4-5.3-3.4-10-8.5-8.4m-11.5-2.6c1.1-1.2 2.6-1.6 4.2-2.3 3.3-.1 4.5 2.9 2.7 5.1-1.2.8-2.4 1.6-3.7 2.4-1.1-1.7-2.2-3.4-3.2-5.2m13.3 12.6c-.9 1.3-2.8 2.3-4.3 2.9-1.3-2.1-2.5-4.2-3.8-6.4 1.1-1.3 3.1-1.6 4.9-2.3 3.2 0 5.1 3.3 3.2 5.8m-113.5-19.5c-6.5 6.4-13 12.8-19.6 19.2v.4c6.6 3.4 5.3 3.1 10.3-2.2 2.2 1.2 4.4 2.4 6.6 3.5-.4 2.4-.9 4.7-1.3 7.1 1.8 1 3.7 2 5.5 2.9 1.9-9 3.7-18 5.6-27-.7-.9-5.9-3.7-7.1-3.9m-1.1 16.2c-.1.1-.2.2-.4.2l-4.5-2.4c-.1-.1-.2-.2-.2-.4l7.2-7.8c.4.7-2 8.5-2.1 10.4m31.5-4.1c-1.4 5.9-3.5 11.6-4.3 18.1-.4-2.2-.8-4.5-1.2-6.7-1.2-4.6-2.4-9.3-3.7-13.9-2.2-.6-4.5-1.1-6.7-1.7-2.3 8.5-4.6 16.9-6.8 25.4 0 .1.1.2.1.2 1.7.4 3.3.9 5 1.3.1 0 .2-.1.2-.1 1.5-6.1 3.8-12.1 4.6-18.6.1 0 .2-.1.2-.1.4 2.5.9 5 1.3 7.5 1.1 4.6 2.3 9.2 3.4 13.8 2 .6 4.1 1.2 6.1 1.8 2.3-8.6 4.6-17.1 6.8-25.7-1.6-.4-3.2-.9-4.8-1.3zm17 1.7c-1.1.2-2.2.5-3.3.7-3.5 1.2-6 4.1-7.3 7.5-3.9 9.9 2.9 21.2 13.8 19.2 15-2.9 14.9-27.7-3.2-27.4m2 22.7c-6.2 1.2-8.2-6.8-6.8-12.2.9-3.4 2.5-4.5 5.5-5.7 9.3-.2 8.9 16.4 1.3 17.9m29.8-15.6c-2.3.9-3.9 1.4-4.6 3.9-1.1 3.8 2.3 7.4 6.4 6.5 5.6-1.3 4.9-10.5-1.8-10.4"/><path fill="#231F20" d="M-146.5 397.2c-12.2 0-24.1-2.4-35.3-7.1-10.8-4.6-20.5-11.1-28.8-19.4s-14.9-18-19.4-28.8c-4.7-11.2-7.1-23-7.1-35.3s2.4-24.1 7.1-35.3c4.6-10.8 11.1-20.5 19.4-28.8s18-14.9 28.8-19.4c11.2-4.7 23-7.1 35.3-7.1s24.1 2.4 35.3 7.1c10.8 4.6 20.5 11.1 28.8 19.4s14.9 18 19.4 28.8c4.7 11.2 7.1 23 7.1 35.3s-2.4 24.1-7.1 35.3c-4.6 10.8-11.1 20.5-19.4 28.8s-18 14.9-28.8 19.4c-11.2 4.7-23 7.1-35.3 7.1m0-177.3c-47.8 0-86.7 38.9-86.7 86.7s38.9 86.7 86.7 86.7 86.7-38.9 86.7-86.7-38.9-86.7-86.7-86.7"/></svg>