<svg xmlns="http://www.w3.org/2000/svg" xml:space="preserve" id="Capa_1" x="0" y="0" version="1.1" viewBox="6.26 2.9 457.89 240.8"><style>.st0{fill:#fff}</style><path d="M235 243.7c-24.9 0-48.9-7.6-69.2-21.9-16.1-11.3-29.2-26.4-38-43.8H95.2c-9.2 0-17.4-3.5-24.5-10.3l-.2-.2L63 160c-1.4-1.4-2.6-2.9-3.7-4.6-1.8-1.2-3.5-2.7-5.2-4.3l-.1-.1-7.4-7.5c-1.4-1.4-2.7-2.9-3.7-4.6q-2.7-1.8-5.1-4.2l-.2-.2-7.3-7.4c-1.4-1.4-2.7-3-3.8-4.7q-2.7-1.8-5.1-4.2l-.2-.2-7.4-7.4C6.6 103.5 4.3 93.4 8 84.4c3.6-8.8 12.4-14.8 21.9-14.8h97.6c20.3-40.7 62-66.7 107.7-66.7s87.4 26 107.7 66.7h97.6c9.5 0 18.3 6 21.9 14.8 3.7 9 1.4 19.1-5.9 26.2l-7.6 7.6q-2.4 2.4-5.1 4.2c-1.1 1.7-2.3 3.2-3.8 4.7l-7.5 7.5c-1.7 1.6-3.4 3.1-5.2 4.3-1.1 1.7-2.3 3.2-3.7 4.6l-7.6 7.6c-1.6 1.6-3.4 3-5.1 4.2-1 1.6-2.3 3.2-3.7 4.6l-7.6 7.6c-7.1 6.8-15.4 10.3-24.6 10.3h-32.6c-8.9 17.4-21.9 32.5-38 43.8-20.5 14.6-44.4 22.1-69.4 22.1"/><path d="M235 235.8c-23.3 0-45.7-7.1-64.6-20.4-16.5-11.6-29.3-27.1-37.6-45.3H95.2c-7.2 0-13.4-2.6-19-8.1l-.2-.2-7.4-7.4a18.9 18.9 0 0 1-3.4-4.6c-1.9-1.2-3.8-2.6-5.6-4.4l-.1-.1-7.4-7.4c-1.4-1.4-2.6-3-3.4-4.6-1.9-1.2-3.7-2.6-5.5-4.3l-.2-.2-7.3-7.4c-1.4-1.4-2.6-3-3.4-4.6-1.9-1.2-3.7-2.6-5.5-4.3l-.2-.2-7.4-7.4c-5-4.9-6.5-11.6-4.1-17.6 2.4-5.9 8.3-9.8 14.6-9.8h102.6C150.2 37.5 190.6 11 235 11s84.8 26.5 102.7 66.7h102.7c6.3 0 12.2 4 14.6 9.9 2.4 6 .9 12.7-4.1 17.6l-7.5 7.5c-1.8 1.7-3.6 3.1-5.5 4.3-.9 1.7-2 3.2-3.5 4.6l-7.4 7.5c-1.8 1.8-3.6 3.2-5.6 4.4-.8 1.7-2 3.2-3.4 4.6l-7.5 7.6c-1.8 1.7-3.6 3.1-5.5 4.3-.8 1.6-2 3.2-3.4 4.6l-7.5 7.6c-5.6 5.4-11.9 8.1-19.1 8.1h-37.6c-8.3 18.1-21.2 33.7-37.6 45.3-19.1 13.1-41.5 20.2-64.8 20.2" class="st0"/><path d="M329.8 88.6h110c3.6 0 7.1 4.6 2.8 8.8l-7.4 7.4c-2.2 2.1-4.5 3.6-7.1 4.4.2 1.4-.3 3.1-2 4.6l-7.4 7.4c-2.1 2.1-4.4 3.6-7.1 4.4.2 1.4-.3 3.1-1.9 4.6l-7.4 7.4c-2.2 2.1-4.5 3.6-7.1 4.4.2 1.4-.3 3.1-1.9 4.6l-7.4 7.4c-3.2 3.1-6.8 5-11.5 5h-44.8c-14.5 38.4-51.5 65.7-95 65.7-43.4 0-80.5-27.3-95-65.7h-45c-4.7 0-8.2-1.9-11.5-5l-7.4-7.4c-1.6-1.6-2.1-3.2-1.9-4.6-2.7-.8-5-2.3-7.1-4.4l-7.4-7.4c-1.6-1.6-2.1-3.2-1.9-4.6-2.7-.8-5-2.3-7.1-4.4l-7.4-7.4c-1.6-1.6-2.1-3.2-1.9-4.6-2.7-.8-5-2.3-7.2-4.4l-7.4-7.4c-4.3-4.2-.8-8.8 2.8-8.8h110c14.2-38.9 51.6-66.7 95.4-66.7 43.7 0 81 27.8 95.2 66.7m1.3 65.9h43.2c3.4 0 5.9-1.4 8.2-3.7l5.3-5.3c1.2-1.1.5-2.8-1-2.8h-52.6c-.9 4-1.9 8-3.1 11.8m3.8-16.5h55.9c3.4 0 5.9-1.4 8.2-3.7l5.3-5.3c1.4-1.4.7-2.8-.8-2.8H336c-.2 4-.5 7.9-1.1 11.8m1-16.5h71.3c3.4 0 5.8-1.4 8.2-3.7l5.8-5.9c1-1.2-.1-2.2-1.1-2.2H335c.6 3.9.9 7.8.9 11.8m-1.6-16.4h89.4c3.4 0 5.9-1.4 8.2-3.7l6-6c.7-.6 1.1-2.2-.8-2.2H331.4c1.2 3.9 2.2 7.8 2.9 11.9m-200.4 4.7H48.7c-1 0-2 1-1 2.2l5.8 5.9c2.3 2.2 4.8 3.7 8.2 3.7H133c0-4.1.4-8 .9-11.8m-.9 16.4H65.5c-1.6 0-2.3 1.4-.8 2.8l5.3 5.3c2.3 2.2 4.7 3.7 8.2 3.7H134c-.5-3.9-.9-7.8-1-11.8m1.8 16.5H82.2c-1.6 0-2.2 1.7-1 2.8l5.3 5.3c2.3 2.2 4.8 3.7 8.2 3.7h43.2c-1.3-3.8-2.3-7.8-3.1-11.8m2.7-49.4H31.8c-1.9 0-1.5 1.5-.8 2.2l6 6c2.3 2.2 4.8 3.7 8.2 3.7h89.4c.7-4.2 1.7-8.1 2.9-11.9m96.9-66.5c-53.4 0-96.6 43.3-96.6 96.6 0 53.4 43.3 96.6 96.6 96.6 53.4 0 96.6-43.3 96.6-96.6.1-53.4-43.2-96.6-96.6-96.6m65.4 48.4c-.2-2.7-2-5.6-5.4-9l-13.5-13L263 71.7l12.6 12.2q2.1 2.1 4.2 3.6c1.4 1 2.7 1.7 4.1 2.1 1.2.4 2.3.5 3.4.4 1.7-.1 3-.6 4.1-1.8 1-1.1 1.6-2.3 1.5-3.8 0-1.4-.5-3-1.6-4.7 1.2.6 2.3.9 3.1 1q2.25.15 3.9-1.5c1.2-1 1.6-2.4 1.5-4m-123.7 61.7-22.3 9 7.6 18.8 4-1.6-5.3-13.3 18.3-7.4zm-8 36 19.5-14.1-3.6-4.8-19.5 14.1zm35.8 4.4c-.1-2.2-1.5-4.5-4.2-6.7l-10.9-8.8-15.2 18.7 10.2 8.2c1.1.9 2.3 1.7 3.4 2.3s2.2 1 3.3 1.1c1 .1 1.9.1 2.8-.2 1.4-.3 2.5-1.1 3.4-2.2s1.3-2.2 1.3-3.5c0-1.2-.4-2.5-1.3-3.7 1 .3 1.9.4 2.6.3 1.2-.1 2.3-.8 3.2-1.9 1.1-1 1.5-2.2 1.4-3.6m23 9.7 1.3-4.1-20.1-6.5-7.4 22.9 20.8 6.7 1.3-4.1-15.2-4.9 1.9-5.9 13.3 4.3 1.3-4-13.3-4.3 1.6-4.9zm22.5-5.8c-1.1-.3-2.7-.3-4.7-.1l-14.1 1.5 2.5 23.9 5.9-.6-1-9.4 6.2-.6c1.7-.2 3-.1 3.7.4.7.4 1.2 1.4 1.3 2.9l.3 2.2c.1.7.3 1.4.5 2 .1.3.3.7.5 1.2l6.6-.7-.1-.6q-.9-.3-1.2-1.2c-.1-.4-.3-1.1-.4-2.2l-.2-1.6q-.3-2.55-1.2-3.6c-.6-.8-1.6-1.3-3-1.6 1.5-.6 2.6-1.5 3.2-2.7s.8-2.3.7-3.5c-.1-.9-.3-1.8-.8-2.5s-1-1.3-1.7-1.9c-.9-.6-1.9-1-3-1.3m24.5-12.5L253.5 180l2 3.7 7.6-4.2 9.6 17.3 5.3-2.9-9.6-17.3 7.5-4.2zm3.1-4.1 10.5 23.9 4.3-4.6-2.2-4.8 7.3-7.8 4.9 2 4.4-4.8-24.6-8.9zm15.6-24.9c-.8 1-1.5 2.3-2.2 3.9l-4.7 11.5 22.3 9 4.7-11.5c1.6-4 1.5-7.6-.5-10.7-1.5-2.3-3.7-4-6.7-5.2-1.2-.5-2.5-.8-3.9-1s-2.9 0-4.4.5c-1.8.7-3.4 1.9-4.6 3.5M168.8 76.1c-.8 4.3.4 8 3.7 11.1 3 2.9 6.4 4 10.4 3.4 3.9-.6 7.8-3 11.7-7 3.1-3.2 5.1-6.5 5.8-9.8.8-3.3.4-6.2-1.2-8.6l-5.6 5.8c.6 1.3.8 2.5.7 3.5-.1 1.9-1.2 3.9-3.1 6-1.9 2-4 3.1-6.3 3.4s-4.5-.6-6.6-2.6-3.1-4.2-3.1-6.5 1.1-4.5 3.1-6.6 3.9-3.3 5.7-3.5c1-.1 2.2 0 3.4.5l5.6-5.8c-1.2-1-3-1.5-5.3-1.4-4.1.2-8.5 2.6-13 7.3-3.3 3.4-5.3 7-5.9 10.8m29.5-28.3 7.5 24.6 26-8-1.4-4.4-18.3 5.6-6.1-20.2zm38.8-8.4-3 15.5c-.5 2.7-.3 4.9.7 6.7 1.8 3.2 6 5.4 12.6 6.7q9.9 1.95 14.1-1.5c1.6-1.3 2.6-3.2 3.1-5.9l3-15.5-8-1.6-3 15.5c-.4 1.7-.9 2.9-1.7 3.6-1.2 1.2-3.5 1.5-6.7.9s-5.2-1.7-5.9-3.4c-.5-.9-.5-2.3-.2-4l3-15.5zm-1.7 136.1c28.7-.5 51.7-24.2 51.2-53s-24.2-51.7-53-51.2-51.7 24.2-51.2 53c.4 28.8 24.2 51.7 53 51.2m-2.5-141.4c49.3-.9 90 38.4 90.8 87.7.9 49.3-38.4 90-87.7 90.8-49.3.9-89.9-38.4-90.8-87.7-.8-49.2 38.4-89.9 87.7-90.8m43.6 34.8 6.9 6.7c1.2 1.2 2 2.2 2.5 3 .8 1.5.8 2.8-.1 3.7-1.1 1.1-2.4 1.3-4.1.5-.9-.4-1.9-1.2-3.2-2.4l-6.8-6.6zm6.9-7.1 6.1 5.9c1.3 1.3 2.4 2.5 3 3.5.7 1.2.7 2.3-.2 3.2-.7.8-1.7 1-2.7.5-1.1-.4-2.2-1.2-3.4-2.4l-6.8-6.6zm-92.7 106.9 4.9 4c1.1.9 1.9 1.7 2.5 2.5.6.9.5 1.8-.2 2.7-.6.8-1.4 1.1-2.3.9-.8-.2-1.8-.7-2.8-1.5l-5.5-4.5zm-5.9 7.2 5.6 4.5c1 .8 1.7 1.5 2 2.1.6 1.1.6 2.2-.2 3.2-.9 1.2-2.1 1.5-3.4 1.1-.7-.2-1.6-.7-2.6-1.5l-5.5-4.5zm52.1 10.2 7-.7c1.3-.1 2.3-.1 3 .1q1.8.6 2.1 2.7c.1 1.3-.4 2.3-1.5 2.9-.7.3-1.6.6-3 .7l-6.8.7zm50.8-11-4.4-9.2 9.4 3.8zm4.1-23.8 2.1-5.2c1-2.5 2.3-4 3.9-4.3 1.6-.4 3.4-.1 5.7.8 1.7.7 3 1.5 3.9 2.6 1.7 1.9 2.1 4.2 1 6.8l-2.1 5.2zm-50.2-51v53.1l14-7.7v-45.4zm-28.3 0v45.4l14 7.7v-53.1zm21.1-22.8c25.4 0 45.9 20.5 45.9 45.9 0 25.3-20.5 45.9-45.9 45.9-25.3 0-45.9-20.5-45.9-45.9.1-25.3 20.6-45.9 45.9-45.9m-34.6 24c-4 6.3-6.3 13.8-6.3 21.9 0 22.7 18.3 41 41 41s41-18.4 41-41c0-8-2.3-15.5-6.3-21.9V142l-34.7 19.1-34.7-19.1zm34.6-19.1c-12.5 0-23.8 5.6-31.3 14.5h62.6c-7.5-8.9-18.7-14.5-31.3-14.5"/><path d="m172.7 116.8-4.6-3.3-4.7 3.3 1.8-5.4-4.6-3.4h5.7l1.8-5.5 1.7 5.5h5.8l-4.6 3.4zM311.7 116.8l-4.6-3.3-4.7 3.3 1.8-5.4-4.7-3.4h5.8l1.8-5.5 1.7 5.5h5.8l-4.7 3.4z" class="st0"/></svg>