<svg xmlns="http://www.w3.org/2000/svg" xml:space="preserve" viewBox="199.53 98 600.93 804"><path d="M493.224 899.657c-13.554-4.632-44.136-19.791-79.167-42.03-24.976-15.844-50.137-34.741-70.902-53.19-40.399-35.978-70.349-74.666-88.851-115.039-18.37-40.084-21.476-67.376-21.476-129.041v-57.743c-3.263-.763-6.501-1.5-9.764-2.394l-5.395-1.422-18.134-18.081V340.571l15.37-4.238c6.001-1.631 11.949-3.21 17.949-4.764v-47.111l15.317-4.263 12.185-3.185c30.898-8.159 63.218-14.922 94.905-19.896a945 945 0 0 1 96.51-10.159 919 919 0 0 1 48.242-1.263c16.08 0 32.161.421 48.189 1.263a944 944 0 0 1 96.51 10.159c31.135 4.869 62.902 11.527 94.484 19.791l12.58 3.29 15.344 4.263v47.111a1836 1836 0 0 1 17.976 4.764l15.37 4.238v140.094l-18.08 18.133-5.448 1.422a183 183 0 0 1-9.817 2.394v57.796c.053 61.664-3.026 88.931-21.423 128.988-18.581 40.373-48.479 79.061-88.878 115.039-20.765 18.476-45.926 37.346-70.876 53.19-35.03 22.266-65.612 37.399-79.193 42.03L500.014 902z" style="fill:#fff"/><path d="M220.43 362.939v109.697l8.027 8.027c180.888 48.189 362.197 48.189 543.084 0l8.028-8.027V362.939c-186.256 51.111-372.908 51.111-559.139 0" style="fill:#2b479c"/><path d="M500.001 267.213c-15.739 0-31.424.395-47.164 1.263-31.398 1.606-62.901 4.948-94.326 9.896-31.451 4.922-62.928 11.58-94.353 19.818a650 650 0 0 0-10.369 2.817s-.079 253.422-.079 260.002c-.027 60.454 3.026 84.14 19.607 120.276 18.739 40.847 48.69 76.904 83.798 108.117 20.37 18.239 44.689 36.293 68.113 51.163 32.371 20.581 62.402 35.662 74.771 39.9 12.369-4.238 42.373-19.318 74.718-39.9 23.45-14.87 47.768-32.924 68.192-51.163 35.03-31.213 65.007-67.27 83.772-108.117 16.581-36.135 19.582-59.822 19.555-120.276l-.026-260.002c-3.422-.974-6.922-1.896-10.369-2.817-31.477-8.237-62.902-14.896-94.379-19.818-31.424-4.948-62.902-8.29-94.3-9.896-15.738-.868-31.476-1.263-47.161-1.263" style="fill:#2b479c"/><path d="M264.144 298.195c-3.475.921-6.896 1.816-10.343 2.79 0 0-.053 222.156-.053 255.896.079 58.559 3.211 82.14 19.582 117.75 18.738 40.768 48.715 76.903 83.772 108.143 20.371 18.186 44.715 36.267 68.139 51.163 32.346 20.529 62.402 35.609 74.746 39.899 12.396-4.29 42.399-19.37 74.745-39.899 23.45-14.897 47.768-32.977 68.165-51.163 35.056-31.24 65.034-67.376 83.772-108.143 16.37-35.609 19.502-59.19 19.582-117.75 0-33.74-.053-255.896-.053-255.896-3.422-.974-6.922-1.869-10.343-2.79-.105 0-.237-.052-.316-.052v238.394c.027 27.398-.526 49.427-3.422 67.639-2.553 16.37-6.948 30.346-15.159 48.189-16.686 36.32-44.005 71.561-81.167 104.643-19.423 17.292-43.162 35.083-66.797 50.11-28.372 18.003-55.375 32.082-69.007 37.505-13.607-5.422-40.663-19.502-69.008-37.505-23.608-15.028-47.374-32.819-66.797-50.11-37.162-33.082-64.481-68.323-81.141-104.643-8.237-17.843-12.659-31.819-15.186-48.189-2.842-18.212-3.422-40.241-3.422-67.639V298.143c-.079 0-.159.052-.289.052" style="fill:#eb2227"/><path d="M746.195 300.995c-3.422-.973-6.896-1.868-10.343-2.789-.105 0-.21-.052-.316-.052v238.367c.026 27.425-.526 49.427-3.395 67.639-2.579 16.397-6.974 30.346-15.186 48.216-16.686 36.32-44.005 71.534-81.166 104.617-19.423 17.317-43.163 35.109-66.797 50.137-28.372 17.975-55.375 32.109-69.008 37.478v29.213c12.396-4.263 42.399-19.37 74.745-39.899 23.45-14.87 47.768-32.978 68.165-51.163 35.056-31.214 65.007-67.35 83.773-108.117 16.37-35.609 19.502-59.19 19.581-117.75-.001-33.768-.053-255.897-.053-255.897" style="fill:#bc212a"/><path d="M267.852 604.162c2.579 16.37 6.974 30.346 15.159 48.216 16.713 36.32 44.005 71.534 81.166 104.617 19.45 17.292 43.189 35.109 66.797 50.137 28.345 18.002 55.4 32.082 69.033 37.505 13.607-5.422 40.61-19.502 69.008-37.505 23.608-15.028 47.347-32.845 66.797-50.137 37.109-33.082 64.481-68.297 81.166-104.617 8.185-17.87 12.555-31.845 15.16-48.216 1.579-10.027 2.447-21.239 2.948-33.819-.658-.659-1.132-1.132-1.29-1.158v-4.343c-1.684-.526-2.552-.79-4.263-1.29v4.264c-.684-.21-1.422-.421-2.132-.632v-4.29a381 381 0 0 0-4.211-1.289v4.263c-.737-.184-1.448-.394-2.106-.579v-4.343c-1.711-.5-2.606-.737-4.29-1.237v4.316c-.684-.21-1.395-.421-2.079-.631v-4.29c-1.711-.527-2.579-.737-4.263-1.211v14.449c.737.21 1.447.395 2.185.606v11.474c-1.448-.394-2.842-.842-4.264-1.21v-8.606c-1.711-.447-2.552-.711-4.237-1.158v8.606c-.816-.21-1.579-.421-2.369-.631v-8.633c-1.685-.447-2.58-.658-4.264-1.105v8.58a95 95 0 0 1-2.342-.606v-8.606a339 339 0 0 0-4.238-1.079v8.58c-.816-.21-1.631-.342-2.369-.579v-8.58c-1.711-.474-2.579-.711-4.29-1.079v8.633c-.79-.237-1.579-.394-2.343-.605v-8.606c-1.71-.395-2.606-.606-4.29-1.026v8.633c-.763-.185-1.579-.395-2.395-.579v-8.58c-1.684-.421-2.552-.605-4.263-1v8.606c-.789-.157-1.579-.342-2.369-.5v-8.633c-1.711-.369-2.553-.579-4.29-.948v8.633c-.79-.184-1.579-.342-2.343-.526v-8.607c-1.737-.368-2.606-.553-4.342-.868v8.58a37 37 0 0 0-2.343-.474v-8.606c-1.737-.395-2.579-.527-4.29-.896 0 3.448-.026 5.185-.026 8.607-.842-.132-1.684-.316-2.526-.474v-11.475c.737.158 1.421.289 2.184.447v-25.924a82 82 0 0 0-4.29-.815v8.58c-.79-.158-1.5-.316-2.21-.421v-4.316c-1.764-.316-2.58-.474-4.316-.789v4.29c-.764-.132-1.5-.29-2.238-.395v-8.606c-1.711-.289-2.579-.5-4.316-.737v8.553c-.71-.105-1.421-.237-2.158-.368v-4.264c-1.71-.289-2.606-.447-4.29-.737v4.316c-.763-.158-1.447-.263-2.158-.395v-8.606c-1.789-.263-2.632-.421-4.395-.684v25.925c.816.131 1.5.21 2.237.342V564.5c-1.421-.289-2.868-.474-4.342-.711v-8.633c-1.711-.236-2.632-.342-4.343-.631v8.606c-.79-.132-1.579-.21-2.369-.369v-8.606c-1.737-.237-2.606-.342-4.369-.605v8.633a72 72 0 0 0-2.369-.342v-8.607c-1.737-.236-2.579-.368-4.368-.578v8.606c-.79-.08-1.553-.185-2.369-.316v-8.606c-1.737-.21-2.58-.342-4.343-.5v8.58c-.816-.105-1.606-.21-2.395-.289v-8.633c-1.737-.185-2.605-.316-4.369-.474v8.58l-2.394-.237v-8.633c-1.711-.184-2.58-.263-4.316-.473v8.658c-.816-.105-1.632-.184-2.395-.263v-8.607c-1.737-.157-2.632-.263-4.369-.447v8.607a57 57 0 0 1-2.369-.211v-8.632a227 227 0 0 1-4.368-.369v8.633c-.843-.079-1.632-.158-2.422-.237v-8.58c-1.737-.157-2.605-.237-4.369-.368v8.606c-.79-.08-1.605-.105-2.421-.185v-8.58c-1.737-.158-2.579-.21-4.343-.316v8.58a37 37 0 0 1-2.395-.157v-8.607c-1.736-.105-2.579-.184-4.343-.289v8.606c-.842-.052-1.658-.079-2.447-.132v-60.559c1.395.053 2.816.158 4.369.263v-25.924a256 256 0 0 0-4.369-.237v8.607a65 65 0 0 0-2.21-.132v-8.606c-1.711-.08-2.606-.158-4.343-.211v8.58c-.763-.053-1.5-.08-2.185-.08v-8.632c-.447-.026-.79-.026-1.132-.053v-4.527c-.369-.026-.684-.053-1.026-.053v-4.079a240 240 0 0 1-4.395-.157v4.079c-.369 0-.684-.053-1.079-.053v4.527h-1.132v8.607c-.71-.053-1.447-.08-2.184-.132v-8.58c-1.764-.052-2.605-.052-4.369-.132v8.607c-.711 0-1.421 0-2.158-.053v-8.606c-1.789-.027-2.658-.027-4.395-.079v25.95c1.553.027 2.974.027 4.395.052v41.163c-25.344-.579-38.056-.369-63.348 1.132v2.132c.71-.053 1.394-.08 2.079-.105v17.265c-1.158.079-2.342.105-3.527.184v-8.58c-1.736.079-2.631.157-4.342.289v8.58c-.79.053-1.579.105-2.395.185v-8.633c-1.737.105-2.632.21-4.343.342v8.606c-.843.052-1.658.105-2.422.158v-8.607c-1.763.132-2.631.185-4.368.342v8.607c-.79.052-1.606.157-2.422.21v-8.606c-1.711.157-2.605.236-4.343.421v8.606c-.815.079-1.605.158-2.421.21v-8.606c-1.737.158-2.553.237-4.343.447v8.58c-1.079.105-2.185.237-3.29.369v-11.475c.711-.105 1.447-.157 2.211-.237v-25.923c-1.737.184-2.58.289-4.316.447v8.633c-.79.105-1.5.132-2.238.237v-4.343c-1.763.237-2.631.316-4.368.553v4.29c-.763.08-1.527.158-2.211.237v-8.606c-1.763.21-2.658.316-4.368.553v8.58c-.737.105-1.447.184-2.185.289v-4.29c-1.737.237-2.606.342-4.316.579v4.316c-.763.079-1.447.184-2.185.263v-8.606c-1.736.237-2.631.369-4.368.632v25.923c.816-.132 1.5-.21 2.237-.316v11.449a796 796 0 0 0-34.03 5.501v-11.423a86 86 0 0 1 2.211-.421v-25.923c-1.684.316-2.553.5-4.29.789v8.606c-.79.157-1.474.263-2.238.447v-4.29c-1.736.289-2.579.473-4.316.79v4.316c-.737.157-1.447.289-2.184.473v-8.658c-1.737.368-2.58.526-4.291.895v8.58c-.71.185-1.447.316-2.158.447v-4.29c-1.711.395-2.606.579-4.316.921v4.316c-.71.157-1.421.289-2.132.447v-8.606c-1.736.394-2.606.579-4.316.973v25.897c.764-.158 1.474-.342 2.185-.474v11.449c-2.079.447-4.185.921-6.237 1.422v-8.659c-1.711.421-2.553.631-4.263 1.026v8.606c-.79.21-1.606.395-2.369.579v-8.606c-1.71.394-2.553.579-4.29 1.026v8.58c-.79.21-1.579.421-2.342.606v-8.633c-1.737.474-2.553.658-4.29 1.079v8.633c-.764.185-1.553.395-2.316.579v-8.58c-1.711.421-2.579.631-4.29 1.053v8.658c-.79.185-1.553.395-2.342.606v-8.606c-1.711.474-2.553.658-4.264 1.158v8.606c-.737.184-1.553.421-2.369.631v-8.606c-1.658.5-2.5.711-4.211 1.185v8.606c-.763.21-1.579.421-2.342.658v-8.606c-1.737.5-2.527.71-4.238 1.237v8.606c-.79.237-1.579.474-2.316.684v-8.606c-1.685.5-2.58.737-4.264 1.237v8.633c-2 .579-4.026 1.21-6.053 1.816v-2.816a68 68 0 0 1 1.658-.474c0-.632.027-.895.027-1.527-.474-.421-.764-.631-1.211-1h-.052v-4.685c0-2.606-2.053-4.105-4.606-3.263h-.079c.473 10.373 1.341 19.796 2.684 28.322" style="fill:#fff"/><path d="M220.43 367.274v105.381l8.027 8c180.888-48.242 362.197-48.242 543.084 0l8.028-8v-105.38c-186.256-51.138-372.908-51.138-559.139-.001" style="fill:#fff"/><path d="M220.43 357.101V472.64c186.23-51.137 372.882-51.137 559.139 0V357.101c-186.256-51.137-372.908-51.11-559.139 0" style="fill:#2b479c"/><path d="M294.757 433.52c-3.474 4.291-8.922 7.264-17.186 9.028-9.527 2.053-14.317 3.185-23.792 5.448v-83.351c9.475-2.29 14.264-3.369 23.792-5.448 8.265-1.764 13.713-1.001 17.318 1.816 3.948 3.053 5.474 8.869 5.474 16.817 0 5.422-.474 10.028-3.922 14.239-1.079 1.289-3.869 3.579-3.869 3.579 0 .185 2.737 1.342 3.685 2.185 3.816 3.343 4.106 9.764 4.106 14.449 0 9-1.422 16.08-5.606 21.238m-19.581-58.822c-2.001.447-3.001.658-5.001 1.079v17.844c2-.474 3-.658 5.001-1.105 6.474-1.395 8.685-4.553 8.685-10.791 0-6.29-2.105-8.448-8.685-7.027m.237 31.819c-2.106.448-3.159.659-5.238 1.158v21.529a167 167 0 0 1 5.238-1.132c6.58-1.474 8.448-5 8.448-12.606s-2.105-10.343-8.448-8.949M312.106 435.737V352.36c12.711-2.289 25.503-4.395 38.293-6.184v14.975c-8.711 1.21-13.054 1.895-21.765 3.316v18.87a808 808 0 0 1 18.712-2.895v14.949c-7.448 1.132-11.212 1.711-18.712 2.948v19.529c8.711-1.395 13.054-2.079 21.765-3.343v15.002a989 989 0 0 0-38.293 6.21M394.929 424.091a6448 6448 0 0 0-17.739-38.819v40.741c-6.633.79-9.948 1.21-16.607 2.079v-83.377c5.817-.763 8.711-1.132 14.528-1.789 5.817 12.922 11.58 25.871 17.37 38.794v-40.77c6.658-.658 10.028-.947 16.66-1.5.027 27.739 0 55.558 0 83.324-5.686.501-8.528.738-14.212 1.317M444.113 421.251c-9.291.395-14.344-2.868-18.265-7.132-6.686-7.527-6.212-22.634-6.212-33.898 0-11.238-.474-26.345 6.212-34.741 3.921-4.842 8.843-8.948 18.265-9.422 7.053-.421 12.685 1.711 16.607 5.448 4.475 4.211 6.843 10.739 7.185 18.345-6.711.21-10.028.369-16.739.684-.079-3.527-.658-9.869-7.053-9.527-3.054.157-4.58 1.684-5.527 3.605-1.973 3.948-2.237 14.423-2.237 24.476 0 10.08.263 20.476 2.237 24.213.948 1.816 2.474 3.132 5.527 2.974 5.527-.263 7.053-5.501 7.053-10.081v-8.658c-2.763.157-4.158.21-6.922.368V374.43c9.475-.5 14.212-.711 23.661-1v21.213c.552 14.317-9.37 26.055-23.792 26.608M512.82 418.948c-1.079-5.211-1.605-7.817-2.736-13.054a785 785 0 0 0-19.292 0c-1.106 5.238-1.659 7.817-2.711 13.002-7.001.105-10.475.184-17.476.369 7.184-27.924 14.396-55.848 21.581-83.746 6.606-.053 9.922-.053 16.529 0a99075 99075 0 0 1 21.581 83.772c-7.001-.185-10.502-.29-17.476-.343m-12.369-59.007c-2.606 12.37-3.922 18.582-6.474 30.925 5.158-.027 7.764-.027 12.975.052-2.607-12.395-3.922-18.607-6.501-30.977M537.447 419.505v-83.351c6.685.237 10.08.395 16.765.737v68.376c8.738.447 13.106.711 21.871 1.342v15.002c-12.845-.948-25.74-1.632-38.636-2.106M623.432 420.121c-4.448 4.027-10.318 5.738-17.37 5.027-7.054-.737-12.922-3.605-17.37-8.527-4.027-4.447-6.264-10.237-6.264-16.897v-61.033c6.711.553 10.028.816 16.713 1.474v61.822c0 5.396 3.158 7.764 6.922 8.159s6.922-1.369 6.922-6.764V341.56c6.658.711 10.027 1.079 16.66 1.948v60.98c-.002 6.659-2.213 12.028-6.213 15.633M674.193 433.321c-4.027-13.633-6.08-20.45-10.159-34.056-2.185-.368-3.29-.526-5.474-.868v32.451c-6.632-1-9.975-1.5-16.607-2.422v-83.324c9.501 1.263 14.238 1.973 23.713 3.5 15.897 1.763 23.371 14.475 23.108 29.345-.157 8.712-1.369 16.554-9.422 20.213 4.053 12.738 8.08 25.477 12.133 38.215-6.896-1.238-10.37-1.896-17.292-3.054m-8.606-69.797c-2.842-.421-4.238-.631-7.028-1.052v20.923c2.79.447 4.185.659 7.028 1.106 6.29 1 6.658-4.633 6.658-9.422 0-4.818-.368-10.529-6.658-11.555M740.084 440.558c-4.396 3.553-10.186 4.553-17.16 3.079-6.948-1.526-12.738-5.026-17.133-10.449-3.974-4.921-6.185-10.975-6.185-17.633v-60.981a831 831 0 0 1 16.502 3.29v61.822c0 5.396 3.158 8.159 6.817 8.949 3.737.79 6.842-.606 6.842-6.001v-61.796c6.58 1.447 9.87 2.185 16.423 3.79v61.006c0 6.66-2.185 11.766-6.106 14.924" style="fill:#fff"/><path d="M613.033 683.406c-4.921-6.87-6.605-10.633-8.87-22.239-2.026-10.633-6.711-25.634-11.896-33.057 1.579.158 2.737-.394 4.448-1.184-11.37-6.159-18.344-19.739-33.424-19.318-19.081.579-24.977 17.317-22.002 24.977 2.342 5.895-13.265 4.5-13.265 4.5-3.159-6.316-5.291-10.738-6.922-15.239-1.659-4.527-.527-12.632-.527-12.632 6.606-6.79 16.476-5.106 19.186-12.054 12.896 2 19.186-2.21 19.186-4.974-4.238.816-8.896-.21-12.685-1.263 4.132-2.684 7.501-3.237 11.633-2.369 2.185.5 5.343 2.026 6.027 4.58 2.132-4.08 2.369-7.133-1.606-9.212-3.605-1.869-18.107-1.527-18.107-1.527 0-8.08-22.423-2.842-28.477-4.316-6.711-1.606-8.343-6.132-8.343-6.132-2.027 3.316-4.054 10.949 0 12.791 2.842 1.263 1.947 5.185 0 5.764-6.948 2.053-7.396 10.843-7.396 10.843s-.474-8.79-7.422-10.843c-1.921-.579-2.842-4.501 0-5.764 4.053-1.843 2.053-9.475 0-12.791 0 0-1.606 4.527-8.343 6.132-6.054 1.474-28.451-3.764-28.451 4.316 0 0-14.501-.342-18.107 1.527-3.974 2.079-3.737 5.132-1.606 9.212.684-2.553 3.842-4.08 6.054-4.58 4.132-.868 7.501-.316 11.607 2.369-3.843 1.053-8.449 2.079-12.66 1.263 0 2.764 6.264 6.974 19.16 4.974 2.659 6.948 12.555 5.264 19.213 12.054 0 0 1.105 8.106-.526 12.632-1.685 4.501-3.817 8.923-6.975 15.239 0 0-15.581 1.395-13.265-4.5 3.001-7.659-2.895-24.397-21.924-24.977-15.107-.421-22.134 13.159-33.477 19.318 1.711.79 2.869 1.342 4.475 1.184-5.238 7.422-9.869 22.424-11.975 33.057-2.184 11.607-3.895 15.37-8.816 22.239 2.684-.263 6.501-.553 8.975-4.29 0 0-4.026 49.584 46.637 86.956 0 0 6.79-8.053-7.317-21.818 0 0 1.816-17.712-6.421-23.765 0 0 6.869-5.079 1.5-12.528 0 0 7.079-2.079 3.974-9.553 0 0 4.737-.579 4.053-6.474 0 0 4.817 1.605 5.369-4.159 0 0 4.026-.605 4.026-4.711 0 0 4.132 1.816 6.764-1.474 0 0 4.026 5.5 11.685.973-.316 6.237 3.263 14.633 4.605 16.66-7.396.158-7.474 9.633-13.448 13.528 0 0 2.842 2.79 7.29 1.026-1.736 4.079 9.08 9.633 11.633 4.79-1.606 4.842-4.527 8.317-8.554 9.474-1.789.21-3.211-.579-6.185 1-.158-3.868-5.501-22.028-16.871-19.949-4.29-2.816-6.605 1.579-7.79 2.422 0 0 4.974-1.053 6.606 2.527 3.053 4 7.474 6.343 9.896 12.501 0 0-6.711-11.133-13.265-9.764-3.632-2.737-6.344.473-6.87 1.711 2.263-.106 4.817 1.421 5.421 3.474.579 4.053 11.633 7.501 17.502 19.344.973 7.791 3.106 5.369 2.869 10.58-.079 1.422-3.895.579-6.159 5.211-1.21.869-1.105 1.659-1.237 3.106.737-1.606 1.395-1.948 2.053-2.026 3.026.289 6.421-3.58 8.816-2.369 1.026-2.343 2.132-11.081-.421-17.055 1.842-1.053 4.263-.132 7.948-5.79 3.527-1.711 8.237-6.079 10.053-14.423 1.632 3.948 3.448 7.29 5.658 10.869-4.869 7.843-19.581 23.002-15.107 29.161l-16.817 14.291s-2.606 8.449 6.053 7.08c0 0-1.736 9.29 7.606 7.895 0 0-1.421 12.738 10.659 9.554 0 0-.316 10.053 11.685 8.474 0 0 1.395 7.212 10.159 7.212s10.159-7.212 10.159-7.212c12.001 1.579 11.712-8.474 11.712-8.474 12.08 3.185 10.606-9.554 10.606-9.554 9.37 1.395 7.633-7.895 7.633-7.895 8.659 1.369 6.027-7.08 6.027-7.08l-16.791-14.291c4.474-6.159-10.238-21.318-15.107-29.161 2.185-3.579 4.027-6.922 5.685-10.869 1.737 8.343 6.474 12.712 10.028 14.423 3.658 5.658 6.106 4.737 7.948 5.79-2.58 5.974-1.422 14.712-.447 17.055 2.447-1.211 5.79 2.658 8.843 2.369.631.079 1.316.421 2.053 2.026-.132-1.447-.026-2.237-1.29-3.106-2.211-4.632-6.001-3.789-6.106-5.211-.263-5.211 1.895-2.789 2.842-10.58 5.869-11.843 16.87-15.291 17.501-19.344.632-2.053 3.185-3.58 5.448-3.474-.526-1.238-3.237-4.448-6.895-1.711-6.527-1.369-13.265 9.764-13.265 9.764 2.447-6.159 6.843-8.502 9.922-12.501 1.605-3.58 6.605-2.527 6.605-2.527-1.184-.843-3.474-5.237-7.79-2.422-11.343-2.079-16.713 16.081-16.923 19.949-2.948-1.579-4.342-.789-6.158-1-4.001-1.157-6.948-4.632-8.502-9.474 2.475 4.842 13.318-.711 11.58-4.79 4.474 1.764 6.738-1.579 6.738-1.579-6.001-3.921-5.474-12.817-12.896-12.975 1.369-2.026 4.921-10.422 4.605-16.66 7.659 4.527 11.712-.973 11.712-.973 2.632 3.29 6.737 1.474 6.737 1.474 0 4.106 4.027 4.711 4.027 4.711.579 5.764 5.395 4.159 5.395 4.159-.684 5.895 4.054 6.474 4.054 6.474-3.132 7.474 3.948 9.553 3.948 9.553-5.316 7.449 1.526 12.528 1.526 12.528-8.29 6.054-6.448 23.765-6.448 23.765-14.106 13.765-7.29 21.818-7.29 21.818 50.637-37.372 46.637-86.956 46.637-86.956 2.482 3.737 6.298 4.026 8.982 4.29m-74.639-99.485c-.947.289-2.527 1-3.395 1.842-1.447-1.763-7.027-2.684-9.711-3.184 2.947-.579 10.711-.79 13.106 1.342m-73.429 1.842c-.843-.842-2.448-1.553-3.369-1.842 2.395-2.132 10.159-1.921 13.081-1.342-2.685.5-8.238 1.421-9.712 3.184" style="fill:#2b479c"/><path d="M554.938 678.847c0-30.345-24.609-54.953-54.954-54.953-30.346 0-54.954 24.608-54.954 54.953 0 30.319 24.608 54.954 54.954 54.954 30.345-.001 54.954-24.635 54.954-54.954" style="fill-rule:evenodd;clip-rule:evenodd;fill:#2b479c"/><path d="M549.927 678.847c0-27.581-22.345-49.926-49.927-49.926-27.556 0-49.953 22.344-49.953 49.926 0 27.556 22.398 49.901 49.953 49.901 27.581-.001 49.927-22.345 49.927-49.901" style="fill-rule:evenodd;clip-rule:evenodd;fill:#fff"/><path d="M482.544 661.387v12.318h12.263v9.79h-12.263v22.634h-10.896v-54.585h25.134v9.843zM528.583 702.823c-2.737 2.606-6.054 3.922-10.554 3.922-6.159 0-9.37-2.474-11.87-5.448-4.368-5.211-4.079-15.028-4.079-22.371 0-7.369-.289-17.317 4.079-22.555 2.5-2.974 5.711-5.422 11.87-5.422 4.5 0 7.817 1.289 10.554 3.921 2.816 2.632 4.632 6.948 4.842 12.159h-10.896c-.053-1.527-.237-3.079-.843-4.211-.605-1.289-1.684-2.053-3.658-2.053-2.001 0-3.001.921-3.632 2.132-1.263 2.527-1.448 9.343-1.448 15.95 0 6.58.185 13.396 1.448 15.922.631 1.263 1.631 2.185 3.632 2.185 1.973 0 3.105-.868 3.763-2.185.579-1.132.737-2.658.79-4.21h10.922c-.263 5.237-2.104 9.58-4.92 12.264" style="fill:#2b479c"/><path d="m312.025 230.453 34.293-32.503 41.768 21.687-20.582-42.479 34.057-33.266-46.716 6.659-21.266-42.084-8.501 46.32-46.899 6.686 42.005 22.475zM687.957 230.453l-34.293-32.503-41.768 21.687 20.555-42.479-34.03-33.266 46.715 6.659 21.266-42.084 8.501 46.32 46.899 6.686-42.004 22.475zM461.467 215.75l38.531-27.345 38.293 27.345-14.37-44.952 38.373-28.135H515.13L499.998 98l-14.949 44.663h-47.374l38.426 28.187z" style="fill:#e9ad27"/></svg>