<svg xmlns="http://www.w3.org/2000/svg" viewBox="6.03 23.41 1594.96 1570.55"><path fill="#c68627" fill-rule="evenodd" d="M1366.384 252.964c3.129 3.28 8.485 8.548 11.902 11.708 3.418 3.159 1.046.476-5.27-5.964-6.316-6.439-11.672-11.708-11.902-11.708s2.141 2.684 5.27 5.964m-49.53 38.786c1.979 2.735 8.552 9.153 17.146 16.744 2.475 2.186-.668-1.305-6.984-7.759S1315.382 289 1315.198 289s.561 1.238 1.656 2.75m-74.373 19.5-9.981 10.25 10.25-9.981c9.52-9.271 10.705-10.519 9.981-10.519-.148 0-4.76 4.613-10.25 10.25M1252.5 356c5.479 5.5 10.187 10 10.462 10s-3.983-4.5-9.462-10-10.187-10-10.462-10 3.983 4.5 9.462 10m51.044 14.047c5.476 5.801 10.161 10.396 10.411 10.212.251-.185-4.23-4.931-9.956-10.548l-10.412-10.211zm248.24 445.691c2.905.203 7.405.201 10-.004s.216-.371-5.284-.369-7.622.171-4.716.373M1538 860.417c0 12.197-.321 16.546-1.25 16.921-.747.301-.545.536.5.583 1.601.072 1.75-1.367 1.75-16.921 0-9.35-.225-17-.5-17s-.5 7.388-.5 16.417m-65 4.051v18.469l-11.75.316-11.75.317 12.25.215L1474 884v-19c0-10.45-.225-19-.5-19s-.5 8.311-.5 18.468M116.306 883.747c6.494.175 16.844.174 23-.001 6.157-.175.844-.318-11.806-.317-12.65 0-17.687.144-11.194.318m-3.299 95.964c-1.18 3.154-4.878 13.891-8.218 23.86l-6.072 18.125-17.108.649c-9.41.357-20.427.65-24.481.652-6.745.003-7.256.144-6 1.657.754.909 9.345 7.905 19.091 15.545 9.745 7.64 17.97 14.298 18.278 14.796s-3.09 11.991-7.549 25.541-7.874 24.871-7.589 25.156c.382.383 29.286-20.513 41.141-29.743.565-.439 10.075 5.954 21.858 14.696 11.471 8.51 21.069 15.261 21.328 15.002s-2.898-10.748-7.016-23.309-7.642-23.924-7.829-25.25c-.292-2.069 1.949-4.205 15.738-15 23.224-18.182 22.917-17.925 22.24-18.603-.341-.341-11.364-.882-24.496-1.202l-23.875-.583-7.925-23.415c-4.359-12.879-8.251-23.617-8.648-23.862-.397-.246-1.688 2.134-2.868 5.288m1377.583 2.454c-.902 2.384-4.729 13.335-8.504 24.335l-6.864 20-24.03.5c-13.216.275-24.268.739-24.559 1.031s8.407 7.398 19.329 15.791l19.858 15.259-2.262 7.209c-1.244 3.966-4.847 15.23-8.005 25.032s-5.505 18.059-5.216 18.349c.29.29 9.832-6.38 21.203-14.822 11.372-8.442 20.879-15.272 21.126-15.177s9.673 7.008 20.946 15.363c11.273 8.354 20.69 14.996 20.927 14.76s-3.313-11.65-7.888-25.363l-8.319-24.932 20.154-15.5c16.696-12.84 19.799-15.612 18.084-16.15-1.138-.358-12.202-.695-24.586-.75l-22.516-.1-7.854-23.75c-4.319-13.062-8.198-24.126-8.619-24.585s-1.503 1.116-2.405 3.5"/><path fill="#7c201f" fill-rule="evenodd" d="M900.895 466.169c.499 1.282 3.917 9.981 7.595 19.331 8.785 22.33 22.851 59.855 32.193 85.883l7.496 20.883-6.34 6.443c-11.583 11.774-58.083 55.765-75.839 71.748-9.625 8.664-17.624 16.271-17.777 16.905-.152.634 9.412 5.793 21.254 11.465l21.529 10.312 19.162-15.819C944.702 664.808 998 617.947 998 616.095c0-.336-2.415-7.357-5.366-15.603-15.513-43.343-25.811-68.371-42.974-104.445l-10.206-21.452-16.924-4.761c-23.662-6.657-22.739-6.501-21.635-3.665m-488.15 217.956c-1.921 3.506-9.828 18.855-17.57 34.108l-14.079 27.732 2.099 5.05 2.098 5.049-2.161 18.218c-3.722 31.37-4.25 42.15-3.956 80.737l.286 37.52-9.212 12.237c-8.87 11.783-17.525 27.331-18.817 33.803-1.336 6.693 16.648 55.45 32.062 86.921 28.842 58.89 68.706 109.053 123.474 155.374 16.511 13.965 19.232 15.741 25.441 16.609l4.91.687-21.41-22.097c-11.776-12.154-21.561-22.547-21.747-23.095-.713-2.115 18.694-25.978 21.128-25.978.575 0 8.507 4.888 17.627 10.863 24.868 16.291 34.24 21.896 73.796 44.126 6.167 3.466 13.744 8.558 16.838 11.315l5.624 5.012 14.162-1.208c36.505-3.115 106.662-11.376 106.662-12.56 0-3.623 9.732-61.115 12.027-71.048 2.12-9.175 2.034-9.338-10.777-20.519-17.806-15.54-46.25-42.056-46.25-43.115 0-2.191 12.602-61.224 17.539-82.16 5.335-22.627 20.65-81.443 22.414-86.083.788-2.073 1.972-2.596 8.234-3.636 4.022-.668 7.829-1.501 8.46-1.851.708-.392-3.835-6.572-11.862-16.136-17.137-20.418-32.613-39.768-47.989-60l-12.54-16.5-14.878-6.871c-62.016-28.639-106.996-56.78-139.554-87.307L529.148 684l-23.324-.005c-32.543-.006-50.272-1.185-84.955-5.649l-4.631-.596zM1005 716.938c-45.604 10.284-89.108 21.473-128.415 33.029-13.153 3.866-24.089 7.204-24.302 7.417-1.753 1.753-18.295 102.938-17.034 104.198.894.894 42.348-8.525 75.476-17.149l17.225-4.484 67.123 66.975 67.123 66.975-9.578 28.065c-8.924 26.149-9.425 28.031-7.348 27.586a9079 9079 0 0 1 14.73-3.103c6.875-1.444 13.013-3.148 13.641-3.786.627-.639 5.198-12.636 10.158-26.661 11.478-32.46 17.896-49.618 35.859-95.869 7.982-20.553 14.304-38.17 14.048-39.149s-6.145-11.428-13.087-23.221l-12.621-21.442-38.54-32.744c-27.888-23.695-38.412-33.205-38.078-34.41.253-.916 1.894-7.891 3.646-15.5l3.186-13.835-2.957-3.665c-2.029-2.515-3.866-3.729-5.856-3.87-1.594-.113-12.574 1.977-24.399 4.643M458.102 858.627c-3.336 12.417-8.282 34.494-10.052 44.873-2.207 12.936-7.05 50.02-7.05 53.977 0 2.797 11.203 21.732 24.831 41.967 10.264 15.24 27.548 38.315 42.363 56.556l9.339 11.5 13.984 1.102c18.795 1.481 75.483 2.782 75.483 1.732 0-.46.886-8.592 1.97-18.071 2.172-19.002 5.381-39.236 10.636-67.059 1.9-10.063 3.15-18.789 2.778-19.391s-6.966-9.469-14.653-19.704c-13.73-18.281-31.709-44.801-49.321-72.749l-8.91-14.14-5-.601c-2.75-.331-11.975-.612-20.5-.624-14.728-.022-40.479-1.191-57.178-2.595l-7.679-.646zm551.712 260.508c-2.916 7.532-4.959 11.413-6.313 11.994-7.355 3.16-90.535 22.044-124.501 28.266-33.632 6.16-34.157 6.216-37.869 4.023-1.688-.997-3.267-1.612-3.508-1.365-.444.452-2.986 17.78-4.11 28.018l-.612 5.57 18.267 9.867 18.268 9.868 10.032-1.825c18.14-3.299 14.281-4.346 40.526 10.989l23.458 13.705 15.524-3.155c24.492-4.978 56.987-13.23 59.016-14.987 2.902-2.513 42.008-72.238 42.008-74.899 0-1.729-42.716-37.204-44.798-37.204-.593 0-3.018 5.011-5.388 11.135"/><path fill="#0c2c7b" fill-rule="evenodd" d="M759 24.084c-11.275.506-24.1 1.257-28.5 1.668l-8 .748.235 7c1.741 51.747 5.731 144.181 6.25 144.781.372.429 7.39.429 15.596 0l14.919-.781-.051-4c-.028-2.2-.38-13.259-.782-24.576l-.731-20.575 20.782-1.194c22.461-1.29 30.909-2.689 39.68-6.567 7.32-3.238 15.487-11.453 17.982-18.088 3.635-9.671 3.056-44.331-.931-55.652-3.575-10.152-11.341-17.194-22.949-20.809-8.68-2.703-24.188-3.27-53.5-1.955m116.511 2.166c-.316.927-17.181 118.093-21 145.893-.433 3.15-.197 3.718 1.744 4.2 3.591.89 95.024 13.711 95.363 13.372.556-.556 3.374-19.146 3.378-22.284l.004-3.068-33-4.908c-30.846-4.588-33-5.041-32.997-6.932.004-3.423 4.777-34.637 5.39-35.249.317-.317 14.129 1.32 30.694 3.639s30.322 4.011 30.573 3.761c.628-.629 3.3-18.484 3.322-22.204l.018-3.03-30.123-4.458c-19.146-2.834-30.293-4.903-30.591-5.678-.454-1.185 4.176-33.099 4.909-33.832.201-.202 15.13 1.709 33.175 4.245 25.854 3.635 32.974 4.344 33.591 3.346.431-.697 1.322-5.383 1.98-10.415.659-5.031 1.421-9.935 1.695-10.897.873-3.065 2.978-2.654-60.494-11.8C894.245 27.228 878.143 25 877.36 25s-1.615.563-1.849 1.25M660 35.097c-14.286 3.667-18 4.962-18 6.277 0 .725 5.85 24.891 13 53.703s12.99 53.968 12.978 55.904c-.035 5.569-3.262 11.43-8.144 14.789-7.77 5.346-24.131 9.2-32.822 7.732-4.513-.762-10.224-5.073-12.456-9.4-1.725-3.347-6.053-19.245-18.539-68.102-5.551-21.725-10.27-40.017-10.485-40.649-.508-1.491-28.504 5.411-29.189 7.197-.486 1.266 24.299 100.448 26.994 108.023 8.075 22.7 26.469 33.005 52.945 29.661 28.111-3.55 50.134-15.333 58.767-31.44 3.009-5.616 3.414-7.313 3.763-15.792.369-8.973.025-10.997-6.207-36.5a7163 7163 0 0 0-13.791-55.25c-8.187-32.154-6.199-29.392-18.814-26.153m98.631 15.608-3.87.43.645 19.682c.354 10.826.903 22.275 1.219 25.444l.574 5.76 12.65-.594c26.498-1.244 30.72-2.29 35.589-8.813 1.845-2.47 2.051-4.098 1.956-15.438-.132-15.761-1.267-20.214-6.094-23.899l-3.637-2.777-17.582-.112c-9.669-.062-19.322.081-21.45.317m260.477 1.545c-9.203 24.581-48.752 135.245-49.623 138.854-.615 2.55-.349 2.704 12.528 7.25 7.237 2.555 13.731 4.646 14.431 4.646.749 0 4.524-8.918 9.165-21.648 4.34-11.906 8.342-22.266 8.893-23.021.823-1.128 3.224-.565 13.455 3.153 6.85 2.49 12.76 4.862 13.135 5.271.375.41 4.413 13.481 8.973 29.047s8.773 28.899 9.363 29.629c1.272 1.576 32.599 12.875 33.42 12.054.453-.453-9.472-36.204-16.264-58.58l-1.395-4.594 6.544-1.206c8.638-1.592 12.819-3.85 18.631-10.063 5.686-6.079 9.872-14.773 15.525-32.249 6.653-20.567 5.454-30.956-4.867-42.153-4.3-4.665-13.974-10.833-22.522-14.36-8.657-3.571-66.105-24.28-67.356-24.28-.656 0-1.573 1.013-2.036 2.25M494 86.494c-19.475 6.51-41.937 17.881-50.102 25.362-8.4 7.697-12.036 14.334-12.664 23.119-.622 8.691 1.348 15.459 8.547 29.358 6.192 11.957 12.534 18.827 19.05 20.637 7.1 1.972 18.115 1.12 38.53-2.981 22.773-4.574 25.402-4.75 28.973-1.941 3.255 2.561 9.633 15.29 10.354 20.665.485 3.616.151 4.459-3.268 8.244-6.602 7.308-26.657 15.98-48.67 21.046-5.363 1.234-9.728 2.751-9.702 3.37.027.62 1.072 5.627 2.322 11.127 2.683 11.795 2.452 11.669 16.423 8.941 32.177-6.284 65.015-24.788 72.242-40.709 2.424-5.339 2.603-16.75.369-23.447-5.662-16.972-16.636-33.772-24.122-36.928-6.034-2.544-21.631-1.726-40.851 2.143-9.564 1.925-19.833 3.5-22.821 3.5-4.898 0-5.702-.319-8.181-3.25-6.423-7.595-9.977-19.738-7.073-24.17 3.894-5.943 18.771-13.395 42.144-21.112 7.259-2.397 13.122-4.885 13.276-5.635.152-.738-1.199-5.84-3.001-11.338-2.919-8.899-3.552-10.023-5.777-10.254-1.374-.143-8.573 1.771-15.998 4.253m538.038 22.019c-4.59 12.932-8.164 23.666-7.942 23.853.535.45 21.299 7.743 31.407 11.031 14.877 4.838 19.641 3.371 24.853-7.655 5.36-11.341 7.956-20.281 7.378-25.413-.91-8.067-4.307-10.246-31.107-19.946-8.18-2.961-15.181-5.383-15.559-5.383-.377 0-4.44 10.581-9.03 23.513m149.333 93.194c-23.579 33.939-43.008 62.245-43.175 62.901-.336 1.318 76.114 55.392 78.312 55.392 1.658 0 14.721-18.809 14.186-20.425-.196-.591-11.794-9.082-25.775-18.869s-25.547-18.358-25.703-19.048c-.298-1.313 9.158-15.307 47.589-70.422 12.757-18.296 23.195-33.423 23.195-33.617 0-.452-24.625-17.619-25.273-17.619-.267 0-19.777 27.768-43.356 61.707M322.69 186.069c-5.879 5.028-10.69 9.384-10.69 9.679 0 .708 3.785 5.12 41.274 48.105 17.476 20.038 31.604 36.602 31.397 36.809s-26.535-9.532-58.508-21.643C294.191 246.909 267.532 237 266.92 237c-.611 0-2.531 1.006-4.266 2.236-4.767 3.379-26.657 22.734-26.635 23.55.031 1.188 98.951 115.111 99.981 115.146.749.026 20.382-17.95 21.251-19.457.502-.869-10.42-14.054-32.835-39.639-39.084-44.611-40.697-46.546-37.908-45.46 5.083 1.98 62.96 23.949 88.848 33.724l28.855 10.897 5.664-4.749C425.631 300.038 434 292.492 434 291.495c0-1.633-6.253-8.99-54.388-63.995-24.066-27.5-44.313-50.129-44.993-50.287-.681-.157-6.049 3.828-11.929 8.856m957.054 87.917c-29.559 29.842-53.744 54.572-53.744 54.955s4.162 4.66 9.25 9.505c5.088 4.844 20.821 20.338 34.964 34.431l25.714 25.623 8.036-7.977c4.42-4.387 8.036-8.772 8.036-9.746 0-1.984-15.065-18.136-33.958-36.406l-12.542-12.129 9.065-9.814c4.986-5.397 11.192-11.616 13.792-13.82l4.727-4.007 21.716 21.7c11.944 11.934 22.172 21.699 22.729 21.699s5.053-4.067 9.992-9.039l8.979-9.038-6.07-5.712a7462 7462 0 0 0-18.716-17.502c-6.956-6.485-14.317-13.828-16.357-16.318l-3.71-4.528 12.675-12.675 12.675-12.675 24.002 23.986 24.002 23.987 9.557-9.557 9.557-9.557-11.187-10.436c-6.153-5.74-22.044-21.41-35.313-34.822l-24.126-24.387zM172.735 340.168C168.728 345.081 153.378 366.426 152 369c-.691 1.291.439 3.575 4.747 9.597 20.22 28.268 86.67 120.126 87.642 121.153.929.982 3.185-1.544 10.475-11.72 5.943-8.297 9.014-13.431 8.521-14.25-.424-.704-4.418-6.23-8.875-12.28s-8.449-11.566-8.87-12.257c-.793-1.3 2.392-6.009 22.651-33.493 5.98-8.113 11.455-14.75 12.168-14.75s5.589 1.322 10.837 2.937a2003 2003 0 0 0 14.586 4.435l5.045 1.499 9.037-12.429c4.97-6.835 9.036-12.784 9.036-13.218 0-.593-140.237-45.12-150.814-47.886-1.38-.361-2.909.713-5.451 3.83M1445.5 360.63c-4.95 1.366-24.75 6.771-44 12.011-51.623 14.053-99.948 27.487-100.372 27.904-.548.539 16.696 26.455 17.601 26.452 1.127-.003 17.742-4.537 25.107-6.851l6.336-1.99 15.565 23.672c8.561 13.02 15.754 24.382 15.986 25.25.242.91-3.638 6.796-9.162 13.895l-9.582 12.316 2.664 4.606c4.503 7.785 14.68 22.165 15.484 21.877.418-.149 19.143-23.897 41.611-52.772a82233 82233 0 0 1 48.992-62.918l8.14-10.419-12.039-17.831c-6.621-9.808-12.329-17.799-12.684-17.759-.356.04-4.697 1.19-9.647 2.557M204.41 394.75c10.72 14.163 20.527 27.015 21.795 28.562l2.305 2.811 12.347-17.126c6.79-9.42 12.188-17.249 11.995-17.398-.66-.508-66.349-22.636-67.142-22.617-.434.01 7.981 11.605 18.7 25.768m1221.09 1.139c-10.45 3.144-25.636 7.718-33.746 10.164s-14.748 4.756-14.75 5.133c-.007 1.24 22.043 34.314 22.876 34.314.447 0 10.397-11.7 22.111-26s21.978-26.788 22.808-27.75c.831-.962 1.104-1.711.606-1.664s-9.455 2.659-19.905 5.803M98.965 458.566c-3.942 7.461-7.009 13.688-6.816 13.839s30.908 15.672 68.256 34.492c51.694 26.05 68.112 33.907 68.772 32.911 2.132-3.216 14-25.957 13.68-26.213-.826-.661-135.704-68.595-136.19-68.595-.294 0-3.76 6.105-7.702 13.566M1487.5 484.417c-17.061 5.671-67.235 26.065-74.268 30.187-9.565 5.606-17.284 16.869-18.721 27.318-.948 6.888 1.054 22.526 4.054 31.677 3.533 10.775 15.035 33.899 22.499 45.233 5.703 8.658 6.337 9.285 8.791 8.676 7.589-1.883 60.145-23.244 60.145-24.446 0-1.17-9.188-24.474-10.01-25.389-.409-.454-10.019 2.808-21.356 7.25S1437.612 593 1437.11 593c-1.186 0-9.343-16.787-12.025-24.748-2.406-7.141-2.711-16.148-.68-20.052 3.352-6.442 6.529-8.12 43.095-22.77 31.532-12.633 36.526-13.664 43.576-8.998 2.217 1.467 5.358 4.759 6.979 7.316 4.105 6.473 10.089 22.28 14.48 38.252 2.041 7.425 3.881 13.794 4.087 14.153.207.359 5.801-.744 12.431-2.451l12.055-3.103-.613-4.05c-3.054-20.157-14.17-50.496-23.436-63.963-5.013-7.286-15.378-16.187-21.529-18.489-7.763-2.904-18.707-2.78-28.03.32M85.692 523.972c-12.859 5.024-21.804 16.194-29.279 36.561-7.209 19.64-19.392 57.888-18.659 58.582.867.822 139.76 46.635 142.746 47.084 1.765.266 2.738-1.932 8.276-18.699 10.758-32.573 15.98-50.733 16.699-58.072 1.713-17.501-5.882-33.04-19.53-39.956-2.556-1.295-21.533-8.006-42.171-14.913-35.639-11.928-37.92-12.557-45.399-12.512-5.236.031-9.486.676-12.683 1.925m6.379 31.78c-5.7 2.906-8.808 7.986-13.953 22.809-2.662 7.666-5.126 15.139-5.477 16.606l-.638 2.668 28.749 9.525c40.83 13.528 63.309 20.64 65.236 20.64 1.267 0 2.822-3.633 6.518-15.227 6.053-18.986 6.495-25.461 2.128-31.186-3.576-4.688-5.383-5.455-38.879-16.494-37.88-12.484-37.628-12.43-43.684-9.341M1550.5 624.601c-71.095 12.57-85.367 15.366-90.862 17.796-11.435 5.057-20.974 17.27-23.684 30.323-1.894 9.123-.719 29.89 2.348 41.501 3.866 14.633 7.814 22.079 16.106 30.374 11.157 11.161 21.262 13.895 40.592 10.983 23.836-3.591 102.572-17.808 103.476-18.685 1.002-.97-2.964-27.743-4.303-29.05-.37-.362-8.098.617-17.173 2.175-98.731 16.951-96.898 16.734-103.708 12.318-7.392-4.793-11.615-15.993-11.625-30.836-.01-13.878 3.817-19.089 16.058-21.864 7.95-1.803 53.595-10.007 84.242-15.141 11.807-1.978 21.674-3.803 21.926-4.055.47-.469-3.673-26.703-4.596-29.11-.671-1.747.044-1.828-28.797 3.271M24.667 672.73c-.898 1.453-3.028 28.242-2.303 28.967s28.327 3.686 82.483 8.848c24.766 2.36 28.981 2.987 27 4.013-1.291.668-25.748 10.892-54.348 22.72-28.601 11.828-54.251 22.571-57 23.874l-4.999 2.369-1.185 10.49c-.652 5.769-1.327 14.757-1.5 19.973l-.315 9.484 5.5.699c14.675 1.864 145.041 14.125 145.483 13.683.59-.589 3.805-28.904 3.333-29.349-.174-.165-23.491-2.599-51.816-5.41s-53.463-5.444-55.862-5.851l-4.362-.74 8.862-3.716c4.874-2.044 29.562-12.221 54.862-22.616 58.919-24.207 53.792-21.66 54.687-27.168 1.078-6.625 3.687-35.436 3.25-35.885-.206-.212-32.226-3.443-71.156-7.181-38.929-3.737-72.885-7.062-75.457-7.389s-4.892-.243-5.157.185M1448 833.494V883h25l.002-11.75c.002-6.462.298-21.538.66-33.5l.657-21.75H1513v62l10.25-.014c15.679-.021 14.75.726 14.753-11.853.001-5.848.297-19.745.658-30.883l.656-20.25H1575l.007 27.25c.004 14.987.294 30.288.645 34l.637 6.75h24.705l-.247-49.25-.247-49.25-76.25-.256-76.25-.256zM6.673 852.661c-.848.847-.851 8.992-.009 21.716l.654 9.877 80.091-.722c44.05-.398 80.441-1.053 80.87-1.456.428-.403.653-7.223.5-15.155L168.5 852.5l-80.577-.256c-44.318-.141-80.881.047-81.25.417m215.193 340.636c-8.774 6.406-66.899 49.792-68.744 51.313-.312.258 6.322 9.791 12.413 17.837 1.431 1.89 1.644 1.826 7.22-2.187a1409 1409 0 0 1 12.567-8.91l6.821-4.775 3.396 3.962c1.868 2.18 3.625 4.638 3.905 5.463s-1.927 9.783-4.905 19.907l-5.415 18.406 7.474 9.751c4.111 5.364 8.092 10.264 8.846 10.89 1.434 1.19 1.195 1.844 10.496-28.643l3.108-10.189 3.726 1.563c4.731 1.985 12.791 1.941 17.666-.095 7.97-3.331 23.568-16.042 27.118-22.099 1.961-3.346 2.438-5.528 2.42-11.079-.026-8.277-1.681-12.355-9.658-23.798-5.796-8.314-26.361-35.614-26.829-35.614-.143 0-5.374 3.734-11.625 8.297m1152.51 16.046c-2.818 1.346-7.562 4.886-10.541 7.866-5.524 5.524-33.835 41.258-33.835 42.707 0 .6 64.073 50.607 74.096 57.829 1.524 1.098 2.578.13 8.913-8.189 3.952-5.188 6.912-9.875 6.578-10.415s-5.327-4.677-11.096-9.195-10.491-8.432-10.491-8.697 1.577-2.63 3.505-5.256l3.505-4.775 19.454-.729 19.454-.73 8.134-10.629 8.134-10.63-20.343-.27-20.343-.269v-7.316c0-6.495-.335-7.8-2.991-11.632-3.258-4.702-12.973-12.921-21.233-17.963-7.282-4.446-14.016-4.996-20.9-1.707m-1153.685 15.652c-5.88 4.427-10.686 8.601-10.68 9.277.012 1.487 7.517 11.609 12.528 16.897 2.045 2.159 4.581 3.831 5.809 3.831 2.297 0 10.262-4.987 14.902-9.33 4.192-3.924 3.684-7.511-2.27-16.007-2.761-3.939-6.05-8.413-7.309-9.94l-2.289-2.777zm1153.29 10.904c-5.496 5.778-13.18 16.013-12.807 17.059.381 1.065 19.761 16.058 20.695 16.009.897-.047 12.39-15.702 13.836-18.847.663-1.441 1.225-3.373 1.25-4.293.107-3.963-11.865-13.827-16.781-13.827-1.586 0-3.824 1.409-6.193 3.899M273.5 1317.682c-17.6 18.509-32.132 34.182-32.294 34.831-.314 1.263 44.934 44.801 47.042 45.263.692.152 4.139-2.63 7.658-6.182l6.4-6.457-15.386-14.924-15.386-14.924 6.859-7.106 6.86-7.106 13.437 12.712c7.39 6.991 13.972 12.835 14.627 12.987.654.152 4.113-2.699 7.686-6.335l6.497-6.61-14.295-13.666-14.295-13.665 5.975-5.9 5.976-5.9 15.292 14.653 15.292 14.652 6.777-6.726c3.728-3.699 6.778-7.03 6.778-7.402 0-1.068-46.832-45.35-48.239-45.612-.693-.129-15.661 14.908-33.261 33.417m1003.943-5.422c-9.345 7.464-18.443 16.262-18.443 17.836 0 2.372 38.346 91.19 39.53 91.562.534.168 4.944-3.399 9.8-7.927l8.831-8.231-3.581-7.805c-1.969-4.293-3.58-8.427-3.58-9.186 0-1.185 21.059-20.786 24.367-22.68.644-.368 4.748 1.505 9.119 4.162l7.947 4.833 4.534-3.829c2.493-2.106 6.558-5.933 9.033-8.505l4.5-4.675-2.373-1.658c-4.199-2.932-83.57-47.157-84.617-47.147-.556.005-2.836 1.468-5.067 3.25m8.081 24.865c.407 1.306 4.066 9.329 8.131 17.828l7.392 15.453 7.935-7.888c7.038-6.997 7.742-8.022 6.226-9.069-1.348-.933-25.905-16.046-29.565-18.196-.472-.277-.525.565-.119 1.872m-900.23 23.568c-6.292 8.079-48.127 68.257-50.386 72.478-1.271 2.375-3.598.444 23.092 19.164 26.359 18.487 28.681 19.98 29.895 19.23.556-.344 3.27-3.831 6.031-7.75l5.02-7.126-7.223-5.033C372.841 1438.5 365 1432.875 365 1432.487c0-.233 9.637-14.274 21.416-31.203 16.923-24.322 21.178-31.068 20.28-32.151-1.262-1.519-14.913-10.895-17.07-11.723-.796-.306-2.605 1.065-4.332 3.283m815.206 12.914c-37.96 24.837-49.5 32.642-49.5 33.481 0 1.783 9.021 14.912 10.243 14.906.692-.003 6.06-3.113 11.931-6.912 9.804-6.345 10.794-6.772 12.152-5.245.812.915 10.295 15.051 21.072 31.413 10.778 16.362 19.994 29.75 20.481 29.75s5.195-2.822 10.463-6.271l9.577-6.271-20.869-31.979-20.87-31.979 11.901-7.772 11.901-7.772-5.241-7.955c-2.883-4.376-5.691-7.935-6.241-7.909s-8.2 4.757-17 10.515m-724.856 41.644c-3.732 5.995-42.644 81.16-42.644 82.375 0 .505 4.698 3.255 10.44 6.11l10.441 5.193 1.931-3.215c1.062-1.768 8.799-16.489 17.194-32.714s17.473-33.766 20.174-38.98c5.719-11.041 6.342-9.645-7.408-16.602l-8.727-4.416zm629.856 13.108c-12.615 4.129-25.486 10.224-32.202 15.249-10.48 7.842-12.232 16.449-6.247 30.706 4.276 10.187 9.382 15.987 15.608 17.73 4.278 1.198 6.356 1.052 21.484-1.51 15.605-2.643 16.915-2.726 19.203-1.227 3.437 2.252 6.298 9.984 4.861 13.138-1.591 3.493-13.781 9.106-26.97 12.419-6.195 1.556-11.544 3.109-11.886 3.452-.343.343-.086 3.449.57 6.903 2.036 10.72 1.504 10.104 8.098 9.358 20.85-2.359 49.629-17.069 53.989-27.597.712-1.719 1.06-5.761.836-9.712-.312-5.511-1.189-8.394-4.719-15.518-7.292-14.717-11.096-16.279-32.064-13.173-6.909 1.023-15.036 1.874-18.061 1.892l-5.5.031-2.425-4.893c-2.193-4.424-2.288-5.133-1-7.398 1.932-3.396 10.159-7.494 23.751-11.83 6.23-1.987 11.533-4.151 11.786-4.81s-.586-4.543-1.864-8.633c-2.839-9.087-3.185-9.179-17.248-4.577m-545.67 26.391c-2.309 2.495-21.614 27.064-48.733 62.021-5.662 7.298-10.069 13.859-9.793 14.578s4.708 2.802 9.849 4.629a4131 4131 0 0 1 10.502 3.742c1.063.388 9.93-9.369 12.199-13.424.928-1.659 1.234-1.661 5.813-.051l16.654 5.857 11.821 4.156-.692 9.764-.692 9.763 11.583 3.813c6.37 2.096 11.827 3.567 12.126 3.268s.757-16.478 1.017-35.955.596-41.934.745-49.906l.271-14.495-14-5.178c-7.7-2.848-14.478-5.213-15.063-5.255-.585-.043-2.208 1.16-3.607 2.673m-.702 37.065c-5.704 7.873-10.429 15.013-10.5 15.866-.09 1.089 2.676 2.571 9.26 4.964 5.164 1.877 9.595 3.206 9.847 2.953.644-.644 2.449-31.036 2.074-34.912-.292-3.011-.877-2.401-10.681 11.129m97.47-9.107c-1.138 3.617-14.659 89.855-14.383 91.737.227 1.552 1.6 2.181 6.785 3.11 13.64 2.443 13.926 2.452 14.975.491.538-1.005 2.789-13.014 5.003-26.686s4.309-26.21 4.658-27.86l.634-3 .98 2.5c.539 1.375 5.843 15.702 11.786 31.838 5.943 16.135 11.09 29.622 11.438 29.969.957.957 27.925 4.996 28.708 4.3.582-.518 14.103-83.061 15.003-91.594l.315-2.986-8-1.189c-10.617-1.577-14.484-1.599-14.942-.088-.208.688-2.51 14.683-5.116 31.102-4.185 26.372-4.875 29.52-5.918 27-.65-1.569-5.828-16.577-11.508-33.352s-10.818-30.991-11.421-31.59-6.495-1.877-13.095-2.838-12.751-1.952-13.669-2.202c-1.002-.272-1.895.263-2.233 1.338m267.193 3.682c-15.79 2.857-28.956 5.442-29.258 5.744s3.15 21.593 7.672 47.313l8.22 46.765 4.038-.455c7.827-.882 59.461-10.092 60.63-10.815.911-.562.898-2.57-.053-8.688-.681-4.376-1.574-8.5-1.984-9.164-.567-.916-5.649-.369-21.141 2.278-11.218 1.917-20.538 3.342-20.713 3.168-.487-.487-3.161-18.91-2.797-19.274.176-.176 8.369-1.712 18.207-3.413s18.289-3.461 18.778-3.911c.776-.713-1.637-17.519-2.663-18.544-.201-.201-8.953 1.129-19.45 2.956l-19.084 3.321-1.225-7.874c-.673-4.331-.989-8.109-.701-8.397s9.458-2.137 20.378-4.108 19.998-3.699 20.173-3.839-.434-4.35-1.354-9.355l-1.672-9.098-3.646.098c-2.005.054-16.565 2.435-32.355 5.292m-114.978 10.08c-10.908 3.004-17.41 7.899-21.724 16.356-1.774 3.476-1.91 5.906-1.748 31.222.163 25.481.325 27.776 2.255 31.963 7.076 15.345 25.779 20.866 55.904 16.501 5.5-.797 10.337-1.463 10.75-1.48 1.194-.051.694-5.98-1.098-13.032-1.601-6.301-1.744-6.492-4.652-6.233-25.432 2.262-32.213 1.965-35.746-1.568-1.893-1.893-2.179-3.812-2.968-19.897-1.049-21.368-.523-27.272 2.774-31.191 2.073-2.464 3.298-2.933 8.677-3.326 3.445-.252 11.438-.136 17.763.258 7.09.44 11.734.346 12.11-.247.692-1.09 3.16-17.868 2.693-18.311-.166-.158-4.353-.781-9.303-1.383-11.814-1.439-29.801-1.254-35.687.368"/><path fill="#ea0f1c" fill-rule="evenodd" d="M732 340.052c-42.291 2.554-87.577 14.056-125.141 31.785l-10.64 5.022-11.174 18.32c-13.939 22.857-33.387 61.653-42.77 85.321-17.699 44.646-28.243 81.585-40.817 142.994l-5.323 25.994 2.6 3.506c4.194 5.654 33.83 34.814 45.584 44.852 29.065 24.822 60.51 44.695 106.181 67.105 49.995 24.532 63.936 30.726 65.83 29.248.644-.502 8.595-6.687 17.67-13.744 26.72-20.78 59.167-46.969 86.012-69.426 13.798-11.542 25.674-21.333 26.391-21.757s1.482-1.288 1.7-1.918c.219-.63 8.272-8.234 17.897-16.898 17.753-15.98 64.252-59.97 75.839-71.747l6.34-6.443-7.5-20.883c-30.032-83.628-51.194-135.632-79.368-195.047l-10.51-22.163-11.15-3.067c-37.735-10.379-67.768-13.463-107.651-11.054m282 36.886c-20.004 7.758-48 19.957-48 20.915 0 .354 2.023 6.72 4.495 14.146 2.473 7.425 7.574 25.389 11.337 39.919l6.842 26.417 16.413 9.168c18.714 10.453 37.953 22.172 58.854 35.852l14.44 9.451 5.56-2.539c16.894-7.716 38.044-16.528 48.841-20.349 11.797-4.175 12.263-4.447 11.773-6.882-5.998-29.864-16.024-66.808-20.939-77.154-1.366-2.876-4.831-5.663-16.917-13.608-20.212-13.285-29.237-18.502-54.199-31.331l-21-10.793zm-555.637 106.35c-16.519 17.089-32.039 35.299-35.013 41.081-3.308 6.432-12.566 31.494-20.423 55.288-5.385 16.307-6.128 19.396-4.996 20.76 1.352 1.628 13.364 10.838 18.25 13.992l2.68 1.73 16.436-21.82c9.04-12 19.353-25.644 22.917-30.319 5.847-7.669 7.048-10.113 12.279-25 3.189-9.075 8.882-24.748 12.652-34.828S490 485.494 490 485.066c0-1.08-17.174-14.066-18.602-14.066-.637 0-6.503 5.529-13.035 12.288m707.516 80.495c-16.208 8.723-52.946 25.956-80.379 37.705-13.75 5.889-25.37 11.056-25.823 11.483-.453.426-2.815 12.072-5.248 25.878-4.58 25.977-7.117 38.697-12.995 65.151-1.894 8.525-4.825 21.8-6.513 29.5s-3.278 14.748-3.534 15.663c-.337 1.202 10.258 10.817 38.323 34.775 21.335 18.212 44.415 38.03 51.29 44.039s13.053 10.948 13.73 10.974c1.851.074 19.223-7.002 43.27-17.624 21.167-9.349 77.878-36.944 81.203-39.512 1.255-.97 2.63-6.697 5.234-21.815 6.268-36.385 8.864-61.43 10.521-101.5.785-18.978.708-21.156-.795-22.623-.915-.893-8.897-7.868-17.74-15.5-17.912-15.462-37.429-30.822-63.044-49.617l-17.121-12.563zM357.212 683.765c-5.869 7.851-13.828 24.315-15.707 32.491-2.2 9.579-5.37 30.853-7.04 47.244-1.691 16.603-1.941 68.191-.418 86 2.132 24.916 8.35 61.51 14.025 82.543 2.012 7.455 2.369 8.107 3.24 5.918 4.436-11.153 10.967-22.595 18.938-33.185l9.212-12.237-.286-37.52c-.294-38.558.235-49.375 3.943-80.634 2.116-17.834 2.12-18.191.274-23-1.032-2.687-1.898-5.11-1.926-5.385s-1.004-2.603-2.169-5.174c-6.452-14.238-12.562-37.038-15.832-59.076-.306-2.062-.874-3.743-1.261-3.735-.388.008-2.634 2.595-4.993 5.75M919.5 842.119c-14.263 3.949-60.54 15.048-77 18.467-29.027 6.03-66.59 13.383-73.449 14.378-3.603.523-10.298 1.706-14.877 2.629-7.078 1.427-8.463 2.036-9.234 4.064-1.753 4.612-17.086 63.507-22.401 86.049-4.937 20.936-17.539 79.969-17.539 82.16 0 1.874 49.629 46.806 72.2 65.367 12.667 10.416 52.368 40.468 61.276 46.382 6.516 4.327 4.069 4.46 40.468-2.216 34.874-6.396 120.062-25.766 125.005-28.422 2.846-1.53 26.165-62.978 46.174-121.675l12.07-35.406-67.096-66.948c-36.903-36.821-67.434-66.907-67.846-66.858-.413.05-3.901.963-7.751 2.029m-461.398 16.508c-3.336 12.417-8.282 34.494-10.052 44.873-2.207 12.936-7.05 50.02-7.05 53.977 0 2.797 11.203 21.732 24.831 41.967 10.264 15.24 27.548 38.315 42.363 56.556l9.339 11.5 13.984 1.102c18.795 1.481 75.483 2.782 75.483 1.732 0-.46.886-8.592 1.97-18.071 2.172-19.002 5.381-39.236 10.636-67.059 1.9-10.063 3.15-18.789 2.778-19.391s-6.966-9.469-14.653-19.704c-13.73-18.281-31.709-44.801-49.321-72.749l-8.91-14.14-5-.601c-2.75-.331-11.975-.612-20.5-.624-14.728-.022-40.479-1.191-57.178-2.595l-7.679-.646zm774.525 36.394c-9.213 5.843-50.335 29.821-69.127 40.308l-19 10.603-4.355 15.284c-3.418 11.994-12.269 41.958-22.751 77.016-.391 1.308 1.518 3.048 7.794 7.106 4.572 2.956 17.477 11.323 28.679 18.594s20.99 13.46 21.752 13.752c1.715.658 14.565-6.779 51.667-29.903l28.785-17.94 6.06-12.613c9.188-19.126 18.369-41.722 25.173-61.957l6.13-18.228-3.467-3.627c-7.96-8.326-48.846-41.416-51.174-41.416-.771 0-3.545 1.36-6.166 3.021M1158 1120.606c-2.475 1.419-14.349 7.739-26.387 14.043l-21.888 11.461-23.778 23.087-23.779 23.087 4.649 8.908c4.311 8.258 4.833 8.862 7.166 8.278 9.555-2.389 46.163-18.094 52.517-22.529 2.2-1.535 14.302-13.131 26.894-25.768l22.894-22.977-4.761-8.848c-7.059-13.123-6.51-12.768-13.527-8.742m-650.22 13.644c-7.799 8.746-14.077 17.371-13.617 18.707.771 2.236 40.688 42.62 50.508 51.098 14.732 12.718 33.319 26.415 41.214 30.37 14.754 7.391 67.293 26.757 95.355 35.147 9.977 2.983 12.239 3.368 13.294 2.261 2.279-2.387 12.44-15.319 12.453-15.847.007-.283-7.738-5.458-17.212-11.5-21.334-13.607-41.169-28.398-54.275-40.473-14.327-13.201-18.38-16.278-29.814-22.638-33.882-18.848-48.06-27.325-72.768-43.512-9.12-5.975-17.052-10.863-17.627-10.863s-3.955 3.263-7.511 7.25m379.72 77.824c-1.65.497-7.5 1.599-13 2.449-5.5.851-21.25 3.472-35 5.825l-25 4.278.141 13.437c.105 9.926.711 15.839 2.319 22.627l2.178 9.189 17.181 5.582c9.45 3.07 25.556 7.694 35.793 10.274l18.611 4.693 19.696-4.819c25.147-6.154 33.674-8.763 34.701-10.621.452-.818 3.128-7.754 5.946-15.412l5.124-13.924-2.09-1.576c-1.15-.867-4.23-2.685-6.845-4.041s-15.033-8.443-27.594-15.75c-23.613-13.735-25.152-14.319-32.161-12.211"/></svg>