<svg xmlns="http://www.w3.org/2000/svg" xml:space="preserve" id="katman_1" x="0" y="0" version="1.0" viewBox="61.43 20.6 199.45 200.07"><style>.st0{fill:#a82d30}.st1{fill:#fff}.st2{fill:#02572e}.st3{fill:#0e0403}</style><path d="M155.3 21.1c-.8.1-2.5.2-3.8.3s-2.8.3-3.3.4-1.4.2-1.9.3-1.4.2-1.9.3c-.6.1-1.1.2-1.2.2s-.6.1-1.1.2-1.5.3-2.1.4c-.7.1-1.3.3-1.5.3-.2.1-.8.2-1.3.3-.6.1-1.5.4-2 .5s-1 .3-1.1.4-.5.2-.8.2c-.3.1-.7.1-.7.2-.1.1-.4.1-.7.2s-.7.2-.9.3-1.1.4-1.9.7c-.9.3-1.6.5-1.7.6s-.2.1-.4.1c-.1 0-.4.1-.5.2s-.5.2-.7.3-.6.2-.7.3-.4.2-.7.3c-.2.1-.8.3-1.3.5s-1 .4-1.1.5-.7.3-1.1.5c-.5.2-2.4 1.1-4.3 2.1-1.9.9-3.6 1.8-3.7 1.9-.2.1-.6.3-.9.5s-.7.4-.9.5-.5.3-.7.4-.5.3-.6.4-.7.4-1.2.7c-.6.4-1.9 1.3-3.1 2-1.1.8-2.5 1.7-2.9 2-.5.3-1 .7-1.1.8-.2.1-.5.4-.9.6-.3.2-.7.5-.9.7s-.6.5-.9.8c-.4.3-1.1.9-1.7 1.4s-1.4 1.2-1.8 1.5-1.8 1.6-2.9 2.7c-1.2 1.1-2.5 2.4-2.9 2.8s-1.4 1.5-2.3 2.5c-.8.9-2 2.2-2.5 2.9-.6.7-1.2 1.5-1.5 1.8-.3.4-.6.7-.6.8-.1.1-.4.5-.7.9s-1 1.3-1.5 2-1.4 2-2.1 3-1.4 2.2-1.7 2.7-.6 1-.7 1.1-.5.9-.9 1.6-.9 1.5-1.1 1.8c-.1.2-.5 1-.9 1.7-.3.7-.8 1.5-.9 1.8-.2.3-.7 1.3-1.1 2.3-.4.9-.9 2-1.1 2.4s-.4.9-.5 1.1-.5 1.2-.9 2.3-1 2.6-1.3 3.4-.6 1.9-.8 2.3c-.2.5-.3 1-.4 1.1s-.3 1.1-.6 2.2c-.3 1-.5 2-.5 2.1s0 .3-.1.3c-.1.1-.2.4-.3.8s-.3 1.1-.4 1.5-.2 1-.3 1.3-.2.9-.3 1.4-.2 1.3-.3 1.8-.3 1.5-.4 2.1c-.1.7-.3 1.8-.4 2.6s-.2 2-.3 2.7-.2 2.1-.3 3.1-.2 3.2-.3 5c-.1 2.2-.1 4.2 0 6.3.1 1.7.2 4.3.3 5.8s.3 2.9.3 3.2c.1.3.1.8.1 1.1s.2 1.4.3 2.5c.2 1.1.4 2.4.5 3s.3 1.4.4 1.9.3 1.4.4 2 .3 1.2.3 1.3c.1.1.1.4.1.5 0 .2.1.5.2.8s.3 1.1.5 1.7.3 1.2.4 1.4c.1.1.1.3.1.4s.2.8.5 1.6.7 2.1.9 2.8c.3.7.6 1.6.7 1.8.1.3.3.8.4 1.1s.3.8.4 1 .3.7.5 1.1.5 1.1.7 1.5.5 1.1.7 1.5.7 1.6 1.3 2.7c.5 1.1 1.3 2.5 1.7 3.3.4.7 1 1.8 1.4 2.4.3.6.6 1.1.6 1.2s0 .2.1.2c0 0 .2.2.3.4s.5.8.8 1.3.8 1.3 1.1 1.7.8 1.3 1.3 1.9c.4.6 1.2 1.7 1.7 2.4s1.2 1.6 1.5 2 1 1.4 1.6 2c.5.7 1 1.2 1.1 1.2s.1 0 .1.1.2.4.5.7 1 1.2 1.6 1.9 2 2.1 3 3.2 2.8 2.8 4 3.9 2.5 2.3 3 2.7 1 .9 1.1.9c.1.1.6.5 1.1.9s1.2 1 1.5 1.2c.3.3.7.6.8.6.1.1.5.4.8.6s1 .7 1.5 1 1.6 1.1 2.5 1.7 2.1 1.4 2.7 1.7 1.5.9 2.2 1.3 1.9 1.1 2.7 1.5 1.9 1 2.3 1.2.8.5.9.5.7.3 1.4.6 1.5.7 1.8.9c.3.1.9.4 1.4.6s.9.4 1 .4l.6.2c.3.1.8.3 1.1.4s.8.3 1.2.5c.4.1.8.3.9.3s.2 0 .2.1.9.4 1.9.7 2.4.8 3.1 1 1.3.4 1.5.5c.1.1.6.2 1 .3s1.5.4 2.5.7 2.2.6 2.8.7 1.3.3 1.7.4 1.1.2 1.7.3c.5.1 1.8.3 2.9.5s2.2.3 2.5.3.8.1 1.1.1c.3.1 1.8.2 3.3.4 1.5.1 4.1.2 5.6.3 1.6.1 4.2.1 5.9 0s4.2-.2 5.7-.3 3-.3 3.3-.4.9-.1 1.1-.1c.3 0 1.4-.2 2.5-.4s2.4-.4 2.8-.5.9-.2 1.1-.2c.2-.1.6-.2.9-.2s1-.2 1.5-.3 1.8-.4 2.7-.7c1-.3 2.1-.6 2.5-.7s.9-.2 1-.3.5-.2.7-.2c.3-.1.9-.2 1.4-.4s1.7-.6 2.6-.9 1.7-.6 1.7-.7.1-.1.2-.1.5-.1.9-.3.9-.4 1.2-.5.8-.3 1.1-.4l.6-.2 1-.4c.5-.2 1.1-.5 1.3-.6s.9-.4 1.6-.7 1.4-.7 1.7-.8l2.2-1.1c1-.5 2.6-1.4 3.6-2s2.2-1.3 2.7-1.6c.4-.3 1.1-.7 1.6-1 .4-.3 1.4-.9 2.1-1.4s1.8-1.2 2.3-1.6 1-.8 1.2-.9c.1-.1.5-.4.8-.6s1.1-.9 1.8-1.4c.6-.5 1.6-1.2 2-1.7.5-.4 1.8-1.6 3-2.7s2.9-2.7 3.8-3.7c.9-.9 2.1-2.2 2.6-2.7s1.1-1.2 1.3-1.5.6-.7.9-1 1.1-1.2 1.8-2.1 1.4-1.8 1.5-2c.2-.2.4-.6.6-.7.1-.2.5-.6.8-1s.9-1.2 1.3-1.9l1.2-1.8c.2-.3.6-1 .9-1.4s.8-1.2 1.1-1.7.6-.9.6-1 .1-.2.1-.2l.1-.1c0-.1.3-.7.8-1.4.4-.7 1-1.8 1.4-2.5s1.1-2.1 1.6-3.1c.5-1.1 1.2-2.5 1.5-3.2s.6-1.4.6-1.5.3-.7.6-1.4.6-1.4.7-1.7.3-.7.4-.9.6-1.6 1-3c.5-1.4 1-3 1.1-3.4s.3-1.2.5-1.6c.1-.5.2-1 .2-1.1s.1-.3.1-.3c.1 0 .1-.3.2-.7s.2-.9.3-1.2.3-1 .4-1.5c.1-.6.3-1.6.5-2.4.1-.8.3-1.7.4-2.1s.2-1.4.4-2.3c.1-.9.3-1.8.3-2.1s0-.7.1-.9.2-1.7.3-3.2.3-4.3.3-6.1c.1-2.1.1-4.4 0-6.5-.1-1.8-.2-4.3-.3-5.7s-.3-2.9-.3-3.3c-.1-.4-.2-1.3-.3-1.9s-.2-1.6-.3-2.2-.3-1.5-.4-2.1-.3-1.5-.4-2.1-.3-1.3-.3-1.6c-.1-.3-.2-.7-.3-1.1-.1-.3-.2-.9-.4-1.4-.1-.4-.3-1.1-.4-1.5s-.3-1-.4-1.4-.3-1.1-.4-1.5-.2-.9-.3-1c-.1-.2-.4-1-.7-1.9s-.6-1.9-.7-2.2l-.2-.6s-.1-.2-.1-.3-.1-.4-.3-.7c-.1-.3-.3-.8-.5-1.1-.1-.3-.5-1.3-1-2.3-.4-1-1.1-2.6-1.5-3.5s-.8-1.8-.9-1.9-.5-.9-.9-1.8c-.5-.9-1-1.9-1.2-2.2s-.7-1.2-1.1-1.8c-.4-.7-.8-1.4-.9-1.6s-.4-.8-.8-1.2c-.3-.5-.6-.9-.7-1s-.1-.2-.1-.2-.4-.7-1-1.5-1.3-1.9-1.8-2.6c-.4-.6-1.1-1.5-1.4-1.9s-.7-.9-.8-1-.4-.5-.7-.9-.9-1.1-1.3-1.6-.9-1.1-1.1-1.3c-.1-.2-1.1-1.3-2.2-2.4-1.1-1.2-3-3.1-4.3-4.4-1.3-1.2-2.8-2.6-3.3-3.1-.5-.4-1.5-1.3-2.3-1.9-.7-.6-1.5-1.2-1.7-1.4s-.6-.5-1-.8-.7-.5-.8-.6-.6-.4-1.1-.8-1-.7-1.2-.9c-.2-.1-1.2-.8-2.3-1.6s-2.4-1.6-2.9-1.9-1-.6-1.1-.7-.4-.2-.6-.4c-.2-.1-.5-.3-.7-.4s-.6-.3-.9-.5-1-.6-1.6-.9-2.3-1.2-3.8-1.9-3.1-1.5-3.5-1.7-.9-.4-1.1-.5-.5-.2-.9-.4c-.3-.1-.9-.4-1.2-.5s-.8-.3-.9-.4c-.2-.1-.6-.2-.8-.3-.3-.1-.6-.2-.7-.3s-.4-.2-.5-.2-.3 0-.4-.1-.8-.3-1.7-.6c-.8-.3-1.7-.6-1.9-.7s-.6-.2-.9-.3-.6-.1-.7-.2-.4-.1-.7-.2c-.3 0-.7-.1-.8-.2s-.6-.2-1.1-.4c-.5-.1-1.4-.4-2-.5s-1.2-.3-1.3-.3c-.1-.1-.8-.2-1.5-.3s-1.6-.3-2.1-.4-1-.2-1.1-.2-.7-.1-1.2-.2c-.6-.1-1.3-.2-1.7-.3s-1.3-.2-1.9-.3c-.7-.1-2.2-.2-3.5-.4-1.2-.1-3-.2-4-.3-.9-.1-3.6-.1-5.8-.1-2.3.4-4.8.5-5.6.5" class="st0"/><path d="M155.6 23.9c-.9.1-2.4.2-3.4.3-.9.1-3 .3-4.5.5s-3.5.5-4.3.7c-.8.1-2.5.5-3.8.8s-3 .7-3.9 1-2.1.6-2.7.8-2.3.7-3.8 1.2-3.3 1.2-4.1 1.5-2.2.9-3.1 1.3-2.5 1.1-3.5 1.6-2.7 1.4-3.9 2c-1.1.6-2.8 1.6-3.7 2.1-.9.6-2.4 1.5-3.2 2s-1.6 1-1.6 1.1c0 0-.6.4-1.1.8-.6.4-1.4 1-1.9 1.3s-1.5 1.2-2.4 1.9-1.8 1.5-2.1 1.7c-.2.2-1.2 1.1-2.2 1.9-1 .9-2.8 2.6-4 3.8s-2.9 3-3.8 4-1.7 2-1.9 2.2-.9 1.2-1.7 2.1c-.7.9-1.6 2-1.9 2.5s-.7 1-.9 1.3-.5.7-.7 1.1c-.2.3-.4.6-.5.7 0 0-.5.8-1.1 1.6s-1.5 2.3-2 3.2-1.5 2.6-2.1 3.7-1.5 2.9-2 3.9-1.2 2.6-1.6 3.5-.8 1.7-.8 1.8-.1.4-.3.7-.4.8-.5 1-.5 1.3-.9 2.5c-.4 1.1-.9 2.5-1.1 3.1s-.6 2.1-1 3.3c-.4 1.3-.9 3.5-1.3 4.9-.3 1.4-.6 2.8-.7 3.1s-.2 1.3-.4 2.3-.4 2.4-.5 3-.2 1.9-.3 2.8-.3 2.5-.3 3.6c-.1 1.1-.2 4.2-.2 6.9s.1 5.8.2 6.9.2 2.7.3 3.6.3 2.4.4 3.2.3 2.2.5 3.1c.1.8.3 1.9.5 2.5.1.5.4 1.9.7 3s.5 2.2.6 2.4c0 .2.4 1.4.8 2.7s1.1 3.4 1.5 4.7c.4 1.2 1.1 3 1.5 3.9s1 2.4 1.4 3.4c.4.9 1.3 2.7 1.9 3.9s1.4 2.8 1.8 3.5 1 1.7 1.3 2.3 1.1 1.8 1.7 2.7 1.4 2.2 1.8 2.7c.4.6.9 1.4 1.2 1.7.3.4 1 1.3 1.6 2.2s1.3 1.7 1.5 2 1 1.2 1.7 2.1 1.9 2.2 2.7 3.1c.7.8 2 2.1 2.9 3 .8.8 2.3 2.3 3.3 3.2s2.1 1.9 2.5 2.2 1.3 1 2 1.6 1.3 1.1 1.4 1.1c0 .1.8.6 1.6 1.2s2.2 1.6 3.1 2.2 2.3 1.6 3.2 2.1 1.9 1.2 2.3 1.4 1.4.8 2.3 1.3 2.3 1.2 3.1 1.6 1.4.7 1.5.8c0 0 1.1.5 2.3 1.1s2.9 1.2 3.6 1.6c.7.3 1.8.7 2.4.9s1.6.6 2.2.8 1.6.5 2.1.7c.6.2 1.7.5 2.5.8.8.2 1.6.5 1.8.5.1.1.8.2 1.4.4.6.1 1.7.4 2.4.6s1.5.3 1.8.4 1 .2 1.5.3c.6.1 1.5.3 2.1.4s1.9.3 2.8.4 2.5.3 3.5.4 2.6.2 3.6.3c.9.1 3.8.1 6.3.1s5.4-.1 6.3-.1c.9-.1 2.4-.2 3.2-.3s2.2-.2 3-.3 2.1-.3 2.9-.4 2.1-.4 3.1-.6c.9-.2 2-.4 2.5-.5.4-.1 1.6-.4 2.6-.6s1.9-.5 2.1-.5c.2-.1 1-.3 1.8-.5s2.1-.6 2.7-.8 1.8-.6 2.5-.9 2-.7 2.9-1.1c.8-.3 2-.8 2.5-1s1.6-.7 2.4-1.1 2-.9 2.7-1.3 1.8-.9 2.5-1.3 1.9-1 2.7-1.5 2.2-1.3 3-1.8 1.8-1.1 2.2-1.4 1.5-1 2.3-1.6c.9-.6 2.1-1.5 2.7-1.9s1.1-.9 1.1-.9c0-.1.3-.3.6-.5s1.1-.8 1.7-1.4c.7-.5 1.9-1.7 2.9-2.5.9-.8 2.4-2.2 3.2-3 .9-.8 2.2-2.2 3-3.1s2.2-2.5 3.1-3.5c.9-1.1 2-2.4 2.4-2.9s1.2-1.5 1.7-2.2 1.5-2.1 2.2-3.1 1.6-2.4 2-3.1 1-1.7 1.4-2.3c.3-.6 1-1.8 1.6-2.7.5-.9 1.4-2.5 1.8-3.5.5-1 1.1-2.4 1.4-3.1s.6-1.4.7-1.7c.1-.2.3-.7.5-1.1s.4-.9.5-1.1.5-1.3.9-2.5c.4-1.1 1-2.9 1.3-3.9s.8-2.6 1.1-3.5c.2-.9.6-2.2.7-2.9.2-.7.4-1.6.5-2.1.1-.4.3-1.2.4-1.8s.3-1.7.5-2.5c.1-.8.4-2.2.5-2.9.1-.8.3-2.2.4-3.1.1-1 .3-2.6.3-3.6.1-1 .1-4.2.1-7.1s-.1-6-.1-6.9c-.1-.9-.2-2.3-.3-3.1s-.3-2.3-.4-3.3c-.1-1.1-.3-2.2-.4-2.5s-.2-1.3-.4-2.2-.5-2.5-.7-3.6-.6-2.6-.8-3.3-.6-2.2-1-3.3c-.3-1.1-.9-2.8-1.2-3.8-.4-1-.9-2.3-1.1-3-.3-.7-.6-1.6-.8-2.1s-.4-1.1-.5-1.3-.5-1.1-.9-2-1.2-2.6-1.9-3.8c-.6-1.2-1.5-2.9-2-3.7s-1.3-2.2-1.9-3.2-1.5-2.3-1.9-3c-.5-.7-1.1-1.6-1.3-1.9-.3-.4-.8-1.1-1.2-1.7-.4-.5-1.1-1.4-1.5-1.9s-1.3-1.6-2-2.5c-.7-.8-1.8-2.2-2.5-2.9-.7-.8-2.3-2.4-3.5-3.6s-2.8-2.8-3.6-3.5-2.1-1.8-2.9-2.5-1.8-1.5-2.1-1.7c-.3-.3-1.1-.9-1.8-1.4s-2.1-1.5-3.1-2.2c-1.1-.7-2.8-1.9-3.9-2.5s-2.6-1.6-3.5-2.1c-.8-.5-2.7-1.5-4.1-2.2s-2.9-1.4-3.3-1.6-1.1-.5-1.6-.7-1.7-.7-2.7-1.1-2.7-1-3.9-1.5c-1.1-.4-3-1-4.1-1.3s-3-.9-4.3-1.2c-1.2-.3-3.2-.8-4.3-1s-2.7-.5-3.5-.7c-.8-.1-2-.3-2.6-.4s-1.6-.2-2.1-.3c-.6-.1-1.7-.2-2.5-.3s-2.5-.2-3.7-.3-3.7-.1-5.6-.1-4.1.2-5 .2" class="st1"/><path d="M159.7 30.6c-.2.2-.2.4-.1 5.4.1 2.9.2 6 .2 6.9 0 1.3-.1 1.8-.2 2.1-.1.2-.4.6-.7.8-.4.3-.7.5-1.2.6-.6.1-.9.1-1.4 0-.4-.1-.8-.3-1.1-.6-.2-.2-.5-.6-.6-.9s-.2-1.4-.3-2.9c-.1-1.4-.2-4.2-.2-6.3 0-2.3-.1-4-.2-4.4s-.2-.6-.4-.6H152c-.8 0-1.4.1-1.5.2s-.2.5-.2 1.4c0 .7.1 2.5.1 4.1.1 1.5.2 4 .3 5.5.1 1.9.2 3 .4 3.7.1.6.4 1.3.6 1.6s.7.9 1.1 1.2c.4.4 1.1.8 1.5 1s1.2.4 1.7.5c.7.1 1.3.1 2.1 0 .6-.1 1.4-.3 1.9-.4.6-.2 1-.5 1.7-1.2.5-.5 1-1.2 1.2-1.6s.4-1.1.5-1.6c.1-.6.1-2 .1-4.2 0-1.8-.1-4.9-.2-6.7-.1-2.1-.2-3.5-.3-3.6s-.6-.2-1.6-.2c-1 .1-1.6.1-1.7.2m13.3.4c-.1.1-.3.7-.5 1.4-.1.7-.3 1.5-.4 1.8s-.6 2.4-1.1 4.7-1.2 5.2-1.5 6.5-.6 2.6-.7 2.8c-.1.3-.1.6-.1.7s.2.2.4.3.9.3 1.4.4c.6.1 1.2.2 1.3.2.2 0 .3-.3.5-1.1.1-.6.4-1.6.5-2.3.2-.7.5-2.4.9-3.8s.7-2.9.7-3.2c.1-.3.2-.7.2-.8s.1-.2.2-.2.4.7.7 1.6c.4.9 1.1 2.8 1.6 4.2s1.2 3.2 1.5 4 .7 1.9.9 2.5c.3.8.4 1 .8 1.2.2.1.9.3 1.6.4s1.3.2 1.4.2.5-1.6.9-3.4 1-4.5 1.3-5.9.8-3.4 1-4.4.5-2.3.7-3 .2-1.3.2-1.4-.7-.3-1.4-.5-1.4-.3-1.6-.3-.3.1-.4.2-.2.8-.4 1.5-.4 1.9-.6 2.7-.5 2.1-.7 3-.4 2-.6 2.4c-.1.4-.3 1-.3 1.3-.1.3-.2.5-.2.4s-.4-1-.8-2.1-1.4-3.7-2.1-5.7-1.5-4.1-1.7-4.6l-.4-1s-.7-.2-1.6-.4c-1.1-.3-1.5-.4-1.6-.3m-35.5 2.2-1.5.5c0 .7.5 2.1.9 3.5.5 1.5.9 2.8.8 3 0 .4-.1.4-2.8 1.3-1.5.5-2.8.9-2.9.9s-.2-.4-.4-.7c-.1-.4-.6-1.8-1-3.2s-.9-2.6-1-2.6-.8.2-1.6.4c-.8.3-1.5.5-1.6.6s0 .5.2 1.1.6 1.9.9 3 1 3.1 1.5 4.5 1.2 3.6 1.6 4.9.9 2.8 1.1 3.4c.2.7.4 1 .6 1 .1 0 .8-.2 1.6-.5s1.4-.5 1.5-.6q.15-.15-.3-1.5c-.2-.8-.8-2.4-1.2-3.6s-.7-2.4-.7-2.5c0-.2.5-.4 2.6-1.1 1.4-.5 2.7-.8 2.9-.8.3 0 .4.3 1.4 3.4.6 1.8 1.2 3.6 1.3 3.8s.3.4.4.4.8-.2 1.6-.5 1.4-.5 1.5-.6-.1-.7-.4-1.7c-.3-.8-.8-2.6-1.3-4-.4-1.4-.9-2.9-1.1-3.3-.1-.4-.8-2.4-1.5-4.5-.7-2-1.2-3.8-1.2-3.9s-.1-.3-.2-.4-.2-.2-.3-.2c.1 0-.6.3-1.4.5m68.4 9.8c-.1.2-.4.7-.6 1-.2.4-1.1 1.9-2 3.3-.9 1.5-1.7 2.9-1.9 3.2s-1.3 2.2-2.5 4.2-2.2 3.7-2.2 3.9.5.6 2.1 1.5c1.1.7 2.3 1.4 2.7 1.6s1.1.5 1.6.7c.6.2 1.3.3 1.7.3s1-.1 1.5-.2c.4-.1 1-.4 1.3-.5.3-.2.8-.6 1.2-1s.8-1 1-1.4.4-1 .5-1.5c.1-.6.1-.9 0-1.6-.1-.5-.3-1.1-.5-1.5-.3-.5-.3-.7-.2-.8s.4-.2.8-.3c.3-.1.8-.3 1.1-.5.2-.1.7-.6 1-1.1.3-.4.7-1.1.8-1.5.1-.5.2-1 .2-1.5 0-.4-.2-1.1-.4-1.5-.2-.5-.7-1.1-1.1-1.6-.4-.4-1.2-1.1-1.7-1.4s-1.6-1-2.3-1.5c-.8-.4-1.5-.8-1.5-.8-.3.1-.5.3-.6.5m-92.2.5c-.5.1-1.3.3-1.9.5-.5.2-1.3.5-1.7.8-.4.2-1.3 1-1.9 1.6-.9.8-1.3 1.5-1.7 2.1-.3.5-.6 1.4-.8 1.9-.3.8-.3 1.2-.3 2.9 0 1.6 0 2.1.3 2.8.2.5.4 1.2.6 1.5.2.4.5 1 .8 1.4s.8 1 1.2 1.4 1.1.9 1.5 1.2 1.1.6 1.5.8 1.2.5 1.7.6 1.4.2 2 .2 1.6-.1 2.1-.2 1.4-.4 2-.6 1.3-.6 1.6-.8.9-.7 1.2-1c.4-.3.9-.9 1.2-1.3s.7-1.2 1-1.7c.2-.5.5-1.3.7-1.8.2-.7.2-1.3.2-2.7-.1-1.5-.1-2-.4-2.9-.2-.6-.4-1.2-.5-1.4s-.4-.6-.6-1-.7-1-1.1-1.4-1-.9-1.4-1.2-1.1-.7-1.6-.9-1.2-.5-1.6-.6-1.3-.2-1.9-.2c-.8-.1-1.7 0-2.2 0" class="st2"/><path d="M114.3 47c-.4 0-1.1.2-1.5.4s-1 .5-1.3.7-.8.6-1 1c-.3.3-.7.9-.8 1.2-.2.3-.4.9-.5 1.3s-.2 1.1-.2 1.6.1 1.3.2 1.8.4 1.2.6 1.6.7 1 1.1 1.4 1.1.9 1.6 1.1 1.3.5 1.8.6 1.1.1 1.5.1c.3-.1.9-.2 1.2-.3s.8-.3 1.1-.4.8-.5 1.2-.9.9-1 1.1-1.4l.7-1.4c.1-.4.2-1.2.2-1.7s-.1-1.4-.2-1.9-.5-1.3-.7-1.7c-.3-.4-.8-1.1-1.1-1.4-.4-.3-1-.8-1.4-1s-1.2-.5-1.6-.6-.9-.2-.9-.2c-.2 0-.6.1-1.1.1m92.8 1c-.2.2-.6.9-1 1.5-.5.8-.6 1.1-.5 1.3.1.1.4.3.6.5.3.2.8.3 1.1.4.3 0 .8 0 .9-.1.2-.1.5-.3.7-.5s.4-.6.5-.9.1-.7 0-.9-.2-.5-.4-.7c-.1-.1-.5-.4-.8-.6s-.6-.4-.8-.4c.2-.1-.1.1-.3.4m-3.6 6c-.1.2-.7 1.1-1.1 1.9-.7 1.2-.9 1.6-.8 1.7s.6.5 1.2.8q1.05.6 1.8.6c.6.1.8 0 1.2-.2l.8-.8c.2-.3.3-.8.3-1.1 0-.4-.1-.8-.3-1.1-.1-.3-.4-.6-.6-.8s-.6-.5-1.1-.8c-.4-.3-.9-.5-1-.5s-.3.1-.4.3" class="st1"/><path d="M158.3 57.1c-1.2 0-2.8.2-3.7.2-.8.1-2.2.2-2.9.4-.8.1-2.1.3-3 .5s-1.9.4-2.3.5-1.3.3-2.1.5-2.4.7-3.5 1.1-2.2.8-2.4.9-.4.2-.5.2-.8.3-1.5.6c-.8.3-1.6.7-1.8.8s-1.2.6-2.1 1c-.9.5-2.2 1.1-2.7 1.4-.6.3-1.1.6-1.3.7s-.5.3-.8.5-1.2.8-1.9 1.3c-.8.5-1.6 1.1-1.9 1.3s-1 .8-1.7 1.3-1.9 1.5-2.6 2.1c-.8.6-2.4 2.2-3.7 3.6-1.3 1.3-2.8 2.9-3.4 3.6s-1.4 1.7-1.9 2.4-1.6 2.2-2.4 3.3c-.8 1.2-1.5 2.3-1.7 2.5-.1.2-.6 1.1-1.1 1.9-.4.8-1.2 2.3-1.7 3.3s-1.2 2.6-1.6 3.5-1.1 2.7-1.5 4-1 3.3-1.3 4.5-.7 2.8-.8 3.6-.3 1.8-.4 2.3-.2 1.2-.3 1.7c-.1.4-.2 1.7-.3 2.7-.1 1.1-.2 3.6-.2 5.7 0 2.6.1 4.5.2 5.9.1 1.2.3 2.8.4 3.6s.2 1.5.3 1.5c0 .1.1.5.2 1s.4 1.9.7 3.1.8 2.9 1.1 3.9.7 2.2 1 2.8c.2.6.6 1.6.9 2.2s.5 1.3.7 1.5c.1.2.4.9.7 1.6s1 2 1.6 3.1c.6 1 1.5 2.6 2 3.5.6.9 1.4 2.2 2 3s1.4 1.9 1.9 2.6 1.2 1.5 1.6 1.9c.3.4.8.9 1 1.1.2.3 1.2 1.3 2.1 2.3 1 1 2.5 2.4 3.4 3.2s2.1 1.8 2.8 2.3 1.8 1.4 2.6 1.9c.8.6 2.1 1.4 2.9 1.9s2.2 1.3 3.1 1.8 2.3 1.2 3.3 1.7 2.7 1.2 3.9 1.7 2.7 1 3.4 1.3c.7.2 2 .6 2.8.9.9.2 2.4.6 3.4.9 1 .2 2.3.5 2.9.6s1.7.3 2.5.4 2.2.3 3.2.3c1 .1 2.8.2 4.1.2 1.6 0 3.4 0 5.4-.1 1.6-.1 3.9-.3 4.9-.5 1.1-.2 2-.3 2-.3l1-.2c.5-.1 2-.4 3.3-.7s3.3-.9 4.5-1.3c1.1-.4 3-1 4.1-1.5 1.1-.4 3-1.3 4.1-1.9 1.2-.6 2.6-1.3 3.3-1.7.6-.4 1.9-1.1 2.8-1.7s2.3-1.5 3.1-2.1 1.9-1.4 2.5-1.9 1.4-1.2 1.9-1.6 1.3-1.1 1.8-1.6l2.2-2.2c.7-.7 1.8-1.9 2.5-2.7.6-.7 1.5-1.8 2-2.3.4-.6 1.1-1.4 1.5-1.9s1-1.4 1.5-2.1c.4-.6.9-1.3 1-1.5s.6-1 1-1.7 1.3-2.3 1.9-3.5 1.3-2.6 1.4-2.9c.1-.4.5-1.2.8-1.8s.9-2.3 1.4-3.7 1.1-3.5 1.4-4.6.6-2.6.7-3.3.2-1.3.3-1.3c0 0 .2-.7.3-1.5s.3-2.4.4-3.5c.1-1.5.2-3.4.2-6.1 0-2.2-.1-4.8-.2-5.7-.1-1-.2-2.2-.3-2.9-.1-.6-.2-1.7-.4-2.4-.1-.7-.3-1.5-.3-1.9 0-.3-.4-1.6-.7-2.9s-1-3.4-1.4-4.7-1.1-3.1-1.5-4-1.1-2.4-1.6-3.5c-.5-1-1.3-2.5-1.7-3.3-.5-.8-1-1.7-1.1-1.9-.2-.3-.6-.9-.9-1.4s-.9-1.4-1.4-2.1c-.4-.6-1.2-1.7-1.7-2.3-.5-.7-1.4-1.8-2.1-2.5-.6-.7-2-2.2-3.1-3.3s-2.6-2.5-3.4-3.2-2.1-1.8-2.9-2.4c-.8-.7-1.8-1.4-2.1-1.6l-2.1-1.4c-.9-.6-1.7-1.1-1.9-1.3l-.4-.2s-.5-.3-1.1-.6-1.9-1-2.9-1.5-2.1-1-2.4-1.2c-.3-.1-1-.4-1.5-.7-.6-.2-1.1-.5-1.2-.5-.1-.1-.3-.1-.4-.1s-.3-.1-.5-.2-1.3-.5-2.4-.9-2.7-.9-3.5-1.1-1.8-.5-2.1-.5-1.3-.3-2-.4c-.7-.2-2-.4-2.9-.5-.8-.1-2-.3-2.6-.3s-1.6-.1-2.3-.2-2.2-.2-3.3-.2c-1.5-.1-3.4-.1-4.6-.1" class="st0"/><path d="M156.8 60.1c-.9.1-2.6.2-3.7.4s-2.4.3-2.9.4-1.3.2-1.7.3c-.5.1-1.8.4-2.9.7s-3 .9-4.3 1.3c-1.2.4-2.5.9-2.8 1l-.6.2s-.5.2-1.1.5-1 .5-1.1.5c0 0-.8.4-1.8.8-.9.5-2.5 1.3-3.5 1.9s-2.4 1.5-3.2 2-2.1 1.4-2.9 2-2.1 1.7-2.9 2.4-2.1 1.8-2.9 2.6-2.2 2.2-3.1 3.3c-1 1.1-2.4 2.8-3.2 3.9s-1.9 2.7-2.5 3.5c-.5.8-1.1 1.7-1.3 2.1-.2.3-.6 1-.9 1.5s-.9 1.8-1.4 2.8-1.2 2.5-1.5 3.3-.6 1.5-.7 1.7c0 .2-.2.5-.3.7s-.4.9-.6 1.6-.6 1.9-.9 2.9c-.3.9-.6 2.1-.7 2.5-.1.5-.3 1.3-.4 1.9-.1.5-.3 1.7-.5 2.6-.1.9-.3 2.3-.4 3.2-.1 1.1-.2 3.3-.2 6.6 0 4.4 0 5.3.3 7.2.2 1.2.4 2.7.5 3.3s.3 1.5.4 2 .4 1.6.5 2.3c.2.8.6 2.1.8 2.9.3.8.8 2.3 1.1 3.3.4 1 1 2.6 1.5 3.7.5 1 1.1 2.3 1.4 2.9.3.5.8 1.4 1 1.9.3.5.9 1.5 1.3 2.2s1.1 1.8 1.6 2.5 1.2 1.7 1.7 2.3 1.4 1.8 2.1 2.7c.7.8 2.3 2.5 3.5 3.7s2.9 2.8 3.8 3.5c.8.7 2.2 1.8 3.1 2.4.8.6 2.1 1.5 2.9 2 .7.5 1.8 1.2 2.4 1.5s2.2 1.2 3.5 1.9 2.7 1.4 3.1 1.5c.4.2 1.3.5 2.1.8s2.3.8 3.3 1.2c1.1.4 2.8.9 3.9 1.1 1.1.3 2.4.6 2.9.7s1.5.3 2.1.4 2.2.3 3.6.5c2 .2 3.3.3 6.6.3s4.6-.1 6.6-.3c1.4-.2 3-.4 3.6-.5s1.5-.3 2.1-.4 1.8-.4 2.9-.7c1-.3 2.6-.7 3.4-1 .9-.3 2.4-.8 3.4-1.2s2.2-.8 2.5-1c.4-.2 1.5-.7 2.6-1.2s2.6-1.4 3.4-1.8c.8-.5 2.1-1.3 2.9-1.8s2.1-1.4 2.9-2 2.2-1.7 3.1-2.4c.8-.7 2.5-2.3 3.7-3.5s2.8-2.9 3.5-3.7 1.7-2 2.1-2.7c.5-.6 1.2-1.6 1.6-2.2s1.1-1.7 1.6-2.5.9-1.5.9-1.5l.2-.4c.1-.2.8-1.4 1.4-2.6s1.4-2.9 1.7-3.7.9-2.2 1.2-3.1.6-1.8.6-1.9.1-.2.1-.3c.1-.1.2-.4.3-.7s.4-1.4.6-2.4c.3-1 .6-2.3.7-2.8s.3-1.4.4-2 .3-2 .5-3.1c.2-1.6.3-2.9.4-6.5 0-2.8 0-5.1-.1-6-.1-.8-.2-2.1-.3-2.9-.1-.7-.2-1.8-.3-2.4s-.3-1.5-.4-2.1-.3-1.4-.4-1.9-.4-1.6-.7-2.5c-.2-.9-.7-2.4-1-3.3s-1-2.7-1.5-3.9c-.6-1.3-1.4-3.1-1.9-4s-1.2-2.2-1.5-2.8c-.4-.6-1.1-1.8-1.7-2.7s-1.3-1.9-1.5-2.3c-.3-.4-.8-1.1-1.3-1.7-.4-.5-1.3-1.6-1.9-2.4s-2.1-2.4-3.3-3.5c-1.2-1.2-2.8-2.7-3.7-3.4-.8-.7-2.1-1.7-2.9-2.3-.7-.5-2-1.4-2.7-1.9-.8-.5-2-1.3-2.7-1.7s-1.5-.9-1.8-1c-.3-.2-1.3-.7-2.2-1.2s-1.7-.8-1.8-.8c0 0-.5-.2-1.1-.5-.6-.2-1-.5-1.1-.5 0 0-.3-.1-.5-.2s-1.2-.5-2.2-.8-2-.7-2.3-.8-1.5-.4-2.7-.7c-1.1-.3-2.5-.6-2.9-.7-.5-.1-1.2-.3-1.7-.3-.5-.1-2-.3-3.3-.5-2-.3-3.2-.3-6.3-.4-1.9.1-4.4.1-5.3.2" class="st1"/><path d="M93.2 60.6c-.2.3-.7.9-1 1.2-.3.4-.5.8-.5.9s.5.9 1 1.7 1.7 2.5 2.6 3.8 2.1 3.1 2.7 3.9c.6.9 1.1 1.6 1.1 1.7s-.1.1-.2.1-.6-.1-1.2-.3-2.8-1-5.1-1.8-4.6-1.6-5.1-1.8c-.6-.2-1.1-.3-1.2-.2s-.4.3-.6.6-.6.8-.9 1.2-.5.8-.5.9 1.4 1.8 3.2 3.7 4.2 4.5 5.4 5.8 2.6 2.8 3.2 3.4 1.1 1 1.2 1 .5-.4.9-.9.8-1.1.9-1.3c.2-.3.2-.4.1-.6-.1-.1-1.4-1.6-2.8-3.2-1.5-1.6-3.1-3.4-3.7-4s-1-1.2-.9-1.2c0 0 .7.2 1.5.4.8.3 3.2 1.1 5.3 1.8 2.2.7 4 1.4 4.1 1.4s.6-.6 1.2-1.3 1-1.3 1-1.3-.6-.9-1.3-2-2.2-3.2-3.2-4.7-1.9-2.9-1.9-3 .1-.1.2-.1 2.1 1 4.3 2.2 4.4 2.3 4.8 2.5c.6.3.8.4 1 .3s.6-.6 1-1.2.8-1.2.7-1.3c0-.1-.5-.5-1.4-.9-.7-.4-2.3-1.2-3.4-1.8s-3-1.6-4.2-2.2-2.6-1.4-3.2-1.7-1.8-.9-2.6-1.4-1.7-.8-1.8-.8c-.2 0-.5.2-.7.5m130 1.6c-2.6.8-6 1.8-7.5 2.2-1.5.5-3.2.9-3.7 1.1-.5.1-1.3.4-1.8.5-.6.2-.9.3-.9.5 0 .1.4.8 1 1.4.5.7 1.1 1.3 1.2 1.3s1-.2 2-.4c1-.3 1.8-.5 1.9-.4.1 0 .7.8 1.4 1.7s1.6 2.1 2.1 2.8c.5.6.9 1.2.9 1.3s0 .3-.1.5-.5.9-.9 1.6-.8 1.4-.8 1.5c0 .2.3.6.6 1.1.3.4.7 1 .9 1.2s.4.5.5.5c.1.1.4-.2.8-.9.3-.5 1.5-2.4 2.6-4.2s2.4-3.9 2.9-4.7 1.1-1.8 1.3-2.2c.3-.4.7-1.1 1-1.6.3-.4.5-.8.5-.8s.3-.6.7-1.2.7-1.3.7-1.4-.3-.6-.6-1c-.4-.4-.8-1-1-1.3-.3-.3-.5-.5-.7-.5-.1 0-2.4.6-5 1.4" class="st2"/><path d="M224.7 65.4c-.3.1-1.6.4-2.9.8-2 .6-2.4.8-2.4 1s.2.6.6 1.1c.4.4.9 1.2 1.3 1.7.5.6.8.9.9.8s.6-.8 1-1.6c.5-.8 1.2-2 1.6-2.6s.7-1.2.7-1.2c0-.1 0-.1-.1-.1s-.4 0-.7.1" class="st1"/><path d="M155 66.6c-.2.4-.7 1.2-1.1 1.8s-.9 1.2-1 1.4-.3.5-.4.6-.4.6-.7 1.1-1 1.4-1.3 2c-.4.6-.7 1.2-.8 1.2s-.1.2-.1.3-.1.3-.2.4-.5.7-.9 1.4-1 1.9-1.4 2.6-.6 1.3-.6 1.4c0 0-.2.5-.4.9-.2.5-.6 1.4-.9 2.1s-.6 1.7-.7 2.1c-.1.5-.4 1.3-.5 1.7-.1.5-.3 1-.4 1.3-.1.2-.2.7-.2 1.1-.1.4-.2 1.2-.3 1.7s-.3 1.4-.3 2.1c-.1.6-.2 1.8-.3 2.6s-.2 3.1-.2 5.1c-.1 2.3 0 4.2.1 5.4.1 1 .2 2.9.3 4.3s.2 2.7.2 3c0 .4.1.5.4.4.2 0 2.8-.1 5.7-.1h5.4c.1-2 .2-3.7.3-5.2s.3-3.7.5-4.9.4-2.3.4-2.4.1-.5.2-.9c0-.4.3-1.4.5-2.3s.6-2.3.9-3.1.7-2 .9-2.7c.3-.7.7-1.6.9-2.1s.7-1.5 1-2.1.6-1.2.7-1.2.1-.1.1-.2.3-.6.6-1.1l.6-1s.3-.5.8-1.1c.4-.6 1.1-1.5 1.6-2 .4-.5 1.1-1.2 1.3-1.5.3-.3 1-1 1.6-1.5.8-.7 1.2-1 1.9-1.2.4-.1 1-.3 1.3-.4s.6-.2.7-.2l.3-.1c-.4.1-.8.2-1.2.2-.7.1-.7.1-.5-.2.1-.2.4-.5.7-.7s.9-.5 1.2-.6c.4-.1 1.1-.3 1.5-.3.5-.1 1.4-.2 2-.4.8-.2 1.3-.4 1.7-.6.4-.3.7-.6.9-1.1.2-.4.3-.9.3-1.4 0-.6 0-.8-.4-1-.3-.3-.5-.3-1.1-.3-.4 0-1 .1-1.4.3-.4.1-.9.4-1.1.6s-.5.7-.6 1.1-.4.9-.6 1.1c-.3.3-.5.4-1.5.4-.8 0-1.6 0-2.4-.2-.7-.1-1.8-.4-2.6-.7-.8-.2-1.9-.7-2.4-1s-1.2-.7-1.5-.9-.7-.5-1-.6-.5-.3-.5-.4-.2-.3-.4-.4-.9-.7-1.6-1.2c-.6-.5-1.6-1.5-2.2-2.2-.7-.8-1.1-1.2-1.3-1.2-.1.2-.3.4-.5 1" class="st2"/><path d="M154.2 66.7c-.5.3-1.5 1-2.1 1.5-.7.5-1.6 1.3-2.1 1.7s-1.4 1.1-1.9 1.5-1.9 1.6-3 2.7c-1.1 1-2.8 2.7-3.7 3.7s-2.2 2.4-2.9 3.3c-.7.8-1.6 1.9-2 2.5s-.9 1.1-1 1.3c-.1.1-.6.8-1.1 1.3-.5.6-1.3 1.7-1.8 2.4-.6.7-1.5 2.1-2.1 3s-1.5 2.5-2 3.5-1.2 2.6-1.7 3.7c-.4 1-.8 2.2-.9 2.5-.1.4-.4 1.3-.6 2s-.4 1.7-.5 2.2-.3 1.3-.4 1.9-.3 1.9-.4 3-.2 3.3-.2 4.9c0 1.8.1 3.6.2 4.5s.4 2.2.5 3c.2.8.6 2 1 2.7.4.9.8 1.5 1.1 1.7.2.2.5.4.6.3.1 0 .4-.7.8-1.6.4-.8.9-1.9 1.1-2.3s.7-1 .9-1.4.9-1.1 1.4-1.7 1.2-1.3 1.7-1.7c.4-.3.9-.7 1-.8s.3-.2.3-.2l.6-.4c.3-.2 1.1-.7 1.8-1s1.8-.8 2.3-1c.6-.2 1.6-.5 2.3-.6s1.3-.3 1.3-.3c0-.1.1-.2.1-.4s-.1-1.6-.2-3c-.1-1.5-.2-3.4-.3-4.4-.1-1.1-.1-3.1-.1-5.3 0-2 .1-4.3.2-5.1s.2-2 .3-2.6.2-1.6.3-2.1.2-1.3.3-1.7.2-.9.2-1.1c.1-.2.2-.8.4-1.3.1-.5.3-1.3.5-1.7.1-.5.5-1.4.7-2.1s.6-1.6.9-2.1c.2-.5.4-.9.4-.9 0-.1.3-.7.6-1.4.4-.7 1-1.9 1.4-2.6s.8-1.4.9-1.4c.1-.1.2-.2.2-.4s.1-.3.1-.3c.1 0 .4-.6.8-1.2s1-1.5 1.3-2 .7-1 .8-1.1.3-.5.5-.8.7-1 1-1.5c.4-.5.8-1.1.9-1.4l.2-.6c0 .1-.4.4-.9.7m6.7 3.8c.1 0 .2.2.2.3s.1.3.3.3c.1.1.3.1.4.1s.3.1.4.2c.2.3.2.3.2 0 0-.2-.2-.4-.4-.6-.2-.3-.5-.4-.8-.4-.3.1-.4.1-.3.1m10.6 7c-.5.2-1.1.3-1.3.4s-.8.2-1.2.4c-.6.2-1 .5-1.9 1.2-.6.5-1.3 1.2-1.6 1.5s-.9 1-1.3 1.5-1.1 1.4-1.6 2c-.4.6-.8 1.1-.8 1.1l-.6 1c-.3.5-.6 1-.6 1.1s-.1.2-.1.2c-.1 0-.4.5-.7 1.2-.3.6-.7 1.6-1 2.1-.2.5-.6 1.5-.9 2.1-.3.7-.7 1.9-.9 2.7-.3.8-.7 2.2-.9 3.1s-.5 1.9-.5 2.3c-.1.4-.1.8-.2.9s-.2 1.2-.4 2.4-.4 3-.5 4c-.1.9-.2 2.7-.2 3.9l-.1 2.2c4.5.2 6.2.2 6.8.3s1.2.1 1.3 0c.2-.1.4-.4.5-.9.1-.4.6-1.7 1-2.7.4-1.1 1.1-2.7 1.5-3.7.4-.9 1.1-2.3 1.4-3s1-1.8 1.4-2.5 1.2-2 1.8-2.9 1.6-2.2 2.1-2.9c.6-.7 1.5-1.7 2-2.2s1.3-1.2 1.8-1.6 1.5-1.1 2.2-1.6 1.9-1.2 2.5-1.5c.7-.3 1.5-.7 1.9-.8s1.1-.2 1.6-.2c.7 0 1.1.1 1.5.3.3.2.9.6 1.3 1s1 .9 1.4 1.2.8.5 1 .5.6-.2.9-.3c.4-.3.5-.4.5-.7 0-.2-.1-.6-.2-.9s-.6-.9-1.1-1.3-.9-.9-.9-1 .4-.4 1-.6c.5-.2 1.1-.6 1.3-.8s.3-.5.4-.7c0-.2 0-.5-.1-.6-.2-.2-.3-.3-.6-.2-.2 0-1.1.3-1.8.6-1.1.4-1.6.5-2.6.6-.7 0-1.4 0-1.7-.1s-.7-.3-.9-.6c-.2-.2-1.1-1.3-2-2.4-.8-1.1-1.9-2.4-2.3-2.8-.5-.4-1.2-1-1.7-1.3s-1.2-.6-1.5-.7-1.3-.2-2-.2c-1.3-.3-1.7-.3-2.4-.1" class="st0"/><path d="M233.7 78.8c-.2 0-.9.2-1.5.3-.6.2-1.5.5-2 .8s-1.3.8-1.7 1.1-1.1 1-1.5 1.4c-.4.5-.9 1.3-1.3 2.1-.3.7-.7 1.7-.8 2.1s-.1 1.4-.1 2.1.1 1.7.2 2.1c.1.5.4 1.3.6 1.9s.6 1.4.8 1.7c.2.4.7 1 1 1.3.3.4 1 .9 1.5 1.2s1.3.7 1.8.9 1.5.4 2.1.5c.8.1 1.5.1 2.3.1.6-.1 1.4-.2 1.8-.4.4-.1.7-.3.7-.4s-.5-1.9-1.2-3.9c-.7-2.1-1.3-4-1.4-4.3s-.3-.6-.4-.6-.8.2-1.4.4c-.8.2-1.3.5-1.4.6-.1.2.1.9.6 2.4.4 1.2.7 2.2.7 2.4s-.1.2-.3.2-.7-.1-1.1-.3c-.6-.2-1-.5-1.6-1.2-.8-.8-.9-1-1.3-2.1-.4-1-.4-1.4-.5-2.4 0-.8.1-1.4.2-1.9.1-.4.4-1.1.7-1.5.2-.4.8-1.1 1.2-1.5s1.1-.9 1.5-1.1 1.2-.5 1.8-.6c.7-.1 1.2-.1 1.8-.1.5.1 1.1.2 1.4.3s.9.4 1.3.7.9.7 1.2 1 .7.9.9 1.4.5 1.2.6 1.7.2 1.2.2 1.7c0 .4-.1 1.1-.2 1.5s-.3 1-.4 1.4c-.2.5-.2.7-.1.8s.7.5 1.4.9 1.4.7 1.5.6c.1 0 .4-.6.7-1.2.3-.7.6-1.6.6-2 .1-.4.1-1.2.1-1.6s-.1-1.3-.2-2-.3-1.6-.5-2.1-.6-1.4-1-2c-.4-.7-1-1.5-1.7-2.1-.8-.7-1.3-1.1-2.3-1.6-.7-.3-1.6-.7-2.1-.8s-1.3-.2-1.9-.3c-.4.4-1.1.4-1.3.4M74.4 94.4c-.1.1-.2.4-.2.6s0 .4-.1.4c0 .1-.2.5-.3.9-.1.5-.2 1-.3 1.2-.1.4 0 .5.4.9.3.3.9 1.1 1.4 1.7.5.7 1.2 1.6 1.6 2.1s.9 1.1 1.1 1.4.3.6.3.6c-.1.1-.5 0-.9-.1-.5-.1-1.4-.3-2-.4-.7-.2-1.6-.4-2-.5s-.9-.1-1-.1-.2.4-.2.8c-.1.4-.1.8-.2.8s-.1.5-.2.9c-.1.7-.1.8.2.9.1.1.5.2.8.2s1.3.3 2.3.5 2.5.6 3.3.8c.9.2 2.8.7 4.3 1s3.6.8 4.8 1.1 2.2.5 2.3.4c.1 0 .3-.6.6-1.7.2-.9.4-1.6.3-1.6 0 0-.9-.2-2-.5-1.1-.2-2.1-.5-2.2-.5-.2 0-.3 0-.4-.1 0-.1-.4-.2-.8-.2-.4-.1-1-.2-1.4-.3s-.8-.2-.9-.3q-.3-.15 0-.3c.1-.1 1.7-.7 3.6-1.5 1.9-.7 3.8-1.5 4.3-1.7l.9-.4c.3-1.2.5-2 .6-2.5s.2-1 .2-1.2c0-.1-.1-.3-.2-.3s-.9.3-1.8.7-3.4 1.4-5.5 2.2-3.9 1.5-4 1.5-.7-.7-1.4-1.4c-.6-.8-2-2.5-3-3.7s-1.9-2.4-2.1-2.5zm115 10.5c-.2.1-.4.5-.5.7-.1.3-.1.6 0 .8s.4.9.6 1.6c.3.7.8 1.7 1 2.4.3.7.8 1.8 1.1 2.5s1.1 2.6 1.8 4.2 1.6 3.8 2.1 4.9c.8 1.7.9 2.1.9 2.6s-.1.7-.3.8c-.1.1-.5.3-.7.5-.3.2-.6.6-.8 1s-.4 1.2-.4 1.7c-.1.7-.1 1.7 0 2.6.1.8.2 2.1.3 2.9.1.9.1 1.4 0 1.6-.1.1-1 .8-2 1.4-1.1.6-2.8 1.5-3.8 2s-2.5 1.2-3.2 1.5-2.1.8-3.1 1.2c-1 .3-2.6.8-3.6 1.1-1 .2-2.2.5-2.6.6s-1.5.3-2.3.4-2.2.3-3.2.5c-1 .1-3.1.3-4.7.4-1.7.1-4.2.2-5.6.3-2.3.1-2.9 0-4.5-.2-1.1-.2-2.5-.4-3.2-.5s-1.6-.3-2.1-.4c-.4-.1-1.2-.3-1.8-.4s-1.6-.4-2.3-.5c-.7-.2-1.6-.4-2-.5s-1.7-.5-2.8-.9-2.3-.8-2.7-.9c-.3-.1-1.3-.5-2.2-.9-.9-.3-2.7-1.2-4.1-1.9s-3.2-1.6-4-2.1-2.3-1.4-3.3-2-2.4-1.7-3.2-2.2c-.8-.6-1.9-1.5-2.6-2.1s-2.2-2-3.4-3.2-3-3.1-3.9-4.3c-.9-1.1-2.1-2.4-2.5-2.9-.5-.5-1-1-1.2-1.1s-.5-.2-.7-.2c-.3 0-.4.1-.5.6-.2.4-.2.7-.1 1.4.1.5.3 1.3.5 1.8s.7 1.4 1 2 .9 1.4 1.2 1.8 1 1.3 1.5 1.9c.6.6 1.5 1.7 2.1 2.5.6.7 1.8 2 2.7 2.9.8.9 2.3 2.2 3.2 3s2.3 1.9 3 2.4c.7.6 1.9 1.4 2.7 1.9.7.5 1.8 1.1 2.3 1.5.6.3 1.5.9 2.2 1.2.7.4 2 1.1 3.1 1.5 1 .5 2.5 1.1 3.2 1.4s1.8.7 2.5 1c.6.2 2.2.7 3.5 1.1s3.4 1 4.8 1.3 3.1.7 3.9.9c.8.1 1.9.3 2.4.4s1.6.2 2.5.3 2.5.3 3.6.4 3.2.2 4.6.3c1.5.1 3.5 0 5-.1 1.4-.1 3.3-.3 4.4-.4 1.1-.2 2.6-.4 3.3-.5.8-.2 1.8-.4 2.3-.5s1.7-.5 2.8-.8 2.4-.8 3-1 1.4-.5 1.8-.7 1.1-.4 1.5-.6 1.3-.6 1.9-.9c.7-.3 1.9-.9 2.7-1.4s2.4-1.4 3.5-2.2 3-2.1 4.1-2.9 2.1-1.5 2.2-1.5.3.5.5 1 1 2.2 1.7 3.6c.7 1.5 1.5 3.1 1.7 3.7s.6 1.1.8 1.3c.1.2.4.3.6.3s.5-.1.7-.2.4-.3.5-.4c0-.1 0-.5-.1-.8s-.3-.6-.3-.7c-.1-.1-.4-.9-.7-1.8s-1.1-3.1-1.8-4.8-1.2-3.2-1.3-3.3c0-.1.4-.5.9-1s1.3-1.2 1.7-1.6 1.2-1.3 1.8-2 1.5-1.8 2-2.5 1.4-2 2-2.9 1.5-2.4 2-3.3 1.2-2.1 1.4-2.5c.3-.6.4-1.1.4-1.5s-.1-.8-.2-1c-.2-.3-.3-.4-.7-.4s-.5.1-.8.4c-.1.2-.7.8-1.2 1.4s-1.4 1.5-1.8 2c-.5.5-1.4 1.5-2.1 2.2l-1.2 1.3c-3.7-.1-4.2-.1-4.6.1-.3.1-.5.3-.5.5 0 .1.1.4.3.5.2.2.3.4.3 1 0 .4-.1 1-.3 1.4-.2.6-.3.7-.6.8-.2 0-.7 0-1.1-.1-.6-.1-.9-.3-1.4-.8-.4-.4-.8-.9-.9-1.3s-.2-1-.2-1.3c0-.4.1-.8.3-1.1.1-.2.5-.5.7-.7.2-.1 1.1-.4 1.8-.7.8-.3 1.6-.7 1.8-.8s.5-.6.7-.9.3-.9.4-1.3c.1-.5 0-.8-.1-1.3-.1-.3-.4-.8-.5-1-.2-.2-.6-.6-1.1-.8-.4-.2-.9-.5-1-.7s-.3-.5-.3-.7c0-.3.2-.6.7-1.1.6-.5.8-.9.9-1.4.1-.4.3-1.3.3-2 .1-.8 0-1.4-.1-1.8-.1-.3-.3-.6-.6-.8s-.7-.3-1.1-.3q-.6 0-.9.3c-.2.2-.8 1.3-1.5 2.7-.7 1.3-1.2 2.6-1.3 2.9v.8c.1.2.2.4.5.5.2.1.7.2 1.1.3s.8.2.9.3c.2.1.3.4.3.7s-.1.9-.2 1.4-.2 1-.3 1c0 .1-.3.2-.6.3s-.9.2-1.6.2c-.9 0-1.2-.1-1.8-.3-.7-.3-.7-.3-1.3-1.7-.3-.8-.8-1.8-1-2.3s-.8-1.9-1.3-3-1-2.2-1.1-2.5c-.1-.2-.3-.7-.5-1.1s-.6-1.2-.9-1.9-.7-1.3-.8-1.4-.4-.2-.6-.3c.2-.1-.1 0-.3.2m42.3 1.4c0 .9.1 1.7.1 1.8s.7.3 1.4.6c.8.2 1.6.5 1.9.6.5.2.6.3.6.6 0 .2.1 1.3.2 2.3s.2 2.5.3 3.3c.1 1.1.1 1.5 0 1.6s-.2.2-.3.2-.8.3-1.6.7c-1.2.6-1.6.8-1.6 1s0 1 .1 1.8.2 1.5.2 1.6c.1 0 1.2-.4 2.5-1.1 1.3-.6 2.9-1.4 3.5-1.7s1.9-.9 2.9-1.4 2.1-1 2.4-1.1c.3-.2 2-.9 3.7-1.7s3.1-1.6 3.2-1.7c0-.1 0-.9-.1-1.8s-.1-1.7-.1-1.7-1-.3-2.2-.7-2.4-.7-2.6-.8-1.8-.5-3.4-1-3.9-1.2-5-1.5-2.7-.8-3.6-1.1-1.8-.5-2-.5l-.4-.1z" class="st2"/><path d="M239.5 111.1c0 .2.1 1.1.1 2 .1.9.2 1.8.2 2s.1.3.2.3 1.1-.5 2.2-1c1.1-.6 2.4-1.2 2.8-1.3.4-.2.7-.4.7-.5s-.5-.3-1.2-.5c-.6-.2-1.9-.6-2.9-.9s-1.8-.5-2-.5c-.1 0-.1.1-.1.4" class="st1"/><path d="M70.5 120.1c0 2.7 0 5 .1 5.1.1.2.2.3.6.3h1.7l1.2-.1c-.1-2.1 0-2.8 0-2.9.1-.3.3-.3 7.6-.4 4.1-.1 7.5-.1 7.5-.2.1 0 .1-.8.1-1.7v-1.7c-.6-.1-3.7-.1-7.4-.1-3.7.1-6.9.1-7.2.1s-.6-.1-.6-.1-.1-.7-.1-1.4 0-1.5-.1-1.6c-.1-.2-.4-.2-1.7-.2h-1.7zm75.3-2.6c-1.2.1-3 .2-3.8.3s-2 .3-2.6.4c-.6.2-1.4.4-1.8.6s-1 .6-1.4.9-1 .8-1.4 1.2-1.1 1.2-1.6 1.9-1.2 1.7-1.5 2.4-.7 1.6-.8 2.1-.2 1.3-.2 1.9.1 1.4.2 1.8.4 1.1.5 1.5c.2.4.8 1.1 1.4 1.7s1.4 1.2 2 1.6c.5.3 1.5.7 2.1 1 .6.2 1.5.6 2.1.7.6.2 1.4.4 2 .5s1.6.3 2.4.4 2.4.3 3.7.4c1.6.1 5.1.2 11 .2 5.7 0 9.6-.1 11.5-.2 1.5-.1 3.3-.2 3.9-.3s2-.2 3.1-.3 2.8-.4 3.9-.6 2.4-.5 3-.7 1.5-.6 2.1-.9 1.5-.8 2-1.2 1.2-1.1 1.5-1.5c.4-.5.7-1.1.9-1.6.1-.5.2-1.2.2-1.7s-.1-1.3-.2-1.8-.5-1.4-.8-2-.9-1.6-1.2-2.2c-.4-.6-1.1-1.4-1.6-1.9s-1-.9-1.1-1-.7-.4-1.1-.7c-.5-.3-1.4-.7-2-.9s-1.6-.5-2.1-.6c-.6-.1-1.8-.4-2.8-.5-1-.2-2.9-.4-4.3-.5-2-.2-4.7-.2-13.7-.3-6.2-.2-12.3-.1-13.5-.1M89 126.3c-.1.1-.5.4-.9.6-.5.3-2.1 1.3-3.7 2.4-1.6 1-3.3 2.2-3.9 2.5-.6.4-2.8 1.8-5 3.2s-4 2.6-4.2 2.7c-.2.2-.2.3 0 1.8.2.9.3 1.7.4 1.9.1.1.4.3.8.4s2 .4 3.6.6c1.6.3 3.6.6 4.5.7.8.1 3.9.7 6.8 1.1 2.9.5 5.4.9 5.7.9.4 0 .4 0 .3-.6 0-.3-.2-1.1-.4-1.8s-.3-1.3-.4-1.3c0 0-.3-.1-.6-.1s-1.2-.2-1.9-.3c-.8-.1-1.5-.3-1.6-.4s-.3-.5-.4-1c-.1-.4-.3-1.2-.4-1.7s-.3-1.5-.5-2.2c-.1-.7-.4-1.7-.5-2.3s-.1-1.1-.1-1.2c.1-.1.9-.7 1.8-1.2 1-.6 1.7-1.1 1.7-1.2s0-.6-.1-1.1-.2-1.2-.3-1.7c-.1-.7-.2-.8-.4-.8-.1 0-.2.1-.3.1m143.4 2.3c-.1.1-.3.7-.5 1.4s-.3 1.4-.3 1.6.1.3.2.4c.1 0 2.2.5 4.6.9 2.4.5 4.9 1 5.6 1.2s1.2.3 1.2.4c0 0-.3.2-.6.3-.4.1-1.5.6-2.5 1s-2.4 1-3.1 1.3-2.6 1-4.1 1.6l-2.9 1.2c-.4 1.4-.5 2.2-.5 2.6l-.1.7c.7.2 1.9.5 3.1.7s3.9.8 5.9 1.2 4.9 1 6.4 1.3c2 .4 2.7.5 2.9.4s.3-.4.4-.9c.1-.4.2-1 .3-1.4s.1-.7.1-.8-.1-.3-.2-.3-1.2-.2-2.4-.5c-1.2-.2-2.6-.5-3-.6s-1.3-.3-1.9-.4-1.6-.3-2.1-.4-1.2-.3-1.5-.3c-.3-.1-.5-.2-.4-.2.1-.1 2.8-1.2 6.1-2.5s6.2-2.5 6.6-2.6c.6-.2.7-.4.8-.8.1-.3.2-1 .3-1.6.1-.8.1-1.1 0-1.2s-.3-.2-.4-.2-2-.3-4.2-.8c-2.2-.4-6-1.2-8.5-1.7s-4.6-.9-4.7-.9c-.4-.2-.5-.1-.6-.1" class="st2"/><path d="M81.2 135.8c-.8.6-2.1 1.4-2.8 1.9s-1.3.9-1.3 1 .2.2.4.3c.2 0 1.3.2 2.4.4s2.3.4 2.7.5.9.1 1.2.1c.4 0 .4 0 .4-.3 0-.2-.2-1.3-.4-2.4-.2-1.2-.5-2.2-.5-2.3-.1-.1-.2-.2-.3-.2-.2 0-1 .4-1.8 1" class="st1"/><path d="M131 147.4c-.1 0-.4.1-.7.2-.2.1-.6.2-.9.4-.3.1-1 .4-1.5.6-.6.2-1.3.4-2.1.4-1.1.1-1.3.1-2-.3-.4-.2-1-.5-1.2-.7s-.4-.3-.5-.2 0 .6.1 1.4c.2.7.4 1.6.6 2s.5.8.8 1 .7.3 1.1.3 1.1-.1 1.7-.2 1.7-.5 2.5-.8 1.9-.7 2.3-.7c.7-.1 1-.1 1.5.1.3.1.9.4 1.2.7s.6.4.7.4c.1-.1.1-.4.1-.9 0-.4-.2-1.1-.4-1.4s-.5-.8-.6-1c-.2-.2-.6-.6-.8-.7s-.7-.3-1-.3c-.4-.4-.8-.4-.9-.3m67.2 2c-.1 0-.9.3-1.6.6s-1.8.6-2.3.8c-.5.1-1.3.2-1.7.2s-1-.1-1.3-.2-.8-.4-1.1-.6-.7-.4-.8-.5-.2-.1-.2-.1c-.1 0 .1.7.3 1.5s.5 1.8.7 2.1.5.7.7.8.7.2 1.1.2 1.1-.1 1.6-.2 1.5-.4 2.3-.8c.9-.3 1.9-.7 2.3-.8.7-.1.9-.1 1.5.1.4.1.9.4 1.2.6.2.2.5.4.7.3.2 0 .2-.2.2-.8 0-.4-.2-1-.4-1.5-.2-.4-.5-.9-.8-1.2-.2-.2-.7-.6-1-.7s-.7-.2-.9-.2c-.1.3-.4.3-.5.4m-43.3 3.5c-.5.2-1.1.4-1.5.6-.3.1-1.1.4-1.6.6-.8.2-1.2.3-2 .2-.8 0-1.2-.1-1.7-.4-.4-.2-.8-.5-1-.6s-.4-.2-.5-.1 0 .7.2 1.6c.2 1 .5 1.7.7 2s.6.6.8.7c.3.1.8.2 1.4.1s1.5-.3 2.3-.6 1.9-.7 2.5-.9 1.3-.4 1.6-.4.7.1 1 .2.8.4 1.1.7c.4.3.6.4.7.3.2-.1.2-.3.1-.9-.1-.4-.2-1.1-.4-1.4-.2-.4-.6-.9-.9-1.2s-.8-.6-1.1-.7-.6-.1-.8-.1c.1 0-.4.2-.9.3m21.9.5c-.2.1-1.1.4-1.9.7s-1.8.7-2.2.8-1.1.1-1.6.1-1.1-.2-1.5-.4-.8-.4-.9-.6c-.1-.1-.3-.2-.4-.2-.2 0-.2.1-.2.3s.1.6.2 1 .3 1.1.4 1.5.4.9.6 1.2c.3.3.6.4 1 .5.3.1 1 0 1.6-.1s1.7-.4 2.7-.8c.9-.4 2-.7 2.5-.8.4-.1 1-.1 1.2-.1.2.1.6.2.9.3s.6.4.8.6q.3.3.6.3c.2 0 .2-.1.2-.5 0-.3-.1-.8-.2-1.2s-.3-.9-.5-1.2-.5-.7-.8-1c-.3-.2-.7-.5-1-.6s-.6-.1-.7-.1-.6.2-.8.3" class="st3"/><path d="M85.7 154.6c-.6.3-1 .6-1.2 1-.2.3-.5.8-.6 1-.1.3-.2.9-.2 1.4 0 .7.1 1.1.3 1.6.2.4.5.9.8 1.1.2.2.8.6 1.1.7.5.2.9.3 1.6.3.5 0 1.1-.1 1.4-.2.2-.1.7-.4 1-.7s.7-.8.8-1c.1-.3.3-.8.4-1.2.1-.5.1-.9 0-1.4-.1-.4-.3-.9-.5-1.2s-.5-.7-.8-.9c-.2-.2-.7-.5-1-.6q-.6-.3-1.5-.3c-.6 0-.9.1-1.6.4m146.4-.2c-.4.1-.9.4-1.1.6s-.6.6-.8.9-.4.7-.5 1c-.1.2-.2.8-.2 1.1s.1.9.2 1.3c.1.3.5.9.8 1.3.5.5.8.8 1.4 1s.9.2 1.7.2c.6 0 1.1-.2 1.5-.3.3-.2.8-.6 1.1-.9.3-.4.7-.9.8-1.2s.2-.9.2-1.2-.1-.9-.3-1.3c-.1-.4-.5-.9-.8-1.2s-.8-.7-1.1-.8c-.3-.2-1-.3-1.4-.4-.7-.3-1.1-.2-1.5-.1" class="st2"/><path d="M139.3 159.8c-.7.3-1.8.6-2.4.9-.8.3-1.3.4-2.1.4s-1.1-.1-1.7-.3c-.4-.2-.9-.5-1.1-.7-.4-.3-.5-.3-.6-.1-.1.1 0 .8.2 1.5s.4 1.5.6 1.8c.1.3.5.7.7.8.4.3.6.3 1.6.2.9-.1 1.5-.2 2.4-.5.7-.2 1.6-.6 2.1-.8s1.2-.4 1.5-.4c.4-.1.9 0 1.2.1s.8.4 1.2.6c.3.3.7.5.7.5.1 0 .2-.1.2-.2s.1-.4.1-.6-.1-.7-.2-1-.4-.9-.7-1.3c-.3-.5-.6-.7-1.1-1-.4-.2-.8-.3-1-.3-.2-.1-.9.1-1.6.4m51.5-.4c-.3.1-1.1.4-1.7.6-.7.3-1.6.6-2 .8-.6.2-1.1.2-1.8.2-.6 0-1.2-.2-1.6-.3-.3-.2-.8-.4-.9-.6-.2-.2-.4-.3-.5-.3s-.2.1-.2.3.2.9.3 1.6c.2.7.5 1.6.6 1.8.2.3.4.6.6.7s.8.2 1.5.1c1.1 0 1.4-.1 2.7-.6.8-.3 1.9-.7 2.5-.9.8-.2 1.2-.3 1.7-.2.4 0 .8.1 1 .2s.5.3.8.5.6.4.7.3c.2-.1.2-.2.1-.8 0-.4-.2-1-.4-1.4s-.5-.9-.8-1.2c-.2-.3-.7-.6-1-.8-.3-.1-.7-.2-.9-.2s-.5.2-.7.2m-24.7 3.5c-.6.2-1.1.4-1.1.4-.1.1-.7.3-1.4.5-.9.3-1.5.4-2.2.4-.8 0-1.1-.1-1.7-.3-.4-.2-.8-.5-1-.6s-.4-.2-.5-.2c-.2 0-.2.1-.2.6 0 .3.2 1 .3 1.4.1.5.4 1.1.5 1.4s.4.6.6.8c.3.2.6.3 1.4.3.6 0 1.4-.1 1.8-.2s1.4-.4 2.1-.8c.8-.3 1.8-.6 2.3-.7.6-.1 1-.1 1.4 0 .3.1.8.4 1.2.6.3.3.7.4.8.4s.2-.2.2-.4-.1-.7-.2-1c-.1-.4-.3-.9-.4-1.1s-.5-.6-.8-.9-.8-.6-1-.7-.6-.2-.8-.2c-.1 0-.7.2-1.3.3" class="st3"/><path d="M99.7 165.4c-.5.4-1.7 1.5-2.7 2.3s-2.1 1.8-2.5 2.1-1.4 1.2-2.3 2-1.6 1.4-1.6 1.5.2.4.4.7.6.7.7.9c.2.2.3.3.4.3s.8-.6 1.6-1.2c.8-.7 1.8-1.5 2.1-1.8s.8-.6.9-.6c.2 0 .7.5 1.4 1.3.6.7 1.2 1.4 1.3 1.4s.4-.1.7-.4c.3-.2.6-.6.8-.7.2-.2.3-.4.3-.4 0-.1-.5-.8-1.2-1.5s-1.2-1.5-1.2-1.6.3-.4.7-.8c.4-.3.8-.6.9-.6s.7.6 1.4 1.3l1.4 1.4c.1 0 .5-.2 1-.6.4-.3.8-.7.8-.8s-.5-.8-1.1-1.5-1.5-1.8-2-2.4-1-1.1-1.2-1.1c0 0-.5.3-1 .8" class="st2"/><path d="M182.5 167.5c-.3.1-1.1.4-1.9.7-.7.3-1.8.6-2.3.7-.8.1-1.2.1-1.7 0-.4-.1-1-.3-1.3-.5s-.7-.4-.9-.5-.3-.1-.3.1.1.8.2 1.4c.2.6.4 1.4.5 1.7s.4.7.5.8c.2.2.6.3 1 .4s1.1 0 1.7-.1 1.8-.5 2.6-.8 1.8-.7 2.2-.8.9-.1 1.1-.1c.3 0 .7.2 1 .3s.7.4.9.6.5.4.6.4c.2 0 .2-.1.1-.9-.1-.5-.2-1.2-.4-1.6s-.4-.8-.6-1c-.1-.1-.4-.4-.7-.6-.3-.3-.7-.4-1.2-.4-.3 0-.8.1-1.1.2" class="st3"/><path d="M219.9 167.4c-.2.1-.5.2-.7.3s-.6.4-.9.7l-1.6 1.6c-.6.6-1 1.1-1 1.3s.4.7 1.5 1.6c.8.7 1.7 1.5 1.9 1.6s.5.4.6.6 1.2 1.2 2.5 2.3c1.2 1.1 2.5 2.2 2.8 2.4s.6.4.7.4.4-.3.7-.6 1-1.1 1.5-1.6c.5-.6 1.1-1.4 1.4-1.9.4-.9.5-1 .4-1.9 0-.6-.2-1.2-.3-1.5s-.6-.8-1-1.2-1-.7-1.3-.8-1-.1-1.7-.1l-1.2.1c-.1-1.2-.3-1.6-.5-2-.2-.3-.6-.7-1-.9-.5-.3-.8-.4-1.5-.4-.6-.1-1.2-.1-1.3 0" class="st2"/><path d="M151.6 168.2c-.5.2-1.5.5-2.2.8-.8.3-1.7.5-2.2.6-.6 0-1.1 0-1.6-.1-.4-.1-1-.4-1.4-.7-.5-.3-.7-.4-.8-.3s-.1.4 0 .8.2 1 .3 1.4.3.9.4 1.2.4.6.6.8c.3.2.6.3 1.5.3.6 0 1.4-.1 1.7-.2s1.3-.5 2.3-.8c1.5-.6 1.9-.7 2.7-.7.7 0 1.1.1 1.5.3.3.1.7.4.8.6s.3.3.4.3.2-.2.2-.4c.1-.2 0-.6 0-.8-.1-.2-.2-.8-.4-1.1-.2-.4-.5-.9-.8-1.2s-.7-.6-.9-.7-.7-.2-.9-.2c-.2-.2-.7 0-1.2.1" class="st3"/><path d="M220.4 169.9c-.2.1-.5.3-.6.4-.2.2-.4.4-.4.5-.1.2 0 .4.6.9.4.4.9.8 1 .8.2.1.3.1.5-.1.2-.1.4-.4.5-.6s.2-.5.2-.7-.1-.5-.2-.7-.4-.4-.6-.5-.5-.2-.5-.2c-.1.1-.3.2-.5.2m4.2 3.2c-.4.2-.9.5-1.1.8s-.4.5-.4.6.5.6 1.1 1.1 1.2 1 1.3 1 .5-.4.8-.8c.3-.5.6-1 .7-1.2 0-.2 0-.6-.1-.8-.1-.3-.4-.5-.8-.7-.3-.1-.6-.3-.7-.3-.1-.1-.4.1-.8.3" class="st1"/><path d="M170.1 173.6c-.6.2-1.2.4-1.4.5s-.9.3-1.5.5c-.9.3-1.3.4-2 .3-.7 0-1.1-.1-1.7-.4-.4-.2-.9-.5-1-.6s-.3-.2-.4-.2-.2.1-.2.3.2.9.3 1.6c.2.7.4 1.5.6 1.7.1.2.4.5.6.7.3.2.6.3 1.5.3.7 0 1.4-.1 2-.3.5-.2 1.3-.5 1.8-.7s1.3-.5 1.8-.6c.6-.1 1.1-.2 1.5-.1.3.1.7.2.9.2.2.1.5.3.8.6.3.2.6.4.7.4s.1-.2.1-.9c-.1-.5-.2-1.2-.5-1.6-.2-.4-.6-.9-.8-1.2-.3-.3-.7-.6-1-.6-.3-.1-.7-.2-.9-.2s-.6.1-1.2.3" class="st3"/><path d="M104.6 173.7c-.4.1-1 .3-1.4.5s-1.1.7-1.5 1.2c-.5.5-1.1 1.2-1.3 1.6s-.5 1.2-.7 1.7c-.1.5-.2 1.4-.2 2 0 .7.1 1.5.2 1.9s.4 1 .6 1.3.5.8.7 1.1.7.8 1.2 1.2c.4.4 1.2.8 1.6 1s1.3.4 1.9.5c.8.1 1.3.1 2.1 0 .6-.1 1.3-.3 1.7-.4.4-.2 1-.6 1.4-.9s1-.9 1.3-1.3.6-.9.8-1.2c.1-.2.3-.8.5-1.3.1-.5.2-1.4.2-2.1 0-.9-.1-1.4-.3-2.1-.2-.5-.5-1.2-.7-1.6s-.8-1-1.3-1.5-1.2-1-1.6-1.2-1-.4-1.4-.5-1.2-.1-1.8-.1c-.9.1-1.7.1-2 .2m107.2 1.2c-.4.4-.8.8-.8.9s.2.4.4.6 1 1.1 1.8 2c.8.8 1.6 1.8 1.9 2.1.2.3.8 1 1.3 1.5s1 1.1 1.1 1.4c.1.2.2.6.2.8s-.1.6-.2.9-.4.6-.7.8-.6.3-1.1.3c-.6 0-.7-.1-1.6-.9l-1.8-1.8c-.4-.5-1.5-1.7-2.3-2.5-.8-.9-1.6-1.7-1.8-1.9s-.4-.3-.4-.3c-.1 0-.5.3-.9.8-.4.4-.8.8-.8.9s.1.3.2.5 1 1.1 1.8 2c.9.9 1.8 1.9 2 2.2s.9 1.1 1.5 1.7 1.4 1.3 1.9 1.6c.7.4.8.5 1.9.5 1 0 1.2-.1 1.9-.4.4-.2 1-.6 1.4-.9s.8-.9 1-1.3c.2-.5.4-1 .4-1.7.1-.7 0-1.1-.2-1.7-.1-.4-.5-1-.8-1.4s-1.5-1.7-2.7-3-2.4-2.6-2.6-2.9c-.3-.3-.6-.7-.8-.9s-.4-.4-.5-.4c.2-.2-.3.1-.7.5" class="st2"/><path d="M104.9 176.3c-.4.1-.9.5-1.3.8-.3.3-.8.8-.9 1.2-.2.4-.4 1-.5 1.5s-.1 1.2-.1 1.5c0 .4.2 1 .5 1.5.3.6.6 1 1.1 1.4.4.3 1 .7 1.3.8s1 .2 1.6.2c.7 0 1.2-.1 1.6-.3.3-.2.9-.5 1.3-.9s.8-.9 1.1-1.4c.3-.8.4-1 .4-2.1s-.1-1.3-.4-2c-.2-.4-.7-1-1-1.3s-.8-.6-1.1-.8c-.4-.2-.9-.3-1.7-.3-1 0-1.4 0-1.9.2" class="st1"/><path d="M117.9 183c-.3.1-1 .3-1.6.6-.7.4-1.2.7-1.9 1.4-.5.5-1 1.2-1.2 1.7-.2.4-.5 1.1-.6 1.5s-.2 1.2-.2 1.9c0 .9.1 1.5.3 2.1.2.5.5 1.2.8 1.7.3.4.8 1.1 1.2 1.4.4.4 1 .8 1.4 1s.9.4 1.3.5c.3.1 1.1.2 1.7.3.8.1 1.3 0 2.1-.2.5-.1 1.3-.4 1.6-.5.3-.2.9-.6 1.3-.9.4-.4.9-.9 1.1-1.2s.6-.9.8-1.4c.2-.4.4-1.3.5-1.9.1-.8.1-1.3 0-2.1-.1-.6-.3-1.4-.5-1.9s-.6-1.1-.9-1.5-.8-.9-1.1-1.2-1-.7-1.4-.9-1.1-.5-1.5-.5c-.4-.1-1.1-.1-1.6-.1-.7.1-1.3.1-1.6.2m82.2 1.3c-.3.2-.7.5-.8.6s-.2.2-.2.3.4.8 1 1.6c.5.8 1.3 1.9 1.8 2.6.4.6 1.7 2.4 2.7 3.9s2 2.8 2.2 2.8c.1 0 .4-.1.7-.2.2-.2 1.3-.9 2.4-1.7s2-1.4 2-1.5c0 0-.2-.5-.5-1-.4-.5-.7-.9-.8-.9s-.9.4-1.6.9c-.8.5-1.4.9-1.4.9s-.4-.4-.7-1c-.4-.5-1.6-2.3-2.8-4-1.2-1.6-2.2-3.2-2.4-3.4s-.4-.4-.6-.4c-.3 0-.6.2-1 .5" class="st2"/><path d="M118.3 185.5c-.2.1-.7.3-1.1.5-.5.3-.9.6-1.3 1.2-.3.4-.7 1-.7 1.3-.1.3-.2 1-.2 1.6 0 .9.1 1.2.4 1.9.2.4.6 1 .9 1.3.3.4.9.7 1.5.9s1.2.4 1.6.4 1.1-.1 1.6-.3c.7-.2 1-.5 1.5-1 .4-.4.8-1 .9-1.3.2-.4.3-1 .3-1.7.1-.9 0-1.2-.2-1.9-.2-.4-.5-1.1-.8-1.4-.3-.4-.8-.8-1.3-1.1-.6-.3-1-.4-1.7-.4-.6-.1-1.2 0-1.4 0" class="st1"/><path d="M193.1 187.6c-.2 0-.6.2-1 .3s-1.1.4-1.6.7-1 .7-1.2.8c-.2.2-.6.6-.9 1s-.7 1.1-.9 1.5c-.2.5-.5 1.2-.6 1.6s-.1 1.1-.1 1.5c0 .5.1 1.2.3 1.8s.6 1.4.9 1.8.9 1.1 1.3 1.5 1.1.9 1.5 1.1 1.1.5 1.6.6c.6.1 1.2.2 1.9.1.6 0 1.4-.2 1.9-.4s1.2-.6 1.7-.8c.4-.3 1.1-.9 1.5-1.3q.75-.75 1.2-1.8c.3-.6.6-1.3.6-1.7.1-.3.1-.7.1-.8s-.3-.3-.6-.3c-.3-.1-.8-.2-1.1-.2h-.6c-.5 1.4-.8 2.1-.9 2.5s-.6.8-.9 1.1-.8.6-1.1.8c-.3.1-.8.3-1.2.4s-.9.1-1.3.1c-.4-.1-1-.2-1.4-.4s-1-.7-1.4-1.1-.8-1-1-1.4c-.2-.5-.3-.9-.3-1.6 0-.5.1-1.1.2-1.4s.3-.8.6-1.1c.2-.3.6-.8.8-1s.8-.6 1.3-.8c.8-.4 1-.4 2.2-.4.9 0 1.4-.1 1.4-.2s.1-.4.2-.8c.1-.3.1-.7.2-.9 0-.2 0-.4-.1-.5-.2-.2-.4-.2-1.4-.2-1-.1-1.6-.1-1.8-.1m-63.1 1-.5 1c-.3.5-.3.7-.2.9.1.1.5.3.9.5s.8.4.8.5-.9 2.3-2.2 4.9-2.2 4.8-2.2 4.9.5.4.9.6c.5.2 1 .4 1.1.4.2 0 .4-.3 1-1.4.4-.8 1.4-2.8 2.2-4.5s1.5-3.2 1.6-3.4.2-.3.4-.3.6.2 1.1.4.9.4 1 .4.3-.5.6-1c.2-.5.4-1 .4-1.1s-1.1-.7-2.4-1.3-2.7-1.3-3.2-1.5c-.4-.2-.9-.4-1-.4-.1.1-.2.3-.3.4m9.9 3.6c0 .1-.4 1.1-.8 2.2-.4 1.2-1.2 3.4-1.7 4.9s-1.1 3.2-1.3 3.7-.3 1-.4 1.2 0 .4.1.6c.1.1 1 .5 2.3 1 1.8.6 2.3.7 3.1.7.5 0 1.1-.1 1.4-.2.2-.1.7-.4 1.1-.6.4-.3.8-.8 1-1.3.2-.4.4-1.1.5-1.4s0-.8 0-1.1c0-.2-.3-.8-.6-1.3s-.5-.8-.5-.9.1-.1.3-.2.5-.3.8-.6.6-.8.8-1.2c.1-.4.3-.9.3-1.1s-.1-.7-.2-1.1-.4-.9-.6-1.2-.8-.7-1.3-.9-1.5-.7-2.3-1-1.5-.5-1.6-.5-.3.2-.4.3m33.7 1.9c-.4.1-.7.2-.8.3 0 .1.1.8.2 1.5.1.8.3 2 .4 2.7s.3 1.8.4 2.5c.1.6.3 1.6.4 2.3.1.6.3 1.8.5 2.7.2.8.3 1.5.3 1.6 0 0 1.3-.2 2.9-.5s3-.6 3.1-.6c.2-.1.2-.3 0-1.1-.1-.7-.2-1-.4-1.1-.1-.1-.4-.1-.7 0s-1 .2-1.6.3-1.1.1-1.2 0-.2-.6-.3-1.2-.4-2-.5-3.1c-.2-1.1-.4-2.5-.5-3.1s-.3-1.5-.3-2c-.1-.5-.2-1-.3-1.1s-.3-.2-.5-.1c-.2-.1-.7-.1-1.1 0m-20.1.7c-.1.1-.7 1.4-1.5 2.9s-2.1 4.2-3 6-1.7 3.4-1.7 3.6c-.1.2-.1.3.1.4.1.1.7.2 1.3.2l1 .1c1.2-2.4 1.4-2.7 1.6-2.7s1.4.1 2.7.2 2.4.3 2.5.4.3.7.5 1.3c.2.7.4 1.3.5 1.4s.6.2 1.2.2c.9.1 1.1.1 1.2-.1.1-.1-.3-1.5-.8-3.5-.5-1.8-1.2-4.3-1.5-5.4-.3-1.2-.8-2.7-.9-3.3-.2-.7-.4-1.3-.5-1.4s-.3-.2-.6-.2-.8-.1-1.2-.1c-.5-.2-.9-.1-.9 0" class="st2"/><path d="M141.6 195.4c-.1.1-.3.6-.5 1.2s-.4 1.1-.4 1.2q0 .15.3.3c.2.1.6.2.9.2q.6 0 .9-.3c.2-.2.4-.4.4-.7v-.8c0-.2-.3-.5-.6-.7s-.6-.4-.8-.4c.1-.1-.1-.1-.2 0" class="st1"/><path d="M163.3 195.5c-.3.2-.3.2 0 5 .2 2.7.3 5.6.4 6.4 0 .9.1 1.7.2 1.8.1.2.5.2 3 0 1.9-.1 3-.2 3.1-.3s.2-.5.2-1-.1-1-.1-1.1c-.1-.2-.4-.2-1.9-.2h-1.8c-.1-1.1-.3-3.4-.4-5.9-.1-2.4-.2-4.6-.3-4.8 0-.3-.1-.3-1.1-.3-.7.2-1.2.2-1.3.4" class="st2"/><path d="M153.3 200.7c-.5 1.1-.9 2-.8 2.1s.7.2 1.5.2c.8.1 1.5.1 1.6 0s.2-.2.1-.4c0-.2-.3-1.1-.5-1.9-.3-.9-.5-1.7-.6-1.8 0-.1-.1-.2-.2-.2s-.5.9-1.1 2m-13.5-.3c0 .1-.2.7-.5 1.4-.2.7-.4 1.3-.4 1.4 0 .2.2.3.5.4s.9.2 1.3.3c.7.1.8.1 1.2-.3.4-.3.5-.5.5-1.1.1-.6 0-.7-.3-1.1-.2-.2-.7-.6-1.1-.8s-.8-.4-1-.4c0 0-.2.1-.2.2" class="st1"/></svg>