<svg xmlns="http://www.w3.org/2000/svg" viewBox="1.78 0 310.62 319.02"><path d="M371.793 284.362c-29.135 0-56.055-7.475-87.404-16.057-31.822 9.07-58.269 16.057-87.404 16.057v106.165c0 76.769 58.27 78.479 87.404 106.392 29.135-27.913 87.404-29.623 87.404-106.392z" class="st20" style="clip-rule:evenodd;fill:#fff;fill-opacity:1;fill-rule:evenodd;stroke:none;stroke-width:2.84887;stroke-miterlimit:10" transform="translate(-125.763 -223.357)"/><path d="M371.793 284.362c-29.135 0-56.055-7.475-87.404-16.057-31.822 9.07-58.269 16.057-87.404 16.057v106.165c0 76.769 58.27 78.479 87.404 106.392 29.135-27.913 87.404-29.623 87.404-106.392z" class="st0" style="clip-rule:evenodd;fill:none;fill-rule:evenodd;stroke:#fff;stroke-width:2.84887;stroke-miterlimit:10" transform="translate(-125.763 -223.357)"/><path d="M371.793 284.362c-29.135 0-56.055-7.475-87.404-16.057-31.822 9.07-58.269 16.057-87.404 16.057v106.165c0 76.769 58.27 78.479 87.404 106.392 29.135-27.913 87.404-29.623 87.404-106.392z" class="st1" style="clip-rule:evenodd;fill:none;fill-rule:evenodd;stroke:#1d1d1b;stroke-width:2.84887;stroke-miterlimit:10" transform="translate(-125.763 -223.357)"/><path d="M284.21 496.528c29.134-27.913 87.404-29.623 87.404-106.392V283.97c-29.135 0-56.055-7.475-87.404-16.057" class="st2" style="clip-rule:evenodd;fill:none;fill-rule:evenodd;stroke-width:.162854" transform="translate(-125.763 -223.357)"/><path d="M371.597 283.971c-29.134 0-56.054-7.475-87.403-16.057-31.822 9.07-58.27 16.057-87.404 16.057v24.494c0 30.632 58.27-18.387 87.404 9.527 29.134-27.914 87.403 21.105 87.403-9.527z" class="st3" style="clip-rule:evenodd;fill:none;fill-rule:evenodd;stroke:#c51819;stroke-width:2.27909" transform="translate(-125.763 -223.357)"/><path d="m543.3 458.1-36.6 9.3-3.2-12.5 87.6-22.3 3.2 12.5-36.6 9.3 21.5 84.4-14.4 3.7zm64.5-28.3 13.9-2 5.4 38.1h.3c5.4-11.1 16-16 26.5-17.5 17.5-2.5 31.5 3.1 34.1 21.3l7 49.5-13.9 2-6.6-46.7c-1.5-10.7-8.9-15.8-23.9-13.7-12.6 1.8-22.8 10.7-20.8 25l5.9 41.8-13.9 2zm111.7 54.3c2.5 15.1 16.5 21.9 29 20.8 7.9-.7 18.5-4.2 22.4-15.1l14.8-1.3c-5.6 18.1-21 26.7-35.5 28-28.4 2.5-44-14.2-45.8-35.3-1.9-21.1 10.5-40.3 38.9-42.8 19.2-1.7 40.6 7.6 43.3 37.9l.2 1.8zm51.4-15.5c-3.4-13-14.2-19.5-27.3-18.4-12.8 1.1-23.6 9.8-24.7 23zm93.6-41.7h-.3l2.5 79.4-14.8.5-3.1-99.9 17.2-.5 66.7 77.4h.3l-2.5-79.4 14.8-.5 3.1 99.9-17.2.5zm142.4 1c28.5.1 42.5 18.2 42.4 39.3s-14.1 39.2-42.6 39.1-42.5-18.2-42.4-39.3c.1-21.2 14.1-39.2 42.6-39.1m0 11.7c-20.3 0-27.7 14.1-27.8 27.4 0 13.3 7.4 27.4 27.6 27.5 20.3 0 27.7-14.1 27.8-27.4s-7.3-27.4-27.6-27.5m168.5 21.6c.5-13.4-7.9-17.8-17-18.1-12.7-.5-24.3 5.1-24.8 18.8l-1.7 44.3-14-.5 1.7-46.6c.5-13.4-7.9-17.8-17-18.1-12.7-.5-24.3 6.5-24.9 20.9l-1.6 42.2-14-.5 2.7-73.3 14 .5-.4 11h.3c7.2-10 18.5-12.9 29.2-12.5 9.5.4 18.7 4.6 24.4 14.5 7-8.1 16.2-13 30.2-12.5 7.4.3 27.7 4.5 26.9 26.9l-1.9 49.9-14-.5zm32.2-1.8c3.3-18.1 16.4-24.2 38.3-22.5 14.9 1.2 33.3 6.3 31.9 23.5l-3.2 39.3c-.3 4.2 1.6 6.4 5.8 6.8 1.5.1 3.4.1 4.9-.2l-.8 9.8c-3.4.3-7.6.2-10.9 0-7.1-.6-11.4-2.9-11.7-11.2-6.3 7.1-20.2 10.3-32.1 9.4-24.1-1.9-28.7-14.9-27.9-24.4 1.1-13.5 9.6-19.4 33.2-20.2l16-.4c7.9-.1 12.9-1.2 13.4-7.8.8-10-8.8-12.8-20.1-13.7-11.9-1-22.4 1.6-23.8 12.7zm55.8 16.6c-2.3 2.2-6.1 2.9-14 3.2l-15.9.7c-11.1.6-16.9 2.8-17.6 10.7-.6 6.8 5.9 12.1 16.1 12.9 15.8 1.3 29.7-5.9 30.7-18.2zm94.9 40.1h-.3c-6.4 6.9-18.5 9.6-29.2 8.2-21.8-2.8-37.7-19.2-34.6-43.6 3.2-24.4 22.8-36.1 44.6-33.3 10.7 1.4 21.5 6.9 26.1 15.4h.3l4.9-37.3 13.9 1.8-13 99.9-13.9-1.8zm-26.1-3.3c18.9 2.5 28.6-9.4 30.4-23.3 2.2-16.7-7.3-28.2-23.4-30.3-16.2-2.1-27.9 6.5-30.1 23.3-1.8 14 4.4 27.9 23.1 30.3m68.2-3.7c-1.4 6.4 2 15.5 19.4 19.3 17.5 3.8 23.2-1.3 24.3-6.4s-.8-8.6-11.4-12.5l-21.9-8c-10.1-3.8-17.7-12.1-15.2-23.3 3.2-14.6 17.5-20.4 37.7-15.9 23.4 5.1 31.7 17.6 29.7 31.7l-13.7-3c1.2-7.3-4.3-15-18.5-18.1-8.7-1.9-19.4-1.5-21.3 6.8-1.1 4.8.5 8.1 9.9 11.5l18.8 6.9c17.5 6.6 23 14.5 20.8 24.5-3.7 16.7-19.5 21.4-41.3 16.6-16.4-3.6-34.2-12-31.1-33.1z" class="st4" style="fill:#c51a19" transform="translate(-4.797 -4.071)scale(.16285)"/><path d="M371.597 283.971c-29.134 0-56.054-7.475-87.403-16.057-31.822 9.07-58.27 16.057-87.404 16.057v106.165c0 76.77 58.27 78.48 87.404 106.392 29.134-27.913 87.403-29.623 87.403-106.392z" class="st2" style="clip-rule:evenodd;fill:none;fill-rule:evenodd;stroke-width:.162854" transform="translate(-125.763 -223.357)"/><path d="M329.76 388.703s-9.82 40.094-45.81 40.094-43.385-40.094-43.385-40.094" style="fill:none;stroke:#c51819;stroke-width:1.59993" transform="translate(-125.763 -223.357)"/><path d="m1224.8 1168.2 33.9 48.8-112.5 84-47-14.4z" style="fill:none;stroke:#c51819;stroke-width:9.8243" transform="translate(-4.797 -4.071)scale(.16285)"/><path d="m900.3 717.5 99.7-2.9 7.5-39.9-121 5.3 6 8.7-177.3 12.1-14.3.5 14.2 2.6 39.7 13.3-41 14.9-11.4 3 11.1-.4 181.5-8.8z" style="fill:none;stroke:#c51819;stroke-width:6.5495" transform="translate(-4.797 -4.071)scale(.16285)"/><path d="M281.946 396.959h4.56v3.55h-4.56z" style="fill:#c51819;stroke-width:.162854" transform="translate(-125.763 -223.357)"/><path d="M275.611 407.056v-10.097m17.051 10.39v-10.927" style="fill:none;stroke:#c51819;stroke-width:2.66654" transform="translate(-125.763 -223.357)"/><path d="M284.454 407.349v-78.967" class="st10" style="fill:none;stroke:#c51819;stroke-width:2.66654" transform="translate(-125.763 -223.357)"/><path d="M326.063 389.094s-6.123 34.378-42.114 34.378-40.339-34.59-40.339-34.59" style="fill:none;stroke:#c51819;stroke-width:1.59993" transform="translate(-125.763 -223.357)"/><path d="m262.062 349.927 48.758-9.429" style="fill:none;stroke:#c51819;stroke-width:2.66654" transform="translate(-125.763 -223.357)"/><path d="M303.508 368.118c.13-10.667 5.667-26.268 5.667-26.268l-23.19 4.722c.016-.504-21.513 3.16-22.376 4.658-5.44 9.348-7.133 22.718-6.45 23.923.017.017.017.033.034.05-.864 4.298 3.24 20.535 7.051 22.668.75.424 19.69-.7 19.69-.7.146.83 22.782-.798 22.782-.798-2.508-10.357-3.468-19.542-3.208-28.255z" style="fill:none;stroke:#c51819;stroke-width:2.22191;stroke-miterlimit:10" transform="translate(-125.763 -223.357)"/><path d="m839.7 995.2 8.2 36.8-171.3-13.1v-36.8z" style="fill:none;stroke:#c51819;stroke-width:6.5495" transform="translate(-4.797 -4.071)scale(.16285)"/><path d="M320.005 389.273s-.065 18.19-36.056 18.19-34.85-18.353-34.85-18.353" style="fill:none;stroke:#c51819;stroke-width:1.59993" transform="translate(-125.763 -223.357)"/><path d="M322.823 389.094s-2.883 27.457-38.874 27.457-37.521-27.425-37.521-27.425" style="fill:none;stroke:#c51819;stroke-width:1.59993" transform="translate(-125.763 -223.357)"/><path d="m853.3 1050.8-5.4-18.8-171.3-13.1v18.8zM837 995.2v-18.9l-160.4-13.1v18.9z" style="fill:none;stroke:#c51819;stroke-width:6.5495" transform="translate(-4.797 -4.071)scale(.16285)"/><path d="M237.031 385.869c.863-.782.945-2.638.163-3.501l-.44-.489a2.09 2.09 0 0 0-2.964-.163c-.863.782-.944 2.638-.162 3.502l.798.26m9.005.391c.863-.782.945-2.1.163-2.964l-.44-.488a2.09 2.09 0 0 0-2.963-.163 2.09 2.09 0 0 0-.163 2.964l.44.488m9.363.7a2.09 2.09 0 0 0 .163-2.964l-.44-.488a2.09 2.09 0 0 0-2.963-.163 2.09 2.09 0 0 0-.163 2.964l.44.489m9.364.684a2.09 2.09 0 0 0 .162-2.964l-.44-.489a2.09 2.09 0 0 0-2.963-.163 2.09 2.09 0 0 0-.163 2.964l.44.489" style="fill:none;stroke:#c51819;stroke-width:1.06661" transform="translate(-125.763 -223.357)"/><path d="M1161.2 995.2v36.8l176.8-13.1v-36.8z" style="fill:none;stroke:#c51819;stroke-width:6.5495" transform="translate(-4.797 -4.071)scale(.16285)"/><path d="M1161.2 1050.8V1032l176.8-13.1v18.8zm0-55.6v-18.9l176.8-13.1v18.9z" style="fill:none;stroke:#c51819;stroke-width:6.5495" transform="translate(-4.797 -4.071)scale(.16285)"/><path d="M332.968 385.869c-.863-.782-.944-2.638-.162-3.501l.44-.489a2.09 2.09 0 0 1 2.963-.163c.863.782.945 2.638.163 3.502l-.798.26m-9.006.391a2.09 2.09 0 0 1-.163-2.964l.44-.488a2.09 2.09 0 0 1 2.964-.163c.863.781.945 2.1.163 2.964l-.44.488m-9.364.7a2.09 2.09 0 0 1-.163-2.964l.44-.488a2.09 2.09 0 0 1 2.964-.163c.863.782.944 2.1.163 2.964l-.44.489m-9.364.684a2.09 2.09 0 0 1-.163-2.964l.44-.489a2.09 2.09 0 0 1 2.964-.163c.863.782.944 2.101.163 2.964l-.44.489" style="fill:none;stroke:#c51819;stroke-width:1.06661" transform="translate(-125.763 -223.357)"/><path d="M269.977 409.532c0 1.775-1.385 3.208-3.095 3.208s-3.094-1.433-3.094-3.208 1.384-3.209 3.094-3.209 3.095 1.434 3.095 3.209zm10.666 2.133c0 1.775-1.384 3.208-3.094 3.208s-3.094-1.433-3.094-3.208 1.384-3.208 3.094-3.208 3.094 1.433 3.094 3.208zm12.801 0c0 1.775-1.385 3.208-3.094 3.208-1.71 0-3.095-1.433-3.095-3.208s1.385-3.208 3.095-3.208 3.094 1.433 3.094 3.208zm12.263-3.208c0 1.775-1.385 3.208-3.095 3.208s-3.094-1.433-3.094-3.208 1.384-3.208 3.094-3.208c1.71.016 3.095 1.449 3.095 3.208z" style="fill:none;stroke:#c51819;stroke-width:1.59993" transform="translate(-125.763 -223.357)"/><path d="M244.604 363.835h1.531v13.37h-1.531z" style="fill:#c51819;stroke:#c51819;stroke-width:.480907" transform="translate(-125.763 -223.357)"/><path d="M328.327 363.314h1.531v13.37h-1.531z" style="fill:#c51819;stroke:#c51819;stroke-width:.869037" transform="translate(-125.763 -223.357)"/><path d="M327.268 361.18h3.648v1.726h-3.648zm-83.723.522h3.648v1.726h-3.648z" style="fill:#c51819;stroke:#c51819;stroke-width:.480907" transform="translate(-125.763 -223.357)"/><path d="m328.376 373.02-11.628.96s-4.885-.08-1.352-8.907l13.322-1.792c0 .016-.196-.928-.342 9.739m-83.723.537-10.032-.097s-3.078-1.792-1.89-8.909l11.71-.732c.016 0 .342-.929.212 9.738" style="fill:#c51819;stroke-width:.162854" transform="translate(-125.763 -223.357)"/><path d="M197.018 436.777s25.373-18.484 54.8-6.27c0 0 7.622-6.156 34.02-5.618 0 0 23.19.537 40.111 5.553 0 0 30.242 13.208 46.235.7 0 0-12.931 57.928-88.544 65.093.016 0-69.62-4.055-86.622-59.458" style="fill:none;stroke-width:.162854" transform="translate(-125.763 -223.357)"/><path d="M213.74 427.19a53 53 0 0 0-10.641 1.125 73 73 0 0 0 3.403 7.353c7.654-1.26 17.314-.819 27.444 4.76 10.863 5.983 24.32 5.718 35.088 4.303 10.457-1.375 18.456-4.005 18.917-4.158.058-.016 9.345-2.614 20.713-3.894 11.405-1.285 24.727-.838 31.733 3.62 3.97 2.528 9.224 3.746 15.434 4.363a70 70 0 0 0 4.986-7.69c-7.692-.57-13.766-1.92-16.124-3.422l-.002-.001c-10.272-6.535-24.798-6.186-36.922-4.82s-22.003 4.149-22.003 4.149l-.095.027-.094.031s-7.634 2.555-17.585 3.863c-9.952 1.309-21.98 1.142-30.187-3.379-8.459-4.658-16.713-6.247-24.066-6.23zm1.567 21.355c3.009 3.505 6.273 6.64 9.713 9.5a43.6 43.6 0 0 1 8.926 3.716c10.863 5.984 24.32 5.719 35.088 4.303 10.457-1.374 18.456-4.004 18.917-4.157.058-.016 9.345-2.614 20.713-3.895 10.83-1.22 23.387-.877 30.625 2.977a94 94 0 0 0 6.634-5.474 9 9 0 0 1-1.23-.63v-.002h-.002c-10.272-6.535-24.798-6.186-36.922-4.82s-22.003 4.148-22.003 4.148l-.095.027-.094.032s-7.634 2.555-17.585 3.863-21.98 1.141-30.187-3.379c-7.863-4.33-15.549-6.007-22.498-6.209m105.546 22.042c-4.465-.009-8.917.34-13.084.81-12.124 1.366-22.003 4.148-22.003 4.148l-.096.027-.093.032s-7.634 2.555-17.586 3.863a84 84 0 0 1-7.466.647c3.95 2.213 7.8 4.458 11.451 6.852 8.979-1.43 15.559-3.587 15.975-3.725.058-.016 9.345-2.614 20.714-3.895l.266-.028c5.098-2.832 10.338-5.632 15.514-8.641a76 76 0 0 0-3.592-.09" style="color:#000;font-style:normal;font-variant:normal;font-weight:400;font-stretch:normal;font-size:medium;line-height:normal;font-family:sans-serif;font-variant-ligatures:normal;font-variant-position:normal;font-variant-caps:normal;font-variant-numeric:normal;font-variant-alternates:normal;font-variant-east-asian:normal;font-feature-settings:normal;font-variation-settings:normal;text-indent:0;text-align:start;text-decoration:none;text-decoration-line:none;text-decoration-style:solid;text-decoration-color:#000;letter-spacing:normal;word-spacing:normal;text-transform:none;writing-mode:lr-tb;direction:ltr;text-orientation:mixed;dominant-baseline:auto;baseline-shift:baseline;text-anchor:start;white-space:normal;shape-padding:0;shape-margin:0;inline-size:0;clip-rule:nonzero;display:inline;overflow:visible;visibility:visible;opacity:1;isolation:auto;mix-blend-mode:normal;color-interpolation:sRGB;color-interpolation-filters:linearRGB;solid-color:#000;solid-opacity:1;vector-effect:none;fill:#c51819;fill-opacity:1;fill-rule:nonzero;stroke:none;stroke-width:7.99964;stroke-linecap:butt;stroke-linejoin:miter;stroke-miterlimit:4;stroke-dasharray:none;stroke-dashoffset:0;stroke-opacity:1;color-rendering:auto;image-rendering:auto;shape-rendering:auto;text-rendering:auto;stop-color:#000;stop-opacity:1" transform="translate(-125.763 -223.357)"/><path d="M231.673 388.28c0 3.338 10.814 3.745 10.814 7.1m96.003-7.1c0 3.338-10.814 3.745-10.814 7.1m-96.524-14.999-7.784-1.629m115.724 2.15 7.784-1.612" style="fill:none;stroke:#c51819;stroke-width:1.59993" transform="translate(-125.763 -223.357)"/><path d="M281.409 327.046h5.781v1.726h-5.781zm-1.156 14.103h7.996v3.208h-7.996z" style="fill:#c51819;stroke:#c51819;stroke-width:.480907" transform="translate(-125.763 -223.357)"/><path d="M371.793 284.362c-29.135 0-56.055-7.475-87.404-16.057-31.822 9.07-58.269 16.057-87.404 16.057v106.165c0 76.769 58.27 78.479 87.404 106.392 29.135-27.913 87.404-29.623 87.404-106.392z" class="st20" style="clip-rule:evenodd;fill:none;fill-rule:evenodd;stroke:#c51819;stroke-width:2.84887;stroke-miterlimit:10" transform="translate(-125.763 -223.357)"/><path d="m257.16 375.153 46.511-5.244m-40.404-20.21 43.449 46.674" class="st10" style="fill:none;stroke:#c51819;stroke-width:2.66654" transform="translate(-125.763 -223.357)"/><path d="m734.7 25-38 88.2-95.6 9 72.1 63.4-21 93.7 82.6-48.9 82.6 48.9-21-93.7 72.1-63.5-95.7-8.9zm536.5 0-38 88.2-95.6 9 72.2 63.4-21.1 93.7 82.7-48.9 82.6 48.9-21.1-93.7 72.1-63.5-95.7-8.9z" class="st4" style="fill:#c51819" transform="translate(-4.797 -4.071)scale(.16285)"/><path d="m364.04 504.98-4.722-13.696-5.341-15.47c18.76-7.639 47.83-21.188 65.043-32.278-.407 7.067-.863 11.27-2.035 19.07l-.163 1.058 1.026.31c7.573 2.247 11.986 3.355 19.119 4.723-18.517 13.223-51.543 28.792-72.926 36.283" class="st21" style="fill:#c51a19;stroke:#c51a19;stroke-width:2.40675;stroke-miterlimit:10" transform="translate(-125.763 -223.357)"/><path d="M239.767 512.292s-1.075-.293-2.67-.732a133 133 0 0 1-5.863-1.71 129 129 0 0 1-5.814-1.857c-1.58-.537-2.639-.88-2.639-.88.62-.064.961-.178.961-.178s2.46-1.19 3.697-4.74" class="st22" style="fill:#2e2e2e;stroke-width:.162854" transform="translate(-125.763 -223.357)"/><path d="M201.676 504.98c-21.367-7.49-54.41-23.06-72.926-36.267 7.133-1.368 11.53-2.476 19.119-4.723l1.026-.31-.163-1.058c-1.173-7.8-1.629-12.002-2.036-19.07 17.214 11.09 46.283 24.64 65.044 32.277l-5.342 15.472-4.722 13.68" class="st21" style="fill:#c51a19;stroke:#c51a19;stroke-width:2.40675;stroke-miterlimit:10" transform="translate(-125.763 -223.357)"/><path d="M353.618 475.895c14.869 3.159 22.8 4.087 39.264 4.169 6.4 11.676 9.592 17.506 15.976 29.183-18.304.912-27.18.407-43.987-2.052-4.494-12.523-6.742-18.793-11.253-31.3m-141.927 0c-14.868 3.159-22.8 4.071-39.264 4.169a25822 25822 0 0 0-15.976 29.183c18.305.912 27.18.407 44.003-2.052 4.495-12.523 6.742-18.793 11.237-31.3" class="st23" style="fill:#c51a19;stroke-width:.162854" transform="translate(-125.763 -223.357)"/><path d="M172.916 481.269c73.789 35.486 145.95 35.486 219.738 0 6.4 11.676 9.592 17.507 15.976 29.183-83.511 40.958-168.179 40.958-251.69 0 6.384-11.676 9.575-17.523 15.976-29.183z" class="st21" style="fill:#c51a19;stroke:#c51a19;stroke-width:2.40675;stroke-miterlimit:10" transform="translate(-125.763 -223.357)"/><path d="M282.76 541.166v-1.237c-41.348 0-83.104-10.097-124.127-30.03l13.647-24.917 1.157-2.1c36.528 17.408 73.317 26.235 109.34 26.235s72.796-8.827 109.356-26.236l7.361 13.436 7.426 13.582c-41.006 19.917-82.762 30.013-124.127 30.03z" class="st23" style="fill:#c51a19;stroke-width:.162854" transform="translate(-125.763 -223.357)"/><path d="M568.5 1849.2c-6.2 18.1-14.6 21.7-35.1 14.9l-8.9-3c-16-5.3-21.5-15.1-16.6-30l19.3-58c5.9-17.6 15.6-22.6 32.2-17l8.9 3c19.8 6.8 25.4 13.8 21.3 26.6l-6.3 18.8-23-7.7 4.5-13.4c1-3.1-.5-5.1-4.5-6.5-4.3-1.4-6.8-.7-7.8 2.4l-19.7 59.2c-1 2.9.6 5 4.7 6.4 4.2 1.4 6.6.7 7.6-2.3l5.4-16.2 23 7.7zm31.4-56.5c4.3-15.5 14.7-19 37.3-12.8 22.6 6.3 29.7 14.7 25.4 30.2l-17.7 63.8c-4.3 15.5-14.7 19-37.4 12.7-22.6-6.3-29.5-14.6-25.2-30.1zm37.2 11.7c1-3.6-.2-5.3-4.9-6.6s-6.6-.6-7.6 3.1l-17 61.2c-1 3.8.2 5.3 5.1 6.6 4.5 1.3 6.5.4 7.5-3.2zM697 1821l-.3-.1-16.3 83-22.6-4.9 22.8-106 35.8 7.7.2 86.5.4-.2 16-82.7 22.7 4.9-22.8 106-35.8-7.7zm90.7 17.5h-.3l-10.7 83.9-22.8-3.3 15.6-107.3 36.2 5.3 6 86.3.4-.3 10.4-83.6 23 3.4-15.8 107.1-36.2-5.3zm83.5-13.4 40.7 3.3 7.9 109.4-25.4-2-1.2-26.2-16.2-1.3-5.3 25.7-25.4-2zm19.4 16.5h-.3l-9.7 48.3 12 1zm46.1-11.7 25 .5-.8 42.4 14.6.3.8-42.4 25 .5-2.1 108.4-25-.5.9-46.5-14.6-.3-.9 46.5-25-.5zm76.8.8 22.4-.5.6 25.8c.3 13.2-7.3 21-21.1 21.3l-.3-11.2c6.3-1.3 8.8-4 8.7-9.2 0-.2 0-.8-.2-1.9v-1.5l-9.6.2zm61 78.3c.6 8.9 1.7 10.3 8.1 9.9 5.5-.4 7.4-2.1 7-6.8l-.8-11.7c-.4-6.5-1.6-7.5-11.2-9.4-24.2-3.8-28-7.3-29.5-27.7l-.4-6.7c-1.5-22.5 3.7-28.1 28-29.7 23.2-1.5 31.2 3.2 32.2 19.1l.9 13-22.2 1.5-.3-5.2c-.6-9.2-1.5-10.3-7.3-9.9-6.3.4-7.5 2-7.1 8.3l.5 7.1c.4 6.7 2 8 9.9 9.3 27.2 4.9 30.3 8.1 32 32.4 1.7 26.1-4.3 33.2-29.3 34.8-25.5 1.7-32-3.3-33.5-25.7l-.6-8.9 23.2-1.5zm151 8.8c-4.8 3-10.9 5-20.9 6.5-23 3.5-32.9-1.2-35.3-17.1l-10-65.4c-2.4-15.9 5.6-23.4 28.8-26.9 23.1-3.5 33.1 1.2 35.5 17.1l10 65.4c.6 4.2.4 7.2-.2 10.4l6.4 6.6-6.8 11.2zm-27.4-80.7c-.6-3.7-2.4-4.7-7.2-4s-6.3 2.1-5.7 6l9.6 62.8c.6 3.9 2.4 4.7 7.3 4 4.7-.7 6.1-2.2 5.5-5.9l-.1-1-12.9-13.5 6.1-11 3.3 3.6h.3zm113.6 39.4c2.1 10.2 1.5 17.3-2.3 22.2-3.6 4.9-10.3 8-23.3 10.7-23.9 5-32.3.5-36.6-19.9l-17-80.8 24.5-5.2 17.2 81.4c1 4.6 3.5 6.2 8.1 5.3 4.5-.9 6.1-3.4 5.1-8.1l-17.2-81.4 24.5-5.2zm6.7-86.8 39.4-10.6 44.1 100.4-24.7 6.6-9.9-24.3-15.7 4.2 3.6 26-24.7 6.6zm23.8 9.1-.3.1 7 48.8 11.6-3.1zm73.7 39.4-44.1-62.9 23.5-7.5 24.6 43.3.2-.1-5.1-49.6 23.5-7.5.5 76.8 10.7 33.4-23.1 7.4z" class="st24" style="fill:#fff" transform="translate(-4.797 -4.071)scale(.16285)"/></svg>