<svg xmlns="http://www.w3.org/2000/svg" viewBox="26.26 183.89 733.62 733.61"><path d="M570.413 428.371c0-151.937-123.17-275.105-275.107-275.105S20.199 276.434 20.199 428.37s123.17 275.107 275.107 275.107 275.107-123.17 275.107-275.107" style="fill:#e5351e;fill-opacity:1;fill-rule:nonzero;stroke:none" transform="matrix(1.33333 0 0 -1.33333 -.667 1121.853)"/><path d="M484.717 428.371c0-104.608-84.802-189.41-189.411-189.41s-189.411 84.802-189.411 189.41 84.802 189.411 189.41 189.411c104.61 0 189.412-84.803 189.412-189.41M81.248 557.41c-1.494-3.692-1.31-5.488 1.513-7.218 1.913-1.142 4.768-2.968 10.466-5.64l25.705-12.055-1.501-3.202-45.255-12.62-.094-.2 14.568-6.832c5.698-2.672 8.703-3.675 10.74-4.386 3.005-1.003 4.766-.446 7.275 4.398l2.267-1.063-7.663-16.339-2.267 1.064c1.493 3.855 1.177 5.875-1.483 7.448-2.011 1.268-4.672 3.005-10.37 5.677l-13.532 6.346c-4.209 1.974-5.502 2.418-7.585 1.849-2.117-.472-3.354-1.763-4.927-4.443l-2.266 1.063 5.786 12.338 40.372 12.144.125.267-11.396 5.345c-5.698 2.671-8.929 3.698-10.869 4.446-2.94.972-4.698.088-7.24-4.66l-2.266 1.064 7.631 16.272z" style="fill:#fff;fill-opacity:1;fill-rule:nonzero;stroke:none" transform="matrix(1.33333 0 0 -1.33333 -.667 1121.853)"/><path d="M137.892 578.338c2.255-2.338 6.414-7.577 7.735-9.367L122.4 539.448l-1.967 1.548c3.478 5.23 3.596 6.074-1.182 9.833l-21.582 16.98c-4.89 3.848-5.626 3.49-9.197-.355l-1.967 1.548 21.453 27.265c1.057-.738 5.219-3.544 8.886-6.054l-1.359-2.305c-2.422.969-4.87 1.675-6.7 1.429-1.787-.188-3.41-1.441-5.96-4.683l-2.186-2.779c-1.686-2.142-1.756-2.46.099-3.92l11.915-9.375 3.052 3.879c3.826 4.862 4.137 5.835.84 9.741l1.64 2.084 11.353-8.932-1.64-2.084c-4.684 2.373-5.456 1.856-9.327-3.065l-3.051-3.878 9.723-7.65c2.641-2.079 4.228-2.953 5.701-2.237 1.27.688 2.931 2.568 4.661 4.767 2.324 2.952 3.57 5.346 3.258 7.84-.371 2.074-1.35 4.53-2.958 7.576zm35.726 69.648c-3.402-3.56-3.84-5.058-1.801-11.048 1.41-4.672 5.453-17.217 12.601-36.918l-3.054-2.311c-9.601 6.097-18.885 11.896-28.733 18.075l-.117-.088c3.461-10.923 6.895-21.687 10.347-31.988l-3.112-2.355c-10.94 7.865-21.126 15.224-32.053 22.83-4.776 3.38-6.378 3.423-10.232 1.314l-1.51 1.996 17.386 13.155 1.51-1.995c-4.075-3.891-3.53-4.734-.507-7.02 6.987-5.206 13.99-10.31 20.836-15.085l.117.089c-3.367 10.187-6.945 21.02-10.83 31.892l2.82 2.133a4698 4698 0 0 1 29.328-18.253l.118.089c-3.017 8.748-7.34 19.466-9.02 23.396-1.767 4.044-2.795 4.792-7.898 1.648l-1.51 1.996 13.803 10.444zm53.656 10.167c-2.161 3.152-3.973 4.983-5.673 5.708-1.63.75-3.572.462-7.559-1.074l-3.162-1.219 12.166-31.563c2.186-5.671 3.028-5.807 9.256-3.943l.9-2.335-22.406-8.636-.9 2.335c5.593 2.693 6.126 3.358 3.94 9.03l-12.165 31.563-2.337-.901c-5.636-2.172-6.59-3.383-7.209-4.848-.663-1.559-.682-4.172-.29-7.853l-2.473-.953c-1.603 4.977-3.069 10.007-4.242 13.463l1.649.636c1.691-1.11 2.637-.9 4.561-.158l27.629 10.649c1.856.715 2.664 1.486 3.343 3.205l1.65.635c1.15-2.776 3.756-8.516 5.746-12.654zm63.704-.144c1.96-15.322-8.174-26.065-21.91-27.822-14.613-1.87-26.103 7.257-27.846 20.877-1.562 12.2 5.818 25.33 22.549 27.47 13.297 1.703 25.41-6.48 27.207-20.525m-38.75-4.167c1.552-12.13 8.421-21.705 17.773-20.508 6.941.889 11.723 8.206 10.052 21.258-1.806 14.116-8.814 21.87-17.216 20.795-7.38-.944-12.18-9.273-10.609-21.545m116.45 14.677c-4.925-.03-6.304-.756-9.194-6.386-2.378-4.261-8.585-15.889-17.778-34.723l-3.785.589c-2.291 11.14-4.576 21.846-6.98 33.221l-.146.022c-5.444-10.08-10.795-20.032-15.8-29.675l-3.857.6c-1.951 13.331-3.742 25.769-5.871 38.91-.89 5.784-1.973 6.966-6.168 8.27l.384 2.474 21.544-3.353-.384-2.473c-5.631.225-5.858-.754-5.4-4.516 1.115-8.641 2.314-17.223 3.641-25.463l.146-.023c4.982 9.502 10.282 19.606 15.396 29.955l3.493-.543a4689 4689 0 0 1 7.268-33.772l.146-.023c4.19 8.25 8.89 18.81 10.547 22.749 1.68 4.081 1.502 5.34-4.305 6.822l.384 2.473 17.104-2.662zm55.252-25.839c-3.697 1.487-5.491 1.299-7.216-1.527-1.137-1.916-2.96-4.775-5.62-10.478l-12.005-25.728-3.204 1.496-12.709 45.23-.2.093-6.804-14.582c-2.661-5.703-3.658-8.71-4.364-10.747-.997-3.008-.437-4.769 4.411-7.268l-1.058-2.268-16.353 7.63 1.058 2.269c3.86-1.485 5.878-1.164 7.446 1.498 1.265 2.014 2.996 4.678 5.656 10.381l6.32 13.545c1.966 4.212 2.407 5.506 1.834 7.588-.476 2.116-1.77 3.35-4.452 4.918l1.059 2.268 12.349-5.762L402.3 620.89l.267-.125 5.322 11.406c2.66 5.704 3.682 8.936 4.424 10.878.967 2.942.08 4.698-4.672 7.23l1.059 2.27 16.286-7.6zm10.675-64.46 1.673 1.862c3.663-2.426 4.51-2.033 5.737 1.095.886 2.088 2.072 5.06 3.21 7.98l-10.52 9.452c-2.085-1.108-4.517-2.383-7.087-3.92-3.06-1.864-3.62-2.707-.051-6.78l-1.673-1.862-12.273 11.028 1.727 1.812c3.999-2.824 5.182-2.828 11.005.015l35.8 17.25 3.415-1.818c-4.858-12.46-9.777-24.768-14.436-37.117-2.343-6.356-2.253-7.687.816-11.215l-1.672-1.861zm18.38 29.824-.164.148c-5.024-2.505-9.835-5.105-14.653-7.602l8.548-7.68zm44.879-50.557c1.711 2.262 2.86 4.202 3.214 6.015.354 2.178-.42 4.078-2.86 7.402l-2.18 2.97c-1.526 2.078-1.815 2.23-3.718.834l-12.74-9.352 3.53-4.81c3.923-5.344 4.834-5.497 9.047-3.502l1.57-2.137-11.473-8.422-1.57 2.138c3.441 3.53 3.466 4.463-.456 9.807l-3.531 4.81-9.108-6.687c-5.42-3.978-5.416-4.707-2.027-10.169l-2.019-1.48-13.6 18.525 2.019 1.481c3.585-4.038 4.367-4.378 9.786-.4l21.273 15.615c5.188 3.809 5.156 4.699 2.32 9.288l2.075 1.523 20.66-28.144c-.936-.78-5.157-4.335-8.283-7.086zm4.626-61.047c-3.522-.55-9.262-1.057-12.059-.955-1.184 1.566-5.291 7.142-7.366 11.701-8.114 17.834-.239 30.4 10.111 35.108 13.345 6.072 27.472-.287 34.762-16.31 2.472-5.43 3.362-11.014 3.795-13.002-3.306-2.232-6.087-4.065-9.974-6.399l-1.585 2.273c6.74 5.737 6.67 11.936 4.321 17.099-4.423 9.72-15.781 11.027-25.35 6.673-11.977-5.448-16.833-15.67-12.685-24.788 2.532-5.564 7.873-8.152 16.003-8.58z" style="fill:#fff;fill-opacity:1;fill-rule:nonzero;stroke:none" transform="matrix(1.33333 0 0 -1.33333 -.667 1121.853)"/><path d="M480.15 428.371c0-102.086-82.757-184.843-184.844-184.843S110.46 326.285 110.46 428.37c0 102.087 82.758 184.844 184.845 184.844S480.15 530.458 480.15 428.371" style="fill:#e5351e;fill-opacity:1;fill-rule:nonzero;stroke:none" transform="matrix(1.33333 0 0 -1.33333 -.667 1121.853)"/><path d="M295.306 250.064c2.879 0 29.328 18.347 50.822 30.802 50.21 29.095 68.366 68.15 71.447 92.539 3.278 25.955-4.42 47.809-10.446 65.888s-9.642 36.292-3.214 60.666 23.971 40.711 23.971 40.711l-57.317 49.016c-12.053-9.375-30.534-12.724-48.748-10.714-18.213 2.008-25.043 8.437-26.515 8.303-1.473.134-8.303-6.295-26.516-8.303-18.213-2.01-36.694 1.339-48.748 10.714l-57.316-49.016s17.543-16.338 23.97-40.711c6.429-24.374 2.813-42.587-3.213-60.666-6.027-18.08-13.724-39.933-10.446-65.888 3.08-24.39 21.235-63.444 71.446-92.54 21.495-12.454 47.944-30.8 50.823-30.8" style="fill:#fff;fill-opacity:1;fill-rule:nonzero;stroke:none" transform="matrix(1.33333 0 0 -1.33333 -.667 1121.853)"/><path d="m369.558 575.484 42.037-35.948c-6.335-8.063-14.574-20.818-18.752-36.657-2.687-10.187-3.774-19.435-3.774-27.966 0-14.865 3.301-27.553 7.197-39.24l.589-1.764c4.761-14.253 10.052-30.09 10.052-47.992a88 88 0 0 0-.692-11.078c-.913-7.231-4.227-21.977-16.154-39.495-11.781-17.302-28.494-32.299-49.674-44.57-9.891-5.733-20.506-12.492-29.87-18.457-5.216-3.32-11.329-7.213-15.211-9.52-3.883 2.307-9.995 6.2-15.21 9.52-9.366 5.965-19.98 12.724-29.872 18.456-21.18 12.272-37.892 27.269-49.673 44.571-11.928 17.518-15.24 32.264-16.154 39.495a88 88 0 0 0-.692 11.078c0 17.902 5.29 33.739 10.052 47.992l.588 1.763c3.896 11.688 7.197 24.376 7.197 39.24 0 8.532-1.087 17.78-3.774 27.967-4.177 15.84-12.417 28.594-18.751 36.657l42.037 35.948c13.273-7.059 30.581-9.924 48.991-7.894 12.392 1.368 20.506 4.627 25.26 6.964 4.756-2.337 12.87-5.596 25.261-6.964 18.41-2.03 35.719.835 48.992 7.894" style="fill:#e5351e;fill-opacity:1;fill-rule:nonzero;stroke:none" transform="matrix(1.33333 0 0 -1.33333 -.667 1121.853)"/><path d="M247.324 186.453v1.72c4.12.254 4.589 1.013 4.589 4.608v18.375c0 2.632-.209 2.987-2.347 3.138l-2.659.203v1.468c3.441.506 7.3 1.417 11.888 2.633V192.78c0-3.494.365-4.354 4.536-4.608v-1.72zm43.85 24.297c0-1.365-.521-2.63-1.72-3.745-.834-.71-1.773-1.519-3.807-2.784 3.65-1.924 6.935-4.303 6.935-8.758 0-6.429-6.57-9.617-11.627-9.617-6.831 0-11.315 3.39-11.315 8.554 0 2.38 1.251 3.594 2.19 4.454.939.81 3.285 2.229 4.85 3.089-3.025 1.62-5.736 4.1-5.736 7.847 0 4.808 4.38 8.808 10.637 8.808 5.735 0 9.593-3.342 9.593-7.848m-4.901-17.362c-.104 3.645-2.607 4.961-7.665 7.593-1.512-1.114-2.711-3.341-2.711-5.974 0-4.91 3.024-7.137 5.527-7.137 2.972 0 4.901 2.177 4.849 5.518m-9.333 18.73c0-3.443 2.711-5.113 6.726-6.936.887.81 1.93 2.38 1.93 5.316 0 4.354-2.66 6.074-4.745 6.074-2.503 0-3.911-2.328-3.911-4.454m42.286 5.264c-4.954-10.174-10.22-20.552-14.964-30.929l-5.371-.607-.417.657c6.152 8.859 11.367 17.768 15.85 26.02H303.22c-3.546 0-3.963-.355-5.423-3.34h-1.825c.73 3.946 1.043 6.63 1.408 8.808h21.377zm7.195-12.656c2.555.962 5.37 1.671 6.726 1.671 6.674 0 10.428-4.15 10.428-8.504 0-3.138-1.616-6.126-5.266-8.606-2.92-2.076-6.622-3.391-9.75-3.441-2.086 0-4.276.708-5.423 1.619-1.042.81-1.251 1.316-1.251 2.076 0 .759.73 1.923 1.669 2.581.625.405 1.199.253 1.877-.304 1.251-1.113 3.754-3.088 6.726-3.088 3.233 0 4.796 2.785 4.796 6.53 0 4.506-2.971 7.493-7.716 7.493-2.399 0-4.59-.608-5.683-.962l2.345 16.2h16.53l.312-.508-1.668-4.96h-13.244ZM72.168 453.1c-6.87-.844-11.45-3.294-11.45-3.294-2.852 1.486-7.352 2.21-7.352 2.21.161 1.887.346 2.677.346 2.677a26.3 26.3 0 0 0 12.657 3.22c2.325 0 4.58-.3 6.728-.864 0 0-.366-1.216-.607-2.382a291 291 0 0 1-.322-1.567m10.607-8.196c-4.379 5.143-9.441 7.674-9.441 7.674.321 1.968 1.13 4.072 1.13 4.072a26.5 26.5 0 0 0 12.598-8.708s.012-1.47-.109-2.676c0 0-.642-.04-1.969-.16zm-40.696-23.939a26.4 26.4 0 0 0-2.163 10.494 26.4 26.4 0 0 0 1.643 9.2s.558.63 2.446 1.112c0 0 1.165-4.018 3.415-7.071 0 0-1.607-6.147-1.567-11.973 0 0-.763-.522-1.928-1.084s-1.846-.678-1.846-.678m44.593 3.048c-1.245 4.258-4.46 8.677-4.46 8.677 1.286 4.099 1.366 11.17 1.366 11.17 1.608.08 3.496.16 3.496.16 4.42-4.78 5.675-10.566 5.675-10.566a27 27 0 0 0 .074-1.995 26.5 26.5 0 0 0-.701-6.077s-.581-.488-2.919-1.048c-1.848-.442-2.531-.321-2.531-.321m-29.73-14.503-.08 3.254c6.95 1.808 11.048 3.896 11.048 3.896 3.897-3.053 9.602-4.298 9.602-4.298-.16-2.973-.756-5.24-.756-5.24a26.3 26.3 0 0 0-8.846-2.073s-3.013.804-6.067 2.09c-3.053 1.285-4.901 2.37-4.901 2.37m-1.245-.442c-.08 1.768-.121 4.58-.121 4.58-5.826 4.139-8.839 8.196-8.839 8.196-1.205-.723-4.129-2.025-4.129-2.025a26.6 26.6 0 0 1 10.089-11.01s.95-.022 1.714.058c.96.102 1.286.2 1.286.2m3.036-2.942c-1.45.436-2.848.994-4.182 1.662l1.748.075s.482-.481 1.125-.923c.79-.543 1.31-.814 1.31-.814m32.634 16.659a26.54 26.54 0 0 0-12.333-14.554s.405 2.204.526 4.776c0 0 4.098 3.495 6.87 8.718 0 0 1.326.08 3.093.522 1.21.302 1.844.538 1.844.538m-48.37 21.078a26.6 26.6 0 0 0 8.375 9.393s-.056-1.158-.056-1.72c0 0-2.37-1.608-4.258-3.818-1.889-2.209-2.853-3.857-2.853-3.857zm18.564 4.016s-1.567-4.459-2.09-9c0 0 5.947-5.343 10.246-8.797 0 0 5.745.963 10.647 3.092 0 0 1.084 4.902 1.245 11.45 0 0-3.455 4.018-8.437 6.75 0 0-2.893-.4-6.107-1.365s-5.504-2.13-5.504-2.13m-1.205.603s-3.093 2.09-8.076 2.29c0 0-3.937-2.41-7.352-8.035 0 0 .924-4.058 3.817-7.633 0 0 5.263 2.33 9.361 3.374 0 0 .241 1.526 1.085 5.263.67 2.967 1.165 4.741 1.165 4.741m-11.049-14.544c3.777 1.929 8.839 3.335 8.839 3.335s5.906-5.223 10.084-8.678c0 0-.522-7.112-1.125-9.964 0 0-3.776-2.05-11.008-3.898 0 0-5.183 3.536-8.115 7.474 0 0 0 3.817.401 6.95.402 3.134.924 4.781.924 4.781m31.779-1.848s-4.982-1.808-11.49-3.375c0 0-.763-7.915-1.366-10.767 0 0 4.098-3.897 10.084-4.339 0 0 5.063 4.018 7.393 9.643 0 0-.522 1.968-1.808 4.58-1.286 2.61-2.813 4.258-2.813 4.258M530.042 453.1c-6.87-.844-11.451-3.294-11.451-3.294-2.852 1.486-7.352 2.21-7.352 2.21.16 1.887.345 2.677.345 2.677a26.3 26.3 0 0 0 12.658 3.22c2.325 0 4.58-.3 6.728-.864 0 0-.366-1.216-.607-2.382zm10.607-8.196c-4.38 5.143-9.441 7.674-9.441 7.674.32 1.968 1.13 4.072 1.13 4.072a26.5 26.5 0 0 0 12.597-8.708s.012-1.47-.108-2.676c0 0-.643-.04-1.968-.16zm-40.697-23.939a26.4 26.4 0 0 0-2.162 10.494 26.4 26.4 0 0 0 1.643 9.2s.558.63 2.446 1.112c0 0 1.165-4.018 3.415-7.071 0 0-1.607-6.147-1.567-11.973 0 0-.764-.522-1.929-1.084s-1.846-.678-1.846-.678m44.594 3.048c-1.246 4.258-4.46 8.677-4.46 8.677 1.286 4.099 1.367 11.17 1.367 11.17 1.606.08 3.494.16 3.494.16 4.42-4.78 5.676-10.566 5.676-10.566a26.7 26.7 0 0 0-.627-8.072s-.581-.488-2.92-1.048c-1.847-.442-2.53-.321-2.53-.321m-29.73-14.503-.08 3.254c6.95 1.808 11.048 3.896 11.048 3.896 3.897-3.053 9.602-4.298 9.602-4.298-.16-2.973-.757-5.24-.757-5.24a26.3 26.3 0 0 0-8.845-2.073s-3.014.804-6.067 2.09-4.901 2.37-4.901 2.37m-1.245-.442c-.08 1.768-.122 4.58-.122 4.58-5.825 4.139-8.839 8.196-8.839 8.196-1.205-.723-4.128-2.025-4.128-2.025a26.6 26.6 0 0 1 10.088-11.01s.952-.022 1.715.058c.96.102 1.285.2 1.285.2m3.037-2.942a26 26 0 0 0-4.182 1.662l1.747.075s.483-.481 1.125-.923c.79-.543 1.31-.814 1.31-.814m32.634 16.659a26.54 26.54 0 0 0-12.332-14.554s.405 2.204.526 4.776c0 0 4.098 3.495 6.87 8.718 0 0 1.326.08 3.093.522 1.21.302 1.844.538 1.844.538m-48.371 21.078a26.6 26.6 0 0 0 8.376 9.393s-.056-1.158-.056-1.72c0 0-2.37-1.608-4.258-3.818-1.89-2.209-2.853-3.857-2.853-3.857zm18.565 4.016s-1.567-4.459-2.09-9c0 0 5.946-5.343 10.245-8.797 0 0 5.746.963 10.647 3.092 0 0 1.085 4.902 1.246 11.45 0 0-3.456 4.018-8.437 6.75 0 0-2.893-.4-6.107-1.365s-5.504-2.13-5.504-2.13m-1.206.603s-3.093 2.09-8.075 2.29c0 0-3.937-2.41-7.352-8.035 0 0 .924-4.058 3.817-7.633 0 0 5.263 2.33 9.361 3.374 0 0 .241 1.526 1.084 5.263.67 2.967 1.165 4.741 1.165 4.741m-11.049-14.544c3.778 1.929 8.84 3.335 8.84 3.335s5.906-5.223 10.084-8.678c0 0-.522-7.112-1.125-9.964 0 0-3.777-2.05-11.008-3.898 0 0-5.183 3.536-8.116 7.474 0 0 0 3.817.402 6.95s.924 4.781.924 4.781m31.779-1.848s-4.982-1.808-11.49-3.375c0 0-.763-7.915-1.366-10.767 0 0 4.098-3.897 10.084-4.339 0 0 5.062 4.018 7.393 9.643 0 0-.523 1.968-1.809 4.58-1.285 2.61-2.812 4.258-2.812 4.258M315.26 546.43s-4.018-3.014-5.96-5.224c-1.941-2.21-2.41-3.683-2.61-5.29 0 0 1.673 0 3.146-.736 0 0 2.076 3.08 5.96 6.83 0 0-.134 3.214-.536 4.42m-14.798-32.41s-1.406 1.674-5.223 2.143-7.5.335-7.5.335 1.876-1.54 2.545-4.085c0 0 5.022.87 10.178 1.608m-24.172 13.592c-.542.666-.938.201-1.474-.268-.536-.468-1.004-1.271.067-1.339 1.071-.067 2.88-.2 1.407 1.607" style="fill:#fff;fill-opacity:1;fill-rule:nonzero;stroke:none" transform="matrix(1.33333 0 0 -1.33333 -.667 1121.853)"/><path d="M277.093 528.216c.469-.803.87-1.74.803-2.41s-2.41-.87-3.146-.67c-.738.2-1.608.67-1.206 1.942s1.808 2.075 2.344 2.075c.468 0 .736-.133 1.205-.937m40.511-194.653c1.54 4.42 3.08 5.625 5.223 6.63s3.817.535 5.022.133 3.415.335 4.82.603c1.407.268 1.273 1.607-.803 4.084-2.075 2.478-3.75 3.349-5.29 5.29-.542.684 1.206 3.549 2.21 5.223s-.067 2.41-2.88 4.754c-2.811 2.344-3.816 5.156-3.883 8.103-.066 2.947.804 6.494 2.41 9.374 1.608 2.88 2.01 4.821 1.875 7.5-.134 2.678-.535 3.616-.736 6.561-.201 2.947.67 2.88.67 2.88.133-2.143.67-5.759 1.004-8.638.335-2.88-.737-6.026-.737-6.026 1.607-5.09 5.558-8.17 7.634-9.576 1.769-1.198 8.035-3.214 18.08 1.674 10.043 4.889 15.466 17.544 16.203 23.972s-1.138 14.731-6.494 18.28c-5.358 3.55-13.058 2.009-17.143-2.678-4.084-4.688-3.549-11.986-.536-15.602s8.639-3.147 8.639-3.147c.736 1.205 2.142 4.017 2.61 6.628.47 2.612-.535 3.014-.937 3.014-.401 0-.602-.736-.602-.736.938-.201.469-1.206.469-1.206-1.272-.067-1.607 1.808-1.005 2.478s1.808.87 2.679-.469.469-5.29-1.674-8.973c-2.143-3.682-5.759-6.629-8.973-6.227s-6.696 2.344-9.24 7.432c-2.545 5.09-.737 13.058-.737 13.058s-4.888.134-7.834 3.884c-2.495 3.175-1.875 9.641-1.875 9.641s-4.085 1.34-7.03 3.952c-3.693 3.272-3.952 5.892-3.952 5.892-3.75 1.54-5.758-1.206-7.5-2.813-1.74-1.607-2.41-1.54-2.41-1.54s.201 7.835-.335 10.647c-.535 2.813-2.477 5.893-4.285 8.17-1.808 2.276-1.138 2.544-1.138 2.544 5.223-5.089 6.495-9.643 6.629-12.99.134-3.348 0-6.897 0-6.897s1.473 1.473 3.616 3.08 4.352 1.34 5.49.736c1.14-.602 1.942-.401 3.214.134 1.273.536 3.482.335 3.482.335.603 9.04-2.879 13.191-4.352 15.2s-.937 2.478-.937 2.478c3.414-4.286 5.021-7.098 5.692-10.513.668-3.415.468-5.96.468-5.96s1.138.804 2.344.737 2.544-1.406 2.544-1.406.335 3.348-2.678 9.24c-1.446 2.827-4.219 5.892-5.692 8.102s-.268 4.821.803 7.3c1.071 2.476.737 4.82-.334 6.896-1.072 2.076-2.344 3.147-2.277 5.156s3.147 7.566 7.5 13.66c4.352 6.093 12.789 15.535 21.025 24.239s22.097 21.428 22.097 21.428c-.269 3.414 1.606 10.244 1.606 10.244-10.914-8.905-18.413-17.008-28.055-27.052-6.132-6.387-15.736-15.735-22.23-23.837-6.412-7.997-8.238-15.335-8.773-20.49-.535-5.156.134-7.299.736-8.906.603-1.607-.602-1.272-2.209-.536-1.607.737-2.88.938-5.022.335s-2.344-2.678-2.344-2.678c-.803.803-2.142 1.406-2.812 1.205s-.938-2.076-1.272-2.812c-.336-.736-.67-.134-1.674 1.875s-1.205 3.415.067 6.227c1.271 2.812 4.352 4.62 4.352 4.62s-.87 4.955.603 8.772c2.413 6.252 9.843 6.63 9.843 6.63s-1.205 3.347 1.34 8.034c2.658 4.9 6.83 5.96 6.83 5.96-.403 2.21-.47 7.834 1.137 10.78s4.755 7.098 4.755 7.098-3.818 3.616-6.295 9.307c-1.007 2.315-.401 5.224 1.206 6.094s4.553.134 4.553.134-.335 1.339-.134 4.352c.2 3.013 1.808 5.223 1.808 5.223s-2.143.603-2.88 1.674c-.736 1.07-.669 3.817-.669 3.817s-4.477-2.382-7.232-5.29c-2.41-2.545-4.62-5.692-4.62-5.692-4.017.871-6.63 1.139-8.437.804-1.808-.335-4.352-2.545-4.352-2.545s1.807-2.009 3.415-2.946c0 0 .803.87 2.61.737 1.809-.134 2.868-.72 3.617-1.273 1.272-.937.67-1.607.67-1.607s-1.875 1.273-3.214 1.808c-1.34.536-2.545.067-2.947-.402-.401-.468.201-.803.268-1.138s-.2-1.07-.536-.803c-.334.268-.335 1.138-.803 1.004-.47-.134-1.004-.937-.402-1.941.603-1.005 1.34-1.54 4.017-1.072 0 0-.535.67-1.138 1.272-.602.603-.535.938.134.737.67-.201 1.407-.737 2.143-1.607.736-.871 1.071-1.54-1.004-1.54s-3.817.2-4.62 1.272c-.804 1.071-1.407 2.611.535 3.75 0 0-1.607 1.272-3.481 3.214 0 0-2.478-.201-9.71-.201s-10.777-.367-12.454-1.205c-1.742-.87-2.856-3.21-2.813-5.023.067-2.812 2.344-3.28 2.344-3.28s-.135-1.407.536-3.483c.669-2.075.736-3.75.736-3.75s1.74 1.474 3.682 1.943c1.942.468 8.572.468 13.66.134 5.09-.335 7.839-1.47 10.379-4.487 1.071-1.272.201-1.74.201-1.74s-.67 1.138-2.143 2.142c0 0-2.678-.2-9.44-1.406-6.764-1.206-11.183-2.612-14.532-2.745-2.608-.105-5.222 1.07-5.222 1.07l.067 3.349s-5.022-2.41-9.776-4.888c0 0 .267-.938 9.642-5.09l.134 2.88s1.473-1.272 9.173.067c7.7 1.34 17.008 3.147 20.825 2.88 0 0 .335-1.005-2.009-1.005s-3.147-.201-3.147-.201.603-.803 1.406-1.473.737-1.607-.67-1.206c-1.405.403-2.744.67-3.682.47 0 0 .267-.402 1.205-.87.937-.47 1.807-1.475 1.674-2.747-.134-1.272-1.34-1.807-5.089-1.874s-7.097-.268-11.115.602c0 0-.603-1.205.4-2.21 1.006-1.003 2.211-.736 2.211.268 0 0 1.205-1.607 1.272-2.945 0 0 2.505 1.193 4.152 1.674 3.215.937 4.285-1.206 4.285-1.206 1.473.803 4.888.67 7.165.067s5.625-.736 6.696.335.67 3.013-.268 5.892c-.937 2.88-.803 5.223-.402 7.366.402 2.143 2.009 2.678 4.018.468 1.76-1.935 1.875-6.427 1.875-6.427 3.214 3.75 3.214 6.494 2.344 10.445-.853 3.872-2.68 9.106-3.148 10.914-.87 3.357-.602 5.893.938 7.165s3.683 1.808 3.683 1.808c.267 2.679 3.013 2.21 3.013 2.21 1.004 2.478 3.482 1.54 3.482 1.54.267.736.736 1.205.736 1.205s.536-1.138-.267-2.009c0 0-1.206.603-2.344-.066-1.138-.67-.937-1.607-.937-1.607s-1.34.469-2.277-.269c-.938-.736-.536-2.008-.536-2.008s-2.009.535-3.817-1.34c-1.807-1.874-1.54-3.816.268-9.842s3.415-9.509 2.344-13.593c-1.072-4.085-4.152-6.696-4.152-6.696s-.134 3.549-1.004 5.893-1.942 3.28-2.745 2.945-.87-2.277-.87-4.285c0-2.01.602-3.214 1.204-5.09.603-1.874.67-3.95-.067-5.021-.736-1.072-3.75-1.808-7.232-1.072-3.481.737-6.36.938-7.566.268 0 0 .301-1.492-2.745-4.285-2.41-2.21-4.018-2.946-4.018-2.946s.402-1.339-.401-2.477c-.804-1.139-.536-3.818-.536-3.818s-1.473-.602-4.353-.736-3.95.335-5.557.402c-1.607.066-2.478-1.272-2.947-2.812-.468-1.541-.134-2.143.603-3.014.737-.87.536-1.607.536-1.607s-5.759-.402-11.182-1.472c-5.424-1.073-14.666-1.34-21.83-.47s-9.374 2.812-11.182 7.969c-1.808 5.156-1.674 8.302.067 11.45 1.013 1.83 3.415 3.147 3.817 5.624.401 2.478-.67 4.621-2.88 4.621s-4.553-.134-5.624-2.947c-1.072-2.812-.736-9.843-1.004-10.177-.268-.336-.67-.067-.803 1.205-.135 1.272-1.207 5.357-3.282 6.83s-4.085.736-5.29-1.004c-1.205-1.742-1.473-3.415-.602-6.228.87-2.812 2.678-5.357 3.682-6.428 1.005-1.072 1.005-1.607-.468-1.607-1.474 0-4.357.34-5.759-.536-1.607-1.005-2.075-2.545-1.875-5.29s.469-3.616 2.41-3.482 3.148.268 4.621-.736 2.612-2.545 3.95-3.282c1.34-.736 1.675-.2 3.281.737s2.612.871 5.156-.401c2.545-1.273 3.349-2.143 2.88-3.817s-1.072-3.148-.938-4.486c.134-1.34.938-2.545 2.946-3.416 2.01-.87 3.148-.803 4.353 0 1.206.804 1.54 1.809 2.678 5.223 1.139 3.415 1.875 4.955 4.286 4.955s3.08-.67 4.754-2.812 1.388-3.307 3.615-4.821c3.55-2.41 6.277-2.851 9.309-3.08 3.548-.268 6.36-1.674 8.503-4.554 2.143-2.879 8.302-11.468 15.669-20.02 7.9-9.174 10.446-12.187 18.414-19.084 6.959-6.023 5.92-7.76 4.687-9.71-2.076-3.28-6.144-6.239-8.972-9.91-3.148-4.084-6.027-9.039-6.361-16.137-.335-7.098 1.74-11.517 5.825-13.927s6.83-3.147 10.379-3.951c3.548-.803 4.83-2.764 6.227-5.558 1.473-2.946 1.339-4.419-.804-7.097-2.143-2.68-6.763-8.772-10.11-11.92-3.349-3.146-3.416-3.682-7.299-3.28-3.884.401-6.964 1.874-9.308 3.28s-3.884 1.541-5.357 1.541c-1.472 0-2.745-.67-2.477-2.076s1.473-3.816 1.54-5.424c.067-1.607-.134-3.348.335-3.616.468-.268 1.607-.402 4.553.268 2.947.67 5.625 1.139 5.625-.134 0 0-2.678-.2-5.49-1.004s-4.487-1.34-4.688-2.143.737-1.34 1.808-3.214c1.072-1.875 1.205-3.214 1.473-4.286.268-1.07 1.808-1.74 3.415-1.004 1.607.737 2.879 2.277 4.955 4.486 2.076 2.21 2.41 2.947 3.616 2.88 0 0-.268-.87-2.612-3.482-2.343-2.612-3.816-4.286-3.415-4.955.402-.67 2.478-1.005 3.885-1.942 1.405-.938 1.472-2.01 3.146-2.477 1.674-.47 4.285-.068 6.696 3.214 2.41 3.28 5.365 8.134 7.165 12.186 1.071 2.41 2.21 5.625 3.75 10.044" style="fill:#fff;fill-opacity:1;fill-rule:nonzero;stroke:none" transform="matrix(1.33333 0 0 -1.33333 -.667 1121.853)"/><path d="M289.95 506.99s3.481.602 5.892.803c0 0 .736-.602 1.138-1.205 0 0-1.942 0-3.08.134s-1.741-1.072-.938-1.473c.804-.402 2.344-1.004 2.746-2.076.401-1.071.602-1.808-3.281-1.942s-5.759-.067-5.759-.067 1.34 1.005 2.143 2.41c.804 1.407 1.138 3.416 1.138 3.416m2.01-10.58c-1.122.794-2.21 1.004-5.96-.67s-4.956-2.477-5.022-4.285c-.067-1.808-.134-1.875 1.941-2.142 2.076-.268 2.746-.268 4.62 1.07 1.876 1.34 6.027 4.889 4.42 6.027m-6.495-8.169s-3.013-.402-4.888 1.138c0 0-3.08-.67-3.683-2.879s-.201-3.348 1.205-3.817 4.018-.335 6.295.201c0 0-.068 2.21.335 2.812.4.603.87 1.072.736 2.545m-15.401-13.191s-1.942 0-6.36-.938c-4.42-.937-6.027-.87-6.027-.87s-1.809 2.21-2.612 4.888-.469 5.022-1.34 7.365c-.87 2.344-2.744 4.085-4.888 4.42-2.142.335-2.812-1.004-4.418-1.34-1.607-.334-2.01-.334-2.947 1.474s-1.473 3.75-.535 5.424c.937 1.674 2.015 1.726 3.348 1.874 1.204.135 2.544 1.273 2.41 2.612s-1.741 4.151-4.219 7.298c-2.477 3.148-3.213 4.018-6.628 5.223s-4.755 1.072-5.357 4.554c-.603 3.481.401 5.691 1.406 6.629s2.745.803 4.419-.135c1.674-.937 2.678-1.472 2.88-1.071.2.402-.336.804-2.679 2.612s-4.152 3.281-4.42 4.821-.2 2.947 2.077 4.42c2.276 1.472 3.481 1.606 4.218 1.54.736-.068 1.942-.602 3.28-3.349 1.34-2.745 2.21-5.356 2.613-5.758.401-.402 1.071-.804.602.938-.469 1.74-1.34 5.289-1.406 7.566-.067 2.276 1.138 3.616 2.678 4.085s4.285.4 5.424-.537c1.138-.937 1.808-1.94.938-5.892-.871-3.95-1.607-8.236-1.607-11.852s1.07-8.37 2.61-13.994c1.541-5.625 4.019-12.32 8.84-19.82a920 920 0 0 0 7.7-12.187m-30.332 16.807s-2.077-.067-3.148 0-1.607 1.272-2.076.736c-.468-.535-.334-2.21 1.34-3.884s4.084-2.008 5.892-.736c0 0-1.004 1.34-2.009 3.884m-7.164 10.78s-2.479.87-5.558-.134c0 0 .267 2.277-.469 3.684-.736 1.405-1.272 1.874-2.21 2.142s.067 1.138 1.474 1.138c1.406 0 6.36.87 6.763-6.83m-2.813 19.218s-.536-3.214-.066-5.156c0 0-1.207.469-2.545.469a5.96 5.96 0 0 1-3.282-1.005c-.803-.536-1.204-.134 0 2.143 1.206 2.276 3.617 3.683 5.893 3.549m-13.727-23.437s-2.41-1.004-3.214-3.95c0 0-1.607.87-3.147 1.272-1.54.403-2.678-.402-3.482-.87-.803-.47-.682 1.113.067 2.611.67 1.34 2.138 2.82 4.821 2.946 4.285.201 4.955-2.009 4.955-2.009m-7.566-19.954s-.2-2.075.2-3.95c.403-1.875 1.139-2.277 1.139-2.277s-.468-.67-1.473-1.272c-1.005-.603-1.808-1.674-1.808-2.678s-.134-1.942-1.205-.134-1.511 3.978-.536 6.562c1.34 3.55 3.683 3.75 3.683 3.75m22.565-20.49s2.277-2.142 5.022-2.277c0 0-.134-2.544-2.946-4.151s-6.16-1.272-7.901.2c-1.741 1.474-1.942 2.746-1.674 3.148.267.401 2.076-.201 4.017.803a22 22 0 0 1 3.482 2.277m88.656 37.966s-.871 5.424.267 9.441c1.357 4.789 7.098 10.915 13.593 18.214 6.496 7.299 14.397 14.664 14.397 14.664s-1.823-5.958-1.742-10.044c.068-3.348 2.947-6.227 2.947-6.227s-11.316-11.652-18.347-19.017c-7.03-7.366-14.99-15.298-18.682-24.039-3.281-7.767-2.88-13.99-2.88-15.869 0-2.143 1.14-3.415.737-3.75-.401-.335-1.406.938-4.285.87-2.88-.066-4.085-1.138-4.687-2.209 0 0-.87.67-2.077.535-1.205-.133-1.941-2.142-1.941-2.142s-.871 1.473-1.138 3.147c-.268 1.674 1.674 5.826 5.356 7.098 0 0-.87 4.42-.066 7.767.803 3.348 2.61 6.897 10.914 7.701 0 0-.926.94-.804 4.084.134 3.415 4.018 9.575 8.437 9.776m1.138-31.806s1.072-2.678-.2-6.227-2.545-4.888 0-8.102 5.357-7.031 6.428-10.245c1.071-3.215 1.205-6.227 1.272-6.896 0 0 .67.066 1.406 2.142.737 2.076 2.01 5.892 6.16 9.441 4.153 3.549 6.563 4.218 6.563 4.218s-2.618 2.875-5.692 6.228c-3.683 4.017-9.307 8.236-15.937 9.441" style="fill:#fff;fill-opacity:1;fill-rule:nonzero;stroke:none" transform="matrix(1.33333 0 0 -1.33333 -.667 1121.853)"/><path d="M318.14 469.224s.535-2.142 2.21-3.95c0 0 4.352-.804 6.829-2.21 2.478-1.406 6.897-3.75 15.535-13.526 0 0 .401 1.272 1.807 2.076 1.406.803 3.416 1.272 3.416 1.272s-4.353 4.018-13.192 10.178c-8.838 6.16-11.785 6.562-16.605 6.16" style="fill:#fff;fill-opacity:1;fill-rule:nonzero;stroke:none" transform="matrix(1.33333 0 0 -1.33333 -.667 1121.853)"/><path d="M327.648 485.83s-3.013-3.616-5.625-7.767-3.75-6.562-3.883-7.968c0 0 4.352.603 8.034-.87 3.683-1.474 14.33-8.907 22.298-15.603 0 0 1.205 4.554 3.013 8.236 1.808 3.684 4.883 7.497 11.317 10.714 0 0-3.483 4.152-11.92 8.571-8.436 4.42-15.065 5.691-23.234 4.688" style="fill:#fff;fill-opacity:1;fill-rule:nonzero;stroke:none" transform="matrix(1.33333 0 0 -1.33333 -.667 1121.853)"/><path d="M328.452 486.834s1.472 2.278 3.012 3.75c0 0 5.893.536 12.79-1.07 6.897-1.608 15.87-5.558 22.498-11.117 0 0-3.415-1.74-3.75-4.687 0 0-5.825 5.692-15.2 9.978s-16.873 3.348-19.35 3.146" style="fill:#fff;fill-opacity:1;fill-rule:nonzero;stroke:none" transform="matrix(1.33333 0 0 -1.33333 -.667 1121.853)"/><path d="M332.201 491.588s9.977 11.853 14.664 15.938c0 0 11.115 1.94 24.708.736 0 0-2.21-4.084-3.95-8.705-1.741-4.62-2.143-7.9-1.674-12.856s1.138-6.964 1.138-6.964-8.638 6.227-17.678 9.24c-9.44 3.148-17.208 2.611-17.208 2.611m15.802 17.075s11.25 1.139 23.436.402c0 0-.401 2.41.335 4.219 0 0-13.525.067-20.824-1.34 0 0-1.875-1.941-2.947-3.28m4.286 4.486s7.968 1.072 19.017 1.072c0 0-3.214 6.561-3.482 13.592 0 0-11.785-10.245-15.535-14.664m16.941-111.355s.2 4.956-4.018 10.982c0 0 3.147 9.576 3.884 18.08 0 0-7.433-.47-13.86-.336 0 0 6.293 5.357 9.91 8.906 3.615 3.55 6.494 9.71 10.043 14.33s5.491 7.097 11.116 9.24c0 0-3.616-7.097-4.822-11.785s-1.54-11.584-.133-16.204c1.406-4.62 4.218-9.91 4.218-9.91s-7.7 3.214-11.919 5.49c0 0-.06-7.16-.468-12.387-.603-7.7-2.143-14.062-3.951-16.406M236.6 536.436s-2.914-.603-4.52-2.863c0 0-.754.25-1.658.953s-1.457.703-2.511.503-1.808.05-.252 1.758c1.558 1.707 4.47 2.36 6.58 1.657 2.109-.703 2.36-2.008 2.36-2.008m8.437 3.214s1.005.903 4.369.602c0 0-.251 2.008-2.21 3.465-1.958 1.457-3.967 1.808-4.921 1.758s-2.813-1.155-2.712-1.758.854-.25 2.21-.803 2.26-1.206 3.264-3.265m56.229-144.884s2.679 2.946 6.228 6.495c1.908 1.909 2.745 3.55 2.41 5.022s-1.674 2.678-7.834 8.437-8.705 8.504-8.705 8.504-1.808-2.545-5.624-2.947c-3.817-.401-11.25-1.338-14.8-2.812-3.547-1.473-6.56-3.616-7.23-8.035s-.201-9.307.736-13.928c.938-4.62 2.612-11.315 2.612-15.87 0-4.552-1.205-7.432-4.687-8.37s-7.969 3.683-10.246 9.51c-2.276 5.825-4.783 11.754-3.213 18.346 1.673 7.03 5.069 9.454 6.428 11.718 1.807 3.013 1.406 5.825-.736 7.098-2.144 1.272-4.822 1.138-5.96.2-1.14-.937-1.071-3.414-1.14-6.026-.066-2.61.269-3.884-.267-3.95-.535-.067-.535.066-.736 2.745s-.2 5.893-2.277 8.035-4.754 2.746-6.963 0-2.21-5.691-1.005-8.303 2.544-5.223 2.88-6.227c.334-1.005.133-2.544-.804-.335s-2.88 5.759-4.353 6.562-3.28.335-4.553-1.272c-1.272-1.607-2.88-3.683-2.745-5.49.134-1.809 1.74-3.75 5.022-6.83 3.28-3.082 6.294-5.76 8.235-7.902 1.942-2.142 2.947-4.085 2.612-6.16s-1.674-2.88-3.615-3.95c-1.943-1.072-2.679-1.675-1.742-2.613.938-.937 2.545-3.28 2.68-4.753.133-1.474-.67-3.013-.202-3.281s1.808-.603 3.482.803 3.28 1.808 4.82 1.34c1.541-.47 1.742-1.072 3.75-2.88 2.01-1.809 3.148-2.612 5.09-2.746s3.884-.468 5.691-2.61c1.809-2.144 3.482-4.688 3.482-4.688s1.139 2.41 2.88 5.423 3.615 4.555 6.427 5.893c2.813 1.34 4.286 2.343 4.755 3.214.469.87.134 1.674-.737 3.282-.87 1.607-2.344 3.883-2.544 9.709s-.268 7.231 3.348 9.508 5.96 2.276 11.048 1.607c5.09-.67 8.102-1.473 8.102-1.473" style="fill:#fff;fill-opacity:1;fill-rule:nonzero;stroke:none" transform="matrix(1.33333 0 0 -1.33333 -.667 1121.853)"/><path d="M238.524 375.681s1.406-1.406 2.009-2.612c.602-1.205.736-3.146 0-4.084 0 0-2.143-.602-4.018.335s-3.281 2.611-4.017 4.553-.603 2.946.267 2.076 4.085-1.339 5.759-.268m-5.959 35.823s-2.479-1.473-3.817-4.552c0 0-1.54.87-3.214.67-1.675-.202-2.545-1.072-3.08-1.006-.537.068-.47 2.278.937 4.085 1.406 1.808 7.232 3.215 9.174.803m5.021 6.898s1.072 1.673 2.68 2.611c1.606.938 2.677.737 2.677.737s.067 2.879-2.41 4.82-5.96 2.345-7.902 1.206c-1.941-1.138-2.545-1.875-1.07-1.875 1.472 0 3.414-1.07 4.485-2.142s1.206-3.08 1.54-5.357m13.459 1.004s1.005.536 3.08.335 2.947-.803 2.947-.803.67 3.481-1.072 5.892c-1.74 2.41-4.888 2.946-6.562 2.61-1.673-.334-.401-.735.268-1.806.67-1.072 1.674-2.746 1.34-6.228m12.454 36.225s4.486-.334 7.232-4.62c0 0-1.942-.402-2.947-1.473-1.004-1.072-1.406-1.674-1.406-1.674s-1.607 1.339-2.544 2.678c-.938 1.34-.737 3.55-.335 5.09m7.767-5.424s3.013-3.817 5.625-7.366c0 0-5.088-.67-5.826-3.75 0 0-1.941.603-3.28 2.344-1.34 1.74-1.675 3.816-.402 6.093 1.272 2.277 3.883 2.679 3.883 2.679" style="fill:#fff;fill-opacity:1;fill-rule:nonzero;stroke:none" transform="matrix(1.33333 0 0 -1.33333 -.667 1121.853)"/><path d="M277.495 442.039s4.151-5.224 6.428-8.036c0 0-2.344 0-4.085-1.138s-1.942-3.013-1.942-3.013-2.544-.134-4.352 1.674-2.746 5.357-1.607 7.767c1.138 2.41 5.558 2.746 5.558 2.746" style="fill:#fff;fill-opacity:1;fill-rule:nonzero;stroke:none" transform="matrix(1.33333 0 0 -1.33333 -.667 1121.853)"/><path d="M284.592 433.065s4.554-5.155 8.036-9.173c0 0-1.406-2.276-4.151-2.745-2.747-.469-5.424-.87-7.567 1.004s-2.545 5.09-2.21 7.3 1.875 3.347 5.892 3.614m44.261-93.676s2.678.267 4.42.937c0 0 .936-.803.468-4.152-.469-3.347-3.483-6.16-4.42-6.294s-.2.87.068 1.875.602 2.41.133 3.884-.736 2.277-.67 3.75m-47.942-5.491s.335-1.473 1.071-3.013.736-3.482.469-4.754c0 0-2.545.602-3.951.402-1.406-.201-3.415-1.407-4.152-3.014-.736-1.606-1.34-2.544-1.272.536.067 3.08.2 7.366 7.835 9.843m2.544-13.592s1.205-.938 1.741-2.545c.535-1.607.937-3.683.937-3.683s-3.415-.47-5.155-1.607c-1.742-1.138-2.143-3.282-2.21-3.951-.067-.67-.938-.268-1.139 2.143-.2 2.41-.268 7.566 5.826 9.643m9.375-8.839s1.004-.402 2.075-.938 2.21-1.272 2.679-2.21c0 0-2.076-2.21-2.478-3.883s.2-3.348 1.071-4.286c.87-.937 1.407-1.942-1.071-1.406s-4.151 1.473-5.021 3.817c-.872 2.344-.403 5.625 2.745 8.906" style="fill:#fff;fill-opacity:1;fill-rule:nonzero;stroke:none" transform="matrix(1.33333 0 0 -1.33333 -.667 1121.853)"/></svg>