<svg xmlns="http://www.w3.org/2000/svg" xmlns:xlink="http://www.w3.org/1999/xlink" xml:space="preserve" viewBox="-38.11 -89.22 340.58 306.45"><g transform="translate(-38.11 -131.792)"><defs><path id="a" d="M.125 42.576h340.458v306.453H.125z"/></defs><clipPath id="b"><use xlink:href="#a" width="612" height="792" overflow="visible" style="overflow:visible"/></clipPath><path d="m339.761 303.923-4.673-4.341c-5.468-5.081-11.744-9.344-18.154-12.328-2.844-1.32-5.651-2.372-8.396-3.152q.285-.238.583-.463c2.007-1.563 4.183-2.858 7.268-4.337l4.559-2.189a2.576 2.576 0 0 0-.511-4.825l-4.931-1.181c-.465-.112-2.987-.661-6.938-.661-4.035 0-8.063.573-12.021 1.684 14.733-23.157 23.276-50.636 23.276-80.114 0-82.533-66.903-149.442-149.441-149.442-82.531 0-149.441 66.91-149.441 149.442 0 29.511 8.573 57.012 23.335 80.183-4.034-1.158-8.146-1.753-12.264-1.753-3.929 0-6.464.547-6.949.664l-4.915 1.179a2.57 2.57 0 0 0-1.959 2.231 2.57 2.57 0 0 0 1.447 2.594l4.558 2.189c3.084 1.479 5.256 2.774 7.266 4.335q.293.227.582.465c-2.745.78-5.553 1.832-8.396 3.152-6.411 2.983-12.687 7.247-18.153 12.328L.82 303.924a2.575 2.575 0 0 0 2.262 4.408l6.254-1.262a27.5 27.5 0 0 1 5.497-.534c4.71 0 9.921 1.12 15.07 3.247 4.446 1.832 8.779 4.388 12.204 7.196 1.618 1.324 3.338 2.361 5.108 3.071 1.897.761 3.835 1.146 5.76 1.146 1.735 0 3.444-.311 5.073-.93 2.455-.93 4.703-2.522 6.678-4.739 1.201-1.346 2.306-2.932 3.297-4.729 4.396 1.308 9.266 3.365 14.214 6.019a106 106 0 0 1 9.88 6.002c1.127 1.758 1.957 5.514 2.607 7.766.778 2.692 1.862 9.267 2.808 12.982.554 2.611 1.738 4.285 2.888 4.282q.3.002.604-.069l1.724-.414c21.977-5.288 44.993-10.153 67.336-9.351 19.173.693 39.892 5.749 63.486 10.348l3.18.619q.246.045.492.047a2.57 2.57 0 0 0 2.381-1.598l.45-1.095c.046-.109.084-.226.114-.342l.438-1.716c.944-3.718 3.763-13.014 4.832-15.618.892-2.168 1.876-4.084 3.002-5.842a109 109 0 0 1 9.881-6.004c4.948-2.651 9.816-4.707 14.212-6.017 1.527 2.765 3.316 5.02 5.338 6.716 1.445 1.21 3.005 2.134 4.634 2.751 1.635.621 3.342.932 5.078.932 1.925 0 3.864-.385 5.764-1.146 1.769-.712 3.49-1.747 5.106-3.071 3.422-2.809 7.758-5.364 12.204-7.196 5.146-2.127 10.358-3.247 15.087-3.247 1.889 0 3.732.178 5.48.534l6.253 1.262a2.58 2.58 0 0 0 2.802-1.345 2.58 2.58 0 0 0-.537-3.064" clip-path="url(#b)" style="fill:#fff"/></g><g transform="translate(-38.11 -131.792)"><defs><path id="c" d="M.125 0h340.941v391.417H.125z"/></defs><clipPath id="d"><use xlink:href="#c" width="612" height="792" overflow="visible" style="overflow:visible"/></clipPath><path d="M332.965 301.602c-10.91-10.139-22.625-14.793-30.828-15.936 4.022-4.365 7.415-6.807 12.899-9.435a1.254 1.254 0 0 0-.249-2.352c-.097-.021-2.438-.575-6.22-.575-6.465 0-18.904 1.705-30.777 12.915a375 375 0 0 0-3.939-4.962 1.3 1.3 0 0 0-.385-.319 2 2 0 0 1-.258-.161 1.26 1.26 0 0 0-.627-.376c-2.884-.721-6.125-1.086-9.63-1.086-11.526 0-24.194 3.891-33.891 10.417a1.25 1.25 0 0 0-.49 1.437c1.073 3.22.25 5.005-.876 6.268q-.067-.002-.142-.002c-.3 0-.581.032-.833.057-.186.021-.376.04-.564.04-.112 0-.203-.009-.264-.021l-1.487-.395c-11.184-2.956-29.896-7.903-53.621-7.903l-1.242-.002c-26.507 0-45.748 4.027-54.839 6.416q-.952.239-1.908.49c-1.311-1.335-1.718-2.136-.781-4.948a1.26 1.26 0 0 0-.489-1.437c-9.698-6.526-22.369-10.417-33.895-10.417-3.505 0-6.744.365-9.627 1.086a1.27 1.27 0 0 0-.681.439l-.366.474c-.627.532-1.744 1.814-4.164 4.905-11.871-11.209-24.312-12.915-30.776-12.915-3.779 0-6.125.554-6.222.575a1.26 1.26 0 0 0-.955 1.088 1.26 1.26 0 0 0 .706 1.264c5.484 2.628 8.876 5.07 12.902 9.435-8.203 1.143-19.918 5.797-30.83 15.936a1.25 1.25 0 0 0-.259 1.49 1.24 1.24 0 0 0 1.36.657c1.947-.393 4-.593 6.101-.593 11.561 0 22.99 6.006 29.265 11.148 2.807 2.303 5.881 3.515 8.895 3.515 5.466 0 10.2-3.881 13.408-10.958 5.99 1.471 15.334 5.009 27.384 13.483 1.864 2.928 3.189 9.099 4.471 15.073.528 2.453 1.071 5.615 1.647 7.872.143.563.155 1.128.716 1.128.097 0 .692-.196.789-.22 19.459-4.682 39.395-7.981 51.635-9.084 3.582-.207 5.4-.315 9.109-.315 21.08 0 43.24 3.423 73.776 10.767q.144.033.296.033a1.25 1.25 0 0 0 1.21-.942c1.916-7.529 5.994-20.025 8.766-24.312 3.718-2.605 15.631-10.469 28.009-13.483 3.207 7.075 7.941 10.958 13.409 10.958 3.015 0 6.091-1.212 8.893-3.515 6.276-5.143 17.708-11.148 29.269-11.148 2.1 0 4.153.2 6.099.593q.126.026.248.025a1.251 1.251 0 0 0 .853-2.172m-275.166-.051c-2.308.258-3.335 1.795-2.308 3.081 3.254 6.346.895 9.391-2.914 9.391-2.198 0-4.878-1.012-7.241-2.989-6.07-4.817-15.534-10.72-26.789-10.72-2.064 0-4.19.198-6.364.638 11.121-7.87 19.846-12.232 31.142-13.005-3.338-4.872-7.237-8.63-13.861-12.49h.089c1.376 0 18.57.266 31.125 13.371.1.148-5.802 11.185-5.802 11.185s12.182-14.852 13.858-16.682c2.652-.644 5.561-.986 8.676-.986 9.073 0 19.902 2.9 31.265 9.72-20.178 2.816-24.438 12.311-20.844 15.904 4.106 4.618 5.8 7.956 5.8 7.956s-18.103-13.347-35.832-14.374m176.705 39.05c-28.164-7.251-48.614-10.853-69.247-10.853-18.568 0-37.285 2.92-61.889 8.719-2.735-14.697-9.283-28.266-11.087-30.771 8.376-3.548 36.135-14.1 74.285-14.1 23.632 0 51.255 4.048 80.722 16.329-7.246 11.746-10.793 22.506-12.784 30.676m87.529-40.288c-11.254 0-20.716 5.902-26.788 10.72-2.146 1.798-4.816 2.586-7.17 2.586-4.725 0-8.185-3.167-3.651-7.707 2.546-1.523 2.185-4.361-.69-4.361h-.078c-17.726 1.027-36.703 14.373-36.703 14.373s1.8-2.822 6.161-6.156c4.107-5.649-1.025-14.888-21.205-17.704 11.362-6.82 22.191-9.72 31.265-9.72 3.116 0 6.023.342 8.677.986 1.678 1.83 13.859 16.682 13.859 16.682s-5.903-11.037-5.802-11.185c11.979-12.502 28.255-13.031 30.921-13.031.243 0 .376.004.376.004-7.531 3.763-10.865 7.014-13.945 12.146 11.292.773 20.02 5.136 31.138 13.005a32 32 0 0 0-6.365-.638M51 274.283c-16.297-23.501-25.854-52.03-25.854-82.796 0-80.348 65.134-145.481 145.483-145.481 80.348 0 145.484 65.133 145.484 145.481 0 30.764-9.559 59.293-25.853 82.794a49.7 49.7 0 0 0-7.948 4.521c19.491-24.826 30.067-55.258 30.067-87.315 0-37.863-14.746-73.459-41.52-100.23-26.772-26.773-62.368-41.518-100.231-41.518S97.17 64.482 70.396 91.256c-26.771 26.771-41.517 62.368-41.517 100.23 0 32.057 10.575 62.492 30.066 87.318A49.5 49.5 0 0 0 51 274.283M235.783 136.8l-16.424-1.986V119.92c7.844.777 14.075 5.171 18.226 9.663zm-1.5 5.808h-14.924v-3.959l15.346 2.324zm24.789 54.386c-.325-5.677-1.082-12.186-2.045-18.769h12.178a99.5 99.5 0 0 1 .473 22.305c-3.616-.547-7.174-1.675-10.593-3.257zm-39.164-3.023c-.184-.046-.365-.083-.549-.133v-15.612h5.108a2556 2556 0 0 1-4.559 15.745m9.892 77.413a99.1 99.1 0 0 1-34.738 16.521 193 193 0 0 0-11.237-1.266c10.082-2.015 14.97-6.311 35.053-12.065a1505 1505 0 0 0 10.922-3.19m-35.092-5.687c19.221.114 33.065-.201 42.942-.784a101 101 0 0 1-6.089 5.129l-122.673-.634a100 100 0 0 1-10.98-10.139l41.519.632c0 .001-41.926 5.215 55.281 5.796m4.902 11.531s-20.801 8.354-63.527 4.931a371 371 0 0 1-7.854-.712 99 99 0 0 1-11.106-6.147q1.171-.028 2.384-.066c29.829-.976 27.108-2.533 55.808-1.02 28.702 1.508 24.295 3.014 24.295 3.014m-16.553-106.211-22.971 25.958c-2.016-1.101-3.188-.619-3.188-.619l3.047-3.425-25.166-22.402-5.534 6.314 24.356 21.57-1.495 2.113-.941-.94-22.232 25.322 6.467 5.362 15.647-17.402c-.218 4.868-4.787 21.587-6.987 29.4-7.97-.393-15.15-.683-21.454-.894v-13.527h-5.616l-3.299-49.544-4.292.137-1.158 49.265h-3.14v-7.375h-2.803l-3.965-62.483H93.71l-1.818 62.621h-8.638l-.02-4.781-9.108-.076c3.792 15.163 11.073 28.958 20.936 40.474 21.073-.123 42.875.247 68.586 1.769-7.045.801-14.946 2.043-13.607 3.483 1.936 2.085 37.348-.061 49.697-.876 19.341 1.437 34.62 2.172 42.957-.49a101 101 0 0 0 5.9-6.794c4.504-5.791 6.987-10.933 6.982-10.933 0 0 1.082-22.753-.177-45.042-1.264-22.288-9.598-58.537-9.598-58.537 8.635 47.85-4.835 77.293-4.835 77.293 2.206-18.942 3.608-64.787 4.246-90.195a91 91 0 0 0-2.357-2.584c-7.167 31.884-25.379 91.913-26.755 96.529-1.652 5.537-5.345 14.66-5.345 14.66l2.503.583c-.239 1.132-1.933 7.743-1.933 7.743-5.155.942-8.056 1.853-8.056 1.853l-3.811.815-1.997.475a1669 1669 0 0 0-21.612-1.667c-1.994-7.965-3.621-23.455-3.621-23.455l11.231 9.864 5.366-6.465-17.733-15.944 1.216-.48c-.823-2.305-5.327-6.41-5.327-6.41l22.002-25.058zm33.91 63.772c3.063-.112 2.81-.26 6.347-.934 2.561-.486 2.561-.486 6.401-1.198 1.872-.346 4.322-1.05 4.322-1.05l-4.633 3.68-6.125 1.517.091 2.687-5.85 1.147c-.692-3.466-.553-5.849-.553-5.849m-68.796-56.564h24.961l-10.996 12.431zm-39.187-58.038s-.203-.788 8.12-1.103l5.017.397s5.099-.528 7.021.919l4.77-.053 6.747-8.512.124-.032s-.084-.612.541-.45c.624.165 1.899.148 1.899.148l.995.072.522.104.134.205-.047.828 1.836 11.488 4.429 1.392 2.318-3.826 2.146.809 1.596 3.213 7.406-1.375 4.229 1.116-8.809 3.222-.361.61s.093.097.214.262l23.91 3.625v6.497l-24.919-6.308c-.088.044-.166.093-.264.137l.221 1.365 1.004.133.476 6.923s-2.005.256-2.401-.292c-.398-.545-5.374-8.129-5.374-8.129l-3.831-.831 2.403 12.959-.035.875c-.911-.028-4.102-.608-4.102-.608s-.517-.526-.114-.7l.056-.044-11.147-14.542-4.524-2.011s-6.325-1.229-6.859-1.804a2.47 2.47 0 0 1-.628-1.194l-7.182-2.305c-.001.001-6.732-2.547-7.537-3.18m37.887-17.656c10.505-8.195 13.684-.438 13.632.412.822-2.334 8.621-5.97 13.544 4.407-5.807-5.484-10.216-4.682-14.787.579-1.577-8.047-8.943-6.596-12.389-5.398m36.869 11.353v16.618l-14.554-1.76 10.118-3.697-13.693-3.617c4.217-5.59 10.859-8.099 18.129-7.544m-42.862 28.724H84.03a100 100 0 0 1 9.077-13.365 34 34 0 0 1 4.42 4.895c7.36-2.831 18.525-2.427 24.777 4.756 1.869-3.19 4.271-5.59 7.13-7.356.262.051.518.104.798.159l3.464 1.544zm-34.81 53.577a29 29 0 0 1-2.519-2.089l-1.005-15.87h3.945zm66.136 5.843a37 37 0 0 0-.842-.904l12.378-14.096v17.091c-3.907-.175-7.762-.885-11.536-2.091m11.536-59.42h-20.278l-.37-5.404 20.648 5.227zm-65.581 58.938-1.553-23.321h10.146l18.397 16.291c-2.118 1.508-4.588 2.916-6.265 3.854-6.347 3.557-13.772 4.558-20.725 3.176m-46.768-3.384a100 100 0 0 1-.229-6.676c0-4.498.305-8.922.887-13.261h18.157l-.621 21.467c-5.949.431-12.495-.474-18.194-1.53" clip-path="url(#d)" style="fill:#003e7e"/><path d="M170.996 53.847c-76.221 0-138.011 61.791-138.011 138.015 0 33.255 11.764 63.768 31.36 87.597l1.146-1.417a2.58 2.58 0 0 1 1.701-.936c.272-.032 6.735-.784 10.304-.784 5.675 0 11.948.976 18.144 2.82 6.45 1.918 12.377 4.682 17.623 8.206l1.137.765a2.57 2.57 0 0 1 1.001 2.951l-.431 1.295c-.054.167-.101.22-.145.22 6.687-1.726 13.476-3.044 20.344-4.016-39.396-14.453-67.509-52.294-67.509-96.7 0-5.842.494-11.567 1.427-17.144h21.227l.567-19.58h10.185l1.241 19.58h25.1l7.115-8.121 9.125 8.121h32.415l6.737-7.616 10.308 9.061-5.657 6.444v36.544l5.419 4.872-5.419 6.53v10.198l10.675 1.356.493-.121 3.739-.798c.602-.18 2.681-.778 5.987-1.458.156-.61.314-1.236.465-1.838l-3.068-.712 1.614-3.987c.036-.091 3.646-9.027 5.227-14.332l.479-1.602q1.317-4.38 2.588-8.641v-33.901h9.883a1659 1659 0 0 0 7.783-28.198h-17.666V99.246c20.592 10.031 37.348 26.718 47.446 47.274h-11.852c1.477 7.016 3.558 17.507 5.227 28.198h15.697a103.5 103.5 0 0 1 1.428 17.144c0 45.386-29.361 83.908-70.123 97.619 7.576 1.377 15.072 3.105 22.44 5.018.03-.216.047.175.047-.084 0-.67-.119-1.363-.349-2.058l-.433-1.293a2.58 2.58 0 0 1 1.005-2.951l1.135-.761c5.248-3.53 11.178-6.292 17.622-8.209 6.025-1.792 12.253-2.74 18.017-2.742 3.551 0 10.12.674 10.401.701.678.07 1.303.41 1.734.94l1.181 1.456-.002.002c.127.148.361.441.663.82 20.023-23.956 32.078-54.796 32.078-88.457 0-76.225-61.79-138.016-138.015-138.016m16.454 92.674h-33.265l-.136 3.457-3.115-.084c-1.041-.032-3.553-.469-4.582-.659l-.982-.18-.699-.71a4 4 0 0 1-1.049-1.823h-65.46c16.768-34.13 51.873-57.626 92.467-57.626 5.729 0 11.347.483 16.821 1.384zm51.776 144.623c8.214-4.001 16.392-6.091 23.947-6.091 2.58 0 5.039.249 7.329.742 1.882 2.187 7.331 8.789 11.286 13.593-9.058.891-18.15 4.58-24.968 8.041.26-1.684.038-3.445-.682-5.145-2.111-4.967-8.132-8.884-16.912-11.14M53.349 306.152c-.813-1.17-.989-2.592-.46-3.864q.075-.178.164-.349a2.51 2.51 0 0 1-.389-2.907c1.901-3.554 3.95-7.437 4.991-9.478-5.988-5.7-12.951-8.55-18.448-9.97 2.337 2.124 4.338 4.454 6.186 7.151a2.502 2.502 0 0 1-1.898 3.913c-8.259.568-15.074 3.224-22.163 7.471 8.491.676 17.076 4.417 25.562 11.155q.026.017.052.038c1.8 1.508 3.905 2.408 5.631 2.408.498 0 1.383-.082 1.722-.638.407-.663.361-2.304-.95-4.93m113.217-9.845c-33.648 0-59.139 8.252-70.666 12.817 2.657 5.047 6.992 15.302 9.415 26.521 25.108-5.813 42.619-8.197 59.942-8.197 19.196 0 38.265 2.902 67.437 10.31 2.51-9.403 6.11-18.093 10.948-26.414-24.881-9.981-50.797-15.037-77.076-15.037m130.522-5.658a2.5 2.5 0 0 1-2.05-1.339 2.5 2.5 0 0 1 .072-2.451c1.66-2.763 3.401-4.988 5.548-6.953-5.381 1.396-11.973 4.164-17.729 9.648 1.039 2.041 3.086 5.924 4.99 9.478.393.735.384 1.584.04 2.288.229.353.407.741.521 1.164.562 2.018-.427 4.225-2.463 5.59-1.057 1.111-1.289 1.891-1.182 2.152.159.379 1.27 1.089 3.239 1.089 2.016 0 4.041-.731 5.563-2.003q.022-.02.049-.038c8.488-6.737 17.074-10.479 25.563-11.155-7.086-4.245-13.901-6.901-22.161-7.47m-238.233 8.667c9.497.758 18.884 4.7 25.731 8.328-.545-1.487-.554-3.199.022-4.915 1.709-5.102 7.801-9.234 16.768-11.577-8.224-4.005-16.407-6.099-23.968-6.099-2.577 0-5.039.249-7.33.742-1.872 2.176-7.277 8.721-11.223 13.521" clip-path="url(#d)" style="fill:#ee3124"/><path d="m149.093 80.23-11.828 2.74-1.042 4.318-4.621 1.069L137 65.49l4.654-1.077 14.892 18.167-4.655 1.078zm-8.77-10.969-2.178 9.706 8.4-1.944zM179.125 70.959l-.025 3.67-11.643-.082-.055 7.793-4.378-.029.145-21.034 16.685.119-.027 3.821-12.307-.086-.037 5.746zM207.716 85.436c-2.821 1.521-6.053 1.768-9.311.989-8.387-2.011-10.682-8.098-9.438-13.432 1.249-5.364 6.391-9.887 14.554-7.933 3.063.735 5.717 2.482 7.542 5.117l-3.435 1.809c-1.168-1.673-3.021-2.766-4.99-3.237-5.451-1.308-8.689 1.817-9.478 5.25-.782 3.401.532 7.462 6.114 8.799 1.967.469 4.369.271 6.173-.718zM67.854 259.093c-.146 1.014.163 2.185.708 3.03 1.337 2.077 3.578 2.413 5.389 1.249 1.443-.93 2.343-2.818.789-5.227-.489-.761-1.069-1.327-2.109-1.735l-1.559 1.004 1.596 2.478-1.484.953-2.671-4.151 3.704-2.385c1.607.315 2.975 1.141 4.069 2.842 2.345 3.642 1.125 6.521-1.185 8.007-2.475 1.593-5.856 1.363-8.059-2.056-.837-1.301-1.222-2.894-.973-4.462zM65.897 243.145l2.719 5.379 2.207-.008 1.063 2.102-11.665.097-1.071-2.115 6.997-9.325 1.07 2.115zm-4.252 5.522 4.938-.095-1.932-3.819zM51.74 230.885l5.615-2.093c2.896-1.082 5.113.321 6.126 3.04.969 2.588.368 5.328-2.586 6.431l-5.613 2.094-.755-2.02 5.615-2.094c1.761-.661 2.286-2.121 1.656-3.803-.63-1.68-2.009-2.256-3.686-1.629l-5.614 2.094zM52.559 214.035c2.56-.664 5.575.441 6.519 4.364.331 1.378.729 3.025 1.06 4.405l-10.165 2.436c-.33-1.377-.728-3.027-1.059-4.402-.927-3.844 1.144-6.153 3.645-6.803m5.229 7.111-.556-2.303c-.613-2.548-2.539-3.152-4.182-2.706-1.571.427-2.908 1.832-2.324 4.265l.557 2.303zM56.078 200.213l.987 8.571-10.389 1.2-.986-8.571 1.899-.22.743 6.429 2.388-.277-.714-6.198 1.824-.209.715 6.196 2.345-.272-.741-6.426zM53.927 187.688l-.083 6.027 1.955 1.016-.029 2.354-10.381-5.313.033-2.373 10.518-5.028-.03 2.373zm-6.326 2.928 4.42 2.201.059-4.28zM47.965 178.563l-.463 3.625-1.776-.228c.419-3.298.776-6.089 1.198-9.406l1.779.228-.464 3.625 8.589 1.092-.274 2.155zM59.99 155.588l-1.812 5.749 1.584 1.534-.708 2.248-8.422-8.079.712-2.261 11.529-1.787-.712 2.26zm-6.906.982 3.604 3.382 1.285-4.086zM60.377 139.038c-.93.427-1.747 1.322-2.161 2.239-1.014 2.25-.08 4.316 1.882 5.202 1.566.708 3.641.433 4.82-2.178.374-.824.535-1.618.308-2.715l-1.687-.763-1.214 2.685-1.605-.725 2.031-4.502 4.017 1.815c.608 1.521.658 3.116-.173 4.96-1.784 3.946-4.865 4.489-7.37 3.359-2.683-1.212-4.329-4.177-2.655-7.882.636-1.411 1.763-2.601 3.219-3.245zM74.682 129.375l-4.338 7.458a13316 13316 0 0 0-9.034-5.256l4.337-7.456 1.651.959-3.253 5.592 2.079 1.21 3.138-5.394 1.589.923-3.14 5.394 2.04 1.185 3.253-5.592zM82.957 117.315l-1.495 2.113-4.792.722-1.209 1.709 2.855 2.02-1.256 1.774-8.548-6.05c1.055-1.494 2.122-2.977 3.18-4.471 1.582-2.209 3.752-2.432 5.227-1.386 1.17.828 1.934 2.258 1 4.278l4.93-.788zm-11.678 1.583 2.732 1.933 1.91-2.702c.801-1.13.461-2.098-.221-2.582-.684-.483-1.72-.471-2.509.646zM266.623 125.257l-4.732-7.215c2.911-1.91 5.831-3.828 8.742-5.74l4.729 7.214-1.598 1.05-3.547-5.411-2.009 1.32 3.422 5.218-1.538 1.008-3.422-5.218-1.974 1.295 3.549 5.411zM282.229 137.755c.367-.613.416-1.838-.125-2.968-.69-1.458-1.578-1.893-2.279-1.559-.824.391-.543 1.569-.083 2.883.788 2.286 1.24 4.553-1.012 5.624-2.106 1.003-3.982-.619-5.089-2.937-1.01-2.127-1.196-4.046.164-5.641l1.547 1.27c-.819.955-.706 2.379-.105 3.642.589 1.234 1.529 2.208 2.559 1.72.889-.424.763-1.623.242-3.069-.783-2.235-1.206-4.443.909-5.453 1.943-.923 3.743.809 4.673 2.721.771 1.621 1.151 3.5.069 4.982zM288.967 153.154l-1.084-3.49 1.713-.532c.984 3.175 1.821 5.865 2.813 9.053l-1.714.535-1.084-3.49-8.274 2.569-.645-2.075zM285.747 172.212c-1.395.258-1.828-2.075-.43-2.33 1.393-.257 1.824 2.077.43 2.33M288.159 198.584l-.065 1.6-1.671-.07.222-5.478 1.67.068-.067 1.728 6.981.276.071-1.793 1.788.072-.159 3.949zM287.166 218.091l1.543.302c-.606-.641-.744-1.942-.566-2.831.448-2.28 1.783-4.5 4.331-3.997 2.269.446 2.924 3.076 2.474 5.357-.456 2.309-2.06 4.496-4.358 4.043l-3.824-.756c-2.283-.452-2.894-2.989-2.436-5.315.483-2.457 1.809-4.531 3.961-4.104l-.418 2.131c-.908-.179-1.627 1.057-1.863 2.271-.271 1.274.105 2.689 1.219 2.909zm4.892-4.409c-1.126-.222-1.952.79-2.233 2.212s.067 2.75 1.213 2.96c1.13.205 1.905-.883 2.185-2.273.26-1.342-.035-2.678-1.165-2.899M285.255 232.913c.796-.754 1.684-.913 2.439-.627 1.969.744 2.219 3.126 1.336 5.467-.882 2.326-2.692 4.033-4.648 3.294-.672-.251-1.326-.974-1.322-2.081-.824.955-2.034 1.075-2.797.807-2.293-.813-2.328-3.467-1.405-5.865.897-2.334 2.649-4.348 4.925-3.435.747.298 1.485 1.177 1.472 2.44m-2.306-.325c-.75-.3-1.8.321-2.421 1.969-.625 1.648-.262 2.808.512 3.083.97.346 1.842-.645 2.352-1.999.474-1.264.517-2.673-.443-3.053m1.783 3.559c-.471 1.247-.329 2.442.507 2.795.816.345 1.732-.399 2.253-1.772.574-1.521.156-2.563-.528-2.787-.864-.287-1.783.579-2.232 1.764M276.895 251.969c.9-.625 1.805-.646 2.506-.25 1.834 1.038 1.72 3.429.49 5.609-1.224 2.163-3.274 3.577-5.098 2.548-.624-.353-1.156-1.167-.987-2.261-.959.82-2.178.758-2.888.374-2.145-1.154-1.776-3.784-.501-6.011 1.247-2.171 3.281-3.897 5.392-2.649.693.413 1.289 1.394 1.086 2.64m-2.231-.674c-.695-.41-1.825.046-2.691 1.582-.869 1.534-.687 2.729.038 3.118.903.495 1.914-.354 2.628-1.616.665-1.174.917-2.562.025-3.084m1.223 3.792c-.657 1.162-.699 2.364.076 2.841.755.463 1.774-.133 2.497-1.409.801-1.42.541-2.51-.099-2.833-.811-.422-1.85.296-2.474 1.401M134.073 314.081l.601 3.141-10.742 2.056 1.274 6.668-4.039.773-3.44-17.994 15.395-2.947.625 3.27-11.355 2.172.939 4.916zM146.357 322.663l-.7-7.544-9.326-9.79-.016-.16 4.873-.454 6.222 7.028 5.07-8.081 4.933-.461.015.156-7.676 11.379.701 7.544zM164.717 303.222l-.079 15.152 11.219.057-.014 3.196-15.333-.078.093-18.348zM199.356 314.67c-.446 4.618-4.333 8.888-11.919 8.005l-8.514-.989 2.125-18.228c2.662.313 5.854.683 8.514.993 7.433.865 10.225 5.703 9.794 10.219m-15.992 4.181 4.459.52c4.92.573 7.226-2.222 7.479-5.201.239-2.848-1.414-5.917-6.121-6.467l-4.458-.516zM216.511 328.278l-15.875-3.834c1.43-5.939 2.869-11.9 4.303-17.84l15.875 3.839-.784 3.26-11.911-2.877-.989 4.103 11.484 2.773-.756 3.134-11.482-2.774-.972 4.027 11.909 2.877z" clip-path="url(#d)" style="fill:#fff"/></g></svg>