<svg xmlns="http://www.w3.org/2000/svg" xml:space="preserve" viewBox="0 0 600 600"><defs><path id="a" d="M224.368 175.653h129.281V323.67H224.368z"/></defs><circle cx="300" cy="300" r="300" style="fill:#fff;stroke:none;stroke-width:.2;stroke-dasharray:none"/><circle cx="300" cy="300" r="287.5" style="fill:#000;stroke:none;stroke-width:.2;stroke-dasharray:none"/><circle cx="300" cy="300" r="250" style="fill:#fff;stroke:none;stroke-width:.2;stroke-dasharray:none"/><circle cx="300" cy="300" r="175" style="fill:#000;stroke:none;stroke-width:.2;stroke-dasharray:none"/><circle cx="300" cy="300" r="158.439" style="fill:#fff;stroke:none;stroke-width:.2;stroke-dasharray:none"/><circle cx="300" cy="300" r="154.465" style="fill:#000;stroke:none;stroke-width:.2;stroke-dasharray:none"/><path d="M257.383 213.42q-2.84 0-4.613 2.08-1.683 1.982-1.683 4.902 0 2.851 1.594 4.756 1.728 2.06 4.666 2.06 1.79 0 3.321-1.074c.885-.598 1.255-1.317 1.724-2.209l-.558-.144c-.546.934-1.047 1.497-1.504 1.777a4.85 4.85 0 0 1-2.61.742q-1.957 0-3.24-1.592-1.274-1.6-1.274-4.277 0-2.91 1.211-4.57 1.221-1.66 3.135-1.66 1.896 0 3.018 1.542.588.82.953 2.159h.419l-.17-4.493h-.383q-.089.332-.32.489a.86.86 0 0 1-.49.156q-.125 0-1.166-.322a6.9 6.9 0 0 0-2.03-.323M244.063 203.444v.371q1.08.078 1.392.41.313.322.313 1.387v8.662q0 1.299-.284 1.611-.275.303-1.42.43v.361h5.434v-.36q-1.097-.09-1.43-.392-.321-.312-.321-1.416v-4.248h2.484q1.23 0 1.572.38.341.373.559 1.534h.454v-4.629h-.454q-.209 1.163-.55 1.543-.34.38-1.58.38h-2.485v-4.589q0-.4.104-.537.113-.136.502-.136h2.65q1.62 0 2.17.37.548.362.747 1.739h.54l-.066-2.871zM224.71 180.087v.37q1.21.06 1.562.382.36.312.361 1.416v8.896q0 1.123-.361 1.436-.353.302-1.563.37v.362h6.086q.509.153.784.649.375.654 1.33 3.545l1.54 4.678 1.285 4.16h.272l2.755-8.467 2.135 6.153.726 2.314h.271l1.076-3.633.744-2.295 1.907-5.947q.228-.693.683-.976.254-.167.735-.245v-.37h-3.552v.37q.525.02.787.147.473.214.473.771 0 .157-.044.41-.07.45-.263 1.026l-2.24 6.787-2.589-7.5a12 12 0 0 1-.175-.537 1.3 1.3 0 0 1-.035-.313q0-.518.403-.683.254-.098.927-.108v-.37h-4.794v.37q.568.01.848.147.472.225.709.888l.848 2.412-1.907 5.645-2.59-7.52a13 13 0 0 1-.148-.478 1.7 1.7 0 0 1-.044-.381q0-.44.403-.605.227-.088.76-.108v-.37h-.836l.066-.025q2.168-.879 2.168-3.222 0-1.397-.977-2.169-.976-.78-2.353-1.113 1.113-.273 1.67-.693.986-.733.986-2.149 0-1.884-1.416-2.656-1.406-.771-3.808-.771zm4.872.742q1.65 0 2.46.342 1.466.624 1.466 2.412 0 1.513-1.27 2.1-.664.302-1.67.322l-1.904.029v-4.512q0-.478.146-.586.148-.107.772-.107m-.918 5.967q.254.01.371.01h.586q1.875 0 3.086.615t1.211 2.295q0 1.69-1.035 2.285t-2.568.596q-1.065 0-1.358-.147-.293-.156-.293-.674z" style="font-style:normal;font-variant:normal;font-weight:700;font-stretch:normal;font-size:20px;font-family:&quot;Times New Roman&quot;;-inkscape-font-specification:&quot;Times New Roman, Bold&quot;;white-space:pre;shape-inside:url(#a);fill:#fff;stroke:none;stroke-width:.0473087;stroke-dasharray:none" transform="matrix(3.77347 0 0 4.73627 -619.088 -664.366)"/><circle cx="100.24" cy="216.828" r="7.5" style="fill:#000;stroke:none;stroke-width:.2;stroke-dasharray:none"/><circle cx="107.858" cy="404.153" r="7.5" style="fill:#000;stroke:none;stroke-width:.2;stroke-dasharray:none"/><circle cx="-499.76" cy="216.828" r="7.5" style="fill:#000;stroke:none;stroke-width:.2;stroke-dasharray:none" transform="scale(-1 1)"/><circle cx="-492.142" cy="404.153" r="7.5" style="fill:#000;stroke:none;stroke-width:.2;stroke-dasharray:none" transform="scale(-1 1)"/><path d="m141.714 188.323-26.669-20.977 4.758-6.048q1.724-2.193 3.54-3.628 1.815-1.435 3.673-1.977 1.823-.57 3.696-.185 1.9.35 3.775 1.824 1.803 1.42 2.558 3.444.747 1.962.397 3.862l.036.028q2.698-1.829 5.543-1.88 2.811-.08 5.145 1.757 2.017 1.585 2.855 3.504.83 1.856.693 3.923-.11 2.032-1.105 4.17-.966 2.102-2.552 4.118zm1.623-11.09q1.92-2.44 1.91-4.394.02-1.99-1.643-3.297-1.662-1.307-3.598-.884-1.937.424-4.107 3.183l-1.697 2.157 7.216 5.676zm-12.135-7.427q1.67-2.122 1.556-3.871-.085-1.785-1.853-3.176-1.698-1.335-3.22-.929-1.557.378-3.282 2.571l-.918 1.167 6.827 5.37zM145.622 155.683q-2.448-2.701-3.526-6.036t-.848-6.7q.232-3.429 1.76-6.635 1.498-3.24 4.232-5.717 2.702-2.448 6.009-3.623 3.34-1.205 6.743-1.07 3.372.103 6.615 1.537 3.242 1.435 5.75 4.202t3.616 6.136q1.078 3.335.846 6.764-.263 3.396-1.791 6.602-1.558 3.173-4.326 5.68-2.635 2.388-5.912 3.596t-6.682 1.136q-3.372-.102-6.615-1.536-3.273-1.468-5.871-4.336m5.099-4.56q1.662 1.835 3.749 2.798 2.056.93 4.218 1.036 2.16.107 4.202-.59 2.045-.759 3.645-2.209 1.768-1.601 2.694-3.595.897-2.026 1.033-4.154.107-2.161-.65-4.27-.756-2.107-2.387-3.908t-3.655-2.76q-2.024-.96-4.155-1.034-2.128-.136-4.202.59-2.105.692-3.84 2.263-1.7 1.541-2.596 3.568-.927 1.993-1.034 4.154-.073 2.131.65 4.27.726 2.074 2.328 3.842M175.81 109.34q2.465-1.573 4.828-2.387t4.52-.696q2.158.118 4.058 1.254t3.376 3.45q1.743 2.732 1.595 5.762-.172 2.993-2.37 6.157l15.902 6.347-6.827 4.357-14.263-6.538-.835.532 7.094 11.115-5.69 3.631-18.254-28.601zm7.128 13.762 1.251-.799q2.618-1.67 3.43-3.576t-.568-4.069q-1.308-2.048-3.278-2.125-1.971-.077-4.589 1.594l-1.403.896zM212.755 89.611l2.477 5.3-11.74 5.488 2.953 6.319 11.293-5.279 2.439 5.218-11.293 5.279 4.021 8.601 11.822-5.526 2.478 5.3-17.937 8.384L194.9 97.958zM228.167 84l3.7 12.28 12.41-3.74-3.7-12.28 6.419-1.934 9.79 32.487-6.42 1.935-4.298-14.262-12.409 3.74 4.298 14.261-6.463 1.948-9.79-32.487zM268.53 74.626l4.73-.617 18.671 31.78-7.363.961-3.76-6.906-13.476 1.759-2.04 7.664-7.095.926zm9.37 19.97-2.51-4.619q-.846-1.614-1.686-3.183-.84-1.57-1.687-3.184-.403 1.777-.857 3.516-.409 1.732-.901 3.521l-1.373 5.126z" style="font-weight:700;font-size:45px;font-family:&quot;Futura Now Headline&quot;;-inkscape-font-specification:&quot;Futura Now Headline Bold&quot;;letter-spacing:-1.75px;word-spacing:0;white-space:pre;stroke-width:.2"/><path d="m299.473 72.043 4.224.233 7.89 22.79L322.254 73.3l4.179.23 3.971 34.201-6.83-.376-1.866-20.069-9.546 19.439-2.786-.154-7.031-20.399-4.381 19.769-6.74-.372zM350.468 76.844l6.822 2.302.383 23.354 14.37-18.375 2.857.964.041 23.238 14.882-18.202 6.864 2.317-23.768 27.789-3.582-1.209-.045-22.242-13.684 17.609-3.539-1.195zM392.933 110.11q1.88-3.123 4.761-5.117 2.881-1.995 6.17-2.747 3.35-.767 6.861-.23 3.534.5 6.696 2.403 3.123 1.88 5.202 4.707 2.118 2.851 2.97 6.148.876 3.258.438 6.776-.437 3.519-2.363 6.719t-4.83 5.233q-2.882 1.995-6.233 2.762-3.327.728-6.838.19-3.487-.576-6.687-2.502-3.046-1.833-5.149-4.622-2.103-2.79-3.016-6.07-.876-3.258-.438-6.777.46-3.557 2.456-6.873m5.837 3.566q-1.277 2.12-1.596 4.397-.297 2.238.225 4.338t1.777 3.853q1.318 1.738 3.168 2.852 2.044 1.23 4.22 1.542 2.198.273 4.275-.21 2.1-.522 3.9-1.854t3.053-3.415 1.589-4.296-.21-4.276q-.484-2.076-1.778-3.853-1.27-1.816-3.275-3.023-1.967-1.183-4.166-1.456-2.176-.312-4.275.21-2.062.545-3.9 1.854-1.777 1.294-3.007 3.337M428.631 132.295q2.458-2.692 5.675-4.081 3.218-1.39 6.59-1.48 3.436-.092 6.772 1.125 3.367 1.185 6.092 3.673 2.693 2.457 4.175 5.638 1.516 3.212 1.703 6.612.217 3.366-.903 6.73t-3.64 6.122q-2.517 2.759-5.765 4.181-3.218 1.389-6.654 1.482-3.405.06-6.741-1.158-3.306-1.25-6.065-3.769-2.626-2.397-4.139-5.545t-1.763-6.545q-.218-3.366.903-6.73 1.151-3.397 3.76-6.255m5.022 4.644q-1.669 1.828-2.43 3.997-.73 2.136-.632 4.297.098 2.162.984 4.128.95 1.963 2.545 3.42 1.762 1.608 3.834 2.341 2.102.7 4.233.636 2.162-.099 4.189-1.051 2.027-.953 3.665-2.748 1.638-1.794 2.402-3.9t.636-4.233q-.066-2.131-.985-4.128-.889-2.03-2.617-3.607-1.695-1.548-3.797-2.248-2.072-.734-4.234-.635-2.128.129-4.188 1.05-1.997.92-3.605 2.681M446.011 172.307l27.047-20.488 5.108 6.744q2.636 3.48 3.886 6.993t1.013 6.853q-.173 3.349-1.904 6.354-1.67 3.014-4.97 5.514-3.192 2.418-6.518 3.244-3.263.835-6.479.166-3.19-.633-6.178-2.716-2.962-2.046-5.516-5.418zm10.141 3.326q1.685 2.224 3.582 3.61 1.932 1.36 3.96 1.8 2.062.413 4.193-.129 2.13-.54 4.21-2.117 4.054-3.07 4.53-7.212.502-4.107-3.22-9.021l-1.224-1.614-17.253 13.07z" style="font-weight:700;font-size:45px;font-family:&quot;Futura Now Headline&quot;;-inkscape-font-specification:&quot;Futura Now Headline Bold&quot;;letter-spacing:-1.75px;word-spacing:0;white-space:pre;stroke-width:.2"/><g style="fill:#000"><path d="m158.65 431.284-4.587 3.845-7.458-8.898-5.38 4.51 7.054 8.415-4.449 3.729-7.054-8.415-11.587 9.713-4.336-5.172 26.003-21.797zM149.017 446.395q2.39-2.752 5.572-4.221t6.55-1.643q3.433-.178 6.799.956 3.395 1.1 6.181 3.518 2.753 2.39 4.315 5.533 1.595 3.173 1.867 6.567.3 3.36-.736 6.751-1.036 3.39-3.485 6.211-2.448 2.82-5.66 4.323-3.181 1.47-6.614 1.648-3.403.144-6.768-.99-3.337-1.168-6.157-3.616-2.685-2.33-4.276-5.44t-1.926-6.499q-.301-3.36.735-6.75 1.066-3.425 3.603-6.348m5.136 4.518q-1.622 1.87-2.33 4.056-.677 2.153-.524 4.312.152 2.158 1.087 4.102.998 1.939 2.63 3.355 1.8 1.563 3.89 2.245 2.12.648 4.248.53 2.158-.153 4.161-1.155t3.596-2.838 2.304-3.959.53-4.248q-.12-2.129-1.088-4.102-.939-2.007-2.706-3.541-1.733-1.504-3.852-2.152-2.09-.682-4.248-.53-2.125.182-4.161 1.155-1.974.97-3.537 2.77M180.394 472.908q1.812-3.163 4.65-5.22t6.11-2.878q3.332-.84 6.854-.378 3.544.423 6.746 2.257 3.162 1.812 5.303 4.594 2.179 2.804 3.102 6.081.945 3.239.584 6.766-.36 3.527-2.218 6.768-1.856 3.24-4.716 5.336-2.838 2.057-6.171 2.896-3.31.8-6.832.339-3.5-.501-6.74-2.358-3.085-1.767-5.247-4.51t-3.147-6.003q-.946-3.239-.585-6.766.384-3.566 2.307-6.924m5.913 3.44q-1.23 2.147-1.5 4.43-.249 2.243.318 4.33.567 2.09 1.86 3.815 1.355 1.71 3.23 2.783 2.069 1.186 4.25 1.45 2.205.226 4.271-.302 2.088-.567 3.859-1.938t2.979-3.48 1.495-4.33q.287-2.22-.303-4.27-.528-2.065-1.86-3.814-1.31-1.787-3.34-2.95-1.991-1.141-4.196-1.367-2.182-.265-4.27.302-2.049.59-3.859 1.939-1.748 1.332-2.934 3.401M220.716 475.84l20.515 7.832-2.23 5.843-7.063-2.696-9.87 25.855-6.349-2.423 9.87-25.855-7.104-2.713zM236.723 517.691l7.9-32.997 7.483 1.791q2.714.65 4.776 1.699 2.063 1.049 3.332 2.51 1.28 1.417 1.714 3.279.477 1.872-.078 4.192-.535 2.232-2.058 3.764-1.47 1.5-3.342 1.976l-.01.044q2.789 1.686 4.026 4.25 1.247 2.52.556 5.408-.597 2.494-1.99 4.058-1.338 1.53-3.273 2.27-1.892.75-4.25.741-2.314.001-4.808-.596zm10.752-3.163q3.02.723 4.79-.103 1.815-.815 2.308-2.871t-.703-3.639-4.608-2.399l-2.67-.639-2.137 8.928zm1.67-14.13q2.626.629 4.168-.205 1.585-.823 2.11-3.012.502-2.1-.503-3.313-.995-1.256-3.708-1.905l-1.445-.346-2.022 8.446zM282.007 491.665l4.753.393 11.552 35.003-7.4-.613-2.22-7.544-13.543-1.12-3.61 7.06-7.13-.59zm4.948 21.496-1.479-5.044q-.487-1.756-.977-3.467t-.977-3.468q-.77 1.653-1.58 3.256-.765 1.608-1.623 3.252l-2.423 4.722zM305.503 526.483l-1.85-33.88 6.74-.367 1.51 27.633 10.064-.55.341 6.246zM330.441 524.524l-5.57-33.47 6.66-1.108 4.542 27.3 9.943-1.655 1.027 6.17zM384.32 492.506q-1.675-3.238-1.965-6.736-.289-3.498.734-6.712 1.042-3.275 3.279-6.002 2.256-2.788 5.654-4.546 3.917-2.026 8.747-1.991l3.595 6.753q-5.432-1.294-9.429.773-1.998 1.034-3.384 2.764-1.405 1.69-2.062 3.751-.616 2.042-.443 4.334.191 2.231 1.307 4.39 1.075 2.078 2.786 3.524 1.69 1.406 3.711 2.082 2.062.657 4.274.526 2.232-.192 4.31-1.267 1.12-.579 1.996-1.235.856-.696 1.529-1.55.712-.875 1.3-1.99.59-1.115 1.134-2.512l3.476 6.917q-1.282 1.93-3.193 3.525-1.85 1.615-3.888 2.67-3.277 1.695-6.735 1.964-3.418.248-6.572-.756-3.174-1.043-5.82-3.22-2.667-2.219-4.342-5.456M424.042 489.644l-19.408-27.83 5.536-3.861 15.83 22.7 8.269-5.766 3.578 5.13zM420.86 450.538l5.04-4.625 13.996 15.25q2.769 3.018 5.279 3.157 2.513.076 4.668-1.901t2.23-4.491q.11-2.543-2.72-5.627l-13.905-15.151 5.006-4.595 14.483 15.782q2.191 2.387 3.102 4.91.88 2.49.68 4.934-.197 2.38-1.41 4.653t-3.267 4.16q-2.056 1.886-4.424 2.9-2.369 1.013-4.79 1.036-2.452-.01-4.858-1.1-2.436-1.124-4.627-3.51zM470.469 449.708l-26.466-21.232 4.816-6.003q1.745-2.176 3.575-3.593 1.829-1.417 3.692-1.941 1.828-.553 3.697-.15 1.897.368 3.757 1.86 1.79 1.437 2.525 3.469.728 1.969.36 3.866l.035.028q2.716-1.802 5.562-1.827 2.811-.052 5.128 1.807 2 1.605 2.82 3.532.813 1.863.655 3.929-.13 2.03-1.144 4.159-.987 2.093-2.592 4.094zm1.73-11.073q1.943-2.422 1.953-4.376.037-1.989-1.612-3.312-1.65-1.324-3.59-.919t-4.137 3.143l-1.718 2.141 7.16 5.745zm-12.064-7.544q1.69-2.106 1.594-3.856-.068-1.785-1.823-3.193-1.685-1.352-3.21-.96-1.56.363-3.307 2.54l-.929 1.158 6.774 5.434z" style="font-weight:700;font-size:45px;font-family:&quot;Futura Now Headline&quot;;-inkscape-font-specification:&quot;Futura Now Headline Bold&quot;;letter-spacing:4px;word-spacing:25px;white-space:pre;fill:#000;stroke-width:.2"/></g></svg>