<svg xmlns="http://www.w3.org/2000/svg" viewBox="0 0 205.15 205.15"><defs><clipPath id="a" clipPathUnits="userSpaceOnUse"><path d="M0 0h595.276v841.89H0Z"/></clipPath><clipPath id="b" clipPathUnits="userSpaceOnUse"><path d="M0 0h595.276v841.89H0Z"/></clipPath><clipPath id="c" clipPathUnits="userSpaceOnUse"><path d="M0 0h595.276v841.89H0Z"/></clipPath><clipPath id="d" clipPathUnits="userSpaceOnUse"><path d="M0 0h595.276v841.89H0Z"/></clipPath><clipPath id="e" clipPathUnits="userSpaceOnUse"><path d="M0 0h595.276v841.89H0Z"/></clipPath><clipPath id="f" clipPathUnits="userSpaceOnUse"><path d="M0 0h595.276v841.89H0Z"/></clipPath><clipPath id="g" clipPathUnits="userSpaceOnUse"><path d="M0 0h595.276v841.89H0Z"/></clipPath><clipPath id="h" clipPathUnits="userSpaceOnUse"><path d="M0 0h595.276v841.89H0Z"/></clipPath><clipPath id="i" clipPathUnits="userSpaceOnUse"><path d="M0 0h595.276v841.89H0Z"/></clipPath></defs><g style="stroke-width:.156699"><g style="stroke-width:.156699"><g clip-path="url(#a)" style="stroke-width:.156699" transform="matrix(2.25131 0 0 -2.25131 -561.917 1825.157)"><g style="stroke-width:.156699"><path d="m0 0-.035.011c-.063.02-6.374 2.038-12.598 8.262-4.226 4.225-6.386 8.536-7.298 10.73a9.3 9.3 0 0 0-.717 3.588v26.221c0 1.355.96 2.549 2.284 2.84l16.934 3.914a6.7 6.7 0 0 0 2.859 0h.001l16.936-3.914a2.925 2.925 0 0 0 2.282-2.84V22.591a9.3 9.3 0 0 0-.717-3.588c-.912-2.194-3.072-6.505-7.298-10.73C6.409 2.049.098.031.035.011Z" style="fill:#fff;fill-opacity:1;fill-rule:nonzero;stroke:none;stroke-width:.156699" transform="translate(295.158 735.715)"/></g><g style="stroke-width:.156699"><path d="M0 0h-20.418v-7.816c0-1.216.242-2.419.709-3.542.986-2.373 3.137-6.558 7.273-10.693C-6.646-27.841-.861-29.954 0-30.246z" style="fill:#d22027;fill-opacity:1;fill-rule:nonzero;stroke:none;stroke-width:.156699" transform="translate(295.043 766.12)"/></g><g style="stroke-width:.156699"><path d="M0 0c1.984 0 3.713-.808 5.031-2.07.07 1.66.344 6.465.34 6.795-.006.541-.308 3.577-.242 4.075L-7.016 28.865c-1.134.182-1.496-.475-2.565 0-1.523.053-3.265-.277-4.839.262l.077-1.113c-.006-.013-.275-.208-.28-.22.015-.803-.003-1.391 0-2.195.004-.841.124-1.625.534-2.302L-.026-.001z" style="fill:#fff;fill-opacity:1;fill-rule:nonzero;stroke:none;stroke-width:.156699" transform="translate(289.793 737.28)"/></g></g><g style="stroke-width:.156699"><path d="m0 0-13.537 22.41.4.241L.4.242Z" style="fill:#121210;fill-opacity:1;fill-rule:nonzero;stroke:none;stroke-width:.156699" transform="matrix(2.25131 0 0 -2.25131 87.601 161.597)"/></g><g style="stroke-width:.156699"><path d="m0 0-12.548 20.73.4.242L.4.242Z" style="fill:#121210;fill-opacity:1;fill-rule:nonzero;stroke:none;stroke-width:.156699" transform="matrix(2.25131 0 0 -2.25131 102.5 147.269)"/></g><g clip-path="url(#b)" style="stroke-width:.156699" transform="matrix(2.25131 0 0 -2.25131 -561.917 1825.157)"><g style="stroke-width:.156699"><path d="M0 0h20.646v18.381a2.79 2.79 0 0 1-2.193 2.726L1.517 25.021a6.5 6.5 0 0 1-1.517.15Z" style="fill:#d22027;fill-opacity:1;fill-rule:nonzero;stroke:none;stroke-width:.156699" transform="translate(295.043 766.145)"/></g><g style="stroke-width:.156699"><path d="m0 0-12.099 20.03c-1.134.183-2.214.601-3.283 1.075-1.522.054-2.538.18-4.112.719l-.737-.445q-.008-.019-.017-.036c.015-.803.034-1.606.037-2.409.004-.842-.066-1.623-.236-2.367L-8.672-2.925q.168.016.332.016c2.759.009 5.527.165 8.29.191-.018.387-.033.774-.037 1.161A11 11 0 0 0 0 0" style="fill:#fff;fill-opacity:1;fill-rule:nonzero;stroke:none;stroke-width:.156699" transform="translate(315.414 769.001)"/></g></g><g style="stroke-width:.156699"><path d="m0 0-11.615 19.228.4.241L.4.242Z" style="fill:#121210;fill-opacity:1;fill-rule:nonzero;stroke:none;stroke-width:.156699" transform="matrix(2.25131 0 0 -2.25131 128.11 100.599)"/></g><g style="stroke-width:.156699"><path d="m0 0-11.691 19.355.4.241L.4.242Z" style="fill:#121210;fill-opacity:1;fill-rule:nonzero;stroke:none;stroke-width:.156699" transform="matrix(2.25131 0 0 -2.25131 146.574 92.26)"/></g><path d="M294.807 735.837h.701v55.481h-.701z" style="fill:#100f0d;fill-opacity:1;fill-rule:nonzero;stroke:none;stroke-width:.156699" transform="matrix(2.25131 0 0 -2.25131 -561.917 1825.157)"/><path d="M274.626 765.77h41.063v.701h-41.063z" style="fill:#100f0d;fill-opacity:1;fill-rule:nonzero;stroke:none;stroke-width:.156699" transform="matrix(2.25131 0 0 -2.25131 -561.917 1825.157)"/><g clip-path="url(#c)" style="stroke-width:.156699" transform="matrix(2.25131 0 0 -2.25131 -561.917 1825.157)"><g style="stroke-width:.156699"><path d="m0 0-.418.13c-.269.084-6.678 2.134-13.124 8.58-4.382 4.383-6.628 8.865-7.576 11.146a10.6 10.6 0 0 0-.816 4.081v26.221a4.22 4.22 0 0 0 3.294 4.096l16.921 3.911a8 8 0 0 0 3.423.003l.015-.003 16.936-3.915c1.894-.415 3.279-2.138 3.279-4.092V23.937a10.6 10.6 0 0 0-.816-4.081c-.948-2.281-3.193-6.763-7.576-11.146C7.096 2.264.687.214.418.13Zm0 55.548c-.371 0-.742-.04-1.103-.119l-16.92-3.911a1.4 1.4 0 0 1-1.106-1.36V23.937a7.8 7.8 0 0 1 .601-3.005c.868-2.089 2.929-6.198 6.969-10.239C-6.508 5.642-1.462 3.503-.002 2.956c1.46.551 6.533 2.709 11.561 7.737 4.04 4.041 6.101 8.15 6.969 10.239a7.8 7.8 0 0 1 .601 3.005v26.221c0 .647-.458 1.218-1.09 1.356L1.096 55.43A5 5 0 0 1 0 55.548" style="fill:#9c9b9b;fill-opacity:1;fill-rule:nonzero;stroke:none;stroke-width:.156699" transform="translate(295.158 734.368)"/></g><g style="stroke-width:.156699"><path d="m0 0 .188-.1s.033-.172.15-.247C.455-.421.58-.363.58-.363s.098-.192.319-.172a.36.36 0 0 0-.095.171c-.016.11.011.228.011.228s.057.203.271.197.495-.332.398-.6c-.037-.102-.263-.488-.809-.554-.281-.034-.387-.052-.349-.233s.188-.253.383-.244a.65.65 0 0 1 .312.087s.04-.151-.053-.365a1 1 0 0 0-.073-.141l.002.001c-.017-.03-.031-.067-.045-.097a.15.15 0 0 0-.071.026.3.3 0 0 0-.071.066c-.042.046-.09.072-.193.098-.239.059-.434-.052-.504-.082-.037-.166-.023-.392.132-.522.064-.053.149-.074.149-.074l-.166-.005c-.003 0-.244-.027-.455-.131-.322-.158-.338-.339-.348-.397.047-.069.127-.128.334-.158a.94.94 0 0 1 .394.029c.176.057.62.258.62.258s-.539-.5-.678-.661a.7.7 0 0 1-.143-.386c.089-.064.449-.236.757-.026.195.133.737.542.743.547l.308.257-.248-.315a66 66 0 0 1-.377-.642C.824-4.568.859-4.842.856-4.87c.144-.047.445.012.553.074a.78.78 0 0 1 .363.519c.049.209.094.379.096.388l.086.303-.003-.315c0-.002.071-.774.555-.912.593.046.493 1.428.493 1.428l.098-.357c.001-.004.101-.326.372-.636.252-.288.54-.316.645-.338.026.09.089.243.003.489a2.1 2.1 0 0 1-.313.498c.004-.003.357-.24.633-.36.26-.112.571-.047.609-.006.061.068.003.288-.269.558-.227.226-.437.45-.439.453l-.223.231.275-.166s.119-.066.289-.171a.77.77 0 0 1 .65-.079.4.4 0 0 1 .153.088c-.05.09-.264.448-.542.595a3 3 0 0 1-.316.144l-.305.108s.724-.215 1.042.074a.28.28 0 0 1 .082.142 2.3 2.3 0 0 1-.601.251c-.107.028-.287.08-.354.088.134-.013.238.018.343.048.292.101.431.312.411.376 0 0-.406-.048-.491.088a.14.14 0 0 0 .039.206s.295.19.448.281c.696.417.554 1.008.478 1.117.03-.025-.11-.122-.256-.183-.144-.059-.287-.078-.334.068-.034.102.133.28.041.355 0 0-.145-.129-.262-.012-.107.107-.004.218.036.268s.211.196.303.38.043.592-.143.661c0 0-.108-.423-.386-.454-.136-.015-.26.059-.344.134a.6.6 0 0 0-.151.292c-.047.24.06.65.06.65-.092.092-.28.003-.404-.154-.063-.079-.119-.222-.202-.26-.125-.057-.218.158-.218.158-.076.017-.133-.107-.174-.2-.042-.092-.191-.188-.283-.181-.219.017-.134.368-.141.386 0 0-.19-.099-.361-.331-.024-.034-.063-.019-.146-.041-.343-.092-.487-.41-.528-.621-.318-.001-.736-.019-.94-.101C.527 1.008.691.757.691.757S.17.642-.022.4 0 0 0 0m1.59.97S1.335.829 1.055.493c.072.168.047.301-.073.338.178.155.608.139.608.139" style="fill:#d22027;fill-opacity:1;fill-rule:nonzero;stroke:none;stroke-width:.156699" transform="translate(300.643 760.493)"/></g><g style="stroke-width:.156699"><path d="M0 0a5.6 5.6 0 0 0-.898.585c-.4-.127-.82-.388-.943-.996-.091-.448.031-.725.213-.859.181-.134.433-.102.527-.252.095-.149.071-.346-.055-.59s-.44-.59-.732-.67c-1.024-.28-.997.865-1.654.764-.264-.04-.315-.291-.315-.291s.252.047.362-.087c.111-.134.032-.323.047-.386.016-.063.048-.149.237-.228s-.741.298-1.032-.315c-.177-.373.11-.528.11-.528s.014.21.26.331c.409.202.922.11 1.016.055.095-.055.102-.126-.031-.134-.134-.008-.536.021-.723-.128-.562-.453.226-.81.226-.81s-.084.394.174.434c.187.029.385-.229.551-.176.284.089.231.468.568.409.349-.06-.006-.578.387-.705.247-.08.334.094.357.165 0 0-.398-.135-.052.662a.8.8 0 0 1 .063.228s.293-.46.695-.197c.278.183.414-.094.414-.094.078.063.038.237.054.379a.37.37 0 0 0 .181.298c.326.216.608-.1.608-.1.063.102-.002.396-.125.462-.308.165-.52-.039-.52-.039s-.102.339.471.555c0 0-.499.273-.849-.154-.223-.272-.299-.527-.354-.488s.094.673.653 1.189c.864.797 1.257.304 1.947.898.178.154.247.36.267.55C1.665-.33.813-.424 0 0" style="fill:#d22027;fill-opacity:1;fill-rule:nonzero;stroke:none;stroke-width:.156699" transform="translate(303.477 753.793)"/></g><g style="stroke-width:.156699"><path d="M0 0c-.194.462.408.816.047 1.566 0 0-.045-.394-.344-.4-.194-.003-.441.284-.583.552-.143.269-.268.16-.461.394s.316.534.03.956c0 0-.059-.344-.367-.349-.076-.001-.2.014-.342.248-.143.235-.27.568-.049 1.014.166.336.438.033.976.34.321.183.421.681.292.955 0 0-.351-.578-.473-.373-.088.149.441.411.22.923 0 0-.186-.369-.279-.302-.092.067.3.498.122.824 0 0-.225-.365-.44-.154-.158.155.017.435.125.52.225.177.504.119.64.497.16.443-.457.899-.457.899s.077-.436-.163-.627c-.401-.319-.998-.026-1.123-.549-.026-.109-.064-.394.326-.499.342-.092.481-.714.119-.816-.478-.135-.415.652-.415.652-.05-.009-.438-.406-.04-1.095.329-.57-.158-.897-.152-1.396.007-.639.401-.913.536-1.039.199-.184.727-.631.363-.942-.225-.192-.404.156-.404.156a.3.3 0 0 1-.034-.267c.029-.082.091-.217.386-.277C-1.285 1.278.139.859-.57-.154c-.271-.387-.992-.179-1.157-.139-.313.075-.415.093-.578.167-.426.195-.436.717-.786 1.204-.537.747-1.257.694-1.762.921-.3.135-.54.319-.728.506-.025.016.054-.125.076-.179.175-.437.025-.809.025-.809s-.511.077-.85.532c-.138.187-.239.294-.303.446-.003-.122-.043-.964-.613-.976-.294-.005-.613.598-.609.785.001.025-.01.05-.013.077l-.022-.129a.95.95 0 0 0-.41-.65c-.287-.177-.811-.054-.811-.054s-.061.294.244.853c.043.079.142.237.244.377-.187-.153-.42-.339-.531-.415-.367-.249-.907.007-.979.085l-.012.012v.017c0 .011.008.254.173.447.075.088.159.184.316.313-.062-.03-.333-.126-.544-.084-.275.054-.422.229-.429.237l-.012.012v.017c0 .012-.034.306.472.552.139.067.291.112.392.125-.247.144-.164.446-.121.592l.005.018h.001c-.06.004-.111.005-.141.005-.109 0-.327.008-.419.1s.022.286.058.453c.21.976-.364.935-.364.935.174-.278-.122-.516-.18-.55-.059-.033-.193.151-.193.151s-.228.308-.451.426c-.43.227-.74-.043-.632-.055.152-.016.363-.29.424-.397.118-.209.122-.376.122-.376s-.403.202-.712.017c-.352-.212-.16-.578-.16-.578s-.049.138.11.192c.093.032.201-.117.285-.26.083-.142.201-.234.301-.243.101-.008.193.042.218-.042.025-.083-.15-.106-.243-.194-.217-.205-.277-.483-.127-.698.177-.254.425-.181.466-.147 0 0-.085.035-.099.199a.437.437 0 0 0 .397.446c.302.034.478-.327.478-.327s-.292-.302-.142-.343c.494-.137.507-.655.591-.872.071-.185.173-.228.459-.287-.004-.008.025.007.022.002a.43.43 0 0 0-.352-.176c-.117-.004-.168.008-.35-.093-.188-.104-.345-.334-.396-.309-.05.025-.004.193-.008.276a.54.54 0 0 1-.221.402c-.284.223-.83.159-.88.067 0 0 .535-.237.161-.488-.099-.067-.167.204-.545.142-.634-.104-.348-.725-.331-.691s.14.202.294.208.19-.081.256-.159c.146-.172.044-.458-.125-.621-.332-.319-.213-.538-.029-.635.141-.074.328-.061.328-.061-.167.239-.047.359.033.402.12.063.271.026.338.001s.201-.017.243.067a.34.34 0 0 0 .277.193c.142.008-.006-.215.193-.455.092-.111.222-.183.339-.107 0 0-.196.191-.045.517a.38.38 0 0 0 .295.212c.499.07.67-.584.67-.584.111.047.246.265.274.543.016.158.061.2.135.218.113.027.134-.067.218-.151s.266-.206.449-.083c.102.068.163.254.2.451.133-.323.44-.732 1.53-1.341.924-.516 2.104-.285 2.305-.234s.226.134.411-.294c.184-.427-.386-.838-.579-1.257a1.07 1.07 0 0 1-.015-.779c.411-1.168 1.666-.428 1.876-.319s.411.059.654-.528c.122-.294.109-.526-.08-.728-.141-.15-.521-.282-1.11-.152a.47.47 0 0 1-.463-.163c-.169-.206-.032-.348-.032-.348s.032.117.239.131c.126.008.098-.116.289-.19.13-.051-.251-.205-.405-.469-.084-.145-.133-.43-.031-.495 0 0 .108.292.501.296.318-.007.252-.296.634-.165 0 0-.21.133-.2.308.007.12.154.249.339.223s.277-.251.352-.436c.076-.184.251-.281.486-.144.065.038-.185.007-.209.236-.009.088.025.134.075.176.051.042.101.16.101.285 0 .126-.028.353-.05.503-.049.322.343.361.335.218-.008-.142.2-.209.354-.164.126.037.348.195.294.357 0 0-.244-.026-.407.087-.095.066-.27.271-.336.452-.057.157-.031.417.053.442s-.004-.23.212-.4c.234-.184.43-.02.455 0 0 0-.21.084-.287.3-.017.048-.072.249.085.515.017.03-.258-.056-.268.312-.006.184.099.397.099.397-.467.021-.299-.578-.422-.68-.179-.149-.528.366-.285.746.084.13.35.34.148.701 0 0-.601-.477-.864.107-.062.14-.071.391.078.529.172.159.517.129.672.004.346-.278.377-.447.871-.422.27.014.378.296.487.472s.239.111.343.093c.34-.06.458.052.551.178 0 0-.267.014-.383.291" style="fill:#d22027;fill-opacity:1;fill-rule:nonzero;stroke:none;stroke-width:.156699" transform="translate(310.395 753.92)"/></g><g style="stroke-width:.156699"><path d="m0 0-.014-.062-.021-.059q-.012-.03-.028-.058L-.08-.208q-.009-.014-.019-.027a.1.1 0 0 0-.022-.027q-.011-.014-.024-.026l-.027-.024-.031-.022q-.017-.01-.035-.019l-.017-.009-.02-.007Q-.294-.376-.314-.38l-.041-.008.036.015q.017.008.031.018l.016.009.013.011q.013.01.024.021l.022.023.018.025q.008.012.015.026l.014.026.011.026.01.027A1 1 0 0 1-.12-.05l.004.03-.06.024q-.045.018-.09.031l-.093.026q-.047.011-.095.02-.047.01-.096.016-.048.005-.097.009l-.048.002h-.047c-.03 0-.067-.003-.102-.005L-.888.097Q-.911.095-.934.089l-.044-.01-.043-.014a.2.2 0 0 1-.042-.016q-.02-.008-.041-.018a1 1 0 0 1-.108-.071.657.657 0 0 1-.091-.086.8.8 0 0 1-.095-.132.496.496 0 0 0 .123.252q.014.017.032.033l.036.031.04.028q.02.013.044.026l.047.023q.025.01.05.02l.054.016q.027.007.055.012l.058.01c.036.003.067.009.108.009l.058.001.056-.001.111-.009A1.7 1.7 0 0 0-.211.119 2 2 0 0 0-.023.035L.003.02Z" style="fill:#fff;fill-opacity:1;fill-rule:nonzero;stroke:none;stroke-width:.156699" transform="translate(304.339 761.517)"/></g><g style="stroke-width:.156699"><path d="m0 0-.014-.062-.021-.059q-.012-.03-.028-.058L-.08-.208q-.009-.014-.019-.027a.1.1 0 0 0-.022-.027q-.011-.014-.024-.026l-.027-.024-.031-.022q-.017-.01-.035-.019l-.017-.009-.02-.007Q-.294-.376-.314-.38l-.041-.008.036.015q.017.008.031.018l.016.009.013.011q.013.01.024.021l.022.023.018.025q.008.012.015.026l.014.026.011.026.01.027A1 1 0 0 1-.12-.05l.004.03-.06.024q-.045.018-.09.031l-.093.026q-.047.011-.095.02-.047.01-.096.016-.048.005-.097.009l-.048.002h-.047c-.03 0-.067-.003-.102-.005L-.888.097Q-.911.095-.934.089l-.044-.01-.043-.014a.2.2 0 0 1-.042-.016q-.02-.008-.041-.018a1 1 0 0 1-.108-.071.657.657 0 0 1-.091-.086.8.8 0 0 1-.095-.132.496.496 0 0 0 .123.252q.014.017.032.033l.036.031.04.028q.02.013.044.026l.047.023q.025.01.05.02l.054.016q.027.007.055.012l.058.01c.036.003.067.009.108.009l.058.001.056-.001.111-.009A1.7 1.7 0 0 0-.211.119 2 2 0 0 0-.023.035L.003.02Z" style="fill:none;stroke:#fff;stroke-width:.0211544;stroke-linecap:butt;stroke-linejoin:miter;stroke-miterlimit:10;stroke-dasharray:none;stroke-opacity:1" transform="translate(304.339 761.517)"/></g><g style="stroke-width:.156699"><path d="m0 0 .008.075q.005.039.007.076l.002.038.002.037v.09L.018.324v.004L.015.351Q.008.315-.002.28A.8.8 0 0 0-.083.091Q-.108.048-.137.01c-.021-.023-.04-.049-.062-.068l-.032-.031-.033-.026-.064-.05Q-.36-.19-.394-.213q-.033-.024-.067-.044l-.068-.041a1.5 1.5 0 0 0-.277-.126 3 3 0 0 1 .198.13q.032.023.064.047l.063.049q.031.025.062.052.03.025.06.052l.061.058.029.028.026.03c.019.018.034.042.05.062q.024.035.043.071t.034.076q.014.04.024.082a.812.812 0 0 1 .019.248l-.035.266.127-.198.02-.032.018-.032Q.074.532.09.496L.104.458.118.41C.122.393.123.383.125.37L.126.365V.362L.127.354V.343L.128.321V.314l.018.06q.02.06.034.122c.011.042.023.081.033.125l.029.128.013.063.01.06c.009.04.01.081.013.122s-.001.081 0 .122l-.007.06-.008.061-.011.059q-.006.03-.014.058-.015.057-.034.113-.02.055-.044.108t-.049.103a1.5 1.5 0 0 1-.119.19q.039-.035.074-.075.035-.041.069-.086.032-.046.061-.096.03-.05.056-.104c.015-.037.033-.074.045-.114l.02-.06.016-.063c.012-.041.016-.086.024-.13.002-.046.009-.091.007-.137s0-.094-.007-.141L.348.792C.344.766.34.748.335.725L.31.595Q.296.53.28.464A2 2 0 0 0 .246.333Q.228.267.206.203A2 2 0 0 0 .159.075Q.146.044.131.011.123-.004.114-.021C.108-.032.104-.041.093-.056L-.03-.237Z" style="fill:#fff;fill-opacity:1;fill-rule:nonzero;stroke:none;stroke-width:.156699" transform="translate(303.406 759.628)"/></g><g style="stroke-width:.156699"><path d="m0 0 .008.075q.005.039.007.076l.002.038.002.037v.09L.018.324v.004L.015.351Q.008.315-.002.28A.8.8 0 0 0-.083.091Q-.108.048-.137.01c-.021-.023-.04-.049-.062-.068l-.032-.031-.033-.026-.064-.05Q-.36-.19-.394-.213q-.033-.024-.067-.044l-.068-.041a1.5 1.5 0 0 0-.277-.126 3 3 0 0 1 .198.13q.032.023.064.047l.063.049q.031.025.062.052.03.025.06.052l.061.058.029.028.026.03c.019.018.034.042.05.062q.024.035.043.071t.034.076q.014.04.024.082a.812.812 0 0 1 .019.248l-.035.266.127-.198.02-.032.018-.032Q.074.532.09.496L.104.458.118.41C.122.393.123.383.125.37L.126.365V.362L.127.354V.343L.128.321V.314l.018.06q.02.06.034.122c.011.042.023.081.033.125l.029.128.013.063.01.06c.009.04.01.081.013.122s-.001.081 0 .122l-.007.06-.008.061-.011.059q-.006.03-.014.058-.015.057-.034.113-.02.055-.044.108t-.049.103a1.5 1.5 0 0 1-.119.19q.039-.035.074-.075.035-.041.069-.086.032-.046.061-.096.03-.05.056-.104c.015-.037.033-.074.045-.114l.02-.06.016-.063c.012-.041.016-.086.024-.13.002-.046.009-.091.007-.137s0-.094-.007-.141L.348.792C.344.766.34.748.335.725L.31.595Q.296.53.28.464A2 2 0 0 0 .246.333Q.228.267.206.203A2 2 0 0 0 .159.075Q.146.044.131.011.123-.004.114-.021C.108-.032.104-.041.093-.056L-.03-.237Z" style="fill:none;stroke:#fff;stroke-width:.0211544;stroke-linecap:butt;stroke-linejoin:miter;stroke-miterlimit:10;stroke-dasharray:none;stroke-opacity:1" transform="translate(303.406 759.628)"/></g><g style="stroke-width:.156699"><path d="M0 0c-.045-.236-.035-.259.149-.353C.127-.476.145-.501.286-.532l-.01.048Q.126.11-.024.703c-.008.032-.021.049-.05.06a.5.5 0 0 0-.099.049q-.049.034.006.062.017.008.036.014l.041.015q-.011.138-.024.275c-.002.014-.014.026-.023.038q-.098.135-.195.271-.067.1.014.189a.53.53 0 0 0 .268.145c.322.085.644.085.962-.024a.6.6 0 0 0 .178-.103c.089-.073.089-.175-.003-.243a.5.5 0 0 1-.153-.197C.886 1.151.847 1.043.805.939l.02-.02C.903.846.9.822.811.768A.07.07 0 0 1 .783.731L.431-.536c.089-.005.124.048.124.184q.065.029.129.059a.4.4 0 0 1 .069.046q.083.068.032.167l-.034.059C.804.011.857.04.908.074a.4.4 0 0 1 .077.067c.043.048.046.093.011.148C.97.329.941.367.907.414a1 1 0 0 1 .129.045c.145.067.173.155.098.305l-.025.053h1.048l.005-.013L.371-1.159-1.373.799h1.046L-.36.723C-.394.628-.377.547-.298.487c.053-.041.115-.07.176-.107C-.141.357-.165.331-.186.302-.261.197-.247.123-.138.063-.094.039-.046.021 0 0" style="fill:#231f20;fill-opacity:1;fill-rule:nonzero;stroke:none;stroke-width:.156699" transform="translate(303.372 746.885)"/></g><g style="stroke-width:.156699"><path d="M0 0c-.045-.236-.035-.259.149-.353C.127-.476.145-.501.286-.532l-.01.048Q.126.11-.024.703c-.008.032-.021.049-.05.06a.5.5 0 0 0-.099.049q-.049.034.006.063l.036.013.041.015q-.011.138-.024.275c-.002.014-.014.026-.023.038q-.098.135-.195.271-.067.1.014.189a.53.53 0 0 0 .268.145c.322.085.644.085.962-.024a.6.6 0 0 0 .178-.103c.089-.073.089-.175-.003-.243a.5.5 0 0 1-.153-.197C.886 1.151.847 1.043.805.939l.02-.02C.903.846.9.822.811.768A.07.07 0 0 1 .783.731L.431-.536c.089-.005.124.048.124.185q.065.027.129.059a.3.3 0 0 1 .069.045q.084.068.032.167l-.034.059C.804.011.857.04.908.074a.4.4 0 0 1 .077.067c.044.048.046.093.011.148C.97.329.941.367.907.414a1 1 0 0 1 .129.045c.145.067.174.155.098.305l-.025.053h1.048l.005-.013L.371-1.159-1.373.799h1.046L-.36.723C-.394.628-.377.547-.299.487c.054-.041.116-.07.177-.107C-.141.357-.165.331-.185.302-.261.197-.247.124-.138.063-.094.039-.046.021 0 0" style="fill:#231f20;fill-opacity:1;fill-rule:nonzero;stroke:none;stroke-width:.156699" transform="translate(297.403 762.172)"/></g><g style="stroke-width:.156699"><path d="M0 0c-.045-.236-.035-.259.149-.353C.127-.477.145-.501.286-.532l-.01.048Q.126.11-.024.703c-.008.032-.021.049-.05.06a.5.5 0 0 0-.099.049q-.049.034.006.062.017.008.036.014l.041.015q-.011.138-.024.275c-.002.014-.014.026-.023.038q-.098.135-.195.271-.067.1.014.189a.53.53 0 0 0 .268.145c.322.085.644.085.962-.024a.6.6 0 0 0 .178-.103c.089-.073.089-.175-.003-.243a.5.5 0 0 1-.153-.197C.886 1.151.847 1.043.805.939l.02-.02C.903.846.9.822.811.768A.07.07 0 0 1 .783.731L.431-.536c.089-.005.124.048.124.184q.065.029.129.059a.4.4 0 0 1 .069.046q.084.068.032.167l-.034.059C.804.011.857.04.908.074a.4.4 0 0 1 .077.067c.043.048.046.093.011.148C.97.329.941.367.907.414l.062.019.067.026c.145.067.173.154.098.305l-.025.053h1.047l.006-.013L.371-1.159-1.373.799h1.046L-.36.723C-.394.628-.377.547-.299.487c.054-.041.116-.07.177-.107C-.141.357-.165.331-.186.302-.261.197-.247.123-.138.063-.094.039-.046.021 0 0" style="fill:#231f20;fill-opacity:1;fill-rule:nonzero;stroke:none;stroke-width:.156699" transform="translate(310.292 763.51)"/></g><g style="stroke-width:.156699"><path d="m0 0 .188-.1s.033-.172.15-.247C.455-.421.58-.363.58-.363s.098-.192.319-.172a.35.35 0 0 0-.095.171c-.016.11.011.228.011.228s.057.203.271.197.495-.332.398-.6c-.037-.102-.263-.488-.809-.554-.281-.034-.387-.052-.349-.233s.188-.253.383-.244a.65.65 0 0 1 .312.087s.04-.151-.053-.365a1 1 0 0 0-.073-.141l.002.001c-.018-.03-.031-.067-.045-.097a.15.15 0 0 0-.071.026.3.3 0 0 0-.071.066c-.042.046-.09.072-.193.098-.239.06-.434-.052-.504-.082-.037-.166-.023-.392.132-.522.064-.053.149-.074.149-.074l-.166-.005c-.003 0-.244-.027-.455-.131-.322-.158-.338-.339-.348-.397.047-.069.127-.128.334-.158a.94.94 0 0 1 .394.029c.176.058.62.259.62.259s-.539-.501-.678-.662a.7.7 0 0 1-.143-.386c.089-.064.449-.236.757-.026.195.133.737.542.743.547l.308.257-.248-.315a66 66 0 0 1-.377-.642c-.21-.365-.176-.639-.179-.667.144-.047.445.012.553.074a.78.78 0 0 1 .363.519c.048.209.094.38.096.388l.086.303-.003-.315c0-.002.071-.774.555-.912.593.046.493 1.428.493 1.428l.098-.357c.001-.004.101-.326.372-.636.252-.288.54-.316.645-.338.026.09.089.243.003.489a2.1 2.1 0 0 1-.313.498c.004-.003.357-.24.633-.36.26-.112.571-.048.609-.006.061.068.003.288-.269.558-.227.226-.437.45-.439.453l-.223.231.275-.166s.119-.066.289-.171a.77.77 0 0 1 .65-.079.4.4 0 0 1 .153.088c-.05.09-.264.448-.542.595a3 3 0 0 1-.316.144l-.305.108s.724-.215 1.042.074a.28.28 0 0 1 .082.142 2.3 2.3 0 0 1-.601.251c-.107.028-.287.08-.354.088.134-.013.238.018.343.048.292.101.431.312.411.376 0 0-.406-.048-.492.088a.14.14 0 0 0 .04.206s.295.19.448.281c.696.417.553 1.009.478 1.117.03-.025-.11-.122-.256-.183-.144-.059-.287-.078-.334.068-.034.102.132.28.041.355 0 0-.145-.129-.262-.012-.107.107-.004.218.036.268s.211.195.303.38c.092.184.043.592-.143.661 0 0-.108-.423-.386-.454-.136-.015-.26.059-.344.134a.6.6 0 0 0-.151.292c-.047.24.06.65.06.65-.092.092-.28.003-.405-.154-.062-.079-.118-.222-.201-.259-.125-.058-.218.157-.218.157-.076.017-.133-.107-.175-.2-.041-.092-.19-.188-.282-.181-.219.017-.134.368-.141.386 0 0-.19-.099-.361-.331-.024-.034-.063-.019-.146-.041-.343-.092-.487-.41-.528-.621-.318-.001-.736-.019-.941-.101C.527 1.008.691.757.691.757S.169.642-.022.4C-.215.158 0 0 0 0m1.59.97S1.335.829 1.054.493c.073.168.048.301-.072.338.178.155.608.139.608.139" style="fill:#d22027;fill-opacity:1;fill-rule:nonzero;stroke:none;stroke-width:.156699" transform="translate(281.848 781.855)"/></g><g style="stroke-width:.156699"><path d="M0 0a5.6 5.6 0 0 0-.898.585c-.4-.127-.82-.389-.943-.996-.091-.449.031-.725.212-.859.182-.134.434-.102.528-.252.095-.149.071-.346-.055-.59s-.44-.59-.732-.67c-1.024-.28-.997.865-1.654.764-.264-.041-.315-.291-.315-.291s.252.047.362-.087.032-.323.047-.386c.016-.063.048-.149.237-.228s-.741.299-1.032-.315c-.177-.373.11-.528.11-.528s.014.21.26.331c.409.202.922.11 1.016.055.095-.055.102-.126-.031-.134-.134-.008-.536.021-.723-.129-.562-.452.226-.809.226-.809s-.084.394.174.434c.187.029.385-.229.551-.176.284.089.231.468.568.409.349-.06-.006-.578.387-.705.247-.08.334.094.357.165 0 0-.398-.135-.052.662a.8.8 0 0 1 .063.228s.293-.46.695-.197c.278.182.414-.094.414-.094.078.063.038.237.054.379a.37.37 0 0 0 .181.298c.326.216.608-.1.608-.1.063.102-.002.396-.125.462-.308.165-.52-.039-.52-.039s-.102.339.471.555c0 0-.5.273-.849-.153-.223-.273-.299-.528-.354-.489s.094.673.653 1.189c.864.797 1.257.304 1.947.898.178.154.247.36.267.55C1.665-.33.812-.424 0 0" style="fill:#d22027;fill-opacity:1;fill-rule:nonzero;stroke:none;stroke-width:.156699" transform="translate(284.682 775.155)"/></g><g style="stroke-width:.156699"><path d="M0 0c-.194.462.408.817.047 1.566 0 0-.045-.394-.344-.4-.194-.003-.441.284-.583.552-.143.269-.268.16-.461.394s.316.534.03.956c0 0-.059-.344-.367-.349-.076-.001-.2.014-.342.248-.143.235-.27.568-.049 1.014.166.336.437.033.976.34.321.183.421.681.292.955 0 0-.351-.578-.473-.373-.088.149.441.411.22.923 0 0-.187-.369-.279-.302s.3.498.122.824c0 0-.225-.365-.44-.154-.158.155.017.435.125.52.225.177.504.119.64.497.16.444-.457.899-.457.899s.077-.436-.163-.627c-.401-.319-.998-.026-1.123-.549-.026-.109-.064-.394.326-.499.342-.092.481-.714.119-.816-.478-.135-.415.652-.415.652-.05-.009-.438-.406-.04-1.095.329-.571-.158-.897-.152-1.396.007-.639.401-.913.536-1.039.199-.184.727-.631.363-.942-.225-.192-.404.156-.404.156a.3.3 0 0 1-.034-.267c.029-.082.091-.217.386-.276C-1.285 1.278.139.86-.57-.154c-.271-.387-.992-.179-1.157-.139-.313.075-.416.093-.578.167-.426.195-.436.717-.786 1.204-.537.747-1.257.694-1.762.921-.3.135-.54.319-.728.506-.025.016.054-.125.076-.179.175-.437.025-.809.025-.809s-.511.077-.85.533c-.138.186-.239.293-.303.445-.003-.122-.043-.964-.613-.975-.294-.006-.613.597-.609.784.001.025-.01.05-.013.077l-.022-.129a.94.94 0 0 0-.411-.65c-.286-.178-.81-.054-.81-.054s-.061.294.244.853c.043.079.142.237.244.377a11 11 0 0 0-.531-.415c-.367-.249-.907.007-.98.085l-.011.012v.018c0 .01.008.253.173.446.075.088.159.184.315.313-.061-.03-.332-.126-.543-.084-.275.054-.422.229-.429.237l-.012.012v.017c0 .012-.034.306.472.552.139.067.291.112.392.125-.248.144-.164.446-.121.593l.005.017h.001c-.06.004-.111.005-.141.005-.109 0-.327.008-.419.1-.093.092.022.286.058.453.21.976-.364.935-.364.935.173-.278-.122-.516-.181-.55-.058-.033-.192.151-.192.151s-.228.308-.451.426c-.43.227-.74-.043-.632-.055.152-.016.363-.29.424-.397.118-.208.122-.376.122-.376s-.404.202-.712.017c-.352-.212-.16-.578-.16-.578s-.049.138.11.192c.093.032.201-.117.285-.26.083-.142.201-.234.301-.243.101-.008.193.042.218-.042.025-.083-.15-.106-.243-.194-.218-.205-.277-.483-.127-.698.177-.254.425-.181.466-.147 0 0-.085.035-.099.199a.437.437 0 0 0 .397.446c.302.034.478-.326.478-.326s-.292-.303-.143-.344c.495-.137.508-.655.592-.872.071-.185.172-.228.459-.287-.004-.008.025.007.022.002a.43.43 0 0 0-.352-.176c-.117-.003-.168.009-.35-.093-.188-.104-.345-.334-.396-.309-.05.025-.004.193-.008.276a.54.54 0 0 1-.221.402c-.284.223-.83.159-.88.067 0 0 .535-.237.161-.488-.099-.067-.167.204-.545.142-.634-.104-.348-.724-.331-.691s.14.202.293.208c.154.007.19-.081.257-.159.146-.172.043-.458-.126-.621-.331-.319-.212-.538-.028-.635.141-.074.328-.061.328-.061-.167.239-.047.36.033.402.12.063.271.026.338.001s.201-.017.243.067a.34.34 0 0 0 .277.193c.142.008-.006-.215.193-.455.092-.111.221-.183.339-.107 0 0-.197.191-.045.517a.38.38 0 0 0 .295.212c.499.071.67-.584.67-.584.111.047.246.265.274.543.016.158.061.2.134.218.114.027.135-.067.218-.151.084-.084.267-.206.45-.083.102.068.163.254.2.451.132-.323.44-.732 1.53-1.341.924-.516 2.104-.285 2.305-.234s.226.134.411-.294c.184-.427-.386-.838-.579-1.257a1.07 1.07 0 0 1-.015-.779c.411-1.168 1.666-.428 1.876-.319s.411.059.654-.528c.122-.294.109-.526-.08-.728-.141-.15-.521-.282-1.11-.152a.47.47 0 0 1-.463-.163c-.169-.206-.032-.348-.032-.348s.032.117.239.131c.126.009.098-.116.289-.19.13-.051-.251-.205-.405-.469-.084-.145-.133-.43-.031-.495 0 0 .108.292.501.296.318-.007.252-.296.634-.165 0 0-.211.133-.2.308.007.12.154.249.339.223s.277-.251.352-.436c.076-.184.251-.281.486-.144.065.038-.186.007-.209.236-.009.087.025.135.075.176.051.042.101.16.101.286s-.028.352-.05.502c-.049.322.343.361.335.218-.008-.142.2-.209.354-.164.126.037.348.195.294.357 0 0-.244-.026-.407.087-.096.067-.27.271-.336.452-.057.157-.031.417.053.442s-.004-.23.212-.4c.234-.184.43-.02.455 0 0 0-.21.084-.287.3-.017.048-.072.249.084.515.018.03-.257-.056-.268.312-.005.184.1.397.1.397-.467.021-.299-.578-.422-.68-.179-.149-.528.366-.285.746.084.13.35.34.148.701 0 0-.602-.477-.864.107-.062.14-.071.392.078.529.172.159.517.129.672.004.346-.278.377-.447.871-.422.27.014.378.296.487.472.109.177.239.111.343.093.34-.06.458.052.55.178 0 0-.266.014-.382.291" style="fill:#d22027;fill-opacity:1;fill-rule:nonzero;stroke:none;stroke-width:.156699" transform="translate(291.6 775.28)"/></g><g style="stroke-width:.156699"><path d="m0 0-.014-.062a.6.6 0 0 0-.049-.117L-.08-.208q-.009-.014-.019-.027a.1.1 0 0 0-.022-.027q-.011-.014-.024-.026l-.027-.024-.031-.022Q-.22-.345-.238-.353l-.017-.009-.02-.007Q-.294-.376-.314-.38l-.041-.008.036.015q.017.008.031.018l.016.009.013.011q.013.01.024.021l.022.023.018.025q.008.012.015.026l.014.026.011.026.01.027A1 1 0 0 1-.12-.05l.004.03-.06.025-.09.03-.093.026q-.047.011-.095.02-.047.01-.096.016-.048.005-.097.009l-.048.002h-.047c-.03 0-.067-.004-.102-.005L-.888.097Q-.911.095-.934.089l-.044-.01-.043-.014a.2.2 0 0 1-.042-.016q-.02-.008-.041-.018a1 1 0 0 1-.108-.071.657.657 0 0 1-.091-.086.8.8 0 0 1-.095-.132.496.496 0 0 0 .123.252q.014.017.032.033l.036.031.04.028.044.026.047.023q.025.01.05.02l.054.016q.027.007.055.012l.058.01c.036.003.067.009.108.009l.058.001.056-.001.111-.009q.055-.007.108-.018A1.687 1.687 0 0 0-.211.119 2 2 0 0 0-.023.035L.003.02Z" style="fill:#fff;fill-opacity:1;fill-rule:nonzero;stroke:none;stroke-width:.156699" transform="translate(285.62 782.879)"/></g><g style="stroke-width:.156699"><path d="m0 0-.014-.062a.6.6 0 0 0-.049-.117L-.08-.208q-.009-.014-.019-.027a.1.1 0 0 0-.022-.027q-.011-.014-.024-.026l-.027-.024-.031-.022Q-.22-.345-.238-.353l-.017-.009-.02-.007Q-.294-.376-.314-.38l-.041-.008.036.015q.017.008.031.018l.016.009.013.011q.013.01.024.021l.022.023.018.025q.008.012.015.026l.014.026.011.026.01.027A1 1 0 0 1-.12-.05l.004.03-.06.025-.09.03-.093.026q-.047.011-.095.02-.047.01-.096.016-.048.005-.097.009l-.048.002h-.047c-.03 0-.067-.004-.102-.005L-.888.097Q-.911.095-.934.089l-.044-.01-.043-.014a.2.2 0 0 1-.042-.016q-.02-.008-.041-.018a1 1 0 0 1-.108-.071.657.657 0 0 1-.091-.086.8.8 0 0 1-.095-.132.496.496 0 0 0 .123.252q.014.017.032.033l.036.031.04.028.044.026.047.023q.025.01.05.02l.054.016q.027.007.055.012l.058.01c.036.003.067.009.108.009l.058.001.056-.001.111-.009q.055-.007.108-.018A1.687 1.687 0 0 0-.211.119 2 2 0 0 0-.023.035L.003.02Z" style="fill:none;stroke:#fff;stroke-width:.0211544;stroke-linecap:butt;stroke-linejoin:miter;stroke-miterlimit:10;stroke-dasharray:none;stroke-opacity:1" transform="translate(285.62 782.879)"/></g><g style="stroke-width:.156699"><path d="m0 0 .008.075q.005.039.007.076l.002.038.002.037v.09L.018.324v.004L.014.351a.829.829 0 0 0-.097-.26Q-.108.048-.137.01c-.021-.023-.04-.049-.062-.068l-.032-.031-.033-.026-.064-.05Q-.36-.19-.394-.213q-.033-.024-.067-.045l-.068-.04q-.033-.02-.068-.037-.034-.019-.069-.034a1 1 0 0 0-.14-.055 2 2 0 0 1 .198.129q.032.023.064.047l.063.05q.031.025.061.052.031.025.061.052l.061.058.029.028.026.03c.019.018.034.042.05.062q.024.035.043.071t.034.077a.7.7 0 0 1 .04.165 1 1 0 0 1 .003.164l-.035.266.127-.198.02-.032.018-.032Q.074.532.09.496L.104.458.118.41C.122.393.122.384.125.37L.126.365V.362L.127.354V.343L.128.321V.315l.018.059Q.164.436.18.497q.017.06.033.124L.242.75l.013.062.01.06c.009.041.009.081.013.122.003.041-.001.082 0 .123l-.007.06q-.003.03-.008.06l-.011.06q-.006.028-.014.057-.015.059-.034.114t-.044.108a1.516 1.516 0 0 1-.168.293q.039-.035.074-.075.035-.042.069-.087.032-.044.061-.095.03-.05.056-.104.026-.056.045-.114l.02-.06.016-.063c.012-.041.016-.087.024-.131.002-.045.009-.09.007-.137s0-.094-.007-.14L.348.792C.344.766.339.748.335.725L.31.595Q.296.531.28.464A2 2 0 0 0 .246.333Q.228.267.206.203A2 2 0 0 0 .13.011Q.124-.004.114-.021C.108-.032.104-.041.093-.057l-.123-.18z" style="fill:#fff;fill-opacity:1;fill-rule:nonzero;stroke:none;stroke-width:.156699" transform="translate(284.673 780.712)"/></g><g style="stroke-width:.156699"><path d="m0 0 .008.075q.005.039.007.076l.002.038.002.037v.09L.018.324v.004L.014.351a.829.829 0 0 0-.097-.26Q-.108.048-.137.01c-.021-.023-.04-.049-.062-.068l-.032-.031-.033-.026-.064-.05Q-.36-.19-.394-.213q-.033-.024-.067-.045l-.068-.04q-.033-.02-.068-.037-.034-.019-.069-.034a1 1 0 0 0-.14-.055 2 2 0 0 1 .198.129q.032.023.064.047l.063.05q.031.025.061.052.031.025.061.052l.061.058.029.028.026.03c.019.018.034.042.05.062q.024.035.043.071t.034.077a.7.7 0 0 1 .04.165 1 1 0 0 1 .003.164l-.035.266.127-.198.02-.032.018-.032Q.074.532.09.496L.104.458.118.41C.122.393.122.384.125.37L.126.365V.362L.127.354V.343L.128.321V.315l.018.059Q.164.436.18.497q.017.06.033.124L.242.75l.013.062.01.06c.009.041.009.081.013.122.003.041-.001.082 0 .123l-.007.06q-.003.03-.008.06l-.011.06q-.006.028-.014.057-.015.059-.034.114t-.044.108a1.516 1.516 0 0 1-.168.293q.039-.035.074-.075.035-.042.069-.087.032-.044.061-.095.03-.05.056-.104.026-.056.045-.114l.02-.06.016-.063c.012-.041.016-.087.024-.131.002-.045.009-.09.007-.137s0-.094-.007-.14L.348.792C.344.766.339.748.335.725L.31.595Q.296.531.28.464A2 2 0 0 0 .246.333Q.228.267.206.203A2 2 0 0 0 .13.011Q.124-.004.114-.021C.108-.032.104-.041.093-.057l-.123-.18z" style="fill:none;stroke:#fff;stroke-width:.0211544;stroke-linecap:butt;stroke-linejoin:miter;stroke-miterlimit:10;stroke-dasharray:none;stroke-opacity:1" transform="translate(284.673 780.712)"/></g><g style="stroke-width:.156699"><path d="M0 0c-.045-.236-.035-.259.149-.353C.127-.477.145-.501.286-.532l-.01.048Q.126.11-.024.703c-.008.032-.021.049-.05.06a.5.5 0 0 0-.099.049q-.049.034.006.062.017.008.036.014l.041.015q-.011.138-.024.275c-.002.014-.014.026-.023.038q-.098.135-.195.271-.067.1.014.189a.53.53 0 0 0 .268.145c.322.085.644.085.961-.024a.6.6 0 0 0 .179-.103c.089-.073.089-.175-.003-.243a.5.5 0 0 1-.153-.197C.886 1.151.847 1.043.805.939l.02-.02C.903.846.9.822.811.768A.07.07 0 0 1 .783.731L.431-.536c.089-.005.124.048.124.184q.065.029.129.059a.4.4 0 0 1 .069.046q.083.068.032.167l-.034.059C.804.011.857.04.908.074a.4.4 0 0 1 .077.067c.043.048.046.093.011.148C.97.329.941.367.907.414l.062.019.067.026c.145.067.173.155.098.305l-.025.053h1.047l.006-.013L.371-1.159-1.373.799h1.046L-.36.723C-.394.628-.377.547-.299.487c.054-.041.115-.07.177-.107C-.141.357-.165.331-.186.302-.261.197-.247.123-.138.063-.094.039-.046.021 0 0" style="fill:#231f20;fill-opacity:1;fill-rule:nonzero;stroke:none;stroke-width:.156699" transform="translate(284.577 768.247)"/></g><g style="stroke-width:.156699"><path d="M0 0c-.045-.236-.035-.259.149-.353C.127-.476.145-.501.286-.532l-.01.049q-.15.592-.3 1.186c-.008.032-.021.049-.05.06a.5.5 0 0 0-.099.049q-.049.034.006.063l.036.013.041.015q-.011.138-.024.275c-.002.014-.014.026-.023.038q-.098.135-.195.271-.067.1.014.189a.53.53 0 0 0 .268.145c.322.085.644.085.962-.024a.6.6 0 0 0 .178-.103c.089-.073.089-.175-.003-.243a.5.5 0 0 1-.153-.197C.886 1.151.847 1.043.805.939l.02-.02C.903.846.9.822.811.768A.07.07 0 0 1 .783.731L.431-.536c.089-.004.124.048.124.185q.065.027.129.059a.3.3 0 0 1 .069.045q.084.068.032.167l-.034.059C.804.011.857.04.908.074a.4.4 0 0 1 .077.067c.043.048.046.093.011.148C.97.329.94.367.907.414a1 1 0 0 1 .129.045c.145.067.173.155.098.305l-.025.053h1.048l.005-.013L.371-1.159-1.373.799h1.046L-.36.723C-.394.628-.377.547-.299.487c.054-.041.115-.07.177-.106C-.141.357-.165.331-.186.302-.261.197-.247.124-.138.063-.094.039-.046.021 0 0" style="fill:#231f20;fill-opacity:1;fill-rule:nonzero;stroke:none;stroke-width:.156699" transform="translate(278.608 783.534)"/></g><g style="stroke-width:.156699"><path d="M0 0c-.045-.236-.035-.259.149-.353C.127-.477.145-.501.286-.532l-.01.048Q.126.11-.024.703c-.008.032-.021.049-.05.06a.5.5 0 0 0-.099.049q-.049.034.006.062.017.008.036.014l.041.015q-.011.138-.024.275c-.002.014-.014.026-.023.038q-.098.135-.195.271-.067.1.014.189a.53.53 0 0 0 .268.145c.322.085.644.085.962-.024a.6.6 0 0 0 .178-.103c.089-.073.089-.175-.003-.243a.5.5 0 0 1-.153-.197C.886 1.151.847 1.043.805.939l.02-.02C.903.846.9.822.811.768A.07.07 0 0 1 .783.731L.431-.536c.089-.005.124.048.124.184q.065.029.129.059a.4.4 0 0 1 .069.046q.084.068.032.167l-.034.059C.804.011.857.04.908.074a.4.4 0 0 1 .077.067c.044.048.046.093.011.148C.97.329.941.367.907.414a1 1 0 0 1 .129.045c.145.067.173.155.099.305l-.026.053h1.048l.005-.013L.371-1.159-1.373.799h1.046L-.36.723C-.394.628-.377.547-.299.487c.054-.041.116-.07.177-.107C-.141.357-.165.331-.186.302-.261.197-.247.124-.138.063-.094.039-.046.021 0 0" style="fill:#231f20;fill-opacity:1;fill-rule:nonzero;stroke:none;stroke-width:.156699" transform="translate(291.497 784.871)"/></g><g style="stroke-width:.156699"><path d="M0 0c-25.123 0-45.562-20.439-45.562-45.562 0-25.124 20.439-45.563 45.562-45.563s45.563 20.439 45.563 45.563C45.563-20.439 25.123 0 0 0m0-78.68c-18.261 0-33.117 14.857-33.117 33.118S-18.261-12.445 0-12.445s33.117-14.856 33.117-33.117S18.261-78.68 0-78.68" style="fill:#fff;fill-opacity:1;fill-rule:nonzero;stroke:none;stroke-width:.156699" transform="translate(295.158 810.709)"/></g><g style="stroke-width:.156699"><path d="m0 0-6.125 2.797 1.472 3.223c.533 1.166 1.549 1.423 2.366 1.05.763-.348 1.068-1.065.923-1.697.403.615 1.271.84 2.034.492.927-.424 1.385-1.366.848-2.541Zm-2.665 5.634c-.377.172-.769.018-.97-.423l-.746-1.634 1.285-.587.747 1.634c.201.441.079.83-.316 1.01m2.543-1.017c-.386.176-.824.043-1.054-.462l-.772-1.69 1.396-.637.771 1.69c.223.486.1.898-.341 1.099" style="fill:#231f20;fill-opacity:1;fill-rule:nonzero;stroke:none;stroke-width:.156699" transform="translate(261.41 777.445)"/></g><g style="stroke-width:.156699"><path d="m0 0-2.714.325-.614-.852 1.942-1.398-.838-1.164L-7.688.846l1.84 2.556c.82 1.139 2.073 1.307 3.089.575.958-.69 1.04-1.682.755-2.372l2.971-.261Zm-3.628 2.787c-.451.324-.983.173-1.314-.286l-.884-1.229L-4.352.21l.885 1.229c.33.459.305 1.012-.161 1.348" style="fill:#231f20;fill-opacity:1;fill-rule:nonzero;stroke:none;stroke-width:.156699" transform="translate(266.736 786.893)"/></g></g><g style="stroke-width:.156699"><path d="m0 0-1.087.546-2.114-1.966.467-1.124-1.19-1.108-2.688 6.697 1.316 1.224L1.19 1.107zm-4.977 2.608 1.204-2.837 1.538 1.431z" style="fill:#231f20;fill-opacity:1;fill-rule:nonzero;stroke:none;stroke-width:.156699" transform="matrix(2.25131 0 0 -2.25131 50.575 41.06)"/></g><g clip-path="url(#d)" style="stroke-width:.156699" transform="matrix(2.25131 0 0 -2.25131 -561.917 1825.157)"><g style="stroke-width:.156699"><path d="M0 0c-1.095 1.767-.505 3.784 1.22 4.853 1.253.776 2.402.55 3.252.079l-.728-1.163c-.527.314-1.27.364-1.854.003C.843 3.123.583 1.857 1.253.776S3.172-.635 4.218.014c.584.361.87 1.049.823 1.661l1.361.143C6.44.856 6.141-.291 4.889-1.067 3.164-2.136 1.09-1.759 0 0" style="fill:#231f20;fill-opacity:1;fill-rule:nonzero;stroke:none;stroke-width:.156699" transform="translate(271.786 796.624)"/></g></g><g style="stroke-width:.156699"><path d="m0 0-2.855 1.825-.271-.779.722-1.94-1.343-.5-2.349 6.312 1.344.5 1.045-2.811 1.188 3.642 1.656.616-1.405-3.895L1.656.616Z" style="fill:#231f20;fill-opacity:1;fill-rule:nonzero;stroke:none;stroke-width:.156699" transform="matrix(2.25131 0 0 -2.25131 77.216 26.322)"/></g><g style="stroke-width:.156699"><path d="m0 0-1.207 6.626 1.42.258.981-5.384 2.801.511.227-1.242Z" style="fill:#231f20;fill-opacity:1;fill-rule:nonzero;stroke:none;stroke-width:.156699" transform="matrix(2.25131 0 0 -2.25131 83.232 24.56)"/></g><g style="stroke-width:.156699"><path d="m0 0-.071 6.734 4.765.05.013-1.262-3.331-.035.015-1.414 3.26.035.014-1.262-3.261-.034.016-1.535 3.332.035L4.765.05Z" style="fill:#231f20;fill-opacity:1;fill-rule:nonzero;stroke:none;stroke-width:.156699" transform="matrix(2.25131 0 0 -2.25131 95.875 22.508)"/></g><g style="stroke-width:.156699"><path d="m0 0 .466 2.717-1.876 4.357 1.612-.276 1.187-2.939 2.097 2.376 1.602-.274-3.21-3.486-.465-2.717Z" style="fill:#231f20;fill-opacity:1;fill-rule:nonzero;stroke:none;stroke-width:.156699" transform="matrix(2.25131 0 0 -2.25131 114.213 23.327)"/></g><g style="stroke-width:.156699"><path d="m0 0 2.354 4.94-1.778.847.543 1.139 4.849-2.31-.543-1.14-1.768.843-2.354-4.94Z" style="fill:#231f20;fill-opacity:1;fill-rule:nonzero;stroke:none;stroke-width:.156699" transform="matrix(2.25131 0 0 -2.25131 135.175 29.519)"/></g><g clip-path="url(#e)" style="stroke-width:.156699" transform="matrix(2.25131 0 0 -2.25131 -561.917 1825.157)"><g style="stroke-width:.156699"><path d="M0 0c1.21 1.629 3.269 1.911 4.906.694 1.629-1.21 1.953-3.262.742-4.891-1.21-1.629-3.268-1.911-4.897-.7C-.886-3.681-1.21-1.629 0 0m4.465-3.318c.753 1.013.679 2.251-.318 2.991C3.142.42 1.936.134 1.183-.879c-.746-1.005-.678-2.25.326-2.997.997-.741 2.209-.447 2.956.558" style="fill:#231f20;fill-opacity:1;fill-rule:nonzero;stroke:none;stroke-width:.156699" transform="translate(315.398 798.512)"/></g></g><g style="stroke-width:.156699"><path d="m0 0 2.807 3.859L-1.5 1.811l-.972 1.174 3.955 5.78 1.024-1.236-2.994-4.014 4.565 2.117.714-.863L1.857.686l4.5 2.194 1.024-1.236L.973-1.174Z" style="fill:#231f20;fill-opacity:1;fill-rule:nonzero;stroke:none;stroke-width:.156699" transform="matrix(2.25131 0 0 -2.25131 165.686 53.595)"/></g><g style="stroke-width:.156699"><path d="m0 0 2.559 4.801-3.955-1.91-.624 1.292 6.065 2.928.641-1.327-2.453-4.649 3.81 1.839.623-1.291L.602-1.246Z" style="fill:#231f20;fill-opacity:1;fill-rule:nonzero;stroke:none;stroke-width:.156699" transform="matrix(2.25131 0 0 -2.25131 176.05 71.142)"/></g><g style="stroke-width:.156699"><path d="m0 0 5.936 3.18 2.25-4.201-1.112-.596L5.5 1.32 4.255.653l1.54-2.875-1.113-.596L3.142.057.677-1.264Z" style="fill:#231f20;fill-opacity:1;fill-rule:nonzero;stroke:none;stroke-width:.156699" transform="matrix(2.25131 0 0 -2.25131 16.542 142.5)"/></g><g clip-path="url(#f)" style="stroke-width:.156699" transform="matrix(2.25131 0 0 -2.25131 -561.917 1825.157)"><g style="stroke-width:.156699"><path d="M0 0c1.569 1.287 3.634 1.061 4.927-.515 1.287-1.569 1.104-3.638-.465-4.925s-3.634-1.061-4.92.508C-1.752-3.356-1.569-1.287 0 0m3.527-4.301c.976.801 1.204 2.019.417 2.979C3.15-.354 1.91-.34.935-1.14c-.968-.794-1.204-2.018-.41-2.986.788-.96 2.035-.968 3.002-.175" style="fill:#231f20;fill-opacity:1;fill-rule:nonzero;stroke:none;stroke-width:.156699" transform="translate(262.95 743.436)"/></g><g style="stroke-width:.156699"><path d="M0 0c1.243 1.604 3.307 1.844 4.919.595 1.604-1.243 1.886-3.301.643-4.905S2.256-6.154.652-4.911C-.96-3.662-1.243-1.604 0 0m4.397-3.407c.773.997.724 2.236-.257 2.997-.99.766-2.202.505-2.975-.493-.766-.99-.723-2.236.266-3.003.982-.76 2.2-.491 2.966.499" style="fill:#231f20;fill-opacity:1;fill-rule:nonzero;stroke:none;stroke-width:.156699" transform="translate(268.573 736.866)"/></g></g><g style="stroke-width:.156699"><path d="m0 0 2.46 4.888-1.759.885.568 1.127 4.797-2.414-.567-1.127-1.75.88L1.29-.649Z" style="fill:#231f20;fill-opacity:1;fill-rule:nonzero;stroke:none;stroke-width:.156699" transform="matrix(2.25131 0 0 -2.25131 58.293 186.053)"/></g><g clip-path="url(#g)" style="stroke-width:.156699" transform="matrix(2.25131 0 0 -2.25131 -561.917 1825.157)"><g style="stroke-width:.156699"><path d="m0 0 1.875 6.467 3.403-.987c1.231-.357 1.634-1.325 1.383-2.188-.233-.805-.897-1.211-1.544-1.16.667-.309 1.016-1.135.783-1.94-.284-.979-1.149-1.569-2.39-1.21Zm4.55.793c.118.408-.077.821-.611.976l-1.784.517L1.728.812 3.512.296c.514-.15.903.032 1.038.497m.636 2.664c.115.398-.095.763-.56.898l-1.726.5-.393-1.357 1.725-.5c.466-.135.832.042.954.459" style="fill:#231f20;fill-opacity:1;fill-rule:nonzero;stroke:none;stroke-width:.156699" transform="translate(280.782 725.653)"/></g></g><g style="stroke-width:.156699"><path d="m0 0-.326 1.172-2.877.245-.519-1.101-1.619.137 3.154 6.49 1.791-.152L1.619-.138zm-1.412 5.438L-2.703 2.64l2.092-.177Z" style="fill:#231f20;fill-opacity:1;fill-rule:nonzero;stroke:none;stroke-width:.156699" transform="matrix(2.25131 0 0 -2.25131 98.639 196.945)"/></g><g style="stroke-width:.156699"><path d="m0 0-.636 6.704 1.437.136.517-5.447 2.835.268.118-1.256Z" style="fill:#231f20;fill-opacity:1;fill-rule:nonzero;stroke:none;stroke-width:.156699" transform="matrix(2.25131 0 0 -2.25131 106.902 196.932)"/></g><g style="stroke-width:.156699"><path d="m0 0-1.679 6.522 1.398.36 1.365-5.3 2.757.71.315-1.222z" style="fill:#231f20;fill-opacity:1;fill-rule:nonzero;stroke:none;stroke-width:.156699" transform="matrix(2.25131 0 0 -2.25131 121.592 195.078)"/></g><g clip-path="url(#h)" style="stroke-width:.156699" transform="matrix(2.25131 0 0 -2.25131 -561.917 1825.157)"><g style="stroke-width:.156699"><path d="M0 0c-1.013 1.816-.33 3.804 1.442 4.793 1.287.718 2.425.439 3.253-.07l-.78-1.129c-.513.338-1.254.422-1.853.088C.986 3.082.668 1.829 1.287.718 1.907-.393 3.14-.78 4.216-.18c.599.334.917 1.009.898 1.623l1.366.079C6.474.559 6.123-.573 4.836-1.291 3.064-2.28 1.008-1.807 0 0" style="fill:#231f20;fill-opacity:1;fill-rule:nonzero;stroke:none;stroke-width:.156699" transform="translate(311.575 730.202)"/></g></g><g style="stroke-width:.156699"><path d="m0 0-4.314 5.171 1.108.925L.3 1.894l2.186 1.824.809-.969Z" style="fill:#231f20;fill-opacity:1;fill-rule:nonzero;stroke:none;stroke-width:.156699" transform="matrix(2.25131 0 0 -2.25131 159.69 177.738)"/></g><g clip-path="url(#i)" style="stroke-width:.156699" transform="matrix(2.25131 0 0 -2.25131 -561.917 1825.157)"><g style="stroke-width:.156699"><path d="m0 0-3.102 2.585.931 1.116L.9 1.142c.721-.601 1.566-.596 2.232.203.665.799.511 1.623-.21 2.224l-3.07 2.559.937 1.125 3.102-2.585c1.279-1.067 1.53-2.563.217-4.137C2.797-1.043 1.28-1.066 0 0" style="fill:#231f20;fill-opacity:1;fill-rule:nonzero;stroke:none;stroke-width:.156699" transform="translate(323.364 737.754)"/></g><g style="stroke-width:.156699"><path d="m0 0-5.947 3.159 1.662 3.129c.602 1.133 1.632 1.329 2.425.907.74-.393 1.002-1.127.82-1.75.439.59 1.319.762 2.059.369.901-.478 1.302-1.445.695-2.587Zm-2.324 5.784c-.365.194-.766.064-.993-.364l-.843-1.587 1.248-.663.843 1.587c.228.428.129.823-.255 1.027M.155 4.616c-.375.199-.82.093-1.081-.398l-.871-1.64 1.355-.72.871 1.641c.252.472.153.89-.274 1.117" style="fill:#231f20;fill-opacity:1;fill-rule:nonzero;stroke:none;stroke-width:.156699" transform="translate(330.931 743.156)"/></g></g><g style="stroke-width:.156699"><path d="M0 0v2.846l-.653-.664-.476.5 1.235 1.24h.729V0Z" style="fill:#d22027;fill-opacity:1;fill-rule:nonzero;stroke:none;stroke-width:.156699" transform="matrix(2.25131 0 0 -2.25131 10.61 107.174)"/></g></g><g style="stroke-width:.156699"><path d="M0 0c0 .476.37.841.841 1.005-.435.153-.776.436-.776.924 0 .741.782 1.035 1.511 1.035.723 0 1.511-.294 1.511-1.035 0-.488-.347-.771-.776-.924.465-.164.841-.529.841-1.005 0-.729-.753-1.088-1.576-1.088S0-.729 0 0m2.305.117c0 .324-.488.477-.729.512C1.329.594.847.441.847.117c0-.282.317-.464.729-.464.4 0 .729.182.729.464m-.07 1.671c0 .276-.277.435-.659.435-.388 0-.665-.159-.665-.435 0-.288.424-.412.665-.453.241.041.659.165.659.453" style="fill:#d22027;fill-opacity:1;fill-rule:nonzero;stroke:none;stroke-width:.156699" transform="matrix(2.25131 0 0 -2.25131 13.826 104.883)"/></g><g style="stroke-width:.156699"><path d="m0 0 .371.641c.211-.2.434-.306.781-.306.647 0 .983.547.983 1.106v.088a1.3 1.3 0 0 0-1.012-.506c-.705 0-1.335.441-1.335 1.276 0 .765.606 1.347 1.5 1.347 1.194 0 1.693-.917 1.693-2.023 0-1.188-.67-2.029-1.829-2.029C.676-.406.276-.247 0 0m2.129 2.111c-.036.377-.247.794-.794.794-.453 0-.7-.306-.7-.576 0-.412.359-.588.723-.588.3 0 .582.135.771.37" style="fill:#d22027;fill-opacity:1;fill-rule:nonzero;stroke:none;stroke-width:.156699" transform="matrix(2.25131 0 0 -2.25131 183.043 106.64)"/></g><g style="stroke-width:.156699"><path d="M0 0c0 1.011.5 2.023 1.623 2.023S3.246 1.011 3.246 0s-.5-2.029-1.623-2.029S0-1.011 0 0m2.393 0c0 .723-.205 1.282-.77 1.282-.559 0-.77-.559-.77-1.282s.211-1.288.77-1.288.77.565.77 1.288" style="fill:#d22027;fill-opacity:1;fill-rule:nonzero;stroke:none;stroke-width:.156699" transform="matrix(2.25131 0 0 -2.25131 190.654 103)"/></g><g style="stroke-width:.156699"><path d="M0 0c.466.097.924.092 1.359-.121.082-.041.139-.134.207-.202-.087-.085-.164-.186-.265-.248-.061-.036-.159-.012-.241-.015L.875-.594c.246-.176.417-.187.622-.048.162.108.311.234.473.342.31.207.862.126 1.063-.17-.393.016-.781.103-1.147-.076.234-.496.598-.716 1.026-.622.072.015.149.012.223.012.144 0 .245-.044.309-.199.051-.126.174-.221.255-.336l.022-.03L5.413-.708a1.3 1.3 0 0 0-.074.196c-.015.05-.029.111-.065.142-.241.205-.131.407.021.581.345.394.218.873-.042 1.221-.334-.228-.434-.615-.626-.974-.031.066-.046.091-.054.118a.2.2 0 0 0-.012.088c.046.371.161.701.536.871q.225.1.447.208c.219.108.254.302.238.519-.077-.09-.111-.217-.194-.284-.095-.077-.233-.1-.352-.147-.031.098-.107.207-.085.29.083.307.168.62.31.902.115.229.311.417.471.624.011.014.014.034.022.057l-.183-.012-.251.593-.056-.018c.021-.122.049-.243.062-.366.023-.22.02-.437-.162-.602-.098-.09-.187-.109-.277.021-.179.256-.307.52-.331.843-.017.236-.107.467-.165.7l-.059-.018.085-.503-.061-.04-.969.491-.034-.064c.198-.127.4-.247.592-.383.183-.129.417-.221.464-.472l-.049-.061-.799.497a.22.22 0 0 1 .072-.142c.202-.165.402-.333.613-.486.209-.152.434-.305.472-.573.066-.46.017-.917-.127-1.383l-.273.162c.395-.421-.115-.636-.164-.99l-.322.315a.2.2 0 0 1 .042-.132c.161-.194.162-.412.147-.654-.026-.413-.482-.3-.634-.554-.024-.039-.135-.051-.198-.038-.263.054-.503.149-.613.429-.015.039-.051.071-.078.106L2.676.352l.104-.379c-.34.117-.787-.214-.957.335l.027-.35c-.292.111-.546.212-.803.303-.51.181-.728.545-.75 1.077-.012.292-.101.579-.156.869l-.06-.009.056-1.007-.102-.013c-.266.412-.126.912-.237 1.358l-.057-.003-.034-1.115-.075-.024-.4.328-.044-.052c.178-.165.339-.359.54-.489.271-.176.448-.407.581-.692C.382.333.324.268.183.228-.08.151-.28.281-.476.426c-.083.061-.163.125-.257.198.038-.293.403-.379.345-.7.125.025.257.049.388.076" style="fill:#d22027;fill-opacity:1;fill-rule:nonzero;stroke:none;stroke-width:.156699" transform="matrix(2.25131 0 0 -2.25131 125.893 91.24)"/></g><g style="stroke-width:.156699"><path d="m0 0 .137-.001c-.253 0-.504-.03-.751-.078a6 6 0 0 1-.45-.219 3 3 0 0 1-.259-.163l-.029-.041a2.3 2.3 0 0 0-.278-.42c.163-.3.3-.556.316-.589.199-.409.444-.778.853-1.014a.8.8 0 0 0 .267-.233c.163-.251.372-.398.678-.39.012 0 .024-.006.036-.008a.5.5 0 0 1 .579.348c.022.067.039.136.072.197.081.149.047.287-.006.438-.068.196-.112.401-.159.604-.034.143-.043.293-.087.433C.862-.957.527-.453.207.011A2 2 0 0 0 0 0" style="fill:#d22027;fill-opacity:1;fill-rule:nonzero;stroke:none;stroke-width:.156699" transform="matrix(2.25131 0 0 -2.25131 136.81 91.286)"/></g><g style="stroke-width:.156699"><path d="M0 0c-.163.014-.292.019-.418.04C-.452.046-.502.104-.5.135c.001.033.051.075.089.093C-.274.29-.15.227 0 0" style="fill:#fff;fill-opacity:1;fill-rule:nonzero;stroke:none;stroke-width:.156699" transform="matrix(2.25131 0 0 -2.25131 138.317 97.554)"/></g><g style="stroke-width:.156699"><path d="M0 0c-.163.201-.181.358-.068.464.029.028.083.05.12.043.024-.004.059-.069.053-.1C.079.277.04.15 0 0" style="fill:#fff;fill-opacity:1;fill-rule:nonzero;stroke:none;stroke-width:.156699" transform="matrix(2.25131 0 0 -2.25131 138.694 97.277)"/></g><g style="stroke-width:.156699"><path d="M0 0c.315-.057.586-.379.764-.59.05.029-.066-.04.018.01-.119.214-.292.359-.477.496a4 4 0 0 0-.382.318.78.78 0 0 1-.588.197s-.056-.24.192-.405C-.266-.111-.222.011 0 0" style="fill:#fff;fill-opacity:1;fill-rule:nonzero;stroke:none;stroke-width:.156699" transform="matrix(2.25131 0 0 -2.25131 135.657 95.28)"/></g><g style="stroke-width:.156699"><path d="M0 0c-.074.288-.319.315-.319.315a.78.78 0 0 1-.007-.62q.1-.229.175-.466c.068-.219.148-.431.311-.613.074.062-.029-.024.015.013-.14.238-.356.6-.306.916C-.068-.242.062-.24 0 0" style="fill:#fff;fill-opacity:1;fill-rule:nonzero;stroke:none;stroke-width:.156699" transform="matrix(2.25131 0 0 -2.25131 137.726 92.966)"/></g><g style="stroke-width:.156699"><path d="M0 0c.466.097.924.092 1.359-.121.082-.041.139-.134.207-.202-.087-.085-.164-.186-.265-.247-.061-.037-.159-.012-.241-.016L.875-.594c.246-.175.417-.187.622-.048.162.108.311.234.473.342.31.207.862.126 1.063-.17-.393.016-.781.103-1.147-.076.234-.496.598-.716 1.026-.622.072.015.149.012.223.012.144 0 .245-.044.309-.199.051-.126.174-.221.255-.336l.022-.03L5.413-.708a1.3 1.3 0 0 0-.074.196c-.015.05-.029.111-.065.142-.241.205-.131.407.021.581.345.394.218.873-.042 1.221-.334-.228-.434-.615-.626-.974-.031.066-.046.091-.054.118a.2.2 0 0 0-.012.088c.046.371.161.701.535.871q.226.1.448.208c.219.108.254.302.238.519-.077-.09-.111-.217-.194-.284-.095-.076-.233-.1-.352-.147-.031.098-.107.208-.085.291.083.306.168.619.31.901.115.229.311.417.471.624.011.014.014.034.022.057l-.183-.012-.251.593-.056-.018c.021-.122.049-.243.062-.366.023-.22.02-.437-.162-.602-.098-.089-.187-.109-.277.021-.179.256-.307.52-.331.843-.017.236-.107.467-.165.7l-.059-.018.085-.503-.061-.04-.969.491-.034-.064c.198-.127.4-.247.592-.383.183-.129.417-.221.464-.471l-.049-.062-.799.497a.22.22 0 0 1 .072-.142c.202-.165.402-.333.613-.486.209-.152.434-.305.472-.573.066-.46.017-.917-.127-1.383l-.273.162c.395-.421-.115-.636-.164-.99l-.322.315a.2.2 0 0 1 .042-.132c.161-.194.162-.412.147-.653-.026-.414-.482-.301-.634-.555-.024-.039-.135-.051-.198-.038-.263.054-.503.149-.613.429-.015.04-.051.071-.078.106L2.676.352l.104-.379c-.34.117-.787-.214-.957.335l.027-.35c-.292.111-.546.212-.803.303-.51.181-.728.545-.75 1.077-.012.291-.101.579-.156.869l-.06-.009.056-1.007-.102-.013c-.266.412-.126.912-.237 1.358l-.057-.003-.034-1.115-.075-.024-.4.328-.044-.052c.178-.165.339-.359.54-.489.271-.176.448-.407.581-.692C.382.333.324.268.183.228-.08.152-.28.281-.476.426c-.083.061-.163.125-.257.198.038-.293.403-.379.345-.699.125.024.257.048.388.075" style="fill:#d22027;fill-opacity:1;fill-rule:nonzero;stroke:none;stroke-width:.156699" transform="matrix(2.25131 0 0 -2.25131 117.738 77.19)"/></g><g style="stroke-width:.156699"><path d="m0 0 .137-.001c-.253 0-.504-.03-.751-.078a6 6 0 0 1-.45-.219 3 3 0 0 1-.259-.163l-.029-.041a2.3 2.3 0 0 0-.278-.42c.163-.3.3-.556.316-.589.199-.409.444-.778.853-1.014a.8.8 0 0 0 .267-.233c.163-.251.372-.398.678-.39.012 0 .024-.006.036-.008a.5.5 0 0 1 .579.348c.022.067.039.136.072.197.081.149.047.287-.006.438-.068.196-.112.401-.159.604-.034.143-.043.293-.087.433C.862-.957.527-.453.207.011A2 2 0 0 0 0 0" style="fill:#d22027;fill-opacity:1;fill-rule:nonzero;stroke:none;stroke-width:.156699" transform="matrix(2.25131 0 0 -2.25131 128.655 77.235)"/></g><g style="stroke-width:.156699"><path d="M0 0c-.163.014-.292.019-.418.04C-.452.046-.502.103-.5.135c.001.033.051.075.089.093C-.274.29-.15.227 0 0" style="fill:#fff;fill-opacity:1;fill-rule:nonzero;stroke:none;stroke-width:.156699" transform="matrix(2.25131 0 0 -2.25131 130.162 83.503)"/></g><g style="stroke-width:.156699"><path d="M0 0c-.163.201-.181.358-.068.464.029.028.083.05.121.043.023-.004.058-.069.052-.1C.079.277.04.151 0 0" style="fill:#fff;fill-opacity:1;fill-rule:nonzero;stroke:none;stroke-width:.156699" transform="matrix(2.25131 0 0 -2.25131 130.539 83.226)"/></g><g style="stroke-width:.156699"><path d="M0 0c.315-.057.586-.379.764-.59.05.029-.066-.04.018.01-.119.214-.292.359-.477.496a4 4 0 0 0-.382.318.78.78 0 0 1-.588.197s-.056-.24.192-.405C-.266-.111-.222.011 0 0" style="fill:#fff;fill-opacity:1;fill-rule:nonzero;stroke:none;stroke-width:.156699" transform="matrix(2.25131 0 0 -2.25131 127.502 81.228)"/></g><g style="stroke-width:.156699"><path d="M0 0c-.074.288-.319.315-.319.315a.78.78 0 0 1-.007-.62q.1-.229.175-.466c.068-.219.148-.431.311-.614.074.063-.029-.024.015.014-.14.238-.356.6-.306.916C-.068-.242.062-.24 0 0" style="fill:#fff;fill-opacity:1;fill-rule:nonzero;stroke:none;stroke-width:.156699" transform="matrix(2.25131 0 0 -2.25131 129.571 78.915)"/></g><g style="stroke-width:.156699"><path d="M0 0c.466.097.924.092 1.359-.121.082-.041.139-.134.207-.203-.087-.084-.164-.185-.265-.246-.061-.037-.16-.012-.241-.016L.875-.594c.246-.176.417-.187.622-.048.161.108.311.234.473.342.31.207.862.126 1.063-.17-.393.016-.781.103-1.147-.076.234-.496.598-.716 1.026-.622.072.015.149.012.223.012.144 0 .245-.044.309-.199.051-.126.173-.221.255-.336l.022-.03L5.413-.708a1.3 1.3 0 0 0-.074.196c-.015.05-.029.111-.065.142-.241.205-.131.407.021.581.345.394.218.873-.042 1.221-.334-.228-.434-.615-.626-.974-.031.066-.046.091-.054.118a.2.2 0 0 0-.012.088c.046.371.161.701.535.871q.226.1.448.208c.219.108.254.302.238.519-.077-.09-.112-.217-.194-.284-.095-.077-.233-.1-.352-.147-.031.098-.107.207-.085.291.083.306.168.619.31.901.114.229.311.417.471.624.011.014.014.034.022.057l-.183-.012-.251.593-.056-.018c.021-.122.049-.243.062-.366.023-.22.02-.437-.162-.602-.098-.089-.187-.109-.278.021-.178.256-.306.52-.33.843-.017.236-.107.467-.165.7l-.059-.018.085-.503-.061-.04-.969.491-.034-.064c.198-.127.4-.247.592-.383.183-.129.416-.221.464-.472l-.049-.061-.799.497a.22.22 0 0 1 .072-.142c.202-.165.402-.333.612-.486s.435-.305.473-.573c.066-.46.017-.917-.127-1.383l-.273.162c.395-.421-.115-.636-.164-.99l-.322.315a.2.2 0 0 1 .042-.132c.161-.194.162-.412.147-.654-.026-.413-.482-.3-.634-.554-.024-.039-.135-.051-.198-.038-.263.054-.503.149-.613.429-.015.039-.051.071-.078.106L2.676.352l.104-.379c-.34.117-.787-.214-.957.335l.027-.35c-.292.111-.546.212-.803.303-.51.181-.728.545-.75 1.077-.012.291-.101.579-.156.869l-.06-.009.056-1.007-.102-.013c-.266.412-.126.912-.237 1.358l-.057-.003-.034-1.115-.075-.024-.4.328-.044-.052c.178-.165.339-.359.54-.489.271-.176.448-.407.581-.692C.382.332.324.268.183.227-.08.152-.28.281-.476.426c-.083.061-.163.125-.257.198.038-.293.403-.379.345-.699.125.024.257.048.388.075" style="fill:#d22027;fill-opacity:1;fill-rule:nonzero;stroke:none;stroke-width:.156699" transform="matrix(2.25131 0 0 -2.25131 108.405 61.785)"/></g><g style="stroke-width:.156699"><path d="m0 0 .137-.002a4 4 0 0 1-.751-.077 6 6 0 0 1-.45-.219 3 3 0 0 1-.259-.163l-.029-.041a2.3 2.3 0 0 0-.278-.42c.163-.301.3-.556.316-.589.199-.409.444-.778.853-1.014a.8.8 0 0 0 .267-.233c.163-.251.372-.398.678-.39.012 0 .024-.006.036-.008a.5.5 0 0 1 .579.348c.022.066.039.136.072.197.081.149.047.287-.006.438-.068.196-.111.401-.159.604-.034.143-.043.293-.087.433C.862-.957.527-.453.207.011A2 2 0 0 0 0 0" style="fill:#d22027;fill-opacity:1;fill-rule:nonzero;stroke:none;stroke-width:.156699" transform="matrix(2.25131 0 0 -2.25131 119.323 61.83)"/></g><g style="stroke-width:.156699"><path d="M0 0c-.163.014-.292.019-.418.04C-.452.046-.502.103-.5.135c.001.033.051.075.089.093C-.274.291-.149.227 0 0" style="fill:#fff;fill-opacity:1;fill-rule:nonzero;stroke:none;stroke-width:.156699" transform="matrix(2.25131 0 0 -2.25131 120.829 68.097)"/></g><g style="stroke-width:.156699"><path d="M0 0c-.163.201-.181.358-.068.464.029.028.083.05.121.043.023-.004.058-.069.052-.1C.079.277.04.15 0 0" style="fill:#fff;fill-opacity:1;fill-rule:nonzero;stroke:none;stroke-width:.156699" transform="matrix(2.25131 0 0 -2.25131 121.206 67.82)"/></g><g style="stroke-width:.156699"><path d="M0 0c.315-.057.586-.379.764-.59.05.029-.066-.04.018.01-.119.214-.292.359-.477.496a4 4 0 0 0-.382.318.78.78 0 0 1-.588.197s-.056-.24.192-.405C-.266-.111-.222.011 0 0" style="fill:#fff;fill-opacity:1;fill-rule:nonzero;stroke:none;stroke-width:.156699" transform="matrix(2.25131 0 0 -2.25131 118.169 65.823)"/></g><g style="stroke-width:.156699"><path d="M0 0c-.074.288-.319.315-.319.315a.78.78 0 0 1-.007-.62q.1-.229.175-.466c.068-.219.148-.431.311-.614.074.063-.029-.024.015.014-.14.238-.356.6-.306.916C-.068-.242.062-.24 0 0" style="fill:#fff;fill-opacity:1;fill-rule:nonzero;stroke:none;stroke-width:.156699" transform="matrix(2.25131 0 0 -2.25131 120.238 63.51)"/></g><g style="stroke-width:.156699"><path d="M0 0c.466.097.924.092 1.359-.121.082-.041.139-.134.207-.203-.087-.084-.164-.185-.265-.247-.061-.036-.159-.012-.241-.015L.875-.594c.246-.176.417-.187.622-.048.162.108.311.234.473.342.31.207.862.125 1.063-.17-.393.016-.781.103-1.147-.076.234-.496.598-.716 1.026-.623.072.016.149.013.223.013.144 0 .245-.044.309-.2.051-.125.174-.22.255-.335l.022-.03L5.413-.708a1.3 1.3 0 0 0-.074.196c-.015.05-.029.111-.065.141-.241.206-.131.408.021.582.345.394.218.872-.042 1.221-.334-.228-.434-.615-.626-.974-.031.066-.046.091-.054.118a.2.2 0 0 0-.012.088c.046.371.161.701.535.871q.226.1.448.208c.219.108.254.302.238.518-.077-.089-.111-.216-.194-.283-.095-.077-.233-.1-.352-.147-.031.098-.107.207-.085.29.083.307.168.62.31.902.115.229.311.417.471.624.011.014.014.034.022.057l-.183-.012-.251.593-.056-.018c.021-.122.049-.243.062-.366.023-.22.021-.437-.162-.602-.098-.089-.187-.109-.277.021-.179.255-.307.52-.331.843-.017.236-.107.467-.165.7l-.059-.018.085-.503-.061-.04-.969.491-.034-.064c.198-.127.4-.247.592-.383.183-.129.417-.221.464-.471l-.049-.062-.799.497a.22.22 0 0 1 .072-.142c.202-.165.402-.333.613-.486.209-.152.434-.305.472-.573.066-.46.017-.917-.127-1.383l-.273.162c.395-.421-.115-.636-.164-.99l-.322.315a.2.2 0 0 1 .042-.132c.161-.194.162-.412.147-.654-.026-.413-.482-.3-.634-.554-.024-.039-.135-.051-.198-.038-.263.054-.503.149-.613.429-.015.039-.051.071-.078.106L2.676.352l.104-.379c-.34.117-.787-.214-.957.335l.027-.35c-.292.111-.546.212-.803.303-.51.181-.728.545-.75 1.077-.012.291-.101.579-.156.869l-.06-.009.056-1.007-.102-.013c-.266.412-.126.912-.237 1.358l-.057-.003-.034-1.115-.075-.024-.4.328-.044-.052c.178-.165.339-.359.54-.489.271-.176.448-.407.581-.692C.382.333.324.268.183.227-.08.152-.28.281-.476.426c-.083.061-.163.125-.257.198.038-.293.403-.379.345-.699.125.024.257.048.388.075" style="fill:#d22027;fill-opacity:1;fill-rule:nonzero;stroke:none;stroke-width:.156699" transform="matrix(2.25131 0 0 -2.25131 82.136 146.49)"/></g><g style="stroke-width:.156699"><path d="m0 0 .137-.002a4 4 0 0 1-.751-.077 6 6 0 0 1-.45-.219 3 3 0 0 1-.259-.163l-.029-.041a2.3 2.3 0 0 0-.278-.42c.163-.3.3-.556.316-.589.199-.409.444-.778.853-1.014a.8.8 0 0 0 .267-.233c.163-.251.372-.398.678-.39.012 0 .024-.006.036-.008a.5.5 0 0 1 .579.348c.022.066.039.136.072.197.081.149.047.287-.006.438-.068.196-.112.401-.159.604-.034.143-.043.293-.087.433C.862-.957.527-.453.207.011A2 2 0 0 0 0 0" style="fill:#d22027;fill-opacity:1;fill-rule:nonzero;stroke:none;stroke-width:.156699" transform="matrix(2.25131 0 0 -2.25131 93.054 146.535)"/></g><g style="stroke-width:.156699"><path d="M0 0c-.163.014-.292.019-.418.04C-.452.046-.502.103-.5.135c.001.033.051.075.089.093C-.274.29-.15.227 0 0" style="fill:#fff;fill-opacity:1;fill-rule:nonzero;stroke:none;stroke-width:.156699" transform="matrix(2.25131 0 0 -2.25131 94.56 152.803)"/></g><g style="stroke-width:.156699"><path d="M0 0c-.163.201-.181.358-.068.464.029.028.083.05.121.043.023-.004.058-.069.052-.1C.079.277.04.15 0 0" style="fill:#fff;fill-opacity:1;fill-rule:nonzero;stroke:none;stroke-width:.156699" transform="matrix(2.25131 0 0 -2.25131 94.938 152.526)"/></g><g style="stroke-width:.156699"><path d="M0 0c.315-.057.586-.379.764-.59.05.029-.066-.04.018.01-.119.214-.292.359-.477.496a4 4 0 0 0-.382.318.78.78 0 0 1-.588.197s-.056-.24.192-.405C-.266-.111-.222.011 0 0" style="fill:#fff;fill-opacity:1;fill-rule:nonzero;stroke:none;stroke-width:.156699" transform="matrix(2.25131 0 0 -2.25131 91.9 150.528)"/></g><g style="stroke-width:.156699"><path d="M0 0c-.074.288-.319.315-.319.315a.78.78 0 0 1-.007-.62q.1-.229.175-.466c.068-.219.148-.431.311-.613.074.062-.029-.024.015.013-.14.238-.356.6-.306.916C-.068-.242.062-.24 0 0" style="fill:#fff;fill-opacity:1;fill-rule:nonzero;stroke:none;stroke-width:.156699" transform="matrix(2.25131 0 0 -2.25131 93.97 148.215)"/></g><g style="stroke-width:.156699"><path d="M0 0c.466.097.924.092 1.359-.121.082-.041.139-.134.207-.203-.087-.084-.164-.185-.265-.246-.061-.037-.159-.013-.241-.016L.875-.594c.246-.176.417-.187.622-.049.162.109.311.235.473.343.31.207.862.126 1.063-.17-.393.016-.781.103-1.147-.076.234-.496.598-.716 1.026-.622.072.015.149.012.223.012.144 0 .245-.044.309-.2.051-.125.174-.22.255-.335l.022-.03L5.413-.708a1.3 1.3 0 0 0-.074.196c-.015.05-.029.111-.065.142-.241.205-.131.407.021.581.345.394.218.873-.042 1.221-.334-.228-.434-.615-.626-.974-.031.066-.046.091-.054.118a.2.2 0 0 0-.012.088c.046.371.161.701.535.871q.226.1.448.208c.219.108.254.302.238.518-.077-.089-.111-.216-.194-.283-.095-.077-.233-.1-.352-.147-.031.098-.107.207-.085.29.083.307.168.62.31.902.115.229.311.417.471.624.011.014.014.034.022.057l-.183-.012-.251.593-.056-.018c.021-.122.049-.243.062-.366.023-.22.02-.437-.162-.602-.098-.089-.187-.109-.277.021-.179.256-.307.52-.331.843-.017.236-.107.467-.165.7l-.059-.018.085-.503-.061-.04-.969.491-.034-.064c.198-.127.4-.247.592-.383.183-.129.417-.221.464-.471l-.049-.062-.799.497a.22.22 0 0 1 .072-.142c.202-.165.402-.333.613-.486.209-.152.434-.305.472-.573.066-.46.017-.917-.127-1.383l-.273.162c.395-.422-.115-.636-.164-.99l-.322.315a.2.2 0 0 1 .042-.132c.161-.194.162-.412.147-.654-.026-.413-.482-.3-.634-.554-.024-.039-.135-.051-.198-.038-.263.054-.503.149-.613.429-.015.039-.052.071-.078.106L2.676.352l.104-.379c-.34.117-.787-.214-.957.335l.027-.35c-.292.11-.546.212-.803.303-.51.181-.728.545-.75 1.077-.012.291-.101.579-.156.869l-.06-.009.056-1.007-.102-.013c-.266.412-.126.912-.237 1.358l-.057-.003-.034-1.115-.075-.024-.4.328-.044-.052c.178-.165.339-.359.54-.489.271-.176.448-.407.581-.692C.382.332.324.268.183.228-.08.152-.28.281-.476.426c-.083.061-.163.125-.257.198.038-.293.403-.379.345-.699.125.024.257.048.388.075" style="fill:#d22027;fill-opacity:1;fill-rule:nonzero;stroke:none;stroke-width:.156699" transform="matrix(2.25131 0 0 -2.25131 73.98 132.44)"/></g><g style="stroke-width:.156699"><path d="m0 0 .137-.002a4 4 0 0 1-.751-.077 6 6 0 0 1-.45-.219 3 3 0 0 1-.259-.163l-.029-.041a2.3 2.3 0 0 0-.278-.42c.163-.3.3-.556.316-.589.199-.409.444-.778.853-1.014a.8.8 0 0 0 .267-.233c.163-.251.372-.398.678-.39.012 0 .024-.006.036-.008a.5.5 0 0 1 .579.348c.022.066.039.136.071.197.082.149.048.287-.005.438-.068.196-.112.401-.159.604-.034.143-.043.293-.087.433C.862-.957.527-.453.207.011A2 2 0 0 0 0 0" style="fill:#d22027;fill-opacity:1;fill-rule:nonzero;stroke:none;stroke-width:.156699" transform="matrix(2.25131 0 0 -2.25131 84.899 132.484)"/></g><g style="stroke-width:.156699"><path d="M0 0c-.163.014-.292.019-.418.04C-.452.046-.502.103-.5.135c.001.033.051.075.089.093C-.274.291-.15.227 0 0" style="fill:#fff;fill-opacity:1;fill-rule:nonzero;stroke:none;stroke-width:.156699" transform="matrix(2.25131 0 0 -2.25131 86.405 138.752)"/></g><g style="stroke-width:.156699"><path d="M0 0c-.163.201-.181.358-.068.464.029.028.083.05.121.043.023-.004.058-.069.052-.1C.079.277.04.15 0 0" style="fill:#fff;fill-opacity:1;fill-rule:nonzero;stroke:none;stroke-width:.156699" transform="matrix(2.25131 0 0 -2.25131 86.782 138.475)"/></g><g style="stroke-width:.156699"><path d="M0 0c.315-.057.586-.379.764-.59.05.029-.066-.04.018.01-.119.214-.292.359-.477.495a5 5 0 0 0-.382.319.78.78 0 0 1-.588.197s-.056-.24.192-.405C-.266-.111-.222.011 0 0" style="fill:#fff;fill-opacity:1;fill-rule:nonzero;stroke:none;stroke-width:.156699" transform="matrix(2.25131 0 0 -2.25131 83.745 136.478)"/></g><g style="stroke-width:.156699"><path d="M0 0c-.074.288-.319.315-.319.315a.78.78 0 0 1-.007-.62q.1-.229.175-.466c.068-.22.148-.431.311-.614.074.063-.029-.024.015.014-.14.238-.356.6-.306.916C-.068-.242.062-.24 0 0" style="fill:#fff;fill-opacity:1;fill-rule:nonzero;stroke:none;stroke-width:.156699" transform="matrix(2.25131 0 0 -2.25131 85.814 134.164)"/></g><g style="stroke-width:.156699"><path d="M0 0c.466.097.924.092 1.359-.121.082-.041.139-.134.207-.203-.087-.084-.164-.185-.265-.247-.061-.036-.16-.012-.241-.015L.875-.594c.246-.176.417-.188.622-.049.161.109.311.235.473.343.31.207.862.125 1.063-.17-.393.016-.781.103-1.147-.076.234-.496.598-.716 1.026-.623.072.016.149.013.223.013.144 0 .245-.044.309-.2.051-.125.173-.22.255-.335l.022-.03L5.413-.708a1 1 0 0 0-.074.196c-.015.05-.029.111-.065.141-.241.206-.131.408.021.582.345.394.218.872-.042 1.221-.334-.228-.434-.615-.626-.974-.031.066-.046.091-.054.118a.2.2 0 0 0-.012.088c.046.371.161.701.535.871q.226.1.448.208c.219.108.254.302.238.518-.077-.089-.112-.216-.194-.283-.095-.077-.233-.1-.352-.147-.031.098-.107.207-.085.29.083.307.168.62.31.902.114.229.311.417.471.624.011.014.014.034.022.057l-.183-.012-.251.593-.056-.018c.021-.122.049-.243.062-.366.023-.22.02-.437-.162-.603-.099-.088-.187-.108-.278.022-.178.255-.306.52-.33.843-.017.236-.107.467-.165.7l-.059-.018.085-.503-.061-.04-.969.491-.034-.064c.198-.127.4-.247.592-.383.183-.129.416-.221.464-.472l-.049-.061-.799.497a.22.22 0 0 1 .072-.142c.202-.165.402-.333.612-.486s.435-.305.473-.573c.066-.46.017-.917-.127-1.383l-.273.162c.395-.422-.115-.636-.164-.991l-.322.316a.2.2 0 0 1 .042-.132c.161-.194.162-.412.147-.654-.026-.414-.482-.3-.634-.554-.024-.039-.135-.051-.198-.038-.263.054-.503.149-.613.429-.015.039-.052.071-.078.106L2.676.352l.104-.379c-.34.117-.787-.214-.957.335l.027-.35c-.292.111-.546.212-.803.303-.51.181-.728.545-.75 1.077-.012.291-.101.579-.156.869l-.06-.009.056-1.007-.102-.013c-.266.412-.126.912-.237 1.358l-.057-.003-.034-1.115-.075-.024-.4.328-.044-.052c.178-.165.339-.359.54-.489.271-.176.448-.407.581-.692C.382.332.324.268.183.227-.08.152-.28.281-.476.426c-.083.061-.163.125-.257.198.038-.293.403-.379.345-.7.125.025.257.049.388.076" style="fill:#d22027;fill-opacity:1;fill-rule:nonzero;stroke:none;stroke-width:.156699" transform="matrix(2.25131 0 0 -2.25131 64.648 117.034)"/></g><g style="stroke-width:.156699"><path d="m0 0 .137-.002a4 4 0 0 1-.751-.077 6 6 0 0 1-.45-.219 3 3 0 0 1-.259-.163l-.029-.041a2.3 2.3 0 0 0-.278-.42c.163-.301.3-.556.316-.589.199-.409.444-.778.853-1.014a.8.8 0 0 0 .267-.233c.163-.251.372-.398.678-.391.012.001.024-.005.036-.007a.5.5 0 0 1 .579.348c.022.066.039.136.072.197.081.149.047.287-.006.438-.068.196-.111.401-.159.603-.034.144-.043.294-.087.434C.862-.957.527-.453.207.011A2 2 0 0 0 0 0" style="fill:#d22027;fill-opacity:1;fill-rule:nonzero;stroke:none;stroke-width:.156699" transform="matrix(2.25131 0 0 -2.25131 75.566 117.079)"/></g><g style="stroke-width:.156699"><path d="M0 0c-.163.014-.292.019-.418.04C-.452.046-.502.103-.5.135c.001.033.051.075.089.093C-.274.29-.15.227 0 0" style="fill:#fff;fill-opacity:1;fill-rule:nonzero;stroke:none;stroke-width:.156699" transform="matrix(2.25131 0 0 -2.25131 77.072 123.346)"/></g><g style="stroke-width:.156699"><path d="M0 0c-.163.201-.182.358-.068.464.029.028.083.05.12.043.024-.004.059-.069.053-.1C.079.277.04.151 0 0" style="fill:#fff;fill-opacity:1;fill-rule:nonzero;stroke:none;stroke-width:.156699" transform="matrix(2.25131 0 0 -2.25131 77.45 123.07)"/></g><g style="stroke-width:.156699"><path d="M0 0c.315-.057.586-.379.765-.59l.017.01C.663-.366.49-.221.305-.084a4 4 0 0 0-.382.318.78.78 0 0 1-.588.197s-.056-.24.192-.405C-.266-.111-.222.011 0 0" style="fill:#fff;fill-opacity:1;fill-rule:nonzero;stroke:none;stroke-width:.156699" transform="matrix(2.25131 0 0 -2.25131 74.412 121.072)"/></g><g style="stroke-width:.156699"><path d="M0 0c-.074.288-.319.315-.319.315a.78.78 0 0 1-.007-.62q.1-.229.175-.466c.068-.22.148-.431.311-.613.074.062-.029-.024.015.013-.14.238-.356.6-.306.916C-.068-.242.062-.24 0 0" style="fill:#fff;fill-opacity:1;fill-rule:nonzero;stroke:none;stroke-width:.156699" transform="matrix(2.25131 0 0 -2.25131 76.482 118.759)"/></g><g style="stroke-width:.156699"><path d="m0 0-.035.011c-.063.02-6.374 2.038-12.598 8.262-4.226 4.225-6.386 8.536-7.298 10.73a9.3 9.3 0 0 0-.717 3.588v26.221c0 1.355.96 2.549 2.284 2.84l16.934 3.914a6.7 6.7 0 0 0 2.859 0h.001l16.936-3.914a2.925 2.925 0 0 0 2.282-2.84V22.591a9.3 9.3 0 0 0-.717-3.588c-.912-2.194-3.072-6.505-7.298-10.73C6.409 2.049.098.031.035.011Zm0 55.487c-.464 0-.927-.05-1.378-.149l-16.935-3.914a2.69 2.69 0 0 1-2.102-2.612V22.591c0-1.204.236-2.381.7-3.498.905-2.178 3.05-6.458 7.247-10.655C-6.524 2.494-.513.415 0 .245c.513.17 6.526 2.252 12.468 8.193 4.197 4.197 6.342 8.477 7.247 10.655.464 1.117.7 2.294.7 3.498v26.221a2.69 2.69 0 0 1-2.101 2.612L1.378 55.338A6.4 6.4 0 0 1 0 55.487" style="fill:#fff;fill-opacity:1;fill-rule:nonzero;stroke:none;stroke-width:.156699" transform="matrix(2.25131 0 0 -2.25131 102.574 168.835)"/></g><g style="stroke-width:.156699"><path d="M0 0c-25.123 0-45.562 20.439-45.562 45.563 0 25.123 20.439 45.562 45.562 45.562s45.563-20.439 45.563-45.562C45.563 20.439 25.123 0 0 0m0 90.424c-24.737 0-44.861-20.125-44.861-44.861C-44.861 20.826-24.737.701 0 .701s44.861 20.125 44.861 44.862c0 24.736-20.124 44.861-44.861 44.861" style="fill:#d22027;fill-opacity:1;fill-rule:nonzero;stroke:none;stroke-width:.156699" transform="matrix(2.25131 0 0 -2.25131 102.574 205.15)"/></g><g style="stroke-width:.156699"><path d="M0 0c-18.261 0-33.117 14.856-33.117 33.117S-18.261 66.235 0 66.235s33.117-14.857 33.117-33.118S18.261 0 0 0m0 65.534c-17.874 0-32.416-14.542-32.416-32.417C-32.416 15.243-17.874.701 0 .701s32.416 14.542 32.416 32.416c0 17.875-14.542 32.417-32.416 32.417" style="fill:#d22027;fill-opacity:1;fill-rule:nonzero;stroke:none;stroke-width:.156699" transform="matrix(2.25131 0 0 -2.25131 102.574 177.133)"/></g></g></svg>