<svg xmlns="http://www.w3.org/2000/svg" viewBox="28.81 154.83 720.41 720.41"><path d="M167.348 692.59c-36.899-19.177-69.39-47.112-93.962-80.784-6.995-9.588-12.704-17.708-17.193-27.609-5.138-11.337-6.235-21.202-6.235-27.558 0-2.909.224-4.981.401-6.225-3.466-1.55-13.397-7.235-18.334-23.132-6.914-22.264-10.42-47.349-10.42-74.555 0-72.163 28.102-140.005 79.127-191.03 51.026-51.026 118.867-79.127 191.027-79.127h.004c72.16 0 140.002 28.1 191.027 79.126 51.026 51.026 79.126 118.868 79.126 191.03 0 27.207-3.506 52.292-10.42 74.556-4.936 15.897-14.867 21.582-18.334 23.132.178 1.244.403 3.316.403 6.225 0 6.356-1.098 16.221-6.237 27.558-4.488 9.9-10.196 18.021-17.192 27.61-24.572 33.671-57.064 61.606-93.961 80.782-38.128 19.817-81.149 30.29-124.412 30.29-43.267 0-86.289-10.473-124.415-30.29" style="fill:#231f20;fill-opacity:1;fill-rule:nonzero;stroke:none" transform="matrix(1.33333 0 0 -1.33333 0 1118.667)"/><path d="M122.785 604.76a5.45 5.45 0 0 0-1.795 3.797 5.46 5.46 0 0 0 1.416 3.954 5.496 5.496 0 0 0 7.752.38 5.45 5.45 0 0 0 1.795-3.796 5.46 5.46 0 0 0-1.416-3.955 5.496 5.496 0 0 0-7.752-.38m174.595 73.085c-10.309 3.228-22.144 3.415-26.357 3.365l-.458-.097a8.8 8.8 0 0 0-.5 2.973c0 1.596.388 2.964.677 3.762l.467.044c3.576.272 13.895.736 25.812-1.63l.504-.124a28.7 28.7 0 0 0 .528-5.494q0-1.485-.149-2.93zm-14.59-8.805c1.585.818 3.51 1.287 6.037.984 2.244-.27 4.223-.97 5.817-2.025l.358-.223a28.4 28.4 0 0 1 2.397 6.764l-.612.278c-9.852 3.146-21.597 3.36-25.7 3.328l-.389-.025a10 10 0 0 1-.182-1.869c0-1.06.178-2.311.762-3.566l.51.056c2.632-.018 7.86-.531 10.316-4.097zm-34.98-7.33c-4.449 5.056-7.15 11.685-7.15 18.934 0 10.034 5.177 18.883 13.001 24.014l.57-.26c2.123-.943 3.627-1.857 4.564-2.502l-.18-.238c-12.177-14.622-4.797-31.959-2.714-36.145l-.159-.244c-.98-1.075-3.17-2.87-7.232-3.5zm2.717-2.705a28.8 28.8 0 0 1 6.127-4.091l.41.096c11.865 2.685 19.03 8.416 21.728 10.947l.84.87c-1.621 2.427-5.715 2.814-7.83 2.843l-.748-.065c-1.402-1.59-5.489-5.441-12.395-5.768l-.425-.358c-1.072-1.249-3.282-3.225-7.12-4.28zm11.797-5.739c9.89 3.125 16.042 8.095 18.562 10.459 2.452 2.3 4.185 3.667 7.577 3.26 1.852-.221 3.422-.776 4.63-1.615l.335-.333c-5.122-7.874-13.999-13.09-24.072-13.09a28.6 28.6 0 0 0-7.718 1.053zm80.786 15.232a5.494 5.494 0 0 0-4.206 6.523 5.45 5.45 0 0 0 2.39 3.452 5.45 5.45 0 0 0 4.133.752 5.45 5.45 0 0 0 3.454-2.393 5.45 5.45 0 0 0 .75-4.129h-.001a5.45 5.45 0 0 0-2.389-3.454 5.45 5.45 0 0 0-4.132-.75z" style="fill:#ee2523;fill-opacity:1;fill-rule:nonzero;stroke:none" transform="matrix(1.33333 0 0 -1.33333 0 1118.667)"/><path d="M190.341 607.569c1.102 8.955 5.241 22.976 10.639 36.856 5.389 13.859 4.93 25.5-1.53 33.83-7.862 10.137-23.63 9.69-32.3.51-9.906-10.488-7.48-26.35 2.38-32.13s17.85 2.72 17.85 2.72-5.124 9.486.51 11.9c3.57 1.53 5.95-2.38 6.46-5.95.585-4.094-.51-12.58-12.24-15.98s-25.498 4.742-27.03 20.06c-1.7 17 8.928 24.398 17.51 28.9 10.37 5.44 28.854 3.052 35.53-10.88 3.91-8.16 4.25-19.04-1.02-32.64-5.64-14.555-7.984-25.924-8.804-30.699 0 0 3.194 1.29 6.934 1.12 0 0-7.31-2.55-8.5-10.03 0 0-2.406-.947-3.74-.68-2.55.51-2.761 2.177-2.649 3.093" style="fill:#f6f10b;fill-opacity:1;fill-rule:nonzero;stroke:none" transform="matrix(1.33333 0 0 -1.33333 0 1118.667)"/><path d="M481.824 592.266c5.841 3.806 10.591 5.113 13.56 3.68 3.123-1.504 3.49-5.583 3.528-6.797s-.071-5.308-3.094-7.006c-2.785-1.567-7.402-.67-13.21 2.513l-.554.331c.46 1.074.695 2.23.695 3.392 0 1.137-.227 2.28-.686 3.354zm-15.97-5.713a8.5 8.5 0 0 1 1.597-3.423 8.5 8.5 0 0 1 2.518-2.19l.35-.223c-2.485-6.498-5.554-10.338-8.794-10.925-3.412-.619-6.108 2.466-6.852 3.427-.744.957-3.062 4.335-1.614 7.486 1.335 2.91 5.61 4.9 12.2 5.736zm2.286 17.992q-1.937 2.337-4.05 3.505l-.026 1.067c0 2.54.367 4.318.704 5.47 1.064-.727 2.645-2.023 4.375-4.205l.315-.381q-.986-2.498-.884-5.972zm1.752-8.795a8.52 8.52 0 0 1-4.114-5.989l-.316-.046c-6.8.385-11.304 2.11-12.844 4.973-1.642 3.053.46 6.572 1.142 7.576s3.177 4.251 6.622 3.85c3.179-.372 6.391-3.823 9.223-9.83zm2.963 1.07c-1.815 6.731-1.591 11.651.688 14.034 2.396 2.505 6.39 1.595 7.558 1.256 1.166-.339 5.027-1.71 5.708-5.11.63-3.14-1.663-7.266-6.51-11.818l-.437-.405a8.57 8.57 0 0 1-6.253 2.116zm7.416-14.5c5.42-4.376 8.127-8.486 7.684-11.75-.466-3.436-4.232-5.046-5.375-5.458s-5.07-1.571-7.621.778c-2.43 2.24-2.961 7.16-1.557 14.022l.345-.079a8.5 8.5 0 0 1 5.696 1.783zm-79.966 56.26c-1.565-.116-4.225.113-7.446 2.103l-.437.427a28.58 28.58 0 0 0 6.696 18.994c4.926 5.871 11.845 9.473 19.482 10.141 1.967.172 3.921.145 5.84-.076l.49-.895c.931-1.95 1.456-3.512 1.744-4.555l-.81-.157c-18.293-3.606-23.699-21.305-24.793-25.832zm-2.13-13.4c9.56-3.94 17.44-4.085 20.883-3.894 3.356.186 5.563.12 7.899-2.371 1.246-1.33 2.081-2.725 2.48-4.11l.12-.58a29 29 0 0 0-5.955-1.156c-7.635-.668-15.076 1.677-20.947 6.604a28.6 28.6 0 0 0-5.144 5.638z" style="fill:#ee2523;fill-opacity:1;fill-rule:nonzero;stroke:none" transform="matrix(1.33333 0 0 -1.33333 0 1118.667)"/><path d="M428.118 661.773a11.7 11.7 0 0 0 3.455-5.535l.18-.5c-1.546-.781-4.169-2.606-5.972-6.524-1.372-.7-5.033-2.968-6.453-7.422-1.12-.754-3.781-2.928-4.79-6.699-1.792-.226-6.132-.253-10.482 3.007.938 4.12 5.761 20.689 23.208 23.609zm12.085-9.391a56 56 0 0 1-5.348 3.352l-.162.582c-.431 1.856-1.607 5.158-4.755 7.883-.15.79-.529 2.38-1.433 4.577l-.322.706a28.4 28.4 0 0 0 9.223-4.207l.531-1.088c2.115-4.812 2.891-9.437 3.174-12.366zm-20.177-27.984q-.575-.024-1.137-.057c-3.666-.203-12.724.008-23.429 5.453l-.618.296a28.8 28.8 0 0 0-2.075 7.101l.54-.217c3.47-1.601 6.34-1.588 8.012-1.35l.681.114c5.572-4.301 11.274-3.941 13.349-3.621l.57-.438c1.481-1.278 4.06-3.876 4.19-6.553zm25.508 8.987c-6.64 7.57-13.144 12.649-16.12 14.803l-.562.414c1.52 2.911 3.504 4.077 4.428 4.489 6.242-3.392 11.968-8.485 15.96-12.51l.515-.582a28.4 28.4 0 0 0-1.954-8.898s-1.719 1.66-2.267 2.284m-4.909-11.66c-5.794 8.955-14.56 16.568-17.833 19.255l-.44.323c1.01 2.664 3.197 4.25 4.373 4.941l.594-.326c3.014-2.174 11.004-8.343 18.456-17.58l.426-.608a29 29 0 0 0-3.118-4.518 29 29 0 0 0-1.987-2.143zm-1.979-2.788a28.4 28.4 0 0 0-6.17-3.642l-.184.596c-.559 1.774-1.605 3.52-3.104 5.117-1.994 2.127-4.036 2.969-6.016 3.267l.014.598c.039 4.02-3.331 7.482-5.253 9.127l-.45.419c.613 2.17 2.034 3.632 2.968 4.398l.777-.523c3.383-2.83 11.466-10.008 16.78-18.17zm-85.832 54.19c6.958.13 11.67-1.277 13.43-4.062 1.85-2.932.001-6.586-.611-7.636-.61-1.05-2.874-4.463-6.337-4.303-3.208.15-6.666 3.388-9.918 9.218l-.245.489a8.48 8.48 0 0 1 3.488 5.223zm-13.72-6.069a8.5 8.5 0 0 1 3.369-1.551 8.5 8.5 0 0 1 3.772.031l.108-.43c2.143-6.378 2.215-11.148.152-13.63-2.217-2.665-6.263-2.034-7.45-1.777s-5.133 1.353-6.05 4.696c-.844 3.074 1.131 7.323 5.6 12.172zm8.493 14.639c2.03 6.698 4.832 10.769 8.034 11.583 3.36.854 6.263-2.034 7.072-2.94.81-.905 3.358-4.112 2.135-7.356-1.122-2.976-5.202-5.249-11.643-6.547l-.711-.168a8.6 8.6 0 0 1-1.02 2.22 8.5 8.5 0 0 1-3.195 2.935zm-11.385-5.004a9 9 0 0 1-.288-1.027 8.53 8.53 0 0 1 1.058-6.248l-.42-.26c-5.389-3.992-9.89-5.524-12.881-4.332-3.22 1.283-3.873 5.328-3.997 6.537-.122 1.208-.298 5.3 2.6 7.205 2.678 1.763 7.37 1.18 13.415-1.615zm1.648 2.743c-5.747 4-8.756 7.925-8.541 11.224.225 3.46 3.87 5.33 4.982 5.82 1.111.49 4.948 1.921 7.656-.244 2.514-2.012 3.406-6.683 2.599-13.339l-.025-.49a8.5 8.5 0 0 1-4.885-1.362 8.6 8.6 0 0 1-1.39-1.114zm-14.351 3.408c-1.817 2.082-2.8 3.86-3.32 5.032 1.272.128 3.298.155 6.002-.395l.571-.173q.871-2.553 3.208-5.15l-.78.205q-2.961.534-5.318.072zM120.73 602.492a8.5 8.5 0 0 1 5.267-2.197l.633-.027c.86-6.916-.046-11.757-2.633-13.798-2.722-2.148-6.55-.69-7.66-.193-1.106.498-4.738 2.392-4.94 5.854-.191 3.282 2.809 7.162 8.52 11.099zm9.531-1.328a8.56 8.56 0 0 1 4.19 4.584l.224.581c6.835-1.32 11.153-3.676 12.294-6.766 1.2-3.252-1.369-6.441-2.185-7.342s-3.738-3.768-7.092-2.89c-3.193.835-5.967 4.916-7.948 11.615z" style="fill:#ee2523;fill-opacity:1;fill-rule:nonzero;stroke:none" transform="matrix(1.33333 0 0 -1.33333 0 1118.667)"/><path d="M180.952 608.638a192.5 192.5 0 0 1-19.634-16.039c-11.117-10.372-20.724-21.43-26.36-30.336-6.29-9.944-8.19-19.425-5.21-26.012 1.578-3.49 4.404-5.798 7.75-6.33 7.887-1.25 14.22 3.819 16.402 9.474 1.573 4.076.764 7.903-2.063 9.751-1.421.93-2.952 1.193-4.425.762-1.849-.54-3.228-2.049-4.124-3.332-.577.85-1.156 2.011-1.236 3.346a5 5 0 0 0-.01.312c0 1.498.652 2.988 1.942 4.433 1.632 1.83 3.914 2.817 6.423 2.782 2.833-.038 5.598-1.413 7.586-3.77 4.007-4.75 4.45-12.844 1.031-18.824-5.07-8.869-12.289-13.905-22.073-12.423-5.37.814-10.22 4.665-12.655 10.05-2.164 4.786-4.273 16.665 5.922 32.78 8.05 12.724 20.544 25.16 27.274 31.44a198 198 0 0 0 21.182 17.197l1.056-1.943a35 35 0 0 0 1.035-2.652zm23.501 14.216c.534 1.98 1.25 4.514 2.122 7.311l.573.373c26.165 12.463 54.977 19.055 84.61 19.055 50.03 0 97.714-18.784 134.271-52.891 6.732-6.28 19.225-18.716 27.275-31.44 10.194-16.115 8.086-27.994 5.92-32.78-2.433-5.385-7.284-9.236-12.655-10.05-9.782-1.482-17.002 3.554-22.071 12.422-3.42 5.981-2.977 14.074 1.03 18.825 1.99 2.357 4.754 3.732 7.586 3.77 2.51.035 4.79-.953 6.423-2.782 1.29-1.445 1.942-2.935 1.942-4.433q0-.156-.01-.312c-.08-1.335-.659-2.495-1.236-3.346-.895 1.283-2.274 2.792-4.124 3.332-1.473.43-3.003.168-4.426-.762-2.825-1.847-3.635-5.675-2.062-9.751 2.181-5.655 8.515-10.725 16.401-9.473 3.349.531 6.173 2.838 7.752 6.33 2.979 6.586 1.08 16.066-5.212 26.011-5.635 8.907-15.242 19.964-26.36 30.336-35.515 33.135-81.84 51.383-130.44 51.383h-.004c-30.587 0-60.274-7.228-86.933-20.848z" style="fill:#f6f10b;fill-opacity:1;fill-rule:nonzero;stroke:none" transform="matrix(1.33333 0 0 -1.33333 0 1118.667)"/><path d="M270.837 690.907c-.21.943-.292 1.798-.292 2.558 0 1.844.473 3.092.789 3.74 7.076 1.44 14.874 1.195 20.545.667l.504-.123a28.7 28.7 0 0 0 4.29-8.307l-.32.068c-11.445 2.125-21.12 1.755-25.021 1.466zm-8.99 9.655a11.7 11.7 0 0 0 6.091-1.97l.487-.383c-.442-1.033-.935-2.656-.935-4.77 0-1.175.196-2.526.594-3.986-.387-.92-1.087-2.918-1.087-5.361 0-1.38.294-2.908.924-4.454-.192-.661-.47-1.86-.47-3.395a11.5 11.5 0 0 1 1.086-4.852c-1.215-1.318-4.489-4.145-9.94-4.445-1.094 2.122-3.855 8.198-3.855 15.591 0 5.58 1.587 11.876 6.687 17.703zm-4.902 5.953a28.5 28.5 0 0 0 9.735 2.701l.556-.233c5.023-2.377 8.806-5.61 10.974-7.749l-.557-.051a57 57 0 0 1-6.817-.916l-.29.196c-1.451 1.144-4.565 3.098-8.94 3.152-.632.514-1.931 1.472-3.998 2.555z" style="fill:#ee2523;fill-opacity:1;fill-rule:nonzero;stroke:none" transform="matrix(1.33333 0 0 -1.33333 0 1118.667)"/><path d="M153.757 674.859c-28.459-17.748-53.568-41.031-73.367-68.163-6.7-9.181-12.153-16.93-16.3-26.079-4.401-9.71-5.244-17.528-5.354-21.324q-.014-.512-.014-1.015c0-5.113 1.096-9.283 1.773-11.384-2.288-.96-6.955-3.315-12.207-8.287-1.329-1.405-5.647-6.373-7.983-13.896-6.655-21.43-10.03-45.65-10.03-71.984 0-69.846 27.2-135.512 76.588-184.9s115.052-76.587 184.896-76.587c69.847 0 135.512 27.2 184.9 76.587s76.587 115.054 76.587 184.9c0 26.335-3.375 50.554-10.03 71.984-2.335 7.523-6.653 12.491-7.921 13.834-5.298 5.018-9.979 7.385-12.269 8.348a38 38 0 0 1 1.774 11.385q0 .503-.015 1.015c-.11 3.796-.952 11.614-5.354 21.324-4.147 9.148-9.6 16.898-16.3 26.079-23.787 32.596-55.238 59.638-90.955 78.2-36.897 19.177-78.535 29.313-120.413 29.313h-.004c-34.225 0-68.29-6.77-99.738-19.711l-1.002.15c-4 .733-8.208.695-12.384-.163l-1.098-.256c35.457 16.767 74.736 25.59 114.222 25.59 42.778 0 85.311-10.354 123.005-29.944 36.48-18.96 68.604-46.58 92.899-79.873 6.892-9.443 12.51-17.433 16.878-27.068 8.338-18.393 5.453-33.023 5.424-33.17l-.277-1.335 1.3-.43c.121-.04 12.175-4.197 17.585-21.624 6.823-21.971 10.283-46.75 10.283-73.648 0-71.344-27.783-138.42-78.23-188.867s-117.52-78.23-188.863-78.23h-.004c-71.343 0-138.415 27.783-188.864 78.23-50.447 50.448-78.23 117.523-78.23 188.867 0 26.898 3.46 51.677 10.283 73.648 5.412 17.427 17.465 21.583 17.585 21.623l1.296.427-.272 1.34c-.03.146-2.915 14.776 5.423 33.17 4.369 9.634 9.987 17.624 16.878 27.067 23.001 31.52 53.02 57.955 87.11 76.771l-1.567-1.354a34.7 34.7 0 0 1-7.403-10.062z" style="fill:#f6f10b;fill-opacity:1;fill-rule:nonzero;stroke:none" transform="matrix(1.33333 0 0 -1.33333 0 1118.667)"/><path d="M131.665 616.366c3.282 5.772 6.748 8.966 9.948 9.092 3.464.137 5.704-3.292 6.308-4.346.603-1.054 2.428-4.72.557-7.64-1.775-2.769-6.488-4.145-13.433-3.97l-.093.393a8.48 8.48 0 0 1-2.74 5.263q-.39.354-.813.652zm-12.838-2.814c-5.379 4.05-9.886 5.625-12.893 4.45-3.23-1.262-3.908-5.3-4.04-6.508-.13-1.209-.333-5.3 2.55-7.224 2.746-1.835 7.643-1.195 13.972 1.776l-.179.475a8.5 8.5 0 0 0-.302 1.886 8.5 8.5 0 0 0 1.234 4.866zm3.102 2.514a8.6 8.6 0 0 0 6.48 1.082l.217.475c2.167 6.334 2.265 11.081.225 13.569-2.198 2.68-6.249 2.078-7.438 1.83-1.19-.249-5.142-1.319-6.082-4.655-.896-3.177 1.224-7.636 6.001-12.735z" style="fill:#ee2523;fill-opacity:1;fill-rule:nonzero;stroke:none" transform="matrix(1.33333 0 0 -1.33333 0 1118.667)"/><path d="M193.14 414.672c-.6 16.336-1.186 32.295-1.702 46.409l.88.056a39.4 39.4 0 0 1 6.193.3l.652.147 1.597-44.452-.071-.719a74 74 0 0 1-4.3-1.317 28 28 0 0 1-3.044-1.25zm19.803-142.345C143.51 302.78 94.892 372.182 94.892 452.726c0 14.523 1.708 29.533 5.078 44.614 2.565 11.474 9.19 20.977 18.177 23.549 7.03 2.011 14.223.167 19.241-4.933 5.03-5.113 7.447-14.308 6.158-21.189-1.451-7.74-5.207-13.064-10.573-14.992-3.581-1.285-7.978-.94-11.2.881-1.681.95-3.82 2.756-4.463 5.97-.849 4.246.37 8.244 3.107 10.185 1.737 1.232 3.84 1.454 6.066.723-1.725-1.555-3.876-4.084-3.876-7.064 0-.541.07-1.097.228-1.664.58-2.087 2.194-3.668 4.21-4.129 1.517-.344 4.584-.323 8.106 3.7 5.14 5.874 4.33 16.041-1.765 22.202-3.571 3.609-8.702 4.901-13.727 3.455-6.934-1.994-12.115-8.525-14.214-17.918-3.28-14.676-4.943-29.275-4.943-43.39 0-77.085 45.839-143.665 111.689-173.914l1.134-.482q-.013-1.279.395-2.175s-.497-1.14-.583-1.904c-.085-.766-.194-1.924-.194-1.924M188.506 541.58c.719-19.825 1.606-44.175 2.52-69.205l-.94-.209c-4.633-.825-7.83-2.284-7.74-3.748.121-1.952 6.04-3.178 13.22-2.734 7.182.443 12.905 2.385 12.786 4.337-.095 1.534-3.767 2.619-8.816 2.799l-.78.076-2.565 71.229-.019 1.23c-1.383-1.062-3.315-1.979-5.989-2.306 0 0-.59-.709-.846-.964-.254-.255-.831-.504-.831-.504m186.197-267.39c67.225 31.357 113.927 99.594 113.927 178.535 0 14.523-1.708 29.533-5.078 44.614-2.566 11.474-9.19 20.977-18.178 23.549-7.03 2.011-14.223.168-19.24-4.932-5.03-5.114-7.447-14.309-6.157-21.19 1.45-7.74 5.205-13.064 10.572-14.992 3.58-1.285 7.977-.94 11.2.881 1.68.95 3.82 2.756 4.463 5.969.849 4.247-.371 8.245-3.108 10.186-1.737 1.232-3.84 1.454-6.065.723 1.725-1.555 3.875-4.084 3.875-7.064a6.2 6.2 0 0 0-.227-1.664c-.58-2.087-2.193-3.668-4.211-4.129-1.516-.344-4.584-.323-8.106 3.7-5.139 5.874-4.33 16.041 1.766 22.202 3.57 3.609 8.703 4.901 13.727 3.455 6.934-1.994 12.115-8.525 14.213-17.918 3.28-14.676 4.944-29.275 4.944-43.39 0-67.397-35.04-126.763-87.862-160.837l-1.313-.847c-1.124-1.272-2.758-2.412-5.016-3.447-4.08-1.87-6.97-3.91-10.54-6.969-.953-.817-1.7-1.32-2.345-1.636 0 0 .01-.915-.117-1.998-.128-1.084-1.124-2.8-1.124-2.8m-34.237-7.009c.803-1.47 2.148-2.768 4.333-3.558 0 0-1.075 1.615.68 3.911.393.515.733.98 1.024 1.426l.446.621q2.992.903 5.94 1.9l.119-.337c.564-1.44 1.507-2.882 3.052-4.046l.396-.326c-20.27-7.072-42.042-10.918-64.693-10.918h-.004c-11.35 0-22.48.966-33.309 2.819 0 0-.565.258-.52.36.511 1.15.585 2.563.326 4.13l-.156.793q.356.155.66.376l.7-.139a191.7 191.7 0 0 1 32.299-2.728c16.723 0 32.95 2.157 48.42 6.207z" style="fill:#f6f10b;fill-opacity:1;fill-rule:nonzero;stroke:none" transform="matrix(1.33333 0 0 -1.33333 0 1118.667)"/><path d="M264.738 475.503c-2.869-1.972-8.238-5.843-14.296-11.098 0 0-9.682 20.73-10.532 45.04-.553 15.816 7.99 27.2 7.99 27.2-8.84 4.42-9.69 13.09-9.69 13.09 9.18-.17 12.41 4.08 16.15 9.86 3.74 5.781 9.01 9.35 9.01 9.35-1.36 7.65-.34 12.58-.34 12.58 10.71-9.52 25.16-2.55 23.12 7.48s-12.58 8.84-12.58 8.84c6.63 9.35 16.998 9.52 20.909 8.16s6.97-5.44 6.97-5.44c-.68 18.87 7.65 26.69 7.65 26.69-.51-10.2 10.54-17 10.54-17s5.95.85 13.09.85 15.224.939 18.019-4.25c2.38-4.42 1.02-6.8-5.269-6.8-6.29 0-5.95 4.42-16.83 4.93s-14.28-5.95-14.28-5.95 6.969 2.38 10.879 1.7c0 0-2.04-4.08 2.55-6.8s7.141 1.19 6.972 3.06c-.171 1.87-4.251-.51-4.761 1.36s1.02 2.55 1.02 2.55 4.08-1.53 8.16-3.4 10.54-3.06 15.13.51c0 0 2.38-2.38 7.48-2.55s8.329-1.02 8.329-3.74-2.719-5.78-10.03-4.42c0 0-.534-1.647 1.021-2.89 1.7-1.36 4.081-4.76.68-5.61-3.4-.85-5.1-2.89-5.95-4.76 0 0-.982 3.976-8.67 5.44-7.14 1.36-13.603-2.291-14.45-6.63-1.36-6.97 1.02-11.22 4.76-14.45s11.219-2.89 11.219-2.89 4.251-2.21 2.72-9.86c0 0-2.387 2.85-8.84 2.55-7.309-.34-12.578 1.36-15.979 5.1 0 0-4.08-6.97-2.55-16.15s8.33-18.19 21.25-11.22c0 0-.34-8.16-6.12-11.22s-14.96 3.74-14.96 3.74 1.87-3.229 5.78-9.52c3.909-6.29 4.93-15.47 4.08-21.08 0 0-5.95 5.44-11.39 13.43-3.771 5.538-6.97 14.45-6.97 14.45s-1.875-5.341 2.89-14.45c5.78-11.05 11.39-15.13 14.79-22.78 2.747-6.184.68-15.81.68-15.81s-5.44 12.411-11.73 17-12.41 11.56-14.62 18.53-7.14 13.09-7.14 13.09 1.106-7.923 4.76-16.49c4.93-11.56 11.22-16.32 11.22-16.32s-11.052-1.7-17.85 6.46c-6.8 8.16-8.671 17.17-12.75 21.93 0 0 0-6.97 3.74-14.45s7.82-12.75 7.82-12.75 1.19-18.7-10.2-28.9c0 0-8.67 1.53-14.109 11.9-4.771 9.096-6.46 28.05-3.4 35.7 0 0-3.74-.68-4.93-7.14s-.162-15.752-.162-15.752m43.17 49.243c2.498-8.23 6.97-4.08 6.97-4.08s-4.549 7.648-4.42 14.11c.17 8.5 6.12 16.32 6.12 16.32-9.86-4.25-11.56-16.83-8.67-26.35m-20.228 5.1c0-6.47 5.099-8.67 5.099-8.67s1.53 2.72-.34 7.31c-1.036 2.543-.62 6.02 4.42 13.94 5.95 9.35 10.71 15.81 10.71 15.81-10.03-4.93-19.89-19.72-19.89-28.39m-6.12 21.93c-9.35-6.63-13.429-6.63-16.66-4.42s-3.399 7.65-3.399 7.65c-1.87-1.53-4.42-7.14-.34-11.05s10.03-3.4 19.04 1.87 18.529 13.6 18.529 13.6c-4.421 1.19-7.82-1.02-17.17-7.65" style="fill:#0563b7;fill-opacity:1;fill-rule:nonzero;stroke:none" transform="matrix(1.33333 0 0 -1.33333 0 1118.667)"/><path d="M384.24 335.366c-1.021 7.14-3.401 13.77-3.401 13.77s-5.78-6.971-13.26-4.08c-7.481 2.89-7.48 9.52-8.84 19.039s-4.76 17.51-4.76 17.51 4.76-5.098 10.37-9.01c5.61-3.91 13.26-4.25 19.04-4.93s11.9-2.889 17-7.82c0 0 1.02 9.35-4.25 16.49 0 0 10.71.34 17.17 7.31 6.374 6.877 6.29 19.04.85 27.881-8.503 13.82-18.36 19.38-27.37 31.28-8.478 11.197-11.73 24.99-8.33 38.08 2.636 10.15 11.05 17.34 18.7 16.83 7.53-.502 16.83-7.14 14.45-18.19s-10.88-15.13-10.88-15.13 9.86-2.55 17.68 1.53 13.94 19.55 7.82 30.94c-6.03 11.223-21.42 12.07-21.42 12.07s7.485 5.719 11.73 15.13c3.91 8.67.34 18.87-1.87 29.07-2.009 9.268 1.19 15.81 1.19 15.81-7.31-3.74-11.39-18.53-11.39-18.53-9.69 3.06-12.75-2.21-12.75-2.21 10.2 1.87 16.83-6.8 16.83-6.8-3.4-22.61-19.89-29.41-19.89-29.41s3.57 12.07 1.36 23.97c-1.212 6.527-6.265 16.168-15.3 14.79-10.03-1.53-11.9-12.07-11.9-12.07 14.96 5.27 22.269-7.99 19.55-18.87-2.597-10.385-9.01-14.45-12.58-26.86s-2.72-29.24-2.72-29.24c-6.12 14.79-13.09 20.91-13.09 20.91 1.02-5.44.17-10.71 2.04-17.68s5.439-11.05 5.439-11.05c-7.14-5.61-12.41-1.19-12.41-1.19 2.72-14.45 9.01-15.3 16.321-16.83 5.035-1.054 8.16-.68 8.16-.68-6.46-7.65-7.48-14.96-6.12-22.27s.51-14.45.51-14.45c2.72.85 9.52 4.42 10.71 9.689s-1.19 14.621-1.19 14.621c3.23-2.21 4.25-6.46 4.25-6.46 16.66-1.02 21.93-11.73 21.93-18.02 0-11.051-8.5-18.7-22.78-18.53s-22.61 5.949-30.09 14.45-7.14 18.699-9.52 32.64-7.82 26.349-12.07 33.83-9.01 12.07-9.01 12.07c-3.715-.569-6.898-.54-9.528-.227 0 0 .348-18.644-6.112-27.314-7.607-10.209-17.51-10.369-17.51-10.369s.68-5.1-1.36-12.41c0 0 2.4-6.842 11.73-11.901 2.084-1.13 9.69-4.759 13.557-9.595 2.153-2.692 4.317-6.436 5.993-10.974 4.08-11.051 3.57-26.35 4.08-34.68s6.12-18.361 13.43-21.76 17.634-1.116 24.14-4.76c8.5-4.76 12.239-11.221 13.599-19.72 1.361-8.5-3.74-15.81-5.1-20.74s-1.53-10.88 2.55-9.86 6.97 3.91 12.24 7.65 9.52 3.059 10.2 7.649-2.72 10.2-2.72 10.2 6.8-1.02 12.581 1.53c0 0-2.38 6.63-6.63 11.22 0 0 7.14 2.72 9.69 7.14 0 0-4.082 3.401-10.88 3.74 0 0 2.55 9.18-1.02 15.3 0 0-1.02-2.21-3.74-5.1s-5.1-4.419-5.1-4.419" style="fill:#0563b7;fill-opacity:1;fill-rule:nonzero;stroke:none" transform="matrix(1.33333 0 0 -1.33333 0 1118.667)"/><path d="M228.35 397.415s-5.1-2.379-6.97-7.82c-1.87-5.44-1.87-6.8-5.1-6.63s-3.23 1.19-3.4 6.46c-.17 5.271 3.23 12.58 3.23 12.58-5.1-6.29-7.48-14.11-7.48-14.11-5.95-4.758-7.82-.338-6.97 4.591s4.93 11.56 4.93 11.56c-6.8-6.291-9.01-14.11-9.01-14.11-4.59-1.36-4.93 5.1-3.74 8.84s5.95 7.649 5.95 7.649c-5.61-1.53-9.52-7.14-9.52-7.14-1.36 0-3.06 2.55-1.87 5.78s7.48 6.12 17.85 8.67 15.64 6.12 17.85 9.86 5.95 10.71 16.49 24.48 25.33 22.78 25.33 22.78 1.53-8.84 6.63-15.3 12.579-9.35 15.47-10.2c0 0 15.468 12.75 13.43 32.13 0 0 2.16-1.206 4.59-2.04 0 0 1.528-13.6-3.571-23.29s-14.62-12.75-19.04-11.05c0 0 .852-8.33-1.018-12.24 0 0-2.891 3.061-6.29 4.93-3.967 2.182-6.121 3.061-6.121 3.061s3.74-14.62 1.53-23.29c0 0-5.1-.17-12.92 5.95 0 0 4.76-8.841 2.72-16.66 0 0-5.61 1.699-10.54 8.16 0 0-.17-8.331 1.19-16.83 0 0-4.93-1.53-14.96 3.229 0 0 .85-7.82-2.21-12.75 0 0-5.27 4.93-6.46 12.75m136.678-104.72s-1.699-3.739-2.38-8.329-1.19-6.97-3.23-6.63-5.95-.34-5.95 2.38 3.06 8.84 11.56 12.58m-10.568-3.271s-2.65-2.968-4.407-6.684-3.125-4.775-5.156-4.264-4.753.41-2.982 4.294c1.773 3.884 6.51 7.005 12.545 6.654m-173.2 306.21s-2.55-1.02-2.89-4.25 2.21-6.8 6.46-10.2 10.71-6.12 10.71-1.87-1.777 5.601-6.12 7.99c-6.8 3.74-8.16 8.33-8.16 8.33m-.51-16.659s-2.72-.68-2.89-4.25 2.266-6.06 6.29-7.99c4.25-2.04 12.41-4.08 12.58.51s-3.23 6.46-3.23 6.46-9.01.68-12.75 5.27m-2.55-13.261s-2.38-2.13-2.21-4.794 3.57-5.15 5.27-5.683c3.45-1.081 8.33-2.84 10.37 0 1.698 2.365-.34 5.86-.34 5.86s-9.35.71-13.09 4.617m-.85-13.26s-2.21-1.55-1.36-4.653c.85-3.101 5.1-4.342 7.99-4.187 2.89.156 4.76 1.55 3.57 6.513 0 0-6.29-.155-10.2 2.327m299.864-67.827a211 211 0 0 1-2.124 10.821 32 32 0 0 1-1.001 3.547l-8.162-.552c2.98-2.817 4.262-7.53 3.285-12.42a11.5 11.5 0 0 0-1.882-4.418zm-370.904.005a211 211 0 0 0 2.122 10.816c.27 1.207.61 2.49.984 3.584l8.175-.593c-2.978-2.817-4.258-7.528-3.281-12.415.323-1.619.95-3.09 1.857-4.385 0 0-2.862.69-5.349 1.52-2.486.828-4.509 1.473-4.509 1.473m332.753 74.799c2.257.51 4.591.99 6.754 1.413l.16-.218c2.806-4.435 4.416-8.242 5.271-11.437l-7.622-2.84c.458.965.816 2.096.896 3.352.16 2.46-.75 4.815-2.7 7.002a11.4 11.4 0 0 1-3.377 2.598zm21.674 49.72c-3.477.407-7.032-1.526-9.508-5.17s-2.964-7.66-1.305-10.744l.143-.235c-5.085-2.01-7.156-4.492-7.263-4.624l-.84-1.03.903-.975c.115-.125 2.359-2.491 7.608-4.178l-.197-.214c-.81-1.763-.943-3.77-.443-5.802l.293-1.082c-7.61 9.912-16.627 18.818-22.01 23.841a202 202 0 0 1-13.535 11.556l.88-.105c2.74-.49 5.56-.618 8.407-.369 8.45.74 16.107 4.726 21.559 11.224s8.049 14.73 7.31 23.18a31.65 31.65 0 0 1-4.14 13.151l-.54.937c18.789-14.307 35.664-31.18 49.923-50.018l-.64.02c-1.347.067-3.932-.027-7.446-1.165l-.086.252c-.688 3.433-3.625 6.217-7.856 7.447-4.23 1.228-8.201.45-10.622-2.08l-.13-.263c-3.502 4.258-6.53 5.47-6.688 5.533l-1.239.479-.648-1.16c-.083-.147-1.624-2.978-1.623-8.429zm38.854-2.805q.537-.727 1.07-1.455c6.594-9.037 11.957-16.655 15.984-25.538 4.181-9.223 4.979-16.583 5.083-20.149.152-5.273-1.064-9.71-1.692-11.621l-.17-.497-60.27-20.774-.883-.262a21.4 21.4 0 0 1 3.302 5.17c2.418 5.347 4.839 18.35-6.125 35.677a92 92 0 0 1-1.258 1.936l.998-.623c2.04-1.3 4.284-1.821 6.441-1.43l.265.089c.336-5.475 2.063-8.222 2.156-8.365l.72-1.116 1.207.556c.153.071 3.056 1.454 6.255 5.85l.214-.155c2.574-2.372 6.587-2.898 10.73-1.406s6.9 4.454 7.37 7.924l-.023.284c5.323-1.38 8.478-.585 8.642-.542l1.286.34-.158 1.32c-.02.169-.44 3.376-3.659 7.796l.243.12c3.053 1.715 4.791 5.368 4.653 9.77s-2.105 7.937-5.258 9.458l-.27.077c1.936 3.037 2.696 5.477 2.993 6.843zm-367.329-57.201c.853 3.204 2.465 7.026 5.283 11.481l.246.202c2.166-.424 4.501-.905 6.756-1.416l.578-.088a11.4 11.4 0 0 1-3.423-2.621c-1.951-2.187-2.86-4.542-2.701-7.002.08-1.237.428-2.353.876-3.31zM352.165 704c20.354-4.874 40.082-12.194 58.6-21.819a255 255 0 0 0 16.425-9.326l-.435.045c-10.842 1.944-22.406-1.803-29.983-10.83-9.02-10.752-9.682-25.78-2.682-37.117l.5-.728a198.7 198.7 0 0 1-53.015 22.165l.974.038c2.588.24 4.811 1.304 6.299 3.094l.216.169c3.745-3.92 6.796-4.901 6.958-4.951l1.27-.392.565 1.201c.074.153 1.402 3.063 1.038 8.46l.258.06c3.498-.161 6.91 2.014 9.125 5.822 2.216 3.806 2.422 7.846.552 10.807l-.102.25c4.891 2.353 6.772 4.954 6.869 5.093l.766 1.086-.968.91c-.124.117-2.515 2.312-7.841 3.628l.137.24c1.235 3.276.22 7.192-2.716 10.476-2.936 3.283-6.715 4.727-10.108 3.865l-.249-.163c-.5 3.854-1.604 6.303-2.249 7.461zM207.91 634.271a133 133 0 0 0 2.42 6.585c4.76 11.9 9.18 28.39-.896 42.334-3.164 4.379-7.396 7.62-12.186 9.617l-.545.277a259.6 259.6 0 0 0 57.103 15.26l-.821-.498c-9.213-5.566-15.385-15.677-15.385-27.202 0-14.091 9.224-26.068 21.952-30.21l1.021-.206a199 199 0 0 1-52.048-15.67zm71.463 76.58q6.185.299 12.386.299h.004a259.6 259.6 0 0 0 57.972-6.58l-.51-.27c-1.026-.746-3.043-2.484-5.112-5.772l-.255.097c-2.734 2.187-6.773 2.432-10.804.654-4.03-1.779-6.571-4.926-6.799-8.42l.023-.278c-5.39.998-8.472-.014-8.633-.069l-1.258-.429.248-1.305c.032-.167.679-3.355 4.224-7.558l-.267-.096c-2.926-1.924-4.407-5.69-3.962-10.072.446-4.383 2.655-7.773 5.908-9.07l.226-.15c-2.569-4.772-2.56-7.979-2.559-8.148l.019-1.33 1.32-.166c.168-.022 3.398-.392 8.49 1.68l.01-.28c.55-2.002 1.871-3.72 3.753-4.983l.998-.603a200.7 200.7 0 0 1-43.032 4.65q-3.909 0-7.797-.15l.804.382c9.74 5.43 16.343 15.838 16.343 27.76 0 13.725-8.753 25.444-20.968 29.87zm-176.726-82.984c.204-1.398.783-3.841 2.436-6.94l-.262-.074c-3.262-1.275-5.494-4.65-5.969-9.03s.98-8.155 3.892-10.099l.214-.164c-3.526-4.148-4.187-7.3-4.22-7.466l-.256-1.303 1.254-.438c.161-.056 3.245-1.09 8.661-.12l-.054-.28c.203-3.495 2.723-6.661 6.741-8.468 4.02-1.804 8.06-1.587 10.808.582l.234.139c2.853-4.625 5.641-6.225 5.789-6.308l1.16-.647.804 1.058c.102.134 2.02 2.725 2.78 8.124l.259-.063c2.1-.55 4.357-.212 6.473.902l.798.469c-5.693-6.095-11.854-13.41-16.557-20.843-10.962-17.327-8.542-30.33-6.124-35.677a21.4 21.4 0 0 1 3.307-5.176l-.66.189-60.457 20.84-.231.571c-.633 1.943-1.823 6.342-1.672 11.56.103 3.566.902 10.926 5.082 20.149 4.027 8.883 9.39 16.502 15.985 25.538a258 258 0 0 0 19.73 23.873zm2.435 2.809c1.391-.052 3.924-.373 7.253-1.749l.05.27c.95 3.37 4.09 5.92 8.401 6.82 4.312.901 8.212-.178 10.431-2.885l.142-.236c3.802 3.952 6.897 4.926 7.06 4.975l1.272.384.558-1.207c.072-.153 1.39-3.098.973-8.536l.27.003c3.498.139 6.894-2.06 9.083-5.882s2.368-7.864.48-10.812l-.093-.248c4.867-2.385 6.727-4.996 6.823-5.135l.758-1.091-.974-.904c-.125-.115-2.526-2.29-7.851-3.57l.121-.25c.804-2.177.618-4.627-.46-6.982l-.497-1.029c2.46 2.48 4.7 4.626 6.522 6.327a201 201 0 0 0 21.016 17.115l.435.337c-2.768 3.005-5.795 3.895-5.795 3.895s4.42 7.82 11.05 4.59c1.38-.673 2.422-1.742 3.205-2.909l.255.192q2.052 1.288 4.132 2.525l.15.6c1.272 4.416 3.158 10.242 5.858 17.101 6.291 15.98 5.78 23.8 2.38 30.26-3.83 7.277-13.43 11.22-22.61 6.8-10.824-5.21-13.449-16.968-8.33-25.5 5.1-8.5 15.81-4.08 15.81-4.08-5.1 10.37 2.04 16.49 8.5 15.3 6.268-1.153 9.316-10.363 5.44-19.04-3.57-7.99-13.942-12.083-22.95-11.22-7.764.744-14.018 4.97-18.499 11.554-4.676 6.871-5.714 15.24-3.603 23.132l.031.45a261.6 261.6 0 0 1-47.43-39.306zM315.11 363.345c-3.829-3.773-9.312-9.479-13.32-14.89-6.8-9.18-6.802-15.64-2.892-19.38 3.912-3.74 9.69-2.04 11.221-6.8 1.35-4.202-9.86-12.409-15.64-18.02 0 0 6.29-3.57 12.58-2.21 0 0-6.8-7.48-17.34-6.12 0 0 2.211-9.86.34-18.53 0 0-3.739 7.31-8.668 9.69 0 0-4.59-3.23-4.59-12.75 0 0-5.61 6.291-12.75 3.911 0 0 4.08-2.21 4.59-7.65 0 0-4.59 3.4-10.541 4.08 0 0 .17-7.48-2.72-7.48-2.434 0-6.29 0-6.97 4.08s-1.02 9.689-1.02 9.689-1.36-.51-3.57-5.269-4.76-4.93-7.31-3.91-3.57 3.23-2.72 5.78 3.06 6.97 3.06 6.97c-4.42 2.04-7.31 0-10.71-3.23s-5.95-5.78-8.67-4.25-.17 5.949 3.4 11.39c3.57 5.44 11.56 7.82 16.15 5.95s8.5-6.12 8.5-6.12 9.52 3.74 20.23 20.57c10.178 15.994 9.35 28.56 9.35 28.56s-7.704 3.594-8.67 13.26c-.85 8.499 3.06 21.59 11.9 34.34 7.1 10.241 16.722 18.289 20.234 21.06l.769.455c1.44-.76 2.844-1.511 4.155-2.305 4.218-2.553 13.09-15.47 12.411-32.13-.125-3.06-.174-5.752-.141-8.158zM200.577 527.379l-.975 25.5.044.89c1.64.866 3.224 2.222 4.493 4.31 0 0-1.6-.209-3.941 1.11q-.399.225-.793.408l-.12 2.727c2.632-.13 5.937.394 8.692 2.982 0 0-3.726 1.563-5.144 3.654-.473.697-1.417 1.309-2.465 1.815l-.631.222a11 11 0 0 1-.916 1.723l-.018 1.065.466-.195c2.088-1.11 4.86-2.014 7.491-1.095 0 0-1.51 1.14-2.01 3.119-.49 1.94-1.697 4.297-4.871 6.156l-.612.288a8.3 8.3 0 0 1-.873 1.874l-.007.734-.099 2.554.613-.376c1.633-1.277 4.102-3.471 6.33-6.509 3.74-5.1 6.12-10.37 5.1-24.14 0 0 9.86-11.05 15.98-20.06s10.54-15.64 10.54-15.64-.85-2.38-.85-9.69c0-15.87 5.108-34.623 10.286-47.445l.926-1.834q-1.097-1.005-2.202-2.06a92 92 0 0 1-3.383-3.404s-2.057 3.233-2.738 12.413c0 0-3.91-3.23-7.31-4.59 0 0-1.19 2.211-1.87 7.99 0 0-6.29-7.311-11.9-9.52 0 0 5.1 8.84 4.76 20.57 0 0-3.74-2.21-7.65-3.23 0 0 2.38 4.59 2.21 11.39 0 0-5.78-3.91-11.56-5.44 0 0 1.19 6.29 4.42 13.09 0 0-3.483-.51-7.902-6.63 0 0-.51 4.42.34 7.99a323 323 0 0 1 1.784 7.99l-3.52 17.25z" style="fill:#0563b7;fill-opacity:1;fill-rule:nonzero;stroke:none" transform="matrix(1.33333 0 0 -1.33333 0 1118.667)"/><path d="M253.236 256.521a198 198 0 0 0-18.607 4.59l-.642.194c-.822-.913-1.217-1.76-1.217-1.76a14 14 0 0 0-1.312 2.45l-.939.392a199 199 0 0 0-14.08 5.135l-1.52-1.347c-.767.85-1.562 2.637-1.562 2.637-71.384 30.547-121.525 101.485-121.525 183.914 0 14.747 1.733 29.982 5.151 45.281 2.817 12.602 10.225 22.933 20.323 25.823q1.347.386 2.697.609l-1.098.368-56.592 19.507-.528-.196c-1.979-.827-6.416-3.02-11.333-7.672-1.154-1.223-5.084-5.748-7.224-12.643-6.565-21.136-9.893-45.05-9.893-71.076 0-69.03 26.882-133.926 75.691-182.737 48.81-48.81 113.705-75.69 182.737-75.69 69.027 0 133.923 26.88 182.732 75.69 48.81 48.81 75.692 113.707 75.692 182.737 0 26.026-3.329 49.94-9.893 71.076-2.14 6.895-6.071 11.42-7.164 12.582-5.059 4.79-9.585 6.988-11.507 7.78l-.42.147-56.693-19.542-.893-.347a24 24 0 0 0 2.6-.593c10.097-2.89 17.505-13.22 20.321-25.823 3.418-15.299 5.151-30.534 5.151-45.281 0-110.242-89.687-199.93-199.926-199.93h-.004a200.3 200.3 0 0 0-34.261 2.94l-.078-1.29s-1.103.34-2.038.764c-.935.426-2.146 1.311-2.146 1.311" style="fill:#0563b7;fill-opacity:1;fill-rule:nonzero;stroke:none" transform="matrix(1.33333 0 0 -1.33333 0 1118.667)"/><path d="M201.2 590.24c2.665-2.33 5.878-5.568 8.62-9.565 5.312-7.74 4.76-23.63 4.76-23.63 7.48-6.969 23.903-31.772 23.903-31.772 1.858 6.946 4.487 10.012 4.487 10.012-1.53.85-5.95 5.61-7.99 10.71-1.931 4.83-3.06 10.2-3.06 10.2 8.84-5.27 15.81.68 19.38 6.29s7.99 7.99 7.99 7.99c-2.72 13.94 1.53 20.23 1.53 20.23 5.78-9.18 13.26-10.54 17.51-9.18s5.17 7.746 1.02 10.71c-4.76 3.4-13.6 1.53-13.6 1.53s1.384 4.054 9.69 11.39c10.2 9.01 21.93 7.14 21.93 7.14s-.851 6.29 4.589 12.92c4.059 4.948 10.03 10.2 10.03 10.2s.34-9.18 2.55-13.94 7.14-7.48 7.14-7.48 10.2.68 16.15.85 12.24.51 15.47-5.1 4.926-10.54 8.5-10.54c6.46 0 10.88-.85 11.73-3.4 1.436-4.303 1.019-7.82-1.361-10.03s-4.08-3.23-4.08-3.23 1.19-3.06-1.87-5.1-6.628-3.06-6.969-6.97c0 0 6.213.45 10.37 5.27 4.25 4.93 4.93 9.18 4.93 9.18s5.337-.645 7.31-4.59c3.23-6.46.17-20.4-29.58-21.93 0 0 1.36-1.869 2.72-4.59s.17-5.78 0-8.84-2.039-5.78-5.44-3.4c-3.4 2.38-5.101 3.4-8.5 2.89s-8.33.34-12.41 2.89c0 0-1.36-4.59-.68-10.2s5.408-9.669 8.84-9.86c6.12-.34 11.39 5.78 11.39 5.78s1.7-4.76.34-10.88c-1.528-6.876-6.97-12.24-14.79-11.73 0 0 7.82-13.77 3.74-27.37 0 0 3.91-16.999-1.36-23.8 0 0 4.589-11.646 7.65-22.95 4.42-16.32 2.515-25.237 7.48-33.32 5.95-9.69 17.17-18.02 29.92-17.34 15.493.828 20.23 10.37 18.19 17.85s-11.73 9.69-17.17 11.05c0 0 3.57-14.45-20.06-19.38 0 0 1.694 3.924 2.21 9.86.68 7.82-6.29 18.191 3.06 28.73 0 0-10.14-.54-15.47 5.95-7.82 9.521-7.65 20.23-7.65 20.23s6.121-2.89 11.39-2.72c0 0-4.25 5.78-4.59 16.32s-1.02 17.34-3.91 20.91c0 0 7.308-2.381 16.32-15.81 0 0-.626 9.022 3.91 20.91 4.93 12.92 12.265 15.505 11.22 27.2-.85 9.52-14.96 13.26-19.55 2.72 0 0-2.04 5.95 1.53 14.45 3.513 8.364 14.816 16.505 26.662 6.086 0 0 3.598 5.645 15.328 5.475 0 0 5.27 20.57 20.4 19.04 0 0-7.31-9.18-5.27-18.87.498-2.366 1.047-4.752 1.572-7.137l.242-.61c.598 2.873 1.82 5.547 3.646 7.713a14.3 14.3 0 0 0 4.1 3.34c1.355.734 2.917 1.305 4.142 1.63 3.415 1.034 7.869 2.04 11.958 2.867l.622.098c-5.638 8.125-14.17 17.702-23.896 26.775-34.947 32.604-80.53 50.56-128.352 50.56h-.004c-31.302 0-61.645-7.692-88.673-22.15 0 0 1.154-.105 1.565-.098 6.12.097 8.059-4.678 8.059-4.678-9.69-1.02-12.58-9.01-12.24-12.58s4.42-8.16 4.42-8.16c-1.206-1.762-3.106-2.213-4.586-2.257zm3.577-172.684-1.677 43.859-.01.907c6.07 1.609 10.181 4.626 9.984 7.824-.08 1.292-.854 2.47-2.16 3.469l.855.323c1.9.55 4.398 1.489 6.721 3.038 0 0-2.38-12.751-7.65-20.741 0 0 10.71 1.87 16.83 8.16 0 0 .85-2.72 2.21-5.1 0 0 3.57 1.02 5.78 2.55 0 0 .68-2.38 1.02-5.1.254-2.031 1.101-5.015 1.101-5.015-7.194-8.59-12.315-17.565-16.741-25.245-2.81-4.874-8.982-6.96-15.413-8.731zm-11.423-123.67-.286 8.234-.052.847c-4.467 1.62-7.439 4.533-7.403 7.827.026 2.38 1.615 4.527 4.189 6.11.473.29 2.826 1.613 2.826 1.613-3.207 1.344-5.27 3.46-5.244 5.819.022 2.03 1.587 3.847 4.085 5.127l.634.292-1.725 49.47-.313.743c-1.77 3.56-1.31 6.925-.399 9.41l.362 1.214c-.214.768-.318 1.675-.279 2.744l-.572-.44a7.4 7.4 0 0 0-1.638-1.252c-1.396-.79-1.846-3.325-1.846-3.325-2.81 4.252-1.967 8.912-.87 11.917l.275.922c-.109 3.958 1.123 7.352 4.17 10.038l-.04 1-1.699 48.715.024.7c-5.62.985-9.546 3.363-9.731 6.362-.189 3.046 3.53 5.927 9.129 7.583l.046.65-2.249 64.43-.51.07c-4.8-.181-9.831.885-11.648 7.16-1.87 6.46 2.38 7.31 2.38 7.31-6.12 9.69 1.02 13.6 1.02 13.6-4.93 10.37 2.04 13.599 2.04 13.599s-3.91 2.04-2.55 10.541c.79 4.941 4.748 6.394 6.56 6.81l.547.11c-.157 1.863-.368 3.525-.668 5.09l-.12.553a189 189 0 0 1-18.393-15.117c-9.725-9.073-18.257-18.65-23.895-26.775l.522-.077c3.455-.699 7.181-1.524 10.325-2.388 2.5-.704 4.575-1.335 6.265-2.349a14.7 14.7 0 0 0 3.709-3.121c4.873-5.776 5.44-15.161 1.349-22.316-5.208-9.109-12.746-14.61-22.436-14.198l-.743-.017q.546-.488 1.067-1.019c5.711-5.805 8.452-16.064 6.984-23.898-1.66-8.852-6.115-15-12.547-17.309-2.205-.792-4.664-1.035-7.075-.878-5.817.381-21.114 5.566-21.114 5.566-1.498-9.758-2.255-19.42-2.255-28.857 0-67.162 35.364-126.222 88.45-159.534zM293.3 409.844c-3.66 2.23-7.077 4.953-9.36 8.992-5.023 8.884-8.67 9.35-8.67 9.35s2.04-14.11-1.87-19.55c0 0-4.59-.34-8.5 2.72 0 0 .85-9.01-2.38-12.75 0 0-5.27.51-7.14 3.4 0 0-2.38-5.1 2.72-12.75 0 0-9.69-1.7-17 2.72 0 0-.68-8.671-6.29-12.92 0 0-6.12 4.25-7.65 12.07 0 0-2.89-1.531-3.74-6.97-.507-3.249-2.062-4.527-4.091-4.975l-.073-.889c-.067-1.778-.509-3.23-1.005-4.03-.914-1.478-1.096-3.876-1.096-3.876-4.607 2.104-5.395 5.94-5.288 8.67l.04.944c-1.142.856-1.885 2.34-2.087 4.665 0 0-1.016-1.624-3.127-2.677l-.545-.306 1.974-51.588.568-.312c3.091-1.348 5.067-3.424 5.042-5.733-.025-2.302-2.034-4.33-5.14-5.61l.59-.285c4.258-1.644 7.064-4.488 7.029-7.691-.034-3.15-2.812-5.895-6.992-7.46l-.034-.706.314-8.241s3.956-1.743 7.431-5.809l.54 1.049c4.93 8.33 14.45 10.71 20.23 9.01 5.78-1.702 8.33-4.93 8.33-4.93s8.84 4.25 18.7 20.91c6.03 10.188 6.12 21.76 6.12 21.76-8.16 5.27-10.88 13.43-6.97 27.2s11.56 24.99 17.51 32.47c4.64 5.833 10.623 11.355 13.033 13.506z" style="fill:#fff;fill-opacity:1;fill-rule:nonzero;stroke:none" transform="matrix(1.33333 0 0 -1.33333 0 1118.667)"/><path d="M396.459 296.406c50.323 33.815 83.501 91.266 83.501 156.32 0 9.43-.755 19.08-2.25 28.83 0 0-12.677-4.307-20.034-5.416-2.74-.413-5.622-.157-8.161.755-6.431 2.31-10.886 8.457-12.546 17.309-1.469 7.834 1.272 18.093 6.983 23.899l1.038 1.076c-10.034-.719-17.815 4.826-23.148 14.157l-.294.308c.066-2.227-.049-4.407-.42-6.519-1.7-9.689-8.33-15.98-8.33-15.98s14.79-2.039 19.04-18.19c4.119-15.653-6.058-29.607-14.45-31.96-18.19-5.1-23.63 4.25-23.63 4.25s11.391 3.57 13.77 13.941c2.38 10.37-7.293 16.451-15.64 12.92-8.84-3.74-14.41-19.026-8.33-36.211 1.399-3.952 6.63-13.09 16.744-22.351 5.86-5.366 12.667-12.328 17.766-20.318 9.666-15.145 2.381-37.57-16.32-39.61 0 0 4.08-9.181 2.04-22.271 0 0-5.1 5.61-11.73 9.35s-13.086 3.47-19.21 3.74c-7.649.34-12.069 6.29-12.069 6.29s1.7-3.4 2.21-9.18c.509-5.78 1.7-12.75 7.48-12.919 5.779-.17 10.54 7.31 10.54 7.31s3.74-4.08 5.1-13.771c0 0 4.93 5.611 5.44 12.071 0 0 7.48-2.891 7.65-21.76 0 0 7.82-2.72 10.88-5.44 0 0 .001-4.76-9.01-10.371 0 0 5.099-5.78 5.78-10.2 0 0-3.06-4.08-11.56-4.25 0 0 .695-3.48.555-6.225zm-57.161-21.296c-.902 1.146-1.665 4.475.061 9.256 2.21 6.12 11.9 9.349 19.21 8.33 0 0 4.42 3.06 8.33 4.42 0 0 2.55 8.67 2.04 12.24s-3.91 11.048-8.84 15.47c-4.93 4.42-11.051 4.08-16.49 3.91-5.44-.17-16.66 4.931-21.76 12.92-2.937 4.6-4.689 8.467-5.517 14.1l-.133 1.138c-9.135-6.043-16.683-18.097-15.26-22.208 1.53-4.42 8.33-4.59 11.22-7.65s1.7-8.84-1.36-12.411-9.52-8.67-9.52-8.67c6.12-2.04 12.41 1.53 12.41 1.53-2.38-12.75-19.72-15.98-19.72-15.98 1.87-13.259-3.4-22.61-3.4-22.61s-3.06 3.57-4.59 7.82-4.249 5.44-4.249 5.44-1.36-1.02-1.7-4.76-1.36-8.5-1.36-8.5c-2.72 2.721-7.82 4.59-7.82 4.59.99-3.255 1.186-5.596 1.077-7.222l-.056-.693a189 189 0 0 1 19.892-1.044c16.21 0 31.947 2.062 46.966 5.933l.718.222c-.146 1.537.026 2.989.222 4.018z" style="fill:#fff;fill-opacity:1;fill-rule:nonzero;stroke:none" transform="matrix(1.33333 0 0 -1.33333 0 1118.667)"/><path d="m71.775 481.285 8.272-7.181.99.746c4.53 3.417 6.949 7.429 8.091 13.415 1.081 5.667.024 11.056-3.054 15.587-3.464 5.097-9.305 8.655-16.446 10.017l-.558.107c-13.816 2.634-25.089-4.03-27.411-16.207-1.201-6.291-.199-11.204 3.35-16.424l.7-1.03 9.524 3.947s-3.51 5.548-2.345 10.659c1.266 5.558 6.394 8.188 13.901 6.756l.618-.118c4.152-.792 7.384-2.619 9.1-5.144 1.228-1.808 1.644-3.94 1.227-6.168-.766-4.092-5.959-8.962-5.959-8.962m-33.324-12.6.09-12.13 17.95.132.084-11.489-17.95-.132.089-12.13 47.148.347-.089 12.13-17.698-.13-.085 11.489 17.699.13-.09 12.13zm2.318-52.796 6.373-31.007 11.019 2.263-3.944 19.19c1.75.358 4.939 1.014 6.69 1.373.509-2.482 3.423-16.657 3.423-16.657l11.018 2.263-3.425 16.66 6.443 1.323 3.892-18.94 11.02 2.262-6.323 30.763zm10.701-45.004 11.155-27.8 10.614 4.26-6.638 16.543 33.143 13.301-4.517 11.258zm43.821-18.23c-7.49-4.532-7.243-10.585-6.012-19.3 1.008-6.994.162-7.504-.817-8.097-.594-.36-1.146-.469-1.689-.335-.894.219-1.853 1.112-2.702 2.514-1.752 2.896-2.323 6.39-1.8 10.997l.2 1.76-11.276-.369-.189-1.262c-.866-5.83.39-11.909 3.54-17.11v-.002c4.98-8.226 13.313-10.736 20.735-6.244 6.724 4.068 7.363 9.772 6.19 18.873-.88 7.001-.711 7.707.64 8.524 1.834 1.11 3.327-.908 3.881-1.825 1.39-2.298 1.945-5.203 1.796-9.42l-.061-1.758 11.232 1.177.12 1.243c.497 5.141-.658 9.945-3.53 14.689-2.428 4.014-5.907 6.75-9.794 7.706-3.515.863-7.133.255-10.464-1.76m-4.474-54.748 20.801-23.863 8.48 7.393-12.873 14.764 5.148 4.487 11.174-12.819 8.48 7.392-11.176 12.82c1.325 1.153 3.634 3.165 4.958 4.32l12.706-14.576 8.479 7.392-20.636 23.672zm24.983-29.131 9.659-7.766 8.552 5.409 10.077-8.102-3.448-9.513 9.856-7.923 16.584 47.487-8.458 6.802zm35.236 8.517-2.943-7.928c-1.44 1.16-2.75 2.212-4.195 3.373 1.726 1.1 4.135 2.639 7.138 4.555m28.293-51.834 11.16-4.747s5.86 13.766 6.856 16.111l15.591-6.633 4.452 10.467-15.59 6.632 2.673 6.283c2.386-1.013 17.678-7.52 17.678-7.52l4.476 10.525-28.838 12.269zm44.821 6.98-.15-.742c-2.818-13.742 3.847-25.11 16.21-27.645 12.167-2.493 23.02 5.565 25.808 19.16l.151.74c2.773 13.526-4.018 25.149-16.148 27.636-12.203 2.5-23.083-5.553-25.87-19.15m18.418-17.194c-2.119.435-3.853 1.594-5.015 3.354-1.708 2.59-2.161 6.394-1.277 10.712l.152.74c.88 4.293 2.765 7.58 5.305 9.257 1.768 1.166 3.762 1.532 5.927 1.088 5.349-1.097 7.819-6.619 6.292-14.067l-.151-.741c-.881-4.292-2.764-7.58-5.305-9.255-1.768-1.167-3.763-1.532-5.928-1.088m52.868 32.171c-12.455-.215-21.32-10.442-21.082-24.32l.013-.755c.24-14.026 9.22-23.671 21.839-23.456 12.418.216 21.257 10.442 21.019 24.32l-.013.754c-.236 13.804-9.396 23.668-21.776 23.457m-4.988-34.91c-2.231 2.156-3.501 5.77-3.577 10.176l-.013.755c-.076 4.381 1.048 8 3.162 10.19 1.473 1.522 3.34 2.313 5.549 2.352 5.46.093 9.072-4.757 9.202-12.36v.003l.012-.756c.076-4.384-1.048-8.003-3.162-10.191-1.472-1.523-3.338-2.314-5.547-2.352-2.164-.038-4.11.717-5.626 2.184m28.143 35.263 2.414-11.243s8.557 1.837 10.776 2.315c.587-2.741 7.485-34.857 7.485-34.857l11.92 2.56-7.483 34.855 10.714 2.301-2.413 11.244zm55.084 15.665-16.41-7.01 18.526-43.359 16.814 7.184c7.708 3.294 11.854 8.336 11.854 14.059 0 1.743-.385 3.55-1.172 5.39l-.1.234c-2.319 5.43-6.394 6.99-10.022 7.379.947 1.745 1.458 3.547 1.458 5.408q0 2.445-1.092 5.002c-3.164 7.405-10.773 9.594-19.856 5.713m3.731-10.5zc1.639.7 3.012.867 3.972.481.707-.282 1.246-.88 1.651-1.825.224-.525.335-1.009.335-1.461q0-.5-.181-.952c-.424-1.056-1.618-2.029-3.45-2.812l-4.385-1.873-2.734 6.395zm14.332-17.077q.32-.749.32-1.435c0-1.535-1.202-2.824-3.591-3.846l-6.065-2.59-2.882 6.742c1.828.78 5.833 2.493 5.833 2.493v-.001c4.908 2.096 6.02-.507 6.385-1.363m9.709 42.121 12.32-48.771 10.306 6.882-2.59 9.781 10.753 7.179 8.04-6.146 10.516 7.02-40.318 30.08zm14.776-12.603 6.676-5.187-4.476-2.988c-.531 1.977-1.275 4.736-2.2 8.175m9.485 29.877 32.887-33.787 21.465 20.892-7.977 8.197-12.774-12.434-24.909 25.593zm23.775 23.812 37.856-28.106 17.856 24.05-9.18 6.818-10.627-14.311-28.674 21.29zm53.161 65-6.848 8.664-1.111-.55c-5.086-2.515-8.21-6.008-10.445-11.679-2.116-5.367-2.079-10.86.104-15.882 2.457-5.653 7.535-10.234 14.3-12.9l.525-.207c13.088-5.157 25.404-.702 29.948 10.83 1.137 2.884 1.706 5.546 1.706 8.181 0 2.811-.647 5.592-1.946 8.58l-.497 1.142-10.218-2.136s2.649-5.883.451-10.883c-2.293-5.217-7.805-6.856-14.916-4.054l-.584.231c-6.932 2.73-10.153 7.874-8.046 13.036 2.368 5.797 7.577 7.627 7.577 7.627m25.919 19.413-35.026 6.967-2.366-11.896 46.242-9.2 5.847 29.379-11.219 2.231zm-30.677 50.89 28.795-.612c2.746-.057 4.758-.735 5.983-2.012.984-1.028 1.463-2.474 1.425-4.3-.087-4.083-2.73-6.098-7.857-5.988l-28.609.606-.256-12.127 28.543-.605c6.24-.133 11.135 1.46 14.552 4.733 3.193 3.062 4.943 7.583 5.06 13.076.116 5.497-1.444 10.095-4.512 13.298-3.303 3.444-8.185 5.26-14.513 5.394l-28.355.6zm26.755 58.999-.25-.044c-5.807-1.008-8.265-4.602-9.478-8.037-2.776 2.48-6.143 3.404-10.055 2.725-3.412-.593-6.175-2.272-7.994-4.856-2.315-3.29-3.052-7.841-2.127-13.16l3.057-17.58 46.453 8.074-3.13 18.014c-1.875 10.775-8.034 16.332-16.476 14.864m-18.982-20.513c0 3.048 1.952 3.388 2.755 3.527.855.149 3.456.6 4.328-4.407l.817-4.7c-1.774-.307-5.08-.881-6.853-1.19l-.893 5.133a9.7 9.7 0 0 0-.154 1.637m17.275 2.489a11 11 0 0 0-.182 1.911c0 3.473 2.184 3.852 2.974 3.99 2.335.405 3.811-1.074 4.39-4.397l1.128-6.498-7.224-1.256z" style="fill:#231f20;fill-opacity:1;fill-rule:nonzero;stroke:none" transform="matrix(1.33333 0 0 -1.33333 0 1118.667)"/><path d="m68.497 510.97.557-.107c6.34-1.209 11.485-4.31 14.49-8.731 1.943-2.859 2.934-6.133 2.934-9.62q0-1.805-.356-3.673c-1.098-5.757-3.445-8.682-5.963-10.78l-4.184 3.632c2.652 2.476 4.194 4.99 4.765 7.982q.218 1.142.218 2.255a10.9 10.9 0 0 1-1.92 6.207c-2.176 3.201-6.102 5.485-11.058 6.43l-.616.118c-9.22 1.758-16.082-1.849-17.483-9.188a14 14 0 0 1-.256-2.654c0-2.626.788-4.836 1.81-6.841l-4.528-1.876c-1.78 2.917-2.673 5.711-2.673 8.877 0 1.32.147 2.706.43 4.194 1.986 10.409 11.787 16.072 23.833 13.774m14.065-45.019.044-6.01-17.699-.13.131-17.61 17.698.132c.013-1.687.033-4.326.044-6.011l-41.029-.303c-.012 1.686-.032 4.325-.043 6.01 2.56.02 17.95.132 17.95.132l-.13 17.609-17.95-.131-.045 6.009zm2.011-44.182 5.09-24.767-5.023-1.031-3.893 18.941-12.437-2.557s2.914-14.175 3.423-16.659l-5.022-1.03-3.423 16.657-12.684-2.607 3.943-19.189-5.023-1.03-5.141 25.013zm8.953-37.3 2.238-5.578-33.143-13.303 6.638-16.542-4.933-1.979-8.878 22.12c2.552 1.022 35.527 14.257 38.078 15.282m-3.48-61.828c3.064 1.852 3.176 4.804 2.263 11.147-1.221 8.637-1.159 12.787 4.567 16.25 2.622 1.587 5.438 2.074 8.148 1.407 3.094-.76 5.902-3.004 7.908-6.317 2.144-3.543 3.197-7.106 3.197-10.838 0-.243-.026-.49-.035-.734l-5.239-.55c-.043 3.932-.745 6.88-2.245 9.358-2.053 3.393-5.301 4.542-8.083 2.86-3.292-1.993-2.94-4.785-2.092-11.53 1.191-9.244.084-12.95-4.739-15.869-5.946-3.6-12.437-1.553-16.533 5.212-2.208 3.65-3.364 7.78-3.364 11.893 0 .644.085 1.284.142 1.925l5.184.168c-.033-.566-.102-1.163-.102-1.703 0-3.7.794-6.762 2.43-9.465 1.29-2.133 2.878-3.482 4.59-3.903 1.333-.327 2.719-.09 4.003.689m36.017 1.932c1.696-1.946 14.917-17.112 16.613-19.06l-3.865-3.368-12.707 14.575-9.57-8.341 11.175-12.821-3.866-3.37-11.174 12.82-9.762-8.51 12.873-14.765-3.866-3.37-16.78 19.25zm32.325-33.142c1.109-.889 3.983-3.2 5.091-4.091l-14.443-41.358-4.774 3.837 3.447 9.514-13.484 10.844-8.553-5.41-4.576 3.68zm-19.728-18.405 10.826-8.704 7.594 20.456zm60.745-8.193 23.207-9.872-2.08-4.892-17.678 7.52-5.07-11.915s13.26-5.642 15.591-6.632l-2.057-4.836-15.59 6.634-6.856-16.112-5.53 2.351zm27.025-39.166c0 1.741.184 3.554.567 5.418l.15.742c2.473 12.05 11.624 18.945 22.259 16.764 10.56-2.165 16.221-12.044 13.766-24.023l-.151-.739c-2.47-12.05-11.598-18.95-22.195-16.777-8.95 1.835-14.396 9.167-14.396 18.615m13.62 16.195c-3.27-2.156-5.559-6.027-6.618-11.195l-.152-.741c-1.05-5.118-.438-9.738 1.72-13.012 1.62-2.452 4.023-4.065 6.954-4.666 2.947-.605 5.791-.074 8.228 1.531 3.27 2.158 5.557 6.029 6.617 11.196l.151.742v-.001c1.872 9.127-1.615 16.231-8.675 17.679-2.946.603-5.793.074-8.226-1.533m37.379-19.468-.013.755c-.212 12.3 7.22 21.022 18.073 21.207 10.78.185 18.455-8.224 18.665-20.448l.013-.755c.21-12.3-7.196-21.021-18.013-21.207h.001c-10.816-.185-18.517 8.224-18.726 20.448m18.09 16.646c-3.008-.053-5.67-1.187-7.697-3.285-2.72-2.818-4.113-7.095-4.022-12.37l.013-.754c.09-5.224 1.691-9.6 4.511-12.324 2.113-2.042 4.811-3.095 7.804-3.042 3.008.051 5.668 1.186 7.695 3.284 2.723 2.817 4.114 7.094 4.023 12.368l-.012.757c-.162 9.313-5.11 15.49-12.315 15.366m54.137 12.273 1.13-5.262-10.715-2.301 7.483-34.855-5.938-1.275-7.484 34.857s-8.557-1.837-10.777-2.315c-.333 1.562-.793 3.698-1.128 5.26 2.564.552 24.864 5.34 27.43 5.89m25.221 9.311c7.46 3.187 13.383 1.653 15.843-4.102 1.499-3.511 1.025-6.574-1.492-9.64l-2.104-2.563 3.314.062c5.302.098 8.181-1.538 9.937-5.65l.102-.235c3.765-8.816-5.09-13.728-9.074-15.43h.001l-14-5.981-16.122 37.73zm1.327-4.874.002.001-7.605-3.249 5.137-12.023 7.2 3.075c2.631 1.126 4.343 2.634 5.086 4.486.596 1.483.535 3.083-.18 4.756-.729 1.705-1.847 2.87-3.325 3.462-1.754.704-3.88.534-6.315-.508m7.948-15.712-8.647-3.696 5.287-12.37 8.878 3.794c4.688 2.003 6.515 5.478 4.884 9.297-.807 1.886-3.433 5.95-10.402 2.975m26.225 40.224 35.113-26.196-5.094-3.4-8.04 6.145-14.391-9.608 2.59-9.78-4.883-3.26-10.727 42.473zm6.2-27.97 11.553 7.712-17.232 13.385zm17.767 47.097 24.908-25.593 12.773 12.434 3.708-3.812c-1.833-1.782-15.247-14.839-17.08-16.623-1.917 1.97-26.699 27.433-28.617 29.402 1.21 1.176 3.1 3.017 4.308 4.192m23.005 25.137 28.672-21.29 10.626 14.312 4.268-3.17c-1.523-2.053-12.684-17.083-14.209-19.136-2.206 1.639-30.734 22.82-32.94 24.46zm42.944 29.833-.526.208c-6.004 2.367-10.485 6.37-12.616 11.272a16.8 16.8 0 0 0-1.406 6.726c0 2.252.447 4.544 1.343 6.815 2.15 5.453 5 7.892 7.864 9.484l3.437-4.346c-3.068-1.938-5.05-4.121-6.167-6.956-.563-1.428-.835-2.858-.835-4.255 0-5.269 3.865-10.094 10.604-12.75l.585-.23c8.733-3.442 16.145-1.175 18.885 5.779.7 1.775.975 3.434.975 4.999 0 1.64-.345 3.15-.773 4.612 1.59.33 3.441.719 4.8 1.003.808-2.14 1.3-4.173 1.3-6.198 0-2.255-.497-4.537-1.492-7.057-3.884-9.858-14.567-13.602-25.978-9.106m34.154 63.004 5.215-1.038-4.652-23.376-40.24 8.007c.33 1.652.843 4.24 1.173 5.894l35.026-6.968zm-33.31 45.947 25.296-.537c5.487-.116 9.649-1.614 12.368-4.452 2.435-2.541 3.668-6.098 3.668-10.58q0-.266-.006-.535c-.1-4.731-1.486-8.409-4.118-10.932-2.809-2.691-6.97-3.998-12.368-3.883l-25.485.54.127 6.009 25.549-.542c6.853-.146 10.855 3.128 10.981 8.982q.003.132.002.263c0 2.516-.784 4.662-2.277 6.22-1.807 1.885-4.541 2.879-8.127 2.955l-25.737.546c.036 1.677.09 4.269.127 5.946m15.999 38.627c1.12 5.182 3.375 7.608 7.781 8.374l.249.043c9.448 1.643 12.194-8.105 12.937-12.373l2.606-15-40.424-7.025-2.532 14.565a22 22 0 0 0-.335 3.7c0 2.871.663 5.347 1.95 7.175 1.36 1.933 3.383 3.145 6.015 3.602 3.763.654 6.635-.51 9.042-3.665l2.01-2.638zm-9.243-2.539c-4.073-.708-5.928-3.88-5.092-8.702l1.417-8.148 12.88 2.239-1.34 7.713c-.885 5.098-3.753 7.613-7.865 6.898m17.31 4.863c-2.02-.352-6.58-1.975-5.282-9.44l1.61-9.264 13.254 2.304-1.654 9.512c-.872 5.024-3.837 7.598-7.928 6.888" style="fill:#f6f10b;fill-opacity:1;fill-rule:nonzero;stroke:none" transform="matrix(1.33333 0 0 -1.33333 0 1118.667)"/><path d="M336.639 568.775s10.204-4.438 24.819-1.19c13.77 3.06 14.79 13.6 14.79 13.6s3.306-1.187 3.401-4.93c.17-6.63-8.67-12.75-23.12-14.11-9.533-.896-15.47.17-15.47.17s-4.93 1.36-4.42 6.46m121.929-67.789c-2.256-.2-3.603-.73-5.348-1.762l-2.029-1.289 2.1-1.34c.054-.035 5.396-3.556 4.447-6.97-.218-.785-.842-1.713-1.941-1.964-1.47-.334-3.29.635-5.123 2.732-4.053 4.63-3.286 13.057 1.638 18.034 2.77 2.801 6.773 3.798 10.706 2.667 4.12-1.186 7.53-4.387 9.825-9.086 0 0-9.5-.663-14.275-1.022m-333.207-.046c1.576-.293 2.734-.632 4.828-1.738l2.14-1.269-2.098-1.338c-.055-.035-5.395-3.556-4.447-6.97.218-.785.842-1.713 1.942-1.964 1.47-.334 3.288.635 5.122 2.732 4.052 4.63 3.287 13.057-1.638 18.034-2.77 2.802-6.773 3.798-10.706 2.667-4.123-1.187-7.532-4.39-9.828-9.093 0 0 11.235-.418 14.685-1.06m326.515 45.203c.615-4.34-.241-7.198-.89-8.631-1.146-2.537-3.13-4.202-5.443-4.57-6.28-.996-11.328 3.046-13.067 7.553-.82 2.128-1.02 4.845.883 6.089.888.58 1.502.499 1.887.388 1.6-.465 2.998-2.85 3.362-3.649l.847-1.86zm-307.811-4.684.849 1.864c.363.8 1.762 3.184 3.361 3.649.385.111 1 .193 1.888-.388 1.902-1.244 1.703-3.961.882-6.089-1.739-4.507-6.785-8.549-13.066-7.552-2.313.367-4.296 2.032-5.444 4.569-.648 1.433-1.505 4.293-.89 8.634z" style="fill:#ee2523;fill-opacity:1;fill-rule:nonzero;stroke:none" transform="matrix(1.33333 0 0 -1.33333 0 1118.667)"/><path d="M352.45 570.136s-7.991-1.02-14.281 2.38c0 0 2.38 3.74 6.459 3.23 4.08-.51 7.991-3.23 7.821-5.61m50.829-29.921c.85-9.52-9.35-19.21-9.35-19.21s1.839 13.674-2.325 23.073c0 0 3.346 1.577 6.746.047s4.93-3.91 4.93-3.91M208.96 475.639c.976 4.354 3.75 8.816 3.75 8.816-3.667-2.723-7.333-3.705-9.606-4.056l-.726-.11.101-2.64.13-1.023c2.426-.364 4.568-.98 6.272-1.792zm51.963-208.587q4.044-.67 8.145-1.164l-.652.749c-3.758 3.717-7.936 3.278-7.936 3.278.025-1.092-.037-2.006-.18-2.769zm-31.129 8.668c.49 3.281 2.976 7.285 2.976 7.285s-2.905-2.542-5.957-5.685l-.686-.988q1.827-.681 3.673-1.326zm15.156-5.3.368.085c-.231 1.362-.221 2.386-.221 2.386a14.5 14.5 0 0 0-1.256-2.137zm103.549 3.942c1.639.6 2.76 2.523 2.76 2.523-.06-1.655.19-2.322.618-2.469l-.606-.25q-1.423-.477-2.859-.93l-.43-.071q.045.476.064 1.02z" style="fill:#fff;fill-opacity:1;fill-rule:nonzero;stroke:none" transform="matrix(1.33333 0 0 -1.33333 0 1118.667)"/><path d="M143.634 607.177q2.974.718 4.963 2.115l.4-.173c2.567-1.179 4.221-2.427 5.184-3.298-1.133-.648-3.029-1.517-5.813-2.116l-.426-.04q-1.78 1.917-4.835 3.314zm329.886-24.253a5.46 5.46 0 0 0-3.652 2.082 5.5 5.5 0 0 0 .973 7.7 5.496 5.496 0 0 0 7.7-.973 5.495 5.495 0 0 0-.973-7.7 5.45 5.45 0 0 0-4.048-1.109" style="fill:#ee2523;fill-opacity:1;fill-rule:nonzero;stroke:none" transform="matrix(1.33333 0 0 -1.33333 0 1118.667)"/><path d="M205.263 315.472c3.853-.764 6.543-2.484 6.522-4.453-.029-2.626-4.867-4.704-10.807-4.638-5.94.064-10.732 2.245-10.703 4.87.02 1.808 2.313 3.353 5.673 4.121l.85.098-.044 1.193.061.67a23.6 23.6 0 0 1 3.665-.322 23.5 23.5 0 0 1 3.876.273l.009-.534.042-1.19z" style="fill:#f6f10b;fill-opacity:1;fill-rule:nonzero;stroke:none" transform="matrix(1.33333 0 0 -1.33333 0 1118.667)"/><path d="M350.992 658.64q2.126-2.367 4.35-3.514l.392-.144a25 25 0 0 0 .162-2.8c0-1.665-.185-2.927-.377-3.82-1.124.657-2.817 1.858-4.72 3.956l-.266.367q.704 2.281.501 5.27zm142.932-80.193c1.918-2.42 2.87-4.446 3.338-5.739-1.31-.04-3.4.084-6.154.867l-.348.083q-.611 2.375-2.434 4.872l-.292.478q2.932-.837 5.345-.67zm-6.199 20.703q1.428 2.26 1.95 4.371l.074.54c2.901 1.076 5.107 1.34 6.475 1.382-.365-1.243-1.115-3.156-2.665-5.483l-.304-.387q-2.674.15-5.93-1.02zm-35.488-8.669q1.867-1.515 4.742-2.445l.612-.19q-3.25-1.176-5.21-2.996l-.263.043c-2.806.817-4.67 1.85-5.77 2.595 1.016.786 2.733 1.888 5.335 2.858zm13.083-22.407q2.25 1.425 4.195 4.259l.105-.853q.219-2.884 1.206-4.99l-.24-.349c-1.607-2.327-3.124-3.74-4.15-4.538-.421 1.173-.92 3.059-1.059 5.705zm-20.99 81.197c-.02 1.566-.217 5.593-1.573 10.482l-.335 1.121c4.092-4.521 6.62-10.2 7.233-16.363l-.462.433a90 90 0 0 1-4.267 3.804zm-112.768 12.948q-1.453-2.683-1.751-5.09l-.352-.182c-2.615-1.134-4.664-1.532-5.964-1.666.29 1.326.95 3.424 2.49 6.03l.567.066q2.488.149 5.385 1.433zm29.858 13.61q2.476 1.188 4.06 2.746l.272.36c3.025-.62 5.057-1.561 6.246-2.25-.957-.854-2.586-2.069-5.102-3.216l-.5-.227q-2.193 1.564-5.598 2.301zm-13.747 15.141q-.361 2.518-1.272 4.398l-.255.603c1.505 2.622 3.001 4.232 4.012 5.137.519-1.186 1.175-3.139 1.485-5.924l.027-.489c-1.456-1.084-2.776-2.652-3.952-4.696zM128.381 587.154q1.016 1.986 1.402 4.716l.079.705q1.715-2.995 3.843-4.613v-.504c-.328-2.784-.998-4.732-1.526-5.914-1.01.917-2.507 2.55-4.002 5.21z" style="fill:#ee2523;fill-opacity:1;fill-rule:nonzero;stroke:none" transform="matrix(1.33333 0 0 -1.33333 0 1118.667)"/><path d="M186.738 619.277q.883.558 1.77 1.107l-.11-.529c-.605-2.472-.848-3.82-.848-3.82s-.144 1.109-.628 2.57z" style="fill:#f6f10b;fill-opacity:1;fill-rule:nonzero;stroke:none" transform="matrix(1.33333 0 0 -1.33333 0 1118.667)"/><path d="M282.261 701.403c-1.048 1.217-3.912 4.31-8.292 7.259l-.592.398a28.63 28.63 0 0 0 15.968-7.846l-.407-.006a90 90 0 0 1-6.25.18zM106.49 600.304q2.265-.352 5.068.164l.463.065c-1.522-1.687-2.575-3.367-3.157-5.03l-.59-.18c-2.7-.527-4.717-.486-5.984-.349.564 1.253 1.667 3.198 3.762 5.462zm26.781 30.16c1.864 2 3.514 3.151 4.618 3.786.18-.866.352-2.072.352-3.665 0-.687-.032-1.441-.108-2.26l-.136-.681c-1.61-.75-3.19-1.977-4.73-3.677l.087.838q.201 2.923-.479 5.17zm-25.256-8.522c-1.342 2.412-1.932 4.352-2.195 5.604 1.269-.14 3.252-.536 5.772-1.629l.54-.285q.315-2.641 2.015-5.625l-.562.228q-2.86 1.186-5.316 1.22z" style="fill:#ee2523;fill-opacity:1;fill-rule:nonzero;stroke:none" transform="matrix(1.33333 0 0 -1.33333 0 1118.667)"/><path d="M186.527 594.105c-.577 7.823-1.77 13.892-3.907 18.7-2.599 5.849-6.8 8.5-6.8 8.5s2.89 2.38 5.61.34 4.76-7.989 5.27-11.56c.51-3.569.85-6.12 3.23-8.16 2.613-2.239 6.8 0 6.8 0s1.19-4.76 4.25-7.48c0 0-2.89-1.87-6.63.85l.239-6.629-.02-.915c-1.21.84-2.686 1.662-4.468 2.444-1.32.58-2.485 1.582-3.479 2.728zm28.1-310.419.342.888c-5.13 7.113-14.754 7.951-14.754 7.951 2.295 1.446 4.93 2.465 4.93 2.465l-.247 6.886-.699-.071a26 26 0 0 0-3.386-.184q-1.44.016-2.806.182l-.7-.098.358-9.69s-.519-.236-1.262-.739l-.56-.425a188 188 0 0 1 18.028-9.442s.53 1.718.756 2.277M193.064 552.05c-.622-.439-1.375-.821-2.284-1.125l.087-.41c1.726-.041 3.316-.412 4.503-.61l.622-.252-.081 2.293.068.6a14.6 14.6 0 0 0-2.477-.203zm8.733-178.207c-3.23 3.573-3.423 7.119-2.964 9.552l.078.793a11 11 0 0 0-.991 2.348s-.292-.054-.766-.088l-.314-.577c-.575-1.348-1.292-2.365-2.242-3.23l-.27-.27 2.024-54.825-1.01-.107c-2.484-.59-4.123-1.62-4.136-2.81-.02-1.9 4.13-3.486 9.273-3.542s9.327 1.44 9.348 3.34c.015 1.36-2.103 2.557-5.19 3.15l-.667.138-1.63 45.386zm27.98-107.993a196 196 0 0 0-10.195 3.708s.61.613 1.12 1.547c.51.936.802 2.056.802 2.056.639.147 1.289.428 1.96.89l.497-.174q3.668-1.394 7.405-2.642l-.352-.901a13.1 13.1 0 0 1-.44-4.804zm19.661-5.414q-5.654 1.244-11.184 2.807l-.982.304c1.122.826 1.992 2.362 2.62 3.997l.268.635q.365.052.734.175l.486-.156q2.15-.588 4.32-1.127l.801-.195c.472-.867 1.103-1.656 1.946-2.22l.272-1.124c.29-1.022.71-2.13 1.316-3.22zm109.925 8.086c.998 1.102 1.742 2.824 2.262 5.548l.156.667q2.305.91 4.581 1.88l.107-.714c.17-1.274.607-2.75 1.592-4.133l.293-.404a195 195 0 0 0-9.582-3.766z" style="fill:#f6f10b;fill-opacity:1;fill-rule:nonzero;stroke:none" transform="matrix(1.33333 0 0 -1.33333 0 1118.667)"/></svg>