<svg xmlns="http://www.w3.org/2000/svg" xmlns:xlink="http://www.w3.org/1999/xlink" viewBox="0 -0.03 148.34 148.34"><g transform="matrix(.85957 0 0 .85955 -9.4 -9.43)"><defs><path id="a" d="M0 0v194.44h194.44V0"/></defs><clipPath id="b"><use xlink:href="#a" width="1" height="1"/></clipPath><path fill="#200e7d" fill-rule="evenodd" d="M97.219 183.51c47.659 0 86.29-38.636 86.29-86.285 0-47.658-38.631-86.294-86.29-86.294-47.653 0-86.284 38.636-86.284 86.294 0 47.649 38.63 86.285 86.284 86.285" clip-path="url(#b)" clip-rule="evenodd"/><path fill="#200e7d" fill-rule="evenodd" d="m82.157 88.9-3.305-.71-9.733 9.497-.01-3.301.207-.719.212-.591.192-.71.211-1.675-.359-.403-.979.374-.804.034-.241.237.015.354-.211.261-.207.354-.853.315-.798.113-.438.458-.34.379-.458.139-.315.596-.552.236-.128.502-.458.139-.448.601.02.478-.557.498-.463.364-.68.384-.212.592.183 2.758-6.481-.62c1.221-.778 2.319-1.547 3.24-2.493.729-1.581 1.487-2.251 2.788-3.142l1.586-1.483c.94-.96 2.709-2.478 3.847-3.177.764-.856.961-1.743 2.005-2.433.966-.641 1.586-1.921 1.976-2.793.275-1.34.625-1.877 2.098-2.207.552-.892 1.335-.724 1.877-.418l.345-.375c1.01.144 1.162-.394 1.955-.428l1.183-.183c.837-.039 2.438-.364 2.95.448l.581-.024c.438-.399 1.02-.168 1.517.049l.183-.434c.945-.646 1.108-.887 2.217-1.187 1-.192.861-.345 1.118-1.325-.37-.916-.025-2.813-1.995-2.729-.783-.798-1.039-1.281-1.384-2.049l-.025-.582-.473.021-.02-.474c-.374-.443-.197-.788.188-1.182l.227-.236-.015-.354.453-.139.231-.482-.079-1.861-.266-.236-1.158-.178.483-1.222 1.813-.192.615-.054c1.039.985.956 1.596 1.138 3.015l.458.463.922-.315.625-.354.641-.709.217-.231.832-.035.231.212.478.113 1.178.291-.02-.34.685-.39 1.645.153.231.246c.66 1.345 2.104 1.733 3.394 2.408.783.359 1.463.773 2.276 1.074.324.892.408.615.989 1.147l.276.911.246.586.502.552c.301 1.926-.073 3.753.552 5.615.227.66.532 1.049 1.522 1.33l.482.798c.301 1.162-.104 2.817.744 3.477.246.636.542 1.231.798 1.857l.468.547c1.182.374 2.892.896 4.128.517l.201-.827 1.395-.162.015.443c1.005.783.906 1.015 1.502 2.029l.089 2.009.384.917.03.699.261.241q1.573.192 3.521.192c.488-.178 1.251-.65 1.227-1.128l.655-1.084c1.566-.301 1.039-.621 2.068-1.015l.68.049-.167.853-.931.398-.119.37-.654.177-.231.67c-.882.364-1.453.848-2.404 1.163l-.448.359c-1.271.35-.975.478-1.689 1.487-.847-.173-2.31-.34-3.319-1.133-2.65-1.542-3.625-2.419-5.413-3.049l-.976-.896-.778-.527-.212-.605-.403-.458-.616-.158c-.714-.615-1.236-.241-1.596-.088.113.979.024 2.733.818 3.861.68.96 1.989 1.531 3.073 1.827.743.168 3.9 2.315 4.556 2.837.985.311 3.753 1.325 4.552 2.034 1.581.542 2.802 2.68 3.442 3.601.222.798.631 1.626.694 2.429l-.537.054c-.945-.147-1.226-.512-1.266-1.433l-.487-.438-.482-.286c-1.271-.069-2.152-.236-2.473.138-.217.257-.178.759.187 1.715.271.561.872.808.783 1.605-.196.67-.088 1.143-.557 1.133-.35-.01-.502-.128-.625-.956-1.197-.704-1.862-.591-1.971.217-.024 2.487 1.857 4 1.892 5.521-.542-.191-.759-.694-1.191-.408l-.828.152-1.285-.192c-.571-.492-.798-.887-1.123-1.576-.508-2.206-1.271-3.379-1.99-5.31-.759-.65-1.389-1.507-2.31-1.882-1.35-.227-1.833-.649-2.995-1.398-.813.207-1.222.147-1.778-.502-.654-.084-2.63-2.399-3.512-2.778l-2.345.104c-1.261-.183-2.285-.508-3.507-.207-.979-.877-1.536-.99-3.083-1.143-.108-.306-.522-.694-.867-.783l.522-1.315c.694-1.453.32-2.266.084-3.886-.315-.65.005-.916-.788-1.596-.183-.769-.7-2.537-1.168-2.976-1.147-.138-1.389.296-2.329.818l-.87-.202" clip-path="url(#b)" clip-rule="evenodd"/><path fill="#f7f619" fill-rule="evenodd" d="M95.066 93.717c-1.138-.364-1.182-.167-1.236-1.34l-.256-.827c.138-.832.231-1.094.621-1.783-.946-.866-1.222-2.748-1.448-3.871-1.67-.527-1.65-.729-2.527-2.005-1.187-.143-2.256-.507-2.319-2.024l-.325-1.625.207-1.064-.734-.531c-.246-.503-.591-.927-1.093-.961.118-1.147-.197-2.448.659-3.482.725-2.098.927-3.329 1.576-4.413l2.108-.094c.02.887-.231 1.369 1.015 2.438.275.241.473.522.734.773.034.808.275 1.881.936 2.413.275.744.694 1.345 1.029 2.068.222 1.291.414 1.67-.118 2.813l.266.587-.227.231 1.503-.286c1.231.212 2.394.591 3.659.641.714.689.429 1.689.931 2.31l-.197 1.285-.108 2.596c.448.059.699.398.743 1.024l.267.33-.236.354.275.566c-.178.566-.492.96-1.251 1.227-.892.413-1.744.872-2.625 1.29l.02.463zm-26.099 3.448-8.438 2.059-.064-1.527.212-.592.679-.383.463-.365.557-.498-.02-.477.449-.601.458-.138.128-.502.551-.237.316-.595.458-.139.34-.379.438-.458.798-.113.853-.316.207-.354.211-.261-.015-.354.241-.238.804-.034.979-.374.36.403-.211 1.675-.193.71-.212.591-.207.719zm-13.446-2.482c1.507-1.024 2.507-2.901 3.812-4.177 1.301-.473 1.236-.754 2.178-1.271 1.748-1.911 3.211-2.503 3.669-5.311.38-.586 1.024-1.97 1.246-2.625.941-.389 1.256-.66 1.689-1.605.325-.655.783-2.492 2.128-3.275.581-.34 1.256-.956 1.843-1.631.453-.517.512-1.103 1.122-1.551 1.335-.937 2.39-.06 3.704-1.557l.773-.463.118-.503.473-.138c.286-.513.7-.887.857-1.448.646-.65 1.463-.866 2.172-1.374l1.168.173.266.236.079 1.861-.231.482-.453.139.015.354-.227.236c-.385.394-.562.738-.188 1.182l.02.474.473-.021.025.582c.345.768.601 1.251 1.384 2.049 1.97-.084 1.625 1.813 1.995 2.729-.257.98-.118 1.133-1.118 1.325-1.108.3-1.271.541-2.217 1.187l-.183.434c-.497-.217-1.078-.448-1.517-.049l-.581.024c-.513-.813-2.113-.487-2.95-.448l-1.183.183c-.793.034-.945.571-1.955.428l-.345.375c-.542-.306-1.325-.474-1.877.418-1.473.33-1.822.867-2.098 2.207-.39.872-1.01 2.152-1.976 2.793-1.044.689-1.241 1.576-2.005 2.433-1.138.699-2.906 2.217-3.847 3.177L60.194 94.2c-1.301.891-2.059 1.561-2.788 3.142-1.039-.788-1.073-1.162-1.885-2.659" clip-path="url(#b)" clip-rule="evenodd"/><path fill="#FFF" fill-rule="evenodd" d="M33.991 76.005c.02-6.758 2.083-15.264 6.388-21.11 1.921-2.61 4.187-4.689 6.808-6.201 6.821-3.936 14.938-3.482 22.179-1.029l.783-1.61 3.596-.005 6.714 15.022-4.01 1.945C72.38 56.845 67.352 51.2 59.337 52.388c-10.959 1.62-12.377 12.919-12.634 22.07-.285 10.216 2.015 22.688 12.521 23.973 9.029 1.108 15.535-5.945 17.412-14.343l4.92.788c-2.349 12.477-9.151 19.584-21.184 20.034-18.062.67-26.416-13.266-26.381-28.905m27.799 40.636v39.906c0 5.117-4.615 5.103-7.413 5.103v3.271h26.942v-3.256c-2.797 0-7.417 0-7.422-5.117v-17.43l12.323-.02c3.541.029 5.226 4.093 5.226 7.235l4.389-.084.005-20.204h-4.394c0 5.073-2.261 6.945-5.295 6.945l-12.254.015v-18.21h15.037c2.601 0 8.216 3.068 11.658 8.965 1.345-.71 2.694-1.414 4.039-2.118l-6.55-13.39H54.378v3.271c2.798.001 7.413.005 7.413 5.124zm42.443 20.765c.015-6.748 2.078-15.26 6.388-21.105 1.921-2.605 4.182-4.685 6.808-6.201 6.816-3.931 14.934-3.487 22.179-1.025l.783-1.615h3.591l6.714 15.022-4.01 1.941c-4.068-6.167-9.092-11.812-17.106-10.63-10.959 1.616-12.377 12.925-12.634 22.071-.285 10.221 2.01 22.687 12.521 23.973 9.023 1.108 15.535-5.94 17.412-14.343l4.921.788c-2.35 12.476-9.152 19.583-21.185 20.031-18.063.67-26.422-13.263-26.382-28.907" clip-path="url(#b)" clip-rule="evenodd"/><path fill="#f7f619" fill-rule="evenodd" d="m121.89 91.584-.167.853-.931.398-.119.37-.654.177-.231.67c-.882.364-1.453.848-2.404 1.163l-.448.359c-1.271.35-.975.478-1.689 1.487-.847-.173-2.31-.34-3.319-1.133-2.65-1.542-3.625-2.419-5.413-3.049l-.976-.896-.778-.527-.212-.605-.403-.458-.616-.158c-.714-.615-1.236-.241-1.596-.088.113.979.024 2.733.818 3.861.68.96 1.989 1.531 3.073 1.827.743.168 3.9 2.315 4.556 2.837.985.311 3.753 1.325 4.552 2.034 1.581.542 2.802 2.68 3.442 3.601.222.798.631 1.626.694 2.429l-.537.054c-.945-.147-1.226-.512-1.266-1.433l-.487-.438-.482-.286c-1.271-.069-2.152-.236-2.473.138-.217.257-.178.759.187 1.715.271.561.872.808.783 1.605-.196.67-.088 1.143-.557 1.133-.35-.01-.502-.128-.625-.956-1.197-.704-1.862-.591-1.971.217-.024 2.487 1.857 4 1.892 5.521-.542-.191-.759-.694-1.191-.408l-.828.152-1.285-.192c-.571-.492-.798-.887-1.123-1.576-.508-2.206-1.271-3.379-1.99-5.31-.759-.65-1.389-1.507-2.31-1.882-1.35-.227-1.833-.649-2.995-1.398-.813.207-1.222.147-1.778-.502-.654-.084-2.63-2.399-3.512-2.778l-2.345.104c-1.261-.183-2.285-.508-3.507-.207-.979-.877-1.536-.99-3.083-1.143-.108-.306-.522-.694-.867-.783l.522-1.315c.694-1.453.32-2.266.084-3.886-.315-.65.005-.916-.788-1.596-.183-.769-.7-2.537-1.168-2.976-1.147-.138-1.389.296-2.329.818l-.207.458.32 2.078c.049.931.133 1.542-.345 2.369l-.217.808c-.188 1.311-.636 3.094-.882 4.029l.275.463c.34.945.222 1.044 1.123 1.586.749.689 1.178 1.034 1.827 1.571l3.404.315c2.413.271 3.807 2.034 6.561 2.172 1.566.571 3.861 1.429 5.807 2.448l.739.892c1.113.842 2.665 2 3.866 2.64.571.207.744 1.345 1.34 1.714.513.976.596.956.665 1.123.113.286.069.66.188 1.769.788.985 1.088 1.724 2.3 2.005l2.96.345 8.196-1.813c1.808 1.241 2.758 1.866 3.271 4.472.985.901 1.044 1.685 1.306 2.98l.379.458c.646.901 1.049 1.975 1.527 2.965l.266.591.02.454c.793.581.798.531 1.104 1.487l.266.227.251.699c1.153.759 1.419 2.931 1.478 4.251.557-.094 1.069 1.768 1.064 2.886.306 1.118.379 2.872.562 4.044 1.955.956 3.206 1.636 5.787 1.024 1.438-.063 2.364-.65 4.191-.403l1.488-.32c1.97.104 3.797.084 5.758 0l2.463.236.227-.251c.753-.823 1.098-1.946 1.256-3.044-.247-1.463-.932-3.487-2.419-4.241-.724-.301-.808-.655-1.054-1.364-.817-.453-1.685-.911-2.566-.808-1.241.138-3.3-.33-4.502-.453l-.699-.843c-1.123-.694-3.162-6.339-3.586-7.472-.655-1.35-1.408-3.458-1.882-4.936-.571-1.591-1.054-3.601-1.344-4.363-1.759-4.685-2.646-6.275-3.429-8.546-.557-1.532-1.497-4.911-2.536-7.044l.157-2.118c.256-.782 1.497-3.127 2.039-3.719l.212-.965-.275-.562c.359-.936.876-1.714.832-2.719l.178-1.404.162-1.403-.202-2.227.409-.847-.099-2.227.473-.128c.518-1.478.887-2.143.887-3.015.005-1.931-.364-3.921-.138-5.926.369-3.265-.725-6.428-.158-9.812l-.28-1.501c.295-2.335.138-4.675-.084-7.014-.872-4.453-2.01-6.615-2.876-9.62-.552-.743-.72-1.324-1.03-2.182-.921-.532-1.305-1.635-2.098-2.01-.911-.552-1.374-3.531-1.704-4.714-1.586-3.107-2.394-4.713-4.783-7.304-1.458-1.951-1.314-1.877-3.975-2.399-1.212-.468-2.01-.714-3.098-1.502l-1.399-.059c-1.803-.32-3.157-1.05-4.777-1.783-.793.118-3.778.429-4.285 1.005l-1.443-.65-.945-.537-.932.518-1.63-.074c-2.764 1.354-4.177 5.581-6.226 8.151-1.173 1.024-1.966 1.744-2.773 2.931l-1.044-.088-.754.241c-2.463.689-4.251 1.931-5.196 3.187l.301 1.473c.345 1.28.108 3.763 1.285 3.979-.566 2.542-.256 4.384 2.275 5.28l.626.675c-.231 2.306-1.694 5.9-3.453 7.187l-.448.601c-.738 3.261-.748 6.798-1.768 9.92l.049.606.188.517 1.813-.192.615-.054c1.039.985.956 1.596 1.138 3.015l.458.463.922-.315.625-.354.641-.709.217-.231.832-.035.231.212.478.113 1.178.291-.02-.34.685-.39 1.645.153.231.246c.66 1.345 2.104 1.733 3.394 2.408.783.359 1.463.773 2.276 1.074.324.892.408.615.989 1.147l.276.911.246.586.502.552c.301 1.926-.073 3.753.552 5.615.227.66.532 1.049 1.522 1.33l.482.798c.301 1.162-.104 2.817.744 3.477.246.636.542 1.231.798 1.857l.468.547c1.182.374 2.892.896 4.128.517l.201-.827 1.395-.162.015.443c1.005.783.906 1.015 1.502 2.029l.089 2.009.384.917.03.699.261.241q1.573.192 3.521.192c.488-.178 1.251-.65 1.227-1.128l.655-1.084c1.566-.301 1.039-.621 2.068-1.015l.674.05" clip-path="url(#b)" clip-rule="evenodd"/><path fill="#200e7d" fill-rule="evenodd" d="m145.35 139.79-.719-.069-.183-.413c-.984-.547-2.576-.139-3.314.67l-1.764-.148.315-.965.458-.375c-.517-1.068-.66-1.803-1.856-2.374l-.537-1.389c-1.089-.354-2.241-.207-3.275.275l-.364-.221-.335.251-.247-.227-.073-1.754c-.937-3.211-2.143-5.368-2.764-7.019l-.63-.803c-.448-1.557-1.872-2.788-2.424-4.808-.507-.906-.354-1.251-1.261-1.936-.513-.714-.822-1.842-1.172-2.655l-.395-1.162c.222-.847.581-2.271 1.261-.532l1.896 1.438.961-.094.083-.892.064-1.01c-.152-3.462-3.398-8.525-4.369-12.249l1.94-.778.611.67.015.354c1.256 4.798 2.305 6.245 4.674 10.688l.276.463.251.689.241.33.345 2.094.246.571c.464 1.556.98 3.078 1.483 4.62l.295 1.044.479.335a54 54 0 0 1 1.083 3.107c.271 1.246.552 2.306.971 3.497.965 1.158 1.251 2.487 2.143 3.759.955.689 1.861 1.059 2.093 2.246 1.492 1.024 3.32 1.536 4.817.266l1.507-.188.365.463.709-.034c.354 1.024.877 1.694 1.29 2.625.689 2.118-.099 1.853-2.147 1.848-1.364.324-1.851.575-3.043-.208m-8.181.059c-.173-.34-.113-1.29-.286-1.625-.581-.562-2.068-.641-2.413-.419-.06.36.315 1.473.434 1.808.644.271 1.925.349 2.265.236m-20.874-23.904.093-1.546 1.197-3.527.971.434.029.694.453.207.641.562.231.71.793.108.29-2.557 1.482 1.187.917.689-.566.764-.228.246-1.275.941-1.866.448-2.015.596zm5.028-9.549c-.054.738.192 1.187.685 1.675.665.217 1.478.591 2.143.374 1.108-3.049-2.572-2.651-2.828-2.049m3.17-15.902c1.231-2.152 2.143-4.491 2.966-7.358.191-.398.3-.566.64-.497.129 2.798.375 5.462-1.989 8.151-.798.487-1.163.803-1.916.853-.912.062-.046-.627.299-1.149m-21.19-49.91c-.157-.995-1.054-2.099-.68-2.995 1.35-.487 2.02-.473 2.503 1.173.113.581.335 1.143.33 1.738-.729 1.133-1.478.429-2.153.084m-1.674-4.6c-.35-.064-1.005-.064-1.557-.306-1.271-.552-1.808-.591-2.059-1.753-.419-1.448.285-1.665 1.389-2.138.591.128.689-.099 1.191-.434.587-.024 1.448-.256 1.882.143-.118.434-.197.665-.118.901.128.364.202 1.044.212 1.39.02.541.379 1.23.089 1.926-.344.093-.684.182-1.029.271m2.522-3.871c-.803-1.173-.463-1.557.024-1.961.901-.34 1.404-.054 2.231.118.236.163.694 1.271.32 1.734-.93.606-1.999.369-2.575.109m7.063 41.423c-.932-1.699-.901-3.093-.404-4.601.162-.492.877-.434 1.552-.463l.729-.414c.966-.34 2.424-.881 2.971.084.29.518.206 1.05-.197 2.581l.275.113.262.374c1.251.404 1.586-.408 2.452-.118l.38.69c.295.847.227 1.408-.055 1.792-.605.848-2.201.867-2.979 1.37-2.573-.098-4.243-.975-4.986-1.408m1.488-16.826c.172.345.354.689.526 1.034.188.399.228.985.079 1.749l.37 3.019.305 1.518-.172 1.541c-.587 1.626-1.896 1.606-3.02.715l-1.104-1.133c-1.113-.66-1.202-1.143-1.398-2.404-.05-1.044-2.074-2.561-2.832-3.162-.153-.413-.242-.675-.508-1.024q-.872-.45-1.285.178c.241 1.118.576 2.236.625 3.379l1.434.517c1.143 1.665 1.473 3.581 1.024 5-.335 1.261-1.197 1.448-2.911.128-1.217-.754-1.743-2.872-2.034-3.675l-1.783-.62c-1.473-.734-2.438-1.616-3.206-.916-.069.748-.01 1.586-.379 2.246-.848 2.521 3.137 3.708 4.871 4.235.586.448 1.217.783 1.842 1.641-.271.861.611 1.596 1.359 1.847l.024.591.715.33.261.212.926.094.138.438c1.267 1.138 1 1.369 2.867 1.29 1.936 1.034 3.078 2.197 3.94 4.394l.202 1.862c.709.379 1.098.285 1.763.147l-.266-.906c-.434-2.049.266-2.222 1.783-1.719l.984.655.375.788.61.689.438-.838c.271-.822.571-.995 1.212-1.571 1.123-.438 1.246-.803 1.552-1.955l.551-.945.192-.71c.463-1.015 1.06-1.753 1.301-2.645 1.039.497 2.561 1.063 3.669 1.015.463 1.187.542 1.482.606 2.906l.699-.271c-.197-1.861-.207-5.546-.601-5.595-1.089-.207-2.621-.685-2.906-2.207-.581-1.207-1.079-2.945-1.482-4.28l-.424-1.512c-.729-1.508-.345-2.995-.68-4.66-.665-2.808-.503-3.023 2.201-3.487.113-.039.231-.088.35-.133.055-.502.104-1.005.158-1.512.35-1.68.261-2.847-.419-4.443q-.411.083-.822.158c-.241.261-.217.231-.202.591-1.374.562-2.463.395-3.659-.778a5 5 0 0 1-.247-.217c-1.433-.191-1.601-.424-2.827-1.039-.487-.217-.97-.429-1.458-.646-.059-1.359-1.64-1.931-2.808-2.344q-.221-.34-.442-.67l-.06-.602c-.06-1.345-.487-1.073-1.704-1.605-.896-.709-1.562-.877-1.793-1.301-.798-1.447-.591-2.177-.099-2.492.453-.285 6.541-.227 7.753-.217l2.275.315q.207-.828-.754-1.271c-.763-1.123-.541-1.296-1.852-2.152-3.478.152-4.329-.813-6.565-2.596-1.104-.813-.503-1.478-.359-2.724l.241-.231-.025-.582.686-.384 1.039-.285-.02-.582c-.572-.314-1.301-.531-1.896-.138-.961.379-1.877.827-2.887 1.044l-1.97.207-.217.473-1.641.188-.374-.552c-.734-.413-1.552-.65-2.157-1.212l-.257-.689-.931.163c-.492 1.104-2.211.64-2.133 2.201l.271.808.256.69c-.133 1.285-.005 2.235-1.029 2.96l-1.508.675-.206.354-.217.808-.217.68c-1.192 1.044-1.769.788-2.769.404l-.738-.916-.197.615-.222.709c.049 1.188-1.576 2.468-2.547 3.039-1.3.527-1.295 1.045-1.251 2.02l.725.05c.32-.168.788-.557 1.418-.689 1.207-.906 1.045-.867 1.911-1.276.793-.138 2.699.276 3.424.788l1.423.532 1.064-.468c.842-.173 1.182-.325 1.64.453.276 1.64.532 3.447 1.039 4.994.557 1.212 1.286 2.217 2.188 2.764.256.428.335.492.172.97-.384 1.133-1.015 1.138-2.122 1.778l-1.961.665c-.217.099-1.261 1.113-2.236 1.3-.67.129-1.369.139-2.049.139-.99 0-.985-1.488-1.029-2.482l-.694.029-.104.345.251.837.118.99-.143.725-.468.152c-.241.724-.267 1.369-.236 2.133l.709-.06 1.152.089c.557.015.488.173.616.773.271.729.201 1.094.768 1.61l.281 1.385-.207 2.103 1.074-.029L95 60.687c-.074-2.408-.547-4.133.542-4.772 1.231-.035 2.482.128 3.688-.108.611-.896 1.311-2.492 1.689-3.625l.345-.236c.927.093 1.231.059 2.227-.301.532-1.152 1.064-2.202 1.458-3.434l.675-.054 1.089.039-.246-.468-.089-1.709c.542-1.246 1.689-4.083 2.901-4.994 1.015.482 1.526 1.285 2.467 1.551l.148.71 1.054 2.196c.02 1.034.084.828.976 1.33.955.197 1.772.513 2.689.837q.325.328.649.67c.823.547 1.178.828 1.822 1.557 1.005.434 2.749 2.527 3.084 3.492.266 1.532.468 3.089-2.212 2.911a20 20 0 0 0-.251-.35c-1.325-.641-2.044-1.188-2.769-1.754-.753-.665-1.004-.822-1.926-1.196.311.413.552.605.976.882.281.389.591.738.867 1.138.547.871 1.275 1.945 2.201 2.374.183.231.522.246.646.788.202.463.35.906.507 1.389.577.985.212 3.024.183 4.206-.217 1.636.178 3.034-.02 4.685-.197.35-.424.605-.665.743l-.478.021-.971-.788-.492-.335-.256-.808c-.488-1.636-.286-2.453-1.463-4.162-1.409-1.04-2.315-2.646-1.247-4.379-.059-1.359-.586-1.513-1.689-2.335q-.466-.709-.926-1.419c-.162-.068-.325-.147-.487-.216.054-.434.113-.867.167-1.301.197-.502.222-.646.197-1.182q-.17.074-.35.147l-2.733-.715c.295 1.197.547 2 1.408 3q.246.216.493.424c.912.417 1.301.732 1.824 1.574m8.501-12.816c-.177-.847-.526-1.305-1.227-1.403-.778-.118-.325-1.39.262-1.739 1.068-.024 1.965.276 2.729.857l.138.709q-.183 1.463-.596 1.788c-.434.231-.873.163-1.306-.212m-4.438-2.138c-.945.246-1.458-.438-1.724-.906-.113-.719-.005-.995.236-1.083.856-.315 1.871-.03 2.29.659.498.819-.053 1.138-.802 1.33m10.54 14.491c-.039-.335.626-.759 1.024-.848 1.414.345 1.587 2.384.443 3.049-1.373.065-1.275-.595-1.467-2.201m-28.597 4.108c.108-.571-.05-.729.162-.906.094-.089.227-.748.463-.861.532-.286 1.67-.217 1.921-.129.434.424.104 1.641-.187 2.152-.905.138-1.527-.044-2.359-.256m21.761-29.986c-.257-.591-.409-.748-1.089-.788-1.266-.345-1.655-.985-1.808-1.196.665-.35 1.532-.37 2.118.133.685.591.936 1.113 1.123 1.955zm4.857 13.559-.158-.931c.582-.61 1.527-.601 2.636-.305.856 2.399-.627 1.917-2.478 1.236" clip-path="url(#b)" clip-rule="evenodd"/></g></svg>