<svg xmlns="http://www.w3.org/2000/svg" xmlns:xlink="http://www.w3.org/1999/xlink" xml:space="preserve" viewBox="0 0 361.75 361.75"><path d="M0 180.875C.001 80.978 80.978.003 180.876 0c99.897.002 180.872 80.98 180.874 180.875-.002 99.897-80.977 180.873-180.874 180.875C80.978 361.748 0 280.772 0 180.875" style="fill:#fff"/><g transform="matrix(.625 0 0 -.625 -5.687 444.313)"><defs><path id="a" d="M-74.409-105.237h744.095V947.126H-74.409z"/></defs><clipPath id="b"><use xlink:href="#a" width="707.5" height="707.5" overflow="visible" style="overflow:visible"/></clipPath><g clip-path="url(#b)"><path d="M15.499 421.5c.002 156.301 126.699 282.996 283.001 283 156.301-.004 282.996-126.701 282.999-283-.003-156.3-126.698-282.996-282.999-283-156.302.004-282.999 126.7-283.001 283"/><path d="M0 0c.002-75.325 30.514-143.468 79.874-192.836 49.366-49.358 117.511-79.87 192.835-79.873 75.323.003 143.468 30.516 192.836 79.873C514.903-143.468 545.415-75.325 545.419 0c-.004 75.325-30.516 143.469-79.873 192.835-49.368 49.358-117.513 79.872-192.836 79.874-75.324-.002-143.469-30.516-192.835-79.874C30.514 143.469.002 75.325 0 0" style="fill:#fff" transform="translate(25.79 421.5)"/><path d="M118.819 421.501c0 99.236 80.442 179.679 179.679 179.68 99.238-.001 179.68-80.444 179.682-179.68-.002-99.238-80.444-179.679-179.682-179.681-99.237.002-179.679 80.443-179.679 179.681"/><path d="M0 0c.002-48.207 19.531-91.824 51.121-123.416 31.592-31.588 75.209-51.12 123.414-51.121 48.206.002 91.823 19.533 123.416 51.121C329.541-91.824 349.072-48.207 349.072 0c0 48.204-19.531 91.824-51.121 123.416-31.593 31.587-75.21 51.118-123.416 51.118-48.205 0-91.822-19.531-123.414-51.118C19.531 91.824.002 48.204 0 0" style="fill:#d3d3d3" transform="translate(123.963 421.501)"/><path d="m70.866 451.031 18.07-1.579c.306-1.81.693-4.479.404-7.785-.276-3.152-1.323-8.018-4.502-11.614-5.07-5.678-13.727-5.463-16.88-5.187-13.532 1.184-18.155 10.344-17.334 19.723.35 3.999 1.693 7.832 3.775 11.291.273.443 1.754 2.325 1.774 2.557.014.154.014.154-.113.474l-.718 1.535c-.19.483-.351.418-.734.453l-4.942.199c-.93.004-1.237.03-1.618-.789-.181-.294-2.656-6.43-3.307-13.887-1.561-17.839 7.779-31.516 23.542-32.894 8.228-.722 24.799 1.859 26.906 25.923.598 6.843.183 13.622-.928 20.381l-22.453 1.965zM83.273 488.866l-15.077 13.109 19.75.464zM58.13 503.562l38.656-38.042 3.064 8.902-11.882 10.296 6.181 17.954 15.553.359 3.844 11.165-52.827-3.117zM71.279 537.519l5.437-3.532L87.14 550.04l35.603-23.119 5.884 9.061-35.601 23.12 10.466 16.118-5.436 3.53zM109.137 590.907l33.993-35.2 26.151 25.253-4.504 4.665-18.432-17.801-11.261 11.659 15.99 15.442-4.236 4.385-15.989-15.442-9.812 10.161 17.822 17.21-4.182 4.332zM174.902 641.001c-.509.499-.677.758-1.428.639-.816-.162-5.824-1.943-10.29-4.844-9.516-6.179-13.713-15.162-8.795-22.736 4.834-7.444 12.943-6.042 21.052-4.643 7.058 1.18 10.255 1.784 12.399-1.517 1.765-2.72 1.716-6.893-3.786-10.467-1.361-.882-4.639-2.918-11.238-3.525-.452-.015-2.85-.008-2.977-.092a.84.84 0 0 1-.329-.488l-1.006-1.852c-.287-.553-.243-.618.326-1.351l3.483-4.088c.526-.67.717-.822 1.858-.452 3.565 1.029 9.229 3.787 12.529 5.93 9.839 6.39 12.658 16.502 8.119 23.492-4.457 6.862-11.147 5.83-19.962 4.523-8.75-1.265-11.237-1.685-13.383 1.617-2.016 3.106-.837 6.817 3.628 9.718 3.109 2.017 6.541 2.683 8.663 2.957.451.015 2.59-.16 2.977.091.13.086.152.192.392.532l.984 1.742c.285.554.285.554-.282 1.29zM211.794 638.585l-6.433 18.681-10.144-3.493 15.931-46.267 10.146 3.492-7.465 21.675 22.258 7.663 7.463-21.674 10.145 3.493-15.933 46.269-10.143-3.494 6.433-18.681zM262.391 672.597l4.265-48.746 36.215 3.168-.564 6.458-25.527-2.234-1.413 16.148 22.143 1.937-.533 6.074-22.142-1.937-1.23 14.071 24.68 2.159-.524 5.998zM326.421 644.792l10.293 17.123 3.885-19.369zm10.107 27.311-30.752-44.671 9.302-1.472 8.075 13.488 18.753-2.971 3.055-15.252 11.663-1.847-12.242 51.481zM391.567 651.523c3.182-1.398 5.593-2.437 8.111-3.61 13.921-6.493 14.276-14.495 9.448-24.847-7.076-15.179-16.282-13.186-25.796-8.751l-7.485 3.491zm-28.021-34.708 14.271-6.654c3.636-1.698 14.409-6.72 22.432-5.95 6.855.637 14.855 4.826 19.684 15.179 9.849 21.125-9.665 30.226-16.73 33.521l-2.87 1.337c-5.316 2.481-11.771 4.893-16.106 6.916zM253.386 214.939l-5.103-32.219 7.065-1.12 2.261 14.28 14.229-2.252.677 4.269-14.23 2.252 1.489 9.402 16.873-2.673.676 4.27zM297.811 206.925c6.173-.107 11.643-5.143 11.494-13.682-.168-9.673-6.954-12.23-11.019-12.161-6.225.109-11.695 5.147-11.547 13.583.114 6.532 3.817 12.386 11.072 12.26m1.716 3.985c-4.579.08-9.22-.509-13.811-4.032-3.807-2.917-6.398-6.936-6.501-12.751-.134-7.72 4.699-16.859 17.869-17.088 9.825-.173 19.493 5.216 19.696 16.897.123 7.098-3.307 11.07-5.437 12.855-4.362 3.733-10.583 4.097-11.816 4.119M340.98 211.254c6.063 1.18 12.459-2.609 14.089-10.994 1.845-9.497-4.261-13.408-8.25-14.185-6.112-1.189-12.51 2.603-14.12 10.884-1.246 6.417 1.161 12.911 8.281 14.295m.852 4.254c-4.498-.874-8.915-2.415-12.673-6.814-3.116-3.645-4.813-8.117-3.705-13.823 1.472-7.577 8.098-15.514 21.029-13.003 9.647 1.878 17.981 9.159 15.754 20.622-1.357 6.973-5.536 10.144-7.991 11.448-5.042 2.741-11.203 1.806-12.414 1.57M361.398 219.11l1.618-4.007 11.831 4.78 10.603-26.24 6.68 2.698-10.602 26.242 11.879 4.798-1.618 4.008zM410.195 222.845l2.115 1.27c3.884 2.332 8.109 4.691 11.128-.336 1.22-2.032 1.432-4.182-.251-6.273-1.033-1.282-2.709-2.289-6.925-4.762zm-6.864 11.421c1.718 1.035 2.884 1.795 3.763 2.324 3.706 2.227 5.659.877 6.93-1.239 2.57-4.277-.734-6.266-3.693-8.041l-2.073-1.244zm8.905-28.504 10.894 6.545c3.969 2.385 6.32 5.362 7.001 7.03.686 1.553 1.664 5.02-.483 8.595-.767 1.276-2.014 2.752-4.044 3.631-3.038 1.357-5.623.464-6.972.014.875 1.244 3.429 4.879 1.126 8.719-1.088 1.809-2.968 2.839-4.759 3.025-3.073.314-6.116-1.214-9.291-3.122-2.867-1.722-7.409-4.752-10.276-6.477zM442.276 241.879l-4.115 12.666 11.447-6.516zm-9.32 17.029 9.027-35.01 4.808 4.034-3.256 9.965 9.698 8.134 9.009-5.132 6.03 5.059-31.257 16.357zM450.684 275.164l24.242-21.83 14.908 16.556-3.21 2.891-10.123-11.24-21.031 18.936zM467.853 295.645l26.722-18.712 12.778 18.25-3.54 2.48-8.675-12.391-23.182 16.229zM501.522 356.98c-.63.364-.849.234-1.148-.093-.276-.274-2.859-3.504-4.922-8.61-5.241-12.977.252-21.909 8.6-25.282 6.727-2.716 16.896-1.998 22.137 10.979 1.852 4.58 2.47 9.269 2.51 10.195.05.536-.009.67-.541.995l-2.832 1.646c-.391.269-.487.305-.658.152-.155-.102-.805-.616-.865-.759-.019-.048.204-1.968.232-2.315.132-2.827-.508-5.787-1.317-7.792-2.41-5.964-8.697-9.027-17.094-5.635-4.246 1.717-10.652 5.913-7.162 14.547 1.252 3.103 3.354 5.97 4.995 7.693.173.154 1.168.973 1.263 1.213.077.191-.023.896-.044 1.127-.036.181-.064.246-.333.412zM501.359 363.875l31.652-7.895 5.391 21.618-4.193 1.048-3.662-14.678-27.459 6.846zM507.034 389.932l19.686-1.722c4.816-.422 7.813-.424 10.447 1.928 2.911 2.584 3.805 6.33 4.138 10.125.18 2.048.688 7.841-2.691 12.32-2.587 3.481-6.251 4.111-12.133 4.779l-16.882 1.89-.452-5.175 17.07-1.495c4.204-.369 6.613-.58 8.263-2.377 1.653-1.745 2.387-4.598 2.109-7.777-.275-3.126-1.385-5.197-2.714-6.218-1.713-1.297-3.202-1.166-6.839-.846l-19.379 1.695zM525.352 437.017l-.212 2.459c-.395 4.511-.664 9.343 5.178 9.854 2.359.207 4.387-.546 5.53-2.977.698-1.489.868-3.436 1.243-8.31zm-13.276-1.162c-.175 1.998-.349 3.378-.437 4.403-.377 4.306 1.692 5.468 4.15 5.684 4.973.435 5.309-3.409 5.612-6.843l.211-2.41zm29.524-4.494-1.107 12.662c-.403 4.613-2.046 8.032-3.247 9.373-1.095 1.299-3.784 3.699-7.936 3.336-1.488-.131-3.357-.603-5.041-2.043-2.55-2.134-2.879-4.85-3.065-6.259-.737 1.328-2.886 5.222-7.346 4.833-2.1-.185-3.852-1.423-4.804-2.952-1.628-2.621-1.591-6.028-1.265-9.719.29-3.332 1.021-8.743 1.313-12.075z"/><path d="M0 0c-.084 2.085-.729 14.774-1.364 27.446-.315 6.321-.627 12.605-.857 17.472-.117 2.431-.213 4.51-.28 6.05-.032.772-.059 1.407-.074 1.871l-.013.346c.051.329.145.903.254 1.515.259 1.473.623 3.419.928 5.111.152.85.289 1.635.399 2.321.055.346.105.662.147 1 .039.381.094.596.11 1.513-.007.67-.042.881-.067 1.162-.096.894-.24 1.792-.429 2.999-.281 1.756-.646 3.924-.936 5.718a172 172 0 0 0-.354 2.259l-.07.499c-.116 2.838-1.51 5.212-2.772 6.532-2.406 2.478-4.481 3.222-6.505 4.026-6.011 2.073-12.502 2.65-16.481 2.727-2.005-.075-2.384-.38-2.881-.502-.798-.295-1.039-.441-1.358-.598-1.054-.554-2.074-1.183-3.69-2.183-11.672-7.263-48.779-31.826-84.567-55.659-32.338-21.54-63.354-42.327-73.174-48.998-1.58-.049-3.332-.249-5.484-1.208l-2.1-.969-1.307-1.91c-2.167-3.211-5.814-6.161-10.213-8.997-3.739-2.453-7.905-4.735-11.885-7.599a17.2 17.2 0 0 1-3.287-1.064c-3.076-1.365-5.379-3.175-7.543-4.992-3.19-2.732-6.029-5.642-8.334-7.576a24 24 0 0 0-1.99-1.538 9.6 9.6 0 0 1-2.331.28c-1.771-.032-2.684-.436-3.33-.69-1.223-.56-1.553-.893-1.882-1.127-.559-.452-.688-.612-.837-.758-.444-.469-.45-.503-.598-.669-.396-.471-1.006-1.207-1.954-2.203-1.396-1.47-3.445-3.35-5.618-4.727-2.188-1.402-4.375-2.194-6.09-2.235l-3.084-.116-2.273-2.085c-2.499-2.285-4.184-4.175-5.589-5.742-.577-.642-1.112-1.238-1.69-1.851-1.645-.02-3.623-.398-5.377-1.341a11.6 11.6 0 0 1-3.262-2.584c-1.169-1.345-1.73-2.421-2.202-3.254l-.203-.371q-.202.01-.417.017c-2.206-.019-3.862-.579-5.283-1.234-2.115-1.018-3.775-2.334-5.261-4.098-.612-.773-1.241-1.651-1.762-2.703-1.259-.199-2.863-.506-4.957-1.512a11.5 11.5 0 0 1-3.482-2.672c-.429 3.708-1.633 7.736-4.111 11.775-1.589 2.519-3.786 5.013-6.79 6.909-2.75 1.754-6.188 2.882-9.835 3.033a14 14 0 0 1-3.324.415c-6.568-.016-12.201-2.981-16.112-7.022-3.907-4.072-6.499-9.383-6.549-15.442v-.208c-.319-.705-.687-1.684-.844-2.551-.276-1.35-.341-2.558-.345-3.981.031-3.568 1.044-6.689 2.544-9.726a32.3 32.3 0 0 1 3.809-5.85v-3.814l-.207-.168c-1.159-.95-2.688-2.058-3.906-2.915-.617-.431-1.153-.8-1.584-1.099-.221-.155-.404-.283-.633-.452-.125-.091-.242-.175-.507-.391-.141-.12-.304-.247-.675-.62-.191-.204-.435-.443-.858-1.027a8.4 8.4 0 0 1-.792-1.37q-.091-.213-.196-.473a21 21 0 0 0-1.646-.981c-2.083-1.17-5.031-2.552-8.005-4.415-1.491-.95-3.023-2.026-4.527-3.527a18 18 0 0 1-.46-.481q-.375-.12-.795-.295a16 16 0 0 1-.67-.119c-1.996-.367-4.94-1.56-6.976-4.186a11.6 11.6 0 0 1-1.282-2.052c-3.236-1.464-6.173-3.273-8.777-4.932a96 96 0 0 1-4.724-3.266 61 61 0 0 1-1.497-1.141 20 20 0 0 1-.605-.495 9 9 0 0 1-.284-.255c-.428-.306-1.333-.935-2.349-1.619-4.205-2.845-11.363-7.531-13.643-9.061l-.041-.027-.08-.057c-9.157-6.402-16.838-10.512-27.813-18.575-6.775-4.802-12.511-8.144-17.584-11.12-3.803-2.238-7.261-4.262-10.509-6.659-4.853-3.517-9.293-8.365-11.775-14.845-2.516-6.459-3.383-13.94-3.4-23.938a9.1 9.1 0 0 1 .371-2.636c-.139-.664-.298-1.41-.462-2.166-.451-2.09-.957-4.409-1.334-6.346l-.812-4.198.768-.823-.083-.907-.034-.375v-.38c.086-4.013 1.926-6.671 3.94-8.652l3.645-3.473 4.781 1.583q.476.158.993.346c-1.02-8.456 3.21-12.973 10.967-14.834a43.7 43.7 0 0 1-3.773-17.801c0-24.249 19.655-43.904 43.903-43.904a43.7 43.7 0 0 1 20.199 4.926c2.802-5.835 5.556-11.616 16.879-10.879-.434-.983-.768-1.86-1.058-2.575l-.213-.542a8.37 8.37 0 0 1-1.771-4.772 8.37 8.37 0 0 1 2.446-6.328c1.394-1.498 3.882-2.465 5.72-2.465q.113 0 .222.005c.402-.001.792.029 1.165.081 1.025.088 4.681.385 9.403.793 7.955.691 19.281 1.727 28.759 2.855 4.75.57 9.009 1.152 12.347 1.774 1.692.323 3.106.624 4.571 1.089.756.258 1.5.496 2.666 1.171.588.365 1.326.82 2.264 1.868a8.7 8.7 0 0 1 2.168 5.72c.019 2.062-.819 3.973-1.668 5.094-1.551 1.991-2.751 2.455-3.578 2.895-.577.259-1.06.437-1.497.573.104 5.067 2.234 11.546 4.843 18.58 2.615 7.342 5.784 15.237 5.859 24.245-.008 1.026-.106 1.603-.2 2.228-.362 2.177-1.015 4.64-1.85 7.795-1.244 4.652-2.871 10.424-4.165 15.578-.646 2.57-1.204 4.984-1.581 6.938a35 35 0 0 0-.486 3.091c.379 1.657 1.301 5.465 2.448 10.128a9728 9728 0 0 0 7.082 28.504l2.882 11.549.862 3.465.24.97.073.302.037.164c.008.04.019.083.04.187.013.057.025.121.05.267.012.078.029.171.052.34.017.193.061.371.069 1.068-.019 1.282-.123 1.986-.242 3.109a240 240 0 0 1-.506 3.962l.045.016a10.386 10.386 0 0 1 5.499 4.254c1.522.226 3.17.827 4.459 1.79a10.4 10.4 0 0 1 3.328 4.057l.241-.002c2.081-.034 4.648.631 6.602 2.094a11 11 0 0 1 3.136 3.569c.301.552.538 1.07.729 1.554.632-.08 1.128-.084 1.411-.083.291.002.412.005.415.004 2.214.084 2.788.518 3.339.695.93.423 1.113.595 1.35.738.678.471.678.51.884.668.537.451 1.204 1.041 2.169 1.883a279 279 0 0 0 5.198 4.458q.474.395.945.78.65-.09 1.378-.104c1.775.048 2.384.366 2.899.518.914.354 1.135.525 1.381.655.73.453.705.476.88.595.409.314.706.559 1.234.989 1.746 1.425 5.155 4.24 8.241 6.659.834.655 1.646 1.28 2.373 1.826a8.7 8.7 0 0 1 1.626-.137c1.686-.031 3.62.476 4.834 1.094 1.24.615 1.769 1.048 1.859 1.086l2.532 1.614.934 2.852c-.03.037.552 1.12 1.944 2.327 2.029 1.852 5.455 3.878 8.313 5.22a50 50 0 0 0 2.068.93c.904-.288 1.913-.474 2.893-.455 2.094.052 3.015.54 3.738.827 1.27.605 1.792 1.041 2.367 1.462 1.792 1.409 3.284 2.948 4.783 4.47.726.745 1.393 1.445 1.924 2.007l.055.058c5.666 2.806 11.682 6.43 17.445 10.069a10.8 10.8 0 0 1 2.201-.258c1.83.031 2.891.409 3.911.803 1.482.634 2.756 1.434 4.084 2.838a10.5 10.5 0 0 1 2.029 3.168c1.101.864 3.248 2.352 5.728 3.873 4.765 2.963 11.04 6.475 16.523 9.489 2.747 1.506 5.299 2.895 7.412 4.053l.841.464a9 9 0 0 1 1.498-.109c1.386.029 1.888.224 2.318.327.77.231.983.354 1.204.448.677.325.673.354.844.444.419.25.738.458 1.301.818 3.639 2.345 14.357 9.434 20.781 13.991 2.272 1.158 5.035 2.749 8.173 4.601 5.125 3.031 11.082 6.7 15.867 9.586a303 303 0 0 0 5.262 3.119c.277-.019.528-.026.753-.03 1.003-.034 2.173.176 3.099.437l1.521.035 2.198 1.716c3.367 2.682 10.924 6.851 19.809 11.164 13.411 6.552 30.118 13.847 43.69 20.581 6.806 3.385 12.809 6.596 17.529 9.769 2.368 1.611 4.427 3.175 6.263 5.105.915.979 1.794 2.058 2.57 3.477.759 1.404 1.455 3.257 1.465 5.547-.002.3.075 3.633.148 6.967.077 3.41.154 6.971.156 8.715C.011-.186.006-.186 0 0" style="fill:#fff" transform="translate(545.815 530.761)"/><path d="M148.107 201.019c-15.018-17.38-41.267-19.315-58.631-4.319-17.362 14.997-19.264 41.242-4.248 58.623 15.017 17.381 41.266 19.316 58.63 4.32 17.362-14.998 19.264-41.242 4.249-58.624"/><path d="M0 0c3.084-.889 6.096-1.158 8.599-1.158 1.538 0 2.879.1 3.927.219-2.007.354-4.902.974-7.355 1.927C4.123.705 3.518.442 0 0" style="fill:#fff" transform="translate(107.002 190.643)"/><path d="M0 0c1.764-1.798 5.144-4.671 5.813-5.236.772.048 4.399.302 8.248 1.097 3.875.8 8.205 2.533 9.06 2.884.266.684 1.388 3.6 2.391 6.795.999 3.175 1.785 6.72 1.971 7.584-.447.466-1.903 2-3.676 3.912-1.924 2.076-6.306 5.757-7.031 6.363a34 34 0 0 1-.584.005c-1.296 0-4.162-.072-6.9-.605-3.339-.649-7.459-2.307-8.221-2.621a116 116 0 0 1-3.304-6.809c-1.419-3.207-1.944-7.558-2.035-8.422C-3.803 4.357-1.736 1.762 0 0" style="fill:#fff" transform="translate(102.991 233.089)"/><path d="M0 0c-1.217.097-7.897.683-13.347 2.287-1.692-2.061-2.78-5.059-3.025-5.78.474-.809 2.882-4.881 6.517-9.874 3.751-2.684 6.587-4.127 8.479-4.897 1.638-.668 2.536-.828 2.753-.859.476.089 3.821.714 7.888 1.466 1.281 1.759 1.488 4.875 1.478 6.309 0 .262-.005.465-.011.598C3.7-5.43.594-.922 0 0" style="fill:#fff" transform="translate(102.947 210.852)"/><path d="M0 0c.613.68 1.341 1.323 3.864 4.072C.919 2.798-2.037.787-3.805-.515c1.046.266 2.348.518 3.53.521Q-.137.006 0 0" style="fill:#fff" transform="translate(97.588 259.774)"/><path d="M0 0a42 42 0 0 1-9.753 1.07l5.549-1.86C-3.74-.694-1.766-.294 0 0" style="fill:#fff" transform="translate(126.334 265.989)"/><path d="M0 0q0 .431.016.853c-2.075 2.224-4.43 5.353-5.745 8.514-.886-3.233-1.427-6.458-1.427-10.044 0-2.46.255-5.091.833-8.014.843-4.255 2.12-7.422 3.185-9.522.8-1.577 1.469-2.539 1.752-2.922.307.068.878.169 1.689.216.968 2.604 2.668 5.273 3.135 5.987C1.212-10.15.002-4.57 0 0" style="fill:#fff" transform="translate(85.019 229.062)"/><path d="M0 0c.843 5.954 2.228 9.877 5.46 15.464-2.2 2.773-4.439 4.316-4.876 4.603-.095.008-.275.02-.543.02-1.066 0-3.424-.178-6.577-1.474-3.638-3.578-8.185-8.32-10.727-16.404.444-1.884 1.957-4.228 3.373-6.076a44 44 0 0 1 2.557-3.043C-10.206-6.207-5.66-3.376 0 0" style="fill:#fff" transform="translate(97.244 238.312)"/><path d="M0 0c4.778-.509 11.367-1.886 12.966-2.229l2.141 8.032c-.195.299-.755 1.115-1.897 2.307-1.462 1.529-3.862 3.652-7.573 5.988-4.429 2.491-7.386 3.563-7.878 3.736-1.318-.139-5.023-.896-6.385-1.13-1.222-1.88-1.699-3.889-2.142-6.128C-7.981 8.382-4.133 4.75 0 0" style="fill:#fff" transform="translate(131.508 247.186)"/><path d="M0 0c-.919-7.725-3.048-11.798-5.319-15.735 1.548-1.865 3.293-3.314 5.156-4.983 2.204.32 4.073.88 4.431.993.19.148.958.753 2.103 1.959 1.332 1.402 3.161 3.598 5.134 6.77 2.259 3.637 3.586 6.902 4.349 9.257.584 1.809.833 3.066.917 3.552l-6.216 4.549C9.61 5.377 5.934 1.848 0 0" style="fill:#fff" transform="translate(137.985 219.185)"/><path d="M0 0a34 34 0 0 1 3.208 2.048l-1.942-.28C.771 1.361-1.789-.677-6.127-2.876A45.5 45.5 0 0 1 0 0" style="fill:#fff" transform="translate(136.644 195.263)"/><path d="M0 0a36 36 0 0 1-4.336 10.423 29 29 0 0 1-2.23 3.15l-2.041-7.67c.267-.739 1.764-4.916 2.52-8.423.737-3.417.869-7.668.889-8.631l5.983-4.158c.148.897.4 2.8.399 5.411C1.184-7.218.917-3.801 0 0" style="fill:#fff" transform="translate(154.35 238.038)"/><path d="M0 0c-1.826 1.778-5.47 5.3-6.31 6.11-1.148-.432-6.322-2.361-9.187-2.986-2.816-.612-7.09-1.003-8.113-1.093-.306-.666-1.357-3.024-2.862-7.234-1.54-4.309-1.93-6.598-2.012-7.168.461-.625 2.627-3.53 4.764-5.638 2.188-2.164 5.457-4.646 6.033-5.08.241-.018.883-.059 1.811-.059 1.555 0 3.894.121 6.375.672 3.983.885 7.438 2.547 8.049 2.851.35.593 2.273 3.876 3.624 7.447 1.321 3.49 1.625 7.08 1.676 7.827C3.458-3.851 1.793-1.74 0 0" style="fill:#fff" transform="translate(132.742 224.034)"/><path d="m538.45 533.873-3.444 22.354c.296 1.172.819 2.912.849 3.984-.02.331-.037.252-.042.316-.101.375-1.012 3.086-1.95 6.013a186 186 0 0 0-1.262 4.061c-.17.576-.31 1.078-.403 1.448a8 8 0 0 0-.102.441c-.011.052-.016.092-.019.111l-.001-.001c-.029 1.437-.855 6.997-1.789 13.201-.939 6.21-1.983 12.868-2.4 15.723-.386 2.627-1.65 5.628-3.558 8.082-1.899 2.431-4.521 4.395-7.699 4.41-.665-.013-1.192-.196-1.714-.338-.496-.149-.987-.258-1.047-.243-.758-.052-1.115-.287-1.886-.632-5.288-2.596-22.681-13.892-41.265-26.228a4775 4775 0 0 1-46.768-31.488l-.603.594-.825-.581c-8.528-6.013-19.82-15.909-30.139-21.022-7.898-3.94-16.078-10.745-24.217-16.904-17.388-8.181-29.612-19.341-45.209-29.351a6 6 0 0 1-1.275.131c-2.195-.014-4.565-1.028-6.116-2.967l-.046-.059-.039-.065c-3.25-5.471-10.151-8.177-16.376-12.644q-.59.09-1.183.089c-3.343.031-7.011-2.19-7.459-6.188-4.012-2.438-5.997-3.714-9.848-6.088a4.3 4.3 0 0 1-.723.059c-1.612-.017-3.36-.74-4.938-1.925-1.561-1.188-2.943-2.893-3.413-5.034-.114-.61-.735-1.256-1.82-1.834-1.058-.572-2.422-1.017-3.587-1.424-1.684-.605-3.892-1.315-5.759-2.222-.936-.458-1.794-.96-2.489-1.596-.68-.623-1.27-1.474-1.273-2.55q0-.084.004-.169c-.726-.757-1.616-1.005-2.769-1.131-1.311-.145-2.759.033-4.182-.33-2.621-.689-3.532-2.951-4.044-4.465-.269-.784-.5-1.46-.712-1.79-.254-.336-.181-.273-.412-.307-.054-.014-.489.086-.951.238-.483.139-.991.331-1.663.343-.864-.066-1.206-.377-1.888-.759-2.179-1.372-6.046-4.55-9.829-7.418-1.884-1.428-3.734-2.772-5.272-3.736a15 15 0 0 0-.301-.191c.293.722.523 1.481.728 2.233.565 2.221.77 4.423.773 5.609-.003 4.87-1.348 9.95-4.399 13.89-3.04 3.946-7.869 6.66-14.391 6.643-7.442.042-12.184-3.53-14.721-8.327-2.564-4.782-3.192-10.687-3.198-15.838.001-1.96.11-4.77.968-7.384.748-2.33 2.242-4.639 4.871-5.651v-.238c-.006-6.613.278-7.259.263-7.65.024-.734-.57-1.85-1.79-3.045-1.798-1.792-4.731-3.662-7.43-5.286-2.132-1.303-4.059-2.378-5.368-3.389a1.45 1.45 0 0 1-.655.14c-.214-.004-.303-.047-.306-.037l-.243-.062-.202-.155c-6.069-4.681-13.05-9.373-18.402-15.147h-3.74c-1.145.016-2.15-.429-2.814-1.075-1.001-.966-1.415-2.141-1.906-3.063-.46-.894-.884-1.484-1.503-1.783-1.372-.217-3.157-.725-4.739-1.546-1.43-.766-2.906-1.83-3.236-3.571-1.963-1.222-3.273-1.751-4.712-2.482-1.553-.788-3.161-1.812-5.415-4-2.052-1.987-4.367-2.375-6.741-2.984-2.202-.506-4.723-1.599-5.687-4.71-8.415-5.714-20.052-9.707-26.622-17.387-4.705-2.617-12.877-7.981-16.237-10.091l-.056-.033-.05-.04c-3.7-2.924-7.615-4.566-10.808-6.812-3.199-2.207-5.638-5.378-5.586-10.639.005-3.06-.784-8.407-1.581-12.984a371 371 0 0 0-1.095-5.98c-.15-.789-.275-1.443-.362-1.922-.09-.53-.14-.668-.158-1.055-.015-.705.354-1.273.493-1.469.046-.067.071-.108.083-.129-.07-.663-.723-4.303-1.346-7.75a795 795 0 0 1-.862-4.839c-.235-1.403-.385-2.167-.404-2.664.013-.931.279-2.31.978-3.681.669-1.32 1.982-2.755 4.011-2.761.337.018.304.046.391.059.639.191 3.511 1.311 7.761 2.982a6423 6423 0 0 1 22.945 9.106c3.763 1.498 7.132 2.843 9.565 3.809 1.218.486 2.2.875 2.881 1.144l.755.299a4 4 0 0 0 .275-.129c.281-.135.782-.414 1.486-.416.859.045 1.375.375 2.166.777 2.238 1.232 5.755 3.708 8.846 5.077.089.044.257.084.528.084.589.01 1.492-.211 2.51-.223.509.003 1.088.062 1.663.347 3.521 1.795 5.586 3.41 7.728 4.734.711-.423 1.504-.602 2.274-.627 2.539-.01 3.815 1.786 4.706 2.93 1.004 1.216 1.591 1.967 3.416 2.01.263-.072 1.225-.83 2.63-.872 1.435-.006 2.52.311 3.258 1.016 1.054 1.107 1.014 2.225 1.299 2.597.221.316.321.685 2.416.748.081.012.723-.111 1.32-.26.637-.143 1.232-.31 1.875-.323 1.053.005 1.821.111 2.506.507 1.059.688 1.176 1.548 1.484 2.018.237.408.549.873 1.388 1.463.811-.676 1.815-.845 2.404-.794q.282.002.501.003c1.751-.028 2.862 1.152 3.466 2.062.487.71.882 1.345 1.339 1.796.986-.475 2.015-.913 3.041-.953 1.231 0 2.462.454 3.439 1.275v-27.036l2.796-20.058c-.001-1.727-.037-4.495-.037-6.436.033-8.475 3.249-12.261 3.199-16.04l-1.09-14.273v-.054c0-.44-.033-1.48-.033-4.164 0-1.348.007-3.111.033-5.441v-.052l1.961-21.652c.011-2-1.144-4.615-1.386-7.468-2.222-.498-7.461-1.306-12.303-2.504-2.818-.7-5.546-1.538-7.671-2.61-2.063-1.065-3.848-2.404-3.921-4.632.091-1.333.714-2.099.624-2.214l.065-1.025 1.021-.104.007-.008c.133-.041.718-.332 1.487-.332l.041.001h.063l44.323 3.777c.393-.005 1.093-.053 1.862-.055.99.007 2.128.066 3.204.546 1.085.437 2.078 1.664 2.028 3.189l.003.006c.022.177.09.6.153.984.064.425.123.674.135 1.045-.012.621-.168 1.328-.313 2.114-.147.74-.28 1.555-.268 1.661-.014 6.232 2.613 13.809 5.305 21.395 2.681 7.603 5.432 15.212 5.447 21.902-.027 4.022-2.162 10.839-4.263 18.088-2.088 7.127-4.139 14.606-4.164 19.262.213.839 1.725 6.642 3.201 12.9 1.588 6.779 3.172 14.05 3.19 17.2v3.704c.054 4.368 1.516 5.392 3.507 7.888 2.013 2.433 4.086 5.984 4.048 13.795-.006.545-.22 2.943-.439 5.484-.217 2.47-.437 5.087-.431 5.269-.004.002.006.074.073.252.114.337.359.822.625 1.348a3.7 3.7 0 0 1 1.096-.159c1.965.034 3.393 1.341 4.421 2.694.648.883 1.154 1.81 1.476 2.697.673-.241 1.431-.462 2.141-.486 1.738-.013 3.091.51 3.962 1.4 1.291 1.339 1.468 2.98 1.838 3.993.171.521.356.857.525 1.01.13.112.258.21.583.254a2 2 0 0 1 .187-.208l.349-.337h5.501l.36.398c1.481 1.641 2.308 3.342 3.171 4.66.724 1.095 1.399 1.918 2.484 2.509.349-.306.866-.604 1.552-.599h3.998l.352.334c.384.379.909 1.044 1.711 1.995 1.173 1.401 2.805 3.291 4.434 4.795 1.598 1.527 3.327 2.533 4.006 2.462.054.013.489-.086.951-.237.484-.141.99-.334 1.665-.346.832.052 1.207.379 1.763.734 1.798 1.28 4.549 4.098 7.427 6.637 1.428 1.263 2.87 2.445 4.146 3.279 1.265.848 2.402 1.287 2.934 1.264.063.013.553-.094 1.049-.243.522-.143 1.046-.325 1.712-.338.146 0 .339-.004.556-.004.371.002.799.009 1.263.102.446.097 1.039.266 1.489.902 1.919 2.916 6.716 6.671 11.094 9.543a91 91 0 0 0 5.873 3.58 39 39 0 0 0 1.941 1.019 9 9 0 0 0 .561.247c.168-.03.495-.114.839-.226.483-.14.99-.333 1.662-.346 2.485-.009 4.84 1.928 5.266 4.89 4.164 2.322 10.192 5.825 15.352 8.8a580 580 0 0 0 6.978 3.986c.911.509 1.663.92 2.194 1.195.245.13.445.229.58.288.136-.034.352-.098.601-.197.404-.137.891-.353 1.578-.364.429.027.446.102.529.122.299.166.227.147.361.239 1.289.992 9.88 8.002 14.176 10.5 9.168 5.363 21.045 13.862 30.283 15.329l.517.084.293.434c3.575 5.42 13.249 9.073 20.231 13.106 11.57 6.832 24.521 13.072 35.532 19.162 17.605 9.731 35.343 21.579 51.827 31.215 4.885 2.987 13.743 7.48 21.413 13.41 7.647 5.928 14.315 13.374 14.347 22.559-.007.309.123 1.198.126 2.137-.001.46-.031.951-.147 1.454"/><path d="m0 0 .16.173c.403.402.877.496 1.309.526v.871H4.64V-.771l-.353-.164c-.599-.278-.769-.15-1.204-.912l-.168-.329H0zm25.611-27.804c.258.38.743.64 1.259.63 0-.001.026.001.067-.002h2.409v-2.186l-.161-.174c-.439-.456-1.027-.739-1.251-.972l-.176-.168h-1.773l-.175.174c-.127.134-.298.235-.441.543-.12.301-.107.524-.112.894-.001.442.09.883.354 1.261M-3.904-2.076l2.878-.587-.594-2.412h-1.834v-.787c-.063-.918-.732-1.411-.87-1.583l4.055-25.943c.267-2.953.795-5.94.896-8.848h.816c2.695 1.932 12.966 7.624 13.795 8.03.1.02-.088.023.306.079.863.075 1.382-.563 1.434-.634l.201-.178v-1.365l-.285-.179C10.246-40.602 4.902-42.871.882-46.698v-15.525L-.85-89.501c-.063-.594-.38-.698-.442-.823-.098-.122-.128-.147-.139-.343q.004-.102.009-.154c22.357 12.962 45.073 24.969 66.597 38.138 8.357 5.099 14.72 14.239 14.708 23.472.014 3.924-3.472 18.934-6.956 33.41-3.49 14.555-6.969 28.514-6.991 31.242.018.287-.316 1.238-.682 2.105-.359.914-.745 1.704-.774 2.399.016 1.727-.842 3.611-.87 5.087-.045 1.003-.17 1.088-.6 1.342-.478.245-1.456.397-2.796.772l-.44.128v.565l-.356-.465-.325.429c-.187-.362-.398-.613-.517-.762-.06-.073-.072-.087-.071-.089l-.442-.931-.59.827c-4.81-3.593-14.053-9.429-19.263-12.493.025-.083.05-.193.071-.339a.87.87 0 0 0-.212-.563l-.321-.382-.435.243a1.1 1.1 0 0 1-.455.1.7.7 0 0 1-.225-.035c-.035-.313-.126-.32-.147-.373a1 1 0 0 0-.07-.068c-.03-.027-.05-.042-.072-.059a17.827 17.827 0 0 0-.602-.386c-.37-.23-.866-.534-1.375-.846-.748-.456-1.556-.955-1.985-1.232a.7.7 0 0 0 .061-.261c-.072-.464-.178-.383-.189-.447l-.089-.092-.073-.072-.091-.046c-1.021-.508-2.516-1.259-3.928-1.873.049-.101.103-.239.159-.429l.084-.559-.551-.122c-.763-.167-1.41-.368-2.018-.488l.016-.117a.94.94 0 0 0-.277-.648l-.088-.09-.114-.048c-3.373-1.385-9.301-6.206-13.808-8.525a3 3 0 0 0 .05-.284.92.92 0 0 0-.268-.635l-.113-.116-.154-.046c-3.014-.832-4.466-3.414-7.763-4.292-.013-.301-.067-.679-.388-1.06l-.148-.154-.21-.027c-.918-.095-1.409-.601-3.042-1.603l.528-.529-.948-.301c-.45-.136-.958-.165-1.443-.184l.009-.063a.9.9 0 0 0-.259-.621l-.165-.173-.237-.015c-1.024-.05-1.855-.633-2.135-.901-.029-.717-.257-1.447-.803-2.207.569-1.882 1.082-4.423 1.097-5.283q-.002-.14-.003-.271c.003-.412-.011-.922-.192-1.444.292-.025.591-.076.884-.152l.207 1.084z" style="fill:#fff" transform="translate(452.993 561.527)"/><path d="m0 0-1.566-18.163 51.223 28.959 1.739 22.077.002 10.498.722 12.759C35.513 45.847 16.334 35.487.002 24.776z" style="fill:#fff" transform="translate(396.922 456.577)"/><path d="M0 0c-.127 1.5-.077 3.1-.566 4.229-6.163-6.385-15.526-11.718-25.029-17.494l.368-.388-.641-.389c-3.008-1.832-6.116-4.081-9.842-6.142.023-.227.056-.526.059-.83-.004-.332-.029-.697-.245-1.064-.209-.379-.698-.637-1.182-.619-.261.002-.443.017-.641.086-.124.028-.32.169-.424.37-1.409-1.066-3.075-1.773-4.099-2.263.195-.414.354-.731.405-1.128l.015-.278-.198-.192c-.566-.536-1.275-1.224-2.323-1.242a1.63 1.63 0 0 0-.778.184 8 8 0 0 0-.05-.388c-.031-.53-.614-1.312-1.496-1.25-.184.004-.357.012-.576.14-.154.082-.265.258-.316.415-.152-.037-.243-.107-.443-.18-.309-1.177-.6-1.743-.895-2.109-.376-.437-.374-.338-.419-.509-.045-.147-.089-.516-.087-1.22-.016-.529.514-2.54.577-3.504 4.273 2.149 8.758 5.57 12.678 7.249 6.536 4.998 24.157 16.541 29.47 19.404.814.412 1.175.655 1.708.702.182 0 .309.004.422.004q.043.011.093.01c.286 0 .729-.25.777-.366l.198-.181v-2.22l-31.923-20.776-.045-.021c-.934-.408-8.034-4.355-11.374-7.427-1.132-1-1.761-1.987-1.714-2.26l2.62-27.371c0-.666 0-1.083.056-4.886 9.232 5.494 30.758 18.742 42.671 25.188 4.168 2.222 6.946 3.637 8.245 3.695.177 0 .316.004.442.004.231.034.584-.057.822-.209l.022.377.006.037c.177.915.795 1.534 1.548 2.095C2.666-32.601 1.132-6.83 1.107-5.674c.02 1.004.52 1.706 1.155 2.237-.598.187-1.072.499-1.414.922C.264-1.792.093-.897 0 0" style="fill:#fff" transform="translate(442.852 560.219)"/><path d="M0 0h-.747v-.771c.266.223.536.356.747.441z" style="fill:#fff" transform="translate(456.42 561.888)"/><path d="M0 0a1.6 1.6 0 0 1-.529-.071v-.395h.978q.152.23.321.4l-.502.053Q.147 0 0 0" style="fill:#fff" transform="translate(454.734 561.027)"/><path d="M0 0h.442l.066.268-.439.088z" style="fill:#fff" transform="translate(449.979 557.661)"/><path d="M0 0c-.272-.013-.351-.098-.404-.68 0-.195.005-.326.012-.385l-.007-.011h.002l.003-.004h.816c.307.245.635.444.842.603V0H0" style="fill:#fff" transform="translate(479.863 533.142)"/><path d="m0 0-.345.425-.042.054C-.398.108-.434-.354-.805-.778c-.298-.326-.759-.477-1.263-.472l-.323-.002c-.081.002-.139-.003-.278.026-.393-.559-.934-1.2-1.648-1.601v-4.304C.862-4.107 9.046 1.017 16.258 5.643c7.284 4.668 13.677 8.91 14.776 9.798.006.36.023.632.021.86 0 .645-.099 1.145-1.212 3.38z" style="fill:#fff" transform="translate(358.588 506.229)"/><path d="m0 0-33.464-21.7v-32.53c11.636 6.655 31.561 18.437 34.73 19.961.268.106.282.176.652.214.139 0 .24.003.337.003.064.002.15.001.243-.013.198.445.454.841.62 1.217-1.266 1.804-.92 4.359-1.08 5.564z" style="fill:#fff" transform="translate(389.037 516.418)"/><path d="m0 0-.196.011a.65.65 0 0 0-.568.418C-.797.523-.802.563-.81.594l-.039.001c0-.008-.023 0-.106-.034a3 3 0 0 1-.34-.167 17 17 0 0 1-.975-.616c-.601-.39-1.24-.828-1.879-1.1-.039-.646-.247-1.722-1.317-2.361l-.441-.256-.328.392c-.052.067-.146.157-.249.28-.865-.798-1.16-1.178-1.147-1.727q0-.073.012-.182l.078-.75-.75.087-.013.002-.078-.046c-.173-.106-.496-.214-.894-.203a1.5 1.5 0 0 0-.409.038c-.282-1.827-.893-3.753-1.354-5.423C-2.532-6.443 4.854.034 13.853 3.736c.189.732.584 1.069.526 1.388.013.445-.389 2.314-.743 3.805z" style="fill:#fff" transform="translate(334.85 490.435)"/><path d="m0 0-1.201 28.509c-3.93-3.523-9.862-6.059-14.948-8.988-5.559-3.195-9.934-6.73-9.916-12.104 0-1.042.16-2.166.518-3.387l.023-.088-.212-21.838C-17.731-13.568-8.686-6.821.037-3.883c.125.517.411.987.791 1.374C-.118-1.474.255-.391.043-.1z" style="fill:#fff" transform="translate(349.812 461.46)"/><path d="M0 0c.004.476-.053.83-.168.998a.63.63 0 0 1-.278.239C-.534.692-.737.111-1.061-.362l-.198-.273-.333.022c-.391.05-.728.216-1.073.46-4.717-3.027-9.104-6.035-13.287-8.887.088-.258.108-.486.122-.622a.4.4 0 0 1 .011-.091l.252-.927-.945.172-.011.002c-.005.002-.029.002-.212-.099a1.8 1.8 0 0 0-.89-.241q-.224 0-.477.055v-3.786L.565-2.952C.05-2.28-.022-1.445-.012-.792-.012-.503 0-.237 0 0" style="fill:#fff" transform="translate(317.471 478.265)"/><path d="m0 0 35.562 19.974 2.189 43.927c-4.554-3.138-13.02-6.569-20.626-10.778C8.867 48.585 1.848 43.142 1.909 36.8z" style="fill:#fff" transform="translate(353.472 414.271)"/><path d="M0 0c-4.133-2.497-11.453-6.907-15.283-9.826-1.366-1.012-2.301-1.972-2.343-2.196l-.287-28.781c6.109 3.512 13.157 7.723 19.227 11.294-.386.378-.68.867-.682 1.514z" style="fill:#fff" transform="translate(317.215 469.929)"/><path d="M0 0c-.555 1.164-.625 2.639-.69 3.72C-2.223 2.911-5.546.963-6.015.638l-.013-.011-.022-.026c-.028-.03-.05-.056-.08-.084a6 6 0 0 0-.224-.218c-.186-.178-.447-.422-.759-.718a76 76 0 0 1-2.278-2.248c-1.66-1.647-3.271-3.797-3.172-4.296-.007-.336.089-.67.189-1.068C-8.67-5.875-3.256-2.563 0 0" style="fill:#fff" transform="translate(293.266 459.663)"/><path d="m0 0-1.354-28.839c3.375 1.598 11.17 6.479 12.628 7.472l-.35 28.506C6.93 4.538 3.487 2.175 0 0" style="fill:#fff" transform="translate(281.58 446.763)"/><path d="M0 0c-.129-1.566-.902-3.583-.87-4.036-.002-.409.095-1.203.095-2.865 0-.833-.022-1.893-.097-3.259-.321-6.18-1.113-8.624-1.625-19.381l25.42 14.18c.32 2.974.863 7.583.857 8.166l.002 5.533 1.452 15.37.753 15.082c-3.553-1.793-15.517-7.996-21.704-13.14-2.342-1.906-3.762-3.762-3.7-4.719C.581 10.169.438 5.25 0 0" style="fill:#fff" transform="translate(323.416 424.917)"/><path d="M0 0c2.345 1.363 4.766 3.045 5.077 3.651l.022.002c.022.447-.435 1.794-.584 2.875-.1.065-.161.122-.161.123-.018 0 .047.015-.216.027q-.031-.01-.101-.041a5 5 0 0 1-.432-.24 25 25 0 0 1-1.311-.877C1.297 4.817.146 3.961-.763 3.359c-.422-.267-.74-.485-1.057-.63C-2.031.921-3.114-.578-3.867-2.173A104 104 0 0 1 0 0" style="fill:#fff" transform="translate(269.743 444.253)"/><path d="M0 0a30 30 0 0 1 .149 2.821C.147 4.466-.034 5.337-.185 6.01c-2.491-1.782-5.03-3.338-7.3-4.955-1.005-3.94-.581-8.6-1.185-12.465l-.204-15.593c3.377 1.938 5.698 2.995 8.602 4.993q-.613.91-.602 1.918C-.882-1.931-.204-2.139 0 0" style="fill:#fff" transform="translate(273.973 436.035)"/><path d="M0 0c.516.395.86.815.908.91-.004.43-.406 1.646-.869 2.483-2.438-1.472-4.956-3.729-4.895-5.864.003-.317.012-.517.034-.655C-3.825-2.575-1.342-1.105 0 0" style="fill:#fff" transform="translate(258.825 437.445)"/><path d="M0 0c.503-2.847.7-4.826.7-6.264.018-2.22-.524-3.243-1.067-3.872-.522-.654-.749-.661-.787-1.821v-6.757c-.01-.809-.993-7.542-1.32-12.093C3.403-27.5 9.63-23.715 15.561-20.13c1 7.348 2.419 20.948 2.412 21.537v6.03c.007.842 1.417 11.055 1.41 11.946v3.495c-3.208-2.441-7.851-4.086-11.815-6.514C3.16 13.649-.337 10.182-.354 3.721c0-1.14.112-2.375.354-3.721" style="fill:#fff" transform="translate(297.839 411.374)"/><path d="M0 0c.635.245 1.272.433 1.807.674.948.45 1.42.805 1.44 1.751.016.346-.277 1.33-.588 2.197C1.59 3.363.742 2.033 0 0" style="fill:#fff" transform="translate(244.281 428.046)"/><path d="M0-.001.477 22.19c-1.276-.833-2.587-1.542-3.906-2.416-.08-2.94-.107-4.714-.107-5.784-.002-.97.026-1.377.041-1.488a.9.9 0 0 0 .066-.362c0-.15-.013-.366-.046-.858C-4.549-2.64-3.656-2.605-5.064-7.694c1.869.973 3.812 2.203 5.673 3.223-.574 1.087-.611 2.385-.621 3.395 0 .418.012.789.012 1.075" style="fill:#fff" transform="translate(257.698 409.274)"/><path d="M0 0q-.12-.025-.223-.042c-.162-.883-.22-1.674-.312-2.579.559.314 1.026.545 1.46.806C.491-1.296.113-.695 0 0" style="fill:#fff" transform="translate(236.697 425.123)"/><path d="M0 0c.069.228.216.473.402.583.199.145.408.252.711.407v25.214a30 30 0 0 1-.966-2.444c-.709-1.952-1.275-4.081-1.255-4.495L-2.136-.664A6.7 6.7 0 0 0 0 0" style="fill:#fff" transform="translate(244.906 396.356)"/><path d="M0 0c-3.703-2.52-7.342-4.491-11.008-6.751v-3.53l-2.624-24.694c-.268-6.945-.778-11.2-1.031-15.291 2.789 1.575 5.692 2.78 7.929 4.144 2.52 1.551 4.09 3.162 4.095 5.675v4.286c.006 3.889 2.733 24.497 2.901 25.9l.005-.002c0 .656 0 7.798-.027 10.262H0z" style="fill:#fff" transform="translate(291.139 419.522)"/><path d="M0 0a42 42 0 0 0-.044 1.628 37 37 0 0 1-.043 1.701v-4.502l-.002-.106q.088.242.186.473c-.012.06-.02.119-.036.184A7 7 0 0 0 0 0" style="fill:#fff" transform="translate(236.628 413.588)"/><path d="M0 0c-.096-1.002-.649-1.361-.582-1.749 0-.345.087-.616.256-.945.261.228.412.381.473.476.083.134.092.144.1.534 0 .169-.006.386-.006.663C.243-.594.144.513.144 2.299c0 .898.023 1.973.099 3.247.296 4.739.561 6.859.797 10.394-.342-1.661-.766-3.328-.75-3.739C.29 11.459.253 8.123 0 0" style="fill:#fff" transform="translate(235.082 393.572)"/><path d="m0 0-1.317-19.729c1.095.5 2.762 1.248 4.338 2.143 2.184 1.187 4.011 2.802 3.907 3.712v5.738c.008.514.368 2.946.73 5.5.363 2.495.731 5.113.72 5.327v4.284c.021.92.892 4.154.873 4.702l.472 16.173c-1.213-.648-2.702-1.247-4.038-1.938-1.741-.88-3.098-1.923-3.298-3.018C1.75 19.986-.004 4.984 0 0" style="fill:#fff" transform="translate(262.395 380.162)"/><path d="m0 0-.014-.059c-.792-3.165-1.438-6.387-1.438-9.462-.005-.37.109-.796.22-1.277.402.134.752.166.899.203C-.29-9.758.417-9.32.969-9.1c.544.239 1.156.451 1.782.83.101 1.611.474 3.675.83 5.479.381 1.885.748 3.609.731 3.767l.002 4.949 2.464 28.723c-1.441-.685-2.794-1.416-4.104-2.37-.397-3.209-1.228-8.703-1.22-9.292z" style="fill:#fff" transform="translate(250.189 364.153)"/><path d="M0 0c-.012-.549-.238-1.316-.456-2.151-.218-.799-.428-1.665-.416-1.843v-4.721c-.006-4.754-2.044-15.18-2.033-17.979 0-.771-.291-6.291-.289-6.975.007-.223.009-.392.025-.537 1.545 4.241 1.98 8.491 3.126 12.249L2.4 10.304c-.89-.581-1.486-.951-1.811-1.3C.173 8.554.013 8.126 0 6.757z" style="fill:#fff" transform="translate(242.054 381.326)"/><path d="m0 0 .257.104-.132.465A5 5 0 0 1 0 0" style="fill:#fff" transform="translate(176.205 383.332)"/><path d="m0 0 .367 5.388C.141 3.71-.092 1.939-.09 1.049-.093.886-.049.534 0 0" style="fill:#fff" transform="translate(232.556 366.366)"/><path d="m0 0 .683 10.023C.304 7.493-.061 5.227-.053 4.91c0-.514.001-2.807.053-4.91" style="fill:#fff" transform="translate(231.065 344.492)"/><path d="M0 0c-.394-.25-.816-.598-1.44-.781-.017-.588-.03-1.155-.074-1.71.915.498 1.698.772 2.315 1.405A2.46 2.46 0 0 0 0 0" style="fill:#fff" transform="translate(169.714 380.88)"/><path d="m0 0-.122 4.558a18 18 0 0 1-.103-1.845C-.229 2.184-.339 1.297-.339.401c0-.232.008-.463.026-.679.109.089.218.187.313.278" style="fill:#fff" transform="translate(175.447 355.986)"/><path d="M0 0c.437-.351.897-.761.966-1.584a6 6 0 0 0-.083-.852c.435.219.909.399 1.351.643.985.496 1.615 1.008 1.588 1.662.007.438-.154 1.151-.394 1.871A40 40 0 0 0 0 0" style="fill:#fff" transform="translate(159.146 375.394)"/><path d="M0 0c-.289-8.13-.878-12.459-.872-13.059.017-.192.013-.148.159-.346.145-.166.439-.571.422-1.107-.016-.904-.597-2.94-.581-3.486-.002-.505-.106-1.509-.104-2.477-.002-.284.01-.565.032-.813.359.219.734.494 1.051.788-.168.486-.148 1.148-.158 2.606 0 .525.002 1.157.004 1.951C.24-8.735.531-6.36.822-4.037L.531 1.172C.196.666-.033.086 0 0" style="fill:#fff" transform="translate(168.538 372.339)"/><path d="M0 0c.531.283 1.378.706 2.304 1.226 1.225.655 2.536 1.576 2.665 1.844-.014.411-.344 1.398-.663 2.24-.743-.498-1.571-1.129-2.628-1.245a1.8 1.8 0 0 0-.512-1.183l-.22-.234-.274.042c-.693-.004-1.254-.212-1.676-.407L-1 2.132A4.6 4.6 0 0 0-1.258.697C-.928.506-.455.398 0 0" style="fill:#fff" transform="translate(150.155 366.58)"/><path d="M0 0v-4.432c0-.359.016-.845.016-1.387C.005-7.092-.05-8.678-.766-9.935c.101-.255.153-.584.135-.963 0-.564-.051-1.437-.138-2.966.75.239 1.745.62 2.207 1.017.232.188.259.31.257.327l.47 21.547C.383 6.297-.058.214 0 0" style="fill:#fff" transform="translate(159.531 359.898)"/><path d="M0 0c2.742 1.825 3.082 1.965 6.153 4.3a7.1 7.1 0 0 0-.661 2.06C3.385 5.509 2.687 4.271.866 4.182q-.381-.001-.795.097c-.164-.696-.66-1.178-1.044-1.617-.417-.423-.712-.829-.773-1.026a3 3 0 0 1 .121-.191c.131-.187.326-.429.546-.662C-.729.396-.266.085 0 0" style="fill:#fff" transform="translate(139.49 359.478)"/><path d="M0 0c0-1.104.047-2.204.047-3.225q.001-.557-.023-1.086a31 31 0 0 1-.046-1.682c-.003-1.62.126-2.92.128-5.167 0-.92-.021-1.993-.082-3.287-.003-.509-.251-.846-.379-1.063-.141-.231-.2-.347-.202-.541v-.038c1.54.956 3.007 1.707 4.503 2.481-.248 1.145-.478 2.322-.482 3.076 0 1.01-.002 1.377.007 1.557.032.095-.06.048.12.393q.006.012.016.024l.017.109c.044.334.107.98.189 2.152.158 2.276.394 6.545.735 14.482C2.567 7.781 1.537 6.801.876 5.473.153 3.984-.002 1.988 0 0" style="fill:#fff" transform="translate(149.045 356.299)"/><path d="m0 0 .181.255h1.336l.179-.191q.059-.07.104-.13c.544.796 1.373 1.198 1.97 1.392.142.737.581 1.208.946 1.505-.08.202-.119.409-.116.605.007.408.143.759.286 1.026a1.9 1.9 0 0 0-.647.647C2.125 3.854.125 2.631-1.759 1.769-2.02.752-2.853.134-3.459-.216a16 16 0 0 0-.452-2.612c.44.251.885.438 1.445.459.138 0 .257.004.368.004q.148.01.303-.01C-1.479-.991-.179-.365 0 0" style="fill:#fff" transform="translate(130.444 354.267)"/><path d="M0 0v-3.843c.006-.691-.446-1.125-.603-1.268-.274-3.703-1.69-14.093-1.733-16.861 2.488 1.582 3.763 2.208 6.002 3.603-.163 1.574-.232 2.695-.232 3.676.008 3.457.824 4.86 1.329 17.743C3.257 2.08 1.659.979 0 0" style="fill:#fff" transform="translate(139.492 355.522)"/><path d="M0 0c-.714-1.121-1.513-1.764-2.07-2.335-.649-.693-1.034-1.2-1.056-2.688-.004-2.408-1.244-15.256-1.612-18.788 2.827.771 5.134 2.621 7.8 4.712-.141.452-.13 1.038-.136 2.116l.002 1.491v.041l.004.031C3.786-8.314 4.364-1.77 4.362-.959v3.272H3.55C3.383 1.607 2.829 1.11 2.266.82A4.7 4.7 0 0 0 .391.312l.097-.644z" style="fill:#fff" transform="translate(129.53 350.065)"/><path d="m0 0 .488-.332-.097.644C.322.307.25.297.184.296.124.191.062.098 0 0" style="fill:#fff" transform="translate(129.53 350.065)"/><path d="M0 0c.097-.058.188-.123.273-.207.352-.377.371-.815.374-1.165 0-.29-.024-.575-.022-.882C.61-4.088-.84-10.495-.83-12.424c.015-.28.015-.161.231-.582.149-.282.286-.676.36-1.319 2.846.987 5.588 1.99 8.172 3.048-.23.613-.334 1.129-.336 1.588-.013.949.509 1.566.872 1.925.385.4.532.548.532.863.021.526-.559 2.271-.58 3.196.019.593.319 1.457.607 2.43.292.916.575 1.939.555 2.085l.242 17.438c-.529.12-.935.347-1.214.594l-.202.18v1.342l.247.18c.905.666 1.623 1.159 2.313 1.81a2 2 0 0 0-.163.147c-.282.298-.358.71-.35 1.106-.029.534.317.963.467 1.083.14.171.084.034.113.227 0 2.266-.01 3.734-.01 4.805 0 3.778.131 2.618 1.245 13.102a1.9 1.9 0 0 0-.665-.22l-.272-.02-.89.869v1.599l.23.18c1.176.926 1.979 1.704 3.015 2.367-.556.905-.728 1.546-.985 2.259-1.703-1.075-3.815-2.077-5.554-3.229-1.981-1.304-3.347-2.725-3.33-4.425-.013-.412.144-.745.252-1.266.471-.025.935-.063 1.443-.279l.308-.134-.383 2.504 2.781-.423.515-.076v-1.787l-.163-.175c-.452-.462-1.174-.809-2.018-.826q-.066.002-.094.003h-.52l-.064.423v-1.254l-.459-.114c-2.357-.63-2.423-2.011-2.483-3.676 0-.356.013-.711.013-1.061-.074-7.196-.659-8.288-.87-13.665-.062-1.37-.91-3.463-.873-3.91q0-.063.003-.109c.072.008.165.017.274.018.229.015.665-.094.894-.441.224-.331.277-.702.282-1.21C2.602 14.207.409 4.053-.49 2.374c-.037-.035-.064-.087-.098-.142H0z" style="fill:#fff" transform="translate(109.508 301.675)"/><path d="m0 0-.171-.316h-2.308v3.179h2.314l.171-.319c.215-.395.326-.828.326-1.267A2.7 2.7 0 0 0 0 0m.132-9.535v-.241l-.168-.177c-.655-.594-1.315-.525-2.534-.827l-.442-.098-.219.395c-.445.8-.451 1.587-.454 2.314l-.002.645c-.022 1.12.138 2.438 1.469 3.559l.171.149H.089l.016-.588C.13-5.251.138-6.17.138-7.37c0-.631-.002-1.342-.006-2.165m3.449 29.522c.049-.198.047-.355.049-.552.01-1.002-.392-1.592-.656-2.086-.265-.509-.521-1.074-.55-2.531l-.005-.561-.564-.034c-.066-.002-.135-.018-.203-.027.137-.03.281-.086.431-.198.319-.26.389-.641.384-.955-.012-.915-.597-3.472-.938-5.034l-.106-.474h-3.051v3.905c.002 0-.003.009-.003.065.11 1.207 1.046 1.608 1.548 2.345l-.131-.055-.286.272c-.572.582-.556 1.297-.567 2.026-.007 1.24.426 2.886 1.763 4.047-.096.044-.19.096-.279.167-.331.282-.393.65-.426.896-.049.387-.048.734-.232 1.184-2.102-1.133-7.901-4.27-10.786-6.861-1.034-.894-1.611-1.774-1.617-2.147l.002-.007c.015-.049.046-.179.046-.312-.007-.293-.089-.577-.309-1.13l-.153-.379h-1.698l-.179.186c-.331.33-.499.685-.589.995-1.078-.509-2.545-1.335-3.838-2.108a60 60 0 0 1-2.942-1.852c-.234-.723-.907-.989-1.598-1.425-.838-.467-1.897-1.002-2.942-1.749-2.084-1.509-4.09-3.75-4.104-8.064v-3.852c-.014-.559-.66-4.085-1.317-7.787-.652-3.618-1.314-7.411-1.3-7.576-.001-.741-.223-1.593-.687-2.489.321-.364.445-.852.399-1.197l-.002-.38c-.016-.23-.037-.237-.088-.523-.052-.243-.121-.579-.208-.983-.171-.809-.401-1.882-.638-2.987-.475-2.207-.979-4.545-1.088-5.091l-.012-.006c0-.784-.293-4.56-.29-5.23-.003-.417.068-1.309.429-2.064.353-.712.864-1.299 1.902-1.507 2.095 1.498 5.099 2.763 7.746 3.753 2.391.888 4.582 1.597 5.277 1.891.004.327.019.691.198 1.075.203.482.794.827 1.423.798.765-.009 1.238-.418 1.541-.73 6.863 3.66 13.493 7.371 14.491 7.875-.465.039-.921.104-1.352.124l-.721.036.472 2.074.101.453.464.019q.067.002.16.003c1.012-.007 1.63-.29 2.137-.307l.567-.037V-29.1l-.321-.172a2 2 0 0 0-.491-.17c.135-.043.251-.093.331-.136l.554.111v-1.606h.814c2.436 1.605 6.564 2.955 9.284 4.193.356 2.916 1.374 7.532 1.437 8.316a.9.9 0 0 0-.339.238c-.192.216-.247.49-.249.751v6.328l.276.179q.611.391 1.226.614v2.266h.381c-.461.263-.803.647-1.118.945l-.185.179v4.143l.13.164c.264.298.784.755 1.396 1.08-.15.295-.343.667-.526 1.033-.333.713-.667 1.304-.699 1.92.067.757.515 2.229 1.421 3.104v4.11a.93.93 0 0 0-.327.31c-.208.337-.216.644-.222 1.045-.011.646.452 1.038.652 1.195.236.208.21.182.218.26-.014.191-.012.148-.156.348-.147.164-.44.572-.424 1.104.002.866.302 4.289.819 7.838.485 3.168 1.03 6.274 1.883 7.878-.592.518-.921 1.127-.96 1.718.004.432.071.789.09 1.065-2.95-1.834-5.821-3.643-8.756-5.287-.066-.705-.334-1.909-.762-3.108-.323-.79-.641-1.614-1.152-2.177l.054-.016c.212-.043.596-.35.646-.676" style="fill:#fff" transform="translate(95.75 312.096)"/><path d="M0 0c0-.755-.074-2.767-.291-12.644-.039-2.675-.884-7.568-.874-8.132.017-.191.013-.15.16-.348.143-.164.438-.57.422-1.105-.047-1.013-.647-1.805-.582-2.036.006-4.935-.604-6.355-.579-6.825-.036-.345.336-1.017.525-1.879q.153.047.334.095c.348 1.768.849 3.906.836 4.417L1.005 3.311a5 5 0 0 1-.61-1.303C.088 1.082-.006.095 0 0" style="fill:#fff" transform="translate(166.796 342.862)"/><path d="M0 0v.229l-.64.096.088-.572C-.341-.188-.14-.093 0 0" style="fill:#fff" transform="translate(117.033 342.935)"/><path d="M0 0c-.115-.133-.055.013-.086-.184.029-.193-.029-.052.113-.225.149-.12.497-.549.469-1.081.071-.486-.382-.969-.582-1.038-.007-4.987-1.167-11.187-1.163-15.962-.021-.493.242-2.213.633-3.139.356.158.718.305 1.135.381.285 1.047.536 2.026.8 2.837l.29 11.891.011.05c.301 1.455.88 3.454.862 3.97l.202 16.778c-.524-.31-1.035-.603-1.589-.841C1.033 11.387.734 9.136.496.985.522.461.11.074 0 0" style="fill:#fff" transform="translate(157.582 328.081)"/><path d="M0 0c-.737-2.652-.887-5.441-.887-6.668v-4.433a1.4 1.4 0 0 0-.155-.746c.166-.264.143-.53.155-.815-.004-.817-1.456-15.346-1.452-15.981-.038-.283.248-.523.636-1.077 2.473.399 3.693 2.355 3.706 4.169q.001.239-.028.469l-.006.056L3.318 5.48C1.69 4.414.626 2.288 0 0" style="fill:#fff" transform="translate(148.503 331.988)"/><path d="M0 0c-.25-4.389-.007-6.317-.551-12.578.147-.136.291-.245.372-.28 3.098.946 5.393 2.488 5.362 4.918l1.064 29.248a39 39 0 0 1-2.8-1.392c-1.112-.586-2.115-1.317-2.288-1.53L.58 1.772C.504.819-.076.246 0 0" style="fill:#fff" transform="translate(135.994 311.017)"/><path d="M0 0c.278.046.606.148 1.004.224.076 1.268.379 2.023.67 2.559.327.623.507.816.515 1.518l-.001.12q-.015.005-.032.009-.125.033-.323.091C.355 3.673-.08 2.148-.086.96-.094.5-.055.186 0 0" style="fill:#fff" transform="translate(95.98 327.228)"/><path d="M0 0c-1.282-4.563-1.735-10.009-1.733-13.27v-8.572c-.008-.726-.302-1.288-.558-1.836v-2.176q.113-.055.203-.11a58 58 0 0 1 3.431 1.328c1.718.697 3.59 1.698 3.85 2.045v5.07c.012 2.268 1.485 6.733 1.452 7.448.012.574-.568 3.188-.581 4.066.002.792.282 4.114.815 13.983q-.315.047-.611.045C3.415 8.094 1.278 4.618 0 0" style="fill:#fff" transform="translate(124.941 318.939)"/><path d="m0 0 .223-.024v-2.734h.872c.338 1.525.804 3.757.804 4.278h-.035q-.164-.002-.439-.015C.748.672.151.18.214.014h.009L.22 0z" style="fill:#fff" transform="translate(95.109 323.601)"/><path d="M0 0v-.757h.335A1.4 1.4 0 0 1 .338 0z" style="fill:#fff" transform="translate(94.482 313.747)"/><path d="M0 0c-.848-.827-.874-1.462-.893-2.498l.002-.646c0-.536.014-.95.132-1.33.63.13 1.05.225 1.265.295.003.687.004 1.29.004 1.834C.51-1.423.505-.676.493 0z" style="fill:#fff" transform="translate(94.167 307.07)"/><path d="M108.14 302.249h.158v.447h-.158z" style="fill:#fff"/><path d="M0 0v.08c-.404.077-.749.177-1.148.214l-.049-.215c.385-.045.726-.092.996-.089Q-.09-.01 0 0" style="fill:#fff" transform="translate(93.196 283.809)"/></g></g></svg>