<svg xmlns="http://www.w3.org/2000/svg" xml:space="preserve" viewBox="99 107 801 785.92"><path d="M495.565 107.141c64.777.653 122.437 12.855 176.955 38.545 38.716 18.244 73.602 42.196 104.818 71.652 46.59 43.963 80.426 96.126 101.492 156.454 12.657 36.248 19.403 73.691 20.878 112.194 2.15 56.123-7.576 110.039-28.915 161.786-29.233 70.893-76.068 127.915-138.484 172.175-45.341 32.152-95.527 53.449-149.858 64.823-21.973 4.6-44.262 6.853-66.76 7.792-48.854 2.039-96.434-4.591-142.752-19.89-54.423-17.976-102.922-46.241-145.163-85.143-65.07-59.928-105.975-133.291-121.648-220.326-12.77-70.914-5.427-140.084 20.553-207.29 21.458-55.51 54.163-103.587 97.623-143.961 65.135-60.511 142.298-95.726 230.666-105.965 14.978-1.736 30.037-3.238 40.595-2.846m-1-.078c64.778.653 122.438 12.855 176.956 38.545 38.716 18.244 73.602 42.196 104.818 71.652 46.59 43.963 80.426 96.126 101.492 156.454 12.657 36.248 19.403 73.69 20.878 112.194 2.15 56.123-7.576 110.039-28.915 161.786-29.233 70.893-76.068 127.915-138.484 172.175-45.341 32.152-95.527 53.449-149.858 64.823-21.973 4.6-44.262 6.853-66.76 7.792-48.854 2.039-96.434-4.591-142.752-19.89-54.423-17.976-102.922-46.241-145.163-85.143-65.07-59.928-105.975-133.291-121.648-220.326-12.77-70.914-5.427-140.084 20.553-207.29 21.458-55.51 54.163-103.587 97.623-143.961 65.135-60.511 142.298-95.726 230.666-105.965 14.978-1.736 30.037-3.238 40.595-2.846" style="display:inline;fill:#fff;fill-opacity:1"/><path d="M495.565 107.141c64.777.653 122.437 12.855 176.955 38.545 38.716 18.244 73.602 42.196 104.818 71.652 46.59 43.963 80.426 96.126 101.492 156.454 12.657 36.248 19.403 73.691 20.878 112.194 2.15 56.123-7.576 110.039-28.915 161.786-29.233 70.893-76.068 127.915-138.484 172.175-45.341 32.152-95.527 53.449-149.858 64.823-21.973 4.6-44.262 6.853-66.76 7.792-48.854 2.039-96.434-4.591-142.752-19.89-54.423-17.976-102.922-46.241-145.163-85.143-65.07-59.928-105.975-133.291-121.648-220.326-12.77-70.914-5.427-140.084 20.553-207.29 21.458-55.51 54.163-103.587 97.623-143.961 65.135-60.511 142.298-95.726 230.666-105.965 14.978-1.736 30.037-3.238 40.595-2.846M126.096 492.978c.08 38.396 3.649 69.457 12.098 99.713 29.28 104.851 93.094 182.218 189.078 232.54 58.63 30.739 121.656 43.915 188.056 41.195 36.526-1.497 72.079-7.603 106.521-19.504 87.4-30.201 155.33-84.752 202.716-164.33 20.936-35.159 35.332-72.992 42.901-113.232 6.406-34.059 7.958-68.352 4.864-102.998-4.068-45.555-16.686-88.504-37.148-129.181-21.489-42.718-50.727-79.469-86.756-110.944-34.861-30.455-73.957-53.676-117.399-69.457-47.995-17.435-97.443-24.974-148.631-22.561-37.644 1.774-74.152 8.551-109.461 21.202-63.471 22.741-117.473 59.603-160.926 111.338-56.581 67.365-84.835 145.286-85.913 226.219m368.47-385.915c64.777.653 122.437 12.855 176.955 38.545 38.716 18.244 73.602 42.196 104.818 71.652 46.59 43.963 80.426 96.126 101.492 156.454 12.657 36.248 19.403 73.69 20.878 112.194 2.15 56.123-7.576 110.039-28.915 161.786-29.233 70.893-76.068 127.915-138.484 172.175-45.341 32.152-95.527 53.449-149.858 64.823-21.973 4.6-44.262 6.853-66.76 7.792-48.854 2.039-96.434-4.591-142.752-19.89-54.423-17.976-102.922-46.241-145.163-85.143-65.07-59.928-105.975-133.291-121.648-220.326-12.77-70.914-5.427-140.084 20.553-207.29 21.458-55.51 54.163-103.587 97.623-143.961 65.135-60.511 142.298-95.726 230.666-105.965 14.978-1.736 30.037-3.238 40.595-2.846M125.096 492.9c.08 38.396 3.65 69.457 12.099 99.713 29.28 104.85 93.094 182.218 189.078 232.54 58.63 30.739 121.656 43.915 188.056 41.195 36.526-1.497 72.079-7.603 106.52-19.504 87.4-30.201 155.33-84.752 202.717-164.33 20.936-35.16 35.332-72.992 42.9-113.232 6.407-34.06 7.959-68.352 4.865-102.998-4.068-45.555-16.686-88.504-37.148-129.181-21.49-42.718-50.727-79.47-86.756-110.944-34.861-30.455-73.957-53.676-117.4-69.457-47.994-17.435-97.442-24.974-148.63-22.561-37.644 1.774-74.152 8.55-109.461 21.202-63.471 22.74-117.473 59.603-160.926 111.338-56.581 67.365-84.835 145.286-85.913 226.219"/><path d="M500.386 152.372c71.972-.649 138.189 19.046 198.205 58.314 65.803 43.055 112.271 101.888 139.157 176.024 15.845 43.693 21.284 88.845 18.689 134.96-2.515 44.694-14.203 87.25-33.954 127.352-18.256 37.067-42.273 70.257-72.348 98.654-42.437 40.069-91.754 68.673-147.829 85.095-40.953 11.993-82.951 16.483-125.495 13.846-46.337-2.872-90.546-14.499-132.624-34.357-47.009-22.186-87.286-53.21-120.521-92.924-45.079-53.866-71.697-115.824-78.662-186.048-6.474-65.277 4.699-127.317 33.999-185.872 30.425-60.804 75.616-108.384 133.491-143.632 47.534-28.95 99.295-45.817 154.939-50.215 5.585-.441 11.172-.95 16.768-1.155 5.387-.197 10.789-.042 16.185-.042m-.546 609.195c22.026.483 43.514-2.199 64.805-7.514 56.255-14.043 103.554-42.822 140.533-87.295 50.913-61.231 69.814-132.081 57.257-210.48-9.997-62.418-40.217-114.255-88.416-155.286-49.426-42.075-107.026-62.934-171.666-63.853-37.726-.536-74.263 6.546-108.954 21.811-54.927 24.169-97.518 62.26-126.925 114.56-26.935 47.904-37.008 99.624-31.208 154.14 5.863 55.099 27.489 103.792 64.636 144.76 53.388 58.879 120.329 88.625 199.938 89.157m-236.957-83c-.784 1.154-1.489 2.221-2.223 3.267-5.819 8.295-11.598 16.62-17.499 24.857-1.499 2.092-2.535 3.878-.678 6.346 1.823 2.424 3.866 3.116 6.735 2.084 13.193-4.744 26.442-9.337 39.599-14.179 2.289-.842 6.165-1.317 3.805-5.644-1.88-3.445-4.138-3.346-7.475-1.672-9.441 4.736-19.074 9.091-28.669 13.515-1.626.75-3.595 2.72-5.171.637-1.226-1.621.715-3.123 1.719-4.455 6.357-8.439 12.624-16.951 19.179-25.234 2.356-2.977 3.035-5.483.579-8.622-2.525-3.226-5.174-1.984-8.052-.671a2358 2358 0 0 1-27.748 12.433c-1.639.722-3.652 2.815-5.161.722-1.388-1.925.971-3.47 2.088-4.928a3093 3093 0 0 1 19.801-25.581c2.7-3.448 1.035-6.346-1.471-8.487-3.39-2.896-4.536 1.172-5.708 2.872-8.071 11.719-15.883 23.616-23.804 35.439-1.308 1.952-1.935 3.804-.222 5.883 1.669 2.026 3.594 3.084 6.221 2.099a135 135 0 0 0 5.411-2.15c7.935-3.376 15.86-6.773 23.789-10.165 2.069-.883 4.095-1.657 4.955 1.634m132.464-488.216c.688 6.431 1.419 12.858 2.053 19.294.633 6.432 1.115 12.879 1.781 19.307.189 1.827.072 4.298 2.944 4.113 2.621-.169 3.697-2.017 3.582-4.493-.079-1.716-.341-3.429-.614-5.129-1.534-9.584-3.128-19.158-4.621-28.748-.276-1.772-1.407-4.248 1.356-4.86 2.066-.457 2.726 1.788 3.374 3.327 4.63 10.998 11.724 20.607 17.386 31.019 1.113 2.047 2.426 3.622 5.014 3.208 2.983-.478 3.529-2.792 3.81-5.258 1.341-11.778 2.671-23.556 4.026-35.332.186-1.616-.463-4.049 1.779-4.284 2.208-.231 2.23 2.248 2.65 3.815 2.624 9.792 5.148 19.612 7.767 29.405.854 3.193.844 7.602 6.118 6.23 5.131-1.334 2.696-5.127 1.911-7.925-3.32-11.839-7.024-23.572-10.26-35.433-1.255-4.598-3.613-5.625-8.053-4.79-4.876.917-6.115 3.993-6.486 8.235-.883 10.092-1.887 20.172-2.86 30.256-.12 1.245.153 2.924-1.286 3.375-2.045.641-2.374-1.438-3.016-2.642-4.672-8.753-9.516-17.428-13.781-26.379-2.316-4.862-5.225-5.888-10.306-4.76-5.549 1.233-4.361 4.861-4.268 8.449m151.897 639.596c14.778.098 24.976-10.817 25.14-26.908.149-14.666-10.22-26.108-23.747-26.203-14.208-.1-24.727 10.78-24.915 25.767-.205 16.405 9.123 27.248 23.522 27.344M690.67 719.191c.049 14.934 12.46 28.405 26.191 28.429 12.483.022 23.639-11.376 23.822-24.338.206-14.658-13.063-29.016-26.763-28.961-13.458.055-23.297 10.58-23.25 24.87m74.812-49.338.002.458c6.254 0 12.508.009 18.762-.004 2.668-.005 4.492-1.268 5.445-3.773.987-2.596-.523-4.078-2.427-5.33-11.168-7.341-22.349-14.664-33.525-21.993-2.108-1.383-4.305-2.583-6.076.32-1.84 3.016.697 4.325 2.633 5.562 6.54 4.18 13.224 8.136 19.715 12.39 2.234 1.464 6.719 2.203 5.978 4.997-.954 3.596-5.3 1.754-7.978 1.497-10.549-1.011-21.107-.75-31.665-.907-4.192-.062-6.419 2.433-7.678 5.785-1.326 3.532 2.236 4.228 4.17 5.521 10.392 6.948 20.865 13.776 31.377 20.543 2.14 1.378 4.653 4.447 6.989.476 2.132-3.624-1.185-4.883-3.512-6.308-8.088-4.953-16.215-9.841-24.312-14.777-1.252-.763-3.014-1.463-2.443-3.31.601-1.947 2.417-1.175 3.878-1.166 6.888.042 13.778.019 20.667.019M610.42 760.255c-7.563.766-14.882 5.096-22.53 8.449-1.878.823-1.757 2.799-1.063 4.541 5.254 13.189 10.523 26.371 15.789 39.555.92 2.302 2.254 3.521 4.967 2.44 2.592-1.033 4.044-2.393 2.766-5.34-1.198-2.763-2.411-5.524-3.496-8.332-2.933-7.587.017-11.432 8.25-10.876 2.993.202 5.256 1.726 7.254 3.793 2.843 2.94 5.638 5.927 8.541 8.806 2.512 2.491 4.833.466 7.029-.634 1.96-.981 1.28-2.518.123-3.698-4.504-4.596-8.395-10.189-14.631-12.425-5.431-1.947-5.149-4.041-2.529-8.406 5.261-8.766.161-17.984-10.47-17.873m-5.415-566.557c-.189-4.276-2.029-7.126-5.051-9.106-7.034-4.609-15.281-5.574-23.221-7.418-2.081-.483-3.191.685-3.707 2.629-3.697 13.938-7.437 27.865-11.099 41.812-.683 2.599.658 4.001 3.165 4.647 2.903.747 3.865-.856 4.421-3.24a281 281 0 0 1 2.191-8.771c1.986-7.427 4.973-8.566 11.555-4.587 2.814 1.701 4.262 4.268 4.832 7.306.791 4.219 1.304 8.489 1.941 12.736.519 3.462 3.176 4.884 6.011 4.67 3.962-.3 1.932-3.508 1.729-5.52-.582-5.779-.985-11.693-4.316-16.711-2.463-3.709-1.924-5.686 2.522-6.89 6.015-1.629 8.257-6.367 9.027-11.557M510.2 167.267c-3.006-.291-5.68.183-7.068 3.778-5.426 14.056-11.024 28.045-16.492 42.085-.682 1.752-1.621 3.997 1.139 4.828 2.327.701 4.911.742 6.107-2.008.937-2.154 1.565-4.472 2.083-6.773 1.011-4.49 3.585-6.244 8.274-6.262 12.98-.049 12.98-.216 18.242 11.975.17.395.262.83.473 1.2 1.597 2.797 4.318 2.806 6.823 2.189 3.334-.821 1.797-3.425 1.209-5.285-4.346-13.752-8.882-27.446-13.173-41.215-1.223-3.92-3.835-4.835-7.617-4.512m168.703 52.254c-3.194-3.686-6.419-3.439-10.076-1.561-4.98 2.557-10.048 4.952-15.162 7.23-1.71.762-3.823 1.592-5.466-.072-1.767-1.792-.359-3.656.496-5.319 1.674-3.256 3.496-6.436 5.263-9.644 1.152-2.093 1.667-4.037-1.024-5.422-2.478-1.276-4.615-1.14-6.012 1.525-1.599 3.051-2.994 6.208-4.609 9.249a3131 3131 0 0 1-14.674 27.333c-1.466 2.695-1.597 4.84 1.529 6.403 2.803 1.401 4.491.251 5.705-2.24 1.133-2.325 2.068-4.772 3.433-6.95 2.142-3.417 2.073-10.269 7.109-9.318 5.369 1.014 4.379 7.723 4.987 12.213.662 4.887.364 9.897.635 14.846.214 3.898 3.097 6.283 6.311 6.101 3.693-.209 2.24-4.114 2.046-6.294-.668-7.498-1.455-15.021-2.878-22.403-.875-4.537.086-6.708 4.648-8.029 6.113-1.769 12.261-3.736 17.739-7.648M488.2 832.642c3.256-.61 8.611 1.479 10.089-3.664 1.46-5.08 1.384-10.626 1.759-15.983.187-2.672-1.718-3.769-4.121-3.999-3.277-.314-3.186 2.1-3.362 4.276-.156 1.93-.253 3.868-.505 5.785-1.124 8.551-4.517 10.396-12.603 6.902-9.138-3.948-13.648-13.909-11.286-24.927 2.047-9.549 8.777-14.481 19.342-14.066 2.14.084 4.279.42 6.398.762 2.249.362 3.875-.265 4.413-2.604.563-2.448-.832-3.603-3.02-4.038-7.996-1.589-15.866-1.691-23.165 2.614-10.413 6.141-15.517 18.906-12.429 30.749 3.037 11.635 13.035 18.146 28.49 18.193m-133.293-89.125c-3.194-.274-6.011.639-8.365 2.763-4.794 4.326-6.403 9.341-3.963 15.68 2.218 5.762 6.712 10.005 9.458 15.367 1.56 3.045 2.141 6.255-.15 9.14-2.427 3.055-5.801 2.436-8.93 1.429-4.151-1.336-7.698-3.826-11.051-6.569-1.695-1.386-3.366-3.138-5.462-.684-2.407 2.817.005 4.352 1.858 5.692 5.259 3.802 10.813 7.115 17.202 8.684 6.568 1.613 13.496-1.971 15.505-8.288 1.72-5.407.972-10.689-2.245-15.449-2.408-3.563-5.178-6.896-7.404-10.564-1.767-2.912-2.198-6.223.546-8.936 2.465-2.436 5.518-2.402 8.383-.846 3.205 1.741 6.264 3.762 9.309 5.779 1.807 1.197 3.207.906 4.471-.71 1.185-1.514.819-2.965-.622-3.9-5.765-3.745-11.369-7.89-18.54-8.588m-41.585-.703c.071-1.632-.751-2.628-1.757-3.476-1.648-1.39-3.387-2.675-5.016-4.086-5.424-4.7-5.192-6.205.048-12.691 3.8-4.704 6.649-3.095 9.982.325 2.249 2.307 4.833 4.296 7.328 6.353 1.539 1.269 3.059 3.883 5.29 1.262 1.965-2.308-.11-4.04-1.667-5.447-4.959-4.481-10.019-8.849-15.06-13.239-2.61-2.273-4.995-2.051-7.23.647-8.803 10.625-17.636 21.225-26.468 31.826-1.876 2.251-1.695 4.279.536 6.16 5.933 5.004 11.837 10.042 17.805 15.004 1.59 1.322 3.455 2.146 5.072.056 1.39-1.797.285-3.311-1.062-4.491-2.594-2.272-5.301-4.415-7.955-6.618-7.067-5.865-7.098-6.192-1.283-13.183.828-.995 1.642-2.003 2.479-2.99 2.262-2.668 4.579-2.782 7.189-.368 2.37 2.191 4.839 4.295 7.419 6.231 1.927 1.443 3.629 1.179 4.35-1.275M272.46 326.033c-.048-11.221-7.854-16.919-17.446-14.826-5.191 1.133-9.293 4.435-13.841 6.846-3.485 1.847-7.104 2.793-10.051-.496-2.902-3.239-1.745-6.926.351-10.156 1.275-1.964 3.123-3.546 4.585-5.402s4.921-3.555 2.085-6.333c-3.168-3.103-5.002.595-6.682 2.424-2.164 2.356-4.05 5.048-5.647 7.83-3.931 6.849-3.591 13.577.617 17.998 4.533 4.762 10.429 5.459 17.819 1.911 3.682-1.767 7.156-3.975 10.872-5.66 3.658-1.659 7.179-1.166 10.032 1.928 2.8 3.037 1.135 5.973-.237 8.946-2.039 4.419-5.641 7.562-8.818 11.061-1.324 1.459-1.564 3.078-.108 4.608 1.337 1.405 2.914 1.039 4.001-.14 5.994-6.498 12.114-12.967 12.468-20.539m470.011-25.528c-.273-4.318.363-7.211 3.604-8.69 3.006-1.372 5.424.029 7.598 2.037 2.87 2.65 5.352 5.599 7.28 9.028.967 1.719 2.497 2.467 4.317 1.153 1.614-1.165 1.03-2.681.279-4.047-1.886-3.426-4.338-6.424-7.094-9.191-6.031-6.057-11.888-7.726-17.275-4.88-6.019 3.18-8.229 8.878-6.645 17.261.88 4.656 2.105 9.268 2.643 13.961.391 3.418-1.175 6.336-4.481 7.928-3.191 1.536-5.309-.448-7.401-2.397-3.647-3.396-7.058-6.975-9.221-11.564-.992-2.105-2.521-2.941-4.674-1.521-1.946 1.284-1.433 2.914-.459 4.503 2.941 4.795 6.107 9.456 10.397 13.146 4.762 4.095 9.925 7.205 16.428 3.68 6.432-3.487 9.17-9.693 7.643-17.612-.895-4.649-2.112-9.237-2.939-12.795M404.428 775.031c-.482 1.794-1.088 4.528-1.953 7.178-2.937 8.994-5.982 17.953-8.948 26.938-.832 2.521-1.664 4.984 1.994 6.278 3.885 1.374 4.935-.929 5.838-3.874 2.46-8.019 5.003-16.011 7.477-24.026 1.204-3.9 1.656-8.373 4.425-11.315 3.652-3.88 7.504.627 11.319 1.009 1.589.159 3.12.37 3.799-1.43.65-1.725-.246-3.087-1.795-3.614a2238 2238 0 0 0-30.613-10.159c-1.56-.505-3.082.088-3.682 1.777-.749 2.11.467 3.234 2.333 3.818 2.052.642 4.141 1.169 6.18 1.845 2.2.728 3.826 1.995 3.626 5.575m276.365 2.34c-.738-1.238-1.56-2.746-2.502-4.174-4.744-7.193-9.533-14.358-14.282-21.548-6.373-9.649-6.382-9.68 2.775-16.57 1.658-1.248 3.251-2.35 1.859-4.682-1.503-2.52-3.258-1.286-4.914-.205-8.115 5.3-16.258 10.559-24.281 15.994-1.78 1.206-4.858 2.525-2.9 5.451 1.989 2.973 4.198.518 6.064-.671 8.031-5.121 8.037-5.17 13.485 2.53 1.615 2.283 3.056 4.691 4.549 7.058q6.204 9.838 12.386 19.691c1.007 1.604 2.211 2.788 4.199 1.593 1.615-.971 3.59-1.719 3.562-4.467M279.272 256.662c2.9.041 4.183 2.203 5.629 4.017a3124 3124 0 0 1 19.612 24.829c1.927 2.468 3.713 5.342 7.191 2.386 3.623-3.079.46-5.22-1.358-7.495-6.716-8.405-13.327-16.897-20.163-25.203-3.053-3.709-2.406-6.576 1.117-9.292 1.193-.921 2.46-1.758 3.579-2.76 1.403-1.255 3.43-2.516 1.452-4.727-1.551-1.733-3.142-.744-4.535.409-7.789 6.449-15.598 12.875-23.308 19.419-1.649 1.399-3.332 3.461-1.059 5.457 2.08 1.827 3.415-.585 4.826-1.712 2.317-1.854 3.939-4.632 7.017-5.328m511.649 257.259c1.077 0 2.153.008 3.23-.001 4.872-.043 8.958-1.513 10.932-6.41 1.876-4.654.497-8.347-3.496-11.285-3.24-2.384-1.411-4.652.118-7.198 4.347-7.233 1.995-12.946-6.047-15.361-3.822-1.147-7.599-.903-11.488-.221-6.045 1.059-9.642 5.091-7.608 10.363 2.699 6.996 2.182 12.794.065 19.797-1.962 6.489 4.11 10.279 14.294 10.316m41.377 1.357c8.969.078 11.367-1.906 13.581-10.335 1.799-6.847 1.439-13.597.192-20.44-1.554-8.524-4.991-11.414-14.212-11.641-7.739-.19-12.713 3.586-14.354 11.043-1.31 5.951-1.332 12.023-.318 17.955 1.647 9.644 6.095 13.339 15.111 13.418m-624.405-.016c1.077 0 2.153.016 3.23-.003 4.31-.076 8.439-.884 9.969-5.53 1.468-4.457 1.739-8.931-2.943-12.113-2.969-2.018-1.992-4.182-.169-6.535 2.724-3.516 3.48-7.48 1.056-11.423-3.163-5.145-14.7-6.98-20.799-3.509-4.633 2.637-5.393 8.807-1.688 15.512 1.094 1.979 1.947 3.547.741 5.918-6.171 12.129-2.773 17.717 10.603 17.683m-27.996-.994c-8.752-.53-8.734-6.296-8.484-12.492.234-5.808.057-11.633.049-17.45-.014-10.792-2.71-12.578-13.659-9.067 8.434 3.05 8.435 3.05 8.44 13.167.002 4.525-.203 9.061.05 13.571.326 5.8.204 11.115-7.661 12.353 7.264 1.294 14.022 1.031 21.265-.082m520.857-254.966c7.454.086 14.341-1.425 19.467-7.38 1.563-1.815 2.931-3.857 1.495-6.383-1.02-1.795-2.79-2.714-4.747-2.957-2.764-.343-4.902 1.373-5.372 3.674-1.298 6.353-5.39 9.947-10.843 13.046"/><path d="M498.924 746.868c-61.042.257-115.508-19.057-162.08-58.271-51.625-43.468-81.792-99.145-87.79-166.785-6.119-69.008 13.801-130.136 58.872-182.692 43.294-50.486 98.837-79.38 164.516-86.274 75.51-7.925 142.637 13.709 199.162 65.125 44.102 40.116 70.951 89.976 78.386 149.179 8.956 71.305-9.522 135.374-55.924 190.528-44.509 52.903-102.071 81.757-170.556 89.072-8.108.866-16.387.118-24.586.118m-.273-72.256h47.26c20.717.001 41.434.033 62.15-.032 2.65-.008 6.414.85 6.861-3.014.71-6.15 1.471-12.479-3.729-17.615-7.976-7.878-15.831-15.86-23.152-24.393-22.317-26.011-39.51-54.904-50.266-87.517-1.637-4.965-.267-6.641 4.763-5.576 32.622 6.912 63.251 18.553 90.621 38.057 9.696 6.909 18.612 14.718 27.332 22.743 4.898 4.508 10.613 4.054 15.81 2.668 4.897-1.306 2.76-6.65 2.766-10.199.104-60.424.048-120.847.019-181.271-.001-1.941-.025-3.885-.149-5.821-.123-1.903-1.025-3.547-3.036-3.593-6.261-.146-12.288-1.663-17.837 4.221-31.192 33.077-69.378 51.932-115.052 54.927-10.28.674-11.443-.712-7.799-10.048 15.369-39.369 34.967-76.008 67.13-104.625 4.963-4.416 3.632-10.643 2.328-15.824-1.147-4.557-6.286-2.628-9.667-2.616-71.414.243-142.829.612-214.243.969-8.09.04-8.704.809-8.473 8.993.084 2.989.951 5.245 3.292 7.317 5.003 4.428 9.829 9.077 14.499 13.858 24.936 25.527 44.332 54.485 54.56 89.024 4.105 13.862 3.913 13.967-10.217 11.877-45.813-6.779-87.154-22.631-118.741-58.348-2.662-3.01-6.191-3.143-9.554-2.128-3.583 1.082-2.636 4.574-2.636 7.22.004 64.955.127 129.909.028 194.864-.009 5.951 2.433 7.546 7.797 7.094 3.099-.261 5.137-1.881 7.182-3.872 34.511-33.588 77.108-51.407 122.93-62.851 6.173-1.542 7.868.112 6.448 6.091-7.468 31.446-20.257 60.522-39.866 86.314-6.768 8.903-14.483 17.102-21.996 25.416-4.176 4.621-4.461 10.119-2.67 15.132 1.637 4.581 6.831 2.466 10.427 2.481 34.961.145 69.92.087 104.88.077m65.282 129.081c.03 15.094-9.281 23.176-20.582 18.804-5.952-2.302-9.038-7.118-10.456-13.039a30.9 30.9 0 0 1-.481-12.168c1.16-7.267 5.53-12.649 11.596-13.905 6.474-1.34 12.943 1.859 16.756 8.329 2.361 4.007 3.302 8.375 3.167 11.979m133.164-87.244c.096-8.307 5.99-14.283 14.195-14.393 10.81-.145 22.7 12.362 22.342 23.502-.262 8.155-6.294 13.814-14.742 13.83-11.106.022-21.929-11.37-21.795-22.939m-89.671 50.296c5.213-.031 9.357 4.235 9.289 9.563-.065 5.2-6.52 11.556-12.019 11.836-2.988.152-8.988-9.456-9.004-14.418-.01-3.478 5.818-6.946 11.734-6.981M585.653 204.52c-3.281-1.121-9.394.905-9.532-6.01-.169-8.432 3.211-14.576 7.363-14.73 6.978-.259 13.706 5.278 13.533 11.137-.173 5.878-4.309 9.588-11.364 9.603m-76.631-6.43c-8.908-.115-9.453-.88-6.788-9.035a554 554 0 0 1 4.117-12.171c.488-1.384.979-3.011 2.934-2.86 1.502.116 2.131 1.358 2.502 2.6 1.654 5.539 3.821 11.007 4.708 16.672 1.067 6.813-4.823 3.928-7.473 4.794m290.524 305.116c-.085 5.259-3.557 8.344-9.295 8.261-5.394-.078-8.954-3.701-8.615-8.936.377-5.831 4.483-7.371 9.348-7.505 5.391-.149 8.644 3.136 8.562 8.18m-9.998-11.215c-4.638.069-8.268-3.451-7.961-8.115.317-4.804 2.72-8.129 7.845-8.517 4.285-.325 8.476 4.132 8.484 8.687.008 4.383-3.67 7.876-8.368 7.945m51.515 2.877c-.133 3.867.361 7.786-.927 11.554-1.188 3.475-3.054 6.157-7.199 6.386-4.244.234-7.401-1.707-8.544-5.525-2.583-8.621-2.447-17.463-.227-26.147.859-3.361 3.606-5.522 7.21-5.508 3.957.015 7.019 1.818 8.491 5.783 1.627 4.388 1.029 8.951 1.196 13.457m-632.812 1.996c5.538.131 8.652 3.16 8.307 8.309-.376 5.601-3.886 7.731-9.082 7.681-5.163-.049-8.863-3.587-8.434-8.352.491-5.47 3.992-7.679 9.209-7.638m6.752-12.389c-.487 5.361-2.566 8.712-7.918 8.904-4.66.167-8.329-3.395-8.051-8.07.296-5 3.13-8.089 8.181-8.158 4.947-.068 7.011 3.37 7.788 7.324"/></svg>