<svg xmlns="http://www.w3.org/2000/svg" viewBox="18.81 195.95 723.02 723.02"><defs><linearGradient id="a" x1="0%" x2="0%" y1="0%" y2="100%"><stop offset="0%" stop-color="#f3f9ff"/><stop offset="100%" stop-color="#2483e2"/></linearGradient></defs><path d="M284.243 157.342c146.78 0 266.568 119.79 266.568 266.57S431.023 690.48 284.243 690.48 17.674 570.691 17.674 423.912c0-146.78 119.79-266.57 266.57-266.57" style="fill:#fff;fill-opacity:1;fill-rule:evenodd;stroke:none" transform="matrix(1.33333 0 0 -1.33333 1.333 1122.667)"/><path d="M13.11 423.912c0-149.503 121.63-271.133 271.133-271.133s271.131 121.63 271.131 271.133-121.628 271.131-271.13 271.131S13.11 573.415 13.11 423.912m9.126 0c0 144.47 117.536 262.005 262.006 262.005S546.25 568.382 546.25 423.912 428.714 161.905 284.243 161.905 22.237 279.441 22.237 423.912" style="fill:#1e0e00;fill-opacity:1;fill-rule:evenodd;stroke:none" transform="matrix(1.33333 0 0 -1.33333 1.333 1122.667)"/><path d="M284.243 243.368c99.774 0 181.15 81.173 181.15 180.544 0 99.37-81.376 180.543-181.15 180.543s-181.15-81.174-181.15-180.543c0-99.37 81.376-180.544 181.15-180.544" style="fill:#177be0;fill-opacity:1;fill-rule:evenodd;stroke:none" transform="matrix(1.33333 0 0 -1.33333 1.333 1122.667)"/><path d="M98.53 423.912c0-102.069 83.31-185.107 185.713-185.107s185.712 83.038 185.712 185.107c0 102.067-83.31 185.106-185.712 185.106-102.403 0-185.713-83.039-185.713-185.106m9.126 0c0 97.035 79.216 175.98 176.587 175.98s176.586-78.945 176.586-175.98c0-97.036-79.216-175.98-176.586-175.98s-176.587 78.944-176.587 175.98" style="fill:#1e0e00;fill-opacity:1;fill-rule:evenodd;stroke:none" transform="matrix(1.33333 0 0 -1.33333 1.333 1122.667)"/><path d="m104.51 334.633-36.245-25.435 11.729-16.712 24.394 7.043c1.434.429 3.115 1.08 4.962 1.892-1.323-1.483-2.459-2.85-3.266-4l-14.918-20.858 11.637-16.583 37.223 26.121-7.924 11.293-20.791-14.59c.764.995 1.596 1.999 2.261 2.982l13.126 19.307-7.693 10.963-22.759-5.665c-1.114-.271-2.427-.659-3.83-1.099l20.996 14.735-7.923 11.292zM84.081 401.7l-38.287-27.558 4.698-18.757 48.526-6.568-3.522 14.055-11.531 1.613-4.3 17.165c1.138.82 9.428 6.777 9.428 6.777l-3.584 14.301zm-13.845-26.187 2.56-10.215-14.25 1.89zm-26.581 90.718-1.026-12.56 20.377-1.663c1.77-.146 3.848-.167 5.992-.157-2.683-.918-4.654-1.711-5.948-2.412l-21.688-11.29-1.511-18.5 45.322-3.7 1.123 13.75-22.992 1.877-5.84.228c2.259.943 4.23 1.86 5.83 2.727l24.475 13.195 1.305 15.994-45.322 3.7zM68.51 530.21c-5.467-3.303-9.513-8.237-12.027-14.667-2.933-7.501-3.388-14.092-1.353-19.591 2.055-5.55 6.554-9.715 13.374-12.382 7-2.737 13.413-2.84 19.06-.302 5.64 2.532 9.91 7.42 12.69 14.527 1.308 3.345 2.017 6.675 2.106 9.896.086 3.204-.348 6.497-1.292 9.784l-.163.568-12.13 4.743 1.41-2.787c2.78-5.507 3.123-10.76 1.05-16.062-1.506-3.848-3.734-6.436-6.624-7.69-2.892-1.256-6.316-1.128-10.175.38-3.595 1.408-5.985 3.507-7.306 6.42-1.316 2.903-1.254 6.106.189 9.793 1.013 2.594 2.594 4.955 4.699 7.022 2.095 2.055 4.487 3.549 7.106 4.436l3.1 1.05-13.21 5.167zm38.236 61.17-8.098-10.334 12.64-9.905-10.76-13.73-12.64 9.905-8.833-11.273 35.793-28.048 8.833 11.273L108.9 550.85l10.76 13.73c1.648-1.29 14.78-11.581 14.78-11.581l8.834 11.272-35.792 28.048zm49.972 40.302-30.533-22.94 27.314-36.355 31.488 23.657-6.39 8.503-20.036-15.053c-.916 1.218-3.08 4.097-3.995 5.317l20.037 15.053-6.389 8.504-20.036-15.055-3.89 5.178 20.037 15.054-6.653 8.854zm52.297 24.793c-2.635-.243-5.59-.919-8.784-2.009-5.556-1.898-9.76-4.748-12.495-8.474-2.836-3.859-3.553-7.922-2.135-12.075 1.599-4.681 5.235-7.372 10.809-7.997.846-.088 3.15-.109 13.458.702 3.965.323 6.403-.247 6.866-1.604.227-.662.389-1.7-.804-3.061-1.044-1.193-2.753-2.202-5.081-2.997-2.811-.958-5.673-1.38-8.505-1.252-2.449.095-5.055.644-7.757 1.633l-2.348.86 4.052-11.869.69-.126c6.032-1.096 12.074-.633 17.957 1.376 5.395 1.843 9.552 4.688 12.36 8.46 2.91 3.907 3.707 7.874 2.37 11.79-1.377 4.037-4.092 6.646-8.066 7.753-2.983.818-7.179.874-12.822.175-5.202-.678-7.24-.686-8.037-.575-.829.117-1.303.525-1.59 1.364-.215.628-.363 1.617.827 2.923 1.06 1.162 2.834 2.174 5.273 3.006 2.747.938 5.37 1.356 7.791 1.242 2.433-.115 4.947-.661 7.47-1.622l2.379-.907-4.346 12.726-.704.117c-3.22.535-6.192.688-8.828.44m73.495 12.376-44.99-4.805 1.177-11.011 15.968 1.704 3.651-34.204 14.242 1.521s-3.415 31.991-3.653 34.205c2.034.215 15.968 1.704 15.968 1.704l-1.176 11.012zm21.367-2.458-7.428-43.651 38.826-6.607 1.785 10.485-24.707 4.205c.255 1.503.858 5.052 1.115 6.555l24.707-4.204 1.784 10.486-24.707 4.204c.254 1.489.834 4.895 1.086 6.384l24.708-4.205 1.858 10.918-38.826 6.607zm62.943-14.577-16.905-40.924 13.237-5.468 6.132 14.844 7.164-20.336 16.636-6.872s-8.546 20.86-10.15 24.77c3.952-1.256 7.565-1.578 10.698-.76 3.929 1.028 6.762 3.584 8.42 7.597 1.733 4.194 1.249 8.067-1.437 11.514-2.252 2.9-6.103 5.49-11.445 7.696l-21.894 9.043zm9.632-14.194 5.479-2.263c3.99-1.649 5.507-2.835 6.077-3.54.283-.35.591-.87.545-1.713-.023-.426-.137-.935-.388-1.545-.438-1.061-1.09-1.759-1.991-2.133-1.687-.7-4.295-.332-7.751 1.095l-5.247 2.168zm58.215-47.003c-5.821-4.752-9.06-10.288-9.624-16.455-.564-6.156 1.597-12.275 6.423-18.186 2.27-2.783 4.822-5.035 7.585-6.696 2.75-1.65 5.831-2.889 9.158-3.68l.574-.137 10.089 8.235-3.12.143c-6.162.283-10.907 2.562-14.506 6.973-2.614 3.201-3.773 6.414-3.447 9.546.328 3.139 2.12 6.057 5.33 8.678 2.991 2.439 5.994 3.49 9.18 3.211 3.174-.28 5.935-1.907 8.438-4.974 1.76-2.158 3.043-4.694 3.809-7.542.76-2.836.887-5.651.374-8.368l-.609-3.217 10.988 8.97-.016.589c-.193 6.382-2.505 12.33-6.87 17.68-5.092 6.238-10.611 9.873-16.402 10.799-5.842.936-11.68-.937-17.354-5.569m54.486-38.118-38.227-22.343 7.227-12.365 39.258 22.946-7.226 12.365zm15.877-27.069-9.289-3.368 5.474-15.096c-2.092-.757-32.339-11.724-32.339-11.724l4.881-13.464 32.339 11.724 5.472-15.097 10.412 3.773-15.826 43.66zm18.742-59.851-25.753-20.318-16.35-1.24 1.083-14.28 16.543 1.254 30.266-17.145-1.264 16.662-13.06 6.526c-1.638.83-3.481 1.475-5.412 2.032 1.758.831 3.476 1.762 5.097 2.887l11.854 8.604-1.244 16.408zm-48.101-90.731-3.913-12.532 15.914-4.97-7.321-23.442 10.153-3.17 7.321 23.442c1.49-.467 5.276-1.65 6.767-2.114l-7.32-23.442 10.57-3.301 11.59 37.112-43.404 13.556zm-22.717-66.803c-6.139-.747-11.664-4.15-16.425-10.114-2.241-2.807-3.904-5.777-4.944-8.828-1.034-3.034-1.594-6.307-1.666-9.728l-.014-.59 10.18-8.124-.519 3.08c-1.025 6.085.204 11.205 3.755 15.65 2.578 3.23 5.474 5.041 8.606 5.383 3.135.342 6.367-.795 9.606-3.38 3.018-2.409 4.676-5.122 5.075-8.295.395-3.163-.612-6.204-3.082-9.299-1.737-2.175-3.947-3.963-6.569-5.313-2.61-1.342-5.336-2.06-8.102-2.132l-3.271-.084 11.085-8.848.57.141c6.2 1.535 11.528 5.048 15.834 10.443 5.025 6.297 7.414 12.457 7.098 18.313-.318 5.908-3.381 11.22-9.104 15.788-5.874 4.689-11.968 6.686-18.113 5.937m-30.289-41.493a7.254 7.254 0 0 0-7.254-7.253 7.254 7.254 0 1 0 7.254 7.253" style="fill:#1e0e00;fill-opacity:1;fill-rule:nonzero;stroke:none" transform="matrix(1.33333 0 0 -1.33333 1.333 1122.667)"/><path d="M293.262 198.693c0-5.297-4.295-9.593-9.593-9.593-5.3 0-9.594 4.296-9.594 9.593a9.594 9.594 0 1 0 19.187 0" style="fill:#000;fill-opacity:1;fill-rule:nonzero;stroke:none" transform="matrix(1.33333 0 0 -1.33333 1.333 1122.667)"/><path d="M472.038 327.394a7.254 7.254 0 1 0-14.507 0 7.255 7.255 0 1 0 14.507 0" style="fill:#1e0e00;fill-opacity:1;fill-rule:nonzero;stroke:none" transform="matrix(1.33333 0 0 -1.33333 1.333 1122.667)"/><path d="M284.253 273.343s-60.84 29.48-92.196 81.897c-26.109 43.646-27.144 80.964-27.144 114.66v62.712s29.952-2.809 61.308 4.68c29.947 7.151 58.053 27.122 58.053 27.122s28.108-19.963 58.056-27.115c31.356-7.488 61.308-4.68 61.308-4.68v-62.712c0-33.696-1.035-71.014-27.145-114.66-31.355-52.416-92.24-81.904-92.24-81.904" style="fill:#fff;fill-opacity:1;fill-rule:nonzero;stroke:none" transform="matrix(1.33333 0 0 -1.33333 1.333 1122.667)"/><path d="M400.083 417.718s4.212 23.166 4.212 57.564-.657 57.337-.657 57.337-26.721-3.284-51.29 3.035c-24.57 6.318-68.074 28.76-68.074 28.76s-40.035-24.548-61.797-29.462-57.564-2.34-57.564-2.34-2.106-51.715 0-74.88c2.106-23.167 2.106-37.908 2.106-37.908z" style="fill:url(#a);fill-opacity:1;fill-rule:evenodd;stroke:none" transform="matrix(1.33333 0 0 -1.33333 1.333 1122.667)"/><path d="M281.837 567.848c-.275-.195-27.825-19.59-56.594-26.46-30.266-7.227-59.644-4.61-59.938-4.582l-4.602.428-.002-67.334c0-29.731 0-70.449 27.74-116.822 31.639-52.888 91.445-82.3 93.975-83.525l1.837-.89 1.836.89c2.532 1.225 62.381 30.644 94.02 83.532 27.74 46.374 27.74 87.091 27.74 116.822v67.335l-4.603-.429c-.293-.027-29.672-2.646-59.939 4.583-28.768 6.87-56.319 26.258-56.594 26.453l-2.437 1.728zm113.445-153.17c-3.586-18.211-10.216-36.896-22.402-57.267-27.324-45.677-78.366-73.977-88.626-79.338-10.254 5.36-61.258 33.655-88.58 79.33-12.186 20.37-18.816 39.053-22.402 57.262zm-223.468 8.419c-2.324 15.555-2.688 30.9-2.688 46.805v58.212c9.695-.488 33.289-.837 58.074 5.083 25.697 6.136 49.58 21.121 57.077 26.122 7.497-4.998 31.379-19.978 57.075-26.115 24.785-5.918 48.379-5.57 58.074-5.082v-58.213c0-15.9-.363-31.237-2.686-46.786z" style="fill:#f6b439;fill-opacity:1;fill-rule:evenodd;stroke:none" transform="matrix(1.33333 0 0 -1.33333 1.333 1122.667)"/><path d="m283.87 570.15-2.44-1.73h.001c-.274-.194-27.794-19.53-56.35-26.349-29.996-7.163-59.418-4.593-59.712-4.566l-4.6.429a.704.704 0 0 1-.769-.7l-.002-67.334c0-29.813 0-70.642 27.842-117.183 31.755-53.083 91.733-82.567 94.27-83.797l1.837-.889a.7.7 0 0 1 .612 0l1.835.889c2.541 1.23 62.57 30.736 94.316 83.805 27.842 46.54 27.842 87.37 27.842 117.182v67.335a.7.7 0 0 1-.767.699l-4.604-.429c-.293-.027-29.717-2.596-59.71 4.567-28.573 6.823-56.077 26.148-56.352 26.342l-2.437 1.728a.7.7 0 0 1-.812 0m-58.464-29.443c28.818 6.882 56.56 26.372 56.837 26.569l2.033 1.442 2.03-1.441c.278-.196 28.005-19.677 56.838-26.563 30.215-7.216 59.87-4.626 60.165-4.6 0 0 2.772.26 3.838.358v-66.564c0-29.649 0-70.254-27.641-116.461-31.534-52.714-91.198-82.04-93.723-83.262l-1.53-.741-1.53.741c-2.523 1.223-62.136 30.527-93.678 83.254-27.642 46.208-27.642 86.813-27.642 116.462v66.563c1.066-.098 3.836-.357 3.836-.357.297-.026 29.95-2.617 60.167 4.6" style="fill:#1e0e00;fill-opacity:1;fill-rule:evenodd;stroke:none" transform="matrix(1.33333 0 0 -1.33333 1.333 1122.667)"/><path d="m395.28 415.378-222.01-.012a.7.7 0 0 1-.688-.837c3.931-19.96 11.286-38.763 22.487-57.487 27.456-45.896 78.838-74.353 88.859-79.591a.7.7 0 0 1 .65 0c10.03 5.24 61.448 33.702 88.903 79.598 11.202 18.724 18.558 37.53 22.489 57.491a.7.7 0 0 1-.689.838m-.873-1.404c-3.94-19.487-11.172-37.885-22.13-56.204-27.026-45.176-77.436-73.34-88.025-78.901-10.581 5.56-60.954 33.717-87.98 78.894-10.957 18.319-18.19 36.715-22.13 56.2zM283.886 559.902c-6.818-4.549-31.068-19.868-56.85-26.025-24.895-5.944-48.767-5.522-57.875-5.064a.704.704 0 0 1-.738-.701V469.9c0-17.33.46-31.938 2.697-46.909a.7.7 0 0 1 .693-.598l224.926.026c.348 0 .643.254.695.598 2.235 14.968 2.693 29.57 2.693 46.89v58.213a.7.7 0 0 1-.736.7c-9.109-.457-32.98-.88-57.877 5.065-25.775 6.156-50.03 21.47-56.849 26.017a.71.71 0 0 1-.78 0m-56.522-27.39c25.582 6.109 49.597 21.115 56.913 25.965 7.316-4.848 31.335-19.85 56.912-25.957 24.464-5.843 47.893-5.579 57.535-5.134v-57.479c0-17.025-.458-31.41-2.605-46.085l-223.682-.025c-2.149 14.678-2.609 29.069-2.609 46.103v57.478c9.642-.444 33.071-.71 57.536 5.134" style="fill:#1e0e00;fill-opacity:1;fill-rule:evenodd;stroke:none" transform="matrix(1.33333 0 0 -1.33333 1.333 1122.667)"/><path d="m330.878 514.654-1.403-58.968 3.158-.175z" style="fill:#f6b439;fill-opacity:1;fill-rule:evenodd;stroke:none" transform="matrix(1.33333 0 0 -1.33333 1.333 1122.667)"/><path d="M330.877 515.18a.527.527 0 0 1-.525-.513l-1.404-58.968a.527.527 0 0 1 .497-.538l3.16-.177a.527.527 0 0 1 .555.542l-1.755 59.144a.527.527 0 0 1-.528.51m.059-20.222 1.154-38.89-2.077.116z" style="fill:#1e0e00;fill-opacity:1;fill-rule:evenodd;stroke:none" transform="matrix(1.33333 0 0 -1.33333 1.333 1122.667)"/><path d="m297.182 536.24-1.228-81.958 5.089-.35z" style="fill:#f6b439;fill-opacity:1;fill-rule:evenodd;stroke:none" transform="matrix(1.33333 0 0 -1.33333 1.333 1122.667)"/><path d="M297.174 536.767a.527.527 0 0 1-.518-.518l-1.229-81.958a.527.527 0 0 1 .49-.534l5.09-.35a.527.527 0 0 1 .562.549l-3.861 82.31a.527.527 0 0 1-.534.501m.28-17.549 3.036-64.72-4.003.275c.013.78.649 43.242.967 64.445" style="fill:#1e0e00;fill-opacity:1;fill-rule:evenodd;stroke:none" transform="matrix(1.33333 0 0 -1.33333 1.333 1122.667)"/><path d="m260.854 520.446-1.93-65.988h3.51z" style="fill:#f6b439;fill-opacity:1;fill-rule:evenodd;stroke:none" transform="matrix(1.33333 0 0 -1.33333 1.333 1122.667)"/><path d="m260.327 520.46-1.93-65.987a.527.527 0 0 1 .526-.542h3.51a.53.53 0 0 1 .527.539l-1.58 65.988a.527.527 0 0 1-1.053.002m.474-19.818c.459-19.173 1.075-44.918 1.094-45.658h-2.43c.022.744.774 26.487 1.336 45.658" style="fill:#1e0e00;fill-opacity:1;fill-rule:evenodd;stroke:none" transform="matrix(1.33333 0 0 -1.33333 1.333 1122.667)"/><path d="M325.554 457.032s-1.147 7.867-3.392 16.848c-2.106 8.425-3.276 11.349-3.276 11.349s-8.895 1.744-20.826 1.403c-12.285-.35-17.434-2.573-17.434-2.573s-1.286-4.797-2.69-14.158c-1.304-8.693-1.873-13.806-1.873-13.806s4.68 3.979 11.467 3.979c6.785 0 9.126-3.628 11.934-3.628 4.094 0 6.201 3.277 13.689 3.159 7.488-.117 12.401-2.573 12.401-2.573" style="fill:#f6b439;fill-opacity:1;fill-rule:evenodd;stroke:none" transform="matrix(1.33333 0 0 -1.33333 1.333 1122.667)"/><path d="M298.045 487.16c-12.246-.351-17.413-2.526-17.627-2.618a.52.52 0 0 1-.3-.347c-.013-.048-1.311-4.933-2.703-14.215l-1.875-13.827a.52.52 0 0 1 .27-.525.53.53 0 0 1 .593.065c.046.04 4.627 3.854 11.127 3.854 3.995 0 6.385-1.293 8.306-2.332 1.285-.695 2.395-1.295 3.628-1.295 1.829 0 3.305.623 4.866 1.285 2.15.91 4.588 1.94 8.815 1.874 7.265-.114 12.126-2.494 12.173-2.518a.526.526 0 0 1 .757.547c-.011.079-1.177 7.996-3.403 16.9-2.091 8.363-3.25 11.295-3.298 11.416a.53.53 0 0 1-.387.321c-.09.017-9.09 1.752-20.942 1.414m.03-1.053c10.672.305 18.94-1.076 20.421-1.342.311-.851 1.41-4.033 3.155-11.012a196 196 0 0 0 3.235-15.854c-1.749.712-5.954 2.143-11.725 2.234-4.45.07-7.106-1.055-9.242-1.958-1.523-.644-2.84-1.201-4.455-1.201-.966 0-1.92.516-3.128 1.169-1.917 1.037-4.543 2.459-8.806 2.459-5.117 0-9.018-2.16-10.778-3.348l1.704 12.57c1.205 8.038 2.335 12.739 2.613 13.842 1.08.4 6.337 2.137 17.006 2.44" style="fill:#1e0e00;fill-opacity:1;fill-rule:evenodd;stroke:none" transform="matrix(1.33333 0 0 -1.33333 1.333 1122.667)"/><path d="M319.938 485.813s.118 3.862-2.222 11.35c-2.142 6.851-3.394 9.36-3.394 9.36s-6.44 1.836-14.741 1.521c-9.243-.351-16.85-3.745-16.85-3.745s-1.285-3.041-2.221-9.125c-1.033-6.713-.702-10.764-.702-10.764s2.76 2.865 6.2 3.277c7.84.935 8.073-.703 13.221-.703 5.149 0 6.318 1.638 11.35 1.638 5.03 0 9.36-2.809 9.36-2.809" style="fill:#f6b439;fill-opacity:1;fill-rule:evenodd;stroke:none" transform="matrix(1.33333 0 0 -1.33333 1.333 1122.667)"/><path d="M299.56 508.57c-9.237-.35-16.965-3.755-17.042-3.79a.53.53 0 0 1-.27-.276c-.055-.127-1.324-3.171-2.26-9.25-1.029-6.697-.719-10.72-.705-10.887a.528.528 0 0 1 .904-.323c.026.028 2.677 2.736 5.884 3.12 4.698.56 6.559.191 8.531-.199 1.261-.249 2.566-.507 4.627-.507 2.657 0 4.295.428 5.88.843 1.561.408 3.037.794 5.47.794 4.808 0 9.03-2.696 9.073-2.723a.527.527 0 0 1 .813.426c.004.161.092 4.035-2.247 11.522-2.13 6.814-3.373 9.334-3.425 9.438a.53.53 0 0 1-.327.272c-.064.018-6.616 1.855-14.906 1.54m.04-1.052c7.313.278 13.203-1.142 14.35-1.44.319-.7 1.482-3.373 3.263-9.072 1.667-5.336 2.063-8.75 2.16-10.255-1.53.828-4.936 2.397-8.795 2.397-2.568 0-4.179-.421-5.736-.829-1.59-.416-3.091-.809-5.613-.809-1.958 0-3.154.238-4.423.489-1.964.388-3.996.79-8.86.21-2.464-.294-4.538-1.734-5.65-2.655-.003.206-.011.344-.011.61 0 1.78.12 4.872.745 8.93.837 5.444 1.925 8.327 2.115 8.809.988.419 8.04 3.295 16.455 3.615" style="fill:#1e0e00;fill-opacity:1;fill-rule:evenodd;stroke:none" transform="matrix(1.33333 0 0 -1.33333 1.333 1122.667)"/><path d="M313.036 507.225s-.235 3.861-1.522 8.541-1.989 6.318-1.989 6.318-5.03 1.755-12.87.819-10.997-3.862-10.997-3.862-.702-2.69-1.053-7.02c-.352-4.328-.352-6.902-.352-6.902s3.042 2.457 5.499 3.042c2.457.584 4.68-.35 8.775-.117 4.096.234 5.383 1.287 7.957 1.287 2.753 0 6.552-2.106 6.552-2.106" style="fill:#f6b439;fill-opacity:1;fill-rule:evenodd;stroke:none" transform="matrix(1.33333 0 0 -1.33333 1.333 1122.667)"/><path d="M296.593 523.426c-7.918-.946-11.16-3.874-11.294-3.998a.53.53 0 0 1-.151-.253c-.028-.112-.718-2.786-1.067-7.11l-.355-6.946a.51.51 0 0 1 .288-.483.53.53 0 0 1 .571.073c.028.024 2.979 2.39 5.29 2.94 1.224.29 2.395.178 3.877.034 1.338-.129 2.853-.276 4.806-.165 2.204.126 3.599.48 4.827.793 1.044.265 1.945.494 3.099.494 2.583 0 6.26-2.02 6.296-2.04a.526.526 0 0 1 .781.492c-.009.16-.252 3.97-1.54 8.649-1.281 4.66-1.982 6.317-2.012 6.385a.52.52 0 0 1-.31.29c-.21.073-5.237 1.784-13.106.845m.124-1.047c7.038.84 11.694-.5 12.411-.727.195-.496.829-2.209 1.879-6.026a48 48 0 0 0 1.417-7.5c-1.31.636-3.864 1.731-5.94 1.731-1.286 0-2.246-.243-3.358-.527-1.183-.3-2.524-.64-4.628-.76-1.871-.107-3.345.034-4.644.16-1.518.148-2.828.275-4.224-.057-1.756-.419-3.688-1.68-4.795-2.472.08 1.535.294 5.778.294 5.778.316 3.888.9 6.363 1.001 6.77.549.447 3.731 2.812 10.587 3.63" style="fill:#1e0e00;fill-opacity:1;fill-rule:evenodd;stroke:none" transform="matrix(1.33333 0 0 -1.33333 1.333 1122.667)"/><path d="M297.474 536.826s-2.69-.468-4.796-.35c-1.87.104-4.095 1.052-7.254 1.052-4.447 0-6.786-3.627-6.786-3.627s2.808.117 6.435-.351c3.037-.392 4.914-1.404 7.136-1.638 2.56-.27 5.149.467 5.149.467z" style="fill:#f6b439;fill-opacity:1;fill-rule:evenodd;stroke:none" transform="matrix(1.33333 0 0 -1.33333 1.333 1122.667)"/><path d="M278.196 534.186a.526.526 0 0 1 .463-.811c.028 0 2.81.11 6.347-.348 1.543-.2 2.763-.557 3.94-.904l3.208-.735c2.632-.277 5.238.454 5.347.485a.53.53 0 0 1 .383.493l.117 4.447a.53.53 0 0 1-.617.532c-.026-.005-2.657-.456-4.677-.344l-2.362.403c-1.39.305-2.966.65-4.92.65-4.68 0-7.128-3.71-7.23-3.868m7.23 2.815c1.84 0 3.356-.332 4.693-.626l2.53-.426c1.562-.087 3.358.13 4.284.262-.023-.828-.076-2.856-.09-3.417-.78-.182-2.696-.556-4.578-.358l-3.02.697c-1.162.342-2.476.729-4.104.94a45 45 0 0 1-5.371.365c.942 1.002 2.848 2.563 5.655 2.563" style="fill:#1e0e00;fill-opacity:1;fill-rule:evenodd;stroke:none" transform="matrix(1.33333 0 0 -1.33333 1.333 1122.667)"/><path d="M330.937 502.779s6.902-1.17 12.167-.585 13.456 4.445 13.456 4.445-1.873-10.295-1.521-18.954c.34-8.42 5.381-20.591 5.381-20.591s-7.086 2.566-15.912 3.978c-8.775 1.404-13.103.818-13.103.818s.585 3.511.585 12.52c0 9.008-1.053 18.369-1.053 18.369" style="fill:#f6b439;fill-opacity:1;fill-rule:evenodd;stroke:none" transform="matrix(1.33333 0 0 -1.33333 1.333 1122.667)"/><path d="M356.335 507.116c-.082-.038-8.172-3.831-13.29-4.4-5.128-.569-11.953.57-12.02.581a.528.528 0 0 1-.611-.578c.01-.093 1.048-9.435 1.048-18.309 0-8.84-.571-12.398-.577-12.433a.53.53 0 0 1 .59-.608c.043.006 4.376.555 12.95-.817 8.671-1.387 15.745-3.928 15.817-3.953a.525.525 0 0 1 .665.696c-.05.121-5.009 12.183-5.343 20.412-.344 8.499 1.495 18.736 1.514 18.839a.527.527 0 0 1-.743.57m-13.173-5.446c4.356.484 10.475 3.08 12.716 4.082-.396-2.428-1.41-9.287-1.41-15.839 0-.757.013-1.51.044-2.249.29-7.116 3.79-16.615 5-19.706-2.298.757-8.097 2.542-14.92 3.633-6.974 1.117-11.084.993-12.578.884.166 1.375.502 5.018.502 11.935 0 7.604-.752 15.49-.985 17.743 1.855-.275 7.237-.97 11.631-.483" style="fill:#1e0e00;fill-opacity:1;fill-rule:evenodd;stroke:none" transform="matrix(1.33333 0 0 -1.33333 1.333 1122.667)"/><path d="M331.054 511.203V516s1.106.759 3.51 0c2.223-.702 3.977-2.926 6.669-3.393 2.883-.501 5.733.585 5.733.585s-1.404-3.861-5.733-3.861c-3.276 0-5.084 1.68-6.787 2.106-1.403.351-3.392-.234-3.392-.234" style="fill:#f6b439;fill-opacity:1;fill-rule:evenodd;stroke:none" transform="matrix(1.33333 0 0 -1.33333 1.333 1122.667)"/><path d="M330.756 516.434a.52.52 0 0 1-.229-.434v-4.797a.526.526 0 0 1 .675-.505c.018.006 1.872.54 3.116.228l1.694-.701c1.3-.633 2.92-1.42 5.22-1.42 4.645 0 6.213 4.165 6.228 4.207a.527.527 0 0 1-.682.672c-.027-.01-2.755-1.028-5.454-.558-1.411.245-2.584 1.036-3.716 1.801-.908.613-1.847 1.247-2.886 1.574-2.574.813-3.83.025-3.966-.067m3.649-.936c.894-.282 1.729-.847 2.614-1.444 1.225-.826 2.492-1.682 4.124-1.966 1.834-.318 3.613-.036 4.758.243-.7-1.039-2.12-2.474-4.668-2.474-2.06 0-3.495.7-4.761 1.314l-1.898.777c-1.016.254-2.246.076-2.994-.079v3.786c.37.137 1.252.34 2.825-.157" style="fill:#1e0e00;fill-opacity:1;fill-rule:evenodd;stroke:none" transform="matrix(1.33333 0 0 -1.33333 1.333 1122.667)"/><path d="M260.62 518.34v5.148s-2.458-1.52-4.564-1.17-5.737 1.395-7.838.935c-3.744-.818-5.383-4.212-5.383-4.212s3.979.235 5.85.469c1.873.234 4.378-1.17 6.436-1.638 2.574-.585 5.498.467 5.498.467" style="fill:#f6b439;fill-opacity:1;fill-rule:evenodd;stroke:none" transform="matrix(1.33333 0 0 -1.33333 1.333 1122.667)"/><path d="M260.343 523.936c-.023-.014-2.318-1.413-4.2-1.098l-1.717.337c-2.055.431-4.614.967-6.321.593-3.95-.864-5.671-4.35-5.743-4.497a.53.53 0 0 1 .034-.528.52.52 0 0 1 .47-.227l5.885.471c1.083.136 2.505-.378 3.882-.874l2.37-.755c2.695-.611 5.667.442 5.794.486.21.075.349.274.349.495v5.149a.525.525 0 0 1-.803.448m-12.013-1.197c1.487.325 3.925-.182 5.88-.593l1.76-.348c1.556-.259 3.18.373 4.123.828v-3.9c-.816-.242-2.957-.772-4.856-.34l-2.248.717c-1.491.54-3.035 1.096-4.368.93 0 0-3.334-.268-4.754-.38.707.991 2.119 2.574 4.463 3.086" style="fill:#1e0e00;fill-opacity:1;fill-rule:evenodd;stroke:none" transform="matrix(1.33333 0 0 -1.33333 1.333 1122.667)"/><path d="M245.293 466.743s-.117 3.385-.117 7.488c0 4.68.35 7.136.35 7.136s3.745 4.68 14.743 4.915c10.996.233 12.168-3.51 12.168-3.51s.35-2.107.467-6.553c.115-4.327-.234-7.839-.234-7.839s-5.381 2.107-12.87 1.99c-7.487-.117-14.507-3.627-14.507-3.627" style="fill:#f6b439;fill-opacity:1;fill-rule:evenodd;stroke:none" transform="matrix(1.33333 0 0 -1.33333 1.333 1122.667)"/><path d="M260.258 486.808c-11.118-.237-14.983-4.913-15.142-5.112a.53.53 0 0 1-.11-.254c-.014-.102-.357-2.548-.357-7.211l.118-7.506a.52.52 0 0 1 .76-.454c.07.035 7.006 3.459 14.282 3.572 7.286.114 12.617-1.932 12.67-1.953a.526.526 0 0 1 .715.438c.003.036.35 3.595.237 7.905-.117 4.432-.46 6.538-.475 6.625-.07.24-1.436 4.189-12.698 3.95m.022-1.053c10.31.22 11.643-3.111 11.658-3.15l-.001-.001c0-.042.33-2.157.442-6.398a72 72 0 0 0-.178-7.104c-1.625.544-6.267 1.89-12.408 1.794-6.248-.098-12.022-2.45-13.987-3.336l-.104 6.671c0 4.196.277 6.513.328 6.906.462.51 4.312 4.407 14.25 4.618" style="fill:#1e0e00;fill-opacity:1;fill-rule:evenodd;stroke:none" transform="matrix(1.33333 0 0 -1.33333 1.333 1122.667)"/><path d="M246.696 486.282s-.35 3.626-.35 6.668.468 5.5.468 5.5 3.394 3.276 12.402 3.51c9.009.234 10.53-2.224 10.53-2.224s.701-1.286 1.287-6.55c.518-4.665.351-5.617.351-5.617s-6.434 1.638-11.232 1.638c-6.67 0-13.456-2.925-13.456-2.925" style="fill:#f6b439;fill-opacity:1;fill-rule:evenodd;stroke:none" transform="matrix(1.33333 0 0 -1.33333 1.333 1122.667)"/><path d="M259.202 502.486c-9.109-.236-12.61-3.518-12.754-3.657a.52.52 0 0 1-.151-.28c-.02-.102-.479-2.542-.479-5.599 0-3.032.351-6.683.354-6.72a.526.526 0 0 1 .732-.432c.068.029 6.77 2.882 13.248 2.882 4.676 0 11.038-1.606 11.102-1.621a.527.527 0 0 1 .648.419c.018.105.166 1.16-.346 5.765-.58 5.217-1.27 6.605-1.347 6.746-.188.302-1.957 2.732-11.007 2.497m.027-1.053c8.428.219 10.06-1.96 10.077-1.986 0-.008.654-1.384 1.203-6.32.31-2.785.372-4.207.373-4.896-1.704.403-6.71 1.502-10.73 1.502-5.61 0-11.154-1.978-12.993-2.7-.1 1.193-.288 3.716-.288 5.917 0 2.652.352 4.78.43 5.222.585.485 4.049 3.057 11.928 3.261" style="fill:#1e0e00;fill-opacity:1;fill-rule:evenodd;stroke:none" transform="matrix(1.33333 0 0 -1.33333 1.333 1122.667)"/><path d="M261.088 508.16s-2.107 3.51-6.67 4.213c-4.278.658-17.518-1.501-28.43-13.69-9.009-10.06-8.892-14.741-8.892-16.028 0-3.862 18.134-23.986 18.134-23.986s-.203 20.001 1.521 25.975c3.043 10.53 10.647 21.879 24.337 23.517" style="fill:#f6b439;fill-opacity:1;fill-rule:evenodd;stroke:none" transform="matrix(1.33333 0 0 -1.33333 1.333 1122.667)"/><path d="M225.595 499.034c-5.993-6.693-9.03-12.189-9.026-16.33 0-3.998 16.401-22.311 18.27-24.387a.526.526 0 0 1 .918.358c-.003.199-.184 19.991 1.5 25.823 1.425 4.928 7.355 21.161 23.893 23.14a.526.526 0 0 1 .39.794c-.092.151-2.289 3.73-7.041 4.46-4.73.729-18.02-1.701-28.904-13.858m-7.973-16.38v.009c0 3.924 2.946 9.178 8.758 15.67 10.597 11.834 23.412 14.218 27.958 13.52 3.112-.48 5.021-2.356 5.834-3.345-11.187-1.72-20.104-10.486-23.925-23.718-1.41-4.876-1.552-18.63-1.552-23.983 0-.306 0-.496.002-.744-7.194 8.06-17.076 20.016-17.076 22.591z" style="fill:#1e0e00;fill-opacity:1;fill-rule:evenodd;stroke:none" transform="matrix(1.33333 0 0 -1.33333 1.333 1122.667)"/><path d="M193.227 475.751c16.288-9.914 16.237-9.968 27.847-16.847 6.318-3.745 10.53-8.892 12.636-12.168.993-1.546 1.57-2.934 1.902-3.971.372-1.16 8.16-1.413 8.16-1.413s2.334-4.045 10.764-3.744c4.02.144 15.887 5.82 21.293 5.616 6.684-.251 7.194-6.355 14.977-5.616 6.515.619 13.766 5.043 19.89 4.914 6.399-.134 8.086-4.7 13.571-4.68 11.308.04 12.169 5.148 24.337 3.978 6.06-.582 4.057-6.159 10.295-3.744 1.264.489 1.168.539 1.405 1.406 1.403 5.147 6.13 19.749 5.85 21.294-.468 2.574-3.745 5.382-4.914 5.382-1.872 0-5.382-9.595-5.382-9.595s-23.4-1.404-79.56-.935c-20.825.174-34.399 1.17-41.652 3.276s-25.038 10.53-31.123 13.572c-6.084 3.042-9.126 4.913-10.296 3.275" style="fill:#f6b439;fill-opacity:1;fill-rule:evenodd;stroke:none" transform="matrix(1.33333 0 0 -1.33333 1.333 1122.667)"/><path d="M192.798 476.057a.53.53 0 0 1-.086-.411.52.52 0 0 1 .241-.344l10.652-6.497 17.2-10.355c6.921-4.101 11.02-9.758 12.461-11.999.81-1.26 1.43-2.554 1.844-3.846.392-1.223 4.71-1.637 8.377-1.768.676-.919 3.529-4.025 11.068-3.755 1.833.066 5.022 1.162 8.714 2.43 4.497 1.545 9.593 3.297 12.541 3.186 2.908-.11 4.562-1.378 6.314-2.719 2.126-1.63 4.324-3.313 8.73-2.895 3.063.29 6.289 1.406 9.408 2.485 3.708 1.283 7.212 2.495 10.423 2.427 3.148-.066 5.12-1.262 7.026-2.42 1.841-1.117 3.744-2.27 6.558-2.26 5.3.019 8.339 1.13 11.278 2.203 3.374 1.232 6.56 2.397 13.006 1.777 2.516-.242 3.484-1.367 4.42-2.455 1.202-1.398 2.338-2.72 6.116-1.256 1.247.482 1.434.657 1.668 1.555l.054.203 1.986 6.746c2.472 8.206 4.077 13.669 3.875 14.78-.497 2.735-3.911 5.816-5.432 5.816-1.958 0-4.596-6.488-5.755-9.615-2.973-.16-27.112-1.35-79.183-.915-21.282.177-34.472 1.21-41.51 3.254-7.057 2.049-24.266 10.155-31.033 13.538l-2.182 1.102c-4.99 2.533-7.494 3.805-8.779 2.008m8.302-2.947 2.188-1.105c6.794-3.396 24.085-11.538 31.21-13.608 7.133-2.07 20.414-3.118 41.796-3.296 55.535-.463 79.361.923 79.595.937.21.013.39.148.463.344 1.803 4.928 4.087 9.25 4.888 9.25.874 0 3.964-2.574 4.395-4.95.168-.96-2.246-8.981-3.846-14.289l-1.995-6.773-.056-.215c-.127-.488-.127-.488-1.03-.838-3.084-1.195-3.82-.338-4.938.96-.97 1.13-2.179 2.535-5.116 2.817-6.684.643-9.98-.561-13.468-1.836-2.855-1.043-5.807-2.121-10.92-2.14-2.518-.008-4.213 1.02-6.008 2.109-2.026 1.229-4.12 2.5-7.551 2.572-3.399.071-7.156-1.228-10.79-2.485-3.06-1.058-6.225-2.153-9.161-2.431-3.995-.38-5.937 1.107-7.991 2.681-1.806 1.384-3.673 2.814-6.916 2.936-3.144.119-8.338-1.666-12.921-3.242-3.463-1.19-6.734-2.314-8.412-2.373-7.959-.286-10.268 3.446-10.291 3.483a.53.53 0 0 1-.437.26c-3.365.11-7.262.576-7.699 1.096-.418 1.332-1.078 2.71-1.937 4.046-1.48 2.305-5.695 8.12-12.81 12.336l-17.187 10.347-9.866 6.017c1.135.227 3.382-.87 6.811-2.61" style="fill:#1e0e00;fill-opacity:1;fill-rule:evenodd;stroke:none" transform="matrix(1.33333 0 0 -1.33333 1.333 1122.667)"/><path d="M191.122 430.457c0 .054 3.728 3.16 12.633 3.16h.05c8.905 0 9.883-4.828 17.81-4.828h.025c7.926 0 8.904 4.828 17.81 4.828l.044-.007c8.905 0 9.884-4.828 17.81-4.828h.025c7.927 0 8.905 4.828 17.81 4.828h.05c8.905 0 9.884-4.828 17.81-4.828h.025c7.926 0 8.905 4.828 17.81 4.828l.03-.008c8.906 0 9.884-4.827 17.811-4.827h.025c7.926 0 8.905 4.827 17.81 4.827h.05c8.905 0 9.883-4.827 17.81-4.827h.024c7.927 0 12.524 6.021 15.565 5.587 0 0-1.52 1.14-4.68 0-2.32-.836-4.888-2.116-8.456-2.116h-.026c-7.887 0-8.86 5.476-17.72 5.476h-.053c-8.86 0-9.834-5.476-17.72-5.476h-.026c-7.887 0-8.86 5.476-17.722 5.476l-.03.008c-8.862 0-9.837-5.476-17.722-5.476h-.027c-7.886 0-8.862 5.476-17.722 5.476h-.05c-8.86 0-9.834-5.476-17.722-5.476h-.025c-7.887 0-8.86 5.476-17.722 5.476l-.044.007c-8.861 0-9.834-5.475-17.722-5.475h-.026c-7.887 0-8.86 5.475-17.722 5.475h-.05c-5.813 0-8.322-1.375-11.347-3.267-4.065-2.545-4.504-4.014-4.504-4.014z" style="fill:#fff;fill-opacity:1;fill-rule:evenodd;stroke:none" transform="matrix(1.33333 0 0 -1.33333 1.333 1122.667)"/><path d="M195.347 434.917c-4.116-2.575-4.679-4.14-4.73-4.31a.5.5 0 0 1-.02-.141v-.004l-.003-.005c0-.013.02-.013.02-.024a.53.53 0 0 1 .24-.413c.046-.028.098-.029.15-.04.015-.006.011-.032.028-.035.042-.007.075.009.115.012.13.006.259.05.357.14.031.03 3.566 2.993 12.25 2.993 4.505 0 6.935-1.25 9.285-2.46 2.262-1.165 4.6-2.368 8.575-2.368 4 0 6.339 1.203 8.6 2.367 2.35 1.21 4.78 2.461 9.235 2.461 4.5-.007 6.93-1.258 9.28-2.468 2.26-1.164 4.6-2.367 8.575-2.367 4 0 6.338 1.203 8.6 2.367 2.349 1.21 4.78 2.461 9.235 2.461 4.504 0 6.935-1.25 9.285-2.46 2.262-1.165 4.6-2.368 8.575-2.368 4 0 6.338 1.203 8.598 2.367 2.351 1.21 4.782 2.461 9.237 2.461 4.484-.007 6.915-1.258 9.266-2.467 2.26-1.165 4.599-2.368 8.575-2.368 3.999 0 6.338 1.203 8.598 2.368 2.35 1.209 4.782 2.46 9.235 2.46 4.506 0 6.937-1.251 9.287-2.46 2.26-1.165 4.598-2.368 8.575-2.368 4.862 0 8.547 2.206 11.238 3.817 1.8 1.077 3.22 1.927 4.277 1.777a.526.526 0 0 1 .389.942c-.071.054-1.786 1.295-5.173.074l-1.237-.468c-1.962-.757-4.186-1.617-7.041-1.617-3.712 0-5.82 1.237-8.052 2.546-2.455 1.44-4.993 2.93-9.696 2.93-4.754 0-7.291-1.49-9.747-2.93-2.232-1.31-4.34-2.546-8.025-2.546-3.711 0-5.82 1.237-8.051 2.546-2.456 1.44-4.994 2.93-9.696 2.93-4.735.008-7.273-1.481-9.728-2.922-2.232-1.31-4.34-2.546-8.025-2.546-3.712 0-5.82 1.237-8.052 2.546-2.456 1.44-4.994 2.93-9.696 2.93-4.752 0-7.291-1.49-9.745-2.93-2.232-1.31-4.342-2.546-8.027-2.546-3.71 0-5.819 1.237-8.05 2.546-2.456 1.44-4.994 2.93-9.697 2.93-4.747.008-7.287-1.481-9.74-2.922-2.233-1.309-4.34-2.546-8.028-2.546-3.71 0-5.818 1.237-8.05 2.546-2.455 1.44-4.993 2.93-9.697 2.93-5.888 0-8.442-1.326-11.674-3.348m37.98-.49c2.335 1.369 4.748 2.785 9.165 2.785 4.46-.007 6.874-1.424 9.208-2.793 2.254-1.323 4.586-2.69 8.557-2.69 3.998 0 6.33 1.367 8.585 2.69 2.334 1.37 4.747 2.785 9.162 2.785 4.467 0 6.88-1.416 9.214-2.785 2.256-1.323 4.588-2.69 8.558-2.69 3.998 0 6.33 1.367 8.584 2.69 2.334 1.37 4.747 2.785 9.164 2.785 4.448-.008 6.86-1.423 9.194-2.794 2.256-1.323 4.587-2.69 8.559-2.69 3.997 0 6.328 1.367 8.584 2.69 2.334 1.37 4.747 2.786 9.163 2.786 4.468 0 6.88-1.415 9.214-2.786 2.255-1.322 4.586-2.69 8.558-2.69 3.078 0 5.4.897 7.448 1.688l1.213.46a7.4 7.4 0 0 0 2.001.435c-.733-.35-1.52-.813-2.39-1.335-2.73-1.633-6.127-3.666-10.674-3.666-3.746 0-5.87 1.092-8.118 2.249-2.461 1.268-5.008 2.578-9.717 2.578-4.759 0-7.305-1.31-9.768-2.578-2.248-1.157-4.372-2.25-8.092-2.25-3.746 0-5.87 1.093-8.119 2.25-2.46 1.268-5.006 2.578-9.716 2.578-4.74.008-7.286-1.303-9.748-2.57-2.249-1.158-4.373-2.25-8.093-2.25-3.744 0-5.868 1.093-8.116 2.25-2.463 1.267-5.01 2.577-9.719 2.577-4.759 0-7.305-1.31-9.768-2.577-2.248-1.157-4.37-2.25-8.092-2.25-3.745 0-5.868 1.093-8.117 2.25-2.462 1.267-5.008 2.577-9.718 2.577-4.754.007-7.3-1.303-9.762-2.57-2.248-1.158-4.371-2.25-8.092-2.25-3.745 0-5.869 1.092-8.118 2.25-2.461 1.267-5.007 2.577-9.716 2.577-4.632 0-8.015-.85-10.212-1.746a24 24 0 0 0 2.312 1.627c3.076 1.925 5.51 3.188 11.067 3.188 4.465 0 6.879-1.416 9.213-2.785 2.255-1.323 4.587-2.69 8.56-2.69 3.996 0 6.328 1.367 8.582 2.69m146.706.457c-.025.004-.05.003-.076.006q.038 0 .076-.006" style="fill:#1e0e00;fill-opacity:1;fill-rule:evenodd;stroke:none" transform="matrix(1.33333 0 0 -1.33333 1.333 1122.667)"/><path d="M187.611 437.477c0 .054 3.73 3.16 12.634 3.16h.05c8.905 0 9.883-4.828 17.81-4.828h.026c7.926 0 8.904 4.828 17.808 4.828l.045-.007c8.906 0 9.884-4.828 17.81-4.828h.026c7.927 0 8.904 4.828 17.81 4.828h.05c8.904 0 9.884-4.828 17.81-4.828h.025c7.925 0 8.904 4.828 17.81 4.828l.03-.008c8.905 0 9.884-4.827 17.81-4.827h.025c7.926 0 8.905 4.827 17.81 4.827h.05c8.905 0 9.884-4.827 17.81-4.827h.024c7.927 0 12.524 6.021 15.565 5.587 0 0-1.52 1.14-4.679 0-2.32-.836-4.889-2.116-8.457-2.116h-.024c-7.89 0-8.862 5.476-17.722 5.476h-.051c-8.861 0-9.836-5.476-17.723-5.476h-.024c-7.888 0-8.862 5.476-17.723 5.476l-.03.008c-8.862 0-9.837-5.476-17.722-5.476h-.026c-7.886 0-8.862 5.476-17.723 5.476h-.048c-8.862 0-9.836-5.476-17.724-5.476h-.024c-7.887 0-8.86 5.476-17.723 5.476l-.043.007c-8.862 0-9.835-5.475-17.722-5.475h-.027c-7.886 0-8.86 5.475-17.722 5.475h-.05c-5.812 0-8.32-1.375-11.346-3.267-4.066-2.545-4.505-4.014-4.505-4.014z" style="fill:#fff;fill-opacity:1;fill-rule:evenodd;stroke:none" transform="matrix(1.33333 0 0 -1.33333 1.333 1122.667)"/><path d="M191.837 441.937c-4.115-2.575-4.68-4.14-4.73-4.31a.5.5 0 0 1-.02-.141l.002-.004-.005-.005c0-.013.021-.013.022-.025a.52.52 0 0 1 .24-.412c.045-.028.098-.029.148-.041.016-.004.012-.031.03-.034.04-.007.074.009.115.012.13.006.259.049.355.14.031.03 3.568 2.993 12.251 2.993 4.505 0 6.936-1.25 9.286-2.46 2.261-1.165 4.598-2.368 8.573-2.368 4.001 0 6.339 1.203 8.6 2.367 2.352 1.21 4.781 2.461 9.235 2.461 4.5-.007 6.93-1.258 9.282-2.468 2.26-1.164 4.598-2.367 8.573-2.367 4 0 6.338 1.203 8.6 2.367 2.351 1.21 4.78 2.461 9.235 2.461 4.504 0 6.935-1.25 9.286-2.46 2.261-1.165 4.6-2.368 8.574-2.368 4.001 0 6.339 1.203 8.6 2.367 2.35 1.21 4.78 2.461 9.235 2.461 4.485-.007 6.916-1.258 9.267-2.468 2.26-1.164 4.598-2.367 8.574-2.367 4.001 0 6.339 1.203 8.6 2.367 2.35 1.21 4.78 2.461 9.235 2.461 4.504 0 6.935-1.251 9.286-2.461 2.26-1.164 4.598-2.367 8.574-2.367 4.863 0 8.549 2.206 11.24 3.817 1.798 1.077 3.22 1.927 4.275 1.777a.526.526 0 0 1 .391.942c-.072.054-1.788 1.295-5.174.074l-1.236-.466c-1.962-.76-4.187-1.62-7.043-1.62-3.711 0-5.819 1.238-8.051 2.547-2.454 1.44-4.994 2.93-9.695 2.93-4.754 0-7.293-1.49-9.748-2.93-2.231-1.31-4.34-2.546-8.026-2.546-3.711 0-5.818 1.237-8.05 2.546-2.456 1.44-4.994 2.93-9.697 2.93-4.733.008-7.273-1.481-9.728-2.922-2.23-1.31-4.339-2.546-8.024-2.546-3.711 0-5.82 1.237-8.052 2.546-2.455 1.44-4.993 2.93-9.697 2.93-4.752 0-7.29-1.49-9.745-2.93-2.232-1.31-4.34-2.546-8.027-2.546-3.71 0-5.818 1.237-8.049 2.546-2.456 1.44-4.994 2.93-9.698 2.93-4.746.008-7.285-1.481-9.74-2.922-2.232-1.309-4.34-2.546-8.025-2.546-3.712 0-5.82 1.237-8.051 2.546-2.456 1.44-4.995 2.93-9.698 2.93-5.888 0-8.443-1.326-11.675-3.348m37.982-.49c2.333 1.369 4.746 2.785 9.163 2.785 4.461-.008 6.874-1.424 9.208-2.793 2.256-1.323 4.587-2.69 8.559-2.69 3.997 0 6.329 1.367 8.583 2.69 2.334 1.37 4.748 2.785 9.165 2.785 4.464 0 6.878-1.416 9.213-2.785 2.254-1.323 4.586-2.69 8.557-2.69 3.998 0 6.33 1.367 8.584 2.69 2.334 1.37 4.748 2.785 9.165 2.785 4.446-.008 6.86-1.423 9.193-2.794 2.255-1.322 4.587-2.69 8.56-2.69 3.996 0 6.328 1.367 8.583 2.69 2.334 1.37 4.747 2.786 9.163 2.786 4.468 0 6.881-1.415 9.214-2.786 2.255-1.322 4.587-2.69 8.56-2.69 3.076 0 5.399.897 7.447 1.689l1.212.459a7.4 7.4 0 0 0 2 .435c-.733-.35-1.517-.813-2.39-1.335-2.73-1.633-6.126-3.666-10.674-3.666-3.744 0-5.868 1.092-8.116 2.249-2.463 1.268-5.009 2.578-9.719 2.578-4.758 0-7.305-1.31-9.767-2.578-2.248-1.157-4.371-2.25-8.092-2.25-3.746 0-5.869 1.093-8.117 2.25-2.463 1.268-5.009 2.578-9.719 2.578-4.74.008-7.286-1.303-9.747-2.57-2.248-1.158-4.372-2.25-8.092-2.25-3.746 0-5.87 1.093-8.118 2.25-2.463 1.267-5.008 2.577-9.717 2.577-4.76 0-7.305-1.31-9.768-2.577-2.248-1.157-4.372-2.25-8.092-2.25-3.746 0-5.87 1.092-8.118 2.25-2.462 1.267-5.008 2.577-9.719 2.577-4.753.007-7.298-1.303-9.76-2.57-2.249-1.158-4.372-2.25-8.092-2.25-3.746 0-5.87 1.092-8.118 2.25-2.462 1.267-5.008 2.577-9.718 2.577-4.631 0-8.014-.85-10.212-1.746.589.474 1.33 1.012 2.313 1.627 3.076 1.925 5.51 3.188 11.066 3.188 4.468 0 6.88-1.416 9.214-2.785 2.256-1.323 4.588-2.69 8.558-2.69 3.999 0 6.33 1.367 8.585 2.69m146.705.457c-.025.004-.05.003-.076.006q.039 0 .076-.006" style="fill:#1e0e00;fill-opacity:1;fill-rule:evenodd;stroke:none" transform="matrix(1.33333 0 0 -1.33333 1.333 1122.667)"/><path d="M228.338 369.682s1.54-1.793 3.831-3.83 5.805-4.284 5.805-4.284 9.173-2.15 10.075-.23l1.166 3.59c.4 2.084-8.286 5.737-8.286 5.737s-4.164.246-7.215-.055c-3.049-.3-5.348-.846-5.348-.846z" style="fill:#58bb58;fill-opacity:1;fill-rule:nonzero;stroke:none" transform="matrix(1.33333 0 0 -1.33333 1.333 1122.667)"/><path d="M233.664 371.134c-3.051-.301-5.324-.835-5.42-.857-.179-.043-.336-.216-.392-.391-.058-.175-.033-.408.087-.547.063-.075 1.59-1.844 3.88-3.88 2.296-2.04 5.726-4.242 5.871-4.334a.5.5 0 0 1 .164-.07c2.25-.527 9.667-2.081 10.67.06l1.191 3.65c.463 2.386-6.452 5.489-8.582 6.385a.6.6 0 0 1-.173.04c-.17.01-4.24.245-7.296-.056m.103-1.048c2.827.278 6.63.081 7.039.058 3.89-1.646 7.899-4.019 7.899-5.048a.4.4 0 0 0-.007-.069l-1.15-3.526c-.404-.85-5.16-.415-9.37.563-.405.26-3.56 2.317-5.66 4.182a45 45 0 0 0-3.23 3.173c.907.182 2.504.472 4.478.667z" style="fill:#1e0e00;fill-opacity:1;fill-rule:nonzero;stroke:none" transform="matrix(1.33333 0 0 -1.33333 1.333 1122.667)"/><path d="M318.527 304.868s-.192 2.355-.848 5.348c-.657 2.994-2.179 6.88-2.179 6.88s-6.157 7.13-8.015 6.106l-3.052-2.219c-1.55-1.45 3.33-9.51 3.33-9.51s3.225-2.647 5.868-4.196c2.645-1.55 4.825-2.46 4.825-2.46z" style="fill:#58bb58;fill-opacity:1;fill-rule:nonzero;stroke:none" transform="matrix(1.33333 0 0 -1.33333 1.333 1122.667)"/><path d="m307.231 323.663-3.108-2.254c-1.777-1.658 1.993-8.232 3.19-10.209q.046-.075.116-.134c.133-.109 3.287-2.69 5.936-4.244 2.645-1.549 4.798-2.454 4.888-2.491.17-.071.4-.023.548.085s.265.311.25.494c-.007.099-.201 2.425-.858 5.42-.658 3-2.139 6.797-2.202 6.958a.5.5 0 0 1-.092.151c-1.51 1.749-6.597 7.367-8.668 6.224m-2.6-3.609c0 .255.051.442.161.545l3.002 2.177c.827.451 4.42-2.695 7.25-5.96.171-.444 1.518-3.967 2.121-6.713a46 46 0 0 0 .748-4.464 45 45 0 0 0-4.015 2.092c-2.419 1.417-5.345 3.779-5.726 4.088-1.895 3.146-3.542 6.788-3.542 8.235" style="fill:#1e0e00;fill-opacity:1;fill-rule:nonzero;stroke:none" transform="matrix(1.33333 0 0 -1.33333 1.333 1122.667)"/><path d="M339.734 370.355s-2.298.545-5.348.846c-3.051.3-7.215.054-7.215.054s-8.686-3.652-8.285-5.736l1.166-3.589c.901-1.922 10.075.228 10.075.228s3.513 2.249 5.804 4.285 3.83 3.828 3.83 3.828z" style="fill:#58bb58;fill-opacity:1;fill-rule:nonzero;stroke:none" transform="matrix(1.33333 0 0 -1.33333 1.333 1122.667)"/><path d="M327.14 371.78a.5.5 0 0 1-.174-.04c-2.13-.896-9.043-3.999-8.597-6.321l1.182-3.651c1.03-2.203 8.447-.65 10.695-.122q.09.02.165.069c.144.092 3.574 2.294 5.87 4.335 2.29 2.036 3.817 3.804 3.88 3.878.12.14.145.373.088.548-.057.174-.214.349-.393.39-.095.024-2.368.557-5.418.858-3.058.301-7.127.066-7.298.057m7.194-1.104a46 46 0 0 0 4.478-.668 46 46 0 0 0-3.231-3.173c-2.1-1.865-5.253-3.921-5.66-4.183-4.21-.976-8.965-1.411-9.393-.5l-1.142 3.528a.4.4 0 0 0-.006.059c0 .967 4.016 3.345 7.914 4.994.409.022 4.212.222 7.04-.057" style="fill:#1e0e00;fill-opacity:1;fill-rule:nonzero;stroke:none" transform="matrix(1.33333 0 0 -1.33333 1.333 1122.667)"/><path d="M283.64 410.523s-1.229-2.019-2.458-4.826c-1.228-2.808-2.281-6.845-2.281-6.845s.79-9.39 2.895-9.652h3.774c2.106.263 2.896 9.652 2.896 9.652s-1.053 4.037-2.282 6.845c-1.228 2.807-2.456 4.826-2.456 4.826z" style="fill:#58bb58;fill-opacity:1;fill-rule:nonzero;stroke:none" transform="matrix(1.33333 0 0 -1.33333 1.333 1122.667)"/><path d="M283.19 410.796c-.05-.083-1.261-2.08-2.49-4.888-1.231-2.814-2.264-6.756-2.308-6.923q-.023-.087-.016-.176c.194-2.303 1.008-9.838 3.355-10.132l3.84-.004c2.411.298 3.226 7.833 3.42 10.135a.6.6 0 0 1-.016.177c-.043.167-1.078 4.11-2.309 6.923-1.228 2.808-2.437 4.805-2.488 4.888-.096.158-.31.254-.494.254s-.399-.096-.494-.254m-1.525-5.31a46 46 0 0 0 2.02 4.052 46 46 0 0 0 2.017-4.052c1.126-2.574 2.108-6.214 2.23-6.677-.37-4.305-1.428-8.962-2.428-9.087l-3.707.004c-.935.12-1.99 4.778-2.362 9.084.122.462 1.104 4.102 2.23 6.676" style="fill:#1e0e00;fill-opacity:1;fill-rule:nonzero;stroke:none" transform="matrix(1.33333 0 0 -1.33333 1.333 1122.667)"/><path d="M249.986 304.6s2.18.91 4.825 2.46 5.869 4.197 5.869 4.197 4.88 8.06 3.33 9.51l-3.052 2.218c-1.859 1.025-8.017-6.106-8.017-6.106s-1.52-3.885-2.177-6.879-.849-5.348-.849-5.348z" style="fill:#58bb58;fill-opacity:1;fill-rule:nonzero;stroke:none" transform="matrix(1.33333 0 0 -1.33333 1.333 1122.667)"/><path d="M252.543 317.223a.5.5 0 0 1-.092-.152c-.062-.16-1.543-3.958-2.201-6.957-.657-2.995-.852-5.322-.86-5.42-.014-.182.103-.386.25-.494.15-.108.38-.156.55-.085.09.037 2.243.942 4.887 2.491 2.65 1.553 5.804 4.135 5.937 4.244a.6.6 0 0 1 .116.134c1.196 1.977 4.967 8.551 3.241 10.168l-3.103 2.26c-2.127 1.177-7.215-4.44-8.725-6.19m8.16 5.302 2.998-2.182c.098-.092.143-.26.143-.49 0-1.391-1.66-5.073-3.573-8.248-.381-.31-3.307-2.672-5.727-4.09a46 46 0 0 0-4.014-2.092c.107.918.323 2.528.748 4.465.6 2.739 1.941 6.25 2.118 6.71 2.832 3.265 6.425 6.414 7.308 5.927" style="fill:#1e0e00;fill-opacity:1;fill-rule:nonzero;stroke:none" transform="matrix(1.33333 0 0 -1.33333 1.333 1122.667)"/><path d="M283.786 362.143c.116 5.967-.058 16.53-.146 27.086-.056 6.739-1.458 7.808-5.002 10.143-2.983 1.966-8.604 1.816-11.934-.403-2.632-1.756-5.008-6.134-9.828-9.653-5.528-4.036-11.846-6.581-14.303-9.3-3.332-3.689-3.334-8.425-1.456-11.529 1.667-2.754 3.476-3.12 9.266-5.057 9.156-3.063 19.16-6.449 24.276-8.073 9.946-3.159 7.753-.965 7.753-.965s1.172-2.54 1.374 7.751" style="fill:#bd0000;fill-opacity:1;fill-rule:nonzero;stroke:none" transform="matrix(1.33333 0 0 -1.33333 1.333 1122.667)"/><path d="M254.632 362.29c-1.47 2.277-1.73 5.5.84 8.101 1.895 1.921 6.432 3.386 10.706 6.201 3.725 2.454 5.686 5.801 7.722 7.02 2.573 1.543 7.398 1.775 9.721.3 0 0-.011-13.462-.245-18.376s-.468-10.179-.995-10.764-5.732.76-12.635 2.691-15.114 4.828-15.114 4.828" style="fill:#bd0000;fill-opacity:1;fill-rule:nonzero;stroke:none" transform="matrix(1.33333 0 0 -1.33333 1.333 1122.667)"/><path d="M273.628 384.064c-.962-.576-1.872-1.557-2.924-2.691-1.307-1.408-2.788-3.005-4.817-4.34-1.915-1.262-3.905-2.26-5.661-3.14-2.164-1.085-4.034-2.022-5.13-3.132-2.928-2.966-2.318-6.57-.907-8.756a.527.527 0 0 1 .884.571c-1.257 1.947-1.715 4.926.774 7.445.973.986 2.77 1.887 4.85 2.93 1.783.894 3.803 1.906 5.77 3.202 2.135 1.406 3.728 3.123 5.009 4.504.998 1.075 1.86 2.004 2.694 2.504 2.46 1.474 7.087 1.629 9.168.307a.526.526 0 1 1 .565.89c-2.442 1.55-7.435 1.407-10.275-.294" style="fill:#1e0e00;fill-opacity:1;fill-rule:nonzero;stroke:none" transform="matrix(1.33333 0 0 -1.33333 1.333 1122.667)"/><path d="M266.412 399.407c-1.223-.816-2.362-2.133-3.68-3.658-1.653-1.913-3.526-4.08-6.167-6.008-2.459-1.794-5.113-3.313-7.454-4.654-2.962-1.694-5.52-3.158-6.929-4.719-3.65-4.041-3.344-9.133-1.515-12.154 1.61-2.659 3.352-3.234 8.008-4.772l1.54-.51 6.486-2.175 17.8-5.902c7.19-2.284 8.175-1.848 8.532-1.26.012.02.008.041.017.062.498.202 1.12 1.175 1.262 8.476l-.066 18.84-.08 8.26c-.057 6.892-1.554 8.15-5.239 10.578-3.19 2.103-9.037 1.914-12.515-.404m8.407-43.548-17.783 5.896-6.487 2.174-1.544.513c-4.51 1.49-6.029 1.992-7.437 4.318-1.634 2.698-1.893 7.261 1.395 10.902 1.298 1.437 3.788 2.861 6.67 4.511 2.366 1.354 5.047 2.889 7.554 4.718 2.737 2 4.735 4.312 6.342 6.17 1.268 1.466 2.362 2.733 3.468 3.47 3.11 2.074 8.522 2.266 11.35.402 3.332-2.196 4.71-3.104 4.767-9.708l.08-8.264.065-18.808c-.099-5.093-.436-6.77-.63-7.325-.168.082-.358.108-.52-.004a.526.526 0 0 1-.179-.64c-.52-.044-2.095.08-7.111 1.675m8.045-1.268.051-.017a.5.5 0 0 0 .08-.266c-.04.1-.067.2-.13.283" style="fill:#1e0e00;fill-opacity:1;fill-rule:nonzero;stroke:none" transform="matrix(1.33333 0 0 -1.33333 1.333 1122.667)"/><path d="M272.119 368.062a.527.527 0 0 1-.103-.737l10.18-13.456a.526.526 0 1 1 .84.635l-10.18 13.455a.527.527 0 0 1-.737.103" style="fill:#1e0e00;fill-opacity:1;fill-rule:nonzero;stroke:none" transform="matrix(1.33333 0 0 -1.33333 1.333 1122.667)"/><path d="M274.24 354.815c-5.638 1.955-15.738 5.053-25.804 8.23-6.426 2.03-7.877 1.027-11.193-1.622-2.792-2.23-4.387-7.62-3.305-11.473.855-3.047 4.286-6.66 6.144-12.33 2.13-6.506 2.598-13.301 4.426-16.478 2.477-4.307 6.982-5.775 10.513-4.947 3.134.735 4.042 2.341 7.673 7.25 5.743 7.76 12.055 16.23 15.18 20.594 6.077 8.482 3.313 7.074 3.313 7.074s2.779.331-6.947 3.702" style="fill:#bd0000;fill-opacity:1;fill-rule:nonzero;stroke:none" transform="matrix(1.33333 0 0 -1.33333 1.333 1122.667)"/><path d="M265.09 327.133c-2.618-.694-5.763.055-7.443 3.303-1.24 2.396-1.233 7.164-2.59 12.098-1.182 4.301-3.76 7.2-4.29 9.513-.672 2.926.597 7.585 2.719 9.339 0 0 12.8-4.171 17.402-5.912 4.6-1.74 9.534-3.59 9.93-4.272.392-.681-2.496-5.218-6.465-11.186-3.97-5.969-9.262-12.883-9.262-12.883" style="fill:#bd0000;fill-opacity:1;fill-rule:nonzero;stroke:none" transform="matrix(1.33333 0 0 -1.33333 1.333 1122.667)"/><path d="M250.254 351.93c.25-1.094.902-2.262 1.655-3.614.936-1.677 1.996-3.58 2.64-5.922.608-2.212.942-4.412 1.236-6.354.363-2.394.676-4.461 1.395-5.846 1.915-3.702 5.53-4.237 8.046-3.569a.525.525 0 1 1-.27 1.018c-2.24-.595-5.215-.11-6.842 3.035-.637 1.23-.94 3.218-1.287 5.52-.3 1.97-.638 4.204-1.263 6.476-.677 2.464-1.818 4.51-2.735 6.156-.714 1.28-1.331 2.388-1.55 3.335-.641 2.794.642 7.244 2.541 8.815a.526.526 0 1 1-.67.811c-2.23-1.843-3.637-6.636-2.896-9.862" style="fill:#1e0e00;fill-opacity:1;fill-rule:nonzero;stroke:none" transform="matrix(1.33333 0 0 -1.33333 1.333 1122.667)"/><path d="M233.432 349.807c.397-1.415 1.298-2.906 2.342-4.63 1.307-2.163 2.79-4.614 3.808-7.721.947-2.893 1.57-5.888 2.122-8.528.696-3.341 1.298-6.225 2.347-8.049 2.716-4.72 7.653-6.002 11.09-5.196 3.027.71 4.113 2.188 7.014 6.14l.963 1.309 4.07 5.495 11.114 15.105c4.395 6.134 4.284 7.204 3.836 7.726-.016.018-.038.019-.054.036-.04.535-.772 1.426-7.671 3.818l-17.938 5.76-7.88 2.476c-6.573 2.075-8.234 1.04-11.68-1.713-2.986-2.385-4.613-8.005-3.483-12.028m44.014-5.462-11.104-15.091-4.07-5.497-.965-1.31c-2.811-3.828-3.757-5.118-6.406-5.739-3.07-.72-7.49.443-9.937 4.697-.965 1.677-1.55 4.486-2.23 7.737-.556 2.669-1.187 5.692-2.151 8.64-1.056 3.223-2.638 5.838-3.908 7.94-1.004 1.658-1.87 3.092-2.23 4.37-1.01 3.6.479 8.806 3.126 10.92 3.117 2.49 4.407 3.52 10.705 1.532l7.884-2.477 17.908-5.75c4.813-1.668 6.304-2.506 6.772-2.862-.13-.135-.214-.309-.156-.496a.53.53 0 0 1 .341-.347.5.5 0 0 1 .211-.02c-.117-.51-.723-1.968-3.79-6.247m3.692 7.26.033.043c.097.026.192.02.278-.005-.109-.01-.211-.003-.31-.038" style="fill:#1e0e00;fill-opacity:1;fill-rule:nonzero;stroke:none" transform="matrix(1.33333 0 0 -1.33333 1.333 1122.667)"/><path d="m281.273 351.742-15.942-5.523a.527.527 0 0 1 .345-.995l15.942 5.523a.526.526 0 1 1-.345.995" style="fill:#1e0e00;fill-opacity:1;fill-rule:nonzero;stroke:none" transform="matrix(1.33333 0 0 -1.33333 1.333 1122.667)"/><path d="M278.272 343.444c-3.602-4.76-9.669-13.408-15.802-21.999-3.915-5.485-3.41-7.174-1.915-11.146 1.257-3.344 5.892-6.527 9.89-6.688 3.162-.13 7.659 2.018 13.626 2.032 6.845.015 13.453-1.639 17.038-.883 4.862 1.026 7.65 4.856 7.954 8.47.27 3.208-.978 4.568-4.523 9.538-5.606 7.86-11.712 16.48-14.896 20.8-6.189 8.402-5.704 5.338-5.704 5.338s.543 2.745-5.668-5.462" style="fill:#bd0000;fill-opacity:1;fill-rule:nonzero;stroke:none" transform="matrix(1.33333 0 0 -1.33333 1.333 1122.667)"/><path d="M301.771 326.188c-.147-2.706-1.833-5.465-5.44-6.06-2.663-.44-7.195 1.041-12.307 1.276-4.456.204-8.008-1.35-10.373-1.14-2.99.264-7.03 2.912-8.042 5.47 0 0 7.923 10.886 11 14.725 3.078 3.836 6.361 7.958 7.132 8.122.77.165 4.191-3.985 8.641-9.603 4.45-5.62 9.39-12.79 9.39-12.79" style="fill:#bd0000;fill-opacity:1;fill-rule:nonzero;stroke:none" transform="matrix(1.33333 0 0 -1.33333 1.333 1122.667)"/><path d="M273.605 319.739c1.118-.1 2.428.16 3.947.458 1.885.371 4.022.792 6.448.68 2.292-.104 4.488-.467 6.426-.788 2.39-.394 4.452-.735 5.99-.48 4.113.678 5.74 3.952 5.88 6.55a.526.526 0 1 1-1.05.058c-.127-2.315-1.508-4.994-5.002-5.57-1.366-.225-3.35.103-5.646.48-1.967.326-4.197.695-6.55.803-2.552.117-4.852-.336-6.7-.7-1.438-.284-2.682-.528-3.651-.442-2.856.253-6.691 2.848-7.597 5.14a.526.526 0 1 1-.98-.387c1.065-2.69 5.188-5.51 8.485-5.802" style="fill:#1e0e00;fill-opacity:1;fill-rule:nonzero;stroke:none" transform="matrix(1.33333 0 0 -1.33333 1.333 1122.667)"/><path d="M270.425 303.084c1.469-.06 3.164.337 5.127.797 2.461.575 5.25 1.227 8.52 1.235 3.044.007 6.085-.325 8.767-.616 3.391-.37 6.32-.69 8.378-.254 5.33 1.123 8.075 5.422 8.37 8.941.262 3.097-.811 4.587-3.673 8.568l-.947 1.319-3.967 5.57-10.933 15.237c-4.474 6.076-5.526 6.3-6.16 6.035-.023-.009-.031-.028-.052-.04-.522.129-1.596-.292-6.002-6.115l-11.021-15.28-4.791-6.73c-4.003-5.609-3.533-7.508-1.98-11.637 1.346-3.576 6.189-6.862 10.364-7.03m18.795 40.173 10.921-15.223 3.97-5.571.948-1.323c2.773-3.856 3.706-5.155 3.48-7.866-.265-3.142-2.736-6.986-7.538-7.998-1.894-.4-4.747-.089-8.048.27-2.71.296-5.78.63-8.884.623-3.39-.008-6.366-.704-8.757-1.263-1.888-.442-3.52-.823-4.844-.77-3.738.151-8.228 3.177-9.42 6.348-1.405 3.734-1.987 5.28 1.85 10.654l4.792 6.733 11.003 15.255c3.074 4.062 4.332 5.22 4.816 5.556.087-.166.226-.298.422-.302a.53.53 0 0 1 .436.217.5.5 0 0 1 .085.195c.447-.27 1.647-1.296 4.768-5.535m-5.763 5.755-.03.044c.003.1.039.189.09.263-.025-.106-.062-.202-.06-.307" style="fill:#1e0e00;fill-opacity:1;fill-rule:nonzero;stroke:none" transform="matrix(1.33333 0 0 -1.33333 1.333 1122.667)"/><path d="M283.884 349.719a.525.525 0 0 1-.515-.536l.326-16.869a.527.527 0 0 1 1.053.02l-.327 16.87a.527.527 0 0 1-.537.515" style="fill:#1e0e00;fill-opacity:1;fill-rule:nonzero;stroke:none" transform="matrix(1.33333 0 0 -1.33333 1.333 1122.667)"/><path d="M290.37 343.875c3.412-4.895 9.761-13.338 16.039-21.826 4.006-5.419 5.769-5.46 10.008-5.265 3.57.162 8.028 3.587 9.417 7.34 1.098 2.967.447 7.906 2.277 13.586 2.1 6.516 5.717 12.288 6.105 15.932.528 4.941-2.253 8.775-5.597 10.181-2.969 1.248-4.647.483-10.47-1.354-9.209-2.904-19.291-6.046-24.385-7.739-9.903-3.29-6.839-3.775-6.839-3.775s-2.442 1.365 3.444-7.08" style="fill:#bd0000;fill-opacity:1;fill-rule:nonzero;stroke:none" transform="matrix(1.33333 0 0 -1.33333 1.333 1122.667)"/><path d="M314.043 360.893c2.527-.977 4.63-3.432 4.08-7.048-.403-2.667-3.212-6.52-5.016-11.309-1.57-4.174-1.19-8.035-2.12-10.218-1.176-2.762-4.942-5.785-7.689-5.958 0 0-7.904 10.9-10.603 15.012-2.7 4.112-5.604 8.51-5.522 9.293s5.085 2.754 11.805 5.25 15.065 4.978 15.065 4.978" style="fill:#bd0000;fill-opacity:1;fill-rule:nonzero;stroke:none" transform="matrix(1.33333 0 0 -1.33333 1.333 1122.667)"/><path d="M311.472 332.112c.439 1.032.598 2.36.783 3.895.23 1.909.49 4.07 1.346 6.344.808 2.146 1.832 4.123 2.734 5.868 1.113 2.15 2.076 4.006 2.309 5.548.627 4.12-1.985 6.679-4.412 7.616a.525.525 0 1 1-.38-.981c2.162-.837 4.284-2.978 3.752-6.477-.209-1.37-1.133-3.155-2.203-5.222-.917-1.77-1.956-3.777-2.786-5.982-.9-2.391-1.18-4.718-1.405-6.587-.176-1.457-.326-2.715-.708-3.61-1.123-2.638-4.775-5.483-7.236-5.638a.525.525 0 1 1 .066-1.05c2.886.18 6.843 3.23 8.14 6.276" style="fill:#1e0e00;fill-opacity:1;fill-rule:nonzero;stroke:none" transform="matrix(1.33333 0 0 -1.33333 1.333 1122.667)"/><path d="M326.328 323.94c.51 1.38.658 3.115.827 5.123.213 2.519.455 5.374 1.459 8.486.933 2.897 2.188 5.686 3.294 8.146 1.4 3.112 2.608 5.799 2.831 7.89.577 5.415-2.662 9.354-5.918 10.724-2.865 1.205-4.612.646-9.283-.846l-1.546-.492-6.524-2.053-17.87-5.689c-7.161-2.378-7.7-3.31-7.645-3.995.003-.023.02-.038.024-.06-.285-.457-.216-1.608 3.96-7.599l11.126-15.203 4.922-6.636c4.097-5.542 6.047-5.68 10.455-5.479 3.818.175 8.438 3.766 9.888 7.684m-32.398 30.29 17.853 5.682 6.525 2.054 1.55.493c4.524 1.445 6.049 1.932 8.557.878 2.906-1.222 5.8-4.76 5.277-9.64-.204-1.925-1.382-4.542-2.744-7.57-1.119-2.486-2.386-5.304-3.337-8.256-1.04-3.227-1.297-6.273-1.506-8.72-.163-1.932-.304-3.6-.764-4.845-1.299-3.509-5.563-6.844-8.948-6.998-3.986-.182-5.635-.258-9.561 5.052L301.91 329l-11.11 15.178c-2.913 4.178-3.625 5.732-3.795 6.297.184.032.352.123.417.308a.514.514 0 0 1-.23.622c.394.343 1.741 1.167 6.737 2.826m-7.254-3.703-.052-.016a.5.5 0 0 0-.223.168c.094-.057.175-.122.275-.152" style="fill:#1e0e00;fill-opacity:1;fill-rule:nonzero;stroke:none" transform="matrix(1.33333 0 0 -1.33333 1.333 1122.667)"/><path d="M286.135 351.153a.526.526 0 0 1 .352-.656l16.142-4.903a.527.527 0 0 1 .308 1.008l-16.145 4.902a.526.526 0 0 1-.657-.35" style="fill:#1e0e00;fill-opacity:1;fill-rule:nonzero;stroke:none" transform="matrix(1.33333 0 0 -1.33333 1.333 1122.667)"/><path d="M293.764 355.483c5.711 1.734 15.702 5.163 25.714 8.508 6.392 2.136 6.976 3.8 8.102 7.893.947 3.445-.932 8.744-4.072 11.225-2.482 1.961-7.381 2.868-12.217 6.364-5.547 4.01-9.92 9.234-13.266 10.73-4.537 2.027-9.042.568-11.414-2.179-2.103-2.437-1.893-4.27-1.945-10.375-.085-9.655-.212-20.215-.177-25.584.07-10.434 1.478-7.67 1.478-7.67s-2.053-1.9 7.797 1.088" style="fill:#bd0000;fill-opacity:1;fill-rule:nonzero;stroke:none" transform="matrix(1.33333 0 0 -1.33333 1.333 1122.667)"/><path d="M284.895 383.256c1.71 2.102 4.694 3.344 7.963 1.703 2.413-1.208 5.209-5.07 9.206-8.265 3.485-2.784 7.274-3.615 9.062-5.173 2.264-1.973 3.976-6.489 3.291-9.154 0 0-12.807-4.15-17.553-5.445-4.745-1.297-9.825-2.7-10.545-2.381-.718.32-1.048 5.688-1.345 12.85-.297 7.16-.08 15.865-.08 15.865" style="fill:#bd0000;fill-opacity:1;fill-rule:nonzero;stroke:none" transform="matrix(1.33333 0 0 -1.33333 1.333 1122.667)"/><path d="M311.473 371.917c-.846.737-2.06 1.299-3.463 1.95-1.743.807-3.72 1.723-5.617 3.239-1.792 1.432-3.356 3.016-4.735 4.414-1.701 1.724-3.17 3.212-4.564 3.91-3.726 1.87-6.966.176-8.608-1.842a.527.527 0 0 1 .817-.665c1.463 1.799 4.155 3.154 7.32 1.566 1.238-.62 2.65-2.051 4.285-3.709 1.4-1.418 2.988-3.026 4.827-4.496 1.997-1.596 4.123-2.581 5.832-3.373 1.331-.617 2.48-1.15 3.214-1.787 2.162-1.885 3.74-6.238 3.126-8.625a.527.527 0 1 1 1.02-.263c.72 2.803-.96 7.507-3.454 9.681" style="fill:#1e0e00;fill-opacity:1;fill-rule:nonzero;stroke:none" transform="matrix(1.33333 0 0 -1.33333 1.333 1122.667)"/><path d="M323.835 383.522c-1.153.911-2.758 1.587-4.616 2.37-2.33.98-4.97 2.092-7.62 4.008-2.466 1.784-4.73 3.838-6.73 5.651-2.527 2.293-4.708 4.273-6.629 5.132-4.971 2.222-9.719.358-12.027-2.315-2.031-2.353-2.04-4.188-2.064-9.091l-.01-1.623-.064-6.84-.113-18.752c.051-7.545.77-8.346 1.439-8.505.023-.005.042.006.065.003.346-.41 1.463-.701 8.45 1.42l17.897 5.884 7.832 2.629c6.536 2.184 7.27 3.997 8.442 8.25 1.013 3.685-.974 9.188-4.252 11.779m-38.819-21.453.112 18.735.063 6.841.01 1.627c.024 4.75.032 6.349 1.808 8.408 2.062 2.387 6.321 4.045 10.8 2.04 1.768-.788 3.892-2.717 6.352-4.948 2.02-1.832 4.307-3.908 6.821-5.726 2.748-1.986 5.564-3.172 7.828-4.125 1.786-.752 3.33-1.403 4.371-2.226 2.935-2.318 4.79-7.405 3.891-10.672-1.059-3.846-1.497-5.438-7.76-7.532l-7.834-2.63-17.867-5.874c-4.875-1.48-6.574-1.676-7.163-1.664.027.186-.009.375-.163.492a.53.53 0 0 1-.482.081.6.6 0 0 1-.183-.107c-.204.481-.571 2.017-.604 7.28m1.28-8.043v-.054a.5.5 0 0 0-.23-.16c.083.072.17.128.23.214" style="fill:#1e0e00;fill-opacity:1;fill-rule:nonzero;stroke:none" transform="matrix(1.33333 0 0 -1.33333 1.333 1122.667)"/><path d="m295.054 368.278-9.65-13.84a.526.526 0 1 1 .863-.603l9.651 13.84a.525.525 0 1 1-.864.603" style="fill:#1e0e00;fill-opacity:1;fill-rule:nonzero;stroke:none" transform="matrix(1.33333 0 0 -1.33333 1.333 1122.667)"/><path d="M290.104 353.895s-3.393-1.463-3.568-2.75 1.345-4.622 1.345-4.622-2.984 2.809-3.978 2.809-3.452-2.575-3.452-2.575 1.463 3.862 1.111 4.681c-.35.82-3.568 2.632-3.568 2.632s4.037-.819 4.857 0c.818.82 1.228 4.213 1.228 4.213s.483-4.184 1.887-4.418 4.138.03 4.138.03" style="fill:#000;fill-opacity:1;fill-rule:nonzero;stroke:none" transform="matrix(1.33333 0 0 -1.33333 1.333 1122.667)"/></svg>