<svg xmlns="http://www.w3.org/2000/svg" xml:space="preserve" viewBox="126.37 96 723.07 808"><path d="M150.561 616.892c1.021-44.527 12.436-86.749 27.863-128.186 11.893-31.942 24.114-63.786 31.749-97.159 13.239-57.866-1.302-108.668-38.309-153.98-12.102-14.818-12.042-14.793.233-29.888 16.741-20.589 33.846-40.908 49.879-62.036 6.293-8.292 11.672-8.594 19.924-3.862 26.53 15.213 54.605 26.083 85.239 30.025 65.493 8.427 118.313-14.409 160.148-64.294 12.762-15.218 12.136-15.375 24.676-.301 83.423 100.276 189.122 65.756 248.404 33.246 6.023-3.303 10.5-2.861 14.831 2.525 19.716 24.514 39.486 48.986 59.36 73.373 4.766 5.848 2.064 10.031-1.778 14.952-17.557 22.486-33.542 45.837-41.947 73.644-11.358 37.576-6.63 74.405 5.103 110.662 12.361 38.194 27.119 75.645 38.603 114.084 11.834 39.61 19.685 79.633 11.584 121.945-12.383 64.679-48.13 110.712-104.871 141.993-33.214 18.311-68.805 29.589-105.993 36.496-50.028 9.293-95.761 26.833-128.015 69.081-5.613 7.353-10.274 5.554-15.243-.746-27.3-34.613-63.671-54.101-106.169-63.396-18.522-4.051-37.176-7.681-55.432-12.723-47.428-13.099-91.102-33.222-125.931-69.391-36.634-38.045-52.843-84.028-53.908-136.064m354.923 251.825q-758.226-1303.075 0 0" style="display:inline;fill:#fff;fill-opacity:1;fill-rule:evenodd"/><path d="M150.561 616.892c1.021-44.527 12.436-86.749 27.863-128.186 11.893-31.942 24.114-63.786 31.749-97.159 13.239-57.866-1.302-108.668-38.309-153.98-12.102-14.818-12.042-14.793.233-29.888 16.741-20.589 33.846-40.908 49.879-62.036 6.293-8.292 11.672-8.594 19.924-3.862 26.53 15.213 54.605 26.083 85.239 30.025 65.493 8.427 118.313-14.409 160.148-64.294 12.762-15.218 12.136-15.375 24.676-.301 57.462 69.07 137.601 82.456 216.873 49.027 10.811-4.559 21.23-10.132 31.531-15.781 6.023-3.303 10.5-2.861 14.831 2.525 19.716 24.514 39.486 48.986 59.36 73.373 4.766 5.848 2.064 10.031-1.778 14.952-17.557 22.486-33.542 45.837-41.947 73.644-11.358 37.576-6.63 74.405 5.103 110.662 12.361 38.194 27.119 75.645 38.603 114.084 11.834 39.61 19.685 79.633 11.584 121.945-12.383 64.679-48.13 110.712-104.871 141.993-33.214 18.311-68.805 29.589-105.993 36.496-50.028 9.293-95.761 26.833-128.015 69.081-5.613 7.353-10.274 5.554-15.243-.746-27.3-34.613-63.671-54.101-106.169-63.396-18.522-4.051-37.176-7.681-55.432-12.723-47.428-13.099-91.102-33.222-125.931-69.391-36.634-38.045-52.843-84.028-53.908-136.064m88.685-451.508c-5.695-.062-7.671 2.832-9.829 5.477-11.977 14.682-23.808 29.487-36.02 43.972-4.763 5.65-4.901 10.447-.054 15.951 2.992 3.396 5.355 7.343 8.025 11.025 32.057 44.211 42.346 93.184 31.739 146.552-6.973 35.084-19.847 68.352-32.298 101.726-16.232 43.508-29.377 87.388-27.749 134.833 1.871 54.508 24.508 97.695 66.691 131.13 38.187 30.266 83.394 44.414 130.207 53.801 46.832 9.391 91.262 23.122 125.07 59.473 3.909 4.203 7.069 3.008 10.456-.607 30.995-33.084 71.124-47.809 114.187-56.688 39.852-8.217 79.208-18.026 114.812-38.737 46.472-27.032 78.504-65.083 89.022-118.898 6.658-34.067 3.994-68.032-4.439-101.392-10.508-41.567-27.436-81.065-40.916-121.686-12.435-37.471-20.368-75.451-12.912-114.999 5.652-29.982 19.294-56.717 37.62-80.714 7.865-10.299 7.068-17.237-.996-26.28-11.087-12.433-21.394-25.595-31.487-38.861-4.181-5.495-7.708-6.931-14.155-3.574-12.763 6.645-25.989 12.301-39.781 16.699-78.27 24.96-147.729 9.854-206.99-46.906-9.719-9.309-13.158-6.985-20.733.65-31.433 31.683-69.038 51.273-113.888 56.338-42.797 4.833-82.907-4.346-121.551-22.008-5.137-2.346-10.311-4.614-14.031-6.277" style="display:inline;fill:#340c6f;fill-opacity:1"/><path d="M501.493 661.717q.001 82.423-.002 164.845c0 3.41.105 6.829-.091 10.229-.168 2.912.845 6.553-2.355 8.256-3.351 1.783-5.634-1.393-7.894-3.093-12.752-9.596-26.037-18.173-40.509-25.114-25.586-12.272-52.961-18.207-80.365-24.322-40.181-8.967-79.235-20.772-113.382-45.058-49.883-35.476-70.434-84.445-67.033-144.473 2.417-42.668 17.86-81.915 32.262-121.443 2.855-7.837 8.644-8.246 15.456-8.237 67.53.088 135.059.051 202.589.049 15.555 0 31.132-.511 46.655.19 9.243.417 12.18-2.024 12.139-11.818-.396-96.254-.236-192.511-.234-288.766 0-3.032-.141-6.073.054-9.092.186-2.888-.954-6.63 2.48-8.114 3.446-1.488 5.402 1.873 7.573 3.78 25.506 22.412 54.602 37.949 87.524 46.542 42.943 11.208 84.969 6.666 126.513-6.746 9.361-3.022 18.671-6.408 27.585-10.531 6.627-3.065 11.109-2.744 15.487 3.569 5.173 7.458 10.842 14.644 16.928 21.377 5.472 6.053 5.804 11.514 1.391 18.283-6.616 10.147-13.095 20.438-18.809 31.108-27.422 51.204-24.746 104.23-8.681 157.837 4.456 14.87 9.621 29.538 14.824 44.17 2.533 7.122 1.812 10.514-6.967 10.507-49.665-.039-99.331.494-148.996.436-33.751-.039-67.515-.294-101.244-1.382-10.57-.341-13.087 3.634-13.051 13.068.218 57.98.109 115.962.109 173.942zM361.072 524.059v.068c-18.202 0-36.41.278-54.604-.115-9.291-.201-12.757 3.381-12.605 12.711.345 21.203-.042 42.42-.249 63.63-.344 35.2-.643 70.401-1.28 105.596-.146 8.078 2.467 12.037 11.007 11.678 9.075-.381 18.18-.314 27.265-.128 6.242.127 7.51-3.179 7.533-8.593.084-19.669.768-39.338.589-59.002-.069-7.594 2.926-10.081 10.052-9.967 14.786.234 29.58.228 44.368.057 28.978-.336 25.563 4.279 25.944-27.391.093-7.743-2.845-10.923-10.69-10.788-17.439.299-34.886.1-52.331.082-17.513-.018-17.498-.03-17.504-16.928-.001-3.783.146-7.599-.281-11.342-.955-8.368 2.544-11.575 10.942-11.48 18.575.209 37.247.896 55.713-.626 24.659-2.033 23.162 4.305 23.555-25.134.128-9.584-3.749-12.634-12.82-12.443-18.193.385-36.401.115-54.604.115m270.634-274.607c-19.973-.279-20.126-.336-27.229 18.61-7.312 19.502-14.296 39.127-21.403 58.706-10.985 30.259-22.055 60.487-32.876 90.804-4.096 11.478-3.18 12.855 8.406 12.767 29.888-.227 23.158 3.509 32.742-23.208.639-1.782 1.431-3.557 1.74-5.403 1.566-9.363 7.571-12.064 16.328-11.844 12.506.315 25.114.964 37.518-.216 13.633-1.297 19.312 4.479 23.25 17.001 8.801 27.985 2.587 22.997 33.204 23.856 10.328.29 11.354-3.313 8.154-12.07-18.457-50.511-36.48-101.181-54.836-151.73-6.21-17.104-6.458-17.014-24.998-17.273" style="fill:#340c6f;background:red"/><path d="M587.91 620.971c-1.017 16.902 1.218 31.182 10.198 44.7 16.51 24.855 64.133 22.165 75.212-4.165 2.283-5.426 3.488-14.02 10.952-14.773 10.86-1.095 21.993-.859 32.877.191 6.112.589 4.109 6.298 2.743 10.085-23.58 65.375-93.4 83.892-140.942 44.224-52.231-43.58-45.934-131.761 12.322-166.88 39.242-23.657 91.364-11.201 115.888 27.754 4.644 7.377 8.898 14.968 11.941 23.196 4.279 11.569 3.135 13.511-8.798 13.759-6.064.126-12.151-.305-18.194.06-7.958.481-12.439-2.804-15.365-10.327-6.64-17.074-19.231-26.637-37.913-27.807-28.97-1.813-48.975 15.491-50.867 44.423-.37 5.656-.054 11.357-.054 15.56M372.013 392.71c-38.686.653-31.037-5.39-42.364 30.463-2.322 7.35-6.418 10.244-14.053 10.175-38.999-.356-33.919 2.642-22.525-30.011 16.852-48.297 35.026-96.132 52.177-144.328 3.204-9.003 8.381-12.284 17.59-12.495 29.181-.669 29.375-.97 39.297 26.278 18.026 49.501 35.653 99.148 53.786 148.61 3.27 8.92.551 12.013-8.189 11.81-1.896-.044-3.794.063-5.691.048-30.829-.244-25.075 2.79-33.177-24.151-4.013-13.342-10.562-17.663-23.196-16.457-4.513.43-9.102.068-13.655.058m-1.217-91.557c-4.22 11.669-8.039 21.793-11.551 32.022-9.56 27.847-7.317 30.518 22.125 26.818.375-.047.755-.054 1.132-.079 5.439-.365 7.393-3.252 5.91-8.4-4.778-16.587-9.695-33.129-17.616-50.361m259.713 61.749c-25.248.109-25.112.16-16.172-24.101 4.042-10.969 7.402-22.188 11.11-33.28.94-2.811 1.283-6.704 4.702-7.127 4.014-.496 4.176 3.753 5.098 6.378 5.126 14.599 10.264 29.2 14.99 43.931 4.185 13.043 3.293 13.997-10.659 14.194-3.022.041-6.046.005-9.069.005" style="fill:#340c6f"/></svg>