<svg xmlns="http://www.w3.org/2000/svg" xmlns:xlink="http://www.w3.org/1999/xlink" viewBox="-0.05 0 400.05 351.32"><g transform="translate(-.052)scale(.86209)"><defs><path id="b" d="M.06 0h463.988v407.465H.06z"/></defs><clipPath id="c"><use xlink:href="#b" width="100%" height="100%" overflow="visible" style="overflow:visible"/></clipPath><path d="M306.224 5.364c-2.98 3.53-4.033 8.128-6.033 12.16-2.279.606-4.725.82-6.732 2.152-3.117 1.832-4.973 5.036-6.576 8.159-5.848-3.012-12.295-5.945-19.028-5.187-7.067 1.673-11.745 7.793-15.96 13.251-4.494-2.27-9.229-4.9-14.432-4.526-4.422.534-7.769 3.802-10.829 6.741-10.805 9.905-21.738 19.715-31.643 30.528-2.399 2.885-5.57 5.729-5.617 9.778-.375 6.127.94 12.191 1.839 18.224-27.092 8.518-54.185 17.052-81.286 25.539-3.252.98-6.024 3.02-8.933 4.693C67.335 146.831 33.651 166.768 0 186.736c2.024 3.307 5.092 6.207 9.084 6.765 7.586 1.124 15.212-.98 22.822-.366 3.051.295 5.65 2.159 7.913 4.095 5.49 4.965 9.769 11.084 13.809 17.245 6.925 10.772 12.798 22.2 17.89 33.946 2.223 5.361 4.438 10.788 5.673 16.478 1.291 5.506-1.379 10.941-4.439 15.364-4.741 7.076-11.817 12.12-16.909 18.885-2.542 5.012-.502 10.87.829 15.961 42.958-22.025 85.821-44.265 128.732-66.362 1.952-.885 4.733-1.243 6.151.741 2.072 2.854.781 6.661-.653 9.506-3.299 6.208-8.16 11.437-13.172 16.306-1.538 1.713-3.912 1.999-6 2.612-12.502 3.299-24.663 8.925-33.906 18.152l.007-.002-.007.003-15.51 90.929h.001a7.6 7.6 0 0 0-.07 2.24c.152 4.415 3.124 8.24 6.909 10.304 6.295 3.555 13.562 4.86 20.631 5.952 18.375 2.303 37.165 3.116 55.484-.055 15.547-2.749 30.361-8.678 44.226-16.121 7.084-3.61 13.188-8.805 19.045-14.112 12.717 4.064 25.395 8.264 37.986 12.702 8.271 2.932 16.391 6.287 24.82 8.734 13.984 4.15 28.648 7.114 43.293 5.729 12.957-1.634 24.496-8.886 34.258-17.18l-.006.002.006-.003 1.834-108.969.002-.112c.02-1.28-.117-2.549-.57-3.755-1.098-2.757-4.189-3.928-6.924-4.24-4.924-.701-9.555 1.65-13.506 4.32-9.363-13.292-18.734-26.591-28.807-39.366-2.725-3.258-5.34-6.709-6.78-10.749-4.05-10.765-3.22-22.662-.767-33.69.846-4.559 3.563-8.407 5.938-12.264 13.043-20.248 27.547-39.5 40.75-59.636 2.072-3.324 4.424-6.638 5.195-10.551 1.363-6.686.59-13.546.59-20.304 1.563-1.921 3.992-2.933 5.969-4.391 17.387-11.681 34.959-23.108 52.227-34.966-4.344-1.107-8.86-1.593-13.086-3.067-3.529-5.028-6.469-10.471-9.848-15.619-.686-1.347-2.088-2.661-1.609-4.311.717-3.793 1.602-7.546 2.174-11.363-17.666 6.957-35.221 14.2-52.822 21.308-1.434-.654-2.878-1.299-4.383-1.753-11.133-3.267-22.161-6.885-33.117-10.71-10.965-4.725-20.639-11.968-29.803-19.515-5.035-3.267-12.049-.765-15.332 3.881z" clip-path="url(#c)" style="clip-rule:evenodd;fill:#fff;fill-rule:evenodd"/><path d="m324.644 377.256 3.277 1.037v-11.667l8.07 2.479v-3.518l-8.07-2.478v-6.153l8.07 2.398v-3.438l-11.348-3.437v24.777m62.311-15.265.24-3.677c-1.438-.479-2.797-.718-4.156-.718-1.357 0-2.797.16-4.234.638a16.9 16.9 0 0 0-4.795 2.399 16 16 0 0 0-3.676 3.676c-1.039 1.357-1.758 2.877-2.318 4.474a15.9 15.9 0 0 0-.719 4.795c0 1.6.24 3.037.719 4.396.561 1.438 1.279 2.557 2.318 3.516s2.236 1.758 3.676 2.157c1.438.479 3.037.544 4.875.4 1.438-.08 2.877-.48 4.234-.959 1.279-.56 2.559-1.278 3.756-2.237v-3.916c-2.557 1.837-5.113 2.957-8.312 3.436q-3.594.48-5.753-1.678c-1.438-1.438-2.078-3.356-2.078-5.834 0-2.557.641-4.795 2.158-6.793s3.516-3.436 6.074-4.235c2.798-.72 5.274-.72 7.991.16m-114.334-.638 4.795 1.198 1.039.239c2.557.641 4.314.879 5.514.879 1.119-.079 2.158-.398 3.037-.959 1.197-.799 2.078-1.918 2.717-3.437.639-1.438.959-3.196.959-5.354 0-2.077-.32-4.075-.959-5.913-.639-1.759-1.52-3.438-2.717-4.875-.879-1.119-1.918-1.998-3.117-2.718q-1.798-1.08-6.473-2.637l-4.795-1.438zm3.596-2.717v-17.581l1.279.398 1.277.4c1.84.559 3.117 1.039 3.996 1.518.799.56 1.52 1.198 2.078 1.918.8 1.038 1.359 2.157 1.757 3.437a14.2 14.2 0 0 1 .642 4.235c0 1.518-.24 2.798-.642 3.837-.397 1.037-.957 1.918-1.757 2.476-.559.401-1.279.64-2.078.64-.799.08-1.997-.16-3.596-.559zm-47.869-29.011 5.435.881v-3.438l-14.385-2.477v3.516l5.594.959v21.257l3.356.48zm17.341 25.175 12.945 2.797V354l-9.189-1.998v-8.071l9.189 1.918v-3.597l-9.189-1.838v-6.152l9.189 1.758v-3.518l-12.945-2.397zm-43.393-6.714h3.037v-24.692h-3.037zm-62.333-11.107v15.423c0 3.357.719 5.594 2.078 6.872 1.358 1.2 3.356 1.36 6.233.479 2.798-.879 4.955-2.397 6.394-4.555 1.438-2.157 2.157-5.034 2.157-8.391v-15.743l-3.437 1.199v15.263c0 2.318-.399 4.156-1.278 5.515-.879 1.438-2.157 2.478-3.836 2.956q-2.517.84-3.835-.479c-.8-.799-1.279-2.398-1.279-4.635v-15.024zm27.331 14.383 3.596-.398v-17.183c.319.48.719.959 1.119 1.279q.48.718 1.199 1.198l15.502 13.346v-25.893l-3.595.479v17.262c-.48-.559-.959-1.039-1.359-1.518-.399-.4-.879-.799-1.278-1.2l-15.184-12.946zm221.522-4.633 13.663-3.277v-5.595l-7.75 1.838v-4.075l7.272-1.758v-5.354l-7.272 1.838v-4.316l7.75-1.918v-5.433l-13.663 3.354zm-22.216 1.437v-8.15h2.318c2.078 0 3.596-.161 4.555-.4a7.9 7.9 0 0 0 2.479-1.119c.957-.719 1.598-1.599 2.076-2.717.48-1.119.719-2.396.719-3.916 0-1.357-.238-2.636-.719-3.756a7.34 7.34 0 0 0-2.076-2.796c-.801-.72-1.76-1.12-2.799-1.439-1.117-.239-3.115-.398-5.834-.398h-7.031v24.692h6.312zm0-13.506v-5.834h1.359c1.598 0 2.717.24 3.275.641.641.479.959 1.197.959 2.236s-.318 1.838-.959 2.238q-.959.719-3.355.719zm-33.084 9.271 6.074 1.598v-9.749l5.674 11.269 7.91 2.157-7.031-12.227c1.837 0 3.275-.4 4.234-1.439 1.039-1.039 1.521-2.557 1.521-4.635 0-1.357-.241-2.637-.802-3.836-.479-1.199-1.197-2.237-2.157-3.196a10.5 10.5 0 0 0-2.875-1.839c-1.04-.479-3.038-.959-5.755-1.517l-6.793-1.2zm6.074-11.587v-6.634l1.357.239q2.16.48 3.116 1.439c.64.719.96 1.678.96 3.037 0 1.039-.32 1.758-1.039 2.156-.719.32-1.758.4-3.117.08zm-10.469-1.52c0-1.838-.32-3.595-.959-5.433-.64-1.839-1.599-3.598-2.797-5.276a21.8 21.8 0 0 0-4.156-4.394c-1.678-1.28-3.277-2.238-5.035-2.877a13.1 13.1 0 0 0-5.113-.801c-1.68.08-3.117.561-4.396 1.358a8 8 0 0 0-2.957 3.358c-.719 1.437-1.039 3.036-1.039 4.954 0 1.838.32 3.677 1.039 5.595.641 1.918 1.678 3.675 2.957 5.433 1.279 1.678 2.717 3.117 4.396 4.316a17.3 17.3 0 0 0 5.113 2.636c1.758.56 3.357.8 5.035.64a9.3 9.3 0 0 0 4.156-1.519c1.198-.878 2.157-1.918 2.797-3.276.639-1.356.959-2.956.959-4.714m-12.947 3.037c-1.918-.639-3.516-1.839-4.715-3.757a10.6 10.6 0 0 1-1.838-5.993c0-2.237.639-3.836 1.838-4.795 1.279-1.039 2.797-1.198 4.715-.559 1.838.72 3.357 1.918 4.555 3.836 1.199 1.838 1.84 3.836 1.84 5.914 0 2.156-.641 3.756-1.84 4.795-1.198 1.039-2.717 1.198-4.555.559m-60.256-11.828 6.793 1.28v-18.941l5.355 1.199v-5.754l-17.822-4.155v5.993l5.674 1.28zm18.381 4.477 6.314 1.678v-10.149l8.471 2.237v10.15l6.473 1.758V307.17l-6.473-1.679v9.749l-8.471-2.236v-9.67l-6.314-1.599zm-55.381-11.429 6.474 1.039v-12.227c0-.64 0-1.359-.08-2.158s-.16-1.757-.32-2.797c.479 1.12.959 2.158 1.359 2.958.399.878.719 1.438.879 1.677l9.35 14.465 6.553 1.119v-25.094l-6.553-1.039v12.388c0 .56.08 1.358.08 2.157.078.799.158 1.758.318 2.797a41 41 0 0 0-1.357-3.036c-.4-.88-.721-1.438-.959-1.759l-9.27-14.224-6.474-1.039zm-37.479-23.335a12.1 12.1 0 0 0-3.277-.479c-1.119-.08-2.158.08-3.277.318-1.758.4-3.436 1.039-4.874 1.918-1.518.96-2.797 2.158-3.916 3.677-1.278 1.518-2.158 3.117-2.797 4.875a17.1 17.1 0 0 0-.879 5.354c0 2.398.48 4.477 1.438 6.154.96 1.758 2.318 3.037 4.156 3.996a8.3 8.3 0 0 0 3.116.879c1.2.16 2.398.08 3.756-.161a17 17 0 0 0 3.277-1.038c1.039-.399 2.158-1.039 3.277-1.759v-7.671c-.959 1.199-1.918 2.238-2.877 2.877a8.3 8.3 0 0 1-2.957 1.357c-1.918.32-3.437 0-4.715-1.117-1.199-1.119-1.758-2.719-1.758-4.716 0-2.157.559-4.075 1.758-5.674s2.797-2.558 4.715-3.037c1.039-.159 2.078-.159 2.957.16.959.239 1.918.879 2.877 1.679zm-39.158 29.65-2.717 6.472c1.198.561 2.477.879 3.756.799 1.278-.158 2.717-.559 4.315-1.356 2.637-1.36 4.795-3.278 6.393-5.755 1.598-2.478 2.477-5.034 2.477-7.751q0-1.558-.479-2.639c-.24-.799-.639-1.277-1.278-1.599-.8-.478-2.558-.398-5.116.241l-.319.08c-1.119.318-1.918.398-2.317.238-.48-.158-.64-.479-.64-1.197-.08-.561.24-1.199.64-1.838.479-.721 1.118-1.199 1.918-1.679.639-.399 1.438-.56 2.237-.72.72-.08 1.438.08 2.237.32l1.999-6.154c-1.039-.16-2.158-.16-3.357.16-1.118.24-2.317.719-3.676 1.438a16.3 16.3 0 0 0-5.674 5.515c-1.438 2.316-2.157 4.634-2.077 7.032 0 1.839.399 3.036 1.358 3.597.959.559 2.478.559 4.715 0 1.678-.4 2.717-.48 3.197-.321.479.241.719.72.719 1.599 0 .721-.24 1.519-.799 2.317-.56.72-1.279 1.359-2.079 1.759-.878.48-1.757.64-2.716.56-.879-.079-1.758-.481-2.717-1.118m46.59-31.568v13.026c0 2.717.16 4.715.479 6.074.4 1.277.959 2.316 1.678 3.275a7.86 7.86 0 0 0 3.516 2.237c1.439.48 3.277.799 5.355.799 2.158 0 3.915-.318 5.354-.799a7.86 7.86 0 0 0 3.516-2.237c.8-.959 1.359-1.998 1.679-3.275.319-1.359.479-3.357.479-6.074v-13.026h-6.713v11.987c0 1.758-.08 3.037-.16 3.836q-.12 1.199-.479 1.918c-.24.639-.719 1.119-1.359 1.439a5 5 0 0 1-2.317.558 5.2 5.2 0 0 1-2.318-.558c-.639-.32-1.119-.801-1.358-1.439q-.36-.719-.48-1.918c-.079-.799-.159-2.078-.159-3.836v-11.987zm202.777-252.19c14.445-5.945 28.941-11.793 43.443-17.603-.184 2.43-1.545 5.188.08 7.395 3.961 6.383 7.873 12.805 11.857 19.173.836 1.712 2.893 1.832 4.461 2.494-15.379 10.486-30.941 20.71-46.439 31.029-1.1-6.853-1.881-13.786-3.889-20.455-2.294-7.682-5.282-15.204-9.513-22.033M306.224 5.365c-2.98 3.531-4.033 8.128-6.033 12.16-2.279.606-4.725.821-6.732 2.152-3.117 1.832-4.973 5.036-6.576 8.16-5.848-3.013-12.295-5.945-19.028-5.188-7.067 1.673-11.745 7.793-15.96 13.251-4.494-2.27-9.229-4.9-14.432-4.526-4.422.535-7.769 3.802-10.829 6.742-10.805 9.904-21.738 19.714-31.643 30.528-2.399 2.884-5.57 5.729-5.617 9.777-.375 6.128.94 12.192 1.839 18.224-27.092 8.518-54.185 17.052-81.286 25.539-3.252.98-6.024 3.02-8.933 4.694C67.335 146.832 33.651 166.769 0 186.737c2.024 3.307 5.092 6.208 9.084 6.765 7.586 1.124 15.212-.98 22.822-.366 3.051.295 5.65 2.159 7.913 4.095 5.49 4.965 9.769 11.085 13.809 17.245 6.925 10.772 12.798 22.2 17.89 33.946 2.223 5.361 4.438 10.788 5.673 16.478 1.291 5.506-1.379 10.941-4.439 15.364-4.741 7.076-11.817 12.12-16.909 18.885-2.542 5.012-.502 10.87.829 15.961 42.958-22.025 85.821-44.265 128.732-66.362 1.952-.885 4.733-1.242 6.151.741 2.072 2.854.781 6.661-.653 9.507-3.299 6.207-8.16 11.436-13.172 16.305-1.538 1.713-3.912 1.999-6 2.612-12.502 3.299-24.663 8.926-33.906 18.152.972-.39 1.936-.796 2.884-1.227 20.878-10.177 43.891-16.949 67.271-16.392 32.161.55 63.668 8.366 94.155 18.088 16.32 5.044 32.576 10.56 49.453 13.396 8.248 1.521 16.678 1.106 25.021.876 9.451-.392 18.854-4.334 25.204-11.443 4.79-5.41 7.3-12.438 8.56-19.459.342-2.486.693-5.146-.209-7.553-1.098-2.758-4.189-3.929-6.924-4.241-4.924-.701-9.555 1.651-13.506 4.32-9.363-13.292-18.734-26.591-28.807-39.365-2.725-3.259-5.34-6.71-6.78-10.75-4.05-10.765-3.22-22.662-.767-33.69.846-4.559 3.563-8.407 5.938-12.264 13.043-20.248 27.547-39.5 40.75-59.636 2.072-3.324 4.424-6.638 5.195-10.551 1.363-6.686.59-13.546.59-20.303 1.563-1.921 3.992-2.933 5.969-4.391 17.387-11.682 34.959-23.109 52.227-34.966-4.344-1.108-8.86-1.594-13.086-3.068-3.529-5.028-6.469-10.47-9.848-15.618-.686-1.348-2.088-2.662-1.609-4.311.717-3.793 1.602-7.546 2.174-11.364-17.666 6.957-35.221 14.201-52.822 21.308-1.434-.653-2.878-1.298-4.383-1.752-11.133-3.268-22.161-6.886-33.117-10.71-10.965-4.726-20.639-11.969-29.803-19.516-5.035-3.267-12.049-.764-15.332 3.881h.002zM141.791 370.971c-5.634 2.494-11.316 5.273-15.73 9.657-2.279 2.238-4.216 5.26-3.817 8.605.151 4.415 3.124 8.24 6.908 10.304 6.296 3.555 13.563 4.86 20.631 5.952 18.376 2.303 37.165 3.116 55.485-.055 15.546-2.749 30.36-8.678 44.225-16.121 7.084-3.61 13.188-8.805 19.045-14.112 12.719 4.064 25.396 8.264 37.986 12.701 8.271 2.933 16.391 6.287 24.822 8.735 13.984 4.15 28.646 7.114 43.293 5.728 12.957-1.633 24.494-8.885 34.257-17.179-2.94 1.291-5.651 3.051-8.544 4.462-10.51 5.235-21.969 9.044-33.793 9.275-7.229-.167-14.328-1.705-21.324-3.387-31.252-8.041-60.242-23.221-91.814-30.192-20.16-4.018-40.806-6.08-61.365-4.901-17.084 1.307-34.384 3.818-50.265 10.528m64.873-272.804c2.279.231 4.558.439 6.844.565-.525 5.459-1.529 10.878-1.776 16.352 1.753 3.713 6.263 4.733 9.961 5.331 6.239.661 13.14.239 18.501-3.331 1.699-.956 2.814-3.657 5.037-2.98 1.275 1.769 2.057 4 3.969 5.227 4.246 2.885 9.648 2.845 14.574 2.471 7.881-.726 15.816-4.789 19.563-12.017 2.709-.024 5.529-.335 8.111.733 3.523 1.331 7.586 1.952 11.164.438 5.991-2.478 10.313-7.625 13.715-12.964 4.264-.781 6.996 3.091 10.916 3.784 2.398.535 4.869.287 7.299.232.049 10.518.146 21.18 2.383 31.515-50.918 36.664-101.941 73.183-152.868 109.838-1.984 1.252-3.769 3.427-6.35 3.164-11.172-.335-22.336-1.045-33.524-1.084-1.857-.135-4.12.367-5.451-1.306-5.506-5.563-9.61-12.328-13.801-18.895-9.085-14.965-17.34-30.44-24.535-46.393-1.156-2.788-2.813-5.585-2.566-8.717.804-13.921 5.044-28.002 13.825-39.023 1.164-1.744 3.315-2.159 5.172-2.788 30.215-9.431 60.064-19.43 89.837-30.152M336.267 379.55c0-.511.174-.939.523-1.303a1.75 1.75 0 0 1 1.287-.538q.757.001 1.287.538a1.8 1.8 0 0 1 .523 1.303c0 .493-.174.919-.523 1.264a1.78 1.78 0 0 1-1.287.517q-.757-.001-1.287-.517a1.71 1.71 0 0 1-.523-1.264m55.47-2.163c0-.51.174-.939.523-1.303a1.75 1.75 0 0 1 1.287-.536q.757.001 1.287.536c.35.363.523.793.523 1.303 0 .495-.174.919-.523 1.263a1.78 1.78 0 0 1-1.287.519q-.757 0-1.287-.519a1.7 1.7 0 0 1-.523-1.263" clip-path="url(#c)" style="clip-rule:evenodd;fill:#a83249;fill-rule:evenodd"/></g><path d="M206.118 103.466c.023.383.012.796-.028 1.316-10.892 4.136-22.175 7.076-33.069 11.204-17.228 6.375-34.472 12.821-51.166 20.511-2.135.773-3.689 2.454-4.534 4.542a44 44 0 0 0 4.566-1.402c22.312-8.471 44.648-16.87 66.967-25.324 2.177-.805 4.288-1.817 6.559-2.311 1.976-.136 3.888.589 5.801 1.012-2.988 1.761-6.263 2.948-9.435 4.327-25.865 11.028-51.739 22.024-77.606 33.061-2.039.725-2.565 3.06-3.609 4.725 17.212-6.932 34.217-14.399 51.357-21.515 3.387-1.33 6.63-3.076 10.136-4.08 1.211.55 2.279 1.347 3.371 2.08-25.021 10.814-50.178 21.308-75.239 32.018 1.521-10.096 5.602-19.651 10.789-28.376 1.008-1.986 3.089-2.651 5.104-3.321l.013-.005q.436-.144.862-.294l83.035-28.286zm86.225-57.079c-.063 10.622-.166 21.244.064 31.867 1.641.007 3.283.023 4.939.04.199-10.639.121-21.276.041-31.915-1.681-.006-3.363 0-5.044.008m-29.651 6.217c-.119 12.367-.135 24.742.008 37.11 1.658-.009 3.314-.017 4.973-.033-.023-12.343-.057-24.686.015-37.037q-2.496-.04-4.996-.04m-29.332 1.833c-.008 14.016-.271 28.049.135 42.066 1.594-.009 3.188 0 4.789.016.375-14.033.137-28.074.119-42.106q-2.52 0-5.043.024m-70.099 314.749a140.9 140.9 0 0 1 48.441-4.439c16.256 1.108 32.328 4.168 48.129 8.048-8.965 6.966-18.908 12.606-29.037 17.684-9.953 4.765-20.462 8.692-31.491 9.953-15.491 1.553-31.396 1.601-46.585-2.201-4.685-1.377-9.745-2.979-13.02-6.82-2.805-3.45-1.323-8.605 1.714-11.402 5.944-5.796 14.072-8.482 21.849-10.823m149.92-357.677c-4.828 6.494-5.107 15.778-1.314 22.838 2.805 5.267 7.729 9.092 13.02 11.658 9.666 4.638 20.386 6.279 30.936 7.467-6.996 11.004-9.061 24.168-10.949 36.83a317 317 0 0 0-2.502 46.959c-1.443-.168-2.877-.43-4.328-.383-1.488.431-2.676 1.49-3.92 2.367-24.582 18.367-49.596 36.161-74.066 54.672 2.518 4.056 6.216 7.562 10.963 8.749 8.895 2.191 18.871-.526 25.285-7.107 6.934 7.975 18.559 8.764 28.256 6.693 5.115-1.211 10.885-3.02 13.619-7.929 9.02-15.243 17.371-30.878 26.408-46.106 2.771-4.813 5.767-9.514 9.361-13.77 8.479-10.327 17.867-20.415 22.703-33.101 2.334-6.374 4.23-13.626 1.475-20.184-4.447-11.451-11.611-21.579-18.68-31.531-.525-.821-1.195-1.77-.699-2.781 1.258-3.268 5.178-5.403 4.35-9.347-11.92-3.005-23.379-7.491-35.006-11.427-7.26-2.367-13.674-6.75-19.172-11.969-2.59-2.215-4.82-5.06-8.057-6.351-3.07-.78-5.914 1.466-7.683 3.753m-22.996 25.499c.087 14.368.039 28.727.031 43.086-.168 3.921 1.57 7.849 4.701 10.248 4.543 3.761 11.77 3.538 16.049-.542 3.027-2.59 4.263-6.653 4.096-10.55-.16-7.658.246-15.348-.176-22.997-2.479-2.431-6.039-3.547-8.438-6.144-7.252-6.734-10.041-16.599-11.588-26.049-3.632 3.292-5.195 8.128-4.675 12.948m32.558 28.124c0 3.975-.008 7.951-.01 11.926-.094 2.17.869 4.344 2.602 5.672 2.514 2.082 6.516 1.958 8.885-.3 1-.856 1.646-2.002 1.986-3.245l1.242-4.157a10 10 0 0 0 .514-1.72l.002-.001c.256-1.227.336-2.544.223-3.625l-7.76-1.298zm2.82 4.261-.001 2.271-.006 5.395v.11a4.15 4.15 0 0 0 .373 1.892c.256.555.637 1.05 1.123 1.422l.088.067c.713.59 1.66.867 2.609.835.938-.032 1.854-.368 2.522-1.003l.108-.099c.252-.215.463-.47.637-.752a4.2 4.2 0 0 0 .465-1.087l.018-.065-.006-.002.08-.271.516-1.887-2.725-2.172-2.033-3.06zm-58.242-38.991c-5.387 1.371-9.475 6.567-9.338 12.168-.096 14.886.023 29.771-.057 44.656-.07 3.53.551 7.307 3.02 10.009 4.041 4.932 12.018 5.673 17.006 1.777 3.418-2.494 5.045-6.798 4.836-10.949-.063-15.427.08-30.862-.07-46.282-.033-7.552-8.201-13.394-15.397-11.379m-31.922 7.763c-4.789 1.641-8.238 6.462-8.23 11.538-.127 14.36.047 28.727-.072 43.094-.015 3.427-.072 7.108 1.833 10.12 2.558 4.51 8.167 6.869 13.204 5.73 5.793-1.092 10.145-6.774 9.904-12.639.057-14.614-.031-29.236.041-43.85.023-3.172-.271-6.558-2.201-9.204-3.035-4.615-9.283-6.719-14.479-4.789m24.282 182.327c5.673 10.829 11.594 21.539 17.594 32.193 5.801-5.554 11.244-11.459 16.902-17.141 4.781-5.067 9.959-9.754 14.525-15.021-16.334-.151-32.678-.086-49.021-.031m92.371 26.535c1.107 5.244 2.605 10.447 2.988 15.818.908 10.813-1.467 22.271-8.217 30.958-.645.899-1.322 1.808-1.697 2.859 2.01 2.462 4.184 4.894 6.822 6.701 8.008 1.132 16.766.574 23.834-3.745 3.219-2.096 6.375-5.154 6.797-9.18.453-5.163-1.428-10.438-5.061-14.145-8.628-9.632-16.517-19.935-25.466-29.266m-25.588-76.41c5.148-1.984 9.205-5.801 13.283-9.371-1.322 8.271-6.605 15.913-14.008 19.889-9.865 5.156-21.682 3.65-31.938.55 2.82-3.259 6.199-5.953 9.355-8.861 1.154-.94 2.461-2.454 4.104-1.674 6.223 2.064 13.149 2.152 19.204-.533M160.369 379.87c4.032-3.929 9.777-5.307 15.172-6.143-1.873 6.543-2.98 13.53-.821 20.16-5.012-1.028-10.527-1.96-14.327-5.683-2.375-2.157-2.351-6.141-.024-8.334m139.407-231.141q-59.371 40.64-118.731 81.279c-2.391 1.577-4.622 3.441-7.227 4.67-.766-.654-1.459-1.37-2.16-2.08 29.324-20.08 58.624-40.201 87.956-60.274 3.282-2.302 6.734-4.383 9.793-6.972-12.766 7.291-25.156 15.251-37.793 22.774-28.385 17.275-56.848 34.424-85.184 51.779 9.904.646 19.841.687 29.754 1.243 1.371.19 2.662-.319 3.73-1.147 49.835-35.961 99.687-71.917 149.544-107.837 1.889-1.156 2.025-3.547 2.678-5.435-10.924 7.123-21.555 14.692-32.36 22m-78.211-20.01q5.775 10.003 11.514 20.017a98 98 0 0 0 4.494-2.438c-3.379-5.674-6.526-11.491-9.976-17.124-2.016-.12-4.024-.296-6.032-.455m-18.526 5.571c7.808 15.013 16.024 29.811 24.016 44.728 3.387-2.057 6.709-4.216 10.153-6.176.055-2.016.055-4.032.039-6.04-2.781 1.657-5.514 3.394-8.319 5.02-6.2-11.459-12.359-22.941-18.558-34.4-1.117-2.988-4.806-2.423-7.331-3.132m-24.345 8.606c-3.442 7.865-4.175 16.997-1.394 25.172 3.083 8.702 9.227 16.75 17.889 20.448 5.307 2.486 11.348 2.47 17.045 1.713-1.618-1.57-3.235-3.195-5.204-4.319-3.474-.374-7.084-.526-10.247-2.199-11.674-5.682-18.375-19.938-15.459-32.575.829-3.053-1.371-5.667-2.63-8.24m19.404 11.035c-.032 1.642-.04 3.284-.032 4.925 1.729.654 3.889.98 4.916 2.709 1.291 2.263.478 4.933.311 7.363 1.586.383 3.164.773 4.757 1.148.765-3.857 1.371-8.279-1.084-11.682-1.896-3.012-5.586-3.945-8.869-4.462zm33.667-.239c-1.427 3.18 1.043 6.495 3.873 7.85 3.043 1.625 5.969 3.49 9.061 5.027 2.549-.613 4.82-2.047 7.227-3.059a248 248 0 0 0-.016-5.459c-2.191.877-4.295 1.969-6.51 2.789-4.807-1.8-8.911-5.114-13.635-7.148m-100.953 10.025c10.127 18.081 20.303 36.121 30.407 54.21 3.713-2.67 7.778-4.941 11.14-8.049.191-1.944.072-3.889.024-5.833-3.163 2.079-6.247 4.278-9.307 6.517-8.893-15.219-17.244-30.742-26.073-45.993q-3.096-.43-6.191-.852m19.889 3.099c.861 1.331 1.705 2.67 2.55 4.009 2.518-.741 5.083-.534 7.585.152 1.148-.989 2.136-2.128 3.156-3.236-1.896-1.203-3.872-2.606-6.215-2.678-2.486-.175-4.813.877-7.076 1.753m-43.023 9.459a5278 5278 0 0 0 30.767 55.772 855 855 0 0 1 13.578-9.618c.032-2.072.032-4.145.017-6.215-4.017 2.748-7.961 5.608-11.929 8.422-8.415-15.053-16.687-30.186-25.014-45.284-1.195-2.934-4.868-2.408-7.419-3.077m54.075 11.913c.877 1.562 1.761 3.124 2.646 4.694 2.398.167 5.211-.653 7.347.582 3.298 4.056 5.371 8.956 7.769 13.57 2.829-1.688 5.586-3.498 8.351-5.283.024-2.024.032-4.057.032-6.08-2.104 1.362-4.208 2.725-6.311 4.079-2.096-3.458-3.65-7.378-6.59-10.239-3.897-2.542-8.869-1.585-13.244-1.323M321.442 31.774l.002-.013a19 19 0 0 0 .518-2.182l.969-4.102.891-3.503 1.143-2.293.762-1.147-.889-1.72-2.477-2.102-2.178-1.58c-.615-.693-1.344-.959-2.123-.691-1.381.473-2.561 2.359-3.398 4.883-.773 2.326-1.224 5.149-1.224 7.935 0 2.585.39 4.748 1.007 6.229.602 1.446 1.452 2.324 2.447 2.324q.091 0 .18-.01c.813.713 1.7 1.338 2.557 1.868a14.7 14.7 0 0 0 1.813-3.891z" style="clip-rule:evenodd;fill:#00acdd;fill-rule:evenodd" transform="translate(-.052)scale(.86209)"/></svg>