<svg xmlns="http://www.w3.org/2000/svg" viewBox="288.8 434.83 188.98 204.2"><defs><clipPath id="a" clipPathUnits="userSpaceOnUse"><path d="M-287.464 326.119h595.276v-841.89h-595.276Z"/></clipPath><clipPath id="b" clipPathUnits="userSpaceOnUse"><path d="M-230.978 354.194h595.276v-841.89h-595.276Z"/></clipPath><clipPath id="c" clipPathUnits="userSpaceOnUse"><path d="M-286.23 407.934h595.277v-841.89H-286.23Z"/></clipPath><clipPath id="d" clipPathUnits="userSpaceOnUse"><path d="M-305.884 429.24h595.276v-841.89h-595.276Z"/></clipPath><clipPath id="e" clipPathUnits="userSpaceOnUse"><path d="M-303.816 429.24H291.46v-841.89h-595.276Z"/></clipPath><clipPath id="f" clipPathUnits="userSpaceOnUse"><path d="M-286.643 391.081h595.276v-841.89h-595.276Z"/></clipPath><clipPath id="g" clipPathUnits="userSpaceOnUse"><path d="M-285.22 379.83h595.277v-841.89H-285.22Z"/></clipPath><clipPath id="h" clipPathUnits="userSpaceOnUse"><path d="M-286.322 366.79h595.276V-475.1h-595.276Z"/></clipPath><clipPath id="i" clipPathUnits="userSpaceOnUse"><path d="M-303.037 376.754h595.276v-841.89h-595.276Z"/></clipPath><clipPath id="j" clipPathUnits="userSpaceOnUse"><path d="M-302.623 382.862h595.276v-841.89h-595.276Z"/></clipPath><clipPath id="k" clipPathUnits="userSpaceOnUse"><path d="M-303.22 383.78h595.275v-841.89H-303.22Z"/></clipPath><clipPath id="l" clipPathUnits="userSpaceOnUse"><path d="M-304.09 384.285h595.275v-841.89H-304.09Z"/></clipPath><clipPath id="m" clipPathUnits="userSpaceOnUse"><path d="M-304.322 385.158h595.276v-841.89h-595.276Z"/></clipPath><clipPath id="n" clipPathUnits="userSpaceOnUse"><path d="M-272.04 352.876h595.276v-841.89H-272.04Z"/></clipPath><clipPath id="o" clipPathUnits="userSpaceOnUse"><path d="M-280.352 359.259h595.276v-841.89h-595.276Z"/></clipPath><clipPath id="p" clipPathUnits="userSpaceOnUse"><path d="M-278.561 352.555h595.276v-841.89h-595.276Z"/></clipPath><clipPath id="q" clipPathUnits="userSpaceOnUse"><path d="M-289.674 419.275h595.276v-841.89h-595.276Z"/></clipPath><clipPath id="r" clipPathUnits="userSpaceOnUse"><path d="M-275.852 428.644h595.276v-841.89h-595.276Z"/></clipPath><clipPath id="s" clipPathUnits="userSpaceOnUse"><path d="M-297.48 426.898h595.276v-841.89H-297.48Z"/></clipPath></defs><path d="M0 0s32.284-13.386 70.865-17.716c0 0 .395-47.638-19.289-77.559C39.463-113.686 17.324-137.007 0-153.149c-17.322 16.142-39.462 39.463-51.574 57.874-19.685 29.921-19.291 77.559-19.291 77.559C-32.283-13.386 0 0 0 0" clip-path="url(#a)" style="fill:#fff;fill-opacity:1;fill-rule:nonzero;stroke:none" transform="matrix(1.33333 0 0 -1.33333 383.285 434.825)"/><path d="M0 0s2.06-39.93 17.096-62.782c9.25-14.061 26.16-31.873 39.391-44.203 13.233 12.33 30.141 30.142 39.394 44.203C110.916-39.93 112.977 0 112.977 0c-29.47 3.308-56.49 13.531-56.49 13.531S29.467 3.308 0 0m56.487 28.075s32.284-13.386 70.866-17.716c0 0 .394-47.638-19.29-77.558-12.113-18.411-34.251-41.732-51.576-57.873C39.166-108.931 17.024-85.61 4.914-67.199c-19.685 29.92-19.291 77.558-19.291 77.558 38.583 4.33 70.864 17.716 70.864 17.716" clip-path="url(#b)" style="fill:#17214f;fill-opacity:1;fill-rule:nonzero;stroke:none" transform="matrix(1.33333 0 0 -1.33333 307.97 472.259)"/><path d="M0 0s-1.057-2.112-.78-2.801c0 0 .413-1.423 2.02 1.561 0 0 .735 1.286.735 3.032 0 0-.046 1.009-.781.137C1.194 1.929.551 1.24 0 0m.598 10.975s.551-1.882.551-4.225c0 0 0-.688-.092-1.01-.139-.322-.093-1.653.597-1.607 0 0 .596-.138.367 1.883 0 0-.322 3.168-1.423 4.959m-18.369 41.879s.551.505 1.01 1.286c.506.734 3.398 5.235 8.679 5.235 0 0 7.808.137 8.587-11.756 0 0-.229-7.301 4.822-10.011 0 0 2.892-1.515 3.81-2.204 0 0 .736-.413 1.379-1.01.551-.552.918-1.102.918-1.102s.643-.827 1.01-1.332c.827-1.285 1.745-1.148 1.745-1.148s.689 0 1.332 1.056c0 0 4.408 7.577 12.032 8.679v-2.893s.918.322 1.79.459v-4.04s.688.229 1.331.321v-3.719h1.377v-5.143l-.734.045-.321-3.949s-7.577 2.112-13.088-.137c0 0 1.378.046 1.7-.092 0 0-1.149-.781-2.295-3.812 0 0-.505-1.515-3.721-1.194l-.092-.597s-5.004-.413-7.989 1.7c0 0-.964.734-1.654-.781 0 0-.413-.965-.183-2.388l1.009-5.281s.415-2.021 1.746-2.021c0 0 .551-.091.918.506 0 0 .276.367.919.367 0 0 .366.046.366-.367 0 0 .046-.137-.182-.367 0 0-.323-.368.228-.506 0 0 .598-.092 1.424.643 0 0 2.066 1.883 3.077 3.628 0 0 .918-1.285-1.194-3.811-2.112-2.572-4.316-3.352-4.316-3.352S5.602 2.893 5.602.552c0 0-.504-3.765 4.546-6.015l-18.919-.873S-2.847-3.03-2.663 5.786c0 0 .229 4.27-2.755 10.699-3.031 6.429-2.847 14.649-2.847 14.649s.091 2.571 1.331 7.485c1.102 4.362.873 5.326.873 5.326s.092 9.184-7.21 9.505c0 0-1.607.047-2.571-.412 0 0-1.24-.598-1.929-.184" clip-path="url(#c)" style="fill:#17214f;fill-opacity:1;fill-rule:nonzero;stroke:none" transform="matrix(1.33333 0 0 -1.33333 381.64 543.912)"/><path d="M0 0c0-10.011-8.128-18.138-18.185-18.138S-36.415-10.011-36.415 0c0 9.965 8.174 18.093 18.23 18.093S0 9.965 0 0" clip-path="url(#d)" style="fill:#17214f;fill-opacity:1;fill-rule:nonzero;stroke:none" transform="matrix(1.33333 0 0 -1.33333 407.845 572.32)"/><path d="M0 0c0-8.863-7.208-16.071-16.117-16.071S-32.281-8.863-32.281 0c0 8.816 7.255 16.026 16.164 16.026S0 8.816 0 0" clip-path="url(#e)" style="fill:#fff;fill-opacity:1;fill-rule:nonzero;stroke:none" transform="matrix(1.33333 0 0 -1.33333 405.089 572.32)"/><path d="M0 0s2.526-4.684 2.526-15.061c0 0 .23-4.501-3.214-6.474 0 0 1.561-.231 3.214 2.066 0 0 .322-1.699 1.608-2.205 0 0-.644.321-.644 2.251 0 0 1.79-2.343 3.49-2.802 0 0-3.582 1.745-3.582 8.495 0 0 .551 7.76-3.398 13.73" clip-path="url(#f)" style="fill:#fff;fill-opacity:1;fill-rule:nonzero;stroke:none" transform="matrix(1.33333 0 0 -1.33333 382.19 521.442)"/><path d="M0 0s2.48-10.286 17.128-10.286l1.057 2.02S5.97-11.71 0 0" clip-path="url(#g)" style="fill:#fff;fill-opacity:1;fill-rule:nonzero;stroke:none" transform="matrix(1.33333 0 0 -1.33333 380.292 506.441)"/><path d="M0 0s-.23-2.48-.598-4.638c-.366-2.25-.505-4.454-.505-4.454s-.32-2.985 2.297-6.383c0 0 1.837-2.433 3.903-2.433 0 0 3.766.091 3.766 3.581 0 0-.277 2.572-2.848 2.572 0 0-1.147 0-1.973-.459 0 0 2.11 5.739-2.848 6.061 0 0 .229 3.857-1.194 6.153" clip-path="url(#h)" style="fill:#fff;fill-opacity:1;fill-rule:nonzero;stroke:none" transform="matrix(1.33333 0 0 -1.33333 381.762 489.053)"/><path d="M0 0s2.479 5.97 9.872 7.668V6.382S5.234 5.188 0 0" clip-path="url(#i)" style="fill:#fff;fill-opacity:1;fill-rule:nonzero;stroke:none" transform="matrix(1.33333 0 0 -1.33333 404.05 502.34)"/><path d="M0 0s-.827 7.164 12.077 11.205V9.139S2.893 7.118 0 0" clip-path="url(#j)" style="fill:#fff;fill-opacity:1;fill-rule:nonzero;stroke:none" transform="matrix(1.33333 0 0 -1.33333 403.497 510.483)"/><path d="M0 0s.963 5.465 12.856 8.679V6.842S2.295 5.235 0 0" clip-path="url(#k)" style="fill:#fff;fill-opacity:1;fill-rule:nonzero;stroke:none" transform="matrix(1.33333 0 0 -1.33333 404.294 511.707)"/><path d="M0 0s2.343 4.546 13.135 5.832V3.031S4.181 3.307 0 0" clip-path="url(#l)" style="fill:#fff;fill-opacity:1;fill-rule:nonzero;stroke:none" transform="matrix(1.33333 0 0 -1.33333 405.454 512.38)"/><path d="M0 0s3.077 2.893 12.261 2.342l-.23-2.158S5.831 1.562 0 0" clip-path="url(#m)" style="fill:#fff;fill-opacity:1;fill-rule:nonzero;stroke:none" transform="matrix(1.33333 0 0 -1.33333 405.763 513.543)"/><path d="M0 0s2.066 2.894 6.199 2.894c0 0 5.236-.23 2.939-4.776 0 0-3.352 3.305-9.138 1.882" clip-path="url(#n)" style="fill:#fff;fill-opacity:1;fill-rule:nonzero;stroke:none" transform="matrix(1.33333 0 0 -1.33333 362.72 470.502)"/><path d="M0 0s.918-1.791.918-4.868c0 0 .139-3.169-.918-6.704-1.056-3.582-1.147-6.888-1.147-6.888s-.046-7.209 3.03-13.592c3.077-6.383 2.664-10.791 2.664-10.791s.505-7.026-5.189-12.214c0 0 1.699.275 3.398 2.708 0 0 .734-.827 2.065-1.148 0 0-.918.643-.918 2.02 0 0 .368 1.746 1.149 4.227.826 2.57.641 5.233.641 5.233s0 5.143-2.937 10.837C0-25.715 0-18.965 0-18.965s.826-3.306 2.619-2.801c0 0-.736-1.057-.736-2.939 0 0 .321-5.74 6.199-3.858 0 0-4.408 4.042-4.408 8.955 0 0 .092 4.867.873 9.046.826 4.225.413 9.644.413 9.644s-.092 5.096-3.168 8.402c0 0 1.376-3.535-1.792-7.484" clip-path="url(#o)" style="fill:#fff;fill-opacity:1;fill-rule:nonzero;stroke:none" transform="matrix(1.33333 0 0 -1.33333 373.802 479.012)"/><path d="M0 0c1.653 0 1.469 2.021 1.469 2.021h-2.985S-1.699 0 0 0" clip-path="url(#p)" style="fill:#17214f;fill-opacity:1;fill-rule:nonzero;stroke:none" transform="matrix(1.33333 0 0 -1.33333 371.415 470.073)"/><path d="M0 0c-1.057.276-1.285-.873-1.285-.873v-2.985A12 12 0 0 0 1.79-2.389v1.838C.872-.138 0 0 0 0m-2.25 1.929s2.388 0 4.04-.689v1.744s-1.056.368-1.974.505v1.194s3.306-.598 6.382-2.388V1.102s-.597.366-1.239.551c0 0-1.193.229-1.193-1.24 0 0 2.617-1.608 3.901-3.444h1.149l.321-.597-2.066-3.399-.367.185s-.093 3.674-2.938 5.373v-9.599s0-1.239 1.422-1.239h.413v-.873H.274l-.182.873h.367s1.331 0 1.331 1.239v6.981s-2.111-.598-3.075-1.929v-11.893s-.046-2.204 2.433-2.204h.919v-.965h-8.633v.965h.963c2.479 0 2.435 2.204 2.435 2.204v11.893c-.966 1.331-3.123 1.929-3.123 1.929v-6.981c0-1.239 1.331-1.239 1.331-1.239h1.01v-.873h-6.107v.873h.413c1.425 0 1.425 1.239 1.425 1.239v9.599c-2.894-1.699-2.94-5.373-2.94-5.373l-.413-.185-2.067 3.399.322.597h1.194C-10.837-1.195-8.219.413-8.219.413c0 1.469-1.195 1.24-1.195 1.24a5.8 5.8 0 0 1-1.24-.551v1.193c3.077 1.79 6.384 2.388 6.384 2.388V3.489c-.919-.137-2.021-.505-2.021-.505V1.24c1.698.689 4.041.689 4.041.689m-4.041-2.48v-1.838s1.653-.459 3.123-1.469v2.985S-3.398.276-4.501 0c0 0-.872-.138-1.79-.551" clip-path="url(#q)" style="fill:#17214f;fill-opacity:1;fill-rule:nonzero;stroke:none" transform="matrix(1.33333 0 0 -1.33333 386.232 559.034)"/><path d="M0 0v.735h7.119s.549 0 1.192.782l2.48-3.813h-.551S8.771 0 6.521 0H5.97S4.271.046 4.271-1.607V-5.74h2.387s1.699-.046 1.699 1.699v.735h.736v-5.419h-.736v.551s.092 1.609-1.699 1.609H4.271v-3.767s-.138-1.928 2.479-3.443l-.321-.689S2.847-13.087.138-10.01v1.148h.23s.826-.919 1.331-1.286l.597.414v8.541S2.434 0 .827 0z" clip-path="url(#r)" style="fill:#17214f;fill-opacity:1;fill-rule:nonzero;stroke:none" transform="matrix(1.33333 0 0 -1.33333 367.802 571.525)"/><path d="m0 0-.918-.644s-.413.23-1.7.23c0 0-5.832.185-5.832-6.934 0 0 .138-6.935 5.419-6.935 0 0 3.582-.321 5.97 4.363l-.689.459s-1.975-3.766-4.868-3.766c0 0-3.627 0-3.627 5.833 0 0-.276 6.199 3.811 6.199 0 0 2.526.046 4.226-2.847l.549.275z" clip-path="url(#s)" style="fill:#17214f;fill-opacity:1;fill-rule:nonzero;stroke:none" transform="matrix(1.33333 0 0 -1.33333 396.64 569.197)"/></svg>