<svg xmlns="http://www.w3.org/2000/svg" viewBox="230.88 430.09 85.12 173.69"><path d="M198.8 450.713c.643 1.405 1.394 2.185 1.394 2.185.858.989.912-.155.912-.155 0-1.978-.858-3.435-.858-3.435-1.876-3.382-2.358-1.769-2.358-1.769-.323.781.91 3.174.91 3.174m2.408 7.834c.269-2.29-.429-2.133-.429-2.133-.804-.052-.859 1.457-.696 1.821.106.365.106 1.144.106 1.144 0 2.655-.643 4.788-.643 4.788 1.287-2.029 1.662-5.62 1.662-5.62m24.354 22.036s1.286 3.302 10.099 4.56l.005 3.946c-.379-.052-8.327-2.294-10.509-6.503 0 0 .454 4.016 9.32 6.773l-.378 3.946c-.231-.035-3.488-1.086-6.215-2.91-2.921-1.955-3.894-3.576-6.111-6.519 0 0 .944 2.858 3.915 5.562 1.528 1.39 3.731 2.604 6.33 3.651v2.556c-8.902-1.249-14.048-9.836-14.048-9.836-.751-1.197-1.555-1.197-1.555-1.197s-5.935-1.891-10.307 6.635-4.589 12.678-4.589 12.678c-1.765 9.08-1.152 10.34-5.254 13.326s-11.901 1.937-11.917 1.711 5.556-3.863 8.889-7.348-.197-13.211-1.484-18.155c-1.448-5.568-1.554-8.482-1.554-8.482s-.215-9.315 3.323-16.6c3.485-7.286 3.218-12.125 3.218-12.125-.215-9.99-7.131-13.737-7.131-13.737l2.811.125c-.065-.058-.118-.119-.184-.177 0 0 .238.045.61.197l18.851.844c-5.896 2.55-5.307 6.816-5.307 6.816 0 2.654 2.412 3.643 2.412 3.643s2.574.884 5.04 3.799c2.465 2.862 1.393 4.318 1.393 4.318-1.179-1.977-3.592-4.111-3.592-4.111-.965-.833-1.663-.729-1.663-.729-.643.157-.266.573-.266.573.266.261.213.416.213.416 0 .468-.427.417-.427.417-.751 0-1.073-.417-1.073-.417-.428-.676-1.072-.573-1.072-.573-1.554 0-2.039 2.291-2.039 2.291l-1.178 5.984c-.268 1.613.214 2.706.214 2.706.167 4.781-3.322 7.983-4.775 11.805-2.08 5.475-1.588 7.538-1.588 7.538s1.115-7.207 4.847-12.037c1.105-1.431 1.379-2.41 2.521-3.709 1.865-2.121 5.236-3.462 8.571-3.149 3.209.302 6.829 4.301 6.829 4.301 6.708 5.708 14.939 1.574 14.939 1.574l.079 5.195c-1.206.451-4.638 1.076-8.164-.772 0 0 2.734 2.841 9.386 1.18l.003 3.894s-9.124-.138-11.438-3.874" clip-path="url(#clipPath3)" style="fill:#193763;fill-opacity:1;fill-rule:nonzero;stroke:none" transform="matrix(1.33333 0 0 -1.33333 0 1122.52)"/><path d="M196.658 514.382c-.191-.285-.692-.283-1.119.003-.428.287-.428 1.035-.428 1.035s.693.283 1.12-.003c.427-.287.619-.75.427-1.035" clip-path="url(#clipPath5)" style="fill:#fdfdfe;fill-opacity:1;fill-rule:nonzero;stroke:none" transform="matrix(1.33333 0 0 -1.33333 0 1122.52)"/><path d="M187.699 420.132c.299.188.622.336.961.453.018 3.76.348 9.108 1.755 14.095.895 3.173 2.636 6.658 4.509 9.838a28 28 0 0 1-12.903-6.898c.176-3.471.521-6.917 1.18-8.96 1.103-3.419 2.947-6.409 4.498-8.528" clip-path="url(#clipPath7)" style="fill:#193763;fill-opacity:1;fill-rule:nonzero;stroke:none" transform="matrix(1.33333 0 0 -1.33333 0 1122.52)"/><path d="M188.422 411.55a4.7 4.7 0 0 0-1.651 1.129 80 80 0 0 1-4.357-5.017 56 56 0 0 1-4.375-6.338c4.134-6.052 10.573-10.397 18.053-11.786-2.117 3.19-4.815 7.563-6.105 10.917-1.021 2.653-1.549 6.437-1.565 11.095" clip-path="url(#clipPath9)" style="fill:#193763;fill-opacity:1;fill-rule:nonzero;stroke:none" transform="matrix(1.33333 0 0 -1.33333 0 1122.52)"/><path d="M185.985 413.814a4.86 4.86 0 0 0-.552 2.216c0 .138.029.268.04.404-1.825.299-4.592.824-6.709 1.53-1.673.557-3.671 1.925-5.316 3.211a28.4 28.4 0 0 1-.291-4.026 27.96 27.96 0 0 1 4.063-14.56 57.5 57.5 0 0 0 4.14 5.917 80 80 0 0 0 4.625 5.308" clip-path="url(#clipPath11)" style="fill:#193763;fill-opacity:1;fill-rule:nonzero;stroke:none" transform="matrix(1.33333 0 0 -1.33333 0 1122.52)"/><path d="M185.759 417.756c.21.556.519 1.056.903 1.49-1.622 2.203-3.565 5.34-4.746 9-.621 1.925-.978 4.947-1.178 8.089a28 28 0 0 1-7.031-13.637c1.65-1.339 3.795-2.89 5.483-3.453 2.037-.68 4.785-1.195 6.569-1.489" clip-path="url(#clipPath13)" style="fill:#193763;fill-opacity:1;fill-rule:nonzero;stroke:none" transform="matrix(1.33333 0 0 -1.33333 0 1122.52)"/><path d="M190.022 420.845c.05.002.097.015.147.015.454 0 .885-.086 1.301-.208.897 2.143 2.722 5.486 6.441 10.444 4.247 5.663 9.34 9.884 12.927 12.465a28 28 0 0 1-9.589 1.681c-1.541 0-3.05-.129-4.522-.367-2.067-3.379-4.062-7.189-5.013-10.562-1.319-4.679-1.656-9.793-1.692-13.468" clip-path="url(#clipPath15)" style="fill:#193763;fill-opacity:1;fill-rule:nonzero;stroke:none" transform="matrix(1.33333 0 0 -1.33333 0 1122.52)"/><path d="M198.991 430.287c-3.705-4.941-5.448-8.202-6.276-10.197a4.8 4.8 0 0 0 1.565-1.709c4.901 1.707 15.28 5.605 22.152 10.186 3.144 2.097 5.573 3.97 7.31 5.413a28.2 28.2 0 0 1-11.41 8.987c-3.508-2.449-8.897-6.756-13.341-12.68" clip-path="url(#clipPath17)" style="fill:#193763;fill-opacity:1;fill-rule:nonzero;stroke:none" transform="matrix(1.33333 0 0 -1.33333 0 1122.52)"/><path d="M192.995 417.939a3.4 3.4 0 0 1-.765.832 3.3 3.3 0 0 1-1.233.623 3.3 3.3 0 0 1-.828.117c-.05 0-.097-.013-.148-.016a3.26 3.26 0 0 1-1.353-.361q-.075-.04-.148-.083a3.465 3.465 0 0 1-1.718-2.823c-.004-.067-.019-.13-.019-.198 0-.418.083-.812.215-1.184.16-.45.401-.856.714-1.197a3.4 3.4 0 0 1 2.078-1.06c.126-.015.249-.039.379-.039q.336.002.654.068a3.3 3.3 0 0 1 1.254.541c.084.059.155.132.233.197a3.47 3.47 0 0 1 1.065 1.609c.107.338.18.691.18 1.065 0 .096-.02.186-.027.28-.01.125-.014.252-.037.373a3.5 3.5 0 0 1-.496 1.256" clip-path="url(#clipPath19)" style="fill:#193763;fill-opacity:1;fill-rule:nonzero;stroke:none" transform="matrix(1.33333 0 0 -1.33333 0 1122.52)"/><path d="M194.708 414.728a5 5 0 0 0-.438-1.068c2.675-1.792 7.564-4.95 13.008-7.892 2.726-1.474 5.606-3 8.246-4.386.079.16.148.321.244.477.729 1.196 1.813 2.041 2.972 2.321.821.197 1.597.091 2.245-.305l3.677-2.246a27.9 27.9 0 0 1 4.31 10.985 246 246 0 0 0-11.271-.281c-8.155 0-18.164 1.553-22.993 2.395" clip-path="url(#clipPath21)" style="fill:#193763;fill-opacity:1;fill-rule:nonzero;stroke:none" transform="matrix(1.33333 0 0 -1.33333 0 1122.52)"/><path d="M224.53 432.874c-1.757-1.455-4.19-3.323-7.35-5.43-6.965-4.644-17.427-8.583-22.409-10.321.079-.342.128-.694.13-1.06 4.768-.832 14.719-2.38 22.8-2.38 4.081 0 8.076.13 11.456.292a27.96 27.96 0 0 1-4.627 18.899" clip-path="url(#clipPath23)" style="fill:#193763;fill-opacity:1;fill-rule:nonzero;stroke:none" transform="matrix(1.33333 0 0 -1.33333 0 1122.52)"/><path d="M193.466 412.574a5 5 0 0 0-.883-.677c1.404-3.279 4.211-8.135 9.659-12.697 4.309-3.607 7.627-6.177 9.98-7.918 2.26.96 4.365 2.214 6.277 3.703l-2.145 1.311c-1.163.712-1.609 2.225-1.283 3.799a815 815 0 0 0-8.435 4.485c-5.522 2.984-10.48 6.191-13.17 7.994" clip-path="url(#clipPath25)" style="fill:#193763;fill-opacity:1;fill-rule:nonzero;stroke:none" transform="matrix(1.33333 0 0 -1.33333 0 1122.52)"/><path d="M191.324 411.362a4.7 4.7 0 0 0-1.155-.162c-.131 0-.255.029-.384.04.042-4.324.536-7.894 1.462-10.301 1.374-3.573 4.511-8.499 6.66-11.676a28 28 0 0 1 3.342-.205c3.329 0 6.521.583 9.484 1.645-2.307 1.729-5.407 4.154-9.358 7.462-5.681 4.757-8.592 9.772-10.051 13.197" clip-path="url(#clipPath27)" style="fill:#193763;fill-opacity:1;fill-rule:nonzero;stroke:none" transform="matrix(1.33333 0 0 -1.33333 0 1122.52)"/><path d="M219.058 402.867c-.803-.193-1.602-.833-2.138-1.712a4 4 0 0 1-.207-.397l1.437-.751.398.639a.613.613 0 1 0 1.04-.648l-.348-.559.796-.414.416.668a.613.613 0 1 0 1.04-.647l-.365-.586.74-.384a28 28 0 0 1 2.02 2.445l-3.606 2.202c-.426.26-.9.222-1.223.144" clip-path="url(#clipPath29)" style="fill:#193763;fill-opacity:1;fill-rule:nonzero;stroke:none" transform="matrix(1.33333 0 0 -1.33333 0 1122.52)"/><path d="M220.343 397.199a.613.613 0 0 0-1.04.648l.018.029-.797.414-.086-.139a.611.611 0 1 0-1.04.648l.038.059q-.544.282-1.11.58c-.09-.869.155-1.637.733-1.99l2.545-1.555q.657.566 1.279 1.172l-.472.245z" clip-path="url(#clipPath31)" style="fill:#193763;fill-opacity:1;fill-rule:nonzero;stroke:none" transform="matrix(1.33333 0 0 -1.33333 0 1122.52)"/></svg>