<svg xmlns="http://www.w3.org/2000/svg" viewBox="57.26 137.47 480.76 566.94"><path d="M87.256 181.024c66.608-29.098 139.05-43.899 211.72-43.544 71.188.348 142.961 15.017 208.382 43.14l7.008 3.012 1.787 7.415c12.628 52.38 22.826 111.402 21.8 165.457-.73 38.357-6.838 75.216-19.197 111.554-9.078 26.69-21.281 52.373-36.195 76.294-11.515 18.469-24.586 35.84-38.989 52.153-38.748 43.887-86.457 79.123-139.106 104.596l-6.838 3.308-6.758-3.47c-43.776-22.477-85.407-50.482-120.513-85.126-41.986-41.435-73.465-90.395-92.755-146.187-14.244-41.198-20.68-82.39-20.329-125.998.41-50.973 9.813-102.527 21.235-152.065l1.723-7.47z" style="fill:#fdc577;fill-rule:evenodd"/><path d="M93.356 194.987c66.147-28.896 136.589-42.607 205.547-42.27 66.835.327 136.918 13.736 202.438 41.901 10.798 44.793 22.41 107.208 21.377 161.597-.744 39.14-7.132 73.843-18.388 106.937-8.714 25.62-20.446 50.277-34.7 73.139-11.085 17.78-23.576 34.38-37.48 50.13-37.17 42.099-83.096 76.18-134.32 100.964-46.637-23.946-85.665-51.722-116.77-82.418-42.625-42.064-71.527-89.617-89.057-140.32-13.574-39.258-19.836-78.284-19.493-120.896.354-43.966 7.733-91.893 20.846-148.764" style="fill:#9d0f1d;fill-rule:evenodd"/><path d="M93.356 194.987c65.81-28.75 135.872-42.464 204.493-42.272v534.66l-.02.01c-46.636-23.946-85.664-51.722-116.769-82.418-42.625-42.064-71.527-89.617-89.057-140.32-13.574-39.258-19.836-78.284-19.493-120.896.354-43.966 7.733-91.893 20.846-148.764" style="fill:#27308f;fill-rule:evenodd"/><path d="M364.956 311.334c-6.214-1.793-13.447-2.167-19.849-2.032-3.303 5.587-9.385 15.015-13.79 17.636-2.387 1.42-6.096 1.839-8.824 1.872q-.85.01-1.72-.02l-.215 4.77-7.387-6.167-.023-7.428c2.976.689 6.273 1.264 9.251 1.227 1.147-.014 4.012-.215 5.023-.801 1.406-.837 3.976-4.23 4.962-5.564 3.056-4.134 5.683-8.522 8.224-12.981 13.207-.514 24.581.729 34.467 5.32-3.447 11.161-12.758 19.767-23.96 26.849-2.338 1.478-4.903 2.903-7.36 4.416a41 41 0 0 0-5.04 3.636c-1.286 1.092-2.558 2.258-3.62 3.485-1.77 2.046-3.18 4.265-4.717 6.605a325 325 0 0 1-5.333 7.85c-.485-2.528-2.725-9.645 2.342-17.008 1.51-2.208 3.06-3.75 5.006-5.575 4.428-4.157 9.638-6.803 14.65-9.971 6.695-4.233 13.583-9.037 17.913-16.119M229.344 310.37c6.256-1.81 13.906-2.31 20.351-2.173 3.326 5.635 9.08 15.145 13.514 17.788 2.403 1.433 6.137 1.977 8.883 2.011.57.007 1.64 0 2.224-.02l.217 4.687 7.436-6.22.023-7.491c-2.996.695-6.807 1.397-9.805 1.36-1.154-.014-3.916-.34-4.933-.93-1.416-.844-4.003-4.267-4.996-5.613-3.076-4.17-5.598-8.594-8.156-13.093-13.296-.517-24.993.859-34.946 5.489 3.471 11.258 12.845 19.815 24.122 26.958 2.354 1.49 4.936 2.927 7.41 4.453a41 41 0 0 1 5.073 3.668c1.295 1.102 2.575 2.277 3.645 3.515 1.782 2.063 3.202 4.302 4.749 6.662a328 328 0 0 0 5.368 7.918c.489-2.55 2.744-9.729-2.358-17.155-1.52-2.227-3.08-3.781-5.039-5.623-4.458-4.193-9.703-6.861-14.749-10.057-6.74-4.269-13.674-8.991-18.033-16.134m50.519 119.664-16.06-29.053-2.936 10.574 14.468 26.164h11.478v-7.685zm-107.534-19.379-.029 27.017h14.193v-7.56h-6.515l.023-21.87-4.674-6.339-5.89 4.6zm60.744 19.53c6.044-13.307 10.385-27.69 9.841-43.258l-73.857-1.424c-6.067 6.184-15.002 10.397-23.762 13.058-5.108 1.552-11.032 2.804-16.128 3.75-1.89.35-4.746 1.212-6.682 1.665-3.692.863-5.155 1.29-9.702 1.637-3.099 12.111-3.798 25.097 4.32 32.009h11.101v-7.93h-7.476c-3.354-4.588-2.455-13.623-1.443-17.158 4.857-.97 10.643-2.12 16.736-3.632 5.263-1.306 10.757-2.636 16.08-4.602 7.296-2.694 13.972-6.188 20.149-11.197l63.008 1.4c-1.186 15.551-8.687 32.3-14.21 42.995h22.272v-7.314zM118.812 361.79c-1.502-3.479-2.049-7.902.926-10.696 2.084-1.957 5.863-2.938 8.647-2.938h45.723c3.282-3.71 6.555-7.94 6.197-13.238-.303-4.486-3.565-8.04-7.012-9.752-9.224.253-31.607.603-39.32-3.043l-12.657.015c5.915 10.3 36.618 10.842 49.549 10.531.737.676 1.351 1.772 1.419 2.768.11 1.63-.85 3.42-1.964 4.911h-40.945c-4.594 0-11.609 1.069-16.488 5.385-6.922 6.123-3.576 15.259 1.325 23.974l27.364-.3c-4.097 9.374-9.774 17.413-14.862 22.157l1.665.179 11.432-3.541c3.63-5.325 6.879-11.525 9.536-18.811l17.098-.034c15.545.042 34.199-4.693 45.698-10.206l-3.432-6.778c-10.49 5.07-28.492 9.462-42.735 9.423zm91.292-35.446c-3.243 8.677-1.65 16.558-.509 20.116 1.596 2.363 4.892 5.647 7.664 7.795 2.604 2.018 5.489 3.986 8.391 6.059 5.554 3.966 11.151 8.651 15.442 14.015 8.266 10.331 11.235 22.584 13.915 28.807 1.902-8.88.99-16.235-2.086-23.514-2.375-5.62-5.818-10.467-9.182-14.012-3.748-3.948-8.087-7.484-12.442-10.729-2.406-1.792-4.875-3.424-7.46-5.277-2.679-1.917-5.287-3.921-7.548-6.811-3.438-4.393-4.763-6.422-6.185-16.45m6.171-13.285c-2.832 6.898-1.936 14.109 2.62 19.856 1.577 1.989 3.478 3.94 5.32 5.57 3.364 2.978 7.227 4.886 10.623 7.147a76 76 0 0 1 4.279 3.07c2.058 1.586 4.683 3.664 6.497 5.416 3.92 3.785 6.331 7.619 9.005 11.233 3.02 4.082 5.953 7.729 8.256 10.655 1.483-11.068-4.694-20.425-12.785-28.137-3.2-3.05-7.219-6.128-10.935-8.59-2.653-1.758-5.171-3.168-7.534-4.861-2.679-1.92-5.161-4.046-7.424-6.937-3.439-4.394-6.363-9.732-7.921-14.423M377.937 314.122c2.814 6.84 1.923 13.989-2.602 19.687-1.567 1.972-3.454 3.906-5.285 5.523-3.341 2.952-7.178 5.086-10.552 7.33-1.422.944-2.85 1.844-4.25 2.92-2.045 1.575-4.027 3.39-5.83 5.128-3.895 3.754-6.912 7.918-9.568 11.502-3 4.047-5.425 7.42-7.712 10.32-1.474-10.973 4.173-20.25 12.21-27.896 3.18-3.025 7.17-5.954 10.862-8.395 2.636-1.744 5.137-3.142 7.484-4.82 2.661-1.903 5.127-4.133 7.374-7 3.416-4.356 6.321-9.648 7.87-14.299M384.067 327.294c3.221 8.603 1.64 16.295.505 19.823-1.584 2.342-4.859 5.598-7.612 7.728-2.587 2.001-5.452 3.952-8.335 6.007-5.516 3.933-11.076 8.578-15.339 13.896-8.21 10.244-11.038 22.513-13.7 28.683-1.889-8.805-1.104-16.096 1.95-23.313 2.36-5.572 5.78-10.378 9.12-13.893 3.724-3.914 8.034-7.42 12.36-10.637 2.39-1.777 4.842-3.395 7.41-5.232 2.66-1.901 5.252-3.888 7.498-6.753 3.414-4.356 4.731-6.368 6.143-16.31M474.75 362.438c1.49-3.45 2.034-7.835-.92-10.605-2.07-1.94-5.825-2.913-8.59-2.913h-45.417c-3.26-3.679-6.511-7.872-6.156-13.125.301-4.447 3.542-7.972 6.966-9.669 9.161.25 31.029.598 38.69-3.016l12.817.014c-5.876 10.212-36.618 10.75-49.462 10.442-.733.67-1.343 1.756-1.41 2.744-.109 1.615.967 3.39 2.073 4.869h40.916c4.564 0 12.523 1.634 15.889 4.973 6.513 6.46 3.918 15.25-.95 23.892l-27.181-.055c4.07 9.294 9.709 17.265 14.763 21.97l-1.654.176-11.233-3.51c-3.606-5.28-6.833-11.427-9.472-18.651l-16.985-.034c-15.44.042-31.275-3.98-45.392-10.118l3.41-6.721c12.978 5.565 27.567 9.381 41.716 9.343z" style="fill:#fdc577;fill-rule:evenodd"/><path d="M361.496 430.249c-6.004-13.194-10.438-27.454-9.898-42.888l73.242-1.048c7.104 6.267 14.901 10.064 23.603 12.703 5.076 1.54 10.419 2.632 16.02 3.84 1.867.403 4.714 1.201 6.638 1.65 3.668.857 5.12 1.28 9.637 1.624 3.078 12.008 3.773 24.761-4.292 31.614h-10.904v-7.618h7.548c3.332-4.55 2.194-13.872 1.19-17.377-4.826-.962-10.572-2.102-16.625-3.601-5.228-1.295-10.685-2.614-15.973-4.562-7.246-2.672-13.512-5.771-19.647-10.737l-62.953 1.023c1.177 15.418 8.872 32.146 14.358 42.75h-21.756v-7.373z" style="fill:#fdc577;fill-rule:evenodd"/><path d="m421.59 410.886.028 26.787H407.52v-7.496h6.472l-.023-21.683 4.643-6.285 5.85 4.56zM315.02 430.1l15.952-28.806 2.916 10.485-14.371 25.94h-11.402V430.1zM297.602 475.642c10.192 0 19.388 4.273 25.894 11.125.003 3.24-.376 6.295-1.378 9.168-3.73-6.45-9.154-11.738-15.927-14.972-6.406-3.06-13.293-3.968-20.171-3.398a35.6 35.6 0 0 1 11.582-1.923m28.346 13.998a35.6 35.6 0 0 1 5.555 10.48c-2.356 6.823-5.879 13.163-11.928 17.492-6.214 4.448-13.554 5.835-21.077 5.477-.494-3.287-.314-6.708.29-10.107 7.476-.425 15.356-2.119 20.643-7.812 4.296-4.624 6.095-9.798 6.517-15.53m6.674 14.724c.448 2.258.684 4.592.684 6.982 0 3.263-.44 6.424-1.26 9.427-5.769 9.406-14.758 15.536-27.653 14.048a17.7 17.7 0 0 1-1.991-2.229 20.3 20.3 0 0 1-3.365-6.922c7.877.271 15.515-1.319 22.026-5.98 5.505-3.94 9.063-9.347 11.559-15.326m-4.541 25.583a35.9 35.9 0 0 1-10.447 10.956c-3.32-.575-6.622-1.629-9.515-3.313 8.233.028 14.813-2.819 19.962-7.643m-13.641 12.888a35.5 35.5 0 0 1-11.82 3.862c-5.57-3.318-11.104-8.09-14.464-13.13-5.659-8.49-4.907-19.13-1.307-28.25l.02-.054c3.506 1.548 6.683 3.944 9.536 6.55-1.52 7.83-.967 15.755 3.952 22.313 2.064 2.751 3.77 4.17 6.891 5.908 2.24 1.248 4.68 2.164 7.192 2.801m-16.024 4.205q-.406.01-.814.01c-5 0-9.76-1.03-14.082-2.887-5.75-5.065-10.154-11.35-11.862-19.024-1.53-6.872-.675-14.015 1.896-20.527l.175-.443c3.45-.933 7.341-.97 10.742.21-3.916 9.92-4.582 21.394 1.558 30.606 2.986 4.478 7.534 8.73 12.387 12.055m-22.724-7.505c-8.394-6.533-13.794-16.731-13.794-28.19v-.036c2.502-2.476 5.453-4.613 8.68-6.026-2.282 6.545-2.93 13.6-1.415 20.411 1.154 5.187 3.446 9.788 6.529 13.841m-13.607-31.864a35.5 35.5 0 0 1 3.76-12.655c9.501-3.416 19.794-5.28 29.573-1.782 6.94 2.483 12.884 7.921 16.666 14.19-4.104 2.004-8.89 2.747-13.41 3.005-5.628-5.257-12.353-9.685-20.34-9.502-6.032.137-11.673 2.86-16.249 6.744m5.74-16.027a35.9 35.9 0 0 1 10.19-10.15c9.048-2.256 18.527-2.306 27.075 1.775 5.372 2.566 9.826 6.526 13.173 11.354.949 1.369 1.783 2.797 2.56 4.268a21.7 21.7 0 0 1-3.264 4.54 17.5 17.5 0 0 1-3.251 2.732c-4.087-6.801-10.508-12.645-18.03-15.336-9.415-3.368-19.196-2.14-28.452.817" style="fill:#fdc577;fill-rule:evenodd"/><path d="M325.025 619.056h9.591l13.425-17.06c1.08-1.372 2.091-2.535 2.86-4.09a13.4 13.4 0 0 0 1.387-5.961c0-7.444-6.036-13.48-13.48-13.48-7.443 0-13.48 6.036-13.48 13.48 0 6.412 4.48 11.78 10.48 13.144zm13.784-33.218a6.108 6.108 0 1 1-.002 12.215 6.108 6.108 0 0 1 .001-12.215M310.28 619.056h7.133v-40.188h-9.345l-2.133 7.388h4.344zM286.492 578.807c8.333 0 14.645 8.991 14.645 20.078s-6.312 20.078-14.645 20.078-14.645-8.991-14.645-20.078 6.313-20.078 14.645-20.078m0 7.25q-.655 0-1.277.209c-4.375 1.468-5.995 8.642-5.995 12.62s1.62 11.15 5.995 12.618q.622.21 1.277.209.656 0 1.278-.209c4.375-1.468 5.994-8.641 5.994-12.619s-1.62-11.15-5.994-12.619a4 4 0 0 0-1.278-.209M267.235 611.502h-10.679c3.202-4.613 7.451-9.978 9.238-13.592 1.364-2.76 1.828-5.797 1.397-9.078-.433-3.299-2.494-6.178-5.132-8.06-3.872-2.764-8.675-2.937-12.966-1.047-3.294 1.45-5.986 4.243-6.595 8.864l6.847 2.637c.749-4.01 2.602-5.29 5.094-5.52 2.263-.207 4.922 1.138 5.488 4.359.25 1.426-.22 2.56-.967 3.8-5.032 8.36-11.183 18.043-16.021 24.555h24.296zM265.362 188.056l15.57.272 17.996 41.781 19.467-41.125 15.34.268-35.29 69.595zM326.486 258.087l15.392 2.368 7.451-10.78 26.684 4.105 3.018 12.39 15.164 2.333-20.723-73.965zm30.435-19.64 11.4-16.246 4.617 18.71zM403.13 270.7l12.028 5.441 18.924-33.932 18.343 51.78 34.922-62.618-11.92-5.382-18.877 33.847-18.523-51.71zM207.429 194.836a40.38 40.38 0 0 1 25.287 5.476l-7.367 10.29c-5.047-2.89-10.952-3.99-16.771-3.33-7.767.88-14.628 4.979-18.523 11.058-2.497 3.898-3.846 8.62-3.199 13.801 1.694 13.554 15.678 21.116 27.6 19.763 7.494-.85 14.088-4.722 18.322-10.57l11.31 6.59c-5.926 8.797-15.61 14.903-27.61 16.264-20.879 2.368-40.124-11.018-42.52-30.197-1.31-10.489 2.455-20.504 9.663-27.814 5.972-6.057 14.347-10.257 23.808-11.33M146.311 293.783l11.631-6.295-15.938-25.401 18.446-9.294-6.51-10.482-18.424 9.405-8.827-14.18 21.576-11.074-2.798-12.792-37.25 19.278z" style="fill:#fff;fill-rule:evenodd"/></svg>