<svg xmlns="http://www.w3.org/2000/svg" id="Layer_2" viewBox="0 0 336.2 398.5"><defs><style>.cls-2{fill:#041e42}</style></defs><path d="M169.2 388.2s-14.4-12.6-23-17.5-25.9-10.1-42.9-13.4c-6.7-1.2-13.6-2.5-20.8-4.2-23.4-5.1-42.6-18.6-54.1-37.9-12.6-21.2-15.4-47.7-7.6-74.4 1.6-5.4 3-10 4.2-14.2 6.5-21.4 8.2-27.1 8.2-65.2s-16.9-71-17.1-71.3L9 78l5.7-12.9C22.7 47 34.4 28.4 35 27.7l10.9-17.4 19.8 5.6c17 4.9 33.7 7.3 49.6 7.3 24.5 0 39.3-6 41.1-6.6l12.3-6.3 11.1 6.3c2 .8 16.8 6.6 41.1 6.6s32.6-2.4 49.6-7.3l19.8-5.6 11 17.4c.5.7 12.1 19.3 20.2 37.4l5.7 12.9-7.1 12.1c-.1.2-17.1 30.5-17.1 71.3s1.8 43.8 8.2 65.3c1.2 4.1 2.6 8.7 4.2 14 7.7 26.7 5 53.2-7.6 74.4-11.5 19.3-30.7 32.8-54.1 37.9-7.2 1.6-14.1 2.9-20.8 4.2-17.1 3.3-36.9 10-42.9 13.4-5.7 2-20.7 17.5-20.7 17.5" style="fill:#fff"/><path d="M189.7 280.6c-6.1 2.8-20.3 2.3-30.4-1.6-5-1.9-13.8-7.1-14-12.4 0-2.7 0-41.1-.1-78.6 7.1 2.3 11.7 11.4 11.7 11.4 2-9.8-4.1-17.7-4.1-17.7 5.8-6.6 2.6-18.6 2.6-18.6s-2.7 10.3-10.2 11.1v-35.4c10 4 11.4 15.9 11.4 15.9 2.5-22.8 13.8-27.2 13.8-27.2-8.2-1.7-13.6 2.4-13.6 2.4-4.1-2.5-7.9-4.1-11.6-5v-9.7c0-15.9 13.3-26.1 30.2-24.8 17 1.3 22.5 10.4 26.3 16.9 2.6 4.6 5.7 11.4 7.2 21.5-18.3 4-29.1 23.4-29.1 56.4s14.8 52.6 30.2 58.2v9.8c0 17.9-14.2 24.6-20.3 27.5m-70.1-106.5v-23.7s2.5-7.6 9.9-11.2v34.9zm90.4 53.4c-9.6-6.1-17.7-20.3-17.7-43.6s6.4-36.9 17.7-40.2v83.8m33.9-5.1c-1.8-7.4-1.7-15.6-1.7-15.6-4.9 15-9.1 21.9-16.4 23.8v-86.5c3.6 1.6 6.5 5.1 10.1 12.8 0 0 2.1-5.4 8-12.3 5.3-5.2 10.1-6.4 10.1-6.4-7.1-1.8-14.6-.6-18.8-3.7-3.4-2.6-7-4.4-10.7-5.5-1.6-10.8-4.4-20.1-7.9-26.5-5.4-9.9-22.2-33-52.2-26.7-19 4.1-26 14.7-26 14.7s-15.6-10.7-31.5-2.7c0 0 11.1 1.4 16.5 14.3 3.6 8.5 5 15.4 5.6 22.6-8.1 2.1-13.3 6.9-14 7.8-.2.2-.2.1 0 0-5.6-7.1-19.9-5.4-19.9-5.4 6.9 5.2 11 12.9 11 26.5v69.1c0 13.1-11.4 17.7-11.4 17.7 14.9 0 17.9-8.7 17.9-8.7 8.6 9.2 14.7 7 14.7 7s-8-4.3-8-15.3v-36h10.1V263c0 17.6-18 26.5-24.6 28.9 0 0 22.6-.3 33.2-9.3 0 0 15.7 14.5 33.6 14.9 17.9.3 28.2-2.9 39.5-12.2 8.7-7.1 12.7-22.9 14.1-40.4 4.9-.8 9.4-2.9 13.2-6 4.5-3.6 4.9-5.4 11.2-8.3 0 0-3.9-2.6-5.8-8.1" style="fill-rule:evenodd;fill:#041e42"/><path d="M168 41.5s-19.3 9.2-52.8 9.2-35.2-2.1-57.1-8.3c0 0-11 17.4-18.3 33.9 0 0 20.8 35.7 20.8 85.2s-3.4 52-13.5 87C37 283.2 50.8 318 88.3 326.2c34.1 7.5 65.9 9.7 79.7 27.8 13.8-18.1 45.6-20.3 79.7-27.8 37.5-8.2 51.3-43 41.2-77.7-10-34.8-13.5-37.6-13.5-87s20.8-85.2 20.8-85.2c-7.3-16.5-18.3-33.9-18.3-33.9-21.9 6.2-41.1 8.3-57.1 8.3-33.5 0-52.8-9.2-52.8-9.2m0 17.7c9.3 3.2 27.5 8 52.8 8s32.5-1.9 49.3-5.8c2.4 4.2 5.2 9.3 7.8 14.6-6.6 14.1-19 45.7-19 85.4s3 54.4 10.1 78c1.2 3.9 2.5 8.4 4 13.5 4.3 14.7 3 29.2-3.2 39.7-5.4 9-14 14.9-25.7 17.5-6.6 1.4-13.2 2.7-19.6 3.9-21.2 4-41.4 7.9-56.5 17.9-15.1-10-35.3-13.8-56.5-17.9-6.5-1.2-13.1-2.5-19.7-3.9-11.8-2.6-20.4-8.5-25.8-17.5-6.2-10.5-7.4-25-3.2-39.7 1.5-5.2 2.9-9.7 4.1-13.7 7.2-23.6 10.2-33.4 10.2-77.9S64.8 90 58.1 75.9c2.7-5.3 5.5-10.4 7.8-14.6 16.7 3.8 33.2 5.8 49.3 5.8 25.3 0 43.4-4.8 52.8-8" class="cls-2"/><path d="m18.1 76.6 5 8.5c.2.4 18.2 31.8 18.2 75.4s-2 45.8-8.5 67.5c-1.3 4.1-2.7 8.7-4.2 14.1-7.1 24.5-4.7 48.7 6.8 68 10.3 17.4 27.7 29.5 48.8 34.1 7.2 1.5 14 2.9 20.7 4.1 18.4 3.5 36.3 9.1 45.4 14.3 5.6 3.2 13.3 9.2 18.5 13.5 5.7-5.6 12.8-11.8 17.7-13.8 7.6-4.1 27.9-10.8 44.8-14h.3c6.5-1.3 13.3-2.6 20.3-4.1 21.2-4.6 38.6-16.8 48.9-34.1 11.5-19.4 13.9-43.5 6.8-68-1.6-5.3-2.9-9.8-4.1-13.9-6.6-21.9-8.6-28.4-8.6-67.7s18-75 18.1-75.3l5.1-8.7-4.1-9c-7.8-17.7-19.1-35.6-19.6-36.4l-7.8-12.2-13.9 3.9c-17.7 5-35.1 7.6-51.8 7.6-25.4 0-41.2-6-44.1-7.2l-.9-.5-7.4-4.2-9 4.6c-2.9 1.2-18.6 7.3-44.2 7.3s-34.1-2.5-51.9-7.6l-13.9-3.9-7.8 12.2c-.5.7-11.9 18.9-19.6 36.4l-4 9zm151.6 321.9-5.8-5.1c-3.9-3.3-15.3-12.8-21.7-16.5-7.6-4.3-23.8-9.3-40.4-12.5-6.8-1.3-13.7-2.6-21.1-4.2-25.6-5.6-46.7-20.4-59.3-41.6-13.8-23.3-16.8-51.9-8.4-80.8 1.5-5.4 3-10.1 4.2-14.3 6.3-21 7.8-26 7.8-62.8S9.2 93.5 9 93.2L0 77.6 7.3 61c8.1-18.2 19.5-36.4 20.8-38.4L42.2.1l25.6 7.3c16.2 4.6 32.2 7 47.4 7 22 0 35.7-5.1 37.7-5.9l16-8.2 14.5 8.2c2.8 1.1 16.1 5.8 37.5 5.8s31.1-2.4 47.4-7L293.9 0l14.2 22.5c.5.8 12.4 19.7 20.7 38.4l7.4 16.6-9.2 15.8c-.1.1-16 29-16 67.2s1.5 41.8 7.9 63q1.95 6.15 4.2 14.1c8.4 28.9 5.4 57.6-8.4 80.8-12.6 21.2-33.7 36-59.3 41.6-7.2 1.6-14.1 2.9-20.8 4.2h-.2c-16.1 3.1-35.3 9.6-40.4 12.6l-.7.4-.8.3c-2.3 1-10.4 8.2-17.3 15.4l-5.4 5.6z" class="cls-2"/></svg>