<svg xmlns="http://www.w3.org/2000/svg" width="709.36" height="754.787" viewBox="0 0 532.02 566.09"><defs><clipPath id="a"><path d="M0 0h532.02v566.09H0Zm0 0"/></clipPath></defs><path d="M80.305 236.559c-.508 0-1.02.402-1.223.867-6.95 16.187-14.742 31.773-22.273 46.844l-6.34 12.734c-.004.004-2.219 4.543-2.219 4.543-.191.394-.184.902.047 1.277.234.371.629.64 1.066.64h433.32c.442 0 .817-.28 1.051-.651.23-.375.223-.891.032-1.29l-2.207-4.515-6.336-12.73c-7.54-15.079-15.329-30.665-22.286-46.864-.199-.465-.71-.855-1.222-.855zm370.597 2.546H81.125c-6.906 16.012-14.594 31.41-22.04 46.305l-6.335 12.727s-.715 1.46-1.355 2.777h429.238l-1.356-2.773-6.336-12.727c-7.445-14.894-15.132-30.293-22.039-46.309L80.305 236.56" style="display:inline;fill:#fff;fill-opacity:1;fill-rule:nonzero;stroke:none"/><path d="M128.023 76.434c35.59-7.47 57.266-27.204 67.5-39.055 11.508 12.926 34.446 33.398 65.383 35.332v156.2H85.352c12.406-30.966 18.23-57.09 18.23-82.02 0-3.008-.09-6.04-.266-9.008-1.96-33.145-21.808-55.36-36.984-67.645 17.734 5.805 40.781 10.586 61.691 6.196m67.473-42.258c.371-.004.727.152.973.433 11.031 12.676 34.234 34.16 65.672 35.653.68.031 1.312.601 1.312 1.281v158.64c0 .708-.57 1.278-1.273 1.278H83.484c-.421 0-.8-.25-1.035-.606-.238-.347-.265-.835-.105-1.23 12.75-31.398 18.691-57.687 18.691-82.734 0-2.961-.09-5.942-.262-8.86-2.195-37.047-27.476-60.125-42.351-70.582a1.28 1.28 0 0 1-.395-1.636 1.28 1.28 0 0 1 1.575-.602c18.035 6.7 44.453 13.652 67.898 8.73 35.95-7.546 57.426-27.87 67.027-39.312.243-.285.594-.453.97-.453l-67.474 42.258" style="stroke:none;fill-rule:nonzero;fill:#fff;fill-opacity:1"/><path d="M266.602 61.965S294 59.098 309.293 46.352c15.293-12.743 28.355-28.672 28.355-28.672s27.399 45.558 72.641 47.152 71.684-10.512 71.684-10.512l8.605 15.61s-40.781 16.566-48.75 49.062c-7.96 32.5-3.82 43.332 1.598 59.578 5.414 16.25 17.203 54.801 17.203 54.801l-194.984.637z" style="stroke:none;fill-rule:nonzero;fill:#d9bf34;fill-opacity:1"/><path d="m146.352 59.629 49.304-39.188 12.504 14.547v82.094h59.29l-.848 61.809H208.16v54.48l-61.808.426V178.89H92.434l-.848-61.809h54.762z" style="stroke:none;fill-rule:nonzero;fill:#ba2830;fill-opacity:1"/><path d="m194.867 19.441-49.312 39.192a1.27 1.27 0 0 0-.48.996l-.005 56.18H91.586a1.276 1.276 0 0 0-1.277 1.273l.847 61.824c.012.7.578 1.258 1.278 1.258h52.64v53.633c0 .34.137.664.38.902.237.238.566.375.905.371l61.809-.425a1.275 1.275 0 0 0 1.266-1.274v-53.207h57.168c.695 0 1.265-.559 1.273-1.258l.852-61.824a1.275 1.275 0 0 0-1.278-1.273h-58.015v-80.82c0-.305-.11-.598-.309-.833l-12.5-14.547a1.273 1.273 0 0 0-1.758-.168m.625 2.758c1.363 1.59 10.848 12.625 11.39 13.262v81.621c0 .703.571 1.273 1.278 1.273h58c-.035 2.426-.781 56.903-.816 59.262H208.16c-.707 0-1.277.57-1.277 1.274v53.214l-59.258.407V178.89c0-.703-.57-1.274-1.273-1.274h-52.66c-.036-2.36-.782-56.836-.817-59.262h53.473c.703 0 1.273-.57 1.273-1.273v-56.84c.93-.734 46.043-36.59 47.871-38.043" style="stroke:none;fill-rule:nonzero;fill:#231f20;fill-opacity:1"/><path d="M382.77 59.414v174.297h-22.83V45.715z" style="stroke:none;fill-rule:nonzero;fill:#ba2830;fill-opacity:1"/><path d="M359.316 44.61a1.27 1.27 0 0 0-.648 1.105V233.71c0 .703.57 1.273 1.273 1.273h22.829c.703 0 1.273-.57 1.273-1.273V59.414a1.28 1.28 0 0 0-.617-1.094l-22.828-13.695a1.26 1.26 0 0 0-1.282-.016m1.903 3.36c3.136 1.883 19.207 11.523 20.273 12.168v172.3H361.22z" style="stroke:none;fill-rule:nonzero;fill:#231f20;fill-opacity:1"/><path d="M420.41 68.02v165.69h-22.824V64.196z" style="stroke:none;fill-rule:nonzero;fill:#ba2830;fill-opacity:1"/><path d="M396.766 63.223c-.29.242-.454.597-.454.972v169.516c0 .703.57 1.273 1.274 1.273h22.824c.703 0 1.277-.57 1.277-1.273V68.02c0-.625-.453-1.157-1.066-1.258l-22.824-3.825a1.27 1.27 0 0 0-1.031.286m2.097 2.476 20.274 3.399v163.34h-20.274z" style="stroke:none;fill-rule:nonzero;fill:#231f20;fill-opacity:1"/><path d="M345.125 233.71h-22.824V28.853h22.824z" style="stroke:none;fill-rule:nonzero;fill:#ba2830;fill-opacity:1"/><path d="M322.3 27.578c-.702 0-1.277.57-1.277 1.274V233.71c0 .703.575 1.273 1.278 1.273h22.824c.703 0 1.273-.57 1.273-1.273V28.85c0-.703-.57-1.273-1.273-1.273zm21.55 2.55v202.31h-20.277V30.127z" style="stroke:none;fill-rule:nonzero;fill:#231f20;fill-opacity:1"/><path d="M307.48 46.672v187.016h-22.824V58.778z" style="stroke:none;fill-rule:nonzero;fill:#ba2830;fill-opacity:1"/><path d="m306.883 45.547-22.824 12.105a1.28 1.28 0 0 0-.676 1.125v174.91c0 .704.57 1.274 1.273 1.274h22.824c.704 0 1.274-.57 1.274-1.274V46.673a1.27 1.27 0 0 0-1.871-1.125m-.676 3.242v183.625H285.93V59.547c1.168-.621 17.222-9.137 20.277-10.758" style="stroke:none;fill-rule:nonzero;fill:#231f20;fill-opacity:1"/><path d="M491.531 306.012H39.758S21.914 329.59 20.004 367.82s15.293 96.856 104.5 132.54c89.21 35.683 145.922 34.406 226.844 18.476 80.925-15.93 158.027-66.906 160.574-128.074 2.55-61.172-20.39-84.75-20.39-84.75" style="stroke:none;fill-rule:nonzero;fill:#31326e;fill-opacity:1"/><path d="m436.555 492.71-68.22 25.49V305.612h68.22z" style="stroke:none;fill-rule:nonzero;fill:#ba2830;fill-opacity:1"/><path d="M368.336 304.34c-.703 0-1.274.57-1.274 1.273V518.2a1.273 1.273 0 0 0 1.719 1.196L437 493.906a1.28 1.28 0 0 0 .828-1.195V305.613c0-.703-.57-1.273-1.273-1.273zm66.946 2.55v184.938l-65.672 24.535V306.891z" style="stroke:none;fill-rule:nonzero;fill:#231f20;fill-opacity:1"/><path d="m300.117 531.582-68.219-.64V305.64h68.22z" style="stroke:none;fill-rule:nonzero;fill:#ba2830;fill-opacity:1"/><path d="M231.898 304.363a1.28 1.28 0 0 0-1.277 1.278v225.3c0 .7.566 1.27 1.266 1.278l68.218.636c.34.004.668-.128.91-.367.243-.242.376-.566.376-.906V305.641c0-.704-.57-1.278-1.274-1.278zm66.946 2.551v223.383c-2.43-.024-63.285-.594-65.672-.617V306.914z" style="stroke:none;fill-rule:nonzero;fill:#231f20;fill-opacity:1"/><path d="m163.68 516.926-68.22-25.489V305.642h68.22z" style="stroke:none;fill-rule:nonzero;fill:#ba2830;fill-opacity:1"/><path d="M95.46 304.363c-.702 0-1.272.575-1.272 1.278v185.796c0 .532.328 1.008.828 1.196l68.218 25.484a1.272 1.272 0 0 0 1.719-1.191V305.64c0-.704-.57-1.278-1.273-1.278zm66.946 2.551V515.09c-3.23-1.207-64.094-23.95-65.672-24.535v-183.64z" style="stroke:none;fill-rule:nonzero;fill:#231f20;fill-opacity:1"/><path d="m510.46 317.637.106.265c12.98 32.54 17.536 61.746 7.536 94.352-12.676 41.332-49.399 76.652-103.399 99.457-27.547 11.633-57.035 18.32-82.754 22.144-2.168.32-4.304.625-6.418.907-6.797.855-15.715 6.367-15.715 14.023 0 9.344 9.344 14.02 9.344 14.02s-15.719 5.945-27.613-2.125c-8.871-6.02-9.77-16.14-9.77-16.14s-11.468 17.839-15.718 17.839h-.094c-4.25 0-15.719-17.84-15.719-17.84s-.898 10.121-9.77 16.14c-11.894 8.071-27.613 2.126-27.613 2.126s9.348-4.676 9.348-14.02c0-7.656-8.922-13.168-15.719-14.023q-3.166-.424-6.418-.907c-25.719-3.824-55.207-10.511-82.75-22.144-54-22.805-90.722-58.125-103.398-99.457-9.969-32.508-5.473-61.633 7.414-94.05.074-.188.14-.38.226-.567.977-2.18 2.84-6.856 2.84-6.856C-.93 308.121 1.313 284.56 1.313 284.56s5.523 3.824 16.566 1.277c9.258-2.137 11.894-10.195 11.894-10.195s-15.293-16.57-14.867-19.543 23.367-12.32 23.367-12.32-16.144-5.52-19.543-23.79c-3.398-18.265 10.196-29.308 10.196-29.308s3.398 18.691 23.363 14.015c19.965-4.672 29.313-32.707 30.149-42.902.765-7.527.976-15.094.527-22.703-2.48-41.797-43.711-62.578-44.125-62.781l-7.656-3.774 8.558-24.062 3.61-10.13 9.64 4.766c.403.2 40.43 19.754 70.844 13.371 44.27-9.292 62.324-40.273 63.074-41.59l7.762-13.62 8.574 13.085c.25.383 25.418 38.145 62.387 38.145h.758c36.964 0 62.14-37.762 62.39-38.145l8.574-13.085 7.762 13.62c.746 1.317 18.805 32.298 63.074 41.59 30.41 6.383 70.442-13.171 70.844-13.37l9.64-4.766 3.61 10.129 8.559 24.062-7.656 3.774c-.418.203-41.649 20.984-44.125 62.78-.454 7.61-.239 15.177.523 22.704.84 10.195 10.184 38.23 30.148 42.902 19.965 4.676 23.368-14.015 23.368-14.015s13.59 11.043 10.195 29.308c-3.402 18.27-19.543 23.79-19.543 23.79s22.937 9.347 23.363 12.32c.426 2.972-14.867 19.543-14.867 19.543s2.64 8.058 11.895 10.195c11.043 2.547 16.566-1.277 16.566-1.277s2.242 23.562-23.09 26.222c0 0 2.067 4.942 2.84 6.856m-240.625-87.453h178.707l-.031-.055c-10.801-26.594-18.793-54.543-18.793-83.238q0-4.456.261-8.934c2.215-37.387 27.415-60.668 42.887-71.55-16.512 6.132-44.168 13.91-68.605 8.78-35.664-7.484-57.157-27.128-67.742-39.738-11.618 13.348-34.91 34.59-66.594 36.086l-.098.028zm-7.656-158.64-.102-.012c-31.672-1.5-54.957-22.738-66.57-36.082-10.586 12.61-32.078 32.254-67.746 39.739-24.434 5.128-52.094-2.649-68.606-8.782 15.477 10.883 40.672 34.164 42.89 71.551.177 2.984.263 5.965.263 8.934 0 28.687-7.989 56.629-18.786 83.214l-.039.079H262.18zM80.254 237.93c-6.969 16.222-14.809 31.91-22.309 46.914L51.61 297.57a471 471 0 0 0-2.21 4.532l-.036.086h433.32l-.066-.11a580 580 0 0 0-2.199-4.508l-6.34-12.726c-7.5-15.008-15.344-30.7-22.312-46.926l-.051-.086H80.305zM45.71 309.945C33.293 337.06 27.53 357.7 27.53 376.86c0 10.094 1.602 19.782 4.668 29.79 14.828 48.343 64.356 75.542 92.563 87.453 57.87 24.441 127.5 25.68 140.87 25.68h.759c13.37 0 83-1.239 140.875-25.68 28.203-11.91 77.73-39.11 92.558-87.454 3.07-10.007 4.668-19.695 4.668-29.789 0-19.156-5.758-39.789-18.168-66.89l-.09-.133H45.774z" style="stroke:none;fill-rule:nonzero;fill:#da9e31;fill-opacity:1"/><g clip-path="url(#a)"><path d="m336.29.574-8.575 13.082c-.246.375-25.11 37.57-61.324 37.57h-.758c-36.215 0-61.074-37.195-61.32-37.57L195.738.574a1.28 1.28 0 0 0-1.105-.578 1.28 1.28 0 0 0-1.07.645l-7.758 13.62c-.739 1.294-18.528 31.798-62.235 40.973-30.01 6.301-69.617-13.07-70.01-13.264l-9.641-4.77a1.28 1.28 0 0 0-1.043-.039c-.34.137-.602.41-.723.754L38.54 48.043l-8.56 24.066c-.214.61.06 1.286.637 1.57l7.656 3.77c.41.203 40.989 20.754 43.418 61.715.43 7.281.258 14.852-.52 22.5-.862 10.508-10.48 37.418-29.171 41.793-5.79 1.356-10.648.781-14.45-1.7-5.937-3.878-7.359-11.234-7.37-11.308a1.274 1.274 0 0 0-2.059-.758c-.512.414-11.219 9.309-11.219 24.407 0 1.941.176 3.984.575 6.125 2.652 14.257 12.613 20.992 17.566 23.515-10.113 4.223-20.996 9.38-21.398 12.18-.008.07-.016.14-.016.219 0 3.277 8.894 13.484 14.664 19.765-.8 1.828-3.64 7.063-10.7 8.692-10.273 2.37-15.511-1.051-15.562-1.086a1.28 1.28 0 0 0-1.258-.098 1.27 1.27 0 0 0-.726 1.027 16 16 0 0 0-.047 1.38c0 5.117 1.594 22.855 22.61 25.972-.75 1.813-2.208 5.328-2.208 5.328l-.183.45-.063.167c-8.715 21.914-12.984 40.926-12.984 59.168 0 12.04 1.86 23.743 5.535 35.723 12.79 41.7 49.766 77.309 104.121 100.262 23.95 10.113 51.895 17.593 83.059 22.23l6.437.91c5.977.75 14.61 5.727 14.61 12.758 0 8.426-8.555 12.836-8.641 12.88a1.277 1.277 0 0 0 .121 2.331c.664.254 16.477 6.086 28.777-2.262 6.246-4.242 8.707-10.27 9.688-13.922 3.844 5.72 11.195 15.84 15.086 15.84 3.969 0 11.336-10.12 15.18-15.84.976 3.653 3.44 9.68 9.687 13.922 12.3 8.348 28.113 2.516 28.781 2.262.473-.18.793-.621.82-1.125v-.066c0-.48-.269-.922-.699-1.14-.086-.044-8.644-4.454-8.644-12.88 0-7.031 8.633-12.008 14.601-12.758.012 0 6.45-.91 6.45-.91 31.16-4.637 59.105-12.117 83.054-22.23 54.36-22.953 91.336-58.563 104.125-100.262 3.672-11.973 5.532-23.676 5.532-35.719 0-18.328-4.313-37.433-13.106-59.476l-.101-.27-2.23-5.37c21.015-3.118 22.608-20.856 22.608-25.974 0-.843-.039-1.343-.043-1.378a1.27 1.27 0 0 0-.726-1.028 1.29 1.29 0 0 0-1.262.098c-.05.035-5.289 3.457-15.562 1.086-7.059-1.63-9.899-6.864-10.696-8.692 5.77-6.28 14.66-16.488 14.66-19.765a1.3 1.3 0 0 0-.015-.219c-.399-2.8-11.285-7.957-21.395-12.18 4.95-2.523 14.91-9.258 17.563-23.515.398-2.141.574-4.184.574-6.125 0-15.094-10.703-23.993-11.219-24.407a1.26 1.26 0 0 0-1.242-.207 1.28 1.28 0 0 0-.812.965c-.012.074-1.438 7.43-7.375 11.309-3.797 2.48-8.66 3.054-14.446 1.699-18.691-4.375-28.308-31.285-29.172-41.77-.777-7.671-.953-15.242-.52-22.523 2.427-40.973 43.005-61.512 43.419-61.715l7.652-3.77c.578-.284.856-.96.637-1.57l-8.559-24.062-3.609-10.133a1.274 1.274 0 0 0-1.766-.715l-9.64 4.77c-.399.195-40 19.566-70.016 13.265-43.723-9.18-61.492-39.68-62.23-40.972L338.46.64a1.28 1.28 0 0 0-1.066-.645 1.28 1.28 0 0 0-1.106.578m-69.898 53.2c37.629 0 63.199-38.333 63.457-38.72l7.43-11.343c1.55 2.723 6.73 11.812 6.73 11.812.758 1.332 19.086 32.793 63.922 42.204 30.875 6.484 71.265-13.274 71.668-13.473 0 0 6.425-3.18 8.355-4.133l3.133 8.777s7.48 21.043 8.176 22.997c-1.532.753-6.637 3.27-6.637 3.27-.422.206-42.312 21.32-44.836 63.847-.156 2.64-.234 5.32-.234 8.027 0 4.89.254 9.871.765 14.883.785 9.582 9.98 39.066 31.125 44.016 6.504 1.523 12.04.828 16.446-2.063 4.789-3.14 6.957-8.008 7.867-10.8 2.82 2.925 8.8 10.378 8.8 21.167 0 1.754-.16 3.594-.515 5.516-3.215 17.281-18.547 22.762-18.703 22.816-.5.172-.844.64-.86 1.168v.035c0 .52.313.985.793 1.184 10.082 4.105 21.442 9.566 22.543 11.363-.277 1.992-7.671 11.051-14.504 18.45a1.29 1.29 0 0 0-.273 1.261c.117.356 2.977 8.77 12.82 11.04 7.844 1.812 13.036.538 15.633-.505-.078 5.446-2.078 20.852-22.008 22.946a1.28 1.28 0 0 0-1.136 1.27q-.002.25.097.491l2.832 6.836c0-.004.004.008 0 0l.067.168c8.691 21.785 12.945 40.621 12.945 58.656 0 11.79-1.816 23.239-5.406 34.942-12.563 40.965-49.028 76.004-102.68 98.66-23.75 10.031-51.488 17.45-82.437 22.055l-6.403.906c-7.047.887-16.824 6.691-16.824 15.285 0 6.965 4.625 11.418 7.602 13.59-4.793 1.23-15.43 2.98-23.875-2.75-8.243-5.594-9.211-15.105-9.22-15.203a1.277 1.277 0 0 0-2.343-.574c-5.332 8.3-12.45 17.257-14.644 17.257-2.29 0-9.407-8.957-14.743-17.257a1.273 1.273 0 0 0-2.34.574c-.007.098-.976 9.61-9.214 15.203-8.446 5.73-19.082 3.98-23.88 2.75 2.981-2.172 7.602-6.625 7.602-13.59 0-8.594-9.777-14.398-16.832-15.285l-6.39-.906c-30.95-4.606-58.688-12.024-82.442-22.055-53.648-22.656-90.113-57.695-102.675-98.66-3.594-11.715-5.415-23.172-5.415-34.965 0-17.934 4.208-36.644 12.793-58.238 0-.004.207-.52.207-.52l2.86-6.898a1.23 1.23 0 0 0-.086-1.133 1.26 1.26 0 0 0-.965-.61c-19.93-2.093-21.926-17.5-22.004-22.945 2.594 1.043 7.79 2.317 15.633.504 9.844-2.27 12.7-10.683 12.816-11.039q.066-.195.067-.394c0-.317-.121-.63-.34-.868-6.832-7.398-14.223-16.457-14.5-18.449 1.102-1.797 12.46-7.258 22.543-11.363.476-.2.789-.664.789-1.184v-.035a1.27 1.27 0 0 0-.86-1.168c-.152-.054-15.484-5.535-18.699-22.816a30 30 0 0 1-.515-5.516c0-10.789 5.98-18.242 8.8-21.168.91 2.793 3.079 7.66 7.864 10.801 4.41 2.89 9.941 3.586 16.449 2.063 21.14-4.95 30.336-34.434 31.125-44.043.508-4.993.762-9.961.762-14.848 0-2.707-.074-5.39-.235-8.035-2.515-42.496-44.41-63.64-44.832-63.848l-6.64-3.27 8.18-22.996 3.128-8.777c1.93.953 8.356 4.133 8.356 4.133.406.2 40.797 19.957 71.672 13.473 44.816-9.407 63.16-40.872 63.922-42.204l6.726-11.812 7.434 11.344c.254.386 25.828 38.718 63.453 38.718zM511.64 317.16h.004c0 .004-.004-.008-.004 0" style="stroke:none;fill-rule:nonzero;fill:#231f20;fill-opacity:1"/></g><path d="M335.559 34.61c-11.036 12.68-34.247 34.167-65.692 35.652-.68.031-1.316.62-1.316 1.3l.012 158.622c0 .707.57 1.277 1.273 1.277h178.707c.422 0 .805-.238 1.039-.594.238-.351.27-.824.11-1.219-12.758-31.41-18.7-57.707-18.7-82.757 0-2.961.086-5.942.258-8.86 2.2-37.047 27.477-60.125 42.352-70.582a1.274 1.274 0 0 0-1.176-2.238c-18.035 6.7-44.453 13.652-67.903 8.73-35.949-7.546-57.425-27.87-67.027-39.312a1.26 1.26 0 0 0-.965-.453 1.27 1.27 0 0 0-.972.433m.945 2.77c10.23 11.851 31.906 31.586 67.5 39.055 20.91 4.39 43.957-.391 61.687-6.196-15.171 12.285-35.02 34.5-36.984 67.645-.176 2.969-.266 6-.266 9.008 0 24.93 5.825 51.054 18.23 82.02H271.11l-.007-156.2c30.949-1.926 53.89-22.402 65.402-35.332m-141.009-3.203c-.375 0-.726.168-.969.453C184.926 46.07 163.45 66.395 127.5 73.94c-23.445 4.922-49.863-2.03-67.898-8.73a1.28 1.28 0 0 0-1.575.602 1.28 1.28 0 0 0 .395 1.636c14.875 10.457 40.156 33.535 42.351 70.582.172 2.918.262 5.899.262 8.86 0 25.047-5.941 51.336-18.691 82.734-.16.395-.133.883.105 1.23.235.356.614.606 1.035.606H262.18c.703 0 1.273-.57 1.273-1.277V71.543c0-.68-.633-1.25-1.312-1.281-31.438-1.492-54.641-22.977-65.672-35.653a1.27 1.27 0 0 0-.973-.433m-67.473 42.258c35.59-7.47 57.266-27.204 67.5-39.055 11.508 12.926 34.446 33.398 65.383 35.332v156.2H85.352c12.406-30.966 18.23-57.09 18.23-82.02 0-3.008-.09-6.04-.266-9.008-1.96-33.145-21.808-55.36-36.984-67.645 17.734 5.805 40.781 10.586 61.691 6.196" style="stroke:none;fill-rule:nonzero;fill:#231f20;fill-opacity:1"/><path d="M80.305 236.559c-.508 0-1.02.402-1.223.867-6.95 16.187-14.742 31.773-22.273 46.844l-6.34 12.734c-.004.004-2.219 4.543-2.219 4.543-.191.394-.184.902.047 1.277.234.371.629.64 1.066.64h433.32c.442 0 .817-.28 1.051-.651.23-.375.223-.891.032-1.29l-2.207-4.515-6.336-12.73c-7.54-15.079-15.329-30.665-22.286-46.864-.199-.465-.71-.855-1.222-.855zm370.597 2.546c6.907 16.016 14.594 31.415 22.04 46.31l6.335 12.726 1.356 2.773H51.395c.64-1.316 1.355-2.777 1.355-2.777l6.336-12.727c7.445-14.894 15.133-30.293 22.039-46.305z" style="display:inline;fill:#211e1e;fill-opacity:1;fill-rule:nonzero;stroke:none"/><path d="M45.773 308.563c-.5 0-1.015.398-1.222.851-12.653 27.633-18.293 48.434-18.293 67.445 0 9.93 1.543 19.797 4.722 30.164 14.98 48.84 64.875 76.258 93.286 88.254 58.097 24.536 127.953 25.778 141.367 25.778h.758c13.414 0 83.27-1.242 141.37-25.778 28.407-11.996 78.305-39.414 93.282-88.257 3.18-10.364 4.727-20.23 4.727-30.16 0-19.008-5.641-39.801-18.286-67.423a1.2 1.2 0 0 0-.109-.195l-.09-.133a1.28 1.28 0 0 0-1.05-.546zm439.665 2.546c12.28 26.957 17.78 47.27 17.78 65.75 0 9.676-1.507 19.297-4.613 29.414-14.671 47.852-63.835 74.832-91.835 86.653-57.649 24.347-127.051 25.578-140.38 25.578h-.757c-13.328 0-82.73-1.23-140.375-25.578-28-11.82-77.164-38.801-91.84-86.653-3.102-10.117-4.613-19.738-4.613-29.414 0-18.48 5.504-38.793 17.785-65.75z" style="stroke:none;fill-rule:nonzero;fill:#231f20;fill-opacity:1"/><path d="M227.66 480.133c-36.687-21.184-49.262-68.098-28.078-104.79 21.184-36.687 68.098-49.257 104.785-28.077 36.692 21.183 49.262 68.097 28.078 104.789-21.183 36.687-68.097 49.257-104.785 28.078" style="stroke:none;fill-rule:nonzero;fill:#992d31;fill-opacity:1"/><path d="M245.828 338.371c-20.117 5.39-36.933 18.297-47.351 36.336-21.497 37.238-8.692 85.027 28.546 106.527s85.024 8.696 106.528-28.543c21.5-37.242 8.695-85.027-28.543-106.527-18.04-10.414-39.059-13.184-59.18-7.793m-17.531 140.656c-36.024-20.797-48.41-67.023-27.61-103.047 10.075-17.449 26.34-29.93 45.801-35.144 19.465-5.215 39.793-2.54 57.242 7.535 17.45 10.074 29.934 26.34 35.149 45.805 5.215 19.46 2.535 39.789-7.54 57.238-20.796 36.024-67.023 48.41-103.042 27.613" style="stroke:none;fill-rule:nonzero;fill:#231f20;fill-opacity:1"/><path d="M264.93 413.031a1.27 1.27 0 0 0 .41 1.742 1.28 1.28 0 0 0 1.754-.398c.148-.23 3.781-5.652 15.77-3.496 7.257 1.3 12.449 4.176 15.437 8.539 3.824 5.59 2.668 11.812 2.652 11.875-.105.55.164 1.105.66 1.367a1.275 1.275 0 0 0 1.5-.226c.137-.137 3.414-3.34 10.512-2.88 10.86.708 14.48 6.47 16.223 9.239 3.125 4.977 2.949 10.227 2.945 10.281a1.275 1.275 0 0 0 2.547.113c.012-.246.23-6.074-3.336-11.75-1.813-2.882-6.055-9.636-18.215-10.425-4.77-.309-8.078.867-10.101 1.965v-.086c0-2.7-.54-6.883-3.258-10.88-3.383-4.964-9.14-8.21-17.114-9.644-13.828-2.484-18.207 4.371-18.386 4.664" style="stroke:none;fill-rule:nonzero;fill:#231f20;fill-opacity:1"/><path d="M301.05 431.004c-.085.18-8.82 18.492-31.421 33.894-22.61 15.403-34.805 17.614-34.926 17.637a1.275 1.275 0 0 0 .426 2.512c.508-.086 12.773-2.266 35.934-18.043 23.218-15.82 31.937-34.152 32.296-34.926a1.27 1.27 0 0 0-.617-1.691 1.27 1.27 0 0 0-1.691.617m-38.965-95.086c-.219.113-5.375 2.836-8.508 8.766-.973 1.836-2.742 5.183-2.742 9.996 0 3.07.719 6.734 2.82 10.988 2.121 4.293 4.793 6.562 6.758 7.766-2.34 1.332-5.746 3.902-7.867 8.304-1.274 2.64-1.91 5.563-1.91 8.746 0 3.352.703 6.993 2.11 10.899 4.76 13.219 12.89 13.582 13.233 13.59.7.02 1.278-.528 1.301-1.227a1.276 1.276 0 0 0-1.219-1.32c-.277-.012-6.789-.446-10.917-11.906-2.5-6.938-2.606-12.872-.32-17.641 2.925-6.106 8.898-8.215 8.956-8.238a1.276 1.276 0 0 0-.094-2.437c-.183-.052-4.597-1.29-7.746-7.665-4.82-9.758-1.64-15.773-.113-18.668 2.75-5.195 7.387-7.664 7.434-7.691a1.275 1.275 0 0 0-1.176-2.262" style="stroke:none;fill-rule:nonzero;fill:#231f20;fill-opacity:1"/><path d="M263.258 372.164c-.7.063-1.219.684-1.156 1.383.058.7.68 1.219 1.378 1.156.204-.015 20.43-1.605 45.067 10.27 24.64 11.875 32.656 21.332 32.734 21.425a1.275 1.275 0 0 0 1.965-1.625c-.324-.398-8.348-9.93-33.594-22.097-25.308-12.196-45.547-10.582-46.394-10.512m2.164 40.414a1.284 1.284 0 0 0-.535 1.719c.129.242 3.008 6.098-4.852 15.406-4.758 5.633-9.844 8.692-15.113 9.098-6.754.52-11.567-3.598-11.617-3.64a1.279 1.279 0 0 0-2.066 1.3c.05.187 1.183 4.625-2.762 10.543-6.04 9.055-12.844 9.305-16.11 9.43-5.875.218-10.332-2.563-10.375-2.59a1.28 1.28 0 0 0-1.762.39 1.276 1.276 0 0 0 .391 1.758c.203.133 5.14 3.238 11.84 2.988 3.402-.128 11.371-.425 18.137-10.562 2.66-3.988 3.285-7.445 3.343-9.746 2.325 1.36 6.239 3.035 11.13 2.672 5.992-.446 11.683-3.809 16.91-9.996 9.066-10.735 5.316-17.953 5.156-18.258a1.274 1.274 0 0 0-1.715-.512" style="stroke:none;fill-rule:nonzero;fill:#231f20;fill-opacity:1"/><path d="M217.328 391.422c2.09 28.015 13.606 44.73 14.098 45.43l2.086-1.461c-.117-.168-11.606-16.887-13.645-44.16-2.035-27.282 2.145-38.95 2.188-39.063l-2.387-.89c-.184.484-4.426 12.195-2.34 40.144m132.168-145.598a.724.724 0 0 0-.723.723v45.879c0 .398.325.722.723.722h32.668c6.344 0 12.766-4.644 12.766-13.52 0-5.476-2.278-8.796-4.184-10.616-.691-.66-1.535-1.207-2.426-1.739 1.227-2.27 1.899-4.765 1.899-7.675l-.004-.317c-.125-8.312-6.34-13.457-12.031-13.457zm28.688 9.09c.027 0 2.878.422 2.937 4.496 0 .063.004.125.004.184 0 1.969-.48 3.492-1.395 4.418-.656.668-1.328.812-1.53.812h-20.337v-9.91zm.016 19h1.113c.875-.027 3.657.223 5.18 1.695.906.88 1.344 2.192 1.344 4.02 0 4.11-2.809 4.43-3.672 4.43h-24.3v-10.145zm-112.27-28.09a.724.724 0 0 0-.723.723v45.879c0 .398.324.722.723.722h7.648a.74.74 0 0 0 .512-.21.74.74 0 0 0 .21-.512l-.01-20.313h17.327a.724.724 0 0 0 .723-.722v-7.645a.724.724 0 0 0-.723-.723h-17.316v-8.109h26.633a.72.72 0 0 0 .722-.723v-7.644a.724.724 0 0 0-.722-.723zm-40.989 34.828c0 6.864 4.614 12.45 10.282 12.45 3.746 0 7.14-2.344 8.922-6.23.207-.454.09-1.087-.368-1.321-.914-.473-2.504-1.059-3.43-1.348-.644-.2-.933.356-1.035.559-.949 1.91-2.468 3.074-4.09 3.074-2.046 0-3.808-1.86-4.57-4.55h14.13a.72.72 0 0 0 .722-.724v-1.91c0-6.867-4.61-12.453-10.281-12.453-5.668 0-10.282 5.586-10.282 12.453m10.282-7.183c2.047 0 3.812 1.855 4.574 4.547h-9.145c.762-2.692 2.524-4.547 4.57-4.547m-18.105-17.793a.726.726 0 0 0-.722.722v13.93c-1.54-1.043-3.215-1.726-5.012-1.726-5.668 0-10.281 5.5-10.281 12.257 0 6.758 4.613 12.254 10.28 12.254 1.782 0 3.485-.554 5.013-1.578v.703a.72.72 0 0 0 .722.723h3.82c.403 0 .727-.32.727-.723v-35.84a.727.727 0 0 0-.726-.722zm-10.747 25.183c0-3.851 2.246-6.988 5.012-6.988 2.762 0 5.012 3.137 5.012 6.988s-2.25 6.985-5.012 6.985c-2.766 0-5.012-3.133-5.012-6.985m85.985 8.176a4.04 4.04 0 0 0 4.04 4.035 4.04 4.04 0 0 0 4.039-4.035 4.044 4.044 0 0 0-4.04-4.039 4.044 4.044 0 0 0-4.039 4.04m107.051.038a4.04 4.04 0 0 0 4.04 4.035 4.04 4.04 0 0 0 4.038-4.035 4.044 4.044 0 0 0-4.039-4.039 4.044 4.044 0 0 0-4.039 4.04m-217.206-.001a4.04 4.04 0 0 0 4.038 4.035 4.04 4.04 0 0 0 4.04-4.035 4.044 4.044 0 0 0-4.04-4.039 4.044 4.044 0 0 0-4.039 4.04m-57.773-19.606c0 13.043 13.008 23.652 29 23.652 6.594 0 13.05-1.851 18.18-5.219a.72.72 0 0 0 .324-.601l.004-10.094c0-.305-.2-.578-.489-.68a.715.715 0 0 0-.8.23c-3.575 4.485-10.168 7.274-17.22 7.274-10.98 0-19.905-6.535-19.905-14.562 0-8.028 8.925-14.559 19.906-14.559 7.035 0 13.625 2.778 17.199 7.25a.725.725 0 0 0 1.29-.453l-.017-10.07a.72.72 0 0 0-.324-.606c-5.125-3.36-11.57-5.215-18.148-5.215-15.992 0-29 10.614-29 23.653" style="stroke:none;fill-rule:nonzero;fill:#231f20;fill-opacity:1"/></svg>