<svg xmlns="http://www.w3.org/2000/svg" xml:space="preserve" width="456" height="488"><defs><clipPath id="a" clipPathUnits="userSpaceOnUse"><path d="M1704.72 3193.53s-165.24-16.8-330.49 71.46c-165.25 88.27-225.68 159.74-225.68 159.74s-236.968-143.44-402.218-165.25c-165.246-21.82-347.047 5.51-347.047 5.51S884 2659.16 520.402 1976.1C156.809 1293.04-.672 1130.58 300.234 709.031 520.402 400.598 1566.81 367.5 1699.21 367.5s1184.33 33.098 1404.49 341.531c300.91 421.549 143.43 584.009-220.16 1267.069-363.61 683.06 121.11 1288.89 121.11 1288.89s-181.8-27.33-347.05-5.51c-165.24 21.81-402.21 165.25-402.21 165.25s-60.44-71.47-225.68-159.74c-165.25-88.26-324.99-71.46-324.99-71.46"/></clipPath><clipPath id="b" clipPathUnits="userSpaceOnUse"><path d="M1261.55 971.648c0 238.762 193.56 432.322 432.33 432.322s432.32-193.56 432.32-432.322c0-238.769-193.55-432.328-432.32-432.328s-432.33 193.559-432.33 432.328"/></clipPath></defs><path d="M1704.04 3292.95s-126.3-21.98-275 99.39c-148.7 121.36-231.45 192.83-231.45 192.83s-336.012-181.8-484.711-203.87-374.383 5.52-374.383 5.52l-71.715-137.67s280.602-435.06 253.27-627.89c-27.336-192.83-66.43-304.86-198.102-248-109.652 47.35-138.621 69.88-138.621 69.88s-29.586-26-24.316-91.94c5.269-65.95 59.722-75.6 59.722-75.6s-61.3-25.78-56.468-56.57c5.062-32.27 54.867-38.6 76.933-33.08 22.067 5.51-88.015-93.79-88.015-181.8 0-88.02 3.894-118.36 30.539-118.36 53.074 0 43.449 136.96 101.613 195.59 53.82 54.25 93.531 49.65 93.531 49.65s-27.582-71.72 5.516-82.75c33.101-11.03 77.234 44.13 77.234 44.13s-11.285-143.43-104.816-242.48c-93.535-99.05-217.813-186.5-258.782-104.56-33.105 66.2-99.046-132.16 22.067-154.22 121.113-22.07 93.531-11.03 93.531-11.03S40.852 1392.8 40.852 1040.24c0-352.568 231.695-578.248 451.863-666.517 220.164-88.266 771.325-115.848 859.335-209.379 88.02-93.531 76.99-159.73 76.99-159.73s104.82 27.827 82.75 104.812c-22.07 76.984-77.23 137.668-77.23 137.668s220.17-137.668 291.88-137.668 291.88 137.668 291.88 137.668-55.17-60.684-77.23-137.668c-22.07-76.985 82.75-104.813 82.75-104.813s-11.04 66.2 76.98 159.731S2740 285.457 2960.16 373.723c220.17 88.269 451.86 313.949 451.86 666.517 0 352.56-170.76 539.88-170.76 539.88s-27.58-11.04 93.53 11.03c121.12 22.06 55.17 220.42 22.07 154.22-40.97-81.94-165.25 5.51-258.79 104.56-93.53 99.05-104.81 242.48-104.81 242.48s44.13-55.16 77.23-44.13 5.52 82.75 5.52 82.75 39.71 4.6 93.53-49.65c58.17-58.63 48.54-195.59 101.62-195.59 26.64 0 30.54 30.34 30.54 118.36 0 88.01-110.09 187.31-88.02 181.8 22.06-5.52 71.87.81 76.93 33.08 4.84 30.79-56.47 56.57-56.47 56.57s54.46 9.65 59.73 75.6c5.26 65.94-24.32 91.94-24.32 91.94s-28.97-22.53-138.62-69.88c-131.67-56.86-170.77 55.17-198.1 248s253.26 627.89 253.26 627.89l-71.71 137.67s-225.68-27.59-374.38-5.52-484.71 203.87-484.71 203.87-82.75-71.47-231.45-192.83c-148.71-121.37-319.8-99.39-319.8-99.39" style="fill:#231f20;fill-opacity:1;fill-rule:evenodd;stroke:none" transform="matrix(.13333 0 0 -.13333 0 488)"/><path d="M1676.81 3347.41s-126.29-21.98-275 99.38c-148.7 121.37-231.45 192.84-231.45 192.84s-336.008-181.8-484.712-203.87c-148.699-22.06-374.375 5.52-374.375 5.52l-71.718-137.67s280.597-435.06 253.265-627.9c-27.332-192.83-66.429-304.85-198.097-247.99-109.653 47.35-138.618 69.88-138.618 69.88s-29.589-26-24.324-91.95c5.27-65.95 59.731-75.6 59.731-75.6s-61.309-25.77-56.473-56.56c5.063-32.27 54.867-38.6 76.93-33.09 22.066 5.52-88.012-93.78-88.012-181.79 0-88.02 3.891-118.37 30.539-118.37 53.07 0 43.445 136.97 101.609 195.6 53.825 54.25 93.532 49.64 93.532 49.64s-27.582-71.71 5.519-82.75c33.098-11.03 77.235 44.14 77.235 44.14s-11.286-143.43-104.817-242.48c-93.539-99.05-217.812-186.5-258.785-104.57-33.098 66.2-99.047-132.14 22.07-154.21 121.11-22.07 93.532-11.04 93.532-11.04S13.625 1447.26 13.625 1094.7c0-352.571 231.699-578.251 451.863-666.516 220.16-88.266 771.322-115.852 859.342-209.383 88.02-93.535 76.98-159.735 76.98-159.735s104.82 27.836 82.76 104.817c-22.07 76.984-77.24 137.668-77.24 137.668s220.17-137.668 291.88-137.668 291.88 137.668 291.88 137.668-55.16-60.684-77.23-137.668c-22.06-76.98 82.75-104.817 82.75-104.817s-11.04 66.2 76.98 159.735c88.02 93.531 639.18 121.117 859.34 209.383 220.17 88.265 451.87 313.945 451.87 666.516 0 352.56-170.76 539.87-170.76 539.87s-27.59-11.03 93.52 11.04c121.12 22.07 55.17 220.41 22.07 154.21-40.97-81.93-165.24 5.52-258.78 104.57-93.53 99.05-104.82 242.48-104.82 242.48s44.13-55.17 77.24-44.14c33.1 11.04 5.51 82.75 5.51 82.75s39.71 4.61 93.54-49.64c58.16-58.63 48.53-195.6 101.61-195.6 26.64 0 30.53 30.35 30.53 118.37 0 88.01-110.07 187.31-88.01 181.79 22.07-5.51 71.87.82 76.94 33.09 4.82 30.79-56.48 56.56-56.48 56.56s54.46 9.65 59.73 75.6c5.26 65.95-24.32 91.95-24.32 91.95s-28.97-22.53-138.62-69.88c-131.67-56.86-170.77 55.16-198.1 247.99-27.33 192.84 253.27 627.9 253.27 627.9l-71.72 137.67s-225.68-27.58-374.38-5.52c-148.7 22.07-484.71 203.87-484.71 203.87s-82.76-71.47-231.45-192.84c-148.7-121.36-319.8-99.38-319.8-99.38" style="fill:#e5b931;fill-opacity:1;fill-rule:evenodd;stroke:none" transform="matrix(.13333 0 0 -.13333 0 488)"/><path d="M1676.81 3347.41s-126.29-21.98-275 99.38c-148.7 121.37-231.45 192.84-231.45 192.84s-336.008-181.8-484.712-203.87c-148.699-22.06-374.375 5.52-374.375 5.52l-71.718-137.67s280.597-435.06 253.265-627.9c-27.332-192.83-66.429-304.85-198.097-247.99-109.653 47.35-138.618 69.88-138.618 69.88s-29.589-26-24.324-91.95c5.27-65.95 59.731-75.6 59.731-75.6s-61.309-25.77-56.473-56.56c5.063-32.27 54.867-38.6 76.93-33.09 22.066 5.52-88.012-93.78-88.012-181.79 0-88.02 3.891-118.37 30.539-118.37 53.07 0 43.445 136.97 101.609 195.6 53.825 54.25 93.532 49.64 93.532 49.64s-27.582-71.71 5.519-82.75c33.098-11.03 77.235 44.14 77.235 44.14s-11.286-143.43-104.817-242.48c-93.539-99.05-217.812-186.5-258.785-104.57-33.098 66.2-99.047-132.14 22.07-154.21 121.11-22.07 93.532-11.04 93.532-11.04S13.625 1447.26 13.625 1094.7c0-352.571 231.699-578.251 451.863-666.516 220.16-88.266 771.322-115.852 859.342-209.383 88.02-93.535 76.98-159.735 76.98-159.735s104.82 27.836 82.76 104.817c-22.07 76.984-77.24 137.668-77.24 137.668s220.17-137.668 291.88-137.668 291.88 137.668 291.88 137.668-55.16-60.684-77.23-137.668c-22.06-76.98 82.75-104.817 82.75-104.817s-11.04 66.2 76.98 159.735c88.02 93.531 639.18 121.117 859.34 209.383 220.17 88.265 451.87 313.945 451.87 666.516 0 352.56-170.76 539.87-170.76 539.87s-27.59-11.03 93.52 11.04c121.12 22.07 55.17 220.41 22.07 154.21-40.97-81.93-165.24 5.52-258.78 104.57-93.53 99.05-104.82 242.48-104.82 242.48s44.13-55.17 77.24-44.14c33.1 11.04 5.51 82.75 5.51 82.75s39.71 4.61 93.54-49.64c58.16-58.63 48.53-195.6 101.61-195.6 26.64 0 30.53 30.35 30.53 118.37 0 88.01-110.07 187.31-88.01 181.79 22.07-5.51 71.87.82 76.94 33.09 4.82 30.79-56.48 56.56-56.48 56.56s54.46 9.65 59.73 75.6c5.26 65.95-24.32 91.95-24.32 91.95s-28.97-22.53-138.62-69.88c-131.67-56.86-170.77 55.16-198.1 247.99-27.33 192.84 253.27 627.9 253.27 627.9l-71.72 137.67s-225.68-27.58-374.38-5.52c-148.7 22.07-484.71 203.87-484.71 203.87s-82.76-71.47-231.45-192.84c-148.7-121.36-319.8-99.38-319.8-99.38z" style="fill:none;stroke:#231f20;stroke-width:21.34569931;stroke-linecap:butt;stroke-linejoin:miter;stroke-miterlimit:3.86370993;stroke-dasharray:none;stroke-opacity:1" transform="matrix(.13333 0 0 -.13333 0 488)"/><g clip-path="url(#a)" transform="matrix(.13333 0 0 -.13333 0 488)"><path d="M313.902 3528.46H1699.21v-1334.1H313.902z" style="fill:#fff;fill-opacity:1;fill-rule:nonzero;stroke:none"/><path d="M111.867 1618.02H3318.53V295.188H111.867z" style="fill:#4d4852;fill-opacity:1;fill-rule:nonzero;stroke:none"/><path d="M1699.21 3426.1h1331.9V2162.79h-1331.9z" style="fill:#f5dd02;fill-opacity:1;fill-rule:nonzero;stroke:none"/><path d="M1830.16 3358.14h154.72V2179.02h-154.72zm246.52 95.59h154.71V2179.02h-154.71zm246.52 0h154.71V2179.02H2323.2zm246.51 0h154.72V2179.02h-154.72z" style="fill:#e51b23;fill-opacity:1;fill-rule:nonzero;stroke:none"/><path d="M618.754 1639.67h463.596V363.145H618.754zm837.586 0h463.6V363.145h-463.6zm837.6 0h463.6V363.145h-463.6z" style="fill:#bc332f;fill-opacity:1;fill-rule:nonzero;stroke:none"/><path d="M976.516 3480.21h436.534v-512.3h286.16V2547.6h-286.16v-384.81H976.516v384.81H543v420.31h433.516z" style="fill:#e51b23;fill-opacity:1;fill-rule:nonzero;stroke:none"/><path d="M266.398 2184.43H3131.53v-593.46H266.398z" style="fill:#fff;fill-opacity:1;fill-rule:nonzero;stroke:none"/><path d="M266.398 2184.43H3131.53v-593.46H266.398Z" style="fill:none;stroke:#231f20;stroke-width:21.34569931;stroke-linecap:butt;stroke-linejoin:miter;stroke-miterlimit:3.86370993;stroke-dasharray:none;stroke-opacity:1"/></g><path d="M1261.55 971.648c0 238.762 193.56 432.322 432.33 432.322s432.32-193.56 432.32-432.322c0-238.769-193.55-432.328-432.32-432.328s-432.33 193.559-432.33 432.328" style="fill:#e5b931;fill-opacity:1;fill-rule:nonzero;stroke:none" transform="matrix(.13333 0 0 -.13333 0 488)"/><g clip-path="url(#b)" transform="matrix(.13333 0 0 -.13333 0 488)"><path d="M1537.66 1222.56c0 27.54 22.32 49.86 49.86 49.86s49.86-22.32 49.86-49.86c0-27.53-22.32-49.86-49.86-49.86s-49.86 22.33-49.86 49.86zm24.42 47.83s-44.59 87.32-66.97 109.71m111.75-107.68s30.52 113.78 30.52 152.45" style="fill:none;stroke:#231f20;stroke-width:21.34569931;stroke-linecap:butt;stroke-linejoin:miter;stroke-miterlimit:3.86370993;stroke-dasharray:none;stroke-opacity:1"/><path d="M1625.17 1258.18s207.22 117.85 274.37 125.99m-262.16-164.66s194.81-37.1 280.48-85.29c97.68-54.95 235.89-146.349 235.89-146.349m-524.51 203.149s121.92-172.62 162.63-298.793c39.34-121.981 89.36-341.532 89.36-341.532m-311.01 624.225s-54.76-191.299-60.87-313.221c-6.1-121.922 9.99-315.074 9.99-315.074m14.25 662.715s-166.51-116-211.29-156.52c-44.76-40.52-81.4-75.121-81.4-75.121m296.76 264.191s-124.14 44.78-182.97 40.71" style="fill:none;stroke:#231f20;stroke-width:21.34569931;stroke-linecap:butt;stroke-linejoin:miter;stroke-miterlimit:3.86370993;stroke-dasharray:none;stroke-opacity:1"/></g><path d="M1261.55 971.648c0 238.762 193.56 432.322 432.33 432.322s432.32-193.56 432.32-432.322c0-238.769-193.55-432.328-432.32-432.328s-432.33 193.559-432.33 432.328z" style="fill:none;stroke:#231f20;stroke-width:21.34569931;stroke-linecap:butt;stroke-linejoin:miter;stroke-miterlimit:3.86370993;stroke-dasharray:none;stroke-opacity:1" transform="matrix(.13333 0 0 -.13333 0 488)"/><path d="M1704.72 3193.53s-165.24-16.8-330.49 71.46c-165.25 88.27-225.68 159.74-225.68 159.74s-236.968-143.44-402.218-165.25c-165.246-21.82-347.047 5.51-347.047 5.51S884 2659.16 520.402 1976.1C156.809 1293.04-.672 1130.58 300.234 709.031 520.402 400.598 1566.81 367.5 1699.21 367.5s1184.33 33.098 1404.49 341.531c300.91 421.549 143.43 584.009-220.16 1267.069-363.61 683.06 121.11 1288.89 121.11 1288.89s-181.8-27.33-347.05-5.51c-165.24 21.81-402.21 165.25-402.21 165.25s-60.44-71.47-225.68-159.74c-165.25-88.26-324.99-71.46-324.99-71.46z" style="fill:none;stroke:#231f20;stroke-width:45.38090134;stroke-linecap:butt;stroke-linejoin:miter;stroke-miterlimit:3.8636899;stroke-dasharray:none;stroke-opacity:1" transform="matrix(.13333 0 0 -.13333 0 488)"/><path d="M916.473 1701.13v170.27h223.277v45.34H916.473v119.68h237.007v45.33H844.211v-380.62zm908.577 282.56c-7.95 68.01-83.1 103.86-183.53 105.97-174.87 3.69-231.23-104.91-231.23-198.23 0-106.48 61.42-198.22 215.33-198.22 101.87 0 190.04 42.18 197.26 105.97h-75.87c-8.68-40.6-59.25-60.63-114.88-60.63-113.46 0-145.97 74.34-145.97 152.88 0 66.96 23.84 152.89 152.46 152.89 53.47 0 106.95-24.25 110.55-60.63z" style="fill:#231f20;fill-opacity:1;fill-rule:nonzero;stroke:none" transform="matrix(.13333 0 0 -.13333 0 488)"/><path d="M2266.79 2036.42h89.59c68.64 1.58 117.07-7.39 117.07-57.47s-48.43-59.05-117.07-57.47h-89.59zm114.16-335.29c31.07-.54 62.87 0 89.6 7.38 54.91 14.76 94.66 47.97 94.66 92.25 0 47.45-36.85 91.2-104.05 98.59v1.05c51.3 10.54 88.15 42.7 88.15 82.24 0 73.81-78.76 99.11-168.36 99.11h-186.42v-380.62zm-114.16 175.02h120.66c55.64 0 101.89-17.92 101.89-64.84 0-46.93-46.25-64.85-101.89-64.85h-120.66z" style="fill:#231f20;fill-opacity:1;fill-rule:evenodd;stroke:none" transform="matrix(.13333 0 0 -.13333 0 488)"/><path d="M1055.3 1716.93c0 21.76 17.63 39.39 39.38 39.39 21.76 0 39.39-17.63 39.39-39.39 0-21.75-17.63-39.39-39.39-39.39-21.75 0-39.38 17.64-39.38 39.39m848.41 0c0 21.76 17.64 39.39 39.39 39.39s39.39-17.63 39.39-39.39c0-21.75-17.64-39.39-39.39-39.39s-39.39 17.64-39.39 39.39m699.29 0c0 21.76 17.64 39.39 39.39 39.39 21.76 0 39.4-17.63 39.4-39.39 0-21.75-17.64-39.39-39.4-39.39-21.75 0-39.39 17.64-39.39 39.39" style="fill:#231f20;fill-opacity:1;fill-rule:nonzero;stroke:none" transform="matrix(.13333 0 0 -.13333 0 488)"/><path d="M1694.77 2184.66v997.42" style="fill:#fff;fill-opacity:1;fill-rule:evenodd;stroke:none" transform="matrix(.13333 0 0 -.13333 0 488)"/><path d="M1694.77 2184.66v997.42" style="fill:none;stroke:#231f20;stroke-width:21.34569931;stroke-linecap:butt;stroke-linejoin:miter;stroke-miterlimit:3.86370993;stroke-dasharray:none;stroke-opacity:1" transform="matrix(.13333 0 0 -.13333 0 488)"/></svg>