<svg xmlns="http://www.w3.org/2000/svg" viewBox="0 -0.11 722.38 1082.07"><path d="M2656.13 5419.1C1184.93 5391.12 0 4187.95 0 2710.1 0 1214.73 1213.63 1.102 2709 1.102S5418 1214.73 5418 2710.1s-1213.63 2709-2709 2709c-17.52 0-35.43.33-52.87 0" style="fill:#fff;fill-opacity:1;fill-rule:nonzero;stroke:none" transform="matrix(.13333 0 0 -.13333 0 1082.107)"/><path d="M2656.13 5419.1C1184.93 5391.12 0 4187.95 0 2710.1 0 1214.73 1213.63 1.102 2709 1.102S5418 1214.73 5418 2710.1s-1213.63 2709-2709 2709c-17.52 0-35.43.33-52.87 0m-12.38-196.87c21.54.54 43.58 0 65.25 0 1386.91 0 2512.13-1125.22 2512.13-2512.13S4095.91 197.977 2709 197.977 195.75 1323.19 195.75 2710.1c0 1365.24 1091.01 2477.71 2448 2512.13" style="fill:#036;fill-opacity:1;fill-rule:nonzero;stroke:none" transform="matrix(.13333 0 0 -.13333 0 1082.107)"/><path d="m3233.28 4670.98-3.37-9-64.13-159.75-486-1215-639 1147.5-75.37 133.87-12.38 23.63C1214.26 4292.51 691.906 3567.58 691.906 2722.48c0-844.58 521.954-1568.57 1260.004-1868.628l68.62 165.378c-673.4 272.41-1148.624 931.96-1148.624 1703.25 0 715.04 407.474 1335.5 1003.504 1639.12l739.12-1326.37 92.25-165.38 69.75 175.5 561.38 1402.88c704.56-256.79 1207.12-931.89 1207.12-1725.75 0-762.02-462.51-1415.94-1122.75-1694.25l72-164.253c722.9 306.843 1230.75 1024.633 1230.75 1858.503 0 931.03-633.1 1717.14-1491.75 1948.5" style="fill:#036;fill-opacity:1;fill-rule:nonzero;stroke:none" transform="matrix(.13333 0 0 -.13333 0 1082.107)"/><path d="M2737.72 3799.1c-644.78-16.42-1165.5-547.24-1165.5-1195.87 0-658.93 536.95-1194.75 1195.87-1194.75 472.75 0 882.7 275.8 1076.63 675l-159.75 82.12c-163.4-341.7-512.18-577.12-916.88-577.12-561.53 0-1015.87 453.22-1015.87 1014.75S2206.56 3619.1 2768.09 3619.1c316.7 0 599.02-144.48 785.25-371.25l136.13 117c-219.61 265.24-551.3 434.25-921.38 434.25-10.29 0-20.14.26-30.37 0" style="fill:#036;fill-opacity:1;fill-rule:nonzero;stroke:none" transform="matrix(.13333 0 0 -.13333 0 1082.107)"/><path d="M2590.88 2776.48V769.477h180V1976.6H3249v180h-478.12v439.88H3384v180z" style="fill:#036;fill-opacity:1;fill-rule:evenodd;stroke:none" transform="matrix(.13333 0 0 -.13333 0 1082.107)"/><path d="M2642.05 8116.85v-111.37h-103.5v-172.13h103.5v-32.62c-90.67-32.81-155.25-119.63-155.25-221.63 0-30.94 6.04-60.68 16.88-87.75-6.43-6.96-13.1-13.8-19.13-21.37 8.86 39.49-3.1 82.54-45 97.87-18.42 6.9-38.94 9.22-58.5 6.75-8.93-.46-17.51-2.58-24.75-5.62-33.71-14.8-50.48-55.46-47.25-93.38-6.51 18.78-19.9 33.55-41.62 42.75-16.89 10.61-39.22 9.48-58.5 7.88-17.18-.32-31.73-6.55-42.75-15.75-30.89-26.81-37.46-81.8-19.13-120.38l-16.87-5.62c-.55 19.09-7.04 37.82-20.25 51.75-5.42 5.49-12.44 10.81-20.25 14.62-.2.2-.94.93-1.13 1.13-2.53 2-6.23 4.19-9 5.62-1.55.76-4.01 1.65-5.62 2.25-14.95 5.31-32.69 4.86-48.38 3.38-19.92-.37-36.66-8.44-48.37-20.25-27.96-29.28-31.67-83.74-11.25-120.38l-19.13-9c.22 19.41-5.46 39.06-18 54-5.56 6.37-12.97 12.41-21.37 16.88-19.17 12.36-44.25 13.73-66.38 11.25-75.95-3.8-90.55-108.47-47.25-156.38l-25.87-12.37c-6.45 19.91-19.83 37.13-42.75 46.12-18.29 7.37-39.02 9.48-58.5 6.75-73.79-4.24-88.73-103.65-50.63-153-7.05.06-13.54-.51-20.25-1.12-23.3-.5-41.96-11.52-54-27-4.72-6.28-8.34-13.84-11.25-21.38l-9 1.13c3.51 22.61-.76 45.82-14.62 63-4.47 5.29-10.36 10.6-16.88 14.62-1.49 1.44-4.01 3.26-5.62 4.5-19.03 14.03-45.79 15.99-68.63 13.5-22.88-1.71-40.8-12.79-52.87-28.12-18.43-24.14-24.78-60.68-16.88-91.13-.91.95-2.51 1.45-3.37 2.25-.24.23-.91.91-1.13 1.13-6.81 6.65-15.78 12.59-25.87 16.87-17.98 8.28-39.01 9.42-58.5 6.75-78.72-1.62-93.13-118.94-41.63-163.12l-25.87-14.63c.16 15.78-4.2 31.87-12.38 45-2.34 3.61-5.93 8.06-9 11.25-5.03 5.03-10.99 9.89-18 13.5-19.76 11.63-44.95 14.09-67.5 11.25-87.515-3.35-95.077-147.05-21.37-174.37l-20.25-19.13c-5.67 16.21-17.25 30.06-34.88 39.38-1.13.93-3.31 2.54-4.5 3.37-17.816 12.01-42.683 14.1-64.124 11.25-97.461-6.25-93.59-178.34 3.375-178.87 5.648-1.34 11.527-2.14 16.875-2.25l-16.875-37.13c-.383.19-1.863.94-2.25 1.13-3.981 2.36-9 5.01-13.5 6.75-18.528 8.09-39.465 11.15-59.625 7.87-91.711-3.83-95.395-154.8-18-178.87-80.875-23.88-70.492-181.03 24.75-180 10.711-1.88 20.929-1.12 30.375 1.12l1.125-5.62c-93.828-10.93-85.547-183.39 13.5-178.88 10.41-1.94 20.168-1.77 29.25 0 .492-17.31 5.426-33.48 19.125-48.37 32.082-69.03 93.549-120.69 165.379-150.75-84.23-14.78-86.97-175.39 6.75-183.38 19.31-5.68 38.11-4.51 54 2.25 13.11-28.85 46.43-45.51 79.87-38.25.11.01 1.02 0 1.13 0 .38-.21 1.85-.92 2.25-1.12.12-.01.98 0 1.12 0 .63.02 1.82.02 2.25 0 12.76-.45 30.46 5.46 42.75 5.62.41 0 1.61-.01 2.25 0h1.13c.39.01 1.86 0 2.25 0 .19-.2.93-.91 1.12-1.12.1 0 1.01-.01 1.13 0 .44-.23 1.95-.98 2.25-1.13.19-.19.93-.92 1.12-1.12.25 0 1.06-.01 1.13 0-.01-.07-.01-.87 0-1.13.2-.19.92-.92 1.12-1.12-.01-.12 0-1.03 0-1.13.23-.23 1.02-1.03 1.13-1.12-.01-.12 0-1.03 0-1.13.25-.73.91-2.57 1.12-3.37-.01-.23-.01-1.02 0-1.13.04-1.34.06-3 0-4.5 2.9-6.29 6.99-12.14 11.25-16.87.81-.87 2.52-2.56 3.38-3.38 2.88-2.65 6.84-5.8 10.12-7.87 3.31-2.02 7.65-4.18 11.25-5.63-.88-.98-2.68-2.42-3.37-3.37-.89-1.28-1.34-3.04-2.25-4.5-.11-.1-1.02-1.03-1.13-1.13-.19-.17-.94-.94-1.12-1.12v-1.13c-.21-.19-.93-.93-1.13-1.12v-1.13c-.19-.39-.92-1.86-1.12-2.25-.11-.07-1.02-1.05-1.13-1.12v-1.13c-.06-.19-1.03-.83-1.12-1.12-.23-.65.1-1.85 0-2.25 0-.1-.01-1 0-1.13-.2-.37-.94-1.87-1.13-2.25-.2-.39-.92-1.87-1.12-2.25 0-.09-.02-1.01 0-1.12-.01-.27-.01-1.09 0-1.13-.07-.21-1.03-.83-1.13-1.12-.22-.63.11-1.82 0-2.25v-1.13c-.01-.14 0-.98 0-1.12.01-.59.01-1.93 0-2.25-.19-.38-.92-1.86-1.12-2.25 0-.1-.01-1 0-1.13-.01-.58 0-1.83 0-2.25 0-1.35-.01-2.95 0-4.5 0-.31-.01-.81 0-1.12.01-1.37.03-3.21 0-4.5-.02-.85-.06-2.41 0-3.38.2-.39.91-1.86 1.12-2.25v-1.12c0-.09-.01-1.02 0-1.13v-1.12c-.01-.38 0-1.87 0-2.25h1.13c-.02-.38 0-1.87 0-2.25-.01-.1 0-1.02 0-1.13.24-.87.84-2.51 1.12-3.37.2-.38.92-1.87 1.13-2.25v-1.13c-.02-.06-.01-.87 0-1.12 0-.07-.02-1.05 0-1.13.2-.39.92-1.85 1.12-2.25v-1.12c.03.01.86 0 1.13 0 .2-.38.92-1.85 1.12-2.25 0-.1.01-1.02 0-1.13.29-.57.89-1.75 1.13-2.25v-1.12c.42-.89.67-1.39 1.12-2.25v-1.13c.25-.25 1.07-1.07 1.13-1.12.2-.19.92-.94 1.12-1.13v-1.12h1.13v-1.13c-.02-.05-.01-.87 0-1.12h1.12c2.11-3.26 4.29-7.05 6.75-10.13.18-.21.94-.92 1.13-1.12.21-.23.9-.91 1.12-1.13.06.01.87.01 1.13 0v-1.12h1.12c0-.26.01-1.07 0-1.13.24 0 1 .01 1.13 0l1.12-1.12c-.01-.12 0-1.03 0-1.13.04-.07 1.08-1.05 1.13-1.12.05.01.86 0 1.12 0 0-.25.01-1.07 0-1.13h1.13c.05.01.86.01 1.12 0 0-.25.01-1.06 0-1.12.06.01.87 0 1.13 0 .38-.19 1.86-.94 2.25-1.13 1.12-.78 3.41-2.56 4.5-3.37.58-.3 1.9-.96 2.25-1.13.05.01.86.01 1.12 0 .18-.2.94-.92 1.13-1.12.11.01 1.02 0 1.12 0h1.13c.19-.21.93-.92 1.12-1.13.1.01 1.01 0 1.13 0 .23-.23 1.03-1.02 1.12-1.12h1.13c2.81-6.5 6.18-12.64 9-19.13-.02-.06 0-1.04 0-1.12v-1.13c-.01-.1 0-1.03 0-1.12 2.76-17.15 13.48-35.06 22.5-50.63 2.33-4.03 3.72-8.71 5.62-12.37.14-.26.98-.88 1.13-1.13 6.21-14.31 12.88-28.44 19.12-42.75 1.99-6.2 4.57-13.08 6.75-19.12.73-2.02 1.47-3.67 2.25-5.63 1.04-2.61 2.2-5.4 3.38-7.87.29-.62.82-1.64 1.12-2.25.68-1.37.56-2.3 1.13-3.38.1-.19.99-.91 1.12-1.12.68-1.14 1.52-2.29 2.25-3.38-.01-.05 0-.87 0-1.12.2-.19.93-.94 1.13-1.13 4.56-10.39 8.99-21.04 13.5-31.5-2-3.4-4.23-7.54-5.63-11.25-8.4-23.43-4.19-52.95 9-73.12.34-.5.74-1.65 1.13-2.25.19-.28.94-.89 1.12-1.13 2.67-3.37 6.66-7.24 10.13-10.12.09-.1 1.01-1.01 1.12-1.13 1.51-1.01 4.2-2.54 5.63-3.37.57-.29 1.78-.89 2.25-1.13 2.42-1.07 6.57-2.62 9-3.37 7.02-2.04 15.3-3.23 23.62-2.25 68.35 4.08 111.64 60.2 175.5 76.5 379.44 168.99 805.53 192.1 1215 169.87 290.59-20.88 586.61-78.68 842.63-221.62 28.42-23.38 78.61-32.8 110.25-14.63 13.84 8.33 24.66 22.44 28.12 42.75 4.4 20.41-.31 39.06-10.12 55.13 5.75 11.19 11.42 22.36 16.87 33.75v1.12c.23.23.97.98 1.13 1.13.15.15.89.9 1.12 1.12.49.47 1.82 1.78 2.25 2.25 1.99 2.57 4.22 6 5.63 9 .09.23-.11.87 0 1.13.61 1.69 1.82 4.14 2.25 5.62.3 1.17.86 3.21 1.12 4.5-.01.06 0 .87 0 1.13-.01.11 0 1.02 0 1.12.25.79.9 2.58 1.13 3.38v1.12c7.89 17.66 15.08 35.01 22.5 52.88.19.18.92.94 1.12 1.12 9.5 17.28 18.58 34.8 22.5 52.88.25.86.86 2.54 1.13 3.37-.01.12 0 1.03 0 1.13 4.43 10.91 8.97 21.73 13.5 32.62 4.63 1.16 9.21 2.61 13.5 4.5.87.41 1.39.69 2.25 1.13 2.39 1.21 5.62 3.04 7.87 4.5l2.25 2.25c.38.18 1.87.94 2.25 1.12.47.44 1.78 1.77 2.25 2.25l1.13 1.13c.12-.01 1.02 0 1.12 0 .2.2.93.91 1.13 1.12.2.2.91.93 1.12 1.13v1.12c.36.38.86.86 1.13 1.13.39.38 1.86 1.86 2.25 2.25.19.19.92.93 1.12 1.12l1.13 1.13c.18.38.94 1.86 1.12 2.25.2.19.93.93 1.13 1.12.18.38.94 1.87 1.12 2.25v1.13c.36.67.79 1.56 1.13 2.25.2.18.92.93 1.12 1.12-.01.05 0 .87 0 1.13.2.19.92.94 1.13 1.12-.02.12 0 1.03 0 1.13-.01.12 0 1.02 0 1.12.23.24 1.02 1.04 1.12 1.13v1.12c.11.11.82.83 1.13 1.13v1.12c-.01.1-.01 1.03 0 1.13v1.12c-.01.12 0 1.03 0 1.13-.01.1 0 .99 0 1.12.13-.01 1.02.01 1.12 0-.01.13 0 1.03 0 1.13v2.25c-.01.08 0 1.03 0 1.12.01.11 0 .9 0 1.13s-.01 1.02 0 1.12v1.13c-.01.12 0 1.02 0 1.12.2.19.92.94 1.13 1.13v1.12c0 .88.03 1.36 0 2.25l-1.13 1.13v1.12c.03.94 0 2.43 0 3.38-.01.12-.01.9 0 1.12 0 .32.01.81 0 1.13-.01.26.01.87 0 1.12-.01.24 0 .95 0 1.13 0 .23.01 1.01 0 1.12-.01.13-.01.91 0 1.13-.23.8-.88 2.59-1.12 3.37 0 .11-.01 1.03 0 1.13-.01.1-.01 1.03 0 1.12v1.13c0 .09-.02 1.04 0 1.12 0 .1-.01 1.03 0 1.13 0 .09-.01 1.02 0 1.12 0 .11-.01 1.03 0 1.13 0 .11-.01 1.02 0 1.12 0 .12-.01 1.03 0 1.13-.1.19-1.01.9-1.13 1.12-.84 1.45-1.56 3.4-2.25 4.5-.31.6-.97 1.92-1.12 2.25-.01.26-.01 1.07 0 1.13v1.12c-.1.1-.9.89-1.13 1.13-.05.04-.87.86-1.12 1.12v1.13c-.3.57-.85 1.69-1.13 2.25-.19.18-.93.94-1.12 1.12-.18.38-.95 1.88-1.13 2.25 0 .26-.01 1.07 0 1.13-.07-.01-.87 0-1.12 0-.2.19-.93.93-1.13 1.12v1.13c-.21.19-.92.93-1.12 1.12 0 .11-.01 1.01 0 1.13h-1.13c-.2.39-.93 1.85-1.12 2.25-.16.15-.9.89-1.13 1.12-.28.29-.86.85-1.12 1.13-.01.25-.02 1.06 0 1.12.11-.01 1.02.01 1.12 0 .41.2 1.88.93 2.25 1.13 1.16.56 3.6 1.75 4.5 2.25 6.85 3.93 13.39 9.84 18 15.75 1.12 1.5 2.29 3.89 3.38 5.62.16.28.97.86 1.12 1.13.73 1.4 1.43 3.88 2.25 5.62.11.28 1.04.88 1.13 1.13.38 1.16.83 3.28 1.12 4.5.22 1.01.83 3.15 1.13 4.5v1.12c.05 1.25-.02 3.32 0 4.5.22.17.89.97 1.12 1.13 1.18.73 3.34 1.66 4.5 2.25.35.16 1.66.83 2.25 1.12 26.21 10.4 61.16-14.86 90-2.25.87.58 2.76 1.85 3.38 2.25 7.98 1.39 15.93 4.9 22.5 9 2.46 1.6 5.74 3.76 7.87 5.63.22.22 1 1 1.13 1.12.26.26.86.86 1.12 1.13 5.26 5.62 9.22 11.95 12.38 19.12 5.48-1.63 12.94-2.9 19.12-3.37 78.79-17.03 140.18 83.05 93.38 147.37-1.59 3.01-3.58 6.36-5.63 9-2.1 2.6-5.39 5.64-7.87 7.88-10.39 9.04-25.2 16.79-39.38 20.25 82.38 33.82 151.8 93.84 180 181.12 4.18 6.88 6.97 13.59 7.88 20.25 86.74-27.01 146.15 98.65 84.37 156.38-12.42 10.32-27.14 17.02-42.75 20.25l1.13 5.62c79.05-23.26 145.58 84.54 93.37 146.25-8.99 14.17-22.78 26.81-38.25 32.63 46.8 20.99 75.49 86.66 46.13 132.75-14.43 34.52-52.3 52.52-88.88 46.12-20.28.92-36.7-6.7-49.5-18l-18 39.38c68.07-5.53 123.41 85.1 79.88 142.87-15.58 31.19-57.24 43.58-91.13 38.25-36.05-.33-60.1-25.57-69.75-56.25l-23.62 22.5c51.54 26.24 76.63 109.28 27 151.88-2.85 2.75-6.96 5.66-10.13 7.87-19.24 12.95-43.78 16.87-67.5 13.5-47.26 0-72.06-40.05-74.25-82.12l-32.62 16.87c41.56 35.03 54.49 108.92 4.5 146.25-20.79 14.34-45.87 19.92-70.88 15.75-43.11.52-68.51-32.76-74.25-70.87l-10.12 9c32.12 33.15 43.53 88.95 7.87 124.87-16.43 23.8-48.99 34.42-77.62 29.25-54.18 2.49-81.77-47.72-79.88-95.62l-6.75-1.13c-4.39 9.78-11.39 19.06-20.25 27-.44.45-1.67 1.68-2.25 2.25-18.8 16.92-44.95 23.02-69.75 20.25 30.61 32.93 40.41 86.99 5.63 122.63-17.18 26.46-53.66 34.91-83.25 30.37-35.86.3-59.7-23.11-69.75-52.87l-30.38 13.5c30.25 30.5 42.71 81.88 16.88 118.12-1.16 1.57-3.21 4.12-4.5 5.63-.8.9-2.53 2.5-3.38 3.37-.58.58-1.65 1.69-2.25 2.25-19.89 22.32-50.38 30.9-79.87 25.88-47.46-.1-73.13-41.02-75.38-83.25l-21.37 10.12v1.13c21.82 32.13 26.31 75.82-1.13 106.87-16.85 25.95-53.97 39.24-85.5 32.63-45.64.02-71.61-37.93-75.37-78.75l-20.25 5.62c21.18 34.33 24.05 80.47-7.88 110.25-19.89 22.32-50.38 30.9-79.87 25.88-21.51.03-39.88-7.93-52.88-20.25-5.18-5.1-11.88-10.46-15.75-16.88-.39 14.83-4.75 30.82-12.37 43.88-2.24 3.69-4.96 7.82-7.88 11.25-21.36 24.07-54.1 36.38-86.62 30.37-9.81-.31-19.13-2.28-27-5.62-6.45-2.86-14.93-5.66-20.25-10.13.54 6.49 1.12 13.67 1.12 20.25 0 97.14-58.9 181.26-142.87 217.13v37.12h103.5v172.13h-103.5v111.37zm-328.5-666c.07.01.87.01 1.13 0 1.69-3.74 3.86-7.46 5.62-11.25l-6.75-2.25c.33 4.56.3 8.96 0 13.5m339.75-65.25h108c5.19-33.78 25.98-63.66 63-69.75 34.97-12.31 68.13 1.96 90 27 4.65-9.17 8.39-18.62 12.38-28.12-4.06-.17-8.31-.37-12.38-1.13-87.14 2.69-106.67-144.42-25.87-172.12 25.14-13.66 51.68-10.75 74.25 1.12.35-15.54 1.09-30.6 0-46.12-.14.01-1.02 0-1.13 0-15.38 5.37-32.81 6.87-49.5 4.5-22.32-.32-39.35-9.61-51.75-23.63-.26.01-1.07.01-1.12 0-6.41 3.2-12.61 6.18-19.13 9-36.88 15.95-77.59 24.75-131.62 24.75-54.05 0-95.88-8.8-132.75-24.75-5.96-2.57-12.16-4.99-18-7.87-4.7 4.35-10.58 8-16.88 11.25-19.76 11.63-44.95 14.08-67.5 11.25-7.38-.28-14.01-1.26-20.25-3.38-1.01 13.76-1.28 27.85-1.12 41.63 8.25-3.03 17.87-4.91 28.12-4.5 88.44-19.12 141.17 128.16 58.5 166.5-.19.2-.93.93-1.12 1.12-2.53 2.01-6.23 4.2-9 5.63-1.56.76-4.02 1.64-5.63 2.25-11.05 3.92-24.01 5.07-36 4.5 3.53 8.81 7.12 17.31 11.25 25.87 13.31-17.97 33.8-29.2 60.75-28.12 48.2-7.84 84 30.19 94.5 73.12m-238.5-41.62c-24.05-62.94-37.12-134.46-37.12-210.38 0-33.16 2.91-65.56 7.87-96.75-21.17 1.22-45.78 2.25-78.75 2.25-208.26 0-402.56-67.28-597.37-164.25-.72 5.69-1.03 11.27-1.13 16.88 0 244.91 373.66 361.93 706.5 452.25m586.13 0c332.83-90.32 706.5-207.34 706.5-452.25-.11-5.67-.4-11.14-1.13-16.88-194.82 96.97-389.12 164.25-597.37 164.25-32.45 0-56.68-1.06-77.63-2.25 4.88 31.12 6.75 63.64 6.75 96.75 0 75.74-13.32 147.64-37.12 210.38M2662.3 7034.6c.69.11 1.55-.1 2.25 0 .19 0 .93.02 1.13 0 .09.01 1.03-.01 1.12 0s1.03.01 1.13 0h1.12c.24 0 1.01.01 1.13 0 .18 0 .94.01 1.12 0 .19.01.94.01 1.13 0 .23 0 1.02-.01 1.12 0h1.13c.93 0 2.42.02 3.37 0 .12.01.9.01 1.13 0 .76.06 1.51.01 2.25 0 1.81-.04 4.71-.09 6.75 0 6.42.29 12.97 0 20.25 0 46.53 0 73.15-5.85 101.25-18 8.98-3.88 18.34-7.98 28.12-13.5-.01-.06 0-.87 0-1.12 3.21-37.25 24.53-71.96 65.25-77.63 4.06-1.39 8.42-2.65 12.38-3.37-4.8-9.84-10.24-19.82-15.75-29.25-4.23 7.06-10.01 13.36-16.88 19.12-19.48 20.23-50.57 25.46-77.62 21.38-16.54-.25-30.72-5.39-41.63-13.5-29.39-22.68-38.4-69.19-27-106.88-19.56-.29-39.34-.97-58.5-1.12 15.79 41.5 7.75 93.27-37.12 113.62-19.24 8.73-41 11.1-61.88 7.88-7.98-.41-15.85-1.96-22.5-4.5-4.02-1.62-8.86-4.47-12.37-6.75-1.27-.85-3.31-2.45-4.5-3.38-8.25-6.62-15.33-15.27-20.25-24.75-5.92 9.44-11.75 18.19-16.88 28.13 38.66 5.26 67.61 42.15 75.38 81v1.12c9.78 5.52 19.14 9.62 28.12 13.5 17.16 7.43 34.74 14.69 56.25 18m-1303.87-6.75c.39-.39 1.84-1.86 2.25-2.25 2.07-2.56 4.45-5.35 6.75-7.87l-5.63-4.5c-.71 4.95-1.84 9.89-3.37 14.62m165.37-2.25c3.79-35.51 23.37-69.69 58.5-77.62 0-.1-.01-.99 0-1.13-.12.01-1.03 0-1.12 0-89.99-2.36-95.18-146.85-22.5-174.37-189-24.38-378.04-142.31-536.63-279-.16 6.99 0 14.16 0 21.37 0 162.6 278.39 372.6 501.75 510.75m2369.25-1.12c223.15-138.16 500.63-347.34 500.63-509.63 0-7.21.16-14.37 0-21.37-159.16 137.19-349.2 255.22-538.88 279 7.53 3.65 15.06 8.9 21.38 14.62 37.76 35.28 50.66 103.34 4.5 139.5-9.94 9.4-24.55 17.72-38.25 21.38 27.26 13.26 44.73 45.45 50.62 76.5M2234.8 6962.6c1.33.11 3.16-.1 4.5 0 .76 0 2.61.01 3.38 0 .18.01.95-.01 1.12 0 1.16 0 3.68-.01 4.5 0 2.33.06 5.46-.14 7.88 0 2.34.06 5.41-.12 7.87 0 4.31.21 8.06-.14 12.38 0 10 .34 20.32 0 30.37 0 43.13 0 70.71-1.29 95.63-3.37 23.74-77.92 63.3-145.69 112.5-194.63-17.01-17.26-28.72-39.35-30.38-67.5-1.68-36.28 11.44-73.63 36-100.12-62.26 25.93-150.41 10.31-167.62-63-22.98-63.77-24.65-139.06-4.5-204.75-18.32 19.41-45.86 31.94-73.13 29.25-.1-.01-.89-.01-1.12 0-.11 0-1.01-.01-1.13 0-.09-.1-.89-.9-1.12-1.13-.12.01-1.03 0-1.13 0-93.12 7.83-111.78-141.62-39.37-176.62-25.05-20.93-44.73-50.09-57.38-79.88-26.15-47.05-90.13-76.69-133.87-31.5-34.73 35.21-74.11 82.8-123.75 90 9.56 19.28 14.76 43.47 12.37 65.25 58.66-51.1 163.36-74.96 221.63-12.37 46.68 67.65 14.31 157.38-9 228.37-22.47 57.61-71.2 113.48-139.5 100.13-26.98-.16-61.96-20.37-77.63-31.5 21.45 63.72 2.68 161.07-76.5 165.37-.37 0-1.87.01-2.25 0-.26.01-1.07.01-1.12 0-49.35 39.38-86.93 83.09-110.25 126 168.46 84.77 331.44 148.17 500.62 162m798.75 0c1.02.15 2.34-.12 3.38 0 .55 0 1.68.01 2.25 0 .14.01.97-.01 1.12 0 1.16 0 3.67-.01 4.5 0 .1.01.89.01 1.13 0 .73 0 1.5.01 2.25 0h1.12c3.13.19 6.76-.13 10.13 0 4.13.17 9-.12 13.5 0 10.9.29 22.52 0 36 0 195.06 0 380.45-65.31 572.62-162-23.18-42.34-60.49-84.81-109.12-123.75-.16-.01-1.04 0-1.13 0-75.58-5.59-105.94-103.26-82.12-169.87-54.67 46.08-148.97 47.88-185.63-18-54.85-71.71-69.35-170.81-51.75-257.63 44.25-82.1 174.59-70.3 230.63-3.37 2.22 2.17 4.37 3.69 6.75 5.62-4.86-24.71-.97-55.13 7.87-76.5-57.23-10.03-99.42-66.74-141.75-103.5-54.98-24.54-110.75 21.99-124.87 70.88-12.03 20.91-30.04 40.54-50.63 56.25 44.02 23.51 69.83 83.66 41.63 131.62-13.91 35.8-59.91 51.84-97.88 45-17.56-.83-32.44-6.13-43.87-15.75 11.09 53.3 5.21 114.42 4.5 165.38-7.03 81.5-109.52 126.16-180 92.25 39.88 46.5 45.73 128.26 3.37 171 46.65 48.43 83.04 113.82 105.75 189 6.63.55 13.11 2.38 20.25 3.37m-1462.5-262.12h1.13c-1.02-21.99 3.86-45.85 14.62-64.13 2.47-4.05 5.88-8.91 9-12.37.58-.62 1.65-1.66 2.25-2.25-43.51-22.31-80.38-53.96-102.37-100.13-13.26-57.59 20.19-115.08 68.62-142.87-67.79 9.59-151.64-32.54-140.62-109.13.28-50.08 9.3-103.94 30.37-150.75-7.81 1.94-16.52 3.15-24.75 2.25-.38.01-1.87 0-2.25 0-.12.01-1.02 0-1.12 0-.41-.21-1.86-.92-2.25-1.12-104.69 10.25-115.18-176.14-13.5-183.38 2.9-.92 6.15-1.67 9-2.25-.4-.81-.75-1.42-1.13-2.25-20-35.08-31.42-90.91-67.5-110.25-9.88-5.02-21.72-7.02-36-5.62-18.62.58-42.16 1.23-64.12-2.25.46 20.63-5.11 41.33-19.13 58.5a76 76 0 0 1-4.5 4.5c25.95-5.26 52.23-8.5 77.63-10.13.24.25 1.05 1.06 1.12 1.13.21.21.99.98 1.13 1.12.24.25 1.06 1.05 1.12 1.13 14.53 19.16.46 72.23 5.63 101.25-1.44 114.79-27.58 249.11-131.63 307.12-35.42 19.56-81.39 21.29-122.62 19.13-.07-.01-.88 0-1.13 0a503.8 503.8 0 0 0-28.12 101.25c0 .25.01 1.06 0 1.12 161.28 146.88 361.85 276.61 541.12 300.38m2275.88-1.13c178.41-24.62 377.32-153.26 537.75-299.25-5.84-35.64-14.2-68.97-27-102.37-19.32 1.45-38.77.85-54 0-132.83-8.57-197.98-154.08-198-273.38-4.01-52.78-3.98-105.75-2.25-158.62 26.22 1.66 52.94 4.79 79.87 10.12-11.93-16.4-16.09-39.37-16.87-60.75-34.86 4.48-79.04-5.99-108 9-2.15 1.17-4.77 2.99-6.75 4.5l-1.13 1.13c-2.16 1.84-4.84 4.44-6.75 6.75-2.3 2.88-4.91 6.51-6.75 10.12-9.76 28.11-22.34 60.58-40.5 87.75 60.4 7.53 106.36 83 72 140.63-17.21 34.35-56.7 51.62-94.5 46.12-.1.01-1 0-1.12 0-.39-.2-1.86-.93-2.25-1.12-2.55-.05-6.45.13-9 0 6.86 15.26 12.3 31.1 16.87 46.12 11.31 50.67 24.36 109.51 4.5 158.63-25.3 46.2-85.57 59.97-136.12 54 61.66 30.73 107.67 121.45 52.87 177.75-23.09 29.14-52.78 51.14-85.5 67.5 20.19 19.21 32.32 47.67 32.63 75.37m-1257.75-156.37c6.03-2.77 10.93-4.96 13.5-6.75.3-.31 1.01-1.03 1.12-1.13v-1.12c.11-.1 1-1.02 1.13-1.13-.01-.04-.01-.86 0-1.12h-1.13c-.1-.11-.89-.9-1.12-1.13h-1.13c-.06.07-.87.88-1.12 1.13-.13-.01-1.03 0-1.13 0-.12-.01-1.03 0-1.12 0-.12.13-1.03 1.02-1.13 1.12h-1.12c-.2.2-.93.92-1.13 1.13-.37.26-1.85.78-2.25 1.12-.21.19-.92.93-1.12 1.13s-.95.91-1.13 1.12c-.16.21.14.92 0 1.13-.21.19-.92.93-1.12 1.12 0 .25-.01 1.06 0 1.13 0 .62.01 1.97 0 2.25m241.87-2.25c.22.11.91-.09 1.13 0 .09-.01 1.07-.02 1.12 0 .05.01.86 0 1.13 0v-1.13c-.25-.24-1.06-1.04-1.13-1.12-.17-.19-.92-.92-1.12-1.13-.25-.23-.86-.86-1.13-1.12-3.33-1.71-6.9-2.66-9-3.38 1.78 1.44 3.68 4.2 5.63 5.63.53.38 1.74.81 2.25 1.12.23.14.89 1.01 1.12 1.13m703.13-103.5c.1 0 1.1.01 1.12 0 .24-.24 1.04-1.02 1.13-1.13.95-1.19 2.46-3.43 3.37-4.5.16-.17.98-1 1.13-1.12 2.61-2.01 5.09-4.08 6.75-5.63.5-.49 1.84-1.8 2.25-2.25.09-.1-.24-.89 0-1.12.09-.1 1.08.05 1.12 0 .32-.61.94-1.92 1.13-2.25v-1.13c-.02-.04-.01-.86 0-1.12-.05-.02-.87-.01-1.13 0h-1.12c-.04.01-1.03 0-1.13 0-.04.01-1.03-.1-1.12 0-.13.13.09 1.02 0 1.12-.05.03-1.03.01-1.13 0-.09.06-1.03-.09-1.12 0-.1.11.09 1.03 0 1.13-.05.03-1.03-.1-1.13 0-.12.12.1 1.02 0 1.12-.05.04-1.05-.04-1.12 0-.24.1-.93 1.03-1.13 1.13-.19.18-.94.93-1.12 1.12-.19.2-.95.92-1.13 1.13-.05.05-1.08-.08-1.12 0-.2.39.18 1.85 0 2.25-.15.22-.98.88-1.13 1.12-.93 1.64-1.67 4.01-2.25 5.63-.08.23-1.02.84-1.12 1.12-.17.45.1 1.84 0 2.25-.01.13-.01 1.03 0 1.13M1865.8 6418.1c.11-.01 1.02.01 1.13 0-.01-.05-.01-.87 0-1.12h-1.13c0-.1-.01-.99 0-1.13-.26.01-1.08.01-1.12 0h-1.13c-.01.13 0 1.03 0 1.13.13-.01 1.02 0 1.13 0 .12-.01 1.02 0 1.12 0-.01.13 0 1.02 0 1.12m1976.63-39.37c.05.04 1.06-.03 1.12 0-.26-.12-.85-1.03-1.12-1.13.07.11-.1 1.03 0 1.13m-1049.63-7.88c.38-.18.74-.93 1.13-1.12.08-.05 1.05.05 1.12 0 .24-.25 1.04-1.05 1.13-1.13.21-.21.89-.87 1.12-1.12 1.47-1.65 3.39-4.05 4.5-5.63 2.01-3 4-7.27 5.63-11.25.2-.38-.2-1.86 0-2.25.03-.08 1.09.08 1.12 0 39.27-70.87 127.52-142.01 210.38-103.5 12.25 7.88 22.06 16.7 30.37 27-1.31-22.23 3.34-45.03 14.63-63-10.98-3.62-21.29-9.79-31.5-18-28.04-19.9-51.09-61.41-82.13-78.75-14.37-7.71-31.12-10.33-50.62-3.37-60.72 28.26-79.62 115.19-138.38 141.75 34.12 27.95 52.05 79.87 31.5 120.37m-173.25-13.5c.18.23.95-.22 1.13 0-11.14-38.77-1.51-85.61 29.25-109.12-65.13-32.06-79.31-140.73-162-142.88-10.32 1.21-19.92 5.19-28.13 10.13-33.24 20.73-53.51 66.86-85.5 88.87-2.75 1.83-6.05 4.18-9 5.63 8.97 17.07 10.86 40.03 7.88 61.87 1.79-3.08 3.7-6 5.62-9 65.44-58.56 174.04-20.86 213.75 50.63 8.06 13.46 16.41 30.39 27 43.87m1140.75-3.37c.25.06.86-.05 1.13 0 .51.08 1.77-.03 2.25 0 2.89.06 6.7-.53 11.25-1.13-1.47-1.96-4-4.35-5.63-5.62-.51-.32-1.75-.88-2.25-1.13-.38-.16-1.67-.83-2.25-1.12-.06-.02-1.04 0-1.12 0-.23.01-.94-.01-1.13 0-.12-.01-.9-.01-1.12 0-.33 0-1.67-.01-2.25 0-.05.01-1.03 0-1.13 0-.09.02-1.03-.1-1.12 0-.11.13.09 1.02 0 1.12-.04.02-1.03.01-1.13 0-.12.1-1.02 1.03-1.12 1.13-.02.02-1.03-.1-1.13 0-.14.13.1 1.02 0 1.12v1.13c.1.1-.14 1 0 1.12.1.1 1.11-.03 1.13 0 .1.11-.22.9 0 1.13.1.1 1.05-.05 1.12 0 .38.2.51.84 1.13 1.12.09.04 1.03-.03 1.12 0 .64.17 1.24.9 2.25 1.13m-2109.37-3.38c1.82-.15 4.67-.58 7.87-1.12.5-.27 1.81-.91 2.25-1.13v-1.12c-.1-.1.11-1.01 0-1.13-.23 0-1.01-.01-1.12 0-.06.01-1.04.01-1.13 0-.07.02-1.04-.03-1.12 0-.22.13-.93 1.03-1.13 1.13-1.84.61-3.89 2.46-5.62 3.37m2021.62-145.12c9.95-9.09 18.07-19.75 18-37.13 9.08-81.56 72.25-169.11 163.13-155.25 15.91 4.08 29.98 10.93 42.75 20.25-.5-10.74-.04-21.49 2.25-31.5-7.03.78-14.89.6-22.5 0-69.56 3.04-128.31-73.13-196.88-47.25-34.16 41.18-42.55 108.35-72 154.13 38.93 12.15 65.12 55.23 65.25 96.75m-968.62-85.5c.06-.01.87 0 1.12 0 .13-.01 1.02 0 1.13 0h1.12c.1 0 1.02.01 1.13 0 .38 0 1.86.01 2.25 0 10.45-10.8 31.37-37.73 38.25-54-.02-.11 0-1.02 0-1.13.2-.4.91-1.86 1.12-2.25.25-.25 1.06-1.06 1.13-1.12v-1.13c0-.39.01-1.86 0-2.25-.01-.11-.01-.9 0-1.12-.29-.61-.97-1.95-1.13-2.25-.13-.01-1.02 0-1.12 0-.13-.01-1.03 0-1.13 0-.11-.01-1.03 0-1.12 0-1.41.38-3.97.91-5.63 1.12-18.18 1.99-50.26-3.52-66.37-2.25-.4 0-1.88.01-2.25 0-.4.2-1.88.92-2.25 1.13-.11 0-1.02.01-1.13 0-.1 0-1 .01-1.12 0-.21.2-.94.92-1.13 1.12-.13.14-.83.83-1.12 1.13 0 .13-.01 1.02 0 1.12v1.13c-.01.24-.02 1.05 0 1.12-.01.12 0 1.03 0 1.13.27.57.91 1.83 1.12 2.25.18.38.92 1.86 1.13 2.25 7.03 12.83 16.46 34.43 28.12 46.12.23.24 1.02 1.03 1.13 1.13l1.12 1.12c.99.72 2.66 1.77 3.38 2.25.38.39 1.86 1.85 2.25 2.25-.02.13 0 1.03 0 1.13m-390.38-50.63c.1 0 1 .01 1.13 0 5.47-5.24 10.34-10.53 13.5-14.62.73-.99 1.67-2.48 2.25-3.38.74-1.23 1.8-3.4 2.25-4.5.21-.39.93-1.86 1.12-2.25.01-.59 0-1.9 0-2.25-.01-.11-.01-.89 0-1.12-.21-.2-.92-.93-1.12-1.13-.01-.25-.01-1.06 0-1.12-.16-.15-.9-.9-1.13-1.13-.09-.08-.89-.88-1.12-1.12-.13-.13-1.03-1.02-1.13-1.13-.39-.2-1.85-.92-2.25-1.12-.1 0-1-.01-1.12 0-6.63-2.57-17.89-4.62-32.63-5.63-.61-.01-1.97.01-2.25 0-.04.01-.86.01-1.12 0-.1.08-1.05 1.03-1.13 1.13v1.12c0 .24-.01 1.04 0 1.13-.01.11 0 1.02 0 1.12.19.39.91 1.85 1.13 2.25.28.58.93 1.85 1.12 2.25 5.05 10.03 17.58 26.62 22.5 31.5m784.13-2.25c.25.01 1.06.01 1.12 0 .1 0 .99.01 1.13 0 .14-.22-.18-.89 0-1.12 5.16-6.62 18.02-17.77 24.75-25.88.46-.58 1.84-1.69 2.25-2.25.2-.39.94-1.86 1.12-2.25.18-.33.84-1.66 1.13-2.25v-1.12c-.01-.08 0-1.05 0-1.13 0-.1-.01-.99 0-1.12h-1.13c-.26 0-1.07.01-1.12 0h-2.25c-.23 0-1-.01-1.13 0-2.69.21-6.78.84-11.25 2.25-10.1.25-23.34-.12-31.5 1.12-.1 0-1.02.01-1.12 0-.4.2-1.87.92-2.25 1.13-.11 0-1.02.01-1.13 0-.42.2-1.69.82-2.25 1.12v1.13c-.21.19-.93.93-1.12 1.12 0 .24-.01 1.04 0 1.13.27.57.92 1.88 1.12 2.25.18.39.93 1.86 1.13 2.25.2.2.92.93 1.12 1.12.49.54 1.61 1.64 2.25 2.25 1.75 1.6 4.33 3.79 6.75 5.63.11.11 1.02 1.02 1.13 1.12 2.2 2.71 5.16 6.94 7.87 10.13l2.25 2.25c.13.11.91.9 1.13 1.12m-1558.13-201.37c.13-.01 1.02 0 1.13 0h1.12c9.56-2.28 16.9-4.8 21.38-6.75.55-.26 1.77-.87 2.25-1.13.41-.19 1.88-.94 2.25-1.12.13-.13.89-.91 1.12-1.13-.01-.12 0-1.02 0-1.12v-2.25c-.26-.25-1.07-1.06-1.12-1.13-.25-.24-1.05-1.06-1.13-1.12-4.39-3.21-13.89-6.85-27-11.25-4.8-3.95-9.31-7.18-12.37-9-.37-.21-1.86-.93-2.25-1.13-.38-.19-1.86-.92-2.25-1.12h-2.25c0 .14-.01 1.02 0 1.12-.11 0-1 .01-1.13 0 .01.13 0 1.03 0 1.13v1.12c-.01.39-.01 1.85 0 2.25-.01.39 0 1.86 0 2.25.09.27-.1.85 0 1.13 3.29 8.63 12.11 21.75 18 28.12h1.13c.1 0 .99.01 1.12 0 0 .26.01 1.06 0 1.13m2332.13 0h1.12c.11.01 1.02 0 1.13 0 .11-.13 1.02-1.02 1.12-1.13.39-.18 1.86-.92 2.25-1.12.22-.17.9-.95 1.13-1.13 6.47-5.51 14.78-15.72 18-22.5.2-.39.93-1.86 1.12-2.25 0-.4.01-1.86 0-2.25v-3.37h-1.12c0-.11-.02-.99 0-1.13-.09-.01-1.04.01-1.13 0-.06.07-.87.88-1.12 1.13-.12-.01-1.03 0-1.13 0-.39.2-1.87.93-2.25 1.12-.11-.01-1.03.01-1.12 0-.41.2-1.87.92-2.25 1.13-.93.55-2.43 1.63-3.38 2.25-12.48 2.61-26.25 6.24-33.75 10.12-.25.14-.89.99-1.12 1.13-.2.2-.94.92-1.13 1.12-.3.31-.99 1.01-1.12 1.13-.24.23-.86.84-1.13 1.12-.21.2-.92.93-1.12 1.13 0 .1-.01 1 0 1.12-.01.26-.02 1.09 0 1.13.2.2.91.92 1.12 1.12.27.29.86.89 1.13 1.13.19.2.92.92 1.12 1.12 3.91 2.11 11.57 4.88 21.38 6.75z" style="fill:#036;fill-opacity:1;fill-rule:nonzero;stroke:none" transform="matrix(.13333 0 0 -.13333 0 1082.107)"/><path d="M944.41 6375.38c0-34.65-28.117-62.77-62.765-62.77-34.645 0-62.762 28.12-62.762 62.77s28.117 62.76 62.762 62.76c34.648 0 62.765-28.11 62.765-62.76m0 178.64c0-34.65-28.117-62.77-62.765-62.77-34.645 0-62.766 28.12-62.766 62.77 0 34.64 28.121 62.76 62.766 62.76 34.648 0 62.765-28.12 62.765-62.76m72.42 202.78c0-34.65-28.119-62.77-62.764-62.77-34.648 0-62.765 28.12-62.765 62.77 0 34.64 28.117 62.76 62.765 62.76 34.645 0 62.764-28.12 62.764-62.76m144.84 140.01c0-34.65-28.12-62.77-62.76-62.77-34.65 0-62.77 28.12-62.77 62.77 0 34.64 28.12 62.76 62.77 62.76 34.64 0 62.76-28.12 62.76-62.76m173.81 96.56c0-34.65-28.12-62.76-62.76-62.76-34.65 0-62.77 28.11-62.77 62.76s28.12 62.76 62.77 62.76c34.64 0 62.76-28.11 62.76-62.76m159.33 91.73c0-34.64-28.12-62.76-62.77-62.76s-62.76 28.12-62.76 62.76c0 34.65 28.11 62.77 62.76 62.77s62.77-28.12 62.77-62.77m226.92-391.07c0-34.65-28.12-62.76-62.77-62.76-34.64 0-62.76 28.11-62.76 62.76s28.12 62.76 62.76 62.76c34.65 0 62.77-28.11 62.77-62.76m-62.77 164.15c0-34.64-28.12-62.76-62.76-62.76-34.65 0-62.77 28.12-62.77 62.76 0 34.65 28.12 62.77 62.77 62.77 34.64 0 62.76-28.12 62.76-62.77m14.49 178.64c0-34.64-28.12-62.77-62.77-62.77-34.64 0-62.76 28.13-62.76 62.77 0 34.65 28.12 62.77 62.76 62.77 34.65 0 62.77-28.12 62.77-62.77m72.42 154.5c0-34.65-28.12-62.77-62.77-62.77s-62.76 28.12-62.76 62.77c0 34.64 28.11 62.76 62.76 62.76s62.77-28.12 62.77-62.76m173.81 115.87c0-34.64-28.12-62.76-62.77-62.76-34.64 0-62.76 28.12-62.76 62.76 0 34.65 28.12 62.77 62.76 62.77 34.65 0 62.77-28.12 62.77-62.77m183.46 67.6c0-34.65-28.12-62.77-62.76-62.77-34.65 0-62.77 28.12-62.77 62.77 0 34.64 28.12 62.76 62.77 62.76 34.64 0 62.76-28.12 62.76-62.76m183.47 62.76c0-34.65-28.12-62.76-62.77-62.76-34.64 0-62.76 28.11-62.76 62.76s28.12 62.76 62.76 62.76c34.65 0 62.77-28.11 62.77-62.76m173.81 48.28c0-34.65-28.12-62.76-62.77-62.76-34.64 0-62.76 28.11-62.76 62.76s28.12 62.76 62.76 62.76c34.65 0 62.77-28.11 62.77-62.76m197.95-642.13c0-34.65-28.12-62.77-62.77-62.77-34.64 0-62.76 28.12-62.76 62.77s28.12 62.76 62.76 62.76c34.65 0 62.77-28.11 62.77-62.76m-106.22 168.98c0-34.64-28.12-62.76-62.76-62.76-34.65 0-62.77 28.12-62.77 62.76 0 34.65 28.12 62.77 62.77 62.77 34.64 0 62.76-28.12 62.76-62.77m0 212.44c0-34.65-28.12-62.77-62.76-62.77-34.65 0-62.77 28.12-62.77 62.77 0 34.64 28.12 62.76 62.77 62.76 34.64 0 62.76-28.12 62.76-62.76m77.25 178.63c0-34.64-28.12-62.76-62.77-62.76-34.64 0-62.76 28.12-62.76 62.76 0 34.65 28.12 62.77 62.76 62.77 34.65 0 62.77-28.12 62.77-62.77m1840.88-1028.37c0-34.65 28.12-62.77 62.77-62.77 34.64 0 62.76 28.12 62.76 62.77s-28.12 62.76-62.76 62.76c-34.65 0-62.77-28.11-62.77-62.76m0 178.64c0-34.65 28.12-62.77 62.77-62.77 34.64 0 62.76 28.12 62.76 62.77 0 34.64-28.12 62.76-62.76 62.76-34.65 0-62.77-28.12-62.77-62.76m-72.42 202.78c0-34.65 28.12-62.77 62.77-62.77 34.64 0 62.76 28.12 62.76 62.77 0 34.64-28.12 62.76-62.76 62.76-34.65 0-62.77-28.12-62.77-62.76m-144.84 140.01c0-34.65 28.12-62.77 62.76-62.77 34.65 0 62.77 28.12 62.77 62.77 0 34.64-28.12 62.76-62.77 62.76-34.64 0-62.76-28.12-62.76-62.76m-173.81 96.56c0-34.65 28.12-62.76 62.77-62.76 34.64 0 62.76 28.11 62.76 62.76s-28.12 62.76-62.76 62.76c-34.65 0-62.77-28.11-62.77-62.76m-159.33 91.73c0-34.64 28.12-62.76 62.77-62.76s62.76 28.12 62.76 62.76c0 34.65-28.11 62.77-62.76 62.77s-62.77-28.12-62.77-62.77m-226.92-391.07c0-34.65 28.13-62.76 62.77-62.76 34.65 0 62.77 28.11 62.77 62.76s-28.12 62.76-62.77 62.76c-34.64 0-62.77-28.11-62.77-62.76m62.77 164.15c0-34.64 28.12-62.76 62.76-62.76 34.65 0 62.77 28.12 62.77 62.76 0 34.65-28.12 62.77-62.77 62.77-34.64 0-62.76-28.12-62.76-62.77m-14.49 178.64c0-34.64 28.12-62.77 62.77-62.77s62.76 28.13 62.76 62.77c0 34.65-28.11 62.77-62.76 62.77s-62.77-28.12-62.77-62.77m-72.42 154.5c0-34.65 28.12-62.77 62.77-62.77 34.64 0 62.77 28.12 62.77 62.77 0 34.64-28.13 62.76-62.77 62.76-34.65 0-62.77-28.12-62.77-62.76m-173.81 115.87c0-34.64 28.12-62.76 62.77-62.76 34.64 0 62.76 28.12 62.76 62.76 0 34.65-28.12 62.77-62.76 62.77-34.65 0-62.77-28.12-62.77-62.77m-183.46 67.6c0-34.65 28.12-62.77 62.76-62.77 34.65 0 62.77 28.12 62.77 62.77 0 34.64-28.12 62.76-62.77 62.76-34.64 0-62.76-28.12-62.76-62.76m-183.47 62.76c0-34.65 28.12-62.76 62.77-62.76 34.64 0 62.76 28.11 62.76 62.76s-28.12 62.76-62.76 62.76c-34.65 0-62.77-28.11-62.77-62.76m-173.81 48.28c0-34.65 28.12-62.76 62.77-62.76 34.64 0 62.76 28.11 62.76 62.76s-28.12 62.76-62.76 62.76c-34.65 0-62.77-28.11-62.77-62.76m-197.95-642.13c0-34.65 28.12-62.77 62.77-62.77 34.64 0 62.77 28.12 62.77 62.77s-28.13 62.76-62.77 62.76c-34.65 0-62.77-28.11-62.77-62.76m106.22 168.98c0-34.64 28.12-62.76 62.76-62.76 34.65 0 62.77 28.12 62.77 62.76 0 34.65-28.12 62.77-62.77 62.77-34.64 0-62.76-28.12-62.76-62.77m0 212.44c0-34.65 28.12-62.77 62.76-62.77 34.65 0 62.77 28.12 62.77 62.77 0 34.64-28.12 62.76-62.77 62.76-34.64 0-62.76-28.12-62.76-62.76M987.863 6191.91c0-34.64-28.121-62.76-62.765-62.76-34.649 0-62.766 28.12-62.766 62.76 0 34.65 28.117 62.77 62.766 62.77 34.644 0 62.765-28.12 62.765-62.77m3438.967 0c0-34.64 28.12-62.76 62.76-62.76 34.65 0 62.77 28.12 62.77 62.76 0 34.65-28.12 62.77-62.77 62.77-34.64 0-62.76-28.12-62.76-62.77M2785.29 7403.75c0-34.64 28.12-62.76 62.76-62.76 34.65 0 62.77 28.12 62.77 62.76 0 34.65-28.12 62.77-62.77 62.77-34.64 0-62.76-28.12-62.76-62.77m1189.14-1900.43-75.93-165.68-118.51 154.56Zm-544.97 158.93-213.84 45.14c-31.22 6.59-60.67-8.52-66.03-33.89l-4.18-19.8c-5.35-25.37 15.47-51.1 46.7-57.69l213.84-45.15c31.22-6.59 60.67 8.53 66.03 33.89l4.18 19.81c5.35 25.37-15.47 51.1-46.7 57.69m-1989.2-158.93 75.93-165.68 118.51 154.56zm544.97 158.93 213.85 45.14c31.22 6.59 60.67-8.52 66.03-33.89l4.18-19.8c5.35-25.38-15.47-51.1-46.69-57.69l-213.85-45.15c-31.22-6.59-60.67 8.53-66.02 33.89l-4.19 19.81c-5.35 25.37 15.47 51.1 46.69 57.69m549.79 30.29 172.32 90.82 172.32-90.82-172.32-90.83zm237.75 633.99c0-36.12-29.31-65.42-65.43-65.42-36.11 0-65.42 29.3-65.42 65.42 0 36.11 29.31 65.42 65.42 65.42 36.12 0 65.43-29.31 65.43-65.42" style="fill:#fff;fill-opacity:1;fill-rule:nonzero;stroke:none" transform="matrix(.13333 0 0 -.13333 0 1082.107)"/><path d="M2707.89 5905.1c-766.84 0-1302.75-286.87-1302.75-286.87-20.81-11.19-28.62-37.12-17.43-57.94 11.18-20.81 37.12-28.62 57.93-17.44 0 0 516.13 276.47 1261.13 276.75h1.12c745.54 0 1261.13-276.75 1261.13-276.75 20.81-11.18 46.75-3.37 57.94 17.44 11.18 20.82 3.37 46.75-17.44 57.94 0 0-534.88 286.87-1301.63 286.87" style="fill:#fff;fill-opacity:1;fill-rule:evenodd;stroke:none" transform="matrix(.13333 0 0 -.13333 0 1082.107)"/><path d="M2707.89 5563.1c-396.19 0-689.29-63.85-883.12-129.37s-291.38-133.88-291.38-133.88c-19.57-13.35-24.6-40.05-11.25-59.62 13.36-19.57 40.06-24.61 59.63-11.25 0 0 85.75 61.09 271.12 123.75 185.19 62.59 467.63 124.74 853.88 124.87h1.12c386.82 0 668.52-62.21 853.88-124.87s271.12-123.75 271.12-123.75c19.57-13.36 46.27-8.32 59.63 11.25s8.32 46.27-11.25 59.62c0 0-97.56 68.36-291.38 133.88s-485.85 129.37-882 129.37m-9 669.38c-29.08-2.91-54.01-19.67-69.75-37.13-17.36-19.26-28.25-39.58-39.37-57.37s-21.97-31.95-34.88-41.63-27.89-16.87-55.12-16.87c-34.4 0-53.5 5.81-66.38 14.62-8.84 6.32-15.51 14.58-22.5 23.63-8.6 11.14-17.43 24.82-31.5 39.37-14.06 14.55-37.28 29.25-64.12 29.25-32.62 0-57.2-20.15-74.25-39.37-17.05-19.23-31.14-40.92-45-60.75-13.86-19.84-27.2-37.92-41.63-49.5-14.43-11.59-28.05-16.88-47.25-16.88-64.39 0-81.33 17.55-102.37 41.63-10.52 12.04-21.28 27.18-37.13 41.62-15.84 14.45-40.57 27-68.62 27-18.39 0-36.62-6.26-49.5-16.87-12.89-10.61-20.57-23.33-27-36-12.86-25.35-19.7-52.8-28.13-77.63-8.43-24.82-18.07-46.66-29.25-59.62-11.17-12.96-21.75-19.13-46.12-19.13-46.75 0-65.97 9.79-91.13 22.5-25.15 12.72-58.09 30.38-106.87 30.38-20.25 0-36.78-9.95-48.38-20.25-11.59-10.31-19.87-22.8-28.12-36-16.5-26.41-31.01-57.55-42.75-88.88-2.06-5.5-3.73-10.42-5.63-15.75-46.73-22.81-67.05-29.65-142.87-24.75-.99.06-2.4.02-3.38 0-1.94-.08-4.89-.76-6.75-1.12-1.23-.28-3.31-.74-4.5-1.13-.87-.31-2.52-.75-3.37-1.12-1.68-.79-4.09-2.36-5.63-3.38-.5-.35-1.76-.75-2.25-1.12-.47-.39-1.79-1.84-2.25-2.25-.22-.21-.9-.91-1.12-1.13-.86-.87-2.61-2.42-3.38-3.37-.37-.49-.77-1.75-1.12-2.25-1.02-1.55-2.59-3.93-3.38-5.63-1.24-2.87-2.85-6.93-3.37-10.12-.13-.97.06-2.39 0-3.38s-.02-2.4 0-3.37c.08-1.94.76-4.89 1.12-6.75.28-1.23.74-3.32 1.13-4.5.31-.88.75-2.53 1.12-3.38.79-1.67 2.36-4.08 3.38-5.62.35-.51.75-1.77 1.12-2.25.39-.48 1.85-1.79 2.25-2.25.21-.23.91-.91 1.13-1.13.88-.85 2.42-2.6 3.37-3.37.49-.37 1.75-.78 2.25-1.13 1.55-1.01 3.93-2.58 5.63-3.37 2.87-1.25 6.93-2.86 10.12-3.38.97-.13 2.39.06 3.38 0 50.33-3.26 86.71.36 119.25 9-1.06-4.12-1.91-6.55-2.25-7.87-.96-2.18-1.71-4.44-2.25-6.75v-1.13c-.4-.73-.77-1.49-1.13-2.25q-.03-1.125 0-2.25-.03-1.125 0-2.25v-1.12q-.135-2.25 0-4.5-.03-1.125 0-2.25v-1.13q-.03-1.125 0-2.25c.37-.38.75-.76 1.13-1.12q-.03-1.125 0-2.25c.35-.77.72-1.52 1.12-2.25v-1.13c.36-.76.73-1.51 1.13-2.25.35-.76.72-1.51 1.12-2.25.37-.38.75-.76 1.13-1.12.37-.39.74-.76 1.12-1.13v-1.12q1.08-1.17 2.25-2.25c.37-.39.75-.76 1.13-1.13.35-.76.72-1.51 1.12-2.25 1.42-1.23 2.92-2.36 4.5-3.37.37-.39.75-.76 1.13-1.13 1.81-.9 3.69-1.65 5.62-2.25.37-.38.75-.76 1.13-1.12q1.125-.03 2.25 0c.74-.4 1.49-.78 2.25-1.13h1.12c.74-.4 1.49-.77 2.25-1.12.38-.01.75-.01 1.13 0q1.125-.03 2.25 0 1.125-.03 2.25 0 1.125-.03 2.25 0c.37-.01.75-.01 1.12 0 4.29.42 8.47 1.56 12.38 3.37.76.35 1.51.73 2.25 1.13q2.325.975 4.5 2.25s2.21 1.09 2.25 1.12q1.17 1.08 2.25 2.25c6.21 4.15 106.03 69.09 313.87 139.5 213.25 72.25 534.19 145.45 960.75 146.25.29-.02.85.02 1.13 0 1.12-.05 3.37-.05 4.5 0 .28.02.84-.02 1.12 0 1.21 0 2.18.01 3.38 0 428.35-.4 749.16-73.8 963-146.25 207.84-70.41 307.66-135.35 313.87-139.5.15-.09 3.34-2.22 3.38-2.25.37-.38.74-.76 1.12-1.12.27-.21.85-.93 1.13-1.13.56-.37 1.67-.78 2.25-1.12 1.81-.9 3.69-1.65 5.62-2.25.38-.01.75-.01 1.13 0 .74-.4 1.49-.78 2.25-1.13q1.125-.03 2.25 0c.74-.4 1.49-.77 2.25-1.12.37-.01.75-.01 1.12 0q1.125-.03 2.25 0c.38-.01.75-.01 1.13 0q1.125-.03 2.25 0c1.33.05 3.18-.19 4.5 0 .98.16 2.41.88 3.37 1.12 1.15.33 2.27.7 3.38 1.13.76.35 1.51.72 2.25 1.12h1.12c.77.35 1.52.73 2.25 1.13.39.36.76.74 1.13 1.12.76.35 1.51.73 2.25 1.13.38.36.76.74 1.12 1.12 1.2 1.06 2.32 2.19 3.38 3.38.37-.01.75-.01 1.12 0 .4.73.78 1.48 1.13 2.25.38.36.76.74 1.12 1.12.39.37.76.74 1.13 1.13.38.36.76.74 1.12 1.12.4.74.78 1.49 1.13 2.25.38.37.76.74 1.12 1.13q.03 1.125 0 2.25c.39.36.76.74 1.13 1.12.96 2.18 1.71 4.44 2.25 6.75v1.13q.03 1.125 0 2.25v1.12q.03 1.125 0 2.25c.09 1.5.09 3.01 0 4.5v1.13q.03 1.125 0 2.25.03 1.125 0 2.25c-.37.38-.74.75-1.13 1.12 0 0 .01 2.22 0 2.25-.22.59-.87 1.68-1.12 2.25-.67 1.43-1.41 3.17-2.25 4.5-.32 1.26-.37 3.68-1.13 6.75 32.54-8.64 68.92-12.26 119.25-9 .99.06 2.41-.13 3.38 0 3.19.52 7.26 2.13 10.12 3.38 1.7.79 4.08 2.36 5.63 3.37.51.35 1.76.76 2.25 1.13.96.77 2.5 2.52 3.37 3.37.22.22.92.9 1.13 1.13.41.46 1.86 1.77 2.25 2.25.37.48.77 1.74 1.12 2.25 1.02 1.54 2.59 3.95 3.38 5.62.37.85.81 2.5 1.12 3.38.39 1.18.86 3.27 1.13 4.5.36 1.86 1.04 4.81 1.12 6.75.02.97.06 2.38 0 3.37-.05.99.13 2.41 0 3.38-.51 3.19-2.12 7.25-3.37 10.12-.79 1.7-2.36 4.08-3.38 5.63-.35.5-.75 1.76-1.12 2.25-.77.95-2.52 2.5-3.38 3.37-.21.22-.9.92-1.12 1.13-.46.41-1.77 1.86-2.25 2.25-.49.37-1.75.77-2.25 1.12-1.54 1.02-3.95 2.59-5.63 3.38-.85.37-2.49.81-3.37 1.12-1.18.39-3.27.85-4.5 1.13-1.86.36-4.81 1.04-6.75 1.12-.98.02-2.39.06-3.38 0-75.81-4.9-96.13 1.94-142.87 24.75-1.85 5.25-3.59 10.31-5.63 15.75-11.74 31.33-26.24 62.47-42.75 88.88-8.25 13.2-16.52 25.69-28.12 36-11.6 10.3-28.13 20.25-48.38 20.25-48.78 0-81.72-17.66-106.87-30.38-25.15-12.71-44.38-22.5-91.13-22.5-24.37 0-33.82 6.17-45 19.13-11.17 12.96-21.94 34.8-30.37 59.62-8.43 24.83-15.27 52.28-28.13 77.63-6.43 12.67-14.11 25.39-27 36-12.88 10.61-31.11 16.87-49.5 16.87-28.05 0-52.78-12.55-68.62-27-15.84-14.44-25.48-29.58-36-41.62-21.04-24.08-39.11-41.63-103.5-41.63-19.2 0-32.82 5.29-47.25 16.88-14.43 11.58-27.77 29.66-41.63 49.5-13.86 19.83-27.94 41.52-45 60.75-17.05 19.22-41.63 39.37-74.25 39.37-26.84 0-50.06-14.7-64.12-29.25s-22.89-28.23-31.5-39.37c-6.99-9.05-13.66-17.31-22.5-23.63-12.88-8.81-31.97-14.62-66.38-14.62-27.23 0-42.21 7.19-55.12 16.87s-23.76 23.84-34.88 41.63-22 38.11-39.37 57.37c-17.37 19.27-44.6 37.13-77.63 37.13-3.09 0-5.99.3-9 0m2.25-76.5c1.79.24 4.37 0 6.75 0 2.05 0 4.11.17 5.63 0 .48-.07 1.8-1.03 2.25-1.13.21-.05.92.06 1.12 0s.93.08 1.13 0c.19-.08.94-1.03 1.12-1.12.19-.1.95.11 1.13 0 .18-.12.94-1 1.12-1.13.18-.14.95-.97 1.13-1.12 1.85-1.64 4.13-3.84 6.75-6.75 8.39-9.31 18.8-26.94 31.5-47.25 12.69-20.31 27.68-44.11 52.87-63 6.05-4.53 14.31-7.53 21.38-11.25-40.68 1.43-77.64 5.54-120.38 5.62-2.39.01-4.35 0-6.75 0-1.87.14-3.75.14-5.62 0-43.4-.06-81.35-4.17-122.63-5.62 7.08 3.72 15.33 6.72 21.38 11.25 25.19 18.89 40.18 42.69 52.87 63 12.7 20.31 23.11 37.94 31.5 47.25 3.94 4.36 7.15 7.31 10.13 9 .6.31 1.61.89 2.25 1.12.43.14 1.79-.11 2.25 0 .24.05.88 1.09 1.12 1.13m-388.12-46.13c.24.09.91-.05 1.12 0 .18.04.97-.01 1.13 0 1.23 0 2.62.05 3.37 0 .22-.03.95.04 1.13 0 .32-.11.86-.94 1.12-1.12.27-.23.83-.8 1.13-1.13.68-.78 2.08-2.03 3.37-3.37 5.19-5.37 12.85-17.22 24.75-32.63 15.84-20.5 46.63-40.69 85.5-54-78.44-5.87-150.75-14.79-220.5-24.75 16.32 16.16 32.32 32.96 43.88 49.5 15.18 21.73 27.65 42.05 38.25 54 6.62 7.47 11.62 10.87 14.62 12.38.27.11.89 1.04 1.13 1.12m780.75 0c.14.08.96-.05 1.12 0 .18.04.91-.03 1.13 0 .75.05 2.14 0 3.37 0 .16-.01.95.04 1.13 0 .42-.11 1.71-.89 2.25-1.12 3-1.51 8-4.91 14.62-12.38 10.6-11.95 23.07-32.27 38.25-54 11.56-16.54 27.57-33.34 43.88-49.5-69.78 9.97-142.01 18.88-220.5 24.75 38.87 13.31 69.66 33.5 85.5 54 11.9 15.41 19.56 27.26 24.75 32.63 1.3 1.34 2.69 2.59 3.37 3.37.3.33.87.9 1.13 1.13.13.09-.14 1.05 0 1.12m-1195.88-56.25c.06-.03 1 .03 1.13 0 3.64 0 5.94-.62 7.87-1.12.15-.05.99.05 1.13 0 .14-.06.98.06 1.12 0 .14-.08.99-1.04 1.13-1.13 1.43-.99 3.45-2.52 5.62-4.5 6.96-6.33 16.69-19.21 30.38-34.87 16.89-19.34 46.71-38.08 83.25-51.75-70.6-14.62-135.56-29.3-194.63-46.13 12.4 20.35 24.74 40.82 31.5 60.75 9.41 27.71 16.5 53.45 23.63 67.5 2 3.95 4.15 7.16 5.62 9 .61.73 1.86 1.87 2.25 2.25m1609.88 0c1.85.41 4.51 0 7.87 0 .13.03 1.07-.03 1.13 0 .39-.38 1.64-1.52 2.25-2.25 1.47-1.84 3.62-5.05 5.62-9 7.13-14.05 14.22-39.79 23.63-67.5 6.77-19.93 19.11-40.4 31.5-60.75-59.07 16.83-124.02 31.51-194.63 46.13 36.54 13.67 66.36 32.41 83.25 51.75 13.7 15.66 23.43 28.54 30.38 34.87 2.17 1.98 4.19 3.51 5.62 4.5.14.09.99 1.05 1.13 1.13.14.06.98-.06 1.12 0 .15.05.99-.05 1.13 0 .15.04-.16 1.09 0 1.12m-1984.5-157.5c29.8-.54 43.28-7.99 69.75-21.37 15.52-7.85 36.08-15.22 60.75-21.38-73.18-27.89-145.41-57.2-187.88-78.75 4.16 12.68 2.89 13.7 7.88 27 10.76 28.71 23.23 56.76 34.87 75.38 5.1 8.15 10.22 14.64 13.5 18 .22.21.93.95 1.13 1.12m2358 0c3.27.29 6.4-.06 10.12 0 .2-.17.91-.91 1.13-1.12 3.28-3.36 8.41-9.85 13.5-18 11.64-18.62 24.11-46.67 34.87-75.38 4.99-13.3 3.72-14.32 7.88-27-42.47 21.55-114.7 50.86-187.88 78.75 24.67 6.16 45.24 13.53 60.75 21.38 23.16 11.71 36.72 19.4 59.63 21.37" style="fill:#fff;fill-opacity:1;fill-rule:evenodd;stroke:none" transform="matrix(.13333 0 0 -.13333 0 1082.107)"/><path d="M1900.46 6200.53c0-36.12-29.3-65.42-65.42-65.42-36.11 0-65.42 29.3-65.42 65.42 0 36.11 29.31 65.42 65.42 65.42 36.12 0 65.42-29.31 65.42-65.42m-677.47-390.11c0-36.12-29.31-65.43-65.42-65.43s-65.42 29.31-65.42 65.43c0 36.11 29.31 65.42 65.42 65.42s65.42-29.31 65.42-65.42m1119.46 455.53c0-36.11-29.31-65.42-65.43-65.42-36.11 0-65.42 29.31-65.42 65.42 0 36.12 29.31 65.43 65.42 65.43 36.12 0 65.43-29.31 65.43-65.43m-848.07-237.46c0-36.11-29.31-65.42-65.43-65.42-36.11 0-65.42 29.31-65.42 65.42 0 36.12 29.31 65.42 65.42 65.42 36.12 0 65.43-29.3 65.43-65.42m2019.84 172.04c0-36.12 29.32-65.42 65.43-65.42s65.42 29.3 65.42 65.42c0 36.11-29.31 65.42-65.42 65.42s-65.43-29.31-65.43-65.42m677.48-390.11c0-36.12 29.31-65.43 65.42-65.43s65.42 29.31 65.42 65.43c0 36.11-29.31 65.42-65.42 65.42s-65.42-29.31-65.42-65.42m-1119.46 455.53c0-36.11 29.31-65.42 65.43-65.42 36.11 0 65.42 29.31 65.42 65.42 0 36.12-29.31 65.43-65.42 65.43-36.12 0-65.43-29.31-65.43-65.43m848.07-237.46c0-36.11 29.32-65.42 65.43-65.42s65.42 29.31 65.42 65.42c0 36.12-29.31 65.42-65.42 65.42s-65.43-29.3-65.43-65.42" style="fill:#fff;fill-opacity:1;fill-rule:nonzero;stroke:none" transform="matrix(.13333 0 0 -.13333 0 1082.107)"/><path d="M4314.39 6258.35c-51.12-3.55-91.37-32.35-118.12-68.62-44.07-71.67-59.25-168.43-52.88-276.75 116.27 14.33 194.48 61.63 248.63 123.75 16.84 25.74 31.13 53.38 37.12 83.25.07.31-.06.81 0 1.12-27.41 25.98-33.97 73.79-20.25 110.25-.14.26.15.87 0 1.13-1.66 2.92-3.76 6.03-5.62 9-32.5 13.86-62.1 18.73-88.88 16.87m-1600.74 162.86h-103.29c-38.21-64.31-90.07-146.36-157.33-146.36-40.55 0-76.21 37.82-76.21 150.02 0 115.28 33.1 142.7 76.21 142.7 57.37 0 92.69-43.72 128.69-84.34 52.78 9.94 84.86 36.7 87.19 66.05-76.84 34.15-142.7 82.51-142.7 146.35 0 70.05 110.89 76.84 182.94 76.84h4.5c72.06 0 182.95-6.79 182.95-76.84 0-63.84-65.86-112.2-142.7-146.35 2.33-29.35 34.41-56.11 87.19-66.05 36 40.62 71.32 84.34 128.69 84.34 43.11 0 76.21-27.42 76.21-142.7 0-112.2-35.67-150.02-76.21-150.02-67.26 0-119.12 82.05-157.33 146.36zm-915.88 215.14c-36.38-2.97-77.12-15.09-109.13-25.87-68.28-23.01 63.79 20.75-4.5-2.25-68.28-23.01-170.86-64.12-148.5-130.5 20.39-60.5 97.41-85.55 181.13-93.38 7.16-28.55-13.91-64.85-60.75-91.12-47.08 27-95.25 57.69-149.63 39.37-14.04-4.73-25.69-12.6-33.75-24.75-.53-.84-1.75-2.49-2.25-3.37-.97-1.81-2.55-4.76-3.37-6.75-9.57-24.34-7.21-63.43 13.5-124.88 35.82-106.33 80.83-131.07 119.25-118.12 63.74 21.47 86.69 115.85 102.37 189l63 21.37c14.25 18.6 36.07 29.78 64.13 27 5.2.59 10.51.25 15.75 0 .23-.01.89.01 1.12 0l48.38 16.88c56.75-48.75 132.01-110.35 195.75-88.88 38.42 12.95 59.45 60.17 23.62 166.5-20.12 59.75-41.31 91.56-63 105.75-1.55.98-4.07 2.57-5.62 3.38-1.25.61-3.25 1.73-4.5 2.25-14.38 5.59-29.2 4.94-43.88 0-54.37-18.32-74.48-71.52-95.62-121.5-44.05-6.16-78.57 3.74-95.63 22.5-3.09 3.6-6.06 8.14-7.87 12.37 61.91 56.9 109.26 124 88.87 184.5-11.88 35.26-47.64 43.87-88.87 40.5m1789.87 0c-28.03-2.58-50.71-14.05-59.62-40.5-20.39-60.5 26.96-127.6 88.87-184.5-1.8-4.23-4.78-8.77-7.87-12.37-17.06-18.76-51.58-28.66-95.63-22.5-21.14 49.98-41.25 103.18-95.62 121.5-14.36 4.84-28.68 5.18-42.75 0-1.56-.61-4.07-1.48-5.63-2.25-1.55-.81-4.07-2.4-5.62-3.38-21.69-14.19-42.87-46-63-105.75-35.82-106.33-14.8-153.55 23.62-166.5 63.74-21.47 139 40.13 195.75 88.88l48.38-15.75c.27.02.86-.03 1.12 0 26.8 2.55 55.14-3.37 74.25-23.63 1.9-1.61 3.93-2.78 5.63-4.5.19-.19-.19-.93 0-1.12l63-20.25c15.68-73.15 38.64-167.53 102.37-189 38.43-12.95 83.43 11.79 119.25 118.12 20.71 61.45 23.07 100.54 13.5 124.88-.82 1.99-2.39 4.94-3.37 6.75-.5.88-1.72 2.53-2.25 3.37-8.06 12.15-19.71 20.02-33.75 24.75-54.37 18.32-102.54-12.37-149.63-39.37-46.84 26.27-67.91 62.57-60.75 91.12 83.72 7.83 160.75 32.88 181.13 93.38 22.36 66.38-80.22 107.49-148.5 130.5-68.28 23 63.78-20.76-4.5 2.25-41.08 13.84-96.06 29.77-138.38 25.87m-2509.87-378c-20.66-1.43-42.74-6.79-66.38-16.87-1.05-1.68-2.39-3.96-3.37-5.63.12-.29-.12-.83 0-1.12-.19-.32.18-.81 0-1.13 13.95-34.95 3.82-81.03-22.5-109.12-.114-.12.109-1.01 0-1.13 5.589-31.08 19.7-59.99 37.12-86.62 54.15-62.12 132.36-109.42 248.63-123.75 6.37 108.32-8.81 205.08-52.88 276.75-30.57 41.45-78.65 72.91-140.62 68.62" style="fill:#fff;fill-opacity:1;fill-rule:evenodd;stroke:none" transform="matrix(.13333 0 0 -.13333 0 1082.107)"/><path d="M2662.3 7034.6c.69.11 1.55-.1 2.25 0 .19 0 .93.02 1.13 0 .09.01 1.03-.01 1.12 0s1.03.01 1.13 0h1.12c.24 0 1.01.01 1.13 0 .18 0 .94.01 1.12 0 .19.01.94.01 1.13 0 .23 0 1.02-.01 1.12 0h1.13c.93 0 2.42.02 3.37 0 .12.01.9.01 1.13 0 .76.06 1.51.01 2.25 0 1.81-.04 4.71-.09 6.75 0 6.42.29 12.97 0 20.25 0 46.53 0 73.15-5.85 101.25-18 8.98-3.88 18.34-7.98 28.12-13.5-.01-.06 0-.87 0-1.12 3.21-37.25 24.53-71.96 65.25-77.63 4.06-1.39 8.42-2.65 12.38-3.37-4.8-9.84-10.24-19.82-15.75-29.25-4.23 7.06-10.01 13.36-16.88 19.12-19.48 20.23-50.57 25.46-77.62 21.38-16.54-.25-30.72-5.39-41.63-13.5-29.39-22.68-38.4-69.19-27-106.88-19.56-.29-39.34-.97-58.5-1.12 15.79 41.5 7.75 93.27-37.12 113.62-19.24 8.73-41 11.1-61.88 7.88-7.98-.41-15.85-1.96-22.5-4.5-4.02-1.62-8.86-4.47-12.37-6.75-1.27-.85-3.31-2.45-4.5-3.38-8.25-6.62-15.33-15.27-20.25-24.75-5.92 9.44-11.75 18.19-16.88 28.13 38.66 5.26 67.61 42.15 75.38 81v1.12c9.78 5.52 19.14 9.62 28.12 13.5 17.16 7.43 34.74 14.69 56.25 18m-427.5-72c1.33.11 3.16-.1 4.5 0 .76 0 2.61.01 3.38 0 .18.01.95-.01 1.12 0 1.16 0 3.68-.01 4.5 0 2.33.06 5.46-.14 7.88 0 2.34.06 5.41-.12 7.87 0 4.31.21 8.06-.14 12.38 0 10 .34 20.32 0 30.37 0 43.13 0 70.71-1.29 95.63-3.37 23.74-77.92 63.3-145.69 112.5-194.63-17.01-17.26-28.72-39.35-30.38-67.5-1.68-36.28 11.44-73.63 36-100.12-62.26 25.93-150.41 10.31-167.62-63-22.98-63.77-24.65-139.06-4.5-204.75-18.32 19.41-45.86 31.94-73.13 29.25-.1-.01-.89-.01-1.12 0-.11 0-1.01-.01-1.13 0-.09-.1-.89-.9-1.12-1.13-.12.01-1.03 0-1.13 0-93.12 7.83-111.78-141.62-39.37-176.62-25.05-20.93-44.73-50.09-57.38-79.88-26.15-47.05-90.13-76.69-133.87-31.5-34.73 35.21-74.11 82.8-123.75 90 9.56 19.28 14.76 43.47 12.37 65.25 58.66-51.1 163.36-74.96 221.63-12.37 46.68 67.65 14.31 157.38-9 228.37-22.47 57.61-71.2 113.48-139.5 100.13-26.98-.16-61.96-20.37-77.63-31.5 21.45 63.72 2.68 161.07-76.5 165.37-.37 0-1.87.01-2.25 0-.26.01-1.07.01-1.12 0-49.35 39.38-86.93 83.09-110.25 126 168.46 84.77 331.44 148.17 500.62 162m798.75 0c1.02.15 2.34-.12 3.38 0 .55 0 1.68.01 2.25 0 .14.01.97-.01 1.12 0 1.16 0 3.67-.01 4.5 0 .1.01.89.01 1.13 0 .73 0 1.5.01 2.25 0h1.12c3.13.19 6.76-.13 10.13 0 4.13.17 9-.12 13.5 0 10.9.29 22.52 0 36 0 195.06 0 380.45-65.31 572.62-162-23.18-42.34-60.49-84.81-109.12-123.75-.16-.01-1.04 0-1.13 0-75.58-5.59-105.94-103.26-82.12-169.87-54.67 46.08-148.97 47.88-185.63-18-54.85-71.71-69.35-170.81-51.75-257.63 44.25-82.1 174.59-70.3 230.63-3.37 2.22 2.17 4.37 3.69 6.75 5.62-4.86-24.71-.97-55.13 7.87-76.5-57.23-10.03-99.42-66.74-141.75-103.5-54.98-24.54-110.75 21.99-124.87 70.88-12.03 20.91-30.04 40.54-50.63 56.25 44.02 23.51 69.83 83.66 41.63 131.62-13.91 35.8-59.91 51.84-97.88 45-17.56-.83-32.44-6.13-43.87-15.75 11.09 53.3 5.21 114.42 4.5 165.38-7.03 81.5-109.52 126.16-180 92.25 39.88 46.5 45.73 128.26 3.37 171 46.65 48.43 83.04 113.82 105.75 189 6.63.55 13.11 2.38 20.25 3.37m-1462.5-262.12h1.13c-1.02-21.99 3.86-45.85 14.62-64.13 2.47-4.05 5.88-8.91 9-12.37.58-.62 1.65-1.66 2.25-2.25-43.51-22.31-80.38-53.96-102.37-100.13-13.26-57.59 20.19-115.08 68.62-142.87-67.79 9.59-151.64-32.54-140.62-109.13.28-50.08 9.3-103.94 30.37-150.75-7.81 1.94-16.52 3.15-24.75 2.25-.38.01-1.87 0-2.25 0-.12.01-1.02 0-1.12 0-.41-.21-1.86-.92-2.25-1.12-104.69 10.25-115.18-176.14-13.5-183.38 2.9-.92 6.15-1.67 9-2.25-.4-.81-.75-1.42-1.13-2.25-20-35.08-31.42-90.91-67.5-110.25-9.88-5.02-21.72-7.02-36-5.62-18.62.58-42.16 1.23-64.12-2.25.46 20.63-5.11 41.33-19.13 58.5a76 76 0 0 1-4.5 4.5c25.95-5.26 52.23-8.5 77.63-10.13.24.25 1.05 1.06 1.12 1.13.21.21.99.98 1.13 1.12.24.25 1.06 1.05 1.12 1.13 14.53 19.16.46 72.23 5.63 101.25-1.44 114.79-27.58 249.11-131.63 307.12-35.42 19.56-81.39 21.29-122.62 19.13-.07-.01-.88 0-1.13 0a503.8 503.8 0 0 0-28.12 101.25c0 .25.01 1.06 0 1.12 161.28 146.88 361.85 276.61 541.12 300.38m2275.88-1.13c178.41-24.62 377.32-153.26 537.75-299.25-5.84-35.64-14.2-68.97-27-102.37-19.32 1.45-38.77.85-54 0-132.83-8.57-197.98-154.08-198-273.38-4.01-52.78-3.98-105.75-2.25-158.62 26.22 1.66 52.94 4.79 79.87 10.12-11.93-16.4-16.09-39.37-16.87-60.75-34.86 4.48-79.04-5.99-108 9-2.15 1.17-4.77 2.99-6.75 4.5l-1.13 1.13c-2.16 1.84-4.84 4.44-6.75 6.75-2.3 2.88-4.91 6.51-6.75 10.12-9.76 28.11-22.34 60.58-40.5 87.75 60.4 7.53 106.36 83 72 140.63-17.21 34.35-56.7 51.62-94.5 46.12-.1.01-1 0-1.12 0-.39-.2-1.86-.93-2.25-1.12-2.55-.05-6.45.13-9 0 6.86 15.26 12.3 31.1 16.87 46.12 11.31 50.67 24.36 109.51 4.5 158.63-25.3 46.2-85.57 59.97-136.12 54 61.66 30.73 107.67 121.45 52.87 177.75-23.09 29.14-52.78 51.14-85.5 67.5 20.19 19.21 32.32 47.67 32.63 75.37m-1054.13-328.5c.38-.18.74-.93 1.13-1.12.08-.05 1.05.05 1.12 0 .24-.25 1.04-1.05 1.13-1.13.21-.21.89-.87 1.12-1.12 1.47-1.65 3.39-4.05 4.5-5.63 2.01-3 4-7.27 5.63-11.25.2-.38-.2-1.86 0-2.25.03-.08 1.09.08 1.12 0 39.27-70.87 127.52-142.01 210.38-103.5 12.25 7.88 22.06 16.7 30.37 27-1.31-22.23 3.34-45.03 14.63-63-10.98-3.62-21.29-9.79-31.5-18-28.04-19.9-51.09-61.41-82.13-78.75-14.37-7.71-31.12-10.33-50.62-3.37-60.72 28.26-79.62 115.19-138.38 141.75 34.12 27.95 52.05 79.87 31.5 120.37m-173.25-13.5c.18.23.95-.22 1.13 0-11.14-38.77-1.51-85.61 29.25-109.12-65.13-32.06-79.31-140.73-162-142.88-10.32 1.21-19.92 5.19-28.13 10.13-33.24 20.73-53.51 66.86-85.5 88.87-2.75 1.83-6.05 4.18-9 5.63 8.97 17.07 10.86 40.03 7.88 61.87 1.79-3.08 3.7-6 5.62-9 65.44-58.56 174.04-20.86 213.75 50.63 8.06 13.46 16.41 30.39 27 43.87m1053-151.87c9.95-9.09 18.07-19.75 18-37.13 9.08-81.56 72.25-169.11 163.13-155.25 15.91 4.08 29.98 10.93 42.75 20.25-.5-10.74-.04-21.49 2.25-31.5-7.03.78-14.89.6-22.5 0-69.56 3.04-128.31-73.13-196.88-47.25-34.16 41.18-42.55 108.35-72 154.13 38.93 12.15 65.12 55.23 65.25 96.75m-1927.12 0c-9.95-9.09-18.07-19.75-18-37.13-9.08-81.56-72.25-169.11-163.13-155.25-15.91 4.08-29.99 10.93-42.75 20.25.49-10.74.03-21.49-2.25-31.5 7.02.78 14.88.6 22.5 0 69.55 3.04 128.31-73.13 196.88-47.25 34.15 41.18 42.54 108.35 72 154.13-38.94 12.15-65.13 55.23-65.25 96.75" style="fill:#fff;fill-opacity:1;fill-rule:nonzero;stroke:none" transform="matrix(.13333 0 0 -.13333 0 1082.107)"/></svg>