<svg xmlns="http://www.w3.org/2000/svg" xml:space="preserve" viewBox="21.56 11.49 1037.18 1054.29"><g fill="#d42126" stroke-width=".136"><path d="M546.562 1062.002c-65.973 0-128.536-11.56-185.93-34.348-129.096-48.869-239.01-155.117-293.968-284.205-44.355-107.3-53.515-223.894-25.793-328.345 3.468-12.731 16.736-57.52 20.948-67.166 38.656-99.695 109.164-186.976 198.462-245.615 85.138-56.26 187.234-87.251 287.459-87.251 15.241 0 30.571.721 45.577 2.135 126.371 11.457 248.177 70 334.177 160.61l2.43 2.554-2.452 2.533c-18.393 19.04-38.523 36.675-57.991 53.735l-4.153 3.645-2.422-2.827c-62.77-73.395-162.803-105.954-198.028-115.563l279.485 279.544c68.483 71.414 105.637 145.397 110.482 219.947 1.914 58.772-17.517 121.468-57.756 186.468-74.248 124.825-202.556 216.023-343.175 243.915-35.673 6.773-71.781 10.16-107.367 10.16zM414.116 952.146c20.8 8.63 46.976 13.592 70.162 17.988 3.365.64 6.664 1.266 9.889 1.892l-1.193-326.262-78.791-.427c-.03 28.23-.192 210.648-.067 306.81m167.516-215.522c.073 24.217.5 161.139 1.215 235.122 61.334-1.943 125.959-22.383 187.145-59.235 32.213-20.278 70.825-54.081 71.406-99.754-2.937-17.332-15.491-76.015-51.393-76.015l-208.425-.126zM120.237 636.92c27.368 110.541 123.978 241.065 205.796 279.029-.368-71.223.294-148.276.935-222.849.876-101.838 1.782-207.025.191-303.356C156.514 593.582 125.744 630.36 120.237 636.95zm684.177-166.19c58.337 0 113.096 49.34 119.568 107.743 5.213 47.094-6.892 90.366-33.207 118.728-3.395 3.093-5 5.905-5.132 8.814-.28 6.244 6.148 13.246 12.377 20.012 3.549 3.859 7.216 7.857 9.8 11.884 6.31 9.874 9.506 20.587 11.104 28.23 38.994-65.148 49-94.386 47.94-136.746-1.959-78.239-58.933-141.487-108.796-187.992-140.184.273-408.963.354-443.62.361l.964 115.445 78.593-.221-.332-86.14 307.354-.074a105 105 0 0 1 3.46-.059zm-3.46 177.066c15.351 0 28.134-7.79 33.34-20.337 5.396-12.996 8.187-32.184-.178-47.072-3.652-6.501-13.93-21.632-30.46-21.632-.678 0-1.362.022-2.055.08l-218.519.376-.066 88.51 217.923.075zm-361.73-530.873C323.294 139.461 122.46 284.94 114.317 505.292l76.362-91.39c84.24-100.858 171.285-205.06 248.545-296.979m-79.012 236.183 413.543-1.325-112.986-113.81-95.358 110.062L453.125 238.93l-92.943 114.178zm199-136.2 87.177-99.953c-28.583-8.335-68.313-10.147-97.441-10.147-41.587 0-79.52 3.719-93.51 6.59z"/><path d="M547.733 18.79c15.094 0 30.188.7 45.238 2.12 125.024 11.34 245.335 68.33 331.85 159.483-18.702 19.365-38.95 37.036-59.125 54.707-78.526-91.816-212.834-119.972-212.834-119.972L941.756 404.08c56.769 59.199 103.966 133.786 109.414 217.577 2.136 65.678-23.12 129.22-57.21 184.296-73.41 123.404-199.685 214.263-340.76 242.242-35.033 6.671-70.847 10.161-106.638 10.161-62.983 0-125.93-10.801-184.568-34.09C231.668 974.935 124.537 870.012 70.05 742.043c-42.338-102.42-54.192-218.313-25.624-325.96 3.608-13.253 16.714-57.358 20.764-66.635 38.435-99.106 108.31-185.695 197.108-244.01 84.033-55.48 184.708-86.611 285.456-86.611m11.663 203.499 93.466-107.162c-26.61-9.02-66.422-12.001-103.914-12.001-49.134 0-94.276 5.124-100.476 8.519zM448.494 111.682c-112.588 15.683-335.937 166.934-338.08 404.081 105.07-125.686 232.642-278.69 338.08-404.081m116.74 231.029L452.868 233.517l-100.395 123.33 430.125-1.384-121.924-122.866-95.41 110.114M329.795 921.627c-1.03-171.853 4.087-370.02.92-541.792C121.364 629.897 116.269 636.03 116.269 636.03c26.433 109.547 124.25 248.192 213.527 285.597M411.82 560.95l85.94-.243-.39-86.125 303.65-.074c1.15-.036 2.305-.059 3.447-.059 57.372 0 109.664 48.103 115.908 104.467 4.506 40.658-3.681 85.042-32.25 115.82-17.597 15.977 7.43 30.806 16.64 45.208 10.846 16.965 12.076 36.904 12.076 36.904 42.8-70.413 54.891-101.919 53.75-147.496-1.937-77.355-56.475-140.854-111.034-191.585-149.543.294-448.775.368-448.775.368l1.053 122.793m389.186 90.565c17.715 0 31.226-9.322 36.741-22.605 6.42-15.455 8.077-35.254-.368-50.289-6.678-11.884-18.407-23.503-33.671-23.503q-1.15 0-2.334.089l-221.92.368-.074 95.866zm-303.083 325.04-1.23-334.391-86.132-.464s-.214 209.352-.067 312.942c25.845 11.265 60.03 16.493 87.429 21.942m81.331-.957c67.96-1.326 134.743-24.96 192.69-59.862 36.152-22.751 72.6-57.063 73.188-102.86-5.375-32.324-20.785-79.742-55.075-79.742l-212.062-.125c.022-.037.471 161.89 1.281 242.589M547.836 11.493h-.008c-100.939 0-203.756 31.205-289.498 87.863-89.917 59.051-160.918 146.95-199.913 247.493-4.234 9.69-17.413 54.191-21.007 67.364C9.475 519.482 18.686 636.914 63.336 744.922c56.201 132.004 164.136 236.33 296.14 286.295 57.718 22.921 120.73 34.57 187.174 34.57 35.814 0 72.158-3.46 108.015-10.286 141.68-28.098 270.9-119.951 345.708-245.711 40.555-65.516 60.17-128.904 58.241-188.301-4.91-75.67-42.41-150.434-111.46-222.437L677.74 129.603c42.521 13.114 127.218 45.79 182.477 110.401l4.845 5.662 5.603-4.91 1.355-1.186c19.527-17.105 39.716-34.798 58.212-53.942l4.896-5.073-4.852-5.11C843.674 84.195 721.013 25.24 593.751 13.695c-15.028-1.428-30.482-2.15-45.827-2.15zm-84.667 104.393c16.154-2.415 47.822-5.33 85.867-5.33 27.015 0 63.196 1.56 90.8 8.481l-80.728 92.546zM118.639 494.55c7.856-118.986 71.2-205.759 124.64-258.61 62.896-62.218 134.935-99.798 186.123-112.882-75.478 89.836-159.792 190.768-241.477 288.57-23.724 28.392-46.954 56.202-69.286 82.922m451.138-145.735 1.083-1.252 90.21-104.113 103.96 104.746-195.259.619zm-201.716.648 85.499-105.034 106.609 103.59.846.825zM124.353 637.915c8.136-9.726 43.795-52.35 199.368-238.156 1.377 93.562.5 195.031-.346 293.372-.619 72.532-1.267 147.4-.965 216.994-79.344-40.275-170.925-165.299-198.057-272.18zm293.894-192.387c46.829-.008 302.921-.104 438.46-.354 49.08 45.916 104.65 108.074 106.564 184.392.994 39.856-8.077 67.997-42.904 127.166-1.974-6.48-4.934-13.798-9.359-20.72-2.753-4.3-6.53-8.415-10.19-12.399-5.449-5.927-11.619-12.642-11.405-17.354.03-.692.125-2.79 3.703-6.038l.228-.213.214-.229c27.052-29.142 39.51-73.475 34.172-121.644-6.671-60.178-63.101-111.02-123.227-111.02-1.23 0-2.46.023-3.69.06l-303.406.073h-7.393l.03 7.393.353 78.755-71.244.198-.84-108.06zm168.62 117.432 214.572-.36h.28l.28-.023a24 24 0 0 1 1.767-.066c14.999 0 24.652 15.116 27.25 19.747 7.717 13.74 5.059 31.669-.007 43.862-4.631 11.147-16.103 18.069-29.945 18.069l-214.256-.074.081-81.155zm-168.98 386.823c-.119-92.678.029-263.161.065-300.624l71.444.383 1.17 318.14-5.507-1.045c-22.17-4.271-47.094-8.983-67.173-16.862zm168.693 18.186c-.656-71.524-1.075-196.113-1.17-227.62l204.676.118c32.603 0 44.649 54.943 47.705 72.93-.92 43.7-38.384 76.348-69.743 96.073-59.28 35.71-121.887 55.885-181.476 58.462z"/><path d="M547.733 18.79c15.094 0 30.188.7 45.238 2.12 125.024 11.34 245.335 68.33 331.85 159.483-18.702 19.365-38.95 37.036-59.125 54.707-78.526-91.816-212.834-119.972-212.834-119.972L941.756 404.08c56.769 59.199 103.966 133.786 109.414 217.577 2.136 65.678-23.12 129.22-57.21 184.296-73.41 123.404-199.685 214.263-340.76 242.242-35.033 6.671-70.847 10.161-106.638 10.161-62.983 0-125.93-10.801-184.568-34.09C231.668 974.935 124.537 870.012 70.05 742.043c-42.338-102.42-54.192-218.313-25.624-325.96 3.608-13.253 16.714-57.358 20.764-66.635 38.435-99.106 108.31-185.695 197.108-244.01 84.033-55.48 184.708-86.611 285.456-86.611m11.663 203.499 93.466-107.162c-26.61-9.02-66.422-12.001-103.914-12.001-49.134 0-94.276 5.124-100.476 8.519zM448.494 111.682c-112.588 15.683-335.937 166.934-338.08 404.081 105.07-125.686 232.642-278.69 338.08-404.081m116.74 231.029L452.868 233.517l-100.395 123.33 430.125-1.384-121.924-122.866-95.41 110.114M329.795 921.627c-1.03-171.853 4.087-370.02.92-541.792C121.364 629.897 116.269 636.03 116.269 636.03c26.433 109.547 124.25 248.192 213.527 285.597M411.82 560.95l85.94-.243-.39-86.125 303.65-.074c1.15-.036 2.305-.059 3.447-.059 57.372 0 109.664 48.103 115.908 104.467 4.506 40.658-3.681 85.042-32.25 115.82-17.597 15.977 7.43 30.806 16.64 45.208 10.846 16.965 12.076 36.904 12.076 36.904 42.8-70.413 54.891-101.919 53.75-147.496-1.937-77.355-56.475-140.854-111.034-191.585-149.543.294-448.775.368-448.775.368l1.053 122.793m389.186 90.565c17.715 0 31.226-9.322 36.741-22.605 6.42-15.455 8.077-35.254-.368-50.289-6.678-11.884-18.407-23.503-33.671-23.503q-1.15 0-2.334.089l-221.92.368-.074 95.866zm-303.083 325.04-1.23-334.391-86.132-.464s-.214 209.352-.067 312.942c25.845 11.265 60.03 16.493 87.429 21.942m81.331-.957c67.96-1.326 134.743-24.96 192.69-59.862 36.152-22.751 72.6-57.063 73.188-102.86-5.375-32.324-20.785-79.742-55.075-79.742l-212.062-.125c.022-.037.471 161.89 1.281 242.589M547.836 13.702h-.008c-100.512 0-202.895 31.08-288.276 87.502-89.549 58.801-160.248 146.325-199.08 246.447-4.153 9.506-17.466 54.413-20.926 67.143-27.81 104.79-18.636 221.722 25.83 329.288 55.958 131.43 163.428 235.315 294.88 285.074 57.49 22.832 120.23 34.422 186.394 34.422 35.674 0 71.878-3.453 107.603-10.257 141.06-27.972 269.729-119.435 344.22-244.665 40.342-65.177 59.847-128.146 57.932-187.101-4.881-75.066-42.167-149.359-110.842-220.979L669.966 124.965c39.024 11.22 132.364 43.979 191.887 113.574l3.387 3.961 3.924-3.438 1.355-1.186c19.49-17.075 39.643-34.731 58.08-53.816l3.43-3.549-3.394-3.578C842.415 86.066 720.248 27.36 593.515 15.867a488 488 0 0 0-45.687-2.143zm-89.277 100.704c15.036-2.621 49.767-6.06 90.477-6.06 28.281 0 66.576 1.709 94.798 9.454l-84.615 97.015zM116.055 501.09c5.92-123.102 70.964-212.607 125.671-266.725C307.618 169.187 383.59 130.9 435.403 119.347c-76.568 91.117-162.539 194.037-245.785 293.688-25.24 30.217-49.928 59.772-73.563 88.054m449.57-150.846 3.57-4.123 91.766-105.917 109.355 110.18-406.93 1.303L453.36 241.16l108.333 105.27 3.91 3.814zM121.93 637.363c6.679-7.981 39.871-47.653 203.904-243.575 1.502 95.225.611 198.926-.25 299.357-.634 73.77-1.289 149.955-.95 220.537-80.839-38.95-175.424-167.288-202.704-276.34zM416.023 443.32c40.298-.008 303.923-.096 441.552-.361 49.546 46.269 105.96 109.075 107.905 186.549 1.03 41.336-8.585 70.14-45.857 132.806-1.826-7.355-5-16.552-10.478-25.122-2.643-4.146-6.361-8.18-9.954-12.09-6.016-6.546-12.238-13.32-11.98-18.953.11-2.496 1.554-4.977 4.425-7.576l.162-.147.155-.162c26.617-28.672 38.854-72.371 33.597-119.892-6.553-59.11-61.974-109.054-121.033-109.054-1.2 0-2.415.023-3.615.06l-303.48.073h-5.177l.022 5.176.368 80.964-75.655.213-.95-112.492zm168.635 117.43 216.774-.36h.192l.191-.015a25 25 0 0 1 1.936-.074c16.192 0 26.426 15.978 29.18 20.874 8.107 14.432 5.368 33.119.103 45.79-4.977 11.98-17.23 19.424-31.985 19.424l-216.465-.073.081-85.566zm-168.98 390.504c-.126-94.298.036-271.805.065-304.342l75.854.405 1.186 323.015c-2.666-.516-5.383-1.031-8.13-1.546-22.788-4.345-48.462-9.204-68.976-17.524zm168.715 19.07c-.685-72.915-1.112-204.477-1.193-232.126l206.893.126c34.452 0 46.844 56.761 49.921 74.977-.832 44.79-38.913 78.063-70.78 98.112-60.384 36.3-124.2 56.621-184.841 58.904z"/><path d="M547.733 18.79c15.094 0 30.188.7 45.238 2.12 125.024 11.34 245.335 68.33 331.85 159.483-18.702 19.365-38.95 37.036-59.125 54.707-78.526-91.816-212.834-119.972-212.834-119.972L941.756 404.08c56.769 59.199 103.966 133.786 109.414 217.577 2.136 65.678-23.12 129.22-57.21 184.296-73.41 123.404-199.685 214.263-340.76 242.242-35.033 6.671-70.847 10.161-106.638 10.161-62.983 0-125.93-10.801-184.568-34.09C231.668 974.935 124.537 870.012 70.05 742.043c-42.338-102.42-54.192-218.313-25.624-325.96 3.608-13.253 16.714-57.358 20.764-66.635 38.435-99.106 108.31-185.695 197.108-244.01 84.033-55.48 184.708-86.611 285.456-86.611m11.663 203.499 93.466-107.162c-26.61-9.02-66.422-12.001-103.914-12.001-49.134 0-94.276 5.124-100.476 8.519zM448.494 111.682c-112.588 15.683-335.937 166.934-338.08 404.081 105.07-125.686 232.642-278.69 338.08-404.081m116.74 231.029L452.868 233.517l-100.395 123.33 430.125-1.384-121.924-122.866-95.41 110.114M329.795 921.627c-1.03-171.853 4.087-370.02.92-541.792C121.364 629.897 116.269 636.03 116.269 636.03c26.433 109.547 124.25 248.192 213.527 285.597M411.82 560.95l85.94-.243-.39-86.125 303.65-.074c1.15-.036 2.305-.059 3.447-.059 57.372 0 109.664 48.103 115.908 104.467 4.506 40.658-3.681 85.042-32.25 115.82-17.597 15.977 7.43 30.806 16.64 45.208 10.846 16.965 12.076 36.904 12.076 36.904 42.8-70.413 54.891-101.919 53.75-147.496-1.937-77.355-56.475-140.854-111.034-191.585-149.543.294-448.775.368-448.775.368l1.053 122.793m389.186 90.565c17.715 0 31.226-9.322 36.741-22.605 6.42-15.455 8.077-35.254-.368-50.289-6.678-11.884-18.407-23.503-33.671-23.503q-1.15 0-2.334.089l-221.92.368-.074 95.866zm-303.083 325.04-1.23-334.391-86.132-.464s-.214 209.352-.067 312.942c25.845 11.265 60.03 16.493 87.429 21.942m81.331-.957c67.96-1.326 134.743-24.96 192.69-59.862 36.152-22.751 72.6-57.063 73.188-102.86-5.375-32.324-20.785-79.742-55.075-79.742l-212.062-.125c.022-.037.471 161.89 1.281 242.589m-31.454-960.43h-.008c-100.225 0-202.32 30.983-287.466 87.259C171.078 161.065 100.57 248.346 61.856 348.18c-4.146 9.499-17.421 54.295-20.882 66.996-27.729 104.467-18.57 221.067 25.77 328.331 54.973 129.125 164.895 235.373 294.042 284.264 57.343 22.766 119.9 34.326 185.872 34.326 35.585 0 71.693-3.439 107.33-10.227 140.648-27.899 268.948-119.097 343.234-243.973 40.202-64.95 59.633-127.645 57.726-186.299-4.853-74.668-42.006-148.644-110.438-220.006L665.003 122.005c35.232 9.623 135.295 42.204 198.028 115.555l2.422 2.827 2.806-2.452 1.355-1.185c19.467-17.053 39.598-34.695 57.99-53.735l2.452-2.533-2.43-2.555c-86-90.61-207.769-149.16-334.147-160.617a487 487 0 0 0-45.555-2.135zm-92.31 98.281c13.99-2.864 51.916-6.59 93.51-6.59 29.128 0 68.859 1.812 97.442 10.147L559.3 216.965zm-341.128 391.91c4.602-125.81 70.758-217.105 126.298-272.04 67.886-67.15 146.501-105.865 198.587-116.291-77.26 91.905-164.29 196.098-248.538 296.95a923641 923641 0 0 1-76.347 91.382M565.529 348.1l2.555-2.945 92.803-107.117 112.956 113.81-413.543 1.325 92.95-114.178 109.488 106.388 2.762 2.717zM120.325 636.988c5.515-6.598 36.285-43.376 206.923-247.176 1.59 96.33.684 201.51-.192 303.348-.64 74.572-1.303 151.626-.935 222.856-81.818-37.92-178.428-168.466-205.796-278.999zm294.21-195.142c34.798-.007 304.336-.096 443.622-.36 49.862 46.497 106.837 109.752 108.795 187.991 1.06 42.36-8.946 71.598-47.94 136.746-1.598-7.65-4.793-18.363-11.104-28.23-2.577-4.027-6.25-8.025-9.8-11.884-6.221-6.766-12.657-13.768-12.377-20.012.133-2.909 1.738-5.721 4.904-8.593 26.543-28.583 38.656-71.855 33.435-118.95-6.472-58.402-61.23-107.742-119.567-107.742a96 96 0 0 0-3.564.059l-303.532.074h-3.8l.015 3.696.368 82.436-78.593.22-.964-115.45zM583.194 559.28l218.246-.361a32 32 0 0 1 2.327-.089c16.53 0 26.809 15.124 30.46 21.633 8.365 14.888 5.582 34.076.178 47.072-5.213 12.546-17.988 20.336-33.34 20.336l-217.945-.073.096-88.518zM414.205 952.212c-.133-95.571.036-278.52.066-306.801l78.791.42 1.193 326.262c-3.225-.626-6.523-1.252-9.888-1.893-23.186-4.344-49.355-9.277-70.162-17.966zm168.73 19.586c-.714-73.983-1.141-210.913-1.215-235.123l208.366.118c35.688 0 48.308 57.984 51.393 76.34-.765 45.51-39.266 79.196-71.465 99.46-61.076 36.814-125.7 57.283-187.035 59.198z"/></g></svg>