<svg xmlns="http://www.w3.org/2000/svg" version="1.0" viewBox="13.84 18.47 779.18 770.26"><path fill="#0076bc" d="M415.01 18.911c-5.16.372-14.362 1.209-25.563 2.278-2.556.232-6.507.743-8.83 1.161a330 330 0 0 1-7.948 1.162c-2.045.233-4.88.698-6.274.976-4.834.976-6.693 1.348-9.482 1.813-1.534.232-3.625.65-4.648.883-2.463.558-6.506 1.44-8.83 1.952-3.44.697-10.83 2.556-14.873 3.718a88 88 0 0 1-5.856 1.58c-4.694 1.162-28.304 8.785-30.86 9.993-.512.232-1.86.744-3.022 1.115-3.3 1.07-18.776 7.297-19.288 7.762-.232.233-.65.418-.976.418s-2.416.837-4.694 1.86c-2.23 1.068-4.508 2.091-5.02 2.323-.975.419-13.896 6.6-17.196 8.227-6.971 3.393-23.564 12.642-30.396 16.87-1.58 1.023-3.02 1.86-3.114 1.86-.557 0-23.982 15.802-29.745 20.032-14.408 10.596-27.421 21.193-38.948 31.743-6.088 5.531-21.147 20.636-26.817 26.771-12.363 13.478-26.817 31.744-36.113 45.548-1.487 2.184-3.02 4.461-3.485 5.112-2.278 3.207-9.389 14.78-12.177 19.753-.744 1.255-2.092 3.671-3.021 5.345-4.276 7.482-16.732 32.905-16.732 34.114 0 .14-.604 1.626-1.394 3.3-.744 1.673-1.395 3.253-1.395 3.485 0 .28-.418 1.348-.93 2.464-1.115 2.417-3.578 9.016-4.507 12.177-.372 1.255-.837 2.51-1.023 2.788-.186.233-.837 2.045-1.394 3.95-.604 1.906-1.488 4.741-1.999 6.275-.557 1.534-1.022 3.207-1.115 3.718-.047.512-.65 2.696-1.348 4.88-.65 2.185-1.58 5.624-2.092 7.67-.464 2.044-1.115 4.647-1.394 5.809s-.743 3.114-.976 4.415c-.232 1.255-.604 3.254-.883 4.415a228 228 0 0 1-1.162 5.345c-.372 1.766-.697 3.858-.697 4.602s-.186 2.091-.418 3.02c-.79 3.022-1.906 10.876-2.37 16.593-.233 3.114-.558 5.949-.698 6.367-.93 2.324-1.998 42.434-1.162 43.27.28.28.465 3.3.512 7.437 0 3.857.185 8.877.418 11.2.232 2.278.65 7.019.93 10.458s.79 8.273 1.161 10.69c.697 4.368 1.116 7.11 2.092 13.943.279 1.905.697 4.322.93 5.345.185 1.022.604 3.113.929 4.647 1.859 9.993 4.136 19.474 7.39 30.675 1.301 4.555 5.53 17.8 6.274 19.753.325.883 1.07 2.881 1.673 4.415.558 1.534 1.209 3.207 1.395 3.718.232.511.557 1.441.743 2.092s.79 2.184 1.395 3.439c.604 1.301 1.115 2.463 1.115 2.696 0 .186.744 1.952 1.627 3.904.883 1.905 1.626 3.578 1.626 3.671 0 .93 9.528 19.986 13.618 27.19.511.883 1.44 2.556 2.092 3.718 3.114 5.67 13.478 21.75 17.521 27.189 1.302 1.766 3.347 4.508 4.462 6.042 8.134 11.108 19.195 23.703 31.558 36.02 11.201 11.247 12.363 12.316 20.218 19.101 9.341 8.04 19.892 16.22 29.28 22.774 4.88 3.393 16.964 11.433 19.195 12.735 2.092 1.301 13.478 8.087 15.338 9.202.836.465 2.416 1.348 3.485 1.906 1.07.604 3.207 1.766 4.74 2.603 3.44 1.905 21.38 10.922 25.377 12.734a343 343 0 0 1 5.764 2.696c1.533.697 2.928 1.301 3.113 1.301s1.674.604 3.3 1.395c1.674.743 3.16 1.394 3.3 1.394s1.348.511 2.696 1.115c3.346 1.534 14.965 6.089 20.357 8.04 12.92 4.602 33.184 11.062 41.364 13.247 1.906.511 4.23 1.115 5.113 1.394.883.232 3.207.837 5.112 1.301 1.906.419 5.066 1.255 6.972 1.767s5.577 1.394 8.133 1.952 5.16 1.208 5.81 1.394c.65.232 1.998.511 3.02.65s2.697.465 3.72.698c3.02.65 8.597 1.766 12.083 2.324 1.813.325 4.508.883 6.042 1.208 1.534.372 4.555.883 6.74 1.162s5.623.79 7.668 1.162c3.253.604 8.83 1.348 21.844 3.02 5.856.745 18.452 1.953 28.816 2.79 2.835.232 8.04.65 11.62.976 9.016.836 69.39.836 78.778 0 3.718-.326 9.156-.744 12.084-.977 10.457-.836 22.448-1.998 28.118-2.742 1.813-.279 6.6-.883 10.69-1.394s7.855-1.069 8.366-1.162c1.534-.372 8.598-1.58 12.549-2.138 2.045-.279 4.461-.697 5.345-.93 1.673-.418 4.322-.929 9.76-1.905 1.673-.279 3.671-.697 4.415-.93a96 96 0 0 1 4.183-.883 794 794 0 0 0 8.366-1.859c3.067-.743 6.088-1.44 6.739-1.58 4.601-.93 25.47-6.878 32.999-9.435 1.905-.604 4.415-1.44 5.577-1.766 4.694-1.394 11.62-3.904 13.571-4.926.465-.233 1.07-.419 1.394-.419.651 0 14.78-5.623 19.103-7.622 1.487-.65 2.788-1.208 2.881-1.208.325 0 11.201-4.973 13.71-6.275 22.31-11.433 34.161-18.59 48.57-29.28 1.812-1.302 7.436-5.484 12.548-9.296 5.113-3.764 9.342-6.925 9.435-6.971.186-.186-1.209-20.543-1.813-26.26-.464-4.694-1.115-11.48-1.812-19.752-.465-5.345-1.07-11.201-1.86-17.894a289 289 0 0 1-.929-8.598c-.697-6.925-1.255-11.759-1.766-14.873-.279-1.534-.604-4.462-.79-6.507-.14-2.045-.558-5.716-.976-8.133a650 650 0 0 1-2.324-16.267c-.418-3.207-.93-6.972-1.115-8.366s-.698-4.973-1.116-7.901c-.697-5.159-1.069-7.53-2.37-14.873-.372-1.905-.79-4.74-.93-6.274-.186-1.534-.604-4.044-.93-5.577s-.836-4.276-1.115-6.042a315 315 0 0 0-1.255-7.437c-1.162-6.32-1.533-8.551-1.998-11.619-.233-1.534-.93-5.391-1.58-8.598-.605-3.207-1.395-7.297-1.72-9.063-.279-1.813-.837-4.415-1.208-5.856a107 107 0 0 1-1.116-5.577c-.232-1.627-.744-4.323-1.162-5.996-.372-1.673-1.115-5.113-1.627-7.669s-1.115-5.577-1.394-6.739-.93-3.997-1.394-6.274c-.465-2.324-1.07-5.02-1.348-6.042-.232-1.023-.744-3.44-1.162-5.345s-1.208-5.16-1.72-7.204c-.557-2.045-1.161-4.648-1.347-5.81-.233-1.162-.837-3.764-1.395-5.81s-1.208-4.647-1.44-5.809-.605-2.835-.837-3.718-.79-2.928-1.162-4.555c-.418-1.58-1.069-4.183-1.487-5.81-.419-1.58-1.023-4.136-1.395-5.67-.418-1.533-1.208-4.461-1.812-6.506-.558-2.045-1.394-5.066-1.813-6.74s-.976-3.671-1.208-4.415c-.233-.79-.744-2.742-1.162-4.415-.372-1.673-.883-3.533-1.116-4.183s-.743-2.324-1.115-3.718c-2.045-7.483-8.087-27.608-10.55-35.323-5.903-18.312-7.762-23.982-8.97-27.421-1.999-5.67-3.393-9.668-4.183-12.084-.372-1.162-1.534-4.509-2.603-7.437s-2.277-6.274-2.65-7.436-.975-2.742-1.347-3.486c-.325-.79-.744-1.905-.883-2.556-.186-.65-1.023-2.928-1.906-5.112-.836-2.185-2.23-5.717-3.02-7.902-.837-2.184-1.86-4.787-2.324-5.81s-1.162-2.788-1.534-3.95c-.744-2.138-3.44-8.923-4.648-11.712a84 84 0 0 1-1.72-4.322c-.604-1.534-1.254-2.975-1.487-3.254-.186-.232-.372-.697-.372-1.022s-.743-2.185-1.626-4.137c-.883-1.905-1.627-3.625-1.627-3.718 0-.14-.511-1.348-1.115-2.649a910 910 0 0 1-3.997-9.156c-1.58-3.718-3.58-8.226-4.462-10.039-.883-1.766-1.58-3.44-1.58-3.625s1.115-1.302 2.416-2.51c1.348-1.208 3.626-3.253 5.02-4.555s6.553-5.902 11.387-10.225c4.88-4.368 9.667-8.737 10.69-9.667 1.022-.976 4.322-3.95 7.343-6.646 2.974-2.696 5.438-5.113 5.438-5.345 0-.418-3.997-4.973-11.387-12.92a999 999 0 0 1-5.066-5.578c-8.46-9.528-22.588-23.564-33.278-33.045-15.616-13.804-35.74-28.304-53.588-38.576-1.58-.93-4.043-2.324-5.438-3.114-4.043-2.324-24.121-12.316-27.189-13.571-1.533-.604-3.485-1.487-4.322-1.952s-1.72-.837-1.952-.837-1.534-.464-2.882-1.069c-2.138-.93-6.971-2.835-13.617-5.298a86 86 0 0 0-2.789-1.069c-2.184-.883-18.312-5.856-23.239-7.204-6.181-1.673-18.218-4.508-22.773-5.345-1.534-.279-3.532-.697-4.416-.93-.883-.185-3.067-.604-4.88-.882-1.766-.28-6.506-1.023-10.457-1.627-3.95-.65-8.459-1.255-9.993-1.394s-6.227-.558-10.457-.93c-4.23-.418-10.69-.93-14.408-1.208-7.668-.558-31.418-.512-39.738.046m39.087 57.074c2.556.232 7.622.697 11.34.976 6.786.511 9.946.883 17.196 2.138 2.185.325 5.438.836 7.204 1.069 1.813.279 4.741.79 6.507 1.208 1.813.419 5.16 1.116 7.437 1.627 2.323.465 5.019 1.115 6.042 1.394s3.439.883 5.344 1.348 4.741 1.255 6.275 1.766 3.44 1.116 4.183 1.255c.79.186 2.742.79 4.415 1.394s3.858 1.348 4.88 1.627c1.023.325 2.742.976 3.811 1.487 1.116.465 2.324.883 2.696.883s1.069.186 1.534.419c1.812.976 5.252 2.37 5.81 2.37.882 0 2.695 1.394 2.416 1.86-.14.232-3.44 2.788-7.343 5.67-3.904 2.927-7.623 5.716-8.273 6.18-.697.512-3.3 2.464-5.81 4.37-7.53 5.67-49.823 37.274-60.606 45.268-5.484 4.09-10.736 7.994-11.62 8.691s-3.903 2.975-6.738 5.066c-2.789 2.092-5.438 4.09-5.81 4.37-.372.325-2.37 1.812-4.415 3.3s-4.927 3.67-6.414 4.786-2.975 2.138-3.3 2.278c-.511.186-5.995-3.58-11.433-7.809-.883-.697-8.087-6.088-16.035-11.99-7.9-5.903-15.43-11.527-16.732-12.55-1.254-.975-4.136-3.113-6.32-4.74-2.231-1.627-4.741-3.486-5.578-4.137-1.673-1.254-21.054-15.802-23.145-17.335-25.655-18.963-40.946-30.582-40.946-31.233 0-.372.371-.79.836-.93.418-.139 1.209-.464 1.72-.65.511-.233 1.348-.511 1.859-.604.511-.14 2.417-.744 4.183-1.395 6.367-2.184 18.684-6.042 21.38-6.646.79-.14 3.067-.744 5.112-1.348 2.045-.557 5.716-1.487 8.133-2.045s5.16-1.208 6.042-1.44c.883-.28 3.393-.79 5.577-1.162s5.857-1.07 8.134-1.58c2.324-.465 5.53-1.023 7.204-1.21 1.673-.138 4.601-.603 6.507-.929 5.066-.883 10.503-1.533 18.126-2.138 3.718-.278 8.319-.65 10.225-.836 4.973-.558 32.998-.604 38.39-.093m-234.384 72.179c-.558 1.115-1.301 2.928-1.673 4.09s-1.348 3.764-2.184 5.81c-1.441 3.717-1.58 4.09-2.929 7.203-.371.883-.836 2.138-1.022 2.789s-.744 1.998-1.208 3.02c-.419 1.023-1.999 4.88-3.486 8.6-1.441 3.717-2.789 6.924-3.021 7.203-.233.232-.419.697-.419 1.023 0 .557-1.394 3.95-2.37 5.81-.232.464-.418 1.022-.418 1.3 0 .233-.604 1.813-1.394 3.486-.744 1.673-1.395 3.3-1.395 3.625s-.186.79-.418 1.023c-.232.279-.976 1.906-1.673 3.718a166 166 0 0 1-2.37 5.67c-.605 1.302-1.116 2.557-1.116 2.696 0 .372-2.928 7.343-4.694 11.294-.744 1.627-1.348 3.114-1.348 3.3s-.511 1.348-1.162 2.556-1.162 2.37-1.162 2.603-.604 1.812-1.394 3.486c-.744 1.673-1.394 3.16-1.394 3.253s-.605 1.534-1.302 3.114c-.743 1.627-1.627 3.672-1.952 4.555s-.79 1.859-1.022 2.138c-.186.278-.651 1.3-1.023 2.323-.325.976-1.301 3.207-2.091 4.973-.79 1.72-1.441 3.254-1.441 3.347 0 .186-.465 1.208-3.532 7.994-.651 1.487-2.045 4.555-3.068 6.878-.976 2.278-2.324 5.252-2.974 6.6-.605 1.302-1.116 2.51-1.116 2.603 0 .14-.836 2.091-1.905 4.369a3404 3404 0 0 0-5.764 12.456c-.604 1.254-1.58 3.485-2.23 4.88-3.533 7.808-8.506 18.544-12.084 26.027-1.162 2.417-3.068 6.507-4.276 9.063-9.621 20.31-15.895 33.138-28.165 57.631-13.665 27.236-17.522 34.765-27.794 54.146-3.671 6.925-3.671 6.879-4.229 6.042-.232-.372-.465-1.255-.465-1.952 0-.65-.186-2.231-.465-3.486-.79-3.95-1.812-12.316-2.091-17.336a672 672 0 0 0-.976-12.316c-.837-9.714-.837-31.047 0-39.273.372-3.44.79-8.273.976-10.69.279-4.23 1.115-10.085 2.138-15.105.232-1.301.744-4.09 1.115-6.274s.837-4.788 1.116-5.81c.232-1.022.836-3.765 1.348-6.042.51-2.324 1.301-5.438 1.72-6.972s.975-3.625 1.208-4.647c.464-1.906 1.022-3.765 4.833-15.245 2.696-8.226 3.44-10.178 5.299-14.361.557-1.209.976-2.417.976-2.603 0-.232.79-2.184 1.812-4.322.976-2.138 2.231-4.973 2.835-6.228 2.138-4.88 8.785-17.894 12.317-24.122 4.74-8.412 12.13-19.985 17.615-27.607 2.045-2.882 4.229-5.903 4.833-6.74 4.369-6.088 17.336-21.75 22.542-27.281 19.52-20.729 35.554-35.137 55.632-49.87l8.32-6.135c2.184-1.58 2.788-.883 1.58 1.72m367.447-.233c.79 1.488 1.952 3.579 2.603 4.648.604 1.069 2.324 4.23 3.765 6.972 1.487 2.742 3.671 6.878 4.973 9.202 2.37 4.369 19.845 39.459 19.845 39.877 0 .14.976 2.231 2.138 4.694s1.999 4.788 1.86 5.16c-.233.604-8.831.697-67.718.697-53.727 0-67.391-.14-67.252-.605.186-.464 7.948-6.46 21.519-16.545 2.045-1.534 6.135-4.602 9.063-6.786 2.928-2.231 6.367-4.787 7.669-5.717 1.255-.93 8.69-6.507 16.499-12.316 15.337-11.48 14.64-10.969 20.496-15.291a414 414 0 0 0 5.345-3.95c2.37-1.813 12.177-9.11 14.687-10.97 1.301-.929 2.556-1.719 2.696-1.719.186 0 .976 1.209 1.812 2.65m-295.919 8.645c5.206 3.858 11.015 8.226 12.874 9.62 6.46 4.788 13.432 9.993 14.966 11.202.883.65 7.436 5.53 14.594 10.875 14.64 10.876 17.8 13.246 18.823 14.036.372.326 5.345 4.044 11.061 8.273 5.67 4.276 10.225 7.948 10.086 8.18-.186.233-23.61.419-60.234.419-57.492 0-59.91-.047-59.91-.837 0-.837 1.442-4.74 2.929-7.994 1.022-2.277 3.02-7.204 3.997-9.993.465-1.301 1.255-3.253 1.766-4.415s1.627-3.858 2.463-6.042c1.906-5.066 2.045-5.391 3.207-7.994.558-1.208.976-2.37.976-2.556 0-.326 2.138-5.996 3.3-8.738.511-1.162 1.255-3.114 2.278-5.81 5.53-14.593 5.856-15.337 6.646-15.337.372 0 4.926 3.207 10.178 7.111m344.627 91.978c.279.325 1.07 2.045 1.766 3.858.697 1.766 1.627 4.09 2.092 5.112s1.487 3.625 2.324 5.81 1.905 4.88 2.416 6.042 1.302 3.114 1.767 4.415c1.161 3.253 3.671 9.946 4.368 11.62.372.743 1.534 3.903 2.603 6.97s2.231 6.182 2.556 6.972c.326.744 1.023 2.65 1.58 4.183.512 1.534 2.324 6.74 4.044 11.62 1.673 4.833 3.44 10.085 3.904 11.619s1.162 3.718 1.58 4.833.744 2.092.744 2.185c0 .511-1.394-.047-5.02-2.045-2.23-1.209-5.298-2.696-6.832-3.346-1.533-.605-2.974-1.209-3.253-1.395-.232-.14-1.394-.558-2.556-.883s-2.51-.79-3.021-.976c-2.65-1.115-7.623-2.277-15.57-3.765-4.23-.79-18.544-1.812-25.47-1.812-5.344 0-7.157-.14-7.343-.604-.093-.326.883-2.696 2.185-5.206a2210 2210 0 0 1 6.925-13.478c2.51-4.88 5.67-11.015 7.064-13.71a5865 5865 0 0 0 18.637-35.928c1.395-2.742 1.767-3.02 2.51-2.091m-84.542 28.63c9.203 2.649 15.198 8.738 17.336 17.522 1.07 4.322 1.07 4.461.28 7.761-.466 1.86-1.256 4.276-1.767 5.345-1.44 2.975-5.438 6.74-8.83 8.366-2.696 1.301-3.998 1.766-8.087 2.789-.744.186-59.538.418-130.6.557l-129.207.28-.093 22.959c-.046 12.595-.232 23.052-.372 23.238-.372.326-51.59.605-53.076.28l-1.07-.233v-89.7l156.768.139c123.582.093 157.138.232 158.718.697m68.554 100.204c6.089 1.58 11.991 5.996 14.408 10.783 1.72 3.44 2.789 8.366 2.463 11.2-.697 5.764-2.928 11.574-6.228 15.942-.65.884-5.112 5.624-9.9 10.458-4.786 4.88-9.109 9.295-9.62 9.9-4.044 4.647-54.75 55.4-55.354 55.4-.465 0-2.185-1.208-3.858-2.696-21.844-19.009-31.372-27.142-37.786-32.394-2.788-2.278-6.367-5.206-7.9-6.507-2.417-2.091-21.287-17.29-25.795-20.775a3350 3350 0 0 1-14.92-11.712c-.418-.326-2.416-1.86-4.415-3.347-2.045-1.487-3.764-2.835-3.904-2.974s-1.487-1.162-3.02-2.324-2.882-2.184-3.022-2.324c-.325-.325-13.153-9.9-20.45-15.29-9.853-7.205-8.83-6.09-8.83-9.993 0-1.86.139-3.533.325-3.672.14-.186 44.153-.325 97.788-.325 82.17 0 97.927.093 100.018.65M178.442 512.497c0 110.104-.093 124.28-.698 124.372-.79.186-6.553-4.6-14.408-11.851-14.593-13.525-26.259-26.492-36.949-40.993-3.671-4.973-3.764-5.112-6.925-9.807-1.255-1.905-2.649-3.997-3.16-4.694-1.395-2.045-7.344-11.99-7.344-12.27 0-.14-.418-.836-.93-1.58-1.486-2.091-8.365-15.802-8.365-16.685 0-.744 2.277-5.531 3.253-6.786.465-.604 9.063-16.453 14.78-27.189.883-1.673 3.114-5.856 4.973-9.295s4.462-8.366 5.81-10.922 3.067-5.81 3.81-7.204 3.487-6.647 6.043-11.62 6.553-12.734 8.877-17.196c5.159-9.993 19.52-38.715 25.702-51.45 2.556-5.206 4.833-9.342 5.066-9.296.325.14.465 42.016.465 124.466m111.544-88.353c.233.372.465 268.219.233 274.075 0 .697-1.813.79-3.347.186-.604-.232-5.159-2.045-10.132-3.997-4.973-1.999-9.249-3.765-9.48-3.997-.28-.233-.745-.418-1.07-.418-.279 0-1.998-.651-3.718-1.488-9.807-4.508-14.873-6.971-20.31-9.713l-6.089-3.068-.14-125.999-.092-126.046h26.91c17.986 0 27.05.14 27.235.465m91.328 1.394c2.556 1.767 8.83 6.275 12.548 9.063.883.698 3.207 2.37 5.113 3.765s4.415 3.253 5.577 4.137 3.997 3.02 6.321 4.74c8.133 6.089 24.4 18.545 32.72 25.098 21.565 17.057 44.478 36.02 61.117 50.567 7.669 6.739 11.573 10.178 14.176 12.549l5.112 4.6c10.457 9.296 29.002 26.864 43.828 41.598 15.198 15.058 40.295 41.364 47.964 50.241a251 251 0 0 0 4.183 4.648c1.255 1.44 3.997 4.555 6.042 6.972 2.045 2.37 4.555 5.298 5.624 6.46 2.649 2.974 16.08 19.195 19.474 23.517 1.533 1.952 3.857 4.88 5.159 6.414 1.3 1.58 4.136 5.205 6.274 8.04 2.138 2.79 4.88 6.414 6.135 7.948 1.208 1.58 2.184 3.254 2.184 3.718 0 .651-.604 1.116-2.184 1.627-1.255.418-4.322 1.534-6.879 2.463s-6.32 2.185-8.366 2.835-4.136 1.348-4.647 1.534c-.511.232-1.766.65-2.789.93s-3.811 1.115-6.228 1.905c-2.37.744-4.694 1.395-5.112 1.395s-1.999.464-3.533.976-4.136 1.254-5.81 1.626-4.182.976-5.576 1.348c-1.395.418-4.555 1.162-6.972 1.673-2.417.558-5.252 1.162-6.274 1.441-1.023.232-3.95.837-6.507 1.301-2.556.512-6.089 1.209-7.901 1.627-1.766.418-5.53 1.069-8.32 1.44s-5.205.791-5.39.884c-.466.279-5.625 1.069-10.458 1.673-2.045.232-5.299.65-7.204.883-9.342 1.302-16.964 2.045-39.273 3.811-10.69.837-63.72.837-75.06 0-18.684-1.348-30.768-2.51-39.97-3.81-1.906-.233-5.16-.652-7.205-.884-4.787-.558-9.806-1.348-11.851-1.859-.883-.232-2.882-.558-4.416-.744-1.533-.139-4.88-.743-7.436-1.254s-6.74-1.348-9.295-1.813-5.485-1.07-6.507-1.301-3.95-.837-6.507-1.395c-3.021-.604-4.834-1.208-5.205-1.72-.512-.65-.605-28.722-.605-146.355 0-80.08.14-145.706.326-145.845.14-.186 7.157-.326 15.57-.326h15.29zm312.557-.139c.14.744.465 2.045.698 2.928s.743 2.789 1.115 4.183c.79 2.928 2.975 12.41 4.462 19.288.558 2.556 1.208 5.112 1.44 5.717s.419 1.487.419 1.998c0 .465.604 3.44 1.348 6.6.697 3.114 1.58 7.11 1.859 8.923.325 1.767.883 4.183 1.208 5.345.372 1.162.79 3.114.976 4.416.14 1.254.697 4.09 1.162 6.274.511 2.184 1.348 6.367 1.86 9.295.557 2.928 1.161 6.182 1.347 7.204.232 1.023.697 3.858 1.116 6.275.883 5.159 1.58 8.69 2.23 11.619.233 1.162.744 4.09 1.07 6.507.371 2.417.975 6.088 1.394 8.133s.93 5.392 1.162 7.437c.279 2.045.79 5.484 1.208 7.668.883 4.88 1.348 7.994 2.324 14.873.418 2.928.93 6.367 1.115 7.669.186 1.254.697 5.159 1.116 8.598s1.069 8.04 1.44 10.225c.605 3.718.977 6.785 1.395 11.619.093 1.162.511 4.508.93 7.436.79 5.345 1.254 9.25 2.09 17.894.233 2.556.652 6.507.884 8.83 1.906 17.569 2.417 24.448 1.813 25.191-.837 1.023-8.878 6.228-9.389 6.042-.418-.14-9.435-11.62-12.502-15.941-1.394-2.045-8.366-10.969-11.248-14.408a2837 2837 0 0 0-5.344-6.693c-3.765-4.787-19.52-23.61-24.122-28.862a1194 1194 0 0 1-7.901-9.017c-13.897-15.848-35.137-38.25-53.402-56.33-6.879-6.832-11.248-11.526-11.155-11.944.047-.372 12.177-12.782 26.864-27.561 35.555-35.741 48.987-49.73 54.657-57.074 3.858-5.02 8.877-13.107 11.48-18.451 1.58-3.347 2.463-3.905 2.881-1.906"/></svg>