<svg xmlns="http://www.w3.org/2000/svg" xml:space="preserve" viewBox="272.5 142.5 249 249"><path fill="#AA1124" d="M272.5 266.996c-.005-68.762 55.729-124.498 124.49-124.496s124.503 55.746 124.51 124.506c.008 68.758-55.729 124.496-124.488 124.494-68.764-.001-124.506-55.745-124.512-124.504"/><path fill="none" stroke="#FFF" stroke-miterlimit="3.864" stroke-width="4.476" d="M285.5 266.426c-.004-61.188 49.593-110.788 110.779-110.785 61.186.002 110.793 49.606 110.797 110.793.005 61.189-49.594 110.788-110.78 110.786-61.187-.003-110.791-49.606-110.796-110.794z"/><path fill="#FFF" d="m311.226 323.491 12.219.001-.002-32.195h31.572v-10.359l-31.572-.001-.004-18.992 35.971.003-.001-10.969-48.189-.002zm109.448-49.458c-1.47-15.639-13.883-24.679-29.621-24.78-20.916-.003-33.429 17.263-33.427 37.981.001 20.719 12.513 37.984 33.433 37.986 16.912 0 28.738-11.987 29.715-29.351h-11.927c-.977 10.561-6.939 18.991-17.79 18.99-14.952 0-21.212-13.712-21.212-27.626-.002-13.914 6.256-27.624 21.208-27.624 10.167 0 15.346 6.095 17.402 14.423zm2.903 49.463 11.63.001-.004-53.322h.296l31.771 53.323h12.902l-.005-72.518h-11.631l.001 53.423h-.192l-31.873-53.423-12.903-.001zm-52.406-132.502 16.813.002.005 50.174h12.218l-.006-71.094h-9.09c-1.661 8.529-10.555 11.882-19.938 11.78v9.138zm33.399 50.176h13.586v-13.711l-13.588-.001z"/></svg>