<svg xmlns="http://www.w3.org/2000/svg" viewBox="0.02 0.08 79.96 74.42"><defs><style>.a{fill:#fff}</style></defs><path d="M75.85 25.6c.12-1 .35-3.3.35-4.9a32 32 0 0 0-1.28-7.8 41.4 41.4 0 0 0-2.73-7.74 5.47 5.47 0 0 0-3.14-2.82c-1-.45-4.19-.59-10.61-.78h-1.07a68 68 0 0 0-9.06 1 52 52 0 0 1-6 .7h-.2a65.4 65.4 0 0 1-9.93-1.45C29 1.19 25.71.55 22.39.22c-1-.09-2-.14-3-.14A52.8 52.8 0 0 0 7.85 1.45 3.26 3.26 0 0 0 5.23.34a6.7 6.7 0 0 0-2.19.42 4.16 4.16 0 0 0-3 3.45A3.8 3.8 0 0 0 1.7 7.79a4.8 4.8 0 0 0 1.8.59c1.68 6.33 6.65 25.12 10.77 40.63-.18.25-.39.52-.61.81-1.22 1.57-2.74 3.53-2.31 6.63.5 4.15 3.67 5.77 6.7 6.82 1.94 7.29 2.27 8.46 2.33 8.66.57 1.7 1.47 2.56 2.68 2.56a2.3 2.3 0 0 0 .45 0h.15a1.91 1.91 0 0 0 1.48-.82c.47-.71.45-1.71-.09-3.66-.29-1.08-.51-1.83-.75-2.61s-.45-1.51-.75-2.61c1.9.46 2.21.84 2.17 2.19a6.35 6.35 0 0 0 1.25 4.49 2 2 0 0 0 1.47.67c1.14 0 2.5-.89 2.5-5.09 0-5.77-3.78-6.73-7.86-7.77l-1-.26-2-7.93c2.3-1.34 5.69-1.72 8.71-1.91h.63a26.5 26.5 0 0 1 5.93 1 32.8 32.8 0 0 0 8 1.25 16.3 16.3 0 0 0 6.5-1.41 30.5 30.5 0 0 1 10.86-2h.93a25.4 25.4 0 0 1 14.44 4.58 1.35 1.35 0 0 0 .8.27 1.2 1.2 0 0 0 .42-.07 1.28 1.28 0 0 0 .83-.92 83 83 0 0 0 1.83-14.51c.24-6.67-2.7-10.41-4.11-11.77" class="a"/><path fill="#0068b4" d="M76.85 51.6a26.56 26.56 0 0 0-16.21-4.85c-11.21.45-11.08 3.32-17.32 3.32-5.47-.03-10.22-2.47-14.65-2.24-3.72.23-7.63.75-10.1 2.63 1.07 4.18 1.94 7.59 2.43 9.53 4.94 1.38 8.65 1.52 8.65 7 0 5.83-2.78 4.26-2.65 0 .1-3.14-2.18-3.23-5.24-3.93 1 3.93 1.32 4.57 2.06 7.26.83 3 .14 2.77-.55 2.91s-1.25-.42-1.67-1.67c-.09-.29-1.06-3.88-2.49-9.25-3.24-1-6-2.42-6.51-6-.48-3.41 2-5.23 3-7.05-4.35-16.36-9.71-36.62-11.14-42a5.3 5.3 0 0 1-2.16-.54C.97 5.92.46 3.04 3.41 2.01c3.36-1.16 3.74 1 3.74 1s8-2.22 15.11-1.52 14.19 2.88 19.8 3c3 .09 11.22-1.8 15.8-1.66s9.69.27 10.67.69a4.22 4.22 0 0 1 2.49 2.21 40 40 0 0 1 2.63 7.48 31 31 0 0 1 1.25 7.49c0 2.07-.42 5.4-.42 5.4s4.43 3.46 4.16 11.22a83.5 83.5 0 0 1-1.79 14.28"/><path d="M14.85 28.02c-2.35-8.07-4.25-14-6.5-17.53l8.38 32.65a47 47 0 0 0-1.88-15.12m3.41 31.07-1.68-6.33c-1.45 2.34-1.73 4.84 1.68 6.33" class="a"/><path fill="none" d="M59.7 36.26c-.56.07-1 0-1 1.46 0 1.73.21 2.28.83 2.28s.9-.83 1-1.94-.28-1.87-.83-1.8m-7.48 3.6c-.28 1-.14 1.46.27 1.46s.77-.49.63-1.38c.07-1.46-.63-1.12-.9-.08m-21.2-4.78c0-.41-.07-.89-.41-.76s-.28.21-.28.69.14 1 .41.9.28-.41.28-.83m27.5-4.22a.84.84 0 0 0-.69.07 8 8 0 0 0-.14 1.52c.07 1.53.56 1.8.56 1.8s.6-.27.6-1.65 0-1.6-.33-1.74"/><path d="M52.22 39.86c-.28 1-.14 1.46.27 1.46s.77-.49.63-1.38c.07-1.46-.63-1.12-.9-.08m7.48-3.6c-.56.07-1 0-1 1.46 0 1.73.21 2.28.83 2.28s.9-.83 1-1.94-.28-1.87-.83-1.8m-1.18-5.4a.84.84 0 0 0-.69.07 8 8 0 0 0-.14 1.52c.07 1.53.56 1.8.56 1.8s.6-.27.6-1.65 0-1.6-.33-1.74m-27.5 4.22c0-.41-.07-.89-.41-.76s-.28.21-.28.69.14 1 .41.9.28-.41.28-.83" class="a"/><path d="M75.67 36.47c-.39-4.3-1.54-7.53-3.5-8.59a18.3 18.3 0 0 0-9.15-1.58c-3.63.26-12.78 2.88-17.6 2.75s-9.36-2.1-15.9-2.1a40.3 40.3 0 0 0-11.61 1.71s1.19 5.75 1.45 8.48 0 9.9 0 9.9 5.34-2.09 9.12-2 10.69 2.61 15.12 2.22 7.83-3.26 16.18-3.13a44.8 44.8 0 0 1 15.11 3 50 50 0 0 0 .78-10.66M27.76 43.4c-1.18.27-1.18-.63-1.45-1.53s-.76-4.36-1-5.47-.62-1.11-1.59-.9-.7 1.46-.41 2.56.61 3.33.89 4.71-.2 1.25-.83 1.39-.83.07-1.25-1-.89-3.81-1.45-6.37a45 45 0 0 1-.9-6.1c-.07-1.18.41-1.18 1.25-1.39s1 .15 1.1.77.14.9.42 2.42.48 1 1.25 1 .62-.76.62-1.45a10.7 10.7 0 0 0-.35-2.29c-.2-1 .4-1.07 1.25-1.18 1.11-.14.83.35 1.11 1.53s1.8 10 2.08 11.49.44 1.53-.74 1.81m5.55-.7c-.28.77-1 .56-1.8.63s-1.18-.21-1.74-1.12a12.6 12.6 0 0 1-1-4.36c-.13-1.45-.27-3.39-.27-4.64s.27-1.45.76-1.66a2.52 2.52 0 0 1 2.08.28c.62.48.69.83 1.1 2.36a8.3 8.3 0 0 1 .14 3.46c-.06 1-1 .69-1.38.83s-.63.55-.49 1.38.49 1.18 1 1.18.42-.69.56-1.39.35-.76.83-.48.55 1 .62 1.59a4.3 4.3 0 0 1-.41 1.94m3.88-5c-.56.14-.42-1.32-.42-1.87a.74.74 0 0 0-.9-.77c-.48.07-.55.84-.35 2.36a16.2 16.2 0 0 0 1.11 3.46 5.85 5.85 0 0 1 .48 2.71c-.06 1-.82.9-1.52.06a8 8 0 0 1-1-2.91c-.27-1.17-.48-2.7-.76-3.87s-.42-1.74-.62-2.57a1.28 1.28 0 0 1 .69-1.59c.49-.21.69.55 1.32.48s1-.75 1.45-.75.82.83.69 1.45a2.62 2.62 0 0 0 .49 2.44c.75 1.27-.11 1.18-.66 1.32zm5.26 8.31c-.9 0-1.11-.41-1.8-1.66s-.63-1.81-1-4.09-.55-4-.55-4-1.25-.28-1.25-1.31c0-.56 1.11-1.11 1.11-1.11s-.35-2.43-.42-3 .21-1.25.56-1.32.48.35.9 1.25a14.3 14.3 0 0 1 .56 2.36c.2.69 1.79.69 1.93 1.73s-1.39 1.73-1.39 1.73a31 31 0 0 0 .35 3.11 10.3 10.3 0 0 0 .9 2.91c.56 1.46 1.45 2.5 1.52 2.92s-.52.43-1.42.43zm6.4-1.41c-1 .35-1.38-1.31-1.66-2.42s-.27-3.12-.41-4.23-.63-1.73-1-1.59-.56 1-.14 2.29a18 18 0 0 1 .9 4.22c.13 1.11.21 2.08-.83 2.49s-1.11-.89-1.26-1.79-.54-3.68-.89-6.1-1-4.36-1.25-5.61.14-1.87.83-1.94 1 .41 1.18 1.39.55 3.11.55 3.11.49 0 1.6-.07 1.11.21 1.46 1.46.75 3.6 1.31 6 .61 2.42-.39 2.79m6.65-1.45c-.28.35-.55.07-1.24 0s-.91.28-2.29.62-1.87-1.25-2.08-2.56a3.53 3.53 0 0 1 .76-3.12 7.2 7.2 0 0 0 1.66-1.94c.14-.48-.34-.9-.83-1s-.55.21-.69.83-.07 1.05-.9 1.18c-.55.09-.55-.83-.55-1.59a4.2 4.2 0 0 1 .69-2.22c.49-.69 1-.76 2.35-.69s1.47.94 1.47 1.59a28 28 0 0 0 .76 3.4 41 41 0 0 1 1 4.36c.14.76.24.76-.07 1.11zm4-.28a6.6 6.6 0 0 1-2.22-.14s-.55-4.91-1-7.69a11.8 11.8 0 0 0-1.38-4.29v-1.62s1.11-.14 2-.35 1.93-.67 2.71-.28 1.24 1.53 1.24 2.91a10.7 10.7 0 0 1-.42 3.12s2.15-.07 2.5 3.32c.46 4.3-2.19 4.85-3.37 4.99zm6.23.28c-1.59-.07-2-.84-2.35-2.36-.27-1.18.21-1.8.62-1.94s1 0 1.25 1.12c.14.62.14.85.9 1 .48.07.77-.69.14-1.94a25.5 25.5 0 0 0-3-3.88 5.75 5.75 0 0 1-1.59-3.94c-.19-2 1.25-2.71 2.77-2.71a2.44 2.44 0 0 1 2.21 2.43c0 .83 0 1.45-.62 1.59s-.48-.34-.83-.76-.2-1.16-.75-1.16-.9.21-.76.91c.19.94.76 1.93 2.22 3.66s2.69 3 2.83 5-.92 3.04-2.98 2.95zm6.93 1c-1.25-.06-1.87-1.55-2.81-3.25a17.14 17.14 0 0 1-1.8-8c-.07-3.67 1.39-4.64 2.56-4.7s2 1 2.43 2.42.48 2.22-.41 2.43c-.61.14-.7-.63-.91-1.11s-.2-.69-.69-.69-1 .83-.91 2.91a11.3 11.3 0 0 0 1.26 5c.94 1.81 1.52 1 1.73.28.16-.57.14-1.46.83-1.25s.9 1 .9 2.7-.8 3.34-2.12 3.27z" class="a"/><path fill="#181716" d="M7.19 2.94s8-2.22 15.11-1.52 14.19 2.88 19.8 3c3 .09 11.22-1.8 15.8-1.66s9.69.27 10.67.69a4.22 4.22 0 0 1 2.49 2.21 40 40 0 0 1 2.63 7.48 31 31 0 0 1 1.25 7.49c0 2.07-.42 5.4-.42 5.4s4.43 3.46 4.16 11.22a83.5 83.5 0 0 1-1.83 14.35 26.56 26.56 0 0 0-16.21-4.85c-11.21.45-11.08 3.32-17.32 3.32-5.47-.03-10.22-2.47-14.65-2.24-3.72.23-7.63.75-10.1 2.63 1.07 4.18 1.94 7.59 2.43 9.53 4.94 1.38 8.65 1.52 8.65 7 0 5.83-2.78 4.26-2.65 0 .1-3.14-2.18-3.23-5.24-3.93 1 3.93 1.32 4.57 2.06 7.26.83 3 .14 2.77-.55 2.91s-1.25-.42-1.67-1.67c-.09-.29-1.06-3.88-2.49-9.25-3.24-1-6-2.42-6.51-6-.48-3.41 2-5.23 3-7.05-4.35-16.36-9.71-36.62-11.14-42a5.3 5.3 0 0 1-2.16-.54C.97 5.92.46 3.04 3.41 2.01c3.36-1.16 3.74 1 3.74 1m9.39 49.82c-1.41 2.27-1.69 4.77 1.72 6.26zm.11-9.62a47 47 0 0 0-1.8-15.19c-2.35-8.07-4.25-14-6.5-17.53l8.38 32.65m1.22-14.48s1.19 5.75 1.45 8.48 0 9.9 0 9.9 5.34-2.09 9.12-2 10.69 2.61 15.12 2.22 7.83-3.26 16.18-3.13a44.8 44.8 0 0 1 15.11 3 50 50 0 0 0 .78-10.7c-.39-4.3-1.54-7.53-3.5-8.59a18.3 18.3 0 0 0-9.15-1.58c-3.63.26-12.78 2.88-17.6 2.75s-9.36-2.1-15.9-2.1a40.3 40.3 0 0 0-11.61 1.71m.26-2.88s8.03-2.14 13.64-1.51 10.08 2.37 14.24 2.07 11.2-2.46 17.47-2.7 8.61.91 8.61.91a41.6 41.6 0 0 0-1.06-11.1 23.5 23.5 0 0 0-3.26-7.43 37.6 37.6 0 0 0-12.12-.38c-7.31.8-8.08 1.32-13.69 1.45s-16.19-3.3-22.55-2.91A55 55 0 0 0 8.91 5.71a31.7 31.7 0 0 1 5.48 8.59c2 4.84 3.78 11.48 3.78 11.48"/></svg>