<svg xmlns="http://www.w3.org/2000/svg" viewBox="0 0 548.61 548.61"><defs><clipPath id="a"><path d="M0 0h548.602v548.61H0Zm0 0"/></clipPath></defs><g clip-path="url(#a)"><path d="M0 274.309 274.3.004l274.305 274.305-274.304 274.3z" style="stroke:none;fill-rule:nonzero;fill:#ffc632;fill-opacity:1"/></g><path d="M67.664 232.668c2.203-2.203 4.465-4.469 6.785-6.781l.23-.02h399.216l.234-.004q3.481 3.479 6.793 6.79l-.336-.005H68.082zM74.469 322.75c-2.313-2.316-4.578-4.578-6.778-6.781l.297-.004h412.657l.253.015-6.796 6.797-.297-.03H74.8z" style="stroke:none;fill-rule:nonzero;fill:#fff;fill-opacity:1"/><path d="M74.645 225.688C142.879 157.457 257.754 42.577 274.3 26.03c16.543 16.547 131.441 131.442 199.668 199.672l.16.16-.234.004H74.68l-.23.02zM74.668 322.95c68.234 68.23 183.09 183.085 199.633 199.628 16.539-16.539 131.387-131.383 199.62-199.621l.18-.18-.296-.03H74.8l-.332.003zM67.691 315.969l.297-.004h412.657l.253.015.18-.18c20.762-20.76 36.188-36.187 41.496-41.491-5.312-5.313-20.754-20.754-41.527-41.532l-.125-.125-.336-.004H68.082l-.418.02-.223.227a278091 278091 0 0 0-41.41 41.414c5.305 5.304 20.723 20.722 41.477 41.472z" style="stroke:none;fill-rule:nonzero;fill:#231f20;fill-opacity:1"/><path d="M69.684 311.11c-.11-.106-35.258-35.258-36.805-36.801l36.629-36.63.187-.183h408.86l.34-.02c20.94 20.946 35.253 35.258 36.828 36.833-1.575 1.574-15.88 15.878-36.817 36.816l-.168-.004H69.977z" style="stroke:none;fill-rule:nonzero;fill:#fff;fill-opacity:1"/><path d="M306.984 296.5c.188.363.442 1.023.485 1.727.12 1.937-.817 1.847-5.66 1.87-5.36-.023-6.575-.113-6.465-1.84.066-.917.289-1.362.62-1.886.65-1.02.938-2.293.962-3.805v-14.593c-14.95 0-22.723.07-28.996-5.168-5.266-4.399-6.899-8.696-6.957-18.993-.004-1.332-.668-2.175-1.051-2.644-.375-.453-.606-1.023-.668-2.016-.149-1.632 1.898-1.695 6.86-1.695 4.847 0 6.062.234 6.234 1.875.062.61-.203 1.25-.426 1.613-.54.871-1.09 1.172-1.086 3.051.012 8.129 1.648 10.992 4.2 13.16 3.421 2.91 7.585 4.36 21.89 4.36v-17.36c.015-1.453-.336-2.015-.887-2.91-.305-.492-.625-.969-.695-1.93-.035-1.699 1.812-1.777 6.25-1.859 4.683 0 5.847.063 5.87 1.93.009.761-.359 1.097-.6 1.765-.555 1.524-.88 2.215-.895 3.426v37.926c-.016 2.058.324 2.664 1.015 3.996M330.656 292.18v-37.778c0-2.261-.441-2.464-1.164-3.37a3.54 3.54 0 0 1-.742-1.626c-.312-1.664.496-1.906 2.836-1.949h16.43c16.304 0 23.855.688 27.285 7.91 3.789 7.98-.645 14.371-6.942 16.309 0 0 11.72 2.57 13.079 11.304 1.453 9.364-6.622 16.954-30.676 17.114h-18.73c-2.708 0-3.391-.567-3.473-1.453-.16-.93.363-1.602.78-2.07.856-1.227 1.317-2.208 1.317-4.391m20.266-16.79c-7.106.16-10.578 1.07-10.578 1.07v16.692s3.633.97 12.191.645 16.863-3.879 16.63-9.363c-.321-7.59-11.786-9.188-18.243-9.043m.969-21.153c-7.426 0-11.547.809-11.547.809v13.344s2.504 1.187 8.96 1.187c6.458 0 16.634-1.45 16.634-7.75 0-6.133-6.622-7.59-14.047-7.59M431.277 273.871c-6.203 1.04-14.761.617-17.488.45l.207-.344c5.32-8.606 9.442-15.391 9.442-15.391 3.183 6.144 5.57 10.785 7.527 14.586zm-32.39 24.062c3.617-5.454 7.832-12.25 11.793-18.618l.195-.39c2.39.449 10.777 1.691 22.953-.219l.266.527a826 826 0 0 0 9.277 17.489c1.297 2.382 2.086 3.394 3.719 3.37h9.144c2.97.024 2.907-1.534 2.36-2.698-.418-.883-1.078-1.41-1.938-1.739-2.058-.781-2.906-2.242-3.976-3.933-2.223-3.508-4.61-7.457-7.035-11.528-9.993-16.757-20.454-35.644-20.454-35.644s-9.601 18.254-25.75 40.234c-2.086 2.84-4.136 5.86-6.582 8.672-1.171 1.348-1.98 2.258-3.238 2.832-.793.363-1.504.828-1.965 1.715-.445.86-.629 2.113 1.914 2.09h6.36c1.27.023 2.297-1.172 2.957-2.16M228.07 273.871c-6.203 1.04-14.761.617-17.484.45l.203-.344a2544 2544 0 0 0 9.441-15.391c3.184 6.144 5.57 10.785 7.528 14.586zm-32.39 24.062c3.617-5.454 7.832-12.25 11.793-18.618l.195-.39c2.39.449 10.773 1.691 22.957-.219l.262.527a844 844 0 0 0 9.277 17.489c1.297 2.382 2.086 3.394 3.723 3.37h9.14c2.97.024 2.907-1.534 2.36-2.698-.418-.883-1.078-1.41-1.938-1.739-2.058-.781-2.906-2.242-3.976-3.933-2.223-3.508-4.61-7.457-7.036-11.528-9.992-16.757-20.453-35.644-20.453-35.644s-9.597 18.254-25.75 40.234c-2.086 2.84-4.136 5.86-6.582 8.672-1.172 1.348-1.976 2.258-3.238 2.832-.793.363-1.504.828-1.965 1.715-.445.86-.629 2.113 1.914 2.09h6.36c1.27.023 2.297-1.172 2.957-2.16M92.066 300.094h5.774c1.816-.04 2.34-1.172 2.496-2.504.215-1.832.586-4.559 1.02-7.828.968-7.371 2.343-17.496 3.667-26.32 0 0 9.11 12.253 18.817 26.3 1.754 2.543 3.508 5.164 5.277 7.746 1.094 1.594 1.738 2.606 4 2.606 1.492 0 1.774-.364 2.442-1.551.691-1.242 1.843-3.219 3.558-5.879 3.957-6.144 10.906-15.93 22.094-28.738 0 0 1.672 10.25 3.348 25.937.265 2.5.496 5.14.793 7.895.18 1.61.62 2.336 2.64 2.336h7.348c1.937 0 2.5-.887 2.144-2.465-.234-.969-.578-1.637-1.105-2.09-1.777-1.527-2.215-2.148-2.555-4.691-.383-2.875-.82-6.024-1.273-9.27-2.285-16.402-5.043-35.41-5.043-35.41s-21.313 25.508-32.778 40.2c0 0-22.44-29.708-31.324-41.009 0 0-5.039 23.274-8.886 41.41-.54 2.528-1.028 4.961-1.524 7.208-.324 1.476-.969 1.52-1.82 2.367-.414.414-.696.98-.918 1.719-.293 1.062-.25 2.03 1.808 2.03" style="stroke:none;fill-rule:nonzero;fill:#231f20;fill-opacity:1"/><path d="M181.176 126.008c-19.89 19.894-40.836 40.836-60.516 60.52l-.312.28v33.782l.047.437h61.515l.02-.437v-95.36zM304.633 63.219c-17.367-17.367-28.926-28.93-30.332-30.336L243.992 63.19l-.48.461V220.59l-.028.437h61.575l.03-.617V63.715zM181.434 422.86a445287 445287 0 0 1-60.75-60.75l-.336-.325v-33.723l-.016-.472h61.578l.02.531v95.242zM427.879 186.465c-19.8-19.805-40.875-40.88-60.871-60.871l-.336-.242v95.054l-.035.621h61.636l-.015-.554v-33.664zM366.863 423.164c20.102-20.101 41.309-41.305 61.211-61.21l.184-.169V327.7l.015-.11h-61.609l.008.173v95.629zM304.71 485.316c-17.41 17.414-29.003 29.004-30.41 30.414l-30.26-30.261-.528-.528V328.246l.004-.656h61.574V484.94z" style="stroke:none;fill-rule:nonzero;fill:#bc2126;fill-opacity:1"/><path d="M339.395 172.719c-2.551 3.265-4.926 5.004-9.082 5.117h-4.965V156.09h-7.43v51.988h7.43v-23.144h4.964c4.399-.188 8.086 2.648 10.454 6.593 1.453 2.422 2.691 6.297 2.785 10.414.12 5.329 4.36 8.598 10.695 8.559v-7.168c-2.34-.016-3.793-1.148-4.035-4.375-.316-4.23-1.371-8.883-3.066-11.305-3.856-5.5-7.426-6.941-7.426-6.941 5.933-2.543 8.535-8.703 9.644-14.492.77-3.996 3.192-4.156 4.883-4.239v-5.89c-4.762-.043-8.672-.094-9.848 4.68-1.293 5.25-1.859 7.914-5.003 11.949M208.27 201.465c-12.668-1.477-22.364-9.75-22.364-19.735 0-9.996 9.723-18.277 22.41-19.738l.313-.05v-5.852h7.426v5.851l.336.051c12.68 1.477 22.386 9.75 22.386 19.738 0 9.989-9.703 18.262-22.382 19.735l-.34.074v9.121h-7.426v-9.12zm.004-33.477c-7.851 1.461-13.695 7.059-13.695 13.742 0 6.688 5.852 12.29 13.707 13.747l.344.05v-27.57zm7.782-.074v27.649l.285-.075c7.883-1.441 13.762-7.05 13.762-13.758 0-6.687-5.848-12.285-13.704-13.746zM239.426 401.438s7.476-2.184 14.726-9.317c7.243-7.133 8.743-13.922 8.743-13.922-5.868 5.41-14.153 4.488-19.18 1.024-4.11-2.832-6.477-7.707-6.477-12.93 0-9.18 7.364-17.313 17.43-16.621 10.2.7 17.43 9.086 17.312 21.281-.117 12.078-5.21 19.86-14.378 27.836-9.778 8.516-18.164 10.473-18.164 10.473zm19.875-42.649c-3.985-3.125-9.68-2.523-12.723 1.352-3.039 3.87-2.273 9.546 1.711 12.671 3.98 3.133 9.68 2.528 12.719-1.343 3.039-3.875 2.273-9.551-1.707-12.68M299.84 401.438s7.476-2.184 14.723-9.317c7.25-7.133 8.746-13.922 8.746-13.922-5.868 5.41-14.153 4.488-19.18 1.024-4.11-2.832-6.477-7.707-6.477-12.93 0-9.18 7.364-17.313 17.426-16.621 10.203.7 17.434 9.086 17.317 21.281-.114 12.078-5.211 19.86-14.38 27.836-9.777 8.516-18.167 10.473-18.167 10.473zm19.875-42.649c-3.985-3.125-9.68-2.523-12.723 1.352-3.039 3.87-2.273 9.546 1.707 12.671 3.985 3.133 9.684 2.528 12.723-1.343 3.039-3.875 2.273-9.551-1.707-12.68M285.035 349.121h5.402v38.652h-7.476v-27.609h-7.246v-4.273s4.945-.676 9.32-6.77M224.621 349.121h5.402v38.652h-7.476v-27.609H215.3v-4.273s4.949-.676 9.32-6.77" style="stroke:none;fill-rule:nonzero;fill:#fff;fill-opacity:1"/></svg>