<svg xmlns="http://www.w3.org/2000/svg" viewBox="0 0 290.63 345"><g transform="translate(-163.255 -261.786)"><path d="M308.869 599.648c-1.309-3.688-9.636-10.112-22.485-11.54-28.313-3.212-49.727-10.707-73.64-27.362-20.104-14.038-33.548-33.905-45.92-57.341 27.838-64.837 29.622-130.624 0-197.84l41.4-40.448c33.548 13.324 67.097 20.819 100.645 19.867 33.548 1.07 67.096-6.424 100.764-19.748l41.4 40.448c-29.623 67.216-27.838 133.003 0 197.84-12.373 23.317-25.935 43.303-45.921 57.341-23.912 16.774-45.445 24.269-73.64 27.362-12.967 1.309-21.295 7.733-22.603 11.42m-32.002-17.607-2.38-.357-2.379-.476-2.379-.476-2.38-.476-2.26-.475-2.26-.595-2.26-.595-2.26-.595-2.26-.714-2.142-.714-2.142-.713-2.141-.714-2.141-.833-2.142-.833-2.141-.832-2.142-.952-2.14-.952-2.142-1.07-2.142-1.071-2.141-1.07-2.141-1.19-2.142-1.19-2.141-1.19-2.142-1.308-2.14-1.31-2.142-1.427-2.142-1.427-2.141-1.547-1.785-1.308-1.784-1.31-1.666-1.308-1.665-1.427-1.666-1.428-1.665-1.427-1.547-1.428-1.546-1.547-1.547-1.546-1.546-1.547-1.428-1.546-1.427-1.666-1.428-1.665-1.428-1.666-1.427-1.665-1.309-1.785-1.308-1.784-1.31-1.785-1.308-1.784-1.308-1.904-1.309-1.903-1.309-1.904-1.19-1.903-1.189-1.903-1.19-2.023-1.19-2.022-1.189-2.023-1.19-2.022-1.19-2.023-1.189-2.14-1.19-2.142-.118-.12 1.665-4.044 2.38-6.186 2.26-6.187 2.141-6.186 1.904-6.186 1.784-6.186 1.666-6.186 1.427-6.187 1.309-6.305 1.19-6.305.951-6.305.833-6.305.595-6.305.476-6.306.356-6.305.12-6.305v-6.305l-.238-6.305-.357-6.305-.595-6.306-.714-6.305-.952-6.305-1.07-6.305-1.309-6.305-1.428-6.424-1.665-6.425-1.785-6.424-2.022-6.424-2.141-6.424-2.38-6.424-2.498-6.424-1.428-3.331 36.76-36.047.239.12 3.212 1.189 3.212 1.19 3.212 1.189 3.212 1.07 3.212 1.071 3.212 1.071 3.212.952 3.331 1.07 3.212.952 3.212.833 3.212.833 3.212.833 3.213.713 3.212.714 3.212.714 3.212.595 3.212.595 3.212.594 3.212.476 3.212.476 3.212.357 3.212.357 3.212.357 3.212.238 3.212.238 3.212.119 3.213.119 3.212.119h6.424l3.093-.12 3.093.12h6.424l3.212-.12 3.212-.118 3.212-.12 3.212-.237 3.212-.238 3.212-.357 3.213-.357 3.212-.357 3.212-.476 3.212-.476 3.212-.594 3.212-.595 3.212-.595 3.212-.714 3.212-.714 3.212-.713 3.212-.833 3.212-.833 3.212-.833 3.212-.951 3.213-.952 3.212-.952 3.212-1.07 3.212-1.071 3.212-1.071 3.212-1.19 3.212-1.19 3.212-1.189.238-.119 36.76 36.047-1.427 3.33-2.499 6.425-2.379 6.424-2.141 6.424-2.023 6.424-1.784 6.424-1.666 6.424-1.427 6.425-1.309 6.305-1.07 6.305-.952 6.305-.714 6.305-.595 6.306-.357 6.305-.238 6.305v6.305l.12 6.305.356 6.305.476 6.306.595 6.305.833 6.305.951 6.305 1.19 6.305 1.309 6.305 1.427 6.187 1.666 6.186 1.784 6.186 1.904 6.186 2.141 6.186 2.26 6.187 2.38 6.186 1.665 4.045-.119.119-1.19 2.141-1.19 2.141-1.189 2.023-1.19 2.022-1.19 2.023-1.189 2.022-1.19 2.022-1.19 1.904-1.189 1.903-1.308 1.904-1.309 1.903-1.309 1.904-1.308 1.784-1.309 1.785-1.308 1.784-1.31 1.785-1.427 1.665-1.427 1.666-1.428 1.665-1.427 1.666-1.428 1.546-1.547 1.547-1.546 1.546-1.547 1.547-1.546 1.428-1.666 1.427-1.665 1.428-1.666 1.427-1.665 1.309-1.785 1.309-1.784 1.308-2.142 1.547-2.141 1.427-2.141 1.428-2.142 1.308-2.141 1.31-2.142 1.189-2.14 1.19-2.142 1.19-2.142 1.07-2.141 1.07-2.141 1.071-2.142.952-2.141.952-2.142.832-2.14.833-2.142.833-2.023.595-2.141.713-2.141.714-2.26.714-2.261.595-2.26.595-2.26.595-2.261.475-2.38.476-2.379.476-2.38.476-2.378.357-2.499.357-2.498.357-2.498.357-2.618.356-2.498.357-2.498.476-2.38.595-2.26.714-2.141.714-2.023.832-1.903.952-1.784.952-1.547.952-1.428 1.07-1.308 1.071-.12.119-.118-.119-1.309-1.07-1.427-1.071-1.666-.952-1.784-.952-1.904-.952-2.022-.832-2.142-.714-2.26-.714-2.38-.595-2.498-.476-2.498-.357-2.617-.356-2.498-.357-2.499-.357z" class="st0" style="fill:#fff;stroke-width:1.18966"/><path d="m190.855 436.903-.952 6.305-1.19 6.305-1.308 6.305-1.428 6.187-1.665 6.186-1.785 6.186-1.903 6.186-2.141 6.187-2.26 6.186-.12.238L250.1 575.14l1.665.595 2.142.714 2.141.713 2.26.714 2.26.595 2.261.595 2.26.595 2.26.475 2.38.476 2.38.476 2.379.476 2.38.357 2.497.357 2.499.357 2.498.357 2.617.357 2.498.356 2.499.476 2.379.595 2.26.714 2.142.714 2.022.832 1.904.952 1.784.952 1.666.952 1.427 1.07 1.309 1.071.119.119.119-.119 1.308-1.07 1.428-1.071 1.665-.952 1.785-.952 1.903-.952 2.023-.832 2.141-.714 2.26-.714 2.38-.595 2.022-.357-136.691-150.372zm172.5-152.395-3.212.714-3.212.595-3.212.595-3.212.594-3.212.476-3.212.476-3.212.357-3.213.357-3.212.357-3.212.238-3.212.238-3.212.119-3.212.119-3.212.119h-6.424l-3.093-.12-3.093.12h-4.283l124.319 137.643-.357-3.093-.476-6.306-.357-6.305-.119-6.305v-6.305l.238-6.305.357-6.305.595-6.306.714-6.305.952-6.305 1.07-6.305 1.309-6.305.119-.714-64.36-70.07zm-190.82 22.247 1.427 3.33 2.498 6.425 2.38 6.424 1.07 3.212 212.948 236.86.714-.475 2.142-1.31 2.141-1.427 2.141-1.427 2.142-1.547 1.784-1.308 1.785-1.309 1.665-1.309 1.666-1.427 1.665-1.428 1.666-1.427 1.546-1.428 1.547-1.547 1.546-1.546 1.547-1.547 1.428-1.546 1.427-1.666 1.428-1.665 1.427-1.666 1.428-1.665 1.309-1.785 1.308-1.784 1.309-1.785 1.308-1.784.357-.476-227.343-250.78z" class="st1" style="fill:#00aeef;stroke-width:1.18966"/><path d="m105.7 270.2-1.9-.6-1.8-.6-1.8-.7-1.8-.7-1.8-.7-1.8-.7-1.8-.8-1.7-.8-1.8-.9-1.8-.9-1.8-.9-1.7-1-1.8-1-1.8-1-1.8-1.1-1.8-1.1-1.8-1.2-1.8-1.2-1.9-1.3-1.5-1.1-1.4-1.1-1.5-1.1-1.4-1.1-1.4-1.2-1.3-1.2-1.3-1.3-1.3-1.2-1.3-1.3-1.3-1.3-1.2-1.3-1.2-1.4-1.2-1.4-1.2-1.4-1.2-1.4-1.1-1.5-1.2-1.5-1.1-1.5-1.1-1.5-1-1.6-1.1-1.6-1.1-1.6-1-1.6-1-1.6-1.1-1.7-1-1.7-1-1.7-1-1.7-.9-1.8-1-1.7-1-1.8-.1-.2 1.4-3.3 2.1-5.2 1.9-5.2 1.8-5.2 1.6-5.3 1.5-5.2 1.4-5.2 1.2-5.3 1.1-5.2 1-5.3.8-5.3.7-5.2.5-5.3.4-5.3.2-5.3.2-5.3-.1-5.3-.2-5.3-.3-5.4-.5-5.3-.6-5.3-.8-5.4-.9-5.3-1.1-5.3-1.2-5.4-1.4-5.4-1.5-5.3-1.7-5.4-1.8-5.3-2-5.4-2.1-5.4-1.2-2.8 30.9-30.2h.2l2.7 1.1 2.7 1 2.7.9 2.7 1 2.6.9 2.7.8 2.7.9 2.7.8 2.7.7 2.7.8 2.7.7 2.7.7 2.7.6 2.7.6 2.7.6 2.7.5 2.7.5 2.7.4 2.7.5 2.7.3 2.7.4 2.7.3 2.7.2 2.7.3 2.7.2 2.7.1 2.7.1 2.7.1h5.4l2.6-.1 2.6.1h5.4l2.7-.1 2.7-.1 2.7-.1 2.7-.2 2.7-.3 2.7-.2 2.7-.3 2.7-.4 2.7-.3 2.7-.5 2.7-.4 2.7-.5 2.7-.5 2.7-.6 2.7-.6 2.7-.6 2.7-.7 2.7-.7 2.7-.8 2.7-.7 2.7-.8 2.7-.9 2.7-.8 2.6-.9 2.7-1 2.7-.9 2.7-1 2.7-1.1h.2l30.9 30.2-1.2 2.8-2.1 5.4-2 5.4-1.8 5.3-1.7 5.4-1.5 5.3-1.4 5.4-1.2 5.4-1.1 5.3-.9 5.3-.8 5.4-.6 5.3-.5 5.3-.3 5.4-.2 5.3v5.3l.1 5.3.2 5.3.4 5.3.5 5.3.7 5.2.8 5.3 1 5.3 1.1 5.2 1.2 5.3 1.4 5.2 1.5 5.2 1.6 5.3 1.8 5.2 1.9 5.2 2.1 5.2 1.4 3.3-.1.2-1 1.8-.9 1.7-1 1.8-1 1.7-1 1.7-1 1.7-1.1 1.7-1 1.6-1 1.6-1.1 1.6-1.1 1.6-1 1.6-1.1 1.5-1.1 1.5-1.2 1.5-1.1 1.5-1.2 1.4-1.2 1.4-1.2 1.4-1.2 1.4-1.2 1.3-1.3 1.3-1.3 1.3-1.3 1.2-1.3 1.3-1.3 1.2-1.4 1.2-1.4 1.1-1.5 1.1-1.4 1.1-1.5 1.1-1.9 1.3-1.8 1.2-1.8 1.2-1.8 1.1-1.8 1.1-1.8 1-1.8 1-1.7 1-1.8.9-1.8.9-1.8.9-1.7.8-1.8.8-1.8.7-1.8.7-1.8.7-1.8.7-1.8.6-1.9.6-1.8.5-1.9.5-1.9.5-1.9.5-1.9.4-2 .5-2 .4-2 .3-2 .4-2.1.3-2.1.3-2.1.3-2.2.2-2.2.3-2.1.4-1.9.5-1.9.6-1.8.6-1.7.7-1.6.8-1.4.8-1.4.8-1.2.9-1.1.9h-.2l-1.1-.9-1.2-.9-1.4-.8-1.4-.8-1.6-.8-1.7-.7-1.8-.6-1.9-.6-1.9-.5-2.1-.4-2.2-.3-2.2-.2-2.1-.3-2.1-.3-2.1-.3-2-.4-2-.3-2-.4-2-.5-1.9-.4-1.9-.5-1.9-.5-1.9-.5z" class="st2" style="fill:none;stroke:#00aeef;stroke-width:1;stroke-miterlimit:2.613" transform="matrix(1.18966 0 0 1.18966 130.42 255.837)"/><path d="M308.869 599.648c-1.309-3.688-9.636-10.112-22.485-11.54-28.313-3.212-49.727-10.707-73.64-27.362-20.104-14.038-33.548-33.905-45.92-57.341 27.838-64.837 29.622-130.624 0-197.84l41.4-40.448c33.548 13.324 67.097 20.819 100.645 19.867 33.548 1.07 67.096-6.424 100.764-19.748l41.4 40.448c-29.623 67.216-27.838 133.003 0 197.84-12.373 23.317-25.935 43.303-45.921 57.341-23.912 16.774-45.445 24.269-73.64 27.362-12.967 1.309-21.295 7.733-22.603 11.42m0 7.139-2.855-6.424-.238-.476-.476-.595-.595-.714-.833-.714-.951-.713-1.071-.714-1.19-.714-1.427-.714-1.547-.714-1.665-.713-1.785-.595-1.903-.595-2.023-.476-2.141-.357-2.26-.357-2.618-.357-2.617-.357-2.617-.356-2.617-.357-2.499-.476-2.498-.476-2.498-.476-2.499-.476-2.379-.595-2.38-.594-2.379-.595-2.379-.714-2.38-.714-2.26-.714-2.26-.832-2.26-.833-2.26-.833-2.26-.952-2.261-.951-2.26-.952-2.26-1.07-2.261-1.071-2.26-1.071-2.26-1.19-2.261-1.19-2.26-1.308-2.261-1.309-2.26-1.308-2.26-1.428-2.261-1.428-2.26-1.546-2.26-1.547-1.904-1.308-1.904-1.428-1.784-1.427-1.785-1.428-1.784-1.547-1.785-1.546-1.665-1.547-1.666-1.546-1.665-1.666-1.547-1.665-1.546-1.666-1.547-1.665-1.546-1.785-1.428-1.784-1.427-1.785-1.428-1.784-1.428-1.904-1.427-1.903-1.309-1.904-1.308-1.903-1.31-1.903-1.308-2.023-1.308-2.022-1.309-2.023-1.309-2.022-1.19-2.023-1.189-2.14-1.19-2.142-1.19-2.142-1.189-2.141-1.19-2.141-1.784-3.45 3.093-7.257 2.38-6.068 2.26-6.067 2.022-6.067 1.904-6.067 1.784-6.068 1.547-6.067 1.427-6.067 1.309-6.067 1.07-6.067.952-6.068.833-6.067.595-6.067.476-6.067.238-6.068.119-6.067v-6.067l-.238-6.067-.357-6.068-.595-6.067-.714-6.186-.833-6.186-.951-6.305-1.19-6.187-1.428-6.186-1.546-6.186-1.785-6.186-1.903-6.187-2.141-6.186-2.26-6.186-2.499-6.186-3.45-8.09 44.136-43.184 4.878 1.903 3.093 1.19 3.093 1.19 3.093 1.07 3.093 1.07 3.093 1.072 3.093.951 3.094.952 3.093.952 3.093.951 3.093.833 3.093.833 3.093.833 3.093.713 3.093.714 3.093.595 3.093.595 3.094.595 3.093.476 3.093.475 3.093.476 3.093.357 3.093.357 3.093.357 3.093.238 3.093.238 3.093.119 3.094.119 3.093.119h6.186l3.688-.12 3.212.12h6.186l3.093-.12 3.093-.118 3.093-.12 3.094-.237 3.093-.238 3.093-.357 3.093-.357 3.093-.357 3.093-.476 3.093-.475 3.093-.476 3.093-.595 3.093-.595 3.094-.595 3.093-.714 3.093-.713 3.093-.833 3.093-.833 3.093-.833 3.093-.951 3.093-.952 3.093-.952 3.093-.951 3.094-1.071 3.093-1.07 3.093-1.072 3.093-1.19 3.093-1.189 4.878-1.903 44.136 43.184-3.45 8.09-2.498 6.186-2.26 6.186-2.142 6.186-1.904 6.187-1.784 6.186-1.547 6.186-1.427 6.186-1.19 6.187-1.07 6.186-.833 6.186-.714 6.186-.595 6.067-.357 6.068-.238 6.067v6.067l.12 6.067.237 6.068.476 6.067.595 6.067.833 6.067.951 6.068 1.07 6.067 1.31 6.067 1.427 6.067 1.547 6.068 1.784 6.067 1.904 6.067 2.022 6.067 2.26 6.067 2.38 6.068 3.093 7.257-1.785 3.45-1.19 2.141-1.189 2.141-1.19 2.142-1.19 2.141-1.189 2.142-1.19 2.022-1.308 2.022-1.309 2.023-1.308 2.022-1.31 2.023-1.308 1.903-1.308 1.903-1.309 1.904-1.428 1.903-1.427 1.904-1.428 1.784-1.427 1.785-1.428 1.784-1.546 1.785-1.547 1.665-1.547 1.666-1.546 1.665-1.666 1.666-1.665 1.546-1.666 1.547-1.784 1.546-1.785 1.547-1.784 1.428-1.785 1.427-1.903 1.428-1.903 1.308-2.26 1.547-2.261 1.547-2.26 1.427-2.26 1.428-2.261 1.308-2.26 1.309-2.26 1.309-2.261 1.19-2.26 1.189-2.26 1.07-2.261 1.071-2.26 1.07-2.26.953-2.261.951-2.26.952-2.261.833-2.26.833-2.26.832-2.261.714-2.38.714-2.379.714-2.379.595-2.38.594-2.379.595-2.498.476-2.498.476-2.498.476-2.499.476-2.617.357-2.617.356-2.617.357-2.618.357-2.26.357-2.141.357-2.023.476-1.903.595-1.785.595-1.665.713-1.547.714-1.427.714-1.19.714-1.07.714-.952.713-.833.714-.595.714-.476.595-.238.476z" class="st3" style="clip-rule:evenodd;fill-rule:evenodd;stroke-width:1.18966"/><path d="M308.869 599.648c-1.309-3.688-9.636-10.112-22.485-11.54-28.313-3.212-49.727-10.707-73.64-27.362-20.104-14.038-33.548-33.905-45.92-57.341 27.838-64.837 29.622-130.624 0-197.84l41.4-40.448c33.548 13.324 67.097 20.819 100.645 19.867 33.548 1.07 67.096-6.424 100.764-19.748l41.4 40.448c-29.623 67.216-27.838 133.003 0 197.84-12.373 23.317-25.935 43.303-45.921 57.341-23.912 16.774-45.445 24.269-73.64 27.362-12.967 1.309-21.295 7.733-22.603 11.42m-32.002-17.606-2.38-.357-2.379-.476-2.379-.476-2.38-.476-2.26-.475-2.26-.595-2.26-.595-2.26-.595-2.26-.714-2.142-.714-2.142-.713-2.141-.714-2.141-.833-2.142-.833-2.141-.832-2.142-.952-2.14-.952-2.142-1.07-2.142-1.071-2.141-1.07-2.141-1.19-2.142-1.19-2.141-1.19-2.142-1.308-2.14-1.31-2.142-1.427-2.142-1.427-2.141-1.547-1.785-1.308-1.784-1.31-1.666-1.308-1.665-1.427-1.666-1.428-1.665-1.427-1.547-1.428-1.546-1.547-1.547-1.546-1.546-1.547-1.428-1.546-1.427-1.666-1.428-1.665-1.428-1.666-1.427-1.665-1.309-1.785-1.308-1.784-1.31-1.785-1.308-1.784-1.308-1.904-1.309-1.903-1.309-1.904-1.19-1.903-1.189-1.903-1.19-2.023-1.19-2.022-1.189-2.023-1.19-2.022-1.19-2.023-1.189-2.14-1.19-2.142-.118-.12 1.665-4.044 2.38-6.186 2.26-6.187 2.141-6.186 1.904-6.186 1.784-6.186 1.666-6.186 1.427-6.187 1.309-6.305 1.19-6.305.951-6.305.833-6.305.595-6.305.476-6.306.356-6.305.12-6.305v-6.305l-.238-6.305-.357-6.305-.595-6.306-.714-6.305-.952-6.305-1.07-6.305-1.309-6.305-1.428-6.424-1.665-6.425-1.785-6.424-2.022-6.424-2.141-6.424-2.38-6.424-2.498-6.424-1.428-3.331 36.76-36.047.239.12 3.212 1.189 3.212 1.19 3.212 1.189 3.212 1.07 3.212 1.071 3.212 1.071 3.212.952 3.331 1.07 3.212.952 3.212.833 3.212.833 3.212.833 3.213.713 3.212.714 3.212.714 3.212.595 3.212.595 3.212.594 3.212.476 3.212.476 3.212.357 3.212.357 3.212.357 3.212.238 3.212.238 3.212.119 3.213.119 3.212.119h6.424l3.093-.12 3.093.12h6.424l3.212-.12 3.212-.118 3.212-.12 3.212-.237 3.212-.238 3.212-.357 3.213-.357 3.212-.357 3.212-.476 3.212-.476 3.212-.594 3.212-.595 3.212-.595 3.212-.714 3.212-.714 3.212-.713 3.212-.833 3.212-.833 3.212-.833 3.212-.951 3.213-.952 3.212-.952 3.212-1.07 3.212-1.071 3.212-1.071 3.212-1.19 3.212-1.19 3.212-1.189.238-.119 36.76 36.047-1.427 3.33-2.499 6.425-2.379 6.424-2.141 6.424-2.023 6.424-1.784 6.424-1.666 6.424-1.427 6.425-1.309 6.305-1.07 6.305-.952 6.305-.714 6.305-.595 6.306-.357 6.305-.238 6.305v6.305l.12 6.305.356 6.305.476 6.306.595 6.305.833 6.305.951 6.305 1.19 6.305 1.309 6.305 1.427 6.187 1.666 6.186 1.784 6.186 1.904 6.186 2.141 6.186 2.26 6.187 2.38 6.186 1.665 4.045-.119.119-1.19 2.141-1.19 2.141-1.189 2.023-1.19 2.022-1.19 2.023-1.189 2.022-1.19 2.022-1.19 1.904-1.189 1.903-1.308 1.904-1.309 1.903-1.309 1.904-1.308 1.784-1.309 1.785-1.308 1.784-1.31 1.785-1.427 1.665-1.427 1.666-1.428 1.665-1.427 1.666-1.428 1.546-1.547 1.547-1.546 1.546-1.547 1.547-1.546 1.428-1.666 1.427-1.665 1.428-1.666 1.427-1.665 1.309-1.785 1.309-1.784 1.308-2.142 1.547-2.141 1.427-2.141 1.428-2.142 1.308-2.141 1.31-2.142 1.189-2.14 1.19-2.142 1.19-2.142 1.07-2.141 1.07-2.141 1.071-2.142.952-2.141.952-2.142.832-2.14.833-2.142.833-2.023.595-2.141.713-2.141.714-2.26.714-2.261.595-2.26.595-2.26.595-2.261.475-2.38.476-2.379.476-2.38.476-2.378.357-2.499.357-2.498.357-2.498.357-2.618.356-2.498.357-2.498.476-2.38.595-2.26.714-2.141.714-2.023.832-1.903.952-1.784.952-1.547.952-1.428 1.07-1.308 1.071-.12.119-.118-.119-1.309-1.07-1.427-1.071-1.666-.952-1.784-.952-1.904-.952-2.022-.832-2.142-.714-2.26-.714-2.38-.595-2.498-.476-2.498-.357-2.617-.356-2.498-.357-2.499-.357z" class="st4" style="clip-rule:evenodd;fill:#00aeef;fill-rule:evenodd;stroke-width:1.18966"/><path d="M308.869 599.648c-1.309-3.688-9.636-10.112-22.485-11.54-28.313-3.212-49.727-10.707-73.64-27.362-20.104-14.038-33.548-33.905-45.92-57.341 27.838-64.837 29.622-130.624 0-197.84l41.4-40.448c33.548 13.324 67.097 20.819 100.645 19.867 33.548 1.07 67.096-6.424 100.764-19.748l41.4 40.448c-29.623 67.216-27.838 133.003 0 197.84-12.373 23.317-25.935 43.303-45.921 57.341-23.912 16.774-45.445 24.269-73.64 27.362-12.967 1.309-21.295 7.733-22.603 11.42zm-32.002-17.607-2.38-.357-2.379-.476-2.379-.476-2.38-.476-2.26-.475-2.26-.595-2.26-.595-2.26-.595-2.26-.714-2.142-.714-2.142-.713-2.141-.714-2.141-.833-2.142-.833-2.141-.832-2.142-.952-2.14-.952-2.142-1.07-2.142-1.071-2.141-1.07-2.141-1.19-2.142-1.19-2.141-1.19-2.142-1.308-2.14-1.31-2.142-1.427-2.142-1.427-2.141-1.547-1.785-1.308-1.784-1.31-1.666-1.308-1.665-1.427-1.666-1.428-1.665-1.427-1.547-1.428-1.546-1.547-1.547-1.546-1.546-1.547-1.428-1.546-1.427-1.666-1.428-1.665-1.428-1.666-1.427-1.665-1.309-1.785-1.308-1.784-1.31-1.785-1.308-1.784-1.308-1.904-1.309-1.903-1.309-1.904-1.19-1.903-1.189-1.903-1.19-2.023-1.19-2.022-1.189-2.023-1.19-2.022-1.19-2.023-1.189-2.14-1.19-2.142-.118-.12 1.665-4.044 2.38-6.186 2.26-6.187 2.141-6.186 1.904-6.186 1.784-6.186 1.666-6.186 1.427-6.187 1.309-6.305 1.19-6.305.951-6.305.833-6.305.595-6.305.476-6.306.356-6.305.12-6.305v-6.305l-.238-6.305-.357-6.305-.595-6.306-.714-6.305-.952-6.305-1.07-6.305-1.309-6.305-1.428-6.424-1.665-6.425-1.785-6.424-2.022-6.424-2.141-6.424-2.38-6.424-2.498-6.424-1.428-3.331 36.76-36.047.239.12 3.212 1.189 3.212 1.19 3.212 1.189 3.212 1.07 3.212 1.071 3.212 1.071 3.212.952 3.331 1.07 3.212.952 3.212.833 3.212.833 3.212.833 3.213.713 3.212.714 3.212.714 3.212.595 3.212.595 3.212.594 3.212.476 3.212.476 3.212.357 3.212.357 3.212.357 3.212.238 3.212.238 3.212.119 3.213.119 3.212.119h6.424l3.093-.12 3.093.12h6.424l3.212-.12 3.212-.118 3.212-.12 3.212-.237 3.212-.238 3.212-.357 3.213-.357 3.212-.357 3.212-.476 3.212-.476 3.212-.594 3.212-.595 3.212-.595 3.212-.714 3.212-.714 3.212-.713 3.212-.833 3.212-.833 3.212-.833 3.212-.951 3.213-.952 3.212-.952 3.212-1.07 3.212-1.071 3.212-1.071 3.212-1.19 3.212-1.19 3.212-1.189.238-.119 36.76 36.047-1.427 3.33-2.499 6.425-2.379 6.424-2.141 6.424-2.023 6.424-1.784 6.424-1.666 6.424-1.427 6.425-1.309 6.305-1.07 6.305-.952 6.305-.714 6.305-.595 6.306-.357 6.305-.238 6.305v6.305l.12 6.305.356 6.305.476 6.306.595 6.305.833 6.305.951 6.305 1.19 6.305 1.309 6.305 1.427 6.187 1.666 6.186 1.784 6.186 1.904 6.186 2.141 6.186 2.26 6.187 2.38 6.186 1.665 4.045-.119.119-1.19 2.141-1.19 2.141-1.189 2.023-1.19 2.022-1.19 2.023-1.189 2.022-1.19 2.022-1.19 1.904-1.189 1.903-1.308 1.904-1.309 1.903-1.309 1.904-1.308 1.784-1.309 1.785-1.308 1.784-1.31 1.785-1.427 1.665-1.427 1.666-1.428 1.665-1.427 1.666-1.428 1.546-1.547 1.547-1.546 1.546-1.547 1.547-1.546 1.428-1.666 1.427-1.665 1.428-1.666 1.427-1.665 1.309-1.785 1.309-1.784 1.308-2.142 1.547-2.141 1.427-2.141 1.428-2.142 1.308-2.141 1.31-2.142 1.189-2.14 1.19-2.142 1.19-2.142 1.07-2.141 1.07-2.141 1.071-2.142.952-2.141.952-2.142.832-2.14.833-2.142.833-2.023.595-2.141.713-2.141.714-2.26.714-2.261.595-2.26.595-2.26.595-2.261.475-2.38.476-2.379.476-2.38.476-2.378.357-2.499.357-2.498.357-2.498.357-2.618.356-2.498.357-2.498.476-2.38.595-2.26.714-2.141.714-2.023.832-1.903.952-1.784.952-1.547.952-1.428 1.07-1.308 1.071-.12.119-.118-.119-1.309-1.07-1.427-1.071-1.666-.952-1.784-.952-1.904-.952-2.022-.832-2.142-.714-2.26-.714-2.38-.595-2.498-.476-2.498-.357-2.617-.356-2.498-.357-2.499-.357z" class="st5" style="fill:none;stroke:#000;stroke-width:.345714;stroke-miterlimit:2.613"/><path d="M199.42 313.536c1.071 0 1.785-.357 2.26-.952.358-.714.596-1.666.596-2.974v-4.64c0-1.07-.238-2.022-.595-2.736-.476-.595-1.19-.952-2.26-.952-1.428 0-2.26.714-2.856 2.023-.238.713-.357 1.427-.594 2.022 0 .238-.12.595-.12 1.07v1.071c0 2.023.357 3.57.952 4.521.595 1.07 1.547 1.547 2.618 1.547m10.825-12.135c-1.07 0-1.784.357-2.26.952s-.714 1.547-.714 2.617v4.64c0 1.19.238 2.26.595 2.855.238.357.476.595.833.714s.833.238 1.427.238c1.071 0 1.904-.476 2.618-1.428.713-.952 1.07-2.38 1.07-4.52 0-.714 0-1.428-.119-2.142-.119-.357-.119-.714-.238-1.07q-.177-.358-.356-1.071-.714-1.785-2.856-1.785m-8.09 13.92a6.4 6.4 0 0 1-1.784 1.784 5.6 5.6 0 0 1-1.19.595c-.475.118-.951.237-1.427.237q-3.033 0-4.997-2.855c-.713-.951-1.19-2.022-1.546-3.33a16.4 16.4 0 0 1-.595-4.402c0-3.688.714-6.306 2.26-7.971 1.547-1.666 3.213-2.38 4.997-2.38.714 0 1.547.12 2.141.476.714.357 1.309.952 2.023 2.023v-8.804h5.115v8.804a8.4 8.4 0 0 1 2.142-2.023c.713-.357 1.427-.594 2.141-.594 1.785 0 3.569.832 4.997 2.379 1.546 1.546 2.26 4.283 2.26 7.97 0 3.332-.714 5.83-2.022 7.733q-2.142 2.856-4.997 2.855c-1.07 0-1.903-.237-2.617-.713a6.4 6.4 0 0 1-1.785-1.785l-.119 9.517h-5.115v-9.517z" class="st6" style="clip-rule:evenodd;fill:#fff;fill-rule:evenodd;stroke-width:1.18966"/><path d="m158.5 59.8-2.7-.2 1.3-2.3.2-.3.1-.2.2-.3.1-.3.1-.2.2-.3.1-.3.2-.3.1-.2.1-.3.2-.3.1-.3.1-.2.1-.3.2-.3.1-.3.1-.2.2-.3.1-.3.1-.3.2-.3.1-.3.1-.3.2-.2.1-.3.2-.3.1-.3.2-.3.2-.3.1-.3.7-1.1 1.8.2.9.1h.9l.9.1.9.1h1.8l1 .1h5.4l.9-.1h.9l.9-.1h.9l.9-.1.9-.1.9-.1.9-.2.9-.1.9-.1.8-.2.9-.2.9-.2.9-.2.9-.2.9-.3.9-.3 3.4-1-1.7 7-1.2 4.7-1.3 4.8-1.3 4.8-1.3 5-1.4 5-1.3 5-1.4 5.1-1.3 5.1-1.3 5.2-1.2 5.1-1.2 5.2-1.1 5.1-1 5.2-.9 5.1-.8 5-.6 5-.5 4.9-.3 4.8-.1 4.8v4.6l.3 4.5.5 4.5.7 4.2 1 4.1 1.2 4 1.5 3.8 1.8 3.6 2.1 3.5 2.4 3.2 2.7 3 5.6 5.1-5.3.6-2.1-.1-2-.3-1.9-.5-1.8-.8-1.7-1.1-1.5-1.3-1.5-1.5-1.3-1.8-1.3-1.9-1.1-2.2-1-2.5-.9-2.6-.9-2.9-.7-3-.6-3.3-.5-3.6-.5-3.7-.3-4-.3-4.2-.2-4.4v-9.6l.1-5.1.2-5.3.3-5.6.4-5.8.4-6 .6-6.2.6-6.2-.2.5-1.1 3.5-1 3.4-1.1 3.5-1 3.4-1 3.4-1 3.4-1 3.5-.9 3.4-1 3.4-.8 3.4-.9 3.4-.9 3.3-.8 3.4-.8 3.4-.8 3.4-.7 3.3-.7 3.4-.7 3.3-.7 3.4-.7 3.3-.6 3.3-.6 3.3-.6 3.3-.5 3.3-.5 3.3-.5 3.3-.5 3.3-.6 4.9-1.7-.4-.2-.1h-.4l-.2-.1h-.2l-.2-.1h-.2l-.1-.1h-.4l-.2-.1-.6-.1-.2-.1h-.2l-.7-.2-.6-.1h-.2l-.5-.2h-.2l-1.6-.4-.7-4.5-.6-3.7-.6-3.6-.6-3.6-.5-3.7-.5-3.6-.5-3.6-.5-3.7-.4-3.6-.4-3.6-.4-3.7-.4-3.6-.4-3.6-.3-3.7-.3-3.6-.3-3.6-.3-3.6-.2-3.7-.2-3.6-.2-3.6-.2-3.7-.1-3.6-.1-3.6-.1-3.7v-3.6l-.1-3.6v-3.7l.1-3.6v-4.9l-.5 1.7-.8 2.8-.8 2.8-.8 2.9-.8 2.9-.7 2.9-.7 2.9-.7 2.9-.6 3-.7 3-.6 2.9-.6 3-.6 3-.6 3-.6 3-.6 3-.6 3-.6 2.9-.5 3-.6 2.9-.6 2.9-.6 2.9-.6 2.9-.6 2.8-.7 2.8-.6 2.8-.7 2.7-.7 2.7-.7 2.7-.6 2.4-.7 2.3-.7 2.3-.7 2.2-.7 2.2-.8 2.1-.8 2-.7 2-.8 1.9-.9 1.9-.8 1.8-.9 1.7-.9 1.7-.9 1.6-.9 1.5-1 1.5-.9 1.4-1 1.3-1.1 1.3-1 1.1-1.1 1.1-1.1 1.1-1.2.9-1.1.9-1.2.7-1.3.7-1.2.6-1.3.5-1.3.4-1.3.4-1.4.2-1.4.1h-2.2l-1-.1-1-.2-.9-.2-.8-.2-.8-.4-.8-.3-.7-.5-.6-.4-.6-.5-.6-.6-.5-.5-.4-.6-.4-.6-.4-.7-.3-.6-.3-.7-.3-.7-.2-.6-.1-.7-.2-.7-.1-.7-.1-.6-.1-.7-.1-.7v-.6l-.1-.7v-3l3.2 1.1.3.9.7 1.5.7 1.4.8 1.2.8 1 .9.8.8.7.9.5.9.4.9.3.9.1.9.1.9-.1 1-.3.9-.3 1-.5 1-.6 1-.7 1-.9 1-.9.9-1.1.9-1.3.9-1.3.9-1.4.8-1.6.8-1.6.7-1.8.7-1.9.6-1.9.5-2.1.4-2.1.4-2.3.6-4.1.6-4.1.6-4 .6-3.9.6-3.9.5-3.8.6-3.8.6-3.8.7-3.7.6-3.7.7-3.7.6-3.6.8-3.6.7-3.6.8-3.6.8-3.6.9-3.6.9-3.6 1-3.7 1-3.6 1.1-3.6 1.1-3.7 1.2-3.7 1.3-3.8 1.4-3.7 1.4-3.9 1.5-3.8 1.6-4 1.6-3.9 1.8-4.1 1.8-4.1 1.1-2.2h-1.7l-.6-.1h-1.6l-.5-.1h-1.7l-.5-.1h-1.7l-.5-.1h-1.7l-.5-.1h-1.6l-.6-.1h-.5l-3-.1-.1-1.6v-1.4l.1-.3v-.5l.1-.3v-.3l.1-.3.1-.3v-.2l.1-.3.1-.3.1-.3.1-.3.1-.2.1-.3.1-.3.2-.3.1-.2.1-.3.2-.3.1-.2.2-.3.1-.3.2-.3.2-.2.2-.3.6-.9h1.7l6.1.1h18.2l1 .1h7.7l-.6 5.3-.3 3.8-.4 3.7-.3 3.7-.3 3.7-.3 3.8-.3 3.7-.3 3.7-.2 3.7-.3 3.7-.2 3.7-.2 3.7-.2 3.7-.1 3.7-.1 3.6-.1 3.7-.1 3.7-.1 3.6v11l.1 3.6.1 3.6.1 3.6.1 3.6.2 3.6.2 3.6.2 3.6v.4l.1-.1.5-3.5.6-3.6.7-3.6.7-3.6.7-3.6.8-3.6.8-3.6.9-3.6.9-3.6.9-3.6 1-3.6 1-3.6 1-3.6 1-3.5 1.1-3.6 1.1-3.5 1.1-3.5 1.1-3.5 1.2-3.5 1.1-3.4 1.2-3.4 1.1-3.4 1.2-3.3 1.1-3.3 1.2-3.2 1.2-3.2 1.1-3.1.5-1.4h-.9l-.4-.1h-1.2l-.4-.1h-1.6l-.4-.1h-1.6l-.4-.1h-2l-.4-.1h-.9z" class="st3" style="clip-rule:evenodd;fill-rule:evenodd" transform="matrix(1.18966 0 0 1.18966 130.42 255.837)"/><path d="M299.47 457.96c3.688-43.185 20.106-93.031 34.62-131.814-5.116-.595-10.232-.595-15.347-.952 2.141-3.569 3.331-7.138 5.353-10.588 11.659 1.071 23.318 1.071 34.976-2.736-13.324 56.985-46.04 138.833-3.33 174.642-25.697 3.925-32.954-38.664-21.771-128.007-15.11 44.136-26.173 87.201-31.526 128.958-2.38-.595-4.759-1.07-7.257-1.665-7.852-45.92-11.778-91.96-9.874-137.881-12.61 33.43-17.131 76.138-26.173 109.33-8.208 30.335-19.63 50.084-36.165 50.797-13.562.595-14.514-10.707-14.276-17.369 8.208 24.15 30.217 11.659 34.5-18.082 7.614-52.94 12.61-90.771 37.83-144.068-6.9-.357-13.918-.594-20.818-.951-.238-3.093.833-6.306 2.974-9.399 12.848 0 25.578.12 38.426.12-4.759 47.586-7.138 94.577-2.141 139.665" class="st6" style="clip-rule:evenodd;fill:#fff;fill-rule:evenodd;stroke-width:1.18966"/><path d="M375.965 428.932c19.868 0 35.928 16.06 35.928 35.928s-16.06 35.927-35.928 35.927-35.927-16.06-35.927-35.927c-.12-19.748 16.06-35.928 35.927-35.928" class="st6" style="clip-rule:evenodd;fill:#fff;fill-rule:evenodd;stroke-width:1.18966"/><circle cx="-222.909" cy="554.826" r="35.929" class="st7" style="fill:none;stroke:#000;stroke-width:1.69903;stroke-miterlimit:2.613" transform="rotate(-60.851)"/><path d="M350.269 444.04a4.52 4.52 0 0 1 4.52 4.522v35.451a4.52 4.52 0 0 1-4.52 4.521c-2.498 0-3.57-2.26-4.52-4.52-2.5-6.068-3.213-12.254-3.213-18.56 0-5.59.952-11.182 3.212-16.892.952-2.26 2.023-4.521 4.52-4.521" class="st6" style="clip-rule:evenodd;fill:#fff;fill-rule:evenodd;stroke-width:1.18966"/><path d="M350.269 444.04a4.52 4.52 0 0 1 4.52 4.522v35.451a4.52 4.52 0 0 1-4.52 4.521c-2.498 0-3.57-2.26-4.52-4.52-2.5-6.068-3.213-12.254-3.213-18.56 0-5.59.952-11.182 3.212-16.892.952-2.26 2.023-4.521 4.52-4.521z" class="st8" style="fill:none;stroke:#000;stroke-width:1.69835;stroke-miterlimit:2.613"/><path d="M403.803 443.565c-1.546-1.19-2.379 2.617-2.379 5.116v35.451c0 1.904.476 5.71 2.38 3.688.118-.119 1.903-1.784 2.617-4.045 2.974-8.446 5.115-22.365 1.07-34.857-.714-2.379-1.665-3.806-3.688-5.353" class="st6" style="clip-rule:evenodd;fill:#fff;fill-rule:evenodd;stroke-width:1.18966"/><path d="M403.803 443.565c-1.546-1.19-2.379 2.617-2.379 5.116v35.451c0 1.904.476 5.71 2.38 3.688.118-.119 1.903-1.784 2.617-4.045 2.974-8.446 5.115-22.365 1.07-34.857-.714-2.379-1.665-3.806-3.688-5.353z" class="st9" style="fill:none;stroke:#000;stroke-width:2.02003;stroke-miterlimit:2.613"/><path d="M358.953 454.034h36.642a7.717 7.717 0 0 1 7.732 7.733v3.926a7.717 7.717 0 0 1-7.732 7.732h-36.642a7.717 7.717 0 0 1-7.732-7.732v-3.926c0-4.283 3.569-7.733 7.732-7.733" class="st6" style="clip-rule:evenodd;fill:#fff;fill-rule:evenodd;stroke-width:1.18966"/><path d="M358.953 454.034h36.642a7.717 7.717 0 0 1 7.732 7.733v3.926a7.717 7.717 0 0 1-7.732 7.732h-36.642a7.717 7.717 0 0 1-7.732-7.732v-3.926c0-4.283 3.569-7.733 7.732-7.733z" class="st8" style="fill:none;stroke:#000;stroke-width:1.69835;stroke-miterlimit:2.613"/><path d="M358.477 443.565c13.681 1.547 26.054 1.428 37.475 0 2.855-.357 5.234 2.38 5.234 5.235 0 3.33-1.428 5.115-4.996 6.067-6.068 1.665-12.61 2.617-19.035 2.617-6.186 0-12.372-1.07-18.202-2.855-4.64-1.428-5.829-2.023-5.829-5.83.119-2.855 2.38-5.59 5.353-5.234" class="st6" style="clip-rule:evenodd;fill:#fff;fill-rule:evenodd;stroke-width:1.18966"/><path d="M358.477 443.565c13.681 1.547 26.054 1.428 37.475 0 2.855-.357 5.234 2.38 5.234 5.235 0 3.33-1.428 5.115-4.996 6.067-6.068 1.665-12.61 2.617-19.035 2.617-6.186 0-12.372-1.07-18.202-2.855-4.64-1.428-5.829-2.023-5.829-5.83.119-2.855 2.38-5.59 5.353-5.234z" class="st8" style="fill:none;stroke:#000;stroke-width:1.69835;stroke-miterlimit:2.613"/><path d="M364.783 431.074c2.974.238 4.996.832 4.996 2.498v7.97q-2.498 4.105-6.067 3.926c-3.807-.237-6.186-1.784-7.138-4.996v-4.164c2.617-3.807 5.472-4.402 8.209-5.234" class="st6" style="clip-rule:evenodd;fill:#fff;fill-rule:evenodd;stroke-width:1.18966"/><path d="M364.783 431.074c2.974.238 4.996.832 4.996 2.498v7.97q-2.498 4.105-6.067 3.926c-3.807-.237-6.186-1.784-7.138-4.996v-4.164c2.617-3.807 5.472-4.402 8.209-5.234z" class="st8" style="fill:none;stroke:#000;stroke-width:1.69835;stroke-miterlimit:2.613"/><path d="M389.052 431.668c-2.975.238-4.164.238-4.164 1.904v7.97q2.498 4.105 6.067 3.926c3.807-.237 6.186-1.784 7.138-4.996 0-1.547-.833-2.022-.833-3.569-3.212-2.855-5.83-3.926-8.208-5.235" class="st6" style="clip-rule:evenodd;fill:#fff;fill-rule:evenodd;stroke-width:1.18966"/><path d="M389.052 431.668c-2.975.238-4.164.238-4.164 1.904v7.97q2.498 4.105 6.067 3.926c3.807-.237 6.186-1.784 7.138-4.996 0-1.547-.833-2.022-.833-3.569-3.212-2.855-5.83-3.926-8.208-5.235z" class="st8" style="fill:none;stroke:#000;stroke-width:1.69835;stroke-miterlimit:2.613"/><path d="M374.18 429.765h5.83c2.617 0 4.64 2.617 4.64 5.235v4.996c0 2.617-2.142 5.83-4.64 5.83h-5.83c-2.616 0-4.639-3.213-4.639-5.83V435c-.119-2.618 2.023-5.235 4.64-5.235" class="st6" style="clip-rule:evenodd;fill:#fff;fill-rule:evenodd;stroke-width:1.18966"/><path d="M374.18 429.765h5.83c2.617 0 4.64 2.617 4.64 5.235v4.996c0 2.617-2.142 5.83-4.64 5.83h-5.83c-2.616 0-4.639-3.213-4.639-5.83V435c-.119-2.618 2.023-5.235 4.64-5.235z" class="st8" style="fill:none;stroke:#000;stroke-width:1.69835;stroke-miterlimit:2.613"/><path d="M358.477 472.236c13.681 1.546 26.054 1.427 37.475 0 2.855-.357 5.234 2.379 5.234 5.234 0 3.331-1.428 5.116-4.996 6.067-6.068 1.666-12.61 2.618-19.035 2.618-6.186 0-12.372-1.071-18.202-2.855-4.64-1.428-5.829-2.023-5.829-5.83.119-2.855 2.38-5.472 5.353-5.234" class="st6" style="clip-rule:evenodd;fill:#fff;fill-rule:evenodd;stroke-width:1.18966"/><path d="M358.477 472.236c13.681 1.546 26.054 1.427 37.475 0 2.855-.357 5.234 2.379 5.234 5.234 0 3.331-1.428 5.116-4.996 6.067-6.068 1.666-12.61 2.618-19.035 2.618-6.186 0-12.372-1.071-18.202-2.855-4.64-1.428-5.829-2.023-5.829-5.83.119-2.855 2.38-5.472 5.353-5.234z" class="st8" style="fill:none;stroke:#000;stroke-width:1.69835;stroke-miterlimit:2.613"/><path d="M364.783 498.527c2.974-.238 4.996-.833 4.996-2.498v-7.97q-2.498-4.106-6.067-3.927c-3.807.238-6.186 1.785-7.138 4.997v4.164c2.617 3.807 5.472 4.401 8.209 5.234" class="st6" style="clip-rule:evenodd;fill:#fff;fill-rule:evenodd;stroke-width:1.18966"/><path d="M364.783 498.527c2.974-.238 4.996-.833 4.996-2.498v-7.97q-2.498-4.106-6.067-3.927c-3.807.238-6.186 1.785-7.138 4.997v4.164c2.617 3.807 5.472 4.401 8.209 5.234z" class="st8" style="fill:none;stroke:#000;stroke-width:1.69835;stroke-miterlimit:2.613"/><path d="M389.052 497.932c-2.975-.238-4.164-.238-4.164-1.903v-7.97q2.498-4.106 6.067-3.927c3.807.238 6.186 1.785 7.138 4.997 0 1.546-.833 2.022-.833 3.569-3.212 2.974-5.83 3.926-8.208 5.234" class="st6" style="clip-rule:evenodd;fill:#fff;fill-rule:evenodd;stroke-width:1.18966"/><path d="M389.052 497.932c-2.975-.238-4.164-.238-4.164-1.903v-7.97q2.498-4.106 6.067-3.927c3.807.238 6.186 1.785 7.138 4.997 0 1.546-.833 2.022-.833 3.569-3.212 2.974-5.83 3.926-8.208 5.234z" class="st8" style="fill:none;stroke:#000;stroke-width:1.69835;stroke-miterlimit:2.613"/><path d="M374.18 499.955h5.83c2.617 0 4.64-2.618 4.64-5.235v-4.996c0-2.618-2.142-5.83-4.64-5.83h-5.83c-2.616 0-4.639 3.212-4.639 5.83v4.996c-.119 2.498 2.023 5.235 4.64 5.235" class="st6" style="clip-rule:evenodd;fill:#fff;fill-rule:evenodd;stroke-width:1.18966"/><path d="M374.18 499.955h5.83c2.617 0 4.64-2.618 4.64-5.235v-4.996c0-2.618-2.142-5.83-4.64-5.83h-5.83c-2.616 0-4.639 3.212-4.639 5.83v4.996c-.119 2.498 2.023 5.235 4.64 5.235z" class="st8" style="fill:none;stroke:#000;stroke-width:1.69835;stroke-miterlimit:2.613"/><path d="M395.238 470.332h-6.9q0-1.07.357-1.784c.238-.595.595-1.07 1.19-1.547.475-.357 1.07-.714 1.665-1.19.595-.475.952-.832 1.308-1.19.238-.356.476-.713.476-1.308s-.119-.951-.357-1.19c-.237-.237-.594-.356-.951-.356-.476 0-.714.119-1.071.476-.238.238-.357.713-.357 1.308v.357h-2.022c0-1.19.238-2.141.832-2.736.595-.595 1.428-.952 2.499-.952 1.19 0 2.022.238 2.617.833s.833 1.309.833 2.141q0 1.071-.357 1.785c-.238.476-.714.952-1.309 1.427s-1.19.952-1.665 1.309-.833.714-.952 1.07h4.283v1.547zm-15.347-2.617c0 .357.12.714.357.952.238.238.595.357 1.19.357.476 0 .952-.238 1.19-.595.237-.357.356-.833.356-1.309 0-.595-.119-1.07-.357-1.308-.237-.238-.356-.476-.594-.476-.238-.12-.476-.12-.714-.12-.595 0-1.07.239-1.309.715h-1.784l.951-5.592h5.354v1.785h-4.164l-.357 2.022c.12-.119.357-.238.476-.238.12-.119.357-.119.476-.238.119 0 .238-.119.357-.119h.833c.119 0 .475.12.951.238.476.12.833.595 1.19 1.19s.476 1.308.476 2.022c0 .833-.12 1.428-.476 2.023-.357.594-.714.951-1.309 1.308-.476.238-1.19.476-1.903.476-.595 0-1.07-.119-1.309-.238s-.595-.357-.951-.595c-.357-.238-.595-.594-.833-.951-.12-.357-.238-.714-.238-1.19h2.141zm-7.97-2.855c.237-.357.475-.714.475-1.07 0-.358 0-.715-.119-.953q-.178-.534-.356-.713c-.12-.12-.357-.238-.476-.357-.238-.12-.357-.12-.595-.12-.476 0-.714.12-.952.358s-.357.476-.476.713c-.119.238-.119.476-.119.714s0 .476.12.714c.118.238.237.476.475.714q.357.357 1.07.357c.239.119.715 0 .953-.357m-2.38 3.093c0 .238 0 .476.238.714q.357.357 1.07.357c.239 0 .596-.12.715-.238.238-.238.357-.357.476-.595.118-.238.118-.476.237-.714.12-.238.12-.476.12-.714s0-.357-.12-.476a2.2 2.2 0 0 1-.832.714c-.238.12-.476.12-.595.12h-.833c-.119 0-.357-.12-.595-.12s-.595-.238-.951-.476a2.18 2.18 0 0 1-.833-1.19 3.7 3.7 0 0 1-.357-1.546c0-.357 0-.714.119-1.07s.238-.714.476-1.071q.357-.536 1.07-1.07c.476-.358 1.071-.477 1.666-.477 1.428 0 2.498.476 2.974 1.547q.714 1.605.714 3.212c0 .833-.12 1.546-.238 2.38-.119.713-.357 1.427-.714 2.022s-.714.951-1.308 1.19c-.595.237-1.071.356-1.666.356-1.07 0-1.784-.357-2.38-.952-.475-.713-.713-1.19-.713-1.665h2.26zm-7.614 2.38h-1.903v-7.02h-2.38v-1.308c.477 0 .833 0 1.19-.12.357-.118.714-.237.952-.356.238-.12.476-.357.595-.595s.238-.476.238-.714h1.308z" class="st3" style="clip-rule:evenodd;fill-rule:evenodd;stroke-width:1.18966"/><path d="m229.4 48.7-.4.5-.3.5-.4.4-.4.5-.4.4-.5.5-.4.4-.4.4-.5.5-.4.4-.5.4-.5.4-.5.4-.5.4-.5.4-.6.4-.5.3-.6.4-.6.4-.6.3-.6.3-.6.4-.7.3-153.4 71.2-.2 67.5 3.3 1.4-.2-.4.2-1 .3-.9.3-1 .3-1 .4-1 .4-1.1.5-1 .4-1.1.5-1.1.6-1.1.5-1 .6-1.1.6-1.1.6-1 .6-1.1.6-1 .6-1 .6-1 .7-.9.6-.9.6-.9.7-.8.6-.8.6-.7.6-.7.6-.6.6-.6.5-.5.5-.4.5-.4.4-.2.4-.3 151.1-66.5V40.3l-3 4.6-.3.5-.3.5-.4.5-.3.4-.3.5-.4.5-.3.5z" class="st3" style="clip-rule:evenodd;fill-rule:evenodd" transform="matrix(1.18966 0 0 1.18966 130.42 255.837)"/><path d="M408.324 309.61c-4.045 6.186-9.041 12.61-17.845 16.774l-181.422 84.347-.238 79.825c2.736-11.896 14.633-30.693 20.938-33.548l178.686-78.755V309.61z" class="st4" style="clip-rule:evenodd;fill:#00aeef;fill-rule:evenodd;stroke-width:1.18966"/><path d="M408.324 309.61c-4.045 6.186-9.041 12.61-17.845 16.774l-181.422 84.347-.238 79.825c2.736-11.896 14.633-30.693 20.938-33.548l178.686-78.755V309.61z" class="st10" style="fill:none;stroke:#000;stroke-width:1.18966;stroke-miterlimit:2.613"/><path d="M67.8 71.2V76h-4.3V59.5h4.3v6.2l6.2-6.2h5.7l-6.8 6.8L80 76h-5.6l-4.8-6.6z" class="st6" style="clip-rule:evenodd;fill:#fff;fill-rule:evenodd" transform="matrix(1.18966 0 0 1.18966 130.42 255.837)"/><path d="m344.32 546.946-.237.476-.12.476-.118.476-.12.476-.118.475-.12.476v5.354l.12.595.119.594.119.476.119.476.119.476.119.476.119.476.119.476.118.475.12.357.118.357.12.357.118.357.12.357.118.357.238.238.238.238.238.238.238.237.238.238.238.238.238.238.238.238.238.238.238.238.238.238.237.238.238.238.238.238.238.238.238.238.238.238.238.119.238.119.238.118.357.12.357.118.357.12.356.118.357.12.357.118.357.12.357.118.476.12.595.118.595.12.594.118h3.569l.595-.119.595-.119.595-.119.595-.119.713-.119.714-.119.714-.238.714-.238.714-.238.713-.237.714-.238.714-.238.714-.238.714-.357.713-.357.833-.357.833-.357.833-.357.832-.357.833-.475.833-.476.833-.476.951-.595.952-.595.952-.595.952-.595.951-.594.952-.595.952-.595.833-.714.832-.714.833-.713.833-.714.833-.714.832-.714.833-.714.833-.713.714-.714.713-.714.714-.714.714-.832.714-.833.714-.833.713-.833.595-.833.595-.832.595-.833.595-.833.595-.833.594-.832.476-.833.476-.833.476-.833 3.688-6.424-6.067 3.57-.595.356-.595.357-.595.357-.595.357-.594.238-.595.238-.595.238-.595.238-.595.237-.476.238-.476.238-.475.238-.476.238-.476.238-.595.357-.476.119-.476.119-.476.119-.475.119-.476.119-.476.119-.476.119-.476.119h-1.308l.237-.476.238-.595.238-.595.238-.595.238-.594.238-.595.238-.595.238-.595.238-.595.238-.595.238-.594.119-.595.119-.595.119-.595.119-.595.119-.476.119-.475.119-.476.119-.476.118-.476.12-.476.118-.476.12-.476.118-.475.12-.476.118-.476.12-.476.832-7.97-4.52 7.256-.596.833-.594.833-.595.951-.595.952-.595.952-.714.952-.713.951-.714.952-.714.952-.714.951-.714.833-.713.833-.714.833-.714.833-.714.713-.714.714-.713.714-.714.595-.714.595-.595.475-.595.476-.594.357-.595.357-.476.238-.476.238-.476.119-.357.119h-.595l-.237-.12-.238-.118-.238-.238-.12-.119-.118-.119v-.714l.119-.357.119-.357.119-.356.238-.476.237-.476.357-.476.357-.595.357-.595.357-.594.476-.595.476-.595.476-.595.476-.595.475-.595.476-.713.357-.714.357-.714.357-.714.357-.714.238-.713.238-.714.119-.833v-1.665l-.12-.833-.237-.595-.238-.595-.238-.595-.357-.476-.833-.237-.357-.476-.357-.476-.475-.476-.476-.357-.476-.357-.476-.357-.476-.357-.476-.357-.595-.237-.594-.238-.595-.238-.595-.238-.595-.238-.595-.12-.595-.118-.594-.12-.595-.118-.595-.119h-2.974l-.595.119-.595.119-.595.119-2.022.476.238 2.141v2.023l-.12.475-.118.476-.119.476-.119.476-.119.476-.119.476-.238.476-.238.475-.238.476-.238.595-.238.595-.237.595-.238.595-.238.594-.238.595-.238.595-.238.595-.238.595-.119.595-.119.594-.119.595-.119.714-.119.714v2.141l.12.714.118.357.119.357.119.357.119.357.119.237.119.238.119.238.238.238.238.238.238.238.238.238.119.238.118.238.12.238.118.119-.119-.12-.237-.118-.238-.12-.238-.118-.238-.119-.238-.119-.357-.119-.357-.119h-1.428l-.356.12-.357.118-.357.119-.357.238-.476.238-.476.238-.357.357-.357.357-.238.475-.238.476zm-96.124.357-.475-.238-.595-.238-.595-.357-.595-.357-.595-.476-.714-.475-.713-.595-.714-.595-.714-.714-.714-.714-.714-.713-.713-.833-.714-.833-.714-.833-.714-.832-.713-.833-.714-.952-.714-.952-.714-.951-.714-.952-.594-.952-.595-.952-.595-.951-.595-.833-.595-.833-4.52-7.138.832 7.97.12.477.118.476.12.476.118.475.12.476.118.476.119.476.119.476.119.476.119.476.119.475-.12 1.19.12.595.119.595.119.595.119.594.238.595.238.595.238.595.238.595.237.595.238.594.238.595.238.595.238.595.238.595.238.476h-1.309l-.475-.12-.476-.118-.476-.12-.476-.118-.476-.12-.476-.118-.476-.12-.475-.118-.476-.238-.476-.238-.476-.238-.476-.238-.476-.238-.476-.238-.594-.238-.595-.238-.595-.238-.595-.238-.595-.237-.595-.357-.594-.357-.595-.357-.595-.357-6.067-3.569 3.688 6.424.475.833.476.833.476.832.595.833.595.833.476-.119.595.833.594.832.595.833.714.833.714.833.714.833.713.832.714.714.714.714.714.714.832.713.833.714.833.714.833.714.833.714.832.713.833.714.833.714.952.595.951.595.952.594.952.595.951.595.952.595.952.595.833.476.832.476.833.475.833.357.833.357.832.357.833.357.714.357.714.357.714.238.713.238.714.238.714.237.714.238.714.238.713.238.714.12.714.118.595.12.595.118.594.12.595.118h3.569l.595-.119.595-.119.595-.119.476-.119.356-.119.357-.119.357-.119.357-.119.357-.119.357-.119.357-.119.357-.119.238-.118.238-.12.237-.118.238-.238.238-.238.238-.238.238-.238.238-.238.238-.238.238-.238.238-.238.238-.238.238-.238.238-.238.238-.238.238-.238.238-.237.237-.238.238-.238.238-.238.12-.357.118-.357.12-.357.118-.357.12-.357.118-.357.12-.475.118-.476.119-.476.119-.476.119-.476.119-.476.119-.476.119-.476.119-.594v-5.354l-.12-.476-.118-.476-.12-.475-.118-.476-.119-.476-.238-.476-.238-.476-.238-.476-.238-.476-.357-.356-.357-.357-.356-.238-.357-.238-.357-.12-.238-.118-.238-.12-.238-.118-.238-.119-.238-.119-.238-.119-.238-.119h-1.665l-.12-.119-.118-.119v-.119l.119-.238.119-.238.119-.238.119-.238.119-.237.119-.238.119-.238.119-.357v-.357l.118-.714v-2.141l-.118-.714-.12-.714-.118-.714-.12-.713-.237-.714-.238-.714-.238-.714-.238-.714-.238-.713-.238-.714-.238-.714-.238-.714-.238-.714-.238-.713-.238-.714-.238-.714-.237-.714-.238-.714-.238-.594-.12-.595-.118-.595-.12-.595-.118-.595-.12-.595v-1.784l.239-2.855-2.617.357-.476.119-.476.119-.476.119-.476.119-.476.119-.476.118-.594.12-.595.118-.595.12-.595.237-.595.238-.595.238-.594.238-.595.238-.595.238-.595.238-.476.238-.476.357-.476.357-.475.357-.476.356-.476.357-.476.357-.476.476-.357.476-.357.476-.357.476-.356.476-.238.594-.238.595-.238.595-.12.833v1.665l.12.833.238.833.238.714.357.713.356.714.357.714.357.714.476.714.476.713.476.714.476.714.476.595.475.595.476.594.357.595.357.595.357.595.238.476.238.476.238.475.119.357.119.357v.714l-.12.119-.118.119-.238.238-.238.119-.238.119h-.952z" class="st3" style="clip-rule:evenodd;fill-rule:evenodd;stroke-width:1.18966"/><path d="M354.79 521.844c5.353-1.427 13.086 1.071 14.275 6.068 1.547 6.424-10.944 14.038-5.472 17.725 4.878 3.213 15.347-10.35 20.938-19.39-.595 5.234-1.785 10.706-5.591 16.654 5.948 1.07 11.896-1.903 17.844-5.353-4.52 8.208-12.967 17.012-22.96 22.484-9.041 4.997-15.584 6.662-20.581 5.354-2.736-.714-5.71-2.974-6.9-5.83-1.428-3.212-2.022-11.777.833-13.562 3.45-2.022 3.926 1.785 6.186.12 2.26-1.547-2.022-3.45-2.26-5.83-.833-6.9 4.64-11.54 3.688-18.44m-96.244.12c-4.52.594-12.253 3.092-13.443 8.089-1.546 6.424 11.421 14.99 5.83 18.559-4.878 3.33-15.704-9.994-21.295-19.035.595 5.235 1.784 10.707 5.591 16.655-5.948 1.071-11.896-1.903-17.845-5.353 4.521 8.208 12.968 17.012 22.96 22.484 9.042 4.997 15.585 6.662 20.582 5.354 2.736-.714 5.71-2.974 6.9-5.83 1.427-3.212 2.022-11.777-.833-13.562-3.45-2.022-2.141-.238-4.402-1.784-2.26-1.547.12-1.547.476-3.807 1.07-6.9-5.353-14.752-4.52-21.77" class="st4" style="clip-rule:evenodd;fill:#00aeef;fill-rule:evenodd;stroke-width:1.18966"/><path d="M354.79 521.844c5.353-1.427 13.086 1.071 14.275 6.068 1.547 6.424-10.944 14.038-5.472 17.725 4.878 3.213 15.347-10.35 20.938-19.39-.595 5.234-1.785 10.706-5.591 16.654 5.948 1.07 11.896-1.903 17.844-5.353-4.52 8.208-12.967 17.012-22.96 22.484-9.041 4.997-15.584 6.662-20.581 5.354-2.736-.714-5.71-2.974-6.9-5.83-1.428-3.212-2.022-11.777.833-13.562 3.45-2.022 3.926 1.785 6.186.12 2.26-1.547-2.022-3.45-2.26-5.83-.833-6.9 4.64-11.54 3.688-18.44zm-96.244.12c-4.52.594-12.253 3.092-13.443 8.089-1.546 6.424 11.421 14.99 5.83 18.559-4.878 3.33-15.704-9.994-21.295-19.035.595 5.235 1.784 10.707 5.591 16.655-5.948 1.071-11.896-1.903-17.845-5.353 4.521 8.208 12.968 17.012 22.96 22.484 9.042 4.997 15.585 6.662 20.582 5.354 2.736-.714 5.71-2.974 6.9-5.83 1.427-3.212 2.022-11.777-.833-13.562-3.45-2.022-2.141-.238-4.402-1.784-2.26-1.547.12-1.547.476-3.807 1.07-6.9-5.353-14.752-4.52-21.77z" class="st11" style="fill:none;stroke:#000;stroke-width:1.18966;stroke-miterlimit:2.613"/><path d="m124.8 225.3 1.2.5 1.2.5 1.2.5 1.2.5 1.1.6 1.2.5 1.1.5 1.2.5 1.1.5 1.1.5 1.1.5 1.1.4 1.1.4 1.1.4 1.1.4 1.1.3 1.1.3 1.1.2 1.1.3 1.1.1 1 .1 1.1.1h2l.9-.1.9-.1.9-.2.9-.2 1-.2.9-.2 1-.3 1-.3 1-.3 1-.3 1-.4 1-.4 1.1-.4 1-.4 1.1-.4 1.1-.4 1.1-.5 1.1-.4 1.1-.5 1.2-.5 1.1-.4 1.2-.5 1.2-.5 1.2-.4 1.2-.5 1.2-.4 1.2-.5 1.3-.4 1.3-.4 1.3-.4 1.3-.4 1.7-.4 1.6-.3 1.6-.2h2.8l1.2.3 1.2.3 1.1.5 1 .5.8.7.8.8.6.9.5.9.3 1 .2 1.1.1 1.1v1.1l-.2 1.1-.3 1.2-.4 1.1-.5 1.2-.6 1.2-.8 1.1-.8 1.1-1 1.1-1.1 1.1-1.2 1-1.3 1-1.4 1-1.6.9-1.6.8-1.8.8-1 .4-1 .4-1.1.5-1 .4-1.1.4-1.1.5-1.1.4-1.2.5-1.1.4-1.1.5-1.2.4-1.2.4-1.2.4-1.1.5-1.2.4-1.2.4-1.2.4-1.2.3-1.2.4-1.2.3-1.3.4-1.2.3-1.2.2-1.2.3-1.2.3-1.2.2-1.1.2-1.2.1-1.2.2-1.2.1h-1.1l-1.2.1h-1.3l-1.2-.1h-1.3l-1.2-.1-1.3-.2-1.2-.2-1.2-.2-1.2-.2-1.2-.3-1.2-.2-1.2-.4-1.2-.3-1.2-.3-1.2-.4-1.1-.4-1.2-.4-1.1-.4-1.2-.4-1.1-.5-1.2-.4-1.1-.5-1.1-.4-1.2-.5-1.1-.4-1.1-.5-1.2-.4-1.1-.5-1.1-.4-1.2-.4-1.1-.5-1.1-.4-1.2-.4-1.9-.7-1.7-.7-1.6-.8-1.4-.9-1.3-.9-1.2-1-1-1-.9-1-.8-1.1-.6-1-.5-1.1-.4-1.2-.2-1.1-.1-1.1v-1.1l.2-1.1.2-1 .4-1 .5-1 .6-.9.7-.8.8-.8.9-.7 1-.6 1-.6 1.1-.5 1.2-.3 1.3-.3 1.3-.2 1.4-.1h1.4l1.4.2 1.4.1 1.3.3 1.3.3 1.3.3 1.2.4 1.3.4 1.2.4 1.2.4z" class="st3" style="clip-rule:evenodd;fill-rule:evenodd" transform="matrix(1.18966 0 0 1.18966 130.42 255.837)"/><path d="M265.208 521.844c16.18 2.023 29.742 14.276 44.494 13.92 11.896-.239 25.34-8.804 41.638-13.563 21.294-6.186 22.246 16.18 0 25.34-12.61 5.234-29.504 12.253-43.423 12.61-15.703.357-29.503-7.495-44.136-12.61-23.912-8.09-16.298-27.957 1.427-25.697" class="st4" style="clip-rule:evenodd;fill:#00aeef;fill-rule:evenodd;stroke-width:1.18966"/><path d="M265.208 521.844c16.18 2.023 29.742 14.276 44.494 13.92 11.896-.239 25.34-8.804 41.638-13.563 21.294-6.186 22.246 16.18 0 25.34-12.61 5.234-29.504 12.253-43.423 12.61-15.703.357-29.503-7.495-44.136-12.61-23.912-8.09-16.298-27.957 1.427-25.697z" class="st11" style="fill:none;stroke:#000;stroke-width:1.18966;stroke-miterlimit:2.613"/><path d="m283.886 538.38-3.212-1.19-.952 2.975-.476 1.309-.356 1.19-.12.237v.238l-.237.595c-.12.238-.12.357-.238.476-.357.952-.952 1.546-1.547 1.903s-1.308.357-2.141.12l-.476-.12-.238-.119-.357-.238-.357-.356.595-2.023.357.357c.119.119.357.238.476.238.357.119.595.119.833-.119.118-.119.237-.357.356-.595l.357-.952.595-1.784.357-1.07.833-2.737.833-2.498 7.851 2.855-3.807 11.896-2.379-.832zm3.688 9.042.595.476.357.238.238.119c.357.119.594.119.951 0 .238-.12.476-.357.476-.595 0-.12.12-.357 0-.595v-.357c0-.119 0-.357-.119-.595l-1.427-8.446 2.736.833.952 7.256 3.925-5.829 2.618.714-5.949 7.852c-.832 1.07-1.546 1.784-2.26 2.26-.714.357-1.427.476-2.26.119-.238-.119-.595-.238-.833-.357l-.476-.357zm18.44.833-1.666.238-1.546.119c-1.547-.12-2.499-.357-2.975-1.071-.475-.595-.594-1.428-.594-2.38l.119-4.64 2.379.12-.12 3.926c0 .714.12 1.19.477 1.546.357.238.833.476 1.665.476h1.19l.595-.119.476-.119.119-5.591 2.498.119-.238 12.491-2.498-.119zm6.543.238 2.974-.238-1.785-4.878zm-.357-7.733 2.855-.238 4.997 12.134-2.737.238-.951-2.498-4.402.357-.714 2.617-2.617.238zm5.591-.833 2.38-.595 1.07 4.64 4.52-1.19-1.07-4.64 2.38-.594 2.736 12.134-2.38.595-1.19-5.472-4.52 1.19 1.19 5.472-2.38.595zm11.064-3.093 2.26-.833 2.499 8.09 2.022-9.636 2.38-.833 3.687 11.896-2.26.833-2.498-8.09-2.023 9.637-2.379.833zM251.408 548.968c-4.877 3.332-15.703-9.517-21.294-18.558.594 5.234 1.784 10.707 5.591 16.655-5.948 1.07-11.897-1.903-17.845-5.353 4.52 8.208 13.205 16.06 23.198 21.532-4.044-7.138-6.424-2.379-5.115-10.469 1.428-7.732 8.803 2.023 15.465-3.807M263.78 547.66c-6.066-2.736-10.587-5.948-12.847-9.16-6.781-9.518 2.617-18.916 17.488-15.704-3.213 2.974-7.02 3.212-8.923 5.235-1.903 2.022-2.974 4.52-2.974 6.305 0 1.784 10.707 4.64 11.302 6.067 1.308 2.498-12.135.357-4.045 7.257m77.209-21.176c14.513-7.138 26.41-5.234 26.41 1.07 0 5.949-4.164 16.061-20.343 21.89 7.495-3.688 9.517-11.301 9.398-16.655-.119-5.71-10.469-8.327-15.465-6.305M362.88 545.518c5.828 3.807 16.178-9.16 21.294-18.558-.595 5.234-1.784 10.707-5.591 16.655 5.948 1.07 11.896-1.903 17.844-5.353-4.52 8.208-13.205 16.06-23.198 21.532 4.045-7.138 6.424-2.379 5.116-10.469-1.428-7.613-8.685 2.023-15.466-3.807M218.812 425.363c1.665 0 2.855 1.547 2.498 3.57s-2.022 3.568-3.688 3.568c-1.665 0-2.855-1.546-2.498-3.569s2.022-3.569 3.688-3.569M397.617 351.01c1.785 0 3.212 1.546 3.093 3.569s-1.665 3.569-3.45 3.569c-1.784 0-3.212-1.547-3.093-3.57s1.666-3.568 3.45-3.568" class="st3" style="clip-rule:evenodd;fill-rule:evenodd;stroke-width:1.18966"/><path d="M383.222 349.94c.12.713.238 1.427.238 2.14v4.997c0 2.141.12 4.164.12 6.305 0 1.071.118 2.26 0 3.331 0 .952-.12 1.785-.12 2.737 0 .713 0 1.546-.119 2.26-.119.476-.238 1.07-.357 1.546v.833c.12.357.12.833.357 1.19.238.357.714.714 1.19.833.595.238 1.19.356 1.784.238.714-.12 1.428-.476 2.142-.833a15 15 0 0 0 2.26-1.547c.476-.476.952-.952 1.309-1.427s.476-1.071.595-1.666a3.4 3.4 0 0 0 0-1.546c-.12-.476-.357-.833-.476-1.31-.238-.356-.476-.713-.714-1.189s-.476-.951-.595-1.427c-.238-.833-.357-1.547-.357-2.38-.238-4.163-.238-8.327-.357-12.61 0-.595-.119-1.07-.119-1.666-.119-.475-.238-1.07-.238-1.546 0-.357-.119-.714 0-.952 0-.357.12-.714.238-1.07q.18-.536.714-.714a4.4 4.4 0 0 1 1.309-.595c.595-.238 1.308-.357 1.903-.714a2.8 2.8 0 0 0 1.07-.952c.358-.357.596-.713.715-1.19.119-.356.119-.713.119-1.189 0-.357 0-.714-.12-1.07-.118-.358-.356-.595-.594-.833-.357-.238-.714-.476-1.07-.595-.477-.12-.953-.12-1.428-.12q-.714 0-1.428.358c-.595.238-1.07.595-1.666.951-.594.357-1.19.833-1.784 1.19s-1.309.595-2.022.833l-2.142 1.07c-.595.238-1.19.476-1.784.595-.595.238-1.309.357-1.904.595s-1.308.238-1.903.476c-.476.238-.833.476-1.19.714a5.3 5.3 0 0 0-.952 1.308c-.238.357-.475.833-.475 1.19a2.9 2.9 0 0 0 0 1.428c.119.357.356.832.713 1.07.357.357.952.476 1.428.595.476.12.952.12 1.546 0 .595-.119 1.071-.238 1.547-.476.238-.119.476-.475.714-.713.238-.12.476-.238.714-.238s.475 0 .713.119a.93.93 0 0 1 .476.475c0 .595-.119.833 0 1.19m-16.536 29.385c.238.119.595.357.833.357a1.65 1.65 0 0 0 1.07 0c.476-.238.833-.595 1.19-1.071.357-.357.714-.833.952-1.309.238-.357.595-.833.714-1.308.238-.476.238-1.071.357-1.547s.238-1.07.475-1.546c.238-.357.595-.595.833-.833.357-.238.714-.476 1.19-.714.357-.119.714-.357 1.07-.357s.833 0 1.19.119c.238.119.357.238.595.357.238.238.357.476.476.714.119.357.119.595.119.951 0 .357 0 .714-.12 1.071a3.6 3.6 0 0 1-.475.952c-.357.357-.833.714-1.07 1.07-.477.595-.833 1.31-1.31 1.904-.356.476-.594.952-.951 1.428-.238.475-.357.951-.595 1.427-.119.357-.238.714-.476 1.07-.357.477-.713.834-1.07 1.19-.357.357-.714.833-1.19 1.19-.238.238-.595.357-.952.595s-.833.357-1.19.476c-.475.119-.951.119-1.427.119s-.833 0-1.309-.12a20 20 0 0 1-1.308-.356c-.476-.238-1.07-.476-1.547-.833q-.893-.536-1.784-1.427a3.7 3.7 0 0 1-1.071-1.309c-.357-.595-.595-1.19-.833-1.784-.238-.833-.476-1.547-.595-2.38l-.356-1.784c-.12-1.309-.238-2.736-.12-4.045q0-1.963.357-3.926c.12-.952.357-1.784.595-2.617.238-1.07.476-2.26.714-3.331.238-1.19.476-2.38.714-3.45.238-.952.595-2.023 1.07-2.855.476-.714 1.19-1.19 1.785-1.904.476-.476.833-1.19 1.309-1.665.357-.357.713-.476 1.19-.714.356-.12.713-.12 1.07-.357l.714-.357c.357-.238.595-.595.952-.833.356-.238.713-.357 1.07-.476s.833-.119 1.19-.119c.476 0 .952.12 1.309.357.594.357 1.07.833 1.546 1.309.476.357.952.833 1.309 1.309.357.475.713 1.07.951 1.546.238.595.357 1.19.476 1.785.12.713.238 1.308.238 2.022 0 .595 0 1.309-.119 1.903-.119.833-.357 1.666-.595 2.38s-.475 1.427-.832 2.022c-.238.476-.476.952-.833 1.428s-.833.833-1.19 1.19c-.238.237-.476.713-.833.832a2.3 2.3 0 0 1-1.19.357c-.356 0-.713-.238-1.07-.595s-.476-.951-.714-1.427c-.119-.476-.238-.952-.238-1.428-.119-.476-.119-.952-.119-1.427 0-.595.238-1.19.357-1.666.12-.476.476-.952.714-1.428.238-.356.476-.713.595-1.07s.238-.714.238-1.071 0-.714-.12-1.07a2.6 2.6 0 0 0-.594-.952 1.29 1.29 0 0 0-.833-.357h-.832c-.238.119-.595.238-.714.357-.238.238-.595.475-.714.713-.238.357-.357.714-.476 1.19-.119.952-.119 1.785-.119 2.736 0 .595-.119 1.07-.238 1.666-.119.833-.357 1.665-.595 2.617-.119.714-.356 1.309-.356 2.022-.12 1.31-.12 2.618-.238 3.807v3.212c0 .714.238 1.547.356 2.26l.357 1.785a7 7 0 0 0 .595 1.666c-.119 0 .238.119.476.357m-24.983-11.897c-.357.357-.713.595-1.07.952s-.714.714-1.071 1.19c-.357.594-.595 1.19-.833 1.784-.238.714-.476 1.547-.595 2.38-.119.832-.238 1.784-.357 2.735-.119 1.19-.119 2.38-.119 3.45v2.142c0 .238.12.595.12.833.118.357.237.594.475.832.12.238.357.357.476.595.12.238.238.595.238.833.12.595.12 1.19.12 1.784 0 .476 0 .952.118 1.428.119.595.238 1.07.476 1.666.119.237.357.475.595.594q.536.357 1.07.357c.476.12.833.12 1.309 0 .476-.119.833-.238 1.19-.476.476-.238.832-.475 1.19-.951.475-.595.713-1.309.951-1.904s.476-1.07.595-1.665c.119-.714.238-1.547.357-2.38.119-1.07.238-2.141.238-3.212 0-1.308-.12-2.736-.12-4.044 0-1.19.12-2.38 0-3.688 0-.357-.237-.595-.356-.952-.12-.357-.357-.595-.476-.952-.119-.595 0-1.308-.119-1.903 0-.357 0-.714-.119-.952-.119-.357-.238-.595-.476-.833s-.476-.357-.714-.476c-.475-.119-.832-.119-1.308-.119-.357 0-.714.238-1.07.357-.239.238-.477.476-.715.595m2.618-6.662c-.357 0-.833 0-1.19.119l-1.785.357c-.594.238-1.07.476-1.665.714-.595.357-1.19.713-1.785 1.19-.475.475-.951.832-1.427 1.427s-1.07 1.07-1.428 1.784c-.476.714-.951 1.428-1.427 2.26-.476 1.071-.952 2.142-1.19 3.332-.238 1.07-.476 2.141-.595 3.212-.238 1.19-.357 2.26-.595 3.45-.119 1.07-.357 2.141-.476 3.212 0 .952 0 2.022.12 2.974.118 1.07.118 2.022.356 3.093.238.952.476 1.785.833 2.736.238.595.595 1.19.952 1.785.238.357.595.714.952 1.07.475.476.951.952 1.546 1.31.595.475 1.309.832 2.023 1.07.713.238 1.427.357 2.14.476.596.119 1.19.238 1.904.238.595 0 1.19 0 1.785-.12.714-.118 1.427-.118 2.141-.475.833-.357 1.666-.833 2.38-1.428.713-.595 1.308-1.427 1.903-2.141a17 17 0 0 0 1.665-2.38c.476-.832.714-1.665 1.071-2.617.357-.713.714-1.427.952-2.26.238-.952.238-1.903.238-2.855 0-1.666.119-3.331 0-5.116 0-1.19-.238-2.498-.357-3.688-.119-1.308-.119-2.498-.476-3.807-.238-.951-.595-1.903-.952-2.855-.357-.832-.594-1.665-1.07-2.38-.357-.594-.952-.95-1.428-1.427-.476-.475-1.07-.951-1.665-1.427-.357-.238-.833-.357-1.31-.476-.832-.357-1.546-.357-2.14-.357m-31.764 38.664v1.665c0 .357.119.833.119 1.19.119.357.119.714.357.952s.594.357.951.357.714 0 1.071-.12c.476-.118.952-.237 1.309-.475s.713-.595 1.07-.952.595-.833.833-1.19c.12-.356.12-.832.12-1.308v-2.023c-.12-.713-.358-1.427-.358-2.141-.119-1.309-.238-2.736-.238-4.045v-5.353c0-.833.12-1.666.12-2.499 0-.951.118-1.903.118-2.736 0-.714.12-1.427 0-2.141 0-.238 0-.595-.119-.714a.9.9 0 0 0-.595-.238 1.65 1.65 0 0 0-1.07 0c-.238 0-.595.12-.833.238-.357.238-.595.595-.952.952-.238.357-.595.714-.714 1.19-.238.713-.356 1.546-.594 2.26-.12.595-.238 1.19-.357 1.665-.12.952-.238 1.904-.238 2.737-.12.713-.12 1.427-.12 2.14 0 3.332.12 6.9.12 10.589m-24.27.952h-.95c-.239 0-.358-.12-.477-.357-.119-.238-.238-.476-.238-.714-.119-2.023 0-3.926 0-5.948 0-.12.12-.238.12-.357.118-.12.118-.238.237-.357.12-.12.357-.238.476-.357.119-.12.357-.12.595-.12.357 0 .595-.118.952-.118h.713c.12 0 .238 0 .357.119.12.119.12.119.12.238 0 .476.118.952.118 1.308v5.472c0 .12 0 .358-.119.477s-.238.238-.238.357c-.119.119-.238.238-.476.238h-.475c-.357.119-.595.119-.714.119m-7.138 12.848c-.476.119-.952-.12-1.428.119-.476.119-1.07.476-1.427.833a5.3 5.3 0 0 0-.952 1.308c-.238.714-.476 1.428-.476 2.26 0 .595 0 1.31.12 1.904.237.595.594 1.07.95 1.547.358.356.715.832 1.19 1.07.357.238.833.476 1.31.595.594.119 1.308.357 1.903.238.713-.119 1.308-.476 1.903-.833s1.07-.952 1.547-1.427c.356-.476.713-.952.951-1.428a6.7 6.7 0 0 0 .357-2.141c0-2.38-.119-4.759-.238-7.138 0-.952-.119-1.785-.119-2.736 0-.476 0-.952.12-1.428.237-.476.594-.833.95-1.07.358-.239.834-.239 1.31-.239.475 0 .951 0 1.308.238s.595.595.833.952c.238.476.238.952.238 1.428.119.594.238 1.19.238 1.784.119.714.119 1.547.238 2.26 0 .595 0 1.071.119 1.666q.179.893.713 1.784c.238.476.714.714 1.19.952.476.357.952.595 1.547.714s1.19.238 1.784.238 1.19-.12 1.785-.476c.476-.238.832-.595 1.19-.952.475-.357.832-.833 1.189-1.19.476-.356.833-.832 1.309-1.19.238-.237.594-.356.832-.475s.476-.119.595-.119c.357.12.595.357.833.476.357.238.714.595 1.19.833.356.238.832.357 1.19.357.475 0 1.07-.12 1.427-.476.357-.357.476-.952.595-1.428.238-.476.476-1.07.713-1.546.238-.476.357-.833.714-1.19a2.6 2.6 0 0 1 .952-.595c.595-.119 1.19-.119 1.784-.238.714-.119 1.547-.238 2.26-.476a39 39 0 0 0 2.023-.713l1.07-.714c.358-.357.715-.714 1.072-.952.238-.119.356-.357.594-.476a.9.9 0 0 1 .595-.238c.238 0 .476 0 .595.12.476.118.833.356 1.19.594.476.238.951.476 1.427.595.357.119.714.238 1.19.238.476.119.952.238 1.428.119.475-.12.951-.238 1.308-.595s.595-.714.833-1.19c.238-.357.238-.832.357-1.308s.119-1.071.119-1.547c0-.357-.12-.595-.357-.833a3.6 3.6 0 0 0-.952-.951c-.357-.238-.714-.357-1.19-.476-.356-.12-.832-.12-1.19-.238-.356-.12-.594-.238-.832-.476s-.595-.476-.714-.833c-.238-.714-.238-1.427-.238-2.141-.119-2.023-.238-4.045-.238-5.948 0-1.547-.119-2.975-.119-4.521 0-1.785.12-3.57.12-5.354 0-1.07.118-2.022.237-2.974.12-1.07.238-2.022.476-3.093.12-.476.12-1.07.238-1.546v-.952c0-.238 0-.595-.119-.833s-.357-.595-.595-.714c-.475-.238-.951-.119-1.427-.119-.595 0-1.07.12-1.547.357-3.926 1.666-7.851 3.45-11.658 5.235-.476.238-.833.476-1.19.833a2.6 2.6 0 0 0-.595.951c-.119.357-.119.714-.119 1.19 0 .357 0 .714.12 1.19.118 1.308.356 2.736.475 4.044v1.904c0 .952-.238 1.784-.238 2.617-.119 1.07-.119 2.141-.119 3.212 0 1.428-.119 2.736-.119 4.164 0 1.309.12 2.617.12 3.926 0 .595.237 1.19.237 1.903 0 .952.119 2.023 0 2.974 0 .357-.238.833-.476 1.19-.238.476-.595.952-.952 1.547-.356.475-.713.951-.951 1.546-.12.12 0 .357-.12.476-.118.238-.118.476-.237.595-.238.119-.595.119-.952.119-.238 0-.476-.12-.714-.238l-.713-.714c-.238-.119-.476-.238-.595-.238-.357 0-.595.12-.833.238-.238.119-.357.357-.476.476l-.714.714a.9.9 0 0 1-.595.238c-.356 0-.713-.12-.832-.238-.238-.238-.357-.714-.476-1.071-.238-1.665-.357-3.45-.476-5.115-.119-1.785-.119-3.45-.119-5.235 0-1.665 0-3.212.119-4.878 0-1.308.119-2.498.238-3.806.119-1.071.119-2.142.238-3.213.119-.832.357-1.665.357-2.498 0-.476 0-1.07-.12-1.546-.118-.357-.356-.833-.713-.952-.476-.238-1.19-.357-1.785-.357-.713 0-1.427.238-2.14.595-.953.476-1.785 1.07-2.618 1.665-.595.357-1.19.833-1.785 1.19-.832.476-1.665.714-2.617 1.07-.595.239-1.19.358-1.784.596l-1.785.713c-.357.238-.595.476-.833.714-.238.357-.594.714-.594 1.07-.12.239 0 .596.119.834a8.3 8.3 0 0 0 .594 1.546c.238.476.357.833.595 1.309.12.357.357.714.476 1.19.119.237.119.475.119.832 0 .238-.238.476-.238.833l-.357 1.784c-.119.476-.238 1.071-.238 1.547v1.547c0 .356 0 .713-.119 1.07-.119.238-.238.476-.476.595-.237.238-.356.595-.594.833-.357.238-.952.476-1.428.595-.357.119-.833.119-1.19.357-.357.118-.594.475-.832.713s-.476.476-.476.833c-.12.357-.12.595 0 .952 0 .238.238.595.357.833.238.237.476.475.713.594.357.12.714.238.952.238l1.07.357c.358.12.834.357.953.595.238.357.356.952.475 1.428.12.594.12 1.07.12 1.665 0 .357-.12.833-.239 1.19-.594-.357-.951-.238-1.308-.12m-59.959 31.527c0-.476 0-.952.238-1.309.238-.476.833-.833 1.19-1.19.476-.594 1.19-1.07 1.427-1.784s.238-1.547.12-2.38c0-.475-.12-1.07-.358-1.427-.118-.238-.356-.357-.713-.476-.476-.119-1.071-.357-1.547-.238-.595.12-1.19.357-1.665.714-.595.476-1.19.952-1.547 1.547-.476.594-.833 1.308-1.07 2.022-.358 1.07-.358 2.141-.476 3.212 0 .714 0 1.428.118 2.141.12.714.12 1.428.476 2.023.238.714.714 1.308 1.19 1.784.476.595.952 1.071 1.547 1.428.475.238.951.357 1.546.476.595 0 1.309 0 1.904-.12.475-.118 1.07-.475 1.427-.832.833-.714 1.666-1.428 2.38-2.26a19.6 19.6 0 0 0 2.26-3.212c.476-.714.476-1.666.714-2.499.119-.832.238-1.784.238-2.736 0-1.308-.12-2.498-.12-3.807 0-1.427-.118-2.736.12-4.164 0-.475.237-.832.475-1.19a2.6 2.6 0 0 1 .952-.594c.357-.119.833-.119 1.19.119s.476.595.595 1.07c.119.358 0 .833.119 1.19.119.476.119.833.356 1.19.238.357.476.595.833.714.357.238.833.357 1.309.357s.952-.12 1.308-.357c.357-.238.476-.833.714-1.19.12-.238.238-.476.476-.714a.9.9 0 0 1 .595-.238c.119 0 .357 0 .476.12.238.118.238.475.357.713l.357 1.785c.119.357.119.832.238 1.19.237.356.475.832.832 1.07.357.357.714.476 1.071.714.357.119.595.238.952.357.476.119.951.238 1.427.238s.952-.238 1.428-.476.833-.357 1.19-.714c.356-.476.594-.952.832-1.547.238-.357.357-.832.476-1.19.12-.356.12-.713.238-1.07.119-.238.238-.476.476-.595s.476-.238.714-.238.476.12.714.238c.356.238.594.595.832.952.238.238.476.476.833.714s.833.357 1.19.476c.476 0 1.07-.12 1.546-.238.595-.238 1.07-.595 1.547-.952.595-.476 1.07-1.19 1.427-1.785.476-.951.833-1.903 1.071-2.974.357-1.07.714-2.022.714-3.093.238-5.353.119-10.707.238-16.06 0-1.19.119-2.26.238-3.45.119-.714.119-1.428.357-2.142.119-.594.357-1.19.713-1.546.357-.476.714-.833 1.19-1.07.357-.239.833-.358 1.309-.477.238 0 .595.12.832.238q.357.18.357.714c.12.357 0 .714 0 1.07l-.357 1.428-.713 2.142c-.238.951-.238 1.903-.357 2.736-.12 1.19-.12 2.38-.238 3.569-.12 1.428-.12 2.736-.12 4.164v3.33c0 1.071.12 2.023.239 3.094.119.595.357 1.308.714 1.784.356.714.951 1.309 1.546 1.785.476.357 1.07.714 1.666.952.357.119.832 0 1.19 0 .475 0 .951 0 1.427-.238.595-.238 1.19-.714 1.665-1.071a5.1 5.1 0 0 0 1.309-1.428c.357-.476.714-1.07.833-1.665.238-.595.357-1.07.357-1.666 0-.476-.12-.951-.238-1.427-.12-.357-.357-.714-.595-1.071-.238-.238-.476-.238-.714-.238-.238-.119-.595-.119-.833-.119s-.475.238-.713.357c-.12.119-.12.476-.238.595-.12.119-.357.119-.595 0-.238-.12-.357-.238-.476-.357-.119-.238-.238-.595-.238-.833.119-2.736.238-5.353.476-8.09.119-1.19.119-2.498.238-3.687.119-1.19.476-2.26.714-3.45.238-1.309.475-2.737.713-4.045.12-.833.238-1.547.238-2.38 0-.594.12-1.308-.119-1.903-.119-.476-.357-1.07-.713-1.428-.238-.356-.714-.594-1.19-.713a4 4 0 0 0-2.022.119c-1.904.713-3.807 1.784-5.592 2.736-1.546.833-3.093 1.546-4.64 2.498-.356.238-.713.476-1.07.833-.238.357-.595.595-.714 1.07-.119.357-.238.714-.238 1.071v.952c.119.476.357.952.476 1.428.119 1.427.238 2.855.238 4.282 0 1.309-.357 2.618-.476 4.045-.119 1.309-.357 2.736-.476 4.045-.119 1.07-.357 2.141-.476 3.093-.119.595-.119 1.07-.119 1.666 0 .594.238 1.07.238 1.665v1.904c0 .237-.119.475-.238.713q-.179.357-.713.714a2.6 2.6 0 0 1-.952.595c-.357.119-.714 0-1.07.119-.358.119-.596.357-.834.476-.357.238-.594.595-.832.952l-.714 1.07c-.238.238-.357.595-.714.833-.238.119-.476.238-.714.238-.357 0-.714 0-1.07-.12-.357 0-.714-.118-.952-.237-.357-.119-.595-.357-.833-.714-.238-.238-.476-.595-.714-.952-.238-.475-.357-.951-.238-1.427.12-2.617.238-5.235.595-7.852.12-1.07.476-2.022.714-3.093.238-1.07.476-2.141.595-3.212.119-1.07.238-2.141.238-3.331 0-.714.119-1.428-.12-2.141-.118-.476-.356-.833-.713-1.19a1.85 1.85 0 0 0-.952-.714c-.357-.119-.833-.238-1.308-.119-.595 0-1.19.238-1.666.476-.595.238-1.07.595-1.665.833-.476.238-1.071.476-1.547.714s-1.07.238-1.547.475c-.356.238-.713.595-1.07.952-.238.357-.357.833-.476 1.19-.12.357-.12.833-.12 1.19.12.356.358.713.477 1.07.238.357.595.595.833 1.07.237.358.475.834.475 1.19.12.952.12 1.904.12 2.975 0 .476-.12.951-.239 1.308-.119.238-.356.476-.594.714s-.476.357-.833.476c-.238.119-.357 0-.595-.119a1.43 1.43 0 0 1-.595-.595 2.3 2.3 0 0 1-.357-1.19c-.119-1.546 0-3.212-.119-4.758 0-.238 0-.595-.119-.833s-.238-.595-.475-.714q-.357-.357-.714-.357c-.595-.119-1.071 0-1.666.12-.833.118-1.784.237-2.617.475l-2.141.714c-.476.238-1.071.357-1.547.714-.357.238-.595.595-.833.833-.119.238-.238.475-.357.832-.119.476-.238.833-.119 1.309 0 .357.238.833.476 1.19.12.357.238.713.476 1.07.12.357.476.595.595.833.119.476.238 1.07.238 1.547 0 1.07-.238 2.141-.476 3.093-.119.832-.357 1.665-.476 2.498-.119 1.07-.357 2.022-.357 3.093-.119 1.19-.119 2.38-.119 3.45v2.38c0 .475.12 1.07.12 1.546s.118.952.237 1.428c.12.475.12.951.238 1.427 0 .357.12.833.12 1.19s-.239.595-.239.833c-.238.713-.357 1.427-.714 2.14-.119.358-.357.715-.475 1.072-.238.357-.357.713-.714.951-.238.12-.595.238-.833.238s-.595 0-.833-.119c-.119-.713-.119-.951-.119-1.308" class="st3" style="clip-rule:evenodd;fill-rule:evenodd;stroke-width:1.18966"/><path d="m276.867 582.04-2.38-.356-2.379-.476-2.379-.476-2.38-.476-2.26-.475-2.26-.595-2.26-.595-2.26-.595-2.26-.714-2.142-.714-2.142-.713-2.141-.714-2.141-.833-2.142-.833-2.141-.832-2.142-.952-2.14-.952-2.142-1.07-2.142-1.071-2.141-1.07-2.141-1.19-2.142-1.19-2.141-1.19-2.142-1.308-2.14-1.31-2.142-1.427-2.142-1.427-2.141-1.547-1.785-1.308-1.784-1.31-1.666-1.308-1.665-1.427-1.666-1.428-1.665-1.427-1.547-1.428-1.546-1.547-1.547-1.546-1.546-1.547-1.428-1.546-1.427-1.666-1.428-1.665-1.428-1.666-1.427-1.665-1.309-1.785-1.308-1.784-1.31-1.785-1.308-1.784-1.308-1.904-1.309-1.903-1.309-1.904-1.19-1.903-1.189-1.903-1.19-2.023-1.19-2.022-1.189-2.023-1.19-2.022-1.19-2.023-1.189-2.14-1.19-2.142-.118-.12 1.665-4.044 2.38-6.186 2.26-6.187 2.141-6.186 1.904-6.186 1.784-6.186 1.666-6.186 1.427-6.187 1.309-6.305 1.19-6.305.951-6.305.833-6.305.595-6.305.476-6.306.356-6.305.12-6.305v-6.305l-.238-6.305-.357-6.305-.595-6.306-.714-6.305-.952-6.305-1.07-6.305-1.309-6.305-1.428-6.424-1.665-6.425-1.785-6.424-2.022-6.424-2.141-6.424-2.38-6.424-2.498-6.424-1.428-3.331 36.76-36.047.239.12 3.212 1.189 3.212 1.19 3.212 1.189 3.212 1.07 3.212 1.071 3.212 1.071 3.212.952 3.331 1.07 3.212.952 3.212.833 3.212.833 3.212.833 3.213.713 3.212.714 3.212.714 3.212.595 3.212.595 3.212.594 3.212.476 3.212.476 3.212.357 3.212.357 3.212.357 3.212.238 3.212.238 3.212.119 3.213.119 3.212.119h6.424l3.093-.12 3.093.12h6.424l3.212-.12 3.212-.118 3.212-.12 3.212-.237 3.212-.238 3.212-.357 3.213-.357 3.212-.357 3.212-.476 3.212-.476 3.212-.594 3.212-.595 3.212-.595 3.212-.714 3.212-.714 3.212-.713 3.212-.833 3.212-.833 3.212-.833 3.212-.951 3.213-.952 3.212-.952 3.212-1.07 3.212-1.071 3.212-1.071 3.212-1.19 3.212-1.19 3.212-1.189.238-.119 36.76 36.047-1.427 3.33-2.499 6.425-2.379 6.424-2.141 6.424-2.023 6.424-1.784 6.424-1.666 6.424-1.427 6.425-1.309 6.305-1.07 6.305-.952 6.305-.714 6.305-.595 6.306-.357 6.305-.238 6.305v6.305l.12 6.305.356 6.305.476 6.306.595 6.305.833 6.305.951 6.305 1.19 6.305 1.309 6.305 1.427 6.187 1.666 6.186 1.784 6.186 1.904 6.186 2.141 6.186 2.26 6.187 2.38 6.186 1.665 4.045-.119.119-1.19 2.141-1.19 2.141-1.189 2.023-1.19 2.022-1.19 2.023-1.189 2.022-1.19 2.022-1.19 1.904-1.189 1.903-1.308 1.904-1.309 1.903-1.309 1.904-1.308 1.784-1.309 1.785-1.308 1.784-1.31 1.785-1.427 1.665-1.427 1.666-1.428 1.665-1.427 1.666-1.428 1.546-1.547 1.547-1.546 1.546-1.547 1.547-1.546 1.428-1.666 1.427-1.665 1.428-1.666 1.427-1.665 1.309-1.785 1.309-1.784 1.308-2.142 1.547-2.141 1.427-2.141 1.428-2.142 1.308-2.141 1.31-2.142 1.189-2.14 1.19-2.142 1.19-2.142 1.07-2.141 1.07-2.141 1.071-2.142.952-2.141.952-2.142.832-2.14.833-2.142.833-2.023.595-2.141.713-2.141.714-2.26.714-2.261.595-2.26.595-2.26.595-2.261.475-2.38.476-2.379.476-2.38.476-2.378.357-2.499.357-2.498.357-2.498.357-2.618.356-2.498.357-2.498.476-2.38.595-2.26.714-2.141.714-2.023.832-1.903.952-1.784.952-1.547.952-1.428 1.07-1.308 1.071-.12.119-.118-.119-1.309-1.07-1.427-1.071-1.666-.952-1.784-.952-1.904-.952-2.022-.832-2.142-.714-2.26-.714-2.38-.595-2.498-.476-2.498-.357-2.617-.356-2.498-.357-2.499-.357zm-.119.953-2.38-.357-2.378-.476-2.38-.476-2.38-.476-2.378-.595-2.26-.595-2.261-.594-2.26-.595-2.26-.714-2.261-.714-2.142-.714-2.14-.832-2.142-.833-2.142-.833-2.141-.952-2.141-.951-2.142-.952-2.141-1.07-2.142-1.071-2.14-1.071-2.142-1.19-2.142-1.19-2.141-1.308-2.141-1.309-2.142-1.308-2.141-1.428-2.142-1.427-2.141-1.547-1.784-1.309-1.785-1.308-1.665-1.309-1.666-1.427-1.665-1.428-1.666-1.428-1.547-1.427-1.546-1.547-1.547-1.546-1.546-1.547-1.428-1.546-1.427-1.666-1.428-1.665-1.428-1.666-1.427-1.665-1.428-1.785-1.308-1.784-1.309-1.785-1.309-1.784-1.308-1.904-1.309-1.903-1.308-1.904-1.19-1.903-1.19-2.023-1.19-2.022-1.19-2.022-1.189-2.023-1.19-2.022-1.189-2.142-1.19-2.141-1.19-2.141-.356-.595 1.903-4.402 2.38-6.186 2.26-6.186 2.141-6.187 1.904-6.186 1.784-6.186 1.666-6.186 1.427-6.186 1.309-6.187 1.19-6.186.951-6.186.833-6.305.595-6.305.476-6.306.357-6.305.119-6.305v-6.305l-.238-6.305-.357-6.305-.595-6.306-.714-6.305-1.19-6.067-1.07-6.305-1.309-6.305-1.427-6.424-1.666-6.306-1.784-6.305-2.023-6.424-2.141-6.305-2.38-6.424-2.498-6.424-1.665-3.926 37.712-36.88.833.357 3.212 1.19 3.212 1.19 3.212 1.19 3.212 1.07 3.212 1.07 3.212 1.071 3.212.952 3.212.952 3.212.952 3.212.832 3.212.833 2.974.714 3.212.714 3.213.713 3.212.714 3.212.595 3.212.595 3.212.595 3.212.476 3.212.475 3.212.357 3.212.357 3.212.357 3.212.238 3.212.238 3.212.119 3.212.119 3.213.119h6.424l3.093-.12 3.093.12h6.424l3.212-.12 3.212-.118 3.212-.119 3.212-.238 3.212-.238 3.212-.357 3.212-.357 3.213-.357 3.212-.475 3.212-.476 3.212-.595 3.212-.595 3.212-.595 3.212-.714 3.212-.713 2.736-.714 3.212-.833 3.212-.833 3.212-.832 3.213-.952 3.212-.952 3.212-.952 3.212-1.07 3.212-1.071 3.212-1.07 3.212-1.19 3.212-1.19 3.212-1.19.833-.357 37.712 36.88-1.666 3.926-2.498 6.424-2.38 6.424-2.14 6.305-2.023 6.305-1.784 6.305-1.666 6.306-1.428 6.305-1.308 6.305-1.07 6.305-.953 6.305-.713 6.305-.595 6.306-.357 6.305-.238 6.305v6.305l.119 6.305.357 6.306.476 6.305.594 6.305.833 6.305.952 6.186 1.19 6.186 1.308 6.187 1.428 6.186 1.665 6.186 1.785 6.186 1.903 6.186 2.142 6.187 2.26 6.186 2.38 6.186 1.903 4.402-.357.595-1.19 2.141-1.19 2.141-1.19 2.142-1.189 2.022-1.19 2.023-1.19 2.022-1.189 2.022-1.19 2.023-1.189 1.903-1.309 1.904-1.308 1.903-1.309 1.904-1.309 1.784-1.308 1.785-1.309 1.784-1.427 1.785-1.428 1.665-1.428 1.666-1.427 1.665-1.428 1.666-1.427 1.546-1.547 1.547-1.546 1.546-1.547 1.547-1.546 1.427-1.666 1.428-1.666 1.428-1.665 1.427-1.666 1.309-1.784 1.308-1.785 1.31-2.14 1.546-2.142 1.427-2.142 1.428-2.141 1.308-2.141 1.309-2.142 1.309-2.141 1.19-2.142 1.189-2.14 1.07-2.142 1.071-2.142 1.071-2.141.952-2.141.951-2.142.952-2.141.833-2.142.833-2.141.832-2.141.714-2.26.714-2.261.714-2.26.595-2.26.595-2.737.713-2.26.476-2.38.476-2.379.476-2.38.476-2.379.357-2.498.357-2.498.356-2.498.357-2.618.357-2.498.357-2.38.476-2.26.595-2.26.714-2.022.713-1.904.833-1.784.833-1.666.952-1.546.951-1.428.952-1.308 1.07-.714.596-.714-.595-1.309-1.07-1.427-.953-1.547-.951-1.665-.952-1.785-.833-1.903-.833-2.023-.713-2.141-.714-2.26-.595-2.38-.476-2.498-.357-2.617-.357-2.499-.357-2.498-.356z" class="st3" style="clip-rule:evenodd;fill-rule:evenodd;stroke-width:1.18966"/></g></svg>