<svg xmlns="http://www.w3.org/2000/svg" id="Layer_1" data-name="Layer 1" viewBox="-0.28 -0.27 14.04 19.05"><defs><style>.cls-2{fill:#194ea1}</style></defs><path d="M6.62 18.41c-3.29-2.04-5.4-4.43-6.25-7.1C.13 10.54 0 9.78 0 9.05V1.4h4.74C5.48 1.39 6.02.84 6.55.23l.18-.21.18.21c.62.73 1.16 1.18 1.93 1.18h4.63v7.66c0 .67-.11 1.38-.33 2.11-.84 2.76-2.95 5.19-6.29 7.24l-.13.08-.13-.08Z" style="fill:#fff"/><path d="M2.74 12.35c-.2.18-.43.4-.63.58h2.52v-.45h4.24v.45h2.51c-.3-.27-.62-.57-.92-.84.3-.27.62-.56.92-.82H9.43v-.76H4.07v.76H2.11c.3.27.62.56.92.82-.07.06-.21.19-.28.26Zm1.5-.14v-1.52h5.01v1.61H4.24zM3.73 8.17c-.05-.52-.75-.53-.79 0-.07.36.09.84.54.7.27-.1.29-.45.25-.7M11.09 8.37c-.29.02-.64.09-.45.44.13.16.44.08.53-.08.08-.12.08-.27.09-.41-.06.05-.08.04-.17.05M8.55 8.37c-.29.02-.64.09-.45.44.13.16.44.08.53-.08.08-.12.08-.27.09-.41-.06.05-.08.04-.17.05" class="cls-2"/><path d="M8.92 1.64c-.96.03-1.6-.58-2.18-1.27-.52.6-1.13 1.24-1.99 1.25-.06.03-4.32 0-4.51.01v7.42c0 .74.13 1.48.35 2.18.98 3.05 3.49 5.32 6.15 6.97 2.7-1.66 5.24-3.99 6.18-7.11.2-.66.32-1.35.32-2.04V1.63H8.91Zm3.76 8.21c-.5 3.4-3.15 6-5.94 7.76-2.79-1.78-5.5-4.4-5.95-7.83h11.9v.07ZM1.03 9.01V7.18h.27l.97 1.45V7.18h.25v1.83h-.27c-.32-.48-.65-.97-.98-1.45v1.45h-.25Zm2.95-.69c.01.28-.1.59-.38.69-.16.07-.39.07-.55 0-.08-.03-.14-.08-.2-.13-.14-.15-.18-.36-.18-.56 0-.24.09-.49.3-.61.33-.19.85-.07.96.33.03.09.04.18.04.28Zm0-.64h.25c.12.36.26.74.39 1.1.12-.36.25-.74.37-1.1h.25c-.16.44-.33.89-.5 1.33h-.26c-.16-.43-.34-.9-.5-1.33m1.58 0v1.33h-.23V7.68zm-.23-.26v-.24h.23v.24zm3.39.62c.01-.18-.15-.25-.3-.25-.17 0-.37.08-.35.28h-.22c0-.31.27-.46.57-.45.33 0 .53.15.53.45 0 .2 0 .42-.01.62 0 .05 0 .12.04.14a.2.2 0 0 0 .09.02v.16c-.15.03-.34 0-.34-.18-.14.28-.66.32-.84.11-.11-.16-.14-.42.03-.54.16-.11.32-.12.53-.15.13-.02.17 0 .23-.06.02-.02.03-.08.03-.14Zm-.88-.28c-.03.61-.67.51-1.12.52v.73h-.25V7.18h.75c.38-.02.66.2.62.59Zm1.39.08v-.16h1v.16c-.25.33-.52.68-.77 1.01h.81v.16H9.18v-.16c.26-.32.54-.68.8-1.01h-.74Zm2.03.2c.01-.18-.15-.25-.3-.25-.17 0-.37.08-.35.28h-.22c0-.31.27-.46.57-.45.33 0 .53.14.53.45 0 .2 0 .42-.01.62 0 .05 0 .12.04.14a.2.2 0 0 0 .09.02v.16c-.15.03-.34 0-.34-.18-.14.28-.66.32-.84.11-.11-.16-.14-.42.03-.54.16-.11.32-.12.53-.15.13-.02.17 0 .23-.06.02-.02.03-.08.03-.14Zm.68-.11c.07-.21.29-.32.51-.31v.16c-.3 0-.51.17-.51.47V9h-.23V7.67h.23zm.79-1.61H.75V2.15h3.6c.93.03 1.8-.3 2.39-1.03a2.78 2.78 0 0 0 2.18 1.03h3.82v4.18Z" class="cls-2"/><path d="M7.51 7.48c-.14-.15-.59-.09-.79-.1v.69c.14 0 .54.02.66-.03.22-.07.27-.4.13-.56M2.25 5.38h.3v-.99h1.04v-.25H2.55v-.72h1.18v-.25H2.25v2.2ZM5.82 3.18h-.4L4.33 4.27V3.18h-.3v2.2h.3v-.76c.12-.11.23-.23.35-.34l.8 1.1h.39c-.33-.43-.65-.86-.98-1.3.31-.3.61-.6.92-.91ZM5.41 10.96c-.04.12-.18.17-.3.16v.08h.26v.86h.15v-1.15h-.11s0 .03-.01.05ZM6.63 11.24c-.02-.1-.06-.22-.13-.28-.18-.15-.53-.1-.62.14-.06.18-.03.43.15.53.15.08.37.06.47-.07 0 .14-.03.31-.15.38-.12.08-.33.04-.35-.12h-.14c.03.27.34.34.55.24.27-.15.25-.55.22-.82m-.16.14c-.03.15-.23.22-.36.14-.13-.07-.14-.25-.09-.38.05-.14.25-.18.36-.1.1.07.13.22.1.33ZM7.44 10.99c-.13-.15-.42-.15-.56-.05-.11.08-.14.21-.14.33h.15c-.02-.15.08-.28.24-.27.26-.02.3.32.12.44-.22.16-.53.29-.51.61h.78v-.13h-.61c.06-.2.34-.28.48-.42.15-.12.18-.38.05-.52ZM8.32 11.55a.25.25 0 0 0-.15-.1c.31-.13.15-.6-.18-.56-.33-.03-.49.42-.18.56-.26.07-.27.48-.04.61.35.18.77-.12.55-.5Zm-.53-.31c-.01-.06 0-.13.04-.18.07-.09.29-.08.34.04.03.09.02.22-.08.26-.11.06-.29.02-.31-.12Zm.43.56c-.08.32-.56.17-.46-.14.09-.27.54-.16.46.14M8.61 14.72c-.12-1.32-1.7-2.1-2.83-1.39-1.31.76-1.18 2.76.22 3.34 1.29.58 2.8-.54 2.61-1.95m-1.01-.98c.08.06.25.18.32.23-.04.18-.09.39-.13.57-.07.02-.31.1-.38.12-.19-.14-.43-.32-.63-.46v-.39c.14-.08.36-.21.5-.3.07.05.23.17.31.22Zm-1.15-.56c.29-.05.6-.02.87.07-.01.04-.04.13-.05.17-.14.09-.38.22-.52.31-.15-.09-.38-.22-.52-.31-.01-.04-.04-.13-.05-.17.09-.03.19-.06.28-.07Zm-.76.7c.15-.11.35-.26.5-.36.14.08.36.21.5.3v.4c-.19.14-.43.32-.63.46-.07-.02-.31-.1-.37-.12-.04-.18-.09-.39-.13-.57l.13-.09Zm-.56 1.09h-.17c0-.39.12-.78.36-1.1h.01l.13.1c.04.19.09.4.13.59-.14.12-.32.28-.46.4Zm.12.17-.04-.11c.13-.12.31-.27.44-.39.09.03.29.09.38.12.08.24.16.5.24.74-.07.09-.17.23-.23.32l-.58-.06c-.07-.2-.14-.43-.2-.63Zm1 1.39-.04.11c-.38-.11-.71-.36-.93-.68l.14-.1.6.06c.08.18.17.38.24.56l-.02.05Zm.89-.14v.03h-.79c-.07-.17-.16-.37-.23-.54.06-.09.17-.23.23-.32h.78c.06.09.17.23.23.32zm1.05-.42c-.07.1-.15.19-.25.28-.19.18-.43.31-.68.39-.01-.04-.04-.13-.05-.17.02-.05.07-.17.1-.23.04-.09.1-.24.14-.33l.61-.06.14.1Zm.04-.84c-.07.2-.14.43-.2.63l-.58.06c-.07-.09-.17-.23-.23-.32.08-.24.16-.5.24-.74.08-.03.29-.09.37-.12.13.12.31.27.44.39l-.04.11Zm.29-.17h-.17c-.14-.12-.32-.28-.45-.4.04-.19.09-.41.13-.59l.13-.09h.01c.24.3.36.7.36 1.09Z" class="cls-2"/></svg>