<svg xmlns="http://www.w3.org/2000/svg" viewBox="345.64 178.47 375.4 443.05"><defs><clipPath id="a" clipPathUnits="userSpaceOnUse"><path d="M-531.129 325.593h800v-600h-800Z"/></clipPath><clipPath id="b" clipPathUnits="userSpaceOnUse"><path d="M-530.502 325.86h800v-600h-800Z"/></clipPath><clipPath id="c" clipPathUnits="userSpaceOnUse"><path d="M-320.035 257.571h800v-600h-800Z"/></clipPath><clipPath id="d" clipPathUnits="userSpaceOnUse"><path d="M-309.528 298.994h800v-600h-800Z"/></clipPath><clipPath id="e" clipPathUnits="userSpaceOnUse"><path d="M-359.903 298.994h800v-600h-800Z"/></clipPath><clipPath id="f" clipPathUnits="userSpaceOnUse"><path d="M-410.278 298.994h800v-600h-800Z"/></clipPath><clipPath id="g" clipPathUnits="userSpaceOnUse"><path d="M-460.653 298.994h800v-600h-800Z"/></clipPath><clipPath id="h" clipPathUnits="userSpaceOnUse"><path d="M-399.318 155.4h800v-600h-800Z"/></clipPath><clipPath id="i" clipPathUnits="userSpaceOnUse"><path d="M-472.095 270.249h800v-600h-800Z"/></clipPath><clipPath id="j" clipPathUnits="userSpaceOnUse"><path d="M-421.638 263.595h800v-600h-800Z"/></clipPath><clipPath id="k" clipPathUnits="userSpaceOnUse"><path d="M-441.744 268.225h800v-600h-800Z"/></clipPath><clipPath id="l" clipPathUnits="userSpaceOnUse"><path d="M-400.175 268.937h800v-600h-800Z"/></clipPath><clipPath id="m" clipPathUnits="userSpaceOnUse"><path d="M-336.44 272.842h800v-600h-800Z"/></clipPath><clipPath id="n" clipPathUnits="userSpaceOnUse"><path d="M-349.55 267.073h800v-600h-800Z"/></clipPath><clipPath id="o" clipPathUnits="userSpaceOnUse"><path d="M-380.189 272.124h800v-600h-800Z"/></clipPath><clipPath id="p" clipPathUnits="userSpaceOnUse"><path d="M-314.854 186.389h800v-600h-800Z"/></clipPath><clipPath id="q" clipPathUnits="userSpaceOnUse"><path d="M-346.192 210.546h800v-600h-800Z"/></clipPath><clipPath id="r" clipPathUnits="userSpaceOnUse"><path d="M-369.678 222.29h800v-600h-800Z"/></clipPath><clipPath id="s" clipPathUnits="userSpaceOnUse"><path d="M-487.169 227.357h800v-600h-800Z"/></clipPath></defs><path d="M0 0c-3.173 7.472-9.785 18.022-16.784 29.193-9.638 15.38-19.604 31.283-22.667 42.135-5.624 19.92 6.694 36.957 33.797 46.743l.645.233-.237.642c-.023.064-.412 1.002-2.219 5.347-5.635 13.553-20.604 49.555-25.322 61.37l-.47 1.177-.722-1.04c-5.872-8.448-23.714-17.001-46.456-17.001-25.369 0-42.884 10.009-50.175 18.579l-.519.61-.519-.61c-7.29-8.57-24.806-18.579-50.176-18.579-22.741 0-40.583 8.553-46.454 17.001l-.723 1.04-.47-1.177c-4.711-11.798-19.666-47.767-25.297-61.309a1553 1553 0 0 1-2.245-5.408l-.235-.642.644-.233c27.103-9.786 39.421-26.823 33.797-46.743-3.064-10.852-13.029-26.756-22.666-42.136-7-11.17-13.612-21.72-16.785-29.192-6.186-14.565-7.487-27.697-3.977-40.146 3.17-11.243 10.258-21.767 21.671-32.175 21.305-19.432 55.333-36.045 91.359-53.633 7.103-3.468 14.449-7.055 21.772-10.697l.304-.152.303.152c7.323 3.643 14.67 7.229 21.773 10.697 36.026 17.588 70.054 34.201 91.36 53.633C-6.281-61.913.807-51.389 3.978-40.146 7.487-27.697 6.186-14.565 0 0" clip-path="url(#a)" style="fill:#000;fill-opacity:1;fill-rule:nonzero;stroke:#fff;stroke-width:10px" transform="matrix(1.33333 0 0 -1.33333 708.172 434.124)"/><path d="M0 0c-7.438 17.516-34.118 52.415-39.48 71.41-5.227 18.517 4.728 36.921 34.222 47.569-.105.288-21.68 52.039-27.535 66.7-6.526-9.392-25.502-17.294-47.015-17.294-24.269 0-42.605 9.31-50.694 18.819-8.089-9.509-26.425-18.819-50.695-18.819-21.512 0-40.488 7.902-47.014 17.294-5.854-14.661-27.43-66.412-27.535-66.7 29.494-10.648 39.449-29.052 34.222-47.569-5.363-18.995-32.041-53.894-39.48-71.41-27.816-65.493 48.679-95.063 130.502-135.774C-48.68-95.063 27.815-65.493 0 0" clip-path="url(#b)" style="fill:#004d99;fill-opacity:1;fill-rule:nonzero;stroke:none" transform="matrix(1.33333 0 0 -1.33333 707.336 434.48)"/><path d="M0 0a44.5 44.5 0 0 1 1.65 13.951h156.631A44.5 44.5 0 0 1 159.929 0c2.415-8.552 8.043-19.025 14.582-29.934H-14.581C-8.042-19.025-2.414-8.552 0 0" clip-path="url(#c)" style="fill:#fff;fill-opacity:1;fill-rule:nonzero;stroke:none" transform="matrix(1.33333 0 0 -1.33333 426.713 343.428)"/><path d="M0 0v-101.54c8.788-6.103 18.885-12.04 29.817-17.936V0Z" clip-path="url(#d)" style="fill:#fff;fill-opacity:1;fill-rule:nonzero;stroke:none" transform="matrix(1.33333 0 0 -1.33333 412.704 398.659)"/><path d="M0 0v-130.113c7.603-3.809 15.431-7.631 23.361-11.502 2.131-1.041 4.288-2.095 6.456-3.156V0Z" clip-path="url(#e)" style="fill:#fff;fill-opacity:1;fill-rule:nonzero;stroke:none" transform="matrix(1.33333 0 0 -1.33333 479.87 398.659)"/><path d="M0 0v-144.771l6.458 3.156c7.929 3.871 15.758 7.693 23.359 11.502V0Z" clip-path="url(#f)" style="fill:#fff;fill-opacity:1;fill-rule:nonzero;stroke:none" transform="matrix(1.33333 0 0 -1.33333 547.038 398.659)"/><path d="M0 0v-119.476c10.932 5.896 21.03 11.833 29.817 17.937V0Z" clip-path="url(#g)" style="fill:#fff;fill-opacity:1;fill-rule:nonzero;stroke:none" transform="matrix(1.33333 0 0 -1.33333 614.204 398.659)"/><path d="M0 0c-8.138-5.657-24.674-14.247-50.013-14.247-11.742 0-23.315 2.049-33.468 5.926a71 71 0 0 0-8.43 3.844 12169 12169 0 0 0-16.809-40.595c15.01-7.663 25.189-18.357 29.491-30.978H0z" clip-path="url(#h)" style="fill:#fff;fill-opacity:1;fill-rule:nonzero;stroke:none" transform="matrix(1.33333 0 0 -1.33333 532.425 207.2)"/><path d="M0 0c-.316-1.139-.717-1.963-1.215-2.462-.497-.499-1.124-.85-1.871-1.057-.578-.166-1.516-.243-2.809-.243h-3.459v16.878h2.08c1.893 0 3.161-.077 3.807-.243q1.3-.309 2.15-1.2C-.754 11.087-.316 10.261 0 9.205c.31-1.056.471-2.563.471-4.534S.31 1.14 0 0m4.513 10.469c-.502 1.626-1.237 3.004-2.198 4.126q-1.439 1.69-3.461 2.349c-1.006.326-2.458.487-4.37.487h-8.476V-8.058h8.724q2.574-.001 4.106.539 2.053.73 3.258 2.036C3.165-4.338 3.982-2.836 4.555-.984c.47 1.518.707 3.33.707 5.423 0 2.393-.252 4.398-.749 6.03" clip-path="url(#i)" style="fill:#004d99;fill-opacity:1;fill-rule:nonzero;stroke:none" transform="matrix(1.33333 0 0 -1.33333 629.46 360.332)"/><path d="M0 0h-3.428v6.462H.187q2.825-.001 3.387-.082 1.13-.213 1.748-1.004c.411-.528.619-1.216.619-2.077 0-.766-.162-1.401-.47-1.91A2.56 2.56 0 0 0 4.172.308Q3.338-.002 0 0m7.141-5.604q-.982 1.167-2.487 2.143c2.016.321 3.534 1.11 4.544 2.35 1.012 1.247 1.521 2.832 1.521 4.742 0 1.508-.334 2.843-1.002 4.017-.668 1.17-1.562 1.983-2.672 2.44q-1.67.687-5.349.688h-9.767v-25.488h4.643v10.641h.935c1.072 0 1.847-.097 2.34-.287.491-.195.956-.545 1.396-1.06q.655-.776 2.443-3.746l3.352-5.548h4.826l.276.787L9.775-9.74Q8.117-6.767 7.141-5.604" clip-path="url(#j)" style="fill:#004d99;fill-opacity:1;fill-rule:nonzero;stroke:none" transform="matrix(1.33333 0 0 -1.33333 562.184 351.46)"/><path d="m0 0 3.1 9.46L6.266 0Zm.703 15.406-8.67-24.701.446-.787h4.197l1.895 5.791h9.182l2.005-5.791h5.05l-9.2 25.488z" clip-path="url(#k)" style="fill:#004d99;fill-opacity:1;fill-rule:nonzero;stroke:none" transform="matrix(1.33333 0 0 -1.33333 588.992 357.633)"/><path d="M0 0h5.312v-3.233c-.701-.6-1.543-1.116-2.516-1.538-.976-.42-1.949-.635-2.924-.635-1.961 0-3.552.754-4.759 2.267C-6.101-1.625-6.706.647-6.706 3.669c0 2.806.594 4.919 1.79 6.35 1.201 1.424 2.809 2.136 4.838 2.136q2.003 0 3.341-1.086c.892-.723 1.503-1.715 1.829-2.967l4.604.955q-.69 3.515-3.096 5.507C5 15.888 2.771 16.553-.078 16.553c-2.195 0-4.029-.42-5.499-1.271-1.937-1.097-3.401-2.682-4.406-4.741-1.001-2.065-1.505-4.428-1.505-7.081 0-2.444.451-4.704 1.349-6.788Q-8.79-6.45-6.112-8.129C-4.327-9.246-2.229-9.803.172-9.803q2.832.002 5.6 1.186 2.766 1.194 4.224 2.76V4.299H0Z" clip-path="url(#l)" style="fill:#004d99;fill-opacity:1;fill-rule:nonzero;stroke:none" transform="matrix(1.33333 0 0 -1.33333 533.567 358.583)"/><path d="M0 0a2.83 2.83 0 0 0-1.685-1.015c-.449-.107-1.509-.154-3.183-.154h-4.287v6.813h3.742c2.107 0 3.483-.12 4.114-.362q.946-.367 1.448-1.17c.331-.533.502-1.18.502-1.945Q.65.812 0 0m-9.155 15.78h2.661q3.274.001 3.964-.089 1.157-.15 1.748-.889.584-.739.583-1.924c0-.823-.223-1.488-.679-1.993q-.681-.758-1.872-.908-.657-.09-3.369-.09h-3.036ZM1.091 8.077q1.483.748 2.358 2.243c.578.996.865 2.095.865 3.288 0 1.098-.234 2.095-.705 2.98-.469.89-1.054 1.596-1.759 2.13a5.6 5.6 0 0 1-2.395 1.051q-1.342.255-4.071.254h-9.182V-5.465h7.819q4.437.036 5.594.171 1.854.233 3.113 1.211c.839.653 1.501 1.531 1.987 2.623a8.2 8.2 0 0 1 .729 3.383c0 1.472-.374 2.754-1.13 3.846-.747 1.085-1.827 1.857-3.223 2.308" clip-path="url(#m)" style="fill:#004d99;fill-opacity:1;fill-rule:nonzero;stroke:none" transform="matrix(1.33333 0 0 -1.33333 448.588 363.79)"/><path d="M0 0h11.53v4.291H0V9.94h12.391v4.315H-4.636v-25.488H12.83v4.296H0z" clip-path="url(#n)" style="fill:#004d99;fill-opacity:1;fill-rule:nonzero;stroke:none" transform="matrix(1.33333 0 0 -1.33333 466.066 356.098)"/><path d="M0 0c-1.187-1.483-2.706-2.22-4.551-2.22q-2.773 0-4.576 2.232c-1.199 1.49-1.804 3.68-1.804 6.564 0 2.938.59 5.128 1.755 6.582 1.17 1.453 2.71 2.184 4.625 2.184q2.864 0 4.601-2.154c1.148-1.443 1.726-3.621 1.726-6.542Q1.776 2.216 0 0m-4.599 19.739c-1.871 0-3.519-.333-4.952-1.009q-1.611-.75-2.968-2.29a12.3 12.3 0 0 1-2.138-3.497q-1.05-2.641-1.05-6.54c0-4.052 1.006-7.239 3.024-9.553q3.024-3.465 8.147-3.466c3.37 0 6.067 1.163 8.083 3.483C5.562-.807 6.572 2.409 6.572 6.528q.001 6.225-3.047 9.716c-2.033 2.331-4.737 3.495-8.124 3.495" clip-path="url(#o)" style="fill:#004d99;fill-opacity:1;fill-rule:nonzero;stroke:none" transform="matrix(1.33333 0 0 -1.33333 506.919 362.832)"/><path d="M0 0q0 3.53 1.062 5.926a11 11 0 0 0 2.165 3.167c.916.928 1.917 1.623 3.004 2.075 1.452.612 3.12.913 5.015.913q5.139.001 8.224-3.167c2.057-2.107 3.085-5.044 3.085-8.801 0-3.732-1.023-6.646-3.063-8.754-2.041-2.103-4.771-3.156-8.18-3.156q-5.19.002-8.251 3.141Q-.001-5.511 0 0m4.835.155c0-2.612.612-4.596 1.825-5.945 1.218-1.35 2.76-2.022 4.634-2.022 1.869 0 3.407.666 4.607 2.011C17.097-4.463 17.7-2.457 17.7.222q-.002 3.965-1.748 5.924c-1.17 1.301-2.726 1.951-4.658 1.951-1.939 0-3.497-.661-4.682-1.979C5.431 4.801 4.835 2.816 4.835.155" clip-path="url(#p)" style="fill:#004d99;fill-opacity:1;fill-rule:nonzero;stroke:none" transform="matrix(1.33333 0 0 -1.33333 419.805 248.518)"/><path d="M0 0v23.094h15.945v-3.91H4.699v-5.461h9.708v-3.91H4.699V0" clip-path="url(#q)" style="fill:#004d99;fill-opacity:1;fill-rule:nonzero;stroke:none" transform="matrix(1.33333 0 0 -1.33333 461.59 280.728)"/><path d="M0 0v23.094h4.695V12.841l9.484 10.253h6.313l-8.753-8.997L20.969 0h-6.075L8.505 10.839l-3.81-3.86V0" clip-path="url(#r)" style="fill:#004d99;fill-opacity:1;fill-rule:nonzero;stroke:none" transform="matrix(1.33333 0 0 -1.33333 492.904 296.387)"/><path d="m0 0-2.855 1.085-1.836 5.919v9.023h2.353l-.9 3.359h2.416v13.252h-2.081v3.599h-3.14v-3.599h-1.804l-.942-7.594h-5.402v-5.415h-7.144v5.297h-4.44V43.25h1.738v2.788h1.648v10.419h-6.474v-4.626h-6.048v4.626h-6.474v-4.626h-6.048v4.626h-6.474V46.038h1.649V43.25h1.737V24.926h-4.439v-5.297h-7.145v5.415h-5.403l-.941 7.594h-1.804v3.599h-3.139v-3.599h-2.082V19.386h2.416l-.9-3.359h2.354V7.004l-1.836-5.919L-76.295 0l.497-4.343h25.799c.68 15.062 5.315 21.363 11.851 21.363 6.535 0 11.171-6.301 11.851-21.363H-.498z" clip-path="url(#s)" style="fill:#fff;fill-opacity:1;fill-rule:nonzero;stroke:none" transform="matrix(1.33333 0 0 -1.33333 649.559 303.143)"/></svg>