<svg xmlns="http://www.w3.org/2000/svg" viewBox="0 0 255.92 390"><path d="M933.9 975.061c54.092-14.95 94.06-64.89 94.06-123.677 0-70.544-57.585-127.903-128.167-127.903-70.168 0-127.752 57.36-127.752 127.903 0 58.974 40.099 108.915 94.302 123.677l33.77 28.51zm0 0" style="fill:#211e1e;fill-opacity:1;fill-rule:evenodd;stroke:none;stroke-width:4.80809" transform="translate(-772.04 -613.571)"/><path d="M933.037 972.037c52.645-14.556 91.541-63.162 91.541-120.371 0-68.647-56.025-124.466-124.728-124.466-68.29 0-124.316 55.82-124.316 124.466 0 57.396 39.01 106.003 91.748 120.371l32.887 27.722zm0 0" style="fill:#fff;fill-opacity:1;fill-rule:evenodd;stroke:none;stroke-width:4.80809" transform="translate(-772.04 -613.571)"/><path d="M900 730.787c66.863 0 121.085 54.223 121.085 121.067 0 66.862-54.222 121.085-121.085 121.085-66.844 0-121.066-54.223-121.066-121.085 0-66.844 54.222-121.067 121.066-121.067" style="fill:#211e1e;fill-opacity:1;fill-rule:evenodd;stroke:none;stroke-width:4.80809" transform="translate(-772.04 -613.571)"/><path d="M900.038 734.431c64.852 0 117.46 52.589 117.46 117.46 0 64.853-52.608 117.46-117.46 117.46-64.872 0-117.46-52.607-117.46-117.46 0-64.871 52.588-117.46 117.46-117.46" style="fill:#fff;fill-opacity:1;fill-rule:evenodd;stroke:none;stroke-width:4.80809" transform="translate(-772.04 -613.571)"/><path d="m865.705 711.856 9.616 6.592 8.395-12.603 6.236 6.048 6.179-12.095 4.02 2.479 3.21-2.48 6.819 12.059 6.46-6.067 7.814 13.016 10.423-7.006c9.222 28.098 4.114 49.32-7.268 63.05-16.115-6.592-38.333-7.456-56.533-1.634-10.93-18.068-15.044-39.873-5.371-61.36" style="fill:#211e1e;fill-opacity:1;fill-rule:evenodd;stroke:none;stroke-width:4.80809" transform="translate(-772.04 -613.571)"/><path d="m867.77 718.072 8.265 5.56 8.32-11.927 6.724 6.593 6.047-12.64 3.08 2.441 2.423-2.441 6.78 12.602 6.555-5.785 7.626 12.152 9.221-6.104c6.95 19.251 2.348 42.597-7.681 53.847-15.533-5.297-34.859-6.611-51.255-1.728-8.809-15.72-13.542-32.417-6.104-52.57M879.415 966.929h40.155v7.174h-40.155zm0 0" style="fill:#fff;fill-opacity:1;fill-rule:evenodd;stroke:none;stroke-width:4.80809" transform="translate(-772.04 -613.571)"/><path d="M890.196 933.366v53.415l-4.432-3.606v-50.41c1.446 0 2.986.45 4.432.6m27.59-1.127c1.446-.226 2.986-.507 4.433-.695v44.494l-4.433 3.925zm-3.568 50.936-4.47 3.831v-53.96c1.408-.13 2.93-.319 4.47-.45zm-8.001 6.686-4.47 3.794v-60.252c1.446-.038 2.986-.225 4.47-.319zm-8.039 3.794-4.414-3.85v-56.44c1.447.076 2.968 0 4.414 0zm-15.983-61.379v48.1l-4.508-3.794v-44.85c1.39.357 3.024.544 4.508.544" style="fill:#211e1e;fill-opacity:1;fill-rule:evenodd;stroke:none;stroke-width:4.80809" transform="translate(-772.04 -613.571)"/><path d="M899.962 767.524c46.579 0 84.367 37.77 84.367 84.367s-37.788 84.386-84.367 84.386c-46.597 0-84.385-37.789-84.385-84.386s37.788-84.367 84.385-84.367" style="fill:#211e1e;fill-opacity:1;fill-rule:evenodd;stroke:none;stroke-width:4.80809" transform="translate(-772.04 -613.571)"/><path d="M900 771.074c44.606 0 80.78 36.173 80.78 80.78s-36.174 80.78-80.78 80.78-80.78-36.174-80.78-80.78 36.174-80.78 80.78-80.78" style="fill:#fff;fill-opacity:1;fill-rule:evenodd;stroke:none;stroke-width:4.80809" transform="translate(-772.04 -613.571)"/><path d="M899.944 774.624c42.653 0 77.248 34.595 77.248 77.248 0 42.672-34.595 77.268-77.248 77.268-42.672 0-77.268-34.596-77.268-77.268 0-42.653 34.596-77.248 77.268-77.248" style="fill:#211e1e;fill-opacity:1;fill-rule:evenodd;stroke:none;stroke-width:4.80809" transform="translate(-772.04 -613.571)"/><path d="M899.962 807.717c24.398 0 44.194 19.777 44.194 44.193 0 24.397-19.796 44.193-44.194 44.193-24.397 0-44.193-19.796-44.193-44.193 0-24.416 19.796-44.193 44.193-44.193" style="fill:#fff;fill-opacity:1;fill-rule:evenodd;stroke:none;stroke-width:4.80809" transform="translate(-772.04 -613.571)"/><path d="m934.69 934.455 7.944-3.775 2.817 4.902 4.47-2.836-2.272-4.132 6.46-4.282 13.786 18.5-8.15 4.977-7.382-11.833-5.24 3.588 5.728 12.208-8.695 4.207zM851.769 931.037l2.085-3.681 7.681 3.869-9.973 23.082c-9.015-4.526-26.087-10.367-18.368-24.528 5.465-6.255 12.152-3.926 18.575 1.258" style="fill:#211e1e;fill-opacity:1;fill-rule:evenodd;stroke:none;stroke-width:4.80809" transform="translate(-772.04 -613.571)"/><path d="m849.233 935.751-4.639 8.095c-4.019-1.183-7.174-5.203-5.277-8.433 1.915-3.25 6.855-2.63 9.916.338" style="fill:#fff;fill-opacity:1;fill-rule:evenodd;stroke:none;stroke-width:4.80809" transform="translate(-772.04 -613.571)"/><path d="m813.079 923.13 11.813-24.379 5.015 7.081-1.014 2.817 6.085 6.517 2.291-.957 4.508 4.357-23.214 10.612zm0 0" style="fill:#211e1e;fill-opacity:1;fill-rule:evenodd;stroke:none;stroke-width:4.80809" transform="translate(-772.04 -613.571)"/><path d="m824.066 920.181 3.08-6.348 3.475 3.719zm0 0" style="fill:#fff;fill-opacity:1;fill-rule:evenodd;stroke:none;stroke-width:4.80809" transform="translate(-772.04 -613.571)"/><path d="m954.823 921.627 5.898-5.052 4.132 1.634 6.423-7.137-2.14-3.53 3.755-4.077 11.664 22.952-5.766 6.104zm0 0" style="fill:#211e1e;fill-opacity:1;fill-rule:evenodd;stroke:none;stroke-width:4.80809" transform="translate(-772.04 -613.571)"/><path d="m968.91 919.88 4.075-4.807 3.944 7.493zm0 0" style="fill:#fff;fill-opacity:1;fill-rule:evenodd;stroke:none;stroke-width:4.80809" transform="translate(-772.04 -613.571)"/><path d="M990.039 907.335c-3.024.657-6.517 1.577-9.917-.188-7.23-3.87-4.695-11.739-1.559-15.683 2.536-3.362 3.907-4.207 6.95-5.015 2.103-.375 3.455-.17 5.24.188l-.245 2.836c-4.207-.282-7.437 2.16-8.301 5.278-.15 4.507 1.897 5.916 6.142 5.165l.713-3.418 3.907-.32 3.08 6.705 5.522-11.964 3.831 1.935-11.175 23.345zM799.518 879.913c4.602-2.854 8.753-1.051 10.762 1.278l4.583-6.311 4 10.048-4.15 7.381 6.235-2.648 3.512 6.893-21.148 12.47c-4.827-8.432-13.954-21.955-3.794-29.11" style="fill:#211e1e;fill-opacity:1;fill-rule:evenodd;stroke:none;stroke-width:4.80809" transform="translate(-772.04 -613.571)"/><path d="M804.045 887.877c3.324-.639 5.334 2.291 6.705 6.085l-7.194 3.512c-2.253-4.132-3.023-7.775.489-9.597" style="fill:#fff;fill-opacity:1;fill-rule:evenodd;stroke:none;stroke-width:4.80809" transform="translate(-772.04 -613.571)"/><path d="m789.996 878.749-2.967-22.632 5.878-.545.808 6.65 18.556-2.217 1.09 7.4-18.594 3.55.657 7.099zM983.86 881.604l.15-.3 1.897-6.537 8 2.686-6.46-8.34.582-8.094 24.416 1.916-1.24 9.71-16.152-2.066 6.33 8.339 6.968 2.348-2.235 7.87zM786.766 849.562l.657-10.03 25.149 2.067-.583 8.095zM1007.619 852.417l-19.533.075-.039-7.212 19.683-.207-.206-7.362 5.127-.131-.056 22.669-4.94-.02zM812.534 838.444l-15.4-14.8-3.4 11.137-5.466-2.441 7.532-22.426 14.969 14.5 3.099-7.25 4.3 1.953zM992.612 831.588l-3.005-8.226-4.564 1.653-3.343-7.926 21.693-9.917 6.235 14.631c1.521 8.17.056 11.119-4.075 13.391-1.86 1.578-9.692 2.217-12.94-3.606" style="fill:#211e1e;fill-opacity:1;fill-rule:evenodd;stroke:none;stroke-width:4.80809" transform="translate(-772.04 -613.571)"/><path d="m994.453 822.01 7.156-3.043c2.573 3.531 2.29 7.438 0 8.696-2.574.676-5.316 1.484-7.156-5.653" style="fill:#fff;fill-opacity:1;fill-rule:evenodd;stroke:none;stroke-width:4.80809" transform="translate(-772.04 -613.571)"/><path d="m803.124 794.889 4.771-7.945 26.2 6.63-5.183 6.574-3.588-.432-5.39 8.377 2.442 3.249-2.573 4.864zm0 0" style="fill:#211e1e;fill-opacity:1;fill-rule:evenodd;stroke:none;stroke-width:4.80809" transform="translate(-772.04 -613.571)"/><path d="m816.779 803.003-4.602-5.729 7.438 1.766zm0 0" style="fill:#fff;fill-opacity:1;fill-rule:evenodd;stroke:none;stroke-width:4.80809" transform="translate(-772.04 -613.571)"/><path d="m834.978 790.381-15.514-15.701 5.898-5.803 17.335 2.854-7.437-10.78 7.381-5.297L854.736 775l-6.46 4.433-12.866-1.503 5.146 7.7zM975.54 805.839l2.066-3.381-5.447-7.4-4.245 1.202-3.888-4.958.15.019 25.957-7.663 5.296 7.4-14.931 23.515zm0 0" style="fill:#211e1e;fill-opacity:1;fill-rule:evenodd;stroke:none;stroke-width:4.80809" transform="translate(-772.04 -613.571)"/><path d="m976.93 794.175 7.155-2.31-4.282 6.461zm0 0" style="fill:#fff;fill-opacity:1;fill-rule:evenodd;stroke:none;stroke-width:4.80809" transform="translate(-772.04 -613.571)"/><path d="m957.02 783.902 11.157-14.33-5.409-4.245-11.175 14.78-7.494-4.92 12.584-20.735 22.519 17.617-16.528 17.298zm0 0" style="fill:#211e1e;fill-opacity:1;fill-rule:evenodd;stroke:none;stroke-width:4.80809" transform="translate(-772.04 -613.571)"/><path d="m847.299 855.986-14.312-.508.357-10.273 2.967.112-.225 6.612 2.967.112.188-5.747 2.968.094-.188 5.747 5.41.207zM836.18 830.63l1.521-3.268 8.114 3.794c.883.413 1.597.526 2.141.376.526-.15.996-.639 1.352-1.409s.432-1.408.207-1.915c-.225-.526-.789-.996-1.671-1.41l-8.114-3.774 1.54-3.306 7.72 3.606c1.07.489 1.896 1.014 2.44 1.522.564.507.94 1.126 1.165 1.84.207.714.282 1.465.188 2.254-.075.789-.319 1.615-.713 2.442q-.592 1.296-1.409 2.14a5.7 5.7 0 0 1-1.86 1.297 4.3 4.3 0 0 1-2.178.3c-.77-.094-1.672-.394-2.742-.883zm24.36-17.936 1.465-1.371q1.24-1.155 1.127-2.423c-.057-.845-.583-1.803-1.56-2.855-.957-1.033-1.877-1.615-2.723-1.746-.845-.132-1.671.206-2.497.957l-1.465 1.372zm-.639 4.695-9.785-10.46 4.489-4.19c1.559-1.445 3.155-2.103 4.827-1.971 1.671.13 3.286 1.051 4.864 2.742 1.634 1.765 2.442 3.474 2.385 5.127-.038 1.672-.939 3.306-2.667 4.92zm18.256-22.631 2.78-.958c.582-.207.995-.45 1.202-.77s.244-.695.093-1.146q-.197-.591-.732-.789c-.338-.112-.77-.094-1.296.094l-2.93 1.014zm1.897 5.559 2.63-.902c.826-.281 1.37-.6 1.615-.939.263-.356.281-.789.093-1.333-.169-.488-.45-.808-.845-.94-.413-.15-.92-.112-1.54.094l-2.968 1.033zm-2.385 3.831-4.658-13.541 6.573-2.254c1.56-.545 2.836-.657 3.775-.357.958.3 1.634 1.052 2.029 2.235.244.714.3 1.371.132 1.954-.17.582-.564 1.145-1.165 1.652.864-.075 1.578.075 2.179.47.6.376 1.033.958 1.296 1.728.263.751.319 1.484.188 2.216a3.9 3.9 0 0 1-.958 1.953 4.8 4.8 0 0 1-1.371 1.033c-.282.15-.658.32-1.09.489-.431.188-.976.375-1.634.6zm25.599-10.31 3.118.225-1.24-5.034zm.263-8.734 4 .282 4.057 14.65-3.944-.283-.676-2.685-4.79-.32-.995 2.555-3.794-.263zm16.565 18.18 6.273-12.884 3.306 1.615-4.92 10.086 6.235 3.043-1.353 2.78zm19.458 6.93 2.31 2.649c-.6.526-.901 1.108-.92 1.747q-.029.93.845 1.915c.488.564.958.92 1.428 1.071q.676.225 1.183-.225c.15-.132.281-.301.338-.508.075-.188.093-.375.056-.582q-.085-.423-.789-1.916c-.45-.995-.789-1.859-1.033-2.554-.375-1.052-.47-1.99-.319-2.836q.225-1.268 1.24-2.141c1.033-.901 2.178-1.22 3.474-.977 1.277.245 2.498 1.033 3.663 2.348 1.126 1.296 1.709 2.61 1.727 3.925.02 1.334-.525 2.46-1.615 3.419l-2.253-2.61c.431-.49.657-.996.638-1.503-.02-.508-.263-1.033-.751-1.597-.376-.45-.789-.732-1.202-.845-.432-.131-.789-.056-1.07.188-.47.413-.358 1.484.356 3.174l.32.695.056.15c.732 1.728 1.126 2.892 1.145 3.493a3.9 3.9 0 0 1-.319 1.69 4 4 0 0 1-1.033 1.372c-1.07.939-2.273 1.24-3.587.939-1.315-.3-2.63-1.183-3.926-2.667-1.22-1.409-1.821-2.761-1.821-4.057 0-.676.15-1.315.45-1.935.3-.657.789-1.277 1.409-1.821zm9.09 20.66 13.767-3.944.996 3.456-5.26 1.522 6.668 3.38 1.221 4.245-7.4-3.925-6.348 8-1.202-4.207 4.414-5.465-1.54-.845-4.32 1.24zm3.738 21.45 14.312.243-.057 3.663-14.33-.244zM853.835 900.329l9.015-11.119 2.798 2.273-3.437 4.244 7.4-1.051 3.419 2.78-8.283 1.032-.62 10.18-3.4-2.742.47-7.006-1.728.188-2.836 3.494zm26.538 15.4 3.212-13.973 3.587.827-2.517 10.95 6.743 1.558-.695 3.024zm24.21-10.968 3.512-.882 2.16 8.696c.244.939.582 1.577 1.052 1.896.47.32 1.108.376 1.953.17.807-.207 1.352-.564 1.615-1.052.263-.507.282-1.22.039-2.179l-2.16-8.696 3.53-.882 2.067 8.264c.281 1.164.394 2.122.356 2.873a4.2 4.2 0 0 1-.713 2.047 5.6 5.6 0 0 1-1.616 1.578 8 8 0 0 1-2.366.995c-.902.226-1.766.301-2.536.226a5.3 5.3 0 0 1-2.178-.62 4.4 4.4 0 0 1-1.616-1.502c-.394-.658-.75-1.56-1.032-2.686zm29.618-6.254 2.31-1.822c.489-.375.79-.751.883-1.127.113-.356.02-.732-.282-1.089-.263-.338-.563-.507-.939-.526-.356 0-.77.17-1.202.526l-2.441 1.897zm3.606 4.64 2.179-1.71c.695-.545 1.108-1.033 1.24-1.427.112-.413 0-.845-.357-1.296-.3-.395-.676-.601-1.108-.601s-.902.206-1.428.6l-2.46 1.935zm-1.014 4.394-8.808-11.288 5.465-4.282c1.315-1.014 2.48-1.54 3.475-1.559s1.878.47 2.648 1.446c.47.601.714 1.202.751 1.822.02.601-.15 1.259-.563 1.916.788-.338 1.52-.413 2.216-.263.676.17 1.277.582 1.784 1.22.488.64.789 1.316.902 2.048.112.733.019 1.446-.263 2.16-.207.45-.526.939-.977 1.409a9.5 9.5 0 0 1-.864.826c-.357.3-.808.676-1.352 1.108zm0 0" style="fill:#fff;fill-opacity:1;fill-rule:evenodd;stroke:none;stroke-width:4.80809" transform="translate(-772.04 -613.571)"/><path d="m875.152 886.694 24.81-18.67 25.13 18.557-9.71-29.769 24.81-18.763h-30.951l-9.072-29.111-9.485 28.998h-30.952l25.337 18.782zM893.652 758.697c-1.954-6.93-2.498-13.485-2.254-20.322.32-9.353 2.517-18.612 5.447-26.764l1.596-1.202-.02 54.373-3.417-.112zm-23.496-33.356 6.855 4.451c-.77 12.903 1.578 25.75 6.198 36.361l-4.545 1.09c-8.677-10.593-13.053-27.872-8.508-41.902m43.46 40.793c6.142-11.287 9.429-33.506 2.95-49.189l-7.87 6.518c3.643 15.138 3.174 28.247-1.972 41.507zm-28.078-.47c-5.39-15.137-9.447-33.036-2.986-48.719l7.888 6.517c-3.644 15.138-3.155 27.778 1.991 41.038zm20.04-6.967c1.935-6.93 2.48-13.485 2.235-20.322-.32-9.353-2.517-18.613-5.447-26.764l-1.596-1.202.038 54.373 3.419-.113zm24.529-33.356-8.076 4.958c.939 13.673-.658 25.881-5.428 36.493l4.714 1.07c8.658-10.574 13.335-28.492 8.79-42.521" style="fill:#eb1923;fill-opacity:1;fill-rule:evenodd;stroke:none;stroke-width:4.80809" transform="translate(-772.04 -613.571)"/><path d="m851.412 643.998-9.766-30.427-10.105 30.427h-32.905l26.238 19.25-10.405 31.197 26.707-19.251 26.839 19.87-10.236-31.815 27.008-19.251zm113.328 0-9.785-30.427-10.086 30.427h-32.905l26.219 19.25-10.386 31.197 26.688-19.251 26.858 19.87-10.255-31.815 27.008-19.251zm0 0" style="fill:#babdbf;fill-opacity:1;fill-rule:evenodd;stroke:none;stroke-width:4.80809" transform="translate(-772.04 -613.571)"/></svg>