<svg xmlns="http://www.w3.org/2000/svg" viewBox="0 0 288.89 347"><defs><linearGradient id="a" x1="22.1" x2="277.901" y1="150" y2="150" gradientTransform="translate(-28.054 326.232)scale(1.19655)" gradientUnits="userSpaceOnUse"><stop offset="0" style="stop-color:#ed212a"/><stop offset=".42" style="stop-color:#e8222b"/><stop offset=".74" style="stop-color:#c8252f"/><stop offset=".88" style="stop-color:#c2262e"/><stop offset="1" style="stop-color:#c1272e"/></linearGradient></defs><path d="m151.429 332.214 6.58.718c26.325 3.111 51.811 8.376 72.033 14.718 21.179 6.58 37.691 15.435 47.264 22.974 11.008 8.615 14.717 20.94 16.034 35.657.957 10.41 2.273 21.897 2.512 34.34 1.436 113.673-76.938 198.987-143.825 238.234l-.598.36-.718-.48C83.823 639.49 5.569 554.176 7.005 440.623c.12-12.444 1.555-23.931 2.513-34.341 1.316-14.718 5.025-27.042 16.033-35.657 9.573-7.539 26.085-16.393 47.264-22.974 20.461-6.342 46.307-11.726 72.87-14.718z" class="st0" style="clip-rule:evenodd;fill:url(#a);fill-rule:evenodd;stroke-width:1.19655" transform="translate(-6.985 -332.214)"/><path d="M123.669 499.133c-5.265-6.461-6.581-11.008-5.265-14.478 1.675-4.906 7.418-7.538 12.085-9.931 2.513-1.317 3.111-.12 5.624-1.436 3.47-1.795 4.906-4.547 6.461-7.3 1.556-2.512 5.504-4.785 8.974-1.674 1.197 1.077 1.436 5.145 3.71 7.418 1.914 1.915 3.35 2.752 5.743 3.71 5.026 1.914 11.008 3.11 13.282 10.53 12.324 7.179 25.486 14.238 22.495 26.922-11.008 6.222-26.683 8.136-32.546 7.658-3.231-.24-5.026-2.992-5.744-4.188 4.188.12 10.17-1.077 15.196-2.633 6.462-2.034 12.445-4.307 17.35-3.47.958-5.384-2.99-10.41-7.06-12.803-5.982-3.59-14.238-3.949-24.529-.718-.837-5.624-6.341-8.136-11.127-8.136-8.735-.36-19.026 6.461-24.65 10.53" class="st1" style="clip-rule:evenodd;fill:#fff;fill-rule:evenodd;stroke-width:1.19655" transform="translate(-6.985 -332.214)"/><path d="M188.282 505.355c-8.017-1.316-14-.598-19.264 2.154-10.889 5.744-19.504 17.71-31.35 20.82-2.632.24-7.299-1.196-10.65-2.513 5.266-5.743 16.992-15.674 27.402-19.982s26.204-7.18 33.862-.479" class="st1" style="clip-rule:evenodd;fill:#fff;fill-rule:evenodd;stroke-width:1.19655" transform="translate(-6.985 -332.214)"/><path d="M135.754 529.885c-11.726-1.915-15.795-5.026-19.624-9.692-3.948-4.787-3.948-10.53-1.795-15.556-15.196 4.787-18.187 15.675-11.726 24.53 6.701 9.213 22.017 6.94 33.145.718" class="st1" style="clip-rule:evenodd;fill:#fff;fill-rule:evenodd;stroke-width:1.19655" transform="translate(-6.985 -332.214)"/><path d="M151.429 335.086c-14.718 1.675-29.675 4.308-44.632 7.419-16.273 3.47-27.162 6.7-42.238 12.204-9.812 3.59-19.265 8.137-26.205 13.043-5.743 4.068-12.204 9.572-14.956 16.393-2.513 6.461-4.308 17.709-5.385 27.999a257 257 0 0 0-1.316 21.658c-.24 30.75 4.188 59.827 17.11 91.416 24.051 58.87 66.17 102.545 117.502 133.894 38.05-23.333 67.007-49.298 91.536-85.075 29.675-43.195 44.392-91.057 43.435-141.073-.24-15.675-2.034-35.059-6.102-47.144-1.915-5.744-6.223-11.487-13.043-16.513-11.367-8.375-27.88-14.837-38.17-18.068-11.008-3.35-22.375-6.341-33.623-8.734-12.564-2.633-24.888-5.026-37.572-6.581zm-29.914 293.036c10.41-7.42 17.11-17.71 21.179-29.914.478-1.316 1.795-.957 1.555.359-1.914 14.239-1.436 28.238 6.581 40.682 12.085-9.333 17.829-23.093 18.667-37.93-2.274 5.624-5.744 10.65-10.77 14.957l-.837.718-.479-.958c-6.58-12.922-8.017-26.922-5.863-41.041l.12-.838 1.675.24-.12.837c-2.034 13.521-.837 26.803 5.146 39.127 8.854-7.897 12.085-18.307 13.401-29.794l-.12-.12c-5.623-11.486-6.7-23.332-4.068-35.896.359-1.436 1.915-1.077 1.556.359-2.513 11.846-1.676 22.854 3.47 33.743 8.615-9.812 12.444-21.658 14.119-34.461.12-1.077 1.555-1.197 1.675 0 1.077 12.564 5.026 23.572 14.598 32.067 5.743-10.888 6.581-23.572 6.222-35.657 0-1.436 1.436-1.555 1.675-.12 1.675 10.171 7.3 22.376 16.273 28.24 5.863-10.89 5.863-26.804 4.547-39.248-.12-1.077-.24-2.034-.359-3.11-.12-1.197 1.436-1.556 1.675-.12.12.957.24 2.034.36 2.991 1.196 8.615 4.546 16.752 10.17 23.452 4.188-8.016 4.427-18.187 2.752-26.802-.24-1.436 1.316-1.795 1.556-.36 1.077 4.787 2.752 9.573 5.982 13.402-.239.479-.598 1.077-.837 1.556l-.36-.479c-1.555-1.915-2.751-3.949-3.828-6.102.24 7.179-.957 14.597-4.427 20.58l-.599.957-.718-.837a45.7 45.7 0 0 1-8.974-15.675c.36 10.889-.837 22.735-5.863 31.35l-.359.718-.718-.479-1.077-.718c.12 3.47.12 7.419 0 11.487-.598.718-1.196 1.316-1.794 2.034.359-5.265.239-10.53.12-14.837-6.342-5.026-10.77-13.043-13.282-20.94-.12 8.615-1.317 17.35-4.547 25.367v.12c.837 6.94 2.991 15.555 6.222 23.093-.36.479-.838.838-1.197 1.316-2.991-6.94-5.265-14.837-6.222-21.657-.359.718-.718 1.436-1.077 2.034l-.478.838-.718-.599c-1.197-1.077-2.393-2.154-3.47-3.23-.36 10.888-1.795 21.179-8.616 30.272l-.359.479c.599 3.111 1.436 6.581 2.513 9.572-.478.36-.837.718-1.316 1.197-.598-1.556-1.077-3.111-1.555-4.667-.12 2.154-.24 4.308-.48 6.462-.597.478-1.196 1.077-1.914 1.555.718-5.145.838-10.53.718-15.555-6.341-7.777-9.093-20.94-9.572-30.99-1.556 2.512-3.35 4.786-5.385 7.06-.478 4.187-1.196 8.255-2.273 12.204v.359c.12 5.624-.479 11.128-1.795 16.393.598 6.58 2.633 14 5.863 20.46-.478.36-.837.719-1.316.958-2.752-5.385-4.666-11.607-5.624-17.47-3.11 9.453-8.735 17.829-17.11 24.05l-.718.48-.479-.718c-7.538-11.128-8.974-23.453-8.017-36.136-4.188 9.692-10.41 18.068-19.025 24.41-.838-.36-1.316-.719-1.675-1.077m136.407-97.52c-.12-5.025-.24-9.93 0-14.956-3.83-3.231-8.257-7.898-11.607-14.24-.957-1.794.718-2.392 1.556-.837 5.025 9.094 10.05 13.521 13.64 15.914-2.034-5.384-2.034-14.957-3.11-23.332-.599-5.385-2.035-11.966-3.351-14.838-2.632-5.743-6.461-9.213-10.051-12.085 3.47-.598 3.71-1.675 5.025-2.872-3.59-1.316-13.52-6.94-22.734-11.726-8.376-4.427-15.555-6.82-26.803-7.06-14.478-.358-30.632 9.094-38.29 17.111 3.83 3.71 8.137 6.222 11.487 8.376 14.598-6.581 26.803-7.538 31.11-3.35-2.392.837-5.384-.479-7.896.12-1.556.358-1.436 2.632-1.915 2.99-.957-.239-1.436-1.315-1.436-2.273 0-.957-2.752-.239-3.35 0-1.556.838.718 5.265-3.47 5.504-3.83.24-4.427-1.316-6.462-1.914-1.555-.359-3.11-.12-4.666.598 4.308 5.624 11.846 5.863 16.512 2.633.718-.479 1.556-1.077 1.795-.718.12.359-.12 1.555-.837 2.034-2.633 2.273-6.342 2.872-8.376 2.872-3.47-.12-6.94-1.317-10.77-5.265-1.435-.36-1.794 2.871-.956 5.982.478 1.795 1.794 3.59 2.871 4.667 4.427 4.308 10.29 6.102 15.077 9.931 2.513 2.035 4.666 4.308 6.461 8.616 1.197 2.871 1.556 6.94.957 10.05-.359 1.676-1.316 2.154-2.034 3.351 1.795 2.034 8.017 3.111 14.479 1.555 4.546-1.076 9.333-4.786 11.367-6.82 2.034-2.154 3.948-4.188 5.384-6.82.958-1.795 2.034-3.47 2.393-5.863.838-5.026.24-11.368-4.307-17.949-1.077-1.555.598-2.034 1.555-.957 4.547 4.906 5.863 14.12 4.547 19.983-1.077 4.905-4.906 9.572-6.94 11.606-6.102 6.103-15.675 13.521-31.708 7.18-15.556 9.811-27.64 21.537-37.931 31.588-9.214 8.975-20.222 21.538-28.239 24.53 7.3 3.11 11.607 1.436 15.795-.479 6.461-2.872 10.53-7.538 16.871-11.846.718-.478 1.915.958 1.197 1.556-2.633 2.034-5.744 4.666-7.539 5.983-2.153 1.675-4.068 2.034-6.222 3.47-3.59 2.273-6.7 4.546-9.692 7.777-11.846 12.803-17.948 32.666-15.914 47.623-34.221-27.52-63.058-63.058-79.93-105.775C27.227 486.21 22.8 452.109 26.628 414.058c1.077-11.008 2.154-24.05 8.735-32.905 2.991-3.948 6.94-7.299 11.966-10.53 5.264-3.35 12.563-7.538 20.7-10.649 14-5.384 26.444-8.735 41.042-11.846 14.239-2.991 28.119-4.786 42.477-6.58 17.59 2.034 30.153 3.828 43.674 6.58 20.581 4.188 47.982 12.804 64.734 25.128 4.307 3.111 9.931 8.017 12.444 14.837 2.872 7.539 4.427 20.222 4.786 28.717.24 5.624.718 11.128.838 15.915.478 24.17-3.949 50.973-9.932 70.237-2.512 9.333-6.102 18.547-10.17 27.64m-60.187 46.546c-.24 10.889-1.316 21.18-7.777 30.154-6.701-7.898-9.334-22.137-9.453-31.948v-.838c3.59-6.342 5.743-13.282 7.18-20.461 1.315 8.615 4.426 16.512 10.05 23.093" class="st1" style="clip-rule:evenodd;fill:#fff;fill-rule:evenodd;stroke-width:1.19655" transform="translate(-6.985 -332.214)"/><path d="M157.77 460.844c3.949 1.076 8.615 8.256 13.76 9.333-.837 2.752-.837 5.504-.598 8.017-1.316-.958-3.948-1.915-6.341-3.111-2.274-1.077-5.146-2.633-7.06-4.069-1.316-.957-1.914-2.034-2.393-2.871-.598-.958-1.795-4.787-.957-6.82.478-1.556 3.47-.48 3.59-.48M55.585 395.273h3.47l.24-1.556q1.255 0 2.512-.359c.837-.24 1.675-.598 2.393-.957.718-.479 1.436-.957 2.034-1.675s1.077-1.556 1.436-2.393c.359-.958.479-2.035.479-3.231 0-.838-.12-1.675-.36-2.274-.239-.718-.478-1.316-.837-1.794a6.9 6.9 0 0 0-1.316-1.317c-.479-.359-.957-.718-1.556-.957a9 9 0 0 0-1.675-.478l.24-1.556h-3.47l-.24 1.436c-.598 0-1.196.12-1.914.24a5.3 5.3 0 0 0-1.915.717c-.598.36-1.316.718-1.795 1.197-.598.478-1.077 1.077-1.555 1.675-.479.598-.838 1.436-1.077 2.273q-.36 1.257-.359 2.872c0 .838.12 1.556.359 2.273.24.718.479 1.197.838 1.795.358.479.837.958 1.316 1.316.478.36.957.718 1.555.958.599.239 1.077.359 1.675.478zm.837-4.188c-.478-.12-.957-.36-1.316-.718a4.3 4.3 0 0 1-.957-1.436c-.24-.598-.359-1.197-.359-2.034q0-1.437.359-2.513c.24-.718.598-1.436 1.077-1.915.478-.598.957-.957 1.436-1.316.478-.359 1.077-.478 1.555-.478zm5.385-10.29c.478.119.957.358 1.316.717.359.36.718.838.838 1.316.239.599.359 1.197.359 2.035 0 .957-.12 1.914-.36 2.632-.239.718-.598 1.436-.957 1.914-.478.48-.957.958-1.435 1.197-.48.24-1.077.479-1.676.479zM68.867 377.324l3.59 11.487c.119.24.119.479.119.598 0 .24-.12.36-.24.599s-.358.478-.598.718c-.24.239-.478.478-.837.598-.36.12-.599.24-.958.24h-.718c-.239 0-.478-.12-.717-.12l-.48 2.991 1.078.359c.359.12.837.12 1.196.12.718 0 1.317-.12 2.035-.36q1.076-.359 1.794-1.076c.599-.599 1.197-1.197 1.795-1.915s1.077-1.555 1.556-2.393c.478-.837.957-1.795 1.436-2.752l4.666-8.974h-4.307l-2.513 5.983c-.12.478-.36.837-.479 1.196-.12.36-.359.718-.478 1.197-.12.359-.36.837-.48 1.196h-.119l-.359-1.794c-.12-.599-.239-1.077-.359-1.676l-1.436-6.222zM85.858 377.324l-.838 4.547c-.12.957-.359 1.795-.598 2.633-.24.837-.599 1.675-.958 2.512-.359.838-.717 1.556-1.076 2.274-.48.718-.838 1.436-1.317 2.154l-1.316.12-1.196 7.298h2.871l1.197-4.307h9.094l-.599 4.307h2.992l1.675-7.299-1.675-.12 2.632-14.238H85.858zm2.752 3.231h3.709l-2.034 11.008H84.78l1.077-1.795c.359-.598.598-1.196.837-1.914.36-.838.598-1.556.838-2.393.239-.838.478-1.675.598-2.513zM100.455 377.324l-3.23 17.111c.24 0 .598.12 1.077.12.478 0 .957.12 1.555.12h1.795c.838 0 1.556 0 2.393-.12.838-.12 1.556-.36 2.274-.599s1.316-.598 1.914-1.077a5.7 5.7 0 0 0 1.197-1.196c.359-.479.598-.957.718-1.556.239-.598.239-1.196.239-1.914 0-.838-.12-1.556-.479-2.154-.24-.598-.718-1.077-1.196-1.555a6.3 6.3 0 0 0-1.795-.958 6.8 6.8 0 0 0-2.154-.359h-1.436c-.24 0-.359 0-.598.12l.598-3.111h6.82l.599-3.111h-10.29zm2.035 9.094c.239 0 .359-.12.718-.12h.717c.599 0 1.077.12 1.436.24.36.239.718.478.958.837q.359.54.359 1.436c0 .479-.12.957-.36 1.316-.239.36-.478.718-.837.958a5.6 5.6 0 0 1-1.197.598c-.478.12-.837.24-1.316.24h-.718c-.239 0-.359 0-.598-.12zM121.634 390.127l.36 4.428h3.828l-2.034-17.23h-4.666l-8.376 17.23h3.948l2.035-4.428zm-3.948-2.871 1.675-3.71c.12-.359.24-.718.479-1.077.12-.359.359-.717.478-1.196.12-.36.36-.718.479-1.077 0 .359 0 .718.12 1.077 0 .359 0 .837.12 1.196 0 .36 0 .718.119 1.077l.359 3.71zM132.643 377.324l-1.436 7.539c-.12.837-.36 1.675-.598 2.393-.24.718-.479 1.316-.718 1.914a4.3 4.3 0 0 1-.958 1.436c-.359.359-.718.598-1.076.838-.36.239-.958.359-1.436.359l.359 3.11c.957 0 1.794-.12 2.512-.478.718-.24 1.317-.718 1.915-1.197.598-.478 1.077-1.196 1.555-1.914a9.4 9.4 0 0 0 1.077-2.752c.36-1.077.599-2.393.958-3.83l.837-4.187h4.068l-2.632 14.12h3.71l3.23-17.231h-11.367zM156.454 391.085c-.479.12-.957.359-1.436.359-.598.12-1.196.12-1.795.12-.957 0-1.794-.24-2.512-.599s-1.197-.957-1.556-1.556c-.359-.717-.478-1.435-.478-2.393 0-.837.12-1.555.239-2.273.24-.718.478-1.316.837-1.915.36-.598.718-1.076 1.197-1.435.479-.48 1.077-.718 1.795-.958a6.8 6.8 0 0 1 2.154-.359c.478 0 .957 0 1.316.12.359 0 .718.12 1.077.24.239.119.478.119.718.239l1.077-2.992c-.12-.12-.48-.24-.838-.359-.359-.12-.838-.239-1.316-.239-.479-.12-1.077-.12-1.675-.12-1.197 0-2.394.12-3.35.479-1.078.24-2.035.718-2.873 1.316-.837.598-1.675 1.316-2.273 2.154s-1.197 1.795-1.555 2.872a11.3 11.3 0 0 0-.599 3.59c0 1.076.24 2.153.599 2.99.358.958.837 1.676 1.555 2.274s1.436 1.077 2.393 1.436 1.915.479 3.111.479c1.077 0 1.915-.12 2.633-.24s1.316-.359 1.794-.478zM162.078 377.324l-3.23 17.23h3.589l1.436-7.298h.478c.479 0 .838.12 1.197.239.359.12.598.359.837.718.24.24.36.598.48 1.077q.178.538.358 1.436c.12.598.24 1.077.359 1.555.12.479.24.957.24 1.316.119.36.239.718.239.958h3.829q-.18-.36-.36-1.077c-.119-.36-.239-.838-.358-1.316q-.18-.719-.36-1.795c-.119-.838-.358-1.556-.598-2.274-.239-.718-.478-1.316-.957-1.795-.359-.478-.837-.957-1.436-1.196l7.18-7.778h-4.428l-5.863 7.3h-.359l1.436-7.3zM177.035 377.324l-3.23 17.23h4.307l4.307-6.221a25.5 25.5 0 0 0 1.915-2.992c.598-.957 1.196-2.034 1.795-2.991h.12c-.24.837-.36 1.555-.599 2.273-.12.718-.359 1.436-.479 2.274-.12.718-.359 1.555-.478 2.393l-1.077 5.265h3.47l3.23-17.23h-3.948l-4.667 6.82c-.598.957-1.316 1.914-1.914 2.871s-1.316 2.034-1.915 3.111h-.12c.36-1.196.599-2.393.838-3.59.24-1.196.599-2.512.838-3.828l.957-5.265h-3.35zM198.453 377.324l-3.23 17.23h3.589l1.436-7.298h.479c.478 0 .837.12 1.196.239.359.12.598.359.838.718.239.24.359.598.478 1.077q.18.538.36 1.436c.119.598.239 1.077.358 1.555.12.479.24.957.24 1.316.12.36.239.718.239.958h3.829q-.18-.36-.36-1.077c-.119-.36-.238-.838-.358-1.316q-.18-.719-.36-1.795c-.119-.838-.358-1.556-.597-2.274-.24-.718-.479-1.316-.958-1.795-.359-.478-.837-.957-1.435-1.196l7.179-7.778h-4.547l-5.863 7.3h-.36l1.437-7.3zM215.085 377.324l-1.436 7.539c-.12.837-.359 1.675-.598 2.393-.24.718-.479 1.316-.718 1.914a4.3 4.3 0 0 1-.957 1.436c-.36.359-.718.598-1.077.838-.359.239-.957.359-1.436.359l.359 3.11c.957 0 1.795-.12 2.513-.478.718-.24 1.316-.718 1.914-1.197.599-.478 1.077-1.196 1.556-1.914a9.4 9.4 0 0 0 1.077-2.752c.359-1.077.598-2.393.957-3.83l.838-4.187h4.068l-2.633 14.12h3.71l3.23-17.231h-11.367zM227.888 377.324l3.59 11.487c.12.24.12.479.12.598 0 .24-.12.36-.24.599s-.359.478-.598.718c-.24.239-.479.478-.838.598s-.598.24-.957.24h-.718c-.24 0-.478-.12-.718-.12l-.598 2.991 1.077.359c.359.12.837.12 1.196.12.718 0 1.317-.12 2.035-.36q1.077-.359 1.794-1.076c.599-.599 1.197-1.197 1.795-1.915.599-.718 1.077-1.555 1.556-2.393.478-.837.957-1.795 1.436-2.752l4.666-8.974h-4.307l-2.513 5.983c-.12.478-.36.837-.479 1.196-.12.36-.359.718-.478 1.197-.12.359-.36.837-.479 1.196h-.12l-.359-1.794c-.12-.599-.239-1.077-.359-1.676l-1.435-6.222zM243.922 377.324l-3.23 17.111c.239 0 .598.12 1.076.12s.957.12 1.556.12h1.795c.837 0 1.555 0 2.393-.12s1.555-.36 2.273-.599 1.316-.598 1.915-1.077a5.7 5.7 0 0 0 1.196-1.196c.36-.479.598-.957.718-1.556.24-.598.24-1.196.24-1.914 0-.838-.12-1.556-.48-2.154-.239-.598-.717-1.077-1.196-1.555a6.3 6.3 0 0 0-1.795-.958 6.8 6.8 0 0 0-2.153-.359h-1.436c-.24 0-.36 0-.599.12l.599-3.111h6.82l.598-3.111h-10.29zm1.915 9.094c.239 0 .358-.12.717-.12h.718c.599 0 1.077.12 1.436.24.36.239.718.478.957.837q.36.54.36 1.436c0 .479-.12.957-.36 1.316-.239.36-.478.718-.837.958a5.6 5.6 0 0 1-1.197.598c-.478.12-.837.24-1.316.24h-.718c-.24 0-.359 0-.598-.12zM42.303 431.767h5.863l1.915-10.05c.359 0 .718 0 1.077.119.359 0 .837.12 1.316.12 1.196 0 2.273-.12 3.35-.24 1.077-.239 2.154-.478 3.111-.837.957-.36 1.795-.838 2.633-1.436.717-.598 1.316-1.197 1.914-2.034.598-.718 1.077-1.675 1.316-2.633.36-.957.479-2.034.479-3.23 0-1.317-.24-2.513-.838-3.47-.478-.958-1.316-1.795-2.273-2.513-.718-.479-1.436-.838-2.274-1.077-.837-.24-1.675-.479-2.512-.598-.838-.12-1.795-.12-2.633-.12-.957 0-1.795 0-2.632.12-.838 0-1.675.12-2.513.239q-1.256.18-2.154.359zm10.29-23.332c.24 0 .599-.12.958-.12h1.436q1.076 0 2.153.359c.599.24 1.197.598 1.556 1.077.359.478.598 1.196.598 2.154 0 .957-.24 1.794-.718 2.632-.478.718-1.196 1.436-2.034 1.795-.838.478-1.914.718-3.111.718h-1.316c-.36 0-.718-.12-.957-.12zM79.277 424.468l.598 7.3h6.342l-3.231-28h-7.658l-13.76 28h6.46l3.232-7.3zm-6.342-4.546 2.752-5.983.718-1.795c.24-.598.478-1.316.718-1.915l.718-1.794h.12c0 .598.119 1.196.119 1.794s.12 1.317.12 1.915.12 1.196.12 1.675l.598 5.983h-5.983zM99.618 403.648l-1.436 7.419a28.4 28.4 0 0 1-1.077 4.308c-.359 1.435-.957 2.752-1.436 4.188a109 109 0 0 1-1.795 3.709c-.717 1.196-1.435 2.393-2.273 3.59l-2.154.239-2.034 11.846H92.2l1.915-7.06h14.837l-1.077 7.06h4.786l2.752-11.846-2.632-.12 4.308-23.213h-17.47Zm4.547 5.146h5.983l-3.35 17.948h-8.975l1.795-2.872c.479-.957.957-2.034 1.436-3.11.478-1.317.957-2.633 1.316-3.95.359-1.316.718-2.752.957-4.068z" class="st1" style="clip-rule:evenodd;fill:#fff;fill-rule:evenodd;stroke-width:1.19655" transform="translate(-6.985 -332.214)"/><path d="M138.5 73.9H130l1.8-9.2h-5l-4.5 23.5h5l1.9-9.9h8.5l-1.9 9.9h5l4.5-23.5h-5.1z" class="st1" style="clip-rule:evenodd;fill:#fff;fill-rule:evenodd" transform="translate(-35.04 -5.983)scale(1.19655)"/><path d="m151.309 403.648-5.265 28h6.94l7.06-10.051a108 108 0 0 0 3.11-4.787c1.078-1.555 2.035-3.23 2.873-4.905h.12c-.36 1.316-.6 2.512-.838 3.709l-.718 3.59q-.36 1.794-.718 3.948l-1.675 8.615h5.623l5.265-27.999h-6.461l-7.658 11.128c-1.077 1.556-2.154 3.111-3.111 4.667a92 92 0 0 0-3.23 5.025h-.12c.478-1.914.957-3.949 1.435-5.983s.838-4.068 1.317-6.341l1.675-8.616zM177.992 403.648l-1.675 8.376c-.12.599-.24 1.197-.24 1.795-.12.598-.12 1.077-.12 1.556 0 1.316.36 2.512.958 3.47q.897 1.436 2.513 2.153t3.949.718c.717 0 1.435 0 2.034-.12.718-.119 1.316-.239 1.914-.358.598-.12 1.077-.36 1.556-.599h.12l-2.154 10.89h5.982l5.265-28h-5.983l-2.153 12.444c-.24.12-.599.359-1.077.479-.36.12-.838.239-1.317.358-.478.12-1.076.12-1.555.12-1.197 0-2.154-.24-2.752-.718s-.957-1.316-.957-2.273c0-.36 0-.838.12-1.197.119-.359.119-.837.239-1.077l1.555-7.897h-6.222zM203.718 403.648l-5.265 28h5.863l2.274-11.846h.718c.717 0 1.435.12 1.914.359.479.24.957.598 1.316 1.077.36.478.599 1.077.838 1.675.24.718.359 1.436.598 2.273.12.838.36 1.676.479 2.513.12.838.359 1.556.478 2.274.12.718.36 1.196.479 1.555h6.222c-.24-.479-.359-1.077-.598-1.675-.12-.598-.36-1.316-.479-2.154-.12-.837-.359-1.795-.598-2.872a28 28 0 0 0-.957-3.709c-.36-1.196-.838-2.154-1.436-2.991-.599-.838-1.316-1.436-2.274-1.915l11.727-12.683h-7.42l-9.572 11.846h-.717l2.273-11.846h-5.863zM228.128 403.648l-5.265 28h6.94l7.06-10.051a108 108 0 0 0 3.11-4.787c1.077-1.555 2.035-3.23 2.872-4.905h.12c-.36 1.316-.598 2.512-.838 3.709l-.718 3.59q-.358 1.794-.718 3.948l-1.675 8.615h5.624l5.265-27.999h-6.462l-7.658 11.128c-1.076 1.556-2.153 3.111-3.11 4.667a92 92 0 0 0-3.231 5.025h-.12c.479-1.914.957-3.949 1.436-5.983s.838-4.068 1.316-6.341l1.675-8.616z" class="st1" style="clip-rule:evenodd;fill:#fff;fill-rule:evenodd;stroke-width:1.19655" transform="translate(-6.985 -332.214)"/><path d="M59.3 110.7 62 96.2h-2.6l-4.1 1.7.2 2.5 2.8-1.2-2.1 11.5z" class="st1" style="clip-rule:evenodd;fill:#fff;fill-rule:evenodd" transform="translate(-35.04 -5.983)scale(1.19655)"/><path d="M49.722 458.93h1.914c.838 0 1.556-.12 2.393-.36.838-.24 1.556-.478 2.274-.837.718-.36 1.436-.718 2.034-1.197a11 11 0 0 0 1.675-1.675c.479-.718.957-1.436 1.436-2.274.359-.837.718-1.675.957-2.632.24-.957.36-1.914.36-2.991 0-.838-.12-1.676-.36-2.393-.24-.718-.598-1.436-1.077-1.915-.478-.598-1.077-.957-1.795-1.316s-1.555-.479-2.512-.479-1.915.24-2.752.598a7 7 0 0 0-2.274 1.556c-.598.598-1.196 1.436-1.555 2.273-.36.838-.599 1.676-.599 2.633s.24 1.795.599 2.513.957 1.196 1.555 1.675c.718.359 1.556.598 2.393.598.36 0 .838 0 1.197-.12s.837-.239 1.196-.359c.36-.239.718-.359.958-.717-.24.598-.718 1.196-1.197 1.794s-1.077.958-1.675 1.436c-.479.36-1.077.598-1.675.718l-1.795.36h-1.6749999999999998zm7.06-14.958c.478 0 .837.12 1.196.36.359.238.598.478.718.837s.24.837.24 1.316v.957c0 .12 0 .24-.12.36 0 .238-.12.358-.12.478-.12.12-.12.24-.24.359-.12.24-.358.359-.598.598-.24.12-.478.359-.837.479-.24.12-.599.12-.958.12s-.718-.12-1.076-.24c-.36-.24-.599-.479-.718-.838-.12-.359-.24-.718-.24-1.196 0-.479.12-.838.24-1.316s.359-.838.598-1.077c.24-.36.598-.599.837-.838q.54-.36 1.077-.359M74.73 458.69l.598-3.23h-6.222l1.795-1.197c.718-.599 1.555-1.197 2.153-1.795.718-.599 1.317-1.316 1.915-1.915.598-.718.957-1.436 1.316-2.154.36-.717.479-1.555.479-2.512a5 5 0 0 0-.36-1.915c-.239-.598-.597-1.077-1.076-1.555-.479-.479-1.077-.718-1.675-.958a7 7 0 0 0-2.274-.359c-.718 0-1.316.12-2.034.24-.598.12-1.316.359-1.795.478-.598.24-1.077.479-1.555.718l.718 2.752c.478-.239.957-.478 1.555-.718.599-.239 1.316-.239 2.034-.239.479 0 .958.12 1.317.24.359.239.598.478.837.717.24.36.24.718.24 1.077q0 1.077-.718 2.154c-.48.718-1.077 1.436-1.915 2.274-.838.837-1.914 1.675-2.991 2.632l-3.71 2.872-.478 2.512H74.73zM77.601 457.733c.24.239.599.359 1.077.598.479.12 1.077.359 1.675.478.599.12 1.317.12 2.035.12.717 0 1.555-.12 2.273-.24.718-.119 1.436-.358 2.034-.717.598-.36 1.197-.718 1.675-1.197.479-.478.838-.957 1.077-1.555.24-.598.36-1.316.479-2.034q0-1.078-.36-1.795a3.74 3.74 0 0 0-1.076-1.316c-.479-.36-.957-.599-1.556-.718.599-.12 1.077-.36 1.556-.599s.838-.598 1.197-.957c.358-.359.598-.837.837-1.196.24-.479.24-.958.24-1.556 0-.718-.12-1.316-.48-1.795-.239-.478-.717-.957-1.196-1.316-.478-.359-1.077-.598-1.675-.718s-1.316-.24-2.034-.24c-.598 0-1.197 0-1.795.12s-1.196.24-1.675.36-.957.358-1.436.598l.479 2.871c.359-.239.957-.478 1.555-.598s1.316-.24 2.034-.24c.479 0 .958.12 1.197.24.359.12.598.36.718.479.12.24.24.478.24.718q0 .538-.36 1.077c-.24.239-.478.478-.957.718-.359.239-.838.359-1.197.478-.478.12-.957.12-1.316.12h-.598l-.598 2.991h.718c1.196 0 2.034.24 2.632.598.598.36.957.958.957 1.795 0 .479-.12.838-.359 1.317-.24.358-.718.717-1.196.837-.479.24-1.077.36-1.915.36-.598 0-1.077-.12-1.555-.12-.479-.12-.958-.24-1.317-.36-.358-.12-.717-.239-.957-.359z" class="st1" style="clip-rule:evenodd;fill:#fff;fill-rule:evenodd;stroke-width:1.19655" transform="translate(-6.985 -332.214)"/></svg>