<svg xmlns="http://www.w3.org/2000/svg" viewBox="93.5 160.17 581 773"><path d="M72 719.89h432l-216-576z" style="fill:#fff;fill-opacity:1;fill-rule:nonzero;stroke:#32459b;stroke-width:5;stroke-linecap:butt;stroke-linejoin:miter;stroke-miterlimit:4;stroke-dasharray:none;stroke-opacity:1" transform="matrix(1.33333 0 0 -1.33333 0 1122.52)"/><path d="M88.91 708.344h398.182L288 177.434Z" style="fill:#fff;fill-opacity:1;fill-rule:nonzero;stroke:#32459b;stroke-width:5;stroke-linecap:butt;stroke-linejoin:miter;stroke-miterlimit:4;stroke-dasharray:none;stroke-opacity:1" transform="matrix(1.33333 0 0 -1.33333 0 1122.52)"/><path d="M287.875 708.344H89.409l198.466-529.242Z" style="fill:#3342a0;fill-opacity:1;fill-rule:nonzero;stroke:none" transform="matrix(1.33333 0 0 -1.33333 0 1122.52)"/><path d="M276.965 445.357c-.55-.333-1.102-.665-1.706-.938-5.43-2.466-11.536-1.396-15.626 2.773-2.48-.063-4.735.287-6.946 1.506-3.636-.692-7.53-.792-10.95.76-1.16.527-2.18 1.208-3.153 2.027-.248.209-.511.46-.777.702-4.903-.315-9.651.503-14.044 2.706-7.058-2.016-15.878.041-20.374 5.991-2.706.757-5.197 2.48-7.09 4.545-4.095.944-7.188 3.338-9.674 6.78l-2.824 3.909 4.813.302c6.686.422 13.336 2.042 19.602 4.387a118 118 0 0 1 6.344 2.61c12.659 5.601 26.465 14.005 40.577 14.52 9.713.354 19.163-5.612 22.464-14.856.822-2.307 1.44-4.67 1.988-7.055.313-1.369.573-2.821 1.041-4.144l.043-.121q.051 0 .093.002c6.69.088 11.692-5.435 11.899-11.952.23-7.252-3.215-15.545-11.67-15.416-1.695.027-2.819.324-4.03.962" style="fill:#fff;fill-opacity:1;fill-rule:evenodd;stroke:none" transform="matrix(1.33333 0 0 -1.33333 0 1122.52)"/><path d="M253.176 451.513c2.532-1.714 5.062-1.792 7.593-1.6 2.333-2.897 7.352-5.813 13.39-3.074.966.44 1.94 1.133 2.837 1.602 1.338-.881 2.137-1.357 4.04-1.386 6.803-.105 9.15 7.02 8.97 12.672-.16 5.073-3.976 9.444-9.205 9.376-1.73-.023-2.106.273-2.678 1.89-.493 1.393-.796 2.997-1.126 4.439-.527 2.295-1.11 4.536-1.902 6.755-2.92 8.18-11.294 13.404-19.861 13.092-13.429-.49-27.465-8.927-39.598-14.294a120 120 0 0 0-6.488-2.67c-6.57-2.457-13.494-4.116-20.367-4.549 2.145-2.97 4.885-5.225 8.931-5.907 1.996-2.442 4.705-4.17 7.271-4.61 3.603-5.656 12.253-7.926 19.034-5.482 4.23-2.366 9.095-3.388 14.64-2.843 1.876-1.317 4.433-5.66 14.519-3.41" style="fill:#f1e131;fill-opacity:1;fill-rule:evenodd;stroke:none" transform="matrix(1.33333 0 0 -1.33333 0 1122.52)"/><path d="M253.929 467.753c-4.958-.74-8.778 2.8-10.602 7.11 3.658-1.65 7.608-1.714 10.112-1.469 3.41.334 6.492.94 9.595 2.837-1.178-5.383-6.959-6.714-8.046-6.958 1.255-1.68 4.142-3.03 6.446-3.059 5.16-.064 8.21 5.046 7.821 1.509-.25-1.634-.754-2.52-2.317-3.33 1.036-4.008 4.143-4.332 5.993-4.329l7 .009c1.514.002 1.515-2.452 0-2.457l-4.804-.016c-1.25-.004-2.677-.206-3.375-1.245-1.439-2.144-3.26-4.575-6.539-5.927 7.622-3.172 9.7 2.08 11.526 2.123 2.113.049 2.253-1.475 4.357-1.507 3.485-.054 5.066 4.028 4.923 8.556-.099 3.089-2.293 5.55-5.166 5.514-3.57-.047-5.378 1.403-6.49 4.548-.954 2.691-1.385 6.59-3.025 11.183-2.368 6.633-9.203 10.693-15.958 10.446-15.644-.571-31.917-12.913-49.604-18.341 2.757-1.567 4.98-1.554 10.399-1.422-1.138-1.886-4.106-2.624-9.403-4.127 6.127-2.816 17.243-.345 20.945 2.27-1.97-5.593-11.97-6.136-16.387-6.83 2.174-2.249 5.76-2.852 9.06-2.447 4.82.592 9.516 3.177 12.31 4.578-.02-2.922-2.254-4.63-4.7-5.838 6.517-2.395 14.854-2.755 19.802 3.277-4.75-.465-11.563 1.112-10.257 6.842 2.277-2.857 12.824-7.642 16.384-1.5m7.935-4.356c-1.378-2.262-4.803-2.899-6.558-2.428-2.176.583-1.212 3.357 0 4.5 2.234-1.38 3.611-2.192 6.558-2.072m2.999-1.642c-1.64-2.357-4.633-5.5-7.77-7.215 2.899-1.714 5.785-1.799 8.127-.357 1.853 1.14 2.418 1.741 3.63 4.096-1.368-.187-3.132 1.645-3.987 3.476m-13.903-.43c-2.566-2.714-3.992-3.927-7.272-5.142 2.9-1.715 7.337-1.776 9.697-.357 1.426.857 2.878 1.858 3.445 2.678-2.847.01-4.812 1.842-5.87 2.822m15.183 14.75c-1.102.024-4.67 5.3-8.52 6.285-3.785.968-8.332.56-13.083.752 2.234 2.213 5.446 3.376 9.624 3.856 2.49.285 6.587.133 8.913-2.143 1.157-1.132 2.367-2.728 2.533-4.198.193-1.71 1.513-1.73 1.625-2.671.115-.963-.171-1.803-1.092-1.882m-24.736 3.25c-.617-3.379-3.374-6.855-6.702-6.784-3.176.066-5.633 2.952-5.918 6.715 2.091-1.905 4.403-2.311 6.49-2.217 2.639.119 3.967.978 6.13 2.287" style="fill:#fff;fill-opacity:1;fill-rule:evenodd;stroke:none" transform="matrix(1.33333 0 0 -1.33333 0 1122.52)"/><path d="M285.499 498.985c.821 0 1.641-.065 2.452-.196V421.2c-.81-.132-1.63-.201-2.452-.201-.87 0-1.738.076-2.595.221-7.06 1.214-12.24 7.043-15.45 13.08-4.099 7.713-5.831 17.016-5.831 25.692s1.732 17.98 5.832 25.693c3.593 6.766 9.835 13.3 18.044 13.3" style="fill:#fff;fill-opacity:1;fill-rule:evenodd;stroke:none" transform="matrix(1.33333 0 0 -1.33333 0 1122.52)"/><path d="M292.408 482.788c-13.935 8.064-17.938-16.71-17.86-23.51.286-24.786 12.492-26.51 14.722-24.343l5.792 4.704c2.998 5.137 4.452 9.815 5.178 14.555l-1.879 20.277c-1.872 3.036-3.39 5.843-5.953 8.317" style="fill:#f1e131;fill-opacity:1;fill-rule:evenodd;stroke:none" transform="matrix(1.33333 0 0 -1.33333 0 1122.52)"/><path d="M285.499 496.326c11.714 0 21.216-16.27 21.216-36.335 0-20.063-9.502-36.333-21.216-36.333-11.716 0-21.216 16.27-21.216 36.333 0 20.065 9.5 36.335 21.216 36.335m0-1.994c10.613 0 19.22-15.38 19.22-34.34 0-18.962-8.607-34.34-19.22-34.34-10.614 0-19.222 15.378-19.222 34.34 0 18.96 8.608 34.34 19.222 34.34" style="fill:#f1e131;fill-opacity:1;fill-rule:evenodd;stroke:none" transform="matrix(1.33333 0 0 -1.33333 0 1122.52)"/><path d="M285.499 494.332c10.613 0 19.22-15.38 19.22-34.34 0-18.962-8.607-34.34-19.22-34.34-10.614 0-19.222 15.378-19.222 34.34 0 18.96 8.608 34.34 19.222 34.34m-11.241-22.56 7.616-8.044a19.2 19.2 0 0 1-.516-4.472c0-.692.035-1.373.102-2.033l-7.638-7.982c-.707 3.196-1.099 6.7-1.099 10.375 0 4.371.554 8.5 1.535 12.156m2.752-31.413 6.562 10.246c1.086-1.733 2.5-2.896 4.068-3.204l1.842-14.478a8 8 0 0 0-2.356-.365c-3.942 0-7.515 2.98-10.116 7.8M296 438.307l-3.82 10.758c2.044 2.097 3.41 5.878 3.41 10.192 0 3.838-1.08 7.256-2.76 9.439l5.227 8.54c2.164-4.735 3.474-10.892 3.474-17.62 0-8.651-2.164-16.356-5.531-21.309m-3.527 46.442-3.557-13.582a4 4 0 0 1-.442.023c-1.53 0-2.95-.81-4.111-2.19l-6.163 11.849c2.454 3.648 5.554 5.826 8.927 5.826 1.89 0 3.694-.683 5.346-1.926m-9.91-18.847q.25.626.544 1.19l-6.113 11.75a31 31 0 0 1-2.074-4.865zm8.818 4.25a6 6 0 0 1-.57.38l3.33 12.718c1.038-1.088 1.995-2.41 2.855-3.927zm-.884-22.34q-.42-.21-.861-.33l1.705-13.744c1.112.64 2.166 1.526 3.144 2.621zm-7.963 4.871a16 16 0 0 0-.658 2.09l-7.48-7.816c.453-1.6.986-3.103 1.593-4.494z" style="fill:#fff;fill-opacity:1;fill-rule:evenodd;stroke:none" transform="matrix(1.33333 0 0 -1.33333 0 1122.52)"/><path d="M287.126 488.67c2.07 0 4.048-.682 5.87-1.92l-.524-2.002c-1.652 1.243-3.457 1.926-5.346 1.926-3.373 0-6.473-2.178-8.927-5.826l-.99 1.903c2.753 3.714 6.19 5.918 9.917 5.918m-10.133-9.827a31 31 0 0 1-2.074-4.866l-1.5 1.584c.72 1.941 1.57 3.72 2.524 5.3zm-2.735-7.07c-.98-3.656-1.535-7.785-1.535-12.156 0-3.675.392-7.179 1.099-10.375l-1.615-1.688c-.949 3.676-1.479 7.759-1.479 12.063 0 4.996.713 9.7 1.967 13.806zm24.99 7.41c2.655-5.163 4.277-12.032 4.277-19.566 0-9.653-2.66-18.205-6.75-23.488l-.776 2.178c3.365 4.955 5.531 12.658 5.531 21.31 0 6.727-1.31 12.885-3.474 17.618zm-2.251.14c-.86 1.518-1.817 2.84-2.855 3.928l.609 2.151 3.105-4.673zm-1.8-44.998c-1.124-1.126-2.33-2.029-3.597-2.664l-.257 2.077c1.112.64 2.166 1.526 3.144 2.62zm-5.459-3.39a9.5 9.5 0 0 0-2.61-.372c-4.372 0-8.343 3.034-11.283 7.976l1.167 1.82c2.6-4.82 6.173-7.8 10.116-7.8.804 0 1.59.127 2.356.365z" style="fill:#f1e131;fill-opacity:1;fill-rule:evenodd;stroke:none" transform="matrix(1.33333 0 0 -1.33333 0 1122.52)"/><path d="m273.436 475.653 9.127-9.752q.249.626.543 1.19l-7.21 13.956zM294.754 485.479l-3.992-15.08c.447-.012.24-.189.661-.241l6.463 10.595zM295.263 434.129l-4.766 13.683q-.42-.21-.861-.33l2.036-16.405zM272.678 445.44l2.087-4.759 8.054 11.572c-.258.655-.764 1.783-.943 2.52z" style="fill:#f1e131;fill-opacity:1;fill-rule:evenodd;stroke:none" transform="matrix(1.33333 0 0 -1.33333 0 1122.52)"/><path d="M321.183 451.798c-2.53-1.714-5.06-1.792-7.592-1.6-2.334-2.897-7.354-5.815-13.392-3.073-.966.438-1.94 1.132-2.836 1.6-1.337-.883-2.137-1.356-4.038-1.385-6.805-.105-9.152 7.02-8.972 12.672.16 5.073 3.976 9.444 9.206 9.375 1.729-.022 2.104.274 2.676 1.892.494 1.392.798 2.995 1.128 4.438.525 2.293 1.11 4.535 1.9 6.755 2.922 8.18 11.295 13.404 19.861 13.091 13.43-.49 27.466-8.926 39.599-14.293 2.136-.945 4.298-1.85 6.488-2.67 6.57-2.457 13.494-4.116 20.366-4.549-2.144-2.97-4.885-5.225-8.93-5.908-1.996-2.442-4.705-4.17-7.271-4.61-3.603-5.656-12.253-7.927-19.033-5.482-4.23-2.364-9.097-3.388-14.64-2.842-1.877-1.318-4.434-5.663-14.52-3.41" style="fill:#f1e131;fill-opacity:1;fill-rule:evenodd;stroke:none" transform="matrix(1.33333 0 0 -1.33333 0 1122.52)"/><path d="M320.43 468.039c4.96-.74 8.778 2.798 10.603 7.11-3.659-1.651-7.608-1.716-10.112-1.47-3.411.333-6.493.938-9.596 2.838 1.179-5.384 6.958-6.716 8.045-6.96-1.253-1.68-4.142-3.03-6.443-3.057-5.162-.065-8.212 5.044-7.823 1.508.25-1.635.753-2.52 2.318-3.33-1.037-4.009-4.145-4.332-5.994-4.33l-7 .01c-1.513.002-1.515-2.452 0-2.457l4.803-.016c1.251-.004 2.68-.207 3.376-1.246 1.44-2.144 3.26-4.574 6.54-5.926-7.623-3.172-9.7 2.08-11.528 2.123-2.112.05-2.252-1.475-4.356-1.507-3.486-.054-5.066 4.028-4.923 8.556.099 3.088 2.293 5.551 5.167 5.513 3.569-.046 5.377 1.404 6.49 4.55.953 2.69 1.384 6.59 3.024 11.183 2.369 6.632 9.203 10.692 15.958 10.444 15.645-.57 31.917-12.911 49.604-18.34-2.757-1.567-4.98-1.554-10.4-1.423 1.138-1.886 4.108-2.623 9.403-4.127-6.126-2.816-17.243-.344-20.944 2.27 1.97-5.592 11.97-6.135 16.387-6.828-2.174-2.25-5.76-2.853-9.06-2.449-4.822.593-9.516 3.177-12.31 4.58.022-2.922 2.253-4.631 4.7-5.839-6.518-2.395-14.854-2.756-19.803 3.276 4.75-.464 11.564 1.113 10.258 6.843-2.276-2.857-12.824-7.641-16.383-1.5m-7.935-4.356c1.378-2.262 4.803-2.9 6.557-2.428 2.176.583 1.214 3.358 0 4.5-2.234-1.38-3.613-2.192-6.557-2.072m-3-1.642c1.64-2.356 4.632-5.5 7.77-7.215-2.898-1.714-5.786-1.8-8.127-.357-1.854 1.141-2.418 1.742-3.63 4.096 1.368-.186 3.132 1.645 3.987 3.476m13.901-.43c2.569-2.714 3.994-3.927 7.275-5.142-2.9-1.715-7.338-1.776-9.698-.357-1.425.856-2.877 1.857-3.444 2.678 2.845.01 4.812 1.842 5.867 2.821m-15.181 14.75c1.101.024 4.672 5.302 8.52 6.286 3.785.968 8.331.56 13.083.751-2.233 2.215-5.445 3.377-9.625 3.857-2.489.286-6.587.134-8.912-2.143-1.157-1.132-2.367-2.727-2.533-4.198-.192-1.71-1.514-1.73-1.624-2.67-.115-.964.17-1.804 1.09-1.883m24.737 3.25c.617-3.378 3.374-6.855 6.702-6.785 3.177.068 5.634 2.953 5.917 6.717-2.09-1.906-4.401-2.312-6.489-2.218-2.639.12-3.968.979-6.13 2.287" style="fill:#fff;fill-opacity:1;fill-rule:evenodd;stroke:none" transform="matrix(1.33333 0 0 -1.33333 0 1122.52)"/><path d="m287.57 629.069 30.178-21.583-11.53 35.036 30.32 21.585h-37.437l-11.53 35.175-11.532-35.175h-37.3l30.18-21.585-11.53-35.036z" style="fill:#ee2722;fill-opacity:1;fill-rule:evenodd;stroke:none" transform="matrix(1.33333 0 0 -1.33333 0 1122.52)"/><path d="m263.082 615.195 24.489 17.657 24.485-17.657-9.396 28.447 24.627 17.52h-30.32l-9.396 28.45-9.255-28.45h-30.322l24.485-17.52z" style="fill:#fff;fill-opacity:1;fill-rule:evenodd;stroke:none" transform="matrix(1.33333 0 0 -1.33333 0 1122.52)"/><path d="m276.04 644.764-7.26-21.722 18.79 13.453 18.791-13.453-7.26 21.722 18.93 13.456h-23.345l-7.115 21.865-7.118-21.865h-23.205z" style="fill:#ee2722;fill-opacity:1;fill-rule:evenodd;stroke:none" transform="matrix(1.33333 0 0 -1.33333 0 1122.52)"/><path d="M271.308 585.89v22.187h15.219v-3.75h-10.75v-5.25h9.281v-3.75h-9.281v-9.437z" style="fill:#fff;fill-opacity:1;fill-rule:nonzero;stroke:none" transform="matrix(1.33333 0 0 -1.33333 0 1122.52)"/><path d="M290.244 585.89v22.187h4.469v-9.845l9.103 9.845h6.038l-8.387-8.62 8.824-13.567h-5.797l-6.145 10.423-3.636-3.718v-6.705z" style="fill:#36419c;fill-opacity:1;fill-rule:nonzero;stroke:none" transform="matrix(1.33333 0 0 -1.33333 0 1122.52)"/><path d="m174.312 554.577 7.062.688q.634-3.549 2.57-5.212 1.936-1.664 5.226-1.663 3.483 0 5.25 1.476 1.767 1.477 1.767 3.456 0 1.27-.745 2.16-.744.892-2.597 1.551-1.27.435-5.782 1.55-5.805 1.428-8.146 3.524-3.293 2.95-3.293 7.19 0 2.73 1.552 5.105t4.472 3.62q2.922 1.243 7.052 1.243 6.745 0 10.155-2.982 3.41-2.981 3.582-7.956l-7.25-.25q-.464 2.764-1.987 3.976-1.523 1.211-4.57 1.212-3.144 0-4.923-1.294-1.146-.83-1.145-2.221 0-1.27 1.073-2.173 1.364-1.148 6.633-2.383 5.267-1.234 7.79-2.567 2.524-1.333 3.952-3.643 1.426-2.31 1.427-5.708 0-3.08-1.711-5.77-1.711-2.688-4.838-3.996t-7.794-1.308q-6.793 0-10.433 3.161-3.641 3.162-4.35 9.214M209.599 542.89v35.812h11.579q6.58 0 8.58-.538 3.073-.806 5.143-3.507 2.072-2.7 2.073-6.976 0-3.3-1.193-5.548-1.192-2.25-3.03-3.531-1.837-1.284-3.735-1.699-2.58-.513-7.471-.513h-4.696v-13.5zm7.25 29.75v-10.188h3.937q4.254 0 5.688.564 1.433.563 2.248 1.762.814 1.2.814 2.792 0 1.959-1.142 3.233-1.143 1.272-2.893 1.592-1.29.245-5.177.245zM271.55 542.89h-7.81l-3.101 8.125H246.19l-2.976-8.125h-7.665l13.987 35.812h7.609zm-13.291 14.187-4.99 13.25-4.856-13.25z" style="fill:#fff;fill-opacity:1;fill-rule:nonzero;stroke:none" transform="matrix(1.33333 0 0 -1.33333 0 1122.52)"/><path d="M319.454 542.89v29.75h-10.562v6.062h28.375v-6.062h-10.563v-29.75zM370.598 542.89h-7.81l-3.101 8.125h-14.448l-2.976-8.125h-7.665l13.987 35.812h7.608zm-13.291 14.187-4.99 13.25-4.856-13.25zM374.394 542.89v35.812h7.25v-15.93l14.677 15.93h9.729l-13.545-13.964 14.232-21.848h-9.355l-9.897 16.796-5.841-5.984V542.89z" style="fill:#36419c;fill-opacity:1;fill-rule:nonzero;stroke:none" transform="matrix(1.33333 0 0 -1.33333 0 1122.52)"/><path d="m209.838 518.077 4.375.438q.394-2.193 1.6-3.222t3.252-1.028q2.169 0 3.268.915 1.099.916 1.1 2.142 0 .787-.462 1.34t-1.611.961q-.787.273-3.585.972-3.6.895-5.05 2.2-2.043 1.838-2.043 4.48 0 1.7.96 3.18t2.769 2.254 4.364.774q4.174 0 6.285-1.848t2.216-4.933l-4.469-.156q-.288 1.715-1.234 2.467t-2.84.752q-1.953 0-3.058-.805-.711-.516-.712-1.381 0-.79.665-1.352.846-.714 4.111-1.488t4.829-1.6 2.449-2.257.884-3.537q0-1.908-1.061-3.575-1.06-1.666-3-2.477t-4.834-.81q-4.213 0-6.47 1.94-2.259 1.94-2.698 5.654M231.64 533.077h4.469v-12.025q0-2.862.167-3.71.288-1.365 1.372-2.19 1.083-.825 2.965-.825 1.91 0 2.881.78t1.168 1.916.197 3.771v12.283h4.469V521.41q0-4-.364-5.652-.363-1.652-1.339-2.789-.975-1.137-2.61-1.81-1.635-.675-4.266-.675-3.178 0-4.82.735-1.641.735-2.595 1.91-.953 1.174-1.255 2.462-.44 1.91-.439 5.637zM254.09 533.077h8.855q2.63 0 3.922-.22a5.8 5.8 0 0 0 2.312-.914q1.02-.695 1.7-1.851t.68-2.592q0-1.558-.838-2.857a5.2 5.2 0 0 0-2.271-1.95q2.025-.591 3.114-2.015t1.088-3.349q0-1.516-.703-2.947t-1.92-2.288q-1.215-.856-3-1.053-1.12-.121-5.396-.151h-7.543zm4.469-3.687v-5.125h2.925q2.609 0 3.242.075 1.145.135 1.801.794.657.657.657 1.73 0 1.029-.566 1.672-.565.642-1.681.778-.663.076-3.815.076zm0-8.813v-5.937h4.144q2.42 0 3.07.136.999.181 1.626.886.628.705.628 1.886 0 .999-.484 1.696-.485.697-1.399 1.015-.916.318-3.97.318z" style="fill:#fff;fill-opacity:1;fill-rule:nonzero;stroke:none" transform="matrix(1.33333 0 0 -1.33333 0 1122.52)"/><path d="M305.59 510.89v18.437h-6.594v3.75h17.594v-3.75h-6.531V510.89zM319.37 510.89v22.187h4.468V510.89zM342.295 519.077l4.344-1.344q-.998-3.662-3.32-5.44t-5.89-1.778q-4.417 0-7.26 3.022-2.844 3.023-2.843 8.265 0 5.545 2.858 8.613t7.515 3.068q4.069 0 6.61-2.409 1.51-1.425 2.267-4.09l-4.437-1.063q-.393 1.723-1.638 2.72-1.245.999-3.026.999-2.46 0-3.993-1.77-1.53-1.771-1.53-5.735 0-4.206 1.509-5.991 1.51-1.786 3.926-1.786 1.781 0 3.066 1.138 1.283 1.138 1.842 3.581M370.494 510.89h-4.873l-1.9 5.03h-8.86l-1.824-5.03h-4.793l8.572 22.187h4.827zm-8.224 8.78-3.073 8.22-2.977-8.22z" style="fill:#36419c;fill-opacity:1;fill-rule:nonzero;stroke:none" transform="matrix(1.33333 0 0 -1.33333 0 1122.52)"/><path d="M263.084 385.89h-4.813v18.154q-2.625-2.471-6.187-3.654v4.375q1.877.611 4.082 2.322 2.202 1.71 3.023 3.99h3.894zM270.424 391.747l4.625.518q.169-1.433.884-2.123.714-.69 1.887-.69 1.48 0 2.517 1.384 1.036 1.385 1.326 5.718-1.806-2.103-4.515-2.102-2.947 0-5.086 2.272-2.139 2.27-2.138 5.913 0 3.793 2.258 6.117t5.754 2.323q3.8 0 6.238-2.951 2.437-2.95 2.437-9.707 0-6.878-2.536-9.922t-6.604-3.045q-2.928 0-4.733 1.578t-2.314 4.717m10.812 10.48q0 2.306-1.067 3.578-1.068 1.271-2.467 1.272-1.333 0-2.212-1.043t-.879-3.418q0-2.408.956-3.536t2.391-1.128q1.382 0 2.33 1.085.948 1.086.948 3.19" style="fill:#fff;fill-opacity:1;fill-rule:nonzero;stroke:none" transform="matrix(1.33333 0 0 -1.33333 0 1122.52)"/><path d="M299.139 385.89v5.062h-10.25v4.171l10.863 15.954h4.012V395.14h3.125v-4.188h-3.125v-5.062zm0 9.25v8.617l-5.79-8.617zM309.292 392.334l4.812.493q.203-1.615 1.203-2.557 1-.944 2.303-.943 1.49 0 2.524 1.228 1.033 1.226 1.033 3.699 0 2.318-1.045 3.476-1.045 1.16-2.72 1.16-2.092 0-3.75-1.813l-3.86.559 2.437 13.004h12.75v-4.5h-9.102l-.785-4.215q1.62.776 3.308.777 3.223 0 5.464-2.332 2.24-2.332 2.24-6.053 0-3.104-1.79-5.539-2.438-3.326-6.77-3.326-3.462 0-5.644 1.866t-2.608 5.016" style="fill:#36419c;fill-opacity:1;fill-rule:nonzero;stroke:none" transform="matrix(1.33333 0 0 -1.33333 0 1122.52)"/><path d="M330.3 326.64c0-23.086-18.714-41.8-41.8-41.8s-41.8 18.714-41.8 41.8 18.714 41.8 41.8 41.8 41.8-18.714 41.8-41.8" style="fill:#fff;fill-opacity:1;fill-rule:nonzero;stroke:none" transform="matrix(1.33333 0 0 -1.33333 0 1122.52)"/><path d="M303.556 549.82q-2.571 4.173-4.086 5.808t-3.841 3.002q4.687.684 7.042 3.312 2.355 2.629 2.355 6.663 0 3.179-1.558 5.648t-4.15 3.435q-2.592.966-8.312.966h-3.18v-6.062h.865q4.365 0 5.238-.123 1.745-.295 2.703-1.41.958-1.117.958-2.932 0-1.62-.728-2.698-.728-1.08-2.012-1.52-1.286-.443-6.45-.442h-.573v-5.998c.115-.03.243-.057.343-.092q1.142-.404 2.163-1.487 1.02-1.085 3.793-5.251l5.146-7.797h8.63z" style="fill:#36419c;fill-opacity:1;fill-rule:nonzero;stroke:none" transform="matrix(1.33333 0 0 -1.33333 0 1122.52)"/><path d="M287.785 563.466h-5.029v9.125h5.03v6.063h-12.28V542.84h7.25v14.938h1.46c1.62 0 2.805-.132 3.57-.389z" style="fill:#fff;fill-opacity:1;fill-rule:nonzero;stroke:none" transform="matrix(1.33333 0 0 -1.33333 0 1122.52)"/><path d="M288.743 363.947c7.278-.063 14.098-2.776 20.123-6.715 10.825-7.083 18.505-17.255 18.505-30.62 0-21.226-17.91-37.591-38.797-37.591-14.064 0-26.741 7.4-33.609 19.68-3.07 5.487-4.757 11.612-4.757 17.911 0 11.75 4.88 22.517 14.178 29.804 7.21 5.648 15.318 7.608 24.357 7.531" style="fill:#fff;fill-opacity:1;fill-rule:evenodd;stroke:none" transform="matrix(1.33333 0 0 -1.33333 0 1122.52)"/><path d="M275.598 324.633c-4.43-1.038-8.602-2.074-13.033-3.113-.263-15.55 7.111-22.666 22.267-21.011 7.558-4.302 16.317-4.92 26.407.692l6.646.605c-6.552-6.995-14.88-10.842-24.423-12.536-6.588-.229-13.262-.512-19.85 2.766-9.877 3.92-16.818 11.618-20.367 20.318-2.257 4.699-3.15 9.398-3.107 14.093.33 10.866 3.494 20.723 12.341 28.36-6.786-8.046-9.813-16.68-6.472-21.961 1.237-2.248 2.653-4.756 5.717-6.213 3.063-1.46 7.775-2.217 13.874-2M299.823 337.003c2.1-4.766 3.349-10.598 5.4-14.237 1.336-2.372 4.526-4.992 9.511-7.9-5.824 1.283-8.793 3.424-12.846 6.08l-18.867 18.12c-2.773 4.091-4.981 7.61-6.078 11.702 2.167-1.793 3.354-3.158 4.109-4.254 1.441-2.09 1.99-3.492 3.384-4.492 2.075-1.49 3.59-1.24 5.927-1.485 2.488-.26 5.84-1.042 9.46-3.534" style="fill:#e5e3e4;fill-opacity:1;fill-rule:evenodd;stroke:none" transform="matrix(1.33333 0 0 -1.33333 0 1122.52)"/><path d="M259.01 308.904c1.56-3.396 5.91-9.129 12.886-12.113 5.942-3.31 19.862-3.925 25.781-3.278 4.462.517 11.156 4.025 13.793 7.918 2.214.202 4.2.173 6.415.375-6.552-6.995-14.88-10.842-24.423-12.536-6.588-.229-13.262-.512-19.85 2.766-9.877 3.92-16.818 11.618-20.367 20.318z" style="fill:#bcb6b4;fill-opacity:1;fill-rule:evenodd;stroke:none" transform="matrix(1.33333 0 0 -1.33333 0 1122.52)"/><path d="M302.06 320.874c-.506 5.187-1.211 10.923-2.38 16.003-5.095 1.678-11.275 2.547-16.623 2.379-3.432-4.281-5.992-9.407-7.486-14.667 3.451-4.396 7.26-7.98 11.855-11.133 5.14 1.781 10.086 4.457 14.635 7.418M300.514 357.192c.898-1.03 1.745-2.312 2.366-3.52 1.436-2.78 2.976-6.06 3.854-9.08 4.473-.252 9.362-1.858 12.774-4.805.287 2.541.36 5.677-.071 8.203-3.155 4.646-6.275 7.31-11.285 9.574-2.4.568-5.368-.082-7.638-.372M250.229 326.232c.01-3.671.471-7.58 1.719-10.132 1.555-3.181 4.54-5.975 7.404-8.207.036 4.236 1.53 9.768 3.037 13.615-2.605 3.152-5.03 7.522-6.534 11.376-2.008-1.93-4.147-4.392-5.626-6.652M313.973 314.762c.958-7.857-.85-10.724-.374-11.986.129-.35 2.28-1.056 3.642-1.243 3.778 2.767 8.512 10.567 8.583 15.275-.375 2.466-1.404 5.512-2.867 7.543-2.183-3.54-5.419-7.412-8.984-9.59M263.299 355.424c-.144-1.844-.09-4.96.014-6.802 4.51 1.56 9.107 2.107 13.888 1.838 2.473 3.803 6.14 7.343 10.398 8.94-2.262 1.206-5.544 2.776-7.94 3.683-6.616-1.006-11.776-3.444-16.36-7.66" style="fill:#36419c;fill-opacity:1;fill-rule:evenodd;stroke:none" transform="matrix(1.33333 0 0 -1.33333 0 1122.52)"/><path d="M288.746 364.247c7.573-.064 14.472-2.96 20.284-6.765l.212-.14c3.772-1.795 7.056-4.003 10.508-9.121l.026-.153c4.875-5.893 7.896-13.032 7.896-21.456 0-3.818-.586-7.504-1.673-10.981-.652-5.224-4.93-11.347-7.871-13.803-6.43-7.186-15.595-12.014-25.905-12.941-6.401-.836-13.008.01-18.807 2.847l-.006.012c-7.99 3.364-14.523 9.326-18.707 16.807a38.5 38.5 0 0 0-2.206 4.64c-1.912 3.381-3.143 8.72-2.592 12.904l.005.009q-.004.254-.004.507c0 11.93 4.99 22.749 14.294 30.04q.503.391 1.01.764c3.754 3.196 8.896 5.248 13.77 5.982 3.016.6 6.255.879 9.766.848m-.714-4.664c4.183.13 8.361-.702 12.336-1.951 2.196.314 4.716.429 6.819.3-5.595 3.387-11.828 5.655-18.445 5.71-2.763.025-5.433-.14-8.013-.545 2.519-1.019 5.148-2.347 7.303-3.514m12.198-2.54c-4.076 1.285-8.375 2.128-12.665 1.916l-.132-.006c-3.543-1.271-6.854-3.933-9.844-8.537 1.27-4.172 3.115-7.34 5.535-10.9 5.847.174 11.744-.702 16.342-2.192 2.558 2.133 4.906 4.678 6.912 7.331-.845 2.91-2.29 6.035-3.688 8.74-.688 1.335-1.47 2.607-2.46 3.647m-12.565-43.794c.1-4.376-.842-8.582-2.529-12.605 2.493-3.515 8.03-5.975 13.687-6.842-1.426-1.612-3.24-3.036-4.819-4.1 8.873 1.233 16.917 5.436 22.849 11.63l-6.044-.39c1.605 3.247 2.5 8.054 2.991 13.751-4.003 1.267-8.286 3.375-11.648 5.864-4.133-2.694-8.872-5.359-14.487-7.308m-3.239-12.731c1.76 4.08 2.75 8.354 2.633 12.804-4.125 2.828-7.718 5.842-11.606 10.774-4.246-.914-8.49-1.833-12.735-2.745-1.854-4.724-3.33-9.914-3.08-13.942-1.93 1.166-3.856 2.471-5.785 4.147q.632-1.378 1.376-2.708c4.122-7.366 10.36-12.972 17.744-16.246-.741 1.523-1.226 2.986-1.708 4.386 4.03-.06 8.743 1.672 13.161 3.53m17.974 20.608c3.366-2.518 7.707-4.65 11.736-5.905 3.238 1.991 6.071 5.14 8.5 9.158.139 5.292-1.143 10.344-3.469 15.08l-.109.219c-4.167 3.749-9.426 4.43-12.228 4.577-1.992-2.633-4.318-5.156-6.85-7.286 1.002-4.332 1.847-10.001 2.42-15.843m17.336 18.545c2.35-4.805 3.64-9.93 3.504-15.294 1.221-1.585 2.16-3.67 2.712-6.737a36.4 36.4 0 0 1 1.119 8.973c0 7.881-2.696 14.639-7.135 20.297.266-2.463.085-4.927-.2-7.239m-20.303-3.012-.048.059c-5.077 1.665-10.971 2.36-16.3 2.194l-.06-.042c-3.414-4.27-5.705-9.038-7.195-14.28 3.883-4.654 7.8-7.63 11.855-8.28 3.733-.595 9.914 2.382 14.117 4.739-.506 5.169-1.21 10.544-2.369 15.61m-16.865 2.607c-2.413 3.553-4.255 6.736-5.532 10.898-4.103.23-8.447-.021-13.573-1.845-3.17-5.104-5.655-9.584-7.31-15.402 1.557-4.08 4.032-8.09 6.41-10.983l12.661 2.731c1.46 5.171 3.723 10.078 7.344 14.6m-26.958-6.054c1.674 5.824 4.172 10.325 7.356 15.454-.117 1.943-.143 4.168.005 6.185-8.08-7.086-12.356-17.026-12.458-27.836 1.47 2.172 3.27 4.513 5.097 6.197m58.796-18.533c.371-4.487.324-6.315.186-8.541-.082-1.337-.42-3.606-.104-3.7.712-.215 1.673-.545 2.843-.47q.19.14.38.295c3.938 3.836 6.73 8.367 7.673 13.384q.086.602.097 1.163c-.377 2.466-1.06 4.907-2.523 6.936-2.183-3.536-4.989-6.89-8.552-9.067m-63.01 4.093c.318-.922.68-1.785 1.07-2.584 1.556-3.183 3.677-5.455 6.54-7.688.038 4.238 1.618 9.163 3.125 13.01-2.604 3.152-4.943 7.09-6.447 10.944-1.881-1.807-3.726-4.234-5.168-6.393.039-2.47.34-4.908.88-7.29m49.592 38.338c5.311-4.683 5.731-8.29 7.915-10.174 2.478-2.134 5.33-1.067 10.305-6.583.28 2.48.394 4.99-.002 7.46-2.54 3.8-6.846 7.816-11.223 9.452-2.187.22-4.723.135-6.995-.155M263.6 355.12c-.143-1.843-.155-4.287-.052-6.13 4.512 1.559 8.765 2.041 13.545 1.773 2.473 3.801 5.665 7.084 9.923 8.68-2.242 1.197-5.127 2.538-7.511 3.444-5.844-.97-11.548-3.55-15.905-7.767" style="fill:#36419c;fill-opacity:1;fill-rule:evenodd;stroke:none" transform="matrix(1.33333 0 0 -1.33333 0 1122.52)"/><path d="M293.625 530.454c-1.53 1.586-3.465 2.545-5.791 2.894v-3.982a5.4 5.4 0 0 0 2.438-1.586q1.673-1.88 1.673-5.7 0-3.866-1.718-5.8c-.683-.768-1.483-1.301-2.393-1.612v-4.015c2.34.341 4.284 1.3 5.814 2.893q2.923 3.042 2.922 8.428 0 5.43-2.945 8.48" style="fill:#36419c;fill-opacity:1;fill-rule:nonzero;stroke:none" transform="matrix(1.33333 0 0 -1.33333 0 1122.52)"/><path d="M287.834 514.658a6.2 6.2 0 0 0-1.922-.29q-2.681 0-4.423 1.949-1.74 1.948-1.74 5.724-.001 3.833 1.695 5.738 1.696 1.901 4.468 1.902 1.038 0 1.921-.264v3.962c-.63.09-1.285.146-1.975.146q-2.71 0-4.784-.88-1.56-.653-2.87-2.003a10.5 10.5 0 0 1-2.066-3.049q-1.015-2.307-1.015-5.705 0-5.31 2.922-8.337 2.923-3.026 7.874-3.026c.668 0 1.301.054 1.915.139z" style="fill:#fff;fill-opacity:1;fill-rule:nonzero;stroke:none" transform="matrix(1.33333 0 0 -1.33333 0 1122.52)"/></svg>