<svg xmlns="http://www.w3.org/2000/svg" xml:space="preserve" viewBox="1 1 172.41 250"><path d="M76.498 243.393v491.13h441.665v-491.13L297.333 94.09Z" style="fill:#c89a4a;fill-opacity:1;fill-rule:nonzero;stroke:none" transform="matrix(.39036 0 0 -.39036 -28.862 287.729)"/><path d="M504.775 721.135V250.502L297.333 110.25c-13.61 9.2-196.678 132.97-207.448 140.252v470.633z" style="fill:#fff;fill-opacity:1;fill-rule:nonzero;stroke:none" transform="matrix(.39036 0 0 -.39036 -28.862 287.729)"/><path d="m178.498 706.94 17.572-54.084h56.866l-46.005-33.424 17.572-54.083-46.005 33.424-46.007-33.424 17.573 54.083-46.005 33.424h56.866z" style="fill:#293d9b;fill-opacity:1;fill-rule:nonzero;stroke:none" transform="matrix(.39036 0 0 -.39036 -28.862 287.729)"/><path d="M491.388 707.748V257.61l-194.055-131.2-194.06 131.2Z" style="fill:#ed1c25;fill-opacity:1;fill-rule:nonzero;stroke:none" transform="matrix(.39036 0 0 -.39036 -28.862 287.729)"/><path d="m279.12 501.118 8.457 9.795.172.3c-2.831.28-14.672 1.44-22.947 2.099-4.539.361-7.927.933-11.127.383l-.166 1.084c-.317 1.924-.793 4.065-1.317 6.558-1.381 6.56-3.445 14.825-4.676 19.638-.209.815-.757 2.993-.757 2.993l-8.207-9.506.214-.499c1.14-3.433 3.787-11.592 5.193-17.478.788-3.295 1.133-5.613 1.272-7.184l-1.656-1.917-.615.53-15.295 13.207-.362.313-7-8.107.362-.312 39.374-33.997 6.832 7.914.214.151-16.839 14.54 2.01 2.399.66.003c2.76.168 6.293-.187 11.006-.903 7.46-1.133 13.072-1.99 14.95-2.276zM229.046 453.14c-9.965-8.836-20.384-8.597-27.69-2.287-7.305 6.306-9.062 16.575-1.782 27.717l.265.376-4.874 4.208-.41.355 7 8.105.265-.229 5.018-4.333.208.16c9.95 8.79 20.346 8.54 27.64 2.243 7.297-6.302 9.058-16.555 1.801-27.686l-.071-.256 4.488-3.875.386-.334-7-8.106-.433.375-4.487 3.875zm.84 14.526c2.9 5.757 1.803 10.849-1.891 14.04-3.701 3.194-8.91 3.533-14.19-.195l-.308-.208 16.212-14zm-23.638 5.155c-3.014-5.83-1.934-10.995 1.8-14.219 3.735-3.226 9.008-3.54 14.341.302l.323.293-16.26 14.04zM413.576 288.623v5.93c8.798.382 15.587.987 15.587.987v-39.397h-7.905v32.575zM361.532 288.623v5.93c8.798.382 15.587.987 15.587.987v-39.397h-7.905v32.575zM395.642 274.822c-3.867.293-4.16 5.04-4.335 8.478-.191 3.761 2.04 6.949 6.247 6.184 3.297-.6 4.08-3.506 4.02-8.416v-3.314s-1.725-3.252-5.932-2.932m-8.989-17.405s3.188-1.72 10.25-1.274c6.904.436 12.577 5.66 12.577 12.577v14.242c0 6.918-5.66 12.578-12.577 12.578h-.75c-6.917 0-12.53-5.66-12.577-12.578-.046-6.993 3.018-13.309 10.153-13.56 4.01-.14 6.449.98 7.829 2.014 0 0 .012-.866.012-2.715s-.828-6.247-5.737-6.694c-4.27-.387-7.522 1.467-7.522 1.467zM459.088 264.94v-8.797h-7.905v8.765l.005.192h-15.81v5.928l15.805 24.512h7.905v-24.37l.006-.142h4.398V265.1h-4.398zm-7.905 6.247v13.325l-8.776-13.484h8.781z" style="fill:#c89a4a;fill-opacity:1;fill-rule:nonzero;stroke:none" transform="matrix(.39036 0 0 -.39036 -28.862 287.729)"/><path d="M287.737 385.995c3.402-.469 9.458-3.736 11.287-9.796 1.89-6.256-1.281-11.151-11.145-22.67l-8.056-9.33-39.157 33.81 7.994 9.258c9.874 11.436 17.98 16.46 26.655 8.19 2.758-2.629 4.371-6.104 4.383-9.907l-.017-.641s3.879 1.66 8.056 1.086m-23.261-13.479 3.416 3.956c4.052 4.84 3.786 8.482.818 11.044-2.823 2.438-6.09 2.605-11.954-4.334l-2.104-2.436-.352-.36 9.699-8.374zm20.315-9.101c4.53 5.4 5.046 8.202 2.013 11.256-2.635 2.656-7.196 3.378-13.75-4.365l-2.976-3.544 10.037-8.665zM194.855 278.799c3.401-.469 9.457-3.736 11.287-9.797 1.89-6.255-1.282-11.151-11.145-22.669l-8.057-9.33-39.157 33.809 7.994 9.258c9.875 11.436 17.98 16.46 26.655 8.192 2.758-2.63 4.372-6.105 4.383-9.909l-.017-.64s3.88 1.66 8.057 1.086m-23.262-13.48 3.417 3.957c4.052 4.839 3.785 8.481.818 11.043-2.824 2.439-6.09 2.605-11.954-4.333l-2.104-2.437-.352-.36 9.699-8.373zm20.316-9.1c4.53 5.4 5.045 8.201 2.013 11.257-2.635 2.654-7.197 3.377-13.751-4.367l-2.975-3.543 10.036-8.666zM323.632 394.937c-7.015-8.125-19.402-9.032-27.527-2.017l-9.612 8.3c-8.125 7.015-9.033 19.403-2.017 27.526l2.304 2.67c7.015 8.125 19.403 9.032 27.528 2.017l9.611-8.3c8.125-7.015 9.033-19.402 2.018-27.527zm-5.515 7.092c3.799 4.4 3.215 11.19-1.3 15.086l-9.416 8.131c-4.514 3.898-11.315 3.486-15.114-.914s-3.215-11.19 1.298-15.087l9.417-8.13c4.514-3.898 11.315-3.486 15.115.914M230.522 287.101c-7.014-8.123-19.401-9.032-27.526-2.017l-9.613 8.3c-8.124 7.015-9.032 19.403-2.017 27.527l2.305 2.67c7.015 8.124 19.402 9.032 27.526 2.017l9.613-8.3c8.125-7.015 9.032-19.402 2.018-27.527zm-5.515 7.092c3.8 4.4 3.215 11.19-1.299 15.087l-9.416 8.13c-4.514 3.898-11.315 3.486-15.115-.914s-3.215-11.189 1.3-15.086l9.416-8.13c4.514-3.898 11.315-3.487 15.114.913M455.001 577.664l-6.858-7.943-9.29 14.966zm-3.12-34.196 7.31 8.468-6.171 9.971 10.437 12.089 10.765-4.653 7.312 8.469-50.563 20.6-6.827-7.907zM400.1 562.657l6.687 7.744.171.2 39.157-33.81-.125-.144-6.734-7.8-.14-.162-15.851 13.686-.094-.108-13.014-15.073-.123-.179 15.833-13.67-.14-.163-6.75-7.817-.11-.127-39.156 33.81.14.163 6.75 7.816.109.127 16.666-14.39.122.179 12.905 14.947.221.219-16.665 14.39zM371.387 529.403l39.156-33.81-6.999-8.106-26.02 22.467 12.77-37.81-6.999-8.107-39.156 33.809 7 8.106 25.826-22.3-12.578 37.644zM343.538 418.04l-6.515 5.624-.12.105 3.937 4.559-.06.321c-1.101 4.213-4.06 7.76-9.051 13.416-7.058 7.998-16.55 16.413-19.253 18.77l-.155.16 21.793 25.24 32.474-28.039.166.144 3.854 4.464.148-.17 6.297-5.437.214-.143-33.476-38.77zm5.051 19.262 10.895 12.618.105.17-25.598 22.103-.2.207-7.916-9.168.21-.193c4.142-3.832 9.33-8.88 13.675-13.888 3.866-4.456 6.709-8.248 8.527-12.176zM245.17 327.281l.698-.602c2.256-1.949 5.697-1.696 7.646.56l1.486 1.722c1.948 2.257 1.696 5.698-.56 7.646l-28.371 24.497 7 8.105 27.666-23.889c6.32-5.456 7.026-15.09 1.57-21.41l-2.73-3.161c-5.457-6.32-15.091-7.025-21.41-1.569z" style="fill:#fff;fill-opacity:1;fill-rule:nonzero;stroke:none" transform="matrix(.39036 0 0 -.39036 -28.862 287.729)"/></svg>