<svg xmlns="http://www.w3.org/2000/svg" xml:space="preserve" version="1.0" viewBox="0 0 455.23 480.07"><path fill="#004A99" d="M228.802 35.013C294.314 35.013 336.621 0 336.621 0s30.499 84.713 118.607 115.219c-3.39 215.743-226.448 364.849-226.448 364.849S3.389 330.961 0 115.219C88.108 84.713 118.601 0 118.601 0s44.676 35.013 110.201 35.013"/><path fill="#FFF" d="M229.173 302.065c-59.641 0-117.137-8.817-171.305-25.205 4.487 8.393 9.253 16.507 14.171 24.436 49.984 13.754 102.663 21.101 157.134 21.101 53.188 0 104.814-7.002 153.978-20.147 4.924-7.89 9.717-15.964 14.217-24.33-.066.026-.132.053-.199.066-53.334 15.673-109.725 24.079-167.996 24.079M88.393 325.866a527 527 0 0 0 18.546 24.555c39.414 8.287 80.312 12.642 122.261 12.642a598 598 0 0 0 119.137-11.953 526 526 0 0 0 18.505-24.423c-44.226 10.484-90.306 16.044-137.643 16.044-48.568-.001-95.719-5.852-140.806-16.865M127.523 374.712a614 614 0 0 0 22.544 23.774 597 597 0 0 0 79.08 5.242c25.76 0 51.176-1.641 76.101-4.832a606 606 0 0 0 22.464-23.642 599 599 0 0 1-98.565 8.142c-34.682 0-68.637-2.979-101.624-8.684M172.523 419.771a622 622 0 0 0 27.402 23.471 385 385 0 0 0 29.831 1.151c8.696 0 17.341-.291 25.918-.874a613 613 0 0 0 27.031-23.113 386 386 0 0 1-52.949 3.654 383 383 0 0 1-57.233-4.289"/><path fill="#FFF" d="M430.593 186.793c3.971-16.368 6.738-29.561 7.97-46.988-.186.066-.358.146-.543.212-57.861 21.471-119.878 34.245-184.424 36.866v-46.5c47.482-3.395 97.66-12.186 138.313-32.194-40.242-33.742-61.669-76.501-61.669-76.501s-41.697 27.574-102.63 27.574c-60.938 0-102.629-27.574-102.629-27.574S103.568 64.46 63.326 98.203c40.652 20.015 90.836 28.792 138.313 32.181v46.435c-64.969-2.919-127.158-16.19-184.973-38.216 1.152 17.453 3.846 30.678 7.764 47.086 55.729 19.293 115.238 30.902 177.209 33.537v41.014c-57.623-2.621-113.021-13.442-165.07-31.399 2.899 7.784 6.109 15.362 9.478 22.835 57.576 18.758 119.09 28.897 183.074 28.897 62.48 0 122.803-9.676 179.499-27.601l.477-.159c3.389-7.453 6.645-15.011 9.571-22.775-52.222 17.546-107.634 28.044-165.071 30.374v-41.108c61.712-2.39 121.162-13.635 176.996-32.511"/><path fill="#004A99" d="M373.997 94.287c-22.568-20.504-37.833-42.755-47.33-59.522-21.417 11.31-55.341 24.376-97.865 24.376-43.067 0-78.108-13.397-100.046-24.725-9.513 16.863-24.908 39.373-47.757 60.076 43.889 18.968 95.241 26.982 146.256 26.982 51.2 0 102.742-8.07 146.742-27.187"/><path fill="#FFF" d="m184.263 103.422-10.927-2.146 4.816-24.529-12.009-2.358-4.816 24.529-10.927-2.146 6.392-32.554 33.864 6.649zM235.285 100.182l-12.676.107-1.689 5.466-11.418.096 13.213-33.288 12.309-.104 13.801 33.061-11.688.098zm-2.428-7.171-4.046-11.907-3.832 11.973zM266.852 70.036l29.314-6.028 1.425 6.931-18.35 3.774 1.063 5.17 16.986-3.494 1.367 6.647-16.986 3.494 1.309 6.363 18.861-3.879 1.519 7.385-29.826 6.134z"/><path fill="#004A99" d="m104.933 197.283-10.921-2.305-2.661 4.832-9.843-2.078 18.283-28.743 10.577 2.232 5.133 33.687-10.095-2.131zm-.62-7.185-1.04-11.93-5.778 10.49zM135.92 175.786l9.754 1.441-4.662 31.558-9.754-1.441zM187.564 189.552l-15.308-1.377-2.156 23.974-9.82-.883 2.857-31.771 25.129 2.259zM222.245 209.565l-11.159-.213-1.707 5.247-10.058-.192 12.558-31.667 10.808.206 11.369 32.123-10.316-.197zm-1.959-6.94-3.262-11.522-3.705 11.389zM281.137 212.934l-10.28.568-8.449-22.569-5.723 23.352-10.006.553 9.994-32.501 10.742-.594zM292.974 179.673l26.231-3.385.869 6.73-16.453 2.123.654 5.063 15.244-1.967.831 6.443-15.243 1.967.801 6.212 16.912-2.182.928 7.19-26.691 3.445zM343.798 197.353q-2.088-.964-4.28-3.761-2.191-2.797-2.834-5.902-1.36-6.575 2.033-11.282 3.395-4.707 11.138-6.311 7.996-1.656 12.886 1.17t6.316 9.717q.643 3.107-.257 6.543-.9 3.438-2.434 5.152l4.618-.957 1.412 6.816-14.086 2.917-1.411-6.815q4.032-4.266 2.638-10.997-1.583-7.642-8.177-6.276-3.183.659-4.403 3.037t-.482 5.944q1.305 6.306 6.789 9.045l1.411 6.815-14.085 2.917-1.411-6.815z"/></svg>