<svg xmlns="http://www.w3.org/2000/svg" xml:space="preserve" id="Layer_1" x="0" y="0" version="1.1" viewBox="12.5 1.4 124.1 147.7"><style>.st2{fill-rule:evenodd;clip-rule:evenodd;fill:#1a4174}</style><path d="M74.5 144.5s23.9-11.3 36.7-23c15.6-14.3 20.9-23 20.1-38.7-1-18.5-1.6-51.5-1.3-61.7.3-10.1 1.3-14.7 1.3-14.7s-19.7 3-56.3 2.9h-1.1c-36.5.1-56.2-2.9-56.2-2.9s1 4.6 1.3 14.7c.3 10.2-.3 43.2-1.3 61.7-.8 15.7 4.6 24.4 20.1 38.7 12.8 11.7 36.7 23 36.7 23" style="fill-rule:evenodd;clip-rule:evenodd;fill:#fff"/><path d="m13.7 7.2-1.2-5.8 5.9.9c1.3.2 2.5.3 3.8.5 3.6.4 7.2.7 10.7 1 13.7 1 27.4 1.4 41.1 1.4h1.1c13.7 0 27.5-.4 41.1-1.4 3.6-.3 7.2-.6 10.7-1 1.3-.1 2.5-.3 3.8-.5l5.9-.9-1.2 5.8c-.2 1.1-.4 2.3-.5 3.5-.4 3.5-.6 7-.7 10.6-.2 4.7-.1 9.5 0 14.3.1 6.8.2 13.6.4 20.4.2 8.9.5 17.8.9 26.6.3 6.2-.3 12.3-2.6 18.1-3.7 9.4-11.6 17.1-18.9 23.8-3.6 3.3-7.6 6.3-11.7 9-5.5 3.7-11.4 7.1-17.2 10.3-2.9 1.5-5.8 3.1-8.8 4.5l-1.8.8-1.8-.8c-3-1.4-5.9-2.9-8.8-4.5-5.9-3.2-11.7-6.5-17.3-10.3-4-2.7-8.1-5.7-11.7-9-7.3-6.7-15.2-14.4-18.9-23.8-2.3-5.8-2.9-11.9-2.6-18.1.5-8.9.7-17.8.9-26.6.2-6.8.3-13.6.4-20.4 0-4.7.1-9.5 0-14.3-.1-3.5-.3-7.1-.7-10.6 0-1.1-.1-2.4-.3-3.5m60.8 137.3s23.9-11.3 36.7-23c15.6-14.3 20.9-23 20.1-38.7-1-18.5-1.6-51.5-1.3-61.7.3-10.1 1.3-14.7 1.3-14.7s-19.7 3-56.3 2.9h-1.1c-36.5.1-56.2-2.9-56.2-2.9s1 4.6 1.3 14.7c.3 10.2-.3 43.2-1.3 61.7-.8 15.7 4.6 24.4 20.1 38.7 12.8 11.7 36.7 23 36.7 23" style="fill-rule:evenodd;clip-rule:evenodd;fill:#8ed8f8"/><path d="M38.7 120.5c-14.9-13.7-19.8-22-19.8-34.7 0-1 0-1.9.1-2.9.8-14.9 1.4-39.8 1.4-54.1 0-3.1 0-5.7-.1-7.7-.2-6.6-.7-10.9-1-13.1 5.6.7 24.5 2.7 54.7 2.7h1.1c30.2.1 49.1-2 54.7-2.7-.3 2.2-.8 6.5-1 13.1-.1 1.9-.1 4.5-.1 7.7 0 14.4.6 39.2 1.4 54.1.1 1 .1 2 .1 2.9 0 12.7-4.9 21-19.8 34.7C98.9 131 78.2 141.3 74.5 143c-3.6-1.7-24.4-12-35.8-22.5M16.4 6.7s.9 4.7 1.3 14.5c.3 10.4-.4 43.8-1.3 61.5-.9 17 5.6 26 20.6 39.7 12.7 11.7 36 22.8 37 23.2l.6.3.6-.3c1-.5 24.3-11.6 37-23.2 14.9-13.7 21.4-22.7 20.6-39.7-.9-17.7-1.6-51.1-1.3-61.6.3-9.8 1.2-14.4 1.3-14.5l.4-1.8-1.9.3c-.2 0-20 2.9-56.1 2.9H74C37.9 8 18.1 5.1 17.9 5.1L16 4.8z" class="st2"/><path d="m68.1 58.9-.9-1.9-.9 1.9zm15.3 2v-5.1h1.3v5.1zm-5.9 0v-5.1h4.7v.9h-3.5v1.1H82v.9h-3.2v1.4h3.6v.9h-4.9zm-6.4-5.1h5.1v5.1h-1.3v-4.3h-2.5v4.3h-1.3zm-.6 5.1h-1.4l-.6-1.2H66l-.5 1.2h-1.4l2.5-5.1H68zM61.3 97.5v1.9h.7c.5 0 .9 0 1.1-.1s.3-.2.4-.3.2-.3.2-.5-.1-.4-.2-.6-.3-.3-.5-.3h-1zm22.1 5.4v-6.5h1.3l2.7 4.4v-4.4h1.2v6.5h-1.3l-2.7-4.3v4.3zm-3.2-2.6-.9-2.4-.9 2.4zm2.5 2.6h-1.4l-.6-1.5H78l-.5 1.5H76l2.6-6.5H80zm-9.5 0v-5.4h-2v-1.1h5.2v1.1h-2v5.4zm-2.5000000000000004-1c-.1-.1-.1-.1-1.2-.1h-.1c.1-.1.2-.1.2-.1.3-.2.6-.4.7-.7.2-.2.3-.5.3-.7l.1-.6v-.3c0-.9-.2-1.6-.7-2.1-.5-.6-1.1-.9-2-.9s-1.5.4-2 1.1c-.4.5-.6 1.2-.6 1.9s.2 1.3.5 1.7.7.7 1 .8h-1.3c-.1 0-.1 0-.1.1l-.1.1v.7c0 .1.1.2.2.2h2.1c.1 0 .2-.1.2-.2v-1.2c0-.1-.1-.2-.2-.2 0 0-.3-.1-.6-.4-.4-.3-.5-.9-.5-1.6 0-.8.1-1.2.4-1.6.2-.3.5-.4 1-.4q.75 0 1.2.6c.3.4.4.9.4 1.6 0 .5-.1.9-.3 1.1s-.5.5-.8.6c-.1 0-.1.1-.1.2v1.2c0 .1.1.2.2.2h2c.1 0 .1 0 .2-.1v-.9zm-10.7 1v-6.5h2.1c.8 0 1.3 0 1.6.1.4.1.7.3 1 .6s.4.8.4 1.3c0 .4-.1.7-.2 1q-.15.45-.6.6c-.2.2-.5.3-.7.3-.3.1-.8.1-1.4.1h-.9v2.5zM25.3 16.2c-.4 0-.7.3-.7.7v9.6H26v-8.9h3.3v6.1h1.3v-6.8c0-.4-.3-.7-.7-.7zm93.3 6.6 4.1 1.4.3.8 1.2-.5-3.3-8.7c-.1-.3-.3-.4-.6-.4s-.5.2-.6.5l-3.5 9.9 1.2.5zm3.4-.4-2.9-1 1.2-3.5zm-13.8-6.8c-.3.1-.4.4-.4.7l.4 9.7 1.3-.1s-.2-5-.3-7.6c1.6 2.1 5 6.7 5 6.7.2.2.5.3.7.2.3-.1.4-.4.4-.7l-.4-8.9-1.3.1s.2 4.2.3 6.7c-1.6-2.2-5-6.6-5-6.6-.2-.2-.5-.3-.7-.2m-4.3 0V25h1.3v-9.4zm-9.2-.2c-.3.1-.4.4-.4.7l.4 9.7 1.3-.1s-.2-5-.3-7.6c1.6 2.1 5 6.7 5 6.7.2.2.5.3.7.2.3-.1.4-.4.4-.7l-.4-8.9-1.3.1s.2 4.2.3 6.7c-1.6-2.2-5-6.6-5-6.6-.2-.2-.5-.3-.7-.2m-9.3-.1c-.3.1-.4.4-.4.7l.4 9.7 1.3-.1s-.2-5-.3-7.6c1.6 2.1 5 6.7 5 6.7.2.2.5.3.7.2.3-.1.4-.4.4-.7l-.4-8.9-1.3.1s.2 4.2.3 6.7c-1.6-2.2-5-6.6-5-6.6-.1-.2-.4-.3-.7-.2m-7 7.2 4 1.3.4 1 1.2-.5-3.3-8.7c-.1-.3-.3-.4-.6-.4s-.5.2-.6.5L76 25.6l1.2.5zm3.3-.4-2.9-1 1.2-3.4c.5 1.2 1.2 3 1.7 4.4m-9.3-6.6v9.4h1.3v-9.4zm-7.2.1c-.4 0-.7.3-.7.7v8.8h1.3V17h4.8v-1.4zm-11.1 9.5c-.5 0-.9-.4-.9-.9s.4-.9.9-.9.9.4.9.9c0 .4-.4.9-.9.9m-9.7 0c-.5 0-.9-.4-.9-.9s.4-.9.9-.9.9.4.9.9c0 .4-.4.9-.9.9m-11.4 0c-.5 0-.9-.4-.9-.9s.4-.9.9-.9.9.4.9.9c0 .4-.4.9-.9.9m13.5-8c-.2.1-.3.3-.3.5v.2c0 .2 0 .3.1.4 0 0 1.4 1.9 1.9 2.5-.5.6-1.9 2.4-1.9 2.4-.1.1-.2.3-.2.5v.2c0 .2.2.4.4.5l5.2 2.3.5-1.3s-3.2-1.4-4.4-2c.6-.8 1.6-2.1 1.6-2.1.1-.1.2-.3.2-.5s0-.3-.1-.4c0 0-1.1-1.5-1.7-2.3 1-.5 3.4-1.8 3.4-1.8l-.6-1.3zM37 22.6l3.9 1.3.4 1.1 1.2-.5-3.3-8.7c-.1-.3-.3-.4-.6-.4s-.5.2-.6.5l-3.5 9.9 1.2.5zm3.2-.4-2.7-.9 1.2-3.3c.4 1.1 1 2.7 1.5 4.2" class="st2"/><path d="M111.8 90.1c.2-.1.6-.2 1.1-.5.8-.4 1.2-.3 2.4.1 2.9.9 3.8-.8 3.8-.8s-1.3-.1-2.9-2.2c-1.4-1.8-1.2-3.2-1.2-3.2s-1-.1-1.7 2.4c-.5 1.7.1 2.4-.6 2.7-.2.1-.4.2-.6.2.8-3 1.2-6.2 1.2-9.4 0-2.1-.2-4.2-.5-6.3.4-.5 1.4-1.8 2.2-2.1 1-.4 2.2-.1 2.7-1.6.3-.9-.4-1.3-.4-1.3s1.4.3 2-1.2c.5-1.3-.8-2.3-.8-2.3s1.5.5 1.7-1.6c.1-1.6-1.2-1.3-1.2-1.3s1.2-2.8 0-3.1c-1.2-.4-2.3.7-2.6 1.2s-.5.9-.5.9-.9-1.1-1.6-.8-.4 2.1-.4 2.1-.6-.7-1.2-.1c-.9.9.3 3.3.3 3.3s-.8.1-1.2.8c-.5.8-.3 1.4.3 3.4.4 1.3.4 2.1.1 2.7-1.1-5.8-3.6-11-7-15.6.1-.5.4-1.4.9-1.5.8-.3 2-.7 2-2.1 0-.7-.7-1.2-.7-1.2s1.4.3 1.6-.9c.4-1.8-1.2-2.1-1.2-2.1s1.5-.5 1.1-2.1-1.6-1-1.6-1 .2-2.6-1-2.6c-1.3 0-1.3 2.4-1.3 2.4s-1.1-.4-1.6.6c-.4 1.1.6 2.3.6 2.3s-1.5.1-1.6 1.2c-.1 1.6 1.3 2.2 1.3 2.2s-1.4.9-.6 1.9c.6.8 1.4 1.2 1.3 2v.3q-2.85-3.45-6.3-6.3v-.5c0-.6-.2-1.1-.2-1.1s1.2 0 1.6-1.5c.6-2-.1-3.1-.1-3.1s-.7 1.6-2.4 1.9c-2 .4-2.8-.7-2.8-.7s-.3 1.8 1.3 2.9c.8.6 1.8.6 1.8.6s.1.4.1.9c-2.3-1.7-4.9-3.2-7.6-4.4-.1-.3-.4-1.1-.5-2-.1-1.1 1.5-3.1.9-4.4-.4-1-1.3-.5-1.3-.5s.8-2.9-.2-3.5c-1.1-.6-1.6.1-1.6.1s.3-2-.8-2-1.2 1.1-1.2 1.1-1.1-2.2-2.4-1.5.6 2.6.6 2.6-1.5 0-1.3 1.1 1.7 1.8 1.7 1.8-1.4-.4-1.4.7c0 1.5 2.7 2 2.7 2s-.9 1.2.9 2c1.5.7 1.8.2 2.4 1 .2.4.4.8.6 1.1-4.4-1.8-9.2-2.8-14.2-2.8-3.8 0-7.5.6-11 1.6.2-.5.4-1 .7-1.3.4-.6.9-.8 2-.9 1.1 0 2 .1 2.3-.5.3-.7-.2-1.3-.2-1.3s2.1 0 2.5-1.4c.4-1.3-.4-1.5-.4-1.5s1.8-.3 2-1.1c.1-.8-1.5-.9-1.5-.9s2.3-2 1.2-2.7-3.1 1.5-3.1 1.5-.3-1.4-1.3-1.4c-.9 0-1.8 1.6-1.8 1.6s-.4-.6-1.4-.5c-1 0-1 2.3-1 2.3s-1.1-.5-1.6.4c-.7 1.1-.4 2.1 0 3.3s1.6 2.4 1.2 3.5c-.2.5-.3.9-.4 1.2q-4.95 1.65-9.3 4.5c0-.2.1-.4.1-.6 0-.6.1-1 .1-1s.9.1 1.8-.6c.9-.8 1-2.2 1-2.2s-1.1.6-2.9.4C52 43.6 51 43 51 43s-.4 1.4.3 2.3c.8.8 1.7.9 1.7.9s0 .3-.1 1c-.1.4-.2.8-.2 1.1-2.9 2-5.5 4.5-7.7 7.3-.1-.2-.2-.5-.2-1-.1-2.5 2-2.2 2.3-3.8.2-1.4-.5-1.3-.5-1.3s1.6-.9 1.5-2.3-1.1-1-1.1-1 1.6-1.5 1-2.8c-.7-1.3-1.5-.4-1.5-.4s.8-2.2-.5-2.5c-1.4-.3-2 2-2 2s-1-.9-1.7.2c-.5.8-.4 2.2-.4 2.2s-1.4-.4-1.6.7c-.3 1.1.8 2.7.8 2.7s-1-.2-1.1 1.2c-.1 1.5 1.3 2.8 2.4 3.4 1.1.7 1.6 1.6 1.8 2.6.1.3.1.5.1.7-2.1 2.8-3.9 5.9-5.2 9.2l-.1-.2c-.2-.7-.1-1.3-.1-1.3s1.5-1 1.5-2.4c0-1.5-.4-2.2-.4-2.2s-.4 1-2.4 1.7c-1.7.6-3.1.2-3.1.2s.2 1.4 1.6 2.3c1.1.7 2.2.5 2.2.5l.4 2.4c-1.2 3.5-2 7.2-2.2 11-.1-.1-.2-.1-.3-.2-.7-.6-.5-.8-.5-.8s.6-1.2 0-2.6-1.6-1-1.6-1 .4-1.4-.2-2.6c-.7-1.4-2.3-.8-2.3-.8s.3-1.4-.7-1.5c-.9-.1-1.5.8-1.5.8s-1.2-1.7-2.4-.8.5 2.7.5 2.7-1 0-.9 1c0 1 1.7 1.2 1.7 1.2s-1.9.4-.8 1.8c1.2 1.4 2.7.9 2.7.9s-1.2 1 1.1 1.9 3.6-.2 3.6-.2.5.2 1 .8c.1.2.3.3.4.5v.8c0 9.6 3.6 18.4 9.5 25.1-.4 0-.9-.1-1.1-.1-.3 0-1.3-2.3-2.2-3.1s-1.8-.3-1.8-.3.4-1.5-1.2-2.1c-1.3-.5-1.5.9-1.5.9s0-.9-.9-.9-.8 1.1-.8 1.1-1.9-1.5-2.4-.2 1.2 2.2 1.2 2.2-1.1 1.4-.1 1.7 1.9 0 1.9 0-.3.8.7 1.3 1.8 0 1.8 0 .7 1.4 2.5 1c1.9-.4 1.3-.9 3.3-.9h1.1c4.7 5.1 10.7 8.9 17.5 10.9v-1.6c-6.4-1.9-12-5.6-16.4-10.4 0-.6.1-1.7.1-2.2.1-.7 2.5-2.3 2.4-3.5-.1-1.3-1-1.1-1-1.1s2-1.2 1.5-2.5-1.8-.4-1.8-.4 1.5-1.2 1-2.2c-.4-1-1.6-.2-1.6-.2s1.5-3.1-.2-3.3-1.8 2-1.8 2-1.1-.5-1.4 1.1c-.1.8.5 1.6.5 1.6s-1.1-.5-1.4.5c-.4 1.5.8 2.7.8 2.7s-1.1 0-.8 1.6c.3 1.1 1.1 1.6 1.9 2.6s1.1 1.4 1.1 2.2v.6c-3-3.5-5.4-7.6-7-12.1.2-.2.5-.5.9-1 .5-.6.6-1.1.6-1.1s.9.4 2.6-.6c1.6-.9 1.6-2.1 1.6-2.1s-1.9.2-3.6-.1-2.6-1.2-2.6-1.2-.2 1.9.3 2.8c.7 1.2 1.3 1.1 1.3 1.1s-.2.5-.6 1c-.2.3-.5.4-.7.5-1.1-3.5-1.7-7.2-1.7-11.1 0-.7 0-1.5.1-2.2.6-.4 1.6-1 2-1.1.7-.2 1.5.9 3.5.7 1.3-.2 1.5-1.6 1.5-1.6s1.3.5 2.1-.5c.7-.9 0-1.7 0-1.7s1.5.2 1.8-.8c.3-1.1-.7-1.2-.7-1.2s1.8-1.5 1.1-2.3-2.1.8-2.1.8.9-.7-.1-.7c-1.3 0-1.5 1.1-1.5 1.1s-.2-.6-1.2-.6-1.3 1.4-1.4 1.5-.3-.2-1.3.1c-.9.3-1.1 1.9-1.1 3 0 1-.2 1.7-.8 2.1-.4.2-.7.4-1 .5.7-8.2 4.1-15.7 9.3-21.5.2.1.7.3 1.6.5 2.1.5 1.1 2 2.5 2.4s1.8-.8 1.8-.8 1.6 1 2.6.7.8-1.5.8-1.5 1 .2 2-.3c.9-.5.1-1.6.1-1.6s2.4-.4 2.4-2.1c0-1.3-2.5-.8-2.5-.8s.4-.9-.6-1.2-1.9.5-2 .7c0 .1-.4-.6-1.5-.6s-1.6 1.2-1.6 1.2-.4-.7-1.3-.4-1.7 1.9-2.3 2.5c-.5.5-1.1.6-1.4.6 4.1-4.3 9.2-7.6 14.9-9.6l.3.3c.4.4.8 1 .8 1s-.2 1.1.8 1.8c1.1.8 1.6.5 1.6.5s-.2-.9 0-2.2c.3-1.3 1.4-2.2 1.4-2.2s-1.1-.2-2.1.1-1.3 1.1-1.3 1.1l-.6-.6-.2-.2c3.5-1.1 7.2-1.7 11-1.7 4.9 0 9.6 1 13.9 2.7-.4.1-.8.2-1.1.2-.7 0-1.9-1.2-3.1-1.2s-1.5.6-1.5.6-.5-.6-1.8-.2-.9 1.6-.9 1.6-1 0-1.3.7c-.3.8.2 1.2.2 1.2s-2.5.8-2 1.9 2.9-.2 2.9-.2.3.5.9.7 1.6-.9 1.6-.9.6.9 1.3.8c1.2-.3 1.5-1.6 1.5-1.6s.4.5 1.3.3c.9-.1 1-.6 1.6-1.9.3-.7.4-.9 1.4-1.4 5.6 2.5 10.5 6.4 14.1 11.2h-1.4c-.7 0-1-1-1.8-1.9-.9-1-1.4-1.5-2-1.4s-.8.8-.8.8-.9-1.9-1.8-1.9c-.9-.1-1.1 1.3-1.1 1.3s-.6-1.3-1.7-1.1c-1 .4-.6 2-.6 2s-2.8.1-2.8 1.7c0 1.1 2.8.7 2.8.7s-.5.9 0 1.4c.5.6 2.3 0 2.3 0s-.4 1.1.4 1.4 2.4-.8 2.4-.8-.2.9.8.9c.9 0 1.3-1.2 2.6-1.6s2.4-.6 3.1-.5l.4.1c3.1 4.3 5.2 9.2 6.2 14.5-.4-.2-1.2-.7-1.5-1-.5-.5-.7-1.3-.9-2.3-.3-1-.4-1.5-1.3-1.6s-.8 1.3-.8 1.3-.2-1.9-1.2-2.4-1.3.9-1.3.9-.7-1.4-1.4-1.3-1.1 1.3-1.1 1.3-2.5-1.9-2.8-.9c-.9 2.4 2 3.2 2 3.2s-1.2.4-1 1.5 2.1.9 2.1.9-.5.9.6 1.6 2.9-.2 2.9-.2-.3.8.5 1.1c1.3.4 1.6-.3 2.6-.6 1.1-.3 1.9-.8 2.7-.4 0 0 .1 0 .1.1.3 1.9.5 3.8.5 5.8 0 4.8-1 9.5-2.7 13.7-.2-.2-.4-.6-.7-1-.5-1 .9-2 .6-2.9-.6-1.7-1.5-1.1-1.5-1.1s.7-1.2-.1-2.1c-.4-.5-1.3.2-1.3.2s-.3-1.6-1.7-1.8c-.7-.1-1.1.5-1.1.5s-1.2-1.8-2.1-.8c-.9.9.7 1.8.7 1.8s-.7.2-.7 1.1 1.3.9 1.3.9-1.4.1-1.4 1.5 2.4 1.3 2.4 1.3-1.2.6-.6 1.5 2.3.3 3.3.1c.9-.2 2.1 1 2.7 1.7-4.4 10.2-13.4 18-24.3 20.9v1.5c7.5-1.9 14.1-6 19.1-11.6 1.1 0 3.1 0 3.7.3.9.4 1.3 1.8 3.3 1.6.9-.1.6-1.8.6-1.8s2.3.7 3.2-.6c.7-1-.8-1.6-.8-1.6s1.3.1 1.3-.8-.6-1.1-.6-1.1 1.6-.9 1.1-1.8c-.7-1.1-2.3.3-2.3.3s.1-1.3-1-1.1-1 1.3-1 1.3-.6-.7-1.6-.4c-.9.3-1.1 2.1-1.1 2.1s-.6-.4-1.3.2-.3 2.3-1.3 2.5c-.5.1-1 .1-1.4 0 3.1-4.3 5.7-9 7.2-14.2m-66-3.7s1.5-6.1-.7-6.5c-2.2-.5-4.7 5.5-4.7 5.5s.7.8 2.5 1.1c1.7.2 2.9-.1 2.9-.1M35.5 61.5s1.1.4 2.9-.4c1.7-.8 1.9-1.3 1.9-1.3s-1.6-5.6-3.8-5c-2.3.5-1 6.7-1 6.7m21.3-18.1s.9-5-1.4-5.4c-2.6-.3-3.4 5-3.4 5s.8.5 2.3.7 2.5-.3 2.5-.3m10.5 5.2s-.2-1.5.2-2.5 1.2-1.5 1.2-1.5 3.5.8 3.1 2.7c-.5 2-4.5 1.3-4.5 1.3m27.8-4s1.1.8 2.4.5c1.3-.2 2.1-1.6 2.1-1.6s-1-5.1-3.4-4.7c-2.5.4-1.1 5.8-1.1 5.8m23.6 44s4.5-4.7 2.3-7-5.6 2.1-5.6 2.1-.2 1.1 1.1 2.8c1.3 1.6 2.2 2.1 2.2 2.1" class="st2"/><path d="M93.1 71.4s.3-1.5-1.8-2.8c-2.7-1.6-4.4-1.8-8.6-1.8-3.7 0-5.6 1.8-7.1 2.5-1.6.8-2.4.6-3.6.7-1.3.1-2.5.4-3.8.4-1.3-.1-2.5-.8-5.3-2s-4 .8-4 .8-1.3-.1-1.3-1.6c0-1.4 4.4-1 6.4-.1 2.2 1 3.6 1.7 5.3 1.6 1.5-.1 2.6-.6 3.7-1.3s2.3-2.4 2.3-2.4-2 0-3.8.2c-2 .2-2.9 1.1-3.6 1.4-.5.2-1.3.3-3.4-.9-2.4-1.3-6.5-2.6-8.6-.1-.9 1-.8 3.3 0 3.9 1.2 1 2.1.8 2.1.8s-1.4 1.5-1.3 3.7c.1 1.6.1 3.6.4 5.8s.2 3.3-1 4.1-2.3.6-2.6 1.9-.3 2.4-.8 3.1-1 1-1 1-.4.9.4 1.6c.3.2.6.5 1 .8h-.4c-.3 0-.7-.2-.9-.1-1.8 1.6 1.6 2.2 1.6 2.2l47.6.1s1.6-.4.6-1c-.5-.3-.2-.4-1.1-.8s-1.2-.5-3.1-.5h-1.5c0-.1-.1-.2-.2-.4-.8-1-.9-1.9-1.1-2.9-.2-.9-1.5-2-2.1-2.8-.8-1-1.3-1.9-1.9-2.4s-1.8-1.4-1.8-1.4.7-.5 1.6-1.1c.5-.3.5.7 2.7-.6.8-.5 1.3-.9 1.3-.9s-.6 1.4.4 1.4c.9 0 1.1-.8 1.2-1.6l.1-.8s.6.3 1.4-.4c.8-.6 1-1.5.8-2.4-.3-.9-.1.6-.9.8-.8.1-1.1-.3-1.1-.3s0-.9-.7-2.2c-.6-1.1-1.2-1.6-1.2-1.6s-.3-.8.4-1.2c1-.6 1.4-.1 1.4-.1s-.5-1.2-1.8-1.2c-1 .1-1.3.9-1.3.9M54.9 92.7v-1c.1-1.1.3-2.8.3-2.8s1.9-.8 2.5-1.3c.6-.4 1.6-.9 2.7-1.9 1.6-1.6 1.4-2.4 1.4-2.4s.5.1.9.1 1 1.4 1.5 2.5-.3 1.6 2.3 3.1 3.8 1.9 4.2 2.5c.3.4.6.9.8 1.3h-1.2c-.7 0-1-.8-1.4-.8s-.8 1-2.1 1c-1.2 0-2.2-1.1-3.6-1.3s-1.6.9-2.4.8-.7-.9-1.5-.9-1.5 1.3-1.5 1.3-1.3-.1-2.9-.2m19.3.2c.7-.2 1-.6 0-1.4-1.1-1-2.2-1.5-2.2-1.5s-1.4-.8-2.2-1.4-.8-1.1-.8-2.5c.1-1.4.5-1.4 1-1.1s.8-.7.7-1.3-.6-1.3.5-1.9 3.3-.8 4.7-.2 2.8 1.1 2.9 2.3-.1 2.6-.1 2.6.4.5.9 1.5c.4 1 .8 1.5.7 2.1s-.4.8-.9 1.3c-.4.4-.7.6-.6 1h-.2c-1.6-.1-1.7.6-2.9.5-.3.1-.8 0-1.5 0m7.6 0c.1-.6.4-1.2.4-1.2s.8-1.1.8-1.7-.6-1.4-.9-2.8.2-2.8.6-2.8 1.8 1.1 3.3 1.4c1.6.3 3.4.8 4.6 1.9s1.9 2.4 2 3-.1 1.1-.1 1.6v.1c-.8-.2-.7-.7-1.1-1s-1.4.6-2.1.8-1.2-.8-1.7-.9.4 1.1-1.1 1.2-1.6-.5-2-.6-.9.8-2.3.8c-.2.2-.3.2-.4.2M64.1 70.4s-2 .1-3.3.9c-1.3.9-1.5 2.1-2 2.8-.5.6-1 1-1 1.9s.6.8.7 1.3c.1.4.6.9.4 1.4-.2.4-.1.5-.4 1.3s.3 1.1 0 1.5-.3 1.6-.5 1.9-.4 1.1.4.5 2.1-1.1 2.1-2.6c.1-1.5.2-3.6.4-3.6.2-.1.1 3.2 1 3s.8-1.1.4-1.9c-.3-.8-.7-1.6-.1-1.6s.9-.2.7-.6.1-.9.3-.8c.3.1.2.3.2 1 0 .8-.3 1.6-.6 1.6s-.1 1.3.2.9c.3-.3.9-1.2 1.9-1.9s1.9-1 1.4-2.5c-.4-1.5-1.7-4.1-2.2-4.5M95 79.5c-.4.2-.3 1.4 0 1.4s.5-.1.6-.8-.2-.4-.3-.1l-.1.3s0-.9-.2-.8m-7.9 1.7c.1 0 .3-.1.3-.3s0-.4-.2-.4c-.1 0-.3.1-.3.3s.1.4.2.4m1 .6c0 .1.2.2.4.2s.4-.1.4-.2-.2-.2-.4-.2c-.3 0-.4.1-.4.2m3.4-10.1c-.4-.4-1.7-.7-1.6.2.1.8 1 .7 1.3.7s.3-.4 0-.5.5-.2.3-.4m-1.6 3.4c-.4 0-1.5.5-1.9 1s-.4.6-.3 1.3c.2.7.4.9-.1 1.1s-.4.3-.4.7c-.1.6 1.4 2 1.8 2 .4.1.9-.1 1.2-.5.4-.4.8.8 1.8-.7.4-.7.2.8 1.3 0s1.1-.9 1.2-2-.2-.9-.7-.6-1.3.6-.6-.1c.6-.6.9-1 .6-1.3s-1.1-.2-1.4-.9-.4-2-1.2-1.6-1.3.4-.8.8.6.3.6.9c.1.6.1.5 0 1.2-.1.4-.4.6-.2.9.1.3 0 .6-.5.8-.6.3-.6 1.8-1 1.7s-.6-.6-.1-1.1.4-.9.5-1.3c.2-.6.7-.5.7-1.2.1-.6.7-1-.5-1.1M68 71.8c-.9.1 1.1 1.4 1.2 2.3s-.2 1.5.6 2.5 2.4 2.4 4.1 2.4 3.1.4 4.1-.7c1.1-1.1 2.1-1.4 2.3-1.9s.4.1.4.8c.1.7.3 1.7.6 1.6s.5-.9.8-.9c.3.1.3 1.5.9.9s.6-.4-.2-1.8-.8-1.6-.8-2.4c.1-.8.6-.5.8.6s.6 2.5 1 2.4.1-.8.3-1.2 1.3-.7 1-2.7-1.6-3-1.6-3.9-.3-1.3-1.2-.9c-.9.3-1.4 1.1-1.3 1.9.1.9-.2 2-.8 2.7-.5.7-.9.5-.5-.5s.4-3-1.2-2.7-2.6-.1-3.4.9c-.9 1.1-1.1-.1-1.8.1s-.9 1.1-1.8 1.2.3-1.4-.6-1.4c-1-.1-2.3.7-2.9.7m19.1 13.1c.2.5.6.8 1.1.6.5-.1.5-.2.9.3.4.4.8-.8.5-1.3-.3-.6-.7-.4-1.1-.4s-.5-.1-1.2-.1c-.7.1-.3.5-.2.9M85 83.8c-.1-.4-.4 1.1.4 1.3.8.1.9-.6.8-.9-.2-.3-1.2-.1-1.2-.4m-4.1 2.6c.4 0 .6.2.7-.9s.3-2 .6-2.1c.4-.1.2-.6.9-.8.8-.2 1.8.1 1.7-.6-.1-.8-.9-.4-.9-.4s-1.1.4-1.1-.1c0-.4-.6 0-1.1-.4s-1.4-.8-1.4-1.6.1-1.6-.4-1.6c-.6 0-.6.6-.6 1.1 0 .6.2 1.4-.4 1.8s-1.4.8-.4 1.3c1.1.6 1.2.8 1.3 1.6.1.9.9 2.7 1.1 2.7m.2 2.4c-.5 0-.4.4 0 .8s.4.3.2.7.3.8.6.6c.4-.2 1.1-.8.7-1.1-.4-.4-.8-1-1.5-1m-13.6-7.6c-.4-.5-.2 1.6.6 1.6s1.1 1.3 1.4.4.9-1.5-.1-1.4c-.9 0-1.1.4-1.9-.6m-1 3.8c-.4-.1-.5.1-.7.9s-.8 1.7-.1 2 .8.4 1.1-.1c.4-.5-.3-.6-.1-1.2.3-.6.5-1.5-.2-1.6m-3.2-2c-.4-.1.1.8.7 1.3.6.4 1.3 1 1.4.4s-.2-.4-.6-.9c-.5-.5-1.3-.7-1.5-.8m-9.1 8.3c.1-.8 0-1.1-.2-1.5-.2-.3-.5-.2-.7.1-.5.8-.6.8.1 1.4.2.3.7.4.8 0m1.9-5c-.7-.1-.9.8-1.1 1-.2.3.1.9.7.4.5-.5 1.3-1.2.4-1.4m3.9-2.8c-.4.4-.8.6-1.4 1s-1.1 1-.6 1.2c.6.2.8-.4 1.4-.6.6-.1 1.2-.9 1.5-1.4.4-.5-.4-.7-.9-.2m7.6-4.8c-.8.1-1.7-.3-2.7.3-1 .5-1.5 1-1.5 1.4s.4 1-.3 1.3c-.6.3-.9.9-.3.8s1.5.3 1.4-.4c-.1-.8-.1-1.3.8-1.4.9-.2 2.8-.3 2.9-.7.2-.7.7-1.4-.3-1.3M65.8 112.2h1.8v7.8h-1.2v-6.4h-1.3zm16 4.5q-.3 0-.6.3c-.2.2-.2.4-.2.7s.1.5.2.8q.3.3.6.3t.6-.3c.2-.2.2-.5.2-.8s-.1-.5-.2-.7q-.15-.3-.6-.3m.2-4.7 1 .6-1.1 2.6c.5 0 1 .2 1.4.7q.6.75.6 1.8c0 .7-.2 1.2-.6 1.7s-.9.7-1.4.7c-.6 0-1.1-.2-1.5-.7s-.6-1-.6-1.7c0-.2 0-.5.1-.7s.2-.6.4-1.1zm-5.2 4.7q-.3 0-.6.3c-.2.2-.2.4-.2.7s.1.5.2.8q.3.3.6.3t.6-.3c.2-.2.2-.5.2-.8s-.1-.5-.2-.7q-.3-.3-.6-.3m.2-4.7 1 .6-1.1 2.6c.5 0 1 .2 1.4.7q.6.75.6 1.8c0 .7-.2 1.2-.6 1.7s-.9.7-1.4.7c-.6 0-1.1-.2-1.5-.7s-.6-1-.6-1.7c0-.2 0-.5.1-.7s.2-.6.4-1.1zm-5.1 3.5q.3 0 .6-.3c.2-.2.2-.4.2-.7s-.1-.6-.2-.8q-.3-.3-.6-.3t-.6.3c-.2.2-.2.5-.2.8s.1.5.2.7q.3.3.6.3m-.1 4.7-1-.6 1.1-2.6c-.5 0-1-.2-1.4-.7q-.6-.75-.6-1.8c0-.7.2-1.3.6-1.7.4-.5.9-.7 1.4-.7.6 0 1.1.2 1.5.7s.6 1 .6 1.7c0 .2 0 .5-.1.7s-.2.6-.4 1.1z" class="st2"/></svg>