<svg xmlns="http://www.w3.org/2000/svg" id="svg4" version="1.1" viewBox="0 0 276.47 317.46"><defs id="defs1"><clipPath id="clip-path"><path id="polyline1" d="M0 274.24V0h274.24v274.24z" style="fill:none"/></clipPath><clipPath id="clip-path-2"><path id="path1" d="M191.22 0v38.38h-24.17a39.33 39.33 0 0 1-30.48 14.51 39.44 39.44 0 0 1-30.47-14.51H81.85V0H0v57.64h274.24V0ZM86.68 0v33.54h99.7V0Zm25.65 38.37a35.14 35.14 0 0 0 24.24 9.91 34.86 34.86 0 0 0 24.24-9.91zM0 108.11v26.75h110.77a26.07 26.07 0 0 1 26-23.87 26.07 26.07 0 0 1 26 23.87h111.47v-26.75Zm115.29 26.75h42.87a21.57 21.57 0 0 0-21.44-19.34 21.57 21.57 0 0 0-21.44 19.34Zm47.4 4.68a26.09 26.09 0 0 1-26 23.56 26.09 26.09 0 0 1-26-23.56H0v26.21h274.24v-26.21Zm-47.32 0a21.46 21.46 0 0 0 21.36 19 21.46 21.46 0 0 0 21.36-19zM0 216.21v58h82.16v-38.5h24.24a39.4 39.4 0 0 1 30.48-14.58 39.36 39.36 0 0 1 30.4 14.58h24.32v38.53h82.63v-58Zm112.64 19.5h48.49a34.88 34.88 0 0 0-24.24-10 34.6 34.6 0 0 0-24.24 10Zm-25.57 4.84v33.7h99.63v-33.7Z" style="fill:none;clip-path:url(#clip-path)"/></clipPath><style id="style1">.cls-4{fill:#00498f}</style></defs><path id="rect1" d="M0 0h274.24v317.359H0z" style="fill:#fff;fill-opacity:1;fill-rule:evenodd;stroke:none;stroke-width:3.99816;stroke-opacity:1"/><g id="Layer_2" data-name="Layer 2"><g id="Layer_1-2" data-name="Layer 1" style="fill:#0470b9;fill-opacity:1"><path id="path2" d="M60.22 186.9h-.9v1.22a4.94 4.94 0 0 0 1.3 3.22 4.1 4.1 0 0 0 1.52 1 5.5 5.5 0 0 0 1.87.31h24.91v-1.22a5.08 5.08 0 0 0-1.47-3.32 4.7 4.7 0 0 0-3.32-1.17Zm-45.38 13.85h29.23a4.55 4.55 0 0 1 3.27 1.18 5 5 0 0 1 1.41 3.31v1.22H14.84a8.34 8.34 0 0 1-8.32-8.32v-25.25h1.21A5 5 0 0 1 11 174.3a4.55 4.55 0 0 1 1.19 3.27v20.56a2.61 2.61 0 0 0 2.61 2.62Zm45.17.09h29.23a4.48 4.48 0 0 1 3.24 1.16 5.07 5.07 0 0 1 1.39 3.31v1.22H60a8.33 8.33 0 0 1-8.32-8.33v-17a8.34 8.34 0 0 1 8.32-8.31h33.79v1.21a4.87 4.87 0 0 1-1.27 3.23 3.86 3.86 0 0 1-1.47 1 5.2 5.2 0 0 1-1.81.3H60a2.6 2.6 0 0 0-1.84.77 2.6 2.6 0 0 0-.77 1.85v17a2.6 2.6 0 0 0 2.61 2.59Zm45.07-28h25.61a8.34 8.34 0 0 1 8.32 8.32v25.44h-1.22a5 5 0 0 1-3.31-1.41 4.57 4.57 0 0 1-1.18-3.28v-7.64H109a5.5 5.5 0 0 1-1.87-.31 4.1 4.1 0 0 1-1.52-1 4.92 4.92 0 0 1-1.3-3.21v-1.21h29v-7.4a2.62 2.62 0 0 0-2.61-2.62h-25.63a2.6 2.6 0 0 0-1.84.77 2.6 2.6 0 0 0-.77 1.85v25.44h-5.71v-25.37a8.33 8.33 0 0 1 8.32-8.32ZM160.17 187h15.62a8.33 8.33 0 0 1 8.32 8.32v2.94a8.33 8.33 0 0 1-8.32 8.33h-25.51a8.34 8.34 0 0 1-8.32-8.33v-17a8.34 8.34 0 0 1 8.32-8.32h32.19v1.22a5 5 0 0 1-.16 1.15 4.54 4.54 0 0 1-1.15 2.08 3.9 3.9 0 0 1-1.49 1 5.3 5.3 0 0 1-1.84.3h-27.55a2.61 2.61 0 0 0-2.6 2.62v17a2.6 2.6 0 0 0 2.6 2.61h25.51a2.61 2.61 0 0 0 2.61-2.61v-2.94a2.6 2.6 0 0 0-.77-1.85 2.6 2.6 0 0 0-1.85-.77h-11.85a4.58 4.58 0 0 1-3.27-1.18 5.07 5.07 0 0 1-1.42-3.31V187Zm63.34 11.37v-20.8a4.57 4.57 0 0 1 1.18-3.27 5 5 0 0 1 3.31-1.41h1.22v25.45a8.33 8.33 0 0 1-8.33 8.31H195.4a8.33 8.33 0 0 1-8.32-8.31v-25.27h1.21a4.82 4.82 0 0 1 3.21 1.22 4 4 0 0 1 1 1.49 5.2 5.2 0 0 1 .31 1.85v20.76a2.6 2.6 0 0 0 2.61 2.61h25.48a2.6 2.6 0 0 0 1.84-.77 2.6 2.6 0 0 0 .76-1.84Zm17.16-11.44h-.93v1.21a5 5 0 0 0 1.29 3.22 4.2 4.2 0 0 0 1.51 1 5.4 5.4 0 0 0 1.86.31h25v-1.22a5.13 5.13 0 0 0-1.47-3.32 4.7 4.7 0 0 0-3.31-1.17Zm-.21 13.94h29.25a4.5 4.5 0 0 1 3.24 1.18 5.1 5.1 0 0 1 1.39 3.31v1.22h-33.88a8.35 8.35 0 0 1-8.32-8.33v-17a8.35 8.35 0 0 1 8.32-8.32h33.76V174a5.1 5.1 0 0 1-.34 1.83 4.3 4.3 0 0 1-.93 1.47 3.9 3.9 0 0 1-1.48 1 5.2 5.2 0 0 1-1.81.3h-29.2a2.62 2.62 0 0 0-1.84.76 2.6 2.6 0 0 0-.76 1.85v17a2.6 2.6 0 0 0 .76 1.85 2.6 2.6 0 0 0 1.84.76Z" class="cls-4" style="fill:#0470b9;fill-opacity:1"/><path id="path3" d="M10.52 77.74v-3.18a8.84 8.84 0 0 1 2.6-6.27 8.85 8.85 0 0 1 6.26-2.6h36.5v1.21a5.35 5.35 0 0 1-1.5 3.49 4.8 4.8 0 0 1-3.45 1.24H19.39a2.92 2.92 0 0 0-2.92 2.92v3.18a2.93 2.93 0 0 0 .86 2.07 2.9 2.9 0 0 0 2.06.86H46.9a8.88 8.88 0 0 1 8.87 8.86v3.18a8.84 8.84 0 0 1-2.6 6.3 8.83 8.83 0 0 1-6.27 2.6H10.42v-1.21a5.35 5.35 0 0 1 1.49-3.49 4.84 4.84 0 0 1 3.45-1.24H46.9a2.92 2.92 0 0 0 2.92-2.93v-3.2a2.9 2.9 0 0 0-.82-2.07 2.9 2.9 0 0 0-2.06-.85H19.39a8.88 8.88 0 0 1-8.87-8.87m88 15.19v-22.4a4.82 4.82 0 0 1 1.24-3.46 5.34 5.34 0 0 1 3.5-1.49h1.21v27.34a8.88 8.88 0 0 1-8.87 8.86H68a8.87 8.87 0 0 1-8.86-8.86V65.78h1.2A5 5 0 0 1 63.78 67a4.2 4.2 0 0 1 1 1.57 5.6 5.6 0 0 1 .33 1.95v22.4A2.9 2.9 0 0 0 68 95.84h27.56a2.9 2.9 0 0 0 2.06-.84 2.9 2.9 0 0 0 .85-2.06Zm18.18-27.24h27.51a8.85 8.85 0 0 1 6.26 2.6 8.85 8.85 0 0 1 2.6 6.27v3.18a8.88 8.88 0 0 1-8.87 8.87h-22.71a4.8 4.8 0 0 1-3.49-1.25 5.32 5.32 0 0 1-1.49-3.49v-1.2h27.66a2.92 2.92 0 0 0 2.92-2.93v-3.18a2.92 2.92 0 0 0-2.92-2.92H116.7a2.92 2.92 0 0 0-2.92 2.92v22.17a4.8 4.8 0 0 1-1.25 3.46 5.33 5.33 0 0 1-3.49 1.49h-1.2V74.56a8.86 8.86 0 0 1 2.6-6.27 8.85 8.85 0 0 1 6.27-2.6Zm48.94 15h25.8a4.94 4.94 0 0 1 3.49 1.23 5.36 5.36 0 0 1 1.56 3.5v1.21h-26.8a5.8 5.8 0 0 1-2-.32 4.3 4.3 0 0 1-1.6-1 5.17 5.17 0 0 1-1.37-3.39V80.7Zm48.48-15.21h27.51a8.83 8.83 0 0 1 6.27 2.6 8.85 8.85 0 0 1 2.6 6.27v3.35a8.8 8.8 0 0 1-.76 3.58 8.9 8.9 0 0 1-1.5 2.32 8.9 8.9 0 0 1 1.5 2.31 8.8 8.8 0 0 1 .76 3.58v12.07h-1.21a5.6 5.6 0 0 1-3.47-1.46 4.5 4.5 0 0 1-1.26-3.32v-7.29a2.91 2.91 0 0 0-2.92-2.92h-23.15a5.6 5.6 0 0 1-2-.33 4.24 4.24 0 0 1-1.58-1 5.14 5.14 0 0 1-1.34-3.4v-1.22h28a2.92 2.92 0 0 0 2.07-.85 2.9 2.9 0 0 0 .85-2.07v-3.35a2.91 2.91 0 0 0-2.92-2.92h-27.45a2.92 2.92 0 0 0-2.92 2.92v27.33h-5.95V74.35a8.89 8.89 0 0 1 8.87-8.87m-48.71 30.26a2.92 2.92 0 0 1-2.92-2.92V74.45a2.93 2.93 0 0 1 2.92-2.93h31.54a5.6 5.6 0 0 0 1.92-.32 4.2 4.2 0 0 0 1.55-1 4.5 4.5 0 0 0 1-1.54 5.6 5.6 0 0 0 .36-1.94v-1.14h-36.37a8.88 8.88 0 0 0-8.87 8.87v18.36a8.89 8.89 0 0 0 8.87 8.87h36.43v-1.21a5.37 5.37 0 0 0-1.47-3.47 4.73 4.73 0 0 0-3.42-1.25Z" class="cls-4" style="fill:#0470b9;fill-opacity:1"/><path id="path4" d="M26.999 282.79h16.646c1.905 0 2.177.43 1.653 2.24a3.658 3.63 0 0 1-3.184 2.82 24.123 23.94 0 0 1-3.265.18H12.368a18.641 18.5 0 0 0-2.015 0 3.023 3 0 0 0-3.023 3.1q-.101 8.76 0 17.52c0 2.05 1.26 3.12 3.426 3.16 2.77.05 5.552 0 8.323 0h21.443c2.902 0 4.474 1.21 5.038 3.61.211 1 0 1.66-1.169 1.62H11.582a12.545 12.45 0 0 1-3.748-.41 8.061 8 0 0 1-5.653-7.25c-.111-6.34-.151-12.69 0-19 .11-4.38 3.768-7.57 8.404-7.62 5.46-.05 10.932 0 16.394 0zm-.514 19.78H14.877c-2.55 0-3.95-1-4.544-2.82-.595-1.82-.252-2.39 1.733-2.4h23.176c2.72 0 4.292 1.08 4.877 3.12.483 1.69.221 2.09-1.572 2.1H26.455zm136.737-19.44c4.293 0 8.586.14 12.868 0a8.444 8.38 0 0 1 8.636 8.46c-.141 7.84 0 15.69 0 23.53 0 1.95-.595 2.37-2.419 1.7a3.94 3.91 0 0 1-2.73-3.82c-.06-2.08 0-4.17 0-6.26 0-2.32 0-2.34-2.298-2.34h-24.133a3.89 3.86 0 0 1-3.224-2.11c-1.18-2.14-.686-3 1.753-3h25.483c2.227 0 2.237 0 2.247-2.13v-4.76c0-3.1-1.007-4.1-4.03-4.1h-24.728c-2.892 0-3.96 1.06-3.97 3.92V314c0 3.35.635 3.1-3.315 3.09-1.764 0-1.814-.05-1.814-1.83 0-8-.06-16 0-24a7.98 7.92 0 0 1 8.212-8c4.454-.06 8.918 0 13.372 0zm-26.722 34.3h-2.761c-1.663-.42-2.348-1.77-3.023-3.12-4.03-7.79-7.99-15.58-12.021-23.36-.544-1.06-.746-2.59-2.328-2.67-1.773-.09-2.015 1.55-2.57 2.68q-6.045 11.68-11.95 23.4c-.655 1.28-1.3 2.54-2.801 3h-3.174c-.504-.11-1.008-.25-.877-.93a4.03 4 0 0 1 .403-.91c4.837-9.52 9.653-19 14.53-28.54a6.67 6.62 0 0 1 7.759-3.71 7.396 7.34 0 0 1 5.038 4.14c3.144 6.17 6.318 12.32 9.482 18.48 1.683 3.26 3.325 6.54 5.038 9.78.514 1 .454 1.57-.775 1.71zm87.12-5.33c-.291-.65-.402-1-.564-1.24q-6.428-10.66-12.807-21.31a5.975 5.93 0 0 0-.705-1 1.38 1.37 0 0 0-2.348 0 5.35 5.31 0 0 0-.705 1q-5.986 10.45-11.89 20.94c-.273.48-.746 1-.262 1.6zm-14.892 4.9h-15.115c-5.038 0-6.68-2.59-4.162-7.1 4.283-7.65 8.747-15.21 12.918-22.92 2.61-4.82 8.999-5.24 11.951-.18 4.585 7.87 9.341 15.64 14.047 23.43a4.655 4.62 0 0 1 .554 4.3c-.816 2-2.55 2.48-4.545 2.47h-15.638zm46.009-33.84c4.292 0 8.585.15 12.867 0a8.535 8.47 0 0 1 8.858 8.79c-.162 7.76 0 15.53 0 23.29 0 1.88-.474 2.21-2.227 1.69a3.97 3.94 0 0 1-2.902-3.94c-.07-2.26 0-4.51 0-6.76 0-1.75 0-1.79-1.844-1.79h-22.46a16.747 16.62 0 0 1-2.268-.07 3.84 3.81 0 0 1-3.023-2.07c-1.169-2.16-.705-3 1.743-3h25.494c2.307 0 2.307 0 2.317-2.33v-5c-.09-2.54-1.189-3.64-3.758-3.65h-25.191c-2.731 0-3.688 1-3.698 3.88v23.76c-.131 1.84-1.602 1.14-2.5 1.11-.896-.03-2.528.85-2.75-1.12a13.351 13.25 0 0 1 0-1.5v-21a28.113 27.9 0 0 1 .151-3 7.91 7.85 0 0 1 7.94-7.24c4.454-.07 8.918 0 13.382 0zM91.146 316.55c-3.023 1.65-5.21 1.05-6.772-1.89-2.358-4.42-4.615-8.9-6.902-13.35q-2.872-5.57-5.713-11.15a9.724 9.65 0 0 0-.595-1.1c-1.008-1.38-2.257-1.36-3.194.08a19.276 19.13 0 0 0-.927 1.78q-5.965 11.72-11.93 23.45c-1.33 2.61-2.711 3.38-5.17 3-1.703-.23-1.925-.55-1.159-2q7.255-14.3 14.55-28.59a6.49 6.44 0 0 1 6.047-3.8 6.943 6.89 0 0 1 6.519 4q4.605 8.9 9.17 17.82l6.045 11.78z" style="fill-rule:evenodd;stroke-width:1.00381;fill:#0470b9;fill-opacity:1"/><g id="g1" style="clip-path:url(#clip-path-2);fill:#0470b9;fill-opacity:1;display:inline"><path id="rect5" d="M0 0h274.386v58.042H0z" style="display:inline;fill:#0470b9;fill-opacity:1;fill-rule:evenodd;stroke:none;stroke-width:1.72623;stroke-opacity:1"/><path id="rect5-3" d="M.501 107.573h274.386v58.042H.501z" style="display:inline;fill:#0470b9;fill-opacity:1;fill-rule:evenodd;stroke:none;stroke-width:1.72623;stroke-opacity:1"/><path id="rect5-3-8" d="M0 216.214h274.386v58.042H0z" style="display:inline;fill:#0470b9;fill-opacity:1;fill-rule:evenodd;stroke:none;stroke-width:1.72623;stroke-opacity:1"/></g></g></g></svg>