<svg xmlns="http://www.w3.org/2000/svg" viewBox="37.44 131.16 520.4 579.57"><path fill="none" d="m38.63 138.132.752 572.599H557.84l-.752-572.6z" style="fill:#1b1918;fill-opacity:0;fill-rule:evenodd"/><path d="M47.922 131.16h486.002c6.27 0 10.486 4.219 10.486 10.485v318.73c0 85.264-44.194 155.881-110.964 197.246-40.712 25.222-89.713 40.467-142.523 40.467-94.539 0-178.766-48.182-222.31-122.454-20.421-34.832-31.177-72.914-31.177-117.166V141.645c0-6.27 4.736-10.486 10.486-10.486" style="fill:#1c3186;fill-rule:evenodd"/><path d="M47.922 135.32c-3.707 0-6.326 2.603-6.326 6.325v316.823c0 41.498 9.649 79.317 30.605 115.062a229 229 0 0 0 15.574 23.177c48.062 62.896 124.608 97.221 203.148 97.221 49.58 0 98.178-13.728 140.332-39.843 68.213-42.26 108.995-112.912 108.995-193.71v-318.73c0-3.967-2.358-6.326-6.326-6.326z" style="fill:#fff;fill-rule:evenodd"/><path d="M176.519 166.229v4.16H518.92v-4.16zM61.166 301.625v4.16h459.286v-4.16z" style="fill:#1c3186;fill-rule:evenodd"/><path d="M60.685 325.476v168.162c3.734 24.09 12.796 47.802 26.47 71.125 4.353 7.425 9.166 14.06 14.393 20.9a216.6 216.6 0 0 0 27.295 29.543v-289.73Z" style="fill:#de001e;fill-rule:evenodd"/><path d="M159.316 325.476V638.23c7.8 4.925 15.89 9.385 24.22 13.374a256.3 256.3 0 0 0 43.356 16.143v-342.27Z" style="fill:#1c3186;fill-rule:evenodd"/><path d="M257.427 325.476v348.57a239 239 0 0 0 33.496 2.375c11.514 0 22.972-.836 34.296-2.465v-348.48z" style="fill:#de001e;fill-rule:evenodd"/><path d="M355.019 325.476v342.29c23.558-6.428 46.184-16.32 67.107-29.283l.685-.427v-312.58Z" style="fill:#1c3186;fill-rule:evenodd"/><path d="M452.957 325.476v290.276c13.891-12.173 26.007-25.893 36.218-41.175 15.235-22.798 26.162-48.393 31.574-75.615V325.476Z" style="fill:#de001e;fill-rule:evenodd"/><path d="M373.933 581.861c1.442-1.271 2.768-3.075 4.195-4.47 1.91-1.864 4.073-3.413 6.691-4.082 1.318-.337 2.667-.496 4.023-.56 1.034-.05 3.576.06 5.326-.04.303-2.314.28-6.249.3-7.751.032-2.37-.204-6.229 2.235-7.083 1.635-.573 3.909.878 5.533 2.115 1.563 1.189 3.197 2.39 4.68 3.666q.27.233.578.521l.039-.148c.497-1.888.959-3.682 1.704-5.5.834-2.037 2.523-6.609 1.467-8.773-.87-1.784-1.995-3.667-3.54-4.955-1.105-.922-2.424-1.517-3.644-2.266-4.354-2.675-5.563-10.458-6.717-15.107-.387-1.558-.799-3.13-1.326-4.646-2.75-7.91-6.745-16.329-13.307-21.787-7.86-6.539-12.952-8.17-22.684-9.369-4.333-.533-10.118.993-14.06-.217a10.3 10.3 0 0 1-3.451-1.839c-2.664-2.148-3.903-5.162-5.222-8.2-.52-1.197-1.475-3.498-2.614-4.238a5 5 0 0 0-.298-.177c-2.167-1.178-6.612-1.2-9.092-1.42-1-.089-1.998-.202-2.99-.365-3.349-.55-5.76-1.606-8.252-3.162l-.191.16c-.213 2.396-.395 4.873-1.25 7.086-1.947 5.044-3.063 6.884.629 11.736 2.306 3.128 1.389 7.094-.401 6.756l-39.369 6.749c-1.708.293-3.469 1.535-4.506 2.892-1.662 2.172-1.816 4.791-1.19 7.382l9.94 41.076h1.438l9.437-17.216c.597-1.089 3.279-.816 3.708.349l12.524 33.962c2.982-2.748 4.712-1.432 7.392.487a19 19 0 0 1 2.001 1.668c1.819 1.727 3.495 4.118 5.482 5.559 1.59 1.152 3.062 1.264 4.58 2.944a6.6 6.6 0 0 1 1.142 1.763c.387.88.632 1.804.757 2.756.125.943.127 1.88.081 2.829-.032.665-.192 2.018-.059 2.645.497 2.335 1.644 4.575 2.17 7.007.684 3.169 1.426 6.056 1.49 9.343.02.953-.03 3.15.03 5.01 6.074-2.195 12.064-4.634 18.166-6.75l6.43-2.22c-.6 4.357-.493 8.419-3.107 12.068-1.383 1.93-3.107 3.371-5.249 4.402l-.138.067-.143.057-14.343 5.737c-5.342 5.749-12.336 10.066-19.88 12.211-7.756 2.205-14.816 1.687-22.512-.475-5.885-.974-6.1-11.319-11.612-13.147-2.297-.762-6.692-.295-9.099-.045-4.017.417-10.24 1.504-14.432.09-4.412.314-9.08.46-13.397-.374-1.094-.21-.795-.124-1.737-.571-1.805-.858-2.926-2.223-4.07-3.788-.156-.212-.41-.581-.641-.86-.151.012-.303.032-.41.044-2.079.234-3.766.387-5.757-.482-5.236-2.287-10.78-2.38-14.793-7.083-1.524-1.785-2.501-3.699-3.238-5.912-.352-1.058-.656-2.435-1.14-3.417-.382-.774-.987-1.086-1.78-1.394-3.331-1.296-6.702-.647-10.175-.567-10.088.233-18.962 4.526-28.808 5.399-8.104.719-15.597-2.65-23.233-4.686l-3.313-.883-.033-3.428c-.02-2.063.127-4.162.164-6.23.047-2.592-.01-5.2-.325-7.774-.637-5.204-2.866-13.112-.018-17.766 1.892-3.09 4.019-6.06 6.078-9.043 3.744-5.427 4.058-7.205 3.615-14.101-.626-9.75-1.301-30.96 2.147-39.525a17.5 17.5 0 0 1 1.44-2.801c3.032-4.806 7.539-7.3 11.048-11.388 1.027-1.195 1.912-3.058 2.628-4.467.946-1.862 1.906-3.758 3.16-5.436 2.282-3.05 5.24-5.276 6.252-9.2.788-3.053.7-6.972.89-10.145.195-3.246.582-6.497 1.708-9.568 1.46-3.981 3.6-7.405 6.02-10.854 1.891-2.696 4.476-6.343 7.145-8.261 1.676-1.206 3.347-2.002 5.243-2.777 1.053-.43 2.1-.842 3.09-1.41 3.862-2.212 7.49-4.891 11.549-6.744 4.211-1.922 8.421-3.44 12.758-5.017.838-.305 3.702-1.324 4.744-2.036-.723-6.25-2.98-12.274-4.2-18.438-1.26-6.369-.116-10.911 5.242-14.934 3.039-2.282 6.817-4.204 10.28-5.755 3.688-1.651 7.718-3 11.114-5.205 2.726-1.772 3.856-3.36 5.392-6.118q.154-.278.295-.563c1.61-3.231 2.508-5.549 5.637-7.79a31 31 0 0 1 2.496-1.605c2.928-1.7 6.078-2.991 9.043-4.636 3.828-2.124 7.08-4.669 10.17-7.77l1.392-1.395 13.103.489 1.138 2.576c2.616 5.918 5.452 14.027 10.31 18.448l.416.379.31.47c.56.845 1.11 1.696 1.671 2.54 2.18 3.268 4.224 5.731 7.343 8.176 5.24 4.108 12.103 7.257 18.219 9.78l.78.322.61.583c4.544 4.332 9.43 7.402 14.806 10.554 7.297 4.278 14.15 8.049 19.953 14.377 3.515 3.834 5.83 7.482 7.323 12.462.769 2.565 1.252 7.05 3.155 8.997 3.58 3.663 7.056 7.408 10.325 11.352 9.413 11.355 17.177 23.996 25.711 36.004.136.192.305.354.49.5.806.635 2.07 1.114 3.019 1.494 3.238 1.297 6.09 2.563 8.057 5.62 2.76 4.287 4.123 8.018 5.395 12.886.582 2.227 1.145 4.38 2.033 6.512 2.572 6.182 5.805 11.582 9.224 17.3 5.118 8.557 9.9 16.883 14.118 25.949 2.699 5.802-5.988 15.515-9.76 19.183-2.947 2.866-6.544 5.7-10.37 7.266-5.01 2.05-10.241 2.714-15.487 3.819-4.823 1.016-11.897 2.382-16.674 3.58 10.051 2.707 2.483 6.202-.634 7.963-1.506.477-3.054.354-4.613.498-2.005.185-4.033.586-6.022.877-2.421.354-4.821.884-7.207 1.424-11.05 2.498-23.286 6.068-34.374 1.947-3.966-1.473-7.21-3.2-10.136-6.37l-2.129-2.308 10.79-21.157h2.76c.522 0 2.245-.263 2.345-.933.605-4.048 3.893-3.81 4.952-3.838l2.442-.068c1.887-.052 4.853.38 5.052 5.666-.117.489-.04 1.538-.002 2.045.164 2.134.914 5.039-.006 7.01-.955 2.045-2.362 4.29-3.46 6.5-.85 1.151.626 1.841 1.862.795z" style="fill:#fff;fill-rule:evenodd"/><path d="m297.214 345.08-8.319-.311c-9.494 9.524-16.379 10.27-22.278 14.494-2.696 1.931-3.321 4.554-4.618 6.881-1.296 2.328-2.799 5.056-6.874 7.704-3.711 2.41-7.94 3.843-11.727 5.54-3.787 1.695-7.191 3.575-9.416 5.245-3.959 2.972-4.444 5.82-3.527 10.455 1.21 6.109 3.59 12.487 4.3 19.195.55 5.17-7.127 5.326-20.152 11.271-3.675 1.678-7.15 4.246-11.18 6.555-2.785 1.596-5.144 1.923-7.943 3.935-1.766 1.27-3.977 4.185-6.085 7.19-2.108 3.004-4.116 6.102-5.478 9.817-2.224 6.066-1.006 13.632-2.466 19.288-1.329 5.15-5.369 8.585-7.006 10.774-2.182 2.917-3.688 7.472-5.979 10.14-3.886 4.526-9.574 7.59-11.726 12.935-2.643 6.564-2.62 25.256-1.83 37.553.6 9.36-.867 11.825-4.404 16.95-1.89 2.738-4.23 6.036-5.943 8.836-1.746 2.854-.077 8.952.647 14.865.725 5.913.167 11.657.195 14.508 6.947 1.853 14.582 5.181 21.673 4.552 9.423-.836 17.9-5.157 29.103-5.416 4.467-.103 7.617-.798 11.913.873 6.253 2.432 3.881 7.227 7.952 11.998 2.97 3.48 7.614 3.451 13.169 5.877 1.757.768 3.767-.25 5.654.149 2.553.54 3.412 4.712 6.011 5.214 3.911.756 8.52.592 13.297.224 4.111 2.46 17.566-1.946 24.196.253 7.211 2.391 8.817 12.94 11.078 12.99 7.783 2.233 13.887 2.424 20.394.574s13.242-5.741 18.472-11.673l15.31-6.124c3.444-1.659 4.21-4.274 5.358-5.933-6.251 2.17-14.416 5.468-20.668 7.637-3.935 2.212-3.389-3.97-3.51-10.064-.064-3.191-.944-6.41-1.39-8.482-.51-2.357-1.68-4.7-2.173-7.02-.49-2.302.543-4.99-.497-7.354-.59-1.34-2.22-1.407-4.24-2.872-2.956-2.142-4.663-5.206-7.464-7.212-2.2 1.77-6.584 3.951-8.218-.481l-11.446-31.04-8.102 14.782h-7.655l-10.773-44.523c-2.323-9.6 4.526-14.955 9.314-15.776l36.945-6.334c-5.427-7.131-3.1-11.286-1.246-16.089.782-2.025.887-5.47 1.152-7.742l4.21-3.516c3.184 2.28 5.404 3.715 9.268 4.351 4.967.818 10.356.196 14.102 2.63 4.862 3.159 4.58 12.034 10.156 13.747 2.454.754 8.86-.492 13.287.053 8.17 1.005 14.998 2.044 25.015 10.377 6.87 5.716 11.366 14.232 14.682 23.772 2.268 6.525 3.064 15.5 6.145 17.392 2.51 1.543 5.656 2.484 8.876 9.087 1.623 3.327.52 7.896-1.348 12.456-1.867 4.56-1.525 8.318-4.604 10.402-.345.233-2.641-1.902-4.781-3.667-1.464-1.207-2.857-2.232-3.501-2.59-1.07-.595-1.523-1.128-1.546.635-.067 5.088-.136 11.082-1.666 11.67-2.888 1.113-7.455-.013-11.374.989-3.92 1-6.641 5.467-9.022 7.566-1.663 1.465-3.68 3.285-5.346 4.06-2.297-1.02-3.362-1.52-5.658-2.541-.07-5.175 3.262-9.228 5.538-14.102.292-.625-.94-5.763-.263-8.307l-3.633.064c-.543 3.637-4.41 4.775-6.802 4.775l-8.11 15.901c2.573 2.79 5.4 4.09 8.394 5.202 9.782 3.635 21.367.243 31.81-2.119 2.519-.569 5.038-1.12 7.55-1.487 3.228-.472 6.447-.585 9.639-1.596-3.532-.909-5.34-2.016-5.801-3.27-.73-1.982 2.22-2.802 7.09-4.025 4.432-1.114 10.457-2.654 16.737-3.977 4.959-1.045 10.083-1.687 14.708-3.58 8.879-3.633 19.12-17.437 17.751-20.377-5.011-10.774-9.766-18.626-13.9-25.538-3.423-5.726-6.593-10.856-9.516-17.88-2.723-6.544-2.225-11.184-7.056-18.691-2.556-3.971-8.7-3.57-11.45-7.442-8.792-12.37-16.354-24.697-25.508-35.739-3.31-3.994-6.68-7.602-10.078-11.077-2.934-3.002-3.06-6.885-4.249-10.854-1.05-3.503-2.564-6.605-6.328-10.71-5.447-5.94-11.966-9.464-18.91-13.535-5.068-2.97-10.363-6.153-15.636-11.18-21.29-8.785-24.523-14.99-29.273-22.179-5.376-4.893-7.938-12.13-11.399-19.958" style="fill:#de001e;fill-rule:evenodd"/><path d="M205.267 191.638a49.947 46.503 0 0 1 49.947 46.502 49.947 46.503 0 1 1-49.947-46.502" style="fill:#0a130c;fill-rule:evenodd"/><path d="M219.6 196.832c10.3 3.066 19.045 9.346 24.86 17.567l-4.498 13.622-13.564 4.276-19.553-13.295v-13.498Zm32.489 41.71c-.09 9.17-3.25 17.66-8.576 24.631l-13.755 1.377-9.668-8.728 7.12-20.51 13.835-4.361zm-26.566 38.721c-6.13 2.73-13 4.26-20.256 4.26-7.454 0-14.5-1.617-20.757-4.49l-1.62-8.628 10.489-10.12h24.782l9.342 8.433zm-57.594-12.945c-5.894-7.201-9.413-16.16-9.485-25.878l10.933-7.514 13.824 4.358 7.408 21.336-9.516 9.181zm-1.957-49.776c5.8-8.27 14.558-14.594 24.884-17.687l12.869 8.75v13.297l-19.677 13.38-13.638-4.301z" style="fill:#fff;fill-rule:evenodd"/><path d="M389.182 191.464a49.947 46.503 0 0 1 49.948 46.503 49.947 46.503 0 1 1-49.948-46.503" style="fill:#0a130c;fill-rule:evenodd"/><path d="M403.515 196.658c10.3 3.067 19.045 9.347 24.86 17.568l-4.498 13.621-13.564 4.277-19.553-13.295v-13.498zm32.489 41.71c-.09 9.17-3.25 17.66-8.576 24.632l-13.755 1.377-9.668-8.728 7.121-20.51 13.834-4.361zm-26.566 38.722c-6.13 2.73-13 4.26-20.256 4.26-7.454 0-14.5-1.618-20.757-4.49l-1.62-8.629 10.489-10.12h24.782l9.342 8.434zm-57.594-12.945c-5.894-7.202-9.413-16.16-9.485-25.878l10.934-7.515 13.824 4.359 7.408 21.336-9.516 9.181zm-1.956-49.776c5.8-8.27 14.557-14.595 24.884-17.687l12.868 8.75v13.296l-19.677 13.38-13.638-4.3z" style="fill:#fff;fill-rule:evenodd"/><path d="M271.08 192.941h18.754v70.077h35.996v17.242h-54.75ZM131.02 192.941h21.008l-36.189 87.319H96.7L60.51 192.94h21.008l24.751 61.49zM512.277 204.788l-14.562 10.005c-4.037-4.238-6.714-6.213-11.19-6.105-3.84.092-6.723 3.184-6.643 6.16.088 3.296 3.269 5.947 6.698 7.373 11.572 4.811 25.952 9.72 30.976 23.079 2.371 6.306 2.449 13.97-.63 20.034-2.164 4.262-5.708 8.276-10.071 11.198-5.61 3.757-12.576 5.822-19.701 5.486-12.122-.571-24.067-4.793-30.446-19.018l15.92-9.55c4.529 9.313 10.504 11.25 16.63 11.117 4.847-.104 10.743-4.092 10.317-10.399-.277-4.095-2.575-6.29-5.915-8.672-8.686-6.196-19.852-8.507-27.611-15.83-4.324-4.08-6.443-9.383-6.106-16.147.55-11.014 10.036-21.404 24.925-22.308 11.93-.725 21.555 5.513 27.41 13.577" style="fill:#de001e;fill-rule:evenodd"/><path d="M105.372 153.747h18.563v3.827h-13.952v6.92h10.298v3.827h-10.298v12.6h-4.61zM94.625 177.094h4.611v3.827h-4.61zM122.88 177.094h4.61v3.827h-4.61zM164.482 177.094h4.61v3.827h-4.61zM83.185 153.747h4.61v27.174h-4.784l-16.71-19.826v19.826h-4.61v-27.174h4.61l16.884 20.223ZM149.064 153.173c3.392 0 6.537.861 9.126 2.395v5.55c-2.19-2.206-5.492-3.612-9.126-3.612-6.45 0-11.162 4.432-11.162 9.897s4.712 9.896 11.162 9.896c3.634 0 6.935-1.406 9.126-3.612v5.55c-2.59 1.534-5.734 2.395-9.126 2.395-8.843 0-16.015-6.372-16.015-14.23 0-7.857 7.172-14.23 16.015-14.23" style="fill:#1c3186;fill-rule:evenodd"/></svg>