<svg xmlns="http://www.w3.org/2000/svg" viewBox="2 1.91 294.49 328.25"><path fill="#8b7c51" fill-rule="evenodd" d="M266.637 73.367a146.6 146.6 0 0 1 29.86 88.911c0 50.339-25.328 94.683-63.798 121.333-31.433 21.779-57.06 24.99-83.14 46.552-28.113-22.572-52.954-24.773-83.485-46.363-38.308-27.097-64.07-71.061-64.07-121.522A146.36 146.36 0 0 1 31.81 73.536l-15.879-8.922V1.913h266.632v62.695z"/><circle cx="149.254" cy="163.633" r="123.182" fill="#cd7f44"/><path fill="none" stroke="#2e70b0" stroke-linecap="round" stroke-miterlimit="3.86" stroke-width="1.355" d="M30.862 137.83c7.092 5.65 10.52 12.647 10.52 22.422s-3.618 18.569-10.839 24.218M267.938 184.233c-6.862-5.656-10.52-14.395-10.52-23.98s2.316-16.78 9.26-22.437"/><path fill="none" stroke="#2e70b0" stroke-miterlimit="3.86" stroke-width="1.355" d="M30.862 137.83s43.354-74.923 118.751-78.92c75.397 1.897 117.33 79.394 117.33 79.394M267.938 184.233s-42.955 71.19-118.325 75.194c-75.397-1.897-119.05-74.957-119.05-74.957"/><path fill="none" stroke="#2e70b0" stroke-miterlimit="3.86" stroke-width="1.355" d="M37.128 144.97S84.08 97.788 149.613 98.269c71.874 1.151 110.961 46.403 110.961 46.403M262.2 177.046s-48.015 49.384-113.522 48.91c-71.874-1.152-112.39-48.775-112.39-48.775"/><path fill="none" stroke="#2e70b0" stroke-miterlimit="3.86" stroke-width="1.355" d="M40.413 152.733s53.78-18.371 109.207-18.371c54.81.528 108.387 18.1 108.387 18.1M258.637 170.935s-55.962 19.47-111.388 19.47c-54.81-.529-108.387-18.101-108.387-18.101M41.226 161.973H256.95"/><path fill="#8b7c51" d="M262.918 215.57c-.298-.365-29.386-36.316-36.39-66.827 10.222-16.8 29.765-33.87 29.968-34.074l4.695-4.065-5.42-3.089c-.311-.176-7.783-4.403-15.73-5.026l-2.106-.17-1.402 1.477c-8.97 9.484-21.59 24.07-29.644 33.485V98.377l-1.551-1.294c-8.847-7.682-17.891-12.498-27.64-14.727l-9.246-2.113 4.336 8.44c16.786 32.659 19.204 67.065 7.194 102.29-8.807 25.844-23.283 45.306-31.548 53.95-2.093-13.995-2.885-32.936-2.885-60.907 0-10.954.122-23.31.332-37.258 10.838 1.07 17.51 3.265 28.729 9.078l5.893 3.055.542-6.612c.258-3.177.427-6.029.427-8.766a55.5 55.5 0 0 0-1.829-14.388l-.677-2.71-2.778-.508a183 183 0 0 0-29.989-3.143c0-7.072-.088-21.42-.088-33.939 0-6.137 0-11.793.047-15.946 26.535.095 45.387 7.147 64.233 23.845l6.964 6.171.38-9.294c.487-12.024.487-14.828-.035-18.737l-.25-1.856-1.504-1.111a111.3 111.3 0 0 0-52.67-20.899 120.1 120.1 0 0 0-57.458 7.513l-6.158 2.398 4.607 4.783a61.4 61.4 0 0 1 9.355 12.559l-.488.149c-10.9 3.313-31.161 9.484-53.631 25.064l-2.52 1.687.677 2.757 1.016 4.227c2.033 7.98 5.833 22.83 4.424 41.567-1.728 22.978-10.839 44.506-27.022 63.975l-1.863 2.236 1.355 2.594c1.957 3.841 8.27 14.389 12.87 20.011l3.896 4.742 3.272-5.223c17.213-27.455 22.876-58.935 24.387-69.903l10.777.041c.116 16.021.97 60.778 6.775 97.758l1.314 8.4-1.104 1.592 9.619 3.34c12.986 4.552 24.197 8.488 53.387 6.7l8.38-.515-5.169-6.612c-5.744-7.35-9.843-14.47-12.688-24.475l53.266-34.772v-48.977l6.984-8.068c3.252 15.269 12.41 45.97 36.344 69.903l3.908 3.908 2.947-4.68c6.422-10.162 8.725-15.33 8.806-15.547l1.105-2.48zM90.813 154.164H81.39c.082-2.371.163-5.467.163-9.037 0-9.132-.508-21.129-2.622-30.647a152 152 0 0 1 15.06-7.722c-1.274 14.991-2.9 36.33-3.178 47.406m32.997-7.235-.081 14.788c0 4.925.04 9.897.04 14.801 0 6.775 0 13.474-.04 19.645v25.065c-.4 4.39-.962 8.38-1.64 12.01-15.079-50.135-16.047-95.57-3-142.108 4.112 13.162 4.803 27.896 4.803 43.876 0 3.909-.041 7.878-.082 11.923"/><path fill="#2a76bd" fill-rule="evenodd" stroke="#2e70b0" stroke-miterlimit="3.86" stroke-width=".677" d="M256.977 61.6V24.83l-54.755-.088A148.2 148.2 0 0 1 256.977 61.6zM96.463 24.83H41.53v37.163A149.55 149.55 0 0 1 96.463 24.83z"/><path fill="#2a76bd" stroke="#2e70b0" stroke-miterlimit="3.86" stroke-width=".677" d="M116.311 84.829a12.6 12.6 0 0 0-1.124-2.473c-10.54 3.204-30.775 9.125-53.205 24.692 2.032 10.33 20.953 61.212-22.524 113.447 1.87 3.672 8.082 13.996 12.35 19.232 20.505-32.699 24.244-71.982 24.244-71.982l19.083.074s-.298 56.653 6.734 101.471c7.18-7.628 13.318-18.63 17.064-31.202-19.862-63.61-14.687-113.176-2.622-153.26zm-21.108 73.764c-7.452-.048-18.44-.048-18.44-.048s1.87-29.542-2.926-46.254c11.516-6.693 14.72-8.014 25.186-12.593-1.544 17.376-4.105 49.655-3.82 58.895z"/><path fill="#2a76bd" stroke="#2e70b0" stroke-miterlimit="3.86" stroke-width=".677" d="M107.417 62.63c24.556 25.518 20.607 59.66 20.729 99.079.135 22.32-.122 45.285 0 59.782-3.238 36.046-16.773 46.363-23.48 56.185a116.67 116.67 0 0 0 55.826 7.906c-18.452-23.601-20.485-46.24-18.927-143.613 14.375.955 21.922 3.116 35.104 9.944.678-8.494.623-14.266-1.28-21.677-19.53-3.59-33.586-2.98-33.586-2.98s-.238-47.081 0-58.706c31.032-.718 51.483 7.188 71.521 24.923.481-11.74.481-14.375 0-17.972-30.192-22.335-69.367-27.01-105.907-12.871z"/><path fill="#2a76bd" stroke="#2e70b0" stroke-miterlimit="3.86" stroke-width=".677" d="M176.744 86.658c11.516 2.628 20.078 8.854 25.742 13.758v48.91s23.113-27.476 37.258-42.468c7.052.556 13.887 4.458 13.887 4.458s-21.332 18.52-31.771 36.635c6.598 32.306 37.671 70.39 37.671 70.39s-2.201 4.952-8.522 14.985c-31.764-31.758-36.716-76.69-36.716-76.69l-14.158 16.359v48.26l-49.499 32.251a10.7 10.7 0 0 1-.677-3.848c14.923-14.442 67.423-83.912 26.785-163z"/></svg>