<svg xmlns="http://www.w3.org/2000/svg" viewBox="11.17 5.42 528.25 136.26"><defs><style>.cls-3{fill:#ba0915}</style></defs><g id="Layer_2" data-name="Layer 2"><g id="Layer_1-2" data-name="Layer 1"><path d="M276.5 5.42A542.83 542.83 0 0 0 11.17 74.21a542.84 542.84 0 0 0 262.92 67.47 542.8 542.8 0 0 0 265.33-68.79A542.8 542.8 0 0 0 276.5 5.42" style="fill:#ffec00"/><path d="M276.5 5.42A542.83 542.83 0 0 0 11.17 74.21a542.84 542.84 0 0 0 262.92 67.47 542.8 542.8 0 0 0 265.33-68.79A542.8 542.8 0 0 0 276.5 5.42" class="cls-3"/><path d="M523.07 72.76a539.16 539.16 0 0 1-249 61.33A538.6 538.6 0 0 1 27.28 74.22l-.39.12a538.62 538.62 0 0 1 496.18-1.57" style="fill:#fff"/><path d="M119.71 103.56V43.08h20.21c9.67 0 16.17 4.17 16.17 15.72 0 5.46-1.59 9.87-6 12.35v.16c7.8 1.12 11.12 7 11.12 15.4 0 12.67-9.75 16.84-19.71 16.84Zm14.15-12h1.8c4.19 0 11.26.24 11.26-6.42 0-7.3-7-6.58-11.62-6.58h-1.44Zm0-24.71h1.59c3.76 0 7.65-.72 7.65-5.86 0-5.53-4.4-5.86-8.23-5.86h-1ZM222.85 103.56h-17.62L191.88 80.3h-.14v23.26h-14.15V43.08h21.15c10.76 0 18.91 5.69 18.91 18.61 0 8.34-4.19 15.56-11.91 17.09Zm-31.12-33.37h1.37c4.62 0 9.82-1 9.82-7.54s-5.2-7.54-9.82-7.54h-1.37ZM249.55 93.06l-3.75 10.51h-15l20.94-60.48h15.45l20.5 60.48h-15.11L269 93.06Zm9.89-31.28h-.14L253.45 81h11.77ZM301.08 43.08h14.15l25.91 37h.15v-37h14.15v60.48h-14.16L315.37 66.5h-.14v37.06h-14.15ZM373.68 43.08h14.15l25.92 37h.14v-37H428v60.48h-14.11L388 66.5h-.15v37.06h-14.17Z" class="cls-3"/></g></g></svg>