<svg xmlns="http://www.w3.org/2000/svg" viewBox="161 126.37 359 165.9"><g fill="#114387" data-name="Layer 5"><path d="M176.04 217.69h12.36v-13.44h-12.36v-16.87h12.9v-13.43H161v75.22h28.15v-13.43h-13.11zM209.78 173.95h-15.04v75.22h25.89v-13.43h-10.85zM225.47 173.95h15.04v75.21h-15.04zM245.13 187.38h9.13v61.79h15.05v-61.79h9.13v-13.43h-33.31zM282.95 249.17h14.47l13.43-13.43h-12.86v-18.05h12.36v-13.44h-12.36v-16.87h12.9v-13.43h-27.94zM371.16 260.99h12.03v-13.08h-12.03v-16.42h12.55v-13.07h-27.2v73.22h27.41v-13.08h-12.76zM418.54 257.01c3.97-1.46 6.28-4.6 6.28-10.88v-14.12c0-9.1-4.5-13.6-13.6-13.6h-21.86v73.22H404v-27.72h3.66c1.78 0 2.62.84 2.62 2.62v25.1h14.64v-25.21c0-5.33-1.88-8.16-6.38-9.41m-8.37-8.16c0 1.78-.84 2.62-2.62 2.62h-3.56v-20.29h3.56c1.78 0 2.62.84 2.62 2.62v15.06ZM430.67 218.42h14.64v73.22h-14.64zM466.03 260.99h12.03v-13.08h-12.03v-16.42h12.55v-13.07h-27.2v73.22h27.41v-13.08h-12.76zM507.34 218.42l.11 15.16.21 21.13-8.48-36.29h-14.95v73.22h12.65l-.21-21.24-.2-18.62 9.3 39.86H520v-73.22zM345.53 253.67l-12.55-9.31c-1.78-1.25-2.51-2.41-2.51-4.71v-6.9c0-1.78.84-2.62 2.62-2.62h1.15c1.78 0 2.62.84 2.62 2.62v12.03h14.33v-13.39c0-9.1-4.5-13.6-13.6-13.6h-7.95c-.29 0-.58 0-.86.01l-12.72 12.72c0 .28-.01.57-.01.86v11.61c0 5.23 1.36 8.26 5.86 11.51l12.55 9.31c1.78 1.26 2.51 2.41 2.51 4.71v8.79c0 1.78-.84 2.62-2.62 2.62h-1.36c-1.78 0-2.62-.84-2.62-2.62v-14.23h-14.33v15.59c0 9.1 4.5 13.6 13.6 13.6h8.16c9.1 0 13.6-4.5 13.6-13.6v-13.49c0-5.44-1.36-8.26-5.86-11.51ZM336 168.05c8.4-2.78 18.08-3.47 26.2.82-2.36-4.45-6.21-7.22-10.53-9.59 5.19-3.3 16.24-3.97 20.52 1.16 4.14 4.96 3.09 12.09.29 18.77l8.36-8.36v.02c4.25 15.82-12.85 18.39-5.97 31.67 6.31-14.28 17.35-12.9 26.18-32.15 3.6 2.63 5.69 7.93 6.49 12.4 4.11-16.34-1.02-27.09-4.65-33.98l-14.91 14.91v-.02c-2.2-7.69-7.86-16.37-22.28-20.08 7.09-2.23 14.71-3.53 17.08-3.72 2.43 2.61 3.01 8.76 2.89 12.31.04-.14 6.33-8.47 4.38-17.93-8.47.05-25.08 2.55-37.12 8.34-3.63 1.75-5.91 5.31-6.91 7.35-2.25 1.68-10.83 8.48-14.52 11.29.38.81.9 1.78 1.48 2.75 1.45-.87 3.16-2.16 4.99-3.72.34 1.14-1.52 4.8-3.07 6.55.37.47.74.89 1.09 1.23Zm16.99-21.85c.19.4.33 1.82.5 3.05 3.69-2.4 5.98-3.45 9.42-4.7-1.55 1.41-5.09 4.57-7.27 9.28-.6-.36-3.72-1.47-6.41-1.89.68-2.06 2.19-4.29 3.76-5.73Z" class="cls-3"/><path d="m429.9 177.84-.09-.32-.08-.28c-.54-1.86-.63-3.42-.81-6.25-.15-2.32-.35-5.5-.88-10.18-.63-5.54-4.92-12.15-12.76-19.64-4.54-4.34-10.23-8.8-13.99-11.03l-.15.12c-.75-1.77-2.26-3.86-5.72-3.89h-1.26c-16.01 0-28.63 2.64-42.23 8.85-4.61 2.1-7.43 4.81-9.68 9.33l-.38.28c-3.09 2.29-11.89 9.08-14.29 11.02-1.38 1.12-2.2 2.66-2.37 4.47-.36 3.8 2.48 8.02 4.92 10.89 1.55 1.83 2.61 2.9 3.53 3.6.98.74 2.05 1.1 3.26 1.1.48 0 .94-.06 1.43-.14.55.49 1.17 1 1.87 1.47-.6.37-1.2.77-1.81 1.17l-.17.11c-.46.3-.84.55-1.23.8-1 .64-1.91 1.14-2.73 1.52s-.04.02-.06.03c-.01 0-.03.01-.04.02-.3.14-.59.26-.87.35-.32.12-.63.2-.94.26-.33.07-.64.11-.93.11-.71.04-1.22-.04-1.44-.09-1.17-.22-2.46-.75-2.46-.75-1.22-.47-2.25-.98-2.25-.98a35 35 0 0 1-2.84-1.52c-.89-.49-1.45-.84-1.45-.84-.07-.05-.14-.1-.21-.14l1.7 6.38.18.68.16.61c2.11 7.93 7.55 9.12 10.61 9.12 3.35 0 6.65-1.32 9.44-2.7.82 3.48 2.49 5.66 3.99 6.99l.16.15.18.16.36.32-5.13 5.13-.35.35-.39.39-6.18 6.17h5.13l3.6-3.62.4-.4.35-.35 15.65-15.66c-4.9.49-8.71 2.1-10.77 4.59l-.14.17-.15.19-.18-.16-.16-.14c-2.32-2.06-3.45-5.5-3.27-9.96-.56.24-1.31.65-2.18 1.11-2.87 1.54-6.81 3.65-10.38 3.65s-5.98-2.16-7.12-6.43l-.14-.53c1.94 1.4 4.4 1.67 4.4 1.67.28.03.57.05.86.05 2.08 0 4.47-.9 7.51-2.85.44-.28.86-.56 1.27-.82l.17-.11c3.56-2.33 6.13-4.02 12.32-4.02 2.15 0 4.7.2 7.77.63-1.98-3.47-6.62-6.85-12.83-6.85-.38 0-.77.01-1.15.04.24 1.56.99 3.62 1.69 4.14l.47.35.53.39-.65.03-.58.03h-.29c-3.38 0-6.63-2.52-8.06-4.28-.44.07-.81.14-1.12.2l-.11.02c-.63.12-1.09.2-1.45.2-.42 0-.73-.11-1.08-.37-.69-.52-1.6-1.46-2.96-3.06-1.31-1.54-4.34-5.43-4.08-8.2.08-.82.43-1.5 1.05-1.99 2.62-2.12 13.31-10.36 14.92-11.47s.34-.25.34-.25c1.95-4.28 4.2-6.55 8.32-8.43 13.09-5.98 25.27-8.53 40.72-8.53h1.23c1.82.02 2.32 1.14 2.73 2.53l.16.09c2.9 1.46 9.07 6 14.5 11.19 4.96 4.74 11.01 11.6 11.67 17.43.52 4.6.72 7.72.86 10 .19 2.99.3 4.79.95 7.03l.08.28.09.32-.33-.02-.3-.02c-1.76-.13-3.42-1.16-4.33-1.91-.86 5.95-3.23 15.65-7.29 25.64h3.89c2.93-7.44 4.94-14.63 6.12-20.32.43.1.88.17 1.34.2l.29.02.34.02 5.18.37-1.45-4.99Z" class="cls-3"/></g></svg>