<svg xmlns="http://www.w3.org/2000/svg" xml:space="preserve" viewBox="0 0 90.6 90.67"><ellipse cx="45.25" cy="45.333" rx="44.753" ry="44.67" style="fill:#fff;fill-opacity:1;fill-rule:evenodd;stroke-width:1.26988"/><path d="m375.957 595.375-5.371.25 2.012 36.5-16.446-35.742-4.699.25-12.5 37.336-2.012-36.492-5.203.25 2.434 45.218 7.387-.332 12.582-38.593 16.945 36.996 7.305-.418zm-110.414 31.551-1.512-22.156 13.762 3.527zm-9.313-43.211 4.614 47.988 6.543 1.676 27.601-39.684-6.293-1.679-8.132 12.168-16.868-4.36-1.172-14.515zm191.125-9.82-31.378 12 16.191 42.285 30.703-11.746-1.848-4.696-25.164 9.563-5.207-13.426 22.993-8.809-1.68-4.449-22.988 8.813-5.618-14.852 25.84-9.902zm-257.156-24.329-23.488 38.766 5.031 3.016 11.742-19.379 7.895 31.375 6.543 3.945-6.715-25.672 31.547-12.254-6.211-3.773-26.762 10.738-2.769-10.152 8.222-13.586zm320.492 34.411-10.398-13.508 9.141-7.051s1.843-1.262 2.683-1.762c1.684-1.172 3.274-1.847 5.371-2.183.325-.039.649-.059.957-.059 2.524 0 4.953 1.16 6.594 3.324 2.606 3.438 2.102 8.473-1.172 11.242l-1.426 1.004-11.75 8.981m-.332-50.918-5.371 4.023.332.926 1.426 2.684 1.516 2.351 1.933 3.274c2.598 3.269 2.434 7.8-.254 10.992l-2.011 1.762-10.325 7.882-11.66-15.269-4.527 3.523 27.52 35.993 17.527-13.422c.84-.672 1.68-1.426 2.441-2.184 3.184-2.937 4.446-6.965 3.352-10.988-.5-2.184-1.516-4.028-2.934-5.453-2.437-2.641-5.574-3.989-8.902-3.989-1.02 0-2.055.121-3.098.379l-1.172.336.418-.59c1.672-3.437 1.504-7.293-.593-10.57l-1.336-2.184-2.598-4.527-1.176-2.266-.429-1.675zm-383.996 16.238a8.2 8.2 0 0 1-5.797-2.394l-1.003-1.262-9.989-11.074 12.668-11.41 7.719 8.558 2.016 2.52c1.253 1.593 2.093 3.183 2.597 5.113.586 2.937-.418 5.793-2.683 7.805a8.15 8.15 0 0 1-5.528 2.14m9.555-46.183-33.645 30.285 14.766 16.445a20.3 20.3 0 0 0 2.434 2.262c2.148 2.027 4.804 3.098 7.543 3.098 1.23 0 2.476-.215 3.703-.661 2.094-.675 3.773-1.761 5.199-3.355 3.105-3.442 4.027-7.891 2.52-12.25l-.418-1.094.668.254c1.363.57 2.75.859 4.121.859 2.246 0 4.437-.777 6.367-2.285l2.094-1.426 4.195-3.023 2.18-1.344 1.765-.504.922-.164-4.441-5.035-.93.422-2.516 1.59-2.265 1.68-3.024 2.265a8.54 8.54 0 0 1-5.824 2.285c-1.816 0-3.652-.57-5.246-1.699l-1.844-1.844-8.73-9.648 14.261-12.84zm443.66 11.074-21.14-6.715 8.3-11.496zm-20.058-39.52-3.856 5.289 8.223 11.911-10.235 14.093-13.847-4.191-3.86 5.199 46.399 13.34 3.945-5.535zm19.804-41.527-2.183 5.449 37.422 15.102-5.54 13.762 4.622 1.843 13.164-32.801-4.614-1.847-5.371 13.508zM71.231 465.258l16.195-15.274 5.953 12.836zm27.437-34.653-34.062 34.063 2.851 6.129 48.156-4.027-2.765-5.875-14.516 1.507-7.383-15.855 10.489-10.067zm-16.36-79.535-44.972 5.871.926 7.301 39.43 9.735-35.657 19.546 1.008 7.297 44.887-5.785-.672-5.289-36.246 4.695 34.398-19.125-.586-4.613-38.172-9.73 36.239-4.618zm514.8-1.007-3.523 33.394 45.059 4.695 3.433-32.632-5.027-.594-2.852 26.851-14.355-1.507 2.605-24.418-4.781-.504-2.523 24.418-15.77-1.598 2.852-27.602zM70.223 284.199l-2.512 13.926-19.469-10.82zm20.473-9.394-47.488 8.222-1.254 6.629 41.613 24.492 1.176-6.375-12.672-7.207 3.106-17.121 14.347-2.261zm543.082-6.883-44.636 8.23 1.172 5.957 40.441 16.946-36.152 6.629 1.003 5.539 44.629-8.227-1.171-6.043-40.528-17.031 36.16-6.707zm-32.722-80.625-4.532 2.351 12.422 23.997-12.84 6.543-11.242-21.809-4.277 2.18 11.238 21.812-14.09 7.297L565.059 205l-4.61 2.355 15.442 29.95 40.269-20.813zm-522.27-.246-2.77 5.285 17.282 8.719-11.074 21.648-17.2-8.726-2.683 5.293 40.355 20.543 2.68-5.282-19.125-9.726 11.074-21.653 19.129 9.739 2.688-5.293zm251.11 356.484-1.172-.254-.926-.504-.672-.75-.504-1.011-.082-1.172h3.691l2.934-.84.164 1.09-.082 1.094-.586.921-.758.75-1.004.508zm49.335-138.183a47 47 0 0 1-2.687-3.188 27 27 0 0 1-2.012-2.516 26.5 26.5 0 0 1-2.859-4.867c-.754-1.511-1.25-3.187-1.594-4.781-.168-1.176-.332-2.348-.422-3.523-.164-1.676-.332-3.356-.332-5.036l6.379 2.016 1.34 2.434 2.187 2.179 3.016 1.426 3.606.668zm-76.773-17.536 3.27-6.039 3.445-1.257c-.168 1.507-.34 2.937-.504 4.363l-.422 2.094-.668 2.183c-.508 1.848-1.176 3.692-1.765 5.453l-2.012 5.785-6.043-12.918zm185.758-17.449-21.399-15.019 4.446-2.262 20.222 12.582-.168 4.195zm-298.016-.926-.418-2.933 15.692-15.356 5.789 2.688-15.942 14.765zm308.082-4.277-4.621-.59-19.551-12.914 5.793-2.937 18.289 13zM183.32 366.84l-1.425-3.438 13.511-16.277 7.629 3.188-15.347 15.523zm322.93-5.535-5.789-.922-17.785-13.004 6.965-2.688 17.285 13.008zm-331.316 2.265-1.344-3.519 11.074-16.281 8.477 2.769-13.594 16.106zm-9.231-2.347-2.437-4.196 10.992-15.351 8.476 1.676h.082l-12.164 16.445zm347.258-4.032-3.273-.082-17.286-13.504 7.305-2.011 13.672 12.664zm-366.391.84-1.59-1.761 9.059-15.016 7.887-.5-10.238 15.687zm9.989 1.008-2.348-3.187 10.652-15.098 7.215.668-11.07 15.687zm372.843-6.543-3.355-.672-9.477-11.664 7.551.254 6.289 9.731zm-8.55 1.844-4.875-1.004-12.832-12.582 8.898-.676 9.727 11.582zm-373.778-16.192-1.758-.168-.507-1.085 1.851-1.512c1.172-.422 2.266-.84 3.52-1.098a15.8 15.8 0 0 1 3.527-.672 86 86 0 0 1 6.457-.5c1.262-.039 2.5-.054 3.738-.054 1.231 0 2.469 0 3.731.054 3.019.09 6.121.332 9.144.754 2.688.344 5.371.762 8.059 1.348 1.84.422 3.687.84 5.531 1.34 3.696 1.09 7.387 2.179 10.988 3.355l28.032 11.242 10.984 4.953 21.649 10.989a41 41 0 0 0 4.445 2.011 52 52 0 0 0 5.199 1.762c.93.34 1.934.586 2.941.758 2.012.504 4.11.926 6.122 1.344l.336 2.011.925 2.516c-2.433-.418-4.785-.926-7.133-1.426-1.257-.25-2.433-.586-3.523-.925a48 48 0 0 1-5.957-1.926c-2.184-.836-4.445-1.848-6.629-2.852l-25.086-11.828-13.172-5.871-22.824-9.148c-2.176-.84-4.273-1.68-6.457-2.352a102 102 0 0 0-7.215-2.012c-3.351-.84-6.797-1.511-10.238-1.929-2.852-.418-5.785-.672-8.727-.672-.632 0-1.254-.039-1.886-.039-1.715 0-3.446.086-5.157.203-2.433.168-4.863.422-7.218.844zm260.094 39.774.332-3.609-.918-3.61 40.012-18.547 18.211-8.215 17.363-8.558 9.227-2.856a75 75 0 0 1 8.644-1.757c3.191-.426 6.379-.758 9.649-.848a73 73 0 0 1 2.917-.059c1.379 0 2.754.039 4.133.149 2.18.164 4.278.332 6.375.672 1.172.254 2.348.586 3.52 1.004 1.094.421 2.097.917 3.101 1.515l1.684 2.18-.332 1.094-2.523.664-5.536-.664c-1.339-.254-2.683-.344-4.109-.344a66 66 0 0 0-2.004-.039c-1.633 0-3.269.058-4.871.129-2.688.078-5.297.332-7.895.586a56 56 0 0 0-5.281.754c-1.594.25-3.105.667-4.621 1.007-3.101.84-6.121 1.762-9.141 2.684l-26.343 12.668-8.723 4.277zm-251.031-48.496-12.582-11.66-.082-3.528 6.207.078 10.742 14.856zm303.718 12.414 9.063-23.996 5.699-3.86 2.856 1.934-8.227 20.891zm65.86-14.008-4.785-.586 8.894-12.336 5.535-1.18.84 2.61zm-52.942 7.637 7.969-20.391 6.211-3.269 3.527 2.429-7.636 17.11zm45.223-8.645-7.976-.254 9.57-13.257 6.797-2.09 1.426 3.015zm-32.215 3.696 8.223-17.036 7.043-2.437 1.844 3.269-7.383 13.848-9.738 2.356m13.175-3.11 7.801-13.426 8.399-3.437 1.425 2.598-9.644 13.425zm-328.8 1.594-5.957-.254-12.747-15.684.668-3.359 7.637 2.012zm45.644 11.41-9.562-3.773-7.805-24.578 4.027-3.364 3.606 1.262zm-12.414-4.777-10.234-3.196L185 310.039l2.852-2.766 7.718 4.446zm-24.078-5.879-5.203-.586-12.082-18.293 2.347-3.77 6.543 2.762zm10.902 2.183-7.465-1.765-9.648-21.477 1.762-2.847 7.718 4.363zm237.946-41.621-3.614-.574-18.789-20.808 6.199-1.594 16.614 20.547zm48.32-11.402-4.617-2.27-5.539-12.168 7.05 2.266 4.864 9.57zm-39.942 8.477-4.355-.344-17.781-20.633 7.371-2.016 15.691 19.629zm-187.253.078-1.18-3.528 13.594-20.468 6.379 1.843-14.684 21.235zm-49.25-5.793-2.856-1.504 6.543-14.856 5.871-1.922-5.363 14.676zm268.308-1.758-5.535-2.688-7.305-14.929 8.313 1.511 5.867 13.254zm-24.754 3.945-4.695-.929-15.024-19.461 7.805-1.426 13.262 18.125zm7.891-1.758-3.195-1.269-12.332-19.461h7.214l9.993 16.949zm-242.973-2.683-2.437-1.77 6.211-15.183 6.379-1.172-6.629 15.515zm33.981 4.441-1.766-3.359 11.246-19.297 7.551 1.68-12.84 19.804zm217.047-3.777-3.778-1.34-10.156-17.539 7.473.93 7.711 15.437zm-225.274 1.93-2.683-3.614 9.062-18.367 8.637.84-11.071 19.043zm-17.785-2.516-2.012-1.762 7.383-17.281 6.625-.754-8.305 17.527zm8.394 1.336-2.777-2.512 8.727-18.711 7.05.254-9.226 18.535zm249.09-25.332-3.691-2.012 13.176-13.34 4.785-1.008.75 3.442zm-269.812-2.356-15.192-12.324.754-3.445 6.633 1.601 12.918 12.161zm264.441-.242-5.281-1.426 10.484-13.171 6.965-2.356.344 2.852zm-256.472-2.605-13.426-12.578 1.008-3.872 5.367 1.438 12.414 13.762zm249.089.84-6.035-.918 9.903-14.766 6.543-2.434.918 3.86zm-38 .593 8.301-16.535 5.957-3.601 1.098 2.851-7.641 16.192zm-16.699 3.516 10.324-20.891 4.942-3.015 1.347 2.265-9.152 19.715zm10.071-2.434 8.046-18.457 4.707-3.015.079 2.929-8.719 17.793zm-196.411-4.109-13.254-14.512 1.594-3.359 7.133 2.351 10.738 15.024zm232.321 1.348-8.813-.176 8.645-15.52 9.226-4.019 1.34 4.441zm-19.043.421 7.965-16.117 7.714-4.109 1.008 3.601-8.222 15.864zm-203.879-2.355-11.246-15.187 2.347-4.11 6.297 3.106 9.063 15.859zm14.929-.254-5.785-.422-9.48-15.933 2.012-3.196 5.035 3.946zm8.727 1.184-6.707-1.094-7.887-16.113 2.852-3.774 3.015 2.688zm17.367 3.093-6.039-1.503-9.062-20.137 1.847-3.02 3.778 1.848zm-8.804-1.668-6.543-1.425-8.813-19.219 2.27-2.766 4.019 3.02zM401.047 205l-4.199-.422-14.094-17.117 6.711-.75 12.918 15.691zm-122.586-1.008-2.098-2.769 11.078-15.43 6.543 1.172-11.074 15.348zm129.547-2.597-4.453-1.09-12.332-14.348 5.957-1.172 11.914 14.426zm-138.61-.504-1.589-3.11 9.984-15.183 7.715 2.683-10.235 14.516zm145.993-1.504-4.621-1.262-11.993-13.937 7.461-1.754 10.91 14.175zm29.355-5.957-4.773-2.356-6.289-10.234 6.367 1.086 5.535 9.234zm-20.547 3.855-5.793-1.847-10.23-13.758 8.047-1.258 9.824 14.012zm7.715-1.601-3.855-1.504-9.739-13.926 5.457-.344 9.399 13.762zm5.789-1.082-2.937-1.426-9.063-13.34 5.957.586 7.219 11.492zm-175.683 3.269-1.008-5.039 7.465-13.086 7.718 2.18-8.722 13.262zm-27.016-3.777-1.512-1.758 6.125-13.09 4.781-.594-5.703 12.93zm20.133.926-1.426-1.844 7.555-14.602 5.281.672-6.543 12.16zm-6.625-.34-.668-2.766 6.039-13.848 5.363.254-7.547 14.09zm-6.293.254-1.43-3.02 5.203-13.672 6.375-.254-6.121 13.34zm197.918-23.325-3.692-1.004 10.403-10.578 3.687-.586.258 3.696zm-200.27-3.269-10.57-9.317.172-2.683 7.465 2.937 7.3 8.301zm194.735 2.09-5.625-.586 10.652-12.41 5.293-2.102 1.086 3.359zm-188.86-3.094-8.558-9.902.839-2.266 5.118 2.52 6.714 9.226zm139.942 9.394 8.808-21.144 3.778-1.68 1.093 2.598-8.14 18.633zm-110.996-7.382-6.543-1.262-6.629-12.078 2.601-2.192 4.36 2.61zm9.394 2.175-7.297-1.843-7.133-13.84 2.184-2.102 5.535 3.442zm9.316 2.688-7.214-2.016-7.137-15.601 2.183-2.942 5.708 4.036zm-27.437-6.125L259 167.078l-6.543-10.484 2.516-3.11 4.695 2.688zm-8.895-1.094-5.621-.254-7.047-10.234 1.68-3.106 5.035 3.692zm136.34 7.891 8.227-17.617 5.957-4.286 1.258 2.86-9.153 17.617zm27.856-5.117 9.226-13.672 6.289-3.196.84 3.95-10.234 12.754zm-9.485 1.257 8.391-14.851 7.383-3.606 1.172 3.352-9.731 14.016zm-9.558 2.012 8.133-16.519 7.304-4.114 1.336 3.02-9.226 15.769zm-101.903 5.403c1.079 0 2.172-.059 3.235-.208a47 47 0 0 0 7.051-1.511c2.347-.75 4.613-1.668 6.707-2.852a28 28 0 0 0 5.203-3.691 21 21 0 0 0 4.199-5.196c1.254-2.097 2.094-4.367 2.68-6.796.336-1.094.507-2.266.754-3.36.253-1.511.503-3.015.675-4.531l-.172-20.051 8.141-5.113 8.313 4.859-.176 22.571c.34 1.757.762 3.601 1.179 5.461.247.828.5 1.668.833 2.507.835 2.266 2.097 4.278 3.613 6.121 1.922 2.434 4.273 4.7 6.797 6.633 2.683 2.012 5.535 3.782 8.64 5.117 2.18 1.004 4.532 1.68 6.961 1.844 1.086.11 2.207.168 3.332.168.672 0 1.367-.019 2.039-.078 3.352-.344 6.711-.84 9.985-1.516l22.488-5.449 5.781-.762c1.004-.078 2.012-.164 2.942-.242 1.179-.066 2.324-.129 3.464-.129.469 0 .938 0 1.399.039 1.766 0 3.445.09 5.113.254 1.606.168 3.11.422 4.621.754 1.336.254 2.688.672 4.024 1.094l2.429 1.594.422 2.097-.918.84-2.937.164-6.125-1.336-2.356-.421c-1.589-.172-3.269-.172-4.937-.25-1.43 0-2.863 0-4.289.078-1.004 0-2.09.086-3.098.172-1.512.082-3.023.332-4.527.585-2.524.422-5.039 1.008-7.563 1.594l-13.504 3.184-11.164 2.273c-2.09.332-4.187.41-6.289.41-1.676-.078-3.347-.242-4.949-.664a33 33 0 0 1-5.449-2.019c-2.774-1.426-5.535-2.93-8.145-4.61-1.172-.839-2.343-1.679-3.437-2.597-1.004-.84-1.922-1.77-2.852-2.774l-1.426-1.757a65 65 0 0 1-2.597-3.86l-.254 64.602c.254 1.34.586 2.683.93 4.023l.41 1.184c.758 1.59 1.597 3.093 2.683 4.441 2.024 2.512 4.114 4.949 6.465 7.219 2.52 2.43 5.203 4.695 8.059 6.629 2.683 1.836 5.535 3.437 8.465 4.863 2.351 1.008 4.785 1.68 7.214 2.102 1.606.183 3.235.293 4.868.293 1.257 0 2.527-.071 3.777-.215a62 62 0 0 0 5.461-.754c2.851-.508 5.613-1.094 8.465-1.68l19.219-4.277a17 17 0 0 1 2.851-.508c1.848-.332 3.691-.496 5.535-.754 3.274-.328 6.457-.672 9.653-.84 2.593-.164 5.117-.254 7.711-.254 2.855 0 5.792.168 8.644.676 3.02.496 5.957 1.262 8.898 2.266 1.5.5 3.016 1.094 4.442 1.758a67 67 0 0 1 4.441 2.187l2.192 1.926v1.258l-1.184.507-4.023-1.003c-1.004-.344-2.012-.676-3.02-1.008-1.758-.508-3.523-1.016-5.281-1.438-1.848-.496-3.867-.918-5.711-1.336-1.262-.254-2.512-.5-3.773-.675-1.676-.25-3.36-.497-5.118-.582a54 54 0 0 0-5.203-.254c-1.758.086-3.359.086-5.117.254-2.102.164-4.199.332-6.289.582-2.356.343-4.707.675-7.051 1.183-1.933.332-3.777.75-5.613 1.25l-20.567 5.371c-2.929.762-6.039 1.348-9.054 1.848-1.516.254-3.028.418-4.531.418-2.43 0-4.786-.254-7.215-.75a67 67 0 0 1-9.653-3.274c-2.683-1.093-5.293-2.519-7.722-4.113a49 49 0 0 1-6.621-5.113c-.84-.844-1.68-1.77-2.52-2.688-1.68-1.757-3.269-3.691-4.863-5.539L345 327.324c.168 2.344.332 4.696.586 7.051.168 1.172.332 2.266.586 3.438.676 2.933 1.68 5.871 3.016 8.554a55 55 0 0 0 5.878 9.145 51 51 0 0 0 7.969 7.972c2.934 2.352 6.125 4.446 9.399 6.125 2.769 1.336 5.535 2.43 8.472 3.188 2.434.672 5.032 1.008 7.551 1.09.371.019.723.043 1.094.043.859 0 1.711-.063 2.597-.125 2.43-.25 4.864-.586 7.305-.922l-.508 2.765-2.597 3.61-1.844.668a14 14 0 0 1-3.274.422q-.985.063-1.953.062c-1.672 0-3.32-.144-5.019-.316a37 37 0 0 1-6.543-1.344 65 65 0 0 1-7.129-2.437c-2.941-1.172-5.703-2.512-8.391-3.942a96 96 0 0 1-9.39-5.535c-2.024-1.426-3.95-2.941-5.625-4.613-1.008-.922-1.926-1.93-2.856-3.024a226 226 0 0 1-5.285-6.543l-5.785 7.215c-1.766 1.848-3.527 3.692-5.457 5.285a62 62 0 0 1-5.871 4.699c-2.938 2.016-5.957 3.778-9.231 5.286-2.429 1.172-5.117 2.011-7.718 2.515-1.254.254-2.516.426-3.778.59-2.594.168-5.113.332-7.715.332l-2.015-2.933-1.004-2.852c1.676-.254 3.269-.504 4.949-.758.836-.164 1.676-.336 2.434-.504 2.683-.586 5.281-1.426 7.8-2.593 2.606-1.094 5.118-2.524 7.551-4.114 2.684-1.761 5.121-3.863 7.469-6.129 2.266-2.265 4.277-4.695 6.043-7.382a51 51 0 0 0 4.777-9.227c1.18-2.852 1.93-5.785 2.352-8.805.418-2.605.672-5.207.754-7.801.168-3.949.168-7.89.086-11.925l-3.024-66.524c-1.426 1.848-2.933 3.606-4.359 5.282-1.09 1.261-2.27 2.523-3.356 3.781-1.761 1.672-3.609 3.269-5.621 4.687-2.183 1.438-4.531 2.61-6.882 3.614a35.5 35.5 0 0 1-7.215 2.011 33 33 0 0 1-4.645.324c-1.023 0-2.051-.05-3.074-.148a126 126 0 0 1-5.371-.676c-2.348-.34-4.695-.84-6.961-1.343l-22.988-6.04c-1.676-.503-3.446-.835-5.121-1.168-2.098-.343-4.11-.675-6.122-.839-2.769-.344-5.539-.508-8.304-.598-2.196-.059-4.391-.117-6.582-.117-.914 0-1.825 0-2.731.039-4.785.078-9.48.5-14.183 1.008-1.594.164-3.192.586-4.7 1.172l-8.554 3.445-2.348.586-1.762-.586.082-1.602 2.934-2.508c1.848-.839 3.781-1.679 5.711-2.355 2.012-.754 4.109-1.262 6.121-1.758 3.27-.762 6.543-1.262 9.73-1.679a87 87 0 0 1 6.918-.286c.762 0 1.54 0 2.313.024l17.703 1.426 29.113 6.296c1.762.418 3.524.75 5.371.997 1.59.339 3.27.507 4.864.671 1.218.09 2.418.129 3.605.129 1.196 0 2.399-.039 3.61-.129 2.011-.164 3.945-.496 5.875-1.082 2.011-.671 3.941-1.511 5.703-2.605 2.683-1.594 5.207-3.441 7.554-5.449 2.012-1.684 3.856-3.606 5.536-5.539 1.679-2.012 3.101-4.114 4.445-6.289.758-1.348 1.43-2.61 1.933-4.036a18.6 18.6 0 0 0 1.004-4.109c.168-.918.332-1.848.332-2.766.082-1.589.172-3.191.172-4.695l-.422-57.891-3.523 4.942c-1.262 1.516-2.602 2.937-4.195 4.289a29.7 29.7 0 0 1-5.286 3.523c-2.265 1.25-4.699 2.266-7.214 3.106a44 44 0 0 1-7.973 1.758 55 55 0 0 1-5.469.285c-.609 0-1.226 0-1.832-.031-1.929-.079-3.773-.411-5.621-.918L284 181.172l-8.473-2.852c-2.265-.586-4.531-1.093-6.797-1.679-1.175-.254-2.347-.508-3.437-.672-2.184-.422-4.449-.676-6.633-.84a82 82 0 0 0-5.57-.188c-.672 0-1.32 0-1.977.02-2.183 0-4.281.168-6.379.344-1.675.242-3.269.418-4.867.84l-3.269.41-1.344-.41-.332-1.602 1.426-1.594c1.007-.586 2.093-1.094 3.187-1.426 1.344-.418 2.684-.753 4.024-.918 2.015-.253 4.031-.507 6.046-.593 1.481-.063 2.922-.129 4.379-.129.606 0 1.211 0 1.829.051 2.007 0 4.109.164 6.121.418 2.265.168 4.531.5 6.796.918 1.598.253 3.274.585 4.954 1.003 1.589.344 3.101.762 4.613 1.184l13.172 3.77c1.344.253 2.679.586 4.105.839l2.102.254c.863.059 1.754.125 2.637.125m38.558-58.902-11.828 8.395-.086 26.503c-.59 1.68-1.176 3.364-1.762 4.954-.504 1.093-.922 2.187-1.507 3.195-.922 1.758-2.102 3.433-3.61 4.859-1.598 1.594-3.441 2.942-5.371 4.028-1.508.757-3.019 1.421-4.613 1.929a31 31 0 0 1-4.781.93c-1.176.078-2.348.168-3.528.242-1.508 0-3.101.09-4.613.09l-7.719-20.977-9.312-5.285-3.27 3.774-6.129-4.282-3.183 3.782-4.786-3.946-3.187 4.278-6.379-4.532-2.769 4.786-6.29-4.532-2.937 5.536-5.789-3.348-1.676 4.863-7.137-2.187-1.754 7.547 10.235 9.484-2.102 1.262-2.265 3.613.757 3.934 3.27 1.269-5.785 13.328 5.367 6.801 4.613-3.859 2.102 4.445 4.695-4.192 1.508 4.61 5.117-4.192 1.852 4.028 4.195-3.274.918 5.203 5.789-2.007 1.766 4.863 7.129-1.938 2.351 4.7 9.567-2.43 13.339-18.457 5.036-.5c2.847-.254 5.617-.762 8.296-1.602 2.266-.586 4.45-1.504 6.465-2.597 1.09-.496 2.016-1.094 3.02-1.758 1.848-1.262 3.691-2.609 5.539-3.945l-.504 50c-.332 1.933-.754 3.859-1.172 5.703-.254.926-.504 1.843-.84 2.773a32.3 32.3 0 0 1-2.933 5.867 41.5 41.5 0 0 1-4.957 5.957c-1.926 1.938-4.11 3.696-6.457 5.121a28.4 28.4 0 0 1-6.879 3.192c-1.516.586-3.188.918-4.785 1.086-1.231.125-2.414.215-3.614.215-.437 0-.886 0-1.34-.039a143 143 0 0 1-8.05-1.008c-3.61-.672-7.215-1.516-10.825-2.442l-12.668-28.015-5.625-3.196-3.015 3.782-5.535-4.446-4.282 4.114-4.199-3.032-2.679 4.036-6.547-3.438-3.106 4.109-9.812-4.199-1.766 5.449-10.148-2.761-2.27 4.863-8.637-2.266-1.429 6.211-6.625-1.59-2.434 9.227 16.024 13.418-1.422 1.262-2.266 3.941 1.004 3.945 2.434.84-7.551 15.024 7.047 4.441 5.371-3.691 3.519 2.597 4.114-3.183 3.441 3.601 3.855-2.683 3.274 3.855 6.461-3.765 3.859 4.949 4.953-2.598 2.094 4.695 4.781-2.019 1.68 4.453 8.395-.93 17.195-23.906 9.566 2.18c2.852.676 5.703 1.262 8.555 1.68 2.266.332 4.613.585 6.879.839q1.105.059 2.222.059a39.7 39.7 0 0 0 6.676-.566 30 30 0 0 0 7.801-2.598c1.848-1.016 3.606-2.024 5.285-3.274a91 91 0 0 0 8.387-6.55l1.598 49.004-7.555-10.657c-1.508-2.097-3.356-4.031-5.281-5.711a35.4 35.4 0 0 0-5.875-4.101c-2.184-1.184-4.532-2.102-6.879-2.774a35 35 0 0 0-8.309-1.257c-.633-.039-1.277-.039-1.918-.039-2.57 0-5.164.261-7.644.796-2.688.508-5.286 1.426-7.637 2.766-2.516 1.348-4.699 3.105-6.711 5.117-2.012 2.266-3.855 4.785-5.199 7.559-1.344 2.597-2.266 5.449-2.856 8.387a29.8 29.8 0 0 0-.25 8.644c.25 2.266.84 4.531 1.68 6.633.836 2.012 1.84 4.019 3.184 5.777.839 1.008 1.597 2.024 2.437 2.942 1.172 1.425 2.43 2.761 3.691 4.113l.083-4.699c.082-1.258.417-2.52.839-3.692l1.508-2.265c.926-1.004 2.102-1.68 3.36-2.176a17.6 17.6 0 0 1 5.203-.781h.75c2.183 0 4.449.418 6.547 1.257 2.093.84 3.941 1.934 5.621 3.36 2.097 1.844 4.023 3.945 5.539 6.211 1.843 2.597 3.441 5.449 4.613 8.386.758 1.594 1.344 3.356 1.762 5.032.504 1.597.84 3.355 1.008 5.035.164.84.246 1.68.246 2.601.089 1.68.171 3.438.254 5.2a114 114 0 0 1-6.625 4.531 27 27 0 0 1-3.442 1.766 18 18 0 0 1-4.113 1.253c-2.852.59-5.871 1.008-8.809 1.262v-1.348l.758-2.175-.676-.586h-3.605l-1.758 1.676c-.676.753-1.262 1.679-1.766 2.601-1.339-.168-2.765-.254-4.109-.422l-1.68-.336a40 40 0 0 1-4.367-1.254c-2.266-.925-4.613-1.933-6.789-3.023l-32.137-15.438-10.988-4.195-11.328-35.32-8.809-4.445-4.699 4.191-10.148-5.781-4.032 3.347-9.894-5.871-2.942 5.703-8.386-3.269-2.606 5.207-10.398-2.777-1.598 5.042-9.648.497.254 8.308 12.164 11.66-4.617.754c-.922.254-1.762.672-2.602 1.262-.832.672-1.676 1.426-2.176 2.352-.758 1.082-1.262 2.343-1.512 3.605l.333 2.348 1.515 1.425c1.09.5 2.18.84 3.266 1.004l2.437.082c1.004 0 2.012 0 3.02-.082l-9.899 15.188 5.282 5.453 7.804-3.02 3.36 4.282 5.035-2.434 3.433 4.527 6.297-2.093 1.68 4.109 5.531-1.93 2.102 4.7 5.617-1.344 1.426 4.785 10.578-2.855 17.531-16.02a1139 1139 0 0 1 9.481 3.52l1.843.753 28.864 14.176h-.082a67 67 0 0 0 3.105 1.344c3.774 1.598 7.547 3.023 11.32 4.531l1.598 4.113 2.184 2.684 3.855 1.598 1.594.332 3.105-2.352 5.535.594 8.645 16.777-13.676-4.531-1.594.082-.253 1.426 5.539 8.64-18.793-3.855-2.434.84.84 3.437 7.129 6.211-17.871-1.679-2.598 1.175.504 3.192 8.727 9.308-7.301 1.09c-1.766.254-3.61.336-5.453.336-1.344-.082-2.688-.25-3.942-.586l-3.781-.254-1.09 1.008.926 3.106 3.605 3.691 2.012 1.258c1.18.586 2.27 1.09 3.445 1.676-3.187.421-6.378.839-9.648 1.093-1.426.164-2.941.164-4.449.164-1.93-.082-3.774-.164-5.703-.164l-2.356.082-2.258.84-.254 2.18a7.8 7.8 0 0 0 2.602 3.105 17.8 17.8 0 0 0 5.367 2.684l10.488 3.273c-1.761.59-3.437 1.094-5.285 1.68-.84.164-1.679.418-2.601.586-2.348.504-4.781.672-7.215.672-3.527 0-7.047-.254-10.574-.758l-14.848-2.43-4.195-.503-3.27.921.246 3.188c.676.84 1.516 1.594 2.438 2.098a17.9 17.9 0 0 0 4.359 1.843l16.028 4.532c1.343.421 2.683.675 4.027.925 4.527.668 9.058 1.258 13.59 1.844-2.094.254-4.278.504-6.461.676-.75.082-1.59.082-2.516.082-2.515 0-5.031-.082-7.465-.418-4.363-.594-8.64-1.344-12.836-2.184l-10.91-2.265-4.613.164-1.258 2.011.922 2.606 2.348 1.086 8.14 3.273c2.52.84 5.035 1.598 7.547 2.266 3.274.758 6.633 1.43 9.902 2.016l11.079 1.589c-2.856.34-5.704.504-8.645.676-1.176 0-2.434 0-3.609-.082-1.172-.086-2.266-.172-3.438-.34-4.191-.754-8.304-1.511-12.5-2.261l-12.086-2.352h-4.273l-2.016 2.352.754 2.765 3.692 2.606 11.832 3.937 20.382 5.539c4.7 1.094 9.403 1.93 14.098 2.52 3.691.504 7.301.84 10.992.84h1.969c3.394 0 6.809-.192 10.109-.614a93 93 0 0 0 11.914-2.261c4.282-1.09 8.309-2.684 12.168-4.7 3.11-1.675 6.043-3.773 8.473-6.207a14 14 0 0 0 2.52-3.351c.753-1.344 1.425-2.86 1.757-4.449l.676-4.032 6.457 2.856c1.262.5 2.524.922 3.778 1.258 1.257.25 2.519.422 3.863.586.832 0 1.758.082 2.683.082 1.422 0 2.934-.082 4.36-.082a696 696 0 0 1 2.265 6.961l.668 1.597 7.137 14.52c1.004 2.093 1.844 4.273 2.348 6.543.254 1.086.254 2.175-.082 3.179l-2.77 10.407-.168 1.093c.086 1.594.254 3.102.504 4.618l-3.351 1.003-2.102 1.68c-1.008 1.254-1.848 2.516-2.516 3.86l-2.433 3.691-2.688.922-3.187-.504-2.262.922-.676 2.769 2.02 2.18 4.945 1.258h4.531l2.102 4.695c.586 1.012 1.426 1.938 2.266 2.774 1.168 1.007 2.347 1.757 3.691 2.433 1.59.758 3.269 1.426 4.945 1.676a18.9 18.9 0 0 0 5.285.254c1.93-.168 3.86-.668 5.622-1.426 1.507-.586 2.859-1.512 4.109-2.602 1.512-1.425 2.769-3.109 3.609-4.949.918-2.097 1.516-4.281 1.684-6.547.078-1.761 0-3.601-.168-5.453-.164-2.183-.508-4.277-.93-6.461l-1.504-7.3c-.508-2.512-.508-5.028-.34-7.465.254-2.266.75-4.532 1.59-6.715l5.703-14.512c.598-1.426 1.02-2.851 1.352-4.359.926-3.946 1.68-7.973 2.43-12 2.683.418 5.371.754 8.132 1.008q1.19.15 2.368.148c.554 0 1.113 0 1.668-.062 1.504-.086 3.015-.34 4.445-.676q4.535-1.126 9.059-2.516c.585 1.344 1.093 2.77 1.757 4.113l.766 1.508c1.426 2.184 3.016 4.113 4.949 5.703 2.688 2.266 5.613 4.114 8.723 5.707a62 62 0 0 0 11.328 4.446c4.02 1.175 8.055 2.015 12.168 2.351 3.184.344 6.324.528 9.488.528 1.418 0 2.844-.039 4.27-.102a112.6 112.6 0 0 0 15.097-2.016l29.036-6.125c2.847-.668 5.781-1.507 8.55-2.511a44.6 44.6 0 0 0 5.703-2.86l2.778-3.937-.676-2.77-2.687-.926-4.11 1.09-13.672 3.864c-3.613 1.004-7.304 1.757-10.996 2.347a45 45 0 0 1-6.172.438h-1.289c-1.601 0-3.191-.168-4.785-.418-3.105-.418-6.289-1.004-9.48-1.68l16.953-1.93c3.094-.418 6.199-1.003 9.226-1.675 2.676-.586 5.364-1.262 7.969-2.102 1.926-.586 3.856-1.426 5.613-2.348 1.848-1.007 3.703-2.179 5.293-3.437l2.016-2.852-.512-2.183-1.844-.336-3.601.504-12.668 3.101c-4.531 1.09-9.148 2.016-13.762 2.688-2.476.289-4.961.523-7.429.523h-1.133c-1.172 0-2.434-.168-3.606-.34-2.847-.336-5.789-.839-8.64-1.339 3.359-.336 6.711-.586 10.156-1.008 1.672-.164 3.269-.418 4.941-.672 2.52-.414 5.039-.922 7.473-1.512a165 165 0 0 0 9.227-2.512 112 112 0 0 0 5.457-1.929c1.593-.59 3.019-1.258 4.523-1.934l3.027-2.515.164-3.188-2.937-1.426-4.024.332-7.976 2.016a238 238 0 0 1-10.82 2.516 37 37 0 0 1-4.368.757c-2.175.246-4.277.336-6.457.336-4.441-.082-8.804-.254-13.257-.586l10.242-4.613c1.25-.594 2.429-1.262 3.515-2.102.926-.753 1.77-1.589 2.442-2.511l.664-2.02-3.02-1.426-20.554-1.339 5.117-5.875c.929-1.172 1.765-2.348 2.265-3.692.332-.758.418-1.679.332-2.515l-1.085-1.258-2.684-.168-10.742 1.929 6.211-8.898v-2.094l-2.688-.254-12.5 3.188 4.199-8.473-.254-1.761-2.351-.25-8.977 4.363.93-7.969-.598-2.102-3.015.254-5.867 3.86.75-4.364-.586-.753-2.43-.336-7.805 3.441 5.614-16.699a37 37 0 0 0 4.203-.758l1.59-.496 5.957-2.438 1.003-.168c1.68-.082 3.274-.082 4.954-.082.3 0 .586.02.886.02.879 0 1.758-.102 2.641-.277l2.344-.84 2.769-4.278-.086-4.195 36.582-17.621 6.543-2.77 24.336 16.7h10.071l-.508-6.129 7.129 1.094-.332-3.61 7.293 1.008 1.347-4.781 5.957.422.918-4.286 6.211.84 1.008-3.269 7.051.922 2.937-6.293-6.719-9.563h2.852l4.031-2.351-.164-5.032-2.265-1.929-3.106-1.594 13.086-13.176-3.855-7.89-8.059 2.609-2.512-4.695-8.98 3.101-2.934-4.527-9.988 5.191-3.359-4.949-11.321 5.371-4.871-4.187-9.14 5.281-3.36-2.852-8.808 6.453-11.829 29.204-10.488 4.531-40.015 18.289-2.356-1.68-2.766-1.008-1.421 1.18.918 1.336.25 1.68-5.79.422h-1.085c-1.817 0-3.653-.168-5.536-.524-1.843-.336-3.781-.922-5.625-1.68a51 51 0 0 1-5.703-2.933c-2.773-1.68-5.625-3.528-8.222-5.449.086-2.356.254-4.704.586-7.051.168-1.766.418-3.61.671-5.367.664-3.61 1.848-7.215 3.606-10.489a35.5 35.5 0 0 1 6.719-8.984c1.504-1.414 3.093-2.676 4.941-3.606 2.023-1.089 4.109-1.843 6.379-2.339a19 19 0 0 1 3.609-.344c.618 0 1.235.019 1.848.09 1.68.164 3.352.664 4.949 1.426 1.25.582 2.434 1.511 3.274 2.593.918 1.098 1.672 2.356 2.097 3.782.246 1.003.41 2.011.586 3.015.168 1.516.246 3.02.332 4.531a34 34 0 0 0 3.949-1.754l1.754-1.093c1.352-1.008 2.434-2.356 3.274-3.86 1.18-2.097 1.933-4.289 2.351-6.632.586-2.684.754-5.536.5-8.387a32.8 32.8 0 0 0-1.843-8.391c-.918-2.683-2.27-5.203-3.774-7.547-1.512-2.265-3.269-4.367-5.293-6.218-1.836-1.672-3.855-3.184-6.031-4.36-2.102-1.172-4.277-2.012-6.547-2.683-2.437-.625-4.937-.965-7.398-.965-.5 0-.996 0-1.496.039a32.5 32.5 0 0 0-9.395 1.68 36.1 36.1 0 0 0-9.562 4.695c-2.606 1.68-4.872 3.777-6.805 6.211-1.668 2.097-3.098 4.277-4.445 6.543a102 102 0 0 0-5.614 10.488l1.004-55.293c1.594 1.348 3.274 2.598 4.953 3.856 1.004.761 2.012 1.515 3.106 2.191 2.429 1.59 4.941 2.93 7.715 4.019 2.929 1.172 6.035 2.102 9.14 2.688 2.774.508 5.535.84 8.313.93h1.336c2.148 0 4.289-.176 6.379-.442l11.074-2.097 19.969 23.152 9.484 1.094.918-4.2 6.883 1.68 1.008-5.281 5.613 1.426 1.433-3.95 5.121 1.594 2.262-3.347 5.285 2.429 2.356-3.105 6.363 2.851 3.109-4.023 6.54 3.016 4.113-4.95-5.781-10.82 1.668-.762 1.093-4.187-.925-3.02-1.336-1.679 15.933-14.688-2.176-8.223-6.711 1.68-1.257-6.211-7.637 3.36-1.594-5.625-8.894 3.691-2.012-6.453-9.902 4.785-3.106-5.371-9.558 5.535-2.012-4.695-5.207 4.531-2.598-4.875-5.371 4.441-2.598-3.015-7.136 3.449-13.84 25.918-10.656 2.019a35 35 0 0 1-4.696.313 30 30 0 0 1-3.105-.148c-2.774-.25-5.457-.836-8.145-1.676-2.851-.918-5.613-2.27-8.047-4.028-2.683-1.754-5.039-3.941-7.136-6.375-1.504-1.843-3.02-3.855-4.446-5.793a158 158 0 0 1-5.285-7.964l-.086-54.457 7.051 4.699a31.6 31.6 0 0 0 6.211 2.937c2.258.84 4.519 1.43 6.875 1.848.84.168 1.758.254 2.598.332 1.765.168 3.527.254 5.371.344l16.023 19.043 9.067 1.343 1.753-4.617 5.293 1.594 1.172-3.945 6.875 2.097 1.184-4.355 6.711 2.258 1.68-4.114 5.789 3.782 1.425-4.282 4.61 2.602.586-4.113 6.465 2.351 2.097-5.879-5.789-10.652L445 180l.93-3.945-2.012-2.762 10.738-9.316-1.676-8.723-4.367 1.418-1.765-5.949-7.129 3.093-2.18-4.785-6.289 3.282-3.027-4.532-6.961 3.86-2.27-4.786-7.969 4.954-2.847-4.192-6.633 5.281-3.184-4.277-6.796 4.359-10.997 23.497c-1.425.086-2.851.164-4.355.164l-1.77-.164c-1.503-.254-3.015-.754-4.363-1.34-2.18-1.094-4.277-2.266-6.289-3.699a42 42 0 0 1-5.449-4.778c-1.516-1.68-2.942-3.523-4.11-5.539q-.762-1.261-1.261-2.516c-.84-1.757-1.59-3.527-2.356-5.375l-.496-25.332-11.246-8.386m1.09 447.301c-11.832 0-23.746-.922-35.488-2.77-11.746-1.93-23.243-4.617-34.567-8.305-11.246-3.691-22.234-8.222-32.804-13.593a239.6 239.6 0 0 1-30.372-18.625 227.6 227.6 0 0 1-27.019-23.075 228.6 228.6 0 0 1-23.07-27.015 239.4 239.4 0 0 1-18.621-30.367 232 232 0 0 1-13.594-32.809 246.4 246.4 0 0 1-8.309-34.566 228.5 228.5 0 0 1-2.765-35.489c0-11.918.921-23.746 2.765-35.492a246 246 0 0 1 8.309-34.562 231.6 231.6 0 0 1 13.594-32.809 240 240 0 0 1 18.621-30.363 228.4 228.4 0 0 1 23.07-27.024 229.6 229.6 0 0 1 27.019-23.074 241 241 0 0 1 30.372-18.621c10.57-5.371 21.558-9.902 32.804-13.598a224.6 224.6 0 0 1 34.567-8.301 229.3 229.3 0 0 1 35.488-2.769c11.824 0 23.738.926 35.488 2.769a227 227 0 0 1 34.571 8.301 239 239 0 0 1 32.89 13.598c10.481 5.457 20.637 11.668 30.281 18.621 9.563 6.973 18.625 14.688 27.012 23.074 8.402 8.391 16.113 17.453 23.078 27.024a239.4 239.4 0 0 1 18.621 30.363 232 232 0 0 1 13.594 32.809c3.613 11.32 6.469 22.902 8.305 34.562a227.6 227.6 0 0 1 2.769 35.492c0 11.914-.918 23.746-2.769 35.489-1.836 11.66-4.692 23.242-8.305 34.566a232 232 0 0 1-13.594 32.809 239 239 0 0 1-18.621 30.367c-6.965 9.566-14.676 18.625-23.078 27.015-8.387 8.395-17.449 16.11-27.012 23.075-9.644 6.964-19.8 13.168-30.281 18.625a238.4 238.4 0 0 1-32.89 13.593c-11.329 3.688-22.911 6.375-34.571 8.305a229 229 0 0 1-35.488 2.77m-.504-468.832-9.394.503-9.399.5-9.48 1.094-9.399 1.008-9.48 1.602-8.891 2.085-9.398 2.61-8.895 2.597-8.891 3.196-8.894 3.601-8.977 3.692-8.304 4.187-8.391 4.199-8.476 4.7-7.801 5.285-7.887 5.789-9.898 7.305-9.481 8.3-9.398 8.985-8.895 8.886-7.887 9.903-7.882 9.98-5.204 7.891-5.285 7.883-4.699 7.808-4.695 8.391-4.199 8.887-3.692 8.386-3.105 8.899-3.102 8.894-3.187 9.485-2.094 8.886-2.102 9.395-1.597 9.48-1.508 9.399-1.09 9.48-.504 9.395v18.883l.504 9.394 1.09 9.481 1.508 9.398 1.597 9.399 2.102 9.48 2.094 8.891 3.187 8.89 3.102 9.485 3.105 8.304 3.692 8.981 4.199 8.301 4.695 8.394 4.699 8.387 5.285 7.887 5.204 7.886 7.882 9.903 7.887 9.984 8.895 8.891 9.398 8.89 9.481 7.887 9.898 7.805 7.887 5.789 7.801 4.699 8.476 4.785 8.391 4.695 8.304 4.196 8.977 3.609 8.894 3.692 8.891 3.187 8.895 2.598 9.398 2.601 8.891 1.598 9.48 2.094 9.399 1.007 9.48 1.094 9.399.5h19.378l9.485-.5 9.394-1.094 9.395-1.007 8.894-2.094 9.485-1.598 9.394-2.601 8.899-2.598 8.972-3.187 8.887-3.692 8.899-3.609 8.386-4.196 8.391-4.695 7.801-4.785 8.386-4.699 7.895-5.789 9.898-7.805 9.485-7.887 9.394-8.89 8.391-8.891 8.387-9.984 7.89-9.903 5.196-7.886 5.293-7.887 4.699-8.387 4.695-8.394 3.691-8.301 4.192-8.981 3.101-8.304 3.196-9.485 2.597-8.89 2.598-8.891 2.102-9.48 1.597-9.399 1.504-9.398.586-9.481.512-9.394.496-9.395-.496-9.488-.512-9.395-.586-9.48-1.504-9.399-1.597-9.48-2.102-9.395-2.598-8.886-2.597-9.485-3.196-8.894-3.101-8.899-4.192-8.386-3.691-8.887-4.695-8.391-4.699-7.808-5.293-7.883-5.196-7.891-7.89-9.98-8.387-9.903-8.391-8.886-9.394-8.985-9.485-8.3-9.898-7.305-7.895-5.789-8.386-5.285-7.801-4.7-8.391-4.199-8.386-4.187-8.899-3.692-8.887-3.601-8.972-3.196-8.899-2.597-9.394-2.61-9.485-2.085-8.894-1.602-9.395-1.008-9.394-1.094-9.485-.5zM235.508 57.46l-5.199 2.012 11.91 29.699-10.071 4.031 1.344 3.274.672-.332c1.52-.664 3.121-1 4.699-1 3.2 0 6.313 1.347 8.559 3.925l.332.586 4.027-1.675zm197.715 38.137c-.489 0-.989-.051-1.477-.13-1.094-.253-2.683-.585-2.683-.585-.918-.34-1.758-.672-2.598-1.184l-1.094-.75c-2.683-2.097-3.613-5.625-2.266-8.64 1.536-2.446 4.114-3.848 6.856-3.848.84 0 1.687.125 2.539.406l1.184.332 3.765 2.192c3.02 1.922 3.86 5.78 2.016 8.718l-.586.84c-1.445 1.73-3.457 2.649-5.656 2.649m7.937-17.043c-.762 0-1.543-.078-2.281-.203-1.262-.168-2.434-.422-3.606-.84-.839-.344-1.765-.754-2.519-1.262-3.945-2.355-5.703-6.707-4.609-11.074 1.164-3.496 4.328-5.84 7.988-5.84.293 0 .597 0 .898.05l1.426.165c1.094.078 2.188.422 3.191.754 1.262.418 2.344 1.004 3.352 1.59l1.934 1.601c3.347 3.692 3.269 9.309-.254 12.832l-2.102 1.426c-.84.422-1.668.586-2.598.762-.269 0-.542.039-.82.039m-6.465-23.887c-4.695 0-8.855 2.715-11.004 7.078-2.429 5.207-.918 11.242 3.692 14.602l.84.672h-.672a9 9 0 0 0-.852-.047c-3.594 0-6.726 1.972-8.215 5.156-1.421 2.52-1.589 5.207-.664 7.726 1.25 3.348 3.528 5.868 6.543 7.458 3.215 1.796 6.438 2.726 9.953 2.726.43 0 .86 0 1.289-.039 3.438-.09 6.375-1.848 8.133-4.871l.84-1.684c1.352-3.933.258-8.047-2.93-10.73l-.757-.672.757.164c.696.129 1.387.195 2.063.195 2.832 0 5.422-1.125 7.246-3.215 3.945-3.867 4.949-9.402 2.598-14.351l-.332-.676c-4.192-5.945-10.313-9.305-17.703-9.473-.278 0-.547-.019-.825-.019m-61.843-13.809-3.196 31.797-10.73-1.094-.418 3.528.918.086s2.262.586 3.269.84c3.692 1.086 6.297 3.933 6.961 7.714l.09.84 4.277.332 4.368-43.457zm-69.629 40.535c-3.035 0-6.051-1.328-8.063-3.875-.758-.917-1.258-1.843-1.68-2.93l-.5-2.187-.085-.168-.082-.84c-.508-4.695 2.429-8.894 6.792-10.234a10.2 10.2 0 0 1 3.692-.68c3.476 0 6.805 1.739 8.723 4.707 3.023 4.532 1.929 10.653-2.348 13.922a10.2 10.2 0 0 1-6.449 2.285m-1.52-40.945c-1.445 0-2.91.215-4.359.664-3.36.84-6.211 2.676-8.477 5.535-1.762 2.344-2.683 5.121-2.519 8.301v.344l5.371-.762v-.246c.082-2.86 1.344-5.293 3.441-6.883 1.836-1.496 4.012-2.246 6.18-2.246 1.492 0 2.992.352 4.387 1.074 4.285 3.184 6.714 7.547 7.218 12.832l.168 1.094-.59-.422c-2.878-2.261-6.195-3.406-9.703-3.406-1.3 0-2.629.149-3.972.469-1.172.344-2.434.84-3.52 1.426a14.1 14.1 0 0 0-4.531 3.78c-1.172 1.59-2.102 3.27-2.516 5.114a15.8 15.8 0 0 0-.336 5.957c.336 1.762.84 3.442 1.68 5.031 2.094 4.114 5.785 6.797 10.316 7.47 1.028.167 2.032.237 3.024.237 2.699 0 5.234-.597 7.633-1.828 3.605-1.765 6.039-4.53 7.297-8.222 1.507-5.868 1.597-11.243.25-17.285l-.082-.333c-.754-5.285-2.766-9.57-6.29-13.593-2.781-2.657-6.347-4.102-10.07-4.102m37.754 624.367-12.5-.503-12.582-.586-12.59-1.008-13.09-2.098-12.582-2.094-12.082-2.605-12.586-3.188-11.996-3.691-12.082-4.113-11.996-4.778-11.578-5.207-11.492-5.785-11.578-5.793-10.993-6.207-10.406-7.379-11.07-7.301-13.094-9.984-13.086-10.992-11.996-12.078L98.5 557.422l-10.988-13.086-10.489-13.176-7.3-10.984-6.797-10.488-6.875-10.993-5.707-11.492-5.793-11.496-4.7-11.582-4.695-11.488-4.195-12.086-3.692-12.5-3.69-12.078-2.602-12.59-2.094-12.582-1.598-12.582-1.508-12.59-.586-13.086-.507-12.5.507-12.672.586-13.086 1.508-12.5 1.598-12.586 2.094-12.59 2.601-12.578 3.691-12 3.692-12.668 4.195-12 4.696-11.496 4.699-12.078 5.793-11.492 5.707-10.988 6.875-11.075 6.797-10.996 7.3-10.488 9.985-13.086L98.5 122.578l11.578-12.59 11.996-11.492 13.086-10.984 13.094-9.993 11.07-7.878 10.406-6.797 10.993-6.301 11.578-6.29 11.492-5.194 11.578-5.203 11.996-4.79 12.082-4.199 11.996-3.601 12.586-3.184 12.082-2.605 12.582-2.598 13.09-1.594 12.59-1.015 12.582-1.082h25.594l12.578 1.082 12.586 1.015 12.59 1.594 12.578 2.598 12.586 2.605 12.59 3.184 11.992 3.601 12.09 4.2 11.992 4.789 11.582 5.203 11.492 5.195 11.074 6.289 10.907 6.3 11.078 6.798 10.476 7.879 13.594 9.992 12.59 10.984 12.586 11.492 11.496 12.59 10.984 13.086 10.488 13.086 7.305 10.488 6.875 10.996 6.289 11.075 6.297 10.988 5.195 11.492 5.207 12.078 4.786 11.496 4.113 12 3.687 12.668 3.188 12 3.101 12.578 2.102 12.59 1.594 12.586 1.511 12.5.586 13.086v25.172l-.586 13.086-1.511 12.59-1.594 12.582-2.102 12.582-3.101 12.59-3.188 12.078-3.687 12.5-4.113 12.086-4.786 11.488-5.207 11.582-5.195 11.496-6.297 11.492-6.289 10.993-6.875 10.488-7.305 10.984-10.488 13.176-10.984 13.086-11.496 12.004-12.586 12.078-12.59 10.992-13.594 9.984-10.476 7.301-11.078 7.379-10.907 6.207-11.074 5.793-11.492 5.785-11.582 5.207-11.992 4.778-12.09 4.113-11.992 3.691-12.59 3.188-12.586 2.605-12.578 2.094-12.59 2.098-12.586 1.008-12.578.586zm0-664.816-13.09.508-13.59.5-13.086 1.094-13.089 2.086-13.086 2.101-13.09 3.106-13.086 3.195-12.59 4.187-12.582 4.114-12.59 4.785-12.078 5.789-11.996 5.703-12.082 6.289-11.496 6.797-10.988 6.887-11.583 7.8-13.589 10.989-13.676 11.582-12.5 12.078-12.582 13.086L75.43 126.27 64.94 139.863l-7.8 10.989-7.391 11.582-6.79 11.484-6.296 11.504-5.703 12.078-5.29 12.578-4.694 12-4.696 12.59-3.691 13.164-3.695 12.512-2.602 13.086-2.598 13.086-1.593 13.679-1.008 13.086L0 326.367v26.762l1.094 13.59 1.008 13.09 1.593 13.089 2.598 13.086 2.602 13.086 3.695 13.094 3.691 12.582 4.696 12.59 4.695 12.582 5.289 12.586L36.664 494l6.297 12.078 6.789 11.496 7.39 10.989 7.801 11.578L75.43 553.73l11.578 13.594 12.582 13.09 12.5 12.082 13.676 11.578 13.589 10.403 11.583 7.886 10.988 7.301 11.496 6.879 12.082 6.207 11.996 5.789 12.078 5.285 12.59 5.199 12.582 4.2 12.59 3.691 13.086 3.606 13.09 2.687 13.086 2.598 13.089 1.597 13.086 1.594 13.59.5 13.09.504 13.68-.504 13.086-.5 13.59-1.594 13.175-1.597 12.996-2.598 13.176-2.687 13.086-3.606 12.5-3.691 12.59-4.2 12.586-5.199 12.082-5.285 12.078-5.789 11.492-6.207 11.496-6.879 11.493-7.301 11.078-7.886 14.097-10.403 13.672-11.578 12.5-12.082 12.59-13.09 11.57-13.594 10.493-13.589 7.8-11.578 7.383-10.989 6.797-11.496L642.844 494l5.703-11.496 5.281-12.586 4.695-12.582 4.7-12.59 3.691-12.582 3.191-13.094 3.11-13.086 2.09-13.086 2.097-13.089 1.004-13.09 1.098-13.59v-26.762l-1.098-13.086-1.004-13.086-2.097-13.679-2.09-13.086-3.11-13.086-3.191-12.512-3.691-13.164-4.7-12.59-4.695-12-5.281-12.578-5.703-12.078-6.301-11.504-6.797-11.484-7.383-11.582-7.8-10.989-10.493-13.593-11.57-13.594-12.59-13.086-12.5-12.078-13.672-11.582-14.097-10.989-11.078-7.8-11.493-6.887-11.496-6.797-11.492-6.289-12.078-5.703-12.082-5.79-12.586-4.784-12.59-4.114-12.5-4.187-13.086-3.195-13.176-3.106-12.996-2.101-13.175-2.086-13.59-1.094-13.086-.5z" style="fill:#267f39;fill-opacity:1;fill-rule:nonzero;stroke:none" transform="matrix(.13333 0 0 -.13333 0 90.667)"/></svg>