<svg xmlns="http://www.w3.org/2000/svg" viewBox="0 0 280 345.55"><path fill="#005cb9" d="M270.79 215.51c-.67-.293-9.168-4.192-18-19.3-8.567-14.66-14.647-34.687-18.07-59.55l-1.328-9.237a95.94 95.94 0 0 0-23.759-99.045 99.604 99.604 0 0 0-139.252 0 95.93 95.93 0 0 0-24.01 98.793l-1.314 9.504c-3.424 24.862-9.503 44.889-18.07 59.55C18.168 211.331 9.67 215.216 9 215.51l-9 2.865 139.895 127.177 132.768-120.637 7.337-6.443z"/><path fill="#ffce00" d="M247.982 199.033c-7.295-12.48-14.674-31.836-18.783-61.604 0 0-23.759 55.078-89.304 56.49-65.601-1.398-89.304-56.49-89.304-56.49-4.094 29.768-11.487 49.124-18.783 61.604-10.537 18.043-20.963 21.718-20.963 21.718l33.304 30.257 95.69 86.97 95.69-86.97 33.346-30.2s-10.327-3.746-20.893-21.775m-34.939-29.921a112.5 112.5 0 0 0 13.165-15.597c3.997 20.18 9.63 34.939 15.373 45.518h-93.44a104.52 104.52 0 0 0 64.93-29.935zm-159.489-15.61a112.5 112.5 0 0 0 13.165 15.596 104.52 104.52 0 0 0 64.973 29.921H38.139c5.8-10.635 11.418-25.323 15.415-45.518m86.327 176.93-87.375-79.424h174.778z"/><path fill="#ffce00" fill-rule="evenodd" d="M226.208 192.34h-.755c-.656 0-.796-.602-.796-3.718 0-2.488 0-3.02.307-3.355.308-.335 1.02-.419 1.02-1.09 0-.377-.21-.796-1.495-.796a13.5 13.5 0 0 0-5.394 1.188c-.88.447-1.02.88-1.02 1.118a.727.727 0 0 0 .768.699h.657c.475 0 .6.14.67.363a4.4 4.4 0 0 1 .085 1.118 23 23 0 0 1-.168 3.801c-.112.56-.308.7-.713.7h-.699a.783.783 0 0 0-.852.74c0 .293.168.685 1.132.922a14 14 0 0 0 3.648.308c4.192 0 4.472-.811 4.472-1.244a.783.783 0 0 0-.867-.755M215.475 190.355a.64.64 0 0 0-.391.153 6 6 0 0 1-.867.727 1.6 1.6 0 0 1-.67.196.56.56 0 0 1-.63-.503c0-.294.364-.615.895-1.146a4.82 4.82 0 0 0 1.9-3.187c0-1.565-1.215-3.074-4.066-3.074a7.44 7.44 0 0 0-4.347 1.397c-.978.783-1.118 1.3-1.118 1.72a1.4 1.4 0 0 0 1.258 1.257c.433 0 .629-.238.964-.517a1.55 1.55 0 0 1 1.076-.475.84.84 0 0 1 .88.824c0 .322-.083 1.3-2.403 3.746-1.397 1.481-1.789 1.69-1.789 2.11s.196.6.937.6h6.023a.8.8 0 0 1 .685.35c.335.406.475.447.74.447 1.16 0 1.887-2.152 1.887-3.144s-.587-1.481-.964-1.481M67.865 183.241a4.794 4.794 0 0 0-4.975 4.472 3.606 3.606 0 0 0 3.606 3.746c.265 0 .53-.084.81-.084s.196 0 .196.21a3.06 3.06 0 0 1-.699 1.579 5 5 0 0 1-.489.475c-.196.168-.391.28-.391.475 0 .629 1.775 1.076 2.348 1.076a.81.81 0 0 0 .628-.237 13.7 13.7 0 0 0 1.747-2.097 9.4 9.4 0 0 0 1.566-4.975 4.193 4.193 0 0 0-4.347-4.64m.182 5.59c-.643 0-1.258-1.272-1.258-1.942 0-.671.266-.713.531-.713.266 0 .573.154.937.922a2.9 2.9 0 0 1 .265 1.09c-.042.476-.21.7-.461.7zM61.255 192.311H60.5c-.67 0-.796-.6-.796-3.717 0-2.488 0-3.019.307-3.354.307-.336 1.02-.42 1.02-1.09 0-.378-.21-.797-1.481-.797a13.4 13.4 0 0 0-5.395 1.188c-.894.447-1.034.88-1.034 1.118a.727.727 0 0 0 .769.699h.657c.46 0 .6.14.684.363a4.5 4.5 0 0 1 .084 1.118 21 21 0 0 1-.181 3.801c-.098.56-.308.7-.7.7h-.712a.77.77 0 0 0-.839.74c0 .293.168.685 1.118.922a14.1 14.1 0 0 0 3.662.308c4.193 0 4.472-.81 4.472-1.244a.797.797 0 0 0-.88-.755"/><path fill="#005cb9" fill-rule="evenodd" d="M233.266 204.568a26.3 26.3 0 0 0-7.24-.825c-8.12-.07-9.35 2.586-9.35 4.193a3.3 3.3 0 0 0 1.594 2.795c.685.727.81 1.02.81 1.495 0 .727-.237 1.272-1.523 3.997-3.088 6.89-3.801 7.296-4.416 7.296s-.95-.601-2.306-3.215c-.964-1.887-1.188-2.362-2.488-5.227a6.7 6.7 0 0 1-.88-2.641c0-.964.573-1.314 1.23-2.11 1.02-.895 1.188-1.398 1.188-2.195 0-1.271-.81-2.71-3.159-3.256a39.7 39.7 0 0 0-9.28-.894c-7.98 0-10.16.894-10.83 1.244a3.79 3.79 0 0 0-2.474 3.382 2.95 2.95 0 0 0 1.397 2.515c.95.63 2.348.406 3.229 1.314.335.28.573.531 1.663 2.711l12.368 25.422c2.18 4.57 4.598 5.422 6.666 5.227 2.069-.196 4.319-.895 6.625-5.52l12.368-25.744c1.02-2.18 1.565-2.585 2.138-2.865 1.16-.67 2.474-.545 3.564-1.216a3.38 3.38 0 0 0 1.635-2.71 3.49 3.49 0 0 0-2.53-3.173M185.441 239.507c-.754-.42-1.705-.476-2.347-1.146-.196-.154-.378-.35-.643-1.594-.266-1.243-.378-2.515-.671-3.801-1.537-5.59-4.193-6.666-7.31-7.854-1.02-.406-1.09-.671-1.09-.895a.81.81 0 0 1 .434-.74c.377-.252.782-.406 1.09-.601a9.52 9.52 0 0 0 4.961-8.26c0-5.478-5.1-10.677-14.31-10.523-3.662 0-7.268.181-10.916.181-1.83 0-3.158 0-6.149-.181h-3.633c-5.27 0-6.29 1.76-6.29 3.312 0 .824.266 1.565 1.733 2.641s1.915 1.188 2.348 4.193a72 72 0 0 1 .378 10.593c.21 7.882-.14 11.712-1.02 13.11-.881 1.397-3.299 1.858-3.299 4.024 0 3.578 6.415 3.955 11.25 3.955 7.603 0 9.783-.852 10.16-1.076a3.13 3.13 0 0 0 1.901-2.655c0-2.194-2.305-2.39-3.256-3.76-.098-.251-.685-.726-.615-6.666-.195-3.256.517-3.382 1.566-3.382a4.2 4.2 0 0 1 3.326 1.761 11.2 11.2 0 0 1 1.495 3.731 66 66 0 0 0 1.9 6.695c1.734 3.857 4.082 5.52 10.3 5.352a19.6 19.6 0 0 0 8.12-1.397 3.26 3.26 0 0 0 1.971-2.711 2.29 2.29 0 0 0-1.384-2.306m-26.4-17.805a1.17 1.17 0 0 1-1.23-.671 21.6 21.6 0 0 1-.097-4.444c0-4.948.307-5.52 1.9-5.52 2.418 0 4.459 1.662 4.459 5.045 0 4.094-2.04 5.59-5.031 5.59M129.707 231.33a3.44 3.44 0 0 0-2.683 1.398c-.615.7-.95 1.496-1.496 2.209-1.97 2.795-4.192 4.025-8.665 4.025h-1.397c-3.871 0-4.626-.098-5.13-.546 0 0-.95-.964-.88-6.065 0-2.935.308-3.41.434-3.634.167-.447.88-.922 2.473-.922a2.502 2.502 0 0 1 2.795 2.488c0 1.858.238 2.264.685 2.795a3.24 3.24 0 0 0 2.236 1.09c1.524 0 4.193-.797 4.04-9.601 0-8.525-2.726-9.406-4.193-9.406a2.8 2.8 0 0 0-2.209 1.02c-.88 1.049-.447 2.39-.726 3.564-.308.923-.95 1.635-2.795 1.635-2.921 0-2.795-1.397-2.795-5.045 0-3.955.642-4.304.81-4.486a3.1 3.1 0 0 1 1.286-.475 24 24 0 0 1 3.675-.224c4.193 0 6.415 1.118 7.953 2.795a12.3 12.3 0 0 0 1.76 2.39 3.8 3.8 0 0 0 2.348.895c1.705 0 3.676-1.244 3.676-5.325 0-5.59-3.746-7.98-4.696-8.036s-1.523.224-2.348.28a17 17 0 0 1-2.795.181l-24.122.14h-2.11a7.2 7.2 0 0 0-3.606.531 3.08 3.08 0 0 0-1.789 2.474c0 2.683 3.2 2.515 4.389 4.192.28.406 1.397 1.048 1.397 13.305.196 10.747-.615 13.137-1.998 14.101-.336.252-3.564 1.09-3.564 3.536 0 1.398 1.16 3.13 4.822 3.13l24.303-.167c1.593 0 3.774.126 5.465.307.81.098 1.705.35 2.613.42s1.97-.252 3.536-2.712a17.3 17.3 0 0 0 2.795-7.98c.014-3.06-1.72-4.276-3.494-4.276M81.673 205.113c-.95-.42-3.941-1.118-10.09-1.118-6.695 0-9.112.768-9.783 1.244a4.11 4.11 0 0 0-2.921 3.605c0 1.398.643 2.39 2.92 3.13 1.664.224 1.971.476 2.14 2.586a101 101 0 0 1 .488 12.578c0 1.02.168 2.04.168 3.13v1.119c0 5.967-2.474 7.267-4.374 7.267-1.398 0-1.831-.67-1.831-1.216a14 14 0 0 0 .433-1.565 4.9 4.9 0 0 0 .308-1.789c0-3.48-3.02-6.345-7.687-6.415a6.876 6.876 0 0 0-7.407 7.212c0 4.654 4.822 11.18 18.014 11.264 8.763-.154 13.221-3.13 15.374-6.485 1.02-1.565 2.138-4.192 2.138-10.44-.14-14.576.377-15.568.573-16.043.195-.476.433-.895 2.138-1.398a3.186 3.186 0 0 0 2.683-3.06c-.056-1.244-.95-2.74-3.284-3.606"/><path fill="#ffce00" fill-rule="evenodd" d="M142.872 180.04c-3.326.098-6.638.224-10.02.28-3.075 0-8.05.573-7.366 3.13 1.146 4.193 17.484 2.18 17.484 2.18 13.794-1.928 28.286-4.192 41.116-10.3a27.6 27.6 0 0 0 6.694-4.457l2.795-2.586s-14.409 5.926-19.412 7.31a178 178 0 0 1-31.291 4.444M141.754 143.564a49 49 0 0 0 3.941-9.167 104.5 104.5 0 0 0 6.024-25.156 9.1 9.1 0 0 0-1.286-4.193 33.5 33.5 0 0 0-2.921-3.955 7.07 7.07 0 0 0-5.339-.978 6.64 6.64 0 0 0-2.92 1.062 92.5 92.5 0 0 0-17.861 17.749c-8.763 11.18-15.374 23.758-21.3 36.671l-4.96 13.738c-.28 1.803-1.23 4.375.573 5.27l12.48 5.98c2.473.783 4.556 0 7.379-1.09 3.94-1.397 6.988-5.506 9.517-9.042 2.236-3.088 4.305-6.26 6.792-9.182 3.69-5.674 6.345-11.935 9.88-17.707m-10.552 5.968c-2.473 2.138-6.862.573-9.168 3.089-1.397 1.397-.433 3.424.168 5.129a9.14 9.14 0 0 1-.685 7.924c-1.97 3.27-6.01 4.724-9.783 4.961a7.27 7.27 0 0 0-2.04 3.2 2.6 2.6 0 0 1-.713 1.02c-.852.616-1.872-.516-2.04-1.397-.336-1.9.95-3.773.615-5.744a7 7 0 0 0-.895-2.138c-1.397-3.089-1.397-6.988.783-9.461 1.118-1.286 2.92-2.684 7.645-3.774l2.236-.545a2.8 2.8 0 0 0 .922-1.286c.433-1.09-.405-2.208-.922-3.27-1.635-3.508-2.069-7.98.573-10.705s6.456-3.257 10.062-3.424c.238-.545.783-.783 1.118-1.286.74-1.048.168-2.418-.168-3.606a12.27 12.27 0 0 1-.517-6.89 8.39 8.39 0 0 1 5.297-5.129l1.9-.517a35 35 0 0 0 4.193-1.216l2.6-4.067c.517 0 1.118-.335 1.635 0 .517.336.95 1.119.615 1.733l-2.348 3.676c-.335.433 1.803 3.019 1.97 6.01a12.6 12.6 0 0 1-1.523 6.862 9.78 9.78 0 0 1-8.497 4.192c-1.048 1.09-2.418 2.138-2.474 3.774-.097.922.573 1.705 1.02 2.557 1.622 3.256 1.272 7.91-1.579 10.328M230.4 89.59a75.2 75.2 0 0 0-3.66-18.321c-.28-.335-.28-.922-.783-1.02-.853-.168-1.398.517-2.139 1.02a5.7 5.7 0 0 0-2.236 3.089 109 109 0 0 1-1.97 9.21c-2.069 7.882-4.458 15.764-8.497 22.905-4.822 8.498-11.516 15.807-18.169 22.836-.852.783-1.635 1.566-2.473 2.32-2.921 2.586-6.36 4.556-9.448 6.89a69 69 0 0 1-8.497 4.011c-5.436 1.635-16.547 4.934-21.718 6.695a7.9 7.9 0 0 0-2.515 1.565 58.3 58.3 0 0 0-9.616 16.044 7.9 7.9 0 0 0-.908 2.418c0 .433-.084 1.3-.098 1.732a3.42 3.42 0 0 0 1.733 2.474c3.159 1.705 7.365.168 9.783-.168 1.635-.167 4.891-.67 7.1-1.02 11.767-1.998 23.45-5.436 33.54-11.697 5.34-3.257 22.264-18.169 29.629-30.146l5.339-8.762 1.397-2.32a34.9 34.9 0 0 0 4.04-13.724 120 120 0 0 0 .167-16.03M103.28 131.532a10.6 10.6 0 0 1 .95-2.32l2.473-4.193c8.595-14.577 22.361-26.554 26.777-32.018a6.3 6.3 0 0 0-.405-4.961c-1.803-4.277-6.624-6.43-11.013-8.162a11.56 11.56 0 0 0-7.267.265c-9.21 3.942-16.575 10.915-23.115 18.364-9.783 11-15.905 24.737-19.748 38.908-1.397 4.962-3.186 9.853-2.585 15.024a3.2 3.2 0 0 0 .447 1.397l5.31 6.876c2.237 2.418 4.892 4.277 7.31 6.527a4.5 4.5 0 0 0 1.803 1.02 3.005 3.005 0 0 0 3.829-1.69 32 32 0 0 0 1.97-5.34c.504-1.397.783-2.99 1.286-4.555a134 134 0 0 1 6.988-16.044c1.551-3.089 3.634-5.912 4.99-9.098M107.164 72.429c.098-1.97-2.32-3.033-4.108-3.871A45 45 0 0 0 88.2 64.687a28.4 28.4 0 0 0-8.497 0A50.2 50.2 0 0 0 64.595 80.59c-6.694 11.865-10.3 19.132-12.382 29.81-.741 4.01-1.398 8.217-.406 12.27.406 1.635 1.398 2.99 1.86 4.626l.684 2.236a41 41 0 0 0 4.891 8.944 4.5 4.5 0 0 0 1.118.853c.965.447 1.901-.447 2.516-1.398s.405-2.473.922-3.703a23 23 0 0 0 1.398-4.458c.95-3.089 2.138-6.192 3.368-9.182A123 123 0 0 1 79.367 99.96c7.211-11.055 17.26-19.818 27.797-27.532"/><path fill="#ffce00" fill-rule="evenodd" d="M165.96 108.025c-.573.782-1.58 1.844-2.46 2.935a27.18 27.18 0 0 0-6.387 17.832 13.4 13.4 0 0 0 .685 4.193c.978 1.481 4.193 2.655 6.792 2.138a36.2 36.2 0 0 0 9.182-3.256c8.832-4.388 16.142-11.418 22.081-19.342 8.162-10.817 14.507-21.9 17.4-35.107.88-3.773 2.236-9.182 2.795-12.955a51 51 0 0 0 .098-11.418 16 16 0 0 0-3.019-7.743c-1.803-2.585-3.676-5.408-6.527-6.862-.74-.447-1.858-.852-2.375 0-2.921 8.93-3.369 18.462-6.122 27.49-3.088 10.02-7.477 19.915-14.758 27.462-5.255 5.45-12.732 8.553-17.385 14.633M68.662 48.838l5.227 1.286c7.98 2.32 21.368 3.158 44.82 13.57a92.1 92.1 0 0 1 23.758 16.044l17.26 16.086c2.655 1.523 5.743-.335 8.231-2.082 2.921-1.97 6.177-3.774 7.91-6.862 1.258-2.418-1.286-5.06-3.368-6.862-2.418-2.139-4.626-4.277-6.988-6.457a227 227 0 0 0-24.569-18.28 98 98 0 0 0-13.29-6.862l-12.984-5.339c-9.447-2.99-18.168-5.911-28.063-5.129-2.417.168-6.023.168-8.385.406-4.626.545-9.783 2.068-11.586 6.358a3.075 3.075 0 0 0 2.027 4.123M52.199 84.266c7.574-12.578 11.865-16.421 18.727-23.758-3.27-1.286-6.862-2.474-10.37-1.635-2.92.684-6.01 4.108-6.988 6.987l-1.09 2.614c-1.914 4.458-3.606 11.767-3.27 15.093.098.783.28 1.803 1.118 1.901s.964.433 1.873-1.202M85.349 27.148l32.143 5.59c15.905 3.942 30.146 12.956 43.199 22.836l20.488 17.093c1.02.614 2.474.712 2.99-.406 2.139-4.654 5.228-9.042 5.59-14.171a5.37 5.37 0 0 0-1.83-2.92c-13.794-11.53-29.097-21.383-45.91-27.728-15.233-5.744-32.045-8.386-48.02-4.892-2.795.615-5.841.783-8.05 2.586l-.782.573c-.266.419-.503 1.37.182 1.44M174.275 31.09c3.368 2.138 6.624 4.485 9.783 6.861 2.138 1.733 3.871 3.983 6.415 5.06a2.08 2.08 0 0 0 2.795-.574 20.4 20.4 0 0 0 1.397-13.332 6.7 6.7 0 0 0-.95-2.795c-4.193-5.772-11.418-8.497-18.014-11.18a96.95 96.95 0 0 0-47.867-6.751 14.86 14.86 0 0 0-6.08 2.138s15.178 1.398 40.782 13.724c3.06 1.454 11.739 6.848 11.739 6.848"/></svg>