<svg xmlns="http://www.w3.org/2000/svg" viewBox="1.5 1.5 232.5 230.41"><path fill="#0a2375" d="M117.07 2.17c-13.994 13.751-32.5 21.323-52.113 21.323-12.057 0-24.036-2.956-34.64-8.55l-.714-.378L2.986 48.117l.717.608C20.147 62.695 29.58 83.067 29.58 104.62c0 22.37-10.028 43.238-27.515 57.244l-.566.452.27.67c8.495 21.104 29.524 31.589 39.455 34.183 7.239 1.893 13.585 2.956 19.722 3.988l9.197 1.626c19.003 3.703 34.327 12.932 46.856 28.217l.75.915.75-.915c12.529-15.285 27.856-24.514 46.856-28.217l9.197-1.626c6.137-1.032 12.483-2.095 19.722-3.988 9.933-2.594 30.96-13.08 39.455-34.182l.27-.671-.563-.452c-17.488-14.006-27.518-34.873-27.518-57.244 0-21.552 9.43-41.924 25.878-55.894l.717-.608-26.617-33.552-.714.378c-10.604 5.594-22.583 8.55-34.64 8.55-19.61 0-38.119-7.572-52.114-21.322l-.679-.671zm0 0"/><path fill="#ffd938" d="M117.75 4.192c14.276 13.696 32.98 21.242 52.793 21.242 12.1 0 24.113-2.922 34.817-8.419.912 1.151 23.416 29.516 24.482 30.858-16.44 14.318-25.864 34.938-25.864 56.746 0 22.712 10.081 43.9 27.666 58.27-8.373 19.958-28.356 29.92-37.858 32.4-7.156 1.868-13.46 2.928-19.554 3.951l-9.248 1.637c-19.094 3.72-34.544 12.924-47.234 28.044-12.69-15.12-28.14-24.323-47.234-28.044l-9.248-1.637c-6.094-1.023-12.395-2.083-19.551-3.95-9.505-2.481-29.488-12.443-37.86-32.4 17.584-14.374 27.665-35.56 27.665-58.27 0-21.809-9.425-42.429-25.864-56.747 1.063-1.342 23.567-29.707 24.48-30.858a76.5 76.5 0 0 0 34.819 8.419c19.813 0 38.517-7.546 52.793-21.242"/><path fill="#0a2375" d="M202.253 27.463a85.3 85.3 0 0 1-19.56 5.3l-.253.038L13.98 164.79l.46.741c8.257 13.225 22.095 19.225 26.143 20.748l.511.193L218.82 47.222 202.927 27.19zm0 0"/><path fill="#fff" d="m202.296 29.518 13.787 17.38c-1.52 1.19-174.46 136.69-175.321 137.37-4.329-1.697-16.516-7.316-24.187-19.043 1.407-1.1 166.292-130.293 166.67-130.588a87.3 87.3 0 0 0 19.05-5.119"/><path fill="#0a2375" d="M194.775 104.62a84.3 84.3 0 0 1 9.976-39.81L48.268 187.416c5.039 1.151 9.68 1.936 14.526 2.748l9.481 1.68c17.824 3.473 32.793 11.21 45.475 23.525 12.682-12.315 27.651-20.052 45.475-23.525l9.484-1.68c6.164-1.037 11.99-2.015 18.75-3.78 5.664-1.478 20.42-7.975 28.776-21.367-16.26-15.848-25.46-37.426-25.46-60.399M170.543 34.637c-19.364 0-37.784-6.438-52.793-18.264-15.01 11.826-33.427 18.264-52.793 18.264-11 0-21.93-2.175-32.074-6.273-4.638 5.844-9.658 12.173-14.836 18.696a84.3 84.3 0 0 1 22.678 57.56c0 14.574-3.71 28.586-10.568 40.932L171.737 34.62c-.398.008-.793.017-1.194.017"/><path fill="#eb141e" d="M194.014 54.052c-.435.451-1.313.804-2.13.449-1.35-.742-2.813-2.1-2.813-3.789 0-.972.37-1.495.99-1.788 1.596-.565 3.137.591 3.99 1.978.605 1.055.727 2.257-.037 3.15m2.825-7.745c-1.01-.893-2.456-1.754-4.198-1.376-2.447.341-4.454 2.194-5.568 4.4-1.455-1.387-2.728-3.19-2.2-5.577.142-.622 1.077-1.907 2.382-1.79 1.017.12 1.398 1.22 1.21 2.194 1.166-.046 2.24-.318 2.985-1.424.375-.625.284-1.7-.009-2.385-.477-.835-1.395-1.446-2.412-1.38-3.005.403-6.276 2.739-7.137 5.792-1.006 2.95-.023 6.04 1.626 8.378 1.94 2.669 4.789 4.798 8.378 4.349 2.561-.44 4.846-2.59 6.142-5 .921-1.901.404-4.61-1.2-6.181M176.748 57.934c-.677.944-2.024.81-2.774.406-1.043-.62-1.896-1.674-2.212-2.774-.281-1.031.14-2.18 1.194-2.597 1.703-.339 2.908.943 3.783 2.185.557.813.645 1.893.009 2.78m5.567-4.002c-1.83-2.262-4.39-4.238-7.585-3.959-2.715.344-5.295 2.456-6.56 4.798-.958 1.81-.608 4.087.435 5.579 1.02 1.45 2.876 2.296 4.385 2.296 2.143 0 5.224-1.998 6.148-4.513.585.58 1.492 1.546 2 2.981.367 1.166.603 2.658-.775 3.78-.535.438-1.254.776-1.99.401-.668-.295-.93-1.347-1.003-1.782-.19-.023-.688.054-.995.193-1.057.438-2.171 1.52-1.98 2.806.184 1.06 1.668 2.103 2.995 1.983 3.123-.281 5.9-2.967 6.949-5.815 1.276-3.22-.583-6.801-2.024-8.748M60.648 158.211s-1.802 2.24-3.916.105c0 0-1.89-2.228-.327-3.942 0 0 1.807-1.827 3.874.125 0 0 2.128 1.703.37 3.712m-6.293-6.585a2.3 2.3 0 0 1-3.238-.339 2.303 2.303 0 0 1 .341-3.24 2.3 2.3 0 1 1 2.896 3.578m10.61-.56c-2.666-3.02-5.869-1.494-5.869-1.494 1.43-2.771-.406-4.52-.406-4.52-3.516-3.569-9.104 1.226-9.104 1.226-5.908 5.104-2.44 8.677-2.44 8.677 1.32 1.836 4.444 1.177 4.444 1.177-1.677 3.069.455 5.394.455 5.394 3.76 4.72 10.127-.95 10.127-.95 6.58-5.638 2.793-9.51 2.793-9.51"/><path fill="#ffd938" d="M64.57 72.446c1.322-10.692 6.273-23.68 14.913-30.397a24 24 0 0 1 1.993-1.384 28 28 0 0 0-7.583-1.052 27.8 27.8 0 0 0-16.834 5.653c-3.815 9.28 2.19 20.103 7.511 27.18"/><path fill="#ffd938" d="M63.436 73.847c-7.594-9.942-10.587-18.966-8.913-26.406-5.258 5.076-8.535 12.193-8.535 20.077 0 .182.009.358.015.537.198.27.4.537.628.787 4.155 4.556 11.752 4.994 16.805 5.005M66.176 73.85c11.56.006 29.644-6.747 33.921-14.418.117-.21.21-.42.304-.628A27.96 27.96 0 0 0 83.724 41.4a20.5 20.5 0 0 0-3.164 2.035c-8.566 6.654-13.34 19.89-14.384 30.414"/><path fill="#ffd938" d="M64.22 75.598c-4.763.023-13.022-.219-18.024-4.727 1.35 11.284 9.433 20.492 20.117 23.502-3.098-4.772-2.956-11.84-2.092-18.775"/><path fill="#ffd938" d="M65.844 76.84c-1.012 9.135-.06 14.884 3.177 18.153 1.583.278 3.209.432 4.872.432a27.76 27.76 0 0 0 15.026-4.397c-6.952-.37-16.01-5.98-23.075-14.188"/><path fill="#ffd938" d="M101.8 67.518c0-2.177-.259-4.298-.73-6.333-5.6 8.268-23.25 14.055-33.987 14.402 6.824 7.983 15.524 13.426 22.07 13.704.84.035 1.633-.022 2.384-.156C97.8 84.02 101.8 76.237 101.8 67.518M184.222 92.48a6.4 6.4 0 0 0-1.202-.395c-1.93 2.47-.813 6.122-.6 8.362.393 4.337-1.89 8.072-4.172 11.559l-22.513 34.464-2.99.395-1.801 2.78v5.187l-9.36 16.7c-2.828 5.022-9.453 17.09-12.906 25.133l1.992.788c3.391-6.375 8.479-16.286 13.51-25.296l14.727-24.897c6.517-10.396 13.091-20.287 19.529-30.67 2.808-4.527 6.577-9.615 6.577-13.756 0-5.24-2.158-6.721-.79-10.354"/><path fill="#ffd938" d="m143.003 161.127-5.023-1.299-3.143 1.052-1.128 2.796-39.006 13.162c-3.948 1.34-8.134 2.612-12.233 1.146-2.117-.765-5.374-2.763-8.248-1.512-.022.392.023.938.08 1.265 3.86-.415 4.755 2.043 9.828 3.353 4.01 1.04 9.88-1.335 14.967-2.919 11.661-3.635 22.882-7.52 34.578-11.229l10.632-3.07c.68-1.21 1.376-2.452 2.032-3.623zM189.341 152.171l-.267-2.123c-8.646 1.328-21.99 4.718-27.558 6.199l-7.506 1.978-2.029 3.43 9.49-2.74c9.982-2.611 20.85-5.055 27.87-6.744"/><path fill="#eb141e" d="M40.861 153.504c-.836-1.031-1.953 1.419-1.953 1.419l-2.498 5.988c-.207.514-.23.952-.045 1.216.443.631 1.208.276 1.427.097l1.327-1.154c.773-.665 1.432.15 1.432.15l4.75 5.768c.798.983 1.122 2.285.42 3.015-.61.634-.81 1.262-.446 1.725.418.526 1.06.685 2.399-.386a640 640 0 0 0 5.52-4.465c.872-.72.931-1.288.616-1.691-.358-.46-.898-.592-1.657-.094-.642.418-1.58.298-2.134-.372zM71.29 131.39c-.899-1.146-2.513 1.287-3.613-.12-.426-.543-.486-1.304.011-1.69l11.156-8.743c.494-.387 1.219-.148 1.645.395 1.103 1.407-1.648 2.39-.75 3.538l8.313 10.613 11.323-8.868c1.464-1.148.299-4.229 1.68-5.309.662-.523 1.197-.179 1.563.287.498.637.75 1.867 1.197 4.144.438 2.225.685 4.289-.475 5.198l-21.484 16.829c-.494.39-1.219.15-1.645-.395-1.103-1.404 1.645-2.39.747-3.536zM134.055 77.585l-9.515 7.455c-.497.386-.438 1.148-.011 1.69 1.102 1.408 2.717-1.025 3.612.123l9.669 12.34c.9 1.149-1.85 2.132-.748 3.539.427.543 1.152.782 1.649.395l7.344-5.755c.495-.387.438-1.149.011-1.691-1.102-1.407-2.717 1.026-3.615-.12l-5.866-7.489 20.58-.236c.907-.008 1.27-.162 1.91-.662l6.634-5.198c.494-.387.437-1.148.01-1.691-1.102-1.407-2.716 1.026-3.614-.123l-9.67-12.34c-.9-1.148 1.85-2.132.748-3.539-.423-.543-1.15-.781-1.645-.395l-7.407 5.804c-.497.386-.438 1.148-.014 1.694 1.105 1.404 2.717-1.029 3.615.12l4.377 5.587-17.238.196c-.31.003-.477.031-.816.296M120.137 88.487l-9.774 7.657c-.494.39-.437 1.151-.011 1.694.531.676 1.177.457 1.81.187.83-.346 1.06-.08.913.515l-1.527 6.113-6.306.12c-.515.011-.697-.196-.566-.486.367-.813 1.651-1.62.839-2.66-.427-.543-1.152-.782-1.646-.396l-16.394 12.844c-.491.387-.435 1.148-.008 1.691.546.7 1.22.452 1.867.165.472-.21.776-.41 1.441-.423l20.415-.393 2.396 3.058c.898 1.146-1.853 2.132-.75 3.539.426.543 1.151.782 1.646.395l11.345-8.887c.495-.39.438-1.151.012-1.694-1.103-1.407-2.714 1.029-3.615-.12l-4.735-6.045 3.362-13.475c.23-.932 1.853-1.83.935-3.004-.426-.546-1.151-.781-1.649-.395"/></svg>