<svg xmlns="http://www.w3.org/2000/svg" xml:space="preserve" viewBox="10 10.86 380 403.29"><path d="m370.561 421.907-1.432 3.034c-4.239 9.072-6.78 19.103-6.97 27.522-.153 6.783 1.088 12.978 3.687 18.41l2.202 4.602-24.04 26.855-4.614-1.33c-6.473-1.866-11.194-2.653-15.785-2.633-7.186.031-14.21 2.199-22.107 6.822l-3.864 2.261-3.864-2.261c-7.897-4.623-14.922-6.791-22.108-6.822-4.591-.02-9.312.767-15.785 2.633l-4.614 1.33-24.04-26.855 2.202-4.602c2.6-5.433 3.84-11.627 3.687-18.411-.189-8.417-2.73-18.448-6.97-27.521l-1.431-3.032c-4.426-9.331-9.002-18.979-8.557-30.946.448-12.046 5.69-21.967 15.158-28.691 7.567-5.374 17.952-8.695 30.033-9.604 12.579-.947 22.721-5.256 31.003-13.175l5.286-5.054 5.285 5.054c8.282 7.919 18.424 12.228 31.004 13.175 12.081.909 22.466 4.23 30.033 9.604 9.468 6.724 14.709 16.645 15.158 28.691.444 11.967-4.132 21.615-8.557 30.944" style="fill:#000;fill-opacity:1;fill-rule:evenodd;stroke:none" transform="matrix(2.331 0 0 -2.331 -493.795 1193.723)"/><path d="m372.063 425.781-1.532.906c-10.909 6.385-20.721 9.362-30.906 9.407-6.314.027-12.985-1.051-21.594-3.531l-1.812-.532-24.375 27.25.844 1.813c3.697 7.727 5.465 16.45 5.25 25.969-.257 11.398-3.64 24.897-9.313 37.03l-1.812 3.845c-5.432 11.453-10.56 22.27-10.063 35.625.894 24.076 19.284 39.218 50.438 41.562 17.058 1.284 31.445 7.443 42.78 18.281l2.094 1.969 2.063-1.969c11.335-10.838 25.721-16.997 42.781-18.281 31.153-2.344 49.543-17.486 50.438-41.562.496-13.355-4.63-24.172-10.063-35.625l-1.812-3.844c-5.671-12.134-9.055-25.633-9.313-37.032-.214-9.518 1.551-18.27 5.25-26l.844-1.78-24.375-27.25-1.812.53c-8.61 2.48-15.28 3.56-21.594 3.532-10.184-.045-19.996-3.021-30.906-9.406zm0 6.906c11.262 6.34 21.606 9.36 32.406 9.407 8.017.036 15.501-1.611 21.437-3.25l19.25 21.5c-3.33 7.649-5.031 16.099-5.031 25.187 0 .558-.012 1.126 0 1.688.274 12.202 3.895 26.576 9.906 39.437l1.813 3.844c5.092 10.736 9.531 20.073 9.531 31.25 0 .523-.012 1.064-.031 1.594-1.053 28.297-28.565 34.553-44.875 35.781-17.483 1.315-32.375 7.465-44.406 18.125-12.033-10.66-26.955-16.81-44.438-18.125-16.309-1.227-43.824-7.484-44.875-35.781-.02-.53-.031-1.072-.031-1.594 0-11.176 4.437-20.512 9.531-31.25l1.813-3.844c6.01-12.862 9.63-27.236 9.906-39.437.012-.563 0-1.13 0-1.688 0-9.087-1.703-17.539-5.031-25.187 2.147-2.4 17.172-19.179 19.25-21.5 5.936 1.639 13.418 3.286 21.437 3.25 10.799-.046 21.175-3.066 32.438-9.406m-62.938 27.594c1.22 3.901 2.533 8.454 3.25 13.125.601 3.918.906 7.961.906 12.063 0 .546.01 1.079 0 1.625-.089 4.417-.561 9.042-1.406 13.719-.736 4.082-1.816 8.118-3.187 12.78 2.93-1.143 5.893-2.272 8.843-3.312 2.42-8.924 3.875-16.367 3.875-25.406 0-1.975-.041-4.029-.187-6.187l-.156-2.22 1.687 3.25c2.54 4.922 4.37 8.518 5.688 14.063.597.005 4.832.059 5.28.063 3.033-4.933 6.113-10.425 8.376-17.063l.906-2.625v30.094c2.765-.339 5.676-.597 8.156-.719v-43.25h-10.062c-1.466 4.696-3.943 9.748-6.375 14.625l-3.125 6.375-.375-1.031c-2.829-7.734-5.574-11.906-9.719-18.25 0 0-.909-1.386-1.125-1.719zm54.313 0v43.094h7.625v-18.812s12.185.026 12.968.03c-.03-1.784-.062-3.372-.062-4.812 0-.98.019-1.886.031-2.781h-12.938v-9.125l18.125.031c.234-2.811.478-5.325.75-7.625zm33.593 0v43.531c3.085.3 5.138.53 8.156 1v-13.468l.657-1 2.312-3.469.375.625c2.555 4.063 4.714 7.388 6.813 10.469 2.202 3.232 4.751 6.807 8.031 11.25 3.753 1.254 7.609 2.67 11.469 4.156a311 311 0 0 1-5.313-7.531 308 308 0 0 1-5.406-8.25 248 248 0 0 1-4.719-7.75l-4.281-7.563.188-.219c2.363-3.183 5.205-6.968 8.312-10.687 3.156-3.781 6.653-7.537 10.031-11.094h-10.844c-3.915 4.244-6.815 7.526-9.312 10.625-2.804 3.48-5.337 7.031-7.469 10.031l-.844 1.157V460.28zm-24.969 57.406c-2.382 0-4.728.224-7 .625 2.418 2.46 4.42 5.19 6.094 8.344q.45-.03.906-.03c.305 0 .577.01.875.03 1.675-3.155 3.677-5.883 6.094-8.343a40 40 0 0 0-6.969-.625m-11.28 1.625a40 40 0 0 0-10.126 4.594c5.125 1.35 10.135 3.509 13.438 5.532.947-.807 2.077-1.46 3.312-1.938a31.9 31.9 0 0 0-6.625-8.187m22.53 0a31.9 31.9 0 0 0-6.625 8.188c1.24.48 2.363 1.13 3.313 1.938 3.458-2.088 8.623-4.13 13.594-5.438a40.1 40.1 0 0 0-10.281-4.687m-36.656 7.438a40.47 40.47 0 0 0-12.844 18.688c8.234-6.535 17.268-10.402 27.375-11.72.153-.483.328-.955.563-1.405-3.662-2.16-9.579-4.527-15.094-5.563m50.875.094c-5.58 1.09-11.556 3.41-15.187 5.5.234.446.411.896.562 1.375 10.048 1.318 19.074 5.228 27.406 11.875a40.4 40.4 0 0 0-12.78-18.75m-25.469 3.468c-4.18 0-7.593 2.63-7.593 5.875s3.412 5.907 7.594 5.907c4.18 0 7.562-2.662 7.562-5.907s-3.381-5.875-7.562-5.875m-11.156 7.157c-10.672 1.545-20.044 6.183-28.562 14.093a40.5 40.5 0 0 0-.531 6.375c0 6.594 1.637 12.812 4.468 18.313 2.644-14.795 12.573-30.193 24.813-37.844a8 8 0 0 1-.188-.937m22.281 0c-.05.317-.1.63-.187.937 12.026 7.554 22.109 23.034 24.938 37.625 2.763-5.449 4.343-11.584 4.343-18.094a41 41 0 0 0-.5-6.25c-8.636-8.006-18.022-12.673-28.594-14.218m-20.343 4.187c-12.355 7.874-22.473 24.873-23.5 39.625a40.45 40.45 0 0 0 16.531 13.438c-1.556-14.563 1.399-35.854 10.156-50.47a10.7 10.7 0 0 1-3.187-2.593m18.437 0c-.855 1.034-1.961 1.914-3.219 2.594 8.755 14.617 11.708 35.927 10.157 50.469a40.5 40.5 0 0 0 16.719-13.688c-1.205-14.702-11.313-31.522-23.657-39.375m-11.719 3.844c-8.723 14.093-11.842 36.421-9.812 50.719a40.1 40.1 0 0 0 12.313 1.937c4.282 0 8.405-.687 12.28-1.937 2.027-14.273-1.092-36.628-9.812-50.719-.801.154-1.615.25-2.469.25s-1.7-.097-2.5-.25" style="fill:#efeb00;fill-opacity:1;fill-rule:evenodd;stroke:none" transform="translate(-493.795 -768.982)scale(1.8648)"/></svg>