<?xml version="1.0" encoding="UTF-8" standalone="no"?>
<svg
   xml:space="preserve"
   viewBox="205.65 71.32 4070.08 1413.93"
   version="1.1"
   id="svg1"
   sodipodi:docname="rosenborg.svg"
   inkscape:version="1.4.2 (ebf0e940, 2025-05-08)"
   xmlns:inkscape="http://www.inkscape.org/namespaces/inkscape"
   xmlns:sodipodi="http://sodipodi.sourceforge.net/DTD/sodipodi-0.dtd"
   xmlns="http://www.w3.org/2000/svg"
   xmlns:svg="http://www.w3.org/2000/svg"><defs
     id="defs1" /><sodipodi:namedview
     id="namedview1"
     pagecolor="#ffffff"
     bordercolor="#000000"
     borderopacity="0.25"
     inkscape:showpageshadow="2"
     inkscape:pageopacity="0.0"
     inkscape:pagecheckerboard="0"
     inkscape:deskcolor="#d1d1d1"
     showgrid="false"
     inkscape:zoom="0.24716366"
     inkscape:cx="1614.315"
     inkscape:cy="523.94435"
     inkscape:window-width="1440"
     inkscape:window-height="766"
     inkscape:window-x="0"
     inkscape:window-y="25"
     inkscape:window-maximized="1"
     inkscape:current-layer="svg1" /><path
     d="M 783.778,2970.24 C 781.817,2968.22 8531.2,274.913 8539.57,274.714 c 9.66,-0.238 7760.43,2694.136 7756.53,2696.356 -6.9,3.94 -7744.27,2691.15 -7752.83,2692.58"
     style="fill:#ffffff;fill-opacity:1;fill-rule:evenodd;stroke:none"
     transform="matrix(0.26238,0,0,-0.26238,0,1557.333)"
     id="path2"
     sodipodi:nodetypes="cccc" /><path
     d="M 4660.76,4318.65 C 2529.56,3578.2 784.931,2971.41 783.778,2970.24 781.817,2968.22 8531.2,274.913 8539.57,274.714 c 9.66,-0.238 7760.43,2694.136 7756.53,2696.356 -6.9,3.94 -7744.27,2691.15 -7752.83,2692.58 -4.19,0.71 -1751.32,-604.53 -3882.51,-1345 m 3640.49,950.53 a 828459,828459 0 0 0 -532.63,-185.21 l -294.42,-102.25 0.95,-2012.41 0.95,-2012.433 529.77,-184.136 c 291.39,-101.274 531.54,-184.174 533.67,-184.229 3.39,-0.101 989.35,341.209 1047.07,362.451 l 21.92,8.08 V 4980.94 l -532.03,184.85 c -292.62,101.66 -533.17,185.17 -534.54,185.59 -1.37,0.42 -109.7,-36.59 -240.71,-82.2 M 5801.03,2974.51 v -994.97 h 346.83 v 811.81 h 167.44 l 134.49,-405.87 134.47,-405.84 188.12,-0.06 c 177.6,-0.04 187.97,0.33 185.54,6.63 -1.41,3.67 -70.43,201.32 -153.34,439.25 -82.94,237.91 -151.42,434.29 -152.2,436.4 -0.77,2.08 9.15,10.6 22.06,18.9 30.25,19.47 81.86,68.38 106.16,100.64 109.83,145.66 142.84,429.86 73.96,636.58 -27.85,83.64 -74.94,161.01 -135,221.81 -66.86,67.72 -127.26,98.8 -230.59,118.63 -40.15,7.7 -55.4,8.1 -364.93,9.55 l -323.01,1.49 z m 2180.07,-0.02 V 1979.54 H 8295 c 176.53,0 335.38,1.69 363.02,3.85 147.79,11.57 238.41,49.17 317.72,131.79 99.27,103.4 152.45,259.09 152.54,446.68 0.11,209.32 -61.73,362.96 -183.95,457.05 l -21.99,16.94 23.9,25.9 c 53.51,58.03 92.18,145.6 111.99,253.65 9.89,53.93 9.93,189.69 0.06,243.93 -20.34,111.88 -67.67,207.51 -137.7,278.34 -65.35,66.1 -138.48,100.92 -257.26,122.46 -31.98,5.82 -73.89,6.73 -359.22,7.94 l -323.01,1.37 z m 2168.6,-0.2 v -994.75 h 350.7 v 623.19 l 59,95.08 59,95.09 15.6,-34.13 c 8.5,-18.75 91.3,-201.34 184,-405.72 l 168.4,-371.61 195.3,-0.99 c 107.4,-0.54 195.3,-0.26 195.3,0.64 0,0.89 -117.3,255.75 -260.7,566.37 l -260.6,564.73 52.5,88.26 c 28.9,48.55 143.6,240.73 254.9,427.06 111.4,186.34 202.4,339.43 202.4,340.2 0,0.76 -89.5,0.96 -198.9,0.42 l -198.9,-0.99 -232.7,-382.74 -232.7,-382.74 -2,767.38 h -350.6 z m -4001.84,405.9 V 3111.5 l 109.57,0.06 c 118.28,0.05 140.25,2.64 175.88,20.68 46.75,23.7 87.44,99.08 99.77,184.81 6.34,43.99 2.5,122.4 -8,164.14 -17.69,70.34 -57.21,131.4 -96.21,148.65 -36.11,15.98 -63.25,18.92 -175.25,18.99 l -105.76,0.06 z m 2183.88,30.02 v -238.67 l 117.2,2.09 c 129.88,2.3 153.4,5.52 192.17,26.18 36.47,19.44 57.87,50.08 70.69,101.26 9.29,37.06 9.27,174.65 -0.04,211.8 -14.15,56.52 -41.62,93.58 -84.11,113.45 -40.51,18.98 -70.73,22.57 -189.51,22.57 h -106.4 z m -3867.64,48.04 c -79.45,-20.8 -140.94,-81.15 -176.68,-173.34 -47.22,-121.82 -35.17,-280.35 28.83,-379.16 66.74,-103.05 184.73,-138.32 286.9,-85.76 l 31.62,16.28 v -10.07 c 0,-13.14 -9.64,-67.67 -17.19,-97.32 -19.87,-78.07 -59.29,-116.33 -115.21,-111.84 -33.45,2.68 -50.24,14.37 -65.35,45.52 -6.39,13.18 -14.35,36.24 -17.69,51.23 l -6.05,27.28 -73.95,-24.7 -73.94,-24.67 2.29,-12.11 c 1.27,-6.67 6.37,-26.7 11.37,-44.51 34.5,-123.09 114.45,-180.83 241.22,-174.22 171.45,8.93 262.61,146.91 282.48,427.68 5.52,77.89 2.72,202.95 -5.96,264.88 -24.91,178.1 -90.93,278.41 -201.88,306.73 -32.14,8.2 -95.78,7.29 -130.81,-1.9 m -619.42,-19.93 c -42.82,-66.74 -113.67,-136.57 -169.98,-167.52 l -11.81,-6.49 v -85.94 c 0,-47.26 0.91,-85.93 2.02,-85.93 3.91,0 48.1,23.29 73.39,38.69 14.07,8.56 37.18,24.87 51.31,36.25 l 25.73,20.66 v -564.39 h -144.99 l 2.07,-146.74 h 445.92 v 144.83 l -67.65,1.04 -67.65,1.05 v 834.5 H 3857.5 Z m 8543.42,-9.53 c -40.4,-60.47 -103.5,-123.49 -150.6,-150.47 l -21.8,-12.46 -0.1,-86.71 c -0.1,-47.7 0.6,-86.71 1.6,-86.71 3.7,0 70.1,37.3 90.3,50.72 11.7,7.8 29.3,21.16 39,29.69 l 17.6,15.51 v -564.71 h -141 v -148.7 l 222,0.97 222,0.99 1.1,73.37 1,73.37 h -137.4 v 834.68 h -123.9 z m 382.2,13.34 c -1,-4.73 -3.6,-33.45 -5.9,-63.84 -2.3,-30.39 -5.1,-62.57 -6.4,-71.46 l -2.2,-16.2 h 324.5 l -17.1,-28.92 c -112.3,-189.93 -187.6,-463.57 -194.8,-707.61 l -2.3,-79.09 h 167.7 l 2.6,80.99 c 5.4,165.57 28.9,298.87 81.3,462.12 37.2,115.41 64.5,177.8 122.6,280.09 l 27.1,47.6 v 104.89 h -495.3 z m -8279.48,-140.5 c -45.38,-22.48 -68.65,-91.77 -64.48,-192.04 4.37,-104.85 36.39,-158.17 94.97,-158.17 27.55,0 42.71,6.29 60.85,25.29 38.75,40.5 54.78,130.98 39.11,221 -12.86,73.9 -44.84,111.98 -94.01,111.98 -12.85,0 -26.06,-2.94 -36.44,-8.06 M 8331.74,2581.9 v -282.87 l 138.16,1.71 c 151.26,1.84 167.92,3.87 215.12,26.13 27.28,12.84 45.94,32.63 62.41,66.2 14.85,30.23 21.76,64.49 26.52,131.49 5.96,83.69 -1.52,172.48 -18.1,214.82 -16.62,42.44 -51.47,81.51 -87.54,98.14 -40.4,18.62 -77.4,22.98 -213.66,25.23 l -122.91,2.02 z"
     style="display:inline;fill:#000000;fill-opacity:1;fill-rule:evenodd;stroke:none"
     transform="matrix(0.26238,0,0,-0.26238,0,1557.333)"
     id="path1" /></svg>
