<svg xmlns="http://www.w3.org/2000/svg" id="Layer_1" data-name="Layer 1" viewBox="0 0.01 119.08 129.72"><defs><clipPath id="clip-path" transform="translate(-11.15 -6.03)"><path d="M11.15 6.03h119.11v129.7H11.15z" style="fill:none"/></clipPath><style>.cls-2{fill:#fff}.cls-6{fill:#055292}.cls-7{fill:#000100}</style></defs><path d="M59.64 129.47c3.76 0 9.32-3.06 15-7.18 17.55-12.84 44.21-43.18 44.21-81.16a80.6 80.6 0 0 0-2.46-19.82l-.65-2.71h-2.89c-.9 0-1.66 0-2.41.05s-1.16.05-1.7.05h-4.17c-.25 0-.45-.05-.65-.05h-4l.35-3.71v-1.4a10.6 10.6 0 0 0-.35-2.77 4.46 4.46 0 0 0-3.41-3.16c-1.46-.31-3.71-.76-6.43-1.25-1.65-.31-3.5-.65-5.41-1.05a2.7 2.7 0 0 0-.61-.11l-.65-.15-2.45-.45C72.13 2.91 62.74 1.15 60.44.5l-.91-.25-.91.25c-2.3.65-11.69 2.41-20.52 4.11l-2.45.45-.65.15a2.5 2.5 0 0 0-.6.11c-1.92.4-3.77.75-5.42 1.05-2.72.49-5 .95-6.43 1.25a4.46 4.46 0 0 0-3.41 3.16 10.6 10.6 0 0 0-.35 2.77v1.42l.35 3.71h-4c-.2 0-.4.05-.65.05h-4.12c-.55 0-1.11-.05-1.7-.05-.76-.05-1.51-.05-2.41-.05H3.35l-.65 2.71A81 81 0 0 0 .24 41.21c0 37.93 26.63 68.28 44.19 81.11 5.67 4.12 11.29 7.18 15 7.18Z" class="cls-2"/><g style="clip-path:url(#clip-path)"><path d="M70.79 135.5c3.76 0 9.32-3.06 15-7.18C103.34 115.48 130 85.14 130 47.16a80.6 80.6 0 0 0-2.46-19.82l-.65-2.71H124c-.9 0-1.66 0-2.41.05s-1.16.05-1.7.05h-4.17c-.25 0-.45-.05-.65-.05h-4l.35-3.71v-1.4a10.6 10.6 0 0 0-.35-2.77 4.46 4.46 0 0 0-3.41-3.16c-1.46-.31-3.71-.76-6.43-1.25-1.65-.31-3.5-.65-5.41-1.05a2.7 2.7 0 0 0-.61-.11l-.65-.15-2.45-.45c-8.83-1.69-18.22-3.45-20.52-4.1l-.91-.25-.91.25c-2.3.65-11.69 2.41-20.52 4.11l-2.45.45-.65.15a2.5 2.5 0 0 0-.6.11c-1.92.4-3.77.75-5.42 1.05-2.72.49-5 .95-6.43 1.25a4.46 4.46 0 0 0-3.41 3.16 10.6 10.6 0 0 0-.35 2.77V21l.35 3.71h-4c-.2 0-.4.05-.65.05h-4.12c-.55 0-1.11-.05-1.7-.05-.76-.05-1.51-.05-2.41-.05H14.5l-.65 2.71a81 81 0 0 0-2.46 19.87c0 37.93 26.63 68.28 44.19 81.11 5.67 4.12 11.29 7.18 15 7.18Z" style="fill:none;stroke:#000100;stroke-width:.47px" transform="translate(-11.15 -6.03)"/><path d="M70.82 9.91c-4.26 1.15-29.24 5.77-36.31 7.17-2.32.5 1.05 11.09-1.36 11.09-7 0-5.93.15-15.7 0C2.95 85.86 59.44 131.8 70.82 131.9H71V10a.22.22 0 0 0-.16 0" style="fill:#c2162e" transform="translate(-11.15 -6.03)"/><path d="M112.85 22.05c-9.79.15-8.73 0-15.7 0-2.41 0 .95-10.59-1.41-11.09-7-1.4-31.55-5.91-36.17-7.12v122c11.69-.45 67.72-46.3 53.27-103.74" class="cls-6"/></g><path d="m13.54 56.1 1.06-.25.25 1.11.45-.11-.25-1.1.9-.2.31 1.1.45-.09-.45-1.81-3.32.8.46 2.01.45-.11zM27.64 83.45a1.27 1.27 0 0 0-1.25-2.21 1 1 0 0 0-.29 1.45 1.1 1.1 0 0 0 .4.45 1.65 1.65 0 0 1-1.66-.6l-.35.2a2.51 2.51 0 0 0 3.16.71m-1.16-.81c-.2-.3-.05-.61.25-.81a.65.65 0 0 1 .95.05.59.59 0 0 1-.29.85c-.4.25-.7.2-.9-.1M29.99 86.85a1.17 1.17 0 0 0 .31-1.76 1.23 1.23 0 0 0-1.65-.4 1 1 0 0 0-.2 1.5c.15.2.24.36.4.4a1.76 1.76 0 0 1-1.71-.49l-.3.2a2.37 2.37 0 0 0 3.16.55m-1.2-.74c-.2-.25-.05-.61.25-.81a.65.65 0 0 1 .95.05c.21.25.16.6-.24.85a.66.66 0 0 1-1-.09M16.9 64.48a1.07 1.07 0 0 0 .16-2.06l1.4-.49-.2-.6-3.41 1.19.25.6.25-.09a1.1 1.1 0 0 0-.11.8 1.3 1.3 0 0 0 1.65.65m-1.3-.91c-.15-.4.2-.7.61-.85s.95-.1 1.05.29-.2.65-.61.81-.89.15-1.05-.25M19.26 64.13l-3.36 1.25.2.6 3.36-1.25zM31.91 87.34c-.4-.55-.91-.8-1.36-.44a.84.84 0 0 0-.31.89 1.16 1.16 0 0 0-1.2 0 1.12 1.12 0 0 0 0 1.61c.45.6 1.1.85 1.6.51a1.32 1.32 0 0 0 .21-1.26 1 1 0 0 0 1 .05c.45-.35.4-.86 0-1.36m-1.71 2a.57.57 0 0 1-.7-.9.76.76 0 0 1 .85-.1c.05.24.16.75-.15 1m1.31-1.15a.85.85 0 0 1-.7 0c-.05-.24-.1-.6.15-.75a.45.45 0 1 1 .55.71M25.74 81.29c.65-.36 1.25-1.16.8-1.91s-1.46-.61-2.11-.2c-1 .55-1.3 1.4-.91 2s1.25.7 2.21.11m-1.8-.32c-.2-.24.11-.69.85-1.15s1.21-.45 1.36-.2-.11.7-.76 1.15-1.3.5-1.45.2M23.57 77.73c.7-.4 1.36-1.15.91-1.9s-1.41-.65-2.11-.29c-1 .54-1.36 1.35-1 1.94s1.26.76 2.21.25m-1.8-.45c-.15-.29.16-.69 1-1.15s1.2-.4 1.36-.1-.11.71-.81 1.05-1.3.51-1.5.2M23.18 73.37l-.76-.65-.25.24.56.51-2.66 1.35.3.6 3.05-1.55zM14.2 59.06c-.05-.2.05-.35.45-.45l1.2-.35.15.6.35-.05-.2-.65.7-.19-.29-.6-.56.15-.15-.31-.3.09.05.36-1.3.35a.69.69 0 0 0-.56 1 1.2 1.2 0 0 0 .3.55l.31-.15c-.05-.1-.16-.16-.16-.3M19.31 71.31l1.11-.51.3.55.29-.1-.29-.6.65-.31-.4-.55-.51.24-.15-.29-.3.15.15.3-1.25.6a.67.67 0 0 0-.4 1 1.5 1.5 0 0 0 .4.51l.25-.2c-.05-.11-.15-.15-.2-.25s0-.4.35-.55M19.56 69.4a.6.6 0 0 1 .05.29l.49.05a.58.58 0 0 0 .05-.51.82.82 0 0 0-.45-.25h-.2l.36-.16-.25-.6-2.21 1 .25.6 1.11-.45c.49-.25.75-.1.8.11M16.21 61.37c.7-.2.7-.76.56-1.21a1.35 1.35 0 0 0-.61-.8l-.2.3a.79.79 0 0 1 .41.55.42.42 0 0 1-.21.51l-.31-.5c-.3-.45-.65-.7-1.11-.6a.71.71 0 0 0-.49.91.83.83 0 0 0 .44.49l.16.11c-.11.05-.25.1-.3.2l.2.65a1.3 1.3 0 0 1 .56-.31Zm-1.51-.76c-.05-.15.05-.3.25-.4a.61.61 0 0 1 .65.31l.24.3c-.7.25-1.1.05-1.15-.2M17.16 67.69a.74.74 0 0 1 .49-1l.61 1.46a1.09 1.09 0 0 0 .85-1.46 1.2 1.2 0 0 0-1.61-.7 1.23 1.23 0 0 0-.75 1.7 2 2 0 0 0 .6.8l.25-.3a1.15 1.15 0 0 1-.45-.55m1.61-.8c.09.29-.05.49-.41.6l-.35-.85a.5.5 0 0 1 .76.25M26.79 84.97a.39.39 0 0 0-.5-.11.47.47 0 0 0-.1.56.33.33 0 0 0 .5.05c.2-.1.2-.3.1-.5M22.58 78.82a.41.41 0 0 0-.15.56.38.38 0 0 0 .5.09.34.34 0 0 0 .16-.49.41.41 0 0 0-.5-.16" class="cls-7"/><path d="M80.66 102.97c4.3-3.72 8.65-9 13.3-16s5.89-12.69 5.89-16.74a13.9 13.9 0 0 0-1.8-7.39 2.65 2.65 0 0 0-1.62-1.33 1.59 1.59 0 0 0-1.43.18 6 6 0 0 0-1.06 1.36 33 33 0 0 1-6.25 7.17c-4 3.41-18.76 9.69-25.05 12.38l-3.12 1.37a3.08 3.08 0 0 0-1.76 3.44v.54l-.34-.42a3.09 3.09 0 0 0-3.57-1.43l-3.26 1c-6.49 2.08-21.65 6.93-27 7l1.16 1.58c6.25-.6 19.66-4.9 26.33-7l3.17-1a1.44 1.44 0 0 1 1.75.69v.08l.06.07 3.43 4.17v-6.63a1.6 1.6 0 0 1 .7-.6l3.06-1.33c6.9-2.94 21.26-9.07 25.48-12.64a34.5 34.5 0 0 0 6.6-7.52c.23-.33.47-.7.61-.87a1 1 0 0 1 .64.44v.09l.06.09a12.57 12.57 0 0 1 1.49 6.51c0 3.77-1.17 9.09-5.59 15.79-4.61 7-8.9 12.16-13.13 15.79l-.11.09-.07.12a13 13 0 0 0-1.72 6.46 13.7 13.7 0 0 0 .83 4.63l1.34-1.21a12 12 0 0 1-.52-3.42 11.25 11.25 0 0 1 1.5-5.51M59.74 124.71l-.23-1.24c-1.39-7.47-6.57-10-8.73-10.79h-.27a59.3 59.3 0 0 1-11.76-1.27q1.17 1.09 2.33 2.1a57 57 0 0 0 9.28.82c1.95.7 6.32 3 7.53 9.48 0 .25.09.48.13.71a6.3 6.3 0 0 0 1.51.25h.21" class="cls-2"/><path d="m114.33 21.89-.3-1.05h-1.05c-3.26.05-5.31.11-6.87.11-1.4 0-2.41 0-3.46-.05-1.25 0-2.61-.05-4.86-.05v-.9c0-.8.1-1.85.2-3s.2-2.31.2-3.36c0-.86 0-3.42-2-3.82-2.41-.49-6.88-1.36-11.89-2.3-9.85-1.82-21.64-4.08-24.45-4.84l-.35-.1-.35.1c-2.77.76-14.55 3-24.33 4.87-5 .95-9.49 1.81-11.89 2.3-2 .4-2 3-2 3.82 0 1.05.09 2.25.2 3.36s.2 2.16.2 3c0 .45-.05.76-.05.9-2.25 0-3.61.05-4.81.05s-2.02.04-3.42.04c-1.56 0-3.62-.05-6.87-.11H5.12l-.27 1.03a79.8 79.8 0 0 0-2.41 19.36c0 37 26.08 66.77 43.34 79.36 5.67 4.17 10.73 6.72 13.79 6.78s8.12-2.61 13.79-6.78c17.31-12.58 43.39-42.44 43.39-79.4a79.3 79.3 0 0 0-2.41-19.32m-7.59 52.43c-13.25 30.55-40.48 50.21-47.2 50.27-6.77-.11-34-19.76-47.2-50.21a82.9 82.9 0 0 1-7.18-33.11 74.8 74.8 0 0 1 2.1-17.6c2.61.05 4.37.05 5.77.05s2.41 0 3.46-.05h5.35c2.35 0 2.3-3 2.3-3.71 0-.95-.09-2.16-.2-3.21s-.2-2.21-.2-3.1a5.4 5.4 0 0 1 .1-1.18c2.46-.5 6.72-1.3 11.54-2.26C44.72 8.45 56.16 6.3 59.57 5.4c3.41.9 14.85 3.05 24.18 4.81 4.81 1 9.08 1.76 11.53 2.26a4.7 4.7 0 0 1 .11 1.16c0 .89-.11 1.95-.2 3.1s-.2 2.26-.2 3.21c0 .76-.05 3.71 2.31 3.71h5.31c1.1.05 2.11.05 3.51.05s3.15 0 5.77-.05a73.6 73.6 0 0 1 2.12 17.56 82 82 0 0 1-7.23 33.1" class="cls-7"/><path d="m60.62 35.12-2.56 1.49-.95 1.49-.21 4.25 2.76 1.81 1.92-.53z" class="cls-6"/><path d="M72.91 35.35h-2.38l.27-1.49a1.61 1.61 0 0 1 1.48-1.33 3.6 3.6 0 0 1 .74.06 2 2 0 0 0 2 1.9 2.4 2.4 0 0 0 2.39-2.59 2 2 0 0 0-2.1-1.93 2 2 0 0 0-1.32.48 6.9 6.9 0 0 0-2.14-.31 5.06 5.06 0 0 0-5.1 4.09l-.21 1.12h-1.59l-.16.9a4.4 4.4 0 0 0-3.45-1.23 7.1 7.1 0 0 0-2.76.59l-.16.11v-.05a7.09 7.09 0 0 0-4.14 6.62c0 1.49.9 4.35 3.88 4.35a12.4 12.4 0 0 0 5.95-1.75l-.85-1.76a6.46 6.46 0 0 1-2.87.9c-2.07 0-1.9-1.9-1.86-2.38 3.24.1 6.81-1.28 6.81-3.66a2.4 2.4 0 0 0-.06-.64h.9l-1.71 9h4l1.69-9h2.18l-1.75 9.18a12 12 0 0 1-.8 2.39 2 2 0 0 1-1.22 1l-.37 2c3.77 0 5.68-1.92 6.42-5.62l2.07-10.94Zm-10.77 2.71c-.06 1.23-1.23 1.8-3.4 1.75.32-1.54 1-2.76 2.28-2.86a1 1 0 0 1 1.11 1.11M105.47 30.09l-1.17 6.47h-.06a2.72 2.72 0 0 0-2.65-1.54c-3.11 0-5.53 3.22-5.72 6.86l-.05.47c0 2.19.86 3.73 2.15 4.14l.51.1h.2a6.9 6.9 0 0 0 3.93-1.44l-.21 1.17h4l3-16.29Zm-1.76 8.6c-.21 4-1.59 5.68-2.44 5.68s-1.22-.85-1.22-2.07c0-3.19 1.59-5 2.61-5a1.17 1.17 0 0 1 1.06 1.38M52.01 30.09l-1.23 6.47h-.05a2.67 2.67 0 0 0-2.65-1.54c-3.19 0-5.74 3.51-5.74 7.33 0 2.59 1.17 4.3 2.86 4.3a6.93 6.93 0 0 0 4-1.44l-.21 1.17h3.93l3.07-16.29Zm-4.25 14.28c-.9 0-1.23-.85-1.23-2.07 0-3.19 1.59-5 2.61-5a1.2 1.2 0 0 1 1.11 1.38c-.21 4-1.65 5.68-2.49 5.68M27 35.35l-.21 1.22a2.72 2.72 0 0 0-2.65-1.54c-3.24 0-5.79 3.51-5.79 7.33 0 2.59 1.22 4.3 2.92 4.3a6.9 6.9 0 0 0 3.93-1.44l-.21 1.17h3.93l2.12-11Zm-.75 3.34c-.21 4-1.59 5.68-2.45 5.68s-1.27-.85-1.27-2.07c0-3.19 1.59-5 2.65-5a1.17 1.17 0 0 1 1.07 1.38M39.85 35.03a5.9 5.9 0 0 0-4.25 2.34v-.06l.42-2h-3.93l-2.07 11h4l.9-4.93c.31-1.55.95-3.67 2.49-3.67.27 0 .74.16.79 1.06a1.8 1.8 0 0 1-.06.58l-1.27 7h4l1.32-7.12a9 9 0 0 0 .21-1.86c-.11-1.59-.8-2.38-2.49-2.38M81.31 46.65a6.44 6.44 0 0 0 6.85-6.43 5 5 0 0 0-5.21-5.2 6.71 6.71 0 0 0-6.74 6.48 5.08 5.08 0 0 0 5.1 5.14m1.59-9.6c.85 0 1.17 1.27 1.06 2.76-.21 4.93-2 4.88-2.29 4.88-1 0-1.32-1.27-1.32-3s.85-4.67 2.55-4.67" class="cls-2"/><path d="M14.85 34.7a1.63 1.63 0 0 1 1.7-1.43 3.76 3.76 0 0 1 1.86.42l1.38-2a6.18 6.18 0 0 0-3.66-1.11c-3 0-5.47 1.7-5.47 4.36 0 1.17.48 2 1.54 3.51s1.92 2.44 1.92 3.45a2.06 2.06 0 0 1-2.07 2 4.63 4.63 0 0 1-2.45-.79l-1.5 2.06a7.24 7.24 0 0 0 4.57 1.48c3.13 0 5.63-1.75 5.63-4.78a7.15 7.15 0 0 0-1.75-4c-1.23-1.59-1.7-2.44-1.7-3.18M96.12 35.03c-1.44 0-2.23 1.75-2.49 2.23l-.27.42h-.16l.47-2.34h-4l-2.07 11h4l.9-4.72c0-.21.09-.41.14-.6v-.1c.51-1.69 1.52-2.07 2.33-2.07a3.3 3.3 0 0 1 1.11.21l1.86-3.24a2.47 2.47 0 0 0-1.86-.85M92.19 50.85a2.92 2.92 0 0 0-2.23 1.17l.75-4h-1.49l-.23 1.2-.58 3.08-.94 4.95h1.54l.05-.42a2.06 2.06 0 0 0 1.44.58c2.49 0 3.45-2.65 3.45-4.24 0-1.81-1-2.34-1.76-2.34m-1.86 5.63a1.29 1.29 0 0 1-1.06-.54c.27-2.86 1.44-4.09 2.28-4.09.54 0 .8.38.8 1.38 0 1.33-.69 3.24-2 3.24M100.58 50.97h-1.54l-.1.42a1.71 1.71 0 0 0-1.44-.58c-1.92 0-3.45 2.23-3.45 4.24 0 1.38.69 2.34 1.8 2.34a3 3 0 0 0 1.92-.75l.31-.37-.21 1h1.55l1-5.34a1 1 0 0 1 0-.19Zm-3.92 5.31c-.59 0-1-.53-1-1.33 0-2.23 1.32-3.13 2-3.13a1.25 1.25 0 0 1 1.17.47c-.27 3.24-1.38 4-2.12 4M81.19 50.85a3.62 3.62 0 0 0-3.55 3.88 2.68 2.68 0 0 0 2.71 2.71c2.23 0 3.51-2 3.51-4a2.48 2.48 0 0 0-2.66-2.6m-.51 5.68c-1 0-1.38-.75-1.38-1.92 0-1 .37-2.86 1.8-2.86.8 0 1.11.75 1.11 1.65 0 2.71-1.06 3.13-1.54 3.13" class="cls-2"/><path d="M78.85 50.97h-1.43l.21-1c.11-.8.65-1 .9-1a1.8 1.8 0 0 1 .59.11l.43-.86a2.2 2.2 0 0 0-1.11-.27 2.54 2.54 0 0 0-2.4 2.24l-.1.73h-.9l-.19.95h.9l-1 5.41h1.48l1-5.41h1.42ZM85.93 56.26l-.16-.29v-.32l.06-.42v-.17l.69-3.14h1.15c.15-.29.3-.57.43-.85h-1.37l.32-1.9-1.55.37-.31 1.43h-.75l-.16.85h.79l-.69 3.35c-.37 1.65.27 2.23 1.32 2.23a3.6 3.6 0 0 0 1.6-.42l-.17-.8a1.5 1.5 0 0 1-.75.21.6.6 0 0 1-.3-.07ZM102.86 57.28h1.48l1.76-9.24h-1.53zM101.01 54.09v-.12l-.61 3.31h1.45l1.76-9.24h-1.54l-.77 4.18v.07Z" class="cls-2"/></svg>