<svg xmlns="http://www.w3.org/2000/svg" viewBox="0.02 0 429.18 218.6"><defs><style>.cls-2{fill:#ffd600}</style></defs><g id="Layer_2" data-name="Layer 2"><g id="Skeid-logo"><path id="background" d="M349.8 30a80.2 80.2 0 0 0-26 4.4C296.4 13.2 257.4 0 214.2 0s-82 13.1-109.4 34.2a79.4 79.4 0 1 0 .2 150.4c27.4 20.9 66.2 34 109.2 34s82-13.1 109.4-34.2a78.3 78.3 0 0 0 26.2 4.4 79.4 79.4 0 0 0 0-158.8" style="fill:#101820"/><path id="frame" d="M424.8 106.8a75.3 75.3 0 0 0-70.3-72.3 76.7 76.7 0 0 0-29.3 3.9l-2 .7a.2.2 0 0 1-.3 0l-1.7-1.3a155.3 155.3 0 0 0-47.6-24.5 200.2 200.2 0 0 0-118.7 0 153.3 153.3 0 0 0-47.5 24.3l-1.7 1.3a.2.2 0 0 1-.3 0l-2-.6a75.1 75.1 0 1 0-24 146.2 74 74 0 0 0 24.2-4l2-.7h.3l1.7 1.3c13.5 10.3 29.5 18.4 47.5 24.2a195.3 195.3 0 0 0 59.1 8.9 194 194 0 0 0 59.3-9A153.3 153.3 0 0 0 321 181l1.7-1.3h.3l2 .7a75.1 75.1 0 0 0 99.8-73.5Zm-32.1 49.6a63 63 0 0 1-48.8 16.4 61 61 0 0 1-15.7-3.5l-7.3-2.5h-.3l-6.6 5.1c-25.6 19.7-62 31-99.8 31a183.3 183.3 0 0 1-55.7-8.5c-16.7-5.3-31.5-12.8-43.9-22.3l-6.6-5h-.3l-7.8 2.7a64.8 64.8 0 0 1-20.5 3.4 63.7 63.7 0 1 1 20.3-124l7.8 2.7h.3l6.5-5c25.7-19.7 62.1-31 99.9-31s74.4 11.4 100 31.2l6.6 5h.3l7.3-2.5a65.4 65.4 0 0 1 15.7-3.6 63.7 63.7 0 0 1 48.6 110.4" class="cls-2"/><path id="Skeid" d="m293.9 133.8-8.5-4.8v-28.7a6 6 0 0 0-2-4.3l-3.9-3.4a1.5 1.5 0 0 0-1.7-.2l-11.7 6.8a1.4 1.4 0 0 0-.3 2.3l4.4 3.9V137a5.8 5.8 0 0 0 3 5l6.7 3.7a1.3 1.3 0 0 0 1.6-.1l12.6-9.4a1.5 1.5 0 0 0-.2-2.4m57.3-8.2-1.1-.9a5.4 5.4 0 0 1-2.2-4.4v-13.4a2.8 2.8 0 0 1 1.1-2.2l1.7-1.4a1.4 1.4 0 0 0 .1-2.2L328 81.4s-10.4-8.1-14.6-15.8a.4.4 0 0 0-.6 0c-5.6 10.9.5 20.5 4.4 23.9l4.8 4.1-19.3 11.1a1.5 1.5 0 0 0 0 2.5l1.4.8a2.9 2.9 0 0 1 1.4 2.5v15.9a5.6 5.6 0 0 1-2.3 4.6l-1 .8a.8.8 0 0 0 .1 1.4l22.9 12.8a1 1 0 0 0 .9-.1l25.1-18.9a.8.8 0 0 0 0-1.4m-16.6 1.8-9.5 7.3-1.7-1a5.6 5.6 0 0 1-3-5v-24l8.7-5 3.5 3.1a5.5 5.5 0 0 1 2 4.3ZM277.7 86a1.5 1.5 0 0 0 1.8 0l9.1-7.5a.9.9 0 0 0 0-1.3l-9.1-7.5a1.4 1.4 0 0 0-1.8 0l-9.1 7.5a.9.9 0 0 0 0 1.3Zm-35.8 6.6a1.4 1.4 0 0 0-1.6-.2l-26.2 15.1a1.5 1.5 0 0 0-.1 2.5l1.5.9a2.7 2.7 0 0 1 1.4 2.4v14.4a5.9 5.9 0 0 1-2.1 4.5l-1.4 1a.9.9 0 0 0 .2 1.5l24.3 10.5a5.7 5.7 0 0 0 6.6-1.5l11-12.7c2.3-2.7-1.4-5.6-3.8-3.2s-5.4 5.3-9.9 3.9a63 63 0 0 1-9.7-3.8l23.7-18.8a2.8 2.8 0 0 0 .1-4.4Zm-1.1 20.3-8.7 6.8v-16.6l8.7 7.6a1.4 1.4 0 0 1 0 2.2M125.4 94.7A21.3 21.3 0 0 1 129 91a8.8 8.8 0 0 1 1 1.9.9.9 0 0 0 .8.6c4.5-.2 6-2.1 6-4.6a4.7 4.7 0 0 0-4.7-4.6c-4.4 0-8.2 1.5-13.5 8.2-8.3-2.6-15.4-4.9-15.4-9.6 0-1.4 1.3-4.3 6.9-4.3s9.8 2.7 11.4 4.5c.1.2.4.2.6 0l8.4-11.1a.3.3 0 0 0-.1-.5c-2.2-1.7-9.6-5.1-17.2-5.1-16.2 0-21.3 8.4-21.3 15.9 0 11.1 10.1 15.6 20.2 19.9l-2.2 3.8h-.1c-10.5-4.6-22.4-9.9-22.4-19.9v-.3c.1-.4-.2-.6-.6-.2a11.2 11.2 0 0 0-3.8 8.8c0 9.4 11.4 14.4 22.4 19.2h.1l-3.3 5.7h-.2c-15.7 0-24.9 11.2-24.9 19.2 0 6.2 4.1 8 7.8 8 9 0 14.4-8.7 19.3-17.4l.2-.3c10.2 3.7 13.8 14.6 14.4 17.1.1.3.4.4.6.2 12.3-9.2 25-18.7 25-32.3 0-10.7-9.3-15.6-19-19.1m-36.5 41.7c-1.2 0-1.8-.6-1.8-2s1.8-6.4 9.9-6.7c-3.3 5.1-6.2 8.7-8.1 8.7m35-3.7c-2.1-3.3-7-9.7-14.9-12.3l2.5-4.1c5.3 2.5 10.3 5.3 12.5 9.2.2.2.5.2.6 0a9.3 9.3 0 0 0 2.6-6c0-4.7-5.4-7.9-11.3-10.7l2.3-3.9c7.6 3.5 13.8 7.6 13.8 15.5 0 4.1-3.8 8.1-8.1 12.3m81.2-1.5c-5.7-.5-10.8-2.6-14.2-6.7 5.6-4.9 9.3-11.1 9.3-18.3 0-11.6-6.9-13.7-9.4-13.7s-5.5 1.5-13.5 6.1l-6.6 3.8V92.3c0-14.1 2.8-20.7 7.1-26.4.2-.2 0-.6-.3-.6-10.3.4-15.7 7.7-17.7 10.4a8.4 8.4 0 0 0-5.2-2.2 14.2 14.2 0 0 0-4.6.6.4.4 0 0 0-.2.6c4 4.3 5.8 10.9 5.8 20.6v32.4a5.8 5.8 0 0 1-2.2 4.5l-1.3 1.1a.8.8 0 0 0 .1 1.4l1.7.7a3 3 0 0 1 1.7 2.7v7c0 .2.1.4.3.4h14.5c.2 0 .3-.2.3-.4v-10.3a74 74 0 0 0 7.9-2.7c1.9 4.2 7.4 13.6 13.3 13.6a7.4 7.4 0 0 0 5.3-2c1.8-1.9 6.5-7 8.6-11.2a.9.9 0 0 0-.7-1.3m-34.4-4.7v-16.4c4.3-2.4 9.3-5.1 10.8-5.1s3.7 1.4 3.7 5.3c0 7.7-5.3 12.9-14.5 16.2" class="cls-2"/></g></g></svg>