<svg xmlns="http://www.w3.org/2000/svg" fill="none" viewBox="0 0 75 75"><path fill="#231F20" d="M37.489 0C58.147 0 75 16.842 75 37.489 75 58.158 58.147 75 37.489 75 16.853 75 0 58.158 0 37.5S16.853 0 37.489 0"/><path fill="#F32735" d="M37.49 1.491c19.835 0 36.019 16.184 36.019 36.009a36 36 0 0 1-1.338 9.715H2.818A35.8 35.8 0 0 1 1.48 37.5c0-19.835 16.185-36.009 36.01-36.009"/><path fill="#FF9E18" d="M72.16 47.204C67.907 62.358 53.96 73.51 37.479 73.51c-16.458 0-30.405-11.162-34.66-26.305z"/><path fill="#fff" d="M37.488 13.542c13.202 0 23.97 10.768 23.97 23.958 0 13.213-10.757 23.97-23.97 23.97-13.18 0-23.947-10.757-23.947-23.97-.01-13.19 10.768-23.958 23.947-23.958"/><path fill="#1A428A" d="M37.489 15.022c4.638 0 8.958 1.414 12.543 3.837-.712.373-1.283.888-1.184 1.733 0 .098.022.23.066.416h2.599a.72.72 0 0 1 .723.713.73.73 0 0 1-.723.724h-2.16c.153.438.317.92.471 1.392h2.982a.73.73 0 0 1 .724.724.73.73 0 0 1-.724.724h-2.489c.11.318.209.603.275.855.087.285.175.581.263.866h3.234a.72.72 0 0 1 .713.724.71.71 0 0 1-.713.712h-2.807c.165.549.318 1.086.472 1.634h3.3c.395 0 .735.318.735.713a.72.72 0 0 1-.735.724h-2.95c.143.592.264 1.184.363 1.787h3.772c.394 0 .712.318.712.713a.72.72 0 0 1-.712.723h-3.553c.066.658.12 1.316.142 1.985h3.882a.74.74 0 0 1 .735.724.73.73 0 0 1-.735.723h-3.882a20 20 0 0 1-.142 1.996h3.553a.72.72 0 0 1 .712.724.72.72 0 0 1-.712.723h-3.772a26 26 0 0 1-.362 1.777h2.938a.74.74 0 0 1 .735.723.73.73 0 0 1-.735.724h-3.3c-.154.537-.307 1.075-.472 1.623h2.807a.72.72 0 0 1 .713.724.71.71 0 0 1-.713.712h-3.234c-.088.285-.176.581-.263.867-.066.24-.165.537-.275.855h2.49a.73.73 0 0 1 .723.724.73.73 0 0 1-.724.723h-2.971c-.154.472-.318.954-.471 1.393h2.16a.73.73 0 0 1 .723.723.73.73 0 0 1-.723.724h-2.6a1.7 1.7 0 0 0-.065.395c-.099.844.472 1.36 1.184 1.732a22.36 22.36 0 0 1-12.543 3.838 22.3 22.3 0 0 1-12.522-3.838c.701-.373 1.26-.899 1.184-1.732a3 3 0 0 0-.088-.395h-2.599a.72.72 0 0 1-.712-.724.72.72 0 0 1 .712-.723h2.16a70 70 0 0 0-.471-1.393H22.17a.72.72 0 0 1-.713-.724.72.72 0 0 1 .713-.723h2.489c-.11-.318-.198-.603-.275-.855-.087-.286-.164-.582-.263-.867h-3.224a.72.72 0 0 1-.723-.712.73.73 0 0 1 .723-.724h2.797c-.154-.548-.318-1.086-.45-1.623h-3.311a.72.72 0 0 1-.713-.724.72.72 0 0 1 .713-.723h2.95l-.363-1.777h-3.75a.73.73 0 0 1-.723-.723.73.73 0 0 1 .723-.724h3.553a20 20 0 0 1-.143-1.996H18.29a.72.72 0 0 1-.713-.723.72.72 0 0 1 .713-.724h3.892c.011-.658.055-1.316.143-1.985h-3.553a.73.73 0 0 1-.723-.723.72.72 0 0 1 .723-.713h3.75c.11-.603.23-1.195.362-1.787h-2.95a.72.72 0 0 1-.712-.724c0-.395.318-.713.713-.713h3.311c.143-.548.307-1.085.45-1.634h-2.797a.72.72 0 0 1-.723-.712.73.73 0 0 1 .723-.724h3.224c.099-.285.176-.581.263-.866.088-.252.165-.537.274-.855h-2.488a.72.72 0 0 1-.713-.724.72.72 0 0 1 .713-.724h2.982c.164-.471.329-.954.471-1.392h-2.16a.72.72 0 0 1-.712-.724c0-.395.318-.713.712-.713h2.599c.044-.175.066-.318.088-.416.087-.834-.483-1.36-1.184-1.733a22.27 22.27 0 0 1 12.522-3.838"/><path fill="#231F20" d="m35.406 17.555.241-.175.23.197c.812.647 1.14.932 1.557 1.294.154.12.318.263.614.526.209-.208.428-.394.636-.58.395-.33.8-.593 1.086-.746l.208-.12.209.13c.778.494 1.798 2.051 2.631 3.773.79 1.666 1.393 3.52 1.425 4.77a7.17 7.17 0 0 1-1.239 4.32 8.3 8.3 0 0 1-1.26 1.425c.657.132 1.15.724 1.15 1.447v.921c0 .8-.646 1.459-1.457 1.459-.121.361-.286.701-.527 1.02a3.7 3.7 0 0 1-1.48 1.184l-.318.065-.088 1.13c.11-.011.23-.044.373-.044 1.349 0 1.425.088 2.16.713.099.087.22.197.33.274.887.745 2.104 2.259 3.014 3.794.768 1.337 1.338 2.719 1.338 3.794 0 .526 0 1.293.066 2.072.066.713.164 1.392.329 1.743.164.33.307.603.438.855.242.483.472.878.691 1.503.011.044.022.098.055.142.22.636.647 1.568 1.195 2.314a22.6 22.6 0 0 1-6.118 2.544c-.165-.987-.472-1.93-.69-2.38-.067-.164-.143-.318-.21-.471-.164-.373-.23-.494-.482-.505-.285-.01-.548-.01-.767-.01-.691 0-1.152.01-1.678-.472-.504-.482-.724-1.075-.647-1.875.066-.614.33-1.37.8-2.325.242-.504.527-.756.812-.855a3.9 3.9 0 0 1-1.009-1.118.7.7 0 0 1-.12.23c-.143.252-.34.471-.614.658.416.23.603.658.438 1.47-.208 1.03-.592 1.556-1.184 1.852-.099.044-.197.088-.274.12.329.319.537.812.69 1.569.023.12.066.285.11.471.099.384.198.768.198 1.152 0 .899-.373 1.535-1.634 1.535h-.263c-.888.022-1.24.044-1.645-1.086a11 11 0 0 1-.439-1.502c-.087-.285.066.307-.044-.142-.043-.165-.208-1.185 0-1.876-.142-.01-.263-.01-.383-.021-.088 0 .263.01.383.01-.087 0-.274 0-.635-.021a2.9 2.9 0 0 1-.889-.176 2.6 2.6 0 0 1-.756-.471 3.16 3.16 0 0 1-.866-1.228c-.1-.264-.143-.527-.11-.757.022-.263.12-.482.274-.658a1.65 1.65 0 0 1-.778-.767 1.5 1.5 0 0 1-.176-.834 1.9 1.9 0 0 1 .241-.811c.121-.209.275-.395.494-.56-.56-.142-.954-.482-1.152-.92a1.8 1.8 0 0 1-.153-.834c.01-.263.099-.526.23-.778.34-.658 1.075-1.206 2.15-1.24a2.22 2.22 0 0 1-.637-1.227c0-.011 0-.088-.01-.143-.154-.855-.275-1.623 1.83-2.27.648-.197 1.152-.098 1.722.055l-.12-1.645-.319-.043a3.7 3.7 0 0 1-1.502-1.185 4 4 0 0 1-.504-1.02c-.811 0-1.47-.657-1.47-1.458v-.92c0-.373.143-.703.362-.966a8 8 0 0 1-1.118-1.622 8.25 8.25 0 0 1-.932-3.893c0-1.787.669-3.53 1.623-5.088 1.228-1.995 2.95-3.673 4.364-4.693"/><path fill="#F32735" d="M37.17 23.366c-.877.757-1.82 1.601-2.522 2.599-.724 1.075-1.206 2.335-1.042 3.903.044.527.198 1.01.428 1.503.12.285.285.58.472.877h3.903c.088-.12.165-.241.241-.384.11-.165.22-.34.417-.636.767-1.195.866-2.697.482-4.123-.383-1.458-1.25-2.85-2.379-3.739"/><path fill="#FF9E18" d="M35.625 18.4c-1.294.986-2.807 2.5-3.893 4.276-.888 1.425-1.513 3.037-1.513 4.66a7.4 7.4 0 0 0 .855 3.52 6.8 6.8 0 0 0 1.02 1.48h1.425a7 7 0 0 1-.285-.56 5.6 5.6 0 0 1-.504-1.787c-.175-1.83.373-3.3 1.228-4.528.833-1.217 1.94-2.171 2.95-3.026l.24-.198.231.176c1.448 1.008 2.555 2.686 3.026 4.462.439 1.667.318 3.443-.603 4.858-.11.153-.24.384-.383.603h1.085a7.8 7.8 0 0 0 1.842-1.853 6.3 6.3 0 0 0 1.097-3.838c-.044-1.14-.614-2.873-1.349-4.44-.69-1.46-1.513-2.764-2.15-3.301-.218.142-.47.318-.745.537-.274.22-.559.483-.8.768l-.263.307-.318-.263c-.318-.264-.614-.538-.91-.768-.33-.307-.603-.537-1.283-1.086M46.919 54.65c-.33-.976-.647-1.393-1.13-2.39-.438-.922-.482-3.027-.482-4.09 0-1.996-2.478-5.604-3.959-6.843-.866-.712-.712-.778-1.93-.778-.646 0-.504.702-1.896.702-.373-.011-1.349.142-1.985-.011-.713-.165-1.26-.428-1.897-.23-1.557.482-1.294.964-1.206 1.502.11.888 1.228 1.282 2.215 1.304 1.414.011 2.171-.701 2.873-.723.636-.011.888.614 1.14.745 1.173.56.965.965.757 1.985-.285 1.392-.263 3.63 1.886 4.331.723.23 1.26.45 1.414.757.23.427-.329.954-.603.92-.767-.054-1.667-1.04-2.116-.12-.822 1.689-.921 2.533-.318 3.103.482.439 1.118.055 2.445.307.471.099.855 2.478 1.776 2.325 1.218-.22 3.378-2.084 3.016-2.796M40.516 36.229c-.274.603-.745 1.096-1.458 1.414l-1.667.011h-.756l-1.678-.011c-.713-.318-1.173-.811-1.447-1.415z"/><path fill="#FF9E18" d="m32.226 44.54 4.123.022c1.689-.12 1.875 2.138-.493 2.138h-4.233c-1.59 0-1.25-2.17.603-2.16M32.917 47.73l4.1-.01c1.69-.121 1.875 2.116-.504 2.116h-4.221c-1.656 0-1.48-2.105.625-2.105M35.066 53.947c1.37 0 1.82 0 2.105 1.448.165.92.746 2.149-.548 2.149-.669 0-.877.12-1.118-.537-.242-.658-.275-.8-.45-1.525-.044-.153-.318-1.546.01-1.535M32.26 50.899l1.468-.011c.318 0 .362.285.878.362 1.14.153 1.206-.428 2.16-.428.701 0 1.283-.099 1.118.713-.285 1.458-.976 1.349-2.138 1.37-.548.011-1.513-.043-2.094-.065-.384-.011-.812-.055-1.13-.34-.658-.603-.987-1.59-.263-1.601"/><path fill="#F32735" d="m66.732 34.66-1.886.165.087 1.085c.055.472.1.768.165.888a.57.57 0 0 0 .318.318c.164.088.34.11.581.099.23-.022.417-.088.548-.197a.76.76 0 0 0 .274-.428c.055-.165.044-.493 0-.987zM69.55 34.408l-1.634.154.066.767c.044.472.066.746.099.855a.83.83 0 0 0 .285.44c.153.098.34.142.58.109.21-.011.374-.066.494-.176a.6.6 0 0 0 .22-.34c.01-.12 0-.504-.055-1.129zM48.245 10.493l.187-2.752-1.678 2.193zM20.504 13.509l1.02 1.611.92-.58c.417-.264.648-.44.746-.549a.7.7 0 0 0 .143-.439c0-.164-.066-.34-.176-.537a1 1 0 0 0-.438-.417.65.65 0 0 0-.494-.054c-.164.043-.471.197-.888.45zM19.023 11.107l.867 1.403.658-.416c.383-.252.636-.417.712-.483a.7.7 0 0 0 .263-.471c.022-.165-.021-.362-.153-.57-.11-.176-.23-.307-.384-.362a.56.56 0 0 0-.416-.022c-.132.044-.45.22-.987.548zM9.67 28.926H6.918l2.303 1.524z"/><path fill="#FF9E18" d="m55.812 62.171-2.26-1.557 1.02 2.555zM32.63 33.157h8.761c.362 0 .647.307.647.658v.91a.65.65 0 0 1-.646.658H32.63a.66.66 0 0 1-.658-.658v-.91a.66.66 0 0 1 .658-.658"/><path fill="#fff" d="m3.617 34.44 1.184-6.337 1.546.285-.8 4.276 1.546.285.746-3.97 1.502.286-.746 3.97 1.897.35.823-4.408 1.59.296-1.207 6.47zM15.755 23.793l-1.678-.252-1.447 2.73 1.162 1.228-1.008 1.92-5.79-6.613L8.058 20.8l8.739 1.03zm-3.322-.526-3.125-.515-.011.021 2.193 2.292zM16.249 18.53l.076.055.088.055c.077.043.143.076.208.11.165.087.33.153.494.175.46.066.888-.099 1.294-.505.285-.285.46-.58.515-.888.066-.307-.01-.57-.23-.778-.22-.22-.494-.286-.823-.176-.219.066-.701.33-1.425.779l-.143.087-.153.088c-.132.066-.263.132-.373.198a4.5 4.5 0 0 1-.932.328c-.822.176-1.513-.021-2.061-.58-.549-.56-.735-1.229-.538-2.018.165-.658.549-1.294 1.152-1.897.92-.921 1.787-1.338 2.598-1.272q.447.016.878.263c.11.066.23.132.34.208l.142.11.132.099-1.349 1.524-.143-.099-.164-.099a1.8 1.8 0 0 0-.395-.12c-.34-.033-.69.12-1.03.46-.23.23-.384.46-.45.702-.077.263-.044.483.131.647.176.175.428.197.746.088.209-.077.614-.307 1.228-.691l.176-.11.208-.12c.153-.088.307-.176.439-.242.361-.186.69-.306.997-.383.834-.176 1.557.044 2.171.647.055.066.121.12.176.197.077.099.142.197.208.307.176.296.285.614.33.932.142.954-.275 1.908-1.25 2.884a5.9 5.9 0 0 1-1.317 1.009q-.888.477-1.743.329a2.7 2.7 0 0 1-.888-.318 1.6 1.6 0 0 1-.34-.23 3 3 0 0 1-.285-.23zM21.095 9.89l-2.203 1.206-.812-1.491 6.24-3.432.81 1.491-2.203 1.206 3.136 5.713-1.843 1.009zM31.37 4.11l4.155-.328.307-.011c.241-.011.45 0 .636.022.482.055.866.208 1.162.471.428.362.658.823.702 1.37.066.856-.307 1.47-1.108 1.865v.022l.066.022.099.022c.088.022.164.033.241.066.208.065.395.164.56.274.493.329.767.822.822 1.49.044.494-.055.955-.296 1.36q-.343.609-.965.889c-.252.12-.592.208-1.02.274q-.263.033-.592.066l-4.134.329zm2.346 3.071 1.37-.11.274-.033c.209-.032.373-.076.505-.142.329-.143.482-.417.45-.811-.034-.373-.22-.604-.57-.691a2.2 2.2 0 0 0-.538-.055l-.296.01-1.338.11zm.263 3.377 1.656-.131.274-.033c.197-.033.361-.088.493-.154.35-.164.515-.46.483-.877-.033-.428-.242-.69-.636-.8a2 2 0 0 0-.56-.066l-.274.01-1.59.121zM41.83 3.858l6.293 1.404-.34 1.535-4.243-.943-.34 1.535 3.936.877-.329 1.492-3.936-.878-.417 1.886 4.375.976-.35 1.58-6.426-1.437zM51.435 6.523l1.71.998.252 5.943.022.011 2.522-4.33 1.689.986-4.134 7.094-1.754-1.02-.253-5.855-.022-.01-2.478 4.254-1.688-.987zM60.416 17.938l2.456 2.83-2.554 2.214-.143-.022-.153-.033c-.132-.033-.242-.065-.362-.098a5 5 0 0 1-.834-.307c-.723-.34-1.381-.856-1.962-1.524q-1.365-1.58-1.185-3.224c.11-1.02.636-1.93 1.58-2.763 1.129-.987 2.313-1.36 3.541-1.13.877.154 1.71.691 2.5 1.601.11.12.197.23.274.33.11.142.208.262.296.394q.33.51.494.987c.274.888.11 1.743-.494 2.554l-1.612-1.304.033-.066.033-.077c.022-.066.044-.12.066-.186.055-.154.099-.307.11-.46.022-.407-.132-.801-.483-1.196-.537-.614-1.151-.855-1.842-.702a2.5 2.5 0 0 0-.811.33c-.209.12-.417.262-.614.449-1.382 1.195-1.601 2.335-.68 3.399.373.428.932.756 1.655.976l.68-.592-1.151-1.37zM61.995 29.67l1.272-1.14-1.184-2.852-1.69.12-.833-1.995 8.783-.263.878 2.094-6.36 6.086zm2.522-2.227 2.39-2.083-.01-.022-3.159.23zM70.888 31.216l.219 2.083-6.48.68.427 4.013-1.688.176-.647-6.097zM30.361 63.025h5.965v1.58h-3.86v1.699h3.323v1.524h-3.322v3.421H30.36zM44.945 68.651q-.688 2.73-3.563 2.73-2.073 0-3.125-1.315c-.593-.746-.9-1.722-.9-2.906 0-1.404.395-2.478 1.196-3.235.723-.69 1.655-1.03 2.796-1.03 1.864 0 3.037.822 3.53 2.478l-1.94.45-.022-.067-.022-.065c-.022-.066-.055-.132-.077-.198a2.3 2.3 0 0 0-.263-.416c-.296-.34-.702-.516-1.206-.516-.768 0-1.294.351-1.601 1.053a3.2 3.2 0 0 0-.252 1.228c-.011.088-.011.186-.011.285v.307c.01.142.022.263.032.395.033.329.1.614.198.866.285.69.811 1.03 1.568 1.03.57 0 1.009-.219 1.316-.668.11-.154.197-.33.274-.538.033-.087.055-.164.077-.252l.021-.11.022-.087z"/><path fill="#fff" fill-rule="evenodd" d="M53.662 66.524c.274-.373.142-.768-.242-1.119l-.657-.58c-.22-.198-.285-.308-.198-.418.088-.12.198-.153.439-.01l.614.35c.493.296 1.096.285 1.414-.142.307-.417.23-.812-.175-1.097-.274-.186-.69-.186-1.086-.022l-.745.275c-.12.032-.209.032-.296-.033-.143-.1-.143-.209-.066-.307a1 1 0 0 1 .318-.253l.636-.361c.186-.1.307-.198.384-.307.208-.285.24-.878-.187-1.163a.815.815 0 0 0-1.13.209c-.13.175-.208.405-.284.8l-.088.406c-.033.131-.055.23-.11.307-.076.11-.252.164-.427.044-.11-.077-.154-.209-.143-.494l.011-.614c-.01-.427-.164-.669-.34-.79-.384-.262-.866-.23-1.173.198-.34.46-.099.976.384 1.327l.438.307c.285.197.285.416.187.548-.077.099-.209.12-.428.022l-.79-.384c-.438-.208-.876-.087-1.14.263a.71.71 0 0 0 .165 1.02c.296.198.592.252 1.14.044l.548-.208c.285-.11.395-.11.505-.033.087.066.077.241 0 .35a.74.74 0 0 1-.252.22l-.57.34c-.165.11-.319.241-.417.384-.274.372-.253.79.12 1.03.505.351.91.132 1.174-.219a.9.9 0 0 0 .153-.34l.12-.669c.034-.197.132-.438.187-.515s.22-.11.33-.044c.087.066.175.296.164.56l-.011.449c0 .384.164.756.394.91.384.252.845.142 1.13-.241M24.771 66.524c.274-.373.143-.768-.24-1.119l-.659-.58c-.219-.198-.285-.308-.197-.418.088-.12.197-.153.438-.01l.614.35c.494.296 1.097.285 1.415-.142.307-.417.23-.812-.175-1.097-.275-.186-.691-.186-1.086-.022l-.746.275c-.12.032-.208.032-.296-.033-.142-.1-.142-.209-.065-.307a1 1 0 0 1 .318-.253l.636-.361c.186-.1.306-.198.394-.307.209-.285.241-.878-.186-1.163a.815.815 0 0 0-1.13.209c-.131.175-.208.405-.285.8l-.087.406c-.033.131-.055.23-.099.307-.077.11-.252.164-.428.044-.11-.077-.153-.209-.142-.494l.01-.614c-.01-.427-.164-.669-.34-.79-.383-.262-.865-.23-1.172.198-.34.46-.1.976.383 1.327l.45.307c.285.197.285.416.186.548-.076.099-.208.12-.427.022l-.79-.384c-.45-.208-.877-.087-1.14.263a.71.71 0 0 0 .164 1.02c.296.198.593.252 1.14.044l.549-.208c.285-.11.395-.11.504-.033.088.066.077.241 0 .35a.75.75 0 0 1-.252.22l-.57.34c-.165.11-.318.241-.417.384-.274.372-.252.79.12 1.03.505.351.911.132 1.174-.219a.9.9 0 0 0 .154-.34l.12-.669c.033-.197.132-.438.187-.515s.219-.11.329-.044c.087.066.175.296.164.56l-.01.449c0 .384.164.756.394.91.35.252.811.142 1.096-.241" clip-rule="evenodd"/></svg>