<svg xmlns="http://www.w3.org/2000/svg" fill="none" viewBox="0 0 80.47 87"><path fill="#060E59" d="M73.622 18.555a23.9 23.9 0 0 0-7.08-4.905V7.764C66.543 3.476 63.06 0 58.729 0H21.776c-4.304 0-7.815 3.476-7.815 7.736v5.886a23.9 23.9 0 0 0-7.08 4.905C2.494 22.955.059 28.785.002 34.979c-.057 6.279 2.407 12.22 6.937 16.733a24.26 24.26 0 0 0 10.845 6.279v9.782c0 5.409 4.502 7.904 7.192 8.913 1.614.588 3.285 1.653 3.313 1.681l.368.252a6.5 6.5 0 0 0 3.115 3.812l5.522 2.971L40.237 87l2.945-1.598 5.522-2.97a6.34 6.34 0 0 0 3.115-3.812s2.067-1.318 3.68-1.934c2.69-1.01 7.193-3.504 7.193-8.913v-9.754a24.26 24.26 0 0 0 10.845-6.279c4.53-4.512 6.994-10.454 6.937-16.733 0-6.222-2.435-12.052-6.852-16.452"/><path fill="#F60" d="M39.247 41.65v40.305l-5.55-2.971c-.765-.392-1.246-1.15-1.303-2.018l-1.076-15.472c-.255-3.7-3.37-6.587-7.135-6.587h-.029c-11.043 0-20.245-8.94-20.16-19.9.085-10.65 8.721-19.34 19.51-19.563-7.73 1.233-11.355 6.614-11.355 11.94 0 6.418 5.691 11.631 11.75 11.631 3.483 0 8.156-1.513 9.033-1.821 3.058-1.065 6.315 1.233 6.315 4.456"/><path fill="#F60" d="M25.74 61.27c-1.246-1.233-.906-3.223-.538-4.485-.34-.056-.68-.112-1.048-.112h-.028c-.793 0-1.586-.056-2.379-.14v11.24c0 1.906 1.02 3.868 4.616 5.24 2.038.758 4.049 2.075 4.049 2.075l-.935-13.454c-1.302.449-2.775.589-3.737-.364M41.285 41.65v40.305l5.55-2.971c.764-.392 1.246-1.15 1.303-2.018l1.076-15.472c.254-3.7 3.37-6.587 7.135-6.587h.028c11.044 0 20.246-8.94 20.161-19.9-.085-10.65-8.721-19.34-19.51-19.563 7.73 1.233 11.355 6.614 11.355 11.94 0 6.418-5.691 11.631-11.75 11.631-3.484 0-8.156-1.513-9.034-1.821-3.086-1.065-6.314 1.233-6.314 4.456"/><path fill="#F60" d="M54.763 61.27c1.246-1.233.907-3.223.538-4.485.34-.056.68-.112 1.048-.112h.028c.793 0 1.586-.056 2.379-.14v11.24c0 1.906-1.02 3.868-4.616 5.24-2.038.758-4.049 2.075-4.049 2.075l.935-13.454c1.33.449 2.775.589 3.737-.364"/><path fill="#fff" d="M36.047 10.903v4.54h-2.548V3.869h5.295v2.158h-2.747v2.775h2.548v2.102zM44.994 13.566v-1.794h2.407v1.513c0 1.57-.736 2.355-2.237 2.355h-2.293c-1.501 0-2.237-.785-2.237-2.355v-7.23c0-1.57.736-2.355 2.237-2.355h2.293c1.501 0 2.237.784 2.237 2.354v1.093h-2.407V5.746a.45.45 0 0 0-.084-.252c-.057-.085-.142-.113-.255-.113h-1.133a.35.35 0 0 0-.255.113c-.056.084-.113.168-.113.252v7.82a.34.34 0 0 0 .113.252c.057.084.142.112.255.112h1.133c.085 0 .17-.028.255-.112a.45.45 0 0 0 .084-.252M28.911 27.496v-2.41h4.39v5.577c0 2.074-.992 3.111-2.946 3.111h-3.001c-1.954 0-2.945-1.037-2.945-3.111v-9.445c0-2.075.991-3.112 2.945-3.112h3.002c1.953 0 2.944 1.037 2.944 3.111v1.43h-3.143v-1.822c0-.112-.056-.224-.141-.336a.46.46 0 0 0-.312-.14h-1.5a.46.46 0 0 0-.312.14.46.46 0 0 0-.142.336v10.23c0 .113.057.225.142.337.085.084.198.14.311.14h1.501a.46.46 0 0 0 .312-.14.46.46 0 0 0 .141-.337v-3.56zM44.626 21.218v9.445c0 2.074-.99 3.111-2.944 3.111h-3.143c-1.954 0-2.945-1.037-2.945-3.111v-9.445c0-2.075.99-3.112 2.945-3.112h3.143c1.953 0 2.944 1.037 2.944 3.111m-3.312 9.837v-10.23c0-.112-.057-.224-.142-.336a.46.46 0 0 0-.311-.14H39.36a.46.46 0 0 0-.312.14.46.46 0 0 0-.141.336v10.23c0 .113.056.225.141.337.085.084.198.14.312.14h1.5a.46.46 0 0 0 .312-.14c.085-.112.142-.224.142-.337M53.149 18.106c1.954 0 2.945 1.037 2.945 3.111V33.55H52.78v-5.101h-2.407v5.1h-3.313V21.219c0-2.075.991-3.112 2.945-3.112zm-2.775 7.792h2.407v-5.073c0-.112-.057-.224-.142-.336a.46.46 0 0 0-.311-.14h-1.501a.46.46 0 0 0-.311.14.46.46 0 0 0-.142.336z"/></svg>