<svg xmlns="http://www.w3.org/2000/svg" viewBox="113.29 9.44 273.42 482.06"><defs><clipPath id="a"><path d="M0 0h500v500H0Z"/></clipPath></defs><g clip-path="url(#a)" data-name="Layer 1"><path fill="#fddb00" d="M113.293 220.194c0 84.412.102 137.667.266 139.095.142 1.265.387 3.59.57 5.162.163 1.57.593 4.632.96 6.815.347 2.163.755 4.428.897 5.019.142.613.53 2.204.856 3.55.306 1.347.696 2.817.818 3.265.143.449.714 2.346 1.306 4.204a129 129 0 0 0 2.408 6.814 246 246 0 0 0 2.223 5.306c.49 1.04 1.408 2.937 2.04 4.203a69 69 0 0 0 2.02 3.754c.47.775.837 1.489.837 1.552 0 .08.816 1.468 1.816 3.059 1 1.613 2.857 4.409 4.142 6.203 1.264 1.796 2.978 4.123 3.816 5.163a270 270 0 0 0 3.428 4.223c1.06 1.266 2.876 3.347 4.06 4.612 1.162 1.286 3.305 3.489 4.713 4.897 1.429 1.428 3.51 3.469 4.632 4.509 1.123 1.06 3.51 3.203 5.326 4.775 1.794 1.55 5.039 4.182 7.182 5.856 2.162 1.672 6.182 4.549 8.936 6.426 2.776 1.858 6.857 4.49 9.1 5.836 2.245 1.347 5.06 2.979 6.244 3.613 1.203.652 3.163 1.713 4.345 2.386 1.206.653 4.245 2.204 6.795 3.469a308 308 0 0 0 8.694 4.08c2.243.98 4.426 1.959 4.875 2.163.45.204 2.347.98 4.224 1.735 1.858.755 4.673 1.856 6.243 2.448 1.552.613 5.409 1.938 8.55 3 3.121 1.04 7.161 2.285 8.957 2.755s3.53.979 3.856 1.122c.348.122 1.041.244 1.572.244.53 0 1.224-.122 1.572-.244.325-.143 2.06-.653 3.856-1.122s5.836-1.714 8.957-2.755c3.143-1.062 6.999-2.387 8.55-3a314 314 0 0 0 6.243-2.448c1.877-.755 3.776-1.531 4.224-1.735s2.632-1.183 4.877-2.162c2.243-1 6.16-2.837 8.69-4.081 2.552-1.265 5.591-2.816 6.796-3.47 1.184-.672 3.143-1.733 4.346-2.385 1.183-.634 4-2.266 6.244-3.613s6.325-3.978 9.1-5.836c2.755-1.877 6.775-4.754 8.937-6.426 2.142-1.674 5.387-4.305 7.183-5.856 1.815-1.572 4.203-3.714 5.325-4.775 1.122-1.04 3.203-3.081 4.632-4.51 1.408-1.407 3.55-3.61 4.713-4.896 1.183-1.265 3-3.346 4.06-4.612a259 259 0 0 0 3.428-4.223c.837-1.04 2.55-3.367 3.815-5.163a134 134 0 0 0 4.143-6.203c1-1.591 1.816-2.978 1.816-3.06 0-.062.367-.776.836-1.551a68 68 0 0 0 2.02-3.754c.632-1.266 1.55-3.162 2.04-4.203.47-1.062 1.47-3.45 2.224-5.306a129 129 0 0 0 2.409-6.814c.59-1.858 1.163-3.755 1.305-4.204.123-.448.51-1.918.817-3.264.327-1.347.714-2.938.856-3.551.144-.591.552-2.856.899-5.02.367-2.182.796-5.243.959-6.814.183-1.571.428-3.897.57-5.162.163-1.428.266-54.683.266-139.095V83.424H113.293Z"/><path fill="#231f20" d="M335.39 123.418v23.669c.94.224 2.145.265 3.266.224l2.02-.081.286-21.221 4.877-.285c1.57-4 1.998-5.203 1.979-5.244-.041-.041-1.591-.103-3.47-.123l-3.386-.061-.143-14.834h5.714c1.468-3.897 1.897-5.182 1.897-5.366 0-.265-1.49-.347-6.53-.347h-6.51Zm-33.054.06.062 23.752c10.998 0 11.18-.021 12.63-.714.817-.388 1.898-1.123 2.408-1.633s1.245-1.591 1.633-2.428l.714-1.49c.122-31.79.08-33.911-.307-35.237-.244-.817-.795-2-1.224-2.653-.428-.632-1.305-1.49-1.938-1.918-.632-.428-1.571-.918-2.102-1.102-.612-.204-2.938-.306-6.448-.306h-5.51Zm-17.852-23.382c-.062.184-.307 1.857-.531 3.734s-.714 5.979-1.102 9.12c-.367 3.143-.877 7.244-1.102 9.1-.224 1.878-.653 5.368-.938 7.755-.286 2.407-.775 6.509-1.081 9.12a467 467 0 0 1-.796 6.387c-.123.898-.185 1.734-.123 1.836.06.123 1.184.224 2.489.224 1.612 0 2.469-.101 2.674-.347.163-.183.366-1.326.469-2.53.102-1.183.285-3.387.449-4.897.143-1.49.326-3.182.407-3.734l.144-1.02 6.366.143c.55 5.264.856 8.019 1.04 9.508l.327 2.735c3.998.102 5.243.04 5.366-.082.122-.102-.163-3.204-.612-6.855a10380 10380 0 0 1-2.041-16.875c-.693-5.611-1.612-13.141-2.061-16.731-.428-3.591-.795-6.632-.795-6.733 0-.123-1.898-.205-4.204-.205-3.142 0-4.264.082-4.345.347m-26.322-.184c-.143.123-.224 10.325-.204 23.69l.06 23.485c.939.245 3.653.265 6.653.224 5.224-.081 5.468-.122 6.917-.816.817-.388 1.918-1.183 2.428-1.755.51-.592 1.184-1.612 1.49-2.285.51-1.102.57-1.816.653-7.611.082-6.02.04-6.49-.51-8.018-.43-1.184-.96-1.98-1.918-2.857l-1.307-1.224c1.673-1.694 2.429-2.795 2.756-3.551.57-1.265.61-1.734.61-7.06-.02-5.202-.06-5.856-.59-7.223-.327-.816-1.122-2.04-1.755-2.713-.653-.674-1.673-1.47-2.265-1.776-.96-.468-1.755-.55-6.937-.611-3.204-.062-5.958 0-6.081.1m-17.915.185c-.061.184-.244 1.612-.428 3.183-.163 1.57-.49 4.264-.694 5.999-.204 1.714-.816 6.733-1.346 11.14-.531 4.428-1.143 9.57-1.368 11.427-.224 1.877-.652 5.366-.938 7.753-.306 2.408-.572 5.1-.612 5.999l-.061 1.633c3.162.122 4.305.102 4.61.02.49-.123.593-.51.898-3.49a377 377 0 0 1 .674-6.12l.326-2.796h6.244c.51 4.102.816 6.876 1.02 8.794.306 3.102.408 3.489.877 3.612.306.082 1.53.102 2.714.06l2.184-.08c-.102-2.755-.572-7.04-1.102-11.305-.531-4.263-1.245-10.201-1.612-13.18-.367-3-.98-8.02-1.367-11.161-.368-3.143-.817-6.754-.96-8.02a105 105 0 0 0-.387-3.06l-.143-.755c-7.345 0-8.447.082-8.53.347m-26.157 23.383.06 23.75 5.04.123.124-19.18 3.407-.123c.368 1.572.612 2.714.796 3.53.164.817 1 4.673 1.857 8.57l1.55 7.08c4.306.103 5.06.042 5.183-.204.082-.203-.041-1.142-.265-2.122-.224-.96-.653-2.795-.94-4.08-.305-1.265-1.121-4.898-1.856-8.06l-1.305-5.754c1.775-1.735 2.632-2.938 3.06-3.795l.735-1.571v-15.507c-1.082-2.306-1.755-3.387-2.204-3.897-.428-.49-1.51-1.265-2.407-1.714l-1.633-.796-11.263.02Zm-17.914 0 .06 23.75c10.407.143 11.754.082 11.978-.204.163-.183.694-1.366 1.163-2.59.469-1.225.857-2.368.857-2.51 0-.184-1.653-.306-4.285-.347l-4.285-.061-.123-15.651 6.06-.142c1.409-3.571 1.816-4.795 1.816-5.02 0-.347-.611-.408-3.876-.408h-3.877l-.123-14.834c5.469.02 6.469-.081 6.673-.326.163-.204.694-1.367 1.163-2.592.469-1.244.857-2.366.857-2.53s-2.55-.265-7.08-.265h-7.06Zm-23.363 0 .08 23.75c10.57-.02 11.244-.081 12.346-.571.673-.305 1.755-1.04 2.408-1.632s1.489-1.734 1.897-2.571l.714-1.49v-34.83c-.98-2.101-1.632-3.182-2.121-3.754-.49-.591-1.572-1.407-2.49-1.856l-1.632-.796-11.264.02Zm-22.2-22.975c.102.408.735 2.999 1.408 5.774.653 2.775 1.428 6.02 1.694 7.203.285 1.204 1.264 5.367 2.183 9.264l1.673 7.06c-.02 13.283.06 17.24.183 17.363.103.103 1.245.164 2.51.123l2.306-.061.306-19.323a711 711 0 0 0 2.55-10.202c.429-1.877 1.102-4.693 1.47-6.265.367-1.57 1.1-4.692 1.632-6.937.53-2.244.959-4.223.959-4.407 0-.265-.653-.327-2.633-.285l-2.631.08c-2.51 12.529-3.245 16.957-3.367 18.63-.163 2.428-.245 2.856-.653 2.918-.408.06-.49-.163-.49-1.755 0-1.163-.632-5.162-1.754-10.814-.98-4.938-1.775-9.02-1.775-9.06s-1.286-.061-2.877-.061h-2.898Zm-20.955 22.975.06 23.75h5.164l.265-21.22c5.162-.102 6.692-.102 6.713-.081.04.04.122 4.856.204 10.69l.142 10.612h4.897l.123-47.481h-5.142c.02 17.834-.061 20.078-.347 20.343-.245.224-1.264.306-3.468.265l-3.122-.061-.143-20.547h-5.427Zm229.22-24.301c-.45.102-1.41.53-2.123.939s-1.714 1.326-2.223 2.04c-.491.694-1.122 1.877-1.408 2.632-.45 1.245-.49 2.734-.572 17.813-.06 11.712 0 16.936.226 18.098.182.898.59 2.183.937 2.857.347.673 1.123 1.673 1.735 2.244.612.552 1.449 1.184 1.877 1.388.408.204 1.408.53 2.224.714.858.183 2.08.265 2.857.163.755-.082 2.142-.571 3.122-1.041 1.142-.591 2.019-1.264 2.53-1.98a19 19 0 0 0 1.367-2.304c.53-1.143.57-1.755.653-8.652.04-5.774 0-7.406-.266-7.406-.184 0-1.265.367-2.387.837-1.122.448-2.183.979-2.388 1.142-.265.245-.346 1.652-.326 5.774 0 4.979-.041 5.509-.55 6.325-.286.49-.96 1.06-1.491 1.285-.53.246-1.326.348-1.815.266-.49-.061-1.265-.47-1.714-.898s-.897-1.183-1.021-1.693c-.101-.511-.204-7.938-.204-16.507 0-12.528.082-15.752.388-16.466.204-.47.592-1.102.878-1.367.285-.245 1.06-.551 1.734-.633.877-.122 1.449-.04 2.04.266.45.244 1.02.816 1.286 1.264.409.694.469 1.552.469 5.917 0 2.796.06 5.183.123 5.306.08.102 1.285-.266 2.673-.837l2.509-1.04c0-10.02-.02-10.04-.816-11.773-.51-1.082-1.285-2.163-2.061-2.857-.734-.653-1.836-1.306-2.714-1.592-.837-.265-2.183-.47-3.101-.448-.898.02-2 .122-2.448.224"/><path fill="#fddb00" d="M263.59 126.213c-.041.184-.082 3.713-.062 7.814l.04 7.489c4.613 0 5.123-.102 5.755-.572.428-.326.959-.938 1.183-1.366.307-.613.408-1.898.408-5.958 0-4.693-.06-5.244-.551-6.04-.305-.49-.877-1.061-1.286-1.306-.51-.265-1.488-.408-3.06-.408-1.632 0-2.346.102-2.427.347m-19.792-17.14a104 104 0 0 1-.45 5.632c-.183 1.428-.57 5.264-.897 8.529s-.53 5.999-.47 6.06c.082.06 1.205.122 2.53.122 1.307 0 2.409-.101 2.47-.224.06-.103 0-1.061-.123-2.102-.143-1.04-.612-5.508-1.061-9.936-.45-4.408-.816-8.733-.816-9.59 0-1.327-.082-1.551-.51-1.551-.45 0-.51.306-.673 3.06m44.317-3c-.245.225-.326 1.062-.286 2.633.02 1.285-.326 5.876-.755 10.223-.448 4.346-.877 8.468-.96 9.182l-.141 1.285c4.856 0 5.162-.041 5.162-.47 0-.265-.306-3.407-.673-6.998s-.796-7.693-.94-9.121a58 58 0 0 1-.305-4.672c0-1.51-.102-2.102-.388-2.224a.84.84 0 0 0-.714.163m19.649 17.405.06 18.037c2.532.123 3.715.04 4.287-.122.652-.184 1.285-.653 1.754-1.286l.755-1c0-29.81-.041-31.136-.47-31.953-.264-.47-.856-1.061-1.285-1.285-.53-.265-1.612-.408-3-.408h-2.162Zm-44.256-10.61.06 7.427c3.409.102 4.205 0 4.918-.347.55-.265 1.184-.776 1.428-1.163.368-.551.47-1.592.552-5.427.08-4.224.04-4.897-.408-5.836-.286-.592-.878-1.306-1.327-1.572-.612-.366-1.367-.49-3.06-.49h-2.245Zm-44.195-7.223c-.122.102-.204 3.775-.184 8.16.04 4.388.122 8.163.184 8.387.1.307.59.408 2.04.408 1.245 0 2.244-.163 2.897-.47.55-.264 1.225-.855 1.51-1.304.429-.715.49-1.511.49-6.734 0-4.713-.081-6.081-.408-6.734-.225-.448-.755-1.061-1.163-1.367-.612-.448-1.143-.55-2.938-.53-1.204 0-2.306.082-2.428.184m-41.054 17.833.06 18.037c3.307.123 4.063.02 4.735-.346.53-.266 1.204-.898 1.51-1.43.53-.917.55-1.448.632-14.548.042-7.488 0-14.527-.101-15.65-.163-1.856-.265-2.121-1.163-3.04l-1-1.02-4.754-.02Z"/><path fill="#231f20" d="M302.684 202.218c-.143.102-.225 56.05-.184 124.342.02 82.534.123 124.14.307 124.14.163 0 1.347-.654 2.65-1.45a274 274 0 0 0 4-2.49 320 320 0 0 0 4.898-3.223 179 179 0 0 0 6.366-4.509 163 163 0 0 0 5.713-4.489 490 490 0 0 0 5.163-4.469c1.407-1.285 4.346-4.1 6.509-6.284 2.162-2.183 5.203-5.428 6.753-7.223 1.53-1.796 3.856-4.673 5.142-6.407 1.286-1.714 3.449-4.836 4.794-6.938 1.327-2.082 3.429-5.753 4.632-8.16 1.204-2.388 2.633-5.387 3.184-6.653.53-1.285 1.592-4.162 2.346-6.407.755-2.244 1.735-5.549 2.183-7.345.449-1.796 1.04-4.61 1.347-6.244.286-1.652.714-4.468.939-6.264.244-1.795.55-5.345.714-7.896.224-3.245.286-26.382.224-78.352l-.081-73.72c-52.214-.102-67.476-.062-67.6.041m-86.492 65.191v65.354c.959.613 2.326 1.408 3.673 2.204 1.346.775 4.1 2.346 6.1 3.51 2.02 1.162 4.04 2.325 4.489 2.59.449.266 2.04 1.185 3.53 2.041a634 634 0 0 1 3.53 2.04c.449.245 2.04 1.163 3.53 2.021 1.49.877 3.08 1.795 3.53 2.04.449.264 2.04 1.183 3.529 2.041 1.49.877 3.082 1.795 3.53 2.06.449.266 1.858 1.061 3.122 1.776 1.266.714 2.817 1.652 3.469 2.081l1.143.755v88.962c-5.162 1.856-7.263 2.591-7.998 2.835-1.368.428-1.368.428-4.081-.489a458 458 0 0 1-4.693-1.633l-1.96-.713-.142-76.822c-7.773-4.55-11.08-6.448-12.344-7.182-1.265-.735-2.735-1.572-3.265-1.877-.51-.306-2.163-1.266-3.673-2.143-1.49-.856-3.224-1.837-3.856-2.203l-1.163-.634v104.47c1.592.796 3.816 1.796 5.978 2.714 2.163.938 5.653 2.367 7.734 3.182a550 550 0 0 0 5.713 2.184 517 517 0 0 0 6.243 2.122c2.387.775 5.203 1.652 6.243 1.918 1.817.47 1.98.49 3.653.021.98-.246 3.183-.898 4.898-1.429 1.713-.55 4.468-1.469 6.1-2.06 1.653-.593 4.836-1.797 7.06-2.653 2.244-.878 5.856-2.347 8.018-3.285 2.164-.918 4.387-1.918 4.959-2.204l1.02-.51V202.034h-24.444c0 100.797-.081 130.097-.204 130.18-.102.06-.633-.144-1.143-.47-.53-.307-2.061-1.204-3.407-1.98-1.347-.775-4.081-2.368-6.101-3.53a962 962 0 0 0-5.774-3.306l-2.102-1.183v-119.71H216.19Zm-86.473-65.19c-.122.101-.203 33.625-.183 74.473.04 46.42.163 75.721.326 78.108.143 2.101.388 4.917.55 6.263.165 1.347.593 4.225.96 6.387.368 2.163 1.04 5.407 1.489 7.203s1.429 5.101 2.184 7.345a129 129 0 0 0 2.592 6.937c.673 1.572 2.1 4.571 3.182 6.673 1.08 2.101 2.857 5.223 3.959 6.938 1.08 1.714 2.714 4.162 3.632 5.447a124 124 0 0 0 3.57 4.714c1.04 1.305 2 2.285 2.102 2.162.122-.122.184-26.627.143-58.906-.061-46.807 0-58.703.265-58.703.183 0 1.102.45 2.04.98.939.55 2.06 1.203 2.51 1.47.449.263 1.979 1.141 3.408 1.958 1.407.815 4.284 2.49 6.366 3.692l3.816 2.184.12 126.281c2 1.734 4.164 3.428 6.123 4.876a173 173 0 0 0 6.774 4.836 215 215 0 0 0 4.897 3.223 279 279 0 0 0 3.999 2.49c1.306.796 2.49 1.45 2.653 1.45.183 0 .245-41.565.203-124.262l-.081-124.26h-24.424c-.101 62.09-.163 80.125-.204 80.125s-3.06-1.733-6.713-3.856c-3.672-2.12-7.753-4.468-9.08-5.243-1.326-.755-2.448-1.47-2.51-1.592-.06-.102-.121-15.772-.162-34.809l-.061-34.626c-18.772-.102-24.322-.062-24.445.041m184.76-39.42c0 .122-.408.733-.92 1.366-.51.633-2.488 2.408-4.406 3.918s-4.264 3.51-5.203 4.407c-.96.918-2.061 2.163-2.49 2.754-.427.592-1.02 1.857-1.326 2.796-.346 1-.592 2.387-.592 3.387 0 .938.246 2.591.55 3.672.308 1.102.859 2.592 1.226 3.347l.673 1.347h25.79c1-2.204 1.51-3.469 1.756-4.203.265-.755.55-2.225.632-3.265.102-1.204.02-2.408-.204-3.265a18 18 0 0 0-.96-2.59c-.326-.674-1.326-2-2.203-2.96-.877-.958-3.305-3.122-5.386-4.774-2.102-1.673-4.428-3.754-5.163-4.59-.755-.858-1.448-1.552-1.57-1.552a.205.205 0 0 0-.204.204m-43.543.47c-.245.387-1.143 1.367-2 2.203-.856.816-2.713 2.387-4.121 3.47-1.408 1.06-3.428 2.814-4.49 3.855-1.326 1.306-2.223 2.51-2.876 3.795-.836 1.693-.938 2.184-1.02 4.49-.081 2.325 0 2.856.755 5.04.469 1.346 1.02 2.733 1.245 3.06l.387.612c19.69 0 25.525-.082 25.669-.204.163-.102.61-.939 1.02-1.837.408-.898.917-2.55 1.162-3.673.307-1.387.389-2.55.266-3.672-.102-.898-.388-2.123-.612-2.714-.245-.592-.9-1.755-1.448-2.59-.551-.818-1.532-1.98-2.184-2.593-.653-.59-2.714-2.326-4.591-3.835-1.856-1.49-4.1-3.49-4.958-4.408-.857-.918-1.612-1.673-1.652-1.673-.062 0-.307.306-.552.673m-44.154 1.021c-.817.918-3.02 2.897-4.877 4.387-1.877 1.51-3.938 3.244-4.591 3.835-.653.613-1.652 1.775-2.203 2.592-.551.836-1.245 2.122-1.51 2.856-.306.898-.47 2.102-.47 3.551 0 1.591.204 2.754.714 4.345.388 1.205.96 2.572 1.266 3.061l.55.878h25.526a19.2 19.2 0 0 0 1.775-3.939c.612-1.856.694-2.55.612-4.774-.081-2.244-.204-2.816-.938-4.346-.511-1.04-1.572-2.49-2.592-3.55-.938-.98-3.182-2.959-4.98-4.387-1.794-1.408-3.793-3.122-4.446-3.775-.653-.673-1.347-1.469-1.551-1.816s-.47-.612-.591-.59c-.103 0-.858.753-1.694 1.672m-43.032-.143c-.735.857-3.061 2.918-5.163 4.591-2.081 1.672-4.407 3.693-5.162 4.51-.755.795-1.714 1.998-2.101 2.672-.41.673-.92 1.898-1.143 2.734-.225.816-.41 2.102-.41 2.857.022.734.185 2.02.369 2.856.204.816.714 2.347 1.163 3.387l.796 1.918h25.994c.756-1.489 1.245-2.652 1.572-3.55.367-.979.632-2.53.714-3.938.08-1.428 0-2.775-.225-3.53-.183-.674-.571-1.653-.857-2.183a24 24 0 0 0-1.142-1.775c-.347-.45-1.346-1.49-2.224-2.347-.877-.836-3.122-2.754-4.98-4.244-1.876-1.489-3.855-3.244-4.406-3.897-.572-.674-1.021-1.285-1.021-1.408a.204.204 0 0 0-.204-.204c-.122 0-.815.694-1.57 1.551"/><path fill="#fddb00" d="M327.189 313.38c-.042 49.867-.02 90.757.061 90.879.061.102 1.102-.98 2.305-2.428 1.184-1.428 2.877-3.611 3.754-4.836.878-1.203 2.265-3.304 3.102-4.651.837-1.348 2.408-4.285 3.49-6.53 1.08-2.245 2.407-5.367 2.917-6.937.53-1.571 1.163-3.652 1.409-4.633.243-.958.632-2.673.877-3.794.387-1.837.447-9.651.591-74.556.082-39.87.123-72.64.082-72.843-.062-.266-2.122-.327-9.305-.327h-9.221Z"/><path d="M246.468 9.943c2.627 6.23 4.595 12.754 6.46 19.252 6.485.368 12.982-.013 19.48.24-2.373 3.16-6.155 4.748-9.074 7.31-2.081 1.51-4.162 3.022-6.282 4.48.267.99.812 2.984 1.079 3.973.457 1.282.94 2.564 1.435 3.833.152.698.443 2.107.595 2.805 1.168 2.88 2.324 5.825 2.55 8.96-4.618-3.72-9.58-6.955-14.225-10.61-1.244-1.066-3.06-.723-4.188.304-4.467 3.643-9.543 6.486-13.731 10.483-.026-3.236 1.256-6.244 2.474-9.188.153-.698.445-2.094.584-2.78.508-1.281.99-2.55 1.459-3.832.267-.977.813-2.944 1.079-3.921-5.038-4.011-11.028-7.044-15.331-11.854 6.168-.114 12.336-.051 18.516.025a188 188 0 0 1 1.409-1.688c1.7-5.99 3.846-11.853 5.71-17.792"/><path fill="none" stroke="#000" stroke-miterlimit="10" d="M246.468 9.943c2.627 6.23 4.595 12.754 6.46 19.252 6.485.368 12.982-.013 19.48.24-2.373 3.16-6.155 4.748-9.074 7.31-2.081 1.51-4.162 3.022-6.282 4.48.267.99.812 2.984 1.079 3.973.457 1.282.94 2.564 1.435 3.833.152.698.443 2.107.595 2.805 1.168 2.88 2.324 5.825 2.55 8.96-4.618-3.72-9.58-6.955-14.225-10.61-1.244-1.066-3.06-.723-4.188.304-4.467 3.643-9.543 6.486-13.731 10.483-.026-3.236 1.256-6.244 2.474-9.188.153-.698.445-2.094.584-2.78.508-1.281.99-2.55 1.459-3.832.267-.977.813-2.944 1.079-3.921-5.038-4.011-11.028-7.044-15.331-11.854 6.168-.114 12.336-.051 18.516.025a188 188 0 0 1 1.409-1.688c1.7-5.99 3.846-11.853 5.71-17.792Z"/></g></svg>