<svg xmlns="http://www.w3.org/2000/svg" id="Layer_1" data-name="Layer 1" viewBox="-21.31 -21.32 342.63 342.63"><defs><style>.cls-1{fill:#00285e}.cls-2{fill:#fff}.cls-3{fill:#b2cfed}.cls-4{fill:#dca369}</style></defs><circle cx="150" cy="150" r="149" class="cls-1" transform="rotate(-9.39 149.984 149.98)"/><path d="M150 7.1C71.21 7.1 7.1 71.21 7.1 150S71.2 292.9 150 292.9 292.9 228.8 292.9 150 228.79 7.1 150 7.1m0 282.69c-77.08 0-139.8-62.71-139.8-139.8S72.92 10.2 150 10.2 289.8 72.91 289.8 150 227.09 289.8 150 289.8Z" class="cls-4"/><circle cx="150" cy="150" r="133.5" class="cls-2"/><circle cx="150" cy="150" r="100.31" class="cls-1" transform="rotate(-45 150.001 149.998)"/><circle cx="150" cy="150" r="94.01" class="cls-2" transform="rotate(-45 150.001 149.998)"/><path d="m55.44 66.54 3.08-3.02 8.8 2.14-1.97-8.84 3.08-3.02 12.73 12.98-2.84 2.78-8.31-8.48 1.78 9.13-.07.07-9-1.94 8.26 8.42-2.8 2.75-12.73-12.98ZM80.7 57.37l-5.65-8.72 3.36-2.18L84 55.11c1.61 2.49 3.69 2.97 5.74 1.64s2.49-3.38.92-5.8L85 42.21l3.36-2.18 5.58 8.61c2.99 4.62 1.87 8.57-2.23 11.23s-8.09 1.99-11-2.5ZM95.76 36.1l4.02-1.57 7.25 5.42 1.65-8.9 4.02-1.57 6.62 16.94-3.7 1.45-4.32-11.06-1.94 9.1-.1.04-7.52-5.32 4.29 10.99-3.65 1.43-6.62-16.94ZM121 27.35l8.32-1.46c2.05-.36 3.76-.08 4.96.76.96.67 1.55 1.6 1.76 2.83v.05c.36 2.02-.51 3.34-1.67 4.28 2.21.43 3.7 1.41 4.13 3.81v.05c.58 3.27-1.79 5.38-5.83 6.09l-8.52 1.5zm8.74 5.93c1.74-.31 2.74-1.06 2.51-2.39v-.05c-.22-1.18-1.25-1.68-2.92-1.39l-3.89.68.67 3.79zm2.32 7.03c1.74-.31 2.68-1.1 2.45-2.43v-.05c-.22-1.2-1.25-1.79-3.27-1.43l-4.55.8.69 3.94 4.68-.82ZM149.3 24.04l3.69.06 7.5 18.44-4.18-.07-1.6-4.11-7.69-.12-1.73 4.05-4.08-.07 8.09-18.19Zm4.04 10.77-2.32-5.94-2.51 5.86zM166.52 25.26l3.96.58-2.65 18-3.96-.58zM183.99 38.07l.02-.05c1.85-4.83 7-7.39 12.22-5.4 3.2 1.23 4.71 3.03 5.7 5.18l-3.43 1.83c-.86-1.69-1.91-2.93-3.61-3.58-2.86-1.1-5.84.49-6.95 3.41l-.02.05c-1.11 2.91-.03 6.11 2.89 7.22 1.94.74 3.43.42 5.23-.28l1.46 3.31c-2.46 1.2-4.85 1.62-8.13.37-5-1.91-7.24-7.19-5.37-12.07ZM208.34 38.5l3.52 1.91-8.7 15.98-3.51-1.91 8.7-15.98ZM219.26 49.39l-4.5-3.22 2.14-3 12.27 8.76-2.14 3-4.5-3.22-8.43 11.8-3.26-2.33 8.43-11.8ZM230.5 68.15l2.96-12.7 3.28 3.34-2.17 8.21 8.3-1.96 3.18 3.24-12.7 2.68-5.17 5.08-2.8-2.85 5.12-5.02ZM70.16 225.72l7.46 7.22-1.9 1.96-5.31-5.14-2.02 2.09 4.68 4.53-1.9 1.96-4.68-4.53-3.67 3.79-2.16-2.09 9.49-9.8ZM75.2 239.99l.02-.03c2.29-3.13 6.64-3.88 10.04-1.39s3.98 6.81 1.69 9.94l-.02.03c-2.29 3.13-6.64 3.88-10.04 1.39s-3.98-6.81-1.69-9.94m9.17 6.72.02-.03c1.38-1.89 1.15-4.47-.8-5.9s-4.43-.88-5.81 1.01l-.02.03c-1.38 1.89-1.15 4.47.8 5.9s4.43.88 5.81-1.01M90.12 250.56l.02-.03c1.78-3.45 5.95-4.87 9.69-2.94s4.99 6.1 3.21 9.55l-.02.03c-1.78 3.45-5.95 4.87-9.69 2.94s-4.99-6.1-3.21-9.55m10.1 5.21.02-.03c1.07-2.08.44-4.6-1.71-5.7-2.15-1.11-4.51-.18-5.58 1.9l-.02.03c-1.07 2.08-.44 4.6 1.71 5.7 2.15 1.11 4.51.18 5.58-1.9M111.09 255.82l-3.91-1.38.92-2.61 10.66 3.76-.92 2.61-3.91-1.38-3.62 10.25-2.83-1 3.62-10.25ZM121.61 256.38l6.19 1.32c1.52.33 2.64 1 3.23 1.93.48.74.63 1.55.43 2.46v.04c-.33 1.51-1.31 2.17-2.38 2.5 1.42.92 2.18 2.02 1.79 3.81v.04c-.53 2.44-2.77 3.23-5.78 2.59l-6.35-1.36 2.85-13.34Zm4.04 12.12c1.3.28 2.18-.01 2.39-1v-.04c.2-.9-.35-1.59-1.85-1.91l-3.39-.73-.63 2.93 3.49.75Zm.37-5.54c1.3.28 2.21.03 2.42-.96v-.04c.2-.88-.38-1.52-1.62-1.78l-2.9-.62-.6 2.82 2.71.58ZM140.64 259.45l2.76.2 4.85 14.13-3.13-.23-1.02-3.14-5.75-.41-1.46 2.96-3.05-.22 6.82-13.29Zm2.57 8.24-1.49-4.54-2.13 4.28zM152.03 260.01l3-.17.62 10.89 6.79-.39.16 2.72-9.78.56-.78-13.62ZM164.79 259.04l2.96-.52 1.88 10.75 6.7-1.17.47 2.69-9.65 1.69-2.35-13.43ZM186.19 261.26v-.04c-1.41-3.62.18-7.63 4.09-9.14 2.4-.92 4.15-.68 5.78.03l-.99 2.74c-1.33-.51-2.54-.67-3.81-.18-2.15.83-3.01 3.2-2.17 5.39v.04c.85 2.18 3.06 3.42 5.25 2.58 1.46-.56 2.12-1.49 2.77-2.78l2.48 1.11c-.77 1.9-1.89 3.34-4.35 4.28-3.75 1.44-7.64-.38-9.05-4.03M198.25 248.91l2.64-1.43 5.18 9.6 5.98-3.23 1.3 2.4-8.63 4.66-6.48-12ZM213.66 249.23l-4.54-6.34 2.44-1.75 4.49 6.28c1.29 1.81 2.87 2.09 4.36 1.03 1.49-1.07 1.75-2.62.49-4.38l-4.55-6.35 2.44-1.75 4.48 6.26c2.41 3.36 1.7 6.36-1.28 8.49s-5.99 1.77-8.33-1.49M221.89 233.35l4.59-4.37c1.13-1.08 2.31-1.61 3.42-1.59.88.02 1.63.36 2.28 1.03l.03.03c1.06 1.11 1.06 2.3.73 3.37 1.56-.65 2.9-.66 4.16.67l.03.03c1.72 1.81 1.11 4.11-1.12 6.23l-4.7 4.48-9.41-9.88Zm7.92.07c.96-.91 1.27-1.8.57-2.54l-.03-.03c-.62-.65-1.48-.53-2.39.34l-2.14 2.04 1.99 2.09 2-1.91Zm4.37 3.43c.96-.91 1.22-1.8.52-2.54l-.03-.03c-.63-.66-1.52-.6-2.63.46l-2.51 2.39 2.07 2.17 2.58-2.46ZM217.53 205.91H82.47c2.85 3.43 5.95 6.64 9.28 9.6h116.51c3.33-2.96 6.43-6.17 9.28-9.6ZM195.25 225.11h-90.49c13.22 7.99 28.7 12.6 45.25 12.6s32.03-4.6 45.25-12.6ZM70.35 186.7c1.53 3.32 3.27 6.52 5.19 9.6h148.92c1.92-3.08 3.66-6.29 5.19-9.6zM68.57 132.4h162.87v6.96H68.57zM210.96 169.74v-.02h5.47v-3.02h15.01v-25.63H68.57v25.63h15.01v3.02h5.47v.02c0 2.56 1.85 4.69 4.29 5.13H65.89q.33 1.125.69 2.22h166.84q.36-1.11.69-2.22h-27.44a5.21 5.21 0 0 0 4.29-5.13M95.2 174.87a5.21 5.21 0 0 0 4.29-5.13v-.02h12.01v.02c0 2.56 1.85 4.69 4.29 5.13zm22.45 0a5.21 5.21 0 0 0 4.29-5.13v-.02h5.47v-3.02h45.19v3.02h5.47v.02c0 2.56 1.85 4.69 4.29 5.13h-64.7Zm66.56 0a5.21 5.21 0 0 0 4.29-5.13v-.02h12.01v.02c0 2.56 1.85 4.69 4.29 5.13zM66.17 132.4h-2.1a87.8 87.8 0 0 0-1.77 17.35v.51c.02 5.62.57 11.11 1.6 16.44h2.28v-34.3ZM235.94 132.4h-2.1v34.3h2.28c1.05-5.41 1.6-10.99 1.6-16.69 0-6.03-.61-11.91-1.78-17.6Z" class="cls-1"/><rect width="9.56" height="9.56" x="130.55" y="145.22" class="cls-4" rx="1.75" ry="1.75"/><rect width="9.56" height="9.56" x="115.91" y="145.22" class="cls-4" rx="1.75" ry="1.75"/><rect width="9.56" height="9.56" x="86.63" y="145.22" class="cls-4" rx="1.75" ry="1.75"/><rect width="9.56" height="9.56" x="71.99" y="145.22" class="cls-4" rx="1.75" ry="1.75"/><rect width="9.56" height="9.56" x="218.39" y="145.22" class="cls-4" rx="1.75" ry="1.75"/><rect width="9.56" height="9.56" x="203.75" y="145.22" class="cls-4" rx="1.75" ry="1.75"/><rect width="9.56" height="9.56" x="189.11" y="145.22" class="cls-4" rx="1.75" ry="1.75"/><rect width="9.56" height="9.56" x="145.19" y="145.22" class="cls-4" rx="1.75" ry="1.75"/><rect width="9.56" height="9.56" x="101.27" y="145.22" class="cls-4" rx="1.75" ry="1.75"/><rect width="9.56" height="9.56" x="174.47" y="145.22" class="cls-4" rx="1.75" ry="1.75"/><rect width="9.56" height="9.56" x="159.83" y="145.22" class="cls-4" rx="1.75" ry="1.75"/><path d="M233.4 122.91C221.96 87.77 188.91 62.3 150 62.3s-71.96 25.47-83.4 60.61z" style="fill:#6caddf"/><path d="m230.99 122.91-73.36-49.59-7.63 5.16 65.73 44.43zM84.27 122.91 150 78.48l-7.63-5.16-73.36 49.59z" class="cls-3"/><path d="M215.73 122.91 150 78.48l-65.73 44.43z" class="cls-2"/><path d="M233.42 122.91h-64.08l-9.58-39.92-.83-11.58h-2.39l-.83 11.58-5.71 29.93-5.71-29.93-.83-11.58h-2.39l-.83 11.58-9.58 39.92H66.58q-.36 1.11-.69 2.22h168.23q-.33-1.125-.69-2.22ZM157.8 89.19l4.49 33.72h-8.35zm-15.59 0 3.86 33.72h-8.35z" style="fill:#092264"/><path d="M274.59 139.63v13.54c0 4.25-3.44 7.69-7.69 7.69s-7.69-3.44-7.69-7.69v-13.54h2.66v2.66h1.74v-2.66h2.33v2.66h1.76v-2.66h2.33v2.66h1.76v-2.66h2.81ZM40.79 139.63v13.54c0 4.25-3.44 7.69-7.69 7.69s-7.69-3.44-7.69-7.69v-13.54h2.66v2.66h1.74v-2.66h2.33v2.66h1.76v-2.66h2.33v2.66h1.76v-2.66h2.81Z" class="cls-1"/></svg>