<svg xmlns="http://www.w3.org/2000/svg" fill="none" viewBox="0 0 73.71 90"><path fill="#050505" d="M72.52 58.887c-1.127-1.394-2.923-2.164-5.041-2.164H49.803c5.03-3.98 8.654-9.98 9.747-15.701.97.814 3.602 3.702 4.494 4.617 2.018-8.632-1.405-19.728-7.405-26.753 2.62-1.885 4.383-5.72 4.137-10.427-2.33.011-2.564.223-5.732-.279-2.52-2.375-2.865-4.382-9.21-6.189L47.761.04C44.039-.206 38.35.709 36.6 2.08 34.838.71 29.16-.205 25.437.04c0 0 1.918 1.951 1.93 1.951-6.346 1.807-6.703 3.814-9.212 6.19-3.178.501-3.39.29-5.732.278-.257 4.662 1.528 8.576 4.137 10.427-6.01 7.026-9.423 18.11-7.416 26.753.881-.893 3.558-3.825 4.506-4.617 1.081 5.72 4.717 11.72 9.746 15.701H0s6.546 2.654 5.61 7.316L1.672 82.528l61.601.022c3.903 0 7.037-2.453 7.807-6.1l.736-3.39c.245-1.204.156-2.375-.235-3.4a7.5 7.5 0 0 0 1.394-2.878l.011-.045.558-2.821c.413-1.907.045-3.691-1.026-5.03"/><path fill="#fff" fill-rule="evenodd" d="M16.947 68.433c-.524 2.52-2.732 4.226-5.453 4.226h-1.35l-1.527 7.238H4.926l3.736-17.564c.29-1.706-.235-2.554-1.327-2.944v-.011h6.969c2.755 0 4.193 1.695 3.67 4.215zm-3.58-5.687h-1.115l-.48 2.286-.322 1.472c-.324 1.64-1.071 2.42-2.209 2.776l-.01.012h2.732c.669 0 1.204-.413 1.349-1.093l.937-4.36c.122-.68-.235-1.093-.881-1.093" clip-rule="evenodd"/><path fill="#fff" d="M27.592 59.378h-1.305l-3.512 16.415c-.145.68-.68 1.082-1.327 1.082-.67 0-1.026-.402-.87-1.082l3.512-16.415h-5.665000000000001v.011c1.16.413 1.673 1.327 1.272 3.245l-2.822 13.159c-.557 2.665.97 4.46 3.848 4.46 2.866 0 5.185-1.795 5.743-4.46l3.323-15.5q-1.125-.39-2.197-.915M39.914 61.162c-1.204 1.372-1.85 1.907-2.409 2.308l-.379 1.773-1.237 5.599-.067-7.282a14.3 14.3 0 0 1-2.543-2.398 20 20 0 0 1-2.04-.424l-4.071 19.159h3.691l.915-4.338 1.572-7.115.123 11.453h4.226l4.06-19.103q-.904.234-1.84.368"/><path fill="#fff" fill-rule="evenodd" d="M58.647 59.378 56.74 79.897h-3.903l.68-4.952h-2.264l-1.438 4.952H46.09l5.52-16.505.167-.758c.402-1.918-.123-2.832-1.282-3.245v-.011h8.152m-3.457 3.658h-.524l-.97 3.379-.804 2.787q-.09.448-.234.814c-.39 1.038-1.048 1.584-1.951 1.863l-.011.011h3.233zM70.97 63.38l-.557 2.788c-.29 1.238-1.115 2.498-2.353 3.022l-.056.179c1.149.535 1.494 1.85 1.238 3.178l-.736 3.345c-.502 2.409-2.587 4.026-5.23 4.026h-5.409l3.725-17.486c.334-1.795-.19-2.665-1.316-3.066v-.011h7.204000000000001c2.61 0 4.026 1.617 3.49 4.025m-6.256 7.661h-1.293l-.58 2.71c-.324 1.64-1.082 2.42-2.22 2.777l-.01.011h2.955c.68 0 1.204-.413 1.327-1.082l.702-3.29c.145-.68-.2-1.126-.88-1.126m1.617-8.308h-1.115l-.513 2.376c-.323 1.65-1.082 2.43-2.219 2.788l-.011.01h2.743c.67 0 1.205-.445 1.35-1.126l.646-2.966c.112-.669-.234-1.082-.88-1.082" clip-rule="evenodd"/><path fill="#fff" d="M49.636 59.378H45.61q-.435.212-.88.401c.523.435.769 1.104.668 2.153L42.51 75.38c-.145.703-.703 1.15-1.372 1.15h-1.405l-.713 3.367h1.616c2.788 0 4.952-1.695 5.51-4.282zM31.961 50.054c1.628 1.305 1.662-1.472 1.662-1.472-1.773-.836-2.632-3.836-2.632-3.836s-.647 4.015.97 5.308M28.858 33.984c-.859 3.435 2.654 7.405 2.654 7.405-.424-5.721 1.36-7.662.279-8.308-1.93-.904-2.744.156-2.933.903M27.98 19.632c.802.38 1.784.09 2.453-.647-.346 0-.703-.044-1.06-.145a.76.76 0 0 1-.624.324.77.77 0 0 1-.758-.915 4.5 4.5 0 0 1-1.071-.914c-.134.981.268 1.918 1.06 2.297M41.229 50.054c1.628-1.293.98-5.308.98-5.308s-.858 3-2.63 3.836c0 0 .033 2.777 1.65 1.472M41.687 41.389s3.502-3.97 2.654-7.405c-.19-.747-1.003-1.807-2.933-.903-1.081.646.703 2.587.28 8.308M45.204 19.632c.803-.379 1.204-1.316 1.07-2.297-.29.334-.646.658-1.07.914a.771.771 0 0 1-.758.914.75.75 0 0 1-.625-.323c-.368.1-.725.145-1.06.145.67.736 1.64 1.026 2.443.647M36.601 50.02c-.457-.457-1.394-.512-1.94-.334-1.338.435-.613 1.55-.613 1.55a17 17 0 0 1 2.553-.178c.636 0 1.45.022 2.554.178 0 0 .725-1.115-.624-1.55-.547-.178-1.472-.123-1.93.334M33.79 35.636s.425-1.227.425-1.93c0 0 2.085.904 2.386-.356.301 1.26 2.386.356 2.386.356 0 .703.424 1.93.424 1.93.536-.636.67-1.963.714-2.498.045-.524-.435-.569-.435-.569-1.55-.134-2.32-.067-3.089-.067s-1.539-.067-3.089.067c0 0-.48.045-.435.569.034.535.167 1.862.714 2.498"/><path fill="#F15B2B" d="M29.04 89.921h1.37l.012-1.829h2.565v-1.014h-2.565v-.948h3.77v-1.004h-5.153zM42.98 88.863a3 3 0 0 0-.157-.212 3 3 0 0 0-.145-.212 2 2 0 0 0-.122-.167.3.3 0 0 1-.045-.078 3.4 3.4 0 0 1-.424.3q-.223.135-.49.224a2.8 2.8 0 0 1-.558.145q-.3.055-.636.055-.423 0-.78-.089a1.8 1.8 0 0 1-.625-.256 1.3 1.3 0 0 1-.412-.435 1.1 1.1 0 0 1-.156-.58q0-.223.067-.413.066-.2.2-.356.123-.145.301-.268.18-.123.38-.2a1.8 1.8 0 0 1 .468-.124 2.8 2.8 0 0 1 1.06.012q.267.045.535.145.255.089.49.234.246.144.435.312l.056-.067q.056-.066.123-.167.078-.09.167-.212a2 2 0 0 1 .156-.2q.067-.102.123-.168a.3.3 0 0 0 .056-.078 5 5 0 0 0-.491-.368 3 3 0 0 0-.614-.312 4.7 4.7 0 0 0-.758-.201 5.3 5.3 0 0 0-.948-.078q-.457 0-.88.089-.425.09-.77.245a2.6 2.6 0 0 0-.647.38q-.29.223-.48.512-.2.279-.312.614-.1.334-.1.714 0 .557.212.992.222.446.635.758.413.313 1.026.469.614.166 1.417.178.49 0 .914-.078.423-.067.77-.19.345-.122.635-.29.279-.155.48-.345l-.045-.067zM27.633 32.87s3.2-.98 6.379-1.683c.691-.156 1.405-.513 1.505-1.283.212-1.728-1.46-2.676-2.665-3.49-.848-.569-1.528-1.35-2.04-2.23-.057-.1-.904-1.729-.748-1.807-1.628.88-2.587 2.007-3.1 3.19.77.735 2.933 1.75 2.933 1.75s-2.275-.457-3.357-.334a7.8 7.8 0 0 0-.078 1.895c.903.469 3.435.714 3.435.714s-2.186.312-3.19.77c.346 1.472.926 2.509.926 2.509M22.705 48.738c.992.914 2.263 1.438 3.423 1.539 0 0-4.472-5.576-1.672-12.4 0 0-2.532 1.627-3.268 6.623 0 0-3.423-4.114-2.308-12.623 0 0-3.056.948-4.54 2.186 0 0 .882-6.747 4.406-14.286 0 0-8.397 9.58-7.862 20.765 0 0 2.543-2.677 4.45-3.245 0 0 .802 12.969 11.854 19.426q.802.469 1.684.892s-.402-.335-1.004-.893c-1.673-1.572-4.896-4.95-5.163-7.984M46.657 26.983c-1.081-.123-3.356.334-3.356.334s2.163-1.015 2.933-1.75c-.525-1.183-1.472-2.31-3.112-3.19.168.078-.68 1.706-.736 1.806-.513.881-1.204 1.662-2.052 2.23-1.204.815-2.877 1.763-2.654 3.491.09.77.814 1.127 1.495 1.283 3.189.702 6.39 1.684 6.39 1.684s.568-1.038.925-2.51c-1.015-.457-3.19-.769-3.19-.769s2.521-.245 3.436-.714a7.8 7.8 0 0 0-.079-1.895"/><path fill="#F15B2B" d="m19.475 18.105.747-1.439c-2.52-1.918-3.044-3.479-3.044-3.479 2.62 1.126 7.66.078 7.66.078-4.638 6.88-4.616 10.404-4.616 10.404 2.61 3.48 4.293 4.115 4.293 4.115 1.216-4.706 6.022-7.728 6.022-7.728-4.226 1.818-5.085-1.784-5.085-1.784-1.784-.279-2.252-.557-2.252-.557 2.074-2.833 4.672-1.729 5.832-.736 1.16 1.003 1.505 1.048 2.52 1.36 1.015.324 2.52-2.487 2.52-2.487-.446 2.086-.412 3.58-.412 3.58 1.338.312 2.063 1.137 2.063 1.137-4.327-.48-4.661.558-4.728 1.751-.079 1.193.635 1.673.635 1.673s.848-.981 2.42-.257c1.573.714 1.896.703 2.554.703.647 0 .97.011 2.554-.703 1.572-.724 2.42.257 2.42.257s.713-.48.635-1.673-.401-2.23-4.728-1.75c0 0 .714-.826 2.063-1.138 0 0 .033-1.494-.424-3.58 0 0 1.506 2.81 2.532 2.487 1.014-.312 1.36-.357 2.52-1.36 1.16-.993 3.758-2.097 5.832.736 0 0-.468.278-2.253.557 0 0-.858 3.602-5.085 1.784 0 0 4.796 3.022 6.022 7.728 0 0 1.684-.635 4.282-4.114 0 0 .034-3.524-4.605-10.405 0 0 5.04 1.048 7.661-.078 0 0-.524 1.561-3.044 3.48l.747 1.438s4.516-2.007 4.717-7.338c0 0-5.977.123-11.877-3.2 0 0 2.063-.38 4.996.156 0 0-6.267-6.836-12.1-1.718 0 0 1.227-2.263 2.767-3.445 0 0-3.647.568-5.632 2.252C34.619 3.128 30.96 2.56 30.96 2.56c1.55 1.182 2.777 3.445 2.777 3.445-5.832-5.118-12.11 1.718-12.11 1.718 2.932-.536 5.006-.156 5.006-.156-5.91 3.323-11.876 3.2-11.876 3.2.19 5.33 4.717 7.338 4.717 7.338M36.595 53.088c-10.906 0-5.286-7.048-9.267-11.71.87 10.461-.569 9.67 2.186 13.728.234-.959.858-1.74.858-1.74.413 1.484.96 2.577 1.461 3.358.725 1.115 1.35 1.583 1.35 1.583-.056-.513-.023-1.126.01-1.584.034-.379.068-.635.068-.635q.123.323.245.636c.446 1.07.97 1.951 1.461 2.654.29.423.58.78.825 1.059.469.546.792.825.803.836 0-.01.402-.345.937-1.003.212-.246.446-.547.691-.892a14 14 0 0 0 1.45-2.654q.135-.313.256-.636s.034.256.067.636c.034.457.067 1.07.011 1.583 0 0 .625-.468 1.35-1.584.502-.78 1.048-1.873 1.46-3.356 0 0 .614.78.86 1.74 2.754-4.06 1.315-3.268 2.185-13.728-3.981 4.661 1.628 11.71-9.267 11.71"/><path fill="#F15B2B" d="M36.605 47.02c.033 0 4.327-.022 3.803-6.3 0 0-.112-1.863-1.049-1.662-1.048.212-1.94 1.227-2.754 1.227-.825 0-1.706-1.015-2.755-1.227-.936-.2-1.048 1.662-1.048 1.662-.524 6.278 3.77 6.3 3.803 6.3M58.859 34.063c-1.483-1.238-4.539-2.186-4.539-2.186 1.115 8.509-2.308 12.623-2.308 12.623-.736-4.995-3.268-6.624-3.268-6.624 2.8 6.825-1.673 12.4-1.673 12.4 1.16-.1 2.432-.624 3.424-1.538-.268 3.033-3.49 6.412-5.163 7.984-.602.558-1.004.893-1.004.893q.881-.424 1.684-.893c11.051-6.456 11.854-19.425 11.854-19.425 1.907.568 4.45 3.245 4.45 3.245.535-11.186-7.862-20.765-7.862-20.765 3.524 7.539 4.405 14.285 4.405 14.285"/></svg>