<svg xmlns="http://www.w3.org/2000/svg" fill="none" viewBox="13.46 0.46 117.09 143.12"><path fill="#fff" d="m109.767 11.763-4.392-5.112S88.135.67 72 .5C55.865.67 38.625 6.651 38.625 6.651l-4.392 5.112-20.733 10.4c.49 51.308 9.06 93.273 55.887 119.934.271.155 2.514 1.429 2.605 1.433.126.006 2.382-1.297 2.682-1.467 46.723-26.622 55.331-68.168 55.826-119.9z"/><path stroke="#2B2B2A" stroke-miterlimit="22.926" stroke-width=".089" d="m109.767 11.763-4.392-5.112S88.135.67 72 .5C55.865.67 38.625 6.651 38.625 6.651l-4.392 5.112-20.733 10.4c.49 51.308 9.06 93.273 55.887 119.934.271.155 2.514 1.429 2.605 1.433.126.006 2.382-1.297 2.682-1.467 46.723-26.622 55.331-68.168 55.826-119.9z"/><path fill="#00904F" d="m107.252 16.325-4.066-4.733S87.223 6.053 72.283 5.896c-14.94.157-30.904 5.696-30.904 5.696l-4.067 4.733-19.196 9.63s.492 51.55 12.852 72.105c5.012 8.336 11.267 17.188 18.668 23.993 10.498 9.652 21.889 15.884 22.61 16.275-.018-.016-.024-.041.037-.076.06.035.053.06.036.076.72-.391 12.113-6.623 22.61-16.275 7.4-6.805 13.655-15.657 18.668-23.993 12.36-20.556 12.852-72.105 12.852-72.105z"/><path fill="#fff" d="M72 31.15c-21.082 0-38.172 17.147-38.172 38.299S50.918 107.748 72 107.748s38.172-17.147 38.172-38.299-17.09-38.3-38.172-38.3m0 75.066c-20.239 0-36.646-16.461-36.646-36.767S51.761 32.682 72 32.682c20.238 0 36.645 16.46 36.645 36.767 0 20.306-16.407 36.767-36.645 36.767"/><path fill="#fff" fill-rule="evenodd" d="M50.994 95.658s2.474 2.013 7.375 1.495c4.902-.516 8.82-3.618 12.446-4.026s5.512.245 8.446 2.449c2.933 2.203 3.68 2.93 6.127 2.747 3.286-.244 7.62-2.639 7.62-2.639s-3.152 3.346-7.105 4.272c-2.72.637-4.262-.327-5.91-1.714s-4.725-3.727-8.297-3.074-4.264 1.034-5.816 1.742c-1.552.707-5.309 2.176-7.944 2.203-2.636.028-3.98-.734-4.637-1.279s-2.304-2.175-2.304-2.175z" clip-rule="evenodd"/><path fill="#fff" fill-rule="evenodd" d="m58.666 101.86 2.793 1.306s2.555-.844 3.498-1.333c.942-.49 4.29-2.04 6.764-2.094 2.474-.055 3.98.38 5.45 1.251s3.905 2.911 3.905 2.911l2.359-.817s-2.664-1.822-4.067-2.883-4.426-2.801-7.293-2.53-3.884.599-5.409 1.197-3.41 1.632-4.42 2.04-3.579.952-3.579.952z" clip-rule="evenodd"/><path fill="#fff" fill-rule="evenodd" d="m64.577 104.363 3.227.68s2.826-1.299 4.867-1.279c2.717.028 4.393 1.387 4.393 1.387l2.331-.598s-3.234-2.72-7.376-2.53c-4.14.19-7.442 2.34-7.442 2.34M91.604 113.095s-1.053.735-1.87.843c-.819.11-3.498-.19-3.498-.19s-1.513-1.034-3.118-1.115c-1.067-.054-3.546-.68-6.128 1.115-2.582 1.796-.027 4.979-.027 4.979l-2.223-.082s.195-.898.082-2.068c-.116-1.17-1.41-1.332-1.41-1.332s.06-.19-.055-1.088c-.115-.897-1.356-1.251-1.356-1.251s-1.242.354-1.357 1.251c-.114.898-.054 1.088-.054 1.088s-1.295.163-1.41 1.332a7.3 7.3 0 0 0 .082 2.068l-2.223.082s2.554-3.183-.027-4.979c-2.582-1.795-5.06-1.169-6.128-1.115-1.605.081-3.118 1.115-3.118 1.115s-2.679.3-3.497.19c-.82-.107-1.871-.843-1.871-.843s-.05 1.931 1.328 2.938c1.377 1.007 2.114 1.06 2.114 1.06s.603 1.279.95 1.796 1.22 1.115 1.22 1.115-.564-4.026 1.898-4.897c2.461-.87 5.785.298 4.854 3.32-.37 1.199-2.132 1.369-2.699.503-.564-.864.04-2.408.04-2.408s-3.843.816-2.386 4.57c1.459 3.754 5.023 1.823 5.45 1.497.428-.327 2.04-1.035 2.956-1.279.916-.245 1.979-.19 1.979-.19l-.732.708s-2.388.01-3.47 1.333c-2.339 2.856-.462 4.407-.462 4.407s.576-2.585 3.282-2.911c2.704-.327 2.473 1.06 2.494 1.741.02.68-.2 2.249-2.522 1.876-.846-.136-1.79-1.414-1.79-1.414s-.563 2.639.84 3.781 2.387.979 2.387.979.278 1.115.678 1.714c.4.598 1.193 1.305 1.193 1.305s.794-.707 1.194-1.305c.4-.599.677-1.714.677-1.714s.983.163 2.387-.979.84-3.781.84-3.781-.943 1.279-1.79 1.414c-2.322.373-2.542-1.197-2.52-1.876.02-.681-.212-2.068 2.493-1.741s3.28 2.911 3.28 2.911 1.878-1.552-.46-4.407c-1.083-1.323-3.47-1.333-3.47-1.333l-.733-.708s1.064-.054 1.979.19c.916.244 2.528.952 2.956 1.279s3.992 2.258 5.45-1.497-2.387-4.57-2.387-4.57.605 1.544.042 2.408c-.567.866-2.328.696-2.699-.503-.931-3.022 2.393-4.19 4.854-3.32s1.898 4.897 1.898 4.897.873-.598 1.22-1.115c.348-.517.95-1.796.95-1.796s.736-.054 2.115-1.06c1.377-1.007 1.328-2.938 1.328-2.938" clip-rule="evenodd"/><path fill="#fff" d="M72 47.44c-9.224 0-16.703 7.503-16.703 16.758S62.776 80.955 72 80.955s16.702-7.502 16.702-16.757S81.224 47.44 72 47.44m8.9 4.884c1.045.817 2.372 2.27 2.372 2.27s.407 1.579.393 2.858c-.013 1.278-.23 2.611-.23 2.611l-5.233 1.687s-1.6-1.388-2.644-2.163-3.186-2.04-3.186-2.04l.028-5.55s1.37-.653 2.562-1.062 2.725-.49 2.725-.49 1.925.87 3.213 1.877zm-3.64 11.874c0 2.91-2.36 5.279-5.26 5.279-2.902 0-5.261-2.368-5.261-5.28 0-2.91 2.36-5.278 5.26-5.278s5.262 2.368 5.262 5.279M67.059 49.144c.239-.295.61-.56.61-.56s2.681-.799 5.015-.61c2.334.188 3.515.545 3.515.545s.303.256.544.52c.242.265.435.729.435.729s-1.737.14-2.92.607c-1.132.447-2.324 1.059-2.324 1.059s-1.875-.903-2.503-1.117c-1.04-.353-2.714-.512-2.714-.512s.104-.367.342-.66zm-6.33 5.373s1.42-1.568 2.772-2.486c1.099-.746 2.887-1.562 2.887-1.562s1.621.1 2.83.507a20 20 0 0 1 2.404 1.027l-.018 5.515s-1.81 1.098-2.867 1.854c-1.058.757-2.919 2.41-2.919 2.41l-5.252-1.741s-.196-1.508-.214-2.773c-.018-1.264.378-2.75.378-2.75m-4.52 9.74c-.204-.318-.341-.754-.341-.754s.07-2.806.971-4.976c.9-2.167 1.604-3.185 1.604-3.185s.336-.21.661-.358c.326-.15.825-.19.825-.19s-.405 1.699-.327 2.974c.074 1.22.284 2.544.284 2.544s-1.434 1.51-1.831 2.045c-.657.882-1.325 2.43-1.325 2.43s-.315-.213-.52-.53m1.05 1.05s.596-1.516 1.356-2.543c.76-1.026 1.716-1.976 1.716-1.976l5.222 1.721s.48 2.067.87 3.308c.391 1.244 1.383 3.53 1.383 3.53l-3.273 4.474s-1.49-.28-2.694-.652c-1.204-.373-2.492-1.21-2.492-1.21s-1.047-1.84-1.5-3.414c-.367-1.28-.588-3.237-.588-3.237m9.924 13.972c-.365.098-.82.094-.82.094s-2.638-.936-4.416-2.464c-1.777-1.53-2.525-2.515-2.525-2.515s-.094-.385-.135-.742c-.04-.356.076-.845.076-.845s1.485.91 2.717 1.23c1.18.306 2.5.514 2.5.514s.989 1.836 1.372 2.38c.635.9 1.894 2.016 1.894 2.016s-.298.235-.663.332m4.57-.238c-1.324-.045-3.25-.438-3.25-.438s-1.253-1.036-1.991-2.079c-.738-1.042-1.343-2.249-1.343-2.249l3.245-4.45s2.107.179 3.406.19c1.298.013 3.773-.227 3.773-.227l3.229 4.505s-.726 1.336-1.452 2.37c-.725 1.034-1.917 2.003-1.917 2.003s-2.067.431-3.7.376m13.062-5.59c-.02.378-.165.811-.165.811s-1.702 2.228-3.7 3.452c-2 1.223-3.163 1.63-3.163 1.63s-.395-.027-.746-.099c-.351-.071-.778-.332-.778-.332s1.324-1.138 2.007-2.213c.654-1.03 1.26-2.228 1.26-2.228s2.044-.374 2.68-.573c1.048-.327 2.495-1.186 2.495-1.186s.131.358.11.737M86 69.017c-.452 1.25-1.42 2.966-1.42 2.966s-1.37.874-2.587 1.257c-1.216.381-2.547.588-2.547.588l-3.216-4.473s.82-1.955 1.233-3.19c.412-1.236.95-3.671.95-3.671l5.27-1.69s1.04 1.105 1.797 2.118c.755 1.012 1.306 2.449 1.306 2.449s-.23 2.106-.786 3.646m1.272-4.343s-.67-1.613-1.478-2.598c-.774-.942-1.721-1.89-1.721-1.89s.277-2.068.284-2.734c.013-1.102-.352-2.748-.352-2.748s.38-.014.732.123c.353.136.719.407.719.407s1.586 2.313 2.128 4.598.57 3.523.57 3.523-.15.368-.326.68-.555.64-.555.64z"/><path fill="#fff" d="M67.237 64.197c0 2.635 2.137 4.779 4.763 4.779s4.763-2.144 4.763-4.779-2.136-4.779-4.763-4.779-4.763 2.144-4.763 4.78m4.476 4.066c-.452.358-1.053.308-1.492-.15-.425-.445-.583-1.918-.719-2.475-.135-.558-.32-.871-.786-.871s-.425.326-.394.476c.032.15.352.25.501.041s-.08-.3-.08-.3.402-.054.5.287c.088.3-.094.53-.094.53s.077.109.136.204c.058.095.249.354.19.789-.06.436-.272.503-.272.503s-.018-.268-.135-.558c-.081-.2-.267-.416-.38-.53-.062-.061-.361-.2-.61-.434-.234-.223-.343-.585-.311-.776.105-.634.548-.782.838-.807-.29-.027-.733-.173-.838-.808-.032-.19.078-.553.312-.775.249-.235.547-.373.61-.435.112-.113.297-.329.379-.53.117-.29.135-.558.135-.558s.212.069.272.503c.058.436-.132.694-.19.789-.06.095-.136.204-.136.204s.183.23.095.53c-.1.34-.502.286-.502.286s.23-.09.081-.3c-.148-.208-.47-.108-.5.041-.032.15-.073.477.393.477.465 0 .65-.313.786-.87.136-.558.293-2.032.72-2.476.437-.458 1.038-.508 1.49-.15.486.385.236 1.061.123 1.211s-.482.423-.556.462c-.154.083-.332.17-.53.557-.123.245-.202.64-.202.64s-.302-.174-.258-.803c.023-.317.326-.68.326-.68s-.221-.33-.014-.666c.14-.227.42-.15.42-.15s-.126.023-.122.164c.005.14.203.308.42.218.217-.092.235-.531-.096-.585-.33-.055-.523 0-.677.204s-.276.603-.34.925c-.063.321-.171 1.157-.338 1.618-.167.463-.301.578-.46.722-.218.194-.543.23-.543.23l-.04.006.04.004s.325.036.542.232c.16.144.294.259.46.721.169.462.276 1.296.34 1.618.063.321.185.721.339.925s.348.258.677.204.312-.494.096-.584c-.217-.091-.415.077-.42.218a.154.154 0 0 0 .122.163s-.28.077-.42-.15c-.207-.335.014-.666.014-.666s-.303-.363-.326-.68c-.044-.63.258-.803.258-.803s.079.396.203.64c.197.388.375.476.529.558.074.04.443.312.556.462s.363.826-.122 1.211zm-1.478-4.072c0-.979.79-1.772 1.765-1.772s1.765.794 1.765 1.772-.79 1.77-1.765 1.77a1.77 1.77 0 0 1-1.765-1.77m2.052-4.072c.452-.358 1.053-.308 1.492.15.425.444.583 1.917.718 2.475.137.557.321.87.787.87.465 0 .425-.327.393-.476-.031-.15-.353-.25-.502-.04-.149.207.082.298.082.298s-.403.055-.501-.286c-.088-.3.094-.53.094-.53s-.076-.109-.135-.203c-.06-.096-.25-.354-.19-.79.058-.434.271-.503.271-.503s.018.268.136.558c.081.2.267.417.38.53.06.063.36.2.609.435.234.222.343.585.312.776-.106.634-.549.781-.839.807.29.026.733.173.839.807.031.192-.078.554-.312.776-.249.235-.549.373-.61.434-.112.114-.298.33-.38.531-.117.29-.135.557-.135.557s-.212-.068-.271-.503c-.06-.434.131-.694.19-.789s.135-.204.135-.204-.182-.23-.094-.53c.1-.34.501-.286.501-.286s-.231.09-.082.3c.15.208.47.109.502-.042.032-.15.072-.476-.393-.476-.466 0-.65.314-.787.871-.136.558-.293 2.03-.718 2.475-.438.458-1.04.508-1.492.15-.484-.384-.234-1.061-.121-1.211s.48-.423.556-.463c.153-.08.332-.168.529-.557.123-.245.203-.64.203-.64s.302.174.257.803c-.022.317-.326.68-.326.68s.222.331.014.666c-.14.226-.42.15-.42.15s.127-.023.122-.163c-.004-.14-.203-.308-.42-.218s-.235.53.095.584c.33.055.524 0 .678-.204s.275-.602.338-.925c.063-.322.172-1.156.34-1.617.166-.463.3-.578.46-.722.217-.195.543-.231.543-.231l.04-.006-.04-.004s-.326-.036-.543-.231c-.16-.144-.293-.26-.46-.722s-.276-1.296-.34-1.618c-.063-.322-.185-.72-.338-.925-.154-.204-.348-.258-.678-.204s-.312.495-.095.585.416-.077.42-.218c.005-.14-.122-.164-.122-.164s.28-.076.42.15c.208.336-.014.666-.014.666s.304.363.326.68c.045.63-.257.803-.257.803s-.08-.395-.203-.64c-.197-.389-.376-.475-.53-.557-.074-.039-.442-.312-.555-.462s-.363-.825.121-1.21z"/><path fill="#fff" d="M66.927 64.198c0 2.806 2.275 5.09 5.073 5.09 2.797 0 5.073-2.284 5.073-5.09s-2.275-5.09-5.073-5.09c-2.797 0-5.073 2.283-5.073 5.09m10.025 0c0 2.739-2.221 4.968-4.952 4.968s-4.952-2.229-4.952-4.968c0-2.74 2.222-4.968 4.952-4.968s4.952 2.229 4.952 4.968"/><path fill="#fff" d="M75.175 64.19c.045.005.124.01.219 0a1.3 1.3 0 0 0-.22 0M68.825 64.19a1.3 1.3 0 0 0-.22 0c.096.01.175.005.22 0M73.492 64.375s.026-.096.026-.177a.8.8 0 0 0-.026-.177s-.204.041-.394.041c-.055 0-.464-.033-.555-.123-.104-.101-.222-.322-.137-.449.23-.34.652-.04.652-.04s.064-.169-.095-.355c-.258-.303-.678-.163-.678-.163l-.284-.381-.298.38s-.154-.095-.46.015c-.388.137-.313.503-.313.503s.563-.344.678.122c.025.098-.024.23-.088.309-.093.115-.295.143-.467.166-.294.04-.543-.04-.543-.04s-.026.113-.026.204.013.163.013.163.384-.077.8 0c.213.04.447.38.244.598-.203.219-.596-.027-.596-.027s-.095.281.271.49c.194.11.488.027.488.027l.298.367.298-.367s.253.072.474-.014c.314-.123.285-.503.285-.503s-.272.159-.475.096c-.203-.064-.275-.264-.082-.544.194-.281.99-.123.99-.123zM72 64.7l-.394-.502.394-.503.394.502z"/><path fill="#fff" d="m71.745 64.198.255.326.255-.326-.255-.326z"/><path fill="#fff" fill-rule="evenodd" d="m59.65 38.945-.308.156s-.267-.01-.369-.006c-.102.002-.223.002-.223.002s-.12.175-.149.263c-.03.088-.068.217-.068.217l-.261.075-.19-.17s.079-.42.13-.545c.049-.127.155-.307.155-.307s.426-.067.594-.05.45.064.45.064zM71.81 41.705c-14.989 0-27.141 12.1-27.141 27.027 0 7.398 2.986 14.102 7.823 18.982.068.069 1.196-.343 1.196-.343-4.892-4.716-7.934-11.323-7.934-18.64 0-11.034 6.918-20.458 16.669-24.21.173.06.623.25.677.632.068.476-.204.925-.61.98s-.46-.38-.38-.557c.136-.3.542-.22.542-.22s-.309-.626-.922.015c-.339.354-.176.924-.176.924s-.678.205-.895.626a2.8 2.8 0 0 0-.258.912s.326-.558.882-.64 1.252-.251 1.478-.326c.366-.123.623-.626.623-.626l.664.585.326-.912s.27.286.799.15 1.078-.481 1.343-.584c.623-.245 1.124-.014 1.124-.014s-.34-.449-.745-.639c-.407-.19-.963.04-.963.04s-.195-.558-.57-.639c-.826-.176-.813.49-.813.49s.499-.348.665-.027c.163.313-.108.734-.474.693-.366-.04-.732-.38-.692-.789.034-.342.317-.665.406-.76a26 26 0 0 1 3.297-.737c1.084-.122 2.71-.272 2.71-.272s.664.232.718.748c.054.517-.38.857-.597.898-.217.04-.654-.088-.529-.598.073-.295.624-.109.624-.109s-.054-.557-.705-.326c-.652.231-.53.898-.53.898s-.65.026-.948.244-.543.857-.543.857.312-.367 1.018-.299c.704.069 1.202.109 1.463.109.366 0 .733-.38.733-.38l.541.747.515-.775s.285.45 1.044.422c.76-.027 1.139-.245 1.586-.11.447.137.57.287.57.287s0-.408-.461-.789-.963-.272-.963-.272-.05-.552-.298-.749c-.772-.611-1.017.123-1.017.123s.678-.258.665.327-.678.45-.922.177c-.245-.272-.272-.79-.027-1.088.244-.3.501-.34.501-.34s1.889.152 3.118.326c1.343.19 2.847.64 2.847.64s.764.481.285 1.25c-.339.545-.908.26-1.003.11s-.074-.526.15-.584c.257-.069.5.163.5.163s.08-.51-.528-.544c-.719-.04-.84.734-.84.734s-.583-.245-.99-.081c-.406.163-.691.598-.691.598s.528-.163.854-.04c.326.122 1.316.625 1.667.679.353.054.719-.164.719-.164l.298.871.719-.557s.095.421.692.64c.596.217 1.217.264 1.49.352.501.164.774.585.774.585s-.05-.606-.245-.898c-.271-.408-.922-.598-.922-.598s.146-.488-.068-.802c-.592-.87-1.044-.177-1.044-.177s.785-.045.597.543c-.123.381-.76.327-.936-.163s0-.925.203-1.02c.204-.096.53-.19.53-.19s1.825.708 3.608 1.688v-.018c7.872 4.465 13.18 12.894 13.18 22.561 0 7.278-3.011 13.855-7.859 18.567l1.089.448c4.856-4.884 7.856-11.6 7.856-19.015 0-14.926-12.152-27.027-27.142-27.027z" clip-rule="evenodd"/><path fill="#fff" fill-rule="evenodd" d="M95.34 84s-.835.687-.124 1.401c.597.598 1.072.163 1.072.163s-.136-.088-.122-.326.122-.259.122-.259.018.142.068.259c.036.083.109.15.109.15s.175-.164.243-.341c.069-.177.082-.354.082-.354s-.386.307-.501-.04.237-.626.366-.626.513.028.487.612c-.02.496-.433.993-.433.993l.122.122s.272-.217.354-.408c.08-.19.128-.292.203-.339.074-.048.963-.422.963-.422s-.387.837-.434.912c-.048.074-.231.184-.353.231s-.448.34-.448.34l.123.123s.563-.409.908-.395.719.088.691.476c-.027.387-.51.46-.637.381-.305-.191-.028-.517-.028-.517s-.163-.013-.42.11c-.257.122-.271.19-.271.19s.102.102.204.149c.1.047.19.068.19.068s-.177.142-.312.109a.7.7 0 0 1-.258-.15s-.589.59.338 1.266c.57.414 1.18-.245 1.18-.245s.17.632-.243 1.251c-.414.62-1.187.707-1.627.353-.44-.353-.715-.92-.57-1.7.13-.686.651-1.184.651-1.184l-.095-.109s-.352.252-.636 1.007c-.286.755-.332 1.186-.76 1.374-.433.19-2.128.734-2.128.734s.494-1.332.555-1.55.251-.7.57-.884 1.04-.362 1.328-.476c.345-.136.786-.503.786-.503l-.109-.122s-.596.611-1.342.639c-.745.028-1.512-.285-1.708-1.02-.197-.734.523-1.24.909-1.401.453-.19.935-.041.935-.041M104.242 71.281s.768-.387.759-1.687c-.013-2.04-1.572-1.672-1.572-1.672s.739.694.65 1.265c-.115.742-.895 1.006-1.478 1.048-.583.04-.887.006-1.031.013-.141.006-.298.245-.366.326-.068.083-.163.232-.203.232s-.15-.652.149-1.687c.298-1.033 1.206-2.51 1.641-3.25.433-.742 1.307-2.612 1.246-4.271-.06-1.66-1.355-2.218-1.355-2.218s.15-.299.217-.516c.068-.218.079-.488.079-.488l-.55.243s-.057.19-.071.272a3 3 0 0 1-.095.299s-.855-.204-1.707.163c-.76.326-1.493 1.352-1.383 2.61.106 1.213.502 1.17.596 2.218.095 1.047-.23 2.136-.23 2.136s.881-.449 1.043-1.591c.115-.8.109-.973.095-1.005l-.013-.002s.007-.012.013.002c.106.013.875.08 1.329-.629.488-.76 0-1.563 0-1.563s-.172 1.294-1.234.72c-.539-.291-.068-1.279-.068-1.279s.596-.992 1.735-.217.013 3.536-.908 4.882c-.922 1.348-1.857 3.404-1.736 4.434.15 1.269.438 1.827.448 1.769 0 0-1.275 1.578-.664 3.618s1.667 4.198 1.667 5.4c0 1.06-.135 2.04-1.327 2.122-1.44.098-1.29-1.605-.84-1.81.447-.203.813-.18 1.07.205.163.245.081.585.081.585s.594-.62.326-1.415c-.326-.965-1.247-.897-1.247-.897s.118-.543.054-1.32c-.082-.986-.718-1.373-.718-1.373s.076 1.453-.136 2.15c-.25.822-.956 1.48-1.004 2.311-.047.83-.169 2.081 1.261 2.734 1.431.653 2.827-.313 3.281-1.374.455-1.06.434-2.632-.013-4.012-.448-1.381-1.322-3.285-1.37-4.284-.047-1 .136-1.483.136-1.483s.136.02.203.258c.068.238.291.388.393.381.101-.007 1.348.067 1.789.517.44.449.536.899.176 1.387-.358.49-.623.585-.623.585s.881.278 1.41-.395c.529-.674.529-1.815.339-2.23s-.379-.572-.379-.572l.69-.79-.556-.856zM102.52 72.6c-.619-.004-1.18-.68-1.18-.68s.658-.632 1.383-.53c.726.101 1.112.68 1.112.68s-.482.536-1.315.529z" clip-rule="evenodd"/><path fill="#fff" fill-rule="evenodd" d="M102.616 71.54c-.489-.054-.936.421-.936.421s.427.456.882.49c.454.034.962-.409.962-.409s-.421-.449-.908-.503zM39.014 72.044l.69.789s-.188.156-.379.57c-.19.416-.19 1.558.34 2.232.529.673 1.41.394 1.41.394s-.265-.094-.624-.585c-.359-.49-.264-.938.176-1.386.44-.45 1.688-.525 1.79-.517.102.007.325-.143.393-.381.069-.238.204-.259.204-.259s.183.484.136 1.483c-.048 1-.923 2.904-1.37 4.284-.447 1.381-.468 2.952-.013 4.013.454 1.061 1.85 2.027 3.281 1.374 1.43-.653 1.309-1.904 1.26-2.734-.046-.83-.751-1.49-1.002-2.312-.212-.696-.136-2.15-.136-2.15s-.637.388-.718 1.375c-.064.777.054 1.32.054 1.32s-.921-.069-1.247.897c-.268.795.326 1.415.326 1.415s-.082-.34.08-.585c.256-.386.624-.408 1.072-.204s.6 1.908-.84 1.81c-1.193-.082-1.33-1.062-1.33-2.122 0-1.203 1.058-3.36 1.668-5.4s-.664-3.619-.664-3.619c.01.06.298-.5.447-1.769.121-1.03-.813-3.087-1.735-4.433-.923-1.347-2.047-4.108-.909-4.884 1.139-.775 1.735.218 1.735.218s.472.986-.068 1.279c-1.061.574-1.233-.721-1.233-.721s-.488.803 0 1.564c.453.708 1.223.64 1.33.627.004-.013.012-.001.012-.001l-.013.001c-.014.033-.02.206.094 1.005.163 1.144 1.045 1.592 1.045 1.592s-.326-1.089-.232-2.136c.095-1.048.492-1.005.597-2.217.11-1.26-.623-2.285-1.383-2.611-.852-.367-1.708-.164-1.708-.164s-.081-.217-.094-.3c-.014-.08-.07-.271-.07-.271l-.552-.243s.011.27.08.487c.067.217.216.516.216.516s-1.294.558-1.356 2.218c-.06 1.659.814 3.53 1.248 4.27.434.742 1.342 2.217 1.64 3.251.298 1.035.19 1.687.15 1.687s-.137-.15-.204-.232c-.068-.08-.224-.319-.366-.326s-.448.027-1.03-.013c-.584-.042-1.363-.306-1.478-1.048-.089-.571.65-1.265.65-1.265s-1.558-.367-1.572 1.673c-.01 1.299.76 1.686.76 1.686l-.557.857zm.962-.068s.387-.578 1.111-.68c.725-.103 1.384.53 1.384.53s-.56.676-1.18.68c-.834.005-1.315-.53-1.315-.53" clip-rule="evenodd"/><path fill="#fff" fill-rule="evenodd" d="M41.196 71.445c.488-.054.936.422.936.422s-.427.455-.882.49c-.454.033-.962-.409-.962-.409s.42-.449.908-.503M96.155 46.612l-1.03-.193s.053-.24-.052-.685c-.106-.444-.808-1.344-1.638-1.546-.83-.203-1.353.562-1.353.562s.267-.089.85.075c.584.163.786.575.715 1.2-.071.626-1.007 1.457-1.09 1.515-.085.057-.17.313-.076.543.093.23-.001.33-.001.33s-.441-.267-1.018-1.084c-.578-.817-1.06-2.857-1.556-4.22s-1.446-2.613-2.456-3.168c-1.01-.553-2.702-.45-3.427.95-.725 1.398.14 2.308.688 2.932.547.623 1.507.707 2.21 1.199.595.417 1.428 1.607 1.428 1.607s.263-.699-.28-1.526a5 5 0 0 0-.853-1.005s.768-.516.431-1.478c-.278-.792-1.126-.913-1.126-.913s.273.217.295.511c.036.462-.24.707-.717.823-.478.116-1.645-1.13-.45-1.944.989-.674 1.698.013 2.35.848.74.946 1.233 3.3 2.007 5.282.774 1.984 2.747 2.437 2.747 2.437-.044-.04.073.578.735 1.668.538.886 2.538 1.928 4.091 2.417s4.137 1.967 3.717 3.282-1.5.902-1.5.902-.977-.485-.732-1.048c.483-1.11 1.414-.196 1.414-.196s-.109-.934-.961-1.231c-.793-.277-1.356.253-1.432.328.005.015-.01.01-.01.01l.01-.01c-.009-.033-.111-.174-.692-.732-.83-.8-1.8-.607-1.8-.607s.926.655 1.494 1.538c.57.884.232 1.095.893 2.114.687 1.06 1.896 1.414 2.693 1.2.897-.239 1.445-.928 1.445-.928s.199.12.258.177c.061.055.145.162.145.162l.551-.243s-.064-.104-.252-.234c-.187-.13-.488-.273-.488-.273s.677-1.24-.296-2.583c-.971-1.344-2.81-2.275-3.606-2.59-.797-.316-2.42-.915-3.29-1.545s-1.186-1.21-1.154-1.235c.031-.027.198.033.301.055.104.022.373.113.49.03.115-.082.335-.298.82-.626.484-.33 1.26-.603 1.806-.09.42.395.265 1.398.265 1.398s1.453-.676.21-2.29c-.792-1.029-1.634-.858-1.634-.858l-.09-1.019zm-.716.65s.05.694-.457 1.223c-.508.53-1.415.438-1.415.438s.026-.879.51-1.266c.653-.52 1.361-.397 1.361-.397z" clip-rule="evenodd"/><path fill="#fff" fill-rule="evenodd" d="M94.805 48.433c-.35.346-.996.247-.996.247s.056-.622.393-.93 1.008-.275 1.008-.275-.055.614-.405.958M71.804 35.815l-.846.619s-.138-.204-.532-.432c-.395-.227-1.53-.332-2.246.134-.717.466-.52 1.372-.52 1.372s.119-.255.637-.568c.52-.315.956-.178 1.361.303.405.48.364 1.734.349 1.835s.112.338.342.427c.23.09.238.227.238.227s-.496.139-1.484 0c-.989-.14-2.798-1.189-4.127-1.761-1.329-.574-2.887-.739-3.98-.382-1.096.356-2.183 1.663-1.666 3.151.517 1.49 1.77 1.481 2.598 1.511s1.546-.614 2.386-.79c.71-.148 2.145.063 2.145.063s-.326-.673-1.297-.845c-.765-.135-1.314-.066-1.314-.066s.152-.915-.777-1.33c-.764-.34-1.434.197-1.434.197s.345-.05.574.134c.358.29.347.66.103 1.088s-1.948.424-1.718-1.005c.19-1.184 1.175-1.23 2.228-1.133 1.192.11 3.237 1.366 5.206 2.162 1.969.797 3.651-.332 3.651-.332-.06.004.47.343 1.715.609 1.011.215 3.138-.53 4.56-1.327 1.421-.798 4.265-1.668 4.93-.46.665 1.209-.375 1.714-.375 1.714s-1.023.381-1.263-.185c-.473-1.114.828-1.167.828-1.167s-.751-.56-1.552-.143c-.744.389-.747 1.163-.745 1.27.013.007.001.014.001.014v-.014c-.032-.017-.202-.038-1.007.003-1.149.057-1.675.896-1.675.896s1.11-.225 2.14-.034c1.032.19.953.582 2.146.8 1.24.224 2.326-.414 2.719-1.142.442-.818.319-1.692.319-1.692s.208-.06.288-.085c.094-.03.234-.03.234-.03s.041.1.036.276c-.003.173-.03.287-.03.287l.453-.206s.026-.14-.018-.395c-.03-.175-.135-.446-.135-.446s-.225-.055-.447-.008c-.223.048-.532.17-.532.17s-.436-1.344-2.077-1.558-3.578.489-4.353.854c-.776.365-2.323 1.137-3.377 1.34s-1.692.035-1.687-.005c.003-.041.16-.122.247-.182.088-.06.338-.194.358-.336s.014-.449.108-1.028.429-1.333 1.175-1.38c.575-.037 1.196.766 1.196.766s.507-1.524-1.516-1.725c-1.29-.128-1.744.603-1.744.603l-.8-.634zm-.021.968s.538.44.573 1.173-.654 1.333-.654 1.333-.619-.621-.566-1.241c.07-.833.647-1.265.647-1.265" clip-rule="evenodd"/><path fill="#fff" fill-rule="evenodd" d="M72.197 38.051c.008.492-.505.896-.505.896s-.413-.468-.405-.925.494-.924.494-.924.406.46.416.953M47.55 47.536s-.842-.17-1.634.858c-1.244 1.614.21 2.29.21 2.29s-.155-1.003.266-1.397c.545-.512 1.323-.24 1.807.089.483.329.702.544.818.627s.385-.008.49-.03c.103-.023.27-.082.301-.056.033.025-.283.606-1.154 1.236-.87.629-2.492 1.228-3.29 1.544-.796.316-2.635 1.246-3.606 2.59s-.296 2.584-.296 2.584-.302.143-.488.272c-.187.13-.252.234-.252.234l.55.243s.084-.107.145-.163.258-.177.258-.177.55.69 1.446.93c.799.212 2.006-.142 2.694-1.202.663-1.019.325-1.23.893-2.114.57-.882 1.494-1.539 1.494-1.539s-.969-.191-1.8.607c-.58.56-.682.7-.692.733l.01.009s-.014.005-.01-.01c-.075-.075-.64-.604-1.432-.328-.852.298-.961 1.232-.961 1.232s.931-.914 1.414.195c.245.563-.733 1.049-.733 1.049s-1.08.412-1.5-.902 2.163-2.793 3.717-3.282c1.553-.49 3.554-1.531 4.092-2.417.663-1.09.779-1.71.734-1.669 0 0 1.974-.454 2.747-2.437.775-1.983 1.268-4.336 2.008-5.282.653-.835 1.36-1.522 2.35-.848 1.194.813.027 2.06-.45 1.944s-.753-.361-.718-.823c.023-.294.295-.511.295-.511s-.847.121-1.125.913c-.338.962.43 1.479.43 1.479s-.427.354-.854 1.005c-.541.826-.278 1.525-.278 1.525s.833-1.19 1.428-1.608c.703-.492 1.664-.575 2.211-1.199s1.413-1.534.688-2.933-2.417-1.502-3.427-.948c-1.01.555-1.96 1.804-2.456 3.167s-.979 3.403-1.556 4.22-1.017 1.083-1.017 1.083-.094-.1 0-.33c.092-.228.008-.485-.076-.543-.085-.057-1.02-.888-1.091-1.514s.13-1.038.714-1.2c.584-.164.85-.076.85-.076s-.522-.764-1.352-.561-1.533 1.102-1.638 1.546-.052.685-.052.685l-1.03.193-.088 1.019zm2.167.026c.485.387.51 1.266.51 1.266s-.906.09-1.414-.439c-.509-.528-.457-1.222-.457-1.222s.709-.124 1.362.395z" clip-rule="evenodd"/><path fill="#fff" fill-rule="evenodd" d="M48.991 48.34c.35.344.995.246.995.246s-.055-.622-.392-.93-1.008-.275-1.008-.275.055.613.405.958M95.408 93.557a.64.64 0 0 0-.46-.258c-.344-.037-.678.136-.678.136s.203.082.352.19c.149.109.285.326.19.517-.095.19-.42.217-.57.08-.112-.102-.245-.458-.271-.924-.009-.155-.027-.395 0-.544.109-.598.177-1.142-.04-1.945-.218-.803-1.247-1.237-1.247-1.237s.108-.041 0-.83c-.11-.79-.869-1.388-1.18-1.523-.312-.136-1.113-.517-1.492-.803-.38-.286-.556-.694-.311-.884.243-.19.407-.095.528.095s.027.626.027.626.778-.422.488-1.116c-.26-.626-1.22-.77-1.708-.122-.487.648-.136 1.292-.136 1.292s-.149.14-.176.272.054.327.054.327-.42.163-.366.544c.066.462.528.381.528.381s-.04.181.11.367c.149.186.433.136.433.136s.2.553.556.68c.473.168.813-.176.813-.176s-.366-.081-.462-.19c-.282-.325-.166-.536.096-.72.261-.187.714-.137 1.111.298.176.193.259.43.272.599a.58.58 0 0 1-.068.34s-.078-.007-.19-.027c-.09-.017-.2-.049-.325-.04-.28.017-.539.38-1.166.461-.629.082-.99-.326-.99-.326s-.176.53.122.857c.375.408.8.49.8.49l-.447.802.894.014s-.157.58.027.993c.228.507.638.503.638.503s.008.036-.014-.163c-.024-.2-.01-.472.217-.83.198-.313.66-.562.814-.64a.7.7 0 0 0 .311-.394c.04-.136.11-.285.11-.285s.528.1.677.666.013.839-.177 1.034-.51.263-.718 0c-.208-.264.013-.695.013-.695s-.095.023-.176.069c-.082.045-.429.318-.407.708s.285.68.285.68-.163.163-.123.408c.046.275.272.326.272.326s-.26.366 0 .627c.307.308.704-.014.704-.014s.077.199.244.23c.11.022.313-.013.313-.013s.107.19.406.381c.299.19.773.177 1.057.083.154-.052.41-.248.543-.558.115-.266.144-.596-.108-.952zm-3.864-2.77c-.487.327-1.043.137-1.043.137s.191-.593.514-.762c.471-.244.99-.095.99-.095s-.176.53-.46.72" clip-rule="evenodd"/><path fill="#fff" fill-rule="evenodd" d="M91.055 90.257c-.209.127-.393.571-.393.571s.465.099.731-.068c.3-.187.421-.599.421-.599s-.44-.1-.759.095zM49.17 84.04c.387.162 1.106.668.91 1.402-.197.735-.963 1.048-1.708 1.02-.746-.027-1.343-.64-1.343-.64l-.109.123s.441.368.787.503c.288.113 1.01.293 1.328.476.319.184.509.667.57.884.06.218.555 1.55.555 1.55s-1.695-.543-2.128-.734c-.429-.188-.475-.62-.76-1.374s-.637-1.007-.637-1.007l-.095.11s.523.496.651 1.183c.147.78-.128 1.347-.569 1.7-.44.354-1.213.266-1.627-.353s-.244-1.251-.244-1.251.61.66 1.18.244c.928-.675.34-1.264.34-1.264s-.123.115-.258.149-.312-.109-.312-.109.089-.02.19-.068.203-.15.203-.15-.014-.068-.272-.19c-.257-.123-.42-.109-.42-.109s.278.327-.027.517c-.128.08-.61.007-.638-.38-.027-.388.346-.463.692-.477s.908.395.908.395l.123-.123s-.326-.292-.447-.34c-.122-.047-.305-.155-.352-.231-.048-.075-.434-.912-.434-.912s.887.374.963.422c.074.047.122.15.203.34.08.19.352.407.352.407l.122-.122s-.413-.496-.433-.993c-.024-.584.36-.612.488-.612.13 0 .482.279.366.626s-.501.04-.501.04.014.178.081.354c.068.176.245.34.245.34s.073-.066.108-.149c.05-.116.068-.258.068-.258s.109.02.123.258-.123.327-.123.327.474.434 1.071-.164c.712-.714-.122-1.4-.122-1.4s.481-.15.935.04zM48.059 94.51c.133.31.39.506.543.557.285.095.758.109 1.057-.082.299-.19.407-.381.407-.381s.202.034.311.014c.168-.032.244-.232.244-.232s.398.323.705.014c.26-.26 0-.626 0-.626s.226-.052.271-.326c.041-.245-.122-.408-.122-.408s.263-.29.285-.68c.023-.39-.325-.663-.406-.709-.081-.044-.176-.068-.176-.068s.221.43.013.694-.528.195-.718 0-.326-.467-.177-1.034a.92.92 0 0 1 .678-.666s.068.15.109.285c.04.137.157.318.311.395.153.078.616.327.813.64.226.358.24.63.217.83-.022.198-.014.163-.014.163s.41.003.638-.503c.185-.413.027-.993.027-.993l.895-.014-.448-.803s.426-.08.8-.49c.299-.326.123-.857.123-.857s-.362.408-.99.327c-.628-.082-.886-.445-1.166-.462-.125-.008-.236.024-.325.04-.113.02-.19.027-.19.027s-.084-.126-.068-.34c.012-.17.095-.406.271-.598.398-.435.85-.485 1.112-.3.261.187.378.397.095.721-.095.11-.462.19-.462.19s.341.346.814.177c.357-.127.555-.68.555-.68s.285.049.435-.136c.148-.186.108-.367.108-.367s.463.08.529-.382c.054-.38-.366-.544-.366-.544s.081-.195.054-.326c-.026-.132-.176-.272-.176-.272s.353-.644-.136-1.292c-.489-.649-1.447-.504-1.708.122-.29.693.488 1.115.488 1.115s-.095-.434.027-.626c.122-.19.285-.285.529-.095.243.19.068.598-.312.884s-1.18.666-1.492.803c-.311.137-1.07.734-1.179 1.524-.108.788 0 .83 0 .83s-1.03.434-1.247 1.236c-.217.803-.149 1.348-.04 1.945.026.15.009.39 0 .545-.026.465-.16.823-.272.924-.148.136-.474.11-.569-.081-.094-.19.04-.408.19-.516.148-.11.352-.19.352-.19s-.335-.175-.678-.137a.64.64 0 0 0-.46.259.92.92 0 0 0-.11.952zm3.512-4.443s.519-.15.99.095c.322.168.514.762.514.762s-.555.19-1.043-.136c-.285-.19-.461-.721-.461-.721" clip-rule="evenodd"/><path fill="#fff" fill-rule="evenodd" d="M52.52 90.257c.21.127.394.571.394.571s-.466.099-.733-.068c-.298-.187-.42-.599-.42-.599s.439-.1.76.095zM54.131 85.516s-2.237-1.892-4.812-6.598c-1.445-2.64-2.473-7.039-2.373-11.262.122-5.082 1.822-8.96 3.715-11.888 3.083-4.77 6.9-6.924 6.9-6.924s-8.952 5.714-9.964 17.629c-1.036 12.198 6.75 18.893 6.75 18.893zM89.215 85.366s7.787-6.695 6.752-18.893C94.955 54.558 86 48.844 86 48.844s3.818 2.153 6.9 6.924c1.894 2.928 3.595 6.806 3.716 11.888.1 4.223-.927 8.623-2.373 11.262-2.576 4.706-4.812 6.598-4.812 6.598l-.218-.15" clip-rule="evenodd"/><path fill="#fff" fill-rule="evenodd" d="M48.602 93.648a33.92 33.92 0 0 1-10.454-24.545c0-18.757 15.156-33.964 33.851-33.964 18.696 0 33.852 15.206 33.852 33.964 0 9.796-4.132 18.621-10.743 24.82q.11.13.22.264c6.685-6.262 10.865-15.182 10.865-25.084 0-18.947-15.309-34.307-34.194-34.307-18.884 0-34.193 15.36-34.193 34.307 0 9.795 4.09 18.63 10.65 24.88.053.05.223-.26.146-.335" clip-rule="evenodd"/><path fill="#fff" fill-rule="evenodd" d="M48.293 94.535q.105-.138.216-.274c-6.69-6.29-10.87-15.234-10.87-25.159C37.64 50.063 53.024 34.63 72 34.63c18.977 0 34.359 15.434 34.359 34.473 0 9.953-4.203 18.92-10.926 25.213.049.06-.142.418-.095.478.024.031.289-.235.311-.205 6.803-6.357 11.058-15.423 11.058-25.486 0-19.23-15.539-34.82-34.707-34.82s-34.706 15.59-34.706 34.82c0 10.035 4.23 19.078 11 25.433" clip-rule="evenodd"/><path fill="#fff" d="M67.235 84.47c.626 0 1.105.127 1.436.39q.551.43.708 1.133.05.226.05.475 0 .34-.1.64a1.8 1.8 0 0 1-.466.718q-.33.31-.756.437-.316.091-.891.092h-.19q-.576 0-.89-.092a1.8 1.8 0 0 1-.757-.437 1.76 1.76 0 0 1-.465-.718 2.182 2.182 0 0 1-.051-1.115q.157-.7.708-1.134c.331-.262.81-.389 1.436-.39z"/><path fill="#00904F" d="M67.12 85.039h.111q.716.001 1.034.263c.337.28.502.647.502 1.112q0 .362-.13.642a1.2 1.2 0 0 1-.395.477q-.34.25-1.03.251h-.182q-.691-.001-1.03-.251a1.2 1.2 0 0 1-.394-.477 1.5 1.5 0 0 1-.132-.642c0-.466.167-.833.503-1.112q.319-.263 1.033-.263z"/><path fill="#fff" d="m85.803 88.203.009-3.5-.013-.044a.1.1 0 0 0-.036-.028l-.105-.068-.011-.008v-.076h1.171v.076l-.11.075a.1.1 0 0 0-.035.035l-.008 3.488.016.055a.1.1 0 0 0 .029.03l.1.07.01.007v.075H85.65v-.075l.115-.076q.036-.022.039-.034zM83.78 86.764l.005-2.099a.1.1 0 0 1 .034-.035l.112-.075v-.077h-1.172v.078l.011.007.105.069q.028.017.035.028l.012.044-.01 3.485q-.005.012-.039.035l-.115.075v.075h1.172V88.3l-.01-.007-.1-.07a.1.1 0 0 1-.03-.03l-.016-.054.002-.42c.48-.497 1.142-1.167 1.616-1.687v.077h.18v-1.293l-1.793 1.948zM58.642 88.267v.087h-1.108v-.087l.133-.128-.002-3.422-.006-.05-.032-.038-.099-.075-.01-.008v-.088l.967.005 1.793-.006.494.801-.075.031-.01.004-.152-.115a.4.4 0 0 0-.076-.046.2.2 0 0 0-.071-.01l-1.913-.011.02 3.027.146.128M73.53 88.183l-.01-3.487.01-.044a.1.1 0 0 1 .03-.028l.088-.069.01-.008v-.076h-.976v.076l.092.075a.1.1 0 0 1 .03.035l.006 3.474-.012.055a.1.1 0 0 1-.024.03l-.083.07-.01.007v.075h.977v-.076l-.096-.076q-.03-.022-.033-.034z"/><path fill="#fff" d="M75.919 88.293v.075h.978v-.075l-.118-.11-.013-3.487.006-.043.029-.033.086-.065.01-.007v-.077h-.979v.076l.096.076c.032.025.042.046.042.072v1.184h-2.072l-.437.696.066.027.008.003.135-.1a.3.3 0 0 1 .067-.039.2.2 0 0 1 .063-.01h2.17l-.01 1.724-.128.112M82.337 88.187l-.008-3.486.01-.044a.1.1 0 0 1 .03-.029l.087-.069.01-.007v-.076h-.975v.076l.093.075a.1.1 0 0 1 .028.035l.008 3.474-.012.055a.1.1 0 0 1-.026.03l-.083.069-.008.008v.075h.975v-.075l-.095-.076a.1.1 0 0 1-.034-.034z"/><path fill="#fff" fill-rule="evenodd" d="m77.528 88.244-.128.063v.063h.518l1.557-.002c.38 0 .822-.04 1.15-.22.251-.136.445-.319.55-.558l.005.001.028-.088.001-.004.027-.083-.005-.002a.853.853 0 0 0-.065-.564 1.07 1.07 0 0 0-.387-.415 1.7 1.7 0 0 0-.615-.246 3 3 0 0 0-.44-.046l-1.085.01-.033.034a.1.1 0 0 0-.013.042l.001.392h.864c.228 0 .532.019.732.12.106.054.2.125.262.218q.088.136.086.293c0 .226-.123.388-.336.51-.187.106-.51.123-.73.123h-.854l-.692.002h-.196l-.204.002z" clip-rule="evenodd"/><path fill="#fff" d="m78.392 84.63-.008 2.866.01.035a.1.1 0 0 0 .03.024l.09.056.01.006v.063h-.996v-.063l.093-.062a.1.1 0 0 0 .03-.028l.007-2.857-.012-.045a.1.1 0 0 0-.025-.026l-.086-.056-.009-.006v-.061h.996v.061l-.097.062q-.03.019-.033.028z"/><path fill="#fff" fill-rule="evenodd" d="m61.008 84.589-.129-.064v-.064h.518l1.556.002c.38 0 .821.04 1.15.22.25.136.444.32.549.559l.005-.002.028.089.002.004.026.082-.004.002q.019.095.02.191a.8.8 0 0 1-.086.373 1.1 1.1 0 0 1-.387.415 1.7 1.7 0 0 1-.616.246c-.142.03-.293.041-.44.047l-1.085-.01-.032-.035a.1.1 0 0 1-.014-.04v-.392h.865c.227 0 .533-.02.731-.121a.7.7 0 0 0 .263-.219.5.5 0 0 0 .086-.292c0-.227-.123-.388-.336-.51-.187-.108-.51-.125-.73-.125h-.854l-.69-.002h-.198l-.202-.001.002-.355z" clip-rule="evenodd"/><path fill="#fff" d="m61.869 88.204-.008-2.866.01-.036a.1.1 0 0 1 .032-.024l.089-.056.01-.005v-.063h-.997v.063l.093.061q.025.017.03.029l.006 2.857-.012.045a.1.1 0 0 1-.025.025l-.085.056-.009.006v.062H62v-.063l-.097-.062q-.03-.02-.033-.028z"/><path fill="#fff" fill-rule="evenodd" d="m69.751 84.456-.181.001v.674h.077l.075-.073a.1.1 0 0 1 .035-.022l.414-.013h.858c.16 0 .404.016.538.11.158.112.24.253.24.45 0 .09-.017.176-.061.256a.53.53 0 0 1-.187.192.8.8 0 0 1-.365.1l-.676.007h-.223v.05l-.001.066v.435h.223l.677.009c.13.011.268.038.365.1.077.048.143.11.187.19.043.081.06.167.06.257a.52.52 0 0 1-.24.45c-.133.095-.377.11-.537.11h-.665l-.587.002h.052l-.208-.003-.045-.008a.1.1 0 0 1-.028-.024l-.073-.072-.08-.004v.677h.194-.119 1.561c.31-.002.659-.043.922-.22.342-.23.508-.547.508-.932q.001-.196-.068-.378a1.03 1.03 0 0 0-.322-.424c.144-.126.256-.265.323-.433.047-.12.07-.249.07-.378 0-.398-.178-.708-.51-.931-.263-.178-.612-.22-.921-.22l-1.107-.002h-.305.132z" clip-rule="evenodd"/><path fill="#fff" d="m84.934 84.723.372-.376.199-.071.023-.082-1.157.01-.02.072.135.076-.333.368zM69.743 25.213l1.999-1.988 3.348 3.34.012.033c-.004.036-.08.096-.353.097h-.057v.186h3.1l-2.682-2.674c-.047-.047.194.185.146.138L73.7 22.866l-.796-.8 3.722-3.714h-3.099v.186h.058c.272.001.35.062.352.097l-.031.09c-.013.032-.022.037-.046.05l-2.118 2.124-2.118-2.124c-.024-.013-.033-.018-.046-.05l-.031-.09c.003-.035.08-.096.352-.097h.057v-.186h-3.099l3.723 3.713-.796.801-1.084 1.01zm5.513-.868L73.7 22.866l-.796-.8 3.722-3.714h-3.099v.186h.058c.272.001.35.062.352.097l-.031.09c-.013.032-.022.037-.046.05l-2.118 2.124-2.118-2.124c-.024-.013-.033-.018-.046-.05l-.031-.09c.003-.035.08-.096.352-.097h.057v-.186h-3.099l3.723 3.713-.796.801-1.248 1.162 1.047 1.343 2.159-2.146 3.348 3.34.012.033c-.004.036-.08.096-.353.097h-.057v.186h3.1l-2.682-2.674c-.047-.047.194.185.146.138M59.638 26.694c-.094-.021-.13-.053-.14-.083l4.157-5.442-.887-1.187-5.257 6.91h2.29v-.185h-.042a.5.5 0 0 1-.12-.013"/><path fill="#fff" d="m63.08 19.573 1.025 1.37 1.164 1.468-1.925.002-.951 1.311.118.077.02.014.225-.15a.2.2 0 0 1 .075-.031c.022-.006.124-.006.291-.006h3.058l2.14 2.844c.017.014.024.019.033.05l.023.089c-.002.035-.06.096-.263.096h-.043v.186h2.319L63.973 18.4zM95.52 19.858l.144.06.016.008.293-.187a.46.46 0 0 1 .285-.117h4.012v6.752l-.026.113a.3.3 0 0 1-.056.063l-.188.153-.02.016v.165h2.134v-.167l-.218-.165-.068-.08c.003.003-.002-.04-.002-.098v-6.752h3.568c.15.022.195.074.191.117v.183h.134l1.023-1.563h-10.27z"/><path fill="#fff" fill-rule="evenodd" d="M80.555 21.658v.17h-.328V19l3.311 4.44 3.467-4.65v2.757h-.32v-.165l-3.164 4.146a331 331 0 0 1-2.966-3.87" clip-rule="evenodd"/><path fill="#fff" d="m79.85 26.478-.02-7.627.023-.096a.2.2 0 0 1 .065-.062l.192-.15.02-.017v-.168h-2.134v.168l.202.164a.3.3 0 0 1 .063.076l.017 7.6-.026.12a.3.3 0 0 1-.054.066l-.183.15-.018.016v.165h2.134v-.166l-.209-.166a.2.2 0 0 1-.072-.074M88.887 26.677c-.094-.023-.13-.055-.139-.085l4.17-5.458-.89-1.191-5.275 6.933h2.297v-.186h-.041a.6.6 0 0 1-.122-.012z"/><path fill="#fff" d="m92.34 19.532 1.03 1.375 1.166 1.473-1.93.001-.954 1.315.118.078.02.014.226-.15a.2.2 0 0 1 .075-.032 3 3 0 0 1 .292-.006h3.068l2.145 2.852c.018.013.025.02.034.05l.023.09c-.001.035-.06.096-.264.096h-.043v.186h2.326l-6.437-8.518-.896 1.176M88.905 23.703l-.001-4.926.012-.096.061-.07.19-.142.02-.015v-.168h-2.14v.166l.21.165c.07.055.092.101.093.158 0 1.262-.012 6.992-.01 6.99 1.491-1.967 1.238-1.608 1.564-2.063zM47.687 21.529l-.007-2.778a.24.24 0 0 0-.063-.076l-.203-.165v-.168h2.136v.169l-.02.016-.192.15a.2.2 0 0 0-.066.063l-.021.096-.006 7.162v-.053.442l.022.095c.008.013.033.041.066.063l.192.15.02.017v.168H47.41v-.168l.202-.164a.2.2 0 0 0 .063-.076l.012-5.208z"/><path fill="#fff" fill-rule="evenodd" d="m49.496 22.015.001-.466 2.376-2.785h-.134v-.412h2.253l-3.538 4.163 3.704 4.36h-2.195v-.403h.132l-2.6-3.045v-1.41z" clip-rule="evenodd"/><path fill="#fff" d="m41.013 23.774-.005 2.654a.3.3 0 0 1-.063.08l-.203.174v.178h2.136v-.178l-.021-.018-.192-.159a.3.3 0 0 1-.066-.066l-.021-.101-.004-5.535v-1.821l.022-.121a.3.3 0 0 1 .066-.08l.192-.19.02-.02v-.213H40.74v.213l.202.207a.3.3 0 0 1 .063.097l.008 5.239v-1.13zm-.79-4.574.58-.005v1.064h-1.138c-.356 0-.878.038-1.181.274a1.33 1.33 0 0 0-.544 1.12c0 .228.04.443.138.641.101.205.253.36.426.48.323.222.817.264 1.184.264.457-.001.665.007 1.114.008v1.023c-.742.012-1.55.11-2.256-.083a2.46 2.46 0 0 1-.998-.54 2.23 2.23 0 0 1-.764-1.733q0-.21.028-.42l.04-.187.051-.199c.173-.525.489-.927.895-1.227.533-.391 1.248-.48 1.864-.48l1.142-.001zm2.596 1.06h1.117c.356 0 .879.038 1.182.273.346.27.544.622.544 1.12 0 .23-.041.444-.139.642-.1.205-.253.36-.425.48-.323.222-.817.263-1.185.263-.467 0-.627.004-1.094.004 0 .278 0 .59-.002.86l.002.163c.75.01 1.523.116 2.237-.08.362-.098.7-.275.997-.54a2.22 2.22 0 0 0 .765-1.732q0-.21-.028-.42l-.04-.188-.051-.198a2.46 2.46 0 0 0-.896-1.227c-.532-.392-1.248-.48-1.863-.481l-1.123-.002v1.062zM69.077 89.519v2.612h.513v-2.817q0-.084-.08-.152a.26.26 0 0 0-.177-.068h-.256zm-.118-.426h-.144v.387h.144zm2.158.387h.528v-.167q0-.083-.089-.152a.38.38 0 0 0-.235-.068h-1.16q-.141 0-.199.068a.23.23 0 0 0-.058.152v1.215q0 .126.058.173.058.048.199.048h.965v.999h-.59v.383h.785a.5.5 0 0 0 .235-.046q.09-.048.089-.174v-2.313h-.519v.82h-.708v-.938h.708zm-.7 2.24v-.527h-.514v.717q0 .126.08.174a.34.34 0 0 0 .178.047h.256zm2.755.027v-1.162h-1.223l.044-.988h.53l-.055.597h.904a.46.46 0 0 1 .23.05q.088.052.088.174v1.492q0 .126-.088.174a.5.5 0 0 1-.23.047h-.2v-.44zm-.638-2.268h.965l.19-.387h-1.673l-.018.387h.58zm.52 2.268h-.587v-.608h-.518v.771q0 .126.089.174t.235.047h.781zm1.432 0v-1.052h.709v1.052h-.59v.384h.847q.141 0 .2-.047.058-.048.058-.174v-1.383q0-.019-.023-.046l-.045-.056a1 1 0 0 0-.062-.06l.062-.092.045-.075a.13.13 0 0 0 .023-.057v-.544h-.514v.71h-.647v-.828h1.16v-.167q0-.084-.079-.151a.27.27 0 0 0-.177-.07h-1.156q-.15 0-.205.07a.23.23 0 0 0-.055.151v.828q0 .019.019.057l.042.075q.027.043.067.091a1 1 0 0 0-.098.061 1 1 0 0 0-.066.056q-.03.029-.03.047v1.382q0 .126.087.174.09.047.24.047h.19v-.405.021z"/></svg>