<svg xmlns="http://www.w3.org/2000/svg" fill="none" viewBox="4.23 0 135.55 144"><path fill="#fff" fill-rule="evenodd" d="M72.024 143.526c-31.338 0-56.895-25.49-56.969-56.817V28.223H4.895l4.56-10.775L4.896 6.65h5.182l-.158-.598c-.78-2.98-.412-4.307.045-4.9.339-.44.83-.665 1.535-.671h120.79c.746.011 1.327.265 1.694.756.677.887.705 2.552.107 4.804l-.169.61h5.193l-4.561 10.797 4.561 10.775h-10.143v.17l-.012.474.023 57.844c-.074 31.326-25.62 56.816-56.958 56.816" clip-rule="evenodd"/><path fill="#fff" fill-rule="evenodd" d="m5.955 7.214 3.805-.006 2.235 6.779H8.693zM134.231 7.225l3.782-.011-2.709 6.773h-3.296z" clip-rule="evenodd"/><path fill="#F91E1E" fill-rule="evenodd" d="M27.418 20.867H15.22l-2.11-6.615h12.507z" clip-rule="evenodd"/><path fill="#04539E" fill-rule="evenodd" d="M25.615 14.252H13.107l-2.072-6.581h12.796z" clip-rule="evenodd"/><path fill="#fff" fill-rule="evenodd" d="M23.832 7.67H11.036c-.486-1.534-.598-1.992-.824-2.968 0-.232-.119-.644-.119-1.095 0-1.056 0-2.518 2.106-2.636h9.81zM133.8 3.59c-.051 1.817-.35 2.698-.813 4.08H120.22l1.936-6.7h9.42c2.501 0 2.224 2.62 2.224 2.62" clip-rule="evenodd"/><path fill="#04539E" fill-rule="evenodd" d="m133.4 7.67-2.1 6.582h-12.999l1.913-6.581z" clip-rule="evenodd"/><path fill="#F91E1E" fill-rule="evenodd" d="m131.302 14.252-2.184 6.615h-12.745l1.93-6.615z" clip-rule="evenodd"/><path fill="#04539E" fill-rule="evenodd" d="M127.622 83.289v-61.44l-27.945.012v25.27c13.507 7.676 23.503 20.794 26.884 36.276l1.067-.118zM80.671 21.855H63.365v18.632a57 57 0 0 1 8.659-.666c2.952 0 5.825.232 8.647.678zM44.37 21.855H30.329v-.011H16.414v62.201h.926c3.223-15.781 13.304-29.159 27.03-36.931zM14.271 20.84H8.706l1.383-3.404-1.394-3.45h3.302zM129.759 20.84h5.543l-1.4-3.427 1.4-3.426h-3.296z" clip-rule="evenodd"/><path fill="#F91E1E" fill-rule="evenodd" d="M14.602 27.686H5.955v-.045l2.749-6.802h5.565l.333 1.01zM128.529 27.686h9.511v-.045l-2.738-6.802h-5.543l-.327 1.01h-.903z" clip-rule="evenodd"/><path fill="#122D44" fill-rule="evenodd" d="m108.928 63.455-17.943-14.75-2.072-1.687-1.31-3.72a54.9 54.9 0 0 1 27.055 18.108c-1.908.683-3.844 1.371-5.73 2.043zM90.985 84.672l-2.98 1.134-15.568-11.175V53.52l16.358-5.679 2.19 1.8 17.531 14.41 1.095 13.474-18.626 7.14zm-19.293-9.776-15.55 11.136-3.16-1.168-18.729-7.028.378-14.528 18.35-13.959 2.455-1.885 16.256 5.983zM29.05 61.8a54.76 54.76 0 0 1 22.07-16.623 54 54 0 0 1 5.13-1.823c-.355 1.14-.728 2.275-1.072 3.403l-2.19 1.654-18.773 14.252-5.16-.863zm98.574 20.771a55.7 55.7 0 0 0-3.184-9.68 56 56 0 0 0-5.142-9.325C109.036 48.525 91.645 38.614 72.02 38.614h-.023c-3.866 0-7.648.378-11.283 1.106a57 57 0 0 0-10.532 3.2C33.316 49.874 20.52 64.612 16.41 82.56v1.57l7.518 4.149 10.047-9.776 18.994 7.112 2.94 1.128.864 1.536H87.21l1.021-1.8 2.75-1.056 18.919-7.225 11.396 10.047 6.322-4.962v-.716z" clip-rule="evenodd"/><path fill="#122D44" d="m109.207 11.735-.971-3.562h-1.14l-.971 3.562h3.082m-4.284-6.192h5.509l3.076 10.837h-3.076l-.57-2.167h-4.374l-.57 2.167h-3.088l3.088-10.837zm-14.71 0h2.992v4.024h1.299l2.76-4.024h3.403l-3.573 5.108 3.816 5.729h-3.404l-2.833-4.182H93.21v4.182h-2.992V5.543zm-13.049 0h3.003v5.34l-.254 1.388h.17l4.13-6.734h3.49v10.837H84.71v-5.34l.242-1.4h-.169l-4.132 6.74h-3.488zm-11.684 0h10.132v2.636h-3.573v8.207h-3.003V8.179h-3.561V5.543zm-8.444 0h5.52l2.992 10.837h-2.992l-2.274-8.207h-.971l-2.275 8.207h-2.992zm-8.218 6.192-.982-3.562h-1.13l-.981 3.562h3.093m-4.301-6.192h5.509l3.076 10.837h-3.076l-.57-2.167H45.08l-.57 2.167h-3.076L44.51 5.543zm-8.264 8.365c.825 0 1.299-.463 1.299-1.01 0-.548-.474-1-1.299-1h-2.748v2.015h2.748zm-5.757-8.365h9.24V8.02h-6.237v1.388h2.907c2.675 0 4.216 1.473 4.216 3.488s-1.535 3.489-4.216 3.489h-5.91z"/><path fill="#04539E" fill-rule="evenodd" d="M127.068 93.268c.209-1.642.356-3.296.424-4.984H16.512c.061 1.682.208 3.342.423 4.984zM29.617 121.992a55 55 0 0 0 8.794 8.343h67.185a56.2 56.2 0 0 0 8.8-8.343zM41.844 132.768a55.33 55.33 0 0 0 30.158 8.901c11.126 0 21.472-3.274 30.147-8.901zM22.009 110.292a54 54 0 0 0 4.972 8.342h90.046a55.7 55.7 0 0 0 4.972-8.342zM17.86 98.478a56 56 0 0 0 2.179 7.236h103.919a55 55 0 0 0 2.179-7.236z" clip-rule="evenodd"/><path fill="#122D44" fill-rule="evenodd" d="M131.573.97c1.643 0 2.089 1.135 2.19 2.044.108.915.04 1.75-.423 3.212l-4.741 14.647h-11.848L122.548.971zM26.932 20.868H15.22l-2.106-6.615-2.066-6.587c-.496-1.535-.61-1.992-.83-2.969 0-.231-.118-.643-.118-1.095 0-1.055 0-2.517 2.106-2.636h9.313l5.413 19.897zM121.588.971l-5.791 19.896H27.982L22.529.971zM14.604 27.686H5.957v-.04l2.749-6.807 1.383-3.403L5.957 7.214l3.805-.012 4.848 14.642v5.836zm113.927 58.752c-.073 31.078-25.439 56.399-56.506 56.399s-56.427-25.321-56.512-56.399l.011-64.594h14.811v.011h82.996v-.011h15.189zm5.701-79.213.011-.011h3.771l-4.11 10.199 4.138 10.228v.04h-8.597v-5.888s4.708-14.325 4.781-14.568zM72.025 144c31.558 0 57.37-25.722 57.443-57.296l-.023-58.008h10.335v-.147l-4.707-11.102L139.78 6.31v-.146h-5.226c1.219-4.572-.356-6.13-2.371-6.164H11.489C9.507.034 8.254 1.592 9.457 6.164H4.23v.146l4.696 11.137L4.23 28.549v.147h10.346v58.008C14.65 118.273 40.428 144 72.031 144z" clip-rule="evenodd"/></svg>