<svg xmlns="http://www.w3.org/2000/svg" viewBox="123.33 15.65 652.06 874.41"><path d="M741.29 202.44c-137.82-68.17-251.93-74.91-291.94-74.91s-154.12 6.75-291.94 74.91l-34.08 90.25c0 391.39 222.29 597.37 326.03 597.37s326.03-205.99 326.03-597.37z"/><path fill="#66b22e" d="M449.35 874.09c-18.73 0-42.55-8.08-68.63-24.12l-203.45-438.2-21.69 55.78c-10.17-52.38-16.11-109.69-16.28-171.97l30.81-81.59c33.43-16.2 65.31-28.71 94.95-38.38l-29.82 79.76 121.31-102.89c42.05-7.54 74.37-8.99 92.8-8.99 8.51 0 20.01.32 34.03 1.39L237.92 351.14l240.35 517.8c-10.54 3.43-20.27 5.15-28.92 5.15"/><path fill="#f2e500" d="m161.64 496.07 17.11-43.42L354.7 831.82c-72.48-56.4-154.48-168.94-193.06-335.75M493.19 863.14l-32.85-70.77c148.18-77.88 227.08-344.77 227.08-510.18v-5.04l-4.55-2.17c-63.03-30.02-140.79-47.81-144.07-48.55l-3.77-.86-172 139.12-33.15-69.98 175.76-147.68c53.75 6.31 132.77 23.25 222.94 66.96l30.81 81.59c-.92 329.74-162.57 521.45-266.2 567.56"/><path fill="#e42320" d="M595.5 260.38c15.91 3.84 23 2.47 75.93 26.88-.81 87.1-22.45 191.74-58.23 281.1-41.06 102.53-97.55 176.53-159.58 209.52L257.55 355.5l59.69-50.15 164.34 353.76C582.01 515.21 591 354.82 595.5 260.38"/><g fill="#1d1d1b"><path d="M175.15 168.56V77.58l12.97-4.76v41.52l.25-.09 18.95-48.48 12.97-4.76-17.67 42.9 20.98 46.86-13.73 5.04-14.75-34.96-6.99 15.73v27.21zM274.63 43.16l-18.8 97.09-11.59 3.77-18.67-84.9 13.91-4.52 10.43 60.11.26-.08 10.56-66.94z"/><path fill-rule="evenodd" d="M307.34 55.37c0-3.66.66-7.04 1.98-10.15 1.32-3.1 3.08-5.84 5.29-8.2 2.12-2.26 4.52-4.15 7.21-5.68s5.4-2.6 8.13-3.21c2.73-.6 5.44-.74 8.13-.39 2.69.34 5.13 1.16 7.34 2.46 2.12 1.41 3.83 3.37 5.16 5.89q1.98 3.78 1.98 9.27V93.4c0 3.83-.66 7.26-1.98 10.28s-3.04 5.66-5.16 7.91c-2.2 2.36-4.65 4.31-7.34 5.84s-5.4 2.6-8.13 3.21-5.44.74-8.13.4-5.09-1.21-7.21-2.62c-2.2-1.3-3.97-3.17-5.29-5.6s-1.98-5.57-1.98-9.4zm13.49 45.05c0 3.15.9 5.27 2.71 6.36s3.94 1.36 6.41.82c2.47-.55 4.61-1.77 6.41-3.65 1.81-1.89 2.71-4.41 2.71-7.56V48.35c0-3.15-.9-5.27-2.71-6.36s-3.95-1.36-6.41-.82c-2.47.55-4.61 1.77-6.41 3.65-1.81 1.89-2.71 4.41-2.71 7.56zM364.51 43.25c0-3.66.67-6.97 2.02-9.93 1.35-2.95 3.14-5.48 5.39-7.6 2.16-2.02 4.6-3.64 7.34-4.87s5.5-1.99 8.28-2.29 5.54-.12 8.28.53c2.74.64 5.23 1.74 7.48 3.29 2.15 1.65 3.9 3.8 5.25 6.47s2.02 5.83 2.02 9.49v48.04c0 3.83-.67 7.19-2.02 10.05-1.35 2.87-3.1 5.31-5.25 7.33-2.25 2.11-4.74 3.78-7.48 5.01s-5.5 1.99-8.28 2.29-5.54.12-8.28-.52-5.19-1.79-7.34-3.44c-2.24-1.55-4.04-3.61-5.39-6.2-1.35-2.58-2.02-5.79-2.02-9.62zm13.74 46.58c0 3.15.92 5.38 2.76 6.67s4.02 1.81 6.53 1.54 4.69-1.25 6.53-2.93 2.76-4.1 2.76-7.26V39.81c0-3.15-.92-5.37-2.76-6.67-1.84-1.29-4.02-1.81-6.53-1.54s-4.69 1.25-6.53 2.93q-2.76 2.535-2.76 7.26z"/><path d="m468.12 42.51-13.81.07v-2.94c0-2.98-.74-5.56-2.24-7.72-1.49-2.17-3.99-3.24-7.52-3.22-1.9.01-3.43.36-4.6 1.05s-2.12 1.54-2.84 2.57c-.72 1.11-1.22 2.37-1.49 3.78s-.41 2.88-.41 4.41c0 1.79.07 3.28.2 4.47.14 1.19.47 2.26 1.01 3.19.54.94 1.33 1.74 2.37 2.41 1.04.68 2.46 1.35 4.27 2.02l10.56 3.9c3.07 1.09 5.56 2.38 7.45 3.86 1.9 1.48 3.39 3.2 4.47 5.15.99 2.04 1.67 4.36 2.03 6.95q.54 3.9.54 8.88c0 3.83-.41 7.39-1.22 10.68-.82 3.28-2.13 6.08-3.93 8.39-1.9 2.4-4.38 4.28-7.45 5.66s-6.82 2.08-11.24 2.1c-3.34.02-6.45-.52-9.35-1.61-2.89-1.09-5.37-2.61-7.45-4.56s-3.73-4.22-4.94-6.81q-1.83-3.885-1.83-8.49v-4.86l13.81-.07v4.09c0 2.39.75 4.53 2.24 6.44s4 2.85 7.52 2.84c2.35-.01 4.17-.34 5.48-.99 1.31-.64 2.32-1.56 3.05-2.76q1.08-1.8 1.29-4.29c.21-2.49.2-3.51.2-5.56q0-3.57-.27-5.88c-.18-1.53-.55-2.76-1.09-3.7-.63-.93-1.47-1.69-2.51-2.29-1.03-.59-2.41-1.22-4.13-1.9l-9.89-3.78c-5.96-2.27-9.95-5.3-11.98-9.07-2.03-3.78-3.05-8.52-3.05-14.23 0-3.41.5-6.65 1.49-9.72s2.48-5.72 4.47-7.94c1.9-2.23 4.31-4 7.24-5.34s6.43-2.01 10.5-2.04c3.43-.02 6.57.56 9.41 1.74s5.3 2.74 7.38 4.69c4.15 4.07 6.23 8.74 6.23 14.02v6.41zM488.13 108.36V29.65l-15.94-1.16V16.22l45.66 3.31V31.8l-15.94-1.16v78.71zM524.65 111.6V20.63l40.57 7.03v12.26l-26.96-4.67v26.7l23.49 4.07v12.26l-23.49-4.07v26.7l26.96 4.67v13.03zM574.08 120.67V29.7l12.83 3.41 20.16 60.17.26.07V38.54l13.35 3.55v90.97l-12.57-3.34-20.42-60.12-.26-.07v54.69z"/><path fill-rule="evenodd" d="M633.18 137V46.03l19.42 6.42c7.54 2.49 13.27 6.43 17.17 11.81s5.85 11.81 5.85 19.31v42.55c0 8.52-2.08 14.12-6.24 16.79s-10.14 2.72-17.94.14zm13.12-74.37v66.44l6.05 2c3.68 1.22 6.3 1.17 7.84-.16 1.54-1.32 2.32-3.94 2.32-7.86V79.22q0-5.37-2.19-9.03c-2.19-3.66-4.11-4.3-7.97-5.57z"/><path d="M688.56 155.69V64.72l38.63 14.25v12.26l-25.67-9.47v26.7l22.36 8.25v12.27l-22.36-8.25v26.7l25.67 9.47v13.03z"/></g></svg>