<svg xmlns="http://www.w3.org/2000/svg" xml:space="preserve" viewBox="0 0 2000 2000"><path d="M2000 1000a1000 1000 0 0 1-1000 1000A1000 1000 0 0 1 0 1000 1000 1000 0 0 1 1000 0a1000 1000 0 0 1 1000 1000" style="opacity:1;fill:#e40515;fill-opacity:1;stroke-width:23.2137;stroke-linecap:round;stroke-dashoffset:131.528;paint-order:stroke fill markers"/><path d="M1685.97 1000A685.97 685.97 0 0 1 1000 1685.97 685.97 685.97 0 0 1 314.03 1000 685.97 685.97 0 0 1 1000 314.03 685.97 685.97 0 0 1 1685.97 1000" style="opacity:1;fill:#fff;stroke-width:15.9239;stroke-linecap:round;stroke-dashoffset:131.528;paint-order:stroke fill markers"/><path d="M975.212 598.101a13 13 0 0 0-1.498.116q-.541.07-1.066.19c-.037.01-.076.014-.112.023a10 10 0 0 0-1.579.528c-.068.03-.138.055-.205.086a8 8 0 0 0-.658.348q-.1.061-.2.125a7 7 0 0 0-.485.332q-.081.06-.161.12c-.207.163-.41.336-.598.523-.187.186-.36.387-.527.598q-.063.082-.125.166a7 7 0 0 0-.347.521c-.038.063-.08.124-.116.189a7 7 0 0 0-.366.749q-.032.08-.06.16a8 8 0 0 0-.302.957q-.09.355-.151.736c-.011.072-.027.141-.037.215q-.067.482-.088 1.007v.284c-.01.274 0 .557.013.848.01.115.012.23.02.347.03.392.07.795.135 1.216-.694-1.18-1.707-1.493-2.414-1.033a1.4 1.4 0 0 0-.201.163c-.03.028-.056.063-.084.095-.273.31-.468.772-.52 1.384 1.081 1.748 2.88 4.109 4.508 5.86 2.046 2.203 4.248 5.646 4.892 7.652s1.692 4.294 2.328 5.083c2.006 2.488 3.247 6.867 4.88 17.215 1.472 9.337 2.804 13.028 5.784 16.02.655.658 1.627 1.196 2.16 1.196 2.119 0 1.928 2.072-.85 9.245-1.596 4.12-3.141 10.075-3.435 13.231-.605 6.491-3.076 17.395-7.213 31.831-3.29 11.48-3.96 13.113-13.463 32.728-8.857 18.284-10.302 21.502-10.302 22.95 0 .63-.61 2.286-1.358 3.683-.836 1.561-2.087 4.54-3.26 7.573-1.592 4.12-3.033 8.34-3.033 9.254 0 .746-1.442 2.886-3.206 4.756-3.412 3.618-5.895 8.146-9.375 17.103-1.185 3.05-2.667 5.97-3.294 6.49-.626.52-3.314 1.204-5.974 1.519-4.338.513-4.896.85-5.428 3.272-.96 4.368-3.908 9.732-7.164 13.037-2.588 2.628-6.732 4.336-10.99 4.528-.56.026-1.059 4.39-1.204 10.564-.286 12.097-2.226 24.137-6.664 40.204-1.524 5.517-3.339 11.503-5.488 18.138-1.193 3.683-2.91 10.138-3.816 14.347-.907 4.208-2.041 8.64-2.52 9.848-2.45 6.18-.017 11.936 5.56 13.16 4.647 1.02 5.056 1.282 6.03 3.845.654 1.719.597 4.995-.18 10.375-1.07 7.391-1.014 8.122.941 12.16.381.365.773.768 1.166 1.202q.59.65 1.177 1.382c1.167 1.46 2.28 3.124 3.123 4.78.42.828.773 1.654 1.031 2.451s.421 1.565.461 2.277c2.013-1.257 4.559-2.117 8.266-2.103.696 0 1.231.005 1.644.07.276.045.496.116.675.23.267.172.44.442.553.865-.266-1.266 10.654-4.162 20.68-5.486-.367.052-1.225.132-2.194.207a89 89 0 0 1-2.866.182c3.104-.832 5.089-1.195 7.678-1.317 1.553-.074 3.325-.061 5.686-.01-10.03-1.073-15.84-1.514-22.54-3.157 7.115.34 14.175-.315 20.285-1.803 6.397-1.168 10.544-1.102 18.184-.3 12.758 1.905 22.182-1.704 35.761-2.254 1.177 0 2.767-.128 4.128-.117-1.663-.432-2.958-.983-3.87-1.708-.41-.473-.81-1.122-1.27-1.982-.437-.814-.927-1.816-1.553-3.106-2.03-4.189-4.85-7.906-8.64-11.393-13.21-12.156-16.003-15.063-17.08-17.778-.787-1.982-1.114-10.565-1.058-27.737.081-24.675.102-24.907 2.557-30.127 1.361-2.893 5.155-8.058 8.433-11.477 7.094-7.402 10.967-12.744 12.9-17.8 2.344-6.131 3.65-14.563 2.997-19.325-.49-3.563-.26-4.882 1.115-6.445.951-1.08 2.16-2.644 2.686-3.473s2.29-3.388 3.921-5.686c.195-.274.403-.603.62-.968 1.605-2.694 3.736-7.649 5.042-11.819 1.483-4.734 5.047-13.772 7.92-20.085 10.148-22.292 14.537-37.187 14.537-49.33 0-7.15 2.353-13.362 7.734-20.431 10.307-13.54 13.336-18.72 14.703-25.136 1.03-4.835-1.2-16.627-4.864-25.714-2.98-7.388-5.277-17.593-3.96-17.593.465.02.754.05.973.079-.505-.362-.946-.775-1.238-1.282a8 8 0 0 0-.475-.72 9.7 9.7 0 0 0-1.16-1.282 17 17 0 0 0-.684-.607c-.955-.808-2.087-1.63-3.377-2.7-1.841-.984-6.54-3.03-10.44-4.547-9.427-3.665-12.745-6.927-15.225-14.957a84 84 0 0 0-1.246-3.661 169 169 0 0 1-5.13-3.488c-4.873-3.416-9.488-6.76-18.46-11.314-.42-.2-.872-.378-1.335-.538-.153-.054-.314-.096-.47-.144a15 15 0 0 0-1.516-.385 15 15 0 0 0-1.057-.17c-.198-.025-.395-.056-.594-.073q-.116-.01-.234-.017a14 14 0 0 0-1.227-.04z" style="opacity:1;fill:#e40515;fill-opacity:1;stroke-width:.956429"/><path d="M1092.11 419.37q-.09-.02-.108.01c-2.901 4.684-3.92 5.616-7.187 6.595-3.042.912-5.946.816-15.067-.49-6.215-.889-12.226-1.845-13.36-2.125-1.485-.367-2.23.019-2.662 1.38-.63 1.986-3.135 3.02-7.368 3.042-1.954.01-2.675.608-3.183 2.643-.794 3.18-4.155 7.717-9.744 13.149-2.288 2.224-4.632 5.394-5.208 7.044-.575 1.65-1.375 3-1.778 3-1.202 0-5.848 5.017-7.368 7.956-.778 1.505-2.257 7.09-3.289 12.413-1.918 9.892-3.168 12.274-7.663 14.599-2.447 1.265-2.523 1.589-3.175 13.53-.937 17.148.167 23.161 6.644 36.174 2.888 5.802 5.251 11.054 5.251 11.672 0 3.048-2.65 6.12-7.535 8.742-2.996 1.607-8.74 6.28-12.97 10.552-4.825 4.873-8.633 7.896-10.446 8.294-3.074.676-9.93 4.75-20.802 12.36-6.588 4.61-7.024 4.766-12.21 4.357-12.666-.998-15.636-.649-21.88 2.573-5.953 3.071-6.005 3.08-11.247 1.715-7.844-2.043-22.066-2.124-26.713-.15-2.074.881-7.718 2.239-12.544 3.015-10.639 1.712-14.31 2.884-18.292 5.838-1.674 1.242-3.94 2.258-5.032 2.258-3.745 0-10.754 4.09-13.497 7.878-1.49 2.057-3.213 5.987-3.827 8.733l-1.117 4.993-9.841 5.002c-9.515 4.838-15.848 9.57-16.95 12.666-.293.821-3.266 2.841-6.608 4.487s-9.11 5.707-12.816 9.026-9.213 8.245-12.238 10.947c-3.024 2.7-8.17 6.313-11.434 8.026s-6.723 3.798-7.687 4.633c-2.875 2.492-4.463 7.614-4.463 14.395 0 3.643-.486 6.874-1.132 7.519-2.028 2.028.042 2.431 4.218.822 2.248-.866 6.647-3.769 9.776-6.45s6.594-5.221 7.7-5.642c2.732-1.038 6.906-.123 10.476 2.296 1.63 1.104 4.673 2.712 6.764 3.574 2.09.86 5.735 2.367 8.098 3.347 2.362.98 5.727 3.034 7.476 4.566 4.769 4.176 11.662 13.533 11.662 15.831 0 2.772-3.41 9.234-5.244 9.938-1.156.443-.32 1.728 3.654 5.617 6.466 6.328 12.303 15.014 16.097 23.95 4.018 9.465 4.426 12.658 1.799 14.064-4.186 2.24-10.365-1.49-13.833-8.352-1.551-3.069-1.62-3.096-4.388-1.664-2.541 1.314-2.718 1.705-1.829 4.044.541 1.424 1.347 3.032 1.792 3.576.444.543.958 2.064 1.141 3.379l.332 2.391-9.18.27c-6.591.196-9.47-.073-10.202-.956-1.953-2.352-7.741-19.441-8.677-25.616-1.15-7.584-2.575-11.477-4.203-11.477-.674 0-2.52.37-4.099.824-4.192 1.202-6.547-.081-10.853-5.91-3.473-4.703-4.284-5.266-8.441-5.887-5.59-.834-9.35-2.924-10.736-5.968-.57-1.253-1.039-5.31-1.039-9.017 0-5.907-.232-6.802-1.888-7.235-1.229-.321-2.101-1.624-2.496-3.727-.334-1.778-.907-3.049-1.274-2.822-1.945 1.202-8.845 14.572-9.766 18.921-1.502 7.1-2.682 8.971-10.27 16.302-11.693 11.297-20.68 25.069-23.042 35.308-1.435 6.219-1.178 20.286.545 29.944 1.208 6.771 1.408 12.078.94 24.867-.598 16.315.002 24.758 2.783 39.214.81 4.208 2.188 13.168 3.064 19.91 1.677 12.922 1.122 19.92-2.074 26.08-.741 1.43-2.08 6.73-2.976 11.779-2.206 12.448-3.296 14.441-7.894 14.441-3.205 0-3.734.349-4.726 3.109-3.272 9.098-2.058 26.472 2.348 33.608 6.184 10.014 22.36 21.762 34.573 25.108 5.266 1.442 6.953 1.508 12.841.498 8.222-1.41 11.563-3.364 16.226-9.491 8.483-11.146 13.427-29.985 11.442-43.605-1.055-7.234-3.22-12.787-9-23.095-4.61-8.22-3.244-33.727 3.046-56.907 2.07-7.628 4.408-17.096 5.195-21.042 2.084-10.44 5.358-33.953 5.358-38.474 0-3.05.744-4.798 3.45-8.1 4.063-4.957 11.94-11.102 16.878-13.165 3.367-1.407 3.591-1.377 5.768.8 1.246 1.245 3.27 2.803 4.498 3.46 4.585 2.454 22.059-1.295 23.496-5.041.375-.978 1.866-1.208 5.757-.885 7.817.648 9.016-.8 9.016-10.876 0-4.347.253-8.561.562-9.366.54-1.41 4.963-3.164 13.56-5.377 2.552-.656 5.2-2.283 7.076-4.345 2.683-2.948 3.377-3.234 6.583-2.721 3.42.547 3.613.435 4.255-2.49.37-1.685.384-5.008.026-7.383-.795-5.305.74-4.843 3.406 1.026 2.127 4.684 2.28 7.084.582 9.133-1.912 2.307-8.164 19.043-9.233 24.72-.522 2.77-1.84 5.992-2.927 7.16-1.088 1.166-3.3 6.377-4.915 11.58-3.328 10.709-11.265 28.117-15.107 33.129-1.411 1.84-4.413 7.005-6.67 11.477-3.512 6.952-4.18 9.237-4.622 15.78-.6 8.888-3.11 15.782-5.744 15.782-3.879 0-9.93 8.728-17.119 24.691-2.227 4.946-5.744 11.851-7.816 15.344-6.328 10.672-6.964 12.895-7.838 27.393-.445 7.39-1.525 15.745-2.408 18.647-1.426 4.687-4.851 12.1-6.187 13.39-4.216 4.074-8.667 38.783-5.888 45.912 1.634 4.19 6.2 7.655 11.255 8.543 2.582.453 6.018 1.364 7.635 2.024 4.638 1.895 7.699.433 16.27-7.776l7.971-7.633 10.848.159 10.847.159 8.56-4.379c10.652-5.45 29.068-12.138 33.42-12.138 2.642 0 4.055-.837 7.375-4.364 2.26-2.4 5.72-5.205 7.69-6.234 1.969-1.028 3.475-2.371 3.347-2.983-.303-1.129-1.017-1.166-2.871-1.166-3.708-.013-6.253.846-8.266 2.104-.216-3.8-3.912-9.178-6.959-12.092 2.227 4.6 2.655 9.705 1.147 13.672-.78 2.051-1.54 2.455-4.638 2.455-4.294 0-7.954 1.108-15.948 4.832-3.156 1.47-6.925 2.97-8.376 3.331-3.85.958-7.11-1.541-8.062-6.177l-.777-3.787-5.597 3.77c-3.078 2.073-6.594 3.77-7.814 3.77-1.266 0-4.544 1.986-7.646 4.632-6.558 5.597-15.498 10.311-21.983 11.593-2.63.52-5.642 1.154-6.695 1.408-7.003 1.696-10.142-8.024-6.566-20.327 1.736-5.97 5.005-11.624 6.733-11.642.834-.009.983-3.662.579-14.182-.528-13.723-.47-14.32 1.829-18.897 1.433-2.853 2.645-7.376 3.058-11.413 1.29-12.626 9.104-32.124 16.586-41.385 2.432-3.01 4.76-5.703 5.172-5.985 1.445-.986 3.467-7.19 4.125-12.648.434-3.604 1.42-6.416 2.85-8.13 2.672-3.202 4.69-7.067 7.22-13.83 2.168-5.795 7.502-11.625 10.166-11.112 1.832.353 2.612 1.632 6.527 10.674 1.326 3.063 2.824 5.315 3.327 5.005 1.64-1.014 3.91-10.73 3.91-16.738 0-4.448.44-6.343 1.82-7.823 2.805-3.012 3.914-9.21 3.95-22.064.04-13.878 1.529-22.951 5.696-34.724 6.49-18.337 8.55-24.712 9.564-29.601.58-2.789 2.32-7.066 3.867-9.506 2.913-4.593 5.302-6.317 20.01-14.429 4.744-2.616 12.147-7.684 16.452-11.26 4.304-3.577 8.937-6.735 10.295-7.017a21 21 0 0 0 1.954-.52l2.256-12.068c-4.578 3.94-9.8 6.452-13.55 6.452-2.731 0-4.558.792-7.387 3.205-4.26 3.635-9.93 5.99-12.261 5.096-.864-.331-1.954-1.615-2.425-2.854-.77-2.023-1.279-2.196-5.006-1.698l-4.151.555-.297 5.23c-.224 3.942.08 5.508 1.235 6.351 1.328.972.756 1.861-4.329 6.725-8.2 7.845-12.362 10.421-18.917 11.711-4.783.941-6.402.875-10.19-.41-5.558-1.888-7.194-1.34-7.194 2.403 0 2.799.15 2.9 4.304 2.9 2.367 0 4.304.415 4.304.924 0 1.498-9.828 8.479-14.016 9.957-2.12.748-5.95 2.665-8.51 4.259-2.561 1.593-4.979 2.696-5.373 2.452-.395-.243-2.076-2.99-3.736-6.104-1.66-3.115-4.474-7.365-6.254-9.445-3.588-4.191-3.926-6.548-1.803-12.564 2.171-6.154 1.922-7.348-1.549-7.446-4.82-.137-7.295-3.34-9.112-11.793-.88-4.1-2.072-7.659-2.645-7.907-.573-.25-4.56-1.94-8.862-3.757-10.022-4.233-13.22-7.31-13.22-12.718 0-2.966.777-5.1 2.98-8.172 3.613-5.042 11.33-11.198 15.02-11.982 2.12-.45 4-2.576 8.756-9.906 8.978-13.835 16.885-19.004 32.096-20.978 3.927-.51 7.68-.938 8.337-.954.821-.02 1.196-1.839 1.196-5.8 0-6.053 1.55-11.078 4.063-13.16 2.47-2.05 12.97-3.642 15.127-2.295 2.515 1.57 3.473 1.456 8.483-1.012 3.646-1.797 5.944-2.152 13.931-2.152 8.662 0 10.081.262 15.046 2.778 8.302 4.206 14.522 10.438 19.166 19.207 5.177 9.774 7.424 11.091 14.708 8.615l2.335-.794.634-3.392-.411-.488c-3.325-3.951-6.118-10.544-6.869-16.214-.567-4.28-.88-4.727-4.11-5.834-1.923-.66-5.53-2.392-8.015-3.848l-4.52-2.65 5.147-1.865c12.13-4.398 20.767-3.873 23.302 1.414.166.345.408.764.686 1.214.181-2.164 2.108-2.499 3.218-.609-1.69-10.976 9.028-11.833 14.952-9.017 11.962 6.072 16.18 9.994 23.591 14.802-.94-2.604-1.986-5.191-2.727-6.644-5.28-10.349-7.132-22.316-4.3-27.79 1.613-3.121 5.854-5.708 9.355-5.708 1.58 0 4.343-2.102 8.893-6.762 7.803-7.992 8.798-8.609 15.143-9.383l4.85-.592.3-4.304c.165-2.367.654-4.664 1.087-5.104s.128-2.474-.676-4.52c-1.969-5.012-.47-7.073 4.47-6.146 5.369 1.007 6.618 2.101 8.103 7.102 1.694 5.704 3.214 8.668 4.444 8.668 1.352 0 1.065-9.091-.511-16.26-2.108-9.58-1.869-14 .911-16.78 2.506-2.505 5.245-2.96 8.229-1.364 1.773.95 1.82.67 1.233-7.595-.691-9.733.33-13.554 4.081-15.264 1.305-.594 2.867-1.08 3.471-1.08s2.73-1.13 4.723-2.51c3.82-2.648 4.072-2.66 17.794-.728 5.452.767 10.415-2.472 14.66-9.57l3.128-5.23 4.838.545c7.866.886 13.96 3.697 21.577 9.95 7.806 6.41 12.563 8.9 18.98 9.938l4.156.673-.33 8.41c-.377 9.582-1.582 11.747-7.29 13.097-2.801.662-3.604 1.394-4.248 3.88-1.158 4.468-3.715 5.493-9.114 3.653-5.832-1.987-8.738-1.896-14.72.462-2.74 1.08-7.776 2.225-11.187 2.544-4.155.388-6.785 1.16-7.964 2.339-2.627 2.627-2.199 5.173 1.1 6.54 3.385 1.401 10.53 9.304 10.53 11.645 0 2.66 1.917 3.06 3.99.835 1.82-1.952 5.559-3.869 7.55-3.869 1.13 0 1.094 12.608-.052 17.694-2.375 10.562-3.112 12.797-4.386 13.286-2.2.844-6.79-.418-8.996-2.474-1.733-1.614-1.93-2.532-1.364-6.35l.663-4.462-5.656 5.858c-5.053 5.234-6.173 5.928-10.519 6.525-5.13.706-10.476-.813-13.96-3.965-2.337-2.116-2.97-1.132-2.2 3.424.705 4.175 6.096 11.125 10.425 13.442 3.204 1.715 3.173 4.068-.123 9.278-2.769 4.377-6.163 6.288-13.269 7.47-4.923.82-9.593-.997-14.49-5.639-3.268-3.098-4.045-3.38-9.34-3.389-6.202-.009-9.919-1.543-18.088-7.466-2.393-1.735-4.35-2.707-4.35-2.16 0 1.235 13.825 15.33 17.568 17.911 2.718 1.874 2.734 1.946 1.678 7.082-.588 2.853-1.917 8.417-2.956 12.362s-2.124 8.357-2.413 9.804c-.473 2.37-.926 2.631-4.571 2.643-2.226.008-4.907.236-5.96.508-1.051.273-3.418-.31-5.26-1.294 2.581 2.138 4.53 3.289 5.696 5.309.996 1.724 3.617 2.47 5.19 3.164 5.41 2.393 7.672 4.707 10.785 11.03 1.317 2.676 5.598 8.27 9.512 12.434s7.81 8.844 8.657 10.4c2.094 3.846 4.382 30.17 3.954 45.51-.301 10.814-.597 12.53-3.005 17.453-2.982 6.095-4.742 7.02-11.434 6.017-4.05-.607-4.113-.57-5.767 3.18-4.373 9.912-6.168 15.363-6.738 20.468-.458 4.1-2.04 8.287-6.043 16.007-4.568 8.805-5.477 11.4-5.77 16.446l-.35 5.99 3.29-3.745c1.809-2.06 4.696-6.149 6.415-9.086 11.046-18.874 13.293-21.982 22.91-31.695 10.663-10.771 14.034-16.066 16.712-26.25 2.065-7.847 3.592-28.414 3.21-43.216l-.316-12.256-4.614-7.073c-2.538-3.89-5.228-7.687-5.978-8.437s-2.446-3.21-3.77-5.468c-1.594-2.721-4.669-5.61-9.117-8.569-8.472-5.633-10.463-8.768-10.472-16.451-.01-9.072 4.574-20.63 8.692-21.937 1.014-.322 4.574.518 7.991 1.885 6.802 2.722 15.695 4.002 20.954 3.015 4.303-.807 8.97-5.402 9.758-9.609.806-4.295 3.671-7.218 7.076-7.218 2.233 0 3.085-.679 4.506-3.587 1.133-2.318 2.522-3.695 3.928-3.894 1.197-.17 2.888-1.461 3.759-2.87 2.572-4.16 4.174-4.952 10.009-4.952 7.797 0 8.459-1.244 9.402-17.675.942-16.43 2.758-20.797 10.044-24.169 10.101-4.674 9.516-4.077 10.074-10.313.502-5.604 2.397-10.018 7.048-16.414 1.222-1.681 2.506-4.831 2.853-7 1.103-6.9 7.091-10.973 17.774-12.09 6.395-.668 11.151-3.094 12.368-6.308.448-1.183 1.123-5.236 1.5-9.004.547-5.466 1.15-7.287 2.987-9.013 1.266-1.19 2.303-2.517 2.303-2.952 0-.434-2.967-.79-6.592-.79-6.307 0-6.79-.168-11.238-3.889-6.133-5.132-8.46-6.277-14.391-7.08-4.654-.63-5.1-.934-7.173-4.89-5.448-10.396-13.878-17.487-19.506-16.41-1.977.377-2.889-.266-5.251-3.7-5.192-7.546-16.172-11.804-30.535-11.843-8.52-.023-12.866-1.098-17.694-4.375-1.72-1.167-3.226-2.05-3.64-2.146zM752.626 738.793c1.179.022 2.22.442 4.074 1.278 4.452 2.007 10.41 7.654 21.763 20.623 8.93 10.202 11.708 14.334 11.708 17.425 0 4.848-8.515 10.275-21.975 14.004-3.845 1.066-7.183 2.13-7.42 2.367-.236.237 1.138 3.602 3.054 7.48 4.366 8.833 5.158 15.292 3.047 24.83-1.363 6.16-2.109 10.585-4.974 29.475-1.07 7.05-4.06 13.837-7.7 17.477-3.33 3.33-3.389 3.512-2.178 6.86 1.05 2.906 1.016 4.063-.223 7.483-1.01 2.788-1.225 5.087-.697 7.394.464 2.024.164 8.907-.76 17.414-.84 7.736-1.28 15.053-.975 16.259.304 1.206 2.437 4.185 4.74 6.618 5.794 6.127 6.89 10.545 6.89 27.776 0 13.53-.083 14.116-2.32 16.498-1.811 1.93-3.237 2.47-6.523 2.47-2.463 0-4.801.594-5.641 1.434-1.806 1.806-6.101 1.85-8.51.09-1.78-1.302-1.782-1.454-.14-4.9.934-1.956 1.5-3.751 1.262-3.99-.24-.239-2.167 1.13-4.284 3.041-3.465 3.131-4.205 3.412-7.442 2.804-4.723-.886-8.233-4.395-7.833-7.827.287-2.451.1-2.59-3.087-2.316-5.406.465-7.058-2.146-7.463-11.785-.318-7.559-.219-8.02 2.017-9.486 2.29-1.5 5.49-1.197 5.49.519 0 .47.625.854 1.39.854 1.71 0 1.985-1.775 3.432-22.123.622-8.748.812-18.647.422-21.998-.39-3.35-1.024-17.067-1.41-30.48-.62-21.517-1.009-25.741-3.303-35.867-1.43-6.312-2.967-13.977-3.415-17.032-1.484-10.144 1.182-26.006 5.526-32.878 1.42-2.246.7-4.622-2.111-6.954-4.404-3.655 2.546-18.283 14.473-30.462.672-.686 2.776-3.591 4.678-6.456s4.13-5.208 4.954-5.208 3.777-.719 6.564-1.597c2.405-.758 3.721-1.135 4.9-1.114m381.798 39.175c-2.044-.022-5.273.297-10.6.773-8.837.79-15.093 2.316-17.911 4.367-1.932 1.407-6.827 6.506-10.61 11.053-7.974 9.583-39.184 25.804-49.554 25.753-2.115-.01-5.625-1.157-8.649-2.824l-5.088-2.804-1.823 4.018c-1.004 2.21-1.835 4.706-1.846 5.548-.026 1.87-3.993 7.248-10.483 14.216-8.15 8.749-10.657 16.217-6.753 20.12 2.414 2.414 2.404 2.717-.486 14.946-2.24 9.482-4.672 15.652-8.315 20.883l-5.314 37.583c9.546-20.108 11.534-23.252 13.1-20.834 2.708 4.18 4.362 15.251 4.362 29.197 0 12.505-.29 15.233-2.264 21.256-1.245 3.8-2.86 7.405-3.587 8.008-.727.604-1.322 1.474-1.322 1.936 0 1.418 7.098.93 9.344-.643 3.753-2.629 4.455-5.299 5.14-19.558.367-7.628.96-17.312 1.318-21.52.586-6.887.365-8.559-2.222-16.737-5.624-17.785-5.392-19.361 3.473-23.65 3.509-1.697 7.225-3.634 8.259-4.304s6.375-4.18 11.871-7.8c12.403-8.17 35.214-19.368 42.09-20.663 2.834-.533 8.214-.98 11.956-.994 3.742-.012 8.621-.442 10.842-.954 3.457-.798 4.625-.624 8.13 1.218 3.452 1.815 5.59 2.152 13.683 2.152 8.412 0 10.174-.302 14.346-2.45 5.165-2.658 9.06-7.462 9.06-11.176 0-1.642 1.75-3.96 5.85-7.748 3.22-2.973 6.267-6.482 6.772-7.797 1.625-4.23 2.697-18.268 1.556-20.4-1.808-3.378-9.572-10.063-19.027-16.384-7.61-5.086-9.412-6.775-10.684-10.012-1.083-2.76-1.206-3.74-4.614-3.775m-23.64 27.4 2.048 2.079 2.047 2.079-2.107 1.616a166 166 0 0 1-4.483 3.288c-2.241 1.578-2.36 2.104-2.083 9.315.164 4.291.818 8.277 1.49 9.088.935 1.126.946 1.75.053 2.827-.677.815-1.02 3.463-.835 6.456l.314 5.073-3.438.288c-2.381.2-5.159-.608-9.058-2.63-3.093-1.605-5.854-2.918-6.134-2.918s-1.04 1.183-1.685 2.63c-1.596 3.576-8.18 7.81-21.29 13.693-6.05 2.714-12.141 5.747-13.538 6.74-1.396.992-2.78 1.804-3.074 1.804s-4.855 2.123-10.135 4.719l-9.597 4.72v-4.12c0-2.267-.646-5.952-1.435-8.188-1.785-5.059-1.836-11.284-.133-16.002a187 187 0 0 0 2.152-6.325c.725-2.32 2.328-3.348 10.893-6.973 5.523-2.339 14.346-5.533 19.606-7.1 5.26-1.568 12.362-4.274 15.782-6.014s10.09-5.144 14.824-7.565c4.735-2.422 11.13-5.343 14.212-6.492zm27.37 4.164c.226.09.054.673-.296 1.838-1.622 5.405-5.012 8.991-10.512 11.118-3.693 1.428-9.773 1.577-10.587.258-1.19-1.926.498-5.448 3.128-6.523 1.454-.594 5.129-1.723 8.167-2.507s6.646-2.16 8.016-3.058c1.238-.811 1.86-1.216 2.085-1.126m8.123 4.361 1.756 2.17c.973 1.2 1.756 3.695 1.756 5.594 0 2.884-.797 4.192-5.03 8.262-2.767 2.66-7.01 5.805-9.43 6.989-5.54 2.71-10.715 2.8-13.282.233-1.583-1.583-1.72-2.236-.781-3.74 1.207-1.932 11.294-4.87 16.704-4.866 2.985.003 4.167-1.288 4.167-4.554 0-.843.932-3.458 2.07-5.81zm-1.698 28.213c.517-.023 1 .064 1.371.294 1.502.928-1.561 6-4.56 7.55-3.738 1.933-10.803 2.65-13.388 1.358-2.315-1.156-2.4-3.18-.132-3.134.745.015 3.023-.523 5.062-1.196s4.729-1.224 5.978-1.224c1.333 0 2.271-.566 2.271-1.37 0-1.151 1.848-2.208 3.398-2.278m410.258 72.093c-15.254-.044-26.811 3.87-38.4 13.007-5.743 4.529-14.885 15.508-17.891 21.488-9.762 19.422-9.712 43.984.127 63 6.403 12.377 19.561 23.24 32.432 26.78 7.538 2.071 24.428 1.771 33.808-.6 20.725-5.242 36.856-16.45 44.005-30.58 9.838-19.446 6.046-53.105-8.014-71.142-11.597-14.877-26.326-21.896-46.067-21.953m11.396 21.118c8.02.116 13.949 5.656 13.949 13.035 0 3.422-4.621 11.928-7.653 14.087-1.489 1.06-4.093 2.205-5.787 2.544l-3.08.617.83-4.69c1.475-8.309.743-14.165-2.407-19.227-3.446-5.535-2.838-6.467 4.148-6.366m-31.074 2.767c5.685.023 9.08.508 11.07 1.582 6.196 3.345 9.671 9.76 8.802 16.242-.31 2.317-1.45 4.871-2.754 6.17-1.904 1.9-2.515 2.05-4.251 1.05-1.115-.642-3.353-1.92-4.973-2.841-4.062-2.307-13.085-4.543-18.333-4.543-4.68 0-8.619-2.041-8.619-4.467 0-2.74 3.89-8.453 7.392-10.853 3.04-2.083 4.471-2.37 11.666-2.34m55.462 30.146c1.81.018 3.074.395 3.672 1.143 3.421 4.276 2.416 12.671-2.088 17.447-2.584 2.74-3.845 3.348-6.877 3.316-4.327-.045-8.232-1.9-12.495-5.937-3.536-3.348-5.787-8.052-4.48-9.36.486-.486 4.636-2.183 9.223-3.772 5.495-1.904 10.028-2.868 13.045-2.837m-66.653.822c3.834-.027 7.722.678 10.552 2.122 5.552 2.832 9.318 5.743 9.318 7.205 0 2.054-17.369 19.484-20.875 20.95-4.447 1.858-7.72 1.713-11.36-.507-4.222-2.574-6.022-6.535-6.022-13.24 0-6.788 2.417-11.015 8.157-14.266 2.615-1.481 6.395-2.238 10.23-2.264m-528.893 4.003c-1.322 0-2.836.123-3.964.123-13.579.55-23.003 4.159-35.761 2.253-7.64-.802-11.787-.867-18.184.3-6.11 1.488-13.17 2.144-20.285 1.803 6.7 1.644 12.51 2.085 22.54 3.157-6.297-.137-8.398-.004-13.364 1.327 1.632-.07 4.325-.285 5.06-.389 5.704-.753 7.262-.602 11.837 1.149 4.954 1.896 5.873 1.947 15.472.88 5.614-.624 12.123-1.136 14.466-1.136 7.034-.003 20.177 2.837 25.768 5.569 4.988 2.436 7.507 5.125 15.277 16.306 1.872 2.693 6.122 4.602 15.57 6.992 7.709 1.95 12.205 4.026 12.205 5.64 0 1.605-4.281 4.745-8.736 6.406l-4.547 1.697 9.75 5.68 9.75 5.681 11.956.037c12.689.039 11.847-.181 23.722 6.196 2.264 1.216 6.02 2.426 8.348 2.688 3.821.431 4.521.931 7.23 5.154 4.073 6.346 14.652 15.876 19.105 17.21 6.239 1.87 5.812 6.409-1.35 14.341-4.977 5.512-8.407 11.68-12.449 22.392-2.008 5.323-3.473 7.518-6.97 10.44-8.308 6.946-20.594 19.115-21.956 21.75-.748 1.446-1.623 5.33-1.947 8.63-.783 7.992-6.015 18.37-9.95 19.741-2.431.848-3.477.472-9.24-3.319-3.574-2.352-7.575-4.51-8.89-4.795-7.1-1.543-12.433-5.65-12.433-9.578 0-2.019-.342-2.066-17.933-2.469-20.925-.48-24.194-1.306-38.091-9.645-4.775-2.865-10.262-5.781-12.195-6.48-7.112-2.571-2.666-3.88 11.916-3.51 7.92.201 9.498-.024 11.238-1.59 3.204-2.883 2.608-5.017-1.561-5.59-1.973-.272-6.17-1.688-9.326-3.146-8.02-3.705-16.728-4.183-27.12-1.49-13.029 3.378-17.74 3.53-25.767.834l-6.979-2.346-1.932 2.714c-3.842 5.396-10.512 4.335-13.03-2.072-1.359-3.461-1.82-3.82-4.94-3.838-5.08-.031-19.479-3.408-23.69-5.558-4.74-2.42-6.242-4.255-8.829-10.791-4.198-10.612-6.578-11.893-9.56-5.15-1.92 4.34-3.776 5.275-6.744 3.397-2.147-1.358-2.613-12.652-.605-14.66 1.44-1.44 1.417-1.633-.299-2.552-1.021-.546-3.132-.739-4.689-.427-4.869.974-6.889-.89-6.889-6.355 0-3.584-.352-4.749-1.435-4.749-.789 0-1.442.323-1.442.717 0 .395-1.508 1.74-3.343 2.99-2.822 1.92-3.573 2.078-4.86 1.01-1.516-1.259-1.484-3.258.154-9.895.613-2.484.49-2.702-1.128-2.006-.999.429-3.213.977-4.923 1.218-3.473.488-4.028-.868-1.643-4.02 1.756-2.322 1.808-6.311.112-8.63-1.218-1.665-1.397-1.593-3.077 1.251-1.978 3.349-4.238 4-4.238 1.222 0-.989 1.119-4.244 2.488-7.235 1.369-2.99 2.252-5.674 1.963-5.963-.888-.887-5.671 3.416-8.996 8.092-5.061 7.118-7.1 15.117-7.123 27.944-.028 15.227 2.375 28.011 8.539 45.43 6.393 18.068 12.72 30.957 24.205 49.307 5.6 8.945 9.1 15.802 12.178 23.86 2.126 5.563 2.446 8.23 3.045 25.346.368 10.52 1.143 20.256 1.72 21.633.985 2.35 4.831 6.04 7.073 6.787 1.724.575-.931 8.144-4.138 11.796-1.627 1.854-5.374 4.926-8.328 6.828-10.977 7.068-12.683 8.335-15.41 11.442-1.536 1.748-3.245 5.012-3.8 7.255-.556 2.243-2.359 6.876-4.005 10.295-6.234 12.945-7.413 17.041-8.578 29.8-.9 9.847-.878 13.675.104 18.879 2.005 10.622.83 24.708-3.706 44.47-3.599 15.68-3.926 18.235-3.926 30.522 0 16.116-1.14 20.587-8.216 32.227-6.663 10.961-8.535 14.82-10.454 21.547-3.536 12.404-10.63 25.846-19.296 36.561-16.315 20.173-19.886 37.052-10.454 49.419 4.325 5.67 10.778 8.024 43.174 15.751 6.847 1.633 12.825 2.97 13.284 2.97 1.402 0 0-16.581-1.702-20.176-3.16-6.657-13.082-10.573-21.736-8.578-9.999 2.305-19.093.541-26.123-5.066-3.903-3.113-4.208-4.061-1.577-4.896 1.764-.56 2.217-1.57 4.727-10.54.646-2.312 3.753-7.026 7.855-11.918 3.732-4.45 8.293-11.122 10.136-14.824s4.922-9.465 6.844-12.804l3.495-6.07 4.394.416c4.06.384 6.683 1.543 25.733 11.363 2.894 1.491 7.554 3.227 10.357 3.857l5.096 1.147-.637 3.389c-.35 1.864-1.298 5.34-2.107 7.722-2.185 6.434-1.705 12.793 1.472 19.559 3.843 8.184 6.787 11.283 16.26 17.107 10.862 6.677 14.565 8.05 25.229 9.346 9.62 1.169 13.363 2.598 15.504 5.921 1.993 3.094 4.038 13.86 2.856 15.042-1.737 1.737-12.234 3.096-19.513 2.527-9.466-.74-16.542-2.887-34.661-10.524-19.58-8.253-23.747-8.27-25.61-.103-1.013 4.434-.219 10.97 1.333 10.98.59 0 4.948 1.49 9.682 3.303 9.609 3.68 13.314 4.041 20.17 1.961 3.355-1.017 9.34-1.43 20.956-1.442 17.755-.019 27.738-1.19 30.354-3.557 1.033-.935 1.687-2.9 1.687-5.079v-3.553l5.977-1.15c8.523-1.643 25.599-5.989 42.8-10.893 8.154-2.325 19.99-5.4 26.302-6.835 17.461-3.967 23.358-5.839 33.22-10.541 4.976-2.373 11.588-4.777 14.693-5.341 3.133-.569 8.415-2.586 11.864-4.532 11.61-6.55 9.701-6.22 39.692-6.86 34.56-.735 35.883-1.067 42.148-10.546 3.118-4.717 5.2-6.76 8.537-8.382 7.42-3.605 40.61-11.386 55.957-13.119 6.32-.714 15.519 1.087 26.868 5.26 17.14 6.304 28.27 7.209 41.17 3.346 17.816-5.336 19.92-5.612 29.848-3.92 10.4 1.773 27.41 2.009 33.916.472 2.469-.584 8.578-2.261 13.575-3.727 4.997-1.467 10.377-2.955 11.956-3.31 3.853-.866 11.44-5.801 13.311-8.657.832-1.269 1.513-3.538 1.513-5.043 0-5.63-6.264-8.338-21.742-9.404-7.372-.508-9.827-.217-20.292 2.4-6.548 1.638-13.34 2.978-15.092 2.978s-7.153-1.312-12.004-2.916c-9.958-3.294-23.801-5.269-42.813-6.107-14.657-.645-28.981-2.7-35.347-5.07-5.432-2.021-10.481-4.965-23.193-13.526l-10.116-6.812-9.409.015c-5.179.01-13.707.832-18.972 1.832-25.742 4.89-30.461 5.716-41.126 7.192-20.21 2.797-22.256 3.994-28.422 16.624-7.685 15.74-10.433 18.414-18.996 18.48-6.695.052-12.415-3.636-18.7-12.054-2.7-3.614-6.142-7.218-7.652-8.01-5.296-2.78-26.463-1.057-32.556 2.648-1.573.957-3.622 3.404-4.553 5.438a1270 1270 0 0 1-3.704 8.005c-1.374 2.938-7.978 10.274-20.81 23.117l-18.796 18.814-11.073 3.456c-27.93 8.719-50.494 13.216-72.41 14.429l-11 .609-2.389-3.673c-7.28-11.191-7.76-14.762-3.523-26.182 4.884-13.161 5.419-15.725 5.429-25.827 0-5.019.64-11.564 1.417-14.547 3.58-13.74 11.791-30.384 20.696-41.94 10.063-13.06 20.2-31.478 25.74-46.768 2.349-6.484 3.003-7.393 6.786-9.453 6.13-3.337 15.255-13.221 19.284-20.888 4.732-9.005 9.335-23.146 14.098-43.305 4.981-21.084 6.174-23.825 12.267-28.203 8.374-6.016 10.661-13.595 10.661-35.29 0-15.465-2.36-35.654-6.751-57.767-3.322-16.73-3.423-25.875-.368-33.681 2.742-7.007 2.56-6.971 11.44-2.247 12.046 6.408 17.495 8.007 30.975 9.084 16.389 1.31 21.057 3.644 38.075 19.048 7.653 6.928 13.584 9.503 21.897 9.503 4.213 0 9.261-.741 12.964-1.902 17.51-5.489 27.51.492 30.125 18.012 1.295 8.673 3.317 12.302 9.462 16.99 1.838 1.401 6.593 6.9 10.567 12.22 13.413 17.954 19.69 23.123 29.38 24.198 4.713.523 5.356.957 13.086 8.823 4.471 4.55 11.358 10.87 15.303 14.044 7.64 6.148 23.569 17.604 24.477 17.604.299 0 2.769 1.438 5.488 3.196 6.695 4.329 12.87 7.7 16.9 9.227 9.344 3.541 25.914 11.642 32.182 15.73 17.006 11.093 27.673 19.322 44.631 34.428 9.042 8.054 12.763 13.113 21.154 28.758 1.382 2.577 8.462 13.269 9.183 13.868.316.263 2.407 2.925 4.646 5.916 4.974 6.647 9.022 9.837 14.28 11.253 3.565.96 4.654.806 9.978-1.417 3.287-1.373 7.31-2.899 8.94-3.391 3.729-1.125 5.554-3.2 7.086-8.057 1.997-6.332 4.829-11.231 8.974-15.525 3.327-3.447 4.955-4.304 10.625-5.595 14.555-3.313 16.893-4.961 19.977-14.077 2.701-7.988 5.24-11.996 12.717-20.068 4.004-4.322 9.76-11.733 12.79-16.467 3.032-4.734 7.462-10.773 9.845-13.418s4.789-6.008 5.346-7.474c1.648-4.333 1.292-25.098-.495-28.863-2.72-5.73-11.102-8.042-23.094-6.368-6.555.915-15.627 4.288-18.934 7.039-4.375 3.638-8.006 7.945-11.328 13.437-4.525 7.48-7.936 9.918-15.59 11.14-3.244.519-7.205 1.617-8.801 2.442-4.875 2.52-8.866 1.906-15.232-2.344-6.145-4.104-11.849-10.067-16.674-17.435-1.636-2.498-3.547-4.543-4.246-4.543s-2.982 1.546-5.073 3.436-4.204 3.288-4.693 3.108c-2.376-.876-24.858-22.128-32.235-30.471-5.754-6.509-20.884-25.488-28.82-36.154-10.24-13.764-9.843-13.306-26.645-30.837-4.772-4.98-9.414-10.179-10.315-11.554s-2.007-5.784-2.457-9.796c-1.392-12.418-5.523-18.353-33.407-47.988-4.636-4.926-6.314-6.033-11.227-7.412-3.177-.891-7.418-1.62-9.426-1.62-4.423 0-6.379-1.964-12.772-12.827-7.078-12.029-12.7-16.867-21.23-18.27-2.367-.39-5.522-1.729-7.009-2.977-1.487-1.249-4.43-2.547-6.538-2.884-4.615-.738-5.408-2.316-3.34-6.652l1.56-3.27-11.17-11.075c-11.079-10.988-11.283-11.13-25.572-18.06-12.771-6.193-17.696-8.024-32.48-12.073-2.813-.77-6.103-3.428-13.39-10.816-8.514-8.631-10.744-10.32-18.8-14.234-8.854-4.304-11.839-6.702-15.613-12.55-3.294-5.105-9.517-11.187-12.966-12.673-1.874-.807-5.546-1.748-8.16-2.09a13 13 0 0 0-1.236-.048zm561.66 8.755c1.436-.006 2.988 1.648 5.22 5.216 5.238 8.368 6.514 22.988 2.362 27.049-1.928 1.885-7.214 3.029-10.437 2.258-15.067-3.603-19.772-10.418-12.523-18.146 2.662-2.838 11.161-12.556 12.794-14.628.902-1.145 1.722-1.745 2.584-1.749m-738.261 94.444c1.939 0 3.612 2.727 2.494 4.065-.55.657-2.325 1.973-3.944 2.923-2.676 1.572-2.942 1.585-2.942.148 0-2.193 3.042-7.136 4.392-7.136m317.42 9.68c1.029.03 2.13.325 3.352.831 3.72 1.541 7.917 6.166 7.515 8.283-.198 1.043-2.394 2.72-5.35 4.086-2.757 1.274-5.012 2.724-5.012 3.22 0 .85 5.048.588 16.52-.856 5.575-.701 8.21-.103 10.996 2.492 2.83 2.636 2.871 8.81.095 13.39-2.683 4.425-3.31 4.75-9.2 4.768-3.728.01-5.021.37-5.021 1.393 0 1.888 1.22 2.507 9.43 4.788 9.164 2.546 9.96 3.783 6.272 9.747-2.212 3.578-5.307 6.25-14.017 12.094-8.116 5.445-13.22 9.754-18.627 15.723-4.096 4.522-9.53 9.875-12.076 11.896-2.546 2.02-5.205 3.672-5.909 3.672-3.207 0-9.308-11.331-8.322-15.456.083-.347-2.096-.933-4.842-1.3-6.381-.853-14.077-5.022-14.077-7.625 0-1.048 1.575-5.137 3.5-9.086 2.824-5.793 5.38-9.031 13.213-16.745 12.008-11.826 12.728-12.867 18.204-26.323 5.803-14.26 8.902-19.12 13.356-18.992zm-309.735 2.333c.977.068 2.094.814 4.143 2.531 2.067 1.733 3.46 3.45 3.094 3.817-.908.91-13.575 2.152-13.575 1.33 0-1.682 3.086-6.35 4.806-7.27.399-.214.756-.351 1.12-.397q.202-.025.412-.01zm14.931 15.382c.918-.072 1.686.473 3.247 1.826 2.3 1.994 2.511 2.526 1.307 3.301-.789.508-1.95.928-2.581.938-1.489.019-5.422 3.722-6.873 6.47-2.115 4.009-4.03 2.448-3.605-2.938.295-3.751 2.529-6.794 6.49-8.843.861-.445 1.465-.711 2.015-.754m13.545 12.775c.59 0 2.206 1.054 3.594 2.34l2.524 2.34-8.272 8.609c-5.123 5.333-9.312 8.86-11.006 9.267-2.686.646-2.722.6-2.05-2.581 1.116-5.271 5.379-12.264 9.907-16.25 2.327-2.049 4.714-3.725 5.303-3.725m18.212 8.608c1.045 0 3.402 5.787 3.388 8.32-.019 3.48-.333 3.896-7.397 9.75-3.288 2.724-5.978 5.594-5.978 6.377 0 1.897 4.592 3.56 7.971 2.888 4.677-.932 8.091-4.222 11.287-10.872 1.696-3.532 3.944-7.39 4.993-8.573 2.576-2.907 7.62-2.922 9.648-.026 3.021 4.313 1.194 8.543-6.312 14.612-4.426 3.58-7.502 7.676-7.502 9.994 0 .552 1.55 1.005 3.443 1.005 3.721 0 5.454-1.441 13.758-11.429 4.491-5.401 11.605-10.569 14.548-10.569 2.021 0 2.114.874.618 5.866-.847 2.826-.838 4.6.037 7.524.63 2.104 1.478 3.826 1.881 3.826.404 0 1.474-1.68 2.38-3.734 2.324-5.266 10.184-10.613 15.602-10.613 2.241 0 1.438 5.25-1.405 9.182-5.284 7.309-5.653 12.007-1.212 15.417 2.14 1.642 2.953 1.496 2.953-.53 0-.964 1.636-4.09 3.635-6.944 2-2.855 3.923-5.937 4.275-6.852.862-2.248 2.202-2.094 3.992.461 1.088 1.553 1.495 4.579 1.518 11.238.023 6.731.539 10.487 1.973 14.373 1.575 4.267 2.098 8.962 2.765 24.867.481 11.49 1.418 21.982 2.264 25.345.793 3.156 1.943 9.511 2.557 14.122 1.279 9.614.153 16.892-3.18 20.549-2.473 2.714-2.732 2.683-10.23-1.185-8.115-4.184-14.166-5.265-28.697-5.127-11.182.105-12.42-.074-19.129-2.752-5.646-2.254-9.304-2.997-17.18-3.493-16.653-1.05-19.745-3.934-16.88-15.744 2.022-8.333 1.95-11.072-.467-17.384-1.104-2.886-2.235-6.235-2.512-7.446-.458-2.002-.255-2.144 2.247-1.561 1.513.352 5.55 2.182 8.969 4.066 12.184 6.715 14.878 7.906 19.128 8.444 3.507.444 4.618.196 6.004-1.338 1.648-1.823 1.597-1.962-1.61-4.408-1.821-1.389-3.581-2.524-3.912-2.524s-3.049-1.144-6.041-2.542c-6.534-3.053-11.918-7.07-16.439-12.264-1.84-2.115-6.821-7.503-11.068-11.974-10.59-11.152-13.024-15.55-13.605-24.598l-.46-7.177 2.285.723c3.548 1.123 5.737 3.11 10.706 9.717 6.607 8.786 14.055 11.7 14.055 5.5 0-1.76-1.715-4.287-5.77-8.51-6.474-6.743-7.757-9.881-6.983-17.075.724-6.733 3.991-11.546 9.856-14.518 2.61-1.323 4.965-2.404 5.232-2.404zm319.746 8.116c1.767.044 3.588.518 5.26 1.454 4.753 2.658 8.034 8.698 13.825 13.808 8.852 7.811 21.953 14.011 8.328 22.773-.01.04-.01.083-.01.124 6.178 8.76.741 14.512-4.742 23.044-4.724 7.35-5.109 12.362-18.151 13.24-.654 14.067-11.13 22.695-25.695 22.388-10.592 33.957-43.416-2.834-53.194-38.466 4.758-1.486 9.834-.19 14.273 1.35 1.975.662 4.928.31 4.81-1.2-.71-11.363 7.508-28.908 23.893-31.856-.576-4.858 5.56-12.933 19.233-12.774 1.818.021 3.407-1.936 3.155-3.455-1.108-6.814 3.713-10.56 9.015-10.43zM872.462 1255.98c3.1.1 9.934 2.145 20.806 6.208 5.596 2.091 14.582 3.417 29.369 4.332 18.793 1.163 23.276 4.224 18.882 12.895-1.085 2.141-2.234 6.401-2.554 9.465-.695 6.659-3.02 11.535-7.758 16.273-1.926 1.926-4.078 3.502-4.784 3.502s-4.606-2.674-8.669-5.942l-7.388-5.942-8.21-.544c-4.994-.33-9.413-1.188-11.274-2.187-1.985-1.066-5.22-1.644-9.207-1.644-3.459 0-7.768-.67-9.852-1.532-5.557-2.298-18.466-11.865-17.922-13.282.257-.669 3.884-3.055 8.06-5.303s7.594-4.405 7.594-4.793c0-.389-1.829-1.464-4.065-2.39l-4.065-1.683 4.304-1.332c2.368-.732 5.506-1.17 6.976-.97 3.714.5 4.099-.773.663-2.196-1.572-.65-2.856-1.56-2.856-2.023 0-.545.454-.849 1.38-.906q.26-.015.57-.01zm-40.262 25.977c6.592.106 10.067 2.8 12.613 5.124 6.694-.691 13.806 3.04 17.094 5.765.738.333 1.3.567 1.91.826 7.661 1.005 12.855 5.382 14.807 9.487 8.946-2.358 18.98-1.633 25.695 6.611 6.832-1.124 13.57 2.743 18.086 9.841q.195.193.376.375c11.653-.565-9.427 49.664-36.643 33.362-13.335.26-24.656-4.201-29.366-13.056-12.17.463-19.252-4.227-25.18-12.49-4.245.152-10.234-.78-12.623-6.461-2.565-15.104 10.02-23.724 11.871-39.369q.701-.025 1.36-.015m602.73 4.102c1.836-.073 2.639.473 4.209 2.167 1.89 2.04 2.36 3.553 2.36 7.605 0 6.471-.68 8.159-8.635 21.441-3.623 6.05-7.21 13.368-7.973 16.261-2 7.589-2.586 8.835-5.324 11.296-3.963 3.565-8.344 5.467-22.541 9.783-14.291 4.345-20.264 7.498-22.325 11.786-.705 1.467-1.921 7.045-2.703 12.398-1.5 10.272-3.836 15.382-7.474 16.36-2.775.746-9.943.493-14.156-.499-10.944-2.577-16.13-9.402-20.716-27.262-1.4-5.45-5.891-11.288-11.517-14.967-6.01-3.93-6.094-5.75-.58-12.52 2.318-2.846 6.258-8.135 8.757-11.753 6.661-9.644 12.647-16.465 15.94-18.168 4.432-2.292 10.276-.96 22.733 5.184 10.937 5.393 11.05 5.425 19.76 5.437 8.223.012 9.017-.165 12.912-2.895 2.283-1.6 6.949-6.623 10.368-11.165s7.293-9.425 8.608-10.851c3.807-4.13 11.6-8.683 16.05-9.378.908-.142 1.635-.235 2.247-.26" style="opacity:1;fill:#000;stroke-width:.956429"/><path d="M1130.068 1720.157c-2.113.043-5.407.48-10.885 1.145-6.05.734-18.528 2.25-27.73 3.37-9.203 1.119-17 2.337-17.325 2.708-.56.64-2.506 6.033-11.46 31.76-2.106 6.05-4.226 11.86-4.713 12.912s-3.745 9.875-7.24 19.607a6355 6355 0 0 1-11.618 32.04c-2.893 7.891-6.686 18.436-8.432 23.433s-6.677 18.555-10.956 30.127c-6.7 18.122-12.32 33.814-19.18 53.56-.913 2.63-3.034 8.177-4.712 12.326-2.067 5.108-2.712 7.751-2 8.191.577.357 6.533-.099 13.234-1.016 6.702-.917 21.439-2.585 32.748-3.706 11.31-1.122 21.435-2.392 22.503-2.823 1.285-.519 2.518-2.679 3.654-6.4.942-3.089 3.466-10.6 5.608-16.69l3.894-11.074 11.58-1.192c12.042-1.24 25.437-2.75 52.23-5.89 20.035-2.348 23.758-2.375 24.658-.174 1.027 2.513 14.677 25.376 16.056 26.893 1.281 1.408 2.438 1.32 35.322-2.733 7.89-.973 19.081-2.25 24.867-2.838 17.87-1.817 19.605-2.104 19.605-3.245 0-.608-1.722-3.586-3.825-6.616s-3.824-5.709-3.824-5.954-1.83-3.208-4.065-6.584-5.205-8.013-6.596-10.304c-3.188-5.25-16.275-25.937-21.998-34.772-2.385-3.682-7.732-12.075-11.884-18.65-4.153-6.576-7.824-12.17-8.156-12.434s-.882-1.371-1.222-2.462c-.34-1.09-1.396-2.82-2.348-3.84-.951-1.022-2.97-4.002-4.483-6.625-1.514-2.622-4.817-7.92-7.343-11.772-2.527-3.852-4.594-7.225-4.594-7.494s-1.24-2.282-2.753-4.472c-3.824-5.531-18.766-28.908-26.255-41.073-2.015-3.272-4.06-6.094-4.544-6.269-.483-.175-.88-.706-.88-1.18 0-.913-5.702-10.599-6.719-11.412-.328-.263-1.613-2.308-2.854-4.543-1.601-2.884-1.843-3.907-5.365-3.835m-20.896 87.743 1.878 3.596c1.032 1.978 3.88 7.039 6.329 11.247 4.623 7.948 9.666 17.05 12.185 21.998.803 1.578 1.996 3.41 2.65 4.07 1.811 1.829 2.614 5.17 1.42 5.907-.58.36-8.482 1.403-17.557 2.32-9.076.917-18.165 1.925-20.198 2.238-3.554.548-3.667.482-2.97-1.722.4-1.26 4.221-12.949 8.494-25.973zM870.99 1720.725l-1.579 10.84c-1.523 10.469-4.377 28.678-10.319 65.833-1.556 9.731-3.499 22.213-4.319 27.736-4.49 30.24-6.281 37.3-10.328 40.704-3.916 3.296-9.78 3.07-28.147-1.09-8.32-1.885-18.14-4.037-21.823-4.783-7.552-1.528-31.87-7.02-33.745-7.621-1.594-.51-2.794 2.778-5.081 13.917-1.027 4.997-3.112 14.25-4.631 20.563-3.913 16.25-5.802 24.701-5.802 25.91 0 .573 2.478 1.574 5.503 2.224s11.74 2.68 19.368 4.511c7.627 1.832 17.244 3.975 21.37 4.764 4.126.788 11.56 2.464 16.522 3.723 7.817 1.983 15.202 3.264 26.666 4.627 12.637 1.502 35.286-.358 44.953-3.691 9.871-3.404 19.34-8.991 25.095-14.81 6.02-6.087 7.313-8.01 10.71-15.93 3.325-7.749 5.555-17.169 7.21-30.457.327-2.63 1.69-11.453 3.028-19.607a2777 2777 0 0 0 4.666-29.649 5435 5435 0 0 1 10.508-66.916c1.76-10.765 3.023-19.86 2.805-20.212s-2.876-.926-5.908-1.274c-8.838-1.017-25.407-3.35-41.377-5.827-8.153-1.264-17.192-2.565-20.085-2.891zM628.798 1628.06c-1.859.037-5.352 2.118-16.119 9.158-8.375 5.477-15.667 10.294-16.201 10.706s-5.27 3.581-10.52 7.042a2599 2599 0 0 0-16.544 11c-3.848 2.588-7.706 5.135-8.573 5.661s-6.77 4.4-13.117 8.608c-16.05 10.642-21.44 14.19-23.285 15.325-.874.539-6.03 3.982-11.456 7.652-5.427 3.67-10.591 7.103-11.477 7.629s-14.953 9.807-31.26 20.625-32.336 21.362-35.62 23.432-5.977 4.259-5.977 4.863c-.007.86 26.132 16.36 55.813 33.094 1.632.92 3.75 1.673 4.703 1.673 1.637 0 6.819-3.118 15.512-9.336 14.78-10.57 13.58-9.988 16.99-8.247 1.702.868 6.208 3.458 10.013 5.755s7.268 4.177 7.698 4.177 1.317.534 1.97 1.188c.655.654 3.926 2.698 7.27 4.543s13.761 7.827 23.151 13.293 18.248 10.55 19.684 11.298 2.824 1.705 3.084 2.126-.316 8.246-1.28 17.393c-.963 9.146-1.589 17.061-1.391 17.587s1.32 1.425 2.493 1.999c3.428 1.675 13.305 7.217 17.179 9.64 1.962 1.226 4.006 2.23 4.543 2.23s.977.4.977.89c0 .491.968 1.198 2.152 1.57 1.183.371 4.42 2.121 7.192 3.889s5.318 3.215 5.658 3.215 3.882 1.966 7.872 4.37c3.99 2.406 7.899 4.706 8.688 5.112 3.276 1.687 6.338 3.529 8.49 5.103 1.258.92 2.601 1.674 2.983 1.674.861 0 1.463-6.073 3.318-33.475.801-11.836 1.877-25.823 2.391-31.084s1.193-14.083 1.51-19.607 1.437-21.878 2.49-36.344c1.052-14.466 2.28-31.682 2.727-38.257.447-6.576 1.49-20.994 2.318-32.04 2.996-39.963 3.385-46.806 2.692-47.432-.388-.35-3.287-2.039-6.443-3.754-3.156-1.716-9.182-5.131-13.39-7.59-4.208-2.46-8.297-4.765-9.086-5.122a26 26 0 0 1-2.87-1.584c-2.173-1.418-13.598-8.18-15.855-9.385a2.14 2.14 0 0 0-1.097-.264m-22.847 86.287q.095-.013.13.022c.215.215-.887 11.522-2.447 25.127s-2.835 25.097-2.835 25.538-.323.771-.718.736c-1.094-.1-5.437-2.194-5.977-2.884-.263-.336-1.964-1.371-3.78-2.302-1.815-.93-3.89-2.283-4.612-3.004-.72-.72-1.703-1.31-2.181-1.31-1.208 0-20.033-10.839-20.033-11.534 0-.49 9.889-7.844 18.65-13.868 9.902-6.81 16.323-11.365 16.738-11.877.958-1.184 6.119-4.535 7.065-4.644zM1471.15 1573.634c-.28.026-.543.266-.69.677-.235.657-.785 1.195-1.224 1.195s-5.46 2.742-11.16 6.094c-5.698 3.35-11.328 6.392-12.511 6.758-1.184.367-2.152 1.004-2.152 1.414 0 .411-1.722 1.523-3.826 2.472-2.104.948-3.826 2.09-3.826 2.536s-.469.811-1.04.811-7.135 3.523-14.586 7.83c-7.45 4.305-14.46 8.272-15.575 8.812-1.813.878-2.254 2.724-4.132 17.276-4.537 35.142-7.149 53.156-7.723 53.272-1.099.223-10.504-3.542-10.504-4.205 0-.402-.565-.732-1.255-.732s-3-.843-5.133-1.874c-2.134-1.03-5.55-2.492-7.592-3.246-2.043-.755-8.878-3.607-15.191-6.34-19.12-8.279-22.377-9.581-23.94-9.581-1.5 0-7.196 2.615-8.1 3.719-.493.602-1.166.996-9.155 5.346a574 574 0 0 0-9.974 5.597c-2.893 1.667-8.63 4.968-12.747 7.336a2239 2239 0 0 0-17.218 10.042c-5.353 3.156-11.346 6.589-13.317 7.63-4.174 2.201-4.336 2.673-1.431 4.109 3.575 1.766 13.349 6.049 18.053 7.909 2.433.962 6.306 2.588 8.608 3.613 2.3 1.024 10.425 4.53 18.052 7.79 7.628 3.259 15.805 6.794 18.172 7.854a517 517 0 0 0 7.174 3.15c21.841 9.294 34.667 14.717 40.17 16.984 3.682 1.517 7.027 3.09 7.436 3.495s.053 5.008-.794 10.228c-2.364 14.583-3.103 19.558-3.75 25.272a235 235 0 0 1-1.488 10.52c-.49 2.894-1.532 9.78-2.316 15.304a2769 2769 0 0 1-3.394 22.954c-1.083 7.101-2.87 19.583-3.968 27.736-1.099 8.154-2.3 16.87-2.67 19.368-.452 3.062-.328 4.543.378 4.543.576 0 4.48-1.98 8.675-4.397 8.246-4.753 15.242-8.67 20.54-11.505 1.842-.985 3.49-2.115 3.666-2.51s.678-.716 1.117-.716 3.953-1.857 7.81-4.127 7.66-4.415 8.45-4.767c.788-.352 5.308-2.928 10.042-5.726l8.608-5.086.724-7.125c.399-3.918 1.352-12.718 2.119-19.556s2.324-20.827 3.46-31.084c1.135-10.258 2.335-18.934 2.663-19.28.329-.346 2.535.312 4.902 1.464 2.367 1.153 5.81 2.693 7.651 3.424 1.841.732 6.36 2.692 10.043 4.357 3.682 1.664 8.847 3.828 11.477 4.808s4.997 2.033 5.26 2.34c.263.308 3.491 1.795 7.173 3.305s8.632 3.601 11 4.646c15.057 6.646 14.455 6.583 21.261 2.242 2.772-1.769 6.762-4.146 8.866-5.285s5.117-2.846 6.695-3.792c1.578-.947 5.236-3.029 8.13-4.627 11.584-6.402 28.242-16.031 28.692-16.586.263-.325 3.602-2.266 7.422-4.314s6.806-4.14 6.635-4.651c-.17-.51-1.572-1.343-3.117-1.85-1.546-.506-3.025-1.195-3.288-1.531s-5.428-2.697-11.477-5.248c-6.05-2.55-12.72-5.405-14.825-6.345s-6.408-2.866-9.564-4.278c-6.689-2.992-38.286-16.727-47.343-20.58-3.42-1.455-13.104-5.665-21.52-9.357l-15.303-6.712.056-3.18c.057-3.101 2.942-23.209 5.808-40.48 1.95-11.755 2.764-16.942 5.107-32.518 1.108-7.364 2.823-18.34 3.813-24.389 3.23-19.75 4.188-27.734 3.41-28.46-.157-.146-.33-.207-.498-.192M1789.45 1450.425c-2.763.037-3.722 1.777-5.997 5.767-4.037 7.079-3.387 6.012-10.459 17.161-5.598 8.824-23.266 35.394-28.784 43.286-8.684 12.418-8.811 12.59-28.508 38.586-1.477 1.949-3.415 4.404-4.306 5.457-.892 1.052-3.342 4.064-5.445 6.694s-4.042 4.998-4.306 5.26c-.265.264-3.547 4.137-7.295 8.609-3.747 4.471-7.762 9.205-8.922 10.52a2569 2569 0 0 0-7.051 8.063c-6.362 7.299-13.492 15.012-23.355 25.263-4.34 4.51-7.89 8.446-7.89 8.744s1.614 2.725 3.587 5.391c1.972 2.667 5.953 8.152 8.847 12.19 2.893 4.037 7.151 9.942 9.465 13.122l4.207 5.782 4.799-4.607c2.64-2.534 6.986-6.925 9.661-9.758 2.675-2.834 6.37-6.727 8.212-8.651s5.001-5.411 7.024-7.749 5.896-6.642 8.608-9.566c6.557-7.07 15.864-18.018 31.776-37.38 7.382-8.981 36.758-48.218 36.758-49.096 0-.364.653-1.317 1.453-2.117 1.553-1.553 25.874-38.07 28.56-42.882.881-1.578 3.587-6.098 6.015-10.043 6.457-10.492 14.662-24.99 14.662-25.91 0-.438-1.829-1.291-4.064-1.895a790 790 0 0 1-26.063-7.497c-5.8-1.772-9.04-2.773-11.19-2.744M213.041 1450.057l-4.304.645c-2.367.355-6.472 1.407-9.123 2.336-4.623 1.621-12.912 4.068-24.666 7.284-3.024.827-5.499 1.89-5.499 2.36 0 1 3.308 7.138 9.264 17.181 2.339 3.946 4.76 8.034 5.381 9.086s2.1 3.284 3.284 4.958c1.185 1.675 2.156 3.33 2.156 3.678 0 .349.968 1.99 2.152 3.647s2.929 4.457 3.88 6.224c.95 1.766 2.163 3.705 2.694 4.308.53.602 3.84 5.491 7.356 10.864 7.96 12.162 7.092 10.899 17.126 24.91 4.618 6.449 9.8 13.714 11.518 16.146 1.718 2.43 4.384 5.979 5.926 7.883 1.54 1.904 6.344 7.98 10.675 13.504 9.709 12.38 17.352 21.86 19.66 24.388.96 1.053 2.984 3.42 4.498 5.26 7.774 9.459 33.32 37.337 45.755 49.933 3.009 3.048 5.646 5.54 5.862 5.54s6.299-8.23 13.517-18.287l13.125-18.286-5.664-5.864c-5.213-5.397-12.538-13.211-18.441-19.672-1.315-1.44-4.759-5.161-7.652-8.272-2.893-3.11-7.197-8.007-9.564-10.881s-5.488-6.49-6.934-8.033c-1.447-1.543-2.64-3.064-2.64-3.38-.005-.317-1.41-2.083-3.125-3.924s-4.606-5.284-6.424-7.651-3.57-4.52-3.893-4.782c-.324-.263-1.84-2.216-3.372-4.34-1.53-2.124-3.338-4.49-4.016-5.26-4.501-5.107-30.661-41.302-36.068-49.902-2.07-3.292-12.882-19.46-13.616-20.36-.429-.526-4.84-7.77-9.803-16.099zM1701.417 1425.356c-.39-.01-2.034 2.25-3.652 5.012-6.481 11.059-24.887 38.512-29.016 43.279-1.367 1.578-2.488 3.115-2.488 3.418 0 .44-4.579 6.73-9.346 12.84-.41.527-2.87 3.755-5.468 7.174-5.093 6.704-16.76 21.217-17.685 21.998-.31.263-1.453 1.637-2.54 3.054-1.668 2.175-9.029 10.891-12.305 14.569-.526.59-4.184 4.717-8.13 9.172-3.945 4.454-8.787 9.75-10.76 11.768s-3.586 4.097-3.586 4.618c0 .917 5.474 9.41 6.69 10.379.33.263 3.237 4.352 6.461 9.086s6.691 9.495 7.704 10.58 2.343 2.915 2.959 4.065 1.47 2.093 1.896 2.093c.678 0 15.487-15.395 21.16-21.998 1.13-1.315 3.445-3.898 5.143-5.739 5.168-5.602 18.884-21.853 27.85-32.997 2.961-3.682 5.986-7.433 6.72-8.337 3.172-3.9 18.665-24.809 23.446-31.64 2.87-4.102 6.727-9.546 8.568-12.1 5.436-7.537 18.766-28.117 26.037-40.196 1.433-2.38 3.065-5.086 3.628-6.015.762-1.257.708-1.807-.213-2.156-3.706-1.402-41.638-11.906-43.073-11.927M298.427 1425.356c-1.928-.02-42.176 11.466-43.09 12.297-.368.335 1.301 3.837 3.71 7.782 2.409 3.946 5.838 9.624 7.618 12.62 1.78 2.994 3.768 6.014 4.418 6.71.65.698 2.01 2.767 3.022 4.598 1.013 1.832 2.098 3.546 2.412 3.809s2.479 3.439 4.81 7.06 4.69 7.068 5.24 7.662 3.142 4.304 5.759 8.243 4.984 7.378 5.26 7.64c.276.264 3.716 4.783 7.642 10.043 14.319 19.181 34.896 44.62 42.595 52.658 1.052 1.098 3.787 4.118 6.079 6.71 2.29 2.592 8.448 9.316 13.685 14.942 5.236 5.627 10.033 10.015 10.659 9.753s3.594-4.004 6.594-8.316 8.516-12.058 12.258-17.212c3.742-5.155 6.667-9.736 6.5-10.181-.255-.682-4.266-5.2-17.518-19.73-1.052-1.154-4.065-4.568-6.695-7.588s-5.311-6.043-5.957-6.717c-.645-.675-3.783-4.512-6.973-8.526s-6.416-8.035-7.172-8.937c-2.8-3.343-14.394-18.132-16.242-20.72a145 145 0 0 0-3.921-5.19c-4.211-5.266-26.323-37.685-33.35-48.895-5.03-8.025-6.764-10.505-7.343-10.515M383.852 1400.88c-1.003.022-2.227.454-4.099 1.027-2.833.866-8.378 2.424-12.323 3.461-14.186 3.73-25.824 7.623-25.824 8.638 0 .569 1.937 3.806 4.304 7.192s4.304 6.38 4.304 6.654c0 .46 17.784 25.846 20.363 29.068.636.794 4.376 5.743 8.311 11 3.936 5.255 7.412 9.771 7.725 10.034s4.356 5.213 8.983 11c4.627 5.785 11.05 13.485 14.274 17.11 8.908 10.02 9.969 11.226 14.225 16.125 2.17 2.499 4.3 4.543 4.733 4.543.655 0 8.523-10.252 12.953-16.878 3.491-5.22 9.48-13.586 11.425-15.958 1.342-1.636 1.937-3.216 1.502-3.99-.77-1.368-8.99-10.95-12.238-14.264-1.073-1.096-4.614-5.31-7.868-9.367-3.254-4.056-6.56-8.145-7.345-9.086-7.424-8.892-28.088-36.62-35.489-47.62-4.578-6.804-5.71-8.74-7.916-8.69M1615.092 1400.508c-.526 0-3.54 3.953-6.695 8.78-4.51 6.894-23.9 33.625-27.957 38.539-.434.526-2.283 2.889-4.11 5.25-1.827 2.363-3.814 4.73-4.416 5.261-.601.531-4.02 4.624-7.597 9.095s-6.782 8.345-7.121 8.608c-1.23.955-12.402 14.257-12.402 14.767 0 .288 3.12 4.737 6.934 9.886s9.517 13.092 12.673 17.65c3.156 4.56 6.169 8.273 6.695 8.254s3.278-2.688 6.116-5.93c2.838-3.24 7.168-8.043 9.622-10.673s7.446-8.441 11.092-12.912c3.647-4.472 7.179-8.705 7.848-9.408.67-.703 2.39-2.855 3.826-4.782s2.859-3.72 3.162-3.982c.414-.36 17.361-22.837 22.715-30.128 2.652-3.61 13.333-19.34 13.652-20.102.216-.517 2.51-4.075 5.098-7.905 2.744-4.063 4.338-7.295 3.826-7.758-.483-.437-2.6-1.238-4.704-1.782-2.104-.545-11.358-3.183-20.563-5.862-9.206-2.68-17.168-4.866-17.694-4.866M1734.591 1090.866c-.293.392-3.235 13.557-4.216 18.863-.535 2.893-2.276 11.501-3.87 19.129-10.014 47.91-11.09 57.899-8.087 75.117 3.631 20.823 17.277 34.323 40.061 39.635 9.88 2.304 19.897 2.464 29.386.467 11.15-2.345 19.891-9.014 27.46-20.95l2.761-4.352.64 6.478c1.184 12.023 9.166 21.98 22.561 28.146 7.04 3.24 10.95 4.437 17.739 5.426 7.927 1.155 10.471 1.165 18.097.062 9.144-1.321 15.511-4.483 22.342-11.092 8.773-8.488 13.575-18.037 18.22-36.236 3.632-14.223 16.64-79.885 15.961-80.564-.232-.232-3.569-1-7.416-1.706s-11.298-2.195-16.558-3.308-12.792-2.63-16.738-3.372-13.414-2.655-21.041-4.253-16.235-3.321-19.129-3.828c-2.893-.506-10.425-2.028-16.737-3.383-6.313-1.354-15.781-3.28-21.042-4.28-5.26-.999-25.465-5.056-44.9-9.014s-35.407-7.101-35.494-6.985zm24.56 59.274c3.053.134 15.344 2.443 40.053 7.511 5.524 1.133 10.173 2.173 10.334 2.31.502.425-3.804 17.835-5.301 21.43-1.954 4.691-6.9 9.267-11.358 10.505-9.116 2.531-22.172.103-29.587-5.501-7.68-5.805-9.465-13.39-6.738-28.626.684-3.825 1.514-7.225 1.845-7.556q.1-.102.753-.073zm82.887 16.543c1.236-.04 3.756.297 6.49.904 3.644.81 13.298 2.772 21.452 4.362 8.153 1.59 15.796 3.1 16.984 3.353 1.947.416 2.104.86 1.59 4.506-1.796 12.723-5.337 20.693-10.771 24.254-2.808 1.84-14.869 2.711-19.758 1.428-4.333-1.138-12.13-4.765-14.209-6.611-2.933-2.605-5.355-8.892-5.378-13.96-.023-5.108 1.824-16.885 2.832-18.064.087-.101.356-.158.768-.172M257.114 1067.756l-3.424 1.426c-1.883.783-3.567 1.834-3.742 2.335-.176.5-.685.911-1.132.911s-7.61 3.702-15.916 8.227-18.341 9.915-22.3 11.98c-3.959 2.064-8.92 4.735-11.023 5.934-2.105 1.2-10.497 5.77-18.65 10.153-18.455 9.922-20.92 11.26-39.214 21.286-8.154 4.469-18.914 10.293-23.911 12.942a1613 1613 0 0 0-17.984 9.708c-4.893 2.69-9.268 4.892-9.723 4.892-.454 0-.971.323-1.147.718-.175.394-3.976 2.62-8.447 4.948s-8.382 4.606-8.69 5.062-.032 3.07.61 5.81c.644 2.74 2.306 9.932 3.694 15.981a2771 2771 0 0 0 4.347 18.65 1603 1603 0 0 1 3.334 14.311c.83 3.663 1.828 6.947 2.216 7.299.388.351 13.618 1.356 29.399 2.23 32.19 1.784 70.857 4.125 126.727 7.674 20.778 1.32 40.576 2.542 43.995 2.714 3.42.173 7.4.396 8.847.497s2.63-.16 2.63-.58c0-.422-.867-4.618-1.927-9.326s-2.345-10.633-2.856-13.166c-.512-2.533-1.967-8.559-3.234-13.39s-2.672-10.72-3.123-13.087l-.82-4.304-16.717-.478-16.716-.479-1.761-7.651a8562 8562 0 0 0-5.574-23.91c-2.097-8.943-3.998-17.186-4.228-18.317-.368-1.812 1.334-2.913 14.401-9.318 8.15-3.994 14.82-7.54 14.82-7.879s-1.26-5.828-2.8-12.2c-1.538-6.372-4.41-18.34-6.38-26.595zm-55.309 87.45c1.17-.068 1.517.656 1.777 2.13.16.907 1.767 8.316 3.571 16.464 1.805 8.149 3.205 14.867 3.112 14.932s-19.32.374-42.729.69l-42.56.574 5.26-2.212c2.893-1.216 10.64-4.791 17.215-7.944 6.576-3.154 13.462-6.409 15.303-7.233 1.841-.825 6.145-2.772 9.564-4.327 3.42-1.554 8.37-3.79 11-4.97s7.929-3.65 11.777-5.485c3.549-1.693 5.54-2.551 6.71-2.619M1932.981 894.228c-11.054.043-35.494.72-58.219 1.677-7.101.3-25.563.984-41.024 1.52-36.838 1.28-46.176 2.666-59.4 8.816-16.8 7.812-25.36 16.187-32.654 31.947-4.542 9.813-5.667 15.642-6.258 32.405-.436 12.397-.218 16.967 1.145 23.91 5.065 25.8 16.18 42.086 35.085 51.407 9.7 4.782 18.244 7.045 31.374 8.307 4.471.43 11.788.601 16.26.383 4.47-.219 26.42-1.019 48.777-1.78s48.726-1.667 58.6-2.01c9.874-.344 18.123-.901 18.331-1.239.423-.685-1.271-50.717-1.769-52.222-.21-.636-11.178-.591-32.718.136-91.412 3.085-104.32 3.348-110.42 2.241-6.948-1.26-11.99-3.596-14.807-6.859-5.54-6.419-6.877-18.708-2.944-27.08 2.652-5.646 4.457-7.404 10.229-9.957 6.503-2.877 17.396-3.757 65.934-5.332 24.46-.793 53.19-1.726 63.841-2.073 17.19-.56 19.368-.81 19.368-2.225 0-9.046-2.202-51.333-2.697-51.79-.15-.14-2.35-.197-6.034-.182M65.505 853.406l-1.112 14.107c-.612 7.76-1.738 22.07-2.501 31.802s-1.619 20.528-1.902 23.992c-.582 7.126-1.709 5.893 10.469 11.442 3.682 1.678 9.707 4.462 13.39 6.187 12.169 5.7 23.782 10.848 33.475 14.841 14.226 5.862 14.826 6.131 14.817 6.656-.004.266-6.568 2.564-14.586 5.107-16.452 5.218-24.464 8.102-45.57 16.402l-14.733 5.792c1.702 8.43-5.128 70.902.409 72.172.726 0 24.346-.627 52.49-1.388 28.142-.762 72.688-1.867 98.99-2.457s48.365-1.247 49.032-1.459c1.632-.52 1.277-48.839-.357-48.54-.582.106-29.633.455-64.559.773s-64.575.804-65.889 1.08c-1.314.275-2.175.293-1.913.04.456-.439 41.651-21.025 70.774-35.369 7.628-3.756 14.85-7.44 16.05-8.185l2.182-1.353-3.163-2.023c-4.426-2.83-5.604-3.525-17.456-10.33a3164 3164 0 0 1-12.142-6.994c-.895-.526-6.063-3.536-11.483-6.687s-10.715-6.256-11.767-6.897c-1.052-.642-2.558-1.48-3.347-1.862-1.334-.648-8.59-4.994-12.936-7.75-1.04-.658-2.957-1.653-4.261-2.21-1.305-.558-2.596-1.311-2.87-1.673-.273-.361-2.433-1.687-4.8-2.946-6.729-3.578-6.801-4.114-.479-3.523 3.156.295 11.334.988 18.172 1.54 6.839.551 19.105 1.63 27.259 2.398 17.735 1.671 82.99 7.134 85.219 7.134 1.334 0 1.667-1.756 2.22-11.716.356-6.444 1.085-17.463 1.619-24.486.533-7.024.825-12.917.646-13.095-.39-.39-13.981-1.877-34.232-3.75-8.153-.753-21.926-2.229-30.605-3.28s-20.516-2.375-26.302-2.943-20.85-2.137-33.475-3.486-26.613-2.83-31.084-3.29a7045 7045 0 0 1-21.862-2.305c-7.552-.808-15.553-1.468-17.78-1.468zM1896.915 715.996c-.897.02-2.026.159-3.17.413-5 1.11-39.31 10.068-46.72 12.198a351 351 0 0 1-10.52 2.813c-2.893.715-9.564 2.462-14.825 3.884a2067 2067 0 0 1-14.346 3.827c-2.63.684-8.01 2.128-11.955 3.208-8.135 2.227-29.757 7.95-51.648 13.67-8.153 2.13-18.698 4.93-23.432 6.22s-10.545 2.797-12.912 3.346-4.613 1.28-4.99 1.627c-.606.56 5.298 26.04 6.475 27.944.257.415 1.491 4.763 2.744 9.661 6.588 25.759 11.514 44.535 14.38 54.816 1.76 6.312 3.755 13.844 4.431 16.737s1.601 5.762 2.055 6.374c.61.822 4.13.226 13.45-2.28 6.943-1.865 15.637-4.115 19.319-4.998l6.695-1.605-.254-3.29c-.14-1.808-.908-5.224-1.707-7.59-.8-2.368-3.157-10.976-5.238-19.13s-4.94-19.03-6.353-24.172c-1.553-5.65-2.218-9.664-1.682-10.149.488-.44 6.268-2.165 12.843-3.833s16.69-4.333 22.476-5.921 12.888-3.462 15.781-4.164c4.975-1.207 14.168-3.641 48.778-12.908a6112 6112 0 0 1 31.084-8.212c23.154-6.042 24.92-6.633 24.527-8.197-.459-1.831-3.964-15.4-8.75-33.867-2.181-8.417-4.323-15.67-4.758-16.118-.217-.224-.881-.324-1.778-.304M114.77 685.667q-.226-.016-.308.014c-2.57.987-13.226 23.217-17.59 36.694-4.832 14.927-6.169 23.106-5.548 33.953 1.357 23.684 13.02 42.1 33.036 52.165 8.405 4.226 14.54 5.675 24.085 5.688 16.165.023 28.27-5.268 51.132-22.343 21.037-15.714 27.112-18.986 35.479-19.112 12.018-.181 15.586 9.419 9.844 26.487-2.208 6.564-5.204 13.75-6.642 15.936-.52.789-1.687 2.94-2.597 4.782-.91 1.841-3.32 6.07-5.355 9.4s-3.328 6.371-2.87 6.758 7.505 2.553 15.658 4.814c8.154 2.262 17.192 4.89 20.085 5.841 9.392 3.086 9.373 3.095 17.733-10.197 4.958-7.883 8.147-15.702 12.042-29.528 1.852-6.577 2.161-10.001 2.194-24.389.042-18.13-.854-23.438-5.886-34.846-6.544-14.84-19.825-26.148-34.874-29.696-9.083-2.141-24.963-1.895-32.748.51-6.114 1.888-22.684 12.098-28.732 17.703-3.364 3.118-19.337 14.565-22.882 16.398-4.618 2.388-13.122 5.064-16.093 5.064-11.293 0-14.129-11.898-7.408-31.084 2.944-8.407 11.214-25.508 12.642-26.143 2.052-.912-.053-2.191-7.173-4.358-21.882-6.66-34.96-10.35-37.224-10.511M354.996 551.684c-6.906-.013-8.964.381-13.676 2.616-6.755 3.203-12.474 8.982-15.835 16.003-2.17 4.534-2.499 6.394-2.376 13.476.122 7.059.546 9.013 3.002 13.868 4.037 7.983 11.04 14.065 19.314 16.77 1.318.43 6.056.659 10.528.507 9.908-.336 15.323-2.508 21.402-8.587 6.75-6.75 8.543-11.07 9.007-21.688.364-8.325.183-9.541-2.172-14.514-3.205-6.768-8.763-12.352-15.714-15.789-4.564-2.256-6.546-2.648-13.48-2.662M1775.897 546.392c-35.9 0-74.782 17.4-98.789 44.205-4.196 4.686-11.804 15.119-11.804 16.188 0 .487-.753 2.035-1.674 3.44-2.326 3.55-3.861 7.875-6.538 18.42-5.13 20.214-1.65 42.489 10.067 64.458 3.553 6.661 10.032 16.34 12.921 19.302.553.567 2.317 2.504 3.923 4.304s4.932 5.104 7.392 7.34 5.019 4.048 5.688 4.027c.67-.02 3.585-1.312 6.478-2.869 2.894-1.557 5.762-2.832 6.376-2.832s1.26-.323 1.435-.717c.395-.89 12.568-6.934 13.965-6.934.56 0 1.162-.323 1.337-.718s2.418-1.706 4.984-2.916l4.667-2.2-1.887-2.104c-21.089-23.53-28.18-40.303-24.486-57.921 1.366-6.518 6.24-15.663 11.208-21.033 3.557-3.844 12.2-10.586 16.833-13.13 1.84-1.01 3.563-2.096 3.826-2.411 1.024-1.228 14.19-5.964 21.798-7.842 7.04-1.739 9.06-1.862 16.774-1.019 9.09.994 19.678 5.047 24.023 9.195 1.08 1.03 2.932 2.524 4.117 3.32 3.166 2.124 10.502 12.238 14.192 19.565 3.282 6.517 7.087 18.613 7.087 22.527q0 2.17 1.674 2.124c.92-.026 9.42-4.026 18.89-8.889l17.215-8.84-.196-6.214c-.249-7.937-4.004-22.768-7.756-30.634-1.604-3.36-3.375-7.186-3.936-8.501-2.631-6.165-13.453-20.808-19.81-26.806-6.325-5.966-14.887-12.408-16.492-12.408-.587 0-1.066-.352-1.066-.782 0-.679-11.098-5.488-18.172-7.874-4.34-1.464-16.017-2.82-24.264-2.82M186.995 520.28c-.928-.011-1.287.422-1.287 1.25 0 .468-5.219 11.956-11.598 25.53a20489 20489 0 0 0-14.946 31.85c-1.84 3.946-6.09 12.912-9.443 19.925s-6.096 12.97-6.096 13.24-3.443 7.591-7.651 16.267c-4.208 8.677-7.659 16.06-7.659 16.407-.003.348-.652 1.875-1.444 3.393-1.596 3.061-.817 4.824 2.612 5.912 1.069.34 6.946 2.99 13.063 5.888 19.042 9.025 21.164 9.824 21.164 7.97 0-.495 1.89-4.907 4.2-9.803 9.426-19.975 11.84-25.26 12.476-27.312.367-1.184 1.09-2.152 1.605-2.152s4.036 1.453 7.825 3.23 9.904 4.64 13.586 6.362a4323 4323 0 0 1 18.65 8.812c6.576 3.125 13.462 6.247 15.303 6.936s8.513 3.713 14.825 6.721l22.27 10.614c5.938 2.83 10.988 5.147 11.222 5.147s5.705 2.51 12.159 5.577c6.454 3.069 14.532 6.816 17.952 8.328 3.419 1.512 7.508 3.488 9.086 4.392s3.3 1.537 3.825 1.406c1.09-.27 5.234-8.087 5.25-9.9.006-.658.441-1.196.967-1.196s.957-.473.957-1.051c0-.579 2.184-5.636 4.855-11.238 2.67-5.603 5.762-12.339 6.868-14.969s2.58-5.631 3.273-6.669 1.263-2.467 1.263-3.175c0-.709-5.057-3.678-11.238-6.598a9917 9917 0 0 1-23.046-10.932c-6.493-3.093-11.964-5.623-12.159-5.623s-5.427-2.417-11.626-5.372c-6.2-2.955-13.854-6.557-17.01-8.005a2520 2520 0 0 1-28.694-13.403c-4.208-2.001-9.803-4.597-12.433-5.766-9.425-4.19-30.128-14.236-30.128-14.62 0-.557 5.21-12.084 10.022-22.175 5.411-11.345 8.15-17.454 8.15-18.181 0-.326-3.765-2.326-8.368-4.444a1649 1649 0 0 1-18.227-8.57c-5.694-2.726-8.827-3.982-10.375-4.002M1615.704 288.156c-.541 0-3.266 2.434-6.058 5.41a978 978 0 0 1-8.9 9.359c-2.105 2.17-7.485 7.817-11.956 12.547l-17.145 18.14a14950 14950 0 0 1-34.904 36.838 3786 3786 0 0 0-16.336 17.293 8256 8256 0 0 1-20.563 21.816c-20.22 21.378-23.907 25.371-23.907 25.927 0 .285 2.686 3.052 5.974 6.15 3.288 3.096 9.851 9.27 14.585 13.72 4.735 4.45 11.84 11.153 15.79 14.894 3.951 3.74 12.975 12.181 20.056 18.756 7.08 6.576 16.83 15.722 21.663 20.325s9.201 8.368 9.703 8.368 4.522-3.93 8.933-8.733c4.411-4.802 10.496-11.24 13.52-14.305 3.025-3.065 5.5-5.828 5.5-6.14s-3.707-4.097-8.236-8.41a9932 9932 0 0 1-13.233-12.624c-2.749-2.63-9.586-9.083-15.196-14.337-5.61-5.255-10.2-9.81-10.2-10.125s2.044-2.726 4.543-5.358 7.556-7.99 11.238-11.908a13547 13547 0 0 1 35.388-37.546c7.89-8.344 16.283-17.164 18.65-19.597 3.68-3.784 17.026-17.893 36.257-38.334l4.907-5.217-6.527-6.26c-17.827-17.095-32.663-30.649-33.546-30.649M408.278 265.951c-1.506.228-4.908 3.424-16.46 14.137-5.26 4.88-10.64 9.796-11.955 10.925-4.067 3.491-25.057 22.416-29.186 26.314-1.114 1.052-5.653 5.141-10.087 9.086a2868 2868 0 0 0-9.112 8.13c-7.141 6.503-9.846 9.09-10.336 9.882-.321.52.816 2.425 2.527 4.233s5.977 6.471 9.479 10.366 7.16 7.943 8.13 8.998 8.004 8.794 15.631 17.199 14.514 15.967 15.303 16.803 2.91 3.21 4.713 5.277c6.024 6.9 19.549 21.868 24.566 27.189 5.26 5.578 6.87 7.347 15.67 17.216 3.048 3.419 6.985 7.756 8.75 9.639 2.924 3.121 8.362 9.164 22.707 25.235 2.834 3.175 5.822 6.312 6.639 6.97 2.271 1.827 3.165 1.498 7.818-2.881 2.368-2.23 8.608-7.927 13.866-12.662a4253 4253 0 0 0 10.6-9.564c.572-.526 2.773-2.515 4.892-4.421 5.334-4.8 5.566-5.41 3.005-7.874-1.231-1.185-3.71-3.853-5.509-5.93-1.798-2.075-5.672-6.367-8.607-9.537-2.936-3.17-8.565-9.357-12.51-13.747a1505 1505 0 0 0-13.503-14.799c-10.615-11.434-13.264-14.444-13.274-15.052-.005-.563 13.112-12.803 21.994-20.526 2.367-2.058 5.168-4.606 6.224-5.662s5.038-4.674 8.847-8.038c3.81-3.365 6.91-6.592 6.892-7.173-.02-.581-3.57-4.8-7.891-9.374s-9.792-10.687-12.159-13.583c-2.367-2.895-4.95-5.284-5.739-5.307s-2.94 1.352-4.782 3.055c-9.39 8.683-16.655 15.317-24.353 22.24-4.68 4.209-10.028 9.05-11.885 10.76-4.001 3.685-4.84 3.796-7.236.957-4.56-5.405-20.19-22.461-22.405-24.45l-2.464-2.21 3.327-2.885c1.83-1.586 6.985-6.224 11.456-10.308 4.472-4.084 13.617-12.29 20.324-18.236 6.707-5.945 12.195-11.112 12.195-11.482 0-.87-1.892-3.029-13.625-15.563-5.318-5.68-10.273-11.191-11.01-12.245-.489-.697-.782-1.205-1.467-1.102M557.939 179.764c-11.737.071-23.52 2.556-34.11 7.448-16.72 7.722-32.68 22.278-39.401 35.933-6.033 12.256-6.89 14.653-8.445 23.567-3.521 20.192-.302 42.465 9.108 63.01 1.566 3.42 2.849 6.455 2.849 6.744 0 .78 7.68 13.666 10.775 18.077a384 384 0 0 1 5.1 7.487c3.106 4.709 18.708 20.395 24.295 24.426 8.035 5.799 14.81 9.727 20.085 11.65 2.893 1.054 6.121 2.347 7.173 2.873 1.052.525 4.926 1.55 8.608 2.277 10.377 2.047 27.386 1.874 35.407-.359 25.693-7.154 45.661-22.66 56.188-43.632 10.672-21.26 10.773-54.307.245-79.323-14.485-34.415-37.914-61.172-64.047-73.141-10.404-4.765-22.094-7.108-33.83-7.037m-10.768 44.467a31 31 0 0 1 3.893.171c7.854.821 14.35 4.608 23.352 13.615 4.873 4.874 20.644 25.979 20.644 27.624 0 .19 1.765 3.461 3.923 7.268 5.703 10.064 10.286 21.28 12.398 30.34 2.25 9.652 2.323 14.516.32 21.317-1.867 6.334-7.888 12.443-14.478 14.688-6.873 2.342-10.491 1.905-18.81-2.275-14.287-7.177-30.052-26.76-42.767-53.127-10.38-21.52-12.958-36.635-7.94-46.538 4.365-8.613 10.722-12.9 19.465-13.083M1468.9 183.67l-2.664 3.226c-1.465 1.775-3.162 4.41-3.773 5.857-.611 1.446-1.391 2.63-1.734 2.63s-1.464 1.614-2.49 3.586c-1.026 1.973-2.845 4.918-4.042 6.546-1.198 1.628-2.176 3.22-2.176 3.538s-1.228 2.43-2.728 4.692-4.785 7.342-7.3 11.287a2007 2007 0 0 1-8.935 13.868c-2.399 3.682-5.29 8.202-6.426 10.043-1.135 1.84-4.426 7.006-7.313 11.477-5.032 7.792-11.107 17.47-13.508 21.52-.624 1.052-2.533 3.906-4.242 6.343-1.71 2.438-3.109 4.728-3.109 5.087 0 .36-1.076 2.062-2.39 3.786-1.316 1.725-2.392 3.382-2.392 3.682 0 .301-2.08 3.704-4.621 7.562s-5.447 8.385-6.456 10.061-6.308 10.041-11.774 18.587c-5.467 8.546-10.136 16.297-10.379 17.225-.324 1.238 1.05 2.62 5.156 5.182a769 769 0 0 1 10.38 6.611c2.63 1.714 10.808 6.883 18.172 11.487 7.365 4.603 15.758 9.9 18.65 11.77 2.894 1.87 6.768 4.34 8.609 5.49 1.84 1.15 7.006 4.458 11.477 7.353s10.281 6.494 12.912 8c2.63 1.507 5.31 3.252 5.955 3.878s2.475 1.714 4.065 2.418c1.59.703 2.891 1.605 2.891 2.002 0 .398.804.723 1.788.723 1.222 0 3.534-2.805 7.293-8.847 3.027-4.866 7.364-11.644 9.639-15.064 5.805-8.725 6.054-10.471 1.877-13.15-1.845-1.184-3.604-2.152-3.91-2.152-.305 0-1.967-1.076-3.69-2.392-1.725-1.315-3.37-2.39-3.656-2.39s-4.094-2.366-8.46-5.255c-4.367-2.89-8.72-5.5-9.672-5.802-.952-.303-1.73-.952-1.73-1.443 0-.49-.41-.89-.909-.89s-2.821-1.292-5.16-2.87-4.727-2.87-5.308-2.87c-.582 0-1.056-.35-1.056-.78s-1.721-1.748-3.826-2.931-3.825-2.347-3.825-2.587c0-.561 5.054-8.371 5.826-9.004.321-.263 1.615-2.26 2.877-4.439 3.909-6.745 9.516-15.792 14.735-23.776 4.585-7.014 7.363-11.346 16.866-26.302 1.839-2.893 5.897-9.233 9.017-14.088 10.213-15.891 10.894-16.98 11.546-18.43.355-.79 2.085-3.43 3.843-5.868 1.758-2.437 3.196-4.715 3.196-5.06s.807-1.793 1.793-3.219c6.544-9.455 16.377-25.225 16.362-26.242-.013-1.012-6.342-5.382-14.273-9.86-.966-.544-3.417-2.092-5.45-3.44-2.03-1.348-8.61-5.583-14.62-9.41zM1038.41 60.048l-1.164 10.999c-.64 6.05-1.832 17.024-2.649 24.389-1.74 15.699-2.693 25.182-5.328 53.082-1.068 11.31-2.354 23.79-2.86 27.736-.505 3.945-1.792 16.642-2.86 28.215s-2.368 24.915-2.89 29.65c-2.356 21.409-2.93 27.504-2.618 27.816.184.184 5.479.798 11.765 1.363 6.285.566 21.112 2.076 32.948 3.357s23.026 2.485 24.867 2.675c9.913 1.027 31.212.545 38.057-.86 29.288-6.015 42.7-23.752 42.602-56.35-.036-12.378-1.79-19.74-6.47-27.153-3.234-5.124-10.764-11.576-17.642-15.12l-5.94-3.062 4.106-1.033c15.64-3.94 24.621-14.07 29.408-33.174 3.145-12.552 2.099-26.336-2.819-37.13-4.579-10.053-15.715-18.49-30.66-23.232-9.786-3.105-16.566-4.157-41.556-6.448-8.943-.82-23.36-2.324-32.04-3.342s-18.139-1.97-21.02-2.115zm50.474 39.96c4.097-.078 18.134 2.24 21.213 3.683 9.203 4.312 12.663 17.945 8.047 31.706-2.256 6.726-3.62 8.552-8.876 11.892-3.905 2.48-12.01 3.397-22.019 2.491l-4.677-.422.657-9.267c.81-11.42 4.007-39.33 4.57-39.892.118-.118.5-.179 1.085-.19m-9.53 80.094 5.329.566c15.067 1.597 23.095 4.883 27.13 11.108 5.911 9.114 3.943 28.095-3.711 35.8-1.13 1.137-3.815 2.966-5.968 4.065-3.288 1.677-5.497 1.977-13.758 1.868-11.489-.152-14.15-.545-14.141-2.088.01-2.243 2.758-31.013 3.924-41.048zM1302.722 108.798c-1.486-.13-2.79 1.882-10.158 11.983-7.522 10.311-31.54 42.667-46.109 62.114-4.509 6.02-8.627 11.66-9.153 12.534-1.055 1.756-6.44 9.034-8.641 11.681-.771.927-1.401 2.11-1.401 2.63s-.323.947-.718.951-1.793 1.612-3.108 3.574-2.923 4.219-3.572 5.015c-.649.797-5.295 7.043-10.322 13.882-20.148 27.404-25.952 35.204-29.385 39.486-4.28 5.338-4.43 6.603-.956 7.997 1.447.58 3.491 1.416 4.543 1.857 6.454 2.706 42.413 15.219 43.736 15.219.999 0 4.411-4.354 9.06-11.558 10.855-16.82 9.824-15.773 13.74-13.95 1.805.84 8.878 3.504 15.717 5.92 23.637 8.349 30.228 10.76 30.7 11.232.26.26-.412 7.519-1.492 16.13-2.218 17.697-2.38 17.086 5.081 19.095 2.059.555 4.438 1.38 5.289 1.835.85.454 4.776 1.959 8.722 3.343a1694 1694 0 0 1 17.215 6.195c5.524 2.022 10.688 3.895 11.477 4.162.79.266 1.697.517 2.016.558.832.108 1.48-6.983 4.708-51.57 1.58-21.83 3.506-46.794 4.281-55.473s2.273-28.263 3.329-43.518c1.055-15.255 2.337-32.47 2.847-38.257s1.048-13.067 1.197-16.179l.273-5.658-6.217-2.102c-5.767-1.95-45.01-16.213-50.919-18.506-.768-.298-1.284-.58-1.78-.622m11.147 56.287q.07-.025.11.015c.215.216-.29 4.857-1.124 10.315a998 998 0 0 0-2.864 20.54c-1.411 11.103-5.74 41.314-6.805 47.488-.49 2.836-1.043 3.58-2.646 3.557-1.114-.016-2.672-.397-3.461-.846-.79-.45-6.977-2.696-13.75-4.992-6.774-2.296-12.515-4.689-12.755-5.316-.42-1.093 7.174-13.865 20.363-34.247 3.404-5.26 6.608-10.425 7.119-11.477s3.49-5.786 6.62-10.52c3.13-4.735 6.417-10.022 7.302-11.75.775-1.513 1.562-2.65 1.89-2.767M748.718 96.282c-8.372.079-16.987.85-22.3 2.28-32.1 8.642-52.605 29.61-60.676 62.047-2.75 11.052-2.98 33.448-.485 47.409 4.78 26.764 17.542 53.584 33.48 70.367 14.128 14.876 30.574 23.427 50.786 26.406 5.024.74 20.803-.233 27.813-1.717 10.622-2.248 21.455-6.743 30.858-12.803 9.84-6.342 22.068-20.986 26.984-32.315 6.839-15.76 9.075-28.522 8.275-47.23-1.152-26.942-10.697-55.924-25.057-76.077-7.21-10.117-10.97-13.92-25.112-25.401-2.526-2.05-18.28-9.42-23.711-11.092-4.352-1.34-12.482-1.953-20.855-1.874m-5.494 41.833c2.55.017 4.4.546 7.265 1.883 2.624 1.223 5.308 2.748 5.963 3.386.654.639 2.16 1.948 3.347 2.909 3.41 2.762 10.084 12.996 14.083 21.596 4.23 9.094 10.082 26.114 12.085 35.145 3.042 13.718 3.5 17.118 3.553 26.302.093 16.403-4.785 26.519-15.034 31.174-5.779 2.624-13.425 2.38-19.443-.619-5.97-2.975-13.352-10.786-17.93-18.973-10.59-18.937-19.63-51.03-19.63-69.689 0-20.422 7.76-31.6 22.894-32.972a29 29 0 0 1 2.847-.142M987.945 57.81c-1.114-.085-7.277.591-35.18 3.772-13.94 1.588-33.308 3.723-43.04 4.744s-23.074 2.489-29.65 3.26c-6.575.772-17.51 2.057-24.298 2.856-6.79.8-12.505 1.612-12.7 1.807s.127 4.396.712 9.336 1.583 13.931 2.218 19.98c1.136 10.824 1.192 10.996 3.504 10.786 1.292-.117 10.006-1.085 19.364-2.151 9.358-1.067 18.483-1.94 20.28-1.94 3.818 0 3.452-1.318 5.723 20.564.819 7.89 2.547 23.384 3.84 34.431a3929 3929 0 0 1 4.357 39.214c1.103 10.52 2.597 23.217 3.32 28.214.722 4.998 1.793 15.112 2.381 22.477.588 7.364 1.244 13.927 1.457 14.585.472 1.455-1.427 1.523 18.62-.674 30.464-3.34 35.542-4.118 36.085-5.533.282-.734-.427-9.159-1.576-18.724s-2.503-21.264-3.008-25.999c-2.054-19.28-3.936-36.2-5.64-50.69-.989-8.417-2.53-22.405-3.423-31.084-.895-8.68-2.14-19.759-2.767-24.62l-1.141-8.837 2.929-.415c1.611-.228 9.817-1.112 18.233-1.965 24.706-2.504 23.434-2.254 23.422-4.632-.01-1.152-.862-10.27-1.902-20.265a8268 8268 0 0 1-1.903-18.42c0-.038-.057-.065-.217-.077" style="opacity:1;fill:#fff;stroke-width:.956429"/><path d="M867.01 1294.325c-.663 21.32-14.507 27.948-16.425 45.71 1.91.25 3.961.342 6.187.257 1.751 3.292 4.418 5.974 7.76 8.034 1.106-7.73 4.022-17.624 6.785-19.982 5.074-4.33 8.077-6.217 7.018-11.744-.54-3.606 6.036-7.56 6.017-14.464-1.93.182-3.853.529-5.728 1.023-1.666-3.505-5.703-7.2-11.613-8.834M841.735 1284.664c-12.576 25.285-17.056 34.953-17.35 42.006 2.379.995 5.023 1.21 7.206 1.132 1.602 2.232 3.294 4.194 5.141 5.873 3.315-4.602 7.064-8.97 6.787-15.49-.238-5.923 3.296-10.678 6.911-13.974 3.873-3.798 5.344-9.29 5.253-15.094-3.261-1.428-7.13-2.422-10.87-2.036-.88-.804-1.885-1.647-3.078-2.417M897.968 1304.525c-.947 9.594-3.532 16.236-5.653 21.915-2.597 6.955-10.45 15.066-12.435 26.653 2.024.202 4.11.296 6.258.254.283.17.564.321.846.477 5.758-3.984 14.223-11.634 16.836-21.387.64-2.388 2.362-3.321 4.771-4.814 3.421-2.095 6.66-9.62 6.626-15.423-3.364-2.138-7.115-3.052-10.898-2.43-1.886-2.315-4.04-4.018-6.351-5.245M1138.2 1183.17c-.758 2.988-1.065 5.901-.903 8.492.118 1.51-2.835 1.863-4.81 1.202q-.972-.337-1.982-.647c2.542 4.254 5.06 8.656 7.392 14.171 25.697 15.84 32.431 20.825 33.51 23.591-4.237-29.866-22.011-33.611-33.207-46.809M1161.19 1159.807c-5.392.97-9.894 3.526-13.49 6.917 6.156 5.444 13.096 12.144 20.702 12.918 6.761 5.361 6.841 11.673 7.212 16.68 6.871 9.306 13.742 15.354 20.612 16.97.48-1.783.783-3.684.876-5.701.046 0 .083-.01.13-.011-.796-4.93-1.12-9.222-5.689-11.86-3.47-2.004-11.135-13.338-13.975-20.586-9.328-5.538-12.622-11.333-16.379-15.327M1183.512 1142.995c.022.194.033.383.065.583.252 1.52-1.336 3.476-3.155 3.455-.494-.01-.976 0-1.451.02 2.063 3.646 4.2 7.145 5.658 12.001 2.51 3.233 5.408 6.15 9.467 8.115.426 3.406 1.756 6.812 3.155 10.218 2.724 1.959 5.429 3.964 8.565 4.96v8.414l6.182 9.058c.093-.153.187-.3.28-.456v-17.016h1.08v-6.972c0-2.508-2.106-6.486-3.933-8.447-1.792-.476-2.975-1.592-3.558-3.08-3.215-9.63-9.947-17.037-22.355-20.853z" style="opacity:1;fill:#e40515;fill-opacity:1;stroke:none;stroke-width:.956429px;stroke-linecap:butt;stroke-linejoin:miter;stroke-opacity:1"/><path d="m1613.56 493.655 30.92-23.694 52.252 66.246-31.48 24.268z" style="fill:#fff;stroke:none;stroke-width:.956429px;stroke-linecap:butt;stroke-linejoin:miter;stroke-opacity:1"/></svg>