<svg xmlns="http://www.w3.org/2000/svg" xml:space="preserve" baseProfile="tiny" overflow="visible" viewBox="0 0 256.04 283.47"><path fill="#F7DB00" d="M131.56 281.78c1.46-1.06 6.1-3.86 6.88-4.29 10.73-5.44 23.24-7.23 36.48-9.13 16.45-2.36 33.46-4.79 47.1-14.84 20.75-15.29 33.45-39.78 33.97-65.53.31-15.7-3.64-29.36-7.82-43.83l-.88-3.07c-8.12-28.28-10.52-67.14 7.09-91.4.09-.12.17-.25.25-.38.38-.65.62-1.02.65-1.06.45-.68.69-1.44.75-2.21V46c.08-1.27-.38-2.56-1.33-3.51-.35-.33-33.54-33.49-34.27-34.23a4.6 4.6 0 0 0-2.81-1.34c-.15-.01-.3-.02-.45-.02-1.12 0-2.19.41-3.03 1.15-10.95 8.08-23.94 12.35-37.6 12.35-16.66 0-33.57-7.11-45.26-19.03A4.57 4.57 0 0 0 128.01 0c-1.23 0-2.4.49-3.26 1.37C113.06 13.28 96.14 20.4 79.49 20.4c-13.66 0-26.65-4.27-37.6-12.35a4.6 4.6 0 0 0-3.03-1.15c-.15 0-.3.01-.45.02-1.07.11-2.06.59-2.8 1.34L1.34 42.49a4.584 4.584 0 0 0-.59 5.75c.03.05.27.42.65 1.07.08.13.16.26.25.38 17.61 24.26 15.21 63.12 7.09 91.4l-.89 3.07C3.67 158.62-.28 172.29.03 187.99c.52 25.74 13.21 50.24 33.96 65.53 13.65 10.05 30.65 12.49 47.1 14.84 13.21 1.89 25.7 3.68 36.43 9.1.94.53 5.48 3.27 6.93 4.32l.16.19c.86.95 2.08 1.49 3.37 1.5h.01c1.28 0 2.5-.54 3.36-1.47.09-.08.15-.15.21-.22m-3.55-2.87.01-.02h-.01c-.26-.33-.51-.57-.85-.82-1.67-1.21-6.33-4.02-7.38-4.61-.06-.03-.11-.06-.17-.09-11.4-5.76-24.24-7.6-37.83-9.54-15.9-2.28-32.33-4.63-45.05-14-19.62-14.45-31.62-37.6-32.11-61.94-.3-15.01 3.56-28.34 7.64-42.46l.89-3.08C21.56 113.03 23.94 72.59 5.36 47c-.46-.79-.75-1.24-.8-1.31.23-.19 33.56-33.48 34.29-34.21.1.09.23.16.34.24 11.74 8.66 25.68 13.24 40.31 13.24 17.86 0 36-7.63 48.53-20.4 12.53 12.77 30.66 20.4 48.52 20.4 14.64 0 28.58-4.58 40.31-13.24.11-.08.21-.16.31-.25.76.75 33.96 33.92 34.3 34.26-.09.12-.36.55-.79 1.28-18.57 25.58-16.2 66.02-7.78 95.34l.89 3.08c4.08 14.12 7.94 27.46 7.64 42.47-.49 24.34-12.49 47.49-32.11 61.94-12.72 9.37-29.15 11.72-45.04 14-13.63 1.95-26.5 3.8-37.9 9.58-.05.03-.1.05-.15.08-.88.49-5.65 3.36-7.34 4.59-.34.22-.63.5-.88.82"/><g fill="#F7DB00"><path d="m121.01 145.38 4.56-4.56-7.63-3.05z"/><path d="M216.68 17.19 16.27 217.6c5.21 11.09 13.13 20.91 23.17 28.3 1.23.91 2.51 1.73 3.81 2.5L245.59 46.07c-6.36-6.35-22.46-22.44-28.91-28.88M87.38 195.7l-2.46 2.46c-.11.11-.26.16-.4.14l-26.98-2.77 12.58 12.59c.68.68 1.12.81 1.83.52.07-.04.13-.08.19-.12l.92-.77c.2-.19.51-.19.71 0l.42.42c.09.09.15.22.15.35s-.05.26-.15.36l-5.8 5.8c-.1.1-.23.15-.35.15a.47.47 0 0 1-.35-.15l-.42-.42a.52.52 0 0 1-.15-.36c0-.13.05-.26.15-.35l.83-.99c-.01 0 .03-.06.07-.12.02-.03.04-.05.05-.09.26-.59.26-1.07-.5-1.83l-16.27-16.21c-.72-.72-1.1-.84-1.82-.52l-.12.05c-.03.03-.05.04-.09.07l-.25.14-.68.65c-.2.19-.51.19-.71 0l-.43-.42a.52.52 0 0 1-.15-.36c0-.13.05-.26.15-.35l7.21-7.21c.11-.11.25-.16.4-.14L76 188.36l-9.35-9.24c-.6-.6-.96-.68-1.21-.68-.18 0-.37.04-.6.13l-.11.05c-.03.03-.05.04-.09.06l-.26.14-.65.62c-.2.2-.51.2-.71 0l-.42-.43a.5.5 0 0 1-.15-.35c0-.13.05-.26.15-.35l5.71-5.71c.2-.2.51-.2.71 0l.42.42c.09.09.15.22.15.35s-.05.26-.15.36l-.47.47-.45.65c-.31.7-.3 1.13.48 1.86l18.37 18.26c.09.09.15.22.15.35s-.04.28-.14.38m12.17-14.51c-1.02 0-2.01-.43-2.72-1.13-.73-.73-1.16-1.72-1.16-2.74a3.87 3.87 0 0 1 3.88-3.88c2.12.03 3.85 1.75 3.85 3.9-.01 2.09-1.73 3.82-3.85 3.85m45.65-43.31-9.87 9.87c-.2.2-.51.2-.71 0l-.42-.42a.48.48 0 0 1-.15-.39c.01-.15.09-.28.21-.37l.2-.14.78-.88c.18-.4.12-.53.1-.58-.05-.13-.25-.35-.89-.62l-5.52-2.25-6.57 6.57 2.28 5.49c.38.92.65.92.75.92s.24-.04.4-.11l.34.39-.22-.43.2-.14.76-.82a.492.492 0 0 1 .75-.05l.42.42c.2.2.2.51 0 .71l-5.94 5.94a.5.5 0 0 1-.35.15.47.47 0 0 1-.35-.15l-.42-.42c-.1-.1-.16-.25-.14-.39.01-.15.09-.28.21-.37l.2-.14.46-.5c.28-.38.39-.88.33-1.38 0-.09-.01-.12-.03-.19l-.08-.21-.29-.75L111 130.3c-.08-.19-.03-.4.11-.54l3.03-3.03a.51.51 0 0 1 .54-.11l26.34 10.61c.8.3 1.28.38 1.78.34.4-.05.59-.15.68-.2l.63-.64c.1-.1.23-.15.37-.15.14.01.27.07.36.17l.39.45c.17.2.16.49-.03.68m10.85-12.19a3.88 3.88 0 0 1-2.71-1.13 3.88 3.88 0 0 1-1.16-2.74 3.87 3.87 0 0 1 3.88-3.88c2.12.03 3.85 1.75 3.85 3.9-.02 2.09-1.74 3.82-3.86 3.85m30.36-29.26c-2.48 1.56-5.24 2.38-7.99 2.38-5.28 0-10.15-3.03-13.02-8.1-3.9-6.94-1.77-15.37 5.18-20.51.86-.64 1.76-1.2 2.76-1.71l1.7-.85a1 1 0 0 0 .35-.22c.36-.35.43-.75.25-1.26q0 .015-.03-.03c-.04-.06-.08-.12-.12-.2-.1-.19-.06-.42.09-.58l.45-.45c.19-.19.49-.19.69-.02l7.1 6.42c.1.09.16.22.17.36 0 .14-.05.27-.15.37l-.39.4a.5.5 0 0 1-.63.06c-.78-.51-1.67-.92-2.67-1.21-.76-.24-1.54-.38-2.38-.43-2.72-.16-5.25.87-6.76 2.78-1.35 1.71-1.8 3.9-1.27 6.17.37 1.67 1.16 3.18 2.74 5.24 3.44 4.47 7.36 6.93 11.04 6.93 2.83 0 5.28-1.48 6.92-4.17 1.28-2.05 1.57-4.57.85-7.48-.05-.17-.11-.36-.17-.55-.07-.22-.14-.44-.2-.65-.06-.23.04-.47.25-.58l.48-.25c.12-.06.26-.08.39-.03.13.04.24.13.29.26.3.62.61 1.3.82 2.06 1.93 6.04-.6 11.98-6.74 15.85m22.14-23.24a3.88 3.88 0 0 1-2.71-1.13 3.86 3.86 0 0 1-1.16-2.74 3.87 3.87 0 0 1 3.88-3.88c2.12.03 3.85 1.75 3.85 3.9-.02 2.09-1.74 3.82-3.86 3.85"/></g><path d="M136.38 273.41c11.4-5.78 24.27-7.62 37.9-9.58 15.89-2.28 32.32-4.63 45.04-14 19.62-14.45 31.62-37.6 32.11-61.94.3-15.01-3.56-28.34-7.64-42.47l-.89-3.08c-8.41-29.31-10.79-69.76 7.78-95.34.43-.73.7-1.16.79-1.28-.34-.33-33.54-33.5-34.3-34.26-.1.09-.21.17-.31.25-11.74 8.66-25.68 13.24-40.31 13.24-17.86 0-36-7.63-48.52-20.4-12.53 12.77-30.67 20.4-48.53 20.4-14.64 0-28.58-4.58-40.31-13.24-.11-.08-.23-.15-.34-.24-.73.75-34.06 34.05-34.29 34.23.04.06.34.51.8 1.31 18.57 25.59 16.2 66.03 7.79 95.35l-.89 3.08c-4.08 14.12-7.94 27.46-7.64 42.46.49 24.34 12.49 47.49 32.11 61.94 12.72 9.37 29.15 11.72 45.05 14 13.59 1.95 26.43 3.79 37.83 9.54.06.03.11.06.17.09 1.05.59 5.71 3.4 7.38 4.61.34.25.59.49.85.82h.01l-.01.02c.25-.31.54-.59.87-.83 1.69-1.23 6.47-4.1 7.34-4.59.05-.04.1-.06.16-.09m-93.13-25c-1.3-.77-2.58-1.6-3.81-2.5-10.04-7.39-17.95-17.21-23.17-28.3L216.68 17.19c6.45 6.44 22.55 22.53 28.91 28.88z"/><path d="M192.33 78.5a.53.53 0 0 0-.29-.26.53.53 0 0 0-.39.03l-.48.25c-.21.11-.31.35-.25.58.06.21.13.43.2.65.06.19.12.38.17.55.72 2.92.44 5.43-.85 7.48-1.64 2.69-4.1 4.17-6.92 4.17-3.68 0-7.6-2.46-11.04-6.93-1.58-2.06-2.37-3.58-2.74-5.24-.54-2.27-.09-4.46 1.27-6.17 1.51-1.91 4.04-2.94 6.76-2.78.84.06 1.62.2 2.38.43.99.29 1.89.7 2.67 1.21.2.13.46.1.63-.06l.39-.4a.494.494 0 0 0-.02-.73l-7.1-6.42c-.2-.18-.5-.17-.69.02l-.45.45c-.15.15-.19.38-.09.58.04.08.08.14.12.2.02.03.04.04.03.03.18.51.1.91-.25 1.26a1 1 0 0 1-.35.22l-1.7.85c-1 .51-1.9 1.07-2.76 1.71-6.95 5.13-9.08 13.57-5.18 20.51 2.88 5.07 7.75 8.1 13.02 8.1 2.75 0 5.51-.82 7.99-2.38 6.14-3.87 8.67-9.81 6.75-15.86-.22-.75-.53-1.42-.83-2.05M69.01 176.73c-.78-.73-.79-1.17-.48-1.86l.45-.65.47-.47q.15-.15.15-.36a.47.47 0 0 0-.15-.35l-.42-.42c-.2-.2-.51-.2-.71 0l-5.71 5.71a.5.5 0 0 0-.15.35c0 .13.05.26.15.35l.42.43c.2.2.51.2.71 0l.65-.62.26-.14c.04-.02.06-.03.09-.06l.11-.05c.23-.09.42-.13.6-.13.25 0 .61.08 1.21.68l9.35 9.24-21.02-2.15c-.15-.02-.3.04-.4.14l-7.21 7.21a.5.5 0 0 0-.15.35c0 .13.05.26.15.36l.43.42c.2.19.51.19.71 0l.68-.65.25-.14c.04-.02.06-.04.09-.07l.12-.05c.73-.32 1.1-.21 1.82.52l16.27 16.21c.76.76.76 1.24.5 1.83-.02.04-.04.06-.05.09-.04.06-.08.12-.07.12l-.83.99a.5.5 0 0 0-.15.35c0 .13.05.26.15.36l.42.42c.1.1.23.15.35.15.13 0 .26-.05.35-.15l5.8-5.8c.09-.09.15-.22.15-.36a.47.47 0 0 0-.15-.35l-.42-.42c-.19-.2-.51-.2-.71 0l-.92.77c-.06.03-.12.07-.19.12-.71.29-1.15.17-1.83-.52l-12.58-12.59 26.98 2.77c.15.01.3-.04.4-.14l2.46-2.46c.09-.09.15-.22.15-.35s-.05-.26-.15-.35zM144.83 136.74a.46.46 0 0 0-.36-.17c-.14 0-.27.05-.37.15l-.63.64c-.08.05-.28.15-.68.2-.5.05-.97-.04-1.78-.34l-26.34-10.61a.51.51 0 0 0-.54.11l-3.03 3.03a.51.51 0 0 0-.11.54l10.61 26.33.29.75.08.21c.01.07.02.1.03.19.07.49-.05.99-.33 1.38l-.46.5-.2.14a.505.505 0 0 0-.07.76l.42.42c.09.09.22.15.35.15s.26-.05.35-.15l5.94-5.94c.2-.2.2-.51 0-.71l-.42-.42a.47.47 0 0 0-.39-.15c-.15.01-.28.08-.36.2l-.76.82-.2.14.22.43-.34-.39c-.16.07-.29.11-.4.11-.1 0-.37 0-.75-.92l-2.28-5.49 6.57-6.57 5.52 2.25c.64.27.84.48.89.62.02.04.07.18-.1.58l-.78.88-.2.14c-.12.09-.2.22-.21.37s.04.29.15.39l.42.42c.2.2.51.2.71 0l9.87-9.87c.19-.19.2-.48.02-.68zm-23.82 8.64-3.07-7.61 7.63 3.05zM156.05 117.93a3.87 3.87 0 0 0-3.88 3.88c0 1.02.43 2.01 1.16 2.74.71.71 1.7 1.13 2.71 1.13 2.12-.03 3.85-1.75 3.85-3.85a3.9 3.9 0 0 0-3.84-3.9M208.55 65.43a3.87 3.87 0 0 0-3.88 3.88c0 1.02.43 2.01 1.16 2.74.71.71 1.7 1.13 2.71 1.13 2.12-.03 3.85-1.75 3.85-3.85a3.9 3.9 0 0 0-3.84-3.9M99.55 173.43a3.87 3.87 0 0 0-3.88 3.88c0 1.02.43 2.01 1.16 2.74.71.71 1.7 1.13 2.72 1.13 2.12-.03 3.85-1.75 3.85-3.85a3.914 3.914 0 0 0-3.85-3.9"/></svg>