<svg xmlns="http://www.w3.org/2000/svg" xml:space="preserve" width="327.39" height="305.446" viewBox="0 0 535.92 500"><linearGradient id="a" x1="167.83" x2="167.83" y1="420.832" y2="46.89" gradientUnits="userSpaceOnUse"><stop offset="0" style="stop-color:#000"/><stop offset=".111" style="stop-color:#4d4d4f"/><stop offset=".379" style="stop-color:#919396"/><stop offset=".5" style="stop-color:#acaeb1"/><stop offset=".604" style="stop-color:#8e9093"/><stop offset=".792" style="stop-color:#5c5d60"/><stop offset=".929" style="stop-color:#2e2e2f"/><stop offset="1" style="stop-color:#000"/></linearGradient><path fill="url(#a)" d="M69.939 62.983c-59.467 29.462-46.684 40.026-50.021 50.036C16.582 123.03 9.354 128.58 9.354 128.58c-20.021 19.451-1.673 26.684-1.673 26.684 28.912 22.234 41.139 60.042 41.139 60.042 55.042 118.39 132.856 176.204 132.856 176.204-49.477-48.37-117.845-172.324-116.737-171.76 1.109.549-19.446-46.151-40.585-62.829-21.119-16.674-9.436-11.11-1.098-22.794 8.337-11.658 3.316-25 3.316-25-3.871-26.125 38.368-34.461 62.27-46.7 23.901-12.238 31.694-8.337 31.694-8.337-1.672 10.565-18.901 12.229-3.336 58.927 15.554 46.69 11.663 72.261 11.663 72.261 7.792 62.259 53.933 185.099 53.933 185.099 22.783 58.379 47.793 50.042 47.793 50.042 28.912-3.343 64.488-124.519 64.488-124.519 29.466-88.944 28.347-100.627 25.574-115.628-2.793-15.015 4.445-37.808 4.445-37.808 26.13-68.912-4.445-90.602-4.445-90.602 3.326 5.56 18.348 35.576 1.109 67.82-17.229 32.233-15.011 64.492-15.565 76.709-.555 12.233-10.01 63.928-10.01 63.928-32.794 138.42-58.357 147.307-58.357 147.307-41.694 27.798-95.053-210.68-98.944-235.69-3.902-25.021-20.021-65.596-20.021-65.596-11.11-34.461 4.446-52.809 4.446-52.809s2.032-6.643-7.609-6.643c-7.105.001-20.534 3.61-45.761 16.095"/><linearGradient id="b" x1="291.815" x2="291.815" y1="500" y2="60.149" gradientUnits="userSpaceOnUse"><stop offset="0" style="stop-color:#000"/><stop offset=".111" style="stop-color:#4d4d4f"/><stop offset=".379" style="stop-color:#919396"/><stop offset=".5" style="stop-color:#acaeb1"/><stop offset=".604" style="stop-color:#8e9093"/><stop offset=".792" style="stop-color:#5c5d60"/><stop offset=".929" style="stop-color:#2e2e2f"/><stop offset="1" style="stop-color:#000"/></linearGradient><path fill="url(#b)" d="M335.651 61.314c27.237 0 99.498 12.239 91.17 44.472-8.336 32.243 13.348 19.451 5.566 33.917-7.793 14.446-21.131 17.778-40.033 61.135-18.9 43.358-81.714 153.982-112.844 185.669-31.129 31.674-23.347 33.913-23.347 33.913.554 6.668 25.575 0 25.575 0 5.556-2.783 7.783 0 7.783 0 46.13 45.575 14.456 54.471 14.456 54.471-130.638 33.918-164.551-5.004-164.551-5.004 5 34.477 130.628 36.693 166.768 20.01 36.13-16.663 22.238-35.58 8.892-67.271-6.067-14.398-25.278-10.754-39.507-7.104-17.064 4.384-27.024 8.757 1.149-17.896 51.704-48.918 116.182-160.1 125.628-189.012 9.456-28.886 30.031-46.68 30.031-46.68 25.563-28.911 1.098-31.694 4.989-41.705 3.891-10 4.445-20 4.445-20-3.408-34.62-51.858-40.083-82.106-40.083-13.973.003-24.064 1.168-24.064 1.168"/><path fill="#089748" d="M166.994 47.777s68.809 17.225 152.772-14.697C403.732 1.175 299.85 7.253 299.85 7.253l-77.023 10.123s98.235-11.653 111.644-2.022c0 0 18.624 16.211-111.644 32.423-.001 0-34.19 2.033-55.833 0"/><path fill="#E3313D" d="M202.487.661S77.845-5.919 101.654 22.443c23.8 28.378 164.016 14.697 178.298 7.099 0 0-120.309 19.754-162.723-9.63 0 .001-23.798-16.714 85.258-19.251M177.528 413.567c-.595-2.552-20.01-30.579-22.772-78.543-1.293-23.583 2.824-51.33 14.025-77.604 10.647-26.366 29.23-51.346 49.18-71.059 20.462-20.344 42.844-35.934 61.592-49.97 9.395-6.981 18.121-13.824 25.688-20.195 6.303-5.466 12.443-12.227 16.98-18.254 9.765-12.27 11.366-22.685 10.762-21.51.451 1.473.8 1.545.604 1.304 1.406-.811 2.526-2.66 4.518-2.115 1.859.58 3.491 3.85 3.881 8.116-3.952 10.493-13.121 22.31-23.079 32.018-9.354 9.143-22.835 18.46-35.34 27.449-25.524 17.86-54.364 37.353-77.424 63.913-23.748 26.375-41.613 60.02-47.362 97.142-6.007 37.018 1.303 76.362 18.747 109.308"/><path fill="#E3313D" d="M170.896 358.731c-.133-2.018-6.92-26.392-.657-61.054 3.121-17.146 9.568-36.447 20.083-54.867 10.626-18.455 24.671-35.811 40.462-50.837 31.858-29.877 67.772-51.104 87.865-70.478 20.482-19.893 25.72-36.345 25.432-35.79.257 7.494-1.806 16.381-4.836 24.969-30.935 37.336-81.263 57.552-117.845 97.039-37.404 37.608-61.223 94.749-50.504 151.018"/><path fill="#E3313D" d="M180.321 316.548c.215-1.591.605-19.852 9.609-44.18 8.891-24.307 28.316-52.808 53.154-75.088 24.692-22.475 52.411-40.211 71.16-55.76 19.198-14.954 28.07-28.629 28.204-28.44a149 149 0 0 1-9.632 20.986c-31.407 27.618-67.813 46.412-97.105 75.099-29.364 27.942-51.52 65.57-55.39 107.383"/><path fill="#E3313D" d="M194.509 294.022c.38-1.155 2.813-14.445 11.5-31.813 8.348-17.433 23.697-38.25 42.599-55.585 18.716-17.474 40.257-32.203 56.005-44.2 15.854-11.89 25.925-20.637 26.027-20.806-3.768 5.637-6.929 10.462-10.718 15.708-26.89 20.124-54.456 36.705-76.88 58.517-22.526 21.711-40.432 48.015-48.533 78.179"/><path fill="#E3313D" d="M208.904 279.156c.103-1.92 14.98-37.701 45.001-64.549 28.87-26.34 65.082-50.078 64.537-50.822l-8.941 12.12c-21.777 15.298-42.444 29.215-59.786 45.858-17.536 16.904-31.622 35.693-40.811 57.393"/><path fill="#E3313D" d="M220.023 271.979c.38-1.515 13.163-27.577 35.842-48.953 21.57-21.017 49.62-39.719 49.415-40.051-2.34 3.141-4.733 6.304-7.002 9.404-33.645 22.951-61.725 47.51-78.255 79.6"/><path fill="#089748" d="M271.41 413.567c.605-2.552 20.021-30.579 22.772-78.543 1.294-23.583-2.813-51.33-14.025-77.604-10.625-26.355-29.22-51.346-49.169-71.059-20.462-20.344-42.854-35.934-61.591-49.97-9.395-6.981-18.132-13.824-25.688-20.195-6.304-5.466-12.443-12.227-16.971-18.254-9.774-12.27-11.386-22.685-10.771-21.51-.441 1.473-.8 1.545-.616 1.304-1.386-.811-2.525-2.67-4.507-2.115-1.859.58-3.491 3.85-3.88 8.116 3.962 10.493 13.121 22.31 23.08 32.028 9.353 9.133 22.834 18.46 35.329 27.438 25.534 17.86 54.375 37.353 77.435 63.913 23.737 26.386 41.612 60.02 47.351 97.142 6.015 37.019-1.305 76.363-18.749 109.309"/><path fill="#089748" d="M278.053 358.731c.134-2.018 6.91-26.392.647-61.054-3.111-17.146-9.569-36.447-20.083-54.867-10.616-18.455-24.661-35.801-40.442-50.837-31.879-29.877-67.793-51.104-87.886-70.468-20.472-19.902-25.708-36.354-25.431-35.8-.247 7.494 1.807 16.381 4.846 24.969 30.935 37.336 81.274 57.552 117.845 97.039 37.403 37.608 61.222 94.749 50.504 151.018"/><path fill="#089748" d="M268.628 316.548c-.237-1.581-.607-19.841-9.61-44.18-8.892-24.307-28.327-52.808-53.153-75.088-24.693-22.464-52.414-40.201-71.161-55.76-19.209-14.954-28.07-28.629-28.203-28.44a149 149 0 0 0 9.631 20.996c31.396 27.608 67.813 46.417 97.095 75.089 29.363 27.942 51.53 65.57 55.401 107.383"/><path fill="#089748" d="M254.429 294.022c-.37-1.155-2.804-14.445-11.489-31.802-8.348-17.443-23.697-38.261-42.598-55.596-18.717-17.474-40.258-32.203-56.007-44.2-15.842-11.878-25.925-20.637-26.027-20.806 3.768 5.637 6.92 10.462 10.719 15.708 26.879 20.124 54.446 36.705 76.88 58.527 22.526 21.701 40.431 48.015 48.522 78.169"/><path fill="#089748" d="M240.043 279.156c-.112-1.92-14.989-37.69-45-64.549-28.871-26.34-65.083-50.078-64.539-50.822l8.953 12.12c21.767 15.298 42.434 29.215 59.764 45.858 17.537 16.904 31.634 35.693 40.822 57.393"/><path fill="#089748" d="M228.925 271.979c-.391-1.515-13.163-27.577-35.853-48.953-21.562-21.017-49.61-39.719-49.415-40.042 2.35 3.131 4.733 6.294 7.012 9.399 33.635 22.947 61.715 47.511 78.256 79.596M535.334 399.616v-18.077c0-6.412-2.617-11.227-7.863-14.436l-36.706-21.643 36.706-21.647c5.246-3.209 7.863-8.015 7.863-14.426v-19.241h-76.016v21.639h49.805l-49.805 28.859v9.632l49.805 28.855h-49.805v19.917a4.8 4.8 0 0 0-.453 2.013c0 1.503.729 2.994 2.095 4.144l30.884 25.693c1.458 1.207 3.46 1.884 5.565 1.884 2.104 0 4.105-.688 5.554-1.894l30.585-25.52c1.852-1.55 2.505-3.737 1.786-5.752"/><path fill="#E3313D" d="m533.548 488.999-30.585-25.523c-1.448-1.201-3.45-1.885-5.554-1.885s-4.107.673-5.565 1.885l-30.884 25.693c-1.365 1.145-2.095 2.638-2.095 4.143 0 .812.206 1.618.637 2.397 1.202 2.207 3.983 3.634 7.044 3.625l61.468-.175c3.05-.012 5.793-1.442 6.993-3.65s.627-4.764-1.459-6.51"/><path fill="#FFF" d="m533.548 405.369-30.585 25.52c-1.448 1.206-3.45 1.894-5.554 1.894s-4.107-.677-5.565-1.884l-30.884-25.693a6.7 6.7 0 0 1-.954-.991v21.196l26.561 21.937-26.561 21.929v20.882a6.5 6.5 0 0 1 .954-.988l30.884-25.693c1.458-1.212 3.46-1.885 5.565-1.885 2.104 0 4.105.684 5.554 1.885l30.585 25.523q.411.345.74.729v-20.453l-26.192-21.929 26.192-21.921v-20.786a6.6 6.6 0 0 1-.74.728"/><path d="m460.006 469.275 26.561-21.929-26.561-21.937v-21.196c-.746-.958-1.141-2.052-1.141-3.152 0-.081.011-.163.016-.244l-.262-.186v25.349l25.874 21.366-25.874 21.36v24.626l.255-.178c.036-1.049.422-2.085 1.132-2.998zM535.684 400.42l-.118.09c.225 1.445-.224 2.915-1.277 4.129v20.786l-26.192 21.921 26.192 21.929v20.453c.873 1.005 1.321 2.186 1.326 3.383l.069.052v-24.447l-25.534-21.369 25.534-21.366zM497.172.343h.217c21.18 0 38.531 16.674 38.531 40.412 0 14.435-4.784 23.172-11.602 30.667l-9.692-8.839c5.544-6.269 9.261-12.988 9.261-21.941 0-15.005-11.715-25.868-26.293-25.868h-.205c-14.59 0-26.51 10.863-26.51 25.868 0 9.631 3.727 15.781 9.681 22.496l-8.511 8.845c-8.091-8.172-13.193-17.131-13.193-31.782-.001-22.85 16.92-39.858 38.316-39.858"/><path d="M497.172 136.059h.217c14.476 0 26.498-11.084 26.498-26.644s-11.816-26.417-26.293-26.417h-.205c-14.478 0-26.51 11.089-26.51 26.648s11.817 26.413 26.293 26.413m0-67.496h.217c20.976 0 38.531 17.018 38.531 41.084s-17.352 40.857-38.326 40.857h-.205c-20.977 0-38.533-17.022-38.533-41.089-.001-24.065 17.341-40.852 38.316-40.852M495.89 186.151c0 10.411 5.543 16.905 13.314 16.905h.206c8.737 0 13.317-6.602 13.317-16.905V170.15H495.89zm38.757-29.774v30.899c0 18.244-9.908 29.774-24.908 29.774h-.226c-16.705 0-25.441-14.107-25.441-31.34v-15.56h-23.943v-13.773zM489.718 258.611l29.806-13.537-29.806-13.439zm45.463-19.702v12.768l-75.042 34.472V271.6l17.988-7.948v-37.043l-17.988-8.059v-14.103z"/></svg>