<svg xmlns="http://www.w3.org/2000/svg" xml:space="preserve" viewBox="-0.1 -0.44 70.21 62.88"><path fill="#FFF" fill-rule="evenodd" d="M65.271 22.602a9.072 9.072 0 0 1 .227 15.929c-3.375 13.725-15.766 23.908-30.529 23.908-14.782 0-27.186-10.209-30.542-23.961a9.07 9.07 0 0 1-4.525-7.851 9.08 9.08 0 0 1 4.751-7.979C8.312 9.341 20.499-.439 34.969-.439c14.451 0 26.629 9.757 30.302 23.041" clip-rule="evenodd"/><path fill="#00438D" fill-rule="evenodd" d="M35.007.219C52.004.219 65.789 14.003 65.789 31c0 16.996-13.785 30.781-30.782 30.781S4.226 47.996 4.226 31C4.226 14.003 18.01.219 35.007.219" clip-rule="evenodd"/><path fill="#FFF" fill-rule="evenodd" d="M35.007 1.448c16.319 0 29.554 13.233 29.554 29.553 0 16.318-13.234 29.554-29.554 29.554S5.454 47.318 5.454 31c0-16.319 13.234-29.552 29.553-29.552" clip-rule="evenodd"/><path fill="#00438D" d="M14.836 18.1q-.501.632-1.054.723-.554.086-1.078-.254-.537-.347-.671-.9-.134-.549.231-1.239l-.386-.249.321-.496.387.25q.494-.627 1.047-.72.554-.094 1.086.251.522.34.669.877.147.54-.23 1.264l.389.25-.321.496zm-2.163-1.404q-.176.402-.087.725t.511.598q.73.475 1.33-.184zm2.075.642q.175-.403.088-.727-.088-.326-.509-.6-.731-.473-1.332.188zm1.692-2.547-2.889-.74.481-.553 2.045.55-.938-1.824.418-.48 1.366 2.744q.265.528.255.835-.01.305-.305.644l-.167.192-.44-.385.165-.191q.165-.188.169-.328a.76.76 0 0 0-.096-.335zm3.432-1.886-.549.478-2.088-2.4-.756.656-.38-.439 2.061-1.79.381.438-.754.657zm1.094-.947-1.994-3.193 2-1.249.289.462-1.426.89.521.833.554-.345q.418-.263.705-.341a.85.85 0 0 1 .593.06q.303.139.505.462.267.426.163.86-.104.433-.62.754zm.265-.855.643-.401q.54-.338.24-.82a.55.55 0 0 0-.326-.256q-.202-.058-.563.167l-.585.365zm3.923-1.469q-.686.305-1.296-.039-.611-.344-.946-1.1-.334-.75-.153-1.437.18-.685.846-.982.668-.297 1.283.035t.952 1.09q.353.795.169 1.465-.187.672-.855.968m-.217-.501a.78.78 0 0 0 .443-.529q.11-.383-.215-1.109-.263-.593-.605-.842-.341-.251-.742-.072-.796.354-.227 1.636.276.621.623.853.345.231.723.063m2.382-.484-.567.163.11-3.947.826-.239 2.18 3.292-.699.2-1.777-2.748-.037.011zm2.887-.815-.459-3.735.673-.083.177 1.43.625-.078q.528-.064.817.001t.495.33c.206.265.223.387.252.633q.062.506-.211.876-.273.369-.927.449zm.602-.663.718-.088q.642-.079.571-.667-.073-.592-.715-.513l-.719.088zm5.503.262h-.678V5.799h-1.437v1.634h-.68V3.669h.68v1.547h1.437V3.669h.678zm1.591-.205-.043.338-.674-.083.459-3.734.674.083-.256 2.097a13 13 0 0 1-.09.561c.15-.239.33-.469.531-.691l1.291-1.402.045-.378.67.082-.457 3.736-.672-.082.238-1.936q.06-.503.102-.683a6 6 0 0 1-.535.688zm3.731.763-.1.327-.65-.199 1.102-3.599.648.199-.617 2.02q-.075.245-.184.538.284-.314.643-.587l1.514-1.158.111-.365.645.197-1.1 3.599-.646-.198.57-1.864q.15-.486.219-.654-.307.32-.646.583zm1.281-4.346.346.105q-.058.364.355.49.4.123.555-.211l.346.106a.77.77 0 0 1-.389.442q-.283.143-.641.033a.84.84 0 0 1-.5-.369.74.74 0 0 1-.072-.596m6.574 8.568-.643-.401.342-2.045-1.129.431-.504.807-.576-.359 1.994-3.192.576.36L48.5 9.49q.218-.104.307-.137l1.961-.779.582.363-1.414.576zm.424.514-.453-.38 3.334-2.115.66.553-1.51 3.647-.557-.468 1.283-3.011-.029-.026zm3.621 1.945 1.039-2.797.5.537-.762 1.976 1.912-.742.436.465-2.873 1.073q-.553.207-.855.164-.304-.041-.609-.369l-.174-.187.428-.398.172.185q.173.184.311.202a.76.76 0 0 0 .342-.059zm.547 2.369 3.156-2.049 1.285 1.978-.457.296-.916-1.408-.822.536.355.545q.268.413.352.701a.82.82 0 0 1-.049.592q-.134.307-.453.514-.421.275-.857.178-.434-.095-.766-.607zm.859.25.414.636q.346.537.824.227a.56.56 0 0 0 .25-.33q.054-.203-.176-.56l-.377-.579z"/><path fill="#009FE3" fill-rule="evenodd" d="M35.007 9.147c9.415 0 17.44 5.958 20.515 14.306a9.073 9.073 0 0 0 .207 14.504c-2.908 8.656-11.086 14.896-20.722 14.896-9.618 0-17.785-6.217-20.706-14.85a9.074 9.074 0 0 0 .21-14.595C17.597 15.083 25.61 9.147 35.007 9.147" clip-rule="evenodd"/><path fill="#FFF" fill-rule="evenodd" d="M48.848 32.32c-.846-.293-1.154.49-.998 1.297.477 2.426 1.074 5.768-.238 8.5-.828 1.723-2.396 3.268-5.531 4.217.824-.48 1.537-1.084 2.193-1.797a10 10 0 0 0 1.977-3.254c.422-1.133.674-2.414.656-3.807q-.01-.616-.076-1.279a26 26 0 0 0-.164-1.328l-.057-.371-.334.168c-.984.49-2.059.975-3.195 1.445.098-1.781.15-3.256.691-4.822.611-1.77 2.217-2.1 2.934-2.08 1.028.03 1.952.452 2.142 3.111" clip-rule="evenodd"/><path fill="#FFF" fill-rule="evenodd" d="M46.182 35.316a53 53 0 0 1-3.469 1.529c-.887.355-1.807.701-2.752 1.033-.014.627-.262 1.605-.688 2.813a64 64 0 0 0 7.068-2.391q.027-.401.021-.816-.01-.615-.07-1.236a20 20 0 0 0-.11-.932M37.969 43.988c3.133-.471 5.748-1.279 7.492-2.215q.153-.331.283-.68a10 10 0 0 0 .52-2.041c-1.967.83-4.473 1.682-7.26 2.375q-.163.425-.35.877-.326.802-.685 1.684M20.141 43.033l-.591.637c1.363.563 3.422 1.215 4.852 1.643l.551-.98c-1.474-.321-3.503-.86-4.812-1.3m6.206-1.777c-1.518.104-3.503.113-4.732.033l-.521.619c1.329.254 3.411.43 4.939.51l.425-.754a3 3 0 0 1-.111-.408m-5.49.93-.492.584c1.346.4 3.384.822 4.855 1.088l.516-.914c-1.527-.135-3.568-.44-4.879-.758M36.709 47.063l.115-.004c1.707-.064 3.045-.277 4.18-.781 1.129-.5 2.045-1.209 2.871-2.107a9 9 0 0 0 1.068-1.424c-1.658.854-4.211 1.568-7.266 1.955-.308.759-.632 1.552-.968 2.361M41.754 12.541c-.512-.06-.744-.076-1.629-.509.41-.325 1.057-.123 1.395-.603-1.248.045-1.619-.341-2.344-.672-.82-.375-1.65-.624-2.949.076l.004 2.517c.381-.451 1-.965 1.707-1.066.523-.077 1.031.079 1.576.208.748.176 1.412.3 2.24.049m-12.665-.558-.321-.092c1.569 10.895-.271 20.75-6.97 29.216 7.807-5.006 14.509-7.371 20.901-7.416.328-3.412 1.449-5.138 4.301-5.093-.428-4.424-2.008-9.002-5.266-13.006-4.222-1.204-8.421-2.4-12.645-3.609M38.154 36.479c.646 0 1.178.594 1.258 1.361.006.064.018.133.01.199-.111 1.016-.613 2.213-1.076 3.246-.584-1.033-1.455-2.023-1.455-3.246q0-.121.014-.236c.091-.75.616-1.324 1.249-1.324M35.344 37.266c.613.01 1.113.58 1.18 1.313.004.063.014.125.006.189-.117.965-.611 2.098-1.063 3.076-.542-.99-1.36-1.943-1.347-3.107q.003-.114.017-.227c.097-.711.604-1.252 1.207-1.244M32.675 38.02c.583.018 1.049.566 1.103 1.262.005.061.013.121.005.182-.125.914-.609 1.982-1.052 2.906-.501-.947-1.267-1.863-1.237-2.969q.003-.11.019-.213c.1-.676.59-1.182 1.162-1.168M30.134 38.744c.551.023.984.553 1.025 1.211.004.055.01.113.001.172-.131.863-.606 1.869-1.038 2.736-.459-.904-1.172-1.783-1.127-2.83q.005-.103.02-.201c.107-.639.576-1.109 1.119-1.088M27.71 39.441c.52.031.922.537.947 1.158.004.055.009.109 0 .162-.139.814-.604 1.756-1.025 2.568-.42-.861-1.077-1.703-1.019-2.689q.006-.099.023-.191c.111-.601.563-1.039 1.074-1.008M38.139 41.873l-2.49 6.352c-.219.559-.992.92-1.442.807l-.822-.209 3.528-9.006c.305.578.699 1.121 1.025 1.699zM35.271 42.338q-1.097 2.699-2.196 5.396c-.217.52-.923.828-1.345.721q-.388-.097-.773-.195 1.594-3.933 3.19-7.863c.279.545.643 1.057.94 1.604q.093.166.184.337M32.538 42.801l-1.904 4.445c-.215.479-.852.734-1.247.633l-.724-.184 2.852-6.721c.252.512.585.996.855 1.51.057.104.112.213.168.317M29.927 43.266l-1.615 3.49c-.211.439-.781.643-1.146.549l-.674-.174 2.509-5.578c.228.48.528.936.773 1.416zM27.421 43.73l-1.32 2.537c-.209.398-.711.549-1.048.461l-.625-.16 2.169-4.438c.202.447.472.873.691 1.322z" clip-rule="evenodd"/><path fill="#00438D" fill-rule="evenodd" d="M37.48 16.858q.575.145 1.146.291.572.143 1.146.288c.879 1.626 1.467 3.161 1.813 4.745.346 1.586.447 3.225.352 5.061q.703-.048 1.41-.098a88 88 0 0 1-2.445 3.184c.314-.6.377-1.16-.021-1.508q-1.646.174-3.293.35-1.646.173-3.29.35c-.653.533-1 1.234-1.18 1.922a22.3 22.3 0 0 0-.523-3.576l1.789-.119c-.697-.91-.848-2.162-.571-3.252.321-1.268 1.203-2.061 2.184-2.834.234-.188.49-.387.734-.59.623-.527 1.174-1.1 1.225-1.67-.102.086-.086.148-.41.096s-.986-.66-1.213-1.328c-.229-.668-.117-1.155.346-1.047.414.096.877.518 1.219 1.031.23.346.395.756.455 1.082.141.758-.09 1.49-.418 2.176-.635 1.332-1.299 2.5-1.141 4.045.076.75.383 1.498 1.158 2.053l1.264-.088c.387-3.262.123-6.059-1.035-9.168a4.13 4.13 0 0 0-1.557-1.611q.427.106.856.215M46.461 51.734l.438.762q.217.385.439.764c.34-.166.783-.201.855-.721.1-.725-.709-1.381-1.18-1.105zm-1.639-.031q.04-.02.088-.045c.186-.094.365-.191.553-.295q.3-.16.602-.326 0 .003.002.006.301-.162.609-.336c1.105-.707 1.932-.416 2.416.201.484.615.611 1.57.309 2.162a.95.95 0 0 1-.668.477c-.439.076-.9-.16-1.25-.029q.33.579.66 1.158.335.576.664 1.154-.681.37-1.369.729-.576-1.077-1.158-2.152l-1.16-2.15c-.195-.285-.48-.355-.768-.313q.235-.118.47-.241M36.572 53.92q.048-.011.098-.016.309-.048.621-.105.337-.056.682-.119.039.202.074.406c.301-.33.652-.666 1.006-.76a1.45 1.45 0 0 1 1.072.113c.371.201.725.617.902 1.426l-.002.002q.168.702.33 1.402c.109.467.223.936.332 1.4.049.209.176.67.365.799-.561.123-.979.213-1.545.326-.18-.174-.281-.6-.322-.801l-.297-1.416q-.145-.706-.297-1.416c-.367-.871-.91-.898-1.438-.49q.207 1.107.416 2.209c.209 1.102.27 1.473.406 2.209q-.77.132-1.537.266c-.127-.805-.26-1.605-.385-2.408l-.385-2.412c-.094-.33-.336-.488-.625-.541q.264-.035.529-.074M30.97 53.525q.046.005.092.014c.211.031.416.064.627.096q.342.051.682.098c-.121.908-.248 1.82-.37 2.729s-.255 1.818-.376 2.729c-.518-.066-1.029-.143-1.539-.219q.194-1.209.39-2.414.198-1.207.39-2.414c.018-.342-.168-.566-.422-.699q.255.038.526.08M53.09 46.035c.254-.209.643-.135 1.045.074.406.211.832.561 1.158.926.324.369.623.828.768 1.252.146.428.131.822-.137 1.043-.271.227-.674.178-1.082-.023-.408-.199-.826-.553-1.139-.93-.313-.379-.592-.859-.729-1.299-.138-.441-.136-.838.116-1.043m-.463-.535c.504-.414 1.168-.551 1.844-.445a3.43 3.43 0 0 1 1.932 1.035c.545.58.832 1.291.836 1.975.006.695-.27 1.363-.822 1.822-.559.461-1.281.627-1.984.514a3 3 0 0 1-1.881-1.127 3.2 3.2 0 0 1-.705-2.045c.018-.678.274-1.311.78-1.729M22.934 50.467q.043.021.085.045.273.155.54.303c.201.109.398.219.602.332q-.292.516-.583 1.035-.29.517-.584 1.031.64.34 1.286.676.208-.387.411-.77.204-.384.408-.77c.125-.32.027-.592-.173-.801.155.08.313.164.466.246a178.708 178.708 0 0 0 1.267.633q-.618 1.238-1.236 2.475c-.409.824-.825 1.648-1.235 2.471q-.7-.343-1.395-.688.277-.524.555-1.045c.188-.352.373-.699.558-1.049l-1.304-.682-.584 1.035c-.193.344-.393.689-.586 1.033a77 77 0 0 1-1.35-.734c.422-.705.837-1.414 1.261-2.119s.849-1.41 1.267-2.115c.143-.316.059-.588-.129-.801.144.087.298.173.453.259M12.241 47.227q.324.353.646.713c.021-.422.264-.799.629-1.055.367-.258.848-.41 1.353-.379.192.01.91.184 1.61.23.246.016.484.01.705-.012-.015-.012.056.064-.045-.043-.104-.107-.168-.527.062-.725.231-.201.594-.184.767-.002.175.182.158.418.027.617l-.001.002h-.001c-.399.607-1.099.711-1.316.744-.492.078-1.025.08-1.381.229-.475.197-.81.51-.99.84-.182.332-.217.686-.096.965q.236.247.479.5.876-.785 1.748-1.574.877-.787 1.75-1.576c.231-.254.232-.535.119-.787q.174.183.352.365.033.035.069.07.21.22.421.43c.158.16.315.314.477.473q-.968.917-1.938 1.832c-.97.915-1.292 1.219-1.94 1.828.186.186.369.365.561.549q-.458.097-.914.189a5 5 0 0 0-.28.07c-.224.053-.446.102-.665.158.261-.156.438-.396.402-.729a96 96 0 0 1-2.45-2.559c-.338-.061-.603.088-.788.322.078-.203.148-.412.23-.613q.038-.123.087-.24c.1-.278.201-.557.311-.832" clip-rule="evenodd"/><path fill="#FFF" fill-rule="evenodd" d="M61.01 22.219c4.648 0 8.42 3.77 8.42 8.418 0 4.65-3.771 8.421-8.42 8.421s-8.42-3.771-8.42-8.421a8.42 8.42 0 0 1 8.42-8.418M9.014 22.219a8.41 8.41 0 0 1 8.409 8.408 8.41 8.41 0 1 1-8.409-8.408" clip-rule="evenodd"/><path fill="#00438D" fill-rule="evenodd" d="M7.677 29.936 5.76 32.797q-.202.01-.404.01a7.524 7.524 0 0 1-2.691-.504 5.4 5.4 0 0 1-.559-1.14c-.156-.469-.238-1.203-.274-1.643a7.4 7.4 0 0 1 2.064-3.304c.252-.012.844-.031 1.256-.006.419.027 1.126.154 1.414.211zm-1.949 3.035c.137.234.597 1.016.965 1.438.349.402.977 1 1.212 1.221l-.744 2.184a5 5 0 0 1-1.238.111c-.538-.027-1.104-.287-1.339-.408a8 8 0 0 1-1.026-.758 7.4 7.4 0 0 1-1.449-2.205c.005-.223.032-.803.166-1.146.136-.354.38-.75.469-.887q.459.165.937.275a7.7 7.7 0 0 0 1.676.186c.122-.002.247-.003.371-.011m2.336 2.732c.219-.037.962-.172 1.774-.424a8.2 8.2 0 0 0 1.589-.688l.157.092c.489.275 1.01.498 1.552.662q.373.11.758.184l.114.021c-.038.189-.152.709-.286 1.033a4 4 0 0 1-.381.668c-.271.266-.57.496-.892.699a8.1 8.1 0 0 1-3.219.799c-.316-.057-.835-.158-1.166-.291-.368-.148-.628-.439-.741-.584zm3.448-1.262a63 63 0 0 0-.033-2.006c-.025-.62-.06-1.136-.076-1.367a7.601 7.601 0 0 0 2.351-2.373l.095-.158c.212.074.942.334 1.479.617.347.182.574.305.709.379a7.4 7.4 0 0 1 .119 3.79c-.175.293-.534.85-.894 1.186-.379.352-.89.725-1.119.887q-.107-.017-.215-.039a7.489 7.489 0 0 1-2.257-.825q-.082-.046-.159-.091m-.196-3.524c-.325-.109-1.614-.541-2.08-.658-.423-.105-1.119-.295-1.391-.369l-1.107-3.508c.555-.76 1.246-1.527 2.179-2.139h.014a7.37 7.37 0 0 1 3.792 1.041c.139.273.588 1.178.729 1.629.127.402.252 1.109.307 1.434q-.075.132-.153.258a8 8 0 0 1-.439.623 7.4 7.4 0 0 1-1.851 1.689M.806 29.51l-.013-.051q-.016.12-.029.238zm-.059-.875q.02-.164.068-.346l.021.004c1.008-3.535 4.253-6.123 8.101-6.123 4.652 0 8.423 3.783 8.423 8.451a8.45 8.45 0 0 1-3.982 7.179 7.54 7.54 0 0 1-4.446 1.439 7.55 7.55 0 0 1-4.507-1.484 8.45 8.45 0 0 1-3.913-7.134c0-.685.081-1.349.235-1.986m.159.17c-.012.188.001.352.029.496l.013.061.815-.197a7.56 7.56 0 0 1 2.006-3.068 4.6 4.6 0 0 1 .111-1.225 3 3 0 0 1 .168-.512c-.099.01-.207.029-.316.057a1.8 1.8 0 0 0-.475.183 8.2 8.2 0 0 0-2.351 4.205m6.562-6.023a2 2 0 0 1 .592-.409 8.12 8.12 0 0 0-4.43 1.891l.058-.016c.167-.045.336-.068.478-.07.01-.01.016-.01.016-.01s.636-.637 1.541-.971c.683-.253 1.424-.372 1.745-.415m1.348-.451a2.2 2.2 0 0 0-.86.287q-.149.093-.252.182c.57.293.979.703 1.272 1.27a7.55 7.55 0 0 1 3.831 1.063c.13-.074.356-.191.646-.293.292-.105.597-.133.784-.137a7.6 7.6 0 0 0-.942-1.097 8.1 8.1 0 0 0-4.384-1.277zm5.191 1.783q.048.055.092.111.229.288.432.596c.094.1.271.275.596.586.508.48 1.078 1.578 1.289 2.002q.052.044.105.096a8.23 8.23 0 0 0-2.514-3.391m2.688 3.871a2 2 0 0 0-.198-.256c-.001.184-.009.508-.031.756-.027.297-.185.854-.245 1.061.194.668.298 1.375.298 2.108q-.002.815-.164 1.581c.05.066.11.168.145.305q.009.033.014.061a8.262 8.262 0 0 0 .181-5.616M2.429 35.563a7.4 7.4 0 0 1-.561-1.139l-.323-.289q.37.764.884 1.428M59.818 29.936 57.9 32.797a7.44 7.44 0 0 1-3.094-.494 5.4 5.4 0 0 1-.559-1.14c-.156-.469-.238-1.203-.275-1.643a7.4 7.4 0 0 1 2.064-3.304c.254-.012.844-.031 1.256-.006.42.027 1.127.154 1.414.211zm-1.951 3.035c.137.234.6 1.016.967 1.438.348.402.977 1 1.211 1.221l-.744 2.184a5 5 0 0 1-1.238.111c-.537-.027-1.104-.287-1.338-.408a8 8 0 0 1-1.027-.758 7.4 7.4 0 0 1-1.447-2.205c.004-.223.031-.803.164-1.146a5.5 5.5 0 0 1 .471-.887q.46.165.936.275a7.7 7.7 0 0 0 1.678.186c.121-.002.244-.003.367-.011m2.338 2.732c.219-.037.961-.172 1.775-.424a8.2 8.2 0 0 0 1.588-.688l.156.092q.737.414 1.553.662c.246.072.502.135.758.184l.113.021c-.039.189-.152.709-.287 1.033-.09.219-.252.479-.379.668a5.3 5.3 0 0 1-.895.699 8.1 8.1 0 0 1-3.217.799c-.316-.057-.836-.158-1.166-.291-.367-.148-.629-.439-.742-.584zm3.447-1.262c0-.318-.006-1.313-.033-2.006a42 42 0 0 0-.078-1.367 7.6 7.6 0 0 0 2.354-2.373l.094-.158c.213.074.941.334 1.48.617.346.182.572.305.709.379a7.45 7.45 0 0 1 .118 3.79c-.174.293-.533.85-.893 1.186-.379.352-.891.725-1.119.887q-.108-.017-.217-.039a7.4 7.4 0 0 1-2.258-.825zm-.195-3.524c-.326-.109-1.613-.541-2.08-.658-.424-.105-1.117-.295-1.391-.369l-1.107-3.508c.555-.76 1.246-1.527 2.18-2.139h.014c1.387 0 2.684.379 3.793 1.041.137.273.588 1.178.729 1.629.125.402.252 1.109.307 1.434q-.075.132-.154.258a7.423 7.423 0 0 1-2.291 2.312m-10.51-1.407-.014-.051a5 5 0 0 0-.029.238zm-.06-.875q.02-.164.068-.346l.021.004c1.008-3.535 4.252-6.123 8.1-6.123 4.654 0 8.426 3.783 8.426 8.451a8.45 8.45 0 0 1-3.984 7.179 7.54 7.54 0 0 1-4.445 1.439 7.55 7.55 0 0 1-4.508-1.484 8.45 8.45 0 0 1-3.912-7.134 8.4 8.4 0 0 1 .234-1.986m.158.17c-.01.188.004.352.031.496l.012.061.816-.197a7.56 7.56 0 0 1 2.006-3.068 4.6 4.6 0 0 1 .111-1.225c.063-.248.119-.408.168-.512q-.151.015-.316.057a1.8 1.8 0 0 0-.475.184 8.2 8.2 0 0 0-2.353 4.204m6.562-6.023a2 2 0 0 1 .591-.409 8.1 8.1 0 0 0-4.428 1.891l.057-.016c.168-.045.338-.068.477-.07.014-.01.018-.01.018-.01s.637-.637 1.541-.971c.684-.253 1.424-.372 1.744-.415m1.35-.451a2.2 2.2 0 0 0-.859.287q-.148.093-.252.182a2.84 2.84 0 0 1 1.271 1.27 7.55 7.55 0 0 1 3.83 1.063c.131-.074.355-.191.646-.293.291-.105.596-.133.785-.137a7 7 0 0 0-.277-.367 7 7 0 0 0-.666-.73 8.1 8.1 0 0 0-4.383-1.277zm5.189 1.783q.049.055.092.111.23.288.432.596c.094.1.271.275.598.586.506.48 1.078 1.578 1.287 2.002a2 2 0 0 1 .107.096 8.25 8.25 0 0 0-2.516-3.391m2.69 3.871a2 2 0 0 0-.197-.256c-.004.184-.01.508-.033.756-.027.297-.184.854-.244 1.061a7.695 7.695 0 0 1 .133 3.689.8.8 0 0 1 .146.305q.006.033.014.061a8.29 8.29 0 0 0 .181-5.616m-14.268 7.578a7.6 7.6 0 0 1-.561-1.139l-.322-.289q.372.764.883 1.428" clip-rule="evenodd"/></svg>