<svg xmlns="http://www.w3.org/2000/svg" viewBox="10.32 6.39 1908.5 1908.35"><path fill="gold" fill-rule="evenodd" d="M1184.993 605.083c-.004.779-2.044 15.367-4.533 32.417s-4.95 34.15-5.468 38c-.78 5.805-9.865 68.343-15.543 107-.807 5.5-1.897 13.15-2.421 17s-4.159 29.05-8.078 56-7.518 51.925-7.997 55.5-2.476 17.3-4.436 30.5-3.987 27.15-4.503 31c-1.37 10.204-10.901 76.436-11.543 80.21l-.546 3.209 9.287-4.34a3227 3227 0 0 0 21.288-10.077c6.6-3.155 16.5-7.879 22-10.496 18.404-8.76 30.894-14.724 45-21.491 27.093-12.996 47.763-22.585 48.056-22.292.163.163-2.906 3.667-6.82 7.787-14.37 15.126-53.685 55.928-69.356 71.979-8.867 9.081-18.542 19.159-21.5 22.395-31.355 34.295-57.848 83.349-69.194 128.116-3.545 13.985-4.479 19.453-11.189 65.5-1.963 13.475-5.56 38-7.992 54.5a82942 82942 0 0 0-17.027 116c-1.925 13.2-3.913 26.475-4.419 29.5-1.786 10.676-3.276 23.117-2.822 23.57.252.252 1.273-2.585 2.269-6.306.995-3.72 2.592-9.239 3.549-12.264s3.782-12.475 6.281-21c32.337-110.353 33.869-114.953 48.209-144.767 31.65-65.801 85.439-124.162 150.955-163.785 8.184-4.949 32.7-17.015 72.344-35.605 6.268-2.94 8.197-4.295 7.754-5.449-.324-.845-2.578-7.916-5.009-15.715-2.43-7.798-9.217-29.479-15.082-48.179s-13.816-44.125-17.668-56.5a9757 9757 0 0 0-13.515-43c-3.581-11.275-10.932-34.675-16.338-52a33309 33309 0 0 0-18.001-57.5c-4.495-14.3-10.121-32.3-12.503-40s-7.101-22.775-10.488-33.5a12766 12766 0 0 1-13.159-42 9643 9643 0 0 0-13.509-43c-3.578-11.275-10.779-34.225-16-51s-9.681-30.687-9.91-30.917c-.229-.229-.419.221-.423 1"/><path fill="#fff" fill-rule="evenodd" d="M927 366.075c-23.17 1.59-57.137 5.991-76.942 9.969-18.586 3.734-48.295 11.41-48.75 12.595-.253.661 2.984 12.15 7.195 25.531 4.21 13.382 11.695 37.155 16.633 52.83s11.233 35.7 13.991 44.5 6.748 21.4 8.867 28 7.081 22.35 11.026 35 10.095 32.225 13.667 43.5 8.777 27.815 11.565 36.756l5.07 16.256 75.545-.256 75.545-.256 1.187-4c.652-2.2 3.751-12.1 6.887-22s11.548-36.675 18.696-59.5a253948 253948 0 0 1 41.839-133.5c10.001-31.9 18.55-59.216 18.998-60.703.78-2.59.597-2.767-4.352-4.202-34.845-10.103-74.407-16.926-116.667-20.119-20.473-1.547-60.381-1.747-80-.401m-268.511 84.3c-49.342 29.756-96.498 68.795-135.434 112.125-89.987 100.141-142.6 225.355-151.159 359.744-1.447 22.721-.589 75.835 1.54 95.256 4.168 38.034 10.561 71.683 19.664 103.5 3.899 13.628 12.952 41.281 13.836 42.261.378.419 1.858-2.506 3.29-6.5 6.329-17.656 12.087-33.436 36.219-99.261 14.114-38.5 29.206-79.675 33.536-91.5 10.018-27.354 25.905-70.711 44.338-121a149261 149261 0 0 0 48.676-133c10.676-29.208 24.596-67.211 47.984-131 37.818-103.148 50.161-137.193 49.851-137.504-.193-.193-5.747 2.903-12.341 6.879m601.792-4.625c.283.962 12.511 34.6 27.173 74.75s27.709 75.925 28.994 79.5c1.284 3.575 12.016 33.05 23.848 65.5s25.845 70.925 31.141 85.5 10.49 28.75 11.544 31.5 5.743 15.575 10.42 28.5a35568 35568 0 0 0 23.452 64.5c14.57 39.955 70.825 194.368 93.083 255.5l11.652 32c.74 2.03 1.836.013 5.05-9.295 14.648-42.418 24.54-86.964 29.58-133.205 2.96-27.152 3.219-92.797.468-118.5-10.876-101.615-42.535-189.926-97.805-272.823-37.678-56.511-89.123-110.063-144.381-150.296-17.052-12.416-51.84-34.881-54.015-34.881-.395 0-.487.788-.204 1.75m229.219 777.793c-4.95 2.33-28.125 13.228-51.5 24.218-65.585 30.833-71.6 33.715-101 48.401-38.724 19.345-57.648 32.493-82.515 57.335-27.503 27.474-45.077 53.023-59.886 87.06-10.582 24.322-28.791 75.584-27.357 77.018 1.228 1.228 39.587-14.993 62.258-26.327 108.993-54.487 198.059-140.279 257.205-247.748 7.338-13.333 12.538-23.615 12.11-23.948-.173-.136-4.365 1.66-9.315 3.991m-1051.702 9.707c12.124 23.039 24.927 44.225 38.524 63.75 57.466 82.515 134.465 149.32 223.501 193.909 20.78 10.407 61.804 27.797 62.927 26.675.561-.562-12.066-37.704-18.556-54.584-19.338-50.296-34.879-74.733-69.664-109.542-22.152-22.167-40.171-35.771-64.667-48.82-10.33-5.504-60.98-30.01-94.863-45.899a100948 100948 0 0 1-44.463-20.894C449.658 1228.03 432.181 1220 431.7 1220s2.263 5.963 6.098 13.25"/><path fill="#43c33b" fill-rule="evenodd" d="M938 6.61c-15.457.374-41.069 1.976-63.5 3.973-94.133 8.379-192.295 33.069-281 70.676-41.825 17.733-86.796 40.702-123.5 63.078-135.357 82.521-248.113 196.7-328.021 332.163-9.658 16.372-28.625 51.509-34.007 63-2.061 4.4-6.089 12.95-8.952 19-25.044 52.931-47.6 117.082-61.533 175-6.057 25.183-6.345 26.489-9.459 43-1.66 8.8-3.455 18.25-3.988 21-1.123 5.798-4.459 28.159-6.04 40.5-10.24 79.884-10.24 166.116 0 246 1.581 12.341 4.917 34.702 6.04 40.5.533 2.75 2.328 12.2 3.988 21 3.146 16.678 3.804 19.658 9.608 43.5 37.638 154.617 115.104 299.02 224.04 417.626 56.473 61.486 122.046 116.353 192.269 160.877 27.684 17.553 51.226 30.921 80.183 45.534 88.624 44.723 181.026 74.747 278.09 90.359 13.638 2.193 23.056 3.461 48.782 6.566 8.156.985 26.843 2.634 45 3.973 14.683 1.082 102.993 1.084 117.5.003 18.413-1.372 36.573-2.971 45-3.961 17.375-2.041 40.306-5.05 46-6.037 3.3-.572 8.475-1.445 11.5-1.94 10.854-1.776 16.697-2.872 29.5-5.532 7.15-1.485 14.8-3.064 17-3.507 30.314-6.115 85.557-22.377 122-35.913 85.768-31.857 159.212-71.369 235-126.424 37.578-27.299 72.975-57.893 110.53-95.532 29.116-29.182 45.854-47.64 67.641-74.592 75.818-93.791 132.775-200.318 168.69-315.5 21.07-67.576 34.09-135.419 40.204-209.5 2.108-25.548 2.973-93.037 1.557-121.5-1.6-32.166-4.654-65.055-8.171-88-6.276-40.95-11.154-65.798-19.435-99-21.039-84.356-55.368-168.519-100.34-246-16.791-28.929-41.703-66.474-62.04-93.5-27.605-36.684-51.091-63.519-87.597-100.086-50.47-50.555-92.255-85.009-148.263-122.249-46.717-31.063-103.462-61.671-152.276-82.137-10.725-4.497-20.4-8.584-21.5-9.083-11.404-5.177-63.659-23.133-85.5-29.382-6.875-1.966-13.85-3.992-15.5-4.502-6.223-1.921-39.49-9.972-51.5-12.463-6.875-1.426-14.525-3.049-17-3.607-5.798-1.308-38.399-6.801-47.5-8.003-3.85-.509-10.6-1.403-15-1.987C1046.194 8.647 983.296 5.516 938 6.61m-29.706 31.44C672.377 52.571 449.671 157.506 289.741 329.5c-16.891 18.165-17.954 19.357-30.8 34.5-84.717 99.871-148.24 219.093-183.819 345-31.608 111.851-41.646 227.031-30.07 345 20.982 213.811 118.34 416.323 272.584 567 14.156 13.829 25.799 24.517 47.864 43.936 1.65 1.452 9.975 8.289 18.5 15.193 136.005 110.144 300.555 179.191 475 199.314 42.765 4.934 114.09 7.063 155.65 4.647 87.91-5.11 168.1-20.606 248.618-48.042 252.975-86.199 457.996-279.92 558.201-527.437 37.257-92.028 57.126-177.737 65.746-283.611 2.024-24.859 1.692-108.385-.537-135-8.681-103.665-31.736-198.481-70.395-289.5-85.938-202.336-241.549-368.185-437.283-466.052-107.888-53.944-213.596-83.585-339-95.055-20.425-1.869-108.569-2.768-131.706-1.343m4.206 33.99c-73.153 4.868-139.235 16.594-204.5 36.289C509.252 168.304 338.694 294.992 223.106 468.5 146.89 582.906 98.445 713.169 81.598 849c-5.46 44.015-6.098 55.74-6.098 112 0 54.996.621 67.043 5.565 108 13.692 113.435 49.402 223.354 105.424 324.505 85.186 153.811 218.581 282.221 375.403 361.375 108.806 54.918 217.859 85.069 341.108 94.308 23.315 1.748 100.876 1.747 123.5-.002 96.225-7.437 179.137-26.178 264-59.674 61.266-24.182 112.172-50.704 167-87.004 49.562-32.814 90.407-66.427 136.086-111.989 27.287-27.217 47.182-49.303 68.234-75.748 98.258-123.431 161.983-271.051 184.131-426.542 6.574-46.153 8.453-74.056 8.502-126.229.051-53.656-2.142-85.713-9.062-132.5-21.321-144.151-78.979-283.006-165.773-399.218-26.821-35.913-48.304-60.876-80.591-93.647-79.682-80.876-168.657-142.863-270.186-188.232-93.767-41.9-187.616-65.968-292.341-74.971-21.959-1.888-102.893-2.796-124-1.392m18.5 29.008c-120.459 4.277-241.835 35.337-350.5 89.694C476.889 242.57 382.8 316.47 308.298 404.536 235.691 490.362 181.54 587.155 146.638 693.5c-31.823 96.96-46.55 204.865-41.627 305 4.135 84.118 17.663 157.242 43.474 235 48.668 146.616 137.558 278.864 255.515 380.148 69.345 59.544 147.987 108.001 231.276 142.508 142.999 59.245 299.55 78.643 454.452 56.311 179.039-25.812 346.483-108.879 476.651-236.463 147.436-144.508 237.119-333.289 255.586-538.004 4.373-48.482 4.171-108.895-.533-159-15.102-160.886-75.034-313.033-174.304-442.5-48.321-63.019-111.154-124.351-174.706-170.531-141.645-102.926-303.27-158.721-477.922-164.984-28.419-1.019-33.163-1.014-63.5.063m14.25 43.684-4.25.383V277.5h47V145.285l-6.147-.643c-6.277-.656-28.939-.6-36.603.09m155.25 11.678c-9.351 1.822-19.357 5.724-26.021 10.148-12.344 8.193-23.752 24.473-28.058 40.04-2.446 8.841-2.97 26.4-1.035 34.645 4.723 20.128 20.116 37.514 42.614 48.133 26.22 12.376 61.092 17.398 81.455 11.731 17.21-4.789 31.63-15.642 37.512-28.233 5.354-11.462 6.594-10.221-17.467-17.471-11.55-3.48-21.303-6.345-21.672-6.365-.37-.021-1.18 1.499-1.8 3.378-1.697 5.14-8.426 12.142-14.548 15.138-10.199 4.989-27.084 4.26-38.715-1.674-10.01-5.106-18.007-17.189-19.26-29.099-1.322-12.567 3.817-27.931 12.42-37.131 8.998-9.622 21.602-13.241 36.139-10.377 17.965 3.54 29.028 12.391 31.728 25.387l.767 3.692 20.789 6.422c11.434 3.533 21.095 6.113 21.47 5.734 1.007-1.018.465-13.81-.861-20.338-4.296-21.144-21.346-36.36-52.297-46.67-21.867-7.285-47.43-10.154-63.16-7.09m-312.299 7.58c-13.915 3.176-25.517 5.993-25.783 6.259-.267.267-4.549 22.032-9.516 48.368S741.696 277.975 739.039 292s-4.739 25.602-4.625 25.727 6.254-1.979 13.646-4.674 18.39-6.347 24.44-8.113 11.477-3.585 12.06-4.041 1.646-6.357 2.361-13.114c2.613-24.66 9.871-85.91 10.22-86.238.197-.186 10.709 16.538 23.359 37.166s24.639 40.097 26.642 43.265l3.643 5.762 12.857-2.252c7.072-1.238 19.051-3.043 26.62-4.01l13.762-1.758-2.351-3.11c-1.293-1.71-10.058-13.685-19.478-26.61-15.062-20.667-30.177-41.353-58.766-80.428-4.397-6.01-8.43-11.024-8.962-11.143-.532-.118-12.352 2.384-26.266 5.561m-176.023 62.517c-24.255 4.394-54.313 20.181-71.178 37.382-9.185 9.369-13.791 16.306-17.837 26.869-2.322 6.062-2.586 8.153-2.622 20.742-.036 12.169.269 14.915 2.333 21 9.498 28.007 28.521 45.059 54.342 48.711 20.529 2.903 49.202-6.102 76.384-23.989 31.978-21.043 44.822-53.153 33.838-84.592-6.96-19.922-23.468-37.223-41.595-43.594-11.395-4.005-21.378-4.755-33.665-2.529m687.024 4.451c-19.22 5.203-34.872 18.815-44.319 38.542-5.112 10.674-6.965 18.231-7.04 28.71-.074 10.488 1.309 16.885 5.759 26.63 8.789 19.25 25.081 34.683 51.104 48.411 23.147 12.211 45.672 16.597 62.834 12.234 7.725-1.964 19.003-7.582 23.529-11.721 3.626-3.315 9.931-11.449 9.931-12.81 0-.719-33.705-22.52-36.437-23.568-.741-.285-3.527 1.673-6.236 4.383-5.988 5.987-11.944 8.231-21.849 8.231-12.16 0-23.387-4.981-32.177-14.275-6.897-7.293-8.801-12.762-8.801-25.279 0-9.682.145-10.349 3.925-18 12.085-24.463 34.802-31.873 58.091-18.948 13.887 7.706 20.802 17.337 21.07 29.344l.143 6.416 15.886 10.166c8.737 5.591 17.099 10.969 18.583 11.952l2.699 1.786 1.801-5.831c1.347-4.357 1.802-9.136 1.802-18.906v-13.076l-4.2-8.424c-5.212-10.455-13.357-19.591-25.601-28.718-16.432-12.25-33.109-20.98-49.199-25.754-12.491-3.707-30.694-4.365-41.298-1.495M595.5 263.345c-17.281 5.744-28.571 18.214-30.097 33.241-1.689 16.643 9.619 37.276 24.643 44.964 11.329 5.798 27.063 4.131 39.606-4.195 10.909-7.241 15.477-14.909 16.146-27.105.368-6.708.028-9.573-1.823-15.328-4.155-12.923-13.987-24.848-24.695-29.952-5.861-2.793-17.808-3.61-23.78-1.625m336.5 59.36c-109.357 5.374-221.229 41.793-313.5 102.055-152.397 99.53-254.543 256.506-282.889 434.74-9.932 62.449-10.285 129.659-1.012 192.715 17.12 116.43 65.081 223.164 141.897 315.785 15.383 18.548 57.83 61.308 76.1 76.661 63.947 53.74 135.439 94.124 210.6 118.965 11.456 3.785 14.827 5.3 15.286 6.865 2.981 10.175 17.499 69.234 21.88 89.009 4.459 20.128 14.638 70.245 14.638 72.07 0 .237 67.388.426 149.75.421l149.75-.01 4.908-25.24c7.633-39.251 23.001-105.467 31.36-135.123.767-2.721 1.981-3.282 21.772-10.072 72.015-24.704 139.767-62.836 198.96-111.979 17.047-14.153 19.321-16.275 45.544-42.511 36.178-36.197 62.099-68.575 88.183-110.149 48.422-77.176 80.505-166.561 91.672-255.407 4.189-33.324 4.593-40.481 4.597-81.5.004-41.329-.665-53.464-4.606-83.5-22.231-169.459-111.509-322.275-249.029-426.261-31.896-24.118-64.304-43.987-102.361-62.757-22.615-11.154-60.098-27.218-61.121-26.194-.225.225 16.955 48.065 38.179 106.31L1296.672 671a3136752 3136752 0 0 0 93.834 257.5l47.191 129.5c8.518 23.375 21.713 59.6 29.321 80.5s14.114 38.717 14.455 39.594c.5 1.284-7.406 5.348-40.676 20.913-139.153 65.1-159.522 75.775-188.797 98.944-14.019 11.095-45.34 42.774-56.41 57.055-28.749 37.085-47.025 76.283-70.462 151.125-14.191 45.316-36.523 133.352-44.611 175.869-.367 1.925-.888 4.287-1.159 5.25-.466 1.654-6.785 1.75-114.68 1.75H850.492l-2.82-13.75c-1.551-7.562-5.931-27.25-9.732-43.75-23.723-102.976-51.488-188.217-76.708-235.5-20.577-38.577-59.365-81.396-99.246-109.56-20.708-14.623-38.361-23.879-110.486-57.93-47.18-22.275-64.859-30.571-90-42.236-6.6-3.062-12.412-5.936-12.916-6.387-.54-.483.563-4.833 2.689-10.603 1.983-5.381 16.937-46.234 33.231-90.784s36.312-99.225 44.484-121.5 20.777-56.7 28.011-76.5 14.653-40.05 16.486-45c3.386-9.14 17.059-46.51 63.667-174 14.276-39.05 27.055-73.925 28.397-77.5 2.424-6.454 15.502-42.15 58.526-159.75C736.4 390.563 746.719 363 747.006 363s4.227 11.813 8.753 26.25c26.361 84.081 74.719 237.84 85.94 273.25 5.228 16.5 10.958 34.725 12.732 40.5l3.226 10.5 107.172.255c58.944.139 107.171.027 107.171-.251 0-.279 3.633-12.093 8.073-26.255L1101.152 620a499511 499511 0 0 1 23.511-75c5.778-18.425 16.347-52.175 23.487-75 15.052-48.124 27.829-88.763 31.83-101.241l2.803-8.74-18.203-5.94c-53.881-17.581-105.302-27.376-163.063-31.06-14.551-.928-53.453-1.104-69.517-.314m-509.53 29.634c-19.136 17.421-38.336 36.082-50.582 49.161C358.183 416.136 337 439.963 337 440.741c0 1.181 92.373 93.265 93.504 93.212 1.216-.058 29.878-33.484 30.289-35.324.161-.721-15.31-16.644-34.38-35.384l-34.672-34.073 2.151-3.02c1.182-1.661 9.657-10.256 18.833-19.101l16.682-16.08 34.607 34.514C483.048 444.468 498.933 460 499.315 460c1 0 35.685-30.205 35.685-31.076 0-.795-92.571-92.26-93.805-92.684-.416-.143-8.842 7.101-18.725 16.099m1056.932-2.853c-13.063 2.842-25.219 12.268-30.966 24.014-2.621 5.356-2.936 7.02-2.936 15.5 0 8.245.359 10.266 2.715 15.295 1.91 4.075 2.355 5.916 1.5 6.203-.668.224-14.903 2.905-31.634 5.957-16.73 3.052-30.571 5.702-30.757 5.888s8.102 7.582 18.419 16.436c10.316 8.855 20.301 17.494 22.188 19.2 2.584 2.335 4.065 2.966 6 2.556 4.76-1.008 85.396-15.535 85.986-15.491.32.025-11.342 11.707-25.917 25.962-20.772 20.315-26.284 26.229-25.5 27.359.55.793 6.403 7.673 13.006 15.289s13.226 15.419 14.717 17.342l2.712 3.495 17.783-17.534c9.78-9.644 31.15-30.628 47.489-46.631l29.707-29.097-9.127-9.865a8798 8798 0 0 0-21.707-23.334 20488 20488 0 0 1-20.518-22c-18.884-20.294-28.184-28.735-35.749-32.445-6.608-3.242-15.457-5.715-19.699-5.506-.888.044-4.358.677-7.712 1.407M927 366.075c-23.17 1.59-57.137 5.991-76.942 9.969-18.586 3.734-48.295 11.41-48.75 12.595-.253.661 2.984 12.15 7.195 25.531 4.21 13.382 11.695 37.155 16.633 52.83s11.233 35.7 13.991 44.5 6.748 21.4 8.867 28 7.081 22.35 11.026 35 10.095 32.225 13.667 43.5 8.777 27.815 11.565 36.756l5.07 16.256 75.545-.256 75.545-.256 1.187-4c.652-2.2 3.751-12.1 6.887-22s11.548-36.675 18.696-59.5a253948 253948 0 0 1 41.839-133.5c10.001-31.9 18.55-59.216 18.998-60.703.78-2.59.597-2.767-4.352-4.202-34.845-10.103-74.407-16.926-116.667-20.119-20.473-1.547-60.381-1.747-80-.401m569.395 27.08c-3.96 1.055-8.087 5.167-8.9 8.869-1.167 5.314 2.479 10.694 18.286 26.976l15.048 15.5 8.591-8.483c4.725-4.666 8.476-8.79 8.336-9.164-.281-.746-25.915-26.974-29.934-30.627-3.247-2.951-7.542-4.106-11.427-3.071m-837.906 57.22c-49.342 29.756-96.498 68.795-135.434 112.125-89.987 100.141-142.6 225.355-151.159 359.744-1.447 22.721-.589 75.835 1.54 95.256 4.168 38.034 10.561 71.683 19.664 103.5 3.899 13.628 12.952 41.281 13.836 42.261.378.419 1.858-2.506 3.29-6.5 6.329-17.656 12.087-33.436 36.219-99.261 14.114-38.5 29.206-79.675 33.536-91.5 10.018-27.354 25.905-70.711 44.338-121a149261 149261 0 0 0 48.676-133c10.676-29.208 24.596-67.211 47.984-131 37.818-103.148 50.161-137.193 49.851-137.504-.193-.193-5.747 2.903-12.341 6.879m601.792-4.625c.283.962 12.511 34.6 27.173 74.75s27.709 75.925 28.994 79.5c1.284 3.575 12.016 33.05 23.848 65.5s25.845 70.925 31.141 85.5 10.49 28.75 11.544 31.5 5.743 15.575 10.42 28.5a35568 35568 0 0 0 23.452 64.5c14.57 39.955 70.825 194.368 93.083 255.5l11.652 32c.74 2.03 1.836.013 5.05-9.295 14.648-42.418 24.54-86.964 29.58-133.205 2.96-27.152 3.219-92.797.468-118.5-10.876-101.615-42.535-189.926-97.805-272.823-37.678-56.511-89.123-110.063-144.381-150.296-17.052-12.416-51.84-34.881-54.015-34.881-.395 0-.487.788-.204 1.75M743.663 605c-.313.825-6.475 20.4-13.693 43.5a112684 112684 0 0 1-44.475 142c-5.697 18.15-18.745 59.775-28.996 92.5-16.422 52.427-47.965 153.086-67.169 214.348-3.628 11.574-6.154 21.228-5.678 21.704.471.471 13.68 6.96 29.352 14.419s32.546 15.644 37.496 18.188c28.651 14.728 62.388 40.201 90.5 68.334 46.818 46.852 77.38 98.963 97.358 166.007 5.199 17.446 8.17 27.591 28.766 98.228 4.607 15.801 8.504 28.155 8.66 27.453.157-.701-8.972-64.029-20.286-140.728-21.171-143.518-22.644-151.973-30.358-174.195-14.433-41.584-36.098-77.986-64.977-109.181-5.864-6.336-26.219-27.62-45.233-47.298-43.361-44.878-50.827-52.716-50.513-53.029.138-.138 12.588 5.645 27.667 12.851a17890 17890 0 0 0 35.416 16.89c4.4 2.083 24.602 11.723 44.893 21.422s37.039 17.489 37.217 17.31c.178-.178-1.481-12.676-3.686-27.773A55595 55595 0 0 1 794.488 949a518675 518675 0 0 0-18.916-131c-6.319-43.725-15.8-109.425-21.069-146s-9.734-66.95-9.924-67.5-.603-.325-.916.5M238.389 922.488c-12.379 2.693-20.128 9.086-22.377 18.462-2.902 12.096 1.993 22.397 12.988 27.334 6.155 2.764 26.445 3.522 36.489 1.363 3.844-.827 7.151-1.34 7.349-1.142.932.931-2.186 7.454-4.725 9.887-4.694 4.497-10.494 5.608-29.272 5.608H222v17h18.451c20.326 0 26.308-.873 34.636-5.057 10.166-5.108 15.24-13.128 16.954-26.798 2.034-16.218-1.84-32.433-9.235-38.654-10.145-8.537-27.548-11.672-44.417-8.003m1502.881-.434c-15.231 3.006-23.29 11.554-23.248 24.656.036 11.232 4.073 17.318 14.478 21.827 5.843 2.531 24.758 3.119 34.432 1.069 4.088-.866 7.63-1.378 7.871-1.137 1.203 1.203-1.389 6.398-4.821 9.663-5.133 4.883-10.173 5.868-30.031 5.868H1724v17l17.75-.017c26.187-.026 36.607-2.902 44.979-12.413 5.965-6.776 7.773-13.43 7.763-28.57-.01-15.044-1.728-21.131-7.834-27.756-7.349-7.972-16.753-11.276-31.658-11.123-5.225.054-11.404.474-13.73.933M166.5 923.509c-.55.192-5.838 1.341-11.75 2.551L144 928.261v8.869c0 4.879.4 8.87.89 8.87.489 0 5.264-.9 10.61-2s10.346-2 11.11-2c1.143 0 1.39 3.739 1.39 21v21h-24v17h63v-17h-18v-61l-10.75.079c-5.912.043-11.2.237-11.75.43m1474.065.741c-.616 2.069-4.542 44.106-4.155 44.493.197.197 5.698-.4 12.224-1.327s16.964-1.737 23.195-1.8c11.233-.115 11.349-.092 13.75 2.69 4.096 4.747 2.917 10.284-2.859 13.424-2.704 1.47-6.546 1.806-23.97 2.098l-20.75.347V1001h19.542c13.945 0 21.741-.454 27.218-1.585 16.145-3.335 23.366-11.199 23.4-25.486.04-16.23-8.774-23.818-28.66-24.673-8.148-.35-11.196-.05-16.457 1.617-3.551 1.125-6.605 1.898-6.786 1.717s.025-3.2.458-6.709l.786-6.381 22.75-.269 22.749-.269V923h-31.031c-23.96 0-31.117.285-31.404 1.25m-1395.66 13.703c-5.797 1.056-8.545 2.764-9.966 6.195-1.538 3.711.529 7.835 5.062 10.1 4.053 2.026 19.98 2.468 24.684.685 8.873-3.362 9.889-12.124 1.797-15.505-4.274-1.786-15.618-2.561-21.577-1.475m1502.595-.526c-.55.219-2.134.645-3.52.947-6.645 1.447-9.285 9.112-4.64 13.476 3.157 2.966 7.777 4.151 16.153 4.144 12.557-.01 18.536-3.002 18.475-9.244-.064-6.58-4.182-8.932-16.434-9.386-4.969-.185-9.484-.156-10.034.063m-258 286.116c-4.95 2.33-28.125 13.228-51.5 24.218-65.585 30.833-71.6 33.715-101 48.401-38.724 19.345-57.648 32.493-82.515 57.335-27.503 27.474-45.077 53.023-59.886 87.06-10.582 24.322-28.791 75.584-27.357 77.018 1.228 1.228 39.587-14.993 62.258-26.327 108.993-54.487 198.059-140.279 257.205-247.748 7.338-13.333 12.538-23.615 12.11-23.948-.173-.136-4.365 1.66-9.315 3.991m-1051.702 9.707c12.124 23.039 24.927 44.225 38.524 63.75 57.466 82.515 134.465 149.32 223.501 193.909 20.78 10.407 61.804 27.797 62.927 26.675.561-.562-12.066-37.704-18.556-54.584-19.338-50.296-34.879-74.733-69.664-109.542-22.152-22.167-40.171-35.771-64.667-48.82-10.33-5.504-60.98-30.01-94.863-45.899a100948 100948 0 0 1-44.463-20.894C449.658 1228.03 432.181 1220 431.7 1220s2.263 5.963 6.098 13.25"/><path fill="#040404" fill-rule="evenodd" d="M908.294 38.05C672.377 52.571 449.671 157.506 289.741 329.5c-16.891 18.165-17.954 19.357-30.8 34.5-84.717 99.871-148.24 219.093-183.819 345-31.608 111.851-41.646 227.031-30.07 345 20.982 213.811 118.34 416.323 272.584 567 14.156 13.829 25.799 24.517 47.864 43.936 1.65 1.452 9.975 8.289 18.5 15.193 136.005 110.144 300.555 179.191 475 199.314 42.765 4.934 114.09 7.063 155.65 4.647 87.91-5.11 168.1-20.606 248.618-48.042 252.975-86.199 457.996-279.92 558.201-527.437 37.257-92.028 57.126-177.737 65.746-283.611 2.024-24.859 1.692-108.385-.537-135-8.681-103.665-31.736-198.481-70.395-289.5-85.938-202.336-241.549-368.185-437.283-466.052-107.888-53.944-213.596-83.585-339-95.055-20.425-1.869-108.569-2.768-131.706-1.343m4.206 33.99c-73.153 4.868-139.235 16.594-204.5 36.289C509.252 168.304 338.694 294.992 223.106 468.5 146.89 582.906 98.445 713.169 81.598 849c-5.46 44.015-6.098 55.74-6.098 112 0 54.996.621 67.043 5.565 108 13.692 113.435 49.402 223.354 105.424 324.505 85.186 153.811 218.581 282.221 375.403 361.375 108.806 54.918 217.859 85.069 341.108 94.308 23.315 1.748 100.876 1.747 123.5-.002 96.225-7.437 179.137-26.178 264-59.674 61.266-24.182 112.172-50.704 167-87.004 49.562-32.814 90.407-66.427 136.086-111.989 27.287-27.217 47.182-49.303 68.234-75.748 98.258-123.431 161.983-271.051 184.131-426.542 6.574-46.153 8.453-74.056 8.502-126.229.051-53.656-2.142-85.713-9.062-132.5-21.321-144.151-78.979-283.006-165.773-399.218-26.821-35.913-48.304-60.876-80.591-93.647-79.682-80.876-168.657-142.863-270.186-188.232-93.767-41.9-187.616-65.968-292.341-74.971-21.959-1.888-102.893-2.796-124-1.392m18.5 29.008c-120.459 4.277-241.835 35.337-350.5 89.694C476.889 242.57 382.8 316.47 308.298 404.536 235.691 490.362 181.54 587.155 146.638 693.5c-31.823 96.96-46.55 204.865-41.627 305 4.135 84.118 17.663 157.242 43.474 235 48.668 146.616 137.558 278.864 255.515 380.148 69.345 59.544 147.987 108.001 231.276 142.508 142.999 59.245 299.55 78.643 454.452 56.311 179.039-25.812 346.483-108.879 476.651-236.463 147.436-144.508 237.119-333.289 255.586-538.004 4.373-48.482 4.171-108.895-.533-159-15.102-160.886-75.034-313.033-174.304-442.5-48.321-63.019-111.154-124.351-174.706-170.531-141.645-102.926-303.27-158.721-477.922-164.984-28.419-1.019-33.163-1.014-63.5.063m14.25 43.684-4.25.383V277.5h47V145.285l-6.147-.643c-6.277-.656-28.939-.6-36.603.09m155.25 11.678c-9.351 1.822-19.357 5.724-26.021 10.148-12.344 8.193-23.752 24.473-28.058 40.04-2.446 8.841-2.97 26.4-1.035 34.645 4.723 20.128 20.116 37.514 42.614 48.133 26.22 12.376 61.092 17.398 81.455 11.731 17.21-4.789 31.63-15.642 37.512-28.233 5.354-11.462 6.594-10.221-17.467-17.471-11.55-3.48-21.303-6.345-21.672-6.365-.37-.021-1.18 1.499-1.8 3.378-1.697 5.14-8.426 12.142-14.548 15.138-10.199 4.989-27.084 4.26-38.715-1.674-10.01-5.106-18.007-17.189-19.26-29.099-1.322-12.567 3.817-27.931 12.42-37.131 8.998-9.622 21.602-13.241 36.139-10.377 17.965 3.54 29.028 12.391 31.728 25.387l.767 3.692 20.789 6.422c11.434 3.533 21.095 6.113 21.47 5.734 1.007-1.018.465-13.81-.861-20.338-4.296-21.144-21.346-36.36-52.297-46.67-21.867-7.285-47.43-10.154-63.16-7.09m-312.299 7.58c-13.915 3.176-25.517 5.993-25.783 6.259-.267.267-4.549 22.032-9.516 48.368S741.696 277.975 739.039 292s-4.739 25.602-4.625 25.727 6.254-1.979 13.646-4.674 18.39-6.347 24.44-8.113 11.477-3.585 12.06-4.041 1.646-6.357 2.361-13.114c2.613-24.66 9.871-85.91 10.22-86.238.197-.186 10.709 16.538 23.359 37.166s24.639 40.097 26.642 43.265l3.643 5.762 12.857-2.252c7.072-1.238 19.051-3.043 26.62-4.01l13.762-1.758-2.351-3.11c-1.293-1.71-10.058-13.685-19.478-26.61-15.062-20.667-30.177-41.353-58.766-80.428-4.397-6.01-8.43-11.024-8.962-11.143-.532-.118-12.352 2.384-26.266 5.561m-176.023 62.517c-24.255 4.394-54.313 20.181-71.178 37.382-9.185 9.369-13.791 16.306-17.837 26.869-2.322 6.062-2.586 8.153-2.622 20.742-.036 12.169.269 14.915 2.333 21 9.498 28.007 28.521 45.059 54.342 48.711 20.529 2.903 49.202-6.102 76.384-23.989 31.978-21.043 44.822-53.153 33.838-84.592-6.96-19.922-23.468-37.223-41.595-43.594-11.395-4.005-21.378-4.755-33.665-2.529m687.024 4.451c-19.22 5.203-34.872 18.815-44.319 38.542-5.112 10.674-6.965 18.231-7.04 28.71-.074 10.488 1.309 16.885 5.759 26.63 8.789 19.25 25.081 34.683 51.104 48.411 23.147 12.211 45.672 16.597 62.834 12.234 7.725-1.964 19.003-7.582 23.529-11.721 3.626-3.315 9.931-11.449 9.931-12.81 0-.719-33.705-22.52-36.437-23.568-.741-.285-3.527 1.673-6.236 4.383-5.988 5.987-11.944 8.231-21.849 8.231-12.16 0-23.387-4.981-32.177-14.275-6.897-7.293-8.801-12.762-8.801-25.279 0-9.682.145-10.349 3.925-18 12.085-24.463 34.802-31.873 58.091-18.948 13.887 7.706 20.802 17.337 21.07 29.344l.143 6.416 15.886 10.166c8.737 5.591 17.099 10.969 18.583 11.952l2.699 1.786 1.801-5.831c1.347-4.357 1.802-9.136 1.802-18.906v-13.076l-4.2-8.424c-5.212-10.455-13.357-19.591-25.601-28.718-16.432-12.25-33.109-20.98-49.199-25.754-12.491-3.707-30.694-4.365-41.298-1.495M595.5 263.345c-17.281 5.744-28.571 18.214-30.097 33.241-1.689 16.643 9.619 37.276 24.643 44.964 11.329 5.798 27.063 4.131 39.606-4.195 10.909-7.241 15.477-14.909 16.146-27.105.368-6.708.028-9.573-1.823-15.328-4.155-12.923-13.987-24.848-24.695-29.952-5.861-2.793-17.808-3.61-23.78-1.625m336.5 59.36c-109.357 5.374-221.229 41.793-313.5 102.055-152.397 99.53-254.543 256.506-282.889 434.74-9.932 62.449-10.285 129.659-1.012 192.715 17.12 116.43 65.081 223.164 141.897 315.785 15.383 18.548 57.83 61.308 76.1 76.661 63.947 53.74 135.439 94.124 210.6 118.965 11.456 3.785 14.827 5.3 15.286 6.865 2.981 10.175 17.499 69.234 21.88 89.009 4.459 20.128 14.638 70.245 14.638 72.07 0 .237 67.388.426 149.75.421l149.75-.01 4.908-25.24c7.633-39.251 23.001-105.467 31.36-135.123.767-2.721 1.981-3.282 21.772-10.072 72.015-24.704 139.767-62.836 198.96-111.979 17.047-14.153 19.321-16.275 45.544-42.511 36.178-36.197 62.099-68.575 88.183-110.149 48.422-77.176 80.505-166.561 91.672-255.407 4.189-33.324 4.593-40.481 4.597-81.5.004-41.329-.665-53.464-4.606-83.5-22.231-169.459-111.509-322.275-249.029-426.261-31.896-24.118-64.304-43.987-102.361-62.757-22.615-11.154-60.098-27.218-61.121-26.194-.225.225 16.955 48.065 38.179 106.31L1296.672 671a3136752 3136752 0 0 0 93.834 257.5l47.191 129.5c8.518 23.375 21.713 59.6 29.321 80.5s14.114 38.717 14.455 39.594c.5 1.284-7.406 5.348-40.676 20.913-139.153 65.1-159.522 75.775-188.797 98.944-14.019 11.095-45.34 42.774-56.41 57.055-28.749 37.085-47.025 76.283-70.462 151.125-14.191 45.316-36.523 133.352-44.611 175.869-.367 1.925-.888 4.287-1.159 5.25-.466 1.654-6.785 1.75-114.68 1.75H850.492l-2.82-13.75c-1.551-7.562-5.931-27.25-9.732-43.75-23.723-102.976-51.488-188.217-76.708-235.5-20.577-38.577-59.365-81.396-99.246-109.56-20.708-14.623-38.361-23.879-110.486-57.93-47.18-22.275-64.859-30.571-90-42.236-6.6-3.062-12.412-5.936-12.916-6.387-.54-.483.563-4.833 2.689-10.603 1.983-5.381 16.937-46.234 33.231-90.784s36.312-99.225 44.484-121.5 20.777-56.7 28.011-76.5 14.653-40.05 16.486-45c3.386-9.14 17.059-46.51 63.667-174 14.276-39.05 27.055-73.925 28.397-77.5 2.424-6.454 15.502-42.15 58.526-159.75C736.4 390.563 746.719 363 747.006 363s4.227 11.813 8.753 26.25c26.361 84.081 74.719 237.84 85.94 273.25 5.228 16.5 10.958 34.725 12.732 40.5l3.226 10.5 107.172.255c58.944.139 107.171.027 107.171-.251 0-.279 3.633-12.093 8.073-26.255L1101.152 620a499511 499511 0 0 1 23.511-75c5.778-18.425 16.347-52.175 23.487-75 15.052-48.124 27.829-88.763 31.83-101.241l2.803-8.74-18.203-5.94c-53.881-17.581-105.302-27.376-163.063-31.06-14.551-.928-53.453-1.104-69.517-.314m-509.53 29.634c-19.136 17.421-38.336 36.082-50.582 49.161C358.183 416.136 337 439.963 337 440.741c0 1.181 92.373 93.265 93.504 93.212 1.216-.058 29.878-33.484 30.289-35.324.161-.721-15.31-16.644-34.38-35.384l-34.672-34.073 2.151-3.02c1.182-1.661 9.657-10.256 18.833-19.101l16.682-16.08 34.607 34.514C483.048 444.468 498.933 460 499.315 460c1 0 35.685-30.205 35.685-31.076 0-.795-92.571-92.26-93.805-92.684-.416-.143-8.842 7.101-18.725 16.099m1056.932-2.853c-13.063 2.842-25.219 12.268-30.966 24.014-2.621 5.356-2.936 7.02-2.936 15.5 0 8.245.359 10.266 2.715 15.295 1.91 4.075 2.355 5.916 1.5 6.203-.668.224-14.903 2.905-31.634 5.957-16.73 3.052-30.571 5.702-30.757 5.888s8.102 7.582 18.419 16.436c10.316 8.855 20.301 17.494 22.188 19.2 2.584 2.335 4.065 2.966 6 2.556 4.76-1.008 85.396-15.535 85.986-15.491.32.025-11.342 11.707-25.917 25.962-20.772 20.315-26.284 26.229-25.5 27.359.55.793 6.403 7.673 13.006 15.289s13.226 15.419 14.717 17.342l2.712 3.495 17.783-17.534c9.78-9.644 31.15-30.628 47.489-46.631l29.707-29.097-9.127-9.865a8798 8798 0 0 0-21.707-23.334 20488 20488 0 0 1-20.518-22c-18.884-20.294-28.184-28.735-35.749-32.445-6.608-3.242-15.457-5.715-19.699-5.506-.888.044-4.358.677-7.712 1.407m16.993 43.669c-3.96 1.055-8.087 5.167-8.9 8.869-1.167 5.314 2.479 10.694 18.286 26.976l15.048 15.5 8.591-8.483c4.725-4.666 8.476-8.79 8.336-9.164-.281-.746-25.915-26.974-29.934-30.627-3.247-2.951-7.542-4.106-11.427-3.071M1185 603.84c0 .645-.696 5.783-1.546 11.417s-6.224 42.643-11.942 82.243c-5.717 39.6-13.366 92.475-16.997 117.5a42205 42205 0 0 0-10.53 73c-2.16 15.125-8.234 57.2-13.496 93.5s-9.837 67.912-10.165 70.25-.369 4.25-.092 4.25c.278 0 12.377-5.67 26.886-12.6 14.51-6.931 29.982-14.294 34.382-16.364 7.476-3.517 32.439-15.435 68.32-32.619 8.426-4.035 15.176-6.957 15-6.492-.355.937-42.92 45.342-84.905 88.575-16.084 16.562-22.761 24.335-33.117 38.553-22.292 30.606-39.121 66.305-48.786 103.488-2.805 10.793-3.932 17.743-14.022 86.459-2.706 18.425-6.972 47.45-9.481 64.5s-5.881 40-7.495 51-5.2 35.3-7.969 54-5.012 34.9-4.983 36c.047 1.833 3.322-8.778 15.434-50 27.122-92.312 29.748-100.6 38.011-120 20.133-47.266 45.678-84.842 82.944-122.013 27.826-27.754 62.036-53.309 90.322-67.472 17.842-8.933 64.375-31.015 65.359-31.015.477 0 .868-.495.868-1.1s-4.777-16.243-10.615-34.75c-5.839-18.508-11.643-37.025-12.9-41.15-2.308-7.579-24.802-79.387-44.168-141-5.792-18.425-11.772-37.55-13.29-42.5s-8.707-27.9-15.975-51c-7.269-23.1-20.119-64.05-28.557-91l-25.517-81.5c-5.596-17.875-10.356-32.687-10.576-32.917-.221-.229-.402.112-.402.757M743.663 605c-.313.825-6.475 20.4-13.693 43.5a112684 112684 0 0 1-44.475 142c-5.697 18.15-18.745 59.775-28.996 92.5-16.422 52.427-47.965 153.086-67.169 214.348-3.628 11.574-6.154 21.228-5.678 21.704.471.471 13.68 6.96 29.352 14.419s32.546 15.644 37.496 18.188c28.651 14.728 62.388 40.201 90.5 68.334 46.818 46.852 77.38 98.963 97.358 166.007 5.199 17.446 8.17 27.591 28.766 98.228 4.607 15.801 8.504 28.155 8.66 27.453.157-.701-8.972-64.029-20.286-140.728-21.171-143.518-22.644-151.973-30.358-174.195-14.433-41.584-36.098-77.986-64.977-109.181-5.864-6.336-26.219-27.62-45.233-47.298-43.361-44.878-50.827-52.716-50.513-53.029.138-.138 12.588 5.645 27.667 12.851a17890 17890 0 0 0 35.416 16.89c4.4 2.083 24.602 11.723 44.893 21.422s37.039 17.489 37.217 17.31c.178-.178-1.481-12.676-3.686-27.773A55595 55595 0 0 1 794.488 949a518675 518675 0 0 0-18.916-131c-6.319-43.725-15.8-109.425-21.069-146s-9.734-66.95-9.924-67.5-.603-.325-.916.5M238.389 922.488c-12.379 2.693-20.128 9.086-22.377 18.462-2.902 12.096 1.993 22.397 12.988 27.334 6.155 2.764 26.445 3.522 36.489 1.363 3.844-.827 7.151-1.34 7.349-1.142.932.931-2.186 7.454-4.725 9.887-4.694 4.497-10.494 5.608-29.272 5.608H222v17h18.451c20.326 0 26.308-.873 34.636-5.057 10.166-5.108 15.24-13.128 16.954-26.798 2.034-16.218-1.84-32.433-9.235-38.654-10.145-8.537-27.548-11.672-44.417-8.003m1502.881-.434c-15.231 3.006-23.29 11.554-23.248 24.656.036 11.232 4.073 17.318 14.478 21.827 5.843 2.531 24.758 3.119 34.432 1.069 4.088-.866 7.63-1.378 7.871-1.137 1.203 1.203-1.389 6.398-4.821 9.663-5.133 4.883-10.173 5.868-30.031 5.868H1724v17l17.75-.017c26.187-.026 36.607-2.902 44.979-12.413 5.965-6.776 7.773-13.43 7.763-28.57-.01-15.044-1.728-21.131-7.834-27.756-7.349-7.972-16.753-11.276-31.658-11.123-5.225.054-11.404.474-13.73.933M166.5 923.509c-.55.192-5.838 1.341-11.75 2.551L144 928.261v8.869c0 4.879.4 8.87.89 8.87.489 0 5.264-.9 10.61-2s10.346-2 11.11-2c1.143 0 1.39 3.739 1.39 21v21h-24v17h63v-17h-18v-61l-10.75.079c-5.912.043-11.2.237-11.75.43m1474.065.741c-.616 2.069-4.542 44.106-4.155 44.493.197.197 5.698-.4 12.224-1.327s16.964-1.737 23.195-1.8c11.233-.115 11.349-.092 13.75 2.69 4.096 4.747 2.917 10.284-2.859 13.424-2.704 1.47-6.546 1.806-23.97 2.098l-20.75.347V1001h19.542c13.945 0 21.741-.454 27.218-1.585 16.145-3.335 23.366-11.199 23.4-25.486.04-16.23-8.774-23.818-28.66-24.673-8.148-.35-11.196-.05-16.457 1.617-3.551 1.125-6.605 1.898-6.786 1.717s.025-3.2.458-6.709l.786-6.381 22.75-.269 22.749-.269V923h-31.031c-23.96 0-31.117.285-31.404 1.25m-1395.66 13.703c-5.797 1.056-8.545 2.764-9.966 6.195-1.538 3.711.529 7.835 5.062 10.1 4.053 2.026 19.98 2.468 24.684.685 8.873-3.362 9.889-12.124 1.797-15.505-4.274-1.786-15.618-2.561-21.577-1.475m1502.595-.526c-.55.219-2.134.645-3.52.947-6.645 1.447-9.285 9.112-4.64 13.476 3.157 2.966 7.777 4.151 16.153 4.144 12.557-.01 18.536-3.002 18.475-9.244-.064-6.58-4.182-8.932-16.434-9.386-4.969-.185-9.484-.156-10.034.063"/></svg>