<svg xmlns="http://www.w3.org/2000/svg" viewBox="0 0 1508.1 1414.47"><defs><clipPath id="b" clipPathUnits="userSpaceOnUse"><path d="M-778.33 254.91h1448v-1448h-1448Z"/></clipPath><clipPath id="a" clipPathUnits="userSpaceOnUse"><path d="M-986.32 902.07h1448v-1448h-1448Z"/></clipPath><clipPath id="c" clipPathUnits="userSpaceOnUse"><path d="M-928.973 685.847h1448v-1448h-1448Z"/></clipPath><clipPath id="d" clipPathUnits="userSpaceOnUse"><path d="M-927.84 704.96h1448v-1448h-1448Z"/></clipPath><clipPath id="e" clipPathUnits="userSpaceOnUse"><path d="M-694.49 418.45h1448v-1448h-1448Z"/></clipPath><clipPath id="f" clipPathUnits="userSpaceOnUse"><path d="M-768.83 437.97h1448v-1448h-1448Z"/></clipPath><clipPath id="g" clipPathUnits="userSpaceOnUse"><path d="M-638.62 459.18h1448v-1448h-1448Z"/></clipPath><clipPath id="h" clipPathUnits="userSpaceOnUse"><path d="M-612.81 458.5h1448v-1448h-1448Z"/></clipPath><clipPath id="i" clipPathUnits="userSpaceOnUse"><path d="M-838.41 461.12h1448v-1448h-1448Z"/></clipPath><clipPath id="j" clipPathUnits="userSpaceOnUse"><path d="M-718.06 452.86h1448v-1448h-1448Z"/></clipPath><clipPath id="k" clipPathUnits="userSpaceOnUse"><path d="M-853.55 449.52h1448v-1448h-1448Z"/></clipPath><clipPath id="l" clipPathUnits="userSpaceOnUse"><path d="M-676.11 462.47h1448v-1448h-1448Z"/></clipPath><clipPath id="m" clipPathUnits="userSpaceOnUse"><path d="M-584.96 467.98h1448v-1448h-1448Z"/></clipPath><clipPath id="n" clipPathUnits="userSpaceOnUse"><path d="M-822.01 466.3h1448v-1448h-1448Z"/></clipPath><clipPath id="o" clipPathUnits="userSpaceOnUse"><path d="M-560.77 485.61h1448v-1448h-1448Z"/></clipPath><clipPath id="p" clipPathUnits="userSpaceOnUse"><path d="M-871.24 477.87h1448v-1448h-1448Z"/></clipPath><clipPath id="q" clipPathUnits="userSpaceOnUse"><path d="M-588.07 489.13h1448v-1448h-1448Z"/></clipPath><clipPath id="r" clipPathUnits="userSpaceOnUse"><path d="M-542.93 484.26h1448v-1448h-1448Z"/></clipPath><clipPath id="s" clipPathUnits="userSpaceOnUse"><path d="M-908.45 504.26h1448v-1448h-1448Z"/></clipPath><clipPath id="t" clipPathUnits="userSpaceOnUse"><path d="M-932.4 520.79h1448v-1448h-1448Z"/></clipPath><clipPath id="u" clipPathUnits="userSpaceOnUse"><path d="M-869.43 506.54h1448v-1448h-1448Z"/></clipPath><clipPath id="v" clipPathUnits="userSpaceOnUse"><path d="M-936.41 515.95h1448v-1448h-1448Z"/></clipPath><clipPath id="w" clipPathUnits="userSpaceOnUse"><path d="M-532.9 542.61h1448v-1448h-1448Z"/></clipPath><clipPath id="x" clipPathUnits="userSpaceOnUse"><path d="M-549.1 848.41h1448v-1448h-1448Z"/></clipPath><clipPath id="y" clipPathUnits="userSpaceOnUse"><path d="M-901.26 866.01h1448v-1448h-1448Z"/></clipPath><clipPath id="z" clipPathUnits="userSpaceOnUse"><path d="M-556.41 875.72h1448v-1448h-1448Z"/></clipPath><clipPath id="A" clipPathUnits="userSpaceOnUse"><path d="M-874.07 872.5h1448v-1448h-1448Z"/></clipPath><clipPath id="B" clipPathUnits="userSpaceOnUse"><path d="M-568.75 875.01h1448v-1448h-1448Z"/></clipPath><clipPath id="C" clipPathUnits="userSpaceOnUse"><path d="M-867.2 896.3h1448v-1448h-1448Z"/></clipPath><clipPath id="D" clipPathUnits="userSpaceOnUse"><path d="M-593.13 895.58h1448v-1448h-1448Z"/></clipPath><clipPath id="E" clipPathUnits="userSpaceOnUse"><path d="M-846.48 910.18h1448v-1448h-1448Z"/></clipPath><clipPath id="F" clipPathUnits="userSpaceOnUse"><path d="M-615.5 893.96h1448v-1448h-1448Z"/></clipPath><clipPath id="G" clipPathUnits="userSpaceOnUse"><path d="M-632.32 919.34h1448v-1448h-1448Z"/></clipPath><clipPath id="H" clipPathUnits="userSpaceOnUse"><path d="M-809.27 920.72h1448v-1448h-1448Z"/></clipPath><clipPath id="I" clipPathUnits="userSpaceOnUse"><path d="M-638.5 924.72h1448v-1448h-1448Z"/></clipPath><clipPath id="J" clipPathUnits="userSpaceOnUse"><path d="M-786.67 919.29h1448v-1448h-1448Z"/></clipPath><clipPath id="K" clipPathUnits="userSpaceOnUse"><path d="M-679.21 915.53h1448v-1448h-1448Z"/></clipPath><clipPath id="L" clipPathUnits="userSpaceOnUse"><path d="M-772 914.717H676v-1448H-772Z"/></clipPath><clipPath id="M" clipPathUnits="userSpaceOnUse"><path d="M-688.24 920.19h1448v-1448h-1448Z"/></clipPath><clipPath id="N" clipPathUnits="userSpaceOnUse"><path d="M-757.7 920.22h1448v-1448h-1448Z"/></clipPath><clipPath id="O" clipPathUnits="userSpaceOnUse"><path d="M-723.78 928.847h1448v-1448h-1448Z"/></clipPath><clipPath id="P" clipPathUnits="userSpaceOnUse"><path d="M-735.96 923.03h1448v-1448h-1448Z"/></clipPath><clipPath id="Q" clipPathUnits="userSpaceOnUse"><path d="M-694.65 969.27h1448v-1448h-1448Z"/></clipPath><clipPath id="R" clipPathUnits="userSpaceOnUse"><path d="M-715.07 972.23h1448v-1448h-1448Z"/></clipPath><clipPath id="S" clipPathUnits="userSpaceOnUse"><path d="M-728.73 983.67h1448v-1448h-1448Z"/></clipPath><clipPath id="T" clipPathUnits="userSpaceOnUse"><path d="M-759.29 981.3h1448v-1448h-1448Z"/></clipPath><clipPath id="U" clipPathUnits="userSpaceOnUse"><path d="M-1180.62 427.5h1448v-1448h-1448Z"/></clipPath><clipPath id="V" clipPathUnits="userSpaceOnUse"><path d="M-1232.54 504.26h1448v-1448h-1448Z"/></clipPath><clipPath id="W" clipPathUnits="userSpaceOnUse"><path d="M-1275.73 548.24h1448v-1448h-1448Z"/></clipPath><clipPath id="X" clipPathUnits="userSpaceOnUse"><path d="M-1285.96 691.74h1448v-1448h-1448Z"/></clipPath><clipPath id="Y" clipPathUnits="userSpaceOnUse"><path d="M-1245.59 864.11h1448v-1448h-1448Z"/></clipPath><clipPath id="Z" clipPathUnits="userSpaceOnUse"><path d="M-1258.33 915.19h1448v-1448h-1448Z"/></clipPath><clipPath id="aa" clipPathUnits="userSpaceOnUse"><path d="M-1155.75 1054.36h1448v-1448h-1448Z"/></clipPath><clipPath id="ab" clipPathUnits="userSpaceOnUse"><path d="M-360.31 350.97h1448v-1448h-1448Z"/></clipPath><clipPath id="ac" clipPathUnits="userSpaceOnUse"><path d="M-343.26 436.19h1448v-1448h-1448Z"/></clipPath><clipPath id="ad" clipPathUnits="userSpaceOnUse"><path d="M-287.39 558.65h1448v-1448h-1448Z"/></clipPath><clipPath id="ae" clipPathUnits="userSpaceOnUse"><path d="M-269.35 665.85h1448v-1448h-1448Z"/></clipPath><clipPath id="af" clipPathUnits="userSpaceOnUse"><path d="M-290.01 779.51h1448v-1448h-1448Z"/></clipPath><clipPath id="ag" clipPathUnits="userSpaceOnUse"><path d="M-357 1018.25h1448v-1448H-357Z"/></clipPath><clipPath id="ah" clipPathUnits="userSpaceOnUse"><path d="M-506.98 1102.46h1448v-1448h-1448Z"/></clipPath><clipPath id="ai" clipPathUnits="userSpaceOnUse"><path d="M-1037.8 1120.07h1448v-1448h-1448Z"/></clipPath></defs><path d="M82.89 158.77c-8.88 19.95-21.12 43.57-28.84 68.76a458 458 0 0 0-13.13 54.55l-1.84 17.7c-.69 9.63-.72 19.22-.1 28.77l.63 8.04 1.7 14.02.4 1.91c1.23 7.97 3.27 17.42 6.14 28.37 6.98 26.63 15.97 51.51 26.97 74.65q4.98 10.47 10.14 21.03.225.45-.15.78A1494 1494 0 0 0-29.18 594.44q-11.775 13.5-23.58 27.12c-.24.27-.52.33-.84.17-44.4-22.29-89.37-38.35-134.92-48.19-45.41-9.81-90.91-10.23-136.51-1.26-50.03 9.84-96.73 26.09-140.71 49.81-.6.32-1.34.2-1.79-.3a6806 6806 0 0 0-133.74-143.32.86.86 0 0 1-.16-.96c11.06-24.33 22.29-50.62 28.7-76.59 5.9-23.89 9.96-48.1 12.19-72.63 1.57-17.26-.24-34.11-4.16-50.55-9.33-39.18-23.33-78.62-36.04-117.42-10.48-31.99-15.19-64.08-13.51-97.77.42-8.39 1.01-15.03 1.76-19.92 4.4-28.81 20.77-52.37 44.46-69.38l10.46-7.22c33.24-20.5 70.88-34.01 106.67-49.32 60.24-25.77 116.17-58.84 167.78-99.19q12.12-9.48 23.79-18.99c.48-.39 1.16-.38 1.63.01 58.12 48.83 120.83 90.48 191.15 119.6 16.87 6.99 33.71 14.03 50.53 21.13 20.41 8.62 40.09 18.6 56.88 32.12C74.55-1.48 91.9 38.32 95.05 81.1l.63 4.42c.43 25.92-2.16 49.36-12.79 73.25" clip-path="url(#a)" style="fill:#ffd800;fill-opacity:1;fill-rule:nonzero;stroke:none" transform="matrix(1.33333 0 0 -1.33333 1099.445 912.125)"/><path d="m0 0-27.89-22.18c-.41-.32-.58-.86-.45-1.36l9.15-33.18.4-1.32q.135-.465-.33-.36c-.3.07-.56.18-.78.35l-29.52 19.51q-.465.315-.93 0l-29.82-19.67c-1.05-.9-1.2-.2-.44 2.11l9.14 32.92c.09.35 0 .63-.28.86L-94.96-3.96l-5.12 4.15c-.03.34.05.51.26.52 11.99.51 24.02 1.02 36.08 1.53.35.01.58.18.7.51l12.26 32.59.58 1.34c.11.27.29.32.54.17.26-.15.32-.32.18-.49l12.4-33.29c.16-.43.56-.71 1.02-.73l33.93-1.27C.36.87 1.07.51 0 0" clip-path="url(#b)" style="fill:#0c3298;fill-opacity:1;fill-rule:nonzero;stroke:none" transform="matrix(1.33333 0 0 -1.33333 822.125 49.244)"/><path d="M0 0c-26.01-15.9-57.25-27.06-86.06-39.09-61.67-25.73-119.85-60.8-172.4-102.37q-.405-.315-.81 0c-54.21 41.51-112.32 75.39-174.31 101.65-41.08 17.4-64.63 26.25-95.51 43.62-17.84 10.03-32.81 24.22-36.48 44.75-1.48 8.29-2.19 17.37-2.14 27.26.14 23.69 3.96 46.75 11.45 69.19 8.38 25.09 16.58 50.25 24.59 75.47 8.26 25.96 15.31 51.71 18.06 78.62l.2 19.95c-.01 3.23.41 6.62.14 9.69a547.6 547.6 0 0 1-13.72 83.67c-4.57 18.64-11.72 37.17-18.76 55.02-.14.35-.08.66.18.94l89.6 95.94c.17.19.44.25.67.15l33.48-13.83 32.35-10.82c35.53-10.63 70.1-18.19 106.91-20.28l20.67-.73c30.97-.09 61.43 3.47 91.38 10.66a667.5 667.5 0 0 1 104.35 34.33c.45.19.98.07 1.3-.3 29.33-33.55 60.09-65.76 92.26-96.61.22-.21.27-.46.15-.74C12.37 431.6-.42 391.46-5.82 353.81c-4.52-31.53-3.59-62.6 2.78-93.23 6.22-29.92 15.98-64.43 28.78-90.95 5.63-11.66 10.31-21.65 14.05-29.98 10.63-23.67 10.89-51.73 4.85-77.38C38.23 35.03 23.35 14.27 0 0m82.89 158.77c-8.88 19.95-21.12 43.57-28.84 68.76a458 458 0 0 0-13.13 54.55l-1.84 17.7c-.69 9.63-.72 19.22-.1 28.77l.63 8.04 1.7 14.02.4 1.91c1.23 7.97 3.27 17.42 6.14 28.37 6.98 26.63 15.97 51.51 26.97 74.65q4.98 10.47 10.14 21.03.225.45-.15.78A1494 1494 0 0 0-29.18 594.44q-11.775 13.5-23.58 27.12c-.24.27-.52.33-.84.17-44.4-22.29-89.37-38.35-134.92-48.19-45.41-9.81-90.91-10.23-136.51-1.26-50.03 9.84-96.73 26.09-140.71 49.81-.6.32-1.34.2-1.79-.3a6806 6806 0 0 0-133.74-143.32.86.86 0 0 1-.16-.96c11.06-24.33 22.29-50.62 28.7-76.59 5.9-23.89 9.96-48.1 12.19-72.63 1.57-17.26-.24-34.11-4.16-50.55-9.33-39.18-23.33-78.62-36.04-117.42-10.48-31.99-15.19-64.08-13.51-97.77.42-8.39 1.01-15.03 1.76-19.92 4.4-28.81 20.77-52.37 44.46-69.38l10.46-7.22c33.24-20.5 70.88-34.01 106.67-49.32 60.24-25.77 116.17-58.84 167.78-99.19q12.12-9.48 23.79-18.99c.48-.39 1.16-.38 1.63.01 58.12 48.83 120.83 90.48 191.15 119.6 16.87 6.99 33.71 14.03 50.53 21.13 20.41 8.62 40.09 18.6 56.88 32.12C74.55-1.48 91.9 38.32 95.05 81.1l.63 4.42c.43 25.92-2.16 49.36-12.79 73.25" clip-path="url(#a)" style="fill:#0c3298;fill-opacity:1;fill-rule:nonzero;stroke:none" transform="matrix(1.33333 0 0 -1.33333 1099.445 912.125)"/><path d="M0 0c0-105.243-89.899-190.56-200.796-190.56S-401.591-105.243-401.591 0s89.899 190.56 200.795 190.56C-89.899 190.56 0 105.243 0 0" clip-path="url(#c)" style="fill:#fff;fill-opacity:1;fill-rule:nonzero;stroke:none" transform="matrix(1.33333 0 0 -1.33333 1022.983 623.827)"/><path d="M0 0c-.04-.36-.18-.4-.41-.13-4.09 4.75-11.1 12.12-12.58 18.14-7.82 31.62-15.68 63.22-23.57 94.81-1.5 6.01 1.35 11.59-.84 18.13-.04.12 0 .25.1.32.12.09.3.07.39-.06C-8.27 93.33 5.32 47.43 0 0m-17.63 17.81L-49.4-20.23a.63.63 0 0 0-.72-.19L-119.44 6.2c-.2.07-.35.24-.4.45l-17.51 77.57c-.04.19 0 .4.13.55l41.87 49.9c.18.21.47.28.73.18l53.39-22.16a.63.63 0 0 0 .38-.43l23.35-93.88c.05-.2 0-.41-.13-.57M-36.59-90.61c-29.63-37.32-67.7-61.65-114.21-72.98-.03-.01-.06-.01-.09-.01-.14.02-.25.15-.23.29.04.37.2.56.47.58 3.59 5.28 7.15 10.34 10.67 15.18.81 1.13 1.8 2.12 2.92 2.94l79.25 58.56c.29.22.62.29.98.22l19.98-4.09c.46-.09.55-.32.26-.69m-153.95-26.68 1.05 78.43c.01.24.14.45.34.57l67.57 40.42c.18.11.4.12.59.05l69.5-26.65a.68.68 0 0 0 .43-.72l-6.81-55.29a.7.7 0 0 0-.28-.46l-80.81-59.68a.67.67 0 0 0-.68-.08l-50.5 22.78c-.25.11-.4.36-.4.63m-4.36 1.1a.95.95 0 0 0-.7-.9l-67.23-18.48a.96.96 0 0 0-.89.2l-74.92 66.09c-.19.17-.3.4-.32.65l-3.9 59.48c-.03.46.28.87.72.98l85.6 21.31c.29.07.6.01.83-.18l61.58-50.56c.22-.19.35-.46.34-.75zm-58.45-46.15c-52.1 13.57-98.5 47.48-124.5 95.05-.16.29-.07.43.26.41l31.75-2.13q.45-.03.78-.33c26.63-23.5 53.25-46.99 79.87-70.47 1.36-1.19 2.44-2.61 3.25-4.24 2.95-5.97 5.91-11.95 8.89-17.92.17-.35.07-.47-.3-.37M-400.3 13.62c-2.24 52.68 19.51 102.94 57.45 139.33.04.04.09.06.14.06a.2.2 0 0 0 .22-.2c.41-6.01.76-12.05 1.06-18.13.09-1.81-.16-3.58-.76-5.31-10.63-30.89-21.22-61.65-31.77-92.29-.22-.63-.59-1.19-1.09-1.64l-24.67-22.07c-.37-.32-.56-.24-.58.25m62.16 113.32 66.01 21.95c.35.11.73-.02.94-.32l42.82-62.64c.16-.23.19-.53.08-.79L-256.35 18a.82.82 0 0 0-.56-.48l-85.78-21.39a.82.82 0 0 0-.86.31l-27.1 35.88c-.17.22-.22.51-.13.77l32.12 93.33c.08.24.28.44.52.52m70.42 24.64 34.02 41.76c.06.08.16.12.26.12l99.3-9.06c.08-.01.16-.05.21-.12l35.77-45.8c.09-.12.08-.28-.01-.39l-41.03-49.02a.3.3 0 0 0-.23-.11h-85.67c-.1 0-.19.06-.25.14l-42.39 62.11c-.08.11-.07.26.02.37m14.84 51.3c46.99 11.53 92.7 8.01 137.14-10.56.09-.04.16-.13.17-.23.01-.14-.1-.27-.24-.28-4.91-.47-9.76-1.4-14.57-2.8-1.47-.43-2.5-.3-3.95-.17-32.84 2.91-65.68 5.88-98.51 8.91-6.78.63-13.34 3.16-20.04 4.71q-.885.21 0 .42M-1.18 90.27c-.89 1.91-1.57 4.16-2.34 5.84-32.53 71.65-100.89 117.46-179.11 123.19-14.41 1.15-28.8.87-43.15-.84-51.3-5.89-99.51-29.58-134.36-67.85l-5.47-6.1c-80.98-96.17-50.79-235.02 56.83-295.74 72.16-40.72 161.88-37.57 231.24 8.09q33.405 22.155 56.01 55.02C-1.9-59.55 9.2-28.03 11.75 6.43c2.01 29.05-2.3 57-12.93 83.84" clip-path="url(#d)" style="fill:#0c3298;fill-opacity:1;fill-rule:nonzero;stroke:none" transform="matrix(1.33333 0 0 -1.33333 1021.471 649.311)"/><path d="M0 0q.46 0 .49-.31a306 306 0 0 1 2.14-17.52.605.605 0 0 1 .62-.51l8.18.37q.56.02.7.56l1.34 4.97a.76.76 0 0 0 .2.36q1.7 1.78 4.44 2.61.63.66 1.35.86.68.19.48-.49l-.7-2.39-1.33-5.62q-.12-.52.41-.5l9.14.22a.75.75 0 0 1 .72.63c.93 5.83 10.75 13.17 16.37 10.58 3.45-1.59 2.53-5.61-.36-7.26a.83.83 0 0 0-.94.09q-4.08 3.54-8.32.04a.714.714 0 0 1-.2-.84c2.17-4.91 10.04-3.8 14.54-3.9a.67.67 0 0 0 .647-.686.7.7 0 0 0-.037-.194l-2.98-8.34q-.14-.4-.56-.34c-7.58 1.02-15.81.58-27.1.56a.68.68 0 0 0-.64.45l-1.4 4.01a.414.414 0 0 1-.532.265.44.44 0 0 1-.288-.325l-.8-3.93a.55.55 0 0 0-.26-.36q-1.24-.68-3.25-.71-10.32-.13-23.85-2.49a.73.73 0 0 1-.61-.56c-2.91-10.28-25.38-18.36-25.55-1.85q-.08 6.99 4.5 10.1.36.52.72.4.48-.16.28-.63c-1.82-4.21-2.44-10.59 3.01-11.92 3.84-.95 8.72 1.26 12.16 3.42a.72.72 0 0 1 .04 1.2c-2.2 1.61-5.97.79-8.59.82l1.9 6.25q.18.59.79.69l18.56 2.96a.57.57 0 0 1 .471.654l-.001.006-2.82 15.08q-.1.49.37.69l5.07 2.18z" clip-path="url(#e)" style="fill:#0c3298;fill-opacity:1;fill-rule:nonzero;stroke:none" transform="matrix(1.33333 0 0 -1.33333 710.338 267.298)"/><path d="m0 0 5.2-3.08a.11.11 0 0 1 .15.04c.852 1.438.356 3.309-1.11 4.18l-.07.04C2.704 2.053.821 1.596-.035.158L-.04.15A.11.11 0 0 1 0 0m38-10.7 5.25-1.79a.7.7 0 0 1 .9.83l-1.53 6.22q-.13.49.33.7l3.55 1.59a1.12 1.12 0 0 0 1.54-.71q1.32-4.49 1-8.59c-.27-3.55-3.24-6.76-5.14-9.79q-.27-.42-.75-.25a255 255 0 0 1-35.78 9.74.82.82 0 0 1-.79-.25L5.5-14.07a.685.685 0 0 0-.89-.07l-8.84 6.39q-.54.39-.92-.16l-1.28-1.87a1.01 1.01 0 0 0-.95-.43l-13.36 1.63a.45.45 0 0 0-.39.45l.07 24.91c.007.523.357.978.86 1.12l5.03 1.38q.73.21.69-.55L-15.39.96q-.03-.54.51-.6l8.25-.95q.48-.06.75.34C-2.82 4.21.86 7.77 6.59 6.53 12.03 5.36 11.76.79 11.4-3.51q-.03-.44.4-.53l7.26-1.43a.53.53 0 0 1 .63.62l-.29 1.54a.795.795 0 0 0 .38.84l3.87 2.28q.63.37.7-.35l.62-6.2q.03-.37.39-.46l6.25-1.57q.56-.14.56.43v1.7q0 .67.59.98l3.61 1.88q.77.4.82-.46l.31-5.79q.02-.51.5-.67" clip-path="url(#f)" style="fill:#0c3298;fill-opacity:1;fill-rule:nonzero;stroke:none" transform="matrix(1.33333 0 0 -1.33333 809.458 293.325)"/><path d="m0 0-1.08-.08q-.65-.05-.86.56l-8.15 23.16q-.19.55.27.91l4.59 3.48q.46.35.64-.2C-1.56 18.53 1.33 10.75.83.86Q.79.06 0 0" clip-path="url(#g)" style="fill:#0c3298;fill-opacity:1;fill-rule:nonzero;stroke:none" transform="matrix(1.33333 0 0 -1.33333 635.845 321.605)"/><path d="m0 0 8.91 3.63a.85.85 0 0 1 .465 1.109l-.005.011-5.63 13.33a1.29 1.29 0 0 0 .41 1.54l5.42 4.11q.46.35.78-.14l3.48-5.18q.35-.52-.15-.91l-.8-.62q-.38-.3-.23-.75a224 224 0 0 1 2.29-6.46c1.6-4.28 1.06-8.41 1.07-12.85q0-.56-.52-.76L1.86-9.48a1.18 1.18 0 0 1-.71-.83C.4-13.57-.94-17.6-3.58-19.79c-2.22-1.85-7.32-1.8-10.17-1.81q-.68-.01-.18.46c5.62 5.11 14.2 14.58 4 20.71q-.46.28-.24.77l2.84 6.41a.43.43 0 0 0 .65.17A21.5 21.5 0 0 0-.76.26Q-.5-.2 0 0" clip-path="url(#h)" style="fill:#0c3298;fill-opacity:1;fill-rule:nonzero;stroke:none" transform="matrix(1.33333 0 0 -1.33333 601.431 320.698)"/><path d="m0 0 .07 1.86a.25.25 0 0 1-.24.26h-.16c-1.886.068-3.433-.32-3.46-.87l-.02-.36C-3.82.339-2.299-.162-.41-.23l.16-.01A.25.25 0 0 1 0 0m4.54 16.25q7.78 1.17 5.95-2.48l-.2-3.69a1.04 1.04 0 0 0-.4-.77L3.82 4.65q-.41-.31-.29-.82Q5.32-4.15-.91-9.13a.85.85 0 0 0-.94-.13l-7.73 3.37-4.56 1.86-3.53 1.52a.485.485 0 0 0-.26.63l2.85 6.79a.776.776 0 0 0 .81.47c2.5-.28 8.65-1.25 12-.06a.604.604 0 0 1 .33.85c-1.3 2.42-4.03 7.6-7.36 6.89a.87.87 0 0 0-.87.33l-4.35 5.91q-.34.47.1.85l4.75 4.16q.4.34.78-.02A55.2 55.2 0 0 0 2.47 8.94a.499.499 0 0 1 .95.15Z" clip-path="url(#i)" style="fill:#0c3298;fill-opacity:1;fill-rule:nonzero;stroke:none" transform="matrix(1.33333 0 0 -1.33333 902.231 324.191)"/><path d="m0 0-2.68-3.03q-1.5-1.21-3.94 1.54a.6.6 0 0 1-.88.03l-2.23-2.23a.685.685 0 0 0-.9-.06l-3.36 2.61a.645.645 0 0 0-.119.904l.039.046 3.1 3.31a.574.574 0 0 0 .81.04l2.34-2.1a.79.79 0 0 1 1.08.02l2.18 2.14q.46.45.93.03z" clip-path="url(#j)" style="fill:#0c3298;fill-opacity:1;fill-rule:nonzero;stroke:none" transform="matrix(1.33333 0 0 -1.33333 741.765 313.178)"/><path d="M0 0q7.13.06 4.88-2.55C1.98-10.61-.49-18.69-6.17-25a1.59 1.59 0 0 0-2.7 1.56L-1.34-.46q.16.49.68.48z" clip-path="url(#k)" style="fill:#0c3298;fill-opacity:1;fill-rule:nonzero;stroke:none" transform="matrix(1.33333 0 0 -1.33333 922.418 308.725)"/><path d="m0 0 2.02 2.55a.71.71 0 0 0 .97.14L6.23.32a.71.71 0 0 0 .15-1.01l-2.5-3.26a.71.71 0 0 0-.95-.16L.52-2.52a.71.71 0 0 1-.96-.17L-2.2-5.04a.71.71 0 0 0-.93-.2l-3.68 2.13A.71.71 0 0 0-7-2.04l2.84 3.43a.71.71 0 0 0 .97.12L-.98-.13A.71.71 0 0 1 0 0" clip-path="url(#l)" style="fill:#0c3298;fill-opacity:1;fill-rule:nonzero;stroke:none" transform="matrix(1.33333 0 0 -1.33333 685.831 325.991)"/><path d="M0 0q-1.16.29-1.68.9L.7 6.38a1.78 1.78 0 0 0 2.342.924L3.05 7.3c2.22-.99 7.83-4.41 7.66-7.31q-.25-4.39-.4-8.77a.77.77 0 0 0-.41-.69l-19.41-11.3q-.38-.22-.61.15L-23-.11a.87.87 0 0 0 .04.98l3.59 4.65a.61.61 0 0 0 1.01-.07l8.3-14.94a.51.51 0 0 1 .69-.19L3.71-2.12a.47.47 0 0 1 .02.8Q2.28-.35 0 0" clip-path="url(#m)" style="fill:#0c3298;fill-opacity:1;fill-rule:nonzero;stroke:none" transform="matrix(1.33333 0 0 -1.33333 564.298 333.338)"/><path d="M0 0q-.35-1.72-3.78-.99a.4.4 0 0 1-.48-.39v-.34q0-.23.22-.28l3.34-.81a.57.57 0 0 0-.1-1.12l-6-.3Q-5.71 2.51 0 0" clip-path="url(#n)" style="fill:#0c3298;fill-opacity:1;fill-rule:nonzero;stroke:none" transform="matrix(1.33333 0 0 -1.33333 880.365 331.098)"/><path d="M0 0c-7.16 1.63-8.9-4.7-11.33-9.13a.36.36 0 0 1 .53-.47L.3-1.47A.834.834 0 0 1 .479-.312.8.8 0 0 1 0 0m-47.7-39.78.59-3.12c.59-2.98 2.2-6.07 5.44-6.52 4.86-.66 9.94 7.21 11.76 10.97a.8.8 0 0 1-.93 1.12q-4.06-1.1-6.58-4.46a.7.7 0 0 0-1.25.29l-1.17 6.17a.98.98 0 0 0 .3.9l15.88 14.51a.8.8 0 0 1-.13 1.28q-1.44.84-1.29 1.99.88 1.74.84 3.69a.88.88 0 0 0 1.4.72l3.65-2.74q1.48-1.11 2.08.63l4.21 12.22c2.23 4.88 8.14 12.42 14.3 9.2C7 4.15 7.48-1.35 8.35-6.91a.78.78 0 0 0-.34-.76 255.3 255.3 0 0 1-33.59-26.61.69.69 0 0 1-.21-.69c2.61-11.78-17.36-34.76-23.51-14.1q-1.38 4.62 1.6 9.29" clip-path="url(#o)" style="display:inline;fill:#0c3298;fill-opacity:1;fill-rule:nonzero;stroke:none" transform="matrix(1.33333 0 0 -1.33333 532.045 356.845)"/><path d="m0 0 2.52-.84c-13.58-7.51-.44-16.62 7.73-17.99q.52-.09.49.44c-.18 3.27-3.61 5.14-5.86 6.95q-.43.35-.04.75c1.8 1.87 3.79 4.13 5.93 5.29 4.06 2.2 10.89 2.35 14.38-1.49 2.74-3.01-.01-6.89-3.15-7.99a.42.42 0 0 0-.538.26.44.44 0 0 0-.012.25c1.18 4.62-4.3 5.23-7.38 4.6q-.6-.12-.27-.64c1.86-2.94 4.68-5.89 2.07-9.61C8.86-30.03-16.18-17.58-7.27-5.13Q-4.01-.57 0 0" clip-path="url(#p)" style="fill:#0c3298;fill-opacity:1;fill-rule:nonzero;stroke:none" transform="matrix(1.33333 0 0 -1.33333 946.005 346.525)"/><path d="m0 0 1.62 4.51a.57.57 0 0 0 .68.36l3.24-.85a.57.57 0 0 1 .67.32L7.6 7.62a.57.57 0 0 0 .68.32l4.22-1.21a.57.57 0 0 0 .36-.78l-1.89-4.28a.57.57 0 0 0-.7-.31l-2.92.94a.57.57 0 0 1-.7-.31L5.17-1.34a.57.57 0 0 0-.65-.33L.41-.75A.57.57 0 0 0 0 0" clip-path="url(#q)" style="fill:#0c3298;fill-opacity:1;fill-rule:nonzero;stroke:none" transform="matrix(1.33333 0 0 -1.33333 568.445 361.538)"/><path d="m0 0-1.6-5.23a.37.37 0 0 0-.35-.26h-5.04a.37.37 0 0 0-.36.48L-5.71.46a.37.37 0 0 0 .37.27L-.33.47A.37.37 0 0 0 0 0" clip-path="url(#r)" style="fill:#0c3298;fill-opacity:1;fill-rule:nonzero;stroke:none" transform="matrix(1.33333 0 0 -1.33333 508.258 355.045)"/><path d="M0 0q.77 5.21-1.97 9.71a.608.608 0 0 0 .33.89l4.82 1.5q.57.18.83-.36 7.1-15.07-7.43-21.56a.46.46 0 0 0-.52.07L-16.06.27q-.43.36-.13.83l5.88 8.96a.75.75 0 0 0 1.34-.64c-1.16-3.58 5.74-7.8 8.26-9.71a.44.44 0 0 1 .62.083c.047.06.078.132.09.207" clip-path="url(#s)" style="fill:#0c3298;fill-opacity:1;fill-rule:nonzero;stroke:none" transform="matrix(1.33333 0 0 -1.33333 995.618 381.711)"/><path d="M0 0q.16.05.33.1l6.4-.87a1 1 0 0 0 .87-.97 26.7 26.7 0 0 0-2.05-10.85 1.22 1.22 0 0 0-.73-.69l-8.14-2.8a.8.8 0 0 0-.82.18L-21.25 1a.66.66 0 0 0-.1.83l12.98 20.54a.645.645 0 0 0 .81.25l5.54-2.5q.47-.21.17-.63l-9.87-14.03q-.3-.43.07-.8L-.2-6.83a.29.29 0 0 1 .5.22z" clip-path="url(#t)" style="fill:#0c3298;fill-opacity:1;fill-rule:nonzero;stroke:none" transform="matrix(1.33333 0 0 -1.33333 1027.551 403.751)"/><path d="m0 0-3.24-.26a.6.6 0 0 0-.62.4l-1.45 4.27a.6.6 0 0 0 .44.78l4.15.88a.6.6 0 0 0 .7-.41l1.13-3.54a.6.6 0 0 1 .67-.41l3.2.52a.6.6 0 0 0 .67-.43L6.9-2.76a.6.6 0 0 0-.424-.735q-.037-.01-.076-.015l-4.28-.5a.6.6 0 0 0-.64.44L.63-.44A.6.6 0 0 1 0 0" clip-path="url(#u)" style="fill:#0c3298;fill-opacity:1;fill-rule:nonzero;stroke:none" transform="matrix(1.33333 0 0 -1.33333 943.591 384.751)"/><path d="m0 0-.94 5.43a.37.37 0 0 0 .41.43l5.05-.63a.37.37 0 0 0 .32-.3L5.86-.85a.37.37 0 0 0-.44-.43L.29-.3A.37.37 0 0 0 0 0" clip-path="url(#v)" style="fill:#0c3298;fill-opacity:1;fill-rule:nonzero;stroke:none" transform="matrix(1.33333 0 0 -1.33333 1032.898 397.298)"/><path d="M0 0q-2.23.01-2.2.55l1.01 5.11a.55.55 0 0 0 .54.44l2.94.03a.856.856 0 0 1 .84.73l.55 3.53a.836.836 0 0 0 .82.71l4.22.02a.54.54 0 0 0 .53-.63L8.42 5.9q-.12-.67-.8-.7l-2.95-.13a.76.76 0 0 1-.72-.65L3.41.94Q3.34.47 2.86.41Z" clip-path="url(#w)" style="fill:#0c3298;fill-opacity:1;fill-rule:nonzero;stroke:none" transform="matrix(1.33333 0 0 -1.33333 494.885 432.845)"/><path d="M0 0q.41-.28-.21-.87l-12.12-13.74q-.43-.49-.9-.04l-2.37 2.28q-.52.5-.03 1.03L-3.18 2.33q.44.48.89.02z" clip-path="url(#x)" style="fill:#0c3298;fill-opacity:1;fill-rule:nonzero;stroke:none" transform="matrix(1.33333 0 0 -1.33333 516.485 840.578)"/><path d="m0 0 2.54-2.85a.92.92 0 0 1 1.299-.081l.001.001L8.47 1.2c2.104 1.873 3.027 4.271 2.062 5.357l-.002.003-.27.29c-.966 1.085-3.453.446-5.557-1.427L4.7 5.42.07 1.3A.92.92 0 0 1-.001.001zm-5.59 7.02 3.05-3.52a.34.34 0 0 1 .48-.03l4.49 3.89C4.212 8.905 4.945 10.98 4.07 12l-.3.35c-.884 1.015-3.045.586-4.83-.96L-5.55 7.5a.34.34 0 0 1-.041-.479zM1.95-8.53q-.4-.43-1.01.31L-10.55 6.39q-.32.4.06.74 4.29 3.9 8.6 7.5c3.91 3.25 9.99 4.07 9.93-3.1q-.01-1.15.99-.6c2.52 1.39 5.33-.99 5.85-3.14C16.25 2.1 5.57-5.36 1.95-8.53" clip-path="url(#y)" style="fill:#0c3298;fill-opacity:1;fill-rule:nonzero;stroke:none" transform="matrix(1.33333 0 0 -1.33333 986.031 864.045)"/><path d="M0 0c-5.7-3.16-13.32 5.37-15.18 9.76q-.26.61.29.95l1.73 1.09q.65.41.93-.31 1.97-5.05 6.47-7.86a2.88 2.88 0 0 1 1.95-.4q3.13.46 1.42 3.01a817 817 0 0 1-4.44 6.53c-2.59 3.77-1.39 8.65 3.62 8.48 4.77-.17 9.22-4.78 11.29-8.59a.566.566 0 0 0-.18-.74l-1.67-1.11q-.47-.32-.78.16c-1.67 2.56-4.8 6.81-8.39 6.52a1 1 0 0 1-.77-.49q-.93-1.65.28-3.29C-1.1 10.55 5.79 3.21 0 0" clip-path="url(#z)" style="fill:#0c3298;fill-opacity:1;fill-rule:nonzero;stroke:none" transform="matrix(1.33333 0 0 -1.33333 526.231 876.991)"/><path d="M0 0c3.16-5.31 7.06-14.05 12.83-10.67C20.97-5.9 12.22 2.09 8.81 6.7q-.3.4.09.73l2.34 1.91q.54.43.96-.11c2.02-2.6 7.37-8.66 8.15-12.97C21.59-10.6 11.5-17.81 5.41-14.5 2.09-12.7-1.43-5.87-3.47-2.45a.72.72 0 0 0 .22.97L-.8.18A.565.565 0 0 0-.016.025z" clip-path="url(#A)" style="fill:#0c3298;fill-opacity:1;fill-rule:nonzero;stroke:none" transform="matrix(1.33333 0 0 -1.33333 949.778 872.698)"/><path d="M0 0a.39.39 0 0 1-.71.22l-6.38-9.19a.605.605 0 0 0-.842-.153l-.018.013-2.46 1.87a.7.7 0 0 0-.14.96L-.22 7.97A2.06 2.06 0 0 0 3.5 6.76V-8.33q0-.63.58-.38l13.26 5.69a2.01 2.01 0 0 0 2.53-2.87l-8.98-15.32a.62.62 0 0 0-.852-.208l-.028.018-2.52 1.73a.535.535 0 0 0-.16.72l5.82 9.76a.3.3 0 0 1-.37.44L2.64-12.81a1.92 1.92 0 0 0-2.63 1.78z" clip-path="url(#B)" style="fill:#0c3298;fill-opacity:1;fill-rule:nonzero;stroke:none" transform="matrix(1.33333 0 0 -1.33333 542.685 876.045)"/><path d="m0 0 8.94 5.73a.76.76 0 0 0 1.04-.22l.97-1.45a.76.76 0 0 0-.22-1.07L-2.12-5.07a.76.76 0 0 0-1.049.235l-.021.035-8.97 16.24a.76.76 0 0 0 .21.98l2.12 1.6a.76.76 0 0 0 1.12-.24L-1.08.27A.76.76 0 0 1-.047-.029z" clip-path="url(#C)" style="fill:#0c3298;fill-opacity:1;fill-rule:nonzero;stroke:none" transform="matrix(1.33333 0 0 -1.33333 940.618 904.431)"/><path d="M0 0a.41.41 0 0 1 .05-.7l6.47-3.37a.41.41 0 0 1 .6.36l.08 8.06a.411.411 0 0 1-.65.34Zm-10.37-3.37q-.85.47-.04 1.01L6.05 8.75a2.87 2.87 0 0 0 3.987-.778 2.9 2.9 0 0 0 .493-1.562l.34-20.7q.01-.71-.62-.38l-3.01 1.58a.7.7 0 0 0-.37.61v4.01c.001.378-.201.728-.53.92l-9.09 5.14a.87.87 0 0 1-.93-.05l-3.16-2.28q-.45-.32-.92-.06z" clip-path="url(#D)" style="fill:#0c3298;fill-opacity:1;fill-rule:nonzero;stroke:none" transform="matrix(1.33333 0 0 -1.33333 575.191 903.471)"/><path d="M0 0c-4.5-.29-8.86 3.36-9.79 7.71-1.7 7.99 7.72 15.89 15.42 13.84q.65-.17.43-.81l-.59-1.73q-.21-.62-.87-.59c-5.72.27-12.21-3.82-10.21-10.15C-3.12.39 6.3 4.03 9.18 9.34a.88.88 0 0 0 1.03.42l2.04-.63a.623.623 0 0 0 .36-.9Q8.38.55 0 0" clip-path="url(#E)" style="fill:#0c3298;fill-opacity:1;fill-rule:nonzero;stroke:none" transform="matrix(1.33333 0 0 -1.33333 912.991 922.938)"/><path d="m0 0 2.631-1.171a.69.69 0 0 0 .35-.911l-7.59-17.047a.69.69 0 0 0-.911-.35l-2.631 1.172a.69.69 0 0 0-.35.911L-.911-.35A.69.69 0 0 0 0 0" clip-path="url(#F)" style="fill:#0c3298;fill-opacity:1;fill-rule:nonzero;stroke:none" transform="matrix(1.33333 0 0 -1.33333 605.018 901.312)"/><path d="M0 0q-.04-1.62-.86-2.63-.39-.4-.68-.2a1.6 1.6 0 0 1-.25.15 227 227 0 0 0-13.72 5.52q-.53.23-.31.77l7.08 17.33a.714.714 0 0 0 .92.4l2.67-1.02q.49-.19.3-.68l-5.56-14.45q-.35-.93.57-1.29Z" clip-path="url(#G)" style="fill:#0c3298;fill-opacity:1;fill-rule:nonzero;stroke:none" transform="matrix(1.33333 0 0 -1.33333 627.445 935.151)"/><path d="M0 0q-4.12 3.9-3.25 8.72c1.37 7.58 8.92 10.76 16.22 9.78a1.03 1.03 0 0 0 .78-1.49l-.79-1.57a.84.84 0 0 0-.9-.45C1.3 16.91-3.93 3.58 5.47 1.19q4.67-1.18 8.91 2.46.36.31.21.76l-1.62 5.05a.745.745 0 0 0 .42.91l2.35.98a.67.67 0 0 0 .877-.358l.013-.032 2.41-6.52q.2-.53-.17-.97C14.47-1.68 5.64-5.34 0 0" clip-path="url(#H)" style="fill:#0c3298;fill-opacity:1;fill-rule:nonzero;stroke:none" transform="matrix(1.33333 0 0 -1.33333 863.378 936.991)"/><path d="M0 0q-.46-.24-.7.7C.41 3.45 1.59 5.91.75 8.99a270 270 0 0 0-3.04 12.06q-.14.58.46.61c4.6.18 5.23-8.27 6.13-11.68a.42.42 0 0 1 .67-.22l7.94 6.6c.269.225.63.3.96.2l2.84-.83a.29.29 0 0 0 .11-.5 385 385 0 0 0-9.3-7.92C4.91 5.16 4.29 2.69 3.62-.4q-.12-.55-.67-.55Q1.46-.94 0 0" clip-path="url(#I)" style="fill:#0c3298;fill-opacity:1;fill-rule:nonzero;stroke:none" transform="matrix(1.33333 0 0 -1.33333 635.685 942.325)"/><path d="m0 0 2.52-11.75q.13-.58-.46-.72l-2.98-.7q-.63-.14-.76.49L-5.19 4.65a2.03 2.03 0 0 0 3.13 2.08l13.57-9.18a.42.42 0 0 1 .64.46L9.04 9.56q-.14.5.36.65l2.86.85a.545.545 0 0 0 .677-.369l.003-.011 4.91-17.7q.23-.83-.46-1.35c-.98-.75-2.49-.81-3.62-.1A403 403 0 0 0 .44.29Q-.16.71 0 0" clip-path="url(#J)" style="fill:#0c3298;fill-opacity:1;fill-rule:nonzero;stroke:none" transform="matrix(1.33333 0 0 -1.33333 833.245 935.085)"/><path d="M0 0q.87-.65.08-1.99-.96-1.63-2.31-.64c-1.56 1.11-8.65 3.81-9.33.53a2.41 2.41 0 0 1 1.31-2.66 108 108 0 0 0 6.72-3.58c5.32-3.1 2.98-9.51-2.87-9.69q-6.89-.22-12.07 4.14a.585.585 0 0 0-.063.825l.013.015 1.53 1.67q.37.4.77.04c2.1-1.91 8.24-5.24 10.92-2.84.782.699.854 1.898.16 2.677a1.9 1.9 0 0 1-.49.393c-3.61 2.02-14.42 6.04-8.56 12.13C-10.98 4.35-3.81 2.3 0 0" clip-path="url(#K)" style="fill:#0c3298;fill-opacity:1;fill-rule:nonzero;stroke:none" transform="matrix(1.33333 0 0 -1.33333 689.965 930.071)"/><path d="m0 0 3.23.57a.42.42 0 0 0 .487-.341l3.344-18.968a.42.42 0 0 0-.341-.486l-3.23-.57a.42.42 0 0 0-.486.341L-.341-.487A.42.42 0 0 0 0 0" clip-path="url(#L)" style="fill:#0c3298;fill-opacity:1;fill-rule:nonzero;stroke:none" transform="matrix(1.33333 0 0 -1.33333 813.684 928.988)"/><path d="m0 0-.83-6.24a.81.81 0 0 1 .69-.91l3.83-.51c2.903-.387 5.476.938 5.75 2.96l.07.52C9.781-2.155 7.646-.199 4.74.19L.91.7A.81.81 0 0 1 0 .004zm-2.94 4.64c5.53-.84 15.04-.86 16.45-7.43 1.86-8.68-9.04-8.76-14.2-7.38q-.57.15-.67-.43l-.77-4.72a.635.635 0 0 0-.7-.53l-3.04.35a.595.595 0 0 0-.523.659l.003.021L-4.03.66q.3 2.82 1.09 3.98" clip-path="url(#M)" style="fill:#0c3298;fill-opacity:1;fill-rule:nonzero;stroke:none" transform="matrix(1.33333 0 0 -1.33333 702.005 936.285)"/><path d="m0 0-5.86-.55a.61.61 0 0 0-.65.48l-.4 1.85a.61.61 0 0 0 .46.73l.06.01 16.95 2.22a.61.61 0 0 0 .68-.49l.34-1.8a.61.61 0 0 0-.492-.709l-.008-.001L5.14.72a.61.61 0 0 1-.5-.68l2.1-15.58a.61.61 0 0 0-.521-.688L6.2-16.23l-2.99-.33a.61.61 0 0 0-.67.53L.66-.54A.61.61 0 0 1 0 0" clip-path="url(#N)" style="fill:#0c3298;fill-opacity:1;fill-rule:nonzero;stroke:none" transform="matrix(1.33333 0 0 -1.33333 794.618 936.325)"/><path d="M0 0c-.007 3.855-3.442 6.974-7.672 6.967-4.231-.008-7.655-3.139-7.648-6.994s3.442-6.974 7.672-6.966C-3.417-6.986.007-3.855 0 0m4.146-.52c-.28-5.731-5.784-10.119-12.294-9.801-6.509.318-11.558 5.223-11.278 10.954s5.784 10.12 12.293 9.801C-.623 10.116 4.426 5.212 4.146-.52" clip-path="url(#O)" style="fill:#0c3298;fill-opacity:1;fill-rule:nonzero;stroke:none" transform="matrix(1.33333 0 0 -1.33333 749.391 947.827)"/><path d="m0 0 .43-5.78a1.17 1.17 0 0 1 1.25-1.08l3 .22c3.228.235 5.717 2.19 5.56 4.366v.004l-.02.24C10.06.146 7.315 1.717 4.087 1.481L4.08 1.48l-3-.22A1.17 1.17 0 0 1-.001.007zm5.9-9.97q-2.31.72-4.86-.25-.5-.19-.5-.73v-4.39q0-.63-.62-.63h-2.94q-.56 0-.57.56l-.34 18.96q-.01.54.52.59 7.26.67 10.68.37c7.1-.6 9.97-9.21 3.48-12.9a.498.498 0 0 1-.12-.77l4.67-5.1a.39.39 0 0 0-.23-.65c-6.68-.99-4.91 3.6-9.17 4.94" clip-path="url(#P)" style="fill:#0c3298;fill-opacity:1;fill-rule:nonzero;stroke:none" transform="matrix(1.33333 0 0 -1.33333 765.631 940.071)"/><path d="m0 0-3.78.03a.37.37 0 0 0-.37.37v2.73c0 .204.166.37.37.37l7.75.06a.37.37 0 0 0 .37-.37l.03-20.69a.37.37 0 0 0-.34-.37l-3.31-.32a.37.37 0 0 0-.408.328l-.002.042L.37-.37A.37.37 0 0 1 0 0" clip-path="url(#Q)" style="fill:#0c3298;fill-opacity:1;fill-rule:nonzero;stroke:none" transform="matrix(1.33333 0 0 -1.33333 710.551 1001.725)"/><path d="M0 0c-.028 1.977-1.948 3.553-4.29 3.52S-8.507 1.859-8.479-.118s1.948-3.554 4.289-3.521C-1.848-3.606.028-1.977 0 0m.05-5.419q-3.159-1.78-6.54-1.25c-11.14 1.76-5 16.89 5.13 13.07 11.44-4.32 6.83-26.68-9.34-20.95q-.69.249-.43.93l.76 1.99a.656.656 0 0 0 .81.38c4.92-1.58 9.66-.62 10.18 5.46q.07.72-.57.37" clip-path="url(#R)" style="fill:#0c3298;fill-opacity:1;fill-rule:nonzero;stroke:none" transform="matrix(1.33333 0 0 -1.33333 737.777 1005.672)"/><path d="m0 0 8.54-.32q.53-.02.64-.54l.4-1.82a.94.94 0 0 0-.92-1.14l-14.05.06A1.649 1.649 0 0 0-6.52-.91C-3.43 2 2.68 6.78 4.09 10.32c2.08 5.19-5.56 4.49-7.99 2.8a1.26 1.26 0 0 0-.92-.22q-1.48.21-2.2 1.61-.25.49.18.84c4.07 3.31 12.97 4.77 15.06-1.58C9.95 8.5 3.4 3.4-.15.45A.263.263 0 0 1-.18.086.24.24 0 0 1 0 0" clip-path="url(#S)" style="fill:#0c3298;fill-opacity:1;fill-rule:nonzero;stroke:none" transform="matrix(1.33333 0 0 -1.33333 755.991 1020.925)"/><path d="M0 0q-.04-1.28-2.1-1.22-1.64.04-1.68-1.6l-.06-2.88q-.02-.63-.64-.56l-3 .35a.6.6 0 0 0-.52.65l.27 2.98a.99.99 0 0 1-.99 1.08h-9.81a1.58 1.58 0 0 0-1.26 2.54l10.76 14.24 3.49-.11q.82-.03.33-.68l-9.11-12.02a.39.39 0 0 1 .33-.63l5.58.22a.59.59 0 0 1 .57.56L-7.68 6q.02.55.58.55h2.5q.69 0 .67-.69l-.06-2.95a.59.59 0 0 1 .57-.61H-1q.44 0 .54-.43z" clip-path="url(#T)" style="fill:#0c3298;fill-opacity:1;fill-rule:nonzero;stroke:none" transform="matrix(1.33333 0 0 -1.33333 796.738 1017.765)"/><path d="M0 0c-7.66-6.16-31.23 13.39-37.32 18.28C-56.78 33.87-71 50.15-83.64 71.56c-5.21 8.83-8.11 16.58-8.2 26.17-.17 18.36 38.41-8.9 42.73-12.21 19.1-14.65 33.7-32.95 43.81-54.9C-2.25 24 5.86 4.7 0 0" clip-path="url(#U)" style="fill:#0c3298;fill-opacity:1;fill-rule:nonzero;stroke:none" transform="matrix(1.33333 0 0 -1.33333 1358.511 279.365)"/><path d="M0 0c-2.01-9.41-5.59-20.57-16.32-22.35-10.06-1.66-23.7 6.32-31.98 12.61-24.09 18.3-46.35 39.51-63.91 63.83-4.41 6.12-32.54 50.12-2.01 40.75 20.43-6.28 37.66-19.65 51.36-30.41 5.25-4.12 10.78-7.65 16.6-10.58 1.29-.65 2.86-.29 3.74.85 4.17 5.36 3.02 13.52 2.64 20.16-.48 8.48-1.88 16.91-2.63 25.38-.85 9.58-1.8 19.15-2.87 28.71-.7 6.28.92 14.35 9.36 13.15 5.1-.72 9.44-5.74 12.3-10.03C-12.49 115.2-3.25 98.12.99 78.31 6.71 51.6 5.67 26.6 0 0" clip-path="url(#V)" style="fill:#0c3298;fill-opacity:1;fill-rule:nonzero;stroke:none" transform="matrix(1.33333 0 0 -1.33333 1427.738 381.711)"/><path d="M0 0c-.93-16.96-1.58-33.98-5.74-49.26-4.3-15.83-11.62-30.24-21.95-43.25-2.4-3.02-3.76-5.74-7.77-6.91-6.87-2.01-18.18 11.88-22.13 16.53-18.99 22.38-38.64 47.04-51.33 72.92-3.92 7.98-10.05 28.71-3.31 36.51.21.25.48.41.81.46 7.61 1.3 20.39-7.48 26.39-11.28 1.98-1.25 4.57-2.84 7.76-4.77 7.66-4.63 14.41-9.55 20.26-14.77 4.19-3.74 6.55-.98 8.45 2.96 6.11 12.69 9.27 26 13.15 39.44 2.66 9.22 7.31 18.9 17.78 8.55C-4.84 34.5 1.03 18.79 0 0" clip-path="url(#W)" style="fill:#0c3298;fill-opacity:1;fill-rule:nonzero;stroke:none" transform="matrix(1.33333 0 0 -1.33333 1485.325 440.351)"/><path d="m0 0-1.62-6.04c-8.79-23.58-25.14-45.88-41.72-64.56-4.88-5.5-12.79-10.2-18.47-3.24-13.21 16.16-23.05 37.51-29.21 57.37-5.41 17.44-9.73 35.41-10.6 52.78-.3 5.99 2.24 19.86 7.98 23.57 11.63 7.52 37.02-31.47 41.09-39.56 1.11-2.21 2.28-4.19 3.5-5.95a3.225 3.225 0 0 1 4.48-.82c.02.02.03.03.05.04 2.17 1.57 4.18 3.43 5.84 5.73C-31.47 29.39-25.99 41-16.74 49.38c3.77 3.41 7.63 5.54 12.09 2.79C6.45 45.31 1.43 9.21 0 0" clip-path="url(#X)" style="fill:#0c3298;fill-opacity:1;fill-rule:nonzero;stroke:none" transform="matrix(1.33333 0 0 -1.33333 1498.965 631.685)"/><path d="M0 0c-8.06-7.27-16.91-14.66-26.56-22.17-4.7-3.65-9.54-6.64-14.51-8.95C-69.36-44.3-75.09 2.66-77.25 18.67c-3.5 25.92-4.69 52-2.54 78.12.67 8.01 3.16 30.78 10.98 34.86 4.75 2.48 10.76-2.98 13.54-6.55 14.2-18.22 19.79-39.61 19.83-62.75.02-11.83 6.57-10.32 12.71-3.86 4.19 4.4 68.78 74.45 69.88 43.9C48.58 62.77 28.71 25.91 0 0" clip-path="url(#Y)" style="fill:#0c3298;fill-opacity:1;fill-rule:nonzero;stroke:none" transform="matrix(1.33333 0 0 -1.33333 1445.138 861.511)"/><path d="M0 0c-7.04-20.68-18.41-35.27-34.81-49.19-29.43-24.99-60.96-43.6-95.48-60.64-6.23-3.08-16.69-8.05-23.06-6.53-7.18 1.7-7.59 11.42-7.5 17.56.26 17.49.88 35.68 4.91 52.75a433 433 0 0 0 17.65 57c3.94 10.18 17.08 47.9 28.57 50.14 8.54 1.66 12.99-19.55 14.43-26.09 2.61-11.84 3.59-23.86 2.93-36.05-.3-5.53-1.01-14.57.67-17.78 3.18-6.12 12.57 2.18 15.58 4.72Q-62.13-2.305-45.72 5.6C-36.96 9.82 10.7 31.45 0 0" clip-path="url(#Z)" style="fill:#0c3298;fill-opacity:1;fill-rule:nonzero;stroke:none" transform="matrix(1.33333 0 0 -1.33333 1462.125 929.618)"/><path d="M0 0c-13.75-15.01-29.91-25.57-48.47-31.69-27.72-9.15-54.23-16.39-79.52-21.74-20.46-4.33-41.85-5.12-62.76-4.81-2.9.04-10.46.24-13.96 2.53-3.44 2.27-3.93 9.53-3.56 13.08q.345 3.33 2.79 7.47c19.98 33.96 49.14 65.03 81.43 88.31 14.29 10.31 28.59 17.8 46.75 18.71 12.16.62-8.7-29.15-10.5-31.45-10.12-12.96-20.26-25.91-30.41-38.85-.98-1.24-1.81-2.89-2.59-4.25-.47-.81-.2-1.84.61-2.31.28-.17.6-.25.93-.23 4.5.2 8.57.89 13.27 2.2 24.64 6.9 44.8 10.01 70.18 13.46 11.85 1.61 23.03 2.45 33.53 2.52l5.97-.33C9.85 10.48 2.34 2.55 0 0" clip-path="url(#aa)" style="fill:#0c3298;fill-opacity:1;fill-rule:nonzero;stroke:none" transform="matrix(1.33333 0 0 -1.33333 1325.351 1115.178)"/><path d="M0 0a197 197 0 0 0-19.55-29.45c-8.91-11.12-20.19-21.29-31.39-30.47-3.23-2.65-35.72-28.38-36.99-13.04-.47 5.76.41 10.52 2.51 16.28 8.84 24.17 22.95 44.46 42.33 60.89 10.91 9.25 21.87 16.67 34.79 21.58C13.34 34.03 4.33 7.99 0 0" clip-path="url(#ab)" style="fill:#0c3298;fill-opacity:1;fill-rule:nonzero;stroke:none" transform="matrix(1.33333 0 0 -1.33333 264.765 177.325)"/><path d="M0 0c-13.31-23.31-32.95-43.84-52.98-61.48-14.51-12.79-54.86-50.42-66.81-12.58-1.72 5.43-3.43 14.78-5.12 28.07-3.56 27.84-.07 58.97 12.55 84.32 4.18 8.4 16.25 33.79 26.74 35.66 9.82 1.74 10.38-8.62 9.65-15.05-2.07-18.17-3.82-36.36-5.23-54.58-.26-3.32-1.89-23.14 7.27-18.1C-61.34-6.82-51.58 1.6-37.15 11.77c8.58 6.05 17.81 10.86 27.68 14.42C15.92 35.36 5.24 9.17 0 0" clip-path="url(#ac)" style="fill:#0c3298;fill-opacity:1;fill-rule:nonzero;stroke:none" transform="matrix(1.33333 0 0 -1.33333 242.031 290.951)"/><path d="M0 0c-13.42-27.49-35.5-54.89-54.63-76.61-4.02-4.57-13.47-15.43-20.08-11.76-3.13 1.74-4.57 4.44-6.53 6.9-17.78 22.24-24.59 46.53-26.02 74.41-.99 9.01-1.35 18.09-1.1 27.22.38 13.57 7.36 27 16.57 36.65 13.56 14.2 18.17-4.68 20.54-13.87 1.93-7.52 9.09-36.18 15.62-38.25.33-.11.64-.08.95.07 1.86.89 3.87 2.36 6.02 4.41 8.1 7.72 19.46 13.47 32.96 21.53 4.99 2.98 20.84 13.41 21.88 1.02C7.13 20.32 5.22 10.69 0 0" clip-path="url(#ad)" style="fill:#0c3298;fill-opacity:1;fill-rule:nonzero;stroke:none" transform="matrix(1.33333 0 0 -1.33333 167.538 454.231)"/><path d="M0 0c-3.73-27.52-12.05-53.63-24.97-78.34-3.87-7.41-12.77-23.28-19.22-24.76-5.06-1.16-9.88 3.36-13.16 6.96a271 271 0 0 0-28.98 38.08c-7.95 12.61-14.18 26.14-15.53 40.99-1.03 11.29-1.35 20.44-.96 27.43.46 8.55 6.27 23.97 17.73 13.96 9.01-7.87 14.07-17.62 21.05-28.35 2.19-3.36 9.4-13.49 13.3-5.96 7.79 15.06 18.93 32.42 33.57 42.18 5.37 3.58 9.98 4.38 13.31-2.12C1.32 19.93 1.63 12.02 0 0" clip-path="url(#ae)" style="fill:#0c3298;fill-opacity:1;fill-rule:nonzero;stroke:none" transform="matrix(1.33333 0 0 -1.33333 143.485 597.165)"/><path d="M0 0c.06-10.72-.13-21.44-.57-32.17a1.1 1.1 0 0 0-.13-.48c-.04-.07-.09-.14-.14-.21A.76.76 0 0 1-1-33.3l-.51-12.14c.01-.07.01-.15.01-.23-1.51-16.39-3.31-33.17-7.83-49-5.87-20.58-19.41-30.72-39.41-16.23-43.59 31.57-80.6 70.63-79.51 128.4.05 2.64.73 4.94 2.06 6.89.18.26.45.46.75.55 7.44 2.23 18.76-5.91 24.38-10.48 16.51-13.42 30.19-28.03 44.33-42.2 8.37-8.39 11.38-.25 11.24 7.16-.4 20.96 5.24 40.1 16.93 57.41 3.01 4.47 6.14 7.67 9.38 9.6C-3.72 55.67-1 12.2-.72 5.51Z" clip-path="url(#af)" style="fill:#0c3298;fill-opacity:1;fill-rule:nonzero;stroke:none" transform="matrix(1.33333 0 0 -1.33333 171.031 748.711)"/><path d="M0 0c-.04-3.3-.97-9.02-3.84-11.43-4.15-3.47-7.91-1.88-12.57-1.03-1.45.27-2.6.58-3.46.95C-59.23 5.45-96.74 28.61-128.6 56.26c-14.43 12.51-25.05 26.83-31.63 44.5-10.16 27.25 18.61 18.36 30.58 14.11 15.29-5.44 28.01-12.94 40.86-22.74 4.45-3.4 21.37-19.83 20.71-1.63-.24 6.49-.46 12.99-.66 19.49-.28 9.11 4.31 51.58 15.78 53.91 17.1 3.46 43.63-88.57 47.09-102.18C-.82 41.85.31 20.44 0 0" clip-path="url(#ag)" style="fill:#0c3298;fill-opacity:1;fill-rule:nonzero;stroke:none" transform="matrix(1.33333 0 0 -1.33333 260.351 1067.031)"/><path d="M0 0c-.71-8.38-5.88-9.66-13.91-9.98-20.01-.81-40.44.08-60.17 3.59C-99-1.96-124.59 5.4-147.9 12.57c-26.17 8.05-46.48 18.91-64.07 39.92-1.63 1.94-4.24 8.06.81 8.36 6.44.39 13.66.23 21.67-.48 18.87-1.66 37.68-4.54 56.13-7.8q14.505-2.565 23.13-5.34c5.08-1.63 17.25-5.58 22.19-4.19.33.09.59.33.72.64.4 1.01.24 2-.48 2.96-11.94 15.86-26.42 33.14-36.11 46.89-4.85 6.88-10.71 16.69-10.57 24.17.05 2.49 2.5 2.32 4.58 2.18 12.29-.79 23.26-4.18 32.91-10.18 37.76-23.49 72.73-59.28 94.97-97.86C.39 7.66.38 4.63 0 0" clip-path="url(#ah)" style="fill:#0c3298;fill-opacity:1;fill-rule:nonzero;stroke:none" transform="matrix(1.33333 0 0 -1.33333 460.325 1179.311)"/><path d="m0 0-.61-1.23C-24.08-38.95-64.66-51.69-107.2-50.88c-2.02.03-4.18-.65-6.4-.68-15.12.65-30.1 2.78-44.95 6.38-2.6.63-7.45 1.36-14.55 2.17-4.37.77-8.6 1.31-12.7 1.62a370 370 0 0 1-71.23-1.57q-2.055-.195-2.49-.78c15.37-16.28 31.55-29.49 48.54-39.62 7.32-4.37 18.88-10.26 26.51-15.68 16.11-11.44 28.81-25.96 38.1-43.57 2.37-4.5 3.94-9.55 5.65-14.39.13-.35 0-.53-.37-.54l-69.73-1.22c-.45-.01-.75.2-.92.62-8.21 21.21-20.81 38-36.94 53.58a615 615 0 0 1-60.37 51.27c-.26.19-.52.2-.78.01a521.4 521.4 0 0 1-68.79-59.32c-12.88-13.23-22.64-28.35-29.29-45.35-.19-.48-.65-.79-1.16-.78l-69.93 1.16c-.06.32-.07.52-.02.61.22.1.37.28.44.54 6.3 21.69 22.4 41.58 40.15 55.05 9.09 6.89 22.95 13.85 32.07 19.5q24.795 15.375 46.35 38.19-.315.615-.81.48c-29.23 3.45-58.32 4.05-87.53.08-16.25-2.21-32.4-6.95-48.41-7.86-15.87-.89-31.89-.08-48.08 2.45l-4.92 1.05c-20.61 3.8-38.11 12.24-52.49 25.32-6.19 5.63-12.13 13.18-17.82 22.66a.16.16 0 0 0 .05.21c.04.02.09.03.13.01 21.4-7.35 42.07-11.93 62.02-13.74 39.88-3.62 77.43.28 118.57 6.35 7.82 1.15 16.82 1.56 27 1.22 30.87-1.04 59.99-6.13 99.82-11.88 5.34-.77 11.1 1.44 17.25 1.77 1.66.09 3.12.23 4.37.43 26.05 4.09 52.16 7.56 78.49 9.4 14.07.99 25.25 0 41.13-2.29 37.12-5.34 76.65-8.85 114.43-4.4C-38.76-10.29-20.42-6.16-1.8-.05l1.47.44Q.285.57 0 0" clip-path="url(#ai)" style="fill:#0c3298;fill-opacity:1;fill-rule:nonzero;stroke:none" transform="matrix(1.33333 0 0 -1.33333 1168.085 1202.791)"/></svg>