<svg xmlns="http://www.w3.org/2000/svg" viewBox="0 0 1199 1329"><path fill="#14276C" d="M1044 0h32l-1 17-4 35-4 39-7 51-5 34-7 45-4 21-5 30-13 65-6 28-5 22-5 21-8 34-2 9h-2l-3-9-10-28-10-23-12-24-15-25-16-23-11-14-11-13-14-15-16-16-8-7-13-11-16-12-16-11-21-13-16-9-28-13-14-6-34-11-31-8-47-7-13-1h-52l-33 4-29 5-34 9-29 10-25 11-16 8-20 11-19 12-18 13-16 13-11 9-13 12-15 15-7 8-10 12-13 17-10 14-14 22-7 12-8 16-10 22-9 24-10 33-8 38-3 29-1 34-3-4-4-16-5-27-5-24-8-39-4-24-5-26-6-37-12-78-3-26-5-37-3-31 3-3 20-8 34-12 20-7 50-17 61-19 59-17 26-7 46-12 41-10 34-8 41-9 37-8 26-5 64-12 63-10 55-8 81-10 42-4 53-5z"/><path fill="#C01A1B" d="M586 246h21l28 2 18 2 2 2v352l-6 9-5 4-9 4-13 3-21 2-119 1v292l-5-1-26-10-25-12-17-9-21-13-16-12-10-8-13-11-7-7-8-7-9-9-7-8-9-10-12-16-1-143V532l2-22 5-29 5-19 8-24 8-18 8-16 11-19 14-20 9-11 12-14 16-16 8-7 15-12 16-11 20-12 16-8 18-8 27-9 23-6 22-3zm-90 149-13 4-13 7-11 10-8 14-3 7-2 12v9l2 11 8 16 9 10 7 6 15 7 7 2h22l19-8 10-8 7-8 8-16 2-9v-17l-4-13-6-11-9-10-9-7-11-5-10-3z"/><path fill="#C01A1B" d="m157 588 5 5 15 28 12 21 15 27 9 16 26 46 15 27 14 23 12 17 11 14 12 14 11 12 16 16 8 7 14 12 18 13 21 14 18 10 19 10 23 10 25 9 23 7 32 7 22 3 28 2h34l28-2 27-4 35-8 33-11 24-10 16-8 21-11 22-14 15-10 17-11 30-20-1 5-9 16-10 19-8 16-18 35-12 22-7 12-6 11-12 21-12 20-13 21-22 34-19 28-12 17-21 28-13 17-11 14-14 17-12 14-9 10-7 8-11 12-14 15-30 30-8 7-10 9-11 9-16 12-4 1-10-8-10-9-8-7-15-14-20-20-7-8-11-12-8-10-13-16-10-13-13-18-12-17-11-17-12-19-10-17-12-21-13-24-15-29-17-35-9-20-13-31-14-34-10-26-16-44-13-38-9-28-12-40-5-15-21-70-16-52-9-27z"/><path fill="#C01A1B" d="M813 495h83l2 13 1 17v45l-2 22-4 20-6 23-9 25-12 26-11 19-13 19-11 14-9 10-7 8-11 11-11 9-12 10-17 12-22 13-25 12-15 6-26 8-34 7-17 2-16 1h-23l-27-2-36-7-2-1-1-127v-43l1-1 93-2 21-3 21-7 13-8 11-10 7-10 5-14 2-11V496zM1106 62l8 6 13 12 8 7 11 10 8 7 12 11 8 7 12 11 10 9 3 3-2 11-5 28-10 50-9 40-8 35-11 43-8 30-9 32-16 54-23 70-16 46-11 29-6 17-18 45-10 24-15 35-16 35-13 28-19 39-12 23-15 28-26 46-16 27-12 19-10 16-16 24-17 25-8 11-13 18-12 16-14 18-13 16-9 11-12 14-9 10-9 11-15 16-9 9-7 8-22 22-8 7-22 22-5 2 4-6 11-13 12-15 12-17 13-18 14-20 24-36 16-25 11-18 14-23 13-22 12-21 6-10 6-11 13-25 7-12 8-16 9-17 22-46 8-16 11-24 12-27 14-33 14-34 12-31 9-24 7-18 10-29 16-48 14-46 15-52 9-34 10-41 9-40 8-38 9-48 6-37 4-27 7-51 8-77 3-39v-7z"/><path fill="#15276C" d="m73 239 2 4v22l2 65 3 47 8 76 10 66 9 50 10 47 7 29 11 43 12 41 9 29 13 40 11 30 7 19 11 28 9 23 4 8 4 10 11 25 8 18 6 12 11 23 16 32 10 18 13 24 12 21 16 26 15 23 12 17 5 7-1 2-16-16-7-8-11-12-12-14-22-28-15-20-14-20-16-24-9-14-14-23-12-21-9-16-15-29-9-17-11-23-9-19-13-30-12-29-12-31-6-16-15-43-6-18-8-25-9-30-10-36-8-30-9-37-10-46-8-40-6-32-4-26-6-38-6-47v-10l14-10 16-13 12-9 18-14z"/><path fill="#C01A1B" d="m693 262 7 1 20 8 25 12 23 14 13 10 10 8 14 12 19 19 9 11 13 17 12 19 12 22 9 20 7 18 1 3-1 1H694l-1-167zM92 800l3 1 6 16 9 22 9 21 8 18 7 16 16 32 16 29 6 11 10 17 13 22 9 14 14 22 14 20 13 18 12 16 13 17 8 10 13 16 11 13 12 14 10 11 7 8 9 10 9 9 7 8 27 27 8 7 7 7 11 9 14 13 11 9 13 11 17 13 18 13 10 8-2 1-22-11-17-10-20-12-33-22-19-14-14-11-26-22-12-11-8-7-16-15-27-27-7-8-15-16-7-8-24-28-8-10-11-14-16-21-14-19-12-17-15-22-12-18-14-22-14-23-10-17-12-21-13-23-8-16-5-9 2-5 6-9 13-21 8-13z"/></svg>