<svg xmlns="http://www.w3.org/2000/svg" xml:space="preserve" width="258.667" height="258.667"><path d="m889.938 205.223-81.465-100.828-68.715 102.96S163.84 254.223 162.066 659.68c-.644 146.984 40.379 193.847 40.379 193.847-60.566 24.145-85.007 71.368-85.007 71.368l57.382 57.515-25.504 30.89 43.563 29.82c-11.883 10.65-17 38.34-17 38.34 148.766 93.74 139.199 247.11 139.199 247.11 0 183.2-159.387 360.01-159.387 360.01l66.942 78.82c236.957-91.6 400.594 67.1 400.594 67.1 146-107.57 343.089-97.35 343.089-97.35s197.214-10.22 343.214 97.35c0 0 163.64-158.7 400.6-67.1l66.93-78.82s-159.38-176.81-159.38-360.01c0 0-9.56-153.37 139.2-247.11 0 0-.42-22.01-17-38.34l43.56-29.82-25.5-30.89 57.38-57.515s-24.44-47.223-85.01-71.368c0 0 41.02-46.863 40.38-193.847C1768.92 254.223 1193 207.355 1193 207.355l-68.71-102.96-81.47 100.828-76.504-100.828z" style="fill:#cbb52e;fill-opacity:1;fill-rule:evenodd;stroke:none" transform="matrix(.13333 0 0 -.13333 0 258.667)"/><path d="m889.938 205.223-81.465-100.828-68.715 102.96S163.84 254.223 162.066 659.68c-.644 146.984 40.379 193.847 40.379 193.847-60.566 24.145-85.007 71.368-85.007 71.368l57.382 57.515-25.504 30.89 43.563 29.82c-11.883 10.65-17 38.34-17 38.34 148.766 93.74 139.199 247.11 139.199 247.11 0 183.2-159.387 360.01-159.387 360.01l66.942 78.82c236.957-91.6 400.594 67.1 400.594 67.1 146-107.57 343.089-97.35 343.089-97.35s197.214-10.22 343.214 97.35c0 0 163.64-158.7 400.6-67.1l66.93-78.82s-159.38-176.81-159.38-360.01c0 0-9.56-153.37 139.2-247.11 0 0-.42-22.01-17-38.34l43.56-29.82-25.5-30.89 57.38-57.515s-24.44-47.223-85.01-71.368c0 0 41.02-46.863 40.38-193.847C1768.92 254.223 1193 207.355 1193 207.355l-68.71-102.96-81.47 100.828-76.504-100.828z" style="fill:none;stroke:#231f20;stroke-width:20.00130081;stroke-linecap:butt;stroke-linejoin:miter;stroke-miterlimit:2.61310005;stroke-dasharray:none;stroke-opacity:1" transform="matrix(.13333 0 0 -.13333 0 258.667)"/><path d="M965.961 1667.28s-192.219-10.65-339.391 93.73c0 0-162.218-134.21-370.488-75.26 0 0 125.031-169.72 125.031-356.12 0 0-1.062-107.57-43.562-162.96h629.047z" style="fill:#fff;fill-opacity:1;fill-rule:evenodd;stroke:none" transform="matrix(.13333 0 0 -.13333 0 258.667)"/><path d="M972.266 1306.21v228.99H337.91s48.875-123.55 42.5-228.99z" style="fill:#bb1f1c;fill-opacity:1;fill-rule:evenodd;stroke:none" transform="matrix(.13333 0 0 -.13333 0 258.667)"/><path d="M777.816 1691.78c-81.82 25.56-151.949 68.17-151.949 68.17l-76.504-51.13v-542.15h228.453z" style="fill:#bb1f1c;fill-opacity:1;fill-rule:evenodd;stroke:none" transform="matrix(.13333 0 0 -.13333 0 258.667)"/><path d="M233.082 672.461c-.578 138.465 49.945 193.848 49.945 193.848H1648.07s50.53-55.383 49.94-193.848c-1.77-419.66-732.119-402.621-732.119-402.621s-731.036-17.039-732.809 402.621" style="fill:#0e1c3e;fill-opacity:1;fill-rule:evenodd;stroke:none" transform="matrix(.13333 0 0 -.13333 0 258.667)"/><path d="M1088.45 271.262v595.047H844.758V271.262zm442.03 127.812v467.235h-243.69V305.344c180.64 35.508 243.69 93.73 243.69 93.73m-884.07-93.73v560.965H402.723v-475.75s143.8-76.692 243.687-85.215" style="fill:#bb1f1c;fill-opacity:1;fill-rule:evenodd;stroke:none" transform="matrix(.13333 0 0 -.13333 0 258.667)"/><path d="M966.527 1667.28s192.223-10.65 339.393 93.73c0 0 162.22-134.21 370.49-75.26 0 0-125.03-169.72-125.03-356.12 0 0 1.05-107.57 43.56-162.96H965.891z" style="fill:#cbb52e;fill-opacity:1;fill-rule:evenodd;stroke:none" transform="matrix(.13333 0 0 -.13333 0 258.667)"/><path d="M1471.68 1681.13v-516.59h68v508.07zm-144.51 63.91v-580.5h68.01v542.15zm-144.51-45.17v-535.33h68V1728zm-144.52-28.97v-506.36h68.01v514.88z" style="fill:#bb1f1c;fill-opacity:1;fill-rule:evenodd;stroke:none" transform="matrix(.13333 0 0 -.13333 0 258.667)"/><path d="M1594.94 1165.25c-45.33 68.88-42.51 165.45-42.51 165.45 0 188.89 126.1 355.75 126.1 355.75-212.52-60.35-372.61 74.56-372.61 74.56-150.18-103.67-339.385-93.73-339.385-93.73s-189.847-9.94-340.023 93.73c0 0-160.098-134.91-372.617-74.56 0 0 126.093-166.86 126.093-355.75 0 0 2.836-96.57-42.504-165.45m0 0H1594.94M233.082 672.461c-.578 138.465 49.945 193.848 49.945 193.848m0 0H1648.07m0 0s50.53-55.383 49.94-193.848c-1.77-419.66-732.119-402.621-732.119-402.621s-731.036-17.039-732.809 402.621" style="fill:none;stroke:#231f20;stroke-width:10.00059986;stroke-linecap:butt;stroke-linejoin:miter;stroke-miterlimit:2.61310005;stroke-dasharray:none;stroke-opacity:1" transform="matrix(.13333 0 0 -.13333 0 258.667)"/><path d="M1216.66 1109.15h177.45s51.01 0 51.01-41.53v-26.63s-3.73-19.18-24.44-24.5l8.5-.21c21.25-7.24 24.44-25.354 24.44-25.354v-26.625c0-41.539-59.51-41.539-59.51-41.539h-177.45zm51-42.6V1033h109.98s17 1.6 17 16.51c0 0 2.13 17.04-17 17.04zm0-68.163v-33.555h118.48s17 1.598 17 16.508c0 0 2.13 17.047-17 17.047zm288.07-34.086-.1-41.539h-49.95v41.539zm-408.03 0-.11-41.539h-49.94v41.539zm-433.536 0-.105-41.539h-49.938v41.539zm146.531 16.351c0-14.91 16.996-16.507 16.996-16.507l84.274-.165s16.996 1.598 16.996 16.508l-.32 10.438h58.439v-26.625c0-41.539-50.998-41.539-50.998-41.539H858.039s-51 0-51 41.539v103.319c0 41.53 51 41.53 51 41.53h128.043s50.998 0 50.998-41.53v-26.63h-58.439l.32 10.43c0 14.92-16.996 16.52-16.996 16.52h-84.274s-16.996-1.6-16.996-16.52zM646.164 1067.4H501.758v-35.26h136.324v-33.753H501.758l-.219-75.625h-49.934v186.388h194.454z" style="fill:#231f20;fill-opacity:1;fill-rule:evenodd;stroke:none" transform="matrix(.13333 0 0 -.13333 0 258.667)"/><path d="M965.891 334.125c119.509 0 216.389 97.117 216.389 216.91 0 119.797-96.88 216.906-216.389 216.906-119.508 0-216.387-97.109-216.387-216.906 0-119.793 96.879-216.91 216.387-216.91" style="fill:#a53214;fill-opacity:1;fill-rule:evenodd;stroke:none" transform="matrix(.13333 0 0 -.13333 0 258.667)"/><path d="M965.891 334.125c119.509 0 216.389 97.117 216.389 216.91 0 119.797-96.88 216.906-216.389 216.906-119.508 0-216.387-97.109-216.387-216.906 0-119.793 96.879-216.91 216.387-216.91z" style="fill:none;stroke:#231f20;stroke-width:10.00059986;stroke-linecap:butt;stroke-linejoin:miter;stroke-miterlimit:2.61310005;stroke-dasharray:none;stroke-opacity:1" transform="matrix(.13333 0 0 -.13333 0 258.667)"/><path d="M965.891 551.035s-29.219-97.461-119.008-33.555c0 0 1.062-87.335-81.285-49.527" style="fill:none;stroke:#231f20;stroke-width:10.00059986;stroke-linecap:butt;stroke-linejoin:miter;stroke-miterlimit:2.61310005;stroke-dasharray:none;stroke-opacity:1" transform="matrix(.13333 0 0 -.13333 0 258.667)"/><path d="M846.883 517.48s-35.422 184.09 60.922 240.903" style="fill:none;stroke:#231f20;stroke-width:10.00059986;stroke-linecap:square;stroke-linejoin:miter;stroke-miterlimit:2.61310005;stroke-dasharray:none;stroke-opacity:1" transform="matrix(.13333 0 0 -.13333 0 258.667)"/><path d="M966.555 551.375s98.805 23.367 88.485-86.539c0 0 74.93 44.594 83.44-45.801" style="fill:none;stroke:#231f20;stroke-width:10.00059986;stroke-linecap:butt;stroke-linejoin:miter;stroke-miterlimit:2.61310005;stroke-dasharray:none;stroke-opacity:1" transform="matrix(.13333 0 0 -.13333 0 258.667)"/><path d="M1055.04 464.836s-141.329-122.789-238.579-67.559" style="fill:none;stroke:#231f20;stroke-width:10.00059986;stroke-linecap:square;stroke-linejoin:miter;stroke-miterlimit:2.61310005;stroke-dasharray:none;stroke-opacity:1" transform="matrix(.13333 0 0 -.13333 0 258.667)"/><path d="M965.125 548.82s-69.586 74.098 30.516 120.09c0 0-75.985 42.75-2.145 95.332" style="fill:none;stroke:#231f20;stroke-width:10.00059986;stroke-linecap:butt;stroke-linejoin:miter;stroke-miterlimit:2.61310005;stroke-dasharray:none;stroke-opacity:1" transform="matrix(.13333 0 0 -.13333 0 258.667)"/><path d="M995.641 668.91s176.759-61.301 177.669-173.336" style="fill:none;stroke:#231f20;stroke-width:10.00059986;stroke-linecap:square;stroke-linejoin:miter;stroke-miterlimit:2.61310005;stroke-dasharray:none;stroke-opacity:1" transform="matrix(.13333 0 0 -.13333 0 258.667)"/></svg>