<svg xmlns="http://www.w3.org/2000/svg" viewBox="59.54 98.77 669.22 903.15"><path d="M189.394 568.185c-25.95-12.205-49.859-28.951-70.738-49.83-47.4-47.4-73.504-110.42-73.504-177.453 0-67.034 26.105-130.055 73.504-177.453 47.4-47.399 110.421-73.503 177.455-73.503s130.055 26.104 177.454 73.503 73.504 110.42 73.504 177.453c0 67.034-26.104 130.054-73.504 177.453-20.943 20.943-44.935 37.728-70.976 49.94l-.598.274c1.815 1.12 3.146 2.98 4.147 5.776 1.452 4.054 1.451 7.72.154 10.42l-.344.637c1.417.666 2.43 1.877 2.938 3.21.8 2.102.465 4.775-1.332 6.787 0 0 .752.978 1.93 3.188l9.733 1.694-6.86 6.484a24 24 0 0 1 .588 2.324c1.934-.12 4.235.24 5.156 2.345 1.785 4.08.211 7.067-4.953 9.4q-2.836 1.28-5.69 2.433l1.362.04c8.038.31 14.13 2.286 17.857 3.912 3.272 1.427 5.39 3.13 6.865 4.836l.52.109a9.32 9.32 0 0 1 6.124 5.157 9.26 9.26 0 0 1 .695 5.485l-.06.606c1.563 1.932 3.473 3.81 5.984 5.167 1.391.752 2.785 1.338 4.015 1.855 3.572 1.5 7.618 3.199 5.81 8.336-1.477 4.197-4.895 5.165-8.512 6.19-1.001.284-3.47 1.078-3.47 1.078 2.98 1.325 5.062 4.313 5.062 7.777 0 3.918-2.662 7.226-6.274 8.21l.139.26a8.46 8.46 0 0 1 1.362 4.613c0 4.69-3.816 8.507-8.506 8.507l-.187.105c.25.799.383 1.647.383 2.527 0 4.69-3.816 8.506-8.506 8.506l-.352-.033a8.5 8.5 0 0 1 .372 2.489c0 4.69-3.816 8.506-8.506 8.506q-.803-.001-1.566-.145s.083.909.083 1.186c0 4.447-3.618 8.065-8.064 8.065-.773 0-1.52-.109-2.228-.313l.038.735c0 4.447-3.618 8.065-8.065 8.065a8 8 0 0 1-2.537-.409l-.006.3c0 4.447-3.618 8.065-8.064 8.065a8 8 0 0 1-3.35-.73l-.011.284c-.448 3.797-3.686 6.752-7.601 6.752-1.43 0-2.77-.394-3.916-1.08l-.082.247c-1.108 2.864-3.89 4.9-7.14 4.9a7.6 7.6 0 0 1-4.22-1.27l-.108.274a7.67 7.67 0 0 1-6.987 4.531 7.6 7.6 0 0 1-4.637-1.567l-.21-.151a7.27 7.27 0 0 1-6.292 3.632 7.25 7.25 0 0 1-5.153-2.147l-.202.206a7.256 7.256 0 0 1-10.77.49l-.196.252a7.25 7.25 0 0 1-5.425 2.436c-2.22 0-4.21-1-5.544-2.572l-.18.147a7.25 7.25 0 0 1-5.415 2.425 7.2 7.2 0 0 1-4.061-1.243l-.161.44c-1.714 4.665-6.2 8.003-11.454 8.003-5.268 0-9.765-3.356-11.468-8.043l-.138-.405a7.23 7.23 0 0 1-4.07 1.248 7.25 7.25 0 0 1-5.415-2.425l-.18-.147a7.257 7.257 0 0 1-10.968.136l-.196-.252a7.26 7.26 0 0 1-10.77-.49l-.203-.206a7.25 7.25 0 0 1-5.153 2.147 7.27 7.27 0 0 1-6.291-3.632l-.21.15a7.6 7.6 0 0 1-4.637 1.568 7.67 7.67 0 0 1-6.988-4.531l-.108-.275a7.6 7.6 0 0 1-4.22 1.27c-3.249 0-6.032-2.035-7.14-4.899l-.082-.246a7.6 7.6 0 0 1-3.916 1.079c-3.915 0-7.153-2.955-7.6-6.752l-.012-.283a8 8 0 0 1-3.35.729c-4.446 0-8.064-3.618-8.064-8.065l-.006-.3a8 8 0 0 1-2.537.409c-4.446 0-8.064-3.618-8.064-8.065l.037-.735a8 8 0 0 1-2.227.313c-4.447 0-8.065-3.618-8.065-8.065 0-.277.084-1.186.084-1.186a8.5 8.5 0 0 1-1.566.145c-4.69 0-8.507-3.816-8.507-8.506 0-.866.13-1.702.372-2.49l-.352.034c-4.69 0-8.506-3.816-8.506-8.506 0-.88.134-1.728.383-2.527l-.186-.105c-4.69 0-8.507-3.816-8.507-8.507 0-1.699.501-3.283 1.363-4.613l.137-.26c-3.61-.984-6.273-4.292-6.273-8.21 0-3.464 2.083-6.452 5.062-7.777 0 0-2.468-.794-3.47-1.078-3.617-1.025-7.035-1.993-8.512-6.19-1.808-5.137 2.239-6.837 5.81-8.336 1.23-.517 2.624-1.103 4.016-1.855 2.51-1.356 4.42-3.235 5.984-5.167l-.06-.606a9.26 9.26 0 0 1 .694-5.485 9.32 9.32 0 0 1 6.124-5.157l.52-.109c1.476-1.706 3.594-3.409 6.865-4.836 3.75-1.636 9.89-3.626 17.999-3.917l1.278-.012a156 156 0 0 1-5.749-2.456c-5.164-2.333-6.738-5.32-4.952-9.4.931-2.13 3.277-2.472 5.224-2.341 0 0 .226-1.445.374-2.328l-6.715-6.484 9.661-1.694c.516-1.546 1.971-3.224 1.971-3.224-1.769-2.007-2.095-4.661-1.3-6.752.49-1.293 1.46-2.472 2.813-3.15l-.221-.7c-1.296-2.7-1.296-6.363.156-10.416.99-2.768 2.305-4.619 4.094-5.743z" style="fill:#231f20;fill-opacity:1;fill-rule:nonzero;stroke:none" transform="matrix(1.33333 0 0 -1.33333 -.667 1121.853)"/><path d="M122.407 167.199c-46.398 46.397-71.95 108.085-71.95 173.703 0 65.616 25.552 127.305 71.95 173.702 46.397 46.398 108.087 71.95 173.704 71.95s127.306-25.552 173.704-71.95c46.397-46.397 71.95-108.086 71.95-173.702 0-65.618-25.553-127.306-71.95-173.703S361.728 95.25 296.11 95.25s-127.306 25.552-173.703 71.95m20.08 327.324c-41.033-41.033-63.632-95.59-63.632-153.621 0-58.03 22.599-112.589 63.633-153.622 41.033-41.033 95.591-63.631 153.623-63.631s112.59 22.598 153.623 63.63c41.034 41.034 63.632 95.592 63.632 153.623s-22.598 112.588-63.632 153.621c-41.034 41.035-95.592 63.633-153.623 63.633s-112.59-22.598-153.623-63.633m176.627 131.32-17.994 6.774a293.4 293.4 0 0 0 47.95-4.753l-.501-.294a8.25 8.25 0 0 1-4.062-7.104c0-2.201.866-4.203 2.275-5.683l-.875.147a280 280 0 0 1-44.124 4.385zm-73.642-11.024a8.22 8.22 0 0 1 2.24 5.647 8.26 8.26 0 0 1-4.589 7.391l1.404.256a293.5 293.5 0 0 0 46.5 4.503l-2.053-.795-15.869-5.978 15.573-5.867 1.613-.664a280 280 0 0 1-43.796-4.35z" style="fill:#947d4f;fill-opacity:1;fill-rule:nonzero;stroke:none" transform="matrix(1.33333 0 0 -1.33333 -.667 1121.853)"/><path d="M177.36 612.851c-.626 1.43-1.217 2.78 3.168 4.76 9.512 4.297 19.334 7.458 28.53 10.235 28.063 8.474 57.353 12.77 87.053 12.77s58.989-4.296 87.051-12.77c9.197-2.777 19.019-5.938 28.53-10.234 4.386-1.98 3.795-3.331 3.17-4.76-.148-.338-2.063-.385-3.852.151a294 294 0 0 1-29.674 10.708c-27.528 8.285-56.203 12.485-85.226 12.485s-57.697-4.2-85.225-12.485a294 294 0 0 1-29.675-10.708c-1.788-.536-3.703-.489-3.85-.152m-13.696 58.68c-1.41.562-2.686.707-3.88.571l-.44-.031a8.6 8.6 0 0 1 .18 1.744 8.46 8.46 0 0 1-1.535 4.87l.329.09c3.46 1.079 5.98 4.313 5.98 8.123 0 .92-.147 1.804-.418 2.633h.22c4.69 0 8.507 3.815 8.507 8.506a8.5 8.5 0 0 1-.363 2.461l.343-.006c4.69 0 8.506 3.816 8.506 8.506q0 .781-.136 1.523s.858-.04 1.177-.04c4.447 0 8.065 3.618 8.065 8.065l-.014.727c.7-.2 1.44-.306 2.204-.306 4.446 0 8.064 3.618 8.064 8.066l.005.299a8 8 0 0 1 2.538-.41c4.309 0 7.839 3.397 8.055 7.654l.278-.058c.82-.3 1.706-.465 2.63-.465 3.318 0 6.152 2.124 7.21 5.085l.272-.088a7.6 7.6 0 0 1 3.655-.93 7.665 7.665 0 0 1 7.096 4.784l.244-.133a7.6 7.6 0 0 1 3.976-1.116 7.66 7.66 0 0 1 6.697 3.953l.108.167a7.26 7.26 0 0 1 10.071 1.376l.225-.109a7.257 7.257 0 0 1 10.605.651l.25-.185a7.24 7.24 0 0 1 4.928-1.932l.158.044a7.26 7.26 0 0 1-1.688-3.454l-.227-.004a7.6 7.6 0 0 1-2.132.303 7.62 7.62 0 0 1-5.101-1.953l-.55-.022c-9.63-.064-31.019-2.527-54.939-20.258-25.286-18.744-36.333-38.011-40.875-48.718zm124.417 27.419c-1.624.128-3.195.047-4.69-.584l-.364-.165c-2.35 12.76 2.288 30.34 2.342 30.54l.982 3.663-3.437-1.603c-.33-.154-8.268-3.924-24.9-17.47-11.964-9.744-19.368-18.437-23.63-24.334l-.413.254c-2.786 1.722-5.292 1.422-7.8.555l-.316-.1a8.5 8.5 0 0 1 .322 2.32l-.041 1.134a8.5 8.5 0 0 1 1.259-.093c4.69 0 8.506 3.815 8.506 8.506q-.001.793-.14 1.546l.828.025c4.69 0 8.506 3.816 8.506 8.507l-.028.546a8 8 0 0 1 1.422-.125c4.224 0 7.701 3.265 8.039 7.404l.036.302a8 8 0 0 1 1.295-.103c4.18 0 7.626 3.195 8.027 7.27l-.02.369a7.7 7.7 0 0 1 1.541-.156c3.765 0 6.905 2.734 7.537 6.321l.063.328a7.275 7.275 0 0 1 8.245 3.466l.23-.165a7.23 7.23 0 0 1 4.08-1.255c1.35 0 2.616.37 3.7 1.014l.144-.373a7.3 7.3 0 0 1 1.792-2.546l-.224-.218a7.64 7.64 0 0 1-2.516-5.669 7.64 7.64 0 0 1 2.667-5.802l-.344-.223a8.052 8.052 0 0 1 .133-12.211l-.309-.336a8.49 8.49 0 0 1-1.93-10.61zm20.463-.47c-1.37.512-2.8.586-4.276.478l-.691-.023a8.49 8.49 0 0 1-2.054 10.631l-.27.214a8.05 8.05 0 0 1 2.922 6.208c0 2.423-1.073 4.6-2.771 6.08l-.299.199a7.64 7.64 0 0 1 2.66 5.794 7.64 7.64 0 0 1-2.502 5.655l-.268.206a7.3 7.3 0 0 1 1.813 2.552l.123.41a7.23 7.23 0 0 1 3.729-1.031c1.51 0 2.915.463 4.079 1.255l.232.165a7.27 7.27 0 0 1 8.244-3.466l.062-.328c.633-3.587 3.772-6.32 7.538-6.32a7.7 7.7 0 0 1 1.54.155l-.019-.368c.4-4.076 3.847-7.271 8.026-7.271q.661 0 1.295.103l.037-.302c.337-4.14 3.814-7.404 8.038-7.404q.728.001 1.423.125l-.028-.546c0-4.69 3.816-8.507 8.506-8.507l.828-.025a8.6 8.6 0 0 1-.14-1.546c0-4.69 3.815-8.506 8.506-8.506q.642 0 1.259.093l-.042-1.134c0-.804.112-1.582.322-2.32l-.315.1c-2.508.867-5.014 1.167-7.8-.555l-.414-.254c-4.262 5.897-11.666 14.59-23.629 24.334-16.633 13.546-24.57 17.316-24.9 17.47l-3.438 1.603.983-3.664c.053-.199 4.68-17.736 2.35-30.491z" style="fill:#947d4f;fill-opacity:1;fill-rule:nonzero;stroke:none" transform="matrix(1.33333 0 0 -1.33333 -.667 1121.853)"/><path d="M299.637 661.469c5.508-6.193 14.833-12.868 30.087-14.75 14.142-1.745 24.35 1.35 31.399 5.46l.163.062a9.3 9.3 0 0 1 2.995-1.366 9.3 9.3 0 0 1 3.726-.19l.239-.362c3.563-5.865 10.111-12.875 21.913-16.501 16.64-5.113 28.673-1.456 34.173 1.04l.366.147a9.3 9.3 0 0 1 3.14-2.319l.859-.315c-.925-.668-2.047-1.31-3.434-1.915-6.051-2.64-18.827-6.263-36.403-.863-13.586 4.175-20.923 12.34-24.814 19.056l-.487-.256c-7.735-4.564-18.905-7.974-34.377-6.065-16.844 2.08-27.082 9.502-33.112 16.41l-.3-.432c-6.076-6.782-16.237-13.943-32.73-15.978-15.472-1.909-26.642 1.501-34.377 6.065l-.488.256c-3.89-6.716-11.227-14.881-24.814-19.056-17.575-5.4-30.351-1.778-36.402.863-1.387.605-2.51 1.247-3.434 1.915l.859.315a9.3 9.3 0 0 1 3.14 2.32l.365-.147c5.501-2.497 17.533-6.154 34.174-1.041 11.801 3.626 18.35 10.636 21.913 16.5l.239.363a9.3 9.3 0 0 1 3.725.19 9.3 9.3 0 0 1 2.996 1.366l.162-.061c7.05-4.111 17.257-7.206 31.4-5.461 14.897 1.838 24.14 8.248 29.694 14.315l.43.45a9.3 9.3 0 0 1 3.489-.678 9.3 9.3 0 0 1 2.984.49zm128.643 10.046c-4.543 10.706-15.59 29.974-40.875 48.717-23.92 17.731-45.31 20.194-54.94 20.259l-.549.021a7.62 7.62 0 0 1-5.101 1.953c-.74 0-1.455-.105-2.132-.302l-.227.004a7.26 7.26 0 0 1-1.688 3.453l.157-.043c1.9 0 3.632.733 4.929 1.931l.25.186a7.257 7.257 0 0 1 10.605-.651l.224.108a7.26 7.26 0 0 1 10.071-1.375l.108-.168a7.66 7.66 0 0 1 6.699-3.952c1.454 0 2.815.408 3.975 1.115l.243.133a7.665 7.665 0 0 1 7.096-4.784 7.6 7.6 0 0 1 3.656.93l.272.089c1.058-2.961 3.89-5.086 7.21-5.086.924 0 1.81.165 2.63.466l.278.057c.216-4.256 3.746-7.653 8.055-7.653.885 0 1.74.144 2.538.41l.005-.3c0-4.448 3.617-8.066 8.064-8.066.764 0 1.504.107 2.204.306l-.014-.726c0-4.448 3.618-8.066 8.065-8.066.318 0 1.177.04 1.177.04a8.5 8.5 0 0 1-.136-1.522c0-4.69 3.815-8.506 8.506-8.506l.343.006a8.5 8.5 0 0 1-.363-2.462c0-4.69 3.816-8.506 8.506-8.506h.22a8.5 8.5 0 0 1-.417-2.632c0-3.811 2.52-7.045 5.98-8.123l.329-.092a8.46 8.46 0 0 1-1.535-4.868q.002-.898.18-1.745l-.44.032c-1.194.135-2.47-.01-3.88-.571zm-27.93-58.705-18.798.525 12.777-11.198 1.257-1.128c-7.673 2.929-14.534 5.26-21.126 7.19a276 276 0 0 1-17.63 4.533l-.862.133c2.96 1.255 5.042 4.19 5.042 7.602a8.2 8.2 0 0 1-1.493 4.727l-.302.623a290 290 0 0 0 21.102-5.491 291 291 0 0 0 21.76-7.506zm-213.71-22.944c-.53 1.456.09 3.402 2.384 4.337 11.353 4.62 20.8 7.988 29.73 10.602 25.014 7.32 51.04 11.032 77.357 11.032 26.315 0 52.342-3.712 77.356-11.032 8.93-2.614 18.376-5.982 29.73-10.602 2.292-.933 2.95-2.895 2.383-4.337-.736-1.87-2.136-1.74-3.338-1.248-1.95.796-3.883 1.621-5.833 2.397-32.196 12.818-65.907 19.311-100.3 19.311-33.075 0-65.52-6.006-96.595-17.867-2.378-.908-4.7-1.974-7.11-2.826-2.593-.917-5.029-1.783-5.763.233" style="fill:#947d4f;fill-opacity:1;fill-rule:nonzero;stroke:none" transform="matrix(1.33333 0 0 -1.33333 -.667 1121.853)"/><path d="M191.36 585.362c-3.472-1.546-3.3-6.049-1.948-9.825.802-2.24 1.845-3.465 3.107-4.192 1.382-.797 2.3-.603 5.214.575 2.707 1.095 5.393 2.241 8.119 3.29 28.416 10.935 58.898 16.648 90.259 16.648 30.544 0 60.255-5.42 88.035-15.804 3.738-1.397 7.418-2.938 11.105-4.46 1.71-.705 3.214-.825 4.451-.25 1.32.615 2.305 1.953 3.107 4.193 1.352 3.776 1.55 8.34-1.949 9.825-33.508 14.22-68.752 21.429-104.75 21.429-32.693 0-64.764-5.947-95.479-17.69-2.536-.97-8.53-3.41-9.27-3.739m5.147 15.598c7.725 2.952 14.625 5.3 21.252 7.238a276 276 0 0 0 17.319 4.464l1.08.244c-2.911 1.277-4.948 4.185-4.948 7.56 0 2.122.805 4.06 2.126 5.523l-.942-.307a290 290 0 0 1-20.492-5.356 291 291 0 0 1-21.886-7.555l20.651.564z" style="fill:#947d4f;fill-opacity:1;fill-rule:nonzero;stroke:none" transform="matrix(1.33333 0 0 -1.33333 -.667 1121.853)"/><path d="M182.489 634.85c5.01 1.94 6.36 6.228 6.305 8.417-.045 1.792-.788 3.788-1.585 5.863-.642 1.673-1.305 3.403-1.553 4.966-1.287 8.11-3.256 12.109-6.193 12.588-4.06.66-7.8-4.886-9.768-9.836-1.025-2.578-3.487-4.531-5.253-5.667a16 16 0 0 0-.082 1.633c0 1.25.13 2.8.525 4.63.342 1.588.826 3.057 1.253 4.353.54 1.64 1.113 3.38 1.113 4.978 0 .763-.13 1.494-.457 2.166l.259.687c4.286 10.16 15.041 29.36 39.87 47.763 21.282 15.776 40.762 18.978 50.733 19.454l.369-.01a7.6 7.6 0 0 1-.234-1.265l-.276.065a8 8 0 0 1-1.656.17c-4.328 0-7.872-3.428-8.056-7.711 0 0-1 .108-1.314.108-4.446 0-8.065-3.618-8.065-8.064l.006-.182a8.5 8.5 0 0 1-1.841.201c-4.691 0-8.507-3.816-8.507-8.506q0-.804.145-1.57l-.833-.001c-4.69 0-8.506-3.816-8.506-8.507l.016-1.13q-.605.09-1.233.09c-4.69 0-8.507-3.816-8.507-8.506a8.48 8.48 0 0 1 2.494-6.013l-.3-.095c-2.892-.411-5.502-1.262-7.249-4.364-.642-1.14-.915-2.143-.915-3.037 0-2.793 2.673-4.521 5.1-6.09 1.147-.742 2.447-1.582 3.71-2.603 2.18-1.761 3.498-3.4 4.274-4.59-2.087-.228-5.216-.262-7.643 1.106-4.639 2.616-11.03 4.584-13.777 1.521-1.987-2.217-1.006-6.566 3.085-13.686.787-1.371 1.357-3.135 1.91-4.84.973-3.013 1.893-5.858 4.133-6.973a17.9 17.9 0 0 1 5.269-1.631l-.56-.292c-2.235-1.244-4.779-2.35-7.67-3.238-6.88-2.113-12.873-2.64-17.847-2.377zm226.554-.025c-4.974-.264-10.966.263-17.846 2.377-2.892.888-5.435 1.994-7.671 3.238l-.56.291c1.876.275 3.72.86 5.27 1.632 2.24 1.115 3.16 3.96 4.133 6.972.551 1.706 1.122 3.47 1.91 4.84 4.09 7.12 5.071 11.47 3.084 13.687-2.747 3.063-9.138 1.095-13.778-1.52-2.426-1.37-5.554-1.335-7.642-1.108.777 1.191 2.094 2.83 4.274 4.59 1.263 1.022 2.563 1.862 3.71 2.603 2.427 1.57 5.1 3.297 5.1 6.09 0 .894-.272 1.897-.915 3.038-1.747 3.102-4.357 3.952-7.248 4.364l-.301.095a8.48 8.48 0 0 1 2.494 6.012c0 4.69-3.816 8.507-8.506 8.507q-.628 0-1.233-.09l.015 1.13c0 4.69-3.816 8.506-8.506 8.506l-.832.002q.144.765.145 1.57c0 4.69-3.817 8.506-8.507 8.506a8.5 8.5 0 0 1-1.843-.202l.006.182c0 4.447-3.617 8.065-8.064 8.065-.313 0-1.313-.109-1.313-.109-.185 4.284-3.728 7.712-8.057 7.712a8 8 0 0 1-1.656-.17l-.276-.066a7.6 7.6 0 0 1-.234 1.265l.37.01c9.971-.476 29.45-3.677 50.733-19.453 24.828-18.404 35.582-37.604 39.87-47.764l.258-.687c-.327-.672-.457-1.403-.457-2.165 0-1.599.573-3.338 1.113-4.978.427-1.296.911-2.766 1.253-4.353.395-1.83.525-3.38.525-4.63 0-.623-.033-1.163-.082-1.634-1.766 1.136-4.228 3.09-5.252 5.667-1.969 4.95-5.709 10.497-9.77 9.836-2.937-.479-4.904-4.478-6.192-12.588-.247-1.562-.912-3.292-1.554-4.966-.796-2.075-1.538-4.07-1.584-5.862-.056-2.19 1.295-6.477 6.306-8.418zm-122.272 25.801c-5.243-4.618-13.11-8.966-24.707-10.398-4.725-.583-8.97-.594-12.77-.197l-.723.1c1.753.897 3.096 2.362 4.446 4.37 1.395 2.076.858 5.495.255 8.603-.342 1.76-.695 3.579-.669 5.16.14 8.21-1.104 12.49-3.914 13.471-3.885 1.356-8.53-3.458-11.327-7.99-1.455-2.36-4.213-3.854-6.149-4.667.101 1.418.452 3.476 1.516 6.088.612 1.504 1.344 2.868 1.99 4.07.989 1.843 2.05 3.821 2.05 5.7l-.123 1.095c4.002 5.679 11.364 14.592 23.601 24.559 10.153 8.269 17.034 12.836 20.78 15.104-.926-4.375-2.207-11.764-2.207-19.246 0-3.702.314-7.422 1.14-10.8l-.231-.386c-.575-.89-.816-1.741-.816-2.559 0-2.269 1.852-4.278 3.554-6.124.926-1.004 1.975-2.142 2.943-3.445 1.674-2.253 2.54-4.172 2.994-5.519-2.078.304-5.126 1.062-7.126 2.986-3.84 3.691-9.54 7.193-12.962 4.91-2.476-1.65-2.613-6.106-.429-14.021.42-1.526.532-3.375.64-5.165.192-3.16.373-6.144 2.264-7.783 3.86-3.346 8.133-3.348 12.032-.007.934.8 2.004 1.395 3.076 1.837zm18.612.096c1.373-.461 2.808-1.152 4.015-2.186 3.899-3.342 8.172-3.34 12.032.007 1.89 1.639 2.072 4.623 2.263 7.782.108 1.79.22 3.64.641 5.165 2.184 7.916 2.047 12.372-.43 14.022-3.422 2.282-9.12-1.22-12.961-4.91-2-1.924-5.048-2.683-7.126-2.986.454 1.347 1.32 3.265 2.994 5.518.968 1.304 2.017 2.442 2.942 3.445 1.703 1.847 3.555 3.855 3.555 6.125 0 .782-.221 1.595-.744 2.444l-.3.518c.825 3.374 1.138 7.087 1.138 10.782 0 7.482-1.28 14.871-2.208 19.246 3.746-2.268 10.627-6.835 20.78-15.104 12.237-9.967 19.6-18.88 23.6-24.56l-.121-1.093c0-1.88 1.061-3.857 2.05-5.7.646-1.203 1.377-2.566 1.99-4.07 1.064-2.613 1.414-4.67 1.515-6.089-1.936.814-4.694 2.308-6.149 4.667-2.797 4.533-7.442 9.346-11.327 7.99-2.809-.98-4.053-5.26-3.914-13.47.027-1.582-.327-3.401-.668-5.16-.603-3.109-1.14-6.527.256-8.604 1.349-2.007 2.691-3.472 4.444-4.37l-.723-.1c-3.8-.397-8.045-.386-12.77.197-11.13 1.375-18.825 5.435-24.062 9.844z" style="fill:#ef3420;fill-opacity:1;fill-rule:nonzero;stroke:none" transform="matrix(1.33333 0 0 -1.33333 -.667 1121.853)"/><path d="M287.45 755.116c0 4.776 3.885 8.66 8.66 8.66s8.661-3.884 8.661-8.66-3.885-8.66-8.66-8.66-8.66 3.885-8.66 8.66m4.927-15.816a3.737 3.737 0 0 0 3.733 3.733 3.737 3.737 0 0 0 3.732-3.732 3.736 3.736 0 0 0-3.732-3.733 3.736 3.736 0 0 0-3.733 3.733m-10.548 3.82a3.736 3.736 0 0 0 3.732 3.732 3.736 3.736 0 0 0 3.732-3.732 3.737 3.737 0 0 0-3.732-3.732 3.737 3.737 0 0 0-3.732 3.732m-5.128 9.724a3.737 3.737 0 0 0 3.733 3.732 3.736 3.736 0 0 0 3.732-3.732 3.737 3.737 0 0 0-3.732-3.732 3.737 3.737 0 0 0-3.733 3.732m-11.138 0a3.736 3.736 0 0 0 3.732 3.732 3.736 3.736 0 0 0 3.733-3.732 3.737 3.737 0 0 0-3.733-3.732 3.737 3.737 0 0 0-3.732 3.732m26.43-24.784a4.12 4.12 0 0 0 4.117 4.118 4.12 4.12 0 0 0 4.117-4.118 4.12 4.12 0 0 0-4.117-4.117 4.12 4.12 0 0 0-4.117 4.117m-30.704 6.751a4.12 4.12 0 0 0 4.117 4.117 4.12 4.12 0 0 0 4.117-4.117 4.12 4.12 0 0 0-4.117-4.118 4.12 4.12 0 0 0-4.117 4.118m-28.996 14.498a4.12 4.12 0 0 0 4.118 4.117 4.12 4.12 0 0 0 4.117-4.118 4.12 4.12 0 0 0-4.117-4.117 4.12 4.12 0 0 0-4.118 4.117m-11.315-3.536a4.12 4.12 0 0 0 4.117 4.118 4.12 4.12 0 0 0 4.118-4.118 4.12 4.12 0 0 0-4.118-4.117 4.12 4.12 0 0 0-4.117 4.117m-11.139-4.066a4.12 4.12 0 0 0 4.118 4.117 4.12 4.12 0 0 0 4.117-4.117 4.12 4.12 0 0 0-4.117-4.118 4.12 4.12 0 0 0-4.117 4.118m81.741-25.719a4.534 4.534 0 0 0 4.529 4.529 4.534 4.534 0 0 0 4.529-4.529 4.535 4.535 0 0 0-4.53-4.53 4.535 4.535 0 0 0-4.528 4.53m-93.114 19.001a4.534 4.534 0 0 0 4.528 4.529 4.534 4.534 0 0 0 4.529-4.529 4.535 4.535 0 0 0-4.529-4.53 4.535 4.535 0 0 0-4.528 4.53m-10.608-7.956a4.534 4.534 0 0 0 4.529 4.529 4.534 4.534 0 0 0 4.528-4.529 4.535 4.535 0 0 0-4.528-4.53 4.535 4.535 0 0 0-4.53 4.53m-10.254-8.487a4.534 4.534 0 0 0 4.529 4.53 4.534 4.534 0 0 0 4.529-4.53 4.535 4.535 0 0 0-4.53-4.53 4.535 4.535 0 0 0-4.528 4.53m112.717-48.414a5.795 5.795 0 0 0 5.789 5.788 5.795 5.795 0 0 0 5.788-5.788 5.795 5.795 0 0 0-5.788-5.79 5.796 5.796 0 0 0-5.789 5.79m.818 32.877c0 2.74 2.23 4.97 4.97 4.97 2.742 0 4.972-2.23 4.972-4.97s-2.23-4.97-4.971-4.97-4.97 2.23-4.97 4.97m-123.524 5.99c0 2.74 2.23 4.97 4.97 4.97s4.97-2.23 4.97-4.97-2.23-4.97-4.97-4.97-4.97 2.23-4.97 4.97m-8.487-10.962c0 2.74 2.23 4.97 4.97 4.97 2.741 0 4.97-2.23 4.97-4.97s-2.229-4.97-4.97-4.97-4.97 2.23-4.97 4.97m-8.31-11.139c0 2.741 2.23 4.97 4.971 4.97s4.97-2.229 4.97-4.97-2.23-4.97-4.97-4.97-4.97 2.23-4.97 4.97m-4.774-13.083c0 2.741 2.23 4.97 4.97 4.97s4.97-2.229 4.97-4.97-2.23-4.97-4.97-4.97-4.97 2.23-4.97 4.97m150.063-43.083c.869-.326 8.187-3.084 12.976-4.888l-12.975-4.888-12.975 4.888zm-95.152-21.206-10.054-8.811-10.399 1.833c2.626 2.506 6.27 5.98 6.922 6.6.927.027 8.369.235 13.531.378m20.958 26.131a43.3 43.3 0 0 1 7.535 8.401l.375-.164c3.612-1.828 7.798-3.384 12.603-4.394l-1.008-.237a302 302 0 0 1-20.535-4.462zm12.831-15.19a4.72 4.72 0 0 0 4.714 4.714 4.72 4.72 0 0 0 4.715-4.714 4.72 4.72 0 0 0-4.715-4.715 4.72 4.72 0 0 0-4.714 4.715m156.516-10.941 13.531-.377 6.921-6.6-10.399-1.834zm-43.219 10.941a4.72 4.72 0 0 0 4.715 4.714 4.72 4.72 0 0 0 4.715-4.714 4.72 4.72 0 0 0-4.715-4.715 4.72 4.72 0 0 0-4.715 4.715M220.007 658.46a5.75 5.75 0 0 0 .62 4.387 5.75 5.75 0 0 0 3.54 2.663 5.75 5.75 0 0 0 4.388-.62 5.75 5.75 0 0 0 2.662-3.541 5.76 5.76 0 0 0-.62-4.389 5.75 5.75 0 0 0-3.539-2.662 5.797 5.797 0 0 0-7.05 4.162m67.917 6.224c-2.27-.496-5.097-1.487-7.404-3.463-2.58-2.213-4.867-2.215-7.415-.006-.766.665-.923 3.248-1.049 5.324-.119 1.971-.243 4.01-.762 5.891-2.403 8.712-1.033 10.13-1.018 10.14.95.633 4.661-.78 8.55-4.518 2.609-2.51 6.304-3.511 8.87-3.912l-.148-.317a9.3 9.3 0 0 1-.762-3.691c0-1.989.625-3.834 1.69-5.35zm-12.12 1.226c-.17 1.64-.545 6.227-1.089 9.788-.136.892-.215 1.333.177 2.104.391.771 1.628.487 1.628.487-.48.356-2.14 1.452-3.406.655-1.245-.783-.91-2.522-.8-3.093.671-3.485 1.14-8.305 1.156-9.964.013-1.348.653-3.019 2.027-3.498.467-.163 1.682-.383 2.872 1.085-1.892-.543-2.345.29-2.565 2.436m-120.55-27.124a5.75 5.75 0 0 0-.15 4.426 5.75 5.75 0 0 0 3.024 3.237 5.75 5.75 0 0 0 4.428.15 5.75 5.75 0 0 0 3.237-3.024 5.75 5.75 0 0 0 .15-4.43 5.75 5.75 0 0 0-3.023-3.236 5.797 5.797 0 0 0-7.666 2.877m57.445 53.24c0 2.74 2.23 4.97 4.97 4.97 2.741 0 4.971-2.23 4.971-4.97s-2.23-4.97-4.97-4.97-4.97 2.23-4.97 4.97m9.724 9.547c0 2.74 2.23 4.97 4.97 4.97s4.97-2.23 4.97-4.97-2.23-4.97-4.97-4.97-4.97 2.23-4.97 4.97m9.193 10.077c0 2.741 2.23 4.971 4.97 4.971s4.97-2.23 4.97-4.97-2.23-4.97-4.97-4.97-4.97 2.23-4.97 4.97m10.342 8.487a4.534 4.534 0 0 0 4.53 4.528 4.534 4.534 0 0 0 4.528-4.528 4.535 4.535 0 0 0-4.529-4.53 4.535 4.535 0 0 0-4.528 4.53m9.369 7.602a4.534 4.534 0 0 0 4.53 4.53 4.534 4.534 0 0 0 4.528-4.53 4.535 4.535 0 0 0-4.529-4.53 4.535 4.535 0 0 0-4.528 4.53m19.846 13.083a3.737 3.737 0 0 0 3.733 3.732 3.736 3.736 0 0 0 3.732-3.732 3.737 3.737 0 0 0-3.732-3.733 3.737 3.737 0 0 0-3.733 3.733m-16.398 11.492a3.737 3.737 0 0 0 3.732 3.732 3.737 3.737 0 0 0 3.733-3.732 3.737 3.737 0 0 0-3.733-3.733 3.737 3.737 0 0 0-3.732 3.733m-10.962-.708a3.737 3.737 0 0 0 3.733 3.733 3.736 3.736 0 0 0 3.732-3.733 3.737 3.737 0 0 0-3.732-3.732 3.737 3.737 0 0 0-3.733 3.732m-33.192-102.999c-.801-1.712-2.034-1.79-2.526-1.744-1.45.136-2.472 1.603-2.809 2.908-.414 1.607-2.028 6.173-3.517 9.394-.244.528-.987 2.136.033 3.195 1.038 1.078 2.913.413 3.464.183 0 0-1.269-.022-1.463-.865-.195-.842-.013-1.251.334-2.084 1.384-3.326 2.851-7.688 3.41-9.24.729-2.03 1.369-2.73 3.074-1.747m10.191 3.306a9.3 9.3 0 0 0-4.233 5.664 9.3 9.3 0 0 0-.135 4.076l-.303.004c-2.574-.217-6.22-.104-9.246 1.602-3.038 1.714-5.763 2.495-7.515 2.618-2.134.15-2.345-.422-1.724-2.64.39-1.448 1.305-3.744 3.35-7.301.972-1.693 1.619-3.63 2.207-5.514.774-2.48 1.474-5.094 3.721-5.905s6.436-1.869 10.713 3.099a34 34 0 0 1 3.012 4.082zm21.444 19.966c.37.467 1.69 1.956 3.12 1.514 1.406-.434 1.533-2.2 1.574-2.781.253-3.542 1.047-8.319 1.461-9.924.337-1.305.15-3.084-1.053-3.903-.408-.278-1.526-.806-3.054.305 2.257.046 2.182 1.122 1.847 3.015-.283 1.595-.955 6.01-1.466 9.55-.505 3.503-2.43 2.224-2.43 2.224m7.553-15.832c.994 1.657.515 3.94-.012 6.382-.416 1.93-.765 3.943-.732 5.894.153 9.035-1.527 10.067-1.544 10.073-1.078.375-4.32-1.918-7.152-6.51-1.795-2.91-4.864-4.76-7.208-5.822l-.423-.142a9.3 9.3 0 0 0 1.9-3.692 9.27 9.27 0 0 0-1.18-7.364s2.022-1.214 5.264-2.355c2.469-.87 5.356-.521 7.587.478 1.79.802 2.505 1.4 3.5 3.058m-23.077 25.972c-1.303-1.245-3.437-2.801-5.92-3.36-2.515-.73-5.129-.373-6.876.062-1.936.481-2.975.119-2.18-2.245-1.193 1.107-1.584 2.446-1.02 3.495.278.516 1.2 1.645 3.758 1.016 1.471-.363 3.65-.672 5.735-.069 2.048.462 3.806 1.786 4.92 2.815 1.935 1.787 3.288 1.243 3.78.927 1.003-.646 1.307-2.006.797-3.552-.36 2.424-1.293 2.534-2.994.91m.953-12.56c.141 1.752.589 4.151 1.766 7.04.683 1.678 1.462 3.13 2.149 4.41 2.122 3.953 2.032 4.392.509 5.334-2.132 1.317-3.862.679-7.268-.773-1.52-.648-3.244-1.382-5.353-1.975-2.056-.481-3.92-.671-5.566-.839-3.68-.376-5.505-.654-6.734-2.836-.891-1.583-.77-1.972 3.023-4.423 1.221-.789 2.604-1.683 4.013-2.822 2.415-1.952 3.964-3.826 4.935-5.288l.238-.423a9.3 9.3 0 0 0 3.885 2.07 9.3 9.3 0 0 0 4.421.062zm-67.124-18.95a9.3 9.3 0 0 1-3.898-.84 9.3 9.3 0 0 1-3.178-2.364l-.39-.438c-1.6 1.78-3.55 3.5-6 4.824-1.544.833-3.023 1.455-4.327 2.003-4.237 1.78-4.449 2.184-3.844 3.902.831 2.363 2.58 2.953 6.14 3.962 1.592.45 3.395.962 5.336 1.792 1.974.95 3.544 1.972 4.929 2.874 3.102 2.02 4.696 2.95 7.023 2.023 1.688-.673 1.838-1.053.425-5.343-.455-1.38-.97-2.944-1.352-4.714-.702-3.259-.683-5.822-.48-7.59zm.44 12.377c.23 1.61-.31 2.897-1.41 3.355-.541.225-1.969.522-3.558-1.579-.916-1.21-2.413-2.822-4.347-3.638-1.946-.961-4.145-1.04-5.658-.943-2.628.168-3.336-1.106-3.518-1.662-.371-1.133.25-2.382 1.62-3.261-1.2 2.186-.241 2.726 1.75 2.594 1.796-.12 4.431-.01 6.779 1.151 2.344.988 4.171 2.896 5.235 4.35 1.388 1.9 2.324 1.955 3.106-.367m8.316-24.81a9.3 9.3 0 0 1 .535 3.107 9.3 9.3 0 0 1-.84 3.854 9.3 9.3 0 0 1-2.244 3.074l-.24.204c2.17 1.426 5.115 3.866 6.45 7.227 1.31 3.291 2.964 5.638 4.265 6.81.68.613 2.07.678 2.651-.427.652-1.239 1.518-3.665 2.268-8.384.306-1.928 1.037-3.834 1.744-5.678.308-.804.696-1.676.91-2.517.498-1.95.322-4.127-1.085-5.763-2.249-2.613-6.188-4.162-9.614-3.168-3.425.995-4.8 1.661-4.8 1.661m8.398 16.296c1.012-3.429 2.308-7.704 2.816-9.241.603-1.827.831-2.881-1.398-3.249 1.673-.881 2.702-.199 3.067.135 1.074.983 1.005 2.77.485 4.014-.64 1.529-2.108 6.143-2.865 9.612-.124.569-.502 2.299-1.955 2.528-1.478.233-2.573-1.43-2.872-1.945 0 0 1.721 1.541 2.722-1.854m128.943 85.017a3.737 3.737 0 0 0-3.733 3.732 3.736 3.736 0 0 0 3.733 3.732 3.736 3.736 0 0 0 3.732-3.732 3.737 3.737 0 0 0-3.732-3.732m5.127 9.724a3.737 3.737 0 0 0-3.733 3.732 3.737 3.737 0 0 0 3.733 3.732 3.736 3.736 0 0 0 3.732-3.732 3.737 3.737 0 0 0-3.732-3.732m11.138 0a3.737 3.737 0 0 0-3.732 3.732 3.736 3.736 0 0 0 3.732 3.732 3.737 3.737 0 0 0 3.733-3.732 3.737 3.737 0 0 0-3.733-3.732m3.89-18.419a4.12 4.12 0 0 0-4.118 4.118 4.12 4.12 0 0 0 4.118 4.117 4.12 4.12 0 0 0 4.117-4.117 4.12 4.12 0 0 0-4.117-4.118m28.995 14.498a4.12 4.12 0 0 0-4.117 4.117 4.12 4.12 0 0 0 4.118 4.118 4.12 4.12 0 0 0 4.117-4.118 4.12 4.12 0 0 0-4.117-4.117m11.314-3.536a4.12 4.12 0 0 0-4.118 4.117 4.123 4.123 0 0 0 4.118 4.118 4.12 4.12 0 0 0 4.118-4.118 4.12 4.12 0 0 0-4.118-4.117m11.139-4.066a4.12 4.12 0 0 0-4.118 4.117 4.12 4.12 0 0 0 4.118 4.117 4.12 4.12 0 0 0 4.117-4.117 4.12 4.12 0 0 0-4.117-4.118m10.962-7.13a4.535 4.535 0 0 0-4.53 4.53 4.534 4.534 0 0 0 4.53 4.529 4.534 4.534 0 0 0 4.528-4.529 4.535 4.535 0 0 0-4.528-4.53m10.607-7.956a4.535 4.535 0 0 0-4.529 4.53 4.534 4.534 0 0 0 4.529 4.529 4.534 4.534 0 0 0 4.529-4.529 4.535 4.535 0 0 0-4.529-4.53m10.255-8.487a4.535 4.535 0 0 0-4.53 4.53 4.534 4.534 0 0 0 4.53 4.53 4.534 4.534 0 0 0 4.529-4.53 4.535 4.535 0 0 0-4.53-4.53m9.548-9.988a4.976 4.976 0 0 0-4.97 4.97c0 2.741 2.229 4.971 4.97 4.971s4.97-2.23 4.97-4.97-2.23-4.97-4.97-4.97m8.486-10.962c-2.74 0-4.97 2.23-4.97 4.97s2.23 4.97 4.97 4.97 4.97-2.23 4.97-4.97-2.23-4.97-4.97-4.97m8.309-11.139c-2.74 0-4.97 2.23-4.97 4.97 0 2.741 2.23 4.97 4.97 4.97 2.741 0 4.97-2.229 4.97-4.97s-2.229-4.97-4.97-4.97m4.774-13.083c-2.74 0-4.97 2.23-4.97 4.97 0 2.741 2.23 4.97 4.97 4.97s4.97-2.229 4.97-4.97-2.23-4.97-4.97-4.97m-76.04-14.547a5.75 5.75 0 0 0-3.54 2.662 5.75 5.75 0 0 0-.62 4.389 5.75 5.75 0 0 0 2.663 3.541 5.75 5.75 0 0 0 4.387.62 5.75 5.75 0 0 0 3.54-2.663 5.75 5.75 0 0 0 .62-4.387 5.797 5.797 0 0 0-7.05-4.162M429.3 635.91a5.75 5.75 0 0 0-3.023 3.235 5.75 5.75 0 0 0 .15 4.43 5.75 5.75 0 0 0 3.238 3.025 5.75 5.75 0 0 0 4.428-.151 5.75 5.75 0 0 0 3.024-3.237 5.75 5.75 0 0 0-.15-4.426 5.797 5.797 0 0 0-7.667-2.877m-54.75 51.147c-2.74 0-4.97 2.23-4.97 4.97s2.23 4.97 4.97 4.97c2.741 0 4.971-2.23 4.971-4.97s-2.23-4.97-4.97-4.97m-9.724 9.547c-2.74 0-4.97 2.23-4.97 4.97s2.23 4.97 4.97 4.97 4.97-2.23 4.97-4.97-2.23-4.97-4.97-4.97m-9.194 10.077c-2.74 0-4.97 2.23-4.97 4.97 0 2.741 2.23 4.971 4.97 4.971s4.97-2.23 4.97-4.97-2.23-4.97-4.97-4.97m-9.901 8.926a4.535 4.535 0 0 0-4.528 4.53 4.534 4.534 0 0 0 4.528 4.53 4.534 4.534 0 0 0 4.529-4.53 4.535 4.535 0 0 0-4.529-4.53m-9.37 7.603a4.535 4.535 0 0 0-4.529 4.53 4.534 4.534 0 0 0 4.53 4.53 4.534 4.534 0 0 0 4.528-4.53 4.535 4.535 0 0 0-4.529-4.53m-19.05 13.88a3.737 3.737 0 0 0-3.733 3.733 3.737 3.737 0 0 0 3.733 3.732 3.736 3.736 0 0 0 3.732-3.732 3.737 3.737 0 0 0-3.732-3.733m16.398 11.492a3.737 3.737 0 0 0-3.732 3.733 3.737 3.737 0 0 0 3.732 3.732 3.737 3.737 0 0 0 3.733-3.732 3.737 3.737 0 0 0-3.733-3.733m10.961-.707a3.737 3.737 0 0 0-3.732 3.732 3.737 3.737 0 0 0 3.732 3.733 3.736 3.736 0 0 0 3.733-3.733 3.737 3.737 0 0 0-3.733-3.732m40-97.52c.558 1.552 2.025 5.914 3.41 9.24.346.833.528 1.242.334 2.084-.195.843-1.463.865-1.463.865.55.23 2.426.895 3.464-.183 1.02-1.06.277-2.667.032-3.195-1.489-3.221-3.102-7.787-3.516-9.394-.338-1.305-1.36-2.772-2.809-2.908-.493-.046-1.726.032-2.527 1.744 1.706-.983 2.346-.283 3.075 1.747M371.56 651.7a34 34 0 0 1 3.01-4.083c4.279-4.967 8.468-3.908 10.715-3.098s2.946 3.425 3.72 5.904c.59 1.885 1.236 3.821 2.208 5.514 2.044 3.557 2.96 5.854 3.349 7.301.622 2.218.41 2.791-1.724 2.64-1.751-.123-4.476-.904-7.514-2.617-3.026-1.707-6.673-1.82-9.246-1.603l-.304-.004a9.3 9.3 0 0 0-.135-4.076 9.3 9.3 0 0 0-4.233-5.664zm-61.719-7.851a310 310 0 0 1-27.213.01l-.94-.004c5.852 2.694 10.463 6.086 14.064 9.551l.419.29c3.667-3.59 8.411-7.119 14.484-9.896zm60.541-8.259a43.4 43.4 0 0 0-7.611 8.468l-.376-.164c-3.623-1.832-7.821-3.393-12.644-4.403l.76-.176a302 302 0 0 0 20.808-4.51zm-53.965 30.32c.169 1.641.544 6.228 1.088 9.789.137.892.215 1.333-.177 2.103-.39.772-1.627.488-1.627.488.48.356 2.14 1.452 3.405.655 1.246-.784.91-2.522.8-3.094-.67-3.484-1.14-8.304-1.155-9.963-.014-1.349-.653-3.019-2.027-3.498-.467-.164-1.683-.384-2.872 1.085 1.891-.543 2.345.29 2.565 2.435m-11.773 7.982a9.3 9.3 0 0 0 .792-3.76c0-1.72-.468-3.332-1.283-4.716l-.315-.637c2.34-.46 5.398-1.447 7.861-3.558 2.58-2.213 4.868-2.215 7.415-.006.767.665.924 3.248 1.05 5.324.119 1.971.242 4.01.762 5.891 2.403 8.712 1.032 10.13 1.018 10.14-.95.633-4.661-.78-8.55-4.518-2.603-2.503-6.287-3.506-8.852-3.908zm-1.927 17.383c-1.593-.84-4.027-1.853-6.57-1.775-2.616-.078-5.097.851-6.644 1.776-1.421.85-2.76 1.196-2.671-1.63-.88 1.37-.924 2.764-.115 3.639.397.43 1.572 1.293 3.892.046 1.335-.719 3.368-1.561 5.537-1.498 2.098-.063 4.13.78 5.466 1.498 2.32 1.247 3.494.383 3.892-.046.809-.875.765-2.269-.115-3.638.014 2.051-.953 2.534-2.672 1.628m-10.565-12.702a9.3 9.3 0 0 0 3.959.883 9.3 9.3 0 0 0 4.064-.933l.22.01c.547 1.693 1.59 4.035 3.577 6.71 1.08 1.454 2.196 2.664 3.181 3.733 3.062 3.32 3.083 3.728 1.825 5.038-1.735 1.807-3.571 1.62-7.23 1.066-1.635-.249-3.487-.53-5.677-.577-2.11.047-3.963.328-5.598.577-3.659.555-5.495.741-7.23-1.066-1.258-1.31-1.237-1.717 1.824-5.038.985-1.069 2.101-2.28 3.182-3.733 2.053-2.764 3.098-5.171 3.63-6.876zm55.38-8.917c-.51-3.54-1.183-7.955-1.465-9.55-.336-1.893-.41-2.97 1.848-3.015-1.53-1.111-2.647-.583-3.055-.305-1.204.82-1.39 2.598-1.053 3.903.414 1.605 1.208 6.382 1.461 9.924.041.58.168 2.347 1.573 2.781 1.43.442 2.75-1.047 3.12-1.514 0 0-1.923 1.279-2.429-2.224m-1.623-16.666c2.232-1 5.119-1.348 7.588-.478 3.242 1.141 5.264 2.355 5.264 2.355a9.27 9.27 0 0 0-1.18 7.364 9.3 9.3 0 0 0 1.9 3.692l-.423.142c-2.344 1.063-5.413 2.913-7.208 5.822-2.833 4.592-6.075 6.885-7.153 6.51-.016-.006-1.696-1.038-1.543-10.073.033-1.951-.316-3.964-.733-5.894-.526-2.441-1.005-4.725-.011-6.382s1.71-2.256 3.5-3.058m16.583 28.119c-.51 1.546-.206 2.906.797 3.552.491.317 1.845.86 3.78-.927 1.114-1.029 2.872-2.353 4.92-2.815 2.085-.603 4.263-.294 5.735.069 2.557.629 3.48-.5 3.757-1.016.565-1.049.174-2.388-1.02-3.495.795 2.364-.244 2.726-2.18 2.245-1.747-.435-4.36-.791-6.875-.062-2.483.559-4.618 2.115-5.92 3.36-1.702 1.624-2.633 1.514-2.994-.911m2.022-12.113c1.44.333 2.95.318 4.422-.062a9.3 9.3 0 0 0 3.884-2.07l.238.423c.971 1.462 2.52 3.337 4.936 5.288 1.409 1.139 2.792 2.033 4.012 2.822 3.793 2.451 3.915 2.84 3.024 4.423-1.23 2.182-3.053 2.46-6.735 2.836-1.645.168-3.51.358-5.566.84-2.108.592-3.832 1.326-5.352 1.974-3.406 1.452-5.137 2.09-7.268.773-1.523-.941-1.613-1.38.51-5.335.686-1.28 1.464-2.73 2.148-4.408 1.177-2.89 1.625-5.289 1.765-7.04zm66.759-18.396c.203 1.768.222 4.331-.481 7.59-.381 1.77-.897 3.334-1.351 4.714-1.413 4.29-1.263 4.67.425 5.343 2.327.927 3.921-.003 7.023-2.023 1.384-.902 2.955-1.924 4.928-2.874 1.942-.83 3.745-1.341 5.336-1.792 3.56-1.009 5.31-1.599 6.14-3.962.605-1.718.394-2.123-3.842-3.902-1.306-.548-2.785-1.17-4.328-2.003-2.45-1.324-4.4-3.044-6-4.824l-.39.438a9.3 9.3 0 0 1-3.178 2.363 9.3 9.3 0 0 1-3.899.84zm3.05 12.654c1.064-1.455 2.891-3.363 5.236-4.35 2.348-1.162 4.983-1.273 6.78-1.153 1.99.133 2.949-.407 1.75-2.593 1.37.879 1.99 2.128 1.619 3.26-.183.557-.891 1.831-3.519 1.663-1.513-.098-3.711-.018-5.657.943-1.934.816-3.431 2.429-4.347 3.638-1.59 2.1-3.017 1.804-3.558 1.58-1.1-.46-1.64-1.745-1.41-3.357.783 2.323 1.719 2.267 3.107.369m-16.223-26.839c-3.425-.994-7.365.555-9.613 3.168-1.407 1.636-1.584 3.813-1.086 5.763.215.841.602 1.713.91 2.517.708 1.844 1.438 3.75 1.745 5.678.75 4.719 1.615 7.145 2.267 8.384.581 1.105 1.97 1.04 2.652.427 1.3-1.172 2.956-3.519 4.264-6.81 1.336-3.36 4.281-5.8 6.45-7.227l-.239-.204a9.3 9.3 0 0 1-2.244-3.074 9.3 9.3 0 0 1-.84-3.854c0-1.047.177-2.095.535-3.107 0 0-1.375-.666-4.801-1.661m-.875 19.811c-.3.515-1.394 2.178-2.873 1.945-1.452-.23-1.83-1.96-1.954-2.528-.757-3.47-2.226-8.083-2.865-9.612-.52-1.245-.59-3.031.485-4.014.364-.334 1.394-1.016 3.066-.135-2.228.368-2 1.422-1.397 3.249.508 1.537 1.804 5.812 2.816 9.24 1 3.396 2.722 1.855 2.722 1.855" style="fill:#947d4f;fill-opacity:1;fill-rule:nonzero;stroke:none" transform="matrix(1.33333 0 0 -1.33333 -.667 1121.853)"/><path d="M365.878 466.161a143.7 143.7 0 0 1-30.613 12.702l.34.437 27.882 38.725.503.66c73.42-28.104 122.414-98.947 122.414-177.783 0-29.108-6.57-57.43-19.172-83.222l.397-.546 13.182-18.82.38-.626c17.11 30.56 26.871 65.769 26.871 103.214 0 116.869-95.08 211.95-211.951 211.95a212.6 212.6 0 0 1-33.067-2.576l-.677-.09 51.858-74.039 1.056-.24c31.613-4.518 60.964-20.097 82.548-44.268l1.942-2.174-26.069-19.192-1.61 1.72a104.3 104.3 0 0 1-27.084 20.738l-.556.263 100.622-143.659.186-.443a156.9 156.9 0 0 1 8.879 52.01c0 30.218-8.596 59.61-24.857 84.996-13.854 21.627-32.655 39.502-54.79 52.188zM229.075 260.126v-35.912l-.004-2.036c-42.802 24.257-69.33 69.618-69.33 118.724 0 30.7 10.525 60.162 28.957 83.822l.529.678-12.897 18.412-.517-.538a159 159 0 0 1-13.734-18.737c-15.698-25.065-23.997-53.986-23.997-83.637 0-61.16 35.648-117.078 91.016-143.103l-.023-1.873v-32.212l.072-.942c-35.761 13.485-66.374 37.188-88.546 68.568-22.756 32.203-34.784 70.09-34.784 109.562 0 48.963 18.992 94.951 51.017 129.476l.502.554-12.686 18.112-.5-.53c-37.11-38.193-59.99-90.281-59.99-147.612 0-116.869 95.08-211.949 211.95-211.949 31.024 0 60.512 6.7 87.093 18.728l.418.187-44.538 63.586-.57-.24c-13.474-4.385-27.743-6.679-42.402-6.679-6.892 0-13.79.52-20.574 1.55l-.053.669v32.1a104.4 104.4 0 0 1 20.627-2.053c7.782 0 15.417.845 22.803 2.483l.603.104-11.648 16.63-.118-1.306h-39.412l.073-1.253v-93.777h-32.266v196.763l.026 1.933-27.363 39.067-.442-.627c-10.498-16.455-16.36-35.79-16.36-55.916 0-30.85 13.468-59.691 37.054-79.574z" style="fill:#fff;fill-opacity:1;fill-rule:nonzero;stroke:none" transform="matrix(1.33333 0 0 -1.33333 -.667 1121.853)"/><path d="M268.412 312.32v-25.342h17.09l.71-.042-17 24.271" style="fill:#fff;fill-opacity:1;fill-rule:nonzero;stroke:none" transform="matrix(1.33333 0 0 -1.33333 -.667 1121.853)"/><path d="m277.615 470.313 14.458-20.08.5.018q1.77.057 3.538.057c29.319 0 57.665-12.019 78.192-33.006l17.566 12.932c-24.781 26.536-59.493 41.732-95.758 41.732a132 132 0 0 1-18.704-1.332zm-14.507-211.086v-94.242H241.45v198.458h90.61v-21.658h-68.952v-58.924l-.057-1.188h39.395v-21.658h-39.255z" style="fill:#947d4f;fill-opacity:1;fill-rule:nonzero;stroke:none" transform="matrix(1.33333 0 0 -1.33333 -.667 1121.853)"/><path d="M280.789 211.45v20.443l.055.667a110 110 0 0 1 15.267-1.063c33.771 0 64.867 15.167 85.794 41.655l16.966-13.437c-25.077-31.71-62.36-49.876-102.76-49.876-5.108 0-10.219.297-15.28.887z" style="fill:#947d4f;fill-opacity:1;fill-rule:nonzero;stroke:none" transform="matrix(1.33333 0 0 -1.33333 -.667 1121.853)"/><path d="M364.245 473.058a149 149 0 0 1-19.968 8.532l-.394.13 21.487 29.842.439.701c69.308-28.26 115.291-96.06 115.291-171.361 0-37.327-11.115-73.324-32.142-104.1-19.066-27.904-45.059-49.886-75.503-63.936l-.623-.35-12.716 18.153.665.252c59.389 25.695 98.66 84.804 98.66 149.98 0 31.235-8.883 61.616-25.693 87.858-15.18 23.698-36.109 43.035-60.797 56.245zM223.77 258.026v-25.304l.005-1.071c-36.475 24.206-58.73 65.16-58.73 109.25 0 43.052 21.54 83.575 56.798 107.937l.644.459 12.15-16.876.434-.762c-30.041-20.26-48.369-54.274-48.369-90.757 0-31.621 13.461-61.232 37.117-82.06z" style="fill:#947d4f;fill-opacity:1;fill-rule:nonzero;stroke:none" transform="matrix(1.33333 0 0 -1.33333 -.667 1121.853)"/><path d="m296.276 378.532 33.486 46.508.608.887a92.3 92.3 0 0 1-21.919 5.85l-.496.042-11.017-15.3-.795-1.194-69.212 96.128-.577.785c-69.228-28.272-115.233-96.2-115.233-171.336 0-38.37 11.692-75.197 33.812-106.502 20.046-28.37 47.186-50.286 78.847-63.76l-.01.809v22.597l.019.427c-55.475 27.492-91.01 84.348-91.01 146.429 0 30.648 8.578 60.543 24.805 86.453a164.3 164.3 0 0 0 61.624 57.615l.495-.546 76.407-106.12z" style="fill:#947d4f;fill-opacity:1;fill-rule:nonzero;stroke:none" transform="matrix(1.33333 0 0 -1.33333 -.667 1121.853)"/><path d="m337.622 426.879.85 1.248a97.6 97.6 0 0 1-32.675 9.31l-.348-.021-9.115-12.66-.22-.315-67.128 93.234-.754 1.01c-25.593-9.801-48.228-24.824-66.853-43.572l-.263-.333-12.637 18.041.356.366c29.03 28.084 66.039 47.967 107.251 55.875l.567.036 50.612-72.258-.762.03q-5.17.4-10.392.4c-9.25 0-18.49-.937-27.484-2.784l-.455-.134 21.308-29.595.517.07c2.035.117 4.08.177 6.114.177 13.077 0 25.958-2.508 37.963-7.23l.734-.257 107.85-153.977.42-.493c-15.379-38.826-45.849-70.906-85.428-87.696l-.603-.3-12.768 18.229.571.175c23.398 8.933 44.104 24.33 59.876 45.074l1.573 2.07-25.303 20.04-1.635-2.174c-13.785-18.333-32.572-31.252-53.779-37.467l-.623-.136-17.097 24.41-.112 1.079v20.626h-14.438l-.656.004-24.244 34.642v14.859h68.953v32.266H236.146v-1.105l-.542.793-23.602 33.695.539.748a104.5 104.5 0 0 0 30.206 27.38l-.529.712-18.406 25.565-.722-.507a136.5 136.5 0 0 1-30.042-26l-.32-.38-12.746 18.196.313.47a158.9 158.9 0 0 0 37.426 29.766l.569-.77 77.832-108.054zm126.603-175.091a191 191 0 0 0-10.887-17.977c-19.43-28.436-45.852-50.891-76.795-65.358l-.696-.242 12.61-18.004.444.155c37.188 18.184 68.302 46.94 89.4 82.327l-.2.25-13.568 19.37z" style="fill:#9e5bb4;fill-opacity:1;fill-rule:nonzero;stroke:none" transform="matrix(1.33333 0 0 -1.33333 -.667 1121.853)"/></svg>