<svg xmlns="http://www.w3.org/2000/svg" viewBox="0 0 218.85 271.61"><defs><clipPath id="a" clipPathUnits="userSpaceOnUse"><path d="M0 220h220V0H0Z"/></clipPath></defs><g clip-path="url(#a)" transform="matrix(1.33333 0 0 -1.33333 -37.242 282.473)"><path d="M0 0v10.086c-5.727 0-12.835 2.078-19.59 5.492-7.149 3.613-13.463 8.681-18.435 14.961v.078h.089c7.968 4.483 12.783 10.724 14.715 18.951 1.991 8.482.711 18.783-3.878 30.573-2.335 6-5.257 11.754-8.685 17.203l-11.913-10.961c4.001-3.07 8.536-9.157 11.868-15.914 3.919-7.947 5.643-15.893 5.178-22.414-.246-3.437-1.301-6.768-3.232-9.623a19 19 0 0 0-7.729-6.582c3.228-9.392 14.11-26.101 34.641-29.519h.078v-.067c.536-7.181-.665-14.394-3.552-20.992-1.854-4.236-4.676-8-8.293-10.881-4.315-3.437-9.543-5.535-15.017-6.208a52 52 0 0 1 3.361-2.41C-2.97-34.854 0-10.366 0 0" style="fill:#000;fill-opacity:1;fill-rule:nonzero;stroke:none" transform="translate(106.912 114.51)"/><path d="M0 0c3.325 6.742 7.845 12.843 11.867 15.914L-.045 26.875A102 102 0 0 1-8.63 9.717c-4.56-11.801-5.872-22.089-3.878-30.573 1.928-8.226 6.725-14.423 14.715-18.951h.09l-.068-.078c-4.937-6.33-11.257-11.422-18.423-15.04-6.747-3.407-13.874-5.447-19.59-5.492v-10.086c0-10.367 2.959-34.854 30.404-38.215a52 52 0 0 1 3.362 2.409c-5.478.676-10.713 2.767-15.028 6.208-3.615 2.883-6.435 6.648-8.294 10.883-2.893 6.593-4.088 13.809-3.552 20.99v.067h.067c20.531 3.419 31.38 20.173 34.64 29.519a19.05 19.05 0 0 0-7.727 6.592c-1.933 2.855-2.992 6.186-3.243 9.625C-5.633-15.893-3.909-7.925 0 0" style="fill:#000;fill-opacity:1;fill-rule:nonzero;stroke:none" transform="translate(148.96 184.98)"/><path d="M0 0a50 50 0 0 1-1.389-3.945c21.415-16.997 29.75-45.68 20.78-71.507-8.971-25.826-33.293-43.167-60.634-43.228-27.34-.061-51.739 17.17-60.826 42.956-9.086 25.787-.879 54.508 20.461 71.6a51 51 0 0 1-1.379 3.967c-24.494-17.984-34.649-49.692-25.159-78.56 9.49-28.867 36.478-48.365 66.865-48.307S16.02-107.367 25.4-78.464C34.781-49.561 24.507-17.891-.056 0Z" style="fill:#ff2b07;fill-opacity:1;fill-rule:nonzero;stroke:none" transform="translate(151.414 180.127)"/><path d="M0 0a84 84 0 0 0 1.054 3.945 70.18 70.18 0 0 1-47.07 0c.381-1.289.74-2.612 1.053-3.945C-30.946 5.257-14.901 5.589 0 0" style="fill:#ff2b07;fill-opacity:1;fill-rule:nonzero;stroke:none" transform="translate(132.44 185.853)"/><path d="M0 0h-4.676v-3.12h4.507c.846 0 1.474.121 1.874.363.398.242.604.629.604 1.148v.109c0 .533-.183.92-.545 1.148C1.415-.121.822 0 0 0m-4.676-5.745v-3.942h-3.069V2.637H.084c1.728 0 3.046-.364 3.951-1.102C4.929.81 5.388-.217 5.388-1.537v-.108c0-.932-.228-1.73-.663-2.407-.339-.521-.883-.943-1.608-1.258l2.827-4.377H2.236L-.048-5.745z" style="fill:#000;fill-opacity:1;fill-rule:nonzero;stroke:none" transform="translate(101.215 171.374)"/><path d="M0 0v12.324h12.724V9.687H3.25V7.365h8.556V4.824H3.25V0Z" style="fill:#000;fill-opacity:1;fill-rule:nonzero;stroke:none" transform="translate(113.806 161.686)"/><path d="M0 0v12.326h12.724V9.688H3.25V7.366h8.556v-2.54H3.25V0Z" style="fill:#000;fill-opacity:1;fill-rule:nonzero;stroke:none" transform="translate(113.806 142.842)"/><path d="M0 0h13.229v-2.638h-9.98v-2.115h8.713v-2.542H3.249v-2.394h10.09v-2.637H0Z" style="fill:#000;fill-opacity:1;fill-rule:nonzero;stroke:none" transform="translate(93.47 155.167)"/><path d="M0 0q-1.358 1.009-4.255 1.397l-2.951.39q-2.48.336-2.48 1.403v.073q0 .679.769.991.77.312 2.454.312h.262a10.5 10.5 0 0 0 2.924-.412q1.43-.411 2.525-1.163L.751 5.29a11 11 0 0 1-3.19 1.422q-1.644.425-3.898.426h-.272q-3.168 0-4.82-1.019t-1.652-2.983v-.073q0-1.71 1.272-2.688t3.951-1.34l2.951-.389q1.594-.208 2.29-.552.699-.344.698-.923v-.082q0-.697-.864-1.023-.865-.326-2.694-.326h-.226q-1.775 0-3.549.467-1.774.466-3.032 1.272l-1.277-2.481a14 14 0 0 1 3.612-1.417q1.91-.457 4.264-.457h.244q3.458 0 5.129.991 1.67.992 1.67 3.037v.073Q1.358-1.01 0 0" style="fill:#000;fill-opacity:1;fill-rule:nonzero;stroke:none" transform="translate(41.493 29.446)"/><path d="M0 0q0-4.742-4.581-4.742h-.144q-4.734 0-4.734 4.742v6.084h-3.332V.2q0-7.804 8.066-7.804h.144q7.912 0 7.912 7.804v5.884H0Z" style="fill:#000;fill-opacity:1;fill-rule:nonzero;stroke:none" transform="translate(58.858 30.174)"/><path d="M0 0q-.001-.806-.605-1.183-.607-.375-1.902-.375h-4.689v3.377h4.879q1.24 0 1.779-.362T0 .262Zm-1.855 4.68h-8.672V-8.673h3.331v4.264h5.341q2.626 0 3.906 1.096Q3.333-2.219 3.333.026v.218q0 2.245-1.282 3.34Q.771 4.68-1.855 4.68" style="fill:#000;fill-opacity:1;fill-rule:nonzero;stroke:none" transform="translate(76.973 31.578)"/><path d="M0 0h9.641v2.742H0v2.3h11.017v2.86H-3.331V-5.45h14.456v2.851H0Z" style="fill:#000;fill-opacity:1;fill-rule:nonzero;stroke:none" transform="translate(87.081 28.355)"/><path d="M0 0q-.001-.85-.647-1.245-.649-.394-2.043-.394h-4.879v3.377h5.062q1.339 0 1.923-.376T0 .108Zm3.331-.036v.108q0 2.173-1.471 3.35t-4.278 1.177H-10.9V-8.754h3.331v4.264h5.006l2.491-4.264h4.017L.887-4.01Q3.33-2.943 3.331-.036" style="fill:#000;fill-opacity:1;fill-rule:nonzero;stroke:none" transform="translate(112.948 31.66)"/><path d="M0 0h-.146q-2.606 0-4.177 1.117-1.571 1.119-1.57 2.974v.108q0 1.857 1.575 2.979t4.172 1.123H0q1.845 0 3.183-.476 1.334-.475 2.655-1.597l2.047 2.144a10.1 10.1 0 0 1-3.481 2.101q-1.924.68-4.404.679h-.146q-2.67 0-4.738-.869-2.07-.87-3.209-2.449-1.14-1.58-1.141-3.616v-.145q0-2.037 1.141-3.617 1.14-1.58 3.209-2.448 2.068-.87 4.738-.869H0q5.041 0 8.012 2.915L5.957 2.218Q3.522 0 0 0" style="fill:#000;fill-opacity:1;fill-rule:nonzero;stroke:none" transform="translate(128.611 25.432)"/><path d="M0 0q0-1.847-1.471-2.961t-3.906-1.112h-.145q-2.436 0-3.908 1.112Q-10.9-1.847-10.9 0v.108q.001 1.866 1.475 2.993 1.477 1.127 3.903 1.127h.145q2.425 0 3.901-1.127Q.001 1.974 0 .108Zm.924 5.178q-1.143.896-2.761 1.398-1.622.503-3.54.503h-.145q-1.918 0-3.54-.507-1.62-.508-2.76-1.412a6.4 6.4 0 0 1-1.781-2.205A6.35 6.35 0 0 1-14.24.126v-.145q0-2.036 1.095-3.611 1.096-1.576 3.078-2.439 1.983-.866 4.545-.866h.145q2.56 0 4.544.861 1.982.86 3.077 2.421Q3.341-2.092 3.34-.073v.262A6.23 6.23 0 0 1 .924 5.178" style="fill:#000;fill-opacity:1;fill-rule:nonzero;stroke:none" transform="translate(152.992 29.505)"/><path d="M0 0q0-.806-.606-1.183-.608-.375-1.902-.375h-4.689v3.377h4.88q1.239 0 1.779-.362Q0 1.095 0 .262Zm-1.855 4.68h-8.672V-8.673h3.33v4.264h5.342q2.625 0 3.905 1.096Q3.331-2.219 3.332.026v.218q0 2.245-1.282 3.34Q.77 4.68-1.855 4.68" style="fill:#000;fill-opacity:1;fill-rule:nonzero;stroke:none" transform="translate(170.572 31.578)"/><path d="m0 0 2.652 5.983.353 1.025h.263l.353-1.025L6.255 0Zm5.901 8.438H.561L-5.541-4.915h3.378l1.058 2.39h8.456l1.05-2.39h3.603z" style="fill:#000;fill-opacity:1;fill-rule:nonzero;stroke:none" transform="translate(180.065 27.82)"/><path d="M0 0q0-.917-.624-1.404-.623-.487-1.795-.487h-2.174v3.912h2.174q1.176-.001 1.798-.485Q0 1.051 0 .135Zm-2.229 3.485H-6.28v-6.836h4.051q1.908 0 2.924.864Q1.71-1.622 1.71 0v.135q0 1.621-1.015 2.485-1.016.865-2.924.865" style="fill:#000;fill-opacity:1;fill-rule:nonzero;stroke:none" transform="translate(71.225 11.668)"/><path d="M0 0v1.33h4.937v1.404H0v1.177h5.641v1.465h-7.346V-1.46h7.401V0Z" style="fill:#000;fill-opacity:1;fill-rule:nonzero;stroke:none" transform="translate(77.924 9.777)"/><path d="M0 0h4.936v1.404H0v1.177h5.641v1.465h-7.347V-2.79h7.402v1.46H0Z" style="fill:#000;fill-opacity:1;fill-rule:nonzero;stroke:none" transform="translate(94.483 11.107)"/><path d="m0 0-1.511.199q-1.27.171-1.27.719v.037q0 .347.394.507t1.256.16h.134q.765 0 1.497-.212.733-.21 1.294-.595l.769 1.178a5.6 5.6 0 0 1-1.634.728q-.84.217-1.995.217h-.139q-1.623 0-2.469-.522-.845-.52-.845-1.526V.853q0-.876.65-1.376.652-.501 2.024-.687l1.512-.199q.815-.107 1.172-.282.357-.178.357-.473v-.042q0-.357-.444-.523-.441-.167-1.377-.167h-.117q-.908 0-1.817.237-.908.239-1.552.652l-.654-1.27a7.2 7.2 0 0 1 1.85-.726 9.4 9.4 0 0 1 2.183-.233h.125q1.77 0 2.625.507.856.507.856 1.555v.037q0 .904-.696 1.42Q1.483-.199 0 0" style="fill:#000;fill-opacity:1;fill-rule:nonzero;stroke:none" transform="translate(107.837 12.382)"/><path d="M0 0q0-.412-.311-.605-.31-.192-.972-.192h-2.402V.932h2.498q.636 0 .911-.185Q-.001.561 0 .135Zm-.95 2.396h-4.44v-6.835h1.705v2.182H-.95q1.344 0 2 .561.656.56.656 1.711v.111q0 1.149-.656 1.71-.657.56-2 .56" style="fill:#000;fill-opacity:1;fill-rule:nonzero;stroke:none" transform="translate(119.407 12.757)"/><path d="m0 0 1.357 3.063.182.524h.134l.181-.524L3.202 0Zm.287 4.319-3.124-6.836h1.73l.542 1.224h4.329l.537-1.224h1.845L3.021 4.319Z" style="fill:#000;fill-opacity:1;fill-rule:nonzero;stroke:none" transform="translate(125.764 10.834)"/><path d="M0 0h-.074l-.445.945L-3.3 6.113h-3.217V-.723h1.706v6.114h.08l.444-.951 2.781-5.163h3.217v6.836H0Zm-3.852 6.957-.931.282q.218.719.581 1.048.365.33.939.329.376-.001.757-.146.384-.147.674-.289.288-.144.437-.144.255 0 .391.122.138.123.231.439l.926-.154q-.278-.81-.604-1.121-.328-.31-.911-.31-.375 0-.756.145a8 8 0 0 0-.669.29q-.291.144-.447.144a.46.46 0 0 1-.347-.133q-.126-.132-.271-.502" style="fill:#000;fill-opacity:1;fill-rule:nonzero;stroke:none" transform="translate(141.394 9.04)"/><path d="m0 0 1.357 3.063.182.524h.134l.181-.524L3.202 0Zm3.021 4.319H.287l-3.124-6.836h1.73l.542 1.224h4.329l.537-1.224h1.845z" style="fill:#000;fill-opacity:1;fill-rule:nonzero;stroke:none" transform="translate(148.91 10.834)"/></g></svg>