<svg xmlns="http://www.w3.org/2000/svg" xml:space="preserve" viewBox="1 1 159.15 250"><path d="M224.316 118.61c-51.863 18.905-90.155 43.623-111.967 65.922-18.936 19.357-24.72 40.229-24.72 69.796v482.766h415.634V254.328c0-29.567-5.786-50.44-24.721-69.796-21.813-22.299-60.103-47.017-111.966-65.922-62.68-22.845-71.131-34.413-71.131-34.413s-8.448 11.568-71.13 34.413" style="fill:#231f20;fill-opacity:1;fill-rule:nonzero;stroke:none" transform="matrix(.3829 0 0 -.3829 -32.554 283.24)"/><path d="M105.078 447.961v271.684h380.735V447.968h-70.312s.183 1.818.09 3.18c-.09 1.364.637 2.637 2.182 3.636s1.454 3.362.454 4.272c-1 .908-2.271 2.454-2.726 5.089s-.729 3.635-2.907 4.726c-2.183 1.09-3.637 1.727-5.998-1.364-2.366-3.089-3.091-5.452-5.455-5.543 0 0 .182 2.363-.181 3.817-.364 1.453-.728 1.909-1.818 2.272-1.09.364-1.182 1.818-3.544 5.18-2.363 3.363-4.635 6.27-6.816 6.998s-5.817.364-9.361.545l-5.273.273s.274 2.726-1.634 5.453c-1.909 2.727-5.182 2.727-5.182 2.727s.366.09-1.544 1.817-4.906.91-4.906.91-1.001.817-2.911.635c-1.907-.182-1.633.273-3.542.182-1.91-.09-2.818-1.181-2.818-1.181s-2.363 2.09-5 3.272c-2.634 1.18-5.36 1.18-7.905 2.725s-5.735 3.55-6.908 5.545c-.908 1.545-2.612 4.744-5.543 7.724-5.452 5.544-8.907 5.908-8.907 5.908s-1.09 8.542-6.633 15.087c-5.545 6.543-9.969 9.43-14.178 11.178-4.818 1.999-6.362 3.09-7.362 5.27 0 0 2.636-.272 5.18-.635 2.545-.364 4.465-.026 5.272 3.271 1.09 4.453 2.18 5.999 3.452 8.634 1.273 2.636 2.636 5.998 2.728 8.27.09 2.273.18 3.726.18 3.726.819.91 1.364 2.636 1.364 5.545v4.997c1.09.273 1.545 1.546 2.09 1.546.546 0 1.274 1.454 1.274 3.272s-1.091 2.908-.91 3.907c.182 1-.636 2.272-1.364 3.09-.727.819.455 1.364.364 2.182s-1.636 2-2.725 2.635c-1.09.637-1.82 2.454-2.636 3.818-.819 1.362-2.181 1.362-3.454 1.362s-2.09 1-2.818 1.364c-.727.363-1.635.636-2.09 1.363s-1.999 2.09-4.09 2.181c-2.09.09-4.544-.817-6.543-1-2-.181-3.908 0-5.18.546-1.273.545-2.545-.636-3.636-2.09-1.09-1.454-2.18-2-2.907-3.09-.728-1.091-2-1.727-3.363-2.273-1.364-.545-2.09-2.18-2.818-2.453-.727-.273-2.362-1.727-2.362-3.18 0-1.455-.546-2.273-1.364-4.818s-.181-3.181.545-4.544c.727-1.363-.181-2-.726-2.908-.546-.91 0-2.272.545-3.454.544-1.18.454-2.544.181-3.453-.272-.91-.726-1.636.091-2.908.818-1.273 1.09-2.272 1.09-5.635s-.908-4.544-2.817-6.362c-1.908-1.818-5.271-3.362-11.633-6.18s-7.815-5.634-7.815-5.634c-9.634-5.635-12.997-12.815-17.45-21.267s-6.452-13.36-6.998-26.265c-.545-12.905 3.818-21.902 5.908-27.537s4.726-11.906 4.726-11.906-4.363-2.999-6.09-7.997c-.986-2.856-.271-6.453-.271-6.453H105.548z" style="fill:#fcd011;fill-opacity:1;fill-rule:nonzero;stroke:none" transform="matrix(.3829 0 0 -.3829 -32.554 283.24)"/><path d="M385.874 274.69c1.731 1.166 3.158 2.397 4.272 3.692v2.907s6.543-1.998 14.177-7.27c7.633-5.269 8.61-9.68 8.61-9.68a73 73 0 0 0-8.327-4.958l.262.643s.727 2.455-.545 6.542c-1.273 4.09-7.726 6.003-10.907 6.818-3.543.91-6.996 1.09-6.996 1.09z" style="fill:#937c08;fill-opacity:1;fill-rule:nonzero;stroke:none" transform="matrix(.3829 0 0 -.3829 -32.554 283.24)"/><path d="M204.563 304.193s4-.457 10.634-3.453c3.937-1.78 6.635-3.272 12.178-5.817s13.45-5.27 21.267-5.728c7.815-.452 17.721.638 24.084 2.276 6.36 1.633 11.814 2.996 16.721 3.088 4.908.091 10.27-.453 19.45-.725 9.178-.273 11.723.725 15.631 1.906s7.907.91 12.633 0c4.726-.908 8.179-3.363 11.45-5.271 3.273-1.908 8.634-2.636 12.087-3.636 3.454-.998 5.454-1.998 5.454-1.998l.71-.387c-5.484-1.681-12.167-3.266-20.159-4.43-25.313-3.684-84.156-6.726-123.236-.544-21.928 3.466-33.727 8.537-39.86 12.32-.622.382-2.31 1.48-2.31 1.48 0 .664 1.175 2.805 2.884 4.131 1.933 1.507 4.998 3.443 9.778 5.551 1.739.767 3.243 1.418 6.606 1.783 1.039.11 2.19.179 3.363.21zM269.726 361.358s.545-2.091.454-5l-.09-.452s.837-11.937-2.09-22.63c-4.454-16.27-11.452-18.721-11.452-18.721s4.283 1.946 7.585 5.674l.686.14s.909-.089.272-1.362c-.727-1.454-1.727-2.452-4.362-4.272-2.636-1.818-6.362-2.818-12.45-3.454-6.09-.635-6.18-1.271-6.18-1.271l-.455-.546c-3.454.725-4.908 1.91-6.816 1.455-1.91-.454-3.943-2.226-5.925-1.023-3.591 2.182-6.883 5.013-10.161 8.292a41 41 0 0 0-3.76 4.38s2.215 3.164 1.488 16.07c-.41 7.263.363 10.087.363 10.087 3.635-.364 6.452-.636 7.725 1.818 1.272 2.452 1.908 7.27-.091 10.997-2 3.726-4.09 5.998-4.09 5.998 3.999 2.817 3.908 7.905 1.363 10.541s-7.27 2.454-9.27-.182c-1.999-2.634-1-6.452-1-6.452-2.544-1.546-3.634-5.453-4.18-9.361-.545-3.906-1.726-4.998-2.363-7.27-.635-2.273-2.09-2.543-2.301-.635-.28 2.51-.474 4.901-.497 7.18-.104 10.716 2.478 18.971 5.222 23.84 3.21 5.694 5.392 6.515 9.936 9.059 4.545 2.544 7.271 3.725 14.268 1.906 6.998-1.816 11.452-3.998 17.996-9.451 6.543-5.452 8.542-8.726 8.542-8.726s-1.454 3.636-4.453 7.001c-2.999 3.36-3.545 4.45-1.636 3.907 1.909-.546 5.998-2.363 10.906-11.362 4.908-8.996 6.816-15.903 6.816-15.903zm-28.991-15.177c-3.008 1.78-5.453 2.544-6.725.364-1.273-2.182-.728-4.09 1.272-5.09s3.09-.82 6.18-2.636c3.09-1.819 4.908-1.635 7.452-1.454 2.545.18 4.272-1.82 5.544.364 1.273 2.18 1.909 3.818.545 5.18s-1.999.998-4.453.726c-2.454-.274-5.362-.09-9.815 2.546m-.546 31.352c-2.756 1.578-5.815-.634-5.815-2.636 0-1.998.454-2.998 2.362-3.816s3.363-.544 6.18-1.907 5.09-1.546 8.18-1.546 4.544-.18 6.18.636c1.635.818 1.817 2.546 1.454 4.454-.364 1.909-1.91 2.18-4.544 1.909-2.636-.273-4.181-.638-6.907 0-2.727.636-5.18 1.816-7.09 2.906" style="fill:#fcd011;fill-opacity:1;fill-rule:nonzero;stroke:none" transform="matrix(.3829 0 0 -.3829 -32.554 283.24)"/><path d="M223.922 301.466c1.09.272 1.453 1.092 1.453 1.092l.273.362s1.272 1.182 2 2.636c.727 1.454-.273 2.09-1.727 2.635 0 0 .017-1.354-1.636-3.363-1.272-1.544-3.636-1.633-3.636-1.633s.91-.913 2.91-2.003zM246.642 298.922c-4.18-.546-8.18 1.27-8.18 1.27l-.726.276s-.91 1.636-1.818 2.816c-.909 1.182-.455 1.182 2.363.452 2.818-.724 6.726-.906 10.361-.452 3.635.452 4.725 1 5.634.452.91-.54-3.454-3.178-6.634-4.906z" style="fill:#fcd011;fill-opacity:1;fill-rule:nonzero;stroke:none" transform="matrix(.3829 0 0 -.3829 -32.554 283.24)"/><path d="M204.563 304.193s4-.457 10.634-3.453c3.937-1.78 6.635-3.272 12.178-5.817s13.45-5.27 21.267-5.728c7.815-.452 17.721.638 24.084 2.276 6.36 1.633 11.814 2.996 16.721 3.088 4.908.091 10.27-.453 19.45-.725 9.178-.273 11.723.725 15.631 1.906s7.907.91 12.633 0c4.726-.908 8.179-3.363 11.45-5.271 3.273-1.908 8.634-2.636 12.087-3.636 3.454-.998 5.454-1.998 5.454-1.998l.71-.387c8.051 2.473 13.515 5.155 16.742 7.015 0 0-1.365 1.641-3.001 2.371-1.637.725-2.819.633-3.817-1.365-1-2-2.182-3.636-5.182-2.092-2.999 1.546-5.27 2.546-9.087 3.092s-7.998 1.909-11.36 4.907c-3.362 3-5.092 4.182-8.998 5.452-3.908 1.274-6.725 1.454-8.361 1.274-1.636-.182-3.272-.728-6.089-.909-2.818-.183-3.998.273-7.272-.909-3.27-1.18-5.815-2.544-12.086-1.18-6.27 1.362-8.18 2.27-11.542 1.816s-6.49-1.054-12.088-2.09c-4.907-.91-11.856-2.849-11.856-2.849-3.474-2.49-16.706-10.937-32.312-7.572-10.365 2.234-18.116 6.403-24.556 12.128 0 0-1.661.656-5.071 1.11-1.86.25-4.482.363-6.998.301z" style="fill:#937c08;fill-opacity:1;fill-rule:nonzero;stroke:none" transform="matrix(.3829 0 0 -.3829 -32.554 283.24)"/><path d="M272.035 318.097c1.629 2.74 3.734 6.43 5.356 11.239 3.062 9.085 7.149 28.355-3.393 49.2-10.543 20.84-26.659 27.263-36.717 27.746-7.626.37-22.978-3.004-31.505-18.417-9.452-17.087-6.91-43.926 3.635-61.194 5.275-8.639 10.122-13.116 14.453-16.485 1.511-1.178.784-2.268-.124-3.449-.909-1.181-2.328-2.1-3.844-1.14-4.57 2.89-11.066 8.382-17.15 18.954-9.862 17.137-13.45 43.986-9.088 59.072 5.438 18.807 14.374 28.128 27.264 32.172 9.27 2.91 28.537 3.82 44.169-11.086 15.632-14.905 23.632-31.977 23.993-54.53.248-15.486-4.993-28.692-10.772-37.2 0 0-1.042.848-1.042 3.028s1.453 3.181 1.453 3.181-2.362.727-2.453-2c-.091-2.725.044-6.943.044-6.943l-.862-.056s-2.181.548-3.363 2.276c-1.181 1.724-.363 4.542-.363 4.542zm7.415 6.906c-.754 0-1.364-.589-1.364-1.315 0-.729.61-1.318 1.364-1.318.753 0 1.362.589 1.362 1.318 0 .726-.61 1.315-1.362 1.315m4.817 39.581c-.753 0-1.364-.59-1.364-1.318s.61-1.318 1.364-1.318c.752 0 1.363.59 1.363 1.318s-.61 1.318-1.363 1.318m.544-16.474c-.843 0-1.526-.66-1.526-1.475s.683-1.477 1.526-1.477c.844 0 1.527.661 1.527 1.477 0 .814-.683 1.475-1.527 1.475" style="fill:#fcd011;fill-opacity:1;fill-rule:nonzero;stroke:none" transform="matrix(.3829 0 0 -.3829 -32.554 283.24)"/><path d="M275.452 310.19s-2.181.547-3.363 2.275c-1.181 1.724-.363 4.542-.363 4.542l.31 1.09c-1.946-3.272-2.855-7.087-.583-9.09 1.405-1.235 3.453-.18 4.861 1.238zM225.375 302.558s-.363-.82-1.453-1.092l-.364-.274c1.465-.796 2.908-1.09 4.817.73 1.908 1.814 2.544 4.09 2.544 4.09s-1.09.998-2.362-.819-2.09-2.181-2.909-2.273zM246.642 298.922c-4.18-.546-8.18 1.27-8.18 1.27l-.726.276s-1.363.724-2.818 2.362c-1.454 1.636-2.363 2.272-2.363 2.272s-1-2.455-2.272-3.818c-1.272-1.364-1.908-1.636-1.908-1.636s3.635-1.816 7.18-2.545c3.544-.725 8.906 0 12.087 1.727z" style="fill:#937c08;fill-opacity:1;fill-rule:nonzero;stroke:none" transform="matrix(.3829 0 0 -.3829 -32.554 283.24)"/><path d="M250.973 306.17c-1.552-.327-3.276-.523-5.21-.584-1.756-.055-3.44-.036-5.036.121l.553.395s1.181.635 1.909.818l.363.363c4.363-.09 8.089.817 12.088 2.727l-.364-.729c-.91-.998-3.272-2.544-3.272-2.544zM356.7 373.808s1.092-2.363 1.637-3.363c.546-.998.998.546 1.361 1.273.365.727 1.637 1.09 2.638 1.365.998.272 1.453-.548 1.726-.91.273-.363 1.18-1.274 2.09-1.182.909.09 1.909.273 1.364 1.636 0 0 .908-.273.908-1.546 0-1.271.272-2.18 1.09-2.544s2.909-.817 2.272.364c-.636 1.182-.817 2.09 0 2.817.818.727.823 2.554-.362 3-2.182.817-4-.637-4-.637s-.257 1.452-1.725 1.636c-2.91.364-4-.91-4-.91s-3.545.547-4.999-1" style="fill:#fcd011;fill-opacity:1;fill-rule:nonzero;stroke:none" transform="matrix(.3829 0 0 -.3829 -32.554 283.24)"/><path d="M363.79 358.994c-1.182 2-2.637 5.182-3.454 6.998-.818 1.82.09 3.274 1.271 3.907 1.181.638 2.819.456 4.092 0 1.27-.452 2.179-1.181 2.634-2.087.454-.91 1.09-2.002-.09-3.274-1.183-1.272-1.728-.636-1.728 0 0 .638-.727 0-1.635-1.09-.908-1.092-1.273-2.726-.364-2.454.91.274 1.362-.183 1-.998-.364-.82-1.727-1.002-1.727-1.002m.183 9.634c-1.178.13-2.182-.727-2.365-1.273-.18-.543 0-1 1.001-.635 1 .362 2 .635 1-.365-1-.998-1.091-1.635-.456-1.543.637.09.91 1.27 1.545 1.816.636.546.91 1.817-.725 2" style="fill:#fcd011;fill-opacity:1;fill-rule:nonzero;stroke:none" transform="matrix(.3829 0 0 -.3829 -32.554 283.24)"/><path d="M371.877 362.538c1.75.5-1.544-3.09-1.454-4.725.092-1.634-.454-2.907-1.363-3.634s-2.273-.638-2.09.181c.182.817.908.546 1.817 1.09.91.546.364 1.27.182 2.908s1 3.636 2.908 4.18" style="fill:#937c08;fill-opacity:1;fill-rule:nonzero;stroke:none" transform="matrix(.3829 0 0 -.3829 -32.554 283.24)"/><path d="M404.868 260.024s.727 2.455-.545 6.542c-1.273 4.09-7.726 6.003-10.907 6.818-3.543.91-6.996 1.09-6.996 1.09l-.546.216c-12.117-8.16-39.194-13.19-78.796-15.574-41.264-2.486-78.521 1.27-100.333 6.18-21.319 4.797-27.992 12.54-27.992 12.54v8.666l-.003.741c-2.718-.613-7.564-2.119-14.002-5.799-8.088-4.622-13.837-11.638-15.44-13.726v-1.002l.45-.42c4.224-3.46 10.708-7.905 19.18-11.18 15.995-6.18 63.257-16.51 115.965-15.45 54.166 1.092 89.429 8.543 107.787 14.725 4.588 1.544 8.552 3.268 11.916 4.99z" style="fill:#fcd011;fill-opacity:1;fill-rule:nonzero;stroke:none" transform="matrix(.3829 0 0 -.3829 -32.554 283.24)"/><path d="M359.428 336.092s-2.728 6.271-4.91 9.089c-2.18 2.818-3.542 4.633-5.452 6.452-1.909 1.82-2.818 2.909-2.818 2.909l-.362.908c-1.274-2.181-2.635-2.636-3.273-2.636-.635 0-.09-1.545.638-2.18.726-.637 2.907-.637 3.452-.547.546.092 2.453-1.726 2.726-3.726.272-1.998.365-3.816 1.909-5.18s2.817-1.545 7.997-5.997z" style="fill:#937c08;fill-opacity:1;fill-rule:nonzero;stroke:none" transform="matrix(.3829 0 0 -.3829 -32.554 283.24)"/><path d="M282.63 485.775s6.817-4.18 16.27-7.998c9.45-3.817 16.54-5.816 16.54-5.816s-1.635-.363-5.271-1.545-7.998-2.09-9.997-3.09c-2-1-3.272-.818-6.09-1-2.817-.181-6.452 0-6.452 0s-.363 2.545-2.272 6.907-4.908 5.635-4.908 5.635.273 1.363 1 2.908 1.18 4 1.18 4" style="fill:#fcd011;fill-opacity:1;fill-rule:nonzero;stroke:none" transform="matrix(.3829 0 0 -.3829 -32.554 283.24)"/><path d="M363.972 489.32c-.915.609-1.729.363-.455-1.182 1.271-1.545 1.725-3 1.635-3.908-.09-.909-.545-1.908 1-2.271 1.546-.364 1.546.726.909 2.907-.636 2.181-2 3.726-3.09 4.453M369.877 485.957c-1.166.908-1.907.545-1.272-.636.637-1.182.182-2.817.727-3.363s2-.91 2.182.09-.819 3.273-1.637 3.909M303.988 571.114c-.628.208-1.634-.546-1.09-.728.546-.182 2.454.273 1.09.728M267.545 568.205s1.182-.182 2.09 1c.909 1.181-.091 2.726-.817 3.09-.727.363-1.273 1.544-.91 2.999.364 1.454-.363 1.727-1.181 1.635-.818-.09-1.636-1.908-1.09-2.908s1.454-2.726 1.999-2.999c.545-.272 1.272-.544.908-1.272-.363-.727-1-1.545-1-1.545" style="fill:#937c08;fill-opacity:1;fill-rule:nonzero;stroke:none" transform="matrix(.3829 0 0 -.3829 -32.554 283.24)"/><path d="M105.078 365.812V254.328c0-27.272 5.351-42.882 19.744-57.596 22.499-22.998 60.94-45.498 105.47-61.727 29.175-10.635 51.38-20.584 65.153-29.07 13.776 8.486 35.977 18.435 65.156 29.07 44.527 16.23 82.967 38.73 105.468 61.727 14.392 14.714 19.744 30.324 19.744 57.596v111.218l.008.287H374.06s.273-4.111-.546-6.929c-.5-1.72-.454-2.092 0-2.546.456-.452 1.09-1.816-1-3.725-2.09-1.908-4.543-1.817-4.543-1.817 13.178-23.54 22.539-29.72 29.355-34.81 6.815-5.087 14.813-10.632 18.359-13.632 3.543-2.996 6.36-3.908 8.905-4.452s2.728-3 2.182-5.272c-.545-2.273-3-2.273-3-2.273s.09-1.544-.635-2.815c-.729-1.273-2-1.363-3.363-1.363-1.364 0-2.273-.82-3.817-1.454-1.546-.638-2.91.634-5 .726s-4.089.272-5.724 1.272c-1.637 1-5.09.728-9.088 1.454-3.998.728-5.998 2.364-5.998 2.364v-2.364s7.45-1.636 17.085-5.996c12.594-5.703 13.996-11.453 13.996-11.453v-22.72s-6.737-13.03-60.345-22.72c-47.26-8.544-111.423-7.998-157.045.181-50.634 9.077-57.074 21.63-57.074 21.63v21.447s6.543 9.27 16.723 15.087c6.745 3.856 11.838 5.443 14.774 6.095l.493.145v5.395s1.818 4.542 14.178 9.994c5.6 2.47 11.537 3.49 16.355 3.86l1.088.131c-2.764 3.198-5.32 6.728-7.81 10.55-9.336 14.34-13.41 31.354-13.674 45.987l-.776.023h-82.77z" style="fill:#fcd011;fill-opacity:1;fill-rule:nonzero;stroke:none" transform="matrix(.3829 0 0 -.3829 -32.554 283.24)"/><path d="M333.096 162.599h17.327v-9.452h-26.778v41.683h26.778v-9.45h-17.327v-6.665h13.693v-9.453h-13.693zM262.45 156.783v28.598h-12.48v-32.234h-9.452v41.683h31.384v-38.047ZM294.2 167.2l3.795 11.354 3.15-9.501zm9.844-6.896 2.378-7.157h9.95l-13.814 41.683h-9.088l-13.935-41.683h9.97l1.028 3.08zM262.625 636.215V624.46h-19.994v75.069c19.994 0 30.416.606 40.958-10.906s9.942-28.809 2.302-39.504c-5.06-7.084-11.412-10.764-19.79-12.347-.962-.182-3.476-.558-3.476-.558m0 42.594v-22.388s1.37.343 1.803.477c3.135.96 4.175 2.416 5.193 3.843 2.22 3.107 3.219 10.015-.777 14.379-1.706 1.863-2.948 2.958-5.698 3.591zM424.94 679.536h-24.432l9.531-17.612-9.413-17.469h27.405v-19.994H367.14l20.176 37.443-20.356 37.626h57.981zM340.238 632.096h19.994v62.708h-19.994v-23.539h-16.904v28.265h-19.993v-75.07h19.993l-.001 26.811h16.905zM193.238 651.953l3.723 10.96 2.935-9.04zm-7.58-22.314 20.21 5.827c1.4-4.31 3.58-11.005 3.58-11.005h21.017l-24.368 75.069h-17.813l-25.503-75.07h21.118z" style="fill:#231f20;fill-opacity:1;fill-rule:nonzero;stroke:none" transform="matrix(.3829 0 0 -.3829 -32.554 283.24)"/><path d="M455.415 410.634h-15.741v7.467h23.208v-22.4h-38.143v37.333h53.075v-52.267H424.74v7.466h45.609v37.334h-38.142v-22.4h23.215zm30.398-37.072v66.93900000000001h-96.486s-4.182-1.923-7.725 0h-7.36s.544-3.497-.273-7.467h43.667v-52.267H364.56v7.466h45.609v37.334h-38.142v-22.4h23.214l-.004 7.467h-15.743v7.467h23.209v-22.4H364.56v30.092a7.024 7.024 0 0 0-7.103 4.907v-49.933h-3.664c.908-2.403 2.089-4.778 2.089-4.778 3 1.908 5.545 1.092 5.545 1.092s.453.99 3.543.634c2.362-.272 2.728-.998 2.728-.998s2.27.816 4.906-.092 1.454-3.323 1.454-3.323h111.763zM376.312 231.078c-2.021-.473-4.132-.942-6.343-1.407l-.127 16.085q3.458.725 6.485 1.436zM381.906 232.452q-1.54-.397-3.164-.795l-.17 16.072q1.747.428 3.334.838zM387.974 234.114q-1.326-.383-2.724-.77l.082 16.143q1.427.4 2.696.772zM397.296 237.114q-1.607-.576-3.372-1.157l-.251 16.078c1.247.421 2.45.858 3.607 1.3zM175.485 234.773c2.08-.643 4.318-1.29 6.725-1.936l.119 15.483c-2.489.644-4.8 1.29-6.916 1.926zM170.156 236.534q1.466-.516 3.065-1.04l-.437 15.573q-1.478.479-2.797.949zM156.825 258.215a96 96 0 0 1 2.018-1.165l.096-15.814q-1.12.57-2.088 1.108zM163.82 254.52q1.151-.53 2.36-1.037l.041-15.48q-1.306.513-2.49 1.016zM184.498 232.235c5.671-1.452 12.225-2.884 19.788-4.24 46.455-8.33 110.664-8.404 156.142-.182q3.701.668 7.104 1.354l.063 16.129c-18.516-3.728-45.742-7.43-82.64-8.172-38.937-.787-76.828 4.787-100.42 10.639zM340.386 276.64c-2.115-.244-4.4-.48-6.835-.714l-.117-12.069q3.751.417 7.262.874zM353.108 266.626q-1.474-.263-3.006-.514l.051 11.866q1.536.256 3.002.528zM360.769 268.145a171 171 0 0 0-3.028-.64l-.118 11.903q1.585.346 3.082.711zM347.24 265.658c-1.398-.215-2.83-.42-4.293-.624l-.003 11.914c1.48.18 2.86.366 4.126.552zM331.192 275.707c-28.403-2.555-74.76-4.024-108.122 1.253a210 210 0 0 0-10.75 1.974l-.075-12.192c21.23-4.16 55.754-7.431 94.68-5.086q13.182.792 24.312 1.964zM209.914 267.212q-1.346.282-2.61.565-2.031.459-3.878.949l-.003 12.354a156 156 0 0 1 6.498-1.62zM185.126 276.125a44 44 0 0 1 2.266-1.309l.027 11.994q-1.142.543-2.15 1.073zM190.99 273.041q1.059-.478 2.245-.96l.063 12.246q-1.14.43-2.191.86zM200.436 281.933q-1.902.567-3.622 1.147l-.114-12.304a83 83 0 0 1 3.877-1.25zM143.752 410.634h-15.743v7.467h23.208v-22.4h-38.14v37.333h53.074v-52.267h-53.075v7.466h45.609v37.334h-38.143v-22.4h23.216zm-38.659-37.332h83.021l.98-.048c.197 2.616.525 5.112.972 7.453l-.68.06h-16.13v7.466h18.039l.703.004a64 64 0 0 0 2.905 7.444l-.971.02h-20.676v37.333h39.033s1.272 1.756 2.999 2.574c0 0-1 1-1.182 2.273-.181 1.272.183 2.62.183 2.62H105.094l-.016-.236v-66.65z" style="fill:#937c08;fill-opacity:1;fill-rule:nonzero;stroke:none" transform="matrix(.3829 0 0 -.3829 -32.554 283.24)"/><path d="M201.02 418.1h-12.83v-7.466h15.742l.027-.863a60.5 60.5 0 0 1-4.933-6.612l-.892.008h-17.41v22.4h23.62s-2.598-3.162-3.324-7.466z" style="fill:#937c08;fill-opacity:1;fill-rule:nonzero;stroke:none" transform="matrix(.3829 0 0 -.3829 -32.554 283.24)"/><path d="m241.06 256.54-6.035-2.37 6.52-4.571-9.711-5.64-1.095 1.887 6.761 3.926-7.052 4.943 9.815 3.855zM254.95 257.697l-9.816-5.31 6.98-4.214-5.017-4.001 1.36-1.703 7.466 5.95s-4.547 2.748-6.398 3.865l6.461 3.492zM277.342 243.154l10.397 13.89 5.454-10.616-1.94-.998s-2.263 4.404-3.858 7.512l-8.307-11.094zM333.907 257.769l-3.344-8.36-6.98 8.505-6.833-12.433 1.91-1.05 5.282 9.609c2.043-2.492 7.275-8.867 7.275-8.867l4.716 11.785zM339.942 258.425l3.563-11.051 2.076.669-3.561 11.049zM204.867 255.418l-11.451-3.211-4.787 10.482 12.36 3.03zm-4.447 3.806-5.453 2.107-.786-2.034 5.453-2.108zm-8.712 1.975 2.917-6.387c1.949.546 5.005 1.405 7.362 2.065l-2.358 6.265c-2.042-.502-5.32-1.307-7.921-1.943M221.578 254.86l-.286-2.16-5.012.666 4.974-5.867-1.664-1.41-7.756 9.148 11.633 5.333.909-1.982s-3.827-1.755-6.956-3.192zM260.431 242.429l-1.483 1.6 13.96 12.94 1.235-15.269-7.753 6.241zm7.57 7.016c.776-.623 1.79-1.44 3.56-2.864l-.465 5.733c-1.117-1.034-1.558-1.442-3.095-2.869M297.7 249.99l7.125 7.416 7.853-5.743-5.38-8.361zm3.341.331 5.647-3.934c1.07 1.66 2.046 3.18 3.043 4.727-1.55 1.138-3.187 2.333-4.654 3.407zM355.29 248.286l-2.043-.768-4.653 12.36 2.04.768 1.84-4.909 6.516 6.324 1.52-1.569-5.434-5.267 8.18-1.872-.485-2.126-9.391 2.137zM377.595 259.611l4.476-5.667 1.713 1.353-9.014 11.415-1.713-1.35 3.159-4-4.993-2.368-4.152 5.034-1.681-1.388 8.869-10.76 1.682 1.387-3.28 3.98z" style="fill:#231f20;fill-opacity:1;fill-rule:nonzero;stroke:none" transform="matrix(.3829 0 0 -.3829 -32.554 283.24)"/><path d="M278.726 392.988c.821-1.56 1.957-3.008 2.905-4.64a69.6 69.6 0 0 0 8.405-22.802c.411-2.28 1.32-3.098 1.775-1.734s-.273 6.36-2.727 13.542c-2.454 7.178-5.452 12.632-7.27 15.084-1.818 2.454-3.905 2.1-3.088.55M207.654 338.182c-.465-1.102-1.303.771-1.474 1.26-1.274 3.649-2.228 7.488-3.034 11.346-.31 1.483.418 1.3 1.872.028s3.946-2.829 3.636-6.09c-.32-3.347-.636-5.682-1-6.544M205.291 352.179s.818 2.544 1.908 4.271c1.09 1.728 2.727 2.726 2.727.09s-.727-5.271-.727-6.453-.364-.273-1.364.456c-1 .726-2.544 1.636-2.544 1.636M209.38 362.448c-.655-.083-.817-.454-1.09-1.818-.272-1.363.545-1.272.909-1.272.363 0 .908 3.18.182 3.09M213.652 370.355s-1.546.274-2.362-.545c-.819-.817-.456-1.909-.456-1.909s1.728 2.363 2.818 2.454" style="fill:#fcd011;fill-opacity:1;fill-rule:nonzero;stroke:none" transform="matrix(.3829 0 0 -.3829 -32.554 283.24)"/><path d="M216.741 374.414s-.303-.606-.06-1.696c.243-1.091.364-1.334.364-1.334l.06-.485c-.999 0-2.18.728-2.09 2.184.067 1.052.928 1.9 1.859 1.85z" style="fill:#937c08;fill-opacity:1;fill-rule:nonzero;stroke:none" transform="matrix(.3829 0 0 -.3829 -32.554 283.24)"/><path d="M212.925 374.897s-.546 2.636 2.09 3.274c2.636.636 5.272-.364 6.271-3.182.701-1.976.364-3.998-.909-4.36 0 0 .862 4.527-2.272 5.542-3.09 1-3.271-1.09-5.18-1.274M219.196 366.628s1.999-2.182 3.453-5.27c1.454-3.091 2.09-6.816.636-6.998-1.453-.181-3.362.182-3.362.182s.636 1.089.454 5.27c-.182 4.182-1.181 6.816-1.181 6.816M217.47 365.628s.453-3.817.453-7.27-.181-5.271-.818-2.18c-.635 3.089-1.272 1.635-1.544.09-.273-1.545-.91.818 0 4.27.909 3.456 1.908 5.09 1.908 5.09M213.925 367.538s-1.091-3-1.727-9.634-.181-12.813.091-17.176c.273-4.363.363-8.634 0-9.454-.364-.816-.636-.726-1.363.455-.728 1.181-.455 1.91.09 4s.182 5.36.182 5.36-.272-3.36-1-5.179c-.727-1.818-1.272-1.91-1.363-.454s.382.642.909 7.18c.454 5.636 1.09 7.45 1.454 11.268.363 3.817-.181 5.818.092 8.91.271 3.087 2.635 4.724 2.635 4.724M292.628 348.905c-.699.35-1.09 1.092-1.09-.998 0-2.092.273-2.272 1.09-1.726.819.546.91 2.27 0 2.724M292.083 359.084c-1.05.77-1.181.183-1-1.363.182-1.542.273-2.907 1.272-2.636 1 .273 1.092 3-.272 3.999M296.355 375.354c.44-1.984 1.454-4.634 2.09-6.18s-.818-1.636-.091-4.182c.727-2.544.182-7.18.272-11.451.091-4.27.091-6.27-1.454-.908s-2.635 8.453-2.545 10.905c.092 2.454.728 5.728.91 8.272.181 2.544.273 5.997.818 3.544M291.265 393.528c-1.1 1.433-2.181.73-1.182-1.18 1-1.908 2.545-4.908 2.727-7.633.181-2.727-.182-4.362-1.181-5.636-1-1.272-.09-1.454.818-4.452.908-3 1.544-3.907 2.272-.546.727 3.362.363 9.451-.364 12.451-.727 2.998-2.18 5.816-3.09 6.996M287.448 394.71c-.807.102-1.545-1.726-.908-3.908.635-2.18 1-3.726 2.09-6.087 1.09-2.362 1.545-2.273 1.545.725 0 3-.728 5.092-1.363 6.634-.637 1.546-.637 2.546-1.364 2.636" style="fill:#fcd011;fill-opacity:1;fill-rule:nonzero;stroke:none" transform="matrix(.3829 0 0 -.3829 -32.554 283.24)"/><path d="M293.537 390.893c.987-2.537 2-5.997 3.363-11.452a170 170 0 0 1 5.18-16.903c2.09-5.725 3.455-9.086 4.998-10.36 1.547-1.27 2.91-1.362 4.272 1 1.364 2.364 1.635 7 1.635 7s-2.454-.73-4.36 1.18c-1.91 1.908-4.545 7.27-6.271 12.815-1.728 5.542-3.454 12.178-4.636 14.995s-2 3.09-3.09 3.18-2.363 1.364-2.363 1.364.636-1.182 1.272-2.82M315.985 351.451s3.272.274 4.818 3.455c1.544 3.18 2.089 7.907 2.089 7.907s.636-.637.636-1.637c0-.998-.182-2.453-.182-2.453s1.635 1.544 2.092 5.543c.453 3.998.108 11.662-.728 14.087-.91 2.635-1.818 3.452-2-.274-.18-3.725-.363-9.27-1.454-14.085-1.091-4.818-1.454-5.454-1.454-5.454s1 6.91 1.181 10.907c.182 3.998.455 5.724-.272 6.542-.726.82-2 .636-2.18-5.36-.183-6.001-1.09-14.998-2.546-19.178M309.987 347.27c-1.842.992-4 1.635-3.817-1.543.182-3.182.545-6.724 1.272-10.181.727-3.452 1.727-4.45 2.636-4.36.908.088 2.09 1.452 2.727 3.362.636 1.908.271 3.998-.275 6.634-.545 2.635-1.362 5.453-2.543 6.089" style="fill:#fcd011;fill-opacity:1;fill-rule:nonzero;stroke:none" transform="matrix(.3829 0 0 -.3829 -32.554 283.24)"/><path d="M303.08 344.453c.683-1.207 1.544-3.998 2.544-9.724 1-5.725 2.455-8.544 3.363-8.544.909 0 2.998-.09 6.362.183 3.362.273 4.362-.273 2.363-1.638-2-1.362-3.907-2.543-5.362-3.543-1.454-.999-1.726-.818-1.91 1.545-.18 2.363-.999 1.638-.907-.273.091-1.906.272-2.09-.364-1.998-.637.092-.728 1.365-1.273 2.907-.545 1.546-1.544 1.454-.727-.817.82-2.27.727-3.636-.636-4.09s-1.726-.728-2.272 2.271c-.545 3-1.544 10.634-1.907 16.452-.366 5.817-.456 9.36.725 7.27M319.073 345.907c-1.799-.683-1.815-2.09-1.725-4.09.092-2 1.273-3.998 2.091-5.09.818-1.09 2-2.635.818-2.996-1.184-.365-2.182-1.729-.818-2.727 1.364-1.002 2.908-1.91 3.543-3.998.636-2.092 1.273-3.455 1.909-3.547.636-.09.636.911.819 2.001.18 1.089 1.09 3.179 1.27 2.454.184-.727.457-1.91.91-3.273.455-1.363 1.273-1.728 1.182 0-.092 1.727 1.273 2.635.727 3.546-.545.907-2.452 1.09-2.635 2.453-.184 1.362-.455 3.908.09 5.816.546 1.91 1.454 3.636.455 3.91-1 .27-1.18.178-2-.73-.818-.908-2.454.092-2.544-2.09s.363-3.182 1.363-4.636c1-1.452 1.545-2.816 0-1.09-1.546 1.728-2.636 3.453-2.817 5.18-.182 1.728-.546 3.001-1.454 3.273-.91.271-1.091 1.544-.182 2.728.908 1.182 1.636 3.906-1.002 2.906" style="fill:#fcd011;fill-opacity:1;fill-rule:nonzero;stroke:none" transform="matrix(.3829 0 0 -.3829 -32.554 283.24)"/><path d="M316.167 331.912c-1.063 0-2.362-1.272-1.363-2.27 1-1.003 2.908-1.455 2.908-.548 0 .908-.817 2.818-1.545 2.818M314.622 336.002c-.445-.09-.908-.273-.545-1.364.362-1.09.819-.546 1.363-.454.545.09 2.18.91 1.908 1.454-.274.546-1.363 1.908-1.181.818.182-1.092 0-1.454-.454-1.454-.455 0-.638 1.09-1.09 1M319.985 350.362c-.895-.68-1.727-1.091-.274-1.273 1.454-.184 2.453-1.09 2.636.725.182 1.819.273 2.546-2.362.548M329.163 355.723s.455 1.727 1 3.544c.545 1.819-.455 2.635-2.09-.635-1.637-3.274-2.908-8.18-4.182-12.36-1.27-4.181-1.907-4.999-.816-4.817 1.09.18 1.18.908 2.542 3.726 1.363 2.818 2.818 7.814 2.818 7.814s.273-3.27-.909-6.36-.546-2.728 1.092-1.544c1.636 1.18 3.09 6.086 3.09 6.086s.545-1.452.273-2.18c-.273-.725.181-.636 1.271.454 1.09 1.092 1.999 3.636.82 3.544-1.183-.089-1.637-.635-1.637 1.184 0 1.817-.091 3.633-1 3.453-.909-.182-2.272-1.91-2.272-1.91M239.826 345.271c.914-.609 1-1 3.363-1.91 2.362-.906 1.908-.998.182-.816-1.727.183-1.91 0-.819-.817 1.091-.819.364-.819-1.18-.273-1.546.544-2.637 0-4.636.636-2 .637-2.674 1.446-2 2.908.546 1.182.818 1.636 1.818 1.546 1-.092.91-1 .273-1.274-.637-.272-.273-.545.363-.908 1.15-.657 1.273.09 1.273.636s.545.816 1.363.272M236.1 375.17c-.867-1.328 0-2.725 1.909-3.179 1.908-.454 2.09 0 4.18-.273s4.817-.637 3.271-.091c-1.544.546-2.453 1.09-1.272 1.18 1.182.092 1 .548-.727.82-1.727.27-1.363 1.544-2.272 1.816-.909.274-.909-.454-1.545-.816-.636-.365-1.454-.182-1 .454.455.636-1.18 2.182-2.544.09M217.045 371.384s-.121.243-.363 1.334c-.244 1.09.06 1.696.06 1.696l.132.52c.354-.02.717-.171 1.05-.489 2.181-2.091.181-3.546-.819-3.546z" style="fill:#fcd011;fill-opacity:1;fill-rule:nonzero;stroke:none" transform="matrix(.3829 0 0 -.3829 -32.554 283.24)"/><path d="M243.189 306.92c-.728-.183-1.909-.818-1.909-.818l-.553-.395c-1.693.169-3.288.498-4.77 1.065-2.039.782-2.493 1.42-.22 1.42s3.453-.818 7.815-.909zM222.013 353.269c-2.363 0-3.271-.546-2.09-1.363 1.181-.82 2.363-.998 3.272-.273.908.727.545 1.636-1.182 1.636M269.726 361.358s.545-2.091.454-5l-.09-.452s1.454-2.092 1.454-10.907-2.454-17.358-5.726-22.54a17 17 0 0 0-1.685-2.23l.686.14s.909-.089.272-1.362c-.727-1.454-1.727-2.452-4.362-4.272-2.636-1.818-6.362-2.818-12.45-3.454-6.09-.635-6.18-1.271-6.18-1.271l-.455-.546c3.453-.727 7.998-.546 13.45 1.546 5.453 2.088 7.453 3.907 7.453 3.907s-2.909-3-6.907-4.907l-.364-.729c-.91-.998-3.272-2.544-3.272-2.544l-1.03-.566c7.402 1.562 10.906 6.1 14.662 12.985.727 1.335 1.819 1.668 3.182 1.849s2.362.546 5.18 6.545 3.908 13.632 4.271 19.72c.364 6.09-1.09 5.725-2.272 3.907-1.182-1.815-1.182-5.542-2.636-13.902-1.454-8.363-4.453-10.817-4.453-10.817s2.181 4.728 3 11.815c.818 7.088 1 17.541-.273 25.449-1.272 7.905-3.908 10.267-3.908 10.267s.545-1.635 1.272-5.544c.727-3.907.727-6.815.727-6.815z" style="fill:#937c08;fill-opacity:1;fill-rule:nonzero;stroke:none" transform="matrix(.3829 0 0 -.3829 -32.554 283.24)"/><path d="M237.645 295.469s7.906.363 11.997 1.725c4.088 1.363 9.087 6.09 11.723 10.633 2.635 4.546 3.18 6.092 3.18 6.092s1-.73.092-3.273c-.91-2.546-3-4.455-3-4.455s1.818.365 3.272 3c1.454 2.636 1 4.544 1 4.544s2 .092.727-3.546c-1.272-3.633-4.726-7.815-9.451-11.632s-10.27-7.27-19.54-3.088M263.183 300.103s2.09-.183 5.361 2.271 4.727 4.546 4.727 4.546-.91.273-1.818.182c-.91-.092-.636-2.092-3.635-3.455-3-1.365-4.726-1.998-4.635-3.544M267 305.374s1.635.728 2.363 1.546c.727.817 1.09 1.544.272 1.907-.817.364-1.817-.544-2.635-3.453M267.908 409.071c1.286-.824 2.593-2.023 3.968-3.48.972-1.03 4.182-4.76 4.64-5.283 1.447-1.642 2.098-2.39 1.753-2.87-.455-.636-2.363-.455-3.743 1.237-4.026 4.944-7.941 8.592-10.95 11.068 0 0 2.06.781 4.332-.672M251.368 425.702c-2.454-.455-6.816 0-6.361-1.818.453-1.818 2.18-2 3.543-1 1.364 1 2.818 2.818 2.818 2.818M254.55 421.067c1.635 0 3.452.454 5.088 1 1.636.544 2-.182 1.91-1.545-.092-1.364.453-2.726.453-2.726s.909 2.363.909 4.454.818 2.27 1.727 2.362c.908.09 1-1.636 0-3.727-1-2.09-2.181-5.09-2.727-4.817s-1 1.363-2 1.728c-.999.364-1.635 1.544-.181 2.816 0 0-.182.91-1.727-.272s-5.816.727-3.453.727M272.453 428.519c-1.276 0-3.272-3.089-4.998-6.27s-2.636-5.543-2-6.18 1.09-.363 2.636 2.816c1.544 3.181 3.09 6.09 4.27 8 1.181 1.907.728 1.634.092 1.634M315.621 386.442s-.363-3.908-.363-12.088v-14.268s1.09 1.272 1.181 10.086-.818 16.27-.818 16.27" style="fill:#937c08;fill-opacity:1;fill-rule:nonzero;stroke:none" transform="matrix(.3829 0 0 -.3829 -32.554 283.24)"/><path d="M253.094 424.34c-2.164-1.931-3.09-2.455-1.272-2.363 1.818.09 3.727-.092 6.271 1.09s3.544 2.18 4.635 3.544.727 1.09-1.09.818-5.181-.092-8.544-3.09M265.09 431.973c-.134-1.355-1.362-3.09-5.997-3.546-1.812-.177-3.09.273-1 1.91 2.09 1.636 3.374 3.039 5.817 4.453 1.726 1 3.545 1.454 2.453.09-1.09-1.363-1.18-1.998-1.272-2.907M280.269 434.7c-.023.838-2.182-1.455-5.635-7.363-3.454-5.907-5.18-9.998-5.999-12.45-.817-2.454-.272-3.544.364-3.544s.545.092 2.272 4.725c1.727 4.636 5.544 12.09 5.544 12.09s-3.09-8.636-4.18-12.725c-1.092-4.09-2.272-5.818-.637-7.09 1.636-1.272 2.181-1.907 2.09.908-.09 2.817-.09 6.634 2.273 12.634 2.362 5.997 3.998 9.451 3.908 12.815" style="fill:#fcd011;fill-opacity:1;fill-rule:nonzero;stroke:none" transform="matrix(.3829 0 0 -.3829 -32.554 283.24)"/><path d="M278.269 422.066c-1.096-1.565-2.363-5.633-1.09-8.36s1.544-5.545 2.18-7.815c.637-2.272 1-4.818 1.637-5 .635-.183 1.363.728.454 3.453-.909 2.727-2.09 7.271-2.09 10.907 0 3.634.181 8.633-1.091 6.815M277.088 411.707c-.512 2.349-1.09 1.998-1.09-.183s-.273-2.909.726-2.725c1 .181.818.816.364 2.908" style="fill:#fcd011;fill-opacity:1;fill-rule:nonzero;stroke:none" transform="matrix(.3829 0 0 -.3829 -32.554 283.24)"/><path d="M404.05 452.058c-.945.608-2.09-.091-3-2.182-.908-2.09-1.454-3.543-.545-3.635.91-.09 1.91-.363 3.09 0 1.181.364 2.727 1.818 1.909 2.09-.817.273-2.272-.181-1.818.818.454 1 1.636 2.09.365 2.91M397.96 449.422c-.991.153-1.544-.545-1.908-1.18-.364-.638-.454-.82.909-.82s2.18 1.819.999 2M384.328 446.786c-1.632-.101-2.453.273-2.18 1 .27.728.817.637 2 .637 1.181 0 1.634-1.545.18-1.637M392.508 457.965c-.844-.337-1.908-2.09-1.818-3.362.091-1.273.636-3.09 1.363-3.545.727-.454 1.182-.454.818 1.182-.363 1.635-.546 2.635-.18 3.817.362 1.181.725 2.272-.183 1.908M396.144 459.328c-1.147-.088-2.091-1.545-2.182-3.271-.09-1.727.09-2.727.636-3.181.545-.455.818.182.818 2.272s1.91 4.271.728 4.18M388.51 451.967c.635-1.273.545-3.726.545-4.908 0-1.181.818-1.454.908-2.272s-.636-2-1.544-2.181c-.91-.182-1.273.091-1.184 3.18.093 3.09 1.275 6.18 1.275 6.18M367.605 439.062c-.213-1.074-.818-2.09-1.727-2.272-.907-.182-1.543.454-.636 1.272.91.818 2.728 2.817 2.363 1" style="fill:#937c08;fill-opacity:1;fill-rule:nonzero;stroke:none" transform="matrix(.3829 0 0 -.3829 -32.554 283.24)"/><path d="M376.331 464.509c-1.227 1.039-2.272 2.181-1.999.09.272-2.09.907-2.09 1.908-2 .998.092 1.273.91.091 1.91M398.232 466.054c-1.485.557-3.09.454-1.816-.364 1.272-.818.727-1.818.727-2.454s.545-.545 1.545.182.272 2.363-.456 2.636M398.87 458.964c-.5-.214-1.91-1.453-2.18-2.998-.274-1.545.18-2.818.998-3.181.818-.364 1.181-1 1 1.181s.454 2.727.727 3.909c.272 1.18.09 1.362-.546 1.09M359.335 432.155c1.759-2.975 4.09-3.998 6.999-3.182 2.908.819 5.452 4.181 5.908 7.27.453 3.091-.91 7.454-.91 7.454s-1.727-1.909-2.453-2.726c0 0 .818-2.182-.092-4.818s-2.453-3.09-2.453-3.09.272-1.18 1.636-1.09c0 0-1.545-.727-3.273.364-1.725 1.09-1.909 4.09-1.816 5.816.09 1.726.181 3.09.181 3.09s-2.273-1.636-2.18-4.18c.09-2.546.636-4.272 2.361-5.545 0 0-2.181.727-2.725 2.454-.546 1.728-.727 3.727-.727 3.727s-2.818-1.546-.456-5.544" style="fill:#fcd011;fill-opacity:1;fill-rule:nonzero;stroke:none" transform="matrix(.3829 0 0 -.3829 -32.554 283.24)"/><path d="M349.99 388.233v20.648s-2.014-1.356-5.378-2.174c0 0 2.484-12.59 5.377-18.474M278.087 443.424c1.136-.487 1.637.09 4.544.636 2.909.546 6.544.546 6.544.546s-.091.817-2.727.727c-2.635-.091-3.544 1-4.635.908-1.09-.09-2.272-.636-1-1.09 1.273-.455.637-.728-1.09-.637-1.727.092-2.272-.817-1.636-1.09M290.084 456.42c-2.476 1.51-5.999.91-4.544.182 1.454-.727 3.907-1.818 6.998-3.544 3.09-1.727 4.544-2.364 4.544-2.364s-3.272 3.454-6.998 5.726M296.445 456.057c-1.243.947-2.454.818-1.999-.273.454-1.09 2-1.909 3.363-2.726 1.362-.818 2.634-1.545 2.634-1.545s-2.089 3.09-3.998 4.544M301.08 455.42c-1.17 1.012-1.817.182-.363-1.09s3.18-2.363 4.998-4.09c1.82-1.726 1.999-3.362.455-2.636-1.546.728-3.637.819-2.273-.726s3.181-3.817 3.909-4.635c.726-.819 3.271-2.545 4.453-3.363s2.816-1.454 1 1.272c-1.818 2.726-3.09 4.09-3.545 6.453-.454 2.363-1.273 3.271-3.272 4.544s-3.363 2.545-5.362 4.271M314.622 443.606c-2.345 1.842-2.092 1.181-1.726-.363.363-1.545 1.09-3 3.271-5.09s2.817-3.726 3.544-5.09 1.363-1.272 2.453-1.999 1.637-.364.456 1.999-4.182 7.543-7.998 10.543M351.156 420.159c-1.533-1.752-1.818-1.817-1.544 0 .273 1.818 2.362 4.18 2.544 2.817.183-1.363-.363-2.091-1-2.817" style="fill:#937c08;fill-opacity:1;fill-rule:nonzero;stroke:none" transform="matrix(.3829 0 0 -.3829 -32.554 283.24)"/><path d="M219.468 435.244c-1.795 1.348-3.453 1.818-2.18.273s2.18-2 2.907-1.908.727.545-.727 1.635M293.9 513.13s3.09-4.998 5.27-7.18c0 0-5.179 2.182-7.632 3.909 0 0 1.636 1.182 2.363 3.271" style="fill:#fcd011;fill-opacity:1;fill-rule:nonzero;stroke:none" transform="matrix(.3829 0 0 -.3829 -32.554 283.24)"/><path d="M375.785 305.889s-1.453.123-1.575-.787c-.12-.909-.304-2.12 1.151-1.818s3.273.969 2.606.182c-.666-.79-.97-2.604-2.06-2.726-1.09-.123-2.122.303-2.122.303l-.339.06c.016-1.028-.089-1.79-.568-2.273-.82-.816-1.454-2.18-1.637-3.09-.182-.908-.182-2.454.636-2.454s.818.364.818 1.18c0 .822.588 1.587 1.727 2.547 1.726 1.453 3.545 2.455 3.545 4.09s.909 2.544 1.909 2.633c.999.092.908 1.82.18 1.82-.726 0-1.543-.728-3.816-1.09-2.271-.364-1.092.816.364 1.454zM352.277 307.161s5.21-2.908 7.21-4.12c2-1.209 3.697-1.575 5.15-2.121l1.697-1.09c-1.999 1.09-3 .728-3 .728s1.999-1.09 3-1.818c.998-.726 1.544-1.362.636-1.637-.908-.271-3.453.183-6.634 2.091-3.18 1.91-4.454 3.818-6.908 6.272-.83.83-1.58 1.484-2.204 1.986zM350.339 325.157s.302 2.544-.545 2.727c-.85.181-1.818.544-2.545 1.392-.727.849-.969 1.696-.91 2.122.061.422-1.526 2.19-2.12 2.786-.606.605-1.21.728-1.21.728l-.437.381c.997.45 1.96.809 2.859 1.072 2.18.635 3.635-2.545 5.18-3.817 1.545-1.274 2.091-1.908 2-3.818-.091-1.908-1.09-3.452-2.272-4.27zm-1.818 6.755c-.827-.138-2.363-.726-1.272-1.818 1.089-1.09 1.817-2.09 2.089-.818.274 1.272.274 2.818-.817 2.636M353.854 321.037s1.573-1.151 2.787.546c1.212 1.695.352 3.316 1.029 3.452.606.122 1.455-1.394 3.028-3.271 1.576-1.878 1.698-2.849 1.517-3.03-.183-.181-.486-.848.424-.546.908.303 1.15-.727 1.938-2.301.787-1.575.607-4.363.607-4.363l-.107-.466c.439-.367.864-.747 1.257-1.139 1.271-1.272 1.636-2.545 1.09-2.817s-.818-1.182.181-1.274c1-.09.728.544.728 2.182 0 1.636-.455 6.27-2.455 9.27s-4.543 5.998-6.18 7.542c-1.635 1.546-2.543 2.184-3.27.729-1.019-2.04-2.09-3.18-3.18-4zM314.713 309.406c.863-.147 1.59-.26 1.908-.488.637-.454.182-1.725.453-2.546.274-.816.546-1.27.729-.089.182 1.18.728 1.635 1.816 1.362 1.092-.271 4.546-1.273 2.728-1.454-1.547-.153-3.09-.725-5.18-1.633-2.092-.91-4.637-1.182-5.182-.73-.377.32-.625.895-1.045 2.317l.501.47s.425.546 1.818 1.092 1.574 1.333 1.574 1.333zM306.533 307.948s.425-1.757 1.212-1.998c.787-.243 1.09-.181 1.09.606s-.18 2.725-.18 2.725l.332.729c-.35 1.572-1.726 1.817-1.545.363.183-1.455.909-3.636.092-2.82-.82.822-.728 1.274-.91 2.547s-1.272 0-1-1.273zM321.135 321.643s-.605 1.454 0 1.576c.607.12.666-.607.97-1.88.301-1.273 1.029-2.24 2.423-3.211 1.394-.968 1.758-1.635 2.485-3.03s2.665-2.24 2.665-2.24l.757-.033c-2 2.092-2.09 3.456-2.18 5.544-.092 2.092-.638 2.452-1.275 1.182-.725-1.454-1.18-1.454-2.815-.362-1.636 1.091-1.545 2.726-1.91 4.452-.363 1.727-2.18 3-1.998.456.089-1.267.405-2.261.912-3.201z" style="fill:#937c08;fill-opacity:1;fill-rule:nonzero;stroke:none" transform="matrix(.3829 0 0 -.3829 -32.554 283.24)"/><path d="M319.863 314.555s-.606.422-1.332 1.332c-.728.909-.244-.242.605-2.849.26-.803 1.394-2 1.938-2.06.545-.061.122 1.516.122 1.516l1.333-.485.06-.485s.242-.85 2.243-1.456c1.115-.337 1.513-.787 1.635-.24.106.477-.787 1.513-1.696 2.605-.909 1.091-1.212 2.365-1.212 2.365l.06.573c2.636-2.998 2.091-3.636 2.545-3.271.154.124.069.6-.18 1.261l.483-.323s.788-1.21 3.453-2.3c2.668-1.092 4.726-1.516 4.726-1.516l1.97-.666c1.818-1.182.272-1.363-.727-1.002-1.001.364-1.728.637-3.273.364-1.545-.272-2.454-1.18-3.27-1.362-.819-.184-1.546.181-1.91.908s-1 1.273-1.819 1.636c-.816.364-3.088.91-4.178 1.09-1.091.183-1.728.547-2.091 1.545-.364 1-.727.638-.637.092s.273-1.09-.18-1.09c-.456 0-1.09.815-1.728 1.728-.636.906-1.272 2.544-2.18 4.996-.91 2.454.18 2.09.908.546.727-1.544 2.908-4.726 2.908-4.272s-1.272 3.09-2 5.272c-.726 2.18.273 2.454.819.908s1.363-2.727 2.907-5.09zM290.175 316.612s.787 1.152 1.817 2.363c1.03 1.213 2.09 3.116 2.485 4.244.423 1.209 1.211 1.27 1.454-.306.242-1.573 1.696-2.058 1.696-2.058l.289.119c-.328 2.007-.64 4.214-.834 6.12-.455 4.454-.273 11.088-.273 11.088l-.333-.544s-.485-.727-1.03-.787c-.546-.062-.484 1.695-.484 1.695l-.218.43c-.468-3.44-1.137-7.22-2.116-10.156-1.636-4.906-2.999-8.177-2.908-12.813zM288.356 400.163s.274-1.271 1.091-2.18l.455-.727c1.363.09 3-1.182 4.18-2 1.182-.817 3.363-1.544 4.363.456 1 1.998.545 4.907-1.454 5.724-2 .819-3.454-.09-3.363-1.455.091-1.362 2.817-1.452 2.817-1.452-3.998-2.091-6.27.179-8.178 2.544zM312.774 367.812s-.244.3-.244.967c0 2.785-.787 2.666-.664-.425.121-3.088-.304-4.302-1.577-4.542-1.27-.244-1.27.423-1.877 1.272-.606.849-1.635 1.817-1.635 1.817l-.516.09c-.91 2.819-2.117 7.525-2.364 9.36-.363 2.728 1.91-1.543 3.091-3.087 1.18-1.546 1.637-1.819 1.637-3.365 0-1.545-.184-2.725.726-2.817s.545 2.184.363 9.907c-.18 7.726.273 14.269.273 14.269s.182-2.998.728-6.907c.545-3.909.726-7.27 1.18-8.18.455-.908.635.18 1-1.636.21-1.05.298-3.676.336-6.181zM333.858 339.817s.91 2 .971 3.577c.059 1.573-.668 2.543-.668 2.543l-.411.424c.756 1.502 1.162 2.13 1.774 1.274.91-1.274 1.001-3.818.91-5.18-.092-1.365-1.636-2.82-2.818-3.363zM344.946 347.394s.546-.608.183-1.94c-.282-1.037-1.274-2.121-2.908-3.516-1.637-1.394-2.121-4.178-2.121-4.178l-.395-.668c1.09-.092 2.817.364 4.816.817 2.001.456 3.817 2.635 3.181 2.727s-.453 1.271.184 2.183c.635.907 1.362 3.362.271 4.632-1.09 1.274-2.999 2-3.362.73z" style="fill:#937c08;fill-opacity:1;fill-rule:nonzero;stroke:none" transform="matrix(.3829 0 0 -.3829 -32.554 283.24)"/><path d="M375.785 305.889s-1.453.123-1.575-.787c-.12-.909-.304-2.12 1.151-1.818s3.273.969 2.606.182c-.666-.79-.97-2.604-2.06-2.726-1.09-.123-2.122.303-2.122.303l-.339.06c-.009.72-.076 1.57-.115 2.544-.09 2.365.273 3.636 2.272 4.636 2.001.998 3.635 1.636 3.545.635s-1.09-2.362-2.544-2.998zM353.854 321.037s1.573-1.151 2.787.546c1.212 1.695.352 3.316 1.029 3.452.606.122 1.455-1.394 3.028-3.271 1.576-1.878 1.698-2.849 1.517-3.03-.183-.181-.486-.848.424-.546.908.303 1.15-.727 1.938-2.301.787-1.575.607-4.363.607-4.363l-.107-.466a30 30 0 0 1-2.925 2.131c-1.27.82-1.816 1.636-1.634 2.544.18.912 1.181 2.364 1.181 2.364s-.91 0-1.546-.636c-.635-.636-.635-1.728-1.545-1.272s-1.09.908-1 2.364a8.7 8.7 0 0 0 .546 2.544s-1.454 0-1.545-2.182-1.09-1.09-2.544-.272c-1.454.816-1.909 2.09-.818 2.908z" style="fill:#fcd011;fill-opacity:1;fill-rule:nonzero;stroke:none" transform="matrix(.3829 0 0 -.3829 -32.554 283.24)"/><path d="M364.638 300.92c-1.454.546-3.152.912-5.15 2.121-2 1.212-7.21 4.12-7.21 4.12l-1.054.291c-1.223.98-1.976 1.375-1.976 1.375.637-2.455.453-2.544-.272-2.09-.728.456-1.181.817-2.182 2-.998 1.182-3.363 1.363-3.363 1.363s2.727-1.544 3.454-2.636c.726-1.092.272-1.273-.82-.817-1.087.455-2.088.817-4.544 2-2.452 1.18-2.906 2.726-4.36 4.542-1.455 1.82-.546 1.82 1 1.274 1.544-.544 2.907-.184 2.907-.184s-.545.546-1.908 1.092c-1.364.546-3.363 1.636-4.545 3.363-1.18 1.727-2.089 3.27-1.726 6.544.363 3.272 1.454 4.724 4.272 6.816a29.6 29.6 0 0 0 5.411 3.199l.437-.38s.604-.124 1.21-.73c.594-.595 2.181-2.363 2.12-2.785-.059-.426.183-1.273.91-2.122.727-.848 1.695-1.21 2.545-1.392.847-.183.545-2.727.545-2.727v-.697c-1.183-.82-3.273-.636-4.18.27-.909.91-3.09 2.184-4.907 2.636-1.82.456-2.818 0-3.729.275-.908.273-1.634 1.909-1.634 1.909-.273-1.728 1.181-3.365 3.18-3.182 2 .18 2.09-.817 2-1.181s-.728-.546-2.818-1.182c-2.089-.637-2-1.635-2-1.635 3.18 1.18 7.815.454 10.18-.636 2.362-1.091 3.999-2.727 4.361-3.727.364-1 1.092-1.544 2.455-1.636 1.363-.09 3.18-1.636 5.636-4.544 2.452-2.909 5.814-6.907 7.361-8.451 1.544-1.546 3.906-2.728 4.27-3 .365-.273.091-2.454-.454-2.544-.545-.092-1.727.908-3.726 1.998zm-11.39 13.815c-.955 1.113-1.455.182-.366-1.091 1.09-1.27 2-.819.365 1.091m-2.09-3.091c-1.317.942-3 .456-1.456-.544 1.546-1 2.638-1.909 2.728-1.363.09.544 0 1-1.273 1.907M314.833 309.04s-.18-.787-1.574-1.333c-1.393-.546-1.818-1.092-1.818-1.092l-.5-.47c-.186.624-.403 1.41-.681 2.41-.91 3.272 0 2.272 1.725 1.545.866-.363 1.865-.546 2.728-.694zM308.654 309.281s.181-1.938.181-2.725-.303-.849-1.09-.606c-.787.241-1.212 1.998-1.212 1.998l-.909.88c.273-1.274.728-3.635 1.364-3.635s1 .363 1.637-.183c.635-.544 2.452-1.182 1.635.272-.819 1.455-1.091 3.91-1.273 4.728zM325.984 313.361c-.484 1.287-1.587 3.265-2.73 4.646-.866 1.052-1.573 1.942-2.085 2.889l-.034.747s-.605 1.454 0 1.576c.607.12.666-.607.97-1.88.301-1.273 1.029-2.24 2.423-3.211 1.394-.968 1.758-1.635 2.485-3.03s2.665-2.24 2.665-2.24l.757-.033c2-2.088 4.363-3.088 6.18-4.27l-1.97.667s-2.057.424-4.725 1.515c-2.665 1.09-3.453 2.301-3.453 2.301zM322.589 311.524s.242-.85 2.243-1.456c1.115-.337 1.513-.787 1.635-.24.106.477-.787 1.513-1.696 2.605-.909 1.091-1.212 2.365-1.212 2.365l.06.573c-2.636 2.998-3.908 4.998-4.362 4.998s-.726-1.362.454-2.998c1.182-1.638 2.91-4.636 2.818-5.362zM289.72 316.007c.092-4.634.91-5.27.636-6.18-.272-.909-1.272-2.453-.181-2.634 1.09-.183 1.544.36 3.362 1.725 1.817 1.363 2.636 2.817 2 4.18-.637 1.365-1 2.455-1 6.636 0 4.18.909 5.453 1.363.09.455-5.361 1.636-6.907 2.636-7.27s1 1.273.545 2.635c-.26.78-.727 3.105-1.165 5.785l-.289-.118s-1.454.484-1.696 2.057c-.243 1.576-1.03 1.515-1.454.306-.395-1.128-1.454-3.03-2.485-4.244-1.03-1.211-1.817-2.363-1.817-2.363zM296.476 337.638s-.485-.727-1.03-.787c-.546-.062-.484 1.695-.484 1.695l-.218.43c.315 2.311.538 4.471.702 6.115.272 2.724.727 3.906.727 3.906s.364-1.908 1.817-5.906c1.454-4 2.364-6.816 2.818-12.817.455-5.996 2-12.721 3-15.175.999-2.453.725-3.09-.274-3.455-1-.363-1.908.82-2.636 4.91-.726 4.089-2.726 9.087-2.908 12.996-.181 3.908-1.18 8.632-1.18 8.632zM289.447 397.983c-.817.909-1.09 2.18-1.09 2.18l-.09.91c-1.91 2.363-4.575 6.278-5.363 9.724-.727 3.182-1 2.725-1.09 1.362s.272-3.088 1.635-6.996c1.363-3.91 1.363-4.544 0-5.453s-1.908-1.362-1.636-2.092c.273-.724 2-2.09 2.908-1.998.91.092.818 1.274.091 1.998-.727.73.819.73 1.727.73s2-1.182 3.363-1.092zM306.26 366.99c.909-2.814 2.909-5.36 4.18-5.904 1.275-.548 2.819.182 2.819 2.636 0 1.036 0 2.802-.028 4.632l-.457-.542s-.244.3-.244.967c0 2.785-.787 2.666-.664-.425.121-3.088-.303-4.302-1.577-4.542-1.27-.244-1.27.423-1.877 1.272-.606.849-1.635 1.817-1.635 1.817zM340.1 337.76s.484 2.784 2.12 4.178c1.635 1.395 2.627 2.479 2.909 3.515.363 1.333-.183 1.94-.183 1.94l-.151.788c-.362-1.274-.908-3.91-2.908-3.818-2 .09-.635 1.09-2.272 1.364-1.636.27-1.82-.91-1.82-2.726 0-1.82-.452-3.728-2.27-4.546-1.818-.817-3.817-1.544-5.633-2.999-1.758-1.406-1.637-2.18-.912-3.182.728-1 2-1.27 3.727-.088 1.729 1.18 4.18 2.362 5.182 3.36.998 1 .726 1.638 1.816 1.546zM321.196 312.494s.423-1.577-.122-1.515c-.544.06-1.678 1.256-1.938 2.06-.849 2.606-1.333 3.757-.605 2.848.726-.91 1.332-1.332 1.332-1.332z" style="fill:#fcd011;fill-opacity:1;fill-rule:nonzero;stroke:none" transform="matrix(.3829 0 0 -.3829 -32.554 283.24)"/><path d="M334.161 345.938s.727-.971.668-2.544c-.061-1.577-.97-3.577-.97-3.577l-.243-.725c-1.181-.546-3.545-2.454-3.545-2.454s.455 3.727 2.273 6.997c.594 1.07 1.04 2 1.406 2.726z" style="fill:#fcd011;fill-opacity:1;fill-rule:nonzero;stroke:none" transform="matrix(.3829 0 0 -.3829 -32.554 283.24)"/><path d="M288.902 435.244s2.636 2.091 4.817 2.091 2.908-.727 2.908-.727l.818-.273s.818.273 2.545-.455c1.727-.727 1.18 2.182 1.18 2.182l.638.09s4.544-.817 12.27-5.997c7.723-5.18 11.36-9.815 14.357-12.45 3-2.637 7.09-6.454 7.271-7.908.183-1.454.183-2.546 1.455-2s.454 2 .454 2l-.454.636c-.273-1.544-.726-1.636-.726-1.636s.635 2.273-1.001 4.454-8.36 9.088-14.36 13.541c-5.999 4.453-10.27 7.816-14.632 10.452-4.362 2.635-10.996 4.544-16.995 1.908-3.769-1.656-5.362-3.999-5.998-6.725-.636-2.728-.363-4.727 1.546-4.727 1.908 0 5.543-.636 7.27-1.363s2.545-.816 1.908.636c-.636 1.455-3.544 3.636-5.634 6z" style="fill:#937c08;fill-opacity:1;fill-rule:nonzero;stroke:none" transform="matrix(.3829 0 0 -.3829 -32.554 283.24)"/><path d="M319.802 418.612c2.454-4.542-1.817-3.088-7.272.092-5.452 3.18-6.723 4.272-10.086 7.362s-7.544 4.817-7.544 4.817l-.909.273c3.363-3.182 6.09-6.273 8.817-8.906 2.727-2.636 7.632-5.636 11.36-7.182 3.726-1.546 6.452-1.635 7.361-.273.908 1.365-1.544 4.82-1.544 4.82zM296.264 413.522s-4.362.91-6.544 4c-2.18 3.09-4.544 6.362-4.362 7.816s0 2 2.453 1.908c2.455-.09 3.908-1.544 6.18-3.907 2.273-2.362 6.272-5.452 7.544-6.18 1.273-.726 3.089-.999 3.089-.999l2.086-.082c-2.746 2.161-5.41 4.576-6.72 6.172-2.09 2.543-4.09 3.725-7.816 4.906s-6.543 1.454-8.18-.455c-1.635-1.908-1.726-3.907-.635-6.09 1.09-2.18 2.998-4.45 5.634-5.724 2.636-1.273 4.272-1.728 6.998-2.728 2.726-.998 3.727-.998 3.727-.998s-.91.998-2.182 2.361z" style="fill:#937c08;fill-opacity:1;fill-rule:nonzero;stroke:none" transform="matrix(.3829 0 0 -.3829 -32.554 283.24)"/><path d="M345.612 357.542s-2.181 1.725-3.362 4.269c-1.491 3.211-3.18 6.907-3.271 9.634-.092 2.728-.728 8.544-2.182 10.908-1.453 2.362-1.818 5.996-1.818 5.996l.182.819c-1.726 0-2.09 1.725-2.09 1.725s1.817-.181 2.363.73c.545.907-.546 1.725-2.636 4.27s-2 4.907-2 4.907l-.544.273s-.729-.454-.636 1.182c.09 1.635-.727 2.454-5.181 4.18-4.452 1.726-8.633 2.816-14.086 3.545-5.453.725-9.088 2.817-9.088 2.817l-1.091.092c2.453-1.638 6.906-4.274 11.632-5.364 4.725-1.09 9.361-2.544 13.087-5.633 3.727-3.092 5.544-6.726 5.544-6.726s-1.908 2.452-5.544 4.907-5.543 3.454-7.724 3.454c-2.183 0-4.362-.818-4.09-1.818s3-1.455 5.454-2.088c2.452-.64 6.45-2.82 9.178-5.727 0 0-.729.182-1.999.454-1.273.272-.455-1.272.454-2.998.91-1.728 1.817-5.455 2.908-8.545s1.545-3.998 1.636-3.09c.09.91.728-.09 2.544-6.27 1.82-6.18 3.273-10.271 5.727-13.632 2.452-3.363 3.543-4.817 4.816-4.728.636.046 1.453.977 2.111 1.897zM416.772 298.104s-.816-.272-2.635.18c-1.596.4-1.636.273-1.27-.362.362-.636.634-1.182-.183-1-.818.18-1.818-.272-1.182-1.363.636-1.092-.908-.546-2.454.545-1.545 1.09-1.727.818-1.636-.456.09-1.273-.454-.816-2.18-.452s-3 .363-5.726.544-4.453 1.454-5.907 2.908c-1.453 1.455-3.726 3.09-6.27 3.818-2.546.73-2.91 1.544-2.91 1.544s1.455 4.454 1.272 6.455c-.182 2-2.907 2.544-2.907 2.544l-.818-.363c1.636-.546 3.18-1.365 2.635-3.999s-2.545-5-2.545-5 1.546-1.273 4.727-1.817c3.18-.546 4.27-2 5.634-4.271 1.361-2.27 4.089-3.817 5.636-4.455 1.543-.635 2.543-1.906 4.724-1.633 2.182.271 2.727-.273 3.636-1.094.908-.816 1.727-.544 1.727.184 0 .726-1.182 3.181-3.727 3.181 0 0 1.363 1.454 4.09-.546 2.727-1.998 1.273-3.271 3.09-3.725 1.818-.456 2.453.727.273 2.725-2.182 2-3.726 3.182-3.726 3.182s2.816-.546 4.544-2.274c1.726-1.725 1.909-3.271 2.907-3.452 1-.181 1.455.273.273 2.544s-3.27 3.998-3.27 3.998c1.999-.816 3.27-2.088 5.27-4.361s1.818-2.727 2.637-2.09c.815.634-.093 2.09-2.092 4.18s-4.725 3.455-4.725 3.455c1.817-.456 2.908-.82 4.725-1.91 1.818-1.093 2.363-2 3.726-2.182s2.545-.452 2.909.82c.37 1.29-.817 1.182-3.362 2.18a28 28 0 0 0-4.594 2.285zM340.886 414.795c-.545 1.182.456 3.636 1.546 4.636s2.09.544 1.817-1.181c-.272-1.728.363-3.817.363-3.817l-.635.333s-.545 1.151-1.03.485c-.484-.667-1.453-.607-1.453-.607zM346.583 422.46s.787 2 1.636 1.88c.847-.122-.062-3.273-.062-3.273l-.048-1.924c.244.914.56 1.914.957 3.015 1.181 3.272 1.726 5.363.546 5.18-1.181-.182-2.727-2.183-3.635-5.18zM404.262 455.36c-.908-.182-1.516.243-.908 1.394.605 1.15 1.333 2.059.24 1.392-1.09-.666-1.816-1.09-1.816-2.483 0-1.09-.364-2.544-.364-2.544l.092-.425c1.271 1.363 1.454 2.09 1.454 2.09s.18-.363 2.09-1.636c1.51-1.008 2.907-.363 2.907-.363l.426.152c.605-.182.968-.061.968-.061l.242.363c-1.453.818-1.09 2.273-1.09 2.273s1.818-2.273 3.272-2.273 1.091 1.273-.09 1.727c-1.183.454-1.729 1.09-2.455 1.727-.727.636-.909 1.272-1.818 1.454s-.545 1.817-.182 2.636c.364.817 1.727.181 2.273-1.546.545-1.726.818-2.907 1.637-2.907.816 0 1.816-.091 2.09-.728.271-.636 1.09-.636 1.999.182.907.818 1.271 1.727.181 2.727s-1.453 2.726-1.818 4.089c-.362 1.363-.415 2.523-1.272 3.272-.727.636-1.09-.273-1.454-.818s1-1.818 1-1.818c-1.818.182-2.818-.363-4.636-.909-1.817-.545-2.454-2.453-2.454-2.453l.395.09s.484 1.03.91.606c.422-.423.422-1.15.363-2.12-.063-.97.363-.788 1.029-1.333.667-.545 1.273-1.333-.243-1.151-1.514.181-2.24-.181-2.907-.485M380.147 454.39s-.605-.726-.847-.726-.727-.545-.727-2.182c0-1.635.848-1.635 1.21-.181l.91 1.757c-1.272-2.818-.727-5-2.09-5-1.365 0-.728.546-.636 3.09.09 2.546.636 2.637.636 4s.727 2.271.909.909c.181-1.364 0-1.818.728-1.09zM375.907 450.998s-1.09-.485-1.575-1.636c-.507-1.205-.667-1.515-1.394-1.212s-.182 1.212.423 2.363c.608 1.15 1.394.908 1.456 1.818.06.908.484 2.666.484 2.666l-.062.969c-.453-2.09-.998-1.818-1.27-.727-.274 1.09-1.274-.273-2.273-1.727s-.546-3.636.181-5.362c.728-1.727 1.727-2 3-1.09 1.271.908 1.363 1.181 1.454 3.634zM387.177 456.026s-1.213-1.272-1.819-.242.788 3.332.788 3.332v.94c-1.545-3-3-5.999-3.09-7.544-.091-1.545.636-2.636 1.363-2.818.727-.18 1.455 1.273.637 1.91-.818.636-2.182 2.09-.546 1.272s1.272-.273 3.09 3.18zM298.9 459.237s5.18 3.273 8.906 4.999c3.726 1.727 7.543 3.363 9.997 3.817s4.907-.546 6.725-1.181c1.817-.637 8.451-.273 14.814-.364 6.361-.09 9.089-.909 10.815-1.545 1.727-.636 4.18.183 5.907 1 1.728.818 4.18-.182 4.18-.182l1.274-.818c-.82 2.271-3.551 3.297-8.09 3.544-4.997.273-8.36.818-17.086 1.091-8.724.273-15.631.818-20.63 0-4.997-.818-10.996-2.817-13.45-4.09s-3.817-1.453-5.271-1.545c-2.27-.142-4.363-1.636-5.362-2.908-1-1.272-.637-1.181 1.818-1.636 1.313-.243 3.277-.512 5.111-.905zM353.337 457.965c1 .273-.908 1.272-1.18 2-.273.726-1 2.271-1.727 2.726-.729.455 0-1.272-.909-2.181-.91-.909-3.182-1.182-8.27-3.453-5.089-2.273-6.726-3.182-8.18-3.363s-1.909 1-.092 2.363c1.819 1.362 7.817 3.998 7.817 3.998l.818.546s2.726.818 5.543 2.09 3.726.272 4.454-.273 1.909-1.181 3.816-1.181c1.909 0 4-1.909 2.455-2.273-1.544-.362-2.818-.635-3.544-1.453zM337.615 434.427s-1.09-.546-3.635-.91c-1.708-.243-4.088-.544-4.817.637-.728 1.181 0 3.908 1.454 6.907s3.09 8.27 3.09 8.27l.183.637c-4.818-3.817-8.09-7.907-9-9.18-.907-1.272-.453-3.18.457-5.453.908-2.272 1.908-.908 2.725-2.09.819-1.182 1.364-3.09 2.818-3.361 1.454-.274 3.725-.092 7.45 4.633zM368.333 464.963s-.46-3.295-1.454-5.362c-2.272-4.726-8.18-9.633-8.18-9.633l-.181-.364s-3.726-4.271-6.634-7.998c-2.908-3.726-3.998-5.27-3.091-6.18.908-.909 1.546-.09 4.182 2.727 2.634 2.818 10.904 11.723 13.995 13.541 0 0-3.18-.636-4.727-.545 0 0 3.728 1.545 6.18 4.09 2.456 2.544 3.546 3.998 3.454 6.452-.09 2.454-2.726 1-2.726 1s.273 2.272-.818 3.363z" style="fill:#937c08;fill-opacity:1;fill-rule:nonzero;stroke:none" transform="matrix(.3829 0 0 -.3829 -32.554 283.24)"/><path d="M416.772 298.104s-.816-.272-2.635.18c-1.596.4-1.636.273-1.27-.362.362-.636.634-1.182-.183-1-.818.18-1.818-.272-1.182-1.363.636-1.092-.908-.546-2.454.545-1.545 1.09-1.727.818-1.636-.456.09-1.273-.454-.816-2.18-.452s-3 .363-5.726.544-4.453 1.454-5.907 2.908c-1.453 1.455-3.726 3.09-6.27 3.818-2.546.73-2.91 1.544-2.91 1.544s1.455 4.454 1.272 6.455c-.182 2-2.907 2.544-2.907 2.544l-.818-.363c-1.637.543-4.453-.729-6.091-1.819-1.634-1.09-2.544-1.09-2.997-.362-.455.726.545 2.089.545 3.633 0 1.547 1.363.637 3.27.091 1.91-.545 2.545 1.544 2.545 1.544s-1.725-.724-3.09-.088c-1.362.636-1.816 1.726-5.543 7.452-3.726 5.723-6.09 7.633-11.27 12.087l.093.908s-2.728 6.271-4.91 9.089c-2.18 2.818-3.542 4.633-5.452 6.452-1.909 1.82-2.818 2.909-2.818 2.909l-.362.908c1.271 2.182 1.18 3.362 1.18 3.362s-.5-.912-1.16-1.83l-.294.56s-2.181 1.725-3.362 4.269c-1.491 3.211-3.18 6.907-3.271 9.634-.092 2.728-.728 8.544-2.182 10.908-1.453 2.362-1.818 5.996-1.818 5.996l.182.819c1.727 0 2.454 2.27 2.09 3.544-.363 1.272-1.635 2.18-3.453 4.363-1.817 2.18-3 3.725-3 3.725l-.544.273s-.729-.454-.636 1.182c.09 1.635-.727 2.454-5.181 4.18-4.452 1.726-8.633 2.816-14.086 3.545-5.453.725-9.088 2.817-9.088 2.817l-1.091.092c-2.454 1.633-4.999 3.817-4.999 3.817s1.09-1.82 2.363-3.184h-1.272s-4.362.91-6.544 4c-2.18 3.09-4.544 6.362-4.362 7.816s0 2 2.453 1.908c2.455-.09 3.908-1.544 6.18-3.907 2.273-2.362 6.272-5.452 7.544-6.18 1.273-.726 3.089-.999 3.089-.999l2.086-.082c1.639-1.289 3.306-2.488 4.731-3.37 3.817-2.365 8.724-2.728 10.634-1.547 1.908 1.182 2.362 4.363 1 6.178-1.364 1.82-3.09 2.275-3.09 2.275l-.183-1.002c2.454-4.542-1.817-3.088-7.272.092-5.452 3.18-6.723 4.272-10.086 7.362s-7.544 4.817-7.544 4.817l-.909.273c-3.362 3.18-5.452 3.817-5.452 3.817l.363.271s2.636 2.091 4.817 2.091 2.908-.727 2.908-.727l.818-.273c3.818-1.908 9.452-5.452 13.27-7.908a126 126 0 0 0 6.725-4.635c-1.091 2.82-7.09 6.636-10.452 8.726s-4.726 4.272-5.817 5.544l.637.09s4.544-.817 12.27-5.997c7.723-5.18 11.36-9.815 14.357-12.45 3-2.637 7.09-6.454 7.271-7.908.183-1.454.183-2.546 1.455-2s.454 2 .454 2l-.454.636c.272 1.546 1.18.547 3.453-1.728 2.272-2.27 1.18-3.268.182-4.36-1.001-1.092-2.455-1.272-2.455-1.272s.638-.456 1.82-.272c1.18.18 1.091-1.092-.182-1.455-1.273-.365-3.001 1.09-4.545 2.545s-3.272 1.18-3.272 1.18.727-.726 1.818-1.272.635-1.363-1.364-1.546c-1.999-.182-2.181-.998-2.181-.998s2.181.18 3.363.272c1.18.092 2.999-.546 4.636-1.454 1.634-.908 3.36-.454 3.36-.454s.184-.454.638-2.09c.945-3.407 3.271-9.089 4.453-11.543s3.726-5.633 7.544-13.997c3.816-8.361 10.268-22.72 15.176-30.718 4.909-7.998 11.542-16.176 14.633-19.539s7.725-6.544 13.994-11.267c6.272-4.728 10.634-7.637 14.452-10.727 1.663-1.344 3.101-2.362 4.404-3.167zm-13.54 7.724c1.455.092.545 1.455-1.546 3-2.09 1.545-4.36 1.182-4.36 1.182 3.452-2.183 4.452-4.273 5.906-4.182m-13.086 8.727c1.18.454.18 1.362-1.82 2.816s-3.816 2.91-3.816 2.91c2.363-3.726 4.454-6.183 5.636-5.726m-50.078 70.069s2.818-2.271 5.272-5.363c2.455-3.09 4.817-7.178 4.635-9.362-.181-2.18.364-2.452 1.09-1.725.728.727 1.726 0 5.09-6.09 3.363-6.088 5.272-11.268 6.543-12.995 1.274-1.728 1.454-1.09-.09 2.18-1.546 3.273-3 7.09-6.453 14.088s-6.633 11.632-9.27 15.814c-2.636 4.18-6.634 6.27-6.634 6.27 1.363-2.09-.183-2.817-.183-2.817M343.977 414.766s-.545 1.151-1.03.485c-.484-.667-1.453-.607-1.453-.607l-.608.15c.55-1.187 1.761-2.622 2.455-4.27.725-1.725 1.544-1.633 4.089-.363 2.545 1.274 5.09 4.726 5.817 7.27 0 0-1.182-.092-3.18-1.363-2-1.273-2.637-3.544-2.637-1.546 0 1.327.2 2.815.68 4.62l.047 1.925s.91 3.15.062 3.272-1.636-1.879-1.636-1.879l-.606-.302c-.91-3-1.365-7.725-1.365-7.725zM379.783 451.3c-.362-1.453-1.21-1.453-1.21.182 0 1.637.485 2.182.727 2.182s.847.727.847.727l.093.575c.726.727.272 1.364 1.27.909 1-.455.357-.219-.818-2.817zM375.3 454.997s-.423-1.758-.483-2.666c-.062-.91-.848-.667-1.456-1.818-.605-1.15-1.15-2.06-.423-2.363s.887.007 1.394 1.212c.485 1.151 1.575 1.636 1.575 1.636l.424-.304c.09 2.454.503 4.075 1 5.726.273.91.273 2.272-.272 2.272-.546 0-1.365-.636-1.82-2.726zM386.146 460.055c1.544 3 5.002 6.057 6.725 6.18 1.274.092.455-1.18-.725-2.544-1.183-1.364-2.728-4.18-4.546-7.634l-.423-.03s-1.213-1.273-1.819-.243.788 3.332.788 3.332zM298.9 459.237s5.18 3.273 8.906 4.999c3.726 1.727 7.543 3.363 9.997 3.817s4.907-.546 6.725-1.181c1.817-.637 8.451-.273 14.814-.364 6.361-.09 9.089-.909 10.815-1.545 1.727-.636 4.18.183 5.907 1 1.728.818 4.18-.182 4.18-.182l1.274-.818c.818-2.272.362-5.18-2.819-9.179s-7.178-8.18-7.178-8.18 4.18 3.272 8.632 6.908c4.454 3.634 5 6.634 4.727 9.27s-2.91 3.725-2.91 3.725c3.636 1.091 5.272-.362 6.363-1.453v-1.091s-.46-3.295-1.454-5.362c-2.272-4.726-8.18-9.633-8.18-9.633l-.181-.364s-5.907-5.544-9.542-9.543c-3.636-3.998-5.181-5.998-8.18-9.542-3-3.545-4.545-4.271-6.09-4.271s-1.817 1.453-1.817 1.453 2.09.092 4.817 2.183c2.727 2.089 5.998 8.269 8.452 12.813s7.543 10.451 7.543 10.451-2.273-1.272-5.634-5.09c-3.363-3.816-6-8.814-9.726-13.54l-.726-.091s-1.09-.546-3.635-.91c-1.708-.243-4.088-.544-4.817.637-.728 1.181 0 3.908 1.454 6.907s3.09 8.27 3.09 8.27l.183.637c4.816 3.817 9.723 5.907 12.358 6.816 2.636.908 6.09.908 7.089 1.18l1-.453c.727.818 2 1.09 3.545 1.453 1.546.364-.546 2.273-2.455 2.273-1.907 0-3.088.636-3.816 1.181s-1.636 1.545-4.454.273a51 51 0 0 0-5.543-2.09l-.818-.546s-6.36-1.544-11.542-4.543c-5.18-3-8.451-5.453-9.997-6.725-1.545-1.273-3.362-2.728-4.089-2.364-.729.363-1.454 1.545-2.91 2.364-1.454.817-1.18 1.272-.09 1.453s3.545.091 7.089 2.908c3.545 2.818 4.089 4.363 4.089 4.363s-7.27-4.18-10.087-4.726c-2.819-.545-3.454-1.09-5.09.181-1.636 1.273-3.726 2.909-5.636 4.181-.885.591-2.382 1.026-3.975 1.367zM408.383 452.937c.605-.182.968-.061.968-.061l.242.363c1.454-.818 2.363-1.09 2.817-1.09.456 0 .82-1.273-.272-2.273-1.091-.999-2.182 0-2.997.546-.82.545-1.184 2.363-1.184 2.363zM404.323 455.481c.666.304 1.393.666 2.907.485 1.516-.182.91.606.243 1.151-.666.545-1.092.363-1.029 1.333.059.97.059 1.697-.364 2.12-.425.425-.91-.606-.91-.606l-.394-.09s-.999 0-2.725-.727c-1.727-.728-2.092-3.272-2.092-4.726s.273-3.09 1.547-1.727l-.092.425s.364 1.453.364 2.544c0 1.394.727 1.818 1.817 2.484 1.092.666.364-.243-.241-1.393-.608-1.151 0-1.576.908-1.394" style="fill:#fcd011;fill-opacity:1;fill-rule:nonzero;stroke:none" transform="matrix(.3829 0 0 -.3829 -32.554 283.24)"/><path d="M273.18 451.694s-1.182-.09-2.727-1.09-1.909-2-1.909-2l-.545-.545c-3.362 0-3.635 1.545-4.544 2.635-.908 1.091.908 2.09 3.727 2.09 2.453 0 5.18-.544 7.089-.726zM353.73 487.593c2.546-1.636 3.091-.546 3.091-.546l.331.965c.612-1.041 1.107-2.186 1.185-2.964.18-1.818-1.637-1.181-2.91-.273-1.272.909-2 2.182-2.545 3.272zM359.245 488.138s.727-.181 1.817-1.514 1.577-.485 1.577-.485l.333.181c.545-1.999.09-3.362-.546-3.362s-1.273.727-1.364 1.636a4.52 4.52 0 0 1-2.09 3.363zM277.36 470.688c-.909-1.09-1.635-.454-2.454.092-.818.545-1.545.636-1.908 1.453-.364.819 1.17 1.114 3.09.819 1.182-.182 2.181-1.273 1.272-2.364m-25.546-10.437c2.359.111 4.81-.241 6.825-1.104 3.18-1.364 7.089-2.363 8.27-2.182 1.182.182 1.999 1.181-.546 2.909a39.5 39.5 0 0 0-4.544 3.635s2.181-.09 4.272-1.636c2.09-1.545 3.635-3.544 4.908-3.544 1.272 0 2.272.545 3.362 1.908s2.363 1.182 3.545.273c1.18-.909 3.453-.273 4.09.09.635.364 3.544.274 4.27.637.728.363-.454 2.908-1.454 3.635-.999.727-2.908 1.182-5.361.636 0 0-.455.455 1 .91 1.453.454 1.998 1.908.999 4.27-1 2.364-2.181 3.454-4.362 4.727-2.182 1.272-5.545 1.544-9.906 1.18l1.18-.635s2.091-.364 3.545-1.09c1.454-.728 1.546-1.273.727-1.637-.818-.363-.727-1.908-1.545-2.545-.818-.635-1-1.908 1.545-1.999 2.545-.09 4.272-.818 4.363-2.362.09-1.545-2.075-2.018-3.636-3.727-1.908-2.09-4.27-2.181-5.906-.909s-2.818 2-5 2.636c-2.18.636-2.872 1.655-5.543 3.18-3.182 1.818-4.998 3.908-4.998 3.908l-.637.455c.099-1.997.182-3.908 2.272-5.09 2.09-1.18 3.636-2.09 4.453-3.27.818-1.183.455-1.728-.908-1.274-1.364.455-3.09 1.546-4.272 2.182-1.181.636-2.18.636-3.363.454l1-.454s1.182-.546 2-1.818-.273-1.909-.273-1.909zM254.458 455.057s-5.09-1.363-7.725-2.454c-2.636-1.09-4.908-.818-6.634-.545-1.727.273-4.453 2.363-4.453 2.363l.272.909c1.545-1.182 4.817-1.818 7.998.636 3.18 2.453 5.816 2.726 7.998 2.817 2.18.092 3.907-1.908 6.088-2.181 2.182-.272 1.909-1.272.818-1.182-1.09.092-3.726-.18-3.726-.18zM285.903 513.04s2.545.636 4.363 2.908c1.817 2.272 3.907 6.998 4.998 8.27 1.091 1.273 3.544 2.818 5.27 3.09 1.728.273 2.274-.726 1.454-2-.817-1.272-1.09-4.089.183-7.724 1.273-3.636 2.727-6.635 5.908-10.36 3.18-3.727 3.71-4.29 4.361-4.182 1.091.182 1.001 2.09 1.001 2.09l.453.819c1.787-2.134 2.182-3.635 3.364-5.635 1.18-2 3.18-3.453 6.27-3.726s3.819 1.09 3.819 1.09-4.182.455-7.09 2.818c-2.91 2.362-3.362 3.726-4.636 5.816-1.271 2.09-3.906 3.909-4.453 5.635l-.453.364c-.546 1.514 1.757 1.696 1.757 1.696l.604-.151s1.001.182 1.363.545l.091-1.09s0-1.182 1.819-4.545c1.817-3.362 3.362-5.634 6.18-7.725s6.362-2.454 7.452-1.817l.44.945c.28-.635.494-1.18.65-1.582.637-1.635-.726-3.453-.726-3.453s1.272.545 1.726 1.636l.517-.394s1.27-.606 2.483-2.12c1.212-1.515 2.848-3.212 3.998-3.515 1.152-.303 1.697-.12 1.697.728s.665 1.514.665.06-.18-1.454 2.304-2.363c2.484-.908 3.272.485 4.484-.303 1.21-.788 3.09-1.212 3.09-1.212l.665-.151c.817-1.908.546-2.363-.909-1.818-1.453.545-4.633 1.272-9.906 3.09-5.27 1.818-10.997 3.181-15.36 4.271-4.36 1.091-6.815 2.91-9.27 5.454-2.452 2.544-2.907 4.725-2.907 4.725s-.273-1-.09-2.272c.182-1.272-1.002-1.09-2.546.546-1.545 1.636-2.998 3.453-6.27 7.27-3.273 3.817-3.18 2.817-1-.182s4.544-5.816 5.453-8.178c.91-2.364-.728-1.909-2.817 0-2.091 1.908-4.09 4.634-6.634 8.27-2.546 3.635-1.636 5.543-.818 5.634.818.09 1.272 1 .818 1.909-.455.908-.547 2.726-.547 4.907s1.91 3.909 2 5.18c.092 1.273-2.454-.272-3.544-1.727-1.09-1.453-3.272-6.088-5.453-9.542s-5.362-3.271-7.362-2.272zM241.462 449.331s-.636-.272-1.545-.636c-1.552-.62-2.727-1.545-4.363-.818l-3.271 1.454-.909.091c2.181-2.453 5.907-3.907 7.907-3.907s4.362.818 5.816 1.544 3.09.636 3.999 1 3.545 1.454 4.544 1.727l-.181.454s-.365-.181-1.818-.272-3.09-.364-3.09-.364l-1 .272c-1.272 0-2.09-.635-4-.817-1.907-.182-1.817.454-.999 1.181zM238.917 508.95s-1.817.545-3.999-2.726c-2.18-3.272-3.635-3.817-4.18-3.545s-.545 2.909-.545 5.999l.636-.637s1.545-1.363 2.817-.818c1.272.546 2.636 1.545 4.363 3.272a127 127 0 0 0 3.725 3.545l.532.701c1.86-.921 3.754-2.1 4.83-2.883 2-1.454 1.454-3.544 1.182-4.18s-2.09-.727-5.634-3.818c-1.6-1.394-2.939-3.157-4.062-5.015l.153.926s.364 3.544 1.909 5.544 3.362 2.817 2.635 4.27c-.727 1.456-3.998-.726-3.998-.726zM249.732 526.036s1.09-2.454 2.635-5.453c1.546-2.999 2.818-5.453 5.454-6.453s4.544-1.727 5.907-3.635c1.363-1.909 2.181-2.818 2.544-4.271.364-1.454 1.364-3.09 3.454-4.817s4.908-2.727 6.544-3.726 8.633-2.545 13.269-5.18c4.634-2.636 7.815-5.635 10.36-7.362s3.545-2.545 6.181-3.272c2.634-.727 9.269-3.272 23.174-5.544s26.901-3.817 26.901-3.817l.545-.09s3.453-.273 6.18-.728 2.546-1.09 1.636-1.545-2.273-.272-6.817.364-11.45.818-20.538 1.181-15.27 1.09-20.722 2.545-8.543 3.544-9.815 5.18-1.546 1-.91.09c.638-.908 1.183-1.816-.816-1.18s-6.272 1.908-12.906 5.27c-6.634 3.364-9.724 6.272-12.996 9.998-3.271 3.726-4.635 3.453-4.635 3.453s1.182-1.908.273-2.908-1.545-1.181-3.908.363-3.817 3.454-3.817 3.454c1.726-.364 4.453.818 4.453.818s-6.543 1.181-10.088 4.453-5.272 5.09-5.272 5.09 2.637-.818 4.909-1.363c2.272-.546 4.272.09 4.272.09s-4 1.637-6.272 3.272c-2.272 1.636-5.634 4.635-7.361 9.36-.806 2.207-1.77 4.81-2.57 6.957zM244.37 522.855s-.454.637.364 3.999c.817 3.363 2.09 4.09 2.09 4.09h.545s-.09-2.182.273-3.908c.364-1.728 2.272-7.271 3.272-9.998s1.635-4.997 1.635-4.997-2.817 2.271-5.089 5.634c-2.272 3.362-2.363 4.908-3 4.18zM384.238 468.598s-.636-.272-2.727 1.636c-2.09 1.91-2.726 1.727-4.635 1.545-1.908-.181-2.728.636-2.728.636l-.999.182c.182-1.181 1.092-2 2.819-4.18 1.725-2.182 3.544-2.272 5.815-2.545 2.273-.273 2.636-.364 3.363-.91q1.092-.816 2.727.546c1.09.91 2.273 1.818 1.182 2.909s-1.001 2.635.272 1.726 1.636-1.181 2.636-.818.636 1.455-1.182 3c-1.817 1.545-2.09 2.362-.908 2.09 1.18-.273 1.727.636.273 2.09s-3.363 1.818-3.726-.545c-.365-2.363-.183-5.726-1.184-6.725zM248.914 480.959s1.273.544 1.817 1.18c.546.637.546.637-1.272.637-1.817 0-2.636.636-1.363 1.908 1.273 1.273 2.181 1.728 3.635 1.636 1.455-.09 2.727.363 2.182 1.182-.546.817-1.182.545-2.363 0s-1.636.09-2.818.817c-1.181.728-1.636 1-2.817 1.092-1.181.09-2.181.908-.455 1.726 1.727.818 2.91 1.363 4.09 1 1.181-.364 2.545-.727 3.817-.455 1.273.273 3.181 2.454 2 2.454s-3-.364-4-.545c-.999-.182-2.635.636-4.088 2.272-1.455 1.637-2.908 1.726-1.546 2.272 1.363.545 2.91 1.09 3.726.636.818-.454 1.182-2.09 2.09-2.271.91-.183 1.545-.546 1.91-.092.363.455.363 1.092-1.182 2.091-1.546 1-3.787 1.119-5.09 1.726-1.363.636-2.271 2-2.271 2l-.455.363c2.999 2 4.908 3 6.18 2.818 1.273-.182 2.726-1.091 4.908-4.09 2.18-3 3.998-6.271 5.089-7.18 1.09-.908 1-2.544.454-3.09-.545-.545-.454-1.363.455-2.635s1.636-.909 1.636 1c0 1.908.817 1.635 2.635.908s3.817-1 4.545-2.09c.726-1.09-3.454-1.727-3.454-1.727 2.635-.182 3.726-.727 5.09-2.09 1.362-1.364 1.09-2.817 1.09-2.817s1 .636 3.362.09c2.363-.545 1.091-2.181-.818-2.272s-4.362-.545-7.725-.636-7.724-.818-10.087-.727-5.272.909-9.543 2.272zm11.906 1.726c-.636 0-.91-1.726 0-2.454.909-.727 2.18-.908 3.09-.635.909.272.09 1.544-1.09 1.271-1.183-.272-2 1.818-2 1.818m-12.36.818s2.09-.364 3.635.545 1.545 1.273 1.545 1.273-.454.908-2.09.636c-1.636-.273-3.272-1.182-3.09-2.454m-3.09 6.726s2.454-.273 3.453-.91c1-.635 1.545-1.908 2.818-.908a6.14 6.14 0 0 0 2.726 1.181s-.364.818-2.09.454c-1.727-.363-1.727 1.182-3.272 1.273s-3.635-1.09-3.635-1.09m.909 7.633s1.545-1.09 2.453-2.362c.91-1.273 1.818-1.364 3.182-1.182s2.453.909 2.453.909-2.545-.363-3.18.273c-.637.636-1.182 3.816-4.908 2.362" style="fill:#937c08;fill-opacity:1;fill-rule:nonzero;stroke:none" transform="matrix(.3829 0 0 -.3829 -32.554 283.24)"/><path d="M284.54 502.86s-2.272 2.455-3.454 4.909c-1.181 2.454-.454 3.726-.454 3.726l.454.636c-1.635.09-2.272-1.363-2.272-1.363s.364 5.453-1.363 10.542c-1.726 5.09-5.725 9.543-7.816 11.179l.182-1c2.181-2.454 2.454-3.545 2.454-3.545l.636-.727c2.908-2.18 3.726-7.816 3.272-10.905l.363-.819s1-.272 1-4.18c0-2.999.545-3.09.545-3.09l.546.091s2.453-3.454 6.543-6.271zM237.917 517.038s.364 1.636-1.181 2.363c-1.546.727-1.09 3.363-1.09 3.363l.2.644c.511-1.044 1.42-1.592 2.707-1.644 2.273-.09 1.273.364.092 1.545l.999-.181s1.272-1.182 2.272-2.272c1-1.091 1.727-.183 1.727-.183l.524.191c-.054-1.189.446-3.119 1.566-5.098 1.546-2.726.273-2.09-3.18-.182-3.454 1.909-4.454.545-4.454.545zM279.632 547.848c1.018-1.09 1.545-2 .546-2.09-1-.091-1.637 1.544-1.818 2.271s0 1.181 1.272-.181m-.818-13.087c2.09-1.092 3.09-1.727 4.545-.819l.273.637s1.726 1.181.453 2.726l-.363.363s.182 5.363-.273 8.09c-.454 2.725-2.817 5.634-4.09 7.36-1.272 1.727-2.18 2.272-2.726-.817-.545-3.09-1.181-4.726-1.181-4.726s-.454 4.18.181 6.452c.637 2.273.637 2.182-.545 4.726s-1.635 3.999-1.635 5.908c0 1.908.09 2.635-1.273 3.453-1.437.863-2.363.364-2.817-.636s-2.545-2.09-3.545-4.544l.545.09s.819 1.727 2.091 1.364c1.272-.364 2.545-2.908 2.545-2.908l.543-.81c.116 1.157.307 1.52.82-.19.8-2.663.272-3.727-1.273-5.18l.818-.363s1.908-2 1.908-5.544c0-3.092-.09-4.181-1.544-4.09-1.454.09-3 .909-3 .909l-.727-.091c1.91-2.454 3.727-2.272 3.727-2.272s.272-1.364 1.182-2.726c.908-1.364 1.362-3.818 1.362-3.818l.273.545c-.09 3.09.182 7.635 1.182 9.634s1 1.909 1.363.364 1.454-3.454 2.181-6.998-.636-5.18-.636-5.18zM297.809 553.573c.09-1.454.09-2.726-.91-3.363-1-.636-3.634-.817-6.18.364-2.544 1.18-3.544 2.363-3.544 2.363 0-1-1.635-.636-5.544 2.181-3.907 2.818-4.998 5.817-5.452 7.725s-.546 3.726.182 3.999c.727.272.817 1 .817 1-1.545-.818-2.09-.091-3.725 2.18-1.637 2.272-1.637 4.272-1.637 5.363 0 1.09.637 2.18 2 2.363s1.999-.91 2.454-2.727c.454-1.817.636-3.726 1.272-4.635s1.727.546 2.363 1.273 1.18 3.09 1.545 3.271c.363.182 1.09 1.818 1.726 2.182.637.363 1.092.636 1.545 2.09.455 1.454 1.819 1.908 1.819 1.908s.272-2.545 1.09-3.726.726.09.09 1.364c-.636 1.272-.363 2.635.091 3.272.456.635 1.545.999 1.545.999l-1.09-1.818s-.363-.636.182-2.363 1-3.272 0-3.635c-1-.364-1.454-1.272-.181-1.09 1.272.18 2.09-.91.999-1.182-1.09-.273-3.363-1.909-4.181-2.636-.817-.727-1.545-4.18-.364-5.634s2-3.636 2-4.908.818-1.817.546-2.908c-.273-1.091.454-1.727 1.09-1.545.636.181-.546-1 .273-1.455.817-.454 2.09-1.272 2.817-1.272s1.09-1.09 2.09-1.09 2.908-.455 3.635.363zm-17.45 12.633c.454-1.727 2.272-3.545 3.363-4.635 1.09-1.09 1.273-.182 0 1.272s-1.632 3.545-1.818 5.544c-.454 4.907-2-.455-1.545-2.181m-5.998 9.543c-1.323.661-1.908.544-1.908-.91 0-1.453.545-1.908 1.545-2.908s2.09-1.909 1.09-.364c-1 1.546-.818 2.09-.182 2.454.637.364.546 1.182-.545 1.728" style="fill:#937c08;fill-opacity:1;fill-rule:nonzero;stroke:none" transform="matrix(.3829 0 0 -.3829 -32.554 283.24)"/><path d="M269.363 538.76s1.09-1.182 1.636-2.455c.544-1.272 1.817-1.726 3.362-2.636 1.545-.908 2.909-2.271 5.09-5.088s3.271-8.816 3.271-8.816l.091-2.727c-.727-2.362-2.272-1.999-2.272-1.999s-.545 8.18-2.727 12.087c-2.18 3.908-4.907 6.09-6.36 6.816-1.455.727-1.364 3.182-3.182 4.999zM310.715 492.228c-3.91-.273-8.182.636-8.182.636l-.635.545c.635 1-.363 2.272-.363 2.272.182-2.544-1.817-1.636-5.18-.364l1.181-.09s2.272-1.09 2.636.454c.362 1.545-.545 4.635-.545 4.635l.112.705a33 33 0 0 1 3.977-2.522c3.181-1.727 3.818-2.363 1.908-2-1.908.364-1.999-.09-.272-1.09 1.726-1 3.725-1.818 6.18-2.454z" style="fill:#937c08;fill-opacity:1;fill-rule:nonzero;stroke:none" transform="matrix(.3829 0 0 -.3829 -32.554 283.24)"/><path d="M280.632 511.495s-.727-1.272.454-3.726 3.454-4.909 3.454-4.909l.636-.817c4.09-2.817 7.815-5.453 11.179-6.726l1.181-.09s2.272-1.09 2.636.454c.362 1.545-.545 4.635-.545 4.635l.112.705c-1.135.84-2.157 1.704-3.294 2.658-2.272 1.909-3.09 2.999-7.361 4.999-4.272 1.999-7.356 3.417-7.998 3.453zM273.18 451.694s-1.182-.09-2.727-1.09-1.909-2-1.909-2l-.545-.545c3.363 0 7.362-.09 13.087-.273 5.726-.182 8.089-.727 9.361-.817 1.272-.091 2.636-.091.818 1.272s-7.27 3.272-7.27 3.272 2.545 0 4.725-.819c2.182-.818 3.908-1.635 4.817-1.635s.818.817-1.363 2.272-6.09 3.817-9.725 4.999-5.816.545-4.816.09c1-.454 5.907-2.09 5.907-2.09s-2.18-.09-3.726.273-4.816.636-5.907.817c-1.091.182-2.272-.18-.636-1.272 1.635-1.09 3.635-1.727 3.635-1.727s-.727-.545-2.635-.363zM356.821 487.047s-.545-1.09-3.09.546l-.85.454c-.542 1.09.459 2.164 1.911 2.454.519.104 1.544-1.1 2.36-2.49zM359.245 488.138s.727-.181 1.817-1.514 1.577-.485 1.577-.485l.333.181c-.546 2-2.728 4.272-4.454 4.181-1.553-.082-1.092-1.545.455-2.544z" style="fill:#fcd011;fill-opacity:1;fill-rule:nonzero;stroke:none" transform="matrix(.3829 0 0 -.3829 -32.554 283.24)"/><path d="M266.363 563.025s.819 1.726 2.091 1.363c1.272-.364 2.545-2.908 2.545-2.908l.542-.81c-.069-.69-.11-1.66-.179-2.644-.182-2.636-2.544-3.999-2.544-3.999s.726-.182 2.271 1.273l.818-.363s1.908-2 1.908-5.544c0-3.092-.09-4.181-1.544-4.09-1.454.09-3 .909-3 .909l-.727-.091c-1.908 2.454-3.089 7.18-3.089 7.18s.454-5.726 2-8.18c1.544-2.454 4.088-3.454 4.088-3.454.728-3.271 3.272-4.362 3.272-4.362l.273.545c-.09 3.09.182 7.635 1.182 9.634s1 1.909 1.363.364 1.454-3.454 2.181-6.998-.636-5.18-.636-5.18l-.364-.91c-1.86.971-2.18.182-.454-1 1.726-1.18 2.636-2.726 3.363-3.635s.545.636.454 1.364c-.09.727 0 .181 1.09 1.272s1.546 2.09.092 1.181l.273.637s1.726 1.181.453 2.726l-.363.363s1.363 2.727 2.272 4.909c.91 2.18 1.454 2.817 2.362 2.271.91-.545 1.456-1.636 4.09-2.817 2.636-1.181 6.544-2.635 10.998-6.09 4.452-3.452 7.633-9.087 9.632-13.268 2-4.18 2.182-6.361 1.274-7.089-.909-.727-1.274-1.726-1.274-1.726l-.604.151s-2.303-.182-1.757-1.696l.453-.364s-.544-2.09 2.726-5.998l-.453-.818s.09-1.909-1-2.09c-.653-.109-1.181.454-4.362 4.18s-4.635 6.725-5.908 10.361c-1.273 3.635-1 6.452-.183 7.724.82 1.274.274 2.273-1.454 2-1.726-.272-4.179-1.817-5.27-3.09s-3.181-5.998-4.998-8.27-4.363-2.908-4.363-2.908l-1.09-.273c-2 1-1.273 2.817-.545 6.089s-.183 5.635-.183 5.635-.545-5.09-1.272-7.453l-.09 2.727s-1.092 5.998-3.272 8.816c-2.181 2.817-3.545 4.18-5.09 5.088-1.545.91-2.818 1.364-3.362 2.636-.546 1.273-1.636 2.455-1.636 2.455l-1.091.18c-1.817 1.819-3.908 1.546-3.908 1.546s2.09-1.273 2.999-2.726c.909-1.455.182-2.09-1.635-1.909-1.818.182-1.818-2.636-1.818-2.636s3.635.91 5.725-.726l.182-1c2.181-2.454 2.454-3.545 2.454-3.545l.636-.727s1.272-3.453 1.545-5.816-.545-5.635-1.818-9.18c0 0 3.09 1 3.545 4.09l.363-.818s1-.272 1-4.18c0-2.999.545-3.09.545-3.09l.546.091c.272-3.454 4.453-7.362 6.998-9.27s3.453-2.727 3.453-2.727-1.544 0-3.999.91c-2.454.908-5.634 2.09-5.634 2.09 3.09-3.09 10.633-4.727 14.995-7.453s6.544-6.089 6.544-6.089.18 1.454-1.909 3.726-3.727 3.636-3.727 3.636c4.726-.637 5.909-.728 6.544.272l.635-.545s4.273-.909 8.182-.636l.817.727c2.454-.636 5.18-.09 9.179-.636s11.36-3 20.085-5.726 18.087-5.634 25.448-6.816c7.36-1.182 11.631-.909 14.722-.818 3.09.09.726-.546-1.09-.818-1.818-.273-.91-1.636-.364-1.727.545-.09 1.999-.182 2.999 1.181.999 1.364 2.545 1 2.545 0s-.217-2.907-.273-5.452c-.016-.709-.134-1.585-.071-2.26.034-.364.046-.853.524-.648l-.998-.637s-.636-.272-2.727 1.636c-2.09 1.91-2.726 1.727-4.635 1.545-1.908-.181-2.728.636-2.728.636l-.999.182c-.18 1.181-.816 1.181-.816-.09 0-1.273-1.274-1.273-2-.546-.728.727-.91.91-1.001.09-.09-.817-1.544-.18-4.997.364-3.453.545-7.635 0-7.635 0l-.545.091s-12.997 1.545-26.901 3.817-20.54 4.817-23.174 5.544c-2.636.727-3.636 1.545-6.182 3.272-2.544 1.727-5.725 4.726-10.36 7.361-4.635 2.636-11.632 4.18-13.268 5.18s-4.454 2-6.544 3.727-3.09 3.363-3.454 4.817c-.363 1.453-1.181 2.362-2.544 4.271s-3.272 2.635-5.907 3.635-3.908 3.454-5.454 6.453-2.635 5.453-2.635 5.453l-.752.594a2102 2102 0 0 1-1.61 4.313h-.547s-1.272-.726-2.09-4.089c-.817-3.362-.362-3.999-.362-3.999l.09-1c-.174-.2-.274-.542-.294-.99l-.524-.192s-.727-.908-1.727.183-2.272 2.272-2.272 2.272l-1 .181c-1.18 1.182-1.636 2.545-1.726 5-.091 2.452-2 6.087-2 6.087-.273-1.726.636-4.543.455-7.724-.08-1.378.081-2.466.472-3.264l-.2-.644s-.455-2.636 1.09-3.363 1.182-2.363 1.182-2.363l.182-.909c1.007 0 2.575-.6 4.167-1.388l-.532-.701s-1.999-1.818-3.725-3.545c-1.727-1.727-3.091-2.726-4.363-3.272s-2.817.818-2.817.818l-.636.637c0 3.09-1.273 5.998-1.273 5.998s-.273-5.09-.636-7.816c-.364-2.727-.454-5.362 1.545-6.271 2-.91 3.635.09 4.908 2.271 1.272 2.182 2.18 4.817 4.18 6.09l.364-.09s3.271 2.18 3.998.726-1.09-2.272-2.635-4.271-1.909-5.544-1.909-5.544l-.153-.926c-1.366-2.261-2.411-4.662-3.209-6.708-1.455-3.726-4.635-4.18-4.635-4.18s3.363-.728 5.907 4.452 4.817 8.18 7.816 10.179l.454-.363s.909-1.364 2.272-2c1.303-.607 3.544-.726 5.09-1.726s1.545-1.636 1.181-2.09c-.364-.455-1-.092-1.908.09-.909.182-1.273 1.818-2.091 2.272-.817.455-2.363-.09-3.726-.636s.09-.635 1.546-2.272c1.453-1.636 3.09-2.454 4.089-2.272 1 .181 2.818.545 3.999.545s-.727-2.18-2-2.454c-1.272-.272-2.636.091-3.816.455-1.182.363-2.364-.182-4.09-1-1.727-.818-.727-1.636.454-1.726 1.181-.092 1.636-.364 2.817-1.092 1.182-.726 1.636-1.362 2.818-.817 1.18.545 1.817.817 2.363 0 .545-.819-.727-1.273-2.182-1.182-1.454.092-2.362-.363-3.635-1.636s-.454-1.908 1.363-1.908c1.818 0 1.818 0 1.272-.636-.544-.637-1.817-1.181-1.817-1.181l-.636-.637c-4.272 1.364-6.634.454-6.634.454s4.907-.636 7.542-1.635c2.636-1 3.636-1.454 2.091-1.546-1.545-.09-4.271-.181-7.18-1.635-2.908-1.455-3.271-3.363-3.271-3.363 2.18 2.09 5.18 3.545 7.452 3.635 2.272.091 6.18.636 8.724.546 2.545-.091 5.817-.546 10.18-.182l1.18-.636s2.091-.364 3.545-1.09c1.454-.728 1.546-1.273.727-1.637-.818-.363-.727-1.908-1.545-2.545-.818-.635-1-1.908 1.545-1.999 2.545-.09 4.272-.818 4.363-2.362.09-1.545-2.075-2.018-3.636-3.727-1.908-2.09-4.27-2.181-5.906-.909s-2.818 2-5 2.636c-2.18.636-2.873 1.655-5.543 3.18-3.182 1.818-4.998 3.909-4.998 3.909l-.637.454c-.273 5.544-1.182-1-.909-2.726.273-1.727.182-2.727-1.363-3.272s-.727-1.182.454-1l1-.454s1.182-.546 2-1.818-.273-1.909-.273-1.909l-.372-.44c-1.365-.064-2.7-.283-3.9-.65-3.271-1-5.18-3.726-7.18-4.362s-4.816.09-4.816.09l-.273-.908s2.727-2.09 4.454-2.363 3.998-.545 6.634.545 7.725 2.454 7.725 2.454l.636.182c1-.546 4.544-1.091 5.635-1.636 1.09-.545.182-1.727-2.454-2.09-2.635-.364-3.635-1.454-4.635-1.727l-.182.454s-.364-.181-1.817-.272c-1.454-.092-3.09-.364-3.09-.364l-1 .272c1.272 0 1.454 1.455-1.545 1.273-1.454-.087-2.635-.182-3.454-.909l-1.09-.909s-.636-.272-1.545-.636c-1.552-.62-2.727-1.545-4.363-.818l-3.271 1.454-.909.091c-2.18 2.454-1.818 5.544-1.272 7.27.544 1.727.454 4.363.454 4.363s2.09-1.454 4.09-2.636c2-1.18 2.908-.636 2.908-.636s-.727 1-1.727 1.181c-1 .183-1.272 1.183-1.272 2.364 0 1.182-.364 3.817-1.454 6.452-1.09 2.636-3.181 3.818-3.181 3.818s1.363-1.91 1.999-3.636.91-4.453.182-4.453c-.727 0-1.999 1.181-5.998 11.27-3.999 10.087-6.18 19.993-5.816 29.445.362 9.452 3.998 17.813 7.36 24.447s8.271 12.996 11.815 15.723c3.545 2.726 5.362 2 6.635 1.09 1.272-.908 3.272-.817 5.27-.545 2 .273 5.09-1.09 6.362-2.18 1.273-1.092.546 1.271-.999 2.998s-3.453 1.636-5.816.909-4-.182-5.363.454c-1.363.637-.635 1.818 1.818 3.454s5.453 2.999 10.815 5.362 6.635 4.544 7.634 6.998zm115.33-88.427c-.975.876-2.908.726-1.546-.546 1.364-1.272 1.909-2 2.092-1.272.179.727.363 1-.547 1.818m-47.802 7.27s1.544.909 3.999.545c2.452-.364 5.724-1.09 5.724-1.09l1 .181s-4.635 2.909-10.542 4.999c-5.908 2.09-16.36 4.817-29.355.454 0 0 4.361.455 8.998.273 4.634-.182 8.633-1.635 12.54-2.999 3.908-1.363 7.09-2.544 7.09-2.544zm-44.806 53.257c2.181 0 .636.909-.273 1.09-.908.183.364 1.546 1.727 2.454 1.364.909 0 1.545-1.636.092a40 40 0 0 1-2.999-3c-1-1 1-.636 3.18-.636M297.172 551.846c-.727-.818-2.635-.363-3.635-.363s-1.363 1.09-2.09 1.09c-.728 0-2 .818-2.817 1.272-.819.456.363 1.636-.274 1.455-.635-.182-1.362.454-1.09 1.545.274 1.09-.545 1.636-.545 2.908s-.818 3.454-2 4.908-.453 4.907.364 5.634c.818.727 3.09 2.363 4.181 2.636 1.09.273.273 1.363-1 1.181-1.272-.181-.818.727.182 1.09s.545 1.91 0 3.636-.181 2.363-.181 2.363l1.089 1.818c0-1.818.91-2.727.91-2.727-.364 1.273-.091 2.272.818 2.727.908.454 1.636 1.181 2.544 1.272.91.091 2-.636 3.272-.818s2.818.364 3.726.182c.91-.182 1.272-1.273 2.545-1s1.999-.817 1.999-.817-.18-3.636.09-5.726c.275-2.09-1.363-1.909-2.09-1.455-.726.455-.908-.818-1.182-2.544-.271-1.727.274-5.544.274-7.09 0-1.544-.091-3.362-.727-3.816-.637-.454-2.181.182-3.453.545-1.273.364-2.636-.363-2.636-.363s.727-.182 1.999-.273c1.272-.09 1.455-.363 2.09-.908.637-.546.545-1.455-.545-1.272-1.09.181-2.09.181-3.18-.183-1.091-.363-3.09-1.454-3.09-1.454s.908-.09 2.272 0c1.363.091 1.453.637 3.362.546 1.909-.092.727-.637-.364-.546s-1.999-.546-.908-.636c1.09-.09 1.544 0 1.726-.91.182-.908-.908-1.271-2.271-.999-1.364.273-2.454-.09-2.454-.09s.727-.363 1.544-.637c.818-.272 2.182-.454 2.182-.454zm-4.089 21.993c.818 0 .818-.453-.636-.817-1.455-.364-2.272-1.636-2.272-1.636s.636-.182 1.636.363 2.272.545 3.543.273c1.273-.273.456-1.636-.362-1.908-.819-.273-2.909-.364-2.909-.364 1.364-1 3.181-1.363 4.726-.545 1.545.817 2.272 2.454 2.272 2.454.454-1.909.637-4.817.637-4.817.725 1.272.272 4.817-.091 6.725-.364 1.909-.819 2-3.727 1.818s-5.634-1-5.634-1 1.999-.546 2.817-.546m7.907 4.999c-1.033.443-2.273.455-1.455-.273.819-.727 1.819-.454 2.273-.363s-.182.363-.818.636" style="fill:#fcd011;fill-opacity:1;fill-rule:nonzero;stroke:none" transform="matrix(.3829 0 0 -.3829 -32.554 283.24)"/><path d="M351.31 487.653s-1.881.424-3.091 1.212c-1.212.788-2-.605-4.484.303-2.483.909-2.304.909-2.304 2.363s-.665.788-.665-.06-.545-1.03-1.697-.728c-1.15.303-2.786 2-3.998 3.515s-2.483 2.12-2.483 2.12l-.517.394c.455 1.09 1 1.545 3.726-.728 2.727-2.271 4.544-4.089 4.544-4.089-.09 2.181 2.817 1.636 6.27 0 3.455-1.636 4.545-2.544 5.363-4.453zM314.53 513.313s0-1.182 1.819-4.545c1.817-3.362 3.362-5.634 6.18-7.725s6.362-2.454 7.452-1.817l.44.945c-.85 1.953-2.268 4.767-4.257 6.961-2.636 2.909-5.634 5.181-7.906 6.635-2.273 1.454-3.454 1-3.819.636z" style="fill:#fcd011;fill-opacity:1;fill-rule:nonzero;stroke:none" transform="matrix(.3829 0 0 -.3829 -32.554 283.24)"/><path d="M219.014 424.249c-1 .906-2.273 1.27-2.273 1.27l-.453.456c3.362 0 3.907-.728 5.089-1.273 1.181-.545 3.09-1.09.909-1.726-3.069-.896-5.726-2.364-7.544-4s-2.908-1.818-2.544-.454 1.454 2.635 3.726 3.728c2.272 1.09 3.453 1.542 3.453 1.542zM227.557 426.611s-1.999-.363-3.454-.455l-.545-.454c2.181-1.09 4.908-.727 6.452-.637 1.545.09.546.818-1.726 2.181zM233.889 427.549s-1.94.788-4.363 1.151l-2.423.364c2.09-.272 4.452-1.818 5.452-2.453 1-.636 1.455-.909 2.727-.818 1.272.09 1.272.727-1 2zM232.918 437.517s1.91-2 3.364-2.09a5.4 5.4 0 0 1 2.635.545l.545.544c-.817 1.637-2.726 4.818-5.544 7.363-2.816 2.544-5.27 4.09-5.816 6.997-.545 2.909-.636 5.544-.636 5.544s-2.272-.363-2.454-2.272 1.363-3.817 2.454-5.271c1.09-1.454 4.999-6.09 5.816-7.816.819-1.727 2.727-3.544 3.726-4.726 0 0-2.544.273-4.27 1.91zM250.55 436.335s.364-1.545-.092-2.181c-.453-.637-1.362-1-1.362-1l.357-.517c.92.04 1.816.229 2.46.608 1.545.909 2.454 2.455.546 2.908-.54.128-1.23.417-2.005.807zM241.644 438.426s-.728 1.272.363 1.726 2.364-.18 2.364-.18l.625.378c-.342.24-.673.48-.99.711-1.503 1.103-4.634 1.09-4.634.182s.454-2.272 2.272-3.544zM246.642 441.061s.637.545 1.817 1.182c1.183.635 2 .727 2 .727l.68.356c-1.282.365-3.192.512-6.405.28-1.182-.085-1.455-1.09 1.363-3.09zM254.822 440.334s1.236-.938 1.18-1.545c-.09-1-1-1.181-1-1.181l.183-.546c3.18-.272 6.816.182 9.088 1.09 2.272.91 3.363 2.273 2.454 2.819s-1.727.363-4.908.727c-3.18.363-6.543.908-6.543.908s.273-.727 2.272-1.727c2-1 5.816-1.635 5.816-1.635s-1.181-.637-3.453-.364-3.454.636-5.362 2.181zM269.454 444.878c-2.727.364-4.727.909-5.27 1.727-.547.818 3.088.454 6.724.364 3.635-.091 5.27-.364 6.27-.91l-1.817.092s-1.727.09-3.09-.182c-1.363-.273-2.272-1.273-2.272-1.273zM258.366 443.697s-2.817.817-2.817 1.272c0 .454.453 1.182 2.18.909s2.909-.727 2.909-.727l2.454-.091c-.935.18-1.64.393-2.218.6-1.163.418-1.81.823-2.78.945-3.396.424-4.636 0-4.454-1.09.182-1.092 1.72-2.332 4.999-2.637zM278.451 439.153s-2.363-.637-5.272-3.273c-2.618-2.373-4.452-2.998-4.452-2.998l-.819-.819c-1.09-2.725-1.363-3.363-.453-3.363.908 0 2.18 1.273 5.36 4.727 3.182 3.453 4.818 4.726 6.999 6.271z" style="fill:#937c08;fill-opacity:1;fill-rule:nonzero;stroke:none" transform="matrix(.3829 0 0 -.3829 -32.554 283.24)"/><path d="M216.741 425.52s1.273-.365 2.273-1.271l.363-.457s-2.18.275-4.544-.18c-2.363-.456-3.726-1.362-5.18-3.09-1.454-1.726-2.271-1.637-2.181-.908.091.726 1 2.636 3.635 4.27 0 0-2.363-.636-3.908-2.09s-1.908-3.907-1.908-4.815c0-.91-1.363-1.094-1.182 1.271.183 2.362 1.182 5.09 2.91 6.179 1.725 1.09 2.362 2.09 2.907 3 .545.908 2.817 1.544 3.908 1.818 1.09.272 3.271-.547 6.543-.637s5.635 0 7.907-1.364l-.727-.635s-1.999-.363-3.454-.455l-.545-.454c-2.181 1.09-2.363.818-5.725.818-3.364 0-5.09.636-5.09.636s.182-1.18 3.545-1.18zM233.889 427.549s-1.94.788-4.363 1.151l-2.423.364c-2.09.274-5.18.636-6.998.546s-.637 1.636-.637 1.636c-.818-.273-3.18-.182-4.362.272-1.181.455.544 1.885 1.818 1.818 1.726-.09 3.998-1.545 6.361-1.726s2.636 0 4.272-.274c1.636-.272 4.453-2.272 6.725-3.543zM238.917 435.972s-1.181-.637-2.635-.545c-1.454.09-3.364 2.09-3.364 2.09l-.18.727c-1.728 1.635-3.636 4.817-4.908 7.089-1.272 2.271-3.818 4.18-2.727 1.272 1.09-2.908 1.636-5.907 3.18-8.09 1.546-2.18 6.272-6.633 6.272-6.633s-1.909.363-4.726 2.635c-2.817 2.273-4.362 3.454-6.816 3.636 0 0-.273.636 1.09.636 1.364 0 2.272.273 1 1.545s-1.636.454-2.999-.363c-1.363-.818-2.272-1-2.272-1s2.181 2.18-.364 2.18c-1.747 0-3.362-1.544-2.727-2.362.637-.818 1.455-2 3.908-2.636 2.455-.636 3.727-1.453 8.726-4.09s7.906-3.816 11.36-4.542c3.453-.729 7.907-.092 7.907-.092s-3.182-.183-6.817 1.544-6.27 4.181-7.907 6.544c0 0 2.272-.909 5.636-2.817 3.362-1.909 5.27-2.454 6.361-2.636 1.09-.18 3.196.538 0 2.364-2.544 1.453-5.635 2.453-6.453 4.088zM241.644 438.426s-.728 1.272.363 1.726 2.364-.18 2.364-.18l.625.378c1.769-1.246 3.806-2.555 5.458-3.39l.096-.625s.364-1.545-.091-2.181-1.363-1-1.363-1l.357-.517c-1.286-.054-2.614.184-3.356.608-1.273.727-1.181 1.363.545 1.636 1.727.272 1.817.909 1.817.909-2.18 0-4.998.636-6.815 1.909zM246.097 440.517c2.817-2.001 5.907-3.182 9.088-3.455l-.182.546s.91.181 1 1.18c.055.608-1.181 1.546-1.181 1.546l-.273.727c-1.096.887-1.682 1.774-3.41 2.265l-.68-.356s-.817-.092-2-.727c-1.18-.637-1.817-1.182-1.817-1.182zM278.451 439.153s-2.363-.637-5.272-3.273c-2.618-2.373-4.452-2.998-4.452-2.998l-.819-.819c1.091 2.727 1.273 3.817 3 5.545 1.726 1.726 6.222 2.96 9.178 3.453 2.182.363 1.91.182-.272-1.363zM258.366 443.697s-2.817.817-2.817 1.272c0 .454.453 1.182 2.18.909s2.909-.727 2.909-.727l2.454-.091c2.817-.546 6.362-.182 6.362-.182l.545-.182s.909 1 2.272 1.273 3.09.182 3.09.182l1.817-.092c1-.544-1.726-1-2.907-1.363s-2.273-1.362-5.908-1.545c-2.747-.137-4.817-.727-9.724-.273z" style="fill:#fcd011;fill-opacity:1;fill-rule:nonzero;stroke:none" transform="matrix(.3829 0 0 -.3829 -32.554 283.24)"/><path d="M267.636 578.474s.727.091.727.91c0 .927-.364 1.18-1.363 1.272-1 .091-1.545.273-1.545.273l-.728-.092c-.272 1.091.81 2.928 1.909 2.818.909-.09 1.818 1 2.635 1 .819 0 .364-.364-.09-.636-.454-.273-.363-1.455-1.454-1.727s-1.091-.91-1.091-.91c.727-.545 1.272.365 2.09.365s1-2.182 1.091-3.182-1.636-1-2.454-.454zM291.447 601.74s0-.424.545-.787l.56-.014c-.37.104-.394.412.076.53.727.18 1 .362.363 1.544-.636 1.181-.636 1.818.183 1.908.817.091 1.363.455-.09 1.364-1.455.908-3 .636-3.545-.091-.546-.728-.364-1 .636-1.545s.363-1.454 1.181-1.817c.818-.364.546-.728.182-.728zM272.665 585.927s.727-.364.485-1.333l.03-.575c1.18.817.908 1.635.273 2.635-.637 1-.546 2.272-1.273 2.272l.121-.697s.182-.97-.423-1.09c-.607-.12-1.396-.215-2.122-.606-.786-.424-1.15-.727-1.15-.727l.12-.424c.637.454.455-.091 1.181-.364.728-.272 1-.818 1.455.182.454 1 1 1.727 1 .818z" style="fill:#937c08;fill-opacity:1;fill-rule:nonzero;stroke:none" transform="matrix(.3829 0 0 -.3829 -32.554 283.24)"/><path d="M268.848 591.622s-.788.242-1.212-1.03-.787-1.393-1.273-1.212c-.484.183-.242.849.182 1.757.425.91.91 1.091 1.394 1.636.485.546 1.01.368 1.515.485.788.182 1.333-1.515 1.333-1.515.241-.848.787-.485 1.818-.242l-1.243-1.666c.818.818 2.18.455 2.453-1.363l.062 1.272s.787 1.393.363 2.302c-.425.91.12.546.788-.241.666-.789.328-1.648.303-2-.061-.849.424-1.273.424-1.273l.787-.424s1.09-.636.273-1.272-1.363-.273-1.363-.273l.363-.727c1.182-.273 1.909-1.272.818-1.272-1.09 0-1.818-.727-1.545-1.455.273-.727.91-.908 1.818-.635.908.272.727-.546 0-.91-.727-.363-.818-1-.182-1.908s-.454-1.818.182-2.454 1.181-.363.908.091c-.272.455-.272 1.636.273 1.181.546-.453 1.182 0 1.272.546.092.545 1.182 1.182 1.545 2.09.364.91 1.455 3.09 1.092 4.181-.365 1.09.545 1.817 1.363 2.09.817.273.817.545 0 1.09l-.364-.363s-.636-1.181-1.272-.273l-.364.091c-.546-.636-1.09-1.726-1.273-3.453-.181-1.727-.727.09-.635 1.545.09 1.454-1.727 2.454-3.09 2.817-1.363.364.417 1.57 1.272.636 1-1.09 2.363-1 3.544-.09l.91.5c.544.272 1.135 1.726 1.135 1.726l-.046.59c-.454-1.271-.908-1.09-2.363-1.271-1.454-.182-1.544.272-.544 1.18 1 .91-.728.273-1.364-.453-.636-.727-.909 0-1.181 1.181-.273 1.182 1.09.636 2.18 1.09 1.092.455 1.182 2-.363 1.91-1.545-.092-1.999.09-1.817.727l-.333-.152s-1.333-.424-.121-.91c1.211-.484 2.544-.605 1.999-.786-.546-.183-1.515-.608-2.363-.122-.848.485-1.212-.424-1.212-.424l-.06-.424c.817.091.817-.818.727-1.909-.091-1.09-1.182.636-1.727 1.364-.546.727-1.273.908-1.455 0-.18-.909-.908-1.545-1.726-1.272s-.727 2.453-.545 3.544c.181 1.09.908.727.635 0l.455.212s.243.606.85.848c.56.225 1.392 1.212 1.816 1.939s.121 2.424.121 2.424l-.151.484c-.819-.727-.455-1.817-.636-2.636-.183-.818-2.182-2.363-1.364-1.272.819 1.09.364 2.272-.272 2.18-.636-.09-1.909-.908-2.363-1.635-.455-.727-.636-1.544-.545-2.544s.09-2-.819-1.818-1.18-.818-1.817-1.09c-.636-.273-1.09-1.546-1.546-2.272-.453-.728.637-2 1.183-2 .545 0 1.636.454 1.636 1.363s.363 1.818.908 1.545z" style="fill:#937c08;fill-opacity:1;fill-rule:nonzero;stroke:none" transform="matrix(.3829 0 0 -.3829 -32.554 283.24)"/><path d="M295.991 597.833s.364 1.09-.181 1.18c-.546.092-.546.728-.546.728l.09.909c.456-1 1.001-1.364 1.91-1 .908.364-.455 1.545 0 2.09.454.546 1.999-.09 1.999-.636 0-.545.272-.908.817-.454.546.454 1.455.364 1.363-.818-.09-1.182 1.001-1.818 2.182-2.181 1.182-.364.818-.818.546-1.545-.274-.728 1.18-1 1.364-1.818.18-.818-.274-1.363-.911-1.09-.636.272-.636 1-1.271.727-.636-.273.635-1.818 1.999-2.272 1.363-.455 1-1.182 0-1.091s-.182-1.09 1.181-1.636.545-1.818-.272-2.09c-.818-.273-1.908-.455-2.817.09-.91.546-.091.819.909.819.999 0-.545.727-1.182 1.545-.638.818-.91-.183-.454-.818.454-.637-.364-1.454-1.454-.637-1.091.819.545 1.364.18 1.91-.363.545-.909.817-1.09 0-.181-.82-1.272-.455-2.726-.274-1.454.182-2.09.364-2.635-.272-.546-.636.635-.727 2.453-.636s-.363-1.636.545-1.545c.91.09 1.454-.455 1.363-1.273s-1.544 0-2.271-.454c-.727-.455-2.272.363-2.636.818s-1 1.09-1.455.636c-.453-.454-1-.364-1.544 0-.545.363.455 1.181 1.273 1.363s.635.91 0 1.09c-.637.182-1.546-1.18-2-1.817-.454-.636-1.545-.545-2.09-.091-.546.455-.91-1.09-.09-1.363.816-.273 1.362-.727.635-1-.727-.272-1.727-.363-2.09-1.272-.364-.909-1.727-.636-1.727-.09 0 .544-1.09.544-1.273-.364-.181-.909-1.454-1.273-1.454-2.818s-.818-1-.818.273c0 1.272.818 1.636 1 2.908s.273 2.09.727 2.363c.455.273 1.363.818 1.636 2.272s-.636 2-1.454 2v.363c1.09 1.09 1.818 1 1.818 1l.636-.091c-.727-.091-1-1.181-.092-1 .91.182 1.91-.545 1.364-1.09-.545-.546-.545-1.909.092-1.09.635.816 1.362 0 2.09.635.726.637-.637.181-1.09.818-.456.636-.729 1.727.09 2.635.817.91 1.453 1.546 1.908.727.454-.817.909-1.271 2.09-1.18 1.182.09.819.272-.273.908-1.09.636-1.453 1.545-1.817 2.544l.727-.272s1.273-2.09 1.636-1l.46.19c-.179-.222-.155-.767.267-1.19.727-.727 1.636-.636 2.363-.454s2.18-.09 1-.817c-1.181-.728-2-1-1-1s1.818.09 2.454 1.18c.636 1.091 1.09.91 1.363.092.272-.817 1-1.636 1.09-.817.092.817 2.636.545.91 1.362-1.728.818-1.545 1.364-2.908 1.818-1.543.514-1.91.181-2.818-.454-.909-.637-1.455-.727-2.09.09l.727.364s1.363.364 1.726 1.272v.636c.91.91 1.818.818 2.181.273.364-.545 2-1.726 1.637-.727-.365 1 .363 1.272.817 1.454.455.182.363.727-.546.455-1.316-.395-1.271.454-2.362.727-1.09.273-1.181-.91-2.18-1.182zm-1.819-7.18c-.944.258-1.726-.636-.726-.818s1.726.545.726.818" style="fill:#937c08;fill-opacity:1;fill-rule:nonzero;stroke:none" transform="matrix(.3829 0 0 -.3829 -32.554 283.24)"/><path d="M277.936 604.649s.363-.485.97-.364c0 0 1.544.455 1.544-.545s.363-1.454 1.091-.818c.727.636 1 .636 1.454.364.454-.273 1.363.181.637.818l-.728.636c-.818.454-1.908.908-2.726 1.181s-2.454.09-2.454-.727zM277.39 596.409s-1.332-.424-.12-.91c1.211-.484 2.544-.605 1.999-.786-.546-.183-1.515-.608-2.363-.122-.848.485-1.212-.424-1.212-.424l-.06-.424c-.723-.08-2.091.818-1.273 1.818s1.09 1.908-.182.817-1.545-3.544-2.18-2.999c-.637.546-.728 1.364-.456 2.09l.455.213s.243.606.85.848c.56.225 1.392 1.212 1.816 1.939s.121 2.424.121 2.424l-.151.484c.818.727 1.454.091 1.545-1.454l-.424-.666s-.182-.849.545-.728 1.272.242 1.272 1.575c0 1.334.242 1.455.727.97.486-.485-.06-1.453-.241-1.999-.182-.546.241-1.758.241-1.758l.253-.448c-.424.022-.749-.03-.828-.308zM281.723 587.835c.636-.908 1.272.273 1.272.273l.364.364c-.818.545-.455 1.726.363 1.726v.364c1.09 1.09 1.818 1 1.818 1l.636-.091c.727.091.636 1.363.181 2.454-.454 1.09.428 1.381.637.545.273-1.09 2-.182 2 .455 0 .636 1.18 1.453 1.544.453l.727-.272s1.273-2.09 1.636-1l.46.19c.13.16.364.153.63-.19l.728.364s1.363.364 1.726 1.272v.636c-.908-.908-1.908 0-2.998.91-1.092.908-.273 1.908.09.999.364-.91 1.455-1.181 2.454-.91v.456s.364 1.09-.181 1.18c-.546.092-.546.728-.546.728l.09.909c-.454 1-.817.727-1.907.364-.387-.13-.692-.133-.895-.075l-.56.014c-.545.363-.545.788-.545.788l.091.363c-.364 0-1.272.818-1.455 1.272-.181.455-.544.91-1.18 1.273l-.303-.425s-.485-.605-.182-1.514c.302-.91.773-1.037 1.515-1.151.786-.121 1.03-1.152 1.03-1.152l-.334-.393c0-1 1.363-1.908 1.363-2.545 0 0-1.545 1.181-2.18 1.181-.637 0-1.545-1.272-2.364-2-.818-.726-1.545.274-3.363.91l-.938.363c.242.304 1.272.546 1.878 1.334.606.787-.364.787-.909.06s-1.272-.848-1.818-1.03c-.545-.182-1.817.061-2.484-.243-.666-.303 0-1.09 0-1.09l.545-.212c1 .091 2.506-.522 3.363-1.272.727-.637 1.09-.727 1.09-1.636s-1.18-.364-1.636-1.636l.046-.59s-.591-1.455-1.136-1.728c0 0-.48-.232-.363-.24.439-.036.065-1.213-.364-1.714z" style="fill:#fcd011;fill-opacity:1;fill-rule:nonzero;stroke:none" transform="matrix(.3829 0 0 -.3829 -32.554 283.24)"/><path d="M283.086 599.286c1.102.221 1.363 1.273.09 1.364s-1.453 1.181-2.363 1.363c-.908.182-2.18.363-1.635.727s.273.909-.455.727c-.727-.181-.817-1.363-.09-1.726.726-.364.818-1.182.272-2s.454-1.454.636-.091c.183 1.364.728 1.909 1.455 1.272.727-.636 1.18-1.817 2.09-1.636m7.543.728c0 1-1.182 1.635-2 1-.818-.637-1.545-.273-1.908.09-.364.364-1.636 0-2.272.818s-1.636.091 0-.636 2.09-1.636 1.272-2.181.546-.455 1.546 0 2.999.818 1.908.181c-1.091-.636-1.091-1.635-2.272-1.635-.832 0-2.79.27-3.242.208-.19-.026-.514.064-.514.064.242.304 1.272.546 1.878 1.334.606.787-.364.787-.909.06s-1.272-.848-1.818-1.03c-.545-.182-1.817.061-2.484-.243-.666-.303 0-1.09 0-1.09l.545-.212c-.56-.051-1.266.098-1.807.127l-.253.448s-.424 1.212-.241 1.758c.181.546.727 1.514.241 2-.485.484-.727.363-.727-.97 0-1.334-.545-1.455-1.272-1.576-.727-.12-.545.728-.545.728l.424.666c.09-1.545.545 1.272.545 2.545s1 1.908 1 2.726l.212-.545s.363-.485.97-.364c0 0 1.544.455 1.544-.545s.363-1.454 1.091-.818c.727.636 1 .636 1.454.364.454-.273 1.363.181.637.818l-.728.636c.818-.455 1 .818 2 1 1 .181 1.18-.82.636-.91-.545-.09-.727-.817-.364-1.363.364-.545 1.181-.818.727-.181-.454.635-.091.818.909 1 .999.18 1.455.726 2.09.363l-.302-.425s-.485-.605-.182-1.514c.302-.91.773-1.037 1.515-1.151.786-.121 1.03-1.152 1.03-1.152z" style="fill:#937c08;fill-opacity:1;fill-rule:nonzero;stroke:none" transform="matrix(.3829 0 0 -.3829 -32.554 283.24)"/><path d="M264.727 580.837c.273-1.09 1.818-2.18 2.636-2.726l.273.363s.727.091.727.91c0 .927-.364 1.18-1.363 1.272-1 .091-1.545.273-1.545.273zM273.815 588.472c.273-1.818.819-2.363 2-2.636l-.363.727s.545-.363 1.363.273-.273 1.272-.273 1.272l-.787.424s-.485.424-.424 1.273c.025.352.363 1.211-.303 2-.667.787-1.213 1.15-.788.241.424-.909-.363-2.302-.363-2.302zM271.362 589.835c-.818-.818.091-.91.818-.91l.121-.696s.182-.97-.423-1.09c-.607-.12-1.396-.215-2.122-.606-.786-.424-1.15-.727-1.15-.727l.12-.424c-.635-.454-1.957-1.414-2.454-.546-1.453 2.545.455 2.454 1.546 2.454s1 1.09.909 1.727c-.092.636.817 1.909.272 2.18l-.15.425s-.789.242-1.213-1.03-.787-1.393-1.273-1.212c-.484.183-.242.849.182 1.757.425.91.91 1.091 1.394 1.636.485.546 1.01.368 1.515.485.788.182 1.333-1.515 1.333-1.515.241-.848.787-.485 1.818-.242zM272.665 585.927s.727-.364.485-1.333l.03-.575c-1.182-.818-1.545-1.545-1.545-2.363 0-.82.818-1.546.272-2.272-.545-.727-1.454.181-1.817 1.817-.364 1.636.273 2.636 1.18 2.818.91.181 1.092 1.09 1.092 1.999z" style="fill:#fcd011;fill-opacity:1;fill-rule:nonzero;stroke:none" transform="matrix(.3829 0 0 -.3829 -32.554 283.24)"/></svg>