<svg xmlns="http://www.w3.org/2000/svg" viewBox="75.03 137.48 445.22 566.93"><path d="M470.22 149.195c9.104 1.582 17.336 5.099 24 11.62 6.9 6.75 10.971 15.603 13.743 24.72 3.257 10.714 4.97 22.265 6.494 33.345 2.823 20.533 4.824 41.11 5.478 61.833 1.684 53.408-3.328 108.54-17.362 160.178-11.637 42.814-29.703 82.013-53.12 119.61-10.993 17.65-23.667 34.025-37.31 49.696-31.26 35.901-67.567 67.225-109.236 90.444l-6.762 3.768-5.86-3.568c-39.187-23.867-74.398-53.403-104.428-88.13-13.702-15.846-26.955-32.076-38.107-49.848-23.532-37.5-42.561-76.892-54.546-119.622-12.691-45.247-17.944-92.817-18.17-139.745-.045-9.76.16-19.528.578-29.28.802-18.767 2.298-37.949 5.217-56.512 2.374-15.095 4.401-33.856 13-46.792 8.982-13.512 21.768-20.805 37.517-24.103 6.59-1.38 13.42-2.268 20.107-3.038 8.989-1.035 18.021-1.813 27.044-2.48 21.912-1.617 43.93-2.579 65.893-3.18 16.576-.453 33.169-.685 49.75-.62 31.373.123 62.814.901 94.13 2.836 27.285 1.686 55.004 4.182 81.95 8.868" style="fill:#fefefe;fill-rule:evenodd"/><path d="M469.424 153.77c29.6 5.147 35.51 29.95 40.432 65.742 2.821 20.524 4.785 40.662 5.437 61.348 1.667 52.864-3.346 107.833-17.202 158.813-11.6 42.678-29.36 81.093-52.58 118.372-10.89 17.484-23.29 33.504-36.872 49.103a476 476 0 0 1-19.73 21.328c26.198-29.807 48.325-63.211 65.372-98.79 16.146-33.696 27.69-69.378 35.233-105.949 8.87-43.001 12.204-87.046 11.4-130.91-.247-13.52-.639-26.928-1.76-40.414-1.475-17.739-4.1-35.278-7.792-52.69-4.493-21.193-17.31-32.184-39.524-32.184H142.2c-10.922 0-21.33 3.506-29.224 11.208-6.91 6.743-9.943 15.16-11.488 24.48-2.757 16.634-4.83 33.323-6.128 50.136-1.1 14.27-1.625 28.534-1.96 42.84-1.212 51.663 4.145 103.284 17.663 153.217 11.227 41.469 28.134 81.18 50.327 117.978 11.89 19.714 25.726 38.734 40.898 56.554a430 430 0 0 1-12.917-14.279c-13.665-15.802-26.671-31.725-37.686-49.278-23.302-37.133-42.083-75.89-54.008-118.408-12.509-44.596-17.773-91.901-17.998-138.513-.133-28.476 1.945-60.925 5.739-85.048 2.627-16.704 4.593-33.38 12.28-44.942 7.167-10.783 17.776-18.607 34.6-22.129 27.949-5.85 103.635-9.448 161.826-9.22 63.852.25 128.007 3.412 175.301 11.635" style="fill:#c79b44;fill-rule:evenodd"/><path d="M142.2 173.85h309.638c25.065 0 30.96 15.908 33.35 27.182 8.346 39.351 8.987 68.423 9.417 91.911 1.74 95.047-16.46 172.335-46.015 234.016-13.333 27.829-28.383 52.606-44.925 74.45-34.591 45.674-74.154 78.528-107.254 99.66-23.488-16.33-81.727-62.641-119.941-120.662-44.915-68.195-79.626-161.855-76.762-284.056.646-27.582 1.867-55.058 8.005-92.093 1.223-7.381 3.518-14.992 9.67-20.994 5.364-5.236 13.52-9.414 24.816-9.414" style="fill:#0151a0;fill-rule:evenodd"/><path d="M341.078 651.78c40.344-37.443 77.9-87.94 98.833-139.16 11.305-27.66 18.232-57.266 22.627-87.758 7.356-51.022 6.963-103.089 7.064-157.207H341.196v2.24h-88.193v-2.24H123.779c.41 89.159 4.49 173.018 35.017 249.494 19.128 47.92 51.598 94.284 94.139 134.55l.137-5.014c27.744 16.169 57.149 17.212 87.928 0zm123.484-442.544c-.75-5.092-2.995-8.046-4.981-10.336-3.048-3.514-7.163-4.64-11.138-4.64l-303.036-.065c-6.23 0-11.327 3.716-13.748 8.493-1.766 3.485-2.318 7.542-2.692 11.36l-4.806 39.057 346.807.073z" style="fill:#fefefe;fill-rule:evenodd"/><path d="M382.242 475.485c6.411 5.853 13.752 11.312 20.96 15.55 7.916 4.656 15.673 7.853 21.863 8.796-4.356 1.173-10.344 3.331-14.137 7.462-2.351 2.56-3.826 5.928-3.662 10.171 6.971.564 13.817-.887 18.636-3.542.59-.325 1.344-.867 2.038-1.287.23-.139.315-.178.603-.291l-.006.641c-.532.696-1.472 1.676-2.123 2.31-13.171 6.641-22.785 4.508-34.908-2.8-6.665 4.098-14.537 6.335-23.698 6.852l6.52-10.887c1.405-2.346 1.413-4.883.02-5.122-1.084-.185-2.497.375-3.665 1.89l-9.393 12.184-5.444-.563 6.829-8.437c.59-2.911-.077-4.236-1.005-4.74-.607-.33-2.906-.029-4.464 1.651l-6.538 10.42-7.184 3.369 6.389-10.155c.546-5.916-1.236-6.387-5.474-2.765L334 521.238l-6.6 1.019 9.221-12.128c.568-2.518.789-4.451.12-5.114-.67-.663-2.1-.185-4.578 1.863l-10.785 14.604-4.608-1.435 8.033-10.46c.462-4.92-1.251-6.238-5.138-2.216l-9.053 12.204-6.165.028 6.73-10.117c.617-4.625-.615-6.323-5.026-2.114L295.254 522.3l-7.997.715 8.76-12.258c.477-2.33.586-4.527-.105-5.06-.89-.688-2.272-.365-4.767 1.563l-10.545 15.48-5.9-2.464 7.21-9.29c.324-3.18-.004-4.832-.983-5.082-.979-.251-2.3.235-4.826 3.322l-7.1 10.769-5.08.311 6.405-9.012c.52-2.864.359-4.826-.553-5.175-.743-.284-1.734.428-2.749 1.194-.953.72-1.99 1.582-3.033 2.719l-9.4 13.482-5.446.032 7.978-11.04c1.255-3.838 1.329-5.656.467-6.062s-4.083 1.615-5.434 3.46l-9.374 13.402-5.194-.866 7.286-11.176c.42-2.497.792-4.083-.042-4.683-.4-.287-1.928-.598-4.56 1.952l-8.874 12.225-3.872-.997c-6.139 6.387-12.196 8.612-18.448 8.906-7.787.367-15.412-2.792-21.24-6.08l-14.857 8.842 28.063-32.814c-5.057-9.582-11.014-24.68-11.196-38.89-.091-7.087 1.194-14.737 5.915-21.891 5.025-7.617 13.974-14.2 26.933-15.38.513-.587 1.8-1.82 3.174-1.769 2.014.075 3.427 1.408 4.386 3.245l42.79-19.668c1.076 2.882 1.625 8.79-.315 16.015-4.743.138-10.86.583-16.37.658-3.539.048-6.178.088-8.692 1.129-2.178.9-3.977 2.15-4.323 2.76-.762 1.345 2.115 2.316 4.68 2.53l19.583 1.641c1.918.161 2.193 2.864 1.246 4.818-.968 1.996-3.755 3.024-5.56 2.321l-19.528-6.75c-1.765-.595-4.893-1.453-5.665 1.28-.346 1.23-.018 2.733.812 3.595l16.94 13.738-3.834 1.82c-1.459.693-3.075.315-4.207-1.013l-18.273-21.43c-1.26 1.201-2.62 1.81-5.506-.565-10.69-.595-17.895 2.078-22.686 7.31-6.207 6.777-7.896 19.053-7.451 27.852 6.43 6.728 14.975 14.348 23.636 20.003l7.554-6.817-4.822 9.02c14.919-6.708 29.406-13.572 44.898-21.422 6.117-7.541 26.207-29.126 27.04-60.92 1.253-47.81-40.657-76.18-75.791-84.159 32.975-1.308 61.67 1.218 89.931 10.064l.12-33.062c.434-.278.869-.17 1.175.197l.462 33.424q4.289 1.382 8.573 2.964c20.315 7.506 38.168 19.067 50.5 35.307 12.94 17.042 19.802 39.239 17.045 67.31-1.516 15.44-5.259 30.846-12.18 48.238 3.549-1.795 7.154-4.578 10.204-6.634zM203.62 501.352c5.672 7.81 13.178 15.105 19.49 19.859-10.315 9.275-24.536 5.752-32.753.336-1.503-.991-1.798-1.91-.833-3.675 1.968-3.6 6.635-10.02 14.096-16.52m107.03-44.952c6.424-9.749 33.827-12.445 51.807-13.135 5.347 1.212 7.87 2.814 9.882 6.58 1.605 3.003 1.691 7.414.776 11.367-1.845 6.665-3.422 12.622-5.83 20.644-.74 1.348-1.552 2.744-3.07 3.406-1.183.513-2.85.412-4.92.647-12.752 2.615-29.663 2.952-47.756 3.485-.617-10.998-.85-21.996-.89-32.994m67.832 28.673c-2.063 1.848-1.728 5.576-.816 6.482 1.442 1.433 4.039.835 5.864-.58 1.513-1.172 2.116-3.866.98-5.607-1.137-1.74-3.964-2.143-6.028-.295m-148.78-1.904c22.2-11.528 46.3-22.688 69.193-27.654 5.237-1.18 8.5.631 8.952 2.786l-.326 31.307c-25.834 1.03-53.614.817-77.93-2.231-3.985-1.072-2.252-2.872.11-4.208" style="fill:#0151a0;fill-rule:evenodd"/><path d="m177.772 539.848.843 1.431c2.256-1.401 4.311-3.104 5.916-5.013 1.248-1.485 2.23-3.055 3.271-4.745.198-.32.77-.885 1.33-1.115a1.07 1.07 0 0 1 1.112.177c4.924 4.42 9.94 8.677 17.87 8.498 7.95-.18 11.815-3.083 17.947-8.285 1.294-1.098 2.92-1.364 4.29-.377 5.735 4.133 12.218 6.414 18.553 5.973 6.51-.454 11.83-2.476 18.453-6.948 1.473-.995 2.893-.656 4.194.192 6.633 4.323 12.289 5.403 17.86 5.17 5.836-.245 12.555-3.23 17.493-7.274.97-.795 2.07-.595 2.513-.252 8.183 6.34 13.481 8.254 19.477 8.066 7.85-.247 15.305-5.083 21.622-10.708.13-.115.624-.392 1.119-.486s.992-.005 1.128.095c6.546 4.793 12.632 6.844 18.961 6.687 5.554-.139 12.249-3.212 17.238-7.292 1.064-.87 2.403-1.376 3.675-.39 5.807 4.504 11.088 6.319 17.137 6.258 6.273-.064 14.002-3.68 18.716-7.245l.257-1.15c-5.597 3.327-12.797 6.514-18.781 6.408-5.985-.106-10.254-.999-16.753-5.816-.328-.243-1.502-.745-1.912-.749-1.036-.01-1.487.199-2.301.765-4.985 3.472-9.708 6.21-17.577 6.687-5.248.319-11.532-1.452-17.417-5.316-1.12-.735-2.526-1.229-3.745-.208-5.288 4.432-12.773 9.735-21.126 10.264-5.715.362-11.685-1.374-19.306-7.995-1.054-.915-2.335-.434-2.982.043-5.725 4.224-10.87 6.5-17.121 6.989-7.205.564-14.073-1.609-20.05-5.563-.602-.399-1.12-.166-1.709.255-14.155 10.134-26.66 10.154-38.23.794-.657-.53-1.692-.436-2.305.141-4.169 3.928-7.566 6.313-10.822 7.812-2.452 1.13-4.937 1.778-7.886 1.801-3.597.029-6.134-.5-9.037-1.889-2.904-1.388-6.174-3.635-9.607-6.714-.537-.482-1.25-.193-1.633.275-1.748 2.139-4.343 6.076-10.675 10.749" style="fill:#0151a0;fill-rule:evenodd"/><path d="M266.198 575.646a3 3 0 0 0 1.24-.268c.366-.173.655-.401.873-.697q.327-.434.338-.977v-19.553a1.7 1.7 0 0 0-.324-.982q-.318-.436-.86-.697a3 3 0 0 0-1.225-.263h-2.494a3 3 0 0 0-1.232.263 2.27 2.27 0 0 0-.881.697c-.218.296-.331.62-.338.982.007.374.12.703.338 1.005.218.295.507.53.88.703a2.9 2.9 0 0 0 1.233.268v17.577q.01.543.338.977c.219.296.508.524.874.697.373.173.782.263 1.24.268M280.838 552.21q-2.042.009-3.818.613-1.784.609-3.135 1.68a8.15 8.15 0 0 0-2.12 2.477 6.4 6.4 0 0 0-.775 3.03 6.4 6.4 0 0 0 .775 3.047 8.1 8.1 0 0 0 2.12 2.489c.902.72 1.944 1.278 3.135 1.68q1.776.611 3.818.619c.063 0 .127 0 .183-.005a.4.4 0 0 0 .155-.028l-3.34 4.955q-.159.225-.225.458-.072.226-.07.48c0 .34.113.658.317.948.211.296.5.53.873.715q.562.269 1.303.279c.451 0 .86-.09 1.24-.268q.56-.268.916-.77l7.566-11.183a7.8 7.8 0 0 0 .711-1.635c.17-.57.26-1.16.26-1.78a6.4 6.4 0 0 0-.774-3.03 8.1 8.1 0 0 0-2.127-2.478q-1.355-1.07-3.142-1.68-1.786-.603-3.846-.613zm0 11.718q-1.364-.01-2.473-.53c-.74-.346-1.324-.815-1.76-1.407a3.3 3.3 0 0 1-.67-1.98 3.23 3.23 0 0 1 .67-1.96c.436-.585 1.02-1.048 1.76-1.394q1.11-.52 2.473-.53c.93.005 1.76.184 2.5.53q1.12.517 1.775 1.395c.437.58.663 1.233.67 1.958a3.3 3.3 0 0 1-.67 1.981q-.654.887-1.775 1.407c-.74.346-1.57.524-2.5.53M302.913 575.646q2.061-.01 3.846-.614c1.19-.407 2.24-.965 3.142-1.68a8 8 0 0 0 2.127-2.482 6.36 6.36 0 0 0 .775-3.025 6.4 6.4 0 0 0-.775-3.047 8.05 8.05 0 0 0-2.127-2.488c-.902-.72-1.951-1.278-3.142-1.686q-1.785-.604-3.846-.613-.061-.001-.155.005a.7.7 0 0 0-.183.027l3.34-4.955q.16-.224.224-.457a1.586 1.586 0 0 0-.246-1.417 2.35 2.35 0 0 0-.86-.72q-.548-.278-1.275-.285-.674 0-1.253.268a2.34 2.34 0 0 0-.944.77l-7.524 11.183a5.4 5.4 0 0 0-.74 1.618 7 7 0 0 0-.232 1.797 6.36 6.36 0 0 0 .775 3.024q.77 1.413 2.12 2.483t3.135 1.68q1.778.604 3.818.614zm0-11.718q1.393.01 2.5.53 1.122.52 1.776 1.406.657.878.67 1.981a3.25 3.25 0 0 1-.67 1.959q-.655.878-1.775 1.395-1.108.52-2.5.53-1.365-.01-2.473-.53-1.108-.518-1.761-1.395a3.25 3.25 0 0 1-.67-1.959 3.3 3.3 0 0 1 .67-1.98q.653-.888 1.76-1.407 1.11-.52 2.473-.53M325.124 560.01c-.084 0-.176.005-.282.023-.098.01-.204.028-.31.044l-1.479.302.592-4.252h5.198a3 3 0 0 0 1.24-.268 2.3 2.3 0 0 0 .88-.703c.22-.302.325-.631.332-1.005a1.66 1.66 0 0 0-.331-.982 2.3 2.3 0 0 0-.88-.697 3.1 3.1 0 0 0-1.24-.263h-7.397c-.43 0-.817.078-1.17.229-.352.15-.648.352-.873.614a1.7 1.7 0 0 0-.408.898l-1.226 8.772q0 .597.274 1.083.278.494.818.787c.352.2.796.301 1.317.307q.159.001.317-.023c.106-.01.211-.028.317-.044l4.607-.904c.866.05 1.655.25 2.353.608.697.352 1.254.815 1.662 1.384q.624.862.634 1.925a3.25 3.25 0 0 1-.669 1.959q-.655.877-1.775 1.395-1.108.52-2.5.53-1.365-.01-2.474-.53-1.107-.518-1.76-1.395a3.25 3.25 0 0 1-.67-1.959 1.7 1.7 0 0 0-.338-1.004 2.26 2.26 0 0 0-.887-.703 3.07 3.07 0 0 0-2.508 0 2.26 2.26 0 0 0-.874.703q-.327.443-.338 1.004a6.36 6.36 0 0 0 .775 3.025 8.1 8.1 0 0 0 2.12 2.483q1.351 1.07 3.135 1.68 1.778.603 3.818.613 2.061-.01 3.846-.614c1.19-.407 2.24-.965 3.142-1.68a8 8 0 0 0 2.127-2.482 6.36 6.36 0 0 0 .775-3.025 6.4 6.4 0 0 0-.775-3.047 8.05 8.05 0 0 0-2.127-2.488c-.902-.72-1.951-1.278-3.142-1.686q-1.785-.604-3.846-.613" style="fill:#c79b44;fill-rule:evenodd"/><path d="M140.273 209.944h17.086v30.122h-5.01v-25.548h-7.064v25.548h-5.012zM179.486 209.944h4.853l8.212 30.122h-5.192l-2.13-9.038h-6.635l-2.13 9.038h-5.19zm4.639 16.394-2.213-9.392-2.213 9.392zM253.909 209.944h4.853l8.212 30.122h-5.192l-2.13-9.038h-6.634l-2.13 9.038h-5.192zm4.639 16.394-2.213-9.392-2.212 9.392zM357.126 209.944h4.853l8.212 30.122h-5.192l-2.13-9.038h-6.634l-2.13 9.038h-5.191zm4.639 16.394-2.213-9.392-2.213 9.392zM399.62 209.944h4.853l8.212 30.122h-5.191l-2.13-9.038h-6.635l-2.13 9.038h-5.191zm4.64 16.394-2.213-9.392-2.213 9.392z" style="fill:#0151a0;fill-rule:evenodd"/><path d="M421.216 209.944h4.62l8.213 30.122h-5.192l-5.349-22.702-5.777 22.702h-5.192zM442.579 209.944h4.853l8.212 30.122h-5.191l-2.13-9.038h-6.635l-2.13 9.038h-5.191zm4.639 16.394-2.213-9.392-2.212 9.392zM205.757 209.944l14.641-.027v4.809h-9.63v7.355h7.45v4.809h-7.45v8.363h9.798v4.809l-14.81.005zM326.157 209.944h5.011v30.122h-5.01zm11.796 12.228c.957-.172 1.992-.426 2.968-.34 3.825.341 3.831 4.518 3.831 6.11v8.036c0 .556.294 1.229 1.17 1.284l-.961 1.608-.229 1.71c-2.907.267-4.875-1.298-4.875-3.251v-9.016c0-.942-.274-1.874-1.454-2.242-1.148-.359-3.232-.005-5.798 1.883l.002-5.605c2.983-3.573 5.832-7.633 8.644-12.405h5.591a104 104 0 0 1-8.889 12.228M372.599 209.944l6.797.037c4.098.023 8.55 1.567 8.676 7.518.056 2.596-1.316 4.98-3.132 6.095 2.126 1.107 4.74 3.28 4.579 7.86-.132 3.738-2.09 9.048-9.922 9.176-3.04.05-5.372-.682-6.998-1.26zm11.909 21.482c0-4.11-2.324-5.104-4.346-5.104h-2.552v9.5c1 .231 1.54.414 2.534.345 3.114-.216 4.364-2.536 4.364-4.741m-1.447-13.386c0-3.384-2.169-3.779-3.33-3.779h-2.121v7.95h2.378c.848 0 3.073-.734 3.073-4.171M289.23 209.303c6.16 0 9.486 7.06 9.486 15.766s-3.325 15.766-9.486 15.766c-6.16 0-9.485-7.06-9.485-15.766s3.325-15.766 9.485-15.766m0 4.55c2.956 0 4.551 5.022 4.551 11.215 0 6.194-1.595 11.216-4.55 11.216s-4.55-5.022-4.55-11.216 1.594-11.215 4.55-11.215M165.513 234.078a3.205 3.205 0 1 1-.001 6.41 3.205 3.205 0 0 1 0-6.41M197.906 234.078a3.205 3.205 0 1 1-.001 6.41 3.205 3.205 0 0 1 .001-6.41M227.513 234.078a3.205 3.205 0 1 1-.001 6.41 3.205 3.205 0 0 1 0-6.41M272.445 234.078a3.205 3.205 0 1 1 0 6.41 3.205 3.205 0 0 1 0-6.41M306 234.078a3.205 3.205 0 1 1-.001 6.41 3.205 3.205 0 0 1 0-6.41" style="fill:#0151a0;fill-rule:evenodd"/></svg>