<svg xmlns="http://www.w3.org/2000/svg" viewBox="-0.02 0 490.86 568"><defs><clipPath id="a"><path d="M0 0h490.828v568H0Zm0 0"/></clipPath></defs><path d="M241.695 560.492s-65.62-12-121.144-94c-97.953-144.656-113.07-348-113.07-348s9.796-6.445 23.218-43c8.078-22 6.059-42 6.059-42s43.004 11.844 101.96 6c70.673-7 106.61-31.996 106.61-31.996s36.113 25 106.781 32c58.957 5.844 101.965-6 101.965-6s-2.02 20 6.055 42c13.422 36.559 23.219 43 23.219 43S468.23 321.844 370.28 466.5c-55.523 82-121.144 94-121.144 94z" style="stroke:none;fill-rule:nonzero;fill:#3c55a6"/><path d="M39.48 35.742s57 13.5 116.25 1.5 90-27.75 90-27.75 49.5 28.5 114.75 32.25 91.5-4.5 91.5-4.5-1.5 17.25 11.25 45 18 39 18 39 0 15-3.75 42.75-8.25 49.5-8.25 49.5l-446.25-.75s-6-18.75-10.5-52.5-5.25-38.25-5.25-38.25 11.25-12.75 21.75-39.75 10.5-46.5 10.5-46.5" style="stroke:none;fill-rule:nonzero;fill:#fff"/><path d="M13.98 110.242v15h467.38v-15zM399.336 412.992l-22.356 43.5-39.285 48.75v-293.8h61.64zM276.02 556.977h-61.641V211.336h61.64zM152.734 502.992l-45.754-51-15.886-36.75V211.336h61.64z" style="stroke:none;fill-rule:nonzero;fill:#67bc63"/><path d="M21.23 204.242v15h449.25v-15zM75.95 187.473h-7.255l-8.785-30.516q-1.019-3.492-1.594-5.707c-.218-.664-.48-1.812-.796-3.437l2.214-.172q-.211 1.733-.722 4.328-.21.966-1.094 4.195l-8.61 31.309h-7.015l13.371-46.055h6.102zM112.238 187.473H85.734v-46.055h25.782v8.031h-19.22v10.242h17.95v8.032h-17.95v11.718h19.942zM150.52 173.227q-.001 1.88-.313 3.48c-.64 3.328-1.828 5.856-3.555 7.578-2.066 2.121-5.238 3.188-9.52 3.188h-13.519v-46.055h13.274q3.067 0 5.617 1.082 2.371 1.164 3.781 2.938 1.434 1.909 1.996 4.093.549 2.146.547 4.332.002 3.362-1.305 6.063-.83 1.735-1.832 2.832c.059.043.309.219.75.539q4.08 3.702 4.079 9.93m-8.25-18.645c0-1.102-.2-2.09-.59-2.965-.395-.875-.965-1.437-1.72-1.695-1.054-.313-2.526-.473-4.405-.473h-5.38v10.028h5.907q2.779 0 3.746-.426 2.443-.902 2.442-4.469m1.406 18.871q-.002-2.08-.719-3.375-.808-1.295-2.086-1.816-1.349-.658-4.332-.66h-6.363v11.84h6.906q1.129 0 1.484-.075 5.11-.546 5.11-5.914M191.441 187.473h-7.25l-3.8-13.145h-11.996l-3.536 13.145h-7.074l13.363-46.055h6.118zm-17.168-34.512q-.117.713-.867 3.18l-2.933 10.625h7.691l-2.754-9.836c-.05-.192-.21-.774-.488-1.735-.274-.96-.492-1.71-.649-2.234M231.86 187.578l-6.34-.215-27.41.215 13.417-46.16h6.106zm-9.597-8.144-6.489-22.477c-.77-2.672-1.293-4.574-1.578-5.707q-.28-.837-.812-3.437l2.215-.172a52 52 0 0 1-.723 4.328 89 89 0 0 1-1.047 4.195l-6.324 23.27zM267.867 187.473h-26.504v-46.055h25.782v8.031h-19.22v10.242h17.954v8.032h-17.953v11.718h19.941zM285.617 187.473h-6.562v-46.055h6.562zM329.32 187.473h-7.25l-3.8-13.145h-11.997l-3.535 13.145h-7.074l13.367-46.055h6.114zm-17.164-34.512q-.121.713-.87 3.18l-2.934 10.625h7.691l-2.754-9.836c-.05-.192-.21-.774-.488-1.735-.274-.96-.488-1.71-.645-2.234M369.516 187.473h-8.563l-11.23-20.907-3.891 5.164v15.743h-6.562v-46.055h6.562v19.133l14.398-19.133h8.684l-14.379 19.113zM410.93 164.473c0 7.691-1.54 13.707-4.621 18.039q-4.607 6.562-12.02 6.562-7.425 0-12.02-6.562-4.622-6.485-4.62-18.04-.001-11.302 4.62-17.788c3.063-4.368 7.07-6.547 12.02-6.547q7.413-.002 12.02 6.547 4.622 6.504 4.62 17.789m-6.656.14c0-6.015-.996-10.289-2.984-12.812q-2.999-3.727-7-3.727c-2.664 0-5 1.242-7 3.727-1.988 2.523-2.984 6.797-2.984 12.812 0 6.004.996 10.274 2.984 12.797 2 2.485 4.336 3.727 7 3.727q4.001 0 7-3.727c1.988-2.523 2.984-6.793 2.984-12.797M448.625 187.473h-27.937v-7.371l10.375-17.282-8.825-14.336v-7.066h25.473v8.031H431.02c.293.48.574.934.832 1.356q.392.636.804 1.34l6.63 10.675-9.716 15.95-.41.671h19.465z" style="stroke:none;fill-rule:nonzero;fill:#67bc63"/><g clip-path="url(#a)"><path d="M241.063 1.328c-.348.238-35.524 24.012-103.083 30.703-56.722 5.617-98.82-5.656-99.238-5.77a7.514 7.514 0 0 0-9.45 7.969c.02.184 1.7 18.696-5.632 38.676-11.863 32.317-20.508 39.457-20.594 39.524l.293-.203C1.2 113.747-.195 116.414 0 119.05c.04.511 4.008 52.207 19.977 120.894C34.738 303.441 63.094 395.02 114.34 470.7c56.637 83.645 123.2 96.656 126.004 97.172a7.4 7.4 0 0 0 1.344.121l7.44.008c.458 0 .907-.04 1.356-.125 2.805-.512 69.368-13.527 126.008-97.168 51.242-75.68 79.598-167.258 94.36-230.758 15.968-68.687 19.937-120.383 19.976-120.894.195-2.633-1.2-5.305-3.355-6.825l.289.207c-.086-.07-8.727-7.21-20.59-39.523-7.336-19.98-5.652-38.492-5.637-38.676a7.509 7.509 0 0 0-9.445-7.973c-.422.114-42.52 11.387-99.242 5.77C285.28 25.344 249.934 1.56 249.586 1.32a7.54 7.54 0 0 0-8.524.008M139.462 46.957c58.91-5.836 94.238-23.781 105.875-30.629 11.668 6.836 47.101 24.797 106.031 30.633 43.934 4.352 78.899-.809 95.031-4.035.274 8.523 1.66 21.453 6.692 35.156 9.723 26.484 17.883 38.266 22.473 43.32-2.532 26.961-22.637 209.668-111.493 340.895C313.813 536.52 254.633 551.586 248.352 553c-1.118 0-4.758-.008-5.864-.008-6.246-1.402-65.449-16.453-115.73-90.703C37.902 331.063 17.797 148.355 15.266 121.4c4.593-5.06 12.75-16.84 22.472-43.32C42.77 64.37 44.16 51.444 44.43 42.921c16.133 3.226 51.097 8.387 95.03 4.035" style="stroke:none;fill-rule:nonzero;fill:#67bc63"/></g><path d="M216.496 225.773h16.402v21.47h-4.175V229.43h-8.051v17.812h-4.176zM255.73 247.242h-4.5l-1.78-4.875h-8.231l-1.684 4.875h-4.48l7.882-21.469h4.524zm-7.668-8.532-2.844-7.922-2.739 7.922zM257.98 247.242v-21.469h15.211v3.657h-11.035v4.734h10.242v3.656h-10.242v5.766h11.434v3.656zM218.906 508.68h5.91v21.562h-3.933v-17.765h-4.262zM238.074 530.758l-3.308-1.703 3.613-7.344c-1.766 0-3.262-.652-4.5-1.957q-1.852-1.957-1.852-4.867-.001-2.82 1.895-4.77 1.888-1.951 4.566-1.953 2.8.001 4.664 2.024 1.864 2.02 1.864 4.652.001.99-.286 1.992-.286 1-1.324 3.086zm.496-12.938q1.11 0 1.86-.828.75-.826.75-2.047c0-.836-.262-1.53-.785-2.093-.528-.563-1.137-.844-1.84-.844-.735 0-1.371.281-1.899.836q-.797.838-.797 2.086 0 1.236.774 2.062c.515.551 1.164.828 1.937.828M254.809 508.164l3.304 1.715-3.613 7.332q2.649.002 4.5 1.96c1.238 1.31 1.855 2.93 1.855 4.872q0 2.81-1.894 4.762c-1.262 1.304-2.781 1.953-4.566 1.953-1.864 0-3.422-.672-4.665-2.024q-1.863-2.026-1.863-4.644 0-.991.285-2c.192-.676.633-1.707 1.325-3.102zm-.496 12.938q-1.11.002-1.86.824-.755.821-.754 2.058.002 1.243.79 2.086.785.844 1.835.844c.738 0 1.371-.273 1.903-.828q.792-.831.793-2.102 0-1.237-.774-2.058-.774-.822-1.933-.824M267.285 508.68h5.91v21.562h-3.93v-17.765h-4.269z" style="stroke:none;fill-rule:nonzero;fill:#fff"/></svg>