<svg xmlns="http://www.w3.org/2000/svg" id="Layer_1" viewBox="410.2 16.18 87.09 84.51"><defs><style>.cls-1{fill:#cfb986}.cls-9{fill:#f20012}</style></defs><path d="M494.625 70.642c2.373-1.874 2.808-4.769 2.624-6.358l-.133-1.152-1.136.233c-.069.014-.901.193-1.894.751 3.163-2.605 3.021-6.477 2.471-8.225l-.365-1.163-1.102.521a5 5 0 0 0-.498.28c-.378-10.331-4.557-19.952-11.91-27.306a41 41 0 0 0-4.811-4.119c-6.975-5.186-15.267-7.927-23.982-7.927-5.922 0-11.63 1.26-16.955 3.74a40.6 40.6 0 0 0-11.994 8.307c-7.345 7.345-11.522 16.951-11.908 27.267a5 5 0 0 0-.636-.369l-1.101-.52-.365 1.162c-.55 1.75-.687 5.562 2.395 8.164a6.7 6.7 0 0 0-1.819-.69l-1.135-.232-.133 1.151c-.183 1.589.252 4.484 2.624 6.358-.435-.06-.725-.066-.762-.067l-1.128-.013.055 1.127c.075 1.544.94 4.178 3.466 5.518-.372.051-.61.107-.643.116l-1.085.272.329 1.07c.587 1.91 2.715 5.137 6.795 5.137a8.6 8.6 0 0 0 1.579-.152s-2.986.622-3.077.66l-1.034.439.496 1.008c.773 1.571 2.914 3.971 6.211 3.987a7 7 0 0 0-.726.548l-.839.756.806.791c.958.94 2.846 2.081 5.096 2.081.592 0 1.209-.085 1.841-.268a7 7 0 0 0-.684.792l-.654.92.958.597c.884.55 2.336 1.099 3.963 1.099 1.546 0 3.249-.497 4.777-1.953 0 0 1.057.237 1.22.264l2.154.362v1.831q0 .187-.01.306-.09.003-.212.003h-.819l-.698 2.649h7.266l.586-2.274q.182.332.397.625c.939 1.267 2.277 1.937 3.868 1.937 1.583 0 2.91-.672 3.843-1.948.358-.496.649-1.08.87-1.743q.337 1.002.888 1.755c.939 1.267 2.277 1.937 3.868 1.937s2.911-.672 3.843-1.948c.764-1.059 1.215-2.499 1.344-4.288.198-.068 1.244-.009 1.244-.009 3.227 3.806 7.531 2.668 9.371 1.522l.959-.597-.655-.92a7 7 0 0 0-.682-.79 6.6 6.6 0 0 0 1.839.267c2.25 0 4.138-1.141 5.096-2.081l.806-.791-.839-.756a7 7 0 0 0-.725-.549c3.296-.017 5.437-2.416 6.209-3.987l.495-1.008-1.034-.439c-.091-.039-3.077-.66-3.077-.66a8.6 8.6 0 0 0 1.579.152c4.08 0 6.208-3.227 6.795-5.137l.329-1.07-1.085-.272a7 7 0 0 0-.643-.116c2.526-1.34 3.391-3.974 3.466-5.518l.055-1.127-1.128.013c-.037 0-.327.007-.762.067Z" style="fill:#fff"/><path d="M438.831 92.879c-2.869-1.7-5.426-2.875-4.878-6.844 4.237 1.645 5.06 3.933 4.878 6.844m-6.352-2.458c-2.546-2.184-4.873-3.797-3.641-7.603 3.909 2.375 4.326 4.772 3.641 7.603m-5.657-3.508c-1.8-2.552-3.539-4.553-1.536-7.728 2.967 3.065 2.797 5.324 1.536 7.728m-4.138-4.543c-1.399-2.781-2.828-5.024-.355-7.903 2.489 3.504 1.969 5.72.355 7.903m-3.679-5.602c-.225-3.065-.653-5.628 2.331-7.635.878 4.08-.283 6.037-2.331 7.635m-1.827-5.893c-.03-3.066-.291-5.644 2.796-7.466.613 4.116-.664 5.996-2.796 7.466m-.807-6.932c.863-2.933 1.126-5.771 4.872-6.358-.633 4.132-1.457 5.711-4.872 6.358m13.986 30.989s3.39-4.771 8.08-1.404c-3.499 4.256-8.08 1.404-8.08 1.404m0 0s3.39-4.771 8.08-1.404c-3.499 4.256-8.08 1.404-8.08 1.404m0 0s3.39-4.771 8.08-1.404c-3.499 4.256-8.08 1.404-8.08 1.404m0 0s3.39-4.771 8.08-1.404c-3.499 4.256-8.08 1.404-8.08 1.404m-6.375-3.978s4.36-3.928 8.18.354c-4.352 3.403-8.18-.354-8.18-.354m0 0s4.36-3.928 8.18.354c-4.352 3.403-8.18-.354-8.18-.354m0 0s4.36-3.928 8.18.354c-4.352 3.403-8.18-.354-8.18-.354m0 0s4.36-3.928 8.18.354c-4.352 3.403-8.18-.354-8.18-.354m-5.242-5.793s5.419-2.299 7.574 2.975c-5.202 1.847-7.574-2.975-7.574-2.975m0 0s5.419-2.299 7.574 2.975c-5.202 1.847-7.574-2.975-7.574-2.975m0 0s5.419-2.299 7.574 2.975c-5.202 1.847-7.574-2.975-7.574-2.975m0 0s5.419-2.299 7.574 2.975c-5.202 1.847-7.574-2.975-7.574-2.975m-4.697-6.935s5.829-1.463 7.164 4.254c-5.538 1.036-7.164-4.254-7.164-4.254m0 0s5.829-1.463 7.164 4.254c-5.538 1.036-7.164-4.254-7.164-4.254m0 0s5.829-1.463 7.164 4.254c-5.538 1.036-7.164-4.254-7.164-4.254m0 0s5.829-1.463 7.164 4.254c-5.538 1.036-7.164-4.254-7.164-4.254m-2.021-6.716s5.572.064 5.484 5.325c-5.241-.357-5.484-5.325-5.484-5.325m0 0s5.572.064 5.484 5.325c-5.241-.357-5.484-5.325-5.484-5.325m0 0s5.572.064 5.484 5.325c-5.241-.357-5.484-5.325-5.484-5.325m0 0s5.572.064 5.484 5.325c-5.241-.357-5.484-5.325-5.484-5.325m3.733-.675c-5.112-1.489-4.527-6.556-4.527-6.556s4.971 1.015 4.527 6.556m0 0c-5.112-1.489-4.527-6.556-4.527-6.556s4.971 1.015 4.527 6.556m0 0c-5.112-1.489-4.527-6.556-4.527-6.556s4.971 1.015 4.527 6.556m0 0c-5.112-1.489-4.527-6.556-4.527-6.556s4.971 1.015 4.527 6.556m.625-11.256c-2.173-4.158 1.41-6.93 1.41-6.93s2.389 3.776-1.41 6.93m0 0c-2.173-4.158 1.41-6.93 1.41-6.93s2.389 3.776-1.41 6.93m0 0c-2.173-4.158 1.41-6.93 1.41-6.93s2.389 3.776-1.41 6.93m0 0c-2.173-4.158 1.41-6.93 1.41-6.93s2.389 3.776-1.41 6.93m-1.466 4.233c-4.591-2.792-3.037-7.73-3.037-7.73s4.527 2.129 3.037 7.73m0 0c-4.591-2.792-3.037-7.73-3.037-7.73s4.527 2.129 3.037 7.73m0 0c-4.591-2.792-3.037-7.73-3.037-7.73s4.527 2.129 3.037 7.73m0 0c-4.591-2.792-3.037-7.73-3.037-7.73s4.527 2.129 3.037 7.73M468.522 93.006c-.181-2.912.641-5.199 4.878-6.844.548 3.97-2.009 5.145-4.878 6.844m6.352-2.458c-.685-2.831-.269-5.229 3.641-7.604 1.232 3.806-1.095 5.419-3.641 7.604m5.658-3.508c-1.26-2.404-1.431-4.663 1.536-7.728 2.002 3.174.264 5.176-1.536 7.728m4.138-4.544c-1.614-2.183-2.134-4.399.355-7.903 2.473 2.879 1.045 5.122-.355 7.903m3.678-5.602c-2.048-1.598-3.209-3.555-2.331-7.635 2.984 2.007 2.556 4.57 2.331 7.635m1.827-5.892c-2.132-1.47-3.408-3.35-2.796-7.465 3.087 1.822 2.826 4.399 2.796 7.465m.807-6.932c-3.415-.647-4.239-2.226-4.872-6.358 3.746.587 4.009 3.425 4.872 6.358m-13.985 30.989s-4.581 2.852-8.08-1.404c4.69-3.367 8.08 1.404 8.08 1.404m0 0s-4.581 2.852-8.08-1.404c4.69-3.367 8.08 1.404 8.08 1.404m0 0s-4.581 2.852-8.08-1.404c4.69-3.367 8.08 1.404 8.08 1.404m0 0s-4.581 2.852-8.08-1.404c4.69-3.367 8.08 1.404 8.08 1.404m6.374-3.978s-3.828 3.757-8.18.354c3.821-4.282 8.18-.354 8.18-.354m0 0s-3.828 3.757-8.18.354c3.821-4.282 8.18-.354 8.18-.354m0 0s-3.828 3.757-8.18.354c3.821-4.282 8.18-.354 8.18-.354m0 0s-3.828 3.757-8.18.354c3.821-4.282 8.18-.354 8.18-.354m5.242-5.793s-2.372 4.822-7.574 2.975c2.155-5.275 7.574-2.975 7.574-2.975m0 0s-2.372 4.822-7.574 2.975c2.155-5.275 7.574-2.975 7.574-2.975m0 0s-2.372 4.822-7.574 2.975c2.155-5.275 7.574-2.975 7.574-2.975m0 0s-2.372 4.822-7.574 2.975c2.155-5.275 7.574-2.975 7.574-2.975m4.697-6.935s-1.626 5.29-7.164 4.254c1.335-5.716 7.164-4.254 7.164-4.254m0 0s-1.626 5.29-7.164 4.254c1.335-5.716 7.164-4.254 7.164-4.254m0 0s-1.626 5.29-7.164 4.254c1.335-5.716 7.164-4.254 7.164-4.254m0 0s-1.626 5.29-7.164 4.254c1.335-5.716 7.164-4.254 7.164-4.254m2.021-6.716s-.242 4.968-5.484 5.325c-.088-5.261 5.484-5.325 5.484-5.325m0 0s-.242 4.968-5.484 5.325c-.088-5.261 5.484-5.325 5.484-5.325m0 0s-.242 4.968-5.484 5.325c-.088-5.261 5.484-5.325 5.484-5.325m0 0s-.242 4.968-5.484 5.325c-.088-5.261 5.484-5.325 5.484-5.325m-3.732-.676c-.444-5.54 4.527-6.556 4.527-6.556s.585 5.067-4.527 6.556m0 0c-.444-5.54 4.527-6.556 4.527-6.556s.585 5.067-4.527 6.556m0 0c-.444-5.54 4.527-6.556 4.527-6.556s.585 5.067-4.527 6.556m0 0c-.444-5.54 4.527-6.556 4.527-6.556s.585 5.067-4.527 6.556m-.625-11.255c-3.799-3.154-1.41-6.93-1.41-6.93s3.583 2.772 1.41 6.93m0 0c-3.799-3.154-1.41-6.93-1.41-6.93s3.583 2.772 1.41 6.93m0 0c-3.799-3.154-1.41-6.93-1.41-6.93s3.583 2.772 1.41 6.93m-1.411-6.93 2.877 11.163c-1.49-5.6 3.037-7.73 3.037-7.73s1.554 4.938-3.037 7.73m0 0c-1.49-5.6 3.037-7.73 3.037-7.73s1.554 4.938-3.037 7.73m0 0c-1.49-5.6 3.037-7.73 3.037-7.73s1.554 4.938-3.037 7.73m0 0c-1.49-5.6 3.037-7.73 3.037-7.73s1.554 4.938-3.037 7.73M445.427 98.097q-.034-.17-.034-.661a394 394 0 0 1-.034-4.065v-6.03a40 40 0 0 1-3.795.051l-.135.525q1.016 0 1.203.135.305.22.305 1.236.034 2.576.034 4.082v4.065q0 1.017-.313 1.236-.19.135-.972.135l-.138.525h5.065l.135-.525q-.863 0-1.067-.144c-.204-.144-.22-.285-.254-.567ZM464.738 88.561q-1.101-1.525-2.981-1.525-1.897 0-3.015 1.525-.874 1.21-1.111 3.192h2.423c.149-2.734.716-4.107 1.703-4.107q1.745 0 1.745 5.691c0 5.691-.582 5.708-1.745 5.708-.894 0-1.443-1.129-1.65-3.378h-2.359c.194.985.523 1.804.993 2.447q1.118 1.507 3.015 1.507 1.88 0 2.981-1.507 1.185-1.642 1.186-4.777 0-3.117-1.186-4.776ZM453.937 95.667c-.207 2.249-.756 3.378-1.65 3.378q-1.744 0-1.744-5.708c0-5.708.581-5.691 1.744-5.691.987 0 1.554 1.373 1.703 4.107h2.373q-.234-1.981-1.095-3.192-1.102-1.525-2.982-1.525-1.897 0-3.015 1.525-1.203 1.66-1.203 4.776 0 3.134 1.203 4.777 1.117 1.507 3.015 1.507 1.88 0 2.982-1.507c.464-.643.788-1.462.979-2.447h-2.311Z" class="cls-1"/><path d="m452.972 92.393-.031.107q.183 0 .244.011.099.023.099.099a.3.3 0 0 1-.042.13q-.34.71-.416.82-.04-.039-.236-.455l-.332-.711h-.796l-.027.107q.129 0 .204.046a.5.5 0 0 1 .143.168q.202.35.313.565l.278.554q0 .099.004.244v.191q0 .176-.008.332-.004.229-.069.275-.039.027-.229.027l-.031.122h1.174l.031-.122q-.221 0-.26-.027-.065-.046-.068-.275a10 10 0 0 1-.004-.324v-.518l.578-1.082a.36.36 0 0 1 .134-.149.5.5 0 0 1 .184-.027l.034-.107h-.873Zm3.411 1.486q.262-.743.369-1.033.198.637.313 1.026.003.015-.339.019a13 13 0 0 0-.343-.011m2.598-.183v-1.143a1.3 1.3 0 0 1 .183-.019q.191.004.282.099.107.118.107.402 0 .524-.222.638a.5.5 0 0 1-.188.027q-.117 0-.162-.004m-2.263-1.311-.804 2.329a.26.26 0 0 1-.17.17l-.006-.402-.118-.016q0 .206-.061.274-.114.126-.434.126h-.187q-.118 0-.16-.031-.065-.05-.069-.274v-.831h.244a.6.6 0 0 1 .222.027q.06.037.06.175l.111-.004v-.564l-.111-.004q0 .141-.06.175-.042.023-.222.027h-.244v-.713q.004-.25.054-.289.018-.015.232-.015h.229q.305 0 .308.4l.118-.019.011-.537h-1.791l-.03.125q.21 0 .247.026.065.046.069.274a55 55 0 0 1 0 1.785q-.004.228-.069.274-.038.027-.217.027l-.03.118h1.905v-.004h.572l.035-.11a.7.7 0 0 1-.199-.019q-.053-.02-.053-.084a.7.7 0 0 1 .042-.179q.087-.24.186-.552.012-.027.789-.012l.187.591a.3.3 0 0 1 .019.099q0 .157-.309.157l-.027.11h2.283l.03-.117q-.21 0-.255-.03-.062-.042-.065-.293v-.722l.201-.008q.242.572.641 1.17h.724l.022-.117a.33.33 0 0 1-.171-.039.6.6 0 0 1-.194-.213 20 20 0 0 1-.598-.925.7.7 0 0 0 .316-.232.72.72 0 0 0 .168-.529q-.045-.593-.96-.57h-.979l-.027.117q.199 0 .236.027.069.05.072.274a34 34 0 0 1 0 1.789q-.004.22-.076.274-.039.027-.21.027l-.002.006q-.205-.015-.284-.247a41 41 0 0 1-.297-.896l-.453-1.418-.393.042Zm4.219.095a.57.57 0 0 0-.297.499q-.023.492.583.85.312.186.419.316.107.129.111.312.012.427-.416.457-.331.023-.484-.228-.084-.14-.092-.415l-.141.019-.026.549q.225.236.739.236.408 0 .682-.21a.65.65 0 0 0 .278-.534.76.76 0 0 0-.194-.549q-.126-.133-.503-.347-.263-.148-.355-.263a.43.43 0 0 1-.08-.255q-.004-.228.137-.339a.38.38 0 0 1 .298-.072q.408.05.422.594l.145-.022.019-.541a1.1 1.1 0 0 0-.633-.194q-.381 0-.614.137" class="cls-1"/><path d="M467.213 63.529c.691.082 1.481.566 1.876.987.841.891 1.707 2.337 1.981 3.773-2.382-.092-3.85-2.331-3.857-4.76m-3.126 2.693c-1.113-1.653-.656-3.716.218-5.235.274.224.591.636.873 1.016 1.403 1.957 1.071 3.148.655 5.752-.705-.22-1.406-1.061-1.746-1.533m2.021-5.293c1.485-1.85 7.096.562 7.096 1.381-.986.429-1.694.44-2.49.513a3 3 0 0 1-.258.011c-1.799 0-4.107-1.581-4.347-1.905m-5.815 4.373c-.472-1.07-.215-3.219.244-4.206.333-.721 1.083-1.024 1.527-1.616 1.538 1.477-.382 7.062-.945 7.311-.221-.464-.618-1.012-.826-1.489m-3.124-6.078c.593-.406 1.83-.763 2.48-.849.459 1.315-1.488 4.629-3.908 4.782.18-1.308.517-3.322 1.428-3.933m-22.414 1.105c0-.073 2.827-2.152 4.494-2.765.354-.135 1.927-.209 2.253-.027-.235.774-2.373 2.564-3.113 2.915-.408.196-.969.207-1.388.264a2 2 0 0 1-.317.021c-.694 0-1.392-.283-1.929-.409m17.819-2.23c.134-.432.276-.886.467-1.35.738.327 1.667 1.876 1.856 2.476.557 1.817-.479 4.305-.853 4.455-.248-1.162-1.969-3.972-1.47-5.58m-3.854 1.632c-.093-.385-.245-1.076-.048-1.648a7.1 7.1 0 0 1 1.119-2.02c1.628.712 2.226 5.511.341 7.1-.291-1.236-1.099-2.128-1.412-3.433m-1.261-3.751c.012 1.227-.462 3.424-2.633 4.508-.765.388-1.824.341-2.985.642 1.063-4.872 4.746-5.144 5.618-5.15m16.335 2.607c1.629-2.734 5.423-3.062 6.762-2.252-.151.452-.481.66-.801.942-1.438 1.286-2.305 1.636-3.308 1.636-.725 0-1.52-.182-2.652-.325m-26.722-1.324c-1.383-.024-3.139-.799-3.773-1.816.523-.657 3.86-.613 4.444-.256.45.279 1.436.995 2.008 1.174-.244.435-1.627.899-2.614.899zm22.071.234c1.269-.649 1.933-1.93 3.052-2.694 1.875-1.28 3.5-1.003 3.854-.653-.407.768-1.595 2.174-2.401 2.834-.902.528-2.26.759-3.259.759-.613 0-1.09-.087-1.246-.246m-4.365-1.164c-.654-.152-1.29-.445-1.681-.727 1.723-1.824 4.456-2.966 6.046-2.326-.37 1.063-1.512 2.124-2.585 2.571-.257.106-1.093.499-1.613.499a.7.7 0 0 1-.167-.017m-13.774-.033c-1.402-.467-3.995-2.748-4.321-4.114 1.034.045 1.731.194 2.548.425 1.242.166 1.949.208 3.148 1.145.598.472 1.253 1.67 1.315 2.15-.311.241-1.175.499-1.948.499-.267 0-.524-.031-.742-.104m17.984-3.614c.477-.737 1.549-1.539 2.124-1.678.87 2.534-.446 5.732-5.116 6.466 0-.022 4.072-1.856 4.247-4.49-.429-.159-1.216-.309-1.255-.298l-.001.002zm-8.95 2.018c.167-2.169 2.586-4.2 5.92-4.568-.076 2.045-1.981 4.096-3.665 4.568-.34.04-.847.058-1.294.058-.484 0-.899-.021-.961-.058m-8.361-3.816c-.384-1.411-.342-1.975-.3-2.677.792.149 2.978 1.273 3.459 1.765.453.468.631 1.285.802 1.996.242.978.251 2.14-.093 2.692-1.197-.127-3.48-2.361-3.868-3.776m5.544 2.999c-1.236-2.019-1.259-3.689-.221-5.997 1.274.173 3.887 4.159 1.458 7.205-.488-.246-.925-.698-1.237-1.208m7.04-9.221c-5.021-.776-6.229 1.56-6.565 1.897-.157.153-2.014-.197-3.781 1.768-.474-.047-2.492-1.137-3.188-.966-.284.786.085 3.815.242 4.381-.796.178-1.838.028-2.784-.123-1.063-.169-2.005-.338-2.336-.04-.211 1.234.905 2.687.905 2.708-1.29-.133-3.756.018-4.531.608-.163.16.284 1.162.935 1.801.701.691 1.843 1.277 3.334 1.399 0 .023-2.688 1.646-3.586 2.827.264.167 2.164.718 2.358.781 1.046.335 3.983-.646 4.032-.646-.162.8-.71 2.935-.725 3.343.023.621 1.234 1.472 1.668 1.745.007 1.376-.136 5.378-.136 5.378-.004.613-.092 1.48.073 1.965.307.059 1.059-.072 1.723-.202.614-.121 1.154-.241 1.195-.212.213.311.232 1.34.354 1.737.391.09.674.286 1.098.332.116.352-.182.946.013 1.264.152.448.875.567 1.293.737 0 .804.03 1.6.03 2.401.211.432 1.797 1.009 2.234 1.262 0-.025 3.467-3.356 3.469-3.363.65.655 1.106 1.162 1.56 1.904-.522 1.5-2.466 4.198-2.591 4.367-.081.147.446.519.508.617.688-.815.951-1.192 1.574-2.256.62-1.069.955-1.617 1.488-2.93-.583-.752-1.259-1.467-1.812-2.152.292-.85.677-1.098 1.131-1.913-.196-.128-.326-.228-.589-.197-1.656 1.956-2.972 3.197-4.797 4.891-.233-.176-.999-.441-1.258-.574-.092-.504.1-2.14-.075-2.419-.199-.509-.883-.454-1.288-.738-.026-.011-.107-.066-.13-.081.061-1.788-.012-1.322-1.135-1.882-.051-.025-.105-.208-.096-.351.005-.553-.04-1.542-.187-1.966-.505.021-2.563.642-2.897.819-.049.012-.073.01-.086-.014l-.02-.075v-.168c0-1.418-.004-3.218.163-4.52.056-.42.081-.854.136-1.224.036-.269.048-.397.148-.579 1.251.021 2.308.38 3.489.507.508-.534 1.208-.867 1.815-1.31.424-.304.952-.666 1.308-.946.048-.047.071-.086.073-.147.005-.055-.041-.461-.144-.649-.406.01-1.319.383-1.892.58-.977.336-1.991.537-2.909.802-.687.196-1.509.481-2.106.58-.537-.027-1.138-.56-1.307-.944-.278-.634.698-3.05.504-4.073.942-.946 1.394-1.569 1.818-1.746-.676 1.092-1.001 2.142-1.035 3.46 1.133-.15 2.498-.214 3.637-.643 1.833-.697 2.564-1.528 3.211-2.382.449 2.48 1.336 3.283 1.981 5.26 1.364.057 2.372-3.805 2.398-3.805.576 2.261 1.352 2.709 1.654 4.147.543-.081 1.041-1.252 1.362-1.316.06.259.088.366.165.581 2.326-.187 4.072-2.023 4.098-2.023-1.034 2.51 1.254 5.804 1.501 6.031.886-.373 1.983-1.982 2.182-2.184.429.954.995 1.844 1.816 2.396.392.276.725.448 1.132.704.41-.37.707-1.654.921-1.899 1.018 1.122 3.158 2.331 4.696 1.767 0 0-.257-3.738-2.69-5.174.344.041.844.177 1.172.244.547.103 3.092-.33 4-1.384-.725-1.101-2.16-2.627-5.325-2.815.785-.253 2.593-2.49 2.73-3.712-.715-.652-1.908-.75-2.783-.937.281-1.909-1.269-3.108-1.467-3.277-.068-.191-.186-2.946-3.714-3.827-.1-.026-.941-2.017-3.058-2.988-1.267-.583-2.419-.768-3.387-.768-1.524 0-2.59.459-2.925.549" class="cls-9"/><path d="M462.786 73.251h.764v-.225h-.764zm-7.459-1.567a10 10 0 0 1-.574-.013c-.044.009-.045.1-.012.123l.086.018c.297.053.312.085.312.445v1.071c0 .362-.011.408-.312.446l-.138.017c-.033.024-.03.112.02.128.094-.016.394-.017.618-.017s.501.001.622.017c.045-.016.052-.104.015-.128l-.163-.017c-.274-.025-.284-.083-.284-.446v-1.071c0-.36.014-.392.312-.445l.086-.018c.034-.024.031-.115-.017-.123a9 9 0 0 1-.57.013m11.119 1.064c0-.454.266-.953.669-.953.394 0 .665.495.665.944 0 .477-.266.981-.67.981-.394 0-.665-.5-.665-.971m-.348.041c0 .551.33 1.111.983 1.111.702 0 1.051-.616 1.051-1.204 0-.551-.33-1.083-.983-1.083-.702 0-1.051.588-1.051 1.176m-9.776-.16c0 .429.28.776.671.776a.75.75 0 0 0 .495-.181c.009-.041.005-.082-.032-.095a.6.6 0 0 1-.244.043c-.341 0-.528-.432-.528-.757 0-.363.203-.634.517-.634.497 0 .607.55.607.897a2.22 2.22 0 0 1-.81 1.744c-.199.16-.438.297-.727.399-.035.032-.008.096.025.114a2.4 2.4 0 0 0 1.182-.595c.53-.505.751-1.098.751-1.634 0-.64-.296-1.095-.909-1.095a.995.995 0 0 0-.997 1.017m2.442-.427c0 .051.051.093.103.075.132-.22.301-.358.519-.358.278 0 .45.184.45.506 0 .333-.258.633-.526.926a4 4 0 0 1-.512.477c-.017.032.003.075.029.091.108-.016.284-.017.453-.017h.503c.29 0 .505.001.695.017.061-.151.147-.338.237-.538a.09.09 0 0 0-.123-.043c-.121.254-.234.259-.51.259h-.606c-.086 0-.1-.03-.097-.073l.398-.446c.305-.344.458-.542.458-.857 0-.356-.253-.608-.661-.608-.4 0-.694.329-.814.589m5.193 0c0 .051.05.093.102.075.133-.22.301-.358.52-.358.278 0 .45.184.45.506 0 .333-.258.633-.526.926a4.3 4.3 0 0 1-.512.477c-.018.032.002.075.029.091.108-.016.284-.017.453-.017h.503c.29 0 .505.001.695.017.061-.151.147-.338.238-.538a.09.09 0 0 0-.123-.043c-.12.254-.234.259-.509.259h-.607c-.086 0-.1-.03-.096-.073l.398-.446c.305-.344.458-.542.458-.857 0-.356-.253-.608-.661-.608-.4 0-.694.329-.813.589m4.445 0c0 .051.05.093.103.075.132-.22.301-.358.52-.358.278 0 .45.184.45.506 0 .333-.258.633-.526.926a4.3 4.3 0 0 1-.511.477.05.05 0 0 0-.007.025.08.08 0 0 0 .036.066c.108-.016.284-.017.453-.017h.503c.29 0 .505.001.695.017.061-.151.147-.338.237-.538a.09.09 0 0 0-.123-.043c-.12.254-.234.259-.509.259h-.607c-.079 0-.097-.025-.097-.063v-.01l.398-.446c.305-.344.458-.542.458-.857 0-.356-.253-.608-.661-.608-.4 0-.694.329-.814.589m-6.362-.523-.356.054c-.165.028-.266.041-.332.06-.066.023-.157.181-.225.344a1.3 1.3 0 0 0-.112.419c0 .185.184.288.403.45.217.164.417.398.417.729 0 .578-.535.967-.813 1.056-.042.037-.02.123.038.144.374-.113 1.128-.593 1.128-1.322 0-.413-.235-.711-.566-.946-.066-.049-.159-.111-.241-.169-.14-.097-.171-.158-.14-.253.021-.084.048-.123.198-.144l.647-.098c.161-.02.256-.221.29-.334.005-.033-.012-.061-.059-.069-.055.036-.087.051-.277.078m9.632.001-.356.054c-.164.028-.266.041-.331.06-.067.023-.158.181-.226.344a1.3 1.3 0 0 0-.112.419c0 .185.184.288.403.45.217.164.417.398.417.729 0 .578-.534.967-.813 1.056-.042.037-.02.123.037.144.375-.113 1.128-.593 1.128-1.322 0-.413-.235-.711-.566-.946-.066-.049-.158-.111-.241-.169-.139-.097-.171-.158-.139-.253.021-.084.048-.123.198-.144l.647-.098c.161-.02.257-.221.29-.334.005-.033-.012-.061-.059-.069-.055.036-.088.051-.278.078" style="fill:#e80011"/><path d="M482.867 44.088q-.155.303-.29.596t-.265.597c-.13.304-.177.429-.268.678a8 8 0 0 0-.401-.218 41 41 0 0 0-1.235-.612 15 15 0 0 0-.688-.307q-.099.382-.193.994t-.181 1.289-.157 1.315q-.07.64-.108 1.082l-.03.237q-.017.123-.11.162-.051.021-.055.059-.002.037.037.046l.356.036q.216.02.439.044t.431.053c.208.029.247.038.327.054q.03.012.035-.033t-.024-.057a1 1 0 0 1-.079-.162.6.6 0 0 1-.041-.276q.02-.362.04-.773.019-.41.044-.824a18 18 0 0 1 .155-1.515q.28.116.502.213.224.096.447.212l.487.25q.263.135.64.309l.15-.361.245-.589q.138-.332.294-.689.157-.357.309-.64a17 17 0 0 1 1.988 1.654q.137.126.207.22t.028.172q-.012.029.021.065.033.034.056.001l.212-.24q.129-.145.274-.296l.286-.295q.141-.144.249-.237.027-.024-.007-.046a.1.1 0 0 0-.069-.02.25.25 0 0 1-.174-.038 1.4 1.4 0 0 1-.177-.134q-.376-.32-.808-.672a66 66 0 0 0-1.731-1.371q-.429-.33-.808-.599-.204.364-.359.667m-57.544 4.064a3.6 3.6 0 0 1-1.269-.333q-.648-.294-1.01-.711a2.5 2.5 0 0 1-.509-.874 2.3 2.3 0 0 1-.106-.915 2.5 2.5 0 0 1 .203-.818q.227-.503.615-.878.387-.375.895-.566a2.8 2.8 0 0 1 1.099-.17q.592.02 1.23.31.678.307 1.05.76a2.8 2.8 0 0 1 .521.929q.15.477.117.907c-.033.43-.076.522-.159.707q-.242.534-.641.923c-.399.389-.57.451-.912.577a2.7 2.7 0 0 1-1.122.153m-1.364-6.402a3.9 3.9 0 0 0-1.282.799 4 4 0 0 0-.935 1.315q-.404.893-.38 1.727t.333 1.543.835 1.239 1.141.808q.666.302 1.421.34a3.89 3.89 0 0 0 2.788-.976q.603-.525.979-1.357a4.1 4.1 0 0 0 .382-1.608 3.92 3.92 0 0 0-1.084-2.83 4.1 4.1 0 0 0-1.304-.925 3.6 3.6 0 0 0-1.44-.325h-.073q-.715 0-1.38.252m53.587.403a2.4 2.4 0 0 1-.854-.325 2.1 2.1 0 0 1-.548-.475 3 3 0 0 1-.511-1 2.55 2.55 0 0 1-.078-1.076q.076-.541.395-1.063.32-.522.892-.961.564-.433 1.104-.555a2.5 2.5 0 0 1 1.011-.036q.472.086.856.338.385.252.625.565.336.438.485.957t.076 1.056a2.8 2.8 0 0 1-.369 1.05 3.3 3.3 0 0 1-.853.938q-.59.453-1.166.567a3.2 3.2 0 0 1-.609.063q-.236 0-.456-.041m-.474-6.507a3.9 3.9 0 0 0-1.25.625 3.9 3.9 0 0 0-.971 1.092 3.9 3.9 0 0 0-.456 2.92q.179.78.734 1.504.534.698 1.237 1.097a3.92 3.92 0 0 0 3.006.38q.77-.207 1.431-.714a3.6 3.6 0 0 0 .966-1.117 3.9 3.9 0 0 0 .366-2.908 4 4 0 0 0-.718-1.446q-.597-.779-1.342-1.151a4.1 4.1 0 0 0-1.861-.448q-.588 0-1.141.166m-49.225 1.347.937 1.908q.467.952.91 1.87.444.919.803 1.762a.7.7 0 0 1 .067.199q.008.075-.094.179-.022.026.001.068t.053.024a6 6 0 0 1 .34-.213q.195-.114.398-.229.204-.116.403-.218l.362-.187q.024-.01 0-.052-.024-.043-.055-.04-.14.042-.185-.018c-.045-.06-.06-.089-.091-.145a60 60 0 0 1-1.619-3.016q-.599-1.214-.843-1.812a96 96 0 0 1 1.195.315q.404.11.849.24.446.13.858.264.414.133.749.244c.335.111.396.138.518.193q.082.041.121.067.037.025.021.13.003.031.052.052.05.02.047-.011.045-.14.113-.365.067-.224.145-.462l.15-.451q.072-.214.127-.33.014-.033-.04-.049-.053-.015-.051.016-.04.084-.101.092a.6.6 0 0 1-.164-.008 9 9 0 0 1-.609-.138 35 35 0 0 1-.852-.228l-.959-.268a150 150 0 0 1-1.751-.497q-.356-.105-.519-.157a11 11 0 0 0-.531-.153q-.285-.075-.579-.157l-.571-.157a11 11 0 0 1-.499-.147q.421.928.892 1.884m44.508-8.361q-.027.036-.006.066.05.064.035.096l-.033.074a9 9 0 0 1-.313.496q-.212.32-.493.715-.28.395-.59.818l-.588.806q-.358.492-.729.981-.37.49-.704.917a141 141 0 0 1-1.013 1.284q-.06.082-.13.073a.3.3 0 0 1-.14-.047q-.027-.02-.057.021t-.003.061l.082.06q.134.084.333.222a22 22 0 0 1 .765.558q.174.133.259.21.027.02.057-.021.03-.04.003-.061l-.045-.033q-.05-.065-.046-.11c.004-.045.016-.06.038-.09q.214-.333.692-1.044.477-.712 1.155-1.641.259.83.536 1.808.278.977.493 1.887l.034.164q.011.079.029.161.017.082-.054.142-.051.031-.029.069.021.036.053.032a29 29 0 0 1 .728-.291q.213-.081.429-.148t.366-.082q.032-.005.033-.046c.001-.041-.018-.046-.057-.056a.33.33 0 0 1-.149-.13 1.5 1.5 0 0 1-.141-.333q-.134-.39-.277-.816a75 75 0 0 1-.277-.844q-.133-.419-.244-.813c-.111-.394-.135-.501-.184-.714q.36-.016.73-.026l.767-.019q.398-.01.847-.024.45-.014.972-.023.258-.008.303.033a.3.3 0 0 1 .07.086q.005.032.057.027.052-.004.047-.036a2 2 0 0 1-.022-.323q-.002-.197.003-.416l.013-.429q.007-.21.024-.367-.006-.031-.049-.029-.044.003-.054.037-.02.084-.211.097a110 110 0 0 1-1.987.21q-.457.043-.944.072t-1.08.056q.266-.365.534-.713.269-.349.495-.65t.42-.538a7 7 0 0 1 .31-.359.4.4 0 0 1 .095-.063q.052-.024.148.017.034.011.06-.026.026-.036 0-.056a9 9 0 0 1-.315-.209 16 16 0 0 1-.995-.747.04.04 0 0 0-.019-.007q-.017 0-.034.023m-37.258-.254q.004.045.036.05.106-.005.112.101t.041.371l.101.928q.045.416.081.791a24 24 0 0 1 .1 1.554q-.993-.306-1.957-.649a19 19 0 0 1-1.789-.712l-.089-.048q-.045-.024-.031-.143.006-.031-.033-.046-.038-.015-.043.017a4 4 0 0 1-.121.347q-.081.209-.171.423-.09.215-.169.415l-.124.314q-.006.032.034.059.039.028.073-.024.033-.05.084-.046.053.005.153.031.361.103.864.24c.503.137.693.19 1.077.297q.574.161 1.177.343t1.152.375l1.115 1.586.087.124.165.235q.098.138.209.308.113.169.222.326.062.108.115.222.052.115-.017.192-.04.042-.009.075.03.034.058.014.064-.045.172-.127l.232-.177q.124-.094.253-.184l.21-.148.283-.199q.128-.09.236-.153.047-.032.018-.081-.028-.05-.064-.023-.12.084-.203.005a2 2 0 0 1-.164-.174l-.239-.3q-.126-.16-.242-.306a14 14 0 0 1-.339-.444l-1.03-1.426q-.022-.384-.046-.87-.025-.486-.048-1a35 35 0 0 1-.032-1.025l-.013-.948v-.235q.002-.153.101-.209.034-.01.033-.051c-.001-.041-.014-.04-.041-.04q-.123.003-.328.003t-.43.006a9 9 0 0 1-.786-.012q-.04 0-.036.046m30.58 1.798-.343-.143a10 10 0 0 1-.341-.148 13 13 0 0 0-.383-.165q.312-.309.522-.522l.366-.367q.156-.155.277-.269.12-.115.265-.226.02.216.004.667t.02 1.333l-.385-.16m-.087-3.099q-.767.744-1.518 1.481-.752.738-1.49 1.444-.74.706-1.429 1.31a.7.7 0 0 1-.168.126q-.069.032-.2-.034-.03-.013-.064.022-.033.035-.006.059l.32.243q.182.137.369.287.187.151.359.296c.172.145.215.187.302.272q.016.018.05-.017.032-.035.021-.064-.085-.12-.04-.182.043-.061.109-.131.422-.459.792-.849t.737-.774q.576.228 1.201.487.625.26 1.177.514.021.742.017 1.295a10 10 0 0 1-.028.788q-.014.092-.026.136t-.117.062q-.03.012-.031.06t.038.04q.136-.005.379.012l.505.033q.261.017.498.036.236.019.363.035.036.002.034-.053 0-.056-.03-.043-.092-.014-.119-.068a.6.6 0 0 1-.044-.159q-.03-.22-.067-.705a98.678 98.678 0 0 1-.144-2.355l-.065-1.254-.055-1.042a15 15 0 0 1-.026-.627 50 50 0 0 0-.046-1.081q-.03-.561-.041-1.031-.75.69-1.516 1.433m-6.313-3.29q-.009.045.023.062.073.037.073.071c0 .034 0 .05.002.08q-.005.205-.063.579a56 56 0 0 1-.316 1.804l-.183.975q-.113.599-.233 1.212-.12.614-.239 1.154a122 122 0 0 1-.369 1.627q-.03.098-.097.12a.4.4 0 0 1-.147.018q-.034-.007-.043.044-.01.05.024.056l.1.019q.145.017.39.056a25 25 0 0 1 .969.181q.225.049.335.08.033.006.043-.044t-.024-.056l-.044-.008q-.126-.059-.104-.18.029-.213.092-.642c.063-.429.092-.614.15-.981a87 87 0 0 1 .415-2.428q.085-.455.191-.957.105-.502.197-.961.091-.46.177-.821.085-.363.143-.547a.4.4 0 0 1 .059-.098q.037-.045.141-.048.035-.005.044-.049t-.025-.05a9 9 0 0 1-.38-.054 19 19 0 0 1-.908-.171 6 6 0 0 1-.351-.083h-.008q-.026 0-.033.039m-14.104 1.225q-.135.796-.281 1.576-.146.782-.292 1.521-.147.74-.286 1.377a38 38 0 0 1-1.041-.826q-.475-.392-.982-.827c-.507-.435-.698-.608-1.082-.955l-1.327-1.201q.065.5.153 1.159a265 265 0 0 1 .544 4.383 131 131 0 0 1 .264 2.461q.023.182-.145.212-.032.01-.027.062t.037.041q.21-.044.455-.093.244-.05.48-.089.235-.04.43-.062.194-.021.323-.027.035 0 .033-.046-.004-.046-.043-.057-.135-.015-.165-.053a.7.7 0 0 1-.064-.217l-.166-1.107q-.096-.631-.193-1.282-.096-.65-.188-1.248a37 37 0 0 1-.144-1.019q.318.254.775.645t.946.827q.489.435.963.862.475.428.845.77.072-.33.153-.76l.168-.895q.088-.466.181-.946.094-.48.177-.922.083-.441.164-.816.08-.375.14-.631.346.599.633 1.123.286.524.538 1.011a98 98 0 0 0 .999 1.893 1 1 0 0 1 .078.17q.022.07-.053.13-.036.036-.006.073.03.038.059.017.165-.113.375-.251a15 15 0 0 1 .805-.496q.18-.105.294-.154.031-.01.006-.055t-.059-.034q-.154.037-.187-.011l-.117-.164a74 74 0 0 1-.582-.908q-.326-.517-.687-1.106-.36-.589-.728-1.216l-.721-1.23a59 59 0 0 1-.661-1.155 86 86 0 0 1-.542-.986q-.118.737-.253 1.532m10.015-1.581q-.794.019-1.623.031-.828.013-1.605.009a25 25 0 0 1-1.319-.037q.025 1.184.011 2.26-.014 1.077-.035 2.091a9 9 0 0 1-.021.62q0 .09-.062.13a.4.4 0 0 1-.14.051q-.034 0-.04.051t.051.051a.1.1 0 0 0 .045-.006.2.2 0 0 1 .045-.006 6 6 0 0 1 .36-.012l.434-.001q.22 0 .422.005.202.006.327.016.034 0 .034-.051t-.034-.051l-.056-.011q-.079-.01-.101-.056a.2.2 0 0 1-.023-.09l-.035-.688q-.012-.394-.013-.851l-.002-.891q-.001-.434.004-.806c.005-.372.009-.451.016-.609a45 45 0 0 1 3.47-.007l.001.485.001.598q.001.339-.004.772-.005.434-.014.997.001.823-.007 1.77-.01.947-.041 1.77-.011.17-.157.18-.034 0-.034.051c0 .051.011.051.034.051a.2.2 0 0 0 .05-.006 9.1 9.1 0 0 1 .429-.024q.209-.006.428-.006t.411.01.327.021q.034 0 .034-.05t-.034-.051q-.135-.01-.147-.158l-.024-.479a22 22 0 0 1-.018-.62l-.013-.823q-.006-.468-.008-1.099-.002-1.06.007-2.215t.062-2.35l-1.391.031" class="cls-9"/><path d="M432.634 51.024q-.008.009-.024.003-.03-.01-.057.016l-.054.049q-.096.096-.24.229-.143.135-.297.274-.154.14-.298.263a3 3 0 0 1-.242.193 5 5 0 0 1-.099-.208 13 13 0 0 1-.215-.517q-.106.06-.197.104c-.091.044-.12.059-.18.086a6 6 0 0 1-.401.164 9 9 0 0 1-.069-.299 24 24 0 0 1-.198-1.044.08.08 0 0 0-.033-.043.03.03 0 0 1-.012-.018q-.003-.012.007-.012.043 0 .105-.006l.125-.011a4 4 0 0 0 .219-.028q.012-.003.013.011 0 .015-.008.019-.025.01-.028.046a4.397 4.397 0 0 0 .061.508q.037.2.077.362.091-.035.199-.087c.108-.052.14-.069.205-.102l.173-.088.106-.054q.053.115.087.199l.063.154q.03.072.062.138l.074.149a6 6 0 0 0 .509-.504l.163-.171a.2.2 0 0 0 .045-.072.3.3 0 0 0 .014-.054q-.004-.008.006-.018t.015 0q.023.03.065.077l.089.098.093.097.076.079q.007.009 0 .018m.485-1.647-.037.077-.041.097-.031.072q-.019.044-.036.089l-.031.083-.024.061q-.005.009-.017.006c-.012-.003-.012-.01-.01-.021q.006-.031-.026-.052a1 1 0 0 0-.066-.039l-.11-.049q-.057-.026-.104-.046l-.081-.034-.043-.018-.544-.232a10 10 0 0 0-.72.189l-.327.096-.263.077q-.03.01-.044.017t-.014.026q0 .02-.015.018-.015 0-.018-.01l-.019-.102-.023-.135q-.011-.07-.024-.137l-.024-.109q-.004-.01.009-.011c.013-.001.013 0 .016.007q.016.033.031.032l.031-.002q.273-.036.578-.103.304-.066.612-.147a9 9 0 0 0-.276-.387l-.148-.192-.176-.225a2 2 0 0 1-.07-.09q-.019-.026-.045-.008-.01.003-.017-.007c-.007-.01-.005-.013.002-.018l.094-.053q.055-.033.112-.07l.11-.071.084-.054q.01-.006.017.004t0 .019q-.017.03.007.07l.038.061.156.244q.084.132.173.261l.173.252.152.218.496.205.063.024.097.036.112.04.11.04.071.019q.034.007.052-.034.005-.013.02-.004t.009.024m-.776-2.127.687.471.669.453q.022.017.043.018c.021.001.026-.005.036-.018q.004-.01.019-.001.014.007.009.016l-.059.092a2 2 0 0 0-.069.117l-.069.131-.064.13q-.009.015-.022.011-.014-.003-.008-.02.021-.046-.021-.075l-1.971-1.466 1.9-.617-.846-.474-.19-.1a1 1 0 0 0-.135-.065l-.024-.007q-.01-.003-.027.014-.008.008-.02 0-.012-.007-.007-.016.023-.034.056-.091l.067-.118.065-.121q.031-.059.051-.103.005-.009.017-.003c.012.006.011.01.01.017q-.009.03 0 .046c.009.016.014.019.023.026l.058.04.087.059.102.068q.053.035.101.062l1.509.867zm3.228-2.259-.327.512q-.166.258-.316.499l-.263.423-.013-.005a8 8 0 0 0-.164-.331 53 53 0 0 0-.452-.839l-.248-.445-.236-.421-.202-.366q0-.005.005-.013.001-.003.009-.006.271.057.608.132a126 126 0 0 0 1.344.29q.318.064.551.099l.004.012a25 25 0 0 0-.3.46m-.549-.214q-.141-.032-.305-.072l-.335-.081q-.171-.041-.31-.076.069.13.164.299l.187.338.172.313.123.222q.071-.1.143-.221.072-.12.139-.241l.129-.233q.062-.112.112-.199l-.218-.049m2.149-1.543q-.006.01-.017.006l-.014-.005q-.007-.003-.013.004-.135.147-.251.277l-.221.248a16 16 0 0 0-.524.624l-.013.016q-.006.008-.017-.001-.01-.009-.006-.019.015-.033.01-.052a.1.1 0 0 0-.03-.046l-.099-.087-.148-.129-.172-.148-.176-.151-.158-.135-.119-.102q-.12-.103-.205-.173l-.156-.129-.143-.118-.206-.175a1 1 0 0 0-.053-.039.2.2 0 0 0-.056-.025.07.07 0 0 0-.051.004q-.01.006-.02-.003t-.004-.017l.018-.021.081-.087q.04-.044.083-.094l.168-.186a9 9 0 0 0 .177-.202q.093-.102.196-.226l.191-.226a.5.5 0 0 0 .054-.072q.018-.03.002-.048-.01-.014.003-.029.006-.008.011-.004.005.003.006 0l.077.066.104.09q.053.046.104.084.05.04.076.056.013.006.004.019t-.024.004q-.028-.015-.04-.014t-.042.025q-.13.115-.22.204t-.163.173a4 4 0 0 0-.144.173l-.161.206.442.388q.215-.22.389-.446c.174-.226.212-.285.287-.402q.014-.02 0-.041-.008-.012 0-.02.01-.008.017-.002.03.03.074.07l.093.082q.048.041.096.08l.09.07q.007.007-.002.019c-.009.012-.012.01-.015.007q-.028-.01-.05.011a7 7 0 0 0-.366.37 6 6 0 0 0-.355.42l.151.127.125.102.127.103.156.124a6 6 0 0 0 .635-.752 1 1 0 0 0 .031-.057.06.06 0 0 0-.004-.064q-.009-.017 0-.03t.022-.002l.068.061q.047.043.102.09a4 4 0 0 0 .19.153.02.02 0 0 1 0 .019m1.266-1.075q-.01.004-.023-.009-.022-.022-.058-.013l-.07.019a29.008 29.008 0 0 1-.707.202 13 13 0 0 1-.385.098 3 3 0 0 1-.303.06q0-.111.007-.23a11 11 0 0 1 .045-.558 4 4 0 0 1-.422-.003 5 5 0 0 1-.432-.037q.032-.138.076-.298a27 27 0 0 1 .186-.647q.05-.163.096-.306a.4.4 0 0 0 .017-.066.08.08 0 0 0-.01-.054.03.03 0 0 1-.002-.022q.002-.012.012-.007.039.02.096.043l.117.047.115.043.092.032q.012.003.006.016t-.016.013q-.027-.003-.045.028a.4.4 0 0 0-.038.084 5 5 0 0 0-.237.753q.098.01.216.013l.228.003.195.001h.119a5 5 0 0 1-.013.216l-.014.166a3 3 0 0 0-.008.151l-.002.167a6 6 0 0 0 .446-.131l.237-.083.223-.078a.2.2 0 0 0 .073-.043l.037-.041q0-.01.013-.013.013-.004.013.006.007.036.023.099.015.062.035.128l.038.129.031.105q.002.013-.009.016m2.309-2.418a1 1 0 0 0-.067.076l-.086.108a4 4 0 0 0-.171.232q-.006.01-.018.002t-.006-.021q.015-.025.001-.043a.3.3 0 0 0-.041-.04l-.246-.215-.243-.218a16.026 16.026 0 0 0-.565-.483l.028.195q.017.116.041.251l.049.283.05.29.049.273q.023.132.039.233-.142-.058-.325-.129l-.368-.142-.359-.134a7 7 0 0 0-.291-.1q.06.114.151.276l.188.336.193.345.167.298q.029.048.041.055.012.008.053-.003.012 0 .018.012t-.004.017q-.036.015-.089.042-.054.027-.116.064l-.127.077-.12.076q-.008.007-.015-.008t.001-.02q.045-.027.019-.076l-.152-.304-.189-.371-.211-.406-.216-.409-.202-.378-.169-.314.508.2a14 14 0 0 0 .781.286q.178.06.386.123l-.067-.424a42 42 0 0 0-.17-.946l-.093-.465a29 29 0 0 0 .574.481l.339.274q.173.14.339.269l.315.242q.149.112.264.196l.051.034q.015.01.054-.017.008-.006.02.004c.012.01.01.012.004.017m1.973-1.361a1.2 1.2 0 0 1-.2.429 1.3 1.3 0 0 1-.375.338 1.18 1.18 0 0 1-.946.134 1.205 1.205 0 0 1-.703-.536 1.2 1.2 0 0 1-.146-.401 1.26 1.26 0 0 1 .19-.901q.139-.213.395-.368a1.21 1.21 0 0 1 1.332.044q.186.135.305.332a1.25 1.25 0 0 1 .148.93m-.351-.28a.86.86 0 0 0-.132-.373 1 1 0 0 0-.255-.292.9.9 0 0 0-.306-.149.8.8 0 0 0-.323-.013.9.9 0 0 0-.307.114.76.76 0 0 0-.325.418.8.8 0 0 0-.024.308q.018.168.13.354.113.19.26.304a.792.792 0 0 0 .637.171.9.9 0 0 0 .321-.12.71.71 0 0 0 .291-.398q.045-.145.03-.324m2.464-.521-.01.132a6 6 0 0 0-.013.244q-.002.012-.013.012-.012 0-.019-.016-.014-.028-.051-.031l-.073-.006q-.135-.005-.331-.018a22 22 0 0 1-.798-.066 3 3 0 0 1-.306-.044 4 4 0 0 1 .084-.215 18 18 0 0 1 .169-.385q.037-.08.061-.126a5 5 0 0 1-.791-.325q.076-.12.171-.255l.193-.273.2-.274q.101-.136.193-.256a.4.4 0 0 0 .038-.056.07.07 0 0 0 .009-.054.03.03 0 0 1 .005-.021q.006-.01.014-.003.03.031.076.073l.094.083.094.08.076.061q.01.006 0 .017t-.019.007q-.024-.011-.052.011a.5.5 0 0 0-.064.066 5.236 5.236 0 0 0-.476.63q.088.043.199.085.111.044.214.08l.183.066.112.041-.085.199-.069.152q-.031.07-.058.139l-.058.157a5 5 0 0 0 .464.025q.126.003.252.002l.236.001a.2.2 0 0 0 .132-.043q.003-.01.017-.008.014 0 .011.01l-.012.101m3.572-1.914a1 1 0 0 1-.094.319 1.03 1.03 0 0 1-.535.491q.016.056.036.11l.032.082q.005.017.014.026.01.01.035.01l.017-.005q.01-.002.014.012t-.006.018l-.103.024a4 4 0 0 0-.29.081 2 2 0 0 0-.115.037l-.03.009q-.01.003-.014-.012t.006-.018a.1.1 0 0 0 .038-.025q.015-.015.007-.045l-.042-.188-.007.002q-.428.027-.691-.152a.9.9 0 0 1-.36-.524.92.92 0 0 1 .057-.643 1.05 1.05 0 0 1 .504-.502l-.037-.114a.4.4 0 0 0-.043-.102q-.004-.01-.03-.01-.01 0-.014-.014-.004-.013.006-.016.04-.007.107-.025a5 5 0 0 0 .383-.113q.01-.003.014.01.003.014-.006.019-.027.015-.032.032t-.003.035l.04.179q.223-.035.406.004.184.037.324.13a.9.9 0 0 1 .238.237q.097.144.148.323a.8.8 0 0 1 .025.319m-1.191.263-.1-.361-.136-.484a.5.5 0 0 0-.182.14.63.63 0 0 0-.147.392.6.6 0 0 0 .019.181 1 1 0 0 0 .069.175.55.55 0 0 0 .305.272q.11.042.262.035a10 10 0 0 0-.09-.35m.795-.531a.55.55 0 0 0-.273-.346.6.6 0 0 0-.196-.068.8.8 0 0 0-.2-.008q.028.125.063.25.036.126.065.243a9 9 0 0 0 .104.364l.11.348q.256-.116.327-.323a.77.77 0 0 0 0-.459m1.839.898-.104.014-.145.026-.15.03q-.075.016-.117.027l-.03.006q-.01.002-.013-.013t.007-.017a.1.1 0 0 0 .04-.022q.017-.014.014-.044l-.03-.205-.046-.299a30 30 0 0 0-.186-1.023l-.058-.295-.053-.253a1.4 1.4 0 0 0-.047-.172l-.01-.023q-.003-.01-.029-.012-.01-.002-.013-.015-.004-.013.008-.016.041-.004.109-.016l.139-.024.138-.028.114-.027q.01-.001.013.011.003.014-.007.019-.03.012-.035.029a.1.1 0 0 0-.006.034q.004.058.021.171.016.113.041.253l.051.295q.026.155.052.293.036.19.076.38t.077.357l.067.296.046.193q.007.037.05.04l.013-.003q.01-.002.013.013t-.007.017m2.486-.822a1 1 0 0 0-.097.047l-.127.07-.129.073-.101.058q-.007.008-.013-.007-.007-.015 0-.022.025-.02.022-.034l-.013-.04a2 2 0 0 0-.076-.151l-.117-.21a14 14 0 0 0-.399-.662l-.079-.124a10 10 0 0 0-.189.58q-.119.396-.266 1.011l-.01.051q-.002.023.038.043.007.006.004.021-.004.014-.011.011l-.12-.034-.135-.035-.137-.031a2 2 0 0 0-.12-.023q-.011-.003-.007-.016.004-.015.014-.016.044-.001.059-.02a.2.2 0 0 0 .026-.059q.096-.263.188-.561.092-.297.185-.607l.187-.621q.094-.312.193-.606.035.062.081.136l.095.154.097.155q.048.077.087.144a15 15 0 0 0 .215.362l.156.256.158.26a10 10 0 0 0 .25.386.2.2 0 0 0 .035.036q.015.01.041 0 .006-.008.014.007.01.015-.001.019m2.412.223-.106.034-.144.05-.146.051a1 1 0 0 0-.108.043q-.01.007-.016-.007-.005-.014.001-.021.027-.017.026-.031l-.009-.041a3 3 0 0 0-.087-.225 11 11 0 0 0-.16-.361 10 10 0 0 0-.392-.003q-.206.002-.395.007l-.114.306-.121.333q-.01.028-.015.05t.033.046q.008.006.002.02-.005.014-.012.01a2 2 0 0 0-.117-.04l-.136-.04q-.07-.02-.138-.037l-.119-.03q-.01-.003-.006-.017.005-.014.016-.014.045.003.06-.015a.2.2 0 0 0 .032-.055 14 14 0 0 0 .244-.539q.123-.287.245-.584l.249-.598q.126-.3.254-.584.06.13.135.285t.142.298q.02.048.083.173l.14.286.168.344.172.348a19 19 0 0 0 .254.486.1.1 0 0 0 .031.039q.014.012.041.005.006-.007.014.009.008.015-.003.019m-1.073-1.22a2 2 0 0 0-.081-.187 1 1 0 0 0-.047.095l-.045.109-.059.147-.084.209h.24l.113-.001.127-.001a6 6 0 0 1-.166-.372m3.863.461a1.23 1.23 0 0 1-.439.832q-.181.15-.418.222a1.25 1.25 0 0 1-.502.044 1.18 1.18 0 0 1-.837-.461 1.22 1.22 0 0 1-.24-.85 1.226 1.226 0 0 1 .817-1.016q.239-.087.536-.056.26.028.471.144a1.2 1.2 0 0 1 .568.692 1.1 1.1 0 0 1 .045.449m-.464-.366a.9.9 0 0 0-.155-.302.8.8 0 0 0-.25-.205.9.9 0 0 0-.313-.093.7.7 0 0 0-.256.02.7.7 0 0 0-.459.351.9.9 0 0 0-.109.361q-.024.22.026.4.049.18.153.311a.8.8 0 0 0 .255.209q.15.078.329.097a.716.716 0 0 0 .471-.143.9.9 0 0 0 .219-.24.9.9 0 0 0 .119-.378 1 1 0 0 0-.029-.386m-.32.54q-.002.017-.017.015-.015 0-.014-.019.002-.017-.004-.023l-.012-.013a.2.2 0 0 0-.055-.023l-.089-.021-.11-.019-.115-.014-.113-.012-.139-.013q-.07-.006-.134-.004a.4.4 0 0 0-.104.015q-.004 0-.013.007a.1.1 0 0 0-.014.017q-.009.017-.024.015-.015-.001-.01-.019.011-.033.025-.093l.027-.122.023-.121.019-.095q.006-.02.019-.017t.013.014q.002.013.105.039.103.024.298.045l.061.007.127.013.145.014q.074.006.122.004h.026q.015 0 .02-.007.011-.009.021-.003t.009.013a1 1 0 0 0-.051.19l-.041.226m3.057 1.102a1 1 0 0 0-.107.014l-.143.025-.146.028-.114.023q-.009.006-.01-.011t.007-.021q.03-.011.031-.025v-.042a2 2 0 0 0-.023-.167l-.043-.236a9 9 0 0 0-.113-.532l-.054-.223-.035-.143a9 9 0 0 0-.364.489q-.24.336-.575.873l-.026.045q-.01.021.022.053.005.009-.003.02-.009.013-.014.008l-.103-.07-.117-.077-.119-.074a2 2 0 0 0-.106-.06q-.01-.006-.001-.018.008-.012.018-.01.043.012.061 0a.2.2 0 0 0 .044-.047q.175-.219.357-.471l.37-.516.376-.529q.189-.266.376-.513.012.07.033.155l.04.176.042.179q.021.087.036.164l.033.162.054.25.066.293.067.296a9 9 0 0 0 .113.446q.01.03.022.045.01.014.039.014.008-.005.012.011.003.017-.007.018m2.792.211a1.1 1.1 0 0 1-.224.378 1.2 1.2 0 0 1-.362.277q.108.04.185.059l.165.041q.078.02.109 0 .01-.01.022-.006.011.006.007.016l-.038.085a6 6 0 0 0-.092.216l-.034.094q-.003.01-.016.006-.013-.005-.013-.015 0-.025-.028-.041a.4.4 0 0 0-.065-.027 20 20 0 0 1-.386-.135 24 24 0 0 0-.433-.151l.064-.327a.72.72 0 0 0 .492-.191 1.16 1.16 0 0 0 .306-.49.7.7 0 0 0 .032-.324.8.8 0 0 0-.103-.296.9.9 0 0 0-.2-.239.8.8 0 0 0-.261-.151.7.7 0 0 0-.324-.03.9.9 0 0 0-.54.297.7.7 0 0 0-.146.247 1.167 1.167 0 0 0-.045.495q.016.135.071.26.056.126.158.219l-.08.333-.357-.082-.341-.076-.159-.033a.4.4 0 0 0-.083-.012.04.04 0 0 0-.034.016.02.02 0 0 1-.021.005q-.012-.003-.009-.012.01-.04.021-.095l.02-.111.016-.111.013-.092q.004-.01.016-.011.014 0 .02.02a.06.06 0 0 0 .034.03l.059.02a4 4 0 0 0 .394.112 1 1 0 0 1-.137-.468 1.4 1.4 0 0 1 .076-.508 1.16 1.16 0 0 1 .631-.697q.212-.095.453-.106.24-.01.471.067.274.093.442.272t.247.395.076.447a1.4 1.4 0 0 1-.07.427m3.078.013q-.006.012-.017.011-.032-.008-.045.003a.1.1 0 0 0-.025.024l-.037.06-.053.091-.062.106q-.032.056-.056.105l-.775 1.559-.773-1.937a149 149 0 0 0-.84 1.409.1.1 0 0 0-.015.044q0 .02.02.034.009.005.003.018-.007.015-.016.01-.039-.023-.095-.053a2.86 2.86 0 0 0-.256-.123l-.133-.056q-.015-.008-.013-.021t.02-.01q.048.02.073-.026l1.345-2.057.728 1.862.423-.874.088-.196q.04-.09.057-.139.002-.014.006-.024c.004-.01-.003-.016-.016-.027q-.008-.008-.002-.02t.015-.008q.036.021.094.051t.122.06l.125.058q.061.028.106.045.009.005.003.017m3.044 2.919a89 89 0 0 0-.591.82l-.25.363-.08.123q-.024.038.008.065.008.006 0 .019-.01.012-.017.006l-.077-.064-.1-.076-.107-.075-.11-.07-.014-.008q-.008-.006 0-.019.01-.012.017-.007.038.024.071-.017.155-.198.326-.431l.318-.437.182-.244.139-.19.106-.148.086-.12a14 14 0 0 0-.86-.619l-.112.148a25 25 0 0 0-.304.42q-.081.113-.149.213l-.114.177a.1.1 0 0 0-.01.026q-.003.015.015.032l.012.013q.008.006 0 .018-.01.013-.017.007l-.078-.062q-.049-.038-.104-.077l-.107-.077a2 2 0 0 0-.103-.069q-.007-.003-.012-.007-.014-.01-.003-.021t.019-.006a.1.1 0 0 0 .044.012q.022.002.038-.021l.054-.065q.029-.037.062-.084.187-.248.382-.512.197-.264.401-.561.128.105.32.245.19.14.399.285.207.145.407.282l.35.241q-.226.286-.435.571m2.13.829s-.003.004 0 .006l-.067.077-.09.104a3 3 0 0 0-.143.18q-.006.013-.02.004-.012-.009-.004-.024a.1.1 0 0 0 .014-.04q0-.012-.025-.042a4.256 4.256 0 0 0-.373-.387 4 4 0 0 0-.172-.145l-.205-.163-.391.439q.218.216.443.393.225.176.399.29a.04.04 0 0 0 .041 0q.012-.009.02.001.008.008.001.017-.03.029-.07.073l-.083.092-.081.096q-.04.047-.07.089-.007.008-.019-.002t-.007-.015q.01-.028-.011-.05a6.7 6.7 0 0 0-.784-.729l-.129.15-.104.124-.103.127-.126.155q.092.093.182.176l.179.161q.09.078.184.153t.202.15q.022.015.057.031.034.016.064-.003.017-.008.029 0t.002.022l-.061.067-.091.101a4 4 0 0 0-.155.189.02.02 0 0 1-.02-.001q-.01-.006-.006-.017l.005-.014q.002-.007-.004-.013l-.275-.253-.246-.223a16 16 0 0 0-.451-.393l-.088-.074q-.047-.038-.08-.063l-.016-.014q-.008-.006.001-.017.009-.01.019-.006.033.015.052.011a.1.1 0 0 0 .047-.03l.088-.099.13-.147.149-.171.152-.175.136-.157.103-.118.175-.204.13-.156.12-.142q.06-.072.138-.162a1 1 0 0 0 .076-.096.2.2 0 0 0 .025-.055.07.07 0 0 0-.003-.051q-.006-.01.003-.02t.017-.003l.021.018.086.081.094.084.185.17q.1.091.2.179.102.093.225.198l.224.193a1 1 0 0 0 .071.055q.029.018.048.003.014-.01.029.003.008.006.004.011m.95.962q-.01.01-.019.005-.027-.017-.044-.013a.1.1 0 0 0-.032.014 6.394 6.394 0 0 0-.317.289q-.102.1-.216.207a23.553 23.553 0 0 0-.737.745l-.208.22-.134.146q-.027.026-.005.063l.01.01q.007.008-.003.018t-.018.003a1 1 0 0 0-.07-.078l-.103-.106-.109-.107q-.054-.052-.088-.082l-.022-.022s-.004-.011.004-.019q.01-.01.018-.003.02.015.04.021.021.006.045-.013l.152-.139.222-.206q.123-.116.26-.249l.269-.265.215-.213a21 21 0 0 0 .391-.399q.079-.084.116-.134l.013-.021q.006-.009-.006-.03-.005-.01.005-.019.01-.01.017-.003.026.032.074.082l.098.101.101.099q.049.048.086.08.007.007-.003.017m1.209 2.02a.8.8 0 0 1-.185.225.76.76 0 0 1-.292.163.7.7 0 0 1-.298.013.8.8 0 0 1-.282-.114 1.1 1.1 0 0 1-.25-.219l-.025-.029-.05-.058-.063-.073-.063-.073a12 12 0 0 0-.313.279q-.147.135-.307.287a.1.1 0 0 0-.018.024q-.004.013.006.036l.011.013q.006.008-.005.018-.012.01-.019.002a3.754 3.754 0 0 0-.153-.188l-.097-.11-.08-.085-.02-.024q-.007-.008.005-.018t.018-.002a.1.1 0 0 0 .039.024q.02.007.044-.013.248-.192.462-.378l.438-.38.202-.177.151-.135.139-.124.16-.141.043-.037a.4.4 0 0 0 .046-.047.2.2 0 0 0 .033-.051.07.07 0 0 0 .004-.051q-.004-.01.006-.019t.017-.001l.018.021a2 2 0 0 0 .139.171l.076.085.11.126.11.126.076.085q.128.148.186.297a.7.7 0 0 1 .052.287.6.6 0 0 1-.073.263m-.309-.37a.7.7 0 0 0-.179-.353l-.038-.044-.032-.037-.037-.043-.053-.061a5 5 0 0 0-.166.131l-.173.147-.16.14a2 2 0 0 0-.121.116l.123.143.097.11q.065.074.158.123a.4.4 0 0 0 .209.045q.115-.005.249-.119.146-.126.122-.298m1.451 1.46a20 20 0 0 1-.258.454l-.154.279-.186.335q-.1.178-.187.34l-.157.293a3 3 0 0 0-.096.194.2.2 0 0 0-.014.048q-.002.018.02.036.01.002.001.016t-.017.009q-.03-.025-.089-.068l-.123-.09-.125-.09a1 1 0 0 0-.096-.064q-.012-.005-.003-.017.008-.012.017-.01.03.012.04.003t.029-.031q.043-.057.135-.199c.092-.142.129-.208.205-.338a11 11 0 0 0-.222-.323l-.232-.32-.316.081a16 16 0 0 0-.392.108q-.021.01-.018.053-.002.01-.016.014-.015.003-.016-.004a1 1 0 0 0-.034-.119 5 5 0 0 0-.094-.268l-.044-.115q-.003-.01.011-.014t.02.004q.023.038.046.041t.064-.005q.276-.045.582-.108t.619-.132l.632-.138q.318-.069.624-.126l-.156.273m-.661.264-.115.025-.154.036-.219.05q.04.055.072.105l.064.093.139.197q.133-.234.21-.348.078-.114.107-.173a1 1 0 0 0-.105.016m1.994 1.496q-.012.007-.02 0-.021-.024-.039-.023a.1.1 0 0 0-.034.006 6.9 6.9 0 0 0-.378.202l-.26.148a10 10 0 0 0-.257.149 29 29 0 0 0-.64.395q-.144.091-.255.164l-.165.108q-.033.02-.021.06l.007.012q.006.008-.008.017-.013.008-.019-.001l-.049-.093a7 7 0 0 0-.154-.259q-.04-.065-.066-.101l-.016-.026q-.006-.008.008-.017.013-.008.018 0 .015.02.034.03.018.011.047-.002l.182-.098.265-.146q.148-.081.312-.178l.325-.191a43 43 0 0 0 .518-.31l.219-.136a2 2 0 0 0 .163-.12q.008-.006.001-.031-.002-.01.01-.018t.017.002q.018.037.052.097l.07.122q.037.062.074.12.037.059.064.098.005.009-.007.016m1.056 2.36a1.2 1.2 0 0 1-.11.453q-.1.207-.268.366-.168.157-.355.247-.196.093-.427.103a1.2 1.2 0 0 1-.45-.067q.046.105.086.174l.085.148q.04.069.075.078.015 0 .019.012t-.006.016l-.087.032-.109.04-.11.045-.091.041q-.01.004-.015-.008-.006-.012.002-.02.02-.017.009-.048c-.011-.031-.014-.043-.025-.066l-.172-.371q-.086-.188-.193-.416l.279-.182a.72.72 0 0 0 .479.22q.276.016.565-.122a.7.7 0 0 0 .254-.203.8.8 0 0 0 .141-.28 1 1 0 0 0 .032-.31.8.8 0 0 0-.074-.292.66.66 0 0 0-.204-.253.9.9 0 0 0-.59-.181.7.7 0 0 0-.278.067q-.096.046-.199.127a1.2 1.2 0 0 0-.188.186 1 1 0 0 0-.137.233.65.65 0 0 0-.047.266l-.295.174-.19-.313-.183-.298-.088-.137a.4.4 0 0 0-.049-.068.05.05 0 0 0-.035-.014.03.03 0 0 1-.019-.012q-.006-.01.003-.014a2 2 0 0 0 .176-.115l.09-.066.075-.055q.01-.004.019.004.01.009 0 .028a.06.06 0 0 0 .002.045l.027.056q.055.115.097.194.043.078.097.167.067-.242.24-.425.172-.183.418-.299.24-.114.482-.116a1.2 1.2 0 0 1 .849.334q.175.165.28.386.124.262.113.507m1.169 2.229-.08.069-.092.086-.088.086-.068.07q-.008.01-.017-.001-.01-.012-.005-.02.014-.024-.006-.053a.5.5 0 0 0-.06-.07 5 5 0 0 0-.581-.535 3 3 0 0 0-.104.19q-.054.107-.1.206l-.083.176-.051.108a6 6 0 0 1-.334-.188q-.066-.038-.133-.072l-.15-.073a5 5 0 0 0-.07.459 21 21 0 0 0-.05.485.2.2 0 0 0 .008.085.4.4 0 0 0 .022.051q.009.005.006.018t-.012.01l-.099-.021-.13-.023-.133-.02-.108-.016q-.012-.003-.011-.014.002-.012.018-.017.029-.01.036-.048l.013-.072q.018-.135.05-.328l.068-.399q.036-.206.075-.39.038-.185.074-.3a6 6 0 0 1 .402.213 8 8 0 0 1 .289.17 5.4 5.4 0 0 1 .399-.756 11 11 0 0 1 .491.414 27 27 0 0 1 .541.487.08.08 0 0 0 .053.014q.01 0 .021.007.01.008.001.014" style="fill:#e41e26"/><path d="M492.772 57.386q.335-.489.713-.885c-.147-9.985-4.02-19.925-11.622-27.527-15.505-15.505-40.734-15.505-56.239 0-7.548 7.548-11.418 17.399-11.617 27.311q.372.357.708.796c.002-9.996 3.806-19.99 11.416-27.6 15.226-15.226 39.999-15.226 55.225 0 7.687 7.687 11.491 17.808 11.416 27.905" class="cls-1"/><path d="M490.67 52.207c.297.272.578.593.833.947-.866-8.374-4.498-16.514-10.901-22.917-14.809-14.809-38.906-14.809-53.715 0-6.485 6.485-10.13 14.752-10.934 23.239.255-.349.535-.665.83-.932.973-7.974 4.504-15.692 10.612-21.8 14.53-14.53 38.171-14.53 52.701 0a37.08 37.08 0 0 1 10.576 21.463Z" class="cls-9"/></svg>