<svg xmlns="http://www.w3.org/2000/svg" viewBox="417.33 161.21 1832 2344.25"><defs><clipPath id="a" clipPathUnits="userSpaceOnUse"><path d="M-1686.32 819.127h2000v-2000h-2000Z"/></clipPath><clipPath id="b" clipPathUnits="userSpaceOnUse"><path d="M-1604.101 818.969h2000v-2000h-2000Z"/></clipPath><clipPath id="d" clipPathUnits="userSpaceOnUse"><path d="M-1110.952 1586.656h2000v-2000h-2000Z"/></clipPath><clipPath id="e" clipPathUnits="userSpaceOnUse"><path d="M-917.05 1525.507h2000v-2000h-2000Z"/></clipPath><clipPath id="f" clipPathUnits="userSpaceOnUse"><path d="M-960.932 1558.14h2000v-2000h-2000Z"/></clipPath><clipPath id="g" clipPathUnits="userSpaceOnUse"><path d="M-971.862 1549.744h2000v-2000h-2000Z"/></clipPath><clipPath id="h" clipPathUnits="userSpaceOnUse"><path d="M-1092.1 1580.636h2000v-2000h-2000Z"/></clipPath><clipPath id="i" clipPathUnits="userSpaceOnUse"><path d="M-1102.872 1570.497h2000v-2000h-2000Z"/></clipPath><clipPath id="j" clipPathUnits="userSpaceOnUse"><path d="M-1056.456 1577.626h2000v-2000h-2000Z"/></clipPath><clipPath id="k" clipPathUnits="userSpaceOnUse"><path d="M-1461.05 252.313h2000v-2000h-2000Z"/></clipPath><clipPath id="l" clipPathUnits="userSpaceOnUse"><path d="M-1443.786 325.66h2000v-2000h-2000Z"/></clipPath><clipPath id="m" clipPathUnits="userSpaceOnUse"><path d="M-1408.3 326.927h2000v-2000h-2000Z"/></clipPath><clipPath id="n" clipPathUnits="userSpaceOnUse"><path d="M-1409.409 321.066h2000v-2000h-2000Z"/></clipPath><clipPath id="o" clipPathUnits="userSpaceOnUse"><path d="M-1461.05 252.313h2000v-2000h-2000Z"/></clipPath><clipPath id="p" clipPathUnits="userSpaceOnUse"><path d="M-1392.774 306.334h2000v-2000h-2000Z"/></clipPath><clipPath id="q" clipPathUnits="userSpaceOnUse"><path d="M-1338.279 320.114h2000v-2000h-2000Z"/></clipPath><clipPath id="r" clipPathUnits="userSpaceOnUse"><path d="M-1359.507 314.73h2000v-2000h-2000Z"/></clipPath><clipPath id="s" clipPathUnits="userSpaceOnUse"><path d="M-1360.616 308.867h2000v-2000h-2000Z"/></clipPath><clipPath id="t" clipPathUnits="userSpaceOnUse"><path d="M-1309.923 313.62h2000v-2000h-2000Z"/></clipPath><clipPath id="u" clipPathUnits="userSpaceOnUse"><path d="M-1353.963 252.313h2000v-2000h-2000Z"/></clipPath><clipPath id="v" clipPathUnits="userSpaceOnUse"><path d="M-1359.349 239.798h2000v-2000h-2000Z"/></clipPath><clipPath id="w" clipPathUnits="userSpaceOnUse"><path d="M-1291.388 280.351h2000v-2000h-2000Z"/></clipPath><clipPath id="x" clipPathUnits="userSpaceOnUse"><path d="M-1260.021 281.303h2000v-2000h-2000Z"/></clipPath><clipPath id="y" clipPathUnits="userSpaceOnUse"><path d="M-1261.764 218.412h2000v-2000h-2000Z"/></clipPath><clipPath id="z" clipPathUnits="userSpaceOnUse"><path d="M-1203.15 172.63h2000v-2000h-2000Z"/></clipPath><clipPath id="A" clipPathUnits="userSpaceOnUse"><path d="M-1225.804 274.81h2000v-2000h-2000Z"/></clipPath><clipPath id="B" clipPathUnits="userSpaceOnUse"><path d="M-1142.952 257.858h2000v-2000h-2000Z"/></clipPath><clipPath id="C" clipPathUnits="userSpaceOnUse"><path d="M-1158.952 273.065h2000v-2000h-2000Z"/></clipPath><clipPath id="D" clipPathUnits="userSpaceOnUse"><path d="M-1191.427 281.779h2000v-2000h-2000Z"/></clipPath><clipPath id="E" clipPathUnits="userSpaceOnUse"><path d="M-1192.536 275.917h2000v-2000h-2000Z"/></clipPath><clipPath id="F" clipPathUnits="userSpaceOnUse"><path d="M-1130.279 257.699h2000v-2000h-2000Z"/></clipPath><clipPath id="G" clipPathUnits="userSpaceOnUse"><path d="M-1164.496 246.77h2000v-2000h-2000Z"/></clipPath><clipPath id="H" clipPathUnits="userSpaceOnUse"><path d="M-1107.15 255.957h2000v-2000h-2000Z"/></clipPath><clipPath id="I" clipPathUnits="userSpaceOnUse"><path d="M-1077.367 274.016h2000v-2000h-2000Z"/></clipPath><clipPath id="J" clipPathUnits="userSpaceOnUse"><path d="M-1066.912 223.482h2000v-2000h-2000Z"/></clipPath><clipPath id="K" clipPathUnits="userSpaceOnUse"><path d="M-1038.08 272.906h2000v-2000h-2000Z"/></clipPath><clipPath id="L" clipPathUnits="userSpaceOnUse"><path d="M-1045.367 273.224h2000v-2000h-2000Z"/></clipPath><clipPath id="M" clipPathUnits="userSpaceOnUse"><path d="M-1025.565 251.68h2000v-2000h-2000Z"/></clipPath><clipPath id="N" clipPathUnits="userSpaceOnUse"><path d="M-998.95 267.996h2000v-2000h-2000Z"/></clipPath><clipPath id="O" clipPathUnits="userSpaceOnUse"><path d="M-1004.812 267.996h2000v-2000h-2000Z"/></clipPath><clipPath id="P" clipPathUnits="userSpaceOnUse"><path d="M-985.327 252.787h2000v-2000h-2000Z"/></clipPath><clipPath id="Q" clipPathUnits="userSpaceOnUse"><path d="M-982 164.867h2000v-2000H-982Z"/></clipPath><clipPath id="R" clipPathUnits="userSpaceOnUse"><path d="M-949.05 281.303h2000v-2000h-2000Z"/></clipPath><clipPath id="S" clipPathUnits="userSpaceOnUse"><path d="M-927.03 282.571h2000v-2000h-2000Z"/></clipPath><clipPath id="T" clipPathUnits="userSpaceOnUse"><path d="M-906.594 283.838h2000v-2000h-2000Z"/></clipPath><clipPath id="U" clipPathUnits="userSpaceOnUse"><path d="M-906.12 244.234h2000v-2000h-2000Z"/></clipPath><clipPath id="V" clipPathUnits="userSpaceOnUse"><path d="M-874.91 285.58h2000v-2000h-2000Z"/></clipPath><clipPath id="W" clipPathUnits="userSpaceOnUse"><path d="M-858.436 272.272h2000v-2000h-2000Z"/></clipPath><clipPath id="X" clipPathUnits="userSpaceOnUse"><path d="M-846.554 266.254h2000v-2000h-2000Z"/></clipPath><clipPath id="Y" clipPathUnits="userSpaceOnUse"><path d="M-787.94 286.373h2000v-2000h-2000Z"/></clipPath><clipPath id="Z" clipPathUnits="userSpaceOnUse"><path d="M-821.841 289.858h2000v-2000h-2000Z"/></clipPath><clipPath id="aa" clipPathUnits="userSpaceOnUse"><path d="M-836.891 216.511h2000v-2000h-2000Z"/></clipPath><clipPath id="ab" clipPathUnits="userSpaceOnUse"><path d="M-789.049 280.51h2000v-2000h-2000Z"/></clipPath><clipPath id="ac" clipPathUnits="userSpaceOnUse"><path d="M-755.465 260.55h2000v-2000h-2000Z"/></clipPath><clipPath id="ad" clipPathUnits="userSpaceOnUse"><path d="M-760.376 299.204h2000v-2000h-2000Z"/></clipPath><clipPath id="ae" clipPathUnits="userSpaceOnUse"><path d="M-738.198 302.215h2000v-2000h-2000Z"/></clipPath><clipPath id="af" clipPathUnits="userSpaceOnUse"><path d="M-717.444 284.153h2000v-2000h-2000Z"/></clipPath><clipPath id="ag" clipPathUnits="userSpaceOnUse"><path d="M-704.771 307.76h2000v-2000h-2000Z"/></clipPath><clipPath id="ah" clipPathUnits="userSpaceOnUse"><path d="M-646.791 321.541h2000v-2000h-2000Z"/></clipPath><clipPath id="ai" clipPathUnits="userSpaceOnUse"><path d="M-550.95 328.035h2000v-2000h-2000Z"/></clipPath><clipPath id="aj" clipPathUnits="userSpaceOnUse"><path d="M-582.949 328.828h2000v-2000h-2000Z"/></clipPath><clipPath id="ak" clipPathUnits="userSpaceOnUse"><path d="M-624.771 327.244h2000v-2000h-2000Z"/></clipPath><clipPath id="al" clipPathUnits="userSpaceOnUse"><path d="M-569.167 246.928h2000v-2000h-2000Z"/></clipPath><clipPath id="am" clipPathUnits="userSpaceOnUse"><path d="M-664.217 305.224h2000v-2000h-2000Z"/></clipPath><clipPath id="an" clipPathUnits="userSpaceOnUse"><path d="M-670.078 303.799h2000v-2000h-2000Z"/></clipPath><clipPath id="ao" clipPathUnits="userSpaceOnUse"><path d="M-658.197 244.55h2000v-2000h-2000Z"/></clipPath><clipPath id="ap" clipPathUnits="userSpaceOnUse"><path d="M-659.147 244.392h2000v-2000h-2000Z"/></clipPath><clipPath id="aq" clipPathUnits="userSpaceOnUse"><path d="M-838 216.511h2000v-2000H-838Z"/></clipPath><clipPath id="ar" clipPathUnits="userSpaceOnUse"><path d="M-1311.506 1413.823h2000v-2000h-2000Z"/></clipPath><clipPath id="as" clipPathUnits="userSpaceOnUse"><path d="M-782.237 1417.15h2000v-2000h-2000Z"/></clipPath><clipPath id="at" clipPathUnits="userSpaceOnUse"><path d="M-758.95 1029.662h2000v-2000h-2000Z"/></clipPath><clipPath id="au" clipPathUnits="userSpaceOnUse"><path d="M-730.593 1044.237h2000v-2000h-2000Z"/></clipPath><clipPath id="av" clipPathUnits="userSpaceOnUse"><path d="M-941.921 953.781h2000v-2000h-2000Z"/></clipPath><clipPath id="aw" clipPathUnits="userSpaceOnUse"><path d="M-966.317 952.99h2000v-2000h-2000Z"/></clipPath><clipPath id="ax" clipPathUnits="userSpaceOnUse"><path d="M-943.188 899.286h2000v-2000h-2000Z"/></clipPath><clipPath id="ay" clipPathUnits="userSpaceOnUse"><path d="M-966.317 923.366h2000v-2000h-2000Z"/></clipPath><clipPath id="az" clipPathUnits="userSpaceOnUse"><path d="M-727.583 816.434h2000v-2000h-2000Z"/></clipPath><clipPath id="aA" clipPathUnits="userSpaceOnUse"><path d="M-746.752 826.256h2000v-2000h-2000Z"/></clipPath><clipPath id="aB" clipPathUnits="userSpaceOnUse"><path d="M-980.1 798.533h2000v-2000h-2000Z"/></clipPath><clipPath id="aC" clipPathUnits="userSpaceOnUse"><path d="M-1042.516 759.562h2000v-2000h-2000Z"/></clipPath><clipPath id="aD" clipPathUnits="userSpaceOnUse"><path d="M-744.06 492.95h2000v-2000h-2000Z"/></clipPath><clipPath id="aE" clipPathUnits="userSpaceOnUse"><path d="M-735.663 409.463h2000v-2000h-2000Z"/></clipPath><clipPath id="aF" clipPathUnits="userSpaceOnUse"><path d="M-766.871 418.492h2000v-2000h-2000Z"/></clipPath><clipPath id="aG" clipPathUnits="userSpaceOnUse"><path d="M-783.663 463.323h2000v-2000h-2000Z"/></clipPath><clipPath id="aH" clipPathUnits="userSpaceOnUse"><path d="M-799.03 469.977h2000v-2000h-2000Z"/></clipPath><clipPath id="aI" clipPathUnits="userSpaceOnUse"><path d="M-814.712 467.125h2000v-2000h-2000Z"/></clipPath><clipPath id="aJ" clipPathUnits="userSpaceOnUse"><path d="M-864.773 432.116h2000v-2000h-2000Z"/></clipPath><clipPath id="aK" clipPathUnits="userSpaceOnUse"><path d="M-842.277 408.353h2000v-2000h-2000Z"/></clipPath><clipPath id="aL" clipPathUnits="userSpaceOnUse"><path d="M-715.702 398.69h2000v-2000h-2000Z"/></clipPath><clipPath id="aM" clipPathUnits="userSpaceOnUse"><path d="M-763.544 352.59h2000v-2000h-2000Z"/></clipPath><clipPath id="aN" clipPathUnits="userSpaceOnUse"><path d="M-1165.764 562.175h2000v-2000h-2000Z"/></clipPath><clipPath id="aO" clipPathUnits="userSpaceOnUse"><path d="M-1159.11 661.661h2000v-2000h-2000Z"/></clipPath><clipPath id="aP" clipPathUnits="userSpaceOnUse"><path d="M-1153.248 716.632h2000v-2000h-2000Z"/></clipPath><clipPath id="aQ" clipPathUnits="userSpaceOnUse"><path d="M-1162.12 705.226h2000v-2000h-2000Z"/></clipPath><clipPath id="aR" clipPathUnits="userSpaceOnUse"><path d="M-1143.744 732.157h2000v-2000h-2000Z"/></clipPath><clipPath id="aS" clipPathUnits="userSpaceOnUse"><path d="M-1116.813 1213.9h2000v-2000h-2000Z"/></clipPath><clipPath id="aT" clipPathUnits="userSpaceOnUse"><path d="M-941.921 1046.138h2000v-2000h-2000Z"/></clipPath><clipPath id="aU" clipPathUnits="userSpaceOnUse"><path d="M-1311.506 1413.823h2000v-2000h-2000Z"/></clipPath><clipPath id="aV" clipPathUnits="userSpaceOnUse"><path d="M-856.852 277.342h2000v-2000h-2000Z"/></clipPath><linearGradient id="c" x1="0" x2="1" y1="0" y2="0" gradientTransform="scale(1579.8724 -1579.8724)rotate(90 .91 -.277)" gradientUnits="userSpaceOnUse" spreadMethod="pad"><stop offset="0" style="stop-opacity:1;stop-color:#f3e7b2 icc-color(sRGB IEC61966-2 .1,.95292664,.90586853,.69802856)"/><stop offset="1" style="stop-opacity:1;stop-color:#3f3617 icc-color(sRGB IEC61966-2 .1,.24705505,.21176147,.0901947)"/></linearGradient></defs><path d="M0 0c-5.227-145.426-37.227-242.219-38.179-245.387-73.345-278.338-245.545-484.755-377.031-609.112-142.575-134.495-269.467-204.358-270.733-204.991l-.951-.476-1.109.476c-288.794 183.763-448.794 391.448-532.121 533.23-90.298 153.823-112.634 265.823-112.793 266.932-66.218 253.783-38.812 462.418-4.277 592.636 37.545 141.308 91.565 223.684 92.198 224.477l.317.634.792.159c15.05 4.119 27.407 7.604 39.129 10.613l-.475-.952c-.634-1.267-1.109-2.533-1.743-3.802-9.029-19.485-19.484-43.881-29.941-72.712-1.267-3.485-2.692-7.287-3.96-10.932-1.425-3.802-2.693-7.604-3.96-11.564-1.268-3.802-2.535-7.763-3.961-11.723-2.534-8.079-5.228-16.317-7.762-24.871s-5.069-17.425-7.445-26.456a601 601 0 0 1-7.129-28.04c-1.268-4.751-2.377-9.502-3.486-14.414-.95-3.802-1.901-7.762-2.693-11.723-.158-.951-.475-2.061-.633-3.168-2.059-10.14-4.119-20.277-6.02-30.892-1.901-10.456-3.644-21.227-5.386-32.159-.792-5.386-1.743-10.932-2.376-16.474-.793-5.546-1.426-11.249-2.06-16.952a312 312 0 0 1-1.9-17.11c-.635-5.859-1.268-11.722-1.744-17.582a321 321 0 0 1-1.425-17.743c-.476-6.02-.792-11.882-1.109-18.06-.633-12.515-1.109-25.188-1.268-38.178v-7.129c-.158-3.486-.158-7.129-.158-10.772 0-6.971 0-13.941.158-21.07.159-6.812.317-13.624.635-20.594v-1.742c.316-6.02.633-12.04.95-18.218 0-2.06.158-4.119.475-6.338.317-6.019.792-12.038 1.268-18.217 1.109-14.733 2.534-29.624 4.593-44.832 1.743-15.05 3.961-30.416 6.812-45.94 2.535-15.526 5.387-31.209 8.871-47.05q7.605-35.645 18.06-72.238c4.594-16.317 9.822-32.793 15.367-49.268a1563 1563 0 0 1 8.713-25.03c.316-.95 29.465-94.733 111.207-220.515 75.565-115.961 212.596-283.725 437.072-424.399l1.109-.633.951.633c3.96 2.218 397.308 232.398 549.389 643.33.476.951 41.662 97.11 57.503 245.862 4.754 43.882 7.445 95.367 5.546 152.397-.317 7.763-.634 15.525-.951 23.446-.159 1.743-.317 3.485-.317 5.227-.634 9.823-1.425 19.802-2.216 30.1l-.476 5.703c-.951 8.713-1.744 17.742-2.852 26.93 0 .475-.159.793-.159 1.268-.791 6.494-1.584 13.15-2.535 19.961a476 476 0 0 1-2.851 20.278c-1.742 11.088-3.801 22.335-5.861 33.74-1.425 7.763-3.011 15.525-4.595 23.446-.315.793-.473 1.427-.473 2.061-1.11 4.91-2.22 9.82-3.328 14.89-1.426 6.179-2.853 12.357-4.435 18.536-1.427 6.178-3.011 12.514-4.753 18.694-.317 1.582-.793 3.326-1.268 4.91a1502 1502 0 0 1-9.505 33.108c-1.584 5.229-3.168 10.298-4.751 15.525a577 577 0 0 1-5.071 15.366c-1.742 5.229-3.484 10.458-5.385 15.524-3.17 9.19-6.655 18.538-10.139 27.723-.476 1.269-.952 2.379-1.427 3.645a1651 1651 0 0 1-12.831 31.684c-3.802 9.187-7.921 18.376-12.038 27.564-.793 1.425-1.427 2.852-2.061 4.278-.159.315-.159.473-.476.79 29.943-10.454 45.784-17.74 45.943-17.899l.632-.158.317-.635C-13.148 342.337 4.751 135.604 0 0" clip-path="url(#a)" style="fill:#0047ba;fill-opacity:1;fill-rule:nonzero;stroke:none" transform="matrix(1.33333 0 0 -1.33333 2248.427 1092.17)"/><path d="M0 0c-15.683-148.12-56.712-243.962-57.186-245.071-147.804-399.367-524.202-627.488-546.697-640.636-223.209 139.882-359.606 306.852-434.695 422.339-81.585 125.307-110.574 218.773-110.891 219.723-137.823 380.2-24.872 693.23 29.941 810.144.633 1.264 1.266 2.533 1.742 3.802h.158c9.505 19.96 16.317 31.841 17.902 34.533 267.248 104.081 522.457 98.535 689.428 75.565 174.1-24.079 291.168-71.446 301.151-75.565 4.436-8.872 8.87-17.901 12.989-26.93.632-1.427 1.267-2.694 1.901-4.119C9.982 347.09 14.575 136.714 0 0m9.506 151.762c-.317 7.764-.634 15.526-.951 23.447-.159 1.742-.317 3.484-.317 5.227-.634 9.822-1.425 19.802-2.216 30.099l-.476 5.703c-.951 8.714-1.744 17.743-2.852 26.93 0 .476-.159.793-.159 1.269C1.744 250.93.951 257.586 0 264.397a476 476 0 0 1-2.85 20.278c-1.743 11.088-3.802 22.335-5.862 33.741-1.425 7.762-3.011 15.524-4.595 23.445-.315.793-.473 1.427-.473 2.062-1.11 4.91-2.22 9.819-3.328 14.89-1.426 6.178-2.853 12.357-4.434 18.535-1.428 6.179-3.011 12.514-4.754 18.694-.317 1.582-.793 3.326-1.268 4.91a1502 1502 0 0 1-9.505 33.109c-1.584 5.229-3.167 10.297-4.751 15.524a575 575 0 0 1-5.071 15.366c-1.742 5.229-3.484 10.458-5.385 15.525-3.17 9.189-6.655 18.537-10.139 27.723-.476 1.268-.952 2.378-1.427 3.645a1650 1650 0 0 1-12.831 31.683c-3.802 9.188-7.921 18.377-12.038 27.564-.793 1.426-1.427 2.853-2.061 4.278-.159.315-.159.474-.476.791v.158c-4.593 10.298-9.661 20.913-14.732 31.05l-.317.634-.634.317c-1.267.476-121.03 50.851-302.733 75.882-167.605 23.128-423.764 28.674-692.28-75.882l-.634-.317-.317-.634s-8.079-13.622-19.643-38.336l-.476-.951c-.633-1.267-1.109-2.534-1.742-3.802-9.03-19.485-19.485-43.882-29.941-72.713-1.268-3.485-2.693-7.287-3.961-10.932-1.425-3.802-2.693-7.603-3.96-11.564-1.268-3.802-2.534-7.762-3.961-11.722-2.534-8.08-5.228-16.318-7.762-24.871s-5.069-17.425-7.445-26.456a601 601 0 0 1-7.129-28.04c-1.268-4.752-2.377-9.503-3.486-14.415-.95-3.802-1.901-7.762-2.693-11.722-.158-.952-.475-2.062-.633-3.168-2.059-10.141-4.119-20.278-6.02-30.892-1.901-10.456-3.644-21.228-5.386-32.159-.792-5.386-1.743-10.932-2.376-16.474-.793-5.547-1.426-11.249-2.059-16.952a312 312 0 0 1-1.901-17.11c-.635-5.86-1.268-11.723-1.744-17.582a322 322 0 0 1-1.425-17.744c-.476-6.02-.792-11.881-1.109-18.06-.633-12.514-1.109-25.187-1.268-38.178v-7.129c-.158-3.485-.158-7.129-.158-10.772 0-6.97 0-13.941.158-21.069.159-6.812.318-13.624.635-20.594v-1.743c.316-6.02.633-12.04.95-18.218 0-2.06.158-4.119.475-6.337.317-6.019.792-12.039 1.268-18.217 1.267-14.733 2.692-29.624 4.593-44.833 1.901-15.049 4.119-30.415 6.812-45.94 2.535-15.525 5.387-31.208 8.871-47.05q7.605-35.644 18.06-72.238c4.752-16.316 9.822-32.792 15.367-49.267a1556 1556 0 0 1 8.713-25.03c.316-.951 29.465-94.733 111.208-220.516 75.565-115.961 212.595-283.724 437.071-424.398l1.109-.634.951.634c3.96 2.218 397.309 232.397 549.389 643.33.476.95 41.662 97.109 57.503 245.862 4.754 43.881 7.446 95.367 5.546 152.396" clip-path="url(#b)" style="fill:#0047ba;fill-opacity:1;fill-rule:nonzero;stroke:none" transform="matrix(1.33333 0 0 -1.33333 2138.802 1091.958)"/><path d="M504.375 1785.865c-1.585-2.691-8.397-14.572-17.902-34.533l-1.9-3.802c-54.812-116.914-167.764-429.944-29.941-810.143.317-.951 29.307-94.417 110.891-219.724 75.09-115.486 211.487-282.457 434.696-422.339 22.494 13.149 398.892 241.269 546.697 640.636.473 1.109 41.502 96.951 57.185 245.071 14.575 136.714 9.982 347.091-94.257 573.785l-2.06 4.12h.16c-4.12 9.028-8.554 18.057-12.99 26.929-9.982 4.12-127.05 51.486-301.151 75.565-57.549 7.917-125.619 13.764-201.012 13.766-143.351 0-313.278-21.123-488.416-89.331m493.943-1482.62c-123.724 78.733-220.516 164.436-295.606 246.654l-.158.159-.634.476c-6.179 6.812-12.04 13.306-17.743 19.96-65.585 74.773-113.268 145.743-147.009 204.516-80.002 139.089-101.705 242.535-101.863 243.644-65.426 249.506-43.09 497.111 66.693 735.846 11.249 24.555 12.199 26.453 13.941 26.453h.159c272.477 84.279 522.299 80.477 683.884 62.418 175.208-19.643 287.368-59.723 288.477-60.041l.79-.315.318-.793c3.96-8.237 6.813-14.574 9.665-21.071 101.86-224.792 109.464-429.465 98.058-561.585-12.357-141.307-48.635-232.08-49.901-235.091-49.426-150.653-135.446-278.495-220.357-377.031v-.159c-7.287-8.553-14.574-16.95-22.02-25.029l-.159-.158c-28.356-31.684-56.238-59.723-82.06-84.278-118.336-112.001-221.307-173.941-222.416-174.575l-.95-.634z" style="fill:url(#c);stroke:none" transform="matrix(1.33333 0 0 -1.33333 0 2666.667)"/><path d="M0 0c-4.911-4.119-11.406-6.337-19.01-6.337-8.554 0-15.366 2.852-20.277 8.079-4.911 5.387-7.446 12.832-7.446 22.179 0 11.089 3.168 19.961 9.347 26.773 6.336 6.653 14.574 10.138 24.713 10.138 5.703 0 10.139-.634 13.465-1.901l2.535-.95V42.614l-5.387 2.218c-3.327 1.425-6.811 2.06-10.296 2.06-5.228 0-9.188-1.744-12.198-5.07-1.427-1.585-2.377-3.485-3.169-5.386 3.169 1.426 6.812 2.059 11.089 2.059 7.129 0 13.149-1.901 17.584-5.703 4.594-4.119 6.971-9.347 6.971-16C7.921 9.98 5.228 4.436 0 0m-54.495-5.386h-53.387v6.812c0 3.961.634 7.445 2.06 10.297 1.425 2.693 3.643 5.386 6.653 7.92 2.851 2.377 7.129 5.07 12.832 8.238 6.654 3.644 9.347 6.179 10.614 7.446 1.426 1.743 2.059 3.485 2.059 5.545 0 1.901-.475 3.01-1.901 4.119-3.168 2.059-9.346 2.693-15.525.316-2.534-.951-5.069-2.534-7.445-4.435l-6.495-5.545v17.426l1.426 1.109c2.851 2.217 5.861 3.96 9.346 5.227 3.327 1.109 7.446 1.743 11.881 1.743 7.288 0 13.466-1.584 18.06-4.91 5.069-3.486 7.762-8.397 7.762-14.417 0-5.228-1.584-9.663-4.594-13.465q-4.039-5.228-13.782-10.456c-7.287-3.96-10.456-6.02-11.722-6.97-.951-.634-1.585-1.109-2.06-1.584h34.218zm-77.149 8.872c-6.02-6.496-14.416-9.823-24.713-9.823-5.544 0-10.455.793-14.416 2.218l-2.535.95v15.684l5.703-2.535c3.327-1.583 7.129-2.376 11.248-2.376 5.228 0 9.188 1.584 12.04 4.753 1.425 1.425 2.375 3.326 3.168 5.544-3.168-1.426-6.812-2.059-11.089-2.059-6.97 0-12.832 1.901-17.584 5.861-4.911 4.119-7.446 9.347-7.446 15.842 0 6.811 2.693 12.515 7.921 16.95 5.228 4.278 11.722 6.337 19.643 6.337 8.238 0 14.891-2.693 19.802-8.079 4.753-5.069 7.129-12.516 7.129-22.179 0-11.564-3.01-20.594-8.871-27.088m-62.258-8.872h-16.95v46.258c-.634-.159-1.268-.476-1.901-.792-3.644-1.426-6.971-2.535-10.139-3.169l-4.753-.792v15.049l3.169.635c3.485.791 7.445 2.059 11.564 3.801 4.119 1.743 7.288 3.327 9.347 4.753l1.109.792h8.554zm377.823 149.545c-19.485-6.812-36.277.158-47.366 7.604-8.238 5.544-14.574 13.149-19.169 21.862l-11.405 22.019c-4.436 8.397-10.614 15.526-18.06 21.387-21.069 16.475-25.981 37.545-26.931 48.317-.633 5.386-2.534 10.456-5.386 14.891l-3.643 5.861c-1.426 2.06-2.218 4.278-2.852 6.653-7.921 32.951-41.347 54.338-41.347 54.338-45.782 27.089-57.505 55.446-60.515 70.336-1.267 6.654-5.069 12.04-10.931 15.367-15.683 9.03-33.9 25.346-41.346 32.158-2.218 1.902-4.119 4.119-6.02 6.337-25.822 32.475-51.96 51.803-64.476 60.198-4.276 2.694-8.713 4.911-13.306 6.971-35.803 15.525-74.932 47.842-88.238 59.406-2.536 2.059-5.862 2.535-9.03 1.426-3.802-1.426-8.08-1.109-11.723-.159-4.911 1.109-9.663-.95-12.04-5.228-8.396-15.841-23.129-36.435-23.129-36.435-39.92-41.188-46.574-82.06-46.732-103.763 0-8.555 2.693-17.109 8.237-23.604 25.822-30.416 22.653-66.852 22.653-66.852-8.395-38.337 5.704-69.387 5.704-69.387 3.168-19.484 12.515-35.643 18.376-44.197 3.327-4.911 4.911-10.773 4.911-16.634v-7.129c0-6.178 1.268-12.198 4.119-17.584 18.534-34.693-4.119-46.258-4.119-46.258 9.98-21.069-16.159-33.901-28.515-38.654-4.594-1.742-9.347-2.534-14.258-2.058-12.197 1.266-27.247 6.969-36.752 11.247-4.753 2.059-8.079 3.643-8.872 3.96C-333.149 54.337-236.357-31.366-112.634-110.1l1.109-.633.951.633c1.109.635 104.079 62.575 222.416 174.576 25.822 24.554 53.703 52.594 82.06 84.277-3.485-1.901-6.812-3.485-9.981-4.594" clip-path="url(#d)" style="fill:#f7d417;fill-opacity:1;fill-rule:nonzero;stroke:none" transform="matrix(1.33333 0 0 -1.33333 1481.269 2115.54)"/><path d="M0 0v-66.534h-16.951v46.257c-.633-.158-1.267-.476-1.901-.792-3.643-1.426-6.97-2.535-10.138-3.168l-4.753-.792V-9.98l3.169.634c3.484.792 7.445 2.059 11.564 3.802s7.287 3.327 9.347 4.752L-8.554 0Z" clip-path="url(#e)" style="fill:#0047ba;fill-opacity:1;fill-rule:nonzero;stroke:none" transform="matrix(1.33333 0 0 -1.33333 1222.733 2034.01)"/><path d="M0 0c-3.486 0-6.178.792-8.238 2.535-2.059 1.901-3.01 4.435-3.01 7.445 0 2.852 1.109 5.228 3.169 7.129 1.901 1.901 4.435 2.693 7.603 2.693 3.486 0 6.179-1.109 8.238-3.168 1.901-2.218 3.169-4.911 3.169-8.237 0-2.377-1.268-4.278-3.169-5.862C5.703.792 3.01 0 0 0m20.118 24.238c-4.911 5.386-11.564 8.08-19.802 8.08-7.921 0-14.415-2.06-19.643-6.337-5.228-4.436-7.921-10.139-7.921-16.951 0-6.495 2.535-11.723 7.446-15.842 4.752-3.96 10.614-5.861 17.584-5.861 4.277 0 7.921.633 11.089 2.059-.793-2.218-1.743-4.119-3.168-5.544-2.852-3.168-6.812-4.753-12.04-4.753-4.119 0-7.921.793-11.248 2.377L-23.288-16v-15.683l2.535-.951c3.961-1.425 8.872-2.218 14.416-2.218 10.297 0 18.693 3.327 24.713 9.823 5.861 6.495 8.871 15.524 8.871 27.088 0 9.664-2.376 17.11-7.129 22.179" clip-path="url(#f)" style="fill:#0047ba;fill-opacity:1;fill-rule:nonzero;stroke:none" transform="matrix(1.33333 0 0 -1.33333 1281.242 2077.52)"/><path d="M0 0c0-2.377-1.268-4.278-3.169-5.861-2.059-1.744-4.752-2.536-7.762-2.536-3.485 0-6.178.792-8.238 2.536-2.059 1.901-3.01 4.435-3.01 7.445 0 2.851 1.109 5.228 3.169 7.129 1.901 1.901 4.435 2.693 7.604 2.693 3.485 0 6.178-1.11 8.237-3.169C-1.268 6.02 0 3.326 0 0" clip-path="url(#g)" style="fill:#f7d417;fill-opacity:1;fill-rule:nonzero;stroke:none" transform="matrix(1.33333 0 0 -1.33333 1295.816 2066.326)"/><path d="M0 0c-3.327 0-6.178 1.109-8.238 3.327s-3.01 4.752-3.01 7.762c0 2.535.951 4.594 3.01 6.336C-6.02 19.169-3.327 20.119 0 20.119c3.486 0 6.02-.793 8.079-2.535 1.901-1.901 2.693-4.435 2.693-7.445s-.95-5.387-2.851-7.288C5.861.95 3.169 0 0 0m19.802 26.772c-4.435 3.802-10.455 5.703-17.584 5.703-4.277 0-7.921-.633-11.089-2.059.792 1.901 1.742 3.802 3.168 5.386 3.01 3.326 6.971 5.07 12.199 5.07 3.484 0 6.969-.635 10.296-2.06l5.387-2.218v15.367l-2.535.951c-3.327 1.266-7.763 1.9-13.465 1.9-10.139 0-18.377-3.485-24.713-10.138-6.179-6.812-9.347-15.684-9.347-26.773 0-9.347 2.535-16.792 7.446-22.179 4.911-5.227 11.722-8.079 20.276-8.079 7.605 0 14.1 2.218 19.011 6.337 5.228 4.436 7.92 9.98 7.92 16.792 0 6.653-2.376 11.881-6.97 16" clip-path="url(#h)" style="fill:#0047ba;fill-opacity:1;fill-rule:nonzero;stroke:none" transform="matrix(1.33333 0 0 -1.33333 1456.133 2107.514)"/><path d="M0 0c0-3.01-.95-5.387-2.851-7.288-2.06-1.9-4.753-2.851-7.921-2.851-3.327 0-6.179 1.109-8.238 3.327-2.06 2.217-3.01 4.752-3.01 7.762 0 2.535.95 4.594 3.01 6.337 2.218 1.743 4.911 2.693 8.238 2.693 3.486 0 6.02-.793 8.079-2.535C-.792 5.544 0 3.01 0 0" clip-path="url(#i)" style="fill:#f7d417;fill-opacity:1;fill-rule:nonzero;stroke:none" transform="matrix(1.33333 0 0 -1.33333 1470.496 2093.996)"/><path d="M0 0v-14.415h-53.386v6.811c0 3.961.633 7.445 2.059 10.297 1.425 2.694 3.643 5.386 6.653 7.921 2.852 2.376 7.129 5.069 12.832 8.238 6.654 3.643 9.347 6.178 10.615 7.445 1.425 1.743 2.058 3.485 2.058 5.545 0 1.901-.474 3.01-1.901 4.119-3.167 2.059-9.346 2.693-15.524.316-2.534-.95-5.07-2.534-7.445-4.435l-6.496-5.545v17.426l1.426 1.109c2.852 2.217 5.862 3.961 9.346 5.227 3.327 1.109 7.446 1.744 11.882 1.744 7.287 0 13.466-1.585 18.059-4.911 5.07-3.486 7.763-8.397 7.763-14.417 0-5.228-1.584-9.663-4.594-13.465q-4.04-5.227-13.782-10.456c-7.288-3.96-10.456-6.02-11.723-6.97C-33.109.95-33.743.475-34.218 0Z" clip-path="url(#j)" style="fill:#0047ba;fill-opacity:1;fill-rule:nonzero;stroke:none" transform="matrix(1.33333 0 0 -1.33333 1408.608 2103.5)"/><path d="m0 0-18.058 4.595 6.652-16.791-16.317-13.626 22.339-5.861-5.704-22.02-56.238 14.575 3.486 13.782 24.236 20.119-10.137 26.771 3.643 14.258L5.863 22.337zm-17.265-73.347-7.762 2.377 2.533-7.763-7.604-5.702 9.505-3.009-2.059-6.498-19.327 6.181 1.269 3.96 9.978 7.445-3.485 10.93 1.269 4.119 17.741-5.703zm-29.784-5.227c-2.216-3.011-5.386-4.595-9.504-4.91-.476-.158-.95-.158-1.426-.158-3.327 0-6.178 1.108-8.554 3.167-2.535 2.375-4.119 5.703-4.436 9.663-.317 4.434.475 8.08 2.693 10.932 2.218 2.85 5.386 4.593 9.505 4.91 3.961.474 7.287-.632 9.823-3.011 2.692-2.375 4.119-5.701 4.593-9.82.317-4.277-.633-7.921-2.694-10.773m-38.811.791-6.654 2.061 8.396 26.613 15.842-4.912-2.06-6.493-9.029 2.85zm-10.139 11.405c-2.217-2.85-5.386-4.592-9.346-4.909-.476 0-1.109-.157-1.585-.157-3.168 0-6.019 1.106-8.396 3.326-2.693 2.375-4.119 5.544-4.436 9.661-.475 4.278.476 7.921 2.535 10.775 2.376 3.009 5.545 4.593 9.664 5.067 3.96.317 7.128-.791 9.821-3.168 2.535-2.374 4.119-5.702 4.436-9.663.317-4.434-.475-8.077-2.693-10.932m-49.426 55.605c-5.703 8.079-7.921 17.744-6.495 28.991 1.584 11.882 6.179 21.23 13.782 27.723 7.921 6.811 17.584 9.348 29.149 7.921 10.773-1.268 19.168-6.178 25.029-14.414 5.703-8.08 7.763-17.904 6.337-28.992-1.426-12.04-6.019-21.388-13.623-27.881-6.496-5.545-14.258-8.238-23.129-8.238-1.743 0-3.644.158-5.544.317-11.09 1.427-19.645 6.337-25.506 14.573m15.208-55.129-1.426 17.428-9.663-14.575-7.287 1.9 16.95 24.556 6.178-1.586 2.693-29.622zm-28.356 6.654-1.268 17.267-9.663-14.414-7.287 1.899 16.792 24.397 6.178-1.584 2.693-29.624zm-25.189 5.386-6.97 1.269 1.901 9.978-5.544 19.011 7.762-1.425 2.851-10.139 6.495 8.395 7.605-1.265-12.199-15.683zM-201.03-28.99l-8.078 1.584 3.485-7.603-6.812-6.496 9.663-1.901-1.109-6.496-19.96 3.644.792 4.119 9.03 8.713-4.911 10.298.792 4.275 18.217-3.484zm-37.702 27.406 9.663 77.308 23.763-3.011-1.901-15.049 14.574 13.467 30.733-3.804-37.386-33.426 29.465-44.198-31.842 4.119-11.248 17.903-2.058-16.318zm3.485-20.912-8.238.952 3.96-7.287-6.494-6.969 9.98-1.269-.792-6.652-20.119 2.533.475 4.119 8.555 9.189-5.545 10.137.634 4.278 18.376-2.377zM-263.921 2.06l-23.762 1.744 6.02 77.781 23.762-1.901zm0-35.644c-2.218-2.851-5.386-4.436-9.504-4.912h-1.426c-3.327 0-6.179 1.11-8.554 3.169-2.536 2.377-4.119 5.545-4.437 9.664-.474 4.436.476 8.079 2.693 10.929 2.218 2.853 5.387 4.595 9.506 4.912 3.96.317 7.286-.634 9.822-3.167 2.692-2.377 4.119-5.546 4.435-9.665.475-4.276-.475-7.921-2.535-10.93m-26.296-2.06-9.347.317-6.495 8.554-.317-8.236-7.129.158 1.109 27.88 6.97-.157-.317-7.764 6.812 7.447 9.189-.317-12.357-12.99zm-28.199 2.218h-6.97l.158 28.04 7.129-.158zm-12.673 21.388-6.97.157-.792-21.228-6.971.318.792 21.227-6.97.317.317 6.654 20.911-.793zm-32.634-8.714-.475-10.297-6.971.159.317 10.297-8.238 18.058 8.08-.317 4.119-9.662 5.228 9.347 7.762-.476zm-19.96 49.424-.159-15.841-34.217.158.158 7.921v6.022l1.584 1.108c10.297 7.604 15.208 16.633 15.366 27.564 0 6.813-1.743 12.04-5.544 16.001-3.644 3.96-8.397 5.861-14.416 5.861-6.178.159-10.931-1.901-14.733-5.703-3.802-3.96-5.703-9.187-5.703-15.841 0-10.932 4.911-19.961 15.05-27.723l1.583-1.267-.157-5.863v-8.08l-34.219.318v15.841h10.456c-6.813 7.445-10.297 16.635-10.139 27.406 0 11.09 3.485 20.119 10.455 26.932 6.812 6.654 16.001 9.98 26.931 9.98h.318c11.405 0 20.594-3.485 27.405-10.297 6.812-6.654 10.139-15.842 10.139-27.089 0-10.773-3.644-19.96-10.613-27.249zm0-57.027h-16.792l.158 28.04L-384-.474v-6.654h-9.347v-3.645l8.555-.159v-6.652h-8.555v-4.119h9.664zm-23.604.475-24.555.95.316 3.96 9.981 23.446 6.02-.159 8.396-24.553zm-28.357.474-7.128.159.316 27.881h6.97zm-17.267-.158-2.377 6.495-7.762.159-2.376-6.654-6.813.158 10.456 27.091 5.545-.159 10.138-27.09zm-23.129-.791h-6.971l.159 21.069h-8.238l-.158-21.069-7.129.158.159 27.882 22.495-.159zM-512-28.99l-6.971 7.921.158-8.238-7.128-.158-.634 27.881 6.97.159.317-7.762 6.179 8.079 9.187.159-11.405-13.785 12.831-14.097zm-38.813-1.744-.791 28.04 16.316.317.158-6.652-9.188-.317v-3.643l8.555.158.158-6.654-8.554-.158.158-4.119 9.822.158.158-6.654zm-11.248-.949-6.178 16.317-5.386-16.633-7.446-.158 9.347 28.197 6.336.158 10.931-27.723zm5.07 117.545 2.059-77.783-23.762-.632-2.06 77.781zm18.218 1.901 59.723-.317-.159-22.971h-17.9l-.476-54.812-23.762.159.317 54.811-17.901.159zm199.763-.79 20.277-1.586 22.179-79.843-25.822 1.903-9.822 37.701-15.683-35.643-25.505 1.902zM-593.111-33.426l-.791 27.882 6.97.158.792-27.881zm-20.276 37.23-8.08 16.315-14.574-1.425-4.277-17.586-25.822-2.533 21.861 80.477 19.328 1.899 37.227-74.614zm12.831-32.001c-1.742-1.902-4.119-3.011-6.811-3.328l.158-3.326-6.812-.158-.158 3.326c-2.694.158-5.07 1.108-6.971 3.011-2.059 2.057-3.168 4.91-3.327 8.238 0 3.167.951 6.018 3.01 8.079 1.743 1.74 3.961 2.85 6.812 3.168l-.159 2.533 6.813.158.158-2.533c2.694-.158 4.911-1.11 6.812-2.852 2.218-1.901 3.327-4.593 3.485-7.921 0-3.326-.95-6.178-3.01-8.395m-58.93-11.09-.317 3.96 6.336 10.932-7.445 8.712-.476 4.277 18.535 1.584.634-6.652-8.238-.793 5.545-6.337-4.911-8.236 9.98.95.634-6.655zm-7.921 1.267c-2.218-2.851-5.387-4.595-9.506-4.91-.474 0-.95-.159-1.425-.159q-4.99-.001-8.555 3.328c-2.534 2.216-4.119 5.542-4.435 9.662-.317 4.277.475 7.92 2.693 10.773 2.218 3.011 5.386 4.592 9.504 5.068 3.961.317 7.288-.791 9.822-3.167 2.694-2.377 4.119-5.703 4.595-9.664.316-4.436-.476-8.079-2.693-10.931m-33.268-8.871-7.604 7.604.792-8.238-6.97-.632-2.534 27.881 6.97.633.633-7.763 5.862 8.238 9.029.95-10.456-14.573 13.625-13.15zm-29.307-3.645-2.535 27.723 7.129.634 2.535-27.723zm-10.139-2.216-6.97-1.11-3.485 20.912-6.812-1.269-1.108 6.655 20.593 3.486 1.11-6.656-6.813-1.106zm-35.96-7.128-.951 3.96 4.911 11.565-8.396 7.603-.95 4.278 18.059 3.96 1.426-6.495-7.921-1.901 6.179-5.546-3.645-8.712 9.664 2.218 1.426-6.496zm-9.188-1.903-3.96 5.705-7.446-1.744-.792-6.97-6.653-1.427 3.801 28.674 5.386 1.269 16.317-24.08zm-28.99-7.445-13.308 12.198 3.802-14.731-6.812-1.744-6.97 27.088 6.654 1.744 12.99-12.198-3.803 14.573 6.812 1.744 7.129-27.088zm-28.832-7.604-3.01 11.565-2.06-12.833-4.119-1.108-8.079 10.456 3.01-11.723-6.653-1.744-7.129 27.09 7.287 1.901 10.772-13.94 2.693 17.425 7.129 1.744 6.97-26.932zm-32.001-9.663-6.812-1.901-3.01 9.663-13.623 14.417 7.604 2.216 7.128-7.604 1.901 10.456 7.446 2.218-3.644-19.484zm-27.881-9.187-6.653-2.379-9.505 26.3 15.683 5.542 2.377-6.335-9.03-3.168zM-936.715 16l60.831 18.536 22.812-74.455-22.97-6.972-15.842 52.277-15.05-4.593 15.842-52.278-22.812-6.972zm108.99 31.368 19.01 4.434 46.574-68.91-25.03-6.02-10.138 15.207-14.258-3.485-1.901-17.901-25.346-5.861zm90.297 19.01 24.238-29.15-3.96 31.683 23.604 2.852 9.505-77.307-21.545-2.692-24.871 29.78 3.96-32.317-23.604-2.851-9.505 77.308zM38.181 13.465c-2.852 6.496-5.705 12.833-9.665 21.071l-.317.792-.791.316c-1.108.317-113.268 40.397-288.477 60.04-161.585 18.06-411.407 21.862-683.884-62.417h-.159c-1.742 0-2.692-1.899-13.94-26.454-109.783-238.735-132.119-486.339-66.694-735.845.158-1.109 21.861-104.556 101.863-243.645 33.741-58.773 81.425-129.743 147.01-204.516.95.95 1.901 1.901 2.692 2.851 40.555 42.139 32.16 68.753 32.16 68.753 0 40.555-24.239 70.496-24.239 70.496-52.594 65.742-54.019 134.178-54.019 134.178-7.604 19.644-9.822 46.733-10.456 60.991-.317 6.971-1.584 13.782-3.009 20.753-8.08 38.495-1.268 70.337 3.167 85.386 1.744 5.545.476 11.247-2.059 16.317-8.713 18.06 6.97 42.297 6.97 42.297-19.643-.159-3.326 17.585 7.446 27.564 4.278 3.961 6.812 9.506 8.554 15.208 2.536 8.872 8.872 18.852 13.783 25.822 3.644 5.07 3.168 12.04-1.11 16.634l-7.762 8.079 19.644 11.564c4.753 2.853 8.079 7.921 8.079 13.308.317 6.178-.95 12.356-.95 12.356-8.554 12.357-9.346 37.228-9.189 49.11 0 4.119-2.058 8.079-5.385 10.613-49.902 39.287-55.763 89.506-55.446 112.159 0 7.446-.792 14.892-3.169 22.02-9.03 27.405-3.168 52.436-3.168 52.436 9.821 47.842 58.614 46.098 77.783 43.565 4.119-.634 8.079.317 11.881 2.216 4.119 2.061 10.614 4.278 15.842 5.863 4.119 1.108 6.494 5.227 5.544 9.346-1.742 8.08-1.742 20.278-1.584 28.199.159 4.434-1.901 8.712-5.861 10.773-21.862 11.247-24.713 28.514-24.713 28.514l15.841 1.267c-18.535 20.595 3.327 40.079 3.327 40.079-.159 36.437 43.248 27.406 43.248 27.406 4.435 12.516 31.049 15.208 31.049 15.208-2.218-11.565 13.466-9.503 22.653-7.287 3.328.951 6.971-.317 9.189-3.168 3.643-4.436 11.881-12.515 30.733-26.297 22.653-16.633 23.762-29.465 22.02-36.118-.792-3.169-.317-6.656 2.218-8.872 15.683-14.258 7.604-20.436-.159-22.97-5.228-1.902-8.555-6.971-8.555-12.515v-19.961c-15.841-12.832-24.871 18.851-24.871 18.851l-10.138-13.465c-2.06-18.218-10.772-25.981-10.772-25.981-.951-11.247 0-18.533 1.583-23.128 2.218-6.178 10.298-8.079 15.366-3.802 10.931 9.505 32.476 15.049 42.14 17.109 3.327.792 6.02 2.535 8.712 4.436 11.882 9.187 32.317 11.881 45.624 12.672 7.288.317 14.258 2.852 19.802 7.603 9.822 8.239 26.14 17.745 26.14 17.745 5.544 5.544 15.683 9.346 23.128 11.564 4.594 1.425 9.188 3.168 12.99 6.179 22.179 18.059 78.891 19.958 102.496 19.802 6.812 0 13.307-2.694 17.584-7.764 35.485-41.345 62.891-103.921 62.891-103.921 28.99-45.782 10.456-62.417 10.456-62.417 4.119-25.978-9.663-47.365-19.01-58.771-5.544-6.495-8.713-14.732-9.347-23.287l-1.108-13.466c-.476-6.97-2.853-13.623-6.971-19.168-18.059-24.555-31.05-36.119-39.288-41.347-6.336-4.119-11.089-9.98-14.415-16.633-7.288-15.209-18.377-20.753-18.377-20.753-24.87-30.416-54.653-42.139-73.98-46.733-11.881-2.693-22.336-9.663-30.099-19.326-6.97-8.714-14.575-13.149-20.278-15.209-2.851-.95-3.643-4.593-1.426-6.653 6.496-6.495 12.832-16.792 12.832-16.792 50.219-7.763 30.1-23.762 30.1-23.762 32.633-13.784 6.178-19.169 6.178-19.169 19.326-10.456 12.356-15.842 12.356-15.842 26.456-26.139 41.189-47.683 49.268-62.099 5.227-9.664 8.554-19.96 10.931-30.574 9.346-43.723 32-59.882 43.406-65.426 7.129-3.644 13.465-8.714 19.01-14.734 32.317-35.485 45.466-82.534 45.466-82.534 9.822-37.703 26.614-60.833 34.534-70.179 2.852-3.485 4.753-7.446 5.545-12.039l1.426-7.763c.95-4.911 3.167-9.347 6.653-12.99l52.753-54.178c17.425-19.01 25.505-31.05 28.989-38.812.635-1.585 1.268-3.169 1.585-4.437 84.912 98.536 170.931 226.378 220.357 377.032 1.267 3.01 37.545 93.783 49.902 235.09 11.405 132.12 3.802 336.794-98.059 561.586" clip-path="url(#k)" style="fill:#f7d417;fill-opacity:1;fill-rule:nonzero;stroke:none" transform="matrix(1.33333 0 0 -1.33333 1948.068 336.418)"/><path d="m0 0-7.762 2.377 2.533-7.763-7.604-5.702 9.505-3.009-2.06-6.498-19.326 6.18 1.269 3.961 9.978 7.445-3.485 10.93 1.269 4.119L2.058 6.337z" clip-path="url(#l)" style="fill:#0047ba;fill-opacity:1;fill-rule:nonzero;stroke:none" transform="matrix(1.33333 0 0 -1.33333 1925.048 434.214)"/><path d="M0 0c-.95-1.425-2.377-2.059-4.436-2.218-1.742-.159-3.169.317-4.435 1.427-1.268 1.265-1.901 3.168-2.218 5.542-.159 2.379.158 4.278 1.267 5.864 1.109 1.425 2.376 2.216 4.277 2.374h.793q2.138 0 3.802-1.425C.159 10.297.95 8.395 1.109 5.861 1.425 3.326.95 1.425 0 0m3.803 16.633c-2.536 2.378-5.862 3.484-9.823 3.01-4.119-.317-7.287-2.059-9.506-4.909-2.217-2.853-3.009-6.498-2.692-10.932.317-3.961 1.901-7.289 4.436-9.663 2.376-2.06 5.227-3.168 8.554-3.168.476 0 .95 0 1.426.159 4.118.315 7.288 1.899 9.504 4.91C7.763-1.108 8.713 2.535 8.396 6.813c-.474 4.119-1.901 7.445-4.593 9.82" clip-path="url(#m)" style="fill:#0047ba;fill-opacity:1;fill-rule:nonzero;stroke:none" transform="matrix(1.33333 0 0 -1.33333 1877.733 435.903)"/><path d="M0 0c.316-2.535-.159-4.436-1.109-5.861s-2.377-2.06-4.436-2.218c-1.742-.159-3.169.317-4.435 1.427-1.268 1.264-1.901 3.167-2.218 5.542-.159 2.379.158 4.278 1.267 5.863 1.109 1.425 2.376 2.216 4.277 2.375h.793q2.138 0 3.802-1.425C-.95 4.436-.159 2.533 0 0" clip-path="url(#n)" style="fill:#f7d417;fill-opacity:1;fill-rule:nonzero;stroke:none" transform="matrix(1.33333 0 0 -1.33333 1879.212 428.087)"/><path d="m0 0-18.058 4.595 6.652-16.791-16.317-13.626 22.339-5.861-5.704-22.02-56.238 14.575 3.486 13.782 24.236 20.119-10.137 26.771 3.643 14.258L5.863 22.337z" clip-path="url(#o)" style="fill:#0047ba;fill-opacity:1;fill-rule:nonzero;stroke:none" transform="matrix(1.33333 0 0 -1.33333 1948.068 336.418)"/><path d="m0 0-2.059-6.494-9.029 2.851-6.496-20.12-6.653 2.062 8.395 26.613z" clip-path="url(#p)" style="fill:#0047ba;fill-opacity:1;fill-rule:nonzero;stroke:none" transform="matrix(1.33333 0 0 -1.33333 1857.032 408.445)"/><path d="m0 0-7.445 1.899-1.426 17.427-9.663-14.575-7.287 1.901 16.95 24.556 6.178-1.586z" clip-path="url(#q)" style="fill:#0047ba;fill-opacity:1;fill-rule:nonzero;stroke:none" transform="matrix(1.33333 0 0 -1.33333 1784.372 426.819)"/><path d="M0 0c-1.109-1.265-2.534-2.057-4.436-2.216-1.901-.159-3.168.317-4.435 1.584-1.268 1.266-2.06 3.011-2.218 5.385-.317 2.535.158 4.436 1.267 5.864q1.427 2.136 4.278 2.374c1.901.159 3.326-.317 4.435-1.425C.159 10.458.792 8.555 1.109 5.863 1.268 3.328.95 1.427 0 0m3.802 16.635c-2.693 2.376-5.861 3.484-9.822 3.167-4.119-.474-7.287-2.057-9.663-5.066-2.06-2.855-3.01-6.498-2.535-10.776.317-4.117 1.743-7.286 4.436-9.661 2.376-2.22 5.228-3.326 8.395-3.326.476 0 1.109.157 1.585.157 3.961.317 7.129 2.059 9.346 4.91 2.218 2.854 3.01 6.497 2.694 10.931-.317 3.961-1.901 7.289-4.436 9.664" clip-path="url(#r)" style="fill:#0047ba;fill-opacity:1;fill-rule:nonzero;stroke:none" transform="matrix(1.33333 0 0 -1.33333 1812.676 419.64)"/><path d="M0 0c.159-2.535-.159-4.436-1.109-5.863-1.109-1.265-2.534-2.058-4.436-2.216-1.901-.159-3.168.317-4.435 1.583-1.268 1.267-2.06 3.011-2.218 5.386-.317 2.535.158 4.436 1.267 5.863q1.427 2.136 4.278 2.375c1.901.158 3.326-.317 4.435-1.425C-.95 4.595-.317 2.692 0 0" clip-path="url(#s)" style="fill:#f7d417;fill-opacity:1;fill-rule:nonzero;stroke:none" transform="matrix(1.33333 0 0 -1.33333 1814.155 411.823)"/><path d="m0 0-7.445 2.06-1.268 17.266-9.663-14.414-7.287 1.899 16.792 24.397 6.178-1.584z" clip-path="url(#t)" style="fill:#0047ba;fill-opacity:1;fill-rule:nonzero;stroke:none" transform="matrix(1.33333 0 0 -1.33333 1746.563 418.16)"/><path d="M0 0c-1.585-1.425-4.436-3.167-9.98-2.535-3.802.476-6.496 2.061-8.397 5.07-2.218 3.326-3.01 7.762-2.218 13.307.634 5.544 2.377 9.504 5.545 12.357 2.693 2.535 5.703 3.484 9.822 2.852C0 30.417 2.217 28.04 3.326 26.298c2.06-3.168 2.694-7.763 2.06-13.782C4.594 6.813 2.851 2.535 0 0m23.128 39.448C17.267 47.684 8.871 52.594-1.901 53.862c-11.565 1.427-21.228-1.11-29.149-7.921-7.604-6.493-12.198-15.841-13.782-27.723-1.426-11.247.792-20.912 6.494-28.991 5.862-8.236 14.417-13.146 25.506-14.573 1.901-.159 3.802-.317 5.545-.317 8.871 0 16.633 2.693 23.129 8.238 7.603 6.493 12.197 15.841 13.623 27.881 1.426 11.088-.634 20.912-6.337 28.992" clip-path="url(#u)" style="fill:#0047ba;fill-opacity:1;fill-rule:nonzero;stroke:none" transform="matrix(1.33333 0 0 -1.33333 1805.284 336.418)"/><path d="M0 0c-.792-5.703-2.534-9.98-5.386-12.516-1.584-1.425-4.436-3.167-9.98-2.535-3.802.476-6.496 2.062-8.396 5.071-2.218 3.326-3.01 7.762-2.218 13.306.634 5.544 2.376 9.505 5.545 12.357 2.692 2.535 5.702 3.485 9.821 2.853 5.228-.635 7.446-3.011 8.555-4.754C0 10.615.634 6.02 0 0" clip-path="url(#v)" style="fill:#f7d417;fill-opacity:1;fill-rule:nonzero;stroke:none" transform="matrix(1.33333 0 0 -1.33333 1812.465 319.73)"/><path d="m0 0-12.198-15.683-1.901-10.141-6.971 1.269 1.901 9.978-5.544 19.011 7.762-1.425 2.852-10.139 6.494 8.395z" clip-path="url(#w)" style="fill:#0047ba;fill-opacity:1;fill-rule:nonzero;stroke:none" transform="matrix(1.33333 0 0 -1.33333 1721.85 373.802)"/><path d="m0 0-8.078 1.584 3.484-7.604-6.812-6.496 9.664-1.901-1.109-6.495-19.96 3.643.792 4.119 9.03 8.714L-17.9 5.861l.792 4.276L1.109 6.652z" clip-path="url(#x)" style="fill:#0047ba;fill-opacity:1;fill-rule:nonzero;stroke:none" transform="matrix(1.33333 0 0 -1.33333 1680.028 375.07)"/><path d="m0 0 29.465-44.199-31.842 4.119-11.248 17.903-2.058-16.317-23.763 3.009 9.664 77.307 23.762-3.011-1.901-15.049L6.653 37.229l30.733-3.803Z" clip-path="url(#y)" style="fill:#0047ba;fill-opacity:1;fill-rule:nonzero;stroke:none" transform="matrix(1.33333 0 0 -1.33333 1682.352 291.216)"/><path d="m0 0-6.02-77.624-23.762 1.744 6.02 77.781z" clip-path="url(#z)" style="fill:#0047ba;fill-opacity:1;fill-rule:nonzero;stroke:none" transform="matrix(1.33333 0 0 -1.33333 1604.2 230.173)"/><path d="m0 0-8.238.951 3.961-7.286-6.495-6.969 9.98-1.269-.792-6.652-20.119 2.533.475 4.119 8.555 9.189-5.545 10.137.634 4.278L.792 6.654z" clip-path="url(#A)" style="fill:#0047ba;fill-opacity:1;fill-rule:nonzero;stroke:none" transform="matrix(1.33333 0 0 -1.33333 1634.405 366.412)"/><path d="m0 0-.317-27.881h-6.971l.159 28.04z" clip-path="url(#B)" style="fill:#0047ba;fill-opacity:1;fill-rule:nonzero;stroke:none" transform="matrix(1.33333 0 0 -1.33333 1523.936 343.81)"/><path d="m0 0 11.881-14.892-9.347.317-6.494 8.553-.317-8.236-7.129.159 1.109 27.879 6.97-.156-.317-7.765 6.812 7.448 9.188-.318z" clip-path="url(#C)" style="fill:#0047ba;fill-opacity:1;fill-rule:nonzero;stroke:none" transform="matrix(1.33333 0 0 -1.33333 1545.27 364.087)"/><path d="M0 0c-.95-1.425-2.377-2.059-4.436-2.375-1.742 0-3.169.474-4.435 1.582-1.268 1.269-1.901 3.17-2.218 5.546-.159 2.375.158 4.278 1.267 5.86q1.426 2.14 4.277 2.378h.793c1.425 0 2.693-.475 3.643-1.585C.159 10.297.95 8.396 1.109 5.861 1.425 3.326.95 1.269 0 0m3.802 16.476c-2.535 2.533-5.861 3.485-9.822 3.167-4.119-.317-7.287-2.059-9.506-4.911-2.217-2.851-3.167-6.494-2.692-10.93.317-4.119 1.901-7.287 4.436-9.663 2.376-2.06 5.227-3.17 8.554-3.17h1.426c4.118.476 7.287 2.062 9.505 4.912 2.059 3.009 3.01 6.654 2.534 10.93-.316 4.119-1.742 7.288-4.435 9.665" clip-path="url(#D)" style="fill:#0047ba;fill-opacity:1;fill-rule:nonzero;stroke:none" transform="matrix(1.33333 0 0 -1.33333 1588.57 375.705)"/><path d="M0 0c.316-2.535-.159-4.593-1.109-5.861-.95-1.425-2.377-2.06-4.436-2.375-1.742 0-3.169.474-4.435 1.582-1.268 1.268-1.901 3.169-2.218 5.546-.159 2.375.158 4.277 1.267 5.859q1.426 2.14 4.277 2.379h.793c1.425 0 2.693-.476 3.643-1.586C-.95 4.436-.159 2.535 0 0" clip-path="url(#E)" style="fill:#f7d417;fill-opacity:1;fill-rule:nonzero;stroke:none" transform="matrix(1.33333 0 0 -1.33333 1590.049 367.89)"/><path d="m0 0-.317-6.652-6.97.156-.792-21.227-6.971.317.792 21.228-6.97.317.317 6.654z" clip-path="url(#F)" style="fill:#0047ba;fill-opacity:1;fill-rule:nonzero;stroke:none" transform="matrix(1.33333 0 0 -1.33333 1507.038 343.599)"/><path d="m0 0-25.822 1.903-9.822 37.701L-51.327 3.96l-25.505 1.903 34.377 75.565 20.276-1.585Z" clip-path="url(#G)" style="fill:#0047ba;fill-opacity:1;fill-rule:nonzero;stroke:none" transform="matrix(1.33333 0 0 -1.33333 1552.662 329.026)"/><path d="m0 0-9.822-17.108-.475-10.298-6.971.159.317 10.297-8.238 18.058 8.08-.317 4.119-9.661L-7.762.476z" clip-path="url(#H)" style="fill:#0047ba;fill-opacity:1;fill-rule:nonzero;stroke:none" transform="matrix(1.33333 0 0 -1.33333 1476.2 341.275)"/><path d="M0 0v-6.652h-16.792l.158 28.04 16.317-.159v-6.654h-9.346V10.93l8.554-.159V4.119h-8.554V0Z" clip-path="url(#I)" style="fill:#0047ba;fill-opacity:1;fill-rule:nonzero;stroke:none" transform="matrix(1.33333 0 0 -1.33333 1436.49 365.355)"/><path d="m0 0 10.455-.159L10.297-16l-34.218.158.159 7.921v6.022l1.583 1.108C-11.881 6.813-6.97 15.842-6.813 26.773c0 6.813-1.742 12.04-5.544 16.001-3.643 3.96-8.397 5.861-14.415 5.861-6.179.159-10.931-1.901-14.734-5.703-3.802-3.96-5.703-9.187-5.703-15.841 0-10.932 4.911-19.961 15.05-27.723l1.584-1.267-.158-5.863v-8.08l-34.218.318V.317h10.456c-6.813 7.445-10.298 16.635-10.139 27.406 0 11.09 3.484 20.119 10.455 26.932 6.812 6.654 16 9.98 26.931 9.98h.317c11.405 0 20.594-3.484 27.406-10.297 6.811-6.654 10.139-15.842 10.139-27.089C10.614 16.476 6.969 7.289 0 0" clip-path="url(#J)" style="fill:#0047ba;fill-opacity:1;fill-rule:nonzero;stroke:none" transform="matrix(1.33333 0 0 -1.33333 1422.55 297.977)"/><path d="m0 0 3.96 9.661L7.286-.317zm7.445 20.91-6.02.159-9.98-23.446-.316-3.96 24.554-.949.159 3.643z" clip-path="url(#K)" style="fill:#0047ba;fill-opacity:1;fill-rule:nonzero;stroke:none" transform="matrix(1.33333 0 0 -1.33333 1384.107 363.875)"/><path d="m0 0-7.286.317 3.96 9.661z" clip-path="url(#L)" style="fill:#f7d417;fill-opacity:1;fill-rule:nonzero;stroke:none" transform="matrix(1.33333 0 0 -1.33333 1393.822 364.298)"/><path d="m0 0-.159-28.04-7.128.159L-6.97 0Z" clip-path="url(#M)" style="fill:#0047ba;fill-opacity:1;fill-rule:nonzero;stroke:none" transform="matrix(1.33333 0 0 -1.33333 1367.42 335.572)"/><path d="m0 0 2.693 7.13c0 .317.158.632.317 1.267.159-.635.159-.95.317-1.267L5.861 0Zm5.861 15.209-5.544.159-10.456-27.091 6.813-.158 2.375 6.654 7.763-.159 2.376-6.495H16Z" clip-path="url(#N)" style="fill:#0047ba;fill-opacity:1;fill-rule:nonzero;stroke:none" transform="matrix(1.33333 0 0 -1.33333 1331.935 357.329)"/><path d="M0 0h-5.861l2.692 7.13c0 .317.159.632.318 1.267.158-.635.158-.95.317-1.267z" clip-path="url(#O)" style="fill:#f7d417;fill-opacity:1;fill-rule:nonzero;stroke:none" transform="matrix(1.33333 0 0 -1.33333 1339.75 357.329)"/><path d="m0 0-.317-27.881h-6.971l.159 21.068h-8.238l-.158-21.068-7.128.158.158 27.882z" clip-path="url(#P)" style="fill:#0047ba;fill-opacity:1;fill-rule:nonzero;stroke:none" transform="matrix(1.33333 0 0 -1.33333 1313.77 337.05)"/><path d="m0 0-.159-22.972h-17.9l-.475-54.811-23.763.158.317 54.812-17.901.159.159 22.971z" clip-path="url(#Q)" style="fill:#0047ba;fill-opacity:1;fill-rule:nonzero;stroke:none" transform="matrix(1.33333 0 0 -1.33333 1309.334 219.823)"/><path d="m0 0-6.97 7.921.157-8.238-7.128-.159-.634 27.882 6.97.158.317-7.762 6.179 8.079 9.187.159-11.405-13.784L9.505.159Z" clip-path="url(#R)" style="fill:#0047ba;fill-opacity:1;fill-rule:nonzero;stroke:none" transform="matrix(1.33333 0 0 -1.33333 1265.4 375.07)"/><path d="m0 0-16.792-.476-.792 28.04 16.316.317.159-6.652-9.188-.317v-3.643l8.555.158.157-6.654-8.554-.158.159-4.119 9.821.158z" clip-path="url(#S)" style="fill:#0047ba;fill-opacity:1;fill-rule:nonzero;stroke:none" transform="matrix(1.33333 0 0 -1.33333 1236.04 376.762)"/><path d="m0 0-7.604-.159-6.178 16.318-5.386-16.633-7.446-.158 9.347 28.196 6.336.159z" clip-path="url(#T)" style="fill:#0047ba;fill-opacity:1;fill-rule:nonzero;stroke:none" transform="matrix(1.33333 0 0 -1.33333 1208.792 378.45)"/><path d="m0 0-23.763-.632-2.059 77.781 23.762.634z" clip-path="url(#U)" style="fill:#0047ba;fill-opacity:1;fill-rule:nonzero;stroke:none" transform="matrix(1.33333 0 0 -1.33333 1208.159 325.645)"/><path d="m0 0-6.97-.159-.792 27.882 6.97.158z" clip-path="url(#V)" style="fill:#0047ba;fill-opacity:1;fill-rule:nonzero;stroke:none" transform="matrix(1.33333 0 0 -1.33333 1166.547 380.774)"/><path d="M0 0c0-2.062-.475-3.804-1.584-5.07a3.6 3.6 0 0 0-3.01-1.586V6.018c1.109 0 2.06-.634 2.852-1.267C-.633 3.485 0 1.899 0 0" clip-path="url(#W)" style="fill:#f7d417;fill-opacity:1;fill-rule:nonzero;stroke:none" transform="matrix(1.33333 0 0 -1.33333 1144.58 363.03)"/><path d="M0 0v-12.833c-1.268 0-2.377.635-3.169 1.427-1.109 1.11-1.742 2.851-1.742 4.912-.158 2.058.476 3.644 1.584 4.91A5.5 5.5 0 0 0 0 0" clip-path="url(#X)" style="fill:#f7d417;fill-opacity:1;fill-rule:nonzero;stroke:none" transform="matrix(1.33333 0 0 -1.33333 1128.74 355.005)"/><path d="M0 0c-.95-1.267-2.376-2.057-4.277-2.216-1.9-.159-3.327.317-4.436 1.582-1.425 1.268-2.059 3.011-2.376 5.387-.158 2.534.317 4.436 1.267 5.862 1.109 1.425 2.377 2.218 4.278 2.376h.792q2.139 0 3.802-1.427C.159 10.456.951 8.555 1.109 5.863 1.426 3.326.951 1.427 0 0m3.802 16.635c-2.534 2.376-5.861 3.484-9.822 3.167-4.118-.476-7.286-2.057-9.504-5.068-2.219-2.853-3.01-6.496-2.693-10.774.316-4.119 1.901-7.445 4.435-9.661q3.564-3.329 8.555-3.328c.475 0 .95.159 1.425.159 4.119.315 7.288 2.059 9.506 4.91S8.713 2.535 8.397 6.971c-.476 3.961-1.901 7.287-4.595 9.664" clip-path="url(#Y)" style="fill:#0047ba;fill-opacity:1;fill-rule:nonzero;stroke:none" transform="matrix(1.33333 0 0 -1.33333 1050.586 381.831)"/><path d="m0 0-20.277-1.742-.317 3.96 6.336 10.932-7.445 8.711-.476 4.278 18.536 1.584.633-6.652-8.238-.793 5.545-6.337-4.911-8.236 9.981.949z" clip-path="url(#Z)" style="fill:#0047ba;fill-opacity:1;fill-rule:nonzero;stroke:none" transform="matrix(1.33333 0 0 -1.33333 1095.788 386.477)"/><path d="m0 0-10.456-.791-2.851-.317 5.069 17.899c.317.793.476 1.903.476 3.17l.158-.159c.316-1.267.634-2.218.792-2.852L1.109 0Zm-.792 45.148-19.327-1.899-21.862-80.477 25.822 2.534 4.278 17.586 14.574 1.425 8.079-16.316 25.664 2.534z" clip-path="url(#aa)" style="fill:#0047ba;fill-opacity:1;fill-rule:nonzero;stroke:none" transform="matrix(1.33333 0 0 -1.33333 1115.855 288.681)"/><path d="M0 0c.317-2.537-.159-4.436-1.109-5.863-.951-1.267-2.376-2.058-4.277-2.216s-3.327.317-4.436 1.581c-1.425 1.269-2.059 3.011-2.376 5.388-.158 2.533.317 4.436 1.267 5.861 1.109 1.426 2.377 2.218 4.278 2.377h.792q2.138 0 3.801-1.427C-.951 4.593-.159 2.692 0 0" clip-path="url(#ab)" style="fill:#f7d417;fill-opacity:1;fill-rule:nonzero;stroke:none" transform="matrix(1.33333 0 0 -1.33333 1052.065 374.013)"/><path d="m0 0-24.872 29.78 3.961-32.317-23.604-2.851-9.505 77.308 22.178 2.694 24.238-29.15-3.96 31.683 23.604 2.852 9.504-77.307z" clip-path="url(#ac)" style="fill:#0047ba;fill-opacity:1;fill-rule:nonzero;stroke:none" transform="matrix(1.33333 0 0 -1.33333 1007.286 347.4)"/><path d="m0 0-7.604 7.604.792-8.238-6.97-.633-2.534 27.882 6.97.632.633-7.762 5.862 8.238 9.029.949-10.456-14.573L9.347.949Z" clip-path="url(#ad)" style="fill:#0047ba;fill-opacity:1;fill-rule:nonzero;stroke:none" transform="matrix(1.33333 0 0 -1.33333 1013.834 398.939)"/><path d="m0 0-7.129-.634-2.535 27.723 7.129.634z" clip-path="url(#ae)" style="fill:#0047ba;fill-opacity:1;fill-rule:nonzero;stroke:none" transform="matrix(1.33333 0 0 -1.33333 984.264 402.953)"/><path d="m0 0 3.486-20.912-6.971-1.11L-6.969-1.11l-6.813-1.269-1.108 6.655L5.704 7.762l1.109-6.656Z" clip-path="url(#af)" style="fill:#0047ba;fill-opacity:1;fill-rule:nonzero;stroke:none" transform="matrix(1.33333 0 0 -1.33333 956.593 378.871)"/><path d="m0 0-19.802-4.434-.951 3.96 4.911 11.564-8.395 7.604-.951 4.278 18.059 3.96 1.426-6.496-7.921-1.9 6.179-5.547-3.644-8.711 9.664 2.218z" clip-path="url(#ag)" style="fill:#0047ba;fill-opacity:1;fill-rule:nonzero;stroke:none" transform="matrix(1.33333 0 0 -1.33333 939.695 410.346)"/><path d="m0 0-13.307 12.198 3.801-14.731-6.811-1.745-6.971 27.089 6.654 1.744 12.991-12.198-3.803 14.573 6.812 1.744L6.495 1.586z" clip-path="url(#ah)" style="fill:#0047ba;fill-opacity:1;fill-rule:nonzero;stroke:none" transform="matrix(1.33333 0 0 -1.33333 862.388 428.722)"/><path d="m0 0 7.128-19.961-6.653-2.378L-9.03 3.96 6.653 9.503 9.03 3.167Z" clip-path="url(#ai)" style="fill:#0047ba;fill-opacity:1;fill-rule:nonzero;stroke:none" transform="matrix(1.33333 0 0 -1.33333 734.6 437.38)"/><path d="m0 0 3.01-9.98-6.812-1.901-3.01 9.663-13.623 14.416 7.603 2.216 7.129-7.603 1.901 10.456 7.446 2.218z" clip-path="url(#aj)" style="fill:#0047ba;fill-opacity:1;fill-rule:nonzero;stroke:none" transform="matrix(1.33333 0 0 -1.33333 777.265 438.437)"/><path d="m0 0-6.812-1.901-3.01 11.564-2.059-12.833L-16-4.278l-8.08 10.456 3.01-11.722-6.653-1.744-7.129 27.09 7.288 1.901 10.772-13.941 2.693 17.426 7.129 1.744z" clip-path="url(#ak)" style="fill:#0047ba;fill-opacity:1;fill-rule:nonzero;stroke:none" transform="matrix(1.33333 0 0 -1.33333 833.028 436.325)"/><path d="m0 0-15.05-4.593L.792-56.871l-22.812-6.971-22.811 74.457L16 29.15l22.812-74.455-22.97-6.971Z" clip-path="url(#al)" style="fill:#0047ba;fill-opacity:1;fill-rule:nonzero;stroke:none" transform="matrix(1.33333 0 0 -1.33333 758.889 329.237)"/><path d="m0 0 .792 8.079c.159.317.159.793 0 1.267h.159c.317-.474.317-.95.475-1.108l4.435-6.813Zm1.901 16.635-5.386-1.269-3.801-28.674 6.653 1.427.792 6.969 7.446 1.744 3.96-5.704 6.653 1.427z" clip-path="url(#am)" style="fill:#0047ba;fill-opacity:1;fill-rule:nonzero;stroke:none" transform="matrix(1.33333 0 0 -1.33333 885.622 406.965)"/><path d="m0 0-5.861-1.425.792 8.079c.158.317.158.793 0 1.267h.158c.317-.474.317-.95.476-1.108z" clip-path="url(#an)" style="fill:#f7d417;fill-opacity:1;fill-rule:nonzero;stroke:none" transform="matrix(1.33333 0 0 -1.33333 893.437 405.065)"/><path d="m0 0-10.297-2.379-2.693-.632 2.218 18.377c.158.791.158 1.899 0 3.168h.158c.476-1.269.951-2.219 1.268-2.692L.95.157Zm-5.861 44.038-19.011-4.434-11.088-82.536 25.346 5.861 1.901 17.901 14.258 3.485 10.138-15.207 25.03 6.02z" clip-path="url(#ao)" style="fill:#0047ba;fill-opacity:1;fill-rule:nonzero;stroke:none" transform="matrix(1.33333 0 0 -1.33333 877.596 326.066)"/><path d="m0 0-.95-.157-10.297-2.378-2.694-.633 2.218 18.377c.159.791.159 1.899 0 3.168h.159c.476-1.269.95-2.218 1.268-2.692z" clip-path="url(#ap)" style="fill:#f7d417;fill-opacity:1;fill-rule:nonzero;stroke:none" transform="matrix(1.33333 0 0 -1.33333 878.863 325.857)"/><path d="M0 0h-1.109l-10.456-.791-2.851-.317 5.069 17.899c.317.793.476 1.903.476 3.17l.158-.159c.316-1.267.634-2.218.792-2.852z" clip-path="url(#aq)" style="fill:#f7d417;fill-opacity:1;fill-rule:nonzero;stroke:none" transform="matrix(1.33333 0 0 -1.33333 1117.333 288.681)"/><path d="M0 0s-10.772 11.723-22.178 12.673c0 0 18.376-15.683 10.931-19.169 0 0-32.159 22.654-40.08 10.139 0 0 29.941-7.446 34.693-17.268 0 0-16-18.693-32.792 1.585 0 0-23.762-4.119-28.673 36.119 0 0-3.802 28.832-13.624 39.445l1.585-19.326s-31.367 6.495-29.149 54.019c.317 6.496-1.584 12.832-4.911 18.536l-55.446 94.099c-5.069 8.554-11.406 16.475-18.693 23.287l-14.574 13.465c-7.129 6.496-15.525 11.565-24.714 14.417-16.316 4.91-41.505 18.375-26.614 51.802 0 0 19.328 31.366-1.425 12.356-6.178-5.544-14.574-7.921-22.653-6.178-17.902 4.119-48.318 15.049-63.526 45.465 0 0-16.792 20.278-25.822 39.288-3.96 8.713-2.851 19.01 3.169 26.455 9.187 11.406 28.198 25.189 65.268 22.812 13.148-.95 25.504-7.129 33.742-17.425 16.158-20.278 42.297-57.505 39.129-82.061-.792-6.336.158-12.831 4.119-17.742l20.278-25.029s-9.506-.635-6.813-6.655c0 0 25.347-28.356 32.159-47.525 0 0-3.486 18.536-10.772 40.397 0 0 38.969-14.891 66.692-87.604 0 0 17.427-52.912 45.15-98.852 0 0 11.722-23.445 40.079-47.525 0 0 51.327-47.208 45.465-64m-228.436 237.625 33.742-37.703s-60.356 30.257-33.742 37.703m-156.04 144.317 14.891-14.258s-16.317 4.752-14.891 14.258m-11.882 85.228-20.752.475s17.901-11.564-20.594-5.228c-3.486.634-6.179-3.009-4.595-6.019 3.961-7.446 7.763-18.535-.316-24.08 0 0-15.842 9.822-27.248 14.416-4.278 1.743-7.604 5.545-8.079 10.139-1.426 11.248-4.911 26.139-10.931-14.574-.634-3.645-4.435-5.862-7.762-4.278-9.03 4.278-23.287 14.733-20.594 38.495 0 0-12.515-13.623-9.189-31.525.792-4.593-2.218-8.871-6.812-9.188l-30.733-2.851c-3.484-.317-6.653 2.218-6.97 5.702-.633 6.655-3.01 16.476-10.931 18.219 0 0-14.099-12.199-20.435 3.168 0 0 15.366 19.01-13.466 5.703 0 0-16.792-4.911-22.654 4.594-1.9 3.01-5.227 4.753-8.395 3.485-8.871-3.327-24.08-10.93-31.209-24.871 0 0-3.168 27.09 23.921 46.733l-16.475 3.327s25.188 19.009 29.783 27.406c0 0-10.139-3.327-10.772-3.327 0 1.901 16.475 41.505 90.455 53.862 4.595.792 9.347-1.585 11.565-5.862 4.752-9.505 14.574-25.188 27.88-28.514 0 0 24.556-38.021 40.397-14.258 0 0 24.079-25.981 37.228-25.189l-21.228 26.773h14.416s17.743-38.654 29.941-49.901c1.901-1.901 4.435-2.694 6.97-2.377l17.426 1.268c3.485.317 6.97-.951 9.504-3.169l17.427-15.683s-7.605-19.643-26.773 7.129M-556.2 374.496c-5.544-5.227-15.05-15.366-18.693-26.297v65.109l11.089 6.02s8.871-11.881 11.248-35.168c.475-3.644-.95-7.129-3.644-9.664m-19.168-132.595c19.802-25.504 17.267-53.703 15.049-65.267-.792-3.961-5.386-5.703-8.713-3.327-9.98 7.287-22.653 28.99-24.237 31.683l23.128-54.97c1.109-2.534 2.535-4.911 3.96-7.288 11.407-17.742 18.693-40.554 21.546-50.851.95-3.644 2.851-6.811 5.227-9.821 10.456-13.308 9.505-21.387 6.97-25.822-2.059-3.486-2.534-7.921-.158-11.248 25.505-35.168 3.327-48.317 3.327-48.317 1.426-28.673-16.317-32.001-16.317-32.001-19.168-15.207-31.683 2.06-31.683 2.06 7.921 16.475 1.425 16.951 1.425 16.951-16.316-25.822-14.732-14.574-14.732-14.574 8.712 29.465-9.189.158-9.189.158-7.762-.793-.316 14.416-.316 14.416-5.228 2.059-11.089-6.179-11.089-6.179-4.278 16.951 9.821 18.693 18.534 18.218 3.169-.158 5.544 2.693 4.752 5.703-4.752 21.862 10.298 33.426 10.298 33.426 14.732 17.585 7.604 30.574 7.604 30.574l-35.803 89.982c-1.266 3.01-2.851 6.177-4.752 8.871-28.673 43.089-29.148 62.257-29.148 63.524-6.337 16.476 2.217 16.159 2.217 16.159 21.545-18.693 35.485 6.812 36.753 9.188-10.455-9.663-30.416-1.267-30.416-1.267-3.327 7.129-19.169 18.851-27.248 24.396-3.168 2.218-5.386 5.703-6.019 9.347-5.07 28.99.792 41.187 6.336 46.257 2.693 2.535 7.288.793 7.604-2.852 2.535-27.247 25.188-29.782 36.752-29.148 4.278.158 8.238-1.901 10.298-5.703zm-100.595 108.832c-8.713 62.734 13.149 93.784 23.762 104.872 2.06 2.06 5.387 1.268 6.654-1.584 2.376-5.544 7.287-5.069 7.287-5.069 6.337 11.089 22.495 7.446 22.495 7.446l-4.752-16.317c1.742-8.555 20.119 6.178 20.119 6.178 0-2.851 3.96-5.545 7.445-7.287 4.436-2.218 7.446-6.337 8.397-11.09 4.435-22.653 3.643-58.297 3.643-58.297-2.534-52.277-30.574-56.871-30.574-56.871-29.941-5.861-29.941 35.644-28.198 56.555.316 2.534-3.169 3.643-4.595 1.425-9.346-14.733-16.475-21.703-21.544-24.871-4.119-2.535-9.505.158-10.139 4.91m54.654 239.051s41.505-2.059 53.545 6.336c0 0 11.881 1.268 3.01-8.554 0 0-11.565-11.089-39.605-10.455 0 0-24.554 1.109-30.099-6.337 0 0-3.01 14.416 13.149 19.01m37.386 7.604h-33.902v18.693c6.655-6.336 33.902-18.693 33.902-18.693m-50.694 89.506s-53.861 41.188-51.96 94.415l-.95 21.703c-.317 7.129-1.268 14.258-3.169 21.071-3.643 14.415-8.079 45.622 17.11 66.217 4.752 3.961 10.613 6.337 16.792 7.128 12.198 1.269 34.693 2.853 45.465-2.85 0 0 21.227 4.912 29.148 13.782 2.06 2.376 5.387 2.852 7.605.632 8.237-8.236 25.98-23.919 44.832-24.868 0 0 5.068-7.447 0-20.912 0 0 26.297 14.097 35.96 10.771 0 0-6.336-11.406-24.555-14.732 0 0 18.219-11.881-10.138-4.119 0 0 11.089-22.494-11.406-32.317 0 0-23.762-8.08-38.02 30.258-2.376 6.495 2.851 13.306 9.663 12.83 6.496-.475 14.099-1.899 20.278-5.7 0 0 4.752 6.81-36.436 18.533 0 0-18.852 4.753-24.871 11.406h-6.812s32.95-32.95 38.812-64.16c.95-5.068-3.01-9.503-8.079-9.503-9.981 0-19.961-2.22 18.851-16.634 0 0 13.148 20.595 35.644 1.11 0 0 40.237-28.991 28.515-37.071-2.06-1.426-1.268-4.594 1.109-5.228 15.524-5.544 45.94-17.108 58.297-29.148 4.594-4.436 9.346-8.713 15.207-11.565 16.001-7.921 46.1-21.545 64.16-22.178 0 0 38.336-.95 58.613 12.99 3.01 2.06 6.337 3.485 9.98 3.485l30.733-.317s-27.723-15.207-23.445-30.416c0 0 48.793-3.01 64.793 7.605-.635-1.902-7.129-17.426-46.1-34.852 0 0 33.584.633 40.08 4.594-.951-1.109-10.139-10.614-44.04-20.436l23.921-1.426s-37.862-20.435-72.714 2.852c-4.594 3.168-9.346 6.02-14.574 7.921-18.06 6.495-63.208 21.069-118.654 23.287 0 0-66.694 3.169-89.663 36.119 0 0-22.179 24.871-43.09 32.317 0 0-4.119 8.079 3.802 8.079 0 0 23.129.317 33.584-6.336 0 0-1.109 15.208-40.079 16.475 0 0-48.792 2.059-78.733 38.337 1.426-2.376 14.099-23.605 11.565-41.03 0 0 2.059-38.178 10.772-11.407 1.425 3.961 6.653 4.912 9.346 1.744l32.318-37.862c2.375-2.852 4.435-6.02 5.861-9.347 3.01-7.604 10.931-23.446 28.039-38.811 3.96-3.486 6.337-8.238 6.337-13.466v-39.129s-35.168 6.495-53.545 23.128c-5.385 5.07-8.079 12.516-7.287 19.802.951 9.03.475 23.921-8.872 37.229m38.813 328.238s-15.842-7.92-13.148 3.646c.157.791 9.346.632 16.949 6.811 0 0 9.981-.159-3.801-10.457m22.495 37.862c.792-5.544 7.921-2.533 7.921-2.533 8.872 10.613 17.426 10.771 17.426 10.771-5.544-11.722-16.951-14.258-16.951-14.258-4.435-1.583-9.188-16.791-9.188-16.791-9.664-.793-1.743 15.683-1.743 15.683-6.178 10.296-17.901-11.564-17.901-11.564-.475 25.029 20.436 18.692 20.436 18.692m31.841.635s26.773 16.949 34.06 0h12.356l6.496-6.496s4.277-10.298 13.465-15.368c0 0 23.446-18.058 2.218-9.344 0 0 18.377-22.181 3.643-16.952 0 0-23.762 17.743-13.782 22.653 0 0-8.237 5.387-12.04 10.458-2.851 3.484-7.128 5.542-11.722 6.018-6.812.793-14.733 3.009-14.099 8.396 0 0-31.683-8.238-20.595.635m94.734-71.922c-8.396-3.485-18.535 1.901-18.535 1.901 6.812 2.218-3.961 14.258-6.178 16.632 9.346-6.018 24.713-18.533 24.713-18.533m-105.981-31.208c9.664 2.851 24.872 0 24.872 0v-6.654c-8.079 3.802-24.872 0-24.872 0zm-14.732-29.626h-8.397c-.95 23.131-9.03 13.943-9.03 13.943-8.554 21.545-5.702 43.723-5.544 42.455 1.268-10.296 17.109-22.494 17.109-22.494l2.376-8.555c14.417 20.753 25.981 22.02 25.981 22.02-24.555-20.437-22.495-47.369-22.495-47.369m54.97 22.972c-3.485 0-13.941 17.901-15.208 20.119 19.802-5.703 15.208-20.119 15.208-20.119m.158 16.317-14.257 17.267v11.723s19.643 6.496 22.02 15.207c0 0-18.219 8.08-27.406-5.701-1.109-1.585-1.585-3.643-1.585-5.704v-19.009s-7.128-1.743-13.306 2.059c-1.743.949-4.119.474-5.387-1.267-4.119-5.07-12.197-14.416-18.376-16 0 0-4.277 18.375-19.486 27.247v17.267c0 3.011.952 5.703 2.853 7.921 4.435 5.068 12.989 14.417 21.227 19.17 3.802 2.216 8.713 1.899 12.04-.952 6.653-5.861 21.544-14.731 41.346-.792 0 0 7.921 5.704 13.466-3.009l-1.743-39.922c-.158-2.85-.951-5.387-2.693-7.604-3.168-4.594-8.554-12.832-8.713-17.901m7.921-27.723v24.078c6.02 7.764 7.604-9.82 7.604-9.82-.951-12.832-7.604-14.258-7.604-14.258m43.406-71.128s46.416-6.813 58.297-.793c0 0 32.476 3.486 51.17-17.901 0 0 4.91 12.039-31.526 24.396a65 65 0 0 1-20.436 3.326h-71.604c-3.485 0-5.07 4.278-2.534 6.496 11.405 10.139 37.227 29.307 74.297 34.694 0 0 49.743 8.712 65.901 0 0 0 49.584-8.079 77.149-3.169 0 0 16.317-.474 27.565-9.505 5.068-3.96 10.772-6.811 16.95-7.762 11.565-1.903 28.832-6.178 35.802-15.366 0 0 1.585 19.644-32.95 25.188-5.386.791-10.773 2.694-15.367 5.544-7.921 5.07-24.554 12.198-53.862 9.348-2.851-.159-5.703-.317-8.554-.159-15.366.791-65.109 3.961-68.911 10.296 0 0 13.624 21.861 36.594 9.665 0 0 19.485 1.582 9.822 7.128h-17.109c0 .634.476 9.029 24.396 11.564 0 0 7.446 16.952 47.05 18.534 0 0 56.237 14.101 69.386 1.268 0 0 6.495-6.811 9.505-23.287 0 0-28.99 1.741-31.366-6.18 0 0 41.029-3.643 46.574-12.514l28.198-41.663c2.377-3.485.634-8.238-3.326-9.663-3.961-1.584-6.654-3.802-.159-6.813 0 0 30.1 0 15.525-47.367 0 0-16 .476-21.227 25.031 0 0-12.04-10.456 4.118-32.159 3.009-4.119 5.386-8.872 6.019-14.099 1.902-16.475-1.425-50.852-62.89-50.535-3.01 0-4.278 3.643-1.901 5.545 10.139 8.079 24.871 25.821 13.94 57.347 0 0-9.347 43.565-56.237 43.565 0 0-35.803-.476-53.704-11.725 0 0 68.119 9.665 77.466-4.751 0 0 12.198-7.287 21.703-32.475 3.802-10.614 2.217-22.495-4.277-31.525-8.397-11.882-23.13-26.298-45.942-28.674 0 0-23.762 4.911-31.84-5.702 0 0 57.821-9.03 83.643-1.268v-6.496s-26.455-10.93-24.554-15.207l27.564 7.287v-12.039s-18.852-.793-19.169-8.397c0 0-15.524-22.812-48.791-21.386-3.802.159-5.704 4.753-3.01 7.445 5.702 5.703 12.039 14.1 8.079 21.07 0 0-48.793 8.554-59.09-6.653 0 0-40.713-19.802-86.02 3.643-5.228 2.534-9.822 6.179-14.099 9.98-6.336 5.386-16.475 13.941-25.98 20.594-6.178 4.278-13.149 7.288-20.595 8.555-11.405 1.901-29.624 6.654-26.297 16.158l-21.385 32.159h39.604s-9.823 16.792 18.851 28.831c-3.644-.634-32.317-6.81-49.109-17.742 0 0-30.416-10.456-30.099 3.486 0 0 38.811 51.644 68.752 44.832m297.031-152.714c9.981 13.941 14.574 0 14.574 0zm0-15.367c-3.168 0-5.703 1.743-5.703 3.96 0 2.218 2.535 4.119 5.703 4.119s5.703-1.901 5.703-4.119-2.534-3.96-5.703-3.96m-3.802-11.564s-11.564-3.169-9.347 2.059c4.595 10.773 10.931 4.278 10.931 4.278s3.327-3.961-1.584-6.337m-30.732-2.693c-3.01-3.01-5.229-6.812-6.654-10.772-3.168-9.03-11.722-26.139-33.109-36.437 0 0 4.436 8.555-4.911 9.03 0 0 25.03 11.881 28.356 25.347l-10.614 7.604s11.407 4.911 12.991 15.367c1.267 7.604 5.861 14.257 12.673 17.584 2.851 1.425 5.861 2.693 8.713 3.643 5.545 1.743 9.664 6.179 11.248 11.723 2.692 9.03 9.663 22.337 27.405 30.099 0 0-.157-11.406-22.653-47.366-2.693-4.278-5.861-8.397-9.505-11.881zm-132.912-63.684c-26.455-22.336-95.525-33.901-95.525-33.901 36.436-1.267 44.674-4.277 44.674-4.277-32.634-18.377-49.427-12.357-56.396-7.446-3.169 2.218-6.813 3.802-10.774 3.802l-38.811.95c-5.387.159-10.456 2.852-13.625 7.288-11.881 16.792-18.851 17.268-18.851 17.268 11.724-42.298 49.268-38.812 49.268-38.812-87.446-16.159-83.327 60.99-83.327 60.99l18.376-20.436c-25.188 38.654-11.406 44.198-11.406 44.198 4.277 36.911 11.247 31.366 11.247 31.366-3.167-67.327 53.229-71.762 53.229-71.762 8.871-12.99 22.812-13.782 22.812-13.782 36.594-3.01 42.93 18.534 42.93 18.534-11.881 2.693-25.98-4.277-25.98-4.277-28.831-19.802-36.436 6.337-36.436 6.337-23.921 2.218-33.584 16.951-37.386 26.772-2.377 6.02.633 13.308 6.653 15.683 25.03 9.822 85.863-3.01 85.863-3.01 45.148-3.326 78.891-18.693 92.514-25.822 3.486-1.9 4.119-6.97.951-9.663m-73.03-87.129c16.475 14.891 36.119-13.623 36.119-13.623-6.495-2.536-36.119 13.623-36.119 13.623m59.248-67.327c-28.515 1.109-33.109 25.505-33.109 25.505 3.485-3.01 16.475-9.346 16.475-9.346 17.584-6.496 16.634-16.159 16.634-16.159m0 29.624-26.931 11.881c-12.356-11.881-30.257-3.643-30.257-3.643 5.544-5.228 7.128-15.05 7.128-15.05-22.812 2.534-24.396 32.634-24.396 32.634 23.762-22.02 53.862-6.179 53.862-6.179 25.505-12.831 20.594-19.643 20.594-19.643M13.941 5.703c-3.485 7.762-11.564 19.802-28.99 38.812l-52.753 54.178c-3.485 3.643-5.703 8.08-6.653 12.99l-1.426 7.763c-.792 4.593-2.693 8.554-5.544 12.04-7.921 9.346-24.713 32.475-34.535 70.178 0 0-13.149 47.049-45.466 82.534-5.545 6.02-11.881 11.09-19.01 14.734-11.406 5.544-34.06 21.703-43.406 65.426-2.376 10.614-5.703 20.91-10.93 30.574-8.08 14.416-22.812 35.96-49.269 62.099 0 0 6.971 5.386-12.356 15.842 0 0 26.455 5.386-6.178 19.169 0 0 20.119 15.999-30.1 23.762 0 0-6.336 10.297-12.831 16.792-2.218 2.06-1.426 5.703 1.426 6.654 5.702 2.059 13.307 6.494 20.278 15.208 7.762 9.663 18.217 16.633 30.098 19.326 19.327 4.594 49.11 16.318 73.98 46.733 0 0 11.09 5.545 18.377 20.753 3.326 6.653 8.08 12.514 14.416 16.633 8.238 5.228 21.228 16.792 39.288 41.347 4.118 5.545 6.494 12.198 6.97 19.169l1.108 13.465c.634 8.555 3.803 16.792 9.347 23.287 9.347 11.406 23.129 32.793 19.01 58.771 0 0 18.535 16.635-10.456 62.417 0 0-27.406 62.576-62.891 103.921-4.277 5.07-10.772 7.764-17.584 7.764-23.605.156-80.317-1.742-102.496-19.802-3.802-3.011-8.395-4.753-12.99-6.179-7.445-2.218-17.584-6.02-23.128-11.564 0 0-16.318-9.506-26.139-17.744-5.545-4.752-12.515-7.287-19.802-7.604-13.308-.791-33.743-3.485-45.624-12.672-2.693-1.901-5.386-3.643-8.713-4.436-9.663-2.06-31.209-7.604-42.139-17.109-5.069-4.277-13.148-2.376-15.366 3.802-1.584 4.595-2.535 11.882-1.584 23.129 0 0 8.713 7.762 10.772 25.98l10.138 13.465s9.03-31.683 24.871-18.851v19.961c0 5.544 3.328 10.613 8.556 12.516 7.762 2.533 15.841 8.711.158 22.969-2.535 2.216-3.01 5.703-2.218 8.872 1.742 6.653.633 19.485-22.02 36.118-18.852 13.782-27.09 21.861-30.733 26.298-2.218 2.85-5.861 4.119-9.188 3.167-9.188-2.216-24.872-4.277-22.654 7.287 0 0-26.614-2.692-31.049-15.208 0 0-43.407 9.031-43.248-27.405 0 0-21.862-19.485-3.326-40.08l-15.842-1.267s2.851-17.267 24.713-28.514c3.96-2.061 6.02-6.339 5.861-10.773-.158-7.921-.158-20.119 1.584-28.198.951-4.119-1.425-8.238-5.544-9.347-5.228-1.585-11.723-3.801-15.842-5.863-3.802-1.899-7.762-2.85-11.881-2.216-19.169 2.533-67.961 4.278-77.783-43.564 0 0-5.861-25.031 3.168-52.437 2.377-7.128 3.169-14.574 3.169-22.019-.317-22.654 5.544-72.873 55.446-112.16 3.327-2.534 5.385-6.494 5.385-10.613-.157-11.881.635-36.753 9.189-49.11 0 0 1.267-6.177.95-12.356 0-5.387-3.326-10.455-8.079-13.307l-19.644-11.564 7.763-8.08c4.277-4.594 4.753-11.564 1.109-16.633-4.911-6.971-11.247-16.951-13.782-25.822-1.743-5.703-4.277-11.248-8.555-15.209-10.772-9.979-27.089-27.723-7.446-27.564 0 0-15.683-24.237-6.97-42.297 2.535-5.069 3.803-10.772 2.059-16.316-4.435-15.05-11.247-46.892-3.167-85.387 1.425-6.97 2.693-13.782 3.009-20.753.634-14.257 2.852-41.347 10.456-60.991 0 0 1.425-68.436 54.019-134.178 0 0 24.239-29.941 24.239-70.495 0 0 8.395-26.614-32.159-68.754-.792-.95-1.743-1.901-2.693-2.851 5.703-6.653 11.564-13.148 17.742-19.96l.635-.475.157-.159c.793-.317 4.119-1.901 8.872-3.96 9.505-4.278 24.555-9.981 36.752-11.247 4.911-.476 9.665.316 14.258 2.058 12.356 4.753 38.495 17.585 28.515 38.654 0 0 22.653 11.565 4.119 46.258-2.851 5.386-4.119 11.406-4.119 17.584v7.129c0 5.861-1.584 11.723-4.911 16.634-5.861 8.554-15.208 24.713-18.376 44.197 0 0-14.099 31.05-5.703 69.387 0 0 3.168 36.436-22.654 66.852-5.544 6.495-8.237 15.049-8.237 23.604.158 21.703 6.812 62.575 46.732 103.763 0 0 14.733 20.594 23.129 36.435 2.377 4.278 7.129 6.337 12.04 5.228 3.643-.95 7.921-1.267 11.723.159 3.168 1.109 6.494.633 9.03-1.426 13.306-11.564 52.435-43.881 88.238-59.406 4.594-2.06 9.03-4.277 13.306-6.971 12.516-8.395 38.654-27.723 64.476-60.198 1.901-2.218 3.802-4.435 6.02-6.337 7.446-6.812 25.663-23.128 41.346-32.158 5.862-3.327 9.664-8.713 10.931-15.367 3.01-14.89 14.733-43.247 60.515-70.336 0 0 33.426-21.387 41.347-54.338.634-2.375 1.426-4.593 2.852-6.653l3.643-5.861c2.852-4.435 4.753-9.505 5.386-14.891.95-10.773 5.862-31.842 26.931-48.317 7.446-5.861 13.624-12.99 18.06-21.387L-83.169.792C-78.574-7.921-72.238-15.526-64-21.07c11.089-7.446 27.881-14.416 47.366-7.604 3.169 1.109 6.496 2.693 9.981 4.594l.158.159C.951-15.842 8.238-7.446 15.525 1.108v.159c-.317 1.267-.95 2.851-1.584 4.436" clip-path="url(#ar)" style="fill:#0047ba;fill-opacity:1;fill-rule:nonzero;stroke:none" transform="matrix(1.33333 0 0 -1.33333 1748.675 1885.097)"/><path d="M0 0c1.426-28.673-16.316-32-16.316-32C-35.485-47.208-48-29.941-48-29.941c7.921 16.475 1.426 16.951 1.426 16.951-16.317-25.822-14.733-14.574-14.733-14.574 8.713 29.465-9.189.158-9.189.158-7.762-.793-.316 14.416-.316 14.416-5.228 2.059-11.089-6.179-11.089-6.179C-86.179-2.218-72.079-.476-63.367-.951c3.169-.158 5.545 2.693 4.753 5.703-4.753 21.862 10.297 33.426 10.297 33.426 14.733 17.585 7.604 30.574 7.604 30.574l-35.802 89.982c-1.267 3.01-2.852 6.177-4.753 8.871-28.673 43.089-29.148 62.258-29.148 63.524-6.337 16.476 2.217 16.159 2.217 16.159 21.546-18.693 35.485 6.812 36.753 9.188-10.455-9.663-30.416-1.267-30.416-1.267-3.327 7.129-19.168 18.851-27.248 24.396-3.167 2.218-5.385 5.703-6.019 9.347-5.069 28.99.792 41.188 6.336 46.257 2.693 2.535 7.288.793 7.604-2.851 2.535-27.248 25.189-29.783 36.753-29.149 4.277.158 8.238-1.9 10.297-5.703l28.04-52.278c19.802-25.504 17.267-53.703 15.049-65.267-.792-3.96-5.386-5.703-8.713-3.327-9.98 7.287-22.653 28.99-24.237 31.683l23.128-54.97c1.109-2.534 2.536-4.911 3.961-7.287 11.406-17.743 18.693-40.555 21.545-50.852.951-3.644 2.851-6.811 5.227-9.821C.317 72.079-.633 64-3.169 59.565c-2.059-3.486-2.534-7.921-.158-11.248C22.179 13.149 0 0 0 0" clip-path="url(#as)" style="fill:#f7d417;fill-opacity:1;fill-rule:nonzero;stroke:none" transform="matrix(1.33333 0 0 -1.33333 1042.983 1889.533)"/><path d="M0 0c.475-3.644-.95-7.129-3.644-9.664-5.544-5.227-15.05-15.366-18.693-26.297v65.109l11.089 6.02S-2.377 23.287 0 0" clip-path="url(#at)" style="fill:#f7d417;fill-opacity:1;fill-rule:nonzero;stroke:none" transform="matrix(1.33333 0 0 -1.33333 1011.934 1372.883)"/><path d="M0 0c-2.534-52.277-30.574-56.871-30.574-56.871-29.941-5.861-29.941 35.644-28.198 56.555.316 2.534-3.168 3.643-4.595 1.425-9.346-14.733-16.475-21.703-21.544-24.872-4.119-2.534-9.505.159-10.139 4.911-8.713 62.734 13.149 93.784 23.763 104.872 2.059 2.06 5.386 1.268 6.653-1.584 2.376-5.544 7.287-5.069 7.287-5.069 6.337 11.089 22.495 7.446 22.495 7.446l-4.752-16.318c1.742-8.554 20.119 6.179 20.119 6.179 0-2.851 3.96-5.545 7.445-7.288 4.436-2.218 7.446-6.336 8.397-11.089C.792 35.644 0 0 0 0" clip-path="url(#au)" style="fill:#f7d417;fill-opacity:1;fill-rule:nonzero;stroke:none" transform="matrix(1.33333 0 0 -1.33333 974.124 1392.316)"/><path d="M0 0s-7.605-19.644-26.772 7.129l-20.753.475S-29.624-3.96-68.119 2.376c-3.486.634-6.178-3.009-4.595-6.019 3.961-7.446 7.763-18.536-.316-24.08 0 0-15.841 9.822-27.248 14.416-4.277 1.743-7.604 5.545-8.079 10.138-1.426 11.248-4.911 26.14-10.931-14.574-.633-3.644-4.435-5.861-7.762-4.277-9.03 4.277-23.287 14.733-20.594 38.495 0 0-12.515-13.624-9.189-31.525.792-4.594-2.218-8.871-6.812-9.188l-30.732-2.852c-3.485-.316-6.654 2.218-6.971 5.703-.633 6.654-3.01 16.476-10.931 18.218 0 0-14.099-12.198-20.435 3.169 0 0 15.366 19.01-13.466 5.703 0 0-16.792-4.911-22.653 4.594-1.901 3.009-5.227 4.753-8.396 3.485-8.871-3.327-24.08-10.931-31.208-24.871 0 0-3.169 27.089 23.921 46.733l-16.475 3.327s25.187 19.009 29.782 27.406c0 0-10.139-3.328-10.772-3.328 0 1.901 16.475 41.506 90.455 53.862 4.595.792 9.347-1.584 11.565-5.861 4.752-9.505 14.574-25.189 27.881-28.515 0 0 24.555-38.02 40.397-14.258 0 0 24.078-25.98 37.227-25.188l-21.228 26.772h14.416s17.743-38.653 29.941-49.9c1.901-1.901 4.435-2.694 6.971-2.377l17.425 1.268c3.485.317 6.97-.951 9.505-3.169z" clip-path="url(#av)" style="fill:#f7d417;fill-opacity:1;fill-rule:nonzero;stroke:none" transform="matrix(1.33333 0 0 -1.33333 1255.895 1271.708)"/><path d="M0 0c-28.515 1.109-33.109 25.505-33.109 25.505 3.485-3.01 16.475-9.346 16.475-9.346C.95 9.663 0 0 0 0" clip-path="url(#aw)" style="fill:#f7d417;fill-opacity:1;fill-rule:nonzero;stroke:none" transform="matrix(1.33333 0 0 -1.33333 1288.423 1270.652)"/><path d="M0 0c-6.495-2.535-36.118 13.624-36.118 13.624C-19.643 28.515 0 0 0 0" clip-path="url(#ax)" style="fill:#f7d417;fill-opacity:1;fill-rule:nonzero;stroke:none" transform="matrix(1.33333 0 0 -1.33333 1257.584 1199.048)"/><path d="m0 0-26.931 11.881C-39.287 0-57.188 8.238-57.188 8.238c5.544-5.228 7.129-15.05 7.129-15.05-22.812 2.535-24.397 32.634-24.397 32.634 23.763-22.02 53.862-6.178 53.862-6.178C4.911 6.812 0 0 0 0" clip-path="url(#ay)" style="fill:#f7d417;fill-opacity:1;fill-rule:nonzero;stroke:none" transform="matrix(1.33333 0 0 -1.33333 1288.423 1231.154)"/><path d="M0 0h-33.901v18.693C-27.247 12.357 0 0 0 0" clip-path="url(#az)" style="fill:#f7d417;fill-opacity:1;fill-rule:nonzero;stroke:none" transform="matrix(1.33333 0 0 -1.33333 970.111 1088.58)"/><path d="M0 0s-11.564-11.089-39.604-10.455c0 0-24.555 1.109-30.1-6.337 0 0-3.01 14.415 13.149 19.01 0 0 41.505-2.059 53.545 6.336 0 0 11.881 1.268 3.01-8.554" clip-path="url(#aA)" style="fill:#f7d417;fill-opacity:1;fill-rule:nonzero;stroke:none" transform="matrix(1.33333 0 0 -1.33333 995.67 1101.675)"/><path d="M0 0c-26.455-22.336-95.525-33.901-95.525-33.901 36.436-1.267 44.674-4.277 44.674-4.277-32.634-18.377-49.427-12.357-56.396-7.446-3.169 2.218-6.813 3.802-10.774 3.802l-38.811.95c-5.386.159-10.456 2.852-13.624 7.288-11.882 16.792-18.852 17.268-18.852 17.268 11.724-42.298 49.268-38.813 49.268-38.813-87.446-16.158-83.327 60.99-83.327 60.99l18.376-20.435c-25.188 38.654-11.406 44.198-11.406 44.198 4.277 36.911 11.247 31.366 11.247 31.366-3.167-67.327 53.229-71.762 53.229-71.762 8.871-12.991 22.812-13.782 22.812-13.782 36.594-3.01 42.93 18.534 42.93 18.534-11.881 2.693-25.98-4.277-25.98-4.277C-140.99-30.1-148.595-3.96-148.595-3.96c-23.921 2.218-33.584 16.95-37.386 26.772-2.376 6.02.633 13.307 6.653 15.683 25.03 9.822 85.863-3.01 85.863-3.01C-48.317 32.159-14.574 16.792-.95 9.663 2.535 7.762 3.169 2.693 0 0" clip-path="url(#aB)" style="fill:#f7d417;fill-opacity:1;fill-rule:nonzero;stroke:none" transform="matrix(1.33333 0 0 -1.33333 1306.8 1064.71)"/><path d="M0 0s33.584.633 40.08 4.594C39.129 3.485 29.941-6.02-3.96-15.842l23.921-1.426s-37.862-20.435-72.714 2.851c-4.594 3.169-9.346 6.02-14.574 7.921-18.06 6.496-63.208 21.07-118.654 23.288 0 0-66.694 3.169-89.663 36.119 0 0-22.179 24.871-43.09 32.317 0 0-4.119 8.079 3.802 8.079 0 0 23.129.317 33.584-6.337 0 0-1.109 15.209-40.079 16.475 0 0-48.792 2.06-78.733 38.338 1.426-2.377 14.099-23.605 11.565-41.03 0 0 2.059-38.178 10.772-11.407 1.425 3.961 6.653 4.912 9.346 1.743l32.318-37.861c2.375-2.852 4.435-6.02 5.861-9.347 3.01-7.604 10.931-23.446 28.039-38.812 3.96-3.485 6.337-8.238 6.337-13.466v-39.128s-35.168 6.495-53.545 23.128c-5.385 5.07-8.079 12.516-7.287 19.802.951 9.03.475 23.921-8.872 37.229 0 0-53.861 41.188-51.96 94.415l-.95 21.703c-.317 7.128-1.268 14.258-3.169 21.071-3.643 14.415-8.079 45.622 17.109 66.217 4.753 3.96 10.614 6.337 16.793 7.128 12.198 1.269 34.693 2.852 45.465-2.85 0 0 21.227 4.911 29.148 13.782 2.06 2.376 5.387 2.852 7.605.632 8.237-8.236 25.98-23.919 44.832-24.868 0 0 5.068-7.448 0-20.913 0 0 26.297 14.098 35.96 10.772 0 0-6.336-11.406-24.555-14.732 0 0 18.219-11.881-10.138-4.119 0 0 11.089-22.494-11.406-32.318 0 0-23.762-8.079-38.02 30.258-2.376 6.496 2.851 13.307 9.663 12.831 6.496-.476 14.099-1.899 20.278-5.701 0 0 4.752 6.811-36.436 18.534 0 0-18.852 4.753-24.871 11.405h-6.812s32.95-32.949 38.812-64.159c.95-5.069-3.01-9.503-8.079-9.503-9.981 0-19.961-2.22 18.851-16.634 0 0 13.148 20.595 35.644 1.11 0 0 40.237-28.992 28.515-37.071-2.06-1.426-1.268-4.594 1.109-5.228 15.524-5.544 45.94-17.108 58.297-29.148 4.594-4.436 9.346-8.713 15.207-11.565 16-7.921 46.1-21.545 64.16-22.178 0 0 38.336-.95 58.613 12.99 3.01 2.06 6.337 3.485 9.98 3.485l30.733-.317s-27.723-15.208-23.445-30.416c0 0 48.792-3.01 64.793 7.605C45.465 32.95 38.971 17.425 0 0" clip-path="url(#aC)" style="fill:#f7d417;fill-opacity:1;fill-rule:nonzero;stroke:none" transform="matrix(1.33333 0 0 -1.33333 1390.02 1012.75)"/><path d="M0 0h-8.397c-.95 23.13-9.029 13.943-9.029 13.943-8.555 21.544-5.703 43.723-5.545 42.454 1.268-10.295 17.11-22.494 17.11-22.494l2.375-8.555c14.417 20.754 25.981 22.02 25.981 22.02C-2.06 26.932 0 0 0 0" clip-path="url(#aD)" style="fill:#f7d417;fill-opacity:1;fill-rule:nonzero;stroke:none" transform="matrix(1.33333 0 0 -1.33333 992.08 657.265)"/><path d="M0 0c8.397 11.249 31.209-9.029 31.209-9.029C1.901-24.395 0 0 0 0m63.208 24.238c-19.802-13.939-34.693-5.068-41.346.793-3.328 2.85-8.238 3.168-12.04.952C1.584 21.229-6.97 11.881-11.406 6.813c-1.9-2.218-2.852-4.91-2.852-7.921v-17.267C.95-27.247 5.228-45.622 5.228-45.622c6.178 1.584 14.257 10.93 18.376 16 1.268 1.741 3.644 2.216 5.386 1.267 6.179-3.802 13.307-2.06 13.307-2.06v19.009c0 2.062.476 4.12 1.585 5.705C53.069 8.079 71.287 0 71.287 0c-2.376-8.712-22.02-15.207-22.02-15.207V-26.93l14.258-17.267c.159 5.069 5.544 13.307 8.713 17.901 1.742 2.216 2.535 4.754 2.693 7.604l1.743 39.921c-5.545 8.714-13.466 3.009-13.466 3.009" clip-path="url(#aE)" style="fill:#f7d417;fill-opacity:1;fill-rule:nonzero;stroke:none" transform="matrix(1.33333 0 0 -1.33333 980.884 545.951)"/><path d="M0 0c-29.308-15.366-31.209 9.029-31.209 9.029C-22.812 20.278 0 0 0 0" clip-path="url(#aF)" style="fill:#0047ba;fill-opacity:1;fill-rule:nonzero;stroke:none" transform="matrix(1.33333 0 0 -1.33333 1022.495 557.99)"/><path d="M0 0v-6.654c-8.079 3.802-24.872 0-24.872 0V0C-15.208 2.85 0 0 0 0" clip-path="url(#aG)" style="fill:#f7d417;fill-opacity:1;fill-rule:nonzero;stroke:none" transform="matrix(1.33333 0 0 -1.33333 1044.884 617.764)"/><path d="M0 0c-3.485 0-13.941 17.901-15.208 20.119C4.594 14.417 0 0 0 0" clip-path="url(#aH)" style="fill:#f7d417;fill-opacity:1;fill-rule:nonzero;stroke:none" transform="matrix(1.33333 0 0 -1.33333 1065.372 626.637)"/><path d="M0 0c-.95-12.833-7.604-14.258-7.604-14.258V9.82C-1.584 17.584 0 0 0 0" clip-path="url(#aI)" style="fill:#f7d417;fill-opacity:1;fill-rule:nonzero;stroke:none" transform="matrix(1.33333 0 0 -1.33333 1086.283 622.833)"/><path d="M0 0c-8.397-3.485-18.535 1.901-18.535 1.901 6.812 2.218-3.961 14.258-6.178 16.633C-15.367 12.516 0 0 0 0" clip-path="url(#aJ)" style="fill:#f7d417;fill-opacity:1;fill-rule:nonzero;stroke:none" transform="matrix(1.33333 0 0 -1.33333 1153.03 576.154)"/><path d="M0 0s-23.763 17.743-13.782 22.652c0 0-8.237 5.388-12.04 10.458-2.851 3.485-7.128 5.543-11.723 6.018-6.811.793-14.732 3.009-14.098 8.397 0 0-31.683-8.238-20.595.634 0 0 26.773 16.95 34.06 0h12.356l6.496-6.495s4.277-10.298 13.465-15.368c0 0 23.446-18.058 2.218-9.344 0 0 18.377-22.181 3.643-16.952" clip-path="url(#aK)" style="fill:#f7d417;fill-opacity:1;fill-rule:nonzero;stroke:none" transform="matrix(1.33333 0 0 -1.33333 1123.036 544.471)"/><path d="M0 0s-15.842-7.921-13.148 3.645c.158.791 9.346.633 16.95 6.811 0 0 9.98-.159-3.802-10.456" clip-path="url(#aL)" style="fill:#f7d417;fill-opacity:1;fill-rule:nonzero;stroke:none" transform="matrix(1.33333 0 0 -1.33333 954.27 531.587)"/><path d="M0 0c-5.544-11.723-16.951-14.258-16.951-14.258-4.435-1.584-9.188-16.791-9.188-16.791-9.663-.793-1.742 15.683-1.742 15.683C-34.06-5.07-45.783-26.93-45.783-26.93-46.257-1.901-25.346-8.238-25.346-8.238c.792-5.544 7.921-2.533 7.921-2.533C-8.554-.159 0 0 0 0" clip-path="url(#aM)" style="fill:#f7d417;fill-opacity:1;fill-rule:nonzero;stroke:none" transform="matrix(1.33333 0 0 -1.33333 1018.059 470.12)"/><path d="M0 0s-12.04-10.456 4.119-32.159c3.009-4.119 5.386-8.872 6.019-14.099C12.04-62.733 8.713-97.11-52.753-96.793c-3.01 0-4.278 3.643-1.901 5.545 10.139 8.078 24.872 25.821 13.941 57.347 0 0-9.347 43.564-56.238 43.564 0 0-35.802-.475-53.703-11.724 0 0 68.119 9.665 77.466-4.752 0 0 12.197-7.286 21.703-32.474 3.801-10.615 2.217-22.496-4.278-31.526-8.397-11.881-23.129-26.297-45.941-28.673 0 0-23.763 4.911-31.841-5.703 0 0 57.821-9.03 83.643-1.267v-6.496s-26.455-10.931-24.554-15.207l27.564 7.286v-12.039s-18.851-.793-19.168-8.396c0 0-15.525-22.812-48.792-21.386-3.802.158-5.704 4.752-3.01 7.445 5.703 5.703 12.04 14.099 8.079 21.07 0 0-48.792 8.554-59.09-6.654 0 0-40.713-19.802-86.02 3.644-5.228 2.534-9.821 6.178-14.099 9.98-6.336 5.386-16.475 13.941-25.98 20.594-6.178 4.278-13.148 7.287-20.594 8.554-11.406 1.901-29.624 6.654-26.297 16.159l-21.386 32.159h39.604s-9.823 16.791 18.852 28.831c-3.645-.634-32.318-6.811-49.11-17.743 0 0-30.416-10.456-30.099 3.487 0 0 38.812 51.644 68.753 44.831 0 0 46.416-6.813 58.297-.793 0 0 32.475 3.487 51.169-17.901 0 0 4.911 12.04-31.526 24.397a65 65 0 0 1-20.435 3.326h-71.605c-3.484 0-5.069 4.278-2.534 6.496 11.406 10.139 37.228 29.306 74.297 34.694 0 0 49.744 8.712 65.901 0 0 0 49.585-8.08 77.149-3.17 0 0 16.317-.473 27.565-9.504 5.069-3.961 10.773-6.811 16.95-7.762 11.565-1.903 28.832-6.179 35.802-15.366 0 0 1.585 19.643-32.949 25.187-5.387.791-10.774 2.694-15.367 5.545-7.921 5.07-24.555 12.198-53.862 9.347-2.852-.158-5.703-.317-8.555-.158-15.366.791-65.109 3.96-68.91 10.295 0 0 13.623 21.862 36.594 9.666 0 0 19.485 1.581 9.822 7.127h-17.11c0 .635.476 9.029 24.396 11.565 0 0 7.446 16.951 47.05 18.533 0 0 56.238 14.101 69.387 1.269 0 0 6.494-6.811 9.504-23.287 0 0-28.989 1.74-31.366-6.18 0 0 41.03-3.644 46.575-12.514L9.187 38.811c2.377-3.484.635-8.238-3.326-9.663-3.96-1.584-6.654-3.802-.158-6.813 0 0 30.099 0 15.524-47.366 0 0-16 .476-21.227 25.031" clip-path="url(#aN)" style="fill:#f7d417;fill-opacity:1;fill-rule:nonzero;stroke:none" transform="matrix(1.33333 0 0 -1.33333 1554.352 749.567)"/><path d="M0 0s-.158-11.406-22.653-47.366c-2.693-4.278-5.862-8.397-9.505-11.882l-13.941-13.94c-3.01-3.01-5.228-6.812-6.653-10.773-3.169-9.029-11.723-26.139-33.109-36.436 0 0 4.436 8.555-4.911 9.03 0 0 25.03 11.881 28.356 25.347l-10.614 7.604s11.407 4.911 12.991 15.367c1.267 7.603 5.861 14.256 12.673 17.584 2.851 1.425 5.861 2.692 8.712 3.643 5.545 1.742 9.664 6.178 11.248 11.723C-24.713-21.07-17.743-7.762 0 0" clip-path="url(#aO)" style="fill:#f7d417;fill-opacity:1;fill-rule:nonzero;stroke:none" transform="matrix(1.33333 0 0 -1.33333 1545.48 882.215)"/><path d="M0 0c0-2.217-2.534-3.96-5.703-3.96-3.168 0-5.703 1.743-5.703 3.96 0 2.218 2.535 4.119 5.703 4.119S0 2.218 0 0" clip-path="url(#aP)" style="fill:#f7d417;fill-opacity:1;fill-rule:nonzero;stroke:none" transform="matrix(1.33333 0 0 -1.33333 1537.665 955.51)"/><path d="M0 0h-14.574C-4.594 13.941 0 0 0 0" clip-path="url(#aQ)" style="fill:#f7d417;fill-opacity:1;fill-rule:nonzero;stroke:none" transform="matrix(1.33333 0 0 -1.33333 1549.493 940.3)"/><path d="M0 0s-11.564-3.169-9.347 2.059C-4.752 12.832 1.584 6.337 1.584 6.337S4.911 2.377 0 0" clip-path="url(#aR)" style="fill:#f7d417;fill-opacity:1;fill-rule:nonzero;stroke:none" transform="matrix(1.33333 0 0 -1.33333 1524.992 976.209)"/><path d="M0 0s-60.357 30.257-33.743 37.703Z" clip-path="url(#aS)" style="fill:#f7d417;fill-opacity:1;fill-rule:nonzero;stroke:none" transform="matrix(1.33333 0 0 -1.33333 1489.084 1618.534)"/><path d="M0 0s-16.317 4.752-14.891 14.258Z" clip-path="url(#aT)" style="fill:#f7d417;fill-opacity:1;fill-rule:nonzero;stroke:none" transform="matrix(1.33333 0 0 -1.33333 1255.895 1394.851)"/><path d="M0 0s-10.772 11.723-22.178 12.673c0 0 18.376-15.683 10.931-19.169 0 0-32.159 22.654-40.08 10.139 0 0 29.941-7.446 34.693-17.268 0 0-16-18.693-32.792 1.585 0 0-23.762-4.119-28.673 36.119 0 0-3.802 28.832-13.624 39.445l1.585-19.326s-31.367 6.495-29.149 54.019c.317 6.496-1.584 12.832-4.911 18.536l-55.446 94.099c-5.069 8.554-11.406 16.475-18.693 23.287l-14.574 13.465c-7.129 6.496-15.525 11.565-24.714 14.417-16.316 4.91-41.505 18.375-26.614 51.802 0 0 19.328 31.366-1.425 12.356-6.178-5.544-14.574-7.921-22.653-6.178-17.902 4.119-48.318 15.049-63.526 45.465 0 0-16.792 20.278-25.822 39.288-3.96 8.713-2.851 19.01 3.169 26.455 9.187 11.406 28.198 25.189 65.268 22.812 13.148-.95 25.504-7.129 33.742-17.425 16.158-20.278 42.297-57.505 39.129-82.061-.792-6.336.158-12.831 4.119-17.742l20.278-25.029s-9.506-.635-6.813-6.655c0 0 25.347-28.356 32.159-47.525 0 0-3.486 18.536-10.772 40.397 0 0 38.969-14.891 66.692-87.604 0 0 17.427-52.912 45.15-98.852 0 0 11.722-23.445 40.079-47.525 0 0 51.327-47.208 45.465-64" clip-path="url(#aU)" style="fill:#f7d417;fill-opacity:1;fill-rule:nonzero;stroke:none" transform="matrix(1.33333 0 0 -1.33333 1748.675 1885.097)"/><path d="M0 0a3.6 3.6 0 0 0-3.01-1.586v12.674c1.109 0 2.06-.634 2.851-1.266C.95 8.555 1.584 6.969 1.584 5.07 1.584 3.009 1.109 1.267 0 0m-10.297-1.744c-1.268 0-2.377.634-3.169 1.427-1.109 1.11-1.742 2.85-1.742 4.912-.159 2.057.475 3.643 1.583 4.91a5.5 5.5 0 0 0 3.328 1.583zm16.95 6.971c-.158 3.328-1.267 6.02-3.485 7.921C1.267 14.89-.95 15.842-3.644 16l-.158 2.533-6.813-.158.159-2.533c-2.851-.318-5.07-1.428-6.812-3.168-2.059-2.061-3.01-4.912-3.01-8.079.159-3.328 1.268-6.181 3.327-8.238 1.901-1.903 4.277-2.853 6.971-3.011l.158-3.326 6.812.158-.159 3.326c2.693.318 5.07 1.426 6.812 3.328 2.06 2.217 3.01 5.069 3.01 8.395" clip-path="url(#aV)" style="fill:#0047ba;fill-opacity:1;fill-rule:nonzero;stroke:none" transform="matrix(1.33333 0 0 -1.33333 1142.469 369.79)"/></svg>