<svg xmlns="http://www.w3.org/2000/svg" viewBox="1.27 1.15 275.57 276.88"><path d="M971.719 2078.73c252.501 18.6 510.701-61.5 708.901-219 125.09-97.3 225.3-225.2 294.1-367.7 96.4-201.4 125.9-434.2 81.2-653.202-62-323.801-289.6-610.301-591.3-743.398-196.6-88.5-421.5-114.098-632.503-68.403-231.699 47.301-445.199 178.602-592.402 363.5-135 166.203-215.399 375.5-228.297 589.102-13.2 219.001 44 442.401 163.801 626.501 171.801 270.8 475.801 453.1 796.5 472.6" style="fill:#63338c;fill-opacity:1;fill-rule:evenodd;stroke:none" transform="matrix(.13333 0 0 -.13333 0 278.667)"/><path d="M925.121 1892.13c173.299 23.8 353.999-5.9 509.199-87.4 188.9-97.6 339-268.4 410.4-468.9 56.5-153.9 65.7-324.2 30-484.103-43.5-191.098-154-366.899-309.8-486.497-140.4-110.101-316.5-173.703-494.8-178.902-181.1-6.199-363.901 47.5-512.202 151.602C411.219 439.527 297.52 588.227 238.816 756.727c-72.398 203.503-63.898 434.703 23.5 632.303 114.704 267.1 374.301 465.2 662.805 503.1" style="fill:#fff;fill-opacity:1;fill-rule:evenodd;stroke:none" transform="matrix(.13333 0 0 -.13333 0 278.667)"/><path d="M907.418 1744.03c34.699 56.1 84.598 100.5 135.002 142.2 89.1-67.3 170.4-159.3 183.9-274.5 13.7-131.2-21.9-260.6-35-390.4 29.5 19.5 64.4 26.1 99.4 23.6 159-.4 317.9.1 476.9-.2-18.9-135-38.2-269.902-58.7-404.699-19.1 18.098-14.8 47.797-27.2 69.696-19.3 48.304-70.2 77.402-121.2 76.402-135.3.5-270.5.101-405.8.101-4.1-27.601-8-55.199-11.6-83.003 137.3-.297 274.5.402 411.8-.399-17.6-111.898-29.6-224.797-51.4-336.098-18.4 23.899-14.1 58.399-35.1 81.297-21.3 31.703-60.7 44.004-97.4 43.602-84.5.703-169.1 0-253.6.297-8.5-78.696-2.9-161.297 32.7-233.098 37.7-76.797 107.3-132.199 180.9-172.801-200-1.199-400-.797-600.004-.199 69.304 29.5 133.8 74.899 175.402 138.703 66.801 99.098 75.5 230.098 39.102 342-22.2 71.399-88.7 126.598-164.301 130-123.5 14.098-235.098-117.703-200.703-237.504 16.804-81.398 93.004-136.597 172.8-146.297-199.898-53.8-427.3 75.7-485.296 273.797-33.801 122-11.403 260.403 65.398 362.003 95.402 128.3 274.301 186.9 427.098 139.6 49.203-14 94.8-38.6 135.402-69.5-14.402 97.4-29.301 194.7-39.398 292.6-6.801 80.1 7.199 164.3 50.898 232.8" style="fill:#de0030;fill-opacity:1;fill-rule:evenodd;stroke:none" transform="matrix(.13333 0 0 -.13333 0 278.667)"/></svg>