<svg xmlns="http://www.w3.org/2000/svg" viewBox="-0.05 -0.23 325.53 642.66"><defs><clipPath id="a"><path d="M0 0h325.441v642.43H0Zm0 0"/></clipPath></defs><path d="M162.754 9.242 7.797 154.16l154.957 134.008L315.53 150.234z" style="stroke:none;fill-rule:nonzero;fill:#fff;fill-opacity:1"/><path d="M178.906 158.816s3.985-13.41 12.367-27.5c10.477-17.605 17.168-20.804 17.168-20.804l-4.507-2.621s-6.258 7.277-13.825 19.933c-7.566 12.66-12.66 28.082-13.824 32.887-1.164 4.8-.726 5.816 2.621-1.895M120.996 108.328l-3.637 2.477s8.582 7.855 12.801 13.675c4.223 5.82 11.352 20.66 13.68 26.774 2.328 6.11 5.238 14.691 5.238 14.691l.727-2.761s-6.11-22.555-14.258-35.942c-8.149-13.383-14.55-18.914-14.55-18.914" style="stroke:none;fill-rule:nonzero;fill:#dbbb69;fill-opacity:1"/><path d="M162.61 274.242s-5.243-2.012-10.598-9.508c-4.32-6.05-5.403-11.234-5.403-11.234s-3.582 1.352-11.234-.863c-8.21-2.38-12.102-11.453-12.531-16.207-.434-4.75 2.375-11.235 2.375-11.235s4.969 3.243 10.586 0c4.273-2.465 5.402-9.507 5.402-9.507s-6.3-1.731-6.48-8.211c-.215-7.778 8.785-8.57 8.785-8.57s-5.114-21.462-13.11-31.4c-7.992-9.94-14.472-10.589-17.5-8.429-3.023 2.16-3.672 7.777.215 14.043 3.89 6.27 7.492 22.762 1.586 29.102-8.281 8.886-20.812 5.472-20.812 5.472s7.992-5.62 7.129-14.691c-.676-7.098-4.41-11.691-16.856-18.367-13.828-7.418-18.867-16.063-18.867-27.442 0-16.422 11.965-27.53 25.926-28.664 15.992-1.297 36.3 9.504 48.398 27.082 7.191 10.438 10.95 23.188 13.399 41.625 1.433 10.79 1.44 11.668 1.44 11.668l1.587.059s-.434-4.09-1.73-12.016c-1.297-7.918-11.372-57.988-12.391-63.664-3.457-19.305-9.278-40.722-8.063-52.722 1.149-11.38 4.91-15.797 13.106-23.91 14.55-14.407 15.656-25.641 15.656-25.641s1.102 11.234 15.648 25.64c8.196 8.114 11.957 12.532 13.11 23.91 1.215 12-4.61 33.418-8.067 52.723-1.015 5.676-11.09 55.746-12.386 63.664-1.297 7.926-1.73 12.016-1.73 12.016l1.585-.059s.008-.879 1.442-11.668c2.445-18.437 6.207-31.187 13.394-41.625 12.102-17.578 32.41-28.379 48.399-27.082 13.964 1.133 25.93 12.242 25.93 28.664 0 11.38-5.044 20.024-18.872 27.442-12.445 6.676-16.176 11.27-16.851 18.367-.868 9.07 7.128 14.691 7.128 14.691s-12.535 3.414-20.816-5.472c-5.902-6.34-2.3-22.832 1.586-29.102 3.89-6.266 3.242-11.883.219-14.043-3.028-2.16-9.508-1.512-17.504 8.43-7.992 9.937-13.11 31.398-13.11 31.398s9.004.793 8.79 8.57c-.18 6.481-6.485 8.212-6.485 8.212s1.133 7.042 5.403 9.507c5.62 3.243 10.59 0 10.59 0s2.808 6.485 2.374 11.235c-.43 4.754-4.32 13.828-12.53 16.207-7.657 2.215-11.235.863-11.235.863s-1.082 5.184-5.403 11.234c-5.355 7.496-10.625 9.508-10.625 9.508" style="stroke:none;fill-rule:nonzero;fill:#dbbb69;fill-opacity:1"/><path d="M162.625 20.14c-.445 0-.82.34-.867.786-.012.11-1.293 11.137-15.403 25.105-7.953 7.875-12.156 12.535-13.363 24.446a37 37 0 0 0-.168 3.636c0 8.711 2.465 20.653 5.059 33.196 1.097 5.328 2.238 10.836 3.183 16.129.395 2.195 2.157 11.093 4.196 21.398 1.148 5.82 2.398 12.129 3.57 18.09-2.215-6.957-4.98-12.715-8.488-17.809-11.883-17.258-32.57-28.804-49.188-27.457-15.492 1.258-26.734 13.68-26.734 29.535 0 12.34 5.96 21.04 19.332 28.211 13.105 7.031 15.805 11.469 16.394 17.68.805 8.445-6.687 13.84-6.761 13.894a.87.87 0 0 0-.356.868c.059.332.301.601.63.687.53.149 13.14 3.45 21.683-5.719 6.312-6.78 2.578-23.613-1.485-30.152-3.683-5.937-2.98-11.066-.449-12.875 3.055-2.184 9.285-.473 16.313 8.266 6.859 8.523 11.64 25.98 12.71 30.136-3.453.618-8.585 3.043-8.585 9.02 0 .094.004.191.004.293.16 5.656 4.562 8.008 6.347 8.734-.387 1.723-1.687 6.387-4.832 8.203-5.058 2.918-9.488.141-9.676.024a.87.87 0 0 0-.726-.106.9.9 0 0 0-.547.489c-.117.273-2.895 6.746-2.445 11.664.507 5.605 4.93 14.582 13.16 16.965 5.726 1.656 9.281 1.375 10.847 1.078.493 1.742 1.915 5.922 5.32 10.687 5.446 7.625 10.774 9.73 11 9.817.2.078.423.078.622 0 .226-.086 5.578-2.192 11.023-9.817 3.403-4.765 4.825-8.945 5.317-10.687 1.57.297 5.125.578 10.851-1.078 8.23-2.383 12.649-11.356 13.16-16.965.446-4.918-2.328-11.39-2.445-11.664a.89.89 0 0 0-.55-.489.87.87 0 0 0-.727.106c-.188.117-4.613 2.894-9.676-.024-3.145-1.816-4.445-6.48-4.832-8.203 1.785-.726 6.191-3.078 6.348-8.734q.005-.152.004-.297c0-5.977-5.13-8.398-8.583-9.016 1.07-4.156 5.848-21.613 12.708-30.136 7.027-8.739 13.257-10.45 16.316-8.266 2.531 1.809 3.234 6.938-.453 12.875-4.059 6.54-7.797 23.375-1.48 30.152 8.542 9.168 21.152 5.868 21.683 5.72a.87.87 0 0 0 .629-.688.88.88 0 0 0-.356-.868c-.078-.054-7.57-5.449-6.765-13.894.594-6.211 3.289-10.649 16.398-17.68 13.367-7.172 19.328-15.87 19.328-28.21 0-15.856-11.242-28.278-26.73-29.536-16.621-1.347-37.309 10.2-49.188 27.457-3.507 5.094-6.273 10.852-8.488 17.809 1.172-5.965 2.422-12.281 3.574-18.106 2.035-10.297 3.793-19.187 4.188-21.382.949-5.293 2.086-10.801 3.187-16.13 2.59-12.542 5.059-24.484 5.059-33.195 0-1.285-.055-2.5-.168-3.636-1.207-11.91-5.414-16.57-13.363-24.446-14.11-13.968-15.387-24.996-15.399-25.105a.87.87 0 0 0-.867-.785m-5.941 179.422a.88.88 0 0 0 .234-.598c0-.031-.004-.059-.004-.09-.008-.043-.45-4.207-1.734-12.062-.801-4.887-4.907-25.637-8.207-42.313-2.036-10.297-3.797-19.191-4.188-21.367-.95-5.317-2.09-10.836-3.191-16.176-2.574-12.46-5.024-24.316-5.024-32.828 0-1.23.051-2.395.16-3.477 1.149-11.336 4.98-15.586 12.856-23.379 9.828-9.734 13.601-17.992 15.039-22.507 1.438 4.515 5.207 12.773 15.035 22.507 7.871 7.793 11.707 12.043 12.856 23.38.109 1.081.16 2.245.16 3.476 0 8.512-2.45 20.367-5.024 32.828-1.101 5.34-2.242 10.86-3.195 16.176-.39 2.176-2.148 11.062-4.184 21.351-3.3 16.68-7.406 37.442-8.207 42.328-1.285 7.856-1.73 12.02-1.734 12.063q-.005.045-.004.09a.88.88 0 0 0 .234.597.88.88 0 0 0 .668.278l1.586-.059a.883.883 0 0 0 .84-.847c.004-.047.067-1.278 1.434-11.579 2.539-19.109 6.5-31.445 13.25-41.25 11.55-16.773 31.57-28.003 47.61-26.703 12.488 1.012 25.124 10.883 25.124 27.793 0 11.774-5.504 19.75-18.41 26.672-12.207 6.547-16.574 11.356-17.309 19.051-.046.504-.07.992-.07 1.477 0 6.304 3.887 10.757 6.094 12.785-3.621.527-12.152.933-18.2-5.555-5.449-5.848-2.117-21.906 1.688-28.04 4.293-6.917 3.238-12.89-.02-15.218-3.449-2.465-10.413-1.691-18.687 8.594-8.027 9.976-13.066 30.86-13.277 31.742a.88.88 0 0 0 .14.715.89.89 0 0 0 .63.36c.335.03 8.183.824 7.992 7.675-.157 5.734-5.61 7.328-5.84 7.395a.875.875 0 0 0-.63.98c.048.305 1.247 7.48 5.829 10.125 4.617 2.664 8.781 1.309 10.57.469.656 1.715 2 5.64 2 8.965q.002.49-.043.965c-.363 4.02-3.754 13.085-11.902 15.445-7.207 2.086-10.656.894-10.691.887a.875.875 0 0 0-1.156.637c-.012.05-1.11 5.097-5.259 10.906-4.406 6.168-8.753 8.511-9.91 9.058-1.152-.547-5.488-2.89-9.89-9.058-4.153-5.809-5.25-10.856-5.258-10.907a.89.89 0 0 0-.434-.582.88.88 0 0 0-.722-.054c-.036.007-3.489 1.199-10.692-.887-8.148-2.36-11.539-11.426-11.906-15.445q-.04-.474-.04-.965c0-3.325 1.345-7.25 2-8.965 1.79.84 5.954 2.195 10.571-.469 4.578-2.644 5.778-9.82 5.828-10.125a.88.88 0 0 0-.629-.98c-.23-.067-5.683-1.66-5.843-7.395-.192-6.851 7.66-7.644 7.992-7.676a.89.89 0 0 0 .633-.359.9.9 0 0 0 .14-.715c-.21-.883-5.254-21.766-13.277-31.742-8.274-10.285-15.238-11.059-18.691-8.594-3.258 2.328-4.31 8.301-.016 15.219 3.805 6.133 7.137 22.191 1.687 28.039-6.046 6.488-14.578 6.082-18.199 5.555 2.203-2.028 6.094-6.48 6.094-12.79q.001-.718-.074-1.472c-.73-7.695-5.102-12.504-17.309-19.05-12.902-6.923-18.41-14.9-18.41-26.673 0-16.91 12.64-26.78 25.125-27.793 16.039-1.3 36.062 9.93 47.61 26.703 6.75 9.805 10.714 22.141 13.25 41.25 1.37 10.301 1.433 11.532 1.433 11.579.02.457.387.832.84.847l1.586.059c.254.008.5-.094.672-.278" style="stroke:none;fill-rule:nonzero;fill:#231f20;fill-opacity:1"/><path d="m316.402 151.543-153.21 138.371L7.796 154.16l154.957 464.438z" style="stroke:none;fill-rule:nonzero;fill:#a15d96;fill-opacity:1"/><path d="M158.875 4.203.828 150.29l161.89 491.27 161.891-491.27L162.727.645zm3.852 293.719 143.382-127.758c-25.796 78.281-134.543 408.274-143.39 435.133-8.848-26.844-117.5-356.563-143.356-435.027zM15.805 151.902c17.441-16.12 140.11-129.511 146.922-135.804C169.53 22.39 292.043 135.64 309.602 151.87c0 0-140.493 125.168-146.875 130.856z" style="stroke:none;fill-rule:nonzero;fill:#dbbb69;fill-opacity:1"/><g clip-path="url(#a)"><path d="M162.133.004.234 149.648a.87.87 0 0 0-.234.915l161.887 491.269a.874.874 0 0 0 1.66 0l161.89-491.27a.86.86 0 0 0-.238-.914L163.316.004a.864.864 0 0 0-1.183 0m.594 1.828c1.171 1.086 160.058 147.961 160.878 148.719-.351 1.058-159.25 483.242-160.886 488.215-1.64-4.973-160.535-487.157-160.887-488.215L159.469 4.844z" style="stroke:none;fill-rule:nonzero;fill:#231f20;fill-opacity:1"/></g><path d="M305.527 169.516s-141.648 126.21-142.8 127.234C161.574 295.727 19.94 169.617 19.94 169.617a.87.87 0 0 0-1.058-.078.88.88 0 0 0-.352 1.004L161.887 605.57a.874.874 0 0 0 1.66 0l143.39-435.133a.87.87 0 0 0-.347-1 .87.87 0 0 0-1.063.079M163.31 298.57S299.57 177.16 304.266 172.98L162.719 602.504c-1.602-4.856-139.52-423.383-141.512-429.422L162.145 298.57a.87.87 0 0 0 1.164 0" style="stroke:none;fill-rule:nonzero;fill:#231f20;fill-opacity:1"/><path d="M162.133 15.457 15.21 151.262a.86.86 0 0 0-.277.648c0 .246.105.48.289.645l146.922 130.82a.87.87 0 0 0 1.164 0l146.875-130.852a.87.87 0 0 0 .289-.644.86.86 0 0 0-.282-.649L163.316 15.457a.87.87 0 0 0-1.183 0M92.23 82.449s69.333-64.086 70.497-65.164C163.895 18.367 306.91 150.57 308.3 151.86c-1.414 1.262-144.43 128.676-145.574 129.696-1.149-1.02-144.204-128.403-145.622-129.664 1.387-1.286 75.125-69.442 75.125-69.442" style="stroke:none;fill-rule:nonzero;fill:#231f20;fill-opacity:1"/><path d="M150.57 198.906h-1.726s-1.297-10.37-6.774-23.765c-5.472-13.399-14.257-24.2-24.773-24.778-7.047-.386-10.805 3.746-12.531 6.34-2.004 3.004-3.028 10.082-.434 14.98 2.43 4.59 5.617 11.81 6.05 16.563.47 5.164.141 7.637-1.73 9.797s-2.734 2.45-2.734 2.45 2.426-3.016 2.594-6.481c.14-3.028-.578-8.645-4.18-14.117s-10.984-8.723-17.86-12.82c-7.492-4.466-14.835-9.653-13.831-20.743 1.011-11.094 7.492-19.016 17.863-20.742 8.808-1.469 23.047 3.312 33.418 12.965 5.367 4.996 12.676 11.234 19.445 30.68 4.914 14.113 7.203 29.671 7.203 29.671" style="stroke:none;fill-rule:nonzero;fill:#eb6544;fill-opacity:1"/><path d="M90.36 124.727c-10.575 1.761-17.524 9.808-18.587 21.527-1.039 11.445 6.47 16.93 14.25 21.57l4.32 2.477c5.41 3.039 10.52 5.91 13.259 10.07 3.218 4.895 4.195 10.234 4.035 13.598-.149 3.129-2.38 5.949-2.403 5.976a.885.885 0 0 0-.035 1.047c.223.317.625.45.992.328.258-.086 1.239-.53 3.121-2.707 2.211-2.547 2.387-5.515 1.942-10.445-.43-4.7-3.457-11.809-6.152-16.895-2.47-4.664-1.438-11.347.386-14.085 1.938-2.903 5.547-6.293 11.758-5.954 9.176.504 17.93 9.336 24.02 24.239 5.359 13.117 6.699 23.441 6.71 23.543a.873.873 0 0 0 .868.765h1.726a.87.87 0 0 0 .864-1c-.024-.156-2.36-15.804-7.243-29.832-6.578-18.898-13.78-25.574-19.043-30.449l-.632-.586c-9.97-9.277-24.332-14.824-34.157-13.187m19.024 69.324c.008-.196.015-.45.015-.75 0-2.414-.476-8.02-4.335-13.887-2.973-4.516-8.262-7.488-13.864-10.637l-4.281-2.453c-7.125-4.246-13.496-8.844-13.496-17.992q0-.926.09-1.922c.988-10.875 7.394-18.336 17.136-19.96 7.805-1.302 21.91 2.722 32.68 12.741l.633.59c5.129 4.746 12.148 11.254 18.582 29.739 3.168 9.097 5.246 18.863 6.312 24.57-.921-4.344-2.714-11.297-5.976-19.281-6.352-15.547-15.66-24.774-25.535-25.317-7.035-.387-11.117 3.446-13.305 6.727-1.187 1.781-2.14 5.066-2.14 8.574 0 2.469.472 5.05 1.66 7.3 2.613 4.934 5.55 11.79 5.953 16.235.125 1.356.187 2.5.187 3.488 0 1.465-.156 2.57-.472 3.504q.118-.62.156-1.27M120.973 107.527c-.403.188-.614.63-.47 1.051.052.164.2.602 4.638 5.633 5.015 5.687 10.425 14.687 14.836 24.695 5.808 13.18 8.859 23.973 8.886 24.082a.875.875 0 0 0 1.684-.473c-.031-.105-3.11-11.015-8.973-24.316-4.48-10.164-9.996-19.328-15.125-25.144-3.804-4.313-4.304-5.09-4.351-5.164-.23-.38-.72-.547-1.125-.364" style="stroke:none;fill-rule:nonzero;fill:#231f20;fill-opacity:1"/><path d="M116.473 110.348a.873.873 0 0 0 .132 1.226c.075.063 7.325 5.938 13.23 14.371 7.142 10.203 15.942 33.285 16.028 33.516a.872.872 0 1 0 1.633-.617c-.36-.957-8.965-23.52-16.23-33.899-6.051-8.644-13.493-14.672-13.567-14.73a.874.874 0 0 0-1.226.133" style="stroke:none;fill-rule:nonzero;fill:#231f20;fill-opacity:1"/><path d="M100.73 79.781c-2.015.778-2.449 3.457-2.015 5.762.77 4.117 3.312 7.637 3.312 7.637s-4.035-2.844-7.632-.145c-4.036 3.024-3.457 7.488-3.457 7.488s.234-.832 1.87-1.87c1.587-1.008 4.419-1.321 7.922.433 3.457 1.727 3.747 4.32 5.762 7.922 2.016 3.601 5.203 4.394 8.645 4.031 2.734-.285 6.625-1.871 7.488-5.617.863-3.742.574-6.77-2.305-10.656-2.879-3.891-4.097-8.207-3.886-11.668.285-4.754 3.457-7.493 3.457-7.493s-4.899-.718-7.348 2.45c-2.45 3.168-2.305 9.218-2.305 9.218s-3.89-9.652-9.508-7.492" style="stroke:none;fill-rule:nonzero;fill:#dbbb69;fill-opacity:1"/><path d="M111.852 77.52c-1.415 1.832-2.02 4.46-2.286 6.539-1.75-2.899-4.96-6.704-9.148-5.09-2.031.781-2.73 2.89-2.73 4.953 0 .613.062 1.219.167 1.781.407 2.164 1.262 4.149 2.028 5.598-1.79-.469-4.004-.473-6.016 1.035-4.387 3.293-3.824 8.098-3.797 8.3.051.395.371.684.766.735.394.05.777-.195.926-.566.004-.004.254-.614 1.515-1.414 1.301-.829 3.836-1.137 7.063.472 2.289 1.145 2.992 2.645 4.055 4.91l1.335 2.66c1.95 3.481 5.055 4.942 9.497 4.477 3.214-.34 7.304-2.191 8.25-6.293.851-3.687.757-7.035-2.454-11.375-2.543-3.43-3.933-7.578-3.718-11.094.257-4.304 3.129-6.859 3.156-6.882a.88.88 0 0 0 .266-.907.88.88 0 0 0-.711-.617c-.22-.031-5.434-.754-8.164 2.778m-1.438 10.609a.874.874 0 0 0 .695-.856v-.168c0-.918.098-5.894 2.125-8.515 1.25-1.625 3.282-2.043 4.754-2.137-1.008 1.356-2.246 3.582-2.425 6.59-.02.277-.028.562-.028.844 0 3.754 1.461 7.855 4.082 11.394 1.903 2.567 2.567 4.68 2.567 6.797 0 1.031-.157 2.063-.41 3.149-.739 3.207-4.087 4.668-6.731 4.945-3.723.39-6.195-.75-7.79-3.594l-1.276-2.547c-1.086-2.312-2.028-4.312-4.856-5.726-3.293-1.649-6.574-1.793-8.781-.39-.145.093-.227.179-.356.269.313-1.348 1.075-3.055 2.934-4.45 3.035-2.28 6.465.059 6.61.16a.873.873 0 0 0 1.206-1.226c-.023-.035-2.437-3.418-3.16-7.285-.367-1.957-.054-4.2 1.473-4.785 4.75-1.828 8.348 6.914 8.383 7.004.156.39.574.613.984.527m-1.05-.856v.02zm-8.946-8.304" style="stroke:none;fill-rule:nonzero;fill:#231f20;fill-opacity:1"/><path d="M162.578 264.305s-4.734-2.594-6.894-8.43c-2.16-5.832-2.594-9.937-2.375-14.043.18-3.45.496-3.496-2.16-.648-3.028 3.242-6.915 7.129-14.047 3.671-7.043-3.414-6.48-9.937-6.48-9.937s6.265.434 11.667-4.535c6.555-6.031 6.05-13.828 6.05-13.828h28.567s-.508 7.797 6.051 13.828c5.402 4.969 11.668 4.535 11.668 4.535s.563 6.523-6.48 9.937c-7.133 3.458-11.024-.43-14.047-3.671-2.657-2.848-2.34-2.801-2.16.648.214 4.106-.215 8.211-2.375 14.043-2.165 5.836-6.985 8.43-6.985 8.43" style="stroke:none;fill-rule:nonzero;fill:#eb6544;fill-opacity:1"/><path d="M148.34 215.68a.87.87 0 0 0-.637.277.88.88 0 0 0-.238.652c.008.075.383 7.47-5.77 13.13-5.039 4.636-10.957 4.312-11.015 4.308a.874.874 0 0 0-.93.797c-.023.289-.527 7.164 6.973 10.8 7.886 3.825 12.207-.8 15.062-3.863 0 0 .664-.719.695-.75-.015.301-.042.754-.042.754q-.053.918-.051 1.813c0 4.105.77 7.972 2.476 12.582 2.25 6.07 7.094 8.777 7.297 8.89a.88.88 0 0 0 .836 0c.207-.11 5.133-2.816 7.383-8.89 1.707-4.61 2.476-8.477 2.476-12.582 0-.602-.015-1.203-.046-1.813 0 0-.028-.445-.043-.754l.695.75c2.855 3.063 7.176 7.688 15.062 3.864 7.5-3.637 6.997-10.512 6.97-10.801a.873.873 0 0 0-.927-.797c-.058.004-5.976.328-11.02-4.309-6.151-5.66-5.773-13.054-5.769-13.129a.87.87 0 0 0-.87-.93zm.87.817v.059zm26.825.059v-.059zm-45.476 19.234h.062zm45.476-18.363c.067 2.285.774 8.488 6.328 13.597 4.453 4.094 9.38 4.696 11.38 4.766-.106 1.711-.9 5.82-5.981 8.281-6.223 3.02-9.582.207-13.028-3.48l-.601-.653c-1.324-1.433-1.774-1.917-2.528-1.593-.52.222-.652.629-.652 1.37 0 .317.024.692.05 1.141l.063 1.024c.032.598.047 1.184.047 1.766 0 3.898-.722 7.48-2.37 11.93-1.669 4.5-5.02 6.96-6.157 7.698-1.125-.742-4.418-3.203-6.082-7.699-1.649-4.449-2.371-8.031-2.371-11.926q0-.872.047-1.77l.062-1.026c.028-.434.051-.801.051-1.118 0-.738-.133-1.168-.652-1.39-.758-.324-1.203.16-2.528 1.594l-.605.652c-3.446 3.687-6.805 6.5-13.024 3.48-5.082-2.46-5.879-6.57-5.984-8.28 2.004-.071 6.93-.673 11.379-4.767 5.555-5.109 6.262-11.312 6.328-13.597zm18.649 18.363h-.063z" style="stroke:none;fill-rule:nonzero;fill:#231f20;fill-opacity:1"/><path d="M147.04 210.262c-3.024 0-4.321-1.282-4.321-2.559v-.45c0-1.276 1.297-2.558 4.32-2.558h31.164c3.027 0 4.32 1.282 4.32 2.559v.45c0 1.276-1.293 2.558-4.32 2.558z" style="stroke:none;fill-rule:nonzero;fill:#eb6544;fill-opacity:1"/><path d="M147.04 203.824c-3.587 0-5.192 1.723-5.192 3.43v.45c0 1.706 1.605 3.429 5.191 3.429h31.164c3.586 0 5.195-1.723 5.195-3.43v-.45c0-1.706-1.609-3.429-5.195-3.429zm-3.445 3.88v-.45c0-.84 1.066-1.684 3.445-1.684h31.164c2.383 0 3.45.844 3.45 1.684v.45c0 .839-1.067 1.683-3.45 1.683H147.04c-2.379 0-3.445-.844-3.445-1.684" style="stroke:none;fill-rule:nonzero;fill:#231f20;fill-opacity:1"/><path d="M174.676 198.906h1.726s1.297-10.37 6.77-23.765c5.476-13.399 14.262-24.2 24.777-24.778 7.047-.386 10.805 3.746 12.531 6.34 2.004 3.004 3.028 10.082.43 14.98-2.43 4.59-5.613 11.81-6.047 16.563-.468 5.164-.144 7.637 1.73 9.797 1.872 2.16 2.735 2.45 2.735 2.45s-2.43-3.016-2.594-6.481c-.14-3.028.578-8.645 4.176-14.117 3.602-5.473 10.988-8.723 17.863-12.82 7.493-4.466 14.836-9.653 13.829-20.743-1.008-11.094-7.489-19.016-17.86-20.742-8.812-1.469-23.047 3.312-33.422 12.965-5.367 4.996-12.675 11.234-19.441 30.68-4.914 14.113-7.203 29.671-7.203 29.671" style="stroke:none;fill-rule:nonzero;fill:#eb6544;fill-opacity:1"/><path d="m200.727 137.914-.63.586c-5.261 4.875-12.464 11.55-19.046 30.45-4.883 14.027-7.215 29.675-7.242 29.831-.036.25.039.504.203.7.168.19.41.3.664.3h1.726a.873.873 0 0 0 .868-.765c.011-.102 1.347-10.426 6.71-23.543 6.09-14.903 14.84-23.735 24.016-24.239 6.215-.34 9.824 3.051 11.758 5.953 1.824 2.739 2.855 9.422.387 14.086-2.692 5.086-5.72 12.196-6.149 16.895-.445 4.93-.27 7.898 1.942 10.445 1.879 2.176 2.863 2.621 3.117 2.707a.873.873 0 0 0 .957-1.375c-.024-.027-2.254-2.847-2.403-5.976-.16-3.364.82-8.703 4.036-13.598 2.738-4.16 7.851-7.031 13.261-10.07l4.32-2.477c7.782-4.64 15.29-10.125 14.25-21.57-1.066-11.719-8.011-19.766-18.585-21.527-9.824-1.637-24.188 3.91-34.16 13.187m-18.028 31.606c6.438-18.485 13.457-24.989 18.582-29.739l.633-.59c10.77-10.02 24.879-14.043 32.684-12.742 9.742 1.625 16.144 9.086 17.132 19.961.063.664.09 1.305.09 1.922 0 9.148-6.37 13.746-13.492 17.992l-4.281 2.453c-5.602 3.149-10.89 6.121-13.863 10.637-3.86 5.867-4.336 11.477-4.336 13.89q.001.452.015.747c.02.433.078.855.153 1.265-.317-.93-.473-2.035-.473-3.5 0-.988.066-2.132.187-3.488.407-4.445 3.34-11.3 5.954-16.234 1.191-2.25 1.66-4.832 1.66-7.301 0-3.508-.95-6.793-2.137-8.574-2.187-3.281-6.27-7.114-13.305-6.727-9.875.543-19.183 9.77-25.539 25.317-3.261 7.988-5.054 14.945-5.972 19.289 1.062-5.707 3.14-15.477 6.308-24.578" style="stroke:none;fill-rule:nonzero;fill:#231f20;fill-opacity:1"/><path d="M162.617 36.57s-5.562 8.352-12.62 15.555c-7.06 7.203-9.364 11.238-9.942 21.754-.575 10.512 5.187 36.586 8.066 52.43 1.91 10.507 9.813 46.527 11.684 59.492a445 445 0 0 0 2.117 13.105h1.398s1.16-6.449 2.121-13.105c1.871-12.965 9.774-48.985 11.68-59.492 2.883-15.844 8.645-41.918 8.066-52.43-.574-10.516-2.878-14.55-9.937-21.754-7.062-7.203-12.633-15.555-12.633-15.555" style="stroke:none;fill-rule:nonzero;fill:#eb6544;fill-opacity:1"/><path d="M162.617 35.695a.88.88 0 0 0-.726.39c-.055.083-5.602 8.368-12.52 15.43-7.125 7.27-9.598 11.512-10.187 22.313-.457 8.387 2.941 25.918 5.937 41.39l2.14 11.247c.696 3.824 2.173 10.96 3.88 19.219 2.945 14.261 6.613 32.007 7.8 40.242.954 6.594 2.11 13.07 2.121 13.137a.875.875 0 0 0 .86.718h1.398a.875.875 0 0 0 .86-.719c.011-.066 1.172-6.542 2.125-13.136 1.187-8.235 4.855-25.985 7.8-40.246 1.708-8.258 3.18-15.395 3.875-19.215l2.141-11.25c3-15.469 6.399-33 5.941-41.387-.593-10.8-3.066-15.043-10.19-22.312-6.919-7.063-12.474-15.348-12.528-15.43a.87.87 0 0 0-.727-.39m-1.949 149.98c-1.195-8.285-4.867-26.063-7.82-40.344-1.703-8.25-3.176-15.375-3.868-19.18l-2.14-11.265c-2.668-13.758-5.95-30.684-5.95-39.434q0-.813.036-1.527c.566-10.32 2.8-14.16 9.691-21.188 5.582-5.695 10.27-12.152 12-14.633 1.738 2.48 6.43 8.938 12.008 14.633 6.89 7.028 9.129 10.867 9.691 21.188q.041.713.04 1.527c0 8.746-3.282 25.676-5.95 39.43l-2.144 11.27c-.688 3.8-2.16 10.925-3.864 19.171-2.953 14.285-6.625 32.067-7.824 40.352a424 424 0 0 1-1.953 12.172 455 455 0 0 1-1.953-12.172M203.145 107.89c-.043.075-.543.852-4.348 5.165-5.133 5.816-10.649 14.98-15.125 25.144-5.863 13.301-8.942 24.211-8.973 24.317a.872.872 0 1 0 1.68.472c.031-.11 3.078-10.902 8.89-24.082 4.41-10.008 9.817-19.008 14.836-24.695 4.438-5.031 4.583-5.465 4.637-5.629.14-.422-.07-.863-.472-1.05-.403-.188-.891-.02-1.125.359" style="stroke:none;fill-rule:nonzero;fill:#231f20;fill-opacity:1"/><path d="M207.547 110.215c-.078.058-7.516 6.086-13.567 14.73-7.265 10.38-15.87 32.942-16.234 33.899a.873.873 0 1 0 1.633.617c.09-.23 8.89-23.313 16.031-33.516 5.903-8.433 13.156-14.308 13.23-14.37a.873.873 0 0 0-1.093-1.36" style="stroke:none;fill-rule:nonzero;fill:#231f20;fill-opacity:1"/><path d="M224.512 79.781c2.02.778 2.453 3.457 2.02 5.762-.774 4.117-3.313 7.637-3.313 7.637s4.035-2.844 7.633-.145c4.03 3.024 3.457 7.488 3.457 7.488s-.239-.832-1.871-1.87c-1.586-1.008-4.418-1.321-7.926.433-3.457 1.727-3.742 4.32-5.758 7.922-2.02 3.601-5.203 4.394-8.645 4.031-2.738-.285-6.625-1.871-7.492-5.617-.863-3.742-.574-6.77 2.309-10.656 2.879-3.891 4.097-8.207 3.887-11.668-.29-4.754-3.458-7.493-3.458-7.493s4.899-.718 7.348 2.45c2.45 3.168 2.305 9.218 2.305 9.218s3.887-9.652 9.504-7.492" style="stroke:none;fill-rule:nonzero;fill:#dbbb69;fill-opacity:1"/><path d="M205.23 74.742a.873.873 0 0 0-.445 1.523c.028.024 2.895 2.579 3.156 6.883.211 3.516-1.18 7.665-3.718 11.094-3.215 4.344-3.309 7.688-2.453 11.375.945 4.102 5.035 5.953 8.25 6.293 4.44.465 7.546-.996 9.496-4.476l1.336-2.66c1.062-2.266 1.765-3.766 4.05-4.91 3.227-1.61 5.766-1.302 7.067-.473 1.258.8 1.511 1.41 1.515 1.414a.89.89 0 0 0 .926.566c.395-.05.715-.34.766-.734.023-.203.59-5.008-3.801-8.301-2.012-1.508-4.227-1.504-6.012-1.035.762-1.45 1.621-3.434 2.028-5.598a10 10 0 0 0 .164-1.781c0-2.063-.7-4.172-2.727-4.953-4.191-1.614-7.398 2.191-9.152 5.09-.266-2.079-.867-4.711-2.281-6.54-2.73-3.53-7.946-2.808-8.165-2.777m4.97 35.43c-2.641-.277-5.99-1.738-6.731-4.945-.25-1.086-.406-2.118-.406-3.149 0-2.117.664-4.23 2.562-6.797 2.621-3.539 4.086-7.64 4.086-11.394 0-.285-.012-.567-.027-.844-.18-3.008-1.418-5.234-2.426-6.59 1.472.094 3.5.512 4.754 2.137 2.023 2.62 2.12 7.59 2.12 8.512v.171a.874.874 0 0 0 1.684.329c.036-.09 3.633-8.832 8.383-7.004 1.528.586 1.84 2.828 1.473 4.785-.727 3.867-3.14 7.25-3.164 7.285a.876.876 0 0 0 .086 1.121c.3.305.773.348 1.125.106.144-.102 3.574-2.442 6.61-.16 1.858 1.394 2.62 3.1 2.933 4.449-.13-.09-.211-.176-.356-.27-2.207-1.402-5.492-1.258-8.785.39-2.828 1.415-3.766 3.415-4.851 5.727l-1.282 2.547c-1.59 2.844-4.066 3.984-7.789 3.594m5.68-22.899v.02zm8.95-8.304" style="stroke:none;fill-rule:nonzero;fill:#231f20;fill-opacity:1"/><path d="m130.367 346.406 6.918 32.555-13.84-.008zm-5.828-12.988-14.258 67.074h8.586l3.063-14.406h16.87l3.063 14.406h8.586l-14.262-67.074zM176.785 383.746c0 6.14 4.656 16.777 20.078 16.91 11.348.102 18.477-6.816 18.477-12.68v-6.546h-9.89s.097 2.73 0 5.047c-.15 3.41-2.04 7.363-8.587 7.363-7.129 0-9.894-4.774-9.894-10.094v-33.562c0-5.32 2.765-10.094 9.894-10.094 6.547 0 8.438 3.957 8.586 7.363.098 2.317 0 5.047 0 5.047h9.89v-6.547c0-5.863-7.128-12.781-18.476-12.68-15.422.133-20.078 10.774-20.078 16.91zM156.078 439.195h21.688v-7.129h-30.262v66.93h8.582v-34.922h15.86v-7.125h-15.86v-17.758" style="stroke:none;fill-rule:nonzero;fill:#dbbb69;fill-opacity:1"/><path d="m129.512 346.227-6.918 32.546a.869.869 0 0 0 .852 1.055l13.84.004a.88.88 0 0 0 .679-.32.89.89 0 0 0 .176-.735l-6.918-32.55a.87.87 0 0 0-.856-.692.87.87 0 0 0-.855.692m.855 4.378c1.262 5.946 5.473 25.758 5.84 27.48l-11.684-.003c.368-1.723 4.579-21.531 5.844-27.477" style="stroke:none;fill-rule:nonzero;fill:#231f20;fill-opacity:1"/><path d="M124.54 332.547c-.411 0-.767.289-.853.691l-14.257 67.075a.865.865 0 0 0 .851 1.05h8.586a.87.87 0 0 0 .852-.687s2.648-12.461 2.918-13.715h15.457l2.918 13.715a.866.866 0 0 0 .851.687h8.586a.87.87 0 0 0 .852-1.05l-14.258-67.075a.874.874 0 0 0-.856-.691zm10.945 1.742c.282 1.336 13.457 63.309 13.887 65.328h-6.8l-2.915-13.715a.874.874 0 0 0-.855-.691l-16.871.004c-.414 0-.77.289-.856.691l-2.914 13.711h-6.8c.43-2.02 13.605-63.992 13.886-65.328zM196.855 332.398c-15.367.137-20.945 10.707-20.945 17.786v33.562c0 7.078 5.578 17.649 20.945 17.785 6.243.055 11.946-2.02 15.645-5.687 2.395-2.371 3.715-5.168 3.715-7.867v-6.547c0-.48-.39-.871-.875-.871h-9.89a.871.871 0 0 0-.875.902c.003.027.097 2.723 0 4.976-.102 2.438-1.247 6.532-7.712 6.532-8.144 0-9.023-6.45-9.023-9.223v-33.562c0-2.774.879-9.22 9.023-9.22 6.465 0 7.61 4.09 7.711 6.528.098 2.254.004 4.95 0 4.977a.87.87 0 0 0 .875.902h9.89a.87.87 0 0 0 .876-.871v-6.547c0-2.7-1.32-5.492-3.715-7.867-3.703-3.668-9.402-5.742-15.645-5.688m.016 67.387c-15.2-.133-19.215-10.547-19.215-16.039v-33.562c0-5.493 4.016-15.907 19.215-16.04 5.777-.05 11.027 1.84 14.399 5.18 2.03 2.016 3.199 4.434 3.199 6.63v5.675h-8.125c.011-.484.02-1.121.02-1.828 0-.758-.009-1.59-.044-2.383-.222-5.137-3.757-8.2-9.457-8.2-7.937 0-10.77 5.665-10.77 10.966v33.562c0 5.305 2.833 10.969 10.77 10.969 5.7 0 9.235-3.067 9.457-8.2.035-.792.043-1.628.043-2.386 0-.707-.008-1.344-.02-1.824h8.126v5.672c0 2.199-1.168 4.613-3.2 6.628-3.37 3.344-8.62 5.23-14.398 5.18M147.504 431.195a.873.873 0 0 0-.875.871v66.93c0 .484.39.871.875.871h8.582a.87.87 0 0 0 .875-.87v-34.048h14.984c.485 0 .875-.39.875-.875v-7.125a.88.88 0 0 0-.257-.62.87.87 0 0 0-.618-.255h-14.984v-16.008h20.805c.48 0 .875-.386.875-.87v-7.13a.875.875 0 0 0-.875-.87zm29.39 1.745v5.38h-20.816a.88.88 0 0 0-.875.874c0 .008.012.012.012.02v17.734c0 .23.09.453.254.617a.87.87 0 0 0 .617.254h14.988v5.383h-14.988c-.48 0-.871.39-.871.871v34.051h-6.84v-65.184z" style="stroke:none;fill-rule:nonzero;fill:#231f20;fill-opacity:1"/></svg>