<svg xmlns="http://www.w3.org/2000/svg" viewBox="337.31 103.58 447.9 581.21"><path d="M577.922 279.956c6.474 6.475 10.988 16.299 10.988 27.529 0 24.311-22.995 48.059-55.424 48.059-16.615 0-34.486-7.801-49.266-22.58-19.31-19.311-34.743-48.998-36.918-93.339h-4.965c.362 57.499 9.626 87.191 34.645 118.503l29.492-.722a4.348 4.348 0 0 1 .214 8.692l-22.557.551c4.801 5.479 10.091 11.088 15.896 16.97l35.934-1.506a4.347 4.347 0 1 1 .363 8.686l-27.844 1.168c7.227 6.911 14.944 13.735 24.618 22.244l12.363-.972.529 6.724a3.744 3.744 0 0 0 7.464-.588s-.221-2.801-.528-6.724l19.166-1.507 1.507 19.164-6.724.53a3.742 3.742 0 1 0 .586 7.463l6.726-.529 1.506 19.166-19.165 1.507-.528-6.724a3.745 3.745 0 0 0-7.465.587l.53 6.726-19.165 1.508-1.509-19.167 6.725-.528a3.745 3.745 0 0 0-.588-7.465l-6.723.531-.864-10.966c-10.804-9.501-19.203-16.916-27.196-24.639l.655 26.196a4.348 4.348 0 0 1-8.693.218l-.883-35.307c-5.261-5.38-10.111-10.566-14.577-15.665l-.163 16.379a4.348 4.348 0 0 1-8.694-.086l.262-26.622c-25.576-32.559-35.565-64.427-35.94-123.796h-3.044c-.537 15.334-.477 30.462-.477 36.949 0 24.874 4.151 56.164 23.185 96.116 20.366 42.746 26.807 44.678 26.807 66.655 0 18.676-9.419 33.326-27.773 51.68-18.596 18.596-27.371 26.565-29.463 26.565s-10.867-7.969-29.462-26.565c-18.355-18.354-27.774-33.004-27.774-51.68 0-21.977 6.441-23.909 26.808-66.655 19.035-39.952 23.183-71.242 23.183-96.116 0-6.487.061-21.615-.475-36.949h-3.044c-.377 59.369-10.365 91.237-35.942 123.796l.263 26.622a4.347 4.347 0 0 1-8.694.086l-.162-16.379c-4.466 5.099-9.317 10.285-14.579 15.665l-.882 35.307a4.347 4.347 0 0 1-8.692-.218l.655-26.196c-7.995 7.723-16.393 15.138-27.196 24.639l-.864 10.966-6.724-.531a3.744 3.744 0 0 0-.588 7.465l6.725.528-1.509 19.167-19.165-1.508.53-6.726a3.744 3.744 0 0 0-7.464-.587l-.529 6.724-19.166-1.507 1.508-19.166 6.725.529a3.742 3.742 0 1 0 .587-7.463l-6.724-.53 1.507-19.164 19.167 1.507-.53 6.724a3.744 3.744 0 0 0 7.464.588l.529-6.724 12.363.972c9.676-8.509 17.391-15.333 24.619-22.244l-27.845-1.168a4.345 4.345 0 0 1-4.161-4.525 4.346 4.346 0 0 1 4.525-4.161l35.933 1.506c5.806-5.882 11.095-11.491 15.898-16.97l-22.557-.551a4.346 4.346 0 1 1 .212-8.692l29.492.722c25.02-31.312 34.283-61.004 34.646-118.503h-4.965c-2.175 44.341-17.608 74.028-36.919 93.339-14.779 14.779-32.65 22.58-49.266 22.58-32.429 0-55.424-23.748-55.424-48.059 0-11.23 4.513-21.054 10.989-27.529 26.001-26.002 52.671-13.671 67.137-28.136 3.598-3.598 4.346-7.801 4.346-12.92 0-6.6-6.922-16.785-18.837-16.785-4.415 0-6.52 1.812-6.52 4.468 0 2.833 2.008 4.203 6.728 3.407-.963 6.437-4.72 11.794-11.232 16.01-6.3-1.768-12.158-5.909-14.814-11.584 4.045-1.624 5.31-3.894 5.31-6.263 0-1.57-1.207-3.019-3.501-3.019-3.144 0-4.879 3.291-4.757 7.738-6.138-2.96-10.793-7.184-15.058-12.958 3.308-6.012 7.869-10.77 14.547-14.073 1.248 5.934 4.108 8.668 6.596 8.668 2.076 0 2.777-1.338 2.777-3.864 0-1.681-1.401-4.416-6.315-6.563 2.476-4.401 6.134-7.83 12.335-10.65 7.151 2.95 11.268 7.049 14.127 13.561-4.994 1.286-6.985 3.365-6.985 6.308 0 3.284 2.631 3.623 6.762 3.623 30.107 0 32.603 19.239 32.603 24.874 0 24.31-30.187 31.072-30.187 50.715 0 10.303 6.761 15.778 14.168 15.778 9.338 0 17.756-4.947 23.988-10.948 12.328-11.871 26.372-33.525 26.446-58.432-12.458-2.365-19.683-10.278-19.683-18.365 0-14.268 17.37-18.884 34.192-19.07-.866-4.348-3.2-7.051-6.42-10.273-8.554-8.554-17.63-7.365-34.052-7.365-11.109 0-17.67-.725-24.753-3.623-5.98-2.446-10.385-5.675-14.128-9.419-5.716-5.715-7.125-8.532-7.125-13.039 0-1.389.363-4.348 1.087-4.348.805 0 1.399 2.016 4.589 5.555 2.576 2.857 6.037 4.225 9.901 4.225 5.797 0 8.854-1.449 23.667-1.449 36.159 0 50.231 11.963 60.737 30.82-3.361-15.279-10.825-22.389-18.836-28.526-7.841-6.006-14.553-8.621-20.89-10.625-6.962-2.201-13.445-3.785-18.595-8.935-3.201-3.201-5.415-7.712-6.159-12.799-.724-4.951.362-6.522 1.086-6.522 1.087 0 2.187 3.967 5.797 6.762 3.743 2.898 10.224 1.932 18.595 1.932 12.481 0 30.821 11.631 40.089 30.586v-19.236a16.76 16.76 0 0 1-7.109-7.93c-3.531-.192-6.511.469-8.83-1.849-2.013-2.015-2.656-3.1-2.656-15.818 0-11.353.885-15.456 2.656-15.456 2.093 0 4.025.964 6.762 3.259.793.664 1.59 1.318 2.517 2.08.038-13.8.508-16.092 3.762-19.346 7.366-7.366 10.264-8.454 11.109-8.454s3.743 1.088 11.11 8.454c3.254 3.254 3.723 5.546 3.761 19.346.928-.762 1.724-1.416 2.516-2.08 2.737-2.295 4.67-3.259 6.763-3.259 1.77 0 2.656 4.103 2.656 15.456 0 12.718-.644 13.803-2.656 15.818-2.319 2.317-5.299 1.657-8.829 1.847a16.76 16.76 0 0 1-7.11 7.932v19.236c9.269-18.955 27.609-30.586 40.089-30.586 8.372 0 14.853.966 18.595-1.932 3.609-2.795 4.71-6.762 5.797-6.762.724 0 1.811 1.571 1.087 6.522-.746 5.087-2.959 9.598-6.16 12.799-5.15 5.15-11.633 6.734-18.594 8.935-6.337 2.004-13.048 4.619-20.89 10.625-8.012 6.137-15.475 13.247-18.838 28.526 10.507-18.857 24.579-30.82 60.739-30.82 14.812 0 17.871 1.449 23.666 1.449 3.865 0 7.326-1.368 9.902-4.225 3.189-3.539 3.783-5.555 4.588-5.555.724 0 1.087 2.959 1.087 4.348 0 4.507-1.409 7.324-7.124 13.039-3.743 3.744-8.149 6.973-14.128 9.419-7.083 2.898-13.645 3.623-24.754 3.623-16.422 0-25.498-1.189-34.051 7.365-3.222 3.222-5.556 5.925-6.421 10.273 16.822.186 34.193 4.802 34.193 19.07 0 8.087-7.224 16-19.684 18.365.075 24.906 14.119 46.561 26.446 58.432 6.233 6.001 14.651 10.948 23.989 10.948 7.406 0 14.167-5.475 14.167-15.778 0-19.643-30.187-26.405-30.187-50.715 0-5.635 2.497-24.874 32.603-24.874 4.131 0 6.762-.339 6.762-3.623 0-2.943-1.99-5.022-6.984-6.308 2.858-6.512 6.975-10.611 14.127-13.561 6.2 2.82 9.858 6.249 12.336 10.65-4.916 2.147-6.317 4.882-6.317 6.563 0 2.526.701 3.864 2.778 3.864 2.488 0 5.348-2.734 6.595-8.668 6.68 3.303 11.239 8.061 14.547 14.073-4.265 5.774-8.919 9.998-15.058 12.958.123-4.447-1.612-7.738-4.756-7.738-2.295 0-3.502 1.449-3.502 3.019 0 2.369 1.265 4.639 5.31 6.263-2.656 5.675-8.514 9.816-14.814 11.584-6.513-4.216-10.268-9.573-11.232-16.01 4.721.796 6.728-.574 6.728-3.407 0-2.656-2.106-4.468-6.52-4.468-11.915 0-18.837 10.185-18.837 16.785 0 5.119.748 9.322 4.347 12.92 14.465 14.465 41.135 2.134 67.137 28.136" clip-path="url(#clipPath6)" style="fill:#e31f26;fill-opacity:1;fill-rule:evenodd;stroke:none" transform="matrix(1.33333 0 0 -1.33333 0 793.701)"/></svg>