<svg xmlns="http://www.w3.org/2000/svg" viewBox="27.26 147.36 736.84 736.84"><path d="M20.946 454.556c0-152.362 123.955-276.317 276.317-276.317s276.316 123.955 276.316 276.317-123.954 276.318-276.316 276.318S20.946 606.918 20.946 454.556" style="fill:#231f20;fill-opacity:1;fill-rule:nonzero;stroke:none" transform="matrix(1.33333 0 0 -1.33333 -.667 1121.853)"/><path d="M117.96 454.556c0 98.868 80.436 179.302 179.303 179.302s179.301-80.434 179.301-179.302-80.434-179.301-179.301-179.301-179.302 80.433-179.302 179.3" style="fill:#fff;fill-opacity:1;fill-rule:nonzero;stroke:none" transform="matrix(1.33333 0 0 -1.33333 -.667 1121.853)"/><path d="m278.69 427.257-52.277 53.473V341.12l-.398.342a134.7 134.7 0 0 0-24.254 19.611l-.048.533v179.708l77.38-79.125-.03-.931V426.85zm36.773-.222v34.59l-.013.583 77.36 79.106V361.173l-.566-.52a135.2 135.2 0 0 0-23.448-18.843l-.686-.44v139.36c-6.254-6.395-45.074-46.105-52.662-53.865z" style="fill:#231f20;fill-opacity:1;fill-rule:nonzero;stroke:none" transform="matrix(1.33333 0 0 -1.33333 -.667 1121.853)"/><path d="M239.413 458.74V334.02l.372-.167a132.7 132.7 0 0 1 23.688-8.67l.64-.18v108.793l-.53.559-24.15 24.694zm70.2 24.009V291.284l-.005-.517a166.5 166.5 0 0 0-24.497-.014l-.198.043v192.36l.04.325h24.7z" style="fill:#231f20;fill-opacity:1;fill-rule:nonzero;stroke:none" transform="matrix(1.33333 0 0 -1.33333 -.667 1121.853)"/><path d="M41.26 454.556c0-141.159 114.843-256 256.003-256s256 114.841 256 256c0 141.16-114.841 256.003-256 256.003-141.16 0-256.002-114.843-256.002-256.003m-15.115 0c0 149.495 121.622 271.118 271.117 271.118 149.494 0 271.116-121.623 271.116-271.118 0-149.494-121.622-271.116-271.116-271.116-149.495 0-271.117 121.622-271.117 271.116" style="fill:#978651;fill-opacity:1;fill-rule:nonzero;stroke:none" transform="matrix(1.33333 0 0 -1.33333 -.667 1121.853)"/><path d="M548.064 454.556c0-138.522-112.28-250.801-250.801-250.801-138.522 0-250.802 112.28-250.802 250.8 0 138.523 112.28 250.803 250.802 250.803 138.52 0 250.801-112.28 250.801-250.802M297.263 239.505c118.58 0 215.051 96.47 215.051 215.05s-96.471 215.053-215.051 215.053S82.21 573.136 82.21 454.556s96.472-215.051 215.052-215.051" style="fill:#254aa5;fill-opacity:1;fill-rule:nonzero;stroke:none" transform="matrix(1.33333 0 0 -1.33333 -.667 1121.853)"/><path d="M279.063 315.698v-23.845l.046-.551c-39.62 4.377-76.242 23.074-103.282 52.767-27.61 30.32-42.815 69.557-42.815 110.487 0 90.568 73.683 164.25 164.25 164.25 47.56 0 92.198-20.346 123.483-56.05l.156-.192-16.202-17.2-.805-.875c-26.64 31.62-65.126 49.617-106.631 49.617-76.949 0-139.55-62.602-139.55-139.55 0-70.016 52.095-129.317 121.352-138.37zm36.4-23.683v23.603l.04.574c44.283 5.797 82.633 32.157 104.1 71.266l.528-.486 17.156-18.211-.394-.615c-26.446-42.5-71.435-71.268-121.388-76.833z" style="fill:#231f20;fill-opacity:1;fill-rule:nonzero;stroke:none" transform="matrix(1.33333 0 0 -1.33333 -.667 1121.853)"/><path d="M315.463 535.44v23.766h39.219v-24.7h-39.178zm-53.679-46.11h59.312v24.7h-56.929l-.054.88v19.596h14.95v24.158l.055.542h-39.705v-48.1l.762-.754 20.598-21.06z" style="fill:#231f20;fill-opacity:1;fill-rule:nonzero;stroke:none" transform="matrix(1.33333 0 0 -1.33333 -.667 1121.853)"/><path d="M309.613 520.448v64.558h-24.7v-64.435l.04-.691h24.7z" style="fill:#231f20;fill-opacity:1;fill-rule:nonzero;stroke:none" transform="matrix(1.33333 0 0 -1.33333 -.667 1121.853)"/><path d="M273.863 297.743v13.406l.043.54c-69.592 11.31-121.394 71.761-121.394 142.867 0 79.816 64.936 144.75 144.75 144.75 41.079 0 79.307-16.994 106.728-47.04l.36.312 9.481 10.066-.377.423c-30.085 32.253-71.827 50.54-116.191 50.54-87.7 0-159.05-71.35-159.05-159.051 0-39.631 14.724-77.625 41.46-106.985 24.866-27.308 58.099-45.011 94.235-50.355zm46.8.121v13.448l.044.39c41.685 6.787 77.89 31.238 99.896 67.127l.365-.328 9.748-10.348-.154-.261c-24.773-37.895-64.983-63.952-109.86-70.659z" style="fill:#978651;fill-opacity:1;fill-rule:nonzero;stroke:none" transform="matrix(1.33333 0 0 -1.33333 -.667 1121.853)"/><path d="M320.663 553.274v-13.569h28.818v14.3h-28.777zm-56.875-58.744h52.108v14.3h-56.994l.011.706v30.17h15.004l-.054.705v13.595h-29.25v-40.668l.367-.462 17.94-18.345z" style="fill:#978651;fill-opacity:1;fill-rule:nonzero;stroke:none" transform="matrix(1.33333 0 0 -1.33333 -.667 1121.853)"/><path d="M290.113 525.568v54.239h14.3V525.08h-14.26zm-16.594-85.57-52.306 53.487V351.044l-.37.266a130 130 0 0 0-13.894 11.921l-.036.543V528.56l66.962-68.472-.012-.492v-19.949zm47.724.246 52.068 53.241V351.151l.449.371a130 130 0 0 1 13.563 11.57l.287.329v165.138l-66.917-68.425-.03-.5v-19.988z" style="fill:#978651;fill-opacity:1;fill-rule:nonzero;stroke:none" transform="matrix(1.33333 0 0 -1.33333 -.667 1121.853)"/><path d="m245.077 445.842 13.444-13.748.392-.45v-99.776l-.307.13a128 128 0 0 0-13.578 5.16l-.415.195v108.956zm59.336 31.87V296.28l.041-.611a161 161 0 0 0-14.296-.006l-.045.82v181.798h14.3z" style="fill:#978651;fill-opacity:1;fill-rule:nonzero;stroke:none" transform="matrix(1.33333 0 0 -1.33333 -.667 1121.853)"/></svg>