<svg xmlns="http://www.w3.org/2000/svg" xml:space="preserve" viewBox="267.09 0.01 154.51 249.44"><path d="M2582.65 2603.67c320 0 579.42 259.41 579.42 579.41s-259.42 579.42-579.42 579.42c-319.99 0-579.41-259.42-579.41-579.42s259.42-579.41 579.41-579.41" style="fill:#ffcc08;fill-opacity:1;fill-rule:evenodd;stroke:none" transform="matrix(.13333 0 0 -.13333 0 596.6)"/><path d="M2582.65 2662.06c-287.74 0-521.01 233.29-521.01 521.02 0 143.87 58.32 274.14 152.6 368.42 94.29 94.28 224.54 152.61 368.41 152.61s274.12-58.33 368.41-152.61 152.61-224.55 152.61-368.42-58.32-274.12-152.61-368.4c-94.29-94.3-224.54-152.62-368.41-152.62m0 56.65c128.24 0 244.34 51.97 328.37 136.01 84.03 84.02 136.02 200.14 136.02 328.36 0 128.24-51.99 244.36-136.02 328.38-84.03 84.03-200.13 136.01-328.37 136.01s-244.33-51.98-328.37-136.01c-84.03-84.02-136.01-200.14-136.01-328.38 0-256.46 207.92-464.37 464.38-464.37" style="fill:#004999;fill-opacity:1;fill-rule:nonzero;stroke:none" transform="matrix(.13333 0 0 -.13333 0 596.6)"/><path d="M2582.65 2748.29c-240.13 0-434.79 194.67-434.79 434.79 0 120.06 48.67 228.77 127.35 307.44 78.68 78.69 187.38 127.36 307.44 127.36s228.76-48.67 307.44-127.36c78.68-78.67 127.36-187.38 127.36-307.44s-48.68-228.75-127.36-307.44c-78.68-78.67-187.38-127.35-307.44-127.35m0 56.63c104.43 0 198.98 42.34 267.4 110.76 68.43 68.44 110.77 162.99 110.77 267.4 0 104.43-42.34 198.98-110.77 267.4-68.42 68.44-162.97 110.77-267.4 110.77s-198.97-42.33-267.4-110.77c-68.43-68.42-110.76-162.97-110.76-267.4 0-208.85 169.31-378.16 378.16-378.16" style="fill:#171717;fill-opacity:1;fill-rule:nonzero;stroke:none" transform="matrix(.13333 0 0 -.13333 0 596.6)"/><path d="M2825.43 3354.06c-27.38 38.82-63.8 70.76-106.19 92.75-40.81 21.17-87.25 33.15-136.59 33.15-81.98 0-156.19-33.23-209.92-86.96-53.72-53.71-86.94-127.93-86.94-209.92 0-163.95 132.91-296.86 296.86-296.86 50.32 0 97.7 12.5 139.17 34.56 43.1 22.91 79.87 56.11 107.02 96.3l46.91-31.62c-32.37-47.89-76.13-87.42-127.39-114.68-49.45-26.29-105.86-41.2-165.71-41.2-195.23 0-353.5 158.29-353.5 353.5 0 97.62 39.58 186 103.55 249.96 63.97 63.97 152.34 103.56 249.95 103.56 58.51 0 113.76-14.3 162.48-39.58 50.56-26.23 93.96-64.25 126.54-110.44z" style="fill:#fff;fill-opacity:1;fill-rule:nonzero;stroke:none" transform="matrix(.13333 0 0 -.13333 0 596.6)"/><path d="m2823.72 3045.83 74.32-51.89-28.31-15.35-46.01 28.32zm-7.08 283.15 74.32 51.91-25.96 12.99-43.64-31.85zm-303.44-76.45 141.8.35 27.74-18.86-40.7 93.79-15.93-18.87h-113.26v47.77h188.76l19.47-18.88-9.44 74.92h-273.71l18.88-18.87v-434.16l-25.36-14.75 25.95-18.28 74.92-23.61v7.09l-19.47 21.23zm275.13-263.32s-70.2-59.59-106.77-68.43l20.64 38.94z" style="fill:#fff;fill-opacity:1;fill-rule:evenodd;stroke:none" transform="matrix(.13333 0 0 -.13333 0 596.6)"/><path d="M2517.57 3057.26v22.07l-51.7 51.68.11-21.97zm37.75-45.63-32.22-13.28-89.31 89.67-5.53 13.19-.35 75.5 32.22 13.44 95.19-95.19z" style="fill:#ffcc08;fill-opacity:1;fill-rule:nonzero;stroke:none" transform="matrix(.13333 0 0 -.13333 0 596.6)"/><path d="M2712.23 3223.98h64.88l-18.52-18.87v-207.64l29.74-8.26s-70.2-59.59-106.77-68.43l20.64 38.94v179.32l-146.88-146.29-145.94 146.29v-141.57l19.71-46.6s-47.79 20.06-99.7 112.66h23.6v141.58l-18.87 18.87h65.47l155.73-155.72z" style="fill:#fff;fill-opacity:1;fill-rule:evenodd;stroke:none" transform="matrix(.13333 0 0 -.13333 0 596.6)"/><path d="M2607.58 2837.03v396.4h-56.39v-396.4z" style="fill:#fff;fill-opacity:1;fill-rule:evenodd;stroke:none" transform="matrix(.13333 0 0 -.13333 0 596.6)"/><path d="M2607.82 2827.71v405.49h18.87v-405.49zm-75.5 0v405.49h18.87v-405.49z" style="fill:#ffcc08;fill-opacity:1;fill-rule:nonzero;stroke:none" transform="matrix(.13333 0 0 -.13333 0 596.6)"/><path d="M2607.58 3327.81v141.58h-56.39v-141.58z" style="fill:#fff;fill-opacity:1;fill-rule:evenodd;stroke:none" transform="matrix(.13333 0 0 -.13333 0 596.6)"/><path d="M2607.82 3327.92v141.21h18.87v-141.21zm-75.5 0v141.21h18.87v-141.21z" style="fill:#ffcc08;fill-opacity:1;fill-rule:nonzero;stroke:none" transform="matrix(.13333 0 0 -.13333 0 596.6)"/><path d="M2778.78 3379.21c-50.18 50.2-119.54 81.25-196.13 81.25s-145.94-31.05-196.13-81.25c-50.19-50.17-81.24-119.53-81.24-196.13 0-69.36 25.43-132.77 67.48-181.37 42.64-49.29 102.35-83.42 169.94-93.16l-2.66-18.65c-72.19 10.41-135.98 46.85-181.51 99.49-44.94 51.95-72.13 119.67-72.13 193.69 0 81.82 33.17 155.88 86.77 209.49 53.61 53.62 127.68 86.78 209.48 86.78 81.81 0 155.87-33.18 209.48-86.78zm-164.74-471.75c36.17 4.06 70.22 15.07 100.77 31.66 31.47 17.09 59.27 40.09 81.89 67.5l14.53-11.94c-24.15-29.28-53.83-53.85-87.43-72.07-32.69-17.75-69.09-29.55-107.69-33.89z" style="fill:#ffcc08;fill-opacity:1;fill-rule:nonzero;stroke:none" transform="matrix(.13333 0 0 -.13333 0 596.6)"/><path d="M2661.03 4220.89h271.82l-218.96-164.22 84.94-260.49-218.03 160.45-218.02-160.45 85.88 260.49-220.85 164.22h270.88l82.11 253.65z" style="fill:#ffcc08;fill-opacity:1;fill-rule:evenodd;stroke:none" transform="matrix(.13333 0 0 -.13333 0 596.6)"/></svg>