<svg xmlns="http://www.w3.org/2000/svg" viewBox="0 -0.01 283.65 563.86"><path d="M169.086 4225.52v-335.48c0-43.8-13.008-78.15-39.02-103.02-26.011-24.88-64.574-37.31-115.691-37.31H0v73.24h13.684q37.65 0 56.82 16.44c12.777 10.95 19.168 28.52 19.168 52.72V4155H15.734v70.51zm144.805-410.09h73.25v410.09h79.414v-403.25q-.001-75.99-79.414-75.99h-73.25q-79.414 0-79.414 75.99v403.25h79.414zm298.375 11.64c20.543 0 37.316 10.38 50.32 31.15q19.502 31.155 19.504 76.32v290.98h79.433V3931.8c0-58.41-16.777-103.36-50.32-134.85-33.547-31.5-81.359-47.24-143.437-47.24h-39.032v475.81h79.414v-398.45zm403.484 325.86H904.832v-125.96h91.738l-13.683-69.82h-78.055v-134.88h116.388l-13.68-72.56H825.418v475.81h176.652zm206.22-102.68v175.27h75.99v-475.81h-75.99v162.25l-74.63 162.25h-4.09v-324.5h-76.01v475.81h74.63l75.32-175.27zm334.26 175.27 13.68-74.63h-76.68v-401.18h-79.41v401.18h-76.67l13.68 74.63zm133.35-410.09h73.25v410.09h79.41v-403.25q0-75.99-79.41-75.99h-73.25q-79.41 0-79.41 75.99v403.25h79.41zm289.97 91.74v-94.47h67.77v65.7c0 15.98-2.28 28.3-6.84 36.98-4.56 8.66-13.01 17.11-25.33 25.33l-71.21 47.24c-13.23 8.67-23.27 19.85-30.11 33.55-6.85 13.69-10.27 27.61-10.27 41.76v89.01c0 24.17 6.96 43 20.88 56.46 13.92 13.47 31.38 20.21 52.37 20.21h73.25c26.02 0 44.73-6.28 56.15-18.83 11.41-12.56 17.12-31.62 17.12-57.18v-62.29l-77.37-20.53v94.46h-67.08v-71.87c0-12.33 2.28-22.49 6.84-30.47 4.56-7.99 12.55-15.64 23.95-22.93l67.78-44.5c31.03-20.55 46.55-48.84 46.55-84.89v-93.12c0-24.18-6.85-41.98-20.54-53.39-13.69-11.42-31.72-17.12-54.07-17.12h-68.47c-26.93 0-46.9 5.59-59.9 16.77-13.01 11.19-19.51 29.33-19.51 54.43v89.69zM1.332 3001.84v374.98H1281.92V1643.43c0-565.76-162.07-774.828-962.389-1126.301C214.48 646.73 153.512 752.77 103.711 877.961c327.238 147.599 428.613 209.149 428.613 209.149 251.981 152.23 318.016 245.46 318.016 631.99v1282.74z" style="fill:#100f0d;fill-opacity:1;fill-rule:nonzero;stroke:none" transform="matrix(.13333 0 0 -.13333 0 563.853)"/><path d="M1692.27 3376.82h435.12V1477.17c0-422.42-129.96-790.869-409.93-1057.69C1573.29 277.25 1324.76 117.191 1064.11 0 876.402 90.54 788.105 139.082 644.277 231.102 1354.4 576.441 1692.27 797.691 1692.27 1590.37z" style="fill:#100f0d;fill-opacity:1;fill-rule:nonzero;stroke:none" transform="matrix(.13333 0 0 -.13333 0 563.853)"/></svg>