<svg xmlns="http://www.w3.org/2000/svg" viewBox="0 0 590.64 590.64"><path d="M59.233 204.5V68.833l-12.966 8V199.5z" style="fill:#fb090b" transform="matrix(3.9574 0 0 4.20102 3.953 -280.518)"/><path d="M176.814 554.43V34.242l-51.312 42.406v435.376z"/><path d="M20.267 106.833V169.5l12.966 20V86.833z" style="fill:#fb090b" transform="matrix(3.9574 0 0 4.52696 -19.471 -329.918)"/><path d="m14.413 380.405 39.712 47.49V160.108l-39.712 59.36z"/><path d="m305.215 13.356 89.041 19.787 1.326 227.933-90.268-1.272z" style="fill:#fff;fill-opacity:1;stroke:#fff;stroke-width:1px;stroke-linecap:butt;stroke-linejoin:miter;stroke-opacity:1"/><path d="m305.311 328.956 88.212 2.376.733 227.157-89.041 20.776z" style="fill:#fff;fill-opacity:1;stroke:#fff;stroke-width:.99449px;stroke-linecap:butt;stroke-linejoin:miter;stroke-opacity:1"/><path d="M394.256 33.143v525.346" style="fill:none;stroke:#ba9752;stroke-width:19.787;stroke-linecap:square;stroke-miterlimit:4;stroke-dasharray:none;stroke-opacity:.98995"/><path d="m462.216 61.895 76.458 82.707 42.074 115.276-117.234-.674ZM464.613 330.955l115.409.012-40.023 114.676-74.088 82.621z" style="fill:#fff;fill-opacity:1;stroke:#fff;stroke-width:1px;stroke-linecap:butt;stroke-linejoin:miter;stroke-opacity:1"/><path d="M465.49 70.739v450.154M305.314 328.959h268.51M305.314 259.804h268.51" style="fill:none;stroke:#ba9752;stroke-width:19.787;stroke-linecap:square;stroke-miterlimit:4;stroke-dasharray:none;stroke-opacity:.98995"/><path d="m125.733 79.833-12.966-8v59.65H85.233v-66.65l-12.966 2V209.5h12.966v-65.051h27.534V204.5l12.966-5v-55.051h32.85v-12.966h-32.85z" style="fill:#fb090b;stroke:#ba9752;stroke-width:0;stroke-miterlimit:4;stroke-dasharray:none;stroke-opacity:.98995" transform="matrix(3.9574 0 0 3.9574 -42.047 -250.8)"/><path d="M300.034 590.14V13.972h-58.092V569.66z"/><path d="M305.215 13.356v565.909" style="fill:none;stroke:#ba9752;stroke-width:19.787;stroke-linecap:square;stroke-miterlimit:4;stroke-dasharray:none;stroke-opacity:.98995"/><circle cx="295.321" cy="295.321" r="285.428" style="fill:none;stroke:#ba9752;stroke-width:19.787;stroke-miterlimit:4;stroke-dasharray:none;stroke-opacity:.98995"/><path d="M61.147 131.751v322.806" style="fill:none;stroke:#ba9752;stroke-width:14.9444;stroke-linecap:square;stroke-miterlimit:4;stroke-dasharray:none;stroke-opacity:.98995"/><path d="M119.622 79.087V511.83" style="fill:none;stroke:#ba9752;stroke-width:17.303;stroke-linecap:square;stroke-miterlimit:4;stroke-dasharray:none;stroke-opacity:.98995"/><path d="M178.876 42.295V544.27" style="fill:none;stroke:#ba9752;stroke-width:18.6358;stroke-linecap:square;stroke-miterlimit:4;stroke-dasharray:none;stroke-opacity:.98995"/><path d="M244.198 26.81v535.776" style="fill:none;stroke:#ba9752;stroke-width:19.253;stroke-linecap:square;stroke-miterlimit:4;stroke-dasharray:none;stroke-opacity:.98995"/></svg>