<svg xmlns="http://www.w3.org/2000/svg" xml:space="preserve" viewBox="0 0 384.13 566.93"><path fill="#FDE626" fill-rule="evenodd" d="M192.063 2.054c104.924 0 190.014 126.02 190.014 281.412 0 155.393-85.09 281.413-190.014 281.413C87.14 564.878 2.05 438.859 2.05 283.466 2.05 128.074 87.14 2.054 192.063 2.054" clip-rule="evenodd" style="fill:#fff;fill-opacity:1"/><path fill-rule="evenodd" d="M192.065 0c106.057 0 192.067 126.938 192.067 283.463 0 156.528-86.01 283.466-192.067 283.466C86.009 566.929 0 439.992 0 283.463 0 126.938 86.009 0 192.065 0m.002 16.416c96.993 0 175.649 119.586 175.649 267.045 0 147.462-78.656 267.048-175.649 267.048-96.991 0-175.647-119.586-175.647-267.048 0-147.459 78.657-267.045 175.647-267.045" clip-rule="evenodd"/><path fill="#FDE626" fill-rule="evenodd" d="M192.063 2.054c104.924 0 190.014 126.02 190.014 281.412 0 155.393-85.09 281.413-190.014 281.413C87.14 564.878 2.05 438.859 2.05 283.466 2.05 128.074 87.14 2.054 192.063 2.054m.002 12.312c98.125 0 177.701 120.505 177.701 269.098 0 148.595-79.575 269.101-177.701 269.101-98.124 0-177.7-120.506-177.7-269.101.001-148.593 79.576-269.098 177.7-269.098" clip-rule="evenodd"/><path fill-rule="evenodd" d="M187.741 147.269v274.518l-13.974.17-13.628-2.375V149.91l13.199-2.146z" clip-rule="evenodd"/><path fill="#E32939" fill-rule="evenodd" d="M160.116 149.625v269.501l-15.203-3.966-12.402-4.401V158.431l12.841-4.4z" clip-rule="evenodd"/><path fill-rule="evenodd" d="M132.489 158.285v252.486l-12.486-6.23-15.117-9.635V175.027l12.051-9.038z" clip-rule="evenodd"/><path fill="#E32939" fill-rule="evenodd" d="M104.864 174.726v220.18L91.721 383.46l-14.462-16.298V202.026l14.357-15.962zM275.297 178.688v89.981h49.831v35.061h-49.831v86.771l-17.128 13.415-17.931 7.724V303.73h-52.69v-35.061h52.69V157.551l17.454 8.229z" clip-rule="evenodd"/><path fill-rule="evenodd" d="M77.236 202.79v163.917c-14.85-18.725-25.663-43.697-27.603-82.399.405-37.456 12.683-61.25 27.603-81.518" clip-rule="evenodd"/><path fill-rule="evenodd" d="M187.316 137.003c81.523 0 147.634 66.111 147.634 147.635s-66.111 147.633-147.634 147.633S39.682 366.162 39.682 284.638s66.111-147.635 147.634-147.635m0 11.288c75.289 0 136.346 61.059 136.346 136.348 0 75.287-61.058 136.346-136.346 136.346S50.97 359.925 50.97 284.638c0-75.289 61.058-136.347 136.346-136.347" clip-rule="evenodd"/><path fill="#FDE626" fill-rule="evenodd" d="M187.316 139.056c80.388 0 145.582 65.193 145.582 145.583 0 80.387-65.193 145.58-145.582 145.58S41.735 365.025 41.735 284.638c0-80.389 65.193-145.582 145.581-145.582m0 7.183c76.423 0 138.399 61.976 138.399 138.399 0 76.422-61.976 138.398-138.399 138.398S48.917 361.06 48.917 284.638c0-76.424 61.976-138.399 138.399-138.399" clip-rule="evenodd"/><path fill-rule="evenodd" d="M110.953 494.615c.403.049 1.408.25 1.513-.611l4.555-37.355.139-1.463.01-1.049-.075-.654-.094-.281-.022-.033-.012-.008-.199-.076-.534-.096-7.184-.889 1.027-8.424 4.377-.24 2.001-.387 1.541-.576 1.191-.73.968-.887.826-1.061.745-1.246 1.363-2.75 12.178 1.488-7.08 58.543c-.084.688.243.908 1.161 1.02l4.478.547-1.563 12.84-27.234-3.32 1.562-12.826z" clip-rule="evenodd"/><path fill="#FDE626" d="M126.124 495.787c-.339 2.797.9 2.895 3.149 3.164l2.262.271-1.062 8.729-23.161-2.824 1.065-8.748 2.361.291c2.021.248 3.48-.072 3.756-2.336l4.568-37.465c.565-4.633-.277-5.633-2.521-5.91l-5.206-.645.571-4.684c8.168.021 10.427-3.463 12.376-7.619l8.701 1.064z"/><path fill-rule="evenodd" d="M166.641 453.259c-3.349-.006-4.778 2.891-4.598 5.031.244 2.898 3.123 6.195 4.533 7.748 2.076-1.777 4.401-4.625 4.452-7.424.04-2.177-1.352-5.349-4.387-5.355m-5.23 47.782c3.071.199 5.293-1.781 5.6-4.309.424-3.514-2.663-6.74-5.32-10.045-2.255 1.896-5.305 5.559-5.28 8.773.019 2.313 1.006 5.321 5 5.581m.886 13.4c-12.923-.506-22.115-9.361-21.928-21.6.12-7.727 4.11-13.572 10.504-18.33-2.796-4.16-5.635-10.572-5.402-16.045.511-12.004 9.545-19.842 20.106-19.41 8.659.357 15.282 4.74 17.942 13.061.616 1.93.978 4.541.928 6.221-.2 6.641-3.7 12.816-8.672 17.244 5.064 5.146 9.557 11.061 9.495 17.615-.123 13.086-11.053 21.709-22.973 21.244" clip-rule="evenodd"/><path fill="#FDE626" d="M173.023 459.474c.35-1.861-.674-7.971-6.246-8.277-4.61-.256-6.659 3.967-6.826 6.154-.196 2.529 1.025 4.518 2.006 6.143 1.28 2.113 3.229 4.025 4.353 5.314 3.828-2.541 6.101-6.088 6.713-9.334m-11.072 24.229c-2.841 2.547-6.71 5.594-7.515 10.82-.323 2.107.238 8.402 7.055 8.639 5.593.191 7.482-4.283 7.634-6.426.349-4.854-3.974-8.778-7.174-13.033m21.047 12.673c-1.504 8.781-8.949 16.268-20.658 16.059s-20.268-8.617-19.914-19.604c.132-4.063.996-7.023 3.382-10.488 1.747-2.539 5.24-5.691 7.969-7.309-3.254-4.283-6.183-9.877-6.248-16.541-.079-8.287 6.607-17.875 17.999-17.432 9.33.361 16.58 6.518 16.829 16.436.077 3.1-.808 6.617-2.258 9.385-1.865 3.563-4.462 6.041-7.239 8.635 2.019 2.119 5.762 5.781 8.012 9.658 1.727 2.975 2.852 6.967 2.126 11.201"/><path fill-rule="evenodd" d="M195.688 501.523c-1.392-5.385.026-13.49 7.238-15.137l.598-.049c-7.079-4.691-10.368-12.188-11.077-20.627-.961-11.451 2.258-23.146 14.459-25.686 14.756-3.072 22.056 8.691 25.182 23.455 1.929 9.109 2.947 18.34 1.738 27.594-1.747 13.369-6.213 22.004-19.335 23.023-7.737.603-16.96-5.45-18.803-12.573m13.229-13.635c2.149 1.93 2.876 3.801 2.86 6.697-.012 2.539-1.269 4.34-3.272 5.893.97 1.543 2.145 2.291 3.906 1.982 5.819-1.018 4.647-12.684 4.012-16.797-2.622 2.079-4.946 2.547-7.506 2.225m1.144-33.267c-3.33.541-2.4 7.301-1.947 10.188.55 3.496 3.34 8.686 5.448 8.361 2.707-.418 2.165-6.996 1.545-10.078-.482-2.401-2.271-8.921-5.046-8.471" clip-rule="evenodd"/><path fill="#FDE626" d="M231.792 490.804c-1.262 9.527-3.438 20.008-17.459 21.234-7.459.65-17.068-5.867-17.094-14.064-.008-2.502.565-4.75 1.713-6.553 1.078-1.689 2.661-3.021 5.196-3.078 4.628-.104 5.57 4.203 5.573 6.223.002 1.934-1.266 3.707-3.577 5.031.096 2.219 2.496 5.371 6.489 4.916 6.751-.77 7.561-10.809 5.111-23.381-.766 1.445-3.414 4.475-7.104 4.805-8.361.75-14.654-8.77-15.959-18.641-1.201-9.105.134-23.211 12.573-25.357 15.891-2.74 20.52 12.154 22.833 22.008 1.967 8.373 2.834 18.326 1.705 26.857m-22.12-38.23c-4.17.889-4.778 5.93-3.575 12.631 1.195 6.645 5.381 10.734 7.807 10.131 4.036-1.002 4.409-6.902 3.215-12.654-1.065-5.124-3.404-10.966-7.447-10.108"/><path fill="#FDE626" d="M231.792 490.804c-1.262 9.527-3.438 20.008-17.459 21.234-7.459.65-17.068-5.867-17.094-14.064-.008-2.502.565-4.75 1.713-6.553 1.078-1.689 2.661-3.021 5.196-3.078 4.628-.104 5.57 4.203 5.573 6.223.002 1.934-1.266 3.707-3.577 5.031.096 2.219 2.496 5.371 6.489 4.916 6.751-.77 7.561-10.809 5.111-23.381-.766 1.445-3.414 4.475-7.104 4.805-8.361.75-14.654-8.77-15.959-18.641-1.201-9.105.134-23.211 12.573-25.357 15.891-2.74 20.52 12.154 22.833 22.008 1.967 8.373 2.834 18.326 1.705 26.857m-22.12-38.23c-4.17.889-4.778 5.93-3.575 12.631 1.195 6.645 5.381 10.734 7.807 10.131 4.036-1.002 4.409-6.902 3.215-12.654-1.065-5.124-3.404-10.966-7.447-10.108"/><path fill-rule="evenodd" d="M246.867 495.382c-1.979-5.199-1.463-13.41 5.523-15.844l.588-.113c-7.553-3.883-11.649-10.969-13.285-19.279-2.22-11.275-.312-23.254 11.535-27.125 14.327-4.682 22.881 6.205 27.617 20.533 2.922 8.842 4.953 17.902 4.772 27.234-.261 13.48-3.746 22.555-16.675 25.016-7.622 1.451-17.458-3.545-20.075-10.422m11.643-15.011c2.349 1.682 3.278 3.461 3.583 6.34.268 2.527-.783 4.455-2.603 6.219 1.133 1.426 2.384 2.041 4.102 1.539 5.671-1.654 3.219-13.119 2.133-17.137-2.376 2.355-4.635 3.076-7.215 3.039m-2.535-33.19c-3.25.904-1.579 7.521-.811 10.34.933 3.414 4.278 8.264 6.337 7.709 2.645-.715 1.38-7.191.424-10.188-.743-2.332-3.241-8.615-5.95-7.861" clip-rule="evenodd"/><path fill="#FDE626" d="M281.566 480.744c-.202 9.609-1.209 20.266-15.008 23.031-7.342 1.471-17.612-3.947-18.542-12.092-.283-2.486.038-4.783.979-6.701.885-1.799 2.312-3.297 4.824-3.633 4.589-.613 6 3.564 6.227 5.57.215 1.922-.849 3.822-3.001 5.395.341 2.195 3.074 5.064 6.993 4.17 6.625-1.51 6.321-11.576 2.5-23.801-.603 1.52-2.9 4.822-6.531 5.559-8.228 1.668-15.532-7.1-17.918-16.766-2.199-8.918-2.429-23.084 9.698-26.59 15.491-4.477 21.735 9.816 25.122 19.354 2.879 8.105 4.84 17.902 4.657 26.504m-26.203-35.555c-4.047 1.344-4.095 6.422-2.159 12.949 1.921 6.471 6.532 10.072 8.877 9.207 3.901-1.443 3.621-7.348 1.799-12.932-1.625-4.976-4.593-10.523-8.517-9.224"/><path fill="#FDE626" d="M281.566 480.744c-.202 9.609-1.209 20.266-15.008 23.031-7.342 1.471-17.612-3.947-18.542-12.092-.283-2.486.038-4.783.979-6.701.885-1.799 2.312-3.297 4.824-3.633 4.589-.613 6 3.564 6.227 5.57.215 1.922-.849 3.822-3.001 5.395.341 2.195 3.074 5.064 6.993 4.17 6.625-1.51 6.321-11.576 2.5-23.801-.603 1.52-2.9 4.822-6.531 5.559-8.228 1.668-15.532-7.1-17.918-16.766-2.199-8.918-2.429-23.084 9.698-26.59 15.491-4.477 21.735 9.816 25.122 19.354 2.879 8.105 4.84 17.902 4.657 26.504m-26.203-35.555c-4.047 1.344-4.095 6.422-2.159 12.949 1.921 6.471 6.532 10.072 8.877 9.207 3.901-1.443 3.621-7.348 1.799-12.932-1.625-4.976-4.593-10.523-8.517-9.224"/><path fill-rule="evenodd" d="m135.963 35.926-63.51 120.776 22.129-8.689 18.027-35.266h22.396l3.138 17.979 16.038-6.425zm-15.287 61.04 8.631-16.886 2.945 16.886z" clip-rule="evenodd"/><path fill="#FDE626" fill-rule="evenodd" d="M135.111 41.956 76.836 152.777l16.272-6.389 18.244-35.692h25.378l2.999 17.186 12.096-4.845zm-17.788 57.063 12.952-25.337 4.42 25.337z" clip-rule="evenodd"/><path fill-rule="evenodd" d="m218.615 118.455 15.64 7.093 3.27-30.094 9.989 13.138 5.222-19.876 31.294 60.028 24.625 11.887-61.124-112.024-4.971 22.632-14.164-21.626z" clip-rule="evenodd"/><path fill="#FDE626" fill-rule="evenodd" d="m220.862 117.222 11.659 5.286 3.52-32.396 10.558 13.886 5.5-20.939 33.436 64.134 18.258 8.812-55.435-101.596-4.839 22.039-13.856-21.156z" clip-rule="evenodd"/><path fill-rule="evenodd" d="M187.129 35.713c10.314-.234 18.708 4.614 26.4 12.014l-9.241 10.249c-5.192-5.059-10.68-8.295-17.231-8.01-13.938.607-23.145 13.1-23.145 27.044 0 13.943 8.629 26.786 23.467 27.042 7.7.133 12.695-3.809 18.15-9.592l10.815 9.691c-6.594 8.97-17.396 15.708-29.209 15.476-22.357-.439-37.343-19.89-37.453-41.956-.108-21.53 14.92-41.447 37.447-41.958" clip-rule="evenodd"/><path fill="#FDE626" fill-rule="evenodd" d="M187.163 37.767c9.025 0 17.257 3.801 23.513 10.061l-6.528 7.24c-4.486-4.459-10.346-7.156-16.765-7.156-14.093 0-25.523 13.034-25.523 29.099 0 16.069 11.431 29.099 25.523 29.099 7.163 0 13.633-3.368 18.269-8.786l7.844 7.029c-6.485 8.113-15.878 13.221-26.332 13.221-19.562 0-35.426-17.869-35.426-39.902-.001-22.036 15.863-39.905 35.425-39.905" clip-rule="evenodd"/></svg>