<svg xmlns="http://www.w3.org/2000/svg" xmlns:xlink="http://www.w3.org/1999/xlink" viewBox="15.42 138.85 564.44 564.18"><path d="M222.233 349.753c-3.068 1.807-6.285 2.97-10.382 2.96-9.225-.024-16.41-8.263-16.361-17.258.053-9.834 9.18-18.404 18.927-18.404 3.958 0 7.777.46 11.59 1.533q2.682.758 5.356 1.54c19.512-20.91 43.702-32.324 73.407-32.285 57.284.074 101.751 48.563 101.74 104.833-.01 49.336-28.583 85.63-73.772 101.19l.165 13.878-30.162 43.52-33.254-37.283 9.98-11.074-82.454-68.434 28.658-29.697 37.556 37.279 15.189-52.12-6.308-26.284zm77.827 94.037-12.25 22.769 12.441 12.324 8.504-10.361 1.8-.427zm64.144-72.538q-.603.073-1.232.094l-32.763 1.033-7.794 18.69 18.091 64.271c18.13-14.522 28.451-35.496 28.22-59.967a70 70 0 0 0-4.522-24.121m-89.897-43.703a66 66 0 0 0-3.574 1.26l3.52.734q.018-.998.054-1.994" style="fill:#fff;fill-rule:evenodd"/><path d="M220.08 336.794c-2.523 1.9-5.06 4.02-8.2 4.013-2.355-.006-4.5-2.622-4.485-5.288.014-2.637 3.176-6.537 7.022-6.562 2.937.025 5.622.316 8.362 1.087 4.185 1.179 8.35 2.425 12.525 3.638 17.414-21.12 39.637-33.976 69.45-33.938 53.528.07 89.86 46.25 89.85 92.926-.008 41.967-23.592 78.743-73.876 92.437l.225 18.974-19.388 27.975-16.088-18.038 11.136-12.357-82.123-68.158 11.363-11.776 43.2 42.882 21.677-74.383-8.68-36.168zm81.155 79.685 25.875 59.925-11.7 2.775-14.25 17.363-28.051-27.788zm-61.36-81.952 34.124 7.126c8.221-.032 15.042.744 20.664 2.212v-2.166c0-.5-1.008-2.006-1.66-2.296-.465-.207-.824-.127-1.265-.038-.558.113-.748.564-1.613.563-2.023-.003-3.502-3.518-3.814-6.096-.34-2.82-.054-6.464.027-9.805l-2.1-3.562 3.694-3.62 8.476.076c4.566.04 7.866 2.883 8.625 8.306.372 2.66.1 5.979-.75 8.794.538 5.112 1.15 9.587 1.688 14.7l34.125 2.138a1525 1525 0 0 1-13.181-16.52c-4.742-1.069-8.346-2.185-8.569-7.668-.15-3.68 2.492-8.02 5.7-8.1 3.005-.075 4.827 3.924 5.025 9.15.03.772.441 1.247.938 1.688l32.813 29.175c.599.532.243.848-.225.862l-40.426 1.275-12.338 29.588 23.624 83.926c28.47-15.481 47.51-43.394 47.175-78.974-.427-45.39-38.48-83.337-84.975-82.95-21.764.18-40.43 7.925-55.783 22.216" style="fill:#039;fill-rule:evenodd"/><path d="m168.5 396.39 17.662-45.937 11.06-8.383a17.3 17.3 0 0 1-1.29-6.618c.006-1.124.13-2.233.361-3.313l-11.406 8.864-15.825-18.415a160.76 160.76 0 0 0-32.618 81.348l25.008-3.005 34.95 47.1-4.838 62.363L169 519.558a163 163 0 0 0 13.983 15.894c15.428 15.399 33.533 27.336 53.237 35.367l4.205-19.513 47.855-16.755-6.376-7.148-44.478 15.653-37.575-31.275 4.986-65.102zM227.164 318.784l48.925-38.005 43.52-.018 14.535 11.407a98 98 0 0 1 4.19 1.389l11.01-.08-20.962-16.238 7.61-13.155a162.5 162.5 0 0 0-38.686-4.637 162.5 162.5 0 0 0-38.077 4.526l7.484 13.432-51.004 39.651c3.656.062 7.2.53 10.74 1.526zM409.287 350.498l17.849 46.05-28.401 38.81a98 98 0 0 1-7.622 14.607l4.652 61.748-37.482 31.613-39.761-14.2-5.235 7.554 41.414 14.427 4.682 19.36c19.415-8.046 37.252-19.894 52.477-35.116a163 163 0 0 0 14.134-16.121l-22.147-8.98-4.687-62.101 35.026-47.175 24.123 2.928a160.75 160.75 0 0 0-32.107-80.668l-15.49 18.001-29.1-22.8-.006 5.23a106 106 0 0 1 9.565 13.191zM476.61 250.969l6.375 7.78-5.25 7.032c6.599-.544 11.312.735 15.205 4.916 2.587 2.778 3.716 5.963 3.733 9.898.028 6.695-6.789 13.374-9.07 15.187L471.5 308.58l-12.797-16.078 7.406-5.813 6 7.734 7.5-5.882c2.32-1.82 7.259-6.137 7.29-9.328.027-2.941-2.897-5.148-6.095-5.156-5.854-.016-17.155 7.036-27.048 12.21l-7.172-8.906c6.242-3.133 12.474-6.321 18.844-8.625zM458.997 235.362l8.39 7.5-26.718 29.532-8.531-7.406zM420.372 207.191l9.14 6.094-13.454 29.578c5.31 1.197 8.942-1.374 12.001-5.718l12-17.04 8.766 6.048-12.563 17.062c-4.52 6.14-10.237 9.03-16.312 8.907-5.137-.105-9.974-1.416-14.672-3.234l-12.142-4.593 3.797-8.297 9.844 4.125zM347.193 621.13l10.327-3.747 15.843 28.37c4.112-3.568 4.194-8.016 2.51-13.055l-6.608-19.765 10.067-3.474 6.293 20.232c2.264 7.28 1.202 13.598-2.5 18.417-3.129 4.075-7.052 7.193-11.302 9.898l-10.897 7.056-4.43-7.977 9.157-5.482zM250.275 620.895l10.854 1.7.186 32.494c5.323-1.14 7.541-4.997 8.497-10.224l3.751-20.5 10.494 1.815-4.252 20.758c-1.53 7.468-5.508 12.49-11.076 14.925-4.707 2.058-9.648 2.896-14.676 3.215l-12.949.92-.031-9.124 10.666-.382zM373.738 186.291l35.672 14.672-3.533 8.534-5.748-2.253-11.696 28.43-10.008-4.172 11.93-28.29-20.275-8.296zM210.836 190.312l37.092-10.577 2.513 8.888-5.909 1.792 8.427 29.564-10.44 2.924-8.157-29.599-21.056 6.044zM351.492 181.064l10.57 2.578-9.633 38.72-10.687-2.72zM190.046 200.204l9.84-4.644 16.863 36.16-10.019 4.609zM327.628 177.034l10.876 1.5-7.712 54.539-10.923-1.57zM258.974 178.463l2.601 8.274c2.549-1.35 5.326-2.204 8.438-2.203 6.605.002 11.665 4.642 11.672 12.633.006 7.859-6.114 12.059-12.398 12.094-2.165.012-4.148-.267-6-.891l-.75 8.578c1.758.36 4.024.52 6.047.516 15.166-.04 24.386-7.804 24.375-20.25-.01-11.306-6.742-21.093-20.813-21.14-4.701-.016-9.097.71-13.173 2.39M148.835 225.413c7.413-6.072 14.709-12.417 23.906-12.75 5.38-.195 9.968 2.646 13.828 8.578l12.141 18.656-9 5.766-10.687-16.5c-2.07-3.196-4.658-5.93-8.625-5.859-5.1.091-10.636 4.459-16.079 9.047zM438.602 571.598c5.545-7.816 13.013-18.77 22.17-20.958 5.236-1.252 10.196-.688 15.51 3.985l16.945 14.901-7.344 8.033-14.621-13.17c-2.828-2.547-5.81-4.107-9.714-3.4-5.081.918-11.787 9.987-15.823 15.851zm21.34 3.913 15.704 13.922-7.22 8.016-15.75-13.828zM131.943 543.347c7.131 6.4 17.162 15.07 18.29 24.418.646 5.344-.48 10.208-5.729 14.954l-16.737 15.133-7.143-8.213 14.753-13.023c2.854-2.518 4.743-5.303 4.487-9.262-.333-5.153-8.577-12.85-13.942-17.529zm-6.324 20.755-15.623 14.012-7.14-8.087 15.536-14.069zM121.647 249.368c4.71-5.696 9.301-10.309 15.422-10.336 3.835-.017 6.934 2.032 9.704 5.11 2.018 2.241 4.041 4.49 6.234 6.562 1.206 1.14 2.512 2.198 3.938 3.047l11.063 6.586-7.64 7.29-8.204-5.063c-2.735 3.44-1.82 7.894-.047 12.586l-7.688 7.172c-1.403-3.7-2.928-7.487-3.047-12.328-.097-3.94 1.413-7.765 4.78-11.391l-4.57-4.968c-1.741-1.893-3.554-3.645-6.024-3.703-3.302-.078-5.33 2.527-7.64 4.969zM79.093 277.652l6.656-8.672 12.141 9.152 12.61-16.957 12.212 9.398c2.255 1.735 3.976 3.988 5.039 6.891.57 1.56 1.05 3.126 1.594 4.694.77 2.219 2.763 4.132 4.711 5.596l3.961 2.976-6.164 8.533-6.586-4.875c-2.403-1.78-3.937-4.516-4.851-7.548-.89-3.789-2.347-6.433-4.923-8.414l-4.055-3.118-12.61 16.923zM308.315 610.938l10.838-1.432 2.122 15.055 20.905-3.086 1.998 15.28c.37 2.82-.004 5.631-1.304 8.436-.698 1.506-1.466 2.954-2.19 4.448-1.023 2.113-.964 4.875-.62 7.288l.699 4.905-10.391 1.681-1.215-8.103c-.443-2.958.406-5.978 1.901-8.769 2.048-3.31 2.886-6.21 2.464-9.432l-.666-5.071-20.88 3.062zM169.935 561.585l8.663 6.667-9.168 12.129 16.942 12.631-9.414 12.2c-1.738 2.253-3.992 3.972-6.897 5.03-1.56.57-3.127 1.047-4.696 1.59-2.22.766-4.135 2.757-5.601 4.703l-2.982 3.957-8.524-6.174 4.883-6.58c1.782-2.401 4.52-3.932 7.553-4.842 3.79-.886 6.437-2.339 8.42-4.912l3.123-4.051-16.906-12.63zM405.471 597.635c7.41-9.18 15.626-15.79 25.734-15.75 11.604.044 19.428 11.025 19.406 20.483-.027 12.415-10.776 20.269-24.094 25.595l-2.765-7.172c10.024-3.265 16.702-8.478 16.663-15.892-.035-6.828-6.5-14.12-13.079-14.133-4.267-.008-7.343 2.684-10.5 5.39l3.48 4.61c.822 1.09 2.158 2 3.187 1.97 1.143-.035 2.41-.671 3.762-1.986l5.555 4.383c-3.013 4.511-7.468 7.23-11.672 7.218-5.398-.014-8.478-4.38-15.677-14.716M210.664 608.825c11.745 1.11 21.792 4.31 27.34 12.76 6.37 9.7 1.534 22.285-6.364 27.49-10.367 6.83-22.85 2.205-34.643-5.959l4.453-6.265c8.257 6.555 16.29 9.245 22.45 5.12 5.673-3.8 8.185-13.215 4.563-18.708-2.35-3.563-6.292-4.641-10.292-5.78l-1.922 5.448c-.454 1.286-.476 2.903.118 3.744.66.934 1.89 1.64 3.732 2.04l-.587 7.052c-5.425-.022-10.151-2.234-12.463-5.746-2.968-4.51-1.028-9.488 3.615-21.196M386.924 605.62l9.75-5.063 18.515 35.296-9.75 4.97zM194.134 597.705l9.521 5.48-19.739 34.628-9.442-5.531zM294.674 455.8h12.89v27.504h-8.696l-.023-19.265-4.171.011z" style="fill:#039;fill-rule:evenodd"/><path d="M359.08 486.54h22.22v30.048h-8.415l.036-22.395-13.84.082z" style="fill:#039;fill-rule:evenodd"/><path d="M359.217 502.748v13.875h9.188v-13.875zM329.14 486.154h23.374v30.376H329.14v-6.822h15.094l.007-15.18-6.92.02.013 5.5-8.194.002zM244.634 486.335h11.03l8.087 18.89-.035-10.71-2.042.003v-8.183h11.132v29.86h-28.172v-6.421h11.197l-6.396-16.23-2.9-.02-1.901-2.008zM215.76 473.703h8.132v12.821h17.707l-8.238 30.099-12.158.004.014-7.378 5.988-.03 2.781-14.703H215.76z" style="fill:#039;fill-rule:evenodd"/><path d="M297.629 253.04c-46.45-.024-88.516 18.776-118.98 49.193-30.455 30.409-49.305 72.43-49.33 118.854-.025 46.427 18.784 88.475 49.215 118.925 30.422 30.442 72.462 49.283 118.908 49.309 46.449.024 88.516-18.776 118.979-49.193 30.455-30.408 49.305-72.43 49.33-118.854.026-46.427-18.783-88.475-49.214-118.925-30.422-30.442-72.462-49.283-118.908-49.308m-124.958 43.18c31.985-31.936 76.165-51.676 124.958-51.65 48.796.027 92.962 19.82 124.92 51.8 31.95 31.97 51.7 76.132 51.673 124.904-.027 48.776-19.828 92.922-51.822 124.867-31.985 31.936-76.166 51.676-124.958 51.65-48.796-.027-92.962-19.82-124.92-51.8-31.951-31.97-51.7-76.132-51.673-124.904.026-48.775 19.828-92.922 51.822-124.866" style="fill:#039;fill-rule:evenodd"/><path d="M297.638 150.175c-74.802.434-142.529 31.141-191.558 80.436-49.03 49.294-79.352 117.17-79.346 191.941h.022c0 3.15-.028-.338-.017 1.595.43 74.12 30.672 141.015 79.349 189.382 48.675 48.365 115.785 78.196 189.952 78.19v-.022c3.157 0-.341.029 1.597.018 74.803-.435 142.53-31.142 191.56-80.437 49.028-49.294 79.35-117.17 79.345-191.94h-.022c0-3.151.028.336.017-1.595-.43-74.12-30.673-141.015-79.35-189.382-48.675-48.366-115.785-78.197-189.952-78.191v.022c-3.157 0 .342-.028-1.597-.017M98.063 222.638c51.054-51.33 121.598-83.305 199.53-83.758 3.02-.017-.437-.027 1.642-.027v.022c77.284-.006 147.21 31.076 197.926 81.468 50.714 50.392 82.222 120.103 82.67 197.355.018 3.01.027-.433.027 1.64h-.022c.006 77.889-31.569 148.583-82.623 199.913s-121.598 83.305-199.531 83.758c-3.02.017.436.027-1.642.027v-.022c-77.283.006-147.21-31.076-197.925-81.468-50.714-50.392-82.222-120.102-82.67-197.354-.018-3.012-.028.431-.028-1.64h.022c-.005-77.89 31.57-148.583 82.624-199.914" style="fill:#039;fill-rule:evenodd"/><path d="M172.521 545.992c-31.95-31.971-51.699-76.133-51.672-124.905.026-48.775 19.828-92.922 51.822-124.866 31.985-31.937 76.165-51.677 124.958-51.65 48.796.026 92.962 19.82 124.92 51.799 31.95 31.97 51.7 76.132 51.673 124.904-.027 48.776-19.828 92.922-51.822 124.867-31.985 31.936-76.166 51.676-124.958 51.65-48.796-.027-92.962-19.82-124.92-51.8m17.19-300.33-10.688-16.5c-2.07-3.195-4.658-5.929-8.625-5.858-5.1.091-10.636 4.459-16.079 9.047l-5.484-6.938c7.414-6.072 14.709-12.417 23.906-12.75 5.38-.195 9.968 2.646 13.828 8.578l12.141 18.656zm-83.632-15.05c-49.028 49.293-79.35 117.169-79.345 191.94h.022c0 3.15-.028-.338-.017 1.595.43 74.12 30.672 141.015 79.349 189.382 48.675 48.365 115.785 78.196 189.952 78.19v-.022c3.157 0-.341.029 1.597.018 74.803-.435 142.53-31.142 191.56-80.437 49.028-49.294 79.35-117.17 79.345-191.94h-.022c0-3.151.028.336.017-1.595-.43-74.12-30.673-141.015-79.35-189.382-48.675-48.366-115.785-78.197-189.952-78.191v.022c-3.157 0 .342-.028-1.597-.017-74.802.434-142.529 31.141-191.558 80.436m9.414 47.814-4.055-3.118-12.61 16.923-19.735-14.58 6.656-8.671 12.141 9.152 12.61-16.957 12.212 9.398c2.255 1.735 3.976 3.988 5.039 6.891.57 1.56 1.05 3.126 1.594 4.694.77 2.219 2.763 4.132 4.711 5.596l3.961 2.976-6.164 8.533-6.586-4.875c-2.403-1.78-3.937-4.516-4.851-7.548-.89-3.789-2.347-6.433-4.923-8.414m12.434-23.525-6.28-5.533c4.71-5.697 9.301-10.309 15.422-10.336 3.835-.017 6.934 2.032 9.704 5.11 2.018 2.241 4.041 4.49 6.234 6.562 1.206 1.14 2.512 2.198 3.938 3.047l11.063 6.586-7.64 7.29-8.204-5.063c-2.735 3.44-1.82 7.894-.047 12.586l-7.688 7.172c-1.403-3.7-2.928-7.487-3.047-12.328-.097-3.94 1.413-7.765 4.78-11.391l-4.57-4.968c-1.741-1.893-3.554-3.645-6.024-3.703-3.302-.078-5.33 2.527-7.64 4.969m88.822-23.18-10.019 4.608-16.684-36.125 9.84-4.644zm-76.885 335.633c-.333-5.153-8.578-12.85-13.942-17.529l6.02-6.478c7.132 6.401 17.163 15.07 18.292 24.418.645 5.344-.48 10.208-5.73 14.954l-16.737 15.133-7.143-8.213 14.753-13.023c2.854-2.518 4.743-5.303 4.487-9.262m-37.008 2.673 15.536-14.069 7.227 8.144-15.623 14.012zM419.95 252.122c-5.137-.105-9.974-1.416-14.672-3.234l-12.142-4.593 3.797-8.297 9.844 4.125 13.595-32.932 9.14 6.094-13.453 29.578c5.31 1.197 8.94-1.374 12-5.719l12-17.038 8.766 6.047-12.563 17.062c-4.52 6.14-10.237 9.03-16.312 8.907m45.479 16.613 11.181-17.766 6.375 7.78-5.25 7.032c6.599-.544 11.312.735 15.205 4.916 2.587 2.778 3.716 5.963 3.733 9.898.028 6.695-6.789 13.374-9.07 15.187L471.5 308.58l-12.797-16.078 7.406-5.813 6 7.734 7.5-5.882c2.32-1.82 7.259-6.137 7.29-9.328.027-2.941-2.897-5.148-6.095-5.156-5.854-.016-17.155 7.036-27.048 12.21l-7.172-8.906c6.242-3.133 12.475-6.321 18.844-8.625m-59.958 328.9c7.41-9.18 15.626-15.79 25.734-15.75 11.604.044 19.428 11.025 19.406 20.483-.027 12.415-10.776 20.269-24.094 25.595l-2.765-7.172c10.024-3.265 16.702-8.478 16.663-15.892-.035-6.828-6.5-14.12-13.079-14.133-4.267-.008-7.343 2.684-10.5 5.39l3.48 4.61c.822 1.09 2.158 2 3.187 1.97 1.143-.035 2.41-.671 3.762-1.986l5.555 4.383c-3.013 4.511-7.467 7.23-11.672 7.218-5.398-.014-8.478-4.38-15.677-14.716m-244.777 5.261c3.79-.886 6.437-2.339 8.42-4.912l3.123-4.05-16.906-12.632 14.604-19.717 8.663 6.667-9.167 12.129 16.941 12.631-9.414 12.2c-1.738 2.253-3.992 3.972-6.897 5.03-1.56.57-3.127 1.047-4.696 1.59-2.22.766-4.135 2.757-5.601 4.703l-2.982 3.958-8.524-6.175 4.883-6.58c1.782-2.401 4.52-3.932 7.553-4.842m271.444-337.908 26.86-29.626 8.39 7.5-26.718 29.532zM386.924 605.62l9.75-5.063 18.515 35.296-9.75 4.97zm-192.79-7.915 9.521 5.48-19.739 34.628-9.442-5.531zm114.18 13.233 10.839-1.432 2.122 15.055 20.905-3.086 1.998 15.28c.37 2.82-.004 5.631-1.304 8.436-.698 1.506-1.466 2.954-2.19 4.448-1.023 2.113-.964 4.875-.62 7.288l.699 4.905-10.391 1.681-1.215-8.103c-.443-2.958.406-5.978 1.901-8.769 2.048-3.31 2.886-6.21 2.464-9.432l-.666-5.071-20.88 3.062zm130.288-39.34c5.545-7.816 13.013-18.77 22.17-20.958 5.236-1.252 10.196-.688 15.51 3.985l16.945 14.901-7.344 8.033-14.621-13.17c-2.828-2.547-5.81-4.107-9.714-3.4-5.081.918-11.787 9.987-15.823 15.851zm29.825 25.85-15.75-13.827 7.266-8.11 15.703 13.922zM330.792 233.074l-10.923-1.57 7.76-54.47 10.875 1.5zm57.642 2.6-10.009-4.171 11.93-28.29-20.275-8.296 3.658-8.625 35.672 14.672-3.533 8.534-5.748-2.253zm-154.072-42.369-21.056 6.044-2.47-9.036 37.093-10.577 2.512 8.888-5.909 1.792 8.427 29.564-10.44 2.924zm27.213-6.567-2.602-8.274c4.076-1.678 8.472-2.405 13.173-2.39 14.07.048 20.803 9.835 20.813 21.142.011 12.445-9.21 20.21-24.375 20.249-2.023.005-4.289-.156-6.047-.516l.75-8.578c1.852.624 3.835.903 6 .89 6.284-.034 12.404-4.234 12.398-12.093-.007-7.991-5.067-12.63-11.672-12.633-3.112-.001-5.89.853-8.438 2.203m-50.91 422.088c11.744 1.11 21.79 4.31 27.34 12.76 6.369 9.7 1.533 22.286-6.365 27.49-10.367 6.83-22.85 2.205-34.643-5.959l4.453-6.265c8.257 6.556 16.29 9.245 22.45 5.12 5.673-3.8 8.185-13.215 4.563-18.708-2.35-3.563-6.292-4.641-10.292-5.78l-1.922 5.448c-.454 1.286-.476 2.903.118 3.744.66.934 1.89 1.64 3.732 2.04l-.587 7.052c-5.425-.022-10.151-2.234-12.463-5.746-2.968-4.51-1.028-9.488 3.615-21.196m39.61 12.07 10.854 1.7.186 32.494c5.323-1.14 7.54-4.997 8.497-10.224l3.751-20.5 10.493 1.815-4.251 20.758c-1.53 7.468-5.508 12.49-11.075 14.925-4.708 2.058-9.649 2.896-14.677 3.215l-12.949.92-.031-9.124 10.666-.382zm96.918.236 10.327-3.748 15.843 28.37c4.112-3.567 4.194-8.016 2.51-13.055l-6.608-19.765 10.067-3.474 6.293 20.232c2.264 7.28 1.202 13.598-2.5 18.417-3.129 4.075-7.052 7.193-11.302 9.898l-10.897 7.055-4.43-7.976 9.157-5.482zm-5.451-401.488 9.75-38.579 10.57 2.578-9.633 38.72z" style="fill:#fff;fill-rule:evenodd"/><path d="M129.32 421.087c-.026 46.427 18.783 88.475 49.214 118.925 30.422 30.442 72.462 49.283 118.908 49.309 46.449.024 88.516-18.776 118.979-49.193 30.455-30.408 49.305-72.43 49.33-118.854.026-46.427-18.783-88.475-49.214-118.925-30.422-30.442-72.462-49.283-118.908-49.308-46.45-.025-88.516 18.775-118.98 49.192-30.455 30.409-49.305 72.43-49.33 118.854m67.081 26.944-34.95-47.1-25.007 3.005a160.76 160.76 0 0 1 32.618-81.348l15.825 18.415 10.883-8.458c1.607-8.555 9.876-15.494 18.647-15.494 3.958 0 7.777.46 11.59 1.533q2.682.758 5.356 1.54c19.512-20.91 43.702-32.324 73.407-32.285 57.284.074 101.751 48.563 101.74 104.833-.008 42.448-21.162 75.242-55.85 93.482h1.854v30.376H329.14v-3.361l-26.399 38.092-14.798-16.592-47.517 16.637-4.205 19.513c-19.704-8.031-37.809-19.968-53.237-35.367A163 163 0 0 1 169 519.558l22.563-9.164zm230.735-51.483-17.849-46.05-18.116-13.642a106 106 0 0 0-9.565-13.191l.007-5.23 29.1 22.8 15.489-18.002a160.75 160.75 0 0 1 32.106 80.669l-24.122-2.928-35.027 47.175 4.688 62.1 22.147 8.981a163 163 0 0 1-14.134 16.12c-15.225 15.223-33.062 27.071-52.477 35.116l-4.682-19.36-41.414-14.427 5.235-7.553 39.761 14.2 37.482-31.613-4.652-61.748a98 98 0 0 0 7.622-14.607zm-67.919 106.2h9.188v13.875h-9.188zm-.136-16.207h22.22v30.047h-8.416l.036-22.395-13.84.082zm-82.992-205.762-48.925 38.005-.716-.202c-3.539-.996-7.083-1.464-10.74-1.526l51.005-39.651-7.484-13.432a162.5 162.5 0 0 1 38.077-4.526 162.5 162.5 0 0 1 38.686 4.637l-7.61 13.155 20.962 16.237-11.01.081a98 98 0 0 0-4.19-1.389l-14.535-11.407z" style="fill:#fff;fill-rule:evenodd"/><path d="m168.5 396.39 36.338 50.289-4.986 65.102 37.575 31.275 44.14-15.534-10.102-11.327h-26.831v-6.421h11.197l-6.396-16.231-2.9-.02-1.901-2.007v-5.181h11.03l8.087 18.89-.035-10.71-2.042.003v-6.382l-64.661-53.666 28.658-29.698 37.556 37.279 15.189-52.12-6.308-26.284-49.875-13.894c-3.068 1.807-6.285 2.97-10.382 2.96-6.774-.017-12.448-4.464-14.966-10.388l-10.723 8.128zm47.26 98.126v-20.813h8.132v12.821h17.707l-8.239 30.099-12.157.004.014-7.378 5.988-.03 2.781-14.703zM322.415 391.07l18.091 64.27c18.13-14.522 28.451-35.496 28.22-59.967a70 70 0 0 0-4.522-24.121q-.603.073-1.232.094l-32.763 1.033zM294.674 464.05v-8.25h10.572l-5.186-12.01-12.25 22.769 11.05 10.947-.016-13.467z" style="fill:#fff;fill-rule:evenodd"/><path d="M239.874 334.527 274 341.653c8.221-.032 15.042.744 20.664 2.212v-2.166c0-.5-1.008-2.006-1.66-2.296-.465-.207-.824-.127-1.265-.038-.558.113-.748.564-1.613.563-2.023-.003-3.502-3.518-3.814-6.096-.34-2.82-.054-6.464.027-9.805l-2.1-3.562 3.694-3.62 8.476.076c4.566.04 7.866 2.883 8.625 8.306.372 2.66.1 5.979-.75 8.794.538 5.112 1.15 9.587 1.688 14.7l34.125 2.138a1525 1525 0 0 1-13.181-16.52c-4.742-1.069-8.346-2.185-8.569-7.668-.15-3.68 2.492-8.02 5.7-8.1 3.005-.075 4.827 3.924 5.025 9.15.03.772.441 1.247.938 1.688l32.813 29.175c.599.532.243.848-.225.862l-40.426 1.275-12.338 29.588 23.624 83.926c28.47-15.481 47.51-43.394 47.175-78.974-.427-45.39-38.48-83.337-84.975-82.95-21.764.18-40.43 7.925-55.783 22.216m123.098 36.819q.63-.02 1.232-.094a70 70 0 0 1 4.523 24.12c.23 24.472-10.091 45.446-28.22 59.968l-18.092-64.27 7.794-18.691zm-88.718-41.803-3.52-.735a66 66 0 0 1 3.573-1.26q-.036.998-.053 1.995" style="fill:#fff;fill-rule:evenodd"/><path d="m270.733 328.808 3.52.735q.018-.998.054-1.994a66 66 0 0 0-3.574 1.26M337.321 494.548l.013 5.5h-4.522l.09 7.692-1.363 1.968h12.695l.007-15.18z" style="fill:#fff;fill-rule:evenodd"/><defs><linearGradient id="a"><stop offset="0%" stop-color="#fff"/><stop offset="100%" stop-color="#fff"/></linearGradient><linearGradient xlink:href="#a" id="b" x1="0" x2="0" y1="0" y2="1" gradientTransform="rotate(-69 .5 .5)" gradientUnits="objectBoundingBox"/></defs><path d="m279.467 502.903-6.661-5.529v12.92z" style="fill:url(#b)"/><path d="M307.564 469.972v13.332h-8.696l-.007-5.798-11.052-10.947 12.25-22.769 5.187 12.01h2.319v5.37l2.99 6.925-1.8.427zm-34.455-1.218 28.051 27.788 14.25-17.363 11.7-2.775-25.875-59.925z" style="fill:#fff;fill-rule:evenodd"/><path d="m298.86 477.506-.016-13.467-4.17.011v-8.25h10.572l-5.186-12.01-12.25 22.769zM307.565 461.17v8.802l1.19-1.45 1.8-.427z" style="fill:#fff;fill-rule:evenodd"/></svg>