<svg xmlns="http://www.w3.org/2000/svg" xml:space="preserve" viewBox="0 0 918.15 918.15"><circle cx="459.077" cy="459.077" r="447.794" style="fill:#fff;fill-opacity:1;fill-rule:evenodd;stroke:#216845;stroke-width:22.566;stroke-dasharray:none;stroke-opacity:1"/><path d="M94.269 173.98c32.472 0 38.016 26.928 38.07 51.746v20.457c.051 12.405-5.862 14.39-11.934 14.39H90.626v10.998c-.035 9.505-3.75 11.705-3.75 11.705H59.951s2.303-2.2 2.163-8.71v-34.717l-.01-.396h41.314l.408.016V217.54c.052-17.688-9.293-22.44-18.003-22.44-6.866 0-8.714 3.036-8.714 3.036v-21.152s2.244-2.74 17.16-3.005M259.796 462.182c-4.574 23.583-22.879 86.238-22.879 86.238-53.152 14.432-127.423 36.96-127.423 36.96-11.616-11.968-28.512-11.615-35.554-5.28-7.039 6.337-5.63 19.008 4.93 21.473s23.583-1.408 23.583-1.408c11.616-1.41 37.312-5.632 37.312-5.632s55.263 67.583 154.88 70.4c99.616 2.816 195.359-68.641 195.359-184.096 0-122.496-76.031-183.04-161.92-211.2v-59.136l-40.831-46.288-34.848 35.903 18.319 21.344S99.284 357.46 84.5 370.661s15.84 43.295 30.625 28.512c7.03-7.031 50.55-50 91.369-90.277zm165.44-103.137c28.865 58.433 23.948 126.371 19.007 148.896-17.6 80.256-87.936 133.591-168.253 132-71.105-1.409-116.864-48.576-116.864-48.576 34.145-6.688 112.64-21.472 112.64-21.472-1.41 8.8-4.577 15.136-4.577 15.136s-6.336-.352-9.504 1.408-4.928 6.688-5.63 16.192c-.704 9.504-.706 12.672-.706 12.672-1.914.383-4.451.87-6.369 1.234-1.611.306-2.123 2.3-1.743 3.206.99 2.372 2.156 4.76 3.139 6.678 1.215 2.37 3.397 4.142 5.665 4.22 4.35.15 12.481.13 22.893-1.258 15.84-2.112 19.007-11.264 19.36-25.344s-2.817-17.6-2.817-17.6c3.168-7.393 11.968-21.12 11.968-21.12 14.431-.705 63.36-6.337 63.36-6.337l-28.161 33.792c-11.265-1.408-19.359 3.168-20.065 13.377s9.505 18.303 20.065 15.84 11.44-18.48 11.44-18.48l73.393-63.888-92.577-9.153s-13.727-28.864-18.655-39.423c-4.927-10.56-18.304-26.048-18.304-26.048s15.137-1.408 20.064-2.464c0 0 32.031-151.712 35.55-167.552 0 0 52.393 16.921 75.68 64.064m-140.094 57.552-70.146-116.092c35.585-35.112 66.916-66.013 66.916-66.013l44.06 51.336s4.625 1.07 12.03 3.697z" style="fill:#216845;fill-opacity:1;fill-rule:nonzero;stroke:none" transform="matrix(1.16057 0 0 -1.16057 125.019 892.652)"/><path d="M355.012 208.39c-10.762 5.669-9.038 15.845-6.16 21.12 3.167 5.807 13.397 9.03 13.397 9.03-14.473-1.448-16.958-4.103-16.958-4.103v20.417s4.44 5.455 39.113 5.72c14.96.087 19.908-.094 26.761-3.788 8.838-5.65 13.297-17.15 13.326-31.325.217-24.815-.313-51.216-42.904-51.48-32.735.264-36.296 8.184-36.296 8.184v20.944s4.616-8.8 30.313-8.448c21.472.35 20.417 12.848 20.375 29.92-.04 13.2-4.71 14.783-12.808 14.872-5.631-.089-11.568-2.366-10.032-9.767 1.937-9.33 14.08-3.345 14.08-3.345v-16.656s-15.84-9.92-32.207-1.295M393.46 110.176c-8.99 4.999-7.548 13.974-5.147 18.626 2.648 5.123 11.193 7.963 11.193 7.963-12.091-1.277-14.165-3.618-14.165-3.618v18.008s3.71 4.812 32.672 5.045c12.496.078 16.63-.083 22.355-3.34 7.384-4.982 11.107-15.126 11.13-27.629.18-21.89-.263-45.172-35.839-45.405-27.346.233-30.318 7.217-30.318 7.217v18.475s3.854-7.763 25.318-7.452c17.939.31 17.056 11.331 17.02 26.387-.032 11.644-3.933 13.04-10.698 13.118-4.705-.078-9.663-2.085-8.377-8.615 1.617-8.227 11.76-2.947 11.76-2.947v-14.694s-13.231-8.747-26.903-1.14M500.212 173.98H483.14v50.072c0 14.607-8.802 15.312-16.016 15.401h-12.938c-13.2 0-19.886-9.415-19.886-9.415v23.758s3.431 6.688 21.736 6.777H484.9c19.186-.089 26.753-9.766 26.753-24.727v-49.107c0-5.102-2.817-12.847-11.44-12.759m-37.4 11.88v26.4c.088 7.568 5.016 11.792 5.016 11.792h-17.07c-7.921-.176-16.37-3.519-16.457-16.19V173.98h17.512c8.976-.088 10.91 3.608 11 11.88M139.772 260.169c3.004-6.398 6.666-16.082 10.025-30.13a507 507 0 0 0 6.953-34.342l.051-.489c-14.509.972-18.527 7.901-18.527 7.901v-22.175s4.307-6.864 34.403-6.954c36.782-.088 48.048 19.449 48.054 48.666v23.407c.004 11.088-6.518 14.52-6.518 14.52h-28.689s6.7-4.312 6.695-12.232v-27.28c.004-21.514-6.734-25.204-22.84-25.832 0 0 6.443 6.895 8.578 9.992 3.52 5.105 4.224 12.144-.43 31.448-4.454 18.473-9.777 23.904-9.777 23.904h-28.203zM291.479 264.357H269.3v71.455c0 11.088-5.807 13.904-5.807 13.904h26.224s8.976-2.465 8.801-14.255v-54.913c0-13.375-7.039-16.19-7.039-16.19M483.31 79.826c35.576.233 36.02 23.516 35.837 45.405-.022 12.503-3.746 22.647-11.13 27.628-5.724 3.258-9.858 3.42-22.355 3.341-22.586-.26-27.514-5.012-27.514-5.012v-19.887s5.631 6.337 19.36 6.512c13.727.175 17.867-4.717 17.822-13.36.034-15.056.918-26.077-17.02-26.387-13.65-.38-20.162 7.364-20.162 7.364V86.244s4.914-6.5 25.162-6.418M370.323 79.826h-18.26l-.416-.005v44.632c.045 8.643-4.102 13.901-17.82 13.36-8.911-.352-15.951-7.392-15.951-7.392v19.889s8.257 5.972 24.105 5.89c12.497.078 16.63-.083 22.355-3.34 7.384-4.982 11.106-15.126 11.13-27.629v-34.32c.006-8.363-5.143-11.085-5.143-11.085M180.421 99.712h9.682c5.632-.084 7.555 3.078 7.555 3.078V90.91c.006-8.362-5.142-11.084-5.142-11.084h-56.1v14.608c-.004 3.614 1.765 5.363 7.048 5.278h17.599c5.453.085 8.55 5.048 8.586 24.741.045 8.643-4.103 13.901-17.822 13.36-8.91-.352-15.95-7.392-15.95-7.392v19.889s8.257 5.972 24.105 5.89c12.497.078 16.63-.083 22.355-3.34 7.384-4.982 11.107-15.126 11.13-27.629-.198-11.53-2.838-15.227-7.59-19.98a400 400 0 0 1-5.456-5.54M81.434 97.644v23.863l27.53-41.68h18.387s2.91 5.186-2.838 14.498l-12.447 18.862s9.57 6.497 12.21 11.601 3.52 6.338 3.52 15.49c0 13.903-6.158 15.922-6.158 15.922H98.757s4.95-4.134 5.026-11.348v-19.115l-13.095 19.845c-5.131 8.071-9.883 10.535-18.86 10.535-8.975 0-13.903-4.576-13.903-4.576v-15.328s2.595 2.132 7.92 1.952c5.28-.177 9.505-8.272 9.505-8.272s-4.928-2.815-10.913-8.623c-5.983-5.81-6.161-9.328-6.161-17.953s2.993-23.409 15.312-23.409c12.322 0 14.345.4 14.17 17.649zM205.94 111.413c-.175 18.832 18.155 25.352 18.155 25.352-12.09-1.277-17.997-3.618-17.997-3.618v18.008s7.542 4.812 36.504 5.045c18.603-.083 33.401-5.534 33.482-30.969.182-21.89-.27-44.97-35.835-45.405-27.471-.083-34.13 12.754-34.309 31.587m46.465 9.15c0 15.666-2.288 16.722-7.568 17.075-4.753.317-10.912 0-10.912 0s-2.99-.706-2.816-4.402v-24.99c0-5.635.704-10.386 8.449-10.386 7.744 0 12.847 2.287 12.847 22.703M145.505 633.769c9.246 7.742 4.404 16.731-1.495 23.807l-4.878 5.826c-2.941 3.542-5.096 2.698-6.824 1.252l-8.214-6.875-.265-.225-2.624 3.133c-2.277 2.698-3.857 2.438-3.857 2.438l-7.666-6.417s1.18-.077 2.693-1.965l8.275-9.884.093-.115 11.762 9.847.11.103 5.228-6.245c4.232-5.022 2.704-8.603.225-10.68-1.957-1.638-3.207-1.212-3.207-1.212l5.042-6.021s1.294-.245 5.602 3.233M394.345 704.025c.027-2.625-.239-6.46-1.276-11.722a186 186 0 0 0-2.963-12.668l-.056-.173c-4.75 2.572-5.034 5.533-5.034 5.533l-3.429-7.486s.394-2.984 10.537-7.67c12.404-5.717 19.23-.864 23.75 8.999l3.621 7.9c1.712 3.742.042 5.91.042 5.91l-9.685 4.437s1.594-2.49.37-5.164l-4.217-9.208c-3.33-7.263-6.174-7.468-11.707-5.188 0 0 3.24 1.331 4.44 2.046 1.979 1.177 3.305 3.446 4.718 10.68 1.355 6.927.396 9.582.396 9.582l-9.52 4.362zM256.711 685.388c14.743 2.521 13.345 12.213 11.77 21.28-.859 5.184-3.097 9.141-6.498 10.702-2.597.964-4.319.75-9.5-.133-9.351-1.65-11.074-3.957-11.074-3.957l1.354-8.25s1.907 3.012 7.586 4.02c5.688 1.009 7.742-.738 8.307-4.327 1.037-6.244 2.156-10.757-5.263-12.109-5.637-1.088-8.865 1.682-8.865 1.682l1.308-7.96s2.48-2.363 10.875-.948M198.056 666.854l-6.924-3.313-.159-.08-8.101 16.928c-1.55 3.285-4.08 4.527-9.185 1.831-3.312-1.751-4.704-5.699-4.704-5.699l-3.612 7.543s2.046 3.764 8.073 6.611c4.725 2.298 6.322 2.985 9.085 2.788 3.702-.547 6.96-3.719 9.236-8.457l6.229-13.015c1.52-3.171.062-5.136.062-5.136M299.13 689.35l-6.331-.255-.751 18.576c-.218 5.42-3.496 5.55-6.175 5.475l-4.8-.193c-4.898-.199-7.237-3.795-7.237-3.795l-.359 8.818s1.176 2.531 7.965 2.838l10.71.435c7.119.253 10.072-3.223 10.294-8.774l.737-18.218c.077-1.893-.85-4.811-4.052-4.907m-14.052 3.847-.396 9.794c-.082 2.81 1.683 4.451 1.683 4.451l-6.332-.256c-2.937-.184-6.02-1.55-5.866-6.255l.508-12.568 6.498.261c3.334.103 3.995 1.501 3.905 4.573M322.765 676.598l.173-.02 7.619-.938s2.285.87 2.714 4.36l4.137 33.568c.455 3.502-.096 5.63-2.426 5.898l-8.777 1.081s1.777-1.497 1.104-7.065zM447.83 664.504l-12.008-15.375c-1.915-2.4-3.326-3.041-5.933-.96l-5.125 4 11.066 14.17 9.984.238-1.162.906c-3.861 3.018-7.974 1.79-7.974 1.79l5.431 6.953s2.535 1.172 7.912-2.985l11.276-8.808c5.595-4.41 5.595-8.972 2.178-13.35l-8.438-10.8c-2.784-3.57-7.445-5.976-13.114-1.513-4.386 3.391-4.927 5.557-4.927 5.557l4.168 5.34c2.375-2.968 4.568-4.015 6.722-1.341l4.55 5.822c3.337 4.275.922 6.492-1.165 8.168l-3.218 2.515zM425.3 681.128l-13.094-21.52.153-.09 6.559-3.99s2.444-.147 4.268 2.857l11.355 18.665c1.856 3.005 2.228 5.171.217 6.373l-7.554 4.597s1.002-2.097-1.904-6.892M344.404 710.806l-4.718-24.744.168-.03 7.545-1.44s2.34.719 2.995 4.172l4.096 21.462c.685 3.464.274 5.623-2.031 6.045l-8.688 1.658s1.675-1.612.633-7.123M195.765 693.416l9.332-23.395.163.067 7.133 2.845s1.583 1.864.28 5.128l-8.096 20.293c-1.287 3.29-2.796 4.89-4.964 4.003l-8.215-3.278s2.28-.456 4.367-5.663M233.487 694.962l2.903-9.364c.878-2.945.598-4.468-2.599-5.422l-6.21-1.925-3.724 12.017c-2.194 6.98 2.358 13.012 2.358 13.012l-9.642-2.987c-4.682-1.451-6.019-5.527-6.019-5.527l-2.61 8.426s.482 2.75 6.967 4.794l13.169 4.08c6.002 1.826 7.86-.198 7.86-.198l2.61-8.428s-3.223 2.663-7.544 1.324c0 0 .223-2.514 2.481-9.802M377.606 690.931l-2.855-9.378c-.928-2.93-2.013-4.034-5.194-3.03l-6.22 1.893L367 692.451c2.102 7.01 9.256 9.446 9.256 9.446l-9.656 2.94c-4.692 1.427-8.085-1.196-8.085-1.196l2.57 8.44s1.94 2.005 8.454.057l13.191-4.015c5.992-1.858 6.394-4.577 6.394-4.577l-2.57-8.44s-1.173 4.014-5.502 5.332c0 0-1.226-2.207-3.445-9.507M154.784 649.365l3.494-5.425 4.851 3.124c2.502 1.571 2.296 3.07.658 5.67l-1.44 2.234 1.356 2.022 4.35-6.757 5.325 3.432c2.714 1.706 2.034 4.691 1.006 6.283l-9.869 15.33c-3.009 4.67-7.315 6.17-13.324 2.342-7.375-4.651-8.445-8.432-8.445-8.432l4.776-7.417s.194 4.285 4.317 6.94c2.948 1.997 4.31.059 6.146-2.846l2.857-4.435-6.138-7.636c-.963-1.439-1.091-2.672.08-4.43" style="fill:#216845;fill-opacity:1;fill-rule:nonzero;stroke:none" transform="matrix(1.16057 0 0 -1.16057 125.019 892.652)"/></svg>