<svg xmlns="http://www.w3.org/2000/svg" xml:space="preserve" viewBox="32.14 143.45 722.49 722.49"><defs><clipPath id="a" clipPathUnits="userSpaceOnUse"><path d="M.5-.5h595.446v841.89H.5Z"/></clipPath></defs><g clip-path="url(#a)" transform="matrix(1.33333 0 0 -1.33333 -.667 1121.853)"><path d="M566.475 462.866c0-149.634-121.301-270.934-270.934-270.934S24.605 313.232 24.605 462.866s121.302 270.935 270.936 270.935S566.475 612.5 566.475 462.866" style="fill:#231f20;fill-opacity:1;fill-rule:nonzero;stroke:none"/><path d="M556.232 462.866c0-143.977-116.715-260.691-260.691-260.691-143.977 0-260.692 116.714-260.692 260.691S151.564 723.56 295.54 723.56c143.976 0 260.691-116.716 260.691-260.693M295.541 631.78c-93.288 0-168.912-75.625-168.912-168.913 0-93.287 75.624-168.912 168.912-168.912 93.287 0 168.912 75.625 168.912 168.912S388.828 631.78 295.541 631.78" style="fill:#e31b23;fill-opacity:1;fill-rule:nonzero;stroke:none"/><path d="M180.887 348.213c-30.624 30.625-47.49 71.343-47.49 114.653s16.866 84.029 47.49 114.654 71.343 47.491 114.654 47.491c43.309 0 84.028-16.866 114.653-47.491 30.624-30.625 47.49-71.343 47.49-114.654s-16.866-84.028-47.49-114.653-71.343-47.491-114.653-47.491-84.03 16.866-114.654 47.49M157.096 648.96a11.46 11.46 0 0 1-5.822-1.762l-.06-.037-12.016-9.41 5.058-6.458 3.708 3.145 2.63 2.146c1.224.958 2.249 1.67 3.133 2.18.847.49 1.77.872 2.739 1.148a7.3 7.3 0 0 0 2.404-.383c.812-.256 1.45-.631 1.927-1.118l14.12-18.028 6.941 5.436-13.817 17.641c-.831 1.061-1.509 1.832-2.071 2.358-.616.554-1.47 1.15-2.628 1.842l-.07.04-.074.034c-1.976.886-4.029 1.299-6.102 1.227zM122.922 620.293c-1.548-.863-3.157-2.242-4.785-4.099l-4.414-5.038 6.136-5.377 2.273 2.694 1.348 1.579c.367.418.77.817 1.198 1.185.173.14.56.376 1.276.577.456.127.913.092 1.396-.108q.954-.379 2.22-1.49c1.734-1.765 2.052-2.337 2.107-2.47a23.6 23.6 0 0 0 1.25-6.64c.098-2.395.033-5.272-.194-8.55l-.043-.619 7.398-7.555.394 2.774c.202 1.41.322 2.857.36 4.329a41 41 0 0 1-.085 3.941c-.113 1.73-.444 3.86-.831 5.833 1.088-.779 2.13-1.52 2.441-1.72a110 110 0 0 1 4.706-2.974l.988-.59 5.729 6.539-1.038.91c-.715.626-1.772 1.295-2.996 2.069-5.236 3.31-15.863 12.92-15.969 13.017a9.3 9.3 0 0 1-2.403 1.522c-.81.374-1.683.697-2.57.95l-.062.016c-2.134.5-4.096.263-5.83-.705M319.813 694.793l-4.667-44.814 8.902-.928 4.81 46.19-8.902.926zM100.854 593.893l-9.396-15.524-9.019 5.458-4.565-7.543 15.977-9.669 9.257 15.297 17.593-24.176 5.108 8.479-17.692 24.897-6.549 3.963zM417.448 661.118l-9.912-28.106-9.366 1.744-4.549-7.039 26.545-5.593.078-.007c3.113-.29 6.113.274 8.914 1.676 2.763 1.394 5.146 3.416 7.085 6.013l9.67 12.94-7.277 5.438-11.088-14.839c-1.058-1.417-2.58-2.267-4.65-2.6a15.9 15.9 0 0 0-6.301.242l9.298 26.423-7.846 5.41zM350.272 689.53l-9.011-33.112 8.635-2.351 9.375 34.444-8.635 2.351zM99.382 424.825l-21.773-4.466 3.926-8.568 21.041 4.335-1.842 8.977zM501.146 423.3l-.053-.004-.052-.008c-2.816-.437-5.475-1.542-7.904-3.284-2.472-1.767-4.225-3.976-5.206-6.563l-.023-.06-5.271-18.96 7.886-2.193c-.013.003.797-.272.797-.272l.944-.322 2.795-.89c1.086-.302 2.007-.476 2.82-.532.9-.08 1.941.065 3.162.447 1.287.403 2.418 1.185 3.36 2.328.915 1.086 1.705 2.885 2.473 5.65l.955 3.435-5.997 1.667-.434-1.034-.704-1.661c-.249-.65-.421-.971-.513-1.122-.427-.351-.832-.551-1.232-.574-.614-.04-1.33.057-2.206.301l-1.856.651-2.309.767 1.413 5.08c.51 1.837 1.121 3.395 1.817 4.632a6.8 6.8 0 0 0 2.534 2.583c1.076.626 2.28.98 3.578 1.054 1.353.06 2.76-.108 4.169-.5 1.99-.553 3.706-1.394 5.1-2.5l.046-.034.047-.033c.872-.58 1.602-1.547 2.17-2.875.491-1.137.735-2.204.725-3.183a5 5 0 0 0-.024-.407l-4.55-16.368 7.838-2.178 3.985 14.337c.767 2.753 1.042 5.36.823 7.746-.212 2.448-.997 4.699-2.335 6.68a16.7 16.7 0 0 1-4.792 4.723 22.4 22.4 0 0 1-6.132 2.73 22.7 22.7 0 0 1-7.844.746zM505.97 465.352c-2.116.015-3.824-.347-5.221-1.101-2.584-1.176-4.415-2.941-5.437-5.251-.97-2.157-1.565-4.838-1.766-7.962l-1.06-16.49 8.13-.522 1.075 16.73c.063.958.351 1.906.846 2.82.692 1.005 1.532 1.707 2.57 2.13 1.11.44 2.346.624 3.66.54l20.8-1.337.59 9.2-18.657 1.199-.587.007zm-.01 0h.003zm-1.914-25.066 2.827-6.662 21.235-1.364.543 8.451-25.48 1.637zM374.528 682.368l-2.73-6.19s12.402-5.47 14.51-6.398l-11.117-25.208 8.752-3.86 11.117 25.208 3.358-1.481 3.288 7.454-26.621 11.74zM262.358 695.085l-.069-.006-14.558-2.614 1.461-8.137 3.442.618c.052.01 1.497.33 1.497.33l1.81.4 3.223.648c1.866.335 3.536.421 4.965.257 1.325-.15 2.444-.619 3.426-1.435 1.055-.866 1.839-1.8 2.401-2.861.55-1.057.957-2.294 1.204-3.67q.172-.961.227-1.927.067-1.201-.05-2.395c-.128-1.3-.689-2.628-1.665-3.946-.93-1.243-1.962-2.054-3.06-2.414l-14.154-2.542 1.44-8.015 1.37.188 2.865.39 1.057.14c2.167.27 3.979.536 5.38.787 2.978.535 5.536 1.33 7.605 2.362 2.177 1.066 3.993 2.711 5.39 4.884 1.357 2.095 2.251 4.344 2.655 6.682.396 2.327.361 4.82-.105 7.414a25 25 0 0 1-.935 3.606c-.415 1.178-1.1 2.61-2.042 4.271-1.067 1.86-3.034 3.507-6.018 5.04-2.946 1.51-5.892 2.164-8.762 1.946zM95.02 468.241l-34.254-2.03 2.023-34.161 25.476 1.509.18.062c2.292.797 4.404 2.468 6.277 4.97 1.872 2.496 2.88 4.987 2.993 7.404l.004.072-1.32 22.255zm-6.195-9.816.665-11.236c-.276-1.033-.867-1.962-1.781-2.76a7.9 7.9 0 0 0-3.354-1.788l-13.997-.83-.916 15.465zM110.27 385.97l-5.833-3.125 2.732-5.1-16.223-8.695a3.9 3.9 0 0 0-1.344.066c-.504.1-.926.292-1.282.559l-.322.41c-.123.231-.242.589-.345 1.047l-.365 1.626-.398 1.772-1.6-.868-4.902-2.628-.018-.805c-.03-1.435.38-2.957 1.22-4.524.72-1.343 1.894-2.759 3.592-4.33 1.964-1.798 4.778-2.175 8.37-1.125l.14.041s15.607 8.363 17.737 9.506l4.686-8.746c.059-.284.102-.572.103-.868.005-.783-.192-1.613-.59-2.513-.587-1.328-1.326-2.345-2.246-3.122L93.8 344.056l4.226-7.89 19.446 10.42c.934.502 1.81 1.052 2.6 1.639.816.604 1.66 1.442 2.582 2.563.99 1.225 1.666 3.041 2.075 5.56.4 2.486.168 4.784-.687 6.832l-.025.061-12.53 23.381zM158.7 316.857l-4.281-5.24s9.82-8.021 10.27-8.39c.19-.392.736-1.527.801-1.663.283-.779.43-1.528.43-2.257 0-1.425-.546-2.775-1.657-4.134l-8.167-9.998-13.961 11.404-5.146-6.3 23.59-19.268 5.146 6.299-2.687 2.194 8.853 10.839c1.438 1.76 2.368 3.713 2.763 5.806q.185 1.21.185 2.433-.001 2.221-.605 4.47c-.645 2.449-1.834 4.395-3.53 5.782l-11.13 9.092zM228.84 687.706l-26.126-9.158 2.687-7.67 14.95 5.24 9.108-25.985 9.021 3.162-9.108 25.984 3.46 1.213-2.688 7.67zM479.765 604.964l-5.898-7.354c-1.562-2.049-3.202-3.138-10.322-6.854-4.968-2.592-7.966-4.286-9.72-5.49l-1.14-.782 5.112-7.448 9.452 4.53 6.604 3.31c3.876 1.875 7.606 2.065 11.4.58 1.035-.407 1.871-1.088 2.555-2.083.369-.539.723-1.36 1.054-2.445a3.4 3.4 0 0 0 .135-.955c.01-.764-.174-1.679-.548-2.731-.575-1.623-1.477-3.009-2.758-4.238-1.075-.933-1.87-1.611-2.25-1.886l-1.317-.952c-1.853-1.273-3.713-2.106-5.527-2.48-1.68-.35-3.13-.223-4.31.377-1.27.65-2.16 1.301-2.593 1.967-1.462 2.244-2.54 5.724-2.54 5.724l-5.803-4.765.323-.914c.104-.293 1.046-2.904 2.05-4.275 1.453-1.982 3.035-3.441 4.838-4.46 1.869-1.063 4.045-1.831 6.47-2.281l.121-.023h.125c4.331-.017 8.653 1.433 12.842 4.309a25.8 25.8 0 0 1 5.03 4.5 19.1 19.1 0 0 1 3.406 5.714c.807 2.124 1.06 4.422.752 6.83-.319 2.406-1.146 4.592-2.457 6.502-1.15 1.675-2.54 3.013-4.13 3.979l-.056.031a11.8 11.8 0 0 1-5.076 1.426c-1.626.083-2.94.05-4.02-.033l4.742 6.28-5.382 7.841zM180.006 665.16l16.481-30.1 7.852 4.298-17.146 31.311-7.85-4.298zM104.464 403.744l-21.036-7.17 4.972-8.008 20.329 6.95-2.958 8.674zM130.889 347.066l-16.2-25.016c-1.536.684-8.7 3.882-8.7 3.882l-6.066-5.783 24.505-11.636.075-.025a16.3 16.3 0 0 1 9.06-.45c3.011.71 5.8 2.12 8.291 4.192l12.423 10.328-5.806 6.985-14.245-11.842c-1.36-1.13-3.038-1.601-5.128-1.442-2.2.178-4.187.744-6.07 1.706l15.208 23.522-6.366 7.093zM200.438 287.487c-1.175 1.328-2.869 2.605-5.03 3.795l-5.87 3.228-3.934-7.148 3.119-1.64c.004-.001 1.833-.979 1.833-.979.486-.267.963-.576 1.415-.914.174-.139.487-.467.837-1.123.223-.419.286-.872.195-1.387q-.166-1.013-.979-2.488c-1.352-2.072-1.842-2.506-1.96-2.589a23.6 23.6 0 0 0-6.216-2.646c-2.319-.61-5.142-1.165-8.393-1.649l-.613-.09-5.79-8.848 2.794.212c1.42.105 2.86.3 4.304.577 1.276.245 2.556.556 3.832.93 1.665.482 3.674 1.263 5.518 2.064-.526-1.229-1.026-2.405-1.155-2.753a110 110 0 0 1-1.894-5.234l-.363-1.092 7.616-4.192.666 1.211c.458.831.883 2.007 1.377 3.37 2.107 5.824 9.212 18.267 9.283 18.392q.689 1.254.97 2.674c.191.87.32 1.793.376 2.714l.003.064c.03 2.192-.623 4.056-1.941 5.541zM269.76 265.076c-1.58.803-3.624 1.368-6.072 1.682l-6.645.848-1.034-8.093 3.503-.381 2.063-.236a12 12 0 0 0 1.653-.334c.212-.063.625-.253 1.191-.736.36-.307.587-.705.69-1.218q.217-1.003.003-2.673c-.497-2.425-.794-3.008-.872-3.127a23.7 23.7 0 0 0-4.81-4.745c-1.933-1.42-4.356-2.971-7.201-4.615l-.537-.31-2.138-10.355 2.522 1.222a38 38 0 0 1 3.791 2.118 41 41 0 0 1 3.223 2.273c1.372 1.058 2.954 2.523 4.375 3.946-.04-1.338-.072-2.616-.064-2.986.008-1.904.06-3.731.16-5.564l.063-1.15 8.624-1.101.175 1.371c.12.942.084 2.192.043 3.64-.178 6.191 1.861 20.373 1.882 20.515a9.3 9.3 0 0 1-.08 2.845 18 18 0 0 1-.647 2.66l-.021.062c-.777 2.049-2.07 3.544-3.84 4.442zM299.42 241.838l-12.99.317.193 7.904 12.991-.319zM237.69 271.44l-12.11-43.399 8.62-2.406 12.48 44.73-8.62 2.406zM461.47 626.292l-24.904-23.608 6.157-6.496 25.906 24.56-6.157 6.495zM454.63 339.503l28.672-8.14-1.157-9.456 7.308-4.101 3.929 26.841v.08a16.27 16.27 0 0 1-2.229 8.793c-1.563 2.668-3.73 4.921-6.442 6.696l-13.52 8.843-4.973-7.604 15.503-10.14c1.48-.967 2.424-2.432 2.883-4.477.478-2.154.52-4.222.153-6.305-2.654.753-26.951 7.633-26.951 7.633l-4.911-8.17zM476.879 378.233l31.368-13.913 3.63 8.181-32.63 14.474-3.63-8.181zM351.604 270.16l5.55-7.618c1.568-2.045 2.19-3.913 3.91-11.758 1.2-5.472 2.048-8.81 2.751-10.82l.456-1.304 8.528 2.982-1.895 10.308-1.464 7.241c-.794 4.234-.002 7.882 2.428 11.154.662.892 1.54 1.521 2.68 1.919.615.215 1.502.343 2.635.379q.446.011.957-.122c.739-.192 1.574-.607 2.492-1.244 1.414-.98 2.515-2.214 3.367-3.771.62-1.282 1.064-2.228 1.23-2.665l.575-1.522c.74-2.123 1.058-4.135.943-5.983-.101-1.714-.603-3.08-1.493-4.064-.96-1.052-1.82-1.74-2.577-1.984-2.548-.823-6.19-.951-6.19-.951l3.078-6.85.967.074c.31.023 3.076.248 4.663.857 2.292.883 4.117 2.028 5.574 3.502 1.513 1.522 2.826 3.422 3.894 5.643l.055.113.033.12c1.15 4.175.884 8.725-.794 13.524a25.9 25.9 0 0 1-3.024 6.03 19.1 19.1 0 0 1-4.622 4.785c-1.84 1.336-3.99 2.182-6.395 2.516-2.405.323-4.731.097-6.919-.668-1.918-.67-3.573-1.66-4.922-2.942l-.046-.046a11.8 11.8 0 0 1-2.705-4.525 31 31 0 0 1-1.021-3.889l-4.818 6.223-8.977-3.14zM448.6 336.455l-12.239-13.397-7.783 7.109-5.945-6.51 13.787-12.594 12.059 13.2 12.548-27.137 6.661 7.321-12.505 27.866-5.652 5.163zM408.835 296.894a11.45 11.45 0 0 1-5.97-1.165l-.065-.033-12.905-8.148 4.381-6.935 4.006 2.754c.013.01 2.834 1.87 2.834 1.87 1.315.83 2.405 1.435 3.335 1.853.895.402 1.85.688 2.843.866a7.3 7.3 0 0 0 2.352-.625c.782-.336 1.38-.774 1.804-1.307.12-.187 12.229-19.36 12.229-19.36l7.453 4.706-11.965 18.946c-.718 1.14-1.315 1.976-1.822 2.555-.557.613-1.346 1.293-2.429 2.099l-.065.047-.069.04c-1.879 1.08-3.879 1.7-5.947 1.837M306.617 261.788l1.154-6.517 5.697 1.007c.41-2.325 3.124-17.657 3.207-18.124a3.9 3.9 0 0 0-.482-1.258 3.1 3.1 0 0 0-.93-1.042l-.49-.178c-.26-.046-.635-.047-1.102-.002l-1.66.159-1.808.174.327-1.79.969-5.478.76-.267c1.355-.477 2.928-.56 4.678-.25 1.5.265 3.212.94 5.234 2.063 2.32 1.306 3.555 3.862 3.678 7.604l.005.144-3.507 19.817 9.77 1.729c.29-.033.575-.083.858-.174.745-.239 1.472-.684 2.204-1.343 1.079-.972 1.814-1.992 2.266-3.108l3.87-21.875 8.814 1.559-3.843 21.723a21.4 21.4 0 0 1-.747 2.98c-.32.965-.854 2.027-1.632 3.254-.856 1.322-2.37 2.53-4.637 3.705-2.237 1.154-4.493 1.65-6.704 1.474l-.067-.006-26.123-4.62z" style="fill:#fff;fill-opacity:1;fill-rule:nonzero;stroke:none"/><path d="M376.339 560.444c4.205-5.842 8.124-13.125 11.326-18.629l.048-.076 14.942-11.6.118-.089 16.75-44.137.022-.072-24.563-34.067-.03-.082a96.8 96.8 0 0 0-9.719-18.91l.007-.082 4.45-57.637.013-.113-36.622-30.482-.062.02-37.114 13.116-4.667-6.627 39.303-14.025.046-.025 3.57-18.048.023.01c18.942 7.713 36.331 19.213 51.228 34.11a158 158 0 0 1 12.93 14.628l.02.03-20.833 8.495-.046.02c-1.305 16.904-4.263 55.2-4.578 59.293l33.353 46.257.028.042 23.815-2.769-.005.032c-2.93 28.55-13.612 55.416-31.018 78.123l-.025.038-15.044-18.161-.116.094-27.649 21.463zM348.71 581.954l-23.776 18.456-.06.043 7.473 13.432-.048.01c-11.894 2.87-24.212 4.348-36.758 4.348-12.563 0-24.9-1.48-36.808-4.36l.038-.063 7.391-13.286.041-.08-48.481-37.633h.054c2.835 0 5.316-.356 6.858-.645.41-.077.756-.15 1.022-.209.353-.082.99-.26 1.551-.455.013-.004.382-.137 1.075-.37l.055-.02 46.475 36.075.155.119h41.15l12.052-9.357.121-.03c7.41-1.998 14.097-3.543 20.523-6.058zM188.308 530.049l-16.717-44.051-.054-.157 34.692-48.115-4.841-62.697v-.089l36.569-30.435.041-.04 42.35 14.969 5.513-6.31-45.365-16.188-.012-.061-3.55-17.945-.005-.052c-18.953 7.713-36.352 19.216-51.256 34.12a158 158 0 0 0-12.908 14.602l-.038.058 20.867 8.508.021.175 4.566 59.124-33.377 46.288-.348-.03-23.396-2.72-.074-.01c2.928 28.578 13.62 55.47 31.05 78.195l.045-.06 14.936-18.032.058-.066 10.41 8.081-.011-.067c-.415-3.067-.052-6.222 1.058-9.07l-.044-.023-10.114-7.85z" style="fill:#231f20;fill-opacity:1;fill-rule:nonzero;stroke:none"/><path d="M318.668 400.67v-17.99l-18.95-26.892-14.98 17.146 10.63 12.25-.088.068-78.944 65.107 10.829 11.37 41.46-41.157.028-.028 20.687 71.46-7.986 34.653-58.835 16.527c-.723.213-1.566.105-2.476-.563-5.12-3.76-8.626-3.076-9.889-.803-1.353 2.436-.811 6.633 2.978 8.121 3.79 1.49 9.882.136 9.882.136s4.928-1.816 13.39-3.925l.035-.007c15.812 20.078 39.882 32.899 66.843 32.899 47.62 0 85.967-39.998 86.225-89.338.23-44.264-28.008-77.535-70.838-88.942l-.001-.09m-4.903 5.707c3.7.788 7.239 1.746 10.64 2.925l-.033.076-25.016 57.72-26.641-50.595.065-.058 26.67-26.477.041-.034 14.23 16.401zm16.33 5.164a65.6 65.6 0 0 1 10.14 5.609c22.088 14.916 35.617 39.694 35.464 68.6-.235 44.794-35.783 81.108-79.59 81.108-21.81 0-41.497-7.717-55.77-21.633l.039-.013c9.57-2.161 27.586-5.78 32.176-6.698.697-.14 1.811-.236 2.17-.247 8.84-.274 15.542-1.259 17.682-1.607.474-.077.724.245.722.418-.03 3.077-.348 3.926-1.757 3.926-1.49 0-2.031-.542-3.655 0-1.624.541-2.572 4.331-2.572 7.58 0 2.579-.085 5.927-.12 7.197-.01.33-.14.764-.204.886-.394.752-.837 1.5-1.125 1.973-.188.31.001.777.149.91a33 33 0 0 1 2.287 2.263c.335.369.806.578 1.312.574 1.517-.013 4.841-.063 7.176-.267 3.113-.271 7.985-1.624 8.257-7.31.156-3.263-.277-6.312-.523-7.716-.09-.517-.108-1.432-.08-1.755.35-4.348 1.042-10.17 1.292-12.508.055-.513.276-1.05.933-1.075l31.947-1.716-12.86 16.378c-9.069.813-7.715 7.716-6.632 10.288s4.196 5.414 6.768 2.572c2.572-2.843 2.301-7.987 2.301-7.987l32.757-29.508-39.118-1.489-12.047-28.426 22.435-80.352z" style="fill:#e31b23;fill-opacity:1;fill-rule:nonzero;stroke:none"/><path d="M346.858 372.089c0-.488-.115-1.055-.335-1.706a7.9 7.9 0 0 0-1.342-2.387c-.566-.68-1.179-1.179-1.831-1.485-.642-.307-1.41-.46-2.283-.46h-18.702v6.038h15.386c.68 0 1.332.278 1.946.826q.489.487.661.977c.116.326.173.757.173 1.312v13.442h-11.59v-4.68h4.43v-5.79h-9.933v6.04l1.41 4.43h-2.483v6.038h22.01c.652 0 1.112-.029 1.39-.077q.416-.07.7-.489.301-.401.345-.775c.029-.24.048-.623.048-1.142zM264.175 388.646h-4.083v6.038h8.522c.518 0 .872-.038 1.065-.124.2-.078.41-.317.632-.7.133-.2.21-.441.22-.738.019-.287.03-.585.03-.872v-20.161c0-.814-.174-1.524-.519-2.147-.336-.613-.844-1.265-1.533-1.946-.68-.68-1.304-1.179-1.87-1.485s-1.294-.46-2.166-.46h-19.287v6.038h4.677v16.557h-3.853v6.038h8.521c.422 0 .748-.029.978-.077q.346-.07.776-.747c.107-.164.164-.393.202-.69a9 9 0 0 0 .048-.92v-20.161h5.205c.297 0 .547.068.758.193.211.134.498.344.853.633.555.42.824.977.824 1.657zM241.179 374.321a8.9 8.9 0 0 0-.567-3.182 8 8 0 0 0-1.676-2.685c-.749-.795-1.687-1.39-2.829-1.802q-1.696-.603-3.652-.603h-6.135v6.039h4.093c.451 0 1.017.115 1.678.336.67.23 1.208.565 1.61.996.403.44.7.901.872 1.392.183.488.269 1.052.269 1.705v12.126h-14.61v11.542h6.337v-5.501h12.655q.345 0 .804-.03c.307-.01.576-.163.805-.432.231-.278.346-.68.346-1.197v-18.704M302.18 433.264v-28.885h-7.302v24.911h-4.25v6.656h9.354c.572 0 .974-.04 1.184-.136.201-.084.434-.317.666-.698.232-.369.349-.993.349-1.848M376.979 366.05h-6.625v22.596h-17.619v6.038h21.175c.623 0 1.103-.096 1.468-.296q.531-.288.747-.605c.153-.21.307-.412.47-.613a3 3 0 0 0 .384-1.505zm-17.917 0h-6.327v16.267h6.327zM262.733 311.3v16.95a36 36 0 0 0-3.133-1.708 19 19 0 0 0-2.62-1.03v4.4q1.859.684 3.397 1.487 1.538.799 2.831 1.761h4.872V311.3ZM285.642 320.479a8.5 8.5 0 0 0-2.2-1.2 6.8 6.8 0 0 0-2.289-.4q-3.356 0-5.388 1.871-2.034 1.868-2.033 4.995 0 3.51 2.395 5.631 2.393 2.123 6.332 2.123 4.433 0 6.687-2.51 2.25-2.508 2.251-7.45 0-6.246-2.43-9.446-2.429-3.2-7.165-3.2-3.34 0-5.214 1.478-1.872 1.476-1.907 4.14h4.602q.177-1.108.903-1.739.726-.63 1.86-.63 1.79 0 2.692 1.554.904 1.552.904 4.597zm-6.495 5.654q0-1.73.887-2.733.888-1.001 2.414-1 1.507-.001 2.386.994.879.994.879 2.739 0 1.696-.898 2.738-.896 1.04-2.333 1.04-1.542 0-2.439-1.01-.897-1.009-.896-2.768M295.54 311.3v4.601l1.48 1.17q10.633 8.305 10.634 10.797 0 1.123-.837 1.855c-.56.486-1.265.73-2.123.73q-1.621 0-2.476-.85-.856-.85-.925-2.534h-4.806v.25q0 2.878 2.19 4.56 2.188 1.687 5.948 1.687 3.725 0 5.948-1.59 2.225-1.588 2.226-4.228 0-2.486-2.375-5.196-2.373-2.71-9.131-7.53h11.645V311.3zM319.698 311.3l9.229 18.137h-11.624v3.723h16.784v-4.167l-8.4-17.693z" style="fill:#e31b23;fill-opacity:1;fill-rule:nonzero;stroke:none"/></g></svg>