<svg xmlns="http://www.w3.org/2000/svg" xml:space="preserve" viewBox="26.12 162.62 731.08 731.08"><defs><clipPath id="a" clipPathUnits="userSpaceOnUse"><path d="M.5-.5h595.446v841.89H.5Z"/></clipPath></defs><g clip-path="url(#a)" transform="matrix(1.33333 0 0 -1.33333 -.667 1121.853)"><path d="M568.4 445.274c0-151.416-122.741-274.156-274.157-274.156-151.41 0-274.154 122.74-274.154 274.156 0 151.413 122.744 274.153 274.154 274.153 151.416 0 274.156-122.74 274.156-274.153" style="fill:#d91920;fill-opacity:1;fill-rule:nonzero;stroke:none"/><path d="M496.903 445.274c0-111.928-90.732-202.66-202.66-202.66-111.925 0-202.658 90.732-202.658 202.66 0 111.926 90.733 202.656 202.658 202.656 111.928 0 202.66-90.73 202.66-202.656M294.243 617.99c-95.388 0-172.717-77.327-172.717-172.716 0-95.392 77.329-172.719 172.717-172.719 95.391 0 172.718 77.327 172.718 172.719 0 95.389-77.327 172.716-172.718 172.716" style="fill:#fff;fill-opacity:1;fill-rule:nonzero;stroke:none"/><path d="m248.477 578.206-6.948 18.683-.346.756c-29.452-10.286-55.04-28.885-73.934-52.97l-.675-.836 17.687-14.018.653-.452 35.574 8.707c2.462.604 5.568 2.861 6.905 5.016l21.314 34.442zM421.521 544.312c-18.937 24.282-44.659 43.026-74.288 53.357l-.233-.671-7.272-19.557.659-.882 20.71-33.467c1.336-2.155 4.442-4.412 6.904-5.016l34.938-8.551.972-.252 18.146 14.382zM246.024 292.286l4.26 15.254.285.967 39.41 16.121c2.347.96 6.187.96 8.534 0l38.9-15.914.962-.445 4.701-16.84-.836-.203c-15.167-4.736-31.29-7.288-47.997-7.288-16.87 0-33.141 2.603-48.437 7.427z" style="fill:#fff;fill-opacity:1;fill-rule:nonzero;stroke:none"/><path d="m249.942 318.328-66.896 48.603-20.419-13.567-.651-.377c-17.517 25.03-28.118 55.24-29.006 87.83l.015 1.412 30.218 1.267 25.134 77.358.313 1.06 32.524 7.96c4.926 1.205 11.138 5.718 13.805 10.03l2.797 4.518 9.703 15.678 6.707 10.838.655.005h79.475l.523-.873 6.17-9.97 9.703-15.678 2.797-4.518c2.667-4.312 8.88-8.825 13.805-10.03l32.165-7.872.756-.26 25.424-78.246 29.902-1.253-.042-1.419c-.876-32.199-11.233-62.073-28.373-86.925l-.544-.78-20.787 13.811-68.134-49.503-.871.318-12.05 4.93-17.064 6.98-4.918 2.012c-4.692 1.92-12.372 1.92-17.064 0l-34.61-14.157z" style="fill:#fff;fill-opacity:1;fill-rule:nonzero;stroke:none"/><path d="M85.032 471.186c-2.365 8.008-7.803 20.245-19.498 24.143-14.517 4.84-25.268-3.75-30.152-8.941l-.848-.954c19.391 125.899 128.468 222.61 259.71 222.61 130.574 0 239.21-95.73 259.407-220.692l.165-.93c-4.898 5.196-15.633 13.735-30.116 8.907-14.05-4.683-19.071-21.405-20.578-28.365l-.133 1.303C491.537 573.424 402.449 655.26 294.243 655.26c-107.925 0-196.834-81.416-208.654-186.183z" style="fill:#fff;fill-opacity:1;fill-rule:nonzero;stroke:none"/><path d="M287.769 435.435h8.333v-21.749h-6.3v15.65h-2.033z" style="fill:#d91920;fill-opacity:1;fill-rule:nonzero;stroke:none"/><path d="M291.385 400.008c-10.379 8.411-47.54 38.525-52.603 42.541-5.894 4.675-5.481 8.361-2.642 10.57 3.659 2.845 6.097 1.829 14.025-5.895 2.994-2.918 11.554-11.643 19.716-19.92 0 0 6.708 12.298 13.416 29.779 6.274 16.35 5.285 19.004 2.032 29.37-3.252 10.367-5.285 12.603-5.285 12.603s-4.065 1.423-18.7 6.098-21.749 4.065-21.749 4.065c0-1.22-1.219-1.626-4.675-1.423-3.455.204-3.658 1.22-3.658 4.065s2.032 3.863 4.472 3.456c2.438-.407 3.455-1.22 3.455-1.22 3.659-.203 9.146-1.016 9.146-1.016 25.205 36.587 75.004 34.961 98.38 8.13 21.179-24.31 22.358-59.759 3.049-82.93-18.596-22.315-40.92-22.56-40.92-22.56v-20.27l-15.083-16.618-11.72 10.637zm23.824 20.182c10.57 3.863 24.36 12.35 32.075 30.367 12.237 28.58 2.883 62.532-27.4 77.769-32.318 16.26-63.418-4.269-69.84-15.651 0 0 19.024-4.269 41.18-6.911v3.455s-.813.61-3.049 1.22-1.83 3.252-1.83 8.13c0 0-1.422 1.22-2.032 2.033s1.423 3.455 5.691 2.642c4.27-.813 7.521-3.455 7.521-3.455v-6.708c0-3.252.407-7.114.407-7.114s1.423-2.44 7.114-3.252c4.846-.692 14.635-.61 14.635-.61s-.61 3.049-7.318 10.163c0 0-2.845.61-4.065.61s-2.236 2.439-1.22 4.472c1.017 2.032 6.505 2.439 7.114-3.252 0 0 18.294-13.416 21.14-18.701 0 0-2.439-.406-12.806-.813s-14.431-.406-14.431-.406-1.016-13.212-9.96-19.717c0 0 3.862-2.235 5.894-3.252 0 0 3.05-16.87 6.302-30.896s4.878-20.123 4.878-20.123m-3.963-1.32s-.712 3.963-5.387 15.955c-3.923 10.064-10.57 25.204-10.57 25.204s-18.7-30.082-19.92-31.911-.705-5.588-.705-5.588a9671 9671 0 0 1 19.496-19.707l13.638 15.026c2.076.511 3.448 1.02 3.448 1.02M360.841 384.769l-4.896-10.125-5.856 2.831 4.897 10.126zm11.695-18.149 10.915 22.568-22.448 10.855-2.831-5.855 16.59-8.024-8.082-16.712z" style="fill:#d91920;fill-opacity:1;fill-rule:nonzero;stroke:none"/><path d="M261.049 390.723c1.438.306 2.395 1.781 2.088 3.22l-3.304 15.5 6.362 1.358 3.304-15.502c1.058-4.96-2.136-9.882-7.094-10.938l-14.177-3.021-1.356 6.36 3.216.676-3.873 18.166 6.362 1.356 3.873-18.166zM327.518 397.251l1.078 5.312 8.903-1.821c-.93-4.54-1.487-7.274-2.416-11.816l-18.455 3.774-1.303-6.372 24.827-5.076 5.023 24.56-24.827 5.076-1.304-6.371 3.178-.652-1.077-5.31zM236.321 383.25l-6.893 13.94-16.61-8.213-2.793 5.647-5.829-2.882 5.676-11.478 16.61 8.212c1.48-2.995 2.309-4.67 3.043-6.153l-2.795-14.433 7.38 3.648zM299.921 668.655l9.481-.626c1.222-.08 3.122 1.754 3.322 4.812l.972 14.767-17.644 1.162.935 14.197 6.49-.427-.507-7.706 17.645-1.163-1.4-21.257c-.417-6.324-5.025-11.218-10.24-10.874-5.215.342-9.482.624-9.482.624zM339.398 663.698l5.447 25.745-9.766 2.066-1.346-6.363 3.402-.72-4.103-19.391-5.33 1.13-1.348-6.364 19.67-4.162c5.113-1.082 10.37 3.107 11.682 9.307l4.412 20.843-9.768 2.065-1.346-6.364c1.295-.274 2.468-.522 3.403-.718l-3.065-14.48c-.634-2.997-2.776-4.543-3.972-4.29zM366.535 649.602l8.821 24.8-5.014 1.783 2.178 6.128 11.146-3.964-10.999-30.916zM431.364 612.823l16.167 20.758-17.336 13.502 3.996 5.131 18.832-14.666c2-1.558 2.362-4.469.805-6.468l-17.332-22.253zm-6.727 27.124-10.616-13.63 5.131-3.996 10.616 13.63zM264.234 659.989s-3.933 22.674-4.498 25.923l-15.242-2.644 4.5-25.934-6.41-1.112-5.61 32.343 23.52 4.081a4.624 4.624 0 0 0 5.328-3.755l4.822-27.79zM166.307 660.148l17.53 9.161a4.62 4.62 0 0 0 6.22-1.95l13.062-24.998-5.765-3.013-12.185 23.32c-2.746-1.437-15.85-8.285-15.85-8.285zM216.152 675.572l8.741-24.823 6.135 2.16-8.74 24.823 2.561.895-2.162 6.134-22.75-8.011 2.16-6.136zM395.36 666.245l-2.707 1.421 3.022 5.759 20.42-10.709a4.626 4.626 0 0 0 1.943-6.224l-13.086-24.972-24.512 12.83 3.016 5.763 18.753-9.816 9.188 17.538-10.273 5.388-4.762-9.087-5.762 3.018zM169.981 623.042 154.2 644.094l-17.581-13.181-3.901 5.206 19.097 14.316a4.623 4.623 0 0 0 6.454-.923l16.919-22.57zm-27.938.634 10.362-13.824 5.204 3.902-10.361 13.823z" style="fill:#d91920;fill-opacity:1;fill-rule:nonzero;stroke:none"/><path d="M210.773 237.617a4.62 4.62 0 0 1-2.166 6.148l-20.414 9.777-3.336-6.966 17.605-8.432-12.82-26.765 6.966-3.336zM350.648 195.303l-30.532-4.736-5.733 36.96 25.978 4.028a4.624 4.624 0 0 0 5.262-3.848zM323.2 221.078l3.364-21.694 15.268 2.368-3.365 21.694zM417.24 264.696l-9.365-5.981 4.157-6.51 2.855 1.824 11.817-18.502-6.306-4.038-15.978 25.02-9.365-5.981 4.158-6.51 2.855 1.823 13.492-21.126c1.364-2.136 3.946-2.95 5.735-1.806 1.792 1.142 21.126 13.49 21.126 13.49 4.273 2.73 5.536 8.459 2.808 12.733l-15.17 23.75-9.365-5.98 4.158-6.51s1.646 1.05 2.855 1.824l11.011-17.24a1.517 1.517 0 0 0-.454-2.066l-5.05-3.225zM210.146 203.294l7.29-2.555 12.374 35.294-12.653 4.436-2.555-7.289 5.364-1.88zM232.077 196.755l7.491-1.882 9.115 36.272-13.005 3.268-1.882-7.492 5.514-1.385zM351.41 225.751l-4.878 15.157 7.352 2.366 2.513-7.803 17.703 5.698 8.635-26.825c1.554-4.826-1.124-10.047-5.95-11.6l-11.141-3.587-2.367 7.354 11.142 3.585c.77.249 1.213 1.11.964 1.882l-6.268 19.472zM166.562 246.831l-8.115 5.51 9.756 14.343-9.193 6.242-4.34-6.389 2.803-1.903-21.853-32.176 6.39-4.339 12.107 17.827 11.466-7.788c3.073-2.075 5.702-1.735 8.19 1.86l10.634 15.66-9.193 6.243-4.339-6.39 2.804-1.905c-1.822-2.68-2.7-3.975-4.126-6.074-.832-1.156-1.415-1.842-2.991-.721M279.723 226.952l-11.048 1.185-.823-7.68 3.368-.361-2.339-21.827-7.445.79 3.162 29.515-11.047 1.183-.824-7.68 3.368-.36-2.67-24.926c-.27-2.52 1.237-4.767 3.35-4.993l24.923-2.672c5.04-.54 9.608 3.145 10.147 8.186l3.003 28.02-11.05 1.184-.821-7.68 3.369-.36-2.18-20.341a1.515 1.515 0 0 0-1.646-1.327l-5.957.637zM399.767 211.847l7.025 3.213-15.558 34.01-12.194-5.577 3.214-7.023 5.168 2.364z" style="fill:#fff;fill-opacity:1;fill-rule:nonzero;stroke:none"/></g></svg>