<svg xmlns="http://www.w3.org/2000/svg" xml:space="preserve" viewBox="1.01 1.41 748 997.1"><path d="m236.234 747.628-4.874-3.934c-13.612-10.897-26.493-21.201-38.539-31.785-38.329-31.575-69.835-59.148-97.442-102.42l-.557-.906v-.034c-9.992-15.91-15.457-34.744-17.233-59.288a321 321 0 0 1-.661-14.412V213.904l-22.316-51.558 10.236-4.143c52.394-21.167 107.434-36.972 163.622-46.929 48.147-8.529 97.478-12.846 146.634-12.846h10.792v.07c45.64.627 91.281 4.943 135.912 12.88 56.119 9.957 111.09 25.763 163.449 46.964l10.165 4.108-21.863 51.454V534.85c-.417 21.584-2.89 49.435-18.137 73.7v.034l-.557.906c-27.155 42.541-59.392 70.914-92.813 98.591-13.299 11.941-27.677 23.464-42.89 35.649l-4.839 3.899-139.219 99.566-138.835-99.566z" style="fill:#fff;fill-opacity:1;fill-rule:nonzero;stroke:none"/><path d="M3819.017-410.93c-49.566 0-99.304 4.368-147.864 12.964-56.67 10.052-112.198 25.961-165.055 47.312l-20.381 8.25 8.734 20.172 8.042 18.578 8.908 20.658V34.533c0 4.714.346 9.567.728 14.87 1.836 25.857 7.625 45.96 18.231 63.152l.035.104 1.11 1.733c28.283 44.331 60.275 72.407 99.095 104.364 12.131 10.641 24.99 20.935 38.577 31.854l4.68 3.743.45.347.45.346 131.747 94.486 12.513 8.942 12.478-8.907 132.127-94.486.485-.347.451-.381 4.575-3.674c15.217-12.2 29.6-23.743 43.015-35.77 33.898-28.076 66.618-56.913 94.45-100.517l1.11-1.733.035-.104c16.082-26.169 18.682-55.388 19.133-78.022v-317.598l16.637-39.167 8.526-20.069-20.242-8.214c-52.823-21.351-108.28-37.295-164.882-47.347-41.524-7.383-83.983-11.68-126.478-12.79v-.277h-21.455zm0 21.456c49.183.035 97.57 4.437 144.189 12.72 55.908 9.948 109.667 25.546 160.584 46.134l-18.335 43.188V34.083c-.52 24.92-3.882 48.074-16.568 68.108l-.347.347c0 .104 0 .173-.347.312-25.649 40.172-55.11 66.618-90.36 95.803-14.35 12.894-29.878 25.233-47 38.959l-132.128 94.486-131.747-94.486c-15.39-12.374-29.565-23.604-42.771-35.181-37.26-30.71-68.178-57.676-94.902-99.581v-.312l-.347-.347c-10.294-16.256-14.245-34.626-15.666-54.313-.347-4.54-.555-9.116-.624-13.795v-321.515l-10.71-24.748-8.042-18.578c50.986-20.589 104.78-36.152 160.758-46.065 46.619-8.284 94.936-12.651 144.12-12.651" style="fill:#cba864;fill-opacity:1;fill-rule:nonzero;stroke:none" transform="translate(-3460.741 500.386)scale(1.0044)"/><path d="M3819.017-389.46v721.225l144.154-105.508V-376.74c-46.653-8.284-94.97-12.686-144.154-12.72M3532.856 34.086c.485 24.921 3.64 48.075 16.325 68.109l.347.347v.311c30.987 48.526 67.52 77.017 113.064 114.486l12.235 8.942v-603.1c-55.943 9.913-109.771 25.475-160.723 46.064l18.717 43.326V34.086z" style="fill:#24355e;fill-opacity:1;fill-rule:nonzero;stroke:none" transform="translate(-3460.741 500.386)scale(1.0044)"/><path d="m4105.42-287.422 18.335-43.187c-50.916-20.589-104.675-36.186-160.584-46.134v603.031l12.236-8.977c45.579-37.434 82.111-65.925 113.064-114.45 0-.14 0-.209.346-.313l.347-.346c12.651-20.034 16.048-43.188 16.533-68.109M3674.862-376.83v603.1l144.19 105.474v-721.225a828.5 828.5 0 0 0-144.19 12.651" style="fill:#ec1d26;fill-opacity:1;fill-rule:nonzero;stroke:none" transform="translate(-3460.741 500.386)scale(1.0044)"/><path d="M3618.642-68.514c-30.64 72.442-62.702 156.425-26.967 211.605 26.1 39.964 57.122 63.673 95.56 94.52l131.782 94.487 132.058-94.486c38.439-30.848 69.252-54.314 95.352-94.243 0-.104 0-.174.347-.243v-.312c35.735-55.18 3.708-138.886-26.932-211.328l-26.654-78.923c24.886-16.984 37.052-41.905 39.028-66.618 1.386-17.33-2.184-34.557-9.948-48.907-4.714-8.7-10.918-16.325-18.474-22.287a66 66 0 0 0-8.007-5.372c-4.852-2.738-9.289-4.991-13.517-6.932a127 127 0 0 0-6.205-2.634 118 118 0 0 0-11.923-4.056 116 116 0 0 0-5.962-1.594c-2.98-.763-6.065-1.421-9.254-2.08-1.04-.208-2.08-.45-3.19-.658a136 136 0 0 1-11.506-2.808c-25.65-7.487-42.564-21.871-50.605-45.891-5.061 9.358-9.74 18.613-9.844 27.52 0 14.801 6.62 28.561 20.172 39.895 1.699 1.422 3.501 2.739 5.234 4.09 6.932 5.546 14.073 10.884 21.282 16.048 1.837 1.318 3.605 2.635 5.442 3.917 10.017 7.14 14.939 17.4 15.147 27.556 0 6.1-1.456 12.166-4.68 17.503-7.972-5.233-16.533-10.12-25.614-14.696-18.128-9.081-38.3-16.81-60.033-23.223-10.883-3.223-20.103-6.1-31.714-8.665-11.612 2.565-20.728 5.442-31.611 8.665-21.767 6.413-41.94 14.142-60.068 23.223-9.046 4.575-17.607 9.463-25.614 14.696a33.03 33.03 0 0 1-4.68-17.503c.347-10.156 5.13-20.416 15.182-27.556 1.803-1.282 3.605-2.6 5.407-3.917a481 481 0 0 0 21.282-16.048c1.733-1.351 3.57-2.668 5.234-4.09 13.552-11.334 20.311-25.094 20.173-39.894 0-8.908-4.749-18.163-9.81-27.521-8.075 24.02-24.99 38.404-50.64 45.891a130 130 0 0 1-11.507 2.808c-1.109.208-2.114.45-3.188.658-3.155.659-6.274 1.317-9.255 2.08a116 116 0 0 0-5.962 1.594 118 118 0 0 0-11.888 4.056 115 115 0 0 0-6.24 2.634c-4.228 1.94-8.664 4.194-13.517 6.932a63 63 0 0 0-7.972 5.372c-7.556 5.962-13.795 13.587-18.509 22.287-7.764 14.35-11.334 31.577-9.948 48.907 1.976 24.713 14.142 49.634 39.029 66.618z" style="fill:#24355e;fill-opacity:1;fill-rule:nonzero;stroke:none" transform="translate(-3460.741 500.386)scale(1.0044)"/><path d="M3819.017 59.233c33.794 0 61.21 18.578 61.21 41.489l-21.108 31.333-20.9-40.206v-9.463h-38.37v9.463l-20.9 40.206-21.144-31.333c0-22.911 27.417-41.49 61.212-41.49m-44.02-113.542-46.688 8.25-25.268-20.728zm87.415 0 46.688 8.25 25.268-20.728z" style="fill:#fff;fill-opacity:1;fill-rule:nonzero;stroke:none" transform="translate(-3460.741 500.386)scale(1.0044)"/><path d="M4032.25-214.048c1.352-17.33-2.218-34.557-9.982-48.907-4.679-8.7-10.953-16.325-18.474-22.287a68 68 0 0 0-7.972-5.372c-4.887-2.738-9.29-4.991-13.553-6.932a96 96 0 0 0-6.238-2.635c-4.056-1.629-7.972-2.946-11.854-4.09a299 299 0 0 0-5.962-1.594c-2.981-.728-6.1-1.386-9.29-2.045a72 72 0 0 0-3.153-.659 127 127 0 0 1-11.508-2.807c-25.684-7.487-42.598-21.871-50.674-45.891-5.026 9.358-9.705 18.613-9.775 27.486 0 14.835 6.586 28.595 20.104 39.93 1.698 1.42 3.57 2.703 5.303 4.09a481 481 0 0 0 21.282 16.047 307 307 0 0 0 5.407 3.917c10.017 7.106 14.973 17.4 15.147 27.556 0 6.1-1.456 12.166-4.68 17.503-8.006-5.233-16.498-10.12-25.58-14.696-18.162-9.081-38.3-16.81-60.101-23.257-10.85-3.19-20.07-6.066-31.68-8.631-11.612 2.565-20.728 5.442-31.611 8.63-21.767 6.448-41.905 14.177-60.068 23.258-9.046 4.575-17.642 9.463-25.614 14.696-3.189-5.337-4.749-11.403-4.68-17.503.347-10.156 5.165-20.45 15.182-27.556 1.803-1.282 3.605-2.6 5.407-3.917a504 504 0 0 0 21.317-16.048c1.698-1.386 3.535-2.668 5.234-4.09 13.517-11.334 20.31-25.094 20.138-39.929 0-8.873-4.749-18.128-9.81-27.486-8.04 24.02-24.955 38.404-50.604 45.891a134 134 0 0 1-11.543 2.807 98 98 0 0 0-3.154.66c-3.223.658-6.273 1.316-9.254 2.044-2.01.52-3.986 1.04-5.997 1.594-3.916 1.144-7.868 2.461-11.923 4.09-2.01.798-4.055 1.664-6.17 2.635-4.228 1.94-8.665 4.194-13.552 6.932a72 72 0 0 0-8.007 5.372c-7.556 5.962-13.725 13.587-18.44 22.287-7.798 14.35-11.333 31.576-9.947 48.907 1.976 24.713 14.107 49.6 39.028 66.584l-26.307 78.957 44.99-44.089 127.413 35.424 2.98 52.06-80.932 14.94-1.179-6.205-37.884-44.47-12.79 25.06 68.94 95.006.555 3.015c13.657-16.568 41.87-32.13 70.223-36.463l-5.095-19.375h46.411l-5.06 19.375c28.283 4.333 56.462 16.603 70.153 33.17l.59 3.57 68.975-98.298-12.894-25.06-37.78 44.47-1.248 6.205-80.934-14.94 2.947-52.06 127.517-35.424 45.337 44.09-26.655-78.958c24.887-16.984 37.018-41.87 39.029-66.584" style="fill:#fff;fill-opacity:1;fill-rule:nonzero;stroke:none" transform="translate(-3460.741 500.386)scale(1.0044)"/><path d="M3682.66-152.376c0-7.383 6.309-13.379 14.107-13.379 7.764 0 14.073 5.996 14.073 13.38 0 7.382-6.309 13.378-14.073 13.378-7.798 0-14.107-5.996-14.107-13.379m122.284 30.814c0-7.383 6.308-13.38 14.073-13.38 7.798 0 14.107 5.997 14.107 13.38 0 7.382-6.309 13.379-14.107 13.379-7.765 0-14.073-5.997-14.073-13.38m122.284-30.813c0-7.383 6.308-13.379 14.072-13.379 7.799 0 14.107 5.996 14.107 13.38 0 7.382-6.308 13.378-14.107 13.378-7.764 0-14.072-5.996-14.072-13.379" style="fill:#24355e;fill-opacity:1;fill-rule:nonzero;stroke:none" transform="translate(-3460.741 500.386)scale(1.0044)"/><path d="M3818.74 488.79c-104.504 0-206.407-19.723-302.903-58.647l-6.655-2.669 9.913-24.54c-16.984-6.828-33.482-14.038-49.045-21.524l-10.19-4.888 65.336-52.927V240.27l10.26 4.922a646 646 0 0 0 63.637 26.481l7.175 2.53-9.463 22.183C3668.068 322.001 3742.693 335 3818.74 335c76.012 0 150.602-12.964 221.76-38.543l-9.462-22.183 7.175-2.565c21.594-7.626 42.98-16.534 63.603-26.412l10.26-4.922v83.221l65.994 53.933-10.155 4.887c-15.598 7.487-32.097 14.696-49.15 21.49l9.532 23.569-6.62 2.669c-96.496 38.924-198.434 58.646-302.937 58.646" style="fill:#23345d;fill-opacity:1;fill-rule:nonzero;stroke:none" transform="translate(-3460.741 500.386)scale(1.0044)"/><path d="M3818.982 485.216c-104.052 0-205.505-19.653-301.585-58.404l-3.327-1.317 54.868-135.836 3.327 1.317c78.577 31.715 161.59 47.763 246.682 47.763h.035c85.127 0 168.14-16.048 246.717-47.763l3.327-1.317 54.869 135.836-3.328 1.317c-96.08 38.75-197.533 58.404-301.585 58.404" style="fill:#23345d;fill-opacity:1;fill-rule:nonzero;stroke:none" transform="translate(-3460.741 500.386)scale(1.0044)"/><path d="M3518.056 228.905v91.262l-53.898 43.673-17.573 14.246 20.38 9.774c13.691 6.586 28.041 12.929 42.841 18.994l-4.54 11.3-5.373 13.275 13.275 5.338c48.456 19.548 99.096 34.487 150.533 44.4 50.917 9.81 103.116 14.766 155.073 14.766 51.922 0 104.121-4.957 155.073-14.766 51.402-9.913 102.042-24.852 150.498-44.4l13.275-5.338-5.407-13.275-4.09-10.295c14.765-6.065 29.184-12.408 42.91-18.994l20.277-9.74-17.435-14.245-54.66-44.678v-91.158l-20.485 9.809c-20.38 9.774-41.558 18.543-62.875 26.134l-14.35 5.095 5.962 14.003 3.466 8.145c-68.247 23.64-139.544 35.597-212.16 35.597-72.718 0-144.05-11.992-212.367-35.631l3.466-8.18 5.997-14.003-14.35-5.095a657 657 0 0 1-62.979-26.17zm14.28 22.738c21.108 10.086 42.563 19.028 64.4 26.758l-9.463 22.113c74.556 27.764 152.994 41.628 231.5 41.628 78.404 0 156.807-13.864 231.293-41.558l-9.427-22.114a654 654 0 0 0 64.261-26.724v75.25l59.963 48.975c-18.231 8.735-36.74 16.672-55.388 23.916l9.532 23.604c-96.115 38.751-198.191 58.162-300.233 58.162-102.146 0-204.153-19.41-300.268-58.162l9.948-24.574c-18.648-7.279-37.122-15.216-55.32-23.95l59.202-47.972z" style="fill:#cba864;fill-opacity:1;fill-rule:nonzero;stroke:none" transform="translate(-3460.741 500.386)scale(1.0044)"/><path d="m4071.002 284.99-6.62 2.669c-78.161 31.541-160.724 47.52-245.4 47.52-84.642 0-167.205-15.979-245.365-47.52l-6.655-2.67-2.669 6.621-52.165 129.216-2.703 6.655 6.655 2.669c48.005 19.375 98.194 34.176 149.18 43.985 50.502 9.74 102.216 14.661 153.722 14.661s103.22-4.922 153.721-14.661a808 808 0 0 0 149.216-43.985l6.62-2.669-2.67-6.655-52.199-129.216zm-3.952 9.324 52.165 129.18c-96.08 38.752-198.157 58.127-300.233 58.127-102.077 0-204.153-19.375-300.233-58.126l52.164-129.181c79.409 31.992 163.739 48.005 248.069 48.005s168.695-16.013 248.068-48.005m-598.664-674.658c-1.455-3.397-.38-6.517 2.565-7.764 3.19-1.387 6.24.138 7.244 2.46.486 1.144.624 2.115.555 3.155 2.288.485 5.303.138 8.423-1.179 5.199-2.253 7.521-5.996 5.788-10.12-1.698-3.883-6.482-4.056-11.958-3.71-10.19.624-17.643.451-21.42-8.353-3.259-7.59.346-16.186 9.982-20.311 8.908-3.813 17.712-2.184 20.173 3.535 1.455 3.397.346 6.24-2.565 7.418-3.328 1.42-6.24-.208-7.28-2.6-.484-1.144-.484-1.768-.45-2.46-1.629-.243-3.951-.035-6.897 1.247-4.714 2.01-6.447 5.58-4.957 9.047 1.664 3.916 6.412 3.95 11.924 3.639 9.843-.624 17.538-.416 21.316 8.423 3.882 9.011-.936 17.157-10.71 21.35-9.393 4.056-19.272 2.011-21.733-3.777m53.309-18.606 6.065-2.184-12.27-33.968-9.046 3.258 2.808 7.695-7.938 2.877-5.407-14.974 42.252-15.285 5.407 14.973-7.903 2.877-2.807-7.694-9.012 3.223 12.27 34.002 6.065-2.218 2.704 7.487-20.485 7.417zm61.419-36.855-12.686-17.504-1.178 21.594zm-27.59 24.574 4.298-1.248 2.218-38.127-5.442 1.595-2.218-7.556 28.075-8.25 2.254 7.557-5.477 1.594 22.53 30.848 4.298-1.248 2.253 7.626-19.099 5.615-2.218-7.556 5.754-1.699-5.2-7.313-18.578 5.442-.38 8.977 6.03-1.768 2.218 7.522-19.098 5.615zm77.086-20.859c13.067-2.877 18.266-11.403 15.875-22.252-2.392-11.057-11.577-15.424-24.16-12.651l-4.401.97 7.695 35.042zm-19.445 4.264 5.754-1.248-7.66-35.042-5.754 1.247-1.698-7.729 19.098-4.229c18.266-3.986 31.195 3.154 34.557 18.44 3.397 15.424-4.575 27.971-24.402 32.339l-18.162 3.986zm58.335-12.267 5.822-.901-5.372-35.493-5.858.867-1.178-7.834 38.23-5.823 2.22 14.627-8.423 1.283-1.04-6.863-15.182 2.322 2.08 13.691 15.493-2.322 1.144 7.452-15.493 2.357 2.183 14.488 15.286-2.322-1.04-6.863 8.388-1.283 2.218 14.627-38.265 5.858zm69.217-9.597 6.135-.347-.346-35.909-6.447.381-.45-7.937 14.14-.797 17.47 27.902 14.28-29.635 14.038-.763.45 7.903-6.446.381 3.64 35.736 6.1-.347.45 7.937-21.212 1.179-.451-7.938 6.239-.346-2.496-26.585-13.344 26.724-1.179.069-16.186-25.095.416 26.69 6.204-.347.45 7.937-21.039 1.144-.45-7.938zm102.839-18.482-6.828-20.519-7.66 20.242zm-33.76 15.147 4.472.104 13.656-35.735-5.684-.104v-7.868l29.288.589v7.868l-5.684-.104 12.2 36.22 4.472.105v7.937l-19.895-.416.346-7.868 5.962.139-2.738-8.562-19.376-.38-3.05 8.422 6.274.138v7.868l-19.93-.416v-7.937zm60.172 1.698 5.858.486 2.98-35.736-5.892-.485.659-7.937 21.559 1.802-.659 7.903-6.793-.555-2.981 35.805 14.176 1.178.624-7.278 8.527.727-1.248 15.113-37.468-3.085zm46.55 3.886 5.823.866 5.268-35.458-5.858-.866 1.179-7.868 21.005 3.12-1.179 7.833-6.378-.936-1.975 13.552 23.639 3.501 2.01-13.552-6.378-.936 1.144-7.868 21.005 3.12-1.144 7.833-5.858-.832-5.234 35.458 5.823.866-1.143 7.868-21.005-3.12 1.144-7.867 6.377.97 2.115-14.245-23.639-3.501-2.114 14.21 6.377.971-1.178 7.834-20.97-3.085zm62.042 9.736 5.79 1.248 7.555-35.042-5.753-1.248 1.698-7.764 37.711 8.18-3.12 14.454-8.283-1.803 1.455-6.759-15.008-3.258-2.911 13.518 15.285 3.327-1.594 7.348-15.286-3.292-3.12 14.315 15.078 3.258 1.456-6.76 8.319 1.803-3.155 14.42-37.78-8.18zm85.613-7.656c1.456-5.234-2.149-8.943-9.011-10.884l-4.645-1.282-4.506 15.944c.901.346 2.08.762 4.818 1.525 6.412 1.837 11.854-.07 13.344-5.303m-37.607 18.3 5.65 1.63 9.74-34.523-5.65-1.594 2.149-7.66 19.306 5.442c11.403 3.223 18.197 10.467 15.355 20.623-1.837 6.412-7.14 10.225-13.206 10.883l3.813 15.702 5.684 1.594-2.149 7.66-11.507-3.258-4.68-21.732c-1.074-.243-2.08-.416-3.05-.693-1.594-.451-3.05-.867-4.09-1.248l-3.154 11.195 6.204 1.768-2.149 7.625-20.415-5.753zm77.121.701c5.858 2.045 10.086.52 11.542-3.709 1.456-4.16-1.144-7.66-7.106-9.74l-5.476-1.906-4.68 13.344zm-6.378 21.108c5.789 2.045 10.503 1.005 12.132-3.674 1.594-4.54-1.11-8.284-7.418-10.502l-6.412-2.253-4.922 14.142zm-20.45-7.279 5.546 1.941 11.854-33.898-5.58-1.94 2.634-7.522 19.549 6.828c11.958 4.194 15.909 11.75 13.344 19.098-1.976 5.65-6.759 8.076-12.166 8.007 5.477 3.916 7.903 8.734 5.754 14.835-2.842 8.11-11.3 11.403-23.188 7.244l-20.381-7.106zm47.624 16.932 5.442 2.288 13.83-33.136-5.442-2.253 3.05-7.313 35.632 14.87-5.685 13.656-7.833-3.293 2.669-6.378-14.142-5.927-5.338 12.79 14.42 6.031-2.912 6.967-14.42-6.031-5.649 13.518 14.211 5.927 2.669-6.378 7.833 3.258-5.684 13.657-35.735-14.905z" style="fill:#cba864;fill-opacity:1;fill-rule:nonzero;stroke:none" transform="translate(-3460.741 500.386)scale(1.0044)"/><path d="M3663.042 396.082c3.536-20.936 22.391-33.31 42.702-29.843 16.187 2.738 25.511 12.997 24.124 21.35-.866 5.096-4.748 8.042-9.08 7.28-4.75-.798-7.522-4.298-6.76-8.874.347-1.352.763-2.669 1.352-3.466-1.733-1.906-5.51-4.194-11.854-5.234-13.518-2.322-25.649 6.274-28.11 20.762-2.357 13.969 5.511 26.724 20.207 29.22 8.146 1.386 15.39-1.075 21.525-5.824l6.55 9.602c-8.04 6.342-18.855 9.185-29.98 7.313-21.456-3.64-34.35-20.623-30.676-42.286m121.383 17.905-8.25-28.318-11.472 27.175zm-46.792 18.89 6.1.347 20.45-47.936-7.73-.45.624-10.71 39.86 2.322-.623 10.71-7.73-.45 14.731 49.98 6.1.347-.624 10.849-27.104-1.595.623-10.71 8.146.485-3.293-11.819-26.377-1.525-4.61 11.334 8.561.52-.624 10.676-27.104-1.56zm85.266 3.869 8.04-.312-1.975-48.907-8.041.347-.45-10.849 52.65-2.114.831 20.172-11.611.451-.347-9.428-20.935.832.762 18.89 21.351-.866.416 10.294-21.35.832.831 19.93 21.005-.832-.382-9.428 11.577-.45.797 20.138-52.754 2.114zm84.018-43.545 5.441 37.469 8.735-1.248 1.56 10.71-28.353 4.16-1.56-10.745 7.938-1.144-7.037-48.422-7.972 1.144-1.56-10.71 18.163-2.669 40.796 38.855-4.818-33.136-8.7 1.248-1.594-10.71 28.075-4.09 1.525 10.745-7.625 1.109 8.63 59.27-6.447 1.144z" style="fill:#fff;fill-opacity:1;fill-rule:nonzero;stroke:none" transform="translate(-3460.741 500.386)scale(1.0044)"/><path d="m3579.717 388.172 6.413 2.045 7.764-23.985-6.343-.486.346-5.684 11.196.659 3.085 1.005-9.81 30.467 6.309 2.045-1.768 5.51-18.89-6.1 1.768-5.476zm52.789-5.057c.52-1.872 0-3.778-.97-5.373-1.075-1.663-2.843-2.98-5.061-3.57-4.02-1.109-7.937 1.006-8.908 4.541-1.04 3.813 1.352 7.14 5.927 8.423 4.055 1.109 8.041-.486 9.012-4.021m-20.034 10.433c2.6.693 3.293 2.98 2.807 4.68 0 .45-.346.866-.485 1.178.693.485 1.699.935 2.981 1.282 5.234 1.456 10.988-2.634 12.998-9.67-2.773 1.594-6.586 2.045-9.775 1.178-7.452-2.045-11.61-8.526-9.843-15.043 1.872-6.759 9.116-10.467 16.914-8.318 4.194 1.143 7.071 3.604 8.804 6.62 2.218 3.951 2.288 8.734.624 14.835-3.5 12.72-12.478 18.197-21.212 15.805-3.19-.866-5.858-2.495-7.383-4.471-1.248-1.56-1.733-3.362-1.248-5.2.763-2.807 2.912-3.396 4.818-2.876m383.073 11.694 7.348-1.906-7.106-27.486-6.308 3.362-3.154-5.58 11.022-6.1 3.57-.936 9.012 34.903 7.244-1.872 1.63 6.309-21.63 5.615zm50.882-19.794c-.763-2.461-2.634-4.09-5.927-4.298-1.837-.104-4.125.208-6.932 1.074l-2.6.832-1.94-6.204 2.772-.867c2.634-.832 4.714-1.975 6.1-3.327 1.768-1.768 2.392-3.848 1.664-6.205-1.074-3.362-5.164-3.778-8.838-2.634-2.53.797-4.298 1.907-5.234 3.12.693.52 1.282 1.351 1.56 2.149.693 2.287-.624 4.783-2.947 5.51-2.287.729-4.99-.588-5.927-3.604-.346-1.11-.346-2.634.347-4.194 1.144-3.258 4.367-6.967 10.71-8.942 8.041-2.53 15.632.034 17.539 6.135 1.074 3.43 0 6.966-2.184 9.566-.832 1.005-1.976 1.906-3.12 2.53 1.318 0 2.704.104 4.09.416 3.57.797 6.967 2.808 8.284 7.14 2.253 7.106-3.5 13.622-11.923 16.256-5.962 1.872-11.785 1.04-15.181-1.386-1.318-.936-2.288-2.184-2.739-3.605-.831-2.634.347-5.338 2.843-6.135 2.391-.762 4.817.485 5.545 2.842.347.867.347 1.941 0 2.773 2.115.728 5.165.381 7.764-.416 4.229-1.317 7.556-4.783 6.378-8.526" style="fill:#cba864;fill-opacity:1;fill-rule:nonzero;stroke:none" transform="translate(-3460.741 500.386)scale(1.0044)"/></svg>