<svg xmlns="http://www.w3.org/2000/svg" viewBox="0 0 566.93 566.93"><path d="M297.638 137.48a283.465 283.465 0 0 1 283.465 283.465A283.465 283.465 0 1 1 297.638 137.48" style="fill:#000200;fill-rule:evenodd" transform="translate(-14.173 -137.48)"/><path d="M297.638 143.74a277.206 277.206 0 0 1 277.205 277.205 277.206 277.206 0 1 1-277.205-277.206" style="fill:#fff;fill-rule:evenodd" transform="translate(-14.173 -137.48)"/><path d="M297.637 149.247a271.7 271.7 0 0 1 271.698 271.698 271.698 271.698 0 1 1-271.698-271.698" style="fill:#000200;fill-rule:evenodd" transform="translate(-14.173 -137.48)"/><path d="M297.637 154.755a266.19 266.19 0 0 1 266.19 266.19 266.19 266.19 0 1 1-266.19-266.19" style="fill:#db0520;fill-rule:evenodd" transform="translate(-14.173 -137.48)"/><path d="M297.637 264.16a156.785 156.785 0 0 1 156.785 156.785A156.785 156.785 0 1 1 297.637 264.16" style="fill:#000200;fill-rule:evenodd" transform="translate(-14.173 -137.48)"/><path d="M297.637 266.226a154.72 154.72 0 0 1 154.72 154.719 154.72 154.72 0 1 1-154.72-154.72" style="fill:#fff;fill-rule:evenodd" transform="translate(-14.173 -137.48)"/><path d="M297.637 267.352A153.593 153.593 0 0 1 451.23 420.945a153.593 153.593 0 1 1-153.593-153.593" style="fill:#000200;fill-rule:evenodd" transform="translate(-14.173 -137.48)"/><path d="M297.638 269.417a151.53 151.53 0 0 1 151.527 151.528 151.528 151.528 0 1 1-151.527-151.528" style="fill:#fff;fill-rule:evenodd" transform="translate(-14.173 -137.48)"/><path d="M123.129 581.508h351.228c16.498 0 27.515 4.858 34.802 12.468 8.392 8.762 13.924 22.645 13.723 36.005-.226 14.962-2.034 23.428-9.347 33.057-7.784 10.251-21.567 17.463-40.43 17.463H121.627c-19.7 0-31.338-6.647-39.064-17.219-6.402-8.76-9.527-20.134-9.731-31.42-.182-10.024 1.246-19.038 5.463-26.827 7.516-13.884 22.692-23.527 44.834-23.527" style="fill:#000200;fill-rule:evenodd" transform="translate(-14.173 -137.48)"/><path d="M123.129 584.262c-17.22 0-33.874 6.312-42.413 22.084-4.202 7.764-5.289 16.756-5.13 25.466.188 10.417 2.995 21.355 9.2 29.845 9.032 12.357 21.974 16.09 36.84 16.09h351.48c14.346 0 29.256-4.549 38.236-16.374 7.633-10.052 8.6-19.02 8.786-31.434.18-11.998-4.643-25.377-12.958-34.059-8.596-8.976-20.79-11.618-32.813-11.618z" style="fill:#fff;fill-rule:evenodd" transform="translate(-14.173 -137.48)"/><path d="M124.881 588.017c-16.904 0-31.247 5.592-39.11 20.117-3.875 7.16-4.823 15.583-4.679 23.61.174 9.63 2.738 19.842 8.478 27.697 8.323 11.387 20.26 14.55 33.81 14.55h347.973c13.131 0 27.005-4.037 35.246-14.89 7.126-9.384 7.85-17.791 8.022-29.218.164-10.99-4.274-23.426-11.916-31.405-7.844-8.191-19.172-10.461-30.1-10.461z" style="fill:#000200;fill-rule:evenodd" transform="translate(-14.173 -137.48)"/><path d="M124.881 594.777c-13.698 0-26.311 3.913-33.165 16.575-3.28 6.06-3.987 13.482-3.865 20.27.148 8.211 2.274 17.122 7.177 23.83 6.979 9.55 17.067 11.78 28.351 11.78h347.974c10.925 0 22.963-3.131 29.863-12.218 6.14-8.087 6.499-15.412 6.646-25.232.138-9.208-3.629-19.936-10.039-26.63-6.463-6.748-16.27-8.375-25.218-8.375zM295.45 432.742H176.946c-21.995 0-37.01 18.315-31.546 37.039 5.025 17.215 30.519 24.089 45.08 16.642z" style="fill:#db0520;fill-rule:evenodd" transform="translate(-14.173 -137.48)"/><path d="m293.62 438.73-101.374 52.332c-19.543 10.088-23.539 30.71-9.825 44.58 14.802 14.97 40.683 10.721 49.646-2.96z" style="fill:#000200;fill-rule:evenodd" transform="translate(-14.173 -137.48)"/><path d="m295.704 444.584-57.67 88.425c-12.398 19.01-5.456 39.156 16.942 45.976 13.589 4.138 28.485-1.986 35.956-13.533 4.12-6.366 4.846-12.9 4.841-20.216zM299.862 444.584l57.67 88.425c12.398 19.01 5.456 39.156-16.942 45.976-13.589 4.138-28.485-1.986-35.956-13.533-4.12-6.366-4.846-12.9-4.841-20.216z" style="fill:#db0520;fill-rule:evenodd" transform="translate(-14.173 -137.48)"/><path d="m302.262 438.73 101.374 52.332c19.543 10.088 23.539 30.71 9.825 44.58-14.803 14.97-40.077 10.304-49.647-2.96z" style="fill:#000200;fill-rule:evenodd" transform="translate(-14.173 -137.48)"/><path d="M300.004 432.742h118.507c21.994 0 37.01 18.315 31.545 37.039-5.025 17.215-30.519 24.089-45.08 16.642z" style="fill:#db0520;fill-rule:evenodd" transform="translate(-14.173 -137.48)"/><path d="m286.081 312.1 5.252 18.657-.138 2.902c-2.187 9.102-4.544 17.227-6.422 23.299-.703 2.271-1.697 6.63-3.082 11.58-1.084 3.874-2.566 8.026-3.649 11.605l-25.819-24.373-7.047 4.008 51.046 40.888-7.238 10.797 7.462 5.804 10.918-14.234.228-12.919c1.885-1.603 3.629-3.115 5.008-3.46 8.303-2.078 16.032-5.43 22.437-10.717 11.979-9.886 19.616-24.847 19.616-41.587 0-29.761-24.136-53.646-53.897-53.646-16.47 0-31.663 7.358-41.95 18.973-3.563-.129-6.129-.2-11.21-1.052-2.01-.336-3.926-2.171-5.69-1.762-1.208.28-2.401 1.918-2.466 2.525-.13 1.214.167 2.194 1.724 2.7 1.874.609 2.248.5 2.988-1.07.233-.492.473-.852 1.576-.803 4.927.22 8.54 1.273 12.152 2.116 3.246.759 6.626 1.844 9.87 2.602l14.379 3.787c1.564.365 3.517 1.834 3.952 3.38m20.493 76.523-8.89 10.06-17.635-16.647 15.225-32.035c.434-.91 1.242-1.59 1.863-2.385 2.958 4.172 3.535 7.387 5.267 11.132 1.529 3.304 3.128 6.729 4.48 9.972a703 703 0 0 1 6.474 16.104 68 68 0 0 1-5.307 2.02zm10.118-5.343-13.474-49.069-1.688-1.808 2.035-1.84 6.286-16.114c8.033.04 18.757-.455 24.323-1.659-2.412-3.212-5.108-4.359-8.215-6.684-.716-.536-1.139-1.174-1.874-1.68-4.017-2.764-5.655-4.752-8.24-7.026-.655-.576-.4-.244-1.433-.568-.415-1.59.066-2.793-1.175-3.87-2.16-1.873-3.377-2.117-4.285-1.59-1.286.743-1.895 2.52-1.036 3.73 1.75 2.467 3.155 2.161 4.56 3.242 1.505 1.784 6.432 6.3 8.154 8.878 1.14 1.706-1.329 2.056-2.653 1.883l-16.21-2.118c-.953-.125-2.333-1.795-2.992-5.522-.37-2.09.246-4.848-.186-8.294-.362-2.891-4.446-3.26-7.663-3.475-1.685-.112-2.899-.132-3.256.848-.587 1.61.45 1.689 1.501 3.08.395.522.415 2.079.381 3.414-.01.433-.74.706-.286 1.2 1.924 2.086 4.264 1.84 4.554 2.668 1.472 4.196-.197 5.609-2.21 5.252l-28.69-5.087-3.254-1.344c4.313-4.432 9.281-8.236 14.798-10.79 6.157-2.852 13-4.035 20.38-4.035 28.464 0 51.547 23.333 51.547 51.797 0 12.89-4.473 24.43-12.343 33.47-4.622 5.31-10.615 9.758-17.356 13.111" style="fill:#101915;fill-rule:evenodd" transform="translate(-14.173 -137.48)"/><path d="M326.987 612.4v45.19h8.845V612.4zM342.259 612.4v32.061h8.845V612.4zM433.889 612.4v32.061h8.844V612.4zM396.464 612.4h7.464l12.215 18.182c2.735-4.2 2.952-11.215 2.987-18.107l9.43-.014c-.435 12.034-3.738 20.333-9.914 26.992-4.427 4.773-10.136 9.376-16.75 11.628-1.788.609-3.071-.007-3.543-.996-.568-1.193-.11-2.722 1.476-3.579 2.626-1.418 8.26-4.294 10.788-8.368l-15.006-23.084c-1.095-1.685-1.056-2.654.853-2.654M452.583 612.103l7.142 6.032c2.316-3.308 5.428-6.366 11.987-6.64 4.862-.204 8.997 1.903 11.818 4.758s4.468 6.545 4.632 10.812c.233 6.052-1.812 10.41-4.791 13.184-4.082 3.803-10.292 4.826-17.497 4.212-3.063-.262-3.383-5.573 1.263-5.552 7.198.035 11.148-3.776 11.918-9.382 1.27-9.241-4.72-13.837-9.39-12.634s-6.338 5.828-7.067 9.5l-3.591 18.068h-9.095l2.956-14.986c.401-2.035.51-3.654.3-5.232-.586-4.363-3.047-7.122-3.945-9.162-1.29-2.93 1.29-4.439 3.36-2.978M276.311 612.464c3.792-1.033 8.887-1.042 10.81-.97 2.72.103 5.74.727 8.081 1.598 6.223 2.315 10.181 7.22 9.95 15.071-.18 6.188-2.287 9.244-5.265 12.017-3.189 2.97-7.846 4.288-13.166 4.428-1.489.04-6.888-.378-10.831-1.742-1.992-.688-2.47-2.769-1.813-3.993.51-.952 1.36-1.474 2.73-1.28.556.078 4.153 1.11 8.21 1.186 6.31.118 10.181-3.904 10.89-9.044 1.276-9.24-4.868-12-9.657-12.565-2.732-.322-4.938-.375-9.278.377-2.928.508-4.203-4.118-.66-5.083M221.087 612.4v32.061h8.845V612.4zM119.513 602.035h9.095V612.4h16.047c2.685 0 2.873 1.302 2.933 2.394.165 3-.018 6.554-1.099 9.388-1.434 3.765-4.24 5.585-7.314 7.504-3.049 1.904-5.589 4.018-6.13 12.706l-9.095.07c.079-1.713.305-3.224.646-4.57 1.098-4.342 3.746-7.351 7.36-9.938 1.868-1.336 3.836-2.472 5.137-4.486 1.102-1.708 1.372-3.59 1.246-5.98-.083-1.584-.586-1.32-1.485-1.319l-17.341.035zM155.51 613.877c.46-.63 1.487-1.117 2.74-1.493 2.567-.77 6.693-1.022 9.252-.642 6.82 1.012 9.104 5.287 9.104 11.562v9.41c0 3.96.892 8.733 1.753 11.747h-8.802c-.407-1.847-.67-3.833-.893-5.68-5.225 4.327-8.535 6.235-12.88 6.81-1.87.246-2.861-.262-3.321-1.048-.7-1.195-.325-2.688 1.48-3.54 7.24-3.42 13.819-8.767 13.819-15.69v-3.242c0-2.007-1.18-4.484-3.676-4.845-2.52-.365-3.466-.1-6.298.407-1.992.356-3.589-1.962-2.277-3.756M185.112 617.807c-1.645.178-2.731-1.133-2.503-2.506.212-1.28 1.028-2.201 2.955-2.694 5.409-1.383 12.171-1.578 16.134-.589 9.442 2.36 13.213 9.73 13.213 18.703v13.74h-8.845V631.83c0-5.582-.583-13.425-11.272-14.29-2.527-.204-5.536-.182-9.682.267M387.653 612.4c1.12 0 2.244.565 2.5 1.59.224.9.123 1.588-.41 2.172-.774.848-2.273 1.2-3.309 1.598-1.81.696-2.946 1.478-3.68 2.28-.835.91-1.11 1.823-1.11 3.056v21.365h-9.092l.07-25.04c.001-.735-.315-1.384-1.33-1.384h-12.408c-1.764 0-2.783-1.29-2.783-2.784 0-1.486 1.02-2.853 2.714-2.853zM266.732 612.4c1.12 0 2.244.565 2.5 1.59.224.9.123 1.588-.41 2.172-.774.848-2.273 1.2-3.309 1.598-1.81.696-2.947 1.478-3.681 2.28-.834.91-1.11 1.823-1.11 3.056v21.365h-9.091l.069-25.04c.002-.735-.315-1.384-1.33-1.384h-12.407c-1.764 0-2.784-1.29-2.784-2.784 0-1.486 1.021-2.853 2.715-2.853zM453.821 244.139l-33.259 36.316 10.019 9.175 33.259-36.317zM398.625 207l8.788 5.075 2.259 33.24c6.797-3.452 12.42-12.528 17.707-21.578l12.155 7.152c-9.725 15.521-20.527 23.941-33.728 28.014-9.46 2.92-17.323 4.249-30.491 2.577-2.578-.327-4.041-1.792-3.91-4.006.12-2.008 1.925-3.67 4.666-3.592 4.538.13 14.146.626 20.575-2.817l-2.145-40.618c-.178-3.373.07-5.788 4.124-3.447M165.278 227.554l8.745-4.906 29.772 15.503c.553-7.604-4.317-18.21-9.338-26.72l12.4-6.717c8.272 16.342 9.906 29.94 6.58 43.348-2.385 9.61-5.305 17.03-13.535 27.444-1.612 2.04-3.622 2.536-5.45 1.28-1.658-1.138-2.133-3.533-.667-5.85 2.591-4.096 7.425-10.686 8.486-19.076l-36.308-19.133c-2.987-1.574-4.782-2.91-.685-5.173M335.399 172.308l13.518 3.251-3.706 15.405 23.851 5.599c3.893.914 3.672 2.702 3.063 5.737-.862 4.295-2.371 8.983-4.826 12.57-3.477 5.082-7.61 6.37-12.864 8.123-5.21 1.74-10.157 4.388-14.068 17.107l-13.542-3.149c.73-2.516 1.606-4.681 2.594-6.56 3.185-6.06 8.058-9.725 14.356-12.277 3.252-1.318 6.722-2.165 9.375-4.693 2.249-2.144 3.322-4.845 3.99-8.443.443-2.383-.261-2.447-1.597-2.766l-25.787-6.15zM496.116 341.36l3.382 12.697-23.72 6.319-3.382-12.697zm15.91-2.252c-.942-2.45.209-4.265 1.656-4.894 1.366-.594 3.86-.629 6.067 2.981 4.454 7.283 7.963 18.634 8.06 24.878.234 14.885-9.112 23.89-22.375 27.424l-20.311 5.41-3.547-13.316 18.672-4.973c8.251-2.199 19.774-5.834 16.84-21.975-.693-3.812-2.772-9.583-5.062-15.535M90.376 381.652l4.177-12.458 23.273 7.803-4.178 12.458zm-14.517-6.892c-.564 2.564-2.525 3.443-4.08 3.17-1.466-.256-3.566-1.602-3.418-5.83.3-8.533 3.629-19.937 6.99-25.201 8.01-12.548 20.772-14.91 33.785-10.546l19.93 6.683-4.382 13.065-18.32-6.143c-8.097-2.715-19.715-6.034-26.164 9.05-1.524 3.563-2.97 9.524-4.34 15.752M234.089 203.613c-2.504.78-4.244-.486-4.777-1.97-.503-1.399-.476-4.095 3.367-5.86 7.14-3.281 17.36-5.74 23.595-5.434 14.867.727 23.251 10.637 25.92 24.1l4.086 20.62-13.517 2.678-3.757-18.954c-1.66-8.377-4.544-20.113-20.84-18.226-3.846.446-7.99 1.147-14.077 3.046M500.106 302.92c.701 10.539-5.537 18.91-13.802 23.348-8.595 4.616-14.426 4.14-20.556 2.25-6.564-2.021-12.027-7.349-16.398-14.506-1.127-1.846-4.47-8.22-5.645-14.918-.463-2.636-.1-5.372 2.68-6.37 2.107-.757 4.041.35 4.883 2.445.33.821 1.625 7.444 4.71 13.046 4.799 8.713 14.447 9.724 22.027 6.654 12.29-5.07 12.61-15.44 10.75-19.919-2.461-5.927-8.731-10.026-16.237-6.82-3.751 1.603-7.732 6.153-5.881 14.345.471 2.087-.135 3.82-2.507 4.304-2.095.429-3.58-.7-4.405-2.47-6.294-13.483-1.884-22.12 3.85-25.718 8.668-5.44 19.61-2.146 25.994 3.55 5.877 5.243 10.01 12.88 10.537 20.78M98.852 298.724l7.944-11.875c2.65-3.962 6.699-4.068 10.48-1.54l24.305 16.259c9.247 6.185 6.79 14.987 1.009 22.372l-7.56 9.662c-1.703 2.176-4.29 1.735-6.117.01-1.612-1.522-1.542-3.768-.232-5.665l3.929-5.689c3.564-5.16 1.749-8.805-1.051-10.678l-19.692-13.173c-1.172-.783-2.162-.444-2.632.267l-3.604 5.454c-1.624 2.457-4.269 2.22-6.052.85-1.63-1.253-2.33-3.738-.727-6.253zM130.599 258.233l10.27-9.933c3.427-3.313 7.407-2.563 10.57.707l20.327 21.02c7.734 7.998 3.476 16.083-3.734 22.082l-9.43 7.85c-2.123 1.767-4.557.79-5.98-1.282-1.254-1.827-.712-4.008.969-5.586l5.04-4.732c4.573-4.292 3.568-8.238 1.226-10.66l-16.47-17.031c-.979-1.013-2.019-.89-2.628-.295l-4.674 4.572c-2.105 2.058-4.641 1.27-6.095-.447-1.328-1.569-1.49-4.145.609-6.266M87.611 421.845l5.11 13.182 13.88 2.696-10.96 8.934 1.726 14.033-11.883-7.662-12.813 5.977 3.615-13.669-9.644-10.338 14.116-.787zM511.712 421.845l5.11 13.182 13.88 2.696-10.96 8.934 1.726 14.033-11.883-7.662-12.813 5.977 3.614-13.669-9.644-10.338 14.117-.787z" style="fill:#fff;fill-rule:evenodd" transform="translate(-14.173 -137.48)"/><path d="M295.41 392.039h5.533v-16.778c0-1.439-.614-1.85-1.712-1.85h-6.325v4.799l2.505-.005zM356.487 423.852l-4.353-1.188 3.61-13.226-11.052-3.016 1.188-4.354 13.292 3.628c1.669.57 1.965 1.486 1.53 2.843zm-12.472-13.278 4.353 1.188-2.508 9.19-4.353-1.188zM318.12 402.742l4.354 1.188.826-3.029 6.274 1.712-2.262 8.29c-.31 1.132-.912.974-1.612.783l-9.51-2.595-1.187 4.353 11.05 3.016c3.01.879 4.59-.476 5.25-2.927l3.661-13.53-14.98-4.089zM269.798 400.387l2.745-.77 1.736 8.956c.223 1.149-.284 1.306-.978 1.501l-2.714.763-4.656-13.193-6.53 1.834.997 3.55 2.61-.733 3.274 9.751-3.917 1.1 1.22 4.345 13.197-3.707c3.314-.869 3.593-3.107 2.792-5.93l-3.616-12.767-7.09 1.992zM238.186 413.39l7.822-4.552 2.401 6.228c.644 1.667.614 2.975-1.292 4.113l-2.18 1.303 2.18 3.858 1.524-.849c3.967-2.21 5.525-5.262 3.68-9.812l-4.404-10.862-8.067 4.74-5.104-8.768-3.77 2.194z" style="fill:#2c312c;fill-rule:evenodd" transform="translate(-14.173 -137.48)"/></svg>