<svg xmlns="http://www.w3.org/2000/svg" viewBox="0.15 0.48 559.59 566.93"><defs><clipPath id="a"><path d="M28 0h504v567.5H28Zm0 0"/></clipPath></defs><g clip-path="url(#a)"><path d="M278.004 566.828c-36.215-12.492-72.203-39.144-99.3-65.66-46.493-45.492-80.606-102.523-103.93-162.957-34.887-90.383-44.27-189.574-46.02-285.715l-.09-4.98 4.98-.157c23.899-.761 47.622-1.32 71.458-3.21 10.289-.817 20.617-1.747 30.835-3.18 20.34-2.852 40.891-7.973 59.895-15.813 8.574-3.539 16.969-7.687 25.348-11.664C239.746 4.684 259.36 1.254 279.8.547c17.005-.59 33.583 2.691 49.368 8.91 15.414 6.074 29.984 13.848 45.562 19.715 19.516 7.348 40.684 10.933 61.368 12.933 29.953 2.903 59.867 5.239 89.98 5.25l5.074.004-.027 5.075c-.527 95.265-11.77 197.066-46.297 286.5-22.851 59.195-55.937 115.175-101.219 160.011-28.43 28.149-64.336 54.196-102.246 67.86l-1.675.605Zm0 0" style="stroke:none;fill-rule:evenodd;fill:#1b1918;fill-opacity:1"/></g><path d="M33.805 52.406c43.187-1.375 50.539-1.547 71.695-3.222 12.773-1.012 22.625-2.02 31.14-3.215 20.673-2.899 41.805-8.176 61.118-16.145 7.644-3.156 15.082-6.785 25.586-11.77 12.937-6.136 30.222-11.546 56.633-12.46 19.246-.668 35.43 3.87 47.34 8.562 15.058 5.934 27.933 13.074 45.632 19.739 14.668 5.523 34.098 10.472 62.66 13.238 30.946 2.996 60.153 5.258 90.465 5.273-.652 117.82-17.867 211.953-45.957 284.707-54.812 141.98-145.187 205.02-200.469 224.942-49.18-16.961-143.867-79.809-200.164-225.664-28.086-72.766-43.418-159.805-45.68-283.985m276.843-1.379V507.75c27.02-16.855 47.829-33.797 65.274-52.55V76.933c-5.856-1.414-11.61-3.125-17.207-5.235-15.875-5.976-30.594-13.808-46.207-19.96-.617-.243-1.238-.477-1.86-.712m-68.168 452.45V53.715q-.912.406-1.82.836c-9.097 4.316-18.18 8.77-27.492 12.613-11.922 4.922-23.5 8.297-35.336 10.852v370.23c17.992 19.79 39.453 38.32 64.648 55.23M430.27 84.492V374.7c47.574-91.91 57.816-217.265 58.578-287.176-17.711-.996-38.274-1.066-55.977-2.78ZM123.484 362.508V85.44c-18.39 1.223-36.05 1.246-52.12 1.926-.04 79.817 11.972 177.961 50.429 270.871.55 1.426 1.117 2.848 1.691 4.27m0 0" style="stroke:none;fill-rule:evenodd;fill:#eb9518;fill-opacity:1"/><path d="M280.031 67.512c97.98 0 177.41 79.558 177.41 177.699 0 98.137-79.43 177.695-177.41 177.695s-177.41-79.558-177.41-177.695c0-98.14 79.43-177.7 177.41-177.7m0 0" style="stroke:none;fill-rule:evenodd;fill:#1b1918;fill-opacity:1"/><path d="M280.031 71.047c96.028 0 173.875 77.973 173.875 174.164 0 96.187-77.847 174.16-173.875 174.16-96.027 0-173.875-77.973-173.875-174.16 0-96.191 77.848-174.164 173.875-174.164m0 0" style="stroke:none;fill-rule:evenodd;fill:#fff;fill-opacity:1"/><path d="M280.035 83.172c88.516 0 160.297 72.558 160.297 162.035 0 89.473-71.781 162.031-160.297 162.031-88.52 0-160.3-72.558-160.3-162.031 0-89.477 71.78-162.035 160.3-162.035m91.102 41.601c-6.293-8.273-16.73-17.027-25-23.312 20.808 9.8 39.133 24.082 53.765 41.621a123 123 0 0 0-3.843-3.144c-8.118-6.36-15.832-10.622-24.922-15.165m-71.489-36.835c-9.843.78-22.222 2.98-29.863 4.972-11.676-1.527-21.52-1.578-33.55.078 13.898-4.086 28.593-6.281 43.8-6.281 6.64 0 13.184.418 19.613 1.23m131.164 142.406c-7.164 7.48-15.175 13.578-24.457 19.176-3.921 27.011-12 45.71-20.566 63.421 3.742 10.82 6.371 22.149 7.414 33.196 3.313.054 6.887-.59 8.445-.934 21.97-27.281 35.153-62.086 35.153-99.996 0-6.547-1.95-9.555-5.988-14.863m-89.246 160.672-2.902-.243c13.488-6.062 33.102-16.554 51.16-42.691-.867-10.867-3.355-22.066-6.965-32.785-18.007 4.254-36.515 6.824-56.671 3.922-13.614 18.84-29.434 31.62-49.606 43.804 3.45 13.059 7.582 24.97 12.406 36.707-19.867-1.605-41.218-3.457-61.308-5.097 16.375 5.867 33.992 9.07 52.355 9.07 21.84 0 42.64-4.523 61.531-12.687m-121.734.566c-10.379-9.062-23.07-18.293-33.45-27.312-8.823-3.227-14.558-6.395-21.96-12.04 15.305 16.887 34.176 30.41 55.41 39.352m-96.121-134.39c.559.687 1.219 1.37 2.035 1.96 6.621-7.449 13.977-13.918 22.613-20.07.48-20.578 5.985-42.285 17.996-62.203-2.156-9.316-3.171-18.613-3.246-28.61-2.441.211-5.601.68-7.984 1.176-19.988 26.606-31.855 59.782-31.855 95.762q.001 6.047.44 11.984m42.937-112.11c15.149-24.418 33.606-37.203 57.387-46.215 15.457-3.656 30.25-4.402 44.934-2.726 2.449 8.125 4.441 19.68 5.879 30.285-21.286 11.949-35.813 24.308-48.973 43.304-14.426-.613-37.734.458-56.465 4.606-2.039-9.457-2.887-18.938-2.762-29.254m-16.898 97.352c13.316 14.441 27.332 25.273 40.652 34.363 1.809 23.437 5.797 46.117 18.332 65.738-6.984 7.094-14.609 12.922-22.082 18.317-15.293-6.227-28.09-16.133-39.242-31.13a159 159 0 0 1-7.465-13.335c-5.824-13.524-11.105-32.047-12.55-53.754 6.535-7.543 13.796-14.04 22.355-20.2m256.363 3.043c-15.25-12.711-31.199-26.184-45.855-34.422-.586-22.09-5.184-43.399-16.66-62.57 9.152-6.997 17.793-14.485 26.945-20.07 8.102 3.815 16.656 9.073 23.332 14.304 8.934 6.996 16.863 15.308 22.832 24.89 12.59 27.727 13.55 48.446 12.809 58.985-7.008 7.605-14.688 13.52-23.403 18.883M277.918 128.762c27.578 2.613 45.2 11.883 61.547 20.441 12.117 19.113 16.62 39.383 17.25 61.602-15.52 17.207-28.973 30.36-47.375 43.812-22.41-8.765-45.211-16.406-68.29-23.25-6.57-19.96-9.804-39.61-12.355-59.523 13.301-19.508 27.309-30.965 49.223-43.082m-4.441 232.004c-18.54-.059-43.172-6.282-59.223-18.082-14.387-20.43-18.55-42.325-20.395-66.993 15.414-17.144 30.157-30.48 45.563-41.12 23.11 6.84 45.945 14.476 68.387 23.242 7.214 18.824 14.816 38.445 17.336 56.757-14.028 20.293-30.391 33.485-51.668 46.196m0 0" style="stroke:none;fill-rule:evenodd;fill:#1b1918;fill-opacity:1"/><path d="M439.594 409.89v16.9c-3.754-1.36-7.2-2.747-10.031-4.009-19.606-8.765-38.32-17.086-59.047-23.082-26.2-7.582-52.848-10.969-79.996-11.535a538 538 0 0 0-19.125-.035c-27.868.43-55.204 3.793-82.067 11.57-20.73 5.996-39.445 14.317-59.05 23.082-2.833 1.262-6.278 2.649-10.028 4.008v-16.898c0-3.805.336-7.391-2.152-10.707-5.145-6.852-18.176-5.973-25.641-5.137-14.246 1.586-29.27 5.601-43.098 9.371-6.953 1.894-15.789 3.566-24.082 4.027l-.062-19.86c-5 .895-13.781 2.938-20.41 7.349-2.278 1.52-3.79 2.851-4.403 5.109-.379 1.41-.226 2.883-.226 4.336v62.426c0 16.843 37.605 10.218 46.754 8.445 7.195-1.395 14.406-3.191 21.394-5.414l.297-.094v13.801c0 12.414 1.762 19.633 15.633 21.144 17.812 1.942 42.297-8.687 58.66-15.289 18.418-7.43 36.79-13.683 56.152-18.218 22.426-5.25 45.204-8.067 68.16-8.868 8.07-.28 16.56-.25 24.778.024 23.195.77 46.21 3.59 68.867 8.894 19.363 4.532 37.734 10.79 56.152 18.22 16.364 6.6 40.848 17.226 58.66 15.284 13.872-1.507 15.633-8.73 15.633-21.144v-13.785l.106.03c6.988 2.224 14.195 4.02 21.394 5.415 9.149 1.773 46.899 8.398 46.899-8.445v-61.41c0-2.829.293-5.418-1.535-7.778-4.168-5.37-16.22-8.719-21.485-9.66l-2.07-.371-.062 19.86c-8.293-.462-17.13-2.134-24.083-4.028-13.828-3.77-28.851-7.785-43.097-9.371-7.465-.836-20.496-1.715-25.64 5.137-2.466 3.285-2.15 6.906-2.15 10.707m0 0" style="stroke:none;fill-rule:evenodd;fill:#1b1918;fill-opacity:1"/><path d="M115.27 401.305c-8.23-10.961-54.27 2.601-64.98 5.523-10.888 2.969-25.927 5.324-37.138 3.8-2.964-.401-6.828-1.073-9.586-2.722v58.899c0 .894.18 1.754.606 2.543 4.777 8.82 34.351 3.933 42.082 2.433 7.066-1.37 14.14-3.133 21-5.312l1.367-.438v-38.246c-.031-3.633.871-7.043 3.906-9.262a13 13 0 0 1 3.649-1.898c5.91-2.004 13.898-1.543 18.824-1.297 5.406.274 17.46.055 20.84-5.765 1.414-2.434 1.097-6.036-.57-8.258m0 0" style="stroke:none;fill-rule:evenodd;fill:#fff;fill-opacity:1"/><path d="M116.715 428.023v-14c-5.383 4.622-15.63 5.149-21.89 4.836-4.118-.207-13.977-.754-19.192 1.778-1.336.652-2.223 1.902-2.77 3.097-.879 1.926-.843 5.442 1.543 7.282 3.688 2.843 10.946 3.226 14.371 3.164 7.594-.145 18.395-2.922 27.938-6.157M538.145 391.879c5.648 1.348 16.75 4.918 17.882 9.09 1.352 4.98-6.605 5.722-9.812 6.16-2.524.34-5.266.473-8.117.441Zm0 0" style="stroke:none;fill-rule:evenodd;fill:#fff;fill-opacity:1"/><path d="M487.785 433.629v49.96c0 10.61-.648 16.345-12.484 17.634-16.957 1.847-41.356-8.758-56.957-15.051-18.586-7.5-37.125-13.809-56.668-18.383-22.903-5.363-46.164-8.215-69.617-8.988-8.293-.27-16.582-.313-24.891-.028-23.211.813-46.238 3.657-68.906 8.965-19.543 4.575-38.082 10.887-56.668 18.383-15.602 6.293-40 16.902-56.957 15.05-11.836-1.284-12.485-7.023-12.485-17.628v-49.836c4.43 3.387 11.93 4.098 16.692 4.008 12.183-.23 31.793-6.754 42.875-11.707 19.449-8.695 38.027-16.961 58.59-22.914 26.562-7.688 53.597-11.004 81.152-11.43 6.476-.098 13-.094 19.473.047 26.668.586 52.855 3.934 78.597 11.383 20.563 5.953 39.14 14.219 58.59 22.914 11.086 4.953 30.692 11.476 42.875 11.707 4.797.09 12.375-.633 16.79-4.086m0 0" style="stroke:none;fill-rule:evenodd;fill:#fff;fill-opacity:1"/><path d="M444.57 401.305c8.23-10.961 54.27 2.601 64.98 5.523 10.887 2.969 25.927 5.324 37.137 3.8 2.934-.398 6.743-1.062 9.493-2.667v58.844c0 .894-.18 1.754-.606 2.543-4.777 8.82-34.351 3.933-42.086 2.433-7.062-1.37-14.136-3.133-20.996-5.312l-1.176-.375v-37.645c0-1.578.075-3.183-.3-4.734-2.336-9.746-18.227-8.785-26.176-8.387-5.406.274-17.461.055-20.84-5.765-1.414-2.434-1.098-6.036.57-8.258m0 0" style="stroke:none;fill-rule:evenodd;fill:#fff;fill-opacity:1"/><path d="M443.129 428.023v-14c5.383 4.622 15.629 5.149 21.887 4.836 5.015-.25 18.546-1.011 21.828 3.91.828 1.239 1.004 2.743.91 4.196-.418 6.484-12.074 7.3-16.688 7.215-7.597-.145-18.398-2.922-27.937-6.157M21.695 391.879c-5.648 1.348-16.75 4.918-17.879 9.09-1.355 4.98 6.602 5.722 9.813 6.16 2.523.34 5.262.473 8.113.441Zm0 0" style="stroke:none;fill-rule:evenodd;fill:#fff;fill-opacity:1"/><path d="M247.297 537.469v-3.176h-3.953v-8.535h3.75v-3.172h-3.75v-6.274h3.894v-3.171h-7.062v24.328ZM252.586 528.242h-3.168v5.602c.02 1.55.488 2.617 1.418 3.207.394.3.844.52 1.34.648q.73.251 1.46.25.792.001 1.548-.25.748-.195 1.343-.648c.407-.29.73-.707.985-1.254.246-.524.37-1.172.37-1.953v-4.301c-.023-.637-.292-1.406-.816-2.324a33 33 0 0 0-1.812-2.7 61 61 0 0 1-1.793-2.636 12 12 0 0 1-.617-1.047q-.258-.45-.258-.75v-3.02c0-.593.098-.996.305-1.218q.248-.284.777-.285c.344 0 .617.097.809.285.16.222.238.625.238 1.218v4.817h3.168v-5.117q-.001-1.24-.371-2.024c-.254-.547-.578-.969-.985-1.265a5 5 0 0 0-2.89-.82c-.489 0-.973.058-1.461.167a4.4 4.4 0 0 0-1.34.653q-.615.444-.984 1.265-.434.784-.434 2.024v3.484q.001 1.47.875 2.836c.512.91 1.11 1.812 1.777 2.7a28 28 0 0 1 1.828 2.585q.772 1.342.817 2.602v2.558q.001.896-.238 1.196c-.192.234-.465.343-.809.32q-.53.033-.777-.32c-.207-.2-.305-.598-.305-1.196ZM259.418 513.14v3.173h2.77v21.156h3.167v-21.157h2.743v-3.171ZM269.762 537.469h2.988v-3.774h-2.988ZM279.555 518.848h2.34v18.62h3.168v-24.327l-2.598-.004c.02 1.07-.242 1.832-.777 2.289q-.792.684-2.133.883ZM287.402 525.414q0 1.23.317 1.977c.16.504.375.89.648 1.168.281.261.59.437.918.53.336.118.656.184.969.184q1.446-.052 2.441-1.171v4.992c0 .414-.054.761-.175 1.05-.122.329-.426.485-.907.485-.433 0-.71-.156-.84-.484-.16-.29-.226-.637-.207-1.051v-3.004h-3.164v2.422c-.086 3.304 1.313 4.976 4.188 5.023q4.336-.099 4.273-4.887V517.18c0-2.989-1.394-4.5-4.187-4.524-.871 0-1.594.125-2.16.383q-.862.37-1.313 1.055c-.289.453-.488.957-.61 1.504a8.7 8.7 0 0 0-.19 1.851Zm3.164-8.262c0-.418.059-.78.176-1.105.106-.305.38-.461.809-.485.562.024.898.227 1 .614.097.441.144.918.144 1.441v6.95c0 .343-.054.66-.175.953-.149.324-.426.48-.84.48-.438 0-.727-.145-.875-.45-.16-.241-.239-.573-.239-.984ZM297.668 528.508v5.101q0 1.154.402 1.938.322.784.88 1.305 1.188.88 2.812.882c.898-.023 1.629-.164 2.195-.433.578-.254 1.02-.61 1.34-1.063q.491-.684.668-1.574.167-.878.168-1.914v-6.816c0-.301-.028-.586-.074-.848-.079-.582-.215-1.07-.407-1.473q-.279-.681-.804-1.035c-.36-.238-.825-.363-1.391-.363-.937.047-1.766.39-2.488 1.055v-7.223h4.945v-2.906h-8.113v12.945h3.137c.109-.5.433-.746.976-.746.41 0 .695.16.844.484.137.309.207.696.207 1.153v6.09q.001.678-.145 1.199c-.105.375-.367.562-.777.562q-.776.001-1-.566-.238-.516-.207-1.196v-4.558ZM307.96 528.508v5.101q0 1.154.403 1.938.322.784.88 1.305 1.188.88 2.812.882c.898-.023 1.629-.164 2.195-.433.578-.254 1.02-.61 1.34-1.063q.491-.684.668-1.574.166-.878.168-1.914v-6.816c0-.301-.028-.586-.074-.848-.079-.582-.215-1.07-.407-1.473q-.279-.681-.804-1.035c-.36-.238-.825-.363-1.391-.363-.937.047-1.766.39-2.488 1.055v-7.223h4.945v-2.906h-8.113v12.945h3.136c.11-.5.434-.746.977-.746.41 0 .695.16.844.484.137.309.207.696.207 1.153v6.09q.001.678-.145 1.199-.159.562-.781.562c-.512 0-.848-.187-.996-.566q-.239-.516-.207-1.196v-4.558ZM159.516 77.832l-2.243-12.7 6.782-1.195-.727-4.109-6.777 1.195-1.254-7.097 7.23-1.274-.722-4.109-11.168 1.969 4.937 28.015ZM168.207 76.027l-1.297-4.836-3.64.977 1.296 4.836ZM178.688 62.82c.085.364.207.809.343 1.336q.223.785.39 1.664.177.867.2 1.676c.02.535-.059 1-.219 1.379-.16.39-.449.64-.867.777q-.786.216-1.414-.03-.627-.242-1.113-.806a6.2 6.2 0 0 1-.856-1.308 13 13 0 0 1-.632-1.528 28 28 0 0 1-.465-1.476l-2.172-7.586q-.194-.644-.438-1.527a18 18 0 0 1-.418-1.844 7.9 7.9 0 0 1-.105-1.844q.052-.885.457-1.547c.273-.433.703-.746 1.3-.922.38-.101.72-.074 1.012.09q.452.247.797.758.353.51.63 1.16.275.651.5 1.297c.155.438.296.824.425 1.176l3.789-1.086a11 11 0 0 0-.305-1.04c-.117-.339-.246-.679-.37-1.015-.813-2.297-1.856-3.89-3.141-4.797-1.282-.902-2.786-1.12-4.52-.664-1.219.356-2.18.844-2.871 1.469a4.9 4.9 0 0 0-1.457 2.227q-.408 1.287-.336 2.902.069 1.61.465 3.484a79 79 0 0 0 .953 3.989l1.121 3.902c.41 1.465.836 2.824 1.27 4.086q.66 1.883 1.457 3.344c.53.972 1.148 1.77 1.847 2.379a5.03 5.03 0 0 0 2.47 1.16c.944.168 2.046.07 3.3-.285q1.599-.469 2.484-1.442.886-.974 1.192-2.36c.207-.921.257-1.948.16-3.07a23 23 0 0 0-.625-3.597c-.063-.258-.121-.524-.184-.793l-.183-.797ZM190.934 69.625l-1.551-4.762-3.586 1.168 1.547 4.762ZM199.512 46.527a49 49 0 0 0-.489-1.597 18 18 0 0 0-.722-1.871 10.5 10.5 0 0 0-1.07-1.829 6.1 6.1 0 0 0-1.516-1.453c-.586-.398-1.274-.656-2.059-.765-.785-.11-1.683-.024-2.703.261-2.023.586-3.363 1.641-4.008 3.164q-.973 2.268.04 5.79.315 1.095.878 2.101a9.5 9.5 0 0 0 1.313 1.805 11.6 11.6 0 0 0 1.855 1.469q.972.616 1.985 1.105c.68.332 1.359.652 2.039.969q1.018.47 1.996 1.027a4.8 4.8 0 0 1 1.582 1.215c.433.508.762 1.156.992 1.953.305 1.043.332 1.89.098 2.55-.239.657-.758 1.106-1.567 1.345q-.942.258-1.66-.176c-.473-.285-.887-.754-1.223-1.399-.343-.652-.628-1.425-.851-2.328l-.461-1.605-3.844 1.101.574 2.008q.521 1.838 1.293 3.266.774 1.424 1.825 2.316a5.1 5.1 0 0 0 2.43 1.16c.913.176 1.948.098 3.097-.226.941-.27 1.754-.688 2.434-1.242a5.6 5.6 0 0 0 1.574-2.07c.375-.817.574-1.77.594-2.837.027-1.07-.149-2.25-.516-3.543-.223-.789-.48-1.488-.774-2.113a8 8 0 0 0-1.07-1.695 8.5 8.5 0 0 0-1.527-1.422q-.564-.409-1.328-.848a39 39 0 0 0-1.614-.867 62.729 62.729 0 0 0-3.012-1.43 15 15 0 0 1-1.398-.687 4.1 4.1 0 0 1-1.125-.965q-.493-.599-.793-1.621-.388-1.388.004-2.137c.266-.504.719-.843 1.38-1.02q.788-.215 1.366.055c.383.18.715.477.996.899q.417.628.727 1.472c.203.563.387 1.153.55 1.778ZM218.055 59.996l-1.5-3.894-6.77 2.609-3.148-8.176 6.234-2.406-1.5-3.89-6.234 2.402-2.578-6.688 6.77-2.61-1.5-3.894-10.505 4.047 10.23 26.547ZM223.902 57.523l-3.191-7.503.086-3.375 7.863 8.855 4.153-1.77-11.454-12.77.082-13.304-4.152 1.766.117 6.258q.012 1.137.035 2.375c.02.82.055 1.652.106 2.48q.071 1.246.219 2.41l-.055.024-4.941-11.625-3.68 1.566 11.133 26.176ZM233.563 53.223l11.406-4.93-1.656-3.832-6.16 2.664c-.239.105-.473.207-.704.32s-.457.242-.668.399c.059-.461.082-.926.067-1.38-.012-.456-.024-.913-.04-1.362l-.68-18.918-1.687-3.903-10.75 4.653 1.657 3.828 5.507-2.383q.354-.153.7-.317c.234-.113.453-.25.668-.398-.059.461-.082.918-.067 1.379.012.457.024.906.04 1.36l.679 18.921ZM250 46.398l-8.555-27.128-3.812 1.199 8.55 27.133ZM255.492 44.813l-.41-7.27 4.59-.941 2.48 6.847 4.2-.855-10.461-26.895-5.29 1.082.696 28.89Zm-1.074-19.637a36 36 0 0 0-.168-1.98c-.074-.65-.148-1.305-.23-1.966-.051-.32-.098-.64-.133-.957q-.059-.479-.11-.93l.059-.011c.086.29.18.59.266.898.09.305.175.618.253.93q.277.96.56 1.899c.187.625.398 1.253.624 1.886l2.684 7.696-3.36.687ZM286.063 18.121q0 1.915.058 3.93c.04 1.34.086 2.699.14 4.066a684 684 0 0 0 .403 8.067h-.059a199 199 0 0 0-.94-4.246 122 122 0 0 0-.935-3.676 98 98 0 0 0-.98-3.364l-3.113-10.382h-4.145V40.96h4v-5.34q0-1.145-.027-2.441a237 237 0 0 0-.067-2.688c-.035-.93-.066-1.87-.105-2.82-.04-.969-.082-1.914-.129-2.856-.047-.949-.098-1.859-.152-2.746-.047-.883-.102-1.718-.149-2.504h.059c.312 1.489.617 2.872.922 4.16.304 1.297.617 2.524.933 3.692a87 87 0 0 0 1 3.434l3.114 10.109h4.171V12.516h-4ZM302.91 43.137l.586-4.13-7.183-1.019 1.234-8.675 6.617.94.586-4.132-6.617-.941 1.012-7.098 7.183 1.023.586-4.132-11.144-1.582-4.004 28.164ZM321.172 28.055c.133-.457.273-.992.433-1.614.157-.613.282-1.273.375-1.968a10.4 10.4 0 0 0 .063-2.121 6.1 6.1 0 0 0-.516-2.036c-.285-.644-.73-1.226-1.336-1.738q-.912-.761-2.433-1.21-3.044-.862-5.078.558-2.023 1.413-3.032 4.93a9.7 9.7 0 0 0-.37 2.25 9.5 9.5 0 0 0 .156 2.226q.298 1.19.796 2.227.497 1.043 1.098 1.992c.402.64.805 1.27 1.215 1.902q.615.933 1.148 1.93c.372.59.602 1.215.7 1.867q.144.99-.196 2.18c-.297 1.047-.718 1.78-1.27 2.215q-.82.649-2.038.308-.937-.276-1.317-1.027-.376-.74-.297-1.836.084-1.1.512-2.422l.461-1.605-3.844-1.102-.574 2.004q-.532 1.84-.633 3.457-.099 1.617.317 2.93.415 1.324 1.445 2.27c.684.636 1.602 1.116 2.75 1.452.941.27 1.852.348 2.719.235a5.6 5.6 0 0 0 2.433-.918c.75-.496 1.422-1.2 2.008-2.09.586-.899 1.063-1.989 1.438-3.281.23-.786.382-1.52.465-2.204a8 8 0 0 0-.012-2.004c-.082-.656-.27-1.324-.54-2.015-.175-.43-.398-.902-.679-1.422a36 36 0 0 0-.902-1.59 65 65 0 0 0-1.801-2.812q-.47-.676-.82-1.32a4.1 4.1 0 0 1-.446-1.415q-.1-.772.188-1.797c.273-.918.648-1.523 1.137-1.808.492-.29 1.058-.336 1.71-.137.524.16.895.414 1.13.774.23.355.355.785.367 1.289a6.8 6.8 0 0 1-.164 1.632 19 19 0 0 1-.473 1.801ZM335.621 34.64q.281-.656.625-1.546c.23-.59.434-1.23.613-1.91.18-.688.286-1.383.32-2.094a6.1 6.1 0 0 0-.261-2.086c-.203-.676-.578-1.309-1.117-1.887-.54-.582-1.297-1.078-2.266-1.5-1.945-.816-3.644-.84-5.11-.062q-2.178 1.155-3.609 4.523-.448 1.053-.64 2.188a9.6 9.6 0 0 0-.117 2.226c.101.813.277 1.582.52 2.309q.361 1.094.847 2.113c.32.684.644 1.356.972 2.031q.495 1.007.907 2.055c.293.633.449 1.285.465 1.941q.023 1-.457 2.141c-.422 1.004-.934 1.68-1.532 2.043q-.896.545-2.062.059-.895-.391-1.18-1.18c-.187-.52-.215-1.14-.07-1.86.14-.722.41-1.5.804-2.343l.653-1.535-3.684-1.563-.816 1.922c-.5 1.172-.852 2.29-1.047 3.352q-.3 1.591-.043 2.949c.168.906.55 1.719 1.156 2.426q.903 1.07 2.551 1.777c.902.383 1.797.57 2.672.562.883 0 1.723-.207 2.527-.613.805-.402 1.559-1.016 2.246-1.832.696-.816 1.301-1.844 1.828-3.082q.487-1.12.73-2.129a8 8 0 0 0 .235-1.988 8.4 8.4 0 0 0-.293-2.067c-.117-.449-.285-.945-.496-1.496-.219-.55-.449-1.109-.707-1.687a56 56 0 0 0-.765-1.64c-.254-.528-.48-.981-.68-1.368-.25-.484-.473-.957-.649-1.41-.18-.461-.27-.945-.273-1.461 0-.516.133-1.105.406-1.758q.573-1.319 1.352-1.66c.52-.223 1.09-.203 1.71.078.5.219.84.52 1.028.902.184.38.258.82.211 1.325-.05.5-.172 1.03-.367 1.601-.192.567-.422 1.14-.688 1.73ZM337.504 57.61l11.598 4.453 1.496-3.895-6.266-2.406c-.242-.094-.48-.184-.727-.266a5 5 0 0 0-.753-.184 8.5 8.5 0 0 0 1.011-.937q.469-.5.926-1l12.746-13.996 1.524-3.965-10.934-4.2-1.496 3.895 5.601 2.149q.358.14.723.265c.246.082.5.137.758.184a8 8 0 0 0-1.016.938q-.463.497-.922 1l-12.75 14ZM354.559 64.602l11.03-26.223-3.687-1.55-11.027 26.222ZM361.402 54.04a73 73 0 0 0-1.304 4.077c-.36 1.281-.606 2.473-.727 3.574-.121 1.102-.07 2.11.152 3.008a5 5 0 0 0 1.356 2.364c.68.683 1.637 1.234 2.867 1.664 1.238.418 2.332.574 3.281.457a5.05 5.05 0 0 0 2.528-1.032c.73-.57 1.39-1.332 1.972-2.277.578-.941 1.121-2.035 1.625-3.262a72 72 0 0 0 1.485-4.015l1.32-3.84q.676-2.074 1.164-3.93c.328-1.238.543-2.387.645-3.457.101-1.074.043-2.043-.184-2.918a4.94 4.94 0 0 0-1.332-2.297c-.664-.664-1.598-1.199-2.797-1.617-1.203-.41-2.27-.562-3.195-.445q-1.395.163-2.473.988-1.072.821-1.937 2.188-.867 1.352-1.621 3.117a76 76 0 0 0-1.504 3.816Zm5.594-3.61c.14-.426.313-.926.516-1.508q.297-.855.718-1.746.417-.88.97-1.57.55-.693 1.26-1.004c.474-.196 1.005-.207 1.599-.012q.83.3 1.187.984c.234.45.356.98.36 1.582a9 9 0 0 1-.192 1.88c-.14.648-.3 1.265-.492 1.862a51 51 0 0 1-.52 1.551l-2.37 6.887q-.264.786-.59 1.637a15 15 0 0 1-.735 1.625 6.4 6.4 0 0 1-.93 1.343 2.8 2.8 0 0 1-1.172.782q-.656.218-1.464-.051c-.508-.18-.891-.461-1.141-.832a2.8 2.8 0 0 1-.45-1.3 6 6 0 0 1 .048-1.56q.133-.82.359-1.613c.156-.535.309-1.023.469-1.476ZM388.805 52.145a145 145 0 0 0-1.032 3.792c-.332 1.301-.66 2.622-.98 3.95q-.478 1.993-.945 3.98c-.313 1.328-.606 2.617-.895 3.883l-.055-.016c.114-1.566.2-3.007.266-4.343q.09-2 .113-3.79a95 95 0 0 0-.015-3.503l-.13-10.84-3.98-1.14-7.843 27.343 3.843 1.102 1.473-5.133c.21-.73.426-1.52.648-2.356s.446-1.699.676-2.601q.336-1.355.676-2.739a279 279 0 0 0 1.273-5.46q.298-1.295.547-2.45l.055.016c-.105 1.515-.195 2.93-.258 4.254a112 112 0 0 0-.12 3.808q-.031 1.817.015 3.575l.207 10.574 4.008 1.148 7.843-27.344-3.847-1.101ZM392.813 76.566l2.171-6.953 4.625.735-.082 7.28 4.23.673-.347-28.856-5.332-.847-9.5 27.297Zm5.89-18.765q.301-.966.543-1.914c.156-.633.317-1.274.469-1.922.066-.317.137-.633.215-.938.074-.316.148-.617.226-.914l.055.012q-.028.451-.066.934-.03.48-.09.96-.075.996-.145 1.973a41 41 0 0 0-.078 1.985l-.191 8.152-3.383-.54ZM177.266 419.672l7.91-2.262 9.804 34.297-7.914 2.262Zm18.457-4.121 8.09-1.52 3.812 20.293-8.09 1.52Zm-72.098 41.883 7.46-3.473 8.696 18.672-7.46 3.476Zm-3.512-7.266-2.96-5.926.343-.25c5.04-3.691 12.586-7.48 18.887-8.125 7.332-.746 10.55 3.547 13.387 9.633l8.597 18.473-7.457 3.476-7.996-17.168c-.894-1.922-2.105-3.949-3.96-5.078-5.09-3.101-14.071 2.125-18.372 4.688Zm49.942.293-4.907-14.594c-1.273-3.785-6.496-2.945-9.507-2.406l-.414.07-2.348-6.117.504-.168c7.433-2.46 16.496-3.148 19.476 5.723l7.618 22.672-1.356.457-14.246 4.789-2.621-7.801ZM320.64 437.93l1.851-15.29c.48-3.964-4.601-5.452-7.55-6.265l-.403-.11.512-6.535.523.067c7.774.976 16.246 4.254 15.121 13.547l-2.875 23.742-1.422-.172-14.918-1.805.989-8.171Zm-89.934-9.207c.984-1.172 1.953-2.297 2.68-3.676 2.383-4.488 3.32-9.836 2.894-14.887l-.043-.5 8.203-.691.04.504c.734 8.68-3.586 17.039-10.192 22.488 4.14 3.473 6.996 5.652 12.36 7.746l.292.113.028.313q.215 2.607.437 5.215l.043.504-30.937 2.601-.524-6.219 20.086-1.691c-11.27-6.797-21.246-14.406-22.433-28.477l-.04-.503 8.2-.688.043.5c.422 5 2.379 9.504 5.422 13.46a40 40 0 0 0 3.441 3.888m42.441-13.41-3.074.003v-6.863l15.461-.004c1.297 0 2.59-.012 3.887.094 10.07.848 16.578 8.875 16.578 18.77 0 10.703-7.496 18.847-18.367 18.847-10.875 0-18.371-8.14-18.371-18.844 0-4.32 1.258-8.578 3.886-12.003m14.133-.497c-6.707.164-9.07 6.704-9.07 12.5-.004 5.98 2.988 12.641 9.781 12.641 6.805.004 9.492-6.758 9.492-12.64 0-5.965-3.472-12.665-10.203-12.5m134.883 25.692-2.707-1.442 3.238-6.054 13.63 7.293c1.144.613 2.292 1.21 3.382 1.918 8.461 5.488 10.422 15.664 5.758 24.37-5.047 9.438-15.5 13.083-25.086 7.95-9.555-5.113-12.34-15.871-7.305-25.285 2.04-3.809 5.156-6.965 9.09-8.75m13.078 6.441c-5.984-3.015-11.476 1.297-14.277 6.531-2.797 5.223-3.52 12.29 2.473 15.5 5.984 3.204 11.683-1.101 14.519-6.402 2.766-5.164 3.285-12.605-2.715-15.629m-40.57 6.297 7.105 2.84-2.84 7.11-7.105-2.84Zm-43.738-11.766 7.441 1.774-1.77 7.445-7.445-1.773Zm30.586-22.402c10.796 2.492 14.746 11.988 12.386 22.203-2.484 10.762-10.058 16.875-21.285 14.43-3.004-.656-5.64-1.832-8.312-3.324l-.336-.184 1.668-7.07.578.305c3.015 1.582 5.441 2.425 8.793 2.847 5.43.676 9.164-4.043 10.285-8.844 1.293-5.554-.238-11.402-6.352-12.82-2.715-.629-5.41-1.465-8.195-1.707l-.59-.05 1.738-6.954.391-.004c3.004-.031 6.3.496 9.23 1.172m0 0" style="stroke:none;fill-rule:evenodd;fill:#1b1918;fill-opacity:1"/></svg>