<svg xmlns="http://www.w3.org/2000/svg" id="Layer_1" viewBox="0 0 240.9 324.77"><defs><style>.cls-1{fill:#fe7d1a}</style></defs><path d="M104.5 72.59S89.13 47.8 105.74 42.1c0 0 .5-6.94-11.66-6.94S82.92 46.57 82.67 46.81c-.25.25-.75 13.39 21.82 25.78M120.37 72.33s18.59-11.41 15.87-31.73c0 0-.74-13.39-13.64-13.63 0 0-13.39-.99-13.89 12.89 0 0 26.04-6.69 11.66 32.48M132.1 10.96 128.45 0h-12.78l-3.65 10.96 10.04 9.14zM78.96 72.09s-6.2-17.35.74-20.08c0 0-2.23-5.7-6.94-5.7s-7.94 2.72-7.94 8.43S74 69.86 78.96 72.09M37.05 156.63c-4.21 14.37 12.64 18.09 12.64 18.09-4.71-4.22 1.49-5.45 1.49-5.45 5.46-1.24 16.12-.25 16.12-.25 28.52 3.97 25.04 26.04 25.04 26.04-11.66-4.21-18.1 1.73-18.1 1.73-8.18 7.19-12.15 1.49-12.15 1.49-5.46 21.07 6.2 30.74 6.2 30.74 4.22-26.28 30.01-28.26 30.01-28.26-.25-27.02 31-19.59 31-19.59-6.2-14.38-20.83-15.87-20.83-15.87 22.32-3.22 20.09-22.56 20.09-22.56-13.63 9.67-33.23 5.45-33.23 5.45 19.6-7.44 17.85-20.57 17.85-20.57-11.91 9.17-26.29 6.44-26.29 6.44 8.43-2.23 4.47-15.86 4.47-15.86-1.23 7.19-17.85 6.69-17.85 6.69-13.14-.99-12.15 9.17-12.15 9.17.49 1.24 7.69 4.22 12.15 5.96s5.46 3.71 5.46 3.71c-.5 6.19-6.2 5.46-6.2 5.46-5.21 0-5.21-5.71-5.21-5.71-9.17-2.97-29.01 5.21-29.01 5.21-7.44 3.47-1.49 7.94-1.49 7.94M140.95 72.59s23.06-7.44 22.07-29c0 0-1.24-9.42-11.16-9.18 0 0-9.17.49-11.41 7.44 0 0 14.64 9.68.5 30.74M179.14 73.58c-12.15 10.66-45.87 6.2-45.87 6.2-20.58-2.48-23.31 1.48-32.49 8.67s-6.2 24.8-6.2 24.8c18.6-28.01 33.73-15.13 33.73-15.13-17.11 9.17-12.65 27.27-12.65 27.27 15.37-23.55 36.71-12.65 36.71-12.65 8.93 4.21 28.52 4.46 28.52 4.46 24.55-1 30.25-23.55 30.25-23.55-20.33 10.41-51.08 1.99-51.08 1.99 20.34-10.17 19.09-22.06 19.09-22.06M118.64 239.18c8.43 12.89 14.38 35.45 14.38 35.45 11.16-14.38-.75-33.22-.75-33.22-18.6-22.31-12.89-34.71-12.89-34.71-12.89 16.61-.74 32.48-.74 32.48" class="cls-1"/><path d="M164.02 122.17s-31.99-8.43-31.5 18.84c0 0 18.84-12.39 34.72-.24 1.98-.49 19.84 14.63 40.67-5.95 0 0 9.43-13.14 22.57-12.15 0 0-9.67-14.38-28.77-3.47-19.09 10.91-12.4 12.64-37.69 2.97" class="cls-1"/><path d="M187.08 155.14s-39.43-22.56-51.83 10.91c0 0 24.55-15.87 48.36 3.47 0 0 23.32 14.63 39.93.74 0 0 14.63-11.9 17.36-19.59 0 0-17.11 16.61-53.81 4.46M166.49 71.1s12.15-4.46 14.39-17.6c0 0 .5-7.43-6.94-7.68 0 0-5.7-.5-7.94 4.71 0 0 7.44 8.67.49 20.58M104.5 81.26s-23.55-12.64-33.47 8.43c0 0-7.93 11.41 10.91 29.01 0 0-9.92-27.03 22.57-37.44M180.63 220.09s-15.62-35.45-48.85-26.52c0 0 19.84 6.44 31.49 26.52 0 0 12.89 35.95 49.1 18.1 0 0-23.06 1.24-31.74-18.1" class="cls-1"/><path d="M206.42 187.61c-15.87 11.16-29.5-6.94-30.25-8.43s-23.57-21.82-40.43.99c0 0 20.08-5.7 35.46 13.39 15.38 19.08 32.49 16.86 43.65 7.19s23.06-12.64 23.06-12.64-15.63-11.66-31.5-.5M182.12 259.01s-21.33-3.47-27.03-27.51c0 0-5.96-22.07-29.51-29.75-2.36-.77 9.42 9.67 16.12 32.48 0 0 13.64 35.2 40.42 24.79M74.99 189.85c-5.45-18.6-35.47-6.94-35.47-6.94-30.01 10.91-31.49-9.92-31.49-9.92-13.39 12.64-7.19 19.59-1.74 24.04 5.45 4.46 16.86 4.96 38.44-3.71s30.25-3.47 30.25-3.47M107.22 244.14c-11.16-19.83 0-33.22 0-33.22-17.85 5.21-12.15 26.03-12.15 26.03 6.7 13.63 3.22 33.71 3.22 33.71 15.63-2.48 8.92-26.52 8.92-26.52" class="cls-1"/><path d="M85.16 236.95c-7.68-15.12 11.9-29.25 11.9-29.25-29.26 10.41-19.34 28.26-19.34 28.26 3.97 12.4-1.49 23.55-1.49 23.55 14.88-9.42 8.93-22.56 8.93-22.56M126.21 277.37l17.48 47.33h12.14l17.96-47.33h-14.32l-9.6 24.41-9.09-24.41zM122.48 277.37l-13.48.02v21.41l-13.94-21.43H81.57l.09 47.33H94.9v-21.83l13.75 21.83 13.67.07v-.07h.16zM210.83 298.33s6.75-2.57 4.61-11.49c0 0-1.32-9.47-15.23-9.47h-23.85v47.33h23.85s15.34.52 16.93-11.65c1.09-8.42-1.6-13.82-6.31-14.72m-20.93-11.49h7.34s5.34-.19 5.34 4.21-5.58 4.04-5.58 4.04h-7.09v-8.25Zm8.27 27.23h-8.11v-9.27h8.36s5.34-.29 5.34 4.72-5.58 4.55-5.58 4.55M32.61 324.52v-47.33h13.32v13.92l14.04-14.04h18.56l-21.58 21.59 21.58 25.86H61.06l-15.14-17.06v17.06z" class="cls-1"/></svg>