<svg xmlns="http://www.w3.org/2000/svg" xml:space="preserve" version="1.0" viewBox="272 75 720.2 720.6"><path d="M929.7 316.1c-38.9-50.2-90.5-104.8-145.5-153.7C695.6 83.5 648.6 75 632.5 75h-.9c-16.1 0-63.1 8.5-151.7 87.4-54.9 48.9-106.6 103.5-145.5 153.7-28.5 36.8-62.4 87.4-62.4 119.2s34 82.4 62.5 119.2c38.9 50.2 90.5 104.8 145.4 153.7 88.6 78.9 135.6 87.4 151.7 87.4h.9c16.1 0 63.1-8.5 151.7-87.4 54.9-48.9 106.6-103.5 145.5-153.7 28.5-36.8 62.5-87.4 62.5-119.2s-34-82.4-62.5-119.2"/><path d="M775.8 171.7C686.3 92 642.1 87.4 632.1 87.5c-10-.1-54.2 4.5-143.7 84.2-112 99.7-203.7 217.8-203.7 263.5S376.4 599 488.4 698.8c89.6 79.7 133.8 84.3 143.7 84.2 10 .1 54.2-4.5 143.7-84.2C887.8 599 979.6 481 979.6 435.3s-91.7-163.8-203.8-263.6" style="fill:#fff"/><path d="M509.7 653.5c-6.5 0-10.5-5-10.5-11.2s4.2-11.2 10.5-11.2 10.5 4.8 10.5 11.1-4.1 11.3-10.5 11.3m0-18.3c-3.9 0-6.2 3.5-6.2 6.9 0 3.3 1.6 7.3 6.2 7.3s6.2-4 6.2-7.3c0-3.4-2.3-6.9-6.2-6.9m16.2 3.9v7.5c0 1.6.3 3.5 2.3 3.5s2.2-1.9 2.2-3.5v-7.5h3.9v8.2c0 4-2.1 6.1-6.2 6.1s-6.2-2.1-6.2-6.1v-8.1zm20.4 12.5c-1 1.1-2.3 1.8-3.8 1.7-4 0-6.4-3.7-6.4-7.4s2.3-7.3 6.3-7.3c1.5 0 2.8.6 3.8 1.7h.1V629h3.9v23.9h-3.9zm.4-5.6c0-1.9-1.2-3.9-3.3-3.9s-3.3 2-3.3 3.9 1.2 3.9 3.3 3.9c2 0 3.3-2.1 3.3-3.9m13-3.7v3.2h-6.9v-3.2zm14.5-2.3v-8.4h4.1v21.2h-4.1v-9.5h-7.7v9.5h-4.1v-21.2h4.1v8.4zm10.3 6.6c0 1.7.7 3.7 2.7 3.7 1.2 0 2.2-.8 2.6-1.9l3.6.6c-.9 2.7-3.5 4.4-6.3 4.3-4.3 0-6.9-3-6.9-7.2s2.2-7.5 6.7-7.5 6.6 3.3 6.6 7.5v.5zm5.3-2.4c-.2-1.4-1.1-2.8-2.6-2.8s-2.4 1.3-2.6 2.8zm11.2 2.7 2.9-7.8h4.3l-6.4 14.1h-2l-6.3-14.1h4.3zm11.3-.3c0 1.7.7 3.7 2.7 3.7 1.2 0 2.2-.8 2.6-1.9l3.6.6c-.9 2.7-3.5 4.4-6.3 4.3-4.3 0-6.9-3-6.9-7.2s2.2-7.5 6.7-7.5 6.6 3.3 6.6 7.5v.5zm5.4-2.4c-.2-1.4-1.1-2.8-2.6-2.8s-2.5 1.3-2.6 2.8zm9.5-3.7c.8-1.2 2.1-1.9 3.5-1.9.6 0 1.1.1 1.6.3l-.5 3.7c-.5-.3-1-.5-1.6-.5-2.7 0-3 2.4-3 4.6v6.2h-3.9v-13.8h3.9zm10.3 12.4h-3.9V629h3.9zm6-6.3c0 1.7.7 3.7 2.7 3.7 1.2 0 2.2-.8 2.7-1.9l3.6.6c-.9 2.7-3.5 4.4-6.3 4.3-4.3 0-6.9-3-6.9-7.2s2.2-7.5 6.7-7.5 6.5 3.3 6.5 7.5v.5zm5.3-2.4c-.2-1.4-1.1-2.8-2.6-2.8s-2.5 1.3-2.6 2.8zm8.8 2.4c0 1.7.7 3.7 2.7 3.7 1.2 0 2.2-.8 2.6-1.9l3.6.6c-.9 2.7-3.5 4.4-6.3 4.3-4.3 0-6.9-3-6.9-7.2s2.2-7.5 6.7-7.5 6.6 3.3 6.6 7.5v.5zm5.3-2.4c-.2-1.4-1.1-2.8-2.6-2.8s-2.5 1.3-2.7 2.8zm18 5.1h5.9v3.6h-10v-21.2h4.1zm10.2-2.7c0 1.7.7 3.7 2.7 3.7 1.2 0 2.2-.8 2.6-1.9l3.6.6c-.9 2.7-3.5 4.4-6.3 4.3-4.3 0-6.9-3-6.9-7.2s2.2-7.5 6.7-7.5 6.6 3.3 6.6 7.5v.5zm5.4-2.4c-.2-1.4-1.1-2.8-2.6-2.8s-2.5 1.3-2.6 2.8zm9.4-5.1v7.5c0 1.6.2 3.5 2.2 3.5s2.2-1.9 2.2-3.5v-7.5h3.9v8.2c0 4-2.1 6.1-6.2 6.1s-6.2-2.1-6.2-6.1v-8.1zm16.9 7.8 2.8-7.8h4.3l-6.4 14.1h-2l-6.3-14.1h4.3zm11.2-.3c0 1.7.7 3.7 2.7 3.7 1.2 0 2.2-.8 2.7-1.9l3.6.6c-.9 2.7-3.5 4.4-6.3 4.3-4.3 0-6.9-3-6.9-7.2s2.2-7.5 6.7-7.5 6.6 3.3 6.6 7.5v.5zm5.4-2.4c-.2-1.4-1.1-2.8-2.6-2.8s-2.5 1.3-2.7 2.8zm9.5-3.9c.9-1.2 2.2-1.8 3.7-1.7 3.7 0 4.8 2.6 4.8 5.8v8.5h-4v-7.3c0-1.7.1-3.8-2.1-3.8s-2.4 2.6-2.4 4.3v6.8H745v-13.8h3.9z"/><path d="M532.7 510.3c-17.4 0-32.4 6-43.3 17.2-10.6 10.9-16.4 26-16.4 42.6 0 35.4 24.6 60.1 59.7 60.1s59.7-24.7 59.7-60.1c0-16.6-5.8-31.7-16.4-42.6-10.9-11.2-25.9-17.2-43.3-17.2m0 96.6c-23.5 0-34-18.9-34-37.6 0-17.2 11.9-35.6 34-35.6s34 18.3 34 35.6c-.1 18.7-10.6 37.6-34 37.6m131.6-93.6v44.2h-41.1v-44.2h-25v114h25v-50.1h41.1v50.1h25v-114zm61.3 93.1v-93.1h-25v113.9h57.8v-20.8zm17.8-81.5c0-5.8 4.7-10.5 10.5-10.5s10.5 4.7 10.5 10.5-4.7 10.5-10.5 10.5-10.5-4.6-10.5-10.4zm2.3 0c0 4.5 3.7 8.2 8.2 8.2s8.2-3.7 8.2-8.2-3.7-8.2-8.2-8.2-8.2 3.6-8.2 8.1zm13.2 5.4h-2.5l-2.6-4.3h-1.9v4.3h-2.3v-10.9h5.3c2.5 0 4.3.5 4.3 3.3.2 1.6-.9 3-2.5 3.2h-.5zM755 524c1.2 0 2-.3 2-1.5s-1.5-1.2-2.5-1.2H752v2.7z"/><circle cx="572.5" cy="281.1" r="23.3" style="fill:#d1d2d3"/><path d="M719.1 396.1c-8.5 0-142.5 61.2-223.6 84.6-1.5.4-4.9 2.7-4.9 3.6s4.2 1.8 9.4 1.8c55.2 0 235.2-29 235.2-70.4-.1-10.8-7.2-19.6-16.1-19.6" style="fill:#5eaf46"/><path d="M650.1 221.1c0-2.2-.9-4-1.9-4-6.8 0-17.3 11.2-22.1 20.9-61.5 123.2-88.6 175.6-88.6 187.6 0 10.8 8 19.6 17.8 19.6 38 1 94.8-184.9 94.8-224.1"/><path d="M472.4 308.7c-11.2 0-20.3 9.1-20.3 20.3 0 11.4 9.2 19.4 20.5 20.5 200.1 19.6 339.6 66 339.6 58.2 0-13-161.4-99.5-324-99.5-8.7.2-15.6.5-15.8.5" style="fill:#d71920"/></svg>