<svg xmlns="http://www.w3.org/2000/svg" viewBox="0 0 52.92 79.37"><path d="m113.47 143.385-3.916-1.443v-18.94l7.98.02c4.389.012 6.18.031 3.98.044l-4.001.022v10.88c0 5.983-.029 10.874-.064 10.869s-1.825-.659-3.98-1.452m-25.718-9.429-3.979-1.456-.022-4.75-.022-4.748 7.98.02c4.39.012 6.2.031 4.024.044l-3.958.023-.022 6.162-.021 6.162zm-13.907-7.97-.02-2.9H65.95v1.45c0 1.344-.01 1.443-.148 1.39-.082-.033-1.882-.694-4.001-1.47l-3.852-1.412 7.95-.021c4.374-.012 7.965-.008 7.982.008.016.016.02 1.34.006 2.942l-.023 2.913z" style="fill:#71c5a0;stroke-width:.08466667" transform="matrix(.7832 0 0 .76424 -45.353 -73.556)"/><path d="m122.381 146.618-3.916-1.442-.952-.348v-21.741h7.959v12.319c0 6.775-.03 12.316-.064 12.312-.035-.004-1.397-.499-3.027-1.1m-26.776-9.803-3.83-1.41v-6.159l-.001-6.16h7.874v7.578c0 6.01-.022 7.576-.106 7.57-.058-.005-1.83-.643-3.937-1.419m-24.786-9.078-3.916-1.442-.952-.348v-2.86h7.874v2.878c0 1.584-.01 2.876-.021 2.872z" style="fill:#2bb56c;stroke-width:.08466667" transform="matrix(.7832 0 0 .76424 -45.353 -73.556)"/><path d="M78.688 200.041q-.06-.1.034-.043c.074.046.098-1.435.098-5.977v-6.038l-6.434-6.434-6.435-6.434-.021-23.208-.022-23.209.508.192c.28.105 2.06.757 3.957 1.449l3.45 1.257v20.67l.002 20.67 2.497 2.46 2.498 2.462v10.125l6.435-6.434 6.434-6.434v12.384l-5.863 5.746c-7.327 7.18-7.059 6.924-7.138 6.796m25.955-6.017v-6.04l6.435-6.435 6.435-6.434v-13.738c0-7.555.028-13.736.063-13.735s1.816.645 3.958 1.431l3.895 1.43.021 14.593.022 14.594-9.241 9.057a4429 4429 0 0 1-10.414 10.188l-1.174 1.129zm-2.413 3.823c-.557-.558-.994-1.016-.97-1.016.023 0 .498.458 1.055 1.016.557.56.994 1.016.971 1.016s-.498-.457-1.056-1.016m-26.839-1.016c-.557-.558-.994-1.016-.971-1.016s.498.458 1.056 1.016c.557.56.994 1.016.97 1.016-.023 0-.498-.457-1.055-1.016m22.647-3.111-1.057-1.08 1.08 1.057c.593.582 1.079 1.068 1.079 1.08 0 .06-.12-.054-1.102-1.057m-26.84-1.016-1.056-1.08 1.08 1.057c.593.582 1.079 1.068 1.079 1.08 0 .06-.12-.054-1.102-1.057m22.607-3.133-1.057-1.08 1.08 1.058c.593.581 1.079 1.067 1.079 1.08 0 .06-.12-.055-1.102-1.058m-26.796-.952c-.557-.559-.994-1.016-.971-1.016s.498.457 1.056 1.016c.557.559.994 1.016.97 1.016-.023 0-.498-.457-1.055-1.016m31.094-7.176-6.413-6.413-.021-18.465-.022-18.464.339.144c.186.08 1.986.746 4 1.481l3.662 1.337.004 15.967.004 15.968 2.455 2.403 2.454 2.404.23-.202.23-.202-.233.258-.232.257-.022 4.97-.022 4.971zm-35.327 3.027c-.558-.559-.995-1.016-.971-1.016.023 0 .498.457 1.055 1.016.558.559.995 1.016.971 1.016-.023 0-.498-.457-1.055-1.016m-4.002-3.917-.867-.87.022-26.964.02-26.965.022 26.965.021 26.965.866.869c.477.478.848.87.824.87-.023 0-.432-.392-.908-.87m22.501-5.185c.581-.582 1.075-1.058 1.098-1.058s-.432.476-1.013 1.058c-.58.583-1.075 1.059-1.098 1.059s.433-.476 1.013-1.059m26.797-.973c.558-.559 1.033-1.016 1.056-1.016s-.414.457-.971 1.016-1.032 1.016-1.056 1.016c-.023 0 .414-.457.971-1.016" style="fill:#565654;stroke-width:.08466667" transform="matrix(.7832 0 0 .76424 -45.353 -73.556)"/><path d="m98.148 193.792-6.452-6.316-.004-6.18-.003-6.181-6.434 6.434-6.434 6.433-.022 6.055-.021 6.054-10.393-10.188-10.393-10.187v-53.899l3.07 1.124 3.957 1.45.89.327.02 23.199.022 23.198 6.435 6.434 6.434 6.434.001-5.08.001-5.08 2.454-2.398 2.455-2.399v-18.873c0-10.381.028-18.873.063-18.872.035 0 1.816.644 3.958 1.43l3.895 1.428.021 18.446.022 18.446 6.434 6.434 6.435 6.434v-10.013l2.497-2.433 2.498-2.434.021-14.152.021-14.153 3.957 1.442 3.957 1.442.002 13.758.002 13.759-6.435 6.434-6.434 6.433-.021 6.063-.022 6.064-6.453-6.317zm-40.24-78.495v-3.302h1.439v5.165h1.439v-5.165h1.355v6.604h-4.234zm9.313 0v-3.302l.74.001.741.001.974 1.877.974 1.876.022-1.878.023-1.877h1.436v6.61l-.812-.024-.812-.024-.902-1.727-.903-1.727-.023 1.748-.022 1.748H67.22zm9.736 0v-3.302h1.44v6.604h-1.44zm7.262.699-.023-2.604-.529-.025-.529-.025v-1.347h3.556v1.355h-1.1v5.249H84.24zm7.132-.699v-3.302h3.556v1.355H92.79v1.185h1.693v1.44H92.79v1.185h2.117v1.44H91.35zm8.297 0v-3.302h4.233v5.126l-.742.74-.743.738h-2.748zm2.515 1.592.279-.27v-3.269h-1.44v3.81h.441c.38 0 .478-.037.72-.27m11.54-1.592v-3.302h3.471v1.355h-2.117v1.185h1.694v1.44h-1.694v2.624h-1.354zm8.212 0v-3.302h3.556v1.35l-1.08.024-1.079.023-.022 1.884-.023 1.884h2.204v1.44h-3.556zm-62.378-8.622-1.63-1.581v-8.847h2.456l.003 3.916.004 3.916.402.351.402.351.399-.377.398-.377v-7.78h2.456v7.84l.38.373.382.374.38-.374.382-.374v-7.839h2.455v8.85l-1.594 1.592-1.594 1.592-1.036-.993-1.037-.993-.989.98-.989.98zm12.171-4.755v-5.673h6.096v2.456h-3.64v2.032h2.878v2.455h-2.879v1.947h3.641v2.456h-6.096zm8.89 3.591c0-1.144.032-2.068.07-2.053.04.016.592.217 1.228.447l1.157.418v.814h1.186v-1.676l-.614-.22c-.338-.12-1.147-.405-1.8-.633l-1.185-.413-.022-2.974-.022-2.974h6.013v2.041c0 1.91-.01 2.038-.148 1.984-.081-.032-.615-.23-1.185-.441l-1.037-.383v-.745h-1.186v1.74l1.778.622 1.778.622v5.906h-6.011zm10.499-2.363v-4.445h-1.863v-2.456h6.096v2.456h-1.863v8.89h-2.37Zm6.858-1.228v-5.673h6.011v2.456h-3.556v2.032h2.794v2.455h-2.794v1.947h3.556v2.456h-6.011zm8.89 0v-5.673h7.196v6.943h-.465c-.256 0-.466.01-.466.021s.21.972.466 2.135a91 91 0 0 1 .465 2.18c0 .037-.589.067-1.309.067h-1.309l-.08-.318a147 147 0 0 1-.49-2.201l-.41-1.884h-1.228v4.403h-2.37zm4.826-2.201v-1.016h-2.456v.96c0 .527.026.984.057 1.015.03.031.583.057 1.227.057h1.172zm5.418 2.201v-5.673h1.207l1.206.001 1.685 3.238c.926 1.781 1.716 3.275 1.756 3.319s.073-1.386.073-3.239v-3.319h2.455v11.35l-1.416-.023-1.417-.024-1.526-2.94c-.839-1.617-1.554-2.94-1.589-2.942-.034 0-.063 1.332-.063 2.961v2.964h-2.371z" style="fill:#000;stroke-width:.08466667" transform="matrix(.7832 0 0 .76424 -45.353 -73.556)"/></svg>