<svg xmlns="http://www.w3.org/2000/svg" width="259.598" height="385.21" viewBox="0 0 62.359 92.206"><g fill="none" fill-rule="evenodd"><path fill="#cc0835" d="M56.227 92.206v-5.407H48.96V68.76h-5.838v19.827c0 2 1.622 3.619 3.624 3.619zM7.133 88.587c0 2 1.622 3.619 3.625 3.619H21.26v-5.407h-8.29v-3.643h7.62v-5.458h-7.62v-3.5h8.326V68.76H7.133zm21.752 3.619c-2 0-3.623-1.62-3.623-3.619V68.76h14.235v5.438h-8.396V77.7h7.622v5.456H31.1l-.002 9.05z"/><path fill="#26358c" d="M10.364 39.785a2.673 2.673 0 0 0-2.677 2.67 2.675 2.675 0 0 0 2.676 2.673 2.674 2.674 0 0 0 2.675-2.672 2.674 2.674 0 0 0-2.674-2.67m-6.445-2.084a2.556 2.556 0 0 0-2.558 2.553 2.556 2.556 0 0 0 2.558 2.554 2.556 2.556 0 0 0 2.557-2.554 2.556 2.556 0 0 0-2.557-2.553m-.858-7.108C1.37 30.594 0 31.962 0 33.649s1.37 3.055 3.06 3.055 3.061-1.367 3.061-3.055a3.06 3.06 0 0 0-3.06-3.055m.589-7.697c-1.815 0-3.288 1.47-3.288 3.282s1.473 3.282 3.288 3.282a3.284 3.284 0 0 0 3.287-3.282 3.285 3.285 0 0 0-3.287-3.282m2.798-7.7a3.53 3.53 0 0 0-3.535 3.53 3.53 3.53 0 0 0 3.535 3.528 3.53 3.53 0 0 0 3.533-3.529 3.53 3.53 0 0 0-3.533-3.528m8.874-.54a4.07 4.07 0 0 0-4.075 4.07 4.07 4.07 0 0 0 4.076 4.069 4.07 4.07 0 0 0 4.075-4.07 4.07 4.07 0 0 0-4.076-4.069m-5.09 17.553A3.23 3.23 0 0 0 7 35.441a3.23 3.23 0 0 0 3.233 3.228 3.23 3.23 0 0 0 3.234-3.228 3.23 3.23 0 0 0-3.234-3.23m15.835 28.067a.891.891 0 1 0-.002 1.782.891.891 0 0 0 .002-1.782m-3.07-1.858a1.335 1.335 0 1 0-.004 2.67 1.335 1.335 0 0 0 .004-2.67m-2.23-3.951c-.948 0-1.718.769-1.718 1.715s.77 1.715 1.718 1.715a1.716 1.716 0 1 0 0-3.43m-1.333 3.667a.983.983 0 1 0-.002 1.966.984.984 0 1 0 .002-1.966m-5.836-3.414a1.065 1.065 0 1 0-.003 2.13 1.065 1.065 0 0 0 .003-2.13m3.206.52a1.425 1.425 0 1 0 1.426 1.425c0-.787-.639-1.425-1.426-1.425m-2.753-4.316a1.555 1.555 0 1 0 1.557 1.554c0-.859-.696-1.554-1.557-1.554m-3.73.162c-.8 0-1.449.648-1.449 1.446a1.45 1.45 0 0 0 2.897 0c0-.798-.648-1.446-1.447-1.446M7.777 47.91a1.594 1.594 0 1 0 0 3.187 1.594 1.594 0 1 0 0-3.187m-2.125-4.407a2.02 2.02 0 0 0-2.02 2.018c0 1.113.904 2.017 2.02 2.017a2.019 2.019 0 1 0 0-4.035m5.977 2.459a2.052 2.052 0 1 0 0 4.102 2.052 2.052 0 1 0 0-4.102m6.825 3.811a2.14 2.14 0 0 0-2.144 2.14 2.144 2.144 0 0 0 4.286 0 2.14 2.14 0 0 0-2.142-2.14m-1.681-5.979a2.708 2.708 0 1 0 0 5.416 2.71 2.71 0 0 0 2.712-2.707 2.71 2.71 0 0 0-2.712-2.709m-.113-7.36a3.28 3.28 0 0 0-3.285 3.28c0 1.812 1.47 3.28 3.285 3.28a3.283 3.283 0 0 0 3.285-3.28 3.28 3.28 0 0 0-3.285-3.28m-4.835-13.028a3.87 3.87 0 0 0-3.872 3.866 3.87 3.87 0 0 0 3.872 3.865 3.87 3.87 0 0 0 3.871-3.865 3.87 3.87 0 0 0-3.871-3.866m7.53 4.651a3.96 3.96 0 0 0-3.96 3.957 3.96 3.96 0 0 0 3.96 3.955 3.96 3.96 0 0 0 3.963-3.955 3.96 3.96 0 0 0-3.962-3.957m4.527-8.966a4.433 4.433 0 0 0-4.437 4.43 4.433 4.433 0 0 0 4.437 4.431 4.435 4.435 0 0 0 4.438-4.43 4.435 4.435 0 0 0-4.438-4.43m7.986-14.119a2.673 2.673 0 0 0-2.676 2.671 2.676 2.676 0 0 0 5.351 0 2.67 2.67 0 0 0-2.675-2.67M37 .62a2.556 2.556 0 0 0-2.556 2.553A2.556 2.556 0 0 0 37 5.727a2.555 2.555 0 0 0 2.556-2.554A2.556 2.556 0 0 0 36.999.62m6.159 2.06a3.057 3.057 0 0 0-3.06 3.055 3.06 3.06 0 0 0 3.06 3.055 3.057 3.057 0 0 0 3.06-3.055 3.057 3.057 0 0 0-3.06-3.055m6.184 4.017a3.284 3.284 0 0 0-3.286 3.282 3.285 3.285 0 0 0 3.286 3.283 3.287 3.287 0 0 0 3.289-3.283 3.286 3.286 0 0 0-3.289-3.282m5.066 5.9a3.53 3.53 0 0 0-3.534 3.528 3.53 3.53 0 0 0 3.534 3.528 3.53 3.53 0 0 0 3.534-3.528 3.53 3.53 0 0 0-3.534-3.529M49.97 19.73a4.07 4.07 0 0 0-4.075 4.07 4.07 4.07 0 0 0 4.075 4.07 4.073 4.073 0 0 0 4.074-4.07 4.073 4.073 0 0 0-4.074-4.07M38.018 7.813a3.229 3.229 0 1 0 .001 6.456 3.229 3.229 0 1 0 0-6.456M7.786 10.978a.891.891 0 1 0-.002 1.783.891.891 0 0 0 .002-1.783m2.762-2.392a1.334 1.334 0 1 0 0 2.668 1.335 1.335 0 1 0 0-2.668m4.211-.523a1.716 1.716 0 1 0 0 3.43 1.715 1.715 0 1 0 0-3.43m-1.878-1.89a.984.984 0 1 0-.001 1.968.984.984 0 0 0 0-1.967m5.809-3.46a1.065 1.065 0 1 0-.002 2.13 1.065 1.065 0 0 0 .002-2.13m-2.367 1.972a1.424 1.424 0 1 0 0 2.848 1.425 1.425 0 1 0 0-2.848m5.006-.417c-.86 0-1.558.695-1.558 1.554s.698 1.554 1.558 1.554a1.555 1.555 0 1 0 0-3.108m1.82-3.144a1.447 1.447 0 1 0 0 2.892 1.446 1.446 0 1 0 0-2.892m3.899-.833c-.882 0-1.597.713-1.597 1.593a1.596 1.596 0 0 0 3.192 0c0-.88-.714-1.593-1.595-1.593M31.566 0a2.02 2.02 0 0 0-2.022 2.018 2.02 2.02 0 0 0 2.022 2.017 2.02 2.02 0 0 0 2.021-2.017A2.02 2.02 0 0 0 31.566 0m-5.15 3.91a2.053 2.053 0 1 0 0 4.104 2.052 2.052 0 1 0 0-4.104m-6.797 3.86a2.142 2.142 0 1 0 0 4.283 2.143 2.143 0 0 0 2.145-2.142 2.144 2.144 0 0 0-2.145-2.141m5.535.685a2.71 2.71 0 0 0-2.713 2.708 2.71 2.71 0 0 0 2.713 2.708 2.708 2.708 0 1 0 0-5.416m5.944 2.725a3.283 3.283 0 0 0-3.285 3.28 3.283 3.283 0 0 0 3.285 3.28 3.28 3.28 0 0 0 3.284-3.28c0-1.811-1.47-3.28-3.284-3.28m13.21 1.455a3.867 3.867 0 0 0-3.871 3.866 3.867 3.867 0 0 0 3.87 3.864 3.87 3.87 0 0 0 3.872-3.864 3.87 3.87 0 0 0-3.871-3.866m-7.88 4.05a3.96 3.96 0 0 0-3.96 3.957c0 2.185 1.773 3.955 3.96 3.955s3.963-1.77 3.962-3.955a3.96 3.96 0 0 0-3.961-3.956m5.102 7.685a4.436 4.436 0 0 0-4.438 4.432 4.435 4.435 0 0 0 4.438 4.43 4.434 4.434 0 0 0 4.437-4.43 4.435 4.435 0 0 0-4.437-4.432m9.778 16.604c-1.477 0-2.677 1.195-2.677 2.671s1.2 2.671 2.677 2.671 2.675-1.195 2.675-2.67-1.198-2.672-2.675-2.672m1.312 6.79c-1.412 0-2.558 1.144-2.558 2.554s1.146 2.553 2.558 2.553c1.413 0 2.558-1.144 2.558-2.553s-1.145-2.554-2.558-2.554m-5.3 3.543a3.057 3.057 0 0 0-3.06 3.056 3.06 3.06 0 0 0 3.06 3.055c1.69 0 3.06-1.369 3.06-3.055a3.057 3.057 0 0 0-3.06-3.056m-6.773 3a3.286 3.286 0 0 0-3.288 3.28 3.285 3.285 0 0 0 3.288 3.284 3.285 3.285 0 0 0 3.287-3.283 3.285 3.285 0 0 0-3.287-3.282m-7.863 1.061a3.53 3.53 0 0 0-3.535 3.528c0 1.949 1.583 3.529 3.535 3.529s3.533-1.58 3.533-3.53a3.53 3.53 0 0 0-3.533-3.527m-4.436-8.216a4.07 4.07 0 0 0-4.076 4.07 4.074 4.074 0 0 0 4.076 4.07 4.074 4.074 0 0 0 4.075-4.07 4.073 4.073 0 0 0-4.075-4.07m17.04-3.114a3.23 3.23 0 0 0-3.233 3.229 3.23 3.23 0 0 0 3.233 3.229 3.23 3.23 0 0 0 3.233-3.23 3.23 3.23 0 0 0-3.233-3.228M59.686 19.82a.891.891 0 1 0 0 1.783.891.891 0 0 0 0-1.783m.309 2.92a1.335 1.335 0 1 0 0 2.668 1.335 1.335 0 1 0 0-2.668m-1.98 3.332a1.715 1.715 0 1 0 0 3.429 1.716 1.716 0 1 0 0-3.429m3.21.418a.984.984 0 1 0-.002 1.967.984.984 0 0 0 .003-1.967m.068 6.63a1.064 1.064 0 1 0-.003 2.129 1.064 1.064 0 0 0 .003-2.129m-.88-3.572a1.425 1.425 0 1 0-.001 2.85 1.425 1.425 0 0 0 0-2.85M58.16 33.89a1.555 1.555 0 1 0 0 3.108 1.555 1.555 0 1 0 0-3.109m1.912 3.308a1.446 1.446 0 1 0 0 2.892 1.447 1.447 0 1 0 0-2.892m-1.356 3.567c-.88 0-1.595.713-1.595 1.593s.715 1.593 1.595 1.593c.882 0 1.597-.713 1.597-1.593s-.715-1.593-1.597-1.593m-2.392 3.406a2.02 2.02 0 0 0-2.02 2.017c0 1.115.905 2.017 2.02 2.017a2.018 2.018 0 1 0 0-4.034m-.826-6.45a2.054 2.054 0 0 0-2.056 2.052c0 1.132.92 2.05 2.056 2.05a2.053 2.053 0 1 0 0-4.103m-.03-7.94c-1.183 0-2.145.96-2.145 2.142s.962 2.14 2.145 2.14a2.143 2.143 0 0 0 2.145-2.14c0-1.182-.96-2.142-2.145-2.142m-3.854 3.593a2.71 2.71 0 0 0-2.71 2.708 2.71 2.71 0 0 0 2.71 2.707 2.71 2.71 0 0 0 2.713-2.707 2.71 2.71 0 0 0-2.713-2.708m-5.83 2.92c-1.816 0-3.286 1.468-3.286 3.28s1.47 3.28 3.286 3.28c1.813 0 3.284-1.468 3.284-3.28s-1.47-3.28-3.284-3.28m-8.375 9.817a3.87 3.87 0 0 0-3.871 3.866 3.87 3.87 0 0 0 3.87 3.865 3.87 3.87 0 0 0 3.872-3.865 3.87 3.87 0 0 0-3.871-3.866m.347-8.974a3.96 3.96 0 0 0-3.962 3.956 3.96 3.96 0 0 0 3.962 3.956 3.96 3.96 0 0 0 3.963-3.956 3.96 3.96 0 0 0-3.963-3.956m-5.192 4.288a4.433 4.433 0 0 1-4.437 4.43 4.433 4.433 0 0 1-4.436-4.43 4.434 4.434 0 0 1 4.436-4.432 4.434 4.434 0 0 1 4.437 4.432"/></g></svg>