<svg xmlns="http://www.w3.org/2000/svg" xml:space="preserve" baseProfile="tiny" version="1.2" viewBox="4.32 4.59 221.01 263.1"><path d="M92.984 88.72c.023-.921-.431-1.524.192-2.387.124-.295.941-.41 1.419.023.385.545.91 1.069 1.17 1.523.67.139 1.26-.533 1.853-.66.66-.66 1.964-.727 2.83-.521 2.238.521 4.262 1.636 5.649 3.272-1.955-.683-2.841-.761-4.752-.886l-1.5-.092-6.888-.07c-.409.024-2.578.137-2.578.137-3.626-.261-8.08.272-10.85-2.308l-.456.4c.07 1.508 1.512 2.498 2.751 3.158.273.522 1.32.522 1.784 1.046 2.899.851 6.275 1.001 9.035.932 0 0 1.34.136 1.841.25 1.002.465 2.866.135 3.979.408 2.319 0 4.294.646 6.524.909l.136.07c-1.193.34-2.956.068-4.08.272-2.375.521-4.74-.409-6.58-1.524 0 0-1.17-.295-1.601-.034-.032.26-.284.58-.238.828.192.99.716 1.57 1.32 2.16 0 .796 1.182.921 1.5 1.385.933.33 1.59 1.25 2.772 1.045 1.045.794 2.296.397 3.477.591 1.115.545 2.707.602 4.092.672.252.191 1.25.191 1.703.33v.127c.66.26 1.844-.194 2.047.738.648 1.112-.522 2.227-1.124 3.02-1.978.718-3.944 0-5.603 1.24-1.364.602-2.432 1.58-3.611 2.51-1.32 1.307.932 1.115 1.26 1.912-1.32.567-2.899 1.114-4.217 2.021-1.387 1.523-3.159 2.638-3.353 4.932.148.295.695.556.956.715l42.24.023c-.058-.24-.127-.455-.185-.671.796.136 1.32.387 2.102.387.081-.387.716-.648.467-1.114h.066l.137-3.079.122-.15c-.122-1.306-.328-2.815-.713-4.135-.203-1.387-.796-2.23-1-3.547.797.59 1.91.194 2.57.648.862-.376.387-1.442.714-2.284 0-.206-.376-.206-.124-.478-.067-2.557-.852-5.123-1.706-7.43-.341-.774-1.181-1.252-1.25-2.034l1.387-.33c.043-.385-.273-.796 0-1.114-.342-.66-.48-1.59-.739-2.181-.124-1.24-.851-2.16-1.045-3.342-.99-.851-1.387-2.637-2.763-3.159l.33-.272c1.579-.455 2.239-1.639 3.215-2.682 1-1.59 2.172-3.817 1.124-5.522-.26.318-1.055.521-1.055.521-2.568 1.046-6.512 1.115-9.069-.069-8.363-2.32-16.908-6.978-26.25-5.658-3.547.909-6.978 1.91-9.408 4.613-.649 1.181-2.366 1.308-3.273 1.954a9.6 9.6 0 0 0-2.501 3.023c-1.32 3.363.127 7.113 2.501 9.478.093.252.556.272.67.49-.003.002 2.487.502 2.577-.03-.023.069-.023.138-.023.205m68.368 70.364c.498.955.976 1.931 1.59 2.771.478.658 1.124.727 1.59 1.57.318 0 1.25.408 1.181-.32 1.307-.85 1.307-2.307 2.172-3.613.191-1.045.782-1.978.92-3.09.068.524.525.979.388 1.375.137 3.363.933 5.714 1.193 9.081.455 3.409 1.17 5.726 1.842 8.943.782 3.147 2.033 5.58 3.422 8.215 1.115 1.978 2.555 3.614 3.681 5.594.455.134.852 1.124 1.454.657-.34-5.386.59-9.673.718-15.136.397 1.523.92 3.226 1.237 4.819.272.715-.192 1.841.408 2.432.388 2.693 1.182 5.25 1.57 7.83.93 4.604 3.09 8.342 5.385 12.16.603.399 1 1.114 1.521 1.638.192 1.124 1.387 1.384 1.772 2.441 2.765 2.366 5.659 5.123 8.613 7.036 1.114.33 1.705 1.304 2.774 1.51-.4-.727-.07-1.51-.863-1.909-.127-1.253-1.57-1.908-1.57-3.353-.533 0-.27-.718-.533-.92-.127-.524-.782-.594-.579-1.251-.616-1.304-1.456-2.43-1.387-3.953-.397-.58-.92-1.364-.796-2.034l-.319-.396c-.736-2.624-1.193-5.705-1.453-8.274h-.134c-.07-3.362-.466-6.703-.866-9.807.07-.07.07 0 .139.078 2.43 4.263 4.15 9.194 8.612 11.899.524.33.935.715 1.32 1.045.203.332.794.194.727.718h.388c3.953 2.577 8.954 3.023 12.634 6.124.524 0 .455.647 1.048.397-1.57-5.395-5.98-8.884-9-13.089-.388-.988-1.057-1.841-1.58-2.762-1.058-1.978-1.457-4.069-2.375-6.171-.388-.406.464-1.26-.388-1.26-.136-.852-.34-1.964-.794-2.832-.194-1.703-.865-3.874-.978-5.522h.113c-.044-1.841-.522-2.956-.635-4.862.457-.272-.34-.662.113-.796 1.454 1.772 2.511 4.022 4.611 4.998 2.638 2.5 6.252 3.478 9.605 4.67 2.033-.33 3.669.99 5.51.4-.253-.59-.911-1.112-1.638-1.318-.852-1.386-2.682-1.772-3.353-3.353-2.308-2.626-3.492-6.124-4.274-9.604-.533-1.057-.466-2.502-1.055-3.49-.207-1.239-.526-2.499-.796-3.941-.254 0-.184-.32-.184-.524-.533-2.968-1.251-5.658-1.523-8.753l-.25-.203c0-2.624-.604-5.455-.727-8.08l.203-.193c2.091.113 4.66.26 6.693-.727.863-.397 1.977-1.068 1.977-2.116-1.056-.113-2.568-.192-3.214-1.046-1.32-.863-2.502-2.363-3.104-3.816-.59-3.614-2.308-6.637-2.762-10.138-.388-.113.067-.782-.457-.842-.658-3.545-2.112-7.5-2.294-11.25-.134-.727-.272-1.978-.337-2.885 1.454-.478 3.157-.59 4.272-1.66.205-.318 0-.715-.18-.978-1.196-.191-2.047-.909-2.91-1.703-.843-1.068-1.773-2.83-2.022-4.091-1.454-1.637-1.91-4-2.58-6.116-.397-1.112-.715-2.169-1.237-3.214-.205-1.787-1.456-2.966-1.65-4.74-.191-.455-.851-.66-.713-1.32-1.934-4.796-4.682-9.139-8.707-12.227-1.045-1.58-3.408-2.25-4.726-3.558-1.25-.852-2.887-1.045-4.399-1.373-2.43-.275-4.806.397-6.851 1.442-.782.081-1.306.649-1.978.99 0 .455-.454.397-.715.522-2.885 3.02-4.862 7.364-6.77 11.25l-1.376 4.601c-.455.4-.067 1.124-.591 1.514-.988 3.612-2.045 6.842-3.559 10.387-.648.796-.784 1.648-1.126 2.502-.454.533-.715 1.25-1.047 1.841-.137 1.069-.591 1.786-1.182 2.5-.851 2.046-2.047 3.886-3.16 5.727-.59.385-.59 1.705-1.384 2.102-.318.137-.046.852-.59.783-1.503 2.91-3.707 5.386-6.09 7.691l14.455-.067zm-97.094 4.966c-.466.044-.75.101-.82.17-1.056.522-.52-.842-1.32-.911-1.045-2.43-2.692-4.68-3.477-7.306-.66 6.113-.07 12.092-.796 18.148-.524.535-.07 1.181-.388 1.65l-.069.715h-.136c-.33 1.65-1.046 3.431-1.772 4.943-.137.593-.727 1.182-.727 1.978-.863 1.827-1.773 3.147-2.5 5.123h-.193l-2.308 3.286c.205.464-.386.4-.522.715-.842 1.796-1.705 3.16-3.023 4.544-.136-1.636 0-3.748-.205-5.398.205-2.621 0-5.986-.455-8.873-.66 4.15-2.169 7.955-3.023 12.09-.454 1.127-1.114 2.25-1.25 3.568-.852 1.51-1.251 3.079-2.364 4.399v.466c-.729.318-.863 1.509-1.456 1.966-.727-.058-.136 1.057-.92 1.057-1.91 3.42-5.987 5.386-9.273 7.433-1.715 1.5-3.75 2.76-4.738 4.996-.579.07-.318-.727-.579-1.045.182-1.978.328-4.341 1.717-5.793 1.885-3.023 3.93-6.706 5.112-10.253-.25-.588.466-.791.466-1.454.713-1.248.648-2.953.987-4.474.727-1.773.455-3.942 1.113-5.92.399-3.08.92-5.921 1.375-9.205h-.33c-.976 2.693-2.624 5.855-4.01 8.354-1.964 1.717-3.875 4.34-6.374 5.137-2.23 1.248-4.66 1.636-6.252 3.75-1.045.521-1.373 1.511-2.16 2.23v.26c-.522.26-.794 1.124-1.456 1.181-.33-2.829.782-5.123 1.5-7.419.408-.399.547-1.059.796-1.59.478-.782 1.318-1.306 1.66-2.227.648.058.318-.66.908-.727 1.842-3.217 3.296-7.036 4.274-10.728 1-2.365 1.318-5.647 1.842-8.273.466-.979.341-1.978.863-3.09.205-1.25.59-2.25.455-3.57-.4.203-.137.604-.206.93-.91.388-.648 1.387-1.364 1.978-.205.976-.863 1.511-1.26 2.365-1.112 1.84-3.078 2.838-4.989 3.953-2.047.318-3.692 1.24-5.93 1.318v.113c-1.64-.113-3.093.932-4.341 1.717h-.261c.604-2.693 2.238-4.932 4.216-6.84 1.511-1.72 2.568-3.944 3.341-6.171.603-2.25 1.66-4.477 1.796-6.66.59-1.909.91-4.262 1.772-6.113.58-1.57.727-3.616 1.373-5.183-.191-1.193.852-2.045.716-3.293.59-1.387.738-3.093 1.137-4.604-1.32.521-2.374 1.511-3.953 1.844-1.523-.127-3.558.26-4.728-.649-.273-2.25 2.681-3.046 3.159-4.751 1.57-3.16 3.272-6.24 4-9.796 1.453-3.614 1.84-7.752 3.092-11.636l-.058-.41c.454-.25-.26-.638.33-1.046.191-1.306.648-3.215 1.181-4.793-.66-.205-1.135.455-1.703.521-1.317 0-2.58 1.057-3.967.342-.579-.408-.443-1.068-.127-1.59.524-.07-.136-.92.66-.84 1.717-3.365 3.432-6.66 4.15-10.546 2.171-6.692 3.023-13.807 7.488-19.592 0-.794.92-1.046 1.069-1.842 2.229-3.34 4.989-6.044 8.342-8.158 2.818-2.227 7.638-2.024 10.978-.454.477.387 1.32.26 1.592.978.713.342 1.364.796 2.1 1.25.715 1.33 2.363 2.376 2.956 3.954.782.397.397 1.045.92 1.57 3.16 5.86 4.545 12.182 7.637 18.09 1.364 2.182 1.705 4.806 3.422 6.842.192.726.649 1.509 1.046 2.033.33.272.127.99.782.99.136.863.932 1.717 1.195 2.568.522.602.58 1.32 1.237 1.648 0 .92.866 1.114 1.126 1.91 1.443 1.83 3.354 4.263 4.863 5.977 1.112 1.51 2.102 2.43 3.42 3.557.339.408.75.773 1.181 1.112l-19.726.127z"/><path fill="#FEC66F" d="M161.396 121.673a9.7 9.7 0 0 0 .738-1.569c1.124-1.784.328-3.353-.194-5.135.07-.124.137-.274.261-.193.524.782 1.512 1.239 1.58 2.307.33-.477 1.319-.796 1.455-1.523.069-.33.524-.863.251-1.112.273-.863.727-1.66.591-2.772.07-1.045-.978-2.102-.388-3.023 1.117.727 1.117 2.433 1.5 3.612 1.784-1.306 2.5-3.478 3.296-5.453.524-1.955-.455-3.215-.649-4.99 1.24.123 1.5 1.897 1.761 3.035 1.385-1.91 2.18-4.421 1.909-6.851.066-1.055-.716-1.897-.524-2.76 1.184.191 1.184 1.578 1.454 2.623h.26c.192-.127.261-.454.33-.782.976-1.91 1.636-4.274 1.24-6.706.145-1.045-1.911-1.715-.649-2.432l.194.318c.782.136.646.863 1.124 1.25.124.534.26 1.385.782 1.385 1.32-2.171 2.365-5.192 1.442-7.772-.069-.648-1.045-1.306-.593-2.024.796.136 1.32 1.046 1.514 1.911.26.388.067 1.182.466 1.309 1.636-2.366 1.113-5.922.794-8.807-.478-.59-1.387-1.112-1.195-2.113.399-.591.717-1.387 1.717-1.046 1.045.388 2.43.92 3.09 1.978.33-.08.385.26.454.454 2.899 3.284 3.093 7.957 5.066 11.569l.26-2.818c.457-.794.261-2.169 1.046-2.771l.127.078c-.388 2.352-.524 5.65.669 7.819.522.851.59 2.102 1.512 2.626.387.92 1.047 1.908 2.035 2.374.076-1.453-.457-3.09.191-4.329.204-.08.409 0 .524.182-.524.933.203 1.773.203 2.772.591 1.5.866 3.342 2.112 4.41.455 1.364 1.705 1.908 2.432 3.08.66 0 .591.922 1.253.783.794.796 1.773 1.193 2.682 1.648 1.91.782 3.82.987 5.794.191-.456-.454-1.384-.318-1.772-1.045-1.638-.319-2.308-2.16-3.16-3.353-.908-2.17-1.908-4.477-2.75-6.58 0-.978-.86-1.375-.794-2.365-.468-.851-.865-2.114-1.181-3.228-.524-.727-.33-1.966-1.069-2.638.206-1.045-.978-1.373-.773-2.432-.547-.113-.399-.976-.738-1.237-.979-2.24-2.283-4.013-3.547-5.989-.58.07-.455-.66-.713-.999-1-.637-1.253-1.76-2.366-2.351-3.431-2.83-6.773-5.783-11.783-5.467-1.442.521-2.898.932-4.149 1.59-1.772 1.17-3.616 2.817-4.523 4.659-.478.66-.605 1.57-1.124 2.17.125 1.056-1.126 1.305-.99 2.431-.658.852-.92 1.854-1.181 2.966-1.907 4.068-2.841 8.93-4.74 12.955l-.192.067c-.136 1.182-.66 1.775-1.181 2.75-.797 2.117-1.443 4.342-2.571 6.206-.727.843-1.113 2.227-1.773 3.146-.99 1.636-1.91 3.544-2.967 5.192-1.909 2.705-3.99 5.363-6.102 8.033l12.226-.023zm-79.639-4.853c-2.296-2.125-4.274-4.442-6.364-6.851l-.07-.397c-3.023-3.808-5.852-8.08-7.954-12.75-.672-1.579-1.842-2.624-2.047-4.466-1.512-2.25-1.772-4.931-3.49-7.114 0-1.318-.782-2.363-1.192-3.42-.113-.533-.319-1.126-.522-1.443-2.956-6.842-6.637-15.77-15.568-15.92-1.456.069-2.84.715-4.089 1.057-1.511.851-2.75 1.569-4 2.568-.066.522-.657.59-.726.912-1.648 1.26-2.568 2.974-3.75 4.543-.408.319-.66 1.115-.978 1.457-1.454 2.817-2.774 5.91-3.762 8.93-.33.464-.58 1.26-.796 1.909-1.442 3.683-1.76 8.024-3.545 11.647-.521 2.693-1.908 5.194-3.284 7.375-.463.044-.272.443-.341.773 1.26.206 2.707-.25 3.82-.773 3.09-1.865 6-5.342 8.032-8.365.59-2.433 1.966-4.41 1.57-7.433 0-.261-.058-.797.399-.73.59.797.341 2.047.66 2.957.203-.319.657-.522.727-.979 1.578-1.58 2.296-4.08 1.977-6.637.058-.544-.987-1.193 0-1.454.776 1.251.91 2.82.979 4.477.341-.272.909-.069 1.25-.466.4-.058 0-.6.4-.455-.067-.738.602-.932.602-1.58 0-3.953.57-7.636 2.365-10.863.522-.454.852-.978 1.376-1.569.782-1.114 1.841-.205 2.76.058.385.533-.07 1.126.385 1.578-.658 1.253-1.703 1.98-2.43 3.102-.194 2.171-.07 4.604 1.25 5.977.592-.261.592-.988.797-1.579.522-.33.727-1.114 1.442-.851v.33c-.92.727-.92 2.18-1.317 3.159.533.192-.397.388.147.66 0 1.182.524 2.365.783 3.547.524.92 1.17 1.844 1.694 2.75.544-.717.544-1.5 1.523-1.83l.26.525c-.851.147.079.92-.59 1.056-.783 2.114-.261 4.341.782 6.044.602.66 1.055 1.773 1.978 1.773.26-.977.341-2.488 1.523-2.682.124.522-.273 1.51-.466 2.227.124 1.908.521 3.817 1.58 5.192.136 1.057 1.113 1.648 1.964 2.103.079-.718.716-1.318.716-2.033.341-.07.546-.66.863-.125-.192.727-.591 1.373-.522 2.227.07 0 .136 0 .205.136l-.205.192c0 1.58 1.115 3.032 1.978 4.216.318 1.442 1.977 2.229 2.956 3.159l.66-1.59.385.136c-.182 1.91-.113 3.683.866 5.137.136.058.33-.07.387.058-.092.194-.092.33-.034.408h16.006m32.564-45.648c.454.842 1.772.127 2.296.92 2.5.591 4.68 1.897 7.17 2.5.851.784 1.91.59 3.023 1.045 3.173.782 7.308 2.693 10.66.67-.125 2.16-1.785 4.386-3.806 5.25-2.84.726-5.864 0-8.682-.797l-1.126-.067c1.318.863 3.146 1.193 4.932 1.717 2.1.466 4.396.92 5.988 2.375 1.112 2.033 2.102 4.34 2.363 6.637-1.181.205-2.432-.136-3.362.339-.046.445.671.318.727.718 1.112 1.045 2.374 2.499 2.965 4.01.716 2.047 1.443 4.069 1.196 6.501.318.206-.067.478 0 .67-1.59 0-2.705-.794-3.82-1.51-1.908.192-1.456-1.841-2.499-2.774-1.068-1.772-2.308-3.353-3.886-4.52.136 1.509 1.978 2.487 2.432 3.999.455.987 1.717 1.772 1.581 3.159-1.32 0-2.033-.976-3.148-1.182-.796-.466-1.647-1.181-2.513-.796 1.06 1.648 3.226 1.978 4.08 3.953.261.524.727.866.783 1.581.796 1.112.669 2.76 1.057 4.147l-.522 2.225c-.796-.067-1.117-.589-1.844-.863-.727-.58-1.181-.727-1.772-1.364l-.547-.148c-1.24-1.442-2.956-2.43-4.193-4-.92-.532-1.196-1.51-2.102-1.908-.204.591.66.785.523 1.443.273.66 1.113 1.32 1.057 2.183.524.637.591 1.5.524 2.351.33 1.911 0 4.422-1.58 5.534-.33.716-.921 1.182-1.637 1.76l-2.261-.066-.058-1.308h.078c.127-2.569-1.317-4.477-1.453-7.159-.33-.521-.718 0-.979.125-.794 1.83-2.238 3.625-3.75 4.737-.851.197-1.511.979-2.308.91-1.772 1.126-3.613.999-5.852 1.32-.26-.716.397-1.433.649-2.103.602-1.76 1.714-3.214 3.17-4.465v-.203c-1.193-.194-2.374.328-3.692-.07-1.045-.124-2.171-.318-2.885-1.045.33-.067.261-.399.386-.66 1.853-.782 3.353-1.772 5.6-1.714 1.24-.455 2.763-.852 3.423-2.239.127-.715.385-1.634-.07-2.365.455.069.728.729 1.318.729.388 1.112 1.182 2.225 1.182 3.353.775-.648.455-2.238.318-3.148-.113-.136-.191-.272-.318-.272v-.136c1.32.478 2.296 2.047 2.83 3.558.59-1.126-.342-2.365-.922-3.353.921-.318 1.57.794 2.433 1.18.387.205.454 1.253.842 1.001.205-.547-.252-1.26-.524-1.715-.782-.99-2.024-1.716-3.341-1.98-2.047-.59-4.477-1.509-7.113-1.714-3.614-.524-7.364-.455-10.523-1.58-1.112-.65-1.58-1.57-2.294-2.352 5.728 3.408 12.229.26 18.273 1.236 1.523-.191 3.17 1.057 4.615 1.057 0 .397.455.137.715.206v.251c1.127.273 2.772.863 3.626 2.033.318.148.318-.182.388-.373v-.342c-2.569-1.897-4.136-3.16-6.91-4.408-.182-.59-1.045-.387-1.43-.851-1.581-.988-3.887-2.033-5.343-3.42-.978-.524-2.102-1.32-3.08-2.116-1.579-1.17-3.817-2.363-6.058-2.43-.976-.044-1.579.341-2.363.738-1.32.055-1.456-2.102-3.023-1.58l-.07-.024c-.796.34-1.774.148-2.183 1.205-.26.136-.26.4-.26.4-.261.578-.261 1.508 0 2.1-.783-.137-.852-1.125-1.57-1.457-.521-1.318-1.578-2.432-1.193-4.205-.318-.66.206-1.523 0-2.111.33-.649.522-1.5 1.124-2.23.023-.09.33-.33.33-.33 1.57-1.123 3.884-1.509 4.726-3.625.261-.374.591-.623.863-.782.66-.649 1.703-.953 2.5-1.442 3.228-1.318 7.103-1.784 10.726-1.443 1.71.058 3.484.854 5.393.919"/><path d="M99.257 73.013c-.127.843-1.046.522-1.434 1.115-.796.66-1.592 1.442-1.716 2.374.782 1.046 2.351 1.764 3.738 2.172 2.432-.455 5-1.59 7.442-2.365.524.113 1.309-.273 1.761-.409 1.26-.26 2.638-.385 4.022-.136v.272c-2.637-.136-4.546 1.387-6.909 2.033 3.296.33 6.058 1.648 8.16 4.013-.067.206-.26.07-.408.137-.843-1.046-2.285-1.57-3.478-2.112.33 1.069-.07 2.25-.976 2.977l-1.32.452c4.795 2.956 7.034 8.82 12.955 10.66 1.57.59 3.363.59 4.93.318.332-.318-.204-.524-.261-.852-.713-.069-.466-.851-1.193-.92-.783-.933-1.828-1.182-2.691-1.978-.26-.275-.92-.275-.979-.796.455 0 1.124.408 1.761.408.863.261 1.59 1.113 2.389 1.113.842.66 2.293.99 3.214 1.25 1.17.397 2.241.137 3.284-.385-.457-.547-.457-1.193-.99-1.59-1.057-1.638-2.69-2.75-4.34-3.683-.603-.455-1.443-.727-2.364-.727-.127-.127-.069-.318-.069-.522 1.91.522 4.218.794 6.058.794.713-.521-.206-.851-.261-1.442-.672 0-.672-.99-1.318-.863-.92-1.24-3.025-1.763-4.477-2.5v-.26c2.308-.07 3.353 1.181 5.195 2.238 1.454.852 1.908 3.102 3.953 3.547.842.716 1.636.988 2.16 2.033l-2.49-1.638c-.588-.272-1.26-.92-1.975-.397-.524.08-1.048.464-1.717.192l-.125.203c.852.796 1.842 1.636 2.762 2.829.125.988 1.182 1.717.794 2.83-.59.26-1.193.126-1.784.26 1.784 1.375 4.283 2.83 5.331 4.943.206.194.272.648.466.978-2.624-2.887-5.852-5.273-9.738-6.249-.203.785 1.112 1.318.66 2.17-3.422.987-6.842-.783-9.74-2.364 0-.33-.398-.466-.592-.533-4.864-2.557-6.24-9.657-13.024-9-.386-.136-.649-.521-1.126-.408-1.113-.637-1.704-1.773-2.352-2.82.127-.067.127-.273 0-.328-.533 0-1.26-.194-1.784-.466-.648.136.136.794-.058 1.26.261.646-.147 1.373.33 1.76 2.433 0 4.341 1.457 5.977 2.772-.521-.136-1.373-.727-2.113-1.054-.635.124-.84-.649-1.57-.455-.729-.397-1.703-.59-2.363-.33-.454-.26-1.523.59-1.456-.408.26-1.113.205-2.16-.194-3.273-.59-1.181-2.035-2.43-3.489-2.374l-1.045.588c-.273-.058-.137-.33-.137-.521.66-1.24 2.763-.123 2.569-1.909a21 21 0 0 1 2.183-1.908c.113 0 .374.078.443-.127.473-.132.997-.393 1.519-.589"/><path fill="#FEC66F" d="M44.599 73.604c-1.76 1.705-2.479 4.795-1.76 7.297.52 1.456.987 2.702 2.362 3.49-.058 1.32-.124 2.101-.191 3.488h-.137c-.069 1.182-.124 2.294-.521 3.478-.205 2.239-1.115 4.546-1.842 6.775-.533 1.909-.863 3.363-1.578 5.271-.863 2.5-1.442 4.796-2.102 7.297-.33-.07-.4.33-.261.522l.124.205c.33-.341.591-.794.591-1.318h.136c.453-1.511.988-2.898 1.443-4.613.466-.191.069-.842.399-1.114.318-1.24.863-1.978 1.112-3.226-.59-.386.319-.386.206-.785.521-1.909 1.5-4 1.908-6.25.319-.715.26-1.375.718-1.965.136-.99.327-2.184.466-3.229.455 1.045 1.318 2.114 2.102 3.16.192 1.18-.524 2.229-.59 3.422h-.07c-.715 1.647-.796 3.943-1.841 5.386-.33 2.774-1.51 5.536-2.033 8.227-.545.524-.545 1.717-.727 2.434-.455.794-.388 2.306-.933 2.896-.318 1.046-.579 2.488-1.363 3.354-.204.454-.273 1.32-.794 1.578-.66 1.045-1.32 1.772-1.911 2.762-.07.125-.319 0-.466.125-.261 1.26-1.57 1.66-2.033 2.638-1.376-3.75-1.115-8.41-1.523-12.296.477-1.647 1.001-3.489 1.592-5 .521-1.637.92-3.354 1.442-5.135.522-1.32 1.115-2.749 1.306-4.069 1.196-3.362 2.047-7.045 3.229-10.384.524-1.069 0-2.183.59-3.363-.648-2.637.273-5.316.33-8.09.398-.73.603-1.909 1.385-2.16-.191-.727.466-.727.852-1.124.337-.148.337.182.383.316m140.695 5.07c.979 2.818 1.57 5.647 3.478 8.146.4.852 1.057 1.91 1.26 2.956.251.99.32 1.717.775 2.705.067.782.591 1.511.533 2.43.388 1.308 1.127 2.435 1.057 4.013.716 1.638.783 3.547 1.5 5.192.206.4.524 1.057.273 1.512.057.136.59.466.203.66.387.454.457 1.114.524 1.978.978 1.045.646 2.568 1.181 3.953.522 2.023.92 4.068 1.57 5.907-.252-3.817-1.51-8.021-2.295-11.635-.593-1.115-.205-2.569-1.047-3.75.067-1.66-.796-3.298-1.318-4.876-.138-.33.385-.522-.138-.649-.658-1.784-.93-3.692-1.318-5.409-.524-.58-.385-1.634-.727-2.225h.203c.194 1.773 1.65 3.16 2.365 4.535 1.196 1.454 3.024 1.978 3.024 4.08.339 1.456.93 3.16 1.056 4.602.467.069 0 .602.397.784 1.385 4.477 1.773 9.875 3.363 14.022.182.454-.409.454 0 .717.249 3.035 0 5.601-.808 8.352l-.522.73c-1.843-1.912-3.805-3.954-5.125-6.388-1.318-2.433-1.58-5.714-2.365-8.601-.727-3.886-1.842-7.83-2.638-11.786-.727-.909-.796-2.432-1.182-3.341.261-1.456-1.045-2.25-.93-3.762-1.045-3.556-2.296-7.17-3.477-10.717-.591-.397-.524-1.112-.866-1.703-.064-1.977-.452-3.431-.588-5.467-.252-.521-.59-.99-.912-1.511.321-.136.66.205 1.048.318 1.32 1.071 1.775 2.91 2.446 4.228m-80.174 1.378c0 .191-.078.454-.272.454l-.73-.057c.07-.07 0-.137-.057-.137-.33-.205-.26.261-.397.386 0 .671.727.796 1.046 1.193.863.26 1.32-.464 1.977-.649l.206-1.659c.851.136 1.966-.057 2.294.794-.183.727-.137 1.705-1.046 1.98-1.456.727-3.625.646-5-.275-.728-.66-1.581-1.045-1.512-2.16.925-.463 2.628-.985 3.491.13"/><path d="M95.315 80.31c.194.452-.33.658-.26 1.112-.933.397-2.885-.66-3.545.864-.081-.137-.139-.07-.206-.07.067-.851.658-1.114.988-1.772.464-.342.782-.794 1.442-.918.66.057 1.251.124 1.581.784"/><path fill="#FEC66F" d="M184.304 87.946c.252.591.591 1.773.794 2.693.39 1.717 1.57 2.83 1.435 4.738.658 1.112.33 1.772.921 2.887.718 2.5 1.445 4.795 1.842 7.364.466 1.114.671 2.5 1.057 3.683.796 4.15 1.569 7.364 2.365 11.441-.058 1.457-.59 2.58-.524 4.15-.466.454-.272.66-.466 1.25-.648.73-.26 2.047-1.24 2.366-2.635-3.226-5.134-6.25-5.52-10.784-.271-.602-.535-1.648-.408-2.172-.646-.784-.318-1.772-.775-2.69-.067-2.033-1.115-3.626-1.454-5.58-.4-.605-.067-1.99-.59-2.389-.591-4.34-2.241-8.01-3.16-12.35.66-1.32 1.66-2.58 1.706-4.15.399.067.523.783.59 1.32.34 1.703 1.193 2.954 1.318 4.796.59 1.772 1.112 3.68 1.454 5.453.66 1.387.454 2.771 1.181 4.216.194 1.442.469 3.02.912 4.465.602 2.114 1.068 4.41 1.715 6.319.535.66 0 2.16.717 2.363-.318-4.272-2.024-9.07-2.476-12.75-.48-1.182-.796-2.239-1.068-3.75-.524-1.182-.589-2.433-1.113-3.614.134-1.069-.387-1.842-.524-2.908 0-1.433-1.183-2.296-.863-3.999-.32-.533-.387-1.124-.579-1.772.125-.796-.93-1.456-.067-1.978.067-.524.85-.66.646-1.373.591-.148.273-.796.727-1.124.526 1.244 1.311 2.425 1.447 3.88m-148.83 13.476c.261.33-.464.591-.33 1.046-.341 1.068-.533 2.386-.99 3.431-.782 2.227-1.306 4.932-2.169 7.228-.136 1.844-1.25 3.284-1.387 5.125-.782.533-.455 1.784-1.181 2.442-1.251 4.659-3.944 9.205-6.91 12.953-.203.318-.842.59-.92 1.045-1.761 1.523-4.671 4.535-7.761 2.899l-.058-.058c.26-.66 1.306-.342 1.375-1.26.66-.192.66-.92 1.057-1.306 1.124-.727 1.193-2.366 1.967-3.226 2.898-7.955 4.283-15.73 6.521-23.864.715-.932.319-2.65 1.385-3.023 1.705-1.717 3.341-2.705 4.456-4.819 1.124-1.772 2.047-3.817 2.771-5.771-1.057 4.34-2.365 8.534-3.75 12.874-1.569 5.331-2.956 10.136-5.192 15.125-.533 1.59-.715 3.17-1.454 4.613 1.579-2.183 2.43-5.41 3.49-8.16.92-3.284 2.307-6.5 3.09-9.796.726-.796.454-2.114 1.181-2.956.385-1.978 1.112-3.432 1.512-5.41.92-2.365 1.58-4.989 2.102-7.419 1-1.26 2.908-1.784 2.954-3.761-.046-1.57 2.047-.843 2.774-1.842-1.385 4.549-3.294 9.289-4.533 13.89m49.521-11.647c1.045 0 2.488.192 3.602.192 6.127-.455 11.317.136 17.377 1.068 1.055.455 2.172.127 3.079 1.251.729.522 1.456 1.306 2.43 1.5-2.294-.127-4.066-1.24-6.635-1.181-1.772-.797-4.271-.397-6.238-.919-2.501-.33-6.251.076-8.817-.524-.796.125-2.056.192-2.74-.101-2.183 0-4.296-.817-6-2.262 1.364.533 2.488.577 3.942.976m95.559 15.522c-.136.92.658 1.841.4 2.704.59.397.396 1.374.443 1.967h.147c.58 1.32.524 2.374.979 3.613-.192.522.191.478.191.794.067 1.387 1 2.296.727 3.875l.34.466c.057 2.227 1.432 4.807.387 6.898.192 2.1-.59 4.216-1.126 6.124-.328.192-.122 1.251-.919.727-.193-.454-.726-.604-.842-1.181-2.432-1.911-3.5-5.271-4.751-8.022-.113-.727-.067-1.52-.388-2.25-.852-3.68-1.182-7.488-2.16-11.18.046-1.503-1-2.885-.605-4.341 1.126-1.431 1.057-3.478 1.65-5.059.455.718.646 2.511 1.113 3.49.318 1.306 1.114 2.693.92 4.407.524.785.591 1.844.852 2.75.205 1.524.932 2.98 1.048 4.41.406.522.078 1.443.533 1.912 0 1.26.524 1.523.66 2.704.26 1.636.33 2.294.851 3.817l.139-.136c-.533-2.693-.796-5.206-1.251-7.897-.93-2.626-1.318-5.386-2.112-8.148 0-1.842-.99-3.683-.99-5.398-.703-.782-.124-2.17-.784-3.023.729-1.648 1.25-3.353 1.717-4.862.796 3.671 1.772 7.488 2.831 10.839M49.736 97.867c.205 2.83-.455 4.477-.91 7.034-.454 1.592-.863 3.023-1.126 4.74l-.193.194c.454.205-.33.272.066.6-.588.127.194.717-.396.987-.4 2.16-1.196 4.729-1.787 6.898.66-.07.4-1.045.921-1.384 1.057-3.215 1.456-6.762 2.832-9.852.339-1.456.863-3.09 1.114-4.546.397-.976.464-2.225.66-3.215.273.058.605.649 1.002.718.316.205.842.205.976.524 0 .205.136 1.068-.136 1.454.203.59-.319 1.045-.125 1.91h-.127c-.272 1.251-.588 2.76-.987 3.953.397 1.307-.797 2.225-.467 3.409-.33.385-.205.727-.33 1.126-.122 1.76-1.045 2.624-1.045 4.602-.191.26-.533.909-.588 1.306-.194 1.387-.524 2.624-1.32 3.886-.524 1.442-1.307 2.956-2.036 4.34-1.135.921-1.25 2.366-2.441 2.83-.921-.66-.192-2.114-.921-2.772-.319-3.42-.92-8.023.205-11.113-.069-.194-.069-.386.192-.522.07-2.102.66-3.68 1.308-5.728-.194-.717.591-.978.33-1.638.533-1.057.739-2.432 1.196-3.614 1.317-3.102 1.509-6.455 2.815-9.478.34 1.316.863 2.181 1.318 3.351m150.863 3.886c.794.718 2.455 1.196 2.25 2.366.454.851.397 1.85.976 2.623-.185.66.34 1.069.466 1.909.672 2.638 1.046 5.591 2.033 8.024.464 3.431 1.59 5.591 2.181 8.944l.522.533c-.206-1.772-.66-3.819-1.069-5.522-.452-1.592-.842-2.707-.976-4.477-1.253-3.362-1.306-6.704-2.172-9.727-.193-.932-.454-1.714-.784-2.704.521.069 1.454.136 2.09.341.342 1.706.797 3.273 1.069 4.863-.07.842.205 1.433.385 2.229.536 2.76 1.32 4.862 1.708 7.569.272.272.34.66.272 1.057.727 2.83 1.706 5.51 2.569 8.215.658.466.251 1.59.92 2.114.33.388.261 1.433.988 1.706-.069.454.66.729.66 1.114.843.852 1.703 1.57 2.956 1.842-.863.796-1.908 1.045-3.092.987-.99.192-2.18-.136-2.702-.782-.98.26-.842-.863-1.57-1.001-.66-.716-1.84-1.57-2.17-2.818-.536-.26-.603-.796-1.058-1.182.136-.932-.978-1.114-.782-2.102-.466-.796-.99-1.26-1.06-2.17-.52-.26-.202-1-.52-1.386-.795-3.296-1.91-6.319-2.706-9.466.137-.783-.191-1.456-.387-2.059-.386-.634-.524-1.364-.794-2.16-.26-1.112-.33-2.224-.785-3.295.263-.522-.33-.976-.134-1.636-.851-2.433-1.172-4.203-1.908-6.773.785.913 1.908 1.7 2.624 2.824"/><path d="M130.11 108.005c-1.908-1.51-2.829-3.944-4.807-5.262-.124-.272-.59-.66-.249-.92 2.158 1.578 3.933 3.671 5.056 6.182"/><path fill="#FEC66F" d="M135.303 104.707c.865 1.648 1.317 3.487 1.841 5.262-.191.136-.067.59.07.727.133 1.375-.261 2.501-.137 3.888-.124.26-.593.113-.387.522-1.193-.261-2.387-1.251-3.296-1.909 1.253-3.362.07-7.364-1.772-10.205 1.375.273 3.353 0 3.68 1.715m-79.114 1.978c0 1.908-.932 4.214-.796 6.374-.455.851-.455 1.636-.66 2.568l-.26.192.26.136c-.863 2.487-.782 5.058-1.648 7.76.194.591-.715 1.524-.191 1.978.454-1.647 1.057-3.159 1.384-4.795-.136-1.193.863-1.717.591-2.977.796-2.294 1.057-4.202 1.58-6.706.716-1.113.33-3.093.989-4.272 0 1.842 1.181 2.624 1.32 4.272-.797 2.43-.547 4.864-1.66 7.034-.318.932.136 1.523-.318 2.441-.206 1.966-.478 3.75-1.25 5.32.33 1.659-1.254 2.773-1.582 4.204-.521.932-1.126 1.717-1.91 2.386-.716-1.124-1.387-2.638-1.581-4.216-.261-.33-.203-1.124-.589-1.456 0-1.373-.069-2.488-.26-3.672.399-3.75 1.716-8.157 2.238-11.84.385-2.638 1.385-5.204 1.842-7.637.786 1.078 1.638 2.121 2.501 2.906"/><path d="M120.123 106.49c.249 2.1.782 4.863.113 6.774.26-2.568-.716-4.544-.912-7.1l.194-.398z"/><path fill="#FEC66F" d="M172.2 107.082c.852 5.522 2.308 10.193 2.957 15.648.715 1.648.523 3.42 1.056 4.862.252 1.784.252 3.693-.341 5.262 0 1.592-.773 3.16-1.512 4.41-.443-.125-.443-.727-.92-.988-1.24-2.033-2.682-4.149-3.342-6.512-1-5.522-2.047-9.408-3.035-14.795.852-.727 1.648-1.442 2.172-2.229.602.044.452.91.602 1.24.649 3.94 1.761 7.306 2.626 10.989.067 2.227 1.249 3.943 1.113 6.318.067 0 .136.058.203.058.138-3.284-.863-5.783-1.316-8.806-.193-.794-.193-1.59-.26-2.433-.863-1.908-.716-4.34-1.51-6.044-.069-.669-.069-1.386-.272-2.046-.978-.727.727-1.251.466-2.181.598-.843.517-2.172 1.313-2.753m-37.668 9.796c-.625-1.682-1.729-3.09-3.182-3.75-.125-.192-.524.07-.455-.342-.91-.11-1.385-.909-2.1-1.239.33.397.192 1.124.794 1.24.4 1.384 1.114 2.51 1.638 3.772-.069.522-.014.409-.014.409l-.669-.102c-.794-2.102-1.749-3.284-2.808-5.386-1.046-.92-1.316-2.76-2.83-3.353.605 2.774.467 5.93-1.442 7.83-.27.455-.318.649-.648.91l-.067.147-5.192-.148c.59-2.693-.727-3.807-1.138-6.237-.319 2.307-1.364 4.216-1.955 6.304-.727-.124.058-.443-.272-.715.59-1.523 1.045-3.353 1.387-5.137-.99.863-1.59 2.25-2.966 2.707-1.239.988-2.693 1.25-4.204 2.033-2.192-.058-1.784.83-2.896 1.048-.66.067 0 0 0 0h-1.274s-.067.124 0 0l.75-.513h-.66c-.455-.272-1.523.319-1.442-.533.26-1.237.987-2.884 1.509-4.01-.524.26-1.115.341-1.251.865-.136 0-.192 0-.26-.07-1.125.591-2.708.852-3.887 1.307 1.978-1.237 4.602-2.17 6.319-3.875l-2.172-.07-.192.137c-.399-.533-.99.07-1.386-.136-.783.59-1.717.385-2.502 1.112-2.172.547-3.556 2.638-4.738 4.41 1.069.727 2.308 1.523 3.545 1.182.82.067 1.888-.547 2.342.113zm-74.137-4.202c.66.657 2.114 1.43 1.705 2.363 0 2.499-.318 5.863-.66 8.09-.715.25.07.797-.124 1.115-.261 2.363-.852 4.216-1.046 6.58l.125-.082c.136-1.763.988-3.408 1.115-5.044l.33-.206c-.455-2.363 1.123-3.477.865-5.783.33-1.387.648-3.101.648-4.534l.73 2.365 1.25 1.648c.07 1.83-.385 3.604-.66 5.386-.136 0-.136.125-.203.125.342.92-.454 1.85-.318 2.637h.07c-.797.386.59.933-.342 1.253l.205.397c-.26 1.046-.138 2.241-.73 3.081-.124.589-.066 1.784-.385 2.386-.521.524-.454 1.57-1.387 1.83-.191.67-.726 1.26-1.181 1.978-.272-.067-.522.605-.796.127-.453-.388-.591-1.433-1.24-1.842-.92-.978-.602-2.499-1.317-3.547-1.262-4.998.715-10.453 1.578-15.26h.07c.251-1.773.521-4.011 1.114-5.714.266.127.833.127.584.65m106.41 6.693c-.205.796.727 1.057.134 1.786.593 2.18 1.114 5.204 1.442 7.5.07.524.397 1.32.464 1.91.32 1.773.32 4.205.32 6.116-.523 1.25-.782 2.832-1.578 4.069-1.966-1.433-3.547-3.409-4.67-5.511-.319-1.85-.457-3.82-1.182-5.534.138-1.5-.978-2.568-.91-4.205.91-1.045 1.83-1.966 2.172-3.42.591.591.524 1.851.716 2.624.593 2.977.999 6 1.841 9.023h.136c.185-1.784-.657-3.295-.385-5.067-.408-2.774-1.138-5.795-1.195-8.352.399-.66 1.239-1.26 1.511-1.908.136-.137.455-.33.252-.589.145-.07.272-.33.477-.07-.069.582.386 1.116.455 1.628m-134.16-.446c.455 2.5.252 5.126 1.112 7.683-.59.932-.454 2.25-1.057 3.159-.26 2.172-.521 4.795-1.375 6.706l-.136 1.069c-.058-.07-.136.057-.182.127-.547 3.08-1.454 6.124-2.181 9.136-.319.851-.275 1.853-.843 2.568-.41 2.102-.932 4.15-1.659 6.104-.057 1.52-.727 2.838-1.32 4.092-.194.66-.454 1.317-.796 1.841.145.4-.251 1.182-.521 1.579-1.581 3.625-3.866 7.899-8.16 9.013-2.091 1.385-4.863.907-7.023 1.909 1.443-2.569 4.138-4.544 5.317-7.24.07-.6.66-.793.533-1.44.533-.274.127-1.068.58-1.444.865-3.102 2.113-5.92 2.649-9.078.122-.467.374-1.115.374-1.775h.147c.33-1.124.261-2.112.988-3.035-.272-.713.318-1.578.385-2.432.591-1.784 1.057-3.49 1.385-5.455a96 96 0 0 0 1.578-5.728c.649-1.58 1.83-2.896 2.83-4.34 1.966-3.285 3.943-6.58 5.25-10.194-.261 1.842-1.115 4.069-1.433 6.044l-.342.205c.388.796-.522 2.033-.455 3.16l-.136.136c.386.454-.385.909-.26 1.638-.66 1.715-.852 3.612-1.639 5.326-.67 3.148-1.648 6.374-2.308 9.478-.794.524-.136 2.16-.863 2.624.206.851-.454 1.57-.318 2.501-.589.591-.522 1.57-.93 2.363-.07.206.078.594-.261.594-.455 1.52-.852 3.09-1.045 4.726.397-.183.454-1.046.92-1.364.522-1.842.988-3.704 1.443-5.467.92-1.717 1.112-3.547 1.908-5.125-.124-.794.194-2.045.4-2.839 1.112-2.501 1.112-4.343 2.032-6.888-.057-1.32.852-3.047.783-4.364.59-.455.521-1.761.796-2.557.66-1.046.4-2.557 1.112-3.422.522-2.43 1-4.66 1.639-6.774.602-.272.203-1.047.669-1.442-.316-.4.275-1.06.413-1.378"/><path fill="#FEC66F" d="M38.825 126.48c-.397 1.193-.136 2.954-.92 4.013-.082.261.19.66-.195.727.111.91-.205 2.227-.341 3.079-.136.397 0 .987-.388 1.32 0 .782 0 1.783-.33 2.499.58.33-.397.67-.067 1.057-.33 3.228-1.195 6.57-1.83 9.136.443 1.248-.408 2.568-.794 3.82.192.271.192.59.192.908-.522.547-.26 1.127-.589 1.798.192 1.909-.865 3.272-.92 5.123-.921.455.205 1.445-.66 2.033-.136 1.046-.206 2.16-.796 2.899.466.851-.591 1.65-.388 2.762-.272 1.978-.99 3.49-1.25 5.592-.262.26-.07.66-.137.978.33.203.33-.388.521-.455.206-1.65.797-2.693 1.115-4.477.478-1.703.796-3.078 1.318-4.728-.25-.86.477-1.645.397-2.76.533-1.512.602-3.492 1.195-4.74-.66-.4.649-.593 0-.99.319-.782.388-1.442.649-2.238-.4-1.182.669-2.103.669-3.342a.58.58 0 0 0 0-.602c.387-.785.069-2.239.842-2.956-.058-.988.342-2.1.342-3.093.729-1.784.387-3.747 1.253-5.328-.478-.261.11-.524.067-.921-.146-1.193.454-1.978.454-3.226.33-2.239.785-4.34 1.387-6.5.182-1.26.716-3.294.842-4.422.467 1.386 0 3.362.933 4.613-.067 1.114.775 1.843.775 2.884-.251 1.32-.388 3.09-.775 4.286-.397 3.147-1.454 5.783-1.66 8.739-.521 2.18-.976 5-1.433 7.17-.33.715.194 1.648-.521 2.102-.205 4.932-1.66 9.215-2.432 14.273-.739 3.884-2.32 8.294-3.499 11.636-.66 1.25-1.112 2.704-1.978 3.817 0 .796-.579 1.317-.726 1.975-.637.865-1.434 2.047-2.024 2.887-.796 1.387-2.114 2.764-3.478 3.75-1.387 1.523-3.82 2.111-5.6 2.977-.534.387-1.058.567-1.58 1.045-1.047.32-1.705 1.115-2.5 1.842 0-2.497 2.5-4.544 3.807-6.852.602-.648.932-1.375 1.51-2.24.477-.591.795-1.17 1-1.91.718-1.363 1.113-3.022 1.83-4.524-.124-.93.534-1.909.603-2.885h.136c.25-1.274.455-2.432 1.046-3.568.203-2.487 1.112-4.398 1.317-7.024 0-.34 0-.93.319-1.263.339-3.078 1.137-6.101 2.044-9.136.66-2.968 1.253-5.852 2.172-8.75.466-.455 0-1.238.4-1.718.66-1.5.908-3.272 1.25-4.929.136-.32.33-.978.521-1.364.139-1.592 1.046-2.979 1.046-4.615.408-1.59.727-2.898 1.25-4.34-.193-.988.273-1.706.547-2.364l-.145-.388c.533-.932.145-2.386 1.057-2.976l.067-.455c1.375-1.648 2.568-3.09 3.888-4.68.06 1.918-.544 3.374-.805 5.02m165.468 2.953c.192 1.195.591 2.375.524 3.556.466.979.466 2.09.672 3.09.388 1.842.842 3.683 1.112 5.525l.127.205c-.26.192.065.319.192.59 1.193 6.896 2.238 13.023 3.953 19.59-.33-6.567-2.839-13.02-3.36-19.658-.457-1.193-.261-2.705-.783-3.817-.127-2.763-.92-5.386-1.195-8.296l-.125-.386h.081l-.148-.59c.261.521.866 1.112.99 1.772a5.5 5.5 0 0 1 1.385 2.307c1.182 1.127 2.227 2.17 2.112 4.147.637 6.446 2.026 12.501 3.217 18.605.191 1.195.59 2.238.715 3.295.33.716.457 1.897.932 2.624-.341.727.635 1.184.321 1.978.727.524.203 1.84.988 2.5l-.194.32c1.181 1.848 1.705 4.475 3.49 5.998.523.113.33.717.781.842.33.547.933.547 1.048 1.117-.59.067-.91-.127-1.502-.194-2.636-.374-5.202-1.966-7.443-3.353-.33-.842-1.17-.842-1.83-1.512-2.432-2.831-5.386-5.713-5.658-9.99-1.182-6.51-1.717-11.591-2.502-18.09-.657-3.75-.657-7.887-1.52-11.773.669.069-.07-.797.59-.852.536-1.055.603-2.375 1.194-3.102.191-.909.33-2.09.26-3.023.974 1.837 1.313 4.212 1.576 6.575"/><path fill="#FEC66F" d="M199.431 129.31c.522 2.296.455 5.134.919 7.488l.127.08c.396 9.342 2.238 18.74 3.353 27.617-.522.394.136.918.136 1.373.399 3.295.727 5.658 1.248 8.75-.203.534.388 1.318.388 2.036l1.52 6.192c1.388 4.273 2.818 8.423 6.183 11.718 1.5 1.955 4.01 3.67 5.068 6.102-2.772-1.761-5.924-2.364-8.818-3.942-1.115-.92-2.705-1.248-3.432-2.568-.521.26-.387-.388-.634-.522-.67-.342-.932-.935-1.66-1.25-1.372-1.593-2.752-2.832-3.422-4.672-3.408-5.192-5.317-10.92-5.647-17.499-.66-1.694-.387-3.477-.796-5.125-.521-2.69-.26-5.453-.976-7.819-.4-2.24-.07-4.943-.593-7.183-.478-.386-.07-.91-.406-1.374-.782-5.988-1.306-12.306-2.16-18.147.593-.455 1.045.851 1.705.385.66-1.636 1.909-3.078 2.172-4.862.671 1.454.33 3.09.865 4.66.192 2.383.522 4.543.976 6.92.716 3.284.852 7.034 1.385 10.442.07 1.786.593 3.104.526 4.932.26.205.192.669.136.863l.261 2.307c-.136.261-.203.455.127.58.397 4.615.736 9.274 1.258 13.887.046 1.443.127 3.353.593 4.74l.057 1.911h.33c.261-1.193-.26-1.58-.196-2.704.58-.125-.134-.4 0-.716-.191-4.74-.533-9.148-.93-14.07l-.26-.408c-.658-5.114-1.046-10.06-1.5-15.247l-.204-.342c0-.454.273-1.114.067-1.43 0-.342-.385-.727-.136-1.184-.918-3.432-.59-7.842-1.44-11.193.067-.782-.07-1.76-.26-2.432.133-.988-.388-2.5-.458-3.42 1.424 1.775 2.878 3.49 4.528 5.125"/><path fill="#FEC66F" d="m187.985 128.652.185.26.339 3.547c.452.533-.07.988.388 1.51h-.058l.33 2.113h-.139c.139 1.251.07 2.705.663 3.75l-.139.137c1 7.093 1.454 14.785 2.638 21.433.134.861 0 1.704.272 2.569-.069.067-.272.182-.069.33l.113.125c.602 5.93 1.32 12.034 1.865 17.681h-.067c.316 2.647.454 5.534 1.047 8.227.134.455-.387.863.192 1.193.136 3.602.782 6.773 1.58 10.249.4 1.511 1.318 2.831 1.64 4.49.602.111.147.773.405 1.113.852.579.591 1.638 1.237 2.16 0 .727.933 1.114.808 1.783-3.82-1.908-6.252-5.33-9.092-8.16.138-.463-.33-.59-.524-.782-.397-.794-1.18-1.184-1.249-2.171-.387-.591-.865-1.057-1.112-1.784 0-.319-.727-.716-.34-.979-.523-.26-.523-.999-.91-1.317.26-1.32-1.182-1.717-.93-3.023-.455-.866-.525-1.911-.912-2.887-.136-2.977-1.59-4.943-1.523-8.033-.91-5.728-2.555-11.241-3.146-17.036.33-4.477-.863-7.966-1.126-12.228.409-.203-.07-.409-.07-.603-.318-1.966-.043-4.329-.714-6.101l.193-.206c-.523-3.159-.26-6.84-1.114-10.135-.206-2.227-.273-3.68-.522-5.908.727 1.897 2.682 3.478 4.463 4.727.192.138.536 0 .796.069-.08-.4.397-.591.649-.796.93 2.91.727 6.775 1.315 9.613.203.33.273 1.046.273 1.639h-.134c.203 3.431.851 7.567 1.317 11.317l-.203.124c.658 4.422.977 8.624 1.454 12.829.522 1.454.192 3.408.591 4.931.455 4.205.91 7.955 1.772 11.772 0-2.294-.387-4.01-.387-6.247-.146-2.18-.67-4.07-.591-6.115-.863-8.294-2.112-16.5-2.578-24.794-.648-1.385-.194-3.409-.782-4.999-.342-4.07-.526-8.287-1.387-12.364.796-2.093 1.126-3.889 1.318-6.183.59.921 1.906 1.909 1.975 3.16m-141.275 7.5c-.203.842-.249 1.908-.59 2.637-.522 4.932-1.57 9.866-2.297 14.661-.463.26-.203.91-.272 1.25-.26.783-.191 1.91-.388 2.57-.851 1.239-.726 3.09-1.045 4.456-.067 2.635-1 5.409-1.318 7.91-.069 2.294-.793 3.806-.999 6.113h-.07c-.112 1.909-.908 3.545-1.044 5.59-.388.66-.127 1.569-.455 2.432l.194.134c.715-.93.66-2.43.99-3.681.59-2.638 1.317-5.07 1.841-7.844-.521-.593.319-.911.136-1.57l.252-1.977.205-.124.319-3.238.34-.388c-.137-2.296 1.114-4.137 1.114-6.704.26-.272.203-.66.203-.999.124.079.205-.046.251-.113-.124-2.047.933-4.477.933-6.521.521-2.957 1.253-5.32 1.569-8.147.454-.535.136-1.456.41-2.104.647-3.545.98-7.364 1.842-11.181.455 0 .113.59.319.794.66 2.294 2.965 4.195 1.977 7.16-.521 2.241-.521 4.671-1.25 6.776.136 2.238-.524 3.42-.73 5.453-.524 6.127-2.114 11.659-2.637 17.83l-.194.193c-.397 4.477-1.17 8.612-1.761 13.159-.34 2.1-1.193 3.817-1.26 5.977-.648 1.114-.455 2.704-.92 3.943-.058.261-.455.148-.32.4.183.657-.34 1.453-.477 2.18-1.115 2.82-1.844 5.91-3.547 8.601-.524.466-.59 1.262-1.181 1.717-.522 1.318-1.457 2.502-2.638 3.547.205.727-.649.397-.649 1.115-2.626 2.25-5.33 3.883-8.42 5.27-.192.591-.933.658-1.182.783.66-2.433 2.638-4.272 3.82-6.305.976-1.784 1.772-3.692 2.226-5.728 1-2.16 1.454-4.728 1.773-7.091.341-1.91.727-3.956 1.25-5.933-.182-1.51.988-2.749.455-3.873.533-1.977.865-4.216 1.274-6.385-.547-.455.388-.648.182-1.126 0-2.09.932-3.863.979-6.102.736-.782.272-2.238.736-3.217 1.25-3.431.978-7.703 2.171-11.247 0-1.717.522-3.298.591-4.932.203-.069.203-.272.067-.41.58-1.5.524-3.478 1.32-4.92-.272-1.976.773-3.49.842-5.454.409-.99.409-2.25.478-3.362.388-.125.252-.92.388-1.375.33-1.124.454-2.703.92-3.75-.069-2.693 3.079-3.82 3.875-6.183.4 0 .4-.454.466-.727-.14 3.49-.597 6.831-1.064 10.06"/><path d="m60.199 131.672.127-.782-.056.782z"/><path fill="#FEC66F" d="M55.394 131.22c.466 2.624-.59 4.535 0 7.034-.851.4.275 1.253-.397 1.772-.194 1.456-.127 3.423-.579 5.123.182.273 0 .797-.136 1.127.07 2.898-1.045 6.124-1.045 9.08l-.146.067c-.127 3.215-.648 5.922-1.114 9.07-.386 4.405-.852 8.942-1.124 13.271-.046.148-.127.408-.194.478 0 .069-.194.593.194.457.145-2.765 1.124-5.264 1.193-8.297l.26-.318c-.454-.136.261-.33.137-.59-.273-1.588.521-2.636.272-4.205.57-2.308.443-4.544.715-7.182.194-.524.125-1.045.4-1.638.249-2.239.249-4.74.909-7.046-.455-.385.328-.648.07-1.112.66-4.002.931-8.022 1.578-11.956 1.056 1.045 1.195 2.681 2.623 3.477-.318 5.719-1.569 11.502-1.633 17.433-.33.067-.137.66-.524.842.055 5.725-.273 11.059-.921 16.512-.26.99-.4 2.432-.785 3.558-1.271 4.475-3.75 8.273-6.055 11.965.125.649-.865.921-.92 1.512l-.467.73c-.26-7.046-.852-14.798-.07-21.707-.057-4.865.933-9.727 1.582-14.41.59-1.047.521-2.556.66-3.94.588-3.354 1.25-6.308 1.569-9.728.408-.851.203-1.58.477-2.501-.069-1.648.649-2.832.522-4.477.194-.125.125-.455.272-.782 1.235-.995 1.357-2.825 2.677-3.619m116.933 5.659c1.911 11.965 2.227 24.124 4.613 36.692h.125c.136-1.055-.192-2.569-.272-3.487h-.056c-.32-4.02-.796-7.17-1.181-11.114-.591-2.365-.455-4.998-.727-7.24-.658-2.238-.192-5.328-.658-7.818-.184-.33.067-.738-.251-1.126-.342-.727.318-1.772-.275-2.497.457-.193-.134-.26-.067-.593v-1.384c.342.272.593.794 1.126.477 1.385-.932 1.44-2.319 2.363-3.703.66 6.775 1.648 13.227 1.9 19.749l.203.249c.136 5.068 1.112 10 .727 15.522.191.272-.727.726-.067.863l-.261.127c.59.399 0 1.056.26 1.58-.136 1.18-.069 2.294-.332 3.478.139.395.139.93 0 1.26-.33 1.648-.124 3.478-.602 5.056-.044 1.046.602 2.172.148 3.224-.672-.727-1.456-1.66-1.978-2.702-.794-.843-1.057-1.773-1.578-2.818-.979-1.908-1.318-4.34-2.047-6.385-.843-2.232-.591-4.457-1.433-6.57-.727-2.047-.409-4.408-1.194-6.716-.057-1.442-.399-2.693-.604-4.149-.635-5.317-1.046-9.727-1.5-15 .782-.715.454-1.638 1.126-2.352-.15-.535.125-1.253.192-1.91.182-1.193.33-2.899.182-3.82a10.1 10.1 0 0 0 2.118 3.107m-108.842 2.16.33.272-.07 5.25h-.066c-.194 3.886-.649 7.636-.785 11.647 1.182-4.08 1.182-8.816 1.773-12.965-.204-.127.069-.59.069-.784.796 1.373.851 2.898 2.116 3.886l1.306-.716c.522 2.363-.715 3.737-.66 6.035-.533 2.69-1.578 5.714-2.624 8.17l-1.523 2.487c-.588-.192-.842-.919-.99-1.442-.328-.206-.58-.852-.782-1.318-.524-.388-.33-1.318-.932-1.58-1.161-3.49-1.639-6.65-1.434-10.524.386-2.308.524-4.604.797-7.036 1.306-.796 2.545-2.047 3.272-3.229.065.596.397 1.323.203 1.847m103.772 3.293c.605 3.614 1.387 7.83.206 11.977-.07 1.363-.466 2.476-.727 3.736-.321.604-.716 1.373-.863 2.033-.568.33-.718.92-.912 1.523-1.908-2.183-3.611-4.67-4.001-7.83 0-1.978-.614-3.886-.407-5.783-.782-1.772 1.182-3.032 1.251-4.75.478-.26.397-1.18.727-1.705-.205-.794.727-1.317.388-2.111.524.339 0 .794.34 1.26.454 1.58.33 3.68.85 5.328.455 3.478.65 6.91 1.374 10.387.203-2.047-.058-3.932-.136-5.795h-.044c-.206-3.807-.794-7.363-1.332-11.102l-.33-.718c1.184 1.187 2.119 2.553 3.616 3.55"/><path d="M210.937 162.196h.072l.058.263h-.058zm-33.872 11.43h.07l.064.799h-.065zm13.419 13.027h.07l.193 1.182h-.147z"/><path fill="#00B6DC" d="M112.745 239.719s46.696-15.113 48.526-49.307l.146-73.543H64.076l.136 73.543c1.841 34.196 48.533 49.307 48.533 49.307"/><path fill="#FFF" d="m118.849 237.356-42.272-55.5H89.69l38.728 50.852c-.002 0-3.388 2.047-9.57 4.648m18.499-10.161-34.52-45.34h12.68l29.954 38.864c.002 0-2.633 2.693-8.114 6.476m15.319-14.349-23.603-30.988h13.126l16.158 21.217s-1.121 3.69-5.681 9.77"/><path fill="none" stroke="#000" stroke-width="23.077" d="M64.203 169.516h97.338"/><path fill="#FEC66F" d="M72.042 176.788v-.872c.782-.044 1.237-.102 1.373-.171a.4.4 0 0 0 .205-.136c.07-.093.093-.217.113-.388.058-.388.093-1.25.123-2.569.023-.625.037-1.728.037-3.274 0-1.41-.014-2.636-.037-3.704-.01-1.068-.058-1.717-.123-1.91-.023-.112-.069-.18-.136-.225-.046-.057-.17-.092-.341-.113a9 9 0 0 0-1.216-.136v-.877c1.41.037 2.386.058 2.919.058.704 0 1.41-.023 2.134-.058l.887 2.033.727 1.546 3.272 6.73q1.04-2.014 1.57-3.136l1.363-2.841c.75-1.59 1.205-2.569 1.387-2.931.16-.376.341-.84.57-1.398.886.043 1.465.066 1.728.066l3.046-.066v.874h-.136c-.694-.011-1.126.067-1.32.252q-.273.239-.272.953c0 .565 0 .999-.012 1.292l-.046 2.9v5.145c.058.863.102 1.41.146 1.601a.8.8 0 0 0 .113.238.5.5 0 0 0 .24.113c.101.044.533.08 1.285.127v.872l-3.274-.069-3.204.07v-.873c.852-.025 1.327-.07 1.454-.15.113-.067.206-.238.261-.5.046-.239.07-1.09.07-2.544v-7.468l-2.375 4.819-1.138 2.395a114 114 0 0 0-2.065 4.491h-.704c-.252-.568-.614-1.364-1.069-2.365a239 239 0 0 0-1.804-3.829l-2.693-5.51v5.035c0 .851 0 1.853.023 3.02.023 1.147.046 1.807.069 1.955.044.16.078.272.136.342.058.067.16.136.319.182.136.044.558.09 1.25.127v.872a41 41 0 0 0-4.855.005m22.92-2.978c.455 0 .83.16 1.147.456.307.318.468.706.468 1.146 0 .446-.159.831-.477 1.138a1.53 1.53 0 0 1-1.138.478c-.432 0-.82-.16-1.138-.478-.318-.307-.466-.692-.466-1.138 0-.44.145-.83.466-1.146a1.6 1.6 0 0 1 1.138-.455m16.135 1.022.252.229-.478 1.045c-.863.445-1.624.764-2.296.92-.692.172-1.544.262-2.568.262-1.454 0-2.728-.24-3.84-.683-.887-.386-1.625-.861-2.25-1.489-.591-.605-1.069-1.262-1.387-1.978-.513-1.068-.762-2.24-.762-3.498 0-2.172.739-3.92 2.215-5.296q2.214-2.046 6.252-2.045c.932 0 1.772.067 2.5.206.728.147 1.592.385 2.556.738l.058.125c-.113.33-.194.738-.252 1.216a19 19 0 0 0-.203 2.148h-.796c-.023-.764-.044-1.364-.113-1.818a4.6 4.6 0 0 0-1.544-1.069c-.57-.24-1.297-.35-2.183-.35-1.613 0-2.898.498-3.863 1.523-.976 1.022-1.454 2.43-1.454 4.26 0 1.1.16 2.056.49 2.887.33.828.763 1.5 1.306 2.03.521.55 1.068.935 1.624 1.196.739.33 1.648.487 2.716.487a8 8 0 0 0 1.978-.25 9 9 0 0 0 2.042-.796m3.275-1.023c.455 0 .82.16 1.138.456.318.318.463.706.463 1.146 0 .446-.145.831-.463 1.138a1.56 1.56 0 0 1-1.138.478 1.53 1.53 0 0 1-1.135-.478 1.53 1.53 0 0 1-.478-1.138c0-.44.16-.83.464-1.146a1.63 1.63 0 0 1 1.149-.455m12.614-2.024h-.82c-.023-.84-.09-1.364-.182-1.544-.044-.09-.17-.147-.362-.194-.524-.101-1.32-.147-2.41-.147-.159 0-.43.025-.828.025v1.145c0 1.613.023 2.762.056 3.408.046.649.092 1.034.159 1.147.046.07.148.136.26.185q.194.067 1.625.168v.808l-4.034-.07c-.579 0-1.509.026-2.76.07v-.852q1.178-.016 1.364-.101a.25.25 0 0 0 .16-.113c.043-.067.09-.25.133-.524.026-.16.046-.658.079-1.475a48 48 0 0 0 .057-1.797v-4.26c0-.104-.034-1.057-.101-2.876 0-.521-.058-.898-.102-1.114a.34.34 0 0 0-.092-.183c-.044-.034-.16-.067-.295-.101-.16-.035-.545-.07-1.205-.113v-.863l3.649.057 4.931-.078c.692 0 1.352.032 1.964.101l.092.136c-.078.407-.136.912-.191 1.503-.058.6-.079 1.137-.102 1.578h-.828c0-.17-.026-.524-.058-1.103-.014-.307-.035-.498-.07-.544-.022-.044-.043-.09-.092-.114-.124-.078-.406-.159-.863-.228q-.646-.135-1.569-.134c-.113 0-.431.023-.978.044-.522.025-.886.025-1.08.044-.067.683-.111 1.934-.111 3.706v1.442c.886.035 1.477.058 1.784.058.886 0 1.454-.058 1.68-.134.092-.037.159-.106.205-.228.044-.185.09-.568.11-1.182h.89a123 123 0 0 0-.065 4.447m4.341 2.023c.454 0 .83.16 1.146.456.307.318.467.706.467 1.146 0 .446-.16.831-.478 1.138a1.53 1.53 0 0 1-1.138.478c-.431 0-.817-.16-1.137-.478-.319-.307-.467-.692-.467-1.138 0-.44.148-.83.467-1.146a1.6 1.6 0 0 1 1.14-.455m17.046.886.261.238-.466 1.036c-.863.455-1.625.748-2.294.93-.692.16-1.546.251-2.568.251-1.454 0-2.728-.237-3.854-.694-.875-.376-1.625-.863-2.239-1.468a7.4 7.4 0 0 1-1.41-1.987c-.498-1.08-.738-2.238-.738-3.512 0-2.146.738-3.91 2.215-5.27 1.48-1.374 3.559-2.045 6.252-2.045.93 0 1.75.069 2.5.191.726.139 1.58.39 2.556.739l.044.126a9 9 0 0 0-.26 1.214c-.093.776-.16 1.503-.185 2.137h-.794c-.023-.738-.07-1.34-.113-1.797a4.4 4.4 0 0 0-1.544-1.069c-.568-.25-1.295-.362-2.204-.362-1.59 0-2.887.512-3.865 1.523q-1.434 1.534-1.434 4.262c0 1.1.16 2.068.478 2.887.34.829.776 1.51 1.295 2.047.547.533 1.091.93 1.65 1.17.736.33 1.647.498 2.716.498.692 0 1.352-.069 1.975-.237.616-.148 1.3-.432 2.026-.808m3.407-.887a1.6 1.6 0 0 1 1.147.456c.306.318.466.706.466 1.146 0 .446-.16.831-.478 1.138a1.53 1.53 0 0 1-1.138.478c-.431 0-.819-.16-1.137-.478a1.53 1.53 0 0 1-.478-1.138 1.595 1.595 0 0 1 1.618-1.602m-35.705-53.385c0 1.523.07 3.023.046 4.569 1.66.058 3.229.226 4.639.67l1.292 4.42c-1.636-.75-4.034-1.317-5.795-.408-.136.113-.044.305-.09.455 2.479.044 4.819.25 6.933.976l1.804 6.272c-2.374-1.057-6.078-1.977-8.534-.431-.159.07-.069.251-.092.388 2.956.023 5.82.373 8.389 1.23l2.226 7.85c-2.942-1.308-7.329-2.409-10.476-.671l-.024.976 11.421.182.079-.203.159-18.91h.455v.366c.932-.123 2.148-.501 3 .069.523.339.863 1.022 1.615 1.114.851.067 1.682-.034 2.444-.182-1.184.547-2.354 1.57-3.889 1.126-.59-.295-1.137-.648-1.897-.648-.387.09-.817.113-1.195.295l.058 2.32c.75.318 1.659.486 2.536.669 3.226.669 6.918.237 9.623-1-2.592 3.75-2.16 9.263.58 12.854l.625.226-3.774 5.5c1.955.408 4.75 1.601 6.49.023 1.17-1 2.887-1.477 4.557-1.092l-.431.842c-2.022-.249-3.58.704-5 1.773-2.886.669-5.159-.898-7.979-.898-2.727-.35-4.474 1.069-6.863 1.352-2.979.296-5.16-1.647-8.194-1.022-2.056.478-3.921 1.66-6.284 1.145-1.876-.649-3.692-1.579-6-1.272-1.842.24-3.478.808-5.296 1.08-3.612.192-6.683-2.432-10.249-.808-1.841 1.101-4.772 1.217-6.932.534-1.59-.298-2.91-1.454-4.68-1.069l-3.718.863-.42-.828 4.729-1.057c1.534.044 2.649.863 4.045 1.147 1.272.33 2.656.614 4.112.374-1.76-1.694-3.613-3.432-5.467-5.172l-11.01-4.694.171-.408 11.082 4.149c.978.125 2.01.24 2.988.388l-.17-.24-5.887-5.204c1.476-4.048 6.75-7.773 12.011-8.705 1.193-.24 2.578-.318 3.886-.228l1.35.999c.093-1.069.046-2.18.046-3.25-.634-.295-1.569-.454-2.27-.159-.591.252-1.115.704-1.865.568-1.147-.07-1.932-.796-2.885-1.204.82.08 2.16.364 3.035-.07.648-.68 1.442-1.34 2.615-1.181l1.373.237.046-.42.454-.023.16 6.956v.069a8.1 8.1 0 0 1 2.785.91l1.103 3.786a9 9 0 0 0-3.794-1.103v.683c1.5.16 2.862.547 4.034 1.228l1.352 4.85c-1.523-.886-3.272-1.363-5.238-1.488l.044 3.637.26.044 14.751.205c.104-.286.058-.616.058-.92-3.078-1.888-7.532-.716-10.465.59l2.91-7.85c2.409-.684 4.989-1.069 7.705-1.182l.044-.568c-2.453-1.34-5.91-.454-8.18.568l2.27-6.272c1.876-.547 3.886-.829 5.977-.933.023-.159.136-.286.023-.433-1.715-1.046-4.126-.374-5.772.318l1.57-4.362c1.32-.387 2.75-.648 4.297-.66.043-.75.113-1.534.043-2.328-.68-.33-1.705-.353-2.395-.035-.464.25-.944.559-1.625.501-1.17-.058-2-.796-3-1.25.912.159 2.024.306 2.954.069.67-.614 1.41-1.41 2.548-1.33.547.035 1 .261 1.544.287l.08-.522h.42"/><path fill="#00B6DC" d="m128.938 143.029-.272-10.558c1.638 3.09 2.012 7.385.272 10.558m-29.864-9.081c-1.613.09-3.069.478-4.294 1.274l-.776 3.773c1.477-.773 3.127-1.364 5.01-1.433v.704c-1.964.092-3.715.683-5.157 1.659l-.979 4.772c1.807-.932 3.794-1.66 6.058-1.784v3.58l-6.863-.093-4.046-.556c.376-4.355 2.32-8.227 6.07-11.513 1.41-1.092 2.956-1.952 4.975-1.842zm42.231 10.792-3.362 2.25-8.954-.112-.092-3.635c2.783-1.239 6.84-.978 9.486.296z"/><path fill="#FEC66F" d="m149.576 151.38-.547 1.09c-2.068-.548-3.09 1.41-4.807 1.786-4.103.761-7.512-2.124-11.488-.444-1.977.82-4.795 1.293-6.944.499-1.239-.34-2.365-.863-3.807-.775-2.705.546-5.511 2.194-8.456.932-1.477-.547-2.887-1.25-4.737-.932-2.49.32-4.717 1.479-7.443.955-1.954-.33-3.623-1.193-5.739-1.225-1.966.226-3.42 1.433-5.49 1.488-2.885.17-5.25-.762-7.66-1.59l-4.453.976-.478-1.1 4.66-1.023c1.592.044 2.771.842 4.193 1.17 1.83.51 4.262.625 5.956-.194 1.85-1.068 4.717-1.091 6.738-.307 1.546.446 3.185 1.036 4.978.649 2.728-.568 6.044-1.717 8.774-.409 1.636.979 4.216 1.069 6 .261 1.511-.524 3.249-1.126 5.024-.671 2.047.431 4.112 1.534 6.433.819 1.897-.499 3.568-1.454 5.887-1.182 2.737.023 4.93 1.477 7.75.956 1.112-.48 1.954-1.544 3.272-1.729.701-.17 1.68-.238 2.384 0"/><path fill="none" stroke="#000" stroke-width="2.308" d="M112.745 239.719s46.696-15.113 48.526-49.307l.146-73.543H64.076l.136 73.543c1.841 34.196 48.533 49.307 48.533 49.307z"/><path d="M51.665 210.515c1.48 1.285 3.362 2.377 5.172 3.274 1.091 1.318 2.785 1.703 4.17 2.659a67 67 0 0 0 7.703 3.683c2 .431 3.886 1.373 5.84 2.045 1.069.228 2.024.793 3.07.793 1.795.956 4.112.912 5.873 1.853 4.022.896 8.238 2.08 12.489 2.465 5.363.75 10.375.616 15.635 1.274 2.93-.145 6.069.24 9.136-.192 2.033.044 4.112-.523 6.055-.558.625-.203 1.195.275 1.807-.11 3.976-.548 7.523-.935 11.363-1.637 5.116-.955 10.274-2.34 15.25-3.66 2.229-1.045 4.592-1.57 6.729-2.84.796-.185 1.557-.467 2.319-.707.657-.235 1.271-.478 1.931-.713 3.501-1.932 7.297-3.5 10.558-5.908.82-.057 1.385-.717 2.148-.955 2.59-.715 6.16-1.932 8.419-.238 1.465.282 1.375 1.703 1.604 2.885-.273 1.763-.614 3.59-.568 5.501-.185.863-.092 1.75-.092 2.647l.136 1.99c.658.092-.044.477.07.807.315 1.466.498 2.896 1.111 4.306.342.57-.226 1.138.58 1.436 4.308-1.002 8.716.228 12.874 1.126 1.33.671 2.751 1.237 4.08 1.717.614-.044.808.524 1.376.614 4.297 1.987 8.328 4.68 11.783 8 .521.75 1.601 1.66 1.237 2.502-2.523-1.23-5.17-1.454-7.966-1.978-.942.42-1.828-.15-2.694.524-1.569-.194-3.023.748-4.543.886-1.616.614-3.137 1.42-4.637 2.227v.25c2.456 2.411 5.158 4.433 7.205 7.183.796.956 1.828 1.946 2.594 3v.185c1.408 1.318 2.123 3.125 3.408 4.454h.134c-.044.512.524.796.727 1.225.979 1.662 2.024 3.362 2.41 5.116-.716.273-.956-.796-1.57-.999-.907-.272-1.798-1.228-2.644-1.558-1.196-.851-2.56-1.465-3.753-2.319-7.576-4.126-17.134-4.931-25.747-3.452-4.172.464-8.582.715-12.784.658-1.853-.148-3.785-.377-5.216-1.614-.851-1.126-1.373-2.455-1.691-3.694-.24-1.09-.478-2.27-.863-3.316-.33-.185.145-.478-.192-.616-.99.092-1.784.897-2.785.941-1.24.82-2.569 1-3.979 1.58-3.466 1.17-6.826 2.07-10.375 3.116-1.124-.228-1.692.863-2.84.48-.714.478-1.649.337-2.42.566-3.786 1.225-7.956.842-11.976 1.659-.524-.058-.933-.194-1.512.044-3.692-.192-7.34.431-10.943-.146-.898-.092-1.41.342-2.32-.046-1.18.092-2.09-.238-3.158.148-.533-.284-1.477-.148-2.181-.34-1.615.24-3.272-.706-4.932-.283-.33-.42-1.329-.24-1.795-.466-.385-.203-.75-.09-1.138-.044-2.522-.478-4.737-.568-7.204-1.228-5.726-.953-10.602-2.386-16.09-4.034-.286-.376-.807.102-.955-.376-2.32-.82-4.931-1.34-7.297-2.135-2.17-.75-4.408-1.557-6.623-2.136-.524 1.716-.944 3.556-1.421 5.365-.319 1 .046 2.17-.704 3.078-.568.51-.808 1.422-1.703 1.307-1.138.911-2.945 1.056-4.318.955-5.158.34-9.66-.75-14.386-1.182-.434.093-1.046-.48-1.523-.182-.75-.478-1.558-.044-2.273-.341-.707-.044-1.32.341-1.886-.09-1.091.09-2.09-.137-3.092.133-1.216-.18-2.75.388-3.967.434-2.192.432-4.262.75-6.26 1.51-1.275.057-2.32.807-3.455 1.1-.797.319-1.32.796-2.08.935 0 .475-.373-.049-.51.293-.66.376-1.419.614-2.047.99-1.32.67-2.365 1.648-3.648 2.555-.284.043-.33-.146-.464-.282 0-1.17.51-2.41 1.33-3.41 1.26-2.366 3.498-4.73 5.102-6.73-.044-.466.567-.466.614-.898 2.614-3.41 6.023-6.297 8.91-9.092-1.66-1.885-4.454-2.125-6.547-3.08-.547-.285-1.454-.146-2.08-.51-.987 0-2.033-.204-2.93-.114-.764-.09-1.717-.09-2.511 0-.614.342-1.092.298-1.842.432-1.419.477-2.84.999-4.158 1.52-.342.148-.616.238-1 .192-.092-.374.524-.91.794-1.283.206-.75 1.228-1.092 1.66-1.66.715-.613 1.43-1.27 1.931-2.03 1-.376 1.523-1.33 2.433-1.75.272-.523.613-.615 1.091-.807 1.126-.658 2.183-1.613 3.362-2.135.794-.037 1.318-.706 2.08-.842.373-.242 1.033-.39 1.465-.718 1.375-.99 3.115-1.033 4.546-1.841 1-.192 1.932-.432 2.93-.672.67-.374 1.524-.237 2.32-.33 1.33-.24 2.659-.24 4.022-.24 1.046-.477 2.366.434 3.603.102.33.42 1.103.184 1.511.228.66-.761.568-1.737 1.136-2.644.477-2.638 1.43-5.16 1.384-7.957l-.055-1.844c.295-.235-.046-.43.101-.713.75-2.033.568-4.352 1.454-6.25 1.57-1.18 3.84-.897 5.693-.703 1.286.408 2.647.976 3.875 1.68"/><path fill="#FFF" d="M48.372 210.653c3.68 1.669 6.953 4.034 10.5 6.273.42-.114.524.406.898.406 2.42 1.479 5.261 2.434 7.772 3.886.466-.044.764.568 1.26.33 2.522 1.193 5.273 1.804 7.728 2.988.24-.09.614 0 .852.183 1.99.57 3.988 1.239 6.058 1.433.101.364.341-.044.579.184.895.296 1.94.386 2.737.861 1.387.092 2.75.409 3.932 1.036.82-.284 1.57.185 2.32.284 1.612 0 3.228.42 4.839.478.226.42.567-.058.796.182l2.275.342v.043c1.523.137 2.942.229 4.498.388 1.613.182 3.457.046 5.067.092 1.092.044 2.65.229 3.84 0 2.694.273 5.627 0 8.421-.295.568.385 1.046-.272 1.66-.046 2.081.046 3.83-.524 5.773-.42.24-.478.806-.148 1.147-.342 1.318-.286 3.023-.228 4.249-.703 1.569-.102 3.046-.58 4.592-.714.192.25.34.044.478-.043 2.554-.478 4.68-.66 7.16-1.182.328-.185.658-.42 1.023-.228 1.954-1.057 4.317-1.147 6.408-1.955 2.126-.75 4.249-1.648 6.432-2.273 1.091-.57 2.374-.91 3.454-1.456 2.76-1.283 5.546-2.656 8.103-4.272.431-.044.614-.521 1.137-.464 1.286-.955 2.841-1.421 4.17-2.42 2.511-1.046 6.296-2.751 8.717-.284.09 1.329 0 2.467-.058 3.83-.238.093 0 .296 0 .432-.044.388-.182.942-.134 1.373h-.046c-.146.898.046 2.033.046 2.933.09 2.555.134 4.558 1.09 6.773.135.524.184 1.048.43 1.669.047.614.75 1.068.66 1.83.66.86.465 2.03 1.228 2.84-.24.43.377.614.238 1.147.764 1.18.852 2.544 1.036 3.93-.046.137-.184.227-.228.27-1.669-2.03-4.602-1.179-6.635-.747-7.91 2.933-15.06 7.477-22.818 10.793-3.275 1.694-6.776 2.467-10.274 3.637-7.069 1.763-14.262 3.046-21.605 3.75-9.556.66-19.034.136-28.647-.852-3.16-.284-6.113-.897-9.18-1.615-.843.092-1.706-.374-2.511-.478-4.352-.898-8.51-2.218-12.785-3.408-2.974-.942-5.907-1.934-8.954-2.887-3.92-1.126-7.714-2.32-11.557-3.921-2.305-1.045-4.488-1.853-6.863-2.797-2.169-.614-4.126-1.943-6.431-2.326l-.102-.185c-.431.42-.614-.339-1.091-.145-1.796-.614-3.591-.808-5.343-.046-.385-.102-.191-.566-.147-.808.33-1.421.851-2.603 1.285-3.965.478-.387.524-.909.706-1.375 2.227-5.351 3.545-10.952 3.704-17.01.182-.614 0-1.364.365-1.931-.136-.66.237-1.33.092-2.045.432-.24.715-1.456 1.669-1.456.715-.046 1.601-.162 2.273.046.655-.21 1.133.314 1.712.452"/><path fill="#FFF" d="M37.131 230.654c.148.092.194-.16.342 0-.286.556-.67 1.034-.764 1.648-1 2.84-2.557 6.205-2.273 9.42.431.625.136 1.523.704 2.047.909 3.637 5.157 5.203 8.58 5.637 3.217.75 6.147 1.454 9.362 2.024.478.192 1.045.388 1.523.146 1.08.431 2.23.763 3.17 1.421.342.102.525.478.956.342.556.657 1.364 1.271 1.274 2.213-.24.944-1.364 1.195-2.125 1.511-.866.16-1.387.049-2.193.298-5.296.568-10.682-.898-15.851-1.373-.33 0-.99-.614-1.283 0-2.5-.48-4.786-.044-7.092-.33-1.103.182-2 .044-3.09.33-2.273.238-4.68.808-6.82 1.694-.52.385-1.227-.046-1.702.521-2.273.82-4.59 1.819-6.672 3.09-.533-.101-.761.603-1.239.603.568-1.83 2.329-3.067 3.409-4.782 1.476-.935 2.09-2.545 3.41-3.59.432-.797 1.42-1.422 1.715-2.228.33-.274.66-.57.851-.842l.047.044c.272-.764 1.181-.956 1.363-1.66.67-.477 1.147-.816 1.66-1.384l.101-.272 3.127-2.659c.182-.431-.191-.704-.57-.886-1.387-.568-2.557-1.67-4.022-2.045-.102-.341-.478-.138-.524-.431-.91-.09-1.943-.565-2.898-.93-.762-.254-1.738-.254-2.5-.625-.385.42-.625-.478-.999 0-.718-.284-1.421 0-2.125-.42-1.796.237-3.556.18-5.271.701l.07-.226c1.555-.91 2.704-2.386 4.398-3 1.329-.886 2.829-1.798 4.216-2.453 4.456-2.467 9.614-3.932 14.681-4.205 1.793.127 3.409.079 5.054.651m162.99 1.466c3.545.987 6.817 2.739 10.124 4.216 2.51 1.453 5.218 2.93 7.352 5.056.24.094.478.284.614.524-5.36-1.15-11.18-.24-15.817 2.513-.99.182-1.945.805-2.614 1.569v.284a23 23 0 0 1 2.231 2.215c3.566 2.989 6.545 6.298 9.293 9.616.75 1.092 1.546 1.853 2.172 3.081.477 1 1.193 1.943 1.804 2.85-.613.272-.807-.658-1.329-.727-5.035-2.728-10.285-4.966-16.015-5.774-4.59-.295-8.523-.295-12.933.229-.796.113-1.751 0-2.591.295-.432-.136-.955.238-1.523.092-.524.34-1.138-.046-1.703.238-2.797.044-6.012.388-8.719.145-1.283-.613-2.884-.713-3.692-2.044.24-.704.15-1.796 1.138-1.932 2.51-1.897 6.159-1.841 9.194-2.658 4.308-.568 8.464-.889 11.829-3.739 1.045-1.511 2.797-2.554 3.092-4.396.658-1.76 1.135-3.547.842-5.411.09-.748-.387-1.544-.706-2.308-.614-1.43-.941-2.942-1.747-4.315 3.261-.623 6.434.184 9.704.38"/><path fill="#B2B2B2" d="M40.973 239.744c1.694.614 3.557 1.09 5.354 1.6 2.41.955 5.068 2.328 7.625 3.262 1.931.764 3.83 1.761 5.908 2.23.24.385.865.203 1.149.567.328-.094.614.183.932.296-.226.793-.5 1.599-.796 2.409.092.941-.522 1.555-.568 2.554-.09.058-.046.197-.046.287-1.433-1.613-3.75-2.001-5.638-2.753-4.693-.75-9.341-1.364-13.876-2.749-.044-.408-.567-.138-.851-.318-1.228-.912-3.081-1.807-3.556-3.501-.238-.522-.852-1.09-.467-1.76.513-.626.513-1.806 1.468-1.806.33-.466 1.17-.138 1.648-.466.58.194 1.147.282 1.714.148m149.924 1.556c0 .999.614 1.806-.431 2.42-.388.658-.102 1.228-.626 1.886-.851 1.294-2.261 2.093-3.694 2.704-.843.764-1.978 1.092-3.113 1.274-.704.25-1.706.478-2.615.568-4.205.999-8.99.75-12.828 3.09-.617 0-.99.457-1.466.704l-.184-.25c-.16-1.172-.614-2.319-.658-3.683 1.318-.387 2.17-1.239 3.498-1.613.797-.524 1.798-1.138 2.797-1.41 2.172-1.477 4.773-2.194 6.91-3.614.48-.046.842-.567 1.317-.66 1.865-.477 2.977-1.749 4.978-1.841 1.613-.658 3.362-1.09 5.056-.702z"/><path fill="#FFF" d="M190.655 243.949h.044l-.1.293h-.046z"/><path d="m55.018 224.654-.145-.025c-.093-.058-.136-.25-.113-.58 0-.33 0-.602-.023-.83-.024-.217-.137-.478-.342-.794a1.8 1.8 0 0 0-.478-.49 1.45 1.45 0 0 0-.59-.272 1.6 1.6 0 0 0-.806.037c-.286.09-.547.229-.761.452a1.65 1.65 0 0 0-.455.891c-.067.293-.044.614.046.942q.139.494.409.953c.159.307.364.625.59.941q.326.478.649.921c.397.6.692 1.159.898 1.669.182.477.216 1.02.101 1.613a3.34 3.34 0 0 1-1.034 1.797 4.55 4.55 0 0 1-1.908 1.09c-.73.217-1.42.251-2.07.124-.886-.191-1.57-.457-2.068-.819-.478-.376-.817-.715-.976-1.057-.17-.34-.24-.547-.229-.66.024-.113.102-.25.252-.406.136-.16.365-.42.704-.764.341-.33.533-.545.59-.602.23.044.365.136.398.295q.048.238 0 .692c-.192 1.512.33 2.41 1.546 2.647.41.095.807.07 1.193-.043.408-.137.727-.34.999-.637a1.85 1.85 0 0 0 .475-1.747q-.102-.43-.341-.843c-.24-.413-.353-.567-.59-.911-.227-.328-.479-.683-.716-1.048a5.4 5.4 0 0 1-.785-1.703 4.2 4.2 0 0 1-.023-1.682c.113-.446.33-.921.704-1.422.364-.489.886-.874 1.511-1.17.649-.272 1.376-.339 2.216-.159.588.138 1.091.318 1.5.616.408.284.692.568.886.875.191.307.272.535.238.669-.023.148-.171.332-.397.547-.236.233-.589.528-1.055.893m5.308 7.839 2.27-3.205 2.433.272c-.09.136-.25.365-.5.716-.262.332-.592.782-.977 1.343a43 43 0 0 0-1 1.5q-.423.688-.52.967c-.183.521-.093.86.271.976.204.057.432.044.727-.035.287-.101.591-.217.91-.376.318-.16.567-.293.782-.397l-.305.942c-.842.399-1.557.701-2.183.92-.637.217-1.158.238-1.59.102a1.2 1.2 0 0 1-.66-.452c-.182-.206-.295-.478-.318-.82-.044-.33.023-.701.182-1.112l-.023-.046c-1.558.941-2.772 1.285-3.635 1-.433-.146-.715-.43-.886-.843-.159-.409-.136-.979.102-1.692.159-.512.489-1.17.967-1.931.475-.783 1.068-1.604 1.795-2.502l2.365.284-1.783 2.502c-.217.295-.455.68-.75 1.158a7 7 0 0 0-.513.967c-.182.58-.069.953.353 1.1.169.045.42 0 .762-.138a4.4 4.4 0 0 0 1.022-.556c.328-.235.575-.452.702-.644"/><path d="M67.417 232.595c-.521.399-1.045.764-1.59 1.091-.521.342-.999.603-1.41.762l-.286.683.185.078a7.3 7.3 0 0 0 1.43-.68c.194-.125.432-.261.718-.432l.023.058a91 91 0 0 0-4.751 7.022l2.206.499a41 41 0 0 1 1.068-1.706c.319-.487.82-1.18 1.457-2.09.046.092.09.17.136.26.034.08.101.17.182.272.07.102.182.197.295.287.113.092.273.17.478.251.455.203.955.25 1.523.203a5.5 5.5 0 0 0 1.729-.544 6 6 0 0 0 1.58-1.159 5 5 0 0 0 1.08-1.592c.296-.695.365-1.32.206-1.886-.16-.567-.501-.978-1.023-1.195a2.6 2.6 0 0 0-1.26-.17c-.443.043-.978.249-1.58.579l-.023-.047.886-1.216-1.955-.454q-.52.513-1.304 1.126m4.955 6.353c-.478.134-.852.25-1.159.318-.283.07-.431.113-.454.136 0 .044-.023.148-.023.319.023.17.023.25.069.26.08.038.408-.02 1.002-.168a20 20 0 0 0 1.841-.59l.388-.912c-.642.272-1.2.5-1.664.637m-3.139-4.772c.206-.204.432-.34.67-.455.42-.16.764-.203 1.01-.092a.9.9 0 0 1 .455.431c.07.194.092.409.07.66a2.2 2.2 0 0 1-.206.727c-.182.432-.478.91-.91 1.41-.43.499-.885.91-1.384 1.182-.49.272-.941.341-1.33.159a.8.8 0 0 1-.442-.362 3.2 3.2 0 0 1-.206-.727l1.41-1.9c.386-.5.66-.851.863-1.033"/><path d="M78.123 241.56c-.432.07-.852.026-1.274-.145-.432-.192-.75-.49-.92-.91-.183-.42-.206-.874-.08-1.398.58.09 1.182.113 1.796.134q.921 0 1.772-.27c.57-.205.956-.547 1.17-1.045q.135-.343.113-.75a1.43 1.43 0 0 0-.327-.774c-.194-.251-.478-.456-.886-.616-.432-.191-.933-.26-1.48-.226a4.9 4.9 0 0 0-1.647.466 5.3 5.3 0 0 0-1.535 1.078 5 5 0 0 0-1.068 1.546c-.328.794-.365 1.523-.09 2.18.272.65.75 1.127 1.433 1.41q.646.288 1.297.32c.443.025.92-.021 1.442-.134.512-.114 1.103-.321 1.784-.58l.387-.909c-.819.328-1.456.522-1.887.623m-1.251-4.43c.33-.363.66-.626 1-.794.352-.171.66-.204.92-.09q.562.237.24 1.022-.326.75-1.115 1.09c-.521.253-1.144.32-1.885.17l.07-.17c.188-.458.45-.864.77-1.229"/><path d="m80.507 241.49-.887.354.296-.875c.738-.339 1.456-.443 1.83-.793-.397-.388-.51-.797-.351-1.254.046-.133.192-.353.408-.634.204-.298.501-.547.843-.732.353-.203.727-.224 1.137-.064.432.147.547.454.374.92-.113.33-.42.783-.895 1.332.955.235 1.998-.185 3.17-1.25l.765.248-1.524 1.83c-.057.058-.228.273-.521.626-.295.341-.547.67-.775.976a4.3 4.3 0 0 0-.455.796c-.09.272-.09.478-.023.66.07.16.182.27.341.34.183.069.388.069.637.025.226-.07.547-.185.933-.365.385-.184.625-.286 1.477-.727l-.342.944c-1.364.67-1.897.889-2.384 1.048-.49.168-.932.281-1.294.327-.388.037-.716.014-1-.092-.341-.113-.59-.362-.715-.736-.125-.376-.125-.782.046-1.237.145-.408.44-.842.875-1.308a10 10 0 0 1 1.479-1.286l-.025-.044c-.444.09-.93.07-1.477-.037-.51.453-.794.467-1.943 1.009"/><path d="M90.757 237.356a31 31 0 0 0-1.703 2.365 33 33 0 0 0-1.477 2.455c-.41.783-.683 1.456-.819 2.047-.113.432-.16.843-.09 1.228.07.4.182.715.409.976.203.254.489.42.816.5.319.093.66.114 1.002.07.342-.046.727-.185 1.182-.41.477-.218.978-.522 1.523-.898.205.309.41.523.59.673.171.16.386.25.637.319.296.076.58.09.875.044.286-.044.533-.16 1.375-.796l.261-.956c-.782.593-.944.706-1.08.808a2.1 2.1 0 0 1-.545.26 1.34 1.34 0 0 1-.66.024c-.431-.113-.75-.409-.955-.863.41-.363.796-.75 1.147-1.138.353-.385.648-.792.912-1.193.26-.409.42-.762.486-1.034.081-.305.081-.568.012-.782a.54.54 0 0 0-.432-.4c-.33-.101-.692-.02-1.103.229-.42.252-.793.593-1.137 1.048-.34.457-.58.967-.716 1.511a2.7 2.7 0 0 0 .058 1.625c-.342.26-.66.457-.942.59-.286.137-.57.171-.865.09a.65.65 0 0 1-.51-.452c-.09-.228-.09-.51-.011-.842.145-.614.579-1.477 1.216-2.58l1.407-.82c.307-.17.66-.398 1.08-.692.42-.306.831-.636 1.24-.978a8.6 8.6 0 0 0 1.091-1.138c.342-.406.547-.791.649-1.193.09-.364.101-.694.023-.955-.07-.282-.217-.409-.455-.409l-3.035.058c-.41.36-.9.893-1.456 1.609m4.113-.169c-.058.217-.203.48-.453.794-.26.31-.579.625-.955.955-.385.33-.773.649-1.205.956-.42.286-.842.556-1.25.782l-.024-.044c.887-1.48 1.637-2.557 2.274-3.228.613-.66 1.077-.956 1.398-.875.24.058.307.284.215.66"/><path d="M98.61 237.877c.125.102.238.194.33.272q.151.137.319.203c.113.084.251.114.397.15.284.047.623-.011.967-.193-.102.715-.319 1.216-.683 1.502-.363.295-.773.408-1.217.318-.521-.092-.92-.318-1.216-.669a6.1 6.1 0 0 0 1.103-1.583m-1.603 3.773 2.296-.064.092.02-1.33 2.569c-.078.161-.193.364-.306.604-.125.238-.203.42-.25.522-.069.113-.136.284-.226.547a4 4 0 0 0-.182.646 1 1 0 0 0 .037.455c.058.138.145.228.305.253.272.058.547-.011.842-.184.284-.182.66-.455 1.772-1.332l-.182.979c-1.352 1.08-2.024 1.511-2.647 1.784-.625.283-1.068.408-1.352.353-.342-.07-.626-.286-.843-.672-.226-.4-.272-.92-.159-1.59.139-.83.42-1.66.843-2.5a47 47 0 0 1 1.29-2.39"/><path d="M108.404 247.902c-.26.24-.5.399-.692.524-.205.113-.365.159-.499.145-.396-.058-.57-.34-.5-.872.023-.252.136-.66.341-1.207a15 15 0 0 1 .522-1.364l1.022-2.476-.5-.046-1.886.807c-.182-.715-.695-1.089-1.5-1.17-.432-.044-.91.044-1.456.273-.545.228-1.069.567-1.625.999-.544.434-.99.955-1.33 1.546a5 5 0 0 0-.624 1.931c-.07.727.057 1.341.396 1.84.342.5.727.764 1.205.807a2.1 2.1 0 0 0 1.228-.24 5.2 5.2 0 0 0 1.114-.782 12 12 0 0 0 1.023-1.1l.023.02c-.07.478-.093.91-.023 1.295.067.387.191.683.385.897.182.217.443.33.75.365.226.023.512-.023.794-.148.307-.09.59-.249.851-.431.261-.16.58-.386.887-.633.33-.26.579-.456.759-.616l.113-.987c-.242.191-.492.406-.778.623m-3.032-4.602c.125.194.182.48.136.829-.035.341-.136.727-.318 1.207q-.274.715-.681 1.363c-.275.432-.58.776-.886 1.048-.342.272-.66.4-.953.362a.73.73 0 0 1-.568-.339c-.139-.203-.194-.478-.16-.794.047-.524.227-1.103.534-1.751.307-.658.671-1.207 1.08-1.636.431-.457.842-.66 1.25-.617.247.021.43.134.566.328m14.091-5.467c.295 0 .634.081 1.034.229.408.134.736.203 1.056.203.261.025.499-.07.75-.203.229-.136.365-.206.432-.206.092 0 .205.023.365.123.136.092.217.196.217.309-.012.02-.024.064-.044.122-.035.037-.102.113-.192.206-.092.101-.184.216-.286.33-.33.341-.602.773-.808 1.273-.203.499-.385 1.226-.547 2.149-.136.964-.272 1.738-.364 2.34a16 16 0 0 1-.406 1.738 6.7 6.7 0 0 1-.626 1.543 6 6 0 0 1-.999 1.32c-.35.353-.782.66-1.33.898-.558.26-1.16.388-1.843.376-.683 0-1.24-.113-1.694-.318-.455-.217-.782-.455-1-.753-.216-.295-.33-.544-.33-.747 0-.254.16-.503.479-.776a3 3 0 0 0 .399-.293 1.5 1.5 0 0 1 .35-.251.46.46 0 0 1 .227-.081c.205 0 .304.058.341.17.035.137.044.365.044.67 0 .41.092.782.295 1.147.183.362.51.547.954.547.251 0 .454-.044.648-.16.194-.1.342-.228.455-.339.26-.24.468-.547.625-.909q.24-.513.374-1.184c.104-.44.194-.918.284-1.454.08-.521.159-.93.217-1.225.17-.68.339-1.26.523-1.728a6 6 0 0 1 .626-1.253c.24-.363.521-.716.83-1.046.33-.34.74-.748 1.272-1.24l-.034-.031a3.6 3.6 0 0 1-.864.27 4 4 0 0 1-.634.069 1.7 1.7 0 0 1-.5-.079 6 6 0 0 1-.546-.159 11 11 0 0 1-.456-.145 1.5 1.5 0 0 0-1.546.498q-.479.51-.478 1.09c0 .272.044.489.159.625.101.148.238.26.431.408.171.148.252.261.252.353-.012.192-.136.407-.365.658-.237.25-.454.362-.634.362-.206 0-.42-.159-.637-.466a2.1 2.1 0 0 1-.284-1.124c0-.376.102-.796.34-1.253a5.4 5.4 0 0 1 .897-1.271 5.4 5.4 0 0 1 1.228-.979c.457-.228.9-.353 1.343-.353m4.592 5.363 2.123-.547c-.17.547-.318 1.069-.431 1.57a10 10 0 0 0-.261 1.317l.044.026c.431-.568.807-1.048 1.147-1.433.33-.4.715-.773 1.137-1.115.432-.34.852-.533 1.237-.568a1.1 1.1 0 0 1 .568.113.9.9 0 0 1 .408.388c.102.182.171.385.183.614.023.26-.012.614-.102 1.048-.092.431-.217.93-.388 1.523-.159.565-.283 1.01-.353 1.317-.092.31-.122.545-.113.702.023.341.206.524.501.503.203-.025.49-.205.863-.593.362-.35.704-.773 1.057-1.24l.08.98a11 11 0 0 1-1.624 1.647c-.58.48-1.147.727-1.694.764-.339.023-.657-.081-.953-.284-.272-.24-.431-.626-.48-1.182-.023-.318.026-.701.127-1.181.113-.478.26-1.069.466-1.784.203-.715.296-1.147.296-1.262 0-.192-.104-.284-.252-.273q-.543.038-2.386 2.661c-.07.635-.113 1.19-.113 1.639 0 .431.023.909.058 1.453l-1.909.603a19 19 0 0 1-.238-1.819c-.069-.953 0-1.874.183-2.76.194-.918.454-1.85.819-2.827m18.614-6.386q.084-.035.272.068a.9.9 0 0 1 .307.217 2.8 2.8 0 0 0-.445.92q-.135.478-.134 1.226c0 .524.044 1.195.148 2.072.101.773.124 1.5.101 2.135a7 7 0 0 1-.26 1.705c-.148.48-.365.953-.65 1.41-.33.524-.781 1-1.363 1.454-.59.432-1.25.727-2.024.91q-1.162.256-1.908-.185c-.499-.296-.808-.683-.933-1.182-.043-.228-.023-.4.07-.547.124-.205.364-.454.727-.784.35-.319.59-.478.683-.51a.6.6 0 0 1 .295.02.35.35 0 0 1 .16.229c.025.07.045.274.068.637q.034.544.067.694c.16.67.547.953 1.159.817a1.5 1.5 0 0 0 .57-.33c.191-.159.34-.318.454-.487.296-.512.478-1.147.522-1.922.044-.773.023-1.558-.09-2.375a24 24 0 0 1-.113-2.171c.023-.59.08-1.09.182-1.465.093-.388.252-.739.457-1.078.293-.457.614-.82.953-1.069.349-.235.586-.387.725-.408m-1.523-1.58c.683-.16 1.294-.204 1.816-.135.547.053 1 .192 1.387.418.374.205.683.5.955.842.238.342.409.718.501 1.115.113.535.136 1 .09 1.421-.067.42-.217.808-.455 1.182-.136.215-.318.43-.547.625-.205.203-.387.319-.521.351-.26.058-.5-.014-.775-.191q-.138-.075-.137-.185c-.023-.09 0-.182.07-.286.043-.122.124-.26.191-.409q.699-1.329.409-2.554a2.1 2.1 0 0 0-.58-1.069 2.03 2.03 0 0 0-1.047-.524 3.3 3.3 0 0 0-1.237.049 5.4 5.4 0 0 0-2.103.997 4.64 4.64 0 0 0-1.34 1.636c-.273.605-.374 1.138-.273 1.638.093.377.261.637.501.808.134.067.282.125.432.148.159.023.26.07.33.092.055.023.101.113.124.25.033.138-.147.352-.533.66-.399.295-.669.454-.807.498-.261.046-.554-.044-.864-.337a2.13 2.13 0 0 1-.565-1.048c-.113-.457-.113-.932 0-1.456.09-.498.33-1.045.68-1.588a6.1 6.1 0 0 1 1.706-1.818c.695-.529 1.567-.89 2.592-1.13m6.249 9.283-.194.046-.238-.694c.363-.739.591-1.364.67-1.886q-.82-.052-1.057-.738a2.7 2.7 0 0 1-.093-.762c-.023-.35.058-.715.206-1.09.16-.373.431-.624.851-.774.42-.137.716.036.875.489.113.339.145.874.122 1.592.898-.388 1.456-1.39 1.694-2.93l.739-.298-.047 2.395c0 .07 0 .33-.011.782 0 .48 0 .877.023 1.263q.034.559.136.897c.09.273.226.443.388.533a.6.6 0 0 0 .487.044c.17-.057.33-.191.489-.376.16-.191.316-.475.51-.86.194-.377.307-.615.602-1.228l.321.955c-.535 1.103-.83 1.615-1.117 2.047a6.7 6.7 0 0 1-.808 1.068c-.26.273-.533.455-.805.545-.362.127-.704.07-1.045-.125-.319-.203-.58-.533-.727-.999-.136-.4-.183-.93-.136-1.57a10 10 0 0 1 .339-1.921l-.044-.021q-.444.508-1.158.898c-.109.673-.427 1.573-.972 2.718"/><path d="M160.759 238.904c-.044.134-.09.25-.148.362a.76.76 0 0 1-.214.296 1.1 1.1 0 0 1-.388.251c-.35.148-.739.148-1.115-.023 0-.842-.078-1.592-.182-2.261-.113-.649-.272-1.217-.48-1.694-.11-.27-.203-.476-.295-.603-.102-.113-.296-.184-.58-.184-.284-.01-.694.101-1.216.31-.452.19-.886.498-1.306.908a5 5 0 0 0-1.057 1.454c-.284.57-.431 1.205-.466 1.91-.032.682.101 1.397.4 2.115.24.579.523.999.908 1.294.353.293.739.455 1.138.499.385.046.75 0 1.078-.136a2.8 2.8 0 0 0 1.306-1.101c.318-.51.556-1.1.671-1.795.365.055.647.069.852.055a2 2 0 0 0 .623-.145c.26-.104.466-.261.625-.446.171-.203.307-.443.524-1.02l-.374-.92c-.191.53-.26.736-.304.874m-2.899 2.418c-.136.282-.283.441-.463.524-.342.136-.66.079-.967-.17-.307-.261-.547-.614-.737-1.069a7.8 7.8 0 0 1-.523-1.987c-.07-.648 0-1.216.203-1.717.205-.477.524-.817.999-1.02.185-.069.318-.113.388-.094-.501.911-.568 1.807-.203 2.704a3.3 3.3 0 0 0 1.624 1.75c-.08.456-.173.796-.32 1.08"/><path d="M166.258 237.335a2.05 2.05 0 0 1-.953.842q-.647.271-1.297.065a2.14 2.14 0 0 1-1.068-.886c.431-.386.886-.794 1.294-1.237.42-.446.762-.944 1-1.477.251-.547.26-1.069.046-1.57a1.7 1.7 0 0 0-.48-.602c-.203-.16-.478-.251-.783-.272-.318-.035-.669.044-1.057.226-.443.185-.828.5-1.158.935-.342.42-.614.93-.796 1.52a5.7 5.7 0 0 0-.252 1.865c.035.66.16 1.262.42 1.818.351.808.863 1.33 1.523 1.57.67.24 1.341.205 2.033-.104.411-.192.785-.43 1.092-.736.341-.31.614-.683.888-1.15.261-.44.522-1.022.794-1.691l-.408-.92c-.314.825-.6 1.428-.838 1.804m-4.091-2.091c-.044-.478-.012-.91.092-1.272.113-.364.295-.613.568-.726.362-.16.683.011.909.521.203.49.237 1.022.067 1.57-.192.546-.58 1.047-1.182 1.5l-.078-.18a4.8 4.8 0 0 1-.376-1.413"/><path d="M165.907 227.97c0 .762.033 1.616.111 2.59.079.955.217 1.91.397 2.84.185.956.434 1.772.752 2.479q.48 1.089 1.115 1.5c.408.272.773.387 1.112.362.34-.023.635-.09.875-.192.4-.193.83-.547 1.24-1.091.428-.556.874-1.355 1.317-2.41l-.409-.909c-.32.831-.614 1.433-.842 1.83-.217.407-.5.693-.863.861a.85.85 0 0 1-.875-.122c-.284-.206-.533-.524-.713-.944a8.4 8.4 0 0 1-.457-1.205c.194-.59.376-1.207.524-1.876.17-.671.272-1.34.319-2 .069-.67.046-1.33-.058-2.013a7.4 7.4 0 0 0-.554-1.978c-.182-.431-.4-.726-.614-.93q-.34-.29-.614 0l-1.703 1.66c-.048.274-.06.798-.06 1.548m2.534-1.624c.182.373.296.851.362 1.398.07.533.079 1.09.058 1.66q-.035.887-.17 1.638a10 10 0 0 1-.308 1.227l-.043-.025a30 30 0 0 1-.605-3.318q-.172-1.431-.136-2.25c.023-.545.113-.829.228-.887.203-.092.409.088.614.557"/><path d="M171.167 224.903c.145.026.295.046.408.058.136.011.26.011.388 0q.203-.017.408-.102c.272-.136.51-.35.704-.683.305.649.408 1.193.26 1.625-.135.443-.42.738-.85.92-.48.218-.933.255-1.388.114.136-.614.15-1.253.07-1.932m.738 4.032 1.874-1.304.092-.044.298 2.885c.023.182.044.397.067.669.034.26.055.445.078.58.023.112.058.292.125.567.044.25.113.466.191.634.07.171.16.287.287.377a.36.36 0 0 0 .385.032 1.3 1.3 0 0 0 .616-.614c.11-.298.295-.727.478-1.295l.397.91c-.284.863-.605 1.59-.976 2.16-.377.579-.672.932-.942 1.036-.32.136-.672.101-1.068-.102-.4-.194-.727-.614-1-1.239-.339-.764-.556-1.613-.66-2.536a38 38 0 0 1-.242-2.716"/><path d="M183.529 229.018q-.064.203-.146.35a1 1 0 0 1-.216.305 1.2 1.2 0 0 1-.388.229 1.3 1.3 0 0 1-1.112-.014c0-.852-.081-1.602-.183-2.26a8.2 8.2 0 0 0-.466-1.707c-.125-.27-.217-.466-.305-.589-.101-.113-.295-.184-.57-.184-.27-.023-.68.092-1.225.304-.431.197-.875.48-1.306.889-.432.42-.782.898-1.057 1.465-.284.559-.432 1.207-.466 1.888-.058.692.092 1.42.376 2.137q.361.852.91 1.295c.362.293.738.452 1.137.498q.584.068 1.078-.136a2.7 2.7 0 0 0 1.306-1.09c.339-.502.567-1.114.692-1.795.35.058.625.079.852.058.203-.014.408-.058.613-.15.25-.09.467-.25.637-.432.171-.203.293-.454.407-.752l-.386-.92c-.067.267-.134.46-.182.61m-2.908 2.408c-.136.26-.295.429-.466.498-.35.136-.66.09-.965-.159-.295-.252-.547-.614-.727-1.057a8.3 8.3 0 0 1-.523-2.003c-.07-.646 0-1.214.205-1.692a1.8 1.8 0 0 1 1.01-1.047c.195-.067.32-.102.388-.093-.51.91-.579 1.819-.216 2.705.306.782.851 1.364 1.613 1.76-.067.45-.18.804-.319 1.088"/><path fill="#FEC66F" d="m42.85 22.992 6.159-18.058 6.182 18.058 19.078.295-15.26 11.455L64.62 52.97 49.01 41.99 33.416 52.969l5.612-18.227-15.27-11.455z"/><path fill="none" stroke="#000" stroke-width=".692" d="m42.85 22.992 6.159-18.058 6.182 18.058 19.078.295-15.26 11.455L64.62 52.97 49.01 41.99 33.416 52.969l5.612-18.227-15.27-11.455z"/><path fill="none" stroke="#000" stroke-width=".692" d="M49.009 41.99c.078-.35 0-10.5 0-10.5l10 3.248M55.19 22.992l-6.182 8.501V4.934m-25.25 18.353 25.25 8.206-9.979 3.25m25.59 18.226L49.007 31.49l25.262-8.206m-31.42-.293 6.16 8.501-15.59 21.476"/><path fill="#FEC66F" d="m106.577 22.992 6.168-18.058 6.17 18.058 19.08.295-15.26 11.455 5.612 18.227-15.602-10.978-15.612 10.978 5.624-18.227-15.26-11.455z"/><path fill="none" stroke="#000" stroke-width=".692" d="m106.577 22.992 6.168-18.058 6.17 18.058 19.08.295-15.26 11.455 5.612 18.227-15.602-10.978-15.612 10.978 5.624-18.227-15.26-11.455z"/><path fill="none" stroke="#000" stroke-width=".692" d="M112.745 41.99c.058-.35 0-10.5 0-10.5l9.99 3.248m-3.82-11.746-6.17 8.501V4.934M87.497 23.287l25.248 8.206-9.988 3.25m25.59 18.226L112.743 31.49l25.253-8.206m-31.42-.293 6.171 8.501L97.136 52.97"/><path fill="#FEC66F" d="m169.736 22.992 6.182-18.058 6.169 18.058 19.082.295-15.263 11.455 5.626 18.227-15.614-10.978-15.614 10.978 5.624-18.227-15.26-11.455z"/><path fill="none" stroke="#000" stroke-width=".692" d="m169.736 22.992 6.182-18.058 6.169 18.058 19.082.295-15.263 11.455 5.626 18.227-15.614-10.978-15.614 10.978 5.624-18.227-15.26-11.455z"/><path fill="none" stroke="#000" stroke-width=".692" d="M175.918 41.99c.067-.35 0-10.5 0-10.5l9.988 3.248m-3.82-11.746-6.168 8.501V4.934m-25.25 18.353 25.25 8.206-9.988 3.25m25.602 18.226L175.92 31.49l25.251-8.206m-31.435-.293 6.182 8.501-15.616 21.476"/><path d="M196.394 219.072h6.898v1.01h-2.875v7.477h-1.136v-7.477h-2.887zm14.954 8.488v-5.01c0-.261.025-1.33.025-2.126h-.025l-2.384 7.138h-1.137l-2.389-7.113h-.02c0 .773.02 1.842.02 2.103v5.01h-1.115v-8.49h1.639l2.435 7.17h.02l2.41-7.17h1.65v8.49h-1.129"/></svg>