<svg xmlns="http://www.w3.org/2000/svg" xml:space="preserve" baseProfile="tiny" version="1.2" viewBox="5 4 566 566"><path fill="#0067B4" d="M5 287C5.072 130.729 131.728 4.072 288 4c156.271.072 282.928 126.729 283 283-.072 156.271-126.729 282.928-283 283C131.728 569.928 5.072 443.271 5 287"/><path fill="#FFF" d="M9.816 287C9.816 133.388 134.388 8.816 288 8.816S566.184 133.388 566.184 287 441.613 565.184 288 565.184C134.388 565.184 9.816 440.612 9.816 287"/><path fill="#0067B4" d="M94.349 93.35C44.822 142.949 14.2 211.381 14.2 287c0 75.62 30.622 144.052 80.149 193.651C143.948 530.178 212.38 560.799 288 560.799s144.051-30.622 193.579-80.147C531.178 431.052 561.8 362.62 561.8 287s-30.622-144.052-80.221-193.65C432.052 43.823 363.62 13.201 288 13.201S143.948 43.823 94.349 93.35"/><path fill="#A5C2DB" d="M285.915 530.321c-1.365 4.024-4.025 7.115-7.979 8.554-3.307 1.222-8.555 1.294-12.004.144l.287-5.894.575.071c2.084 1.149 4.96 1.438 7.26.862 3.163-.719 4.816-3.378 5.319-6.47-3.019 1.654-6.038 2.373-9.417 1.15-4.241-1.438-5.679-5.392-5.463-9.561.215-4.457 2.803-8.267 7.116-9.704 4.097-1.294 9.776-.574 12.651 2.875 1.078 1.15 1.869 2.66 2.372 4.457 1.081 4.028.578 9.634-.717 13.516m-8.481-15.957c-1.366-.72-2.876-.36-3.954.718-1.007 1.006-1.366 2.73-1.438 4.098-.287 4.816 3.738 6.038 7.62 4.528.144-2.875.79-7.907-2.228-9.344"/><path fill="#FFF" d="M494.445 287c0 114.005-92.44 206.518-206.445 206.518S81.482 401.005 81.482 287 173.995 80.482 288 80.482 494.445 172.995 494.445 287"/><path fill="#A5C2DB" d="m259.606 538.372-19.552-3.02.791-5.104 6.254.935 2.372-15.67-6.253-.935.719-4.816c.935.145 1.797.216 2.731.216.935.072 1.653-.071 2.3-.216.647-.215 1.222-.575 1.653-1.078s.719-1.079.863-1.868l6.541.935-3.738 24.512 6.11.935zM338.462 528.38l-3.954.575 1.006 6.972-7.188 1.007-1.006-6.973-13.012 1.941-.791-5.535 10.28-19.049 7.404-1.078 2.516 17.396 3.953-.575zm-11.933-3.738-1.438-10.063-6.038 11.142z"/><path fill="#0067B4" d="M341.408 348.027c-19.911 33.211-48.952 40.686-53.408 40.686s-33.498-7.475-53.409-40.686c-20.559-34.287-23.937-51.107-23.578-84.173.36-28.825.935-52.187 1.079-58.296h151.815c.144 6.11.719 29.472 1.079 58.296.359 33.066-3.019 49.886-23.578 84.173"/><path d="m285.7 273.27-.432-6.541-11.716 1.222-8.985-9.272-.144-1.869-2.587-2.66h-2.66l-26.381-28.25-4.6 4.384 10.351 12.724c-.791.503-2.372 2.156-3.666 2.731-1.653.719-4.169-2.229-5.248-3.09l-11.285 10.566-.503.432.431.575 7.116 8.626.432.575.575-.503 5.175-4.96-3.81-3.235 3.019-2.587 3.594 3.45 3.307-3.378 2.229 2.084-3.666 3.953 3.522 4.098-2.875 2.516-3.45-2.947-4.313 5.176-.432.503.503.503 6.9 5.679 12.292-11.285c-.862-.935-1.797-1.869-2.659-2.803v-.072c-.288-.288-.144-.575.072-.791.791-.791 2.803-2.157 3.522-2.444 1.653-.719 2.084.791 3.45 2.516.288.359.647.862 1.007 1.438 2.947 4.528 3.666 2.3 6.397 5.103l3.451 3.451-14.017 3.666 6.182 25.805c.288 1.223 1.366 1.654 2.372 2.229 2.947 1.582 6.326 2.444 9.561 3.092l-1.869 2.012c-.935-.215-1.797-.215-2.731-.144-.503 1.222-.935 2.443-1.15 3.738-1.582 1.077-3.235 2.875-5.248 2.516-2.516-.504-5.319.216-7.763.791-.719.144-1.078.216-1.582 0-1.366-.503-2.66-1.868-3.953-2.588-1.869-1.079-4.529-1.582-5.751.575-1.222 2.229-.862 4.672 1.007 6.396 1.365 1.223 3.306 1.366 3.09 3.738a19.6 19.6 0 0 1-.647 2.803c-1.006 3.666-1.869 6.758-2.012 10.711 0 .719.144 1.582-.719 1.94-1.366.503-2.229 1.078-2.588 1.94-.863 1.797.359 5.031 2.229 5.822 3.378 1.582 5.894-1.438 6.613-4.313 5.319.359 10.782.574 16.101-.359.719 1.365 1.653 2.731 2.948 3.45 1.293.72 3.019.575 4.384-.216 1.797-.936 2.732-2.66 1.941-4.672-.935-2.156-2.875-3.163-4.169-4.889-.575-.791.144-2.443.719-3.738.215-.43.359-.791.503-1.149.862-2.3.359-4.457-.144-6.685-.072-.288-.144-.575-.144-.647-.503-2.013.072-3.666.935-5.463.935-.215 2.3-.862 3.235-1.222.503-1.006.431-2.516.575-3.522l5.391-5.463c7.26.72 14.88.72 22.14 0l5.391 5.463c.145 1.007.071 2.517.575 3.522.935.359 2.3 1.006 3.234 1.222.862 1.797 1.438 3.451.935 5.463 0 .072-.072.359-.145.647-.503 2.228-1.006 4.385-.144 6.685.144.358.288.72.503 1.149.575 1.295 1.294 2.947.719 3.738-1.294 1.726-3.233 2.731-4.168 4.889-.791 2.013.144 3.738 1.939 4.672 1.366.791 3.091.936 4.385.216 1.294-.719 2.229-2.085 2.947-3.45 5.318.934 10.782.719 16.102.359.72 2.875 3.235 5.895 6.613 4.313 1.869-.791 3.091-4.024 2.229-5.822-.359-.862-1.222-1.438-2.588-1.94-.862-.358-.719-1.222-.719-1.94-.144-3.953-1.007-7.045-2.013-10.711a20 20 0 0 1-.647-2.803c-.215-2.372 1.726-2.516 3.09-3.738 1.869-1.725 2.229-4.168 1.008-6.396-1.223-2.157-3.883-1.654-5.751-.575-1.293.72-2.587 2.084-3.953 2.588-.503.216-.862.144-1.582 0-2.444-.575-5.247-1.294-7.764-.791-2.013.359-3.666-1.438-5.247-2.516-.216-1.294-.646-2.517-1.149-3.738-.936-.071-1.797-.071-2.731.144l-1.868-2.012c3.234-.647 6.612-1.511 9.561-3.092 1.006-.574 2.084-1.006 2.372-2.229l6.182-25.805-14.017-3.666 3.451-3.451c2.73-2.803 3.45-.575 6.396-5.103.359-.576.719-1.079 1.006-1.438 1.366-1.725 1.798-3.235 3.45-2.516.719.288 2.731 1.653 3.522 2.444.216.215.359.503.071.791v.072c-.862.935-1.797 1.869-2.659 2.803l12.292 11.285 6.9-5.679.503-.503-.432-.503-4.313-5.176-3.45 2.947-2.875-2.516 3.521-4.098-3.666-3.953 2.229-2.084 3.307 3.378 3.594-3.45 3.02 2.587-3.811 3.235 5.175 4.96.575.503.433-.575 7.115-8.626.433-.575-.504-.432-11.285-10.566c-1.078.862-3.594 3.81-5.247 3.09-1.294-.575-2.876-2.229-3.667-2.731l10.351-12.724-4.6-4.384-26.381 28.25h-2.66l-2.588 2.66-.145 1.869-8.984 9.272-11.717-1.222-.433 6.541z"/><path fill="#0075B2" d="M159.762 152.796c2.875 1.726 6.182 3.451 10.423 3.163 4.241-.215 5.032-.215 8.698.575 3.738.791 8.77 2.875 8.77 2.875l2.372-3.666s-.503-3.163-6.326-4.241c-5.822-1.079-10.926-2.157-14.879-4.241-3.954-2.157-6.397-3.235-6.397-3.235v2.444l4.528 4.457h-2.875l-3.235-2.875s-1.582.503-2.084 1.582c-.576 1.078-.289 2.371 1.005 3.162"/><path fill="#A5C2DB" d="M236.676 202.682h1.941l2.372 2.444s-.215 1.293-1.294 2.372-2.372 0-2.372 0l.288-2.66h-2.444s-.791.791-1.868 2.372c-1.007 1.581-2.588 1.581-2.588 1.581s-.288-.791-.575-2.875c-.288-2.157-1.869-3.235-1.869-3.235s-.791 3.235-2.085 4.313c-1.366 1.006-5.032 3.163-5.032 4.744s.216 1.078-3.235 2.66c-3.45 1.581-6.11 2.372-6.11 2.372s-.791 2.156 2.947.791c3.738-1.294 7.188-3.666 7.188-3.666s.791 1.797.503 3.45c-.288 1.582-1.869 3.954-4.529 5.535s-6.11 3.163-6.11 3.163l2.444.287s1.293.288 3.378-1.078c2.157-1.294 4.026-3.163 4.026-3.163s-1.366 1.869-.791 2.947c.503 1.007 1.869.503 0 2.372s-4.025 3.163-5.032 4.241c-1.078 1.078-1.078.791 1.006.791 2.157 0 4.529-1.869 4.529-.288 0 1.725 1.366 2.013.575 3.81-.863 1.941-1.725 3.954-2.804 5.823-.503.935-1.15 2.3-2.013 3.02-.719.646-1.438.359-2.3-.36-1.006-.791-1.653-2.084-2.372-3.163-1.222-1.581-2.947-3.09-3.954-4.888-.503-.862-.791-1.941-1.15-2.875l1.006-4.816 2.372-3.163.288-4.241s-4.528-.287-2.084-5.607c2.372-5.247 2.875-7.691 1.797-8.697-1.006-1.079-2.372-.576-1.293-1.869 1.941-2.444 1.293-6.901 6.11-8.482 4.744-1.653 8.195-2.947 12.724-1.366 4.528 1.582 5.606 1.366 8.769 3.45 3.163 2.157 4.529 2.157 5.319 2.947.791.791 2.084 4.529 2.084 4.529l-2.372 1.294s1.079-1.294.288-2.66c-.791-1.294-3.738-3.163-3.738-3.163l-1.582.575zM159.618 223.888c-.072.215-.072.359-.072.359h.144zM160.05 214.687s.144-.216.431-.432z"/><path fill="#A5C2DB" d="M158.612 216.843c.935 1.51.503 3.594.575 5.32.072 1.078.288 2.587-.718 3.306-1.366.935-3.882-.359-5.319-.719-7.692-2.156-10.854-6.613-18.042-16.173-7.188-9.561 1.366-29.472-3.953-38.745-5.32-9.344-15.168-8.266-25.734 5.535-10.638 13.801-13.01 27.603-17.036 38.529-1.653 4.457-3.091 9.56-4.241 14.017h.072l-2.66 11.501c-.719 3.882-3.307 21.996-3.594 24.512-1.078 8.626-1.797 17.252-3.091 25.807-1.581 10.565-3.953 17.25-3.953 17.25s1.293-.287 6.325-7.979c5.032-7.691 5.319-14.017 6.397-19.048 1.078-5.032 1.294-11.43 1.294-13.514 0-2.157 1.366-3.45 1.078-1.653-.288 1.869.288 7.26-.503 13.873-.144 1.078-.288 2.228-.432 3.307-.072.575-.647 2.013-.144 2.444.719.718 3.81-3.091 4.241-3.666 1.869-2.372 4.529-7.404 4.529-7.404.719-2.66 2.301-5.104 3.81-7.333 1.079-1.581 2.229-3.378 3.594-4.815.503-.504 1.079-1.007 1.654-1.51.431-.359.862-.719 1.222-1.079 1.006-.935 2.013-1.725 3.019-2.587 1.078-.647 2.013-1.438 2.875-2.372 2.156-2.085 3.234-7.404 3.234-7.404s.503 4.241 3.451 6.613c2.875 2.443 5.535-.216 5.535-.216s-2.875 3.954 1.366 5.823 6.901-1.582 6.901-1.582-1.869 5.823 2.875 6.326c4.815.575 5.606-1.006 5.606-1.006s1.078 3.954 4.529 3.954 5.247-2.66 5.247-2.66v2.66s.575.791 3.235.503c2.66-.215 3.163-1.869 6.326-6.11 3.235-4.241 5.607-9.488 7.763-12.435 2.085-2.948 5.535-4.241 9.489-6.11 4.025-1.869 6.9 0 7.188 2.947.288 2.875-.288 5.248 3.163 5.823 3.522.503 5.104-2.372 5.104-2.372s-1.078 2.085-1.078 6.325 1.581 6.398 3.737 7.476c2.085 1.006 1.797-2.444 1.797-2.444l1.869-1.581-.503 5.032 3.163 4.241 2.156 1.869s-.288-3.163.216-5.535c.575-2.444 3.737-2.947 3.737-2.947l-1.869 7.691s0 1.366 2.156 1.582c2.084.288 1.582 3.45 1.869 5.104.215 1.582 2.084 2.085 2.084 2.085l.791-1.582-1.581-4.529 1.869-.791 1.079 5.822 2.084.791 1.582 1.653s-1.006 2.372-.503 3.954c.503 1.581 2.66 1.078 2.66 1.078l-1.078-1.869h1.582l-.791-3.45 1.582-.503v6.325s1.366 2.373 2.157 4.456 0 7.693 0 7.693.503 1.867 1.293 2.371c.791.575 3.235.287 3.235.287l1.869-2.372-.575-3.235.288-3.449 1.582 7.476-2.66 3.163 3.45.504 2.947-4.744-2.156-5.606v-2.66l3.45 9.345-2.084 2.875h2.084l2.157-4.744-.791-4.024-.288-3.163 2.372 7.188-1.293 2.947.791 1.294s1.582-.287 3.163-4.241c1.582-4.024-2.084-11.357-5.822-20.343-3.737-9.057-11.932-18.33-17.251-24.44S205.7 237.26 205.7 237.26s-.216-2.947-.216-6.686c0-.575-.215-1.869.288-2.372.215-.215.503-.215.791-.215.359-.144.719-.288 1.079-.359a4.5 4.5 0 0 0 1.581-.719c.432-.359.719-.791.791-1.294.072-.935-.719-1.797-1.366-2.444-1.293-1.365-1.581-1.581-1.581-6.685 0-5.032.288-2.372 1.293-3.954 1.079-1.582 0-2.66-1.293-3.954-1.366-1.366-2.157-.791-1.869-3.738s-1.078-4.529-2.372-6.11c-1.365-1.581-6.397-1.581-6.397-1.581s5.032-.503 3.163-1.582c-1.797-1.079-3.954-2.157-7.116-2.66-3.163-.575-6.398.503-9.561.288-3.235-.288-4.241-4.025-4.241-4.025v-2.875s2.084 4.241 4.241 4.744c2.084.503 1.581-3.163 1.581-3.163s1.869 3.45 3.954 2.372c2.157-1.078 2.588-3.019 1.869-5.032-.359-1.006-1.582-1.869-2.516-2.3-.934-.503-2.3-.144-3.163.359-.647.359-1.51 1.15-2.3.935-1.438-.359-1.366-3.234-1.582-4.313-.503-3.45-.215-1.366 2.444-3.738 2.66-2.444 2.444-2.66 4.816-1.582 2.444 1.079 2.3-2.084 4.169-2.947 1.869-.791 1.581-1.293 2.66-3.45 1.078-2.085-.504-3.164-.504-3.164s1.294.504 2.588.504c1.366 0 2.157-.504 1.366-1.582-.791-1.006-2.66-3.163-4.241-5.032s-3.163-1.294-4.025.288c-.719 1.582 0 2.875 0 2.875s-3.163.575-5.032 1.366-2.084-.287-2.084-.287 0-1.079 1.078-1.869c1.006-.791-.863-1.007-2.157-.791-1.293.288-1.078 1.365-1.078 1.365l.791 1.869s-1.869-1.079-2.084-2.156c-.288-1.078-2.372-2.372-2.372-2.372s-3.45-.791-5.319-1.582-4.241-1.078-7.476-1.869c-3.163-.791-5.247-1.079-8.77-1.079-4.457 0-5.823 2.66-5.823 7.188 0 4.529 5.032 5.319 5.032 5.319s-3.45 1.582-6.9 4.241-3.163 7.404-3.163 7.404l2.66 2.947s-1.581 2.372-1.869 7.979c-.287 5.535 0 9.273 0 9.273l2.66-.791s.288 2.372.791 8.482c.288 3.019 2.3 5.535 4.744 7.188 1.366.934 3.163 1.15 4.385 2.229.279.217.423.504.567.72"/><path fill="#0075B2" d="M105.419 260.835s1.294-.215 3.163 3.163c1.869 3.451 1.582 6.11 1.582 6.11l-3.163-3.451s-.791 2.947-.791 5.895c0 2.875-.575 6.326-1.868 7.691-1.366 1.294-2.66 2.372-2.66 2.372s.216-1.366.216-4.528c0-3.163-.503-6.613-1.006-3.954-.575 2.66-.791 4.457-1.366 7.116-.503 2.66-1.294 4.313-2.372 7.69-1.079 3.451-1.869 5.824-3.451 7.404-1.581 1.581-3.163 2.156-3.163 2.156s2.084-3.736 2.084-9.057c0-5.249 1.366-11.646 1.366-11.646s2.372-5.248 5.319-8.195c2.876-2.944 6.11-8.766 6.11-8.766"/><path fill="#A5C2DB" d="M126.625 375.99c1.078.359 2.157.503 3.307.574.791 0 1.509-.07 2.156.576a11.4 11.4 0 0 0 4.601 3.234c.862.288 2.731.646 3.594.503.862-.071.503-.862.143-1.869-.575-1.582-1.94-2.013-3.306-2.444-1.725-.502-3.45-1.293-4.098-3.09-.575-1.726-.718-3.666-.862-5.463-.215-5.822.862-9.272 4.313-16.173 3.45-6.899 9.776-11.429 15.886-15.67s6.398-6.397 9.561-10.926c.144-.216.359-.433.503-.72.071-.144.144-.287.215-.502l.431-.504c1.797-3.449 1.222-5.391 1.222-5.391s-4.744.503-7.404.216c-2.66-.216-2.66-1.006-2.66-1.006s2.372.215 6.11.215 8.194-5.821 8.194-5.821-1.007 4.24-2.66 7.188c-.791 1.509-1.222 3.163-1.725 4.744l-.144.503c-.575 1.797-1.293 3.666-2.587 5.392-2.66 3.45-6.11 7.69-6.11 7.69s4.745-3.738 7.404-6.685c2.372-2.517 3.881-4.889 5.103-6.687l.216-.358c.072-.145.215-.289.287-.359 1.294-1.869 1.869-7.692 3.666-11.43 1.869-3.738-1.581-5.033-3.666-8.985-2.156-4.025 5.104-5.606 4.601-9.272-.359-2.301.072-4.744.287-6.973.216-2.301-.071-4.601 1.007-6.685.862-1.869 2.3-3.379 3.522-5.032 1.869-2.444 3.81-4.744 5.751-7.116.431-.575.575-1.078.862-1.725.359-.719 1.078-1.294 1.582-1.869 1.366-1.51 1.366-3.019.431-4.816-2.157-3.954-3.738-1.869-3.738-1.869s2.66-2.66.503-3.737c-2.084-1.007-2.372-2.085-3.45-5.823-1.006-3.666-4.744.575-8.698 3.451-4.025 2.947-6.11 3.45-8.77 7.979s-3.45 6.11-6.397 7.404c-2.875 1.366-5.823 2.66-9.273 7.691-3.451 5.104-7.979 12.724-12.723 22.788-4.816 10.063-5.895 15.67-11.142 19.91-5.319 4.241-10.639.503-12.795-3.953-2.085-4.529 0-8.268 2.66-11.43.719-.861 1.438-2.014 2.444-2.66 1.078-.646 2.587-.646 3.81-.719 1.869-.217 3.666-.432 5.535-.288.432.071 2.373.358 1.941-.575-.791-2.012-6.182-2.3-7.908-2.084-.862.145-4.24 1.15-5.031.791-.575-.288-.934-.431-.216-.791.791-.288 1.725-.503 2.516-.936.935-.43 1.94-.43 2.947-.574 1.006-.145 1.653-.719 2.372-1.366 1.582-1.222 3.307-2.157 4.888-3.235.863-.574 1.653-1.078 2.588-1.293-1.006-1.006-3.234-.935-4.601-.935-2.157 0-4.169.791-5.966 1.941-2.947 1.797-5.535 1.293-5.535 1.293 1.366-1.006 2.875-1.94 4.385-2.802 1.078-.576 2.084-1.15 3.235-1.582.934-.359 2.012-.575 2.875-1.079 1.509-.862 2.587-2.3 3.953-3.306 2.084-1.653 5.606-3.881 4.601-7.117a44 44 0 0 1-2.444 1.438c-1.294.791-2.947.791-4.313 1.438-1.15.575-2.516 2.013-4.025 1.366-1.222-.575-.935-2.3-.863-3.378.144-1.726 1.869-2.803 3.091-3.81 1.653-1.293 3.306-3.234 3.378-5.462 0-3.738-4.025.215-4.888 1.222l-1.941 2.156c-.288.288-1.797 1.51-1.725 1.869-.215-3.378-.647-6.757-1.366-10.063a34.2 34.2 0 0 0-2.013-5.966c-.143-.288-.215-1.294-.503-1.438-.503-.359-1.365.646-1.725.935-.791.719-1.582 1.438-2.3 2.156-.288.288-1.293 1.079-1.222 1.509 0 .216.288.36.503.647.791 1.222 1.006 3.163 1.366 4.601.432 1.797.647 3.666.862 5.535 1.294 10.567-2.66 18.977-7.979 31.771-1.797 4.241-2.013 9.058-.288 13.37a17.83 17.83 0 0 0 6.397 8.123c1.653 1.15 3.307 2.084 5.248 2.443 1.509.289 3.234.145 4.816-.144 2.3-.431 4.744-1.149 6.757-2.517.791-.502 1.51-1.149 2.3-1.652 2.084-1.366 3.666-4.744 5.535-9.271 1.869-4.529 1.078-7.691 2.444-12.508 1.294-4.744 4.241-8.77 6.613-12.652 2.372-3.954 3.954-4.528 3.954-4.528s0 1.869-1.869 4.025c-1.797 2.013-1.797 4.385-3.163 10.279-1.294 5.823.503 9.273 3.45 12.939 2.948 3.737 4.816 5.319 4.816 5.319s-6.11-3.955-7.979-6.613-3.234-3.163-3.234-3.163-1.294 3.666-1.582 6.11c-.216 2.371.288 5.031-.503 11.142-.072.647-.216 1.294-.288 1.868 0 .072-.072.072-.072.145v.145c-1.078 5.031-3.307 8.984-6.829 11.07-3.954 2.443-6.613 2.443-6.613 2.443s-2.947 0-6.397 1.582.575 3.954.575 3.954h3.666l-2.66 2.157s-1.796 1.869-4.24 6.109c-2.372 4.241-3.451 8.194-3.451 8.194l6.685-6.613 2.372 1.581s-1.366 1.294-3.451 3.451c-2.156 2.156-2.947 5.822-2.947 5.822l.575 4.529 5.535-6.613-3.666 10.854.503 5.032 4.745-4.241-2.875 6.9-.791 3.738 2.084 3.738 2.157-.574 2.372 4.24-3.954 1.366s.791.791 2.084 2.372c1.366 1.582 2.372 3.738 2.372 3.738l3.738-.288 1.869-2.156-4.816-9.776 1.869.288 7.188 8.697 3.737-1.868 1.007 1.078-2.372 2.157-3.45 1.293 2.947 1.079s2.659 1.581 5.031.503c2.373-1.006.791-3.45.791-3.45s-.287-1.582-3.45-3.666c-3.163-2.157-5.032-5.822-5.032-5.822l-1.582-4.025s3.45 2.947 5.032 4.529c1.582 1.58 4.528 2.946 4.528 2.946s.503.503 1.869.503c1.293 0 3.45-1.078 3.45-1.078l-.862-3.449-2.588-2.373s-1.653 0-4.816-.287c-3.163-.289-5.032-3.164-5.032-3.164s-2.948.504-5.607-1.077c-2.655-1.585-1.288-3.167-1.288-3.167"/><path fill="#A5C2DB" d="M174.138 288.15s3.954 5.822 8.195 5.822c4.313 0 7.764-.576 10.136 1.078 2.372 1.582 5.032 5.535 5.032 7.691 0 2.084-2.373 3.451-6.398 3.666-3.953.287-7.979.574-11.933-3.954s-5.032-6.397-5.032-9.849z"/><path fill="#A5C2DB" d="M173.635 298.213c1.582 2.085 2.803 4.96 5.679 7.117 2.013 1.438 4.96 2.084 7.332 2.73 2.731.719 5.75.289 8.41-.935.791-.431 2.444-1.797 2.731-.144.216 1.797 2.372 5.822.791 11.645-1.653 5.822-5.894 11.716-3.45 18.042 2.373 6.397 3.163 7.979 8.77 9.849 5.535 1.869 10.567 4.24 10.567 4.24s5.319 2.084 9.561 2.66c4.241.503 6.397 1.294 7.188 2.875.791 1.652-.287 5.32-.287 5.32s-.216 0-2.085-1.869c-1.869-1.797-1.869-.217-4.528-.791-2.66-.503-4.816-1.293-4.816-1.293s1.078 1.078 4.025 1.581c2.875.503 4.241.288 4.241 2.946 0 2.66-.288 3.451-2.157 3.953-1.869.504-2.084-.287-3.666-2.084-1.654-1.869-5.895-3.234-5.895-3.234s.791.287 2.947 2.156c2.084 1.869 2.947 2.66 2.372 4.242-.503 1.58-1.582 3.162-3.451 3.162s-1.293-1.294-2.372-2.875c-1.078-1.652-1.869-1.652-1.869-3.738 0-2.156-.791-4.024-.791-4.024s-.791 4.815-1.078 5.894c-.216 1.008-2.66 0-2.66 0s1.366-2.947-.503-4.24c-1.869-1.365-2.66-.289-2.66-.289s1.869 0 2.157 2.158c.215 2.084-1.078 2.588-1.078 2.588s-2.947 2.443-3.738-.217-.791-4.24-2.372-5.894c-1.581-1.582-2.947-2.084-2.947-2.084s1.582.503 2.372 3.45c.862 2.947-.216 4.24-.216 4.24s-.575-.287-2.947 0c-2.372.289-4.529-.287-2.876-1.869 1.582-1.58 1.007-3.953.216-4.743s-4.241-6.397-4.241-6.397 0 2.156 1.582 5.032c1.581 2.946-.503 5.606-.503 5.606s.791.502-2.372-.289c-3.235-.791-3.45-2.658-3.45-2.658s2.372-1.079 1.869-4.529c-.575-3.449-2.66-6.9-2.66-6.9s2.66 5.104 1.581 7.476c-1.078 2.373-3.45 3.45-3.45 3.45s-1.869-.574-2.66-3.737 1.078-7.403 1.078-7.403l-2.947 1.006s-.503 2.66-3.163 1.869-4.025-2.373-1.366-5.822c2.659-3.451 4.241-6.901 4.025-12.725-.288-5.822-1.582-8.482-3.234-12.22-1.582-3.738-2.373-3.953-1.007-8.481 1.294-4.529 1.582-6.686-.288-7.691-1.869-1.079-4.241-1.653-3.163-3.451 1.009-1.87 3.452-2.661 3.452-2.661"/><path fill="#0075B2" d="M126.912 162.932s5.032-2.947 7.907-1.653c2.947 1.365 5.104 2.156 6.685 4.816s3.45 7.979 2.372 12.723c-1.078 4.816-1.294 9.273-.287 15.67 1.078 6.398.791 10.639 4.241 15.671s4.241 6.11 7.188 7.979c2.948 1.797 4.026 5.823 0 4.241-3.953-1.582-6.11-1.365-10.638-6.397-4.457-5.032-3.45-5.822-5.822-10.351s-1.869-8.194-1.869-8.194l4.025-3.738-4.025.791s0-1.078.288-3.737c.287-2.66.287-5.535.287-5.535l2.085-2.156-3.667 1.582s.791-1.582.504-4.241c-.288-2.66.791-2.875.791-2.875l3.737-4.025-4.815 1.869s-2.372-2.66-.503-3.954c1.869-1.366 3.666-5.032 3.666-5.032l-5.822 3.954s1.366-1.366-.216-2.66c-1.653-1.294-.575-2.372-.575-2.372l1.079-2.156-2.948 1.365z"/><path fill="#D2232A" d="m186.933 178.386-3.522 2.156-.359-2.156zM217.627 371.461l2.947-1.293-3.737 3.953zM225.39 367.725s1.294-.504 2.373-1.582c1.078-1.078 2.084-3.164 2.084-3.164s-.503 2.875-1.581 5.032c-1.079 2.157-2.66 3.163-2.66 3.163zM234.376 365.352s.791-3.164 0-5.319c-.791-2.085-2.084-2.085-2.084-2.085l-.288 4.744zM220.574 301.664l4.242-1.079-3.163-1.293zM224.313 306.982l6.397-4.024-2.444-.791zM230.71 306.695s2.588-2.155 3.379-3.162c.862-1.079.862-2.444.862-2.444l-2.444.287zM235.454 304.827l2.948-4.745-1.87.503zM125.546 400.43l4.026-.862s-.575 2.443-1.654 3.737c-1.006 1.293-2.084 2.372-2.084 2.372zM136.328 405.246s1.941-.359 3.02-1.509c1.078-1.078 1.94-2.804 1.94-2.804h-3.81zM141.864 381.741l-.648-3.595 4.17 4.458zM242.858 208.001l2.444-1.293s-.288 1.581-.288 3.163-1.366 2.947-1.366 2.947-.215-1.869-.215-2.947-.575-1.87-.575-1.87M233.298 208.792l2.156 1.654s-1.581 1.006-2.66 2.084c-1.078 1.078-2.659 1.078-2.659 1.078s.791-1.581 1.582-2.66zM237.611 210.446l2.875-1.078s.288 1.078 0 3.45-3.45 2.875-3.45 2.875.575-1.006 1.078-2.372c.503-1.294-.503-2.875-.503-2.875M144.882 396.117l2.229-5.967-3.81 1.511zM191.103 180.399l-.215-1.869 2.084-1.293s1.582 1.293 3.45 1.078c1.869-.288 4.241-2.947 5.319-2.444 1.078.575 2.947 1.078.288 2.947s-4.241 2.372-6.901 2.157c-2.659-.289-4.025-.576-4.025-.576"/><path fill="#0075B2" d="M416.237 152.796c-2.875 1.726-6.183 3.451-10.423 3.163-4.241-.215-5.032-.215-8.697.575-3.738.791-8.771 2.875-8.771 2.875l-2.372-3.666s.503-3.163 6.326-4.241c5.822-1.079 10.926-2.157 14.88-4.241 3.954-2.157 6.397-3.235 6.397-3.235v2.444l-4.528 4.457h2.875l3.234-2.875s1.582.503 2.085 1.582c.576 1.078.288 2.371-1.006 3.162"/><path fill="#A5C2DB" d="M339.324 202.682h-1.941l-2.372 2.444s.215 1.293 1.294 2.372 2.372 0 2.372 0l-.288-2.66h2.444s.791.791 1.797 2.372c1.078 1.581 2.66 1.581 2.66 1.581s.288-.791.575-2.875c.288-2.157 1.869-3.235 1.869-3.235s.791 3.235 2.084 4.313c1.365 1.006 5.031 3.163 5.031 4.744s-.216 1.078 3.234 2.66c3.45 1.581 6.11 2.372 6.11 2.372s.791 2.156-2.947.791c-3.737-1.294-7.188-3.666-7.188-3.666s-.791 1.797-.503 3.45c.287 1.582 1.869 3.954 4.528 5.535s6.11 3.163 6.11 3.163l-2.444.287s-1.294.288-3.378-1.078c-2.157-1.294-4.025-3.163-4.025-3.163s1.366 1.869.791 2.947c-.504 1.007-1.869.503 0 2.372s4.025 3.163 5.031 4.241c1.078 1.078 1.078.791-1.006.791-2.157 0-4.529-1.869-4.529-.288 0 1.725-1.365 2.013-.575 3.81.862 1.941 1.726 3.954 2.804 5.823.503.935 1.149 2.3 2.013 3.02.719.646 1.438.359 2.3-.36 1.006-.791 1.653-2.084 2.372-3.163 1.222-1.581 2.947-3.09 3.954-4.888.503-.862.791-1.941 1.15-2.875l-1.007-4.816-2.371-3.163-.288-4.241s4.527-.287 2.084-5.607c-2.372-5.247-2.875-7.691-1.797-8.697 1.006-1.079 2.371-.576 1.293-1.869-1.94-2.444-1.293-6.901-6.11-8.482-4.744-1.653-8.195-2.947-12.723-1.366-4.529 1.582-5.607 1.366-8.771 3.45-3.163 2.157-4.529 2.157-5.319 2.947-.791.791-2.084 4.529-2.084 4.529l2.372 1.294s-1.079-1.294-.288-2.66c.791-1.294 3.738-3.163 3.738-3.163l1.582.575zM416.382 223.888c.072.215.072.359.072.359h-.145zM415.95 214.687s-.145-.216-.432-.432z"/><path fill="#A5C2DB" d="M417.388 216.843c-.934 1.51-.503 3.594-.575 5.32-.071 1.078-.287 2.587.719 3.306 1.366.935 3.882-.359 5.318-.719 7.691-2.156 10.854-6.613 18.043-16.173 7.188-9.561-1.365-29.472 3.953-38.745 5.319-9.344 15.167-8.266 25.734 5.535 10.638 13.801 13.01 27.603 17.036 38.529 1.652 4.457 3.091 9.56 4.241 14.017h-.072l2.66 11.501c.719 3.882 3.307 21.996 3.594 24.512 1.078 8.626 1.797 17.252 3.091 25.807 1.581 10.565 3.953 17.25 3.953 17.25s-1.294-.287-6.325-7.979c-5.032-7.691-5.319-14.017-6.397-19.048-1.078-5.032-1.294-11.43-1.294-13.514 0-2.157-1.366-3.45-1.078-1.653.288 1.869-.288 7.26.503 13.873.144 1.078.288 2.228.432 3.307.072.575.647 2.013.145 2.444-.72.718-3.811-3.091-4.241-3.666-1.869-2.372-4.529-7.404-4.529-7.404-.719-2.66-2.3-5.104-3.81-7.333-1.079-1.581-2.229-3.378-3.595-4.815-.503-.504-1.078-1.007-1.652-1.51-.432-.359-.863-.719-1.223-1.079-1.006-.935-2.013-1.725-3.019-2.587-1.078-.647-2.013-1.438-2.875-2.372-2.157-2.085-3.235-7.404-3.235-7.404s-.503 4.241-3.45 6.613c-2.876 2.443-5.535-.216-5.535-.216s2.875 3.954-1.366 5.823-6.9-1.582-6.9-1.582 1.869 5.823-2.876 6.326c-4.814.575-5.605-1.006-5.605-1.006s-1.078 3.954-4.528 3.954c-3.451 0-5.248-2.66-5.248-2.66v2.66s-.575.791-3.235.503c-2.659-.215-3.162-1.869-6.325-6.11-3.234-4.241-5.606-9.488-7.764-12.435-2.084-2.948-5.535-4.241-9.487-6.11-4.025-1.869-6.901 0-7.188 2.947-.288 2.875.288 5.248-3.163 5.823-3.521.503-5.104-2.372-5.104-2.372s1.078 2.085 1.078 6.325-1.581 6.398-3.737 7.476c-2.084 1.006-1.797-2.444-1.797-2.444l-1.869-1.581.503 5.032-3.163 4.241-2.157 1.869s.288-3.163-.215-5.535c-.575-2.444-3.738-2.947-3.738-2.947l1.869 7.691s0 1.366-2.155 1.582c-2.084.288-1.582 3.45-1.869 5.104-.215 1.582-2.084 2.085-2.084 2.085l-.791-1.582 1.581-4.529-1.869-.791-1.079 5.822-2.084.791-1.582 1.653s1.007 2.372.503 3.954c-.503 1.581-2.66 1.078-2.66 1.078l1.078-1.869h-1.582l.791-3.45-1.582-.503v6.325s-1.365 2.373-2.156 4.456 0 7.693 0 7.693-.503 1.867-1.294 2.371c-.791.575-3.234.287-3.234.287l-1.869-2.372.575-3.235-.288-3.449-1.582 7.476 2.66 3.163-3.45.504-2.947-4.744 2.156-5.606v-2.66l-3.45 9.345 2.084 2.875h-2.081l-2.157-4.744.791-4.024.288-3.163-2.372 7.188 1.293 2.947-.791 1.294s-1.582-.287-3.163-4.241c-1.581-4.024 2.085-11.357 5.823-20.343 3.738-9.057 11.933-18.33 17.251-24.44s11.717-13.514 11.717-13.514.215-2.947.215-6.686c0-.575.217-1.869-.287-2.372-.216-.215-.504-.215-.791-.215-.359-.144-.72-.288-1.079-.359a4.5 4.5 0 0 1-1.581-.719c-.432-.359-.72-.791-.791-1.294-.072-.935.719-1.797 1.366-2.444 1.293-1.365 1.58-1.581 1.58-6.685 0-5.032-.287-2.372-1.293-3.954-1.078-1.582 0-2.66 1.293-3.954 1.366-1.366 2.157-.791 1.869-3.738s1.078-4.529 2.372-6.11c1.366-1.581 6.398-1.581 6.398-1.581s-5.032-.503-3.164-1.582c1.797-1.079 3.954-2.157 7.117-2.66 3.163-.575 6.396.503 9.56.288 3.235-.288 4.241-4.025 4.241-4.025v-2.875s-2.084 4.241-4.241 4.744c-2.084.503-1.582-3.163-1.582-3.163s-1.869 3.45-3.953 2.372c-2.156-1.078-2.588-3.019-1.869-5.032.288-1.006 1.582-1.869 2.517-2.3.934-.503 2.3-.144 3.163.359.646.359 1.51 1.15 2.3.935 1.438-.359 1.366-3.234 1.582-4.313.503-3.45.215-1.366-2.444-3.738-2.659-2.444-2.443-2.66-4.815-1.582-2.444 1.079-2.301-2.084-4.169-2.947-1.868-.791-1.581-1.293-2.659-3.45-1.078-2.085.503-3.164.503-3.164s-1.294.504-2.588.504c-1.365 0-2.156-.504-1.365-1.582.791-1.006 2.66-3.163 4.241-5.032s3.163-1.294 4.024.288c.72 1.582 0 2.875 0 2.875s3.163.575 5.032 1.366 2.084-.287 2.084-.287 0-1.079-1.078-1.869c-1.006-.791.863-1.007 2.157-.791 1.293.288 1.078 1.365 1.078 1.365l-.791 1.869s1.869-1.079 2.084-2.156c.288-1.078 2.372-2.372 2.372-2.372s3.45-.791 5.319-1.582 4.24-1.078 7.476-1.869c3.163-.791 5.248-1.079 8.77-1.079 4.457 0 5.823 2.66 5.823 7.188 0 4.529-5.032 5.319-5.032 5.319s3.45 1.582 6.9 4.241c3.451 2.66 3.163 7.404 3.163 7.404l-2.66 2.947s1.581 2.372 1.869 7.979c.288 5.535 0 9.273 0 9.273l-2.66-.791s-.288 2.372-.791 8.482c-.288 3.019-2.3 5.535-4.744 7.188-1.366.934-3.163 1.15-4.385 2.229-.291.215-.435.502-.578.718"/><path fill="#0075B2" d="M470.581 260.835s-1.294-.215-3.163 3.163c-1.869 3.451-1.582 6.11-1.582 6.11l3.163-3.451s.791 2.947.791 5.895c0 2.875.575 6.326 1.869 7.691 1.365 1.294 2.66 2.372 2.66 2.372s-.288-1.366-.288-4.528c0-3.163.574-6.613 1.078-3.954.574 2.66.791 4.457 1.364 7.116.503 2.66 1.294 4.313 2.372 7.69 1.079 3.451 1.869 5.824 3.451 7.404 1.581 1.581 3.163 2.156 3.163 2.156s-2.084-3.736-2.084-9.057c0-5.249-1.366-11.646-1.366-11.646s-2.372-5.248-5.318-8.195c-2.876-2.944-6.11-8.766-6.11-8.766"/><path fill="#A5C2DB" d="M449.375 375.99c-1.078.359-2.156.503-3.307.574-.791 0-1.581-.07-2.156.576a11.4 11.4 0 0 1-4.602 3.234c-.861.288-2.73.646-3.594.503-.863-.071-.503-.862-.144-1.869.575-1.582 1.939-2.013 3.307-2.444 1.726-.502 3.45-1.293 4.097-3.09.575-1.726.719-3.666.862-5.463.216-5.822-.862-9.272-4.313-16.173-3.45-6.899-9.776-11.429-15.887-15.67-6.109-4.241-6.396-6.397-9.561-10.926-.145-.216-.359-.433-.503-.72-.071-.144-.145-.287-.215-.502l-.432-.504c-1.797-3.449-1.222-5.391-1.222-5.391s4.745.503 7.404.216c2.659-.216 2.659-1.006 2.659-1.006s-2.371.215-6.109.215-8.194-5.821-8.194-5.821 1.006 4.24 2.659 7.188c.791 1.509 1.222 3.163 1.725 4.744l.145.503c.575 1.797 1.293 3.666 2.588 5.392 2.66 3.45 6.11 7.69 6.11 7.69s-4.744-3.738-7.404-6.685c-2.372-2.517-3.881-4.889-5.104-6.687l-.216-.358a1.5 1.5 0 0 0-.288-.359c-1.293-1.869-1.868-7.692-3.666-11.43-1.868-3.738 1.581-5.033 3.666-8.985 2.157-4.025-5.104-5.606-4.6-9.272.359-2.301-.072-4.744-.288-6.973-.216-2.301.071-4.601-1.007-6.685-.862-1.869-2.3-3.379-3.522-5.032-1.868-2.444-3.81-4.744-5.75-7.116-.431-.575-.574-1.078-.862-1.725-.359-.719-1.078-1.294-1.582-1.869-1.365-1.51-1.365-3.019-.432-4.816 2.157-3.954 3.738-1.869 3.738-1.869s-2.66-2.66-.503-3.737c2.084-1.007 2.372-2.085 3.45-5.823 1.006-3.666 4.744.575 8.698 3.451 4.025 2.947 6.109 3.45 8.77 7.979s3.45 6.11 6.397 7.404c2.875 1.366 5.822 2.66 9.272 7.691 3.451 5.104 7.979 12.724 12.723 22.788 4.816 10.063 5.896 15.67 11.143 19.91 5.319 4.241 10.639.503 12.795-3.953 2.084-4.529 0-8.268-2.66-11.43-.719-.861-1.438-2.014-2.444-2.66-1.077-.646-2.587-.646-3.81-.719-1.869-.217-3.666-.432-5.535-.288-.432.071-2.372.358-1.94-.575.791-2.012 6.182-2.3 7.906-2.084.863.145 4.241 1.15 5.032.791.575-.288.936-.431.215-.791-.791-.288-1.725-.503-2.516-.936-.936-.43-1.94-.43-2.947-.574-1.006-.145-1.652-.719-2.372-1.366-1.581-1.222-3.307-2.157-4.888-3.235-.862-.574-1.653-1.078-2.588-1.293 1.006-1.006 3.233-.935 4.601-.935 2.157 0 4.169.791 5.966 1.941 2.947 1.797 5.535 1.293 5.535 1.293-1.365-1.006-2.875-1.94-4.385-2.802-1.078-.576-2.084-1.15-3.234-1.582-.935-.359-2.013-.575-2.875-1.079-1.51-.862-2.588-2.3-3.953-3.306-2.084-1.653-5.606-3.881-4.602-7.117a44 44 0 0 0 2.444 1.438c1.294.791 2.946.791 4.313 1.438 1.15.575 2.517 2.013 4.026 1.366 1.222-.575.935-2.3.862-3.378-.145-1.726-1.869-2.803-3.091-3.81-1.653-1.293-3.307-3.234-3.379-5.462 0-3.738 4.025.215 4.889 1.222l1.94 2.156c.288.288 1.797 1.51 1.726 1.869.216-3.378.646-6.757 1.365-10.063a34 34 0 0 1 2.014-5.966c.144-.288.215-1.294.503-1.438.503-.359 1.366.646 1.725.935.791.719 1.582 1.438 2.3 2.156.288.288 1.294 1.079 1.223 1.509 0 .216-.288.36-.503.647-.791 1.222-1.007 3.163-1.366 4.601-.432 1.797-.647 3.666-.862 5.535-1.294 10.567 2.66 18.977 7.979 31.771 1.797 4.241 2.012 9.058.287 13.37a17.84 17.84 0 0 1-6.397 8.123c-1.653 1.15-3.307 2.084-5.247 2.443-1.51.289-3.235.145-4.816-.144-2.3-.431-4.743-1.149-6.757-2.517-.791-.502-1.51-1.149-2.3-1.652-2.084-1.366-3.666-4.744-5.535-9.271-1.869-4.529-1.078-7.691-2.443-12.508-1.293-4.744-4.241-8.77-6.613-12.652-2.373-3.954-3.954-4.528-3.954-4.528s0 1.869 1.869 4.025c1.797 2.013 1.797 4.385 3.163 10.279 1.294 5.823-.503 9.273-3.451 12.939-2.947 3.737-4.816 5.319-4.816 5.319s6.11-3.955 7.979-6.613 3.233-3.163 3.233-3.163 1.295 3.666 1.582 6.11c.217 2.371-.286 5.031.504 11.142.071.647.215 1.294.286 1.868 0 .072.072.072.072.145v.145c1.078 5.031 3.308 8.984 6.829 11.07 3.954 2.443 6.613 2.443 6.613 2.443s2.947 0 6.396 1.582c3.451 1.582-.575 3.954-.575 3.954h-3.665l2.659 2.157s1.797 1.869 4.241 6.109c2.372 4.241 3.451 8.194 3.451 8.194l-6.687-6.613-2.371 1.581s1.365 1.294 3.45 3.451c2.156 2.156 2.947 5.822 2.947 5.822l-.575 4.529-5.535-6.613 3.666 10.854-.503 5.032-4.744-4.241 2.875 6.9.79 3.738-2.084 3.738-2.156-.574-2.372 4.24 3.954 1.366s-.791.791-2.084 2.372c-1.366 1.582-2.372 3.738-2.372 3.738l-3.738-.288-1.869-2.156 4.816-9.776-1.869.288-7.188 8.697-3.737-1.868-1.008 1.078 2.372 2.157 3.45 1.293-2.946 1.079s-2.66 1.581-5.032.503c-2.372-1.006-.791-3.45-.791-3.45s.288-1.582 3.45-3.666c3.162-2.157 5.031-5.822 5.031-5.822l1.582-4.025s-3.45 2.947-5.031 4.529c-1.582 1.58-4.529 2.946-4.529 2.946s-.503.503-1.869.503c-1.294 0-3.451-1.078-3.451-1.078l.863-3.449 2.588-2.373s1.653 0 4.816-.287c3.162-.289 5.031-3.164 5.031-3.164s2.947.504 5.607-1.077c2.665-1.585 1.299-3.167 1.299-3.167"/><path fill="#A5C2DB" d="M401.862 288.15s-3.954 5.822-8.195 5.822c-4.313 0-7.763-.576-10.135 1.078-2.372 1.582-5.032 5.535-5.032 7.691 0 2.084 2.372 3.451 6.397 3.666 3.952.287 7.979.574 11.933-3.954s5.032-6.397 5.032-9.849z"/><path fill="#A5C2DB" d="M402.364 298.213c-1.582 2.085-2.805 4.96-5.68 7.117-2.013 1.438-4.959 2.084-7.332 2.73-2.731.719-5.751.289-8.41-.935-.791-.431-2.444-1.797-2.731-.144-.215 1.797-2.372 5.822-.791 11.645 1.653 5.822 5.895 11.716 3.45 18.042-2.372 6.397-3.163 7.979-8.771 9.849-5.534 1.869-10.566 4.24-10.566 4.24s-5.319 2.084-9.561 2.66c-4.24.503-6.396 1.294-7.188 2.875-.791 1.652.288 5.32.288 5.32s.216 0 2.084-1.869c1.869-1.797 1.869-.217 4.528-.791 2.66-.503 4.816-1.293 4.816-1.293s-1.078 1.078-4.025 1.581c-2.876.503-4.24.288-4.24 2.946 0 2.66.288 3.451 2.155 3.953 1.869.504 2.085-.287 3.666-2.084 1.653-1.869 5.895-3.234 5.895-3.234s-.791.287-2.947 2.156c-2.084 1.869-2.947 2.66-2.372 4.242.504 1.58 1.582 3.162 3.451 3.162s1.293-1.294 2.372-2.875c1.078-1.652 1.869-1.652 1.869-3.738 0-2.156.791-4.024.791-4.024s.791 4.815 1.078 5.894c.215 1.008 2.659 0 2.659 0s-1.365-2.947.504-4.24c1.868-1.365 2.659-.289 2.659-.289s-1.868 0-2.156 2.158c-.216 2.084 1.077 2.588 1.077 2.588s2.947 2.443 3.738-.217.791-4.24 2.372-5.894c1.582-1.582 2.947-2.084 2.947-2.084s-1.582.503-2.373 3.45c-.862 2.947.216 4.24.216 4.24s.575-.287 2.947 0c2.372.289 4.527-.287 2.875-1.869-1.582-1.58-1.007-3.953-.216-4.743s4.24-6.397 4.24-6.397 0 2.156-1.582 5.032c-1.58 2.946.504 5.606.504 5.606s-.791.502 2.372-.289c3.234-.791 3.45-2.658 3.45-2.658s-2.372-1.079-1.869-4.529c.575-3.449 2.66-6.9 2.66-6.9s-2.66 5.104-1.582 7.476c1.078 2.373 3.45 3.45 3.45 3.45s1.869-.574 2.66-3.737-1.078-7.403-1.078-7.403l2.947 1.006s.503 2.66 3.163 1.869 4.025-2.373 1.366-5.822c-2.66-3.451-4.241-6.901-4.026-12.725.288-5.822 1.582-8.482 3.235-12.22 1.582-3.738 2.372-3.953 1.006-8.481-1.294-4.529-1.582-6.686.288-7.691 1.868-1.079 4.24-1.653 3.162-3.451-.999-1.87-3.444-2.661-3.444-2.661"/><path fill="#0075B2" d="M449.088 162.932s-5.031-2.947-7.907-1.653c-2.946 1.365-5.104 2.156-6.685 4.816s-3.45 7.979-2.372 12.723c1.079 4.816 1.294 9.273.288 15.67-1.078 6.398-.791 10.639-4.241 15.671s-4.241 6.11-7.188 7.979c-2.947 1.797-4.025 5.823 0 4.241 3.952-1.582 6.109-1.365 10.639-6.397 4.457-5.032 3.45-5.822 5.822-10.351s1.868-8.194 1.868-8.194l-4.024-3.738 4.024.791s0-1.078-.286-3.737c-.288-2.66-.288-5.535-.288-5.535l-2.084-2.156 3.666 1.582s-.791-1.582-.503-4.241c.286-2.66-.791-2.875-.791-2.875l-3.738-4.025 4.814 1.869s2.373-2.66.505-3.954c-1.869-1.366-3.667-5.032-3.667-5.032l5.821 3.954s-1.365-1.366.216-2.66c1.653-1.294.575-2.372.575-2.372l-1.078-2.156 2.947 1.365z"/><path fill="#D2232A" d="m389.067 178.386 3.522 2.156.359-2.156zM358.373 371.461l-2.948-1.293 3.738 3.953zM350.61 367.725s-1.294-.504-2.372-1.582c-1.079-1.078-2.084-3.164-2.084-3.164s.503 2.875 1.582 5.032c1.078 2.157 2.658 3.163 2.658 3.163zM341.624 365.352s-.791-3.164 0-5.319c.791-2.085 2.084-2.085 2.084-2.085l.288 4.744zM355.425 301.664l-4.241-1.079 3.163-1.293zM351.688 306.982l-6.398-4.024 2.445-.791zM345.29 306.695s-2.66-2.155-3.378-3.162c-.863-1.079-.863-2.444-.863-2.444l2.444.287zM340.546 304.827l-2.947-4.745 1.868.503zM450.454 400.43l-4.025-.862s.575 2.443 1.653 3.737a29 29 0 0 0 2.084 2.372zM439.672 405.246s-1.94-.359-3.019-1.509c-1.078-1.078-1.941-2.804-1.941-2.804h3.81zM434.136 381.741l.647-3.595-4.169 4.458zM333.142 208.001l-2.443-1.293s.288 1.581.288 3.163 1.365 2.947 1.365 2.947.216-1.869.216-2.947c-.001-1.079.574-1.87.574-1.87M342.702 208.792l-2.156 1.654s1.581 1.006 2.66 2.084c1.078 1.078 2.66 1.078 2.66 1.078s-.791-1.581-1.582-2.66zM338.389 210.446l-2.875-1.078s-.288 1.078 0 3.45 3.451 2.875 3.451 2.875-.575-1.006-1.078-2.372c-.504-1.294.502-2.875.502-2.875M431.117 396.117l-2.228-5.967 3.81 1.511zM384.897 180.399l.216-1.869-2.085-1.293s-1.582 1.293-3.45 1.078c-1.869-.288-4.241-2.947-5.32-2.444-1.078.575-2.947 1.078-.288 2.947s4.241 2.372 6.901 2.157c2.66-.289 4.026-.576 4.026-.576"/><path d="M274.845 301.089c-2.3-.288-4.6-.719-6.829-1.149-1.366-.289-2.157-.647-2.588-.936-.647-.503-.719-.861-.072-1.294.575-.358 1.582-.791 2.731-1.222 2.516-.647 5.032-1.223 7.547-1.653a79.2 79.2 0 0 1 24.728 0c2.517.431 5.033 1.006 7.549 1.653 1.149.432 2.157.863 2.73 1.222.647.433.575.791-.071 1.294-.432.288-1.223.646-2.588.936-2.229.431-4.528.862-6.829 1.149a100.8 100.8 0 0 1-26.308 0"/><path fill="#FFF" d="M268.304 292.68c-4.529 1.077-8.482 2.516-11.357 4.385l-5.607-23.505 11.501-2.947 1.438 6.613 6.038-1.294-.791-6.11 14.377-1.509.503 6.469h7.188l.504-6.469 14.375 1.509-.791 6.11 6.038 1.294 1.438-6.613 11.501 2.947-5.606 23.505c-2.876-1.869-6.829-3.308-11.356-4.385-12.509-3.02-26.885-3.02-39.393 0"/><path fill="#8B8F9E" d="M303.958 299.292c.575-.144 1.222-.216 1.797-.358 1.222-.216 2.66-.359 2.948-.576.503-.431-2.372-.861-3.883-1.222-1.149-.216-2.371-.503-3.594-.719zM281.531 300.37q6.469.432 12.938 0l-4.888-5.032h-3.163zM270.245 298.934c.575.144 1.222.215 1.797.358l2.731-2.875c-1.222.216-2.444.503-3.594.719-1.51.359-4.385.791-3.882 1.222.289.215 1.726.359 2.948.576"/><path fill="#FFF" d="m295.764 301.664 2.012 2.085c-3.234.215-6.541.358-9.775.358s-6.542-.144-9.776-.358l2.012-2.085a112 112 0 0 0 15.527 0"/><path fill="#FFF" d="M267.514 302.167c-2.66-.575-5.319-1.294-7.548-2.372-2.66-1.15-2.372-1.725.144-2.875 7.476-3.451 17.683-5.176 27.89-5.176s20.414 1.725 27.89 5.176c2.517 1.15 2.804 1.725.145 2.875-2.229 1.078-4.89 1.797-7.548 2.372-.503.144-.936.216-1.438.288l-1.94-1.939c1.006-.217 1.94-.359 2.875-.576 1.365-.287 2.156-.646 2.588-.935.646-.503.719-.862.071-1.294-.574-.359-1.582-.791-2.73-1.222-2.517-.647-5.032-1.222-7.548-1.653a79.3 79.3 0 0 0-24.729 0c-2.516.432-5.032 1.006-7.547 1.653-1.15.432-2.156.862-2.731 1.222-.647.432-.575.791.072 1.294.431.288 1.222.647 2.588.935.935.217 1.869.359 2.875.576l-1.94 1.939a10 10 0 0 1-1.439-.288"/><path fill="#F3CE00" d="m271.683 268.167-8.41-8.698-.216-2.085-1.797-1.797h-2.731l-25.734-27.603-2.659 2.444 10.567 12.795c-1.654.718-3.667 3.306-5.607 4.025-2.013.791-3.954-1.581-5.391-2.731l-9.92 9.272 6.182 7.547 3.451-3.306-3.81-3.307 5.176-4.528 3.594 3.378 3.307-3.45 4.169 4.169-3.666 4.025 3.594 4.169-4.888 4.241-3.235-2.804-2.947 3.522 5.319 4.457 10.279-9.489c-.575-.646-1.582-1.796-1.653-1.796-1.079-1.15-.647-2.084.215-2.875.719-.719 3.235-2.444 3.954-2.803 2.228-.935 3.235.718 5.104 3.019.359.432.719 1.006 1.078 1.582 2.732 4.241 3.307 1.869 6.038 4.672l7.26 7.404-.36-3.091zM307.696 271.618l7.26-7.404c2.731-2.803 3.306-.431 6.038-4.672.358-.575.719-1.15 1.079-1.582 1.869-2.3 2.875-3.953 5.104-3.019.72.359 3.235 2.084 3.953 2.803.863.791 1.294 1.725.216 2.875-.071 0-1.078 1.15-1.652 1.796l10.278 9.489 5.319-4.457-2.947-3.522-3.234 2.804-4.889-4.241 3.595-4.169-3.667-4.025 4.169-4.169 3.307 3.45 3.594-3.378 5.175 4.528-3.81 3.307 3.451 3.306 6.182-7.547-9.92-9.272c-1.438 1.15-3.378 3.522-5.391 2.731-1.94-.719-3.953-3.307-5.606-4.025l10.567-12.795-2.66-2.444-25.734 27.603h-2.731l-1.797 1.797-.217 2.085-8.41 8.698 3.738.359zM239.695 315.896c1.725 1.653 3.81 1.726 3.451 4.959-.072 1.08-.432 2.158-.719 3.235-1.007 3.45-1.725 6.542-1.869 10.136-.072 1.582.072 2.588-1.653 3.234-1.006.432-1.582.791-1.797 1.223-.503 1.149.431 3.449 1.509 3.952 3.091 1.438 4.385-2.372 4.888-4.6 6.11.431 12.005.791 18.043-.359.647 1.222 1.438 3.019 2.731 3.737.934.432 2.228.288 3.235-.287 1.078-.575 1.653-1.51 1.15-2.732-.791-1.939-2.731-3.019-3.954-4.6-1.078-1.509-.215-3.521.575-5.176l.431-1.078c.719-1.941.288-3.811-.215-5.822 0-.144-.072-.359-.144-.719-.575-2.588.215-4.672 1.294-6.973 1.078-.217 2.156-.575 3.163-.936.216-1.006.36-2.156.36-3.234l14.232-14.521c-2.444.144-4.816.358-7.188.72l-10.926 11.213c-.719-.145-1.438-.359-2.157-.359-.431 1.078-.647 2.156-.862 3.234-2.084 1.438-3.882 3.451-6.542 3.09-2.516-.359-5.032.216-7.476.72-.935.216-1.51.287-2.372 0-1.51-.575-2.732-1.94-4.169-2.731-1.078-.574-3.019-1.293-3.81.071-.862 1.657-.574 3.309.791 4.603m19.049 15.096-14.161 3.379 3.522-13.012 14.232-5.104z"/><path fill="#0067B4" d="m312.008 269.245-1.365 6.254-3.379-.647.144-.862zM268.591 273.99l.145.862-3.379.647-1.366-6.254zM318.478 329.842l-2.804-11.358 11.07 4.026 2.66 9.847zM257.522 329.842l2.803-11.358-11.069 4.026-2.66 9.847z"/><path fill="#F3CE00" d="M336.305 315.896c-1.725 1.653-3.81 1.726-3.451 4.959.072 1.08.433 2.158.72 3.235 1.006 3.45 1.725 6.542 1.869 10.136.07 1.582-.072 2.588 1.652 3.234 1.006.432 1.582.791 1.797 1.223.503 1.149-.431 3.449-1.509 3.952-3.091 1.438-4.385-2.372-4.888-4.6-6.11.431-12.004.791-18.043-.359-.647 1.222-1.438 3.019-2.731 3.737-.935.432-2.228.288-3.233-.287-1.078-.575-1.653-1.51-1.15-2.732.791-1.939 2.732-3.019 3.954-4.6 1.078-1.509.216-3.521-.575-5.176l-.432-1.078c-.719-1.941-.288-3.811.216-5.822 0-.144.072-.359.144-.719.575-2.588-.215-4.672-1.294-6.973-1.077-.217-2.155-.575-3.162-.936a16 16 0 0 1-.359-3.234l-14.232-14.521c2.443.144 4.815.358 7.188.72l10.926 11.213c.719-.145 1.438-.359 2.157-.359.431 1.078.646 2.156.861 3.234 2.085 1.438 3.883 3.451 6.542 3.09 2.517-.359 5.032.216 7.477.72.935.216 1.51.287 2.372 0 1.51-.575 2.731-1.94 4.169-2.731 1.078-.574 3.019-1.293 3.81.071.858 1.657.571 3.309-.795 4.603m-19.049 15.096 14.161 3.379-3.522-13.012-14.232-5.104z"/><path fill="#A5C2DB" d="M309.133 537.15c-2.443 2.156-5.535 2.875-8.77 3.019-3.379.144-6.973-.144-10.135-1.438l-.289-6.47.72-.071c2.3 1.294 5.391 2.371 7.979 2.228 1.51-.072 3.307-.288 4.457-1.222 2.156-1.726 1.94-5.535-.863-6.325-1.51-.432-3.234-.288-4.744-.216l-1.293.071-.217-5.318h1.223c1.797-.072 4.529-.145 5.607-1.94.861-1.438.358-3.451-1.223-4.169-1.581-.719-3.953-.503-5.607-.072-1.939.575-3.521 1.366-5.246 2.517h-.575l-.287-6.397c2.803-1.365 6.253-2.155 9.416-2.3 3.522-.216 8.411.288 10.423 3.738.575.934.863 2.012.935 3.233.145 3.378-1.797 6.255-5.104 7.188l.071.287c1.511.144 2.876.575 4.098 1.582 3.666 2.946 2.731 9.128-.576 12.075"/><path fill="#FFF" d="m52.658 366.286 4.744-1.509-.503-1.726q-1.079-3.988-3.666-3.235c-2.085.72-1.941 2.875-1.294 4.601zm10.638-3.378 8.267-2.66c.215-.072.503-.072.718.072.288.144.503.359.575.646l2.229 7.044c.071.216 0 .503-.072.791-.144.288-.36.433-.647.503l-23.865 7.547c-.288.072-.503.072-.791-.07-.288-.145-.431-.288-.503-.575l-3.091-9.776q-.97-3.127-1.294-5.605c-.575-4.602.863-8.194 5.535-9.633 2.875-.935 5.319-.719 7.26.719 2.013 1.438 3.522 3.953 4.601 7.548zM67.394 342.852a1 1 0 0 1-.144.791c-.215.215-.431.359-.719.432l-24.583 4.816c-.288 0-.503 0-.791-.216q-.323-.216-.431-.647l-3.81-19.768a1 1 0 0 1 .144-.791q.215-.323.647-.431l4.96-1.006c.287 0 .575 0 .791.215q.43.215.431.647l2.228 11.43 2.732-.575-1.869-9.776c-.072-.215 0-.503.144-.718.144-.288.36-.432.647-.503l4.888-.936a1 1 0 0 1 .791.145c.288.216.431.432.503.719l1.941 9.704 2.804-.575-2.374-12.293a1 1 0 0 1 .144-.791c.144-.287.431-.358.719-.432l4.96-1.006c.287-.072.503 0 .719.145.288.144.431.43.503.719zM62.146 310.002c0 .288-.072.503-.288.719-.216.217-.431.359-.719.359l-19.192 1.51.503 7.116c.072.647-.36 1.079-.935 1.149l-4.744.359c-.575 0-1.007-.359-1.078-.936l-1.869-23.936c0-.574.359-1.078 1.006-1.15l4.672-.359c.575 0 1.078.432 1.15 1.006l.575 7.117 19.193-1.51c.288 0 .503.072.719.287.288.145.36.359.36.719zM60.924 290.666c0 .575-.503 1.006-1.078 1.006l-25.015-.936c-.575-.071-1.078-.502-1.006-1.077l.719-20.127c.072-.503.503-1.006 1.078-1.006l5.104.215c.503 0 1.006.504 1.006 1.079l-.431 11.645 2.732.072.36-9.919a1.16 1.16 0 0 1 1.15-1.007l4.96.216c.575 0 1.006.431 1.006 1.078l-.288 9.919 2.875.072.431-12.507c.072-.647.575-1.078 1.15-1.006l5.032.144c.575.072 1.006.503 1.006 1.078zM42.522 254.15l5.104.862.719-4.097c.287-1.869.719-5.104-1.869-5.535-2.084-.359-2.804 1.797-3.019 3.45zm11.286 1.653 8.41 1.366c.575.144.935.647.863 1.222l-1.222 7.619c-.144.576-.647.935-1.222.863l-24.728-4.098c-.575-.072-.935-.647-.863-1.15l2.803-17.18c.503-2.947 1.51-5.176 3.163-6.757q2.588-2.48 6.038-1.94c2.588.432 4.313 1.51 5.247 3.307.503 1.007.791 2.157 1.007 3.235.863-1.078 1.941-2.013 3.163-2.66l8.626-3.379c.862-.359 1.582.216 1.438 1.15l-1.438 8.626c-.072.431-.36.719-.719.863l-7.548 2.587c-1.869.647-2.084.503-2.516 3.019zM59.055 222.738l4.96 1.509.647-2.3c.288-.934.359-1.797.071-2.516s-.791-1.222-1.509-1.438-1.438-.144-2.084.288-1.078 1.15-1.366 2.085zm-9.129-2.804 4.097 1.294.647-2.013c.216-.862.216-1.581-.072-2.228-.216-.647-.647-1.078-1.15-1.222-.575-.144-1.15-.072-1.725.288-.575.359-.934 1.007-1.222 1.869zm17.684 13.945c-.144.216-.288.432-.575.575-.216.144-.503.216-.719.072l-24.008-7.188c-.288-.072-.503-.288-.647-.503-.144-.288-.144-.503-.072-.791l4.025-13.371c.36-1.222.791-2.156 1.366-3.019.647-.863 1.294-1.582 2.085-2.157a7.9 7.9 0 0 1 2.66-1.15c.863-.144 1.797-.144 2.803.215 1.222.359 2.228.935 2.947 1.725.791.791 1.294 1.869 1.51 3.163.791-1.006 1.653-1.726 2.516-2.084 1.653-.719 3.45-.791 5.463-.144 2.229.647 3.738 2.013 4.672 4.169q1.186 3.02 0 6.901zM154.515 94.931c3.378.359 7.835-2.372 9.776-5.032l-1.006-1.438-3.019 2.013c-.431.359-1.15.215-1.438-.288l-2.588-3.81c-.288-.503-.144-1.15.359-1.438l9.201-6.182c.504-.359 1.15-.215 1.438.288l6.757 10.063c.216.359.216.935-.072 1.294-2.66 3.307-6.11 6.182-9.632 8.554q-7.116 4.745-12.723 4.529c-3.738-.144-6.901-2.157-9.417-5.966-5.463-8.194-1.582-16.461 5.966-21.493 3.091-2.084 6.613-4.025 10.207-5.104.359-.144.862 0 1.15.287l3.163 3.667c.503.647.288 1.509-.503 1.725-4.672 1.438-11.717 4.169-13.227 9.417-1.077 3.882 1.582 8.411 5.608 8.914M172.557 62.225c.503-.216 1.15 0 1.438.503l3.738 7.835 7.979-3.881-3.81-7.835c-.216-.503 0-1.15.503-1.366l6.901-3.307c.503-.287 1.15-.072 1.366.431l10.998 22.571c.215.503-.072 1.15-.575 1.366l-6.829 3.378c-.503.216-1.15 0-1.438-.503l-4.026-8.338-7.907 3.882 4.025 8.338c.215.503 0 1.15-.503 1.365l-6.901 3.307c-.503.288-1.15.072-1.366-.431l-10.926-22.571c-.216-.504-.072-1.151.503-1.366zM224.24 43.607c-.144-.575.144-1.15.719-1.294l6.9-1.941c.504-.144 1.079.215 1.294.719l4.744 16.964c.862 3.235.288 5.823-1.797 7.835-4.025 3.881-14.376 6.9-19.767 5.606-2.731-.646-4.601-2.731-5.535-6.182l-4.672-16.605c-.215-.503.216-1.15.719-1.294l6.829-1.869a.99.99 0 0 1 1.293.647l3.882 13.729c.432 1.582 1.079 2.516 2.013 3.019 1.869.862 5.966-.288 7.044-2.085.575-.863.575-2.084.144-3.594zM259.031 49.933l-1.869-12.579c-.071-.575.359-1.078.935-1.15l6.685-1.006c.575-.072 1.15.288 1.222.863l3.522 24.871c.144.503-.287 1.078-.862 1.15l-7.691 1.078c-.288.072-.719-.071-.935-.287L248.537 51.3l1.797 12.364c.072.575-.359 1.078-.934 1.222l-6.686.934c-.575.072-1.078-.359-1.222-.862l-3.522-24.799c-.072-.575.288-1.15.863-1.222l7.62-1.078c.287-.072.791.072.934.287 3.881 3.951 7.763 7.833 11.644 11.787M273.623 62.153c-.503 0-.934-.503-.934-1.007l-1.366-25.015c0-.503.288-1.078.862-1.078l6.398-.359c.575-.072.934.431 1.006.934l1.294 25.087c.072.503-.288 1.006-.791 1.078zM291.594 61.578c-.574 0-1.078-.503-1.006-1.006l.503-19.336-7.044-.215c-.647 0-1.078-.503-1.006-1.078l.144-4.672c0-.575.432-1.078 1.006-1.006l23.937.647c.504 0 1.079.503 1.007 1.078l-.144 4.744c0 .575-.503 1.007-1.079 1.007l-7.116-.216-.575 19.264c0 .647-.503 1.078-1.078 1.078zM310.859 62.44c-.575-.072-.936-.575-.863-1.15l3.594-24.799c.072-.575.647-1.006 1.15-.863l19.982 2.875c.575.072 1.006.647.863 1.222l-.719 4.96c-.072.575-.575 1.006-1.15.934l-11.501-1.725-.431 2.803 9.848 1.438c.575.072.935.575.863 1.15l-.719 4.888c-.072.575-.575 1.006-1.15.935l-9.848-1.366-.433 2.875 12.437 1.797c.575.072 1.006.647.861 1.222l-.719 4.96c-.072.575-.575 1.006-1.149.934zM375.481 78.685c-.504-.288-.791-.863-.504-1.438l10.64-22.643c.288-.575.935-.791 1.438-.503l19.265 9.057c.503.216.719.863.431 1.366l-2.156 4.6c-.216.503-.791.791-1.366.503l-11.501-5.391-1.438 2.947 8.554 4.025c.503.216.718.863.503 1.366l-2.228 4.529c-.216.503-.863.718-1.366.503l-8.482-4.026-3.666 7.764c-.215.503-.791.791-1.365.503zM491.642 146.398l-3.594 2.444 1.15 1.725c.719 1.006 2.228 2.084 3.45 1.294 1.294-.863.935-2.588.144-3.666zm-7.979 5.392-4.241 2.947 1.366 1.941c.862 1.294 2.516 2.372 3.954 1.366 1.581-1.006 1.293-2.804.358-4.169zm-13.945-.36c-.358-.431-.215-1.078.216-1.438l20.702-14.161c.432-.288 1.15-.144 1.438.288l7.907 11.573c2.301 3.307 2.876 8.267-.791 10.711-2.084 1.438-4.385 1.653-6.686.431.718 3.235-.503 5.751-3.235 7.62-4.313 2.947-8.912.575-11.572-3.306zM498.759 179.033l2.947 5.751 3.953-5.463zm-3.379 15.526c-.144-.288-.144-.791.072-1.078l2.228-3.091-5.895-11.645h-3.811c-.358 0-.791-.288-.935-.575l-3.234-6.397c-.432-.791 0-1.653.936-1.582l28.752 1.366c.288 0 .791.287.935.575l2.731 5.462c.216.36.144.791-.072 1.15l-16.246 23.218c-.575.719-1.438.647-1.869-.144zM509.972 209.798l4.313 12.364c.216.575-.071 1.15-.647 1.366l-5.606 1.94c-.862.288-1.222-.359-1.51-1.006l-6.899-20.056c-.145-.575.072-1.15.646-1.365l23.723-8.195c.503-.216 1.078.072 1.294.647l2.442 7.116c.145.503-.07 1.15-.646 1.366zM517.448 235.101l2.875 12.795c.071.575-.215 1.15-.791 1.294l-5.822 1.294c-.575.144-1.15-.288-1.222-.791l-4.744-21.134a1.07 1.07 0 0 1 .791-1.294l24.439-5.462a1.07 1.07 0 0 1 1.293.791l1.582 7.332a1.07 1.07 0 0 1-.791 1.293zM523.414 273.773q-1.726 2.373-1.509 6.254c.143 3.091 1.078 6.398 2.443 9.129.288.718-.144 1.438-.935 1.509l-5.176.144c-.433 0-.862-.287-1.006-.646-1.511-3.45-2.086-7.332-2.302-11.141-.288-5.104.72-9.129 2.875-12.148 4.458-6.398 15.456-6.83 20.774-1.366 3.091 3.091 4.169 7.548 4.385 11.717.215 3.522 0 7.188-.935 10.495-.071.359-.503.719-.862.791l-5.104.647c-.791.144-1.365-.575-1.078-1.366 1.294-4.241 2.66-10.926-.935-14.52-2.728-2.733-8.19-2.589-10.635.501M523.198 302.814l-.935 13.082c0 .576-.504 1.006-1.079 1.006l-5.966-.432c-.503-.072-1.006-.574-.935-1.078l1.438-21.637a1.16 1.16 0 0 1 1.15-1.006l25.015 1.725c.575.072 1.006.504.936 1.15l-.503 7.477c0 .574-.575 1.006-1.078 1.006zM536.281 341.486c.574.072.861.647.791 1.223l-1.366 7.044c-.072.504-.647.935-1.222.791l-17.251-3.308c-7.907-1.508-7.333-9.344-6.183-15.525 1.294-6.613 3.522-13.586 11.789-12.004l16.964 3.307c.575.072.936.647.791 1.223l-1.294 6.973c-.144.575-.646.934-1.222.861l-14.017-2.73c-3.308-.574-4.674.862-5.248 4.025-.647 3.091.358 4.816 3.521 5.463zM525.427 362.404l-4.097-1.365-.647 2.013c-.432 1.15-.288 3.019 1.078 3.45 1.438.503 2.588-.791 3.021-2.085zm-9.129-2.947-4.888-1.582-.791 2.229c-.433 1.51-.288 3.451 1.365 4.025 1.797.503 3.02-.719 3.521-2.3zm-8.267-11.285c.144-.574.791-.861 1.294-.719l23.865 7.763c.503.144.791.72.646 1.294l-4.313 13.299c-.936 2.875-3.02 5.605-6.183 6.182-3.451.574-6.686-1.941-7.188-5.248-2.157 2.516-4.889 3.091-7.979 2.085-5.032-1.654-5.966-6.687-4.527-11.214zM124.18 94.428l5.319-4.744c.432-.359 1.15-.288 1.51.144l11.645 13.155c5.319 6.038.072 11.86-4.601 16.03-5.032 4.457-11.069 8.625-16.676 2.3l-11.429-12.867c-.359-.431-.288-1.15.144-1.509l5.319-4.745c.432-.359 1.079-.359 1.438.072l9.488 10.71c2.228 2.516 4.169 2.157 6.613.072 2.3-2.157 2.66-4.097.503-6.542l-9.345-10.495c-.359-.503-.431-1.15.072-1.581M115.914 141.51c-6.11 7.188-13.37 9.92-21.206 3.235-7.763-6.613-6.253-14.305-.072-21.492 6.11-7.188 13.442-9.92 21.206-3.235 7.835 6.685 6.326 14.232.072 21.492m-15.167-13.01c-2.588 3.019-2.947 6.182.215 8.913 3.163 2.732 6.326 1.869 8.914-1.15 2.516-3.019 2.947-6.182-.216-8.914-3.234-2.731-6.325-1.868-8.913 1.151M86.011 165.735l7.188 4.601c.431.288.575 1.006.288 1.438l-4.169 6.469c-.288.503-.935.647-1.438.36l-21.062-13.586c-.503-.287-.647-.934-.359-1.438l9.417-14.592c2.587-3.953 7.26-7.404 11.86-4.385 3.379 2.157 4.098 5.032 3.163 8.554 1.222-.718 2.588-1.15 3.953-1.222l9.273.288c.935.072 1.366.863.863 1.654l-4.744 7.404c-.216.288-.647.503-1.006.431l-8.267-.647c-1.725-.144-1.941-.144-3.163 1.797zM80.62 162.5l2.3-3.45c1.006-1.582 2.731-4.385.503-5.822-1.797-1.15-3.307.575-4.169 1.94l-2.947 4.601zM81.698 195.278c-3.882 8.626-10.135 13.298-19.48 8.985-9.345-4.241-9.992-11.932-6.038-20.558 3.882-8.698 10.135-13.298 19.48-9.058 9.416 4.242 9.992 11.862 6.038 20.631m-18.186-8.266c-1.653 3.594-1.15 6.757 2.66 8.482 3.882 1.797 6.613.072 8.194-3.522 1.654-3.666 1.15-6.829-2.659-8.554-3.81-1.726-6.614 0-8.195 3.594M354.707 51.801l-5.822-1.653-2.875 10.279 5.606 1.581c3.307.863 5.391-.575 6.326-3.81.862-3.09.071-5.534-3.235-6.397m12.292 8.914c-2.084 7.691-9.201 11.501-16.892 9.417l-14.664-4.098a1.07 1.07 0 0 1-.791-1.294l6.685-24.152c.145-.575.791-.863 1.294-.719l13.514 3.738c8.265 2.3 13.298 8.338 10.854 17.108M437.515 118.005c-7.115-6.254-9.775-13.513-3.019-21.277 6.757-7.692 14.376-6.11 21.493.144 7.188 6.254 9.775 13.586 3.019 21.277-6.757 7.763-14.305 6.181-21.493-.144m13.155-15.095c-2.947-2.588-6.182-3.02-8.914.144-2.73 3.163-1.94 6.254 1.078 8.913 2.947 2.588 6.182 3.019 8.985-.144 2.732-3.162 1.87-6.254-1.149-8.913M457.282 135.329l14.521-12.723-4.672-5.391c-.432-.432-.359-1.079.071-1.509l3.594-3.091c.432-.359 1.079-.288 1.438.072l15.741 18.114c.432.432.432 1.079-.071 1.438l-3.522 3.09c-.431.432-1.078.359-1.509-.072l-4.672-5.391-14.521 12.723c-.503.359-1.078.288-1.509-.144l-4.815-5.535c-.433-.432-.648-1.079-.074-1.581M410.631 97.806c-7.979-5.104-11.717-12.004-6.182-20.63s13.298-8.122 21.349-3.019c7.979 5.103 11.573 12.004 6.038 20.63s-13.154 8.123-21.205 3.019m10.782-16.892c-3.378-2.157-6.542-2.084-8.841 1.438-2.229 3.594-1.007 6.542 2.372 8.626 3.307 2.156 6.612 2.156 8.841-1.366 2.301-3.595.935-6.542-2.372-8.698"/><path fill="#8B8F9E" d="M225.247 477.057c-6.398 2.372-12.939 4.744-19.983 7.044-13.299 4.313-32.275 8.123-50.317 8.771-13.658.503-27.387-.503-39.895-6.326 3.666-6.326 5.104-12.363 5.032-19.696-3.881 1.079-7.763 2.66-11.645 4.241-3.451 1.438-6.829 2.804-10.28 3.882-8.481 2.587-16.676 3.954-24.511 3.954-8.41 0-16.03-1.726-23.793-5.032 3.019-7.26 4.457-14.808 2.444-21.779-1.365-4.744-5.104-9.201-6.757-14.018-2.732-7.835.431-14.664 7.62-18.761 5.175-2.947 12.507-4.96 18.402-3.235 5.822 1.653 9.272 6.758 9.416 14.233.072 3.019-.359 6.253-1.078 9.272 8.554-1.51 16.676-4.169 24.799-6.829 3.738-1.223 7.476-2.517 11.429-3.666.503-.145 1.653-.503 2.947-.863 4.385-1.366 9.417-2.875 14.232-3.522 11.142-1.438 17.683 3.811 19.265 10.782 1.293 5.751-.575 11.07-4.098 15.527 2.659-.216 5.391-.503 8.123-.863 12.436-1.797 24.872-5.247 33.425-7.547 8.123-2.229 15.886-4.601 23.505-6.9 58.296-17.826 90.644-17.826 148.94 0 7.619 2.301 15.383 4.673 23.505 6.9 8.555 2.3 20.99 5.75 33.426 7.547 2.73.36 5.463.647 8.123.863-3.523-4.457-5.393-9.776-4.099-15.527 1.582-6.972 8.123-12.22 19.266-10.782 4.815.646 9.848 2.156 14.231 3.522 1.294.36 2.444.719 2.947.863 3.954 1.149 7.69 2.443 11.429 3.666 8.123 2.66 16.246 5.318 24.799 6.829-.719-3.02-1.149-6.254-1.078-9.272.145-7.476 3.595-12.58 9.417-14.233 5.895-1.726 13.227.288 18.401 3.235 7.188 4.097 10.351 10.926 7.62 18.761-1.653 4.816-5.391 9.273-6.757 14.018-2.014 6.972-.575 14.52 2.443 21.779-7.763 3.307-15.383 5.032-23.793 5.032-7.834 0-16.028-1.366-24.511-3.954-3.451-1.078-6.829-2.443-10.279-3.882-3.882-1.582-7.764-3.163-11.645-4.241-.072 7.333 1.366 13.37 5.032 19.696-12.508 5.823-26.237 6.829-39.896 6.326-18.042-.647-37.019-4.457-50.316-8.771-7.044-2.3-13.586-4.672-19.983-7.044-48.231-17.54-77.271-17.54-125.504 0"/><path fill="#FFF" d="M121.234 450.316c2.228 11.356 3.45 24.151-2.013 34.862 9.561 3.953 22.283 5.175 35.582 4.672 17.827-.646 36.444-4.313 49.527-8.626 7.116-2.3 13.585-4.672 19.839-6.973 51.036-18.545 76.626-18.545 127.663 0 6.253 2.301 12.723 4.673 19.839 6.973 13.083 4.313 31.7 7.979 49.527 8.626 13.298.503 26.021-.719 35.581-4.672-5.462-10.71-4.241-23.505-2.013-34.862-.216.071-.359.216-.574.287-9.346 4.457-22.355 4.313-35.224 2.517-12.65-1.797-25.158-5.319-33.784-7.619-8.194-2.229-15.958-4.601-23.576-6.901-57.794-17.61-89.422-17.61-147.215 0-7.62 2.301-15.383 4.672-23.578 6.901-8.626 2.3-21.133 5.822-33.784 7.619-12.867 1.797-25.877 1.94-35.223-2.517-.215-.071-.359-.214-.574-.287"/><path fill="#A5C2DB" d="M173.779 477.128c.719 4.169 3.81 2.3 4.026 3.45.143.646-.216.575-.719.646-2.3.433-3.81.575-4.528.647-1.294.288-3.81.863-4.025.863-.144.071-.719.215-.791-.359-.144-.935 2.587-.719 1.869-4.816l-2.516-14.663c-.575-3.522-3.81-1.51-4.026-2.731-.071-.216 0-.647.791-.791.288-.072 2.084-.216 4.6-.719.503-.072 2.804-.575 5.176-1.006 4.241-.791 8.626.144 9.488 5.031.719 4.098-1.94 7.188-5.894 7.835-3.235.575-3.522-.215-3.594-.358 0-.215 0-.647.359-.718.288 0 .863.07 1.581-.072 4.026-.647 3.667-4.457 3.594-5.319-.144-.862-1.293-5.679-6.397-4.815-1.51.287-1.941 1.006-1.654 2.516zM254.575 438.312c-.288-1.581-.647-1.652-2.013-1.438l-2.804.575c-3.738.718-1.869 4.888-3.378 5.175-.647.144-.647-.647-.647-1.078l-.36-4.457c0-.358-.072-.791.432-.935 3.019-.575 5.319-.862 10.135-1.797 4.816-.936 6.973-1.511 10.063-2.084.503-.145.575.358.719.646l.935 2.947c.144.431.791 1.652-.072 1.797-1.366.216-1.006-3.594-4.816-2.731l-2.804.503c-1.294.288-1.653.504-1.294 2.084l2.875 14.951c.791 4.099 4.888 2.301 5.032 3.235.144.791-.503.791-1.51 1.006-1.294.216-2.444.359-4.601.791-2.228.431-3.307.718-4.6 1.006-.647.145-1.15.288-1.294-.503-.288-1.222 3.738-.432 3.019-4.313zM294.829 449.669c.144 4.313 3.594 2.947 3.666 4.241 0 .431-.288.431-.72.431-1.077.072-3.09 0-4.457 0-1.221.072-2.516.216-4.24.288-.503 0-.646-.144-.719-.36 0-1.149 2.516-.358 2.371-3.594l-.144-6.109c-.071-1.366 0-1.726-1.438-1.726l-8.914.288c-1.582.072-1.653.359-1.653 1.869l.215 5.319c.072 4.169 4.241 2.803 4.313 4.024 0 .216.072.433-1.006.503-1.438 0-2.516-.072-4.96 0-1.366.071-2.803.215-4.528.288-.359 0-.719-.072-.719-.503-.072-1.366 2.875-.216 2.731-4.385l-.432-15.024c-.144-3.666-3.882-2.084-3.953-3.378 0-.503 1.006-.575 1.653-.575 1.006 0 2.012.072 3.81 0 2.013 0 3.307-.216 4.313-.216.431 0 .791.145.791.433 0 1.077-2.587.144-2.516 3.163l.144 5.391c.072.863.215 1.294.935 1.294l9.92-.288c.936 0 1.15-.791 1.15-1.582l-.215-4.744c-.072-3.666-3.667-2.372-3.667-3.307-.072-.647.288-.575.719-.575 1.294-.072 2.229.072 4.313 0 1.726-.072 2.947-.216 4.386-.288.574 0 .719.072.719.359.072 1.294-2.372-.072-2.301 3.234zM307.193 451.394c-.503 4.098 3.449 3.02 3.307 4.098-.072.358-.359.503-1.15.358-1.222-.144-2.442-.431-5.031-.718-1.438-.144-2.947-.216-3.811-.288-.287-.072-.287-.288-.287-.432.143-1.222 2.443-.072 2.803-3.234l1.869-16.029c.359-3.092-3.521-2.589-3.377-3.738.071-.575.935-.359 1.221-.287 1.293.144 2.588.431 3.738.575 1.223.071 2.444.144 4.313.358 1.007.072 1.149.217 1.149.575-.144 1.15-2.516-.358-2.875 2.804zM314.021 449.742c0-.504-.071-1.51.719-1.294.503.071.503.432.575.862.216 3.379 1.51 6.901 5.104 7.835 2.588.575 4.888-.432 5.607-3.091.646-2.73-1.293-3.666-5.967-7.332-2.516-1.94-4.097-3.737-3.233-7.116.934-3.811 4.241-5.895 8.123-4.889 2.66.647 3.666 2.3 4.672 2.517.431.144 1.366-.217 1.797-.072.503.072.288.575.144 1.294l-.719 4.528c-.144.719-.358 1.078-1.078.935-.719-.216.287-6.397-5.318-7.835-2.157-.576-3.954.288-4.457 2.516-.575 2.157 1.149 3.02 5.032 6.11 3.09 2.372 4.887 4.313 3.881 8.481-1.15 4.313-4.889 6.47-9.129 5.392-2.014-.575-3.45-1.725-5.247-2.66-.791-.358-.647-.646-.647-1.438zM349.1 452.185c-.287.791.936 1.15 1.941 1.438 4.888 1.438 5.607-.288 6.182-2.229.936-3.162-.144-6.109-3.45-7.044-1.15-.358-2.157-.646-2.731 1.294zm-2.3-6.972c1.078-3.666-2.804-3.451-2.443-4.672.071-.288.503-.359.862-.288 1.509.503 1.726.719 3.737 1.294 2.157.647 4.385 1.15 6.542 1.797 7.116 2.084 6.396 6.829 5.966 8.338-.646 2.084-1.94 2.947-3.091 3.451-1.15.503-2.157.503-2.3.862 0 .144 1.366 5.679 2.443 10.423.145.575.791.791 1.007.863.359.071.719 0 1.007.071.288.072.431.359.358.575-.288 1.006-2.587 1.078-3.882.72-2.587-.72-3.019-3.092-3.45-5.248l-1.222-5.895c-.288-1.654-.791-2.157-2.444-2.588-1.652-.503-1.581-.215-1.869.863l-1.652 5.606c-1.078 3.45 2.516 3.091 2.229 4.241-.144.288-.432.432-1.149.216-.575-.216-1.438-.575-2.804-1.007-1.725-.503-3.379-.862-4.96-1.294-.358-.144-1.077-.215-.861-.862.288-1.078 2.588.791 3.81-3.307zM426.948 469.365c-.216.144-.791.575-.863.935 0 .288.288.719.719 1.438l5.896 9.057c2.372 3.738 3.881 2.875 3.81 3.738 0 .216 0 .431-.432.359-.719 0-1.582-.216-2.517-.287-.646 0-1.293.07-2.228 0-.647-.072-1.007-.145-1.582-1.079l-6.11-9.633c-.358-.575-.574-1.007-.791-1.007-.288 0-.861.503-1.652 1.294-.575.575-.503.862-.575 1.653l-.288 4.385c-.216 3.091 3.163 2.229 3.091 3.451 0 .288-.144.359-.935.359-.935-.072-1.869-.288-3.738-.433-1.653-.071-3.378-.071-4.457-.144-.575 0-1.007-.072-1.007-.288.144-1.725 2.66.646 3.02-4.457l.936-14.592c.287-4.098-3.379-2.588-3.235-4.098 0-.358.288-.431.719-.431.575 0 1.726.215 4.025.431 1.869.072 3.954.072 4.672.145.288 0 .719.071.647.431-.072 1.366-2.372-.646-2.588 3.091l-.575 7.691c0 .359-.072.791.144.791.216.072.432-.072.862-.503l4.744-4.025c1.007-.935 4.457-3.451 4.528-4.888.072-1.078-2.013-.791-1.939-1.582.072-.575.359-.575.791-.575.358 0 2.66.36 3.666.36.862.072 1.725 0 3.163.072.288.071.861.071.861.646-.07.935-1.077-.144-4.527 2.588zM149.195 484.101c-6.326.145-9.776-2.659-9.92-9.2l-.288-10.998c-.072-2.875-3.522-1.726-3.594-3.02 0-.431.431-.575.719-.575.431 0 2.947.072 4.672.072 1.725-.072 4.097-.288 4.744-.288.288 0 .359.288.359.432 0 1.149-2.875-.504-2.731 4.96l.216 7.332c.144 5.176 1.581 9.417 7.619 9.272 7.261-.216 7.404-6.542 7.261-12.004l-.144-5.895c-.072-3.882-4.241-2.731-4.241-3.954 0-.503.575-.359 1.006-.359 1.007 0 1.869.071 2.804.071 1.15-.071 2.156-.145 3.881-.215.359-.072.575 0 .575.358.072.936-2.373-.215-2.229 3.594l.144 6.613c.217 7.766-1.508 13.588-10.853 13.804M212.236 452.688c-2.013-4.672-4.6-1.868-5.104-3.307-.072-.287 0-.646.359-.719.647-.216 1.294-.288 1.869-.503.862-.288 1.582-.719 3.307-1.294 1.006-.359.718 0 1.509.432l17.54 9.704c.575.359 1.15.575 1.294.503.215-.072.144-.432-.144-1.222l-3.594-10.64c-1.006-2.946-4.672-1.006-5.032-2.085-.072-.215-.072-.574.359-.718.503-.144 1.438-.358 3.667-1.079 2.012-.719 3.09-1.222 3.378-1.293.575-.216.647.072.719.215.287.936-2.66 1.078-1.51 4.457l6.038 17.899c.288.719.359.935 0 1.078-.503.144-.719 0-1.006-.145l-20.99-11.43c-.288-.144-.575-.215-.719-.215-.144.072-.144.288-.072.646l3.666 10.783c2.084 6.183 5.463 2.587 5.966 4.097.144.432-.647.647-1.079.862-1.581.503-2.66.719-3.81 1.15-1.006.288-1.797.719-2.66 1.007-.359.144-.935.503-1.15 0-.432-1.294 2.804-1.797 1.725-5.032l-3.954-11.501a11 11 0 0 0-.572-1.65M208.714 459.661c1.366 4.528 1.653 13.011-8.626 16.03-6.542 1.868-12.148-1.223-14.089-7.764-1.725-6.109 0-11.86 5.463-14.808 6.613-3.594 14.88-1.796 17.252 6.542m-8.123 14.304c5.535-1.653 6.11-6.541 4.529-11.932-1.653-5.607-6.542-10.854-12.651-7.907-4.098 1.941-4.241 6.469-3.02 10.783 1.366 4.744 5.392 10.854 11.142 9.056M412.069 467.496c-.575-.145-.646-.862-.791-1.365-1.078-3.522-3.378-7.045-7.261-7.979-4.815-1.15-8.41 2.804-9.272 7.188-.936 4.602.431 11.717 6.757 13.227 5.176 1.222 8.194-2.517 9.129-2.301.145 0 .431.288.359.432-.288 1.365-4.744 5.463-11.789 3.737-9.704-2.3-9.562-11.069-9.058-13.657 1.15-5.463 5.967-11.861 14.305-9.919 4.025 1.006 6.182 3.594 7.116 3.81.646.144.935-.935 1.365-.791.503.144.359.503.288.935l-.503 5.104c-.07.501-.07 1.723-.645 1.579M384.897 453.12c3.019 2.66 4.385 6.757 3.091 11.501-1.223 4.528-5.392 11.933-15.742 9.129-6.541-1.797-9.704-7.332-7.907-13.945 1.509-5.821 5.679-9.775 11.285-9.848 3.163-.072 6.901 1.15 9.273 3.163M373.54 472.6c5.679 1.438 8.626-2.443 10.136-7.835 1.94-7.188-1.007-12.004-5.248-13.083-5.535-1.438-8.338 2.66-9.632 7.332-1.294 4.745-1.079 12.076 4.744 13.586"/><path fill="#FFF" d="M120.011 463.83c-.144-3.235-.215-6.686-1.222-10.063-1.222-4.169-2.516-7.618 3.091-11.356 3.45-1.94 8.841-3.308 10.279-3.666 3.163-.719 6.326-1.079 9.561-1.223 2.66-.144 5.319-.144 8.123-.071-1.941-9.201-8.698-10.71-16.173-9.705-4.529.576-9.417 2.085-13.729 3.379-.791.215-1.582.503-3.02.862-3.594 1.079-7.476 2.372-11.285 3.594-8.841 2.947-17.827 5.894-27.387 7.26-5.894.936-21.349 1.94-29.04-3.451.647 1.511 1.438 3.02 2.3 4.674.144.286.287.646.431.934 4.457 8.77 4.96 17.971 1.725 27.243 6.326 2.516 13.011 3.667 19.984 3.667 7.547.071 15.455-1.294 23.649-3.811 3.378-1.006 6.685-2.372 9.992-3.737 4.168-1.726 8.408-3.451 12.721-4.53"/><path fill="#A5C2DB" d="m79.182 457.72 5.104 4.17 5.032-4.601-4.242-3.378zM87.089 450.029l5.104 4.169 5.031-4.6-4.24-3.379zM96.362 454.198l5.032 4.241 5.103-4.673-4.24-3.306zM89.174 462.249l5.104 4.169 5.031-4.601-4.24-3.378zM144.739 440.396c-5.751.145-11.286.863-16.892 2.66-4.026 1.223-8.338 3.163-4.744 4.816l.862.431c5.247 2.085 15.023 4.602 20.342 1.726 5.391-2.876 7.98-9.776.432-9.633"/><path fill="#FFF" d="M65.812 440.612c4.169.071 8.194-.217 10.854-.575.863-3.091 1.366-6.469 1.294-9.632 0-.433 0-.863-.072-1.294-2.947 4.097-9.919 5.679-14.592 4.385.575 2.444 1.438 4.816 2.516 7.116"/><path fill="#A5C2DB" d="M62.434 440.469c-.791-1.94-4.097-9.92-1.725-10.423.862-.144 2.372.575 4.744.862 3.307.288 7.979-.791 10.063-3.522 2.731-3.737-.863-7.188-4.457-8.411-5.031-1.652-12.076.503-16.389 2.947-4.457 2.516-8.914 7.548-6.038 12.651 2.085 3.811 7.835 5.393 13.802 5.896"/><path fill="#FFF" d="M455.988 463.83c.144-3.235.216-6.686 1.222-10.063 1.222-4.169 2.516-7.618-3.091-11.356-3.45-1.94-8.841-3.308-10.279-3.666-3.163-.719-6.326-1.079-9.56-1.223-2.66-.144-5.319-.144-8.123-.071 1.869-9.201 8.698-10.71 16.174-9.705 4.528.576 9.416 2.085 13.729 3.379.791.215 1.581.503 3.02.862 3.594 1.079 7.476 2.372 11.286 3.594 8.841 2.947 17.827 5.894 27.387 7.26 5.896.936 21.349 1.94 29.04-3.451-.646 1.511-1.438 3.02-2.3 4.674-.145.286-.288.646-.432.934-4.457 8.77-4.96 17.971-1.726 27.243-6.325 2.516-13.01 3.667-19.983 3.667-7.547.071-15.454-1.294-23.648-3.811-3.378-1.006-6.686-2.372-9.992-3.737-4.169-1.726-8.41-3.451-12.724-4.53"/><path fill="#A5C2DB" d="m496.818 457.72-5.104 4.17-5.032-4.601 4.242-3.378zM488.911 450.029l-5.104 4.169-5.031-4.6 4.24-3.379zM479.638 454.198l-5.032 4.241-5.103-4.673 4.24-3.306zM486.826 462.249l-5.103 4.169-5.032-4.601 4.241-3.378zM431.261 440.396c5.751.145 11.286.863 16.894 2.66 4.024 1.223 8.338 3.163 4.744 4.816l-.863.431c-5.247 2.085-15.023 4.602-20.342 1.726-5.393-2.876-7.98-9.776-.433-9.633"/><path fill="#FFF" d="M510.188 440.612c-4.169.071-8.193-.217-10.854-.575-.863-3.091-1.366-6.469-1.294-9.632 0-.433 0-.863.072-1.294 2.946 4.097 9.919 5.679 14.592 4.385-.575 2.444-1.438 4.816-2.516 7.116"/><path fill="#A5C2DB" d="M513.566 440.469c.791-1.94 4.098-9.92 1.726-10.423-.863-.144-2.372.575-4.745.862-3.307.288-7.979-.791-10.063-3.522-2.732-3.737.861-7.188 4.457-8.411 5.031-1.652 12.075.503 16.389 2.947 4.457 2.516 8.913 7.548 6.038 12.651-2.085 3.811-7.836 5.393-13.802 5.896"/></svg>