<svg xmlns="http://www.w3.org/2000/svg" viewBox="0 0 452.62 562.5"><g fill-rule="evenodd"><path d="M369.159 53.786c-25.15 2.091-40.355 11.364-49.193 25.144-2.473 3.857-4.438 8.058-5.973 12.546l-10.67-4.13-.001.001a1.85 1.85 0 0 0-2.268.804c-6.977 12.099-8.317 23.245-6.665 33.885 1.528 9.842 5.603 19.145 10.115 28.356-.996.417-1.982.932-2.933 1.497-.352-2.198-.97-4.235-1.894-5.99-1.638-3.11-4.193-5.34-7.868-6.09a13.7 13.7 0 0 0-2.862-.262 11.5 11.5 0 0 0-1.504.105c-3.877.551-6.298 2.986-7.726 6.394-1.286 3.067-1.713 6.945-1.677 10.85.018 2.005.156 4.009.359 5.905-.794-.205-1.595-.39-2.454-.397-.31-.002-.589.09-.846.223a2 2 0 0 0-.151-.041 1.875 1.875 0 0 0-2.16 1.536l-4.32 25.603 7.874 32.678 18.567-1.534 10.812 1.64 2.651-1.447 8.03 9.928 31.732 10.737a2 2 0 0 0 .39.025c1.67 1.074 3.758 2.089 6.01 2.896 1.342.481 2.725.893 4.068 1.211q-.536.75-.946 1.513c-1.558 2.887-1.811 5.854-1.209 8.637.584 2.693 1.983 5.199 3.77 7.267.596.689 1.236 1.33 1.905 1.915-2.776 1.102-4.98 2.587-6.631 4.432-2.43 2.717-3.619 6.141-3.619 10.206 0 4.061 1.246 6.897 3.296 8.903 1.425 1.395 3.201 2.34 5.192 2.994a69.3 69.3 0 0 0-5.323 11.179c-1.67 4.511-2.837 9.124-3.58 13.819-.887 5.616-1.153 10.797-1.06 15.995.092 5.088.526 10.155 1.057 15.656-.874 3.984-1.047 7.546-.41 10.456.68 3.096 2.243 5.483 4.804 6.926 3.335 1.879 6.735 1.817 10.178.385 2.822-1.175 5.647-3.295 8.468-6.01a19.5 19.5 0 0 1 2.397 1.733c2.34 2 3.575 4.229 3.826 6.637.26 2.498-.5 5.28-2.15 8.288-1.103 2.008-2.593 4.1-4.435 6.26-.333.36-.524.85-.489 1.379a1.854 1.854 0 0 0 1.973 1.726c6.344-.438 12.178-1.605 17.019-3.872a30 30 0 0 0 .8-.391c4.618-2.333 8.246-5.714 10.444-10.47 2.088-4.516 2.372-9.083 1.629-13.68-.668-4.128-2.167-8.245-3.911-12.358 3.76-5.488 7.259-11.033.197-18.887l-.003.003-.07-.074a1.85 1.85 0 0 0-2.618.007c-4.729 4.772-8.595 5.893-11.984 4.99-3.186-.849-6.177-3.454-9.112-6.552 1.763-2.488 3.146-5.627 3.942-9.921a19.3 19.3 0 0 0 2.695 1.876c1.858 1.057 3.736 1.627 5.533 1.572 2.872-.088 5.441-1.866 7.396-4.957 1.406-2.224 2.512-5.168 3.178-8.656 1.944 1.105 3.906 2.698 5.662 4.796 2.067 2.47 3.839 5.632 4.95 9.507 1.001 3.495 2.357 6.443 3.85 8.156.606.696 1.266 1.225 1.974 1.556.87.408 1.763.505 2.666.246a4.2 4.2 0 0 0 1.617-.9c3.147-2.743 5.285-7.625 5.534-13.644.172-4.155-.55-8.88-2.46-13.827 5.999.853 11.142-.105 15.493-2.628 5.42-3.142 9.51-8.675 12.42-16.116a1.85 1.85 0 0 0-.829-2.39c-6.311-3.325-12.443-6.717-17.146-11.091-4.566-4.248-7.839-9.49-8.69-16.65-.774-6.52-2.759-13.426-5.476-19.957-3.495-8.398-8.214-16.205-13.134-21.794a47 47 0 0 0-1.53-1.658c10.726-3.753 23.484-8.534 23.768-17.81v-.042l.002-.076v-.057c.05-4.814-3.808-7.779-9.006-9.547-4.206-1.43-9.356-2.078-13.787-2.3a13.1 13.1 0 0 1 2.603-3.736c2.382-2.385 5.606-3.729 9.055-4.253 3.547-.538 7.313-.208 10.667.755 3.18.912 5.95 2.377 7.763 4.188a1.85 1.85 0 0 0 2.456.136l.001.001c3.982-3.157 5.884-8.555 6.378-14.32.598-6.967-.873-14.6-3.184-19.272-2.011-4.064-5.347-7.092-9.788-8.922-3.784-1.56-8.365-2.235-13.599-1.925-.374-5.13-1.361-9.143-2.815-12.001-1.932-3.799-4.695-5.71-8.01-5.684-10.89.088-21.633 12.927-33.026 26.706-1.306-10.42-3.63-24.398-11.45-25.525-3.478-.502-6.093 2.313-8.125 6.26-1.132 2.2-2.096 4.757-2.925 7.204-1.96-2.815-4.406-5.316-7.078-7.214q-.72-.51-1.46-.964c2.16-.487 4.31-1.178 6.15-2.12 3.249-1.662 5.604-4.1 5.75-7.581.451-3.928-2.035-6.397-4.703-9.046-.278-.277-.561-.557-.856-.857q-.413-.418-.787-.864c-1.183-1.41-1.781-2.733-1.767-3.945.014-1.12.565-2.256 1.676-3.401 6.286 2.879 12.063 5.064 16.645 5.86 5.618.974 9.64-.078 11.096-4.224 2.85-8.111-4.746-13.992-11.362-18.902 1.967-2.184 3.382-4.13 4.294-6.676l-.007-.001c1.096-3.06 1.389-6.812.942-12.683l-.004-.071a1.855 1.855 0 0 0-2-1.697z"/><path fill="#006599" d="M386.176 335.006c-3.913-1.043-7.32-3.906-10.578-7.305-1.901 1.885-4.054 3.388-6.289 4.912.951 3.321 2.515 6.493 4.406 9.304 2.344 3.483 5.183 6.405 7.978 8.366 6.343 4.45 10.344 9.076 12.35 14.096 1.52 3.8 1.885 7.77 1.246 12.007 2.22-1.719 4-3.863 5.225-6.514 1.743-3.77 1.972-7.633 1.338-11.549-.651-4.03-2.213-8.153-4.002-12.3a1.85 1.85 0 0 1 .115-1.895l.286-.416c2.776-4.043 5.55-8.086 1.977-13.24-5.215 4.67-9.811 5.663-14.052 4.534"/><path fill="#999" d="M355.57 279.83c0 2.944.83 4.927 2.194 6.263 1.415 1.385 3.48 2.18 5.842 2.668a1.849 1.849 0 0 1 1.19 2.805 66 66 0 0 0-6.28 12.615 68.4 68.4 0 0 0-3.405 13.11c-.851 5.387-1.106 10.368-1.016 15.37.053 2.944.226 5.909.47 8.976 3.374-5.57 7.51-8.571 11.48-11.283l.192-.13.52-.356c5.718-3.89 10.915-7.426 12.014-18.904a1.847 1.847 0 0 1 3.195-1.08c1.469 1.586 3.003 2.87 4.505 3.724 1.285.73 2.513 1.126 3.603 1.093 1.566-.048 3.086-1.208 4.366-3.232 1.448-2.29 2.528-5.596 3.02-9.646a1.855 1.855 0 0 1 2.515-1.509c3.128 1.228 6.455 3.515 9.28 6.89 2.377 2.841 4.41 6.46 5.674 10.87.858 2.99 1.946 5.431 3.08 6.734.284.325.535.545.743.643q.07.032.085.029a.6.6 0 0 0 .196-.133c2.418-2.107 4.069-6.031 4.274-10.99.186-4.501-.832-9.804-3.539-15.362a1.852 1.852 0 0 1 2.107-2.609c6.556 1.614 11.953.98 16.305-1.544 4.313-2.5 7.694-6.886 10.238-12.81-6.015-3.2-11.806-6.542-16.46-10.87-5.172-4.81-8.88-10.765-9.85-18.925-.733-6.177-2.624-12.744-5.215-18.972a89 89 0 0 0-3.25-6.946c1.104 17.41-4.948 32.146-14.964 45.24-8.044 10.513-15.002 20.79-21.271 30.97 1.89-10.062 7.505-20.582 14.887-29.865 12.062-15.17 17.883-33.87 16.346-54.686a59 59 0 0 0-4.244-5.477 40 40 0 0 0-3.34-3.399l-.187-.166c-1.586-1.398-3.142-2.48-4.622-3.177 4.08 3.912 6.126 8.707 6.792 13.305.733 5.061-.227 9.925-1.992 13.123-.37.672-.776 1.276-1.21 1.8q-.174.21-.409.46c-3.32 3.538-8.919 4.307-14.972 3.063-5.737-1.18-11.966-4.179-16.942-8.3l-.557-.47c-1.145 1.066-1.924 2.578-2.382 4.522-.657 2.781-.67 6.395-.158 10.797h-.003a1.85 1.85 0 0 1-.628 1.61l-.298.264-.108.1c-1.092 1.01-1.899 2.049-2.463 3.094-1.096 2.032-1.273 4.128-.846 6.1.447 2.06 1.54 4.004 2.944 5.628 1.216 1.406 2.655 2.564 4.105 3.348a1.85 1.85 0 0 1-.441 3.427c-3.82.925-6.617 2.428-8.435 4.46-1.796 2.008-2.675 4.606-2.674 7.74z"/><path fill="#006599" d="M366.111 334.83c-4.111 2.98-8.2 6.766-11.01 14.189-.787 3.522-.963 6.603-.43 9.03.448 2.047 1.422 3.593 2.989 4.475 2.227 1.255 4.553 1.19 6.944.196 2.65-1.102 5.406-3.3 8.22-6.14a1.854 1.854 0 0 1 2.27-.386c1.617.887 3.015 1.842 4.204 2.858 3.104 2.654 4.75 5.702 5.102 9.073.342 3.28-.573 6.783-2.586 10.448a35 35 0 0 1-2.187 3.46c4.207-.56 8.051-1.53 11.333-3.05 1.295-4.823 1.265-9.18-.353-13.226-1.734-4.338-5.31-8.42-11.045-12.444-3.14-2.202-6.315-5.463-8.92-9.337-1.873-2.782-3.457-5.885-4.531-9.146"/><path fill="#999" d="M288.977 143.242a10 10 0 0 1 2.094.19c2.462.504 4.195 2.041 5.329 4.193 1.075 2.042 1.642 4.631 1.794 7.456q-.002.13.013.26.024.53.028 1.072c.023 2.555-.265 5.248-.802 7.878a1.85 1.85 0 0 0 3.625.74c.586-2.87.902-5.824.876-8.647l-.006-.326c1.579-1.078 3.313-2.066 4.969-2.607 1.634-.533 3.165-.622 4.271.164 1.463 1.039 1.437 4.646.637 9.08-.772 4.28-2.324 9.167-4.069 13.45q-.034.075-.063.152c-.85 2.072-1.741 4-2.61 5.642a1.85 1.85 0 1 0 3.277 1.726 65 65 0 0 0 2.223-4.69c3.772.815 4.723 3.179 4.324 5.96-.545 3.811-3.164 8.402-5.348 11.7a1.85 1.85 0 0 0-.195 1.66c1.243 3.365 1.648 6.483 1.37 9.532-.273 3.012-1.219 7.509-2.668 10.642l-3.01 1.642-7.405-1.123c1.948-3.752 2.98-9.729 3.301-14.388.414-5.997-.344-12.328-1.816-17.773-.26-.963-.68-2.46-1.102-3.968-2.281-8.156-4.717-16.86-4.765-27.26a1.848 1.848 0 1 0-3.697.015c.05 10.914 2.552 19.855 4.895 28.232a428 428 0 0 1 1.086 3.939c1.376 5.089 2.085 10.993 1.7 16.569-.326 4.73-1.438 10.701-3.6 14.177-.037.058-.041.125-.07.186l-14.328-.317-6.943-28.807 2.171-23.43c.459.05 2.755.152 3.316.298.894.234 1.79.469 2.76.478a1.85 1.85 0 0 0 1.845-2.111h.003c-.353-2.488-.624-5.259-.648-7.963-.032-3.454.325-6.83 1.401-9.398.934-2.227 2.455-3.81 4.827-4.147a7.5 7.5 0 0 1 1.01-.078z"/><path fill="#006599" d="m303.485 91.375 9.403 3.64c-3.005 10.555-3.894 22.52-3.622 35.214a1.852 1.852 0 0 0 3.113 1.42c3.043-2.841 6.24-5.394 9.805-7.307 3.508-1.883 7.402-3.16 11.906-3.497 3.049-.228 6.33 1.004 9.318 3.127 3.27 2.323 6.151 5.675 8.022 9.37a1.851 1.851 0 0 0 3.476-.166c1.029-3.265 2.33-7.383 3.942-10.513 1.342-2.608 2.819-4.503 4.31-4.288 5.715.824 7.496 15.636 8.627 25.05l.185 1.533h.007a1.849 1.849 0 0 0 3.255.958l2.34-2.819c10.986-13.287 21.33-25.798 30.616-25.873 1.818-.015 3.429 1.218 4.674 3.666 1.4 2.755 2.301 6.885 2.53 12.364q.002.067.009.134a1.85 1.85 0 0 0 2.023 1.662c5.428-.554 10.069-.008 13.75 1.508 3.59 1.479 6.272 3.9 7.874 7.137 2.051 4.147 3.35 11.005 2.808 17.33-.361 4.21-1.54 8.124-3.867 10.676-2.153-1.702-4.945-3.062-8.019-3.944-3.834-1.1-8.151-1.476-12.233-.856-4.178.634-8.131 2.311-11.13 5.312-1.961 1.963-3.495 4.472-4.393 7.602l.004.001a1.849 1.849 0 0 0 1.758 2.355q.493.009 1.097.027c4.42.135 9.862.712 14.154 2.171 3.747 1.274 6.53 3.193 6.498 6.022l-.003.067v.02c-.217 7.07-12.605 11.39-22.489 14.837l-.655.228c-3.754-3.088-7.532-4.734-10.958-4.327a8.5 8.5 0 0 0-2.268.595 1.854 1.854 0 0 0-.18 3.335c1.27.7 2.406 1.478 3.418 2.316 4.15 3.436 6.166 7.88 6.78 12.123.615 4.24-.149 8.24-1.571 10.818a8 8 0 0 1-.818 1.219q-.144.174-.25.287c-2.35 2.504-6.69 2.97-11.534 1.975-5.16-1.062-10.793-3.783-15.32-7.531a33 33 0 0 1-1.536-1.35 1.85 1.85 0 0 0-2.218-.24c-2.663 1.592-4.333 4.158-5.16 7.657-.65 2.761-.766 6.125-.43 10.073a33 33 0 0 1-4.753-1.326c-2.181-.782-4.238-1.765-5.725-2.8-.315-.218-.673-.29-1.03-.295l-30.392-10.285-7.325-9.056c1.678-3.577 2.767-7.03 3.088-10.57.303-3.33-.07-6.698-1.262-10.26 2.282-3.553 4.822-8.266 5.421-12.445.665-4.644-.773-8.589-6.587-9.98 1.496-3.975 2.782-8.277 3.477-12.129 1.042-5.774.717-10.726-2.131-12.749-1.562-1.109-3.336-1.423-5.178-1.21-4.506-9.158-8.61-18.368-10.093-27.92-1.469-9.459-.377-19.364 5.442-30.093z"/><path fill="#999" d="M367.584 57.658c.224 4.287-.046 7.11-.842 9.334v.002l-.007-.002c-.889 2.48-2.518 4.391-4.903 6.899a1.85 1.85 0 0 0 .233 2.76l-.001.001c.487.365.315.23 1.17.864 5.728 4.246 12.589 9.333 10.569 15.082-.71 2.021-3.266 2.43-6.977 1.786-4.475-.776-10.365-3.075-16.828-6.09a1.86 1.86 0 0 0-2.058.335q-.423.36-.822.753c-1.943 1.914-2.908 3.976-2.934 6.155-.026 2.137.862 4.267 2.622 6.366q.44.525.989 1.083c.284.288.586.588.886.886 2.023 2.009 3.908 3.88 3.633 6.056a2 2 0 0 0-.015.172c-.062 1.92-1.602 3.39-3.737 4.483-3.46 1.77-8.322 2.517-11.793 2.666a14 14 0 0 0-2.955-.1c-5.062.379-9.44 1.813-13.384 3.93-2.69 1.444-5.165 3.2-7.512 5.15-.022-17.482 2.455-33.273 10.166-45.297 8.006-12.482 21.787-21.002 44.5-23.274z"/><path fill="#ce9931" d="M331.684 206.027c30.921-16.234 56.659-37.418 73.174-67.404-4.194 21.186-18.705 40.366-46.47 56.968 6.772.487 12.994 2.438 17.802 8.165-10.448-3.025-24.563-2.89-44.506 2.27M343.04 161.95c-.119 17.51-8.828 31.282-19.275 44.199 7.895-16.363 12.146-29.226 13.137-39.043 1.4-13.861-1.332-24.892-7.49-33.518 7.609 6.921 13.718 15.212 13.629 28.361"/><path d="M92.079 60.719c-1.73.033-3.414.25-5.023.653-1.063.267-2.09.611-3.073 1.035-2.524 1.087-2.97 3.628-2.413 6.612.283 1.513.839 3.166 1.474 4.747-7.352.591-16.741 2.021-16.2 11.687.502 8.962 5.896 10.612 12.318 10.252 2.178-.121 4.427-.49 6.617-.857l-.027.132c-1.206 6.062-2.56 12.867 3.097 15.41 3.669 1.65 9.572.972 16.247-1.3a74 74 0 0 0 7.028-2.829c-5.734 6.73-7.745 12.436-9.466 17.317l-.205.579c-4.282-3.675-8.598-7.016-13.184-7.638v.001a1.85 1.85 0 0 0-1.957 1.131c-1.272 3.083-1.925 6.233-2.25 9.393-.207 2.025-.28 4.054-.294 6.073-6.094-3.584-12.606-9.277-17.23-17.41-4.032-7.094-6.627-16.057-6.259-27.114a1.856 1.856 0 0 0-2.163-2.024c-4.183.73-7.672 2.96-10.683 6.22-2.44 2.64-4.554 5.952-6.466 9.676-2.883-2.246-5.879-4.384-8.892-5.993-3.829-2.043-7.675-3.22-11.352-2.715-10.686 1.469-16.145 9.65-18.917 19.629-2.638 9.493-2.8 20.596-2.803 28.792q-.007.122.002.244c.033 4.238 1.147 7.904 3.469 10.622 2.197 2.573 5.414 4.244 9.744 4.695h.003a1.853 1.853 0 0 0 2.088-1.581c.548-3.943 1.236-7.937 2.192-11.965.862-3.632 1.934-7.257 3.307-10.844 6.866-.316 14.077 2.215 20.353 5.853-1.231 1.441-2.629 3.013-4.055 4.616-6.488 7.296-13.51 15.194-11.737 19.563h.005c2.008 5.012 10.33 1.72 18.107-1.356l1.139-.45h-.002c1.083-.428 2.303-1.032 3.586-1.668 3.411-1.69 7.377-3.656 8.51-2.31.593.704 1.023 1.397 1.304 2.076.497 1.198.488 2.36.065 3.464-.477 1.246-1.456 2.464-2.827 3.619-1.835 1.544-4.344 2.957-7.29 4.179-11.458 4.753-19.413 11.952-24.522 20.853-5.507 9.594-7.665 21.126-7.316 33.668-4.215 5.174-7.801 10.528-10.381 16.128-2.703 5.868-4.308 12.009-4.384 18.497-.16 13.549 3.357 22.081 9.051 27.691 5.668 5.585 13.372 8.14 21.71 9.841a1.85 1.85 0 0 0 .74-3.625c-.483-.1-.937-.234-1.415-.339q-1.65-5.503-1.96-12.23a29 29 0 0 1-2.253-.444c6.679 1.573 10.12.229 12.626-2.234q-.03.659-.04 1.322c-.07 4.897.66 10.028 2.208 14.147 1.67 4.45 4.328 7.807 8.028 8.722a8.4 8.4 0 0 0 1.886.237c2.263.033 4.31-.92 5.997-2.768a12.4 12.4 0 0 0 1.526-2.104l.406 1.225c1.303 3.929 2.592 7.82 3.804 11.727-1.084-.046-2.32-.092-3.702-.123-11.95-.265-31.296.86-31.602 14.655-.063 2.864.72 5.432 2.124 7.68 1.054 1.688 2.456 3.188 4.107 4.49-3.47 2.705-6.285 5.61-8.462 8.566-2.857 3.879-4.624 7.862-5.338 11.616a14.2 14.2 0 0 0-.239 2.837c.05 3.77 1.503 7.703 3.843 10.855 1.847 2.487 4.262 4.514 7.003 5.63q.107.052.221.089 1.086.422 2.231.641 1.162.224 2.397.21c3.316-.043 5.83-.703 7.697-2.026 1.972-1.396 3.14-3.424 3.68-6.138.42-2.108-.684-4.713-3.165-6.888-1.319-1.155-3.05-2.22-5.16-3.03 2.29-2.029 5.287-3.506 8.902-4.46 1.203 6.69 2.87 14.444 6.448 20.703 4.096 7.163 10.563 12.29 21.362 11.684a1.853 1.853 0 0 0 1.588-2.714c-1.933-3.652-3.035-6.92-3.606-9.94-.533-2.818-.61-5.45-.472-7.994 8.212-11.496 19.549-28.876 25.569-46.618 5.85-17.24 6.69-34.797-4.998-47.805 1.601-.465 3.16-1.158 4.551-2.235 2.441-1.89 4.269-4.857 4.754-9.64 1.766-17.434-15.227-21.759-26.787-24.7l-1.699-.434c2.66-2.63 4.573-5.718 5.9-9.155.79-2.044 1.369-4.209 1.773-6.474 1.368 3.503 3.057 6.76 5.3 9.604 4.062 5.15 9.847 8.85 18.64 10.053a1.853 1.853 0 0 0 1.112-3.508 19 19 0 0 1-2.432-1.311c-3.355-2.15-5.2-5.035-5.793-8.276-.613-3.352.077-7.142 1.803-10.962q.254-.562.538-1.123c2.976 4.91 6.822 6.67 11.335 6.046 3.176-.439 6.621-2.166 10.275-4.861 2.44 3.634 5.558 4.981 8.537 5.21 3.12.24 6.026-.81 7.764-1.67.279-.138.535-.274.759-.401 4.921-2.792 8.726-5.399 12.391-7.91l1.663-1.137c.046.783.19 1.54.422 2.265.707 2.21 2.221 4.07 4.183 5.47 1.877 1.342 4.182 2.268 6.57 2.67 3.413.575 7.043.088 9.923-1.771 3.742-2.417 7.2-5.738 10.219-9.551 3.208-4.052 6.453-8.478 7.958-13.358.9-2.92-.282-6.595-1.616-8.953-6.877-12.162-21.076-27.628-29.191-34.771-2.208-1.944-4.296-3.178-6.703-3.646-.112-.132-.278-.224-.557-.239-4.352-.252-7.907-1.183-10.24-2.908-1.95-1.44-3.044-3.514-3.002-6.306.037-2.515 1.507-5.528 4.235-8.698 2.782-3.234 6.828-6.553 11.976-9.625l.059-.037a1.85 1.85 0 0 0 .543-2.56c-2.59-3.967-5.908-7.16-10.505-8.998-3.98-1.59-8.873-2.128-15.02-1.214.203-2.57-.078-4.867-.785-6.921-.86-2.501-2.339-4.614-4.333-6.405a57 57 0 0 0-2.863-8.437c-4.199-9.742-10.63-16.74-17.574-20.921-5.3-3.191-10.917-4.75-16.109-4.651z"/><path fill="#006599" d="M90.358 107.012c2.758 1.24 7.713.554 13.549-1.433 6.468-2.202 13.849-5.992 20.535-10.582l.049-.036.161-.108.145-.1a53 53 0 0 0-2.443-6.997c-3.87-8.977-9.75-15.399-16.08-19.21-6.21-3.74-12.822-4.954-18.318-3.578-.86.216-1.7.498-2.508.846-.49.211-.48 1.227-.238 2.523.367 1.964 1.33 4.323 2.247 6.316a1.85 1.85 0 0 1-1.552 2.613v.005l-.807.059c-6.036.437-14.938 1.084-14.556 7.92.332 5.92 4.02 7.004 8.417 6.758 2.029-.113 4.257-.486 6.42-.849.906-.152 1.802-.302 2.438-.398a1.855 1.855 0 0 1 2.083 2.25c-.16.933-.333 1.798-.508 2.68-.937 4.708-1.988 9.993.966 11.321z"/><path fill="#999" d="M57.856 314.793c-10.56-.066-25.569 1.25-25.786 11.058-.046 2.097.535 3.986 1.573 5.65 1.183 1.894 2.962 3.515 5.101 4.834a1.85 1.85 0 0 1 .094 3.09c-4.113 2.892-7.339 6.061-9.71 9.28-2.522 3.425-4.071 6.889-4.684 10.108-.132.693-.189 1.402-.18 2.113.039 2.983 1.217 6.137 3.116 8.695a14.6 14.6 0 0 0 2.918 2.97c.174-5.006 1.591-9.123 4.095-12.4a2 2 0 0 1 .166-.212l.009-.011c3.27-4.145 8.258-6.821 14.64-8.15l.18-.039a1.853 1.853 0 0 1 2.138 1.515c1.183 6.79 2.733 15.084 6.355 21.419 3.07 5.371 7.725 9.383 15.127 9.827-1.321-2.945-2.152-5.681-2.642-8.272-.632-3.337-.692-6.403-.503-9.35a2 2 0 0 1 .038-.353c1.345-10.772 1.092-20.388-.139-29.386q-1.096.248-2.196.535-1.097.286-2.198.622c-1.101.336-1.47.47-2.205.737a42 42 0 0 0-2.212.873 39 39 0 0 0-4.446 2.256 39 39 0 0 0-2.16 1.378l-.154.106a40 40 0 0 0-2.173 1.611 40 40 0 0 1 1.572-2.077 36 36 0 0 1 1.707-1.953 33 33 0 0 1 1.854-1.816q.451-.406.92-.797l.144-.119q.466-.386.952-.755a30 30 0 0 1 2.128-1.474l.11-.07a30 30 0 0 1 3.582-1.92 32 32 0 0 1 2.673-1.073 35 35 0 0 1 1.417-.463c-1.068-6.122-2.558-11.987-4.263-17.776a206 206 0 0 0-4.91-.181q-.99-.022-2.048-.03"/><path fill="#006599" d="M36.216 374.695c2.545-.033 4.377-.47 5.61-1.344 1.13-.8 1.82-2.07 2.17-3.832.171-.858-.518-2.13-1.96-3.393-1.264-1.107-3.055-2.116-5.337-2.795-1.88 2.886-2.825 6.565-2.703 11.09q.272.07.548.123a8.4 8.4 0 0 0 1.672.151M6.288 150.636c1.304 1.528 3.162 2.621 5.62 3.154.522-3.48 1.157-6.973 1.983-10.453a91 91 0 0 1 2.76-9.419c-4.746 1.118-9.215 3.89-12.94 8.966.1 3.154.932 5.826 2.577 7.752M150.298 122.078c-2.547 1.977-4.698 4-6.422 6.003-3.292 3.827-5.07 7.658-5.12 11.063-.06 4.097 1.578 7.165 4.496 9.322 2.947 2.18 7.25 2.78 12.242 3.633 3.815 1.172 12.14 5.96 12.023 9.94-.103 3.508-2.171 8.702-4.611 11.854-1.994 2.575-4.506 4.465-7.215 4.71-1.02.092-1.872-.515-2.686-1.581-1.071-1.401-2.081-3.573-3.216-6.065l-.003.003a1.853 1.853 0 0 0-3.368-.009c-1.81 3.914-5.173 10.052-8.854 14.25-2.226 2.538-4.477 4.314-6.322 4.205-5.577-.952-5.505-6.522-5.362-17.716.013-.986.025-2.015.035-3.117a1.847 1.847 0 0 0-3.354-1.08c-2.484 3.505-8.74 8.438-15.252 11.654-3.25 1.606-6.522 2.757-9.344 3.043-2.484.25-4.574-.182-5.856-1.625-.627-.705-1.103-1.68-1.386-2.967-1.012-4.602.815-7.77 4.206-9.93 3.776-2.406 9.429-3.7 15.454-4.35l-.001-.003a1.85 1.85 0 0 0 1.624-1.511c2.168-12.104 7.08-22.56 15.123-29.746 5.929-5.296 13.597-8.838 23.17-9.98z"/><path fill="#999" d="M57.544 90.814c-2.378.87-4.482 2.425-6.384 4.483-2.597 2.81-4.833 6.567-6.87 10.84l-.003-.003a1.852 1.852 0 0 1-2.832.647c-3.293-2.647-6.75-5.248-10.12-7.047-3.19-1.703-6.306-2.697-9.119-2.31-8.837 1.214-13.436 8.291-15.84 16.946-2.017 7.258-2.518 15.631-2.637 22.774 4.686-4.728 10.151-6.955 15.836-7.435 8.695-.735 17.83 2.693 25.377 7.459q.094.06.182.13a1.85 1.85 0 0 1 .268 2.603c-1.666 2.042-3.57 4.182-5.526 6.381-5.752 6.468-11.976 13.47-11.07 15.705l-.005.003.006.011c.63 1.586 7.186-1.007 13.312-3.43l1.138-.45.002.003.006-.003c.958-.378 2.1-.943 3.301-1.538 4.61-2.285 9.968-4.94 12.977-1.367.857 1.017 1.483 2.03 1.899 3.032.887 2.139.868 4.222.108 6.207-.705 1.843-2.06 3.561-3.915 5.124-2.148 1.809-4.983 3.421-8.247 4.775-10.645 4.416-18.014 11.066-22.724 19.272-4.565 7.952-6.668 17.398-6.857 27.716 4.61-4.728 9.927-8.786 15.82-12.185 7.494-4.322 15.919-7.567 25.006-9.754a1.854 1.854 0 0 1 1.577 3.327c-.547.346-1.114.672-1.69 1.003-2.435 1.396-5.102 2.926-5.066 6.112.015.716.198 1.309.518 1.792.571.864 1.634 1.477 3 1.884 1.584.472 3.515.65 5.584.607 5.949-.127 12.81-2.041 16.06-4.182a1.852 1.852 0 0 1 2.834 1.06c1.688 6.33 3.756 12.28 7.347 16.834 1.977 2.506 4.446 4.616 7.615 6.167-1.358-1.895-2.218-4.003-2.628-6.25-.755-4.127.039-8.668 2.065-13.152a35 35 0 0 1 2.404-4.416 1.854 1.854 0 0 1 3.312.192c2.356 5.485 5.43 7.5 9.028 7.002 2.88-.399 6.176-2.215 9.782-5.066a1.84 1.84 0 0 1 .795-.64 73 73 0 0 0 3.812-3.382 1.847 1.847 0 1 1 2.537 2.683 78 78 0 0 1-3.23 2.902c1.723 2.688 3.872 3.667 5.9 3.823 2.3.177 4.514-.632 5.85-1.292q.33-.164.57-.3c4.76-2.7 8.512-5.273 12.128-7.75 1.738-1.192 3.445-2.362 5.33-3.587a1.852 1.852 0 0 1 2.71 2.282l.003.003c-.697 1.623-.75 3.091-.345 4.357.45 1.408 1.468 2.632 2.805 3.587 1.422 1.016 3.188 1.721 5.033 2.032 2.567.432 5.25.096 7.313-1.236 3.397-2.194 6.552-5.228 9.319-8.723 3.009-3.8 5.22-8.298 7.466-12.53 1.144-2.156.725-2.847-.81-5.59-4.365-7.804-11.528-18.03-18.542-25.547-.59 4.063-2.547 9.338-5.184 12.745-2.577 3.33-5.965 5.783-9.81 6.13-2.524.229-4.374-.937-5.963-3.016-.717-.937-1.366-2.05-2.003-3.295-1.994 3.777-4.742 8.276-7.71 11.661-2.952 3.367-6.21 5.694-9.418 5.457q-.12-.003-.24-.024c-8.372-1.384-8.67-7.49-8.53-19.665-3.411 3.19-8.268 6.62-13.215 9.064-3.612 1.785-7.317 3.072-10.618 3.406-3.639.368-6.82-.4-8.99-2.842-.769-.865-1.386-1.93-1.831-3.206q.157.457.343.877c-18.092 1.077-35.349 3.608-50.493 9.924 15.177-10.413 31.892-14.347 49.362-15.1q.01.245.03.497c-.376-5.159 2.078-8.853 6.193-11.474q.735-.466 1.54-.884l-.021.01C78.32 146.11 60.349 130.9 39.626 119.23c24.401 7.78 43.44 23.608 60.632 42.2l-.073.022c2.626-.753 5.485-1.29 8.436-1.66 2.431-12.317 7.65-22.994 16.04-30.49 7.431-6.64 17.3-10.751 29.86-11.267-1.91-2.318-4.218-4.172-7.122-5.332-3.85-1.538-8.809-1.907-15.346-.605a1.853 1.853 0 0 1-2.309-2.136c.57-2.981.434-5.5-.297-7.627-.572-1.663-1.517-3.11-2.782-4.371-15.006 11.218-18.072 19.918-20.513 26.846a102 102 0 0 1-1.124 3.083 1.856 1.856 0 0 1-2.981.82l-.228-.197c-3.958-3.444-7.916-6.888-11.628-8.014-.77 2.259-1.206 4.577-1.446 6.917-.3 2.925-.3 5.882-.267 8.798h-.001a1.848 1.848 0 0 1-2.675 1.668c-7.337-3.673-15.757-10.279-21.483-20.352-4.048-7.121-6.752-15.968-6.775-26.72zm29.562 87.598"/><path fill="#006599" d="M52.771 205.512c-.648 1.168-1.035 2.582-1.016 4.353v.056c.03 1.463.43 2.71 1.128 3.764 1.093 1.651 2.858 2.745 5.029 3.391 1.953.582 4.272.804 6.716.752 5.094-.109 10.857-1.443 14.934-3.177-.24 3.988-.91 7.704-2.19 11.02-1.501 3.886-3.859 7.24-7.386 9.86a1.85 1.85 0 0 0 .552 3.252l-.001.003c1.55.482 3.285.923 5.172 1.403 10.308 2.623 25.462 6.48 24.016 20.74-.365 3.607-1.64 5.766-3.33 7.074-1.745 1.35-4.03 1.9-6.247 2.2a1.852 1.852 0 0 0-1.013 3.191h-.002c12.885 11.958 12.262 29.29 6.46 46.39-5.004 14.748-13.85 29.338-21.356 40.326 1.226-18.058-1.895-32.913-6.231-47.351a2 2 0 0 0-.049-.16c-1.432-4.757-2.993-9.47-4.574-14.238-.509-1.534-1.019-3.075-1.98-6.024a1.852 1.852 0 0 0-3.57.16c-.634 2.39-1.54 4.21-2.633 5.408-.952 1.044-2.049 1.582-3.212 1.566a4.6 4.6 0 0 1-1.046-.136c-2.36-.584-4.185-3.072-5.447-6.43-1.385-3.69-2.038-8.335-1.974-12.8.039-2.7.344-5.327.912-7.625a1.853 1.853 0 0 0-3.298-1.53 81 81 0 0 0-1.11 1.588c-2.246 3.264-4.299 6.113-10.606 5.055.063-7.716 1.315-16.518 3.732-26.383-6.13 10.241-10.419 22.786-11.313 39.576-3.332-1.392-6.335-3.198-8.828-5.655-5.006-4.931-8.097-12.611-7.95-25.008.07-5.921 1.552-11.565 4.05-16.989 2.52-5.468 6.07-10.713 10.253-15.79l.05-.058c5.022-5.953 11.117-10.92 18.054-14.92 4.731-2.73 9.858-5.013 15.304-6.855z"/><path fill="#ce9931" d="M82.71 330.685c3.91-19.98 1-45.326-22.004-70.909-11.208-12.466-23.191-30.822-23.618-47.191a76 76 0 0 0-1.665 1.002c-.02 12.29 4.848 24.796 10.681 34.696 5.088 8.636 10.17 13.094 13.049 16.501 13.881 16.421 24.132 39.716 23.557 65.9"/><path d="M206.924.001c-4.264-.04-7.631.894-10.232 2.728-2.402 1.694-4.11 4.119-5.23 7.22-4.95.55-7.889 2.732-9.38 6.01l.003.002-.003.004c-1.5 3.299-1.414 7.647-.398 12.49a1.389 1.389 0 0 0 2.536.501c1.742-2.718 3.706-4.344 5.749-4.939 1.836-.534 3.799-.239 5.771.844-.066 2.094.057 3.905.451 5.589.436 1.862 1.194 3.544 2.373 5.245-1.043 5.73-.58 11.023.849 15.797 1.76 5.882 4.983 10.957 8.652 15.084.4.448.786.863 1.168 1.25a13.5 13.5 0 0 1-3.114.66c-1.685.16-3.413.04-5.2-.156a1.39 1.39 0 0 0-.897 2.554c1.298.91 2.935 1.667 4.556 2.417q.492.226.975.454s-3.758 1.122-6.95 1.85c-4.002.912-12.577-4.067-16.531-4.999-.536 2.8-.698 9.367.664 12.248 1.85 3.917 4.543 8.235 6.237 13.159l.315.916a1.39 1.39 0 0 0 1.53.946c2.185-.335 3.502-1.61 4.259-3.775.566-1.622.78-3.768.818-6.43a158 158 0 0 1 6.967-2.46 119 119 0 0 1 5.763-1.723c-.157 1.373-.141 2.69.18 3.873a1.392 1.392 0 0 0 2.555.321 102 102 0 0 1 4.825-6.621 85 85 0 0 1 4.731-5.484c.865.79 1.451 1.678 1.818 2.745.745 2.165.705 5.17.284 9.577a1.389 1.389 0 0 0 2.272 1.254c.924-.785 1.76-1.718 2.54-2.684-.106 2.499-.644 4.527-1.61 6.075-1.339 2.14-3.582 3.396-6.719 3.737-1.4.151-2.789.508-3.92 1.07-.87.434-1.608 1-2.126 1.704a3.84 3.84 0 0 0-.753 2.77c.06.551.228 1.123.521 1.712.3.602.975.891 1.6.726 3.796-.679 8.888-.873 15.05-.687 6.26.188 13.627.774 21.862 1.645a1.39 1.39 0 0 0 1.525-1.495c-.113-2.858-1.465-4.566-3.237-5.636-1.625-.981-3.542-1.349-5.1-1.607-3.242-.538-4.79-2.172-5.43-4.352-.548-1.872-.506-4.19-.266-6.62l.434.639c.711 1.051 1.424 2.103 2.157 2.97a1.387 1.387 0 0 0 2.44-.76c.04-.398.06-.832.07-1.283q.175.248.357.501c1.16 1.607 2.499 3.309 3.984 4.916 2.662 2.88 5.8 4.565 8.913 5.147 3.37.632 6.703-.024 9.394-1.842 2.386-1.614 3.622-4.105 3.795-7.4.142-2.71-.459-5.986-1.748-9.777l.827-.062c1.26-.095 2.577-.196 3.641-.31a1.39 1.39 0 0 0 .93-2.316c-1.076-1.197-2.48-2.52-3.883-3.84a116 116 0 0 1-2.536-2.437c1.218-.748 2.445-1.575 3.646-2.385 1.445-.973 2.854-1.923 4.112-2.644v-.001a1.39 1.39 0 0 0-.357-2.555c-16.997-4.193-20.62-11.14-24.794-19.142l-.403-.772-.044-.085c-3.006-5.741-6.499-11.96-14.955-18.141-.43-2.527-1.388-4.45-2.794-5.876-1.34-1.358-3.054-2.232-5.076-2.723-1.858-5.73-4.73-9.511-8.193-11.896-3.625-2.495-7.85-3.424-12.215-3.435z"/><path fill="#cc0102" d="M195.733 21.785a16.5 16.5 0 0 0-.985-4.123 17.8 17.8 0 0 0-2.849-4.965c-3.917.41-6.19 2.012-7.283 4.415h-.002c-.927 2.04-1.088 4.69-.725 7.714 1.633-1.774 3.424-2.925 5.307-3.474 2.135-.622 4.344-.466 6.537.433M229.949 100.801c5.883.177 12.681.694 20.217 1.463-.336-.819-.906-1.388-1.578-1.794-1.209-.73-2.805-1.03-4.11-1.247-4.527-.752-6.715-3.126-7.65-6.31-.556-1.9-.624-4.051-.477-6.287l-.056.051-1.952 1.795a1.386 1.386 0 0 1-1.958-.076l-.114-.136c-.582-.814-1.117-1.75-1.646-2.701-.007 3.459-.691 6.282-2.047 8.452-1.814 2.903-4.746 4.593-8.783 5.03-1.084.118-2.14.384-2.974.8-.495.246-.89.533-1.127.855a1.17 1.17 0 0 0-.236.653c3.84-.566 8.726-.721 14.49-.548M194.02 85.409a164 164 0 0 1 7.982-2.842c2.383-.775 4.771-1.48 7.177-2.099l.16-.658-5.777-.116a1.386 1.386 0 0 1-1.1-2.276l-5.382.726c-1.713.231-8.728-2.83-13.216-4.29l.113 6.86c.045 2.704 6.21 10.284 7.483 13.979.438-.33.76-.835.995-1.507.51-1.46.669-3.606.673-6.37-.047-.599.301-1.182.891-1.407M200.773 34.009c5.499.141 10.906-.484 16.197-2.073 5.273-1.585 10.431-4.128 15.45-7.826-.347-1.79-1.026-3.133-1.987-4.107-.98-.993-2.29-1.636-3.874-2.002-4.822 3.357-9.659 5.63-14.51 6.872a35.6 35.6 0 0 1-13.547.832c-.01 1.533.108 2.878.397 4.114.346 1.478.945 2.824 1.874 4.19"/><path fill="#57ad01" d="M206.902 2.774c-3.654-.035-6.485.728-8.61 2.227-1.926 1.358-3.31 3.358-4.236 5.951a20.5 20.5 0 0 1 3.291 5.73c.782 2.08 1.197 4.216 1.232 6.228 4.268.593 8.53.367 12.785-.724 4.405-1.128 8.822-3.185 13.254-6.22-1.652-4.97-4.114-8.224-7.05-10.246-3.112-2.142-6.805-2.938-10.654-2.946z"/><path fill="#cc0102" d="M209.757 11.081c-2.377-2.182-5.786-2.522-8.472-.184-.332.29-.607.519-.353.89 1.035 1.512 2.426 3.015 4.46 2.944 2.085-.073 3.392-1.291 4.526-2.821.162-.217.156-.573-.161-.829"/><path fill="#57ad01" d="M217.764 34.6c-5.416 1.627-10.946 2.294-16.566 2.194-.822 5.037-.382 9.693.878 13.903 1.631 5.448 4.638 10.174 8.066 14.03 1.374 1.544 2.56 2.627 3.907 3.567 1.38.962 2.967 1.81 5.106 2.86 3.354 1.648 5.254 3.482 6.21 6.264.629 1.825.805 4.01.696 6.809.345-.44.681-.885 1.01-1.32.586-.775 1.15-1.522 1.738-2.208l.005-.005.003-.004a1.388 1.388 0 0 1 2.186.098c.654.916 1.25 1.989 1.846 3.061.276.497.552.994.83 1.466l.745-.683c1.094-1.002 2.24-2.053 3.361-3.11l.068-.061a1.39 1.39 0 0 1 1.957.163c.59.696 1.165 1.512 1.738 2.352.005-.52.022-1.02.065-1.477a1.39 1.39 0 0 1 2.568-.674 74 74 0 0 0 2.756 4.132 50 50 0 0 0 3.778 4.655c2.232 2.415 4.827 3.82 7.377 4.298 2.643.495 5.244-.009 7.328-1.418 1.613-1.09 2.453-2.854 2.578-5.234.143-2.723-.614-6.207-2.192-10.383a1.39 1.39 0 0 1 1.168-1.87c.914-.086 1.778-.152 2.669-.22l.696-.053c-.55-.532-1.127-1.075-1.704-1.618-1.403-1.321-2.807-2.643-3.883-3.84a1.39 1.39 0 0 1 .364-2.148c1.583-.874 3.304-2.034 4.976-3.16l1.54-1.032c-9.936-2.905-15.036-6.843-18.523-11.414.026 1.41.293 2.782.736 4.108.817 2.448 2.231 4.766 3.839 6.918a1.388 1.388 0 0 1-1.003 2.274c-6.76.324-11.257-3.034-15.406-6.572l.582 4.29.012.168a1.387 1.387 0 0 1-1.37 1.403c-6.283.088-10.34-5.32-14.397-10.73l-.197-.261a1.387 1.387 0 0 1 2.219-1.664l.196.261c3.227 4.302 6.453 8.603 10.552 9.465l-.84-6.177a1.388 1.388 0 0 1 2.333-1.19c.641.54 1.106.94 1.573 1.344 3.467 2.995 7.068 6.103 11.943 6.773-1.097-1.712-2.034-3.52-2.668-5.421-.9-2.697-1.194-5.562-.493-8.576-.782-1.322-1.504-2.683-2.232-4.076-2.59 1.684-4.85 1.445-6.76.287-2.365 2.94-4.627 3.287-6.828 2.124a6 6 0 0 1-.463-.273c-2.823 2.76-5.4 2.97-7.742 1.665l-.067-.038c-.769.76-1.52 1.322-2.25 1.715-1.845.994-3.537.953-5.053.266-1.388-.63-2.564-1.808-3.533-3.204-.244-.352-.476-.72-.695-1.095-.04 5.484 1.753 9.491 4.625 12.627 3.808 4.158 9.6 6.928 15.585 9.563a1.39 1.39 0 0 1-1.12 2.545c-6.254-2.754-12.325-5.668-16.51-10.237-4.278-4.672-6.494-10.933-4.784-20.215a1.388 1.388 0 0 1 2.698-.147c.485 1.607 1.328 3.715 2.485 5.383.703 1.012 1.51 1.846 2.39 2.246.753.341 1.618.348 2.596-.178.448-.242.92-.587 1.416-1.051-1.324-1.45-2.487-3.398-3.522-5.509a1.386 1.386 0 1 1 2.49-1.218c1.143 2.329 2.41 4.397 3.795 5.56l.097.078.033.029q.33.264.672.455c1.203.67 2.623.484 4.328-1.108-1.058-1.22-2.056-2.752-3.036-4.384a1.388 1.388 0 0 1 2.382-1.424c1.15 1.913 2.296 3.655 3.432 4.717l.05.041.098.094c.3.265.6.481.897.639.963.508 2.065.21 3.405-1.455-1.517-1.67-2.617-3.795-3.34-5.29a1.389 1.389 0 0 1 2.5-1.208c.787 1.625 2.063 4.082 3.748 5.447 1.225.992 2.776 1.35 4.681.073-2.712-5.102-6.035-10.56-13.258-15.938-5.255 3.85-10.652 6.504-16.167 8.16z"/><path fill="#57ad01" d="M214.009 79.33a88 88 0 0 1 4.591-5.344l-.663-.341c-2.262-1.11-3.955-2.018-5.476-3.078a22 22 0 0 1-.92-.677 15.8 15.8 0 0 1-4.855 1.327c.988.464 1.944.937 2.785 1.452a1.39 1.39 0 0 1 .156 2.26l-.775.662-.146.124-1.497 1.278 3.945.08a1.387 1.387 0 0 1 1.316 1.74c-.327 1.224-.659 2.486-.884 3.702a99 99 0 0 1 2.423-3.185"/><path fill="#ce9931" d="M219.747 509.285c-54.108-2.568-92.603-29.455-120.942-69.567 7.673-7.769 9.405-17.661 7.27-24.178-4.665-14.243-36.427-16.733-43.483-10.436-6.73 6.758-12.699 14.388-23.43 16.575-7.7 7.009 2.923 18.767 10.795 18.98l7.409-4.17c8.103 1.39 12.846 5.064 14.537 10.41l-22.97 15.757c12.925 26.448 32 47.973 54.887 63.858 40.154 27.87 97.535 35.986 122.684 35.986 32.482 0 133.227-12.377 173.774-98.718-6.347-2.1-12.718-4.72-18.416-7.673 2.873-4.395 5.552-8.938 7.264-14.222l13.748 7.853c4.116-6.484 5.74-13.782 2.213-22.995-9.768.033-19.17-4.142-28.392-10.385-9.46-6.944-27.356-1.042-32.683 9.778-3.94 8-2.75 15.406 2.91 22.068-34.147 45.398-82.865 59.042-111.931 60.994-10.073.677-10.748.298-15.244.085"/><path fill="#0f4106" d="M378.615 454.38c-8.868-4.944-16.949-10.675-23.634-17.802-2.08 1.296-8.314 2.515-9.004.511-2.671-7.758 3.755-14.537 10.807-17.853 3.84-1.806 17.718-3.332 19.187 2.454.995 3.921-2.498 7.879-5.247 9.893 4.945 2.763 10.063 5.781 15.008 8.544-1.699 4.98-4.258 9.681-7.117 14.253M92.388 430.051c-5.38 4.993-11.434 9.825-17.292 14.068-3.531-5.18-7.436-9.777-14.119-10.025l16.064-9.72c-8.086-1.873-12.82-6.607-15.117-14.414 7.666-6.561 32.696-5.922 39.467 4.386 4.073 6.2 3.158 11.216-.851 17.039-3.027-.264-5.56-.686-8.152-1.334"/><path fill="#0f4106" d="M88.738 437.4c18.954 27.432 37.445 41.609 56.1 54.035 24.864 16.56 57.347 22.225 82.378 22.271 25.03-.046 55.272-7.367 81.364-23.438 19.085-11.755 35.274-28.567 48.088-47.282 10.914 9.72 22.563 17.785 36.096 21.608-39.318 69.32-106.948 90.269-165.563 90.302-56.698.869-134.25-20.766-170.087-93.364 10.955-6.893 20.895-14.167 31.624-24.133"/><path fill="#ce9931" d="m350.065 491.874 4.312-4 4.01 4.214-4.386 4.015zM72.6 455.529l3.624 5.119c-.857.811-1.755 2.24-1.86 3.012-.168 1.214.114 2.284.905 3.35.588.793 1.163 1.068 1.796 1.448.59.355 1.784.527 2.863-.274 1.016-.753 1.039-1.605 1.058-2.384.018-.706-.107-1.983-.847-3.743-1.212-2.886-1.565-3.979-1.341-5.763.224-1.788.617-3.246 2.168-4.397 1.015-.753 1.938-1.061 3.241-1.197q1.96-.205 3.934.836c1.317.694 2.008 1.315 3.4 3.19 1.709 2.304 2.138 4.434 2.209 6.343.08 2.189-.725 4.525-2.842 5.86l-3.486-4.816c.797-.806 1.235-1.587 1.31-2.333.077-.753-.129-1.607-.71-2.392-.48-.645-.997-1.024-1.54-1.129a1.8 1.8 0 0 0-1.468.328c-.313.233-.522.587-.655 1.023-.142.464-.27.772.18 1.942 1.127 2.93 1.69 4.902 1.906 6.385.216 1.48.16 2.922-.286 4.083-.441 1.15-1.14 1.79-2.224 2.595-1.269.941-2.838 1.293-4.394 1.359-1.559.066-2.576-.1-3.984-.838-1.402-.735-2.701-1.845-3.996-3.59-2.273-3.062-2.536-5.665-2.329-7.76.215-2.172 1.485-4.619 3.368-6.257M106.147 475.388l4.56 4.773-9.46 9.087c-.97.93-1.826 1.558-2.978 2.084-1.157.527-2.144.714-3.413.689s-2.322-.251-3.292-.648a13.3 13.3 0 0 1-4.107-2.636c-.812-.757-1.55-1.73-2.348-2.782s-1.101-2.06-1.378-3.015-.277-1.816-.171-2.929c.106-1.117.35-2.006.813-2.826.744-1.317 1.437-2.015 2.252-2.784l9.716-9.164 4.42 4.543-9.695 9.311c-.896.86-.854 1.528-.88 2.504-.027.983.287 1.916 1.132 2.797.836.87 1.77 1.14 2.745 1.182.873.039 1.478.002 2.39-.874zM218.314 524.165l6.612.19-.222 13.361c-.022 1.342-.338 2.374-.823 3.542-.487 1.173-1.128 2.054-2.075 2.9-.946.844-2.686 1.532-3.688 1.84-1.396.427-2.62.573-4.535.63-1.313.04-2.621-.164-3.883-.554-1.273-.394-1.832-.561-2.686-1.072-.853-.51-1.534-1.286-2.073-2.224-.557-.973-.85-1.552-1.07-2.468-.35-1.472-.468-2.767-.433-3.887l.414-12.979 6.764.318-.446 13.276c-.04 1.24.502 2.34 1.145 3.073.649.739 1.636.863 2.855.932 1.204.068 1.883-.287 2.611-.937.722-.644 1.118-1.254 1.153-2.517zM112.358 482.12l15.32 12.603-3.586 4.268-5.103-4.34-10.424 12.278-5.066-4.256 10.502-11.897-5.35-4.506zM128.828 495.472l16.762 11.053-3.056 4.584-5.561-3.823-9.146 13.457-5.324-3.811 9.056-12.965-5.992-4.174zM261.561 521.032l19.27-5.643 1.607 5.141-6.535 1.914 4.489 15.674-6.27 1.876-4.488-15.674-6.465 1.853zM140.815 516.968c1.48-3.35 3.275-5.541 5.914-6.707 2.644-1.168 6.053-1.7 9.389-.226a11.4 11.4 0 0 1 6.301 6.956c.861 2.652.127 5.54-1.352 8.833-1.111 2.476-2.381 3.7-3.714 4.903-1.406 1.27-2.84 2.208-4.474 2.598-1.863.445-4.433.403-6.713-.604-2.312-1.022-4.025-2.723-5.217-4.132-1.19-1.408-1.439-3.277-1.52-5.3-.082-2.06.326-3.922 1.386-6.32m5.513 2.407c-.914 2.07-1.112 3.912-.74 5.154.372 1.246 1.317 2.422 2.656 2.982a4.85 4.85 0 0 0 4.025-.12c1.143-.556 2.461-1.966 3.477-4.265.853-1.93 1.136-3.693.75-4.926-.388-1.24-1.428-2.562-2.766-3.153-1.28-.565-2.897-.387-4.07.172-1.178.56-2.41 2.068-3.332 4.156M166.976 515.603l6.812 1.859 4.659 13.594 3.315-11.177 6.507 1.88-6.074 21.007-6.506-1.88-5.218-12.626-3.094 10.222-6.475-1.872zM228.636 524.03l6.298-.127 8.91 10.882-.79-11.502 6.65-.32.976 21.47-5.832.37-9.06-9.871.286 10.827-6.484.119zM252.463 522.627l6.606-1.25 3.704 21.048-6.605 1.25zM283.695 514.473l15.706-6.918 1.913 4.553-10.095 4.427 1.489 3.38 9.294-4.074 1.907 4.33-9.294 4.075 1.484 3.158 10.421-4.572 1.905 4.325-16.033 7.062zM302.277 505.892l6.943-4.246c1.369-.837 2.78-1.188 4.068-1.296 1.298-.11 2.682-.073 3.98.33 1.299.405 2.954 1.082 4.006 2.1 1.054 1.018 1.936 1.999 2.749 3.356 1.273 2.126 1.685 3.885 1.813 5.359.133 1.536.226 2.81-.085 3.95-.352 1.288-1.118 2.333-1.638 2.823-.484.456-1.33 1.138-1.92 1.478l-9.43 5.438zm7.255 1.285 6.509 10.871 1.51-.904c1.289-.771 2.136-1.584 2.46-2.209.328-.634.452-1.202.423-2.123-.028-.906-.166-2.678-1.12-4.271-1.262-2.108-2.8-2.936-4.11-3.172-1.194-.216-2.535-.07-4.133.887zM328.403 489.342l12.51-10.773 3.256 3.781-7.417 6.373 2.643 3.07 5.919-5.083 2.9 3.186-6.262 5.125 5.394 6.747-5.268 4.33zM370.14 468.492l2.596-5.04 4.967 2.458-2.679 5.194zM363.529 472.743l3.913-3.99c1.24 1.38 2.163 2.833 2.488 4.247.323 1.405.337 2.589.143 4.005-.221 1.614-.915 3.052-2.177 4.619-1.54 1.91-3.096 2.867-4.652 3.562-1.554.693-2.974.965-4.992.645-2.103-.332-4.59-1.658-6.667-3.506-2.783-2.478-4.396-5.395-4.59-7.46-.167-1.764.24-4.593 2.537-7.57 1.515-1.962 3.66-3.226 5.544-3.72 1.837-.48 3.23-.334 5.809.135l-1.948 5.008c-.651-.288-1.62-.286-2.008-.235-.626.081-.988.15-1.492.406-.592.3-1.434 1.021-1.818 1.599-.638.956-1.119 2.392-.732 3.853.288 1.09 1.153 2.485 2.783 3.757 1.96 1.53 3.518 2.184 4.712 2.144 1.001-.033 2.555-.361 3.46-1.388.876-.996 1.275-2.06 1.166-3.064-.11-1-.62-1.879-1.48-3.047M183.422 101.13l1.436-25.383c4.835.083 8.692 2.03 11.969 5.415l-.058-19.246c-3.657 3.547-7.044 5.38-11.212 5.683-.01-4.792 1.502-6.701 5.762-9.578l-9.1-.031-9.715.007c4.414 2.386 6.401 4.411 6.545 9.295-4.75.126-7.758-2.057-11.415-5.603l.117 19.69c2.824-2.677 5.41-5.411 11.682-5.44l1.55 27.004a9.7 9.7 0 0 1 2.44-1.813M227.201 218.009H105.368l.316 189.016c-.15 14.107 11.918 31.914 20.663 42.296 4.886 5.802 10.347 11.338 16.256 16.101 24.933 20.099 52.947 33.972 82.387 46.107l2.21.912 2.212-.912c29.44-12.135 57.453-26.008 82.386-46.107 5.909-4.763 11.37-10.3 16.257-16.101 8.745-10.382 20.812-28.19 20.662-42.296l.317-189.016"/><path fill="#fff" d="m246.949 223.81.02 273.8c-6.667 3.053-13.28 5.883-19.768 8.557-6.317-2.604-12.754-5.355-19.245-8.317l.021-274.04h19.224z"/><path fill="#000034" d="M146.244 460.906c18.59 14.985 38.608 26.177 58.246 35.345l.02-272.442h-93.332l.307 183.244c-.184 14.705 17.318 39.794 34.759 53.853M250.416 223.81l.02 272.196c19.47-9.123 39.297-20.248 57.721-35.1 17.44-14.059 34.943-39.148 34.76-53.853l.306-183.243z"/><path fill="#fcd604" d="M157.751 367.615a37.293 37.293 0 0 1-37.293-37.293 37.293 37.293 0 1 1 37.293 37.293"/><path fill="#00669d" d="m166.873 338.039-.11-35.584c-4.03-3.644-8.336-4.06-12.776.278v1.544l-10.206-.019c-1.48-.002-2.34.75-2.34 2.225l-.01 17.64c0 1.229 1.148 1.889 2.62 1.889h10.013l-.01 11.6c-4.157 1.382-9.735 4.963-9.735 12.146s7.04 13.007 15.725 13.007 15.878-5.67 15.725-13.007-5.92-10.712-8.896-11.72"/><path fill="#fff" d="M160.408 302.858c-.8-.016-1.588.353-2.304 1.147v1.774c.006 1.26-1.261 2.674-2.489 2.676l-10.062.019.004 4.652 4.494-.017.003 3.91h-4.588l-.003 5.25 10.228-.061c1.487-.01 2.483 1.39 2.484 2.965l.01 12.854c.001 1.438-.075 2.394-1.618 2.866-3.73 1.142-8.436 3.67-8.436 8.68s5.333 9.071 11.912 9.071 11.914-4.062 11.914-9.071c0-5.01-5.091-7.612-7.448-8.55-1.179-.47-1.734-1.499-1.69-3.084l-.03-33.926c-.766-.74-1.58-1.14-2.381-1.156zm-.365 42.988c2.861 0 5.18 1.753 5.18 3.915 0 2.16-2.319 3.912-5.18 3.912s-5.18-1.751-5.18-3.912 2.32-3.915 5.18-3.915"/><path fill="#ce9931" d="M296.871 288.62c-22.946 0-41.548 18.603-41.548 41.549s18.602 41.548 41.548 41.548 41.548-18.602 41.548-41.548-18.602-41.548-41.548-41.548"/><path fill="#fff" d="M296.872 293.029c-20.512 0-37.14 16.627-37.14 37.14 0 20.511 16.628 37.139 37.14 37.139 20.511 0 37.14-16.628 37.14-37.14s-16.629-37.14-37.14-37.14"/><path fill="#cc0102" d="M295.653 299.601c-2.136.018-4.22 1.032-6.235 2.854l-.108 35.584c-2.976 1.007-8.744 4.382-8.897 11.719s7.04 13.007 15.725 13.007 15.725-5.824 15.725-13.007-5.579-10.764-9.736-12.145l-.01-11.602h10.015c1.472 0 2.619-.659 2.618-1.888l-.01-17.64c0-1.475-.86-2.228-2.34-2.225l-10.206.02v-1.545c-2.22-2.168-4.406-3.149-6.541-3.132z"/><path fill="#fff" d="m293.392 304.014-.029 33.926c.044 1.585-.512 2.614-1.691 3.084-2.357.938-7.447 3.54-7.447 8.55s5.334 9.071 11.913 9.071 11.913-4.061 11.913-9.071-4.707-7.538-8.437-8.68c-1.543-.472-1.618-1.427-1.618-2.866l.01-12.855c0-1.575.997-2.974 2.484-2.965l10.227.062-.002-5.25-4.587-.002.002-3.908 4.494.016.005-4.652-10.062-.019c-1.228-.002-2.495-1.415-2.489-2.676v-1.774c-1.431-1.588-3.152-1.473-4.686.009zm-2.434 45.746c0-2.16 2.32-3.913 5.18-3.913s5.18 1.752 5.18 3.913c0 2.162-2.32 3.914-5.18 3.914s-5.18-1.752-5.18-3.914"/><path fill="#ce9931" d="M227.247 233.09h9.746c-3.954 3.492-5.489 7.916-6.063 12.431 4.168-.272 8.063-1.982 11.72-5.53l.002 17.194c-3.676-2.77-7.361-5.787-12.795-4.834-1.305 11.28-1.737 24.287-2.658 36.488-.92-12.201-1.333-25.208-2.637-36.488-5.434-.953-9.12 2.064-12.795 4.834l-.002-17.206c3.657 3.547 7.554 5.27 11.722 5.542-.574-4.515-2-8.932-5.954-12.423zM227.247 301.535h9.746c-3.954 3.492-5.489 7.916-6.063 12.432 4.168-.273 8.063-1.983 11.72-5.53l.002 17.194c-3.676-2.771-7.361-5.787-12.795-4.835-1.305 11.28-1.737 24.287-2.658 36.488-.92-12.2-1.333-25.208-2.637-36.488-5.434-.952-9.12 2.064-12.795 4.835l-.002-17.207c3.657 3.547 7.554 5.27 11.722 5.543-.574-4.516-2-8.933-5.954-12.424zM227.247 372.185h9.746c-3.954 3.491-5.489 7.915-6.063 12.43 4.168-.272 8.063-1.982 11.72-5.528l.002 17.193c-3.676-2.77-7.361-5.787-12.795-4.835-1.305 11.28-1.737 24.288-2.658 36.489-.92-12.201-1.333-25.208-2.637-36.489-5.434-.952-9.12 2.064-12.795 4.835l-.002-17.206c3.657 3.547 7.554 5.27 11.722 5.542-.574-4.516-2-8.933-5.954-12.424zM227.247 443.878h9.746c-3.954 3.492-5.489 7.916-6.063 12.431 4.168-.272 8.063-1.982 11.72-5.53l.002 17.194c-3.676-2.77-7.361-5.787-12.795-4.834-1.305 11.28-1.737 24.287-2.658 36.488-.92-12.201-1.333-25.208-2.637-36.488-5.434-.953-9.12 2.064-12.795 4.834l-.002-17.206c3.657 3.547 7.554 5.27 11.722 5.542-.574-4.515-2-8.932-5.954-12.423zM188.406 99.942c-1.755-.036-3.486.4-4.984 1.188-.734.35-1.786 1.12-2.44 1.813-1.296 1.339-2.126 3.04-2.184 4.926-.048 1.534.16 2.495.833 3.441-6.277 6.862-10.238 15.207-12.536 24.36-5.93 2.914-10.276 7.236-13.26 12.77 3.945 4.152 8.361 8.066 12.629 12.212 10.264 9.973 18.62 21.37 24.649 32.366-3.348 7.422-5.064 17.673-5.956 26.732l.208 4.059c.542 4.879 1.992 10.066 4.334 14.514 4.834-1.318 9.925-3.102 14.943-5.116 9.566-3.728 19.133-8.56 28.7-13.425-.575.142-1.44.117-2.516-.032h2.58l-.065.032q.065-.014.123-.032h50.239c8.437-14.977 5.12-23.615-2.979-29.68-7.263-5.441-6.522-17.088-5.64-21.348 4.068-19.67 3.123-36.297-4.234-45.851 1.867-2.194 4.23-3.995 4.293-7.132.104-5.138-4.79-8.564-9.62-8.662-2.82-.057-5.652 1.028-7.54 2.963-1.573-3.003-4.89-4.579-8.42-4.65-2.728-.056-5.454.945-7.339 2.762-1.73-2.35-4.88-3.619-8.084-3.684-2.772-.056-5.345.984-7.23 2.846-1.134-1.961-3.968-3.809-8.041-3.766-2.537.027-5.137.862-6.997 2.445-1.734-2.518-4.846-3.991-8.043-4.056-2.597-.053-5.158.673-7.028 2.329-1.702-2.75-5.014-4.256-8.395-4.324"/><path fill="#006698" d="m205.207 129.79.153 11.665c.024 1.85-1.518 2.3-3.145 2.455-12.026 1.143-23.497.883-33.457-4.757-3.549 1.588-6.631 4.345-9.362 7.98 20.928 6.422 47.437 5.404 75.738 1.995l-1.843-19.03zm21.153 6.014a4.662 4.662 0 0 1-.281 9.315 4.66 4.66 0 0 1-4.662-4.661 4.66 4.66 0 0 1 4.099-4.628 4.7 4.7 0 0 1 .844-.026m-12.66.384a4.662 4.662 0 0 1-.282 9.315 4.66 4.66 0 0 1-4.663-4.661 4.66 4.66 0 0 1 4.1-4.628 4.7 4.7 0 0 1 .844-.026"/><path fill="#006698" d="M220.806 125.994c-1.187-4.592-5.18-7.246-8.748-7.29l-12.201-.154c-7.158-.09-8.381 7.256-8.134 13.045l.384 8.978 9.477-.402-.423-11.492c-.072-1.96 1.082-2.77 2.763-2.762l2.226.01zM181.864 114.561c-5.142 5.976-8.619 13.26-10.897 21.486l7.52 3.146c1.33-7.041 3.659-13.499 7.444-19.107l-.23-3.146zM203.749 105.88c-3.136-.064-5.72 1.916-5.77 4.423-.051 2.506 2.45 4.589 5.586 4.652 3.136.064 5.72-1.916 5.77-4.422.051-2.507-2.45-4.59-5.586-4.653M188.395 103.978c-3.136-.063-5.72 1.917-5.77 4.423s2.45 4.59 5.587 4.653c3.135.064 5.719-1.917 5.77-4.423s-2.45-4.59-5.587-4.653M218.789 107.491c-3.136-.063-5.72 1.917-5.77 4.423-.051 2.506 2.45 4.59 5.586 4.653s5.72-1.917 5.77-4.423c.051-2.506-2.45-4.59-5.586-4.653M234.06 108.412c-3.137-.064-5.72 1.916-5.77 4.423-.052 2.506 2.45 4.589 5.586 4.653s5.72-1.917 5.77-4.423-2.45-4.59-5.587-4.653M249.483 109.333c-3.136-.064-5.72 1.916-5.77 4.423-.05 2.506 2.45 4.589 5.586 4.653s5.72-1.917 5.77-4.423c.051-2.506-2.45-4.59-5.586-4.653M265.444 111.021c-3.136-.064-5.72 1.917-5.77 4.423s2.45 4.59 5.586 4.653 5.72-1.917 5.77-4.423c.051-2.506-2.45-4.59-5.586-4.653"/><path fill="#999" d="M240.338 124.843c.429-1.578 1.555-2.457 4.144-2.762 2.407-.284 4.043 1.427 5.064 4.911a840 840 0 0 0 4.835 15.961c.915 2.909 1.585 5.786 1.765 8.671.52 8.352 1.088 16.168-.162 24.302-.098.641-.997.805-1.411.484-12.24-9.476-16.88-41.832-14.235-51.567M260.521 122.902c-3.758-1.537-5.937 1.222-4.958 3.568 2.983 7.156 4.64 14.876 5.726 20.335 2.304 11.579 2.35 23.784 8.212 32.42.274.474.741.18.652-.306-.568-4.576.373-9.467 1.688-14.963 3.294-13.767 2.45-27.562-4.144-39.519-3.622.585-5.654-.174-7.176-1.535"/><path fill="#006698" d="M193.34 198.637c1.398 3.709 2.653 7.446 3.3 11.127.325 1.85 2.203 2.326 3.99 2.532 18.618 2.147 31.879-5.508 43.892-16.114l6.293 5.678c-17.076 14.386-35.31 24.034-59.24 30.848-5.17-12.797-2.896-23.732 1.765-34.07"/></g><path fill="none" d="m247.863 218.01 24.198-20.328"/><path fill="#cc0102" fill-rule="evenodd" d="m261.536 213.56-2.33-2.159-3.304 2.778 2.343 2.242zM248.127 217.788l-2.211-2.38-3.14 2.601h5.087zM247.386 214.19l2.183 2.386 3.28-2.755-2.322-2.235zM251.955 210.402l2.32 2.22 3.278-2.752-2.339-2.168zM256.767 206.415l2.319 2.167 3.44-2.89-2.3-2.143zM261.631 202.383l2.286 2.141 3.438-2.889-2.213-2.16zM266.656 198.219l2.22 2.138 3.185-2.675-2.15-2.16zM273.638 199.267l-3.147 2.646 2.108 2.03 3.052-2.653zM277.144 202.79l-3.027 2.615 1.996 1.923 2.96-2.6zM276.108 210.181l-3.099 2.861 2.308 2.163 3.04-2.83zM271.362 211.499l3.21-2.818-1.994-1.947-3.279 2.833zM263.027 212.265l3.391-2.949-2.245-2.09-3.443 2.893zM267.944 210.737l-3.404 2.941 2.102 1.965 3.381-2.97zM271.709 214.243l-3.302 3.049.767.717h3.13l1.725-1.605zM265.173 216.932l-2.123-1.967-3.325 2.872.18.172h4.041zM256.83 217.65l-2.358-2.269-3.126 2.628h5.072zM265.557 206.061l2.217 2.077 3.301-2.87-2.116-2.067zM280.482 206.144l-2.859 2.639 2.257 2.174 2.8-2.605z"/><path fill="#006698" fill-rule="evenodd" d="m214.459 155.119 5.678-.307c6.251 13.788 12.154 27.75 16.767 42.358-10.915 8.51-22.797 13.08-36.373 10.743-.868-8.18-4.803-15.354-9.188-22.417-7.783-12.538-18.634-23.821-28.039-33.307 5.167.844 10.344 1.549 15.51 2.393 13.911 15.085 25.456 30.522 33.841 46.425-2.333-14.419-8.56-29.703-16.421-45.35l10.36-.154c6.611 8.593 11.65 17.624 14.58 27.24-.217-10.278-3.019-19.188-6.715-27.624"/></svg>