<svg xmlns="http://www.w3.org/2000/svg" xmlns:xlink="http://www.w3.org/1999/xlink" xml:space="preserve" viewBox="6.94 5.97 551.02 711.76"><g transform="matrix(1.25 0 0 -1.25 -91.593 887.528)"><defs><path id="a" d="M-74.41-105.236h744.095V947.126H-74.41z"/></defs><clipPath id="b"><use xlink:href="#a" overflow="visible"/></clipPath><g clip-path="url(#b)"><path fill="#E7CD0B" d="M502.717 297.184c7.988 13.625 11.133 23.102 12.837 38.809l.634 5.829-3.657-4.582a23 23 0 0 1-.756-1.012c-4.29-5.66-7.192-8.764-12.772-13.66-5.614-4.911-9.38-7.67-15.082-10.865 1.747 6.173 2.584 11.155 2.577 18.095.005 9.348-.233 15.064-2.598 24.248l-2.03 7.909-1.297-8.061a51 51 0 0 0-.326-1.776c-3.12-15.63-12.935-22.861-25.802-34.678-8.992-8.286-17.458-11.352-26.523-18.03-2.693-1.995-5.81-4.141-8.341-6.594-2.504-2.441-4.58-5.292-4.601-8.812-.002-1.37.346-2.784 1.043-4.175h-.002l11.907-29.915c-11.316-7.464-23.881-14.076-43.006-21.762-31.205-12.502-54.19-12.908-85.685-12.913-31.498.005-54.482.41-85.687 12.913-19.125 7.687-31.691 14.298-43.005 21.762l11.907 29.915h-.002c.696 1.39 1.045 2.805 1.043 4.175-.022 3.52-2.098 6.37-4.602 8.812-2.531 2.452-5.648 4.598-8.341 6.595-9.064 6.677-17.531 9.743-26.521 18.029-12.867 11.817-22.684 19.049-25.803 34.678-.117.593-.23 1.185-.325 1.776l-1.298 8.06-2.03-7.908c-2.365-9.184-2.604-14.9-2.6-24.248-.006-6.94.83-11.922 2.578-18.095-5.702 3.195-9.467 5.954-15.082 10.866-5.58 4.895-8.481 7.999-12.77 13.659-.217.304-.47.652-.757 1.012l-3.657 4.582.634-5.83c1.704-15.705 4.848-25.183 12.836-38.808 7.299-12.52 13.377-19.496 24.67-28.095-8.536-11.88-19.421-28.593-33.913-47.72l-.93-1.224 1.126-1.048c32.935-30.68 54.54-45.94 96.923-63.281 41.94-17.188 71.295-19.988 115.606-19.977 44.31-.012 73.665 2.789 115.605 19.977 42.383 17.34 63.988 32.6 96.923 63.28l1.126 1.049-.93 1.225c-14.492 19.127-25.377 35.839-33.913 47.72 11.293 8.598 17.37 15.574 24.669 28.094"/><path fill="#FFF" d="M421.541 275.164a10 10 0 0 1 2.922-.384c5.041.036 10.573 2.613 15.283 4.376 6.149 2.355 11.196 5.28 18.408 5.273 1.434.063 3.914-1.337 6.93-4.498.318-.329.645-.683.976-1.044-14.261-11.176-24.38-19.592-35.244-27.03zM167.656 251.857c-10.863 7.438-20.982 15.854-35.243 27.03.33.361.657.715.975 1.043 3.016 3.162 5.497 4.562 6.93 4.498 7.212.007 12.26-2.917 18.408-5.27 4.71-1.765 10.242-4.34 15.283-4.378.984-.02 1.97.116 2.922.384z"/><path fill="#FFF" d="M98.693 298.902c-6.724 11.534-9.776 19.505-11.59 31.316 3.012-3.635 5.875-6.49 10.124-10.209 6.808-5.973 11.318-9.07 19.344-13.268l3.638-1.908-1.224 3.921c-2.516 8.107-3.6 13.01-3.607 21.044.003 6.542.106 11.027.95 16.192 4.448-13.377 14.24-20.789 25.397-31.057 9.526-8.734 18.259-11.908 26.8-18.259 2.752-2.03 5.763-4.127 7.997-6.3 2.263-2.186 3.59-4.34 3.569-6.37-.002-.85-.204-1.74-.731-2.764-1.286-2.35-2.841-2.99-5.351-3.058-3.846-.036-9.28 2.307-14.074 4.154-5.77 2.171-11.422 5.486-19.617 5.495-3.24-.066-6.107-2.21-9.375-5.534-2.552-2.645-5.367-6.175-8.517-10.454-11.018 8.431-16.537 14.78-23.733 27.06"/><path fill="#FFF" d="M508.321 220.544c-32.216-29.861-53.138-44.511-94.769-61.58-41.548-16.995-70.095-19.71-114.316-19.721-44.22.012-72.768 2.727-114.316 19.72-41.632 17.07-62.554 31.72-94.769 61.58 13.756 18.262 24.27 34.28 32.453 45.745 2.792 3.912 5.31 7.277 7.58 10.022 30.055-23.564 42.28-35.342 82.1-51.317 31.743-12.74 55.482-13.163 86.953-13.16 31.47-.003 55.21.42 86.952 13.16 39.82 15.975 52.043 27.753 82.098 51.317 2.27-2.745 4.79-6.11 7.58-10.022 8.185-11.464 18.697-27.483 32.454-45.744"/><path fill="#FFF" d="M476.046 271.845c-3.15 4.278-5.964 7.809-8.517 10.453-3.267 3.323-6.135 5.468-9.375 5.533-8.195-.007-13.847-3.322-19.617-5.495-4.795-1.845-10.227-4.188-14.073-4.152-2.51.066-4.064.707-5.35 3.057-.527 1.023-.73 1.915-.732 2.764-.023 2.029 1.307 4.184 3.57 6.369 2.234 2.174 5.245 4.27 7.996 6.3 8.54 6.352 17.275 9.525 26.8 18.26 11.154 10.267 20.949 17.68 25.397 31.057.843-5.166.947-9.652.95-16.193-.01-8.033-1.091-12.936-3.61-21.044l-1.221-3.921 3.637 1.909c8.027 4.198 12.538 7.295 19.345 13.269 4.248 3.719 7.112 6.573 10.123 10.209-1.813-11.811-4.866-19.783-11.59-31.316-7.196-12.281-12.714-18.63-23.733-27.06"/><path d="m112.75 215.532 8.662-6.54 11.789 15.648 8.427-6.36 5.472 7.248-8.428 6.361 5.643 7.493 9.43-7.105 5.463 7.267-18.098 13.616zM142.583 208.897c-4.303-7.178-2.41-14.452 4.963-18.882 7.38-4.43 14.69-2.691 18.998 4.478l11.026 18.347c4.737 7.895 1.962 14.72-4.965 18.891-6.924 4.155-14.261 3.395-18.993-4.478zm20.817 13.56c.822 1.368 2.218 3.7 4.889 2.088 2.687-1.606 1.29-3.93.463-5.302l-12-19.975c-.635-1.058-2.217-3.68-4.89-2.075-2.68 1.61-1.103 4.242-.458 5.303zM171.902 191.308c-3.395-7.654-.631-14.627 7.232-18.122 7.866-3.504 14.907-.9 18.312 6.75l8.707 19.559c3.747 8.415.155 14.848-7.222 18.139-7.385 3.284-14.57 1.638-18.316-6.763zm19.02 16.007c.637 1.45 1.747 3.932 4.595 2.665 2.86-1.276 1.759-3.752 1.114-5.207l-9.491-21.28c-.498-1.122-1.747-3.932-4.598-2.664-2.855 1.26-1.617 4.074-1.11 5.206zM208.398 202.753l6.752-1.938-10.492-36.56 10.427-2.996 10.498 36.567 6.75-1.931 2.503 8.737-23.928 6.859zM247.032 193.754l2.377-.46c2.61-.51 2.944-2.441 2.317-5.674-.552-2.892-1.39-5.312-4.757-4.666l-1.96.38zm-3.495-17.938 2.444-.472c3.297-.652 3.107-3.802 2.493-6.986-.891-4.574-1.636-6.227-5.175-5.535l-2.198.419zm-14.622-18.375 15.114-2.945c9.489-1.844 13.497 3.565 14.998 11.332 1.14 5.837.098 10.079-4.937 12.015l.03.118c5.479.73 7.02 4.889 7.956 9.742 1.547 7.929-1.645 11.616-9.404 13.128l-14.762 2.866zM278.996 191.815l.123-.013 1.323-23.168-5.419.298zm-17.92-38.935 10.84-.568 1.55 8.304 7.6-.406.571-8.41 11.368-.598-6.38 47.533-14.363.746zM298.809 151.35l22.652.396-.17 9.077-11.782-.201-.665 38.035-10.865-.193zM327.963 152.094l22.568 2.358-.952 9.035-11.778-1.232-3.967 37.83-10.81-1.133zM370.877 170.687c2.341-8.044 8.934-11.627 17.2-9.254 8.27 2.377 11.975 8.903 9.651 16.96l-1.617 5.727-10.428-3.002 1.892-6.63c.336-1.19 1.209-4.135-1.792-4.99-3.012-.87-3.87 2.08-4.198 3.266l-6.409 22.404c-.462 1.53-1.209 4.133 1.809 5.003 3.002.852 3.741-1.752 4.2-3.28l1.45-5.112 10.405 3.002-1.202 4.188c-2.509 8.852-9.393 11.474-17.174 9.245-7.759-2.219-12.214-8.117-9.668-16.95zM408.61 168.738l20.694 9.21-3.677 8.291-10.774-4.796-15.5 34.762-9.914-4.425zM427.396 190.976c4.325-7.178 11.617-8.922 19.009-4.473 7.384 4.43 9.284 11.7 4.97 18.882l-17.653 29.362-9.305-5.587 17.708-29.477c1.309-2.172 2.463-4.094-.21-5.705-2.71-1.608-3.83.318-5.135 2.484l-17.733 29.482-9.3-5.588zM450.72 237.315l1.958 1.441c2.11 1.604 3.772.577 5.763-2.066 1.76-2.359 3.046-4.596.31-6.658l-1.621-1.197zm11.02-14.609 1.978 1.48c2.673 2.036 4.91-.218 6.85-2.805 2.8-3.716 3.56-5.38.678-7.548l-1.796-1.346zm3.875-23.16 12.29 9.267c7.723 5.823 6.382 12.402 1.637 18.73-3.595 4.756-7.44 6.81-12.237 4.368l-.083.095c3.124 4.571 1.075 8.476-1.9 12.44-4.888 6.46-9.76 6.543-16.055 1.794l-12.023-9.047z"/><path fill="#E7CD0B" d="M298.378 238.158c-17.895 10.422-27.738 17.196-43.87 30.196-26.293 21.144-42.514 34.821-60.518 62.498-8.142 12.51-12.188 27.528-12.194 40.913v212.682h234.88V371.765c-.006-13.385-4.053-28.405-12.196-40.91-18.004-27.68-34.226-41.357-60.519-62.5-16.13-13-25.972-19.775-43.87-30.197l-.857-.498z"/><path fill="#FFF" d="M413.273 581.044V371.765c-.007-13.465-4.25-27.7-11.645-39.055-17.707-27.224-33.467-40.53-59.802-61.707-15.719-12.667-25.406-19.365-42.592-29.405-17.187 10.043-26.876 16.741-42.594 29.41-26.33 21.172-42.092 34.48-59.799 61.702-7.393 11.356-11.637 25.593-11.643 39.055v209.28z"/><path fill="#D72241" d="M199.22 334.256c17.471-26.86 33.092-40.046 59.198-61.04 15.251-12.29 24.63-18.815 40.817-28.33 16.178 9.507 25.557 16.034 40.813 28.327 26.11 20.997 41.733 34.184 59.204 61.043 7.101 10.908 11.177 24.579 11.184 37.509h-222.4c.005-12.927 4.081-26.6 11.183-37.51"/><path fill="#A7A6A6" d="M410.437 466.254H188.036v-.681h222.401z"/><path fill="#4C56AF" d="M360.57 578.209H236.741l61.914-19.864zM410.437 522.481v54.448l-84.854-27.224zM188.035 576.557v-53.703l83.693 26.85zM407.665 490.034l-12.195-19.841-12.199 19.84zm-41.889 22.694h24.393l-12.196-19.841zm-5.301-42.535-12.197 19.84h24.393zm-29.693 42.535h24.394l-12.197-19.841zm-5.301-42.535-12.197 19.84h24.395zm-29.693 42.535h24.393l-12.196-19.841zm-5.301-42.535-12.197 19.84h24.394zm-29.694 42.535h24.394l-12.196-19.841zm-5.3-42.535-12.198 19.84h24.394zm-29.694 42.535h24.394l-12.196-19.841zm-5.301-42.535-12.197 19.84h24.394zm-29.693 42.535h24.394l-12.197-19.841zm219.631 0v3.937h-35.724l-76.056 24.402-76.056-24.402h-34.564v-26.631h9.666l-9.666-15.724v-8.055h222.4v30.749l-9.667 15.724z"/><path fill="#E7CD0B" d="m360.57 578.209-61.915-19.864-61.914 19.863h-48.706v-1.652l83.693-26.85-83.693-26.852v-6.189H222.6l76.056 24.401 76.057-24.4h35.724v5.815l-84.853 27.224 84.853 27.224v1.28z"/><path fill="#FFF" d="M185.2 465.913v-94.148h228.07v93.81H185.2z"/><path fill="#E7CD0B" d="M299.236 294.358c2.255 7.515.578 12.416 3.116 19.845 3.846 11.201 11.971 15.954 9.507 29.773-1.136 6.373-4.572 8.777-8.09 14.041-1.689 2.537-3.538 4.11-4.533 6.373-.997-2.262-2.845-3.836-4.534-6.373-3.519-5.264-6.955-7.669-8.09-14.04-2.465-13.82 5.661-18.573 9.505-29.774 2.54-7.429.862-12.33 3.12-19.845M268.549 316.753c3.126 2.84 9.14 1.193 12.912-2.263 5.387-4.963 8.067-10.5 10.059-19.567.13 11.196-.71 20.27-8.091 27.22-6.83 6.45-14.454 9.927-23.515 5.253-7.982-4.111-9.714-15.5-4.55-22.972 2.56-3.687 9.63-5.251 13.047-2.84 1.464 1.04 2.427 2.63 2.4 4.675 0 .966-.126 1.538-.554 2.408-1.367-.49-2.826-.726-3.69.432-1.69 2.27-.298 5.583 1.982 7.654M284.332 284.927c0-1.608 6.66-2.905 14.905-2.905 8.242 0 14.902 1.298 14.902 2.905 0 1.595-6.66 2.904-14.903 2.904s-14.904-1.31-14.904-2.904M338.558 327.396c-9.061 4.675-16.685 1.197-23.516-5.252-7.38-6.95-8.22-16.024-8.09-27.221 1.993 9.07 4.672 14.605 10.059 19.568 3.773 3.456 9.787 5.102 12.913 2.262 2.28-2.071 3.672-5.382 1.982-7.654-.864-1.157-2.323-.923-3.69-.432-.428-.87-.555-1.442-.555-2.41-.026-2.044.938-3.634 2.402-4.673 3.416-2.413 10.487-.847 13.047 2.84 5.163 7.472 3.43 18.862-4.552 22.972M309.766 278.194h-21.06c-.85-2.142-1.67-3.304-3.403-4.832-2.547-2.215-4.701-3.054-8.074-3.11 3.587-2.237 6.8-2.579 10.763-1.14 2.427.886 3.774 1.83 5.402 3.831 1.55-1.137 2.698-2.133 3.69-4.404 1.284-2.914 1.444-3.958 2.153-7.078.708 3.12.868 4.164 2.15 7.078.993 2.271 2.14 3.267 3.69 4.404 1.629-2 2.976-2.945 5.403-3.832 3.963-1.438 7.177-1.097 10.764 1.141-3.374.056-5.528.895-8.075 3.11-1.733 1.528-2.553 2.69-3.403 4.832"/><path d="m280.969 433.02-8.357-7.798c5.446-3.781 7.49-11.356 7.266-17.225a.8.8 0 0 0 .345-.03c1.096-.362 1.568-.528 2.602-.531 1.574.009 2.357.29 3.883 1.053a.796.796 0 0 0 1.067-.347.796.796 0 0 0-.348-1.069c-1.545-.797-2.767-1.226-4.535-1.226h-.067c-1.23-.005-2.024.251-3.06.598-.164-1.439-.471-2.731-.911-3.772a13.7 13.7 0 0 0-2.924-4.372h-.016a13 13 0 0 0-.895-.818.78.78 0 0 0 .644-.764c-.056-.864-.33-1.077-.273-1.209-.006-2.592 1.77-4.013 4.212-5.805a.793.793 0 0 0-.471-1.434.78.78 0 0 0-.47.154c-2.38 1.737-4.852 3.602-4.86 7.085.059.864.332 1.078.274 1.209 0 .02.01.036.012.054-1.691-1.179-3.704-2.003-6.008-2.318-2.28-.313-4.185.066-5.898.88-1.15-1.392-2.29-3.673-2.254-5.066 0-1.319.076-2.066.154-3.43a.795.795 0 0 0-.747-.839l-.045-.002a.796.796 0 0 0-.794.75c-.074 1.325-.156 2.134-.156 3.522.033 1.984 1.177 4.228 2.453 5.845-.96.62-1.871 1.36-2.76 2.198h-.013c-1.556 1.473-3.043 3.203-4.69 4.923a204 204 0 0 0-5.696 6.24.8.8 0 0 0-.545-.222c-2.896-.029-5.267-1.085-5.735-3.61a.795.795 0 0 0-1.561.296c.64 3.341 3.658 4.744 6.664 4.89-3.8 4.413-6.786 8.234-11.556 13.679a2171 2171 0 0 1-11.621 13.182c-2.005-1.21-3.07-2.005-4.841-3.545-1.717-1.511-2.645-2.466-4.095-4.244a695 695 0 0 1 7.37-9.1c.39 2.716 2.06 5.311 3.835 7.104a.79.79 0 0 0 1.122.003.795.795 0 0 0 .002-1.123c-1.813-1.798-3.48-4.672-3.458-7.1a.8.8 0 0 0-.18-.484c3.558-4.302 7.333-8.797 12.012-14.402a461 461 0 0 1 5.444-6.509h.008c7.667-8.98 15.412-16.769 23.893-17.454s13.677 1.045 19.55 6.523c3.24 3.015 5.449 6.767 6.69 10.941 1.869 6.417 1.454 13.817-1 21.1-2.017 5.965-4.108 9.259-8.662 13.619"/><path d="M294.167 444.641c-1.134 4.701-7.445 3.59-11.916 3.403-2.641-.109-5.257-1.12-7.861-2.692 1.982-2.286 4.034-3.002 7.295-3.029a.794.794 0 0 0 0-1.588h-.149c-3.495 0-6.255 1.016-8.499 3.751-3.651-2.468-7.281-5.929-10.922-9.487a150 150 0 0 0-2.264-2.169c2.056-1.754 3.894-2.584 6.922-3a.795.795 0 0 0-.103-1.582 1 1 0 0 0-.105.008c-3.317.42-5.595 1.496-7.889 3.481-3.104-2.863-5.833-5.21-8.683-8.09 2.01-1.704 3.977-2.007 7.017-2.026a.793.793 0 1 0 0-1.588q-.103-.003-.205-.002c-3.051 0-5.587.448-7.92 2.473a81 81 0 0 1-3.64-4.09l7.234-8.366c5.956 6.52 9.219 10.358 15.873 16.164 5.972 5.182 8.752 9.494 16.162 12.194 3.508 1.277 5.118-1.14 9.367 1.983 1.348.98.675 2.638.286 4.252"/><path d="M231.217 402.674c-1.16-1.354-2.761-2.896-4.606-4.36h-.016c-3.167-2.487-7.118-4.694-11.073-5.188-.552-.767-.796-1.56-.808-2.648.008-1.882.689-2.854 1.852-4.674a.794.794 0 1 0-1.337-.857c-1.118 1.736-2.111 3.176-2.103 5.53a6 6 0 0 0 .522 2.556c-1.86.04-3.691.502-5.413 1.566a12.6 12.6 0 0 0-3.855 3.705h-.006c-2.581 3.82-3.118 8.753-3.217 12.87-.075 2.934.534 5.758 1.667 8.492-1.355-.563-2.737-1.292-4.857-1.336-.86.014-1.263.249-1.722.284a.794.794 0 0 0 .173 1.58c.812-.106 1.095-.288 1.549-.275 2.145-.056 3.54 1.162 5.77 1.712 2.142 4.179 5.47 8.158 9.423 12.02-3.035.045-5.475.746-7.747 3.057a.793.793 0 1 0 1.125 1.12c2.13-2.104 3.977-2.574 7.09-2.597.314 0 .58-.186.709-.452a110 110 0 0 0 2.406 2.21c4.227 3.756 8.545 6.433 13.204 7.906-2.21 2.038-3.075 4.436-3.497 7.577a.793.793 0 0 0 .676.897.79.79 0 0 0 .897-.675c.503-3.398 1.263-5.305 3.787-7.278 4.378 1.059 9.072 1.083 14.287-.06a47 47 0 0 0 2.818-.708c-1.502 2.569-3.658 4.348-4.575 8.033a.794.794 0 1 0 1.544.37c.829-3.64 3.432-5.246 5.143-9.084 3.41-1.241 6.109-2.972 9.396-5.847l8.5 7.656c-10.062 8.652-15.99 10.249-27.505 10.775-15.644.719-26.086-4.676-36.866-15.88-11.09-11.53-16.45-23.534-13.176-38.848.246-1.206.58-2.372.983-3.52h.006c3.53-9.951 12.445-16.83 23.672-17.035 10.073-.18 15.892 6.382 22.559 12.612l-3.713 4.422zM203.566 444.073c1.145 1.437 1.881 2.202 3.253 3.405 1.581 1.385 2.57 2.082 4.401 3.117l-5.4 5.815c-2.026 2.272-5.513 2.455-7.78.424-1.866-1.664-2.372-3.934-1.429-6.239zM371.127 388.214l-16.755 9.923-17.622-9.923zM312.897 386.515c-3.491-2.465-8.77-5.17-6.527-8.795 2.262-3.63 6.947.109 10.769 1.987 3.053 1.487 4.678 2.77 6.82 5.378l-2.536 4.539c-3.534-.305-5.644-1.074-8.526-3.11"/><path d="m387.758 400.086-1.87-1.566 1.106-4.09-1.308-3.097-25.94 13.777 42.164 25.35-.327.596-46.897-23.258-39.723 21.098-.342-.587 35.366-22.841-21.94-10.878-1.75 2.253-.301 6.794-2.343-.384-1.463-11.137 4.406-7.604 11.148-2.405-.402 2.406-4.105 1.165-2.188 2.182 23.927 14.385 26.788-17.302-.76-2.237-5.666-3.746 1.52-1.796 10.3 4.484 4.266 7.673zM400.395 383.714c-2.854 1.852-4.766 2.573-8.148 3.059l-2.549-4.523c2.084-2.855 3.836-4.26 7.034-5.691 3.92-1.717 8.975-4.86 10.918-1.053 1.94 3.8-3.67 5.893-7.255 8.208"/><path d="m392.645 391.044 5.963-2.546.54 2.546-3.656 5.116-.31 14.74-6.51 2.836 2.565 1.978 4.805.577v1.975h-5.644l-22.133-13.61 13.623-7.648 2.83-1.992-.582 5.679 3.98 1.979zM338.453 404.094l1.113 2.547-11.328 7.65.561-7.93 5.966-3.688zM355.842 419.164c-.538.442-1.14.83-1.72 1.201-1.652 1.057-3.115 2.025-3.105 3.863-.106 2.932-3.223 3.643-3.12 5.953.01 1.367.87 2.003 2.278 2.434 1.395.408 3.227.483 4.799.621l.19.017.678 1.383zm-8.863 2.26c-.875-.084-1.354-.259-2.221-.257-1.137.004-1.953.627-2.54 1.604-.577.973-.87 2.287-.868 3.508 0 .671.088.983.222 1.624l1.075.221c1.808-.927 2.576-2.124 4.322-3.534.184-.52.252-.974.252-1.427 0-.542-.102-1.092-.242-1.739m34.629 37.684-2.25-2.833c-2.463.083-3.932-.11-6.264-.859-1.48-.467-2.38-.863-3.56-1.559-.144-.085-.66-.469-.66-.469-.641-.75-1.094-1.445-1.591-2.432-.726-1.496-.558-2.414-1.111-3.387-1.06-1.894-2.342-2.387-4.348-4.015-2.078-1.689-3.284-2.529-5.595-3.905l-.387-.232v-4.404l-.287.044c-.79.121-1.505.146-2.174.146-.477 0-.934-.014-1.37-.014-1.164.002-2.221.083-3.461.68-4.741 2.272-6.055 7.92-11.8 7.98-2.427-.032-2.966-2.389-3.702-3.853-1.418-1.85-3.232-2.38-5.668-2.39-2.26-.017-3.281 2.046-4.375 4.347-1.07 2.238-2.21 4.714-4.987 4.733-1.847.01-2.923-1.256-3.51-2.812-.604-1.564-.831-3.496-1.09-5.136a5 5 0 0 1-.078-.88c-.014-1.556.845-2.569 2.055-3.148 1.209-.593 2.779-.862 4.428-1.138l.416-.07-.15 3.385 4.04-2.78 4.998-.526-1.51-3 .143-.173a5.5 5.5 0 0 0 .73-1.216c1.83-4.115 6.506-4.508 10.075-6.403 3.03-1.53 3.62-5.646 7.559-5.718 2.223.022 3.369 1.166 5.264 1.145 1.85-.002 3.02-.918 4.454-2.187v-.314h.302l.486-.996.648.148c-.03.26.238.47.266 1.07a3.8 3.8 0 0 1-.114.896v21.683c2.109 1.27 3.408 2.188 5.398 3.808 1.764 1.463 3.409 2.136 4.734 4.482.767 1.497.595 2.433 1.134 3.431.422.82.73 1.326 1.188 1.886l13.432-16.84v25.241zM319.147 403.238l-2.568 1.136v9.07l2.567-.84zm3.394 13.054-9.645 5.95v-30.626l7.105 5.392zM395.492 434.999l.271 5.105-5.365 4.537.272 3.969 4.822-2.265v4.251l-8.51 9.646.287-29.492z"/><path d="m365.44 419.402 8.227 3.967 6.252 7.088-7.973 9.647h-7.062l.262-3.965h5.98l.819-2.844-7.061-.275v-4.262l7.06-.277-6.798-4.824z"/><path fill="#E7CD0B" d="M519.458 575.89a97 97 0 0 0-2.088 1.572c-16.641 12.658-20.67 18.514-35.635 29.336-12.697 9.181-20.372 14.225-33.649 21.867l17.169 33.871.021.05c.134.302.191.633.191.914-.036 1.001-.476 1.57-.908 2.115-.455.537-1.023 1.043-1.716 1.584-1.385 1.076-3.283 2.276-5.631 3.604-4.691 2.65-11.163 5.777-18.507 8.95-14.693 6.341-32.827 12.844-46.941 15.815-35.405 7.438-54.746 9.681-92.528 9.675-37.781.006-57.123-2.237-92.528-9.675-14.115-2.97-32.249-9.474-46.941-15.816-7.345-3.172-13.816-6.299-18.507-8.949-2.347-1.328-4.246-2.528-5.631-3.604-.694-.54-1.26-1.047-1.715-1.584-.433-.545-.873-1.114-.909-2.115 0-.28.057-.612.191-.914l.021-.05 17.169-33.87c-13.277-7.643-20.952-12.687-33.649-21.868-14.966-10.822-18.993-16.678-35.635-29.336a97 97 0 0 0-2.088-1.572l-.186-.137 1.759-2.858.223.117c6.928 3.61 10.958 5.078 18.593 6.796 5.562 1.226 8.883 1.668 14.095 1.768-.349-5.556-.476-9.243-.57-15.259a436 436 0 0 1-.065-7.186c0-7.477.259-13.384.906-22.17l.001-.022 3.38-.097c.203 1.288.425 2.5.687 3.67 2.446 10.681 7.873 17.42 14.564 24 9.404 9.223 17.208 13.135 29.206 20.604 7.525 4.702 16.804 8.536 24.214 11.483 3.708 1.477 6.946 2.73 9.32 3.797 1.192.538 2.163 1.02 2.936 1.517.385.254.726.504 1.048.847.293.33.67.812.701 1.612l.023.36-5.182 12.094c6.516 2.405 14.012 4.824 22.326 7.063 22.487 6.067 50.965 10.884 82.242 10.882h.002c31.278.002 59.755-4.815 82.242-10.882 8.313-2.239 15.81-4.658 22.326-7.063l-5.182-12.094.023-.36c.031-.8.408-1.282.702-1.612.32-.343.662-.593 1.048-.847.772-.498 1.743-.979 2.936-1.517 2.373-1.067 5.612-2.32 9.32-3.797 7.41-2.947 16.688-6.78 24.214-11.483 11.998-7.469 19.802-11.38 29.206-20.604 6.691-6.58 12.118-13.319 14.563-24 .263-1.17.486-2.382.688-3.67l3.379.097.002.022c.648 8.786.906 14.693.906 22.17 0 2.218-.023 4.574-.066 7.186-.093 6.016-.22 9.703-.569 15.26 5.212-.1 8.532-.543 14.095-1.769 7.634-1.718 11.664-3.187 18.592-6.796l.223-.117 1.759 2.858z"/><path fill="#FFF" d="M192.412 602.919c-7.316-3.112-21.534-8.01-32.606-14.915-11.82-7.367-20.013-11.48-29.787-21.064-5.465-5.352-10.406-11.171-13.508-19.137-.17 3.787-.244 7.32-.245 11.328 0 2.196.024 4.534.065 7.134.106 6.632.244 10.32.683 16.922l.122 1.82-1.827-.006c-6.451-.021-10.346-.472-16.645-1.872-2.767-.616-5.13-1.224-7.342-1.918 10.579 8.72 15.455 14.2 27.408 22.83 12.61 9.114 20.086 14.03 33.197 21.586l12.676-25.008.309-.235c1.04-.705 1.885-.665 2.932-.707 3.787.019 10.435 1.55 15.434 2.526 4.112.805 8.5 1.697 11.227 1.687l.079-.002a36 36 0 0 0-2.172-.97"/><path fill="#FFF" d="M195.06 607.272q-.274.011-.555.02c-3.356-.011-7.764-.957-11.88-1.75-4.997-.997-11.798-2.484-14.781-2.463-.04 0-.074.002-.112.003.568.628 1.623 1.549 3.104 2.535 4.059 2.758 11.158 6.327 20.647 10.004z"/><path fill="#FFF" d="M391.735 624.476c-23.959 7.346-56.352 13.698-92.498 13.698h-.002c-36.146 0-68.54-6.352-92.498-13.698-11.98-3.675-21.85-7.593-29.052-11.115-3.6-1.764-6.535-3.424-8.758-4.928-1.31-.903-2.367-1.713-3.193-2.52l-29.177 57.558c.325.354 1.03 1.005 2.011 1.67 9.862 6.983 45.586 22.243 68.838 27.097 35.323 7.408 54.16 9.596 91.83 9.602 37.671-.006 56.507-2.194 91.83-9.602 23.252-4.854 58.976-20.114 68.837-27.097.981-.665 1.687-1.316 2.012-1.67l-29.177-57.559c-.826.808-1.882 1.618-3.193 2.521-2.223 1.504-5.157 3.164-8.758 4.928-7.202 3.522-17.072 7.44-29.052 11.115"/><path fill="#FFF" d="M406.99 615.621c9.488-3.677 16.588-7.246 20.647-10.004 1.48-.986 2.537-1.907 3.105-2.536l-.112-.002c-2.984-.02-9.785 1.466-14.782 2.463-4.117.793-8.524 1.74-11.88 1.75q-.282-.009-.555-.02z"/><path fill="#FFF" d="M499.809 583.129c-6.3 1.399-10.194 1.85-16.646 1.87l-1.826.009.122-1.822c.44-6.601.578-10.29.683-16.922.04-2.6.066-4.937.066-7.133a248 248 0 0 0-.245-11.328c-3.101 7.965-8.043 13.785-13.507 19.136-9.776 9.585-17.97 13.698-29.79 21.065-11.071 6.906-25.29 11.803-32.604 14.915-.813.33-1.548.664-2.173.968l.08.002c2.727.01 7.115-.881 11.227-1.687 4.999-.975 11.646-2.507 15.434-2.525 1.047.04 1.89.002 2.933.706l.309.236 12.675 25.007c13.112-7.556 20.587-12.472 33.198-21.586 11.95-8.63 16.828-14.11 27.407-22.83-2.213.694-4.576 1.303-7.343 1.919"/><path d="m161.949 656.68 6.514 2.63 14.246-35.277 10.064 4.067-14.253 35.274 6.513 2.626-3.41 8.42-23.08-9.318zM200.81 672.491l.102.04 8.792-21.476-5.219-1.498zm-4.282-42.642 10.42 2.987-1.218 8.37 7.31 2.09 3.272-7.778 10.935 3.146-21.486 42.862-13.82-3.972zM229.36 639.175l10.395 1.459-5.092 36.272.117.016 11.115-35.432 7.007.98.915 37.125.11.018 5.102-36.27 10.4 1.457-6.559 46.674-16.945-2.392.214-23.556-.122-.005-6.283 22.696-16.94-2.372zM277.014 644.828l12.117.218 3.084 29.073.107.01 3.707-28.954 12.107.197 7.425 47.262-10.907-.18-3.303-33.565h-.127l-3.89 33.432-10.565-.18-2.892-33.558h-.118l-4.428 33.428-11.157-.199zM315.943 658.219c-.6-8.354 4.395-13.965 13.01-14.57 8.61-.598 14.325 4.266 14.906 12.619l1.5 21.364c.645 9.174-4.934 13.995-13.003 14.56-8.078.562-14.278-3.435-14.91-12.612zm12.394 21.538c.11 1.59.305 4.3 3.425 4.08 3.123-.22 2.936-2.92 2.813-4.506l-1.616-23.244c-.092-1.237-.285-4.292-3.425-4.078-3.128.218-2.902 3.274-2.84 4.508zM362.598 679.757l2.105-.332c4.195-.662 3.873-2.527 3.39-5.795-.497-3.023-.874-5.468-4.535-4.89l-2.625.416zm-16.877-36.925 10.773-1.704 3.164 20.114 1.992-.326c3.018-.472 3.896-1.808 3.473-4.486l-1.202-7.46c-.48-3.087-1.135-7.283-.163-8.984l10.616-1.685c-.982 1.704-.21 5.885.28 8.976l1.302 8.207c.629 3.899-1.411 7.029-5.055 8.39l.017.11c5.993.854 7.302 4.28 8.165 9.764 1.326 8.388-2.234 11.874-11.806 13.392l-14.156 2.237zM382.314 675.259l6.762-1.806-9.83-36.755 10.445-2.805 9.866 36.744 6.78-1.815 2.354 8.768-24.044 6.455zM396.63 631.945l10.035-4.07 7.515 18.6 5.802-2.337-7.502-18.598 10.066-4.058 17.633 43.694-10.036 4.063-6.618-16.352-5.816 2.346 6.637 16.343-10.083 4.068z"/></g></g></svg>