<svg xmlns="http://www.w3.org/2000/svg" viewBox="98.26 178.44 627.99 774.4"><path d="m474.402 649.482 1.816-167.887c.908-65.341-3.63-123.42-60.803-163.35l-106.177-73.508-105.271 73.508c-57.172 39.93-61.71 98.009-60.802 163.35l1.814 167.887c68.063-22.687 121.605-6.353 164.26 27.226 42.65-36.3 96.194-52.636 165.163-27.226" style="fill:#d4dcd9;fill-opacity:1;fill-rule:evenodd;stroke:none" transform="matrix(1.33333 0 0 -1.33333 -.667 1121.853)"/><path d="M119.57 689.412c67.155-29.04 127.957-21.78 187.853 17.242l1.815.908 3.63-1.815c63.525-40.837 125.235-43.56 186.945-16.335l2.722-207.817c.908-77.138-5.445-138.848-71.692-184.223l-116.16-80.768-5.445-3.63-4.538 3.63-116.16 80.768c-66.248 45.375-72.6 107.993-71.693 184.223zm26.317-201.465h327.608l-1.814 156.998c-58.988-19.966-114.346-12.706-162.443 28.132-48.099-39.023-105.271-46.282-161.536-28.132zm327.608-24.502H145.887c.908-56.265 9.075-107.086 59.895-142.478l103.456-72.6 104.363 72.6c52.634 36.3 58.987 88.028 59.894 142.478" style="fill:#30312c;fill-opacity:1;fill-rule:evenodd;stroke:none" transform="matrix(1.33333 0 0 -1.33333 -.667 1121.853)"/><path d="M122.292 684.875c65.34-28.133 127.958-19.058 186.946 19.057 59.894-38.115 121.605-47.19 187.852-19.057l2.723-203.28c.907-76.23-5.445-137.033-70.786-182.408l-119.789-82.583-118.884 82.583c-65.34 45.375-71.692 106.178-70.784 182.408zm352.11-35.393 1.816-167.887c.908-65.341-3.63-123.42-60.803-163.35l-106.177-73.508-105.271 73.508c-57.172 39.93-61.71 98.009-60.802 163.35l1.814 167.887c68.063-22.687 121.605-6.353 164.26 27.226 42.65-36.3 96.194-52.636 165.163-27.226" style="fill:#f2b637;fill-opacity:1;fill-rule:evenodd;stroke:none" transform="matrix(1.33333 0 0 -1.33333 -.667 1121.853)"/><path d="M501.628 341.84v19.965h4.537c8.167 0 19.966-5.446 19.966-14.52.907-4.538-4.538-5.445-8.168-5.445zm-19.965-43.56 46.281-31.763c-41.744-77.138-131.587-130.68-217.8-130.68-87.12 0-176.055 52.635-218.707 130.68l46.283 31.762c34.484-65.339 100.732-105.27 171.518-105.27h.907c71.693 0 137.033 39.931 171.518 105.27m-363.909 43.56h-15.427c-4.537 0-9.075.908-9.075 5.445 0 8.168 11.797 14.52 19.965 14.52h4.537zM91.437 335.487l.908-34.484h38.114l14.52 9.981-.907 23.595zM528.853 335.487l-.909-35.392H489.83l-14.52 10.89.908 23.594z" style="fill:#6ecee5;fill-opacity:1;fill-rule:evenodd;stroke:none" transform="matrix(1.33333 0 0 -1.33333 -.667 1121.853)"/><path d="M310.145 201.178c66.248 0 130.68 38.114 162.443 98.917-3.631 3.63-8.168 7.26-8.168 11.797v16.336c0 6.351 9.075 16.335 15.428 16.335h12.705v25.409h14.52c14.52 0 30.855-9.076 29.947-22.688h.908v-39.93c0-9.982-8.168-16.334-18.15-16.334H507.98l37.208-25.41c-1.815 0-7.26 0-9.075-1.815-2.723-6.354-7.26-12.705-10.89-18.15-12.705-19.965-29.04-38.116-46.283-53.542-24.502-20.874-52.634-37.208-81.675-48.1-28.133-10.888-58.08-17.241-88.027-17.241-46.284 0-92.566 14.52-132.496 39.93-26.318 16.335-49.913 37.207-69.878 60.803-8.167 11.797-17.242 23.595-23.594 36.3-1.816.907-6.353.907-9.075 1.814l37.207 25.41H99.604c-9.982 0-17.242 6.353-17.242 16.335v39.93c0 12.706 14.52 22.688 26.317 22.688h18.15v-25.41h12.706c6.352 0 15.427-9.075 15.427-16.334v-16.336c0-4.538-4.538-8.167-8.167-11.797 32.67-60.803 96.194-98.917 163.35-98.917M526.13 333.672c-2.724 0-5.445-.907-8.168-.907h-32.67c-4.537 0-8.167 0-8.167-4.537v-13.613c0-2.723 1.814-4.538 4.537-5.445l9.075-6.354h24.502c9.983 0 10.89.909 10.89 8.168zm-397.485-30.856 9.982 6.354c.908.907 3.63 3.63 3.63 5.445v13.613c0 4.537-4.537 4.537-8.168 4.537H99.604c-1.814 0-3.63.907-5.444.907v-22.688c0-7.26 0-8.168 9.982-8.168zm375.706 41.747h15.426c2.724 0 6.354 0 6.354 2.721-.908 7.26-13.613 10.89-19.966 10.89h-1.814zm-21.782-50.82c-35.391-63.526-99.824-103.456-172.424-104.364-73.508 0-138.848 42.653-173.333 104.363L95.975 265.61c7.26-12.705 15.427-25.41 25.41-36.3 19.057-22.687 42.652-42.652 68.062-57.172 36.3-20.872 78.045-33.577 120.698-33.577 20.873 0 41.745 3.63 62.618 9.074 31.762 9.075 62.618 25.41 89.842 46.283 24.502 19.965 46.283 44.467 61.71 71.692zm-367.537 50.82v13.613h-1.815c-9.075 0-18.15-3.63-19.965-10.89 0-2.723 4.538-2.723 6.352-2.723z" style="fill:#30312c;fill-opacity:1;fill-rule:evenodd;stroke:none" transform="matrix(1.33333 0 0 -1.33333 -.667 1121.853)"/><path d="M143.165 301.003c28.132-56.266 88.935-100.733 166.073-102.549h.907c77.137 1.816 137.94 46.283 166.981 102.549-4.538 2.722-9.075 7.259-9.075 11.797v15.428c0 5.444 6.351 13.612 11.797 13.612h15.427v25.41h11.797c11.798 0 27.226-8.168 27.226-19.966 0-5.444-4.538-10.89-16.335-10.89h-32.67c-6.353 0-10.89-2.722-10.89-8.166v-13.613c0-3.63 2.723-6.353 5.445-8.169l57.172-39.93c-.907 0-2.722-.907-3.63-1.814-54.45-98.918-156.997-135.218-223.245-135.218-67.156 0-169.703 36.3-224.153 135.218-.908.907-1.815 1.815-3.63 1.815l57.173 39.93c2.722 1.815 5.444 4.537 5.444 8.168v13.613c0 5.444-4.537 8.167-10.89 8.167H99.604c-10.89 0-14.52 5.445-14.52 10.89 0 11.797 17.243 19.965 26.318 19.965h12.705v-25.41h15.428c6.352 0 11.797-8.168 11.797-13.612V312.8c0-4.538-4.537-9.075-8.167-11.797m358.463 40.837v19.965h4.537c8.167 0 21.78-5.446 22.688-14.52 0-4.538-5.446-5.445-9.076-5.445zm-19.964-43.56 46.281-31.763c-41.744-77.138-131.587-130.68-217.8-130.68-87.12 0-176.055 52.635-218.707 130.68l46.283 31.762c34.484-65.339 100.732-105.27 171.518-105.27h.907c71.693 0 137.033 39.931 171.518 105.27m-363.909 43.56h-18.15c-4.537 0-9.075.908-8.167 5.445 0 8.168 12.705 14.52 19.965 14.52h6.352z" style="fill:#f2b637;fill-opacity:1;fill-rule:evenodd;stroke:none" transform="matrix(1.33333 0 0 -1.33333 -.667 1121.853)"/><path d="M85.084 338.209v-30.855c0-7.26 5.445-13.612 14.52-13.612h16.335l9.075 6.353h-20.872c-10.89 0-13.613.908-13.613 10.89v23.594c-1.815.908-3.63 1.816-5.445 3.63M534.298 339.117v-31.763c0-7.26-5.445-13.612-14.52-13.612h-16.335l-8.168 6.353h19.965c10.89 0 13.613.908 13.613 10.89v23.594c2.722 1.816 3.63 1.816 5.445 4.538" style="fill:#f2b637;fill-opacity:1;fill-rule:evenodd;stroke:none" transform="matrix(1.33333 0 0 -1.33333 -.667 1121.853)"/><path d="M115.032 329.134c5.445 0 9.982-4.537 9.982-10.889 0-5.445-4.537-9.983-9.982-9.983-6.353 0-10.89 4.538-10.89 9.983 0 6.352 4.537 10.889 10.89 10.889" style="fill:#30312c;fill-opacity:1;fill-rule:evenodd;stroke:none" transform="matrix(1.33333 0 0 -1.33333 -.667 1121.853)"/><path d="M115.032 326.412c3.63 0 7.26-3.63 7.26-8.167 0-3.63-3.63-7.26-7.26-7.26-4.537 0-8.168 3.63-8.168 7.26a8.134 8.134 0 0 0 8.168 8.167" style="fill:#f2b637;fill-opacity:1;fill-rule:evenodd;stroke:none" transform="matrix(1.33333 0 0 -1.33333 -.667 1121.853)"/><path d="M504.35 329.134c-5.445 0-9.982-4.537-9.982-10.889 0-5.445 4.537-9.983 9.983-9.983 6.351 0 10.89 4.538 10.89 9.983 0 6.352-4.539 10.889-10.89 10.889" style="fill:#30312c;fill-opacity:1;fill-rule:evenodd;stroke:none" transform="matrix(1.33333 0 0 -1.33333 -.667 1121.853)"/><path d="M504.35 326.412c-3.63 0-7.26-3.63-7.26-8.167 0-3.63 3.63-7.26 7.26-7.26 4.538 0 8.168 3.63 8.168 7.26a8.133 8.133 0 0 1-8.167 8.167" style="fill:#f2b637;fill-opacity:1;fill-rule:evenodd;stroke:none" transform="matrix(1.33333 0 0 -1.33333 -.667 1121.853)"/><path d="M145.887 485.225h327.608V472.52h-1.814l1.814-4.538v-1.815h-5.444l-2.724 6.353h-2.722l2.722-6.353h-6.351l-2.723 6.353h-2.723l2.723-6.353H449.9l-2.722 6.353h-2.723l2.723-6.353h-6.353l-2.722 6.353h-2.722l2.722-6.353h-6.352l-2.724 6.353h-2.721l2.721-6.353h-6.351l-2.724 6.353h-2.722l2.722-6.353h-6.351l-2.723 6.353h-2.723l2.723-6.353h-6.353l-2.722 6.353h-3.63l3.63-6.353h-6.353l-2.722 6.353h-3.63l3.63-6.353h-6.352l-2.724 6.353h-3.63l3.63-6.353h-6.351l-2.724 6.353h-3.63l3.63-6.353h-6.351l-2.723 6.353h-3.63l3.63-6.353h-6.353l-2.722 6.353h-3.63l3.63-6.353h-6.353l-2.722 6.353h-3.63l3.63-6.353H341l-2.724 6.353h-3.63l3.63-6.353h-6.351l-2.724 6.353h-3.63l3.63-6.353h-6.351l-2.723 6.353h-3.63l3.63-6.353h-6.353l-2.722 6.353h-3.63l3.63-6.353H304.7l-2.722 6.353h-3.63l3.63-6.353h-6.353l-2.723 6.353h-3.63l3.63-6.353h-6.353l-3.63 6.353h-2.722l3.63-6.353h-6.352l-3.63 6.353h-2.723l2.723-6.353h-5.446l-3.63 6.353h-2.722l2.723-6.353h-5.445l-3.63 6.353h-2.723l2.723-6.353h-5.445l-3.63 6.353h-2.723l2.723-6.353h-5.446l-3.63 6.353h-2.722l2.723-6.353H232.1l-3.63 6.353h-2.723l2.723-6.353h-5.446l-3.63 6.353h-2.722l2.723-6.353h-5.445l-3.63 6.353h-2.723l2.723-6.353h-5.445l-3.63 6.353h-2.723l2.723-6.353h-5.446l-3.63 6.353h-2.722l2.723-6.353h-5.445l-3.63 6.353h-2.723l2.723-6.353h-5.446l-3.63 6.353h-2.722l2.723-6.353h-5.445l-3.63 6.353h-2.723l2.723-6.353h-6.353l-2.722 6.353h-2.723l2.723-6.353h-6.353l-2.722 6.353h-.908zm.908-19.058h-.908v1.815z" style="fill:#21b275;fill-opacity:1;fill-rule:evenodd;stroke:none" transform="matrix(1.33333 0 0 -1.33333 -.667 1121.853)"/><path d="M309.238 302.816c34.485 18.15 55.357 52.636 55.357 91.659v35.392H254.787v-35.392c0-39.93 19.965-73.508 54.451-91.659" style="fill:#6ecee5;fill-opacity:1;fill-rule:evenodd;stroke:none" transform="matrix(1.33333 0 0 -1.33333 -.667 1121.853)"/><path d="M309.238 291.02c40.837 19.964 64.432 58.987 64.432 103.455v45.375H245.712v-45.375c0-46.284 22.687-83.49 63.526-103.455m-50.821 103.455v32.67h102.548v-32.67c0-37.208-19.058-70.785-51.727-88.935-32.671 18.15-50.821 50.82-50.821 88.935" style="fill:#30312c;fill-opacity:1;fill-rule:evenodd;stroke:none" transform="matrix(1.33333 0 0 -1.33333 -.667 1121.853)"/><path d="M309.238 294.65c35.393 17.242 61.71 53.541 61.71 99.825v42.652H248.434v-42.652c0-48.097 26.317-82.583 60.803-99.826m0 8.167c34.485 18.15 55.357 52.636 55.357 91.659v35.392H254.787v-35.392c0-39.93 19.965-73.508 54.451-91.659M302.885 524.247V505.19l.908-.907c1.814-1.815 4.537-2.722 6.352-3.63 2.723 0 5.445 1.815 7.26 4.537v13.613c2.723-.907 2.723-.907 5.446-.907 5.444-.908 8.167 7.26 7.26 6.352l-2.723-.908c-4.537 0-5.445 0-6.353 4.538 0 8.168 0 11.798 3.63 19.965l2.723-.907c3.63-.908 9.075-2.723 11.798-.908 3.63 1.815 4.537 7.26 5.445 11.798 8.167.907 12.704 0 19.057 4.537 1.815.908 4.538 3.63 4.538 6.352-.908 8.168-2.723 17.244-5.446 25.41-.907 2.723-3.63 4.538-5.445 2.723-4.537-3.63-8.167-8.168-11.797-13.612-4.537-1.815-7.26-1.815-10.89 0-6.353 2.723-12.705 9.075-15.428 16.335-1.815 6.352-1.815 11.797-1.815 18.15s.908 13.613 0 19.965c-.907 5.444-2.722 13.612-9.075 14.52-1.815 0-3.63 0-5.445-.908-1.816-.907-4.537-1.815-6.353-2.722-.907-.908-3.63-2.723-5.445-3.63 7.26-3.63 13.613-9.983 14.52-17.243 0-11.798-1.814-19.057-5.444-29.04-2.723-9.075-8.168-19.058-8.168-29.04 0-18.15 10.89-28.133 10.89-45.375" style="fill:#f2b637;fill-opacity:1;fill-rule:evenodd;stroke:none" transform="matrix(1.33333 0 0 -1.33333 -.667 1121.853)"/><path d="M307.423 519.71c22.687 0 40.837-18.15 40.837-39.93 0-22.688-18.15-40.838-40.837-40.838-21.781 0-39.931 18.15-39.931 40.837 0 21.78 18.15 39.93 39.93 39.93" style="fill:#f2b637;fill-opacity:1;fill-rule:evenodd;stroke:none" transform="matrix(1.33333 0 0 -1.33333 -.667 1121.853)"/><path d="M318.313 519.71c.907 0 1.815-.908 2.722-.908h.908c4.537-.907 7.26 4.537 7.26 4.537l-2.723-.907c-3.63 0-6.352.907-7.26 5.445 0 8.168.908 12.706 4.537 19.965-4.537 4.537-7.259 9.983-10.889 16.335l2.722 1.815c4.538-9.075 7.26-16.335 16.336-19.965 2.721-.907 5.444-.907 7.26 0 .907.908 1.815 2.723 2.721 3.63-10.89 1.815-14.52 7.26-20.872 15.427l2.722 1.815c5.445-8.167 9.075-13.612 19.058-14.52 0 1.816.908 3.63.908 5.446-5.446 1.815-9.076 5.445-12.705 11.797l1.814 1.815c4.538-7.26 7.26-10.89 14.52-11.797 6.353.907 10.891 0 16.336 3.63 1.815 1.814 3.63 2.722 3.63 5.444v1.815c-4.538-.907-8.168-1.815-10.89-4.537l-.908 2.722c3.63 1.815 7.26 3.63 10.89 4.538 0 .908 0 2.723-.907 4.538l-1.815-.908-1.815-.907-1.815-.908-1.815-.907-2.723-1.815-.907-.908-1.815-1.815-2.723-1.815-1.815 1.815 2.722 1.815 1.816 1.815 1.815.908 1.815 1.815 1.815.907 2.722 1.815 1.815.907 2.723.908c-.908 1.815-.908 3.63-1.815 5.446-4.538-3.63-8.168-6.354-12.706-11.798l-1.814 1.815c4.537 5.445 9.075 9.075 13.612 11.797 0 1.815 0 2.723-.907 3.63-4.538-2.723-8.168-6.352-11.798-10.89l-1.815 1.815c3.63 4.537 8.168 8.168 11.798 10.89l.907.908c-.907 2.722-1.815 3.63-3.63 1.814-4.537-4.537-8.167-9.075-11.797-14.52-4.537-1.815-8.168-.907-11.798 0-6.352 3.63-13.612 10.89-15.427 18.15-1.815 6.353-1.815 12.705-1.815 19.058v19.058c-.908 5.444-2.723 12.705-9.075 13.612-1.816 0-3.63 0-5.445-.907-1.815-.908-3.63-1.815-4.538-3.63-1.815 0-2.722-.908-4.538-1.815 7.261-3.63 12.705-9.983 13.613-17.243 0-10.89-1.815-19.057-5.446-29.04-2.721-9.983-8.167-19.058-8.167-29.04 0-18.15 10.891-28.133 10.891-45.375V508.82c0-1.816 0-2.723 1.814-4.538.908-.907 2.723-1.815 4.538-1.815s3.63 0 5.445 1.815c.908.907.908 1.815.908 3.63v9.983h-.908l-2.722.907.907 3.63c1.815-.908 3.63-1.815 4.538-2.723m-20.873-39.022h28.132v-1.815l-28.132-.908zm32.67-12.705c6.353-1.815 8.167-9.075 1.816-12.705 0 0 0 .908-.908.908-.908.907-2.723 1.815-4.538 1.815q-4.084 0-5.445-2.723c-1.815 3.63-5.445 5.445-9.075 5.445-3.63-.908-7.26-2.722-8.167-6.352-1.815 2.722-3.63 4.537-7.26 4.537-2.723 0-3.631-.907-5.446-1.815-4.538 1.815-5.445 8.168-.908 10.89.908 0 1.816 0 3.631-.907 11.797-.908 23.595-.908 34.485.907zm3.63-14.52c6.353 4.538 5.446 11.798 0 15.428 3.63 1.815 4.537 5.444 4.537 9.982s-.907 7.26-2.721 9.982c3.63 4.538 1.814 9.983-3.63 13.613.906.908 1.814 3.63 2.721 5.445l.909-.908 2.721-2.722 1.816-2.722 1.814-3.63 1.816-2.722.908-3.63 1.813-4.538v-15.428l-1.813-3.63-.908-3.63-1.816-3.63-1.814-2.722-1.816-3.63-2.721-2.723-.909-.908c0 .908-.907 1.815-.907 2.723m0 36.3c2.723 3.63.907 9.075-3.63 10.89-.908-.907-2.722-.907-3.63-.907-3.63 0-6.352.907-8.167 3.63-1.815-1.815-4.538-3.63-7.26-3.63-3.63 0-6.353 1.815-8.168 3.63-.907-2.723-3.63-4.538-7.26-4.538-1.815 0-2.723.908-3.63 1.815-5.446-2.723-5.446-8.167-1.816-11.798.908.908 1.816.908 2.723.908 11.798 1.815 23.596 1.815 34.486 1.815 2.722 0 4.538-.907 6.352-1.815m-43.56 12.705c-5.446-3.63-6.353-9.982-2.723-14.52-2.723-1.815-4.537-5.445-4.537-9.983 0-4.537 1.814-7.26 4.537-9.074-3.63-3.63-3.63-9.983 1.815-13.613-.908-.907-.908-1.815-1.815-3.63 0-1.814 0-2.722-.908-4.537-8.167 8.167-12.704 20.872-12.704 32.67 0 11.797 3.63 22.687 11.797 31.762v.908c.907-3.63 1.815-7.26 4.537-9.983m31.764-49.005c.908.908 1.814 1.815 4.537 1.815s4.538-.907 5.446-3.63c.906-.908.906-1.814.906-1.814v-.908l-3.63-1.815-2.722-1.815-3.63-1.816-.907-.907v10.889999999999999m-19.058-3.63v1.815c-1.816 2.723-3.63 4.538-6.353 4.538s-4.537-.908-6.353-3.63c-.907-2.722-.907-5.445-.907-7.26l2.723-1.816 3.63-1.814 4.538-.908h2.722zm16.335-8.168v9.982c0 3.63-3.63 6.353-6.352 6.353-4.538 0-7.26-2.723-7.26-7.26v-9.983l1.815-.907 4.537.907h3.63zm-39.93 10.89c-9.983 15.427-9.983 36.3-.908 52.634l-.907-.907-2.723-2.722-1.815-3.63-1.815-2.722-.908-3.63-.907-4.538-.908-3.63v-8.168l.908-3.63.907-3.63.908-3.63 1.815-3.63 1.815-2.722 2.723-3.63zm39.93 55.358c0-3.63 3.63-5.445 7.26-6.352 3.63 0 5.446 4.537 6.352 8.167l-3.63 2.723-2.722 1.815-3.63 1.815-3.63.907zm-31.763 5.445c.907-5.445 3.63-12.705 9.983-11.797 1.816 0 3.63 1.815 3.63 4.537.908.907.908.907.908 1.815v9.983h-1.815l-4.538-.908-3.63-.907-2.723-1.815zm42.653-24.503c-14.52.908-26.317 0-37.208-.907-6.353-.907-7.26-5.445-7.26-9.983 0-6.352 3.63-8.167 8.168-8.167 13.613-.907 24.503-.907 34.485 0 4.537.908 8.168 3.63 8.168 9.075 0 4.538-2.723 9.982-6.353 9.982M303.793 646.76c.907 0 1.814-.908 1.814-2.723 0-.908-.907-1.815-1.814-1.815-1.815 0-2.724.907-2.724 1.815q0 2.723 2.724 2.723m22.687-129.773c13.613-7.26 22.688-20.873 22.688-37.208 0-23.594-18.15-41.744-41.745-41.744-22.689 0-41.746 18.15-41.746 41.744 0 20.873 16.335 38.116 36.3 40.838v2.722c0 18.15-11.798 28.133-10.89 46.283 0 10.89 4.538 19.057 8.169 29.04 2.722 10.89 5.444 19.058 4.537 29.04 0 9.075-10.891 16.335-17.244 17.243v.907c3.63.908 5.446.908 9.076 2.723 1.815 2.722 4.538 5.445 11.798 5.445s10.89-8.168 10.89-16.335c.907-5.446 0-11.798 0-17.243 0-8.168 0-18.15 4.538-24.503 2.721-5.444 8.167-10.89 13.612-12.704 2.723-.908 4.538-.908 8.168 0 1.813 5.444 6.351 9.982 10.889 14.52 2.723 1.815 5.445 2.722 7.26-.908 4.538-9.075 5.446-19.057 6.352-28.133.908-4.537-3.63-6.352-7.259-8.167-4.538-2.722-10.89-3.63-15.429-3.63-.906-5.445-2.721-11.797-8.167-13.613-4.537-.907-10.89.908-12.705 2.723-3.629-5.444-3.629-12.705-3.629-18.15 0-4.538 6.352-2.723 10.889 0-.906-5.445-3.63-9.075-6.352-10.89m19.058 45.375c4.537 2.722 8.167 2.722 12.705 3.63v-2.722c-4.538 0-8.168-.908-11.799-2.723zm-43.56 5.445c.907-6.352 1.815-12.705 6.352-19.057 3.63-5.446 4.538-12.705 5.445-19.965h-1.815c-.907 7.26-1.815 13.612-5.445 19.057-4.537 6.353-5.446 12.705-6.352 19.965zM259.325 498.837H159.5v17.243l16.334 10.89v22.687L159.5 559.64v18.15l5.445 5.445h16.334v-9.075h8.168v9.075h16.335v-9.075h8.168v9.075h16.335v-9.075h6.352v9.075h17.242l5.446-5.445v-17.243l-16.336-10.89V526.97l16.336-10.89z" style="fill:#30312c;fill-opacity:1;fill-rule:evenodd;stroke:none" transform="matrix(1.33333 0 0 -1.33333 -.667 1121.853)"/><path d="M252.064 501.56H166.76v9.982h85.304zm-83.49 12.705 8.168 6.352h8.168v-6.352zm19.057 6.352h10.89v-6.352h-10.89zm-8.168 2.722 3.63 2.723v2.723h8.168v-5.446zm14.52 5.446h4.538v-5.446h-4.538zm-10.89 2.722v7.26h1.816v-7.26zm4.537 7.26h11.797c-.907-1.815-.907-3.63-.907-6.352v-.908h-10.89zm-4.537 1.816v7.259h8.167v-7.26zm10.89 7.26h14.52v-3.63c-2.723 0-5.445-1.815-7.26-3.63h-7.26zm17.242 0h13.612v-7.26h-7.26c-1.815 1.815-3.63 2.722-6.352 3.63zm16.335 0h8.167v-7.26h-8.167zm8.167-9.075v-7.26h-1.814v7.26zm-3.63-7.26h-10.89v.908c0 1.814 0 4.537-1.814 6.352H232.1zm3.63-2.722v-2.723l3.63-2.723h-11.798v5.446zm-10.89-5.446h-3.63v5.446h3.63zm17.243-2.722 8.168-6.352h-16.335v6.352zm-9.982-6.352h-10.89v6.352h10.89zm-50.82 36.3-6.353 5.445h9.983v-5.446zm6.352 5.446h13.613v-5.446h-13.613zm15.428 0h13.612v-5.446H203.06zm16.335 0H232.1v-5.446h-12.705zm14.52 0h9.982l-6.352-5.446h-3.63zm-61.71 1.815-3.63 2.722h80.767l-2.722-2.722zm-4.537 5.445v17.242h11.797v-9.075h11.798v9.075h11.798v-9.075h12.704v9.075h12.706v-9.075h10.89v9.075h11.797V563.27zm51.728-49.005h-19.058v18.15c0 5.445 4.538 9.074 9.075 9.074 5.445 0 9.983-3.63 9.983-9.074z" style="fill:#f2b637;fill-opacity:1;fill-rule:evenodd;stroke:none" transform="matrix(1.33333 0 0 -1.33333 -.667 1121.853)"/><path d="M313.775 328.228v-.909l.908-.907h2.722l1.815-.908v-7.259h-20.872v7.259l1.815.908h2.722l.908.907v71.693h-29.041c-4.538 0-6.353-3.63-8.168-8.167h-6.352l3.63 16.335h56.266v-8.168h-6.353z" style="fill:#30312c;fill-opacity:1;fill-rule:evenodd;stroke:none" transform="matrix(1.33333 0 0 -1.33333 -.667 1121.853)"/><path d="M311.96 400.827v-72.6c0-3.63 2.723-3.63 6.353-3.63v-5.445h-19.057v5.445c2.722 0 5.444 0 6.351 2.722v73.508h-30.855c-4.538 0-7.26-3.63-9.075-8.168h-3.63l2.723 13.612h54.45v-5.444z" style="fill:#fff;fill-opacity:1;fill-rule:evenodd;stroke:none" transform="matrix(1.33333 0 0 -1.33333 -.667 1121.853)"/><path d="M295.625 395.382v-3.63l5.444-3.63v-9.982l-5.444 3.63v-34.486c0-.906 0-.906.907-.906l2.724-.908v-7.261H279.29v7.26c.907.909 1.814.909 2.722.909 1.815 0 3.63 0 3.63 1.813v47.19z" style="fill:#30312c;fill-opacity:1;fill-rule:evenodd;stroke:none" transform="matrix(1.33333 0 0 -1.33333 -.667 1121.853)"/><path d="M286.55 394.475h7.26v-3.63l5.446-3.63v-6.353l-5.446 3.63v-37.208c0-2.721 1.815-2.721 3.63-2.721v-4.539h-16.336v4.538c2.723 0 5.445.908 5.445 3.63z" style="fill:#fff;fill-opacity:1;fill-rule:evenodd;stroke:none" transform="matrix(1.33333 0 0 -1.33333 -.667 1121.853)"/><path d="M295.625 415.347v-4.537h-9.983v5.444c0 .908-1.815.908-3.63.908l-2.722.907v7.26h19.966v-7.26l-2.724-.907c-.907 0-.907 0-.907-1.815" style="fill:#30312c;fill-opacity:1;fill-rule:evenodd;stroke:none" transform="matrix(1.33333 0 0 -1.33333 -.667 1121.853)"/><path d="M293.81 415.347v-3.63h-7.26v4.537c0 2.724-2.723 2.724-5.446 2.724v5.444h16.336v-5.444c-1.815 0-3.63 0-3.63-3.631" style="fill:#fff;fill-opacity:1;fill-rule:evenodd;stroke:none" transform="matrix(1.33333 0 0 -1.33333 -.667 1121.853)"/><path d="M334.647 416.254c0 .908 1.816.908 3.63.908l1.816.907v7.26h-19.058v-7.26l1.816-.907c.906 0 1.814 0 1.814-.908v-24.501l-5.445-3.63v-9.983l5.445 3.63V348.19c0-.907 0-1.813-1.814-1.813l-1.816-.908v-7.261h19.058v7.26l-1.816.909c-1.814 0-3.63 0-3.63 1.813v62.619z" style="fill:#30312c;fill-opacity:1;fill-rule:evenodd;stroke:none" transform="matrix(1.33333 0 0 -1.33333 -.667 1121.853)"/><path d="M332.832 411.717v4.537c.908 2.724 2.724 2.724 6.354 2.724v5.444H322.85v-5.444c1.814 0 2.721 0 3.63-2.724v-25.41l-5.446-3.63v-6.352l5.445 3.63v-36.3c0-3.63-1.815-3.63-3.63-3.63v-4.538h16.336v4.538c-3.63 0-5.446.908-6.354 3.63z" style="fill:#fff;fill-opacity:1;fill-rule:evenodd;stroke:none" transform="matrix(1.33333 0 0 -1.33333 -.667 1121.853)"/><path d="m359.15 390.845-3.63 16.335h-17.243v-8.168h6.354c3.629 0 5.444-2.722 7.259-5.446l.908-2.721z" style="fill:#30312c;fill-opacity:1;fill-rule:evenodd;stroke:none" transform="matrix(1.33333 0 0 -1.33333 -.667 1121.853)"/><path d="m357.335 392.66-2.722 13.611h-14.52v-5.444h4.538c4.537 0 7.259-3.63 9.074-8.168z" style="fill:#fff;fill-opacity:1;fill-rule:evenodd;stroke:none" transform="matrix(1.33333 0 0 -1.33333 -.667 1121.853)"/><path d="M263.862 387.215h15.428v-6.353h-8.168v-3.63h6.353v-7.26h-6.353v-7.26h-7.26z" style="fill:#30312c;fill-opacity:1;fill-rule:evenodd;stroke:none" transform="matrix(1.33333 0 0 -1.33333 -.667 1121.853)"/><path d="M265.677 386.308h11.797v-4.538h-7.26v-6.353h5.446v-4.538h-5.446v-6.352h-4.537z" style="fill:#fff;fill-opacity:1;fill-rule:evenodd;stroke:none" transform="matrix(1.33333 0 0 -1.33333 -.667 1121.853)"/><path d="M349.168 389.03c4.537 0 8.167-1.815 9.982-6.352l-5.445-4.538c0 .907-1.815 2.722-3.63 2.722-2.722 0-3.63-2.722-3.63-5.445s.908-4.538 3.63-4.538h4.538v-7.259h-5.445c-6.353 0-10.89 5.445-10.89 11.797s4.537 12.705 10.89 13.612" style="fill:#30312c;fill-opacity:1;fill-rule:evenodd;stroke:none" transform="matrix(1.33333 0 0 -1.33333 -.667 1121.853)"/><path d="M349.168 387.215c3.63 0 6.352-1.816 8.167-4.537l-2.722-2.724c-.908 1.816-2.723 2.724-4.538 2.724-2.722 0-5.444-2.724-5.444-7.261 0-3.63 1.813-6.352 5.444-6.352h2.723v-3.63h-3.63c-5.445 0-9.075 4.537-9.075 9.982 0 6.353 3.63 11.798 9.075 11.798" style="fill:#fff;fill-opacity:1;fill-rule:evenodd;stroke:none" transform="matrix(1.33333 0 0 -1.33333 -.667 1121.853)"/><path d="M348.26 533.322c-.907-.907-.907-2.722-1.816-3.63-.906-.907-2.721-.907-3.629-3.63s1.816-5.445 1.816-7.26-.908-3.63.907-5.445c2.722-2.722 3.63-.907 6.352-1.815 1.815-.907.908-2.722 5.445-2.722.908 0 .908 1.815 2.723 1.815.907 0 2.722-.908 3.63-.908.907.908 2.722 0 2.722 3.63.908 1.815 0 3.63 0 5.445s1.816 3.63.908 6.352-3.63 1.816-4.538 3.63c-1.815 2.723 0 4.538-3.63 5.445-2.722.908-4.537-1.814-5.445-1.814-1.815 0-2.723 2.722-5.445.907" style="fill:#21b275;fill-opacity:1;fill-rule:evenodd;stroke:none" transform="matrix(1.33333 0 0 -1.33333 -.667 1121.853)"/><path d="M344.63 511.542c2.723-1.815 3.63-.907 6.352-.907.908-.908.908-1.815 1.816-1.815v-5.445c0-.908 0-1.815-2.723-3.63l1.815-.908c.908 0 1.815 0 1.815.908.908.907.908 2.722.908 3.63v4.537h2.722v-2.723c0-1.814.908-3.63 1.815-5.444l2.723.907q-2.723 2.723-2.723 5.445v2.723l.908.907c1.815-.907 5.445-.907 7.26 1.815 1.814 1.815 0 4.538 0 7.26.908 1.815 1.814 3.63.908 5.445-.908 2.723-1.816 3.63-3.631 4.538-1.815 2.722-.907 4.537-3.63 6.352-3.63 1.815-5.445.908-7.26-1.815-1.815.907-2.723 1.815-4.537 1.815-2.724-.908-2.724-1.815-3.63-4.537-1.815-.908-3.63-1.815-3.63-4.538-.907-2.723 0-3.63.907-6.353 0-3.63-.908-5.444 1.816-8.167m10.889 14.52c1.815 1.815 4.538 2.723 6.353 2.723-.908 1.815 0 3.63-3.63 5.444-1.815 0-3.63-2.722-4.538-3.63-1.815 0-2.723 3.63-5.445 1.816-.907-.908 0-2.723-.907-3.63-.909 0-2.722 0-3.63-2.723s1.815-4.538 1.815-6.353-1.815-4.537.906-6.352c1.816-1.815 2.724 0 5.446-.907 1.815-.908.908-2.723 4.538-2.723.907 0 1.815 1.815 2.722 1.815.908 0 2.723-.907 3.63-.907.908.907 2.723 0 3.63 1.815v3.63c-1.815 3.63-4.537 3.63-8.167 2.722v1.815c2.722 1.815 5.445.907 7.26-.908 0 .908 1.815 1.815.907 4.538-.907 1.815-1.815 1.815-2.722 2.723-2.723 0-5.445-.908-7.26-2.723z" style="fill:#30312c;fill-opacity:1;fill-rule:evenodd;stroke:none" transform="matrix(1.33333 0 0 -1.33333 -.667 1121.853)"/><path d="M378.207 533.322c-.906-.907 0-2.722-1.814-3.63-.908-.907-2.723-.907-3.63-3.63-.908-2.723 1.814-5.445 1.814-7.26s-.907-3.63 1.816-5.445c1.814-2.722 2.722-.907 5.445-1.815 1.814-.907 1.814-2.722 5.444-2.722.908 0 1.816 1.815 2.724 1.815.907 0 2.722-.908 3.629-.908 1.815.908 2.722 0 3.63 3.63 0 1.815-.908 3.63-.908 5.445s1.816 3.63.908 6.352-3.63 1.816-4.537 3.63c-.909 2.723 0 4.538-3.63 5.445-1.816.908-4.537-1.814-5.446-1.814-.907 0-2.721 2.722-5.445.907" style="fill:#21b275;fill-opacity:1;fill-rule:evenodd;stroke:none" transform="matrix(1.33333 0 0 -1.33333 -.667 1121.853)"/><path d="M375.485 511.542c1.816-1.815 3.63-.907 5.446-.907h.907c0-.908.907-1.815.907-1.815v-5.445c0-.908 0-1.815-2.723-3.63l2.723-.908s.907 0 .907.908c.909.907.909 2.722.909 3.63v4.537h2.721l.908-2.723c0-1.814 0-3.63 1.816-5.444l1.813.907q-2.72 2.723-2.721 5.445v2.723l.908.907c1.813-.907 5.444-.907 7.259 1.815 1.815 1.815.908 4.538 0 7.26.908 1.815 1.815 3.63 1.815 5.445-.907 2.723-1.815 3.63-4.537 4.538-.908 2.722 0 4.537-3.63 6.352-2.723 1.815-4.537.908-7.26-1.815-1.815.907-2.722 1.815-4.538 1.815-1.814-.908-2.722-1.815-2.722-4.537-2.723-.908-3.63-1.815-4.538-4.538s0-3.63 1.815-6.353c-.907-3.63-.907-5.444 1.815-8.167m10.891 14.52c.906 1.815 3.63 2.723 5.443 2.723 0 1.815.909 3.63-2.721 5.444-2.722 0-4.537-2.722-5.446-3.63-.907 0-1.814 3.63-4.537 1.816-1.814-.908 0-2.723-1.814-3.63-.908 0-2.724 0-3.631-2.723s1.815-4.538 1.815-6.353-1.815-4.537.908-6.352 3.63 0 5.445-.907c1.814-.908.907-2.723 4.538-2.723 1.814 0 1.814 1.815 3.63 1.815.907 0 1.813-.907 2.722-.907 1.815.907 2.722 0 3.63 1.815v3.63c-1.815 3.63-4.539 3.63-7.26 2.722l-.908 1.815c2.723 1.815 6.353.907 7.26-.908.907.908 1.815 1.815.907 4.538 0 1.815-1.814 1.815-2.722 2.723-2.722 0-5.445-.908-7.259-2.723z" style="fill:#30312c;fill-opacity:1;fill-rule:evenodd;stroke:none" transform="matrix(1.33333 0 0 -1.33333 -.667 1121.853)"/><path d="M409.063 533.322c-1.815-.907-.908-2.722-1.815-3.63-.908-.907-3.63-.907-3.63-3.63-.908-2.723.907-5.445 1.815-7.26 0-1.815-1.815-3.63.907-5.445 1.815-2.722 3.63-.907 6.353-1.815.908-.907.908-2.722 4.537-2.722.908 0 1.815 1.815 2.722 1.815.908 0 3.63-.908 4.538-.908.907.908 1.816 0 2.723 3.63.907 1.815 0 3.63 0 5.445s.907 3.63.907 6.352c-.907 2.723-3.63 1.816-4.538 3.63-1.814 2.723 0 4.538-4.537 5.445-1.815.908-3.63-1.814-4.538-1.814-1.814 0-2.722 2.722-5.444.907" style="fill:#21b275;fill-opacity:1;fill-rule:evenodd;stroke:none" transform="matrix(1.33333 0 0 -1.33333 -.667 1121.853)"/><path d="M405.433 511.542c2.722-1.815 3.63-.907 5.445-.907h.907c0-.908.908-1.815 1.816-1.815v-5.445c0-.908-.908-1.815-2.723-3.63l1.815-.908c.908 0 .908 0 1.814.908v3.63l.908 4.537h2.723v-2.723c0-1.814 0-3.63 1.814-5.444l2.724.907c-2.724 1.815-2.724 3.63-2.724 5.445v2.723l.908.907c1.816-.907 5.446-.907 7.26 1.815 1.816 1.815 0 4.538 0 7.26.907 1.815 1.816 3.63.907 5.445-.907 2.723-1.814 3.63-4.537 4.538-.908 2.722 0 4.537-2.722 6.352-3.63 1.815-5.446.908-8.167-1.815-.908.907-1.816 1.815-3.631 1.815-2.722-.908-3.63-1.815-3.63-4.537-2.722-.908-3.63-1.815-4.537-4.538-.908-2.723.907-3.63 1.815-6.353 0-3.63-.908-5.444 1.815-8.167m10.89 14.52c1.815 1.815 3.63 2.723 6.353 2.723-.908 1.815 0 3.63-3.631 5.444-1.815 0-3.63-2.722-5.444-3.63-.908 0-1.816 3.63-4.538 1.816-.908-.908 0-2.723-.908-3.63-.907 0-3.63 0-4.537-2.723-.908-2.723 1.815-4.538 1.815-6.353s-.908-4.537.907-6.352c2.723-1.815 3.63 0 6.353-.907 1.814-.908 0-2.723 4.537-2.723.908 0 1.815 1.815 2.722 1.815.908 0 2.724-.907 3.63-.907.908.907 1.815 0 2.724 1.815.907.907.907 2.722 0 3.63-1.816 3.63-4.538 3.63-7.261 2.722l-.907 1.815c2.722 1.815 6.352.907 8.168-.908 0 .908.907 1.815.907 4.538-.907 1.815-2.723 1.815-3.631 2.723-1.814 0-4.537-.908-6.352-2.723z" style="fill:#30312c;fill-opacity:1;fill-rule:evenodd;stroke:none" transform="matrix(1.33333 0 0 -1.33333 -.667 1121.853)"/><path d="M442.64 533.322c-1.815-.907-.908-2.722-1.815-3.63s-3.63-.907-3.63-3.63c-.907-3.63.908-5.445 1.815-7.26 0-1.815-1.816-3.63.908-6.352 1.814-1.815 3.63 0 6.352-.908.908-.907.908-2.722 4.538-2.722 1.815 0 1.815.907 2.722 1.815.908 0 3.63-.908 4.538-.908s1.814 0 2.722 2.723 0 4.537 0 6.352.907 2.722.907 5.445c-.907 3.63-3.629 1.815-4.537 3.63-1.815 2.723 0 5.445-4.537 6.352-1.815.908-3.63-1.814-4.538-1.814-1.815-.908-2.722 1.814-5.445.907" style="fill:#21b275;fill-opacity:1;fill-rule:evenodd;stroke:none" transform="matrix(1.33333 0 0 -1.33333 -.667 1121.853)"/><path d="M439.01 511.542c2.722-1.815 3.63-.907 6.353-.907.907-.908.907-1.815 1.815-1.815v-5.445c0-1.815-.908-2.723-2.723-3.63l1.815-1.816 1.815 1.816v2.722l.908 5.445q1.361-1.362 2.722 0v-2.723c0-1.814 0-3.63 1.815-5.444l2.723.907c-2.723.908-2.723 3.63-2.723 4.537v3.63l.908.908c1.815-1.815 5.444-.907 7.26.908 1.815 2.722 0 5.445 0 8.167.907 1.815 1.815 2.722.907 5.445s-1.815 2.723-4.537 3.63c-.908 2.723 0 5.445-2.723 7.26-3.63 1.815-5.445 0-8.167-1.815-.908.907-1.815 1.815-3.63 1.815-2.723-.908-3.63-1.815-3.63-4.537-1.815-.908-3.63-1.815-4.537-4.538-.908-2.723.907-4.538 1.813-7.26 0-2.722-.906-4.537 1.816-7.26m10.89 13.612c1.815 2.723 4.538 3.63 6.353 3.63-.908 1.816 0 3.63-3.63 4.538-1.815.907-3.63-2.722-4.538-2.722-1.815 0-2.722 3.63-5.445 1.815-.908-.908 0-2.723-.908-3.63-.907-.908-3.63 0-4.538-2.723-.906-3.63 1.816-5.445 1.816-7.26 0-.907-.907-3.63.908-5.445 2.722-2.722 3.63 0 6.352-.907 1.815-.908.908-2.723 4.538-2.723.907 0 1.815.908 2.722 1.815.908 0 2.723-.907 3.63-.907.908 0 1.816 0 2.722 1.815q1.362 1.361 0 2.722c-1.814 4.537-4.537 4.537-7.259 3.63l-.908.907c2.723 2.723 6.353 1.815 8.167 0 0 .908 1.815 1.815.908 3.63-.908 2.723-1.814 2.723-3.63 2.723-1.815.908-4.537 0-6.352-1.815z" style="fill:#30312c;fill-opacity:1;fill-rule:evenodd;stroke:none" transform="matrix(1.33333 0 0 -1.33333 -.667 1121.853)"/><path d="M426.306 572.345c-1.816-.908-.909-2.723-1.816-3.63-.908-.908-3.63-.908-3.63-3.63-.908-2.723.908-5.445 1.816-7.26 0-1.815-1.816-3.63.906-5.446 1.815-2.722 3.63 0 6.354-1.815.907-.907.907-2.722 4.537-2.722.908 0 1.815 1.815 2.721 1.815.909 0 3.631-.907 4.538 0 .908 0 1.816-.907 2.723 2.722.908 1.816 0 3.63 0 5.446s.908 3.63 0 6.352c0 2.722-2.723 1.815-3.63 3.63-1.815 2.722 0 4.538-4.537 5.445-1.815.908-3.63-1.815-4.537-1.815-1.815 0-2.724 2.723-5.445.908" style="fill:#21b275;fill-opacity:1;fill-rule:evenodd;stroke:none" transform="matrix(1.33333 0 0 -1.33333 -.667 1121.853)"/><path d="M422.676 551.472c1.814-2.722 3.63-1.815 5.444-1.815h.907c0-.907.909-.907 1.816-1.815v-5.445c0-.908-.907-1.814-2.723-3.63l1.816-.907c.907 0 .907 0 1.815.907v3.63l.906 4.538h2.724v-2.723c0-1.815 0-3.63 1.813-5.445l2.724.908c-2.724 1.814-2.724 3.63-2.724 5.445v2.722l.909.908c1.815-.908 5.445-.908 7.26 1.814 1.815 1.815 0 4.538 0 7.26.907 1.816 1.815 3.63.907 5.446-.907 2.722-1.815 3.63-4.538 4.537-.907 2.722 0 4.538-2.722 6.353-3.63 1.815-5.445.907-8.167-1.815-.907 1.815-1.816 1.815-3.63 1.815-2.723-.908-3.631-1.815-3.631-4.538-2.722-.908-3.63-1.815-4.537-4.538-.907-2.722.907-3.63 1.815-6.352 0-2.722-.908-5.445 1.816-7.26m10.89 13.612c1.815 1.815 3.628 2.723 6.352 2.723-.908 2.722 0 4.538-3.63 5.445-1.815 0-3.63-2.723-5.445-2.723-.907-.907-1.816 2.723-4.537.908-1.816-.908 0-2.723-.909-3.63-.907 0-3.63 0-4.537-2.723-.908-2.722 1.816-4.537 1.816-6.352s-.908-3.63.906-6.353c2.724-1.815 3.63.908 6.354-.907 1.815 0 0-2.722 4.537-2.722.908 0 1.815 1.814 2.721 1.814.909 0 2.724-.907 3.631-.907.907.907 1.815.907 2.723 2.722q1.36 1.362 0 2.723c-1.816 3.63-4.538 4.538-7.26 2.723l-.907 1.815c2.722 1.815 6.351.907 8.167-.908 0 .908.907 1.815.907 4.538-.907 1.814-2.723 1.814-3.63 2.722-1.815 0-4.537 0-6.352-2.722z" style="fill:#30312c;fill-opacity:1;fill-rule:evenodd;stroke:none" transform="matrix(1.33333 0 0 -1.33333 -.667 1121.853)"/><path d="M393.635 573.252c-1.816-.907-.907-3.63-1.816-4.538-.906 0-2.721-.907-3.629-3.63s1.816-5.444 1.816-7.26c0-.907-.908-2.722.907-5.445 2.722-1.815 3.63 0 6.352-.907 1.815-.908.908-2.722 5.445-2.722.908-.908.908.907 2.723.907.907.907 2.722 0 3.63 0s2.722 0 2.722 2.722c.908 1.816 0 4.538 0 6.353 0 .908 1.816 2.723.908 5.445-.908 3.63-3.63 1.815-4.538 3.63-1.815 2.722 0 5.445-3.63 6.353-2.722.907-4.537-1.815-5.445-2.723-1.815 0-2.723 2.723-5.445 1.815" style="fill:#21b275;fill-opacity:1;fill-rule:evenodd;stroke:none" transform="matrix(1.33333 0 0 -1.33333 -.667 1121.853)"/><path d="M390.006 551.472c2.722-1.815 3.629-.908 6.351-.908.908-.907.908-1.814 1.816-1.814v-5.446c0-1.815 0-2.721-2.723-3.63l1.815-1.814c.908.907 1.815.907 1.815 1.815s.908 1.814.908 2.722v5.445-.907h2.722v-2.723c0-.908.908-3.63 1.815-4.537l2.723.908c-1.815.906-2.723 2.721-2.723 4.537v3.63h.908c1.815-.908 5.445 0 7.26 1.814 1.814 2.723 0 4.538 0 8.168.908 1.815 1.814 2.723.908 5.445-.908 2.722-1.816 2.722-3.631 3.63-1.815 2.722-.907 5.445-3.63 6.353-3.63 1.815-5.445.907-7.26-.908-1.815.908-2.723 1.815-4.537.908-2.724 0-3.63-1.815-3.63-3.63-1.815-.908-3.63-1.816-4.537-4.538 0-3.63.906-4.537 1.814-7.26 0-2.722-.908-4.537 1.816-7.26m10.889 13.612c1.815 2.723 4.538 3.63 6.353 2.723-.908 2.722 0 4.538-3.63 5.445-1.815.908-3.63-2.723-4.538-2.723-1.815 0-2.723 3.63-5.445 1.816-.907-.908 0-2.723-.907-3.63-.909-.908-3.63-.908-3.63-3.63-.908-2.723 1.815-4.538 1.815-6.353s-1.815-3.63.906-5.445c1.816-2.723 2.724 0 5.446-.908 1.815-.907.908-2.722 4.538-3.63.907 0 1.815 1.815 2.722 2.723.908 0 2.723-.908 3.63-.908.908 0 2.723 0 3.63 1.815v2.723c-1.815 4.538-4.537 4.538-8.167 3.63v.908c2.722 2.722 5.445 1.815 7.26-.908 0 1.815 1.815 2.723.907 4.538-.907 2.722-1.815 2.722-2.722 2.722-2.723.907-5.445 0-7.26-2.722z" style="fill:#30312c;fill-opacity:1;fill-rule:evenodd;stroke:none" transform="matrix(1.33333 0 0 -1.33333 -.667 1121.853)"/><path d="M409.97 609.552c-1.815-.907-.907-2.722-1.815-3.63-1.815-.907-3.63-.907-4.537-3.63 0-2.722 1.815-5.445 1.815-7.26.907-.907-.908-3.63 1.815-5.445 1.815-1.815 3.63 0 5.445-.908 1.814-.907 1.814-3.63 5.445-3.63.907 0 1.814 1.815 2.722 1.815.908.908 3.63 0 4.537 0 .909 0 1.816 0 2.723 2.723.907 1.815 0 4.538 0 6.352-.907.908.907 2.723 0 5.446-.907 3.63-2.723 1.815-3.63 3.63-1.814 2.722 0 4.537-4.538 6.352-1.814 0-3.63-1.815-5.445-2.722-.906 0-1.814 2.722-4.537.907" style="fill:#21b275;fill-opacity:1;fill-rule:evenodd;stroke:none" transform="matrix(1.33333 0 0 -1.33333 -.667 1121.853)"/><path d="M406.34 588.68c1.815-2.722 3.63-1.816 5.445-.908h.908c0-.908.908-1.814 1.814-2.722v-4.538c0-1.815-.906-2.722-2.722-3.63l1.816-1.815c.906.908.906.908 1.814.908v8.167h3.63v-2.722c0-.908 0-3.63 1.815-4.538h2.722c-2.722 1.815-2.722 3.63-2.722 5.445v3.631c2.722-.908 6.353-.908 8.167 1.814 1.816 2.723 0 4.538 0 7.26v.907c.909 1.815.909 2.723.909 5.446-.909 1.815-1.816 2.722-4.539 3.63-.907 2.722 0 4.537-3.63 6.352-2.722 1.815-4.537.907-7.26-1.815-.906 1.815-1.814 2.722-3.63 1.815-2.722 0-3.629-1.815-3.629-4.537-2.723-.908-3.63-1.815-4.538-3.63-.907-3.63.908-4.538 1.815-7.26 0-2.723-.907-5.445 1.815-7.26m10.89 13.612c1.815 1.815 3.63 3.63 6.352 2.723-.906 2.722 0 4.537-3.63 5.444-1.814.908-4.537-2.722-5.445-2.722-.906-.907-1.814 2.722-4.537 1.815-1.815-.907 0-2.722-.907-3.63-.908-.907-3.63-.907-4.538-3.63-.907-2.722 1.815-4.538 1.815-6.353s-.907-3.63.908-6.352c2.722-1.815 3.63.908 6.353 0 .906-.908 0-3.63 4.537-3.63.907 0 1.814 1.815 2.722 1.815.908.907 2.722-.908 2.722 0 1.815 0 2.724 0 3.63 1.815.908.908 0 1.815 0 2.723-1.815 4.537-4.536 4.537-7.26 3.63l-.907.907c2.723 2.723 6.352.907 7.26-.908.908.908 1.815 2.723 1.815 4.538-.907 2.723-2.723 1.815-3.63 2.723-1.814.907-4.538 0-6.352-2.723zM429.936 380.862c-1.816-1.815-4.539-2.722-5.446-4.538-.908-1.815-1.814-2.721-1.814-3.63-.908-1.815-1.816-2.722-3.631-2.722-2.723-1.815-4.538-4.537-4.538-7.26.908-2.722 2.723-4.537 3.63-6.353 0-.907 0-2.722.908-5.444v-5.445c-.907-.908-1.815-1.816-4.538-2.723-1.814-.907-2.722-.907-4.537-1.814-2.722-1.816-4.537-3.63-8.167-3.63-1.815 0-2.723.906-3.63.906-1.816.908-3.63.908-5.445 1.815l-.909.909c-2.721 2.721-1.813 5.445.909 7.258.907.909 1.815.909 3.63 1.816h6.352c.908 0 1.815 0 1.815.908v1.814c0 1.816-2.722 3.63-2.722 7.261 0 2.722 1.815 5.445 3.63 8.167v3.63h-.908c-1.815 0-3.63 0-5.445-.908-2.723-.907-3.63-2.722-4.537-4.537-.908-1.815-1.815-2.722-2.724-3.63-1.813-.907-4.537-.907-6.351.908-1.816 1.815-1.816 2.722-3.63 2.722h-2.723c-3.63 0-4.538 1.815-4.538 4.537 0 1.815 0 2.724.908 4.538.908.907 2.722 1.815 5.446 1.815 1.814 0 2.721-.908 4.537-1.815.908-.908.908 0 .908 0 .906 2.723 1.814 4.537 3.63 5.445.907.908 1.813 1.816 2.722 1.816.907.906 1.815 0 2.722 0 1.815 0 2.723 0 4.538-.908l-2.723 10.89h-5.446c-2.721 0-5.443.906-8.167 1.815-.907 0-1.814.907-2.721.907h-4.538c-3.63 1.814-5.446 4.538-3.63 8.168q2.722 5.445 8.168 2.721c.907 0 2.721-.906 4.537-1.814 1.814-.907 3.63-.907 6.351 0 0 1.814-.906 2.723-.906 4.538l-1.815 1.815-.908.907-1.814 1.815c-.908 1.815-1.815 2.722-3.63 4.537-2.724 0-5.445-.907-7.26 0-1.816 1.815-2.723 4.538-1.816 7.26 0 .908.907 1.816 1.815 2.724 3.63 1.814 8.167 1.814 10.891-.908 2.722-2.723 5.443-6.353 8.167-8.167.907-.909 2.722-1.816 4.537-2.724 3.63.908 6.353 1.815 9.983 3.63 2.722 2.723 3.63 6.353 4.538 9.983 0 .907-.908 1.816-.908 1.816-.908-.909-.908-.909-.908-1.816-.907-1.814-1.815-2.722-2.722-4.538-2.723-3.63-7.26-5.445-9.075-.907-.908 1.815.907 3.63 1.815 5.445.907.907-.908 0-.908-.908l-1.815-.906c-2.723-1.816-5.445-.908-7.26 2.721-.907 2.723 0 4.538.908 5.446.907 1.815 3.63 2.722 6.352 4.537.908 2.722 3.63 6.353 6.353 9.076.907 0 1.815 0 1.815.906 3.63.908 6.353.908 9.982.908 4.538-1.814 7.26-2.722 10.89-.908v-3.63c0-.907-.907-1.814-.907-3.63 1.814-8.167 2.723-14.52.907-22.687-1.814-6.352-3.63-9.982-6.352-10.89-2.723-.907-5.446-.907-9.075-.907v-1.815c-.908-3.63-.908-9.076 0-12.705 1.814-2.722 4.537-4.538 6.352-7.26 1.815 1.814 3.63 4.538 4.537 6.351 1.815 6.354.908 13.614 2.724 19.966.907.908 1.814 2.722 2.721 3.63 1.816 2.722 4.538 4.537 6.354 6.353.907 3.63 0 8.168 1.813 10.89.909 1.815 2.724 2.722 4.538 3.63 4.538.907 9.076.907 13.613.907-2.722-3.63-4.537-6.352-8.167-9.983-1.815-1.814-1.815-2.722-1.815-4.537 0-2.723-.908-4.538-1.815-5.444-1.816-3.631-4.538-4.538-6.354-7.261-.906-.907-1.813-2.722-2.721-4.537-.908-4.538-.908-9.076-.908-12.705 0-3.63 0-6.353-.908-9.983-.906-.908-1.814-2.722-2.721-3.63" style="fill:#30312c;fill-opacity:1;fill-rule:evenodd;stroke:none" transform="matrix(1.33333 0 0 -1.33333 -.667 1121.853)"/><path d="M437.194 422.607c1.816 3.63-.906 8.167 1.816 10.89 1.815 2.723 8.168 4.538 12.705 3.63-1.815-4.537-5.445-5.444-7.26-8.168-1.815-2.722-.907-7.26-2.723-9.981-4.538-6.353-6.351-.909-9.981-14.521-.908-5.445 0-9.982-.908-16.335 0-4.538-4.537-7.26-7.261-9.982-2.722-2.723-1.814-6.353-6.352-7.261-6.352-4.537-5.445-9.983-2.723-12.704 2.723-2.723 1.815-6.354 2.723-9.984s-4.537-3.629-5.445-4.537c-4.537-1.814-4.537-3.63-9.075-4.537-1.815 0-3.63.907-5.445 1.816-4.537 0-5.446 1.814-4.537 4.537 1.815 4.537 8.167 1.814 11.797 2.721 1.815 1.816 3.63 2.724 1.815 5.446s-2.722 4.538-2.722 6.353 1.815 4.537 3.63 7.26c.907 2.722-.908 5.444-.908 7.259-2.722-.906-4.537 0-8.167-1.815-2.723-.907-3.63-2.722-5.445-5.444-.909-2.723-2.722-3.63-4.538-2.723-1.814.908-2.722 2.723-4.538 3.63-2.721.908-4.537-.907-6.351 0-.908 0-1.816 3.63-.908 5.446 0 .906 2.722 1.814 4.538 1.814.907 0 2.721-1.814 3.63-2.723.907 0 2.721.909 3.63 1.815.907 2.723 1.815 3.63 4.537 6.353 1.815 1.816 7.26-1.815 9.982-.908 0 1.816-3.63 11.799-4.537 15.428-.908 0-2.723-.907-5.445-.907-1.815 0-4.538.907-6.352 1.815-1.815 0-3.63.906-5.445.906-1.816.908-3.63-1.814-6.354.908-2.722 2.723 0 7.261 2.724 7.261 3.63.906 6.351-3.63 9.981-3.63.908 0 4.537 0 6.353.907 0 1.815-.907 6.353-.907 7.26-.909.908-.909 1.815-2.722 2.723-1.816 1.815-3.63 5.444-6.354 7.259-.907.908-6.351-1.815-7.26.908-3.63 4.537 1.815 8.167 8.169 5.445 2.721-2.722 4.537-5.445 7.258-8.168 1.816-.907 5.446-3.629 7.261-3.629 3.63.907 7.26 1.814 10.89 4.538 3.63 2.721 4.537 7.26 5.445 9.981 0 1.815-.908 3.63-2.722 4.538-1.815.907-3.63-4.538-5.445-7.26l-1.815-1.815c-.908-.907-1.815-.907-1.815-.907-.908 0-1.815.907-1.815 1.814 0 .908 3.63 3.63 1.815 6.354-1.815 1.814-6.353-2.724-6.353-2.724-2.722 0-3.63 1.815-3.63 3.63 0 .908 0 1.815.908 2.723 1.814 1.815 3.63 2.723 5.445 4.538s3.63 4.537 5.445 7.26c2.722 2.723 8.168 2.723 11.797 2.723 2.722-.908 7.26-2.723 9.076-1.816 0-.907-.909-2.722-.909-4.538 1.816-6.352 1.816-11.796 1.816-18.15-.907-6.351-2.723-10.889-6.353-13.612-.908-.907-6.353 0-9.982-.907 0-3.63-1.815-8.168 0-16.335 0-3.63 5.444-6.353 8.167-9.076.907 0 5.445 5.446 5.445 6.354 3.63 10.889.907 14.518 4.537 22.687.909 2.722 5.446 4.538 8.167 8.167" style="fill:#da4b4a;fill-opacity:1;fill-rule:evenodd;stroke:none" transform="matrix(1.33333 0 0 -1.33333 -.667 1121.853)"/><path d="M410.878 445.295c1.815 0 3.629-1.816 3.629-4.538s-1.814-4.537-3.63-4.537c-2.722 0-4.537 1.815-4.537 4.537s1.815 4.538 4.538 4.538" style="fill:#30312c;fill-opacity:1;fill-rule:evenodd;stroke:none" transform="matrix(1.33333 0 0 -1.33333 -.667 1121.853)"/><path d="M410.878 443.48c.907 0 1.815-1.815 1.815-2.723 0-1.815-.908-2.722-1.815-2.722q0 2.722-2.723 2.722c0 .908.908 2.722 2.723 2.722" style="fill:#fff;fill-opacity:1;fill-rule:evenodd;stroke:none" transform="matrix(1.33333 0 0 -1.33333 -.667 1121.853)"/><path d="M188.54 404.457c0-6.353-.908-13.612 0-19.965v-1.814l.907-1.816c1.815-6.353 6.352-9.983 12.705-9.983.908-3.629 0-8.167-.907-10.889-.908-2.723-1.816-4.538-2.723-6.353-.908-2.722-.908-5.446 0-6.353q1.361-2.721 5.445-2.721c3.63-.909 5.445-3.63 9.075-4.539 4.537 0 7.26 0 9.075 4.538 0 1.816 0 3.63-.908 4.538l-1.814 1.815c-1.816 0-2.723.906-4.538.906-.907 0-2.722-.906-3.63-.906-.907.906 0 1.814 0 2.722 1.815 2.722 4.537 4.538 6.352 7.26 1.816 1.815 1.816 2.723 1.816 5.445-.908 2.723-2.723 4.537-3.63 7.26h4.537c.907-1.815 1.815-2.723 1.815-4.537.907-.908.907-2.723 1.815-4.538 1.815-2.722 3.63-3.63 7.26-1.815 1.815.908 3.63 2.723 5.445 3.63 2.722 0 5.445.908 6.352 2.723 1.815 3.63 0 6.352-3.63 7.26-2.722 0-3.63-.908-6.352-1.816-.907-.906-1.815-.906-1.815.908 0 4.537 0 8.167-3.63 10.89-1.815.908-2.723.908-4.538.908 0 1.814 0 3.63.908 5.444 3.63-2.721 6.353-2.721 8.168-2.721 1.815.907 3.63 1.815 5.445 1.815h2.722c2.722 0 5.445 3.629 5.445 5.443 0 2.724-1.815 6.354-5.445 6.354-2.722 0-5.445-1.816-7.26-2.723h-2.722c-.908 0-1.815 0-2.723.907.908.908.908 1.816.908 2.723 1.815 0 3.63.908 4.537 1.814 1.815.909 2.722 3.631 4.538 5.446h1.814c4.538.908 7.26 2.723 7.26 7.26-.907 3.63-4.537 5.445-9.074 5.445-6.353-1.815-6.353-8.168-9.983-9.982-.908-.908-1.815-.908-3.63-.908-2.723 2.722-7.26 4.537-9.982 7.26-1.815 1.815-3.63 3.63-3.63 7.26 0 0 1.815 2.722 2.722 1.815 1.815-1.814 1.815-5.445 4.537-5.445 2.723-.907 5.445 2.723 4.538 4.537-.908.908-2.722 2.724-2.722 3.63 1.814-.906 2.722-2.722 3.63-2.722 2.722 0 3.63.907 4.537 2.723.908.907 1.815 3.63 0 5.445v.907c-1.815.908-3.63 2.723-5.445 4.537-1.815 3.63-2.722 7.26-7.26 9.075-2.722.908-6.353 0-9.075.908-1.815.908-3.63.908-4.537 1.815-1.816 0-2.723.908-4.538 1.815 0-1.815-.908-4.538-.908-7.26-4.537-6.353-7.26-15.428-5.445-23.595.908-3.63 2.723-6.353 4.538-9.075 2.722-2.722 5.445-5.445 10.89-6.352.907-6.353.907-10.89.907-15.428-.907-2.723-2.722-5.444-4.537-9.074-2.723 1.814-5.445 3.63-5.445 7.258 0 3.63.907 7.261.907 11.8-.907 3.63-2.722 6.35-4.537 9.98-1.815 1.816-3.63 4.538-4.537 6.353-1.815 1.816-2.723 3.63-3.63 5.446-.908 1.814-.908 3.63-1.815 5.445 0 2.722-.908 4.537-2.723 7.26h-1.815c-4.537 1.815-8.168.907-12.705.907l2.723-5.445c.907-1.815 2.722-2.722 4.537-4.538 1.815-1.815 1.815-3.63 1.815-6.352.907-1.815 1.815-3.63 2.722-4.538 1.815-2.722 3.63-3.63 6.353-5.444 0-1.815.908-2.723.908-3.63.907-.908 1.815-1.815 2.722-3.63 0-.909 0-1.815.908-2.723" style="fill:#30312c;fill-opacity:1;fill-rule:evenodd;stroke:none" transform="matrix(1.33333 0 0 -1.33333 -.667 1121.853)"/><path d="M195.8 407.18c-2.723 6.352-9.075 11.798-12.705 18.15-1.816 3.629-.908 9.074-2.723 11.797-2.723 2.723-8.168 1.815-11.797 2.723.907-4.538 4.537-6.353 6.352-8.167 1.815-2.724 1.815-7.261 3.63-9.984 1.815-3.63 5.445-3.63 7.26-8.167.908-2.722 2.723-3.63 3.63-7.26.907-5.445 0-9.982 0-16.334 0-4.539.907-9.984 3.63-12.706 2.722-3.63 5.445-4.538 10.89-5.445.908-4.537 0-9.075-.907-12.705-1.815-2.723-2.723-5.445-3.63-9.075-.908-3.63 4.537-3.63 6.352-4.537 3.63-1.816 3.63-2.723 7.26-3.63 5.445-.907 9.075.907 7.26 6.351-5.445 3.63-7.26 0-10.89 1.816-1.815 1.814 0 4.538 2.723 7.26 1.815 2.723 5.444 5.445 5.444 7.26 0 2.723-3.63 6.352-3.63 10.89 2.723-.908 4.538 0 7.26-.908 2.723-3.63 2.723-3.63 3.63-8.167.908-2.722 2.723-3.63 4.538-2.722s3.63 2.722 5.445 3.63c2.723.907 4.537.907 6.352 1.815 0 0 .908 1.814.908 3.63-.908 1.814-2.723 2.722-4.537 1.814-1.816 0-2.723-1.815-4.538-1.815-.907 0-2.722 0-2.722.909-.908 3.63 0 8.167-2.723 10.89-1.815 1.815-3.63.906-6.353.906 0 1.816 0 6.354 1.815 9.076 2.723-.909 4.538-2.722 9.076-2.722 1.815.906 2.722 1.813 4.537 1.813 1.815.909 3.63-1.813 5.445.909 2.722 2.721 1.815 5.445-.908 7.26-3.63 0-7.26-2.723-9.982-2.723-1.815 0-3.63.908-5.445 1.815 0 .907.907 3.63.907 4.538 1.816.906 3.63.906 4.538 1.815 2.723.907 3.63 4.537 5.445 6.352 1.815.908 6.352 0 7.26 1.815 2.723 5.445-2.723 9.075-8.168 6.352-2.722-2.721-3.63-5.445-6.352-9.074-1.815-.908-4.538-.908-6.353-.908-2.722 3.63-5.445 3.63-9.074 6.352-4.538 3.63-5.446 5.446-5.446 9.076 0 1.814 1.816 3.63 3.63 4.538 2.723.907 2.723-3.63 4.538-5.446h1.815c.908 0 1.815 0 1.815 1.816 0 .906-4.538 3.63-2.723 6.351 2.723 1.816 5.445-2.721 6.353-2.721 1.815 0 2.722.907 2.722 3.629v1.815c-2.722 1.815-4.537 3.63-6.352 5.445-.907 1.815-1.815 5.445-4.538 7.26-2.722 2.722-9.075.907-12.704 2.722-1.815.908-2.723.908-5.446 1.816v-4.537c-3.63-6.354-6.352-13.613-6.352-20.874.908-6.352 6.352-11.797 9.983-14.519 1.815-.908 4.537-1.815 6.352-2.723 0-8.167 1.815-9.075 0-16.335 0-4.537-4.537-8.167-4.537-13.612 0 0-.908 1.814-2.723 3.63s-4.538 3.63-5.445 5.445c-.908 6.351 2.722 10.89.907 16.335" style="fill:#da4b4a;fill-opacity:1;fill-rule:evenodd;stroke:none" transform="matrix(1.33333 0 0 -1.33333 -.667 1121.853)"/><path d="M210.32 448.925c-2.723 0-4.538-1.815-4.538-4.538 0-2.722 1.815-4.537 4.538-4.537 1.815 0 4.537 1.815 4.537 4.537s-2.722 4.538-4.537 4.538" style="fill:#30312c;fill-opacity:1;fill-rule:evenodd;stroke:none" transform="matrix(1.33333 0 0 -1.33333 -.667 1121.853)"/><path d="M210.32 447.11q-2.724 0-2.723-2.723 0-2.722 2.723-2.722c-.908 1.814 0 3.63 1.815 2.722 0 1.815-.908 2.723-1.815 2.723" style="fill:#fff;fill-opacity:1;fill-rule:evenodd;stroke:none" transform="matrix(1.33333 0 0 -1.33333 -.667 1121.853)"/><path d="M274.752 290.112c-.907-1.815-1.815-4.538-.907-6.353 0-1.815 6.352-4.537 10.89-4.537 9.075-.907 18.15-5.445 22.688-9.076 5.445 2.724 11.797 5.446 19.057 7.261 3.63.908 9.983 1.815 13.613 3.63q5.445 2.723 5.445 5.445c0 2.722-.907 3.63-1.815 6.352-.908 3.63-8.167 4.538-10.891 3.63-3.63-.906-6.352-3.63-7.26-6.352-5.444-.908-10.89-2.722-17.242-8.168-4.537 3.63-9.982 5.446-14.52 6.353 0 5.445-2.723 7.26-6.353 8.168-5.445.907-10.89-1.816-12.705-6.353" style="fill:#30312c;fill-opacity:1;fill-rule:evenodd;stroke:none" transform="matrix(1.33333 0 0 -1.33333 -.667 1121.853)"/><path d="M278.382 291.928c-1.815-1.816-2.722-3.631-2.722-7.261 5.444-3.63 9.982-3.63 15.427-4.538 5.445-.907 11.798-4.537 16.336-6.352 4.537.908 8.167 3.63 12.705 4.538 5.444 1.814 10.89 2.722 16.335 4.538 2.723.906 6.352 2.721 6.352 4.537 0 1.814 0 2.722-1.814 5.444-1.815-1.814-3.63-2.722-5.445-3.63-4.538-1.814-9.076-.907-14.52-2.722-4.538-.908-9.076-3.63-12.706-6.353-4.537 1.815-8.167 4.538-13.612 6.353-6.354 1.815-9.984.908-16.336 5.446" style="fill:#f2b637;fill-opacity:1;fill-rule:evenodd;stroke:none" transform="matrix(1.33333 0 0 -1.33333 -.667 1121.853)"/><path d="M281.104 292.834c3.63-1.814 7.26-2.722 9.983-3.63 0 2.724-1.815 4.538-3.63 5.445-2.723.909-5.445 0-6.353-1.815M338.277 293.742c-3.63-2.722-6.351-3.63-9.982-3.63.907 2.722 2.723 3.63 4.537 4.537 1.815.909 4.538 0 5.445-.907M145.887 263.795l3.63-5.445-18.15-30.855-4.538 5.445 4.538 6.352-9.075 10.89-6.353-1.815-4.537 4.537zm-5.445-8.166-11.797-3.63 5.444-7.26z" style="fill:#f2b637;fill-opacity:1;fill-rule:evenodd;stroke:none" transform="matrix(1.33333 0 0 -1.33333 -.667 1121.853)"/><path d="m146.795 263.795 3.63-4.538-1.816-1.816-3.63 5.446zm3.63-4.538v-.907h-.908zm0-.907-18.15-30.855-1.815.907 18.15 30.855zm-18.15-30.855-.907-1.815-.908 1.815h1.815m-1.815 0-3.63 4.537.908 1.815 4.537-5.445zm-3.63 4.537-.907.908v.907l.907-.907zm-.907 1.815 4.537 6.352 1.815-1.815-4.537-5.444zm5.445 6.352.907-.907v-.908l-.907.908zm-.908-1.815-8.167 10.89.908 1.816 8.167-10.89zm-8.167 12.706h.908l-.908-.907zm.908-1.816-7.26-2.721-.908 2.721 7.26 1.816zm-7.26-2.721h-.908v.906l.907.908zm-.907.906-4.537 5.445 1.815.909 3.63-5.446zm-4.537 5.445-.908.909h1.815v-.909zm.907.909 33.577 10.89.908-1.816-34.485-10.89zm33.577 10.89h.908l.908-.908h-.908zm-3.63-9.982-11.797-3.63-.907 1.814 11.797 3.63zm-13.613-3.63-.908 1.814h1.816v-.907zm1.815 1.814 5.445-7.26-1.815-.907-5.445 6.353zm5.445-8.167-.908-1.815-.907 1.815h1.815m-1.815.908 6.353 9.983 1.815-.908-6.353-9.983zm7.26 10.89 2.723.906-1.815-2.721-.908.908z" style="fill:#30312c;fill-opacity:1;fill-rule:nonzero;stroke:none" transform="matrix(1.33333 0 0 -1.33333 -.667 1121.853)"/><path d="m156.777 250.183 4.537-4.538-15.427-15.428c-.908-1.815-1.815-2.722-2.722-3.63v-1.816c.907-.906.907-1.814 1.814-2.721.908-.908 1.816-.908 2.723-1.816.907 0 1.815 0 2.722.908 0 0 1.815.908 2.723 2.723l14.52 14.519 4.537-3.63-13.612-14.52c-1.815-2.722-3.63-4.538-5.445-4.538-.908-.906-1.815-.906-3.63-1.814-1.815 0-3.63.908-4.538.908-1.814.906-2.722 1.814-4.537 2.722-.907 1.815-2.722 3.63-2.722 5.445q-1.362 4.085 0 5.445c.907 1.815 1.815 4.538 4.537 7.26z" style="fill:#f2b637;fill-opacity:1;fill-rule:evenodd;stroke:none" transform="matrix(1.33333 0 0 -1.33333 -.667 1121.853)"/><path d="m156.777 251.09 4.537-4.537-.907-1.816-4.537 4.537zm4.537-4.537.908-.908-.908-.908v1.816m0-1.816-14.52-15.427-1.815 1.815 15.428 15.428zm-14.52-15.427-.907.907zm0 0-1.816 1.815zm-1.816 1.815.908-.908zm1.816-1.815-.908-.908-.908 1.815v.908zm-.908-.908-1.815.908c0 .907.907.907.907.907zm0 0c-.908-.907-.908-1.815-.908-1.815l-2.722.908 1.815 1.815zm-.908-1.815c-.907 0-.907-.907-.907-.907h-1.815v1.815zm-.907-.907v-.909l-1.815-.906v1.815zm0-.909h-.907zm0 0-1.815-.906zm-1.815-.906.908.906zm1.815.906h.907l-2.722-.906zm.907 0v-.906l-1.814-.908c0 .908-.908.908-.908.908zm0-.906s0-.908.908-.908l-1.815-1.815c-.907.908-.907 1.815-.907 1.815zm.908-.908s0-.907.908-.907l-.908-1.816c-.908 0-.908.908-1.815.908zm.908-.907h.907v-2.723c-.907.907-1.815.907-1.815.907zm.907 0v-1.816zm0 0c0-.908.907-.908.907 0v-2.723h-.907zm.907 0h.908l.907-1.816c0-.907-.907-.907-1.815-.907zm1.815-1.816v.908zm-.907 1.816.907-1.816zm0 0 1.815-1.816h-.908zm1.815-1.816-.908.908zm-1.815 1.816h.907l.908-1.816zm.907 0 2.723 2.721.907-1.814-2.722-2.723zm2.723 2.721 14.52 14.521.908-.908-14.52-15.427zm14.52 14.521v.907l.908-.907-.908-.908zm.908 0 4.537-4.538-.908-.907-4.537 4.537zm4.537-4.538h.908l-.908-.907-.908.907zm0-.907-13.612-14.52-1.815 1.815 14.52 13.612zm-13.612-14.52-.908.907zm0 0-1.815 1.815zm0 0-.908.907zm0 0-.908-.907-1.815 1.814c.908 0 .908 0 .908.908zm-.908-.907-.907-.908-1.815 1.815c.907 0 .907 0 .907.907zm-.907-.908c-1.815-1.816-2.723-2.722-3.63-2.722l-.908 1.814q1.36 0 2.723 2.723zm-3.63-2.722-.908.906zm0 0-.907 1.814zm-.907 1.814v-.908zm.907-1.814-.907-.908-.908 1.814.908.908zm-1.815.906.908-.906zm.908-1.814-.908 1.814zm0 0c-.908 0-2.723-.907-3.63-.907v2.721h2.722zm-3.63-.907h-2.722v2.721c.907 0 1.814-.906 2.722 0zm-2.722 0c-.908.907-1.816.907-2.723.907l.907 1.814h1.816zm-2.723.907.907.908zm0 0 .907 1.814zm.907 1.814v-.906zm-.907-1.814.907 1.814zm0 0c0 .908-.907.908-.907.908l.907 1.814s.907 0 .907-.908zm-.907.908c-.908 0-1.815.906-2.723 1.814l.908 1.816c.907-.908 1.815-1.816 2.722-1.816zm-2.723 1.814v.908zm0 0 .908 1.816zm.908 1.816-.908-.908zm-.908-1.816-.907.908.907 1.815.908-.907zm-.907.908-.908.908 1.815.907zm-.908.908c-.907 1.814-1.815 2.722-1.815 4.537l1.815.908c0-1.815.908-2.723 1.815-4.538zm-1.815 4.537 1.815.908zm0 0h.908zm0 0-.908.908h2.723zm-.908.908h.908zm0 0v.906h1.816s.907 0 .907-.906zm0 .906c0 1.816 0 2.724.908 4.539l1.815-.908c-.907-.907-.907-1.815-.907-3.63zm2.723 3.63h-.907zm-1.815.908c0 .907.908 1.815 1.815 2.722l1.815-.907c-.907-.908-1.815-1.815-1.815-2.723zm1.815 2.722c.908 1.815 1.815 2.722 3.63 4.537l.908-1.815c-.908-.907-1.815-2.722-2.723-3.629zm3.63 4.537 13.613 14.52.907-1.815-13.612-14.52zm13.613 14.52h.907v-.906z" style="fill:#30312c;fill-opacity:1;fill-rule:nonzero;stroke:none" transform="matrix(1.33333 0 0 -1.33333 -.667 1121.853)"/><path d="m175.834 231.125 6.353-4.538c3.63-2.722 5.445-5.445 7.26-8.167.907-2.724.907-5.445.907-8.167-.907-2.724-1.814-6.354-4.537-9.075-.907-1.816-2.722-3.631-5.445-4.538-1.815-.908-3.63-1.816-5.445-1.816s-4.538 0-5.445.908c-1.815 0-4.537 1.815-8.168 4.538l-5.444 4.538zm.908-9.075-12.705-16.335 2.723-1.816q2.723-2.722 5.444-2.721c.908 0 2.723 0 4.538.906 1.815 0 2.722 1.815 4.537 3.63q2.724 4.085 2.723 8.168c0 2.722-1.815 4.538-5.445 7.26z" style="fill:#f2b637;fill-opacity:1;fill-rule:evenodd;stroke:none" transform="matrix(1.33333 0 0 -1.33333 -.667 1121.853)"/><path d="m176.742 232.032 5.445-4.537-.908-1.815-6.352 4.537zm5.445-4.537c1.815-1.815 3.63-3.63 5.445-4.538l-1.815-1.815c-.907 1.815-2.722 2.723-4.538 4.538zm5.445-4.538c.908-1.815 1.815-2.723 2.722-4.537h-1.814l-2.723 2.722zm2.722-4.537h-.907zm0 0c0-.908.908-1.816.908-3.63h-1.815c0 .906-.907 1.814-.907 3.63zm.908-3.63v-4.537h-1.815v4.537zm0-4.537h-.908zm0 0c0-1.816-.908-3.63-1.815-4.538l-1.815.907c.908.907.908 2.723 1.815 3.63zm-1.815-4.537c0-1.816-.907-3.631-2.722-4.537l-1.815.906c1.815.908 2.722 2.724 2.722 4.538zm-2.722-4.537h-.908zm0 0-1.815.906zm-1.815.906.907-.906zm1.815-.906c0-.908 0-.908-.908-.908l-.907.908v.906zm-.908-.908v-.908l-1.815.908c0 .908.908.908.908.908zm0-.908c-1.815-1.815-2.722-2.722-4.538-3.63l-.907 1.815c.907.907 2.723 1.815 3.63 2.723zm-4.538-3.63c-1.815-.908-4.537-1.815-6.352-1.815v1.815c1.815 0 3.63.908 5.445 1.815zm-6.352 0v-.908zm0-1.815v1.815zm0 0v.907zm0 0h-.907v1.815h.907zm-.907 0h-.908v1.815h.908zm-.908 0h-4.537l.907 2.723c.907-.908 2.722-.908 3.63-.908zm-3.63 2.723v-.908zm-.907-2.723.907 2.723zm0 0 .907 1.815zm0 0c0 .907 0 .907-.908.907l.908 1.816h.907zm-.908.907h-.907l.907 1.816h.908zm-.907 0c-1.815.908-3.63 2.723-6.353 4.538l1.815 1.816c1.815-1.816 4.538-3.631 5.445-4.538zm-6.353 4.538-5.445 4.537.908 1.816 6.352-4.537zm-5.445 4.537-.908.909.908.907.908-.907zm0 1.816 19.965 26.317 1.815-1.815-20.872-26.318zm19.965 26.317.907.908.908-.908-.908-.907zm2.722-9.982-12.704-16.335-1.816.907 13.613 16.335zm-13.612-17.242-.908.907v.907l.908-.907zm.908 1.814 1.815-1.814-.908-1.816-1.815 1.816zm1.815-1.814v-.909zm0 0-.908-1.816zm0 0v-.909zm0 0c.907 0 .907 0 .907-.909l-.907-.907h-.908zm.907-.909h.908l-.908-1.815s-.907 0-.907.908zm.908 0c1.814-.907 2.722-1.815 3.63-1.815v-1.814c-1.816 0-2.723.908-4.538 1.814zm3.63-1.815v-.906zm0 0v-1.814zm0-1.814v.908zm0 1.814h.907l-.908-1.814zm.908 0v-1.814h-.908zm0 0c.908 0 1.815 0 2.722.908l.908-1.814c-.908-.908-1.815-.908-3.63-.908zm2.722.908.908-.908zm0 0c.908 0 1.815 0 2.723.907l.907-1.815c-.907 0-1.815-.906-2.722-.906zm2.723.907c.907.909.907 1.816 1.815 1.816l1.815-.907-2.723-2.724zm3.63.909-.908.907zm-1.815.907 1.815-.907zm1.815-.907-.908.907zm-1.815.907c0 .907.907.907.907 1.814l1.816-1.814c-.908 0-.908 0-.908-.907zm.907 1.814.908.908 1.815-.908c-.907-.907-.907-.907-.907-1.814zm.908.908c.908 1.816.908 3.63.908 5.445h1.815c0-1.816 0-4.537-.908-6.353zm2.723 5.445h-.908zm-1.815 0s0-.907 0 0h1.815zm1.815 0h-.908zm-1.815 0v.908h1.815v-.908zm0 .908s-.908 0-.908.906l1.815.908c0-.908.908-.908.908-1.814zm-.908.906c-.908.908-1.815 2.724-3.63 4.538l.907 1.816c2.723-1.816 3.63-3.63 4.538-5.446zm-3.63 4.538v.908zm0 0-1.815 1.816.907.907 1.815-.907zm-1.815 2.723v.908l.907-.908-.907-.907z" style="fill:#30312c;fill-opacity:1;fill-rule:nonzero;stroke:none" transform="matrix(1.33333 0 0 -1.33333 -.667 1121.853)"/><path d="m197.614 214.79 15.428-9.075-2.722-5.445-10.89 6.352-2.723-5.444 9.982-6.354-2.722-5.445-9.983 6.353-4.537-7.26 9.982-6.352-2.722-5.445-16.335 9.075z" style="fill:#f2b637;fill-opacity:1;fill-rule:evenodd;stroke:none" transform="matrix(1.33333 0 0 -1.33333 -.667 1121.853)"/><path d="m197.614 215.696 16.336-9.074-1.815-1.814-15.428 9.074zm16.336-9.074v-1.814l-.908.907zm0-1.814-2.723-5.446-1.815 1.816 2.723 4.537zm-2.723-5.446-.907-.908-.908.908.908.908zm-1.815 0-9.983 6.353.908 1.814 9.983-6.351zm-10.89 7.26.907.907h.908l-.908-.907zm1.815-.907-2.723-5.445-1.815.908 2.723 5.444zm-4.538-5.445h-.907l.907.908h.908zm1.815 1.814 9.983-6.352-.908-1.815-10.89 6.353zm9.983-6.352h.907l-.907-.908h-.908zm0-.908-2.722-5.445-1.815.908 2.722 5.445zm-2.722-5.445-.908-.907-.907.907h1.815m-1.815 0-9.983 5.445.907 1.816 9.983-6.353zm-9.983 7.26v.908l.907-.907v-.908zm1.815-1.816-4.538-7.259-1.814.907 4.537 8.168zm-6.352-7.259h-.908l.908.907h.907zm.907 1.814 10.89-6.352-.908-1.815-10.89 6.353zm10.89-6.352h.908l-.908-.907h-.908zm0-.907-2.723-5.445-1.815.907 2.723 5.445zm-2.723-5.445-.907-.908h-.908l.908.908zm-1.815-.908-15.427 9.075.907 1.815 15.428-9.075zm-15.427 9.075-.908.908v.907l.908-.907zm-.908 1.815 17.243 28.133 1.815-.908-17.243-28.132zm17.243 28.133v.906h.907v-.906z" style="fill:#30312c;fill-opacity:1;fill-rule:nonzero;stroke:none" transform="matrix(1.33333 0 0 -1.33333 -.667 1121.853)"/><path d="m240.267 193.009 17.243-5.444-2.723-6.353-10.89 3.63-1.815-5.446 10.89-3.63-1.815-5.445-10.89 3.631-2.722-8.168 10.89-4.537-1.815-5.444-17.243 5.444z" style="fill:#f2b637;fill-opacity:1;fill-rule:evenodd;stroke:none" transform="matrix(1.33333 0 0 -1.33333 -.667 1121.853)"/><path d="m240.267 193.917 17.243-5.445-.908-2.722-17.243 6.353zm17.243-5.445.907-.907v-.908l-.907.908zm.907-1.815-2.722-5.445h-1.816l2.723 6.353zm-2.722-5.445v-.907h-.908v.907zm-.908-.907-10.89 3.63v1.815l11.798-3.63zm-11.798 5.445v.907l.908-.907v-.908zm1.815-.908-1.815-5.446h-1.815l1.815 6.354zm-3.63-6.352h-.907l.907.906h.908zm.908 1.815 11.797-3.63-.907-1.816-11.798 3.631zm11.797-3.63h.908l-.908-1.816-.907.908zm0-1.816-1.815-5.444-1.814.906 1.814 5.446zm-1.815-5.444v-.908h-.907v1.814zm-.907-.908-11.798 4.538.908 1.814 10.89-3.63zm-11.798 5.445v.907h.908v-.907zm1.815-.907-2.722-8.167-2.723.906 3.63 8.168zm-4.537-8.167h-.908v.906h1.816zm.908 1.813 10.89-4.537v-1.814l-11.798 4.538zm10.89-4.537h.907v-.907h-.907zm.907-.907-1.815-5.444h-1.815l1.815 6.351zm-1.815-5.444-.907-.908h-.908l.908.908zm-1.815-.908-17.242 5.445.907 2.723 17.243-6.354zm-17.242 5.445-.908.907.908.907.907-.907zm0 1.814 10.89 30.855h1.814l-10.89-31.762zm10.89 30.855v.908h.907v-.908z" style="fill:#30312c;fill-opacity:1;fill-rule:nonzero;stroke:none" transform="matrix(1.33333 0 0 -1.33333 -.667 1121.853)"/><path d="m258.417 173.045 11.797-2.724-1.815-5.443-10.89 2.722z" style="fill:#f2b637;fill-opacity:1;fill-rule:evenodd;stroke:none" transform="matrix(1.33333 0 0 -1.33333 -.667 1121.853)"/><path d="m259.325 173.952 10.89-1.815-.908-2.722-10.89 2.722zm10.89-1.815.907-.908v-.908h-.908zm.908-1.816-1.815-5.443h-1.815l1.815 6.351zm-1.815-5.443v-.908h-.908v.908zm-.908-.908-10.89 2.721v1.816l11.798-2.723zm-10.89 2.721h-.907v.909h.908zm-.908.909.908 5.445h1.815l-.908-5.445zm.908 5.445v.907h1.815l-.908-.907z" style="fill:#30312c;fill-opacity:1;fill-rule:nonzero;stroke:none" transform="matrix(1.33333 0 0 -1.33333 -.667 1121.853)"/><path d="m279.29 182.12 18.15-1.815-.908-6.353-11.798 1.815v-6.352l10.891-.908v-6.353l-11.798.908-.907-8.167 10.89-1.816v-5.445l-18.15 1.815z" style="fill:#f2b637;fill-opacity:1;fill-rule:evenodd;stroke:none" transform="matrix(1.33333 0 0 -1.33333 -.667 1121.853)"/><path d="m279.29 183.027 18.15-1.815v-1.816l-18.15 1.816zm18.15-1.815h.908v-.907h-.908zm.908-.907-.908-6.353h-1.815l.907 6.353zm-.908-6.353v-.907h-.908v.907zm-.908-.907-11.798 1.814v1.816l11.798-1.816zm-12.705 2.722v.908h.907v-.908zm1.815 0v-6.352h-2.722l.907 6.352zm-1.815-7.26h-.907v.908h1.814zm.907 1.814 11.798-.906-.907-2.724-11.798 1.816zm11.798-.906h.908V167.6l-1.815.907zm.908-1.815-.908-5.446h-1.814v6.353zm-.908-5.446v-.907h-.907v.907zm-.907-.907-11.798.907v2.724l11.798-1.815zm-12.705 2.723v.908h.907v-1.815zm1.814-.908-.907-8.167h-2.723l1.816 9.075zm-2.722-9.075h-.908v.908h1.816zm.908 1.816 11.798-1.816-.908-1.815-11.798 1.815zm11.798-1.816h.907v-.908h-1.815zm.907-.908-.907-6.351-1.816.906v5.445zm-.907-6.351v-.909h-1.816l.908 1.815zm-1.816-.909-17.242 2.723v1.815l18.15-1.815zm-17.242 2.723h-.908v.907h.908zm-.908.907 3.63 32.671h1.815l-3.63-32.67zm3.63 32.67v1.815l.908-.908v-.907z" style="fill:#30312c;fill-opacity:1;fill-rule:nonzero;stroke:none" transform="matrix(1.33333 0 0 -1.33333 -.667 1121.853)"/><path d="m321.035 175.767-5.445-4.538c-.907 2.723-2.722 3.63-4.537 3.63-.908 0-1.815 0-1.815-.907-.908 0-.908-.907-.908-1.815v-.908c.908-.908 2.723-2.722 5.445-4.538 1.815-1.813 3.63-3.629 3.63-3.629 1.815-1.815 2.723-2.722 2.723-3.63.907-1.815.907-2.723.907-4.537 0-2.723-.907-4.538-2.722-6.353s-4.538-2.723-7.26-2.723c-2.723 0-4.538.909-6.353 1.815-1.815.908-2.722 2.723-4.537 5.445l5.444 2.724c1.816-2.724 3.631-3.631 5.446-3.631.907 0 1.815 0 2.722.907.908 0 .908.908.908 1.816s0 1.814-.908 2.722c0 0-1.815 1.816-3.63 2.723-3.63 3.63-5.445 5.444-6.352 7.26-.908 1.815-1.815 2.721-1.815 4.537 0 2.722.907 4.538 2.722 6.353s3.63 1.815 6.353 1.815c1.815 0 3.63 0 4.537-.909 1.815-.906 3.63-1.814 5.445-3.63" style="fill:#f2b637;fill-opacity:1;fill-rule:evenodd;stroke:none" transform="matrix(1.33333 0 0 -1.33333 -.667 1121.853)"/><path d="m321.035 174.86-4.537-4.539-.908 1.816 4.538 3.63zm-4.537-4.538-.908-.906v1.814zm-.908 0 .908 1.816zm0 0v.908zm0 0-.907.908 1.815 1.816v-.908zm-.907.908c0 .908-.908.908-.908.908l1.815 1.815c0-.907 0-.907.908-.907zm-.908.908c-.907.908-1.815 1.815-2.722 1.815v1.815c1.815 0 2.722-.908 4.537-1.815zm-2.722 1.815v1.815zm0 0h-.908l-.907 1.815h1.815zm-.908 0-.907 1.815zm0 0c0-.907 0-.907-.907-.907l-.908 1.814s.908 0 .908.908zm-.907-.907v.907zm0 0-.908 1.814zm-.908 1.814.908-.907zm.908-1.814-.908 1.814zm0 0-.908.907zm0 0-1.815.907.907.907zm0 0v-.908h-1.815v1.815zm0-.908-1.815-.908v.908zm0 0v-.908l-.908-.908c-.907 0-.907.908-.907.908zm0-.908h-.908zm0 0-.908-.908zm-.908-.908v.908zm.908.908h.907l-1.815-.908zm.907 0-1.815-1.814v.906zm0 0 3.63-3.63-.907-1.815c-1.815 1.816-3.63 2.723-4.538 3.631zm2.723-5.445.907.907zm.907 1.816q2.723-1.363 2.723-2.722l-.908-1.815-2.722 2.721zm2.723-2.722c.907-.908 1.815-.908 1.815-.908l-.908-1.816c-.907 0-.907.909-1.815.909zm.907-2.724v.908zm.908 1.816v-.908l-1.815-.908h.907zm-.908-1.816h-.907l.907.908zm.908 1.816c0-.908.907-.908.907-.908l-1.815-1.815v.907zm.907-.908v-.908l-.907-.907h-.908zm0-.908c.908-.907 1.815-1.814 1.815-2.721l-1.815-.909c0 .909-.907 1.816-.907 2.723zm1.815-2.721h-.907zm0 0c.908-.909.908-.909.908-1.816l-1.815-.908c0 .908 0 1.815-.908 1.815zm.908-1.816v-2.722h-1.815v1.814zm0-2.722c0-.908 0-2.723-.908-3.63l-1.815.907c.908.907.908 1.815.908 2.723zm-.908-3.63c0-1.816-.907-2.723-1.815-3.631l-1.815 1.815c.908.908 1.815 1.816 1.815 2.723zm-3.63-1.816.908-.907zm1.815-1.815-1.815 1.815zm-1.815 1.815.908-.907zm1.815-1.815s-.907 0-.907-.906l-.908 1.814v.907zm-.907-.906-.908.906zm0 0h-.908l-.907.906c0 .908 0 .908.907.908zm-.908 0c-1.815-1.816-3.63-1.816-6.352-1.816v1.816c1.815 0 3.63.906 5.445.906zm-6.352-1.816h-3.63l.907 2.722c.908-.906 1.815-.906 2.723-.906zm-3.63 0c-.908.907-1.816.907-2.723 1.816l.907 1.814c.908-.908 1.816-.908 2.723-.908zm-2.723 1.816-2.722 2.721.907.908c.908-.908 1.815-1.815 2.722-1.815zm-2.722 2.721-2.722 2.723 1.813.907c.909-.907 1.816-1.814 1.816-2.722zm-2.722 2.723v.907l.907.908v-.908zm.907 1.815 4.537 2.722 1.815-.906-5.446-3.631zm4.537 2.722.907.908.908-.908-.908-.906zm1.815 0c.908-.906 1.815-2.722 2.723-2.722l-1.815-1.815c-.908.907-1.816 1.815-2.723 3.63zm2.723-2.722c0-.908.907-.908 1.815-.908v-1.814c-.908 0-2.723 0-3.63.907zm1.815-.908h.907l.908-1.814h-1.815zm.907 0c.908 0 .908 0 .908.908l1.815-1.815c-.908-.907-.908-.907-1.815-.907zm.908.908.907-.908zm0 0 1.815-1.815zm1.815-1.815-.908.907zm-1.815 1.815h.907l.908-1.815zm1.815-1.815-.908.907zm-.908 1.815 1.815-.908c0-.907-.907-.907-.907-.907zm0 0v.908h1.815v-1.816zm0 .908v.908l1.815.906v-1.814zm0 .908v.906l.908.908c.907 0 .907-.908.907-.908zm0 .906c-.907 0-.907.908-1.815.908l1.815 1.816c0-.909.908-.909.908-1.816zm-1.815.908c0 .907-.907 1.816-1.815 2.723l.908.907c.907-.907 1.815-.907 2.722-1.814zm-1.815 2.723.908.907zm0 0c-.907 0-.907 0-1.815.907l1.815 1.815c0-.908.908-.908.908-1.815zm-1.815.907-.907.907.907 1.816c.908-.908.908-.908 1.815-.908zm-.907.907c-2.723 1.816-3.63 3.63-4.538 4.537l1.815 1.816c0-1.816 1.815-2.723 3.63-4.537zm-4.538 4.537.908.909zm0 0c-.907.909-.907 1.816-1.816 2.724l1.816.906c.908-.906.908-1.814 1.815-1.814zm-1.816 2.724v2.722h1.816v-1.816zm0 2.722c0 1.815 0 2.722.909 3.63l1.815-.908c-.908-.907-.908-1.814-.908-2.722zm.909 3.63c0 .908.907 2.723 1.815 3.63l1.814-1.815c-.907-.907-1.814-1.815-1.814-2.723zm3.63 1.815-.908.908zm-1.814 1.814 1.814-1.814zm1.814-1.814-.907.908zm-1.814 1.814h.907l.907-.906v-.908zm.907 0c0 .909.907.909.907.909l.908-1.815h-.908zm.907.909c1.816.907 3.631 1.815 5.446 1.815v-2.724c-1.815 0-2.723 0-4.538-.906zm5.446 1.815c.907 0 1.815-.908 2.722-.908l-.907-1.816h-1.815zm2.722-.908c.908 0 1.815 0 2.723-.907l-.908-1.815c-.907.906-1.815.906-2.722.906zm2.723-.907-.908-.909zm0 0c.907 0 1.815-.909 2.722-1.815l-1.815-.908c-.907 0-1.815.908-1.815.908zm2.722-1.815c0-.908.908-1.815 1.815-2.723l-.907-.908-2.723 2.723zm1.815-2.723.908-.908h-.908z" style="fill:#30312c;fill-opacity:1;fill-rule:nonzero;stroke:none" transform="matrix(1.33333 0 0 -1.33333 -.667 1121.853)"/><path d="m326.48 180.305 19.058 2.722v-6.352l-5.445-.908 2.722-26.318-6.352-.907-2.723 26.317h-6.352z" style="fill:#f2b637;fill-opacity:1;fill-rule:evenodd;stroke:none" transform="matrix(1.33333 0 0 -1.33333 -.667 1121.853)"/><path d="m326.48 181.212 18.15 2.723.908-1.815-18.15-2.724zm18.15 2.723h.908l.906-.908h-.906zm1.813-.908v-6.352h-1.813l-.908 6.352zm0-6.352.909-.908h-1.815v.908zm-.906-.908-5.445-.908v1.816l5.445.907zm-6.352 0-.909.908h1.816v-.908zm1.815 0 2.722-26.318h-1.816l-2.721 26.318zm2.722-26.318.908-.907h-1.816v.907zm-.908-.907-6.352-.908v1.815l6.352.908zm-6.352-.908h-.907v.908h.907zm-.907.908-2.724 26.317h1.815l2.723-26.317zm-1.816 27.225.907.908v-1.816h-.907zm0-1.815-6.352-.907v2.722h6.352zm-6.352-.907h-.908v.907l.908.907zm-.908.907-.908 6.353h2.723v-5.446zm-.908 6.353v.907h.908v-.907z" style="fill:#30312c;fill-opacity:1;fill-rule:nonzero;stroke:none" transform="matrix(1.33333 0 0 -1.33333 -.667 1121.853)"/><path d="m348.26 169.415 11.798 2.722.907-5.446-10.89-2.721z" style="fill:#f2b637;fill-opacity:1;fill-rule:evenodd;stroke:none" transform="matrix(1.33333 0 0 -1.33333 -.667 1121.853)"/><path d="m348.26 170.321 10.89 2.724.908-1.816-10.89-2.722zm10.89 2.724h.908l.907-.908h-.907zm1.815-.908.908-5.446-1.815-.907-.908 5.445zm.908-5.446v-.907l-.908-.906v1.813zm-.908-1.813-10.89-1.815-.907 1.815 11.797 2.722zm-10.89-1.815-.907-.909v.909l.907.907zm-.907 0-1.815 6.353h1.815l1.814-5.445zm-1.815 6.353v.906h.907v-.906z" style="fill:#30312c;fill-opacity:1;fill-rule:nonzero;stroke:none" transform="matrix(1.33333 0 0 -1.33333 -.667 1121.853)"/><path d="m360.058 186.657 16.335 5.446 1.814-6.353-9.981-2.723 1.814-5.445 9.982 2.723 1.816-5.446-9.983-3.63 4.538-13.612-5.446-2.722z" style="fill:#f2b637;fill-opacity:1;fill-rule:evenodd;stroke:none" transform="matrix(1.33333 0 0 -1.33333 -.667 1121.853)"/><path d="m360.058 187.565 15.427 5.444.908-1.815-15.428-5.444zm15.427 5.444h.908l.908-.906h-.908zm1.816-.906 1.814-5.446-1.814-.907-1.816 5.444zm1.814-5.446v-.907l-.908-.908v.908zm-.908-1.815-9.981-2.722v1.815l9.075 2.722zm-10.889-1.815v.908h.908v-.908zm1.814 0 1.815-5.445-1.815-.907-1.814 6.352zm.908-6.352-.908-.908v.908l.908.907zm0 1.815 9.075 2.722.907-1.816-9.982-2.721zm9.075 2.722h.907l.909-.907h-.909zm1.816-.907 1.814-5.446-1.814-.907-1.816 6.353zm1.814-5.446v-.907h-.907v.907zm-.907-.907-9.983-3.63v1.815l9.076 3.63zm-10.89-2.723v.908h.907v-.908zm1.816.908 4.538-14.52-1.816-.908-4.538 14.52zm4.538-14.52.906-.908-.906-.906-.908 1.814zm0-1.814-6.354-1.816-.907 1.816 6.353 2.721zm-6.354-1.816h-.907v.908h.907zm-.907.908-10.89 31.762 1.815.908 10.89-31.762zm-10.89 31.762v.908h.908v-.908z" style="fill:#30312c;fill-opacity:1;fill-rule:nonzero;stroke:none" transform="matrix(1.33333 0 0 -1.33333 -.667 1121.853)"/><path d="m385.468 195.732 6.351 2.722 24.503-25.41-6.352-2.723-4.537 5.446-12.705-5.446v-7.259l-5.446-2.722zm6.351-6.353.909-12.704 8.167 3.63z" style="fill:#f2b637;fill-opacity:1;fill-rule:evenodd;stroke:none" transform="matrix(1.33333 0 0 -1.33333 -.667 1121.853)"/><path d="m385.468 196.64 5.445 2.722.906-1.815-5.443-2.723zm5.445 2.722h1.815l-.909-.908zm1.815 0 24.502-25.41-1.815-1.815-24.502 25.41zm24.502-25.41.908-.907-1.816-.908v.908zm-.908-1.815-5.444-2.722-.908 1.814 6.352 2.723zm-5.444-2.722h-.908v.906zm-.908 0-5.445 5.444 1.815 1.816 4.538-5.446zm-5.445 7.26h1.815l-.907-.908zm.908-1.816-12.705-5.444v1.814l11.797 5.446zm-13.614-4.538v.908h.909v-.908zm1.816 0v-7.259h-1.816v7.26zm0-7.26v-.908l-.907.908zm0-.908-6.353-2.721-.906 1.814 6.352 2.723zm-6.353-2.721h-.906l-.908.907h1.814zm-1.814.907-.907 35.392h1.815l1.814-35.392zm-.907 35.392v.908h.907v-.908zm8.167-6.353.907-12.704h-1.816l-.906 12.704zm0-13.612h-.909v.908h.909zm-.909 1.815 8.17 3.63.906-1.816-8.167-3.63zm9.984 3.63.907-.907-1.815-.909v.909zm-1.815-1.816-8.169 9.076.909 1.815 9.075-9.075zm-9.075 9.983v2.724l1.815-1.816-.909-.908z" style="fill:#30312c;fill-opacity:1;fill-rule:nonzero;stroke:none" transform="matrix(1.33333 0 0 -1.33333 -.667 1121.853)"/><path d="m429.027 212.066-1.814-5.444c-3.631.907-7.26.907-10.89-.907-2.722-1.816-4.538-3.631-5.445-7.26-.908-2.723 0-5.446.907-8.168 1.816-1.815 2.722-3.63 4.537-4.537 1.816-.908 3.63-.908 5.446-.908 1.814 0 3.63 0 6.352.908l3.631 3.629c.906 1.815 1.814 3.63 1.814 5.445l6.353-.907c-.908-3.63-1.815-6.352-3.63-8.167-.907-1.815-3.63-3.63-5.445-4.538q-6.806-4.084-13.613-2.722c-4.537 1.815-8.167 4.537-10.89 9.075-.907 2.722-1.815 5.444-1.815 8.167s.908 6.352 1.815 9.076c1.815 2.721 4.538 4.537 7.26 6.351 1.815.907 4.538 1.816 7.26 2.723 2.722 0 5.446 0 8.167-1.816" style="fill:#f2b637;fill-opacity:1;fill-rule:evenodd;stroke:none" transform="matrix(1.33333 0 0 -1.33333 -.667 1121.853)"/><path d="m429.936 212.066-1.816-5.444h-1.814l1.814 6.353zm-1.816-5.444v-.907h-.907v.907zm-.907-.907c-1.816.907-3.631.907-5.445.907v1.815c1.814 0 3.63 0 6.352-.908zm-5.445.907c-1.816 0-3.63-.907-5.446-1.814l-.907 1.814c1.815.907 3.63 1.815 6.353 1.815zm-5.446-1.814-2.721-2.724-1.816.908c.908 1.816 2.722 2.723 3.63 3.63zm-2.721-2.724c-.908-.906-.908-1.814-1.816-3.63l-1.815.908c0 1.816.908 2.722 1.815 3.63zm-3.631-2.722.908-.908zm1.815-.908-1.815.908zm0 0h-.907zm0 0v-.907h-1.815v1.815zm0-.907h-.907zm0 0v-.907h-1.815v.907zm0-.907c0-1.816 0-3.631.908-5.446l-1.815-1.815c-.908 2.724-1.815 4.538-.908 7.26zm-.907-7.26.907.908zm1.815 1.815c.908-.907 1.814-1.815 1.814-2.722l-.906-1.815-2.723 2.722zm1.814-2.722c.908-.907 1.815-.907 2.723-1.815l-1.815-1.815-1.814 1.815zm2.723-1.815-.908-1.815h-.907zm0 0-.908-1.815zm0 0v-.907zm0 0c.908 0 .908-.907.908-.907l-.908-1.815s0 .907-.908.907zm.908-.907h3.63v-2.723c-1.816 0-2.723.908-4.538.908zm3.63 0h2.722l.907-1.815c-.907 0-2.721-.908-3.63-.908zm2.723 0c.907 0 1.816.907 2.723.907l.907-1.815c-.907 0-1.814-.907-2.723-.907zm3.63-.908v.908zm-.907 1.815.907-1.815zm0 0 .907-.907zm0 0c0 .908 0 .908.907.908l.907-1.815s-.907 0-.907-.908zm.907.908 1.816-1.815h-.909zm0 0 2.723 2.722 1.814-.908c-.906-1.814-1.814-2.722-2.721-3.629zm2.723 2.722.908-.908zm0 0 1.814-1.815zm1.814-.908v-.907l-.906.907zm-1.814.908 1.814-.908zm0 0h.908zm0 0c0 .907.908.907.908.907l1.814-.907c-.908 0-.908-.908-.908-.908zm.908.907c0 .909.906 2.723.906 4.538l2.724-.908c-.908-1.815-1.816-3.63-1.816-4.537zm.906 4.538.908.908h.908l-.908-1.816zm1.816.908 5.445-1.816v-1.815l-6.353.908zm5.445-1.816.907-.907v-.908l-.907.908zm.907-1.815-1.815.908zm-1.815.908h.908zm1.815-.908v-.906h-1.815v1.814zm0-.906c-.907-.909-.907-.909-.907-1.816l-1.815.907c0 .909 0 .909.907.909zm-.907-1.816-2.724-5.445-1.813 1.815c.907.908 1.813 2.722 2.722 4.537zm-2.724-5.445-1.813 1.815zm0 0-.906.908zm0 0-.906-.907-.907 1.815v.907zm-.906-.907h-.907l-.908.907s0 .908.908.908zm-.907 0c-.908-1.815-2.724-2.723-4.538-3.63l-.907 1.815c1.815.907 3.63 1.815 4.537 2.722zm-5.445-1.815.907-.908zm.907-1.815c-1.816-1.815-4.537-2.723-6.353-2.723l-.908 1.814c2.724 0 4.538.909 6.354 2.724zm-6.353-2.723c-2.722-.907-5.445-.907-7.26 0v1.814h6.352zm-7.26 1.814v-.906zm0-1.814v1.814zm0 0v.908zm0 0c-.908 0-1.815.908-1.815.908v1.815c.907 0 1.815 0 1.815-.909zm-1.815.908c-.908 0-1.814 0-1.814.906l.906 1.816c0-.907.908-.907.908-.907zm-1.814.906c-3.631 1.816-5.446 3.631-8.168 7.261l1.815.908c1.815-2.723 4.537-5.445 7.259-6.353zm-8.168 7.261c-.908 1.815-.908 2.722-1.815 4.537l1.815.909c.907-1.816.907-2.724 1.815-4.538zm-1.815 4.537v4.538h1.815v-3.63zm0 4.538v.908h1.815v-.908zm0 .908v.907h1.815v-.907zm0 .907v1.815l1.815-.908v-.907zm0 1.815c0 1.816.907 3.63 1.815 5.446l1.815-.909c-.908-1.815-1.815-3.63-1.815-5.445zm1.815 5.446c.907 1.814 1.815 2.721 3.63 4.537l.907-1.816c-.907-.907-1.815-1.814-2.722-3.63zm3.63 4.537c.907.908 1.815 1.814 3.63 2.721l.908-1.813c-.908-.908-2.723-1.815-3.631-2.724zm3.63 2.721.908-.907zm0 0 .908-1.813zm.908-1.813v.906zm-.908 1.813s.908 0 .908.909l.906-1.816c0-.906 0-.906-.906-.906zm1.814-.907v.907zm-.906 1.816h.906l.908-1.816h-.908zm.906 0c2.723.907 4.538.907 6.353 1.815v-2.724c-1.815 0-3.63 0-5.445-.907zm6.353 1.815v-2.724zm0 0v-.908zm0 0h.908v-1.815l-.908-.909zm.908 0h1.814v-1.815h-1.814zm1.814 0c1.815 0 3.63-.908 6.354-.908l-.909-2.723c-1.814.907-3.63 1.816-5.445 1.816zm6.354-.908.907-.907-.907-.909h-.909z" style="fill:#30312c;fill-opacity:1;fill-rule:nonzero;stroke:none" transform="matrix(1.33333 0 0 -1.33333 -.667 1121.853)"/><path d="m428.12 219.327 14.52 10.89 3.63-4.537-9.076-7.26 3.631-4.538 9.075 6.352 3.63-4.538-9.075-7.259 4.538-6.353 9.983 6.353 3.63-4.538-14.521-10.89z" style="fill:#f2b637;fill-opacity:1;fill-rule:evenodd;stroke:none" transform="matrix(1.33333 0 0 -1.33333 -.667 1121.853)"/><path d="m427.213 220.234 14.52 10.891 1.815-1.815-14.52-10.89zm14.52 10.891.907.907.908-.907-.908-.908zm1.816 0 3.63-5.445-1.815-.909-3.63 4.539zm3.63-5.445.907-.909h-.907l-.908.909zm0-.909-9.984-7.26-.906 1.816 9.075 7.26zm-10.89-7.26-.907.909.907.907.906-.907zm.906 1.815 3.631-5.445-.907-.907-3.63 4.537zm3.631-6.352-.907-.909v.909l.907.907zm-.907.907 9.075 7.26 1.815-.908-9.983-7.26zm9.075 7.26.907.908.908-.908-.908-.908zm1.815 0 3.63-4.538-1.815-1.814-3.63 5.444zm3.63-4.538.907-.908-.907-.906-.908.906zm0-1.814-9.983-7.26-.907 1.815 9.075 7.26zm-10.89-6.352h-.908l.908.907.907-.908zm.907.908 5.445-7.261-1.815-.906-4.537 7.26zm5.445-8.167-.907-.908-.908.908.908.906zm-.907.906 9.075 7.26.908-1.815-9.076-6.351zm9.075 7.26.908.909.906-.908-.906-.908zm1.814 0 3.63-4.537-1.815-1.816-3.629 5.446zm3.63-4.537v-1.816l-.907.907zm0-1.816-14.52-10.89-1.815 1.815 14.52 10.89zm-14.52-10.89-.908-.908-.907.909.907.906zm-1.815 0-19.965 26.317 1.814 1.814 19.966-26.317zm-19.965 26.317-.907.907.907.907.907-.907z" style="fill:#30312c;fill-opacity:1;fill-rule:nonzero;stroke:none" transform="matrix(1.33333 0 0 -1.33333 -.667 1121.853)"/><path d="m446.27 234.754 4.538 4.538c1.815.907 3.63 2.723 5.445 4.537.907.908 2.723.908 3.629 1.816 2.723.908 6.353 0 9.075-2.723 1.815-2.723 2.724-6.353.908-9.982 1.816 1.814 5.446.907 7.261-.908l7.259-8.167-4.537-3.63-7.26 8.167c-.907.908-2.723.908-4.537 0l-4.538-4.537 9.075-9.983-4.537-4.537zm13.612-6.352 3.63 3.63c1.815 1.815 1.815 2.722 1.815 3.63s0 1.816-.907 2.722c0 0-.907.908-1.815.908h-1.815s-1.814-.908-2.722-1.814l-3.63-3.631z" style="fill:#f2b637;fill-opacity:1;fill-rule:evenodd;stroke:none" transform="matrix(1.33333 0 0 -1.33333 -.667 1121.853)"/><path d="m445.363 235.662 4.537 3.63 1.815-.908-5.445-4.537zm4.537 3.63v.907l.908-.907zm0 .907 1.815-1.815zm1.815-1.815-.907.908zm-1.815.908c1.815.907.908.907.908.907l1.815-.907c-.908-.908 0-.908-.908-.908zm.908.907c1.815 1.816 3.63 2.723 4.537 3.63l1.815-.907c-1.815-1.815-3.63-2.723-4.537-3.63zm4.537 3.63 1.815-.907zm0 0c0 .908.908.908.908.908l.907-1.815zm.908.908h.907l.908-1.815h-.908zm.907 0c.908.908 1.816.908 1.816 1.816l.906-1.816c-.906-.908-.906-.908-1.814-1.815zm1.816 1.816.906-.908zm0 0 .906-1.816zm.906-1.816v.908zm-.906 1.816h1.814v-1.816h-.908zm1.814-1.816v.908zm0 1.816h1.815v-1.816h-1.815zm1.815 0c2.722 0 4.538-.908 6.352-3.631l-.906-.907q-2.724 2.722-5.446 2.722zm6.352-3.631c1.815-.907 2.724-2.723 2.724-4.538h-1.816c0 .908-.908 2.723-1.814 3.63zm2.724-4.538c0-1.815 0-3.63-.909-5.444l-1.815.907c.908 1.815.908 2.722.908 4.537zm-1.816-6.352-2.722-1.815 1.814 3.63.908-.907zm-.908 1.815.908-1.815zm0 0 .908-.907zm0 0 .908.907.907-1.814s0-.908-.907-.908zm.908.907h1.816v-1.814h-.909zm1.816 0c1.814.908 4.537 0 6.351-1.814l-1.814-1.815c-.907 1.815-2.723 1.815-4.537 1.815zm6.351-1.814 7.261-8.169-1.815-.906-7.26 7.26zm7.261-8.169v-.906h-.908zm0-.906-4.537-4.538-1.816 1.815 4.538 3.63zm-4.537-4.538-.908-.907-.908.907.908.907zm-1.816 0-7.26 8.168 1.815 1.815 7.26-8.168zm-7.26 8.168.908.907zm0 0 1.814 1.815zm0 0 .907.907zm0 0 .907 1.815h.907zm0 0v2.722l.907-.907zm0 0q-1.363 1.36-2.724 0l-.906 1.815c.906.907 2.721.907 3.63.907zm-2.724 0-.906.907zm0 0-4.537-3.63-1.815.906 5.446 4.539zm-6.352-3.63v.906l.908-.906zm1.815.906 9.075-9.981-1.814-1.815-9.076 10.89zm9.075-9.981.907-.908-.907-.907-.907.907zm0-1.815-4.538-3.63-1.814.908 4.538 4.537zm-4.538-3.63-.906-.907-.908.907h1.814m-1.814 0-21.78 24.502 1.815.907 21.779-24.501zm-21.78 24.502-.908.907.908.908.907-.908zm13.613-4.537 4.537 3.63.907-1.815-3.63-3.63zm4.537 3.63c0 .907.907.907.907 1.814l1.815-1.814-1.815-1.815zm.907 1.814v.908l2.723-.908c-.908 0-.908-.907-.908-1.814zm0 .908h.907zm0 0v.907h1.815c.908 0 .908-.907.908-1.815zm0 .907v.909l.907.906c.908 0 .908-.906.908-1.815zm.907 1.815h-.907zm-.907-.906.907.906zm0 0v.906zm0 0h-.907l1.814 1.814v-.908zm-.907 0 1.814 1.814zm0 0c0 .906-.908.906-.908.906l.908 1.815s.907 0 1.814-.907zm0 2.721-.908-.907zm-.908-1.815.908 1.815zm.908 1.815-.908-.907zm-.908-1.815v1.815h.908zm0 0v1.815zm0 0h-.908l-.907 1.815h1.815zm-1.815 1.815v-.907zm.907-1.815-.907 1.815zm0 0-.907.908zm0 0h-.907l-.908 1.815h.908zm-.907 0-.908.908v.907zm0 0c0-.906-.908-.906-1.814-1.815l-1.816.909c.908.906 1.816 1.814 2.722 1.814zm-1.814-1.815-3.631-3.629-.907 1.814 2.722 2.724zm-4.538-2.722h-.908l.908.907zm.907.907 5.445-5.444-1.814-1.815-4.538 6.352zm5.445-7.259h-1.814l.906.907z" style="fill:#30312c;fill-opacity:1;fill-rule:nonzero;stroke:none" transform="matrix(1.33333 0 0 -1.33333 -.667 1121.853)"/><path d="m216.672 203.9 6.352-3.63 5.446-2.723c1.815-.907 2.722-1.815 3.63-2.723 1.815-2.721 1.815-6.352.907-9.074-1.815-2.723-4.537-4.538-9.075-4.538 2.722-.907 3.63-4.537 2.722-7.26l-5.445-9.982-5.445 2.721 5.445 9.984c0 .907 0 3.63-1.814 3.63l-5.445 3.63-6.353-12.706-5.445 2.723zm0-15.427 4.537-2.722c1.815-.908 2.723 0 3.63 0 .908 0 1.815.907 2.723 1.815v1.814c0 .908 0 1.815-.908 1.815-.907.909-1.815 1.815-2.722 1.815l-4.537 2.723z" style="fill:#f2b637;fill-opacity:1;fill-rule:evenodd;stroke:none" transform="matrix(1.33333 0 0 -1.33333 -.667 1121.853)"/><path d="m217.58 204.808 5.444-3.63-.907-1.816-5.445 3.63zm5.445-3.63v-.908zm0 0-.907-1.816zm-.907-1.816.907.908zm.907 1.816h.908l-.908-1.816h-.907zm.908 0 5.445-2.724-.907-1.814-5.446 2.722zm4.538-4.538v.907zm.907 1.814-.907-1.814zm0 0-.907-.907zm0 0h.908l-1.815-1.814zm.908 0v-.907l-.908-1.815-.907.908zm0-.907c.907-.907 1.815-.907 2.722-1.815l-1.815-.908s-.907.908-1.815.908zm.907-2.723h.908zm1.815.908-1.815-.908zm0 0-.907-.908zm0 0s0-.908.908-.908l-1.815-1.815c-.908.908-.908.908-.908 1.815zm.908-.908v-1.815l-1.815-.906v.906zm0-1.815h-.908zm0 0c.907-2.722.907-5.444 0-7.259l-1.815.907q1.36 2.722 0 5.446zm0-7.259c-.908-1.815-2.723-3.63-3.63-4.538l-.908 1.815c.908.908 1.815 1.815 2.723 3.63zm-3.63-4.538c-1.815-.907-3.63-.907-6.353-.907v1.815c2.722 0 3.63 0 5.445.907zm-6.353-.907-3.63 2.722 3.63-.907v-1.815m.907 1.815-.907-1.815zm0 0-.907-.908zm0 0 .908-.908-1.815-.907zm.908-.908.907-.907-1.815-.909-.907.909zm.907-.907c.908-1.815 1.816-4.538.908-6.353l-1.815.907c0 .908 0 2.723-.908 4.537zm.908-6.353-5.445-9.982-1.815.908 5.445 9.981zm-5.445-9.982v-.908h-.908v.908zm-.908-.908-5.445 2.722.908 1.816 5.445-2.722zm-5.445 2.722-.907.907v.909l.907-.909zm-.907 1.816 5.445 9.982 1.815-.907-5.445-9.984zm5.445 9.982.907-.907zm0 0 1.815-.907zm1.815-.907h-.908zm-1.815.907 1.815-.907zm0 0h.907zm0 0h1.815v-.907zm0 0c0 .908-.907 1.814-.907 1.814l.907 1.816c.907 0 1.815-1.816 1.815-3.63zm-.907 1.814-6.353 3.631.908 1.815 6.352-3.63zm-6.353 4.539v.907h.908v-.907zm1.815-.908-6.353-12.706-1.815.908 6.353 12.706zm-6.353-12.706v-.906l-.907.906v.908zm-.907 0-6.352 2.724.907 1.814 6.352-2.722zm-6.352 2.724-.908.907.908.907.907-.907zm0 1.814 14.52 29.04 1.814-.907-14.52-29.04zm14.52 29.04.907.909h.907l-.907-.909zm.908-14.52 5.445-2.722-.908-1.815-5.445 2.723zm5.445-2.722h.907v-1.815h-1.815zm.907 0h1.815v-1.815h-1.815zm1.815 0v-.907zm0 0 .908.908.907-1.815c-.907-.908-.907-.908-1.815-.908zm.908.908.907.907 1.816-.907c-.908-.908-.908-1.815-1.816-1.815zm2.723 0h-.908zm-1.816 0v.907l1.816-1.815v.908zm1.816 0v-.908l-.908.908zm-1.816.907 1.816-.907zm1.816-.907h-.908zm-1.816.907 1.816-.907zm0 0v.907l1.816.908v-2.722zm0 .907 1.816.908zm1.816.908-.908-.908zm-1.816-.908 1.816.908zm0 0v.908h1.816zm0 .908s-.907 0-.907.907l1.815.909s.908-.909.908-1.816zm.908 1.816-.908-.909zm-1.815-.909 1.815.909zm0 0h.907zm0 0 .907.909h.908zm0 0 .907 1.815v-.906zm0 0c-.908 0-1.815.909-2.723.909l.908 1.814c.907 0 1.815-.908 2.722-.908zm-2.723.909-3.63 2.721.908 1.816 3.63-2.723zm-4.537 3.63.908.907h.907l-.907-.908zm1.815-.908-2.723-6.352-1.815.907 2.723 6.353zm-4.538-7.259-.907.907.907.907.908-.907z" style="fill:#30312c;fill-opacity:1;fill-rule:nonzero;stroke:none" transform="matrix(1.33333 0 0 -1.33333 -.667 1121.853)"/><path d="m465.327 252.904 11.799 14.52 4.537-4.537-7.26-9.074 4.537-3.63 7.26 9.074 4.538-3.63-7.26-9.074 6.352-5.446 8.168 9.076 4.537-4.538-11.797-13.613z" style="fill:#f2b637;fill-opacity:1;fill-rule:evenodd;stroke:none" transform="matrix(1.33333 0 0 -1.33333 -.667 1121.853)"/><path d="m464.42 253.813 11.798 13.612 1.814-.908-11.797-13.613zm11.798 13.613.908.907h.906l-.906-.907zm1.814.907 4.537-4.537-.906-1.816-5.445 4.538zm4.537-4.537.909-.908h-1.815zm0-.908-7.258-9.075-1.816.908 7.26 9.075zm-9.074-9.983-.907.908.907.908.907-.908zm1.816 1.816 4.537-3.63-1.816-1.816-4.537 3.63zm4.537-5.446h-1.816l.908.909zm-1.816 1.816 7.261 9.075 1.814-1.815-7.26-9.076zm7.261 9.075.907.906.907-.906-.907-.908zm1.814 0 4.538-3.63-.907-1.815-4.538 3.63zm4.538-3.63.908-.907-.908-.908-.907.908zm0-1.814-7.26-9.075-1.816.908 8.17 9.981zm-9.076-9.075-.906.908h1.815zm1.816 1.814 6.353-6.352-.908-.908-7.26 5.446zm6.353-7.26v-.907l-.908.907v.908zm-.908.908 7.26 9.076 1.815-.909-8.167-9.075zm7.26 9.076.908.907v-.907zm.908 0 5.445-3.63-1.815-1.816-4.538 4.537zm5.445-3.63.908-.908-.908-.908-.908.908zm0-1.816-11.798-13.612-1.815 1.815 11.798 13.613zm-11.798-13.612-.907-.908-.908.908.908.907zm-1.815 0-25.41 21.78 1.815.908 25.41-20.873zm-25.41 21.78v.908l.907-.909z" style="fill:#30312c;fill-opacity:1;fill-rule:nonzero;stroke:none" transform="matrix(1.33333 0 0 -1.33333 -.667 1121.853)"/></svg>