<svg xmlns="http://www.w3.org/2000/svg" viewBox="21.38 7.95 149.99 175.62"><path fill="#c5d8e2" fill-rule="evenodd" stroke="#3974ad" stroke-miterlimit="2.613" stroke-width="5.575" d="M96.378 10.739s-11.074 9.417-25.062 10.595c-15.153.588-27.975-4.709-27.975-4.709v86.522c0 9.417 1.749 13.537 4.663 18.245 3.497 4.709 5.245 5.298 8.742 8.24l39.632 30.606 39.049-30.606c4.078-2.942 5.828-3.531 8.742-8.24s4.662-8.828 4.662-18.245V16.625s-12.24 5.297-27.393 4.709c-13.987-1.178-25.06-10.595-25.06-10.595z" clip-rule="evenodd"/><path fill="#c5d8e2" fill-rule="evenodd" d="M133.678 40.757c0 .554-.225 1.048-.648 1.467-.959.521-2.398.888-4.014.888-2.33 0-4.662-1.177-4.662-2.354s2.332-2.354 4.662-2.354c1.613 0 3.053.355 4.012.876.423.42.65.921.65 1.477" clip-rule="evenodd"/><path fill="#c0d2df" fill-rule="evenodd" d="M133.678 40.757c0-.556-.227-1.057-.65-1.479zm-.649 1.467c.424-.419.648-.913.648-1.467zm-1.099-1.467c0 1.177-1.748 1.766-4.08 1.766a10 10 0 0 1-2.156-.216c-.805-.433-1.34-.989-1.34-1.55s.535-1.126 1.34-1.559c.619-.142 1.352-.207 2.156-.207 2.332 0 4.08.589 4.08 1.766" clip-rule="evenodd"/><path fill="#b9ccdc" fill-rule="evenodd" d="M131.93 40.757c0-1.177-1.748-1.766-4.08-1.766-.805 0-1.537.065-2.156.207zm-6.237 1.55a10 10 0 0 0 2.156.216c2.332 0 4.08-.589 4.08-1.766zm4.489-1.55c0 .589-1.166 1.177-2.332 1.177-1.164 0-2.33-.588-2.33-1.177s1.166-1.177 2.33-1.177c1.166 0 2.332.588 2.332 1.177" clip-rule="evenodd"/><path fill="#afc1d8" fill-rule="evenodd" d="M130.764 40.757c0-.589-1.164-1.177-2.914-1.177-1.164 0-2.33.588-2.33 1.177s1.166 1.177 2.33 1.177c1.75 0 2.914-.588 2.914-1.177m-1.748 0s-.582.589-1.166.589c-.582 0-.582-.589-.582-.589s0-.589.582-.589c.584 0 1.166.589 1.166.589" clip-rule="evenodd"/><path fill="#a3b5d2" fill-rule="evenodd" d="M129.016 40.757s-.582-.589-1.166-.589c-.582 0-.582.589-.582.589s0 .589.582.589c.584 0 1.166-.589 1.166-.589" clip-rule="evenodd"/><path fill="#4f835b" fill-rule="evenodd" d="m127.268 33.694.582.588c.584 0 .584-.588.584-.588l.582.588c.584 0 .584-.588.584-.588s0 .588.582.588c0 0 .582 0 .582-.588 0 0 1.166.588 1.166 0l-1.166-1.766z" clip-rule="evenodd"/><path fill="#ad8c5a" fill-rule="evenodd" d="M127.268 40.168h1.166v-4.12c0-.588 0-.588-.584-.588 0-.589-.582-1.178-.582-1.178v-1.177h.582v.588c0 .588 1.166 1.177 1.166 1.177v-2.354h.584v2.354s.582 0 .582-.589v-1.765l.582-.589v1.766l1.75-.588s-1.166 0-1.75 1.177c-.582.589-.582 1.178-.582 1.178v.588s-.582 0-.582.589c0 1.177 0 3.531.582 3.531h.582l-1.164.589h-1.75l.584-.589z" clip-rule="evenodd"/><path fill="#6d464e" fill-rule="evenodd" d="m127.303 34.144-.035-.45v.391z" clip-rule="evenodd"/><path fill="#7c584f" fill-rule="evenodd" d="m128.385 40.708-.035-.457-.207.21zm-.416-5.44-.119-1.574h-.582l.035.45zm-.119 4.9h.494z" clip-rule="evenodd"/><path fill="#8c6951" fill-rule="evenodd" d="m128.971 40.757-.473-6.219c-.312-.223-.648-.531-.648-.844l.119 1.574.115.192c.352.011.35.09.35.588v4.12h-.09.09l-.084.084.035.457.049.048z" clip-rule="evenodd"/><path fill="#9b7a55" fill-rule="evenodd" d="m128.975 40.757-.438-6.194q-.02-.012-.039-.025l.473 6.219z" clip-rule="evenodd"/><path fill="#ad8c5a" fill-rule="evenodd" d="m129.445 39.177-.154-2.169-.498-2.269c-.076-.046-.162-.111-.256-.177l.438 6.194h.158z" clip-rule="evenodd"/><path fill="#ad8c5a" fill-rule="evenodd" d="m130.156 40.477-.027-.317c-.523-.155-.529-2.387-.529-3.522 0-.211.076-.348.172-.436l-.121-1.337-.051.007-.488.491.488 5.395z" clip-rule="evenodd"/><path fill="#b19060" fill-rule="evenodd" d="m130.715 40.194-.004-.026h-.529a.1.1 0 0 1-.053-.009l.027.317zm-.461-5.1-.072-.812c0 .482-.389.568-.531.582l.121 1.337c.172-.155.41-.153.41-.153v-.588s.002-.147.072-.366" clip-rule="evenodd"/><path fill="#b79466" fill-rule="evenodd" d="M130.764 34.282h-.582l.072.812c.074-.22.219-.517.51-.812m-.053 5.886.004.026.049-.026z" clip-rule="evenodd"/><path fill="#bd9e78" fill-rule="evenodd" d="M129.6 37.226v1.176z" clip-rule="evenodd"/><path fill="#6d464e" fill-rule="evenodd" d="M129.016 39.58v.588l-.582.589h1.166l-.584-.589zm-.582 1.177h-.584zm1.166-.589h1.165l-1.164.589zm-1.166-.588v-1.766s0 .588.582 1.177zm0-1.178" clip-rule="evenodd"/><path fill="#6d464e" fill-rule="evenodd" d="M128.434 35.46v2.364l.582-.588c0-.599-.582-1.776-.582-1.776m.582 1.766v1.766-1.766m-.582-1.178v.048zm0 .049v.023zm0 .023v.028zm0 .028v.02zm0 .021v.023zm0 .023v.021zm0 .021v.028zm0 .028v.018zm0 .018v.021zm0 .021v.021zm0 .021v.021zm0 .021v.019zm0 .018v.021zm0 .021v.021zm0 .021v.021zm0 .021v.014zm0 .014v.02zm0 .021v.016zm0 .016v.021zm0 .021v.013zm0 .013v.021zm0 .021v.021zm0 .021v.021zm0 .021v.015zm0 .014v.02zm0 .021v.021zm0 .021v.021zm0 .02v.019zm0 .019v.021zm0 .021v.021zm0 .021v.021zm0 .021v.021zm0 .02v.021zm0 .021v.021zm0 .021v.021zm0 .021v.021zm0 .021v.025zm0 .025v.023zm0 .023v.028zm0 .029v.021zm0 .02v.028zm0 .028v.027zm0 .028v.03zm0 .03v.028zm0 .028v.032zm0 .033v.03zm0 .029v.034zm0 .035v.032zm0 .032v.036zm0 .035v.034zm0 .036v.037zm0 .036v.035zm0 .035v.042zm0 .042v.042zm0 .041v.044zm0 .044v.042zm0 .042v.044zm0 .044v.047zm0 .047v.049zm0 .049v.049zm0 .048v.053zm0 .053v.053zm0 .054v.055zm0 .055v.026zm0 .026v.027zm0 .027v.028zm0 .028v.03zm0 .03v.028zm0 .028v.035zm0 .035v.032zm0 .032v.035zm0 .035v.033zm0 .033v.034zm0 .034v.035zm0 .035v.037zm0 .037v.035zm0 .035v.039zm0 .039v.035zm0 .035v.041zm0 .042v.035zm0 .035v.042zm0 .041v.034zm0 .035v.041zm0 .042v.034zm0 .034v.042zm0 .042v.041zm0 .042v.041zm0 .041v.04zm0 .04v.042zm0 .042v.042zm0 .041v.042zm0 .042v.042zm0 .042v.042zm0 .042v.042zm0 .041v.042zm0 .042v.034zm0 .034v.042zm0 .042v.041zm0 .042v.042zm0 .041v.04zm0 .04v.041zm0 .042v.042zm0 .041v.042zm0 .042v.035zm0 .035v.042zm0 .042v.042zm0 .042v.041zm0 .041v.034zm0 .035v.042zm0 .042v.039zm0 .039v.042zm0 .042v.035zm0 .035v.037zm0 .037v.034zm0 .034v.042zm0 .042v.035zm0 .035v.034zm0 .035v.034zm0 .034v.037zm0 .037v.027zm0 .028v.035zm0 .035v.033zm0 .033v.035zm0 .034v.028zm0 .028v.03zm0 .03v.027zm0 .028v.032zm0-4.365v-.311s0-.589-.584-.589v-1.177h-.582v.588s.582.589.582 1.178c.47 0 .566-.002.584.311m.058-1.231c.066.157.209.331.523.331v-.004c-.031-.017-.269-.144-.523-.327m.524.327v-2.055l.584-.294v1.176c-.584 0-.584 0-.584.588zm-.582 1.181v-.007zm0-.007v-.018zm0-.018v-.03zm0-.03v-.037zm0-.037v-.014zm0-.014v-.033zm0-.033v-.048zm0-.048v-.009zm0-.009v-.047zm0-.047v-.034zm0-.034v-.9zm1.748-1.489.582-.588 1.049-.352.043-.09a2 2 0 0 0-.863.667c-.123-.123-.229-.225-.229-.225v-.883l-.582.294z" clip-rule="evenodd"/><path fill="#bd9e78" fill-rule="evenodd" d="M129.6 37.814v1.766zm0-2.354h.582zm0 0v.588zm0 4.12s0 .588.582.588c-.162 0-.275-.185-.359-.475z" clip-rule="evenodd"/><path fill="#8dba4f" fill-rule="evenodd" d="M126.686 28.397c0 .588-.584 0-.584 0-.582.588-.582 0-1.166.588v.589h-.582v.588c-.582 0 0 .588 0 .588h-.582c0 .588-.584.588-.584.588l.584.589-.584.589c.584 0 .584.588 1.166.588l.582.588s-.582.588 0 .588c0 0 0 .589.584.589-.584 0 0 0 0 0 .582.589 1.166 0 1.166 0s.582-.589 1.164-.589c0 0 0-.588.584-1.177l.582.588 1.166-.588h1.166v.588c.582 0 .582.588.582.588h.584c0-.588.582 0 1.164 0 0-.588.584-.588.584-.588v-1.765l-.584-.589s.584 0 0-.588v-.588c-.582-.588-1.164-.588-1.164-.588l.582-.589h-.582v-.588l-.584-.589h-1.748s0-.588-.582-.588c-.584.588 0 0-.584 0-.582 0-.582.588-.582.588l-.584-.588-.582.588h-.582z" clip-rule="evenodd"/><path fill="#4f835b" fill-rule="evenodd" d="M129.6 31.339h-.584zm-.584 1.178-.582-.589-.584.589-.582-.589h-1.166v-.589l-.582.589h-.584v.589l-.582.588h1.166v.588h1.166v-.588h.582v-.588l-.582.588c-.584 0-.584-.588-.584-.588h1.748v.588c.164 0 .334.042.482.106.031-.037.064-.069.102-.106h-.584v-.588zm-.071 1.101.02.021s0-.002.002 0q.008.005.01.009l.01.01q.005.006.012.014c.006.007.014.012.016.016l.002.007 1.166-.588h-1.748c-.001-.002.352.351.51.511m1.237-1.101h.582c.584-.589 1.166.588 1.166.588.584 0 .584-.588.584-.588h.582-.582v.588h1.164s0 .588-.582.588l-.328.332.328-.332h-.582v.588h-.584s0-.588-.582-.588v-.588h-1.166zm.582-4.709.584.589h.582v.588l.777.392.389-.392h-.582v-.588l-.584-.589zm0 0" clip-rule="evenodd"/><path fill="#4f835b" fill-rule="evenodd" d="m126.053 28.445-.533.54s0 .589.582.589c0-.589 0 0 0 0v1.176l-.582-.588s-.584.588 0 .588v.588s-.584-.588-.584 0v1.178c.584 0 1.166.588 1.166.588l.584.588h-1.75l-.582-.588c-.582 0-.582-.588-1.166-.588l.584-.589-.584-.589s.584 0 .584-.588h.582s-.582-.588 0-.588v-.588h.582v-.589c.564-.569.587-.037 1.117-.54m4.129 3.483h.582l.584-.589h.582c.584 0 .584-.588.584-.588l-.584.588v-.588l-.582-.588v1.177h-.584v.589zm.582-2.943s-.582 0-.582-.588v-.589h.582l-.582.589c.582 0 .582.588.582.588" clip-rule="evenodd"/><path fill="#4f835b" fill-rule="evenodd" d="m124.936 33.105.584.588s-.584 0 0 0c.582 0 0 .588 0 .588h.582v.589c.584 0 .584-.589.584-.589h1.117c-.564.035-1.117.589-1.117.589s-.584.589-1.166 0c0 0-.584 0 0 0-.584 0-.584-.589-.584-.589-.582 0 0-.588 0-.588-.092-.093-.162-.174-.229-.241zm2.916 1.15a1.3 1.3 0 0 1 .143-.521 1.6 1.6 0 0 0-.143.521" clip-rule="evenodd"/><path fill="none" stroke="#3974ad" stroke-miterlimit="2.613" stroke-width="5.575" d="M43.925 79.015h105.489"/><path fill="#3974ad" fill-rule="evenodd" d="m105.703 50.763 1.748-.589-1.164 2.943h-2.332l-.584.589s-1.164 0-2.33-.589c-1.166 0-2.914-1.177-2.914-1.177s-1.167 1.177-1.167 1.766c0 1.177-.582.588.583 2.943 0 0 .584 2.943.584 4.12.582 1.765 0 2.943.582 4.12 1.166 2.354 3.498 4.12 3.498 4.12l-13.406.589s4.08-1.766 5.246-5.886c.583-3.532 0-4.709-1.166-7.063-.583-2.354-2.332-4.121-2.914-9.417-1.166-5.297 1.166-8.829.583-11.183 0-1.766 0-5.297-2.331-6.474-2.914-2.354-5.246-1.177-5.246-1.177s2.332-2.943 5.246-3.532c2.914 0 5.245 2.943 5.828 7.063.583 3.532 0 2.943 1.166 5.297 1.166 1.766 4.081 3.531 5.245 4.12 1.75.588 2.914 2.942 4.08 2.942s1.75-1.177 1.75-1.177z" clip-rule="evenodd"/><path fill="#f2de3d" fill-rule="evenodd" d="M84.139 27.808s2.331-2.354 4.08-2.354c2.914 0 2.914 3.531 2.914 3.531s-1.749-1.177-3.497-1.177c-2.331-.588-3.497 0-3.497 0" clip-rule="evenodd"/><path fill="none" stroke="#3974ad" stroke-miterlimit="2.613" stroke-width=".114" d="M84.139 27.808s2.331-2.354 4.08-2.354c2.914 0 2.914 3.531 2.914 3.531s-1.749-1.177-3.497-1.177c-2.331-.588-3.497 0-3.497 0"/><path fill="#f2de3d" fill-rule="evenodd" d="M94.629 67.243v-1.177c0-.589.583-.589.583-1.178 0-.588 0-1.177.583-1.177h.583s0 1.177-.583 2.354-1.166 1.178-1.166 1.178" clip-rule="evenodd"/><path fill="none" stroke="#3974ad" stroke-miterlimit="2.613" stroke-width=".114" d="M94.629 67.243v-1.177c0-.589.583-1.178.583-1.178s0-1.177.583-1.177h.583s0 1.177-.583 2.354-1.166 1.178-1.166 1.178"/><path fill="#f2de3d" fill-rule="evenodd" d="M96.378 61.946V60.18c-.583-1.177-1.166-2.943-1.166-2.943s.583 2.354.583 2.943v1.766z" clip-rule="evenodd"/><path fill="#f2de3d" fill-rule="evenodd" d="m91.133 69.009 1.166-1.177c.583 0 1.166-1.178 1.166-1.178s0 .589.583 1.178h.583s-.583-.589-.583-1.178c0-1.177 1.166-2.354 1.166-5.297 0-3.531-1.749-6.474-3.497-9.417 0-1.177-.583-3.532-1.166-4.709v-1.766l1.166 1.177h.583s-1.166 2.943.583 4.121c1.748 1.177 3.497.588 3.497.588s-2.915-2.354-3.497-5.297c0-3.531 1.166-10.594.583-12.949v-3.531l-2.331-2.943s.583 1.766.583 2.354-1.166 2.354-1.166 2.943.583 1.177.583 2.354-.583 5.298-.583 5.298l-.429.579c-.396 1.912-.775 4.243-.153 7.072.583 5.297 2.331 7.063 2.914 9.417 1.166 2.354 1.748 3.531 1.166 7.063-.512 1.805-1.579 3.156-2.621 4.106z" clip-rule="evenodd"/><path fill="none" stroke="#3974ad" stroke-miterlimit="2.613" stroke-width=".114" d="m91.133 69.009 1.166-1.177c.583 0 1.166-1.178 1.166-1.178s0 .589.583 1.178h.583s-.583-.589-.583-1.178c0-1.177 1.166-2.354 1.166-5.297 0-3.531-1.749-6.474-3.497-9.417 0-1.177-.583-3.532-1.166-4.709v-1.766l1.166 1.177h.583s-1.166 2.943.583 4.121c1.748 1.177 3.497.588 3.497.588s-2.915-2.354-3.497-5.297c0-3.531 1.166-10.594.583-12.949v-3.531l-2.331-2.943s.583 1.766.583 2.354-1.166 2.354-1.166 2.943.583 1.177.583 2.354-.583 5.298-.583 5.298l-.429.579m1.303 27.659-.293 1.191"/><path fill="#f2de3d" fill-rule="evenodd" d="M94.629 36.637s.583 1.177.583 2.354v2.354s1.748 0 2.331.588c.584 1.766 0 3.532 0 3.532s.584-1.178 1.75-.589c.582 0 2.33 1.177 1.164 3.532-.582.588-2.33.588-2.914.588-.583-.588-3.496-2.354-3.496-5.886 0-2.942.582-6.473.582-6.473" clip-rule="evenodd"/><path fill="none" stroke="#3974ad" stroke-miterlimit="2.613" stroke-width=".114" d="M94.629 36.637s.583 1.177.583 2.354v2.354s1.748 0 2.331.588c.584 1.766 0 3.532 0 3.532s.584-1.178 1.75-.589c.582 0 2.33 1.177 1.164 3.532-.582.588-2.33.588-2.914.588-.583-.588-3.496-2.354-3.496-5.886 0-2.942.582-6.473.582-6.473"/><path fill="#f2de3d" fill-rule="evenodd" d="M94.047 46.054s1.166 4.12 5.246 5.886c3.496 1.177 6.41.588 6.41.588l1.166-1.765s-1.748 1.177-5.828.588c-4.663-.588-6.994-5.297-6.994-5.297" clip-rule="evenodd"/><path fill="none" stroke="#3974ad" stroke-miterlimit="2.613" stroke-width=".114" d="M94.047 46.054s1.166 4.12 5.246 5.886c3.496 1.177 6.41.588 6.41.588l1.166-1.765s-1.748 1.177-5.828.588c-4.663-.588-6.994-5.297-6.994-5.297"/><path fill="#f2de3d" fill-rule="evenodd" d="M95.212 53.706s1.748 3.531 2.331 5.297v5.886c0 1.178 1.75 2.943 1.75 2.943l-1.75-1.766v1.766l-.583-1.766-1.165 1.766 1.165-2.354c0-.589.583-2.943 0-5.297-.582-2.944-1.748-6.475-1.748-6.475" clip-rule="evenodd"/><path fill="none" stroke="#3974ad" stroke-miterlimit="2.613" stroke-width=".114" d="M95.212 53.706s1.748 3.531 2.331 5.297v5.886c0 1.178 1.75 2.943 1.75 2.943l-1.75-1.766v1.766l-.583-1.766-1.165 1.766 1.165-2.354c0-.589.583-2.943 0-5.297-.582-2.944-1.748-6.475-1.748-6.475"/><path fill="none" stroke="#3974ad" stroke-miterlimit="2.613" stroke-width=".693" d="m105.703 50.763 1.748-.589-1.164 2.943h-2.332l-.584.589s-1.164 0-2.33-.589c-1.166 0-2.914-1.177-2.914-1.177s-1.167 1.177-1.167 1.766c0 1.177-.582.588.583 2.943 0 0 .584 2.943.584 4.12 0 1.765 0 2.943.582 4.12 1.166 2.354 3.498 4.12 3.498 4.12l-13.406.589s4.08-1.766 5.246-5.886c.583-3.532 0-4.709-1.166-7.063-.583-2.354-2.332-4.121-2.914-9.417-1.166-5.297 1.166-8.829.583-11.183 0-1.766 0-5.297-2.331-6.474-2.914-2.354-5.246-1.177-5.246-1.177s2.332-2.943 5.246-3.532c2.914 0 5.245 2.943 5.828 7.063.583 3.532 0 2.943 1.166 5.297 1.166 1.766 4.081 3.531 5.245 4.12 1.75.588 2.914 2.942 4.08 2.942s1.75-1.177 1.75-1.177z"/><path fill="#3974ad" fill-rule="evenodd" d="M98.127 59.003s.582 1.177 1.166 1.177c.582 0 1.164-.588 1.164-.588s0 .588.584.588c1.166 0 2.914-1.766 2.914-1.766s-1.166 1.766-2.914 2.943c-1.166.589-.584.589-1.748 1.177-.584.589-.584 1.766-.584 1.766z" clip-rule="evenodd"/><path fill="none" stroke="#3974ad" stroke-miterlimit="2.613" stroke-width=".114" d="m98.127 59.003 1.166 1.177c.582 0 1.164-.588 1.164-.588l.584.588c1.166 0 2.914-1.766 2.914-1.766s-1.166 1.766-2.914 2.943c-1.166.589-.584.589-1.748 1.177-.584.589-.584 1.766-.584 1.766z"/><path fill="#f2de3d" fill-rule="evenodd" stroke="#3974ad" stroke-miterlimit="2.613" stroke-width=".35" d="M113.279 38.991s-2.33.589-4.662 2.943c-1.748 1.177-4.662 5.886-4.662 5.886s1.166-5.297 4.08-7.652c2.914-3.531 5.244-3.531 5.244-3.531z" clip-rule="evenodd"/><path fill="#f2de3d" fill-rule="evenodd" stroke="#3974ad" stroke-miterlimit="2.613" stroke-width=".35" d="m113.279 38.991.584-.589v2.943s-2.332 0-4.664 1.766c-2.33 1.766-5.244 5.297-5.244 5.297s2.332-4.708 4.662-6.475c2.332-2.353 4.662-2.942 4.662-2.942z" clip-rule="evenodd"/><path fill="#f2de3d" fill-rule="evenodd" stroke="#3974ad" stroke-miterlimit="2.613" stroke-width=".35" d="M113.863 41.346h.582v1.766s-2.914.589-4.662 1.766c-2.914 1.177-6.412 5.297-6.412 5.297s2.916-5.297 5.828-7.063a25.5 25.5 0 0 1 4.664-1.766z" clip-rule="evenodd"/><path fill="#f2de3d" fill-rule="evenodd" stroke="#3974ad" stroke-miterlimit="2.613" stroke-width=".35" d="M114.445 43.111h.582v2.354s-1.748-.589-5.244.588c-2.332.588-5.828 4.709-5.828 4.709s2.914-4.709 5.828-6.475c2.914-1.176 4.662-1.176 4.662-1.176z" clip-rule="evenodd"/><path fill="#f2de3d" fill-rule="evenodd" stroke="#3974ad" stroke-miterlimit="2.613" stroke-width=".35" d="M115.027 45.466h.584v1.766h-5.828c-2.332.589-5.828 3.532-5.828 3.532s2.914-3.532 5.828-4.709c1.748-.589 5.244-.589 5.244-.589z" clip-rule="evenodd"/><path fill="#f2de3d" fill-rule="evenodd" stroke="#3974ad" stroke-miterlimit="2.613" stroke-width=".35" d="M115.611 47.231v2.354s-2.914-.589-5.246-.589c-2.914 0-6.41 2.354-6.41 2.354s2.914-3.531 5.828-4.12z" clip-rule="evenodd"/><path fill="#3974ad" fill-rule="evenodd" d="M88.219 26.042s0 1.177.583 1.177.583-1.177.583-1.177 0 .588-.583.588c-.583.001-.583-.588-.583-.588" clip-rule="evenodd"/><path fill="none" stroke="#3974ad" stroke-miterlimit="2.613" stroke-width=".114" d="M88.219 26.042s0 1.177.583 1.177.583-1.177.583-1.177l-.583.588z"/><path fill="none" stroke="#f2de3d" stroke-miterlimit="2.613" stroke-width="4.463" d="M96.378 10.739s-11.074 9.417-25.062 10.595c-15.153.588-27.975-4.709-27.975-4.709v86.522c0 9.417 1.749 13.537 4.663 18.245 3.497 4.709 5.245 5.298 8.742 8.24l39.632 30.606 39.049-30.606c4.078-2.942 5.828-3.531 8.742-8.24s4.662-8.828 4.662-18.245V16.625s-12.24 5.297-27.393 4.709c-13.987-1.178-25.06-10.595-25.06-10.595zM43.342 79.015h106.072"/><path fill="#f2de3d" fill-rule="evenodd" stroke="#3974ad" stroke-miterlimit="2.613" stroke-width=".366" d="M66.072 37.226h-.583V35.46h-5.246v1.766h-1.748V35.46h-5.828v5.297H80.06V35.46h-6.412v1.766h-1.166V35.46h-5.828v1.766z" clip-rule="evenodd"/><path fill="#f2de3d" fill-rule="evenodd" d="M66.072 40.757H52.667l2.914 4.709v16.48L52.667 64.3v4.709H80.06V64.3l-3.498-2.354v-16.48l3.498-4.709z" clip-rule="evenodd"/><path fill="#3974ad" fill-rule="evenodd" d="M53.394 41.934h25.791l.875-1.177H52.667z" clip-rule="evenodd"/><path fill="#748ea7" fill-rule="evenodd" d="M53.759 42.523h24.988l.438-.589H53.394z" clip-rule="evenodd"/><path fill="#a8ad97" fill-rule="evenodd" d="M54.489 43.7h23.384l.874-1.177H53.759z" clip-rule="evenodd"/><path fill="#d5c873" fill-rule="evenodd" d="M55.216 44.877h21.782l.875-1.177H54.489z" clip-rule="evenodd"/><path fill="#f2de3d" fill-rule="evenodd" d="M55.581 45.466h20.981l.436-.589H55.216z" clip-rule="evenodd"/><path fill="none" stroke="#3974ad" stroke-miterlimit="2.613" stroke-width=".366" d="M52.667 64.3H80.06m-24.479-2.354h20.981m-20.981-2.354h20.981m-20.981-2.355h20.981m-20.981-2.354h20.981m-20.981-2.355h20.981m-20.981-2.354h20.981M55.581 47.82h20.981m-20.981-2.354h20.981m-22.438-2.355h24.187m-22.73 18.835V64.3m4.08-2.354V64.3m3.497-2.354V64.3m4.079-2.354V64.3m3.497-2.354V64.3m4.08-2.354V64.3m3.497-1.177V64.3m-20.398-4.708v2.354m3.496-2.354v2.354m4.08-2.354v2.354m3.497-2.354v2.354m4.079-2.354v2.354m3.497-2.354v2.354m-20.981-4.709v2.354m4.08-2.354v2.354m3.497-2.354v2.354m4.079-2.354v2.354m3.497-2.354v2.354m4.08-2.354v2.354m-16.901-4.708v2.354m3.496-2.354v2.354m4.08-2.354v2.354m3.497-2.354v2.354m4.079-2.354v2.354m3.497-2.354v2.354m-20.981-4.709v2.355m4.08-2.355v2.355m3.497-2.355v2.355m4.079-2.355v2.355m3.497-2.355v2.355m4.08-2.355v2.355m-16.901-4.709v2.354m3.496-2.354v2.354m4.08-2.354v2.354m3.497-2.354v2.354m4.079-2.354v2.354m3.497-2.354v2.354M55.581 47.82v2.354m4.08-2.354v2.354m3.497-2.354v2.354m4.079-2.354v2.354m3.497-2.354v2.354m4.08-2.354v2.354m-16.901-4.708v2.354m3.496-2.354v2.354m4.08-2.354v2.354m3.497-2.354v2.354m4.079-2.354v2.354m3.497-2.354v2.354m-20.981-4.709v2.354m4.08-2.354v2.354m3.497-2.354v2.354m4.079-2.354v2.354m3.497-2.354v2.354m4.08-2.354v2.354m-16.901-4.708v2.354m3.496-2.354v2.354m4.08-2.354v2.354m3.497-2.354v2.354m4.079-2.354v2.354m3.497-2.354v2.354m-22.146-2.354v2.354m11.656-2.354H52.667l2.914 4.709v16.48L52.667 64.3v4.708H80.06V64.3l-3.498-2.354v-16.48l3.498-4.709z"/><path fill="#f2de3d" fill-rule="evenodd" d="M63.158 64.3v-8.24c0-2.354 1.165-3.532 2.914-3.532 1.748 0 2.914 1.178 2.914 3.532v8.24z" clip-rule="evenodd"/><path fill="#3974ad" fill-rule="evenodd" d="m64.195 53.314 4.761 2.06c-.084-.783-.321-1.404-.679-1.863l-1.937-.904-2.018.51z" clip-rule="evenodd"/><path fill="#748ea7" fill-rule="evenodd" d="m63.19 55.483 5.796 2.09v-1.596l-5.094-2.206-.346.526-.335 1.015q-.014.083-.021.171" clip-rule="evenodd"/><path fill="#a8ad97" fill-rule="evenodd" d="m63.158 57.49 5.828 2.521v-2.016l-5.796-2.51a6 6 0 0 0-.032.575z" clip-rule="evenodd"/><path fill="#d5c873" fill-rule="evenodd" d="m63.158 59.761 5.828 2.521v-2.055l-5.828-2.718z" clip-rule="evenodd"/><path fill="#f2de3d" fill-rule="evenodd" d="m68.986 62.323-5.828-2.101v1.135l5.828 2.943z" clip-rule="evenodd"/><path fill="none" stroke="#3974ad" stroke-miterlimit="2.613" stroke-width=".366" d="M63.158 64.3v-8.24c0-2.354 1.165-3.532 2.914-3.532 1.748 0 2.914 1.178 2.914 3.532v8.24z"/><path fill="#c5d8e2" fill-rule="evenodd" d="M115.027 68.42c0 .554-.225 1.047-.648 1.467-.959.521-2.398.888-4.014.888-2.33 0-4.662-1.177-4.662-2.354s2.332-2.354 4.662-2.354c1.613 0 3.053.354 4.012.875.424.421.65.922.65 1.478" clip-rule="evenodd"/><path fill="#c0d2df" fill-rule="evenodd" d="M115.611 68.42v-.056q.002-.014 0-.028l-.002-.028c-.002-.018-.002-.04-.006-.055h-.002zm-5.5 2.348c2.756-.081 5.412-1.184 5.5-2.298.002-.019 0-.031 0-.049zm3.168-2.348c0 1.177-1.748 1.766-4.08 1.766-.805 0-1.537-.074-2.156-.216-.807-.431-1.34-.989-1.34-1.55s.535-1.126 1.34-1.56c.619-.141 1.352-.207 2.156-.207 2.332.001 4.08.59 4.08 1.767" clip-rule="evenodd"/><path fill="#b9ccdc" fill-rule="evenodd" d="M113.279 68.42c0-1.078-1.459-2.16-3.496-2.333zm-6.543 1.368c.742.232 1.604.399 2.463.399 2.332 0 4.08-1.178 4.08-1.766zm4.795-1.368c0 .588-1.166 1.177-2.332 1.177-1.164 0-2.33-.589-2.33-1.177s1.166-1.177 2.33-1.177c1.166 0 2.332.589 2.332 1.177" clip-rule="evenodd"/><path fill="#afc1d8" fill-rule="evenodd" d="M111.531 68.42c0-1.177-1.166-1.177-2.332-1.177-1.748 0-2.912 0-2.912 1.177 0 .588 1.164 1.177 2.912 1.177 1.166.001 2.332-.588 2.332-1.177m-1.166 0s-.582.588-1.166.588c-.582 0-.582-.588-.582-.588s0-.588.582-.588c.584 0 1.166.588 1.166.588" clip-rule="evenodd"/><path fill="#a3b5d2" fill-rule="evenodd" d="M110.365 68.42h-1.748c0 .588.582.588 1.166.588 0 .001.582.001.582-.588" clip-rule="evenodd"/><path fill="#c5d8e2" fill-rule="evenodd" d="M124.354 68.42c0 .554-.225 1.047-.65 1.467-.959.521-2.396.888-4.012.888-2.332 0-4.664-1.177-4.664-2.354s2.332-2.354 4.664-2.354c1.613 0 3.051.354 4.01.875.425.421.652.922.652 1.478" clip-rule="evenodd"/><path fill="#c0d2df" fill-rule="evenodd" d="M124.354 68.42c0-.616-.35-1.167-.934-1.615zm-5.176 2.331c2.682-.155 5.176-1.242 5.176-2.331zm3.427-2.331c0 1.177-1.75 1.766-4.08 1.766-.805 0-1.537-.074-2.156-.216-.809-.434-1.342-.989-1.342-1.55s.535-1.126 1.342-1.56c.619-.141 1.352-.207 2.156-.207 2.33.001 4.08.59 4.08 1.767" clip-rule="evenodd"/><path fill="#b9ccdc" fill-rule="evenodd" d="M123.188 68.42c0-1.08-1.953-2.162-4.074-2.336zm-7.397 1.182a6.6 6.6 0 0 0 2.734.584c2.33 0 4.662-1.178 4.662-1.766zm5.064-1.182c0 .588-1.164 1.177-2.33 1.177s-2.332-.589-2.332-1.177 1.166-1.177 2.332-1.177 2.33.589 2.33 1.177" clip-rule="evenodd"/><path fill="#afc1d8" fill-rule="evenodd" d="M121.439 68.42c0-1.177-1.166-1.177-2.914-1.177-1.166 0-2.332 0-2.332 1.177 0 .588 1.166 1.177 2.332 1.177 1.748.001 2.914-.588 2.914-1.177m-1.748 0s-.584.588-1.166.588-.582-.588-.582-.588 0-.588.582-.588 1.166.588 1.166.588" clip-rule="evenodd"/><path fill="#a3b5d2" fill-rule="evenodd" d="M119.107 68.42h-1.748c0 .588.584.588 1.166.588 0 .001.582.001.582-.588" clip-rule="evenodd"/><path fill="#c5d8e2" fill-rule="evenodd" d="M133.678 68.42c0 .554-.225 1.047-.648 1.467-.959.521-2.398.888-4.014.888-2.33 0-4.662-1.177-4.662-2.354s2.332-2.354 4.662-2.354c1.613 0 3.053.354 4.012.875.423.421.65.922.65 1.478" clip-rule="evenodd"/><path fill="#c0d2df" fill-rule="evenodd" d="M133.678 68.42c0-.556-.227-1.057-.65-1.479zm-5.131 2.336c3.109-.144 5.131-1.237 5.131-2.335zm3.383-2.336c0 1.177-1.748 1.766-4.08 1.766-.805 0-1.537-.074-2.156-.216-.807-.434-1.34-.989-1.34-1.55s.535-1.126 1.34-1.56c.619-.141 1.352-.207 2.156-.207 2.332.001 4.08.59 4.08 1.767" clip-rule="evenodd"/><path fill="#b9ccdc" fill-rule="evenodd" d="M131.93 68.42c0-1.078-1.459-2.16-3.496-2.333zm-6.815 1.182a6.6 6.6 0 0 0 2.734.584c2.332 0 4.08-1.178 4.08-1.766zm5.067-1.182c0 .588-1.166 1.177-2.332 1.177-1.164 0-2.33-.589-2.33-1.177s1.166-1.177 2.33-1.177c1.166 0 2.332.589 2.332 1.177" clip-rule="evenodd"/><path fill="#afc1d8" fill-rule="evenodd" d="M130.764 68.42c0-1.177-1.164-1.177-2.914-1.177-1.164 0-2.33 0-2.33 1.177 0 .588 1.166 1.177 2.33 1.177 1.75.001 2.914-.588 2.914-1.177m-1.748 0s-.582.588-1.166.588c-.582 0-.582-.588-.582-.588s0-.588.582-.588c.584 0 1.166.588 1.166.588" clip-rule="evenodd"/><path fill="#a3b5d2" fill-rule="evenodd" d="M129.016 68.42h-1.748c0 .588 0 .588.582.588.584.001 1.166.001 1.166-.588" clip-rule="evenodd"/><path fill="#c5d8e2" fill-rule="evenodd" d="M143.004 68.42c0 .554-.225 1.047-.65 1.467-.959.521-2.396.888-4.012.888-2.332 0-4.664-1.177-4.664-2.354s2.332-2.354 4.664-2.354c1.613 0 3.051.354 4.01.875.423.421.652.922.652 1.478" clip-rule="evenodd"/><path fill="#c0d2df" fill-rule="evenodd" d="M143.586 68.42v-.056q.002-.014 0-.028l-.002-.028-.004-.055h-.004zm-5.5 2.348c2.756-.081 5.412-1.184 5.5-2.298.002-.019 0-.031 0-.049zm3.17-2.348c0 1.177-1.75 1.766-4.08 1.766-.807 0-1.537-.074-2.158-.216-.807-.431-1.34-.989-1.34-1.55s.535-1.126 1.34-1.56c.621-.141 1.352-.207 2.158-.207 2.33.001 4.08.59 4.08 1.767" clip-rule="evenodd"/><path fill="#b9ccdc" fill-rule="evenodd" d="M141.256 68.42c0-1.078-1.461-2.16-3.498-2.333zm-6.817 1.182a6.6 6.6 0 0 0 2.736.584c2.33 0 4.08-1.178 4.08-1.766zm5.067-1.182c0 .588-1.164 1.177-2.33 1.177s-2.332-.589-2.332-1.177 1.166-1.177 2.332-1.177 2.33.589 2.33 1.177" clip-rule="evenodd"/><path fill="#afc1d8" fill-rule="evenodd" d="M139.506 68.42c0-1.177-1.164-1.177-2.33-1.177s-2.332 0-2.332 1.177c0 .588 1.166 1.177 2.332 1.177s2.33-.588 2.33-1.177m-1.164 0s-.584.588-1.166.588c-.584 0-.584-.588-.584-.588s0-.588.584-.588c.582 0 1.166.588 1.166.588" clip-rule="evenodd"/><path fill="#a3b5d2" fill-rule="evenodd" d="M137.758 68.42h-1.166c0 .588 0 .588.584.588.582.001.582.001.582-.588" clip-rule="evenodd"/><path fill="#c5d8e2" fill-rule="evenodd" d="M138.342 54.294v.076q.001.014-.004.027c-.102 1.141-1.838 2.25-4.66 2.25-2.33 0-4.662-1.177-4.662-2.354s2.332-2.354 4.662-2.354c1.777 0 3.129.431 3.906 1.038.016.016.037.03.053.046l.002.002c.395.369.635.749.693 1.094q.002.003.002.007l.004.051v.005c0 .018.004.034.004.05z" clip-rule="evenodd"/><path fill="#c0d2df" fill-rule="evenodd" d="M137.104 52.675c-1-.406-2.307-.691-3.639-.734-.031-.003-.062 0-.094 0zm-.512 1.619c0 1.078-1.459 2.153-3.496 2.327-2.119-.174-4.08-1.249-4.08-2.327 0-.561.533-1.124 1.34-1.56.621-.142 1.352-.207 2.158-.207 2.33.001 4.078.59 4.078 1.767" clip-rule="evenodd"/><path fill="#b9ccdc" fill-rule="evenodd" d="M136.592 54.294c0-1.177-1.748-1.766-4.078-1.766-.715 0-1.424.051-2.068.16zm-3.496 2.327c2.037-.174 3.496-1.249 3.496-2.327zm1.748-2.327c0 .589-1.166 1.177-2.33 1.177-1.166 0-2.332-.588-2.332-1.177 0-.588 1.166-1.177 2.332-1.177 1.164 0 2.33.589 2.33 1.177" clip-rule="evenodd"/><path fill="#afc1d8" fill-rule="evenodd" d="M134.844 54.294c0-.588-1.166-1.177-2.33-1.177-1.75 0-2.914.589-2.914 1.177s1.164 1.177 2.914 1.177c1.164.001 2.33-.588 2.33-1.177m-1.748 0c0 .589 0 .589-.582.589-.584 0-.584 0-.584-.589 0 0 0-.588.584-.588.582 0 .582.588.582.588" clip-rule="evenodd"/><path fill="#a3b5d2" fill-rule="evenodd" d="M133.678 54.294h-1.748c0 .589.584.589 1.166.589 0 0 .582 0 .582-.589" clip-rule="evenodd"/><path fill="#c5d8e2" fill-rule="evenodd" d="M129.016 54.294v.048q.002.015 0 .028 0 .014-.002.027l-.004.056c-.154 1.119-1.879 2.195-4.656 2.195-2.332 0-4.662-1.177-4.662-2.354s2.33-2.354 4.662-2.354c1.209 0 2.223.194 2.99.516.977.557 1.629 1.222 1.672 1.775v.007c.002.017 0 .04 0 .056" clip-rule="evenodd"/><path fill="#c0d2df" fill-rule="evenodd" d="M129.016 54.294q.002-.028 0-.056c-.082-1.071-2.539-2.132-5.176-2.285zm-.006.16.004-.056q0-.014.002-.027v-.076zm-1.742-.16c0 1.078-1.459 2.153-3.496 2.327-2.121-.174-4.08-1.249-4.08-2.327 0-.561.531-1.126 1.34-1.56.619-.142 1.352-.207 2.156-.207 2.332.001 4.08.59 4.08 1.767" clip-rule="evenodd"/><path fill="#b9ccdc" fill-rule="evenodd" d="M127.268 54.294c0-1.177-1.748-1.766-4.08-1.766-.805 0-1.537.065-2.156.207zm-3.497 2.327c2.037-.174 3.496-1.249 3.496-2.327zm1.749-2.327c0 .589-1.166 1.177-2.332 1.177s-2.332-.588-2.332-1.177c0-.588 1.166-1.177 2.332-1.177s2.332.589 2.332 1.177" clip-rule="evenodd"/><path fill="#afc1d8" fill-rule="evenodd" d="M125.52 54.294c0-.588-1.166-1.177-2.332-1.177-1.748 0-2.332.589-2.332 1.177s.584 1.177 2.332 1.177c1.166.001 2.332-.588 2.332-1.177m-1.749 0c0 .589 0 .589-.584.589-.582 0-1.166 0-1.166-.589 0 0 .584-.588 1.166-.588.584 0 .584.588.584.588" clip-rule="evenodd"/><path fill="#a3b5d2" fill-rule="evenodd" d="M123.771 54.294h-1.75c0 .589.584.589 1.166.589.584 0 .584 0 .584-.589" clip-rule="evenodd"/><path fill="#4f835b" fill-rule="evenodd" d="M122.605 47.82s.582.588.582 0h1.748c.584 0 .584.588 1.166 0 0 0 1.166 0 1.166-.589l-1.748-1.766z" clip-rule="evenodd"/><path fill="#ad8c5a" fill-rule="evenodd" d="M122.605 54.294s.582 0 .582-.588c.584 0 .584-1.766.584-2.354v-1.177c0-.588-.584-.588-.584-1.177l-.582-.588-.584-1.177.584-.589s.582.589.582 1.178l.584.588.582-1.766h.582v2.354s.584-.588.584-1.177v-1.766h.582v1.177l1.748-.589s-1.748.589-1.748 1.178c-.582 1.177-.582 1.177-.582 1.766h-.584v1.177c0 1.177 0 2.943.584 2.943l.582.588h-1.166v.589l-.582-.589-.582.589h-.584l.584-.589z" clip-rule="evenodd"/><path fill="#6d464e" fill-rule="evenodd" d="m122.684 48.346-.079-1.115h-.584z" clip-rule="evenodd"/><path fill="#7c584f" fill-rule="evenodd" d="m123.771 54.883-.043-.547-.25.253zm-.046-.589-.09-1.189c-.088.345-.227.601-.447.601v.588zm-.37-4.854-.119-1.578c-.027-.028-.049-.042-.049-.042a1.35 1.35 0 0 0-.156-.589h-.426l.078 1.114.205.346c.15.15.299.306.299.306a.66.66 0 0 0 .168.443" clip-rule="evenodd"/><path fill="#8c6951" fill-rule="evenodd" d="m123.771 54.883-.043-.547zm-.046-.589-.09-1.189zm-.37-4.854-.119-1.578z" clip-rule="evenodd"/><path fill="#9b7a55" fill-rule="evenodd" d="m124.26 53.648-.416-5.459-.072.22v2.944c0 .137.008.336 0 .565v2.966z" clip-rule="evenodd"/><path fill="#ad8c5a" fill-rule="evenodd" d="m124.748 52.415-.154-2.034-.59-2.679-.16.486.416 5.46z" clip-rule="evenodd"/><path fill="#ad8c5a" fill-rule="evenodd" d="m125.471 54.294-.051-.609c-.479-.197-.484-1.819-.484-2.922v-1.177h.145l-.055-.686c-.053.062-.09.097-.09.097l-.447.452.447 5.434v-.589z" clip-rule="evenodd"/><path fill="#b19060" fill-rule="evenodd" d="m126.053 54.294-.006-.067c-.068-.067-.219-.208-.527-.521a.3.3 0 0 1-.1-.021l.051.609zm-.448-5.405-.086-1.068c0 .444-.33.89-.494 1.08l.055.686h.439c.001-.309.004-.46.086-.698" clip-rule="evenodd"/><path fill="#b79466" fill-rule="evenodd" d="M126.102 47.82h-.582l.086 1.068c.076-.218.218-.507.496-1.068m-.055 6.407.006.067h.049l-.002-.007c-.008-.007-.022-.025-.053-.06" clip-rule="evenodd"/><path fill="#bd9e78" fill-rule="evenodd" d="M124.354 51.352v.589c.582 0 .582.588.582.588v-.589z" clip-rule="evenodd"/><path fill="#6d464e" fill-rule="evenodd" d="M122.605 54.294h1.166zm1.166 0v-.588zm.583-.588v.588l-.582.589h-.584l.584-.589h.582l.582.589v-.589h-.582zm.582 0s0 .588.584.588h.584-1.166v-.588zm-1.165 0v-1.789zm0-1.789v-.046zm0-.046v-.046zm0-.047v-.042zm0-.042v-.044zm0-.044v-.042zm0-.041v-.042zm0-.042v-.037zm0-.037v-.042zm0-.042v-.037zm0-.037v-.035zm0-.035v-.034zm0-.034v-.035zm0-.035v-.03zm0-.03v-.028zm0-.028v-.025zm0-1.203v.002zm0 .049v.002zm0 .586v.002zm0 .543v1.176l.582-.588zm0-1.766v.533zm0 .533v.056zm0 .055v.002zm0 .003v.007zm0 .007v.014zm0 .013v.012zm0 .012v.016zm0 .016v.021zm0 .021v.026zm0 .025v.023zm0 .024v.028zm0 .027v.03zm0 .031v.035zm0 .035v.035zm0 .034v.037zm0 .037v.039zm0 .04v.042zm0 .041v.042zm0 .042v.042zm0 .042v.044zm0 .044v.049zm0 .049v.047zm0 .046v.048zm0 .049v.049zm0 .048v.056zm0 .056v.048zm0 .048v.056zm0 .056v.054zm0 .053v.056zm0 .056v.055zm0 .056v.056zm0 .055v.056zm0 .056v.055zm0 .056v.025zm0 .025v.028zm0 .028v.03zm0 .03v.035zm0 .035v.035zm0 .034v.035zm0 .035v.037zm0 .037v.042zm0 .042v.037zm0 .037v.042zm0 .042v.041zm0 .041v.044zm0 .044v.042zm0 .042v.047zm0 .047v.046zm0 .046v1.789zm0-2.331v-.589h-.584l-.582-.588v-.589h.582v1.177zm0-1.177v.588h.582V47.82s0-.589.582-.589v-.589l-.699.353zm0 1.765v-.007zm0-.007v-.049zm0-.048v-1.71zm1.184-1.14.564-.57s0-1.177.582-.588c0-.304.471-.612.922-.834l-.047-.049-.875.294v-1.177l-.582.294v1.472c.001.532-.472 1.063-.564 1.158m1.147-1.159" clip-rule="evenodd"/><path fill="#bd9e78" fill-rule="evenodd" d="M124.936 49.588v.002zm0 .03v.002zm0 .04v.002zm0 .023v.002zm0 .023v.002zm0 .028v.002zm0 .136v.002zm0 .042v.002zm0 .741v.002zm0 1.289v1.766zm0-2.354.584-.589v-.588 1.177zm0 0h-.582v.588s0-.588.582-.588m0 4.12.584.588zm.584.588" clip-rule="evenodd"/><path fill="#8dba4f" fill-rule="evenodd" d="M122.021 42.523s-.582-.589-.582 0h-1.166v.588c-.582 0-.582 0-.582.589-.584.588 0 .588 0 .588l-.584.589-.582.589v1.176l.582.589h1.166c0 .589-.582 1.177-.582 1.177h.582c0 .588.582.588.582.588.584 0 .584-.588 1.166 0 0 0 .584-1.177 1.166-1.177 0 0 0-.589.584-.589h.582s1.166-.589 1.166 0l1.166-.589v.589c.582 0 0 .589.582.589 0 .588.582.588.582 0 0 0 .584.588.584 0 .582 0 1.166 0 1.166-.589-.584 0 0-.589 0-.589v-.588c0-.588-.584-.588-.584-.588s.584-.589 0-.589V43.7h-1.166s.584-.589 0-.589c0-.588-.582 0 0-.588l-.582-.589h-.582s0-.588-.584-.588v.588c-.582-.588-.582 0-.582 0s0-.588-.584-.588h-1.748c-.582 0-.582.588-.582.588s-.584-.588-.584 0z" clip-rule="evenodd"/><path fill="#4f835b" fill-rule="evenodd" d="M124.936 44.877v.589h-1.164 1.164zm-.582 1.177h-1.166l-.582-.588h-1.166c0 .588-.584 0-.584 0v.588h-1.164.582c0 .588-.582.588-.582.588l.582.589h1.748v-.589c.584 0 0 0 0 0h-.582s.582-.588.582 0c.584 0 .584-.588.584 0 0 0 .582 0 .582.589h1.167s.406-.206.738-.255c.256-.16.428-.334.428-.334h-2.332v-.588zm-4.081 1.177" clip-rule="evenodd"/><path fill="#4f835b" fill-rule="evenodd" d="M125.52 46.643h.582c.584-.588 1.166 0 1.166 0 .582 0 .582-.588.582-.588h.584l-.584.588v.589h.584s.582.589 0 .589h-.584c0 .588-.582.588-.582 0-.582 0 0-.589-.582-.589v-.589l-1.166.589c0-.204-.137-.271-.32-.266zm2.33 1.177s.584-.589 0-.589zm-1.748-5.886v.589h1.166v.588l.582.589.184-.559a.4.4 0 0 0-.184-.03c0-.588-.582 0 0-.588l-.582-.589h-.582s.004-.255-.16-.429zm-4.663.589-.584.588s0 .589.584 0v1.177h-.584s-.582 0 0 .589h-.582v1.177c.582.588 1.166.588 1.166.588l.582.589h-2.91l-.582-.589v-1.176l.582-.589.584-.589s-.584 0 0-.588c0-.589 0-.589.582-.589v-.588zm3.497 2.943s.584.588 1.166.588v-.588h1.166c.582 0 0-1.178 0-1.178v.589l-.582-.589v.589h-.584v.589zm1.166-2.943s-1.166 0-.582-.589c0 0 .004-.375.297-.229-.146.22-.297.521-.297.818zm-5.829 4.708h.582s-.582.589 0 .589c.584 0 0 .588 0 .588l.584-.588v.588c.582 0 .582-.588.582-.588s.584.588.584 0c.213 0 .428-.082.611-.181-.027.099-.029.181-.029.181-.582 0-1.166 1.177-1.166 1.177-.582-.588-.582 0-1.166 0 0 0-.582 0-.582-.588h-.582s.582-.589.582-1.178m11.657.589s1.166.588 1.166 0h1.748c.584 0 .584.588 1.166 0 0 0 1.166 0 1.166-.589l-1.748-1.766z" clip-rule="evenodd"/><path fill="#ad8c5a" fill-rule="evenodd" d="M132.514 54.294s.582 0 .582-.588c.582 0 .582-1.766.582-2.354v-1.177c0-.588-.582-.588-.582-1.177l-.582-.588-.584-1.177.584-.589s.582.589.582 1.178l.582.588.584-1.766h.582v2.354s0-.588.584-1.177v-1.766h.582v1.177l1.748-.589s-1.748.589-1.748 1.178c-.582 1.177-.582 1.177-.582 1.766h-.584v1.177c0 1.177 0 2.943.584 2.943l.582.588h-1.166v.589l-.582-.589-.584.589h-.582l.582-.589z" clip-rule="evenodd"/><path fill="#6d464e" fill-rule="evenodd" d="m132.602 48.495-.088-1.263h-.584l.584 1.177s.035.032.088.086" clip-rule="evenodd"/><path fill="#7c584f" fill-rule="evenodd" d="m133.678 54.883-.041-.547-.25.253zm-.045-.589-.09-1.189c-.088.345-.227.601-.447.601v.588zm-.369-4.854-.119-1.578c-.029-.028-.049-.042-.049-.042a1.35 1.35 0 0 0-.156-.589h-.426l.088 1.263c.166.167.494.502.494.502a.65.65 0 0 0 .168.444" clip-rule="evenodd"/><path fill="#8c6951" fill-rule="evenodd" d="m133.678 54.883-.041-.547zm-.045-.589-.09-1.189zm-.369-4.854-.119-1.578z" clip-rule="evenodd"/><path fill="#9b7a55" fill-rule="evenodd" d="m134.168 53.648-.416-5.459-.074.22s-.396-.408-.533-.547l.119 1.578c.172.21.414.35.414.734v1.177c0 .142.008.348-.002.582l.002.007-.004.009c-.014.373-.047.811-.131 1.156l.09 1.189h.045l-.041.042.041.547z" clip-rule="evenodd"/><path fill="#ad8c5a" fill-rule="evenodd" d="m134.656 52.415-.154-2.034-.59-2.679-.16.486.416 5.46z" clip-rule="evenodd"/><path fill="#ad8c5a" fill-rule="evenodd" d="m135.379 54.294-.051-.609c-.479-.197-.484-1.819-.484-2.922v-1.177h.145l-.066-.825-.076.229q-.001.007-.002.007l-.447.452.447 5.434v-.589z" clip-rule="evenodd"/><path fill="#b19060" fill-rule="evenodd" d="M135.428 54.294v-.588a.24.24 0 0 1-.1-.021l.051.609zm0-4.708V47.82a2.2 2.2 0 0 0-.338.431l-.168.51.066.825z" clip-rule="evenodd"/><path fill="#b79466" fill-rule="evenodd" d="M136.01 47.82h-.582l.086 1.068c.076-.218.218-.507.496-1.068m-.055 6.407.006.067h.049l-.002-.007c-.008-.007-.022-.025-.053-.06" clip-rule="evenodd"/><path fill="#bd9e78" fill-rule="evenodd" d="M134.262 51.352v.589l.582.588v-.589z" clip-rule="evenodd"/><path fill="#6d464e" fill-rule="evenodd" d="M132.514 54.294h1.164zm1.164 0v-.588zm.584-.588v.588l-.584.589h-.584l.582-.589h.584l.582.589v-.589h-.582zm.582 0v.588h1.168-1.166v-.588zm-1.166 0v-1.789zm0-1.789v-.046zm0-.046v-.046zm0-.047v-.042zm0-.042v-.044zm0-.044v-.042zm0-.041v-.042zm0-.042v-.037zm0-.037v-.042zm0-.042v-.037zm0-.037v-.035zm0-.035v-.034zm0-.034v-.035zm0-.035v-.03zm0-.03v-.028zm0-.028v-.025zm0-1.203v.002zm0 .049v.002zm0 .586v.002zm0 .543v1.176l.584-.588zm0-1.766v.533zm0 .533v.056zm0 .055v.002zm0 .003v.007zm0 .007v.014zm0 .013v.012zm0 .012v.016zm0 .016v.021zm0 .021v.026zm0 .025v.023zm0 .024v.028zm0 .027v.03zm0 .031v.035zm0 .035v.035zm0 .034v.037zm0 .037v.039zm0 .04v.042zm0 .041v.042zm0 .042v.042zm0 .042v.044zm0 .044v.049zm0 .049v.047zm0 .046v.048zm0 .049v.049zm0 .048v.056zm0 .056v.048zm0 .048v.056zm0 .056v.054zm0 .053v.056zm0 .056v.055zm0 .056v.056zm0 .055v.056zm0 .056v.055zm0 .056v.025zm0 .025v.028zm0 .028v.03zm0 .03v.035zm0 .035v.035zm0 .034v.035zm0 .035v.037zm0 .037v.042zm0 .042v.037zm0 .037v.042zm0 .042v.041zm0 .041v.044zm0 .044v.042zm0 .042v.047zm0 .047v.046zm0 .046v1.789zm0-2.331v-.589h-.582l-.582-.588-.195-.392.195-.197h.582v1.177c0 .088.018.158.039.223zm0-1.177v.588h.584V47.82s0-.589.582-.589v-.589l-.699.353zm0 1.765v-.007zm0-.007v-.049zm0-.048v-1.71zm1.166-1.122.584-.588s0-1.177.582-.588c0-.304.471-.612.922-.834l-.047-.049-.875.294v-1.177l-.582.294v1.472c-.584.588-.584 1.176-.584 1.176m1.166-1.177" clip-rule="evenodd"/><path fill="#bd9e78" fill-rule="evenodd" d="M134.844 49.586s-.582.588 0 1.177v-1.177m0 2.354v1.766z" clip-rule="evenodd"/><path fill="#bd9e78" fill-rule="evenodd" d="m134.844 49.586.584-.589v-.588 1.177h-.585zm0 0h-.582v.588s0-.588.582-.588m0 4.12.584.588zm.584.588" clip-rule="evenodd"/><path fill="#8dba4f" fill-rule="evenodd" d="M131.93 42.523s-.582-.589-1.166 0h-.582v.588c-.582 0-.582 0-.582.589-.584.588 0 .588 0 .588l-.584.589-.582.589v1.176l.582.589h.584c.582.589 0 1.177 0 1.177h.582c0 .588.582.588.582.588s.584-.588 1.166 0c0 0 .584-1.177 1.166-1.177 0 0 0-.589.582-.589h.584s1.166-.589 1.166 0l1.164-.589v.589c.584 0 0 .589.584.589 0 .588 0 .588.582 0 0 0 .584.588.584 0 .582 0 1.164 0 1.164-.589-.582 0 0-.589 0-.589v-.588c0-.588-.582-.588-.582-.588V43.7h-1.166s.584-.589 0-.589c0-.588-.582 0 0-.588l-.582-.589h-.584s0-.588-.582-.588v.588c-.582-.588-.582 0-.582 0s0-.588-.584-.588h-1.748c-.582 0-.582.588-.582.588s-.584-.588-.584 0z" clip-rule="evenodd"/><path fill="#4f835b" fill-rule="evenodd" d="M134.844 44.877v.589h-1.166 1.166zm-.582 1.177h-1.166l-.582-.588h-1.166c0 .588-.584 0-.584 0v.588H129.6h.582c0 .588-.582.588-.582.588l.582.589h1.748-.582s.582 0 .582-.589h-.582s.582-.588.582 0c.584 0 .584-.588.584 0 0 0 .582 0 .582.589h1.167l.004-.005.01-.002.018-.012q.01-.001.018-.007.014-.008.031-.014v-.003c.01-.005.018-.005.029-.012v-.002c.289-.144 1.057-.533 1.057-.533h-2.332v-.588h1.164zm1.166.589h.582c.582-.588 1.166 0 1.166 0 .582 0 .582-.588.582-.588h.584l-.584.588v.589h.584s.582.589 0 .589h-.584s.584-.589 0-.589l-.582.589c0 .171 0 .289.016.359l.129.053a1 1 0 0 0 .145-.12l-.289-.292c-.584 0 0-.589-.584-.589v-.589l-1.164.589c0-.204-.137-.271-.32-.266zm.582-4.709v.589h1.166v.588l.582.589.184-.559a.4.4 0 0 0-.184-.03c0-.588-.582 0 0-.588l-.582-.589h-.584s.006-.255-.158-.429z" clip-rule="evenodd"/><path fill="#4f835b" fill-rule="evenodd" d="m131.184 42.274.164.249-.584.588s0 .589.584 0v1.177h-.584s-.582 0 0 .589h-.582v1.177c.582.588 1.166.588 1.166.588l.582.589h-2.914l-.582-.589v-1.176l.582-.589.584-.589s-.584 0 0-.588c0-.589 0-.589.582-.589v-.588h.582a.87.87 0 0 1 .42-.249m3.66 3.192s.584.588 1.166.588v-.588h1.166v-1.178.589l-.584-.589v.589h-.582v.589zm1.166-2.943s-1.166 0-.582-.589c0 0 .004-.375.297-.229-.146.22-.297.521-.297.818zm-5.828 4.708h.582s-.582.589 0 .589c.584 0 0 .588 0 .588l.584-.588v.588c.582 0 .582-.588.582-.588s.584.588.584 0c.213 0 .428-.082.611-.181-.027.099-.029.181-.029.181-.582 0-1.166 1.177-1.166 1.177-.582-.588-1.166 0-1.166 0s-.582 0-.582-.588h-.582s.369-.375.23-.823zm-21.565 14.715.582.588.584-.588c.582 0 .582.588.582 0h1.166s.582.588.582 0c0 0 1.166.588 1.166 0 0-.589-1.166-2.354-1.166-2.354z" clip-rule="evenodd"/><path fill="#ad8c5a" fill-rule="evenodd" d="M108.617 68.42s.582 0 1.166-.588V64.3c0-.588 0-.588-.584-1.177l-.582-.589v-1.177h.582v.589c0 .588 1.166 1.177 1.166 1.177v-2.354h.584v2.354l.582-.589V60.18h.582v1.177l1.75-.588s-1.166.588-1.75 1.177c-.582 1.177-.582 1.177-.582 1.766-.582 0 0 0 0 0s-.582 0-.582 1.177 0 2.943.582 3.532h.582-1.164v.588l-.584-.588s0 .588-.582.588h-.584l.584-.588z" clip-rule="evenodd"/><path fill="#6d464e" fill-rule="evenodd" d="m108.695 62.47-.078-1.113v.98z" clip-rule="evenodd"/><path fill="#7c584f" fill-rule="evenodd" d="m109.736 68.963-.031-.464-.213.216zm-.035-.543-.035-.478a2 2 0 0 1-.467.313v.165zm-.367-5.172-.076-1.08a.5.5 0 0 1-.059-.222v-.589h-.582l.078 1.112.207.348c.148.15.297.306.297.306.049.049.092.084.135.125" clip-rule="evenodd"/><path fill="#8c6951" fill-rule="evenodd" d="m110.301 68.696-.414-5.874c-.248-.174-.518-.408-.629-.654l.076 1.08c.451.461.449.512.449 1.052v3.532c-.041.042-.078.074-.117.111l.035.478h.082l-.078.079.031.464.047.046c.303-.001.447-.161.518-.314" clip-rule="evenodd"/><path fill="#9b7a55" fill-rule="evenodd" d="m110.301 68.696-.414-5.874z" clip-rule="evenodd"/><path fill="#ad8c5a" fill-rule="evenodd" d="m110.795 66.998-.17-2.239-.43-1.733a5 5 0 0 1-.309-.204l.414 5.874c.064-.142.064-.276.064-.276l.168.169z" clip-rule="evenodd"/><path fill="#ad8c5a" fill-rule="evenodd" d="m111.482 68.42-.006-.069c-.523-.647-.527-2.327-.527-3.462 0-.415.078-.69.172-.864l-.084-.992-.088.09-.447.452.447 5.434v-.588h.533z" clip-rule="evenodd"/><path fill="#b19060" fill-rule="evenodd" d="m111.619 63.015-.088-1.068v.588l-.494.499.084.992c.172-.317.41-.312.41-.312s-.582 0 0 0c0-.311.004-.461.088-.699m-.142 5.336.006.069h.584-.535q-.03-.033-.055-.069" clip-rule="evenodd"/><path fill="#b79466" fill-rule="evenodd" d="M112.113 61.946h-.582l.088 1.068c.076-.218.217-.507.494-1.068m-.047 6.474h.047z" clip-rule="evenodd"/><path fill="#bd9e78" fill-rule="evenodd" d="M110.949 65.478v1.176z" clip-rule="evenodd"/><path fill="#6d464e" fill-rule="evenodd" d="M108.617 68.42h1.166zm1.166 0v-.588zm.582-.588v.588s0 .588-.582.588h-.584l.584-.588h.582l.584.588c0-.588-.584-.588-.584-.588zm.584.588h1.166zm-1.166-.588v-1.179c.582.59 0 1.179 0 1.179m0-1.178v-.007zm0-.007v-.019zm0-.018v-.009zm0-.009v-.021zm0-.021v-.021zm0-.021v-.016zm0-.016v-.019zm0-.019v-.028zm0-.027v-.009zm0-.01v-.035zm0-.034v-.005zm0-.005v-.03zm0-.03v-.026zm0-.026v-.009zm0-.009v-.035zm0-.035v-.009zm0-.009v-.019zm0-.018v-.035zm0-.035v-.002zm0-.003v-.025zm0-.025v-.028zm0-.028v-.025zm0-.025v-.025zm0-.026v-.002zm0-.002v-.021zm0-.021v-.021zm0-.021v-.017zm0-.016v-.019zm0-.019v-.004zm0-.004v-.009zm0-.01v-.014zm0-.013v-.005zm0-.005v-.005zm0-.005v-.009zm0-.009v-.005zm0-.005v-.002zm0-2.356v2.358l.582-1.178zm.582 1.766s-.582.589 0 .589zm-.582-1.766v.271zm0 .271v.037zm0 .037v.04zm0 .04v.044zm0 .044v.041zm0 .041v.048zm0 .048v.052zm0 .052v.056zm0 .055v.002zm0 .003v.007zm0 .007v.007zm0 .006v.007zm0 .007v.007zm0 .008v.007zm0 .006v.007zm0 .007v.014zm0 .014v.007zm0 .007v.014zm0 .014v.014zm0 .014v.014zm0 .014v.014zm0 .014v.013zm0 .014v.014zm0 .014v.021zm0 .02v.014zm0 .014v.021zm0 .021v.021zm0 .021v.021zm0 .021v.021zm0 .021v.021zm0 .021v.02zm0 .02v.028zm0 .028v.021zm0 .021v.028zm0 .028v.028zm0 .028v.028zm0 .028v.025zm0 .025v.028zm0 .028v.027zm0 .027v.031zm0 .031v.027zm0 .027v.035zm0 .036v.035zm0 .034v.035zm0 .035v.034zm0 .035v.035zm0 .034v.035zm0 .035v.042zm0 .042v.035zm0 .035v.042zm0 .042v.042zm0 .041v.041zm0 .042v.042zm0 .042v.042zm0 .041v.042zm0 .042v.047zm0 .046v.04zm0 .042v.048zm0 .049v.049zm0 .049v.049zm0 .048v.049zm0 .049v.048zm0 .048v.049zm0 .049v.055zm0 .056v.049zm0 .048v.055zm0 .056v.056zm0 .056v.056zm0 .055v.002zm0 .002v.005zm0 .005v.009zm0 .009v.01zm0 .01v.014zm0 .013v.014zm0 .014v.019zm0 .019v.017zm0 .016v.021zm0 .021v.021zm0 .021v.027zm0 .028v.025zm0 .025v.028zm0 .028v.028zm0 .028v.035zm0 .035v.027zm0 .027v.035zm0 .035v.034zm0 .035v.035zm0 .035v.034zm0 .034v.038zm0 .037v.035zm0 .035v.042zm0 .042v.035zm0 .034v.043zm0 .042v.041zm0 .042v.042zm0 .042v.041zm0 .041v.042zm0 .042v.042zm0 .042v.041zm0 .041v.035zm0 .035v.042zm0 .042v.042zm0 .042v.041zm0 .041v.037zm0 .038v.042zm0 .042v.042zm0 .041v.041zm0 .042v.035zm0 .035v.039zm0 .039v.035zm0 .035v.039zm0 .039v.035zm0 .035v.035zm0 .034v.033zm0 .033v.035zm0 .035v.027zm0 .028v.031zm0 .03v.025zm0 .025v.028zm0 .028v.021zm0 .021v.025zm0 .025v.022zm0 .021v.023zm0 .023v.014zm0 .014v.017zm0 .017v.012zm0 .011v.013zm0 .014v.007zm0 .007v.009zm0 .009v.005zm0-4.115v-.589h-.584l-.582-.589v-.588h.582v1.177c.266.267.412.408.49.542zm.059-.92c.068.158.209.332.523.332v-.005a5 5 0 0 1-.523-.327m.523.326v-2.056l.584-.294v.588c-.584 0-.584.589-.584.589zm-.582 1.182v-.007zm0-.007v-.019zm0-.018v-.03zm0-.03v-.037zm0-.037v-.015zm0-.015v-.032zm0-.032v-.016zm0-.016v-.032zm0-.032v-.009zm0-.009v-.044zm0-.044v-.002zm0-.003v-.038zm0-.037v-.016zm0-.016v-.021zm0-.021v-.86zm1.748-1.449s.582-1.177.582-.588c.283-.285.709-.575 1.066-.793l-.066-.132-1 .336v-.883l-.582.294zm.582-.588" clip-rule="evenodd"/><path fill="#bd9e78" fill-rule="evenodd" d="M110.949 66.066v1.766zm0-2.354s.582 0 .582-.589v.589zm0 0v.588zm0 4.12s0 .588.582.588a1.3 1.3 0 0 1-.254-.421z" clip-rule="evenodd"/><path fill="#8dba4f" fill-rule="evenodd" d="M108.035 56.649h-1.748v.588c-.584.589-.584 0-.584.589v.588c-.582 0 0 0 0 0 0 .589-.582.589-.582.589l-.584.589c.584 0 .584.588.584.588s-.584 0-.584.589c.584 0 .584.588 1.166.588h.584c0 .589-.584 1.177-.584 1.177h1.166c-.582.589 0 .589 0 .589.582 0 1.166-.589 1.166 0l1.164-1.177s0-.589.584-.589h.582s1.166-.588 1.166 0l1.166-.588v1.177c.582 0 .582 0 .582.588 0 0 .584 0 .584-.588 0 0 .582.588 1.164 0h.584V60.18l-.584-.588s.584 0 0-.589v-1.177h-1.164l.582-.589s-1.166 0-.582-.588v-.589h-2.332s0-.588-.582-.588h-1.75c-.582 0-.582.588-.582.588h-.582z" clip-rule="evenodd"/><path fill="#4f835b" fill-rule="evenodd" d="M110.949 59.003v.589h-.584.584zm-.584 1.177h-1.166l-.582-.588s-.582.588-1.166.588v-.588l-.582.588h-.582v.589h-.584l1.166.588h-.582l1.748.589v-.589l.582-.588-.582.588c-.584 0-.584-.588-.584-.588h1.166c.582 0 .582.588.582.588.109 0 .221.019.326.046a.6.6 0 0 1 .258-.046h.582s.65-.329.98-.252c.418-.16.768-.336.768-.336h-1.748c0 .588-.582 0-.582 0h-.584v-.589l.584.589z" clip-rule="evenodd"/><path fill="#4f835b" fill-rule="evenodd" d="M111.531 60.769h.582c.584-.589 1.166 0 1.166 0 .584 0 .584-.589.584-.589h.582l-.582.589v.588h1.164s0 .589-.582.589h-.582c0 .588-.584.588-.584.588 0-.588 0-.588-.582-.588v-1.177l-1.166.588zm2.332 1.177s.582 0 .582-.589c-.582 0-.582.589-.582.589m-1.75-5.886.584.589h.582v.588l.584.589.396-.601c-.303-.03-.826-.144-.396-.577v-.589h-.584zm-4.662.589-.582.588s0 .589.582 0v1.177h-.582s-.582.589 0 .589v.589s-.582-.589-.582 0v.588c.582.589 1.164.589 1.164.589l.584 1.177-1.789-.302a1 1 0 0 0 .041-.287h-.584c-.582 0-.582-.588-1.166-.588 0-.589.584-.589.584-.589s0-.588-.584-.588l.584-.589s.582 0 .582-.589c0 0-.582 0 0 0v-.588c0-.589 0 0 .584-.589v-.588zm4.08 2.943s0 .588.582.588l.584-.588h.582c.584 0 .584-.589.584-.589h-.584l-.582-.589v.589h-.584v.589zm.582-2.355s-.582 0-.582-.588v-.589h.293l-.293.589c.582 0 .582.588.582.588" clip-rule="evenodd"/><path fill="#4f835b" fill-rule="evenodd" d="M106.287 61.357h.582s-.582.589 0 .589 0 .588 0 .588c-.582.589 0 .589 0 .589.582 0 1.166-.589 1.166 0l1.117-1.128c-.564.5-1.117-.048-1.117-.048s0 .588-.584.588h-1.748c0-.001.584-.589.584-1.178m11.656.589.582.588.582-.588c.584 0 .584.588.584 0h1.164s.584.588.584 0c0 0 1.166.588 1.166 0 0-.589-1.166-2.354-1.166-2.354z" clip-rule="evenodd"/><path fill="#ad8c5a" fill-rule="evenodd" d="M117.943 68.42s.582 0 1.164-.588V64.3c0-.588 0-.588-.582-1.177l-.582-.589v-1.177h.582v.589c0 .588 1.166 1.177 1.166 1.177v-2.354h.582v2.354l.582-.589V60.18h.584v1.177l1.748-.588s-1.166.588-1.748 1.177c-.584 1.177-.584 1.177-.584 1.766-.582 0 0 0 0 0s-.582 0-.582 1.177 0 2.943.582 3.532h.584-1.166v.588l-.582-.588s0 .588-.584.588h-.582l.582-.588z" clip-rule="evenodd"/><path fill="#6d464e" fill-rule="evenodd" d="m118.02 62.47-.077-1.113v.98z" clip-rule="evenodd"/><path fill="#7c584f" fill-rule="evenodd" d="m119.062 68.963-.033-.464-.213.216zm-.037-.543-.035-.478a2 2 0 0 1-.465.313v.165zm-.367-5.172-.076-1.08a.55.55 0 0 1-.057-.222v-.589h-.582l.076 1.112.207.348c.15.15.299.306.299.306.049.049.092.084.133.125" clip-rule="evenodd"/><path fill="#8c6951" fill-rule="evenodd" d="m119.627 68.696-.416-5.874c-.248-.174-.516-.408-.629-.654l.076 1.08c.453.461.449.512.449 1.052v3.532c-.041.042-.078.074-.117.111l.035.478h.082l-.078.079.033.464.045.046c.303-.001.448-.161.52-.314" clip-rule="evenodd"/><path fill="#9b7a55" fill-rule="evenodd" d="m119.627 68.696-.416-5.874z" clip-rule="evenodd"/><path fill="#ad8c5a" fill-rule="evenodd" d="m120.119 66.998-.17-2.239-.428-1.733a5 5 0 0 1-.311-.204l.416 5.874c.064-.142.064-.276.064-.276l.166.169z" clip-rule="evenodd"/><path fill="#ad8c5a" fill-rule="evenodd" d="m120.809 68.42-.008-.069c-.523-.647-.527-2.327-.527-3.462 0-.415.078-.69.172-.864l-.082-.992-.09.09-.447.452.447 5.434v-.588h.535z" clip-rule="evenodd"/><path fill="#b19060" fill-rule="evenodd" d="m120.943 63.015-.088-1.068v.588l-.492.499.082.992c.172-.317.41-.312.41-.312s-.582 0 0 0c0-.311.006-.461.088-.699m-.142 5.336.008.069h.582-.535q-.028-.033-.055-.069" clip-rule="evenodd"/><path fill="#b79466" fill-rule="evenodd" d="M121.439 61.946h-.584l.088 1.068c.077-.218.219-.507.496-1.068m-.048 6.474h.049z" clip-rule="evenodd"/><path fill="#bd9e78" fill-rule="evenodd" d="M120.273 65.478v1.176z" clip-rule="evenodd"/><path fill="#6d464e" fill-rule="evenodd" d="M117.943 68.42h1.164zm1.164 0v-.588zm.584-.588v.588s0 .588-.584.588h-.582l.582-.588h.584l.582.588c0-.588-.582-.588-.582-.588zm.582.588h1.168zm-1.166-.588v-1.179c.584.59 0 1.179 0 1.179m0-1.178v-.007zm0-.007v-.019zm0-.018v-.009zm0-.009v-.021zm0-.021v-.021zm0-.021v-.016zm0-.016v-.019zm0-.019v-.028zm0-.027v-.009zm0-.01v-.035zm0-.034v-.005zm0-.005v-.03zm0-.03v-.026zm0-.026v-.009zm0-.009v-.035zm0-.035v-.009zm0-.009v-.019zm0-.018v-.035zm0-.035v-.002zm0-.003v-.025zm0-.025v-.028zm0-.028v-.025zm0-.025v-.025zm0-.026v-.002zm0-.002v-.021zm0-.021v-.021zm0-.021v-.017zm0-.016v-.019zm0-.019v-.004zm0-.004v-.009zm0-.01v-.014zm0-.013v-.005zm0-.005v-.005zm0-.005v-.009zm0-.009v-.005zm0-.005v-.002zm0-2.356v2.358l.584-1.178zm.584 1.766v.589zm-.584-1.766v.271zm0 .271v.037zm0 .037v.04zm0 .04v.044zm0 .044v.041zm0 .041v.048zm0 .048v.052zm0 .052v.056zm0 .055v.002zm0 .003v.007zm0 .007v.007zm0 .006v.007zm0 .007v.007zm0 .008v.007zm0 .006v.007zm0 .007v.014zm0 .014v.007zm0 .007v.014zm0 .014v.014zm0 .014v.014zm0 .014v.014zm0 .014v.013zm0 .014v.014zm0 .014v.021zm0 .02v.014zm0 .014v.021zm0 .021v.021zm0 .021v.021zm0 .021v.021zm0 .021v.021zm0 .021v.02zm0 .02v.028zm0 .028v.021zm0 .021v.028zm0 .028v.028zm0 .028v.028zm0 .028v.025zm0 .025v.028zm0 .028v.027zm0 .027v.031zm0 .031v.027zm0 .027v.035zm0 .036v.035zm0 .034v.035zm0 .035v.034zm0 .035v.035zm0 .034v.035zm0 .035v.042zm0 .042v.035zm0 .035v.042zm0 .042v.042zm0 .041v.041zm0 .042v.042zm0 .042v.042zm0 .041v.042zm0 .042v.047zm0 .046v.04zm0 .042v.048zm0 .049v.049zm0 .049v.049zm0 .048v.049zm0 .049v.048zm0 .048v.049zm0 .049v.055zm0 .056v.049zm0 .048v.055zm0 .056v.056zm0 .056v.056zm0 .055v.002zm0 .002v.005zm0 .005v.009zm0 .009v.01zm0 .01v.014zm0 .013v.014zm0 .014v.019zm0 .019v.017zm0 .016v.021zm0 .021v.021zm0 .021v.027zm0 .028v.025zm0 .025v.028zm0 .028v.028zm0 .028v.035zm0 .035v.027zm0 .027v.035zm0 .035v.034zm0 .035v.035zm0 .035v.034zm0 .034v.038zm0 .037v.035zm0 .035v.042zm0 .042v.035zm0 .034v.043zm0 .042v.041zm0 .042v.042zm0 .042v.041zm0 .041v.042zm0 .042v.042zm0 .042v.041zm0 .041v.035zm0 .035v.042zm0 .042v.042zm0 .042v.041zm0 .041v.037zm0 .038v.042zm0 .042v.042zm0 .041v.041zm0 .042v.035zm0 .035v.039zm0 .039v.035zm0 .035v.039zm0 .039v.035zm0 .035v.035zm0 .034v.033zm0 .033v.035zm0 .035v.027zm0 .028v.031zm0 .03v.025zm0 .025v.028zm0 .028v.021zm0 .021v.025zm0 .025v.022zm0 .021v.023zm0 .023v.014zm0 .014v.017zm0 .017v.012zm0 .011v.013zm0 .014v.007zm0 .007v.009zm0 .009v.005zm0-4.115v-.589h-.582l-.582-.589v-.588h.582v1.177c.264.267.41.408.488.542zm.061-.92c.066.158.209.332.523.332v-.005a4.4 4.4 0 0 1-.523-.327m.523.326v-2.056l.582-.294v.588c-.582 0-.582.589-.582.589zm-.584 1.182v-.007zm0-.007v-.019zm0-.018v-.03zm0-.03v-.037zm0-.037v-.015zm0-.015v-.032zm0-.032v-.016zm0-.016v-.032zm0-.032v-.009zm0-.009v-.044zm0-.044v-.002zm0-.003v-.038zm0-.037v-.016zm0-.016v-.021zm0-.021v-.86zm1.748-1.449s.584-1.177.584-.588c.283-.285.709-.575 1.064-.793l-.066-.132-.998.336v-.883l-.584.294zm.584-.588" clip-rule="evenodd"/><path fill="#bd9e78" fill-rule="evenodd" d="M120.273 66.066v1.766zm0-2.354s.582 0 .582-.589h.051c-.051.181-.051.329-.051.589zm0 0v.588zm0 4.12s0 .588.582.588a1.4 1.4 0 0 1-.254-.421z" clip-rule="evenodd"/><path fill="#8dba4f" fill-rule="evenodd" d="M117.359 56.649h-1.748v.588c-.584.589-.584 0-.584.589v.588c-.582 0 0 0 0 0 0 .589-.582.589-.582.589l-.582.589c.582 0 .582.588.582.588s-.582 0-.582.589c.582 0 .582.588 1.164.588h.584c0 .589-.584 1.177 0 1.177h.582c-.582.589 0 .589 0 .589.584 0 1.166-.589 1.166 0l1.166-1.177s0-.589.582-.589h.584s1.164-.588 1.164 0l1.166-.588v1.177c.584 0 .584 0 .584.588 0 0 .582 0 .582-.588 0 0 .584.588 1.166 0h.582V60.18l-.582-.588s.582 0 0-.589v-1.177h-1.166l.584-.589s-1.166 0-.584-.588v-.589h-2.332s0-.588-.582-.588h-1.748c-.582 0-.582.588-.582.588h-.584z" clip-rule="evenodd"/><path fill="#4f835b" fill-rule="evenodd" d="M120.273 59.003v.589h-.582.582zm-.582 1.177h-1.166l-.582-.588s-.584.588-1.166.588v-.588l-.584.588h-.582v.589h-.584l1.166.588 1.166.589v-.589l.584-.588-.584.588c-.582 0-.582-.588-.582-.588h1.166c.582 0 .582.588.582.588.107 0 .221.019.326.046a.6.6 0 0 1 .256-.046h.584s.648-.329.979-.252c.418-.16.77-.336.77-.336h-1.748c0 .588-.584 0-.584 0h-.582v-.589l.582.589z" clip-rule="evenodd"/><path fill="#4f835b" fill-rule="evenodd" d="M120.855 60.769h.584c.582-.589 1.166 0 1.166 0 .582 0 .582-.589.582-.589h.584l-.584.589v.588h1.166s0 .589-.582.589h-.584c0 .588-.582.588-.582.588 0-.588 0-.588-.584-.588v-1.177l-1.166.588zm2.333 1.177s.584 0 .584-.589c-.584 0-.584.589-.584.589m-1.749-5.886.582.589h.584v.588l.582.589.396-.601c-.303-.03-.826-.144-.396-.577v-.589h-.582zm-4.662.589-.584.588s0 .589.584 0v1.177h-.584s-.582.589 0 .589v.589s-.582-.589-.582 0v.588c.582.589 1.166.589 1.166.589l.582 1.177-1.787-.302c.025-.097.039-.188.039-.287h-.584c-.582 0-.582-.588-1.164-.588 0-.589.582-.589.582-.589s0-.588-.582-.588l.582-.589s.582 0 .582-.589c0 0-.582 0 0 0v-.588c0-.589 0 0 .584-.589v-.588zm4.078 2.943s0 .588.584.588l.582-.588h.584c.582 0 .582-.589.582-.589h-.582l-.584-.589v.589h-.582v.589zm.584-2.355s-.584 0-.584-.588v-.589h.295c-.146.294-.295.589-.295.589.584 0 .584.588.584.588" clip-rule="evenodd"/><path fill="#4f835b" fill-rule="evenodd" d="M115.611 61.357h.582s-.582.589 0 .589c.584 0 0 .588 0 .588-.582.589 0 .589 0 .589.584 0 1.166-.589 1.166 0l1.117-1.128c-.564.5-1.117-.048-1.117-.048s0 .588-.582.588h-1.166c-.584-.001 0-.589 0-1.178m11.657.589s.582.588 1.166.588c0-.588.582-.588.582-.588s0 .588.584 0h.582s.582.588.582 0c0 0 1.166.588 1.166 0 0-.589-1.166-2.354-1.166-2.354z" clip-rule="evenodd"/><path fill="#ad8c5a" fill-rule="evenodd" d="M127.268 68.42s1.166 0 1.166-.588v-1.766c.582-1.178 0-1.766 0-1.766 0-.588 0-.588-.584-1.177l-.582-.589v-1.177h.582v.589c0 .588 1.166 1.177 1.166 1.177v-2.354h.584v2.354l.582-.589c.582-1.177 0-2.354 0-2.354h.582v1.177l1.75-.588s-1.166.588-1.75 1.177c0 1.177 0 1.177-.582 1.766 0 0-.582 0-.582 1.177.582 1.178 0 2.943.582 3.532h1.166-1.748v.588l-.584-.588v.588h-.582v-.589z" clip-rule="evenodd"/><path fill="#7c584f" fill-rule="evenodd" d="m128.35 68.42-.021-.318a.9.9 0 0 1-.375.214l-.104.104zm-.373-5.269-.068-.982a.5.5 0 0 1-.059-.222v-.589h-.582z" clip-rule="evenodd"/><path fill="#8c6951" fill-rule="evenodd" d="m128.975 69.009-.277-3.921c-.002.26-.074.591-.264.979v1.766a.39.39 0 0 1-.105.271l.021.318h.084v.588zm-.293-4.148-.145-2.039c-.248-.174-.518-.408-.629-.654l.068.982.062.155c.396.408.395.478.395.994.001.001.192.184.249.562m-.248 4.148" clip-rule="evenodd"/><path fill="#9b7a55" fill-rule="evenodd" d="m129.424 67.127-.174-2.475-.404-1.626a5 5 0 0 1-.309-.204l.145 2.039q.017.103.016.227l.277 3.921h.041v-.589l.168.169z" clip-rule="evenodd"/><path fill="#ad8c5a" fill-rule="evenodd" d="m129.445 66.998-.17-2.239-.025-.107.174 2.475zm.688 1.422-.006-.072c-.484-.646.033-2.324-.527-3.46v3.532zm-.362-4.396-.084-.992-.088.09v1.766c.001-.414.077-.69.172-.864" clip-rule="evenodd"/><path fill="#b19060" fill-rule="evenodd" d="m130.316 63.575-.09-1.087-.045.046-.494.499.084.992c.172-.317.41-.312.41-.312zm-.189 4.774.006.072h.584-.535c-.022-.022-.039-.049-.055-.072" clip-rule="evenodd"/><path fill="#b79466" fill-rule="evenodd" d="m130.227 62.488.09 1.087c.455-.466.447-.545.447-1.629zm.49 5.932h.047z" clip-rule="evenodd"/><path fill="#bd9e78" fill-rule="evenodd" d="M129.6 65.478v1.176z" clip-rule="evenodd"/><path fill="#6d464e" fill-rule="evenodd" d="M127.85 68.42h.584-1.166zm.584 0 .582-.588zm.582-.588v1.176h-.583s0-.588.582-.588l.584.588v-.196q.002-.044 0-.081c-.018-.315-.111-.311-.584-.311v-.588zm.584.588h.006zm.005 0h.018zm.018 0h.031zm.031 0h.037zm.037 0h.045zm.045 0h.049zm.049 0h.055zm.055 0h.053zm.053 0h.055zm.054 0H130zm.053 0h.051zm.051 0h.043zm.043 0h.039zm.039 0h.027zm.027 0h.02zm.022 0h.055zm.054 0h.055zm.055 0h.056zm.057 0h.055zm.054 0h.055zm.055 0h.053zm.053 0h.054zm.054 0h.049zm.049 0h.055zm.055 0h.049zm.049 0h.047zM129.016 67.832s-.582-1.178 0-1.178v-.588z" clip-rule="evenodd"/><path fill="#6d464e" fill-rule="evenodd" d="m128.434 63.712.582 1.177v1.178-1.178zm.582 1.766v.589z" clip-rule="evenodd"/><path fill="#6d464e" fill-rule="evenodd" d="M128.434 63.712v.271zm0 .271v.037zm0 .037v.04zm0 .04v.044zm0 .044v.041zm0 .041v.048zm0 .048v.052zm0 .052v.056zm.261.899c.326.33.32.334.32.334-.582.589-.582 1.177-.582 1.177v-.591c.178-.357.253-.67.262-.92m-.261 1.51v.043zm0 .042v.041zm0 .042v.042zm0 .042v.041zm0 .041v.042zm0 .042v.042zm0 .042v.041zm0 .041v.035zm0 .035v.042zm0 .042v.042zm0 .042v.041zm0 .041v.037zm0 .038v.042zm0 .042v.042zm0 .041v.041zm0 .042v.035zm0 .035v.039zm0 .039v.035zm0 .035v.039zm0 .039v.035zm0 .035v.035zm0 .034v.033zm0 .033v.035zm0 .035v.027zm0 .028v.031zm0 .03v.025zm0 .025v.028zm0 .028v.021zm0 .021v.025zm0 .025v.022zm0 .021v.023zm0 .023v.014zm0 .014v.017zm0 .017v.012zm0 .011v.013zm0 .014v.007zm0 .007v.009zm0 .009v.005zm0-4.115v-.957c-.291-.221-.584-.515-.584-.809l-.387.781c.17.171.387.396.387.396.264.267.412.408.49.542zm.58-.594.002.005v-.005zm.002 0v-2.056l.584-.294v.588l-.584.589z" clip-rule="evenodd"/><path fill="#6d464e" fill-rule="evenodd" d="M129.016 64.3v-.588c-.582 0-.582-.589-.582-.589s.582 0 .582.589zm1.166-1.766c.582 0 .582-1.177.582-.588.371-.373.977-.749 1.369-.974l-.059-.056-1.311.44v-.883l-.406.204c.112.453.17 1.16-.175 1.857" clip-rule="evenodd"/><path fill="#bd9e78" fill-rule="evenodd" d="M129.6 64.889v.589zm0 1.177v.588l.295.594c-.004-.28 0-.584-.006-.89zm.582-2.354v-.589h.482c-.08.181-.225.329-.482.589m-.582 0v.588z" clip-rule="evenodd"/><path fill="#8dba4f" fill-rule="evenodd" d="M126.686 56.649h-1.166c-.584 0-.584.588-.584.588 0 .589-.582 0-.582.589 0 0 .582 0 0 .588-.582 0 .582 0 0 0 0 .589-.582.589-.582.589.582 0 0 .589 0 .589v1.177l.582.588h.582v1.177h.584v.589c.582 0 1.166-.589 1.166 0 .582 0 1.164-.589 1.164-1.177l.584-.589h.582s1.166-.588 1.166 0l1.166-.588s0 .588.582 1.177v.588s.584 0 .584-.588c0 0 .582.588 1.164 0h.584v-1.177s.582 0 0-.589v-1.177h-.584s.584-.589 0-1.177h-.582v-.589s-.582 0-.582-.588v-.589h-2.332s0-.588-.582-.588h-1.75v.588h-1.164z" clip-rule="evenodd"/><path fill="#4f835b" fill-rule="evenodd" d="m130.182 59.003-.582.589h-.584.584c.582 0 .582-.589.582-.589m-1.166 1.177h-1.166l-.582-.588-.582.588c-.584 0-.584-.588-.584-.588s0 .588-.582.588h-.584v.589l.584.588 1.748.589-.582-.589s.582 0 .582-.588l-.582.588-.584-.588h1.748s0 .588.584.588q0-.002.004 0h.578s.738-.373 1.041-.232c.33-.165.707-.356.707-.356H129.6c-.584.588-1.166 0-1.166 0v-.589.589zm1.748.589h.584s0 .588.582 1.177v.588s.584 0 .584-.588c0 0 0-.589.582-.589.582.589 0 .589 0 .589.582 0 .582-.589.582-.589h-.582v-.588l.582-.589h-.582l-.582.589c-.584 0-.584-.589-1.166 0l-.779.392zm.584-4.709v.589h.582l.584.588.582.589v-.589s-.582 0-.582-.588v-.589z" clip-rule="evenodd"/><path fill="#4f835b" fill-rule="evenodd" d="M126.102 56.649v.588s0 .589 0 0c.584 0 .584.589.584.589l-.584.588c.584 0 0 0 0 0h-.582v.589c.582 0 0 .589 0 .589s-.584-.589-.584 0l.584.588s-.584 0 0 0c0 .589.582.589.582.589l.584 1.177-1.75-.353v-.236h-.582l-.582-.588v-1.177s.582-.589 0-.589c0 0 .582 0 .582-.589.582 0-.582 0 0 0 .582-.588 0-.588 0-.588 0-.589.582 0 .582-.589 0 0 0-.588.584-.588zm4.08 2.943.582.588.584-.588h.582c.584 0 .584-.589.584-.589h-.584l-.582-.589.582.589h-.582l-.584.589zm.582-2.355s-.582 0-.582-.588v-.589h.582z" clip-rule="evenodd"/><path fill="#4f835b" fill-rule="evenodd" d="M124.936 61.357h1.166s-1.166.589-.582.589c.582 0 0 .588 0 .588v.589c.582 0 1.166-.589 1.166 0 .582 0 1.164-.589 1.164-1.177-.582.588-.582 0-.582 0l-.582.588h-1.75zm12.24.589s.582.588 1.166.588c0-.588 0-.588.582-.588 0 0 0 .588.582 0h.584s.582.588.582 0c0 0 1.166.588 1.166 0 0-.589-1.166-2.354-1.166-2.354z" clip-rule="evenodd"/><path fill="#ad8c5a" fill-rule="evenodd" d="M137.176 68.42s1.166 0 1.166-.588V64.3c0-.588 0-.588-.584-1.177l-.582-.589v-1.177h.582v.589c0 .588 1.166 1.177 1.166 1.177v-2.354h.582v2.354l.584-.589V60.18h.582v1.177l1.748-.588s-1.164.588-1.748 1.177c0 1.177 0 1.177-.582 1.766 0 0-.584 0-.584 1.177.584 1.178 0 2.943.584 3.532h1.166-1.75v.588l-.582-.588v.588h-.582v-.589z" clip-rule="evenodd"/><path fill="#7c584f" fill-rule="evenodd" d="m138.258 68.42-.021-.318c-.111.121-.297.2-.479.244v.074zm-.373-5.269-.068-.982a.5.5 0 0 1-.059-.222v-.589h-.582z" clip-rule="evenodd"/><path fill="#8c6951" fill-rule="evenodd" d="m138.883 69.009-.439-6.187c-.246-.174-.516-.408-.627-.654l.068.982.062.155c.396.408.395.478.395.994v3.532a.38.38 0 0 1-.105.271l.021.318h.084v.588zm-.541 0" clip-rule="evenodd"/><path fill="#9b7a55" fill-rule="evenodd" d="m139.332 67.127-.174-2.475-.404-1.626a5 5 0 0 1-.311-.204l.439 6.187h.041v-.589l.168.169z" clip-rule="evenodd"/><path fill="#ad8c5a" fill-rule="evenodd" d="m139.354 66.998-.17-2.239-.026-.107.174 2.475zm.687 1.422-.008-.072c-.482-.646.035-2.324-.527-3.46v3.532zm-.363-4.396-.082-.992-.09.09v1.766c0-.414.078-.69.172-.864" clip-rule="evenodd"/><path fill="#b19060" fill-rule="evenodd" d="m140.225 63.575-.09-1.087-.045.046-.494.499.082.992c.174-.317.412-.312.412-.312zm-.192 4.774.008.072h.582-.533c-.022-.022-.039-.049-.057-.072" clip-rule="evenodd"/><path fill="#b79466" fill-rule="evenodd" d="m140.135 62.488.09 1.087c.455-.466.447-.545.447-1.629zm.488 5.932h.049z" clip-rule="evenodd"/><path fill="#bd9e78" fill-rule="evenodd" d="M139.506 65.478v1.176z" clip-rule="evenodd"/><path fill="#6d464e" fill-rule="evenodd" d="M137.758 68.42h.584-1.166zm.584 0 .582-.588zm.582-.588v1.176h-.583s0-.588.582-.588l.582.588c0-.588-.582-.588-.582-.588v-.588zm.582.588h.586zm.584 0h.055zm.055 0h.055zm.054 0h.054zm.055 0h.056zm.057 0h.055zm.054 0h.053zm.053 0h.055zm.055 0h.049zm.048 0h.055zm.055 0h.047zm.047 0h.049zM138.924 67.832l-.582-1.178c.582 0 .582-.588.582-.588z" clip-rule="evenodd"/><path fill="#6d464e" fill-rule="evenodd" d="M138.342 63.712s0 1.177.582 1.177v1.178-1.178zm.582 1.766v.589z" clip-rule="evenodd"/><path fill="#6d464e" fill-rule="evenodd" d="M138.342 63.712v.271zm0 .271v.037zm0 .037v.04zm0 .04v.044zm0 .044v.041zm0 .041v.048zm0 .048v.052zm0 .052v.056zm0 .055v.002zm0 .003v.007zm0 .007v.007zm0 .006v.007zm0 .007v.007zm0 .008v.007zm0 .006v.007zm0 .007v.014zm0 .014v.007zm0 .007v.014zm0 .014v.014zm0 .014v.014zm0 .014v.014zm0 .014v.013zm0 .014v.014zm0 .014v.021zm0 .02v.014zm0 .014v.021zm0 .021v.021zm0 .021v.021zm0 .021v.021zm0 .021v.021zm0 .021v.02zm0 .02v.028zm0 .028v.021zm0 .021v.028zm0 .028v.028zm0 .028v.028zm0 .028v.025zm0 .025v.028zm0 .028v.027zm0 .027v.031zm0 .031v.027zm0 .027v.009c.582.589.582.589 0 .589v.025zm0 .624v.048zm0 .049v.049zm0 .049v.049zm0 .048v.049zm0 .049v.048zm0 .048v.049zm0 .049v.055zm0 .056v.049zm0 .048v.055zm0 .056v.056zm0 .056v.056zm0 .055v.002zm0 .002v.005zm0 .005v.009zm0 .009v.01zm0 .01v.014zm0 .013v.014zm0 .014v.019zm0 .019v.017zm0 .016v.021zm0 .021v.021zm0 .021v.027zm0 .028v.025zm0 .025v.028zm0 .028v.028zm0 .028v.035zm0 .035v.027zm0 .027v.035zm0 .035v.034zm0 .035v.035zm0 .035v.034zm0 .034v.038zm0 .037v.035zm0 .035v.042zm0 .042v.035zm0 .034v.043zm0 .042v.041zm0 .042v.042zm0 .042v.041zm0 .041v.042zm0 .042v.042zm0 .042v.041zm0 .041v.035zm0 .035v.042zm0 .042v.042zm0 .042v.041zm0 .041v.037zm0 .038v.042zm0 .042v.042zm0 .041v.041zm0 .042v.035zm0 .035v.039zm0 .039v.035zm0 .035v.039zm0 .039v.035zm0 .035v.035zm0 .034v.033zm0 .033v.035zm0 .035v.027zm0 .028v.031zm0 .03v.025zm0 .025v.028zm0 .028v.021zm0 .021v.025zm0 .025v.022zm0 .021v.023zm0 .023v.014zm0 .014v.017zm0 .017v.012zm0 .011v.013zm0 .014v.007zm0 .007v.009zm0 .009v.005zm0-4.115v-.957c-.293-.221-.584-.515-.584-.809l-.387.781c.17.171.387.396.387.396.264.267.41.408.488.542zm.58-.594.002.005v-.005zm.002 0v-2.056l.582-.294v.588l-.582.589z" clip-rule="evenodd"/><path fill="#6d464e" fill-rule="evenodd" d="M138.924 64.3s0-.588-.582-.588v-.589s.582 0 .582.589zm1.166-1.766s.582-1.177.582-.588c.283-.285.709-.575 1.064-.793l-.066-.132-.998.336v-.883l-.582.294z" clip-rule="evenodd"/><path fill="#bd9e78" fill-rule="evenodd" d="M139.506 64.889v.589zm0 1.177v.588s.15.297.297.594c-.004-.28 0-.584-.008-.89zm.584-2.354v-.589h.48c-.08.181-.224.329-.48.589m-.584 0v.588z" clip-rule="evenodd"/><path fill="#8dba4f" fill-rule="evenodd" d="M136.592 56.649h-1.164c-.584 0-.584.588-.584.588 0 .589-.582 0-.582.589 0 0 .582 0 0 .588-.584 0 .582 0 0 0 0 .589-.584.589-.584.589.584 0 0 .589 0 .589v1.177l.584.588h.582v1.177h.584v.589c.582 0 1.164-.589 1.164 0 .584 0 1.166-.589 1.166-1.177l.584-.589h.582s1.166-.588 1.166 0l1.166-.588s0 .588.582 1.177v.588s.582 0 .582-.588c0 0 .584.588 1.166 0h.584v-1.177s.582 0 0-.589v-1.177h-.584s.584-.589 0-1.177h-.582v-.589s-.584 0-.584-.588v-.589h-2.33s0-.588-.584-.588h-1.748v.588h-1.166z" clip-rule="evenodd"/><path fill="#4f835b" fill-rule="evenodd" d="M139.506 59.003v.589h-.582.582c.584 0 0-.589 0-.589m-.582 1.177h-1.166l-.582-.588-.584.588c-.582 0-.582-.588-.582-.588s0 .588-.582.588h-.584v.589l.584.588 1.748.589-.584-.589s.584 0 .584-.588l-.584.588-.582-.588h1.748s0 .588.584.588q0-.002.004 0h.578s.738-.373 1.041-.232l.707-.356h-1.166c-.582.588-1.164 0-1.164 0v-.589.589zm1.748.589h.584s0 .588.582 1.177v.588s.582 0 .582-.588c0 0 0-.589.584-.589.582.589 0 .589 0 .589.582 0 .582-.589.582-.589h-.582v-.588l.582-.589h-.582l-.584.589c-.582 0-.582-.589-1.164 0l-.779.392zm.584-4.709v.589h.582l.582.588.584.589v-.589s-.584 0-.584-.588v-.589z" clip-rule="evenodd"/><path fill="#4f835b" fill-rule="evenodd" d="M136.01 56.649v.588s0 .589 0 0c.582 0 .582.589.582.589l-.582.588c.582 0 0 0 0 0h-.582v.589c.582 0 0 .589 0 .589s-.584-.589-.584 0l.584.588s-.584 0 0 0c0 .589.582.589.582.589l.582 1.177-1.748-.353v-.236h-.582l-.584-.588v-1.177s.584-.589 0-.589c0 0 .584 0 .584-.589.582 0-.584 0 0 0 .582-.588 0-.588 0-.588 0-.589.582 0 .582-.589 0 0 0-.588.584-.588zm4.08 2.943.582.588.584-.588h.582c.582 0 .582-.589.582-.589h-.582l-.582-.589.582.589h-.582l-.584.589zm.582-2.355s-.582 0-.582-.588v-.589h.582z" clip-rule="evenodd"/><path fill="#4f835b" fill-rule="evenodd" d="M134.844 61.357h1.166s-1.166.589-.582.589c.582 0 0 .588 0 .588v.589c.582 0 1.164-.589 1.164 0 .584 0 1.166-.589 1.166-1.177-.582.588-.582 0-.582 0l-.584.588h-1.748z" clip-rule="evenodd"/><path fill="#f2de3d" fill-rule="evenodd" stroke="#3974ad" stroke-miterlimit="2.613" stroke-width=".505" d="m110.949 136.696-7.578-3.532-5.244 2.355 11.656 5.886zm-29.141 0 6.993-3.532 5.828 2.355-11.656 5.886z" clip-rule="evenodd"/><path fill="#fff" fill-rule="evenodd" stroke="#3974ad" stroke-miterlimit="2.613" stroke-width="4.062" d="M96.378 91.964H78.311v21.189c0 6.474 3.497 12.359 6.411 15.891 5.246 5.298 11.657 8.829 11.657 8.829s6.411-3.531 11.657-8.829c2.914-3.531 6.41-9.417 6.41-15.891V91.964z" clip-rule="evenodd"/><path fill="none" stroke="#f2de3d" stroke-miterlimit="2.613" stroke-width="3.121" d="M96.378 91.964H78.311v21.189c0 6.474 3.497 12.359 6.411 15.891 5.246 5.298 11.657 8.829 11.657 8.829s6.411-3.531 11.657-8.829c2.914-3.531 6.41-9.417 6.41-15.891V91.964z"/><path fill="#f2de3d" fill-rule="evenodd" stroke="#3974ad" stroke-miterlimit="2.613" stroke-width=".505" d="M96.378 146.702c-1.749 0-6.411-.589-9.325-2.354-2.914-2.354-7.577-2.942-7.577-2.942l1.749-4.12s4.08.588 6.994 2.354c2.331 1.178 6.411 2.354 8.16 2.354s5.829-1.177 8.159-2.354c2.332-1.766 6.994-2.354 6.994-2.354l1.748 4.12s-4.662.588-8.158 2.942c-2.333 1.765-6.995 2.354-8.744 2.354z" clip-rule="evenodd"/><path fill="#3974ad" fill-rule="evenodd" d="M110.365 111.387v-4.708h-.582c0 .588-1.166.588-1.166.588s-1.748-.588-3.496-.588c-2.914 0-6.412 2.354-6.412 7.062s3.498 6.475 6.412 6.475c3.496 0 5.244-2.354 5.244-2.354-.582.589-2.33 1.766-4.662 1.766s-4.662-1.766-4.662-5.886c0-2.943.582-4.12 1.748-4.708.582-1.178 1.748-1.767 2.914-1.767 2.332 0 3.496 1.767 4.08 4.12z" clip-rule="evenodd"/><path fill="#3974ad" fill-rule="evenodd" stroke="#fff" stroke-miterlimit="2.613" stroke-width=".253" d="M98.709 117.861h7.578v-.589c-1.75-.588-2.332-.588-2.332-2.942V99.615c0-2.942.582-2.942 2.332-2.942v-1.178h-7.578v1.178c2.332 0 2.914 0 2.914 2.942v14.715c0 2.354-.582 2.354-2.914 2.942z" clip-rule="evenodd"/><path fill="#3974ad" fill-rule="evenodd" stroke="#fff" stroke-miterlimit="2.613" stroke-width=".253" d="M101.041 127.278c-2.914-.588-2.914-1.177-2.914-3.531V99.615h5.244c3.498 0 4.664 1.177 5.246 5.297h.582v-6.474H82.973v6.474h.583c.583-4.12 1.749-5.297 5.245-5.297h5.828v23.544c0 2.942 0 3.531-3.497 4.119v.589h9.908v-.589z" clip-rule="evenodd"/><path fill="#3974ad" fill-rule="evenodd" stroke="#fff" stroke-miterlimit="2.613" stroke-width=".253" d="M85.887 117.861h6.994v-.589c-1.749-.588-2.332-.588-2.332-2.942V99.615c0-2.942.583-2.942 2.332-2.942v-1.178h-6.994v1.178c1.749 0 2.332 0 2.332 2.942v14.715c0 2.354-.583 2.354-2.332 2.942z" clip-rule="evenodd"/><path fill="#3974ad" fill-rule="evenodd" stroke="#3974ad" stroke-miterlimit="2.613" stroke-width=".211" d="M96.378 107.267s-2.332-1.766-3.497-2.354l-2.332-1.177v-1.766s1.749.589 2.332.589c1.748.589 3.497 2.354 3.497 2.354s1.165-1.765 2.915-2.354c.582 0 2.33-.589 2.33-.589v1.766l-2.33 1.177c-1.166.588-2.915 2.354-2.915 2.354z" clip-rule="evenodd"/><path fill="#3974ad" fill-rule="evenodd" d="M86.47 112.564v-4.12c0-.589 0-1.178.583-1.178h2.914c2.331 0 2.914.589 2.914 2.354h.583v-2.942H82.39v.588c1.166 0 1.749 0 1.749 1.767v8.828c0 1.766 0 2.354-1.749 2.354h5.829q-1.749 0-1.749-1.766z" clip-rule="evenodd"/><path fill="none" stroke="#fff" stroke-miterlimit="2.613" stroke-width=".253" d="M86.47 112.564v-4.12c0-.589.583-1.178.583-1.178h2.914c2.331 0 2.914.589 2.914 2.354h.583v-2.942H82.39v.588c1.166 0 1.749 0 1.749 1.767v8.828c0 1.766 0 2.354-1.749 2.354h5.829q-1.749 0-1.749-1.766z"/><path fill="#3974ad" fill-rule="evenodd" d="M92.298 115.507v-4.709h-.583c0 1.767-.583 1.767-2.331 1.767h-3.497v1.177h3.497c1.749 0 2.331 0 2.331 1.766h.583z" clip-rule="evenodd"/><path fill="#f2de3d" fill-rule="evenodd" d="M84.139 79.015c0-7.063 5.828-12.361 12.239-12.361s11.657 5.298 11.657 12.361c0 6.474-5.246 11.771-11.657 11.771-6.411.001-12.239-5.297-12.239-11.771" clip-rule="evenodd"/><path fill="none" stroke="#3974ad" stroke-miterlimit="2.613" stroke-width=".554" d="M102.207 73.129s.826-1.659 2.119-3.235M90.55 73.717s-.814-2.071-2.794-3.434m6.291 2.258s-.523-3.203-2.082-5.033m6.162 5.033s.004-2.644 1.488-5.425m-12.854 4.291c-.346 1.566-.874 4.456-.874 7.608 0 3.417.737 6.094 1.253 7.568m18.378-15.345c.516 1.52 1.352 4.509 1.352 7.777a53 53 0 0 1-1.285 7.202m-3.378-1.905s.836 1.673 2.152 3.26M90.55 83.724s-.826 2.092-2.84 3.455m6.337-2.278s-.525 3.2-2.088 5.031m6.168-5.031s.004 2.634 1.488 5.416M89.384 79.015c0-3.532 1.166-5.298 1.166-5.298h1.749c.583 0 1.749-1.177 1.749-1.177s1.166.588 2.332.588c.582 0 1.749-.588 1.749-.588s1.166.588 1.748.588c1.166.588 2.332 0 2.332 0s.582 2.354.582 5.886c0 2.943-.582 5.297-.582 5.297s-1.166-.588-2.332 0c-.582 0-1.748.589-1.748.589s-1.167-.589-1.749-.589c-1.166 0-2.332.589-2.332.589s-1.166-1.177-1.749-1.177H90.55s-1.166-1.765-1.166-4.708m-5.245 0c0-7.063 5.828-12.361 12.239-12.361s11.657 5.298 11.657 12.361c0 6.474-5.246 11.771-11.657 11.771-6.411.001-12.239-5.297-12.239-11.771z"/><path fill="none" stroke="#3974ad" stroke-miterlimit="2.613" stroke-width=".89" d="M91.133 79.015h9.908"/><path fill="none" stroke="#3974ad" stroke-miterlimit="2.613" stroke-width=".31" d="M91.715 77.249v2.943m1.166-2.943v2.943m.583-2.943v2.943m.583-2.943v2.943m1.165-2.943v2.943m.583-2.943v2.943m.583-2.943v2.943m1.165-2.943v2.943m.584-2.943v2.943m.582-2.943v2.943m1.166-2.943v2.943m.582-2.943v2.943"/><path fill="#c5d8e2" fill-rule="evenodd" stroke="#3974ad" stroke-miterlimit="2.613" stroke-width="3.119" d="M96.378 166.714c-22.147 0-43.711-17.068-53.62-27.074l-10.491 11.183c9.908 11.183 32.055 31.194 64.11 31.194s54.202-20.012 64.692-31.194l-11.072-11.183c-9.907 10.006-31.472 27.074-53.619 27.074z" clip-rule="evenodd"/><path fill="#a3b5d2" fill-rule="evenodd" stroke="#3974ad" stroke-miterlimit="2.613" stroke-width="3.119" d="M169.23 123.747s1.166-5.886 0-6.475c-2.332-2.942-9.908-4.119-9.908-4.119v15.303z" clip-rule="evenodd"/><path fill="#c5d8e2" fill-rule="evenodd" stroke="#3974ad" stroke-miterlimit="2.613" stroke-width="3.119" d="M150.58 140.228s-1.748-1.178-1.748-8.828c0-8.24 3.496-7.652 3.496-7.652h11.656s2.332.589 3.498-.588c1.748-.589 2.33-1.766 2.33-1.766v15.303s-.582 1.766-1.748 2.943c-1.748 1.177-4.08.588-4.08.588z" clip-rule="evenodd"/><path fill="none" stroke="#f2de3d" stroke-miterlimit="2.613" stroke-width="2.227" d="M150.58 140.228s-1.748-1.178-1.748-8.828c0-8.24 3.496-7.652 3.496-7.652h11.656s2.332.589 3.498-.588c1.748-.589 2.33-1.766 2.33-1.766v15.303s-.582 1.766-1.748 2.942c-1.748 1.178-4.08.589-4.08.589zm18.65-16.481s1.166-5.886 0-6.475c-2.332-2.942-9.908-4.119-9.908-4.119v10.594"/><path fill="#3974ad" fill-rule="evenodd" d="M156.99 131.987c0-1.766 1.75-2.943 2.914-2.943 1.75 0 3.498 1.178 3.498 2.943s-1.748 3.531-3.498 3.531c-1.164.001-2.914-1.765-2.914-3.531" clip-rule="evenodd"/><path fill="#fff" fill-rule="evenodd" d="M160.488 131.399c0-.589 0-.589.582-.589.584 0 .584 0 .584.589 0 .588 0 .588-.584.588-.582 0-.582 0-.582-.588" clip-rule="evenodd"/><path fill="#a3b5d2" fill-rule="evenodd" stroke="#3974ad" stroke-miterlimit="2.613" stroke-width="3.119" d="M23.526 123.747s-.583-5.297 0-6.475c2.914-2.942 9.908-4.119 9.908-4.119v15.303z" clip-rule="evenodd"/><path fill="#c5d8e2" fill-rule="evenodd" stroke="#3974ad" stroke-miterlimit="2.613" stroke-width="3.119" d="M42.176 140.228s2.331-1.178 2.331-8.828c-.583-8.24-3.497-7.652-3.497-7.652H28.771s-1.749.589-3.497-.588c-1.166-.589-2.332-1.766-2.332-1.766v15.303s.583 1.766 2.332 2.943c1.166 1.177 3.497.588 3.497.588z" clip-rule="evenodd"/><path fill="none" stroke="#f2de3d" stroke-miterlimit="2.613" stroke-width="2.227" d="M42.176 140.228s2.331-1.178 2.331-8.828c-.583-8.24-3.497-7.652-3.497-7.652H28.771s-1.749.589-3.497-.588c-1.166-.589-2.332-1.766-2.332-1.766v15.303s.583 1.766 2.332 2.942c1.166 1.178 3.497.589 3.497.589zm-18.65-16.481s-.583-5.297 0-6.475c2.914-2.942 9.908-4.119 9.908-4.119v10.594m62.944 42.967c-22.147 0-43.711-17.068-53.62-27.075l-10.491 11.772c9.908 10.594 32.055 30.605 64.11 30.605 31.471 0 54.202-20.012 64.692-31.194l-11.072-11.184c-9.907 10.008-31.472 27.076-53.619 27.076z"/><path fill="#3974ad" fill-rule="evenodd" d="M29.937 131.987c0-1.766 1.166-2.943 2.914-2.943s2.914 1.178 2.914 2.943-1.166 3.531-2.914 3.531c-1.748.001-2.914-1.765-2.914-3.531" clip-rule="evenodd"/><path fill="#fff" fill-rule="evenodd" d="M32.851 131.399c0-.589.583-.589 1.166-.589 0 0 .583 0 .583.589 0 .588-.583.588-.583.588-.583 0-1.166 0-1.166-.588" clip-rule="evenodd"/><path fill="#3974ad" fill-rule="evenodd" d="M43.925 157.885c-.583-.589 0-.589 0-2.354l1.749-6.475-5.828 2.942c-1.166.589-1.166.589-1.749 0l-.583.589 1.749 1.766.583-.589c-.583 0-.583-.588-.583-1.177 0 0 .583 0 1.166-.589l2.331 1.766c0 .589-.583 1.767-.583 1.767-.583 0-.583 0-1.166-.589v.589zm-2.915-5.886 2.915-1.766-1.166 2.943zm13.988 4.709-1.749-1.177h-.583c1.166.588 1.166 1.177.583 1.765l-2.331 2.943c0 .589-1.166 1.766-2.914.589-1.166-1.177-.583-2.354 0-2.943l2.331-2.942c.583-1.178.583-.589 1.166-.589h.583L48.587 152c.583.589.583.589 0 1.766l-2.331 2.943c-.583 1.177-.583 1.766-.583 2.354q.874 1.766 1.748 1.766c.583.589 1.166 1.177 2.332 1.177.583 0 1.166-1.177 1.749-1.766l2.331-2.943c.583-.588.583-.588 1.166 0v-.589z" clip-rule="evenodd"/><path fill="#3974ad" fill-rule="evenodd" d="m51.501 163.771 2.914 1.766c2.331 1.767 4.662 1.178 5.828-1.177.583-1.177 1.166-3.531-1.749-5.297l-3.497-2.354v.588c.583 0 1.166.589.583 1.178l-2.914 4.709c0 .588-.583.588-1.166 0zm5.829-4.709h.583c1.748 1.177 1.165 3.531.582 4.708-1.748 2.354-2.914 2.354-4.079 1.766-.583-.588-.583-.588 0-1.177zm4.662 2.355c.583.588 1.166.588.583 1.177l-2.332 5.298c0 .588-.583.588-1.166.588l5.828 2.942 1.749-1.765h-.583c-1.166 1.177-2.332.588-3.497.588-.583-.588-.583-.588-.583-1.177l1.166-2.943c1.165.589 1.165 1.178 1.165 2.943l1.749-3.532v-.588c-1.166 1.766-1.749 1.766-2.914 1.177l1.165-2.942h1.166c1.166 1.177 2.331 1.766 1.749 2.942v.589l1.166-2.354zm9.325 5.297c.583-.589.583-.589 1.166 0 .583 0 1.166.589.583 1.766-.583 1.766-1.166 1.766-2.332 1.178zm2.914 8.24s-.583 0-.583-.589l-1.166-4.12c.583.589 2.332.589 2.332-1.177.583-1.766-1.749-2.354-2.332-2.943l-3.497-1.177c.583.588.583.588.583 1.766l-1.749 4.708c-.583.589-.583.589-1.166.589h-.583l4.08 1.767v-.589c-.583 0-.583 0-.583-1.178l.583-2.354.583.588 1.166 4.12zm2.331-7.062c.583 0 .583 0 .583 1.177l-1.166 5.297c0 .589-.583.589-1.166.589v.589l6.411 1.766 1.165-2.354h-.582c-1.166 1.177-2.332 1.177-3.497 1.177-.583-.588-.583-.588-.583-1.177l.583-2.943c1.165.589 1.749 1.178 1.749 2.354v.589l1.166-4.12h-.583c-.583 1.177-1.166 1.177-2.331 1.177l.583-2.942c.583-.589.583-.589 1.166 0 1.749 0 2.331.589 2.331 2.354l.583-2.354-6.411-1.766v.587zm9.908 6.473-2.914-.588v1.766l2.331.588zm.583-4.12c.583 0 1.166 0 1.166 1.177l-.583 5.887c0 .588 0 .588-.583.588l6.411.589 1.166-2.354h-.583c-.583 1.766-2.332 1.766-3.497 1.766-.583 0-.583 0-.583-.588v-2.943q1.748 0 1.748 1.766h.583V172.6h-.583c0 1.178-.583 1.178-1.748 1.178v-2.355c0-.588.583-.588 1.166-.588 1.749 0 2.331.588 2.331 1.766h.583v-2.354h-6.994zm13.404 2.355v-2.354h-.582s0 .589-.582.589c0 0-.584-.589-1.75-.589-2.331 0-2.331 1.766-2.331 2.354s0 1.766 2.331 2.354l.584.589c.582.588 1.166.588 1.166 1.177s0 1.766-1.166 1.766c-1.749 0-2.332-1.177-2.915-2.354v2.943h.583v-.589c.583 0 1.165.589 2.332 0 1.748 0 2.914-1.177 2.914-2.354s-1.166-1.766-1.748-2.354l-1.75-.589c-.583-.589-1.165-.589-1.165-1.178 0-1.177.582-1.177 1.165-1.177 1.75 0 2.332 1.177 2.332 1.766zm6.994 4.709c-.582 0-1.164 0-1.164-1.178l-.584-5.886c.584 0 2.332 0 2.332 1.766h.582l-.582-2.354-6.994.588.582 2.354c0-1.766 1.166-1.766 2.332-2.354l.582 6.475c0 1.177 0 1.177-1.166 1.177h4.664zm4.08-4.121-2.914.589.582 1.766 2.332-.589zm-.582-4.12c.582 0 1.164 0 1.164.589l1.75 5.886c0 .588 0 .588-.584.588v.589l4.08-1.177v-.589c-1.166.589-1.166.589-1.748 0l-.584-2.943c1.166-.589 1.75.589 2.332 1.178l-.582-4.12-.584.589c0 .588 0 1.765-1.166 1.765l-.582-2.354c-.582-.589 0-.589.582-.589 1.75-.588 2.332 0 2.916.589l-.584-2.354zm15.737 2.354c-.584.589-.584 0-1.75-.588l-4.08-5.298h-.582l-.582 7.063c0 1.178 0 1.766-.584 1.766v.589l2.332-1.177c-.584 0-.584 0-1.166-.589v-1.178l2.914-1.177c0 .588.584 1.177.584 1.177.582.589 0 .589-.584 1.178l4.08-1.178zm-6.413 0 .582-2.942 1.75 2.354zm12.823-4.708c-.582 1.178-1.166 1.766-1.748 2.354-.584 0-1.166.589-2.332 0-.582-.589-1.166-1.177-1.166-2.354-1.164-1.766-1.164-3.531 0-4.12 1.166-.589 2.914 0 3.498.589h.582l-1.166-2.354h-.582v.589c-.582.588-1.166.588-2.332.588-2.33 1.178-2.914 3.531-1.748 5.887.584 2.354 2.914 2.942 5.246 1.766 1.166-.589 1.748-1.766 2.33-2.943h-.582zm-1.748-5.886c.582 0 .582-.589 1.166.589l2.914 4.708c.582.589 0 .589-.584 1.178v.589l6.412-4.121-1.166-2.354c0 2.354-.584 2.942-1.748 3.531-.584.588-1.166.588-1.166 0l-1.748-2.354c1.164-.589 1.748-.589 2.914.589l-1.75-3.531h-.582c.582 1.177.582 1.766-.582 2.354l-1.166-2.354c-.584 0-.584-.589 0-.589 1.748-1.178 2.33-1.178 3.496 0l-1.166-2.354-5.828 4.12zm9.324-5.297c-.582-.589-.582-.589 0-1.178.584-.589 1.166 0 2.332.589.582 1.177.582 1.766-.584 2.942zm7.576 1.765v.589l-4.078-1.177c.582-.589 1.164-1.766 0-2.943-1.166-1.766-2.914 0-3.498.589l-2.914 2.354c.584 0 .584-.589 1.166.588l3.496 4.121c.584.588 0 .588-.582 1.177l.582.589 2.914-2.943q-.873.883-1.748 0l-1.166-1.766v-.589l4.08 1.178 2.332-1.178zm-4.078-5.885c.582 0 1.164-.589 1.748 0l3.496 4.708c.584.589 0 .589-.582 1.177h.582l5.246-4.708-1.166-2.354-.582.589c.582 1.766 0 2.942-1.166 3.531-.584.589-.584.589-1.166.589l-1.748-2.354c1.166-1.177 1.748-1.177 2.914 0l-2.332-3.531-.582.589c1.166 1.177.582 1.766 0 2.354l-1.748-1.766c-.584-.588 0-.588 0-1.177 1.748-1.178 2.33-1.178 3.496-.589l-1.166-1.766z" clip-rule="evenodd"/><path fill="#c9222f" fill-rule="evenodd" stroke="#3974ad" stroke-miterlimit="2.613" stroke-width=".211" d="M67.82 91.375s1.166-.588 1.749 0h1.166s-1.166 1.177-1.748.589c-.001-.589-1.167-.589-1.167-.589z" clip-rule="evenodd"/><path fill="#c9222f" fill-rule="evenodd" stroke="#3974ad" stroke-miterlimit="2.613" stroke-width=".334" d="M70.151 97.261s0-1.177 1.166-1.177c.583 0 1.748-.589 2.332-.589 1.166-.588 2.331-2.354 3.497-2.354.583 0 1.166 0 0 1.177-.583 1.177-.583 2.354-1.166 2.354s-.583-.589-1.749 0c-.583.588-2.331 2.354-2.914 2.354s-1.166-1.765-1.166-1.765zm-5.828 5.886s.583 2.942.583 3.531c1.166.588 2.914 1.177 2.914 1.766 0 1.177-1.166 1.766-1.166 2.942-.583.589-1.166.589-1.166.589h1.166s-.583 1.178 0 1.766c1.166.589 3.497 1.766 3.497 2.354 1.166.589-.583 1.177-1.166 1.177s-1.749-1.177-1.749-.588H66.07l-1.749-1.766c-.583-1.766-1.748-1.766-1.748-1.766s1.166 0 .583-1.767c0-1.177.583-1.766.583-1.766s-.583.589-1.749-.588c-1.749-.589-4.079-1.767-4.079-1.767z" clip-rule="evenodd"/><path fill="#c9222f" fill-rule="evenodd" d="M51.501 100.204s1.166-2.354 1.166-2.943c0-1.177.583-4.708 2.331-5.297 1.749-.589 3.497 1.177 3.497 2.943-.582 1.766-3.497 7.063-3.497 7.063s0 1.766.583 2.354 2.332.588 2.914-.589c1.166-1.177 3.497-5.297 3.497-5.297s-.583-1.178-1.166-1.766v-2.354H59.66l1.166-1.766-1.166-.588c0-.589 1.166-1.177 1.166-1.177s1.166-1.766.583-2.354v-.589l1.166-.589.583-1.177 1.165 1.177 1.166-1.766 1.166 1.177 1.749.588s.583.589.583 1.178l1.166 1.177s0 1.177-.583 1.177-1.749 0-2.331-.588h-1.166l1.748 1.766c.583 0 1.166-.589 1.166.588 0 .589-1.166.589-.583 1.177.583 0 1.166.589 1.749 1.177l1.166 1.177H69.57s.583 1.177 1.166 1.766l.583 1.177h-1.166v2.354c0 1.178 0 2.354 1.166 3.531s1.166 3.532 1.166 4.121c-.583.588-1.166 1.177-1.749.588 0 0 0-1.177-.583-1.766s-1.166-1.766-2.332-2.943c-.583-.588-1.166-1.765-1.166-1.765l-2.332 2.354c-.583 0-2.331 0-2.914 1.178s-1.166 5.297-1.166 5.297l-.583-.589v2.354l-.583-1.177-.583 1.766v-.589s-1.748.589-1.748 1.178c-.583 1.177-.583 2.354.583 3.531 1.165.588.583 1.177.583 1.766 0 0-1.749.589-2.915 0-1.166 0-2.331-2.354-1.749-3.531 0-.589.583-1.766.583-1.766s-.583-1.178-.583-1.766v-1.178s.583 1.178 1.749 0c.583-.589 1.749-3.531 1.749-4.12-.583-1.177-1.166-1.177-1.166-1.177s-1.748 0-2.331-1.178-1.166-2.354 1.166-5.297 2.914-4.709 2.914-4.709 0-1.766-.583-1.766c-1.166 0-1.749 3.531-2.331 4.709-1.165.59-2.914 1.768-2.914 1.768" clip-rule="evenodd"/><path fill="#3974ad" fill-rule="evenodd" d="m62.575 94.907-.583 2.354-1.166-.785v.197c.583.588 1.166 1.766 1.166 1.766s-1.331 2.352-2.485 4.011l1.902-.479h.583l1.166-1.766-1.166-.589.583-.589 1.166.589s-.583-1.177 0-2.354c0-.588.583-1.766.583-1.766l-1.748 1.766z" clip-rule="evenodd"/><path fill="none" stroke="#3974ad" stroke-miterlimit="2.613" stroke-width=".211" d="m62.575 94.907-.583 2.354-1.166-.785m-1.319 5.973 1.902-.479h.583l1.166-1.766-1.166-.589.583-.589 1.166.589s-.583-1.177 0-2.354c0-.588.583-1.766.583-1.766l-1.748 1.766v-2.354"/><path fill="#3974ad" fill-rule="evenodd" d="M66.654 93.141h1.82c-.216.146-.36.296-.071.588.583 0 1.166.589 1.749 1.177l1.166 1.177h-1.749s.583 1.177 1.166 1.766l.583 1.177h-1.166v2.354c0 .265.002.528.016.793-.564-.967-1.397-2.405-1.765-3.147-.583-1.177-1.749-1.766-1.749-1.766s1.166-.588 1.166 0l.583.589h.583l-1.166-2.354h.583l-1.166-1.177.583-.589z" clip-rule="evenodd"/><path fill="none" stroke="#3974ad" stroke-miterlimit="2.613" stroke-width=".211" d="M66.654 93.141h1.82m1.693 9.033c-.565-.967-1.397-2.405-1.765-3.147-.583-1.177-1.749-1.766-1.749-1.766s1.166-.588 1.166 0l.583.589h.583l-1.166-2.354h.583l-1.166-1.177.583-.589-1.166-.588"/><path fill="#3974ad" fill-rule="evenodd" d="m65.489 104.324.583-2.354s-.583-1.766 0-1.766c0-.589.583.588.583.588h.583v3.352c-.331-.508-.583-.996-.583-.996z" clip-rule="evenodd"/><path fill="none" stroke="#3974ad" stroke-miterlimit="2.613" stroke-width=".211" d="m65.489 104.324.583-2.354s-.583-1.766 0-1.766c0-.589.583.588.583.588h.583v3.352"/><path fill="#3974ad" fill-rule="evenodd" d="m53.833 96.084-.583 2.942 1.73-2.185c.14-.452.287-.934.449-1.375l-.431-1.738-.583 3.531z" clip-rule="evenodd"/><path fill="none" stroke="#3974ad" stroke-miterlimit="2.613" stroke-width=".211" d="m53.833 96.084-.583 2.942 1.73-2.185m.449-1.374-.431-1.738-.583 3.531-.583-1.177"/><path fill="none" stroke="#3974ad" stroke-miterlimit="2.613" stroke-width=".628" d="M66.072 86.667s.583 1.177 1.166 1.766h1.749m-5.332-1.852c-.135.895-.346 2.743.085 3.617.583 1.766 2.332 2.943 2.914 2.943h1.749"/><path fill="none" stroke="#3974ad" stroke-miterlimit="2.613" stroke-width=".334" d="M51.501 100.204s1.166-2.354 1.166-2.943c0-1.177.583-4.708 2.331-5.297 1.749-.589 3.497 1.177 3.497 2.943-.582 1.766-3.497 7.063-3.497 7.063s0 1.766.583 2.354 2.332.588 2.914-.589c1.166-1.177 3.497-5.297 3.497-5.297s-.583-1.178-1.166-1.766v-2.354H59.66l1.166-1.766-1.166-.588 1.166-1.177.583-2.354v-.589l1.166-.589.583-1.177 1.165 1.177 1.166-1.766 1.166 1.177 1.749.588s.583.589.583 1.178l1.166 1.177-.583 1.177s-1.749 0-2.331-.588h-1.166l1.748 1.766c.583 0 1.166-.589 1.166.588 0 0-1.166.589-.583 1.177.583 0 1.166.589 1.749 1.177l1.166 1.177H69.57s.583 1.177 1.166 1.766l.583 1.177h-1.166v2.354c0 1.178 0 2.354 1.166 3.531s1.166 3.532 1.166 4.121c-.583.588-1.166 1.177-1.749.588 0 0 0-1.177-.583-1.766s-1.166-1.766-2.332-2.943c-.583-.588-1.166-1.765-1.166-1.765l-2.332 2.354c-.583 0-2.331 0-2.914 1.178s-1.166 5.297-1.166 5.297l-.583-.589v2.354l-.583-1.177-.583 1.766v-.589s-1.748.589-1.748 1.178c0 1.177-.583 2.354.583 3.531 1.165.588.583 1.766.583 1.766s-1.749.588-2.915 0c-1.166 0-2.331-2.354-1.749-3.531 0-.589.583-1.766.583-1.766l-.583-1.766v-1.178s.583 1.178 1.749 0c.583-.589 1.749-3.531 1.749-4.12-.583-1.177-1.166-1.177-1.166-1.177s-1.749 0-2.332-1.178-1.166-2.354 1.166-5.297 2.914-4.709 2.914-4.709l-.583-1.766c-1.166 0-1.749 3.531-2.331 4.709-1.164.59-2.913 1.768-2.913 1.768z"/><path fill="#c9222f" fill-rule="evenodd" stroke="#3974ad" stroke-miterlimit="2.613" stroke-width=".211" d="M124.936 91.375s-1.164-.588-1.748 0h-1.166s1.166 1.177 1.166.589c.583-.589 1.748-.589 1.748-.589z" clip-rule="evenodd"/><path fill="#c9222f" fill-rule="evenodd" stroke="#3974ad" stroke-miterlimit="2.613" stroke-width=".334" d="M122.605 97.261s0-1.177-1.166-1.177c-.584 0-1.748-.589-2.332-.589-1.164-.588-2.914-2.354-3.496-2.354-.584 0-1.166 0-.584 1.177.584 1.177.584 2.354 1.75 2.354.582 0 .582-.589 1.166 0 1.164.588 2.912 2.354 3.496 2.354.582 0 1.166-1.765 1.166-1.765zm5.829 5.886s-.584 2.942-.584 3.531c-1.164.588-2.914 1.177-2.914 1.766 0 1.177 1.166 1.766 1.166 2.942 0 .589 1.166.589 1.166.589h-1.166s.584 1.178-.582 1.766c-.584.589-2.914 1.766-2.914 2.354-1.166.589.582 1.177 1.166 1.177.582 0 1.748-1.177 1.748-.588h1.166s1.164-1.178 1.748-1.766c.582-1.766 1.748-1.766 1.748-1.766s-1.166 0-.584-1.767c0-1.177-.582-1.766-.582-1.766s.582.589 1.748-.588c1.166-.589 4.08-1.767 4.08-1.767z" clip-rule="evenodd"/><path fill="#c9222f" fill-rule="evenodd" d="M141.256 100.204s-1.166-2.354-1.166-2.943c0-1.177-.584-4.708-2.332-5.297s-3.496 1.177-3.496 2.943 3.496 7.063 3.496 7.063 0 1.766-.582 2.354c-.584.588-2.332.588-3.498-.589-.582-1.177-2.914-5.297-2.914-5.297s.584-1.178 1.166-1.766v-2.354h.584l-.584-1.766 1.166-.588c0-.589-1.166-1.177-1.166-1.177s-1.166-1.766-.582-2.354v-.589l-1.166-.589-.582-1.177-1.166 1.177-1.166-1.766s-.582.589-1.166 1.177c-.582 0-1.748.588-1.748.588l-1.166 1.178c0 .588-.582 1.177-.582 1.177s0 1.177.582 1.177c.584 0 1.748 0 2.332-.588h1.166l-1.75 1.766c-.582 0-1.748-.589-1.164.588 0 .589 1.164.589.582 1.177-.582 0-1.166.589-1.748 1.177-.584.588-1.166 1.177-1.166 1.177h1.748s-.582 1.177-1.166 1.766l-.582 1.177h1.166v2.354c0 1.178 0 2.354-1.166 3.531s-1.166 3.532-1.166 4.121c.582.588 1.166 1.177 1.748.588 0 0 0-1.177.584-1.766.582-.589 1.166-1.766 1.748-2.943 1.166-.588 1.748-1.765 1.748-1.765l2.332 2.354c.582 0 2.33 0 2.914 1.178.582 1.177.582 5.297.582 5.297l1.166-.589v2.354l.582-1.177.584 1.766v-.589s1.748.589 1.748 1.178c.582 1.177.582 2.354-.582 3.531-1.166.588-.584 1.177-.584 1.766 0 0 1.748.589 2.914 0 1.166 0 2.332-2.354 1.748-3.531 0-.589-.582-1.766-.582-1.766s.582-1.178.582-1.766v-1.178s-.582 1.178-1.748 0c-.582-.589-1.748-3.531-1.748-4.12.582-1.177 1.166-1.177 1.166-1.177s1.748 0 2.33-1.178c.584-1.177.584-2.354-1.164-5.297-2.332-2.943-2.914-4.709-2.914-4.709s0-1.766.582-1.766c1.166 0 1.748 3.531 2.332 4.709 1.164.59 2.914 1.768 2.914 1.768" clip-rule="evenodd"/><path fill="#3974ad" fill-rule="evenodd" d="m130.182 94.907.582 2.354 1.166-.785v.197c-.582.588-1.166 1.766-1.166 1.766s1.297 2.287 2.199 3.939l-1.615-.408h-.584l-1.164-1.766 1.164-.589-.582-.589-1.166.589s.584-1.177 0-2.354c0-.588-.582-1.766-.582-1.766l1.748 1.766z" clip-rule="evenodd"/><path fill="none" stroke="#3974ad" stroke-miterlimit="2.613" stroke-width=".211" d="m130.182 94.907.582 2.354 1.166-.785m1.033 5.902-1.615-.408h-.584l-1.166-1.766 1.166-.589-.582-.589-1.166.589s.582-1.177 0-2.354c0-.588-.582-1.766-.582-1.766l1.748 1.766v-2.354"/><path fill="#3974ad" fill-rule="evenodd" d="M126.102 93.141h-1.816c.215.146.357.296.068.588-.582 0-1.166.589-1.748 1.177-.584.588-1.166 1.177-1.166 1.177h1.748s-.582 1.177-1.166 1.766l-.582 1.177h1.166v2.354c0 .267.004.528-.01.795.562-.966 1.391-2.407 1.758-3.149.582-1.177 1.748-1.766 1.748-1.766s-1.166-.588-1.166 0c-.582 0-.582.589-.582.589h-1.166l1.748-2.354h-.582l1.166-1.177-.584-.589z" clip-rule="evenodd"/><path fill="none" stroke="#3974ad" stroke-miterlimit="2.613" stroke-width=".211" d="M126.102 93.141h-1.816m-1.69 9.035c.562-.966 1.391-2.407 1.758-3.149.582-1.177 1.748-1.766 1.748-1.766s-1.166-.588-1.166 0c-.582 0-.582.589-.582.589h-1.166l1.748-2.354h-.582l1.166-1.177-.584-.589 1.166-.588"/><path fill="#3974ad" fill-rule="evenodd" d="M126.686 103.729v-1.759s.582-1.766 0-1.766c0-.589-.584.588-.584.588h-.582v3.196c.395-.45.582-.841.582-.841s.248.243.584.582" clip-rule="evenodd"/><path fill="none" stroke="#3974ad" stroke-miterlimit="2.613" stroke-width=".211" d="M126.686 103.729v-1.759s.582-1.766 0-1.766c0-.589-.584.588-.584.588h-.582v3.196"/><path fill="#3974ad" fill-rule="evenodd" d="m138.924 96.084.582 2.942-1.707-2.152c-.145-.468-.297-.964-.467-1.42l.426-1.724.584 3.531z" clip-rule="evenodd"/><path fill="none" stroke="#3974ad" stroke-miterlimit="2.613" stroke-width=".211" d="m138.924 96.084.582 2.942-1.707-2.152m-.467-1.42.426-1.724.584 3.531.582-1.177"/><path fill="none" stroke="#3974ad" stroke-miterlimit="2.613" stroke-width=".628" d="M126.102 86.667s0 1.177-.582 1.766h-2.332m5.917-1.857c.139.892.344 2.748-.09 3.622-.582 1.766-2.33 2.943-2.914 2.943h-1.748"/><path fill="none" stroke="#3974ad" stroke-miterlimit="2.613" stroke-width=".334" d="M141.256 100.204s-1.166-2.354-1.166-2.943c0-1.177-.584-4.708-2.332-5.297s-3.496 1.177-3.496 2.943 3.496 7.063 3.496 7.063 0 1.766-.582 2.354c-.584.588-2.332.588-3.498-.589-.582-1.177-2.914-5.297-2.914-5.297s.584-1.178 1.166-1.766v-2.354h.584l-.584-1.766 1.166-.588-1.166-1.177-.582-2.354v-.589l-1.166-.589-.584-1.177-1.164 1.177-1.166-1.766s-.582.589-1.166 1.177c-.582 0-1.748.588-1.748.588l-1.166 1.178c0 .588-.582 1.177-.582 1.177l.582 1.177s1.748 0 2.332-.588h1.166l-1.75 1.766c-.582 0-1.748-.589-1.164.588 0 0 1.164.589.582 1.177-.582 0-1.166.589-1.748 1.177-.584.588-1.166 1.177-1.166 1.177h1.748s-.582 1.177-1.166 1.766l-.582 1.177h1.166v2.354c0 1.178 0 2.354-1.166 3.531s-1.166 3.532-1.166 4.121c.582.588 1.166 1.177 1.748.588 0 0 0-1.177.584-1.766.582-.589 1.166-1.766 1.748-2.943 1.166-.588 1.748-1.765 1.748-1.765l2.332 2.354c.582 0 2.33 0 2.914 1.178.582 1.177.582 5.297.582 5.297l1.166-.589v2.354l.582-1.177.584 1.766v-.589s1.748.589 1.748 1.178c0 1.177.582 2.354-.582 3.531-1.166.588-.584 1.766-.584 1.766s1.748.588 2.914 0c1.166 0 2.332-2.354 1.748-3.531 0-.589-.582-1.766-.582-1.766l.582-1.766v-1.178s-.582 1.178-1.748 0c-.582-.589-1.748-3.531-1.748-4.12.582-1.177 1.166-1.177 1.166-1.177s1.748 0 2.33-1.178c.584-1.177.584-2.354-1.164-5.297-2.332-2.943-2.914-4.709-2.914-4.709l.582-1.766c1.166 0 1.748 3.531 2.332 4.709 1.164.59 2.914 1.768 2.914 1.768z"/></svg>