<svg xmlns="http://www.w3.org/2000/svg" viewBox="298.43 42.52 245.04 510.24"><path d="M438.297 318.933c29.496 8.514 51.177 35.787 51.177 67.962 0 38.948-31.768 70.716-70.716 70.716-38.949 0-70.716-31.768-70.716-70.716 0-25.607 13.734-48.112 34.21-60.523 1.034-3.053 2.773-5.066 4.941-6.488 2.66-1.745 5.63-2.351 8.689-2.969 4.808-.97 10.78-2.187 17.312-8.71 5.6-5.592 8.89-15.436 10.62-22.926 1.825-7.902 3.139-16.571 1.483-24.63-4.52-21.995-29.376-32.939-45.363-46.428-16.572-13.985-26.952-32.783-26.952-54.974 0-13.033 4.1-24.944 11.726-35.347 8.834-12.051 20.98-23.146 20.98-38.559 0-15.056-9.305-20.266-16.592-22.038-4.916-1.194-9.566-.793-14.557-.496 2.77-5.76 4.73-9.754 10.472-13.568 5.215-3.463 13.518-6.72 26.306-6.72 12.044 0 20.962 3.549 26.966 10.906 5.82 7.133 8.628 17.689 8.63 31.916 0 9.566-.882 19.03-1.897 28.53-1.542 14.505-3.1 28.846 4.315 42.018 3.683 6.544 14.139 21.1 23.519 21.787.422-2.297 2.132-5.046 4.673-12.463 4.531-13.191 12.94-31.4 39.5-42.134 3.784-1.529 7.655-2.724 11.538-3.954 13.492 22.06 14.814 49.462 14.814 74.625-8.061 0-15.875.197-23.715 2.608-23.13 7.113-40.21 29.302-45.918 52.196v.015q-.227.91-.445 1.909c-.83 3.817-1.217 7.3-1.217 10.295v.017c0 1.724.122 3.254.356 4.558.694 3.887 2.392 4.798 5.123 7.528-3.643 4.956-7.139 10.003-10.279 15.294 6.963.927 21.178-6.808 22.372-9.07 3.339 1.881 3.008 5.97 1.672 9.655-6.29 17.347-21.563 14.366-32.415 20.32-1.332.731-1.516 2.346-1.516 4.793 0 2.539.354 4.095.904 5.065" style="fill:#1b1918;fill-rule:evenodd"/><path d="M360.35 58.901s28.884-2.087 28.884 26.44c0 12.84-6.986 21.542-14.382 30.75-8.59 10.696-18.324 22.819-18.324 43.156 0 33.664 21.628 49.458 40.708 63.39 16.624 12.142 32.324 23.607 32.324 45.195 0 21.708-9.521 38.537-13.867 42.88-7.289 7.29-13.856 8.615-19.129 9.682-5.416 1.092-10.534 2.144-11.608 9.924-20.043 12.037-32.186 33.478-32.186 56.739q0 1.361.055 2.73c.72 17.678 8.282 34.017 21.29 46.006 13.008 11.992 29.908 18.196 47.584 17.475 17.677-.72 34.014-8.283 46.006-21.287 11.991-13.008 18.197-29.91 17.473-47.582-1.094-26.986-18.22-50.376-43.624-59.584l.098.036-.348-.14c-.003-.003-.599-.21-.599-.21-3.212-1.11-6.858-2.369-6.858-10.633 0-8.008 3.636-8.671 10.87-10 4.3-.79 9.562-1.755 14.722-4.907 9.184-5.606 11.252-14.18 9.58-15.85-2.276 1.863-5.13 4.32-14.373 7.104-3.332 1.006-6.686 1.591-8.951 1.591-1.885 0-3.292-.158-4.324-.346 3.391-6.353 7.278-12.433 11.539-18.232-3.558-3.556-4.376-7.363-4.376-12.438 0-6.463 1.643-14.95 5.458-24.163 11.465-27.666 34.47-46.422 65.837-46.422 0-15.126-1.22-30.007-4.5-44.802-.355.1-10.702 3.242-10.956 2.068-.234-1.092 9.023-4.927 10.114-5.385-1.87-6.51-3.935-12.922-7.494-18.746-15.561 4.926-26.037 11.502-34.354 21.44-4.367 5.215-8.369 10.657-18.586 36.467-12.3 0-25.276-17.648-29.696-27.323-5.806-12.71-4.523-24.784-2.859-40.426.877-8.215 1.868-17.525 1.868-28.157 0-13.398-2.547-23.217-7.826-29.686-11.297-13.845-43.916-13.318-55.19 3.246" style="fill:#fff;fill-rule:evenodd"/><path d="M328.946 485.885c-8.306-3.963-9.409-13.114-5.32-21.68 4.107-8.6 11.937-13.442 20.204-9.491 8.264 3.946 9.428 13.075 5.317 21.679-4.09 8.565-11.897 13.457-20.201 9.492m34.317 60.49c-8.903-2.342-11.734-10.962-9.374-19.943 2.374-9.029 9.115-15.08 17.975-12.746 8.855 2.328 11.746 10.913 9.376 19.942-2.364 8.984-9.073 15.088-17.977 12.747m134.762-69.246-9.94 3.893.345 5.459c.222 1.863.229 3.574.636 4.539.2.48.544.797.873.968 0 0-1.038.376-2.745.93-1.708.553-2.647.824-2.647.824.596-1.028.74-2.442.688-4.207l-.876-25.878c-.083-.94-.195-1.822-.507-2.56-.277-.66-.743-1.03-1.068-1.307 1.132-.734 2.548-1.537 3.988-2.142 2.284-.962 3.247-.924 4.913 1.019l14.583 18.086c2.652 3.452 4.995 5.775 6.521 6.238 0 0-1.491.687-4.294 1.936-2.803 1.244-4.657 1.952-4.657 1.952.165-.585.185-1.206-.18-2.138-.39-1.008-1.825-2.712-2.75-4.005zm-66.133-209.298c0 21.62-9.222 39.202-14.55 44.529-16.51 16.512-30.127 4.487-30.275 21.053-7.492 6.785-12.883 17.1-15.527 28.884 1.803.18 3.33 1.182 4.387 2.636 20.97-17.09 53.256-26.076 77.934-20.495 7.845 1.773 14.5 4.67 19.54 9.101-7.578-12.257-19.163-21.716-32.857-26.626-3.25-1.165-9.029-2.5-9.029-13.047 0-7.381 3.028-9.842 7.562-11.166 2.166-.633 25.668-3.863 28.596-16.8-3.793 4.351-17.211 8.481-21.979 8.236-5.573-.284-7.68-1.27-7.68-1.27 5.268-10.485 11.83-19.407 11.83-19.407-13.171-13.173 8.997-85.59 67.654-85.59 0-16.797-1.775-29.9-3.931-39.643-1.394.34-12.443 2.945-12.95.622-.447-2.059 8.139-6.522 11.095-7.99-2.883-10.041-5.754-14.747-5.754-14.747-19.639 6.187-29.38 16.392-35.102 26.176-8.924 15.262-12.255 24.13-14.952 31.597-7.972 0-16.599-6.513-18.835-8.75-30.03-30.024-16.034-49.896-16.034-89.796 0-26.877-10.438-36.944-29.716-36.944-19.276 0-26.163 8.347-26.163 8.347s26.412.855 26.412 28.597c0 29.045-32.707 37.061-32.707 73.905 0 30.668 18.257 45.714 36.515 59.143s36.516 25.243 36.516 49.445m-89.251 189.365c-5.31-2.534-9.486 3.463-12.635 10.059-3.149 6.593-5.208 13.657.103 16.192 5.312 2.532 9.508-3.507 12.658-10.1 3.148-6.596 5.185-13.617-.126-16.15m175.812 71.601c.698.268 1.45.452 2.082.183-.072.435-.48 1.303-1.164 2.005-2.916 2.987-5.651 2.474-6.579 2.107-5.026-1.917-13.432-9.366-13.778-10.18 0 0-.087-.212.132-.302l.303-.135c1.314-.546 2.803-2.03 3.39-3.434.94-2.06.782-3.91-.173-6.173-.988-2.354-2.717-3.838-4.072-4.237-2.004-.592-3.498-.122-4.41.241 0 0-1.202.473-1.56.834 0 0-.242.199.04 1.02l6.35 18.137c.965 2.668 2.64 7.873 4.159 8.75 0 0-1.716.674-4.318 1.614s-4.184 1.377-4.184 1.377c.53-2.026-1.474-7.533-1.979-9.078l-4.106-12.247c-1.027-2.953-2.9-8.244-4.427-9.09 0 0 2.998-.84 9.737-3.67 3.584-1.506 7.056-2.15 10.19-1.232 1.9.559 3.185 1.513 4.236 3.036.402.59.698 1.169.953 1.769.233.557.394 1.197.5 1.791.332 1.851.054 3.819-1.016 5.675 0 0-.965 1.87-3.026 3.336-.002-.003 6.617 5.604 12.72 7.903m-32.372 2.734c1.567 6.928-1.685 12.827-8.895 14.63-5.065 1.266-12.36-.592-14.396-9.48l-2.48-10.492c-.653-2.938-1.722-8.138-3.425-9.493 0 0 1.904-.27 4.887-.826 2.982-.557 4.367-.888 4.367-.888-.783 1.234.039 6.095.818 9.667l3.165 13.337c.565 2.445 1.363 4.118 2.734 5.105 1.015.734 2.372.935 3.786.677 1.287-.24 2.625-.966 3.326-2.269.743-1.367.74-3.344.167-5.786l-3.553-13.337c-.972-3.672-2.091-8.268-3.294-9.037 0 0 1.447-.392 4.19-1.177 2.078-.592 3.313-.952 4.211-1.268-.82 2.007 1.132 8.165 1.546 9.927zm-29.953-6.446c.207.68.332 1.508.396 2.157.055.6.085 1.393.013 2.144-.154 1.88-1.046 4.066-2.522 5.602-2.254 2.354-5.192 3.525-9.087 3.707-1.502.092-1.862-.366-1.962-1.45l-.01-.236s-.031-.42.296-.441l.378-.038c1.15-.143 2.858-.503 4.228-2.168 1.314-1.715 1.763-3.992 1.534-6.444-.244-2.547-1.009-4.38-2.721-5.699-1.486-1.142-3.233-1.513-5.03-1.37 0 0-.722.06-1.522.187 0 0-.468.042-.429.5l1.93 19.991c.167 1.76.647 7.954 2.091 9.232 0 0-1.644.174-4.739.428-2.36.193-4.2.24-4.2.24.621-1.533.518-3.802.363-6.442l-1.495-15.764c-.17-1.804-.475-7.988-1.946-9.515 0 0 3.957-.586 11.277-1.278 3.828-.362 6.964.125 9.669 1.956 1.77 1.192 2.986 2.928 3.488 4.7m-26.433 17.774c.061 5.803-4.658 10.004-11.917 9.897-5.645-.083-8.597-2.405-9.727-3.35l1.175-5.507c1.752 3.51 4.658 6.06 7.928 6.11 3.416.048 6.105-1.962 6.16-5.348.035-2.461-1.32-3.947-7.018-6.913-5.462-2.82-7.495-5.635-7.495-9.83 0-5.713 4.97-8.615 10.808-8.617 4.293-.004 7.288 1.312 9.17 2.317l-1.213 5.046c-2.605-3.479-4.963-4.767-7.807-4.806-2.801-.046-4.786 1.482-4.767 4.36.019 3.139 3.47 4.835 8.125 7.435 5.352 2.994 6.546 5.997 6.578 9.206m-42.318 6.695s.567-.613.953-1.86c.544-1.753.894-5.123 1.313-7.752l2.493-19.274c-5.31-.666-6.66-.284-8.991 1.097l2.188-4.935c1.653.366 5.318.763 9.775 1.325 2.982.373 11.866 1.175 11.866 1.175l.302 4.937c-1.959-2.267-3.992-2.473-8.418-2.82l-2.482 19.337c-.222 1.801-1.21 8.048-.23 9.897-1.069-.121-2.838-.322-4.321-.47-1.54-.156-3.564-.507-4.448-.657m-16.197-33.266c-5.69-1.496-8.63 5.026-10.45 11.943-1.825 6.912-2.481 14.088 3.206 15.588 5.69 1.493 8.646-5.077 10.464-11.99 1.823-6.915 2.469-14.043-3.22-15.541m-19.465-8.32c1.702.625 3.898 1.387 3.898 1.387-1.85 1.342-3.548 6.673-4.651 9.57l-4.265 11.834c-1.141 3.211-3.088 7.868-2.435 9.529 0 0-2.348-.81-4.246-1.485-1.625-.58-2.547-.888-4.268-1.624 2.09-.554 4.062-7.508 4.703-9.257l1.952-5.523-10.223-4.263-2.956 6.318c-.963 2.194-3.265 7.163-2.717 8.72 0 0-1.806-.737-4.45-1.953-3.113-1.433-3.79-1.813-3.79-1.813 2.194-1.078 3.493-4.619 5.163-8.197l5.345-11.84c1.807-4.052 3.438-7.565 3.315-9.874 0 0 .955.569 3.584 1.75 2.095.943 3.165 1.413 4.34 1.885-1.664.661-3.98 6.636-5.201 9.315l-1.566 3.345 9.986 4.114 1.532-3.792c.717-1.937 3.194-7.726 2.66-9.708-.001 0 2.049.744 4.29 1.563m187.957-40.221c-2 1.348-3.496 2.38-3.496 2.38-.147-1.969-3.945-6.832-5.061-8.31l-8.567-11.173 6.891 22.03c-.268.437-.756 1.05-1.211 1.392-1.359 1.034-2.682.83-3.89-.12l-16.314-13.524 5.71 10.516c1.396 2.663 4.088 8.206 5.9 8.752 0 0-1.126.602-2.552 1.292-1.415.685-2.281 1.088-2.281 1.088.316-1.547-2.334-6.147-3.877-9.09l-6.354-11.951c-1.927-3.595-4.053-7.256-5.879-7.985 1.412-.685 1.839-.895 3.86-1.893 1.684-.83 3.17-1.643 3.17-1.643l18.365 15.624-7.224-22.12s.968-.657 2.805-1.882c1.831-1.226 3.483-2.445 3.483-2.445.14 1.978 3.964 7.022 5.358 8.827l7.908 10.177c1.678 2.094 4.815 6.755 7.048 7.29-.002-.002-1.79 1.413-3.792 2.768m-43.451 7.24-8.833-12.24.622 15.372zm-16.807 9.946c.569 2.284 1.698 8.147 3.374 9.295 0 0-2.535.734-4.086 1.21-1.38.425-4.418 1.213-4.418 1.213.716-1.267-.881-8.305-1.323-10.062l-1.524-6.124-10.186 2.498 1.157 6.228c.335 2.013 1.396 8.788 2.77 9.615l-4.394.904c-2.487.511-4.219.784-4.219.784.764-1.267-.259-7.55-.575-9.554l-2.469-13.166c-.45-2.453-1.583-8.662-2.946-9.388 0 0 1.322-.25 4.23-.816 2.91-.567 4.337-.952 4.337-.952-.717 1.473.546 7.43.89 9.517l.784 4.178 10.024-2.443-1.081-4.269c-.589-2.262-1.834-7.688-3.226-8.695 0 0 1.376-.398 4.165-1.191 2.79-.787 3.993-1.238 3.993-1.238-.554 1.506.998 6.79 1.64 9.515zm-30.121 6.957c.521 4.908 1.039 8.433 2.158 9.077-.28.507-1.167 1.173-2.344 1.299-1.418.15-2.49-.547-3.475-1.685l-16.031-18.39.602 11.7c.195 1.838.406 8.809 1.551 9.74l-5.342.242c.93-1.149.683-7.79.485-9.633l-.754-13.203c-.196-1.84-.54-9.142-1.69-10.065l4.9-.178 16.429 19.515-1.367-11.228c-.196-1.847-1.195-8.537-2.301-9.467 0 0 .59-.057 2.584-.328 1.99-.27 2.715-.415 2.715-.415-.923 1.151.148 8.015.347 9.856zm-39.49-4.06-.417 13.488c7.072.093 11.914-.354 14.068-3.422l-1.08 6.128s-3.918.079-9.654 0c-6.303-.091-11.25-.502-11.25-.502 1.048-1.04 1.309-7.611 1.32-9.459l.577-13.237c.026-3.524.347-9.22-.836-10.418 5.123.354 4.47.348 9.176.532 6.16.244 9.65.06 9.65.06l.775 5.06c-2.405-2.007-6.012-2.242-11.898-2.277l-.324 11.32 9.04.051c.815.01.866.463.864 1.37-.01.894-.022 1.37-.881 1.361zm-20.525-19.08c5.535.836 10.75 1.31 10.75 1.31l.21 5.043c-2.069-1.84-2.848-2.435-8.313-3.124l-3.165 20.07c-.223 1.838-1.4 8.82-.49 9.977 0 0-1.917-.213-4.564-.583-2.647-.376-4.274-.748-4.274-.748 1.293-1.01 2.368-7.62 2.592-9.46l3.243-20.32c-4.735-.945-5.71-.582-7.983.737l2.062-4.772c0-.001 4.423 1.038 9.932 1.87m-23.169-5.191a250 250 0 0 0 10.187 2.647l-.486 5.027c-1.505-2.174-2.196-2.705-6.99-3.927l-5.813 19.542c-.466 1.79-2.785 8.557-2.042 9.83 0 0-1.614-.344-4.22-1.067-2.93-.812-4.306-1.362-4.306-1.362 1.502-.988 3.393-6.773 4.012-9.125l5.84-19.673c-4.966-1.656-6.12-1.772-8.493-.67l2.878-4.286c0 .002 3.242 1.31 9.433 3.064M321.207 443c4.903 3.234 10.093 6.142 10.093 6.142l-1.817 4.709c-.679-2.853-3.509-4.402-7.16-6.662l-11.957 17.29c-1.46 2.083-4.306 6.647-4.536 8.426 0 0-1.962-1.246-3.754-2.58-1.871-1.397-3.65-2.69-3.65-2.69 1.782-.434 4.858-4.973 6.715-7.489l11.63-16.596c-4.356-3.369-6.056-4.028-9.135-4.189l4.14-3.104c.003.002 3.982 3.15 9.431 6.743m75.868-357.659c0-3.56-.383-6.776-1.077-9.677 0 0 5.748-.301 5.748-7.297 0-5.767-3.847-9.699-4.879-9.699-.832 0-1.647 2.104-3.45 2.104-4.39 0-4.71-7.034-4.71-7.034 20.422-.694 26.815 12.126 26.815 31.605 0 10.217-.968 19.308-1.82 27.328-.845 7.921-1.627 15.29-1.402 22.484 0 0-21.89-2.58-21.89-19.048 0-10.695 6.665-13.297 6.665-30.766m-30.757 302.684c-1.408-.353-2.624-1.226-3.563-2.536-4.76 7.344-6.768 13.911-5.018 19.805 7.324 24.729 29.143 42.992 55.273 45.424-24.974-7.585-43.456-33.608-46.692-62.693m-5.113-14.614c-1.574-1.12-2.921-2.172-3.88-3.087a63.9 63.9 0 0 0-2.167 19.367q.082 2.033.285 4.027c.967-3.963 2.87-8.104 5.597-12.326-.526-2.471-.444-5.282.165-7.981m1.231-3.775c1.072-2.435 2.69-4.853 5-6.272 2.376-11.076 7.34-20.941 14.595-28.398-10.833 7.702-19.135 18.683-23.5 31.426.58.793 2.12 1.991 3.905 3.244m93.714 56.858c-5.408-.601-12.644-2.03-15.801-3.124-7.687-2.657-11.16-11.385-9.332-18.839-19.826-6.047-40.827-14.444-55.446-22.25-1.214 2.221-2.987 4.371-5.37 5.38 1.373 12.165 5.597 24.085 12.324 34.47 8.923 13.776 21.075 23.218 34.202 26.19 4.653 1.049 10.737 2.358 16.179 1.153 20.178-4.47 36.626-18.426 44.666-36.786-.943.168-2 .263-3.138.303-4.604 13.47-14.286 13.944-18.285 13.503m22.587-62.154c-2.943-7.708-12.779-13.175-25.736-16.11-23.953-5.414-55.417 3.53-75.438 20.375.768 3.07.54 6.737-.493 10.078 14.427 7.757 35.408 16.153 55.202 22.178 4.66-10.697 13.578-12.738 20.535-10.999 4.344 1.084 8.72 1.985 13.098 2.91 7.427 1.736 10.69 9.306 9.54 16.324 2.431-.143 3.61-.55 3.882-.872a63.7 63.7 0 0 0 3.519-23.73 63.7 63.7 0 0 0-4.109-20.154m-37.117 55.357c2.559.888 9.33 2.31 14.953 2.927 6.17.682 10.992-2.75 13.742-9.686-2.064-.118-4.275-.36-6.562-.678-.429 1.396-.975 2.788-1.68 4.024a1.942 1.942 0 1 1-3.373-1.927c.466-.82.852-1.75 1.171-2.708-1.206-.206-2.42-.435-3.62-.666-.413 1.61-.885 3.142-1.38 4.287a1.95 1.95 0 0 1-2.562 1.004 1.94 1.94 0 0 1-1.003-2.557c.4-.92.784-2.168 1.138-3.522-1.29-.282-2.577-.572-3.86-.88a37 37 0 0 1-1.263 3.482 1.944 1.944 0 0 1-3.584-1.51c.418-.978.766-1.953 1.062-2.891a294 294 0 0 1-10.05-2.75c-1.269 5.509 1.187 12.095 6.87 14.051m29.878-10.602c1.037-5.139-.791-11.21-6.472-12.54-4.4-.926-8.794-1.836-13.16-2.924-6.79-1.697-12.614 1.413-15.832 8.346 3.307.962 6.565 1.85 9.74 2.655.51-2.47.62-4.182.62-4.212a1.95 1.95 0 0 1 2.057-1.825 1.94 1.94 0 0 1 1.824 2.053c-.006.139-.132 2.103-.721 4.907 1.248.293 2.498.583 3.753.848.553-2.732.91-5.055.92-5.1a1.94 1.94 0 0 1 2.21-1.629 1.943 1.943 0 0 1 1.634 2.212c-.028.187-.388 2.512-.958 5.3 1.302.254 2.537.475 3.71.676.43-2.357.535-4.23.535-4.266a1.94 1.94 0 0 1 2.037-1.844 1.936 1.936 0 0 1 1.846 2.03c-.008.16-.113 2.128-.573 4.661 2.692.366 4.953.566 6.83.652m-100.03-43.672c-3.958-.722-6.655 4.541-7.475 7.626-.862 3.244-1.519 11.128 3.253 11.994 3.19.585 5.65-3.95 6.533-6.369 1.066-2.912 2.526-12.366-2.31-13.251" style="fill:#001c58;fill-rule:evenodd"/></svg>