<svg xmlns="http://www.w3.org/2000/svg" xml:space="preserve" viewBox="152.83 58.97 454.72 568.45"><defs><clipPath id="e" clipPathUnits="userSpaceOnUse"><path d="M285.122 452.587h-.057c-93.477-6.832-147.658-48.627-147.749-48.69l-.278-.215-.062-.359s-2.693-18.439-2.693-41.212c0-68.4 20.319-133.972 47.789-180.153 29.308-49.222 67.754-83.592 102.584-106.231l.466-.297.477.297c34.86 22.639 73.296 57.009 102.594 106.231 27.485 46.181 47.789 111.753 47.789 180.153 0 22.773-2.699 41.193-2.699 41.212l-.062.359-.26.215c-.089.063-54.285 41.858-147.773 48.69z"/></clipPath><clipPath id="f" clipPathUnits="userSpaceOnUse"><path d="M201.814 324.065h87.585V191.772h-87.585z"/></clipPath><clipPath id="g" clipPathUnits="userSpaceOnUse"><path d="M213.151 332.639h158.416V185.974H213.151Z"/></clipPath><clipPath id="h" clipPathUnits="userSpaceOnUse"><path d="M277.173 370.03h37.888v-37.882h-37.888z"/></clipPath><clipPath id="j" clipPathUnits="userSpaceOnUse"><path d="M285.122 452.587h-.057c-93.477-6.832-147.658-48.627-147.749-48.69l-.278-.215-.062-.359s-2.693-18.439-2.693-41.212c0-68.4 20.319-133.972 47.789-180.153 29.308-49.222 67.754-83.592 102.584-106.231l.466-.297.477.297c34.86 22.639 73.296 57.009 102.594 106.231 27.485 46.181 47.789 111.753 47.789 180.153 0 22.773-2.699 41.193-2.699 41.212l-.062.359-.26.215c-.089.063-54.285 41.858-147.773 48.69z"/></clipPath><clipPath id="l" clipPathUnits="userSpaceOnUse"><path d="M285.122 452.587h-.057c-93.477-6.832-147.658-48.627-147.749-48.69l-.278-.215-.062-.359s-2.693-18.439-2.693-41.212c0-68.4 20.319-133.972 47.789-180.153 29.308-49.222 67.754-83.592 102.584-106.231l.466-.297.477.297c34.86 22.639 73.296 57.009 102.594 106.231 27.485 46.181 47.789 111.753 47.789 180.153 0 22.773-2.699 41.193-2.699 41.212l-.062.359-.26.215c-.089.063-54.285 41.858-147.773 48.69z"/></clipPath><clipPath id="m" clipPathUnits="userSpaceOnUse"><path d="M251.854 139.488h66.536v-25.243h-66.536Z"/></clipPath><clipPath id="o" clipPathUnits="userSpaceOnUse"><path d="M285.122 452.587h-.057c-93.477-6.832-147.658-48.627-147.749-48.69l-.278-.215-.062-.359s-2.693-18.439-2.693-41.212c0-68.4 20.319-133.972 47.789-180.153 29.308-49.222 67.754-83.592 102.584-106.231l.466-.297.477.297c34.86 22.639 73.296 57.009 102.594 106.231 27.485 46.181 47.789 111.753 47.789 180.153 0 22.773-2.699 41.193-2.699 41.212l-.062.359-.26.215c-.089.063-54.285 41.858-147.773 48.69z"/></clipPath><clipPath id="p" clipPathUnits="userSpaceOnUse"><path d="M144.341 434.179h286.95v-82.895h-286.95z"/></clipPath><linearGradient id="a" x1="0" x2="1" y1="0" y2="0" gradientTransform="matrix(341.04175 0 0 -341.04175 114.624 261.494)" gradientUnits="userSpaceOnUse" spreadMethod="pad"><stop offset="0" style="stop-opacity:1;stop-color:#777577"/><stop offset=".494" style="stop-opacity:1;stop-color:#efeeef"/><stop offset=".932" style="stop-opacity:1;stop-color:#777577"/><stop offset="1" style="stop-opacity:1;stop-color:#777577"/></linearGradient><linearGradient id="b" x1="0" x2="1" y1="0" y2="0" gradientTransform="scale(390.04568 -390.04568)rotate(90 .953 -.222)" gradientUnits="userSpaceOnUse" spreadMethod="pad"><stop offset="0" style="stop-opacity:1;stop-color:#777577"/><stop offset=".241" style="stop-opacity:1;stop-color:#777577"/><stop offset=".596" style="stop-opacity:1;stop-color:#efeeef"/><stop offset=".748" style="stop-opacity:1;stop-color:#777577"/><stop offset="1" style="stop-opacity:1;stop-color:#777577"/></linearGradient><linearGradient id="c" x1="0" x2="1" y1="0" y2="0" gradientTransform="scale(346.68352 -346.68352)rotate(50 1.618 -.07)" gradientUnits="userSpaceOnUse" spreadMethod="pad"><stop offset="0" style="stop-opacity:1;stop-color:#46ac3f"/><stop offset=".327" style="stop-opacity:1;stop-color:#46ac3f"/><stop offset="1" style="stop-opacity:1;stop-color:#34783b"/></linearGradient><linearGradient id="d" x1="0" x2="1" y1="0" y2="0" gradientTransform="scale(376.99301 -376.99301)rotate(90 .974 -.218)" gradientUnits="userSpaceOnUse" spreadMethod="pad"><stop offset="0" style="stop-opacity:1;stop-color:#2984c5"/><stop offset=".585" style="stop-opacity:1;stop-color:#2984c5"/><stop offset="1" style="stop-opacity:1;stop-color:#1e4b72"/></linearGradient><linearGradient id="i" x1="0" x2="1" y1="0" y2="0" gradientTransform="matrix(86.11516 0 0 -86.11516 199.847 259.967)" gradientUnits="userSpaceOnUse" spreadMethod="pad"><stop offset="0" style="stop-opacity:1;stop-color:#f6f7f8"/><stop offset=".085" style="stop-opacity:1;stop-color:#f6f7f8"/><stop offset=".505" style="stop-opacity:1;stop-color:#a3a09f"/><stop offset="1" style="stop-opacity:1;stop-color:#f6f7f8"/></linearGradient><linearGradient id="k" x1="0" x2="1" y1="0" y2="0" gradientTransform="matrix(157.54373 0 0 -157.54373 210.694 261.238)" gradientUnits="userSpaceOnUse" spreadMethod="pad"><stop offset="0" style="stop-opacity:1;stop-color:#f6f7f8"/><stop offset=".085" style="stop-opacity:1;stop-color:#f6f7f8"/><stop offset=".505" style="stop-opacity:1;stop-color:#a3a09f"/><stop offset="1" style="stop-opacity:1;stop-color:#f6f7f8"/></linearGradient><linearGradient id="n" x1="0" x2="1" y1="0" y2="0" gradientTransform="matrix(66.23372 0 0 -66.23372 250.394 127.25)" gradientUnits="userSpaceOnUse" spreadMethod="pad"><stop offset="0" style="stop-opacity:1;stop-color:#f6f7f8"/><stop offset=".085" style="stop-opacity:1;stop-color:#f6f7f8"/><stop offset=".505" style="stop-opacity:1;stop-color:#a3a09f"/><stop offset="1" style="stop-opacity:1;stop-color:#f6f7f8"/></linearGradient><linearGradient id="q" x1="0" x2="1" y1="0" y2="0" gradientTransform="matrix(286.93826 0 0 -286.93826 141.29 392.731)" gradientUnits="userSpaceOnUse" spreadMethod="pad"><stop offset="0" style="stop-opacity:1;stop-color:#a3a09f"/><stop offset=".489" style="stop-opacity:1;stop-color:#f6f7f8"/><stop offset=".575" style="stop-opacity:1;stop-color:#f6f7f8"/><stop offset="1" style="stop-opacity:1;stop-color:#a3a09f"/></linearGradient></defs><path d="M285.138 474.664h-.062c-105.673-7.724-166.923-54.97-167.015-55.043l-.323-.234-.056-.399c-.005-.042-3.053-20.848-3.057-46.602.004-77.322 22.971-151.448 54.021-203.631 33.125-55.648 76.586-94.482 115.965-120.093l.527-.338.532.338c39.399 25.611 82.855 64.445 115.979 120.093 31.06 52.183 54.017 126.309 54.017 203.631 0 25.754-3.052 46.56-3.052 46.602l-.077.399-.302.234c-.098.073-61.358 47.319-167.026 55.043z" style="fill:url(#a);stroke:none" transform="matrix(1.33333 0 0 -1.33333 0 691.853)"/><path d="M284.646 458.447c-93.349-6.842-148.56-48.116-151.218-50.145l-1.916-1.823-.339-2.335c-.276-1.967-2.76-19.894-2.76-42.033 0-64.476 17.717-131.227 48.618-183.153 32.331-54.295 74.628-88.787 104.398-108.118l3.647-2.417 3.729 2.376c29.805 19.372 72.103 53.844 104.433 108.159 30.891 51.906 48.613 118.667 48.613 183.153 0 22.139-2.478 40.066-2.755 42.052l-.46 2.695-2.136 1.721c-2.311 1.752-57.526 43.026-151.312 49.889z" style="fill:url(#b);stroke:none" transform="matrix(1.33333 0 0 -1.33333 0 691.853)"/><path d="M285.122 452.587h-.057c-21.971-1.606-41.777-5.144-59.214-9.618l-14.4-44.296 35.537-41.96h76.293l35.533 41.96-14.39 44.293c-17.443 4.475-37.256 8.015-59.236 9.621zm74.695-54.703-35.526-41.939 23.562-72.519 51.737-20.385 27.632 20.069c5.567 25.201 8.76 51.878 8.76 79.001 0 15.32-1.222 28.67-2.021 35.773zm-223.518 0c-.798-7.106-2.016-20.46-2.016-35.773 0-27.119 3.194-53.793 8.761-78.991l27.645-20.079 51.739 20.385 23.556 72.519-35.521 41.939zm149.464-160.453v-56.107l61.617-44.778 16.102 9.688a318.5 318.5 0 0 1 24.711 35.724c8.116 13.637 15.606 28.965 22.132 45.557l-11.15 34.348-51.748 20.375zM171.09 261.863l-11.147-34.339c6.527-16.596 14.016-31.926 22.129-45.566a319 319 0 0 1 24.744-35.756l16.079-9.656 61.617 44.778v56.107l-61.674 44.807zm176.782-126.484-3.622-11.13a323 323 0 0 1 16.934 19.138zm-121.855-11.122-3.62 11.122-13.296 7.993a324 324 0 0 1 16.916-19.115" style="fill:url(#c);stroke:none" transform="matrix(1.33333 0 0 -1.33333 0 691.853)"/><path d="m137.316 403.897-.278-.215-.062-.359s-.289-1.978-.677-5.439h74.164l35.52-41.938-23.564-72.523.009.003-.241-.717.651-.471-.002-.001 61.676-44.834v-56.079l-61.617-44.778-16.079 9.656q1.139-1.425 2.285-2.83l13.296-7.993 3.62-11.122q.997-1.042 1.999-2.069l-4.359 13.374 61.465 44.665 61.471-44.665-4.328-13.368q.995 1.02 1.985 2.055l3.622 11.13 13.312 8.008q1.153 1.412 2.298 2.847l-16.102-9.688-61.617 44.778v56.102l61.666 44.811 51.746-20.374 11.15-34.348q.366.93.728 1.866l-10.629 32.717 26.389 19.179q.207.915.409 1.833l-27.632-20.069-51.737 20.385.225-.717-24.043 74.004H246.24l-.148-.429.148.429h.748l-35.537 41.96 14.4 44.296c-56.75-14.558-88.466-39.024-88.535-39.072m221.498-5.224-35.533-41.96h.754l.256-.768 35.526 41.939h74.144l-.146 1.27H359.98l-14.112 43.438c-.481.126-.959.25-1.444.374zm1.166.481h73.835c-.314 2.666-.532 4.164-.532 4.169l-.062.359-.26.215c-.067.048-31.252 24.096-87.093 38.695zM170.689 263.041l-27.645 20.079c.136-.613.274-1.231.412-1.842l26.399-19.18-26.399 19.18c4.279-18.918 9.891-36.98 16.487-53.754l11.147 34.339 51.746 20.374-.649.472.232.714zm229.735-.943 10.629-32.717c6.282 16.245 11.641 33.678 15.76 51.896zM223.657 135.562l4.359-13.374c18.627-19.107 38.143-34.438 56.64-46.461l.466-.297.477.297c18.515 12.024 38.038 27.357 56.666 46.467l4.328 13.368-61.471 44.665z" style="fill:url(#d);stroke:none" transform="matrix(1.33333 0 0 -1.33333 0 691.853)"/><g clip-path="url(#e)" transform="matrix(1.33333 0 0 -1.33333 0 691.853)"><g clip-path="url(#f)" style="opacity:.5"><path d="M0 0c-7.545 0-15.669 1.036-24.126 3.125-.65.175-1.034.778-.912 1.414.114.573.61.973 1.189.973 4.328-.605 8.375-.922 12.206-.922 40.075 0 61.05 31.04 61.065 61.669 0 19.967-8.421 32.69-13.441 38.488-.614.717-1.136 1.26-1.545 1.69-9.717-11.453-14.071-33.407-14.061-50.35 0-9.998 1.408-18.828 3.965-24.873a1.2 1.2 0 0 0-.61-1.577l-.148-.061-.374-.041c-.467 0-.892.256-1.091.665-.364.728-9.005 18.153-9.005 41.981.015 32.514 18.014 58.504 18.778 59.59l.22.317.773.206c.686-.134 29.652-14.045 29.641-62.972 0-18.05-5.157-34.767-14.526-47.04C36.889 7.715 20.309 0 .036 0Z" style="fill:#36312f;fill-opacity:1;fill-rule:nonzero;stroke:none" transform="translate(226.875 191.772)"/></g><g clip-path="url(#g)" style="opacity:.5"><path d="M0 0c.154-.206-18.101-25.61-18.122-54.909 0-10.971 1.824-21.369 5.425-30.947a76 76 0 0 1 3.714-8.338l1.218-2.327c1.752-3.248 2.484-4.588 2.751-5.234a66 66 0 0 1 3.816 3.196c3.611 3.238 21.312 20.673 21.312 52.849C20.114-14.896.206-.144 0 0m-42.671-121.916c-8.99 0-17.298 1.814-22.681 3.319a93 93 0 0 0-4.892 1.537l.349 1.404c4.369-.646 11.063-1.425 18.234-1.425 16.79.011 33.012 5.215 45.474 14.445l-.021.031c-.184.255-4.364 6.607-5.896 9.629-5.859 11.454-12.117 31.039-12.117 51.61 0 19.167 6.099 36.059 11.217 46.856 2.949 6.249 5.829 11.064 7.718 14.014 1.558 2.407 2.72 4.017 3.232 4.703l.405.542.584-.368c.267-.174.661-.451 1.173-.851C5.85 19.32 34.523-3.729 34.523-44.736c0-6.854-1.095-13.851-3.252-20.766 5.962-2.008 37.436-15.131 56.901-47.04l-1.19-.851c-9.316 11.28-29.568 30.999-60.428 36.552-1.117-2.654-2.628-5.389-4.298-7.981l.467-.102-.242-.02c22.168-4.62 38.6-15.736 48.459-24.218a114 114 0 0 0 9.103-8.738l-1.024-1.055c-9.542 8.338-30.502 22.68-63.652 24.995-14.859-17.752-36.09-27.956-58.038-27.956" style="fill:#36312f;fill-opacity:1;fill-rule:nonzero;stroke:none" transform="translate(283.396 307.89)"/></g><g clip-path="url(#h)" style="opacity:.5"><path d="M0 0c-10.424.01-18.917 8.502-18.937 18.951.02 10.43 8.513 18.932 18.941 18.932 10.424 0 18.922-8.502 18.947-18.932C18.926 8.502 10.428.01.004 0Z" style="fill:#36312f;fill-opacity:1;fill-rule:nonzero;stroke:none" transform="translate(296.11 332.148)"/></g><path d="M0 0c-7.55 0-15.673 1.045-24.13 3.104a1.24 1.24 0 0 0-.917 1.414c.113.574.62.994 1.199.994 4.323-.616 8.369-.933 12.211-.933 40.065 0 61.045 31.03 61.055 61.67 0 19.955-8.416 32.679-13.435 38.487a49 49 0 0 1-1.547 1.69C24.72 94.983 20.365 73.01 20.376 56.087c0-9.998 1.409-18.829 3.96-24.903.261-.575-.005-1.282-.611-1.568l-.153-.061-.369-.041c-.461 0-.886.266-1.086.685-.363.718-9.01 18.132-9.01 41.96.011 32.515 18.015 58.516 18.789 59.611l.22.307.768.195c.691-.143 29.652-14.035 29.631-62.97 0-18.061-5.158-34.759-14.521-47.041C36.889 7.693 20.304 0 .041 0Z" style="fill:#fff;fill-opacity:1;fill-rule:nonzero;stroke:none" transform="translate(224.174 193.831)"/></g><path d="M256.658 325.162c-.025-.042-18.633-26.431-18.633-59.172 0-24.277 8.912-41.611 8.932-41.662.113-.235.405-.317.64-.215.231.134.344.399.237.635-2.664 6.321-4.016 15.357-4.016 25.17-.016 18.818 5.014 40.505 14.747 51.395.424-.39 1.178-1.148 2.151-2.253 4.522-5.236 13.603-18.265 13.603-38.98-.004-32.422-22.941-62.397-61.781-62.397-3.893 0-7.935.297-12.135.923-.246.051-.496-.144-.547-.401-.047-.245.106-.481.362-.563 8.719-2.13 16.688-3.083 23.957-3.083h.04c21.934 0 37.428 8.933 47.37 21.985 9.946 13.04 14.377 30.168 14.377 46.589.015 48.855-28.607 62.171-28.709 62.193a.5.5 0 0 1-.21.048.44.44 0 0 1-.385-.212" style="fill:url(#i);stroke:none" transform="matrix(1.33333 0 0 -1.33333 0 691.853)"/><g clip-path="url(#j)" transform="matrix(1.33333 0 0 -1.33333 0 691.853)"><path d="M0 0c.149-.225-18.102-25.63-18.126-54.929 0-10.981 1.823-21.379 5.424-30.936a78 78 0 0 1 3.713-8.36l1.219-2.326c1.757-3.246 2.484-4.579 2.761-5.234a76 76 0 0 1 3.806 3.218c3.611 3.205 21.317 20.671 21.317 52.817C20.114-14.914.201-.163 0 0m-42.672-121.945c-8.994 0-17.297 1.813-22.681 3.349a78 78 0 0 0-4.891 1.517l.348 1.414c4.37-.667 11.069-1.436 18.235-1.436 16.785 0 33.007 5.215 45.469 14.424l-.021.042c-.183.276-4.364 6.628-5.89 9.64-5.86 11.452-12.125 31.039-12.125 51.589 0 19.177 6.102 36.08 11.213 46.897 2.95 6.229 5.829 11.043 7.719 13.973a85 85 0 0 0 3.237 4.723l.41.563.585-.399c.261-.164.659-.441 1.172-.83 5.736-4.201 34.41-27.27 34.406-68.267 0-6.874-1.087-13.85-3.243-20.784 5.961-1.999 37.431-15.121 56.901-47.032l-1.194-.85c-9.323 11.278-29.57 30.977-60.43 36.561-1.107-2.663-2.633-5.388-4.292-7.991l.46-.101-.235-.022c22.173-4.608 38.6-15.745 48.459-24.217a118 118 0 0 0 9.098-8.727l-1.02-1.066c-9.541 8.339-30.507 22.671-63.656 24.996-14.854-17.752-36.091-27.966-58.034-27.966" style="fill:#fff;fill-opacity:1;fill-rule:nonzero;stroke:none" transform="translate(280.696 309.958)"/></g><path d="M276.02 329.012c-2.095-3.236-4.881-7.989-7.672-13.891-5.573-11.78-11.146-28.15-11.146-46.569 0-22.516 7.313-42.021 12.047-51.26 1.526-3.023 5.849-9.549 5.849-9.549.031.071-2.811 5.327-2.811 5.327-.293.552-.702 1.352-1.23 2.326a80 80 0 0 0-3.75 8.441c-2.73 7.252-5.465 17.732-5.465 31.192.016 29.791 18.574 55.361 18.598 55.402a.506.506 0 0 0 .681.112c.057-.051 20.422-14.834 20.422-46.335 0-34.542-20.289-52.244-21.558-53.381-12.314-11.177-30.405-18.696-50.949-18.717-7.248 0-13.989.79-18.342 1.455a89 89 0 0 1 4.851-1.516c5.859-1.639 13.879-3.289 22.48-3.289 23.331 0 43.814 11.341 57.684 27.762a.54.54 0 0 0 .4.195c32.76-2.295 53.659-16.073 64.082-25.171a113 113 0 0 1-9.03 8.667c-10.792 9.293-26.978 19.731-48.562 24.495l.107.481.404-.276-.404.276-.107-.481a.42.42 0 0 0-.343.286.48.48 0 0 0 .03.441 79 79 0 0 1 4.548 8.113c.108.195.323.318.533.276 31.716-5.715 52.399-26.573 60.871-36.796-19.197 31.45-50.038 44.501-56.675 47.02a.53.53 0 0 0-.308.614c2.105 6.721 3.227 13.657 3.227 20.55.01 40.137-27.311 62.685-34.128 67.684-.493.368-.871.646-1.138.819a89 89 0 0 1-3.196-4.703" style="fill:url(#k);stroke:none" transform="matrix(1.33333 0 0 -1.33333 0 691.853)"/><g clip-path="url(#l)" transform="matrix(1.33333 0 0 -1.33333 0 691.853)"><path d="M0 0c-10.417.021-18.916 8.534-18.936 18.942.02 10.428 8.519 18.931 18.936 18.952 10.429-.021 18.926-8.524 18.941-18.952C18.926 8.534 10.429.021 0 0" style="fill:#fff;fill-opacity:1;fill-rule:nonzero;stroke:none" transform="translate(293.41 334.186)"/><path d="M0 0c.025-10.061 8.154-18.174 18.208-18.194 10.055.02 18.189 8.133 18.21 18.194-.021 10.06-8.155 18.203-18.21 18.203C8.154 18.203.025 10.06 0 0" style="fill:#bebcbe;fill-opacity:1;fill-rule:nonzero;stroke:none" transform="translate(275.2 353.128)"/><g clip-path="url(#m)" style="opacity:.5"><path d="m0 0 1.537 4.067h8.534v-23.981H4.913V0Z" style="fill:#36312f;fill-opacity:1;fill-rule:nonzero;stroke:none" transform="translate(251.854 134.948)"/><path d="M0 0c0-2.306 1.219-3.985 3.76-4.026.379.931.656 2.079.656 4.026 0 1.905-.825 3.268-2.131 3.268C.963 3.268 0 2.018 0 0m-2.269-12.232c1.337.831 3.365 2.448 4.492 4.313-5.183 0-8.395 3.37-8.338 7.314.112 4.589 3.688 8.513 8.476 8.431 2.275 0 4.231-.472 5.83-2.08 1.444-1.485 2.191-3.329 2.191-6.145 0-6.363-4.922-13.616-9.86-17.017z" style="fill:#36312f;fill-opacity:1;fill-rule:nonzero;stroke:none" transform="translate(271.83 131.66)"/><path d="M0 0c6.603-.665 7.975-3.554 7.975-6.658 0-4.322-4.943-9.015-12.975-10.131l-.772 5.48c2.642.195 6.807 1.208 6.807 3.74 0 1.823-2.075 2.622-6.132 2.756l1.27 12.272c2.644.02 9.481.317 11.572.449l-.036-5.961-7.376.4Z" style="fill:#36312f;fill-opacity:1;fill-rule:nonzero;stroke:none" transform="translate(290.193 131.495)"/><path d="M0 0c0-1.844 1.147-3.022 2.29-3.022 1.091 0 2.392.89 2.392 3.216 0 2.479-1.244 2.982-2.161 2.982C1.045 3.176 0 2.079 0 0m4.913-10.356c0 2.417-1.333 3.42-2.418 3.42-1.711 0-2.674-1.505-2.674-3.585 0-2.305 1.363-3.32 2.499-3.32 1.138 0 2.593.811 2.593 3.485m-11.028-.851c0 2.57 1.414 4.968 3.468 6.197A6.08 6.08 0 0 0-5.905.338c0 3.103 2.427 6.587 8.59 6.566 5.378 0 7.944-2.346 7.944-5.881 0-1.904-.983-4.393-3.401-5.736 2.386-1.086 3.677-3.206 3.677-5.91 0-2.971-2.053-6.945-8.717-6.945-6.254 0-8.303 2.898-8.303 6.361" style="fill:#36312f;fill-opacity:1;fill-rule:nonzero;stroke:none" transform="translate(307.484 132.582)"/></g><path d="M0 0c0-1.865 1.137-3.043 2.288-3.043 1.076 0 2.392.902 2.392 3.228 0 2.478-1.254 2.98-2.171 2.98C1.028 3.165 0 2.068 0 0m4.911-10.367c0 2.407-1.342 3.431-2.438 3.431-1.69 0-2.659-1.536-2.659-3.605 0-2.305 1.358-3.309 2.496-3.309 1.131 0 2.601.809 2.601 3.483m-11.043-.851c0 2.572 1.429 4.98 3.483 6.188C-4.677-3.964-5.911-1.865-5.911.317c0 3.094 2.422 6.598 8.594 6.557 5.373 0 7.939-2.325 7.939-5.859 0-1.917-.983-4.396-3.406-5.748 2.397-1.076 3.682-3.206 3.682-5.901 0-2.97-2.064-6.956-8.716-6.956-6.249 0-8.314 2.9-8.314 6.372M-17.304-1.106c6.603-.657 7.976-3.545 7.976-6.669 0-4.314-4.938-8.996-12.964-10.112l-.784 5.482c2.643.194 6.803 1.218 6.803 3.727 0 1.834-2.07 2.644-6.122 2.767l1.266 12.263c2.647.02 9.481.337 11.575.46L-9.579.84l-7.38.409zm-18.357.163c0-2.305 1.215-3.984 3.76-4.016.384.923.655 2.07.655 4.016 0 1.917-.824 3.268-2.141 3.268s-2.274-1.229-2.274-3.268m-2.269-12.221c1.337.83 3.375 2.448 4.492 4.312-5.188 0-8.39 3.361-8.344 7.326.128 4.579 3.688 8.491 8.482 8.4 2.279 0 4.236-.462 5.829-2.069 1.445-1.496 2.203-3.33 2.203-6.137 0-6.372-4.933-13.625-9.865-17.025zm-17.707 15.52 1.532 4.056h8.538v-23.98h-5.153V2.356Z" style="fill:#fff;fill-opacity:1;fill-rule:nonzero;stroke:none" transform="translate(306.031 132.92)"/></g><path d="M300.417 133.238c0-2.1 1.213-4.088 3.114-5.604-2.023-1.189-3.34-3.544-3.34-5.932 0-3.974 2.777-6.074 8.022-6.074 6.212 0 8.415 3.585 8.415 6.659 0 2.611-1.235 4.619-3.504 5.634l-.533.246.523.297c2.393 1.321 3.248 3.769 3.248 5.471 0 3.606-2.716 5.572-7.73 5.572-5.68 0-8.215-3.155-8.215-6.269m5.316-.318c0 2.131 1.081 3.452 2.807 3.452.742 0 2.469-.317 2.469-3.267 0-2.418-1.394-3.525-2.69-3.525-1.27 0-2.586 1.239-2.586 3.34m-.184-10.541c0 2.366 1.157 3.893 2.955 3.893 1.357 0 2.726-1.291 2.726-3.719 0-2.797-1.554-3.79-2.889-3.79-1.384 0-2.792 1.249-2.792 3.616m-41.002 9.004a6.54 6.54 0 0 1 1.894-4.701c1.476-1.496 3.659-2.315 6.409-2.756-1.101-1.844-3.099-3.504-4.493-4.036l2.633-4.898c4.697 3.381 9.476 10.409 9.476 16.596 0 2.592-.661 4.436-2.12 5.921-1.358 1.393-3.085 1.998-5.778 1.998-4.385 0-7.903-3.556-8.021-8.124m5.526.594c0 2.142 1.03 3.545 2.571 3.545 1.461 0 2.444-1.403 2.444-3.545 0-1.731-.215-3.001-.963-4.302-2.54.041-4.052 1.639-4.052 4.302m17.825 7.171c-1.106 0-2.063.022-2.694.104l-1.562-11.946c2.981-.113 6.413-.542 6.413-3.064 0-2.497-3.529-3.686-6.475-3.686h-.332l.737-5.194c8.067 1.228 12.426 5.931 12.426 9.783 0 2.612-.875 5.695-7.975 6.709l.645 2.603 7.073-.697.345 5.686c-1.532-.113-5.599-.298-8.601-.298m-37.504-3.586 5.214-.286-.297-19.627h4.867l.286 23.397-8.267.206z" style="fill:url(#n);stroke:none" transform="matrix(1.33333 0 0 -1.33333 0 691.853)"/><g clip-path="url(#o)" transform="matrix(1.33333 0 0 -1.33333 0 691.853)"><g clip-path="url(#p)" style="opacity:.5"><path d="m0 0-8.717-5.111-5.906 10.162-9.538-5.552a18.8 18.8 0 0 1 4.042-4.713 30.5 30.5 0 0 1 5.208-3.483l-4.47-8.646a36 36 0 0 0-8.237 5.359 30.6 30.6 0 0 0-6.203 7.528 31 31 0 0 0-2.084 4.374 27.7 27.7 0 0 0-1.306 4.723 23 23 0 0 0-.339 4.907c.067 1.649.323 3.258.763 4.866.528 1.803 1.204 3.421 2.055 4.846a21.4 21.4 0 0 0 3.001 3.882 32 32 0 0 0 3.816 3.196c1.373.994 2.848 1.927 4.42 2.858l4.293 2.469 4.753-6.874-5.373-3.135c-2.336-1.362-4.067-2.715-5.209-4.088-1.127-1.361-1.906-2.663-2.321-3.912-.43-1.25-.573-2.418-.486-3.545.097-1.106.19-2.059.328-2.899l8.687 5.061-3.77 6.464 8.728 5.08z" style="fill:#36312f;fill-opacity:1;fill-rule:nonzero;stroke:none" transform="translate(181.907 369.794)"/><path d="m0 0 12.19 5.367 1.204-8.615-19.29-8.492-14.993 34.061 9.277 4.068z" style="fill:#36312f;fill-opacity:1;fill-rule:nonzero;stroke:none" transform="translate(191.558 383.338)"/><path d="m0 0-14.285-4.354 1.7-5.603L.327-6.044l.16-8.584-10.675-3.248 2.633-8.656c.256-.84.532-1.659.83-2.5a8.7 8.7 0 0 1 1.269-2.315l-7.047-7.95a11.6 11.6 0 0 0-2.347 3.392 30 30 0 0 0-1.48 3.902L-26.246.646l21.611 6.566z" style="fill:#36312f;fill-opacity:1;fill-rule:nonzero;stroke:none" transform="translate(224.508 416.661)"/><path d="m0 0-9.763-1.681L-11.71 9.68l-10.654-1.843a17.7 17.7 0 0 1 2.09-5.727 32.4 32.4 0 0 1 3.576-4.989l-7.043-6.392a34 34 0 0 0-5.726 7.745 29.7 29.7 0 0 0-3.131 9.046 30 30 0 0 0-.403 4.722 24.5 24.5 0 0 0 .414 4.794 22 22 0 0 0 1.357 4.61 20 20 0 0 0 2.382 4.2c1.092 1.486 2.264 2.714 3.514 3.728a20.6 20.6 0 0 0 4.107 2.551 29.5 29.5 0 0 0 4.601 1.639c1.597.431 3.277.789 5.029 1.087l4.784.839 2.039-7.96-6.014-1.034q-3.933-.677-6.182-1.967c-1.521-.881-2.679-1.823-3.488-2.807-.815-1.004-1.362-2.038-1.65-3.083a56 56 0 0 1-.696-2.777l9.696 1.66-1.234 7.233 9.753 1.68z" style="fill:#36312f;fill-opacity:1;fill-rule:nonzero;stroke:none" transform="translate(263.984 396.522)"/><path d="M0 0h-10.822v-28.878h-10.142V0h-10.828l2.387 8.4h27.034z" style="fill:#36312f;fill-opacity:1;fill-rule:nonzero;stroke:none" transform="translate(294.188 425.759)"/><path d="m0 0-15.156 2.735-.954-5.347 13.768-2.489-3.763-7.734-11.469 2.058-1.154-6.361 16.187-2.92-3.779-7.724-23.711 4.241 6.494 36.202L-.841 8.574z" style="fill:#36312f;fill-opacity:1;fill-rule:nonzero;stroke:none" transform="translate(323.497 421.517)"/><path d="m0 0-9.374 3.564 6.014 15.828-9.861 3.75-4.164-10.911a39 39 0 0 1-.866-2.509 8.6 8.6 0 0 1-.435-2.613l-10.495-1.987a11.7 11.7 0 0 0 .236 4.149 27 27 0 0 0 1.218 3.995l12.222 32.116 9.39-3.596-4.155-10.869 9.871-3.771 4.143 10.901 9.394-3.585z" style="fill:#36312f;fill-opacity:1;fill-rule:nonzero;stroke:none" transform="translate(350.388 382.661)"/><path d="m0 0-13.496 7.212-2.827-5.307 12.175-6.484-6.089-6.341-10.072 5.367-4.358-8.184a68 68 0 0 1-1.204-2.417 8.4 8.4 0 0 1-.752-2.582l-10.864-.666c.02 1.444.26 2.838.758 4.148a33 33 0 0 0 1.731 3.894l16.463 30.834 20.4-10.879z" style="fill:#36312f;fill-opacity:1;fill-rule:nonzero;stroke:none" transform="translate(406.78 389.873)"/><path d="m0 0-1.444.942c-2.695 1.803-4.815 3.934-6.371 6.413-1.564 2.499-2.573 5.122-3.034 7.888-.451 2.767-.378 5.573.205 8.411.605 2.806 1.727 5.46 3.36 7.939a18.1 18.1 0 0 0 3.627 4.026 12.2 12.2 0 0 0 4.671 2.387c1.711.461 3.606.481 5.681.081 2.058-.409 4.286-1.402 6.659-3.001l6.49-4.292-2.618-8.165-6.485 4.293c-.425.297-.993.625-1.726 1.024a5.9 5.9 0 0 1-2.439.698c-.89.081-1.863-.104-2.857-.565-1.025-.472-2.008-1.402-2.966-2.838-1.04-1.567-1.706-3.216-2.028-4.968a12.3 12.3 0 0 1 .164-5.286c.424-1.73 1.264-3.431 2.515-5.081 1.239-1.649 2.95-3.083 5.101-4.323Z" style="fill:#36312f;fill-opacity:1;fill-rule:nonzero;stroke:none" transform="translate(411.447 351.284)"/></g></g><path d="m290.403 397.977 23.72-4.241 3.77 7.723-16.175 2.92 1.147 6.361 11.469-2.058 3.758 7.735-13.767 2.489.959 5.346 15.165-2.734-.85 8.574-22.697 4.087zm-28.684 36.182-2.376-8.401h10.823V396.88h10.146v28.878h10.818l-2.376 8.401zm-12.385-2.786a54 54 0 0 1-5.04-1.087 29.4 29.4 0 0 1-4.59-1.639 20.3 20.3 0 0 1-4.102-2.551 19.6 19.6 0 0 1-3.529-3.728c-.963-1.322-1.762-2.694-2.367-4.2a20.8 20.8 0 0 1-1.362-4.61 24.6 24.6 0 0 1-.42-4.794c.005-1.609.138-3.166.42-4.722a29 29 0 0 1 3.12-9.046 33.7 33.7 0 0 1 5.716-7.746l7.058 6.393a31.7 31.7 0 0 0-3.581 4.99 17.8 17.8 0 0 0-2.1 5.726l10.654 1.843 1.947-11.361 9.763 1.681-4.586 26.636-9.751-1.682 1.234-7.232-9.692-1.66c.175.81.401 1.721.698 2.777.282 1.045.834 2.079 1.649 3.082.799.985 1.972 1.927 3.478 2.807 1.501.861 3.57 1.517 6.187 1.968l6.009 1.034-2.024 7.959zm70.265-35.446a30 30 0 0 1-1.22-3.994 11.6 11.6 0 0 1-.22-4.149l10.495 1.987q.01 1.368.425 2.612c.256.86.559 1.691.865 2.51l4.16 10.91 9.866-3.75-6.019-15.827 9.373-3.565 13.138 34.462-9.394 3.586-4.132-10.901-9.881 3.771 4.159 10.868-9.398 3.597zm-124.401 21.38 9.933-32.649a28 28 0 0 1 1.464-3.902 11.6 11.6 0 0 1 2.347-3.391l7.052 7.95a8.5 8.5 0 0 0-1.269 2.314 53 53 0 0 0-.835 2.5l-2.622 8.656 10.673 3.249-.169 8.584-12.903-3.913-1.71 5.603 14.291 4.353-4.641 7.212zm-27.587-11.647 14.993-34.062 19.284 8.492-1.198 8.616-12.196-5.368-11.606 26.389zm201.107-27.147a38 38 0 0 1-1.73-3.893 12.4 12.4 0 0 1-.754-4.149l10.87.666c.113.922.364 1.762.748 2.582.385.82.782 1.628 1.199 2.417l4.369 8.185 10.074-5.368 6.08 6.341-12.18 6.485 2.843 5.306 13.481-7.211 1.87 8.594-20.401 10.879zm-213.353 20.478c-1.587-.932-3.057-1.865-4.431-2.859a30.6 30.6 0 0 1-3.816-3.197 21 21 0 0 1-3.001-3.881c-.851-1.425-1.526-3.043-2.048-4.846a20.5 20.5 0 0 1-.765-4.866c-.055-1.64.036-3.258.343-4.907a26 26 0 0 1 1.292-4.723 31 31 0 0 1 2.09-4.374 30.3 30.3 0 0 1 6.218-7.528 35.3 35.3 0 0 1 8.23-5.358l4.467 8.645a30.4 30.4 0 0 0-5.214 3.483 19.1 19.1 0 0 0-4.046 4.713l9.537 5.552 5.911-10.162 8.712 5.112-13.859 23.816-8.723-5.079 3.759-6.464-8.682-5.062c-.133.84-.231 1.793-.328 2.899-.087 1.128.051 2.295.487 3.545.415 1.25 1.188 2.551 2.32 3.913 1.137 1.373 2.874 2.725 5.204 4.088l5.388 3.134-4.763 6.874zm254.039-9.701a12.14 12.14 0 0 1-4.661-2.387 18 18 0 0 1-3.637-4.027c-1.634-2.478-2.762-5.133-3.355-7.938-.584-2.838-.65-5.645-.204-8.411.46-2.767 1.463-5.389 3.017-7.888 1.571-2.479 3.677-4.61 6.381-6.413l1.44-.942 6.504 5.582c-2.151 1.24-3.857 2.674-5.096 4.324-1.25 1.65-2.085 3.35-2.521 5.081a12.4 12.4 0 0 0-.162 5.286c.326 1.752.998 3.4 2.032 4.968.958 1.435 1.942 2.366 2.966 2.838.999.46 1.962.645 2.869.564a5.9 5.9 0 0 0 2.422-.698c.737-.398 1.307-.727 1.721-1.024l6.49-4.293 2.617 8.166-6.479 4.291c-2.382 1.599-4.605 2.592-6.664 3.002q-1.464.282-2.81.283-1.516.001-2.87-.364" style="fill:url(#q);stroke:none" transform="matrix(1.33333 0 0 -1.33333 0 691.853)"/></svg>