<svg xmlns="http://www.w3.org/2000/svg" xml:space="preserve" width="282.843" height="353.553" viewBox="0 0 148.161 185.206"><path d="M678.98 446.81c-.62-7.28-1.48-14.48-2.66-21.68-1.72-10.38-3.83-20.6-6.72-30.74-6.1-21.68-14.53-42.2-25.4-61.48a289 289 0 0 0-27.59-40.42c-23.68-28.88-51.97-52.18-84.95-69.76-16.02-8.59-32.59-15.49-49.86-20.67-9.61-2.94-19.38-5.34-29.38-7.12-5.7-1.08-11.49-1.86-17.27-2.71-3.2-.46-6.49-.7-9.69-1.01-4.92-.39-9.77-.93-14.69-1.08-12.74-.31-25.4-.23-38.14 1.24-4.84.54-9.61.93-14.38 1.7-8.83 1.39-17.58 3.1-26.26 5.26-4.45 1.08-8.91 2.32-13.28 3.64-16.49 4.95-32.35 11.46-47.59 19.43-25.16 13.08-47.83 29.65-67.91 49.63-18.75 18.66-34.46 39.18-47.04 61.63-7.89 14.01-14.53 28.72-19.93 44.21-1.33 3.79-2.58 7.74-3.83 11.54-.23.7-.55 1.39-.16 2.17.31.08.55.23.86.23 1.09 0 2.27.08 3.44.08h218.5c1.25 0 2.58 0 3.83.08.94 0 1.41.39 1.56 1.32.08.54.16 1.16.16 1.78v34.84c-.16 1.01-.47 1.32-1.48 1.39-1.95.08-3.91.23-5.86.23h-226.7c-.63 0-1.25 0-1.8.08-1.17.08-1.41.31-1.72 1.39-.08.31-.16.62-.16.93-.47 4.65-1.09 9.21-1.48 13.86-.31 3.87-.39 7.82-.63 11.69-.08 1.55-.16 3.17-.78 4.65v14.4c.7 1.39.78 2.86.86 4.34.31 8.75 1.17 17.5 2.27 26.25 1.48 11.23 3.67 22.38 6.64 33.29.7 2.63 1.41 5.19 2.19 7.82 14.77 49.71 41.5 92.37 80.18 127.83 15.08 13.78 31.26 25.63 48.53 35.54 19.15 10.99 39.62 19.67 61.35 26.17 15.01 4.49 30.4 7.51 45.95 9.29 6.64.77 13.28 1.24 19.93 1.63 10.08.54 20.08.31 30.16-.31 7.89-.46 15.71-1.32 23.44-2.48 9.69-1.39 19.22-3.33 28.68-5.73 20.16-5.11 39.38-12.62 57.91-22.07 4.14-2.09 8.13-4.26 12.11-6.58 20.86-12 39.93-26.48 57.05-43.59 29.07-29.03 51.11-62.64 65.33-101.19 1.95-5.19 3.6-10.53 5.31-15.79.31-.93.7-1.86.16-2.86-.7-.39-1.41-.39-2.19-.39H441.81c-.86-.15-1.33-.7-1.41-1.47-.08-.85-.08-1.63-.08-2.48v-31.75c0-1.08-.08-2.24.7-3.25 1.17-.46 2.5-.23 3.75-.23h229.9c2.66-.08 2.89-.23 3.2-2.94.23-2.09.55-4.18.78-6.27.39-4.26.86-8.52 1.09-12.77.23-5.42.23-10.84.23-16.18 0-8.21 0-16.34-.63-24.54h-.36zM518.94 627.68c1.17 0 2.42 0 3.59.08.63 0 .86.7.39 1.16-.39.39-.78.77-1.17 1.08-.78.62-1.56 1.24-2.34 1.78-12.11 8.9-24.85 16.41-38.29 22.45-10.71 4.8-21.96 8.67-33.6 11.46-6.96 1.7-14.07 2.94-21.18 3.95-11.49 1.55-23.05 1.94-34.62 1.47-7.81-.31-15.55-1.01-23.29-2.17-17.27-2.71-33.84-7.59-49.62-14.71-3.36-1.47-6.72-3.18-10-4.88-22.9-11.92-43.06-27.33-59.86-46.92-21.49-24.93-36.26-53.35-44-85.32-.39-1.63-.7-3.25-1.02-4.88-.08-.46-.16-.85-.16-1.32 0-.77.39-1.24 1.17-1.39.39 0 .7-.08 1.09-.08h152.86c.86.08 1.25.39 1.41 1.24.08.54.16 1.16.16 1.78v109.71c0 1.63-.16 3.33.31 5.11.62.08 1.17.23 1.72.23h156.45Zm-74.08-196.97c-1.09 0-2.27 0-3.36-.16-1.09-.08-1.41-.46-1.49-1.63V315.11c0-.46 0-.93-.08-1.32-.16-.77-.47-1.16-1.33-1.24-1.09-.08-2.27-.16-3.36-.16H283.09c-1.56 0-3.2-.15-4.77-.23-.39 0-.7-.15-1.25-.31.16-.39.08-.85.31-1.01.7-.7 1.48-1.32 2.27-1.86 4.85-3.79 10.08-7.2 15.32-10.45 18.99-11.77 39.31-20.13 61.11-25.09 6.64-1.47 13.36-2.55 20.08-3.41 3.44-.39 6.96-.7 10.47-.93 7.42-.46 14.93-.54 22.43-.31 1.64 0 3.28.16 4.92.31 2.58.15 5.16.46 7.74.7 6.33.7 12.58 1.7 18.83 2.94 16.41 3.33 32.04 8.75 47.04 16.03 42.12 20.28 77.99 56.98 97.29 102.82 3.52 8.28 6.49 16.88 8.83 25.78.86 3.25 1.64 6.58 2.42 9.83.24 1.01.31 2.01.16 3.33-.86.16-1.49.23-2.19.31H444.91zm65.29-379.92c-1.11-.55-2.3-.63-3.26.24-1.03.87-1.91 1.73-2.86 2.68-8.18 8.19-16.37 16.3-24.63 24.49-12.32 12.2-24.63 24.41-36.87 36.61-.64.63-1.27 1.34-1.91 1.97-2.46 2.83-2.38 6.93.32 9.53 2.38 2.28 4.69 4.57 7.07 6.93 1.75 1.65 3.81 2.05 6.2 1.65 1.51-.24 2.7-1.02 3.73-2.13 2.07-2.05 4.13-4.09 6.28-6.06.64-.63 1.35-1.18 2.15-1.73.24-.16.56-.16.95-.24v1.26c-.24 1.26-.48 2.52-.8 3.78-2.7 10-5.48 20-8.18 30-.16.47-.24.87-.4 1.34-.32.71-.87.87-1.51.39-.32-.31-.64-.63-1.03-.94-12.24-12.13-24.55-24.25-36.79-36.38-.4-.39-.87-.87-1.19-1.34-.4-.47-.4-1.02 0-1.5.56-.63 1.11-1.26 1.67-1.89 6.75-6.69 13.51-13.39 20.34-20 1.27-1.26 1.83-2.52 1.75-4.17-.08-2.28 0-4.57 0-6.85V57.72c0-3.94-1.83-6.3-5.64-7.32-.32-.08-.56-.24-.79-.39h-69.76c-.48.16-1.03.31-1.51.47-1.27.24-2.3.87-3.18 1.73-1.43 1.42-2.15 3.07-2.07 5.12v37.79c0 1.81.56 3.15 1.91 4.41 6.91 6.69 13.67 13.46 20.5 20.16.4.39.87.87 1.27 1.34.56.71.56 1.34-.08 2.05-.4.39-.72.79-1.11 1.18-10.73 10.63-21.45 21.26-32.18 31.89-1.59 1.57-3.18 3.15-4.77 4.65-.4.39-.95.71-1.43 1.1-.95-.63-1.03-1.42-1.27-2.2-1.51-5.59-3.1-11.18-4.61-16.77s-2.94-11.18-4.37-16.85c-.16-.55-.48-1.18 0-1.73.88-.16 1.27.47 1.75.94 2.22 2.13 4.37 4.33 6.6 6.46.87.79 1.67 1.57 2.62 2.2 2.3 1.73 6.28 1.42 8.1-.47 2.62-2.6 5.24-5.12 7.87-7.72.48-.55.95-1.18 1.19-1.89.8-2.28.64-4.49-.87-6.54-.72-.94-1.51-1.73-2.3-2.52-20.74-20.63-41.56-41.26-62.38-61.89-.4-.47-.87-.87-1.27-1.26-1.27-1.1-2.78-1.42-3.97-.71-1.19.63-1.67 1.89-1.27 3.62.24.94.48 1.89.72 2.91 10.41 38.42 20.74 76.93 31.07 115.35.24.94.48 1.97 1.19 2.76 1.19.39 2.38.16 3.58-.16 1.35-.39 2.62-.87 3.97-1.1 4.69-1.02 9.3-2.13 13.98-2.99 6.28-1.1 12.55-2.05 18.91-2.99 2.38-.31 4.77-.47 7.15-.71 1.51-.16 2.86-.71 3.97-1.65.56-.47 1.11-1.02 1.67-1.57 7.47-7.48 15.02-14.96 22.49-22.44.56-.55 1.19-1.18 1.83-1.73 1.03-.94 1.59-.94 2.62 0 1.27 1.18 2.54 2.44 3.81 3.7 7.23 7.17 14.46 14.41 21.61 21.57 1.27 1.26 2.62 1.97 4.45 2.13 5.72.55 11.44 1.18 17.16 2.2 6.04 1.02 12.16 2.05 18.12 3.46 3.5.87 6.99 1.73 10.57 2.52 1.83.39 2.07.24 2.62-1.57.4-1.34.79-2.76 1.19-4.17 8.42-31.26 16.85-62.44 25.35-93.7 1.75-6.54 3.5-13.07 5.24-19.68.32-1.02.48-2.13.56-3.15.16-1.1-.4-1.97-1.35-2.44zm-108.94 52.83s-.56.55-.87.71c-.4.31-.87.31-1.27 0s-.87-.63-1.19-1.02c-4.93-4.8-9.77-9.68-14.7-14.49-.8-.79-1.19-1.65-1.19-2.83.08-3.07 0-6.06 0-9.13v-1.1c.16-1.1.48-1.5 1.59-1.65h29.72c.95 0 1.83.08 2.78.24.72.08 1.11.55 1.19 1.26v11.26c0 .79-.32 1.42-.95 1.97-5.08 4.96-10.09 10-15.18 15.04z" style="fill:#9b012a" transform="translate(-31.747 -13.232)scale(.26458)"/></svg>