<svg xmlns="http://www.w3.org/2000/svg" viewBox="0 0 84.67 82.51"><path d="M502.754 80.184c-23.652 4.222-39.367-14.243-62.07-4.243-12.79 11.805-8.914 29.106-14.153 44.59.024 9.465-14.097 17.574-6.601 26.485 20.425 21.25 26.816 52.8 55.59 66.843-14.32 6.11-21.383 7.52-27.028 6.11 12 10.59 22.59 47.304 36.68 56.117-5.586 3.625-19.766 2.23-26.094 3.894 10.594 10.59 15.211 28.07 18.133 41.579 2.637 13.507 3.016 22.351-6.832 32.55-4.242-.21-4.399-8.273-9.18-7.058-.379 13.883-19.062 43.77-17.648 61.422-8.473-9.18-13.145-9.418-13.145-9.418-2.851 14.597-7.129 28.652-12.82 42.168-4.48 2.48-9.344-1.246-14.281-1.016-4.95 15.762-1.41 24.75 2.12 40.988-29.655 2.118-43.777-13.418-52.245-27.535-24.004 12.707-24.711 33.184-21.887 55.07-16.945-4.238-27.328-7.054-34.117-15.832-5.238-8.664-7.528-18.511-6.59-29.687-7.055.55-14.477 4.21-20.91 7.71-3.906 2.895-4.965 6.727-5.317 10.97.137 7.906 5.332 14.308 6.582 20.925-25.242 2.278-49.382-5.351-65.546-25.261-11.641-3.61-23.473-9.758-30.875-21.211-2.79 14.969-33.782 46.547-63.504 42.5 13.484-24.192 15.132-38.547 15.797-57.203-20.032 3.547-22.153 29.672-63.805 36.023 8.469-37.422-7.766-81.191 7.058-98.844-10.59-7.765-40.082 16.688-54.714 19.77-.594-17.926 3.496-33.582 10.14-49.375 5.738-11.117 19.125-20.957 11.668-35.512-3.758-12.926-18.465-22.273-28.367-31.418 3.898-2.894 16.32-3.394 11.926-12.355C15.914 261.68 6.906 255.2 0 247.977c15.352-5.762 15.352-7.032 24.563-19.75 11.445-40.692 20.816-46.743 47.05-64.852-16.531-24.16-5.406-70.629-11.406-82.527C47.031 62.012 22.578 68.934 6.805 55.227c1.894-4.551-1.711-8.868-1.516-14.094 6.035-1.942 4.063-9.817 9.945-12.461-1.644-5.336 5.41-5.742 4.473-10.953 2.512-1.598 6.176-2.082 7.387-5.492-1.059-3.938-.84-7.754 1.789-10.907 2.91-3.16 6.496.028 9.61.535 11.327 9.692 15.796 23.028 29.605 29.286 21.797-5.325 48.035-6.914 67.851 3.617 20.172 6.988 35.89 25.496 58.098 27.37 13.812-1.51 28.367-1.062 41.402 1.395 16.055-2.68 31.973-4.796 48.672-2.968 32.242-5.364 54.484-33.996 87.469-37.399 19.8-6.277 39.273.727 57.156 5.782 14.016 2.156 20.09-14.192 32.93-14.836 12.8-2.91 27.363-1.75 38.613 3.418.973 7.328-11.11 18.976 1.117 23.707 1.86 1.238 4.528.343 6.79.586 1.187 3.226-4.364 8.832 1.613 11.414-.239 2.687 1.629 4.347 3.5 6.152 3.25.367 7.742-1.125 8.808 3.234-1.12 8.492-11.488 15.735-19.363 17.57" style="fill:#1e170f;fill-opacity:1;fill-rule:evenodd;stroke:none" transform="translate(0 .01)scale(.16216)"/><path d="M505.02 70.215c-26.602 13.316-48.758-18.356-74 .02-16.56 14.128-8.516 37.995-15.973 55.78-1.14 7.505-10.375 12.47-11.809 19.27 24.7 15.527 31.278 48.457 52.461 67.52-14.12-3.528-38.832-2.118-61.07-18.645 9.598 23.98 37.031 17.996 49.383 37.832 11.34 10.395 12.722 25.055 19.015 37.656-11.836 1.622-19.547-11.378-30.062-15.148-10.215-2.79-29.48-14.316-29.48-14.316 7.613 15.402 22.273 30.257 38.613 35.902 18.75 14.223 25.48 35.71 25.441 57.883-14.066-4.84-17.059-22.719-31.7-27.973-9.175.16-19.679-6.351-26-17.203-2.667 25.187 31.497 24.45 38.09 46.227 9.684 20.87-6.679 38.105-11.867 56.414-3.675-.223-4.89-5-6.355-8.082-1.77-12.395-6.363-24.887-18.77-31.446-9.203-1.539-16.238-8.05-23.953-13.14 2.559 17.043 25.121 23.425 30.5 40.14 4.23 15.742-4.523 48.235-5.937 48.262-5.242-9.09-3.477-21.125-12.64-28.309-8.262-4.375-18.934-8.847-22.778-18.523l-1.234 2c.886 18.48 28.976 25.758 23.125 46.336-4.704 13.926-9.485 31.238-3.29 46.238-5.351.942-10.09-3.637-14.933-5.95-20.813-10.937-14.59-34.913-31.348-48.175-.34-3.383-1.941-6.183-4.25-8.824-3.586 7.707 5.512 24.473 3.238 31.86-1.199 12.167-19.082 14.878-23.96 26.827l-3.809 16.309c-13.211-12.48-12.453-33.68-9.64-50.676-1.54-7.176-17.673-25.254-21.391-19.96 7.312 6.507 9.492 18.05 6.554 27.706-4.714 12.934-25.152 14.723-35.058 21.532-2.867 7.425-7.77-10.594-5.899-37.766-2.578 17.293-16.699 22.941.536 63.117-12.454-1.617-22.118-13.168-24.86-24.703-4.242-16.45.617-37.293-15.808-47.879-2.504 2.02.09 4.942.132 7.48-3.898 11.227-3.804 24.782 3.29 34.544l.82 6.765c-15.547-1-29.992-11.199-38.414-24.469-4.848-10.648-5.817-25.601-2.63-37.238-.726-1.258-2.265-.383-3.398-.648-14.547 16.074-.23 43.504-13.922 59.984-3.414 6.695-27.511 22.563-35.406 23.406 14.121-21.18 2.117-54.363 13.961-86.722-.48-3.243 1.004-7.223-1.437-9.578-9.403 11.46-13.664 26.082-18.938 39.73-3.172 4.152-8.558 3.117-12.176 6.285-6.558 12.547-18.64 24.336-31.289 27.664 2.149-6.254 3.399-15.453 3.563-22.375 2.629-19.258-7.281-36.734-2.219-54.191 3.129-14.887 19.86-11.082 26.738-21.512-4.453-4.3-11.656-4.316-17.754-5.766-21.75-.183-44.89 14.883-62.82 23.387-2.715-27.597 45.414-65.87 41.723-67.078-11.348-2.91-23.664-12.723-28.239-23.941 8.575-2.407 16.227-.703 22.895-7.176 5.426-4.754 8.86-10.18 12.008-15.887-2.18-3.492-4.211 1.488-6.766.824-17.738 3.133-33.836-4.773-44.39-18.855l-.059-3.387c11.422-1.047 27.797 6.719 37.215-4.039 11.113-10.504 15.754-27.672 31.207-32.46 1.379-2.005 4.887-3.192 3.984-6.145-3.746-4.594-5.594 2.925-8.687 3.543-19.703 4.156-28.739 28.464-49.625 29.394-1.844-8.726 7.511-14.676 9.773-22.625 3.61-19.836 17.797-40.277 36.988-49.37-8.914-25.122-1.703-48.974-2.597-75.93-1.223-13.399-9.945-27.649-23.567-31.368-9.754-.394-18.144-3.636-26.671-7.02.94-2.554 5.511.329 4.738-3.468-2.426-1.371-5.297-4.145-6.176-5.969 1.5-3.129 4.094-.066 6.07-.105 1.805-1.727-.48-3.239-.789-4.785l5.492-.801c1.098-1.86-1.898-3.5-2.917-5.317-.852-.41-.586-1.261-.602-2.109 7.633.29 9.91 9.43 16.465 12.703l1.953-1.445c-3.777-5.863-14.602-11.184-12.512-20.824 6.11 2.152 11.192 9.972 17.192 13.964 6.617 6.946 18.984 3.48 27.152 2.207 22.418-2.085 44.91-.078 61.273 15.172 19.114 18.875 44.164 30.157 70.149 21.938 14.054-4.059 22.054 9.36 36.07 3.324 8.692-3.824 22.235-4.625 31.063-.543 37.257 6.832 54.945-31.605 86.172-38.785 26.18-5.117 56.156-2.957 77.476 12.91 9.328-20.262 22.434-30.14 38.98-28.734 2.56.941-.042 11.86-.015 13.414-7.047 2.117-18.344 4.941-26.883 11.719 2.125.386 27.027-5.133 27.027-5.133-1.125.304-4.207 1.77-3.886 4.023 1.863 1.52 6.633-.258 9.484 1.246-1.375 2.14-5.77 1.23-6.707 4.211 2.461 3.348 11.531 5.168 11.531 5.168-1.382 1.719-3.16 5.137-.445 6.785 2.61 3.907 9.488 1.532 10.27 5.895" style="fill:#fac705;fill-opacity:1;fill-rule:evenodd;stroke:none" transform="translate(0 .01)scale(.16216)"/><path d="M458.676 60.855c.125-.992-1.153-1.39-.75-2.671 8.62.414 18.66 1.226 26.636 5.043 1.555.253 3.797-.914 4.68 1.187-10.262 2.723-19.023-5.738-30.566-3.559M483.031 56.477c-7.21-.582-14.316-3.141-21.765-1.036-2.77-4.75 4.3-4.308 6.078-7.59 1.55 7.743 12.355 3.88 15.687 8.626M408.863 79.379c-11.187 14.316-.75 37.86-18.062 49.18.738 1.82-1.383 1.855-2.07 2.714 4.289 11.227 5.5 23.774 12.874 33.672-.253 1.7.77 3.801-1.328 4.825-13.867-9.641-5.543-34.22-26.386-38.942-8.403-4.23-16.403-9.457-23.996-15.82-25.012-.555-42.704-24.125-62.43-37.903l9.457-.168c7.414 12.301 22.355 15.727 31.719 26.297 10.879.235 15.582-13.546 24.695-17.379 16.613-11.023 35-17.558 51.766-28.02-3.997-2.19-9.915-1.382-14.274-.456-19.566 11.64-42.086 16.27-60.473 30.855-1.132-.406-2.023-2.789-.773-4.082 15.43-13.968 37.344-12.797 52.48-27.328 9.551-2.847 20.649-6.433 31.157-3.226.383 5.925 6.785 8.496 11.527 5.168 3.09-1.043 5.586-3.63 9.414-2.848-4.61 11.094-19.855 11.504-25.297 23.46" style="fill:#1e170f;fill-opacity:1;fill-rule:evenodd;stroke:none" transform="translate(0 .01)scale(.16216)"/><path d="M398.516 109.355c-3.508 1.473-8.434 2.41-9.344 6.946-1.793 2.43-6.145 3.777-9.418 2.281-2.008-1.66-3.45-3.473-2.79-6.023 8.872-1.426 9.391-12.168 16.645-17.239 1.004-7.078 4.543-14.765 11.13-17.847l2.116-.036c-7.77 8.043-6.84 20.739-8.34 31.918" style="fill:#fad105;fill-opacity:1;fill-rule:evenodd;stroke:none" transform="translate(0 .01)scale(.16216)"/><path d="M3985.156 3993.745c-35.078-14.726-84.336-24.101-93.437-69.453-17.93-24.297-61.446-37.773-94.18-22.812-20.078 16.601-34.492 34.726-27.89 60.234 88.71 14.258 93.906 121.68 166.445 172.383 10.039 70.781 45.43 147.656 111.289 178.476l21.172.352c-77.696-80.43-68.399-207.383-83.399-319.18zm0 0" style="fill:none;stroke:#fad105;stroke-width:8;stroke-linecap:butt;stroke-linejoin:miter;stroke-miterlimit:3.8637;stroke-opacity:1" transform="matrix(.01622 0 0 -.01622 0 82.505)"/><path d="M396.633 308.797c-6.363-.313-4.254-8.961-7.711-12.86-5.508-7.949-14.809-15.132-11.336-26.207-6.145-4.27-12.426-7.972-19.79-9.12-3.991 5.863-5.14 12.94-9.843 18.53 13.985 8.094 30.281 19.528 39.863 34.47-5.796-.462-10.175-8.575-15.742-11.868-8.73-6.77-18.594-13.515-28.836-17.855-3.625 2.746-6.332 9.574-11.32 6.976-1.469-3.222 3.574-5.715 4.508-8.832-17.063-6.625-36.403-14.195-54.985-10.62.852-7.927 15.426-6.345 15.426-6.345 2.094-2.84 3.797-1.058 6.063-.812-.84.719-.961 1.851-1.227 2.703 12.887 2.035 24.957 5.922 37.442 8.953 3.293-5.426 4.597-11.52 5.761-17.754-12.308-1.34-25.324-2.523-38.004-.75 10.094 3.918 21.809 3.43 31.368 8.914l.039 2.118c-3.786 1.761-6.551-3.133-10.227-3.211-13.55.52-25.95-6.043-39.426-1.426-1.222-5.348-7.476.41-8.14-5.23-.047-2.68 2.683-8.094-2.27-8.716-1.848-.39-4.117-1.199-4.723-3.304.125-1.133-.609-2.672.649-3.403 10.855 6.872 19.215-7.535 30.363-8.015 9.13-2.844 19.578-2.883 27.528-8.672 1.492-3.555-3.993-2.332-2.082-6.035 6.667 1.719 10.765 9.84 19.05 7.152 1.547-8.5-6.468-14.574-10.543-21.566 3.098-.477 4.434 3.172 6.848 3.98 3.254-7.828-5.863-12.187-5.707-19.531 3.785-1.621 5.98 2.86 8.773 1.117.465 2.25 2.864 2.207 4.157 3.317.52-2.551-2.637-5.461-3.543-8.696-3.332-4.746-9.715-6.328-11.082-11.953 15.77 5.375 23.836 22.465 27.199 37.375l.3 16.942c7.778.71 15.204 5.382 19.825 11.234-7.266-3.688-15.074-5.95-23.824-5.656-1.934 2.574-5.512 8.004-8.817 4.812l-.57-.555c1.203 4.215 3.14 9.973 3.656 15.473 7.543 3.258 15.899 4.524 22.496 10.48.739-6.367-3.738-12.078-7.086-17.527.41-.996 2.243-1.027 2.684-.047 5.309 4.567 7.527 10.461 10.45 16.059 1.413.254 2.538-.188 3.366-1.332-.359-4.512-1.843-8.582-4.308-12.211l4.11.637c9.163 15.511-.071 36.433 9.097 52.09z" style="fill:#1e170f;fill-opacity:1;fill-rule:evenodd;stroke:none" transform="translate(0 .01)scale(.16216)"/><path d="M384.602 129.371c-15.282-1.57-23.934-19.777-39.618-20.351l-2.023-2.649c5.113-6.3 11.203-13.469 18.644-16 2.801 6.871-11.418 9.379-6.48 17.059 2.469 3.773 5.883 5.265 9.578 6.613 3.262.648 5.344-1.223 8.164-1.414-.066 4.238 2.403 8.008 6.25 10.059l11.567-.907c-1.364 2.848-3.004 5.98-6.082 7.59" style="fill:#fad105;fill-opacity:1;fill-rule:evenodd;stroke:none" transform="translate(0 .01)scale(.16216)"/><path d="M3846.016 3793.59c-152.813 15.702-239.336 197.773-396.172 203.515l-20.235 26.484c51.133 63.008 112.032 134.688 186.446 160 28.008-68.71-114.18-93.789-64.805-170.586 24.688-37.734 58.828-52.656 95.781-66.133 32.617-6.484 53.438 12.227 81.64 14.14-.663-42.382 24.024-80.077 62.5-100.585l115.665 9.063c-13.633-28.477-30.04-59.805-60.82-75.899zm0 0" style="fill:none;stroke:#fad105;stroke-width:8;stroke-linecap:butt;stroke-linejoin:miter;stroke-miterlimit:3.8637;stroke-opacity:1" transform="matrix(.01622 0 0 -.01622 0 82.505)"/><path d="M387.297 283.82c-3.277-1.632-3.297-2.761-4.07-6.703.953-2.133 1.968-.46 3.386-.058.742 2.101 2.344 4.617.684 6.761" style="fill:#fad105;fill-opacity:1;fill-rule:evenodd;stroke:none" transform="translate(0 .01)scale(.16216)"/><path d="M3872.969 2249.097c-32.774 16.328-32.969 27.617-40.703 67.031 9.53 21.328 19.687 4.61 33.867.586 7.422-21.016 23.437-46.172 6.836-67.617zm0 0" style="fill:none;stroke:#fad105;stroke-width:8;stroke-linecap:butt;stroke-linejoin:miter;stroke-miterlimit:3.8637;stroke-opacity:1" transform="matrix(.01622 0 0 -.01622 0 82.505)"/><path d="M376.598 91.52c-1.239 2-3.356 2.18-5.473 2.074-.93-4.645.535-9.614 5.316-10.965l4.649-.649c1.488 4.356-6.13 4.77-4.492 9.54" style="fill:#fad105;fill-opacity:1;fill-rule:evenodd;stroke:none" transform="translate(0 .01)scale(.16216)"/><path d="M3765.977 4172.105c-12.383-20-33.555-21.797-54.727-20.742-9.297 46.445 5.352 96.132 53.164 109.648l46.484 6.484c14.883-43.554-61.289-47.695-44.921-95.39zm0 0" style="fill:none;stroke:#fad105;stroke-width:8;stroke-linecap:butt;stroke-linejoin:miter;stroke-miterlimit:3.8637;stroke-opacity:1" transform="matrix(.01622 0 0 -.01622 0 82.505)"/><path d="M361.758 333.695c-.156-1.125.52-2.691-.766-3.375-3.113-.367-2.203 3.29-3.305 4.864 3.829 8.828 3.297 18.722 2.602 27.777-3.055-5.32-2.11-16.07-9.2-17.496-2.706 6.543-7.554 12.137-12.538 17.87 1.89-4.835 3.996-13.91 1.054-20.355-6.925 7.47-9.3 17.25-16.523 24.016-.5-4.226 6.223-7.453 1.773-11.613-6.386 6.187-12.785 9.683-20.789 12.226-18.644-.242-35.027 2.309-51.507-3.48-18.137-3.492-36.133 1.058-51.414 7.68-13.774 3.629-25.325-2.524-38.047-3.43-5.825-1.879-7.36-8.91-13.075-12.625-.039-2.262-2.488-5.04-4.222-7.41-3.82-16.598-3.547-33.27 3.949-48.793 5.98-13.52 20.324-.637 31.707-3.942 26.219 5.192 38.527-25.812 64.082-18.066 23.18 9.2 46.398 28.703 74.137 15.652 9.761 9.153 10.976 22.121 12.187 34.95 2.41.523 2.219-2.293 3.328-3.446-.132-7.625 2.954-11.64-2.34-27.879 3.176 6 5.422 10.172 5.422 10.172 1.364-2.707-1.66-14.094-1.66-14.094 1.696-.027 4.617 5.57 6.918 7.93l.531-10.176c9.965 10.407 1.68 23.551 14.083 30.258 2.539-8.379-4.485-14.187-6.446-21.496 19.738 6.297 9.852 30.332 17.719 44.32-3.535-.222-6.457-5.964-7.66-10.039" style="fill:#1e170f;fill-opacity:1;fill-rule:nonzero;stroke:none" transform="translate(0 .01)scale(.16216)"/><path d="M359.102 221.895c-.559.292-.856-.266-1.282-.543l.036 1.976c-5.227-8.098-6.434-20.644-12.77-27.598 5.098.758 8.703 5.075 11.039 9.27 2.05 4.34 2.027 11.262 2.977 16.895" style="fill:#fad105;fill-opacity:1;fill-rule:nonzero;stroke:none" transform="translate(0 .01)scale(.16216)"/><path d="M3591.016 2868.355c-5.586-2.93-8.555 2.656-12.813 5.43l.352-19.766c-52.266 80.976-64.336 206.445-127.696 275.976 50.977-7.578 87.032-50.742 110.391-92.695 20.508-43.398 20.273-112.617 29.766-168.945zm0 0" style="fill:none;stroke:#fad105;stroke-width:8;stroke-linecap:butt;stroke-linejoin:miter;stroke-miterlimit:3.8637;stroke-opacity:1" transform="matrix(.01622 0 0 -.01622 0 82.505)"/><path d="M351.34 238.41a2579 2579 0 0 1-3.485-5.445c3.723-5.008 4.993 2.879 3.485 5.445" style="fill:#fad105;fill-opacity:1;fill-rule:nonzero;stroke:none" transform="translate(0 .01)scale(.16216)"/><path d="M3513.398 2703.198c-11.64 18.125-23.242 36.29-34.843 54.454 37.226 50.078 49.922-28.79 34.843-54.454zm0 0" style="fill:none;stroke:#fad105;stroke-width:8;stroke-linecap:butt;stroke-linejoin:miter;stroke-miterlimit:3.8637;stroke-opacity:1" transform="matrix(.01622 0 0 -.01622 0 82.505)"/><path d="M348.324 340.71c-1.566-8.87-6.219-16.554-1.719-25.67 6.782.019 3.672 8.124 5.575 12.046-.477 4.953-1.102 9.625-3.856 13.625" style="fill:#fad105;fill-opacity:1;fill-rule:evenodd;stroke:none" transform="translate(0 .01)scale(.16216)"/><path d="M3483.242 1680.19c-15.664 88.712-62.187 165.547-17.187 256.72 67.812-.196 36.718-81.25 55.742-120.47-4.766-49.53-11.016-96.25-38.555-136.25zm0 0" style="fill:none;stroke:#fad105;stroke-width:8;stroke-linecap:butt;stroke-linejoin:miter;stroke-miterlimit:3.8637;stroke-opacity:1" transform="matrix(.01622 0 0 -.01622 0 82.505)"/><path d="m308.234 252.723.465-5.516c9.727-1.156 21.586-1.367 30.496-.531l1.39-1.297c-9.714-6.328-23.519-4.39-35.366-3.48l-1.309-2.094c9.785-5.82 22.067-6.035 33.766-7.368 4.62 5.708 8.254 11.72 7.828 19.633z" style="fill:#fad105;fill-opacity:1;fill-rule:evenodd;stroke:none" transform="translate(0 .01)scale(.16216)"/><path d="m3082.344 2560.073 4.648 55.157c97.266 11.562 215.86 13.672 304.961 5.312l13.906 12.969c-97.148 63.281-235.195 43.906-353.671 34.805l-13.086 20.937c97.851 58.203 220.664 60.352 337.656 73.672 46.21-57.07 82.539-117.187 78.281-196.328zm0 0" style="fill:none;stroke:#fad105;stroke-width:8;stroke-linecap:butt;stroke-linejoin:miter;stroke-miterlimit:3.8637;stroke-opacity:1" transform="matrix(.01622 0 0 -.01622 0 82.505)"/><path d="m327.625 166.238 9.645 2.512c-2.778 2.594-7.61.84-10.883-.516-2.938-6.586-6.07-.035-9.446.871-.625 4.672-7.492 7.758-5.996 12.395-6.054 9.285-17.199 9.902-22.707 17.906 7.926.992 14.899-4.215 22.34-6.46 1.14.542.457 1.824.613 2.671-6.57 3.785-13.433 7.153-21.468 7.86-3.844 6.562-12.203 5.011-18.286 4.414-1.285-.684-3.687-.926-2.742-3.34 4.114.914 7.64.851 10.871-.192 1.246-1.574 1.625-3.98 3.309-4.859-4.691-1.613-10.059.938-14.484-1.668-1.594-2.371-3.618-5.023-6.88-5.953-.866-1.113-3.538-.363-2.73-2.637 9.531-3.836 8.668-15.601 18.067-19.437 4.464-2.903 2.82-8.239 6.011-11.543 3.625 13.496 19.578 5.168 29.235 8.246 9.008-1.852 16.363-9.324 24.222-12.004.329 2.68-4.57 5.305-7.363 6.906l12.152.496c-1.457 5.535-9.87.88-13.48 4.332M333.035 120.102c-5.504.378-11.293.48-13.652-5.266.844-.441.543-1.281.531-1.988 5.266 2.168 11.945 4.875 17.68 1.668.047 2.543-2.164 5.261-4.559 5.586M315.223 386.059c-7.543 4.933-19.203 8.382-27.766 3.168-7.066-.305-12.367 3.46-18.848 4.421 1.305-6.093 9.325-7.789 14.801-9.718 6.078.316 12.227 4.726 18.235 1.093-13.754-11.484-34.165.598-49.543-6.62-6.325 1.808-12.32 6.288-19.563 3.734-4.637 1.492-1.2-4.078-4.887-4.719-25.125 8.91-65.312 10.262-86.132-9.29l5.351 1.24c29.895 21.507 67.774-.903 102.504 6.398 13.59 2.023 30.027-2.922 41.996 3.222 7.863-2.68 13.223 4.856 19.649 1.067 6.046-1.512 11.437-8.246 16.812-7.774-2.02 5.543-7.723 10.582-12.61 13.778" style="fill:#1e170f;fill-opacity:1;fill-rule:evenodd;stroke:none" transform="translate(0 .01)scale(.16216)"/><path d="M300.281 185.637c.899-5.38-2.414-8.996-3.625-13.492l20.688-1.579c-2.145 6.536-11.043 11.86-17.063 15.07M282.566 335.79c-2.992-1.505-.351-4.095-.101-6.071 4.527-7.57 7.062-15.946 7.605-25.274l2.07-2.718c6.505.312 14.188-4.344 19.65 1.066-4.005 13.207-13.58 30.883-29.224 32.996M295.27 369.082c-6.5-.027-13.403-.66-18.415-4.668 7.665-5.781 18.766-9.082 24.102-18.781 5.195-1.785 7.027 6.094 11.016 8-1.844 7.656-10.11 13.215-16.703 15.449" style="fill:#fff;fill-opacity:1;fill-rule:evenodd;stroke:none" transform="translate(0 .01)scale(.16216)"/><path d="M302.738 253.383c-3.953.21-10.02.457-10.918-2.492-2.14-1.235-2.078 2.437-4.625 2.199 3.153-5.563 10.782-5.414 16.157-5.082z" style="fill:#fad105;fill-opacity:1;fill-rule:evenodd;stroke:none" transform="translate(0 .01)scale(.16216)"/><path d="M3027.383 2553.472c-39.531-2.11-100.195-4.57-109.18 24.922-21.406 12.344-20.781-24.375-46.25-21.992 31.524 55.625 107.813 54.14 161.563 50.82zm0 0" style="fill:none;stroke:#fad105;stroke-width:8;stroke-linecap:butt;stroke-linejoin:miter;stroke-miterlimit:3.8637;stroke-opacity:1" transform="matrix(.01622 0 0 -.01622 0 82.505)"/><path d="m294.082 259.04-.719-.692c1.95-1.305 6.77-.543 8.739-.86-.817 1.711-6.5-.308-8.02 1.551" style="fill:#fad105;fill-opacity:1;fill-rule:evenodd;stroke:none" transform="translate(0 .01)scale(.16216)"/><path d="m2940.82 2496.91-7.187 6.913c19.492 13.047 67.695 5.43 87.383 8.594-8.164-17.11-65 3.086-80.196-15.508zm0 0" style="fill:none;stroke:#fad105;stroke-width:8;stroke-linecap:butt;stroke-linejoin:miter;stroke-miterlimit:3.8637;stroke-opacity:1" transform="matrix(.01622 0 0 -.01622 0 82.505)"/><path d="M298.543 280.008c-1.707-.68-.742-1.969-.063-3.39l-.011-.708c1.687-.594 2.972.516 3.426 1.922.601 2.106-2.09 1.727-3.352 2.176" style="fill:#1e170f;fill-opacity:1;fill-rule:evenodd;stroke:none" transform="translate(0 .01)scale(.16216)"/><path d="M287.102 247.586c2.906-3.3 8.668-4.953 12.765-4.887-4.648.649-8.117 4.238-12.765 4.887" style="fill:#fad105;fill-opacity:1;fill-rule:nonzero;stroke:none" transform="translate(0 .01)scale(.16216)"/><path d="M2871.016 2611.44c29.062 33.008 86.68 49.532 127.656 48.868-46.484-6.485-81.172-42.383-127.656-48.867zm0 0" style="fill:none;stroke:#fad105;stroke-width:8;stroke-linecap:butt;stroke-linejoin:miter;stroke-miterlimit:3.8637;stroke-opacity:1" transform="matrix(.01622 0 0 -.01622 0 82.505)"/><path d="M297.309 290.195c-.989.16-1.43-.96-2-1.379l-.036-1.972c2.512-1.457 3.426 2.058 2.036 3.351M293.766 281.36c-.563.292-.996-.262-1.426-.68l-.035-1.98c1.965-.88 2.855 1.788 1.46 2.66M245.3 110.055c-14.546-.028-27.722-10.39-42.71-3.352l-2.68.05c-.074-4.097 5.3-3.624 7.95-5.507 19.124-4.71 34.597 7.871 53.687 1.04 10.742.519 20.394 3.597 29.246 8.948-14.68.543-30.52-8.925-45.492-1.18" style="fill:#1e170f;fill-opacity:1;fill-rule:evenodd;stroke:none" transform="translate(0 .01)scale(.16216)"/><path d="M286.11 190.688c-2.407-.383-3.88-3.606-4.204-6 .805-2.415 2.45-5.551 4.696-6.153 1.75 3.074 5.816 9.64-.493 12.152" style="fill:#fff;fill-opacity:1;fill-rule:evenodd;stroke:none" transform="translate(0 .01)scale(.16216)"/><path d="M287.352 148.582c-12.063-3.18-23.364 4.785-30.954 14.805-4.472 2.758-10.71 1.312-14.843-1.016l-.028-1.41c14.286 1.305 19.157-19.117 34.32-16.133 2.977.793 7.356.86 10.173.387 1.144.828 1.59 2.09 1.332 3.367M288.207 238.102c-.852-.266-2.11.601-2.695-.66l-.024-1.27c1.27-.305 3.532.078 2.72 1.93M286.281 281.492c-1.285-.683-.465-2.254-.765-3.379l.695-.715c.992.407 4.176 4.727.07 4.094M287.145 290.371c-.711-.125-1.555.172-1.993-.668.125-.992-.601-2.25.52-2.695 1.281.687 1.586 1.953 1.473 3.363M280.91 240.914c-.844.016-1.691.172-2.129-.668-.457-1.973 2.66-1.32 3.328-3.45 1.157 1.392 1.344 4.216-1.199 4.118M279.246 266.785c-.562.149-.996-.402-1.285-.68l-.035-2.12 1.976-.036c-.265.992.602 2.25-.656 2.836M275.668 255.973l-1.273.023-.055-3.387c1.68-.597 4.277 2.465 1.328 3.364" style="fill:#1e170f;fill-opacity:1;fill-rule:evenodd;stroke:none" transform="translate(0 .01)scale(.16216)"/><path d="M266.223 195.102c-3.094.476-4.57-3.028-6.86-4.68 4.227-.64 9.164-3.524 12.367-6.262-.218 3.676 3.07 6.02 3.551 9.399z" style="fill:#fff;fill-opacity:1;fill-rule:evenodd;stroke:none" transform="translate(0 .01)scale(.16216)"/><path d="M274.895 284.375c-1.282-.398-.598-1.687-.754-2.672 2.793-1.742 4.015 3.602.754 2.672" style="fill:#1e170f;fill-opacity:1;fill-rule:nonzero;stroke:none" transform="translate(0 .01)scale(.16216)"/><path d="M273.117 263.504c-.867-1.113-.754-2.672.645-3.402l1.988.53c-.832 1.005-.363 3.54-2.633 2.872" style="fill:#1e170f;fill-opacity:1;fill-rule:evenodd;stroke:none" transform="translate(0 .01)scale(.16216)"/><path d="M275.293 274.902c-3.16-.32-1.746-2.933-.637-4.082 1.57.82 3.48 2.348.637 4.082" style="fill:#1e170f;fill-opacity:1;fill-rule:nonzero;stroke:none" transform="translate(0 .01)scale(.16216)"/><path d="m265.938 240.469-.082-4.66c2.886 3.761 5.757-1.797 8.761.554-.933 3.121-6.035 2.082-8.68 4.106" style="fill:#1e170f;fill-opacity:1;fill-rule:evenodd;stroke:none" transform="translate(0 .01)scale(.16216)"/><path d="M273.441 363.063c-3.097.476-5.53-1.317-8.093-2.543-3.2-5.31 5.343-9.418 8.527-13z" style="fill:#fff;fill-opacity:1;fill-rule:evenodd;stroke:none" transform="translate(0 .01)scale(.16216)"/><path d="m268.113 252.012-1.976.03c.39-1.983 1.195-4.398 4.035-3.456.023 1.41.351 4.09-2.059 3.426M268.434 270.363c-.72-.836-1.72-1.523-1.32-2.8l3.378-.622c.453 1.684-.652 2.973-2.058 3.422M265.172 277.762s-2.57-2.121-.043-2.68c2.062-1.207 2.832.656 2.832.656-.684 1.285-.66 2.555-2.79 2.024" style="fill:#1e170f;fill-opacity:1;fill-rule:evenodd;stroke:none" transform="translate(0 .01)scale(.16216)"/><path d="M257 311.238c-5.766-6.68-6.52-17.539-5.273-27.027 2.878 2.918 22.503 2.855 14.53 15.281-3.331 3.168-6.929 7.469-9.257 11.746" style="fill:#fff;fill-opacity:1;fill-rule:evenodd;stroke:none" transform="translate(0 .01)scale(.16216)"/><path d="M261.324 251.422c.258-1.418-2.289-1.652-1.328-3.367.817-1.707 2.52-1.313 4.07-1.34 2.164 2.504-1.488 3.84-2.742 4.707M261.516 262.297l-.567.008-.07-4.094c1.242-1.574 3.668-.207 3.976 1.344 1.47 3.078-2.085 1.871-3.34 2.742M250.934 238.754c-.621-3.379 1.554-8.078-2.153-10.133-6.742 2.238-14.015 6.035-17.426 13.156-2.73 5.274-2.308 13.176-5.066 17.035-7.187.833-.398-6.769-3.566-10.105-.422-8.043-11.653-12.223-10.52-20.152 9.117-11.739 27.633-10.934 41.235-8.203 3.554 1.492 8.43 5.64 5.542 10.07-2.632 2.871-3.968 7.27-8.046 8.332M246.672 415.074c-8.277 3.395.015 17.23-9.317 16.406-1.816-6.75 1.29-14.855-5.722-20.238-5.223.23-10.223-3.21-12.281-7.836-2.211-5.328-2.164-10.554-.993-16.363 2.547.375 2.184 3.773 4.73 4.012l4.68-6.86c-.128.57-.164 6.782 2.84 8.848 3.793-1.2 3.696-6.703 8.082-6.355.477 3.101 1.403 7.742 5.497 7.39 3.816.356 3.55-6.562 7.41-4.226.343 3.664-3.532 8.253.894 10.859 5.336-1.648 4.922-9.266 8.551-11.59 1.91 11.484-5.543 22.129-14.371 25.953M254.352 272.586c-.872-1.113-.75-2.672-.778-4.078l1.246-1.297c2.54-.188.61 2.531 2.18 3.351-.836.723-.941 2.844-2.648 2.024M256.043 256.316c-1.262.446-1.988-.671-2.707-1.363-.738-1.824.789-3.402 2.637-2.73zM251.09 247.508c2.676-.328 3.676.36 4.14 2.75l-4.07 1.344zM245.96 261.152c-.034-1.836-2.898-4.043.626-4.672.437.84 1.277.543 1.988.672-.543 1.282.75 2.532 2.153 1.942-1.543.73-2.211 2.863-4.766 2.058" style="fill:#1e170f;fill-opacity:1;fill-rule:evenodd;stroke:none" transform="translate(0 .01)scale(.16216)"/><path d="M244.945 356.781c-1.183-3.09 1.016-6.656 2.52-9.508l3.351-2.035c.493 3.805 2.106 7.164 1.614 11.41z" style="fill:#fff;fill-opacity:1;fill-rule:evenodd;stroke:none" transform="translate(0 .01)scale(.16216)"/><path d="m245.828 253.813-.715-.696-.691.719c-1.54 1.016-1.758-3.5-.652-4.79 1.417.114 3.097-.62 3.414 1.352.449 1.407-.657 2.836-1.356 3.414M244.207 274.176c.535-1.844 1.063-3.977 3.352-2.176l-.645 3.402z" style="fill:#1e170f;fill-opacity:1;fill-rule:evenodd;stroke:none" transform="translate(0 .01)scale(.16216)"/><path d="M242.059 312.77c-2.516 1.453-5.536-1.602-6.848-3.977-.727-9.168-7.492-16.535-5.121-26.32 4.75-3.047 11.719-.207 17.648-.309-.66 10.746-.039 21.89-5.68 30.606" style="fill:#fff;fill-opacity:1;fill-rule:evenodd;stroke:none" transform="translate(0 .01)scale(.16216)"/><path d="m244.102 267.965-.059-3.39 2.695.66c.024 1.554-.504 3.538-2.636 2.73M237.797 262.707l-1.98.035-.044-2.683c1.098-1.856 2.266.386 3.403.648.293.844-.25 2.121-1.38 2M237.371 270.906c-1.695-.113-2.148-1.937-2.176-3.351l2.094-1.45 2.024 2.649z" style="fill:#1e170f;fill-opacity:1;fill-rule:evenodd;stroke:none" transform="translate(0 .01)scale(.16216)"/><path d="M229.254 355.781c1.336-4.261 2.05-12.039 7.246-13.68.5 4.508 2.125 8.575 1.648 13.528z" style="fill:#fff;fill-opacity:1;fill-rule:evenodd;stroke:none" transform="translate(0 .01)scale(.16216)"/><path d="M229.316 165.27c-2.957.617-6.035 2.222-7.379-1.989.403-1.277-.738-1.824-1.46-2.66-2.403-.098-.66 2.555-1.914 3.426l.574.695-1.95 1.446c-3.449-11.38-9.558-21.583-16.09-31.637l1.247-1.434c7.332 7.219 9.61 16.5 15.39 24.164l1.946-2.011c-3.149-10.536-8.121-20.336-14.075-29.551l1.387-1.438c11.438 7.992 11.824 21.965 16.121 33.614 2.36-2.301-.437-8.891 5.375-7.582 2.332 4.054 4.567 10.796.828 14.957M229.781 264.828c-.992-.125-2.246.602-2.691-.52l-.035-2.12 3.386-.055c-.265.988.606 2.246-.66 2.695M225.832 273.086l-1.977.031c-1.855-1.094.383-2.265.504-3.394 1.551-.172 2.121.101 2.852 1.363.152.844-.246 2.125-1.379 2" style="fill:#1e170f;fill-opacity:1;fill-rule:evenodd;stroke:none" transform="translate(0 .01)scale(.16216)"/><path d="M221.105 309.746c-4.328-5.152-7.41-11.875-7.117-19.508 3.32-3.87 7.926-6.918 12.75-5.59.164 9.176-1.808 17.547-5.633 25.098" style="fill:#fff;fill-opacity:1;fill-rule:evenodd;stroke:none" transform="translate(0 .01)scale(.16216)"/><path d="M213 201.426c.762 3.094 5.824 2.015 4.906 5.988-1.687.45-3.37 1.047-5.351.8l.175 10.165c-3.945.492-3.746-4.453-5.625-6.684-1.082-5.347 1.93-12.367-.257-16.422-4.66.079-6.598 2.375-10.809 3.575.898 3.234 4.02 5.488 2.965 9.601-7.18 1.54-12.7.926-19.098-1.644-.597-1.965.668-2.13 2.07-2.72.653-3.116-5.402-2.163-7.566-4.67-2.027-2.93-7.379-2.13-6.894-6.657 4.238.21 9.543 4.637 14.332 3.844-4.293-3.172-10.477-6.864-12.414-12.622-3.493-5.867-8.383-11.007-10.473-17.464-7.402-3.407-14.723 3.343-21.613 5.02l-1.434-1.247 9.375-4.965c-4.281-2.605-13.594 6.028-12.883-1.75 3.797-1.058 8.739-1 11.531-2.887-3.558-1.632-7.925-.851-11.617-1.914 4.184-3.18 9.278-2.703 14.239-1.52 8.492 9.173 23.515 4.106 34.004 6.185 3.421 1.917 6.62-.82 9.421-2.282-2.515 9.504 13.192 11.489 12.532 22.235l3.437 2.625c3.488-2.465 7.488-7.758 8.07-6.922-.273.57.301.984.727 1.261l1.977-.039c-.645 3.403-1.153 6.801-1.797 10.203l6.12 2.715c-2.1 1.168-5.362.38-7.448 2.11 2.293 2.078 5.949 1.168 8.246 3.246-1.942 2.008-5.899 1.937-8.848 2.836M217.418 260.379c-.418.289-5.078.09-3.45-3.328 2.098-1.309 1.329-4.824 4.743-3.473 2.715 1.79 1.078 5.207-1.293 6.8" style="fill:#1e170f;fill-opacity:1;fill-rule:evenodd;stroke:none" transform="translate(0 .01)scale(.16216)"/><path d="m213.816 361.418-3.386.062c1.738-5.539 1.03-13.718 7.21-15.66 3.051 5.028 7.063 16.254-3.824 15.598" style="fill:#fff;fill-opacity:1;fill-rule:evenodd;stroke:none" transform="translate(0 .01)scale(.16216)"/><path d="M216.313 269.863c-1.692.168-3.813.067-4.13-1.902.098-2.547 1.5-3.137 4.047-2.899 1.989.81 2.047 4.06.082 4.801M214.57 250.969l-2.707-1.367c1.266-.442.055-4.942 3.332-3.446 1.723 1.664 1.188 3.367-.625 4.813M209.754 169c-3.258-8.559-9.363-18.336-18.043-22.14-1.324-3.083 2.918-2.876 3.305-4.715 10.668 4.332 13.293 16.996 16.851 26.82zM211.031 282.805c-2.383 1.03-2.285-1.516-3.433-2.621 0 0 1.343-4.188 4.726-4.18 1.563 2.11 1.235 5.91-1.293 6.8M205.758 247.73c-1.434-1.386.219-3.816 1.906-4.125 2.54-.046 3.133 1.5 2.754 4.047z" style="fill:#1e170f;fill-opacity:1;fill-rule:evenodd;stroke:none" transform="translate(0 .01)scale(.16216)"/><path d="m207.348 265.926-1.27.02c-1.879-2.368.336-4.95.574-7.497-2.004-1.52-3.449-3.328-2.93-6.02.837-.718 1.524-1.722 2.801-1.32 2.575 1.649.211 3.95.106 6.07l-.692.72c1.731 2.085 5.102 1.038 4.743 4.578-.395 1.843-1.504 2.988-3.332 3.449" style="fill:#1e170f;fill-opacity:1;fill-rule:nonzero;stroke:none" transform="translate(0 .01)scale(.16216)"/><path d="M209.574 312.629c-8.035.844-5.832-10.492-12.379-13.344 3.211-2.172 6.852-3.93 10.653-4.844 2.629 5.18 4.168 12.497 1.726 18.188" style="fill:#fff;fill-opacity:1;fill-rule:evenodd;stroke:none" transform="translate(0 .01)scale(.16216)"/><path d="M206.195 272.723c-2.32-3.352-4.8.082-7.52-1.848.266-.992-.6-2.25.665-2.695l1.973-.032c.93 4.641 4.507-.785 6.812 1.856.602 1.965-.668 2.133-1.93 2.719" style="fill:#1e170f;fill-opacity:1;fill-rule:evenodd;stroke:none" transform="translate(0 .01)scale(.16216)"/><path d="M198.258 198.04c1.8-2.15 1.281-7.11 1.66-9.942l6.422 7.48c-1.914 3.422-4.969 2.692-8.082 2.461" style="fill:#fff;fill-opacity:1;fill-rule:evenodd;stroke:none" transform="translate(0 .01)scale(.16216)"/><path d="M204.969 242.945c-.985.297-1.426-.824-2-1.375-1.668 1.438-2.328 4.133-2.024 5.54-2.105.745-4.215 1.202-6.023 2.788l.023 1.415c-8.16 1.695-11.718-8.13-18.531-9.844-5.7 5.18 5.2 6.547 6.414 11.324 1.348 4.355 4.746 5 8.176 7.344-3.371.902-1.871 5.82-1.125 8.21 1.015 1.536 1.75 3.216 3.469 4.598-7.559 3.946-8.934-1.96-16.414-1.691-8.446 1.562-19.207-.227-24.895 5.805-.516 2.687.93 4.504 1.39 6.754-5.015 3.898-8.285-5.508-12.976-7.258-9.836 2.855-22.078 5.468-26.129 16.129-1.078 3.125-2.988 6.691-1.234 10.191 6.55-5.059 12.66-10.953 19.504-15.312 1.238 6.195-4.692 14.488-2.457 21.085 4.453-3.886 4.457-11.8 10.625-14.449-2.871 5.418-5.875 11.543-4.352 17.73 2.73-5.413 4.602-11.378 8.469-16.39-.063 4.524-4.766 10.113-5.8 15.637-3.102 16.437-6.079 40.074 8.948 51.39-10.207-2.222-16.625-13.832-23.383-20.632-5.683 5.89-9.667 12.312-12.511 19.285-5.79-8.094-1.461-18.903.937-27.133l-2.86-2.07c-3.632 2.464-.413 8.765-5.198 9.554-2.645-5.601-1.09-13.82-1.754-19.601-3.04 4.008-7.469 9.172-10.508 13.035.84-8.625 5.09-15.906 9.762-23.191-.246-6.208 2.629-11.34 2.375-17.696-4.5 1.07-10.11 3.285-14.14 7.028-1.704-.532-1.294-1.391-.755-2.668 7.79-6.914 18.64-8.235 24.836-17.383 8.77.836 15.402-7.469 24.285-8.473.38-2.406-.668-5.777-2.261-8.152l-11.41 1.613c.863-7.219 16.077-1.27 10.527-11.766l-.035-1.976c-6.79-.445-16.372.71-23.672 3.098-15.22 10.152-25.246 26-29.055 42.449-4.086-15.461 2.7-31.258 7.394-45.461 2.704-6.824 8.399-12.434 12.528-18.578l1.976-.036c-3.289 5.848-11.378 11.5-7.726 18.497l17.351-17.25-.718-.696c.402-1.277 1.828-.453 2.672-.75l.035 2.117-9.942 13.024c3.829.781 6.707-4.211 10.79-4.988-.356 3.96-5.028 3.336-6.66 6.894 7.46-1.402 16.62-2.55 24.933-3.824 2.094-1.45.629-4.39 2.008-6.11-2.871-2.632-7.63-.148-10.907-1.785l-.07-4.097c3.676.082 9.078 2.246 13.567.472 1.382-1.578 1.347-3.695 1.878-5.543-4.972-1.746-10.39-4.617-16.28-2.398-2.516 1.316-4.165 4.309-7.41 4.227-2.142-9.286-14.017-2.016-20.954-3.024-3.363 1.613-6.875 2.66-10.824 2.871l-.012-.707c-.453-1.683 5.473-1.789 7.398-4.789 4.016-20.828 22.602-40.078 43.282-44.816 2.402.097 5.355-.66 7.351.437-6.012 3.637-10.699 10.07-13.844 15.918 3.512-.91 9.559-2.43 14.106-.953-3.098.617-8.691 3.824-11.305 7.68 7.168-1.817 14.23-1.801 21.621.894 1.364 5.203-4.918 1.36-6.715 3.508-7.91-.004-17.433 4.54-20.671 13.352 8.039-.703 19.234 9.691 24.257-1.836l3.391-.059c.582 1.121-.793 3.121-1.187 4.824l-1.391 1.293c9.226 2.524 17.367 7.89 26.05 11.832 3.122.793 5.06-1.355 7.294-2.949 4.84 2.176 1.851 8.863 6.98 11.457l.719.692 2.07-2.72c-2.14-1.23-2.32-3.347-2.215-5.468.54-1.277 1.828-.453 2.668-.75 1.29.965.473 2.676 2.18 3.352 1.277.398 1.824-.598 2.66-1.32l-.047-2.68 3.387-.063c-.672 1.988 1.34 3.793.094 5.367M201.254 264.758c-1.27.164-3.531-.078-2.719-2.07l-.031-1.977 3.387-.063c-.262 1.282.617 3.098-.637 4.11" style="fill:#1e170f;fill-opacity:1;fill-rule:evenodd;stroke:none" transform="translate(0 .01)scale(.16216)"/><path d="M200.855 282.277c-2.12-.105-1.457-2.515-2.046-3.922 2.812-.75 4.98 2.176 2.046 3.922" style="fill:#1e170f;fill-opacity:1;fill-rule:nonzero;stroke:none" transform="translate(0 .01)scale(.16216)"/><path d="M194.969 365.844c-4.223.636-5.703-3.008-6.883-5.953-.527-6.063-.356-12.422 4.387-15.754 1.238 6.191 7.398 11.172 11.168 16.754 1.086 5.488-5.586 3.77-8.672 4.953" style="fill:#fff;fill-opacity:1;fill-rule:evenodd;stroke:none" transform="translate(0 .01)scale(.16216)"/><path d="M136.438 119.441c-14.918 11.133-23.512 28.371-35.27 42.559-6.18 9.992-4.617 26.633-19.82 29.578.824-9.336 13.601-13.793 12.422-24.648-2.739-11.39 10.843-17.985 15.199-27.38-19.824-11.093-21.91-33.37-22.703-54.542-2.754-12.238-10.29-23.262-19.485-32.14l-.035-2.118c23.223 19.648 69.848 12.762 71.418 54.395 1.445 1.812 2.047 3.921 4.191 5.296 3.817.356 6.16-2.933 8.657-5.52-3.149-18.585-20.254-35.8-38.008-41.421-8.68-3.8-19.95-2.191-26.578-9.703 26.011 1.523 58.64 9.848 68.48 39.476 1.61 3.364 5.61 5.832 8.836 4.649 6.395-5.762 10.711-18.863 18.82-23.242l12.168 1.058c-20.14 11.086-32.582 44.242-58.292 43.703M194.855 286.477c-2.101 1.023-3.55-1.207-4.14-2.61l3.34-2.742c.699-.437 2.324 3.629.8 5.352" style="fill:#1e170f;fill-opacity:1;fill-rule:evenodd;stroke:none" transform="translate(0 .01)scale(.16216)"/><path d="M186.02 281.973c-2.106.601-1.73-2.09-2.176-3.356.261-.988-.606-2.246.656-2.832l2.117-.039c-.527 1.988 1.742 2.793 2.754 4.047-.601-2.246.32-5.934 4-5.434 1.98 8.157-4.195 2.328-7.351 7.614" style="fill:#1e170f;fill-opacity:1;fill-rule:nonzero;stroke:none" transform="translate(0 .01)scale(.16216)"/><path d="m187.105 190.438-1.976.035c-2.063-4.766-.176-10.024 4.445-12.364 2.89 3.903 1.008 9.301-2.469 12.329M193.707 333.95c-13.996-.887-20.883-15.032-25.59-25.962-.18-2.258.477-4.953-.828-6.765 4.324-3.184 11.297-.2 16.945-.297 4.7 10.367 7.579 21.476 9.473 33.023" style="fill:#fff;fill-opacity:1;fill-rule:evenodd;stroke:none" transform="translate(0 .01)scale(.16216)"/><path d="m185.34 289.547-1.414.023c-1.324-3.082 1.922-3.136 2.601-4.843 2.278 1.234 1.5 5.058-1.187 4.82" style="fill:#1e170f;fill-opacity:1;fill-rule:evenodd;stroke:none" transform="translate(0 .01)scale(.16216)"/><path d="M173.27 187.547c-8.536-3.524-10.247-14.79-15.297-21.059 8.297-1.98 18.265-.008 24.703 4.961-2.895 3.867-11.211 9.914-9.406 16.098M180.7 365.387c-6.177 2.222-10.845-3.653-16.614-2.422-5.883 2.93-11.977.219-12.992-7.961-.301-.984-.457-1.973-1.457-2.66 6.105 1.87 13.734-.496 18.48-3.684 5.59 4.563 5.301 12.192 12.559 15.317z" style="fill:#fff;fill-opacity:1;fill-rule:evenodd;stroke:none" transform="translate(0 .01)scale(.16216)"/><path d="M177.09 280.008c-.977.722-5.223.234-3.988-1.906l-.04-2.118 3.97.637z" style="fill:#1e170f;fill-opacity:1;fill-rule:evenodd;stroke:none" transform="translate(0 .01)scale(.16216)"/><path d="M176.063 253.617c-1.59-2.23-5.665-1.031-5.59-4.703 1.867 1.66 5.129 2.594 5.59 4.703" style="fill:#fad105;fill-opacity:1;fill-rule:nonzero;stroke:none" transform="translate(0 .01)scale(.16216)"/><path d="M1760.625 2551.128c-15.898 22.305-56.64 10.313-55.898 47.031 18.671-16.601 51.289-25.937 55.898-47.03zm0 0" style="fill:none;stroke:#fad105;stroke-width:8;stroke-linecap:butt;stroke-linejoin:miter;stroke-miterlimit:3.8637;stroke-opacity:1" transform="matrix(.01622 0 0 -.01622 0 82.505)"/><path d="m169.371 258.535-.027-1.41c2.105-.883 4.683 1.188 6.828 2.566-1.836.028-4.23.497-6.8-1.156" style="fill:#fad105;fill-opacity:1;fill-rule:evenodd;stroke:none" transform="translate(0 .01)scale(.16216)"/><path d="m1693.71 2501.948-.272 14.102c21.054 8.828 46.835-11.875 68.28-25.664-18.359-.273-42.304-4.961-68.007 11.562zm0 0" style="fill:none;stroke:#fad105;stroke-width:8;stroke-linecap:butt;stroke-linejoin:miter;stroke-miterlimit:3.8637;stroke-opacity:1" transform="matrix(.01622 0 0 -.01622 0 82.505)"/><path d="M158.852 125.121c-.813-6.058 5.746-10.41 11.34-13.754l2.011 1.942c-5.015 4.043-7.894 8.894-13.351 11.812" style="fill:#1e170f;fill-opacity:1;fill-rule:evenodd;stroke:none" transform="translate(0 .01)scale(.16216)"/><path d="m162.723 265.996-.024-1.27 3.953-.07c1.141.684 5.106 1.184 7.516 1.848-2.672.469-7.05.402-11.445-.508" style="fill:#fad105;fill-opacity:1;fill-rule:evenodd;stroke:none" transform="translate(0 .01)scale(.16216)"/><path d="m1627.227 2427.34-.235 12.694 39.531.703c11.407-6.835 51.055-11.835 75.157-18.476-26.72-4.688-70.508-4.023-114.453 5.078zm0 0" style="fill:none;stroke:#fad105;stroke-width:8;stroke-linecap:butt;stroke-linejoin:miter;stroke-miterlimit:3.8637;stroke-opacity:1" transform="matrix(.01622 0 0 -.01622 0 82.505)"/><path d="M166.98 242.902c-3.816-.214-6.57-4.12-3.52-7.425 2.669-.891 5.813 1.457 8.247 3.246-1.812 1.304-1.86 6.53-4.727 4.18" style="fill:#fad105;fill-opacity:1;fill-rule:evenodd;stroke:none" transform="translate(0 .01)scale(.16216)"/><path d="M1669.805 2658.277c-38.164 2.148-65.703 41.21-35.196 74.257 26.68 8.907 58.125-14.57 82.461-32.46-18.125-13.047-18.593-65.313-47.265-41.797zm0 0" style="fill:none;stroke:#fad105;stroke-width:8;stroke-linecap:butt;stroke-linejoin:miter;stroke-miterlimit:3.8637;stroke-opacity:1" transform="matrix(.01622 0 0 -.01622 0 82.505)"/><path d="M168.453 286.938c-1.433-1.247-3.043-4.465-1.531-6.75 1.836-.036 4.512-.504 4.84 2.03-.676 1.708-1.059 4.259-3.309 4.72" style="fill:#1e170f;fill-opacity:1;fill-rule:evenodd;stroke:none" transform="translate(0 .01)scale(.16216)"/><path d="M147.414 246.633c-1.273-.117-.465-2.25-.766-3.375 7.313-1.965 14.149 1.445 20.414 4.445l.036 1.977z" style="fill:#fad105;fill-opacity:1;fill-rule:evenodd;stroke:none" transform="translate(0 .01)scale(.16216)"/><path d="M1474.14 2620.972c-12.734 1.172-4.648 22.5-7.656 33.75 73.125 19.648 141.485-14.453 204.141-44.453l.352-19.766zm0 0" style="fill:none;stroke:#fad105;stroke-width:8;stroke-linecap:butt;stroke-linejoin:miter;stroke-miterlimit:3.8637;stroke-opacity:1" transform="matrix(.01622 0 0 -.01622 0 82.505)"/><path d="M165.633 278.938c-1.988-.532-2.184-3.774-1.485-4.067l.692-.723c1.707.676 2.742 3.204.793 4.79" style="fill:#1e170f;fill-opacity:1;fill-rule:evenodd;stroke:none" transform="translate(0 .01)scale(.16216)"/><path d="m164.547 257.21-18.332 1.731-.094-5.507c7.024-2.243 14.133.601 19.813 2.34z" style="fill:#fad105;fill-opacity:1;fill-rule:evenodd;stroke:none" transform="translate(0 .01)scale(.16216)"/><path d="m1645.469 2515.19-183.32-17.304-.938 55.078c70.234 22.422 141.328-6.016 198.125-23.398zm0 0" style="fill:none;stroke:#fad105;stroke-width:8;stroke-linecap:butt;stroke-linejoin:miter;stroke-miterlimit:3.8637;stroke-opacity:1" transform="matrix(.01622 0 0 -.01622 0 82.505)"/><path d="m158.156 238.96-9.484-1.105c-1.734-2.37 2.598-4.988 3.824-7.55 2.969.23 6.664 1.578 7.55 3.96-.675 1.567-1.925 2.86-1.89 4.696" style="fill:#fad105;fill-opacity:1;fill-rule:evenodd;stroke:none" transform="translate(0 .01)scale(.16216)"/><path d="m1581.563 2697.69-94.844 11.055c-17.344 23.711 25.976 49.883 38.242 75.508 29.687-2.305 66.64-15.781 75.508-39.61-6.758-15.663-19.258-28.593-18.906-46.952zm0 0" style="fill:none;stroke:#fad105;stroke-width:8;stroke-linecap:butt;stroke-linejoin:miter;stroke-miterlimit:3.8637;stroke-opacity:1" transform="matrix(.01622 0 0 -.01622 0 82.505)"/><path d="M148.512 269.066c-1.293-1.386-.489-3.664-.801-5.492l12.14-.21c.977 7.324-8.148 2.402-11.34 5.702" style="fill:#fad105;fill-opacity:1;fill-rule:evenodd;stroke:none" transform="translate(0 .01)scale(.16216)"/><path d="M1485.117 2396.636c-12.93 13.867-4.883 36.64-8.008 54.922l121.407 2.11c9.765-73.243-81.485-24.024-113.399-57.032zm0 0" style="fill:none;stroke:#fad105;stroke-width:8;stroke-linecap:butt;stroke-linejoin:miter;stroke-miterlimit:3.8637;stroke-opacity:1" transform="matrix(.01622 0 0 -.01622 0 82.505)"/><path d="M110.82 205.328c1.016-6.656 8.102-13.418 14.578-14.52l3.387-.058c-6.406 5.195-9.316 16.262-17.965 14.578" style="fill:#fad105;fill-opacity:1;fill-rule:evenodd;stroke:none" transform="translate(0 .01)scale(.16216)"/><path d="M1108.203 3034.019c10.156 66.562 81.016 134.18 145.781 145.195l33.868.586c-64.063-51.953-93.165-162.617-179.649-145.781zm0 0" style="fill:none;stroke:#fad105;stroke-width:8;stroke-linecap:butt;stroke-linejoin:miter;stroke-miterlimit:3.8637;stroke-opacity:1" transform="matrix(.01622 0 0 -.01622 0 82.505)"/><path d="M102.234 222.992c-.355-4.09 3.508-9.383 7.282-11.57l1.976-.031-3.27 6.836c7.376 1.847 10.563-9.649 18.2-9.215l-9.223 13.715z" style="fill:#fad105;fill-opacity:1;fill-rule:evenodd;stroke:none" transform="translate(0 .01)scale(.16216)"/><path d="M1022.344 2857.378c-3.555 40.899 35.078 93.828 72.812 115.703l19.766.313-32.695-68.36c73.75-18.476 105.625 96.485 181.992 92.149l-92.227-137.149zm0 0" style="fill:none;stroke:#fad105;stroke-width:8;stroke-linecap:butt;stroke-linejoin:miter;stroke-miterlimit:3.8637;stroke-opacity:1" transform="matrix(.01622 0 0 -.01622 0 82.505)"/><path d="M118.227 127.809c-6.07.246-11.57.765-16.32-4.375-10.485-9.985-2.747-27.914-10.145-39.223-.899-2.953-1.828-7.598.386-10.18 4.801.059 5.47 5.98 9.73 7.317 8.75-.293 8.97 12.129 17.724 11.976 4.476 5.711.793 13.262.34 19.625-2.633 2.871-5.907 1.375-7.376-1.988-1.757-3.5.407-8.906-2.332-12.106-3.234.762-1.746 5.254-4.554 6.153-5.313-5.133.722-15.266-6.567-20.223l-1.246 1.434c4.574 11.219-6.64 24.125 8.028 31.07 5.87-3.633 9.953 3.64 15.554 1 4.852 3.024.434 8.61-3.222 9.52" style="fill:#fad105;fill-opacity:1;fill-rule:evenodd;stroke:none" transform="translate(0 .01)scale(.16216)"/><path d="M1182.266 3809.214c-60.704-2.46-115.704-7.656-163.204 43.75-104.843 99.844-27.46 279.14-101.445 392.227-8.984 29.53-18.281 75.976 3.867 101.797 48.008-.586 54.688-59.805 97.305-73.165 87.5 2.93 89.688-121.289 177.227-119.765 44.765-57.11 7.93-132.617 3.398-196.25-26.328-28.711-59.062-13.75-73.75 19.883-17.578 35 4.063 89.062-23.32 121.054-32.344-7.617-17.461-52.539-45.547-61.523-53.125 51.328 7.226 152.656-65.664 202.226l-12.461-14.336c45.742-112.187-66.406-241.25 80.273-310.703 58.711 36.328 99.532-36.406 155.547-10 48.516-30.234 4.336-86.093-32.226-95.195zm0 0" style="fill:none;stroke:#fad105;stroke-width:8;stroke-linecap:butt;stroke-linejoin:miter;stroke-miterlimit:3.8637;stroke-opacity:1" transform="matrix(.01622 0 0 -.01622 0 82.505)"/><path d="m118.2 320.438-5.391-1.317c-1.114-7.183 4.73-12.23 9.882-16.414-1.734 5.82-4.75 11.098-4.492 17.73" style="fill:#fad105;fill-opacity:1;fill-rule:evenodd;stroke:none" transform="translate(0 .01)scale(.16216)"/><path d="m1181.992 1882.925-53.906 13.164c-11.133 71.836 47.305 122.305 98.828 164.14-17.344-58.202-47.5-110.976-44.922-177.304zm0 0" style="fill:none;stroke:#fad105;stroke-width:8;stroke-linecap:butt;stroke-linejoin:miter;stroke-miterlimit:3.8637;stroke-opacity:1" transform="matrix(.01622 0 0 -.01622 0 82.505)"/><path d="m96.18 264.473.718.691-9.953 12.324c-1.867-1.664 2.48-3.574.61-5.375 2.738-5.136 6.773-8.593 11.226-12.343-.527 2.128-.367 3.394-2.601 4.703" style="fill:#fad105;fill-opacity:1;fill-rule:evenodd;stroke:none" transform="translate(0 .01)scale(.16216)"/><path d="m961.797 2442.573 7.187-6.914-99.53-123.242c-18.673 16.64 24.804 35.742 6.093 53.75 27.383 51.367 67.734 85.938 112.265 123.438-5.273-21.29-3.671-33.946-26.015-47.032zm0 0" style="fill:none;stroke:#fad105;stroke-width:8;stroke-linecap:butt;stroke-linejoin:miter;stroke-miterlimit:3.8637;stroke-opacity:1" transform="matrix(.01622 0 0 -.01622 0 82.505)"/></svg>