<svg xmlns="http://www.w3.org/2000/svg" viewBox="0 0 225 245.36"><clipPath id="a"><path d="M0 0h478.36v521.648H0zm0 0"/></clipPath><g fill="#211e1e" clip-path="url(#a)" transform="scale(.47036)"><path d="M475.512 50.563c-7.91.925-12.34 1.359-20.27 2.027-16.691 1.383-27.863 2.37-41.754 2.37a366 366 0 0 1-14.922-.339c-24.355-1.066-37.968-2.426-61.597-8.07-24.164-5.813-37.63-9.692-59.45-21.164-12.414-6.52-18.972-10.684-30.183-19.114l-8.79-6.277-1.503 1.262-6.113 5.101c-11.114 8.344-17.672 12.508-30.086 19.028-21.82 11.472-35.293 15.351-59.446 21.164-23.632 5.644-37.246 7.004-61.601 8.07-5.484.234-10.356.332-14.934.332-13.89.008-25.05-.984-41.742-2.363-7.941-.668-12.351-1.102-20.27-2.028L0 50.239v8.973c.27 24.328 1.184 38.25 4.082 62.383 4.953 41.195 10.063 64.691 22.496 104.277 13.594 43.309 23.36 67.941 46.024 107.375 18.207 31.707 30.804 48.688 54.195 76.695 24.055 28.825 40.812 42.313 67.34 68.38 12.207 11.988 19.031 18.886 31.597 30.577 4.735 4.399 7.418 6.914 12.243 11.235l1.707 1.515 1.71-1.515c4.958-4.43 7.008-7.051 11.29-11.293 12.117-12.008 19.289-18.48 31.543-30.52 26.527-26.066 43.273-39.554 67.336-68.379 23.39-28.007 35.992-44.988 54.199-76.695 22.66-39.433 32.43-64.066 46.02-107.375 12.445-39.586 17.534-63.082 22.491-104.277 2.91-24.133 3.82-38.055 4.086-62.36v-8.996z"/></g><path fill="#fff" d="M11.544 60.654c2.495 18.144 4.375 28.214 9.837 45.623 6.008 19.106 10.153 29.587 20.093 46.898 8.002 13.912 13.363 21.138 23.672 33.502 10.482 12.553 17.74 18.39 29.598 30.038 5.42 5.323 8.402 8.335 13.925 13.472a365 365 0 0 0 4.033 3.724c1.202-1.18 2.05-2.155 3.585-3.68 5.41-5.361 8.59-8.237 13.967-13.516 11.862-11.648 19.114-17.485 29.594-30.038 10.315-12.364 15.68-19.59 23.682-33.502 9.932-17.311 14.083-27.792 20.09-46.898 5.46-17.409 7.34-27.48 9.836-45.623 1.46-10.616 2.012-16.56 2.52-27.255v-.45c-2.588.272-4.592.443-7.611.676-7.478.57-12.571 1.051-19.015 1.051-1.99 0-4.1-.046-6.449-.147-10.822-.47-17.241-1.112-27.848-3.662-10.708-2.554-17.157-4.426-27.033-9.63-5.569-2.922-8.759-4.942-13.741-8.697l-1.911-1.363-1.588 1.319-.016.01c-5.025 3.79-8.211 5.809-13.782 8.732-9.872 5.203-16.327 7.075-27.033 9.63-10.607 2.55-17.03 3.19-27.854 3.661-2.344.101-4.46.147-6.449.147-6.447 0-11.542-.481-19.009-1.05-3.024-.234-5.02-.405-7.614-.677v.456c.51 10.687 1.06 16.633 2.521 27.25m99.86 177.416c-2.145-1.917-3.345-3.041-5.434-4.981-5.574-5.187-8.604-8.252-14.002-13.552-11.708-11.506-19.164-17.51-29.857-30.32-10.36-12.404-15.996-20.005-24.073-34.068-10.054-17.486-14.423-28.503-20.442-47.688-5.52-17.57-7.481-28.084-9.977-46.268C6.146 50.506 5.576 44.322 5.06 33.541v-5.004l2.2.241c3.78.408 5.879.603 9.678.895 7.52.575 12.478 1.04 18.708 1.04 1.927 0 3.987-.046 6.28-.142 10.77-.475 16.685-1.062 27.097-3.559 10.69-2.564 16.512-4.244 26.114-9.28 5.459-2.873 8.287-4.663 13.209-8.36l2.662-2.221 1.172-.98 4.437 3.17c4.945 3.72 7.774 5.508 13.246 8.391 9.6 5.036 15.424 6.716 26.116 9.28 10.412 2.497 16.324 3.084 27.091 3.56 2.295.095 4.353.14 6.28.14 6.232 0 11.191-.464 18.715-1.039 3.789-.292 5.898-.487 9.683-.895l2.192-.242v4.933l-.004.077c-.509 10.776-1.084 16.96-2.554 27.648-2.495 18.184-4.464 28.698-9.982 46.268-6.017 19.185-10.385 30.202-20.44 47.688-8.077 14.063-13.707 21.664-24.07 34.068-10.696 12.81-18.15 18.814-29.858 30.32-5.433 5.339-8.606 8.203-13.956 13.51-1.86 1.833-2.799 3.022-5.033 5.023l-1.32 1.18z"/><path fill="#fff" d="m27.654 48.318-.177-3.379-8.812.463.802 15.348 3.992-.21-.314-6.026 4.375-.226-.182-3.381-4.375.23-.132-2.565zM41.276 44.805c-1.196-.446-2.39-.69-3.673-.648-2.16.079-4.305 1.093-5.76 2.691-1.415 1.56-2.137 3.602-2.065 5.7.08 2.284.924 4.25 2.666 5.723 1.64 1.387 3.707 2.131 5.846 2.06 1.24-.044 2.186-.384 3.495-.834l-.164-4.789c-.8 1.026-2.082 1.7-3.386 1.75-2.486.084-4.217-1.61-4.3-4.035-.086-2.383 1.502-4.314 3.945-4.397 1.367-.048 2.709.496 3.561 1.567zM53.953 43.407l-3.965.489 1.87 15.251 3.971-.483zM58.786 58.534l3.893-.899-2.124-9.175.044-.008 9.25 7.532 3.892-.903-3.46-14.974-3.889.899 2.111 9.155-.038.011-9.246-7.51-3.893.898zM78.884 40.947l3.153-.965-.988-3.237-10.137 3.1.992 3.235 3.16-.965 3.5 11.464 3.824-1.169z"/><path fill="#fff" d="m90.336 36.34-1.376-3.088-7.987 3.553 6.249 14.041 7.989-3.553-1.376-3.092-4.338 1.93-1.079-2.417 4.118-1.836-1.378-3.088-4.116 1.83-1.044-2.345zM95.973 32.901l.355-.163c1.181-.552 2.612-.95 3.32.566.704 1.512-.52 2.357-1.702 2.908l-.354.164zm6.128 3.78c1.811-1.272 2.109-3.433 1.21-5.358-1.385-2.975-4.086-3.31-6.838-2.027l-5.413 2.521 6.493 13.93 3.624-1.688-2.5-5.357.04-.017 5.917 3.761 4.504-2.096zM128.545 33.11l3.104 1.13 1.157-3.184-9.96-3.62-1.16 3.178 3.104 1.13-4.101 11.26 3.757 1.368zM145.306 35.81l-2.771 7.606c-.68 1.874-1.56 3.875-3.978 2.995-2.412-.876-1.802-2.975-1.115-4.85l2.765-7.607-3.754-1.365-2.954 8.123c-.676 1.859-1.272 3.724-.342 5.644.772 1.626 2.515 2.743 4.204 3.353 1.685.612 3.735.88 5.374.136 1.946-.878 2.69-2.688 3.366-4.547l2.958-8.123zM155.585 42.01l.379.09c1.262.317 2.631.91 2.225 2.53-.402 1.625-1.885 1.505-3.155 1.19l-.378-.096zm2.385 6.788c2.209.152 3.8-1.343 4.318-3.397.79-3.186-1.095-5.149-4.044-5.884l-5.797-1.442-3.715 14.916 3.879.962 1.43-5.734.036.011 2.229 6.647 4.826 1.202zM170.001 48.327l-.038-.007.88-6.276-3.958-.555-2.137 15.22 3.96.555.924-6.601.04.009 4.18 7.314 5.128.722-5.473-8.942 7.068-6.353-4.904-.69zM193.302 44.397l-.703 8.064c-.177 1.99-.511 4.15-3.065 3.925-2.563-.226-2.514-2.407-2.34-4.4l.705-8.059-3.978-.35-.752 8.609c-.174 1.973-.26 3.926 1.13 5.541 1.167 1.375 3.14 1.996 4.926 2.155 1.784.151 3.838-.115 5.227-1.267 1.65-1.345 1.906-3.291 2.075-5.259l.755-8.61zM129.712 196.365l-2.517-2.263-5.903 6.559 11.424 10.285 2.672-2.969-4.485-4.038 2.936-3.256-2.517-2.264-2.933 3.26-1.907-1.72zM133.304 187.618l-2.725 2.923 11.24 10.484 2.726-2.925zM148.09 194.533l2.672-2.969-7-6.302.028-.031 11.897.863 2.671-2.967-11.419-10.287-2.677 2.967 6.987 6.29-.025.03-11.886-.848-2.672 2.967zM151.477 166.62l-2.405 3.194 12.277 9.247 5.283-7.017-2.703-2.035-2.881 3.823zM168.24 158.806l-1.76 2.819-3.275-3.998.026-.031zm3.169.704 2.79.568 2.257-3.612-16.1-3.234-2.314 3.695 9.907 13.16 2.241-3.593-1.697-2.317zM178.34 153.34l1.877-3.53-8.314-4.42.016-.035 11.756-2.041 1.87-3.53-13.569-7.213-1.876 3.528 8.296 4.41-.02.038-11.73 2.049-1.878 3.53zM179.44 126.074l.45-.82c1.25-2.248 3.483-3.082 5.894-1.748 2.618 1.453 2.769 3.87 1.613 5.953l-.434.786zm8.547 9.304 2.745-4.955c2.065-3.728.845-8.457-2.934-10.555-3.782-2.093-8.434-.642-10.508 3.103l-2.745 4.959zM39.073 129.22l-1.56-2.938 5.093-.834.02.035zm-2.192 2.388-1.893 2.137 2 3.763 10.853-12.33-2.045-3.85-16.345 1.99 1.988 3.748 2.855-.32zm14.054-10.592c.26.487.358 1.15-.215 1.455-.575.305-1.07-.15-1.33-.636-.267-.5-.366-1.164.21-1.47.576-.308 1.074.142 1.335.651m1.28-.728c-.716-1.348-1.997-2.447-3.542-1.626-1.564.83-1.277 2.549-.566 3.88.704 1.335 1.993 2.452 3.522 1.636 1.57-.832 1.305-2.54.586-3.89M50.146 136.437l.136.255c.506.952 1.018 2.09-.226 2.749-1.15.61-1.83-.274-2.33-1.21l-.209-.4zm-9.857 7.687c1.321 2.486 3.55 4.417 6.394 2.905 1.889-1.005 2.763-2.53 1.984-4.608l.03-.02c1.144.805 2.348.672 3.57.02 2.592-1.38 2.667-3.498 1.381-5.907l-2.677-5.04-13.572 7.214zm4.603-4.893.193.36c.61 1.153 1.697 2.813.062 3.68-1.494.794-2.38-.995-2.934-2.039l-.24-.45zM58.183 151.04c1.266 2.02.66 4.707-1.141 5.832-2.243 1.402-4.926.77-6.188-1.253-1.264-2.025-.658-4.708 1.587-6.115 1.797-1.119 4.478-.485 5.742 1.536m3.283-2.054c-2.344-3.75-7.27-5.481-11.211-3.015-4.22 2.634-5.303 7.518-2.688 11.705 2.614 4.18 7.478 5.345 11.696 2.71 3.943-2.465 4.55-7.648 2.203-11.4M69.677 167.986l-9.572 7.211 2.403 3.192 12.277-9.25-3.732-4.95-2.7 2.036zM79.162 178.216c.92 1.066.825 2.66-.236 3.583a2.536 2.536 0 0 1-3.582-.265c-.92-1.06-.77-2.598.292-3.522 1.06-.92 2.6-.856 3.526.204m-9.239 8.922 5.404-.344c2.186-.154 4.553-.696 6.229-2.15 1.218-1.058 1.91-2.742 1.848-4.339-.051-1.52-.898-3.052-1.872-4.176-2.302-2.644-5.874-3.647-8.715-1.17-2.144 1.857-2.838 4.999-.86 7.277.533.616 1.086 1 1.77 1.325l-.004.059-6.78.086zM88.238 188.24a2.53 2.53 0 0 1-.11 3.585 2.53 2.53 0 0 1-3.585-.14c-.957-1.028-.863-2.568.165-3.53 1.031-.958 2.575-.943 3.53.085m-8.917 9.233 5.384-.535c2.184-.22 4.529-.848 6.153-2.362 1.18-1.101 1.813-2.81 1.698-4.4-.105-1.515-1.007-3.016-2.023-4.11-2.389-2.564-5.99-3.439-8.75-.87-2.072 1.935-2.662 5.104-.599 7.309a5.1 5.1 0 0 0 1.812 1.264l-.002.053-6.778.331zM97.465 198.61c1.41 1.505-.645 4.085-1.734 5.099-1.088 1.016-3.839 2.914-5.24 1.406-1.402-1.505.678-4.116 1.763-5.128 1.088-1.017 3.811-2.885 5.211-1.377m2.583-2.405c-3.118-3.34-7.597-1.839-10.52.886s-4.74 7.077-1.615 10.43c3.129 3.35 7.593 1.836 10.513-.889 2.923-2.725 4.735-7.088 1.622-10.427"/><path fill="#234c9e" d="M50.148 113c5.248 12.418 9.582 18.735 16.617 30.433 5.813 9.681 9.018 15.114 15.678 24.148 4.492 6.093 7.69 10.277 11.724 14.866L84.017 61.39c-.212.062-.433.125-.652.187-8.453 2.431-13.458 3.385-22.13 4.667-9.303 1.384-14.995 1.867-23.913 1.98.084.85.174 1.677.26 2.461.892 4.101 1.684 7.32 2.951 12.143 3.175 12.036 4.816 18.809 9.615 30.173"/><path fill="#eb1923" d="M141.155 61.576c-.02-.005-.035-.009-.055-.016-.25-.028-.503-.063-.764-.094l-10.153 121.18c4.119-4.669 7.34-8.886 11.898-15.065 6.657-9.032 9.857-14.467 15.676-24.144 7.034-11.702 11.37-18.017 16.615-30.437 4.8-11.364 6.438-18.137 9.613-30.173 1.52-5.749 2.343-9.198 3.48-14.601-9.075-.11-14.789-.59-24.18-1.98-8.671-1.285-13.676-2.239-22.13-4.67"/><path fill="#fff" d="M183.985 82.829c-3.173 12.033-4.812 18.809-9.613 30.17-5.247 12.423-9.583 18.738-16.615 30.436-5.813 9.677-9.017 15.114-15.678 24.148-4.558 6.174-7.78 10.396-11.898 15.06l10.158-121.179.011-.115.787.224c8.477 2.436 13.48 3.39 22.147 4.67 9.394 1.397 15.106 1.874 24.18 1.985-1.134 5.403-1.96 8.854-3.479 14.6m-59.803 106.293c-3.508 3.647-6.025 5.33-9.613 9.302a113 113 0 0 0-2.05 2.368c-.884-.8-1.595-1.466-2.65-2.45-3.814-3.55-5.948-5.5-9.528-9.22a252 252 0 0 1-3.38-3.574l.175-.018L86.663 60.647c5.406-1.512 9.47-2.652 15.184-5.657 3.822-2.014 6.008-3.394 9.457-5.992l.998-.832.856.786.062.046c3.447 2.598 5.634 3.978 9.451 5.988 5.665 2.98 9.707 4.132 15.032 5.619l-10.477 124.924.324.029a216 216 0 0 1-3.368 3.563m-41.739-21.538c-6.66-9.034-9.86-14.47-15.678-24.148-7.039-11.698-11.368-18.013-16.617-30.435-4.799-11.362-6.438-18.138-9.61-30.171-1.272-4.825-2.06-8.044-2.955-12.141-.17-.787-.342-1.591-.526-2.46q.134.001.267-.006c8.916-.114 14.61-.599 23.913-1.979 8.67-1.28 13.677-2.234 22.128-4.668.219-.061.436-.125.656-.182L94.17 182.449c-4.04-4.59-7.234-8.773-11.726-14.866M189.13 65.543c-10-.075-15.56-.505-25.451-1.966-8.641-1.282-13.41-2.192-21.776-4.593-7.32-2.102-11.44-2.953-17.973-6.388-3.733-1.965-5.672-3.194-9.029-5.713l-2.513-2.304-2.763 2.299c-3.335 2.511-5.275 3.739-9.033 5.718-6.533 3.435-10.653 4.286-17.97 6.388-8.37 2.401-13.138 3.31-21.777 4.593-9.896 1.461-15.455 1.89-25.456 1.966l-1.646.015.336 1.61c1.328 6.397 2.179 10.028 3.842 16.344 3.164 11.989 4.874 19.013 9.743 30.54 5.33 12.627 9.802 19.164 16.786 30.776 5.799 9.65 9.09 15.237 15.82 24.357 6.524 8.85 10.46 13.858 18.128 21.808 3.627 3.768 5.828 5.79 9.632 9.322 1.433 1.332 2.25 2.102 3.724 3.416l1.044.928.894-1.07s1.746-2.094 2.885-3.36c3.37-3.75 5.84-5.394 9.552-9.236 7.66-7.95 11.6-12.957 18.122-21.808 6.732-9.12 10.017-14.707 15.821-24.357 6.98-11.612 11.452-18.15 16.786-30.775 4.873-11.528 6.576-18.552 9.738-30.54 1.668-6.317 2.519-9.952 3.844-16.346l.334-1.61z"/><path fill="#fff" d="m124.753 67.327-9.148-.63-3.36-8.132-3.36 8.132-9.07.627 6.732 6.171-2.045 9.095 7.743-5.084 7.849 5.152-2.365-9.16zM174.023 83.325l-8.9-2.21-1.898-8.59-4.72 7.421-9.05-.955 5.566 7.248-3.593 8.599 8.508-3.657 6.83 6.438-.737-9.434zM75.384 80.53l-9.172.17-4.059-7.807-2.634 8.393L50.53 82.7l7.254 5.564-1.247 9.232 7.27-5.734 8.262 4.45-3.154-8.918zM112.472 179.574c17.606 0 31.873-14.27 31.873-31.876s-14.267-31.876-31.873-31.876c-17.601 0-31.875 14.27-31.875 31.876 0 17.605 14.274 31.876 31.875 31.876"/><path fill="#211e1e" d="m125.545 163.238-3.682 12.044h-18.252l-3.695-12.079 6.515-12.253h12.59zm11.967-28.749 5.42 3.794a31.7 31.7 0 0 0-4.59-9.2l-1.255 4.11-13.947 3.733-9.986-7.254v-13.834c-.226-.003-.456-.012-.682-.012s-.455.009-.68.012v13.834l-9.985 7.254-12.7-3.401-1.687-5.52a31.65 31.65 0 0 0-5.694 11.285l6.538-4.58 12.988 3.481 3.952 12.164-6.535 12.288-13.064-.226-.536 1.56c3.757 6.315 9.635 11.222 16.651 13.732l1.53-1.071v.01h18.988l1.334.94c7.077-2.633 12.957-7.704 16.639-14.187l-.344-.984-13.087.226-6.784-12.757-.126.07 3.821-11.765z"/></svg>