<svg xmlns="http://www.w3.org/2000/svg" viewBox="-0.47 -0.47 134.46 134.46"><defs><clipPath id="a"><path fill="none" d="M.471.471h134v134h-134z" data-name="Rectangle 1"/></clipPath></defs><g clip-path="url(#a)" data-name="Group 1" transform="translate(-.471 -.471)"><path d="M67.232 0a67.232 67.232 0 1 0 67.232 67.232A67.3 67.3 0 0 0 67.232 0" data-name="Path 1"/><path fill="#fff" d="M67.232 2.748a64.484 64.484 0 1 0 64.484 64.484A64.58 64.58 0 0 0 67.232 2.748m0 2.052a62.22 62.22 0 0 1 43.673 17.88 316 316 0 0 1-5.349 6.338 14.72 14.72 0 0 0-11.651-5.716 14.2 14.2 0 0 0-4.8.843c-4.4 1.539-7.328 4.25-8.72 8.024-1.722-3.261-4.47-5.642-10.149-5.642a24.5 24.5 0 0 0-9.966 2.235c-2.491 1.1-8.1 4.4-10.112 4.763a321 321 0 0 1 5.313-12.384 326 326 0 0 1 7.841-16.158 45 45 0 0 1 3.92-.183m2.272 63.678c2.968-2.638 5.972-5.423 9.05-8.28 2.821-2.675 8.976-8.683 8.976-8.683s6.741 5.349 8.1 7.694a3.3 3.3 0 0 1 .22 2.748 5.3 5.3 0 0 1-4.36 3.078c-2.638 0-6.558-2.2-6.558-2.2l-4.364 7.513.55-6.412a43 43 0 0 1-11.614 4.542m-5.606-28.83a11.2 11.2 0 0 1 3.627-1.942c1.282-.366 2.308-.183 2.382.916.11 1.539-3.078 3.737-5.789 5.239a27.5 27.5 0 0 0-.22-4.213m.293 17.66a73 73 0 0 0 12.164-8.793 16.5 16.5 0 0 0 4.14-6.119c1.026 2.785 3.517 5.642 5.423 7.548a588 588 0 0 1-8.867 8.61 456 456 0 0 1-11.358 10.332c-2.491 0-3.078-1.209-3.078-2.6a53.4 53.4 0 0 1 1.575-8.976m29.9-18.173a1.95 1.95 0 0 1 .66-2.015c.733-.476 1.978-.147 3.517.513a16.6 16.6 0 0 1 5.423 3.517 8.48 8.48 0 0 1-5.679.586c-1.869-.33-3.481-1.172-3.92-2.6M32.938 84.159c-.366 2.235-.7 4.507-.953 6.742a4.2 4.2 0 0 0-1.5.11 45 45 0 0 1-2.858-7.8 17 17 0 0 0 5.313.953m-1.028-20.046a41.6 41.6 0 0 1 4.763-13.556l5.129-.989c-2.162 6.412-3.847 12.017-5.862 20-4.25 1.172-4.543-2.931-4.03-5.459m-.843 28.908c1.466-.293 3.334.953 4.067 2.711.366.916.659 2.931-1.172 3.371-1.466.293-3.334-.953-4.067-2.711-1.063-2.968 1.172-3.371 1.172-3.371m3.041-1.429c.293-2.528.659-5.019 1.063-7.548a31.9 31.9 0 0 0 12.091-4.287 26 26 0 0 0 3.81 1.392c-5.9 4.726-11.175 8.647-15.461 11.578a6.5 6.5 0 0 0-1.5-1.136m12.311-18.5-1.575-7a63 63 0 0 1-6.452 2.756 242 242 0 0 1 5.935-19.858 12.5 12.5 0 0 0 7.364-5.129c.147 6.595-.769 16.414-5.276 29.238m-24.841-48.4A62.34 62.34 0 0 1 60.674 5.13a376 376 0 0 0-7.218 15.022c-1.869 4.1-3.81 8.647-5.752 13.483a29.9 29.9 0 0 0-7.656 1.355 118.7 118.7 0 0 1-18.429 3.444c-.183-4.69-.183-9.306-.037-13.739M4.836 67.232a62.07 62.07 0 0 1 14.512-39.936 247 247 0 0 0 .073 11.614l-6.595 16.78 7.657-1.063a39.4 39.4 0 0 0-2.382 11.5c-.183 4.653.55 8.354 2.235 11.248a12.53 12.53 0 0 0 4.69 4.69 53.5 53.5 0 0 0 3.552 10.118 3.6 3.6 0 0 0-.843 1.5A67.6 67.6 0 0 1 6.668 82.364a62.7 62.7 0 0 1-1.832-15.132m2.822 18.576a67.6 67.6 0 0 0 20 10.112 5.7 5.7 0 0 0 .513 1.575c-3.407 2.052-7.254 4.4-11.1 6.741a60.5 60.5 0 0 1-9.413-18.428m10.7 20.188c3.81-2.345 7.621-4.653 11.028-6.7a6.2 6.2 0 0 0 2.162 1.5 134 134 0 0 0 2.748 19.382 62.6 62.6 0 0 1-15.938-14.179m48.876 23.632a62 62 0 0 1-30.339-7.883 138 138 0 0 1-3.114-20.518 3.7 3.7 0 0 0 1.467-.364 94.1 94.1 0 0 0 20.518 14.765 138.5 138.5 0 0 0 28.432 11.651 61.8 61.8 0 0 1-16.964 2.345m20.847-3.591a138.2 138.2 0 0 1-31.253-12.347A90 90 0 0 1 36.897 99.4a4.05 4.05 0 0 0 .55-1.539c2.968.293 6.265.44 9.783.44a205 205 0 0 0 35.539-3.627 250.8 250.8 0 0 0 45.065-12.6 62.69 62.69 0 0 1-39.753 43.966M82.4 92.513C65 95.701 48.619 96.8 37.3 95.627a4 4 0 0 0-.4-1.063c4.69-3.188 10.442-7.511 16.89-12.714a56.6 56.6 0 0 0 11.651 1.1 69.5 69.5 0 0 0 14.207-1.392l.4-4.507a28.6 28.6 0 0 0 11.541 2.455c6.155 0 11.175-2.345 14.546-6.778a26.01 26.01 0 0 0 4.8-20.371 33 33 0 0 0-2.675-8.72s.806-7.951-1.539-12.64c1.905-2.2 3.847-4.47 5.716-6.778a62.16 62.16 0 0 1 17.184 42.977 61.3 61.3 0 0 1-1.209 12.237 242.8 242.8 0 0 1-46.018 13.08" data-name="Path 2"/><path fill="#fff" d="M74.523 105.409a4.81 4.81 0 0 0 4.14 4.616l-4.69 4.25c2.162 1.539 4.213 2.345 8.427 2.345 0 0 .44 0 1.063-.037a.964.964 0 0 0 .916-1.063.925.925 0 0 0-1.1-.989c-3.261.11-4.433-.22-5.679-.733 0 0 3.847-3.334 5.5-4.983a4.26 4.26 0 0 0 1.575-3.444 5.086 5.086 0 0 0-10.149.037m8.061 0a3.03 3.03 0 1 1-3-2.638 2.84 2.84 0 0 1 3 2.638" data-name="Path 3"/><path fill="#fff" d="m92.146 110.136-4.14 5.313c2.491.293 4.323 1.319 8.867.586 0 0 .44-.073 1.063-.183a.99.99 0 0 0 .733-1.209.938.938 0 0 0-1.246-.806c-3.188.623-4.36.44-5.679.146 0 0 3.188-3.847 4.58-5.752a4.21 4.21 0 0 0 .989-3.627 4.9 4.9 0 0 0-5.789-3.81 4.97 4.97 0 0 0-4.25 5.5 4.84 4.84 0 0 0 4.873 3.847m-.293-7.328a2.656 2.656 0 1 1-2.528 3.078 2.89 2.89 0 0 1 2.528-3.078" data-name="Path 4"/><path fill="#fff" d="M67.928 100.683a4.107 4.107 0 1 0 0 8.207 4.5 4.5 0 0 0 .7-.073 32 32 0 0 1-2.345 3.847.946.946 0 0 0 .33 1.356.974.974 0 0 0 1.392-.147c.147-.22 4.213-6.119 4.213-9.086a4.21 4.21 0 0 0-4.287-4.1m0 6.155a2.023 2.023 0 1 1 0-4.03 2.023 2.023 0 1 1 0 4.03" data-name="Path 5"/><path fill="#fff" d="M60.014 101.049c-.7 0-1.026.366-1.026.879v7.221c0 .476.33.879 1.026.879s1.026-.366 1.026-.879v-7.218c.037-.476-.293-.879-1.026-.879" data-name="Path 6"/><path d="M104.97 43.124a10.62 10.62 0 0 1-7.474 1.209 7.33 7.33 0 0 1-5.9-4.323 4.27 4.27 0 0 1 .953-4.433 3.67 3.67 0 0 1 2.858-1.172c4.653.11 10.186 4.873 10.186 4.873 0-2.455-.073-6.3-2.638-9.306a12.09 12.09 0 0 0-13.007-3.407c-4.58 1.612-7.145 4.543-7.767 8.976-.66 4.763 1.832 9.416 7.877 14.582.293.256 6.082 4.763 7.914 7.767 1.575 2.711.879 7.108-4.177 9.27-3.224 1.1-7.767-.989-7.767-.989l-4.91 8.464A26.2 26.2 0 0 0 91.56 76.87c5.313 0 9.6-1.978 12.457-5.752 9.489-12.53 1.649-27 .953-27.992m-2.235 27.113c-3 3.994-7.328 5.093-11.211 5.093a25.6 25.6 0 0 1-8.17-1.429l3.3-5.679s4.69 1.5 7.657.44c5.606-2.345 6.851-7.291 5.423-10.589-1.063-2.455-3.407-4.836-8.72-9.086-5.752-5.019-7.951-8.976-7.364-13.19.55-3.847 2.675-6.265 6.741-7.694a10.62 10.62 0 0 1 11.321 2.931 10.15 10.15 0 0 1 2.088 4.983c-1.905-1.246-5.386-3.151-8.464-3.151a5.17 5.17 0 0 0-3.994 1.685 5.69 5.69 0 0 0-1.246 5.972c.953 2.675 3.737 4.763 7.218 5.349a13.5 13.5 0 0 0 7-.659c1.429 2.858 6.3 14.582-1.576 25.024" data-name="Path 7"/><path d="M61.883 55.58a75.3 75.3 0 0 0 12.677-8.976c4.14-3.847 5.459-9.819 3.078-13.886-1.392-2.345-4.25-3.554-7.767-3.554a21 21 0 0 0-8.61 2.015c-2.455 1.063-7.951 4.177-7.951 4.177 3.92 17.4-4.433 38.8-5.569 41.768 4.763 2.418 11.431 3.224 17.66 3.224a67.5 67.5 0 0 0 11.761-.989l.953-10.918a33.7 33.7 0 0 1-12.86 3.114c-4.763 0-5.313-3.591-5.313-5.056a75 75 0 0 1 1.942-10.918M60.27 71.264a6.8 6.8 0 0 0 5.056 1.832 36.8 36.8 0 0 0 11.028-2.2c-.147 1.759-.44 5.019-.623 7.145a75 75 0 0 1-10.479.733c-5.093 0-10.992-.55-15.5-2.528 4.47-11.8 7.621-29.2 5.313-40.119 1.319-.733 4.91-2.711 6.815-3.517a18.5 18.5 0 0 1 7.951-1.869c2.345 0 5.129.586 6.448 2.785 2.052 3.481.843 8.61-2.785 11.944a78 78 0 0 1-12.97 9.086s-2.052 8.17-2.125 11.834a6.78 6.78 0 0 0 1.869 4.873" data-name="Path 8"/><path d="M60.82 49.206s3.078-1.575 7.694-4.543c4.47-2.858 5.386-5.752 4.287-8.207-.843-1.869-3.481-2.162-5.019-1.905a17.4 17.4 0 0 0-7.438 3.591s.989 3.737.476 11.065m7.108-13.119c1.869-.33 2.968.293 3.334 1.319.513 1.392.366 3.3-3.554 6.009-2.308 1.539-5.129 3.078-5.129 3.078a42 42 0 0 0-.4-7.584c2.162-1.5 3.81-2.491 5.752-2.821" data-name="Path 9"/><path d="M34.66 72.395c-5.5 0-5.789-4.323-5.459-7.767.66-6.7 4.946-14.985 5.716-16.377l7.145-1.392c5.239-1.1 8.464-4.1 7.841-7.291a3.356 3.356 0 0 0-3.7-3.078 21.8 21.8 0 0 0-5.5 1.063 120.5 120.5 0 0 1-19.382 3.591L16.89 52.43l7.767-1.1a40.7 40.7 0 0 0-3.92 14.875c-.33 8.207 2.455 13.08 8.61 14.8a13.9 13.9 0 0 0 3.847.513c4.03 0 8.317-1.722 11.651-3.444l-1.905-8.17a22.2 22.2 0 0 1-8.28 2.491m-1.5 7.584a12.1 12.1 0 0 1-3.407-.476c-5.423-1.575-7.8-5.789-7.474-13.263.33-8.024 4.14-15.058 5.166-16.89l-8.134 1.136 3.114-7.914a117 117 0 0 0 18.722-3.554 20.3 20.3 0 0 1 4.836-1.063c.769.037 2.052-.073 2.418 1.8.476 2.382-2.345 4.616-6.668 5.532l-7.843 1.537c-.366.513-5.093 9.123-6.229 17.7-.4 3.151 0 5.532 1.575 7.254a7.12 7.12 0 0 0 5.679 2.162 24 24 0 0 0 6.888-1.8l1.209 5.056c-1.759.879-5.679 2.785-9.856 2.785" data-name="Path 10"/></g></svg>