<svg xmlns="http://www.w3.org/2000/svg" xml:space="preserve" viewBox="0.67 1.04 671.98 397.62"><path d="M2522.29 2982.26c310-382.41 645.09-423.71 1155.57-119.74 158.25 96.75 473.14 43.85 666.89 0 209.77-53.38 445.99-119.27 700.3-89.11-330.15-263.64-678.35-363.02-1265.54-446.91-176.82-45.95-331.37-289.59-338.33-413.5-17.32-347.46 122.4-522.54 200.48-846.49 46.41-166.147-1.87-407.467-111.39-490.076-161.5-127.157-364.76-193.055-551.33-206.051-110.91-7.887-230.19-21.348-303.51-86.317-82.61-84.929-115.09-183.777-147.57-284.02-32.49 98.392-64.98 200.946-130.88 278.446-49.19 59.172-201.41 82.84-323 91.891-173.09 6.961-396.32 86.32-523.48 200.484-131.35 120.199-170.8 239-130.91 498.423 39.62 300.75 265.11 520.87 197.7 840.91-22.74 216.73-258.63 390.28-328.16 418.2C624.309 2438.41 570.566 2416 5.05 2773.38c266.595-23.67 464.985 32.01 678.68 91.87 328.09 100.59 670.73 43.55 906.36-91.91 285.67-207.41 766.26-109.93 932.2 208.92" style="fill:#016634;fill-opacity:1;fill-rule:evenodd;stroke:none" transform="matrix(.13333 0 0 -.13333 0 398.667)"/><path d="M2522.37 2863.37c216.72-162.66 441.81-381.02 909.13-191.44 78.9-110.68 157.8-221.36 236.71-332.04-65.67-45.72-133.04-113.2-166.38-159.42-15.77-18.8-1925-11.13-1936.6 5.57-44.09 57.55-103.49 100.47-163.59 145.49 75.18 113.24 150.36 226.47 225.54 339.71 249.66-125.31 605.15-115.56 895.19 192.13M2330.34 390.004c-145.73 35.738-288.66 59.629-435.08 82.137l-.71 1642.839 437.17 1.4zM2736.86 387.219c145.73 35.738 288.66 59.629 435.08 82.14l.7 1642.841-437.16 1.39zM1547.93 2708.39c-78.43-106.27-156.87-212.55-235.29-318.82-196.31 12.53-398.187 63.7-601.452 111.03 32.136 8.24 85.5 16.47 72.046 74.49-5.382 21.29-136.89-37.73-214.058-35.16-54.418 6.27-107.438 35.5-151.754 71.01 23.887 20.1 56.504 34.8 61.258 66.82-3.992 4.09-18.563 6.93-39.934.54-53.707-18.19-154.703-25.93-173.078 16.17 395.398 114.63 956.472 248.75 1282.262 13.92M3511.55 2698.62c78.43-106.27 156.86-212.55 235.29-318.82 196.3 12.53 398.18 63.69 601.45 111.03-32.14 8.23-85.5 16.47-72.05 74.48 5.38 21.3 136.89-37.72 214.06-35.15 54.41 6.27 107.43 35.5 151.75 71-23.89 20.11-56.5 34.81-61.25 66.83 3.99 4.09 18.55 6.93 39.93.53 53.7-18.18 154.7-25.92 173.07 16.18-395.39 114.63-956.47 248.75-1282.25 13.92" style="fill:#eb3236;fill-opacity:1;fill-rule:evenodd;stroke:none" transform="matrix(.13333 0 0 -.13333 0 398.667)"/><path d="m1903.38 2529.81-36.11-36.28v-208.85l36.11-36.1h92.74l36.04 36.1v47.81h-46.97v-36.76h-70.76v186.93h70.76v-36.82h46.97v47.69l-36.04 36.28zM2310.29 2327.16l-5.95-26.52h12.55v-46.5h-76.28v46.5h17.42l54.17 232.07h47.38l51.37-232.07h16.6v-46.5h-76.35v46.5h13.26l-5.95 26.52zm38 46.32-13.79 61.12-13.74-61.12zM2632.49 2529.31v-47.51h17.78v-189.13h-17.78v-47.45h135.43l36.47 36.47v92.59l-12.98 12.62 12.98 12.99v92.96l-36.47 36.65zm65.41-47.51h58.86v-70.75h-58.86zm59.04-188.95h-59.04v70.75h59.04zM3131.27 2403.66h-56.95v74.37h56.95zm0-109.06h-17.96v-46.05h82.14v46.05h-17.96v79.2l-12.78 12.25 12.78 12.6v90.04l-35.56 36.04h-131.79v-46.58h17.07V2294.6h-17.07v-46.05h82.14v46.05h-17.96v63.01h56.95z" style="fill:#fff;fill-opacity:1;fill-rule:nonzero;stroke:none" transform="matrix(.13333 0 0 -.13333 0 398.667)"/></svg>