<svg xmlns="http://www.w3.org/2000/svg" viewBox="0 0 68 68"><path d="M68 34c0 18.777-15.223 34-34 34S0 52.777 0 34 15.223 0 34 0s34 15.223 34 34" style="stroke:none;fill-rule:nonzero;fill:#19398a;fill-opacity:1"/><path d="M34 66.059C16.293 66.059 1.941 51.703 1.941 34S16.293 1.941 34 1.941 66.059 16.297 66.059 34 51.707 66.059 34 66.059M34 .754C15.64.754.754 15.64.754 34S15.64 67.246 34 67.246 67.246 52.36 67.246 34 52.36.754 34 .754" style="stroke:none;fill-rule:nonzero;fill:#fff;fill-opacity:1"/><path d="M34 63.898C17.488 63.898 4.102 50.512 4.102 34S17.488 4.102 34 4.102 63.898 17.488 63.898 34 50.512 63.898 34 63.898M34 2.48C16.594 2.48 2.48 16.594 2.48 34S16.594 65.52 34 65.52 65.52 51.406 65.52 34 51.406 2.48 34 2.48" style="stroke:none;fill-rule:nonzero;fill:#fff;fill-opacity:1"/><path d="M56.45 34c0 12.395-10.055 22.45-22.45 22.45-12.398 0-22.45-10.055-22.45-22.45S21.603 11.55 34 11.55c12.395 0 22.45 10.055 22.45 22.45" style="stroke:none;fill-rule:nonzero;fill:#fff;fill-opacity:1"/><path d="M33.656 14.746s.227-.691.344-1.055c.117.364.344 1.055.344 1.055h1.11c-.31.223-.9.652-.9.652l.344 1.055-.898-.652s-.59.43-.898.652l.343-1.055s-.59-.43-.898-.652zm-.156-.215h-1.617l1.308.95-.5 1.539L34 16.07l1.309.95-.5-1.54 1.308-.949H34.5l-.5-1.539zM33.656 52.297s.227-.692.344-1.055c.117.363.344 1.055.344 1.055h1.11c-.31.226-.9.652-.9.652l.344 1.059-.898-.653s-.59.426-.898.653l.343-1.059s-.59-.426-.898-.652zm-.156-.215h-1.617l1.308.953-.5 1.535L34 53.621l1.309.95-.5-1.536 1.308-.953H34.5l-.5-1.539zM27.852 15.656l.343-1.054.344 1.054h1.11c-.31.223-.899.653-.899.653s.227.691.344 1.054c-.309-.222-.899-.652-.899-.652s-.59.43-.898.652c.121-.363.344-1.054.344-1.054s-.59-.43-.899-.653zm-.157-.215h-1.617s1.2.868 1.309.95l-.5 1.535s1.199-.867 1.308-.95l1.309.954-.5-1.54 1.308-.949h-1.617l-.5-1.539zM39.805 50.324l.343 1.055h1.11l-.899.652s.223.696.344 1.055l-.898-.652s-.59.43-.899.652l.344-1.055s-.59-.43-.898-.652h1.109zm-.5.84h-1.617l1.308.95-.5 1.538 1.309-.953 1.308.953-.5-1.539 1.309-.949h-1.617l-.5-1.539zM22.617 18.324l.344-1.054.344 1.054h1.11c-.31.223-.9.653-.9.653s.227.691.344 1.054c-.308-.222-.898-.652-.898-.652s-.59.43-.898.652c.117-.363.343-1.054.343-1.054l-.898-.653zm-.156-.215h-1.617l1.308.95-.5 1.535 1.309-.95 1.309.954-.5-1.54 1.308-.949h-1.617l-.5-1.539zM45.04 47.656c.116.364.343 1.055.343 1.055h1.11c-.31.223-.9.652-.9.652l.344 1.055-.898-.652s-.59.43-.898.652l.343-1.055s-.59-.43-.898-.652h1.11s.226-.691.343-1.055m-.5.84h-1.618l1.308.95-.5 1.538s1.196-.87 1.31-.949c.112.078 1.308.95 1.308.95l-.5-1.54 1.308-.949H45.54l-.5-1.539zM18.465 22.477l.34-1.055.343 1.055h1.11c-.305.226-.899.656-.899.656s.227.691.344 1.055l-.898-.653-.899.649c.121-.36.344-1.051.344-1.051l-.898-.656zm-.16-.215H16.69s1.196.87 1.305.953l-.5 1.535s1.2-.867 1.309-.95l1.308.95-.5-1.535 1.309-.953h-1.617l-.5-1.54zM49.195 43.5l.34 1.055h1.113c-.308.226-.898.652-.898.652l.34 1.059c-.305-.227-.895-.657-.895-.657s-.593.43-.898.657c.117-.364.344-1.059.344-1.059s-.59-.426-.899-.652h1.11zm-.5.84h-1.617s1.195.87 1.309.95l-.5 1.538 1.308-.95c.11.083 1.309.95 1.309.95l-.5-1.539c.11-.078 1.305-.95 1.305-.95h-1.614l-.5-1.538zM15.797 27.715s.223-.695.344-1.059l.34 1.059h1.109c-.309.223-.895.652-.895.652l.34 1.055-.898-.652-.895.652.34-1.055-.895-.652zm-.156-.219h-1.618s1.196.871 1.305.953l-.496 1.535s1.195-.867 1.305-.949l1.308.95-.5-1.536 1.309-.953h-1.617l-.496-1.535s-.461 1.402-.5 1.535M51.863 38.266l.34 1.054h1.11l-.895.653s.223.695.34 1.054l-.895-.652s-.59.43-.898.652l.344-1.054s-.59-.43-.899-.653h1.11s.222-.691.343-1.054m-.5.84h-1.617l1.309.949-.5 1.539s1.195-.871 1.308-.95l1.305.95-.496-1.54 1.305-.949h-1.618c-.039-.132-.496-1.539-.496-1.539zM14.875 33.52l.344-1.055.344 1.055h1.109l-.899.648s.227.695.344 1.059l-.898-.653s-.59.43-.899.653c.117-.364.344-1.059.344-1.059l-.898-.648zm-.156-.22h-1.617l1.308.954-.5 1.535 1.309-.95 1.308.95-.5-1.535 1.309-.953h-1.617l-.5-1.535zM52.781 32.46c.117.364.344 1.06.344 1.06h1.11l-.9.648s.224.695.345 1.059l-.899-.653s-.59.426-.898.653c.117-.364.344-1.059.344-1.059l-.899-.648h1.11zm-.5.84h-1.617l1.309.954-.5 1.535 1.308-.95 1.309.95-.5-1.535 1.308-.953h-1.617l-.5-1.535zM15.797 39.32s.223-.691.344-1.054l.34 1.054h1.109c-.309.223-.895.653-.895.653s.223.695.34 1.054c-.308-.222-.898-.652-.898-.652l-.895.652.344-1.054s-.594-.43-.899-.653zm-.156-.215h-1.618l1.309.95c-.047.133-.5 1.539-.5 1.539l1.305-.95c.113.079 1.308.95 1.308.95s-.457-1.407-.496-1.54l1.305-.949H16.64c-.047-.132-.5-1.539-.5-1.539s-.461 1.407-.5 1.54M51.863 26.656l.34 1.059h1.11l-.895.652.34 1.055-.895-.652s-.59.43-.898.652c.117-.363.344-1.055.344-1.055s-.59-.43-.899-.652h1.11s.222-.695.343-1.059m-.5.84h-1.617l1.309.953-.5 1.535 1.308-.949c.11.082 1.305.95 1.305.95s-.453-1.403-.5-1.536l1.309-.953h-1.618c-.039-.133-.496-1.535-.496-1.535zM18.465 44.555l.34-1.055.343 1.055h1.11c-.305.226-.899.656-.899.656s.227.691.344 1.055c-.305-.227-.898-.653-.898-.653s-.59.426-.895.653l.34-1.055-.898-.656zm-.16-.215H16.69s1.196.87 1.305.953l-.5 1.535s1.2-.867 1.309-.95l1.308.95-.5-1.539c.114-.078 1.309-.95 1.309-.95h-1.617l-.5-1.534zM49.195 21.422l.34 1.055h1.113c-.308.226-.898.652-.898.652l.34 1.055c-.305-.223-.895-.649-.895-.649s-.593.426-.898.649l.344-1.055s-.59-.426-.899-.652h1.11zm-.5.84h-1.617l1.309.953-.5 1.535 1.308-.95c.11.083 1.309.95 1.309.95l-.5-1.535c.11-.082 1.305-.953 1.305-.953h-1.614l-.5-1.54zM22.617 48.71s.227-.69.344-1.054c.117.364.344 1.055.344 1.055h1.11c-.31.223-.9.652-.9.652l.344 1.055-.898-.652s-.59.43-.898.652l.343-1.055s-.59-.43-.898-.652zm-.156-.214h-1.617l1.308.95-.5 1.538s1.196-.87 1.309-.949c.113.078 1.309.95 1.309.95l-.5-1.54 1.308-.949h-1.617l-.5-1.539zM45.04 17.27l.343 1.054h1.11c-.31.223-.9.653-.9.653s.227.691.344 1.054c-.308-.222-.898-.652-.898-.652s-.59.43-.898.652c.117-.363.343-1.054.343-1.054l-.898-.653h1.11zm-.5.84-1.618-.005 1.308.954-.5 1.539 1.31-.953 1.308.953-.5-1.54 1.308-.949H45.54l-.5-1.539zM27.855 51.379l.34-1.055c.121.36.344 1.055.344 1.055h1.11l-.895.652s.223.696.34 1.055l-.899-.652-.894.652.34-1.055s-.59-.43-.899-.652zm-.156-.215h-1.617s1.195.867 1.305.95l-.496 1.538s1.195-.87 1.304-.953l1.309.953-.5-1.539 1.308-.949h-1.617l-.5-1.539s-.457 1.406-.496 1.54M39.805 14.602l.343 1.054h1.11c-.309.223-.899.653-.899.653s.223.691.344 1.054c-.308-.222-.898-.652-.898-.652s-.59.43-.899.652c.117-.363.344-1.054.344-1.054l-.898-.653h1.109zm-.5.84h-1.617l1.308.949-.5 1.535 1.309-.95c.11.083 1.304.95 1.304.95l-.496-1.535c.11-.082 1.309-.95 1.309-.95h-1.617l-.5-1.539z" style="stroke:none;fill-rule:nonzero;fill:#19398a;fill-opacity:1"/><path d="m18.152 51.441 2.02 1.664-.625.754-1.25-1.03-.61.737 1.254 1.032-.613.746-1.254-1.035-1.512 1.832-.765-.633zM20.21 53.16l.86.528-1.78 2.91c-.153.25-.243.441-.259.57a.6.6 0 0 0 .063.383c.062.125.168.23.308.316.149.094.301.137.453.137a.66.66 0 0 0 .387-.125q.163-.123.438-.578l1.718-2.801.86.523-1.645 2.684q-.41.676-.652.895c-.156.144-.36.253-.602.328q-.362.11-.718.058a2 2 0 0 1-.727-.285q-.487-.298-.71-.742-.23-.45-.177-.883.052-.433.543-1.234z" style="stroke:none;fill-rule:nonzero;fill:#fff;fill-opacity:1"/><path d="m23.152 54.945 2.664 1.18-.402.906-.875-.39-1.734 3.918-.93-.414 1.73-3.915-.855-.378z" style="stroke:none;fill-rule:nonzero;fill:#fff;fill-opacity:1"/><path d="m26.445 57.313-.32 1.062.207.066c.234.07.422.07.566.008a.53.53 0 0 0 .29-.351.5.5 0 0 0-.047-.426c-.082-.121-.23-.219-.45-.285Zm-.578 1.921-.39 1.297.242.07c.398.122.68.149.851.09a.52.52 0 0 0 .336-.375.64.64 0 0 0-.086-.59c-.125-.175-.379-.316-.754-.433Zm-1.625 1.922 1.516-5.047.793.239q.689.203.98.39c.278.172.477.39.586.664.113.27.13.555.04.848a1.2 1.2 0 0 1-.278.488 1.4 1.4 0 0 1-.531.32q.396.357.511.743c.078.261.07.535-.02.832a1.504 1.504 0 0 1-1.176 1.063q-.397.068-1.007-.114zM31.344 58.242a1.66 1.66 0 0 0-1.278.375c-.367.301-.582.711-.636 1.235q-.093.867.476 1.441.44.446 1.067.516.708.074 1.265-.383c.367-.305.582-.711.637-1.211q.077-.748-.367-1.32a1.64 1.64 0 0 0-1.164-.653m.113-.972q1.113.116 1.828 1.011.71.891.586 2.051a2.67 2.67 0 0 1-1 1.855 2.62 2.62 0 0 1-2.004.586c-.785-.086-1.41-.425-1.87-1.027a2.72 2.72 0 0 1-.571-2.023q.081-.751.515-1.344a2.7 2.7 0 0 1 1.106-.89q.679-.3 1.41-.22M34.258 57.559l1.004-.051.226 4.304 1.461-.074.051.953-2.46.133zM43.04 56.89l-.5.833c-.595-.36-1.18-.457-1.759-.301a1.75 1.75 0 0 0-1.09.84 1.74 1.74 0 0 0-.16 1.363q.146.51.473.844.328.328.797.445.463.112.96-.027c.282-.075.524-.2.727-.367q.305-.258.61-.786l.843.504q-.41.703-.851 1.055c-.297.234-.656.41-1.086.527q-1.183.33-2.149-.215c-.64-.359-1.07-.933-1.285-1.714a2.7 2.7 0 0 1-.03-1.446q.175-.689.722-1.226.54-.534 1.277-.739.631-.175 1.285-.07.658.105 1.215.48M42.797 55.863l.914-.414 1.781 3.93 1.332-.606.395.872-2.242 1.02zM45.008 54.887l.851-.535 1.817 2.886c.16.25.289.41.398.489.11.074.23.113.371.109a.8.8 0 0 0 .422-.133.87.87 0 0 0 .32-.348.62.62 0 0 0 .06-.402c-.024-.133-.134-.351-.321-.648l-1.75-2.782.855-.539 1.672 2.66q.422.675.512.985.086.309.027.687-.06.375-.265.668a1.9 1.9 0 0 1-.579.524c-.32.203-.652.308-.984.308a1.5 1.5 0 0 1-.863-.234c-.246-.156-.535-.504-.871-1.035zM50.988 54.348l.89 1.015.188-.16c.313-.277.493-.5.532-.672.039-.176-.008-.336-.137-.488a.65.65 0 0 0-.547-.242q-.322.023-.766.41Zm-1.316-1.516.73.836.164-.14c.184-.16.29-.317.309-.473a.52.52 0 0 0-.14-.434.5.5 0 0 0-.387-.187c-.145.004-.309.078-.48.226Zm2.074 3.914L48.29 52.77l.621-.543q.544-.474.86-.625c.292-.141.582-.192.87-.141.294.05.536.191.739.422q.198.227.266.496.064.27-.012.621.51-.147.898-.035c.262.07.492.226.696.457a1.5 1.5 0 0 1 .359.762c.043.285.016.55-.09.8q-.151.373-.633.793zM10.215 28.102q.552.58.754 1.148.201.57.097 1.363-.175 1.382-1.125 2.16-.943.78-2.261.61-1.348-.175-2.051-1.149-.702-.972-.52-2.367.114-.902.641-1.406l-.332-.941 2.32.3-.027.2a1.93 1.93 0 0 0-1.125.18 2.26 2.26 0 0 0-.824.66 1.67 1.67 0 0 0-.364.835c-.02.14 0 .262.051.36a.43.43 0 0 0 .239.207q.152.051.48.097l3.695.477q.479.058.711-.066.23-.128.278-.497.135-1.032-.797-1.984zM13.586 22.328l-2.274 5.34-.18-.074.259-.614-4.84-2.058-.258.613-.184-.078 2.2-5.172 1.632.695-.074.18c-.379-.137-.781-.113-1.215.078q-.65.282-1.066 1.254l-.043.098 2.258.957.066-.164c.106-.242.102-.496-.004-.77q-.159-.406-.816-.687l.07-.172 2.594 1.101-.074.172c-.375-.16-.703-.191-.992-.097a.93.93 0 0 0-.594.53l-.07.165 2.402 1.023c.242-.57.297-1.125.156-1.664q-.204-.81-.953-1.304l.074-.172zM13.781 16.059l-.91-.774q-.27-.234-.441-.21-.17.021-.422.32l-.188.222 1.817 1.543.097-.117q.296-.346.297-.559c.004-.14-.082-.28-.25-.425m4.004-.497q.674.832-.031 1.665a2.6 2.6 0 0 1-.598.539 1.1 1.1 0 0 1-.586.187q-.298.011-.601-.137-.306-.145-1.168-.882c-.164-.137-.305-.2-.414-.188q-.17.023-.399.293-.137.16-.203.25l2.043 1.734.379-.449.152.13-2.468 2.901-.153-.128.446-.52-4.008-3.41-.442.523-.152-.125 3.133-3.683q.739-.875 1.262-.871.522.001.933.347.37.32.473.746.097.428-.098.891.552-.322.863-.285c.207.023.43.137.66.336l.645.578c.121.101.207.129.254.074q.036-.045.008-.16a.6.6 0 0 0-.11-.23zM20.488 10.582l-.617-1.02q-.186-.304-.355-.34-.166-.028-.5.173l-.246.152 1.234 2.035.133-.078q.387-.24.457-.438t-.106-.484m3.957.79q.382 1-.554 1.57a2.6 2.6 0 0 1-.735.324q-.327.079-.613-.004a1.3 1.3 0 0 1-.531-.32q-.24-.236-.832-1.208-.166-.274-.336-.308-.166-.03-.465.152-.18.112-.274.172l1.391 2.29.504-.306.102.172-3.254 1.977-.106-.168.59-.36-2.734-4.492-.586.356-.102-.168 4.133-2.512q.98-.592 1.473-.43.497.165.777.63.252.415.21.855-.036.435-.37.812.625-.129.91 0 .282.135.523.528l.426.754q.124.202.219.148.046-.03.059-.149a.6.6 0 0 0-.036-.253zM28.684 10.59l-1.047-4.246q-.134-.535-.567-.426c-.316.078-.425.3-.336.676l1.051 4.246q.071.28.207.375.136.092.395.027.435-.106.297-.652m-1.72-4.922q1.47-.364 2.513.215 1.049.574 1.382 1.933.317 1.285-.316 2.301c-.426.676-1.121 1.137-2.086 1.375q-1.453.357-2.523-.222-1.078-.576-1.41-1.93-.33-1.32.34-2.317.66-.997 2.1-1.355M41 11.531l-5.664-1.02.035-.195.684.125.93-5.175-.684-.125.035-.196 3.926.707-.035.196-.747-.133-.93 5.176a2.97 2.97 0 0 0 1.688-.344q.757-.416.934-1.133l.203.035zM45.07 11.262l.325-2.774-.016-.008-2.004 1.942Zm2.301 3.297-3.195-1.582.086-.176.59.289.187-1.621-1.812-.895a1.7 1.7 0 0 0-.286.399 1.17 1.17 0 0 0-.12.773c.046.25.25.461.6.64l-.085.177-2.035-1.004.09-.18q.264.04.664-.172.397-.21.754-.55l3.242-3.06 1.781.883-.66 5.758.289.145zM53.129 14.902l.828-.863q.246-.258.234-.43-.01-.165-.293-.437l-.21-.203-1.649 1.722.11.102c.218.21.398.324.538.332q.213.018.442-.223m.258 4.024q-.873.628-1.664-.133a2.6 2.6 0 0 1-.5-.625 1.1 1.1 0 0 1-.153-.594 1.25 1.25 0 0 1 .172-.594q.165-.299.95-1.113.227-.235.214-.406-.013-.169-.265-.414a9 9 0 0 0-.239-.215l-1.855 1.934.422.406-.137.144-2.746-2.64.137-.14.496.476 3.636-3.797-.492-.477.137-.14 3.488 3.343q.828.797.793 1.317-.03.516-.406.91c-.227.234-.48.375-.77.426q-.432.075-.886-.149.293.569.234.88-.053.304-.371.64l-.617.605c-.113.114-.14.196-.09.246.027.028.082.036.156.024a.6.6 0 0 0 .239-.102zM58.059 24.414l-.196-.36-2.293 1.262.25-.902q-.915-.504-1.484-1.535-.693-1.26-.406-2.457.288-1.194 1.425-1.82a3.2 3.2 0 0 1 1.66-.41q.87.023 1.505.495c.421.32.773.731 1.054 1.243.309.558.434 1.125.38 1.687l.827.528-1.937 1.062-.09-.164q.322-.189.496-.395a2.4 2.4 0 0 0 .332-.617c.102-.277.148-.562.137-.867a1.8 1.8 0 0 0-.227-.828c-.133-.242-.273-.383-.418-.41-.144-.031-.355.027-.625.176l-3.566 1.96q-.54.296-.324.684.245.444.859.11l1.371-.754-.21-.387.163-.09 1.485 2.7zM57.594 29.574l4.277-.887q.541-.11.45-.55-.102-.476-.665-.36l-4.281.887q-.277.062-.379.191-.1.136-.043.395.09.44.64.324m4.976-1.531q.31 1.483-.304 2.504c-.41.68-1.075 1.117-1.985 1.305-.867.18-1.629.043-2.289-.403-.656-.449-1.09-1.164-1.289-2.137q-.304-1.465.313-2.515.62-1.05 1.984-1.332 1.33-.277 2.3.426.973.697 1.27 2.152" style="stroke:none;fill-rule:nonzero;fill:#fff;fill-opacity:1"/><path d="M35.594 43.125q0 2.205.62 2.477.346.157 1.36.156c3.14 0 5.367-.79 6.68-2.36q.61-.719.77-.718.257-.001.257.484.001 1.5-1.164 2.684-1.015 1.043-2.77 1.043c-.242 0-.683-.024-1.324-.063q-.253-.01-1.671-.086l-1.52-.058a38 38 0 0 0-1.742-.036c-1.074 0-2.238.059-3.48.184q-.574.06-.766.059-.406 0-.407-.317 0-.223.364-.304.894-.212 1.238-.82.342-.603.344-1.985V33.62q0-1.882-1.852-2.129l-.832-.117q-.532-.075-.531-.367 0-.363.422-.363.136 0 .402.035.197.012.543.047l.602.035q.85.072 1.265.074.674 0 2.133-.148a26 26 0 0 1 2.219-.098q.834 0 .836.336 0 .288-.598.312-1.399.083-1.398 1.64z" style="stroke:none;fill-rule:nonzero;fill:#19398a;fill-opacity:1"/><path d="M33.457 44.184v-10.98c-.27-1.485-1.254-1.774-2.27-2.005 1.063.34 1.625 1.164 1.625 2.422v9.844c0 1.004-.128 1.722-.398 2.2a1.95 1.95 0 0 1-.766.73c.915-.426 1.774-.91 1.809-2.211m6.453 1.836c1.903-.293 3.38-.98 4.406-2.047.094-.094-.109.695-.742 1.34-.597.613-1.304.769-2.363.769z" style="stroke:none;fill-rule:nonzero;fill:#fff;fill-opacity:1"/><path d="M33.184 20.715q2.88-.001 5.02 1.07l1.015.508q.306.165.554.164.308 0 .461-.219l.325-.418q.076-.105.277-.105.475 0 .477.87l.015.977v1.22l.125 1.019.145.601q.093.444.093.793 0 .509-.433.508-.248.001-.324-.32-.125-.505-.852-1.555-.731-1.044-1.398-1.66-2.68-2.508-5.961-2.508-2.914 0-4.73 2.074-1.817 2.08-1.817 5.395 0 4.326 2.976 6.906 2.234 1.922 4.871 1.922c1.04 0 2.137-.215 3.301-.648q1.74-.645 2.742-1.606l1.004-.945q.211-.216.41-.227.293-.012.293.293 0 .552-1.218 1.754-3.188 3.134-7.871 3.133c-3.016 0-5.47-.84-7.352-2.516q-2.83-2.518-2.828-6.547 0-2.209 1.062-4.324 1.062-2.116 2.832-3.441 2.907-2.168 6.786-2.168" style="stroke:none;fill-rule:nonzero;fill:#19398a;fill-opacity:1"/><path d="M37.188 22.484c.617.371 1.218.828 1.792 1.368.43.398.887.937 1.36 1.597.176.246.465-.3.347-.582-1.027-2.414-2.816-2.328-3.5-2.383m-9.079-.164q-.756.391-1.453.91c-1.12.84-2.027 1.946-2.703 3.29-.676 1.34-1.015 2.73-1.015 4.128 0 2.582.875 4.618 2.68 6.223 1.51 1.348 3.433 2.133 5.73 2.348-8.735-2.043-10.137-11.57-3.239-16.899" style="stroke:none;fill-rule:nonzero;fill:#fff;fill-opacity:1"/></svg>