<svg xmlns="http://www.w3.org/2000/svg" id="Capa_1" data-name="Capa 1" viewBox="0 0 156.9 209.2"><defs><style>.cls-1{fill:#560090}.cls-5{fill:#1d1d1b}</style></defs><path d="M78.32 209.2 0 165.68V0h156.9v165.68z" class="cls-1"/><path d="m78.32 204.39 74.37-41.05V4.32H4.21v159.02z" style="fill:#fff"/><path d="M141.34 127.96a17 17 0 0 1 .13 2.59c-1.41 24.41-20 41.54-45.67 39.69a46 46 0 0 1-16.07-5.17c-11.87 7.52-27.81 6.65-40.31.74-14.67-8.39-22.33-23.06-21.18-37.85H8.67v32.79l69.78 38.45 69.78-38.46v-32.78ZM110.72 23.42l10.97-4.93H35.84l10.59 4.93zM22.83 112.8a39 39 0 0 1 3.19-5.18H8.67v5.18ZM30.36 102.81a58 58 0 0 1 6.38-4.93H8.67v4.93ZM123.9 97.76a46.4 46.4 0 0 1 6 4.93h18.37v-4.93ZM134.07 107.74c1 1.73 2.29 3.46 3.19 5.18h11v-5.18ZM139.17 117.85c.76 1.48 1 3.21 1.66 4.81h7.4v-4.81ZM132.66 13.31l10.97-4.93H14.16l10.59 4.93zM19.26 122.66c.38-1.6.77-3.08 1.28-4.81H8.67v4.81ZM113.15 92.83a53 53 0 0 0-14.25-1.85c-6.38.37-13.65 2.09-19.26 5.67a40.38 40.38 0 0 0-32.4-3.82H8.67v-5.18H63.9l.89-4.93H8.67v-4.93h56.77l.89-5.18H8.67V67.8h58.55l.9-4.93H8.67v-1.23l10.85-4H68.9l.9-4.93H33.04l13.65-4.93h23.72l.39-1.48-9.44-1.6v-1.31l3.54-.49V32.2l-3.32-1.73-4.43-2.27 8.67.37v-2.44h25.64v2.07h8.68l-1.92.86-5.87 3.14v10.7l3.58.49v1.36l-9.32 1.6.13 1.48h23.86l13.39 4.93H87.51l.89 4.93h49l10.85 3.82v1.36H89.29l.9 4.93h58v4.81H90.95l.89 5.18h56.51v4.93H92.61l.89 4.93h54.73v5.18ZM76.9 33.53v-2.22h-7.4v11.1h7.4zm3.57-2.22v11.1h7v-11.1Z" class="cls-1"/><path d="M111.33 123.34a38.4 38.4 0 0 0-27.17-10.85c-21.16 0-38.52 16.51-38.52 37.23A36.6 36.6 0 0 0 57 176a38.85 38.85 0 0 0 27.17 10.85c21.18 0 38.52-16.52 38.52-37a37.24 37.24 0 0 0-11.35-26.5Zm-27.17 61.51a36 36 0 0 1-25.51-10.35 34.12 34.12 0 0 1-10.72-24.66c0-19.47 16.33-35.13 36.23-35.13a37.13 37.13 0 0 1 25.77 10.35A34.76 34.76 0 0 1 120.64 150c-.12 19.1-16.58 34.88-36.48 34.88Z" style="fill:#05a5fc" transform="translate(-25.1 -18.8)"/><path d="M125.36 186.83A39.1 39.1 0 0 1 98.19 176a36.47 36.47 0 0 1 4.72-56.46c.64.49 1.41.86 1.92 1.35a34.57 34.57 0 0 0-15.57 28.71 35.75 35.75 0 0 0 10.46 24.9 37 37 0 0 0 25.52 10.35c20.15 0 36.48-15.78 36.48-35.13A33.68 33.68 0 0 0 151 125.06a36.4 36.4 0 0 0-25.76-10.35 38.16 38.16 0 0 0-18.63 5.05c-.64-.37-1.15-1-1.91-1.35a39.55 39.55 0 0 1 20.54-5.8 38.9 38.9 0 0 1 27.29 10.85 36.4 36.4 0 0 1 11.36 26.26c.12 20.59-17.1 37.11-38.53 37.11" style="fill:#fc0145" transform="translate(-25.1 -18.8)"/><path d="M34.95 140.41v-16.89a2.28 2.28 0 0 1 .64-1.48 2.13 2.13 0 0 1 1.53-.61h5.61c3.06 0 5.23.74 6.76 2.34s2.3 3.94 2.3 7.15a12.7 12.7 0 0 1-.77 4.56 8 8 0 0 1-2.42 3.21 7.8 7.8 0 0 1-2.7 1.35 17 17 0 0 1-4.21.37Zm4-3.33h3.15a5.11 5.11 0 0 0 4.08-1.48c.89-.86 1.27-2.46 1.27-4.68s-.38-3.7-1.27-4.69a4.31 4.31 0 0 0-3.7-1.47h-3.7v12.32ZM71.18 134.62h4a3.3 3.3 0 0 0 1.28 2.34 5.76 5.76 0 0 0 3.19.74 5.33 5.33 0 0 0 2.68-.62 1.85 1.85 0 0 0 .89-1.72c0-1.24-1.66-2.1-5.1-2.84h-.22l-.51-.12a13.3 13.3 0 0 1-3.79-1.2 3 3 0 0 1-1.53-1.73 5 5 0 0 1-.51-2.59 4.93 4.93 0 0 1 1.92-4.19 9.08 9.08 0 0 1 5.61-1.48 7.9 7.9 0 0 1 5.36 1.6 6.16 6.16 0 0 1 2 4.44h-2.3a2 2 0 0 1-1.91-1.11 6.4 6.4 0 0 0-.77-1 4.65 4.65 0 0 0-2.8-.74 4.06 4.06 0 0 0-2.43.61 2.14 2.14 0 0 0-.89 1.73c0 1 1.15 1.72 3.32 2.22a6.5 6.5 0 0 1 1.4.37 14 14 0 0 0 1.78.49c.51.12.9.25 1.28.37a8 8 0 0 0 1.53.62 4.7 4.7 0 0 1 1.79 1.72 5.6 5.6 0 0 1 .63 2.59 5.22 5.22 0 0 1-2 4.56 9.9 9.9 0 0 1-5.86 1.6 9.14 9.14 0 0 1-5.87-1.6 8.3 8.3 0 0 1-2.17-5.06M123.1 133.88a6.89 6.89 0 0 1-2.55 5.18 9.53 9.53 0 0 1-6.13 1.84c-2.93 0-5.23-.86-6.76-2.58s-2.29-4.07-2.29-7.28.76-5.79 2.42-7.39 4-2.59 7-2.59a9.06 9.06 0 0 1 6 1.85 7.36 7.36 0 0 1 2.42 4.93h-2.55a2 2 0 0 1-1.91-1.11 4.9 4.9 0 0 0-1-1.23 5.54 5.54 0 0 0-3.06-.87 5.14 5.14 0 0 0-4.08 1.6 7.5 7.5 0 0 0-1.41 4.81 6.9 6.9 0 0 0 1.41 4.69 4.73 4.73 0 0 0 4 1.72 5.17 5.17 0 0 0 3.06-.86 4.07 4.07 0 0 0 1.53-2.71Z" class="cls-5"/></svg>