<svg xmlns="http://www.w3.org/2000/svg" viewBox="0 0 67.4 90.66"><path d="m337.203 680 168.317-65.926-6.09-204.953c-2.727-91.543-24.18-156.558-59.621-212.262C395.906 127.855 325.188 61.914 252.758 0 180.332 61.914 109.609 127.855 65.707 196.859 30.27 252.563 8.813 317.578 6.09 409.121L0 614.074 168.316 680l84.442-20.914z" style="fill:#2e5099;fill-opacity:1;fill-rule:nonzero;stroke:none" transform="matrix(.13333 0 0 -.13333 0 90.667)"/><path d="m23.02 598.867 5.617-189.07c1.27-42.695 6.715-79.957 16.64-113.918 9.063-30.992 21.973-59.418 39.457-86.91 22.375-35.164 52.379-69.758 85.125-102.68v550.094zM335.652 656.383V106.289c32.75 32.922 62.754 67.516 85.129 102.68 17.489 27.492 30.395 55.918 39.457 86.91 9.93 33.961 15.371 71.223 16.641 113.918l5.621 189.07z" style="fill:#fff;fill-opacity:1;fill-rule:nonzero;stroke:none" transform="matrix(.13333 0 0 -.13333 0 90.667)"/><path d="M115.984 540.645h-.546l-.071-.543c-.176-1.274-.554-2.129-1.035-2.602-.527-.523-1.07-.746-1.769-.758-.418-.012-2.02.442-4.422 1.395-4.274 1.668-8.356 2.508-12.243 2.508-5.242 0-10.218-1.305-14.878-3.903-4.668-2.594-8.391-6.262-11.133-10.965-2.743-4.703-4.125-9.699-4.125-14.953 0-4.984 1.246-9.703 3.718-14.109 2.485-4.426 6.032-7.836 10.602-10.192 4.566-2.359 9.785-3.531 15.621-3.531 4.442 0 8.356.719 11.723 2.184 3.363 1.457 6.582 3.793 9.648 7.004l.176.175v6.59l-1.102-1.273c-3.097-3.602-6.019-6.106-8.746-7.531-2.73-1.442-5.73-2.157-9.035-2.157-4.035.004-7.25.985-9.715 2.911-2.48 1.933-4.32 4.804-5.515 8.679-1.2 3.895-1.805 8.231-1.805 13 0 4.832.828 9.203 2.461 13.125 1.254 3.024 3.223 5.446 5.941 7.321 2.711 1.863 5.66 2.793 8.91 2.793 3.895-.008 7.336-1.247 10.422-3.758 3.059-2.5 5.168-6.098 6.309-10.879l.117-.477h2.672v19.946h-2.18" style="fill:#2e5099;fill-opacity:1;fill-rule:nonzero;stroke:none" transform="matrix(.13333 0 0 -.13333 0 90.667)"/><path d="M255.063 503.773H240.68l7.3 16.395zm22.933-15.554c-1.043.929-2.586 3.551-4.418 7.711l-19.617 44.593h-1.566l-19.457-43.406c-1.817-4.082-3.36-6.762-4.497-7.957-1.152-1.207-2.589-1.937-4.414-2.219l-.531-.078v-2.633h19.192v2.672l-.583.047c-2.769.196-4.542.563-5.015.867-1.039.637-1.504 1.457-1.524 2.805 0 1 .336 2.387 1.067 4.09l2.101 4.867h18.223l2.699-6.34c.739-1.718 1.149-2.789 1.164-2.879a4.8 4.8 0 0 0 .227-1.332c-.016-.644-.203-1.004-.621-1.324-.629-.445-2.012-.762-4.047-.754h-1.699v-2.719h27.34v2.672l-.575.047c-1.55.125-2.675.567-3.449 1.27" style="fill:#fff;fill-opacity:1;fill-rule:nonzero;stroke:none" transform="matrix(.13333 0 0 -.13333 0 90.667)"/><path d="M409.828 539.414v-2.726h2.899c1.437 0 2.531-.25 3.281-.692.812-.473 1.297-.992 1.531-1.523.227-.446.414-2.203.406-4.918v-28.832c.004-5.594-.168-9.063-.441-10.133-.281-1.141-.746-1.906-1.348-2.383-.621-.48-1.398-.734-2.441-.742-1.524.008-2.692.348-3.563.992-.582.438-.773.82-.777 1.285-.027.141.27.918.984 1.938.739 1.097 1.145 1.722 1.317 2.129.222.668.32 1.386.32 2.183.012 1.66-.629 3.141-1.844 4.274-1.211 1.14-2.757 1.722-4.507 1.714-1.793.012-3.379-.648-4.622-1.914-1.265-1.273-1.898-2.972-1.89-4.953-.008-3.101 1.519-5.933 4.414-8.39 2.93-2.5 6.766-3.735 11.402-3.731 3.801 0 7.098.813 9.852 2.457 2.722 1.625 4.668 3.688 5.758 6.172 1.097 2.5 1.597 6.313 1.605 11.527v26.407c-.016 2.664.18 4.375.379 4.754.363.824.812 1.332 1.328 1.621.832.488 1.992.758 3.512.758h2.375v2.726z" style="fill:#2e5099;fill-opacity:1;fill-rule:nonzero;stroke:none" transform="matrix(.13333 0 0 -.13333 0 90.667)"/></svg>