<svg xmlns="http://www.w3.org/2000/svg" fill-rule="evenodd" viewBox="18 162.33 573.59 587.4"><path d="M304.746 749.73c-12.625-25.055-24.067-48.136-46.262-66.583-14.007-11.638-30.282-19.628-49.023-23.968-19.729-4.44-41.134-6.707-61.848-8.877C79.552 643.1 17.803 636.59 18 561.23c.1-34.328 14.401-62.637 30.085-93.708 16.769-33.144 35.215-69.443 36.694-118.665.69-20.616-2.465-45.374-7.792-69.936-7.99-37.582-21.405-70.922-36.398-105.939 43.5 21.602 83.055 40.147 134.643 40.147 51.195 0 91.735-17.262 129.514-50.8 37.878 33.538 78.32 50.8 129.516 50.8 51.587 0 91.241-18.545 134.742-40.147-14.995 35.017-28.409 68.357-36.498 105.939-5.229 24.562-8.383 49.32-7.792 69.936 1.479 49.222 19.924 85.521 36.693 118.665 15.686 31.071 30.086 59.38 30.186 93.708.098 75.36-61.552 81.87-129.615 89.072-20.713 2.17-42.12 4.437-61.846 8.877-18.743 4.34-35.018 12.33-49.026 23.968-22.192 18.447-33.733 41.528-46.36 66.583" style="stroke:none;fill:#000"/><path d="M304.746 706.624c9.076-14.008 19.63-26.04 31.467-35.904 17.36-14.402 37.681-24.464 61.254-29.79a312 312 0 0 1 14.5-2.958c8.287-46.953 49.419-82.759 98.739-82.759 23.771 0 45.77 8.383 63.031 22.391.691-3.948 1.086-8.287 1.086-12.922-.098-29.396-13.515-56.028-28.211-85.127-18.546-36.595-38.965-76.741-40.639-132.967a248 248 0 0 1 0-12.133c-1.975.099-3.947.197-6.018.197-44.782 0-81.379-36.595-81.379-81.377 0-7.694 1.087-15.19 3.157-22.293a613 613 0 0 1-3.748-.295c-42.12-3.552-81.379-18.348-113.239-43.501-31.762 25.153-71.02 39.949-113.14 43.501-1.282.098-2.465.197-3.748.295a83.3 83.3 0 0 1 3.058 22.293c0 44.782-36.497 81.377-81.279 81.377-2.072 0-4.045-.098-6.017-.197q.149 6.216 0 12.133c-1.776 56.226-22.096 96.372-40.64 132.967-14.698 29.099-28.113 55.731-28.211 85.127 0 4.635.395 8.974 1.085 12.922 17.262-14.008 39.16-22.391 63.03-22.391 49.321 0 90.453 35.806 98.74 82.759q7.25 1.33 14.5 2.958c23.476 5.326 43.895 15.388 61.157 29.79 11.935 9.864 22.391 21.896 31.465 35.904" style="stroke:none;fill:#fff"/><path d="M171.583 575.532v-69.838h56.718v16.966h-38.667v7.793h32.255v17.163h-32.255v27.916zM366.693 406.167l-25.548-68.16h19.233l14.6 40.245 14.4-40.245h15.884l14.104 40.343 14.992-40.343h19.137l-26.14 68.16h-16.471l-13.81-38.963-13.909 38.963zM154.715 407.844V336.33h20.419l25.252 46.952 25.251-46.952h19.63v71.514h-18.84v-35.412l-18.545 35.412H192.79l-19.136-35.61-.098 35.61zM398.059 504.806c17.263 0 31.959 10.95 36.497 25.845h-19.234c-3.748-5.031-10.06-7.991-17.263-7.991-11.343 0-19.826 7.893-19.826 17.953 0 10.062 8.483 17.953 19.826 17.953 7.203 0 13.515-2.96 17.263-7.991h19.234c-4.538 14.895-19.234 25.844-36.497 25.844-20.912 0-37.975-16.077-37.975-35.806s17.063-35.807 37.975-35.807M304.746 396.599c18.15 0 34.721 7.496 46.657 19.333 11.935 11.935 19.333 28.408 19.333 46.558s-7.398 34.623-19.333 46.657c-12.035 11.936-28.507 19.432-46.657 19.432-18.05 0-34.524-7.397-46.557-19.432-11.936-11.935-19.334-28.507-19.334-46.657s7.398-34.623 19.334-46.558c12.033-11.837 28.507-19.333 46.557-19.333" style="stroke:none;fill:#000"/><path d="M364.127 461.011c-.195-7.496-1.774-14.697-4.535-21.306-3.059-7.201-7.399-13.711-12.925-19.137-4.34-4.339-9.37-8.088-14.992-10.949-5.327-2.663-11.148-4.537-17.262-5.622-1.086 2.367-1.972 4.635-2.86 7.2a94 94 0 0 0-2.368 7.99c-.197.592-.295 1.184-.493 1.875 7.594 2.565 14.894 6.115 21.8 10.357 7.397 4.439 14.302 9.666 20.416 15.288 2.567 2.467 5.13 4.933 7.399 7.497 2.071 2.27 4.046 4.538 5.82 6.807M351.403 499.185a56.5 56.5 0 0 0 7.594-12.626 56 56 0 0 0 4.341-14.5c-2.17-3.453-4.635-6.806-7.594-10.259-2.861-3.355-6.117-6.707-9.569-9.963-5.721-5.228-12.032-10.062-18.84-14.204a103 103 0 0 0-19.925-9.667c-.888 5.524-1.381 11.146-1.283 16.571 0 5.327.593 10.556 1.578 15.488 6.313 2.564 12.33 6.017 17.952 10.06a96.6 96.6 0 0 1 15.488 14.304c2.071 2.366 3.947 4.931 5.72 7.496 1.678 2.368 3.157 4.834 4.538 7.3M271.111 511.317c4.734 3.355 9.962 5.918 15.585 7.792a58 58 0 0 0 18.05 2.861c7.99 0 15.686-1.577 22.589-4.536 7.2-2.96 13.711-7.3 19.137-12.726a91 91 0 0 0-4.637-7.891c-1.776-2.762-3.749-5.327-5.919-7.792-4.241 3.452-9.568 6.609-15.484 9.469-6.414 3.059-13.614 5.721-20.913 7.792-5.031 1.381-10.062 2.566-15.092 3.354-4.538.79-8.976 1.383-13.316 1.677M248.029 480.049c1.479 4.536 3.452 8.877 5.82 12.823 2.564 4.241 5.622 8.187 9.074 11.64l.099.097c5.129.099 10.752-.394 16.473-1.183 6.017-.888 12.132-2.17 18.05-3.847 6.808-1.973 13.515-4.439 19.432-7.2 5.526-2.565 10.358-5.426 14.206-8.484-3.848-3.65-7.891-7.002-12.33-9.962-4.34-2.959-8.978-5.426-13.711-7.497-5.623 3.55-12.331 6.411-19.63 8.679a118.6 118.6 0 0 1-23.871 4.538c-2.367.199-4.735.296-7.102.396zM269.335 414.946c-.986.789-1.973 1.578-2.861 2.368-1.282.985-2.466 2.169-3.649 3.254-5.426 5.524-9.864 12.034-12.923 19.334-2.86 6.904-4.438 14.598-4.438 22.588 0 1.874 0 3.65.197 5.425.198 1.678.395 3.355.691 5.03 2.367.1 4.734.1 7.102.1 2.465 0 5.03-.198 7.595-.395 1.085-.097 2.17-.197 3.157-.295.888-.1 1.874-.296 2.761-.395-1.479-6.707-2.268-13.81-2.367-21.108-.198-7.597.395-15.29 1.677-22.688a87 87 0 0 1 1.48-7.3c.493-1.972.986-3.945 1.578-5.918M304.746 403.208c-4.439 0-8.975.591-13.316 1.578-4.438.986-8.68 2.564-12.626 4.439q-1.923 4.438-3.255 9.469a93 93 0 0 0-2.367 10.653c-1.283 7.003-1.776 14.303-1.677 21.505.197 6.903.888 13.711 2.367 19.923a97.4 97.4 0 0 0 14.697-4.042c4.44-1.678 8.681-3.551 12.33-5.82-1.38-6.609-1.874-13.711-1.577-20.913.197-7.496 1.282-15.19 3.057-22.588.69-2.466 1.381-5.031 2.269-7.497.788-2.17 1.578-4.438 2.466-6.608h-.888c-.493-.099-.987-.099-1.48-.099" style="stroke:none;fill:#843e41"/></svg>