<svg xmlns="http://www.w3.org/2000/svg" viewBox="0 0 65.75 90.66"><path d="M493.168 680V104.563C493.168 46.816 446.352 0 388.605 0H104.563C46.813 0 0 46.816 0 104.563V680z" style="fill:#29672f;fill-opacity:1;fill-rule:nonzero;stroke:none" transform="matrix(.13333 0 0 -.13333 0 90.667)"/><path d="M483.305 670.137H9.863V104.563c0-52.22 42.48-94.7 94.7-94.7h284.042c52.215 0 94.7 42.48 94.7 94.7z" style="fill:#fff;fill-opacity:1;fill-rule:nonzero;stroke:none" transform="matrix(.13333 0 0 -.13333 0 90.667)"/><path d="M465.219 654.523H25.477V104.566c.007-43.613 35.472-79.078 79.086-79.085h284.046c43.61.007 79.071 35.472 79.079 79.085v549.957z" style="fill:#29672f;fill-opacity:1;fill-rule:nonzero;stroke:none" transform="matrix(.13333 0 0 -.13333 0 90.667)"/><path d="M462.754 649.59V480.094H30.41V649.59zM204.254 475.168V30.414h84.656v444.754zM30.41 475.168V104.566c0-20.449 8.309-38.968 21.742-52.41 13.434-13.43 31.957-21.742 52.411-21.742h15.027v444.754zM373.574 475.168V30.414h15.035c20.446 0 38.965 8.313 52.403 21.742 13.429 13.442 21.742 31.961 21.742 52.41v370.602z" style="fill:#fff;fill-opacity:1;fill-rule:nonzero;stroke:none" transform="matrix(.13333 0 0 -.13333 0 90.667)"/><path d="M235.055 597.164h8.273c.902 0 2.633.289 5.207.867q1.95.393 3.184 1.992 1.235 1.605 1.234 3.684 0 3.081-1.945 4.727c-1.305 1.097-3.746 1.644-7.332 1.644h-8.621zm-19.723-37.801v63.547h32.727q9.1-.002 13.91-1.562c3.207-1.039 5.797-2.969 7.758-5.785q2.95-4.23 2.949-10.293c0-3.528-.75-6.567-2.254-9.125-1.508-2.555-3.57-4.629-6.203-6.219-1.676-1.016-3.977-1.848-6.895-2.512 2.34-.789 4.043-1.562 5.114-2.344.714-.523 1.765-1.636 3.136-3.34 1.375-1.71 2.285-3.023 2.75-3.953l9.508-18.414h-22.184l-10.496 19.422q-1.994 3.772-3.554 4.895-2.125 1.476-4.813 1.476h-1.73v-25.793zM129.469 533.867l17.211-5.207c-1.157-4.82-2.981-8.855-5.465-12.09q-3.729-4.85-9.25-7.328c-3.688-1.644-8.375-2.469-14.07-2.469-6.903 0-12.547 1.004-16.922 3.012-4.38 2.008-8.16 5.535-11.34 10.59q-4.765 7.582-4.766 19.406c0 10.512 2.793 18.586 8.39 24.239q8.386 8.465 23.731 8.464c8 0 14.297-1.617 18.875-4.851 4.582-3.238 7.981-8.207 10.207-14.914l-17.34-3.856c-.605 1.938-1.242 3.348-1.906 4.246-1.097 1.504-2.437 2.657-4.031 3.469q-2.379 1.214-5.332 1.215-6.672-.002-10.227-5.371c-1.796-2.656-2.687-6.824-2.687-12.512 0-7.039 1.066-11.867 3.207-14.48 2.141-2.614 5.141-3.914 9.016-3.914 3.757 0 6.593 1.05 8.519 3.164 1.918 2.105 3.316 5.168 4.18 9.187M336.82 571.402h25.825l9.957-38.664 9.886 38.664h25.809v-63.547h-16.078v48.461l-12.395-48.461H365.27l-12.372 48.461v-48.461H336.82zM246.586 359.277c-56.328-.004-101.984-45.664-101.984-101.988 0-56.328 45.656-101.984 101.984-101.984 56.324 0 101.984 45.656 101.984 101.984 0 56.324-45.66 101.984-101.984 101.988" style="fill:#000;fill-opacity:1;fill-rule:nonzero;stroke:none" transform="matrix(.13333 0 0 -.13333 0 90.667)"/><path d="m270.543 184.512-22.605 9.093v21.915l37.957 27.57 20.839-6.774 1.661-24.3zM222.633 184.512l-37.86 27.504 1.665 24.3 20.835 6.774 37.957-27.57v-21.915zM223.188 330.25h46.792l12.942-20.641-12.883-17.73h-46.91l-12.879 17.726zM308.746 302.078l14.457-44.5-15.629-18.683-20.844 6.773-14.5 44.613 12.887 17.731zM208.059 308.012l12.879-17.731-14.497-44.613-20.843-6.773-15.633 18.687 14.461 44.496zM167.813 255.934l15.941-19.059-1.691-24.789-16.567-12.031c-11.199 15.828-17.875 35.074-18.152 55.879zM309.414 236.871l15.941 19.063h20.469c-.277-20.805-6.953-40.051-18.152-55.883l-16.563 12.035zM326.098 316.734l-16.582-12.046-24.094 6.042-13.203 21.055 6.332 19.488a99.25 99.25 0 0 0 38.23-23.789 99 99 0 0 0 9.317-10.75M176.387 327.484a99.2 99.2 0 0 0 38.238 23.789l6.328-19.488-13.199-21.055-24.102-6.042-16.582 12.046a100 100 0 0 0 9.317 10.75M217.191 162.441l6.34 19.512 23.055 9.274 23.055-9.274 6.336-19.512c-9.289-2.875-19.157-4.421-29.391-4.421s-20.106 1.546-29.395 4.421" style="fill:#fff;fill-opacity:1;fill-rule:nonzero;stroke:none" transform="matrix(.13333 0 0 -.13333 0 90.667)"/></svg>