<svg xmlns="http://www.w3.org/2000/svg" viewBox="123.24 106.9 326.25 368.61"><path fill="#008d39" d="m286.363 475.501-6.099-3.137c-21.954-10.978-43.125-24.48-62.465-41.556-19.514-17.077-37.026-37.723-51.662-62.901-13.853-23.871-25.004-51.836-32.496-85.29-7.318-33.019-11.152-71.438-10.28-116.48l.262-14.897 14.811 1.481c40.074 4.008 68.65-.349 90.169-8.277 21.17-7.84 36.155-19.515 49.048-30.231l8.713-7.317 8.711 7.317c12.894 10.716 27.879 22.391 49.049 30.231 21.518 7.928 50.095 12.285 90.169 8.277l14.811-1.481.261 14.897c.871 45.042-2.962 83.461-10.28 116.48-7.492 33.454-18.643 61.418-32.496 85.29-14.636 25.179-32.146 45.824-51.66 62.901-19.342 17.075-40.513 30.578-62.466 41.556z"/><path fill="#e30a17" d="m286.363 468.791-3.398-1.741c-21.518-10.803-42.253-24.044-61.245-40.771-18.993-16.728-36.155-36.854-50.443-61.419-13.59-23.35-24.48-50.705-31.799-83.549-7.23-32.495-10.977-70.394-10.106-115.085l.087-8.451 8.364.871c41.121 4.182 70.567-.349 92.87-8.625 22.128-8.103 37.549-20.212 50.791-31.188l4.879-4.095 4.878 4.095c13.244 10.977 28.664 23.086 50.791 31.188 22.303 8.276 51.748 12.807 92.869 8.625l8.364-.871.087 8.451c.871 44.692-2.875 82.591-10.105 115.085-7.318 32.844-18.209 60.199-31.8 83.549-14.286 24.565-31.449 44.691-50.442 61.419-18.99 16.728-39.727 29.969-61.244 40.771z"/><path fill="#008d39" d="M286.363 451.454c19.079-9.931 37.548-21.865 54.449-36.763 17.859-15.683 33.977-34.587 47.306-57.499 12.807-22.13 23.174-48.091 30.057-79.192 6.534-29.184 10.106-63.249 9.845-103.324-39.553 3.049-68.649-1.743-91.302-10.106-21.693-8.103-37.287-19.167-50.354-29.796-13.068 10.629-28.663 21.693-50.356 29.796-22.651 8.363-51.749 13.155-91.301 10.106-.262 40.075 3.311 74.14 9.845 103.324 6.882 31.102 17.249 57.062 30.056 79.192 13.33 22.912 29.447 41.816 47.307 57.499 16.899 14.898 35.369 26.832 54.448 36.763"/><path fill="#e30a17" d="M301.607 435.949c10.63-6.447 20.909-13.679 30.666-21.868v-70.13a83.4 83.4 0 0 1-30.666 12.346zm30.666-266.675c-11.847-4.618-21.866-10.019-30.666-15.769v37.574a83.4 83.4 0 0 1 30.666 12.342zm30.668 8.625v61.404a83.25 83.25 0 0 1 7.405 34.341 83.45 83.45 0 0 1-7.405 34.392v75.029c7.229-8.798 13.852-18.469 19.949-28.924a220 220 0 0 0 10.716-20.733V181.384c-11.15-.523-21.343-1.742-30.665-3.485m-91.824-24.393c-8.798 5.75-18.817 11.151-30.666 15.769v34.147a83.5 83.5 0 0 1 30.666-12.342zm-30.666 260.575c9.757 8.189 20.038 15.421 30.666 21.868v-79.652a83.4 83.4 0 0 1-30.666-12.349zm-30.667-174.777V177.9c-9.322 1.743-19.515 2.962-30.666 3.485v152.024a221 221 0 0 0 10.716 20.733c6.099 10.455 12.719 20.126 19.95 28.924v-75.029a83.4 83.4 0 0 1-7.405-34.392 83.2 83.2 0 0 1 7.405-34.341"/><path fill="#fff" d="M286.363 352.487c-43.386 0-78.844-35.371-78.844-78.843 0-43.386 35.458-78.844 78.844-78.844 43.384 0 78.843 35.458 78.843 78.844 0 43.472-35.459 78.843-78.843 78.843"/><path fill="#008d39" d="M233.22 273.645c0 14.723 6.099 28.139 15.769 37.722l6.011-6.098c-7.144-7.144-11.936-16.727-12.98-27.356h35.806v48.874h8.539V220.588c-9.583 0-18.645 2.527-26.397 7.057-15.946 9.234-26.748 26.397-26.748 46m44.605-43.648v39.378h-35.806c1.219-12.807 8.015-24.133 17.947-31.45 5.14-3.921 11.238-6.622 17.859-7.928m17.076-26.049v8.625c6.185.871 12.021 2.7 17.509 5.227v119.529h8.539v-114.65c7.317 4.966 13.504 11.5 18.121 18.992l7.317-4.355a70.3 70.3 0 0 0-51.486-33.368"/><path fill="#008d39" d="M216.057 273.645c0 29.357 18.208 54.624 43.909 65.076 8.102 3.398 17.075 5.228 26.397 5.228v-8.536c-9.409 0-18.383-2.179-26.397-6.012-20.821-9.931-35.284-31.188-35.284-55.756 0-24.481 14.463-45.738 35.284-55.67 8.015-3.833 16.988-6.012 26.397-6.012v-8.538c-9.322 0-18.296 1.83-26.397 5.227-25.701 10.455-43.909 35.719-43.909 64.993"/></svg>