<svg xmlns="http://www.w3.org/2000/svg" xml:space="preserve" viewBox="9.54 107.99 774.63 906.49"><defs><clipPath id="a" clipPathUnits="userSpaceOnUse"><path d="M0 841.89h595.28V0H0Z"/></clipPath></defs><g clip-path="url(#a)" transform="matrix(1.33333 0 0 -1.33333 0 1122.52)"><path d="M0 0c0-44.528-10.767-85.698-63.759-123.561-53.015-37.861-99.989-61.432-226.691-109.365-126.701 47.933-173.675 71.504-226.691 109.365C-570.133-85.698-580.899-44.528-580.899 0c0 44.527 30.524 127.588 30.524 127.588s16.114 48.389 17.936 55.199c1.822 6.834 7.049 25.009 5.467 59.658-1.607 34.648-33.929 70.136-33.929 70.136s11.797 113.898 12.708 123.585 10.599 8.919 10.599 8.919c8.8 0 9.255-8.775 9.255-8.775 0-11.822 11.054-11.366 11.054-11.366s11.342 1.078 11.342 10.622c0 9.519 10.455 9.519 10.455 9.519 8.632 0 9.543-9.831 9.543-9.831s.144-10.31 14.243-10.31c14.075 0 14.986 10.166 14.986 10.166 0 13.476 12.877 11.678 12.877 11.678 11.653 0 11.006-14.723 11.006-14.723v-17.552l61.073.144v16.042h162.62v-16.042l61.074-.144v17.552s-.648 14.723 11.005 14.723c0 0 12.876 1.798 12.876-11.678 0 0 .912-10.166 14.988-10.166 14.098 0 14.242 10.31 14.242 10.31s.912 9.831 9.544 9.831c0 0 10.454 0 10.454-9.519 0-9.544 11.342-10.622 11.342-10.622s11.054-.456 11.054 11.366c0 0 .456 8.775 9.255 8.775 0 0 9.688.768 10.599-8.919s12.709-123.585 12.709-123.585-32.323-35.488-33.93-70.136c-1.582-34.649 3.645-52.824 5.467-59.658 1.822-6.81 17.937-55.199 17.937-55.199S0 44.527 0 0" style="fill:#fff;fill-opacity:1;fill-rule:nonzero;stroke:none" transform="translate(588.09 313.99)"/><path d="M0 0c0-44.528-10.767-85.698-63.759-123.561-53.015-37.861-99.989-61.432-226.691-109.365-126.701 47.933-173.675 71.504-226.691 109.365C-570.133-85.698-580.899-44.528-580.899 0c0 44.527 30.524 127.588 30.524 127.588s16.114 48.389 17.936 55.199c1.822 6.834 7.049 25.009 5.467 59.658-1.607 34.648-33.929 70.136-33.929 70.136s11.797 113.898 12.708 123.585 10.599 8.919 10.599 8.919c8.8 0 9.255-8.775 9.255-8.775 0-11.822 11.054-11.366 11.054-11.366s11.342 1.078 11.342 10.622c0 9.519 10.455 9.519 10.455 9.519 8.632 0 9.543-9.831 9.543-9.831s.144-10.31 14.243-10.31c14.075 0 14.986 10.166 14.986 10.166 0 13.476 12.877 11.678 12.877 11.678 11.653 0 11.006-14.723 11.006-14.723v-17.552l61.073.144v16.042h162.62v-16.042l61.074-.144v17.552s-.648 14.723 11.005 14.723c0 0 12.876 1.798 12.876-11.678 0 0 .912-10.166 14.988-10.166 14.098 0 14.242 10.31 14.242 10.31s.912 9.831 9.544 9.831c0 0 10.454 0 10.454-9.519 0-9.544 11.342-10.622 11.342-10.622s11.054-.456 11.054 11.366c0 0 .456 8.775 9.255 8.775 0 0 9.688.768 10.599-8.919s12.709-123.585 12.709-123.585-32.323-35.488-33.93-70.136c-1.582-34.649 3.645-52.824 5.467-59.658 1.822-6.81 17.937-55.199 17.937-55.199S0 44.527 0 0Z" style="fill:none;stroke:#bb292a;stroke-width:.1;stroke-linecap:butt;stroke-linejoin:miter;stroke-miterlimit:10;stroke-dasharray:none;stroke-opacity:1" transform="translate(588.09 313.99)"/><path d="M0 0q0-8.089-1.198-13.079t-4.255-8.72q-2.174-2.697-4.661-4.36t-5.176-2.337q-2.69-.675-5.784-.675-8.952 0-14.921 7.372-3.537 4.315-4.494 9.799t-.958 13.933v4.406q0 8.45.958 13.956a20.9 20.9 0 0 0 4.494 9.821q3.059 3.73 6.595 5.529 3.537 1.796 8.326 1.797 9.579 0 14.756-6.248 5.176-6.247 6.244-15.462h-13.312q-.811 3.867-2.581 5.619-1.77 1.753-5.125 1.753-3.393 0-5.2-2.877-.665-1.034-1.088-2.539-.423-1.507-.645-4.63-.22-3.124-.221-8.922 0-5.798.221-8.944.222-3.147.645-4.675.423-1.53 1.088-2.562 1.77-2.787 5.2-2.787 3.871 0 5.899 2.606 2.029 2.473 2.028 6.968v.944h-7.927V9.125H0Z" style="fill:#292929;fill-opacity:1;fill-rule:nonzero;stroke:none" transform="translate(170.904 534.005)"/><path d="M0 0h-36.543v65.534H0V51.195h-23.343V40.228h19.95V25.89h-19.95V14.338H0z" style="fill:#292929;fill-opacity:1;fill-rule:nonzero;stroke:none" transform="translate(216.592 505.374)"/><path d="M0 0h-11.542l-17.22 32.947V0h-13.201v65.534h11.546l17.216-32.947v32.947H0Z" style="fill:#292929;fill-opacity:1;fill-rule:nonzero;stroke:none" transform="translate(267.92 505.374)"/><path d="M0 0h-36.541v65.534H0V51.195h-23.34V40.228h19.949V25.89H-23.34V14.338H0Z" style="fill:#292929;fill-opacity:1;fill-rule:nonzero;stroke:none" transform="translate(315.377 505.374)"/><path d="M0 0a7.9 7.9 0 0 1-.684 3.27q-.684 1.523-1.995 2.441-1.313.919-3.05.918h-7.508V-6.586h7.508q1.737 0 3.05.918a5.87 5.87 0 0 1 1.995 2.42Q.001-1.748 0 0m16.043-44.431H.773l-9.535 24.407h-4.475v-24.407h-13.2v65.534h21.292c3.858 0 7.159-.982 9.911-2.945q4.126-2.943 6.282-7.753 2.153-4.81 2.154-10.383 0-6.157-2.555-10.541-2.555-4.382-6.198-6.584z" style="fill:#292929;fill-opacity:1;fill-rule:nonzero;stroke:none" transform="translate(351.183 549.806)"/><path d="m0 0-4.535 17.485L-9.366 0Zm19.764-23.193H5.974l-2.508 9.754h-16.558l-2.618-9.754h-13.827l19.543 65.534H.221Z" style="fill:#292929;fill-opacity:1;fill-rule:nonzero;stroke:none" transform="translate(398.053 528.567)"/><path d="M0 0h-35.769v65.534h13.201V14.338H0z" style="fill:#292929;fill-opacity:1;fill-rule:nonzero;stroke:none" transform="translate(459.043 505.374)"/><path d="M0 0q-.745-5.467-2.685-9.777-1.938-4.311-4.819-7.091t-6.485-4.147q-3.606-1.366-7.679-1.365-9.522-.001-15.871 7.726-3.761 4.524-4.78 10.272t-1.019 14.607v4.618q0 8.858 1.019 14.63t4.78 10.295q3.215 3.865 7.053 5.772 3.841 1.91 8.818 1.909 4.269 0 7.836-1.39 3.565-1.39 6.387-4.147 2.821-2.756 4.76-7.02Q-.745 30.627 0 25.067h-14.276q-.746 3.346-2.411 5.349-1.669 2.001-4.923 2.002-1.805 0-3.236-.801-1.43-.8-2.294-2.074-.746-1.13-1.196-2.709-.451-1.578-.706-4.806t-.255-9.494q0-8.34.51-11.71.51-3.368 1.647-5.253 1.883-2.921 5.53-2.921 3.178 0 4.882 2.002Q-15.021-3.345-14.276 0z" style="fill:#292929;fill-opacity:1;fill-rule:nonzero;stroke:none" transform="translate(118.285 439.182)"/><path d="m0 0-4.824 18.329L-9.961 0Zm21.022-24.313H6.354L3.687-14.088h-17.609l-2.785-10.225h-14.708l20.788 68.699H.235Z" style="fill:#292929;fill-opacity:1;fill-rule:nonzero;stroke:none" transform="translate(151.307 441.68)"/><path d="M0 0q0 2.487-1.215 4.225-1.217 1.735-3.923 1.736h-9.49V-6.054h9.49q2.667 0 3.903 1.783Q-.001-2.489 0 0m-.823 26.717q0 2.299-1.197 3.941-1.196 1.642-3.862 1.643h-8.746V21.133h8.746q2.587 0 3.823 1.642t1.236 3.942M14.04-.979q0-4.849-1.332-8.617-1.333-3.767-3.722-6.358a15.66 15.66 0 0 0-5.721-3.931q-3.331-1.341-7.053-1.342h-24.881v68.699h23.706q5.797 0 9.912-2.475 4.114-2.476 6.211-6.978 2.096-4.504 2.096-10.444 0-4.998-2.04-8.416t-4.235-5.163q2.824-2.025 4.941-5.345t2.118-9.63" style="fill:#292929;fill-opacity:1;fill-rule:nonzero;stroke:none" transform="translate(206.803 438.593)"/><path d="m0 0-4.824 18.329L-9.961 0Zm21.022-24.313H6.354L3.687-14.088h-17.609l-2.784-10.225h-14.708l20.787 68.699H.235Z" style="fill:#292929;fill-opacity:1;fill-rule:nonzero;stroke:none" transform="translate(256.18 441.68)"/><path d="M0 0h-38.042v68.699h14.04V15.031H0z" style="fill:#292929;fill-opacity:1;fill-rule:nonzero;stroke:none" transform="translate(321.049 417.367)"/><path d="M0 0h-38.042v68.699h14.04V15.031H0z" style="fill:#292929;fill-opacity:1;fill-rule:nonzero;stroke:none" transform="translate(367.326 417.367)"/><path d="M0 0h-38.866v68.699H0V53.667h-24.826V42.171h21.218v-15.03h-21.218v-12.11H0z" style="fill:#292929;fill-opacity:1;fill-rule:nonzero;stroke:none" transform="translate(414.43 417.367)"/><path d="M0 0q0 1.83-.729 3.427-.73 1.598-2.124 2.559-1.395.963-3.245.964h-7.982V-6.903h7.982q1.85 0 3.245.963A6.17 6.17 0 0 1-.729-3.405 8 8 0 0 1 0 0m17.059-46.577H.819L-9.322-20.992h-4.758v-25.585h-14.041v68.699h22.648q6.15 0 10.54-3.087 4.387-3.085 6.681-8.128Q14.038 5.865 14.04.023q0-6.455-2.719-11.05-2.718-4.593-6.592-6.902z" style="fill:#292929;fill-opacity:1;fill-rule:nonzero;stroke:none" transform="translate(452.513 463.944)"/><path d="M0 0q0 8.764-.49 11.968t-1.59 4.901q-.784 1.319-2.295 2.168-1.51.847-3.353.847-1.803 0-3.254-.824a6.8 6.8 0 0 1-2.354-2.191q-.707-1.085-1.157-2.662-.45-1.58-.686-4.853-.235-3.276-.234-9.354 0-6.031.234-9.306.236-3.275.686-4.829.45-1.556 1.157-2.639 2.002-3.11 5.608-3.11 3.65 0 5.648 3.11 1.1 1.837 1.59 4.924T0 0m14.04 0v-2.309q0-5.749-.333-9.894a35 35 0 0 0-1.587-8.011 20.9 20.9 0 0 0-3.841-6.973q-3.173-3.817-6.994-5.772-3.822-1.955-8.992-1.955-3.487 0-6.289.872a18 18 0 0 0-5.173 2.567q-2.372 1.696-4.486 4.288-3.762 4.524-4.78 10.271-1.018 5.749-1.018 14.607v4.618q0 8.858 1.018 14.63t4.78 10.295q3.25 3.912 7.034 5.796 3.779 1.885 8.914 1.885 5.17 0 8.974-1.909 3.8-1.907 7.012-5.772a20.8 20.8 0 0 0 3.841-6.996 35.3 35.3 0 0 0 1.587-8.034q.332-4.147.333-9.895z" style="fill:#292929;fill-opacity:1;fill-rule:nonzero;stroke:none" transform="translate(504.361 451.716)"/><path d="M0 0v-18.871h-117.518c1.127 11.15 1.966 19.35 2.182 21.652.911 9.688 10.599 8.92 10.599 8.92 8.799 0 9.255-8.776 9.255-8.776 0-11.821 11.054-11.365 11.054-11.365s11.342 1.078 11.342 10.622c0 9.519 10.455 9.519 10.455 9.519 8.631 0 9.543-9.831 9.543-9.831s.144-10.31 14.243-10.31c14.075 0 14.986 10.166 14.986 10.166 0 13.476 12.877 11.678 12.877 11.678C-1.487 13.404-.168 3.621 0 0" style="fill:#bb292a;fill-opacity:1;fill-rule:nonzero;stroke:none" transform="translate(155.233 747.375)"/><path d="M0 0v-9.688h-119.772c.336 3.334.671 6.571 1.007 9.688z" style="fill:#bb292a;fill-opacity:1;fill-rule:nonzero;stroke:none" transform="translate(155.233 716.227)"/><path d="M0 0h-119.796v9.688H-1.008C-.672 6.57-.336 3.333 0 0" style="fill:#bb292a;fill-opacity:1;fill-rule:nonzero;stroke:none" transform="translate(559.82 706.54)"/><path d="M0 0h-117.542v17.959c0 2.398.527 14.316 11.006 14.316 0 0 12.876 1.798 12.876-11.678 0 0 .911-10.166 14.987-10.166 14.099 0 14.242 10.31 14.242 10.31s.912 9.831 9.544 9.831c0 0 10.454 0 10.454-9.519 0-9.544 11.342-10.622 11.342-10.622s11.055-.456 11.055 11.365c0 0 .455 8.776 9.255 8.776 0 0 9.687.768 10.598-8.92C-1.967 19.351-1.127 11.15 0 0" style="fill:#bb292a;fill-opacity:1;fill-rule:nonzero;stroke:none" transform="translate(557.565 728.504)"/><path d="M0 0c0-44.528-10.767-85.698-63.759-123.561-11.221-8.008-22.179-15.394-33.665-22.491-21.101-13.045-44.049-25.153-73.853-38.605-14.532-6.571-30.669-13.452-49.036-20.909-15.778-6.403-33.186-13.237-52.584-20.669a3971 3971 0 0 0-17.553-6.691c-11.006 4.172-21.436 8.153-31.292 11.989-19.566 7.578-36.998 14.532-52.704 21.053-18.487 7.697-34.601 14.795-49.059 21.629-29.446 13.884-52.034 26.688-73.83 41.074-6.618 4.365-13.164 8.897-19.806 13.62C-570.133-85.698-580.899-44.528-580.899 0c0 44.527 30.524 127.588 30.524 127.588s16.114 48.389 17.936 55.199c1.822 6.834 7.049 25.009 5.467 59.658-1.607 34.648-33.929 70.136-33.929 70.136l6.953 67.164h121.091V274.336h-15.011c-12.3 0-22.299-9.975-22.299-22.3v-64.837h-34.169c-1.967 0-3.885-.264-5.684-.768-9.063-2.494-15.705-10.79-15.705-20.621v-62.704c0-11.821 9.567-21.388 21.389-21.388h7.001v-186.887c22.971-16.329 44.792-29.781 73.83-44.12V81.718h49.059V40.691c-22.683-21.701-36.806-52.273-36.806-86.154 0-33.882 14.123-64.454 36.806-86.154v-39.901c15.514-6.545 32.874-13.546 52.704-21.244v31.795a120 120 0 0 1 29.709-3.717c6.522 0 12.901.528 19.136 1.536v-34.914c19.614 7.53 36.998 14.388 52.584 20.791v36.542c28.87 21.772 47.525 56.349 47.525 95.266s-18.655 73.493-47.525 95.266v31.915h49.036v-237.673c29.9 13.979 52.129 26.616 73.853 41.194V81.718h20.597c11.821 0 21.389 9.567 21.389 21.388v62.704c0 9.735-6.522 17.96-15.442 20.549-1.871.552-3.885.84-5.947.84h-34.026v64.837c0 12.325-9.999 22.3-22.299 22.3h-14.914v105.409h121.114l6.954-67.164s-32.323-35.488-33.93-70.136c-1.582-34.649 3.645-52.824 5.467-59.658 1.822-6.81 17.937-55.199 17.937-55.199S0 44.527 0 0" style="fill:#bb292a;fill-opacity:1;fill-rule:nonzero;stroke:none" transform="translate(588.09 313.99)"/><path d="M0 0v-9.495a120 120 0 0 1-19.135 1.534 120 120 0 0 1-29.709-3.716V0Z" style="fill:#bb292a;fill-opacity:1;fill-rule:nonzero;stroke:none" transform="translate(315.192 395.708)"/><path d="m0 0-24.673 22.684 23.618 22.108c4.701-6.522 7.434-14.531 7.434-23.164A39.7 39.7 0 0 0 0 0m-2.613-3.597-25.297 23.26 1.175 1.103L-1.63-2.326a25 25 0 0 0-.983-1.271m-3.022-3.26-25.512 23.474 1.15 1.103L-4.508-5.707a17 17 0 0 0-1.127-1.15m-27.646-11.27c-9.592 0-18.416 3.404-25.274 9.111l25.201 23.595L-7.841-8.872a39.47 39.47 0 0 0-25.44-9.255M-61.864-5.922l25.201 23.547 1.176-1.08-25.25-23.594c-.383.359-.767.743-1.127 1.127m-2.901 3.357 24.818 23.211 1.175-1.104-24.986-23.355c-.336.408-.671.816-1.007 1.248m-8.176 24.193c0 8.465 2.637 16.33 7.145 22.78l23.714-21.796L-66.443-.167c-4.125 6.258-6.498 13.739-6.498 21.795m9.998 26.377 24.218-22.252-1.174-1.103-24.075 22.156c.336.407.672.815 1.031 1.199m3.117 3.189 24.363-22.396-1.176-1.103-24.338 22.372c.384.384.768.743 1.151 1.127m26.545 10.191c8.991 0 17.312-2.997 23.978-8.105l-24.098-22.564-24.243 22.276c6.714 5.276 15.179 8.393 24.363 8.393m27.43-11.054-24.241-22.66-1.175 1.103 24.218 22.66c.407-.336.816-.72 1.198-1.103m3.022-3.237-23.978-22.42-1.199 1.079 24.122 22.563c.36-.383.719-.791 1.055-1.222m-30.452 25.609c-28.127 0-50.93-22.876-50.93-51.075 0-28.222 22.803-51.097 50.93-51.097S17.673-6.594 17.673 21.628c0 28.199-22.828 51.075-50.954 51.075" style="fill:#bb292a;fill-opacity:1;fill-rule:nonzero;stroke:none" transform="translate(323.536 613.647)"/><path d="M0 0v-105.409h-70.257v51.266c0 29.229-25.13 50.186-53.855 54.143z" style="fill:#bb292a;fill-opacity:1;fill-rule:nonzero;stroke:none" transform="translate(427.843 693.735)"/><path d="M0 0c-28.702-3.957-53.855-24.914-53.855-54.143v-51.266h-56.182V0Z" style="fill:#bb292a;fill-opacity:1;fill-rule:nonzero;stroke:none" transform="translate(277.57 693.735)"/><path d="M0 0v-21.988h-260.309V0l48.796.12v16.042h162.62V.12Z" style="fill:#bb292a;fill-opacity:1;fill-rule:nonzero;stroke:none" transform="translate(427.843 728.528)"/><path d="M0 0c0-61.727-50.038-111.765-111.764-111.765S-223.528-61.727-223.528 0c0 61.726 50.039 111.764 111.764 111.764C-50.038 111.764 0 61.726 0 0" style="fill:#292929;fill-opacity:1;fill-rule:nonzero;stroke:none" transform="translate(407.87 268.717)"/><path d="m0 0 38.649 37.509 40.404-6.501 6.36-50.26-34.188-35.835S35.21-48.045 6.36-43.274z" style="fill:#fff;fill-opacity:1;fill-rule:nonzero;stroke:none" transform="translate(213.759 306.54)"/><path d="m0 0-.192-5.348-44.959-18.415-42.035 7.026V.407a103.85 103.85 0 0 0 43.162 9.352C-28.295 9.759-13.38 6.258 0 0" style="fill:#fff;fill-opacity:1;fill-rule:nonzero;stroke:none" transform="translate(340.13 363.002)"/><path d="m0 0-16.881 3.045-32.946 44.888.168 4.915C-27.407 41.794-9.712 23.019 0 0" style="fill:#fff;fill-opacity:1;fill-rule:nonzero;stroke:none" transform="translate(392.043 309.051)"/><path d="M0 0c0-15.25-3.285-29.733-9.16-42.777-4.268.911-19.111 3.884-29.11 3.596 0 0-8.176 39.756-9.543 43.257l22.708 37.263 17.935-3.285C-2.542 26.257 0 13.428 0 0" style="fill:#fff;fill-opacity:1;fill-rule:nonzero;stroke:none" transform="translate(400.147 268.72)"/><path d="M0 0s8.973-38.277 9.087-43.161c0 0-5.566-2.953-35.438-35.664 0 0-20.785-.455-46.682 9.881 0 0-2.612 23.057-11.244 46.228l34.188 36.233S-1.136.795 0 0" style="fill:#fff;fill-opacity:1;fill-rule:nonzero;stroke:none" transform="translate(350.51 272.238)"/><path d="M0 0s-6.258-2.733-13.524-34.073c0 0-.863-.936-5.203.982-4.772 11.942-7.409 24.986-7.409 38.653 0 13.141 2.446 25.706 6.882 37.263h12.876z" style="fill:#fff;fill-opacity:1;fill-rule:nonzero;stroke:none" transform="translate(218.2 263.157)"/><path d="M0 0c-16.881 10.935-30.381 26.664-38.581 45.247h3.764S-18.583 15.49-.288 5.611z" style="fill:#fff;fill-opacity:1;fill-rule:nonzero;stroke:none" transform="translate(239.493 181.438)"/><path d="M0 0a104 104 0 0 0-33.162-5.396c-19.83 0-38.341 5.54-54.119 15.155l-.408 7.097s14.195 3.861 35.224 14.148c0 0 22.252-8.681 46.686-9.472z" style="fill:#fff;fill-opacity:1;fill-rule:nonzero;stroke:none" transform="translate(329.268 170.073)"/></g></svg>