<svg xmlns="http://www.w3.org/2000/svg" fill-rule="evenodd" viewBox="68.96 165.66 460.15 511.04"><path d="M299.032 165.661c-100.358 0-230.076 46.85-230.076 140.549 0 128.659 78.239 370.492 230.076 370.492S529.108 434.869 529.108 306.21c0-93.699-129.717-140.549-230.076-140.549" style="stroke:none;fill:#00569f"/><path d="M226.236 634.018a83 83 0 0 1 3.781-3.475c.611-.528.448-2.99-.251-3.721-69.186-72.05-108.027-243.909-95.239-372.862l-39.995 25.757c-7.545 115.177 39.342 288.31 128.037 354.302.705.524 3.144.512 3.667-.001" style="stroke:none;fill:#ffec00"/><path d="M255.51 611.108c-34.58-72.162-52.258-221.081-52.258-311.447 0-.605.013-1.198.017-1.799-13.527 4.602-25.527 10.154-35.582 16.451 2.468 93.468 27.837 235.607 75.134 302.004 1.578 1.926 4.289 2.944 6.142 1.689a101 101 0 0 1 4.857-2.272c2.315-.93 2.22-3.522 1.69-4.626M289.604 602.341c-6.346-74.898-9.589-215.83-9.589-302.68 0-5.461.043-10.745.12-15.873-14.138.769-27.734 2.386-40.554 4.746a342 342 0 0 0-.186 11.127c0 88.037 10.447 231.646 30.894 305.717.95 2.793 4.515 3.672 6.169 3.348 2.704-.526 5.453-.962 8.244-1.299 3.52-.212 5.034-3.536 4.902-5.086M299.032 200.459l8.123 24.102 25.43.277-20.411 15.171 7.596 24.272-20.738-14.724-20.738 14.724 7.597-24.272-20.411-15.171 25.43-.277zM208.451 211.811l8.123 24.101 25.43.277-20.411 15.172 7.595 24.271-20.737-14.723-20.736 14.723 7.595-24.271-20.412-15.172 25.431-.277zM371.828 634.018a81 81 0 0 0-3.781-3.475c-.611-.528-.448-2.99.252-3.721 69.187-72.05 108.026-243.909 95.238-372.862l39.995 25.757c7.546 115.177-39.342 288.31-128.036 354.302-.706.524-3.145.512-3.668-.001" style="stroke:none;fill:#ffec00"/><path d="M342.554 611.108c34.581-72.162 52.258-221.081 52.258-311.447 0-.605-.011-1.198-.017-1.799 13.529 4.602 25.528 10.154 35.584 16.451-2.469 93.468-27.839 235.607-75.135 302.004-1.579 1.926-4.288 2.944-6.142 1.689a102 102 0 0 0-4.857-2.272c-2.315-.93-2.22-3.522-1.691-4.626M308.46 602.341c6.347-74.898 9.589-215.83 9.589-302.68 0-5.461-.043-10.745-.119-15.873 14.139.769 27.734 2.386 40.553 4.746.118 3.633.186 7.335.186 11.127 0 88.037-10.447 231.646-30.894 305.717-.949 2.793-4.513 3.672-6.169 3.348a116 116 0 0 0-8.242-1.299c-3.522-.212-5.035-3.536-4.904-5.086M389.613 211.811l-8.121 24.101-25.431.277 20.411 15.172-7.594 24.271 20.735-14.723 20.737 14.723-7.594-24.271 20.412-15.172-25.432-.277z" style="stroke:none;fill:#ffec00"/><path d="M400.907 421.488c0 56.264-45.612 101.875-101.875 101.875S197.16 477.752 197.16 421.488c0-56.262 45.61-101.872 101.872-101.872s101.875 45.61 101.875 101.872" style="stroke:none;fill:#ffec00"/><path d="M233.758 421.488c0 2.779.195 5.514.534 8.202h30.552c-.634-2.637-1.007-5.373-1.007-8.202v-8.2h-12.973c1.676-9.868 6.318-18.735 12.973-25.655v-21.075c-18.073 11.621-30.079 31.895-30.079 54.93M284.89 421.488c0 3.061.988 5.887 2.644 8.202h59.67a49 49 0 0 1-1.392 5.939h16.937a65.3 65.3 0 0 0 1.56-14.141c0-2.78-.197-5.513-.535-8.2H284.89zM253.024 437.952h-17.158c7.319 28.048 32.86 48.809 63.166 48.809 23.038 0 43.311-12.005 54.931-30.079h-21.077c-8.789 8.459-20.721 13.676-33.854 13.676-21.171 0-39.233-13.533-46.008-32.406M345.042 405.022H362.2c-7.316-28.045-32.859-48.81-63.168-48.81-4.857 0-9.584.552-14.142 1.561v16.94a48.6 48.6 0 0 1 14.142-2.097c21.172 0 39.235 13.538 46.01 32.406" style="stroke:none;fill:#00569f"/><path d="M367.928 437.952h-68.896c-9.078 0-16.466-7.384-16.466-16.464v-69.726a71.2 71.2 0 0 0-16.404 6.086v63.64c0 18.124 14.747 32.869 32.87 32.869h63.643a71 71 0 0 0 6.083-16.405z" style="stroke:none;fill:#00569f"/><path d="M377.434 437.952h-6.287c-7.513 32.893-36.983 57.518-72.115 57.518-40.793 0-73.98-33.19-73.98-73.982 0-40.795 33.187-73.979 73.98-73.979 35.132 0 64.602 24.62 72.115 57.513h16.741c-7.764-42.001-44.641-73.916-88.856-73.916-49.837 0-90.384 40.542-90.384 90.382 0 49.839 40.547 90.385 90.384 90.385 44.215 0 81.092-31.922 88.856-73.921z" style="stroke:none;fill:#00569f"/></svg>