<svg xmlns="http://www.w3.org/2000/svg" viewBox="16.39 8.4 478.5 495.15"><g fill="none" stroke="#e08d92" stroke-width="2"><path d="M397.24 90.02q23.47-7 40.41-24.7a.09.09 0 0 0-.1-.14c-4.53 2.23-9.14 1.85-13.87 1.52q-2.29-.16-.22-1.14c17.33-8.15 32.95-22.48 38.68-41.31q.17-.55-.39-.4-20.96 5.56-39.25 6.61c-33.41 1.92-67.61 2.18-99.92 12.13q-22.57 6.95-41.21 22.24-.39.32-.63-.11c-11.65-20.14-38.78-20.46-50.06-.01q-.28.51-.74.14-22.19-18.12-47.19-24.05c-28.7-6.82-57.12-8.8-86.49-9.95q-23.77-.94-46.59-6.93-.7-.18-.48.51c6.17 19.13 21.42 32.94 39.66 41.64q.72.34-.07.47c-4.64.76-10.05.74-14.45-1.04q-.6-.24-.15.23 16.76 17.46 40.03 24.26.41.12 0 .2-7.11 1.46-14.35.94-1.15-.09-.24.63 18.9 14.86 43.01 16.8.54.04.38.56-1.67 5.21-6.25 8.19a.4.39 42.7 0 0 .03.68c13.65 7.4 29.15 9.23 44.43 7.29q.69-.08.34.51-3.14 5.4-8.63 8.41a.35.35 0 0 0 .08.64c28.88 7.45 49.49-5.45 71.1-22.24q3.19-2.48 5.92-3.18c5.67-1.45 11.95-1.01 16.71 2.76 21.7 17.18 41.6 29.36 70.99 22.99q1.82-.39.2-1.3-5.25-2.92-8.16-8.15-.27-.49.29-.43c16 1.6 30.14.23 44.45-7.17a.52.52 0 0 0 .04-.89q-4.5-2.96-6.18-8.07-.18-.55.39-.59 24.14-1.96 43.04-16.84.73-.57-.2-.54-7.25.23-14.35-.89a.15.14-47.9 0 1-.01-.28" vector-effect="non-scaling-stroke"/><path d="M211.83 424.19q-22.37-13.7-46.59-23.67c-15.26-6.28-26.4-12.06-38.64-20.61q-.6-.41-.6-1.14V125a1.56 1.55-74.8 0 0-.76-1.34C90.13 102.69 57.43 70.88 40.6 32.98q-.42-.93-.64.06-7.1 32.11-9.94 65.13-4.26 49.64-.65 99.32c2.88 39.62 11.03 78.37 27.9 115q28.11 60.99 86.18 91.18 4.67 2.42 18.26 8.08c37.28 15.51 71.29 36.41 93.71 70.76a.3.29 44.6 0 0 .49 0c22.28-33.59 55.93-55.42 93.21-70.66q13.99-5.71 18.35-7.93c83.59-42.43 111.39-133.06 115.46-220.17 2.36-50.32-.69-101.83-11.57-151.1a.19.19 0 0 0-.36-.04c-17.21 38.2-49.18 69.61-84.73 91q-.77.47-.77 1.38v254q0 .46-.38.72-17.14 11.95-36.37 19.93c-17.31 7.16-33.46 14.84-49.42 24.77a.22.22 0 0 1-.33-.19V144.97q0-.51-.47-.69-17.67-6.97-32.59-19.03c-4.85-3.93-15.9-3.84-20.74.15q-14.65 12.05-32.6 18.88-.35.14-.35.52v279.16q0 .49-.42.23" vector-effect="non-scaling-stroke"/><path d="M278.19 77.67a22.5 22.5 0 0 0-22.5-22.5 22.5 22.5 0 0 0-22.5 22.5 22.5 22.5 0 0 0 22.5 22.5 22.5 22.5 0 0 0 22.5-22.5" vector-effect="non-scaling-stroke"/></g><path fill="#fff" d="M228.53 49c16.7-14.49 37.33-14.29 54.25-.05q.41.34.85.04 21.37-14.2 46.09-20.1 6.49-1.55 19.63-3.77c23.04-3.89 44.29-4.4 66.65-5.63q10.49-.58 17.46-1.45c14.8-1.85 28.62-5.8 42.53-9.61a.84.84 0 0 1 1.04.59q11.81 43.17 15.44 87.76c9.36 115.04-3.65 261.98-123.81 319.12q-.9.43-18.44 7.76c-32.92 13.76-65.59 34.62-85.04 65.31q-6.39 10.08-9.15 14.32-.34.52-.67 0c-5.07-7.86-10.47-16.77-15.56-23.39-17.69-23.06-42.64-39.83-68.84-51.82-10.42-4.77-22.56-9.27-31.51-13.81q-57.16-28.99-87.25-86.51C31.87 288.9 21.85 245.01 18.39 201.5q-6.47-81.43 8.02-159.51 2.61-14.09 8.19-33.2.14-.49.63-.36Q45.89 11.19 56.24 14c16.12 4.38 33.9 5.41 53 6.08q31.05 1.09 63.49 6.95 30.39 5.49 55.12 22.01.35.24.68-.04m168.71 41.02q23.47-7 40.41-24.7a.09.09 0 0 0-.1-.14c-4.53 2.23-9.14 1.85-13.87 1.52q-2.29-.16-.22-1.14c17.33-8.15 32.95-22.48 38.68-41.31q.17-.55-.39-.4-20.96 5.56-39.25 6.61c-33.41 1.92-67.61 2.18-99.92 12.13q-22.57 6.95-41.21 22.24-.39.32-.63-.11c-11.65-20.14-38.78-20.46-50.06-.01q-.28.51-.74.14-22.19-18.12-47.19-24.05c-28.7-6.82-57.12-8.8-86.49-9.95q-23.77-.94-46.59-6.93-.7-.18-.48.51c6.17 19.13 21.42 32.94 39.66 41.64q.72.34-.07.47c-4.64.76-10.05.74-14.45-1.04q-.6-.24-.15.23 16.76 17.46 40.03 24.26.41.12 0 .2-7.11 1.46-14.35.94-1.15-.09-.24.63 18.9 14.86 43.01 16.8.54.04.38.56-1.67 5.21-6.25 8.19a.4.39 42.7 0 0 .03.68c13.65 7.4 29.15 9.23 44.43 7.29q.69-.08.34.51-3.14 5.4-8.63 8.41a.35.35 0 0 0 .08.64c28.88 7.45 49.49-5.45 71.1-22.24q3.19-2.48 5.92-3.18c5.67-1.45 11.95-1.01 16.71 2.76 21.7 17.18 41.6 29.36 70.99 22.99q1.82-.39.2-1.3-5.25-2.92-8.16-8.15-.27-.49.29-.43c16 1.6 30.14.23 44.45-7.17a.52.52 0 0 0 .04-.89q-4.5-2.96-6.18-8.07-.18-.55.39-.59 24.14-1.96 43.04-16.84.73-.57-.2-.54-7.25.23-14.35-.89a.15.14-47.9 0 1-.01-.28M211.83 424.19q-22.37-13.7-46.59-23.67c-15.26-6.28-26.4-12.06-38.64-20.61q-.6-.41-.6-1.14V125a1.56 1.55-74.8 0 0-.76-1.34C90.13 102.69 57.43 70.88 40.6 32.98q-.42-.93-.64.06-7.1 32.11-9.94 65.13-4.26 49.64-.65 99.32c2.88 39.62 11.03 78.37 27.9 115q28.11 60.99 86.18 91.18 4.67 2.42 18.26 8.08c37.28 15.51 71.29 36.41 93.71 70.76a.3.29 44.6 0 0 .49 0c22.28-33.59 55.93-55.42 93.21-70.66q13.99-5.71 18.35-7.93c83.59-42.43 111.39-133.06 115.46-220.17 2.36-50.32-.69-101.83-11.57-151.1a.19.19 0 0 0-.36-.04c-17.21 38.2-49.18 69.61-84.73 91q-.77.47-.77 1.38v254q0 .46-.38.72-17.14 11.95-36.37 19.93c-17.31 7.16-33.46 14.84-49.42 24.77a.22.22 0 0 1-.33-.19V144.97q0-.51-.47-.69-17.67-6.97-32.59-19.03c-4.85-3.93-15.9-3.84-20.74.15q-14.65 12.05-32.6 18.88-.35.14-.35.52v279.16q0 .49-.42.23"/><path fill="#ff1004" d="M397.25 90.3q7.1 1.12 14.35.89.93-.03.2.54-18.9 14.88-43.04 16.84-.57.04-.39.59 1.68 5.11 6.18 8.07a.52.52 0 0 1-.04.89c-14.31 7.4-28.45 8.77-44.45 7.17q-.56-.06-.29.43 2.91 5.23 8.16 8.15 1.62.91-.2 1.3c-29.39 6.37-49.29-5.81-70.99-22.99-4.76-3.77-11.04-4.21-16.71-2.76q-2.73.7-5.92 3.18c-21.61 16.79-42.22 29.69-71.1 22.24a.35.35 0 0 1-.08-.64q5.49-3.01 8.63-8.41.35-.59-.34-.51c-15.28 1.94-30.78.11-44.43-7.29a.4.39 42.7 0 1-.03-.68q4.58-2.98 6.25-8.19.16-.52-.38-.56-24.11-1.94-43.01-16.8-.91-.72.24-.63 7.24.52 14.35-.94.41-.08 0-.2-23.27-6.8-40.03-24.26-.45-.47.15-.23c4.4 1.78 9.81 1.8 14.45 1.04q.79-.13.07-.47c-18.24-8.7-33.49-22.51-39.66-41.64q-.22-.69.48-.51 22.82 5.99 46.59 6.93c29.37 1.15 57.79 3.13 86.49 9.95q25 5.93 47.19 24.05.46.37.74-.14c11.28-20.45 38.41-20.13 50.06.01q.24.43.63.11 18.64-15.29 41.21-22.24c32.31-9.95 66.51-10.21 99.92-12.13q18.29-1.05 39.25-6.61.56-.15.39.4c-5.73 18.83-21.35 33.16-38.68 41.31q-2.07.98.22 1.14c4.73.33 9.34.71 13.87-1.52a.09.09 0 0 1 .1.14q-16.94 17.7-40.41 24.7a.15.14-47.9 0 0 .01.28M278.19 77.67a22.5 22.5 0 0 0-22.5-22.5 22.5 22.5 0 0 0-22.5 22.5 22.5 22.5 0 0 0 22.5 22.5 22.5 22.5 0 0 0 22.5-22.5"/><path fill="#ff1004" d="M212.25 423.96V144.8q0-.38.35-.52 17.95-6.83 32.6-18.88c4.84-3.99 15.89-4.08 20.74-.15q14.92 12.06 32.59 19.03.47.18.47.69v279.25a.22.22 0 0 0 .33.19c15.96-9.93 32.11-17.61 49.42-24.77q19.23-7.98 36.37-19.93.38-.26.38-.72v-254q0-.91.77-1.38c35.55-21.39 67.52-52.8 84.73-91a.19.19 0 0 1 .36.04c10.88 49.27 13.93 100.78 11.57 151.1-4.07 87.11-31.87 177.74-115.46 220.17q-4.36 2.22-18.35 7.93c-37.28 15.24-70.93 37.07-93.21 70.66a.3.29 44.6 0 1-.49 0c-22.42-34.35-56.43-55.25-93.71-70.76q-13.59-5.66-18.26-8.08-58.07-30.19-86.18-91.18c-16.87-36.63-25.02-75.38-27.9-115q-3.61-49.68.65-99.32 2.84-33.02 9.94-65.13.22-.99.64-.06c16.83 37.9 49.53 69.71 84.64 90.68A1.56 1.55-74.8 0 1 126 125v253.77q0 .73.6 1.14c12.24 8.55 23.38 14.33 38.64 20.61q24.22 9.97 46.59 23.67.42.26.42-.23"/><circle cx="255.69" cy="77.67" r="22.5" fill="#fff"/></svg>