<svg xmlns="http://www.w3.org/2000/svg" width="793.928" height="1122.52"><path d="M428.005 165.19c20.396 15.803 65.047 56.412 90.588 142.59 12.309 41.53 11.76 93.162 20.58 162.436 7.079 55.597 18.375 167.396 18.375 167.396l-133.77 110.25-42.997-24.439-86.055 41.895-86.056-41.895-42.997 24.439-133.77-110.25s11.296-111.799 18.375-167.396c8.82-69.274 8.272-120.907 20.58-162.435 25.54-86.179 70.192-126.788 90.588-142.59s133.28-101.063 133.28-101.063 112.882 85.26 133.279 101.063" style="fill:#234ea7;fill-opacity:1;fill-rule:nonzero;stroke:none" transform="matrix(1.33333 0 0 -1.33333 -.667 1121.853)"/><path d="M294.726 74.261c-21.858 16.514-110.623 83.603-128.328 97.32-27.679 21.446-64.86 62.544-87.271 138.16-7.597 25.633-10.658 56.84-13.476 85.014-2.056 20.563-4.978 50.585-8.207 75.95-6.207 48.753-16.24 139.66-18.375 160.598l128.993 106.453 42.385-23.643 84.279 42.212 84.278-42.212 42.386 23.643 128.992-106.453c-2.134-20.937-12.168-111.845-18.375-160.597-3.23-25.366-6.15-55.388-8.207-75.95-2.818-28.175-5.879-59.382-13.475-85.015-22.41-75.616-59.593-116.714-87.272-138.16-17.705-13.717-106.47-80.806-128.327-97.32" style="fill:#172358;fill-opacity:1;fill-rule:nonzero;stroke:none" transform="matrix(1.33333 0 0 -1.33333 -.667 1121.853)"/><path d="M420.41 186.504c38.465 29.4 58.535 70.474 70.07 100.695 12.25 32.095 16.17 55.861 20.58 96.041 3.441 31.36 17.64 148.716 17.64 148.716H60.752S74.95 414.599 78.392 383.24c4.41-40.18 8.33-63.946 20.58-96.04 11.534-30.222 31.604-71.296 70.07-100.696 48.47-37.047 125.684-95.305 125.684-95.305s77.214 58.258 125.684 95.305" style="fill:#fff;fill-opacity:1;fill-rule:nonzero;stroke:none" transform="matrix(1.33333 0 0 -1.33333 -.667 1121.853)"/><path d="M178.756 197.756c-35.492 27.504-54.01 65.93-64.654 94.203-11.303 30.025-14.92 52.26-18.989 89.85-1.866 17.247-7.165 62.302-11.214 96.507h421.653c-4.05-34.205-9.347-79.26-11.214-96.507-4.069-37.59-7.686-59.825-18.988-89.85-10.643-28.274-29.163-66.7-64.654-94.203-44.724-34.66-115.97-89.162-115.97-89.162s-71.247 54.502-115.97 89.162" style="fill:#ed1443;fill-opacity:1;fill-rule:nonzero;stroke:none" transform="matrix(1.33333 0 0 -1.33333 -.667 1121.853)"/><path d="m215.102 699.535-39.446 22.05-122.745-99.96H536.54l-122.745 99.96-39.445-22.05-79.624 40.425z" style="fill:#fff;fill-opacity:1;fill-rule:nonzero;stroke:none" transform="matrix(1.33333 0 0 -1.33333 -.667 1121.853)"/><path d="m245.36 675.28-10.168-4.164-3.186-3.063 6.37-9.432-63.086 25.97-11.516-24.378-15.14 15.484-1.67-.343-5.362-11.711-42.14-15.68-1.312-.265 78.243 64.333 69.923-36.541zM298.401 639.633l-4.9 23.765 17.028 20.335v2.083l-4.165 10.78 14.823-15.435-19.233 36.015 33.565-24.5 2.205 4.9 12.985-1.96-3.43-14.7-.403-1.174 21.838 14.649-73.988 36.505-73.99-36.505 33.746-17.156-.67 1.108-7.84 10.903 2.204.122 13.475-6.492 23.52 9.065 6.86-12.25-11.392-13.353-.613-.49 18.62-27.563zM330.496 660.826l56.963 14.087 7.228-15.435 15.557 18.13 16.782-23.153-1.347-9.187 15.802 10.78 62.72-19.6 2.04-1.033-93.182 76.616-84.83-51.717z" style="fill:#234ea7;fill-opacity:1;fill-rule:nonzero;stroke:none" transform="matrix(1.33333 0 0 -1.33333 -.667 1121.853)"/><path d="m105.703 540.53-6.39 29.415H93.43V540.53h-9.737v72.828h19.069c7.404 0 11.157-4.16 11.157-12.476v-17.954c0-6.39-1.927-10.345-5.781-12.07l6.796-30.328zM93.43 578.263h6.39c2.942 0 4.362 1.724 4.362 5.274v15.722c0 3.55-1.42 5.274-4.362 5.274h-6.39zM159.668 540.53h-9.737v60.352c0 8.317 3.855 12.476 11.665 12.476h7.302c7.811 0 11.665-4.16 11.665-12.476V540.53h-9.737v26.677h-11.158zm11.158 35.501v24.242q0 4.26-4.26 4.26h-2.638q-4.26 0-4.26-4.26v-24.242zM237.667 613.358h9.737V540.53h-9.737v14.505l-10.447 33.168V540.53h-9.738v72.828h9.738l10.447-35.197zM297.916 604.533c-2.536 0-3.855-1.42-3.855-4.26v-46.658c0-2.84 1.42-4.26 4.362-4.26h6.492v17.741h-5.258v9.24h14.994l.102-35.806h-18.765c-7.81 0-11.664 4.16-11.664 12.375v48.078c0 8.216 3.854 12.375 11.664 12.375h6.914c7.81 0 11.665-4.16 11.665-12.375v-8.161h-9.737v7.451c0 2.84-1.42 4.26-4.362 4.26zM350.964 540.53v72.828h24.211v-8.74h-14.474v-22.246h12.662v-8.74H360.7v-24.361h14.474v-8.74zM432.208 540.53l-6.39 29.415h-5.883V540.53h-9.738v72.828h19.07c7.404 0 11.156-4.16 11.156-12.476v-17.954c0-6.39-1.927-10.345-5.781-12.07l6.796-30.328zm-12.273 37.733h6.39c2.942 0 4.361 1.724 4.361 5.274v15.722c0 3.55-1.42 5.274-4.36 5.274h-6.391zM505.343 552.804c0-8.216-4.164-12.274-11.974-12.274h-5.984c-7.81 0-11.665 4.463-11.665 13.39v3.912h9.738v-3.828c0-2.947 1.014-4.421 2.94-4.421h4.16c1.926 0 2.941 1.474 2.839 4.42v12.218c.015 2.187-.913 2.874-2.434 3.615l-12.273 7.046c-4.36 2.688-4.671 4.45-4.671 7.88v16.12c0 8.317 4.063 12.476 11.872 12.476h5.861c7.81 0 11.665-4.16 11.665-12.476v-7.019h-9.738v5.874c.102 3.095-.913 4.569-3.042 4.569h-3.528c-2.232 0-3.246-1.621-3.145-4.716v-11.841c-.015-1.968 1.218-2.893 2.941-3.733l12.173-6.72c3.55-1.961 4.265-3.454 4.265-7.561zM450.67 597.462h7.717l6.706 12.404h-9.554z" style="fill:#fff;fill-opacity:1;fill-rule:nonzero;stroke:none" transform="matrix(1.33333 0 0 -1.33333 -.667 1121.853)"/><path d="M164.516 519.277h4.685v-25.909h-6.063v19.11l-4.043-2.572-2.573 3.766zM427.973 519.277h4.686v-25.909h-6.065v19.11l-4.042-2.572-2.573 3.766zM259.269 508.895c0-2.419-2.057-4.38-4.594-4.38-2.536 0-4.593 1.961-4.593 4.38s2.057 4.38 4.593 4.38 4.594-1.961 4.594-4.38m1.776-11.117c2.512 3.553 4.962 7.473 4.977 11.117.024 5.975-3.874 10.565-11.224 10.565-7.657 0-11.469-4.59-11.469-10.565s3.812-10.015 11.224-10.015l-7.398-10.106h7.704s3.675 5.452 6.186 9.004M347.32 505.07c2.8-1.731 4.603-4.45 4.603-7.51 0-5.227-5.27-9.465-11.774-9.465-6.502 0-11.773 4.238-11.773 9.466 0 3.06 1.805 5.78 4.605 7.51l-.256.25c-1.802 1.527-2.91 3.608-2.91 5.902 0 4.685 4.626 8.482 10.334 8.482 5.71 0 10.337-3.797 10.337-8.482 0-2.278-1.093-4.347-2.873-5.87zm-7.172 9.002c-2.283 0-4.133-1.7-4.133-3.798s1.85-3.797 4.133-3.797c2.285 0 4.135 1.7 4.135 3.797s-1.85 3.798-4.135 3.798m0-11.85c-2.457 0-4.449-1.728-4.449-3.86 0-2.133 1.992-3.862 4.45-3.862s4.45 1.729 4.45 3.861-1.992 3.86-4.45 3.86M263.52 178.604v-19.661h-20.152v62.353h41.436v-19.08H263.52v-4.501h19.167v-19.111ZM345.289 172.632c-5.804-8.623-15.841-14.669-27.027-14.669-17.852 0-32.325 12.784-32.325 32.28 0 19.492 14.473 32.278 32.325 32.278 11.157 0 21.217-5.93 27.027-14.517l-17.012-11.177c-2.078 3.805-5.904 6.357-10.28 6.357-6.594 0-11.94-5.126-11.94-12.941 0-7.817 5.346-12.943 11.94-12.943 4.365 0 8.182 2.539 10.264 6.327z" style="fill:#172358;fill-opacity:1;fill-rule:nonzero;stroke:none" transform="matrix(1.33333 0 0 -1.33333 -.667 1121.853)"/><path d="M281.864 218.356v-13.2H260.58v-10.382h19.167v-13.23H260.58v-19.66h-14.271v56.472zM288.877 190.243c0 17 12.358 29.338 29.385 29.338 8.67 0 17.13-4.113 22.766-10.858l-11.994-7.88c-2.793 3.3-6.791 5.281-11.036 5.281-8.483 0-14.88-6.828-14.88-15.881 0-9.055 6.397-15.883 14.88-15.883 4.238 0 8.235 1.98 11.028 5.274l11.995-7.745c-5.66-6.825-14.118-10.985-22.76-10.985-17.026 0-29.384 12.338-29.384 29.339" style="fill:#fff;fill-opacity:1;fill-rule:nonzero;stroke:none" transform="matrix(1.33333 0 0 -1.33333 -.667 1121.853)"/><path d="M385.06 347.37c0-49.902-40.448-90.334-90.334-90.334s-90.334 40.432-90.334 90.333c0 49.902 40.448 90.335 90.334 90.335s90.335-40.433 90.335-90.335" style="fill:#172358;fill-opacity:1;fill-rule:nonzero;stroke:none" transform="matrix(1.33333 0 0 -1.33333 -.667 1121.853)"/><path d="M376.862 347.37c0-45.374-36.777-82.136-82.136-82.136s-82.136 36.762-82.136 82.135 36.778 82.137 82.136 82.137c45.359 0 82.136-36.763 82.136-82.137" style="fill:#234ea7;fill-opacity:1;fill-rule:nonzero;stroke:none" transform="matrix(1.33333 0 0 -1.33333 -.667 1121.853)"/><path d="M293.195 407.281s-2.112-13.138-2.48-24.346c0 0-19.754-9.74-28.666-16.814 0 0-18.925 8.27-22.233 9.739 0 0-.735 12.495 4.134 22.51 0 0 8.728 8.82 24.99 15.71 0 0 14.792-.918 24.255-6.799M272.891 415.55s2.205 3.859 6.615 6.523c0 0 10.29 1.93 26.92-.276 11.218-1.486 19.752-7.166 19.752-7.166s-1.102-4.593-2.02-6.615c0 0-6.891 2.297-14.517 2.297s-13.23-1.653-13.23-1.653-3.167 3.212-11.025 5.236c-6.064 1.563-12.495 1.654-12.495 1.654M346.574 382.475s-1.837 6.155-7.074 12.495c-3.61 4.371-9.83 9.464-9.83 9.464.46 2.02 1.01 8.176 1.01 8.176s14.516-9.188 23.337-19.937 10.657-20.213 10.29-26c0 0-5.88 8.176-17.733 15.802M329.21 327.625s1.654 4.778 1.562 13.415c-.092 8.635-1.286 20.396-1.286 20.396 10.382 7.626 17.456 16.72 17.456 16.72s10.75-5.879 18.467-16.629c0 0 2.572-12.402 1.195-28.94 0 0-4.41-11.025-17.365-19.478 0 0-7.166 5.513-20.029 14.516M293.104 378.524s-24.44-13.505-28.666-16.997c0 0-1.377-11.116-.092-32.799 0 0 12.68-10.29 29.676-18.375 0 0 22.234 9.83 30.686 17.089 0 0 .184 23.336-.827 33.442 0 0-12.678 9.004-30.777 17.64M241.377 396.9s-4.685-12.128-4.685-23.337c0 0-8.452-6.063-12.219-23.152 0 0-3.767.367-6.248 1.378 0 0 .092 12.77 5.513 26.276 5.42 13.506 12.311 18.926 12.311 18.926s3.216-.092 5.328-.092M217.95 347.287s.826-14.516 6.247-27.563c5.42-13.046 10.933-19.11 17.089-21.59 0 0-4.226 9.004-4.778 21.04 0 0-8.544 9.463-11.943 25.357 0 0-3.4 1.102-6.616 2.756M261.866 323.675s-9.096-4.043-22.142-6.89c0 0 .551-12.863 4.226-20.948 0 0 12.128-10.75 26.185-16.538 0 0 16.537-1.102 24.07 4.043 0 0-2.02 15.068-2.663 22.417 0 0-18.834 8.361-29.676 17.916M297.514 281.78s12.862-2.48 29.307 1.378c0 0 1.378-1.93 1.93-3.491 0 0-13.69-6.523-27.47-7.534-13.782-1.01-21.959 2.021-26.369 5.237 0 0 13.506-.276 22.602 4.41M348.137 308.056s-5.421-12.954-15.895-21.958c0 0 .643-1.837 2.297-3.583 0 0 16.446 11.485 24.163 23.612 7.718 12.127 8.177 15.894 6.983 20.764 0 0-8.085-11.944-17.548-18.835" style="fill:#fff;fill-opacity:1;fill-rule:nonzero;stroke:none" transform="matrix(1.33333 0 0 -1.33333 -.667 1121.853)"/><path d="M258.834 360.793s-15.251 7.441-20.672 9.922c0 0-8.177-8.085-12.036-23.796 0 0 3.767-14.148 11.301-24.254 0 0 12.404 2.664 21.683 6.063 0 0-.368 19.11-.276 32.065M298.157 406.271s-1.379-15.527-1.379-23.612c0 0 19.57-9.923 29.033-15.987 0 0 11.3 7.259 17.273 15.252 0 0-2.94 11.025-17.365 23.888 0 0-13.414 3.123-27.562.459M268.39 415.459s-11.945-4.687-23.889-14.425c0 0-2.848-.184-4.961-.46 0 0 10.106 11.944 32.524 19.57 0 0-2.48-2.756-3.675-4.685M325.995 322.021s-7.718-6.431-28.022-15.894c0 0 .367-13.322 2.389-22.142 0 0 13.69-1.286 27.746 1.011 0 0 13.046 10.75 16.629 23.244 0 0-7.074 7.258-18.742 13.781M367.246 367.867s3.768-8.36 3.86-20.948c.091-12.586-1.195-16.997-2.297-19.753l-.736 5.146s.827 6.155.736 14.607c-.092 8.453-1.93 14.976-1.93 14.976zM240.827 294.734s10.75-12.402 29.95-19.018l-.918 2.39s-13.965 5.603-25.725 16.078zM98.15 647.698l-8.335-6.852 49.582 11.772 9.8 7.105 13.72-8.943 13.23 3.063 3.797 19.968 60.148-17.028-3.676 11.883 9.9 6.824-.957-.21-10.167-4.164-3.186-3.063 6.37-9.432-63.086 25.97-11.516-24.378-15.14 15.484-1.67-.343-5.362-11.711-42.14-15.68zM298.401 639.633l-4.9 23.765 17.028 20.335v2.083l-4.165 10.78 14.823-15.435-19.233 36.015 33.565-24.5 2.205 4.9 12.985-1.96-3.43-14.7-.403-1.174-2.537 15.016h-4.165l-5.39-8.207-18.013 14.203-.556-.442 12.2-29.441-15.436 9.065-11.883-13.353-2.45-28.298zM280.026 665.848l2.206 16.66-.98.123-5.758-11.148-20.457 10.903-.555-5.151-.67 1.108-7.84 10.903 2.204.122 13.475-6.492 23.52 9.065 6.86-12.25-11.392-13.353zM330.496 660.826l56.963 14.087 7.228-15.435 15.557 18.13 16.782-23.153-1.347-9.187 15.802 10.78 62.72-19.6 2.04-1.033-61.697 13.283-20.702-6.247-10.046 19.477-21.682-9.555v6.126l-15.19 8.451-33.32-7.717-15.375 1.081z" style="fill:#172358;fill-opacity:1;fill-rule:nonzero;stroke:none" transform="matrix(1.33333 0 0 -1.33333 -.667 1121.853)"/><path d="M328.054 431.358c-10.312 4.095-21.557 6.346-33.328 6.346-11.72 0-22.918-2.231-33.194-6.293l-.026 1.044v44.437l.023 1.424h66.456l-.04-1.178v-44.591zM327.952 183.095c-2.138-3.492-5.798-5.795-9.954-5.795-6.595 0-11.94 5.126-11.94 12.943 0 7.815 5.345 12.941 11.94 12.941 4.156 0 7.816-2.303 9.954-5.795l-.008-.654V183.75z" style="fill:#fee425;fill-opacity:1;fill-rule:nonzero;stroke:none" transform="matrix(1.33333 0 0 -1.33333 -.667 1121.853)"/><path d="M327.946 221a31.7 31.7 0 0 1-9.684 1.521c-17.852 0-32.325-12.786-32.325-32.278 0-19.496 14.473-32.28 32.325-32.28 3.379 0 6.652.552 9.736 1.559l-.054-.702v-23.091l.01-1.677c-19.35-14.841-33.228-25.458-33.228-25.458s-13.86 10.602-33.19 25.428l-.03 1.585v22.418l.024.918h1.99v19.661h19.167v19.11H263.52v4.502h21.284v19.08h-23.336l.039.858v39.872l-.03 1.326c10.29-4.077 21.51-6.316 33.25-6.316 11.719 0 22.916 2.231 33.192 6.292l.026-.934v-40.73zM195.063 185.145a11043 11043 0 0 0-16.307 12.611c-23.02 17.84-38.901 40.273-50.123 61.552l.001 1.31v216.335l.043 1.363h66.395l-.002-1.363V186.69zM394.38 186.444v291.872h66.456l-.019-.812V260.557l.04-1.175c-11.224-21.3-27.114-43.766-50.162-61.626a10721 10721 0 0 0-16.305-12.61l-.009 1.298z" style="fill:#fee425;fill-opacity:1;fill-rule:nonzero;stroke:none" transform="matrix(1.33333 0 0 -1.33333 -.667 1121.853)"/></svg>