<svg xmlns="http://www.w3.org/2000/svg" width="350" height="442"><g style="display:inline"><path d="M376.916 532.832s-.272.32-.837.49c-.564.171-.929.113-.929.113s-.202 1.198.35 2.373c.551 1.175 1.424 1.57 1.424 1.57s.874-.395 1.426-1.57.349-2.373.349-2.373-.365.058-.93-.112c-.564-.17-.853-.49-.853-.49" style="fill:#fff;fill-opacity:1;stroke:none" transform="matrix(88.51013 0 0 88.51013 -33187.266 -47138.76)"/><path d="m376.914 532.698-.065.077s-.253.3-.796.463c-.548.166-.89.11-.89.11l-.085-.014-.015.087s-.208 1.22.356 2.424c.564 1.2 1.469 1.613 1.469 1.613l.036.017.037-.017s.906-.412 1.47-1.613c.564-1.203.354-2.425.354-2.425l-.014-.086-.086.014s-.34.056-.89-.11c-.543-.164-.813-.465-.813-.465zm.003.257c.11.098.355.29.73.42l-2.34 1.59a4.3 4.3 0 0 1-.078-1.436c.145.008.458.004.876-.122.43-.13.698-.345.812-.452m1.704 1.554a4 4 0 0 1-.351 1.262c-.505 1.074-1.248 1.459-1.345 1.506-.079-.038-.563-.29-1.012-.93z" style="fill:#5c3919;fill-opacity:1;stroke:none" transform="matrix(88.51013 0 0 88.51013 -33187.266 -47138.76)"/><g style="font-size:57.90471268px;font-style:normal;font-variant:normal;font-weight:400;font-stretch:normal;text-align:center;line-height:125%;letter-spacing:0;word-spacing:0;text-anchor:middle;fill:#fff;fill-opacity:1;stroke:none;font-family:Vipnagorgialla;-inkscape-font-specification:Vipnagorgialla"><path d="m-10.27 132.943 8.114 2.573q-1.865 6.785-6.206 10.08-4.34 3.293-11.012 3.293-8.256 0-13.572-5.64t-5.315-15.424q0-10.348 5.343-16.073 5.344-5.726 14.053-5.726 7.605 0 12.355 4.496 2.828 2.657 4.241 7.634l-8.284 1.979q-.735-3.223-3.068-5.09-2.332-1.866-5.669-1.866-4.608 0-7.478 3.308-2.87 3.309-2.87 10.716 0 7.86 2.828 11.197t7.35 3.336q3.337 0 5.74-2.12t3.45-6.673M41.027 148.442h-9.104l-3.619-9.415H11.736l-3.421 9.415H-.563l16.144-41.45h8.85zm-15.409-16.399-5.711-15.38-5.598 15.38zM45.495 148.442v-41.45h13.43q7.633 0 9.952.623 3.563.933 5.966 4.057t2.403 8.072q0 3.817-1.385 6.418t-3.52 4.086q-2.136 1.484-4.34 1.965-2.998.594-8.68.594h-5.457v15.635zm8.369-34.437v11.761h4.58q4.948 0 6.616-.65t2.615-2.036.948-3.223q0-2.262-1.33-3.732-1.328-1.47-3.364-1.838-1.498-.282-6.022-.282z" style="font-weight:700;fill:#fff;fill-opacity:1;font-family:Arial;-inkscape-font-specification:Arial Bold" transform="scale(2.03194)rotate(-33.192 -.355 -1.247)"/></g></g></svg>