<svg xmlns="http://www.w3.org/2000/svg" width="246.98" height="300" viewBox="0 0 246.984 300"><g fill="#FFF"><path fill="#00273E" d="M246.98 0v239.17c0 33.578-59.569 33.967-60.173 33.967-22.971 0-43.563 7.476-57.397 21.047l-5.92 5.81-5.921-5.817c-13.835-13.571-34.427-21.047-57.398-21.047-.603.01-60.172-.38-60.172-33.96V0h246.98"/><path fill="#029CDC" d="M238.58 8.407v230.76c0 5.196-1.994 9.328-6.276 13.002-3.99 3.422-9.788 6.254-17.234 8.418-13.862 4.027-28.133 4.141-28.255 4.141-25.394 0-47.868 8.328-63.289 23.456l-.03.029-.034-.034c-15.417-15.123-37.892-23.451-63.265-23.451-.143 0-14.412-.113-28.274-4.141-7.447-2.164-13.245-4.996-17.235-8.418-4.282-3.674-6.276-7.806-6.276-13.002V8.397h230.16"/><path d="M40.982 74.47v180.2c9.998 2.017 18.812 2.152 19.246 2.157 4.682.001 9.274.27 13.758.794V74.471zM106.99 74.47V267.1c5.962 2.923 11.496 6.438 16.504 10.522 5.008-4.082 10.539-7.597 16.5-10.518V74.474h-33zM173 74.47v183.16c4.488-.525 9.087-.795 13.775-.796.43-.005 9.238-.143 19.229-2.157v-180.2h-33.012z"/><path d="m41.044 74.47.019 180.28c10.058 1.964 18.642 2 19.089 2h.561c4.549 0 8.99.246 13.334.731V74.461c-11.97.01-23.153.01-33.003.01zM107.02 74.47v192.565c6.033 3.054 11.599 6.76 16.614 11.113 4.928-4.174 10.421-7.771 16.355-10.76V74.468h-32.96zM172.97 74.47v183.17c4.444-.54 8.994-.808 13.604-.808h.326c5.111-.049 12.076-.657 19.04-2.019V74.473h-32.97zM40.676 31.672h-8.438v9.138h8.155c4.793 0 6.821-1.493 6.821-4.75 0-2.926-1.83-4.388-6.538-4.388m6.421 12.546-.039.095 10.749 12.332H48.91l-8.194-10.851h-8.479v10.851h-7.353V26.194H40.92c9.255 0 13.972 3.537 13.972 9.537 0 4.106-2.804 7.688-7.795 8.487M77.967 34.025l-5.414 11.01H86.07l-5.286-11.01-1.323-3.003h-.114zM88.67 50.473H69.888l-3.02 6.171h-7.87l16.329-30.451h8.152l16.447 30.451h-8.287zM128.6 33.053a31.6 31.6 0 0 0-9.383-1.418c-8.798 0-11.887 3.004-11.887 9.705 0 7.063 3.205 9.946 12.065 9.946 3.478 0 6.601-.685 9.205-1.744l.94 5.356c-3.044 1.337-7.15 2.35-11.049 2.35-12.658 0-18.871-5.918-18.871-15.908 0-9.297 5.921-15.756 19.493-15.756 3.734 0 7.721.734 10.292 1.625l-.8 5.844zM135.18 26.194h7.431v30.451h-7.431zM179.22 56.645l-19.81-18.878-2.31-2.311-.12.037.08 3.286v17.866h-6.7V26.194h6.18l18.53 18.119 2.33 2.347.08-.086-.08-3.249V26.194h6.65v30.451zM222.1 55.344c-3.235 1.179-8.039 1.949-12.496 1.949-14.014 0-19.978-6.042-19.978-15.795 0-9.743 6.02-15.914 19.978-15.914 4.135 0 8.557.61 11.816 1.673l-.736 5.916c-3.131-1.01-6.896-1.625-10.729-1.625-9.201 0-12.608 2.817-12.608 9.829 0 6.833 3.075 9.91 12.009 9.91 2.436 0 4.539-.283 6.372-.813V40.81h6.372z"/></g></svg>