<svg xmlns="http://www.w3.org/2000/svg" fill="none" viewBox="0 0 144 144"><g fill="#E90000" clip-path="url(#a)"><path d="M66.968.126c-12.483.953-23.993 4.846-34.317 11.58-8.197 5.346-15.583 12.727-20.908 20.883C-2.136 53.827-3.84 80.976 7.312 103.62c10 20.318 28.943 34.821 51.052 39.101 7.305 1.405 15.162 1.663 22.726.727 2.516-.307 7.11-1.212 9.497-1.858 13.846-3.763 25.989-11.321 35.517-22.11 18.116-20.511 22.938-49.905 12.354-75.213C128.685 20.928 107.144 4.229 82.227.708 77.877.094 70.929-.18 66.967.126m9.675 6.3c11.558.904 21.752 4.36 31.232 10.562 15.243 9.997 25.664 25.76 28.813 43.558.714 4.086.942 6.831.942 11.45.016 6.122-.471 10.127-1.916 15.925-5.227 20.996-20.599 38.148-40.988 45.738-17.531 6.525-37.368 5.136-53.828-3.795-17.694-9.594-30.112-26.745-33.586-46.417-.714-4.086-.942-6.832-.942-11.45-.016-6.122.471-10.127 1.916-15.957 2.97-11.92 9.204-22.676 18.116-31.284C37.489 14.048 51.628 7.685 67.049 6.441c2.402-.193 7.207-.193 9.594-.016"/><path d="M63.884 11.868c-4.838.791-7.143 1.308-10.568 2.406-12.337 3.957-23.327 11.984-30.859 22.563-10.779 15.117-13.977 34.61-8.571 52.376.682 2.245 2.419 6.848 2.581 6.848.049 0 10.909-18.622 24.122-41.362 13.214-22.756 24.236-41.717 24.48-42.153l.47-.791-.633.016c-.34.016-.795.065-1.023.097M78.867 12.433c.34.598 16.298 28.07 42.157 72.597 3.522 6.073 6.46 11.03 6.509 11.03.162 0 1.899-4.602 2.581-6.847 1.072-3.489 1.834-7.268 2.305-11.322.309-2.697.26-10.126-.097-13-2.289-18.897-12.759-35.064-29.073-44.916-4.01-2.422-9.659-4.893-14.123-6.169-3.247-.937-8.798-2.035-10.276-2.051h-.39zM45.719 57.154c-15.957 27.472-26.135 45.124-26.038 45.221.081.081 3.782.13 9.042.113l8.88-.048L48.77 83.22 59.94 64.003l8.798-.049c4.821-.016 8.782-.08 8.782-.113 0-.048-1.915-3.375-4.253-7.397-2.321-4.005-4.27-7.43-4.318-7.574-.032-.162 2.484-4.652 6.039-10.79l6.12-10.513-4.497-7.752c-2.467-4.248-4.545-7.736-4.61-7.736-.049 0-11.883 20.285-26.281 45.076"/><path d="M79.71 41.004c-3.554 6.12-4.48 7.833-4.35 8.043.601.969 11.737 20.22 11.737 20.285 0 .048-5.39.097-11.964.113l-11.963.049-4.432 7.59c-2.419 4.167-4.416 7.64-4.416 7.704-.016.08 9.432.13 20.974.13l20.972.015 5.098 8.802 5.097 8.786 8.944-.032c8.133-.048 8.944-.065 8.928-.307-.016-.291-39.868-68.93-40.014-68.946-.049 0-2.126 3.504-4.61 7.768"/><path d="M47.57 96.303c-1.867 3.247-3.426 5.976-3.458 6.057-.049.113 9.415.161 27.872.161 15.372 0 27.937-.048 27.937-.097 0-.064-1.559-2.777-3.442-6.056l-3.457-5.96L72 90.425H50.978zM23.723 108.368c.504.856 3.328 4.053 5.487 6.185 8.49 8.447 19.301 14.18 30.94 16.458 12.305 2.406 25.129.985 36.524-4.038 6.834-3.02 12.759-7.09 18.181-12.501 2.094-2.067 4.935-5.265 5.422-6.104.097-.146-9.61-.194-48.277-.194s-48.374.048-48.277.194"/></g><defs><clipPath id="a"><path fill="#fff" d="M0 0h144v144H0z"/></clipPath></defs></svg>