<svg xmlns="http://www.w3.org/2000/svg" fill="none" viewBox="19.73 0 104.52 143.98"><g clip-path="url(#a)"><path fill="#241F0C" d="M123.521 66.143a6 6 0 0 0-.254-.163c.021-.112.056-.249.092-.391.035-.147.076-.29.106-.427.026-.142.056-.239.061-.427-.005-.05.01-.101-.051-.279v-.01l-.01-.02c-.157-.305-.315-.386-.431-.473-.178-.117-.331-.203-.387-.259-.015-.01-.02-.02-.03-.025l.01-.016v-.01c.102-.421.147-.873.147-1.346q-.001-1.012-.284-2.17c-.015-.04-.02-.075-.061-.162a6 6 0 0 0 .025-.569c0-.386-.025-.736-.04-1.041v-.163l-.082-.142a5.6 5.6 0 0 0-1.427-1.656 8 8 0 0 0-.508-.376c0-.117-.02-.218-.041-.34-.045-.214-.096-.35-.193-.666l-.01-.035-.015-.03c-.229-.636-.833-.92-1.021-.986-.092-.046-.092-.056-.107-.061 0 0-.01-.01-.01-.02.269-4.14.422-8.444.467-12.924v-1.067l-1.056-.122c-6.681-.747-15.251-5.222-23.541-9.546-2.647-1.381-5.314-2.773-7.915-4.038 3.83-3.384 9.276-8.205 9.276-8.205l-17.206-1.915C78.522 14.92 71.994 0 71.994 0s-6.503 14.915-7.005 16.063l-17.232 1.915s5.456 4.811 9.291 8.2c-2.6 1.265-5.278 2.662-7.92 4.043-8.29 4.324-16.865 8.8-23.535 9.546l-1.062.122v1.067c.046 4.673.213 9.149.508 13.447-.549.782-1.966 3.002-2.723 6.106a16.3 16.3 0 0 0-.508 4.018c0 2.007.38 4.176 1.397 6.315-1.23-.468-2.027-.67-2.052-.676l-1.428-.36.65 1.325s.178.371.483 1.047c.848 1.91 2.606 6.198 3.607 10.932a4 4 0 0 0-.27-.05l-1.437-.24.736 1.26s.305.524.788 1.403c.254.462.549 1.016.879 1.645l-.107.153c-.061.086-.457.726-.457 1.91 0 1.031.3 2.464 1.305 4.298 1.011 1.829 1.458 3.236 1.9 4.49.442 1.245.894 2.388 1.91 3.455.727.777 1.55 1.29 2.439 1.656.833 1.387 1.64 2.865 2.255 4.267h-.457c-.284 0-.452.005-.457.005l-1.382.061.884 1.057s1.067 1.275 2.525 3.079c1.26 1.554 2.804 3.5 4.191 5.344-.437.101-.69.178-.706.178l-1.204.355.96.818s.376.325 1.016.884c1.89 1.666 6.294 6.472 7.894 7.991.503.478 1.398.98 2.46 1.453 0 .01.01.03.014.041q.022.047.051.086c.026.041.036.046.046.056v.005c.066.081.102.107.203.208q.137.144.371.371c.976.996 3.145 2.967 5.304 4.811a57 57 0 0 0 4.77 3.632l.056.036.066.03c.452.188.884.264.91.275l.182.035.183-.066s.228-.086.69-.223a29 29 0 0 1 1.195-.315 113 113 0 0 0 7.112 5.872l.71.544.722-.544c2.449-1.869 4.801-3.815 7.087-5.857.452.112.833.218 1.128.3.462.137.69.223.696.223l.178.066.177-.035s.463-.087.915-.275l.066-.03.056-.036a57 57 0 0 0 4.77-3.632c2.154-1.844 4.328-3.815 5.309-4.811.076-.086.147-.163.208-.249.05-.081.122-.157.152-.371.087-.066.163-.122.214-.157.162-.092.274-.148.716-.153h.097c.812-.02 1.676-.411 2.494-.863a9 9 0 0 0 1.087-.737c.31-.264.554-.477.731-.853.122-.305.132-.574.138-.859 0-.477-.072-1.001-.138-1.453-.045-.284-.086-.564-.111-.731.096-.132.162-.234.239-.366.101-.188.157-.351.289-.676l.015-.04.01-.036c.051-.188.077-.361.077-.528 0-.219-.046-.412-.102-.569q.105.021.203.02c.127 0 .239-.02.356-.046l.03-.01.03-.015a4.2 4.2 0 0 0 1.626-1.046 3.65 3.65 0 0 0 .92-1.839 8.5 8.5 0 0 0 1.051-.605c.412-.264.595-.706.656-1.041.081-.508.035-.93.101-1.184a.6.6 0 0 1 .102-.244c.046-.051.102-.112.3-.173a18.5 18.5 0 0 0 2.464-1.031c.939-.503 1.879-1.092 2.392-1.966l.026-.051.025-.061a1.4 1.4 0 0 0 .076-.467c-.01-.549-.233-.955-.426-1.27-.056-.081-.102-.163-.148-.229.041-.091.102-.203.209-.335a.94.94 0 0 0 .233-.62.97.97 0 0 0-.239-.635 3 3 0 0 0-.274-.289c.605-.823 1.006-1.885 1.29-2.769a19 19 0 0 0 .295-1.057c1.28-.558 2.393-1.31 3.338-2.316.995-1.052 1.509-2.16 1.976-3.404.467-1.255.924-2.682 1.844-4.577.955-1.981 1.224-3.44 1.224-4.445 0-.508-.061-.9-.152-1.184a1.6 1.6 0 0 0 .198-.757 1.66 1.66 0 0 0-.254-.843c.218-.254.564-.584.904-.706h.015l.021-.015c2.575-1.159 3.16-3.1 3.266-3.47v-.035l.016-.036a1.6 1.6 0 0 0 .025-.254c-.036-.711-.452-1.092-.757-1.392l-.132-.117c.127-.294.259-.645.264-1.077v-.035c0-.32-.183-.605-.335-.742-.188-.173-.335-.254-.417-.31.381-.92.463-1.86.463-2.59 0-.367-.026-.687-.046-.92-.01-.112-.021-.214-.026-.28 0-.02-.005-.04-.005-.056a.7.7 0 0 0-.076-.32c-.076-.167-.178-.193-.198-.233-.107-.076-.132-.076-.157-.087-.112-.04-.107-.035-.168-.05-.051-.01-.163-.036-.264-.03l-.198.025c-.122-1.078-.178-1.53 1.016-2.378l.04-.025c.981-.656 1.595-1.255 1.946-1.885.33-.6.366-1.138.366-1.6v-.138c0-.528-.28-1.015-.747-1.34z"/><path fill="#FFD000" d="M92.197 128.729c-2.905.752-11.216-2.687-20.234-2.687-9.855 0-18.953 4.201-20.985 2.464-.402-.341-.178-.143.335.376.94.96 3.12 2.936 5.263 4.77a58 58 0 0 0 4.71 3.591c.365.153.776.234.776.234s4.125-1.488 9.907-1.488c5.78 0 9.9 1.488 9.9 1.488s.412-.081.778-.234a56 56 0 0 0 4.71-3.591c2.143-1.834 4.317-3.81 5.262-4.77.508-.524-.142-.224-.411-.153z"/><path fill="#DD052B" d="M49.703 31.99c-8.19 4.21-16.643 8.56-23.725 9.728.381 28.164 5.482 49.14 16.018 65.919 8.814 14.036 18.35 24.709 29.891 33.544 11.547-8.835 21.067-19.518 29.891-33.544 10.542-16.775 15.632-37.755 16.013-65.92-7.082-1.168-15.53-5.516-23.724-9.728-8.337-4.292-16.962-8.732-22.18-8.732-5.217 0-13.838 4.44-22.18 8.732z"/><path fill="#FFD000" d="M72.045 27.468c4.252 0 12.639 4.38 20.046 8.245 7.158 3.734 14.529 7.58 21.224 9.327-.645 25.812-5.441 45.152-15.032 60.636-7.823 12.629-16.22 22.388-26.233 30.562-10.008-8.169-18.41-17.933-26.234-30.562-9.591-15.49-14.382-34.824-15.027-60.636 6.7-1.748 14.062-5.593 21.22-9.327 7.407-3.866 15.799-8.245 20.04-8.245zm-19.813 8.677c-7.03 3.673-14.285 7.447-20.95 9.256.676 25.583 5.304 44.745 14.824 60.097 7.711 12.451 16.053 21.971 25.939 30.105 9.896-8.134 18.115-17.73 25.827-30.181 9.51-15.352 14.26-34.438 14.945-60.021-6.66-1.809-13.924-5.588-20.945-9.256-7.356-3.84-15.692-8.19-19.822-8.19s-12.462 4.35-19.813 8.19z"/><path fill="#1E3582" d="M71.999 32.736c-1.32 0-3.993 1-7.01 2.347v87.733a107 107 0 0 0 7.01 6.777 105 105 0 0 0 7.016-6.782V35.088c-3.023-1.346-5.695-2.352-7.016-2.352M35.544 48.942c.28 6.141.808 11.872 1.606 17.246 2.19 14.728 6.37 26.737 12.817 36.983.325.524.655 1.037.98 1.545V42.038c-5.09 2.59-10.287 5.105-15.403 6.904M93.05 42.038v62.673c.331-.508.656-1.021.986-1.54 6.442-10.246 10.623-22.255 12.807-36.983.803-5.374 1.331-11.105 1.611-17.247-5.121-1.798-10.308-4.312-15.403-6.903"/><path fill="#241F0C" d="M65.334 16.52c-.757.087-16.419 1.83-16.419 1.83s11.725 10.342 12.31 10.855l-3.49 16.282 14.28-8.438c.67.401 14.254 8.438 14.254 8.438s-3.307-15.525-3.47-16.282c.58-.508 12.289-10.856 12.289-10.856S79.45 16.607 78.695 16.52c-.31-.7-6.691-15.3-6.691-15.3s-6.36 14.594-6.665 15.3z"/><path fill="#241F0C" d="M49.357 30.653c-8.331 4.344-16.942 8.84-23.714 9.602l-.625.07v.63c.26 28.937 5.334 50.42 15.998 67.632 8.971 14.488 18.684 25.446 30.566 34.488l.417.32.427-.32c11.877-9.042 21.58-20 30.562-34.488 10.663-17.207 15.743-38.695 15.981-67.631l.011-.63-.625-.072c-6.777-.761-15.383-5.252-23.709-9.6-8.377-4.37-17.039-8.896-22.647-8.896s-14.27 4.521-22.642 8.895m1.296 2.474c8.077-4.216 16.429-8.575 21.351-8.575s13.274 4.359 21.347 8.575c7.828 4.08 15.895 8.27 22.804 9.581-.437 27.519-5.375 48.007-15.535 64.405-8.453 13.646-17.562 24.05-28.616 32.716-11.054-8.661-20.163-19.07-28.616-32.716-10.16-16.408-15.103-36.886-15.53-64.405 6.904-1.31 14.981-5.501 22.8-9.58z"/><path fill="#FFD000" d="M118.279 40.945c-.229 27.402-4.877 49.5-15.886 67.271-9.388 15.154-19.269 25.832-30.394 34.301-11.12-8.469-21.006-19.147-30.394-34.301C30.6 90.446 25.958 68.347 25.72 40.946c6.883-.773 15.545-5.289 23.957-9.673C57.978 26.94 66.563 22.459 72 22.459s14.016 4.48 22.322 8.814c8.407 4.39 17.074 8.9 23.958 9.672m-67.957-8.438c-8 4.181-16.261 8.49-23.175 9.648.376 27.91 5.35 48.702 15.647 65.329 8.616 13.91 17.927 24.496 29.21 33.249 11.278-8.758 20.59-19.339 29.211-33.249 10.297-16.622 15.27-37.42 15.646-65.33-6.909-1.158-15.174-5.466-23.175-9.641-8.154-4.258-16.582-8.652-21.682-8.652s-13.528 4.4-21.677 8.652z"/><path fill="#241F0C" d="M53.553 38.685h-.01c-6.187 3.236-12.599 6.578-18.791 8.666l-.493.168.02.518c.94 23.673 5.527 41.393 14.438 55.78 6.955 11.221 14.204 19.959 22.825 27.493l.457.401.462-.401c8.611-7.534 15.865-16.266 22.825-27.493 8.911-14.382 13.498-32.107 14.443-55.78l.02-.518-.493-.168c-6.197-2.087-12.598-5.43-18.801-8.661-7.94-4.145-15.322-7.864-18.451-7.864s-10.51 3.718-18.446 7.864zm1.285 2.469C59.532 38.705 69.301 33.61 72 33.61s12.467 5.095 17.155 7.544c5.502 2.865 11.71 6.096 17.704 8.285-1.056 22.429-5.486 39.254-13.944 52.904-6.416 10.359-13.082 18.507-20.915 25.599-7.834-7.092-14.493-15.235-20.915-25.599-8.453-13.655-12.888-30.475-13.945-52.904 6.005-2.19 12.208-5.42 17.7-8.285"/><path fill="#FFD000" d="M71.999 31.517c3.216 0 12.192 4.684 18.13 7.783 6.275 3.276 12.701 6.619 18.899 8.707-.935 23.485-5.527 41.22-14.336 55.439-6.874 11.1-14.189 19.909-22.693 27.336-8.499-7.427-15.814-16.231-22.688-27.336-8.809-14.22-13.401-31.954-14.34-55.44 6.202-2.087 12.623-5.43 18.902-8.706 5.939-3.104 14.91-7.783 18.126-7.783m-17.48 9.017c-5.94 3.104-12.066 6.284-18.096 8.433 1.011 22.779 5.492 39.884 14.077 53.742 6.584 10.638 13.452 18.984 21.504 26.183 8.052-7.204 14.92-15.545 21.51-26.183 8.584-13.858 13.06-30.963 14.081-53.742-6.04-2.149-12.167-5.334-18.1-8.433-5.11-2.662-14.616-7.625-17.486-7.625s-12.375 4.963-17.48 7.625z"/><path fill="#241F0C" d="M29.423 45.421a1.96 1.96 0 0 0 1.956 1.956c1.077 0 1.96-.879 1.96-1.956a1.96 1.96 0 0 0-1.96-1.956 1.957 1.957 0 0 0-1.956 1.956"/><path fill="#FFD000" d="M29.91 45.421c0 .808.666 1.468 1.469 1.468.802 0 1.468-.66 1.468-1.468s-.66-1.468-1.468-1.468-1.469.66-1.469 1.468"/><path fill="#241F0C" d="M45.628 38.289c0 1.077.874 1.955 1.951 1.955a1.964 1.964 0 0 0 1.961-1.955 1.96 1.96 0 0 0-1.961-1.956c-1.082 0-1.95.879-1.95 1.956"/><path fill="#FFD000" d="M46.11 38.289c0 .807.666 1.468 1.469 1.468a1.48 1.48 0 0 0 1.473-1.468 1.47 1.47 0 0 0-1.473-1.469c-.818 0-1.468.656-1.468 1.469"/><path fill="#241F0C" d="M114.621 45.421a1.96 1.96 0 0 1-1.956 1.956 1.956 1.956 0 0 1 0-3.912c1.072 0 1.956.88 1.956 1.956"/><path fill="#FFD000" d="M114.128 45.421a1.464 1.464 0 1 1-2.931 0c0-.808.655-1.468 1.463-1.468s1.468.66 1.468 1.468"/><path fill="#241F0C" d="M98.41 38.289a1.96 1.96 0 0 1-1.955 1.955 1.96 1.96 0 0 1-1.956-1.955c0-1.077.884-1.956 1.956-1.956s1.955.879 1.955 1.956"/><path fill="#FFD000" d="M97.923 38.289a1.469 1.469 0 1 1-2.938-.002 1.469 1.469 0 0 1 2.938.002"/><path fill="#fff" d="M58.517 92.29a16.2 16.2 0 0 0-2.698 8.956c0 1.087.112 2.179.325 3.272a16.15 16.15 0 0 0 6.92 10.302c7.436 4.938 17.5 2.865 22.428-4.618a16.27 16.27 0 0 0 2.372-12.233c-.864-4.257-3.322-7.92-6.914-10.307-7.432-4.938-17.496-2.865-22.428 4.628z"/><path fill="#241F0C" d="M71.938 117.807c-3.114 0-6.259-.884-9.048-2.733-3.672-2.433-6.172-6.162-7.046-10.495a16.569 16.569 0 0 1 2.413-12.462 16.51 16.51 0 0 1 13.803-7.442c3.109 0 6.264.884 9.043 2.733a16.37 16.37 0 0 1 7.046 10.495 16.6 16.6 0 0 1-2.413 12.462 16.51 16.51 0 0 1-13.803 7.437zM58.77 92.457a15.87 15.87 0 0 0-2.321 12c.843 4.175 3.246 7.767 6.782 10.109a15.68 15.68 0 0 0 8.712 2.631 15.9 15.9 0 0 0 13.295-7.162 15.96 15.96 0 0 0 2.646-8.804c0-1.067-.101-2.139-.325-3.206a15.8 15.8 0 0 0-6.782-10.114 15.67 15.67 0 0 0-8.707-2.632 15.89 15.89 0 0 0-13.294 7.168z"/><path fill="#FFD000" d="M112.502 74.474c1.321-2.388 3.46-3.368 4.222-3.85.477-.509.686-.585.65-1.037-.442-.34-.904-.081-.823-.513.31-.818.498-.518.498-.518-.015 0 .584 0 2.103-1.783.366-1.128 0-1.788-.076-2.464.264-.813.544-1.29 1.255-1.585 1.641-1.255 1.427-2.855 1.371-4.095-.751-1.361-1.905-1.839-2.006-2.047 0-.554 0-.477-.203-1.123-.381-.884-1.006-.34-1.27-1.412-.392-1.53-2.124-1.819-2.109-1.813 0 .03-1.204 1.529-1.376 3.134-.112.899-.915.32-1.286.782-.452.57-.431 1.224-.782 1.275-1.58.234-2.54 2.256-1.24 4.273.519.706.382.965.229 1.27-.152.304-.838.624-.813 1.66.122 1.936 1.28 2.363 1.89 3.186.493.67.66 4.039-.762 6.386l.528.264z"/><path fill="#241F0C" d="m111.517 74.205.183-.295c.787-1.29 1.077-2.951 1.072-4.232.01-.909-.173-1.66-.295-1.798-.498-.701-1.824-1.275-1.951-3.348v-.07c-.01-1.144.838-1.652.849-1.759.076-.147.106-.223.106-.304 0-.092-.045-.28-.315-.65-.457-.707-.66-1.428-.66-2.094-.005-1.356.874-2.479 2.103-2.667 0 0 0-.005.005-.01.026-.03.066-.122.112-.239.091-.233.213-.579.482-.914.234-.29.564-.315.768-.33.223-.01.35-.036.37-.061 0 0 .051-.051.077-.229.096-.838.442-1.62.767-2.215.294-.538.599-.96.645-1.026a1 1 0 0 1 .056-.081.34.34 0 0 1 .233-.092h.056c.036 0 .041.01.097.02.056.016.137.031.228.062.183.056.432.147.696.294.524.29 1.123.808 1.342 1.677.142.467.208.447.411.564.208.086.625.264.838.797v.02l.016.016c.177.553.208.655.213 1.087.025.02.071.056.117.086.132.092.32.219.523.386.422.33.93.823 1.331 1.55l.036.066v.076c.015.315.04.67.04 1.047.01 1.056-.234 2.326-1.539 3.322l-.031.025-.04.02c-.59.255-.788.57-1.052 1.321.046.381.224.849.229 1.474 0 .315-.046.665-.173 1.056l-.02.061-.041.046c-.742.869-1.27 1.331-1.641 1.585-.325.229-.559.29-.635.305h-.025l-.041-.275-.101.082.096.111s0 .01-.015.016c-.02.03-.076.111-.137.254.152.03.421.076.675.274l.112.086.01.148a.969.969 0 0 1-.233.752c-.132.162-.29.294-.503.523l-.026.025-.04.02c-.803.509-2.845 1.443-4.12 3.74l-.148.269-1.112-.554zm4.663-21.641c-.106.162-.264.396-.416.675-.31.559-.64 1.306-.717 2.037-.03.275-.132.503-.309.645a.9.9 0 0 1-.524.188c-.32.02-.477.036-.518.107-.3.36-.34.762-.569 1.118a.61.61 0 0 1-.416.274c-.894.132-1.575.945-1.58 2.042 0 .529.162 1.133.548 1.727.295.402.432.712.432 1.011 0 .265-.112.453-.178.59-.294.482-.767.61-.777 1.473v.025c.122 1.788 1.108 2.073 1.829 3.013.295.427.406 1.183.417 2.18 0 1.152-.209 2.58-.798 3.86 1.346-1.991 3.226-2.875 3.912-3.307.218-.224.37-.366.447-.457.056-.076.076-.097.081-.148a1 1 0 0 0-.178-.056c-.112-.03-.234-.015-.427-.127a.49.49 0 0 1-.218-.421q-.001-.075.02-.158v-.02l.016-.025c.091-.254.182-.417.279-.544.096-.122.234-.229.417-.229a.4.4 0 0 1 .137.026c.056-.026.142-.071.264-.147.3-.194.792-.61 1.514-1.443.086-.305.122-.564.122-.803 0-.528-.173-.95-.234-1.473l-.01-.066.025-.066c.259-.813.61-1.433 1.392-1.763 1.087-.858 1.245-1.808 1.255-2.784 0-.32-.02-.635-.031-.94-.528-.909-1.234-1.376-1.63-1.66-.143-.113-.244-.143-.356-.341l-.03-.066v-.071c-.016-.56.015-.35-.183-1.011-.163-.336-.254-.325-.513-.458-.27-.101-.635-.386-.762-.985-.234-1-1.245-1.412-1.656-1.534-.026.03-.046.066-.072.101z"/><path fill="#241F0C" d="m118.477 57.959-.041-.036s-1.214 1.22-1.773 1.9c.163-2.774.097-4.78.097-4.79l-.066.01c0 .03-.036 2.606-.402 5.953l-.106.935c-.905-1.255-2.332-2.194-2.337-2.194l-.021.03s1.474 1.077 2.312 2.566c-.061.472-.132.96-.214 1.447.117-.03.239-.045.381-.06.163-1.235.27-2.429.346-3.521.477-.711 1.834-2.24 1.834-2.24z"/><path fill="#FFD000" d="M114.631 82.236c.462-2.428-.447-4.257-.935-5.237a9 9 0 0 1-.193-.407l.015.061a3 3 0 0 0-.086-.39c-.081-.362-.091-.402.036-.56l-.198.117c.162-.02.294.026.421.071.163.061.589.214.793-.29l.01-.025.01-.025c.081-.37.122-.772-.132-.965a.44.44 0 0 0-.442-.04l.295.014.142.25v-.33l-.335.04a.27.27 0 0 1 .213.056c0-.005-.386-.371-.772-2.312v.112c.152-.737.503-1.123.843-1.499.132-.142.264-.294.381-.457l.041-.05.015-.057v-.02c.183-.838.401-1.565-.198-2.21-.158-1.493-.021-2.987.122-3.297.345-.787 1.686-1.112 2.169-1.275.269-.086.422-.152.564-.269.142-.122.432-.757.589-.98.152-.224.366-.24.579-.265.315-.035.706-.076 1.108-.71.614-.915 1.666-1.032 2.113-1.032.005 0 .01-.015.025.025.3 1.235.351 2.312.138 3.19-.204.763.756.94.878 1.225.056.132-.396 1.478-.264 1.656.142.173 1.021.376 1.021 1.123 0 .843.051 1.686-2.006 3.063-.879.508-1.387 1.61-1.407 1.656l-.092 1.26s.696.391.564.65c-.147.295-1.311 1.402-2.083 2.093l.046-.035c-.112.066-.676.421-.803.823a.39.39 0 0 0 .061.37c.142.178-1.549.407-1.351.392.076-.005.249-.02.295.005 0 0-.016-.01-.021-.02l-.035-.204c-.066.371 1.808.178 1.386.716l-.066.082.031-.036c-.158.147-.437.29-.747.457-.97.514-2.438 1.28-2.748 3.475l.35-.249-.594-.091.254.35z"/><path fill="#241F0C" d="m114.555 82.648-.336.239.087-.59-.595-.823.717.112q.036-.357.035-.69c0-1.687-.64-2.978-1.031-3.765a23 23 0 0 1-.193-.406h-.005l-.015-.061a3 3 0 0 0-.076-.336c-.036-.167-.067-.274-.067-.406 0-.102.031-.203.077-.285l-.031-.08.198-.118.061.071c.178.005.315.061.422.097a.7.7 0 0 0 .218.05c.082-.014.097.016.188-.167v-.015l.01-.01a5 5 0 0 0 .041-.234l-.152-.27-.061-.106-1.255-.071.95-.478-.015-.035c-.153-.356-.346-.935-.539-1.885h-.015v-.112h.015c.168-.777.574-1.224.904-1.59q.192-.205.361-.431v-.016c.097-.432.193-.807.188-1.122 0-.31-.071-.55-.31-.813l-.071-.077-.01-.101a13.5 13.5 0 0 1-.01-2.672c.04-.356.076-.595.152-.777.234-.513.722-.813 1.184-1.027.467-.213.94-.335 1.168-.411.264-.087.361-.132.457-.214 0 0 .006-.01.016-.02l.056-.081c.045-.071.096-.168.147-.264.112-.203.218-.412.32-.559.234-.34.599-.37.792-.391.31-.051.508-.02.89-.58.69-1.02 1.818-1.158 2.326-1.163h.046a.31.31 0 0 1 .249.127c.03.041.04.066.051.092v.02l.015.02q.274 1.122.274 2.083c0 .447-.046.864-.142 1.26a.4.4 0 0 0-.02.122c0 .117.045.188.157.295.112.101.274.193.427.294.101.071.213.143.3.315.03.082.03.122.03.158-.005.208-.081.457-.157.772-.066.259-.127.544-.138.68 0 0 .051.031.082.046.101.056.233.127.371.224.269.183.594.523.589 1.026v.142c0 .402-.026.884-.315 1.418-.29.528-.833 1.087-1.824 1.752h-.01l-.01.01c-.676.382-1.143 1.24-1.265 1.474l-.076 1.026c.05.03.101.071.162.117.158.142.376.274.407.625a.5.5 0 0 1-.046.203c-.132.249-.447.559-.864.98-.406.397-.884.844-1.27 1.189l-.045.035c-.148.082-.595.422-.641.63 0 0-.005.036-.005.046 0 0 .011.036.021.046a.37.37 0 0 1 .076.208c-.015.132-.056.203-.107.25.087.03.173.07.254.131.087.061.178.193.178.35a.52.52 0 0 1-.127.33l-.046.062-.03.035c-.214.188-.493.32-.793.483-.873.467-2.027 1.057-2.469 2.662l.707.112-.839.6-.111.588-.244-.335zm-.59-5.781c.351.7.93 1.864 1.067 3.388.645-.955 1.56-1.437 2.19-1.768.223-.116.421-.223.554-.315h-.006c-.182-.04-.447-.07-.675-.117-.087-.02-.168-.035-.249-.06-.041.005-.076.015-.112.02v.03h-.041c-.045 0-.111.005-.152.01h-.041s-.035 0-.106-.02c-.076-.005-.214-.172-.198-.284.02-.209.116-.229.137-.254.03-.02.046-.026.056-.03 0 0 .025-.01.035-.01 0 0 .021 0 .026-.006 0 0 .025 0 .04-.01.031-.005.076-.015.127-.02.102-.02.244-.041.386-.072.168-.03.351-.07.488-.111a.771.771 0 0 1 .025-.345c.183-.499.661-.809.864-.94.381-.341.848-.778 1.245-1.164.325-.315.614-.635.711-.762-.031-.04-.092-.091-.152-.142-.122-.097-.254-.168-.254-.168l-.168-.091.112-1.514.025-.056c.031-.046.533-1.194 1.519-1.778.945-.63 1.402-1.133 1.621-1.54.218-.406.243-.73.243-1.122v-.142c0-.188-.081-.305-.198-.422-.122-.117-.289-.208-.442-.295-.106-.06-.193-.091-.315-.223-.091-.137-.081-.224-.086-.305 0-.249.081-.559.157-.869.056-.218.107-.452.133-.558 0 0-.031-.026-.051-.036-.076-.05-.188-.117-.31-.203-.234-.158-.539-.437-.544-.884 0-.092.015-.183.036-.275.081-.335.127-.706.127-1.107 0-.518-.071-1.097-.208-1.722-.463.04-1.204.218-1.641.884-.432.716-1.016.828-1.331.848-.234.03-.285.03-.366.137a6 6 0 0 0-.279.498c-.122.214-.199.391-.361.539-.188.157-.391.238-.666.325-.259.086-.696.203-1.107.391-.412.183-.767.442-.884.721-.02.03-.076.28-.107.595a12 12 0 0 0-.056 1.204c0 .396.016.823.061 1.244.3.356.407.762.407 1.148 0 .417-.107.824-.193 1.23v.025l-.01.02-.031.117-.035.051-.036.051a7 7 0 0 1-.401.483c-.32.36-.6.66-.747 1.25.218 1.061.432 1.6.559 1.849l.32-.036v.31c.157.188.198.421.198.625 0 .188-.031.37-.066.538v.02l-.015.056-.016.026a1 1 0 0 1-.091.193v.07l-.02-.04c-.168.229-.432.336-.63.32-.112 0-.209-.02-.285-.04.02.086.046.188.066.3.041.09.097.208.163.345z"/><path fill="#FFD000" d="M111.847 88.55c1.194-2.483 3.307-3.525 4.013-4.043.458-.533.661-.615.61-1.072-.447-.335-.899-.056-.838-.498.279-.833.472-.538.472-.538s.559-.02 1.992-1.87c.33-1.148-.082-1.803-.204-2.489.204-.828.325-1.534 1.006-1.849 1.56-1.32 1.316-2.626 1.219-3.866-.828-1.336-1.92-1.85-2.037-2.057-.05-.554-.03-.478-.264-1.113-.416-.869-1.006-.31-1.331-1.371-.498-1.514-2.245-1.758-2.23-1.748 0 .025-1.057 1.554-1.179 3.144-.055.905-.929.209-1.219.808-.071.97-.279.88-.279.88s-1.55-.362-1.819.187c-.147.31-.117 2.55 1.265 4.562.549.701.62 1.57.539 1.788-.077.224-1.347.173-1.464 1.179.691 2.377 1.077 2.987 1.088 2.982.005 0 1.422 4.287.122 6.73l.538.26z"/><path fill="#241F0C" d="m110.892 88.429.147-.28c.376-.7.514-1.605.508-2.52 0-1.797-.533-3.606-.635-3.926 0 0-.005-.01-.005-.015a.4.4 0 0 1-.071-.127 6 6 0 0 1-.228-.498c-.188-.462-.458-1.22-.803-2.408l-.015-.061v-.061c.071-.564.457-.904.802-1.067.275-.132.564-.208.696-.249v-.046c0-.289-.127-.899-.513-1.397-1.107-1.615-1.381-3.342-1.387-4.236.011-.28.016-.452.092-.635.254-.442.726-.463 1.112-.473.341 0 .691.051.879.092.026-.102.061-.28.082-.564v-.056l.025-.05c.163-.362.538-.453.752-.458.233-.005.391-.03.386-.046 0 0 .035-.015.051-.203.066-.828.35-1.61.64-2.205.244-.543.513-.96.564-1.036a.4.4 0 0 1 .066-.097.28.28 0 0 1 .213-.091h.036c.045 0 .045.005.106.015.056.015.132.03.229.056.193.05.437.137.706.274.533.27 1.158.762 1.438 1.616.167.467.249.462.457.569.213.081.62.239.858.757v.01l.016.015c.208.564.228.64.274 1.087a.8.8 0 0 0 .137.102c.122.096.305.228.513.396.407.335.915.823 1.352 1.53l.04.06v.076c.036.371.081.773.081 1.184.016.93-.254 1.971-1.391 2.926l-.036.026-.041.02c-.269.127-.411.305-.533.584-.122.264-.198.61-.3 1.006.081.422.325.925.325 1.636 0 .274-.04.584-.137.924l-.015.056-.036.046c-1.249 1.605-1.869 1.9-2.118 1.971l-.213.127a1 1 0 0 0-.056.127c.152.02.432.056.701.254l.106.081v.132a.884.884 0 0 1-.198.772c-.122.158-.274.3-.472.524l-.02.025-.031.02c-.757.554-2.763 1.545-3.922 3.933l-.132.274-1.092-.523zm.594-6.94.021.072c.015.06.046.147.076.264.066.228.152.549.234.935.167.777.345 1.808.345 2.875 0 .843-.112 1.707-.427 2.469 1.24-2.317 3.262-3.343 3.922-3.82.198-.229.351-.381.427-.478.071-.096.076-.117.086-.193a1 1 0 0 0-.203-.06c-.117-.031-.249-.011-.432-.123-.142-.081-.218-.274-.213-.416 0-.041.005-.087.01-.127v-.026l.015-.02a2.4 2.4 0 0 1 .265-.564c.086-.122.228-.234.401-.234.056 0 .096.01.137.026.051-.026.127-.071.234-.158.279-.208.762-.645 1.442-1.524.072-.264.097-.493.097-.7 0-.59-.224-1.037-.32-1.601l-.015-.061.015-.061c.102-.406.183-.803.34-1.168.153-.35.402-.676.803-.874.975-.859 1.143-1.61 1.148-2.439 0-.345-.036-.7-.066-1.066-.589-.91-1.285-1.403-1.676-1.692-.133-.112-.234-.158-.336-.32l-.03-.056v-.066c-.056-.559-.021-.376-.244-1.011-.178-.34-.279-.335-.544-.457-.269-.097-.64-.356-.797-.94-.32-1.016-1.357-1.397-1.788-1.504-.016.026-.036.061-.061.092-.092.167-.229.401-.366.686-.269.563-.63 1.361-.686 2.098 0 0-.152.879-.33 1.097l-.158-.376c-.259.05-.472.02-.569.056-.05.02-.066.025-.086.056-.03.38-.081.61-.162.777-.072.168-.234.315-.407.31-.035 0-.066 0-.096-.01-.026 0-.132-.026-.285-.051a4 4 0 0 0-.615-.056c-.162 0-.32.015-.416.05-.102.031-.137.067-.147.082v.01s-.011.046-.011.082c0 .07-.01.162-.01.279 0 .777.254 2.418 1.265 3.876.483.625.63 1.326.63 1.758 0 .122-.01.218-.046.325-.066.152-.162.198-.228.239-.071.035-.143.055-.214.08-.137.047-.299.092-.452.148-.284.127-.487.26-.548.585.574 1.97.939 2.697 1.011 2.799 0 0 .005.01.01.015.025.03.05.066.05.091v.01s.001.01.006.016zm-.568.219v-.015zm-.006-.01s-.005-.015-.005-.02c0 0-.01-.016-.01-.02 0 0 0 .025.015.04m3.435-15.957h-.016z"/><path fill="#FFD000" d="M112.025 95.059c.919-2.642-1.742-4.74-1.981-5.558-.021-.676-.132-.854.208-1.163.569.015.742.497.975.122.305-.808-.045-.691-.045-.691s-.427-.361-.508-2.591c.406-1.067 1.087-1.377 1.564-1.87.285-.777.574-1.417.148-2.022-.691-1.859.183-2.773.833-3.8 1.341-.772 2.56-.761 2.753-.899.295-.477.259-.411.742-.884.752-.62 1.057.143 1.798-.716 1.082-1.22 2.789-.792 2.774-.787-.025.01.34 1.966-.33 3.571-.386.894.68.828.696 1.341.01.513-.447 1.306-.447 1.306s1.209.741 1.067 1.412c-.117.36-.549 1.971-2.906 3.058-.864.35-1.453 1.245-1.484 1.331-.035.087.752.615.214 1.397-.539.782-6.071 7.448-6.071 7.448z"/><path fill="#241F0C" d="M111.735 94.962c.122-.356.178-.696.178-1.021 0-.955-.457-1.84-.96-2.576-.508-.752-1.036-1.275-1.204-1.773v-.04l-.005-.041c-.01-.274-.03-.462-.03-.65a.9.9 0 0 1 .33-.747l.091-.081h.122c.335.01.589.157.716.228a1.3 1.3 0 0 0 .061-.228.4.4 0 0 1-.061-.046h-.005s-.025-.025-.035-.04a.4.4 0 0 1-.076-.112 2.2 2.2 0 0 1-.188-.437c-.127-.407-.26-1.077-.295-2.205l-.01-.061.025-.061c.427-1.118 1.164-1.509 1.58-1.925.178-.478.33-.88.325-1.179a.83.83 0 0 0-.162-.503l-.021-.03-.015-.041c-.188-.508-.274-.965-.274-1.377 0-1.194.67-1.96 1.133-2.687l.04-.061.066-.036a6.5 6.5 0 0 1 1.794-.7c.416-.097.767-.148.909-.183.234-.392.295-.437.731-.859l.011-.01.01-.01c.33-.28.675-.346.914-.34h.229c.203-.01.294.004.614-.341.722-.808 1.667-.97 2.302-.97.421 0 .691.06.782.091 0 0 .015 0 .056.025l.173.478q.014.073.02.163c.02.223.041.533.041.884 0 .706-.082 1.595-.432 2.428a.6.6 0 0 0-.051.228c0 .082.01.107.117.198.096.082.269.163.432.315.111.102.218.27.223.483v.02c-.01.437-.223.91-.36 1.19a5 5 0 0 1 .35.284c.29.274.62.62.63 1.117 0 .061 0 .117-.01.168v.02l-.015.015c-.102.366-.605 2.124-3.074 3.252-.569.213-1.041.777-1.239 1.041q.039.047.086.117c.117.168.259.416.259.742 0 .228-.076.477-.244.721-.569.823-6.086 7.457-6.086 7.468l-.523-.295zm-.279-3.942c.528.782 1.057 1.768 1.057 2.92v.052c.543-.65 1.315-1.585 2.108-2.55 1.448-1.753 2.977-3.633 3.221-3.999a.63.63 0 0 0 .137-.376c.005-.248-.203-.457-.341-.635-.02-.04-.061-.06-.066-.208a.4.4 0 0 1 .031-.142c.035-.071.071-.127.152-.239.082-.112.193-.254.331-.401.279-.3.67-.64 1.148-.833 2.22-1.047 2.611-2.484 2.733-2.86v-.041c.015-.147-.183-.447-.442-.665a4 4 0 0 0-.488-.376l-.254-.158.152-.254s.102-.178.209-.422c.106-.238.198-.543.198-.716v-.01s0-.01-.036-.056a1.5 1.5 0 0 0-.223-.157c-.188-.122-.518-.35-.524-.793 0-.147.036-.305.107-.462.305-.716.386-1.54.386-2.195 0-.33-.02-.615-.045-.828a1 1 0 0 0-.016-.178 3 3 0 0 0-.416-.025c-.539 0-1.291.137-1.839.757-.371.452-.783.569-1.077.554h-.229c-.173.005-.279.01-.518.193-.498.492-.381.345-.686.823l-.03.05-.056.036c-.158.097-.269.097-.442.137a12 12 0 0 0-.61.117 6.2 6.2 0 0 0-1.666.625c-.488.757-.996 1.377-.991 2.296 0 .325.061.696.214 1.133.178.259.254.549.254.818-.005.503-.214.96-.381 1.448l-.021.06-.04.046c-.539.544-1.103.788-1.479 1.712.051 1.458.275 2.053.366 2.25.061.016.127.052.173.108a.5.5 0 0 1 .132.36c0 .163-.046.356-.147.62l-.016.025-.01.026c-.076.142-.249.29-.447.284-.238-.015-.335-.112-.442-.162a1.2 1.2 0 0 0-.223-.087c-.046.061-.041.082-.056.209 0 .116.02.31.03.589.087.228.61.843 1.113 1.564z"/><path fill="#FFD000" d="M105.888 103.161c1.646-2.225 3.907-2.88 4.704-3.271.549-.437.767-.488.803-.94-.381-.407-.879-.213-.732-.64.407-.782.544-.447.544-.447s.559.081 2.322-1.494c.508-1.082.223-1.798.249-2.489.36-.777.579-1.463 1.315-1.661 1.788-1.026 1.768-2.362 1.885-3.602-.564-1.453-1.555-2.144-1.641-2.367.046-.554.046-.478-.071-1.143-.259-.925-.95-.478-1.072-1.57-.203-1.565-1.905-2.098-1.885-2.088.021.03-2.016 1.316-2.535 1.773-.513.457-.757 1.026-.757 1.026s-1.762.803-2.169 1.605c-.401.803-.432 2.236.605 4.466.406.777.198 1.128-.264 1.64-.458.514-.889.138-1.179 1.108.219 2.434.513 3.124.523 3.12.016 0 .229.599.102.888-.122.285-.467-.467-.823-.36-.234.38-.229.503-.274 1.234.106.955 1.605 2.703-.127 4.867l.477.35z"/><path fill="#241F0C" d="m104.979 102.867.203-.244c.584-.742.757-1.387.762-1.976.01-1.062-.594-1.92-.706-2.668v-.05c.036-.706.056-.96.315-1.377l.061-.091.102-.036a.5.5 0 0 1 .172-.025.75.75 0 0 1 .463.182 3 3 0 0 0-.071-.253q.002-.002-.006-.01s-.015-.036-.025-.052a1 1 0 0 1-.046-.137c-.035-.117-.086-.284-.137-.533-.107-.493-.234-1.28-.34-2.504v-.062l.005-.055c.147-.534.432-.808.701-.915.254-.117.381-.122.549-.305.284-.325.401-.508.401-.721 0-.132-.041-.315-.188-.59-.64-1.376-.889-2.478-.889-3.337 0-.564.112-1.026.289-1.392.265-.508.844-.904 1.347-1.224.371-.229.701-.396.868-.478.102-.198.351-.635.783-1.02.274-.245.858-.64 1.407-1.012.498-.335.996-.66 1.102-.736 0 0 .005-.01.01-.015a.32.32 0 0 1 .214-.092c.03 0 .066 0 .091.02h.005s.01 0 .016.005a2.721 2.721 0 0 1 .284.112c.173.082.406.209.65.386.483.356 1.016.95 1.138 1.834.071.483.158.488.351.63.198.122.574.346.716.894v.031c.076.401.107.548.107.757 0 .101-.005.208-.021.36.026.036.066.076.122.132.107.117.265.28.437.473.341.401.757.965 1.057 1.727l.025.071-.015.071c-.091 1.2-.117 2.759-2.032 3.836l-.03.02-.041.01c-.285.077-.447.229-.62.483-.157.244-.3.574-.472.955 0 .295.061.645.066 1.067 0 .421-.076.914-.341 1.478l-.02.056-.051.04c-1.585 1.418-2.25 1.555-2.484 1.57h-.035v-.239l-.102.02.076.138s-.005 0-.03.02c-.036.041-.102.122-.178.264h.01c.142.051.406.138.63.376l.086.097v.132a1 1 0 0 1-.305.676c-.172.157-.35.269-.619.482l-.031.021-.025.015c-.849.406-3.003 1.036-4.593 3.175l-.182.244-.976-.717zm1.57-2.22c0 .609-.168 1.28-.62 1.976 1.651-1.997 3.769-2.637 4.506-2.993.269-.208.457-.335.539-.421.055-.061.081-.081.096-.142-.137-.097-.3-.107-.538-.25a.45.45 0 0 1-.199-.385q0-.115.046-.229v-.02l.02-.02c.244-.437.381-.65.712-.681a.5.5 0 0 1 .193.05c.071-.02.183-.06.345-.142.325-.172.854-.518 1.636-1.209.208-.457.254-.823.254-1.168 0-.36-.061-.701-.061-1.077v-.087l.01-.056.026-.05c.182-.376.33-.752.543-1.087.203-.32.503-.605.925-.727 1.6-.95 1.58-2.032 1.696-3.276-.396-.991-1-1.59-1.336-1.941-.111-.132-.203-.193-.274-.366l-.02-.06v-.067a3 3 0 0 0 .03-.411c0-.122-.02-.229-.091-.63-.117-.366-.219-.376-.457-.539-.254-.142-.574-.462-.625-1.067-.117-1.066-1.153-1.625-1.534-1.788q-.078.06-.209.142c-.193.138-.467.315-.752.503-.563.381-1.204.818-1.427 1.016a3 3 0 0 0-.518.62 4 4 0 0 0-.168.3l-.046.112-.106.045s-.422.198-.899.488c-.478.284-.991.696-1.123.98-.127.265-.229.636-.229 1.118 0 .742.219 1.763.828 3.069.163.314.249.594.254.858-.005.472-.264.798-.553 1.123-.29.33-.615.39-.757.457-.132.071-.209.091-.341.488.178 2.001.427 2.794.473 2.916v.01s.01.01.01.015c0 0 .01.015.01.025l.015.026.015.056c.016.045.041.106.056.178.036.142.077.325.077.513a.8.8 0 0 1-.061.35c-.031.097-.183.254-.356.244-.269-.03-.315-.147-.417-.224-.066-.06-.127-.121-.177-.162-.087.188-.087.31-.127.894.061.483.696 1.473.711 2.703z"/><path fill="#FFD000" d="M93.35 121.201c1.651-2.286 1.326-4.588 1.337-5.421.167-.655.106-.863.508-1.072.533.163.584.671.909.371.513-.696.147-.676.147-.676s-.294-.452.214-2.621c.68-.909 1.422-1.036 2.011-1.387.483-.675.93-1.224.676-1.915-.153-1.946 1.097-3.297 1.641-3.576.533-.28 2.824.02 3.058-.056.401-.386.34-.341.935-.681.899-.411.99.396 1.945-.249 1.352-.929 3.287-.879 3.272-.874-.015.011-.569 2.774-1.641 4.171-.594.782.742.986.33 1.478-.401.493-.431.915-.431.915s.833.945.599 1.6c-.721 1.29-3.409 2.388-4.481 2.682-1.635.453-.401 2.017-1.315 2.718-.712.539-2.195 1.016-3.2 1.153-1.017.138-4.497 1.423-6.02 3.77l-.504-.33z"/><path fill="#241F0C" d="M110.16 102.78s-.01-.005-.01-.01h-.005s-.01-.005-.015-.01c-.071-.026-.081-.026-.081-.026h-.097c-.371.006-2.078.041-3.383.93-.269.178-.412.208-.528.208-.153.011-.356-.127-.742-.137-.188 0-.396.041-.625.148l-.015.01h-.01c-.534.31-.605.345-.92.66h-.041c-.335 0-1.193-.081-1.91-.081-.442.01-.812.015-1.112.157-.63.341-1.804 1.606-1.819 3.526 0 .117 0 .229.01.345v.041l.016.041c.035.106.05.198.05.294.016.351-.269.767-.65 1.291-.518.294-1.326.477-2.047 1.432l-.04.051-.011.061c-.239 1.031-.315 1.692-.315 2.118 0 .239.025.412.05.529a.5.5 0 0 0 .097.223c0 .01.016.015.02.036h.006a1.3 1.3 0 0 1-.132.203 1.4 1.4 0 0 0-.62-.406l-.122-.036-.112.056a.92.92 0 0 0-.487.538c-.072.214-.097.412-.173.727l-.01.025v.112c0 .234.02.544.02.909 0 1.082-.147 2.678-1.295 4.273l-.183.254.259.178.747.497.172-.259c1.413-2.225 4.898-3.525 5.807-3.632 1.056-.152 2.545-.615 3.343-1.214.487-.371.513-.935.513-1.351v-.224c0-.279.015-.518.101-.681.076-.157.214-.299.6-.411 1.117-.33 3.805-1.372 4.663-2.83l.015-.025.011-.031c.035-.111.055-.228.055-.34-.005-.417-.193-.787-.37-1.067a6 6 0 0 0-.254-.366c.035-.132.127-.37.345-.645a.62.62 0 0 0 .152-.381c-.025-.36-.254-.487-.375-.63-.148-.137-.204-.233-.194-.279 0-.031.011-.086.092-.198.574-.757.98-1.819 1.26-2.703.142-.442.249-.838.315-1.123l.086-.34v-.041l.254-.233-.371-.183zm-2.037 4.247a.96.96 0 0 0-.213.569c0 .361.234.564.366.711.076.071.137.132.173.173 0 .01.01.015.01.02-.458.554-.498 1.047-.508 1.088v.02c.01.132.03.122.04.147l.026.046c.025.01.599.726.579 1.163 0 .046 0 .087-.015.127-.62 1.108-3.277 2.251-4.278 2.51-.493.132-.828.396-.985.726-.163.325-.163.661-.173.955v.224c0 .427-.036.696-.264.869-.625.482-2.108.97-3.064 1.097-1.051.157-4.246 1.3-5.964 3.53 1.006-1.605 1.148-3.185 1.144-4.236 0-.386-.02-.706-.02-.91v-.02c.085-.325.11-.544.151-.645.031-.071.031-.092.087-.132a1 1 0 0 1 .208.162c.097.071.183.244.483.27a.57.57 0 0 0 .391-.178l.02-.021.016-.02c.223-.315.33-.503.34-.731a.43.43 0 0 0-.193-.356 2.4 2.4 0 0 1-.02-.34c0-.356.055-.955.279-1.916.61-.787 1.224-.878 1.885-1.259l.056-.036.035-.051c.37-.528.793-1.021.798-1.691 0-.153-.02-.305-.077-.463-.01-.086-.01-.172-.01-.259-.015-1.631 1.103-2.799 1.489-2.982.066-.04.432-.096.838-.091.681 0 1.509.081 1.91.081.097 0 .158 0 .259-.025l.071-.021.051-.05c.417-.392.264-.275.869-.63a.8.8 0 0 1 .355-.087c.183-.015.371.122.742.132.259 0 .539-.091.869-.31.879-.614 2.103-.777 2.713-.817-.194.802-.717 2.672-1.494 3.672z"/><path fill="#FFD000" d="M90.318 125.742c2.088-1.818 2.073.026 2.936-.198.635-.325.854-.33.975-.777-.279-.473-.812-.381-.579-.767.574-.681.635-.336.635-.336s.534.194 2.581-1.026c.721-.975.6-1.722.747-2.408.498-.711 1.036.132 1.986-.167 1.941-.706 2.301-2.291 2.022-3.384-.284-1.127-1.717-1.32-1.494-2.535.188-1 .681-1.097.986-1.971.305-.868-.945-1.442-.869-2.54.381-1.971-.934-2.707-.914-2.697.005.035-2.535.833-3.013 2.961-.365.818-.899.127-1.468.244-.574.112-.645 1.367-1.036 1.479-.412.116-1.534.035-1.727.802s.132 1.702.259 2.84c.117 1.107-1.677.909-1.392 2.479.203 1.153.721 6.701-1.458 8.438z"/><path fill="#241F0C" d="M89.317 125.905c1.194-.92 1.555-3.368 1.55-5.38 0-1.26-.127-2.347-.204-2.764a2.5 2.5 0 0 1-.035-.37c0-.544.269-.925.553-1.164.295-.239.59-.396.732-.559.097-.106.137-.188.137-.33v-.076c-.101-.859-.32-1.615-.32-2.342 0-.203.02-.411.066-.61.142-.538.615-.767 1.011-.858.381-.097.777-.112.915-.152l.01-.006s.045-.055.066-.106c.06-.112.122-.275.193-.452.147-.331.294-.788.802-.92a1 1 0 0 1 .198-.02c.422.015.727.198.844.178.066-.011.076.03.208-.204.503-2.118 2.804-2.961 3.12-3.103 0 0 .04-.026.065-.036.036-.01.066-.02.102-.02h.051s.02 0 .025.005h.015s.02.01.03.01c0 0 0 .005.011.005 0 0 .02.01.025.015h.01s.026.015.041.031c0 0 .04.025.061.04l.28.224c.411.427.736 1.189.736 1.966 0 .228-.02.472-.071.731v.046c0 .356.178.666.406 1.001.224.335.508.686.514 1.178 0 .122-.021.244-.066.376-.168.483-.402.767-.575 1.016a2.15 2.15 0 0 0-.401.915c-.005.066-.015.132-.015.188 0 .35.213.579.564.899.335.31.782.676.945 1.311a3 3 0 0 1 .086.736c.015 1.103-.625 2.403-2.322 3.013a1.8 1.8 0 0 1-.523.081c-.518-.01-.894-.208-1.056-.193-.082.01-.107 0-.209.122-.122.584-.035 1.443-.787 2.454l-.03.05-.056.031c-1.59.945-2.312 1.077-2.637 1.077a.5.5 0 0 1-.147-.015h-.005l.055-.28-.106.097.04.096s-.02.01-.05.031a1.5 1.5 0 0 0-.219.213l.03.015c.138.082.361.214.514.478l.066.112-.03.127a.98.98 0 0 1-.427.604c-.194.127-.402.198-.712.361l-.02.02h-.04a.7.7 0 0 1-.22.036c-.385-.005-.604-.244-.781-.386-.183-.158-.31-.244-.498-.244-.219 0-.63.142-1.31.736l-.031.021-.844.452-.335-.503zm3.419-.925c.193.178.31.254.391.244h.046c.305-.157.513-.239.615-.305.066-.051.096-.071.121-.127-.106-.112-.243-.157-.426-.299a.47.47 0 0 1-.173-.356.64.64 0 0 1 .097-.325l.02-.021.015-.015c.315-.35.478-.508.762-.528.107 0 .203.041.27.096.218-.02.863-.167 2.214-.96.62-.868.503-1.478.66-2.24l.01-.061.036-.046c.183-.284.478-.437.742-.421.417.015.711.198 1.057.188q.16 0 .33-.051c1.463-.544 1.9-1.545 1.905-2.439a3 3 0 0 0-.061-.589c-.107-.411-.417-.686-.777-1.011-.346-.31-.757-.701-.757-1.346 0-.097.005-.198.025-.305.097-.549.31-.889.508-1.153.193-.274.356-.473.498-.859.015-.066.031-.122.031-.172 0-.214-.168-.493-.412-.839-.228-.345-.513-.767-.513-1.341 0-.035 0-.076.01-.117v-.03q.067-.35.066-.63c0-.965-.488-1.473-.716-1.656-.066.025-.142.061-.244.107a7 7 0 0 0-.884.492c-.655.447-1.346 1.128-1.55 2.078l-.01.031-.01.03c-.147.371-.467.6-.767.584-.386-.02-.655-.193-.843-.177-.025 0-.046 0-.076.01-.04 0-.153.096-.26.32-.1.218-.192.498-.314.741-.092.153-.193.336-.442.412-.275.076-.63.076-.95.157-.32.087-.508.204-.564.422-.04.142-.05.295-.05.457 0 .59.213 1.357.32 2.276 0 .046 0 .097.004.137 0 .31-.137.569-.305.742-.167.178-.36.305-.528.427-.366.259-.584.432-.59.884 0 .076.006.162.026.259.081.472.208 1.575.208 2.875-.005 1.468-.147 3.19-.761 4.501.442-.295.792-.427 1.127-.432.422 0 .701.229.894.386zm6.304-18.12v-.021zm.03-.087v-.02s.021-.02.021-.031c0 0-.025.036-.025.051zm.392-.147s-.015-.01-.03-.01c0 0 .03.01.035.015zm-.132-.026h.005z"/><path fill="#FFD000" d="M79.599 132.91c2.789-.924 5.207-.325 6.157-.223.772-.092.985-.026 1.28-.417-.102-.559-.66-.65-.28-.95.844-.462.773-.101.773-.101s.188.071 2.708-.442a7.7 7.7 0 0 0 2.225-2.114c.767-.543.899-.924 2.011-.909s3.434-1.382 3.709-2.032c.274-.655-.234-2.748-.173-2.987.36-.488.315-.417.59-1.087.269-.991-.626-.889-.133-1.971.686-1.56-.081-2.723-.604-2.815-.524-.086-1.255.234-2.47 1.479-.685.701-1.569-.752-2.504-.336-.934.412-1.036 1.265-1.874 1.372s-1.966-.554-2.632.96c-.655 1.514-.59 2.377-.904 3.134-.31.752-1.676-.299-2.337.554-.93 1.214-.91 3.287-.894 3.292 0 0-.137.635-.416.818-.28.188-.432-.142-.813-.239-.432.208-.224-.183-.686.417-.447.838-.112 3.2-2.957 4.033l.209.559z"/><path fill="#241F0C" d="m78.99 132.148.314-.091c2.652-.798 2.25-2.815 2.774-3.887l.01-.02.01-.015c.127-.163.204-.254.285-.33a.46.46 0 0 1 .32-.148c.086 0 .086.011.086.011s.015 0 .107-.041l.101-.046.107.026c.31.086.508.254.574.284.03-.015.132-.163.188-.315.046-.102.071-.213.087-.264v-.102c.005-.498.08-2.194.965-3.353.29-.381.716-.482 1.066-.477.392 0 .758.091.991.091.203-.015.198-.015.244-.106.274-.651.224-1.575.9-3.135.385-.945 1.102-1.224 1.696-1.199.376 0 .726.066.99.066.061 0 .127 0 .178-.01.31-.04.463-.193.712-.472.238-.269.538-.64 1.077-.879.162-.071.32-.102.477-.102.412 0 .747.188 1.036.341.29.157.549.274.676.269.081-.005.132-.015.219-.102 1.107-1.138 1.849-1.574 2.524-1.585.071 0 .148.005.214.021.62.142 1.107.879 1.127 1.905 0 .406-.086.853-.3 1.331-.096.218-.126.355-.126.447 0 .127.045.208.132.36.081.153.208.381.203.691q0 .199-.061.427v.02l-.01.016c-.244.614-.27.675-.57 1.082.021.32.26 1.478.26 2.286 0 .264-.02.498-.112.711-.228.483-.874.945-1.65 1.402-.783.442-1.637.803-2.307.813h-.102c-.487 0-.7.076-.92.208-.208.127-.426.346-.797.615a8 8 0 0 1-2.28 2.149l-.046.03-.051.01c-2.027.412-2.55.447-2.733.452h-.041v-.299h-.142v.167h-.005c-.03 0-.163.031-.397.158 0 0 .03.04.056.066.107.122.254.325.3.609l.02.133-.076.106a1.1 1.1 0 0 1-.645.432c-.239.056-.478.056-.848.102h-.066c-.595-.061-1.6-.28-2.891-.28-.935 0-2.012.117-3.145.493l-.279.097-.427-1.143zm.883.356a10.6 10.6 0 0 1 2.967-.412c1.316 0 2.377.224 2.91.285.377-.041.62-.051.753-.087.091-.025.137-.04.193-.101a1 1 0 0 0-.127-.203c-.066-.102-.224-.183-.244-.478 0-.193.122-.34.244-.432l.02-.015.02-.01c.35-.193.564-.269.773-.274.111 0 .243.035.33.127.259-.026.914-.117 2.408-.422 1.041-.671 1.691-1.417 2.088-1.997l.03-.045.046-.031c.355-.249.569-.472.879-.665.3-.193.686-.305 1.234-.305h.102c.442.01 1.285-.32 2.001-.732.717-.396 1.352-.95 1.402-1.117.03-.066.061-.249.061-.473 0-.772-.254-1.93-.254-2.337 0-.04 0-.081.016-.157l.02-.046.025-.04c.366-.503.275-.331.549-1.006a.9.9 0 0 0 .035-.254c0-.163-.04-.244-.126-.391-.077-.143-.204-.361-.204-.656 0-.203.061-.432.178-.696.178-.401.25-.767.25-1.087 0-.406-.118-.736-.255-.965-.142-.229-.32-.34-.376-.34a1 1 0 0 0-.107-.011c-.36-.01-1.026.295-2.093 1.403a.88.88 0 0 1-.655.279c-.376-.005-.675-.193-.955-.335-.28-.153-.538-.27-.757-.27a.6.6 0 0 0-.234.051c-.39.178-.614.437-.868.727-.239.279-.554.604-1.087.675-.087.01-.168.016-.254.016-.356 0-.696-.067-.991-.067-.467.021-.782.072-1.138.834-.64 1.468-.559 2.27-.894 3.129-.142.371-.538.493-.808.477-.35 0-.7-.091-.99-.091-.27.005-.432.051-.585.239-.721.919-.848 2.56-.838 2.982v.066s.005.035.005.051c-.005.081-.005.05-.005.071 0 0-.01.015-.01.03 0 0-.015.051-.02.087-.02.071-.046.162-.087.264-.086.203-.188.442-.426.62a.55.55 0 0 1-.326.101c-.223-.005-.345-.112-.447-.167a1.2 1.2 0 0 0-.193-.107.7.7 0 0 1-.249.051h-.02a4 4 0 0 0-.178.218c-.33.62-.137 3.053-2.718 4.024zm4.679-5.238s.005.036.005.051c0 0 0-.036-.005-.051"/><path fill="#FFD000" d="M31.526 65.493c-4.135-4.77-5.715-10.979-5.715-10.979s-1.915 2.434-2.83 6.162c-.93 3.699-.823 8.8 3.079 13.275 2.962 2.042 5.024 2.946 5.004 2.956.025-.035 2.377-4.389.457-11.41z"/><path fill="#241F0C" d="m31.755 65.29.045.05.01.066c.564 2.057.768 3.891.768 5.461 0 3.744-1.133 5.964-1.25 6.167 0 0 0 .005-.02.03 0 0 .02-.024.02-.04a.3.3 0 0 1-.05.076s.014-.02.024-.025l-.01.005-.294.36-.168-.33c-.06-.03-.152-.07-.274-.132-.25-.121-.595-.3-1.037-.548a41 41 0 0 1-3.637-2.25l-.03-.026-.026-.025c-2.723-3.12-3.642-6.554-3.642-9.612 0-1.407.203-2.743.498-3.932.93-3.8 2.87-6.259 2.885-6.279l.381-.482.152.594s.092.376.3 1.026c.209.65.539 1.565.986 2.631.904 2.13 2.326 4.847 4.358 7.199m-.817 11.217c.01-.04.03-.076.055-.127.107-.26.254-.645.402-1.148.29-1.006.584-2.474.584-4.344 0-1.504-.193-3.261-.721-5.232-3.379-3.927-5.05-8.753-5.558-10.435-.183.275-.422.656-.69 1.138a18.2 18.2 0 0 0-1.728 4.405 15.5 15.5 0 0 0-.473 3.784c0 2.926.864 6.193 3.46 9.18 2.296 1.575 4.018 2.459 4.669 2.779m.38.584q.001.001-.005.01z"/><path fill="#FFD000" d="M33.106 74.896c-.711-4.476.295-9.48.513-13.153-.071.03-3.292 1.382-5.812 4.263-2.545 2.865-4.77 7.381-3.332 13.106 1.752 3.125 3.155 4.826 3.144 4.831.016-.01 4.547-3.728 5.487-9.042z"/><path fill="#241F0C" d="m33.954 61.26-.452.199c-.086.04-3.353 1.397-5.928 4.343-2.017 2.276-3.851 5.593-3.851 9.729 0 1.153.142 2.372.467 3.647l.01.04.02.036a44 44 0 0 0 2.236 3.597 25 25 0 0 0 .864 1.179c.01.015.02.025.02.035l.107.412.376-.31c.02-.03 4.617-3.77 5.583-9.22l.01-.051-.01-.051a22.5 22.5 0 0 1-.244-3.434c0-3.42.6-6.889.767-9.657l.03-.493zm-6.223 22.958a.2.2 0 0 1-.112.025zm4.821-12.807c0 1.168.061 2.337.244 3.474-.462 2.56-1.788 4.766-3.012 6.325a18.4 18.4 0 0 1-2.114 2.281c-.442-.579-1.57-2.113-2.906-4.5a14.4 14.4 0 0 1-.436-3.46c0-3.953 1.752-7.128 3.708-9.327 1.92-2.2 4.277-3.495 5.253-3.978-.193 2.631-.727 5.913-.727 9.185z"/><path fill="#FFD000" d="M25.328 83.918c-1.29-6.909-4.333-13.092-4.333-13.092s3.063.778 6.396 2.825c3.327 2.068 6.838 5.283 8.148 10.602-.111 3.353-.315 5.466-.32 5.466.036-.02-5.258.615-9.89-5.801"/><path fill="#241F0C" d="M35.062 90.03h-.178c-1.285 0-5.812-.407-9.805-5.934l-.04-.056-.016-.066c-.64-3.43-1.717-6.686-2.636-9.083-.92-2.398-1.666-3.927-1.671-3.932l-.29-.585.635.163s3.109.782 6.477 2.86c3.368 2.093 6.955 5.375 8.286 10.79l.01.04v.041c-.102 3.145-.29 5.162-.325 5.472v.985l-.457-.696zm-.178-.605h.06c0-.036 0-.071.016-.112.02-.249.05-.62.081-1.092.072-.935.148-2.281.194-3.932-1.286-5.192-4.72-8.332-7.997-10.379a26.7 26.7 0 0 0-4.394-2.154 22 22 0 0 0-1.28-.447c.787 1.722 2.997 6.848 4.059 12.487 3.86 5.293 8.113 5.618 9.271 5.629z"/><path fill="#FFD000" d="M37.404 85.9c-.122-2.16-2.952-9.282-2.464-12.33-1.047.686-1.362 1.65-3.643 4.745-2.27 3.058-5.42 7.706-3.388 13.289 2.052 2.957 3.647 4.506 3.632 4.516.015-.015 5.98-8.062 5.863-10.22"/><path fill="#241F0C" d="M37.703 85.884c-.07-1.082-.7-3.11-1.315-5.33-.615-2.214-1.215-4.592-1.204-6.197 0-.274.01-.523.045-.742l.117-.68-.579.376c-1.148.772-1.443 1.747-3.714 4.815-1.762 2.373-4.1 5.746-4.1 9.836 0 1.193.199 2.443.671 3.739l.016.035.025.036a40 40 0 0 0 2.601 3.378c.325.38.59.67.772.869.087.096.163.172.214.223.015.015.025.025.035.04l.168.33.295-.278c.035-.03.025-.026.03-.03.046-.062 1.499-2.028 2.977-4.288.731-1.133 1.458-2.327 2.017-3.394.543-1.072.93-1.981.94-2.662v-.076zm-1.488 2.474c-.808 1.564-2.042 3.464-3.063 4.963a68 68 0 0 1-1.316 1.87c-.127.182-.244.335-.33.452-.519-.549-1.794-1.961-3.333-4.181a10.2 10.2 0 0 1-.625-3.49c0-3.851 2.236-7.112 3.988-9.475 1.814-2.474 2.403-3.586 3.038-4.242v.107c0 1.738.61 4.13 1.23 6.36.62 2.21 1.244 4.278 1.29 5.192 0 0 .005.036.005.056.01.442-.34 1.362-.884 2.393z"/><path fill="#FFD000" d="M29.555 95.643c-1.54-5.218-5.471-11.908-5.471-11.908s3.134.518 6.65 2.255c3.51 1.763 7.325 4.608 9.184 9.734.27 3.327.305 5.446.3 5.446.05-.036-5.37.442-10.658-5.522z"/><path fill="#241F0C" d="M40.218 95.694v-.041l-.02-.036c-1.895-5.222-5.787-8.123-9.338-9.9-3.55-1.758-6.705-2.282-6.726-2.282l-.635-.106.33.558s.981 1.667 2.144 3.978c1.169 2.317 2.53 5.283 3.292 7.864l.02.066.041.05c4.826 5.442 9.805 5.625 10.74 5.625h.121l.01-.214.01-.046.285.092.026-.081v-.082c0-.289-.061-2.331-.305-5.435zm-10.389-.204c-1.3-4.333-4.17-9.596-5.146-11.328.33.076.788.183 1.326.335 1.209.346 2.855.9 4.587 1.758 3.465 1.742 7.194 4.521 9.017 9.525.199 2.545.275 4.374.29 5.07-1.173-.031-5.65-.402-10.079-5.365z"/><path fill="#FFD000" d="M41.681 98.04c-2.54-4.587-3.2-12.791-3.2-12.791s-2.46 1.89-4.283 5.258c-1.829 3.332-2.926 8.3-.04 13.574 2.51 2.641 4.333 3.927 4.318 3.937.02-.031 3.586-4.664 3.2-9.972z"/><path fill="#241F0C" d="M41.991 98.015v-.066l-.04-.056c-1.24-2.24-2.043-5.415-2.51-8.026-.488-2.612-.64-4.638-.65-4.649l-.041-.553-.442.34s-2.515 1.93-4.369 5.354c-1.041 1.9-1.854 4.313-1.854 7.026 0 2.144.508 4.466 1.813 6.838l.016.036.025.03a42 42 0 0 0 3.124 2.972c.386.33.696.574.91.747.101.081.188.142.238.188.01.005.02.015.026.02l.203.406.295-.431s3.281-4.252 3.281-9.333q0-.412-.03-.833zm-3.566 9.566c-.574-.442-2.083-1.656-4.019-3.683-1.234-2.271-1.717-4.476-1.717-6.513 0-2.586.778-4.907 1.778-6.73.9-1.657 1.951-2.952 2.78-3.831.4-.417.74-.742.995-.97.203 1.945.99 8.326 3.15 12.278.02.239.03.483.03.721 0 4.141-2.311 7.747-2.992 8.733z"/><path fill="#FFD000" d="M35.33 107.774c-1.996-5.08-6.842-11.329-6.842-11.329s3.19.204 6.848 1.57c3.719 1.377 7.788 3.775 10.297 8.58.676 3.252 1.021 5.334 1.006 5.334.061-.05-5.263 1.184-11.308-4.155"/><path fill="#241F0C" d="M46.944 111.894a6 6 0 0 0-.066-.432c-.127-.772-.447-2.535-.95-4.933v-.035l-.02-.036c-2.55-4.897-6.706-7.335-10.455-8.722-3.704-1.382-6.914-1.585-6.935-1.59l-.665-.041.406.528s1.21 1.555 2.662 3.739c1.453 2.185 3.16 5.009 4.146 7.514l.025.071.05.046c4.253 3.764 8.195 4.323 10.186 4.323.412 0 .737-.026.97-.051.031 0 .067 0 .092-.005l.087.696.452-.894s.03-.087.03-.137v-.036zm-.721-.224a10 10 0 0 1-.915.041c-1.874 0-5.496-.254-9.606-3.861l-.264-.589c-1.682-4.217-5.07-8.814-6.29-10.45.34.04.793.102 1.337.203 1.239.219 2.936.605 4.744 1.28 3.668 1.362 7.65 3.704 10.11 8.398.33 1.575.574 2.87.746 3.785.082.457.148.823.188 1.077.01.04.016.071.016.106-.02 0-.046 0-.066.01"/><path fill="#FFD000" d="M46.903 107.891c-3.546-5.858-5.867-10.912-5.867-10.912s-.346.675-1.915 4.145c-1.57 3.424-2.332 8.494 1.061 13.518 2.749 2.428 4.704 3.536 4.694 3.546.026-.035 2.83-5.07 2.027-10.292z"/><path fill="#241F0C" d="m47.198 107.85-.01-.061-.03-.051a129 129 0 0 1-4.248-7.635 82 82 0 0 1-1.595-3.251l-.259-.564-.29.549s-.355.69-1.925 4.16c-.772 1.692-1.356 3.78-1.356 6.071 0 2.433.665 5.1 2.443 7.742l.026.025.03.031a39 39 0 0 0 3.399 2.697c.416.295.752.508.98.656q.175.108.26.162c.01 0 .01.005.015.01l.203.407.29-.442v-.01s.01-.016.01-.026h.01c.208-.391 2.184-4.11 2.2-8.484 0-.655-.051-1.32-.158-1.986zm-1.514 7.722a20 20 0 0 1-.726 1.793c-.076.153-.137.28-.193.386-.63-.396-2.24-1.453-4.349-3.312-1.702-2.53-2.316-5.05-2.316-7.366 0-2.19.558-4.191 1.3-5.822a218 218 0 0 1 1.544-3.368c.03-.071.066-.137.092-.198.711 1.483 2.748 5.639 5.578 10.312.096.62.132 1.24.132 1.839 0 2.185-.523 4.232-1.062 5.736"/><path fill="#DD052B" d="M46.802 108.632s-5.64-4.135-9.043-4.887c-3.393-.751-5.72-.843-7.549-2.778-1.823-1.93-1.625-4.05-3.698-7.814-2.073-3.759-.884-5.491-.884-5.491s2.337 2.59 6.802 4.486c4.476 1.89 8.758 2.809 10.074 5.78 1.235 2.795 4.298 10.699 4.298 10.699z"/><path fill="#241F0C" d="M47.076 108.526s-3.053-7.905-4.293-10.714c-1.453-3.185-5.806-4.044-10.23-5.944a23 23 0 0 1-5.02-2.91 16 16 0 0 1-1.265-1.083c-.284-.264-.416-.416-.416-.416l-.26-.285-.223.32c-.03.04-.396.6-.391 1.697 0 .965.28 2.327 1.265 4.115 2.052 3.693 1.834 5.812 3.754 7.874 1.925 2.032 4.333 2.113 7.696 2.865 1.62.356 3.881 1.57 5.7 2.688a52 52 0 0 1 3.22 2.143l.844.62zm-9.25-5.075c-3.44-.757-5.675-.859-7.392-2.688-1.733-1.808-1.56-3.916-3.658-7.747-.95-1.717-1.189-2.977-1.189-3.825 0-.442.071-.767.137-.99.788.767 3.023 2.712 6.59 4.226 4.52 1.89 8.727 2.855 9.91 5.629.615 1.387 1.687 4.064 2.607 6.385.533 1.347 1.005 2.566 1.32 3.363-1.696-1.168-5.618-3.749-8.326-4.353"/><path fill="#FFD000" d="M41.793 118.579c-3.094-4.343-8.27-10.531-8.27-10.531s3.195-.132 7.015.803c3.85.955 8.174 2.83 11.298 7.209 1.118 3.104 1.778 5.1 1.773 5.1.046-.061-5.03 1.986-11.811-2.581z"/><path fill="#241F0C" d="m41.62 118.833-.046-.03-.035-.046c-1.544-2.164-3.602-4.795-5.278-6.883-1.682-2.088-2.972-3.628-2.972-3.633l-.391-.472.61-.026s.162-.005.451-.005c1.021 0 3.638.077 6.65.823 3.886.961 8.29 2.866 11.471 7.326l.02.03.015.041c1.062 2.957 1.712 4.882 1.779 5.105v.021s0 .01.005.04v.041s.005.046-.02.117l.015-.046s-.016.036-.02.056v.01l-.275.544-.158-.32a9 9 0 0 1-.594.142c-.523.107-1.27.213-2.205.213-2.184 0-5.374-.579-9.027-3.043zm9.033 2.434c1.25 0 2.138-.198 2.57-.315 0 0-.015-.046-.03-.071-.072-.239-.194-.585-.34-1.027-.31-.878-.748-2.128-1.296-3.652-3.064-4.273-7.285-6.112-11.095-7.051a29 29 0 0 0-6.3-.808c1.276 1.544 5.258 6.391 7.844 10.018 3.53 2.367 6.574 2.906 8.641 2.906zm3.25-.107s0 .041-.004.071c0 0 .005-.051.005-.071"/><path fill="#FFD000" d="M46.299 104.208c-.213.335-.498.802-.813 1.382-.655 1.198-1.432 2.849-1.91 4.663a14.1 14.1 0 0 0-.473 3.612c0 2.941.95 6.248 3.871 9.205 2.292 1.372 4.05 2.103 4.817 2.398.06.025.116.041.157.061q.03-.077.076-.183c.112-.284.26-.696.407-1.204.294-1.011.589-2.413.589-3.947 0-1.179-.173-2.439-.645-3.673-.869-2.256-1.92-3.48-3.028-5.172-1.052-1.59-2.119-3.581-3.048-7.142"/><path fill="#241F0C" d="M52.598 116.613c-.899-2.347-1.925-3.373-2.997-5.024-1.087-1.651-1.92-4.262-2.88-8.189l-.153-.64-.386.533s-2.205 3.059-3.195 6.803a14.8 14.8 0 0 0-.498 3.769c0 3.078 1.016 6.584 4.074 9.657l.03.026.036.02a36 36 0 0 0 3.886 2.027c.473.208 1.895.391 1.895.391.148-.335 1.214-2.804 1.214-5.791 0-1.24-.513-2.266-1.02-3.587zm-.655 8.916c-.04-.02-.102-.036-.158-.061-.767-.295-2.524-1.026-4.816-2.398-2.92-2.957-3.87-6.264-3.87-9.205 0-1.295.182-2.525.472-3.612.477-1.814 1.255-3.465 1.91-4.664.32-.579.605-1.046.813-1.381.924 3.561 1.747 6.121 2.794 7.716 1.107 1.692 2.072 2.652 2.941 4.908.473 1.234.98 2.189.98 3.368 0 1.534-.294 2.936-.589 3.947-.147.508-.294.92-.406 1.204-.03.071-.05.132-.076.183z"/><path fill="#FFD000" d="M48.483 127.139c-2.992-4.094-9.276-9.398-9.276-9.398s3.739-1.123 7.554-.376c3.861.772 8.067 2.555 11.47 6.747 1.347 3.053 2.241 5.014 2.226 5.024.076-.061-4.816 2.311-11.974-2.002z"/><path fill="#241F0C" d="M60.757 129.136a.2.2 0 0 0-.03-.127c-.112-.275-.966-2.144-2.22-5.019l-.021-.041-.025-.036c-3.45-4.252-7.732-6.07-11.644-6.848a15 15 0 0 0-2.85-.264c-2.713 0-4.836.635-4.856.64l-.539.163.427.361s1.564 1.315 3.505 3.149c1.936 1.829 4.247 4.176 5.725 6.198l.036.051.056.035c3.464 2.088 6.436 2.637 8.58 2.637 1.133 0 2.042-.153 2.667-.31a6 6 0 0 0 .686-.203l.06.173.346-.346.036-.046.04-.071q.01-.031.01-.056c0-.015.01-.025.01-.04m-3.851.294c-2.027 0-6.878-1.387-8.448-2.748-1.56-1.367-7.143-7.513-8.616-8.794q.319-.083.798-.167a19 19 0 0 1 3.332-.31c.869 0 1.798.066 2.733.254 3.805.762 7.92 2.504 11.268 6.604a380 380 0 0 0 1.595 3.597l.447 1.016c.015.03.025.051.03.076-.487.168-1.564.472-3.139.472"/><path fill="#DD052B" d="M92.197 128.729c-2.905.752-11.216-2.687-20.234-2.687-9.855 0-18.953 4.201-20.985 2.464-.402-.341-.178-.143.335.376.94.96 3.12 2.936 5.263 4.77a58 58 0 0 0 4.71 3.591c.365.153.776.234.776.234s4.125-1.488 9.907-1.488c5.78 0 9.9 1.488 9.9 1.488s.412-.081.778-.234a56 56 0 0 0 4.71-3.591c2.143-1.834 4.317-3.81 5.262-4.77.508-.524-.142-.224-.411-.153z"/><path fill="#241F0C" d="M81.758 137.762s-1.006-.361-2.743-.732a34 34 0 0 0-7.052-.742c-4.297 0-7.67.828-9.083 1.245-.472.137-.716.229-.716.229l-.076.03-.087-.015s-.436-.081-.838-.249l-.025-.01-.03-.015c-.88-.6-2.81-1.961-4.735-3.607-2.154-1.839-4.323-3.81-5.284-4.791-.233-.244-.416-.416-.492-.498-.036-.035-.03-.02-.087-.091 0 0-.02-.02-.035-.066-.01-.036-.02-.071-.02-.102 0-.081.035-.162.09-.213a.27.27 0 0 1 .21-.092h.03l.06.016h.01q.038.001.082.04l.02.016s.03.02.046.035c.04.031.081.071.157.132.25.219.737.356 1.438.351 3.419.01 11.13-2.886 19.355-2.891 8.184 0 15.81 2.809 19.228 2.794q.556.002.93-.096c.127-.026.366-.148.615-.158.05 0 .112 0 .203.051.091.041.178.193.168.295-.01.147-.061.203-.102.269a1 1 0 0 1-.178.203c-.96.975-3.134 2.952-5.278 4.791a58 58 0 0 1-4.74 3.606l-.03.016-.026.01a4.6 4.6 0 0 1-.838.249l-.081.015-.081-.03zm-19.721-.6c.615-.208 4.557-1.473 9.926-1.473 5.35 0 9.297 1.265 9.917 1.473a3.6 3.6 0 0 0 .61-.188 55 55 0 0 0 4.663-3.551c1.86-1.595 3.754-3.302 4.826-4.338a6 6 0 0 1-.787.051c-3.658-.01-11.151-2.799-19.229-2.794-8.123 0-15.692 2.875-19.355 2.89q-.284-.001-.538-.025c1.087 1.051 2.906 2.687 4.694 4.221 1.884 1.606 3.79 2.952 4.658 3.551.234.097.488.158.615.188z"/><path fill="#FFD000" d="m67.264 128.618.89 5.552-.89.127-.782-4.826-.96.137.777 4.826-.884.122-.899-5.557 2.738-.387zM72.471 128.313v.797c1.027 0 1.565.346 1.565 1.098v1.737c0 .914-.6 1.153-1.57 1.153v.833h-.899v-.833c-.995 0-1.57-.239-1.57-1.153v-1.737c0-.747.534-1.098 1.575-1.098v-.797zm-1.574 3.856q0 .252.67.254v-2.642c-.391 0-.67.041-.67.533zm2.235-1.85c0-.426-.203-.533-.66-.533v2.642c.345 0 .66-.041.66-.254zM77.206 131.203h.03l1.438-2.362.864.112-1.443 2.398.625 3.17-.91-.122-.609-2.957h-.02l-.422 2.814-.894-.116.833-5.558.89.117-.377 2.509zM65.806 17.166l-15.25 1.696s10.353 9.14 11.43 10.084c-.305 1.402-3.236 15.124-3.236 15.124s12.02-7.102 13.264-7.839c1.24.737 13.244 7.844 13.244 7.844s-2.926-13.727-3.226-15.129c1.077-.945 11.415-10.084 11.415-10.084l-15.23-1.696-6.208-14.21-6.198 14.21z"/><path fill="#241F0C" d="m57.932 46.153-4.11 3.195-.817-2.444-16.495 3.922-9.454 31.502 9.28 4.71 5.167-1.083 2.926 3.495 10.227-.833s.36-4.08.508-6.365c.914.767 2.159 1.818 2.159 1.818l10.485-.518s2.53-2.296 3.505-3.546c.01.666.061 3.47.061 3.47l11.608.37s.29-2.255.407-3.144l1.722 3.221s13.508 1.483 15.184 1.732c1.666.25 9.048 1.54 9.048 1.54l8.097-4.68-10.063-31.176-11.329-3.363-2.616 2.048.945-2.464-9.759-1.712-2.23 5.7a874 874 0 0 1-.401-5.802l-10.272-.483s-.01 2.805-.01 3.678c-1.692-1.305-4.562-3.566-4.562-3.566l-9.21.783z"/><path fill="#FFD000" d="M73.157 76.857h.813c2.718.025 5.476.096 8.19.218l.934.04s-.473-7.731-.716-11.79c2.21 3.856 6.99 12.182 6.99 12.182l.411.03c5.146.407 10.145.986 14.849 1.722l1.22.188-1.265-5.821c1.021.142 1.961.274 2.514.355.259.945 1.56 5.75 1.56 5.75l.482.108 6.945 1.605-9.307-29.47-10.383-2.997-3.968 3.22 3.683 20.169c-2.382-3.856-6.93-11.212-7.31-11.827l4.16-12.288-7.676-1.347s-2.357 5.736-3.733 9.145c-.25-3.597-.66-9.414-.66-9.414l-8.195-.35.452 30.572zm27.184-21.154c.965.28 1.686.493 2.113.615.224.808 2.286 8.153 2.886 10.302-1.067-.178-1.997-.34-2.546-.432-.223-.95-1.92-8.214-2.448-10.49zm-42.2-8.616-5.599 4.654s-2.758 17.496-2.967 18.857l-1.244.091c.376-2.169 3.901-22.672 3.901-22.672l-7.086 1.615-5.126 22.271-2.317.361 5.451-22.073-6.045 1.346-8.84 29.683s12.295-2.128 13.326-2.286c-.198 1.453-.706 5.213-.706 5.213l8.397-.874.102-.737 1.107-8.397c1.32 1.127 3.942 3.373 3.942 3.373l.31-.02c3.632-.28 6.909-.615 10.628-.717h.254l6.177-4.958.071-10.104-.864.025-7.33.305-.523 7.58c-.905.05-3.313.238-4.476.3l1.732-16.872c.823-.04 2.337-.188 3.318-.238-.016 1.31-.051 5.207-.051 5.207l8.189-.127.025-7.58-5.136-3.957-8.62.716z"/><path fill="#fff" d="M73.975 75.912c2.759.02 5.517.091 8.22.213-.026-.33-.874-14.382-.874-14.382l8.524 14.844c5.172.407 10.181.99 14.905 1.727-.086-.4-1.265-5.8-1.265-5.8l4.257.599s1.519 5.628 1.57 5.801c.142.03 5.065 1.168 5.492 1.27-.153-.503-8.631-27.529-8.631-27.529l-9.586-2.662s-3.094 2.51-3.226 2.621c.03.193 4.267 23.343 4.267 23.343l-.244.122-9.515-15.402 3.952-11.67-6.02-1.081-4.82 11.841s-.844-11.979-.854-12.238a122 122 0 0 0-6.568-.284c0 .31.411 28.377.416 28.662zm28.149-8.875-2.947-12.65 3.937 1.148 3.43 12.254-4.415-.752zm-43.872-19.02c-.056.05-4.867 4.186-4.943 4.257-.02.117-3.017 19.223-3.017 19.223l-2.987.224 3.83-22.48-5.298 1.113-5.106 22.423-4.176.58 5.563-22.13-4.476.945-8.199 27.916 13.142-2.251s-.67 4.902-.716 5.258c.32-.036 6.482-.67 6.68-.696.026-.229 1.326-9.977 1.326-9.977l4.816 4.125c3.642-.275 6.93-.615 10.668-.717.061-.055 5.507-4.414 5.619-4.506 0-.147.056-8.336.06-8.64-.263.01-6.344.279-6.578.284-.015.264-.518 7.559-.518 7.559l-6.198.396 1.93-18.781 4.908-.315s-.046 4.933-.046 5.227c.26-.005 6.239-.08 6.483-.091 0-.29.055-5.99.05-6.142-.106-.086-4.47-3.45-4.541-3.51-2.886.122-5.451.355-8.27.686z"/><path fill="#DD052B" d="M90.17 19.899 77.267 18.46l-5.258-12.02-5.248 12.02-12.923 1.438 9.682 8.544-2.738 12.812 11.232-6.644 11.217 6.644-2.728-12.812z"/><path fill="#FFD000" d="m72.624 26.01 9.972-3.465-.046-.162-10.155 2.9-.01-.01-.295-10.551h-.172l-.3 10.551-10.12-2.987-.05.158 9.936 3.56-6 8.688.143.101 6.472-8.336 6.396 8.402.137-.101z"/><path fill="#DD052B" d="M96.907 108.602s3.312-2.906 9.118-4.196c3.399-.757 5.528-1.504 7.351-3.439 1.829-1.93 1.875-3.963 3.739-7.829 1.87-3.86.854-5.476.854-5.476s-2.342 2.59-6.818 4.486c-4.47 1.89-8.163 2.463-9.494 5.217-1.336 2.748-4.755 11.237-4.755 11.237z"/><path fill="#241F0C" d="m96.907 108.602.198.229-.478-.341s3.419-8.483 4.76-11.257c1.468-2.942 5.233-3.475 9.647-5.365 3.313-1.402 5.436-3.195 6.295-3.993.279-.264.416-.416.421-.416l.269-.295.209.335c.03.041.325.539.325 1.57 0 .94-.249 2.322-1.153 4.201-1.86 3.816-1.89 5.873-3.795 7.91-1.89 1.996-4.105 2.769-7.509 3.521-4.292.955-7.218 2.809-8.392 3.672-.401.285-.59.458-.59.458l-.197-.229zm14.366-16.175c-4.526 1.895-8.148 2.515-9.342 5.07-.666 1.356-1.854 4.166-2.87 6.629a369 369 0 0 0-1.464 3.562c1.362-.955 4.242-2.667 8.357-3.587 3.394-.757 5.436-1.478 7.194-3.343 1.752-1.828 1.808-3.835 3.693-7.752.879-1.819 1.092-3.104 1.092-3.937 0-.37-.046-.65-.091-.853-.803.777-3.028 2.712-6.574 4.211z"/><path fill="#FFD000" d="M31.73 95.1c.482 0 .781-.113.655-.63l.757.1 1.412 5.67-.92-.122-1.082-4.343-.675-.092-.153-.584zM35.89 96.837c-.153-.59-.107-1.093.924-.956.788.102 1.275.524 1.448 1.21l.904 3.611c.183.696-.066 1.093-.92.981-.873-.117-1.29-.589-1.477-1.331l-.026-.092.864.122.05.198c.057.224.138.442.443.483.304.041.294-.168.238-.391l-.29-1.133c-.09.147-.167.234-.584.178-.365-.046-.914-.244-1.112-1.016l-.467-1.86zm1.244 1.712c.061.248.173.426.473.472.269.035.284-.168.228-.376l-.406-1.61c-.056-.229-.173-.478-.493-.519-.315-.04-.259.209-.208.417l.411 1.62zM110.089 95.546c.554-.208.95-.452 1.103-.955l.792-.208-1.641 5.573-.965.254 1.255-4.268-.711.183zM106.239 97.014c.548-.208.945-.452 1.097-.96l.792-.208-1.635 5.573-.976.254 1.26-4.267-.711.182.168-.579z"/><path fill="#241F0C" d="M87.437 96.298c-.38-1.026-1.005-2.306-1.803-3.22 0 0-.462-.504-1.224-.702-.391-.107-.732-.178-.976-.193-.315-.452-1.336-1.697-2.789-2.769-1.305-.955-2.82-1.6-3.434-1.844-.081-.233-.27-.569-.533-.955-.437-.655-1.057-.93-1.057-.93-1.128-.467-2.54-.64-3.632-.67-1.092.04-2.505.234-3.627.711 0 0-.62.285-1.042.94-.264.401-.457.742-.528.975-.63.234-1.976.808-3.297 1.773-1.341.98-2.428 2.281-2.82 2.77-.243.01-.594.08-.995.192-.762.198-1.224.701-1.224.701-.803.91-1.423 2.195-1.799 3.221-.315 1.046-.59 2.449-.498 3.663 0 0 .071.675.56 1.29.279.356.522.63.72.782.006.6.122 2.159.65 3.795.54 1.666 1.515 3.196 1.794 3.617-.066.239-.097.59-.117 1.016a2.8 2.8 0 0 0 .305 1.377c.635 1.036 1.671 2.022 2.53 2.687.914.615 2.159 1.296 3.348 1.57 0 0 .66.142 1.402-.142.37-.142.675-.274.889-.396.553.177 2.067.548 3.82.553h.02c1.032 0 2.063-.157 2.84-.32.386-.076.711-.157.94-.218q.009.001.025-.005c.203.127.503.254.859.386.747.279 1.402.142 1.402.142 1.189-.274 2.443-.955 3.343-1.57.863-.665 1.9-1.651 2.53-2.687 0 0 .345-.589.304-1.377-.025-.442-.056-.813-.127-1.051a14.3 14.3 0 0 0 1.738-3.358c.62-1.778.746-3.714.767-4.059.188-.158.411-.422.675-.747.483-.62.554-1.29.554-1.29.092-1.215-.178-2.617-.493-3.663zm-10.409-8.341c.584.223 2.098.863 3.368 1.798 1.3.95 2.276 2.113 2.632 2.576-.061.228.274.604.452 2.28.142 1.392-.152 2.297-.208 2.8l-5.888 1.94c-.163-.264-.686-.843-2.373-2.073-1.58-1.153-2.316-1.503-2.651-1.605l-.112-6.34c.447-.198 1.22-.792 2.616-1.112 1.352-.31 1.9-.229 2.164-.26zM60.62 94.61c.162-1.59.477-2.006.457-2.24.427-.523 1.453-1.717 2.672-2.611a13.8 13.8 0 0 1 3.267-1.748c.279.026.833-.045 2.138.234 1.377.3 2.149.874 2.606 1.072l-.117 6.411c-.39.157-1.127.559-2.484 1.544-1.443 1.062-2.032 1.636-2.27 1.941l-6.061-1.753c-.036-.487-.36-1.407-.213-2.855zm1.56 15.632c-1.449-.625-1.769-1.047-1.997-1.113-.336-.518-1.2-1.92-1.687-3.434-.508-1.559-.625-3.083-.63-3.652.122-.219.188-.757.945-2.017.706-1.179 1.478-1.727 1.829-2.098l6.03 1.91c-.005.376.096 1.209.696 2.992.605 1.814 1 2.535 1.209 2.819l-3.515 5.268c-.432-.147-1.458-.066-2.88-.68zm15.102 3.353c-1.133 1.285-1.625 1.371-1.696 1.605v.01c-.732.183-2.124.478-3.506.483h-.02c-1.54.005-2.947-.32-3.551-.488-.071-.234-.564-.32-1.702-1.605-.843-.96-1.158-1.809-1.392-2.276l3.754-5.268c.412.112 1.24.228 2.927.228 1.635 0 2.458-.116 2.88-.223l3.81 5.09c-.254.412-.528 1.362-1.499 2.454zm8.25-7.671a13.5 13.5 0 0 1-1.66 3.221c-.23.091-.58.502-1.957 1.097-1.254.538-2.2.543-2.697.635l-3.632-5.167c.203-.243.604-.929 1.229-2.875.498-1.549.66-2.372.69-2.809l5.904-2.139c.325.366 1.133.914 1.87 2.139.833 1.382.827 1.905.99 2.072-.04.549-.193 2.266-.742 3.821zM53.756 124.543c-.04-1.879-.635-3.043-.635-3.053h-.06s.152.457.253 1.021c0 0 .168.899.143 1.824a44 44 0 0 0-3.673-2.317l-.005-.005c-3.46-1.971-6.472-3.215-6.477-3.22l-.03.055s2.397 1.118 5.303 2.815q.19.106.38.228c-1.249-.188-2.671.021-2.687.021l.02.051s2.043-.046 3.349.34c1.757 1.067 3.622 2.327 5.252 3.683-2.108-.264-4.546.152-4.552.152l.026.061s2.774-.274 4.994.178c.67.584 1.295 1.184 1.839 1.793l.355-.32c-1.051-1.173-2.377-2.281-3.795-3.302zM91.811 124.96c2.952-3.018 5.055-5.873 5.06-5.878l-.04-.03s-1.403 1.686-3.44 3.82c.295-1.179.376-2.428.381-2.433h-.06s-.23 1.605-.697 2.824a4 4 0 0 1-.203.203 53 53 0 0 1-2.626 2.545c.401-2.209.091-4.668.091-4.668l-.05.01s.162 2.759-.392 4.973a36 36 0 0 1-2.265 1.88c.132.097.264.224.396.259a40 40 0 0 0 3.55-3.221c2.216.097 4.67-.233 4.68-.233l-.016-.051s-2.443.162-4.374 0zm-5.126.736s.55 1.499.625 2.693h.29c-.224-1.316-.869-2.703-.874-2.708zM117.562 72.33l-.03-.025s-.981 1.3-1.418 2.088c-.264-3.297-.772-5.817-.772-5.822l-.056.01c0 .03.422 2.672.554 6.035.02.63.036 1.29.041 1.961.112-.015.233-.025.34-.04q-.028-.9-.086-1.753c.269-.67 1.422-2.454 1.422-2.454zM118.06 69.623l.325-1.113a73 73 0 0 1 1.981-5.71l-.055-.01s-.773 1.65-1.646 4.044c-.315-.844-.803-1.616-.803-1.616l-.036.015s.488 1.011.722 1.926c-.269.746-.539 1.55-.803 2.402a.7.7 0 0 0 .315.067zm3.023-1.316c.03.01-1.733 1.072-3.211 1.473.102.086.163.173.219.218 1.554-.614 3.017-1.656 3.027-1.656zM26.542 61.779l-.035-.036s-.554 1.082-.849 2.24c-.421-2.92-.452-5.09-.452-5.115h-.05s-.305 4.74.94 9.14c.096-.133.197-.275.299-.412-.193-.915-.447-1.819-.594-2.672.076-1.352.741-3.145.746-3.15zM42.723 112.808c-2.825-1.757-5.111-2.865-5.116-2.87l-.02.036c.025.015 2.51 1.447 5.08 3.22.08.061.116-.35.05-.386zm.111 1.428c-1.285-.188-2.398-.036-2.408-.036v.046s1.575-.01 2.439.274zM117.334 84.192c-.615.102-1.392.163-2.241.168-.01.025-.02.06-.03.091.147.03.249.132.218.254a22 22 0 0 0 2.058-.315c1.417-.28 2.179-.553 2.184-.553l-.015-.041s-.762.168-2.174.401zm2.9-6.893-.056-.02s-1.508 1.27-3.673 3.784c.077.081.158.162.214.244 2.098-2.606 3.5-3.993 3.515-4.008M94.29 113.768s.88 2.535.727 4.71l.3.015.035.015c.097-2.255-1.01-4.765-1.01-4.765l-.057.02zm4.948-1.585s-.7.27-1.457.768c.589-1.977.899-3.333.904-3.333l-.036-.02c-.005.03-.742 2.514-1.93 5.664-.285.762-.61 1.57-.955 2.388.127.005.259.015.38.02a60 60 0 0 0 1.54-4.41c.879-.665 1.58-1.016 1.58-1.016zM106.269 111.345v-.056s-2.769.107-4.445.442a58 58 0 0 0 1.93-2.972c.895-.523 2.099-.868 2.099-.868l-.021-.051s-.823.152-1.874.589c1.351-2.26 2.179-3.937 2.184-3.942l-.101-.051c-.016.026-1.23 2.302-3.104 5.091-.056.081-.117.162-.173.243-.219-1.366-.894-2.697-.894-2.707l-.041.03s.61 1.666.716 2.997a58 58 0 0 1-2.209 2.998c.198.538-.585.584-.376 1.133a37 37 0 0 0 1.605-2.134c1.849-.493 4.689-.737 4.694-.737zM114.159 88.307s-.579.498-1.794 1.377c-.416.305-.95.63-1.549.985.3-1.143.554-2.22.757-3.175.554-.752 1.356-1.524 1.356-1.524l-.025-.04s-.752.61-1.235 1.107c.387-1.905.569-3.185.574-3.19l-.111-.02a67 67 0 0 1-1.296 5.562c-.752-1.199-2.179-2.347-2.189-2.357l-.046.04s1.555 1.453 2.118 2.718c-.259.93-.558 1.92-.909 2.916.168.02.3-.02.427-.08.162-.524.305-1.037.447-1.54.711-.452 1.331-.859 1.808-1.23 1.184-.924 1.692-1.513 1.697-1.523l-.035-.031zM28.844 79.061c-2.754-3.47-5.06-5.486-5.07-5.496l-.04.02s1.721 1.819 3.769 4.328a4 4 0 0 0-.204-.101c-1.325-.63-2.26-.788-2.265-.788v.046s.767.203 2.082.874c.295.152.514.294.778.452.427.533.376.487.818 1.067.06-.132.111-.27.132-.402M48.016 112.808s-.686.823-1.29 2.835c-.966-4.095-.849-7.666-.849-7.691h-.035s-.432 4.719.98 9.449c.127 0 .254-.005.376-.005-.127-.437-.254-.869-.36-1.301.472-2.215 1.239-3.261 1.239-3.261l-.061-.015zm2.306 3.379s-.569.442-1.178 1.463c.066.05.122.101.178.162.523-1.087 1.046-1.585 1.046-1.585l-.05-.04zM35.062 85.655s-.539.57-1.443 1.778q-.032.054-.071.107c.04.071.076.147.117.218.04-.07.091-.137.137-.203.848-1.224 1.28-1.874 1.285-1.88l-.025-.025zm-1.946-2.773a27 27 0 0 0-1.118 3.556.75.75 0 0 1 .27.386c.32-1.468.721-2.805 1.117-3.922-.122.02-.223.071-.274-.02zM28.087 87.063c.03.02 2.067 1.59 4.572 3.84.294.264.594.544.899.828.081-.081.076-.35.178-.406-2.9-2.678-5.609-4.298-5.614-4.308l-.03.046zm9.068 1.955s-.701 1.961-.986 4.567h.275c.208-2.59.756-4.536.756-4.562h-.045zM41.234 106.092q-.031-.564-.056-1.092c-.091.015-.183.041-.264.046a61 61 0 0 0 .208 3.856h.366a68 68 0 0 1-.249-2.815zM31.267 65.147c-.59 1.107-2.245 4.46-2.835 6.838-.172-1.128-.97-2.408-1.275-2.83l-.025.03c.665 1.078 1.036 2.612 1.112 3.531-.101.417-.183.839-.274 1.26l.366.264c.472-2.966 1.666-6.446 2.946-9.078l-.02-.015z"/></g><defs><clipPath id="a"><path fill="#fff" d="M19.73 0h104.543v144H19.73z"/></clipPath></defs></svg>