<svg xmlns="http://www.w3.org/2000/svg" fill="none" viewBox="18.75 0.33 106.49 143.3"><g clip-path="url(#a)"><path stroke="#B2B3B3" stroke-miterlimit="22.93" stroke-width=".525" d="M72.004 143.363c-49.702-20.239-52.988-47.301-52.988-56.678V.591h105.967v86.094c0 9.375-3.287 36.438-52.98 56.678Z"/><path fill="#FEFEFE" fill-rule="evenodd" d="M72.004 143.363c-49.702-20.239-52.988-47.301-52.988-56.678V.591h105.967v86.094c0 9.375-3.287 36.438-52.98 56.678" clip-rule="evenodd"/><path fill="#962235" fill-rule="evenodd" d="M48.232 14.692V6.15H43.55v8.35c0 1.622 1.783 3.125 4.013 3.125h7.978v2.238h-8.99c-1.424 0-2.292 1.25-2.292 2.219v.7h12.023c2.034 0 3.941-1.386 3.941-3.363V6.149h-4.68v8.542h-7.31zm51.785-8.544h-1.628c-1.06 0-2.228.44-2.971 1.272l-7.39 8.92V6.147H83.35V22.78h2.498c1.62 0 2.626-.9 3.01-1.31l6.48-8.178v9.488h4.68V6.148zm-23.88 16.635H63.45V6.148h15.576v.642c0 1.187-.927 2.293-2.203 2.293H68.13V19.85h7.313v-5.618h-6.578v-.578c0-1.559 1.224-2.35 2.295-2.35h5.08c2.15 0 3.882 1.553 3.882 3.24v4.961c0 1.705-1.695 3.278-3.984 3.278zM23.724 6.155h12.686c2.291 0 3.984 1.57 3.984 3.277v4.954c0 1.687-1.731 3.238-3.881 3.238h-5.06a2.32 2.32 0 0 1-2.315-2.317v-.615h6.576V9.087h-7.311V22.78h-4.68V6.155zm84.198-.007h-4.678V22.78h4.678zm.735 8.064h6.578v8.566h4.679V6.148h-4.679v5.155h-4.282c-1.277-.002-2.296.992-2.296 2.37zM71.82 138.464c-13.694-5.866-18.996-8.853-30.642-18.172-16.728-13.376-17.453-30.848-17.453-39.124V27.246H43.73v6.485H30.21v47.356c0 3.51-1.394 21.259 15.084 34.488 10.092 8.226 14.682 10.864 26.526 16.042 11.844-5.178 16.434-7.816 26.516-16.042 16.499-13.229 15.103-30.978 15.103-34.488V33.73h-13.53v-6.485h20.006v53.922c0 8.276-.732 25.748-17.453 39.124-11.65 9.319-16.954 12.306-30.642 18.172" clip-rule="evenodd"/><path fill="#962235" d="M78.973 33.73h-1.71l-.494-1.447h-2.476l-.49 1.447h-1.7l2.535-6.505h1.859zm-2.564-2.572-.89-2.607-.89 2.607zM54.691 33.73H52.71l-2.236-3.118v3.118h-1.569v-6.505h1.569v3.022l2.14-3.022h1.87l-2.429 3.104 2.636 3.402zm8.78 0h-1.71l-.495-1.447H58.79l-.49 1.447h-1.7l2.535-6.505h1.86zm-2.564-2.572-.89-2.607-.891 2.607zm4.709 2.332v-1.284a3.5 3.5 0 0 0 1.888.522q1.311 0 1.311-.886c0-.591-.48-.898-1.444-.898h-.893v-1.097h.855q1.282.001 1.281-.844 0-.771-1.09-.771-.783 0-1.67.463v-1.197a5 5 0 0 1 1.974-.381q1.14 0 1.77.44.627.443.628 1.2-.001.594-.356 1.01-.357.416-1.018.56v.023q.743.09 1.163.501.419.411.418 1.02.002.939-.726 1.455-.73.517-2.098.517c-.912 0-1.533-.118-1.995-.353zm21.502.24h-1.574v-2.65h-2.883v2.65h-1.568v-6.505h1.568v2.596h2.883v-2.596h1.574zm2.508 0v-6.505h1.568v2.436h1.024q2.52 0 2.52 1.914 0 1.02-.68 1.588-.679.567-1.917.567zm1.568-2.962v1.845h.71q1.183 0 1.183-.939c0-.626-.385-.907-1.155-.907h-.738z"/><path fill="#962235" fill-rule="evenodd" d="M71.823 128.365C35.228 113.463 32.81 92.158 32.81 85.255V35.976h78.022v49.277c0 6.902-2.422 28.211-39.008 43.111" clip-rule="evenodd"/><path fill="#FEFEFE" d="M78.722 118.691q-.836.33-.837 1.008 0 .324.256.537.258.213.622.213.398-.001.64-.208a.7.7 0 0 0 .24-.55q0-.683-.921-1m.775-1.856a.63.63 0 0 0-.194-.485q-.193-.182-.514-.181a.73.73 0 0 0-.519.189.63.63 0 0 0-.206.485q0 .559.717.845.716-.296.716-.854zm-1.653 1.357v-.02q-1.026-.421-1.026-1.361 0-.691.551-1.14.55-.447 1.42-.446c.58 0 1.062.141 1.415.419q.53.418.53 1.08 0 .977-1.133 1.44v.018q.608.178.944.589t.335.922q0 .79-.586 1.249-.585.458-1.634.459-.909-.001-1.465-.448-.556-.446-.556-1.183 0-1.07 1.205-1.575zm-5.914 2.948v-1.123q.613.373 1.303.374.523 0 .815-.246.295-.248.294-.672 0-.888-1.254-.889-.406 0-.985.076v-3.336h3.306v1.075h-2.182v1.195a6 6 0 0 1 .494-.025q.923 0 1.442.484.52.482.52 1.298.001.903-.619 1.476t-1.683.574q-.86 0-1.45-.259zm-3.338-4.912a.69.69 0 0 0-.563.277q-.219.278-.22.714c0 .29.073.541.219.714q.216.26.594.259a.7.7 0 0 0 .557-.248.9.9 0 0 0 .216-.623q0-.47-.227-.784-.225-.31-.575-.312zm-1.729 4.938v-1.083q.468.307 1.133.308c.442 0 .814-.156 1.067-.468q.377-.469.382-1.331l-.024-.008q-.399.588-1.205.588-.734 0-1.214-.511-.48-.513-.479-1.33-.002-.954.586-1.531.587-.575 1.52-.575c.62 0 1.146.24 1.526.724q.567.724.569 2.073 0 1.601-.685 2.49-.686.89-1.915.89-.729 0-1.26-.233zm-2.834.129v-4.76l-1.268.276v-1.067l2.582-.52v6.071h-1.314"/><path fill="#FEFEFE" fill-rule="evenodd" d="M52.212 56.52c-4.059-2.422-6.1.28-10.076-1.74 2.257 5.991 7.073.878 10.076 1.74m7.652-9.339v-4.797l2.74 2.086 2.742-2.078-.005 4.79zm-1.018 4.311.6 1.764.908-1.011 2.57-.754h-4.078zm-5.493 52.085c-4.866-5.688-6.043-11.445-6.192-15.138-.3-7.442 2.396-13.58 6.97-18.119l5.827-5.784c1.37-1.359.503-4.135-1.853-4.423-1.11-.136-2.21.337-3.816 1.666h-1.37l-1.39-4.23 6.188-.015c-.87-3.264-4.89-4.07-7.677-3.18l-1.535-4.492h8.145c.449-.331.993-.992 1.727-.992h10.806l-1.713 2.05c5.955 4.136 5.81 12.493 1.304 16.65l-9.749 9.571c-6.154 6.043-10.544 13.787-5.672 26.438zm16.822 7.778c-9.679-.257-14.979-7.196-15.852-15.868-.782-7.763 2.395-12.044 8.456-18.058l37.515-37.227c.579 8.605-1.985 17.35-8.295 23.608L66.87 88.735c-6.307 6.253-5.855 17.686 3.307 22.621zM94.678 83.61l-16.652 16.528c-1.521 1.51-3.412-.685-2.098-1.993l16.022-15.95c6.28-6.252 8.488-13.988 8.306-22.467L68.429 91.192c-2.947 2.913-5.149 10.331.386 15.626 4.826 4.617 10.393 3.647 14.333 1.278 9.148-5.499 12.947-14.708 11.53-24.486" clip-rule="evenodd"/></g><defs><clipPath id="a"><path fill="#fff" d="M18.425 0h107.149v144H18.425z"/></clipPath></defs></svg>