<svg xmlns="http://www.w3.org/2000/svg" fill="none" viewBox="5.1 0 133.82 144"><path fill="#fff" d="M69.728 143.04c-15.3-10.945-27.518-23.771-36.356-38.15l-8.204 6.918-2.702-.548c-5.137-1.044-9.269-3.198-12.284-6.403-3.153-3.361-4.85-7.65-5.072-12.754a28.95 28.95 0 0 1 2.082-11.572 41.4 41.4 0 0 1 5.875-10.607 47 47 0 0 1 5.097-5.528c-.49-2.918-.796-5.372-1.024-7.18l-.248-1.958a115 115 0 0 1-.653-14.529c0-5.972.202-11.801.326-14.751l.066-1.521 1.429-.542a90 90 0 0 1 13.054-3.707 12.7 12.7 0 0 1-.274-3.708c.503-6.527 5.796-11.605 12.865-12.277a18 18 0 0 1 1.71-.078c1.466.007 2.927.167 4.36.476l1.456.307 1.429-.36A134.5 134.5 0 0 1 85.902 0c14.693 0 22.453 3.074 22.773 3.205l2.173.874-1.501 1.717a9.34 9.34 0 0 1 3.779 5.124l.06.209v7.643q-.017.946-.17 1.88a86 86 0 0 1 11.096 3.263l1.422.542.066 1.52c.15 3.63.326 9.139.326 14.758 0 3.035-.052 5.75-.156 8.107l6.448-1.704-2.794 9.55 9.491-8.022-6.579 22.192-12.663 10.73a112 112 0 0 1-4.569 11.488c-8.916 19.255-23.282 36.068-42.693 49.971l-1.378.953z"/><path fill="#00304F" d="m135.762 53.522-9.496 8.002 3.511-12.016-5.809 1.534c.19-2.794.281-6.234.281-10.3 0-5.972-.202-11.749-.327-14.686v-.424l-.404-.157a88 88 0 0 0-12.48-3.564c.305-1.02.472-2.075.496-3.14v-7.42a7.9 7.9 0 0 0-4.817-5.059l1.351-1.547S88.827-3.042 53.091 6.142l-1.834.509-1.86-.392a18.2 18.2 0 0 0-5.568-.385c-6.246.594-10.92 5.013-11.357 10.744-.132 1.65.109 3.31.705 4.856a92.5 92.5 0 0 0-14.569 3.982l-.404.156v.424c-.124 2.924-.327 8.72-.327 14.68-.083 4.78.135 9.56.653 14.313l.248 1.959c.255 2.023.594 4.751 1.169 8.028a46 46 0 0 0-5.522 5.92 39.9 39.9 0 0 0-5.66 10.195 27.3 27.3 0 0 0-1.957 10.907c.182 4.693 1.736 8.622 4.608 11.677 2.767 2.95 6.599 4.941 11.396 5.914l1.912.385 9.08-7.656c8.792 14.861 21.154 28.066 36.89 39.325l.379.274.372-.274c19.183-13.707 33.36-30.325 42.158-49.312a111 111 0 0 0 4.648-11.749l12.662-10.685z"/><path fill="#fff" d="m118.642 73.227 5.261-17.995-7.532 1.958-3.525 12.075-9.432 7.95 5.222-17.995-7.526 1.958-3.218 11.05-10.991 9.36 5.26-17.995-7.532 1.958-3.955 13.844a8.5 8.5 0 0 1-2.369-2.076 8.3 8.3 0 0 1-1.436-2.806c-.308-1.08-.456-2.2-.437-3.322.018-1.234.225-2.458.613-3.63l-7.643 2.07q-1.043 4.764.496 7.519.184.34.411.653l-6.67 5.659c.43-1.314.624-2.692.574-4.073a8.1 8.1 0 0 0-.81-3.368 6 6 0 0 0-1.905-2.402 7.4 7.4 0 0 0-2.866-1.169 9.4 9.4 0 0 0-3.426.281 18.5 18.5 0 0 0-6.9 3.636 21.3 21.3 0 0 0-5.104 6.298 14.6 14.6 0 0 0-1.697 6.2l-10.828 9.08a21.6 21.6 0 0 1-7.082-2.278 11.3 11.3 0 0 1-4.393-4.288 13.94 13.94 0 0 1-1.69-6.449 21.3 21.3 0 0 1 .861-6.657 23 23 0 0 1 3.055-6.26 21.5 21.5 0 0 1 4.654-4.98 16.1 16.1 0 0 1 5.58-2.78 7.6 7.6 0 0 1 3.832-.105 6.26 6.26 0 0 1 3.107 1.775 7.37 7.37 0 0 1 1.88 3.42l-5.568 4.661.835 1.057 13.31-11.2-.725-1.116-1.906 1.527a8.65 8.65 0 0 0-5.144-3.074 16.7 16.7 0 0 0-7.532.457 25.7 25.7 0 0 0-8.622 4.268 41.4 41.4 0 0 0-7.487 7.435 35.9 35.9 0 0 0-5.104 9.196 23.2 23.2 0 0 0-1.716 9.32q.228 5.582 3.518 9.08t9.262 4.719l17.975-15.162a10.3 10.3 0 0 0 1.606 4.47 11 11 0 0 0 4.569 3.577l23.497-19.777a8.6 8.6 0 0 0 4.086 1.913c.797.13 1.6.235 2.408.3.81.066 1.613.138 2.402.19l-2.46 8.237 2.957-.784 16.604-14.04-3.054 10.444 2.956-.783 15.013-12.663-2.722 9.419 2.95-.783 15.012-12.656.699-2.35zm-61.596 14.62a15.5 15.5 0 0 1-3.113 3.839 9.93 9.93 0 0 1-4.7-3.42 9.37 9.37 0 0 1-1.958-5.562 7.1 7.1 0 0 1 .966-4.014 4.44 4.44 0 0 1 2.676-2.18 4.14 4.14 0 0 1 3.146.51 7.5 7.5 0 0 1 2.611 2.97 9.6 9.6 0 0 1 1.123 4.026 7.6 7.6 0 0 1-.75 3.832"/><path fill="#C1C1C1" d="M108.002 86.36a104.2 104.2 0 0 1-16.376 23.902 19.5 19.5 0 0 0-4.693-7.578c-13.054-12.473-31.473-2.71-32.309 11.918q-1.038-1.038-2.05-2.095a23.5 23.5 0 0 1 3.564-9.641 23.4 23.4 0 0 0-4.62 8.519 108.5 108.5 0 0 1-11.331-14.413l-.34.275-3.068 2.61c8.146 13.975 19.66 26.455 34.254 37.166 17.676-12.95 30.776-28.465 38.967-46.14a103 103 0 0 0 2.761-6.527l-4.373 1.155q-.169.41-.386.849"/><path fill="#C1C1C1" d="m118.642 73.227 5.221-17.917c-2.493.574-5.143 1.697-7.65 2.363l-3.38 11.624-9.432 7.95 5.137-17.577a309 309 0 0 0-7.656 2.416l-2.97 10.208L86.9 81.588l4.771-16.318a428 428 0 0 0-7.833 2.97l-3.198 11.188a8.5 8.5 0 0 1-2.37-2.076 8.3 8.3 0 0 1-1.435-2.807c-.3-1.06-.448-2.16-.438-3.263a323 323 0 0 0-7.349 3.263c.114.892.39 1.755.816 2.546q.184.34.411.653l-6.67 5.659c.43-1.314.624-2.693.574-4.073a8.8 8.8 0 0 0-.372-2.233 195 195 0 0 0-6.834 3.57 9.2 9.2 0 0 1 .797 3.317 7.6 7.6 0 0 1-.758 3.83 15.5 15.5 0 0 1-3.113 3.839 9.93 9.93 0 0 1-4.7-3.42 9.1 9.1 0 0 1-1.26-2.18c-2.31 1.508-4.464 2.898-6.396 4.425a10.44 10.44 0 0 0 1.606 4.471 11 11 0 0 0 4.569 3.577l23.497-19.777a8.6 8.6 0 0 0 4.086 1.913c.796.13 1.599.234 2.409.3s1.612.137 2.402.189l-2.429 8.27 2.957-.784 16.599-14.04-3.048 10.444 2.956-.783 15.012-12.663-2.721 9.419 2.95-.783 15.012-12.656.698-2.35zM79.18 92.097a37.6 37.6 0 0 1 11.095 5.802c-4.38-5.025-11.096-5.802-11.096-5.802"/><path fill="#fff" d="M71.034 128.492a134 134 0 0 0 15.717-13.185c.059-.653.085-1.24.11-1.665 0-.202.066-.208.118 0q.16.6.248 1.215l.542-.529c-.242-4.739-2.408-8.727-1.802-7.832a15.2 15.2 0 0 1 2.435 7.179l.046-.052c-.196-5.933-3.388-10.978-9.386-13.211-.19-.065-.326-.13-.3-.15s-.118-.078-.314-.144c-11.527-3.713-22.283 5.777-21.539 16.736a135 135 0 0 0 14.125 11.638"/><path fill="#858486" d="M108.414 85.504c-.137.288-.268.568-.411.862a102.7 102.7 0 0 1-13.707 20.841C89.662 97.573 81.32 95.608 81.32 95.608a21.44 21.44 0 0 1 12.088 12.643c-.189.215-.366.438-.555.653-1.03-3.088-4.02-5.874-4.02-5.874s2.558 3.446 3.126 6.853c-.444.49-.9.972-1.351 1.462a17.9 17.9 0 0 0-4.569-7.735c-8.55-8.158-20.364-6.266-26.37 1.371a17.25 17.25 0 0 0-3.733 10.894c.34.333.653.653 1.025.992a16.2 16.2 0 0 1 4.086-11.912.83.83 0 0 0-.065.444q.15.95.404 1.879a.66.66 0 0 1 .046.575l-.202.418a9 9 0 0 0-.424.855l-.223.444.582-.699c.215-.241.489-.568.79-.881.3-.313.534-.293 4.431-.861a.842.842 0 0 0 .653-.444c1.103-2.193 1.566-3.101 1.762-3.492a1.27 1.27 0 0 1 .496-.503l1.958-.822-.509.046h-.059q-.339 0-.724.097a6 6 0 0 0-.705.144.78.78 0 0 1-.594-.196c-.209-.156-.653-.398-1.736-1.018a.75.75 0 0 0-.483-.078 16.12 16.12 0 0 1 12.049-.771q.157.045.3.124a.8.8 0 0 0-.352.131q-.972.631-1.841 1.397a.65.65 0 0 1-.516.287q-.67-.075-1.344-.079h-1.058l2.611.764c.224.088.417.24.555.437l1.912 2.925a.84.84 0 0 0 .653.378l3.583.111c.266.015.518.119.719.294l.248.209 1.462 1.371a4 4 0 0 0-.34-.614q-.336-.555-.737-1.064v-.039l-.066-.079a.65.65 0 0 1 0-.6q.177-1.07.222-2.154v-.072c.248.242.47.471.653.653a15.4 15.4 0 0 1 3.342 9.099l-.079.091a15.1 15.1 0 0 0-2.427-7.147.5.5 0 0 0-.08-.098l-.319-.522.653 1.495c.86 2.21 1.38 4.539 1.54 6.905-.183.19-.359.379-.548.562 0-.079 0-.157-.045-.242l-.301-1.638-.072 1.723c0 .189 0 .398-.046.614a134 134 0 0 1-15.743 13.178v3.772C88.708 119.321 101.81 103.806 110 86.131q.276-.605.542-1.2z"/><path fill="#858486" d="M73.05 122.095c.125.568.164.842.77 3.708.047.196 0-.144 0-.346v-3.414a.79.79 0 0 1 .288-.588l4.53-3.426a.9.9 0 0 1 .652-.117q1.502.313 2.964.782c.196.059.522.183.346.085l-3.048-1.605a1.1 1.1 0 0 1-.438-.522c-.176-.529-.653-1.926-1.958-5.699q.05-.19.137-.365l.287-.653c.163-.391.327-.783.484-1.148l.894-2.089-1.306 1.958-.685.979-.379.542a.806.806 0 0 1-.58.3l-5.777.046a.94.94 0 0 1-.613-.261l-.347-.372-2.153-2.454.196.332v.059l1.109 1.73.49.803.17.28a.94.94 0 0 1 .078.653c-.32 1.083-1.306 4.366-1.619 5.548a.78.78 0 0 1-.45.47 31 31 0 0 0-3.852 1.345l4.074-.516a1.1 1.1 0 0 1 .652.163l4.693 3.264c.185.128.323.314.391.528M59.937 114.928v-2.565s-.352 1.462-.49 2.298a.73.73 0 0 1-.417.574c-.235.15-.653.49-1.71 1.306a.8.8 0 0 0-.242.385 129 129 0 0 0 5.157 4.614c.137-.567.333-1.351.607-2.447a.82.82 0 0 0-.183-.744c-2.546-2.866-2.722-2.964-2.722-3.421M38.561 98.33l-1.782 1.534c8.146 13.968 19.66 26.447 34.254 37.159v-4.615c-13.778-9.921-24.665-21.35-32.472-34.078"/><path fill="#FCBC00" d="M41.343 36.362c-.503-.45-1.665 0-2.611 1.044s-1.306 2.226-.784 2.683c.523.457 1.658 0 2.612-1.038.952-1.038 1.279-2.232.782-2.689M35.73 25.384a96.4 96.4 0 0 0-13.538 3.498 345 345 0 0 0-.261 12.728c-.07 4.552.149 9.104.653 13.628l.241 1.9c.17 1.358.379 3.048.653 5.013a37 37 0 0 1 1.677-1.104c.19-.117.385-.221.575-.332a139 139 0 0 1-.953-6.331l-.261-1.887a89 89 0 0 1-.614-11.24c0-3.779.091-9.092.163-11.363a112 112 0 0 1 12.441-2.761 71.8 71.8 0 0 0-6.723 25.658 76.3 76.3 0 0 1 8.224-24.457l.477-.842a12.4 12.4 0 0 1-2.755-2.108M42.968 40.468c-.96-.464-2.506.757-3.466 2.728-.96 1.97-.953 3.916 0 4.406s2.526-.738 3.466-2.71c.94-1.97.973-3.941 0-4.424M72.992 24.052l-1.377-.77a131 131 0 0 0-17.284 10.352 103.7 103.7 0 0 1 18.661-9.582M43.38 24.914c.495.17 1.01.32 1.52.444-3.218-3.44-3.969-6.28-4.073-7.93v-.282l-2.389-.41q1.228-.53 2.52-.882a20.5 20.5 0 0 1 4.392-.737h1.208c.933.012 1.863.122 2.774.326.582.119 1.148.31 1.683.568a12.6 12.6 0 0 1 6.632 6.527 5.94 5.94 0 0 0-2.93-.875c.593 1.43 1.566 4.282 1.142 6.801 5.776-3.616 13.054-8.191 25.364-11.252a134 134 0 0 1-14.3 1.769l7.956-2.918c-5.222-.522-18.714 1.802-18.714 1.802 20.952-7.135 35.482-6.22 35.482-6.22-3.42.75-11.096 3.694-11.096 3.694 14.47-1.306 21.741-5.75 25.684-3.838-1.58-2.526-6.952-3.173-6.952-3.173l1.306-1.52s-13.048-2.24-31.513.372c0 .274-.47.561-1.05.652-.582.092-1.156 0-1.221-.306q-2.846.45-5.836 1.077c-.065.652-1.07 1.429-2.447 1.801-1.508.405-2.885.176-3.114-.503-1.103.288-2.225.588-3.348.914a8.8 8.8 0 0 1 1.736 1.958 5 5 0 0 1 1.123-.372c1.416-.385 2.702-.163 2.878.49.177.652-.829 1.468-2.238 1.84a7 7 0 0 1-.686.131 7 7 0 0 0-.32-.463c-.11-.15-.124-.157-.182-.235a12 12 0 0 0-.444-.536l-.248-.254q-.136-.149-.28-.287a11.06 11.06 0 0 0-4.89-2.644 11.5 11.5 0 0 0-3.159-.34c-10.215.007-12.036 12.22-1.97 14.81M63.063 9.64c.901-.241 1.724-.104 1.834.314.112.417-.528.953-1.429 1.188-.9.235-1.723.104-1.834-.314-.11-.417.529-.946 1.43-1.188M46.793 32.191c-.196-.424-1.07-.443-1.958 0-.888.444-1.41 1.051-1.215 1.475.196.425 1.071.438 1.959.033.887-.404 1.41-1.064 1.213-1.508M83.226 44.782a4.3 4.3 0 0 0-1.494 1.697.4.4 0 0 0-.033.079 3.3 3.3 0 0 0-.32 1.305c-2.095-4.425-.117-11.462 1.482-15.75l1.612-3.674a49 49 0 0 0-6.912 3.38c-.085.072-.157.157-.235.229 2.61-.894 4.295-1.306 4.295-1.306l-6.945 4.321c-.255.346-.496.692-.744 1.051a58 58 0 0 1 7.362-2.428l-9.51 5.933c-2.01 3.681-3.263 7.271-3.113 8.89h.091l.15-.046c.849-.228 3.832-.868 6.077.653q.254.188.477.411c.946.966 4.758 4.321 9.053.953 11.925-7.904 18.726-6.788 18.726-6.788a5.88 5.88 0 0 0 .424-4.288c-1.873-5.052-16.278 2.147-20.443 5.378M45.37 36.316c-.607.653-.842 1.462-.51 1.763.333.3 1.09 0 1.704-.686.614-.685.842-1.462.51-1.762-.334-.3-1.091.007-1.704.685M120.183 36.858c0-4.843-.143-4.889-.261-7.976a90 90 0 0 0-11.233-3.035 4 4 0 0 0-.157.418l-.424 1.246a41 41 0 0 1-1.919 4.674 7.87 7.87 0 0 1 .777 4.301 10.86 10.86 0 0 1 1.732 5.387c.09 1.917-.33 3.824-1.217 5.527 0 0 3.819-5.49.692-11.097a11 11 0 0 0-.182-4.014s1.742-3.12 2.121-4.157l.072-.15c3.139.652 5.756 1.305 7.832 1.912.092 2.793.17 6.24.17 9.718a97.5 97.5 0 0 1-.614 12.82l-.039.3 1.762-.463.549-.144c.209-2.755.313-6.273.313-10.515v-2.421c0-.803.026-1.528.026-2.33M75.851 25.664c-6.018 2.787-13.916 7.337-24.19 14.673 0 0 12.71-8.85 27.186-13.348a15 15 0 0 1-2.996-1.325M50.206 31.056c-.653.293-1.025.776-.881 1.083s.77.32 1.397 0 1.024-.777.88-1.083c-.143-.307-.77-.294-1.396 0"/><path fill="#fff" d="M54.2 69.187a2.2 2.2 0 0 1-.496 0 .75.75 0 0 1-.36-.118.53.53 0 0 1-.195-.26.8.8 0 0 1 0-.406c.03-.228.102-.449.21-.652q.17-.303.417-.549.267-.256.587-.443.342-.204.718-.333l.072-.242.738-.189-.079.242q.252-.033.503 0a.9.9 0 0 1 .352.117.5.5 0 0 1 .203.261.9.9 0 0 1 0 .411q-.046.347-.216.653-.166.306-.418.548a2.8 2.8 0 0 1-.58.444 4 4 0 0 1-.718.333l-.072.248-.738.196zm-.313-1.058a.46.46 0 0 0 0 .216c.02.053.056.1.104.13a.35.35 0 0 0 .176.059.7.7 0 0 0 .229 0l.444-1.43q-.18.07-.346.17c-.212.117-.387.29-.503.503a1 1 0 0 0-.104.372zm2.212-.81a.4.4 0 0 0 0-.215.23.23 0 0 0-.097-.13.35.35 0 0 0-.17-.059.7.7 0 0 0-.235 0l-.444 1.423q.18-.066.346-.163.156-.095.287-.222.127-.126.216-.28.077-.159.097-.333zM57.627 68.005h.111a.6.6 0 0 0 .137-.052.5.5 0 0 0 .11-.11l.282-.399-.379-1.913.816-.215.209 1.234 1.09-1.58.816-.215-2.187 3.127a1.5 1.5 0 0 1-.228.26 1.5 1.5 0 0 1-.255.21 2 2 0 0 1-.274.15 1.4 1.4 0 0 1-.268.097h-.28zM62.411 64.905l-.887.235.195-.653 2.513-.652-.195.652-.888.235-.803 2.572-.737.196zM66.327 64.35q.198-.06.405-.045a.5.5 0 0 1 .274.09q.106.087.15.216.03.157 0 .314-.026.172-.098.332-.07.166-.176.314-.114.15-.248.28a4 4 0 0 1-.3.242 3 3 0 0 1-.326.183q-.167.082-.346.13l-1.306.34.999-3.225 2.167-.568-.203.653-1.383.36-.164.521zm-.75.79-.242.783.522-.137q.099-.03.19-.078.087-.055.163-.124.073-.075.13-.163a.7.7 0 0 0 .066-.19.2.2 0 0 0 0-.124.2.2 0 0 0-.059-.078.2.2 0 0 0-.105 0h-.13zM68.129 64.494a2 2 0 0 1 .143-.496q.119-.262.281-.496.177-.243.386-.457.217-.211.463-.385.243-.175.51-.314.253-.126.528-.202c.189-.052.386-.067.58-.045a.8.8 0 0 1 .425.17c.116.09.2.216.241.358.044.17.044.347 0 .516a1.8 1.8 0 0 1-.143.496 3 3 0 0 1-.281.496 4 4 0 0 1-.385.463 5 5 0 0 1-.463.398q-.24.18-.51.314a2.5 2.5 0 0 1-.528.202 1.4 1.4 0 0 1-.581.052.9.9 0 0 1-.425-.17.77.77 0 0 1-.241-.358 1.1 1.1 0 0 1 0-.542m.757-.255a.7.7 0 0 0 0 .314c.021.085.067.162.13.222.07.056.154.092.242.104a.8.8 0 0 0 .327 0q.165-.041.313-.124.16-.079.3-.19a2 2 0 0 0 .268-.24q.127-.133.228-.288a1.5 1.5 0 0 0 .17-.3q.065-.157.085-.327a.7.7 0 0 0 0-.313.5.5 0 0 0-.13-.222.5.5 0 0 0-.242-.104.75.75 0 0 0-.333 0 1.6 1.6 0 0 0-.457.209 2 2 0 0 0-.418.346q-.189.195-.32.43c-.084.15-.14.314-.163.483M75.42 61.478l-1.306.34-.365 1.194v.065l-.157.503a1.6 1.6 0 0 1-.215.43 1.7 1.7 0 0 1-.3.334c-.207.175-.45.302-.712.372a1 1 0 0 1-.163 0h-.124l.32-.653h.143a.4.4 0 0 0 .196-.117.7.7 0 0 0 .124-.229l.163-.535.575-1.834 2.767-.731-.999 3.224-.737.19zM78.82 60.89q.192-.056.392-.038a.6.6 0 0 1 .274.104c.072.06.126.14.156.229a.9.9 0 0 1 0 .346 1.6 1.6 0 0 1-.176.522 2.2 2.2 0 0 1-.352.47 2.2 2.2 0 0 1-.47.372q-.252.16-.542.235l-1.377.365 1.005-3.224.744-.196-.26.986zm-.241.654-.6.156-.294.96.6-.157a.7.7 0 0 0 .202-.098 1 1 0 0 0 .19-.156q.083-.093.143-.203a1 1 0 0 0 .072-.209.34.34 0 0 0 0-.143.24.24 0 0 0-.059-.098.2.2 0 0 0-.104-.052.4.4 0 0 0-.15.007zM81.19 59.396l.737-.196-.411 1.306 1.39-.366.411-1.305.745-.196-1.006 3.218-.744.202.398-1.305-1.39.365-.392 1.273-.744.196zM86.542 58.868c.124-.038.255-.05.385-.04.102.007.2.043.28.105a.4.4 0 0 1 .15.228.7.7 0 0 1 0 .34 1.5 1.5 0 0 1-.182.522c-.192.349-.474.64-.816.842a1.8 1.8 0 0 1-.542.235l-1.377.365 1.005-3.224.738-.196-.307.992zm-.242.653-.6.156-.307.947.607-.157a.8.8 0 0 0 .202-.098 1 1 0 0 0 .327-.36.5.5 0 0 0 .072-.208.4.4 0 0 0 0-.144.25.25 0 0 0-.059-.098.23.23 0 0 0-.105-.052.4.4 0 0 0-.137.014m.973 1.18.744-.195.999-3.218-.745.196zM90.484 56.916l.738-.19-.6 1.959 2.12-2.33.653-.17-1.011 3.211-.738.196.6-1.958-2.12 2.33-.654.17zm2.611-1.67q-.06.155-.157.293a1.7 1.7 0 0 1-.222.267 1.5 1.5 0 0 1-.287.209q-.169.09-.352.137a.8.8 0 0 1-.314 0 .3.3 0 0 1-.195-.078.28.28 0 0 1-.085-.183.65.65 0 0 1 0-.26l.496-.164a1 1 0 0 0 0 .085.1.1 0 0 0 0 .058.2.2 0 0 0 .065 0h.117a.4.4 0 0 0 .125-.045l.098-.066.078-.09.078-.105zM96.848 56.72l1.73-1.958.867-.228-1.566 1.73.614 1.474-.882.235-.385-1.031-.691.764-.183.6-.744.196.998-3.218.744-.196zM102.572 54.324l-1.305.34-.372 1.188v.072l-.157.496a1.4 1.4 0 0 1-.209.437q-.135.183-.307.333a2 2 0 0 1-.352.235q-.171.082-.353.137h-.28700000000000003l.32-.653h.14300000000000002a.4.4 0 0 0 .19-.11.6.6 0 0 0 .124-.23l.17-.534.568-1.834 2.767-.732-.999 3.218-.737.196zM104.321 55.695h.112l.136-.058a.4.4 0 0 0 .111-.105l.281-.398-.379-1.919.816-.209.209 1.227 1.09-1.573.816-.215-2.232 3.172q-.104.14-.229.261c-.084.078-.169.144-.254.21q-.133.081-.274.15l-.268.097h-.28700000000000003zM109.543 52.954q.199-.054.405-.046a.55.55 0 0 1 .274.098.4.4 0 0 1 .15.215c.024.101.024.207 0 .308a1 1 0 0 1-.098.332 1.5 1.5 0 0 1-.176.314q-.111.15-.248.28a2 2 0 0 1-.3.242 2 2 0 0 1-.672.313l-1.306.34 1.005-3.218 2.161-.575-.196.653-1.423.372-.163.528zm-.75.79-.236.763.516-.137a1 1 0 0 0 .19-.078.8.8 0 0 0 .169-.124q.07-.076.124-.163a.5.5 0 0 0 .066-.19.26.26 0 0 0 0-.123.14.14 0 0 0-.066-.072.2.2 0 0 0-.098-.033.5.5 0 0 0-.137 0zM81.477 23.726l-.274-.157a46.1 46.1 0 0 1 15.547-2.552s-9.575-2.29-18.067 1.175l-1.54-.855a42.5 42.5 0 0 1 10.443-3.264c2.688-.432 5.43-.4 8.106.098a23.5 23.5 0 0 0-3.12-1.716c5.314-.973 9.935-.653 9.87 3.315 0 0-.542 3.577-3.753 4.256-2.193.463-5.874.118-9.197.594-1.566.222-4.478 1.332-8.015-.894m24.248-6.808c-.823 1.149-1.012 3.31-1.423 4.726-1.221 4.262 2.931 1.54 2.95-3.055.033-.966-1.501-1.67-1.501-1.67zm-3.329 18.048a5 5 0 0 0-.091-.536.4.4 0 0 0 0-.085 4 4 0 0 0-.118-.47 4.4 4.4 0 0 1-.737 1.371l-.111.13h-.163a10.7 10.7 0 0 0-3.917.125 3.6 3.6 0 0 0-1.24.56l-1.168 1.234.15-.959c0-.098.039-.196.058-.294l.04-.267c.12-.74.064-1.498-.163-2.213q-.137.44-.327.862a3 3 0 0 1-.143.306 8 8 0 0 1-.274.536l-.203.346-.287.437c-.085.118-.163.241-.248.352s-.19.235-.281.353q-.632.778-1.37 1.456l-.105.097q-.262.237-.535.464c-.392.326-.79.652-1.188.92a50 50 0 0 1 7.748-3.14c1.782-.372 3.348-.417 4.418.04h.046q.114-.225.17-.47c.087-.372.109-.757.065-1.136zm.32-11.097a7.37 7.37 0 0 1-5.874 3.01c-3.473-.131-6.58-.653-10.881 1.005 9.889-.77 7.088 6.429 7.088 6.429a12 12 0 0 0 2.141-2.787 22.6 22.6 0 0 0 1.717-4.008 10.8 10.8 0 0 1-.28 3.394l4.248-.803s.294-.052.947-.73c-.359.704-.699 1.226-.699 1.226l-.17 1.92c1.43-1.541 3.094-6.417 3.094-6.417-2.552.287-1.031-2.565-1.305-2.219zm-24.58-9.803a28 28 0 0 0-3.689.202q.016.215.072.424c.127.458.365.877.692 1.221a47 47 0 0 1 2.787-.398q.137-.709.163-1.43zm2.146.215a7 7 0 0 0-.868-.13 9 9 0 0 1-.6 1.272l1.136-.104c.182-.314.304-.66.358-1.018z"/><path fill="#E30613" d="M91.313 36.852a.3.3 0 0 0 .052-.072c-9.608-2.017-9.908 4.438-8.987 5.757q.131.241.313.45a37 37 0 0 1 4.569-2.61c.346-.229 3.968-3.408 4.053-3.525"/></svg>