<svg xmlns="http://www.w3.org/2000/svg" fill="none" viewBox="24.52 0 40.38 45.59"><path fill="#FF6900" d="M28.186 25.361c0-5.471 2.676-10.328 6.788-13.339l-1.09-3.712c-5.634 3.594-9.367 9.885-9.367 17.051 0 7.587 4.187 14.192 10.37 17.645l1.263-3.518c-4.77-2.892-7.964-8.148-7.964-14.127m27.347-17.04-1.09 3.712c4.112 3.011 6.788 7.868 6.788 13.34 0 5.978-3.194 11.223-7.964 14.126l1.262 3.518C60.713 39.564 64.9 32.96 64.9 25.372c0-7.177-3.744-13.468-9.367-17.051"/><path fill="#000" d="M41.013 39.963h-2.547l3.928-10.975L35.001 3.83 43.981 0v26.657zM46.786 28.988l3.929 10.975h-2.547L45.2 26.657V0l8.979 3.831zM36.458 45.586l1.35-3.788h13.576l1.349 3.788zM44.596 29.257l2.385 10.706h-4.77z"/></svg>