<svg xmlns="http://www.w3.org/2000/svg" fill="none" viewBox="14 0 61.19 86.88"><path fill="#FF6900" d="M28.186 25.361c0-5.471 2.676-10.328 6.788-13.339l-1.09-3.712c-5.634 3.594-9.367 9.885-9.367 17.051 0 7.587 4.187 14.192 10.37 17.645l1.263-3.518c-4.77-2.892-7.964-8.148-7.964-14.127m27.347-17.04-1.09 3.712c4.112 3.011 6.788 7.868 6.788 13.34 0 5.978-3.194 11.223-7.964 14.126l1.262 3.518C60.713 39.564 64.9 32.96 64.9 25.372c0-7.177-3.744-13.468-9.367-17.051"/><path fill="#000" d="M41.013 39.963h-2.547l3.928-10.975L35.001 3.83 43.981 0v26.657zM46.786 28.988l3.929 10.975h-2.547L45.2 26.657V0l8.979 3.831zM36.458 45.586l1.35-3.788h13.576l1.349 3.788zM44.596 29.257l2.385 10.706h-4.77zM16.547 73.17h4.738v-2.288h-4.738V68.8h5.148v-2.288H14v11.126h7.814V75.35h-5.267z"/><path fill="#000" fill-rule="evenodd" d="M49.312 77.887c3.27 0 5.385-2.213 5.385-5.817s-2.115-5.817-5.385-5.817-5.385 2.212-5.385 5.817 2.115 5.817 5.385 5.817m0-9.336c1.586 0 2.838 1.144 2.838 3.53 0 2.384-1.252 3.528-2.838 3.528s-2.839-1.144-2.839-3.529c-.01-2.385 1.252-3.529 2.839-3.529M56.219 77.638h2.536v-3.755h1.813c2.19 0 3.993-1.274 3.993-3.691 0-2.418-1.792-3.691-3.993-3.691h-4.35zm2.525-8.838h1.684c1.133 0 1.575.582 1.575 1.403 0 .809-.442 1.403-1.575 1.403h-1.684z" clip-rule="evenodd"/><path fill="#000" d="M32.681 66.512h-2.547v6.615c0 1.49-.766 2.418-2.158 2.418-1.403 0-2.159-.918-2.159-2.418v-6.615H23.27v6.755c0 3.098 2.148 4.566 4.706 4.566s4.705-1.479 4.705-4.565zM28.18 80.26h-1.478v6.508h4.565V85.43h-3.086zM61.68 84.157v-1.338h-2.763v-1.22h3.01v-1.338h-4.5v6.507h4.565V85.43h-3.086v-1.273zM55.107 84.124c0 .875-.442 1.414-1.263 1.414-.82 0-1.262-.54-1.262-1.414v-3.863h-1.49v3.95c0 1.813 1.252 2.665 2.752 2.665s2.752-.863 2.752-2.665v-3.95h-1.489zM49.02 84.437v.464c-.323.367-.842.637-1.489.637-1.122 0-1.975-.658-1.975-2.029s.917-2.029 1.802-2.029c.81 0 1.328.389 1.544 1.112l1.424-.421c-.334-1.22-1.284-2.04-2.946-2.04-1.78 0-3.313 1.284-3.313 3.367s1.51 3.367 3.324 3.367c1.413 0 2.288-.56 3-1.435v-2.18h-3.389v1.187z"/><path fill="#000" fill-rule="evenodd" d="M70.67 66.512H67.97l-4.51 11.126h2.88l.81-2.115h4.35l.809 2.115h2.881zm-2.656 6.723 1.306-3.421 1.306 3.421zM39.869 80.26l-2.644 6.508h1.683l.475-1.23h2.547l.475 1.23h1.683l-2.633-6.507zm.021 3.93.767-1.997.766 1.996z" clip-rule="evenodd"/><path fill="#000" d="M33.458 84.157h2.774v-1.338h-2.774v-1.22h3.011v-1.338h-4.5v6.507h4.576V85.43h-3.087z"/><path fill="#000" fill-rule="evenodd" d="M40.419 77.638h2.86l-2.482-4.468c1.133-.636 1.92-1.64 1.92-3.097 0-2.18-1.758-3.561-4.025-3.561H34.29v11.126h2.547v-4.004h1.37zM36.836 68.8h1.91c1.047 0 1.446.54 1.446 1.273 0 .734-.399 1.274-1.446 1.274h-1.91z" clip-rule="evenodd"/><path fill="#000" d="M35.606 59.691c-.248.205-.55.302-.81.27-.323-.032-.529-.173-.852-.572l-1.889-2.32-1.014.83 2.05 2.526c.432.54.94.82 1.522.874.065.01.14.01.205.01.572 0 1.1-.193 1.608-.603.572-.465.885-1.004.96-1.652.065-.583-.108-1.133-.55-1.662l-2.05-2.525-1.015.831 1.889 2.32c.324.4.42.626.388.96-.032.238-.194.497-.442.713M44.596 60.188c3.561 0 6.853 1.65 8.784 4.057l.68-.83c-2.126-2.548-5.612-4.264-9.454-4.264s-7.328 1.716-9.453 4.263l.68.831c1.91-2.406 5.19-4.058 8.763-4.058"/><path fill="#000" d="M31.095 56.033c3.701-3.195 8.493-4.954 13.5-4.954 5.008 0 9.8 1.76 13.502 4.953q.582.502 1.1 1.037l.702-.864c-.346-.345-.702-.68-1.08-1.003-3.895-3.368-8.946-5.213-14.213-5.213s-10.317 1.856-14.213 5.213c-.378.323-.734.658-1.079 1.003l.701.864c.324-.357.702-.702 1.08-1.037"/><path fill="#000" d="M56.5 56.971c.064-.183.107-.464-.206-.712l-.205-.15c-.313-.238-.561-.141-.745-.023l-4.683 3.033 1.22.69 2.989-1.931-.518 1.737-.454-.345-.788.561.972.723-.227.777 1.069.982zM42.556 52.385l-3.292.669a.55.55 0 0 0-.345.216.5.5 0 0 0-.065.4l.659 3.237c.107.529.345.906.701 1.122.237.151.518.216.853.216.161 0 .345-.022.528-.054l2.062-.42-.249-1.22-1.996.41c-.41.086-.54.043-.637-.421l-.075-.346 2.32-.474-.248-1.21-2.32.476-.173-.864 2.525-.518zM48.956 54.155l1.974.507.313-1.198-2.028-.529c-1.112-.291-1.878.13-2.148 1.176l-.831 3.195a.5.5 0 0 0 .043.4c.065.118.184.194.335.237l.755.194.529-2.072 2.288.593.313-1.187-2.288-.593.086-.346c.119-.453.248-.485.659-.377M64.097 80.574v1.63h.334v-1.63h.594v-.302h-1.533v.302zM66.817 80.26l-.594 1.555-.594-1.554h-.367v1.942h.346v-1.165l.442 1.165h.335l.442-1.165v1.165h.346v-1.942z"/></svg>