<svg xmlns="http://www.w3.org/2000/svg" viewBox="0.33 0.24 74.13 102.3"><g style="fill:#002c6d;fill-opacity:1"><path d="m80.6.316-17.454 5.97c-.619 10.096-1.745 20.154-3.79 30.044-2.009 9.76-4.899 19.35-8.727 28.527-3.528 8.52-7.883 16.666-12.818 24.436l20.812-6.607-5.572-15.332C63.786 45.696 72.736 23.174 80.6.316M61.986 97.891l-.002 23.765 4.762.002-.002-23.765zm-54.824.836c-2.22.003-4.457.062-6.644.472v22.158c1.08.165 2.173.248 3.265.297 2.308.083 4.654.075 6.912-.472 1.002-.247 1.985-.624 2.832-1.225 1.2-.879 2.101-2.185 2.412-3.65.343-1.58.143-3.324-.755-4.688-.76-1.166-1.988-1.962-3.307-2.344 1.223-.476 2.348-1.324 2.951-2.517.824-1.608.729-3.669-.27-5.178-.641-1.003-1.681-1.668-2.751-2.13-1.468-.603-3.078-.689-4.645-.723m44.55.23c-2.28-.007-4.57.07-6.821.469v22.26h4.713v-8.024c2.284.246 4.706.055 6.76-1.057 1.42-.756 2.59-2.02 3.11-3.562.638-1.876.704-3.997-.03-5.856-.518-1.313-1.483-2.453-2.725-3.124-1.525-.836-3.294-1.06-5.006-1.106m-12.263 1.32-4.666 1.147c-.004 1.177 0 2.354 0 3.531l-2.017-.002v3.776l2.015.001.004 6.987c.05 1.462.197 3.023 1.065 4.25.834 1.16 2.288 1.717 3.677 1.746 1.08-.002 2.177-.085 3.2-.457l-.02-3.883c-.528.09-1.063.151-1.6.125-.454-.017-.928-.197-1.195-.584-.378-.538-.426-1.223-.46-1.86l-.005-6.325 3.377-.002.002-3.772h-3.379zM7.023 102.46q.54-.004 1.075.059c.789.106 1.626.41 2.09 1.101.621.939.544 2.316-.237 3.143-.444.476-1.063.751-1.687.9-.994.238-2.021.15-3.032.166l.002-5.232c.592-.08 1.19-.135 1.79-.137m44.262.361a6.2 6.2 0 0 1 1.678.188c.748.202 1.46.652 1.848 1.344.48.84.533 1.873.324 2.804a3.19 3.19 0 0 1-1.447 2.01c-.649.393-1.407.58-2.159.611-.645-.002-1.295.037-1.931-.095l.004-6.69a11 11 0 0 1 1.683-.172m-25.935 1.778c-1.303-.006-2.61.285-3.743.94-1.396.796-2.454 2.109-3.093 3.575-.833 1.887-1.028 4.017-.727 6.047.252 1.684.966 3.342 2.217 4.518 1.375 1.316 3.285 1.936 5.156 2.013 2.086.088 4.21-.206 6.145-1.017l-.627-3.469c-1.114.367-2.27.6-3.442.649-1.313.092-2.734-.053-3.828-.854-.715-.505-1.156-1.342-1.226-2.213l9.793.006c.13-.693.166-1.401.158-2.106-.004-2.062-.487-4.217-1.791-5.857-.903-1.154-2.261-1.906-3.697-2.13q-.642-.1-1.295-.102m50.195.002c-1.978.033-3.987.447-5.72 1.431l.878 3.319c1.099-.725 2.397-1.113 3.7-1.229.884-.065 1.867-.008 2.595.56.523.407.71 1.105.656 1.745-1.407-.024-2.826.112-4.183.494-1.344.38-2.656 1.05-3.551 2.152-.862 1.042-1.223 2.427-1.18 3.764.027 1.625.84 3.257 2.229 4.127 1.154.745 2.601.886 3.927.633a5.2 5.2 0 0 0 3.184-1.94c.117.558.198 1.124.299 1.684l4.285.006c-.147-.993-.195-1.998-.205-3-.047-1.758-.013-3.519-.023-5.278-.014-1.135.068-2.282-.155-3.404-.253-1.473-.94-2.943-2.17-3.838-1.297-.983-2.978-1.255-4.566-1.226m7.701.357 5.74 15.416c.17.455-.046.918-.299 1.291-.855 1.402-2.327 2.384-3.914 2.736l1.006 4.334c2.255-.305 4.311-1.622 5.66-3.447 1.347-1.815 2.216-3.929 3.034-6.023 1.695-4.454 4.806-14.307 4.806-14.307l-5.105.004-2.586 11.133-3.045-11.13zm-58.256 3.04c.757-.027 1.523.261 1.998.872.528.678.734 1.558.739 2.406h-5.57c.11-.98.476-1.982 1.222-2.654.437-.394 1.022-.604 1.611-.625m-18.81 3.485c.95-.004 1.905.012 2.81.329.753.25 1.46.744 1.81 1.478.4.844.392 1.867.026 2.723-.384.887-1.267 1.451-2.174 1.681-1.116.283-2.286.223-3.422.125l.002-6.334c.314.004.63 0 .948-.002m71.634 2.125L77.8 115.8c-.1 1.333-1.397 2.43-2.723 2.303-.461-.044-.929-.227-1.226-.598-.463-.56-.51-1.366-.319-2.043.181-.647.724-1.126 1.324-1.38.931-.404 1.96-.458 2.96-.474m-14.142 10.704q-.223.003-.445.02c-1.386.092-2.766.589-3.801 1.52a5.6 5.6 0 0 0-1.506 2.186c-.328.844-.458 1.757-.436 2.658.022.966.225 1.935.66 2.803a5.53 5.53 0 0 0 2.563 2.52c1.202.582 2.577.751 3.9.617 1.11-.12 2.203-.5 3.102-1.164a5.63 5.63 0 0 0 1.867-2.389c.455-1.094.574-2.307.44-3.478-.116-1.026-.466-2.036-1.073-2.88a5.56 5.56 0 0 0-2.232-1.814c-.949-.43-1.998-.614-3.04-.6m-56.266.087c-1.365.013-2.737.074-4.084.313l-.002 11.728c1.491.202 2.999.253 4.502.23q.736-.024 1.46-.167c1.275-.252 2.513-.84 3.4-1.805 1.025-1.088 1.504-2.598 1.525-4.072.028-.863-.083-1.737-.387-2.549a5.2 5.2 0 0 0-2.164-2.63c-1.266-.782-2.78-1.042-4.25-1.048m47.106.09a8 8 0 0 0-1.315.1c-.576 1.1-1.166 2.192-1.744 3.29-.154.338-.292.681-.441 1.02l-.028.002c-.222-.506-.42-1.027-.695-1.507-.49-.936-.987-1.868-1.475-2.805-1.272-.17-2.566-.107-3.828.127l4.248 7.398c.007 1.484.002 2.968.002 4.451a9.9 9.9 0 0 0 3.235 0c.004-1.434-.016-2.874.01-4.306l4.222-7.56a13.6 13.6 0 0 0-2.19-.21zm-13.696.016c-.563 0-1.128.011-1.685.11l-4.432 11.86c.546.158 1.117.199 1.682.2.522 0 1.045-.007 1.562-.078.229-.643.702-1.922.702-1.922l4.13.002.7 1.926c1.097.192 2.215.055 3.304-.125l-4.326-11.86c-.46-.09-.93-.11-1.396-.113zm-23.521.016c-.556-.001-1.101.04-1.625.125v11.914c1.095.168 2.22.184 3.314 0l-.002-11.916a12 12 0 0 0-1.687-.123m5.543.017a10 10 0 0 0-1.748.129l-.004 11.912a8.8 8.8 0 0 0 3.039 0c-.007-1.688 0-3.377-.002-5.066-.006-.5-.066-.999-.059-1.498.231.686.467 1.37.729 2.047q.678 1.787 1.357 3.574c.908.112 1.831.121 2.739 0 .661-1.942 1.39-3.862 1.974-5.83.006.692-.072 1.383-.056 2.076-.003 1.566.003 3.133-.004 4.7a8.7 8.7 0 0 0 3.021 0c-.002-3.972-.002-11.913-.002-11.913a11 11 0 0 0-1.734-.13 13 13 0 0 0-1.736.124l-2.729 7.356-3.033-7.358a17 17 0 0 0-1.752-.123m52.672.15a23 23 0 0 0-4.127.377l-.002 11.446c1.09.164 2.209.18 3.297 0l-.006-3.758h1.055l2.216 3.865c.49.038.984.01 1.475.008.717-.024 1.437-.068 2.135-.24l-2.67-4.381c.793-.455 1.426-1.187 1.705-2.057a4.65 4.65 0 0 0 .047-2.662 3.13 3.13 0 0 0-1.51-1.86c-1.01-.563-2.196-.707-3.338-.737zM63.8 127.39v.002c.467.002.932.103 1.34.328.493.27.86.73 1.067 1.244.258.642.313 1.35.248 2.033-.072.718-.338 1.446-.879 1.947-.48.452-1.153.662-1.806.653-.678.009-1.374-.22-1.854-.705-.568-.563-.807-1.373-.842-2.15-.032-.79.089-1.621.541-2.29.35-.53.929-.892 1.555-1.006.207-.038.42-.057.63-.056m12.147.015c.43.015.893.127 1.188.46.336.38.375.95.21 1.411-.147.42-.555.7-.986.778-.556.093-1.122.031-1.683.049v-2.66q.635-.042 1.271-.038m-68.508.094c.447 0 .89.03 1.315.18a2.5 2.5 0 0 1 1.47 1.261c.384.781.399 1.7.208 2.536-.173.749-.653 1.442-1.356 1.785-.751.389-1.624.335-2.443.3l.006-6.05c.265-.003.533-.012.8-.012m33.268 1.285 1.074 3.115h-2.115c.37-1.03 1.041-3.115 1.041-3.115" style="opacity:1;fill:#002c6d;fill-opacity:1;stroke-width:.0940619" transform="matrix(.75 0 0 .75 0 0)"/></g><path d="m12.819 16.523 8.164-2.956c.858 10.64 6.925 22.324 11.936 33.007-7.024-7.474-16.074-18.918-20.1-30.051" style="fill:#00afcc;fill-opacity:1;fill-rule:nonzero;stroke:none;stroke-width:.17594431"/><path d="m23.333 12.877 8.924-3.096c-.732 11.612-.83 17.791.76 30.712-4.25-8.304-7.066-16.553-9.684-27.616" style="fill:#2c6a15;fill-opacity:1;fill-rule:nonzero;stroke:none;stroke-width:.17594431"/><path d="m34.481 9.09 8.093-2.786c-3.012 9.98-6.573 20.649-7.84 25.674z" style="fill:#fcc900;fill-opacity:1;fill-rule:nonzero;stroke:none;stroke-width:.17594431"/><path d="m11.354 67.983-2.279.002c-.435.011-.852.235-1.109.578a1.4 1.4 0 0 0-.282.845v1.98c.002.386.176.767.465 1.029.212.188.48.319.763.36.115.019.233.015.35.015h.905c.141 0 .282-.026.416-.067.573-.175 1.004-.729 1.011-1.319v-1.149a.45.45 0 0 0-.378-.438c-.11-.014-.22-.007-.33-.008l-1.511.003v.92l1.282.002c-.001.217.003.433-.001.65a.51.51 0 0 1-.488.485l-.866.002c-.1-.002-.201.006-.3-.015a.5.5 0 0 1-.362-.35c-.026-.092-.022-.189-.022-.283v-1.816a.5.5 0 0 1 .478-.5l2.258-.006zM.33 67.985l-.004 4.19c.002.11-.012.224.036.327a.51.51 0 0 0 .461.29l2.644.003v-.906l-2.121-.002-.008-3.9H.33zm15.325.002c-.248.002-.504.055-.828.154l-1.542 4.655c.352-.003 1.056-.002 1.056-.002l.396-1.23h1.796l.397 1.227 1.052.005-1.546-4.655a2.2 2.2 0 0 0-.781-.154zm-10.096 0c-.213 0-.468 0-.637.003l.005 4.804h1.009l.006-4.804s-.17-.002-.383-.002m10.08.813.583 1.803h-1.177z" style="opacity:1;fill:#b7446d;fill-opacity:1;stroke-width:.02135328"/></svg>