<svg xmlns="http://www.w3.org/2000/svg" viewBox="0 0 448 448"><defs><style>.cls-1{fill:#000;stroke-width:0}</style></defs><circle cx="224" cy="224" r="224" style="stroke-width:0;fill:#fff"/><path d="M448 222h-20.02c-.51-53.74-21.67-104.19-59.73-142.25C329.72 41.22 278.49 20 224 20S118.28 41.22 79.75 79.75C41.69 117.81 20.54 168.26 20.02 222H0v4h20.02c.51 53.74 21.67 104.19 59.73 142.25C118.28 406.78 169.51 428 224 428s105.72-21.22 144.25-59.75c38.06-38.06 59.21-88.51 59.73-142.25H448zM82.6 82.6c37.77-37.77 87.99-58.57 141.4-58.57s103.63 20.8 141.4 58.57c37.3 37.3 58.03 86.73 58.55 139.4H24.05c.51-52.67 21.25-102.1 58.55-139.4m282.8 282.8c-37.77 37.77-87.99 58.57-141.4 58.57s-103.63-20.8-141.4-58.57C45.3 328.1 24.57 278.67 24.05 226h399.89c-.51 52.67-21.25 102.1-58.55 139.4Z" style="stroke-width:0;fill:#ff4100"/><path d="M116.74 133.82C142.47 103.24 181 83.77 224 83.77s81.53 19.47 107.26 50.05zm246.01 70.09h40.38c-4.46-40.56-22.4-78.13-51.67-107.4-34.04-34.04-79.29-52.78-127.42-52.78S130.65 62.47 96.62 96.51c-29.27 29.27-47.22 66.84-51.67 107.4h40.38c1.5-10.42 4.15-20.47 7.81-30.03h261.8c3.66 9.55 6.32 19.61 7.82 30.03m-.04 40c-4.19 30.08-18.47 57.8-38.84 78.32-23.91-14.81-75.63-46.82-99.88-61.83l-99.88 61.83c-20.36-20.52-34.65-48.24-38.84-78.32H44.9c5.38 51.12 33.72 98.34 75.74 127.58L224 307.51c24.06 14.89 79.9 49.46 103.36 63.98 42.02-29.24 70.36-76.46 75.74-127.58z" class="cls-1"/><path d="M196.41 392.13v3.26h-19.39v-3.26h7.01v-20.32h-7.49v-2.86c5.64 0 7.71-1.28 7.71-4.41h3.35v27.59h8.82Zm15.16-8.25-.18-.18c-.71.31-1.85.53-2.82.53-5.86 0-10.18-4.32-10.18-10.09s4.54-10.18 10.36-10.18 10.27 4.36 10.27 10.18c0 2.12-.66 4.06-1.59 5.73l-8.68 15.52h-4.06l6.88-11.5Zm3.83-9.74c0-3.84-2.64-6.83-6.66-6.83s-6.7 3.04-6.7 6.83 2.64 6.88 6.7 6.88 6.66-3.13 6.66-6.88m8.68 12.03v-12.43c0-6.13 4.94-9.79 9.96-9.79s9.96 3.66 9.96 9.79v12.43c0 6.13-4.94 9.79-9.96 9.79s-9.96-3.66-9.96-9.79m16.4-.22v-11.99c0-3.75-2.73-6.61-6.44-6.61s-6.44 2.86-6.44 6.61v11.99c0 3.79 2.69 6.61 6.44 6.61s6.44-2.82 6.44-6.61m-8.91-6.08c0-1.37 1.15-2.47 2.51-2.47s2.47 1.1 2.47 2.47-1.1 2.47-2.47 2.47-2.51-1.1-2.51-2.47m19.71 7.5h3.35c.57 3.39 3.13 5.29 6.52 5.29 3.7 0 6.7-2.87 6.7-7.01s-2.82-6.74-7.05-6.74c-3.44 0-5.11 2.16-5.64 3.04h-3.26l1.06-17.41h16.57v3.26h-13.44l-.66 9.92h.26s1.9-2.07 5.73-2.07c5.86 0 10.05 4.63 10.05 10 0 5.86-4.5 10.31-10.18 10.31-5.33 0-9.61-3.39-10.01-8.59" class="cls-1"/></svg>