<svg xmlns="http://www.w3.org/2000/svg" xml:space="preserve" id="Ebene_1" x="0" y="0" version="1.1" viewBox="0 0 112 153.1"><style>.st1{fill:#1c2a39}.st2{fill:#c63235}</style><path d="M0 18.9v40.4C0 93.2.2 138 56.2 153c56-14.9 55.8-59.8 55.8-93.7V18.9C90.3 4 71.1 0 56.2 0 41.1 0 21.6 4 0 18.9" style="fill:#fff"/><path d="M16.3 18.1c-2.1 1.1-4.3 2.2-6.4 3.5v27.7h6.4zm10.7 27V13.4c-2.1.8-4.3 1.6-6.4 2.6v33.2h4.7c.5-1.4 1.1-2.7 1.7-4.1m10.8-12.2V10.3c-2.1.5-4.3 1.1-6.4 1.7v26.6c1.9-2.1 4-4.1 6.4-5.7M48.6 8.5c-2.1.2-4.3.5-6.4.9v21.1c2-.9 4.2-1.7 6.4-2.2zm10.8 19V8.2c-1.1 0-2.1-.1-3.2-.1s-2.1 0-3.2.1v19.3c1.1-.1 2.1-.2 3.2-.2 1.1.1 2.1.1 3.2.2M70.2 9.4c-2.2-.4-4.3-.7-6.4-.9v19.7c2.2.5 4.4 1.3 6.4 2.2zM81 38.6V12c-2.1-.7-4.3-1.2-6.4-1.7V33c2.3 1.5 4.5 3.4 6.4 5.6m10.7 10.7V16c-2.1-1-4.3-1.8-6.4-2.6v31.7c.7 1.3 1.2 2.7 1.7 4.2zm10.8-27.7c-2.1-1.3-4.3-2.4-6.4-3.5v31.1h6.4zM86.9 71.8h-1.1c-5.1 10.9-16.4 18.6-29.5 18.6-13 0-24.2-7.5-29.4-18.3-5.7 1.7-13 3.8-17.4 6.3 1.8 26 10.1 53.6 46.8 64.2 36.6-10.5 44.6-38.2 46.4-64.2-4.8-2.6-10.1-4.8-15.8-6.6M66.5 95.4h3.4v12.4h9V95.4h3.4V108c0 .9-.3 1.7-1 2.3-.6.6-1.4 1-2.3 1h-9.3c-.9 0-1.7-.3-2.3-.9s-.9-1.4-.9-2.3zm15.8 19.3v1h-10v-1zm-13-.4h-1.6v.5h1.6c.1 0 .3 0 .4.1s.2.2.2.4v.5c0 .1-.1.3-.2.4s-.2.1-.4.1h-1.6c-.1 0-.3 0-.4-.1s-.1-.2-.1-.4v-.2h.5v.2h1.6v-.5h-1.6c-.1 0-.3 0-.4-.1s-.1-.2-.1-.4v-.5c0-.1 0-.3.1-.4s.2-.1.4-.1h1.6c.1 0 .3 0 .4.1s.2.2.2.4v.2h-.5zc0 .1 0 0 0 0m-39.2-7.8h3.4v1.3h8.9V105h-9.1c-.9 0-1.7-.3-2.3-.9s-1-1.4-1-2.3v-3.1c0-.9.3-1.7 1-2.3.6-.6 1.4-.9 2.3-.9h9.3c.9 0 1.7.3 2.3 1 .6.6 1 1.4 1 2.3v1.5h-3.4V99h-8.9v2.8h9.1c.9 0 1.7.3 2.3 1 .6.6 1 1.4 1 2.3v3.1c0 .9-.3 1.7-1 2.3-.6.6-1.4 1-2.3 1h-9.3c-.9 0-1.7-.3-2.3-.9s-1-1.4-1-2.3zm10 8.2v1h-10v-1zm-5.3 9h-.9v-1.6h-3v1.6H30v-3.8c0-.3.1-.5.3-.7s.4-.3.7-.3h2.9c.3 0 .5.1.7.3s.3.4.3.7v3.8zm6.8 0h-.9v-3.5l-1.8 2.1-1.8-2.1v3.5h-.9V119h1l1.7 2.1 1.7-2.1h1zm.9-9.8h2.4v.5h-2v.6h1.6v.5H43v.6h2v.5h-2.4v-2.7zm5.3 6.4h-.9v-.4H44v1h2.9q.45 0 .6.3c.2.2.3.4.3.7v1q0 .45-.3.6-.3.3-.6.3H44c-.3 0-.5-.1-.7-.3q-.3-.3-.3-.6v-.4h.9v.4h2.9v-1h-2.9c-.3 0-.5-.1-.7-.3s-.3-.4-.3-.7v-1c0-.3.1-.5.3-.7s.4-.3.7-.3h2.9q.45 0 .6.3c.2.2.3.4.3.7v.4zm.5-5.2c0 .1-.1.3-.2.4s-.2.2-.4.2h-.1l.7.8v.1h-.5l-.8-.9h-.9v.9h-.5v-2.7h2.1c.1 0 .3.1.4.2s.2.2.2.4zm.4-19.7h3.4v6.2h3.1l2-2.3 3.2-3.8H64v1.2l-5.6 6.7 5.6 6.7v1.2h-3.6l-5.2-6.2h-3.1v6.2h-3.4zM63.1 116v.5h-2.7v-2.7h.5v2.2zm-8.2 0v.5h-2.7v-2.7h.5v2.2zm-5.9-1.7v-.5h2.7v.5h-1.1v2.2h-.5v-2.2zm4.6 5.6h-1.9v3.9h-.9v-3.9h-1.9v-.9h4.8v.9zm5.6 0h-3.5v1.1h2.8v.9h-2.8v1.1h3.5v.9h-4.4V119h4.4zm.5-5.3h-.5v-.2h-1.6v1.6h1.6v-.5h-.6v-.5h1.1v1c0 .1-.1.3-.2.4s-.2.1-.4.1h-1.6c-.1 0-.3 0-.4-.1s-.1-.2-.1-.4v-1.6c0-.1 0-.3.1-.4s.2-.1.4-.1h1.6c.1 0 .3 0 .4.1s.2.2.2.4zm5.3 5.3h-1.9v3.9h-.9v-3.9h-1.9v-.9H65zm-.8-4.3v.9h-.5v-2.1c0-.1.1-.3.1-.4.1-.1.2-.1.4-.1h1.6c.1 0 .3 0 .4.1s.2.2.2.4v2.1h-.5v-.9zm6.5 4.3h-1.9v3.9h-.9v-3.9H66v-.9h4.8v.9zm5.5 0h-3.5v1.1h2.8v.9h-2.8v1.1h3.5v.9h-4.4V119h4.4zm6.1 3.8h-1l-2.9-3.5v3.5h-.9V119h1l2.9 3.5V119h.9z" class="st1"/><path d="M46.2 114.3s0 .1 0 0v.7h1.6v-.7zm19.7.1s0-.1 0 0h-1.7v.8h1.7zM31 119.9s-.1 0 0 0v1.4h3v-1.4z" class="st1"/><path d="M0 18.9v40.4C0 93.2.2 138 56.2 153c56-14.9 55.8-59.8 55.8-93.7V18.9C90.3 4 71.1 0 56.2 0 41.1 0 21.6 4 0 18.9m107.4 40.5c0 33.2.2 74.6-51.2 88.9C4.8 133.9 4.6 92.6 4.6 59.4v-38C21.4 10.2 38.9 4.6 56.2 4.6s34.4 5.6 51.2 16.8z" class="st1"/><path d="M61.4 56.6c0-.1 0-.2-.1-.3s-.2-.1-.3-.1h-.3c-.1 0-.2 0-.3.1s-.1.2-.1.3v4.1c0 .1 0 .2.1.3s.2.1.3.1h.3c.1 0 .2 0 .3-.1s.1-.2.1-.3zm-.3 4.2-.4.1h-.1v-4.3h.5zm9.5 1.2h3.8c.1 0 .1 0 .2-.1 0 0 .1-.1.1-.2v-3.4c0-.1-.1-.2-.2-.2h-2c-.1 0-.1 0-.2-.1 0 0-.1-.1-.1-.2v-1.3s0-.1.1-.1h.4v1c0 .1.1.2.2.2h1.6c.1 0 .1 0 .2-.1 0 0 .1-.1.1-.2v-1.7c0-.1 0-.1-.1-.2 0 0-.1-.1-.2-.1h-3.8c-.1 0-.1 0-.2.1 0 0-.1.1-.1.2v3.1c0 .1 0 .1.1.2 0 0 .1.1.2.1h1.9c.1 0 .1 0 .2.1 0 0 .1.1.1.2v1.5h-.5v-1c0-.1 0-.1-.1-.2 0 0-.1-.1-.2-.1h-1.4c-.1 0-.1 0-.2.1 0 0-.1.1-.1.2v1.9c0 .1 0 .1.1.2 0 0 0 .1.1.1m.1-1.9V60h1.1c.1 0 .1.1.1.1v.6c0 .1 0 .2.1.3s.2.1.3.1h.3c.1 0 .2 0 .3-.1s.1-.2.1-.3v-1.4c0-.1-.1-.3-.1-.4-.1-.1-.2-.1-.4-.1h-1.7v-2.9h3.6v1.5h-1.3v-.7c0-.1 0-.2-.1-.3s-.2-.1-.3-.1h-.3c-.2 0-.4.2-.4.4V58c0 .1.1.3.1.4.1.1.2.1.4.1h1.8c.1 0 .1.1.1.1v3.1h-3.5c-.1 0-.1-.1-.1-.1v-1.5zm-2.9 1h.2c.2 0 .4-.2.4-.4v-1.6c0-.1 0-.2-.1-.3s-.2-.1-.3-.1h-.3c-.1 0-.2 0-.3.1s-.1.2-.1.3v1.6c.1.2.3.4.5.4m-.1-1.9s0-.1 0 0q0-.15 0 0l.4-.1h.1v1.7s0 .1-.1.1h-.3s-.1 0-.1-.1z" class="st1"/><path d="M37.2 51.4v13.1h39.9V51.4zm39.7 13H37.3V51.6h39.6z" class="st1"/><path d="M63.6 62H65c.1 0 .1 0 .2-.1s.1-.1.1-.2V54c0-.1 0-.1-.1-.2 0 0-.1-.1-.2-.1h-1.4c-.1 0-.1 0-.2.1 0 0-.1.1-.1.2v7.7q.15.3.3.3m.1-7.7v-.1h1.2v7.4c0 .1-.1.1-.1.1h-1c-.1 0-.1-.1-.1-.1zm-4.8 9.4h3.8c.1 0 .1 0 .2-.1 0 0 .1-.1.1-.2v-7.7c0-.1 0-.1-.1-.2 0 0-.1-.1-.2-.1h-3.8c-.1 0-.1 0-.2.1 0 0-.1.1-.1.2v6c0 .1 0 .1.1.2 0 0 .1.1.2.1h2c.1 0 .1 0 .2.1 0 0 .1.1.1.2v.3c0 .1 0 .1-.1.2 0 0-.1.1-.2.1h-2c-.1 0-.1 0-.2.1 0 0-.1.1-.1.2v.6c.1-.2.2-.1.3-.1m.1-.6V63h1.9c.1 0 .3-.1.4-.1.1-.1.1-.2.1-.4v-.3c0-.1-.1-.3-.1-.4-.1-.1-.2-.1-.4-.1H59V56c0-.1.1-.1.1-.1h3.5v7.5H59zm6.9-1.1h3.8c.1 0 .2-.1.2-.2v-6c0-.1 0-.1-.1-.2 0 0-.1-.1-.2-.1h-3.8c-.1 0-.1 0-.2.1 0 0-.1.1-.1.2v1.7c0 .1.1.2.2.2h1.6c.1 0 .2-.1.2-.2v-1h.6v1.4c0 .1 0 .1-.1.2 0 0-.1.1-.2.1h-2c-.1 0-.1 0-.2.1 0 0-.1.1-.1.2v3.4c.2 0 .3.1.4.1m.1-3.5v-.1h1.9c.1 0 .3-.1.4-.1.1-.1.1-.2.1-.4v-1.3c0-.1 0-.2-.1-.3s-.2-.1-.3-.1h-.3c-.1 0-.2 0-.3.1s-.1.2-.1.3v.7H66v-1.4h3.6v5.7c0 .1-.1.1-.1.1h-3.4c-.1 0-.1-.1-.1-.1z" class="st1"/><path d="M48.3 62h3.8c.1 0 .1 0 .2-.1s.1-.1.1-.2V60c0-.1 0-.1-.1-.2s-.1-.1-.2-.1h-1.6c-.1 0-.1 0-.2.1 0 0-.1.1-.1.2v.7c0 .1 0 .1-.1.2 0 0-.1.1-.2.1s-.1 0-.2-.1c0 0-.1-.1-.1-.2v-3.8c0-.1 0-.1.1-.2 0 0 .1-.1.2-.1h2c.1 0 .2-.1.2-.2v-.6c0-.1 0-.1-.1-.2 0 0-.1-.1-.2-.1h-2c-.1 0-.1 0-.2-.1 0 0-.1-.1-.1-.2v-1.4c0-.1-.1-.2-.2-.2h-1.4c-.1 0-.1 0-.2.1 0 0-.1.1-.1.2v7.7c0 .1 0 .1.1.2.5.1.5.2.6.2m4.7 0h1.4c.1 0 .1 0 .2-.1 0 0 .1-.1.1-.2V54c0-.1 0-.1-.1-.2 0 0-.1-.1-.2-.1H53c-.1 0-.1 0-.2.1 0 0-.1.1-.1.2v7.7q.15.3.3.3" class="st2"/><path d="M43.6 62H45c.1 0 .1 0 .2-.1 0 0 .1-.1.1-.2v-4.8c0-.1.1-.2.2-.2s.1 0 .2.1c0 0 .1.1.1.2v2c0 .1 0 .1.1.2 0 0 .1.1.2.1h1.6c.1 0 .1 0 .2-.1 0 0 .1-.1.1-.2v-3.1c0-.1 0-.1-.1-.2 0 0-.1-.1-.2-.1h-3.8c-.1 0-.1 0-.2.1 0 0-.1.1-.1.2v6c-.2 0-.1.1 0 .1m-4.7 0h3.8c.1 0 .2-.1.2-.2V60c0-.1 0-.1-.1-.2 0 0-.1-.1-.2-.1H41c-.1 0-.1 0-.2.1s.1.2.1.2v.7c0 .1 0 .1-.1.2 0 0-.1.1-.2.1s-.1 0-.2-.1c0 0-.1-.1-.1-.2v-1.4c0-.1 0-.1.1-.2 0 0 .1-.1.2-.1h2c.1 0 .1 0 .2-.1 0 0 .1-.1.1-.2v-3.1c0-.1 0-.1-.1-.2 0 0-.1-.1-.2-.1h-3.8c-.1 0-.2.1-.2.2v6c0 .1 0 .1.1.2.1.2.1.3.2.3m1.6-5.1c0-.1 0-.1.1-.2 0 0 .1-.1.2-.1s.2.1.2.2v1.3c0 .1 0 .1-.1.2 0 0-.1.1-.2.1s-.1 0-.2-.1c0 0-.1-.1-.1-.2v-1.2z" class="st2"/><path d="M36 52.7v13.5h40.5V52.7zm40 13.1H36.4V53.1H76z" class="st2"/><path d="M84.3 53.7c-1.1-4.7-2.9-7.9-4.2-9.9-3-4.2-5.8-6.9-10.5-9.3-1.5-.8-2.9-1.3-4.5-1.9l-.3-.1c-3-.9-5.6-1.3-8.7-1.3s-5.8.5-8.9 1.4c-5.1 1.6-9.1 4.2-12.6 8.1-.6.7-1.1 1.3-1.7 2.1-3.6 4.8-5.5 10.6-5.4 16.5 0 5.9 1.7 10.8 5.2 15.6l.1.1c2.6 3.5 5.5 6.1 9.4 8.2 3.6 1.8 7.5 3 11.7 3.4.8.1 1.4.1 2.2.1 10.6 0 19.9-5.5 25-14.2 3.4-6.5 4.3-12.8 3.2-18.8M65 33.2c1.5.5 3 1.1 4.4 1.8 3.8 1.9 6.6 4.3 9.1 7.6l-3.5 3-7.4-2.5-4.4-5.9zm-2.3 4.3 4.3 5.8-4.5 6.1H49.4l-4-5.6 3.8-6.2zM35.3 41c3.1-3.4 7.2-6.2 12-7.8l1.5 3.9-3.9 6.3-7.6 2.3-3.6-2.9c.5-.6 1-1.2 1.6-1.8m20.9 44.9c-1.8 0-3.2-.1-5-.4-1.2-.2-2.2-.5-3.4-.8l1.3-4.4 7-2.3 7.1 2.1 1.4 4.6c-2.6.8-5.5 1.2-8.4 1.2m22.9-11.5L74.9 72l-.1-4.8h-.6l.1 4.8-10.8 7.5-7.1-2 .1-7.4 4-2.9h-8.7l4.1 2.9-.1 7.4-6.9 2.3-10.8-7.5v-5h-.6v5.1l-4 2.3-.1-.1c-3.4-4.7-5-9.6-5.1-15.3v-.2h6v-8.5h1.8l1.4-4 7.4-2.2 4 5.6-.1.6h14.4L63 50l4.5-6 7.3 2.5 1.4 4.2h1.5v8.5h6.4c-.4 5.5-1.1 9.3-5 15.2" class="st1"/></svg>