<svg xmlns="http://www.w3.org/2000/svg" xml:space="preserve" width="187.086" height="187.087"><g fill-rule="evenodd" clip-rule="evenodd"><path fill="#FFF" d="M-2.834-2.834h192.755v192.755H-2.834z"/><path fill="#363B92" d="M0 0h187.086v187.087H0z"/><path fill="#FFF" d="M12.941 12.94h161.206v161.206H12.941z"/><path fill="#363B92" d="M15.279 15.279h156.529v156.529H15.279z"/><path fill="#FFF" d="M93.543 90.413H45.387c-5.435 0-9.468-.433-12.472-1.167 3.004-.734 7.037-1.167 12.472-1.167h96.314c5.436 0 9.468.433 12.473 1.167-3.005.734-7.037 1.167-12.473 1.167zm26.744 21.661v-1.918h27.098l-11.046 24.693h11.767v9.713h-28.133l10.961-24.799h-10.646zm-7.61 43.533V126.81q0-6.665-.677-10.682a28.2 28.2 0 0 0-2.375-7.541q-1.764-3.88-4.268-5.879c-1.661-1.334-3.469-1.996-5.414-1.996-4.042 0-7.302 2.629-9.775 7.875q-1.218 2.631-1.853 5.055c-.422 1.625-.735 3.469-.938 5.545q-.306 3.112-.307 7.623v28.797h9.862v-29.309q0-4.663.688-6.74.693-2.075 2.316-2.076c1.06 0 1.813.684 2.276 2.057.457 1.375.688 3.621.688 6.76v29.309h9.777zm-46.406 0v-53.439H77.18v53.439zm-27.289-45.649v19.174c0 3.564.374 6.438 1.114 8.627.74 2.184 2.051 3.828 3.931 4.941q2.814 1.665 7.855 1.666h2.654v-9.713h-.505q-1.818-.001-2.615-.266c-.524-.172-.865-.535-1.022-1.072q-.255-.754-.255-2.596v-20.762zM24.121 77.397V67.44l-.002-5.104 5.503-.005q1.322-.001 2.333.391c1.011.392 1.231.607 1.673 1.039q.662.644.99 1.456.33.81.33 1.698 0 1.516-.909 2.436.908.546 1.393 1.501.487.954.486 2.047 0 .836-.293 1.64a4.6 4.6 0 0 1-.861 1.456q-.568.65-1.395 1.025a4.35 4.35 0 0 1-1.826.378h-2.137v-3.931q.857 0 1.234-.314.376-.315.375-.697a.84.84 0 0 0-.386-.721q-.388-.27-1.223-.27v-3.281q.487-.03.763-.283.281-.254.28-.584a.85.85 0 0 0-.243-.613q-.241-.254-.666-.254-.372 0-.542.207-.17.206-.206.578c-.036.372-.037.637-.037 1.166v8.998h-4.634zm23.127 0h-4.25q-.899 0-1.694-.331a3.8 3.8 0 0 1-1.348-.924q-.551-.592-.861-1.469a5.7 5.7 0 0 1-.309-1.91V62.579h4.634v9.331q0 .71.386.996.388.282 1.089.283h2.354v4.208zm5.264 0v-9.402q0-1.455.676-2.758a5.3 5.3 0 0 1 1.971-2.106q1.295-.8 2.999-.8a6.3 6.3 0 0 1 2.687.608q1.317.61 2.169 1.915.851 1.305.851 3.266v9.278H59.23v-4.542h-1.397v-3.765h1.397v-1.39q0-.534-.304-.827-.303-.293-.774-.293-.421 0-.713.298-.293.301-.293.824v9.693zm15.347-14.818h4.634v9.833q.001.487.298.753c.201.18.449.301.746.301.302 0 .552-.122.752-.301q.298-.266.299-.753v-9.833h4.602v9.836q0 1.145-.423 2.108a4.9 4.9 0 0 1-1.199 1.672 5.4 5.4 0 0 1-1.81 1.083 6.5 6.5 0 0 1-2.225.378q-1.693 0-2.983-.676a4.9 4.9 0 0 1-1.989-1.873 5.14 5.14 0 0 1-.703-2.652v-9.876zm28.709 0h4.635v9.833q.001.423.242.692c.161.179.356.298.585.298.28 0 .512-.133.694-.336q.273-.302.274-.829v-9.659h4.581v9.74q0 .557.254.838c.166.185.371.309.612.309.284 0 .521-.12.714-.296a.87.87 0 0 0 .288-.674v-9.917h4.581v10.06q0 1.188-.438 2.127a4.55 4.55 0 0 1-1.176 1.564 5.2 5.2 0 0 1-1.688.948 6 6 0 0 1-1.939.325 5.2 5.2 0 0 1-1.928-.362 4.1 4.1 0 0 1-1.538-1.051 3.8 3.8 0 0 1-1.521 1.051 5.4 5.4 0 0 1-1.987.362 5.8 5.8 0 0 1-2.525-.573 4.84 4.84 0 0 1-1.96-1.691q-.759-1.12-.759-2.618V62.579zm31.424 14.818h-2.383q-1.735 0-3.123-.629a6.8 6.8 0 0 1-2.343-1.73 7.7 7.7 0 0 1-1.442-2.47 8.2 8.2 0 0 1-.492-2.837 7.3 7.3 0 0 1 2.024-4.975 7 7 0 0 1 2.324-1.593q1.359-.582 2.999-.583h2.436v3.952h-1.651q-1.113 0-1.894.373-.778.371-1.171 1.321h4.716v3.548h-4.716q.206.631.954 1.162c.748.531 1.134.531 1.904.531h1.857v3.93zm4.177 0V62.579h4.676v14.818zm7.594 0v-4.208h3.448q.38 0 .697-.135.313-.134.314-.454c0-.36-.243-.713-.692-1.097-.298-.254-.732-.666-1.332-1.191q-.899-.788-1.373-1.326c-.314-.356-.566-.74-.748-1.149s-.273-.846-.271-1.305q.006-1.538.797-2.425t1.834-1.208a6.8 6.8 0 0 1 2.003-.319h4.581v4.159h-3.065q-1.03 0-1.094.507c.062.219.22.444.486.65.433.333.933.693 1.479 1.107.546.413 1.012.81 1.39 1.191q.567.572.938 1.266c.371.694.39.967.433 1.519.009.108.021.272.021.483q-.002 1.335-.774 2.222c-.772.887-1.178 1.027-1.986 1.303a7.9 7.9 0 0 1-2.544.412h-4.542zm13.36 0v-4.208h3.448q.38 0 .697-.135.313-.134.314-.454c0-.36-.243-.713-.692-1.097-.298-.254-.732-.666-1.332-1.191q-.899-.788-1.373-1.326c-.314-.356-.566-.74-.748-1.149s-.273-.846-.272-1.305q.007-1.538.798-2.425t1.834-1.208a6.8 6.8 0 0 1 2.003-.319h4.58v4.159h-3.063q-1.03 0-1.094.507c.061.219.219.444.485.65.433.333.933.693 1.479 1.107.546.413 1.012.81 1.39 1.191.379.381.689.803.938 1.266q.37.692.433 1.519c.009.108.021.272.021.483q-.002 1.336-.774 2.222-.773.888-1.986 1.303a7.9 7.9 0 0 1-2.544.412h-4.542zm-78.99-27.612V33.789q-.001-4.659 2.252-6.759 2.248-2.106 6.404-2.105h5.886v6.91h-3.998q-1.748.001-2.261.7c-.341.465-.509 1.25-.509 2.345h6.768v6.387h-6.838l.071 8.519h-7.775zm38.822 0h-3.728q-2.966 0-5.278-1.019-2.315-1.021-3.874-2.771a12 12 0 0 1-2.354-3.984c-.532-1.489-.834-3.009-.834-4.569 0-1.583.308-3.129.852-4.649a12.2 12.2 0 0 1 2.389-4.042c1.05-1.175 2.354-2.11 3.9-2.797 1.547-.687 3.329-1.028 5.337-1.028h3.59v7.131h-2.478q-1.73-.001-3.014.745-1.279.742-1.955 1.972c-.449.819-.709 1.688-.709 2.597 0 .905.259 1.761.709 2.576q.675 1.22 2.008 1.963c.891.498 1.946.707 3.169.745l2.27.071z"/></g></svg>