<svg xmlns="http://www.w3.org/2000/svg" fill-rule="evenodd" viewBox="37.62 139.76 521.08 566"><path d="M298.119 705.758c-32.124-6.63-63.723-19.712-93.901-39.122q-43.57-28.023-76.508-68.567-53.628-66.013-76.336-149.574c-16.6-61.085-18.733-125.447-3.35-186.979q10.054-40.21 32.534-78.643l1.196-2.045 2.205-.865q102.428-40.205 214.124-40.205c74.466 0 145.987 13.402 214.271 40.205l2.206.865 1.196 2.045q22.48 38.433 32.533 78.643c15.384 61.532 13.251 125.894-3.349 186.979q-22.707 83.561-76.337 149.574-32.938 40.544-76.507 68.567c-30.179 19.41-61.852 32.492-93.977 39.122" style="stroke:none;fill:#e21c2a"/><path d="m85.809 184.679-.57.223-.308.529c-14.764 25.242-25.412 51.001-31.991 77.313-6.932 27.72-10.257 56.037-10.257 84.383 0 33.632 4.684 67.302 13.58 100.039 14.965 55.059 40.07 104.238 75.379 147.708 21.631 26.623 46.717 49.103 75.316 67.5 29.376 18.893 60.038 31.647 91.16 38.207 31.127-6.562 61.865-19.317 91.235-38.207 28.6-18.397 53.687-40.877 75.316-67.5 35.311-43.47 60.415-92.649 75.381-147.708 8.894-32.737 13.578-66.406 13.578-100.038 0-28.344-3.324-56.662-10.255-84.384-6.579-26.312-17.229-52.071-31.991-77.314l-.31-.528-.57-.223c-67.698-26.571-138.561-39.851-212.419-39.854-73.857.003-144.571 13.283-212.274 39.854" style="stroke:none;fill:#fff"/><path d="M533.711 347.127c-.001-26.788-3.142-53.474-9.66-79.552-5.632-22.512-14.492-44.685-26.749-66.643-63.598-24.133-129.902-36.178-199.219-36.191-69.317.013-135.47 12.054-199.072 36.19-12.264 21.97-21.119 44.136-26.75 66.644-6.52 26.076-9.66 52.763-9.66 79.55-.002 31.783 4.427 63.708 12.88 94.816a396 396 0 0 0 14.832 44.114V384.05h27.712v157.177c8.332 13.618 17.573 26.729 27.713 39.366V384.05h27.713v226.776a296 296 0 0 0 27.712 23.322V384.05h27.712v268.372c9.16 5.317 18.404 9.991 27.712 14.026V384.05h27.712v292.487a232 232 0 0 0 13.818 3.648 232 232 0 0 0 13.895-3.668V384.05h27.713v282.382c9.312-4.032 18.558-8.702 27.712-14.011V384.05h27.712v250.098a296 296 0 0 0 27.712-23.323V384.05h27.713v196.54c10.141-12.637 19.382-25.747 27.713-39.364V384.05h27.712v102.004a396 396 0 0 0 14.829-44.11c8.453-31.111 12.883-63.035 12.883-94.817" style="stroke:none;fill:#e21c2a"/><path d="M288.299 323.546a11.06 11.06 0 0 0 4.315 3.973c2.055-6.319.422-12.981-3.742-17.615a18 18 0 0 0-7.527-4.975c-9.401-3.233-19.64 1.767-22.87 11.168s1.772 19.642 11.173 22.875c7.07 2.432 14.615.206 19.295-5.046a19 19 0 0 1-4.113-3.042q-1.533 1.593-3.681 2.641-4.793 2.34-9.839.605-5.045-1.735-7.386-6.528-2.342-4.795-.608-9.84c2.311-6.726 9.638-10.304 16.365-7.99 2.867.986 5.32 2.929 6.86 5.549q.278.473.526.98 1.736 3.553 1.232 7.245m19.713-12.795q-.509 3.697 1.231 7.257a12.88 12.88 0 0 0 7.387 6.529q5.044 1.735 9.837-.605 4.795-2.341 6.526-7.385 1.735-5.046-.607-9.839-2.342-4.795-7.387-6.53t-9.838.606q-2.144 1.046-3.674 2.634a19 19 0 0 0-4.114-3.042c4.681-5.248 12.223-7.471 19.291-5.04 9.401 3.233 14.403 13.475 11.173 22.875s-13.469 14.401-22.87 11.168a18 18 0 0 1-7.527-4.976c-4.166-4.634-5.799-11.298-3.74-17.62a11.07 11.07 0 0 1 4.312 3.968" style="stroke:none;fill:#fff"/><path d="M315.273 322.728a11.03 11.03 0 0 1-4.314-3.968q.508-3.7-1.23-7.259-2.341-4.794-7.387-6.529-5.044-1.735-9.838.605-2.145 1.049-3.679 2.639a18.8 18.8 0 0 0-4.114-3.04c4.68-5.253 12.225-7.479 19.296-5.047 9.309 3.202 14.304 13.275 11.266 22.599m-7.787 3.363a18.7 18.7 0 0 0 4.116 3.04c-4.681 5.249-12.223 7.473-19.292 5.041-9.305-3.2-14.301-13.267-11.269-22.588a11.04 11.04 0 0 1 4.313 3.971q-.504 3.692 1.232 7.247a12.88 12.88 0 0 0 7.387 6.529q5.045 1.734 9.837-.605 2.145-1.047 3.676-2.635M193.85 284.126l22.479-.013v-23.141l4.815-9.24 12.037 32.381h23.684l-21.355-52.96 20.346-41.776h-23.141l-16.308 37.661.023-37.636-22.507-.031zm208.612-94.711h-22.681l-11.567 66.24-10.964-66.24-22.833-.069 20.579 94.698h26.437zM287.21 286.011c9.168 1.161 19.061 1.164 26.766-4.491 7.546-5.538 10.905-14.284 10.848-23.244-.065-10.515-4.75-20.067-13.552-25.835l-15.759-10.191c-2.209-1.562-4.282-3.253-6.092-5.184-1.693-1.808-1.824-5.028-1.272-7.323.946-3.927 4.972-5.81 8.941-5.066 4.416.828 5.974 5.513 5.974 9.586l-.053 3.608 20.854.07-.007-4.268a27.63 27.63 0 0 0-11.417-22.333c-5.042-3.654-11.423-4.083-17.488-3.955-8.464.179-17.395 2.481-22.475 9.67-4.433 6.273-6.049 13.953-5.064 21.452.802 6.11 4.967 12.743 10.061 16.337l17.827 12.646c4.515 3.187 7.922 7.893 7.742 13.754-.08 2.601-1.371 5.035-3.309 6.562-2.753 2.17-6.647 2.097-9.338-.141-1.998-1.663-3.117-4.27-3.262-6.947l-.002-8.206h-20.746l-.034 9.427c-.022 5.793 1.705 11.533 5.451 16.002 3.678 4.389 8.937 7.251 15.406 8.07m-14.865 66.04c-.986.643-2.314.943-3.942.943h-.3v3.513h4.628v15.898h5.142v-23.182h-3.557c-.343 1.243-.986 2.228-1.971 2.828m22.377-.857c-.6-.686-1.372-1.157-2.185-1.457q-1.35-.513-2.957-.514c-2.314 0-3.986.729-5.142 2.1-1.114 1.371-1.671 3.471-1.671 6.256 0 2.443.385 4.242 1.242 5.442.814 1.157 2.057 1.757 3.771 1.757.599 0 1.157-.086 1.714-.257.6-.172 1.113-.472 1.714-.814.043.171.043.385.043.642v.986c0 1.371-.128 2.357-.428 2.914-.258.6-.686.857-1.329.857-.472 0-.857-.172-1.115-.601-.214-.342-.428-.856-.428-1.627h-4.884c0 1.971.556 3.427 1.671 4.456 1.113 1.028 2.657 1.543 4.67 1.543 1.543 0 2.828-.258 3.9-.815 1.028-.557 1.799-1.328 2.313-2.399.3-.729.558-1.672.686-2.871s.215-3.214.215-5.999c0-3.171-.128-5.357-.386-6.642-.3-1.285-.729-2.271-1.414-2.957m-3.771 8.913q-.386.772-1.285.772c-.644 0-1.071-.301-1.329-.857-.3-.601-.428-1.543-.428-2.957 0-1.457.128-2.485.385-3.042.257-.601.643-.858 1.2-.858.686 0 1.113.257 1.414.858.3.557.429 1.585.429 2.956 0 1.543-.129 2.571-.386 3.128m13.033-8.056c-.985.643-2.313.943-3.942.943h-.3v3.513h4.628v15.898h5.142v-23.182h-3.557c-.342 1.243-.985 2.228-1.971 2.828m23.839 2.1c-.301-1.285-.729-2.271-1.414-2.957-.6-.686-1.371-1.157-2.186-1.457q-1.35-.513-2.956-.514c-2.314 0-3.985.729-5.142 2.1-1.115 1.371-1.672 3.471-1.672 6.256 0 2.443.386 4.242 1.243 5.442.815 1.157 2.056 1.757 3.771 1.757.6 0 1.157-.086 1.714-.257.6-.172 1.114-.472 1.714-.814.043.171.043.385.043.642v.986c0 1.371-.128 2.357-.429 2.914-.257.6-.686.857-1.328.857-.471 0-.857-.172-1.114-.601-.215-.342-.429-.856-.429-1.627h-4.885c0 1.971.557 3.427 1.671 4.456 1.115 1.028 2.657 1.543 4.671 1.543 1.543 0 2.829-.258 3.899-.815 1.029-.557 1.801-1.328 2.315-2.399.3-.729.557-1.672.686-2.871.128-1.2.213-3.214.213-5.999 0-3.171-.128-5.357-.385-6.642m-5.185 5.956q-.386.772-1.285.772c-.643 0-1.072-.301-1.329-.857-.3-.601-.429-1.543-.429-2.957 0-1.457.129-2.485.386-3.042.257-.601.643-.858 1.2-.858.686 0 1.114.257 1.415.858.299.557.427 1.585.427 2.956 0 1.543-.128 2.571-.385 3.128" style="stroke:none;fill:#fff"/><path d="M298.156 546.214c-31.026 0-56.177 25.151-56.177 56.177s25.151 56.177 56.177 56.177 56.177-25.151 56.177-56.177-25.151-56.177-56.177-56.177" style="stroke:none;fill:#1f211d"/><path d="M333.788 576.169c5.697 7.542 8.526 16.283 8.526 26.224v.6l-8.87 9.256-16.412-4.8-6.471-19.882 9.042-14.483zm-45.953 10.21-8.527-12.726 6.727-13.928c3.814-1.027 7.884-1.542 12.127-1.542 3.299 0 6.47.3 9.513.943l9.984 13.37-9.299 13.883h-18.055l-2.405-.111-.03.111zm-10.822-34.041q10.09-4.268 21.143-4.269 10.391 0 19.932 3.773l-6.65 6.079q-6.421-1.923-13.282-1.922-7.34 0-14.176 2.199l-10.603-4.165a55 55 0 0 1 3.636-1.695m-31.686 62.787a54.2 54.2 0 0 1-1.492-12.734q0-11.052 4.268-21.143a53.8 53.8 0 0 1 10.421-16.008l2.019 9.974a46 46 0 0 0-5.137 9.123q-3.643 8.61-3.642 18.054 0 1.666.113 3.302z" style="stroke:none;fill:#fff"/><path d="M253.967 602.38c0-7.971 1.8-15.169 5.486-21.596l18.468-5.485 8.313 13.027-6.556 20.224.3.215-15.084 6.513-10.927-10.927zm23.046 50.065q-9.75-4.123-17.268-11.642a55 55 0 0 1-5.728-6.726l9.483-.84a47 47 0 0 0 1.852 1.958q6.426 6.426 14.749 9.947a46 46 0 0 0 9.278 2.822l3.189 8.471a53.5 53.5 0 0 1-15.555-3.99" style="stroke:none;fill:#fff"/><path d="M287.85 645.427c-7.843-1.799-14.828-5.742-20.912-11.827-.3-.257-.557-.557-.857-.814l-.814-15.34 16.326-7.542 16.968 12.341.301-.215 2.528 15.641zm12.469-24.454 15.727-11.442 17.013 4.928.342 14.698a43 43 0 0 1-3.986 4.456c-3.726 3.729-7.755 6.685-12.169 8.785l-14.312-4.628zm36.241 19.804q-7.518 7.522-17.266 11.644a55 55 0 0 1-4.822 1.779l2.942-9.613a46 46 0 0 0 13.541-9.416 47 47 0 0 0 4.263-4.889l9.748-.332a54 54 0 0 1-8.406 10.827m7.965-36.894q.024-.743.024-1.492 0-9.445-3.642-18.054a46 46 0 0 0-6.124-10.434l2.339-9.36a53.9 53.9 0 0 1 11.088 16.705q4.267 10.091 4.267 21.143 0 2.873-.288 5.681z" style="stroke:none;fill:#fff"/><path d="M147.858 323.012c-5.527-5.657-12.297-12.384-14.011-14.184-5.914-6.342-13.285-14.355-18.898-21.211-3-3.642-5.4-7.285-7.028-12.127 1.372 2.529 2.999 4.799 4.843 7.028 5.613 6.856 12.984 14.869 18.897 21.211 2.056 2.142 11.398 11.441 17.14 17.354.814.858-.085 2.228-.943 1.929m24.095 43.015c1.371.557 2.486.986 2.785 1.072 2.185.642 1.543-.986-.043-2.229-4.241-3.385-8.955-7.242-12.684-10.199-12.383-9.812-25.668-21.468-30.766-25.924-10.285-8.998-15.684-14.826-22.369-23.996-1.371-1.885-2.571-3.942-3.599-6.084 1.457 3.941 3.385 7.884 5.785 11.183 6.684 9.17 12.084 14.998 22.368 23.996 5.099 4.457 18.383 16.112 30.767 25.925 2.314 1.842 5.013 4.028 7.756 6.256m-1.223 18.171c-3.128-2.271-6.813-4.928-10.07-7.413-7.67-5.871-15.983-11.827-22.797-18.812-2.657-2.699-5.313-6.17-7.027-9.255-1.286-2.186-3.214-5.485-4.114-8.485.686 1.286 1.371 2.443 1.928 3.386 1.715 3.085 4.371 6.556 7.028 9.256 6.813 6.984 15.126 12.94 22.797 18.811 7.199 5.485 16.412 11.826 17.611 13.026 1.586 1.585 2.057 3.128-.642 1.8-1.5-.729-3.086-1.5-4.714-2.314m132.269 105.151c1.133-2.029 2.026-3.946 2.57-5.631-1.595.65-3.535 1.442-5.991 2.402zm-.214.381c-6.868.099-10.319-.038-16.191.503l2.4 3.086c-1.586 0-10.842-1.371-16.583-1.328l.171 2.957c-.772.043-7.456-.9-8.271-.858-12.598 1.115-26.01 2.657-38.051 3.685-5.099.429-8.485 4.243-9.085 9.985-5.227-.214-10.883-1.157-13.412-5.957-.814-1.542-1.157-2.485-1.285-3.685 2.828 3.6 7.841 4.329 12.512 4.542.6-5.741 3.986-9.554 9.085-9.983 12.041-1.029 25.453-2.571 38.051-3.686.814-.043 7.499.9 8.271.857l-.172-2.956c5.743-.043 14.998 1.328 16.584 1.328l-2.4-3.085c6.042-.557 9.512-.386 16.797-.514l-3.814-3.6c6.685-2.614 9.557-3.985 12.042-4.628 9.384 3.686 19.026 8.228 26.01 11.998 1.586.858 4.243 1.115 3.557 5.014-.043.214-.043.429-.085.643a9 9 0 0 1-1.287-.557c-6.984-3.771-16.626-8.314-26.01-11.999a23 23 0 0 0-2.066.655l21.92 12.4-2.685 11.103c-1.074-.09-2.147.269-3.221 1.164l-.895 6.536-5.1-.896-1.521 6.895c-.894.178-1.88-.268-2.774-1.254-.525-.577-2.03-1.669-1.968-1.163.242 1.972-.18 3.76-1.521 5.371h-.538c-.866 0-1.71-.399-2.147-1.163-1.074-1.881-1.5-3.359-3.132-3.224-3.187.265-6.675-.126-8.603-3.522-.25-.44-3.673-.827-3.462.452.202 1.227.809 2.387 1.867 3.073l6.351 4.116c.895.626 1.341 2.059 1.341 4.208-3.22 1.254-5.457 1.791-6.531 1.791-1.968-9.581-26.933-4.477-26.843-3.582.357.09.537.448.537.896v1.791c0 .536-.269.895-.896.895h-1.162q-.135 0-1.343-1.075c-1.342-1.164-1.968-2.059-1.968-2.865v-3.85q0-2.417 2.416-2.417h5.1v-.895c-2.863-3.134-11.9-2.508-10.737 5.729-.716 0-1.682.22-2.666-.496-.668-.487-1.642-1.889-1.719-2.19-.984-3.849-.179-6.983 2.506-9.49 2.594-2.418 7.426-2.687 14.584-.627 4.474 1.343 7.785 1.97 9.933 2.06 4.967-3.99 13.423-13.951 18.109-22.188m17.295 42.346c-1.373.043-2.829.129-4.243.214-3.129.428-6.128 1.243-9.299 2.228-1.157.343-1.499 1.629-.043 2.871l-2.014 2.443-1.842-1.543c-.858 1.2-1.371 2.228-1.029 2.486l5.057 4.156 2.014-2.443c-1.457-1.242-1.115-2.528.043-2.87 1.884-.557 3.727-1.115 5.569-1.543 0-.214.044-.472.13-.729.299-2.57 3.085-2.87 6.384-3.77.772-.3 2.186-1.286.429-1.414-.3 0-.729-.043-1.156-.086m12.028 10.648c-2.142-1.628-4.499-1.844-8.012 3.042-.172.214.214 2.742.214 4.371l-1.586.986c-.471.299-1.114-.643-1.843-1.329-1.028-1.029-2.441-2.485-2.956-3.214-.899-1.2-1.8-2.614-1.328-4.114.643.729 1.457 1.543 2.1 2.229.728.685 1.371 1.628 1.842 1.328l1.586-.985c0-1.628-.386-4.158-.214-4.371 4.413-6.17 7.028-4.199 9.64-1.586.387.386.901 2.786.772 3.129-.086.171-.128.342-.215.514m6.994-4.342c.087 1.243.043 2.657-.299 4.457-.257 1.5-1.586 2.186-3.258 2.957a5.5 5.5 0 0 1-1.113.471c.085.514.128.9.085 1.028-.642 1.843-2.142 3.171-2.957 4.713l1.029.387c.214.085 3.471-.643 5.142-1.501 1.671-.771 2.999-1.456 3.257-2.955.986-5.4-.3-7.843-1.886-9.557m91.229-1.764c-1.928.214-3.899.471-5.828.429-8.012-.215-15.254-.814-24.039-2.143-.214-.043-4.456 4.243-7.156 6.6-.343.299-9.813-2.186-14.612-4.029-18.255-6.984-15.213-3.128-22.54-7.799-1.414-.857-4.028-2.356-5.443-3.171l-2.699 6.085c-1.413-2.528-5.099-6.599-7.456-8.098-2.956-1.843-8.612-.215-7.584 4.113.3 1.372 1.2 2.229 2.185 3.085.857-2.742 5.142-3.599 7.585-2.099 2.357 1.5 6.042 5.57 7.455 8.099l2.7-6.085c1.414.814 4.029 2.314 5.443 3.171 7.326 4.67 4.284.813 22.539 7.798 4.8 1.843 14.269 4.328 14.613 4.029 2.699-2.357 6.941-6.642 7.156-6.599 8.784 1.328 16.025 1.928 24.04 2.142 2.056.043 4.113-.214 6.169-.472.772-.042 2.4-.728 2.1-1.543-.643-1.456-2.57-2.57-4.628-3.513m17.055-17.78c1.8-.257 3.857-.386 3.857.472.086 1.842-1.286 4.028-1.928 5.056-1.844 2.828-3.772 4.413-6.771 5.828-3.6 1.671-6.47 2.356-11.484 2.957-1.8-1.286-4.457-2.272-6.342-3.086-.686-.3-1.029-1.457-.428-1.5 8.099-.857 11.527-1.328 16.068-3.471 3-1.413 4.929-2.999 6.771-5.827.086-.129.172-.258.257-.429m8.828-16.336c1.072-.128 2.1-.257 3.214-.343 3.086-.257-.043 4.585-1.67 6.17a32 32 0 0 1-8.7 6v-.086c-.042-1.371-5.356-.214-6.384-.043-3.557.514-6.599 1.328-11.142 1.715-1.929.214-1.2-1.844 0-2.1 8.527-1.757 17.055-3.771 24.04-10.584.214-.172.428-.429.642-.729m7.302-29.069c3.471.257 2.656 12.77-1.371 16.798-3.085 3.042-5.914 5.356-9.127 7.327-4.671.728-8.999 1.842-13.498 1.885-1.886 0-1.329-1.5-.815-1.757.901-.429 3.942-1.2 4.842-1.542 6.727-2.828 11.228-5.87 16.412-11.013 2.358-2.399 3.6-7.712 3.557-11.698m-71.666-7.531c-3.257 1.542-6.513 2.399-8.355 2.914-1.157.256.385 1.499 1.67 1.884a154 154 0 0 1 5.613 1.672c1.372-.514 2.829-1.114 4.244-1.843 1.199-.6 2.827-1.414 3.127-2.785.257-1.285-2.957-1.628-6.299-1.842m19.613-11.509c3.171-.043 5.527.086 5.613.514.258 1.972-5.613 6.813-7.628 7.114-2.742.385-8.356.686-13.583 1.071a5 5 0 0 0 .128-.429c.386-1.842-6.128-1.714-10.199-2.099-2.228-.172-2.399-1.5-1.413-1.672 5.314-.899 18.168-1.285 22.883-1.971.943-.128 2.656-1.242 4.199-2.528m12.308-16.618c1.371-.429 2.656-.815 3.771-1.286 2.613-1.028.857 3.514-.857 5.527-2.101 2.486-4.885 6.428-8.313 8.656-.772.472-2.314.814-4.329 1.072.558-.771.9-1.457.814-1.971-.172-1.158-15.683-.172-20.911.214-1.799.128.771-1.928 2.657-2.143 6.856-.771 17.27-.771 19.583-2.271 3.086-1.97 5.571-5.356 7.585-7.798m10.777-16.612c-.085.128-.215.257-.3.343-4.114 4.156-9.256 7.113-14.74 9.127-3.129 1.157-9.214 2.828-14.013 3.727-.943.172 0 1.372.815 1.286 7.755-1.029 14.568-2.442 19.067-4.242 1.544-.6 1.586.728.987 2.357 3.685-1.842 7.113-4.2 10.07-7.156 1.884-1.886 3.727-7.327.813-6.342zm7.762-19.403c.857-.343 3.086-1.029 3.086.085 0 3.857-1.714 8.313-5.485 11.827-.943.857-2.014 1.585-3.343 2.313-.086-.771-.514-1.156-1.499-.814-6.299 2.144-12.642 3.986-19.241 4.714-1.628.172-3.342-1.114-1.07-1.756.728-.215 1.97-.558 3.128-.943 11.398-4.029 16.54-5.571 19.84-8.613 2.185-2.057 3.685-4.414 4.584-6.813m16.551-31.454c-.642 2.271-1.629 4.028-2.956 6.257-2.486 4.07-10.456 11.227-16.884 14.911-4.671 2.657-16.84 8.913-24.64 11.827-1.37.514-6.813 2.099-9.17 3.514-.899.557-.043.985 1.157 1.028.643 0 5.314-.814 7.285-1.328 6.385-1.671 17.526-6.171 26.354-9.813a7.3 7.3 0 0 1 1.885-.514c6.299-3.771 13.798-10.627 16.198-14.527 2.014-3.385 3.256-5.699 3.6-10.198.043-.471.043-2.914-.515-2.571zm8.786-30.726c.943-.857 1.929-1.714 2.957-2.614.343-.299.985-.857 1.2-.214 1.114 3.299-2.828 9.384-4.586 12.598-6.555 12.041-12.426 13.498-21.382 21.725-1.499 1.414-3.171 2.657-4.756 3.857-.6.343-1.157.686-1.758 1.028-5.913 3.471-12.212 7.242-18.854 10.456-2.699 1.328-4.327.257-2.742-1.328 1.2-1.201 11.527-7.928 18.726-13.413 2.356-1.799 4.884-3.556 7.199-5.699 8.955-8.227 14.827-9.684 21.383-21.725.685-1.243 1.671-2.913 2.613-4.671m26.624-59.534c-.943 6.599-3.899 17.354-9.342 24.811-6.684 9.212-12.898 15.768-23.183 24.767-5.099 4.456-18.939 17.055-31.067 27.125-3.685 3.085-6.599 5.313-11.569 8.655-1.671 1.115-.815 2.914 1.243 1.886.556-.3 2.871-1.158 4.885-2.4 8.313-5.228 16.197-11.055 23.996-17.097 6.385-5.657 11.869-10.584 14.698-13.07 10.284-8.998 16.498-15.554 23.183-24.767 7.242-9.942 10.156-25.797 9.555-29.781-.299-1.971-1.5-1.157-2.399-.129m-3.624-27.106c.342-.472.685-.901.984-1.372.986-1.285 1.457 3.728 1.03 11.099-.301 7.327-1.801 12.726-4.114 17.225-2.657 3.385-6.729 8.185-11.527 13.541-6.042 6.814-15.427 16.026-21.812 22.497-2.1 2.142-6.427 5.656-9.041 7.113-.986.557-2.186-1.029-1.329-1.928 5.786-5.957 15.255-15.041 17.313-17.227 5.913-6.299 13.24-14.312 18.896-21.167 5.1-6.257 8.956-13.07 9.428-25.154.086-1.671.128-3.256.172-4.627m-9.195-21.482c.3.214.6.557.815 1.028 2.871 6.171 2.57 14.012-.515 19.926-3.471 6.599-6.685 11.184-10.241 16.155a324 324 0 0 1-6.471 7.07c-4.199 4.542-8.914 9.47-12.984 13.284-5.699 5.356-11.527 10.541-17.482 15.425-1.715 1.415-2.23-1.199-1.415-1.97 2.872-2.872 9.214-8.271 12.513-11.742 8.184-8.698 15.468-15.725 21.896-24.724 4.285-5.957 7.97-10.927 11.998-18.597 2.444-4.671 3.128-10.541 1.886-15.855M260.423 374.144c.3 7.027-4.499 9.17-2.014 21.168 1.586 7.542 2.529 11.655 6.771 24.168.129-.043.3-.129.429-.172-2.786-8.613-3.686-12.512-5.014-18.897-2.656-12.812 3-14.355 1.885-22.667-.128-.944-.856-2.143-2.057-3.6m-91.739 28.434c4.327 1.672 8.355 3.043 11.397 3.856 1.972.472 7.929 1.457 8.871 1.285 1.157-.171 1.414-.985.3-1.285-2.528-.771-8.87-2.785-13.755-4.842-6.685-2.828-14.312-6.556-20.354-10.283-8.742-5.4-13.97-10.927-16.927-15.77a14 14 0 0 1-.771-1.243c.471 2.229 1.542 4.071 2.957 6.342 2.956 4.843 8.184 10.37 16.926 15.769 3.428 2.1 7.37 4.242 11.356 6.171m-8.061 12.283a26 26 0 0 1-2.399-1.928c-2.785-2.571-4.114-5.185-4.671-7.928a21 21 0 0 0 2.486 2.829c3.171 2.956 6.342 4.499 17.74 8.527 3.128 1.23 8.171 1.925 7.838 2.779-.319.478-.607.784-2.272.816-4.799-.3-8.652-1.495-13.365-2.824-1.243-.343-3.599-1.543-5.357-2.271m7.268 16.061c-2.014-1.543-3.856-3.256-5.87-5.228-.986-.942-1.929-3.256-1.885-4.798 3.985 3.856 7.413 6.898 12.983 9.126 3.085 1.2 11.056 3.214 15.684 4.243.942.214.386 1.371-.472 1.242-7.756-1.028-15.383-2.314-19.882-4.414-.215-.085-.429-.128-.558-.171m18.414 21.11a82 82 0 0 1-3.513-.342c-2.486-.343-7.586-6.385-10.67-9.985-1.329-1.585-3.085-4.842-2.529-5.57.129.171.257.343.343.471 3.085 3.6 8.185 9.642 10.669 9.984 2.358.3 12.428 1.029 16.842 1.286 1.885.086 5.399 2.571 3.556 2.442-5.185-.385-16.298-1.042-16.298-.057 0 .557.572 1.086 1.6 1.771m18.172 10.002c-2.314-.214-4.842-.557-6.813-.986-2.143-.471-10.885-3.813-10.885-5.785 0-.471 2.272-.557 5.228-.471 1.457.557 2.785.986 3.472 1.157 4.67 1.028 12.297 1.457 12.983 1.457-1.371 1.671-2.743 3.171-3.985 4.628m-3.927 32.312c-.299-1.071-.342-2.056-.342-3.685-2.271-1.671-3.857-3.085-5.014-4.799.086.514.257 1.028.471 1.586 1.071 2.999 2.443 4.884 4.885 6.898m-40.467-189.729c.987.086 1.2-1.757.558-2.4-2.871-2.87-9.256-8.998-12.512-12.469-8.228-8.613-15.127-16.455-21.941-25.11-4.328-5.443-7.027-9.813-10.669-16.712q.578 1.993 1.542 3.856c3.985 7.628 6.77 12.17 11.313 17.954 6.813 8.657 13.712 16.498 21.94 25.111 2.442 2.571 6.599 6.685 9.769 9.77" style="stroke:none;fill:#1f211d"/><path d="M333.451 379.163c.428 5.48 4.495 8.862 2.954 15.156-1.798 7.235-6.85 23.205-7.321 25.303-4.024-1.627-6.165-2.141-9.676-3.426-6.123-2.311-15.028-2.697-21.579-2.739-11.602-.043-22.52 2.568-32.453 6.165-4.238-12.502-5.181-16.612-6.765-24.147-2.654-12.802 2.997-14.343 1.884-22.649-.685-5.095-20.337-19.609-30.998-29.884-25.902-24.96-26.074-28.856-40.931-42.043-4.11-3.682-9.975-7.45-14.471-10.661-7.921-5.694-17.382-13.486-23.762-20.636-9.248-10.404-20.636-25.645-26.074-33.737-1.37-2.012-4.752-8.691-7.321-9.591-.856-.299-1.883.043-2.355 1.328-2.397 6.336-2.483 13.443.6 19.352 3.982 7.62 6.765 12.158 11.303 17.938 6.808 8.649 13.7 16.484 21.921 25.089 3.254 3.468 9.633 9.591 12.502 12.459.77.814.299 3.425-1.413 1.97-11.003-9.034-20.894-18.71-30.827-29.499-8.306-9.076-15.242-18.239-23.205-27.657-1.027-1.199-1.841 3.681-1.371 11.045.429 12.074 3.897 18.239 8.992 24.489 5.608 6.851 12.973 14.857 18.881 21.194 2.055 2.14 11.389 11.431 17.125 17.339.9.942-.299 2.526-1.155 1.798-7.707-6.508-19.181-17.639-27.402-26.287-6.379-6.765-16.825-19.395-17.596-20.551-.728-1.07-2.911-3.896-3.297-1.113-.6 3.982 2.312 19.823 9.547 29.798 6.68 9.163 12.074 14.985 22.35 23.976 5.094 4.453 18.367 16.098 30.74 25.902 3.725 2.954 8.435 6.808 12.674 10.19 1.584 1.242 2.226 2.869.043 2.226-.6-.171-5.095-1.969-7.193-3.297-13.358-8.477-28.6-20.85-41.958-32.495-.343-.257-1.285-.428-1.371.214-.642 3.554 2.612 8.991 4.453 12.116 1.713 3.083 4.368 6.551 7.022 9.248 6.807 6.979 15.113 12.93 22.777 18.795 7.193 5.48 16.398 11.817 17.597 13.016 1.584 1.584 2.055 3.126-.642 1.798-6.636-3.212-14.9-7.621-20.808-11.047-6.637-3.852-12.202-7.149-18.796-11.045-.556-.342-.813 1.199-.813 1.627-.086 3.854 1.198 6.251 3.254 9.504 2.954 4.838 8.177 10.362 16.911 15.756 6.037 3.725 13.658 7.45 20.338 10.276 4.88 2.055 11.216 4.067 13.743 4.838 1.113.299.856 1.113-.3 1.284-.942.171-6.893-.814-8.862-1.284-6.423-1.67-17.341-6.123-26.117-9.762-.771-.342-2.826-.942-2.826.214 0 3.81 1.113 7.407 4.924 10.96 3.168 2.954 6.336 4.496 17.725 8.52 1.156.428 5.694 1.627 6.422 1.841 2.269.643.642 1.756-.984 1.627-4.796-.299-8.521-1.37-13.231-2.697-1.498-.428-4.666-2.097-6.379-2.655-2.911-.984-1.498 4.496.214 6.123 4.111 3.981 7.535 7.149 13.272 9.418 3.083 1.199 11.047 3.211 15.671 4.239.942.215.385 1.371-.472 1.242-7.749-1.027-15.369-2.312-19.865-4.41-2.569-1.156-.214 3.51 1.499 5.523 3.082 3.596 8.177 9.633 10.66 9.975 2.355.3 12.416 1.028 16.826 1.285 1.884.085 5.395 2.569 3.554 2.44-5.18-.384-16.398-1.155-16.398-.171 0 1.97 8.734 5.309 10.875 5.78 4.667 1.028 12.287 1.456 12.972 1.456-9.932 11.859-17.767 18.453-14.984 24.918 1.327 3.724 3.083 5.651 6.722 8.305 0 2.697.085 3.639 1.369 6.037 2.527 4.795 8.178 5.737 13.401 5.951.6-5.737 3.982-9.547 9.077-9.975 12.031-1.029 25.432-2.569 38.02-3.682.813-.043 7.492.899 8.263.856l-.172-2.955c5.738-.042 14.985 1.328 16.57 1.328l-2.398-3.082c6.037-.558 9.504-.386 16.783-.515l-3.81-3.595c6.678-2.613 9.548-3.983 12.03-4.625 9.377 3.682 19.01 8.22 25.989 11.988 1.584.856 4.239 1.113 3.553 5.01-.77 4.623-1.455 8.477-3.124 13.229-2.57 7.406-10.79 20.036-14.172 20.165-2.997.129-8.606.385-11.86.643-1.97.17-3.897.042-5.951 1.841-1.798 1.626-5.181 5.822-4.41 6.379l5.052 4.153 2.012-2.441c-1.456-1.242-1.113-2.526.043-2.868 3.853-1.199 7.45-2.141 11.389-2.441.898-.129 2.441.043 3.296.086 1.756.129.342 1.113-.428 1.412-3.297.9-6.079 1.2-6.38 3.768-.47 1.499.429 2.912 1.328 4.11.514.728 1.927 2.184 2.955 3.212.727.685 1.369 1.627 1.84 1.326l1.584-.984c0-1.627-.385-4.153-.214-4.367 4.41-6.165 7.022-4.196 9.633-1.584.386.385.9 2.783.771 3.125-.642 1.841-2.14 3.169-2.953 4.71l1.027.385c.213.086 3.467-.642 5.137-1.498 1.67-.771 2.997-1.457 3.254-2.954 1.884-10.661-4.838-9.891-5.823-14.215-1.027-4.324 4.624-5.951 7.58-4.11 2.354 1.499 6.036 5.566 7.448 8.092l2.698-6.08c1.413.814 4.024 2.312 5.437 3.168 7.321 4.667 4.282.814 22.52 7.793 4.795 1.841 14.258 4.324 14.601 4.024 2.697-2.355 6.936-6.636 7.15-6.593 8.777 1.327 16.012 1.927 24.018 2.141 2.055.042 4.11-.214 6.166-.472.77-.042 2.397-.727 2.097-1.541-.984-2.312-5.351-3.767-8.048-4.966-.686-.3-1.028-1.456-.429-1.498 8.093-.857 11.517-1.328 16.055-3.468 2.997-1.413 4.924-2.997 6.766-5.823.641-1.027 2.012-3.211 1.926-5.052-.043-1.37-5.352-.215-6.379-.043-3.553.514-6.594 1.327-11.132 1.713-1.927.214-1.199-1.842 0-2.098 8.521-1.756 17.04-3.768 24.019-10.575 1.627-1.585 4.752-6.422 1.669-6.165-6.336.513-11.945 2.354-17.725 2.397-1.883 0-1.327-1.498-.813-1.755.899-.429 3.938-1.199 4.838-1.542 6.721-2.825 11.217-5.865 16.398-11.002 4.196-4.24 4.924-17.855.771-16.741-2.997.813-18.367 5.523-27.616 6.807-16.869 2.398-29.242.985-38.876-1.84-2.697-.814-6.208-1.884-8.991-2.655-1.284-.385-2.825-1.627-1.67-1.884 2.013-.556 5.739-1.542 9.334-3.382 1.199-.599 2.826-1.413 3.125-2.784.386-1.84-6.122-1.711-10.19-2.097-2.225-.171-2.397-1.498-1.412-1.67 5.309-.899 18.154-1.284 22.863-1.969 2.013-.3 7.877-5.138 7.621-7.107-.172-1.156-15.67-.172-20.894.214-1.798.128.772-1.927 2.655-2.141 6.851-.77 17.254-.77 19.566-2.269 3.425-2.226 6.208-6.165 8.306-8.649 1.713-2.012 3.468-6.55.857-5.522-4.496 1.798-11.304 3.21-19.053 4.239-.813.085-1.755-1.114-.813-1.285 4.795-.899 10.874-2.569 14-3.725 5.48-2.012 10.617-4.967 14.728-9.119 1.884-1.884 3.725-7.321.813-6.337-6.293 2.141-12.63 3.982-19.223 4.71-1.626.171-3.339-1.113-1.07-1.756.728-.214 1.97-.556 3.125-.941 11.389-4.025 16.527-5.566 19.823-8.606 3.768-3.511 5.48-7.964 5.48-11.816 0-1.156-2.397-.385-3.168-.043-8.82 3.639-19.952 8.135-26.331 9.805-1.97.513-6.636 1.326-7.278 1.326-1.199-.043-2.055-.471-1.157-1.028 2.355-1.412 7.793-2.997 9.164-3.51 7.792-2.912 19.95-9.163 24.617-11.816 6.423-3.683 14.386-10.832 16.869-14.9 2.013-3.382 3.254-5.694 3.596-10.19.043-.47.043-2.911-.513-2.569-6.593 3.94-13.016 8.307-19.651 12.16-5.909 3.468-12.204 7.235-18.839 10.447-2.697 1.327-4.325.256-2.74-1.328 1.199-1.198 11.517-7.921 18.71-13.401 2.354-1.797 4.88-3.553 7.193-5.694 8.948-8.22 14.813-9.676 21.363-21.706 1.756-3.211 5.695-9.291 4.582-12.588-.214-.642-.857-.085-1.199.214-5.565 4.838-9.033 8.007-14.942 12.502-.172.085-2.355 1.97-2.483 2.055-8.35 6.507-16.827 12.844-25.732 18.453-2.012 1.241-4.325 2.098-4.881 2.397-2.055 1.028-2.911-.77-1.24-1.884 4.965-3.339 7.877-5.565 11.559-8.648 12.116-10.061 25.945-22.648 31.04-27.101 10.276-8.991 16.484-15.541 23.163-24.746 7.235-9.933 10.147-25.774 9.548-29.756-.428-2.826-2.655-.043-3.297 1.07-1.669 2.783-7.151 9.42-14.172 17.255-6.037 6.806-15.414 16.012-21.792 22.477-2.098 2.14-6.423 5.652-9.034 7.107-.985.556-2.184-1.028-1.328-1.927 5.781-5.951 15.243-15.027 17.298-17.211 5.908-6.294 13.229-14.3 18.88-21.15 5.096-6.251 8.948-13.059 9.42-25.132.428-7.364-.043-12.373-1.028-11.089-7.749 10.447-15.584 19.78-24.362 29.157-4.195 4.538-8.904 9.462-12.972 13.272-5.694 5.352-11.517 10.532-17.469 15.413-1.712 1.412-2.225-1.199-1.413-1.97 2.869-2.868 9.206-8.263 12.503-11.731 8.178-8.691 15.456-15.712 21.877-24.703 4.283-5.952 7.965-10.918 11.989-18.581 3.082-5.908 3.382-13.743.514-19.908-.685-1.414-1.755-1.542-2.569-1.242-2.569.899-5.738 7.92-7.107 9.933-5.438 8.091-17.469 22.733-26.417 33.437-6.208 7.364-15.456 15.327-23.419 20.979-4.496 3.211-11.347 5.266-16.399 12.031-16.141 21.92-22.863 27.615-39.517 41.015-10.576 8.52-26.374 19.267-29.886 27.957-.726 1.799-1.454 5.652-1.326 7.365" style="stroke:none;fill:#c9cccd"/><path d="m236.767 450.621 14.398-2.357-.986 9.513 25.489 8.385-40.552 18.289-23.098 2.927-.522-5.435c-.954-9.922 10.033-24.092 12.437-25.188z" style="stroke:none;fill:#1f211d"/><path d="M217.417 473.842c2.272-3.085 2.658-3.256 4.2-5.527l.729.085c.214 1.671.428 3.386.728 5.142z" style="stroke:none;fill:#f6f7f7"/><path d="m215.266 478.358.5-1.713 10.676-.867q-1.093-4.564-2.186-8.999c3.771 0 4.928 1.629 6.128 4.628-.6 1.758-1.5 3.472-2.657 4.928-1.099 1.384-2.839 2.006-4.561 2.026z" style="stroke:none;fill:#f6f7f7"/></svg>