<svg xmlns="http://www.w3.org/2000/svg" xml:space="preserve" width="398" height="500" style="shape-rendering:geometricPrecision;text-rendering:geometricPrecision;image-rendering:optimizeQuality;fill-rule:evenodd;clip-rule:evenodd" viewBox="0 0 39800 50000"><defs><style>.fil0{fill:#000}.fil2{fill:#064f81}.fil1{fill:#ffed00}</style></defs><g id="Ebene_x0020_1"><g id="_2222580534256"><path d="M37498 24763c-519-1700-1275-2704-2622-3779-118-295-307-555-460-839-815-1476-2363-2374-3792-3248-307-283-637-555-968-815-921-756-2043-1157-3118-1665v-2918H13250v2918c-1086 508-2196 909-3118 1665-330 272-661 543-968 815-1429 874-2977 1772-3792 3248-165 284-342 555-460 839-1347 1075-2114 2079-2622 3779H-13v14185h2310c248 390 595 697 914 1016 803 1961 1949 3744 3957 4736 1098 1595 2574 3095 4689 3461 1039 779 2267 1299 3543 1642 1134 236 2156 80 2664-121 489 573 1030 252 1671-151 640 403 1181 724 1670 150v1c508 201 1542 357 2664 121 1276-331 2492-863 3544-1642 2126-366 3590-1866 4689-3461 2007-992 3153-2775 3956-4736 319-319 666-626 914-1016h2641V24763zM19735 45019c842-530 1373-746 1878 154 354-284 815-496 1204-614 178-71 378-119 555-189 685-178 1489-390 2244-532 662-177 1028-354 1583-626 874-1181 1866-2232 3095-3035 248-496 600-863 1025-1229H8150c425 366 778 733 1026 1229 1228 803 2220 1854 3094 3035 555 272 921 449 1583 626 744 142 1559 354 2244 532 165 70 366 118 555 189 390 118 850 330 1205 614 486-866 989-713 1878-154m6803-25039c496 354 1004 744 1547 1098 331 851 779 1725 1713 2103l236 118c260 543 697 1051 1110 1476h-4606zm-13288 0c-496 354-1004 744-1547 1098-331 851-779 1725-1712 2103l-237 118c-260 543-697 1051-1110 1476h4606z" class="fil0"/><path d="M376 25118h12874v413H790v12602h38185V25531H26538v-413h12850v13441H376z" class="fil1"/><path d="M790 25531h12460l6638 2067 6650-2067h12437v12602H790z" class="fil2"/><path d="M2987 39409c59-47-24-95 35-165 47-107 177-59 248-48 661 237 1240 579 1819 969v-47l-307-485c-24-71 23-130 71-165h82c237 177 426 413 674 543-95-307-272-614-437-862l-201-201H2615c63 140 257 356 372 461m7051-7099c-201 638-603 981-1110 1252l1795 2741-2729-272c-519-850-1157-1913-1866-2563-106-106-224-201-354-248v2433l-2244-201 12-8468c1653 130 4252 697 5787 2267 650 638 1099 1973 709 3059m24543-4606c437 95 744 260 1122 461 83 35 579 401 768 638 153 189 153 212 236 318 142 189 284 497 343 626 59 154 129 355 189 615 153 673 129 1441 59 1901-83 496-237 910-579 1429-307 473-910 1063-1394 1347-484 283-992 520-1772 685-980 130-1972 307-2964 413v-8197c945-118 2492-330 2835-342 342-12 944 71 1157 118zm-5492 8575-2398 307-12-8256 2410-236zm-15366-7972c531 82 1051 153 1571 307 59 11 94 47 165 59h12c862 307 1760 756 2279 1571 319 413 567 1169 567 1689v5161l-2362-260v-1630l-1949-366c-23 591-12 1181-12 1760l-2551-236v-8233c780 12 1548 71 2280 166zm11905 1866c225 519 260 850 272 1299s-118 838-201 1075c-83 236-307 555-437 697-283 330-708 602-1193 815-484 212-1346 413-2055 496v2456l-2256 189-12-8067c839-224 1760-354 2493-366 744-12 1228 12 1925 225 590 177 1204 578 1464 1181" class="fil1"/><path d="M6258 27716c1524 496 3378 1465 3673 3248 130 803-59 1535-637 2114-178 177-449 307-685 390 94 177 212 319 319 496 153 224 1346 1961 1429 2126l-2233-248c-531-886-1122-1902-1854-2575-177-142-437-354-685-342v2515l-1843-153 12-8091c1205 142 2150 402 2504 508zm29740 909c71 59 130 119 213 201 874 957 1028 2114 886 3319-71 508-236 969-520 1358-638 993-1854 1831-3260 2032-838 118-1677 236-2516 354h-35l-12-7771c839-142 1725-237 2611-331 578-12 1086 59 1547 212 390 142 756 343 1086 615zm-7086 7489-2044 259v-7854l2044-224zm-11008-5126c142 271 201 578 201 838l12 5044c-662-60-1323-119-1985-213v-1583l-2303-437-24 1784-2161-236v-7843c2126 71 5280 213 6260 2634zm7606-485c272 933 248 2056-626 2788-945 779-2586 1039-3071 1039v2492h-11l-1878 154c-12-1040-12-2043-12-2977v-4700l12-36c1074-236 2196-378 3319-283 933 118 1972 567 2267 1523" style="fill:#e3000f"/><path d="M8113 30657c177 437 141 815-48 1181-141 189-354 331-614 354-720 36-1275-330-1842-614v-2327c23 0 626 107 1015 225 591 212 1229 567 1489 1169zm7854 2598c-732-94-1465-189-2185-319v-2350h106c366-12 827 59 1217 224 354 154 661 414 779 733 95 236 130 484 154 708 23 355-24 662-71 1004m7866-2256c130 319 189 792-35 1075-390 496-1052 579-1701 638h-260v-1972c130-48 331-107 461-142 519-142 1240-154 1535 401m11445 1170c-307 1122-1323 1512-2232 1547l-307-12 11-3968h12c756-307 1819-319 2268 413 401 591 413 1240 248 2020" class="fil1"/><path d="M23680 31106c106 271 153 626-36 886-354 389-874 507-1417 543h-213v-1642c118-47 272-83 390-118 437-118 1028-130 1287 331zm11232-780c307 591 295 1158 177 1784-213 826-1051 1334-1937 1393h-213l12-3637c673-248 1559-201 1961 460m-19122 2705-1796-260v-1961h60c649 24 1370 260 1594 745 224 472 213 921 142 1476m-7878-2327c141 355 106 697-47 992-119 166-296 272-508 296-591 23-1052-319-1524-556v-1925c260 12 591 130 850 201 378 177 1016 508 1217 980z" class="fil2"/><path d="M13156 14736c-1169 484-2362 1027-3319 1889-83 438-272 898-354 1312 578-638 1405-1016 2078-1583 59-12 154 12 154 83l-12 118c-791 673-1488 1275-2185 1972 768-390 1583-732 2386-1075 24-23 83-12 130-47 307-142 661-272 945-484l271-355v-1866l-94 24zm-7583 5551-189 366c142-71 272-153 402-236 71-12 118 59 153 83 48 295 36 637-47 921l24 23c319-649 637-1299 1204-1795 107-59 225-212 343-94 59 59 35 118 12 177-496 815-1040 1642-1536 2433l12 24c532-343 1075-591 1583-945 224-839 555-1689 1299-2244 248-638 472-1300 661-1973l-23-12c-1441 874-3036 1784-3886 3272zm5362-24c355-189 768-437 1063-720 331-414 567-839 945-1205 71-12 177-35 189 47l-12 130-980 1276c-83 295-153 579-272 838l24 12c473-307 921-661 1347-992v-2504c-1087 803-1619 2008-2315 3130zm-637-1819c-733 402-1619 792-2020 1548-165 307-319 661-413 1027 826-543 1523-1157 2244-1783 70-12 141 12 153 71v118c-803 815-1571 1582-2126 2622l12 23c437-437 957-767 1429-1133l673-308c922-885 1276-2185 2150-3094-673 272-1406 579-2114 898z" class="fil1"/><path d="M11715 20086c-650 473-1382 815-2114 1146-638 508-1500 1016-1772 1783 248-177 508-354 791-460l674-272 578-390c71-35 130 12 166 59 59 142-71 189-154 260-708 449-1393 945-2102 1441 791-201 1594-425 2315-815 862-437 1441-1831 1701-2775l-83 35zm-8628 4666c153-331 230-709 549-957 142-24 142 106 142 189-154 236-307 496-366 768h673c283-721 697-1441 1169-2008 201-603 449-1311 437-1961-1571 898-2645 2280-3118 3969zm2722-2150c-637 579-1122 1370-1452 2173h673c236-342 449-720 709-1004 248-366 507-685 862-980 59-59 153-71 224-59 177 106 0 260-59 354-390 567-768 1146-1146 1689h910c201-425 626-697 744-1169 331-1004 673-1961 1358-2776l-12-23c-874 708-1913 1145-2811 1795m1607 1429c-225 213-414 484-579 744h154c153-189 354-413 590-520 71-23 154 48 154 107 0 177-154 271-213 413h744c402-390 815-815 1110-1299v-36c-649 225-1287 437-1960 591m19216-9295c1169 484 2362 1027 3319 1889 83 438 272 898 354 1312-578-638-1405-1016-2078-1583-59-12-154 12-154 83l12 118c791 673 1488 1275 2185 1972-768-390-1583-732-2386-1075-23-23-83-12-130-47-307-142-661-272-945-484l-271-355v-1866l94 24zm7583 5551 189 366c-142-71-272-153-402-236-71-12-118 59-153 83-47 295-36 637 47 921l-24 23c-319-649-637-1299-1204-1795-107-59-225-212-343-94-59 59-35 118-12 177 496 815 1040 1642 1536 2433l-12 24c-532-343-1075-591-1583-945-224-839-555-1689-1299-2244-248-638-472-1300-661-1973l23-12c1441 874 3036 1784 3886 3272zm-5374-24c-354-189-768-437-1063-720-331-414-567-839-945-1205-71-12-177-35-189 47l12 130 980 1276c83 295 154 579 272 838l-24 12c-472-307-921-661-1346-992v-2504c1086 803 1618 2008 2315 3130zm649-1819c733 402 1619 792 2020 1548 166 307 319 661 414 1027-827-543-1524-1157-2245-1783-70-12-141 12-153 71v118c803 815 1571 1582 2126 2622l-12 23c-437-437-957-767-1429-1133l-673-308c-922-885-1276-2185-2150-3094 673 272 1406 579 2114 898z" class="fil1"/><path d="M28073 20086c650 473 1382 815 2114 1146 638 508 1500 1016 1772 1783-248-177-508-354-791-460l-674-272-578-390c-71-35-130 12-166 59-59 142 71 189 154 260 709 449 1394 945 2102 1441-791-201-1594-425-2315-815-862-437-1441-1831-1701-2775l83 35zm8629 4666c-154-331-231-709-550-957-142-24-142 106-142 189 154 236 307 496 366 768h-673c-283-721-697-1441-1169-2008-201-603-449-1311-437-1961 1571 898 2645 2280 3118 3969zm-2723-2150c637 579 1122 1370 1452 2173h-673c-236-342-449-720-708-1004-248-366-508-685-863-980-59-59-153-71-224-59-177 106 0 260 59 354 390 567 768 1146 1146 1689h-910c-201-425-626-697-744-1169-331-1004-673-1961-1358-2776l12-23c874 708 1913 1145 2811 1795m-1607 1429c225 213 414 484 579 744h-153c-154-189-355-413-591-520-71-23-154 48-154 107 0 177 154 271 213 413h-744c-402-390-815-815-1110-1299v-36c649 225 1287 437 1960 591M5322 38948c36 59 111 83 170 118 401 130 850 142 1240 308 555 188 1086 555 1547 897-201-319-579-555-909-791-36-36-24-95 11-130 118-142 248 24 355 47 295 130 578 295 862 437-95-177-225-272-366-425-177-165-390-331-579-461zm31114 485c-59-48 24-95-35-166-47-106-177-59-248-47-661 236-1240 579-1819 968v-47l307-484c24-71-23-130-71-165h-82c-237 177-426 413-674 543 95-307 272-614 437-862l201-201h2356c-63 140-257 355-372 461m-2335-461c-36 59-111 83-170 118-401 130-850 142-1240 307-555 189-1086 555-1547 898 201-319 579-555 909-792 36-35 24-94-11-129-118-142-248 23-355 47-295 130-578 295-862 437 95-177 225-272 366-425 177-166 390-331 579-461z" class="fil1"/><path d="M33825 39397c-23 106-106 225-142 331-484 1346-756 2917-1972 3838-626 496-1276 886-2032 1158l24-71c661-1216 1524-2291 2634-3201 12-71-12-165-83-189l-106 24c-673 579-1382 1252-2138 1760h-12c544-614 662-1370 827-2138 803-768 1819-1429 3000-1524zm-28193 0c24 106 107 225 142 331 484 1346 756 2917 1972 3838 626 496 1276 886 2032 1158l-24-71c-661-1216-1523-2291-2634-3201-11-71 12-165 83-189l106 24c674 579 1382 1252 2138 1760h12c-543-614-661-1370-827-2138-803-768-1819-1429-3000-1524z" class="fil1"/><path d="M36093 39716c-673 1736-1701 3472-3402 4488 59-177 201-319 307-508 343-519 650-1063 1146-1535 83-154 354-307 295-520-35-59-106-59-165-35-413 283-626 673-921 1039-520 532-1099 1028-1748 1382 945-673 1606-1736 1889-2846 804-674 1666-1264 2634-1666 48 71-35 142-35 201m-32717 0c674 1736 1701 3472 3402 4488-59-177-201-319-307-508-343-519-650-1063-1146-1535-83-154-354-307-295-520 35-59 106-59 165-35 414 283 626 673 921 1039 520 532 1099 1028 1749 1382-945-673-1607-1736-1890-2846-803-674-1666-1264-2634-1666-47 71 35 142 35 201m27532 425c-555 709-343 1654-862 2386-284 437-709 827-1111 1122-602 260-1228 449-1842 638 543-555 1169-1039 1535-1748 24-71-71-106-106-142l-95 36c-377 555-850 1039-1358 1500v-48c1016-1535 2209-2823 3827-3779v35zm-22358 0c555 709 342 1654 862 2386 283 437 708 827 1110 1122 602 260 1228 449 1843 638-544-555-1170-1039-1536-1748-24-71 71-106 106-142l95 36c378 555 850 1039 1358 1500v-48c-1016-1535-2209-2823-3827-3779v35zm21779 3036c-449 637-839 1334-1216 2031-201 248-426 449-650 709-1004 779-2244 1157-3473 1464 792-708 1737-1133 2634-1618 24-47 24-141-23-177-48-59-142-35-189 0-898 496-1843 921-2941 886-36-71 71-95 118-130 673-307 1275-803 1712-1405 1158-638 2540-815 3638-1536 130-59 248-177 378-236zm-21201 0c449 637 839 1334 1217 2031 201 248 425 449 649 709 1004 779 2245 1157 3473 1464-791-708-1736-1133-2634-1618-24-47-24-141 24-177 47-59 141-35 189 0 897 496 1842 921 2941 886 35-71-71-95-119-130-673-307-1275-803-1712-1405-1158-638-2540-815-3638-1536-130-59-248-177-378-236z" class="fil1"/><path d="M32774 43519c-1134 1807-2504 3744-4784 4311-626 166-1252 177-1889 154 933-189 1878-390 2693-862 153-119 354-272 342-461-35-71-106-83-189-71-732 921-3366 1110-4429 1205 413-130 839-236 1264-343 1205-401 2527-803 3319-1842 697-520 1571-768 2315-1181 484-272 921-567 1346-922h24zm-26091 0c1134 1807 2504 3744 4784 4311 626 166 1252 177 1890 154-933-189-1878-390-2693-862-154-119-355-272-343-461 36-71 107-83 189-71 732 921 3366 1110 4429 1205-413-130-838-236-1263-343-1205-401-2528-803-3319-1842-697-520-1571-768-2315-1181-485-272-922-567-1347-922h-23zm20221 166c-532 696-1028 1606-1819 2126-319 200-685 377-1039 531-307 165-662-35-1016-47-520-83-992-59-1524-12l118-201c733-413 1500-921 2363-1122 70-12 141-71 153-130 12-71-47-118-83-153-838 189-1665 366-2326 945h-24l-24-154c567-555 1335-685 2056-921 1086-236 2173-402 3141-874zm-14339 0c532 696 1028 1606 1819 2126 319 200 685 377 1040 531 307 165 661-35 1015-47 520-83 992-59 1524-12l-118-201c-732-413-1500-921-2362-1122-71-12-142-71-154-130-12-71 47-118 83-153 838 189 1665 366 2327 945h23l24-154c-567-555-1335-685-2055-921-1087-236-2174-402-3142-874zm12603 3035 307-47c-425 295-756 649-1252 838-969 260-2150 437-3177 189-83-35-142-94-201-165 449-35 874-71 1346-59 189 0 331-71 508-106 47-36 59-107 36-166l-71-71c-437 71-874 24-1299-11-237 0-496 47-709 70 213-189 425-366 638-590 767-201 1571-130 2326 23 508 107 1028 142 1559 83zm-10866 0-308-47c426 295 756 649 1252 838 969 260 2150 437 3178 189 82-35 141-94 200-165-448-35-874-71-1346-59-189 0-331-71-508-106-47-36-59-107-35-166l70-71c438 71 875 24 1300-11 236 0 496 47 708 70-212-189-425-366-637-590-768-201-1571-130-2327 23-508 107-1028 142-1559 83zm8137 1358 107 83c1452 165 2976 83 4488 94-709 473-1536 851-2327 1122-933 319-2173 497-3130 83 71-189 142-413 130-638 130 24 225 142 366 178 484 212 1040 118 1583 106 130-36 307-12 366-154-12-71-47-141-106-153l-130 12-555 47c-532-59-969-284-1465-437l-272-177-129-201 23-12c343 47 685 59 1051 47m-5409 0-106 83c-1453 165-2977 83-4489 94 709 473 1536 851 2327 1122 933 319 2173 497 3130 83-71-189-142-413-130-638-130 24-224 142-366 178-484 212-1039 118-1583 106-130-36-307-12-366-154 12-71 47-141 107-153l129 12 556 47c531-59 968-284 1464-437l272-177 130-201-24-12c-342 47-685 59-1051 47" class="fil1"/><path d="m19888 6314-2681 1949 1028-3153-2681-1949h3318L19888 7l1028 3154h3319l-2681 1949 1015 3153zm13854 3886-2692 1949 1027-3153-2681-1949h3319l1027-3154 1016 3154h3319l-2681 1949 1028 3153zm-27696 0-2681 1949 1027-3153-2681-1949h3319l1016-3154 1027 3154h3319L7711 8996l1016 3153z" class="fil0"/><path d="m22038 7531-2150-1571-2149 1571 826-2528-2149-1570h2657l815-2528 827 2528h2657l-2149 1570zm13854 3886-2150-1559-2161 1559 827-2528-2150-1559h2658l826-2527 815 2527h2658l-2150 1559zm-27697 0L6046 9858l-2150 1559 827-2528-2150-1559h2658l815-2527 826 2527h2658L7380 8889z" class="fil1"/><path d="M14148 12362h11480v12448l-5728 1831-5752-1831z" style="fill:#fff"/><path d="M13569 11807h12638v13429l-6319 1960-6331-1960V11807zm402 389h11834v12733l-5917 1878-5917-1878z" class="fil1"/><path d="m14148 15586 3095-3224h-3095zm11480-3224L14172 24810h-24v-4700l7169-7748zm-8031 13547 8031-8787v4299l-4169 4724-1559 496z" style="fill:#00794c"/></g></g></svg>