<svg xmlns="http://www.w3.org/2000/svg" viewBox="0 0 439.14 454.06"><defs><clipPath id="clippath"><path d="M0 0h439.14v454.05H0z" class="cls-3"/></clipPath><clipPath id="clippath-1"><path d="M0 0h439.14v454.05H0z" class="cls-3"/></clipPath><style>.cls-1{fill:#003a6f}.cls-2{fill:#fff}.cls-3{fill:none}.cls-6{fill:#d4a251}</style></defs><g style="clip-path:url(#clippath)"><g style="clip-path:url(#clippath-1)"><path d="M39.09 351.67C14.46 316.23 0 273.27 0 227.03c0-57.34 22.24-109.65 58.52-148.8L52.86 73C94.43 28.15 153.81 0 219.57 0s125.14 28.15 166.71 73l-5.66 5.23c36.28 39.15 58.52 91.46 58.52 148.8 0 46.24-14.46 89.21-39.09 124.64l6.35 4.38c-41.1 59.15-109.56 98.01-186.83 98.01S73.85 415.2 32.75 356.05z" class="cls-1"/><path d="m393.71 347.29 6.34 4.38c-39.71 57.14-105.84 94.69-180.49 94.69S78.78 408.81 39.08 351.67l6.34-4.38C21.66 313.1 7.71 271.65 7.71 227.03c0-55.33 21.45-105.8 56.46-143.57l-5.66-5.23C98.68 34.9 156.04 7.71 219.57 7.71s120.89 27.2 161.05 70.52l-5.66 5.23c35.01 37.77 56.46 88.25 56.46 143.57 0 44.61-13.96 86.07-37.71 120.26" class="cls-6"/><path d="m329.68 125.29-5.66 5.23c23.53 25.4 37.96 59.32 37.96 96.52 0 29.99-9.39 57.86-25.35 80.84l6.34 4.38a151.7 151.7 0 0 1-25.93 28.67l-57.7-164.99 28.74-82.27a151.2 151.2 0 0 1 41.61 31.63m-54.38-37.48H163.83c17.25-6.93 36.06-10.75 55.74-10.75s38.49 3.82 55.74 10.75M155.1 91.66 121.96 340.8a151.5 151.5 0 0 1-25.79-28.55l6.34-4.38c-15.97-22.99-25.35-50.85-25.35-80.84 0-37.19 14.42-71.12 37.96-96.52l-5.66-5.23a151.2 151.2 0 0 1 45.64-33.63m-25.3 255.43h47.6l2.58-5.76 2.58 5.76h70.95l2.57-5.76 2.58 5.76h50.68c-25.07 18.76-56.16 29.9-89.77 29.9s-64.71-11.14-89.77-29.9m199.89-221.79 5.66-5.23c-28.87-31.14-70.1-50.69-115.77-50.69s-86.9 19.55-115.77 50.69l5.66 5.23c-24.81 26.77-40.02 62.53-40.02 101.74 0 31.61 9.89 60.99 26.73 85.22l-6.34 4.38c28.54 41.08 76.09 68.07 129.75 68.07s101.2-26.99 129.74-68.07l-6.34-4.38c16.84-24.23 26.73-53.6 26.73-85.22 0-39.21-15.2-74.97-40.01-101.74" class="cls-1"/><path d="m387.37 342.91 6.34 4.38c-38.31 55.13-102.12 91.36-174.14 91.36S83.74 402.43 45.43 347.29l6.34-4.38c-22.89-32.94-36.34-72.89-36.34-115.88 0-53.31 20.67-101.94 54.41-138.34l-5.66-5.23c38.75-41.81 94.09-68.04 155.39-68.04s116.64 26.24 155.39 68.04l-5.66 5.23c33.74 36.4 54.41 85.03 54.41 138.34 0 42.99-13.45 82.94-36.34 115.88m-38.05-26.28c17.7-25.47 28.09-56.36 28.09-89.6 0-41.22-15.99-78.83-42.07-106.97l5.66-5.23c-30.28-32.67-73.53-53.17-121.43-53.17s-91.16 20.51-121.43 53.18l5.66 5.23c-26.09 28.14-42.07 65.75-42.07 106.97 0 33.24 10.4 64.12 28.1 89.6l-6.34 4.38c29.94 43.09 79.8 71.39 136.09 71.39s106.15-28.31 136.09-71.39l-6.34-4.38Z" class="cls-1"/><path d="M247.14 189.21 296.8 331.2h-27.83l-12.89-28.8-12.88 28.8h-50.33l-12.88-28.8-12.88 28.8h-27.83l27.38-205.79 47.69 136.53h7.4l25.41-72.73Zm4.02-13.28 28.09-80.4H162.37l-32.44 243.85h42.47l7.58-16.94 7.58 16.94h60.94l7.58-16.94 7.58 16.94h44.66l-57.17-163.45Z" class="cls-6"/><path d="M267.73 103.7h-99.39l49.7 142.26z" style="fill:#e30613"/><path d="m385.6 246.91-3.51 18.02 2.58 3.83 12.34 2.39 4.71-17.78 8.1 1.57-3.51 18.02 3.21.62 4.21-21.61-14.11-2.74-4.71 17.78-9.54-1.85 3.43-17.62-3.21-.62ZM52.81 260.32l-24.73 5.22 3.41 8.25 3-.63-1.42-4.92 20.49-4.32 1.34 5.34 3.2-.68-1.76-6.71-1.12-6.85-3.19.67.77 4.63Zm-25.6-28.36 11.4-.78.98 14.24-11.4.79-.98-14.24Zm-.25-3.67-3.04 3.48 1.04 15.06 3.48 3.03 11.81-.81 2.65-3.04-1.04-15.05 7.33-.51 1.12 16.28 3.26-.23-1.15-16.68-3.48-3.03-22 1.51Zm3.37-34.6-3.23-.46-3.09 21.8 14.23 2.01 3.79-18 9.62 1.36-2.52 17.77 3.23.46 2.58-18.17-2.77-3.69-12.45-1.76-3.79 18-8.17-1.16 2.58-18.17Zm28.33-22.28-4.2 13.65-21.07-6.46 4.2-13.65zm-1.19 14.99 4.44-14.43-2.17-4.07-21.07-6.46-4.08 2.16-4.43 14.42 2.17 4.08 21.07 6.46 4.08-2.16Zm25.97 193.89 22.29-20.77-6-6.43-13.65 4.39 5.33-13.3-6-6.43-22.3 20.77 4.9 5.25 15.48-14.42-5.05 13.09 2.14 2.29L94 360.61l-15.48 14.42 4.9 5.25Zm35.29-4.03-10.44 14.36-8.53-6.19 10.44-14.35 8.53 6.19Zm-4.93 19.65 11.67-16.05-1.17-7.41-12.19-8.85-7.42 1.17-11.68 16.05 1.18 7.41 12.19 8.85zm34.54-2.81 2.99-5.61-20.46-10.86-2.98 5.6 6.99 3.72-11.32 21.28 6.46 3.43 11.32-21.28zm4.36 20.15 5.79-16.78 9.97 3.43-5.78 16.78-9.97-3.43Zm5.71-23.52-6.75 3.29-6.46 18.75 3.29 6.75 14.25 4.9 6.76-3.29 6.47-18.76-3.29-6.74-14.25-4.9Zm14.32-329.32 6.99-21.51-2.98-11.09-22.46 6.01 2.84 10.59 6.78-1.81-1.26-4.71 8.62-2.31 1.11 4.16-8.1 22.93zm24.92 344.85-1.94 9.99-9.83-1.91 1.94-9.99zm3.08-5.34-18.98-3.68-5.82 29.89 7.18 1.39 1.64-8.46 6.88 1.34 2.16 9.19 8.04 1.56-3.14-11.42 4.13-2.79 2.1-10.8-4.2-6.23Zm5.24-345.75 4.62-5.92-1.51-12.3-16.26.55-.61-4.93 16.08-1.97-.78-6.3-23.34 2.86 2.02 16.45 16.25-.59.75 6.09-15.9 1.95.77 6.3 17.9-2.2Zm25.41 346.06-7.29.64 2.66 30.33 21.87-1.91-1.07-12.14-6.42.56.53 6.07-8.15.71-2.12-24.27Zm2.71-345.56 2.13-30.38-7.3-.51-2.12 30.38 7.3.51Zm20.46-7.95-.87 4.89-7.63-1.35.71-4.02zm5.33 11.9 3.33-18.85-4.24-6.04-16.04-2.83-1.06 6 13.98 2.46-.68 3.85-14.91-2.18-1.51 8.57 4.24 6.05 16.9 2.98Zm4.93 336.04 5.77 23.13-9.21 2.29-5.77-23.13-7.1 1.77 6.09 24.4 6.44 3.86 13.1-3.26 3.87-6.43-6.09-24.4zm20.42-353.5-8.16-2.19 1.81-6.72-7.63.21-5.98 22.26 3.7 6.4 10.18 2.72 1.58-5.88-8.16-2.18 2.93-10.93 8.16 2.18 1.58-5.88Zm15.56 367.04-9.45 3.81-2.72-6.73 9.45-3.81 2.73 6.73Zm-5.3-11.13-8.76 3.53-2.43-6.01 8.76-3.54 2.43 6.01Zm6.87-2.87-2.69-6.65-6.58-2.79-17.77 7.17 11.42 28.23 18.57-7.5 2.79-6.57-3.07-7.58-4.27-1.38 1.58-2.94Zm24.07-.55-6.87 4.46-13.28-20.43-6.14 3.98 16.61 25.54 18.41-11.94-6.64-10.21-5.41 3.5 3.32 5.11Zm10.27-30.89-3.59-4.43-5.53 4.93-5.98 4.38 3.59 4.43 3.05-2.19 11.95 14.74-2.77 2.52 3.59 4.43 5.53-4.92 5.97-4.38-3.59-4.43-3.04 2.18-11.95-14.74 2.77-2.53Zm39.35-4.55-22.29-20.77-4.63 4.96 14.17 13.2-22.16-4.65-4.72 5.06 22.29 20.77 4.63-4.96-14.17-13.21 22.16 4.65 4.72-5.06Zm28.25-185.86 1.95-4.18-6.28-17.25-3.07 1.12 6.14 16.86-8.36 3.04-8.2-16.55-13.5 4.91 7.54 20.69 3.07-1.11-6.28-17.25 7.86-2.86 8.2 16.55 10.93-3.98Zm5.94 29.36-21.77 3.44-2.24-14.1 21.78-3.45 2.23 14.1Zm.57 3.62 2.72-3.73-2.36-14.9-3.74-2.71-21.78 3.44-2.71 3.73 2.37 14.91 3.73 2.71zm4.11 30.53v-18.35h-3.27v17.94h-8.9l-2.04-18.35h-14.37v22.02h3.27v-18.35h8.37l2.04 18.35h11.64l3.27-3.26Z" class="cls-2"/><path d="m326.48 68.59-8.99.21 4.82 7.59 5.99-1.82-1.81-5.98Zm-213.82 0-1.82 5.98 5.99 1.82 4.81-7.59-8.99-.21Zm-.7-5.26 9.71 4.55-1.1-10.65-7.36-1.24-1.25 7.35Zm16.35 9.36-5.87-3.56.77 6.8zm3-6.58.25-6.25-6.26-.25-2.76 8.55 8.76-2.04Zm176.52 0 8.76 2.04-2.76-8.55-6.26.25.25 6.25Zm8.1 9.82.77-6.8-5.87 3.56zm1.54-8.06 9.71-4.55-1.25-7.35-7.36 1.24-1.1 10.65ZM59.24 310.58c-3.79-7.26-7.12-14.75-9.75-22.01l-3.61 1.31c2.7 7.45 6.1 15.1 9.95 22.47 3.61 6.91 7.62 13.61 11.83 19.71l3.17-2.19c-4.12-5.97-8.04-12.52-11.58-19.29m13.27-188.69c4.48-6.25 9.31-12.22 14.27-17.58l-2.82-2.61c-5.09 5.5-10.03 11.6-14.57 17.94-4.88 6.82-9.34 13.94-13.05 20.92l3.4 1.81c3.64-6.84 8-13.81 12.78-20.48m306.87 20.48 3.4-1.81c-3.72-6.98-8.17-14.1-13.05-20.92-4.55-6.34-9.49-12.44-14.57-17.94l-2.82 2.61c4.95 5.36 9.79 11.33 14.27 17.58 4.78 6.67 9.14 13.64 12.78 20.48m13.86 147.51-3.62-1.31c-2.63 7.26-5.96 14.75-9.75 22.01-3.53 6.77-7.46 13.31-11.58 19.29l3.17 2.19c4.21-6.1 8.22-12.8 11.82-19.71 3.85-7.37 7.25-15.01 9.95-22.47" class="cls-6"/><path d="M221.73 114.72c3.98-1.07 8.1-1.62 12.17-2.22h-2.41c-4.72.05-9.49.42-14.16 1.39-4.54.97-8.98 2.54-13.05 4.91-.65.37-1.3.88-2.04 1.06-1.71.46-3.47.05-5.14-.28-1.57-.32-3.24-.65-4.81-.09-.83.28-1.48.83-2.04 1.43-1.57 1.67-2.5 3.93-2.36 6.25.09 1.16.65 2.22 1.3 3.19.74-1.16 1.34-2.45 2.13-3.56 1.53-1.99 4.72-2.45 6.8-.97.83.6 1.34 1.48 1.81 2.31 1.43 2.73 1.9 5.78 2.45 8.75.56 3.05 1.11 6.15 1.34 9.26.19 2.27.19 4.53-.14 6.8-2.18-.23-4.12-1.43-6.16-2.17-1.34-.51-2.78-.79-4.21-.46-.18 2.04.05 4.07.28 6.11.32 2.41.69 4.77 1.34 7.08.23-.46.32-.92.51-1.39.65-1.99 1.16-4.12 2.5-5.74.55-.74 1.67-.93 2.45-.51 1.44.69 2.45 1.99 3.43 3.24 3.01 3.93 5.32 8.33 7.45 12.82.74 1.58 1.48 3.19 2.22 4.77 2.54 5.37 6.29 10.23 11.11 13.79-1.62 4.72-3.01 9.58-4.02 14.49-1.71 8.19-2.55 16.66-2.08 25.04.69-1.99 1.16-4.03 1.62-6.11.83-3.89 1.62-7.78 2.54-11.66.97-4.07 2.04-8.1 3.24-12.08 1.94-6.39 4.26-12.68 7.41-18.56-1.02-.74-2.04-1.39-3.01-2.18-1.07-.83-1.9-1.85-2.73-2.87-2.08-2.5-3.98-5.14-5.69-7.87-3.61-5.74-6.53-11.85-9.16-18.05-3.47-8.05-6.39-16.38-8.79-24.81 0 0 .05-.09.09-.14 2.96-3.84 7.08-6.71 11.48-8.7 2.04-.93 4.17-1.67 6.34-2.27M198.15 281.54c-.33 1.6-.33 3.28.08 4.84.49 1.97 1.85 3.69 3.65 4.6 1.19.57 2.5.78 3.82.7 1.03-.08 2.09-.33 3-.82a6.7 6.7 0 0 0 2.87-3c.53-1.03.78-2.18.86-3.32.08-1.07 0-2.18-.29-3.24.62.29 1.27.57 1.89.82.37-.86.78-1.72 1.44-2.38.45-.45 1.11-.66 1.72-.7V287c0 .53.04 1.11-.25 1.56-.29.29-.78.25-1.19.29v2.5h7.06v-2.5c-.45-.04-1.02.04-1.27-.37-.21-.53-.16-1.11-.21-1.64v-7.8c.66.04 1.31.29 1.76.78.66.66.98 1.52 1.39 2.3.57-.25 1.15-.53 1.76-.7.04-.12.08-.29.04-.41-.53-1.52-1.03-3.08-1.52-4.64-3.65 0-7.35-.04-11 0-.53 1.64-1.07 3.28-1.6 4.92-.41-1.56-1.31-2.99-2.63-3.94-1.03-.78-2.3-1.19-3.57-1.31-1.4-.12-2.87.04-4.15.7-1.89.94-3.2 2.79-3.69 4.8m4.26.74c.08-.86.29-1.72.74-2.46.29-.53.78-.99 1.35-1.15.74-.2 1.6-.08 2.22.41.61.49.98 1.27 1.19 2.05.33 1.27.33 2.59.25 3.9-.08 1.19-.33 2.46-1.15 3.36-.82.95-2.42.99-3.33.12-.61-.57-.94-1.4-1.11-2.22-.29-1.31-.29-2.71-.16-4.02m-15.8-5.94h-6.07v2.46c.37.04.78.04 1.11.21.25.16.29.49.33.74.08.61.08 1.23.08 1.85v5.25c0 .53 0 1.07-.21 1.6-.25.45-.82.37-1.27.41 0 .86-.04 1.68 0 2.5 1.8 0 3.61.04 5.42 0v-2.46c-.37 0-.9 0-1.11-.37-.25-.66-.21-1.36-.21-2.05v-3.32c.9 2.75 1.76 5.5 2.67 8.25h2.34c.86-2.75 1.68-5.5 2.54-8.21v3.57c-.04.53-.04 1.15-.21 1.68-.21.41-.74.41-1.15.41v2.46h6.98v-2.5c-.41 0-.9.08-1.27-.16-.2-.12-.25-.41-.29-.62-.16-.74-.08-1.48-.12-2.22v-5.17c.04-.49 0-1.07.25-1.52.37-.41.94-.25 1.44-.29v-2.5h-6.48c-.78 2.38-1.56 4.72-2.34 7.1-.82-2.38-1.6-4.76-2.42-7.1m53.01 11.78c.86-1.52 1.11-3.32.98-5.05-.08-1.03-.29-2.09-.74-3.04-.7-1.52-1.97-2.83-3.57-3.49-1.31-.53-2.75-.61-4.14-.45-1.11.16-2.18.53-3.04 1.15-1.56 1.15-2.59 2.96-2.87 4.88-.25 1.56-.16 3.2.33 4.72.62 1.81 1.93 3.37 3.65 4.15s3.74.82 5.54.29c1.64-.49 3.04-1.68 3.86-3.16m-3.45-5.79c.12 1.23.08 2.5-.12 3.73-.16.9-.49 1.81-1.15 2.46-.86.86-2.46.82-3.28-.08-.66-.74-.94-1.68-1.11-2.63a12.2 12.2 0 0 1 0-3.9c.12-.74.33-1.48.7-2.09.33-.53.82-.99 1.44-1.15.86-.24 1.85-.04 2.38.66.74.82 1.03 1.93 1.15 3m19.4 8.99v-2.42c-.41-.04-.82-.08-1.19-.29-.33-.21-.58-.53-.82-.82-.74-1.07-1.48-2.18-2.26-3.24.82-.37 1.6-.9 2.05-1.68.53-.9.62-2.01.49-3.04-.16-1.07-.74-2.05-1.68-2.63-1.11-.7-2.38-.86-3.65-.86h-7.55v2.42c.41.08.9 0 1.23.33.29.45.25.99.29 1.48.04 2.09 0 4.23 0 6.32 0 .53 0 1.07-.2 1.56-.29.41-.82.37-1.27.41v2.46h7.06v-2.5c-.33-.04-.66 0-.94-.12-.21-.08-.37-.24-.41-.45-.25-1.03-.12-2.09-.16-3.12h.49c1.35 2.05 2.63 4.15 3.94 6.2h4.6Zm-5.13-10.59c.04.57-.04 1.15-.37 1.6-.29.37-.74.57-1.15.74-.78.29-1.6.29-2.38.29 0-1.11-.04-2.26 0-3.37.04-.29.04-.62.16-.9.08-.16.21-.29.41-.33.82-.16 1.72-.08 2.46.41.53.33.82.94.86 1.56" class="cls-2"/></g></g></svg>