<svg xmlns="http://www.w3.org/2000/svg" xml:space="preserve" style="shape-rendering:geometricPrecision;text-rendering:geometricPrecision;image-rendering:optimizeQuality;fill-rule:evenodd;clip-rule:evenodd" viewBox="0 0 148.26 155.03"><defs><style>.fil2{fill:#ed1a28}.fil0{fill:#d2a54f}.fil1{fill:#000}.fil5{fill:#fff}</style></defs><g id="Layer_x0020_1"><g id="_861746880"><path d="m114.037 122.836 3.881-.288c9.695-2.212 7.189-12.377 12.651-17.3-10.087-1.886-18.34 12.249-18.365 12.291.41.9.634 1.874.66 2.862 4.006-2.465 10.633-10.456 10.633-10.456s-1.57 5.271-9.46 12.89M11.067 63.93c1.374-5.864-2.585-10.887-3.944-15.486 2.16 3.254 5.287 4.558 6.371 10.355.617-1.435 2.214-3.035 3.297-4.488-.006-.052-4.072-7.928-11.978-11.27-1.016 4.659-.86 15.836 1.522 17.896 1.087.804 3.69 2.232 4.732 2.992zM6.358 64.153c-.158 5.44.672 11.055 2.71 15.667q.35.867.787 1.693a8.1 8.1 0 0 1 4.493 0q.2-.7.48-1.372A32.5 32.5 0 0 1 9.031 69.2a43.8 43.8 0 0 0 6.478 8.62q.603-.893 1.231-1.785s-2.21-9-10.382-11.881zM29.062 120.887c-.685-4.38-3.293-10.639-6.804-14.399 3.625 2.545 6.273 5.318 8.357 10.99.385 0 2.246.287 2.657.287-.321-1.86-.409-4.65-.884-6.548-1.494-1.54-4.007-6.442-4.927-11.278 1.178 2.947 3.978 7.81 4.729 8.308 1.873-4.919-2.905-12.79-6.962-16.06.05 2.61-1.332 8.529 2.725 15.388-6.105-5.84-9.627-4.787-10.622-5.027 5.895 8.461 1.873 11.755 11.73 18.34zM30.97 119.746c2.551 6.533-.623 12.876 16.734 18.668-.36-.78-1.188-2.85-1.45-3.723-.972-2.095-10.437-10.4-10.437-10.4s6.883 3.03 9.427 6.136c-.045-1.161-.06-1.944-.15-3.106-2.707-5.832-13.128-7.802-14.124-7.575" class="fil0"/><path d="M11.364 83.033c.446 1.374.676 2.808.683 4.252a30.5 30.5 0 0 0 2.571 11.566l2.488.613a17.7 17.7 0 0 1 3.44 1.312c-2.586-4.572-4.216-9.389-5.58-14.25 2.413 5.409 5.465 11.99 8.083 13.33-.511-2.692.008-9.064.008-9.064-.064-.08-6.709-8.079-11.693-7.759zM117.327 124.83a29.7 29.7 0 0 0-5.562.354c-1.673.196-7.81 2.108-10.567 5.82.059.83.112 2.11.126 2.976l.04.285c3.488-.983 10.791-6.304 11.004-6.304.678 0-7.302 7.965-11.145 8.607a13 13 0 0 1-1.036 4.008c8.477-.538 13.12-6.527 17.14-15.747zM144.268 62.59c-.29.11-11.536 5.749-14.14 16.434a19 19 0 0 1 2.164 3.672c2.628-4.913 5.085-9.79 7.802-12.336-2.842 4.048-5.761 14.033-5.368 13.89.721-.26 1.47-.432 2.233-.511a6.6 6.6 0 0 1 1.36 2.573c8.747-7.241 4.373-12.862 5.949-23.722zM136.018 86.571a20.11 20.11 0 0 0-12.829 12.874c.639.835 1.275 3.484 1.459 4.311 3.612-1.8 6.651-7.067 7.722-11.115-.078 5.889-1.638 7.956-3.198 10.101 1.224 0 1.727.084 2.995.084 5.292-.98 6.07-9.467 3.85-16.255" class="fil0"/><path d="M90.78 133.456c-.41 1.75-1.02 4.36-1.022 4.4 4.252-.754 7.201-6.036 7.201-6.036s-1.165 5.967-7.962 9.411a38 38 0 0 1-1.178 4.527c14.86-2.412 11.14-14.434 10.698-18.892a98 98 0 0 1-7.736 6.59M101.252 124.173a10.3 10.3 0 0 0-.236 4.177 35 35 0 0 1 3.053-2.32c1.235-3.086 1.4-4.15 3.4-6.125a14.4 14.4 0 0 0-1.325 5.075 31.6 31.6 0 0 1 4.552-1.626c.865-2.761-1.408-6.648-2.083-7.715a94 94 0 0 1-7.361 8.534M119.522 97.617a101 101 0 0 1-9.07 15.533l.76 1.892c1.961-2.61 3.812-4.734 5.835-7.013a28 28 0 0 0 1.861-5.63 16.3 16.3 0 0 1 .076 4.398c1.056-.596 2.447-1.757 3.787-2.114-.029-.225-.52-4.83-3.25-7.066M127.138 79.32s-.304-.202-.622-.404a127 127 0 0 1-5.945 16.423l-.028.062a78 78 0 0 1 1.63 1.811c.468-.674.94-1.383 1.427-2.118.713-1.076 1.451-2.186 2.24-3.268.683-2.686.816-5.792 1.525-8.47.182 1.83.409 3.662.635 5.448.342-.225 3.557-2.786 3.557-2.786-.901-2.684-2.706-5.36-4.419-6.699zM143.649 47.094c-.242.168-10.575 5.51-8.198 15.982-1.347-.402-2.34-2.055-2.523-3.453a7.3 7.3 0 0 0-2.512 2.457 171 171 0 0 1-2.995 13.56c.105.695.5 1.314 1.085 1.704a31 31 0 0 1 3.142-6.668c-.44-2.994-.427-4.132.552-7.483.173 1.952.108 4.137 1.208 5.429 1.436-2.072 2.519-2.793 4.12-4.192a27.24 27.24 0 0 1 3.065-13.54c-.71 3.887-1.56 8.007-.835 11.854.873-.579 3.858-2.254 4.44-2.689-.045-4.42.13-8.808-.549-12.961M132.775 44.957q-.678 6.78-1.675 13.062c.826-1.077 3.005-3.308 3.144-3.74a15.6 15.6 0 0 0-.295-5.616 9.7 9.7 0 0 1 1.566 2.726c.391-.69 1.597-1.526 2.113-2.1.42-.467-.432-4.164-4.853-4.332M133.963 27.555q-.294 7.505-.911 14.48l.07.012a9.2 9.2 0 0 1 4.24 2.273c.65-2.222.133-6.824-.825-10.757 2.665 4.026 3.204 9.084 2.819 14.082l.053.13c.639-.597 1.77-1.592 2.52-2.156 1.703-2.302.122-10.793-7.966-18.064M50.749 131.238c.011-.19 4.82 6.82 7.402 6.073a14 14 0 0 1-.473-4.88 96 96 0 0 1-9.595-8.723c-.032 1.69-.223 5.252-.223 5.252.046 2.146.365 4.278.948 6.345.298.797.6 1.583.894 2.345l.018.047a15.96 15.96 0 0 0 11.984 8.888 25.2 25.2 0 0 1-2.58-5.796c-5.74-1.698-8.478-7.9-8.376-9.55zM35.427 107.228a4.1 4.1 0 0 0-1.598-.717c-.032.023 1.572 11.785 1.572 11.785 1.24.28 2.443.705 3.583 1.27.466-.708-2.073-6.503-2.072-6.503 2.264 2.811 3.53 4.46 4.493 8.058 1.747.909 3.425 2.87 4.374 3.916q.06-1.028.162-2.105a20 20 0 0 0-.245-1.8 95.3 95.3 0 0 1-10.27-13.904zM22.304 75.43c-4.273 1.28-5.248 4.779-5.302 7.17a20 20 0 0 1 2.942 1.973c.182-1.838.375-3.757 1.318-4.298a17.1 17.1 0 0 0 .795 6.202q.844.839 1.68 1.805l2.18 1.73q.69.453 1.438.915a136 136 0 0 1-5.051-15.497M18.694 58.108a10.5 10.5 0 0 0-.94-1.506 16.26 16.26 0 0 0-4.91 8.792q1.038.909 1.942 1.948c.258-1.05.52-2.104.814-3.19a76.6 76.6 0 0 0 2.978 10.265c.461-.49 2.741-1.467 3.06-1.602a182 182 0 0 1-2.944-14.707M15.805 27.277c-.008-.016-.016-.04-.024-.055C7.398 30.588 5.551 40.643 5.516 41.17c.885.36 2.86 1.171 3.639 1.896.734-4.14 1.522-7.21 3.524-10.558-.992 4.18-1.622 8.572-1.004 12.482.077-.055 3.834 3.87 5.438 5.472.178-.106.332-.247.453-.416q-1.3-10.716-1.76-22.77z" class="fil0"/><path d="M78.137 148.42c3.056-.227 6.01-5.83 7.374-8.03-.861.04-7.208 6.065-7.374 8.03M63.076 140.714c3.648 5.696 6.221 7.367 9.158 8.097 1.048-1.975-6.02-5.294-9.158-8.097" class="fil1"/><path d="M146.29 59.54c-.069-3.096-.33-11.502-.54-12.789l-.544-3.326a32.32 32.32 0 0 0-11.12-19.552q.145-5.107.148-10.456v-1.503l-1.417-.504c-17.62-6.256-37.653-9.563-57.934-9.563-20.272 0-40.301 3.307-57.921 9.563l-1.417.504v1.503q0 5.968.182 11.627v-.015l-.51.14C-.901 31.445.558 57.949 4.29 62.615l-.06 1.476c-.21 7.228.988 13.093 3.663 17.929l1.99 3.597a34.9 34.9 0 0 0 2.165 12.6c.528 1.437 2.849 4.597 2.849 4.597a24.3 24.3 0 0 1 4.22 8.452c1.126 3.572 2.188 6.947 8.79 11.41l2.156 1.459q.111.534.218 1.081c.48 2.457 1.024 5.242 3.445 7.92 2.523 2.793 6.755 5.113 13.317 7.302l2.305.768c2.669 3.62 8.578 7.502 13.91 7.769 0 0 6.705 7.175 12.397 2.778 7.033 3.668 11.412-3.794 11.412-3.794 4.945-.731 9.698-2.514 11.804-5.195l.847-.03a17.4 17.4 0 0 0 12.077-5.129c2.747-2.692 5.148-6.535 7.558-12.094l.574-1.325c5.76-1.976 7.348-6.769 8.675-10.785.848-2.572 1.651-5.001 3.393-6.57l3.701-3.335-.033-.002a8 8 0 0 0 1.894-2.197c1.826-3.077 2.238-7.87 1.196-12.728l1.396-1.17c6.323-5.305 6.145-10.15 5.938-15.758a42 42 0 0 1 .287-8.745q.095-1.682-.084-3.356zm-2.092.515c-.582.435-3.566 2.11-4.44 2.69-.725-3.848.126-7.968.835-11.855a27.24 27.24 0 0 0-3.065 13.54c-1.6 1.4-2.683 2.12-4.12 4.192-1.1-1.292-1.035-3.477-1.208-5.43-.979 3.352-.992 4.49-.552 7.484a31 31 0 0 0-3.142 6.668 2.5 2.5 0 0 1-1.085-1.704c1.308-4.937 3.118-14.246 2.995-13.56a7.3 7.3 0 0 1 2.512-2.457c.183 1.398 1.176 3.052 2.523 3.453-2.377-10.472 7.956-15.814 8.198-15.982.68 4.153.504 8.54.55 12.961m-25.29 42.345a28 28 0 0 1-1.86 5.629c-2.024 2.279-3.875 4.403-5.835 7.013l-.762-1.892-.006.009c3.482-4.9 6.52-10.102 9.077-15.542 2.73 2.236 3.22 6.84 3.25 7.066-1.34.357-2.732 1.518-3.788 2.113a16.3 16.3 0 0 0-.076-4.396zm-14.84 23.631a35 35 0 0 0-3.052 2.319 10.3 10.3 0 0 1 .236-4.177l-.007.007a94 94 0 0 0 7.373-8.548l-.005.007c.676 1.068 2.948 4.954 2.083 7.715a31.6 31.6 0 0 0-4.551 1.626 14.4 14.4 0 0 1 1.325-5.075c-2 1.975-2.166 3.039-3.401 6.126zm18.105-28.818c-.571-.742-1.42-1.702-1.602-1.874a127 127 0 0 0 5.949-16.437l-.004.014c.319.202.622.403.622.403 1.713 1.339 3.518 4.015 4.419 6.698 0 0-3.215 2.562-3.557 2.787a201 201 0 0 1-.635-5.448c-.71 2.678-.842 5.784-1.525 8.47-.789 1.082-1.527 2.192-2.24 3.268a123 123 0 0 1-1.427 2.118zm12.072-42.934c-.14.432-2.319 2.663-3.145 3.74l-.008.049q1.004-6.307 1.683-13.11c4.42.167 5.273 3.864 4.853 4.332-.516.573-1.722 1.41-2.113 2.1a9.7 9.7 0 0 0-1.565-2.727c.436 1.839.537 3.742.294 5.616zm7.684-8.66c-.75.564-1.881 1.56-2.52 2.156l-.053-.13c.385-4.997-.154-10.056-2.819-14.082.958 3.933 1.474 8.535.826 10.757a9.2 9.2 0 0 0-4.24-2.273l-.071-.013-.003.02q.621-6.986.914-14.499c8.088 7.271 9.669 15.762 7.966 18.065M74.883 3.976c19.763 0 39.516 3.154 57.222 9.441 0 67.513-16.872 106.058-57.215 127.731-40.344-21.673-57.216-60.218-57.216-127.73 17.744-6.301 37.482-9.442 57.21-9.442M45.941 122.932q-.102 1.078-.162 2.105c-.949-1.046-2.627-3.007-4.374-3.916-.962-3.597-2.23-5.247-4.492-8.058-.002 0 2.537 5.795 2.07 6.503a16 16 0 0 0-3.582-1.27s-1.604-11.762-1.571-11.785a4.1 4.1 0 0 1 1.597.717 95.3 95.3 0 0 0 10.271 13.906l-.002-.002c.113.607.19 1.205.245 1.8zM19.944 84.573a20 20 0 0 0-2.942-1.973c.054-2.391 1.03-5.89 5.302-7.17l-.004-.012a136 136 0 0 0 5.06 15.519l-.004-.01q-.748-.462-1.44-.916l-2.18-1.728a33 33 0 0 0-1.678-1.806 17.1 17.1 0 0 1-.796-6.202c-.943.541-1.136 2.46-1.318 4.298m-1.25-26.464q1.229 7.715 2.945 14.706c-.32.135-2.6 1.111-3.061 1.602A77 77 0 0 1 15.6 64.153c-.294 1.085-.556 2.14-.814 3.19a20 20 0 0 0-1.942-1.949 16.25 16.25 0 0 1 4.91-8.792c.355.474.67.979.94 1.507m-2.913-30.887c.008.015.016.039.024.055q.462 12.065 1.761 22.77c-.121.168-.275.31-.454.416-1.603-1.602-5.36-5.527-5.438-5.472-.617-3.91.013-8.302 1.005-12.482-2.002 3.348-2.79 6.419-3.524 10.558-.78-.725-2.754-1.535-3.64-1.896.035-.528 1.883-10.583 10.266-13.95zM4.814 43.04c7.905 3.343 11.97 11.218 11.978 11.27-1.084 1.453-2.68 3.054-3.298 4.489-1.084-5.797-4.212-7.101-6.37-10.356 1.359 4.6 5.317 9.622 3.943 15.486-1.042-.76-3.645-2.189-4.732-2.993-2.382-2.06-2.538-13.237-1.521-17.896zm5.041 38.472a18 18 0 0 1-.787-1.693C7.03 75.208 6.2 69.594 6.358 64.153c8.172 2.88 10.382 11.881 10.382 11.881q-.63.893-1.23 1.784A43.8 43.8 0 0 1 9.03 69.2a32.5 32.5 0 0 0 5.797 10.942q-.28.672-.48 1.37a8.1 8.1 0 0 0-4.493 0m4.763 17.338a30.5 30.5 0 0 1-2.571-11.566 14 14 0 0 0-.683-4.251c4.984-.32 11.63 7.678 11.693 7.758 0 0-.52 6.372-.008 9.063-2.618-1.339-5.67-7.92-8.084-13.328 1.365 4.86 2.995 9.677 5.58 14.249a17.7 17.7 0 0 0-3.439-1.312zm7.64 7.638c3.51 3.76 6.12 10.019 6.804 14.399-9.858-6.585-5.836-9.879-11.73-18.34.994.24 4.516-.812 10.62 5.027-4.055-6.859-2.674-12.779-2.724-15.387 4.057 3.27 8.835 11.14 6.962 16.06-.75-.498-3.551-5.362-4.73-8.31.921 4.838 3.434 9.74 4.929 11.279.474 1.899.562 4.688.883 6.548-.411 0-2.272-.287-2.657-.287-2.084-5.672-4.732-8.445-8.357-10.99zm8.712 13.257c.996-.226 11.417 1.743 14.124 7.576.09 1.16.105 1.944.15 3.105-2.544-3.105-9.428-6.135-9.428-6.135s9.465 8.305 10.438 10.4c.262.873 1.09 2.943 1.45 3.722-17.357-5.792-14.183-12.135-16.734-18.668zm18.75 17.952-.018-.047c-.295-.763-.596-1.55-.894-2.346a25.4 25.4 0 0 1-.948-6.344s.192-3.563.223-5.253a96 96 0 0 0 9.603 8.728l-.008-.006c-.13 1.642.03 3.295.473 4.88-2.582.749-7.39-6.262-7.402-6.071-.103 1.65 2.635 7.852 8.375 9.55a25.2 25.2 0 0 0 2.58 5.796 15.96 15.96 0 0 1-11.984-8.887zm32.19 12.775c-.665.318-1.388.5-2.125.535a8.24 8.24 0 0 1-4.342-1.543c-6.425 7.293-16.104-8.445-15.302-15.146 4.139 3.738 14.81 8.412 15.409 12.81 1.258-4.048 3.622-5.694 6.146-7.436l-.005.003a107 107 0 0 0 7.253-4.862c-.662 1.805-2.082 13.612-7.034 15.639zm5.91-4.715a38 38 0 0 0 1.177-4.527c6.797-3.443 7.962-9.41 7.962-9.41s-2.95 5.28-7.201 6.035c.001-.04.612-2.65 1.023-4.4a98 98 0 0 0 7.736-6.589c.442 4.458 4.16 16.48-10.698 18.891m12.367-5.182a13 13 0 0 0 1.036-4.008c3.843-.642 11.823-8.607 11.145-8.607-.213 0-7.516 5.322-11.004 6.304l-.04-.284a65 65 0 0 0-.126-2.977c2.757-3.712 8.894-5.623 10.567-5.82 1.839-.292 3.701-.41 5.562-.354-4.02 9.219-8.663 15.208-17.14 15.746zm17.731-18.027-3.88.287c7.89-7.62 9.459-12.89 9.459-12.89s-6.627 7.99-10.632 10.455a7.4 7.4 0 0 0-.661-2.862c.025-.042 8.277-14.177 18.366-12.29-5.463 4.922-2.957 15.088-12.652 17.3m14.25-19.723c-1.27 0-1.772-.084-2.996-.084 1.56-2.144 3.12-4.212 3.198-10.1-1.07 4.047-4.11 9.315-7.722 11.114-.184-.827-.82-3.476-1.459-4.311a20.11 20.11 0 0 1 12.829-12.873c2.22 6.787 1.441 15.273-3.85 16.254m6.151-16.514a6.6 6.6 0 0 0-1.36-2.573 9.5 9.5 0 0 0-2.233.511c-.393.143 2.526-9.842 5.368-13.89-2.717 2.546-5.174 7.423-7.802 12.336a19 19 0 0 0-2.163-3.672c2.603-10.685 13.849-16.324 14.139-16.434-1.576 10.86 2.798 16.48-5.949 23.722z" class="fil1"/><path d="M88.944 134.834a108 108 0 0 1-7.253 4.861l.005-.002c-2.524 1.741-4.888 3.387-6.146 7.435-.598-4.397-11.27-9.072-15.41-12.81-.8 6.702 8.878 22.44 15.302 15.147a8.24 8.24 0 0 0 4.343 1.542 5.5 5.5 0 0 0 2.125-.535c4.952-2.026 6.371-13.834 7.034-15.639zm-16.71 13.977c-2.937-.73-5.51-2.401-9.158-8.097 3.138 2.803 10.206 6.122 9.158 8.097m5.903-.392c.166-1.964 6.513-7.989 7.374-8.03-1.365 2.201-4.318 7.804-7.374 8.03" class="fil0"/><path d="M74.89 141.148c40.343-21.673 57.215-60.218 57.215-127.73-17.706-6.288-37.46-9.442-57.222-9.442-19.727 0-39.465 3.14-57.209 9.441 0 67.513 16.872 106.058 57.216 127.731M117.847 11.37a153 153 0 0 1 11.984 3.558 366 366 0 0 1-.18 10.165h-11.804zm-83.927-.52a179.3 179.3 0 0 1 81.807-.032v14.275H33.92zm40.899 16.372h40.9c-1.403 36.786-9.49 66.702-40.9 86.582-31.41-19.88-39.497-49.796-40.9-86.582zM19.806 14.928c3.85-1.321 7.866-2.513 11.984-3.558v13.723H19.986c-.106-3.325-.166-6.73-.18-10.165M31.79 27.222v.04l.002.04c1.254 32.886 7.196 66.343 41.888 88.3l1.139.72 1.138-.72c34.693-21.957 40.635-55.414 41.889-88.3l.001-.04v-.04h11.874c-2.212 57.992-18.99 91.795-54.831 111.503-35.842-19.709-52.62-53.51-54.832-111.503z" class="fil0"/><path d="M31.79 11.37a153 153 0 0 0-11.984 3.558c.014 3.434.074 6.84.18 10.165H31.79zM117.847 11.37v13.723h11.805c.105-3.325.166-6.731.18-10.165a153 153 0 0 0-11.985-3.558" class="fil2"/><path d="M115.719 27.222h-40.9v86.582c31.41-19.88 39.497-49.796 40.9-86.582" style="fill:#fff204"/><path d="M74.819 113.804V27.222h-40.9c1.403 36.786 9.49 66.702 40.9 86.582" class="fil2"/><path d="M117.847 27.222v.04l-.001.04c-1.254 32.886-7.196 66.343-41.889 88.3l-1.138.72-1.139-.72c-34.692-21.957-40.635-55.414-41.888-88.3l-.002-.04v-.04H20.058c2.213 57.992 18.99 91.794 54.832 111.503 35.84-19.709 52.619-53.51 54.83-111.503z" style="fill:#01a751"/><path d="M115.727 10.818a179.3 179.3 0 0 0-81.808.031v14.244h81.808z" class="fil5"/><path d="M93.842 22.829h9.801c2.258-.009 2.818-2.434 1.577-3.774l-4.357-4.33h4.434l.006-2.535c-3.706-1.075-7.108-1.806-8.984-1.505-2.477.589-3.364 3.388-1.4 5.45l3.462 3.427-4.516.001zM60.092 9.993l-2.455 6.35-1.789-6.079-5.102.528-1.923 5.05-1.338-4.572-5.24.509-.02.002h-.007l3.232 11.048h4.172l2.56-6.62 1.937 6.62h4.511l5.104-13.2zM87.12 22.829l-7.049-7.177 6.731-6.028h-4.894l-5.563 4.983V9.634h-5.199v13.202h5.199v-3.56l3.488 3.553zM89.34 14.17a2.078 2.078 0 1 1-2.015 2.078 2.047 2.047 0 0 1 2.016-2.077M66.138 14.17a2.077 2.077 0 1 1-2.016 2.078 2.05 2.05 0 0 1 2.016-2.077" class="fil0"/><path d="M75.057 130.81a1.602 1.602 0 1 1-1.556 1.603 1.58 1.58 0 0 1 1.556-1.603zM90.66 120.332l1.572 1.643 6.427-6.154c2.318-2.223.608-4.777-1.667-4.673l-6.399.874 3.977-3.813-1.538-1.608s-5.77 5.022-6.616 6.613a2.507 2.507 0 0 0 2.62 3.632c1.395-.196 6.118-.826 6.118-.826zM53.812 115.655l6.03-5.774-3.18-3.302-7.61 7.354 6.88 7.145 1.622-1.558zM44.537 101.577l.6-5.894 2.543 4.368 1.765-1.024s-.657-1.265-1.491-2.754l.9-.477-1.889-3.256-.944.502a7.7 7.7 0 0 0-1.046-1.341 2.299 2.299 0 0 0-3.803 1.554c-.126 1.285-.583 5.633-.583 5.633l-2.876-4.936-1.804 1.046 4.102 7.058c1.481 2.546 4.128 1.573 4.526-.48M113.422 95.714l-7.272 1.556-1.095-6.59-1.94 3.055.905 5.447-3.104-1.97-2.214 3.489 8.24 5.232 2.215-3.49-2.914-1.848 4.716-1.004zM76.17 118.985h-3.988l-5.592 9.273 3.555 2.14 1.947-3.251h5.955l2.305 3.335 2.494-1.711zm-2.86 6.238 1.575-2.685 1.87 2.686zM114.105 80.177a2.077 2.077 0 1 1-2.016 2.077 2.05 2.05 0 0 1 2.016-2.077M37.907 82.436c0 1.147-.902 2.076-2.016 2.076s-2.016-.93-2.016-2.076c0-1.147.903-2.077 2.016-2.077 1.114 0 2.016.93 2.016 2.077" class="fil5"/><path d="m103.17 51.777 5.27 1.922a45 45 0 0 0 1.492-5.061 5.83 5.83 0 0 1-3.605-5.39 5.84 5.84 0 0 0-10.88-2.938 5.79 5.79 0 0 1-5.006 2.852v3.858a1.437 1.437 0 0 1 .985 2.484 9.72 9.72 0 0 1-7.907 3.26 1.5 1.5 0 0 1-1.322-1.01c-1.941-5.831-.872-10.075-.872-10.075.354-1.43 1.703-2.198 3.41-2.672 1.625-.452 1.822-2.383 1.822-2.383a9.1 9.1 0 0 1-5.518.816c2.385-2.328 5.421-2.615 6.059-2.27.481.26.749.795.67 1.337a2.617 2.617 0 0 0-1.931-4.387 8.5 8.5 0 0 0-2.044.247 2.6 2.6 0 0 0-1.562-.931 8.4 8.4 0 0 0-7.379 2.366l.002 27.152a26.76 26.76 0 0 0 23.43-13.831 1.832 1.832 0 1 1 .598-3.002 1.832 1.832 0 1 1 2.12.887 1.834 1.834 0 1 1-1.711 2.561 25.735 25.735 0 0 1-24.436 17.683l.003 43.202a11.03 11.03 0 0 0 4.548-8.33 5.815 5.815 0 0 0 7.38-5.68 5.8 5.8 0 0 1-3.08.886c-4.297 0-5.743-5.556-5.743-8.162a10.5 10.5 0 0 1 1.364-5.256c.408 1.04.996 2 1.737 2.838.442-.679.896-1.325 1.371-1.946l.732 1.325a1.034 1.034 0 0 1-.406 1.406 3.394 3.394 0 0 0 1.402 6.414 3.248 3.248 0 0 1 4.929-3.946c.512.397 1.2.485 1.795.23a4.67 4.67 0 0 0-1.546-2.608 3.29 3.29 0 0 1 3.415.142c.28.201 1.162.79 1.967.346a4.68 4.68 0 0 0-1.547-2.608 3.29 3.29 0 0 1 3.417.143c.28.2 1.182.778 1.981.336a4.907 4.907 0 0 0-7.167-3.223L87.75 82.78c-.5.276-1.13.095-1.407-.405l-1.31-2.37q.72-.624 1.51-1.154h-.02q.03-.013.056-.027h-.001l-2.756-7.215.004-.005c.6-.298 1.19-.614 1.774-.94l-.072.049 5.006 5.783q2.064-1.364 3.97-2.94l-3.308-6.623-.05.032a42 42 0 0 0 1.548-1.282l-.021.023 5.66 4.292a46 46 0 0 0 3.32-3.86l-4.218-5.304-.03.03a42 42 0 0 0 1.233-1.552l-.008.014 5.819 2.74a46 46 0 0 0 2.478-4.655l-4.65-3.839-.022.037c.316-.601.623-1.208.91-1.827zM78.688 33.03c1.245-.283 2.169.742 3.803-.049-1.477 2.279-3.876 1.839-3.803.05" class="fil1"/><path d="M50.414 47.569a1.833 1.833 0 1 1-1.711-2.561 1.836 1.836 0 1 1 2.12-.887 1.834 1.834 0 1 1 .599 3.002A26.76 26.76 0 0 0 74.85 60.954l.001-27.153a8.4 8.4 0 0 0-7.378-2.365 2.6 2.6 0 0 0-1.563.93 8.5 8.5 0 0 0-2.043-.246 2.618 2.618 0 0 0-1.93 4.387 1.31 1.31 0 0 1 .67-1.338c.637-.345 3.673-.058 6.058 2.271a9.1 9.1 0 0 1-5.518-.816s.197 1.931 1.822 2.383c1.708.474 3.057 1.241 3.41 2.672 0 0 1.07 4.244-.872 10.075-.197.571-.718.969-1.322 1.009q-.31.02-.625.02a9.72 9.72 0 0 1-7.282-3.279 1.437 1.437 0 0 1 .986-2.484v-3.858a5.79 5.79 0 0 1-5.007-2.852 5.838 5.838 0 0 0-10.88 2.939 5.83 5.83 0 0 1-3.605 5.389c.4 1.714.897 3.404 1.492 5.061l5.269-1.922.006.005c.288.619.594 1.226.91 1.828l-.022-.037-4.65 3.838a46 46 0 0 0 2.48 4.655l5.818-2.74-.009-.014q.599.791 1.234 1.553l-.03-.031-4.217 5.304a46 46 0 0 0 3.32 3.86l5.66-4.292-.022-.023q.757.66 1.547 1.282l-.049-.032-3.308 6.623a46 46 0 0 0 3.97 2.94l5.006-5.783-.073-.048q.875.489 1.775.94l.004.004-2.756 7.215h-.002l.056.028h-.02a15 15 0 0 1 1.51 1.153l-1.31 2.37c-.276.5-.905.681-1.405.405l-3.659-2.02a4.905 4.905 0 0 0-7.167 3.224c.8.443 1.701-.135 1.982-.336a3.29 3.29 0 0 1 3.415-.143 4.7 4.7 0 0 0-1.546 2.608c.804.445 1.686-.145 1.967-.346a3.29 3.29 0 0 1 3.415-.142 4.66 4.66 0 0 0-1.546 2.608 1.78 1.78 0 0 0 1.795-.23 3.249 3.249 0 0 1 4.93 3.947 3.395 3.395 0 0 0 1.4-6.414 1.036 1.036 0 0 1-.405-1.407c.007-.01.327-.59.732-1.324.474.62.928 1.267 1.37 1.945a9.5 9.5 0 0 0 1.737-2.838 10.5 10.5 0 0 1 1.365 5.256c0 2.606-1.446 8.162-5.743 8.162a5.8 5.8 0 0 1-3.08-.886 5.814 5.814 0 0 0 7.38 5.681 11.03 11.03 0 0 0 4.548 8.33l.003-43.202a25.74 25.74 0 0 1-24.436-17.684zm16.801-14.587c1.634.791 2.559-.234 3.804.05.073 1.789-2.326 2.229-3.804-.05" class="fil5"/><path d="M74.883 1.847c20.281 0 40.315 3.307 57.935 9.564l1.416.503v1.503q0 5.353-.147 10.456a32.32 32.32 0 0 1 11.119 19.551l.544 3.327c.21 1.287.471 9.693.54 12.79.12 1.114.148 2.236.085 3.355a41.8 41.8 0 0 0-.287 8.745c.207 5.609.385 10.453-5.939 15.757l-1.395 1.17c1.042 4.858.63 9.652-1.197 12.73a8 8 0 0 1-1.894 2.196l.034.002-3.702 3.334c-1.741 1.57-2.544 3.999-3.393 6.57-1.327 4.017-2.915 8.81-8.675 10.786l-.574 1.325c-2.41 5.559-4.81 9.402-7.558 12.094a17.4 17.4 0 0 1-12.077 5.129l-.847.03c-2.105 2.681-6.859 4.463-11.803 5.194 0 0-2.822 4.81-7.573 4.81a8.24 8.24 0 0 1-3.84-1.015 6.5 6.5 0 0 1-4.072 1.426c-4.395 0-8.324-4.205-8.324-4.205-5.333-.267-11.242-4.15-13.911-7.768l-2.304-.769c-6.562-2.188-10.794-4.508-13.318-7.3-2.42-2.679-2.965-5.464-3.445-7.921a78 78 0 0 0-.218-1.082l-2.156-1.458c-6.602-4.464-7.664-7.838-8.79-11.41a24.3 24.3 0 0 0-4.22-8.453s-2.32-3.16-2.848-4.596a34.9 34.9 0 0 1-2.165-12.6l-1.99-3.598C5.218 77.184 4.02 71.32 4.23 64.091l.059-1.477C.559 57.95-.901 31.445 15.217 25.168l.51-.14v.015-.014q-.18-5.658-.182-11.612v-1.504l1.417-.503c17.62-6.256 37.65-9.563 57.921-9.563zm0-1.847c-20.48 0-40.723 3.344-58.54 9.67l-1.416.503-1.23.437v2.807c0 3.462.049 6.927.143 10.322C7.81 26.364 3.518 31.892 1.4 39.78c-2.419 9-1.459 19.345 1.02 23.375l-.035.861c-.221 7.59 1.052 13.764 3.892 18.897l1.762 3.185a36 36 0 0 0 2.286 12.784c.578 1.572 2.67 4.461 3.084 5.024a22.5 22.5 0 0 1 3.947 7.913c1.171 3.718 2.381 7.562 9.516 12.386l1.531 1.036.065.329c.5 2.56 1.123 5.745 3.887 8.804 2.746 3.038 7.227 5.521 14.104 7.815l1.77.59c2.9 3.613 8.604 7.42 14.215 7.984 1.336 1.252 4.98 4.262 9.14 4.262a8.2 8.2 0 0 0 4.241-1.16c1.163.485 2.41.74 3.67.748 4.518 0 7.515-3.396 8.655-4.959 2.99-.516 8.51-1.864 11.585-5.074l.047-.001a19.17 19.17 0 0 0 13.305-5.655c2.924-2.866 5.453-6.894 7.96-12.68l.263-.605c6-2.433 7.752-7.741 9.046-11.66.77-2.332 1.496-4.535 2.875-5.777l3.702-3.335 3.266-2.942-.846-.053c1.732-3.19 2.247-7.795 1.42-12.587l.563-.473c7.016-5.885 6.813-11.4 6.598-17.24l-.022-.556a38 38 0 0 1 .286-7.826 20 20 0 0 0-.063-3.761c-.045-1.989-.303-11.393-.562-12.977l-.537-3.28a34 34 0 0 0-11.079-20.124c.082-3.19.124-6.425.124-9.632V10.61l-1.23-.437-1.416-.503C115.62 3.344 95.373 0 74.883 0" class="fil5"/></g></g></svg>