<svg xmlns="http://www.w3.org/2000/svg" xmlns:xlink="http://www.w3.org/1999/xlink" version="1.2" viewBox="0 0 126.69 157.94"><use xlink:href="#a" width="100%" height="100%" x="164.84" y="273.366" style="fill:#e61c45;fill-opacity:1" transform="translate(-129.2 -43.078)"/><use xlink:href="#b" width="100%" height="100%" x="203.807" y="340.866" style="fill:#30303f;fill-opacity:1" transform="translate(-129.2 -43.078)"/><use xlink:href="#b" width="100%" height="100%" x="312.122" y="340.866" style="fill:#30303f;fill-opacity:1" transform="translate(-129.2 -43.078)"/><use xlink:href="#b" width="100%" height="100%" x="199.208" y="354.366" style="fill:#30303f;fill-opacity:1" transform="translate(-129.2 -43.078)"/><use xlink:href="#b" width="100%" height="100%" x="166.229" y="367.866" style="fill:#30303f;fill-opacity:1" transform="translate(-129.2 -43.078)"/><use xlink:href="#b" width="100%" height="100%" x="190.028" y="367.866" style="fill:#30303f;fill-opacity:1" transform="translate(-129.2 -43.078)"/><use xlink:href="#b" width="100%" height="100%" x="213.747" y="367.866" style="fill:#30303f;fill-opacity:1" transform="translate(-129.2 -43.078)"/><use xlink:href="#b" width="100%" height="100%" x="235.496" y="367.866" style="fill:#30303f;fill-opacity:1" transform="translate(-129.2 -43.078)"/><use xlink:href="#b" width="100%" height="100%" x="222.491" y="381.366" style="fill:#30303f;fill-opacity:1" transform="translate(-129.2 -43.078)"/><use xlink:href="#b" width="100%" height="100%" x="179.921" y="448.866" style="fill:#30303f;fill-opacity:1" transform="translate(-129.2 -43.078)"/><use xlink:href="#b" width="100%" height="100%" x="296.415" y="448.866" style="fill:#30303f;fill-opacity:1" transform="translate(-129.2 -43.078)"/><use xlink:href="#a" width="100%" height="100%" x="179.418" y="462.366" style="fill:#30303f;fill-opacity:1" transform="translate(-129.2 -43.078)"/><use xlink:href="#b" width="100%" height="100%" x="239.063" y="462.366" style="fill:#30303f;fill-opacity:1" transform="translate(-129.2 -43.078)"/><use xlink:href="#a" width="100%" height="100%" x="179.707" y="475.866" style="fill:#30303f;fill-opacity:1" transform="translate(-129.2 -43.078)"/><use xlink:href="#b" width="100%" height="100%" x="239.348" y="475.866" style="fill:#30303f;fill-opacity:1" transform="translate(-129.2 -43.078)"/><use xlink:href="#a" width="100%" height="100%" x="179.868" y="489.366" style="fill:#30303f;fill-opacity:1" transform="translate(-129.2 -43.078)"/><use xlink:href="#b" width="100%" height="100%" x="239.51" y="489.366" style="fill:#30303f;fill-opacity:1" transform="translate(-129.2 -43.078)"/><use xlink:href="#a" width="100%" height="100%" x="179.885" y="502.866" style="fill:#30303f;fill-opacity:1" transform="translate(-129.2 -43.078)"/><use xlink:href="#c" width="100%" height="100%" x="232.754" y="543.366" style="fill:#e61c45;fill-opacity:1" transform="translate(-129.2 -43.078)"/><use xlink:href="#b" width="100%" height="100%" x="143.858" y="597.366" style="fill:#30303f;fill-opacity:1" transform="translate(-129.2 -43.078)"/><use xlink:href="#c" width="100%" height="100%" x="199.862" y="610.866" style="fill:#e61c45;fill-opacity:1" transform="translate(-129.2 -43.078)"/><use xlink:href="#b" width="100%" height="100%" x="170.615" y="624.366" style="fill:#30303f;fill-opacity:1" transform="translate(-129.2 -43.078)"/><use xlink:href="#b" width="100%" height="100%" x="263.026" y="624.366" style="fill:#30303f;fill-opacity:1" transform="translate(-129.2 -43.078)"/><use xlink:href="#b" width="100%" height="100%" x="180.578" y="637.866" style="fill:#30303f;fill-opacity:1" transform="translate(-129.2 -43.078)"/><use xlink:href="#b" width="100%" height="100%" x="172.208" y="651.366" style="fill:#30303f;fill-opacity:1" transform="translate(-129.2 -43.078)"/><use xlink:href="#a" width="100%" height="100%" x="182.69" y="664.866" style="fill:#30303f;fill-opacity:1" transform="translate(-129.2 -43.078)"/><use xlink:href="#b" width="100%" height="100%" x="205.121" y="664.866" style="fill:#30303f;fill-opacity:1" transform="translate(-129.2 -43.078)"/><use xlink:href="#b" width="100%" height="100%" x="219.1" y="678.366" style="fill:#30303f;fill-opacity:1" transform="translate(-129.2 -43.078)"/><use xlink:href="#b" width="100%" height="100%" x="242.22" y="678.366" style="fill:#30303f;fill-opacity:1" transform="translate(-129.2 -43.078)"/><use xlink:href="#b" width="100%" height="100%" x="287.065" y="678.366" style="fill:#30303f;fill-opacity:1" transform="translate(-129.2 -43.078)"/><use xlink:href="#a" width="100%" height="100%" x="378.217" y="97.866" style="fill:#30303f;fill-opacity:1" transform="translate(-129.2 -43.078)"/><use xlink:href="#a" width="100%" height="100%" x="380.125" y="97.866" style="fill:#30303f;fill-opacity:1" transform="translate(-129.2 -43.078)"/><use xlink:href="#b" width="100%" height="100%" x="404.111" y="111.366" style="fill:#30303f;fill-opacity:1" transform="translate(-129.2 -43.078)"/><use xlink:href="#b" width="100%" height="100%" x="327.402" y="124.866" style="fill:#30303f;fill-opacity:1" transform="translate(-129.2 -43.078)"/><use xlink:href="#b" width="100%" height="100%" x="334.587" y="124.866" style="fill:#30303f;fill-opacity:1" transform="translate(-129.2 -43.078)"/><use xlink:href="#b" width="100%" height="100%" x="336.481" y="124.866" style="fill:#30303f;fill-opacity:1" transform="translate(-129.2 -43.078)"/><use xlink:href="#a" width="100%" height="100%" x="380.235" y="124.866" style="fill:#30303f;fill-opacity:1" transform="translate(-129.2 -43.078)"/><use xlink:href="#b" width="100%" height="100%" x="327.396" y="138.366" style="fill:#30303f;fill-opacity:1" transform="translate(-129.2 -43.078)"/><use xlink:href="#b" width="100%" height="100%" x="343.087" y="151.866" style="fill:#30303f;fill-opacity:1" transform="translate(-129.2 -43.078)"/><use xlink:href="#b" width="100%" height="100%" x="344.98" y="151.866" style="fill:#30303f;fill-opacity:1" transform="translate(-129.2 -43.078)"/><use xlink:href="#a" width="100%" height="100%" x="377.054" y="151.866" style="fill:#30303f;fill-opacity:1" transform="translate(-129.2 -43.078)"/><use xlink:href="#a" width="100%" height="100%" x="378.961" y="151.866" style="fill:#30303f;fill-opacity:1" transform="translate(-129.2 -43.078)"/><use xlink:href="#b" width="100%" height="100%" x="461.05" y="165.366" style="fill:#30303f;fill-opacity:1" transform="translate(-129.2 -43.078)"/><use xlink:href="#b" width="100%" height="100%" x="338.74" y="178.866" style="fill:#30303f;fill-opacity:1" transform="translate(-129.2 -43.078)"/><use xlink:href="#b" width="100%" height="100%" x="340.633" y="178.866" style="fill:#30303f;fill-opacity:1" transform="translate(-129.2 -43.078)"/><use xlink:href="#b" width="100%" height="100%" x="386.746" y="178.866" style="fill:#30303f;fill-opacity:1" transform="translate(-129.2 -43.078)"/><use xlink:href="#b" width="100%" height="100%" x="388.636" y="178.866" style="fill:#30303f;fill-opacity:1" transform="translate(-129.2 -43.078)"/><use xlink:href="#b" width="100%" height="100%" x="451.906" y="192.366" style="fill:#30303f;fill-opacity:1" transform="translate(-129.2 -43.078)"/><use xlink:href="#b" width="100%" height="100%" x="341.476" y="205.866" style="fill:#30303f;fill-opacity:1" transform="translate(-129.2 -43.078)"/><use xlink:href="#b" width="100%" height="100%" x="343.37" y="205.866" style="fill:#30303f;fill-opacity:1" transform="translate(-129.2 -43.078)"/><use xlink:href="#a" width="100%" height="100%" x="382.115" y="205.866" style="fill:#30303f;fill-opacity:1" transform="translate(-129.2 -43.078)"/><use xlink:href="#a" width="100%" height="100%" x="384.019" y="205.866" style="fill:#30303f;fill-opacity:1" transform="translate(-129.2 -43.078)"/><use xlink:href="#b" width="100%" height="100%" x="413.181" y="273.366" style="fill:#30303f;fill-opacity:1" transform="translate(-129.2 -43.078)"/><use xlink:href="#b" width="100%" height="100%" x="453.827" y="273.366" style="fill:#30303f;fill-opacity:1" transform="translate(-129.2 -43.078)"/><use xlink:href="#b" width="100%" height="100%" x="490.167" y="273.366" style="fill:#30303f;fill-opacity:1" transform="translate(-129.2 -43.078)"/><use xlink:href="#a" width="100%" height="100%" x="388.022" y="286.866" style="fill:#30303f;fill-opacity:1" transform="translate(-129.2 -43.078)"/><use xlink:href="#b" width="100%" height="100%" x="427.086" y="286.866" style="fill:#30303f;fill-opacity:1" transform="translate(-129.2 -43.078)"/><use xlink:href="#b" width="100%" height="100%" x="463.716" y="286.866" style="fill:#30303f;fill-opacity:1" transform="translate(-129.2 -43.078)"/><use xlink:href="#b" width="100%" height="100%" x="407.722" y="300.366" style="fill:#30303f;fill-opacity:1" transform="translate(-129.2 -43.078)"/><use xlink:href="#b" width="100%" height="100%" x="401.64" y="354.366" style="fill:#30303f;fill-opacity:1" transform="translate(-129.2 -43.078)"/><use xlink:href="#a" width="100%" height="100%" x="356.524" y="367.866" style="fill:#30303f;fill-opacity:1" transform="translate(-129.2 -43.078)"/><use xlink:href="#b" width="100%" height="100%" x="454.536" y="367.866" style="fill:#30303f;fill-opacity:1" transform="translate(-129.2 -43.078)"/><use xlink:href="#b" width="100%" height="100%" x="389.943" y="381.366" style="fill:#30303f;fill-opacity:1" transform="translate(-129.2 -43.078)"/><use xlink:href="#c" width="100%" height="100%" x="417.903" y="421.866" style="fill:#e61c45;fill-opacity:1" transform="translate(-129.2 -43.078)"/><use xlink:href="#b" width="100%" height="100%" x="336.72" y="462.366" style="fill:#30303f;fill-opacity:1" transform="translate(-129.2 -43.078)"/><use xlink:href="#b" width="100%" height="100%" x="366.171" y="462.366" style="fill:#30303f;fill-opacity:1" transform="translate(-129.2 -43.078)"/><use xlink:href="#c" width="100%" height="100%" x="327.402" y="529.866" style="fill:#e61c45;fill-opacity:1" transform="translate(-129.2 -43.078)"/><use xlink:href="#c" width="100%" height="100%" x="458.406" y="543.366" style="fill:#e61c45;fill-opacity:1" transform="translate(-129.2 -43.078)"/><use xlink:href="#b" width="100%" height="100%" x="376.964" y="651.366" style="fill:#30303f;fill-opacity:1" transform="translate(-129.2 -43.078)"/><use xlink:href="#b" width="100%" height="100%" x="327.402" y="664.866" style="fill:#30303f;fill-opacity:1" transform="translate(-129.2 -43.078)"/><use xlink:href="#b" width="100%" height="100%" x="327.402" y="678.366" style="fill:#30303f;fill-opacity:1" transform="translate(-129.2 -43.078)"/><path d="m129.2 43.078 1.195 2.988 60.152 149.98 1.992 4.974 2-4.973 60.152-149.98 1.2-2.989zm0 0" style="fill:#d7b368;fill-opacity:1;fill-rule:nonzero;stroke:none" transform="translate(-129.2 -43.078)"/><path d="m189.395 185.07-10.458-86.793-23.46.004zm0 0" style="fill:#00943f;fill-opacity:1;fill-rule:nonzero;stroke:none" transform="translate(-129.2 -43.078)"/><path d="m207.39 98.277-11.69 86.766 33.91-86.766zm0 0" style="fill:#e30511;fill-opacity:1;fill-rule:nonzero;stroke:none" transform="translate(-129.2 -43.078)"/><path d="m181.586 98.277 10.93 90.684 12.218-90.684zm0 0" style="fill:#000;fill-opacity:1;fill-rule:nonzero;stroke:none" transform="translate(-129.2 -43.078)"/><path d="M154.617 96.008h75.88l5.675-14.516h-87.25zM147.973 79.473l88.953.074 12.758-32.633H135.398Zm0 0" style="fill:#fff;fill-opacity:1;fill-rule:nonzero;stroke:none" transform="translate(-129.2 -43.078)"/><path d="M163.078 50.246c7.11 0 12.91 5.8 12.91 12.914 0 7.11-5.8 12.914-12.91 12.914-7.113 0-12.914-5.804-12.914-12.914 0-7.113 5.8-12.914 12.914-12.914m0 2.524c5.719 0 10.387 4.667 10.387 10.39s-4.668 10.39-10.387 10.39c-5.723 0-10.39-4.667-10.39-10.39 0-5.722 4.667-10.39 10.39-10.39M193.148 50.246c7.11 0 12.91 5.8 12.91 12.914 0 7.11-5.8 12.914-12.91 12.914-7.113 0-12.914-5.804-12.914-12.914 0-7.113 5.801-12.914 12.914-12.914m0 2.524c5.72 0 10.387 4.667 10.387 10.39s-4.668 10.39-10.387 10.39c-5.722 0-10.39-4.667-10.39-10.39 0-5.722 4.668-10.39 10.39-10.39M223.242 50.246c7.113 0 12.914 5.8 12.914 12.914 0 7.11-5.8 12.914-12.914 12.914s-12.914-5.804-12.914-12.914c0-7.113 5.8-12.914 12.914-12.914m0 2.524c5.723 0 10.39 4.667 10.39 10.39s-4.667 10.39-10.39 10.39c-5.719 0-10.39-4.667-10.39-10.39 0-5.722 4.671-10.39 10.39-10.39" style="fill:#d7b368;fill-opacity:1;fill-rule:evenodd;stroke:none" transform="translate(-129.2 -43.078)"/><path d="M164.078 62.07h6.031v7.778h-1.742l-.457-1.422c-.484.672-1.93 1.844-4.836 1.844-4.898 0-7.05-2.555-7.05-7.278 0-4.035 2.183-7.281 7.035-7.281 3.093 0 6.582.98 7.05 4.937h-4.222c-.239-1.058-.91-1.98-2.672-1.98-2.29 0-3.328 1.922-3.328 4.34 0 2.383 1.039 4.304 3.328 4.304 1.84 0 2.797-.843 3.156-2.402h-2.293zM186.266 56.133h3.738v5.379l4.68-5.38h4.976l-5.07 5.4 5.465 8.316h-4.992l-3.473-5.473-1.586 1.613v3.86h-3.738zM225.152 60.148c-.113-.941-.726-1.593-2.437-1.593-1.254 0-1.945.441-1.945 1.343 0 .461.265.73.832.844.941.192 3.816.711 4.914.942 2.09.441 3.347 1.48 3.347 3.898 0 4.648-4.933 4.688-6.472 4.688-3.801 0-6.547-.825-6.766-4.649h4.426c.097 1.04.566 1.692 2.512 1.692.945 0 1.964-.27 1.964-1.442 0-.73-.468-.98-1.773-1.23l-3.738-.692c-2.309-.422-3.203-1.844-3.203-3.879 0-1.804.91-4.36 5.824-4.36 4.07 0 6.515 1.192 6.754 4.438zm0 0" style="fill:#000;fill-opacity:1;fill-rule:nonzero;stroke:none" transform="translate(-129.2 -43.078)"/><path d="M212.695 83.285h4.145l2.433 3.684 2.438-3.684h4.11l-4.688 6.348v4.574h-3.735v-4.574zm-12.8 0h3.726v3.82h4.074v-3.82h3.746v10.922h-3.746v-4.418h-4.074v4.418h-3.726zm-5.09 6.457 3.261.899q-.326 1.236-1.035 2.074a4.43 4.43 0 0 1-1.758 1.258q-1.05.426-2.668.425c-1.312 0-2.386-.175-3.214-.52q-1.244-.516-2.153-1.82-.902-1.302-.902-3.335c0-1.813.527-3.196 1.59-4.168 1.062-.965 2.562-1.453 4.508-1.453 1.52 0 2.71.273 3.582.828.87.558 1.515 1.418 1.937 2.566l-3.293.66q-.17-.492-.36-.726a2.16 2.16 0 0 0-.765-.598q-.452-.209-1.012-.207-1.266.001-1.941.922-.511.684-.512 2.152 0 1.82.61 2.492c.406.454.976.672 1.71.672.712 0 1.25-.175 1.618-.539.363-.363.629-.894.797-1.582m-21.348-6.457h4.14l2.434 3.684 2.438-3.684h4.113l-4.691 6.348v4.574h-3.735v-4.574zm-11.8 0h11.331v2.7h-3.804v8.222h-3.727v-8.223h-3.8zm0 0" style="fill:#d7b368;fill-opacity:1;fill-rule:evenodd;stroke:none" transform="translate(-129.2 -43.078)"/></svg>