<svg xmlns="http://www.w3.org/2000/svg" xml:space="preserve" width="765.903" height="744.217"><defs><clipPath id="a" clipPathUnits="userSpaceOnUse"><path d="M0 600h800V0H0Z"/></clipPath></defs><g clip-path="url(#a)" transform="matrix(1.33333 0 0 -1.33333 -147.358 775.047)"><path d="M0 0h-35.927c-19.093 81.291-76.604 147.764-152.335 179.224v61.575h-197.904v-61.575C-461.895 147.764-519.409 81.291-538.498 0h-35.929v-105.933h33.311c21.975-120.266 127.288-211.431 253.902-211.431 126.616 0 231.927 91.165 253.901 211.431H0Z" style="fill:#1860aa;fill-opacity:1;fill-rule:nonzero;stroke:none" transform="translate(684.945 340.486)"/><path d="M0 0c23.629-23.627 40.656-52.095 50.17-83.165h-93.622V33.1C-27.73 24.205-13.119 13.121 0 0" style="fill:#fff;fill-opacity:1;fill-rule:nonzero;stroke:none" transform="translate(540.136 423.65)"/><path d="M0 0c13.12 13.121 27.732 24.205 43.452 33.1V-83.165H-50.17C-40.655-52.095-23.627-23.627 0 0" style="fill:#fff;fill-opacity:1;fill-rule:nonzero;stroke:none" transform="translate(255.328 423.65)"/><path d="M0 0c-38.038-38.038-88.611-58.986-142.404-58.986S-246.771-38.038-284.808 0c-26.774 26.774-45.066 59.764-53.561 95.71h391.93C45.066 59.764 26.774 26.774 0 0" style="fill:#fff;fill-opacity:1;fill-rule:nonzero;stroke:none" transform="translate(540.136 138.844)"/><path d="M0 0h-560.115v91.62h182.71c7.636-4.11 42.351-20.996 97.347-20.996 54.997 0 89.713 16.886 97.347 20.996H0Z" style="fill:#fff;fill-opacity:1;fill-rule:nonzero;stroke:none" transform="translate(677.79 241.71)"/><path d="m0 0 17.168.897q.559-3.484 2.271-5.311 2.788-2.953 7.967-2.953 3.864 0 5.955 1.51t2.091 3.501q0 1.893-1.992 3.387c-1.328.994-4.408 1.937-9.241 2.821Q12.348 6.077 7.29 9.762q-5.099 3.683-5.098 9.392 0 3.752 2.609 7.088 2.608 3.334 7.846 5.244t14.36 1.909q11.193 0 17.069-3.47 5.876-3.468 6.99-11.036l-17.009-.83q-.678 3.286-2.848 4.779-2.17 1.495-5.994 1.494-3.147 0-4.741-1.111-1.592-1.113-1.593-2.706 0-1.16 1.315-2.09 1.274-.964 6.054-1.792 11.83-2.129 16.95-4.298 5.117-2.175 7.449-5.398 2.33-3.216 2.33-7.201 0-4.68-3.107-8.631-3.108-3.95-8.684-5.992-5.576-2.04-14.061-2.04-14.898 0-20.633 4.779Q.757-7.368 0 0" style="fill:#1860aa;fill-opacity:1;fill-rule:nonzero;stroke:none" transform="translate(194.685 271.176)"/><path d="M0 0h18.863l13.142-35.019L44.981 0h18.314L41.611-48.665H22.054Z" style="fill:#1860aa;fill-opacity:1;fill-rule:nonzero;stroke:none" transform="translate(250.683 303.74)"/><path d="M0 0h18.044v-17.028h19.718V0h18.123v-48.665H37.762v19.687H18.044v-19.687H0Z" style="fill:#1860aa;fill-opacity:1;fill-rule:nonzero;stroke:none" transform="translate(346.506 303.74)"/><path d="M0 0q0-7.371 3.286-10.589 3.286-3.222 8.941-3.221 5.817 0 9.004 3.154Q24.416-7.503 24.416.663q.002 6.872-3.325 10.041c-2.217 2.112-5.227 3.171-9.021 3.171q-5.46-.001-8.762-3.22Q0 7.435 0 0m-18.046.065q0 11.916 7.968 18.556 7.964 6.638 22.187 6.639 14.58 0 22.465-6.524 7.888-6.518 7.887-18.272 0-8.532-3.443-13.992-3.447-5.46-9.96-8.496c-4.339-2.026-9.752-3.038-16.23-3.038q-9.881 0-16.354 2.622-6.474 2.623-10.496 8.298-4.024 5.676-4.024 14.207" style="fill:#1860aa;fill-opacity:1;fill-rule:nonzero;stroke:none" transform="translate(429.83 279.31)"/><path d="M0 0h7.606q1.237 0 4.783.665 1.793.298 2.925 1.527 1.138 1.228 1.137 2.821 0 2.357-1.793 3.617-1.792 1.264-6.732 1.265H0Zm-18.125-28.946v48.664h30.076q8.364 0 12.785-1.196 4.423-1.193 7.13-4.429 2.708-3.239 2.709-7.885 0-4.05-2.074-6.986-2.072-2.94-5.697-4.764c-1.541-.776-3.655-1.415-6.338-1.926q3.225-.898 4.697-1.795.994-.598 2.886-2.557 1.89-1.962 2.528-3.022l8.737-14.104H18.927L9.279-14.072q-1.829 2.886-3.265 3.75-1.951 1.13-4.42 1.128H0v-19.752z" style="fill:#1860aa;fill-opacity:1;fill-rule:nonzero;stroke:none" transform="translate(500.047 284.022)"/><path d="M0 0h16.849l21.99-26.923V0h17.008v-48.665H38.839l-21.87 26.72v-26.72H0Z" style="fill:#1860aa;fill-opacity:1;fill-rule:nonzero;stroke:none" transform="translate(544.93 303.74)"/><path d="M0 0h-39.411l-144.182-191.525v-44.077c4.594-2.28 13.664-6.33 26.656-10.111L0-37.246Z" style="fill:#fff;fill-opacity:1;fill-rule:nonzero;stroke:none" transform="translate(489.528 574.13)"/><path d="M0 0v-91.12L68.596 0Z" style="fill:#fff;fill-opacity:1;fill-rule:nonzero;stroke:none" transform="translate(305.935 574.13)"/><path d="m0 0-88.049-116.959c46.87.687 78.046 14.04 88.049 19.007z" style="fill:#fff;fill-opacity:1;fill-rule:nonzero;stroke:none" transform="translate(489.528 436.48)"/></g></svg>