<svg xmlns="http://www.w3.org/2000/svg" xml:space="preserve" width="535.732" height="792" style="max-height:500px" viewBox="265.467 4.8 535.732 792"><defs><clipPath id="a" clipPathUnits="userSpaceOnUse"><path d="M0 600h800V0H0Z"/></clipPath></defs><g clip-path="url(#a)" transform="matrix(1.33333 0 0 -1.33333 0 800)"><path d="M0 0v-342.693c17.222-102.681 94.823-202.775 193.412-238.939C292-545.468 369.601-445.374 386.823-342.693V0Z" style="fill:#dfb800;fill-opacity:1;fill-rule:nonzero;stroke:none" transform="translate(206.82 590.47)"/><path d="M0 0c7.181-28.172 19.091-55.964 34.784-81.741l313.702 200.89v104.015z" style="fill:#000;fill-opacity:1;fill-rule:nonzero;stroke:none" transform="translate(228.148 229.15)"/><path d="M0 0v-21.3c1.184-1.54 2.353-3.094 3.566-4.611a311 311 0 0 1 29.83-32.359v79.656z" style="fill:#fff;fill-opacity:1;fill-rule:nonzero;stroke:none" transform="translate(282.729 139.894)"/><path d="M0 0v166.827h-33.396V-21.385Z" style="fill:#fff;fill-opacity:1;fill-rule:nonzero;stroke:none" transform="translate(316.125 305.681)"/><path d="M0 0v102.274h-33.394v-123.66Z" style="fill:#fff;fill-opacity:1;fill-rule:nonzero;stroke:none" transform="translate(416.926 370.234)"/><path d="M0 0v-169.971c5.494-2.694 11.057-5.197 16.699-7.44 5.639 2.243 11.2 4.746 16.695 7.44V21.384Z" style="fill:#fff;fill-opacity:1;fill-rule:nonzero;stroke:none" transform="translate(383.532 204.448)"/><path d="M0 0v37.723h-33.396v-59.109Z" style="fill:#fff;fill-opacity:1;fill-rule:nonzero;stroke:none" transform="translate(517.73 434.786)"/><path d="M0 0v-187.376a311.5 311.5 0 0 1 29.83 32.36c1.213 1.515 2.38 3.07 3.566 4.61V21.388Z" style="fill:#fff;fill-opacity:1;fill-rule:nonzero;stroke:none" transform="translate(484.335 268.998)"/><path d="M0 0h-41.896v-26.832Z" style="fill:#009540;fill-opacity:1;fill-rule:nonzero;stroke:none" transform="translate(576.634 472.508)"/><path d="M0 0c20.899 33.077 35.571 69.703 41.896 106.309v78.896L0 158.374Z" style="fill:#009540;fill-opacity:1;fill-rule:nonzero;stroke:none" transform="translate(534.737 142.902)"/><path d="M0 0v-193.087c11.585 6.81 22.752 14.573 33.393 23.161V21.386Z" style="fill:#009540;fill-opacity:1;fill-rule:nonzero;stroke:none" transform="translate(433.934 236.723)"/><path d="M0 0v70h-33.393v-91.385Z" style="fill:#009540;fill-opacity:1;fill-rule:nonzero;stroke:none" transform="translate(467.326 402.509)"/><path d="M0 0v134.55h-33.397V-21.386Z" style="fill:#009540;fill-opacity:1;fill-rule:nonzero;stroke:none" transform="translate(366.527 337.958)"/><path d="M0 0v-105.372c10.645-8.588 21.809-16.354 33.397-23.165V21.386Z" style="fill:#009540;fill-opacity:1;fill-rule:nonzero;stroke:none" transform="translate(333.13 172.17)"/><path d="m0 0 .449.289C.306 1.072.135 1.855 0 2.638Z" style="fill:#009540;fill-opacity:1;fill-rule:nonzero;stroke:none" transform="translate(223.826 246.573)"/><path d="M0 0v-223.297c.135-.783.306-1.566.449-2.349l41.447 26.541V0Z" style="fill:#009540;fill-opacity:1;fill-rule:nonzero;stroke:none" transform="translate(223.826 472.508)"/><path d="M223.826 489.513h352.808v83.952H223.826Z" style="fill:#000;fill-opacity:1;fill-rule:nonzero;stroke:none"/><path d="M0 0c0 4.627 2.905 9.149 9.362 9.149 5.275 0 9.364-2.907 9.364-9.795h6.459c0 4.629-.647 15.821-15.823 15.821-12.269 0-15.82-8.287-15.82-14.744 0-3.553-1.185-9.365 7.533-13.347 4.736-1.83 9.364-3.551 12.916-4.735 6.458-1.722 5.812-5.812 5.812-9.364 0-6.458-3.982-10.01-9.795-10.01-11.192 0-10.44 8.288-11.192 14.1h-5.705c0-9.902 1.077-19.911 16.897-19.911 8.074 0 16.898 4.089 16.898 17.65C26.906-6.027-.432-12.916 0 0" style="fill:#dfb800;fill-opacity:1;fill-rule:nonzero;stroke:none" transform="translate(360.14 545.32)"/><path d="M0 0c0 4.627 2.905 9.149 9.362 9.149 5.275 0 9.364-2.907 9.364-9.795h6.459c0 4.629-.647 15.821-15.823 15.821-12.269 0-15.82-8.287-15.82-14.744 0-3.553-1.185-9.365 7.533-13.347 4.736-1.83 9.364-3.551 12.916-4.735 6.458-1.722 5.812-5.812 5.812-9.364 0-6.458-3.982-10.01-9.795-10.01-11.192 0-10.44 8.288-11.192 14.1h-5.705c0-9.902 1.077-19.911 16.897-19.911 8.074 0 16.898 4.089 16.898 17.65C26.906-6.027-.432-12.916 0 0Z" style="fill:none;stroke:#dfb800;stroke-width:.31400001;stroke-linecap:butt;stroke-linejoin:miter;stroke-miterlimit:2.61299992;stroke-dasharray:none;stroke-opacity:1" transform="translate(360.14 545.32)"/><path d="M0 0c0-8.181-2.907-12.27-10.548-12.27-6.458 0-10.44 2.26-10.44 11.193v39.609h-6.457V-1.077c0-10.439 2.905-17.005 17.542-17.005 14.531 0 16.36 9.364 16.36 14.531v42.083H0z" style="fill:#dfb800;fill-opacity:1;fill-rule:nonzero;stroke:none" transform="translate(334.092 521.21)"/><path d="M0 0c0-8.181-2.907-12.27-10.548-12.27-6.458 0-10.44 2.26-10.44 11.193v39.609h-6.457V-1.077c0-10.439 2.905-17.005 17.542-17.005 14.531 0 16.36 9.364 16.36 14.531v42.083H0z" style="fill:none;stroke:#dfb800;stroke-width:.31400001;stroke-linecap:butt;stroke-linejoin:miter;stroke-miterlimit:2.61299992;stroke-dasharray:none;stroke-opacity:1" transform="translate(334.092 521.21)"/><path d="m0 0 7.103 28.522L14.099 0Zm2.905 33.796-15.607-55.43h6.89l4.089 15.822H15.82l3.983-15.822h7.212l-15.177 55.43z" style="fill:#dfb800;fill-opacity:1;fill-rule:nonzero;stroke:none" transform="translate(269.622 525.946)"/><path d="m0 0 7.103 28.522L14.099 0Zm2.905 33.796-15.607-55.43h6.89l4.089 15.822H15.82l3.983-15.822h7.212l-15.177 55.43z" style="fill:none;stroke:#dfb800;stroke-width:.31400001;stroke-linecap:butt;stroke-linejoin:miter;stroke-miterlimit:2.61299992;stroke-dasharray:none;stroke-opacity:1" transform="translate(269.622 525.946)"/><path d="m0 0 7.211 28.522L14.098 0Zm11.839 33.796H2.905l-15.604-55.43h6.994l3.982 15.822h17.652l3.983-15.822h7.104z" style="fill:#dfb800;fill-opacity:1;fill-rule:nonzero;stroke:none" transform="translate(516.525 525.946)"/><path d="m0 0 7.211 28.522L14.098 0Zm11.839 33.796H2.905l-15.604-55.43h6.994l3.982 15.822h17.652l3.983-15.822h7.104z" style="fill:none;stroke:#dfb800;stroke-width:.31400001;stroke-linecap:butt;stroke-linejoin:miter;stroke-miterlimit:2.61299992;stroke-dasharray:none;stroke-opacity:1" transform="translate(516.525 525.946)"/><path d="M487.357 504.312h6.457v55.43h-6.457z" style="fill:#dfb800;fill-opacity:1;fill-rule:nonzero;stroke:#dfb800;stroke-width:.31400001;stroke-linecap:butt;stroke-linejoin:miter;stroke-miterlimit:2.61299992;stroke-dasharray:none;stroke-opacity:1"/><path d="M0 0h-9.795v19.481h8.718c6.888 0 10.439-2.476 11.086-8.718C10.438 4.304 7.104 0 0 0m15.174-9.365c-1.076 6.566-6.242 6.566-8.717 7.212 5.382.431 11.192 5.813 10.44 13.346C15.82 23.463 7.533 25.186 0 25.186h-16.253v-55.43h6.458v24.54H1.397c12.701 0 6.136-16.36 10.442-24.54h7.533v1.721c-2.907-.644-3.552 13.454-4.198 19.158" style="fill:#dfb800;fill-opacity:1;fill-rule:nonzero;stroke:none" transform="translate(455.5 534.557)"/><path d="M0 0h-9.795v19.481h8.718c6.888 0 10.439-2.476 11.086-8.718C10.438 4.304 7.104 0 0 0Zm15.174-9.365c-1.076 6.566-6.242 6.566-8.717 7.212 5.382.431 11.192 5.813 10.44 13.346C15.82 23.463 7.533 25.186 0 25.186h-16.253v-55.43h6.458v24.54H1.397c12.701 0 6.136-16.36 10.442-24.54h7.533v1.721c-2.907-.644-3.552 13.454-4.198 19.158z" style="fill:none;stroke:#dfb800;stroke-width:.31400001;stroke-linecap:butt;stroke-linejoin:miter;stroke-miterlimit:2.61299992;stroke-dasharray:none;stroke-opacity:1" transform="translate(455.5 534.557)"/><path d="M0 0h14.423v-48.972h6.457V0h14.099v6.458H0Z" style="fill:#dfb800;fill-opacity:1;fill-rule:nonzero;stroke:none" transform="translate(394.258 553.284)"/><path d="M0 0h14.423v-48.972h6.457V0h14.099v6.458H0Z" style="fill:none;stroke:#dfb800;stroke-width:.31400001;stroke-linecap:butt;stroke-linejoin:miter;stroke-miterlimit:2.61299992;stroke-dasharray:none;stroke-opacity:1" transform="translate(394.258 553.284)"/><path d="m0 0-3.552 5.49-29.383-19.157 3.552-5.382 12.162 7.855L9.471-52.308l5.489 3.553-26.799 41.114z" style="fill:#dfb800;fill-opacity:1;fill-rule:nonzero;stroke:none" transform="translate(391.404 308.263)"/><path d="m0 0-3.552 5.49-29.383-19.157 3.552-5.382 12.162 7.855L9.471-52.308l5.489 3.553-26.799 41.114z" style="fill:none;stroke:#dfb800;stroke-width:.31400001;stroke-linecap:butt;stroke-linejoin:miter;stroke-miterlimit:2.61299992;stroke-dasharray:none;stroke-opacity:1" transform="translate(391.404 308.263)"/><path d="m0 0-5.382-3.55 20.988-32.288c4.413-6.999 4.197-11.949-2.153-16.038C8.073-55.43 3.444-55.751-1.4-48.218L-23.033-14.96l-5.382-3.55L-6.78-51.77c5.703-8.826 11.623-12.591 24.001-4.627 12.162 7.963 8.503 16.79 5.705 20.986z" style="fill:#dfb800;fill-opacity:1;fill-rule:nonzero;stroke:none" transform="translate(313.481 265.426)"/><path d="m0 0-5.382-3.55 20.988-32.288c4.413-6.999 4.197-11.949-2.153-16.038C8.073-55.43 3.444-55.751-1.4-48.218L-23.033-14.96l-5.382-3.55L-6.78-51.77c5.703-8.826 11.623-12.591 24.001-4.627 12.162 7.963 8.503 16.79 5.705 20.986z" style="fill:none;stroke:#dfb800;stroke-width:.31400001;stroke-linecap:butt;stroke-linejoin:miter;stroke-miterlimit:2.61299992;stroke-dasharray:none;stroke-opacity:1" transform="translate(313.481 265.426)"/><path d="M0 0c-2.583 3.981-2.583 9.255 2.907 12.809 4.412 2.905 9.364 2.582 13.13-3.122l5.491 3.443c-2.584 3.981-9.257 12.917-21.958 4.737C-10.655 11.085-9.148 2.261-5.703-3.12c1.937-3.016 4.196-8.505 13.669-7.105 4.95 1.077 9.794 2.152 13.453 3.12 6.35 2.046 7.964-1.721 9.901-4.736 3.552-5.382 2.154-10.548-2.798-13.669-9.255-6.134-13.239 1.184-16.897 5.705l-4.952-3.228c5.382-8.18 11.732-16.039 25.079-7.427 6.673 4.412 11.946 12.593 4.627 24.001C25.938 9.687 6.673-11.087 0 0" style="fill:#dfb800;fill-opacity:1;fill-rule:nonzero;stroke:none" transform="translate(337.805 263.92)"/><path d="M0 0c-2.583 3.981-2.583 9.255 2.907 12.809 4.412 2.905 9.364 2.582 13.13-3.122l5.491 3.443c-2.584 3.981-9.257 12.917-21.958 4.737C-10.655 11.085-9.148 2.261-5.703-3.12c1.937-3.016 4.196-8.505 13.669-7.105 4.95 1.077 9.794 2.152 13.453 3.12 6.35 2.046 7.964-1.721 9.901-4.736 3.552-5.382 2.154-10.548-2.798-13.669-9.255-6.134-13.239 1.184-16.897 5.705l-4.952-3.228c5.382-8.18 11.732-16.039 25.079-7.427 6.673 4.412 11.946 12.593 4.627 24.001C25.938 9.687 6.673-11.087 0 0Z" style="fill:none;stroke:#dfb800;stroke-width:.31400001;stroke-linecap:butt;stroke-linejoin:miter;stroke-miterlimit:2.61299992;stroke-dasharray:none;stroke-opacity:1" transform="translate(337.805 263.92)"/><path d="m0 0-9.58 27.876L11.839 7.643Zm-16.038 30.029L1.185-24.97l5.81 3.768L1.72-5.812l14.746 9.58L28.415-7.318l6.026 3.875-42.946 38.316z" style="fill:#dfb800;fill-opacity:1;fill-rule:nonzero;stroke:none" transform="translate(498.067 344.857)"/><path d="m0 0-9.58 27.876L11.839 7.643Zm-16.038 30.029L1.185-24.97l5.81 3.768L1.72-5.812l14.746 9.58L28.415-7.318l6.026 3.875-42.946 38.316z" style="fill:none;stroke:#dfb800;stroke-width:.31400001;stroke-linecap:butt;stroke-linejoin:miter;stroke-miterlimit:2.61299992;stroke-dasharray:none;stroke-opacity:1" transform="translate(498.067 344.857)"/><path d="m0 0-27.124 41.651-5.38-3.549L-2.261-8.396 22.172 7.535l-3.123 4.843z" style="fill:#dfb800;fill-opacity:1;fill-rule:nonzero;stroke:none" transform="translate(284.098 187.072)"/><path d="m0 0-27.124 41.651-5.38-3.549L-2.261-8.396 22.172 7.535l-3.123 4.843z" style="fill:none;stroke:#dfb800;stroke-width:.31400001;stroke-linecap:butt;stroke-linejoin:miter;stroke-miterlimit:2.61299992;stroke-dasharray:none;stroke-opacity:1" transform="translate(284.098 187.072)"/><path d="m0 0-22.926 35.41-5.381-3.551L-7.317-.538c4.412-6.888 4.197-11.839-2.155-15.93-5.38-3.552-10.007-3.874-14.852 3.66L-45.957 20.45l-5.382-3.552 21.635-33.258c5.703-8.826 11.622-12.593 24.002-4.627C6.352-13.131 2.8-4.305 0 0" style="fill:#dfb800;fill-opacity:1;fill-rule:nonzero;stroke:none" transform="translate(561.46 376.178)"/><path d="m0 0-22.926 35.41-5.381-3.551L-7.317-.538c4.412-6.888 4.197-11.839-2.155-15.93-5.38-3.552-10.007-3.874-14.852 3.66L-45.957 20.45l-5.382-3.552 21.635-33.258c5.703-8.826 11.622-12.593 24.002-4.627C6.352-13.131 2.8-4.305 0 0Z" style="fill:none;stroke:#dfb800;stroke-width:.31400001;stroke-linecap:butt;stroke-linejoin:miter;stroke-miterlimit:2.61299992;stroke-dasharray:none;stroke-opacity:1" transform="translate(561.46 376.178)"/><path d="m0 0 27.336-42.083-41.867 32.611-8.825-5.704L6.889-61.672l5.166 3.338-27.661 42.62 42.513-33.043 8.718 5.705L5.382 3.552Z" style="fill:#dfb800;fill-opacity:1;fill-rule:nonzero;stroke:none" transform="translate(454.584 357.02)"/><path d="m0 0 27.336-42.083-41.867 32.611-8.825-5.704L6.889-61.672l5.166 3.338-27.661 42.62 42.513-33.043 8.718 5.705L5.382 3.552Z" style="fill:none;stroke:#dfb800;stroke-width:.31400001;stroke-linecap:butt;stroke-linejoin:miter;stroke-miterlimit:2.61299992;stroke-dasharray:none;stroke-opacity:1" transform="translate(454.584 357.02)"/><path d="m0 0-11.088 17.115L6.024 28.309l-3.119 4.843-17.22-11.087-9.581 14.747 18.728 12.162-3.228 4.843L-32.29 38.21-2.047-8.285 21.31 6.89l-3.122 4.843Z" style="fill:#dfb800;fill-opacity:1;fill-rule:nonzero;stroke:none" transform="translate(430.046 281.893)"/><path d="m0 0-11.088 17.115L6.024 28.309l-3.119 4.843-17.22-11.087-9.581 14.747 18.728 12.162-3.228 4.843L-32.29 38.21-2.047-8.285 21.31 6.89l-3.122 4.843Z" style="fill:none;stroke:#dfb800;stroke-width:.31400001;stroke-linecap:butt;stroke-linejoin:miter;stroke-miterlimit:2.61299992;stroke-dasharray:none;stroke-opacity:1" transform="translate(430.046 281.893)"/></g></svg>