<svg xmlns="http://www.w3.org/2000/svg" xml:space="preserve" width="794.667" height="794.667"><path d="M0 5955.83h5952.76V3.07H0z" style="fill:#fff;fill-opacity:1;fill-rule:evenodd;stroke:none" transform="matrix(.13333 0 0 -.13333 0 794.667)"/><path d="m1106.04 5495.67 215.37 318.42 3310.1-1.82 217.24-316.52 304.41-266.18V2251.4c0-1187.06-1009.25-2106.595-2176.78-2106.595S799.59 1064.34 799.59 2251.4v2978.46zm30.65-27.19 206.27 304.97 3267.16-1.79 208.04-303.13 294.38-257.4V2251.4c0-1163.22-989.58-2065.966-2136.16-2065.966S840.219 1088.18 840.219 2251.4v2959.91z" style="fill:#3046a3;fill-opacity:1;fill-rule:evenodd;stroke:none" transform="matrix(.13333 0 0 -.13333 0 794.667)"/><path d="M923.004 5175.55 1198 5414.11h3558.95l272.82-238.56zm4108.276-318.83V2309.79l-2054.82 1.4-233.17 278.35c25.82-13.41 52.8-24.99 80.98-34.48 49.03-16.51 100.47-25.66 152.19-27.12v-216.75l206.11 246.11c217.34 70.59 358.79 261 419.27 498.2l.77 3.34 386.6 461.62c109.25-76.24 253.91-116.75 400.72-153.13 194.35-48.14 389.77-124.04 367.37-360.28-16.23-171.41-170.95-267.01-332.51-267.39-194.12-.47-376.73 88.63-413.9 294.01-12.54 69.39-71.82 112.34-141.01 93.65-60.92-16.46-89.86-72.55-78.88-133.41 56.88-314.28 330.01-478.44 634.32-477.71 277.88.67 527.26 182.93 554.46 469.77 33.93 357.82-226.69 521.61-536.12 598.28-103.05 25.54-224.96 48.61-310.74 107.8l386.26 461.2c92.18-34.23 156.41-102.46 190.14-220.04 18.07-62.91 77.88-100.09 141.3-81.83 64.84 18.71 91.56 80.51 73.5 143.5-45.71 159.25-134.6 269.8-256.51 335.62l363.53 434.07H2976.46v-338.13c-479.46-22.89-677.32-502.43-680.23-928.08-1.05-153.76 30.15-329.91 96.03-489.76l-963.45 1150.18c48.19 16.94 101.88 24.34 156.4 21.92 174.81-7.74 291.21-73.79 341.04-247.49 18.07-62.91 77.88-100.09 141.3-81.83 64.84 18.71 91.56 80.51 73.5 143.5-76.6 266.91-274.57 397.03-545.92 409.07-113.85 5.04-223.02-18.89-315.26-67.34l-358.393 427.84v40.26h.609v52.01zm-2054.82-654.15V2751.56c-292.47 12.68-437.04 423.54-454.21 666.19-1.87 26.33-2.74 52.71-2.56 79.11 1.99 293.66 114.96 680.55 456.77 705.71m2054.39-1983.53c-18.08-1076.82-935.46-1952.349-2054.47-1952.349-1119.02 0-2036.396 875.529-2054.474 1952.349z" style="fill:#3046a3;fill-opacity:1;fill-rule:evenodd;stroke:none" transform="matrix(.13333 0 0 -.13333 0 794.667)"/><path d="m3891.56 1497.95-553.61 562.6-268.98-264.67 211.96-215.24-302.2-290.43-294.21 277.09 223.24 227.58-269.41 264.27-410.47-418.48 70.26-467.29 288.27 293.89 281.63-285.32-434.77-413.903c-13.3-12.676-21.57-44.203 2.73-69.274l62.24-64.293c22.41-23.136 55.7-27.628 78.53-4.41l417.06 424.17 412.99-418.681c82.05-83.188 220.23 37.175 125.07 127.511l-426.43 404.72 290.65 295.62 226.45-230.16z" style="fill:#fff;fill-opacity:1;fill-rule:evenodd;stroke:none" transform="matrix(.13333 0 0 -.13333 0 794.667)"/><path d="M1984.83 3950.03c-56.79 197.94-194.06 282.57-396.92 291.55-215.7 9.57-415.55-116.16-407.73-350.71 8.8-264.83 254.16-313.35 465.77-365.78 278.19-68.93 521.14-205.8 490.09-533.37-24.14-254.5-246.54-413.99-493.93-414.58-271.93-.65-522.3 140.84-574.2 427.6-6.5 36.02 10.2 57.1 34.79 63.75 24.6 6.64 57.11-1.16 65.15-45.67 42.86-236.78 251.74-344.63 474.02-344.11 194.51.47 373.88 120.43 393.04 322.6 25.74 271.44-186.79 369.05-413.38 425.18-262.34 65-532.11 137.39-542.88 461.01-9.81 295.07 238.65 467.76 513.77 455.57 246.72-10.95 421.12-124.81 490.04-365.01 11.7-40.77-9.03-61.55-31.79-68.11-25.8-7.43-55.49 4.06-65.84 40.08m2783.07 0c-56.8 197.94-194.06 282.57-396.92 291.55-215.7 9.57-415.55-116.16-407.73-350.71 8.79-264.83 254.15-313.35 465.77-365.78 278.18-68.93 521.14-205.8 490.08-533.37-24.13-254.5-246.53-413.99-493.92-414.58-271.93-.65-522.3 140.84-574.21 427.6-6.5 36.02 10.2 57.1 34.8 63.75 24.6 6.64 57.11-1.16 65.15-45.67 42.87-236.78 251.74-344.63 474.01-344.11 194.52.47 373.89 120.43 393.05 322.6 25.73 271.44-186.8 369.05-413.38 425.18-262.34 65-532.12 137.39-542.88 461.01-9.81 295.07 238.65 467.76 513.77 455.57 246.72-10.95 421.12-124.81 490.05-365.01 11.69-40.77-9.05-61.55-31.8-68.11-25.8-7.43-55.5 4.06-65.84 40.08m-1332.5 28.48c-77.26 179.74-229.59 288.02-428.15 286.31-403.39-3.49-546.18-427.72-548.5-767.56-.18-27.95.73-55.92 2.7-83.81 19.97-281.91 190.1-727.02 533.29-723.15 249.81 2.8 392.25 180.2 449.64 405.35 22.31 87.88 121.56 66.18 98.4-25.11-68.9-270.28-249.68-478.47-546.9-481.82a460.8 460.8 0 0 0-152.17 24.1c-336.73 113.37-488.75 560.79-486.53 885.13 2.72 399.67 184.82 864.44 649.18 868.44 239.61 2.07 429-130.46 522.37-347.78 37.21-86.56-57.62-123.41-93.33-40.1" style="fill:#3046a3;fill-opacity:1;fill-rule:evenodd;stroke:none" transform="matrix(.13333 0 0 -.13333 0 794.667)"/></svg>