<svg xmlns="http://www.w3.org/2000/svg" width="271.263" height="252"><path d="M228.29 87.77h-4.63v.11c-2.16 0-4.33-.16-6.47 0-2.4.23-3 1.7-1.49 3.52 2.53 3 5.2 6 7.79 9a5.72 5.72 0 0 0 4.7 2 26 26 0 0 0 4-.61 3.84 3.84 0 0 0 3.26-3.51 20 20 0 0 0 .31-3.28c-.08-4.42-3.02-7.23-7.47-7.23" style="fill:none" transform="translate(1 1)scale(.78815)"/><path d="M39.67 179.47a18 18 0 0 1-.73 2.12c-.27.69-.53 1.43-.81 2.07l-1.74 3.74c-2.31 5-4.69 9.81-6.69 14.76-1 2.46-1.88 5-2.65 7.47a68 68 0 0 0-1.78 7.64 58 58 0 0 0-.68 7.78v2q0 1 .09 2l.15 2 .31 1.94a49.9 49.9 0 0 0 4.46 15 55.2 55.2 0 0 0 8.7 13.17 64.8 64.8 0 0 0 12 10.43 58.5 58.5 0 0 0 14.27 7.14c5.14 1.62 10.42 3 15.71 4.15s10.64 2.2 16 3.31a131 131 0 0 1 15.84 4.15c2.44.84 4.85 1.8 7.2 2.87.19-.55.27-1-.67-1.38l.91-1c.56-.57 1.36-1 1-2.06-.06-.21.36-.57.58-.9l-.44-.6c-.4-.17-.82-.33-1.23-.49a1.8 1.8 0 0 1-.42.18l-1.42-.66c-.07.77-.13 1.41-.17 1.84.2.83 1.43.47 1.12 1.59a2.6 2.6 0 0 0-.74.19c-.47.23-1 .6-1.38 0a1.82 1.82 0 0 1 .06-1.27 2.58 2.58 0 0 0-.15-2.25l-.9.55c-.1-.18-.2-.28-.18-.36.06-.32.13-.63.2-.92 0-.1.07-.2.1-.3l.8.2c-.58-.21-1.14-.42-1.72-.61l-.93-7.55a2.3 2.3 0 0 0-1 .87c-1.23 1.58-1.42 1.63-3 .44l-.54-.47a3 3 0 0 1 3-1.87v-.42a3.4 3.4 0 0 0-1.19 0c-.88.36-1.27 0-1.33-.81-.08-1.16-.61-1.82-1.67-1.9h-.08a2 2 0 0 0-.34 0c-.94.07-1.21-.52-1-1.25s0-1.17-.82-1.25c-1-.1-1.1-.55-1-1.51s.41-2.32-1-2.6c-.61 1.47-1.2 2.86-1.75 4.27a3.8 3.8 0 0 0-.14 1 4.64 4.64 0 0 1-.89 2.18 2.57 2.57 0 0 1 .6 2.42 5.2 5.2 0 0 0-1.1-1.88 1.46 1.46 0 0 0-1.06-.36 1.46 1.46 0 0 1 1.06.36 1.17 1.17 0 0 1-1 .37c-.8.4-1.35.64-1.85.92l.22-.35-.3-.2a3.14 3.14 0 0 0-1.29-.5 3.14 3.14 0 0 1 1.29.5l.3.2-.22.35-.91 1.47v.05-.05l-1.4-.41c0-.09.07-.18.11-.27h-.3a12 12 0 0 1-2 0l.38 3.13-1.78-.33c-5.76-1-12.14-2.23-19.27-4l-5.61-45.68a8 8 0 0 1-1.57.39c-.15 0-.47.32-.47.49 0 1.21-.92 1.47-1.79 1.72a1 1 0 0 1-.9-.3 2.14 2.14 0 0 1-.12-1.24c2-.67 1.46-2.84 2.52-4a6 6 0 0 0 .4-.66c.56.56 1.22.91 1.4 1.44a1.8 1.8 0 0 0 .34.6l-.62-5 8-1a10.6 10.6 0 0 1-1.45-1.73 3.9 3.9 0 0 1-.28-2.43l-1.37 1-2.36-1.47h-.12c-.52.43-1.08 1.28-1.51 1.22a16 16 0 0 1-4-1.22c-.73-.32-1.27-1.1-2.23-.65a.26.26 0 0 1-.24-.05c-1.33-1.61-3.84-1.49-5-3.48a10.7 10.7 0 0 0-1.88-2c-.06-.07-.17-.16-.22-.14-2 .73-1-.89-1.13-1.51a12.7 12.7 0 0 1-.43-3.84c.15-1.19-.93-2.57.45-3.61.06-.05-.22-.56-.19-.49a32 32 0 0 0 0-3.67 1.78 1.78 0 0 1 .8-2 3.18 3.18 0 0 0 1.52-2.64c0-.9.32-1.82.25-2.81a1.07 1.07 0 0 1 1.44-1.08 1.17 1.17 0 0 0 1.58-1.17 10.5 10.5 0 0 1 .29-1.66l-1.53.08a4 4 0 0 0-.21-.7 2 2 0 0 0-.39-.4 1.21 1.21 0 0 0-1 .77 17 17 0 0 1-1.42 2.1 6.6 6.6 0 0 1-.86-1.63l-1.06.71c.62.59 1.2 1.22 1.72 1.76h-.05.26v.29l-.05.07a3.9 3.9 0 0 1-1.49.85l-.33.31a2 2 0 0 0-2.1 1.7c-.19.66-.62.94-1.4.57.12-.31.16-.65.35-.82a3 3 0 0 0 1.12-1.78 7 7 0 0 1-1.09-.4l1-.17a2.4 2.4 0 0 0-.3-.74c1.6.24 1.79.2 1.56-1.13-1 .71-2.06 1.43-3.09 2.17l.54-.09c.07.24.15.47.24.76h-1.73l-.4.29c.49.11 1 .19.7 1.05-.7 0-.77-.47-.92-.89-1.4 1-2.79 2.09-4.18 3.17l-.13.18c.43.48.76.31 1.1-.13a13.5 13.5 0 0 1 1.4-1.69c.67-.62 1.07-.48 1.75.41l-.21-.06-1 1.93c-.95 0-1.48.37-1.49 1.41a1.25 1.25 0 0 1-.42.88c-.82.61-1.71 1.13-2.65 1.73-.5-.82.08-2.08-1.18-2.39a7 7 0 0 0-.39 1.06 1.64 1.64 0 0 1-1.65 1.5c-1 0-1.19.45-2.06.7.2-.4.75-1.65.75-1.65l.36-.85c.46-1 .91-4.05 1.9-4.52l.36-.17a109 109 0 0 1 3.7-14.01l-.93-1.3c.44-.24.89-.45 1.31-.73a1.5 1.5 0 0 0 .55-.63c.32-.77.57-1.56 1-2.78-.85.31-1.41.56-2 .72-.37.1-.82.27-1.21.37 0 .13 0 .27-.07.4a35 35 0 0 1-.98 4.35m68.48 93.74a.1.1 0 0 0-.05 0zm-49.8-46.62c.26-.89.25-2.07.83-2.59 1-.9.43-1.53-.16-2.36 1.79.39 2.27.13 3.15-1.38a3 3 0 0 1 1.13-1.19 1.43 1.43 0 0 1 1.34.16c.34.49 1 1 .37 1.85a6.1 6.1 0 0 0-1.49 3.23c-.08.78-.9 1.49-1.4 2.23l-1.77 2.69a2 2 0 0 1-2-2.64m-1.06 8.51c.34-.2.45-.85.59-1.32.18-.62.34-.67 1.07-.52 1 .22 1.72 1.48 3 .9.56-.26 1.49 1.15 1.57 2.07.19 2.32-1.38 3.56-2.89 4.85-.12.1-.38.2-.48.15a9.2 9.2 0 0 1-1.7-1.18 17 17 0 0 1-1.45-1.87l.45-.29c-.17-.41-.34-.82-.5-1.24-.19-.57-.43-1.08.34-1.55m-3.89-16.3c.71-.35 1.46-.62 2.46-1-.31 1.49-1 2.14-2 2.35-.33.07-.77-.39-1.16-.61.22-.27.41-.6.7-.74m-19.6-4.34-.37 1.83c-1.25.17-2.55.81-3.26-1.2zm17.27 30.64c-.22.08-.6-.29-1.16-.6.54-.41.82-.78 1.16-.83s.53.37.8.58c-.26.3-.48.75-.8.85m.71-38c-1.15.82-2.06 1.5-3 2.13a1.13 1.13 0 0 1-.84.12c-1-.33-1.16-1.13-.7-2.56.37-1.18.84-.44 1.44-.25a24 24 0 0 0 3.1.59zm-4.55-14 1.24 1.55-1.62.1c.15-.56.24-.99.38-1.58zm-.63 3.12c.42 0 .86.38 1.56.75-.56.54-1 1.08-1.11 1a10 10 0 0 1-1.64-1c.4-.19.78-.66 1.19-.68zm-5.08 22a28 28 0 0 1 3.82-1.68c1-.45 1.4-.32 2.36 1a16 16 0 0 0-1.89.91c-1 .71-2 1.54-3.05 2.23a2.33 2.33 0 0 1-1.46.38 1.13 1.13 0 0 1-.62-.94c.14-.66.32-1.57.84-1.87zm4.4 7.47 2.43 19.84c.42-.16.85-.31 1.28-.44a8 8 0 0 1 .61 1.15c-.49.77-1 1.57-1.51 2.36l2.13 17.4a60 60 0 0 1-6.3-5.14 49.08 49.08 0 0 1-15.71-30.46c-.1-.86-.18-1.71-.24-2.56z" style="fill:#ffed00" transform="translate(1 1)scale(.78815)"/><path d="M140.3 302.94c-.12-.17-.23-.34-.35-.5a17 17 0 0 1 1.39-1.52c1.24-1.07 2.73-1.87 3.51-3.41h.06a2.8 2.8 0 0 0-.59-1.12c.07-.25.14-.49.22-.74l-.4-.15a2 2 0 0 0-.11.23 2 2 0 0 1 .11-.23l.4.15c-.08.25-.15.49-.22.74v.09l-.52-.22.15-.3-.4-.36a2 2 0 0 1-.53-1.25c-.05-.64.32-1.72.09-1.85a7.4 7.4 0 0 0-2.41-.42c0 .3.07.58.1.86 0 .2 0 .4.07.59a1.5 1.5 0 0 1-.36.16l-.26-.34.26.34a2 2 0 0 0 .36-.15c.07.58.13 1.11.19 1.63 0 .18.05.36.07.53l-1 .81-2 1.57a.7.7 0 0 0 0 .14c-.09-.14-.2-.27-.28-.41a1.55 1.55 0 0 0-1.23-1 5.3 5.3 0 0 1-1.37-.85c1.24-1 1.9.33 2.92.32a3.4 3.4 0 0 1 .41-.8c.13-.17.4-.22.61-.32v-1.54a.5.5 0 0 0 0-.12v.1l-1.21-.88-.21-.4-1-.5h.06s0 .07-.07.11v-.09a16 16 0 0 1-1.76.44c-.87.11-1.6.34-1.74 1.25l-1.85-1.19 1.37-.76c0-.35 0-.7.07-1.13l2.9-.28a4.6 4.6 0 0 0 .68.56 4.6 4.6 0 0 1-.68-.56c0-.43 0-.86-.09-1.45l-1.13-.4 1.57-2.15-1.37-2.26h-1c-.37.25-.75.5-1.11.76a3 3 0 0 1 1.78.54l-2.85.63a2.4 2.4 0 0 1 .23-.56c-.49.35-1 .71-1.47 1.08l.05.17-.12-.12c-.43.32-.85.65-1.27 1a2 2 0 0 0 0 .24h-.33q-1 .81-2 1.65a9 9 0 0 1 0 1.39 5.9 5.9 0 0 1-.49 2.52c.79 1-.6 1.49-.49 2.32h-1.34l.89.51a1.24 1.24 0 0 1 .45-.52c.49 0 1.06-.69 1.36 0-.14.43-.27.86-.41 1.28l.52.29-.53-.27c-.22.69-.44 1.39-.7 2.18l-1.2-1.3a14 14 0 0 0 .48-1.63l-1.07-.56h-.52l-.24-.41c-1.14-.55-2.3-1.08-3.46-1.57-.19.18-.42.37-.66.57a3 3 0 0 1 .18-.77q-3.57-1.49-7.26-2.63a130 130 0 0 0-15.88-3.61c-5.35-.94-10.74-1.77-16.1-2.8s-10.7-2.2-16-3.69A60.6 60.6 0 0 1 49 273.7a67.5 67.5 0 0 1-13-10.5 58.3 58.3 0 0 1-9.68-13.69 53.3 53.3 0 0 1-5.32-16l-.39-2.08-.24-2.11c-.09-.71-.14-1.41-.17-2.12l-.1-2.13a60 60 0 0 1 .47-8.49 69 69 0 0 1 1.65-8.32c.73-2.72 1.6-5.38 2.55-8C26.71 195 29 190 31.09 185.05l1.59-3.72c.24-.61.41-1.17.62-1.75a12 12 0 0 0 .54-1.76 26 26 0 0 0 .7-3.63c.07-.62.19-1.23.22-1.85l.08-1.88a52.3 52.3 0 0 0-2.12-15.18 112 112 0 0 0-5.35-14.88c-2.11-4.91-4.47-9.67-6.92-14.57l-7.28-14.62-1.17-2.32 1.68-2.15L39.31 74l1.74-2.22 2.94.49a179 179 0 0 0 27.74 2.38c4.56.05 9.13-.08 13.69-.35a192 192 0 0 1 16.67-10.4v-.06c-1.2.18-2.4.35-3.62.51a175.7 175.7 0 0 1-61-3.26L0 107.39 12.7 134c5.77 12.09 14.27 31.53 9.51 42.62-6.38 14.86-16.72 32.58-13.81 56.29 4.35 35.55 33.54 55.38 52.64 60.84s32.42 6.32 44.45 9.82c16.91 4.94 24 13.62 24 13.63s4.58-9.73 19.06-18.47c-2.26 1.18-4.52 2.4-6.78 3.58-.47.25-.98.42-1.47.63m1-7.65h.06zm-4.83-1.56v.09c-.47.37-.91.59-1.14-.51zm-2-5.46h-.09l.06-.08zm-1.09-1.86c-.07-.28.45-.78 1.16-.56a3.24 3.24 0 0 1-1.78 2.4c-.12.07-.4-.12-.87-.27.8-.45 1.78-.44 1.49-1.57M32.21 155.05c.3.12.49.68.57 1.08 0 .16-.41.63-.5.59a10 10 0 0 1-2.36-1.07c-.3-.22-.3-.88-.42-1.31a21 21 0 0 1 2.71.71m84.55 141.62s-.05 0-.06-.07a7 7 0 0 0-.43-.62c0-.37 0-.74.08-1.09l1.45 1.27c-.32.26-.6.61-1.04.51m4.4.52c.24-1-.45-1.6-1.1-2.25a2.63 2.63 0 0 1 1.89.25 5.5 5.5 0 0 0-.23 1.21 4.8 4.8 0 0 0 .31 1.07l-.27.17c-.21-.15-.62-.35-.6-.45m2.06 1.49-1.45.92c.05-1.52.06-1.52 1.45-.92m-.18 3.81-.15-.05a2.4 2.4 0 0 1 .11-.44 7 7 0 0 1 .41-.58c.43.1.36.3-.41 1.07zm-.54-6.49 1-.44.7.85c-.7.7-1.13.08-1.7-.41m3.33 6.91c-.14.13-.28.33-.31.31a2.4 2.4 0 0 0-.52-.22.5.5 0 0 0 0-.11 12 12 0 0 1 .13-2c0-.15.42-.24.65-.36a3.1 3.1 0 0 1 .05 2.4zm2.53-4.48c-.13-.45-.27-.66-.23-.83s.25-.32.39-.48l.2.12c-.09.32-.18.63-.36 1.21zm2.51-7.51v1.13l-1.36-.49zm-.4 4c-.3-.71-.3-.71.16-1.69.21.66.65 1.22-.16 1.77zm4.76 3.85a7 7 0 0 0-1.61-.86 1.38 1.38 0 0 1 1.92-.05c.56.35 1.07.78 1.59 1.17a1.45 1.45 0 0 1-1.9-.22z" style="fill:#ffed00" transform="translate(1 1)scale(.78815)"/><path d="m21.91 110.05 5.67 12.38c1.22 2.66 2.46 5.37 3.66 8.12 1.32-1.81 2.64-3.61 3.94-5.42a7.5 7.5 0 0 0 .69-1.61 17 17 0 0 0 1.77-1.67c5.55-6.8 11.06-13.63 16.63-20.42.71-.86 10-10.62 13.8-14.31.18-.19 1-.86 2.28-1.86A191 191 0 0 1 45 82.38Zm18.36 86.23c-.09.11.08.42.13.64a1.8 1.8 0 0 0 .68-.24c.1-.09 0-.38 0-.74-.37.14-.68.17-.81.34m16.6-10.86a12 12 0 0 0 1.11.44c.11 0 .27-.14.51-.28a5 5 0 0 0-.41-.52 6 6 0 0 0-.48-.38l.21-.28.94.65a9.2 9.2 0 0 1 1-1.58c1.52 1.27 1.54-1.17 2.69-1 .56.72 3.24 1.64 4 1.17a1.82 1.82 0 0 0 .47-1.5 32 32 0 0 0-.7-3.25c-3.28 1.72-6.48 3.6-9.63 5.6-.05.28-.09.57-.14.85a.72.72 0 0 1 .43.08m37.65 66.41v2.24c0 1.93.11 3.85.2 5.78a45 45 0 0 1 0 4.48 1.2 1.2 0 0 0 0 .33 1.2 1.2 0 0 1 0-.33 45 45 0 0 0 0-4.48 7.5 7.5 0 0 1 1.58.35c2 .71 4.07 1.57 5.09 3.73a5 5 0 0 0 .56.74l2.45-1.84a22 22 0 0 1-2.58-1.45 12 12 0 0 1-1.54-1.7c-.37-.42-.72-.85-1.1-1.26-.24-.25-.6-.41-.76-.69A7.2 7.2 0 0 0 94.5 254v-2.24a13 13 0 0 0-.08-2.05 13 13 0 0 1 .1 2.12m2.71 7c.59.1.6.57-.13 1.15.04-.34.09-.73.13-1.11zm-3.13-11.41c-.06-.07-.15-.15-.23-.23l-.12.07.12-.07c.13.08.13.16.23.23m66.31 45.18.34-.16v-.13l-.26.23zM93.5 259.8v-2.95a2.36 2.36 0 0 1-1.52.93 9 9 0 0 0-1.07.28l.27 2.17a9 9 0 0 1 2.32-.43m54.62 33.1h.07zM137.16 282a3 3 0 0 0-.4-.12 3 3 0 0 1 .4.12m-1.16-3.07c-.75-2.36-1.21-4.42-1.86-3.67v-.06l.37 3zm-40.45-7.23-.26.2zm-4.89-22.32a3.9 3.9 0 0 0-.42-2.77c-.26-.08-.51-.17-.76-.27l.58 4.8a5.2 5.2 0 0 0 .6-1.76M95 267.6a6.7 6.7 0 0 0-.16 2.73c0 .39.59.72 1 1.15-.38-.43-.92-.76-1-1.15a6.7 6.7 0 0 1 .16-2.73 2.7 2.7 0 0 0 0-1.94 6 6 0 0 1-.33-1 6 6 0 0 0 .33 1 2.7 2.7 0 0 1 0 1.94m51.85 25.95-.13.12zm-10.19-11.66a3 3 0 0 0-.4-.07 3 3 0 0 1 .4.07m.28 7.68a1.5 1.5 0 0 1 .13.25 1.5 1.5 0 0 0-.13-.25M39.36 153.6a59 59 0 0 1 1.79 17.1c.72 0 1.47-.25 2.21-.29a15 15 0 0 1 2 .19c-.08-.95.21-2.33-.34-3.13-.81-1.14-.7-2.14 0-2.81s1.83-.4 2.62.72a103.8 103.8 0 0 1 23.14-30.2 5.4 5.4 0 0 1-2.49-1.9 2.94 2.94 0 0 0-1.16-1 9 9 0 0 1-5.53-10.88c0-.08 0-.22.09-.24 3.44-1.34 2-4.56 2.81-6.94a118 118 0 0 0-15.44 7.5c.22.81.36 1.46.58 2.08s.18 1.2 1.1.94a.92.92 0 0 1 .81.42 1.24 1.24 0 0 1-.31 1.05c-2.25 1.64-1.94 3.34.29 4.78.8.51 1.56 1.1 2.38 1.58a5 5 0 0 0 1.32.32c.2 2.94.22 5.87-2.08 8.26 0 1.88-1.93 1.76-2.85 2.7a2.14 2.14 0 0 1-2.92.22c-.71-.55-1.87-.51-2.82-.77a1.35 1.35 0 0 1-.73-.35c-.36-.56-.5-1.44-1-1.7s-1.12.42-2 .81c-.12-1-.23-1.81-.35-2.67-.06-.42-.17-.82-.21-1.24a3.8 3.8 0 0 1-.06-1.7c.53-1.27-.26-2-1-2.53a2.12 2.12 0 0 0-1.73.11c-1.21.58-1.74.44-2.37-.81a6.2 6.2 0 0 0-1-1.08c.12-.22.3-.51.48-.8l-.12-.18c-.76.55-1.52 1.1-2.29 1.64.68 1.6 1.35 3.2 2 4.82a121 121 0 0 1 5.18 15.98m22.43-18.21a6.3 6.3 0 0 1 1.61.83 4.6 4.6 0 0 1 .7 1.46c-.86.6-2.6.07-2.75-.93-.06-.42.28-.9.44-1.36m-19.9 21.68 1.88 1.73-1.53 1.33a14 14 0 0 1-1.46-1.85c-.07-.12.59-.66 1.11-1.21m93.23 125.16a3 3 0 0 0 .2-.25 2.2 2.2 0 0 1 .42-.12 2.2 2.2 0 0 0-.42.12 3 3 0 0 1-.2.25m.73-.39a1.8 1.8 0 0 1 .4 0 1.8 1.8 0 0 0-.4 0m-13.17 12.41c.57-.49.87.06 1.24.24a1 1 0 0 0 1.47-.43c.35-.56.07-1.89-.43-1.89-1 0-1.56-.89-2.42-1.07-.35.41-.6.94-1 1.1s-.75-.31-1.31-.58a1.5 1.5 0 0 1-.29 1.75c1.06.49 2.11 1 3.14 1.55zm1.32-1.55-.64 1c-.36-.78-.11-1 .64-1m11.28-11.94v1.16l-.42-.4.42.4v-1.22l-.54-.21.09.72zm10.89 13.88a3 3 0 0 0-.1.32l.09-.32zm-6.12.41a1.06 1.06 0 0 1 .53-.09 1.06 1.06 0 0 0-.53.09 2 2 0 0 1-.69.06 2 2 0 0 0 .69-.06m-.89-1.6.42-2.88zm9.84-.68h.08-.13zm-26.71-2.37 1.29-2c-.47-.22-.94-.42-1.42-.63a8 8 0 0 1-.54 1.37zm1.76-.16a6.7 6.7 0 0 0 1.28-1l-1.64-.79c.13.61.24 1.17.36 1.73zm14.01.19a6 6 0 0 1 .43.72l.81-.68.17.06-.17-.06-.81.68a6 6 0 0 0-.43-.72c-.37.15-.58.08-.72-.08.14.16.35.23.72.08M95.25 273a1.5 1.5 0 0 1-.19-.94 1.5 1.5 0 0 0 .19.94m-1.85-10.92a5 5 0 0 0 .06-.54v-1.64 1.64a5 5 0 0 1-.06.54m1.6 14.39a1.1 1.1 0 0 1-.17-.38 1.1 1.1 0 0 0 .17.38m-1.77-12.88a1.43 1.43 0 0 0 .14-1 2 2 0 0 1 0-.26 2 2 0 0 0 0 .26 1.43 1.43 0 0 1-.14 1M140 296a.5.5 0 0 1 .07.17.5.5 0 0 0-.07-.17m-45.15-20.19v-1.68l2 .13-2-.13c-.02.62-.04 1.16 0 1.68m-1.74-10.93a2.6 2.6 0 0 0-.45-.4 2.6 2.6 0 0 1 .45.4m.37 1.12a4.6 4.6 0 0 1-.15.95 4.6 4.6 0 0 0 .15-.95m-.04-.47a2.3 2.3 0 0 1 0 .45 2.3 2.3 0 0 0 0-.45m-.78-1.05-.31-.18zm.6.61a2 2 0 0 1 .18.44 2 2 0 0 0-.18-.44m-.74 1.28.59 1.51c0-.31.14-.63.22-.95-.08.32-.17.64-.22.95-.2-.5-.39-1-.59-1.51m4.99 7.93c-.63-.62-1.76-.55-2.23-1.23.47.68 1.6.61 2.23 1.23" style="fill:#ffed00" transform="translate(1 1)scale(.78815)"/><path d="M125.05 296.09v-.06l-.89-.51H124ZM71.73 74.63A179 179 0 0 1 44 72.25l-2.94-.49L39.31 74 13.7 106.74l-1.7 2.15 1.15 2.32 7.28 14.62c2.45 4.9 4.81 9.66 6.92 14.57a112 112 0 0 1 5.35 14.88 52.3 52.3 0 0 1 2.12 15.18l-.08 1.88c0 .62-.15 1.23-.22 1.85a26 26 0 0 1-.7 3.63 12 12 0 0 1-.54 1.76c-.21.58-.38 1.14-.62 1.75l-1.59 3.72c-2.09 5-4.38 10-6.3 15.21-.95 2.63-1.82 5.29-2.55 8a69 69 0 0 0-1.65 8.32 60 60 0 0 0-.47 8.49l.1 2.13c0 .71.08 1.41.17 2.12l.24 2.11.39 2.08a53.3 53.3 0 0 0 5.32 16A58.3 58.3 0 0 0 36 263.2a67.5 67.5 0 0 0 13 10.5 60.6 60.6 0 0 0 15 6.94c5.3 1.49 10.63 2.66 16 3.69s10.75 1.86 16.1 2.8a130 130 0 0 1 15.9 3.61q3.69 1.14 7.26 2.63a2 2 0 0 0 .1-.26c-2.35-1.07-4.76-2-7.2-2.87a131 131 0 0 0-15.84-4.15C91 285 85.65 284 80.36 282.78s-10.57-2.53-15.71-4.15a58.5 58.5 0 0 1-14.27-7.14 64.8 64.8 0 0 1-12-10.43 55.2 55.2 0 0 1-8.7-13.17 49.9 49.9 0 0 1-4.46-15l-.31-1.94-.15-2q-.09-1-.09-2v-2a58 58 0 0 1 .68-7.78 68 68 0 0 1 1.78-7.64c.77-2.52 1.66-5 2.65-7.47 2-4.95 4.38-9.76 6.69-14.76l1.74-3.74c.28-.64.54-1.38.81-2.07a18 18 0 0 0 .73-2.12 35 35 0 0 0 1-4.35c0-.13 0-.27.07-.4a1 1 0 0 1-.79 0 2.4 2.4 0 0 1-.62-2.88c.26-.71.62-1.27 1.64-1.12h.19a59 59 0 0 0-1.79-17.1 121 121 0 0 0-5.17-16c-.64-1.62-1.31-3.22-2-4.82l-4.89 3.53-.13-.1c.2-.31.38-.62.59-.92l3.47-4.73c-1.2-2.75-2.44-5.46-3.66-8.12l-5.67-12.38L45 82.38a191 191 0 0 0 25.33 2.88c3-2.36 8.67-6.6 15.07-11-4.54.29-9.11.42-13.67.37M29 137l-1.32 1.67-.45-.39c.28-.69.29-1.64 1.77-1.28m98 160.11-.52-.29zm-7.06-3.74-.18.2c1.16.49 2.32 1 3.46 1.57l-.14-.22c-1.03-.54-2.08-1.06-3.14-1.55" style="fill:#085da4" transform="translate(1 1)scale(.78815)"/><path d="M120.83 282.23a2.08 2.08 0 0 0 1.16.61c0-.35-.09-.7-.15-1-.09-.17-.39-.25-.6-.37a1.13 1.13 0 0 1-.41.76m1.39-2.82c.74-.33.34-.83.6-1.71a11.5 11.5 0 0 0 0-4 3.3 3.3 0 0 1 .07-.69 2.4 2.4 0 0 0-.23-.22 5.3 5.3 0 0 0-.21.9 37 37 0 0 0-.21 3.78c.52.62.47.96-.02 1.94" style="fill:#e2000b" transform="translate(1 1)scale(.78815)"/><path d="m122.92 282.72-.92.19h.1-1.19v1.38c.52-.31.95-.05 1.45.21h.19v.13c0 .04.25.12.39.17-.06-.48-.09-.82-.15-1.32.95.22 2 1.06 2.33-.42l1.47.8v3l-2.29.9c.26-.65.46-1.15.7-1.77-.89-.28-1-.88-.6-1.66-.5.34-1 .66-1.5 1a1 1 0 0 0-.34.64 11.3 11.3 0 0 1-.43 1.87c.48.21 1 .41 1.42.63l.1-.16v.23l1.64.79c.35-.31.71-.66 1.14-1.05v1q1-.84 2-1.65l-.18-1.58c.69.37.59.85.53 1.31.42-.33.84-.66 1.27-1l-1.46-1.44 1.09-.11c.12.42.25.85.44 1.5.48-.37 1-.73 1.47-1.08a1.11 1.11 0 0 1 .84-.61c.36-.26.74-.51 1.11-.76h-.88c.69-1.8 1-2.16 1.89-2.48a2 2 0 0 0 0 .53 2 2 0 0 0 .06.24 2 2 0 0 1-.06-.24 2 2 0 0 1 0-.53v-.05l.18.17-.18-.17.14-.14-.09-.72-.8-.31c.12-.21.24-.45.37-.68.26-.48 0-.51-.39-.5l-.95.15c.18.7.36 1.34.53 2-.73.27-1-.08-1.17-.54-.13-.41-.29-.82-.39-1.24a.9.9 0 0 1 .05-.67.78.78 0 0 1 .66-.18 11 11 0 0 1 1.3.47l-.84-1 .2-.25 1.17.54-.37-3-.81-5a7 7 0 0 0-1.75-.49l.68-.53-1.42-1-.65.35a23 23 0 0 1-2.3-2.05c-.17-.18 0-.95.26-1.19 1.14-1 1.17-1 1.14-2.27.56-.14.72.15.75.64a11.5 11.5 0 0 0 .18 2c.19.79.54.89 1.5.57.27.43.65.81 1.14.52s-.09-.5-.35-1.32c-.71.26-.33.5-1 .75l.06-.58a1.9 1.9 0 0 1-.5-.44.6.6 0 0 0-.2 0l.79-.42c0-.16 0-.32.05-.48-.58-.38-.81-.83-.58-1.41l-.24.28c.09-.45.17-.91.29-1.54a2.7 2.7 0 0 1 .11.94v-.06a1.1 1.1 0 0 0 .14-.86c-.3-.86-.69-1.7-1.08-2.61-.78.35-1 1.57-2.08 1.17a7 7 0 0 1 .25-1 1.47 1.47 0 0 0-.46-1.94 8.2 8.2 0 0 1-1.57-1.87 7 7 0 0 0-.13 1.19c.06 1.49.24 3 .22 4.46a10.3 10.3 0 0 0 .53 3.78 6.2 6.2 0 0 1 .15 1.46l-1.44-.1c0 .64-.09 1.28-.14 1.92 0 .15 0 .35.12.44 1 1 .9 2.42.88 3.6a14.3 14.3 0 0 0 .09 2.45 1.7 1.7 0 0 0 .27.65 4 4 0 0 0-.42-.2 3.7 3.7 0 0 0-1.15 0c0 .15.07.31.1.47l.29.51h-.17a1.2 1.2 0 0 0 .25.53 2 2 0 0 0 1 .4 1 1 0 0 1-1.19.94v.1l-.19-.1h-.07l1.34 1.19a2.5 2.5 0 0 1-.2 1l.06.09a.54.54 0 0 1-.29.21 1.12 1.12 0 0 1-.78.22l1.92 1.05a2 2 0 0 1-2.07.28c-1.31-.38-1.37-.42-1.71.79l-.39.08.06.21a3.4 3.4 0 0 1-.34-.32m6.19-21.94a1.7 1.7 0 0 1 .38.52c0 .12-.18.29-.36.55-.21-.3-.43-.47-.44-.66s.31-.27.42-.41m-.75 20.16c-.13-.92-.13-.92 1.1-1.14-.05.86-.46 1.1-1.1 1.14m3.91-.32-1.79.4c.52-.93.52-.94 1.79-.4m-3.15-7h.95l-.43-1.56c1.1-.08 1.2.1.64 2h-.65l-.56-.21c.02-.08.03-.16.05-.24zm-1.57.92a5 5 0 0 1 1 .47c.21.13.43.56.36.73s-.48.42-.67.57l-.54-.06c.05-.45 0-.91.31-1.14-.14-.21-.31-.39-.46-.58zm-.71 8.94c.28 0 .57.11.85.08a3.3 3.3 0 0 0 .8-.39c0 .66.1 1.19.14 1.7l-2-1.07c.08-.14.14-.33.21-.33zm-5.65 2.7-.22-.33a4.8 4.8 0 0 0-1.4.83c.41.16.83.32 1.23.49l-.16-.21z" style="fill:#e2000b" transform="translate(1 1)scale(.78815)"/><path d="m116.49 285.51 1.08.27a2.5 2.5 0 0 0-.15-1 .15.15 0 0 1 0-.07 3.3 3.3 0 0 1 .55.17c.05 0 .1.07.16.1a3.8 3.8 0 0 1 .12-.9l-.74.24a.66.66 0 0 1 .18-.24 4.2 4.2 0 0 0 1.12-1 3.2 3.2 0 0 0-.11-.91 1.35 1.35 0 0 0 .83-.26c.07-.16.15-.32.21-.49l.06.16a1.4 1.4 0 0 0 .14-.35c.21.14.51.26.57.45a1 1 0 0 0 .06.13 7 7 0 0 0 .67-.37c.16-.11.3-.23.46-.35a.84.84 0 0 0-.71-.4 3.9 3.9 0 0 0-1 .52c-.45.25-1.13.22-1.25.91-.08-.37-.15-.75-.23-1.12a10 10 0 0 0 .43-1c.11-.26.67-.33 1-.49a4 4 0 0 0 .47-.25l.11-.29c.19.16.37.26.36.33a1.2 1.2 0 0 1-.09.24l.19.2c0-.16.09-.3.14-.44l1.32.82-.19-.68h-.07c0 .14-.05.29-.08.45-.23-.18-.4-.33-.54-.46a1.6 1.6 0 0 0 .53-.78 1.35 1.35 0 0 1-.91.68c.74-1.1.73-1.35-.11-2.33l-.08.14a1.67 1.67 0 0 0-1.2-.71l-.15.35a3.23 3.23 0 0 0-2.21.85c-.17-.08-.32-.15-.5-.25.24-.15.49-.42.62-.38.77.29 1.11-.19 1.25-.75.3-1.16.5-2.35.73-3.48a2.7 2.7 0 0 0-.19-.52c-.38 1.12-.73 2.32-1.19 3.48-.21.53-.6 1-1.33.59a.3.3 0 0 0-.21.05c.14.64.28 1.27.37 1.94a1.8 1.8 0 0 1-1 .3 1.38 1.38 0 0 0-1.12-.26 1.36 1.36 0 0 0 .07-.65c-.21-1.74-.46-3.47-.62-5.22 0-.35-.09-.69-.15-1-.05 1.75 0 3.51 0 5.26a1.3 1.3 0 0 1-.15.64.5.5 0 0 0-.16.05l.93 7.55c.57.11 1.13.32 1.71.53m-.62-2 1-.2c.11.44.2.83.29 1.22l-.27.13a5 5 0 0 0-.59-.55 3 3 0 0 0-.53-.23.85.85 0 0 1 .1-.34zm9.81-15.52v-.01zm-10.03 3.68c-.06-.72-.11-1.45-.17-2.22h-.28c.15.79.3 1.55.45 2.22m-25.19-7.88a.6.6 0 0 1 .32-.1.6.6 0 0 0-.32.1m-2.89 8.81.75-1.2zm-2.77-5.2a1.62 1.62 0 0 0 1.11.39h.87-.87a1.62 1.62 0 0 1-1.11-.39m3.47 5.95c0-.14.12-.28.19-.43-.07.15-.14.29-.19.43m.19-8.05c0-.77 0-1.54-.07-2.3.02.76.05 1.53.07 2.3m-3.97 1.41c.05-.33.45-.52.61-.88-.16.36-.56.55-.61.88" style="fill:#e2000b" transform="translate(1 1)scale(.78815)"/><path d="M66.74 228.23a2 2 0 0 0 1.36.58c.76.09 1.48.26 1.61 1.31-.63 0-1.35.22-1.7 0a1.35 1.35 0 0 0-1.08-.27l5.61 45.68c7.13 1.8 13.51 3 19.27 4l1.78.33-.38-3.13-1.59-.13a6.55 6.55 0 0 1-3-1l-.11-.08a7.6 7.6 0 0 1-1.85-1.72 11 11 0 0 1-2.49-5.65c-.09-.84-.18-1.85.77-2.4l.19-.11a.72.72 0 0 0 .36-.5 5.13 5.13 0 0 1 2.87-3.66v-1.71l-.08.08c-.57.73-2.75.35-3.11-.49-.28-.67-.51-1.37-.79-2.14a16 16 0 0 0 2.4-2.13c1-1.35 2.47-2.43 3.29-4l-.58-4.8a10.47 10.47 0 0 1-5.11-4.1c-.71-1.07-.09-3-.16-4.51v-.22l-.44-.08c.12-.24.2-.54.33-.78-.1-.57-.23-1.16-.32-1.72a10.6 10.6 0 0 1-6.1-4.42c-.7-1.08-.08-3-.16-4.52a10 10 0 0 0-.22-1.54 10.3 10.3 0 0 1-3.19-2.19l-8 1zm12 27.37 1.36 2c-.51.11-1.2.47-1.48.26-.62-.4-.83-1.14.1-2.26zm-6.59-31.54a7.6 7.6 0 0 1 2.35-.38l-.82 2.09c.18.45.65 1.13.5 1.33-.44.57-1.13 1.28-1.72 1.28s-1.4-.67-2.08-1.09a1.6 1.6 0 0 1-.43-.53c-.12-.23-.35-.63-.29-.68a15.4 15.4 0 0 1 2.47-2.02zm15.16 45.1-.24-.76z" style="fill:#e2000b" transform="translate(1 1)scale(.78815)"/><path d="M89.41 259.19v1.74a11.3 11.3 0 0 1 1.76-.7l-.27-2.17a5.7 5.7 0 0 0-2 1.08.58.58 0 0 0 .51.05m2 15.81-.13-.07zM90 267h.23v-1.23V267zm2.78 8.69-.16-.08zm-5.5-4.69.52.15zm1.46-12.58a.84.84 0 0 0-.4-.78.84.84 0 0 1 .4.78m-1.3 12.19c0-.08.06-.15.08-.22s-.05.14-.08.22M28.85 230.4a49.08 49.08 0 0 0 15.71 30.42 60 60 0 0 0 6.3 5.14l-2.13-17.33-.35.52a1 1 0 0 1-.93 0 15 15 0 0 1-1.23-2.27c0-.13.26-.56.49-.66.54-.24 1.09-.46 1.64-.66l-2.43-19.84-17.31 2.12c.06.85.14 1.7.24 2.56" style="fill:#e2000b" transform="translate(1 1)scale(.78815)"/><path d="M170.28 267.48a.93.93 0 0 0 .83.32c.72-.37.48-.88.06-1.35l-.18-.18c-.8.31-.99.66-.71 1.21M136.19 35.39l1.55 1.53c-1.5-1.47-3-2.94-4.48-4.43.97.98 1.95 1.93 2.93 2.9" style="fill:#085da4" transform="translate(1 1)scale(.78815)"/><path d="M337.58 103a28 28 0 0 0-5.09-1.76q-20.58-4.69-41.19-9.29c-11.12-2.47-22.22-5.05-33.41-7.19a10.06 10.06 0 0 1-7.3-4.73c-.11-.18-.26-.35-.39-.53a11.23 11.23 0 0 0-6.2-4.25c-17.34-4.91-34.68-9.86-52-14.7-4.19-1.17-8.46-2.07-12.73-2.91-3.56-.71-6.6.17-8.74 3.44-1.3 2-2.86 3.79-4.32 5.7a2.2 2.2 0 0 1-.34-.32 84 84 0 0 0-12.62-14.77l-1-.91.69.66c-.82.61-1.59.1-2.44-.07.14-.48.27-.89.44-1.44l.32.41c.1.14.21.28.31.43a.8.8 0 0 1 .35-.3c-2.22-2.14-4.46-4.27-6.69-6.39l-1.08-.08a6.6 6.6 0 0 0 .15 1.44 10 10 0 0 1 .52 3.73c0 1.46.16 2.92.22 4.39a6.7 6.7 0 0 1-.13 1.17v.12c0 .57.74 1.1-.13 1.92.05-.77.09-1.35.13-1.92a.3.3 0 0 1 0-.1 8.2 8.2 0 0 0-1.54-1.84 1.44 1.44 0 0 1-.46-1.91 4.6 4.6 0 0 0 .24-1c-1.06-.39-1.27.81-2 1.16-.38-.9-.77-1.72-1.07-2.57a1.1 1.1 0 0 1 .14-.85 1.11 1.11 0 0 0-.42-1.74l-.07.06c-.13.43-.27.86-.46 1.47-.09-1-.08-1 .46-1.47v-.1c.06-.64.13-1.27.2-1.91l-2 .73c-.25-.81.31-1.08.67-1.3s.85.09 1.12.51c.94-.31 1.3-.21 1.48.56a11.4 11.4 0 0 1 .18 1.93c0 .48.18.77.73.64 0-1.25 0-1.21 1.13-2.24.25-.23.42-1 .25-1.17a24 24 0 0 0-2.26-2l-.65.34-1.4-1 .68-.53c-1.82-.28-3.2-1-3.66-2.82l-2.27.43-.31-1.5-.16.14a10 10 0 0 0-1.46-1.46 11 11 0 0 0-2.24-.73c-.47-.75-.08-1.61.4-2.44h1.66a6.6 6.6 0 0 1-.6-1.73q-5.77-5.85-11.5-11.76a15 15 0 0 0 0 2.31c-.38-.15-.76-.25-.76-.31.07-1-.21-2-.16-2.95l-1.06-1.1a1 1 0 0 0 0 .13l-.33-.14a3 3 0 0 0 .11-.24l-2.76-2.85a1.8 1.8 0 0 0 .2.44c-1 0-1 0-1.16-1.05a1.1 1.1 0 0 1 .34 0l-.83-.86L113 12c-1 0-1 0-1.11-1.08a1.4 1.4 0 0 0-.08-.41l-.21-.21c-1-.44-2.34.58-3.06-.91l.33-1.19.49-.22L107 5.57h-1c-.34 0-.59.59-.89.91-.47.25-1 .48-1.42.76a1.26 1.26 0 0 0-.63.66l.22 1c0 .05 0 .09.08.15.85-.14 1-.85 1.3-1.53l2.54-.18c.3 1.35.29 1.33-.67 2-.71.47-1.39 1-2.34 1.66.19-.54.29-.83.42-1.22L103.4 9l8.6 38c.69 3.09 1.05 6.25 1.52 9.39a3.18 3.18 0 0 1-1.4 3.08c-1 .79-2.42.88-4.27 1.65s-3.72 1.7-5.75 2.79a192 192 0 0 0-16.67 10.4c-6.4 4.38-12 8.62-15.07 11-1.28 1-2.1 1.67-2.28 1.86-3.81 3.69-13.09 13.45-13.8 14.31-5.57 6.79-11.08 13.62-16.63 20.42a17 17 0 0 1-1.77 1.67 7.5 7.5 0 0 1-.69 1.61c-1.3 1.81-2.62 3.61-3.94 5.42l-3.47 4.73c-.21.3-.39.61-.59.92l.13.1 4.89-3.53c.77-.54 1.53-1.09 2.29-1.64l.12.18c-.18.29-.36.58-.48.8a6.2 6.2 0 0 1 1 1.08c.63 1.25 1.16 1.39 2.37.81a2.12 2.12 0 0 1 1.73-.11c.78.55 1.57 1.26 1 2.53a3.8 3.8 0 0 0 .06 1.7c0 .42.15.82.21 1.24.12.86.23 1.71.35 2.67.89-.39 1.66-1 2-.81s.62 1.14 1 1.7a1.35 1.35 0 0 0 .73.35c1 .26 2.11.22 2.82.77a2.14 2.14 0 0 0 2.92-.22c.92-.94 2.89-.82 2.85-2.7 2.3-2.39 2.28-5.32 2.08-8.26a5 5 0 0 1-1.32-.32c-.82-.48-1.58-1.07-2.38-1.58-2.23-1.44-2.54-3.14-.29-4.78a1.24 1.24 0 0 0 .31-1.05.92.92 0 0 0-.81-.42c-.92.26-.93-.45-1.1-.94s-.36-1.27-.58-2.08a118 118 0 0 1 15.44-7.5c-.8 2.38.63 5.6-2.81 6.94l-.09.24a9 9 0 0 0 5.55 10.87 2.94 2.94 0 0 1 1.16 1 5.4 5.4 0 0 0 2.49 1.9 103.8 103.8 0 0 0-23.14 30.2c-.79-1.12-1.9-1.37-2.62-.72s-.84 1.67 0 2.81c.55.8.26 2.18.34 3.13a15 15 0 0 0-2-.19c-.74 0-1.49.32-2.21.29H41c-1-.15-1.38.41-1.64 1.12a2.4 2.4 0 0 0 .62 2.88 1 1 0 0 0 .79 0c.39-.1.84-.27 1.21-.37.59-.16 1.15-.41 2-.72-.43 1.22-.68 2-1 2.78a1.5 1.5 0 0 1-.55.63c-.42.28-.87.49-1.31.73l.93 1.3a109 109 0 0 0-3.58 14.08 12 12 0 0 1 2-.71l1.25-.37.55-.12a.5.5 0 0 0 0 .21c.37 1.59.43 1.69-.25 2.65 1.39-1.08 2.78-2.13 4.18-3.17a2 2 0 0 0-.1-.25 1.7 1.7 0 0 0 .32.09l.4-.29h-.22c-.08-.15-.16-.31-.24-.44l.25-.07 1.17-.2c1-.74 2-1.46 3.09-2.17 0-.13 0-.26-.08-.42.35-.08.69-.26.78-.17l.06.05 1.06-.71a4.5 4.5 0 0 1-.23-2l2.51.19c1-1.14 1-1.14 1.68-1.08l-.06.38c3.15-2 6.35-3.88 9.63-5.6a32 32 0 0 1 .7 3.25 1.82 1.82 0 0 1-.47 1.5c-.78.47-3.46-.45-4-1.17-1.15-.2-1.17 2.24-2.69 1a9.2 9.2 0 0 0-1 1.58l.64.44-.86 1.36h-.46a10.5 10.5 0 0 0-.29 1.66 1.17 1.17 0 0 1-1.58 1.17 1.07 1.07 0 0 0-1.44 1.08c.07 1-.27 1.91-.25 2.81a3.18 3.18 0 0 1-1.52 2.61 1.78 1.78 0 0 0-.8 2 32 32 0 0 1 0 3.67c0-.07.25.44.19.49-1.38 1-.3 2.42-.45 3.61a12.7 12.7 0 0 0 .43 3.84c.12.62-.87 2.24 1.13 1.51.05 0 .16.07.22.14a10.7 10.7 0 0 1 1.88 2c1.12 2 3.63 1.87 5 3.48a.26.26 0 0 0 .24.05c1-.45 1.5.33 2.23.65a16 16 0 0 0 4 1.22c.43.06 1-.79 1.51-1.22h.12l2.3 1.39 1.37-1a3.9 3.9 0 0 0 .28 2.43 10.6 10.6 0 0 0 1.45 1.73 10.3 10.3 0 0 0 3.19 2.19 10 10 0 0 1 .22 1.54c.08 1.53-.54 3.44.16 4.52a10.6 10.6 0 0 0 6.1 4.42c.09.56.22 1.15.32 1.72-.13.24-.21.54-.33.78l.44.08v.22c.07 1.52-.55 3.44.16 4.51a10.47 10.47 0 0 0 5.11 4.1c.25.1.5.19.76.27a3.9 3.9 0 0 1 .42 2.77 5.2 5.2 0 0 1-.6 1.76c-.82 1.52-2.24 2.6-3.29 4a16 16 0 0 1-2.4 2.13c.28.77.51 1.47.79 2.14.36.84 2.54 1.22 3.11.49l.08-.08v-2.13a.84.84 0 0 1 .4.78c0 .31 0 .6.21.72a5.7 5.7 0 0 1 2-1.08 9 9 0 0 1 1.07-.28 2.36 2.36 0 0 0 1.52-.93v-1.05a43 43 0 0 1 0-8.36c0-.07.13-.12.25-.18l.12-.07c.08.08.17.16.23.23a.23.23 0 0 1 .08.13c.07.74.18 1.49.26 2.23a13 13 0 0 1 .08 2.05v2.24a7.2 7.2 0 0 1 3.88 3.71c.16.28.52.44.76.69.38.41.73.84 1.1 1.26a12 12 0 0 0 1.54 1.7 22 22 0 0 0 2.58 1.45l-2.45 1.84a5 5 0 0 1-.56-.74c-1-2.16-3-3-5.09-3.73a7.5 7.5 0 0 0-1.58-.35 45 45 0 0 1 0 4.48 1.2 1.2 0 0 0 0 .33 6 6 0 0 0 .33 1 2.7 2.7 0 0 1 0 1.94 6.7 6.7 0 0 0-.16 2.73c0 .39.59.72 1 1.15l-.29.22-.26.2-.23.17a1.5 1.5 0 0 0 .19.94v.06c.47.68 1.6.61 2.23 1.23h-.7l-2-.13v1.68a3 3 0 0 0 0 .28 1.1 1.1 0 0 0 .17.38l.16.23h.3a1.1 1.1 0 0 0 .08-.3c.09-1.07.26-1.54.75-1.54a3.14 3.14 0 0 1 1.29.5l.3.2-.22.35c.5-.28 1-.52 1.85-.92a1.17 1.17 0 0 0 1-.37 1.46 1.46 0 0 0-1.06-.36 2.2 2.2 0 0 0-.48.06v-1.29l-.9.81a2 2 0 0 1-.21-.46 2 2 0 0 1 .1-.5l1 .15a10 10 0 0 0 1.23.64 2.3 2.3 0 0 1 .82.46 4.64 4.64 0 0 0 .89-2.18 3.8 3.8 0 0 1 .14-1c.55-1.41 1.14-2.8 1.75-4.27 1.41.28 1 1.66 1 2.6s.09 1.41 1 1.51c.79.08 1 .44.82 1.25s.09 1.32 1 1.25a2 2 0 0 1 .34 0h.08c1.06.08 1.59.74 1.67 1.9.06.85.45 1.17 1.33.81a3.4 3.4 0 0 1 1.19 0v.42a3 3 0 0 0-3 1.87l.54.47c1.53 1.19 1.72 1.14 3-.44a2.3 2.3 0 0 1 1-.87.5.5 0 0 1 .16-.05 1.3 1.3 0 0 0 .15-.64v-5.26c-.27-1.56-.66-3.09.16-4.41a12.5 12.5 0 0 1-.67-1.7c-.07-.36-.06-1 .16-1.13.47-.39.94-.13 1.29.32a1.4 1.4 0 0 0 .46-1.53l1-.32c-1.13 1.64.71 2.83 0 4.34l-1-.22-.66 1.76a7.4 7.4 0 0 0 1.17.15c.53 0 .52.36.6.68l-1.26.11c.06.77.11 1.5.17 2.22.18.92.36 1.81.51 2.7.12.67.27 1.32.42 2a.3.3 0 0 1 .21-.05c.73.39 1.12-.06 1.33-.59.46-1.16.81-2.36 1.19-3.48a2.7 2.7 0 0 1 .19.52.5.5 0 0 1 0-.12 4.6 4.6 0 0 1 .24 3.78 1.67 1.67 0 0 1 1.2.71l.2-.34c.84 1 .85 1.23.11 2.33a1.35 1.35 0 0 0 .91-.68 1.26 1.26 0 0 0 0-.7 1.5 1.5 0 0 0-.32-.65l.06-.15.4.39a37 37 0 0 1 .21-3.78 5.3 5.3 0 0 1 .21-.9 2.4 2.4 0 0 1 .23.22v-.23a1.59 1.59 0 0 1 .75 1.93 2.68 2.68 0 0 0 .21 1.76 5.1 5.1 0 0 1-.29 3.54c-.59-.26-.74.23-1.16 0l-1.32-.82c0 .14-.09.28-.14.44l-.19-.2a2 2 0 0 0-.14.26c-.12-.07-.33-.15-.33-.22a.9.9 0 0 1 .09-.32 4 4 0 0 1-.47.25c-.36.16-.92.23-1 .49a10 10 0 0 1-.43 1c.08.37.15.75.23 1.12.12-.69.8-.66 1.25-.91a3.9 3.9 0 0 1 1-.52.84.84 0 0 1 .71.4 1.9 1.9 0 0 1 .51-.29.81.81 0 0 1 .75.31 10.4 10.4 0 0 1 .48 1.56l.39-.08c.34-1.21.4-1.17 1.71-.79a2 2 0 0 0 2.07-.28l-1.92-1.05a1.12 1.12 0 0 0 .78-.22c-.43.14-.84-.53-1.29-.34a8 8 0 0 1-.64-1.1 2.13 2.13 0 0 1 2.16 1.14 2.5 2.5 0 0 0 .2-1l-1.34-1.19h.07l-.8-.44.55-1 .25.07c0 .39.1.79.18 1.33a1 1 0 0 0 1.19-.94 2 2 0 0 1-1-.4 1.2 1.2 0 0 1-.25-.53h-1.55c-.48-1.1.48-1 1-1.29l.41.74c0-.16-.06-.32-.1-.47a3.7 3.7 0 0 1 1.15 0 4 4 0 0 1 .42.2 1.7 1.7 0 0 1-.27-.65 14.3 14.3 0 0 1-.09-2.45c0-1.18.17-2.59-.88-3.6-.09-.09-.08-.29-.12-.44 0-.64.1-1.28.14-1.92l1.44.1a6.2 6.2 0 0 0-.15-1.46 10.3 10.3 0 0 1-.53-3.78c0-1.49-.16-3-.22-4.46a7 7 0 0 1 .13-1.19 8.2 8.2 0 0 0 1.57 1.87 1.47 1.47 0 0 1 .46 1.94 7 7 0 0 0-.25 1c1.09.4 1.3-.82 2.08-1.17.39.91.78 1.75 1.08 2.61a1.1 1.1 0 0 1-.14.86v.06a1 1 0 0 1-.16.32c-.23.58 0 1 .58 1.41 0 .16 0 .32-.05.48l1.11-.57c.36.78-.18 1.12-.51 1.39a.6.6 0 0 1-.69.07l-.06.58c.65-.25.27-.49 1-.75.26.82.71 1.09.35 1.32s-.87-.09-1.14-.52c-1 .32-1.31.22-1.5-.57a11.5 11.5 0 0 1-.18-2c0-.49-.19-.78-.75-.64 0 1.26 0 1.23-1.14 2.27-.26.24-.43 1-.26 1.19a23 23 0 0 0 2.3 2.05l.65-.35 1.42 1-.68.53a7 7 0 0 1 1.75.49l.81 5v.06c.65-.75 1.11 1.31 1.86 3.67l-1.5-.69-1.17-.54-.2.25.84 1a11 11 0 0 0-1.3-.47.78.78 0 0 0-.66.18.9.9 0 0 0-.05.67c.1.42.26.83.39 1.24.19.46.44.81 1.17.54-.17-.65-.35-1.29-.53-2l.95-.15c.36 0 .65 0 .39.5-.13.23-.25.47-.37.68l.8.31.54.21 1.4-.4a3.63 3.63 0 0 0 1.15 1.77l-.07.19-.6-.23a3 3 0 0 0-.4-.12h-.1a3 3 0 0 0-.4-.07 1.8 1.8 0 0 0-.4 0h-.11a2.2 2.2 0 0 0-.42.12 3 3 0 0 1-.2.25c-.16.17-.31.22-.42-.09a2 2 0 0 1-.06-.24 2 2 0 0 1 0-.53c-.93.32-1.2.68-1.89 2.48h1.92l1.37 2.26-1.57 2.15 1.13.4c0 .59.06 1 .09 1.45l1.24-.53a1.5 1.5 0 0 1 .13.25 2 2 0 0 0 .27.53c.14.16.35.23.72.08a6 6 0 0 1 .43.72l.81-.68.17.06h.11l-.42 2.88a.5.5 0 0 1 0 .12v1.54h.17a2 2 0 0 0 .69-.06 1.06 1.06 0 0 1 .53-.09 1 1 0 0 1 .45.17c-.06-.52-.12-1.05-.19-1.63a2 2 0 0 1-.36.15l-.26-.34.58-.37c0-.28-.07-.56-.1-.86a7.4 7.4 0 0 1 2.41.42c.23.13-.14 1.21-.09 1.85a2 2 0 0 0 .53 1.25l.4.36.11-.23a2 2 0 0 1 .11-.23l.4.15c-.08.25-.15.49-.22.74a2.8 2.8 0 0 1 .59 1.12 3 3 0 0 0 .42-.26l.1-.09a1.3 1.3 0 0 0 .24-.23 2 2 0 0 0 .12-.2 2 2 0 0 0 .11-.23 2 2 0 0 0 .08-.6 4 4 0 0 1 .06-.73v-.17a3 3 0 0 1 .1-.32v-.13a2.3 2.3 0 0 1 .27-.52 2 2 0 0 1 .25-.32l.13-.12a2.7 2.7 0 0 1 .58-.4 2.7 2.7 0 0 1 .68-.25h.07a4.4 4.4 0 0 1 .76-.1h.13a7 7 0 0 1 1 0c-.27.39-.52.73-.77 1.1s-.4.55-.63.89a5 5 0 0 0 .72-.26l.17-.09a2.7 2.7 0 0 0 .4-.24l.2-.15.31-.28.1-.1.06-.07.27-.32v-.05l.09-.13a5 5 0 0 0 .27-.39l.08-.12.16-.26c.17-.28.34-.56.52-.83a10.5 10.5 0 0 0 0-1.94c.39.15.78.25.77.32a8.6 8.6 0 0 0 .07 1.43 2 2 0 0 1 .34.4 4 4 0 0 0 .42.47 1 1 0 0 0 .24.16h.07a1 1 0 0 0 .23.06h.1a1.4 1.4 0 0 0 .38-.05l-.78-1.21-.84-1.28.31-.19c.21-.12.4-.24.59-.33l.3-.11c.21-.06.41-.12.59-.19l.27-.14a1 1 0 0 0 .22-.15 2 2 0 0 0 .19-.2 2 2 0 0 0 .16-.25 1.8 1.8 0 0 0 .16-.45 1 1 0 0 1 0-.09c0-.12.06-.22.09-.31v-.09a1.2 1.2 0 0 1 .16-.25l.06-.06.13-.1h.59l.17.06.11.05.2.11.09.05a3 3 0 0 1 .31.21c-.24.68-.47 1.32-.8 2.23l2.5-.23v.64q0 .64-.09 1.23v.06l.33-.18c.55-.3 1.09-.61 1.65-.87l.59-.29.21-.1.29-.16.19-.11a3 3 0 0 0 .3-.21 7 7 0 0 1 0-.92.2.2 0 0 1 0-.08v-.17a1 1 0 0 1 0-.2 1 1 0 0 1 .17-.28l.16-.15v-.67h.13l.37.28c.12-.1.26-.2.42-.31l.38-.27.77-.55.35-.22a.5.5 0 0 0 .06.14l.05.1.2.32v.07l.15.27a1 1 0 0 1 0 .13 1 1 0 0 1 0 .22.7.7 0 0 1 0 .14.13.13 0 0 1 0 .06v.18c0 .07 0 .13-.05.21 0 .07 0 .12-.06.21.41.22.6 0 .73-.35a10 10 0 0 1 .56-1.51c.19-.34.38-.46.63-.43a33.6 33.6 0 0 0 .7-5c0-.19.09-.38.13-.56s.05-1.06.05-1.3v-4.69c0-1.92-.54-3.93.65-5.42a12 12 0 0 1-.47-1.77c0-.37 0-.94.29-1.1.51-.33.95 0 1.24.47a1.4 1.4 0 0 0 .64-1.47l1.07-.2c-1.31 1.51.37 2.9-.49 4.32l-1-.34-.86 1.68a9 9 0 0 0 1.14.28c.43 0 .48.3.5.57a9 9 0 0 1 .61-.76l.4-.4a6.15 6.15 0 0 0 0-3.63 8.5 8.5 0 0 1 0-1.75h.35l.57 2.13 1.2-.2a3.94 3.94 0 0 0 .43 1.79 8 8 0 0 1 1.5-.41 13 13 0 0 1 .12-1.5l1.71 1.41a23.1 23.1 0 0 1 8.3 2.58 11.5 11.5 0 0 1 3.1 2.25 2.68 2.68 0 0 1-.14-1.69 1.16 1.16 0 0 1 2.07-.56c.18.19.09.8-.08 1.13a16 16 0 0 1-1.17 1.82 26.7 26.7 0 0 1 4.88 8.12c.18-1 2.44-15.65 4.05-23.44.47-2 1.84-10.11 6.44-11.79a6.9 6.9 0 0 1 2.95-.37c2.77.29 4.83 2 6.85 3.73.64.55 1.25 1.15 2.08 1.91-.06-.66-.1-1.16-.15-1.61 0 0-.27-1.81-.23-1.85-.62-4.63-1.25-9.25-1.85-13.88 0-.45-.22-2.21-.27-2.66-.2-2-.35-4-.48-5.94v-4.71c.28-2.4.4-4.84.82-7.22 1.23-6.87 4.26-12.75 9.95-17a5.2 5.2 0 0 1 1.51-.74 9.52 9.52 0 0 1 7.64.9 121 121 0 0 1 20.84 14.2 81 81 0 0 0 9 6.87 20.43 20.43 0 0 0 13.93 3c6.68-1 12.55-3.94 18.18-7.47 3-1.87 4.58-4.45 4.22-8.18-.26-2.64-.82-3.45-3.49-3.59a14 14 0 0 0-1.45.06c-2 .14-2.3-.09-2.53-2.18a20.4 20.4 0 0 1 2.08-10.89 29.6 29.6 0 0 0 1.95-17.84 4.8 4.8 0 0 0-.52-1.13 6 6 0 0 0-1 .68c-3.21 3.09-6.34 6.27-9.63 9.27-5.28 4.82-11 8.94-17.95 11.13-4.63 1.45-9.29 2.48-14.16 1.63-6.18-1.09-10.56-4.68-13.5-10.07-4.34-8-6.27-16.41-4.92-25.48.41-2.8 1.23-5.48 3.49-7.36a27.2 27.2 0 0 1 16.76-6.61c4-.14 6.28 2.15 6.19 6.2a59.4 59.4 0 0 0 1.11 12.49c.38 1.9.77 3.79 1.15 5.69l.51.17q5.68-8.59 11.38-17.18a16.5 16.5 0 0 1 2.26-2.9c1.06-1 2-.77 2.39.63a13.6 13.6 0 0 1 .62 4.92c-.39 3.57-1.1 7.12-1.77 10.66-.79 4.12-1.67 8.23-2.51 12.34l.3.28c4-2.95 8.16-5.73 12-8.92 3.34-2.8 6.25-6.09 9.4-9.12 4-3.82 8.11-7.49 12-11.42a40.8 40.8 0 0 1 12.39-8.65A3.35 3.35 0 0 0 325 137c4.08-5.43 8.19-10.84 12.16-16.36a26 26 0 0 0 4.26-10c.76-3.64-.42-6.15-3.84-7.64M104.52 13c0-.24.08-.48.11-.72h.25v.74zm1.56 1.86c.74-1 .78-1 2 0-.89.87-.97.87-2 .02zm.81-1.69a6 6 0 0 1 .47-.36s.12.13.18.19l-.5.39zm-.17-2.44-.11-.38 1.14-.73.57 1.2zm3.33 2.81c0 .1-.09.2-.13.3l-1.19-.49c.8-.35 1.06-.09 1.32.21zm-1.18 1.11 2.13-.32c-.55.89-.6.9-2.13.34zm2.84-.29-.65-.43.12-.22.75.35zM97.22 271.54c-1-.58-1-.84-.16-2.12h.38c-.07.72-.14 1.4-.22 2.12M191.16 109c-3.73 0-7.81-1.93-7.81-8.46V88c0-1.72.68-3.22 3.1-3.22s3.1 1.5 3.1 3.22v11.24c0 2.61 1.23 4.45 3.91 4.45a4.91 4.91 0 0 0 4.72-5.06V88c0-1.72.68-3.22 3.1-3.22s3.1 1.5 3.1 3.22v9.35c.13 7.25-3.63 9.77-3.63 9.77-2.7 1.82-4.57 1.88-9.59 1.88m-55.32-23.28c-.09-.44-.55-.8-.84-1.19.29-.46.57-.92.89-1.35.13-.19.38-.44.55-.42s.69.26.7.42a3.9 3.9 0 0 0 .63 1.77 4.2 4.2 0 0 1 1.14-.16c2.42 0 3.1 1.5 3.1 3.22v11.23c0 2.61 1.23 4.45 3.91 4.45a4.9 4.9 0 0 0 4.72-5.06V88c0-1.72.68-3.22 3.1-3.22s3.1 1.5 3.1 3.22v9.35c.13 7.25-3.62 9.77-3.62 9.77-2.71 1.81-4.58 1.85-9.59 1.85-3.74 0-7.82-1.93-7.82-8.46V88a4.6 4.6 0 0 1 .23-1.47c-.04-.26-.15-.53-.2-.81m-1-7.86c.08 2.23.1 4.46.14 6.69L133.91 86c-.32-1.2-.58-2.16-.86-3.24-.79.39-1.2-.07-1.64-.62s-.35-1.8-1.31-2.24a4 4 0 0 1 .17-.53c-.48-.18-1-.23-1.25-.53s-.05-.86-.1-1.3a6.4 6.4 0 0 0-.23-1.17c-.41-1.27-.88-2.52-1.27-3.79a9 9 0 0 1-.15-1.54 4.2 4.2 0 0 1 1.38 0c1.07.4 1 .45 1.6-.41.08-.12.15-.26.3-.53a3.47 3.47 0 0 1 .83 2.55 1.34 1.34 0 0 1-.7 1.09c-1.39.81-1.65 1.64-1 3.06a10 10 0 0 0 .7 1.18c.6 1 1.18 2 1.82 3a3.4 3.4 0 0 0 .76.63c.18-.32.48-.64.5-1s-.24-.9-.23-1.35a5.5 5.5 0 0 1 .29-1.76 1 1 0 0 1 .85-.41 1 1 0 0 1 .47.77m-18.49 27.86h-.08v8.59a3.1 3.1 0 1 1-6.2 0V97.17c0-6.64 1.18-8.49 2.88-10.25a8.7 8.7 0 0 1 6.28-2.14c0-.33.06-.66.07-1 0-1.43.16-2.85.26-4.6.28.4.49.56.49.72a15.8 15.8 0 0 1-.09 3.36 6.3 6.3 0 0 0-.11 1.51h2.45c5.18 0 9.73 3.92 9.73 12.25 0 6.17-3 11.94-9.56 11.94a6.58 6.58 0 0 1-6.12-3.24m-35.1-20c0 .1-.15.18-.23.26-.08-.11-.21-.22-.22-.34s.13-.18.26-.33c.1.19.2.31.19.41m-.63 8.69.15.27-.26.3c-.06-.11-.2-.23-.18-.31s.19-.18.29-.26m-.48 7.53v-2.12c1.03.58 1.06.87 0 2.12m.49 4a1.8 1.8 0 0 1 0-2c-.02.58-.01 1.16 0 2.06zM79 109.51a19 19 0 0 1 1.26-1.94 2.59 2.59 0 0 1 .7 2.5 1.45 1.45 0 0 1-.82 1 1.43 1.43 0 0 1-1.21-.4c-.2-.23-.11-.83.07-1.16m1.88-10.85c-.9-.75-.51-1.24-.23-1.72H81c0 .5-.06.99-.14 1.72zm.12-9h-.32c0-.61.1-1.23.16-1.85.56.65.16 1.27.16 1.88zm16.22 10-3.66-.92c-3.61-.92-6.41-2.47-6.41-6.79 0-5.24 5-7.18 9.3-7.18 4.72 0 9.47 1.94 9.47 4.89a2.64 2.64 0 0 1-2.59 2.83c-2.42 0-2.5-3-6.41-3-2.17 0-3.57.62-3.57 2s1.4 1.85 3.31 2.3l2.6.61c3.52.84 7.73 2.38 7.73 6.87 0 5.25-4.89 7.67-9.56 7.67-5.61 0-10.28-2.6-10.28-5.77a2.43 2.43 0 0 1 2.51-2.69c2.67 0 2.93 4 7.51 4 2.21 0 3.61-1 3.61-2.34-.02-1.62-1.38-1.88-3.58-2.46zm21.62-32.27c0-.53-.21-1.17.69-1.41l1.21 2.46c-.27.63-.57 1.36-.88 2.1-.64-.41-.94-1.37-1.04-3.13zm.79-4.47.18 1.75h-.34a1.27 1.27 0 0 1 .14-1.73zM134.09 58l.23.41-.32.27a2 2 0 0 1-.22-.46c-.01-.03.22-.12.31-.22m-.27-1.23c.12-.06.3-.19.35-.15a1.9 1.9 0 0 1 .38.46c-.25.09-.46.21-.48.18a3 3 0 0 1-.25-.46zm7.47-1.45c0 .31.05.58.09 1-.3-.12-.53-.14-.62-.26-.42-.56.06-.58.53-.71zM155 66.74l-.88-.22-.47 1c-.33-.37-.59-.65-.88-1l1.11-1.22 1.29 1.2c-.11.06-.17.15-.17.24m-10.57-3.55c0 .1-.15.18-.23.28-.06-.07-.15-.14-.15-.21a2 2 0 0 1 .14-.46c.07.2.2.29.19.39zm-13.54 14.25c0-.34.06-.69.11-1.18.91.37.94.76.55 1.16-.11.12-.43.02-.66.02m3.83-3.81c-.11.58-.23 1.17-.37 1.92l-1.69-.55a6 6 0 0 0 1.23-.63 3.7 3.7 0 0 0 .52-.89zm-7.24-11.43-1-.5.11-.23 1 .44c-.02.09-.07.19-.11.29m-7.91 9.09c.17.25.47.49.49.75.11 1.48.16 3 .21 4.44a1.23 1.23 0 0 1-.87 1.46c-.33-2.3-.09-4.43-.21-6.54zm36.62 2.19c-.33-1 0-1.23.47-1.31l.34.26zm.47-4.25c.52.49.42.93-.17 1.72-.2-.8-.65-1.28.17-1.72m13.86 30.45-3.66-.92c-3.61-.92-6.41-2.47-6.41-6.79 0-5.24 5-7.18 9.3-7.18 4.72 0 9.48 1.94 9.48 4.89a2.64 2.64 0 0 1-2.59 2.83c-2.43 0-2.51-3-6.42-3-2.17 0-3.57.62-3.57 2s1.4 1.85 3.32 2.3l2.59.61c3.52.84 7.73 2.38 7.73 6.87 0 5.25-4.89 7.67-9.56 7.67-5.61 0-10.28-2.6-10.28-5.77a2.44 2.44 0 0 1 2.51-2.69c2.67 0 2.93 4 7.52 4 2.21 0 3.61-1 3.61-2.34 0-1.64-1.36-1.9-3.57-2.48m6.79-24.51h-.32c0-.27.07-.53.1-.8h.31zm0 4.49H177v-.83h.26c.07.28.07.56.07.83zm-.23 1.13a1.31 1.31 0 0 1 0 1.76c-.45-.74-.08-1.24.02-1.76Zm-.69-22.69v-.66a12 12 0 0 1 1.19 0 40 40 0 0 1-.2 5c0 .08-.22.15-.37.24-.12-.14-.29-.24-.3-.36a26 26 0 0 1-.3-4.22zm.57 9.73c.11 0 .19.15.35.28l-.44.21a1.3 1.3 0 0 1-.14-.35s.19-.16.27-.14zm-.42-1.55c.26-.54.4-.81.6-1.23.31.68.22.95-.58 1.23zm.31-2.25c-.08 0-.22-.29-.19-.33a.86.86 0 0 1 .43-.27s.15.21.29.43c-.2.08-.38.19-.51.14zm-24-11.12 1.15 1.18.46-1.12c.83.83 1.66 1.66 2.47 2.5 0 .71-.11 1.41-.14 2.12 0 .24.08.49.08.74 0 1.12-.07 2.24-.08 3.36v5.66c0 .36-.06.72-.09 1.08l-.41.06a11 11 0 0 1-.48-1.32 8.3 8.3 0 0 0-.94-3.19V64h-.06l-1.22.42c.24-.77.25-.78 1.22-.42h.06a1.12 1.12 0 0 0-.63-1.2c-1.35-.69-1.56-1.87-.55-3.45l.75 1.48c.38-1.52-.64-2.4-1.09-3.46.41-.47 1.38-.06 1.55-.92l-2 .19a4.7 4.7 0 0 1 0-.92 1.32 1.32 0 0 0-.39-1.51c-.63-.56-.27-.97.41-1.3zm-7.18-2.09.27-.21.72.14a.2.2 0 0 1 0-.08v.08c1.15-.09 1.61-.92 2-1.92a1 1 0 0 1 .85 1.09 17 17 0 0 1-.19 2c0 .05-.06.12 0 .14.83 1.56-.36 3.34.67 4.92-.81 0-1.15-.19-1.13-1 0-1-.13-1.9-.22-3-1.12.63-.14 1.73-.86 2.48a4.3 4.3 0 0 1-.3-.83 2.8 2.8 0 0 1 0-.76 2.56 2.56 0 0 0-1.74-3.05zm-26.47-1.67c.14-.59.22-.94.3-1.29l.35.08c.15.43.24.85-.65 1.21m.8 2.56-.27 1.09h-.24c0-.37.07-.74.11-1.11zm-.44 2.21.34.2-.59 1.07c-.31-.86-.05-1.06.25-1.27m15-2.67 1.67-.51-.54 1.39zm6.83.66c.1.16.27.31.28.47s-.18.27-.38.55c-.15-.34-.3-.52-.27-.67s.2-.26.33-.35zm-3.5-1.91c0-.15 0-.34.09-.39a1.6 1.6 0 0 1 .62-.2s.17.31.12.37a.9.9 0 0 1-.44.29A1 1 0 0 1 138 50h-.06c-.4.2-.71.75-1.31.31.21-.94.78-.42 1.26-.31m-2.33-.38a2 2 0 0 1-.16.77c-.75-.12-.92-.55-.72-1.11A1.75 1.75 0 0 0 134 47c-.17-.77-.28-1.29-.42-1.95.65-.14 1.41-.32 2.18-.43.11 0 .27.28.48.51-1.11 1.11-1.1 1.18.31 1.86-1.28.58-1.23 1.57-.99 2.64zm-4.72-10.72h1.69v.31a5 5 0 0 0-.53 0 5 5 0 0 0-.56.17c.1.23.14.43.23.46a9 9 0 0 0 1 .23c.45.09.52.39.47.77.21-.46.43-.91.64-1.37.52.29.52.29.68 1.62l1.92 1.11a4.4 4.4 0 0 1-2.6 2.11 15 15 0 0 1 0-2.23 1.05 1.05 0 0 0-.63-1.24 2 2 0 0 0-.48.1 3.4 3.4 0 0 0-.5.4l-1.4-1.06c.03-.36.05-.81.07-1.37zm-7.91-9.5c.1 0 .16.19.28.35-.18.07-.36.2-.4.16a1.6 1.6 0 0 1-.27-.43c.13-.02.28-.11.39-.07zm-3.2 12.65c.45.44.33.93.13 1.63a1.49 1.49 0 0 1-.13-1.63c-.62-.32-.49-.73-.16-1.22.61.41.47.81.16 1.22m-.29-20c.21.48.32.61.3.73s-.17.16-.27.23c-.08-.11-.21-.23-.22-.35s.08-.24.19-.57zm0 4.12c.54.87.57 1.73.09 3.74-.6-1.68-.6-2.5-.05-3.7zm-.32 6.5c.17 0 .38 0 .41.13a5.15 5.15 0 0 1 .14 2.86s-.16.08-.26.12c.71 1 .14 2.05.36 3.35a3.26 3.26 0 0 1-.36-3.35c-.61-.46-.28-1.17-.4-1.75a4.7 4.7 0 0 1 .15-1.32zm.25 25.54a2.88 2.88 0 0 1 .06 2.93c-.58-1.81-.58-2.03-.02-2.89zM80.92 82.72h.39v1.52c-.71-.58-.37-1.08-.39-1.52m19.19 145.89a4.7 4.7 0 0 1-1.32 1.7 5.9 5.9 0 0 1-2.13 1.06 10.4 10.4 0 0 1-2.86.35c-.63 0-1.25 0-1.87-.05s-1.18-.09-1.72-.15-1-.12-1.44-.18-.76-.14-1-.2v-2.75l2.56.21c.92.06 2 .09 3.17.09a5 5 0 0 0 2.57-.53 2 2 0 0 0 .84-1.83 3 3 0 0 0-.11-.83 1.8 1.8 0 0 0-.37-.69 3.3 3.3 0 0 0-.73-.61 9 9 0 0 0-1.17-.59l-2.88-1.19a10 10 0 0 1-1.87-1 6.1 6.1 0 0 1-1.36-1.2 4.6 4.6 0 0 1-.83-1.51 5.7 5.7 0 0 1-.29-1.87 5.7 5.7 0 0 1 .44-2.35A3.7 3.7 0 0 1 89 213a5.7 5.7 0 0 1 2.14-.86 15.3 15.3 0 0 1 3-.26c.6 0 1.19 0 1.76.06s1.1.1 1.59.16.93.13 1.31.2.69.14.92.19v2.72l-2.5-.21q-1.41-.12-2.91-.12a13 13 0 0 0-1.49.08 3.5 3.5 0 0 0-1.07.3 1.6 1.6 0 0 0-.66.59 1.87 1.87 0 0 0-.23 1 2.6 2.6 0 0 0 .11.77 1.64 1.64 0 0 0 .4.63 3.7 3.7 0 0 0 .75.56 10 10 0 0 0 1.19.56l2.58 1A15.4 15.4 0 0 1 98 221.4a5.7 5.7 0 0 1 1.45 1.23 4.2 4.2 0 0 1 .82 1.57 7.7 7.7 0 0 1 .26 2.11 5.4 5.4 0 0 1-.42 2.3m-2.72-24.3q-5 0-7.61-2.59t-2.65-7.89v-25.21l14.54 7.89v13.37a3.93 3.93 0 0 0 .68 2.6 3 3 0 0 0 2.36.79q3.17 0 3.16-3.39v-19a4.27 4.27 0 0 0-1-2.53 6.7 6.7 0 0 0-2.2-2l-12.17-7a9 9 0 0 1-5.03-8.35v-20.75c0-3.68.94-6.38 2.81-8.12s4.55-2.59 8-2.59h12.4q10.71 0 10.71 10.6v19.12l-13.53-7.78v-7.4a4 4 0 0 0-.73-2.64 3 3 0 0 0-2.43-.85 2.88 2.88 0 0 0-2.31.85 4 4 0 0 0-.73 2.64v12.52a5 5 0 0 0 .73 2.87 6.25 6.25 0 0 0 2.09 1.86l12.62 7.44q5.3 3 5.3 8.68v26.49q0 5.42-2.82 7.89c-1.88 1.66-4.54 2.48-8 2.48zm25.84 54.85c-1.15.24-1.5 1.14-1.77 2.18a1 1 0 0 1-1-1 18 18 0 0 1-.06-2.06v-.15c-1-1.46-.06-3.4-1.29-4.86.82-.12 1.19 0 1.27.84a29 29 0 0 0 .59 3c1-.78-.08-1.76.55-2.61a4.5 4.5 0 0 1 .42.8 3.3 3.3 0 0 1 0 .77 2.61 2.61 0 0 0 2.19 2.87l-.26.25-.73-.06zm-9-13.76-1.45-1.05.14-.3.91.12.36-1 1 .88zm.31.82c-.14.81-.15.82-1.17.58zm-.54-14.91v-3.95h3.43v3.95zm-7.42.16a2.83 2.83 0 0 1-1.24-.72 3 3 0 0 1-.7-1.28 7.2 7.2 0 0 1-.22-1.93v-8l-2.7-.22v-2.5h2.7v-3.67h3.39v3.67h3.52v2.72h-3.52v8.73a1 1 0 0 0 .18.48.76.76 0 0 0 .4.24 3.5 3.5 0 0 0 .73.06h2.18v2.31l-.45.1c-.19.05-.42.09-.68.14s-.54.09-.85.12-.62 0-.94 0a6.4 6.4 0 0 1-1.85-.25zm4.38 10.28c-.59-.43-.54-.88 0-1.74.21.78.72 1.2-.05 1.74zm4.64 21.14-1-1.16c-.14.61-.24 1-.33 1.4a2 2 0 0 1-.38 0c-.2-1.18-1-2.23-.78-3.49a1.5 1.5 0 0 0 0-.76c-.81-1.7-.65-3.54-.81-5.33 0-.25-.14-.49-.17-.74-.12-1.14-.21-2.27-.34-3.4-.23-1.9-.49-3.8-.73-5.7v-1.1l.41-.11a11 11 0 0 1 .64 1.27 8.6 8.6 0 0 0 1.35 3.1 1.14 1.14 0 0 0 .78 1.14c1.45.53 1.81 1.69 1 3.4l-.94-1.39c-.19 1.57.94 2.33 1.53 3.35-.36.52-1.38.23-1.45 1.12l2-.44a5.3 5.3 0 0 1 .11.92 1.33 1.33 0 0 0 .59 1.47c.72.46.4.93-.24 1.34l-1.25-1.06-.45 1.68-1.22-.56c.07.51.16 1 .2 1.54.14 1.62.13 1.62 1.69 2.11-.16.42-.21.91-.26 1.4zm1-3.19c.83-1.37 1.82-.81 2.85-.72-.09.5-.16.93-.26 1.5l-.38-.37-.36-.39c-.65 1-1.16-.09-1.93-.02zm.22 1.52.34-.06.81 2 1.17-.34c.06 1.24 1.06 2.08 1.36 3.25.16.62.17.95-.53 1.26l-.52-1.33c-.5.61-1 1.16-2 .51A6.17 6.17 0 0 0 117 263a7.7 7.7 0 0 1-.26-1.78zm1.51 11.87c-.18 0-.39-.11-.73-.23.22-.26.34-.51.44-.5a2.1 2.1 0 0 1 .58.29c-.17.16-.25.43-.37.44zm1.51-3.26-.88.74-1.14-1.12c-.49.95-.13 1.45.64 1.89-2.1 1.27-.51 3-.7 4.63a1.56 1.56 0 0 1-1-1.66 7.2 7.2 0 0 0-.2-2 5.7 5.7 0 0 1 .18-1.8c0-.4.08-.8.11-1.2l1.06-1.25 2.36.11.52.9-1 .73zm.13 1.05c0-.35-.08-.67-.13-1l1.11.55a2.5 2.5 0 0 1-.44.33 3 3 0 0 1-.62.12zm2 3.38a.91.91 0 0 1-.78.43c-.79-.31-.56-.93-.34-1.62.55.24 1.15.39 1.03 1.19zm1.05-2.81c.15-.71.45-1 1-.86s.65.42.55.9l-.07.11zm1.83 2.87c-.13-.24-.27-.48-.39-.73 0 0 .19-.19.2-.18.22.18.42.38.63.58zm-1.14-5.17c-.19-.22-.33-.4-.55-.68l-.78.88a14.2 14.2 0 0 1-1.05-5.49l2.89 1.86c.11 1.18-.87.8-1.42 1.06-.07.57.29.75.73.79.61.05 1.23.05 1.85.07zm12 9.75a2 2 0 0 1 .43.06l.45.21a5 5 0 0 0 .07.51zm2.07-55.57a6.8 6.8 0 0 1-1.78.67 10.7 10.7 0 0 1-1.95.35c-.69.06-1.4.09-2.15.09h-2.08v6.88h-3.48v-19.1c.91 0 1.8-.08 2.66-.1h2.71c.77 0 1.52 0 2.24.09a12 12 0 0 1 2 .33 7 7 0 0 1 1.68.66 4.8 4.8 0 0 1 1.31 1.09 4.9 4.9 0 0 1 .84 1.6 7.3 7.3 0 0 1 .32 2.21v.29a7.4 7.4 0 0 1-.3 2.23 4.5 4.5 0 0 1-2.12 2.73zm.28 65.56c-.35-.73-.29-1.1.56-1.35zm2.27-2.51c-.63.22-1.24.42-1.83.64-.78.28-1.08.11-1.36-.76l3.14-.9-1.34-.57h-.07c-.27.22-.55.43-.83.64a37 37 0 0 0-.52-.81c0-.25 0-.5.08-.75l.32.08-.4.67 1.35.17c0-.22-.05-.55.06-.62a1.9 1.9 0 0 1 .76-.2c.09-.38.17-.73.24-1.07a2.43 2.43 0 0 1 .81 1.72 3 3 0 0 0 .09.42h-.54s-.06.22-.08.37a3 3 0 0 1 .83.46c0 .1.06.19.08.28a7 7 0 0 1 .08.79v.64c-.85.18-.92-.05-1.02-1.2zm-12.24-82.07v-84.77h13.52v33.93l6.39-33.93h12.63L152.06 158l11.5 46.33h-14.43l-7.67-35.51v35.51zm45.66 12.54v2.72h-3.52v8.73a1 1 0 0 0 .18.48.8.8 0 0 0 .4.24 3.5 3.5 0 0 0 .73.06h2.05v2.31l-.45.1c-.19.05-.42.09-.68.14s-.54.09-.85.12-.62 0-.94 0a6.4 6.4 0 0 1-1.83-.23 2.83 2.83 0 0 1-1.24-.72 3 3 0 0 1-.7-1.28 7.2 7.2 0 0 1-.22-1.93v-8l-2.7-.22v-2.5h2.7v-3.67h3.39v3.67zM172.17 260c-1.17.1-1.63.95-2 2a1 1 0 0 1-.87-1.1 18 18 0 0 1 .18-2.06c0-.05.06-.11.05-.14-.85-1.57.34-3.39-.72-5 .83 0 1.17.18 1.16 1 0 1 .15 1.92.25 3 1.12-.65.12-1.76.85-2.53a4.7 4.7 0 0 1 .31.84 3 3 0 0 1 0 .78 2.61 2.61 0 0 0 1.84 3.1l-.28.22-.73-.14zm-10.63-28.7h-3.38v-19.94h3.38zm-11.24-19.74h2.85v3.19h-2.85zm-6.22 0H147v3.19h-2.87zm-1 82.82c0-.53.1-.89.65-.87.09 0 .26.2.26.3.01.59-.4.58-.89.57zm2.62-3.93c0-.12.21-.27.32-.41l.88.74c-.7.36-1.1.32-1.18-.33zm1.45-12.33c-.83 0-1.22-.25-1.41-.58.18-.41.35-.83.53-1.26a2.7 2.7 0 0 1 .9 1.89.1.1 0 0 1 0-.05zm-1-18.6a6 6 0 0 1 .18-1.09c1 1.45.49 2.95.45 4.41s-.16 2.9-.27 4.68c-.28-.41-.49-.57-.49-.74a16.3 16.3 0 0 1 .09-3.41 20.6 20.6 0 0 0 .1-3.85zm.53 9.27c.33 2.33.09 4.49.21 6.63l-.38.12c-.18-.26-.48-.51-.5-.77-.11-1.5-.16-3-.22-4.51a1.25 1.25 0 0 1 .95-1.47zm1.64-16.57a7.7 7.7 0 0 0-1.61 3.27c0 .06-.17.08-.27.12s-.24-.07-.26-.14c-.27-1-.57-2.07-.75-3.12-.12-.66.13-1.38.83-1.46a5.2 5.2 0 0 1 2 .38 1.1 1.1 0 0 1 .12.95zm.23-20.52a6.66 6.66 0 0 1-4.85-1.65q-1.68-1.65-1.68-5.08v-1.77a6.8 6.8 0 0 1 1.68-5.06 7.94 7.94 0 0 1 9.69 0 6.8 6.8 0 0 1 1.68 5.06v1.8q0 3.43-1.68 5.08a6.62 6.62 0 0 1-4.78 1.62zm3.73 56.66c-.21-.48-.32-.62-.31-.74s.18-.16.28-.24c.08.12.21.24.22.37s-.02.25-.13.61zm0-4.15c-.55-.89-.59-1.76-.09-3.8.67 1.75.68 2.59.12 3.8zm8.58 4c0-.2 0-.41-.07-.61a2.5 2.5 0 0 0 .15-1.19h.08a1.29 1.29 0 0 1-.13 1.81zm3.69-13.72a2.75 2.75 0 0 0-.29 1.92c.24 1.8.31 3.62.37 5.43a29 29 0 0 1-.16 2.94 2 2 0 0 1-.18.52h-.33a4.6 4.6 0 0 1-.11-1 42 42 0 0 0-.23-8.22 6.3 6.3 0 0 0-.45-1.48c-.11-.35-.35-.71-.31-1a1.68 1.68 0 0 1 .51-1.17 1.38 1.38 0 0 1 1.28.08c.26.21.28.81.27 1.24a1.8 1.8 0 0 1-.34.75zm10.84-11.79c-.17-.21-.26-.31-.33-.41l-.32-.43c-.68.93-1.06-.21-1.83-.24 1-1.26 1.9-.58 2.91-.38-.11.5-.24.92-.4 1.47zm13.12-37.57h-9.65v.26a9 9 0 0 0 .1 1.43 2.2 2.2 0 0 0 .49 1.1 2.43 2.43 0 0 0 1.16.69 7.2 7.2 0 0 0 2.1.25c.76 0 1.58 0 2.46-.1s1.79-.14 2.75-.23v2.54c-.54.13-1.27.26-2.18.41a21 21 0 0 1-3.18.21 11.7 11.7 0 0 1-3.31-.4 4.9 4.9 0 0 1-2.19-1.24 5 5 0 0 1-1.22-2.2 12.8 12.8 0 0 1-.37-3.26v-.89q0-3.63 1.65-5.43a6.3 6.3 0 0 1 4.88-1.79 7.5 7.5 0 0 1 3.05.56 5.24 5.24 0 0 1 2 1.55 6.5 6.5 0 0 1 1.11 2.38 13.2 13.2 0 0 1 .33 3zm3.68 13.37v2.15c-1.02-.57-1.05-.86.03-2.14zm.16 24.81a5.2 5.2 0 0 0-.67 3 11.6 11.6 0 0 1-.39 2.31 1.26 1.26 0 0 1-.47-1.52 8.7 8.7 0 0 0-.17-4 1.33 1.33 0 0 1 0-.92c.69-1.18.2-2.44.31-3.66.18-2 .3-4 .34-6.06a21 21 0 0 0-.25-3.53 4.27 4.27 0 0 1 .15-2.26 14.4 14.4 0 0 0 .25-2.92 1.5 1.5 0 0 1 .39-1c0 .28.07.55.1.83.16 1.11.08 2.27.94 3.23.25.28.19 1 .09 1.43-.19.85-.63 1.66-.73 2.51-.2 1.75-.25 3.52-.35 5.29-.07 1.14-.08 2.29-.21 3.42a2.2 2.2 0 0 0 .56 2 1.37 1.37 0 0 1 .14 1.86zm3.63 4c0-.21.57-.37 1.05-.66.12.79.19 1.31.31 2.06-.84-.32-1.34-.65-1.34-1.37zm4.59-36v-9.17a10 10 0 0 0-.08-1.31 2.2 2.2 0 0 0-.31-.86 1.3 1.3 0 0 0-.62-.48 3.2 3.2 0 0 0-1-.14 6.5 6.5 0 0 0-1.69.25 19 19 0 0 0-2.11.71v11h-3.36v-14.46h3.23V218a14 14 0 0 1 2.35-1.1 7 7 0 0 1 2.39-.42 6 6 0 0 1 2.45.42 3.25 3.25 0 0 1 1.4 1.17 4.5 4.5 0 0 1 .63 1.79 16 16 0 0 1 .15 2.27v9.17zm3.54-27h-15.9l-11-51.85.33 51.85H165.7v-84.77h17.13l9.58 51.86-.56-51.86h12.29zm31.34-106a3.84 3.84 0 0 1-3.26 3.51 26 26 0 0 1-4 .61 5.72 5.72 0 0 1-4.7-2c-2.59-3-5.26-6-7.79-9-1.51-1.82-.91-3.29 1.49-3.52 2.14-.2 4.31 0 6.47 0v-.11h4.63c4.45 0 7.39 2.81 7.5 7.27a20 20 0 0 1-.31 3.25zM105.13 6.42" style="fill:#085da4" transform="translate(1 1)scale(.78815)"/><path d="M184.65 220.33a2.4 2.4 0 0 0-.94-.81 3.7 3.7 0 0 0-1.67-.31 3.6 3.6 0 0 0-1.63.31 2.4 2.4 0 0 0-.95.82 2.9 2.9 0 0 0-.44 1.13 7.4 7.4 0 0 0-.11 1.24v.22h6.25v-.22a7.6 7.6 0 0 0-.1-1.26 2.85 2.85 0 0 0-.41-1.12M120.9 89.82c-3.61 0-5 3.34-5 7 0 3.31 1.19 7.18 5 7.14 3.95 0 4.93-4.14 4.93-7.14 0-3.82-1.62-6.92-4.93-7m14.04 125.68a6.4 6.4 0 0 0-1.94-.32c-.78 0-1.68-.05-2.72-.05h-.52v6.26h2a14 14 0 0 0 2.06-.13 4 4 0 0 0 1.47-.46 2.25 2.25 0 0 0 .88-.93 3.44 3.44 0 0 0 .29-1.54v-.29a3.1 3.1 0 0 0-.4-1.7 2.22 2.22 0 0 0-1.12-.84M150 228.58a2.2 2.2 0 0 0 1-.66 2.9 2.9 0 0 0 .57-1.19 7.4 7.4 0 0 0 .18-1.76v-1.77a7.3 7.3 0 0 0-.18-1.76 2.8 2.8 0 0 0-.57-1.18 2.3 2.3 0 0 0-1-.66 4.6 4.6 0 0 0-1.42-.2 4.5 4.5 0 0 0-1.41.2 2.2 2.2 0 0 0-1 .66 3 3 0 0 0-.58 1.18 6.8 6.8 0 0 0-.19 1.76v1.8a7.4 7.4 0 0 0 .18 1.76 2.9 2.9 0 0 0 .57 1.19 2.2 2.2 0 0 0 1 .66 4.9 4.9 0 0 0 2.84 0zm-36.19 28.08c.85-.71.24-1.49.38-2.14-.9.48-.66 1.24-.38 2.14m.78 9.15a.94.94 0 0 0 .86.22c.67-.44.37-.93-.1-1.35l-.2-.15c-.75.4-.95.77-.56 1.28m7.51 17.06h-.1l.92-.19a1.48 1.48 0 0 1-1.07-.91c.06.34.1.69.15 1zm-8.92-31v1.48h.32c.31-1.01.31-1.01-.32-1.48m57.49 21.76a10.4 10.4 0 0 1 1.2-2.4h-1.4c.06.77.13 1.62.2 2.4m25.14 7.74a.2.2 0 0 1 0 .06c.03.06.02.02 0-.06m-72.34 14.21-1 .44c.57.47 1 1.09 1.67.41l-.7-.85zm1.1 2.14 1.2 1.3c.26-.79.48-1.49.7-2.18.14-.42.27-.85.41-1.28-.3-.72-.87 0-1.36 0a1.24 1.24 0 0 0-.45.52v.06a14 14 0 0 1-.5 1.58m-4.22-12.79 2-.46c-.5-.26-.93-.52-1.45-.21v-1.38h1.1a2.08 2.08 0 0 1-1.16-.61 1.35 1.35 0 0 1-.7.29c.08.35.33.83.19 1-.69.86-.38 1.83-.34 2.84l-2.45-.3v-.28l-1.08-.27-.8-.2c0 .1-.06.2-.1.3-.07.29-.14.6-.2.92 0 .08.08.18.18.36l.9-.55a2.58 2.58 0 0 1 .15 2.25 1.82 1.82 0 0 0-.06 1.27c.37.56.91.19 1.38 0a2.6 2.6 0 0 1 .74-.19c.31-1.12-.92-.76-1.12-1.59 0-.43.1-1.07.17-1.84l1.42.66a1.8 1.8 0 0 0 .42-.18 4.8 4.8 0 0 1 1.4-.83z" style="fill:#085da4" transform="translate(1 1)scale(.78815)"/><path d="M125.37 289.26a6.7 6.7 0 0 1-1.28 1l1 .05c-.52.3-.86.61-1-.05-.12-.56-.23-1.12-.36-1.73v-.23l-.1.16-1.29 2-.67-1.26a8 8 0 0 0 .54-1.37 11.3 11.3 0 0 0 .43-1.87 1 1 0 0 1 .34-.64c.48-.38 1-.7 1.5-1-.35.78-.29 1.38.6 1.66-.24.62-.44 1.12-.7 1.77l2.29-.9v-3l-1.47-.8c-.31 1.48-1.38.64-2.33.42.06.5.09.84.15 1.32-.14-.05-.26-.11-.39-.17a.6.6 0 0 1-.07.27c-.35.43-.72.84-1.24 1.43v-.08l-.55.78.16.21.44.6c-.22.33-.64.69-.58.9.32 1.07-.48 1.49-1 2.06l-.91 1c.94.34.86.83.67 1.38a2 2 0 0 1-.1.26 3 3 0 0 0-.18.77c.24-.2.47-.39.66-.57l.18-.2a1.5 1.5 0 0 0 .29-1.75c.56.27 1 .68 1.31.58s.65-.69 1-1.1c.86.18 1.41 1.07 2.42 1.07.5 0 .78 1.33.43 1.89a1 1 0 0 1-1.47.43c-.37-.18-.67-.73-1.24-.24l.4.67.14.22.24.41h2.07c-.11-.83 1.28-1.34.49-2.32a5.9 5.9 0 0 0 .49-2.52 9 9 0 0 0 0-1.39v-1c-.6.22-.96.62-1.31.88m-5.26-6.8v.07zm-1.42-.34a3.2 3.2 0 0 1 .11.91 5.4 5.4 0 0 0 .72-1.17 1.35 1.35 0 0 1-.83.26m.18 3.01c-.14-.37-.28-.75-.44-1.16l-.19.06a3.8 3.8 0 0 0-.12.9c.17.11.33.25.49.37zm1.69-3.37a1 1 0 0 1-.06-.13c-.06-.19-.36-.31-.57-.45a1.4 1.4 0 0 1-.14.35l.32.93a.78.78 0 0 1 .45-.7m-3.71 2.93.27-.13c-.09-.39-.18-.78-.29-1.22l-1 .2a.85.85 0 0 0-.14.37 3 3 0 0 1 .53.23 5 5 0 0 1 .63.55m11.84.22 1.46 1.44.12.12-.05-.17c-.19-.65-.32-1.08-.44-1.5zm-.2-1.75a3.3 3.3 0 0 1-.8.39c-.28 0-.57-.09-.85-.08-.07 0-.13.19-.19.32l2 1.07c-.06-.51-.11-1.04-.16-1.7m6.79-2.4-.45.45-.14.14.18.17.42.4zm-11.85 20.61a7 7 0 0 0-.41.58 2.4 2.4 0 0 0-.13.49l.15.05c.73-.77.8-.97.39-1.12m9.33-13.12a3.24 3.24 0 0 0 1.78-2.4c-.71-.22-1.23.28-1.16.56.29 1.13-.69 1.12-1.49 1.57.47.15.75.34.87.27m-7.61 12.65a12 12 0 0 0-.13 2 .5.5 0 0 1 0 .11 2.4 2.4 0 0 1 .53.26s.17-.18.31-.31a3.1 3.1 0 0 0 0-2.39c-.29.09-.69.18-.71.33m-8.88-4.9a7 7 0 0 1 .43.62l.06.07c.44.1.72-.25 1-.51l-1.45-1.27c.01.33-.01.7-.04 1.09m14.01-22c.56-1.88.46-2.06-.64-2l.43 1.56h-.95c0 .08 0 .16-.05.25l.56.21zm1.41 11.22a2.4 2.4 0 0 0-.23.56l2.85-.63a3 3 0 0 0-1.78-.54 1.11 1.11 0 0 0-.84.61m-43.05-9.65-.12-.05.11.08zm.89-11.57c0 .67.11 1.35.18 2 0 .34.08.68.11 1h.38v-2.39c0-.39 0-.72.21-.84a.6.6 0 0 1 .32-.1 5 5 0 0 1 .69 0l1 2.69.59 1.51c0-.31.14-.63.22-.95a4.6 4.6 0 0 0 .15-.95 2.3 2.3 0 0 0 0-.45 2 2 0 0 0-.18-.44 1.4 1.4 0 0 0-.15-.21 2.6 2.6 0 0 0-.45-.4l-.31-.18a2.3 2.3 0 0 0 .54-.33 1.7 1.7 0 0 0 .34-.38 1.43 1.43 0 0 0 .14-1 2 2 0 0 1 0-.26v-.28a5 5 0 0 0 .06-.54v-1.74a9 9 0 0 0-2.32.43 11.3 11.3 0 0 0-1.76.7v2.2c.18.32.22.61.24.91m49.63 29.45c-.15-.95-.23-1-1.22-.78l1.21.88v-.1zm-6.89-12.83c-1.25-.54-1.26-.53-1.79.4zm4.1 10.08a4.6 4.6 0 0 1-.68-.56l-2.9.28c0 .43 0 .78-.07 1.13l-1.37.76 1.85 1.19c.14-.91.87-1.14 1.74-1.25a16 16 0 0 0 1.76-.44l1 .5a2.9 2.9 0 0 0-1.33-1.61m-3.59.84h-.06l1-.48c.11.94.11.94-.94.48m3.65 2.19-1.14-.51c.23 1.1.71.88 1.14.51m-51.29-27.98v.08c-.16.36-.56.55-.61.88a.6.6 0 0 0 .1.42 1.5 1.5 0 0 0 .21.27 1.62 1.62 0 0 0 1.11.39h.98c.07.2.12.39.18.58l.24.76.31 1c0 .06-.06.15-.1.24s0 .14-.08.22-.11.28-.16.43l.52.15.55.15v.06l-.75 1.2.7.75c0-.14.12-.28.19-.43a1.6 1.6 0 0 0 .22-.71c-.05-2.3-.14-4.61-.22-6.91 0-.77 0-1.54-.07-2.3v-1.48a5.13 5.13 0 0 0-2.87 3.66.72.72 0 0 1-.36.5l-.19.11h.2zm7.48 9.86-1.21-.61-.13-.07v.32a.91.91 0 0 0 .57 1 1 1 0 0 0 .16.06c.15 0 .42-.3.79-.59zm36.87-14.31a1.7 1.7 0 0 0-.38-.52c-.15.14-.43.28-.42.41s.23.36.44.66c.18-.26.38-.43.36-.55m-7.77 35.1a5.5 5.5 0 0 1 .23-1.21 2.63 2.63 0 0 0-1.89-.25c.65.65 1.34 1.23 1.1 2.25 0 .1.39.3.6.45l.27-.17a4.8 4.8 0 0 1-.31-1.07M140 296c-.19-.33-.58-.53-.79-.84-.21.1-.48.15-.61.32a3.4 3.4 0 0 0-.41.8c-1 0-1.68-1.34-2.92-.32a5.3 5.3 0 0 0 1.37.85 1.55 1.55 0 0 1 1.23 1c.08.14.19.27.28.41a.7.7 0 0 1 0-.14l2-1.57a.66.66 0 0 0 0-.32.5.5 0 0 0-.15-.19" style="fill:#085da4" transform="translate(1 1)scale(.78815)"/><path d="M124 292.7c-.7 0-1 .22-.64 1zm4.36-11.76c.64 0 1-.28 1.1-1.14-1.23.2-1.23.2-1.1 1.14m-6.59 18.66 1.45-.92c-1.39-.6-1.4-.6-1.45.92m8.7-4.6c.81-.51.37-1.07.16-1.69-.46.94-.46.94-.16 1.69m3.15 3a7 7 0 0 1 1.61.86 1.45 1.45 0 0 0 1.9.26c-.52-.39-1-.82-1.59-1.17a1.38 1.38 0 0 0-1.92.05m-5.27-12 .18 1.58h.33a2 2 0 0 1 0-.24c.08-.47.14-.95-.51-1.34m2.52 4.94-1.35.64 1.36.49c0-.45-.01-.72-.01-1.13m-2.74 6.68c0 .17.1.38.23.83.18-.58.27-.89.36-1.19l-.2-.12c-.14.16-.35.3-.39.48m-70.66-59.73-.45.29a17 17 0 0 0 1.46 1.87 9.2 9.2 0 0 0 1.7 1.18c.1.05.36 0 .48-.15 1.51-1.29 3.08-2.53 2.89-4.85-.08-.92-1-2.33-1.57-2.07-1.31.58-2-.68-3-.9-.73-.15-.89-.1-1.07.52-.14.47-.25 1.12-.59 1.32-.77.47-.53 1-.32 1.55.13.42.3.83.47 1.24m2.88-8.66 1.77-2.69c.5-.74 1.32-1.45 1.4-2.23a6.1 6.1 0 0 1 1.48-3.23c.64-.84 0-1.36-.37-1.85a1.43 1.43 0 0 0-1.34-.16 3 3 0 0 0-1.13 1.19c-.88 1.51-1.36 1.77-3.15 1.38.59.83 1.19 1.46.16 2.36-.58.52-.57 1.7-.83 2.59a2 2 0 0 0 2.01 2.64m7.65.85c.35.26 1.07 0 1.7 0-.13-1.05-.85-1.22-1.61-1.31a2 2 0 0 1-1.36-.58 1.8 1.8 0 0 1-.34-.6c-.18-.53-.84-.88-1.4-1.44a6 6 0 0 1-.4.66c-1.06 1.18-.55 3.35-2.52 4a2.14 2.14 0 0 0 .12 1.24 1 1 0 0 0 .9.3c.87-.25 1.79-.51 1.79-1.72 0-.17.32-.5.47-.49a8 8 0 0 0 1.57-.39 1.35 1.35 0 0 1 1.08.33m-26.7-9.01a2.33 2.33 0 0 0 1.46-.38c1.05-.69 2-1.52 3.05-2.23a16 16 0 0 1 1.89-.91c-1-1.3-1.33-1.43-2.36-1a28 28 0 0 0-3.82 1.68c-.49.3-.7 1.21-.84 1.88a1.13 1.13 0 0 0 .62.96m29.06 6.22c.68.42 1.38 1.09 2.08 1.09s1.28-.71 1.72-1.28c.15-.2-.32-.88-.5-1.33l.82-2.09a7.6 7.6 0 0 0-2.35.38 15.4 15.4 0 0 0-2.49 2c-.06 0 .17.45.29.68a1.6 1.6 0 0 0 .43.55m-24.14 19.59a15 15 0 0 0 1.23 2.27 1 1 0 0 0 .93 0l.35-.52c.53-.79 1-1.59 1.51-2.36a8 8 0 0 0-.61-1.15c-.43.13-.86.28-1.28.44s-1.1.42-1.64.66c-.23.1-.54.53-.49.66m1.01-40.06c-.46 1.43-.31 2.23.7 2.56a1.13 1.13 0 0 0 .84-.12c.95-.63 1.86-1.31 3-2.13a24 24 0 0 1-3.11-.56c-.59-.19-1.06-.93-1.43.25m-3.46-48.02-1.88-1.73c-.52.55-1.18 1.09-1.11 1.21a14 14 0 0 0 1.46 1.85zm-10.34 57.49.37-1.83-3.63.63c.71 2.01 2.01 1.37 3.26 1.2m30.67-78.61a4.6 4.6 0 0 0-.7-1.46 6.3 6.3 0 0 0-1.61-.83c-.16.46-.5.94-.44 1.36.15 1 1.89 1.53 2.75.93m-31.82 19.04c.09 0 .53-.43.5-.59-.08-.4-.27-1-.57-1.08a21 21 0 0 0-2.71-.71c.12.43.12 1.09.42 1.31a10 10 0 0 0 2.36 1.07m23.58 61.05c-1 .41-1.75.68-2.46 1-.29.14-.48.47-.71.71.39.22.83.68 1.16.61 1-.18 1.7-.83 2.01-2.32M48.16 197c-.7-.37-1.14-.78-1.56-.75s-.79.49-1.19.76a10 10 0 0 0 1.64 1c.15.11.55-.43 1.11-1.01m30.44 60.89c.28.21 1-.15 1.48-.26l-1.36-2c-.93 1.09-.72 1.83-.12 2.26M29 137c-1.48-.37-1.49.58-1.77 1.28l.45.39zm20.91 107.5c.56.31.94.68 1.16.6s.54-.55.8-.85c-.27-.21-.57-.61-.8-.58s-.62.42-1.16.83" style="fill:#085da4" transform="translate(1 1)scale(.78815)"/><path d="M94.48 254.07a19 19 0 0 0-.55 1.81 2.5 2.5 0 0 1-.43 1v2.95a8 8 0 0 1 1.18.05c-.09-1.96-.19-3.88-.2-5.81m-6.13 5.7v1.71c.33-.18.67-.37 1-.54v-1.74a.58.58 0 0 1-.46-.05 6 6 0 0 0-.54.62m37.18 35.74s-.01-.01 0 0m8.85-7.2h.09zm-10.91 7.27" style="fill:#ffed00" transform="translate(1 1)scale(.78815)"/><path d="M89 259.14c-.19-.12-.18-.41-.21-.72a.84.84 0 0 0-.4-.78v2.13a6 6 0 0 1 .61-.63m47.46 34.52s.01.03 0 0m.3-1.87h-.06v.09s.02-.05.06-.09m-42.83-35.91a19 19 0 0 1 .55-1.81v-2.24a13 13 0 0 0-.08-2.05c-.08-.74-.19-1.49-.26-2.23a.23.23 0 0 0-.08-.13c-.06-.07-.15-.15-.23-.23l-.12.07c-.12.06-.25.11-.25.18a43 43 0 0 0 0 8.36v1.05a2.5 2.5 0 0 0 .47-.97m.75 3.97a8 8 0 0 0-1.18-.05v1.74a5 5 0 0 1-.06.54v.28a2 2 0 0 0 0 .26 1.43 1.43 0 0 1-.14 1 1.7 1.7 0 0 1-.34.38 2.3 2.3 0 0 1-.54.33l.31.18a2.6 2.6 0 0 1 .45.4 1.4 1.4 0 0 1 .15.21 2 2 0 0 1 .18.44 2.3 2.3 0 0 1 0 .45 4.6 4.6 0 0 1-.15.95c-.08.32-.17.64-.22.95-.2-.5-.39-1-.59-1.51l-1-2.69a5 5 0 0 0-.69 0 .6.6 0 0 0-.32.1c-.16.12-.19.37-.21.84s0 .77 0 1.16v1.23h-.38c0-.34-.07-.68-.11-1-.07-.67-.13-1.35-.18-2 0-.28-.06-.57-.07-.85v-2.2c-.36.17-.7.36-1 .54v1.48c0 .76 0 1.53.07 2.3.08 2.3.17 4.61.22 6.91a1.6 1.6 0 0 1-.22.71c-.07.15-.14.29-.19.43l-.7-.75.75-1.2v-.06l-.55-.15-.52-.15c0-.15.11-.29.16-.43s.06-.15.08-.22.07-.18.1-.24l-.31-1-.24-.76c-.06-.19-.11-.38-.18-.58h-.98a1.62 1.62 0 0 1-1.11-.39 1.5 1.5 0 0 1-.21-.27.6.6 0 0 1-.1-.42c.05-.33.45-.52.61-.88v-.08h-.2c-1 .55-.86 1.56-.77 2.4a11 11 0 0 0 2.49 5.65 7.6 7.6 0 0 0 1.85 1.72l.12.05a6.55 6.55 0 0 0 3 1l1.59.13a12 12 0 0 0 2 0l-.16-.23a1.1 1.1 0 0 1-.17-.38 3 3 0 0 1 0-.28v-1.68l2 .13h.7c-.63-.62-1.76-.55-2.23-1.23V273a1.5 1.5 0 0 1-.19-.94l.23-.17.26-.2.29-.22c-.38-.43-.92-.76-1-1.15a6.7 6.7 0 0 1-.08-2.72 2.7 2.7 0 0 0 0-1.94 6 6 0 0 1-.33-1 1.2 1.2 0 0 1 0-.33 45 45 0 0 0 .01-4.48m-2.85 16.37a.91.91 0 0 1-.57-1v-.32l.13.07 1.21.59.16.08c-.37.29-.64.63-.79.59a1 1 0 0 1-.14-.01m43.87 13.92a4.6 4.6 0 0 0 .68.56 2.9 2.9 0 0 1 1.36 1.57l.21.4c1-.2 1.07-.17 1.22.78l.42-2.88h-.11l-.17-.06-.81.68a6 6 0 0 0-.43-.72c-.37.15-.58.08-.72-.08a2 2 0 0 1-.27-.53 1.5 1.5 0 0 0-.13-.25l-1.24.53zm-.38-9.42v1.21a2.2 2.2 0 0 1 .42-.12h.11a1.8 1.8 0 0 1 .4 0 3 3 0 0 1 .4.07h.1a3 3 0 0 1 .4.12l.6.23.07-.19a3.63 3.63 0 0 1-1.15-1.77l-1.4.4zM136 279a2 2 0 0 0-.43-.06l.95.78a5 5 0 0 1-.07-.51zm-.68 1.72v.06zm5.68 5.4c0-.09 0-.18-.08-.28a3 3 0 0 0-.83-.46l-3.14.9c.28.87.58 1 1.36.76.59-.22 1.2-.42 1.83-.64.1 1.15.17 1.38 1 1.17v-.64a7 7 0 0 0-.14-.81m-.24-1.12a3 3 0 0 1-.09-.42 2.43 2.43 0 0 0-.81-1.72c-.07.34-.15.69-.24 1.07a1.9 1.9 0 0 0-.76.2c-.11.07-.05.4-.06.62l1.34.57c0-.15.05-.37.08-.37zm-45.27-8.34c0 .09-.08.18-.11.27l1.4.41.91-1.47-.12.06a5.7 5.7 0 0 1-2.08.73m1.31.68v.05z" style="fill:#ffed00" transform="translate(1 1)scale(.78815)"/><path d="m97.57 275.93.12-.06.22-.35-.3-.2a3.14 3.14 0 0 0-1.29-.5c-.49 0-.66.47-.75 1.54a1.1 1.1 0 0 1-.08.3 5.7 5.7 0 0 0 2.08-.73M152.46 291a.7.7 0 0 1 .27.12 1 1 0 0 1 .2.16 8.6 8.6 0 0 1-.07-1.43c0-.07-.38-.17-.77-.32a10.5 10.5 0 0 1 0 1.94 6 6 0 0 1 .37-.47m-55.68-13.61v-.05l-.06.05zm4.87-.93a2.57 2.57 0 0 0-.6-2.42 4 4 0 0 1-.5.54 5.2 5.2 0 0 1 1.1 1.88m-.6-2.46a2.3 2.3 0 0 0-.82-.46 10 10 0 0 1-1.23-.64v1.29a2.2 2.2 0 0 1 .48-.06 1.46 1.46 0 0 1 1.06.36 4 4 0 0 0 .51-.49m51.26 10.21c.56-1.23.55-2-.09-3.8-.5 2.04-.46 2.91.09 3.8M196 267.34c-.06.72.49 1.05 1.36 1.4-.12-.75-.19-1.27-.31-2.06-.47.32-1.05.45-1.05.66m-56.81 27.8c.21.31.6.51.79.84a.5.5 0 0 1 .07.17.66.66 0 0 1 0 .32l1-.81c0-.17 0-.35-.07-.53a1 1 0 0 0-.45-.17 1.06 1.06 0 0 0-.53.09 2 2 0 0 1-.69.06h-.17zm-41.97-23.6c.08-.72.15-1.4.22-2.08h-.38c-.88 1.24-.86 1.54.16 2.08m.01-12.67c0 .38-.09.77-.13 1.15.73-.58.72-1.02.13-1.15m43.61 34.62c0-.19-.05-.39-.07-.59l-.58.37.26.34a1.5 1.5 0 0 0 .39-.12m3.45 2.95v-.09a5 5 0 0 0-.4-.43l-.15.3zm.03-.09c.07-.25.14-.49.22-.74l-.4-.15a2 2 0 0 0-.11.23l-.11.23a5 5 0 0 1 .4.43m1.4-5.9c.08.65.48.69 1.2.33L146 290c-.07.18-.3.33-.28.45m-7.82-5.03c.28-.21.56-.42.83-.64l-1.35-.17c.18.27.35.54.52.81m.83-.64h.07zm2.59 10.54h-.06zm2.43-1.81c-.55 0-.64.34-.65.87.49 0 .89 0 .91-.57-.01-.1-.17-.3-.26-.3m-5.84-4.62.56-1.35c-.85.25-.91.62-.56 1.35m-40.05-15.6a2 2 0 0 0 .21.46l.9-.81-1-.15a2 2 0 0 0-.11.5m10.29-.08h-.08a.1.1 0 0 1 .05 0zM152 287.62c0 .12.1.26.31.74.11-.33.21-.48.19-.61s-.14-.25-.22-.37c-.07.08-.28.15-.28.24M135.29 282v-.07l-.42-.4-.18-.17a2 2 0 0 0 0 .53 2 2 0 0 0 .06.24c.11.31.26.26.42.09a3 3 0 0 0 .2-.25zm-.6-.65v.05zm.63.65v-.05zm2.13 1.82c0 .25 0 .5-.08.75l.4-.67zm-12.38 6.47-1-.05c.14.66.48.35 1 .05m7.71 1.25c1.05.44 1.05.44 1-.48zm-.06.02h.06zM138.39 35h.06zm7.32 7.21v.01zm-9.39-4.59.67-1.25.71 1.27a1.2 1.2 0 0 0 .3-.46c-.09-.09-.17-.18-.26-.26l-1.55-1.53c-.03.74.09 1.49.13 2.23M142 48.77a1.8 1.8 0 0 0 .37.52c.15-.14.42-.28.42-.41s-.23-.36-.44-.65c-.22.26-.42.43-.35.54m-6.73-12.66c-.13-.06-.26-.18-.37-.16s-.15.18-.23.29a2 2 0 0 0 .41.13s.1-.14.19-.26m-5.06-2.56a1.9 1.9 0 0 0 .56.39c.1 0 .27-.19.5-.38a3 3 0 0 0-.73-.44c-.07-.02-.22.28-.33.43m3.66.16a7.2 7.2 0 0 0-2-1.51l.24.77c.3.89.38.93 1.76.74m14.21 17.91h.25l.09-.78h-.29c-.01.27-.03.53-.05.78m6.08 3.44c0-.05-.18-.16-.22-.14a1.4 1.4 0 0 0-.27.27l.37.32a1.3 1.3 0 0 0 .12-.45m1.48-.76c-.93.6-.42 1.43-.64 2.05.94-.35.8-1.12.64-2.05m-.26 8.12h.15c.05-.24.11-.48.16-.73h-.26c-.02.23-.03.48-.05.73m.29-3.35c.05-.56.1-1 .14-1.45h-.32c-.38.92-.38.92.18 1.45m-10.76-4.32s.01-.01 0 0M177 62.67c.15-.09.36-.16.37-.24a40 40 0 0 0 .2-5 12 12 0 0 0-1.19 0v.66a26 26 0 0 0 .33 4.21c.04.13.21.23.29.37M139.8 46" style="fill:#ffed00" transform="translate(1 1)scale(.78815)"/><path d="m137.7 37.64-.7-1.27-.67 1.25v.08c.46 1.86 1.84 2.54 3.66 2.82l-.68.53 1.4 1 .65-.34a24 24 0 0 1 2.26 2c.17.18 0 .94-.25 1.17-1.13 1-1.16 1-1.13 2.24-.55.13-.7-.16-.73-.64a11.4 11.4 0 0 0-.18-1.93c-.18-.77-.54-.87-1.48-.56a.7.7 0 0 0 .19.06c-.07.64-.14 1.27-.2 1.91a1.11 1.11 0 0 1 .38 1.77 1.1 1.1 0 0 0-.14.85c.3.85.69 1.67 1.07 2.57.77-.35 1-1.55 2-1.16a4.6 4.6 0 0 1-.24 1 1.44 1.44 0 0 0 .46 1.91 8.2 8.2 0 0 1 1.54 1.84 6.7 6.7 0 0 0 .13-1.17c-.06-1.47-.23-2.93-.22-4.39a10 10 0 0 0-.52-3.73 6.6 6.6 0 0 1-.15-1.44l1.06.08q-3.61-3.44-7.21-6.9a1.2 1.2 0 0 1-.3.45m4.63 11.65a1.8 1.8 0 0 1-.37-.52c0-.11.17-.28.35-.54.21.29.42.46.44.65s-.27.27-.42.41" style="fill:#ffed00" transform="translate(1 1)scale(.78815)"/><path d="M139.81 44c-.27-.42-.64-.8-1.12-.51s-.92.49-.67 1.3l2-.73a.7.7 0 0 1-.19-.06Z" style="fill:#ffed00" transform="translate(1 1)scale(.78815)"/><path d="M139.81 44a.7.7 0 0 0 .19.06.7.7 0 0 1-.19-.06M155 56.35h-.06c-.06 0 0 0 0 0zs0 .03 0 0" style="fill:#ffed00" transform="translate(1 1)scale(.78815)"/><path d="M152.53 54.19a1.32 1.32 0 0 1 .39 1.51 4.7 4.7 0 0 0 0 .92l2-.19h.06c.22-.62-.29-1.45.64-2.05.16.93.3 1.66-.64 2.05v.07h-.06c-.17.86-1.14.45-1.55.92.45 1.06 1.47 1.94 1.09 3.46l-.75-1.48c-1 1.58-.8 2.76.55 3.45a1.12 1.12 0 0 1 .63 1.2 8.3 8.3 0 0 1 .94 3.19 11 11 0 0 0 .48 1.32l.41-.06c0-.36.09-.72.09-1.08v-5.66c0-1.12.06-2.24.08-3.36 0-.25-.08-.5-.08-.74 0-.71.1-1.41.14-2.12-.81-.84-1.64-1.67-2.47-2.5l-.48 1.05-1.09-1.18c-.67.33-1.03.74-.38 1.28m3 8.25h-.15c0-.25 0-.5.05-.75h.26c-.05.31-.11.51-.16.75m.14-3.37c-.56-.53-.56-.53-.18-1.47h.32c-.04.46-.09.91-.14 1.47m-1.73-4.15s.22.09.22.14a1.3 1.3 0 0 1-.12.45l-.37-.32a1.4 1.4 0 0 1 .27-.27m-19.61 22.15a1 1 0 0 0-.85.41 5.5 5.5 0 0 0-.29 1.76c0 .45.26.91.23 1.35s-.32.66-.5 1a3.4 3.4 0 0 1-.76-.63c-.64-1-1.22-2-1.82-3a10 10 0 0 1-.7-1.18c-.61-1.42-.35-2.25 1-3.06a1.34 1.34 0 0 0 .7-1.09 3.47 3.47 0 0 0-.83-2.55c-.15.27-.22.41-.3.53-.55.86-.53.81-1.6.41a4.2 4.2 0 0 0-1.38 0 9 9 0 0 0 .15 1.54c.39 1.27.86 2.52 1.27 3.79a6.4 6.4 0 0 1 .23 1.17c.05.44-.11 1 .1 1.3s.77.35 1.25.53a4 4 0 0 0-.17.53c1 .44.76 1.55 1.31 2.24s.85 1 1.64.62c.28 1.08.54 2 .86 3.24l1.07-1.4c0-2.23-.06-4.46-.14-6.69a1 1 0 0 0-.47-.82m-2.49-44.95v.08a7.2 7.2 0 0 1 2 1.51c-1.38.19-1.46.15-1.77-.74l-.24-.77h-1.72c-.48.83-.87 1.69-.4 2.44a11 11 0 0 1 2.24.73 10 10 0 0 1 1.58 1.46l.16-.14.31 1.5 2.27-.43v-.06c0-.74-.16-1.49-.13-2.23-1-1-2-1.92-2.93-2.9-.69-.69-1.36-1.4-2-2.09a6.6 6.6 0 0 0 .6 1.73zm-1.07 1.82a1.9 1.9 0 0 1-.56-.39c.11-.15.26-.45.33-.43a3 3 0 0 1 .73.44c-.27.19-.4.44-.5.38m4.13 2c.11 0 .24.1.37.16-.09.12-.14.27-.19.26a2 2 0 0 1-.41-.13c.08-.1.14-.23.23-.23z" style="fill:#ffed00" transform="translate(1 1)scale(.78815)"/><path d="M131.86 32.2v-.08h-.05zm4.46 5.42v.06zM137.77 85a3.9 3.9 0 0 1-.63-1.77c0-.16-.44-.39-.7-.42s-.42.23-.55.42c-.32.43-.6.89-.89 1.35.29.39.75.75.84 1.19 0 .27.13.55.2.82a2.43 2.43 0 0 1 1.73-1.59m9.75-31.11a2.8 2.8 0 0 0 0 .76 4.3 4.3 0 0 0 .3.83c.72-.75-.26-1.85.86-2.48.09 1.1.24 2 .22 3 0 .78.32 1 1.13 1-1-1.58.16-3.36-.67-4.92v-.14a17 17 0 0 0 .19-2 1 1 0 0 0-.85-1.09c-.38 1-.84 1.83-2 1.92l-.72-.14-.27.21a2.56 2.56 0 0 1 1.81 3.05m.81-2.24h-.25v-.77h.29zm-12.11-6.51c-.21-.23-.37-.53-.48-.51-.77.11-1.53.29-2.18.43.14.66.25 1.18.42 1.95a1.75 1.75 0 0 1 .7 2.28c-.2.56 0 1 .72 1.11a2 2 0 0 0 .16-.77c-.24-1.07-.29-2.06 1-2.63-1.44-.68-1.45-.75-.34-1.86m-3.05-4.22.03-.04zm.66 1.2a15 15 0 0 0 0 2.23 4.4 4.4 0 0 0 2.6-2.11l-1.92-1.11c-.16-1.33-.16-1.33-.68-1.62-.21.46-.43.91-.64 1.37a1.05 1.05 0 0 1 .64 1.24M120 83.27a15.8 15.8 0 0 0 .09-3.36c0-.16-.21-.32-.49-.72-.1 1.75-.21 3.17-.26 4.6 0 .33 0 .66-.07 1h.62a6.3 6.3 0 0 1 .11-1.52M80.12 111a1.45 1.45 0 0 0 .82-1 2.59 2.59 0 0 0-.7-2.5 19 19 0 0 0-1.24 2.01c-.16.33-.25.93-.07 1.12a1.43 1.43 0 0 0 1.19.37m39.72-40.44c.31-.74.61-1.47.88-2.1L119.51 66c-.9.24-.72.88-.69 1.41.1 1.76.4 2.72 1.02 3.15m-.44 7.38a1.23 1.23 0 0 0 .87-1.46c0-1.48-.1-3-.21-4.44 0-.26-.32-.5-.49-.75l-.38.11c.12 2.11-.12 4.24.21 6.54M132.69 41a2 2 0 0 1 .48-.1c.05-.38 0-.68-.47-.77a9 9 0 0 1-1-.23c-.09 0-.13-.23-.23-.46a5 5 0 0 1 .56-.17 5 5 0 0 1 .53 0v-.37h-1.69c0 .56 0 1-.05 1.41l1.4 1.06a3.4 3.4 0 0 1 .47-.37m18.86 9.77c-.1-.15-.21-.29-.31-.43l-.32-.41c-.17.55-.3 1-.44 1.44.85.17 1.62.68 2.44.07l-.69-.66-.33-.31a.8.8 0 0 0-.35.3m1.17 15.72c.29.34.55.62.88 1l.47-1 .88.22c.05-.09.11-.18.17-.27l-1.29-1.2zm-33.24-40.28c-.55 1.2-.55 2 .09 3.74.48-2.01.43-2.87-.09-3.74m-.07 32.04c-.56.86-.56 1.08.06 2.93a2.88 2.88 0 0 0-.06-2.93m.04-22.43c.1 0 .26-.07.26-.12a5.15 5.15 0 0 0-.14-2.86c0-.08-.24-.08-.41-.13a4.7 4.7 0 0 0-.11 1.36c.12.58-.21 1.29.4 1.75M132.66 75l1.69.51c.14-.75.26-1.34.37-1.92l-.31-.11a3.7 3.7 0 0 1-.52.89 6 6 0 0 1-1.23.63M80.12 99.82v2.12c1.08-1.25 1.05-1.54 0-2.12m39.71-60.6c-.22-1.3.35-2.37-.36-3.35a3.26 3.26 0 0 0 .36 3.35m-39.2 57.72c-.28.48-.67 1 .23 1.72.08-.73.13-1.22.18-1.71zm76.03-24.77c-.49.08-.8.3-.47 1.31l.81-1zM131 76.26c-.05.49-.08.84-.11 1.18.23 0 .55.1.66 0 .39-.44.36-.81-.55-1.18m-11.39-13.32a1.27 1.27 0 0 0-.16 1.79h.34zM80.82 87.83c-.06.62-.11 1.24-.16 1.85H81c0-.6.4-1.22-.18-1.85m53.7-36.58 1.13.88.54-1.39zm22.14 17.98c-.82.44-.37.92-.17 1.72.59-.79.69-1.23.17-1.72m20.39 13.32a1.31 1.31 0 0 0 0-1.76c-.05.52-.42 1.02 0 1.76M80.63 106v-2a1.8 1.8 0 0 0 0 2m38.87-58.14c-.08.35-.16.7-.3 1.29.89-.36.79-.78.65-1.21zM154.84 64h.06zm-1.22.42 1.22-.42c-.97-.36-.98-.35-1.22.42M81.33 84.21v-1.52h-.39c0 .47-.34.97.39 1.52m38.16-31.46h.24l.27-1.09-.4-.07c-.04.41-.07.79-.11 1.16m22.14-.37c0-.16-.18-.31-.28-.47-.13.12-.34.22-.37.35s.12.33.27.67c.2-.28.38-.42.38-.55m-.34 2.97c-.47.13-.95.15-.53.73.09.12.32.14.62.26-.04-.41-.06-.68-.09-.99m-14.78 6.35 1 .5c0-.1.09-.2.13-.29l-1-.44zM177 79.66h.31v-.82h-.26c-.05.27-.05.54-.05.82m-57.43-38.83c-.33.49-.46.9.16 1.22.27-.41.45-.81-.16-1.22m19.7 6.69c.19-.61.33-1 .46-1.47-.54.47-.55.52-.46 1.47m.53-1.52v.1zm5.11 8.87v-.1a.3.3 0 0 0 0 .1m0 0c0 .57-.08 1.15-.13 1.92.87-.79.13-1.35.13-1.92m-25.6.32.59-1.07-.34-.2c-.3.21-.56.41-.25 1.27M137.89 50c-.48-.12-1-.64-1.31.31.6.45.91-.1 1.31-.31m.03 0h.08Zm.87-.22c.05-.06-.09-.37-.12-.37a1.6 1.6 0 0 0-.62.2c-.08 0-.07.24-.09.39a.9.9 0 0 0 .39.07.9.9 0 0 0 .44-.29m-.84.24-.03-.03zm-4.17 8.23a2 2 0 0 0 .22.46l.32-.27-.23-.41c-.09.07-.32.16-.31.22m43.38 6.8c-.2.42-.34.69-.6 1.23.8-.28.89-.55.6-1.23m-.07 9.28c0 .27-.07.53-.1.8h.32l.09-.81zM80.8 85.64c0 .12.14.23.22.34.08-.08.22-.16.23-.26s-.09-.22-.19-.41c-.13.15-.27.25-.26.33M80.51 95l.26-.3-.15-.27c-.1.08-.25.15-.29.26s.12.18.18.31m39.22-52.94s0 .02 0 0m.12 1.68c.2-.7.32-1.19-.13-1.63a1.49 1.49 0 0 0 .13 1.63" style="fill:#ffed00" transform="translate(1 1)scale(.78815)"/><path d="M146.73 50.72v-.08a.2.2 0 0 0 0 .08m-12.56 5.93s-.23.09-.35.15a3 3 0 0 0 .25.49s.23-.09.48-.18a1.9 1.9 0 0 0-.38-.46m9.98 6.82c.08-.1.22-.18.23-.28s-.12-.2-.24-.39a2 2 0 0 0-.14.46c0 .07.09.14.15.21m32.96-.04a.86.86 0 0 0-.43.27s.11.33.19.33.31-.09.53-.17c-.14-.22-.25-.45-.29-.43m.22 4.68c-.16-.13-.24-.24-.35-.28s-.23.09-.23.14a1.3 1.3 0 0 0 .14.35zm-54.12-38.35c-.12-.16-.18-.32-.28-.35s-.26.05-.39.08a1.6 1.6 0 0 0 .27.43s.19-.09.4-.16m-9.12-16.92.6.62c-.11-.31-.22-.61-.6-.62m3.6 3.61c0-.06-.14-.08-.22-.12l.23.24a.16.16 0 0 0-.01-.12M103.39 9c0-.06 0-.1-.08-.15a1 1 0 0 1 0 .17zm9.61 3h.23l-1.43-1.47a1.4 1.4 0 0 1 .08.41C112 12 112 12 113 12m-4.44-2.61c.72 1.49 2.06.47 3.06.91L109.38 8l-.49.22Zm-4.33 1.52c1-.67 1.63-1.19 2.34-1.66 1-.63 1-.61.67-2l-2.54.18c-.25.68-.45 1.39-1.3 1.53l1.25.69c-.13.43-.23.72-.42 1.26m15.45 10.03a15 15 0 0 1 0-2.31c-.3-.32-.62-.63-.93-.95-.05 1 .23 2 .16 2.95.01.06.39.16.77.31m-13.6-6.06c1 .85 1.11.85 2 0-1.22-1.02-1.26-1.02-2 0m8.82-.96a1.8 1.8 0 0 1-.2-.44l-.6-.62a1.1 1.1 0 0 0-.34 0c.16 1.08.16 1.08 1.14 1.06m-8.29-3.55.11.38 1.6.09-.57-1.2zm4.39 3.98-2.13.32c1.53.56 1.58.55 2.13-.32m-.95-.79c-.26-.3-.52-.58-1.32-.19l1.19.49c.08-.1.08-.2.13-.3m-2.51-.56c-.06-.06-.17-.2-.18-.19a6 6 0 0 0-.47.36l.15.22zm3.52 1 .65.43.22-.3-.75-.35zm-6.43-1.7c0 .24-.07.48-.11.72h.37v-.74zm15.11 10.52c0-.12-.09-.25-.3-.73-.11.33-.21.48-.19.61s.14.24.22.35c.1-.05.26-.14.27-.23m-2.06-6.11a1 1 0 0 1 0-.13l-.23-.24a3 3 0 0 1-.11.24zm28.64 234.18c-.7.08-.95.8-.83 1.46.18 1.05.48 2.08.75 3.12 0 .07.17.1.26.14s.25-.06.27-.12a7.7 7.7 0 0 1 1.61-3.27 1.1 1.1 0 0 0 0-.95 5.2 5.2 0 0 0-2.06-.38m-.24 15.89c0 .17.21.33.49.74.11-1.78.22-3.23.27-4.68s.53-3-.45-4.41a6 6 0 0 0-.18 1.09 20.6 20.6 0 0 1 0 3.85 16.3 16.3 0 0 0-.13 3.41m.21 9.5c-.18.43-.35.85-.53 1.26.19.33.58.56 1.41.58a.1.1 0 0 0 0 .05 2.7 2.7 0 0 0-.88-1.89m-.44-6.02c.06 1.51.11 3 .22 4.51 0 .26.32.51.5.77l.38-.12c-.12-2.14.12-4.3-.21-6.63a1.25 1.25 0 0 0-.89 1.47M161 286.42a2.5 2.5 0 0 1-.15 1.19c0 .2 0 .41.07.61a1.29 1.29 0 0 0 .16-1.81zm2.4-14.09a1.68 1.68 0 0 0-.51 1.17c0 .32.2.68.31 1a6.3 6.3 0 0 1 .45 1.48 42 42 0 0 1 .23 8.22 4.6 4.6 0 0 0 .11 1h.33a2 2 0 0 0 .18-.52 29 29 0 0 0 .16-2.94c-.06-1.81-.13-3.63-.37-5.43a2.75 2.75 0 0 1 .29-1.92 1.8 1.8 0 0 0 .37-.85c0-.43 0-1-.27-1.24a1.38 1.38 0 0 0-1.28.03m28.78-2.03a1.16 1.16 0 0 0-2.07.56 2.68 2.68 0 0 0 .14 1.69 3 3 0 0 0 .58.85l.1-.15a16 16 0 0 0 1.17-1.82c.17-.33.26-.94.08-1.13m.04-31.79c-1.08 1.28-1.05 1.57 0 2.15.01-.76.01-1.45 0-2.15m-.53 20.94c.13-1.13.14-2.28.21-3.42.1-1.77.15-3.54.35-5.29.1-.85.54-1.66.73-2.51.1-.46.16-1.15-.09-1.43-.86-1-.78-2.12-.94-3.23 0-.28-.07-.55-.1-.83a1.5 1.5 0 0 0-.39 1 14.4 14.4 0 0 1-.25 2.92 4.27 4.27 0 0 0-.15 2.26 21 21 0 0 1 .25 3.53c0 2-.16 4.05-.34 6.06-.11 1.22.38 2.48-.31 3.66a1.33 1.33 0 0 0 0 .92 8.7 8.7 0 0 1 .17 4 1.26 1.26 0 0 0 .47 1.52 11.6 11.6 0 0 0 .39-2.31 5.2 5.2 0 0 1 .67-3 1.37 1.37 0 0 0-.13-1.86 2.2 2.2 0 0 1-.54-1.99m-142.03-68.7a3 3 0 0 1-1.12 1.78c-.19.17-.23.51-.35.82.78.37 1.21.09 1.4-.57a2 2 0 0 1 2.1-1.7l.33-.31a4.13 4.13 0 0 1-2.36-.02m-.35-1.31a2.4 2.4 0 0 1 .3.74L51 190l.35-.05c.68-.13 1.32-.23 2-.34h.05c-.52-.54-1.1-1.17-1.72-1.76l-.06-.05c-.09-.09-.43.09-.78.17 0 .16.05.29.08.42.18 1.25-.01 1.29-1.61 1.05m5.69-2.85a1.21 1.21 0 0 1 1-.77.76.76 0 0 1 .5-.45c0-.28.09-.57.14-.85l.06-.38c-.67-.06-.67-.06-1.68 1.08l-2.56-.22a4.5 4.5 0 0 0 .23 2 6.6 6.6 0 0 0 .86 1.63 17 17 0 0 0 1.45-2.04" style="fill:#ffed00" transform="translate(1 1)scale(.78815)"/><path d="M57.6 184.68a6 6 0 0 1 .48.38 5 5 0 0 1 .41.52c-.24.14-.4.32-.51.28a12 12 0 0 1-1.11-.44.7.7 0 0 0-.42 0 .76.76 0 0 0-.5.45 2 2 0 0 1 .39.4 4 4 0 0 1 .21.7l1.53-.08h.46l.86-1.36-.64-.44-.94-.65zm-10.37 8.49c-.14.59-.24 1-.38 1.65l1.62-.1zm-.1-.64c.3-.86-.21-.94-.7-1.05a1.7 1.7 0 0 1-.32-.09 2 2 0 0 1 .1.25c.15.42.22.91.92.89m-10.96 5.31-.36.85s-.55 1.25-.75 1.65c.87-.25 1.07-.7 2.06-.7a1.64 1.64 0 0 0 1.65-1.5 7 7 0 0 1 .39-1.06c1.26.31.68 1.57 1.18 2.39.94-.6 1.83-1.12 2.65-1.73a1.25 1.25 0 0 0 .42-.88c0-1 .54-1.44 1.49-1.41l1-1.93.21.06c-.68-.89-1.08-1-1.75-.41a13.5 13.5 0 0 0-1.4 1.69c-.34.44-.67.61-1.1.13l.13-.18c.68-1 .62-1.06.25-2.65a.5.5 0 0 1 0-.21l-.55.12-1.25.37a12 12 0 0 0-2 .71l-.36.17c-1 .47-1.45 3.51-1.91 4.52m4.91-1.16a1.8 1.8 0 0 1-.68.24c0-.22-.22-.53-.13-.64s.44-.2.83-.34c0 .36.08.65-.02.74m7.24-6.29-.54.09-1.17.2-.25.07c.08.13.16.29.24.44h1.96c-.09-.33-.17-.56-.24-.8M51 190l-1.36.22-1 .17a7 7 0 0 0 1.09.4 4.13 4.13 0 0 0 2.36 0 3.9 3.9 0 0 0 1.49-.85l.05-.07v-.29h-.26c-.66.11-1.3.21-2 .34z" style="fill:#ffed00" transform="translate(1 1)scale(.78815)"/><path d="m127.71 276.24.54.06c.19-.15.55-.31.67-.57s-.15-.6-.36-.73a5 5 0 0 0-1-.47c.15.19.32.37.47.57-.3.23-.27.69-.32 1.14M115 277.66a1.36 1.36 0 0 1-.07.65 1.38 1.38 0 0 1 1.12.26 1.8 1.8 0 0 0 1-.3c-.09-.67-.23-1.3-.37-1.94s-.3-1.29-.42-2c-.15-.89-.33-1.78-.51-2.7-.15-.71-.3-1.43-.45-2.19h.28l1.26-.11c-.08-.32-.07-.69-.6-.68a7.4 7.4 0 0 1-1.17-.15l.66-1.76 1 .22c.69-1.51-1.15-2.7 0-4.34l-1 .32a1.4 1.4 0 0 1-.46 1.53l.2.15c.47.42.77.91.1 1.35a.94.94 0 0 1-.86-.22c-.39-.51-.19-.88.56-1.28-.35-.45-.82-.71-1.29-.32-.22.18-.23.77-.16 1.13a12.5 12.5 0 0 0 .67 1.7c-.82 1.32-.43 2.85-.16 4.41.06.35.11.69.15 1 .01 1.8.26 3.53.52 5.27m2.53 8.4 2.45.3c0-1-.35-2 .34-2.84.14-.17-.11-.65-.19-1s0 0 0-.07l-.32-.93-.06-.16c-.06.17-.14.33-.21.49a5.4 5.4 0 0 1-.72 1.17 4.2 4.2 0 0 1-1.12 1 .66.66 0 0 0-.18.24l.74-.24.19-.06c.16.41.3.79.44 1.16l-.26.17c-.16-.12-.32-.26-.49-.37s-.11-.08-.16-.1a3.3 3.3 0 0 0-.55-.17.15.15 0 0 0 0 .07 2.5 2.5 0 0 1 .15 1c-.02.15-.03.28-.05.34m3.72-4.67c.21.12.51.2.6.37a1.48 1.48 0 0 0 1.07.91 3.4 3.4 0 0 0 .57.11l-.06-.21a10.4 10.4 0 0 0-.48-1.56.81.81 0 0 0-.75-.31 1.9 1.9 0 0 0-.51.29c-.16.12-.3.24-.46.35zm9.75-16.33a1.9 1.9 0 0 0 .5.44.6.6 0 0 0 .69-.07c.33-.27.87-.61.51-1.39l-1.11.57-.79.42a.6.6 0 0 1 .2.03m-17-5.73c0-.52-.13-1-.2-1.54l1.22.56.45-1.68 1.25 1.06c.64-.41 1-.88.24-1.34a1.33 1.33 0 0 1-.59-1.47 5.3 5.3 0 0 0-.11-.92l-2 .44c-.14.65.47 1.43-.38 2.14-.28-.9-.52-1.63.38-2.14a.2.2 0 0 1 0-.07c.07-.89 1.09-.6 1.45-1.12-.59-1-1.72-1.78-1.53-3.35l.94 1.39c.82-1.71.46-2.87-1-3.4a1.14 1.14 0 0 1-.78-1.14 8.6 8.6 0 0 1-1.35-3.1 11 11 0 0 0-.64-1.27l-.41.11v1.1c.24 1.9.5 3.8.73 5.7.13 1.13.22 2.26.34 3.4 0 .25.15.49.17.74.16 1.79 0 3.63.81 5.33a1.5 1.5 0 0 1 0 .76c-.18 1.26.58 2.31.78 3.49a2 2 0 0 0 .38 0c.09-.4.19-.79.33-1.4l1 1.16c0-.49.1-1 .14-1.45-1.49-.32-1.48-.32-1.62-1.99m-.78-6v-1.48c.63.47.63.47.36 1.46zm11 5.61a2.61 2.61 0 0 1-2.19-2.87 3.3 3.3 0 0 0 0-.77 4.5 4.5 0 0 0-.42-.8c-.63.85.5 1.83-.55 2.61a29 29 0 0 1-.59-3c-.08-.8-.45-1-1.27-.84 1.23 1.46.26 3.4 1.29 4.86v.15a18 18 0 0 0 .06 2.06 1 1 0 0 0 1 1c.27-1 .62-1.94 1.77-2.18l.73.06z" style="fill:#e2000b" transform="translate(1 1)scale(.78815)"/><path d="m120.2 268.21-2.36-.11-1.06 1.25c0 .4-.06.8-.11 1.2a5.7 5.7 0 0 0-.18 1.8 7.2 7.2 0 0 1 .2 2 1.56 1.56 0 0 0 1 1.66c.19-1.63-1.4-3.36.7-4.63-.77-.44-1.13-.94-.64-1.89l1.14 1.12.88-.74 1-.73zm-2.83-1.65c1 .65 1.5.1 2-.51l.52 1.33c.7-.31.69-.64.53-1.26-.3-1.17-1.3-2-1.36-3.25l-1.17.34-.81-2-.34.06A7.7 7.7 0 0 0 117 263a6.17 6.17 0 0 1 .37 3.56m5.34.22c.55-.26 1.53.12 1.42-1.06l-2.89-1.86a14.2 14.2 0 0 0 1.05 5.49l.78-.88c.22.28.36.46.55.68l1.67-1.51c-.62 0-1.24 0-1.85-.07-.44-.04-.8-.22-.73-.79" style="fill:#e2000b" transform="translate(1 1)scale(.78815)"/><path d="M117.52 277c-.13 0-.38.23-.62.38.18.1.33.17.5.25a3.23 3.23 0 0 1 2.21-.85l.15-.35a4.6 4.6 0 0 0-.24-3.78.5.5 0 0 0 0 .12c-.23 1.13-.43 2.32-.73 3.48-.16.52-.5 1-1.27.75m5.3.7c-.26.88.14 1.38-.6 1.71l.19.68c.42.18.57-.31 1.16 0a5.1 5.1 0 0 0 .29-3.54 2.68 2.68 0 0 1-.21-1.76 1.59 1.59 0 0 0-.75-1.93v.23a3.3 3.3 0 0 0-.07.69 11.5 11.5 0 0 1-.01 3.92m-4.45-17.98.36.39.38.37c.1-.57.17-1 .26-1.5-1-.09-2-.65-2.85.72.77-.07 1.28 1.02 1.85.02m-4.15-16.58-.36 1-.91-.12-.14.3 1.45 1.05 1-1.38z" style="fill:#e2000b" transform="translate(1 1)scale(.78815)"/><path d="M122.07 279.85c0-.16.06-.31.08-.45h.07c.49-1 .54-1.32 0-1.91l-.4-.39-.06.15a1.5 1.5 0 0 1 .32.65 1.26 1.26 0 0 1 0 .7 1.6 1.6 0 0 1-.53.78c.12.14.29.29.52.47m-1.31-6.78c-.22.69-.45 1.31.34 1.62a.91.91 0 0 0 .78-.43c.12-.8-.48-.95-1.12-1.19m3.71-1.58c.1-.48 0-.81-.55-.9s-.84.15-1 .86l1.47.15zm1.1 3.87-.41-.74c-.54.34-1.5.19-1 1.29h1.72zm1.12 4.54a2.13 2.13 0 0 0-2.16-1.14 8 8 0 0 0 .64 1.1c.45-.19.86.48 1.29.34a.54.54 0 0 0 .29-.21zm-15.78-38.15c.77-.54.26-1 0-1.74-.54.86-.59 1.31 0 1.74m14.89 36c-.08-.54-.13-.94-.18-1.33l-.25-.07-.55 1 .8.44.19.1zm-11.23-31.53-1.17.58c1.02.2 1.03.2 1.17-.58m2.95 26.64c.34.12.55.26.73.23s.2-.28.29-.44a2.1 2.1 0 0 0-.58-.29c-.1-.01-.22.24-.44.5m2.24-2.97c0 .32.09.64.13 1a3 3 0 0 0 .54-.11 2.5 2.5 0 0 0 .44-.33zm11.39-8.43c-.12.63-.2 1.09-.29 1.54l.24-.28a1 1 0 0 0 .16-.32 2.7 2.7 0 0 0-.11-.94m-6.78 12.13c.12.25.26.49.39.73l.44-.33c-.21-.2-.41-.4-.63-.58-.01-.01-.21.15-.2.18m-4.26 8.87a1.35 1.35 0 0 0 .7-.29 1.13 1.13 0 0 0 .41-.8 7 7 0 0 1-.67.37.78.78 0 0 0-.44.72m.38-3.52-.11.29a.9.9 0 0 0-.09.32c0 .07.21.15.33.22a2 2 0 0 1 .14-.26 1.2 1.2 0 0 0 .09-.24c.01-.07-.17-.17-.36-.33m.51 6.91.22.33v.08c.52-.59.89-1 1.24-1.43a.6.6 0 0 0 .07-.27v-.13h-.19l-2 .46z" style="fill:#e2000b" transform="translate(1 1)scale(.78815)"/><path d="M103.72 7.19c.46-.28 1-.51 1.42-.76.3-.32.62-.94.89-.91s.65 0 1 0c-1.37-1.41-2.73-2.83-4.1-4.23a21 21 0 0 0-1.6-1.29c.17.83.24 1.26.34 1.68.26 1.15.53 2.31.79 3.47.21.9.42 1.8.62 2.71a1.26 1.26 0 0 1 .64-.67m49.46 289.22.39-.19-.12.06zm-3.27 1.59a2 2 0 0 0 .26-.13 2 2 0 0 1-.26.13m8.45-4.12c-.89.44-1.8.82-2.71 1.21.91-.39 1.82-.77 2.71-1.21m5.64-3.27-.21.15zm-13.52 7.14L152 297Zm12.28-8.17-.19.11zm-3.18 3.61c-.4.25-.81.47-1.22.69.41-.22.82-.44 1.22-.69m5.05-3.07-.3.23zm-2.29 1.25a3.8 3.8 0 0 0 .8-.28 3.6 3.6 0 0 1-.8.28m2.53-1.45.47-.39zm-18.02 3.63a2.3 2.3 0 0 1 .51-.35h.08a5 5 0 0 1 .56-.2h.08a4.5 4.5 0 0 1 .86-.14 4.4 4.4 0 0 0-.76.1h-.07a2.7 2.7 0 0 0-.68.25 2.7 2.7 0 0 0-.58.4l-.13.12a2 2 0 0 0-.25.32 2.3 2.3 0 0 1 .38-.5m-1.52 3.66a3 3 0 0 1-.42.26 3 3 0 0 0 .42-.26m1.14-3.21a2.3 2.3 0 0 0-.27.52 2.3 2.3 0 0 1 .27-.52m-.8 2.89a1.3 1.3 0 0 1-.24.23 1.3 1.3 0 0 0 .24-.23m3.66-3c.25-.37.5-.71.77-1.1l-.34.49c-.15.2-.29.4-.43.61m.77-1.1a7 7 0 0 0-1 0h-.1a7 7 0 0 1 1.1 0m7.12-5.86.11.05zm-8.52 7.84v.01h-.01zm8.83-7.68.09.05zm-11.37 7.55-.09.32v.17a3.5 3.5 0 0 1 .09-.49m14.33-2.1.26-.23c.19-.16.38-.33.56-.51a8 8 0 0 1-.82.74m-14.7 4.15c0-.08.08-.14.11-.23a2 2 0 0 1-.11.23m4.83-3.05-.1.1zm3.38-4.27c-.19.09-.38.21-.59.33l.3-.17zm-3 3.83v.05zm.41-.63-.08.12zm4.86-5.5.06-.06zm-3 4.61a2 2 0 0 0-.34-.4 3 3 0 0 1 .34.4m6.32-1.68v-.64.57zm-2.65-3.15h.11zm-.94.87a1 1 0 0 0 0 .09.2.2 0 0 1 0-.09m-5.79 6.28-.2.15zm6.25-7.09h.09zm10.12.09v.05a1 1 0 0 0 0-.22zm-3.22.68a1 1 0 0 0-.17.28 1 1 0 0 1 .14-.22.3.3 0 0 1 .03-.06m.16-.15-.16.15.11-.1zm1.3-1.03-.38.27.33-.24zm-.75.5.25-.19.09-.06c-.16.11-.3.21-.42.31zm-1.01 1.83v-.39a7 7 0 0 0 0 .92zm3.25-2.45.15.27zm.27.82a.13.13 0 0 1 0 .06.13.13 0 0 0 0-.06m-.05.28v-.18.12c0 .05.01.04 0 .06m-3.43.88a1 1 0 0 1 0-.17c.03.06.01.11 0 .17m2.97-2.36.2.32zm.41 1.7c0-.08 0-.14.05-.21s0 .15-.06.22zm-14.22 3.55.2-.27a6 6 0 0 0-.36.49c.05-.08.11-.15.16-.22m-.16.22c-.18.27-.35.55-.52.83.17-.3.34-.56.52-.83m.63-.36a.7.7 0 0 0-.27-.12.7.7 0 0 1 .27.12M172 271.24v-.18l-.12.17z" style="fill:#ffed00" transform="translate(1 1)scale(.78815)"/><path d="M171.49 270.49a9 9 0 0 1-1.14-.28l.86-1.68 1 .34c.86-1.42-.82-2.81.49-4.32l-1.07.2a1.4 1.4 0 0 1-.64 1.47l.18.18c.42.47.66 1-.06 1.35a.93.93 0 0 1-.83-.32c-.33-.55-.09-.9.71-1.21-.29-.49-.73-.8-1.24-.47-.24.16-.32.73-.29 1.1a12 12 0 0 0 .47 1.77c-1.19 1.49-.61 3.5-.65 5.42v4.69c0 .24 0 1-.05 1.3a53 53 0 0 1 1.51-6.4c-.07-.78-.14-1.59-.2-2.44h1.4l.12-.17c-.06-.23-.14-.49-.57-.53m1.69-10.59a2.61 2.61 0 0 1-1.84-3.1 3 3 0 0 0 0-.78 4.7 4.7 0 0 0-.31-.84c-.73.77.27 1.88-.85 2.53-.1-1.12-.26-2.08-.25-3 0-.8-.33-1-1.16-1 1.06 1.59-.13 3.41.72 5 0 0-.05.09-.05.14a18 18 0 0 0-.18 2.06 1 1 0 0 0 .87 1.1c.38-1 .84-1.86 2-2l.73.14zm.71 6.73-.57-2.13h-.35a8.5 8.5 0 0 0 0 1.75 6.15 6.15 0 0 1 0 3.63 7.6 7.6 0 0 1 2.52-1.68 3.94 3.94 0 0 1-.43-1.79zm3.11 1.18a9.2 9.2 0 0 1 1.83-.09l-1.71-1.41a13 13 0 0 0-.12 1.5m-4.06-6.18c.77 0 1.15 1.17 1.83.24l.32.43c.07.1.16.2.33.41.16-.55.29-1 .43-1.46-1.01-.2-1.93-.88-2.91.38m-5.24 24.43a10 10 0 0 0-.56 1.51c-.13.38-.32.57-.73.35 0-.09 0-.14.06-.21s0-.16.06-.22 0 0 0-.06v-.12a.13.13 0 0 0 0-.06.7.7 0 0 0 0-.14v-.25a1 1 0 0 0 0-.13l-.15-.27v-.07l-.2-.32-.05-.1a.5.5 0 0 1-.06-.14l-.35.22-.77.55-.33.24-.09.06-.25.19-.08.06-.37-.28h-.13v.67l-.05.05-.11.1a.3.3 0 0 0 0 .06 1 1 0 0 0-.14.22 1 1 0 0 0 0 .2 1 1 0 0 0 0 .17.2.2 0 0 0 0 .08v.92a3 3 0 0 1-.3.21l-.18.1-.29.16-.21.1-.59.29c-.56.26-1.1.57-1.65.87l-.33.18v-.06q0-.59.09-1.23v-.64l-2.5.23c.33-.91.56-1.55.8-2.23a3 3 0 0 0-.31-.21l-.09-.05-.2-.11-.11-.05-.17-.06h-.59l-.13.1-.06.06a1.2 1.2 0 0 0-.16.25v.09c0 .09-.06.19-.09.31a.2.2 0 0 0 0 .09 1.8 1.8 0 0 1-.16.45 2 2 0 0 1-.16.25 2 2 0 0 1-.19.2 1 1 0 0 1-.22.15l-.27.14c-.18.07-.38.13-.59.19l-.3.11-.29.16-.3.17-.31.19.84 1.28.78 1.21a1.4 1.4 0 0 1-.38.05h-.1a1 1 0 0 1-.23-.06h-.07a1 1 0 0 1-.24-.16 4 4 0 0 1-.42-.47 3 3 0 0 0-.33-.4 1 1 0 0 0-.2-.16.7.7 0 0 0-.27-.12l-.2.27c0 .07-.11.14-.16.22-.18.27-.35.55-.52.83l-.16.26-.06.1a5 5 0 0 1-.27.39l-.09.13v.05l-.27.32-.06.07-.1.1-.31.28-.19.15a2.7 2.7 0 0 1-.4.24l-.17.09a5 5 0 0 1-.72.26c.23-.34.43-.62.63-.89s.28-.41.43-.61l.34-.49a7 7 0 0 0-1.1 0H149a4.5 4.5 0 0 0-.86.14h-.08a5 5 0 0 0-.49.19h-.08a2.3 2.3 0 0 0-.51.35 2.3 2.3 0 0 0-.38.44 2.3 2.3 0 0 0-.27.52v.13a3.5 3.5 0 0 0-.12.49 4 4 0 0 0-.06.73 2 2 0 0 1-.08.6c0 .09-.08.15-.11.23a2 2 0 0 1-.12.2 1.3 1.3 0 0 1-.24.23l-.1.09a3 3 0 0 1-.42.26h-.06c-.78 1.54-2.27 2.34-3.51 3.41a17 17 0 0 0-1.39 1.52c.12.16.23.33.35.5.49-.21 1-.38 1.47-.63 2.26-1.18 4.52-2.4 6.78-3.58l.58-.31.78-.39a2 2 0 0 0 .26-.13l.31-.15L152 297l1.14-.57.27-.13.12-.06c.33-.16.59-.45.92-.6s.77-.36 1.16-.53c.91-.39 1.82-.77 2.71-1.21.41-.22.82-.44 1.22-.69.28-.18.55-.37.82-.58l.08-.06a8 8 0 0 0 .82-.74 1 1 0 0 1 .39-.24 4 4 0 0 1 .64-.19 3.6 3.6 0 0 0 .8-.28 5 5 0 0 0 .62-.33l.21-.15c.12-.09.25-.17.36-.26l.3-.23.24-.2.43-.36c.3-.25.71-.52 1-.74a4.5 4.5 0 0 0 1.42-1.29 2.7 2.7 0 0 0 .3-.65l.24-1.22c-.13-.09-.32.03-.51.37m-15.15 8.52.23-.58.8-.08.19.42-.79.32-.28-.07zm3.39-2.64a1.7 1.7 0 0 1 1.28-.35 4.5 4.5 0 0 1 .75.26 8 8 0 0 1-1.07.75 1.68 1.68 0 0 1-1.37.21 5 5 0 0 1-.67-.38 4 4 0 0 0 1.08-.49m-3.71 2.24c.32-.13.24.43.24.43l-.69.54s.14-.83.45-.97" style="fill:#ffed00" transform="translate(1 1)scale(.78815)"/><path d="M154.86 292.43a5 5 0 0 0 .67.38 1.68 1.68 0 0 0 1.37-.21 8 8 0 0 0 1.07-.75 4.5 4.5 0 0 0-.75-.26 1.7 1.7 0 0 0-1.28.35 4 4 0 0 1-1.08.49m-2.63 1.75c-.31.14-.45 1-.45 1l.69-.54s.08-.59-.24-.46m1.54.16-.19-.42-.8.08-.23.58h.15l.28.07z" style="fill:#085da4" transform="translate(1 1)scale(.78815)"/><path d="M99.49 222.63A5.7 5.7 0 0 0 98 221.4a15.4 15.4 0 0 0-2.15-1.05l-2.58-1a10 10 0 0 1-1.19-.56 3.7 3.7 0 0 1-.75-.56 1.64 1.64 0 0 1-.4-.63 2.6 2.6 0 0 1-.11-.77 1.87 1.87 0 0 1 .23-1 1.6 1.6 0 0 1 .66-.59 3.5 3.5 0 0 1 1.07-.3 13 13 0 0 1 1.49-.08q1.5 0 2.91.12l2.51.21v-2.72c-.23-.05-.53-.12-.92-.19s-.82-.14-1.31-.2-1-.12-1.59-.16-1.16-.06-1.76-.06a15.3 15.3 0 0 0-3 .26A5.7 5.7 0 0 0 89 213a3.7 3.7 0 0 0-1.29 1.56 5.7 5.7 0 0 0-.44 2.35 5.7 5.7 0 0 0 .29 1.87 4.6 4.6 0 0 0 .83 1.51 6.1 6.1 0 0 0 1.36 1.2 10 10 0 0 0 1.87 1l2.88 1.19a9 9 0 0 1 1.17.59 3.3 3.3 0 0 1 .73.61 1.8 1.8 0 0 1 .37.69 3 3 0 0 1 .11.83 2 2 0 0 1-.84 1.83 5 5 0 0 1-2.57.53c-1.2 0-2.25 0-3.17-.09l-2.56-.21v2.75c.23.06.56.13 1 .2s.91.13 1.44.18 1.11.11 1.72.15 1.24.05 1.87.05a10.4 10.4 0 0 0 2.86-.35 5.9 5.9 0 0 0 2.13-1.06 4.7 4.7 0 0 0 1.32-1.7 5.4 5.4 0 0 0 .46-2.3 7.7 7.7 0 0 0-.26-2.11 4.2 4.2 0 0 0-.79-1.64m9.81 9.02c.31 0 .59-.07.85-.12s.49-.09.68-.14l.45-.1V229h-2.18a3.5 3.5 0 0 1-.73-.06.76.76 0 0 1-.4-.24 1 1 0 0 1-.18-.48v-8.73h3.52v-2.72h-3.52v-3.67h-3.39v3.67h-2.7v2.5l2.7.22v8a7.2 7.2 0 0 0 .22 1.93 3 3 0 0 0 .7 1.28 2.83 2.83 0 0 0 1.24.72 6.4 6.4 0 0 0 1.83.23c.29.05.61.03.91 0m4.65-4.29h3.42v3.95h-3.42zm24.97-5.13a4.7 4.7 0 0 0 .83-1.63 7.4 7.4 0 0 0 .3-2.23v-.29a7.3 7.3 0 0 0-.32-2.21 4.9 4.9 0 0 0-.84-1.6 4.8 4.8 0 0 0-1.31-1.09 7 7 0 0 0-1.68-.66 12 12 0 0 0-2-.33c-.72-.06-1.47-.09-2.24-.09h-2.71c-.86 0-1.75.06-2.66.1v19.09h3.48v-6.88h2.08c.75 0 1.46 0 2.15-.09a10.7 10.7 0 0 0 2-.32 6.8 6.8 0 0 0 1.66-.68 4.7 4.7 0 0 0 1.26-1.09m-2.4-3.86a3.44 3.44 0 0 1-.29 1.54 2.25 2.25 0 0 1-.88.93 4 4 0 0 1-1.47.46 14 14 0 0 1-2.06.13h-2v-6.26h.52c1 0 1.94 0 2.72.05a6.4 6.4 0 0 1 1.94.32 2.22 2.22 0 0 1 1.18.88 3.1 3.1 0 0 1 .4 1.7zm7.56-6.81h2.87v3.18h-2.87zm9.37 18.49q1.68-1.65 1.68-5.08v-1.77a6.8 6.8 0 0 0-1.68-5.06 7.94 7.94 0 0 0-9.69 0 6.8 6.8 0 0 0-1.68 5.06v1.8q0 3.43 1.68 5.08a7.94 7.94 0 0 0 9.69 0zm-6.25-1.47a2.2 2.2 0 0 1-1-.66 2.9 2.9 0 0 1-.57-1.19 7.4 7.4 0 0 1-.18-1.76v-1.77a6.8 6.8 0 0 1 .19-1.76 3 3 0 0 1 .58-1.18 2.2 2.2 0 0 1 1-.66 4.5 4.5 0 0 1 1.41-.2 4.6 4.6 0 0 1 1.42.2 2.3 2.3 0 0 1 1 .66 2.8 2.8 0 0 1 .57 1.18 7.3 7.3 0 0 1 .18 1.76v1.8a7.4 7.4 0 0 1-.18 1.76 2.9 2.9 0 0 1-.57 1.19 2.2 2.2 0 0 1-1 .66 4.9 4.9 0 0 1-2.84 0zm3.1-17.02h2.85v3.18h-2.85zm7.86-.2h3.39v19.95h-3.39zm8.53 1.82v3.67H164v2.5l2.7.22v8a7.2 7.2 0 0 0 .22 1.93 3 3 0 0 0 .7 1.28 2.83 2.83 0 0 0 1.24.72 6.4 6.4 0 0 0 1.83.23h.94c.31 0 .59-.07.85-.12s.49-.09.68-.14l.45-.1V229h-2.18a3.5 3.5 0 0 1-.73-.06.8.8 0 0 1-.4-.24 1 1 0 0 1-.18-.48v-8.73h3.52v-2.72h-3.52v-3.67zm20.41 5.42a5.24 5.24 0 0 0-2-1.55 7.5 7.5 0 0 0-3.05-.56 6.3 6.3 0 0 0-4.88 1.79q-1.65 1.8-1.65 5.43v.89a12.8 12.8 0 0 0 .37 3.26 5 5 0 0 0 1.22 2.2 4.9 4.9 0 0 0 2.19 1.24 11.7 11.7 0 0 0 3.31.4 21 21 0 0 0 3.18-.21c.91-.15 1.64-.28 2.18-.41v-2.54c-1 .09-1.88.17-2.75.23s-1.7.1-2.46.1a7.2 7.2 0 0 1-2.1-.25 2.43 2.43 0 0 1-1.16-.69 2.2 2.2 0 0 1-.49-1.1 9 9 0 0 1-.1-1.43v-.26h9.65V224a13.2 13.2 0 0 0-.33-3 6.5 6.5 0 0 0-1.13-2.4m-1.94 4.33h-6.25v-.22a7.4 7.4 0 0 1 .11-1.24 2.9 2.9 0 0 1 .44-1.13 2.4 2.4 0 0 1 .95-.82 3.6 3.6 0 0 1 1.63-.31 3.7 3.7 0 0 1 1.67.31 2.4 2.4 0 0 1 .94.81 2.85 2.85 0 0 1 .41 1.12 7.6 7.6 0 0 1 .1 1.26zm18.84-.79a16 16 0 0 0-.15-2.27 4.5 4.5 0 0 0-.63-1.79 3.25 3.25 0 0 0-1.4-1.17 6 6 0 0 0-2.45-.42 7 7 0 0 0-2.39.42 14 14 0 0 0-2.35 1.1v-1.16h-3.23v14.46h3.36v-11a19 19 0 0 1 2.11-.71 6.5 6.5 0 0 1 1.69-.25 3.2 3.2 0 0 1 1 .14 1.3 1.3 0 0 1 .62.48 2.2 2.2 0 0 1 .31.86 10 10 0 0 1 .08 1.31v9.17H204Z" style="fill:#fff" transform="translate(1 1)scale(.78815)"/><path d="M119.59 201.83q2.82-2.47 2.82-7.89v-26.49q0-5.64-5.3-8.68l-12.62-7.44a6.25 6.25 0 0 1-2.09-1.86 5 5 0 0 1-.73-2.87v-12.52a4 4 0 0 1 .73-2.64 2.88 2.88 0 0 1 2.31-.85 3 3 0 0 1 2.43.85 4 4 0 0 1 .73 2.64v7.4l13.53 7.78v-19.12q0-10.59-10.71-10.6h-12.4c-3.46 0-6.13.87-8 2.59s-2.81 4.44-2.81 8.12V151a9 9 0 0 0 5.07 8.34l12.17 7a6.7 6.7 0 0 1 2.2 2 4.27 4.27 0 0 1 1 2.53v19q0 3.39-3.16 3.39a3 3 0 0 1-2.36-.79 3.93 3.93 0 0 1-.68-2.6v-13.36l-14.54-7.89v25.21q0 5.29 2.65 7.89t7.61 2.59h14.2c3.41 0 6.07-.82 7.95-2.48m21.87-33.03 7.67 35.51h14.43l-11.5-46.33 8.57-38.44H148l-6.54 33.93v-33.93h-13.52v84.77h13.52zm50.39-49.26.56 51.86-9.58-51.86H165.7v84.77h11.83l-.33-51.85 11.04 51.85h15.9v-84.77z" style="fill:#ffed00" transform="translate(1 1)scale(.78815)"/><path d="M132 97c0-8.33-4.55-12.25-9.73-12.25h-3.07a8.7 8.7 0 0 0-6.2 2.17c-1.7 1.76-2.88 3.61-2.88 10.25v17.14a3.1 3.1 0 1 0 6.2 0v-8.59h.08a6.58 6.58 0 0 0 6.12 3.26C129 109 132 103.21 132 97m-11.1 7c-3.78 0-5-3.83-5-7.14 0-3.66 1.36-7 5-7 3.31.08 4.93 3.21 4.93 7 0 2.96-.98 7.14-4.93 7.14m49.58.49c-4.59 0-4.85-4-7.52-4a2.44 2.44 0 0 0-2.51 2.69c0 3.17 4.67 5.77 10.28 5.77 4.67 0 9.56-2.42 9.56-7.67 0-4.49-4.21-6-7.73-6.87l-2.56-.58c-1.92-.45-3.32-.8-3.32-2.3s1.4-2 3.57-2c3.91 0 4 3 6.42 3a2.64 2.64 0 0 0 2.59-2.83c0-3-4.76-4.89-9.48-4.89-4.29 0-9.3 1.94-9.3 7.18 0 4.32 2.8 5.87 6.41 6.79l3.66.92c2.21.58 3.57.84 3.57 2.47-.03 1.3-1.43 2.32-3.64 2.32m-34.67-3.97c0 6.53 4.08 8.46 7.82 8.46 5 0 6.88 0 9.59-1.85 0 0 3.75-2.52 3.62-9.77V88c0-1.72-.68-3.22-3.1-3.22s-3.1 1.5-3.1 3.22v10.63a4.9 4.9 0 0 1-4.72 5.06c-2.68 0-3.91-1.84-3.91-4.45V88c0-1.72-.68-3.22-3.1-3.22a4.2 4.2 0 0 0-1.14.16 2.43 2.43 0 0 0-1.77 1.6 4.6 4.6 0 0 0-.23 1.47zm68.57-3.16V88c0-1.72-.68-3.22-3.1-3.22s-3.1 1.5-3.1 3.22v10.63a4.91 4.91 0 0 1-4.72 5.06c-2.68 0-3.91-1.84-3.91-4.45V88c0-1.72-.68-3.22-3.1-3.22s-3.1 1.5-3.1 3.22v12.51c0 6.53 4.08 8.46 7.81 8.46 5 0 6.89 0 9.59-1.85 0 .01 3.76-2.51 3.63-9.76m-107.23 7.13c-4.58 0-4.84-4-7.51-4a2.43 2.43 0 0 0-2.51 2.69c0 3.17 4.67 5.77 10.28 5.77 4.67 0 9.56-2.42 9.56-7.67 0-4.49-4.21-6-7.73-6.87l-2.6-.61c-1.91-.45-3.31-.8-3.31-2.3s1.4-2 3.57-2c3.91 0 4 3 6.41 3a2.64 2.64 0 0 0 2.59-2.83c0-3-4.75-4.89-9.47-4.89-4.29 0-9.3 1.94-9.3 7.18 0 4.32 2.8 5.87 6.41 6.79l3.66.92c2.2.58 3.56.84 3.56 2.47 0 1.33-1.4 2.35-3.61 2.35" style="fill:#fff" transform="translate(1 1)scale(.78815)"/></svg>