<svg xmlns="http://www.w3.org/2000/svg" width="756" height="756" viewBox="0 0 567 567"><path d="M283.535-.02c156.555 0 283.469 126.91 283.469 283.465S440.09 566.91 283.535 566.91C126.985 566.91.07 440 .07 283.445S126.984-.02 283.535-.02m0 0" style="stroke:none;fill-rule:evenodd;fill:#0062aa;fill-opacity:1"/><path d="M283.535 10.453c150.77 0 272.992 122.223 272.992 272.992 0 150.77-122.222 272.993-272.992 272.993S10.547 434.215 10.547 283.445 132.766 10.453 283.535 10.453m0 0" style="stroke:none;fill-rule:evenodd;fill:#fff;fill-opacity:1"/><path d="M283.535 68.734c67.45 0 127.637 31.13 167 79.786h-13.7c-37.433-42.489-92.237-69.313-153.3-69.313-61.062 0-115.863 26.824-153.293 69.313H116.54c39.367-48.657 99.55-79.786 166.996-79.786m193.68 307.489c-34.625 72.12-108.344 121.933-193.68 121.933-85.332 0-159.055-49.812-193.676-121.933h11.692c33.8 66.152 102.61 111.46 181.984 111.46s148.188-45.308 181.988-111.46Zm0 0" style="stroke:none;fill-rule:evenodd;fill:#0062aa;fill-opacity:1"/><path d="M232.57 127.078v42.684h-11.797v-27.969q-2.86 2.173-5.539 3.52-2.672 1.346-6.714 2.582v-9.57c3.976-1.278 7.054-2.813 9.253-4.602 2.192-1.797 3.91-4.016 5.153-6.645Zm13.203 33.266 11.59-1.457c.313 1.62.82 2.765 1.551 3.43.727.675 1.613 1.007 2.66 1.007 1.867 0 3.332-.949 4.38-2.836q1.142-2.096 1.718-8.851c-1.399 1.437-2.824 2.48-4.29 3.156-1.476.664-3.171.996-5.1.996-3.762 0-6.93-1.328-9.52-4.008-2.59-2.668-3.88-6.047-3.88-10.133 0-2.785.657-5.328 1.973-7.613 1.32-2.297 3.13-4.027 5.446-5.2 2.304-1.17 5.207-1.757 8.695-1.757 4.203 0 7.574.723 10.117 2.16 2.532 1.434 4.563 3.73 6.078 6.867 1.52 3.137 2.278 7.293 2.278 12.442 0 7.574-1.59 13.125-4.781 16.652-3.184 3.52-7.598 5.278-13.262 5.278q-4.999.001-7.895-1.153c-1.926-.781-3.539-1.906-4.808-3.402-1.282-1.484-2.262-3.34-2.95-5.578m21.47-18.727c0-2.265-.567-4.043-1.72-5.336-1.144-1.289-2.53-1.933-4.175-1.933-1.551 0-2.832.586-3.844 1.75-1.031 1.164-1.54 2.91-1.54 5.238 0 2.344.528 4.144 1.583 5.383q1.597 1.862 3.969 1.86c1.64 0 3.011-.599 4.093-1.81 1.086-1.203 1.633-2.914 1.633-5.152m17.121 6.988c0-7.972 1.438-13.562 4.309-16.75 2.875-3.183 7.254-4.777 13.125-4.777 2.824 0 5.152.34 6.96 1.043 1.817.695 3.294 1.606 4.434 2.719 1.149 1.113 2.055 2.285 2.707 3.52.664 1.23 1.192 2.667 1.594 4.308.781 3.137 1.172 6.398 1.172 9.793 0 7.621-1.285 13.191-3.867 16.719-2.57 3.539-7.008 5.297-13.313 5.297-3.523 0-6.382-.559-8.558-1.692-2.18-1.12-3.961-2.773-5.356-4.945-1.007-1.55-1.8-3.664-2.355-6.34-.567-2.687-.852-5.648-.852-8.895m11.57.032c0 5.343.47 8.988 1.419 10.945.937 1.961 2.32 2.941 4.109 2.941 1.176 0 2.203-.421 3.074-1.253q1.3-1.243 1.914-3.926c.41-1.801.617-4.594.617-8.395 0-5.57-.468-9.324-1.418-11.238q-1.4-2.876-4.25-2.875c-1.925 0-3.324.976-4.175 2.934-.86 1.953-1.29 5.578-1.29 10.867m47.583 13.281H322.27v-9.59l21.246-25.25h10.164v25.79h5.27v9.05h-5.27v7.844h-10.164Zm0-9.05v-13.192l-11.227 13.191ZM196.18 359.406h12.523l4.512 23.844 6.582-23.844h12.492l6.61 23.844 4.511-23.844h12.461l-9.402 42.688h-12.93l-7.484-26.875-7.453 26.875h-12.93Zm64.554 42.688h13.223v-42.688h-13.223Zm22.661-42.688h35.34v9.114h-22.122v6.789h20.524v8.707h-20.524v8.406h22.77v9.672h-35.988Zm43.171 0h12.325l16.074 23.614v-23.614h12.43v42.688h-12.43l-15.992-23.438v23.438h-12.407ZM81.234 190.828 43.43 170.727l13.785-25.918 6.398 3.402-9.722 18.277 8.945 4.754 8.387-15.777 6.406 3.402-8.399 15.778 16.067 8.542Zm17.598-32.137-33.613-26.164 5.324-6.84 27.898 21.72 13.239-17.012 5.715 4.449Zm5.801-41.714c-2.98-3.196-5.004-6.313-6.07-9.368a20.5 20.5 0 0 1-1.09-7.015c.054-2.41.53-4.61 1.422-6.586 1.175-2.656 3.039-5.16 5.59-7.54 4.617-4.308 9.636-6.32 15.081-6.038 5.438.27 10.536 2.957 15.29 8.05 4.722 5.063 7.03 10.297 6.949 15.72-.09 5.413-2.426 10.273-7.02 14.558-4.656 4.347-9.687 6.383-15.082 6.11-5.402-.278-10.426-2.915-15.07-7.891m6.312-6.286c3.309 3.54 6.64 5.461 9.98 5.77 3.348.297 6.274-.73 8.798-3.086 2.515-2.344 3.742-5.18 3.656-8.512-.082-3.32-1.809-6.793-5.2-10.422-3.34-3.586-6.628-5.527-9.843-5.836q-4.84-.442-8.742 3.204c-2.61 2.433-3.871 5.289-3.797 8.566.07 3.27 1.781 6.707 5.148 10.316m44.665-10.211-21.532-37.21 15.82-9.153c3.98-2.3 7.063-3.633 9.247-4.008 2.19-.375 4.32-.027 6.39 1.055 2.074 1.09 3.742 2.727 5.012 4.926 1.617 2.793 2.133 5.578 1.547 8.347-.59 2.758-2.38 5.333-5.38 7.692 2.18.012 4.126.273 5.84.797q2.567.783 7.762 3.566l8.75 4.63-8.98 5.198-10.121-4.957c-3.61-1.777-5.977-2.836-7.121-3.18-1.149-.34-2.2-.413-3.16-.242-.957.188-2.293.774-4.028 1.778l-1.515.875 8.988 15.535Zm-4.907-25.828 5.55-3.215c3.606-2.085 5.774-3.535 6.5-4.359.716-.82 1.114-1.754 1.192-2.793.07-1.039-.207-2.113-.851-3.234-.727-1.254-1.649-2.063-2.758-2.45q-1.669-.573-3.684.176c-.648.274-2.504 1.285-5.554 3.051l-5.856 3.39Zm42.551 4.708-16.8-39.286 7.929-3.39 16.8 39.285Zm4.891-47.82 15.32-4.392c3.445-.992 6.148-1.484 8.12-1.472q3.959.02 7.349 2.035c2.261 1.324 4.226 3.187 5.894 5.574 1.66 2.403 3.05 5.535 4.168 9.43.98 3.41 1.399 6.48 1.258 9.2-.164 3.308-.945 6.179-2.344 8.597-1.043 1.836-2.687 3.5-4.933 5.004q-2.52 1.674-7.172 3.004l-15.758 4.52Zm10.394 4.62 7.883 27.48 6.25-1.788c2.336-.672 3.992-1.282 4.957-1.852 1.254-.727 2.223-1.621 2.887-2.691.668-1.07 1.007-2.621 1.047-4.637.027-2.02-.41-4.64-1.333-7.852-.917-3.207-1.914-5.578-2.964-7.136q-1.6-2.338-3.532-3.34-1.949-1.008-4.445-.836c-1.242.062-3.57.594-6.992 1.574Zm40.305 12.637 8.347-1.527c.735 2.789 1.938 4.777 3.598 5.972 1.656 1.188 3.8 1.684 6.43 1.465 2.785-.234 4.836-.996 6.144-2.3q1.975-1.94 1.782-4.305-.128-1.524-1.118-2.508-.965-1.003-3.261-1.594c-1.04-.277-3.403-.703-7.079-1.3-4.726-.759-8.097-1.903-10.101-3.427q-4.248-3.198-4.664-8.285c-.188-2.183.262-4.27 1.34-6.277q1.619-2.994 4.984-4.781c2.25-1.184 5.012-1.914 8.3-2.188 5.384-.449 9.52.39 12.438 2.516 2.91 2.14 4.602 5.16 5.067 9.09l-8.613 1.097c-.555-2.172-1.485-3.691-2.778-4.547q-1.946-1.299-5.598-.992c-2.511.211-4.445.883-5.773 2.04-.863.734-1.242 1.66-1.156 2.765q.128 1.53 1.504 2.496 1.747 1.243 8.187 2.2c4.29.648 7.485 1.413 9.59 2.304 2.102.898 3.8 2.215 5.098 3.96q1.934 2.625 2.273 6.68c.203 2.454-.281 4.813-1.473 7.063-1.183 2.254-2.972 4.012-5.382 5.258-2.407 1.254-5.47 2.031-9.192 2.34q-8.126.68-12.789-2.711c-3.11-2.258-5.148-5.766-6.105-10.504m48.097-31.75 15.668 1.926c3.532.433 6.188 1.027 7.98 1.8 2.4 1.04 4.376 2.606 5.915 4.7 1.547 2.086 2.625 4.547 3.215 7.37.586 2.829.64 6.227.152 10.212q-.646 5.234-2.41 8.875c-1.441 2.953-3.262 5.27-5.473 6.933q-2.49 1.904-6.433 2.653c-1.965.37-4.532.355-7.703-.032l-16.122-1.98Zm7.688 8.238-3.45 28.113 6.395.786c2.39.293 4.14.379 5.238.23 1.426-.176 2.657-.613 3.676-1.332 1.024-.719 1.934-2 2.75-3.828.809-1.828 1.418-4.39 1.825-7.672.402-3.281.414-5.828.058-7.66-.367-1.828-1.012-3.305-1.93-4.41-.925-1.117-2.168-1.942-3.726-2.485-1.164-.422-3.488-.84-6.988-1.27Zm34.742 19.481c1.442-4.188 3.274-7.485 5.508-9.891a20.5 20.5 0 0 1 5.758-4.316c2.187-1.098 4.379-1.723 6.578-1.864 2.937-.207 6.066.27 9.414 1.422 6.05 2.086 10.25 5.625 12.586 10.633 2.344 5 2.363 10.848.062 17.531-2.285 6.637-5.879 11.196-10.773 13.703-4.89 2.496-10.356 2.711-16.383.637-6.11-2.101-10.324-5.64-12.648-10.601q-3.478-7.456-.102-17.254m8.633 2.664c-1.598 4.644-1.734 8.547-.414 11.683 1.32 3.14 3.637 5.274 6.941 6.414 3.305 1.137 6.43.883 9.371-.777 2.938-1.652 5.227-4.852 6.86-9.613 1.62-4.703 1.797-8.57.543-11.602-1.27-3.023-3.618-5.125-7.028-6.3-3.425-1.18-6.582-.954-9.48.671-2.895 1.625-5.16 4.79-6.793 9.524m31.586 33.582 21.265-36.684 15.598 9.04c3.918 2.273 6.57 4.253 7.969 5.944q2.092 2.533 2.234 5.985c.086 2.308-.5 4.539-1.758 6.707-1.593 2.75-3.726 4.562-6.378 5.418-2.649.851-5.735.582-9.223-.824 1.062 1.87 1.793 3.664 2.183 5.386.399 1.723.649 4.516.762 8.395l.336 9.754-8.86-5.133-.726-11.09c-.25-3.957-.508-6.504-.777-7.652-.27-1.149-.723-2.086-1.344-2.82-.629-.731-1.781-1.586-3.492-2.575l-1.496-.867-8.88 15.317Zm19.687-16.875 5.477 3.172q5.332 3.094 6.918 3.418 1.582.315 2.976-.352c.922-.445 1.707-1.21 2.348-2.312.719-1.239.957-2.422.742-3.563-.218-1.145-.87-2.16-1.957-3.066-.554-.422-2.332-1.508-5.336-3.25l-5.773-3.348Zm16.844 39.66 28.29-32.54 22.312 19.395-4.79 5.508L446.2 82.48l-6.691 7.7 13.586 11.808-4.79 5.508-13.585-11.808-12.02 13.828Zm27.887 25.027 32.543-28.289 20.972 24.125-5.511 4.79-15.258-17.555-7.215 6.27 14.2 16.335-5.477 4.762-14.203-16.336-8.856 7.699 15.8 18.18-5.483 4.77Zm25.902 31.172 37.457-21.629 9.195 15.926c2.317 4.004 3.653 7.105 4.028 9.305q.564 3.305-1.07 6.43c-1.098 2.09-2.747 3.761-4.961 5.042-2.805 1.621-5.618 2.137-8.399 1.543-2.777-.593-5.363-2.402-7.734-5.418-.012 2.196-.278 4.149-.809 5.875-.527 1.723-1.722 4.32-3.594 7.809l-4.664 8.797-5.222-9.043 4.996-10.176c1.789-3.629 2.855-6.012 3.207-7.164.34-1.152.418-2.207.246-3.176-.188-.965-.777-2.308-1.785-4.054l-.88-1.528-15.64 9.031Zm25.992-4.914 3.227 5.59c2.098 3.629 3.555 5.812 4.383 6.543.828.719 1.761 1.12 2.808 1.2 1.043.073 2.13-.204 3.254-.852 1.266-.731 2.078-1.657 2.473-2.774.383-1.121.32-2.351-.18-3.703q-.409-.983-3.062-5.594l-3.407-5.894ZM26.285 346.734l-1.562-9.351 9.043-5.332-2.844-17.008-10.254-1.887-1.527-9.113 45.316 9.453 1.52 9.082Zm14.184-18.636 14.804-8.504-16.75-3.102Zm-9.996 32.957 34.078-11.07-3.953-12.169 6.941-2.257 10.594 32.597-6.945 2.254-3.942-12.137-34.078 11.075Zm11.875 32.207 37.941-20.516 4.145 7.668-14.93 8.07 8.117 15.012 14.926-8.074 4.144 7.66-37.937 20.516-4.145-7.66 16.594-8.97-8.117-15.011-16.594 8.973Zm25.362 42.992 33.712-26.336 5.36 6.86-27.985 21.863 13.332 17.058-5.73 4.477Zm27.63 34.031 28.297-32.55 24.133 20.976-4.79 5.508-17.558-15.266-6.274 7.219 16.34 14.203-4.765 5.48-16.34-14.207-7.703 8.86 18.183 15.808-4.77 5.489Zm43.875 34.477 19.515-30.051-10.726-6.969 3.973-6.125 28.746 18.668-3.977 6.125-10.707-6.953-19.516 30.05Zm29.325 16.961 18.226-39.09 7.89 3.68-18.226 39.09Zm22.151 10.347 11.895-41.46 8.367 2.398-5.281 18.41 22.191-13.559 11.258 3.227-20.242 11.672 9.207 30.031-10.832-3.105-5.816-22.727-8.782 4.984-3.594 12.528Zm47.524-2.175 8.504.355q.152 4.335 2.203 6.645c1.355 1.53 3.34 2.488 5.965 2.859 2.773.39 4.957.098 6.523-.89q2.366-1.46 2.7-3.817c.144-1.016-.04-1.914-.536-2.703q-.727-1.202-2.844-2.285c-.953-.5-3.175-1.442-6.636-2.84-4.465-1.793-7.504-3.664-9.13-5.594q-3.449-4.074-2.734-9.148c.305-2.176 1.208-4.118 2.708-5.844 1.5-1.715 3.484-2.91 5.94-3.578 2.466-.657 5.333-.762 8.61-.301 5.371.758 9.235 2.496 11.617 5.223 2.375 2.738 3.36 6.07 2.946 10.02l-8.672-.837q-.095-3.377-1.719-5.066c-1.07-1.133-2.824-1.867-5.254-2.211-2.508-.352-4.547-.121-6.105.715q-1.507.792-1.742 2.453-.218 1.524.918 2.773 1.431 1.606 7.527 3.969 6.082 2.379 8.875 4.383c1.855 1.347 3.226 3.008 4.113 5.011q1.308 2.996.742 7.04c-.343 2.445-1.343 4.648-3.004 6.586-1.664 1.945-3.808 3.269-6.433 3.953-2.637.695-5.813.773-9.524.254-5.394-.758-9.37-2.586-11.914-5.489-2.543-2.902-3.761-6.785-3.644-11.636m47.675 18.628-3.757-42.968 13.918-1.215c5.27-.461 8.73-.543 10.37-.254 2.517.426 4.712 1.644 6.56 3.66 1.855 2.016 2.925 4.734 3.222 8.145.23 2.64-.055 4.906-.86 6.78-.796 1.884-1.882 3.403-3.277 4.56-1.382 1.148-2.824 1.96-4.312 2.425-2.04.59-5.024 1.063-8.953 1.407l-5.653.496 1.418 16.207Zm5.551-36.453 1.067 12.184 4.746-.414c3.418-.297 5.691-.719 6.8-1.27 1.118-.55 1.954-1.332 2.532-2.347.562-1.02.797-2.157.684-3.43q-.206-2.338-1.72-3.75c-1-.93-2.226-1.469-3.648-1.594-1.058-.11-3.144-.02-6.265.254Zm33.75 12.625c-1.214-4.226-1.601-7.949-1.16-11.18a20.7 20.7 0 0 1 2.23-6.792c1.153-2.137 2.583-3.895 4.29-5.262 2.273-1.844 5.09-3.234 8.469-4.207 6.113-1.75 11.539-1.258 16.296 1.48 4.75 2.735 8.098 7.48 10.032 14.227 1.922 6.7 1.597 12.457-.957 17.285-2.555 4.817-6.88 8.102-12.961 9.848-6.168 1.77-11.614 1.293-16.328-1.418-4.72-2.723-8.016-7.387-9.91-13.98m8.54-2.75c1.343 4.692 3.457 7.942 6.316 9.742 2.867 1.801 5.96 2.22 9.3 1.262 3.333-.957 5.731-2.937 7.184-5.969 1.442-3.011 1.48-6.921.102-11.73-1.36-4.75-3.418-7.992-6.168-9.742-2.75-1.738-5.86-2.113-9.305-1.125-3.457.992-5.898 2.976-7.332 5.949-1.426 2.965-1.469 6.832-.098 11.613m50.132 7.269-19.457-38.496 16.367-8.274c4.114-2.078 7.274-3.238 9.489-3.488 2.21-.254 4.328.219 6.34 1.418 2.02 1.207 3.593 2.941 4.746 5.219 1.457 2.886 1.816 5.71 1.074 8.449-.75 2.73-2.692 5.207-5.828 7.398 2.183.137 4.12.508 5.804 1.13 1.692.62 4.207 1.956 7.579 4.015l8.5 5.133-9.293 4.695-9.856-5.539c-3.512-1.984-5.824-3.176-6.957-3.586-1.129-.406-2.176-.543-3.148-.422-.97.133-2.34.645-4.133 1.551l-1.57.793 8.125 16.07Zm-3.449-26.153 5.742-2.902c3.73-1.887 5.985-3.215 6.758-4 .762-.781 1.215-1.695 1.352-2.734.129-1.031-.086-2.13-.668-3.285-.66-1.297-1.532-2.16-2.625-2.61-1.094-.449-2.325-.457-3.7-.035-.668.238-2.582 1.149-5.734 2.742l-6.059 3.063Zm53.926-2.003-21.067-28.989-10.347 7.52-4.293-5.906 27.73-20.145 4.29 5.906-10.325 7.5 21.063 28.993Zm12.87-24.519-5.425-6.24 12.254-10.652 5.426 6.239Zm35.47-42.536 7.3-5.004c2.915 3.922 4.344 7.766 4.293 11.55-.05 3.77-1.503 7.49-4.351 11.137-3.527 4.512-7.973 7.016-13.32 7.516-5.356.492-10.711-1.348-16.051-5.52-5.66-4.421-8.906-9.316-9.754-14.683q-1.279-8.045 4.305-15.187c3.246-4.157 7.113-6.579 11.601-7.25 2.66-.418 5.652.058 8.98 1.41l-3.69 8.062c-2.071-.98-4.122-1.23-6.141-.746-2.016.477-3.739 1.629-5.16 3.45-1.965 2.519-2.665 5.273-2.079 8.253q.873 4.467 6.95 9.215c4.296 3.356 7.96 4.984 10.992 4.856 3.035-.118 5.511-1.415 7.441-3.887 1.43-1.828 2.078-3.844 1.938-6.067-.13-2.218-1.22-4.586-3.254-7.105m25.097-9.047-37.414-20.738 4.223-7.617 31.055 17.218 10.496-18.937 6.36 3.523Zm-20.711-49.894 2.836-8.235 22.086 7.606c3.504 1.207 5.82 1.886 6.922 2.043 1.793.222 3.426-.16 4.887-1.133 1.473-.98 2.598-2.621 3.39-4.918.805-2.336.942-4.266.387-5.781-.539-1.516-1.472-2.633-2.777-3.348-1.313-.727-3.578-1.637-6.809-2.746l-22.558-7.77 2.832-8.234 21.422 7.379c4.906 1.683 8.28 3.094 10.152 4.238 1.867 1.14 3.285 2.543 4.27 4.219.972 1.676 1.53 3.664 1.671 5.941.137 2.29-.355 5.051-1.468 8.278q-2.009 5.84-4.399 8.394c-1.594 1.703-3.308 2.887-5.144 3.563-1.836.671-3.614.921-5.317.75-2.52-.262-6.058-1.184-10.629-2.758Zm13.524-40.165 2.726-17.027c.543-3.371 1.082-5.867 1.637-7.476.543-1.614 1.363-2.997 2.469-4.165 1.098-1.164 2.457-2.054 4.082-2.69 1.617-.638 3.351-.806 5.183-.513a10.1 10.1 0 0 1 5.239 2.489c1.496 1.347 2.508 3.004 3.047 4.972 1.168-2.468 2.78-4.265 4.816-5.363 2.05-1.105 4.3-1.457 6.762-1.062q2.901.461 5.433 2.253c1.68 1.196 2.953 2.66 3.793 4.391s1.207 3.766 1.102 6.098c-.082 1.449-.54 4.925-1.375 10.418l-2.324 14.496Zm8.469-7.472 9.847 1.578.903-5.637q.803-5.026.851-6.27c.067-1.492-.254-2.734-.96-3.71-.708-.98-1.755-1.575-3.13-1.793-1.316-.215-2.449-.028-3.386.566q-1.412.902-2.008 3.004c-.235.836-.68 3.277-1.324 7.324Zm16.937 2.71 11.383 1.825 1.273-7.953c.5-3.102.735-5.078.688-5.942-.024-1.316-.43-2.449-1.195-3.394q-1.163-1.425-3.426-1.79c-1.278-.206-2.41-.062-3.403.411-.992.484-1.789 1.27-2.382 2.375s-1.2 3.621-1.829 7.527ZM95.672 188.102h94.281v30.683h-61.367v32.469h60.926v27.57h-60.926V340.2H95.672Zm158.433-.086h38.774l52.562 150.847h-38.968l-10.364-33.8h-50.406l-10.832 33.8h-36.55Zm34.973 89.476L272.91 220.16l-18.37 57.332Zm142.027-96.422c15.207 0 29.446 4.118 41.668 11.29l-11.449 28.3c-8.125-5.394-17.902-8.543-28.433-8.543-28.176 0-51.028 22.555-51.028 50.371s22.852 50.375 51.028 50.375c9.687 0 18.746-2.664 26.46-7.293l10.622 29.801c-11.575 6.2-24.809 9.719-38.868 9.719-45.43 0-82.27-36.727-82.27-82.012s36.84-82.008 82.27-82.008m0 0" style="stroke:none;fill-rule:evenodd;fill:#0062aa;fill-opacity:1"/></svg>